<?xml version="1.0" encoding="utf-8" standalone="no"?>
<!DOCTYPE svg PUBLIC "-//W3C//DTD SVG 1.1//EN"
  "http://www.w3.org/Graphics/SVG/1.1/DTD/svg11.dtd">
<svg xmlns:xlink="http://www.w3.org/1999/xlink" width="576pt" height="576pt" viewBox="0 0 576 576" xmlns="http://www.w3.org/2000/svg" version="1.1">
 <metadata>
  <rdf:RDF xmlns:dc="http://purl.org/dc/elements/1.1/" xmlns:cc="http://creativecommons.org/ns#" xmlns:rdf="http://www.w3.org/1999/02/22-rdf-syntax-ns#">
   <cc:Work>
    <dc:type rdf:resource="http://purl.org/dc/dcmitype/StillImage"/>
    <dc:date>2025-07-20T16:08:18.822409</dc:date>
    <dc:format>image/svg+xml</dc:format>
    <dc:creator>
     <cc:Agent>
      <dc:title>Matplotlib v3.10.3, https://matplotlib.org/</dc:title>
     </cc:Agent>
    </dc:creator>
   </cc:Work>
  </rdf:RDF>
 </metadata>
 <defs>
  <style type="text/css">*{stroke-linejoin: round; stroke-linecap: butt}</style>
 </defs>
 <g id="figure_1">
  <g id="patch_1">
   <path d="M 0 576 
L 576 576 
L 576 0 
L 0 0 
L 0 576 
z
" style="fill: none; opacity: 0"/>
  </g>
  <g id="axes_1">
   <g id="QuadContourSet_1">
    <path clip-path="url(#p8bcc339c0a)" style="fill: #f5f9fe; fill-opacity: 0.8"/>
    <path clip-path="url(#p8bcc339c0a)" style="fill: #eff6fc; fill-opacity: 0.8"/>
    <path clip-path="url(#p8bcc339c0a)" style="fill: #eaf2fb; fill-opacity: 0.8"/>
    <path clip-path="url(#p8bcc339c0a)" style="fill: #e4eff9; fill-opacity: 0.8"/>
    <path clip-path="url(#p8bcc339c0a)" style="fill: #dfebf7; fill-opacity: 0.8"/>
    <path clip-path="url(#p8bcc339c0a)" style="fill: #d9e8f5; fill-opacity: 0.8"/>
    <path d="M 49.786315 570.719164 
L 50.016807 570.779171 
L 50.247299 570.84087 
L 50.477791 570.904318 
L 50.566617 570.929172 
L 50.708283 570.929172 
L 50.938776 570.929172 
L 51.169268 570.929172 
L 51.39976 570.929172 
L 51.630252 570.929172 
L 51.860744 570.929172 
L 52.091236 570.929172 
L 52.321729 570.929172 
L 52.552221 570.929172 
L 52.782713 570.929172 
L 53.013205 570.929172 
L 53.243697 570.929172 
L 53.47419 570.929172 
L 53.704682 570.929172 
L 53.935174 570.929172 
L 54.165666 570.929172 
L 54.396158 570.929172 
L 54.626651 570.929172 
L 54.857143 570.929172 
L 55.087635 570.929172 
L 55.318127 570.929172 
L 55.548619 570.929172 
L 55.779112 570.929172 
L 56.009604 570.929172 
L 56.240096 570.929172 
L 56.470588 570.929172 
L 56.70108 570.929172 
L 56.931573 570.929172 
L 57.162065 570.929172 
L 57.392557 570.929172 
L 57.623049 570.929172 
L 57.853541 570.929172 
L 58.084034 570.929172 
L 58.314526 570.929172 
L 58.545018 570.929172 
L 58.77551 570.929172 
L 59.006002 570.929172 
L 59.236495 570.929172 
L 59.466987 570.929172 
L 59.466987 570.698679 
L 59.697479 570.698679 
L 59.927971 570.698679 
L 60.158463 570.698679 
L 60.388956 570.698679 
L 60.619448 570.698679 
L 60.84994 570.698679 
L 61.080432 570.698679 
L 61.310924 570.698679 
L 61.541417 570.698679 
L 61.771909 570.698679 
L 62.002401 570.698679 
L 62.232893 570.698679 
L 62.463385 570.698679 
L 62.693878 570.698679 
L 62.92437 570.698679 
L 63.154862 570.698679 
L 63.385354 570.698679 
L 63.615846 570.698679 
L 63.846339 570.698679 
L 64.076831 570.698679 
L 64.307323 570.698679 
L 64.537815 570.698679 
L 64.768307 570.698679 
L 64.9988 570.698679 
L 65.229292 570.698679 
L 65.459784 570.698679 
L 65.690276 570.698679 
L 65.920768 570.698679 
L 66.151261 570.698679 
L 66.381753 570.698679 
L 66.612245 570.698679 
L 66.842737 570.698679 
L 67.073229 570.698679 
L 67.303721 570.698679 
L 67.534214 570.698679 
L 67.764706 570.698679 
L 67.995198 570.698679 
L 68.22569 570.698679 
L 68.456182 570.698679 
L 68.686675 570.698679 
L 68.917167 570.698679 
L 69.147659 570.698679 
L 69.378151 570.698679 
L 69.608643 570.698679 
L 69.608643 570.468187 
L 69.839136 570.468187 
L 70.069628 570.468187 
L 70.30012 570.468187 
L 70.530612 570.468187 
L 70.761104 570.468187 
L 70.991597 570.468187 
L 71.222089 570.468187 
L 71.452581 570.468187 
L 71.683073 570.468187 
L 71.913565 570.468187 
L 72.144058 570.468187 
L 72.37455 570.468187 
L 72.605042 570.468187 
L 72.835534 570.468187 
L 73.066026 570.468187 
L 73.296519 570.468187 
L 73.527011 570.468187 
L 73.757503 570.468187 
L 73.987995 570.468187 
L 74.218487 570.468187 
L 74.44898 570.468187 
L 74.679472 570.468187 
L 74.909964 570.468187 
L 75.140456 570.468187 
L 75.370948 570.468187 
L 75.601441 570.468187 
L 75.831933 570.468187 
L 76.062425 570.468187 
L 76.292917 570.468187 
L 76.523409 570.468187 
L 76.753902 570.468187 
L 76.984394 570.468187 
L 77.214886 570.468187 
L 77.445378 570.468187 
L 77.67587 570.468187 
L 77.906363 570.468187 
L 78.136855 570.468187 
L 78.367347 570.468187 
L 78.597839 570.468187 
L 78.828331 570.468187 
L 79.058824 570.468187 
L 79.289316 570.468187 
L 79.289316 570.237695 
L 79.519808 570.237695 
L 79.7503 570.237695 
L 79.980792 570.237695 
L 80.211285 570.237695 
L 80.441777 570.237695 
L 80.672269 570.237695 
L 80.902761 570.237695 
L 81.133253 570.237695 
L 81.363745 570.237695 
L 81.594238 570.237695 
L 81.82473 570.237695 
L 82.055222 570.237695 
L 82.285714 570.237695 
L 82.516206 570.237695 
L 82.746699 570.237695 
L 82.977191 570.237695 
L 83.207683 570.237695 
L 83.438175 570.237695 
L 83.668667 570.237695 
L 83.89916 570.237695 
L 84.129652 570.237695 
L 84.360144 570.237695 
L 84.590636 570.237695 
L 84.821128 570.237695 
L 85.051621 570.237695 
L 85.282113 570.237695 
L 85.512605 570.237695 
L 85.743097 570.237695 
L 85.973589 570.237695 
L 86.204082 570.237695 
L 86.434574 570.237695 
L 86.665066 570.237695 
L 86.895558 570.237695 
L 87.12605 570.237695 
L 87.356543 570.237695 
L 87.587035 570.237695 
L 87.817527 570.237695 
L 88.048019 570.237695 
L 88.278511 570.237695 
L 88.509004 570.237695 
L 88.739496 570.237695 
L 88.969988 570.237695 
L 89.20048 570.237695 
L 89.20048 570.007203 
L 89.430972 570.007203 
L 89.661465 570.007203 
L 89.891957 570.007203 
L 90.122449 570.007203 
L 90.352941 570.007203 
L 90.583433 570.007203 
L 90.813926 570.007203 
L 91.044418 570.007203 
L 91.27491 570.007203 
L 91.505402 570.007203 
L 91.735894 570.007203 
L 91.966387 570.007203 
L 92.196879 570.007203 
L 92.427371 570.007203 
L 92.657863 570.007203 
L 92.888355 570.007203 
L 93.118848 570.007203 
L 93.34934 570.007203 
L 93.579832 570.007203 
L 93.810324 570.007203 
L 94.040816 570.007203 
L 94.271309 570.007203 
L 94.501801 570.007203 
L 94.732293 570.007203 
L 94.962785 570.007203 
L 95.193277 570.007203 
L 95.42377 570.007203 
L 95.654262 570.007203 
L 95.884754 570.007203 
L 96.115246 570.007203 
L 96.345738 570.007203 
L 96.57623 570.007203 
L 96.806723 570.007203 
L 97.037215 570.007203 
L 97.267707 570.007203 
L 97.498199 570.007203 
L 97.728691 570.007203 
L 97.959184 570.007203 
L 98.189676 570.007203 
L 98.420168 570.007203 
L 98.65066 570.007203 
L 98.881152 570.007203 
L 98.881152 569.776711 
L 99.111645 569.776711 
L 99.342137 569.776711 
L 99.572629 569.776711 
L 99.803121 569.776711 
L 100.033613 569.776711 
L 100.264106 569.776711 
L 100.494598 569.776711 
L 100.72509 569.776711 
L 100.955582 569.776711 
L 101.186074 569.776711 
L 101.416567 569.776711 
L 101.647059 569.776711 
L 101.877551 569.776711 
L 102.108043 569.776711 
L 102.338535 569.776711 
L 102.569028 569.776711 
L 102.79952 569.776711 
L 103.030012 569.776711 
L 103.260504 569.776711 
L 103.490996 569.776711 
L 103.721489 569.776711 
L 103.951981 569.776711 
L 104.182473 569.776711 
L 104.412965 569.776711 
L 104.643457 569.776711 
L 104.87395 569.776711 
L 105.104442 569.776711 
L 105.334934 569.776711 
L 105.565426 569.776711 
L 105.795918 569.776711 
L 106.026411 569.776711 
L 106.256903 569.776711 
L 106.487395 569.776711 
L 106.717887 569.776711 
L 106.948379 569.776711 
L 107.178872 569.776711 
L 107.409364 569.776711 
L 107.639856 569.776711 
L 107.870348 569.776711 
L 108.10084 569.776711 
L 108.331333 569.776711 
L 108.561825 569.776711 
L 108.792317 569.776711 
L 108.792317 569.546218 
L 109.022809 569.546218 
L 109.253301 569.546218 
L 109.483794 569.546218 
L 109.714286 569.546218 
L 109.944778 569.546218 
L 110.17527 569.546218 
L 110.405762 569.546218 
L 110.636255 569.546218 
L 110.866747 569.546218 
L 110.866747 569.315726 
L 111.097239 569.315726 
L 111.097239 569.085234 
L 111.327731 569.085234 
L 111.327731 568.854742 
L 111.558223 568.854742 
L 111.558223 568.62425 
L 111.558223 568.393758 
L 111.558223 568.163265 
L 111.788715 568.163265 
L 111.788715 567.932773 
L 111.788715 567.702281 
L 111.558223 567.702281 
L 111.327731 567.702281 
L 111.097239 567.702281 
L 111.097239 567.471789 
L 110.866747 567.471789 
L 110.636255 567.471789 
L 110.405762 567.471789 
L 110.405762 567.241297 
L 110.17527 567.241297 
L 109.944778 567.241297 
L 109.714286 567.241297 
L 109.714286 567.010804 
L 109.483794 567.010804 
L 109.253301 567.010804 
L 109.022809 567.010804 
L 109.022809 566.780312 
L 108.792317 566.780312 
L 108.561825 566.780312 
L 108.331333 566.780312 
L 108.331333 566.54982 
L 108.10084 566.54982 
L 107.870348 566.54982 
L 107.639856 566.54982 
L 107.409364 566.54982 
L 107.409364 566.319328 
L 107.178872 566.319328 
L 106.948379 566.319328 
L 106.717887 566.319328 
L 106.717887 566.088836 
L 106.487395 566.088836 
L 106.256903 566.088836 
L 106.026411 566.088836 
L 106.026411 565.858343 
L 105.795918 565.858343 
L 105.565426 565.858343 
L 105.334934 565.858343 
L 105.334934 565.627851 
L 105.104442 565.627851 
L 104.87395 565.627851 
L 104.643457 565.627851 
L 104.643457 565.397359 
L 104.412965 565.397359 
L 104.182473 565.397359 
L 103.951981 565.397359 
L 103.951981 565.166867 
L 103.721489 565.166867 
L 103.490996 565.166867 
L 103.260504 565.166867 
L 103.260504 564.936375 
L 103.030012 564.936375 
L 102.79952 564.936375 
L 102.569028 564.936375 
L 102.569028 564.705882 
L 102.338535 564.705882 
L 102.108043 564.705882 
L 101.877551 564.705882 
L 101.877551 564.47539 
L 101.647059 564.47539 
L 101.416567 564.47539 
L 101.186074 564.47539 
L 101.186074 564.244898 
L 100.955582 564.244898 
L 100.72509 564.244898 
L 100.494598 564.244898 
L 100.494598 564.014406 
L 100.264106 564.014406 
L 100.033613 564.014406 
L 99.803121 564.014406 
L 99.572629 564.014406 
L 99.572629 563.783914 
L 99.342137 563.783914 
L 99.111645 563.783914 
L 98.881152 563.783914 
L 98.881152 563.553421 
L 98.65066 563.553421 
L 98.420168 563.553421 
L 98.189676 563.553421 
L 98.189676 563.322929 
L 97.959184 563.322929 
L 97.728691 563.322929 
L 97.498199 563.322929 
L 97.498199 563.092437 
L 97.267707 563.092437 
L 97.037215 563.092437 
L 96.806723 563.092437 
L 96.806723 562.861945 
L 96.57623 562.861945 
L 96.345738 562.861945 
L 96.115246 562.861945 
L 96.115246 562.631453 
L 95.884754 562.631453 
L 95.654262 562.631453 
L 95.42377 562.631453 
L 95.42377 562.40096 
L 95.193277 562.40096 
L 94.962785 562.40096 
L 94.732293 562.40096 
L 94.732293 562.170468 
L 94.501801 562.170468 
L 94.271309 562.170468 
L 94.040816 562.170468 
L 94.040816 561.939976 
L 93.810324 561.939976 
L 93.579832 561.939976 
L 93.34934 561.939976 
L 93.34934 561.709484 
L 93.118848 561.709484 
L 92.888355 561.709484 
L 92.657863 561.709484 
L 92.427371 561.709484 
L 92.427371 561.478992 
L 92.196879 561.478992 
L 91.966387 561.478992 
L 91.735894 561.478992 
L 91.735894 561.248499 
L 91.505402 561.248499 
L 91.27491 561.248499 
L 91.044418 561.248499 
L 91.044418 561.018007 
L 90.813926 561.018007 
L 90.583433 561.018007 
L 90.352941 561.018007 
L 90.352941 560.787515 
L 90.122449 560.787515 
L 89.891957 560.787515 
L 89.661465 560.787515 
L 89.661465 560.557023 
L 89.430972 560.557023 
L 89.20048 560.557023 
L 88.969988 560.557023 
L 88.969988 560.326531 
L 88.739496 560.326531 
L 88.509004 560.326531 
L 88.278511 560.326531 
L 88.278511 560.096038 
L 88.048019 560.096038 
L 87.817527 560.096038 
L 87.587035 560.096038 
L 87.587035 559.865546 
L 87.356543 559.865546 
L 87.12605 559.865546 
L 86.895558 559.865546 
L 86.895558 559.635054 
L 86.665066 559.635054 
L 86.434574 559.635054 
L 86.204082 559.635054 
L 86.204082 559.404562 
L 85.973589 559.404562 
L 85.743097 559.404562 
L 85.512605 559.404562 
L 85.512605 559.17407 
L 85.282113 559.17407 
L 85.051621 559.17407 
L 84.821128 559.17407 
L 84.590636 559.17407 
L 84.590636 558.943577 
L 84.360144 558.943577 
L 84.129652 558.943577 
L 83.89916 558.943577 
L 83.89916 558.713085 
L 83.668667 558.713085 
L 83.438175 558.713085 
L 83.207683 558.713085 
L 83.207683 558.482593 
L 82.977191 558.482593 
L 82.746699 558.482593 
L 82.516206 558.482593 
L 82.516206 558.252101 
L 82.285714 558.252101 
L 82.055222 558.252101 
L 81.82473 558.252101 
L 81.82473 558.021609 
L 81.594238 558.021609 
L 81.363745 558.021609 
L 81.133253 558.021609 
L 81.133253 557.791116 
L 80.902761 557.791116 
L 80.672269 557.791116 
L 80.441777 557.791116 
L 80.441777 557.560624 
L 80.211285 557.560624 
L 79.980792 557.560624 
L 79.7503 557.560624 
L 79.7503 557.330132 
L 79.519808 557.330132 
L 79.289316 557.330132 
L 79.058824 557.330132 
L 79.058824 557.09964 
L 78.828331 557.09964 
L 78.597839 557.09964 
L 78.367347 557.09964 
L 78.367347 556.869148 
L 78.136855 556.869148 
L 77.906363 556.869148 
L 77.67587 556.869148 
L 77.67587 556.638655 
L 77.445378 556.638655 
L 77.214886 556.638655 
L 76.984394 556.638655 
L 76.753902 556.638655 
L 76.753902 556.408163 
L 76.523409 556.408163 
L 76.292917 556.408163 
L 76.062425 556.408163 
L 76.062425 556.177671 
L 75.831933 556.177671 
L 75.601441 556.177671 
L 75.370948 556.177671 
L 75.370948 555.947179 
L 75.140456 555.947179 
L 74.909964 555.947179 
L 74.679472 555.947179 
L 74.679472 555.716687 
L 74.44898 555.716687 
L 74.218487 555.716687 
L 73.987995 555.716687 
L 73.987995 555.486194 
L 73.757503 555.486194 
L 73.527011 555.486194 
L 73.296519 555.486194 
L 73.296519 555.255702 
L 73.066026 555.255702 
L 72.835534 555.255702 
L 72.605042 555.255702 
L 72.605042 555.02521 
L 72.37455 555.02521 
L 72.144058 555.02521 
L 71.913565 555.02521 
L 71.913565 554.794718 
L 71.683073 554.794718 
L 71.452581 554.794718 
L 71.222089 554.794718 
L 71.222089 554.564226 
L 70.991597 554.564226 
L 70.761104 554.564226 
L 70.530612 554.564226 
L 70.530612 554.333733 
L 70.30012 554.333733 
L 70.069628 554.333733 
L 69.839136 554.333733 
L 69.608643 554.333733 
L 69.608643 554.103241 
L 69.378151 554.103241 
L 69.147659 554.103241 
L 68.917167 554.103241 
L 68.917167 553.872749 
L 68.686675 553.872749 
L 68.456182 553.872749 
L 68.22569 553.872749 
L 68.22569 553.642257 
L 67.995198 553.642257 
L 67.764706 553.642257 
L 67.534214 553.642257 
L 67.534214 553.411765 
L 67.303721 553.411765 
L 67.073229 553.411765 
L 66.842737 553.411765 
L 66.842737 553.181273 
L 66.612245 553.181273 
L 66.381753 553.181273 
L 66.151261 553.181273 
L 66.151261 552.95078 
L 65.920768 552.95078 
L 65.690276 552.95078 
L 65.459784 552.95078 
L 65.459784 552.720288 
L 65.229292 552.720288 
L 64.9988 552.720288 
L 64.768307 552.720288 
L 64.768307 552.489796 
L 64.537815 552.489796 
L 64.307323 552.489796 
L 64.076831 552.489796 
L 64.076831 552.259304 
L 63.846339 552.259304 
L 63.615846 552.259304 
L 63.385354 552.259304 
L 63.385354 552.028812 
L 63.154862 552.028812 
L 62.92437 552.028812 
L 62.693878 552.028812 
L 62.463385 552.028812 
L 62.463385 551.798319 
L 62.232893 551.798319 
L 62.002401 551.798319 
L 61.771909 551.798319 
L 61.771909 551.567827 
L 61.541417 551.567827 
L 61.310924 551.567827 
L 61.080432 551.567827 
L 61.080432 551.337335 
L 60.84994 551.337335 
L 60.619448 551.337335 
L 60.388956 551.337335 
L 60.388956 551.106843 
L 60.158463 551.106843 
L 59.927971 551.106843 
L 59.697479 551.106843 
L 59.697479 550.876351 
L 59.466987 550.876351 
L 59.236495 550.876351 
L 59.006002 550.876351 
L 59.006002 550.645858 
L 58.77551 550.645858 
L 58.545018 550.645858 
L 58.314526 550.645858 
L 58.314526 550.415366 
L 58.084034 550.415366 
L 57.853541 550.415366 
L 57.623049 550.415366 
L 57.623049 550.184874 
L 57.392557 550.184874 
L 57.162065 550.184874 
L 56.931573 550.184874 
L 56.931573 549.954382 
L 56.70108 549.954382 
L 56.470588 549.954382 
L 56.240096 549.954382 
L 56.240096 549.72389 
L 56.009604 549.72389 
L 55.779112 549.72389 
L 55.548619 549.72389 
L 55.318127 549.72389 
L 55.318127 549.493397 
L 55.087635 549.493397 
L 54.857143 549.493397 
L 54.626651 549.493397 
L 54.626651 549.262905 
L 54.396158 549.262905 
L 54.165666 549.262905 
L 53.935174 549.262905 
L 53.935174 549.032413 
L 53.704682 549.032413 
L 53.47419 549.032413 
L 53.243697 549.032413 
L 53.243697 548.801921 
L 53.013205 548.801921 
L 52.782713 548.801921 
L 52.552221 548.801921 
L 52.552221 548.571429 
L 52.321729 548.571429 
L 52.091236 548.571429 
L 51.860744 548.571429 
L 51.860744 548.340936 
L 51.630252 548.340936 
L 51.39976 548.340936 
L 51.169268 548.340936 
L 51.169268 548.110444 
L 50.938776 548.110444 
L 50.708283 548.110444 
L 50.477791 548.110444 
L 50.477791 547.879952 
L 50.247299 547.879952 
L 50.016807 547.879952 
L 49.786315 547.879952 
L 49.786315 547.64946 
L 49.555822 547.64946 
L 49.32533 547.64946 
L 49.094838 547.64946 
L 49.094838 547.418968 
L 48.864346 547.418968 
L 48.633854 547.418968 
L 48.403361 547.418968 
L 48.172869 547.418968 
L 48.172869 547.188475 
L 47.942377 547.188475 
L 47.711885 547.188475 
L 47.481393 547.188475 
L 47.481393 546.957983 
L 47.2509 546.957983 
L 47.020408 546.957983 
L 46.789916 546.957983 
L 46.789916 546.727491 
L 46.559424 546.727491 
L 46.328932 546.727491 
L 46.098439 546.727491 
L 46.098439 546.496999 
L 45.867947 546.496999 
L 45.637455 546.496999 
L 45.406963 546.496999 
L 45.406963 546.266507 
L 45.176471 546.266507 
L 44.945978 546.266507 
L 44.715486 546.266507 
L 44.715486 546.036014 
L 44.484994 546.036014 
L 44.254502 546.036014 
L 44.02401 546.036014 
L 44.02401 545.805522 
L 43.793517 545.805522 
L 43.563025 545.805522 
L 43.332533 545.805522 
L 43.332533 545.57503 
L 43.102041 545.57503 
L 42.871549 545.57503 
L 42.641056 545.57503 
L 42.410564 545.57503 
L 42.410564 545.344538 
L 42.180072 545.344538 
L 41.94958 545.344538 
L 41.719088 545.344538 
L 41.719088 545.114046 
L 41.488595 545.114046 
L 41.258103 545.114046 
L 41.027611 545.114046 
L 41.027611 544.883553 
L 40.797119 544.883553 
L 40.566627 544.883553 
L 40.336134 544.883553 
L 40.336134 544.653061 
L 40.105642 544.653061 
L 39.87515 544.653061 
L 39.644658 544.653061 
L 39.414166 544.653061 
L 39.414166 544.422569 
L 39.183673 544.422569 
L 38.953181 544.422569 
L 38.722689 544.422569 
L 38.722689 544.192077 
L 38.492197 544.192077 
L 38.261705 544.192077 
L 38.031212 544.192077 
L 38.031212 543.961585 
L 37.80072 543.961585 
L 37.570228 543.961585 
L 37.339736 543.961585 
L 37.109244 543.961585 
L 37.109244 543.731092 
L 36.878752 543.731092 
L 36.648259 543.731092 
L 36.417767 543.731092 
L 36.417767 543.5006 
L 36.187275 543.5006 
L 35.956783 543.5006 
L 35.726291 543.5006 
L 35.726291 543.270108 
L 35.495798 543.270108 
L 35.265306 543.270108 
L 35.034814 543.270108 
L 35.034814 543.039616 
L 34.804322 543.039616 
L 34.57383 543.039616 
L 34.343337 543.039616 
L 34.112845 543.039616 
L 34.112845 542.809124 
L 33.882353 542.809124 
L 33.651861 542.809124 
L 33.421369 542.809124 
L 33.421369 542.578631 
L 33.190876 542.578631 
L 32.960384 542.578631 
L 32.729892 542.578631 
L 32.729892 542.348139 
L 32.4994 542.348139 
L 32.268908 542.348139 
L 32.038415 542.348139 
L 32.038415 542.117647 
L 31.807923 542.117647 
L 31.577431 542.117647 
L 31.346939 542.117647 
L 31.116447 542.117647 
L 31.116447 541.887155 
L 30.885954 541.887155 
L 30.655462 541.887155 
L 30.42497 541.887155 
L 30.42497 541.656663 
L 30.194478 541.656663 
L 29.963986 541.656663 
L 29.733493 541.656663 
L 29.733493 541.42617 
L 29.503001 541.42617 
L 29.272509 541.42617 
L 29.042017 541.42617 
L 28.811525 541.42617 
L 28.811525 541.195678 
L 28.581032 541.195678 
L 28.35054 541.195678 
L 28.120048 541.195678 
L 28.120048 540.965186 
L 27.889556 540.965186 
L 27.659064 540.965186 
L 27.428571 540.965186 
L 27.428571 540.734694 
L 27.198079 540.734694 
L 26.967587 540.734694 
L 26.737095 540.734694 
L 26.737095 540.504202 
L 26.506603 540.504202 
L 26.27611 540.504202 
L 26.045618 540.504202 
L 25.815126 540.504202 
L 25.815126 540.273709 
L 25.584634 540.273709 
L 25.354142 540.273709 
L 25.123649 540.273709 
L 25.123649 540.043217 
L 24.893157 540.043217 
L 24.662665 540.043217 
L 24.432173 540.043217 
L 24.432173 539.812725 
L 24.201681 539.812725 
L 23.971188 539.812725 
L 23.740696 539.812725 
L 23.740696 539.582233 
L 23.510204 539.582233 
L 23.279712 539.582233 
L 23.04922 539.582233 
L 22.818727 539.582233 
L 22.818727 539.351741 
L 22.588235 539.351741 
L 22.357743 539.351741 
L 22.127251 539.351741 
L 22.127251 539.121248 
L 21.896759 539.121248 
L 21.666267 539.121248 
L 21.435774 539.121248 
L 21.435774 538.890756 
L 21.205282 538.890756 
L 20.97479 538.890756 
L 20.744298 538.890756 
L 20.513806 538.890756 
L 20.513806 538.660264 
L 20.283313 538.660264 
L 20.052821 538.660264 
L 19.822329 538.660264 
L 19.822329 538.429772 
L 19.591837 538.429772 
L 19.361345 538.429772 
L 19.130852 538.429772 
L 19.130852 538.19928 
L 18.90036 538.19928 
L 18.669868 538.19928 
L 18.439376 538.19928 
L 18.439376 537.968788 
L 18.208884 537.968788 
L 17.978391 537.968788 
L 17.747899 537.968788 
L 17.517407 537.968788 
L 17.517407 537.738295 
L 17.286915 537.738295 
L 17.056423 537.738295 
L 16.82593 537.738295 
L 16.82593 537.507803 
L 16.595438 537.507803 
L 16.364946 537.507803 
L 16.134454 537.507803 
L 16.134454 537.277311 
L 15.903962 537.277311 
L 15.673469 537.277311 
L 15.442977 537.277311 
L 15.442977 537.507803 
L 15.442977 537.738295 
L 15.212485 537.738295 
L 15.212485 537.968788 
L 15.212485 538.19928 
L 14.981993 538.19928 
L 14.981993 538.429772 
L 14.981993 538.660264 
L 14.981993 538.890756 
L 14.751501 538.890756 
L 14.751501 539.121248 
L 14.751501 539.351741 
L 14.751501 539.582233 
L 14.521008 539.582233 
L 14.521008 539.812725 
L 14.521008 540.043217 
L 14.290516 540.043217 
L 14.290516 540.273709 
L 14.290516 540.504202 
L 14.290516 540.734694 
L 14.060024 540.734694 
L 14.060024 540.965186 
L 14.060024 541.195678 
L 13.829532 541.195678 
L 13.829532 541.42617 
L 13.829532 541.656663 
L 13.829532 541.887155 
L 13.59904 541.887155 
L 13.59904 542.117647 
L 13.59904 542.348139 
L 13.59904 542.578631 
L 13.368547 542.578631 
L 13.368547 542.809124 
L 13.368547 543.039616 
L 13.138055 543.039616 
L 13.138055 543.270108 
L 13.138055 543.5006 
L 13.138055 543.731092 
L 12.907563 543.731092 
L 12.907563 543.961585 
L 12.907563 544.192077 
L 12.907563 544.422569 
L 12.677071 544.422569 
L 12.677071 544.653061 
L 12.677071 544.883553 
L 12.446579 544.883553 
L 12.446579 545.114046 
L 12.446579 545.344538 
L 12.446579 545.57503 
L 12.216086 545.57503 
L 12.216086 545.805522 
L 12.216086 546.036014 
L 11.985594 546.036014 
L 11.985594 546.266507 
L 11.985594 546.496999 
L 11.985594 546.727491 
L 11.755102 546.727491 
L 11.755102 546.957983 
L 11.755102 547.188475 
L 11.755102 547.418968 
L 11.52461 547.418968 
L 11.52461 547.64946 
L 11.52461 547.879952 
L 11.294118 547.879952 
L 11.294118 548.110444 
L 11.294118 548.340936 
L 11.294118 548.571429 
L 11.063625 548.571429 
L 11.063625 548.801921 
L 11.063625 549.032413 
L 10.833133 549.032413 
L 10.833133 549.262905 
L 10.833133 549.493397 
L 10.833133 549.72389 
L 10.602641 549.72389 
L 10.602641 549.954382 
L 10.602641 550.184874 
L 10.602641 550.415366 
L 10.372149 550.415366 
L 10.372149 550.645858 
L 10.372149 550.876351 
L 10.141657 550.876351 
L 10.141657 551.106843 
L 10.141657 551.337335 
L 10.141657 551.567827 
L 9.911164 551.567827 
L 9.911164 551.798319 
L 9.911164 552.028812 
L 9.911164 552.259304 
L 9.680672 552.259304 
L 9.680672 552.489796 
L 9.680672 552.720288 
L 9.45018 552.720288 
L 9.45018 552.95078 
L 9.45018 553.181273 
L 9.45018 553.411765 
L 9.219688 553.411765 
L 9.219688 553.642257 
L 9.219688 553.872749 
L 8.989196 553.872749 
L 8.989196 554.103241 
L 8.989196 554.333733 
L 8.989196 554.564226 
L 8.758703 554.564226 
L 8.758703 554.594633 
L 8.989196 554.687269 
L 9.219688 554.77983 
L 9.256789 554.794718 
L 9.45018 554.872446 
L 9.680672 554.96507 
L 9.830488 555.02521 
L 9.911164 555.057635 
L 10.141657 555.150297 
L 10.372149 555.242873 
L 10.404115 555.255702 
L 10.602641 555.33552 
L 10.833133 555.428165 
L 10.977667 555.486194 
L 11.063625 555.520754 
L 11.294118 555.613441 
L 11.52461 555.706033 
L 11.55115 555.716687 
L 11.755102 555.798714 
L 11.985594 555.891379 
L 12.124548 555.947179 
L 12.216086 555.983995 
L 12.446579 556.076708 
L 12.677071 556.169315 
L 12.697883 556.177671 
L 12.907563 556.262032 
L 13.138055 556.354717 
L 13.271123 556.408163 
L 13.368547 556.447361 
L 13.59904 556.540101 
L 13.829532 556.632723 
L 13.844305 556.638655 
L 14.060024 556.725478 
L 14.290516 556.818183 
L 14.417382 556.869148 
L 14.521008 556.910857 
L 14.751501 557.003623 
L 14.981993 557.096259 
L 14.99041 557.09964 
L 15.212485 557.189054 
L 15.442977 557.281778 
L 15.563319 557.330132 
L 15.673469 557.374485 
L 15.903962 557.467278 
L 16.134454 557.559928 
L 16.136186 557.560624 
L 16.364946 557.652767 
L 16.595438 557.745512 
L 16.708915 557.791116 
L 16.82593 557.838254 
L 17.056423 557.931076 
L 17.281604 558.021609 
L 17.286915 558.023748 
L 17.517407 558.116626 
L 17.747899 558.209393 
L 17.854147 558.252101 
L 17.978391 558.302172 
L 18.208884 558.395023 
L 18.426649 558.482593 
L 18.439376 558.487723 
L 18.669868 558.580639 
L 18.90036 558.673427 
L 18.998999 558.713085 
L 19.130852 558.766249 
L 19.361345 558.85913 
L 19.571297 558.943577 
L 19.591837 558.95186 
L 19.822329 559.044818 
L 20.052821 559.137628 
L 20.143438 559.17407 
L 20.283313 559.230496 
L 20.513806 559.323409 
L 20.715517 559.404562 
L 20.744298 559.416174 
L 20.97479 559.509173 
L 21.205282 559.602006 
L 21.287439 559.635054 
L 21.435774 559.694926 
L 21.666267 559.787871 
L 21.859285 559.865546 
L 21.896759 559.880675 
L 22.127251 559.973717 
L 22.357743 560.066575 
L 22.43097 560.096038 
L 22.588235 560.159552 
L 22.818727 560.252531 
L 23.002556 560.326531 
L 23.04922 560.345381 
L 23.279712 560.438469 
L 23.510204 560.531352 
L 23.573984 560.557023 
L 23.740696 560.624392 
L 23.971188 560.717407 
L 24.145293 560.787515 
L 24.201681 560.810308 
L 24.432173 560.903442 
L 24.662665 560.996351 
L 24.716453 561.018007 
L 24.893157 561.08946 
L 25.123649 561.182512 
L 25.287466 561.248499 
L 25.354142 561.275469 
L 25.584634 561.368651 
L 25.815126 561.461588 
L 25.858336 561.478992 
L 26.045618 561.554774 
L 26.27611 561.647863 
L 26.429026 561.709484 
L 26.506603 561.740885 
L 26.737095 561.834116 
L 26.967587 561.927082 
L 26.999587 561.939976 
L 27.198079 562.020351 
L 27.428571 562.113479 
L 27.569935 562.170468 
L 27.659064 562.206572 
L 27.889556 562.299853 
L 28.120048 562.392849 
L 28.14017 562.40096 
L 28.35054 562.486208 
L 28.581032 562.579377 
L 28.710149 562.631453 
L 28.811525 562.672549 
L 29.042017 562.765881 
L 29.272509 562.858909 
L 29.280036 562.861945 
L 29.503001 562.952365 
L 29.733493 563.045575 
L 29.849624 563.092437 
L 29.963986 563.138834 
L 30.194478 563.232216 
L 30.41914 563.322929 
L 30.42497 563.325295 
L 30.655462 563.418834 
L 30.885954 563.512085 
L 30.988339 563.553421 
L 31.116447 563.605436 
L 31.346939 563.698868 
L 31.557446 563.783914 
L 31.577431 563.792031 
L 31.807923 563.885629 
L 32.038415 563.978923 
L 32.12625 564.014406 
L 32.268908 564.072375 
L 32.4994 564.165858 
L 32.694922 564.244898 
L 32.729892 564.259115 
L 32.960384 564.352771 
L 33.190876 564.446107 
L 33.26332 564.47539 
L 33.421369 564.539665 
L 33.651861 564.633197 
L 33.831552 564.705882 
L 33.882353 564.726551 
L 34.112845 564.820261 
L 34.343337 564.91364 
L 34.399545 564.936375 
L 34.57383 565.007309 
L 34.804322 565.100892 
L 34.967303 565.166867 
L 35.034814 565.194358 
L 35.265306 565.288138 
L 35.495798 565.381593 
L 35.534727 565.397359 
L 35.726291 565.47544 
L 35.956783 565.569182 
L 36.101324 565.627851 
L 36.187275 565.662952 
L 36.417767 565.757097 
L 36.648259 565.851082 
L 36.666043 565.858343 
L 36.878752 565.945789 
L 37.109244 566.040631 
L 37.226132 566.088836 
L 37.339736 566.13599 
L 37.570228 566.232087 
L 37.778664 566.319328 
L 37.80072 566.328611 
L 38.031212 566.426313 
L 38.261705 566.524589 
L 38.32049 566.54982 
L 38.492197 566.623851 
L 38.722689 566.723916 
L 38.851827 566.780312 
L 38.953181 566.824611 
L 39.183673 566.926004 
L 39.375535 567.010804 
L 39.414166 567.027796 
L 39.644658 567.129718 
L 39.87515 567.232056 
L 39.895907 567.241297 
L 40.105642 567.333661 
L 40.336134 567.435618 
L 40.417695 567.471789 
L 40.566627 567.536536 
L 40.797119 567.637275 
L 40.945227 567.702281 
L 41.027611 567.737344 
L 41.258103 567.836049 
L 41.482183 567.932773 
L 41.488595 567.935424 
L 41.719088 568.03128 
L 41.94958 568.128274 
L 42.032183 568.163265 
L 42.180072 568.222625 
L 42.410564 568.31631 
L 42.59866 568.393758 
L 42.641056 568.410068 
L 42.871549 568.499672 
L 43.102041 568.59096 
L 43.185202 568.62425 
L 43.332533 568.678752 
L 43.563025 568.765545 
L 43.793517 568.854201 
L 43.794911 568.854742 
L 44.02401 568.935971 
L 44.254502 569.01975 
L 44.431046 569.085234 
L 44.484994 569.103324 
L 44.715486 569.18177 
L 44.945978 569.262354 
L 45.095596 569.315726 
L 45.176471 569.341615 
L 45.406963 569.4167 
L 45.637455 569.493948 
L 45.790085 569.546218 
L 45.867947 569.570014 
L 46.098439 569.641704 
L 46.328932 569.715539 
L 46.515144 569.776711 
L 46.559424 569.789646 
L 46.789916 569.857983 
L 47.020408 569.928403 
L 47.2509 570.000932 
L 47.270595 570.007203 
L 47.481393 570.06684 
L 47.711885 570.133928 
L 47.942377 570.203044 
L 48.0557 570.237695 
L 48.172869 570.269543 
L 48.403361 570.333461 
L 48.633854 570.399292 
L 48.864346 570.467078 
L 48.86808 570.468187 
L 49.094838 570.528201 
L 49.32533 570.590959 
L 49.555822 570.655546 
L 49.706409 570.698679 
z
" clip-path="url(#p8bcc339c0a)" style="fill: #d5e5f4; fill-opacity: 0.8"/>
    <path d="M 38.953181 576 
L 39.183673 576 
L 39.183673 575.769508 
L 39.183673 575.539016 
L 39.183673 575.308523 
L 39.183673 575.078031 
L 39.183673 574.847539 
L 39.183673 574.617047 
L 39.183673 574.386555 
L 39.183673 574.156062 
L 39.183673 573.92557 
L 39.183673 573.695078 
L 39.183673 573.464586 
L 39.183673 573.234094 
L 39.183673 573.003601 
L 39.183673 572.773109 
L 39.183673 572.542617 
L 39.183673 572.312125 
L 39.183673 572.081633 
L 39.183673 571.85114 
L 39.183673 571.620648 
L 39.183673 571.390156 
L 39.183673 571.159664 
L 39.414166 571.159664 
L 39.644658 571.159664 
L 39.87515 571.159664 
L 40.105642 571.159664 
L 40.336134 571.159664 
L 40.566627 571.159664 
L 40.797119 571.159664 
L 41.027611 571.159664 
L 41.258103 571.159664 
L 41.488595 571.159664 
L 41.719088 571.159664 
L 41.94958 571.159664 
L 42.180072 571.159664 
L 42.410564 571.159664 
L 42.641056 571.159664 
L 42.871549 571.159664 
L 43.102041 571.159664 
L 43.332533 571.159664 
L 43.563025 571.159664 
L 43.793517 571.159664 
L 44.02401 571.159664 
L 44.254502 571.159664 
L 44.484994 571.159664 
L 44.715486 571.159664 
L 44.945978 571.159664 
L 45.176471 571.159664 
L 45.406963 571.159664 
L 45.637455 571.159664 
L 45.867947 571.159664 
L 46.098439 571.159664 
L 46.328932 571.159664 
L 46.559424 571.159664 
L 46.789916 571.159664 
L 47.020408 571.159664 
L 47.2509 571.159664 
L 47.481393 571.159664 
L 47.711885 571.159664 
L 47.942377 571.159664 
L 48.172869 571.159664 
L 48.403361 571.159664 
L 48.633854 571.159664 
L 48.864346 571.159664 
L 49.094838 571.159664 
L 49.32533 571.159664 
L 49.32533 570.929172 
L 49.555822 570.929172 
L 49.786315 570.929172 
L 50.016807 570.929172 
L 50.247299 570.929172 
L 50.477791 570.929172 
L 50.566617 570.929172 
L 50.477791 570.904318 
L 50.247299 570.84087 
L 50.016807 570.779171 
L 49.786315 570.719164 
L 49.706409 570.698679 
L 49.555822 570.655546 
L 49.32533 570.590959 
L 49.094838 570.528201 
L 48.86808 570.468187 
L 48.864346 570.467078 
L 48.633854 570.399292 
L 48.403361 570.333461 
L 48.172869 570.269543 
L 48.0557 570.237695 
L 47.942377 570.203044 
L 47.711885 570.133928 
L 47.481393 570.06684 
L 47.270595 570.007203 
L 47.2509 570.000932 
L 47.020408 569.928403 
L 46.789916 569.857983 
L 46.559424 569.789646 
L 46.515144 569.776711 
L 46.328932 569.715539 
L 46.098439 569.641704 
L 45.867947 569.570014 
L 45.790085 569.546218 
L 45.637455 569.493948 
L 45.406963 569.4167 
L 45.176471 569.341615 
L 45.095596 569.315726 
L 44.945978 569.262354 
L 44.715486 569.18177 
L 44.484994 569.103324 
L 44.431046 569.085234 
L 44.254502 569.01975 
L 44.02401 568.935971 
L 43.794911 568.854742 
L 43.793517 568.854201 
L 43.563025 568.765545 
L 43.332533 568.678752 
L 43.185202 568.62425 
L 43.102041 568.59096 
L 42.871549 568.499672 
L 42.641056 568.410068 
L 42.59866 568.393758 
L 42.410564 568.31631 
L 42.180072 568.222625 
L 42.032183 568.163265 
L 41.94958 568.128274 
L 41.719088 568.03128 
L 41.488595 567.935424 
L 41.482183 567.932773 
L 41.258103 567.836049 
L 41.027611 567.737344 
L 40.945227 567.702281 
L 40.797119 567.637275 
L 40.566627 567.536536 
L 40.417695 567.471789 
L 40.336134 567.435618 
L 40.105642 567.333661 
L 39.895907 567.241297 
L 39.87515 567.232056 
L 39.644658 567.129718 
L 39.414166 567.027796 
L 39.375535 567.010804 
L 39.183673 566.926004 
L 38.953181 566.824611 
L 38.851827 566.780312 
L 38.722689 566.723916 
L 38.492197 566.623851 
L 38.32049 566.54982 
L 38.261705 566.524589 
L 38.031212 566.426313 
L 37.80072 566.328611 
L 37.778664 566.319328 
L 37.570228 566.232087 
L 37.339736 566.13599 
L 37.226132 566.088836 
L 37.109244 566.040631 
L 36.878752 565.945789 
L 36.666043 565.858343 
L 36.648259 565.851082 
L 36.417767 565.757097 
L 36.187275 565.662952 
L 36.101324 565.627851 
L 35.956783 565.569182 
L 35.726291 565.47544 
L 35.534727 565.397359 
L 35.495798 565.381593 
L 35.265306 565.288138 
L 35.034814 565.194358 
L 34.967303 565.166867 
L 34.804322 565.100892 
L 34.57383 565.007309 
L 34.399545 564.936375 
L 34.343337 564.91364 
L 34.112845 564.820261 
L 33.882353 564.726551 
L 33.831552 564.705882 
L 33.651861 564.633197 
L 33.421369 564.539665 
L 33.26332 564.47539 
L 33.190876 564.446107 
L 32.960384 564.352771 
L 32.729892 564.259115 
L 32.694922 564.244898 
L 32.4994 564.165858 
L 32.268908 564.072375 
L 32.12625 564.014406 
L 32.038415 563.978923 
L 31.807923 563.885629 
L 31.577431 563.792031 
L 31.557446 563.783914 
L 31.346939 563.698868 
L 31.116447 563.605436 
L 30.988339 563.553421 
L 30.885954 563.512085 
L 30.655462 563.418834 
L 30.42497 563.325295 
L 30.41914 563.322929 
L 30.194478 563.232216 
L 29.963986 563.138834 
L 29.849624 563.092437 
L 29.733493 563.045575 
L 29.503001 562.952365 
L 29.280036 562.861945 
L 29.272509 562.858909 
L 29.042017 562.765881 
L 28.811525 562.672549 
L 28.710149 562.631453 
L 28.581032 562.579377 
L 28.35054 562.486208 
L 28.14017 562.40096 
L 28.120048 562.392849 
L 27.889556 562.299853 
L 27.659064 562.206572 
L 27.569935 562.170468 
L 27.428571 562.113479 
L 27.198079 562.020351 
L 26.999587 561.939976 
L 26.967587 561.927082 
L 26.737095 561.834116 
L 26.506603 561.740885 
L 26.429026 561.709484 
L 26.27611 561.647863 
L 26.045618 561.554774 
L 25.858336 561.478992 
L 25.815126 561.461588 
L 25.584634 561.368651 
L 25.354142 561.275469 
L 25.287466 561.248499 
L 25.123649 561.182512 
L 24.893157 561.08946 
L 24.716453 561.018007 
L 24.662665 560.996351 
L 24.432173 560.903442 
L 24.201681 560.810308 
L 24.145293 560.787515 
L 23.971188 560.717407 
L 23.740696 560.624392 
L 23.573984 560.557023 
L 23.510204 560.531352 
L 23.279712 560.438469 
L 23.04922 560.345381 
L 23.002556 560.326531 
L 22.818727 560.252531 
L 22.588235 560.159552 
L 22.43097 560.096038 
L 22.357743 560.066575 
L 22.127251 559.973717 
L 21.896759 559.880675 
L 21.859285 559.865546 
L 21.666267 559.787871 
L 21.435774 559.694926 
L 21.287439 559.635054 
L 21.205282 559.602006 
L 20.97479 559.509173 
L 20.744298 559.416174 
L 20.715517 559.404562 
L 20.513806 559.323409 
L 20.283313 559.230496 
L 20.143438 559.17407 
L 20.052821 559.137628 
L 19.822329 559.044818 
L 19.591837 558.95186 
L 19.571297 558.943577 
L 19.361345 558.85913 
L 19.130852 558.766249 
L 18.998999 558.713085 
L 18.90036 558.673427 
L 18.669868 558.580639 
L 18.439376 558.487723 
L 18.426649 558.482593 
L 18.208884 558.395023 
L 17.978391 558.302172 
L 17.854147 558.252101 
L 17.747899 558.209393 
L 17.517407 558.116626 
L 17.286915 558.023748 
L 17.281604 558.021609 
L 17.056423 557.931076 
L 16.82593 557.838254 
L 16.708915 557.791116 
L 16.595438 557.745512 
L 16.364946 557.652767 
L 16.136186 557.560624 
L 16.134454 557.559928 
L 15.903962 557.467278 
L 15.673469 557.374485 
L 15.563319 557.330132 
L 15.442977 557.281778 
L 15.212485 557.189054 
L 14.99041 557.09964 
L 14.981993 557.096259 
L 14.751501 557.003623 
L 14.521008 556.910857 
L 14.417382 556.869148 
L 14.290516 556.818183 
L 14.060024 556.725478 
L 13.844305 556.638655 
L 13.829532 556.632723 
L 13.59904 556.540101 
L 13.368547 556.447361 
L 13.271123 556.408163 
L 13.138055 556.354717 
L 12.907563 556.262032 
L 12.697883 556.177671 
L 12.677071 556.169315 
L 12.446579 556.076708 
L 12.216086 555.983995 
L 12.124548 555.947179 
L 11.985594 555.891379 
L 11.755102 555.798714 
L 11.55115 555.716687 
L 11.52461 555.706033 
L 11.294118 555.613441 
L 11.063625 555.520754 
L 10.977667 555.486194 
L 10.833133 555.428165 
L 10.602641 555.33552 
L 10.404115 555.255702 
L 10.372149 555.242873 
L 10.141657 555.150297 
L 9.911164 555.057635 
L 9.830488 555.02521 
L 9.680672 554.96507 
L 9.45018 554.872446 
L 9.256789 554.794718 
L 9.219688 554.77983 
L 8.989196 554.687269 
L 8.758703 554.594633 
L 8.758703 554.794718 
L 8.758703 555.02521 
L 8.758703 555.255702 
L 8.528211 555.255702 
L 8.528211 555.486194 
L 8.528211 555.716687 
L 8.297719 555.716687 
L 8.297719 555.947179 
L 8.297719 556.177671 
L 8.297719 556.408163 
L 8.067227 556.408163 
L 8.067227 556.638655 
L 8.067227 556.869148 
L 7.836735 556.869148 
L 7.836735 557.09964 
L 7.836735 557.330132 
L 7.836735 557.560624 
L 7.606242 557.560624 
L 7.606242 557.791116 
L 7.606242 558.021609 
L 7.606242 558.252101 
L 7.606242 558.482593 
L 7.836735 558.482593 
L 8.067227 558.482593 
L 8.067227 558.713085 
L 8.297719 558.713085 
L 8.528211 558.713085 
L 8.528211 558.943577 
L 8.758703 558.943577 
L 8.989196 558.943577 
L 9.219688 558.943577 
L 9.219688 559.17407 
L 9.45018 559.17407 
L 9.680672 559.17407 
L 9.680672 559.404562 
L 9.911164 559.404562 
L 10.141657 559.404562 
L 10.372149 559.404562 
L 10.372149 559.635054 
L 10.602641 559.635054 
L 10.833133 559.635054 
L 10.833133 559.865546 
L 11.063625 559.865546 
L 11.294118 559.865546 
L 11.52461 559.865546 
L 11.52461 560.096038 
L 11.755102 560.096038 
L 11.985594 560.096038 
L 11.985594 560.326531 
L 12.216086 560.326531 
L 12.446579 560.326531 
L 12.446579 560.557023 
L 12.677071 560.557023 
L 12.907563 560.557023 
L 13.138055 560.557023 
L 13.138055 560.787515 
L 13.368547 560.787515 
L 13.59904 560.787515 
L 13.59904 561.018007 
L 13.829532 561.018007 
L 14.060024 561.018007 
L 14.290516 561.018007 
L 14.290516 561.248499 
L 14.521008 561.248499 
L 14.751501 561.248499 
L 14.751501 561.478992 
L 14.981993 561.478992 
L 15.212485 561.478992 
L 15.212485 561.709484 
L 15.442977 561.709484 
L 15.673469 561.709484 
L 15.903962 561.709484 
L 15.903962 561.939976 
L 16.134454 561.939976 
L 16.364946 561.939976 
L 16.364946 562.170468 
L 16.595438 562.170468 
L 16.82593 562.170468 
L 17.056423 562.170468 
L 17.056423 562.40096 
L 17.286915 562.40096 
L 17.517407 562.40096 
L 17.517407 562.631453 
L 17.747899 562.631453 
L 17.978391 562.631453 
L 18.208884 562.631453 
L 18.208884 562.861945 
L 18.439376 562.861945 
L 18.669868 562.861945 
L 18.669868 563.092437 
L 18.90036 563.092437 
L 19.130852 563.092437 
L 19.130852 563.322929 
L 19.361345 563.322929 
L 19.591837 563.322929 
L 19.822329 563.322929 
L 19.822329 563.553421 
L 20.052821 563.553421 
L 20.283313 563.553421 
L 20.283313 563.783914 
L 20.513806 563.783914 
L 20.744298 563.783914 
L 20.97479 563.783914 
L 20.97479 564.014406 
L 21.205282 564.014406 
L 21.435774 564.014406 
L 21.435774 564.244898 
L 21.666267 564.244898 
L 21.896759 564.244898 
L 22.127251 564.244898 
L 22.127251 564.47539 
L 22.357743 564.47539 
L 22.588235 564.47539 
L 22.588235 564.705882 
L 22.818727 564.705882 
L 23.04922 564.705882 
L 23.04922 564.936375 
L 23.279712 564.936375 
L 23.510204 564.936375 
L 23.740696 564.936375 
L 23.740696 565.166867 
L 23.971188 565.166867 
L 24.201681 565.166867 
L 24.201681 565.397359 
L 24.432173 565.397359 
L 24.662665 565.397359 
L 24.893157 565.397359 
L 24.893157 565.627851 
L 25.123649 565.627851 
L 25.354142 565.627851 
L 25.354142 565.858343 
L 25.584634 565.858343 
L 25.815126 565.858343 
L 26.045618 565.858343 
L 26.045618 566.088836 
L 26.27611 566.088836 
L 26.506603 566.088836 
L 26.506603 566.319328 
L 26.737095 566.319328 
L 26.967587 566.319328 
L 26.967587 566.54982 
L 27.198079 566.54982 
L 27.428571 566.54982 
L 27.659064 566.54982 
L 27.659064 566.780312 
L 27.889556 566.780312 
L 28.120048 566.780312 
L 28.120048 567.010804 
L 28.35054 567.010804 
L 28.581032 567.010804 
L 28.811525 567.010804 
L 28.811525 567.241297 
L 29.042017 567.241297 
L 29.272509 567.241297 
L 29.272509 567.471789 
L 29.503001 567.471789 
L 29.733493 567.471789 
L 29.963986 567.471789 
L 29.963986 567.702281 
L 30.194478 567.702281 
L 30.42497 567.702281 
L 30.42497 567.932773 
L 30.655462 567.932773 
L 30.885954 567.932773 
L 30.885954 568.163265 
L 31.116447 568.163265 
L 31.346939 568.163265 
L 31.577431 568.163265 
L 31.577431 568.393758 
L 31.807923 568.393758 
L 32.038415 568.393758 
L 32.038415 568.62425 
L 32.268908 568.62425 
L 32.4994 568.62425 
L 32.729892 568.62425 
L 32.729892 568.854742 
L 32.960384 568.854742 
L 33.190876 568.854742 
L 33.190876 569.085234 
L 33.421369 569.085234 
L 33.651861 569.085234 
L 33.882353 569.085234 
L 33.882353 569.315726 
L 34.112845 569.315726 
L 34.343337 569.315726 
L 34.343337 569.546218 
L 34.57383 569.546218 
L 34.804322 569.546218 
L 34.804322 569.776711 
L 35.034814 569.776711 
L 35.265306 569.776711 
L 35.495798 569.776711 
L 35.495798 570.007203 
L 35.726291 570.007203 
L 35.956783 570.007203 
L 35.956783 570.237695 
L 36.187275 570.237695 
L 36.417767 570.237695 
L 36.648259 570.237695 
L 36.648259 570.468187 
L 36.878752 570.468187 
L 37.109244 570.468187 
L 37.109244 570.698679 
L 37.339736 570.698679 
L 37.570228 570.698679 
L 37.80072 570.698679 
L 37.80072 570.929172 
L 38.031212 570.929172 
L 38.261705 570.929172 
L 38.261705 571.159664 
L 38.492197 571.159664 
L 38.722689 571.159664 
L 38.722689 571.390156 
L 38.722689 571.620648 
L 38.722689 571.85114 
L 38.722689 572.081633 
L 38.722689 572.312125 
L 38.722689 572.542617 
L 38.722689 572.773109 
L 38.722689 573.003601 
L 38.722689 573.234094 
L 38.722689 573.464586 
L 38.722689 573.695078 
L 38.722689 573.92557 
L 38.722689 574.156062 
L 38.722689 574.386555 
L 38.722689 574.617047 
L 38.722689 574.847539 
L 38.722689 575.078031 
L 38.722689 575.308523 
L 38.722689 575.539016 
L 38.722689 575.769508 
L 38.722689 576 
z
" clip-path="url(#p8bcc339c0a)" style="fill: #d0e1f2; fill-opacity: 0.8"/>
    <path clip-path="url(#p8bcc339c0a)" style="fill: #cadef0; fill-opacity: 0.8"/>
    <path clip-path="url(#p8bcc339c0a)" style="fill: #c4daee; fill-opacity: 0.8"/>
    <path clip-path="url(#p8bcc339c0a)" style="fill: #bcd7eb; fill-opacity: 0.8"/>
    <path clip-path="url(#p8bcc339c0a)" style="fill: #b3d3e8; fill-opacity: 0.8"/>
    <path clip-path="url(#p8bcc339c0a)" style="fill: #aacfe5; fill-opacity: 0.8"/>
    <path clip-path="url(#p8bcc339c0a)" style="fill: #a1cbe2; fill-opacity: 0.8"/>
    <path clip-path="url(#p8bcc339c0a)" style="fill: #97c6df; fill-opacity: 0.8"/>
    <path clip-path="url(#p8bcc339c0a)" style="fill: #8cc0dd; fill-opacity: 0.8"/>
    <path clip-path="url(#p8bcc339c0a)" style="fill: #81badb; fill-opacity: 0.8"/>
    <path clip-path="url(#p8bcc339c0a)" style="fill: #75b4d8; fill-opacity: 0.8"/>
    <path clip-path="url(#p8bcc339c0a)" style="fill: #6aaed6; fill-opacity: 0.8"/>
    <path clip-path="url(#p8bcc339c0a)" style="fill: #63a8d3; fill-opacity: 0.8"/>
    <path clip-path="url(#p8bcc339c0a)" style="fill: #5aa2cf; fill-opacity: 0.8"/>
    <path clip-path="url(#p8bcc339c0a)" style="fill: #519ccc; fill-opacity: 0.8"/>
    <path clip-path="url(#p8bcc339c0a)" style="fill: #4896c8; fill-opacity: 0.8"/>
    <path clip-path="url(#p8bcc339c0a)" style="fill: #3f8fc5; fill-opacity: 0.8"/>
    <path clip-path="url(#p8bcc339c0a)" style="fill: #3888c1; fill-opacity: 0.8"/>
    <path clip-path="url(#p8bcc339c0a)" style="fill: #3181bd; fill-opacity: 0.8"/>
    <path clip-path="url(#p8bcc339c0a)" style="fill: #2a7ab9; fill-opacity: 0.8"/>
    <path clip-path="url(#p8bcc339c0a)" style="fill: #2272b6; fill-opacity: 0.8"/>
    <path clip-path="url(#p8bcc339c0a)" style="fill: #1c6bb0; fill-opacity: 0.8"/>
    <path clip-path="url(#p8bcc339c0a)" style="fill: #1764ab; fill-opacity: 0.8"/>
    <path clip-path="url(#p8bcc339c0a)" style="fill: #125da6; fill-opacity: 0.8"/>
    <path clip-path="url(#p8bcc339c0a)" style="fill: #0d57a1; fill-opacity: 0.8"/>
    <path clip-path="url(#p8bcc339c0a)" style="fill: #08509b; fill-opacity: 0.8"/>
    <path clip-path="url(#p8bcc339c0a)" style="fill: #084990; fill-opacity: 0.8"/>
    <path clip-path="url(#p8bcc339c0a)" style="fill: #084285; fill-opacity: 0.8"/>
    <path clip-path="url(#p8bcc339c0a)" style="fill: #083a7a; fill-opacity: 0.8"/>
    <path clip-path="url(#p8bcc339c0a)" style="fill: #083370; fill-opacity: 0.8"/>
   </g>
   <g id="QuadContourSet_2">
    <path clip-path="url(#p8bcc339c0a)" style="fill: none; stroke: #000000; stroke-opacity: 0.9; stroke-width: 0.9"/>
    <path clip-path="url(#p8bcc339c0a)" style="fill: none; stroke: #000000; stroke-opacity: 0.9; stroke-width: 0.9"/>
    <path clip-path="url(#p8bcc339c0a)" style="fill: none; stroke: #000000; stroke-opacity: 0.9; stroke-width: 0.9"/>
    <path clip-path="url(#p8bcc339c0a)" style="fill: none; stroke: #000000; stroke-opacity: 0.9; stroke-width: 0.9"/>
    <path clip-path="url(#p8bcc339c0a)" style="fill: none; stroke: #000000; stroke-opacity: 0.9; stroke-width: 0.9"/>
    <path clip-path="url(#p8bcc339c0a)" style="fill: none; stroke: #000000; stroke-opacity: 0.9; stroke-width: 0.9"/>
    <path clip-path="url(#p8bcc339c0a)" style="fill: none; stroke: #000000; stroke-opacity: 0.9; stroke-width: 0.9"/>
    <path d="M 50.566617 570.929172 
L 44.715486 569.18177 
L 41.94958 568.128274 
L 26.045618 561.554774 
L 18.753764 558.614413 
L 18.753764 558.614413 
" clip-path="url(#p8bcc339c0a)" style="fill: none; stroke: #000000; stroke-opacity: 0.9; stroke-width: 0.9"/>
    <path clip-path="url(#p8bcc339c0a)" style="fill: none; stroke: #000000; stroke-opacity: 0.9; stroke-width: 0.9"/>
    <path clip-path="url(#p8bcc339c0a)" style="fill: none; stroke: #000000; stroke-opacity: 0.9; stroke-width: 0.9"/>
    <path clip-path="url(#p8bcc339c0a)" style="fill: none; stroke: #000000; stroke-opacity: 0.9; stroke-width: 0.9"/>
    <path clip-path="url(#p8bcc339c0a)" style="fill: none; stroke: #000000; stroke-opacity: 0.9; stroke-width: 0.9"/>
    <path clip-path="url(#p8bcc339c0a)" style="fill: none; stroke: #000000; stroke-opacity: 0.9; stroke-width: 0.9"/>
    <path clip-path="url(#p8bcc339c0a)" style="fill: none; stroke: #000000; stroke-opacity: 0.9; stroke-width: 0.9"/>
    <path clip-path="url(#p8bcc339c0a)" style="fill: none; stroke: #000000; stroke-opacity: 0.9; stroke-width: 0.9"/>
    <path clip-path="url(#p8bcc339c0a)" style="fill: none; stroke: #000000; stroke-opacity: 0.9; stroke-width: 0.9"/>
    <path clip-path="url(#p8bcc339c0a)" style="fill: none; stroke: #000000; stroke-opacity: 0.9; stroke-width: 0.9"/>
    <path clip-path="url(#p8bcc339c0a)" style="fill: none; stroke: #000000; stroke-opacity: 0.9; stroke-width: 0.9"/>
    <path clip-path="url(#p8bcc339c0a)" style="fill: none; stroke: #000000; stroke-opacity: 0.9; stroke-width: 0.9"/>
    <path clip-path="url(#p8bcc339c0a)" style="fill: none; stroke: #000000; stroke-opacity: 0.9; stroke-width: 0.9"/>
    <path clip-path="url(#p8bcc339c0a)" style="fill: none; stroke: #000000; stroke-opacity: 0.9; stroke-width: 0.9"/>
    <path clip-path="url(#p8bcc339c0a)" style="fill: none; stroke: #000000; stroke-opacity: 0.9; stroke-width: 0.9"/>
    <path clip-path="url(#p8bcc339c0a)" style="fill: none; stroke: #000000; stroke-opacity: 0.9; stroke-width: 0.9"/>
    <path clip-path="url(#p8bcc339c0a)" style="fill: none; stroke: #000000; stroke-opacity: 0.9; stroke-width: 0.9"/>
    <path clip-path="url(#p8bcc339c0a)" style="fill: none; stroke: #000000; stroke-opacity: 0.9; stroke-width: 0.9"/>
    <path clip-path="url(#p8bcc339c0a)" style="fill: none; stroke: #000000; stroke-opacity: 0.9; stroke-width: 0.9"/>
    <path clip-path="url(#p8bcc339c0a)" style="fill: none; stroke: #000000; stroke-opacity: 0.9; stroke-width: 0.9"/>
    <path clip-path="url(#p8bcc339c0a)" style="fill: none; stroke: #000000; stroke-opacity: 0.9; stroke-width: 0.9"/>
    <path clip-path="url(#p8bcc339c0a)" style="fill: none; stroke: #000000; stroke-opacity: 0.9; stroke-width: 0.9"/>
    <path clip-path="url(#p8bcc339c0a)" style="fill: none; stroke: #000000; stroke-opacity: 0.9; stroke-width: 0.9"/>
    <path clip-path="url(#p8bcc339c0a)" style="fill: none; stroke: #000000; stroke-opacity: 0.9; stroke-width: 0.9"/>
    <path clip-path="url(#p8bcc339c0a)" style="fill: none; stroke: #000000; stroke-opacity: 0.9; stroke-width: 0.9"/>
    <path clip-path="url(#p8bcc339c0a)" style="fill: none; stroke: #000000; stroke-opacity: 0.9; stroke-width: 0.9"/>
    <path clip-path="url(#p8bcc339c0a)" style="fill: none; stroke: #000000; stroke-opacity: 0.9; stroke-width: 0.9"/>
    <path clip-path="url(#p8bcc339c0a)" style="fill: none; stroke: #000000; stroke-opacity: 0.9; stroke-width: 0.9"/>
    <path clip-path="url(#p8bcc339c0a)" style="fill: none; stroke: #000000; stroke-opacity: 0.9; stroke-width: 0.9"/>
    <path clip-path="url(#p8bcc339c0a)" style="fill: none; stroke: #000000; stroke-opacity: 0.9; stroke-width: 0.9"/>
    <path clip-path="url(#p8bcc339c0a)" style="fill: none; stroke: #000000; stroke-opacity: 0.9; stroke-width: 0.9"/>
   </g>
   <g id="text_1">
    <g clip-path="url(#p8bcc339c0a)">
     <!-- 7 -->
     <g style="opacity: 0.9" transform="translate(5.137852 556.716902) rotate(-338.230185) scale(0.12 -0.12)">
      <defs>
       <path id="DejaVuSans-37" d="M 525 4666 
L 3525 4666 
L 3525 4397 
L 1831 0 
L 1172 0 
L 2766 4134 
L 525 4134 
L 525 4666 
z
" transform="scale(0.015625)"/>
      </defs>
      <use xlink:href="#DejaVuSans-37"/>
     </g>
    </g>
   </g>
  </g>
 </g>
 <defs>
  <clipPath id="p8bcc339c0a">
   <rect x="0" y="0" width="576" height="576"/>
  </clipPath>
 </defs>
</svg>
