<?xml version="1.0" encoding="utf-8" standalone="no"?>
<!DOCTYPE svg PUBLIC "-//W3C//DTD SVG 1.1//EN"
  "http://www.w3.org/Graphics/SVG/1.1/DTD/svg11.dtd">
<svg xmlns:xlink="http://www.w3.org/1999/xlink" width="576pt" height="576pt" viewBox="0 0 576 576" xmlns="http://www.w3.org/2000/svg" version="1.1">
 <metadata>
  <rdf:RDF xmlns:dc="http://purl.org/dc/elements/1.1/" xmlns:cc="http://creativecommons.org/ns#" xmlns:rdf="http://www.w3.org/1999/02/22-rdf-syntax-ns#">
   <cc:Work>
    <dc:type rdf:resource="http://purl.org/dc/dcmitype/StillImage"/>
    <dc:date>2025-07-20T16:08:10.522277</dc:date>
    <dc:format>image/svg+xml</dc:format>
    <dc:creator>
     <cc:Agent>
      <dc:title>Matplotlib v3.10.3, https://matplotlib.org/</dc:title>
     </cc:Agent>
    </dc:creator>
   </cc:Work>
  </rdf:RDF>
 </metadata>
 <defs>
  <style type="text/css">*{stroke-linejoin: round; stroke-linecap: butt}</style>
 </defs>
 <g id="figure_1">
  <g id="patch_1">
   <path d="M 0 576 
L 576 576 
L 576 0 
L 0 0 
L 0 576 
z
" style="fill: none; opacity: 0"/>
  </g>
  <g id="axes_1">
   <g id="QuadContourSet_1">
    <path clip-path="url(#pdd38380814)" style="fill: #f5f9fe; fill-opacity: 0.8"/>
    <path clip-path="url(#pdd38380814)" style="fill: #eff6fc; fill-opacity: 0.8"/>
    <path clip-path="url(#pdd38380814)" style="fill: #eaf2fb; fill-opacity: 0.8"/>
    <path clip-path="url(#pdd38380814)" style="fill: #e4eff9; fill-opacity: 0.8"/>
    <path d="M 551.798319 70.30012 
L 552.028812 70.30012 
L 552.259304 70.30012 
L 552.259304 70.069628 
L 552.489796 70.069628 
L 552.489796 69.839136 
L 552.489796 69.608643 
L 552.720288 69.608643 
L 552.720288 69.378151 
L 552.95078 69.378151 
L 552.95078 69.147659 
L 552.95078 68.917167 
L 553.181273 68.917167 
L 553.181273 68.686675 
L 553.181273 68.456182 
L 553.411765 68.456182 
L 553.411765 68.22569 
L 553.642257 68.22569 
L 553.642257 67.995198 
L 553.642257 67.764706 
L 553.872749 67.764706 
L 553.872749 67.534214 
L 554.103241 67.534214 
L 554.103241 67.303721 
L 554.103241 67.073229 
L 554.333733 67.073229 
L 554.333733 66.842737 
L 554.333733 66.612245 
L 554.564226 66.612245 
L 554.564226 66.381753 
L 554.794718 66.381753 
L 554.794718 66.151261 
L 554.794718 65.920768 
L 555.02521 65.920768 
L 555.02521 65.690276 
L 555.02521 65.459784 
L 555.255702 65.459784 
L 555.255702 65.229292 
L 555.486194 65.229292 
L 555.486194 64.9988 
L 555.486194 64.768307 
L 555.716687 64.768307 
L 555.716687 64.537815 
L 555.716687 64.307323 
L 555.947179 64.307323 
L 555.947179 64.076831 
L 556.177671 64.076831 
L 556.177671 63.846339 
L 556.177671 63.615846 
L 556.408163 63.615846 
L 556.408163 63.385354 
L 556.408163 63.154862 
L 556.638655 63.154862 
L 556.638655 62.92437 
L 556.869148 62.92437 
L 556.869148 62.693878 
L 556.869148 62.463385 
L 557.09964 62.463385 
L 557.09964 62.232893 
L 557.09964 62.002401 
L 557.330132 62.002401 
L 557.330132 61.771909 
L 557.560624 61.771909 
L 557.560624 61.541417 
L 557.560624 61.310924 
L 557.791116 61.310924 
L 557.791116 61.080432 
L 557.791116 60.84994 
L 558.021609 60.84994 
L 558.021609 60.619448 
L 558.252101 60.619448 
L 558.252101 60.388956 
L 558.252101 60.158463 
L 558.482593 60.158463 
L 558.482593 59.927971 
L 558.713085 59.927971 
L 558.713085 59.697479 
L 558.713085 59.466987 
L 558.943577 59.466987 
L 558.943577 59.236495 
L 558.943577 59.006002 
L 559.17407 59.006002 
L 559.17407 58.77551 
L 559.404562 58.77551 
L 559.404562 58.545018 
L 559.404562 58.314526 
L 559.635054 58.314526 
L 559.635054 58.084034 
L 559.635054 57.853541 
L 559.865546 57.853541 
L 559.865546 57.623049 
L 560.096038 57.623049 
L 560.096038 57.392557 
L 560.096038 57.162065 
L 560.326531 57.162065 
L 560.326531 56.931573 
L 560.326531 56.70108 
L 560.557023 56.70108 
L 560.557023 56.470588 
L 560.787515 56.470588 
L 560.787515 56.240096 
L 560.787515 56.009604 
L 561.018007 56.009604 
L 561.018007 55.779112 
L 561.018007 55.548619 
L 561.248499 55.548619 
L 561.248499 55.318127 
L 561.478992 55.318127 
L 561.478992 55.087635 
L 561.478992 54.857143 
L 561.709484 54.857143 
L 561.709484 54.626651 
L 561.709484 54.396158 
L 561.939976 54.396158 
L 561.939976 54.165666 
L 562.170468 54.165666 
L 562.170468 53.935174 
L 562.170468 53.704682 
L 562.40096 53.704682 
L 562.40096 53.47419 
L 562.40096 53.243697 
L 562.631453 53.243697 
L 562.631453 53.013205 
L 562.861945 53.013205 
L 562.861945 52.782713 
L 562.861945 52.552221 
L 563.092437 52.552221 
L 563.092437 52.321729 
L 563.322929 52.321729 
L 563.322929 52.091236 
L 563.322929 51.860744 
L 563.553421 51.860744 
L 563.553421 51.630252 
L 563.553421 51.39976 
L 563.783914 51.39976 
L 563.783914 51.169268 
L 564.014406 51.169268 
L 564.014406 50.938776 
L 564.014406 50.708283 
L 564.244898 50.708283 
L 564.244898 50.477791 
L 564.244898 50.247299 
L 564.47539 50.247299 
L 564.47539 50.016807 
L 564.705882 50.016807 
L 564.705882 49.786315 
L 564.705882 49.555822 
L 564.936375 49.555822 
L 564.936375 49.32533 
L 564.936375 49.094838 
L 565.166867 49.094838 
L 565.166867 48.864346 
L 565.397359 48.864346 
L 565.397359 48.633854 
L 565.397359 48.403361 
L 565.627851 48.403361 
L 565.627851 48.172869 
L 565.627851 47.942377 
L 565.858343 47.942377 
L 565.858343 47.711885 
L 566.088836 47.711885 
L 566.088836 47.481393 
L 566.088836 47.2509 
L 566.319328 47.2509 
L 566.319328 47.020408 
L 566.319328 46.789916 
L 566.54982 46.789916 
L 566.54982 46.559424 
L 566.780312 46.559424 
L 566.780312 46.328932 
L 566.780312 46.098439 
L 567.010804 46.098439 
L 567.010804 45.867947 
L 567.010804 45.637455 
L 567.241297 45.637455 
L 567.241297 45.406963 
L 567.471789 45.406963 
L 567.471789 45.176471 
L 567.471789 44.945978 
L 567.702281 44.945978 
L 567.702281 44.715486 
L 567.702281 44.484994 
L 567.932773 44.484994 
L 567.932773 44.254502 
L 568.163265 44.254502 
L 568.163265 44.02401 
L 568.163265 43.793517 
L 568.393758 43.793517 
L 568.393758 43.563025 
L 568.62425 43.563025 
L 568.62425 43.332533 
L 568.62425 43.102041 
L 568.854742 43.102041 
L 568.854742 42.871549 
L 568.854742 42.641056 
L 569.085234 42.641056 
L 569.085234 42.410564 
L 569.085234 42.180072 
L 569.085234 41.94958 
L 569.085234 41.719088 
L 569.085234 41.488595 
L 568.854742 41.488595 
L 568.854742 41.258103 
L 568.854742 41.027611 
L 568.854742 40.797119 
L 568.62425 40.797119 
L 568.62425 40.566627 
L 568.62425 40.336134 
L 568.62425 40.105642 
L 568.393758 40.105642 
L 568.393758 39.87515 
L 568.393758 39.644658 
L 568.393758 39.414166 
L 568.163265 39.414166 
L 568.163265 39.183673 
L 568.163265 38.953181 
L 568.163265 38.722689 
L 568.163265 38.492197 
L 567.932773 38.492197 
L 567.932773 38.261705 
L 567.932773 38.031212 
L 567.932773 37.80072 
L 567.702281 37.80072 
L 567.702281 37.570228 
L 567.702281 37.339736 
L 567.702281 37.109244 
L 567.471789 37.109244 
L 567.471789 36.878752 
L 567.471789 36.648259 
L 567.471789 36.417767 
L 567.241297 36.417767 
L 567.241297 36.187275 
L 567.241297 35.956783 
L 567.241297 35.726291 
L 567.241297 35.495798 
L 567.010804 35.495798 
L 567.010804 35.265306 
L 567.010804 35.034814 
L 567.010804 34.804322 
L 566.780312 34.804322 
L 566.780312 34.57383 
L 566.780312 34.343337 
L 566.780312 34.112845 
L 566.54982 34.112845 
L 566.54982 33.882353 
L 566.54982 33.651861 
L 566.54982 33.421369 
L 566.319328 33.421369 
L 566.319328 33.190876 
L 566.319328 32.960384 
L 566.319328 32.729892 
L 566.319328 32.4994 
L 566.088836 32.4994 
L 566.088836 32.268908 
L 566.088836 32.038415 
L 566.088836 31.807923 
L 565.858343 31.807923 
L 565.858343 31.577431 
L 565.858343 31.346939 
L 565.858343 31.116447 
L 565.627851 31.116447 
L 565.627851 30.885954 
L 565.627851 30.655462 
L 565.627851 30.42497 
L 565.397359 30.42497 
L 565.397359 30.194478 
L 565.397359 29.963986 
L 565.397359 29.733493 
L 565.397359 29.503001 
L 565.166867 29.503001 
L 565.166867 29.272509 
L 565.166867 29.042017 
L 565.166867 28.811525 
L 564.936375 28.811525 
L 564.936375 28.581032 
L 564.936375 28.35054 
L 564.936375 28.120048 
L 564.705882 28.120048 
L 564.705882 27.889556 
L 564.705882 27.659064 
L 564.705882 27.428571 
L 564.47539 27.428571 
L 564.47539 27.198079 
L 564.47539 26.967587 
L 564.47539 26.737095 
L 564.47539 26.506603 
L 564.244898 26.506603 
L 564.244898 26.27611 
L 564.244898 26.045618 
L 564.244898 25.815126 
L 564.014406 25.815126 
L 564.014406 25.584634 
L 564.014406 25.354142 
L 564.014406 25.123649 
L 563.783914 25.123649 
L 563.783914 24.893157 
L 563.783914 24.662665 
L 563.783914 24.432173 
L 563.553421 24.432173 
L 563.553421 24.201681 
L 563.553421 23.971188 
L 563.553421 23.740696 
L 563.553421 23.510204 
L 563.322929 23.510204 
L 563.322929 23.279712 
L 563.322929 23.04922 
L 563.322929 22.818727 
L 563.092437 22.818727 
L 563.092437 22.588235 
L 563.092437 22.357743 
L 563.092437 22.127251 
L 562.861945 22.127251 
L 562.861945 21.896759 
L 562.861945 21.666267 
L 562.861945 21.435774 
L 562.631453 21.435774 
L 562.631453 21.205282 
L 562.631453 20.97479 
L 562.631453 20.744298 
L 562.631453 20.513806 
L 562.40096 20.513806 
L 562.40096 20.283313 
L 562.40096 20.052821 
L 562.40096 19.822329 
L 562.170468 19.822329 
L 562.170468 19.591837 
L 562.170468 19.361345 
L 562.170468 19.130852 
L 561.939976 19.130852 
L 561.939976 18.90036 
L 561.939976 18.669868 
L 561.939976 18.439376 
L 561.709484 18.439376 
L 561.709484 18.208884 
L 561.709484 17.978391 
L 561.709484 17.747899 
L 561.709484 17.517407 
L 561.478992 17.517407 
L 561.478992 17.286915 
L 561.478992 17.056423 
L 561.478992 16.82593 
L 561.248499 16.82593 
L 561.248499 16.595438 
L 561.248499 16.364946 
L 561.248499 16.134454 
L 561.018007 16.134454 
L 561.018007 15.903962 
L 561.018007 15.673469 
L 561.018007 15.442977 
L 560.787515 15.442977 
L 560.787515 15.212485 
L 560.787515 14.981993 
L 560.787515 14.751501 
L 560.787515 14.521008 
L 560.557023 14.521008 
L 560.557023 14.290516 
L 560.557023 14.060024 
L 560.557023 13.829532 
L 560.326531 13.829532 
L 560.326531 13.59904 
L 560.326531 13.368547 
L 560.326531 13.138055 
L 560.096038 13.138055 
L 560.096038 12.907563 
L 560.096038 12.677071 
L 560.096038 12.446579 
L 559.865546 12.446579 
L 559.865546 12.216086 
L 559.865546 11.985594 
L 559.865546 11.755102 
L 559.635054 11.755102 
L 559.635054 11.52461 
L 559.635054 11.294118 
L 559.635054 11.063625 
L 559.635054 10.833133 
L 559.404562 10.833133 
L 559.404562 10.602641 
L 559.404562 10.372149 
L 559.404562 10.141657 
L 559.17407 10.141657 
L 559.17407 9.911164 
L 559.17407 9.680672 
L 559.17407 9.45018 
L 558.943577 9.45018 
L 558.943577 9.219688 
L 558.943577 8.989196 
L 558.943577 8.758703 
L 558.713085 8.758703 
L 558.713085 8.528211 
L 558.713085 8.297719 
L 558.713085 8.067227 
L 558.713085 7.836735 
L 558.482593 7.836735 
L 558.482593 7.606242 
L 558.482593 7.37575 
L 558.482593 7.145258 
L 558.252101 7.145258 
L 558.252101 6.914766 
L 558.252101 6.684274 
L 558.252101 6.453782 
L 558.021609 6.453782 
L 558.021609 6.223289 
L 558.021609 5.992797 
L 558.021609 5.762305 
L 557.791116 5.762305 
L 557.791116 5.531813 
L 557.560624 5.531813 
L 557.560624 5.301321 
L 557.330132 5.301321 
L 557.09964 5.301321 
L 556.869148 5.301321 
L 556.638655 5.301321 
L 556.408163 5.301321 
L 556.177671 5.301321 
L 555.947179 5.301321 
L 555.716687 5.301321 
L 555.486194 5.301321 
L 555.255702 5.301321 
L 555.02521 5.301321 
L 554.794718 5.301321 
L 554.564226 5.301321 
L 554.333733 5.301321 
L 554.103241 5.301321 
L 553.872749 5.301321 
L 553.642257 5.301321 
L 553.411765 5.301321 
L 553.181273 5.301321 
L 552.95078 5.301321 
L 552.720288 5.301321 
L 552.489796 5.301321 
L 552.259304 5.301321 
L 552.028812 5.301321 
L 551.798319 5.301321 
L 551.567827 5.301321 
L 551.337335 5.301321 
L 551.106843 5.301321 
L 550.876351 5.301321 
L 550.645858 5.301321 
L 550.415366 5.301321 
L 550.184874 5.301321 
L 549.954382 5.301321 
L 549.72389 5.301321 
L 549.493397 5.301321 
L 549.262905 5.301321 
L 549.032413 5.301321 
L 548.801921 5.301321 
L 548.571429 5.301321 
L 548.340936 5.301321 
L 548.110444 5.301321 
L 547.879952 5.301321 
L 547.64946 5.301321 
L 547.418968 5.301321 
L 547.188475 5.301321 
L 546.957983 5.301321 
L 546.727491 5.301321 
L 546.496999 5.301321 
L 546.266507 5.301321 
L 546.036014 5.301321 
L 545.805522 5.301321 
L 545.57503 5.301321 
L 545.344538 5.301321 
L 545.114046 5.301321 
L 544.883553 5.301321 
L 544.653061 5.301321 
L 544.422569 5.301321 
L 544.192077 5.301321 
L 543.961585 5.301321 
L 543.731092 5.301321 
L 543.5006 5.301321 
L 543.270108 5.301321 
L 543.039616 5.301321 
L 542.809124 5.301321 
L 542.578631 5.301321 
L 542.348139 5.301321 
L 542.117647 5.301321 
L 541.887155 5.301321 
L 541.656663 5.301321 
L 541.42617 5.301321 
L 541.195678 5.301321 
L 540.965186 5.301321 
L 540.734694 5.301321 
L 540.504202 5.301321 
L 540.273709 5.301321 
L 540.043217 5.301321 
L 539.812725 5.301321 
L 539.582233 5.301321 
L 539.351741 5.301321 
L 539.121248 5.301321 
L 538.890756 5.301321 
L 538.660264 5.301321 
L 538.429772 5.301321 
L 538.19928 5.301321 
L 537.968788 5.301321 
L 537.738295 5.301321 
L 537.507803 5.301321 
L 537.277311 5.301321 
L 537.046819 5.301321 
L 536.816327 5.301321 
L 536.585834 5.301321 
L 536.355342 5.301321 
L 536.12485 5.301321 
L 535.894358 5.301321 
L 535.663866 5.301321 
L 535.433373 5.301321 
L 535.202881 5.301321 
L 534.972389 5.301321 
L 534.741897 5.301321 
L 534.511405 5.301321 
L 534.280912 5.301321 
L 534.05042 5.301321 
L 533.819928 5.301321 
L 533.589436 5.301321 
L 533.358944 5.301321 
L 533.128451 5.301321 
L 532.897959 5.301321 
L 532.667467 5.301321 
L 532.436975 5.301321 
L 532.206483 5.301321 
L 531.97599 5.301321 
L 531.745498 5.301321 
L 531.515006 5.301321 
L 531.284514 5.301321 
L 531.054022 5.301321 
L 530.823529 5.301321 
L 530.593037 5.301321 
L 530.362545 5.301321 
L 530.132053 5.301321 
L 529.901561 5.301321 
L 529.671068 5.301321 
L 529.440576 5.301321 
L 529.210084 5.301321 
L 528.979592 5.301321 
L 528.7491 5.301321 
L 528.518607 5.301321 
L 528.288115 5.301321 
L 528.057623 5.301321 
L 527.827131 5.301321 
L 527.596639 5.301321 
L 527.366146 5.301321 
L 527.135654 5.301321 
L 526.905162 5.301321 
L 526.67467 5.301321 
L 526.444178 5.301321 
L 526.213685 5.301321 
L 525.983193 5.301321 
L 525.752701 5.301321 
L 525.522209 5.301321 
L 525.291717 5.301321 
L 525.061224 5.301321 
L 524.830732 5.301321 
L 524.60024 5.301321 
L 524.369748 5.301321 
L 524.139256 5.301321 
L 523.908764 5.301321 
L 523.678271 5.301321 
L 523.447779 5.301321 
L 523.217287 5.301321 
L 522.986795 5.301321 
L 522.756303 5.301321 
L 522.52581 5.301321 
L 522.295318 5.301321 
L 522.064826 5.301321 
L 521.834334 5.301321 
L 521.603842 5.301321 
L 521.373349 5.301321 
L 521.142857 5.301321 
L 520.912365 5.301321 
L 520.681873 5.301321 
L 520.451381 5.301321 
L 520.220888 5.301321 
L 519.990396 5.301321 
L 519.759904 5.301321 
L 519.529412 5.301321 
L 519.29892 5.301321 
L 519.068427 5.301321 
L 518.837935 5.301321 
L 518.607443 5.301321 
L 518.376951 5.301321 
L 518.146459 5.301321 
L 517.915966 5.301321 
L 517.685474 5.301321 
L 517.454982 5.301321 
L 517.22449 5.301321 
L 516.993998 5.301321 
L 516.763505 5.301321 
L 516.533013 5.301321 
L 516.302521 5.301321 
L 516.072029 5.301321 
L 515.841537 5.301321 
L 515.611044 5.301321 
L 515.380552 5.301321 
L 515.15006 5.301321 
L 514.919568 5.301321 
L 514.689076 5.301321 
L 514.458583 5.301321 
L 514.228091 5.301321 
L 513.997599 5.301321 
L 513.767107 5.301321 
L 513.536615 5.301321 
L 513.306122 5.301321 
L 513.07563 5.301321 
L 512.845138 5.301321 
L 512.614646 5.301321 
L 512.384154 5.301321 
L 512.153661 5.301321 
L 511.923169 5.301321 
L 511.692677 5.301321 
L 511.462185 5.301321 
L 511.231693 5.301321 
L 511.0012 5.301321 
L 510.770708 5.301321 
L 510.540216 5.301321 
L 510.309724 5.301321 
L 510.079232 5.301321 
L 509.848739 5.301321 
L 509.618247 5.301321 
L 509.387755 5.301321 
L 509.157263 5.301321 
L 508.926771 5.301321 
L 508.696279 5.301321 
L 508.465786 5.301321 
L 508.235294 5.301321 
L 508.004802 5.301321 
L 507.77431 5.301321 
L 507.543818 5.301321 
L 507.313325 5.301321 
L 507.082833 5.301321 
L 506.852341 5.301321 
L 506.621849 5.301321 
L 506.391357 5.301321 
L 506.160864 5.301321 
L 505.930372 5.301321 
L 505.69988 5.301321 
L 505.469388 5.301321 
L 505.238896 5.301321 
L 505.008403 5.301321 
L 504.777911 5.301321 
L 504.547419 5.301321 
L 504.316927 5.301321 
L 504.086435 5.301321 
L 503.855942 5.301321 
L 503.62545 5.301321 
L 503.394958 5.301321 
L 503.164466 5.301321 
L 502.933974 5.301321 
L 502.703481 5.301321 
L 502.472989 5.301321 
L 502.242497 5.301321 
L 502.012005 5.301321 
L 501.781513 5.301321 
L 501.55102 5.301321 
L 501.320528 5.301321 
L 501.090036 5.301321 
L 500.859544 5.301321 
L 500.629052 5.301321 
L 500.398559 5.301321 
L 500.168067 5.301321 
L 499.937575 5.301321 
L 499.707083 5.301321 
L 499.476591 5.301321 
L 499.246098 5.301321 
L 499.015606 5.301321 
L 498.785114 5.301321 
L 498.554622 5.301321 
L 498.32413 5.301321 
L 498.093637 5.301321 
L 497.863145 5.301321 
L 497.632653 5.301321 
L 497.402161 5.301321 
L 497.171669 5.301321 
L 496.941176 5.301321 
L 496.710684 5.301321 
L 496.480192 5.301321 
L 496.2497 5.301321 
L 496.019208 5.301321 
L 495.788715 5.301321 
L 495.558223 5.301321 
L 495.327731 5.301321 
L 495.097239 5.301321 
L 494.866747 5.301321 
L 494.636255 5.301321 
L 494.405762 5.301321 
L 494.17527 5.301321 
L 493.944778 5.301321 
L 493.714286 5.301321 
L 493.483794 5.301321 
L 493.253301 5.301321 
L 493.022809 5.301321 
L 492.792317 5.301321 
L 492.561825 5.301321 
L 492.331333 5.301321 
L 492.10084 5.301321 
L 491.870348 5.301321 
L 491.639856 5.301321 
L 491.409364 5.301321 
L 491.178872 5.301321 
L 490.948379 5.301321 
L 490.717887 5.301321 
L 490.487395 5.301321 
L 490.256903 5.301321 
L 490.026411 5.301321 
L 489.795918 5.301321 
L 489.565426 5.301321 
L 489.334934 5.301321 
L 489.104442 5.301321 
L 488.87395 5.301321 
L 488.643457 5.301321 
L 488.412965 5.301321 
L 488.182473 5.301321 
L 487.951981 5.301321 
L 487.721489 5.301321 
L 487.490996 5.301321 
L 487.260504 5.301321 
L 487.030012 5.301321 
L 486.79952 5.301321 
L 486.569028 5.301321 
L 486.338535 5.301321 
L 486.108043 5.301321 
L 485.877551 5.301321 
L 485.647059 5.301321 
L 485.416567 5.301321 
L 485.186074 5.301321 
L 484.955582 5.301321 
L 484.72509 5.301321 
L 484.494598 5.301321 
L 484.264106 5.301321 
L 484.033613 5.301321 
L 483.803121 5.301321 
L 483.572629 5.301321 
L 483.342137 5.301321 
L 483.111645 5.301321 
L 482.881152 5.301321 
L 482.65066 5.301321 
L 482.420168 5.301321 
L 482.189676 5.301321 
L 481.959184 5.301321 
L 481.728691 5.301321 
L 481.498199 5.301321 
L 481.267707 5.301321 
L 481.037215 5.301321 
L 480.806723 5.301321 
L 480.57623 5.301321 
L 480.345738 5.301321 
L 480.115246 5.301321 
L 479.884754 5.301321 
L 479.654262 5.301321 
L 479.42377 5.301321 
L 479.193277 5.301321 
L 478.962785 5.301321 
L 478.732293 5.301321 
L 478.501801 5.301321 
L 478.271309 5.301321 
L 478.040816 5.301321 
L 477.810324 5.301321 
L 477.579832 5.301321 
L 477.34934 5.301321 
L 477.118848 5.301321 
L 476.888355 5.301321 
L 476.657863 5.301321 
L 476.427371 5.301321 
L 476.196879 5.301321 
L 475.966387 5.301321 
L 475.735894 5.301321 
L 475.505402 5.301321 
L 475.27491 5.301321 
L 475.044418 5.301321 
L 474.813926 5.301321 
L 474.583433 5.301321 
L 474.352941 5.301321 
L 474.122449 5.301321 
L 473.891957 5.301321 
L 473.661465 5.301321 
L 473.430972 5.301321 
L 473.20048 5.301321 
L 472.969988 5.301321 
L 472.739496 5.301321 
L 472.509004 5.301321 
L 472.278511 5.301321 
L 472.278511 5.531813 
L 472.048019 5.531813 
L 471.817527 5.531813 
L 471.587035 5.531813 
L 471.356543 5.531813 
L 471.12605 5.531813 
L 470.895558 5.531813 
L 470.665066 5.531813 
L 470.434574 5.531813 
L 470.204082 5.531813 
L 469.973589 5.531813 
L 469.743097 5.531813 
L 469.512605 5.531813 
L 469.282113 5.531813 
L 469.051621 5.531813 
L 468.821128 5.531813 
L 468.590636 5.531813 
L 468.360144 5.531813 
L 468.129652 5.531813 
L 467.89916 5.531813 
L 467.668667 5.531813 
L 467.438175 5.531813 
L 467.207683 5.531813 
L 466.977191 5.531813 
L 466.746699 5.531813 
L 466.516206 5.531813 
L 466.285714 5.531813 
L 466.055222 5.531813 
L 465.82473 5.531813 
L 465.594238 5.531813 
L 465.363745 5.531813 
L 465.133253 5.531813 
L 464.902761 5.531813 
L 464.672269 5.531813 
L 464.441777 5.531813 
L 464.211285 5.531813 
L 463.980792 5.531813 
L 463.7503 5.531813 
L 463.519808 5.531813 
L 463.289316 5.531813 
L 463.058824 5.531813 
L 462.828331 5.531813 
L 462.597839 5.531813 
L 462.367347 5.531813 
L 462.136855 5.531813 
L 461.906363 5.531813 
L 461.67587 5.531813 
L 461.445378 5.531813 
L 461.214886 5.531813 
L 460.984394 5.531813 
L 460.753902 5.531813 
L 460.523409 5.531813 
L 460.292917 5.531813 
L 460.062425 5.531813 
L 459.831933 5.531813 
L 459.601441 5.531813 
L 459.370948 5.531813 
L 459.140456 5.531813 
L 458.909964 5.531813 
L 458.679472 5.531813 
L 458.44898 5.531813 
L 458.218487 5.531813 
L 457.987995 5.531813 
L 457.757503 5.531813 
L 457.527011 5.531813 
L 457.296519 5.531813 
L 457.066026 5.531813 
L 456.835534 5.531813 
L 456.605042 5.531813 
L 456.37455 5.531813 
L 456.144058 5.531813 
L 455.913565 5.531813 
L 455.683073 5.531813 
L 455.452581 5.531813 
L 455.222089 5.531813 
L 454.991597 5.531813 
L 454.761104 5.531813 
L 454.530612 5.531813 
L 454.30012 5.531813 
L 454.069628 5.531813 
L 453.839136 5.531813 
L 453.608643 5.531813 
L 453.378151 5.531813 
L 453.147659 5.531813 
L 452.917167 5.531813 
L 452.686675 5.531813 
L 452.456182 5.531813 
L 452.22569 5.531813 
L 451.995198 5.531813 
L 451.764706 5.531813 
L 451.534214 5.531813 
L 451.303721 5.531813 
L 451.073229 5.531813 
L 450.842737 5.531813 
L 450.612245 5.531813 
L 450.381753 5.531813 
L 450.151261 5.531813 
L 449.920768 5.531813 
L 449.690276 5.531813 
L 449.459784 5.531813 
L 449.229292 5.531813 
L 448.9988 5.531813 
L 448.768307 5.531813 
L 448.537815 5.531813 
L 448.307323 5.531813 
L 448.076831 5.531813 
L 447.846339 5.531813 
L 447.615846 5.531813 
L 447.385354 5.531813 
L 447.154862 5.531813 
L 446.92437 5.531813 
L 446.693878 5.531813 
L 446.463385 5.531813 
L 446.232893 5.531813 
L 446.002401 5.531813 
L 445.771909 5.531813 
L 445.541417 5.531813 
L 445.310924 5.531813 
L 445.080432 5.531813 
L 444.84994 5.531813 
L 444.619448 5.531813 
L 444.388956 5.531813 
L 444.158463 5.531813 
L 443.927971 5.531813 
L 443.697479 5.531813 
L 443.466987 5.531813 
L 443.236495 5.531813 
L 443.006002 5.531813 
L 442.77551 5.531813 
L 442.545018 5.531813 
L 442.314526 5.531813 
L 442.084034 5.531813 
L 441.853541 5.531813 
L 441.623049 5.531813 
L 441.392557 5.531813 
L 441.162065 5.531813 
L 440.931573 5.531813 
L 440.70108 5.531813 
L 440.470588 5.531813 
L 440.240096 5.531813 
L 440.009604 5.531813 
L 439.779112 5.531813 
L 439.548619 5.531813 
L 439.318127 5.531813 
L 439.087635 5.531813 
L 438.857143 5.531813 
L 438.626651 5.531813 
L 438.396158 5.531813 
L 438.165666 5.531813 
L 437.935174 5.531813 
L 437.704682 5.531813 
L 437.47419 5.531813 
L 437.243697 5.531813 
L 437.013205 5.531813 
L 436.782713 5.531813 
L 436.552221 5.531813 
L 436.321729 5.531813 
L 436.091236 5.531813 
L 435.860744 5.531813 
L 435.630252 5.531813 
L 435.39976 5.531813 
L 435.169268 5.531813 
L 434.938776 5.531813 
L 434.708283 5.531813 
L 434.477791 5.531813 
L 434.247299 5.531813 
L 434.016807 5.531813 
L 433.786315 5.531813 
L 433.555822 5.531813 
L 433.32533 5.531813 
L 433.094838 5.531813 
L 432.864346 5.531813 
L 432.633854 5.531813 
L 432.403361 5.531813 
L 432.172869 5.531813 
L 431.942377 5.531813 
L 431.711885 5.531813 
L 431.481393 5.531813 
L 431.2509 5.531813 
L 431.020408 5.531813 
L 430.789916 5.531813 
L 430.559424 5.531813 
L 430.328932 5.531813 
L 430.098439 5.531813 
L 429.867947 5.531813 
L 429.637455 5.531813 
L 429.406963 5.531813 
L 429.176471 5.531813 
L 428.945978 5.531813 
L 428.715486 5.531813 
L 428.484994 5.531813 
L 428.254502 5.531813 
L 428.02401 5.531813 
L 427.793517 5.531813 
L 427.563025 5.531813 
L 427.332533 5.531813 
L 427.102041 5.531813 
L 426.871549 5.531813 
L 426.641056 5.531813 
L 426.410564 5.531813 
L 426.180072 5.531813 
L 425.94958 5.531813 
L 425.719088 5.531813 
L 425.488595 5.531813 
L 425.258103 5.531813 
L 425.027611 5.531813 
L 424.797119 5.531813 
L 424.566627 5.531813 
L 424.336134 5.531813 
L 424.105642 5.531813 
L 423.87515 5.531813 
L 423.644658 5.531813 
L 423.414166 5.531813 
L 423.183673 5.531813 
L 422.953181 5.531813 
L 422.722689 5.531813 
L 422.492197 5.531813 
L 422.261705 5.531813 
L 422.031212 5.531813 
L 421.80072 5.531813 
L 421.570228 5.531813 
L 421.339736 5.531813 
L 421.109244 5.531813 
L 420.878752 5.531813 
L 420.648259 5.531813 
L 420.417767 5.531813 
L 420.187275 5.531813 
L 419.956783 5.531813 
L 419.726291 5.531813 
L 419.495798 5.531813 
L 419.265306 5.531813 
L 419.034814 5.531813 
L 418.804322 5.531813 
L 418.57383 5.531813 
L 418.343337 5.531813 
L 418.112845 5.531813 
L 417.882353 5.531813 
L 417.651861 5.531813 
L 417.421369 5.531813 
L 417.190876 5.531813 
L 416.960384 5.531813 
L 416.729892 5.531813 
L 416.4994 5.531813 
L 416.268908 5.531813 
L 416.038415 5.531813 
L 415.807923 5.531813 
L 415.577431 5.531813 
L 415.346939 5.531813 
L 415.116447 5.531813 
L 414.885954 5.531813 
L 414.655462 5.531813 
L 414.42497 5.531813 
L 414.194478 5.531813 
L 413.963986 5.531813 
L 413.733493 5.531813 
L 413.503001 5.531813 
L 413.272509 5.531813 
L 413.042017 5.531813 
L 412.811525 5.531813 
L 412.581032 5.531813 
L 412.35054 5.531813 
L 412.120048 5.531813 
L 411.889556 5.531813 
L 411.659064 5.531813 
L 411.428571 5.531813 
L 411.198079 5.531813 
L 410.967587 5.531813 
L 410.737095 5.531813 
L 410.506603 5.531813 
L 410.27611 5.531813 
L 410.045618 5.531813 
L 409.815126 5.531813 
L 409.584634 5.531813 
L 409.354142 5.531813 
L 409.123649 5.531813 
L 408.893157 5.531813 
L 408.662665 5.531813 
L 408.432173 5.531813 
L 408.201681 5.531813 
L 407.971188 5.531813 
L 407.740696 5.531813 
L 407.510204 5.531813 
L 407.279712 5.531813 
L 407.04922 5.531813 
L 406.818727 5.531813 
L 406.588235 5.531813 
L 406.357743 5.531813 
L 406.127251 5.531813 
L 405.896759 5.531813 
L 405.666267 5.531813 
L 405.435774 5.531813 
L 405.205282 5.531813 
L 404.97479 5.531813 
L 404.744298 5.531813 
L 404.513806 5.531813 
L 404.283313 5.531813 
L 404.052821 5.531813 
L 403.822329 5.531813 
L 403.591837 5.531813 
L 403.361345 5.531813 
L 403.130852 5.531813 
L 402.90036 5.531813 
L 402.669868 5.531813 
L 402.439376 5.531813 
L 402.208884 5.531813 
L 401.978391 5.531813 
L 401.747899 5.531813 
L 401.517407 5.531813 
L 401.286915 5.531813 
L 401.056423 5.531813 
L 400.82593 5.531813 
L 400.595438 5.531813 
L 400.364946 5.531813 
L 400.134454 5.531813 
L 399.903962 5.531813 
L 399.673469 5.531813 
L 399.442977 5.531813 
L 399.212485 5.531813 
L 398.981993 5.531813 
L 398.751501 5.531813 
L 398.521008 5.531813 
L 398.290516 5.531813 
L 398.060024 5.531813 
L 397.829532 5.531813 
L 397.59904 5.531813 
L 397.368547 5.531813 
L 397.138055 5.531813 
L 396.907563 5.531813 
L 396.677071 5.531813 
L 396.446579 5.531813 
L 396.216086 5.531813 
L 395.985594 5.531813 
L 395.755102 5.531813 
L 395.52461 5.531813 
L 395.294118 5.531813 
L 395.063625 5.531813 
L 394.833133 5.531813 
L 394.602641 5.531813 
L 394.372149 5.531813 
L 394.141657 5.531813 
L 394.141657 5.762305 
L 393.911164 5.762305 
L 393.680672 5.762305 
L 393.45018 5.762305 
L 393.219688 5.762305 
L 392.989196 5.762305 
L 392.758703 5.762305 
L 392.528211 5.762305 
L 392.297719 5.762305 
L 392.067227 5.762305 
L 391.836735 5.762305 
L 391.606242 5.762305 
L 391.37575 5.762305 
L 391.145258 5.762305 
L 390.914766 5.762305 
L 390.684274 5.762305 
L 390.453782 5.762305 
L 390.223289 5.762305 
L 389.992797 5.762305 
L 389.762305 5.762305 
L 389.531813 5.762305 
L 389.301321 5.762305 
L 389.070828 5.762305 
L 388.840336 5.762305 
L 388.609844 5.762305 
L 388.379352 5.762305 
L 388.14886 5.762305 
L 387.918367 5.762305 
L 387.687875 5.762305 
L 387.457383 5.762305 
L 387.457383 5.992797 
L 387.687875 5.992797 
L 387.918367 5.992797 
L 388.14886 5.992797 
L 388.14886 6.223289 
L 388.379352 6.223289 
L 388.609844 6.223289 
L 388.609844 6.453782 
L 388.840336 6.453782 
L 389.070828 6.453782 
L 389.301321 6.453782 
L 389.301321 6.684274 
L 389.531813 6.684274 
L 389.762305 6.684274 
L 389.762305 6.914766 
L 389.992797 6.914766 
L 390.223289 6.914766 
L 390.453782 6.914766 
L 390.453782 7.145258 
L 390.684274 7.145258 
L 390.914766 7.145258 
L 391.145258 7.145258 
L 391.145258 7.37575 
L 391.37575 7.37575 
L 391.606242 7.37575 
L 391.606242 7.606242 
L 391.836735 7.606242 
L 392.067227 7.606242 
L 392.297719 7.606242 
L 392.297719 7.836735 
L 392.528211 7.836735 
L 392.758703 7.836735 
L 392.758703 8.067227 
L 392.989196 8.067227 
L 393.219688 8.067227 
L 393.45018 8.067227 
L 393.45018 8.297719 
L 393.680672 8.297719 
L 393.911164 8.297719 
L 393.911164 8.528211 
L 394.141657 8.528211 
L 394.372149 8.528211 
L 394.602641 8.528211 
L 394.602641 8.758703 
L 394.833133 8.758703 
L 395.063625 8.758703 
L 395.063625 8.989196 
L 395.294118 8.989196 
L 395.52461 8.989196 
L 395.755102 8.989196 
L 395.755102 9.219688 
L 395.985594 9.219688 
L 396.216086 9.219688 
L 396.446579 9.219688 
L 396.446579 9.45018 
L 396.677071 9.45018 
L 396.907563 9.45018 
L 396.907563 9.680672 
L 397.138055 9.680672 
L 397.368547 9.680672 
L 397.59904 9.680672 
L 397.59904 9.911164 
L 397.829532 9.911164 
L 398.060024 9.911164 
L 398.060024 10.141657 
L 398.290516 10.141657 
L 398.521008 10.141657 
L 398.751501 10.141657 
L 398.751501 10.372149 
L 398.981993 10.372149 
L 399.212485 10.372149 
L 399.212485 10.602641 
L 399.442977 10.602641 
L 399.673469 10.602641 
L 399.903962 10.602641 
L 399.903962 10.833133 
L 400.134454 10.833133 
L 400.364946 10.833133 
L 400.364946 11.063625 
L 400.595438 11.063625 
L 400.82593 11.063625 
L 401.056423 11.063625 
L 401.056423 11.294118 
L 401.286915 11.294118 
L 401.517407 11.294118 
L 401.747899 11.294118 
L 401.747899 11.52461 
L 401.978391 11.52461 
L 402.208884 11.52461 
L 402.208884 11.755102 
L 402.439376 11.755102 
L 402.669868 11.755102 
L 402.90036 11.755102 
L 402.90036 11.985594 
L 403.130852 11.985594 
L 403.361345 11.985594 
L 403.361345 12.216086 
L 403.591837 12.216086 
L 403.822329 12.216086 
L 404.052821 12.216086 
L 404.052821 12.446579 
L 404.283313 12.446579 
L 404.513806 12.446579 
L 404.513806 12.677071 
L 404.744298 12.677071 
L 404.97479 12.677071 
L 405.205282 12.677071 
L 405.205282 12.907563 
L 405.435774 12.907563 
L 405.666267 12.907563 
L 405.666267 13.138055 
L 405.896759 13.138055 
L 406.127251 13.138055 
L 406.357743 13.138055 
L 406.357743 13.368547 
L 406.588235 13.368547 
L 406.818727 13.368547 
L 407.04922 13.368547 
L 407.04922 13.59904 
L 407.279712 13.59904 
L 407.510204 13.59904 
L 407.510204 13.829532 
L 407.740696 13.829532 
L 407.971188 13.829532 
L 408.201681 13.829532 
L 408.201681 14.060024 
L 408.432173 14.060024 
L 408.662665 14.060024 
L 408.662665 14.290516 
L 408.893157 14.290516 
L 409.123649 14.290516 
L 409.354142 14.290516 
L 409.354142 14.521008 
L 409.584634 14.521008 
L 409.815126 14.521008 
L 409.815126 14.751501 
L 410.045618 14.751501 
L 410.27611 14.751501 
L 410.506603 14.751501 
L 410.506603 14.981993 
L 410.737095 14.981993 
L 410.967587 14.981993 
L 410.967587 15.212485 
L 411.198079 15.212485 
L 411.428571 15.212485 
L 411.659064 15.212485 
L 411.659064 15.442977 
L 411.889556 15.442977 
L 412.120048 15.442977 
L 412.120048 15.673469 
L 412.35054 15.673469 
L 412.581032 15.673469 
L 412.811525 15.673469 
L 412.811525 15.903962 
L 413.042017 15.903962 
L 413.272509 15.903962 
L 413.503001 15.903962 
L 413.503001 16.134454 
L 413.733493 16.134454 
L 413.963986 16.134454 
L 413.963986 16.364946 
L 414.194478 16.364946 
L 414.42497 16.364946 
L 414.655462 16.364946 
L 414.655462 16.595438 
L 414.885954 16.595438 
L 415.116447 16.595438 
L 415.116447 16.82593 
L 415.346939 16.82593 
L 415.577431 16.82593 
L 415.807923 16.82593 
L 415.807923 17.056423 
L 416.038415 17.056423 
L 416.268908 17.056423 
L 416.268908 17.286915 
L 416.4994 17.286915 
L 416.729892 17.286915 
L 416.960384 17.286915 
L 416.960384 17.517407 
L 417.190876 17.517407 
L 417.421369 17.517407 
L 417.421369 17.747899 
L 417.651861 17.747899 
L 417.882353 17.747899 
L 418.112845 17.747899 
L 418.112845 17.978391 
L 418.343337 17.978391 
L 418.57383 17.978391 
L 418.804322 17.978391 
L 418.804322 18.208884 
L 419.034814 18.208884 
L 419.265306 18.208884 
L 419.265306 18.439376 
L 419.495798 18.439376 
L 419.726291 18.439376 
L 419.956783 18.439376 
L 419.956783 18.669868 
L 420.187275 18.669868 
L 420.417767 18.669868 
L 420.417767 18.90036 
L 420.648259 18.90036 
L 420.878752 18.90036 
L 421.109244 18.90036 
L 421.109244 19.130852 
L 421.339736 19.130852 
L 421.570228 19.130852 
L 421.570228 19.361345 
L 421.80072 19.361345 
L 422.031212 19.361345 
L 422.261705 19.361345 
L 422.261705 19.591837 
L 422.492197 19.591837 
L 422.722689 19.591837 
L 422.722689 19.822329 
L 422.953181 19.822329 
L 423.183673 19.822329 
L 423.414166 19.822329 
L 423.414166 20.052821 
L 423.644658 20.052821 
L 423.87515 20.052821 
L 424.105642 20.052821 
L 424.105642 20.283313 
L 424.336134 20.283313 
L 424.566627 20.283313 
L 424.566627 20.513806 
L 424.797119 20.513806 
L 425.027611 20.513806 
L 425.258103 20.513806 
L 425.258103 20.744298 
L 425.488595 20.744298 
L 425.719088 20.744298 
L 425.719088 20.97479 
L 425.94958 20.97479 
L 426.180072 20.97479 
L 426.410564 20.97479 
L 426.410564 21.205282 
L 426.641056 21.205282 
L 426.871549 21.205282 
L 426.871549 21.435774 
L 427.102041 21.435774 
L 427.332533 21.435774 
L 427.563025 21.435774 
L 427.563025 21.666267 
L 427.793517 21.666267 
L 428.02401 21.666267 
L 428.02401 21.896759 
L 428.254502 21.896759 
L 428.484994 21.896759 
L 428.715486 21.896759 
L 428.715486 22.127251 
L 428.945978 22.127251 
L 429.176471 22.127251 
L 429.176471 22.357743 
L 429.406963 22.357743 
L 429.637455 22.357743 
L 429.867947 22.357743 
L 429.867947 22.588235 
L 430.098439 22.588235 
L 430.328932 22.588235 
L 430.559424 22.588235 
L 430.559424 22.818727 
L 430.789916 22.818727 
L 431.020408 22.818727 
L 431.020408 23.04922 
L 431.2509 23.04922 
L 431.481393 23.04922 
L 431.711885 23.04922 
L 431.711885 23.279712 
L 431.942377 23.279712 
L 432.172869 23.279712 
L 432.172869 23.510204 
L 432.403361 23.510204 
L 432.633854 23.510204 
L 432.864346 23.510204 
L 432.864346 23.740696 
L 433.094838 23.740696 
L 433.32533 23.740696 
L 433.32533 23.971188 
L 433.555822 23.971188 
L 433.786315 23.971188 
L 434.016807 23.971188 
L 434.016807 24.201681 
L 434.247299 24.201681 
L 434.477791 24.201681 
L 434.477791 24.432173 
L 434.708283 24.432173 
L 434.938776 24.432173 
L 435.169268 24.432173 
L 435.169268 24.662665 
L 435.39976 24.662665 
L 435.630252 24.662665 
L 435.860744 24.662665 
L 435.860744 24.893157 
L 436.091236 24.893157 
L 436.321729 24.893157 
L 436.321729 25.123649 
L 436.552221 25.123649 
L 436.782713 25.123649 
L 437.013205 25.123649 
L 437.013205 25.354142 
L 437.243697 25.354142 
L 437.47419 25.354142 
L 437.47419 25.584634 
L 437.704682 25.584634 
L 437.935174 25.584634 
L 438.165666 25.584634 
L 438.165666 25.815126 
L 438.396158 25.815126 
L 438.626651 25.815126 
L 438.626651 26.045618 
L 438.857143 26.045618 
L 439.087635 26.045618 
L 439.318127 26.045618 
L 439.318127 26.27611 
L 439.548619 26.27611 
L 439.779112 26.27611 
L 439.779112 26.506603 
L 440.009604 26.506603 
L 440.240096 26.506603 
L 440.470588 26.506603 
L 440.470588 26.737095 
L 440.70108 26.737095 
L 440.931573 26.737095 
L 441.162065 26.737095 
L 441.162065 26.967587 
L 441.392557 26.967587 
L 441.623049 26.967587 
L 441.623049 27.198079 
L 441.853541 27.198079 
L 442.084034 27.198079 
L 442.314526 27.198079 
L 442.314526 27.428571 
L 442.545018 27.428571 
L 442.77551 27.428571 
L 442.77551 27.659064 
L 443.006002 27.659064 
L 443.236495 27.659064 
L 443.466987 27.659064 
L 443.466987 27.889556 
L 443.697479 27.889556 
L 443.927971 27.889556 
L 443.927971 28.120048 
L 444.158463 28.120048 
L 444.388956 28.120048 
L 444.619448 28.120048 
L 444.619448 28.35054 
L 444.84994 28.35054 
L 445.080432 28.35054 
L 445.080432 28.581032 
L 445.310924 28.581032 
L 445.541417 28.581032 
L 445.771909 28.581032 
L 445.771909 28.811525 
L 446.002401 28.811525 
L 446.232893 28.811525 
L 446.232893 29.042017 
L 446.463385 29.042017 
L 446.693878 29.042017 
L 446.92437 29.042017 
L 446.92437 29.272509 
L 447.154862 29.272509 
L 447.385354 29.272509 
L 447.615846 29.272509 
L 447.615846 29.503001 
L 447.846339 29.503001 
L 448.076831 29.503001 
L 448.076831 29.733493 
L 448.307323 29.733493 
L 448.537815 29.733493 
L 448.768307 29.733493 
L 448.768307 29.963986 
L 448.9988 29.963986 
L 449.229292 29.963986 
L 449.229292 30.194478 
L 449.459784 30.194478 
L 449.690276 30.194478 
L 449.920768 30.194478 
L 449.920768 30.42497 
L 450.151261 30.42497 
L 450.381753 30.42497 
L 450.381753 30.655462 
L 450.612245 30.655462 
L 450.842737 30.655462 
L 451.073229 30.655462 
L 451.073229 30.885954 
L 451.303721 30.885954 
L 451.534214 30.885954 
L 451.534214 31.116447 
L 451.764706 31.116447 
L 451.995198 31.116447 
L 452.22569 31.116447 
L 452.22569 31.346939 
L 452.456182 31.346939 
L 452.686675 31.346939 
L 452.917167 31.346939 
L 452.917167 31.577431 
L 453.147659 31.577431 
L 453.378151 31.577431 
L 453.378151 31.807923 
L 453.608643 31.807923 
L 453.839136 31.807923 
L 454.069628 31.807923 
L 454.069628 32.038415 
L 454.30012 32.038415 
L 454.530612 32.038415 
L 454.530612 32.268908 
L 454.761104 32.268908 
L 454.991597 32.268908 
L 455.222089 32.268908 
L 455.222089 32.4994 
L 455.452581 32.4994 
L 455.683073 32.4994 
L 455.683073 32.729892 
L 455.913565 32.729892 
L 456.144058 32.729892 
L 456.37455 32.729892 
L 456.37455 32.960384 
L 456.605042 32.960384 
L 456.835534 32.960384 
L 456.835534 33.190876 
L 457.066026 33.190876 
L 457.296519 33.190876 
L 457.527011 33.190876 
L 457.527011 33.421369 
L 457.757503 33.421369 
L 457.987995 33.421369 
L 458.218487 33.421369 
L 458.218487 33.651861 
L 458.44898 33.651861 
L 458.679472 33.651861 
L 458.679472 33.882353 
L 458.909964 33.882353 
L 459.140456 33.882353 
L 459.370948 33.882353 
L 459.370948 34.112845 
L 459.601441 34.112845 
L 459.831933 34.112845 
L 459.831933 34.343337 
L 460.062425 34.343337 
L 460.292917 34.343337 
L 460.523409 34.343337 
L 460.523409 34.57383 
L 460.753902 34.57383 
L 460.984394 34.57383 
L 460.984394 34.804322 
L 461.214886 34.804322 
L 461.445378 34.804322 
L 461.67587 34.804322 
L 461.67587 35.034814 
L 461.906363 35.034814 
L 462.136855 35.034814 
L 462.136855 35.265306 
L 462.367347 35.265306 
L 462.597839 35.265306 
L 462.828331 35.265306 
L 462.828331 35.495798 
L 463.058824 35.495798 
L 463.289316 35.495798 
L 463.289316 35.726291 
L 463.519808 35.726291 
L 463.7503 35.726291 
L 463.980792 35.726291 
L 463.980792 35.956783 
L 464.211285 35.956783 
L 464.441777 35.956783 
L 464.672269 35.956783 
L 464.672269 36.187275 
L 464.902761 36.187275 
L 465.133253 36.187275 
L 465.133253 36.417767 
L 465.363745 36.417767 
L 465.594238 36.417767 
L 465.82473 36.417767 
L 465.82473 36.648259 
L 466.055222 36.648259 
L 466.285714 36.648259 
L 466.285714 36.878752 
L 466.516206 36.878752 
L 466.746699 36.878752 
L 466.977191 36.878752 
L 466.977191 37.109244 
L 467.207683 37.109244 
L 467.438175 37.109244 
L 467.438175 37.339736 
L 467.668667 37.339736 
L 467.89916 37.339736 
L 468.129652 37.339736 
L 468.129652 37.570228 
L 468.360144 37.570228 
L 468.590636 37.570228 
L 468.590636 37.80072 
L 468.821128 37.80072 
L 469.051621 37.80072 
L 469.282113 37.80072 
L 469.282113 38.031212 
L 469.512605 38.031212 
L 469.743097 38.031212 
L 469.973589 38.031212 
L 469.973589 38.261705 
L 470.204082 38.261705 
L 470.434574 38.261705 
L 470.434574 38.492197 
L 470.665066 38.492197 
L 470.895558 38.492197 
L 471.12605 38.492197 
L 471.12605 38.722689 
L 471.356543 38.722689 
L 471.587035 38.722689 
L 471.587035 38.953181 
L 471.817527 38.953181 
L 472.048019 38.953181 
L 472.278511 38.953181 
L 472.278511 39.183673 
L 472.509004 39.183673 
L 472.739496 39.183673 
L 472.739496 39.414166 
L 472.969988 39.414166 
L 473.20048 39.414166 
L 473.430972 39.414166 
L 473.430972 39.644658 
L 473.661465 39.644658 
L 473.891957 39.644658 
L 473.891957 39.87515 
L 474.122449 39.87515 
L 474.352941 39.87515 
L 474.583433 39.87515 
L 474.583433 40.105642 
L 474.813926 40.105642 
L 475.044418 40.105642 
L 475.27491 40.105642 
L 475.27491 40.336134 
L 475.505402 40.336134 
L 475.735894 40.336134 
L 475.735894 40.566627 
L 475.966387 40.566627 
L 476.196879 40.566627 
L 476.427371 40.566627 
L 476.427371 40.797119 
L 476.657863 40.797119 
L 476.888355 40.797119 
L 476.888355 41.027611 
L 477.118848 41.027611 
L 477.34934 41.027611 
L 477.579832 41.027611 
L 477.579832 41.258103 
L 477.810324 41.258103 
L 478.040816 41.258103 
L 478.040816 41.488595 
L 478.271309 41.488595 
L 478.501801 41.488595 
L 478.732293 41.488595 
L 478.732293 41.719088 
L 478.962785 41.719088 
L 479.193277 41.719088 
L 479.193277 41.94958 
L 479.42377 41.94958 
L 479.654262 41.94958 
L 479.884754 41.94958 
L 479.884754 42.180072 
L 480.115246 42.180072 
L 480.345738 42.180072 
L 480.57623 42.180072 
L 480.57623 42.410564 
L 480.806723 42.410564 
L 481.037215 42.410564 
L 481.037215 42.641056 
L 481.267707 42.641056 
L 481.498199 42.641056 
L 481.728691 42.641056 
L 481.728691 42.871549 
L 481.959184 42.871549 
L 482.189676 42.871549 
L 482.189676 43.102041 
L 482.420168 43.102041 
L 482.65066 43.102041 
L 482.881152 43.102041 
L 482.881152 43.332533 
L 483.111645 43.332533 
L 483.342137 43.332533 
L 483.342137 43.563025 
L 483.572629 43.563025 
L 483.803121 43.563025 
L 484.033613 43.563025 
L 484.033613 43.793517 
L 484.264106 43.793517 
L 484.494598 43.793517 
L 484.494598 44.02401 
L 484.72509 44.02401 
L 484.955582 44.02401 
L 485.186074 44.02401 
L 485.186074 44.254502 
L 485.416567 44.254502 
L 485.647059 44.254502 
L 485.647059 44.484994 
L 485.877551 44.484994 
L 486.108043 44.484994 
L 486.338535 44.484994 
L 486.338535 44.715486 
L 486.569028 44.715486 
L 486.79952 44.715486 
L 487.030012 44.715486 
L 487.030012 44.945978 
L 487.260504 44.945978 
L 487.490996 44.945978 
L 487.490996 45.176471 
L 487.721489 45.176471 
L 487.951981 45.176471 
L 488.182473 45.176471 
L 488.182473 45.406963 
L 488.412965 45.406963 
L 488.643457 45.406963 
L 488.643457 45.637455 
L 488.87395 45.637455 
L 489.104442 45.637455 
L 489.334934 45.637455 
L 489.334934 45.867947 
L 489.565426 45.867947 
L 489.795918 45.867947 
L 489.795918 46.098439 
L 490.026411 46.098439 
L 490.256903 46.098439 
L 490.487395 46.098439 
L 490.487395 46.328932 
L 490.717887 46.328932 
L 490.948379 46.328932 
L 490.948379 46.559424 
L 491.178872 46.559424 
L 491.409364 46.559424 
L 491.639856 46.559424 
L 491.639856 46.789916 
L 491.870348 46.789916 
L 492.10084 46.789916 
L 492.331333 46.789916 
L 492.331333 47.020408 
L 492.561825 47.020408 
L 492.792317 47.020408 
L 492.792317 47.2509 
L 493.022809 47.2509 
L 493.253301 47.2509 
L 493.483794 47.2509 
L 493.483794 47.481393 
L 493.714286 47.481393 
L 493.944778 47.481393 
L 493.944778 47.711885 
L 494.17527 47.711885 
L 494.405762 47.711885 
L 494.636255 47.711885 
L 494.636255 47.942377 
L 494.866747 47.942377 
L 495.097239 47.942377 
L 495.097239 48.172869 
L 495.327731 48.172869 
L 495.558223 48.172869 
L 495.788715 48.172869 
L 495.788715 48.403361 
L 496.019208 48.403361 
L 496.2497 48.403361 
L 496.2497 48.633854 
L 496.480192 48.633854 
L 496.710684 48.633854 
L 496.941176 48.633854 
L 496.941176 48.864346 
L 497.171669 48.864346 
L 497.402161 48.864346 
L 497.632653 48.864346 
L 497.632653 49.094838 
L 497.863145 49.094838 
L 498.093637 49.094838 
L 498.093637 49.32533 
L 498.32413 49.32533 
L 498.554622 49.32533 
L 498.785114 49.32533 
L 498.785114 49.555822 
L 499.015606 49.555822 
L 499.246098 49.555822 
L 499.246098 49.786315 
L 499.476591 49.786315 
L 499.707083 49.786315 
L 499.937575 49.786315 
L 499.937575 50.016807 
L 500.168067 50.016807 
L 500.398559 50.016807 
L 500.398559 50.247299 
L 500.629052 50.247299 
L 500.859544 50.247299 
L 501.090036 50.247299 
L 501.090036 50.477791 
L 501.320528 50.477791 
L 501.55102 50.477791 
L 501.55102 50.708283 
L 501.781513 50.708283 
L 502.012005 50.708283 
L 502.242497 50.708283 
L 502.242497 50.938776 
L 502.472989 50.938776 
L 502.703481 50.938776 
L 502.703481 51.169268 
L 502.933974 51.169268 
L 503.164466 51.169268 
L 503.394958 51.169268 
L 503.394958 51.39976 
L 503.62545 51.39976 
L 503.855942 51.39976 
L 504.086435 51.39976 
L 504.086435 51.630252 
L 504.316927 51.630252 
L 504.547419 51.630252 
L 504.547419 51.860744 
L 504.777911 51.860744 
L 505.008403 51.860744 
L 505.238896 51.860744 
L 505.238896 52.091236 
L 505.469388 52.091236 
L 505.69988 52.091236 
L 505.69988 52.321729 
L 505.930372 52.321729 
L 506.160864 52.321729 
L 506.391357 52.321729 
L 506.391357 52.552221 
L 506.621849 52.552221 
L 506.852341 52.552221 
L 506.852341 52.782713 
L 507.082833 52.782713 
L 507.313325 52.782713 
L 507.543818 52.782713 
L 507.543818 53.013205 
L 507.77431 53.013205 
L 508.004802 53.013205 
L 508.004802 53.243697 
L 508.235294 53.243697 
L 508.465786 53.243697 
L 508.696279 53.243697 
L 508.696279 53.47419 
L 508.926771 53.47419 
L 509.157263 53.47419 
L 509.387755 53.47419 
L 509.387755 53.704682 
L 509.618247 53.704682 
L 509.848739 53.704682 
L 509.848739 53.935174 
L 510.079232 53.935174 
L 510.309724 53.935174 
L 510.540216 53.935174 
L 510.540216 54.165666 
L 510.770708 54.165666 
L 511.0012 54.165666 
L 511.0012 54.396158 
L 511.231693 54.396158 
L 511.462185 54.396158 
L 511.692677 54.396158 
L 511.692677 54.626651 
L 511.923169 54.626651 
L 512.153661 54.626651 
L 512.153661 54.857143 
L 512.384154 54.857143 
L 512.614646 54.857143 
L 512.845138 54.857143 
L 512.845138 55.087635 
L 513.07563 55.087635 
L 513.306122 55.087635 
L 513.306122 55.318127 
L 513.536615 55.318127 
L 513.767107 55.318127 
L 513.997599 55.318127 
L 513.997599 55.548619 
L 514.228091 55.548619 
L 514.458583 55.548619 
L 514.689076 55.548619 
L 514.689076 55.779112 
L 514.919568 55.779112 
L 515.15006 55.779112 
L 515.15006 56.009604 
L 515.380552 56.009604 
L 515.611044 56.009604 
L 515.841537 56.009604 
L 515.841537 56.240096 
L 516.072029 56.240096 
L 516.302521 56.240096 
L 516.302521 56.470588 
L 516.533013 56.470588 
L 516.763505 56.470588 
L 516.993998 56.470588 
L 516.993998 56.70108 
L 517.22449 56.70108 
L 517.454982 56.70108 
L 517.454982 56.931573 
L 517.685474 56.931573 
L 517.915966 56.931573 
L 518.146459 56.931573 
L 518.146459 57.162065 
L 518.376951 57.162065 
L 518.607443 57.162065 
L 518.607443 57.392557 
L 518.837935 57.392557 
L 519.068427 57.392557 
L 519.29892 57.392557 
L 519.29892 57.623049 
L 519.529412 57.623049 
L 519.759904 57.623049 
L 519.759904 57.853541 
L 519.990396 57.853541 
L 520.220888 57.853541 
L 520.451381 57.853541 
L 520.451381 58.084034 
L 520.681873 58.084034 
L 520.912365 58.084034 
L 521.142857 58.084034 
L 521.142857 58.314526 
L 521.373349 58.314526 
L 521.603842 58.314526 
L 521.603842 58.545018 
L 521.834334 58.545018 
L 522.064826 58.545018 
L 522.295318 58.545018 
L 522.295318 58.77551 
L 522.52581 58.77551 
L 522.756303 58.77551 
L 522.756303 59.006002 
L 522.986795 59.006002 
L 523.217287 59.006002 
L 523.447779 59.006002 
L 523.447779 59.236495 
L 523.678271 59.236495 
L 523.908764 59.236495 
L 523.908764 59.466987 
L 524.139256 59.466987 
L 524.369748 59.466987 
L 524.60024 59.466987 
L 524.60024 59.697479 
L 524.830732 59.697479 
L 525.061224 59.697479 
L 525.061224 59.927971 
L 525.291717 59.927971 
L 525.522209 59.927971 
L 525.752701 59.927971 
L 525.752701 60.158463 
L 525.983193 60.158463 
L 526.213685 60.158463 
L 526.444178 60.158463 
L 526.444178 60.388956 
L 526.67467 60.388956 
L 526.905162 60.388956 
L 526.905162 60.619448 
L 527.135654 60.619448 
L 527.366146 60.619448 
L 527.596639 60.619448 
L 527.596639 60.84994 
L 527.827131 60.84994 
L 528.057623 60.84994 
L 528.057623 61.080432 
L 528.288115 61.080432 
L 528.518607 61.080432 
L 528.7491 61.080432 
L 528.7491 61.310924 
L 528.979592 61.310924 
L 529.210084 61.310924 
L 529.210084 61.541417 
L 529.440576 61.541417 
L 529.671068 61.541417 
L 529.901561 61.541417 
L 529.901561 61.771909 
L 530.132053 61.771909 
L 530.362545 61.771909 
L 530.362545 62.002401 
L 530.593037 62.002401 
L 530.823529 62.002401 
L 531.054022 62.002401 
L 531.054022 62.232893 
L 531.284514 62.232893 
L 531.515006 62.232893 
L 531.745498 62.232893 
L 531.745498 62.463385 
L 531.97599 62.463385 
L 532.206483 62.463385 
L 532.206483 62.693878 
L 532.436975 62.693878 
L 532.667467 62.693878 
L 532.897959 62.693878 
L 532.897959 62.92437 
L 533.128451 62.92437 
L 533.358944 62.92437 
L 533.358944 63.154862 
L 533.589436 63.154862 
L 533.819928 63.154862 
L 534.05042 63.154862 
L 534.05042 63.385354 
L 534.280912 63.385354 
L 534.511405 63.385354 
L 534.511405 63.615846 
L 534.741897 63.615846 
L 534.972389 63.615846 
L 535.202881 63.615846 
L 535.202881 63.846339 
L 535.433373 63.846339 
L 535.663866 63.846339 
L 535.663866 64.076831 
L 535.894358 64.076831 
L 536.12485 64.076831 
L 536.355342 64.076831 
L 536.355342 64.307323 
L 536.585834 64.307323 
L 536.816327 64.307323 
L 536.816327 64.537815 
L 537.046819 64.537815 
L 537.277311 64.537815 
L 537.507803 64.537815 
L 537.507803 64.768307 
L 537.738295 64.768307 
L 537.968788 64.768307 
L 538.19928 64.768307 
L 538.19928 64.9988 
L 538.429772 64.9988 
L 538.660264 64.9988 
L 538.660264 65.229292 
L 538.890756 65.229292 
L 539.121248 65.229292 
L 539.351741 65.229292 
L 539.351741 65.459784 
L 539.582233 65.459784 
L 539.812725 65.459784 
L 539.812725 65.690276 
L 540.043217 65.690276 
L 540.273709 65.690276 
L 540.504202 65.690276 
L 540.504202 65.920768 
L 540.734694 65.920768 
L 540.965186 65.920768 
L 540.965186 66.151261 
L 541.195678 66.151261 
L 541.42617 66.151261 
L 541.656663 66.151261 
L 541.656663 66.381753 
L 541.887155 66.381753 
L 542.117647 66.381753 
L 542.117647 66.612245 
L 542.348139 66.612245 
L 542.578631 66.612245 
L 542.809124 66.612245 
L 542.809124 66.842737 
L 543.039616 66.842737 
L 543.270108 66.842737 
L 543.5006 66.842737 
L 543.5006 67.073229 
L 543.731092 67.073229 
L 543.961585 67.073229 
L 543.961585 67.303721 
L 544.192077 67.303721 
L 544.422569 67.303721 
L 544.653061 67.303721 
L 544.653061 67.534214 
L 544.883553 67.534214 
L 545.114046 67.534214 
L 545.114046 67.764706 
L 545.344538 67.764706 
L 545.57503 67.764706 
L 545.805522 67.764706 
L 545.805522 67.995198 
L 546.036014 67.995198 
L 546.266507 67.995198 
L 546.266507 68.22569 
L 546.496999 68.22569 
L 546.727491 68.22569 
L 546.957983 68.22569 
L 546.957983 68.456182 
L 547.188475 68.456182 
L 547.418968 68.456182 
L 547.418968 68.686675 
L 547.64946 68.686675 
L 547.879952 68.686675 
L 548.110444 68.686675 
L 548.110444 68.917167 
L 548.340936 68.917167 
L 548.571429 68.917167 
L 548.801921 68.917167 
L 548.801921 69.147659 
L 549.032413 69.147659 
L 549.262905 69.147659 
L 549.262905 69.378151 
L 549.493397 69.378151 
L 549.72389 69.378151 
L 549.954382 69.378151 
L 549.954382 69.608643 
L 550.184874 69.608643 
L 550.415366 69.608643 
L 550.415366 69.839136 
L 550.645858 69.839136 
L 550.876351 69.839136 
L 551.106843 69.839136 
L 551.106843 70.069628 
L 551.337335 70.069628 
L 551.567827 70.069628 
L 551.567827 70.30012 
z
" clip-path="url(#pdd38380814)" style="fill: #dfebf7; fill-opacity: 0.8"/>
    <path clip-path="url(#pdd38380814)" style="fill: #d9e8f5; fill-opacity: 0.8"/>
    <path clip-path="url(#pdd38380814)" style="fill: #d5e5f4; fill-opacity: 0.8"/>
    <path clip-path="url(#pdd38380814)" style="fill: #d0e1f2; fill-opacity: 0.8"/>
    <path clip-path="url(#pdd38380814)" style="fill: #cadef0; fill-opacity: 0.8"/>
    <path clip-path="url(#pdd38380814)" style="fill: #c4daee; fill-opacity: 0.8"/>
    <path clip-path="url(#pdd38380814)" style="fill: #bcd7eb; fill-opacity: 0.8"/>
    <path clip-path="url(#pdd38380814)" style="fill: #b3d3e8; fill-opacity: 0.8"/>
    <path clip-path="url(#pdd38380814)" style="fill: #aacfe5; fill-opacity: 0.8"/>
    <path clip-path="url(#pdd38380814)" style="fill: #a1cbe2; fill-opacity: 0.8"/>
    <path clip-path="url(#pdd38380814)" style="fill: #97c6df; fill-opacity: 0.8"/>
    <path clip-path="url(#pdd38380814)" style="fill: #8cc0dd; fill-opacity: 0.8"/>
    <path clip-path="url(#pdd38380814)" style="fill: #81badb; fill-opacity: 0.8"/>
    <path clip-path="url(#pdd38380814)" style="fill: #75b4d8; fill-opacity: 0.8"/>
    <path clip-path="url(#pdd38380814)" style="fill: #6aaed6; fill-opacity: 0.8"/>
    <path clip-path="url(#pdd38380814)" style="fill: #63a8d3; fill-opacity: 0.8"/>
    <path clip-path="url(#pdd38380814)" style="fill: #5aa2cf; fill-opacity: 0.8"/>
    <path clip-path="url(#pdd38380814)" style="fill: #519ccc; fill-opacity: 0.8"/>
    <path clip-path="url(#pdd38380814)" style="fill: #4896c8; fill-opacity: 0.8"/>
    <path clip-path="url(#pdd38380814)" style="fill: #3f8fc5; fill-opacity: 0.8"/>
    <path clip-path="url(#pdd38380814)" style="fill: #3888c1; fill-opacity: 0.8"/>
    <path clip-path="url(#pdd38380814)" style="fill: #3181bd; fill-opacity: 0.8"/>
    <path clip-path="url(#pdd38380814)" style="fill: #2a7ab9; fill-opacity: 0.8"/>
    <path clip-path="url(#pdd38380814)" style="fill: #2272b6; fill-opacity: 0.8"/>
    <path clip-path="url(#pdd38380814)" style="fill: #1c6bb0; fill-opacity: 0.8"/>
    <path clip-path="url(#pdd38380814)" style="fill: #1764ab; fill-opacity: 0.8"/>
    <path clip-path="url(#pdd38380814)" style="fill: #125da6; fill-opacity: 0.8"/>
    <path clip-path="url(#pdd38380814)" style="fill: #0d57a1; fill-opacity: 0.8"/>
    <path clip-path="url(#pdd38380814)" style="fill: #08509b; fill-opacity: 0.8"/>
    <path clip-path="url(#pdd38380814)" style="fill: #084990; fill-opacity: 0.8"/>
    <path clip-path="url(#pdd38380814)" style="fill: #084285; fill-opacity: 0.8"/>
    <path clip-path="url(#pdd38380814)" style="fill: #083a7a; fill-opacity: 0.8"/>
    <path clip-path="url(#pdd38380814)" style="fill: #083370; fill-opacity: 0.8"/>
   </g>
   <g id="QuadContourSet_2">
    <path clip-path="url(#pdd38380814)" style="fill: none; stroke: #000000; stroke-opacity: 0.9; stroke-width: 0.9"/>
    <path clip-path="url(#pdd38380814)" style="fill: none; stroke: #000000; stroke-opacity: 0.9; stroke-width: 0.9"/>
    <path clip-path="url(#pdd38380814)" style="fill: none; stroke: #000000; stroke-opacity: 0.9; stroke-width: 0.9"/>
    <path clip-path="url(#pdd38380814)" style="fill: none; stroke: #000000; stroke-opacity: 0.9; stroke-width: 0.9"/>
    <path clip-path="url(#pdd38380814)" style="fill: none; stroke: #000000; stroke-opacity: 0.9; stroke-width: 0.9"/>
    <path clip-path="url(#pdd38380814)" style="fill: none; stroke: #000000; stroke-opacity: 0.9; stroke-width: 0.9"/>
    <path clip-path="url(#pdd38380814)" style="fill: none; stroke: #000000; stroke-opacity: 0.9; stroke-width: 0.9"/>
    <path clip-path="url(#pdd38380814)" style="fill: none; stroke: #000000; stroke-opacity: 0.9; stroke-width: 0.9"/>
    <path clip-path="url(#pdd38380814)" style="fill: none; stroke: #000000; stroke-opacity: 0.9; stroke-width: 0.9"/>
    <path clip-path="url(#pdd38380814)" style="fill: none; stroke: #000000; stroke-opacity: 0.9; stroke-width: 0.9"/>
    <path clip-path="url(#pdd38380814)" style="fill: none; stroke: #000000; stroke-opacity: 0.9; stroke-width: 0.9"/>
    <path clip-path="url(#pdd38380814)" style="fill: none; stroke: #000000; stroke-opacity: 0.9; stroke-width: 0.9"/>
    <path clip-path="url(#pdd38380814)" style="fill: none; stroke: #000000; stroke-opacity: 0.9; stroke-width: 0.9"/>
    <path clip-path="url(#pdd38380814)" style="fill: none; stroke: #000000; stroke-opacity: 0.9; stroke-width: 0.9"/>
    <path clip-path="url(#pdd38380814)" style="fill: none; stroke: #000000; stroke-opacity: 0.9; stroke-width: 0.9"/>
    <path clip-path="url(#pdd38380814)" style="fill: none; stroke: #000000; stroke-opacity: 0.9; stroke-width: 0.9"/>
    <path clip-path="url(#pdd38380814)" style="fill: none; stroke: #000000; stroke-opacity: 0.9; stroke-width: 0.9"/>
    <path clip-path="url(#pdd38380814)" style="fill: none; stroke: #000000; stroke-opacity: 0.9; stroke-width: 0.9"/>
    <path clip-path="url(#pdd38380814)" style="fill: none; stroke: #000000; stroke-opacity: 0.9; stroke-width: 0.9"/>
    <path clip-path="url(#pdd38380814)" style="fill: none; stroke: #000000; stroke-opacity: 0.9; stroke-width: 0.9"/>
    <path clip-path="url(#pdd38380814)" style="fill: none; stroke: #000000; stroke-opacity: 0.9; stroke-width: 0.9"/>
    <path clip-path="url(#pdd38380814)" style="fill: none; stroke: #000000; stroke-opacity: 0.9; stroke-width: 0.9"/>
    <path clip-path="url(#pdd38380814)" style="fill: none; stroke: #000000; stroke-opacity: 0.9; stroke-width: 0.9"/>
    <path clip-path="url(#pdd38380814)" style="fill: none; stroke: #000000; stroke-opacity: 0.9; stroke-width: 0.9"/>
    <path clip-path="url(#pdd38380814)" style="fill: none; stroke: #000000; stroke-opacity: 0.9; stroke-width: 0.9"/>
    <path clip-path="url(#pdd38380814)" style="fill: none; stroke: #000000; stroke-opacity: 0.9; stroke-width: 0.9"/>
    <path clip-path="url(#pdd38380814)" style="fill: none; stroke: #000000; stroke-opacity: 0.9; stroke-width: 0.9"/>
    <path clip-path="url(#pdd38380814)" style="fill: none; stroke: #000000; stroke-opacity: 0.9; stroke-width: 0.9"/>
    <path clip-path="url(#pdd38380814)" style="fill: none; stroke: #000000; stroke-opacity: 0.9; stroke-width: 0.9"/>
    <path clip-path="url(#pdd38380814)" style="fill: none; stroke: #000000; stroke-opacity: 0.9; stroke-width: 0.9"/>
    <path clip-path="url(#pdd38380814)" style="fill: none; stroke: #000000; stroke-opacity: 0.9; stroke-width: 0.9"/>
    <path clip-path="url(#pdd38380814)" style="fill: none; stroke: #000000; stroke-opacity: 0.9; stroke-width: 0.9"/>
    <path clip-path="url(#pdd38380814)" style="fill: none; stroke: #000000; stroke-opacity: 0.9; stroke-width: 0.9"/>
    <path clip-path="url(#pdd38380814)" style="fill: none; stroke: #000000; stroke-opacity: 0.9; stroke-width: 0.9"/>
    <path clip-path="url(#pdd38380814)" style="fill: none; stroke: #000000; stroke-opacity: 0.9; stroke-width: 0.9"/>
    <path clip-path="url(#pdd38380814)" style="fill: none; stroke: #000000; stroke-opacity: 0.9; stroke-width: 0.9"/>
    <path clip-path="url(#pdd38380814)" style="fill: none; stroke: #000000; stroke-opacity: 0.9; stroke-width: 0.9"/>
    <path clip-path="url(#pdd38380814)" style="fill: none; stroke: #000000; stroke-opacity: 0.9; stroke-width: 0.9"/>
   </g>
  </g>
 </g>
 <defs>
  <clipPath id="pdd38380814">
   <rect x="0" y="0" width="576" height="576"/>
  </clipPath>
 </defs>
</svg>
