<?xml version="1.0" encoding="utf-8" standalone="no"?>
<!DOCTYPE svg PUBLIC "-//W3C//DTD SVG 1.1//EN"
  "http://www.w3.org/Graphics/SVG/1.1/DTD/svg11.dtd">
<svg xmlns:xlink="http://www.w3.org/1999/xlink" width="576pt" height="820.842596pt" viewBox="0 0 576 820.842596" xmlns="http://www.w3.org/2000/svg" version="1.1">
 <metadata>
  <rdf:RDF xmlns:dc="http://purl.org/dc/elements/1.1/" xmlns:cc="http://creativecommons.org/ns#" xmlns:rdf="http://www.w3.org/1999/02/22-rdf-syntax-ns#">
   <cc:Work>
    <dc:type rdf:resource="http://purl.org/dc/dcmitype/StillImage"/>
    <dc:date>2025-07-25T22:45:29.554899</dc:date>
    <dc:format>image/svg+xml</dc:format>
    <dc:creator>
     <cc:Agent>
      <dc:title>Matplotlib v3.10.3, https://matplotlib.org/</dc:title>
     </cc:Agent>
    </dc:creator>
   </cc:Work>
  </rdf:RDF>
 </metadata>
 <defs>
  <style type="text/css">*{stroke-linejoin: round; stroke-linecap: butt}</style>
 </defs>
 <g id="figure_1">
  <g id="patch_1">
   <path d="M 0 820.842596 
L 576 820.842596 
L 576 0 
L 0 0 
L 0 820.842596 
z
" style="fill: none; opacity: 0"/>
  </g>
  <g id="axes_1">
   <g id="QuadContourSet_1">
    <path d="M 3.291429 820.842596 
L 6.582857 820.842596 
L 9.874286 820.842596 
L 13.165714 820.842596 
L 16.457143 820.842596 
L 19.748571 820.842596 
L 23.04 820.842596 
L 26.331429 820.842596 
L 29.622857 820.842596 
L 32.914286 820.842596 
L 36.205714 820.842596 
L 39.497143 820.842596 
L 42.788571 820.842596 
L 46.08 820.842596 
L 49.371429 820.842596 
L 52.662857 820.842596 
L 55.954286 820.842596 
L 59.245714 820.842596 
L 62.537143 820.842596 
L 65.828571 820.842596 
L 69.12 820.842596 
L 72.411429 820.842596 
L 75.702857 820.842596 
L 78.994286 820.842596 
L 82.285714 820.842596 
L 85.577143 820.842596 
L 88.868571 820.842596 
L 92.16 820.842596 
L 95.451429 820.842596 
L 98.742857 820.842596 
L 102.034286 820.842596 
L 105.325714 820.842596 
L 108.617143 820.842596 
L 111.908571 820.842596 
L 115.2 820.842596 
L 118.491429 820.842596 
L 121.782857 820.842596 
L 125.074286 820.842596 
L 128.365714 820.842596 
L 131.657143 820.842596 
L 134.948571 820.842596 
L 138.24 820.842596 
L 141.531429 820.842596 
L 144.822857 820.842596 
L 148.114286 820.842596 
L 151.405714 820.842596 
L 154.697143 820.842596 
L 157.988571 820.842596 
L 161.28 820.842596 
L 164.571429 820.842596 
L 167.862857 820.842596 
L 171.154286 820.842596 
L 174.445714 820.842596 
L 177.737143 820.842596 
L 181.028571 820.842596 
L 184.32 820.842596 
L 187.611429 820.842596 
L 190.902857 820.842596 
L 194.194286 820.842596 
L 197.485714 820.842596 
L 200.777143 820.842596 
L 204.068571 820.842596 
L 207.36 820.842596 
L 210.651429 820.842596 
L 213.942857 820.842596 
L 217.234286 820.842596 
L 220.525714 820.842596 
L 223.817143 820.842596 
L 227.108571 820.842596 
L 230.4 820.842596 
L 233.691429 820.842596 
L 236.982857 820.842596 
L 240.274286 820.842596 
L 243.565714 820.842596 
L 246.857143 820.842596 
L 250.148571 820.842596 
L 253.44 820.842596 
L 256.731429 820.842596 
L 260.022857 820.842596 
L 263.314286 820.842596 
L 266.605714 820.842596 
L 269.897143 820.842596 
L 273.188571 820.842596 
L 276.48 820.842596 
L 279.771429 820.842596 
L 283.062857 820.842596 
L 286.354286 820.842596 
L 289.645714 820.842596 
L 292.937143 820.842596 
L 296.228571 820.842596 
L 299.52 820.842596 
L 302.811429 820.842596 
L 306.102857 820.842596 
L 309.394286 820.842596 
L 312.685714 820.842596 
L 315.977143 820.842596 
L 319.268571 820.842596 
L 322.56 820.842596 
L 325.851429 820.842596 
L 329.142857 820.842596 
L 332.434286 820.842596 
L 335.725714 820.842596 
L 339.017143 820.842596 
L 342.308571 820.842596 
L 345.6 820.842596 
L 348.891429 820.842596 
L 352.182857 820.842596 
L 355.474286 820.842596 
L 358.765714 820.842596 
L 362.057143 820.842596 
L 365.348571 820.842596 
L 368.64 820.842596 
L 371.931429 820.842596 
L 375.222857 820.842596 
L 378.514286 820.842596 
L 381.805714 820.842596 
L 385.097143 820.842596 
L 388.388571 820.842596 
L 391.68 820.842596 
L 394.971429 820.842596 
L 398.262857 820.842596 
L 401.554286 820.842596 
L 404.845714 820.842596 
L 408.137143 820.842596 
L 411.428571 820.842596 
L 414.72 820.842596 
L 418.011429 820.842596 
L 421.302857 820.842596 
L 424.594286 820.842596 
L 427.885714 820.842596 
L 431.177143 820.842596 
L 434.468571 820.842596 
L 437.76 820.842596 
L 441.051429 820.842596 
L 444.342857 820.842596 
L 447.634286 820.842596 
L 450.925714 820.842596 
L 454.217143 820.842596 
L 457.508571 820.842596 
L 460.8 820.842596 
L 464.091429 820.842596 
L 467.382857 820.842596 
L 470.674286 820.842596 
L 473.965714 820.842596 
L 477.257143 820.842596 
L 480.548571 820.842596 
L 483.84 820.842596 
L 487.131429 820.842596 
L 490.422857 820.842596 
L 493.714286 820.842596 
L 497.005714 820.842596 
L 500.297143 820.842596 
L 503.588571 820.842596 
L 506.88 820.842596 
L 510.171429 820.842596 
L 513.462857 820.842596 
L 516.754286 820.842596 
L 520.045714 820.842596 
L 523.337143 820.842596 
L 526.628571 820.842596 
L 529.92 820.842596 
L 533.211429 820.842596 
L 536.502857 820.842596 
L 539.794286 820.842596 
L 543.085714 820.842596 
L 546.377143 820.842596 
L 549.668571 820.842596 
L 552.96 820.842596 
L 556.251429 820.842596 
L 559.542857 820.842596 
L 562.834286 820.842596 
L 566.125714 820.842596 
L 569.417143 820.842596 
L 572.708571 820.842596 
L 576 820.842596 
L 576 817.546039 
L 576 814.249482 
L 576 810.952926 
L 576 807.656369 
L 576 804.359813 
L 576 801.063256 
L 576 797.766699 
L 576 794.470143 
L 576 791.173586 
L 576 787.87703 
L 576 784.580473 
L 576 781.283916 
L 576 777.98736 
L 576 774.690803 
L 576 771.394247 
L 576 768.09769 
L 576 764.801133 
L 576 761.504577 
L 576 758.20802 
L 576 754.911464 
L 576 751.614907 
L 576 748.31835 
L 576 745.021794 
L 576 741.725237 
L 576 738.42868 
L 576 735.132124 
L 576 731.835567 
L 576 728.539011 
L 576 725.242454 
L 576 721.945897 
L 576 718.649341 
L 576 715.352784 
L 576 712.056228 
L 576 708.759671 
L 576 705.463114 
L 576 702.166558 
L 576 698.870001 
L 576 695.573445 
L 576 692.276888 
L 576 688.980331 
L 576 685.683775 
L 576 682.387218 
L 576 679.090662 
L 576 675.794105 
L 576 672.497548 
L 576 669.200992 
L 576 665.904435 
L 576 662.607878 
L 576 659.311322 
L 576 656.014765 
L 576 652.718209 
L 576 649.421652 
L 576 646.125095 
L 576 642.828539 
L 576 639.531982 
L 576 636.235426 
L 576 632.938869 
L 576 629.642312 
L 576 626.345756 
L 576 623.049199 
L 576 619.752643 
L 576 616.456086 
L 576 613.159529 
L 576 609.862973 
L 576 606.566416 
L 576 603.26986 
L 576 599.973303 
L 576 596.676746 
L 576 593.38019 
L 576 590.083633 
L 576 586.787076 
L 576 583.49052 
L 576 580.193963 
L 576 576.897407 
L 576 573.60085 
L 576 570.304293 
L 576 567.007737 
L 576 563.71118 
L 576 560.414624 
L 576 557.118067 
L 576 553.82151 
L 576 550.524954 
L 576 547.228397 
L 576 543.931841 
L 576 540.635284 
L 576 537.338727 
L 576 534.042171 
L 576 530.745614 
L 576 527.449057 
L 576 524.152501 
L 576 520.855944 
L 576 517.559388 
L 576 514.262831 
L 576 510.966274 
L 576 507.669718 
L 576 504.373161 
L 576 501.076605 
L 576 497.780048 
L 576 494.483491 
L 576 491.186935 
L 576 487.890378 
L 576 484.593822 
L 576 481.297265 
L 576 478.000708 
L 576 474.704152 
L 576 471.407595 
L 576 468.111039 
L 576 464.814482 
L 576 461.517925 
L 576 458.221369 
L 576 454.924812 
L 576 451.628255 
L 576 448.331699 
L 576 445.035142 
L 576 441.738586 
L 576 438.442029 
L 576 435.145472 
L 576 431.848916 
L 576 428.552359 
L 576 425.255803 
L 576 421.959246 
L 576 418.662689 
L 576 415.366133 
L 576 412.069576 
L 576 408.77302 
L 576 405.476463 
L 576 402.179906 
L 576 398.88335 
L 576 395.586793 
L 576 392.290237 
L 576 388.99368 
L 576 385.697123 
L 576 382.400567 
L 576 379.10401 
L 576 375.807453 
L 576 372.510897 
L 576 369.21434 
L 576 365.917784 
L 576 362.621227 
L 576 359.32467 
L 576 356.028114 
L 576 352.731557 
L 576 349.435001 
L 576 346.138444 
L 576 342.841887 
L 576 339.545331 
L 576 336.248774 
L 576 332.952218 
L 576 329.655661 
L 576 326.359104 
L 576 323.062548 
L 576 319.765991 
L 576 316.469434 
L 576 313.172878 
L 576 309.876321 
L 576 306.579765 
L 576 303.283208 
L 576 299.986651 
L 576 296.690095 
L 576 293.393538 
L 576 290.096982 
L 576 286.800425 
L 576 283.503868 
L 576 280.207312 
L 576 276.910755 
L 576 273.614199 
L 576 270.317642 
L 576 267.021085 
L 576 263.724529 
L 576 260.427972 
L 576 257.131416 
L 576 253.834859 
L 576 250.538302 
L 576 247.241746 
L 576 243.945189 
L 576 240.648632 
L 576 237.352076 
L 576 234.055519 
L 576 230.758963 
L 576 227.462406 
L 576 224.165849 
L 576 220.869293 
L 576 217.572736 
L 576 214.27618 
L 576 210.979623 
L 576 207.683066 
L 576 204.38651 
L 576 201.089953 
L 576 197.793397 
L 576 194.49684 
L 576 191.200283 
L 576 187.903727 
L 576 184.60717 
L 576 181.310614 
L 576 178.014057 
L 576 174.7175 
L 576 171.420944 
L 576 168.124387 
L 576 164.82783 
L 576 161.531274 
L 576 158.234717 
L 576 154.938161 
L 576 151.641604 
L 576 148.345047 
L 576 145.048491 
L 576 141.751934 
L 576 138.455378 
L 576 135.158821 
L 576 131.862264 
L 576 128.565708 
L 576 125.269151 
L 576 121.972595 
L 576 118.676038 
L 576 115.379481 
L 576 112.082925 
L 576 108.786368 
L 576 105.489811 
L 576 102.193255 
L 576 98.896698 
L 576 95.600142 
L 576 92.303585 
L 576 89.007028 
L 576 85.710472 
L 576 82.413915 
L 576 79.117359 
L 576 75.820802 
L 576 72.524245 
L 576 69.227689 
L 576 65.931132 
L 576 62.634576 
L 576 59.338019 
L 576 56.041462 
L 576 52.744906 
L 576 49.448349 
L 576 46.151793 
L 576 42.855236 
L 576 39.558679 
L 576 36.262123 
L 576 32.965566 
L 576 29.669009 
L 576 26.372453 
L 576 23.075896 
L 576 19.77934 
L 576 16.482783 
L 576 13.186226 
L 576 9.88967 
L 576 6.593113 
L 576 3.296557 
L 576 0 
L 572.708571 0 
L 569.417143 0 
L 566.125714 0 
L 562.834286 0 
L 559.542857 0 
L 556.251429 0 
L 552.96 0 
L 549.668571 0 
L 546.377143 0 
L 543.085714 0 
L 539.794286 0 
L 536.502857 0 
L 533.211429 0 
L 529.92 0 
L 526.628571 0 
L 523.337143 0 
L 520.045714 0 
L 516.754286 0 
L 513.462857 0 
L 510.171429 0 
L 506.88 0 
L 503.588571 0 
L 500.297143 0 
L 497.005714 0 
L 493.714286 0 
L 490.422857 0 
L 487.131429 0 
L 483.84 0 
L 480.548571 0 
L 477.257143 0 
L 473.965714 0 
L 470.674286 0 
L 467.382857 0 
L 464.091429 0 
L 460.8 0 
L 457.508571 0 
L 454.217143 0 
L 450.925714 0 
L 447.634286 0 
L 444.342857 0 
L 441.051429 0 
L 437.76 0 
L 434.468571 0 
L 431.177143 0 
L 427.885714 0 
L 424.594286 0 
L 421.302857 0 
L 418.011429 0 
L 414.72 0 
L 411.428571 0 
L 408.137143 0 
L 404.845714 0 
L 401.554286 0 
L 398.262857 0 
L 394.971429 0 
L 391.68 0 
L 388.388571 0 
L 385.097143 0 
L 381.805714 0 
L 378.514286 0 
L 375.222857 0 
L 371.931429 0 
L 368.64 0 
L 365.348571 0 
L 362.057143 0 
L 358.765714 0 
L 355.474286 0 
L 352.182857 0 
L 348.891429 0 
L 345.6 0 
L 342.308571 0 
L 339.017143 0 
L 335.725714 0 
L 332.434286 0 
L 329.142857 0 
L 325.851429 0 
L 322.56 0 
L 319.268571 0 
L 315.977143 0 
L 312.685714 0 
L 309.394286 0 
L 306.102857 0 
L 302.811429 0 
L 299.52 0 
L 296.228571 0 
L 292.937143 0 
L 289.645714 0 
L 286.354286 0 
L 283.062857 0 
L 279.771429 0 
L 276.48 0 
L 273.188571 0 
L 269.897143 0 
L 266.605714 0 
L 263.314286 0 
L 260.022857 0 
L 256.731429 0 
L 253.44 0 
L 250.148571 0 
L 246.857143 0 
L 243.565714 0 
L 240.274286 0 
L 236.982857 0 
L 233.691429 0 
L 230.4 0 
L 227.108571 0 
L 223.817143 0 
L 220.525714 0 
L 217.234286 0 
L 213.942857 0 
L 210.651429 0 
L 207.36 0 
L 204.068571 0 
L 200.777143 0 
L 197.485714 0 
L 194.194286 0 
L 190.902857 0 
L 187.611429 0 
L 184.32 0 
L 181.028571 0 
L 177.737143 0 
L 174.445714 0 
L 171.154286 0 
L 167.862857 0 
L 164.571429 0 
L 161.28 0 
L 157.988571 0 
L 154.697143 0 
L 151.405714 0 
L 148.114286 0 
L 144.822857 0 
L 141.531429 0 
L 138.24 0 
L 134.948571 0 
L 131.657143 0 
L 128.365714 0 
L 125.074286 0 
L 121.782857 0 
L 118.491429 0 
L 115.2 0 
L 111.908571 0 
L 108.617143 0 
L 105.325714 0 
L 102.034286 0 
L 98.742857 0 
L 95.451429 0 
L 92.16 0 
L 88.868571 0 
L 85.577143 0 
L 82.285714 0 
L 78.994286 0 
L 75.702857 0 
L 72.411429 0 
L 69.12 0 
L 65.828571 0 
L 62.537143 0 
L 59.245714 0 
L 55.954286 0 
L 52.662857 0 
L 49.371429 0 
L 46.08 0 
L 42.788571 0 
L 39.497143 0 
L 36.205714 0 
L 32.914286 0 
L 29.622857 0 
L 26.331429 0 
L 23.04 0 
L 19.748571 0 
L 16.457143 0 
L 13.165714 0 
L 9.874286 0 
L 6.582857 0 
L 3.291429 0 
L -0 0 
L -0 3.296557 
L -0 6.593113 
L -0 9.88967 
L -0 13.186226 
L -0 16.482783 
L -0 19.77934 
L -0 23.075896 
L -0 26.372453 
L -0 29.669009 
L -0 32.965566 
L -0 36.262123 
L -0 39.558679 
L -0 42.855236 
L -0 46.151793 
L -0 49.448349 
L -0 52.744906 
L -0 56.041462 
L -0 59.338019 
L -0 62.634576 
L -0 65.931132 
L -0 69.227689 
L -0 72.524245 
L -0 75.820802 
L -0 79.117359 
L -0 82.413915 
L -0 85.710472 
L -0 89.007028 
L -0 92.303585 
L -0 95.600142 
L -0 98.896698 
L -0 102.193255 
L -0 105.489811 
L -0 108.786368 
L -0 112.082925 
L -0 115.379481 
L -0 118.676038 
L -0 121.972595 
L -0 125.269151 
L -0 128.565708 
L -0 131.862264 
L -0 135.158821 
L -0 138.455378 
L -0 141.751934 
L -0 145.048491 
L -0 148.345047 
L -0 151.641604 
L -0 154.938161 
L -0 158.234717 
L -0 161.531274 
L -0 164.82783 
L -0 168.124387 
L -0 171.420944 
L -0 174.7175 
L -0 178.014057 
L -0 181.310614 
L -0 184.60717 
L -0 187.903727 
L -0 191.200283 
L -0 194.49684 
L -0 197.793397 
L -0 201.089953 
L -0 204.38651 
L -0 207.683066 
L -0 210.979623 
L -0 214.27618 
L -0 217.572736 
L -0 220.869293 
L -0 224.165849 
L -0 227.462406 
L -0 230.758963 
L -0 234.055519 
L -0 237.352076 
L -0 240.648632 
L -0 243.945189 
L -0 247.241746 
L -0 250.538302 
L -0 253.834859 
L -0 257.131416 
L -0 260.427972 
L -0 263.724529 
L -0 267.021085 
L -0 270.317642 
L -0 273.614199 
L -0 276.910755 
L -0 280.207312 
L -0 283.503868 
L -0 286.800425 
L -0 290.096982 
L -0 293.393538 
L -0 296.690095 
L -0 299.986651 
L -0 303.283208 
L -0 306.579765 
L -0 309.876321 
L -0 313.172878 
L -0 316.469434 
L -0 319.765991 
L -0 323.062548 
L -0 326.359104 
L -0 329.655661 
L -0 332.952218 
L -0 336.248774 
L -0 339.545331 
L -0 342.841887 
L -0 346.138444 
L -0 349.435001 
L -0 352.731557 
L -0 356.028114 
L -0 359.32467 
L -0 362.621227 
L -0 365.917784 
L -0 369.21434 
L -0 372.510897 
L -0 375.807453 
L -0 379.10401 
L -0 382.400567 
L -0 385.697123 
L -0 388.99368 
L -0 392.290237 
L -0 395.586793 
L -0 398.88335 
L -0 402.179906 
L -0 405.476463 
L -0 408.77302 
L -0 412.069576 
L -0 415.366133 
L -0 418.662689 
L -0 421.959246 
L -0 425.255803 
L -0 428.552359 
L -0 431.848916 
L -0 435.145472 
L -0 438.442029 
L -0 441.738586 
L -0 445.035142 
L -0 448.331699 
L -0 451.628255 
L -0 454.924812 
L -0 458.221369 
L -0 461.517925 
L -0 464.814482 
L -0 468.111039 
L -0 471.407595 
L -0 474.704152 
L -0 478.000708 
L -0 481.297265 
L -0 484.593822 
L -0 487.890378 
L -0 491.186935 
L -0 494.483491 
L -0 497.780048 
L -0 501.076605 
L -0 504.373161 
L -0 507.669718 
L -0 510.966274 
L -0 514.262831 
L -0 517.559388 
L -0 520.855944 
L -0 524.152501 
L -0 527.449057 
L -0 530.745614 
L -0 534.042171 
L -0 537.338727 
L -0 540.635284 
L -0 543.931841 
L -0 547.228397 
L -0 550.524954 
L -0 553.82151 
L -0 557.118067 
L -0 560.414624 
L -0 563.71118 
L -0 567.007737 
L -0 570.304293 
L -0 573.60085 
L -0 576.897407 
L -0 580.193963 
L -0 583.49052 
L -0 586.787076 
L -0 590.083633 
L -0 593.38019 
L -0 596.676746 
L -0 599.973303 
L -0 603.26986 
L -0 606.566416 
L -0 609.862973 
L -0 613.159529 
L -0 616.456086 
L -0 619.752643 
L -0 623.049199 
L -0 626.345756 
L -0 629.642312 
L -0 632.938869 
L -0 636.235426 
L -0 639.531982 
L -0 642.828539 
L -0 646.125095 
L -0 649.421652 
L -0 652.718209 
L -0 656.014765 
L -0 659.311322 
L -0 662.607878 
L -0 665.904435 
L -0 669.200992 
L -0 672.497548 
L -0 675.794105 
L -0 679.090662 
L -0 682.387218 
L -0 685.683775 
L -0 688.980331 
L -0 692.276888 
L -0 695.573445 
L -0 698.870001 
L -0 702.166558 
L -0 705.463114 
L -0 708.759671 
L -0 712.056228 
L -0 715.352784 
L -0 718.649341 
L -0 721.945897 
L -0 725.242454 
L -0 728.539011 
L -0 731.835567 
L -0 735.132124 
L -0 738.42868 
L -0 741.725237 
L -0 745.021794 
L -0 748.31835 
L -0 751.614907 
L -0 754.911464 
L -0 758.20802 
L -0 761.504577 
L -0 764.801133 
L -0 768.09769 
L -0 771.394247 
L -0 774.690803 
L -0 777.98736 
L -0 781.283916 
L -0 784.580473 
L -0 787.87703 
L -0 791.173586 
L -0 794.470143 
L -0 797.766699 
L -0 801.063256 
L -0 804.359813 
L -0 807.656369 
L -0 810.952926 
L -0 814.249482 
L -0 817.546039 
L -0 820.842596 
z
" clip-path="url(#pff21181c43)" style="fill: #f5f9fe; fill-opacity: 0.9"/>
    <path clip-path="url(#pff21181c43)" style="fill: #eff6fc; fill-opacity: 0.9"/>
    <path clip-path="url(#pff21181c43)" style="fill: #eaf3fb; fill-opacity: 0.9"/>
    <path clip-path="url(#pff21181c43)" style="fill: #e5eff9; fill-opacity: 0.9"/>
    <path clip-path="url(#pff21181c43)" style="fill: #dfecf7; fill-opacity: 0.9"/>
    <path clip-path="url(#pff21181c43)" style="fill: #dae8f6; fill-opacity: 0.9"/>
    <path clip-path="url(#pff21181c43)" style="fill: #d6e5f4; fill-opacity: 0.9"/>
    <path clip-path="url(#pff21181c43)" style="fill: #d0e2f2; fill-opacity: 0.9"/>
    <path clip-path="url(#pff21181c43)" style="fill: #cbdef1; fill-opacity: 0.9"/>
    <path clip-path="url(#pff21181c43)" style="fill: #c6dbef; fill-opacity: 0.9"/>
    <path clip-path="url(#pff21181c43)" style="fill: #bed8ec; fill-opacity: 0.9"/>
    <path clip-path="url(#pff21181c43)" style="fill: #b5d4e9; fill-opacity: 0.9"/>
    <path clip-path="url(#pff21181c43)" style="fill: #add0e6; fill-opacity: 0.9"/>
    <path clip-path="url(#pff21181c43)" style="fill: #a5cde3; fill-opacity: 0.9"/>
    <path clip-path="url(#pff21181c43)" style="fill: #9cc9e1; fill-opacity: 0.9"/>
    <path clip-path="url(#pff21181c43)" style="fill: #91c3de; fill-opacity: 0.9"/>
    <path clip-path="url(#pff21181c43)" style="fill: #85bcdc; fill-opacity: 0.9"/>
    <path clip-path="url(#pff21181c43)" style="fill: #7cb7da; fill-opacity: 0.9"/>
    <path clip-path="url(#pff21181c43)" style="fill: #71b1d7; fill-opacity: 0.9"/>
    <path clip-path="url(#pff21181c43)" style="fill: #66abd4; fill-opacity: 0.9"/>
    <path clip-path="url(#pff21181c43)" style="fill: #5da5d1; fill-opacity: 0.9"/>
    <path clip-path="url(#pff21181c43)" style="fill: #56a0ce; fill-opacity: 0.9"/>
    <path clip-path="url(#pff21181c43)" style="fill: #4d99ca; fill-opacity: 0.9"/>
    <path clip-path="url(#pff21181c43)" style="fill: #4493c7; fill-opacity: 0.9"/>
    <path clip-path="url(#pff21181c43)" style="fill: #3c8cc3; fill-opacity: 0.9"/>
    <path clip-path="url(#pff21181c43)" style="fill: #3686c0; fill-opacity: 0.9"/>
    <path clip-path="url(#pff21181c43)" style="fill: #2f7fbc; fill-opacity: 0.9"/>
    <path clip-path="url(#pff21181c43)" style="fill: #2777b8; fill-opacity: 0.9"/>
    <path clip-path="url(#pff21181c43)" style="fill: #2070b4; fill-opacity: 0.9"/>
    <path clip-path="url(#pff21181c43)" style="fill: #1c6ab0; fill-opacity: 0.9"/>
    <path clip-path="url(#pff21181c43)" style="fill: #1663aa; fill-opacity: 0.9"/>
    <path clip-path="url(#pff21181c43)" style="fill: #115ca5; fill-opacity: 0.9"/>
    <path clip-path="url(#pff21181c43)" style="fill: #0c56a0; fill-opacity: 0.9"/>
    <path clip-path="url(#pff21181c43)" style="fill: #084f99; fill-opacity: 0.9"/>
    <path clip-path="url(#pff21181c43)" style="fill: #08488e; fill-opacity: 0.9"/>
    <path clip-path="url(#pff21181c43)" style="fill: #084184; fill-opacity: 0.9"/>
    <path clip-path="url(#pff21181c43)" style="fill: #083a7a; fill-opacity: 0.9"/>
    <path clip-path="url(#pff21181c43)" style="fill: #083370; fill-opacity: 0.9"/>
    <path clip-path="url(#pff21181c43)" style="fill: #08306b; fill-opacity: 0.9"/>
   </g>
   <g id="QuadContourSet_2">
    <path clip-path="url(#pff21181c43)" style="fill: none"/>
    <path clip-path="url(#pff21181c43)" style="fill: none"/>
    <path clip-path="url(#pff21181c43)" style="fill: none"/>
    <path clip-path="url(#pff21181c43)" style="fill: none"/>
    <path clip-path="url(#pff21181c43)" style="fill: none"/>
    <path clip-path="url(#pff21181c43)" style="fill: none"/>
    <path clip-path="url(#pff21181c43)" style="fill: none"/>
    <path clip-path="url(#pff21181c43)" style="fill: none"/>
    <path clip-path="url(#pff21181c43)" style="fill: none"/>
    <path clip-path="url(#pff21181c43)" style="fill: none"/>
    <path clip-path="url(#pff21181c43)" style="fill: none"/>
    <path clip-path="url(#pff21181c43)" style="fill: none"/>
    <path clip-path="url(#pff21181c43)" style="fill: none"/>
    <path clip-path="url(#pff21181c43)" style="fill: none"/>
    <path clip-path="url(#pff21181c43)" style="fill: none"/>
    <path clip-path="url(#pff21181c43)" style="fill: none"/>
    <path clip-path="url(#pff21181c43)" style="fill: none"/>
    <path clip-path="url(#pff21181c43)" style="fill: none"/>
    <path clip-path="url(#pff21181c43)" style="fill: none"/>
    <path clip-path="url(#pff21181c43)" style="fill: none"/>
    <path clip-path="url(#pff21181c43)" style="fill: none"/>
    <path clip-path="url(#pff21181c43)" style="fill: none"/>
    <path clip-path="url(#pff21181c43)" style="fill: none"/>
    <path clip-path="url(#pff21181c43)" style="fill: none"/>
    <path clip-path="url(#pff21181c43)" style="fill: none"/>
    <path clip-path="url(#pff21181c43)" style="fill: none"/>
    <path clip-path="url(#pff21181c43)" style="fill: none"/>
    <path clip-path="url(#pff21181c43)" style="fill: none"/>
    <path clip-path="url(#pff21181c43)" style="fill: none"/>
    <path clip-path="url(#pff21181c43)" style="fill: none"/>
    <path clip-path="url(#pff21181c43)" style="fill: none"/>
    <path clip-path="url(#pff21181c43)" style="fill: none"/>
    <path clip-path="url(#pff21181c43)" style="fill: none"/>
    <path clip-path="url(#pff21181c43)" style="fill: none"/>
    <path clip-path="url(#pff21181c43)" style="fill: none"/>
    <path clip-path="url(#pff21181c43)" style="fill: none"/>
    <path clip-path="url(#pff21181c43)" style="fill: none"/>
    <path clip-path="url(#pff21181c43)" style="fill: none"/>
    <path clip-path="url(#pff21181c43)" style="fill: none"/>
   </g>
  </g>
 </g>
 <defs>
  <clipPath id="pff21181c43">
   <rect x="0" y="0" width="576" height="820.842596"/>
  </clipPath>
 </defs>
</svg>
