<?xml version="1.0" encoding="utf-8" standalone="no"?>
<!DOCTYPE svg PUBLIC "-//W3C//DTD SVG 1.1//EN"
  "http://www.w3.org/Graphics/SVG/1.1/DTD/svg11.dtd">
<svg xmlns:xlink="http://www.w3.org/1999/xlink" width="576pt" height="821.133661pt" viewBox="0 0 576 821.133661" xmlns="http://www.w3.org/2000/svg" version="1.1">
 <metadata>
  <rdf:RDF xmlns:dc="http://purl.org/dc/elements/1.1/" xmlns:cc="http://creativecommons.org/ns#" xmlns:rdf="http://www.w3.org/1999/02/22-rdf-syntax-ns#">
   <cc:Work>
    <dc:type rdf:resource="http://purl.org/dc/dcmitype/StillImage"/>
    <dc:date>2025-07-25T22:46:07.009662</dc:date>
    <dc:format>image/svg+xml</dc:format>
    <dc:creator>
     <cc:Agent>
      <dc:title>Matplotlib v3.10.3, https://matplotlib.org/</dc:title>
     </cc:Agent>
    </dc:creator>
   </cc:Work>
  </rdf:RDF>
 </metadata>
 <defs>
  <style type="text/css">*{stroke-linejoin: round; stroke-linecap: butt}</style>
 </defs>
 <g id="figure_1">
  <g id="patch_1">
   <path d="M 0 821.133661 
L 576 821.133661 
L 576 0 
L 0 0 
L 0 821.133661 
z
" style="fill: none; opacity: 0"/>
  </g>
  <g id="axes_1">
   <g id="QuadContourSet_1">
    <path d="M 458.269238 817.835936 
L 458.27132 814.53821 
L 457.998368 811.240484 
L 460.8 808.433493 
L 464.091429 808.724533 
L 467.382857 809.620483 
L 469.58836 807.942759 
L 470.179482 804.645033 
L 470.674286 804.149283 
L 473.965714 801.69237 
L 474.239195 801.347308 
L 474.744379 798.049582 
L 475.500784 794.751857 
L 477.257143 792.992137 
L 478.16255 791.454131 
L 478.03745 788.156406 
L 478.03745 784.85868 
L 480.548571 782.342754 
L 481.326529 781.560955 
L 481.036905 778.263229 
L 483.84 775.747303 
L 487.131429 775.699921 
L 489.11502 774.965503 
L 490.422857 773.655165 
L 493.288901 771.667778 
L 493.714286 771.24158 
L 494.737007 768.370052 
L 497.005714 765.848188 
L 497.545956 765.072327 
L 497.964439 761.774601 
L 500.297143 759.437434 
L 501.185972 758.476876 
L 501.034708 755.17915 
L 501.034708 751.881425 
L 503.588571 749.322675 
L 504.323915 748.583699 
L 504.076578 745.285974 
L 506.88 742.477188 
L 509.3842 745.285974 
L 510.171429 746.76988 
L 512.069423 745.285974 
L 513.462857 743.889873 
L 516.097387 741.988248 
L 516.754286 739.133336 
L 516.809504 738.690522 
L 520.045714 736.012983 
L 520.511554 735.392797 
L 521.013286 732.095071 
L 523.337143 729.766768 
L 524.385178 728.797346 
L 524.126317 725.49962 
L 526.628571 722.992578 
L 527.415771 722.201895 
L 527.117929 718.904169 
L 529.92 716.096737 
L 530.407986 715.606444 
L 533.211429 712.797638 
L 535.714541 715.606444 
L 536.502857 717.143331 
L 538.496251 715.606444 
L 539.794286 714.305926 
L 542.64002 712.308718 
L 543.085714 711.862171 
L 545.464848 712.308718 
L 546.377143 712.379552 
L 546.438574 712.308718 
L 546.760558 709.010993 
L 549.668571 706.520013 
L 550.368318 705.713267 
L 552.96 702.457704 
L 553.010161 702.415541 
L 556.251429 699.573061 
L 556.797578 699.117816 
L 556.251429 698.738185 
L 553.750035 695.82009 
L 556.251429 693.313911 
L 557.041464 692.522365 
L 556.740607 689.224639 
L 559.542857 686.417028 
L 562.834286 686.415716 
L 565.31125 689.224639 
L 566.125714 690.855115 
L 568.259213 689.224639 
L 569.417143 688.064494 
L 572.512797 685.926914 
L 572.708571 685.730765 
L 576 683.111915 
L 576 682.629188 
L 576 681.984424 
L 575.356467 682.629188 
L 572.708571 684.089329 
L 570.874496 685.926914 
L 569.417143 686.93323 
L 567.130109 689.224639 
L 566.125714 689.992225 
L 565.742286 689.224639 
L 562.834286 685.926914 
L 559.542857 685.926914 
L 556.251429 689.224639 
L 556.604804 692.522365 
L 556.251429 692.876416 
L 553.313376 695.82009 
L 555.463388 699.117816 
L 552.96 700.654002 
L 551.201825 702.415541 
L 549.902218 705.713267 
L 549.668571 705.982641 
L 546.377143 707.940769 
L 545.308963 709.010993 
L 543.085714 710.286299 
L 541.067157 712.308718 
L 539.794286 713.202051 
L 537.394485 715.606444 
L 536.502857 716.29388 
L 536.150251 715.606444 
L 533.211429 712.308718 
L 529.92 715.606444 
L 529.92 715.606444 
L 526.628571 718.904169 
L 526.979867 722.201895 
L 526.628571 722.554745 
L 523.68932 725.49962 
L 523.804839 728.797346 
L 523.337143 729.229961 
L 520.477503 732.095071 
L 520.045714 735.193289 
L 519.846587 735.392797 
L 516.754286 736.923645 
L 514.990782 738.690522 
L 514.638543 741.988248 
L 513.462857 742.836868 
L 511.018428 745.285974 
L 510.171429 745.948182 
L 509.82012 745.285974 
L 506.88 741.988248 
L 503.588571 745.285974 
L 503.880689 748.583699 
L 503.588571 748.87726 
L 500.590143 751.881425 
L 500.590143 755.17915 
L 500.650233 758.476876 
L 500.297143 758.858461 
L 497.386571 761.774601 
L 497.068823 765.072327 
L 497.005714 765.16296 
L 494.120566 768.370052 
L 493.714286 769.510777 
L 491.561403 771.667778 
L 490.422857 772.457274 
L 487.919417 774.965503 
L 487.131429 775.257253 
L 483.84 775.308998 
L 480.548571 778.263229 
L 480.890378 781.560955 
L 480.548571 781.904449 
L 477.599982 784.85868 
L 477.599982 788.156406 
L 477.654946 791.454131 
L 477.257143 792.129876 
L 474.640169 794.751857 
L 474.307831 798.049582 
L 473.965714 800.101499 
L 472.722285 801.347308 
L 470.674286 802.578395 
L 468.611593 804.645033 
L 468.351876 807.942759 
L 467.382857 808.679891 
L 464.091429 808.286242 
L 460.8 807.942759 
L 457.508571 811.240484 
L 457.829243 814.53821 
L 457.828368 817.835936 
L 457.934777 821.133661 
L 458.522343 821.133661 
z
M 535.374268 817.835936 
L 536.502857 817.119446 
L 538.677955 814.53821 
L 539.794286 813.652445 
L 542.200718 811.240484 
L 543.085714 809.693615 
L 544.832059 807.942759 
L 545.694983 804.645033 
L 546.377143 804.03065 
L 549.054653 801.347308 
L 549.522898 798.049582 
L 549.668571 797.872081 
L 552.96 795.673856 
L 554.015734 794.751857 
L 556.251429 793.278451 
L 558.430374 791.454131 
L 559.542857 790.663477 
L 562.450836 788.156406 
L 562.834286 787.869223 
L 566.125714 785.116666 
L 566.383357 784.85868 
L 569.417143 782.480522 
L 570.335722 781.560955 
L 572.679481 778.263229 
L 572.708571 778.236001 
L 575.796052 774.965503 
L 576 774.210775 
L 576 771.667778 
L 576 771.66577 
L 575.997931 771.667778 
L 575.107338 774.965503 
L 572.708571 777.506462 
L 571.90006 778.263229 
L 569.417143 781.079002 
L 568.813719 781.560955 
L 566.125714 783.967011 
L 564.974374 784.85868 
L 562.834286 786.743 
L 560.947088 788.156406 
L 559.542857 789.367043 
L 556.606238 791.454131 
L 556.251429 791.751195 
L 554.27886 791.454131 
L 552.96 791.278996 
L 552.861533 791.454131 
L 552.483412 794.751857 
L 549.668571 797.131911 
L 548.915448 798.049582 
L 548.530923 801.347308 
L 546.377143 803.505779 
L 545.11221 804.645033 
L 543.508788 807.942759 
L 543.085714 808.366925 
L 541.441692 811.240484 
L 539.794286 812.891675 
L 537.719156 814.53821 
L 536.502857 815.981618 
L 533.582002 817.835936 
L 533.236421 821.133661 
L 534.74922 821.133661 
z
M 559.542857 696.725835 
L 560.639493 695.82009 
L 559.542857 695.165577 
L 558.889594 695.82009 
z
M 559.350129 695.82009 
L 559.542857 695.626993 
L 559.866391 695.82009 
L 559.542857 696.087307 
z
" clip-path="url(#p617d755322)" style="fill: #f5f9fe; fill-opacity: 0.9"/>
    <path d="M 458.710109 817.835936 
L 458.713398 814.53821 
L 458.488165 811.240484 
L 460.8 808.924226 
L 464.091429 809.162824 
L 467.382857 810.561076 
L 470.674286 808.640427 
L 470.755564 807.942759 
L 471.214521 804.645033 
L 473.965714 802.350648 
L 474.760918 801.347308 
L 475.180926 798.049582 
L 476.361399 794.751857 
L 477.257143 793.854399 
L 478.670153 791.454131 
L 478.474917 788.156406 
L 478.474917 784.85868 
L 480.548571 782.781059 
L 481.76268 781.560955 
L 481.525238 778.263229 
L 483.84 776.185608 
L 487.131429 776.142589 
L 490.310623 774.965503 
L 490.422857 774.853055 
L 493.714286 774.84038 
L 494.161011 771.667778 
L 495.353449 768.370052 
L 497.005714 766.533417 
L 498.02309 765.072327 
L 498.542306 761.774601 
L 500.297143 760.016407 
L 501.72171 758.476876 
L 501.479273 755.17915 
L 501.479273 751.881425 
L 503.588571 749.76809 
L 504.76714 748.583699 
L 504.564585 745.285974 
L 506.88 742.966129 
L 508.948281 745.285974 
L 510.171429 747.591578 
L 513.120418 745.285974 
L 513.462857 744.942879 
L 516.754286 742.624724 
L 517.092968 741.988248 
L 517.600121 738.690522 
L 520.045714 736.667115 
L 521.002892 735.392797 
L 521.549068 732.095071 
L 523.337143 730.303576 
L 524.965517 728.797346 
L 524.563313 725.49962 
L 526.628571 723.430411 
L 527.851674 722.201895 
L 527.607286 718.904169 
L 529.92 716.58703 
L 530.895973 715.606444 
L 533.211429 713.286558 
L 535.278832 715.606444 
L 536.502857 717.992782 
L 539.598018 715.606444 
L 539.794286 715.4098 
L 541.244503 715.606444 
L 543.085714 717.068495 
L 543.263967 715.606444 
L 546.377143 713.03145 
L 547.003938 712.308718 
L 547.387896 709.010993 
L 549.668571 707.057385 
L 550.834417 705.713267 
L 552.96 703.043199 
L 553.706725 702.415541 
L 556.251429 700.183924 
L 557.530418 699.117816 
L 556.251429 698.228783 
L 554.186694 695.82009 
L 556.251429 693.751406 
L 557.478123 692.522365 
L 557.229786 689.224639 
L 559.542857 686.907143 
L 562.834286 686.904519 
L 564.880214 689.224639 
L 566.125714 691.718006 
L 569.388317 689.224639 
L 569.417143 689.195758 
L 569.612292 689.224639 
L 572.708571 689.484355 
L 572.972152 689.224639 
L 573.359651 685.926914 
L 576 683.72779 
L 576 683.111915 
L 572.708571 685.730765 
L 572.512797 685.926914 
L 569.417143 688.064494 
L 568.259213 689.224639 
L 566.125714 690.855115 
L 565.31125 689.224639 
L 562.834286 686.415716 
L 559.542857 686.417028 
L 556.740607 689.224639 
L 557.041464 692.522365 
L 556.251429 693.313911 
L 553.750035 695.82009 
L 556.251429 698.738185 
L 556.797578 699.117816 
L 556.251429 699.573061 
L 553.010161 702.415541 
L 552.96 702.457704 
L 550.368318 705.713267 
L 549.668571 706.520013 
L 546.760558 709.010993 
L 546.438574 712.308718 
L 546.377143 712.379552 
L 545.464848 712.308718 
L 543.085714 711.862171 
L 542.64002 712.308718 
L 539.794286 714.305926 
L 538.496251 715.606444 
L 536.502857 717.143331 
L 535.714541 715.606444 
L 533.211429 712.797638 
L 530.407986 715.606444 
L 529.92 716.096737 
L 527.117929 718.904169 
L 527.415771 722.201895 
L 526.628571 722.992578 
L 524.126317 725.49962 
L 524.385178 728.797346 
L 523.337143 729.766768 
L 521.013286 732.095071 
L 520.511554 735.392797 
L 520.045714 736.012983 
L 516.809504 738.690522 
L 516.754286 739.133336 
L 516.097387 741.988248 
L 513.462857 743.889873 
L 512.069423 745.285974 
L 510.171429 746.76988 
L 509.3842 745.285974 
L 506.88 742.477188 
L 504.076578 745.285974 
L 504.323915 748.583699 
L 503.588571 749.322675 
L 501.034708 751.881425 
L 501.034708 755.17915 
L 501.185972 758.476876 
L 500.297143 759.437434 
L 497.964439 761.774601 
L 497.545956 765.072327 
L 497.005714 765.848188 
L 494.737007 768.370052 
L 493.714286 771.24158 
L 493.288901 771.667778 
L 490.422857 773.655165 
L 489.11502 774.965503 
L 487.131429 775.699921 
L 483.84 775.747303 
L 481.036905 778.263229 
L 481.326529 781.560955 
L 480.548571 782.342754 
L 478.03745 784.85868 
L 478.03745 788.156406 
L 478.16255 791.454131 
L 477.257143 792.992137 
L 475.500784 794.751857 
L 474.744379 798.049582 
L 474.239195 801.347308 
L 473.965714 801.69237 
L 470.674286 804.149283 
L 470.179482 804.645033 
L 469.58836 807.942759 
L 467.382857 809.620483 
L 464.091429 808.724533 
L 460.8 808.433493 
L 457.998368 811.240484 
L 458.27132 814.53821 
L 458.269238 817.835936 
L 458.522343 821.133661 
L 459.10991 821.133661 
z
M 533.211429 821.133661 
L 533.236421 821.133661 
L 533.582002 817.835936 
L 536.502857 815.981618 
L 537.719156 814.53821 
L 539.794286 812.891675 
L 541.441692 811.240484 
L 543.085714 808.366925 
L 543.508788 807.942759 
L 545.11221 804.645033 
L 546.377143 803.505779 
L 548.530923 801.347308 
L 548.915448 798.049582 
L 549.668571 797.131911 
L 552.483412 794.751857 
L 552.861533 791.454131 
L 552.96 791.278996 
L 554.27886 791.454131 
L 556.251429 791.751195 
L 556.606238 791.454131 
L 559.542857 789.367043 
L 560.947088 788.156406 
L 562.834286 786.743 
L 564.974374 784.85868 
L 566.125714 783.967011 
L 568.813719 781.560955 
L 569.417143 781.079002 
L 571.90006 778.263229 
L 572.708571 777.506462 
L 575.107338 774.965503 
L 575.997931 771.667778 
L 576 771.66577 
L 576 770.760783 
L 575.065722 771.667778 
L 574.418625 774.965503 
L 572.708571 776.776923 
L 571.120639 778.263229 
L 569.417143 780.195093 
L 567.70703 781.560955 
L 566.125714 782.976404 
L 563.695284 784.85868 
L 562.834286 785.616778 
L 559.542857 787.627184 
L 556.251429 785.036402 
L 555.496715 788.156406 
L 552.96 789.932306 
L 552.104376 791.454131 
L 551.608028 794.751857 
L 549.668571 796.391741 
L 548.307998 798.049582 
L 548.007193 801.347308 
L 546.377143 802.980908 
L 544.529438 804.645033 
L 543.085714 807.232292 
L 541.999306 807.942759 
L 540.682666 811.240484 
L 539.794286 812.130905 
L 536.760357 814.53821 
L 536.502857 814.843791 
L 534.436289 814.53821 
L 533.211429 814.376206 
L 533.059514 814.53821 
L 532.568974 817.835936 
L 530.974008 821.133661 
z
M 464.091429 815.194295 
L 465.051269 814.53821 
L 464.091429 814.207263 
L 463.759831 814.53821 
z
M 506.88 752.195445 
L 507.331515 751.881425 
L 506.88 751.702253 
L 506.700374 751.881425 
z
M 559.542857 697.364364 
L 561.412594 695.82009 
L 559.542857 694.704161 
L 558.429059 695.82009 
z
M 558.889594 695.82009 
L 559.542857 695.165577 
L 560.639493 695.82009 
L 559.542857 696.725835 
z
" clip-path="url(#p617d755322)" style="fill: #eff6fc; fill-opacity: 0.9"/>
    <path d="M 459.15098 817.835936 
L 459.155475 814.53821 
L 458.977961 811.240484 
L 460.8 809.41496 
L 464.091429 809.601115 
L 467.155393 811.240484 
L 467.382857 812.869307 
L 470.674286 811.653684 
L 471.083365 811.240484 
L 471.423074 807.942759 
L 472.003861 804.645033 
L 473.965714 803.008926 
L 475.28264 801.347308 
L 475.617473 798.049582 
L 477.222014 794.751857 
L 477.257143 794.716661 
L 479.177757 791.454131 
L 478.912385 788.156406 
L 478.912385 784.85868 
L 480.548571 783.219364 
L 482.198831 781.560955 
L 482.013571 778.263229 
L 483.84 776.623913 
L 487.131429 776.585256 
L 490.126775 778.263229 
L 490.422857 780.542742 
L 490.716942 778.263229 
L 493.714286 775.633614 
L 494.377939 774.965503 
L 494.753676 771.667778 
L 495.969891 768.370052 
L 497.005714 767.218646 
L 498.500223 765.072327 
L 499.120174 761.774601 
L 500.297143 760.595381 
L 502.257449 758.476876 
L 501.923837 755.17915 
L 501.923837 751.881425 
L 503.588571 750.213506 
L 505.210366 748.583699 
L 505.052591 745.285974 
L 506.88 743.455069 
L 508.512361 745.285974 
L 510.171429 748.413276 
L 512.075262 748.583699 
L 513.462857 749.344956 
L 513.587696 748.583699 
L 514.587742 745.285974 
L 516.754286 743.782559 
L 517.709075 741.988248 
L 518.390739 738.690522 
L 520.045714 737.321247 
L 521.49423 735.392797 
L 522.084851 732.095071 
L 523.337143 730.840384 
L 525.545856 728.797346 
L 525.00031 725.49962 
L 526.628571 723.868244 
L 528.287578 722.201895 
L 528.096643 718.904169 
L 529.92 717.077324 
L 531.383959 715.606444 
L 533.211429 713.775478 
L 534.843123 715.606444 
L 536.502857 718.842233 
L 537.090619 718.904169 
L 539.794286 721.119978 
L 543.085714 719.497378 
L 543.621553 718.904169 
L 544.052114 715.606444 
L 546.377143 713.683348 
L 547.569302 712.308718 
L 548.015233 709.010993 
L 549.668571 707.594757 
L 551.300517 705.713267 
L 552.96 703.628694 
L 554.403289 702.415541 
L 556.251429 700.794787 
L 558.263257 699.117816 
L 559.542857 698.002892 
L 562.185696 695.82009 
L 559.542857 694.242745 
L 557.968524 695.82009 
L 556.251429 697.719382 
L 554.623354 695.82009 
L 556.251429 694.188901 
L 557.914782 692.522365 
L 557.718965 689.224639 
L 559.542857 687.397258 
L 562.834286 687.393322 
L 564.449178 689.224639 
L 566.067508 692.522365 
L 566.125714 693.00406 
L 569.417143 695.530788 
L 569.809973 692.522365 
L 572.708571 690.125528 
L 573.622865 689.224639 
L 574.099093 685.926914 
L 576 684.343664 
L 576 683.72779 
L 573.359651 685.926914 
L 572.972152 689.224639 
L 572.708571 689.484355 
L 569.612292 689.224639 
L 569.417143 689.195758 
L 569.388317 689.224639 
L 566.125714 691.718006 
L 564.880214 689.224639 
L 562.834286 686.904519 
L 559.542857 686.907143 
L 557.229786 689.224639 
L 557.478123 692.522365 
L 556.251429 693.751406 
L 554.186694 695.82009 
L 556.251429 698.228783 
L 557.530418 699.117816 
L 556.251429 700.183924 
L 553.706725 702.415541 
L 552.96 703.043199 
L 550.834417 705.713267 
L 549.668571 707.057385 
L 547.387896 709.010993 
L 547.003938 712.308718 
L 546.377143 713.03145 
L 543.263967 715.606444 
L 543.085714 717.068495 
L 541.244503 715.606444 
L 539.794286 715.4098 
L 539.598018 715.606444 
L 536.502857 717.992782 
L 535.278832 715.606444 
L 533.211429 713.286558 
L 530.895973 715.606444 
L 529.92 716.58703 
L 527.607286 718.904169 
L 527.851674 722.201895 
L 526.628571 723.430411 
L 524.563313 725.49962 
L 524.965517 728.797346 
L 523.337143 730.303576 
L 521.549068 732.095071 
L 521.002892 735.392797 
L 520.045714 736.667115 
L 517.600121 738.690522 
L 517.092968 741.988248 
L 516.754286 742.624724 
L 513.462857 744.942879 
L 513.120418 745.285974 
L 510.171429 747.591578 
L 508.948281 745.285974 
L 506.88 742.966129 
L 504.564585 745.285974 
L 504.76714 748.583699 
L 503.588571 749.76809 
L 501.479273 751.881425 
L 501.479273 755.17915 
L 501.72171 758.476876 
L 500.297143 760.016407 
L 498.542306 761.774601 
L 498.02309 765.072327 
L 497.005714 766.533417 
L 495.353449 768.370052 
L 494.161011 771.667778 
L 493.714286 774.84038 
L 490.422857 774.853055 
L 490.310623 774.965503 
L 487.131429 776.142589 
L 483.84 776.185608 
L 481.525238 778.263229 
L 481.76268 781.560955 
L 480.548571 782.781059 
L 478.474917 784.85868 
L 478.474917 788.156406 
L 478.670153 791.454131 
L 477.257143 793.854399 
L 476.361399 794.751857 
L 475.180926 798.049582 
L 474.760918 801.347308 
L 473.965714 802.350648 
L 471.214521 804.645033 
L 470.755564 807.942759 
L 470.674286 808.640427 
L 467.382857 810.561076 
L 464.091429 809.162824 
L 460.8 808.924226 
L 458.488165 811.240484 
L 458.713398 814.53821 
L 458.710109 817.835936 
L 459.10991 821.133661 
L 459.697477 821.133661 
z
M 558.429059 695.82009 
L 559.542857 694.704161 
L 561.412594 695.82009 
L 559.542857 697.364364 
z
M 529.92 821.133661 
L 530.974008 821.133661 
L 532.568974 817.835936 
L 533.059514 814.53821 
L 533.211429 814.376206 
L 534.436289 814.53821 
L 536.502857 814.843791 
L 536.760357 814.53821 
L 539.794286 812.130905 
L 540.682666 811.240484 
L 541.999306 807.942759 
L 543.085714 807.232292 
L 544.529438 804.645033 
L 546.377143 802.980908 
L 548.007193 801.347308 
L 548.307998 798.049582 
L 549.668571 796.391741 
L 551.608028 794.751857 
L 552.104376 791.454131 
L 552.96 789.932306 
L 555.496715 788.156406 
L 556.251429 785.036402 
L 559.542857 787.627184 
L 562.834286 785.616778 
L 563.695284 784.85868 
L 566.125714 782.976404 
L 567.70703 781.560955 
L 569.417143 780.195093 
L 571.120639 778.263229 
L 572.708571 776.776923 
L 574.418625 774.965503 
L 575.065722 771.667778 
L 576 770.760783 
L 576 769.855796 
L 574.133513 771.667778 
L 573.729911 774.965503 
L 572.708571 776.047385 
L 570.341218 778.263229 
L 569.417143 779.311185 
L 566.600341 781.560955 
L 566.125714 781.985797 
L 562.834286 782.242372 
L 561.972548 781.560955 
L 559.542857 779.652552 
L 556.251429 781.405299 
L 556.094117 781.560955 
L 555.256238 784.85868 
L 553.573088 788.156406 
L 552.96 788.585615 
L 551.347219 791.454131 
L 550.732644 794.751857 
L 549.668571 795.65157 
L 547.700548 798.049582 
L 547.483463 801.347308 
L 546.377143 802.456037 
L 543.946665 804.645033 
L 543.085714 806.18792 
L 540.40231 807.942759 
L 539.923639 811.240484 
L 539.794286 811.370135 
L 539.087189 811.240484 
L 537.570249 807.942759 
L 536.502857 807.32619 
L 536.264357 807.942759 
L 535.74466 811.240484 
L 533.211429 813.358464 
L 532.105152 814.53821 
L 531.75906 817.835936 
L 529.92 820.50322 
L 529.283861 821.133661 
z
M 464.091429 816.435016 
L 466.866422 814.53821 
L 464.091429 813.581409 
L 463.132747 814.53821 
z
M 463.759831 814.53821 
L 464.091429 814.207263 
L 465.051269 814.53821 
L 464.091429 815.194295 
z
M 483.84 785.355972 
L 484.651304 784.85868 
L 483.84 784.593861 
L 483.574211 784.85868 
z
M 506.88 753.342004 
L 508.980099 751.881425 
L 506.88 751.048058 
L 506.044517 751.881425 
z
M 506.700374 751.881425 
L 506.88 751.702253 
L 507.331515 751.881425 
L 506.88 752.195445 
z
" clip-path="url(#p617d755322)" style="fill: #eaf3fb; fill-opacity: 0.9"/>
    <path d="M 459.591851 817.835936 
L 459.597553 814.53821 
L 459.467758 811.240484 
L 460.8 809.905693 
L 464.091429 810.039405 
L 466.336232 811.240484 
L 464.091429 812.955556 
L 462.505663 814.53821 
L 464.091429 817.675737 
L 465.637107 817.835936 
L 467.382857 818.668547 
L 467.542422 817.835936 
L 468.050258 814.53821 
L 470.674286 812.410165 
L 471.832301 811.240484 
L 472.090584 807.942759 
L 472.7932 804.645033 
L 473.965714 803.667204 
L 475.804363 801.347308 
L 476.054021 798.049582 
L 477.257143 795.603261 
L 478.247312 794.751857 
L 479.685361 791.454131 
L 479.349853 788.156406 
L 479.349853 784.85868 
L 480.548571 783.657669 
L 482.765244 784.85868 
L 483.84 786.86955 
L 487.120624 784.85868 
L 483.84 783.787847 
L 482.634983 781.560955 
L 482.501904 778.263229 
L 483.84 777.062218 
L 487.131429 777.027924 
L 489.336569 778.263229 
L 487.131429 781.036232 
L 486.603292 781.560955 
L 487.131429 784.831579 
L 490.422857 783.311046 
L 491.164103 781.560955 
L 491.501814 778.263229 
L 493.714286 776.322195 
L 495.061926 774.965503 
L 495.346341 771.667778 
L 496.586333 768.370052 
L 497.005714 767.903874 
L 498.977356 765.072327 
L 499.698042 761.774601 
L 500.297143 761.174354 
L 502.793187 758.476876 
L 502.368402 755.17915 
L 502.368402 751.881425 
L 503.588571 750.658921 
L 505.388661 751.881425 
L 506.88 754.488562 
L 510.171429 753.624485 
L 513.462857 752.368546 
L 513.947026 751.881425 
L 514.413539 748.583699 
L 516.256276 745.285974 
L 516.754286 744.940393 
L 518.325182 741.988248 
L 519.181356 738.690522 
L 520.045714 737.975379 
L 521.985568 735.392797 
L 522.620634 732.095071 
L 523.337143 731.377192 
L 526.126195 728.797346 
L 525.437307 725.49962 
L 526.628571 724.306077 
L 528.723481 722.201895 
L 528.586 718.904169 
L 529.92 717.567617 
L 531.871946 715.606444 
L 533.211429 714.264398 
L 534.407414 715.606444 
L 535.676956 718.904169 
L 533.211429 722.111906 
L 533.12089 722.201895 
L 533.211429 722.68615 
L 536.502857 725.158537 
L 536.951718 725.49962 
L 539.794286 725.867082 
L 540.152121 725.49962 
L 540.681947 722.201895 
L 543.085714 720.325839 
L 544.369894 718.904169 
L 544.84026 715.606444 
L 546.377143 714.335246 
L 548.134667 712.308718 
L 548.64257 709.010993 
L 549.668571 708.132129 
L 551.766617 705.713267 
L 552.96 704.214189 
L 555.099854 702.415541 
L 556.251429 701.40565 
L 558.996097 699.117816 
L 559.542857 698.64142 
L 562.834286 696.968238 
L 565.135379 699.117816 
L 566.125714 699.488672 
L 566.279477 699.117816 
L 569.417143 696.69165 
L 570.297295 695.82009 
L 570.58537 692.522365 
L 572.708571 690.7667 
L 574.273578 689.224639 
L 574.838534 685.926914 
L 576 684.959539 
L 576 684.343664 
L 574.099093 685.926914 
L 573.622865 689.224639 
L 572.708571 690.125528 
L 569.809973 692.522365 
L 569.417143 695.530788 
L 566.125714 693.00406 
L 566.067508 692.522365 
L 564.449178 689.224639 
L 562.834286 687.393322 
L 559.542857 687.397258 
L 557.718965 689.224639 
L 557.914782 692.522365 
L 556.251429 694.188901 
L 554.623354 695.82009 
L 556.251429 697.719382 
L 557.968524 695.82009 
L 559.542857 694.242745 
L 562.185696 695.82009 
L 559.542857 698.002892 
L 558.263257 699.117816 
L 556.251429 700.794787 
L 554.403289 702.415541 
L 552.96 703.628694 
L 551.300517 705.713267 
L 549.668571 707.594757 
L 548.015233 709.010993 
L 547.569302 712.308718 
L 546.377143 713.683348 
L 544.052114 715.606444 
L 543.621553 718.904169 
L 543.085714 719.497378 
L 539.794286 721.119978 
L 537.090619 718.904169 
L 536.502857 718.842233 
L 534.843123 715.606444 
L 533.211429 713.775478 
L 531.383959 715.606444 
L 529.92 717.077324 
L 528.096643 718.904169 
L 528.287578 722.201895 
L 526.628571 723.868244 
L 525.00031 725.49962 
L 525.545856 728.797346 
L 523.337143 730.840384 
L 522.084851 732.095071 
L 521.49423 735.392797 
L 520.045714 737.321247 
L 518.390739 738.690522 
L 517.709075 741.988248 
L 516.754286 743.782559 
L 514.587742 745.285974 
L 513.587696 748.583699 
L 513.462857 749.344956 
L 512.075262 748.583699 
L 510.171429 748.413276 
L 508.512361 745.285974 
L 506.88 743.455069 
L 505.052591 745.285974 
L 505.210366 748.583699 
L 503.588571 750.213506 
L 501.923837 751.881425 
L 501.923837 755.17915 
L 502.257449 758.476876 
L 500.297143 760.595381 
L 499.120174 761.774601 
L 498.500223 765.072327 
L 497.005714 767.218646 
L 495.969891 768.370052 
L 494.753676 771.667778 
L 494.377939 774.965503 
L 493.714286 775.633614 
L 490.716942 778.263229 
L 490.422857 780.542742 
L 490.126775 778.263229 
L 487.131429 776.585256 
L 483.84 776.623913 
L 482.013571 778.263229 
L 482.198831 781.560955 
L 480.548571 783.219364 
L 478.912385 784.85868 
L 478.912385 788.156406 
L 479.177757 791.454131 
L 477.257143 794.716661 
L 477.222014 794.751857 
L 475.617473 798.049582 
L 475.28264 801.347308 
L 473.965714 803.008926 
L 472.003861 804.645033 
L 471.423074 807.942759 
L 471.083365 811.240484 
L 470.674286 811.653684 
L 467.382857 812.869307 
L 467.155393 811.240484 
L 464.091429 809.601115 
L 460.8 809.41496 
L 458.977961 811.240484 
L 459.155475 814.53821 
L 459.15098 817.835936 
L 459.697477 821.133661 
L 460.285043 821.133661 
z
M 463.132747 814.53821 
L 464.091429 813.581409 
L 466.866422 814.53821 
L 464.091429 816.435016 
z
M 483.574211 784.85868 
L 483.84 784.593861 
L 484.651304 784.85868 
L 483.84 785.355972 
z
M 506.044517 751.881425 
L 506.88 751.048058 
L 508.980099 751.881425 
L 506.88 753.342004 
z
M 505.653591 748.583699 
L 505.540598 745.285974 
L 506.88 743.944009 
L 508.076442 745.285974 
L 509.438546 748.583699 
L 506.88 750.393863 
z
M 555.060013 695.82009 
L 556.251429 694.626395 
L 557.507989 695.82009 
L 556.251429 697.209981 
z
M 558.351442 692.522365 
L 558.208144 689.224639 
L 559.542857 687.887372 
L 562.834286 687.882125 
L 564.018142 689.224639 
L 565.209418 692.522365 
L 562.834286 695.638759 
L 559.542857 693.781329 
z
M 529.92 820.50322 
L 531.75906 817.835936 
L 532.105152 814.53821 
L 533.211429 813.358464 
L 535.74466 811.240484 
L 536.264357 807.942759 
L 536.502857 807.32619 
L 537.570249 807.942759 
L 539.087189 811.240484 
L 539.794286 811.370135 
L 539.923639 811.240484 
L 540.40231 807.942759 
L 543.085714 806.18792 
L 543.946665 804.645033 
L 546.377143 802.456037 
L 547.483463 801.347308 
L 547.700548 798.049582 
L 549.668571 795.65157 
L 550.732644 794.751857 
L 551.347219 791.454131 
L 552.96 788.585615 
L 553.573088 788.156406 
L 555.256238 784.85868 
L 556.094117 781.560955 
L 556.251429 781.405299 
L 559.542857 779.652552 
L 561.972548 781.560955 
L 562.834286 782.242372 
L 566.125714 781.985797 
L 566.600341 781.560955 
L 569.417143 779.311185 
L 570.341218 778.263229 
L 572.708571 776.047385 
L 573.729911 774.965503 
L 574.133513 771.667778 
L 576 769.855796 
L 576 768.950809 
L 573.201305 771.667778 
L 573.041197 774.965503 
L 572.708571 775.317846 
L 569.561797 778.263229 
L 569.417143 778.427276 
L 567.727252 778.263229 
L 566.125714 776.857862 
L 563.723937 774.965503 
L 562.834286 774.268168 
L 559.542857 774.816773 
L 559.390822 774.965503 
L 558.263011 778.263229 
L 556.251429 780.037447 
L 554.711711 781.560955 
L 554.238298 784.85868 
L 552.96 786.996556 
L 551.776912 788.156406 
L 550.590062 791.454131 
L 549.85726 794.751857 
L 549.668571 794.9114 
L 547.093098 798.049582 
L 546.959732 801.347308 
L 546.377143 801.931166 
L 543.363892 804.645033 
L 543.085714 805.143549 
L 541.396016 804.645033 
L 539.876062 801.347308 
L 539.794286 801.287623 
L 539.76485 801.347308 
L 536.502857 804.220881 
L 536.070371 804.645033 
L 534.959118 807.942759 
L 534.527377 811.240484 
L 533.211429 812.340721 
L 531.15079 814.53821 
L 530.949146 817.835936 
L 529.92 819.328559 
L 528.098584 821.133661 
L 529.283861 821.133661 
z
" clip-path="url(#p617d755322)" style="fill: #e5eff9; fill-opacity: 0.9"/>
    <path d="M 460.8 821.133661 
L 464.091429 821.133661 
L 467.382857 821.133661 
L 468.136721 821.133661 
L 468.636604 817.835936 
L 468.983051 814.53821 
L 470.674286 813.166645 
L 472.581237 811.240484 
L 472.758094 807.942759 
L 473.58254 804.645033 
L 473.965714 804.325482 
L 476.326086 801.347308 
L 476.490568 798.049582 
L 477.257143 796.490897 
L 479.279618 794.751857 
L 480.192964 791.454131 
L 479.787321 788.156406 
L 479.787321 784.85868 
L 480.548571 784.095974 
L 481.956277 784.85868 
L 483.579126 788.156406 
L 483.84 789.082779 
L 487.131429 790.892676 
L 487.770526 788.156406 
L 490.422857 785.262685 
L 490.818342 784.85868 
L 492.054346 781.560955 
L 492.286687 778.263229 
L 493.714286 777.010775 
L 495.745913 774.965503 
L 495.939005 771.667778 
L 497.005714 768.867428 
L 497.501019 768.370052 
L 499.454489 765.072327 
L 500.275909 761.774601 
L 500.297143 761.753327 
L 503.328926 758.476876 
L 502.812967 755.17915 
L 502.812967 751.881425 
L 503.588571 751.104336 
L 504.732804 751.881425 
L 506.269002 755.17915 
L 506.88 757.708628 
L 508.049329 758.476876 
L 510.171429 758.819339 
L 510.509808 758.476876 
L 511.118244 755.17915 
L 513.462857 753.35 
L 514.922531 751.881425 
L 515.239383 748.583699 
L 516.754286 746.198253 
L 517.66257 745.285974 
L 518.941289 741.988248 
L 519.971973 738.690522 
L 520.045714 738.629511 
L 522.476906 735.392797 
L 523.156417 732.095071 
L 523.337143 731.913999 
L 526.628571 729.119854 
L 527.550641 728.797346 
L 526.628571 728.559214 
L 525.874304 725.49962 
L 526.628571 724.74391 
L 529.0647 725.49962 
L 529.92 727.600559 
L 532.732944 728.797346 
L 533.211429 729.185645 
L 536.502857 731.651584 
L 537.227036 728.797346 
L 539.794286 727.003276 
L 541.258551 725.49962 
L 541.743445 722.201895 
L 543.085714 721.1543 
L 545.118235 718.904169 
L 545.628407 715.606444 
L 546.377143 714.987144 
L 548.700031 712.308718 
L 549.269908 709.010993 
L 549.668571 708.669501 
L 552.232717 705.713267 
L 552.96 704.799684 
L 555.796418 702.415541 
L 556.251429 702.016513 
L 559.542857 700.934297 
L 561.104533 702.415541 
L 562.834286 703.9995 
L 565.811809 702.415541 
L 566.125714 702.346446 
L 567.464357 699.117816 
L 569.417143 697.607845 
L 571.222524 695.82009 
L 571.360768 692.522365 
L 572.708571 691.407872 
L 574.924291 689.224639 
L 575.577976 685.926914 
L 576 685.575413 
L 576 684.959539 
L 574.838534 685.926914 
L 574.273578 689.224639 
L 572.708571 690.7667 
L 570.58537 692.522365 
L 570.297295 695.82009 
L 569.417143 696.69165 
L 566.279477 699.117816 
L 566.125714 699.488672 
L 565.135379 699.117816 
L 562.834286 696.968238 
L 559.542857 698.64142 
L 558.996097 699.117816 
L 556.251429 701.40565 
L 555.099854 702.415541 
L 552.96 704.214189 
L 551.766617 705.713267 
L 549.668571 708.132129 
L 548.64257 709.010993 
L 548.134667 712.308718 
L 546.377143 714.335246 
L 544.84026 715.606444 
L 544.369894 718.904169 
L 543.085714 720.325839 
L 540.681947 722.201895 
L 540.152121 725.49962 
L 539.794286 725.867082 
L 536.951718 725.49962 
L 536.502857 725.158537 
L 533.211429 722.68615 
L 533.12089 722.201895 
L 533.211429 722.111906 
L 535.676956 718.904169 
L 534.407414 715.606444 
L 533.211429 714.264398 
L 531.871946 715.606444 
L 529.92 717.567617 
L 528.586 718.904169 
L 528.723481 722.201895 
L 526.628571 724.306077 
L 525.437307 725.49962 
L 526.126195 728.797346 
L 523.337143 731.377192 
L 522.620634 732.095071 
L 521.985568 735.392797 
L 520.045714 737.975379 
L 519.181356 738.690522 
L 518.325182 741.988248 
L 516.754286 744.940393 
L 516.256276 745.285974 
L 514.413539 748.583699 
L 513.947026 751.881425 
L 513.462857 752.368546 
L 510.171429 753.624485 
L 506.88 754.488562 
L 505.388661 751.881425 
L 503.588571 750.658921 
L 502.368402 751.881425 
L 502.368402 755.17915 
L 502.793187 758.476876 
L 500.297143 761.174354 
L 499.698042 761.774601 
L 498.977356 765.072327 
L 497.005714 767.903874 
L 496.586333 768.370052 
L 495.346341 771.667778 
L 495.061926 774.965503 
L 493.714286 776.322195 
L 491.501814 778.263229 
L 491.164103 781.560955 
L 490.422857 783.311046 
L 487.131429 784.831579 
L 486.603292 781.560955 
L 487.131429 781.036232 
L 489.336569 778.263229 
L 487.131429 777.027924 
L 483.84 777.062218 
L 482.501904 778.263229 
L 482.634983 781.560955 
L 483.84 783.787847 
L 487.120624 784.85868 
L 483.84 786.86955 
L 482.765244 784.85868 
L 480.548571 783.657669 
L 479.349853 784.85868 
L 479.349853 788.156406 
L 479.685361 791.454131 
L 478.247312 794.751857 
L 477.257143 795.603261 
L 476.054021 798.049582 
L 475.804363 801.347308 
L 473.965714 803.667204 
L 472.7932 804.645033 
L 472.090584 807.942759 
L 471.832301 811.240484 
L 470.674286 812.410165 
L 468.050258 814.53821 
L 467.542422 817.835936 
L 467.382857 818.668547 
L 465.637107 817.835936 
L 464.091429 817.675737 
L 462.505663 814.53821 
L 464.091429 812.955556 
L 466.336232 811.240484 
L 464.091429 810.039405 
L 460.8 809.905693 
L 459.467758 811.240484 
L 459.597553 814.53821 
L 459.591851 817.835936 
L 460.285043 821.133661 
z
M 460.032721 817.835936 
L 460.03963 814.53821 
L 459.957554 811.240484 
L 460.8 810.396427 
L 464.091429 810.477696 
L 465.517072 811.240484 
L 464.091429 812.329702 
L 461.878579 814.53821 
L 462.9937 817.835936 
L 460.8 820.915026 
z
M 483.071134 781.560955 
L 482.990238 778.263229 
L 483.84 777.500522 
L 487.131429 777.470592 
L 488.546364 778.263229 
L 487.131429 780.042535 
L 485.60313 781.560955 
L 483.84 782.981832 
z
M 529.159384 722.201895 
L 529.075357 718.904169 
L 529.92 718.05791 
L 532.359932 715.606444 
L 533.211429 714.753318 
L 533.971705 715.606444 
L 534.786099 718.904169 
L 533.211429 720.95287 
L 531.954775 722.201895 
L 529.92 724.64957 
z
M 529.92 819.328559 
L 530.949146 817.835936 
L 531.15079 814.53821 
L 533.211429 812.340721 
L 534.527377 811.240484 
L 534.959118 807.942759 
L 536.070371 804.645033 
L 536.502857 804.220881 
L 539.76485 801.347308 
L 539.794286 801.287623 
L 539.876062 801.347308 
L 541.396016 804.645033 
L 543.085714 805.143549 
L 543.363892 804.645033 
L 546.377143 801.931166 
L 546.959732 801.347308 
L 547.093098 798.049582 
L 549.668571 794.9114 
L 549.85726 794.751857 
L 550.590062 791.454131 
L 551.776912 788.156406 
L 552.96 786.996556 
L 554.238298 784.85868 
L 554.711711 781.560955 
L 556.251429 780.037447 
L 558.263011 778.263229 
L 559.390822 774.965503 
L 559.542857 774.816773 
L 562.834286 774.268168 
L 563.723937 774.965503 
L 566.125714 776.857862 
L 567.727252 778.263229 
L 569.417143 778.427276 
L 569.561797 778.263229 
L 572.708571 775.317846 
L 573.041197 774.965503 
L 573.201305 771.667778 
L 576 768.950809 
L 576 768.370052 
L 576 765.072327 
L 576 761.774601 
L 576 758.476876 
L 576 755.17915 
L 576 751.881425 
L 576 749.939662 
L 572.708571 751.703249 
L 572.664104 751.881425 
L 569.417143 754.817015 
L 569.06281 755.17915 
L 568.466906 758.476876 
L 566.125714 760.878244 
L 565.192267 761.774601 
L 564.58102 765.072327 
L 562.834286 767.258466 
L 561.617679 768.370052 
L 560.644273 771.667778 
L 559.542857 772.463964 
L 556.985745 774.965503 
L 556.712161 778.263229 
L 556.251429 778.669596 
L 553.329306 781.560955 
L 553.220358 784.85868 
L 552.96 785.294114 
L 550.804271 784.85868 
L 550.244539 781.560955 
L 549.668571 779.388626 
L 548.612595 781.560955 
L 546.377143 783.112901 
L 545.650718 784.85868 
L 544.991098 788.156406 
L 543.085714 789.821733 
L 541.770712 791.454131 
L 541.550379 794.751857 
L 539.794286 796.66288 
L 538.35005 798.049582 
L 537.420906 801.347308 
L 536.502857 802.156041 
L 533.964959 804.645033 
L 533.65388 807.942759 
L 533.310095 811.240484 
L 533.211429 811.322978 
L 530.196428 814.53821 
L 530.139231 817.835936 
L 529.92 818.153898 
L 526.913307 821.133661 
L 528.098584 821.133661 
z
M 545.780028 801.347308 
L 545.467966 798.049582 
L 546.377143 795.746833 
L 546.485648 798.049582 
L 546.436002 801.347308 
L 546.377143 801.406295 
z
M 548.297447 791.454131 
L 548.046061 788.156406 
L 549.668571 786.13249 
L 550.040359 788.156406 
L 549.832906 791.454131 
L 549.668571 792.168807 
z
M 506.88 750.393863 
L 509.438546 748.583699 
L 508.076442 745.285974 
L 506.88 743.944009 
L 505.540598 745.285974 
L 505.653591 748.583699 
z
M 506.096817 748.583699 
L 506.028605 745.285974 
L 506.88 744.43295 
L 507.640522 745.285974 
L 508.513884 748.583699 
L 506.88 749.739667 
z
M 556.251429 697.209981 
L 557.507989 695.82009 
L 556.251429 694.626395 
L 555.060013 695.82009 
z
M 555.496672 695.82009 
L 556.251429 695.06389 
L 557.047453 695.82009 
L 556.251429 696.700579 
z
M 559.542857 693.781329 
L 562.834286 695.638759 
L 565.209418 692.522365 
L 564.018142 689.224639 
L 562.834286 687.882125 
L 559.542857 687.887372 
L 558.208144 689.224639 
L 558.351442 692.522365 
z
M 558.788101 692.522365 
L 558.697322 689.224639 
L 559.542857 688.377487 
L 562.834286 688.370927 
L 563.587106 689.224639 
L 564.351328 692.522365 
L 562.834286 694.512866 
L 559.542857 693.319913 
z
" clip-path="url(#p617d755322)" style="fill: #dfecf7; fill-opacity: 0.9"/>
    <path d="M 460.8 820.915026 
L 462.9937 817.835936 
L 461.878579 814.53821 
L 464.091429 812.329702 
L 465.517072 811.240484 
L 464.091429 810.477696 
L 460.8 810.396427 
L 459.957554 811.240484 
L 460.03963 814.53821 
L 460.032721 817.835936 
z
M 460.473592 817.835936 
L 460.481708 814.53821 
L 460.447351 811.240484 
L 460.8 810.88716 
L 464.091429 810.915987 
L 464.697911 811.240484 
L 464.091429 811.703848 
L 461.251495 814.53821 
L 461.733221 817.835936 
L 460.8 819.145811 
z
M 469.730786 817.835936 
L 469.915843 814.53821 
L 470.674286 813.923125 
L 473.330173 811.240484 
L 473.425604 807.942759 
L 473.965714 805.926958 
L 475.227758 804.645033 
L 476.847808 801.347308 
L 476.927115 798.049582 
L 477.257143 797.378533 
L 480.311924 794.751857 
L 480.548571 793.321929 
L 483.007947 794.751857 
L 483.84 795.221524 
L 484.102077 794.751857 
L 487.131429 793.112267 
L 488.747117 791.454131 
L 489.174843 788.156406 
L 490.422857 786.79481 
L 492.318156 784.85868 
L 492.944589 781.560955 
L 493.071559 778.263229 
L 493.714286 777.699356 
L 496.429899 774.965503 
L 496.53167 771.667778 
L 497.005714 770.423306 
L 499.05042 768.370052 
L 499.931623 765.072327 
L 500.297143 763.611468 
L 503.588571 761.780608 
L 506.88 763.968813 
L 507.815577 761.774601 
L 510.171429 760.381672 
L 512.05351 758.476876 
L 512.376275 755.17915 
L 513.462857 754.331453 
L 515.898037 751.881425 
L 516.065227 748.583699 
L 516.754286 747.49867 
L 518.957293 745.285974 
L 519.557396 741.988248 
L 520.045714 740.450138 
L 521.806366 738.690522 
L 522.968244 735.392797 
L 523.337143 733.641143 
L 525.755319 732.095071 
L 526.628571 731.520559 
L 528.569847 732.095071 
L 529.92 733.204474 
L 532.752144 735.392797 
L 533.211429 735.73367 
L 533.39652 735.392797 
L 536.502857 733.777616 
L 538.477697 732.095071 
L 538.85289 728.797346 
L 539.794286 728.139471 
L 542.364982 725.49962 
L 542.804942 722.201895 
L 543.085714 721.982762 
L 545.866576 718.904169 
L 546.377143 715.831635 
L 546.586466 715.606444 
L 549.265395 712.308718 
L 549.668571 710.126455 
L 550.742476 709.010993 
L 552.698816 705.713267 
L 552.96 705.385179 
L 556.251429 704.901864 
L 557.099987 705.713267 
L 559.542857 707.983671 
L 562.834286 707.243123 
L 564.723622 705.713267 
L 566.125714 704.513611 
L 568.202663 702.415541 
L 568.649237 699.117816 
L 569.417143 698.524041 
L 572.147752 695.82009 
L 572.136165 692.522365 
L 572.708571 692.049045 
L 575.575004 689.224639 
L 576 687.234762 
L 576 685.926914 
L 576 685.575413 
L 575.577976 685.926914 
L 574.924291 689.224639 
L 572.708571 691.407872 
L 571.360768 692.522365 
L 571.222524 695.82009 
L 569.417143 697.607845 
L 567.464357 699.117816 
L 566.125714 702.346446 
L 565.811809 702.415541 
L 562.834286 703.9995 
L 561.104533 702.415541 
L 559.542857 700.934297 
L 556.251429 702.016513 
L 555.796418 702.415541 
L 552.96 704.799684 
L 552.232717 705.713267 
L 549.668571 708.669501 
L 549.269908 709.010993 
L 548.700031 712.308718 
L 546.377143 714.987144 
L 545.628407 715.606444 
L 545.118235 718.904169 
L 543.085714 721.1543 
L 541.743445 722.201895 
L 541.258551 725.49962 
L 539.794286 727.003276 
L 537.227036 728.797346 
L 536.502857 731.651584 
L 533.211429 729.185645 
L 532.732944 728.797346 
L 529.92 727.600559 
L 529.0647 725.49962 
L 526.628571 724.74391 
L 525.874304 725.49962 
L 526.628571 728.559214 
L 527.550641 728.797346 
L 526.628571 729.119854 
L 523.337143 731.913999 
L 523.156417 732.095071 
L 522.476906 735.392797 
L 520.045714 738.629511 
L 519.971973 738.690522 
L 518.941289 741.988248 
L 517.66257 745.285974 
L 516.754286 746.198253 
L 515.239383 748.583699 
L 514.922531 751.881425 
L 513.462857 753.35 
L 511.118244 755.17915 
L 510.509808 758.476876 
L 510.171429 758.819339 
L 508.049329 758.476876 
L 506.88 757.708628 
L 506.269002 755.17915 
L 504.732804 751.881425 
L 503.588571 751.104336 
L 502.812967 751.881425 
L 502.812967 755.17915 
L 503.328926 758.476876 
L 500.297143 761.753327 
L 500.275909 761.774601 
L 499.454489 765.072327 
L 497.501019 768.370052 
L 497.005714 768.867428 
L 495.939005 771.667778 
L 495.745913 774.965503 
L 493.714286 777.010775 
L 492.286687 778.263229 
L 492.054346 781.560955 
L 490.818342 784.85868 
L 490.422857 785.262685 
L 487.770526 788.156406 
L 487.131429 790.892676 
L 483.84 789.082779 
L 483.579126 788.156406 
L 481.956277 784.85868 
L 480.548571 784.095974 
L 479.787321 784.85868 
L 479.787321 788.156406 
L 480.192964 791.454131 
L 479.279618 794.751857 
L 477.257143 796.490897 
L 476.490568 798.049582 
L 476.326086 801.347308 
L 473.965714 804.325482 
L 473.58254 804.645033 
L 472.758094 807.942759 
L 472.581237 811.240484 
L 470.674286 813.166645 
L 468.983051 814.53821 
L 468.636604 817.835936 
L 468.136721 821.133661 
L 469.463386 821.133661 
z
M 480.224789 788.156406 
L 480.224789 784.85868 
L 480.548571 784.534278 
L 481.14731 784.85868 
L 481.837556 788.156406 
L 480.548571 790.504247 
z
M 503.257532 755.17915 
L 503.257532 751.881425 
L 503.588571 751.549751 
L 504.076947 751.881425 
L 504.73262 755.17915 
L 503.588571 757.128067 
z
M 526.311301 725.49962 
L 526.628571 725.181742 
L 527.653291 725.49962 
L 526.628571 726.78659 
z
M 503.588571 821.133661 
L 506.88 821.133661 
L 510.171429 821.133661 
L 513.462857 821.133661 
L 516.754286 821.133661 
L 520.045714 821.133661 
L 523.337143 821.133661 
L 526.628571 821.133661 
L 526.913307 821.133661 
L 529.92 818.153898 
L 530.139231 817.835936 
L 530.196428 814.53821 
L 533.211429 811.322978 
L 533.310095 811.240484 
L 533.65388 807.942759 
L 533.964959 804.645033 
L 536.502857 802.156041 
L 537.420906 801.347308 
L 538.35005 798.049582 
L 539.794286 796.66288 
L 541.550379 794.751857 
L 541.770712 791.454131 
L 543.085714 789.821733 
L 544.991098 788.156406 
L 545.650718 784.85868 
L 546.377143 783.112901 
L 548.612595 781.560955 
L 549.668571 779.388626 
L 550.244539 781.560955 
L 550.804271 784.85868 
L 552.96 785.294114 
L 553.220358 784.85868 
L 553.329306 781.560955 
L 556.251429 778.669596 
L 556.712161 778.263229 
L 556.985745 774.965503 
L 559.542857 772.463964 
L 560.644273 771.667778 
L 561.617679 768.370052 
L 562.834286 767.258466 
L 564.58102 765.072327 
L 565.192267 761.774601 
L 566.125714 760.878244 
L 568.466906 758.476876 
L 569.06281 755.17915 
L 569.417143 754.817015 
L 572.664104 751.881425 
L 572.708571 751.703249 
L 576 749.939662 
L 576 748.583699 
L 576 745.285974 
L 576 741.988248 
L 576 738.690522 
L 576 735.392797 
L 576 732.095071 
L 576 730.141136 
L 574.507222 732.095071 
L 572.708571 734.733192 
L 572.140463 735.392797 
L 569.463056 738.690522 
L 569.417143 738.751515 
L 566.155041 741.988248 
L 566.125714 742.018432 
L 562.834286 744.914343 
L 562.236006 745.285974 
L 559.542857 747.241234 
L 557.258116 748.583699 
L 556.251429 749.20253 
L 553.678482 751.881425 
L 552.96 752.473623 
L 550.859001 755.17915 
L 549.668571 756.570796 
L 548.406728 758.476876 
L 546.377143 761.59577 
L 546.254027 761.774601 
L 544.063836 765.072327 
L 543.085714 766.361943 
L 541.543611 768.370052 
L 539.794286 770.645793 
L 538.899909 771.667778 
L 536.502857 774.486559 
L 536.01478 774.965503 
L 533.211429 777.904676 
L 532.808611 778.263229 
L 529.92 780.994325 
L 529.383352 781.560955 
L 526.628571 784.297704 
L 526.263679 784.85868 
L 524.336561 788.156406 
L 523.337143 789.979212 
L 522.580607 791.454131 
L 520.579984 794.751857 
L 520.045714 795.606968 
L 518.527391 798.049582 
L 516.754286 800.857373 
L 516.441931 801.347308 
L 514.509925 804.645033 
L 513.462857 806.024449 
L 512.14068 807.942759 
L 510.171429 810.351579 
L 509.443734 811.240484 
L 506.88 814.22629 
L 506.628467 814.53821 
L 504.594869 817.835936 
L 503.588571 819.761468 
L 502.93157 821.133661 
z
M 546.377143 801.406295 
L 546.436002 801.347308 
L 546.485648 798.049582 
L 546.377143 795.746833 
L 545.467966 798.049582 
L 545.780028 801.347308 
z
M 549.668571 792.168807 
L 549.832906 791.454131 
L 550.040359 788.156406 
L 549.668571 786.13249 
L 548.046061 788.156406 
L 548.297447 791.454131 
z
M 483.84 782.981832 
L 485.60313 781.560955 
L 487.131429 780.042535 
L 488.546364 778.263229 
L 487.131429 777.470592 
L 483.84 777.500522 
L 482.990238 778.263229 
L 483.071134 781.560955 
z
M 483.507285 781.560955 
L 483.478571 778.263229 
L 483.84 777.938827 
L 487.131429 777.913259 
L 487.756159 778.263229 
L 487.131429 779.048838 
L 484.602968 781.560955 
L 483.84 782.175818 
z
M 506.88 749.739667 
L 508.513884 748.583699 
L 507.640522 745.285974 
L 506.88 744.43295 
L 506.028605 745.285974 
L 506.096817 748.583699 
z
M 506.540042 748.583699 
L 506.516612 745.285974 
L 506.88 744.92189 
L 507.204602 745.285974 
L 507.589223 748.583699 
L 506.88 749.085472 
z
M 529.92 724.64957 
L 531.954775 722.201895 
L 533.211429 720.95287 
L 534.786099 718.904169 
L 533.971705 715.606444 
L 533.211429 714.753318 
L 532.359932 715.606444 
L 529.92 718.05791 
L 529.075357 718.904169 
L 529.159384 722.201895 
z
M 529.595288 722.201895 
L 529.564714 718.904169 
L 529.92 718.548204 
L 532.847919 715.606444 
L 533.211429 715.242238 
L 533.535996 715.606444 
L 533.895242 718.904169 
L 533.211429 719.793835 
L 530.78866 722.201895 
L 529.92 723.246825 
z
M 556.251429 696.700579 
L 557.047453 695.82009 
L 556.251429 695.06389 
L 555.496672 695.82009 
z
M 555.933332 695.82009 
L 556.251429 695.501385 
L 556.586918 695.82009 
L 556.251429 696.191178 
z
M 559.542857 693.319913 
L 562.834286 694.512866 
L 564.351328 692.522365 
L 563.587106 689.224639 
L 562.834286 688.370927 
L 559.542857 688.377487 
L 558.697322 689.224639 
L 558.788101 692.522365 
z
M 559.22476 692.522365 
L 559.186501 689.224639 
L 559.542857 688.867601 
L 562.834286 688.85973 
L 563.15607 689.224639 
L 563.493239 692.522365 
L 562.834286 693.386973 
L 559.542857 692.858496 
z
" clip-path="url(#p617d755322)" style="fill: #dae8f6; fill-opacity: 0.9"/>
    <path d="M 460.8 819.145811 
L 461.733221 817.835936 
L 461.251495 814.53821 
L 464.091429 811.703848 
L 464.697911 811.240484 
L 464.091429 810.915987 
L 460.8 810.88716 
L 460.447351 811.240484 
L 460.481708 814.53821 
L 460.473592 817.835936 
z
M 470.674286 821.133661 
L 472.836811 821.133661 
L 473.965714 818.94231 
L 475.04618 817.835936 
L 476.499189 814.53821 
L 477.257143 813.486414 
L 480.548571 811.288119 
L 480.575457 811.240484 
L 481.687755 807.942759 
L 483.834596 804.645033 
L 483.84 804.639477 
L 486.320472 801.347308 
L 487.131429 799.978601 
L 488.051426 798.049582 
L 490.049655 794.751857 
L 490.422857 794.153157 
L 491.94826 791.454131 
L 493.714286 788.502354 
L 493.924902 788.156406 
L 495.588922 784.85868 
L 497.005714 782.92527 
L 500.297143 781.854621 
L 500.417878 781.560955 
L 500.635583 778.263229 
L 503.588571 776.219454 
L 504.531617 774.965503 
L 506.88 771.837718 
L 507.041127 771.667778 
L 509.320004 768.370052 
L 510.171429 767.210101 
L 511.297815 768.370052 
L 512.12116 771.667778 
L 513.462857 773.504327 
L 514.43867 771.667778 
L 515.236943 768.370052 
L 516.754286 767.126722 
L 517.885284 765.072327 
L 519.538026 761.774601 
L 520.045714 760.865968 
L 521.438272 758.476876 
L 523.204597 755.17915 
L 523.337143 754.938042 
L 525.524565 751.881425 
L 526.628571 750.027288 
L 527.77297 751.881425 
L 527.546214 755.17915 
L 527.637934 758.476876 
L 526.628571 759.955088 
L 525.312617 761.774601 
L 525.16147 765.072327 
L 523.868796 768.370052 
L 523.337143 769.52191 
L 522.474335 771.667778 
L 521.732408 774.965503 
L 520.533752 778.263229 
L 520.045714 779.35594 
L 518.898313 781.560955 
L 517.023996 784.85868 
L 516.754286 785.288552 
L 514.357246 788.156406 
L 513.462857 789.527818 
L 511.016128 791.454131 
L 510.171429 792.339404 
L 506.88 793.235684 
L 506.77995 794.751857 
L 504.598475 798.049582 
L 503.588571 799.563304 
L 503.037484 801.347308 
L 502.071996 804.645033 
L 500.704914 807.942759 
L 500.297143 808.63957 
L 499.348069 811.240484 
L 497.750013 814.53821 
L 497.005714 815.952455 
L 496.061036 817.835936 
L 494.339349 821.133661 
L 497.005714 821.133661 
L 500.297143 821.133661 
L 502.93157 821.133661 
L 503.588571 819.761468 
L 504.594869 817.835936 
L 506.628467 814.53821 
L 506.88 814.22629 
L 509.443734 811.240484 
L 510.171429 810.351579 
L 512.14068 807.942759 
L 513.462857 806.024449 
L 514.509925 804.645033 
L 516.441931 801.347308 
L 516.754286 800.857373 
L 518.527391 798.049582 
L 520.045714 795.606968 
L 520.579984 794.751857 
L 522.580607 791.454131 
L 523.337143 789.979212 
L 524.336561 788.156406 
L 526.263679 784.85868 
L 526.628571 784.297704 
L 529.383352 781.560955 
L 529.92 780.994325 
L 532.808611 778.263229 
L 533.211429 777.904676 
L 536.01478 774.965503 
L 536.502857 774.486559 
L 538.899909 771.667778 
L 539.794286 770.645793 
L 541.543611 768.370052 
L 543.085714 766.361943 
L 544.063836 765.072327 
L 546.254027 761.774601 
L 546.377143 761.59577 
L 548.406728 758.476876 
L 549.668571 756.570796 
L 550.859001 755.17915 
L 552.96 752.473623 
L 553.678482 751.881425 
L 556.251429 749.20253 
L 557.258116 748.583699 
L 559.542857 747.241234 
L 562.236006 745.285974 
L 562.834286 744.914343 
L 566.125714 742.018432 
L 566.155041 741.988248 
L 569.417143 738.751515 
L 569.463056 738.690522 
L 572.140463 735.392797 
L 572.708571 734.733192 
L 574.507222 732.095071 
L 576 730.141136 
L 576 728.797346 
L 576 725.49962 
L 576 722.201895 
L 576 718.904169 
L 576 715.606444 
L 576 712.308718 
L 576 709.010993 
L 576 705.713267 
L 576 702.415541 
L 576 699.117816 
L 576 695.82009 
L 576 692.522365 
L 576 689.224639 
L 576 687.234762 
L 575.575004 689.224639 
L 572.708571 692.049045 
L 572.136165 692.522365 
L 572.147752 695.82009 
L 569.417143 698.524041 
L 568.649237 699.117816 
L 568.202663 702.415541 
L 566.125714 704.513611 
L 564.723622 705.713267 
L 562.834286 707.243123 
L 559.542857 707.983671 
L 557.099987 705.713267 
L 556.251429 704.901864 
L 552.96 705.385179 
L 552.698816 705.713267 
L 550.742476 709.010993 
L 549.668571 710.126455 
L 549.265395 712.308718 
L 546.586466 715.606444 
L 546.377143 715.831635 
L 545.866576 718.904169 
L 543.085714 721.982762 
L 542.804942 722.201895 
L 542.364982 725.49962 
L 539.794286 728.139471 
L 538.85289 728.797346 
L 538.477697 732.095071 
L 536.502857 733.777616 
L 533.39652 735.392797 
L 533.211429 735.73367 
L 532.752144 735.392797 
L 529.92 733.204474 
L 528.569847 732.095071 
L 526.628571 731.520559 
L 525.755319 732.095071 
L 523.337143 733.641143 
L 522.968244 735.392797 
L 521.806366 738.690522 
L 520.045714 740.450138 
L 519.557396 741.988248 
L 518.957293 745.285974 
L 516.754286 747.49867 
L 516.065227 748.583699 
L 515.898037 751.881425 
L 513.462857 754.331453 
L 512.376275 755.17915 
L 512.05351 758.476876 
L 510.171429 760.381672 
L 507.815577 761.774601 
L 506.88 763.968813 
L 503.588571 761.780608 
L 500.297143 763.611468 
L 499.931623 765.072327 
L 499.05042 768.370052 
L 497.005714 770.423306 
L 496.53167 771.667778 
L 496.429899 774.965503 
L 493.714286 777.699356 
L 493.071559 778.263229 
L 492.944589 781.560955 
L 492.318156 784.85868 
L 490.422857 786.79481 
L 489.174843 788.156406 
L 488.747117 791.454131 
L 487.131429 793.112267 
L 484.102077 794.751857 
L 483.84 795.221524 
L 483.007947 794.751857 
L 480.548571 793.321929 
L 480.311924 794.751857 
L 477.257143 797.378533 
L 476.927115 798.049582 
L 476.847808 801.347308 
L 475.227758 804.645033 
L 473.965714 805.926958 
L 473.425604 807.942759 
L 473.330173 811.240484 
L 470.674286 813.923125 
L 469.915843 814.53821 
L 469.730786 817.835936 
L 469.463386 821.133661 
z
M 511.513755 765.072327 
L 513.462857 762.438681 
L 515.096282 765.072327 
L 513.462857 766.991554 
z
M 516.291512 758.476876 
L 516.754286 757.922894 
L 517.310413 758.476876 
L 516.754286 758.769826 
z
M 527.961341 748.583699 
L 529.92 746.203552 
L 530.352992 748.583699 
L 529.92 749.832996 
z
M 542.684152 745.285974 
L 543.085714 744.128319 
L 543.309725 745.285974 
L 543.085714 748.213618 
z
M 480.548571 790.504247 
L 481.837556 788.156406 
L 481.14731 784.85868 
L 480.548571 784.534278 
L 480.224789 784.85868 
L 480.224789 788.156406 
z
M 506.88 790.45333 
L 509.334485 788.156406 
L 506.88 787.814204 
L 506.764062 788.156406 
z
M 483.84 782.175818 
L 484.602968 781.560955 
L 487.131429 779.048838 
L 487.756159 778.263229 
L 487.131429 777.913259 
L 483.84 777.938827 
L 483.478571 778.263229 
L 483.507285 781.560955 
z
M 510.171429 780.970444 
L 511.394377 778.263229 
L 510.171429 776.343574 
L 509.100528 778.263229 
z
M 503.588571 757.128067 
L 504.73262 755.17915 
L 504.076947 751.881425 
L 503.588571 751.549751 
L 503.257532 751.881425 
L 503.257532 755.17915 
z
M 506.88 749.085472 
L 507.589223 748.583699 
L 507.204602 745.285974 
L 506.88 744.92189 
L 506.516612 745.285974 
L 506.540042 748.583699 
z
M 526.628571 726.78659 
L 527.653291 725.49962 
L 526.628571 725.181742 
L 526.311301 725.49962 
z
M 529.92 723.246825 
L 530.78866 722.201895 
L 533.211429 719.793835 
L 533.895242 718.904169 
L 533.535996 715.606444 
L 533.211429 715.242238 
L 532.847919 715.606444 
L 529.92 718.548204 
L 529.564714 718.904169 
L 529.595288 722.201895 
z
M 556.251429 696.191178 
L 556.586918 695.82009 
L 556.251429 695.501385 
L 555.933332 695.82009 
z
M 559.542857 692.858496 
L 562.834286 693.386973 
L 563.493239 692.522365 
L 563.15607 689.224639 
L 562.834286 688.85973 
L 559.542857 688.867601 
L 559.186501 689.224639 
L 559.22476 692.522365 
z
" clip-path="url(#p617d755322)" style="fill: #d6e5f4; fill-opacity: 0.9"/>
    <path d="M 473.965714 821.133661 
L 477.257143 821.133661 
L 480.548571 821.133661 
L 483.84 821.133661 
L 487.131429 821.133661 
L 490.422857 821.133661 
L 493.714286 821.133661 
L 494.339349 821.133661 
L 496.061036 817.835936 
L 497.005714 815.952455 
L 497.750013 814.53821 
L 499.348069 811.240484 
L 500.297143 808.63957 
L 500.704914 807.942759 
L 502.071996 804.645033 
L 503.037484 801.347308 
L 503.588571 799.563304 
L 504.598475 798.049582 
L 506.77995 794.751857 
L 506.88 793.235684 
L 510.171429 792.339404 
L 511.016128 791.454131 
L 513.462857 789.527818 
L 514.357246 788.156406 
L 516.754286 785.288552 
L 517.023996 784.85868 
L 518.898313 781.560955 
L 520.045714 779.35594 
L 520.533752 778.263229 
L 521.732408 774.965503 
L 522.474335 771.667778 
L 523.337143 769.52191 
L 523.868796 768.370052 
L 525.16147 765.072327 
L 525.312617 761.774601 
L 526.628571 759.955088 
L 527.637934 758.476876 
L 527.546214 755.17915 
L 527.77297 751.881425 
L 526.628571 750.027288 
L 525.524565 751.881425 
L 523.337143 754.938042 
L 523.204597 755.17915 
L 521.438272 758.476876 
L 520.045714 760.865968 
L 519.538026 761.774601 
L 517.885284 765.072327 
L 516.754286 767.126722 
L 515.236943 768.370052 
L 514.43867 771.667778 
L 513.462857 773.504327 
L 512.12116 771.667778 
L 511.297815 768.370052 
L 510.171429 767.210101 
L 509.320004 768.370052 
L 507.041127 771.667778 
L 506.88 771.837718 
L 504.531617 774.965503 
L 503.588571 776.219454 
L 500.635583 778.263229 
L 500.417878 781.560955 
L 500.297143 781.854621 
L 497.005714 782.92527 
L 495.588922 784.85868 
L 493.924902 788.156406 
L 493.714286 788.502354 
L 491.94826 791.454131 
L 490.422857 794.153157 
L 490.049655 794.751857 
L 488.051426 798.049582 
L 487.131429 799.978601 
L 486.320472 801.347308 
L 483.84 804.639477 
L 483.834596 804.645033 
L 481.687755 807.942759 
L 480.575457 811.240484 
L 480.548571 811.288119 
L 477.257143 813.486414 
L 476.499189 814.53821 
L 475.04618 817.835936 
L 473.965714 818.94231 
L 472.836811 821.133661 
z
M 506.764062 788.156406 
L 506.88 787.814204 
L 509.334485 788.156406 
L 506.88 790.45333 
z
M 509.100528 778.263229 
L 510.171429 776.343574 
L 511.394377 778.263229 
L 510.171429 780.970444 
z
M 513.462857 766.991554 
L 515.096282 765.072327 
L 513.462857 762.438681 
L 511.513755 765.072327 
z
M 516.754286 758.769826 
L 517.310413 758.476876 
L 516.754286 757.922894 
L 516.291512 758.476876 
z
M 529.92 749.832996 
L 530.352992 748.583699 
L 529.92 746.203552 
L 527.961341 748.583699 
z
M 543.085714 748.213618 
L 543.309725 745.285974 
L 543.085714 744.128319 
L 542.684152 745.285974 
z
" clip-path="url(#p617d755322)" style="fill: #d0e2f2; fill-opacity: 0.9"/>
    <path clip-path="url(#p617d755322)" style="fill: #cbdef1; fill-opacity: 0.9"/>
    <path clip-path="url(#p617d755322)" style="fill: #c6dbef; fill-opacity: 0.9"/>
    <path clip-path="url(#p617d755322)" style="fill: #bed8ec; fill-opacity: 0.9"/>
    <path clip-path="url(#p617d755322)" style="fill: #b5d4e9; fill-opacity: 0.9"/>
    <path clip-path="url(#p617d755322)" style="fill: #add0e6; fill-opacity: 0.9"/>
    <path clip-path="url(#p617d755322)" style="fill: #a5cde3; fill-opacity: 0.9"/>
    <path clip-path="url(#p617d755322)" style="fill: #9cc9e1; fill-opacity: 0.9"/>
    <path clip-path="url(#p617d755322)" style="fill: #91c3de; fill-opacity: 0.9"/>
    <path clip-path="url(#p617d755322)" style="fill: #85bcdc; fill-opacity: 0.9"/>
    <path clip-path="url(#p617d755322)" style="fill: #7cb7da; fill-opacity: 0.9"/>
    <path clip-path="url(#p617d755322)" style="fill: #71b1d7; fill-opacity: 0.9"/>
    <path clip-path="url(#p617d755322)" style="fill: #66abd4; fill-opacity: 0.9"/>
    <path clip-path="url(#p617d755322)" style="fill: #5da5d1; fill-opacity: 0.9"/>
    <path clip-path="url(#p617d755322)" style="fill: #56a0ce; fill-opacity: 0.9"/>
    <path clip-path="url(#p617d755322)" style="fill: #4d99ca; fill-opacity: 0.9"/>
    <path clip-path="url(#p617d755322)" style="fill: #4493c7; fill-opacity: 0.9"/>
    <path clip-path="url(#p617d755322)" style="fill: #3c8cc3; fill-opacity: 0.9"/>
    <path clip-path="url(#p617d755322)" style="fill: #3686c0; fill-opacity: 0.9"/>
    <path clip-path="url(#p617d755322)" style="fill: #2f7fbc; fill-opacity: 0.9"/>
    <path clip-path="url(#p617d755322)" style="fill: #2777b8; fill-opacity: 0.9"/>
    <path clip-path="url(#p617d755322)" style="fill: #2070b4; fill-opacity: 0.9"/>
    <path clip-path="url(#p617d755322)" style="fill: #1c6ab0; fill-opacity: 0.9"/>
    <path clip-path="url(#p617d755322)" style="fill: #1663aa; fill-opacity: 0.9"/>
    <path clip-path="url(#p617d755322)" style="fill: #115ca5; fill-opacity: 0.9"/>
    <path clip-path="url(#p617d755322)" style="fill: #0c56a0; fill-opacity: 0.9"/>
    <path clip-path="url(#p617d755322)" style="fill: #084f99; fill-opacity: 0.9"/>
    <path clip-path="url(#p617d755322)" style="fill: #08488e; fill-opacity: 0.9"/>
    <path clip-path="url(#p617d755322)" style="fill: #084184; fill-opacity: 0.9"/>
    <path clip-path="url(#p617d755322)" style="fill: #083a7a; fill-opacity: 0.9"/>
    <path clip-path="url(#p617d755322)" style="fill: #083370; fill-opacity: 0.9"/>
    <path clip-path="url(#p617d755322)" style="fill: #08306b; fill-opacity: 0.9"/>
   </g>
   <g id="QuadContourSet_2">
    <path d="M 534.74922 821.133661 
L 535.374268 817.835936 
L 536.502857 817.119446 
L 538.677955 814.53821 
L 539.794286 813.652445 
L 542.200718 811.240484 
L 543.085714 809.693615 
L 544.832059 807.942759 
L 545.694983 804.645033 
L 546.377143 804.03065 
L 549.054653 801.347308 
L 549.522898 798.049582 
L 549.668571 797.872081 
L 552.96 795.673856 
L 554.015734 794.751857 
L 556.251429 793.278451 
L 558.430374 791.454131 
L 559.542857 790.663477 
L 562.450836 788.156406 
L 562.834286 787.869223 
L 566.125714 785.116666 
L 566.16112 785.081213 
M 576 681.984424 
L 575.356467 682.629188 
L 572.708571 684.089329 
L 570.874496 685.926914 
L 569.417143 686.93323 
L 567.130109 689.224639 
L 566.125714 689.992225 
L 565.742286 689.224639 
L 562.834286 685.926914 
L 559.542857 685.926914 
L 556.251429 689.224639 
L 556.604804 692.522365 
L 556.251429 692.876416 
L 553.313376 695.82009 
L 555.463388 699.117816 
L 552.96 700.654002 
L 551.201825 702.415541 
L 549.902218 705.713267 
L 549.668571 705.982641 
L 546.377143 707.940769 
L 545.308963 709.010993 
L 543.085714 710.286299 
L 541.067157 712.308718 
L 539.794286 713.202051 
L 537.394485 715.606444 
L 536.502857 716.29388 
L 536.150251 715.606444 
L 533.211429 712.308718 
L 529.92 715.606444 
L 529.92 715.606444 
L 526.628571 718.904169 
L 526.876958 721.235855 
M 517.963721 736.324913 
L 516.754286 736.923645 
L 514.990782 738.690522 
L 514.638543 741.988248 
L 513.462857 742.836868 
L 511.018428 745.285974 
L 510.171429 745.948182 
L 509.82012 745.285974 
L 506.88 741.988248 
L 503.588571 745.285974 
L 503.880689 748.583699 
L 503.588571 748.87726 
L 500.590143 751.881425 
L 500.590143 755.17915 
L 500.650233 758.476876 
L 500.297143 758.858461 
L 497.386571 761.774601 
L 497.068823 765.072327 
L 497.005714 765.16296 
L 494.120566 768.370052 
L 493.714286 769.510777 
L 491.561403 771.667778 
L 490.422857 772.457274 
L 487.919417 774.965503 
L 487.131429 775.257253 
L 483.84 775.308998 
L 480.548571 778.263229 
L 480.890378 781.560955 
L 480.548571 781.904449 
L 477.599982 784.85868 
L 477.599982 788.156406 
L 477.654946 791.454131 
L 477.257143 792.129876 
L 474.640169 794.751857 
L 474.307831 798.049582 
L 473.965714 800.101499 
L 472.722285 801.347308 
L 470.674286 802.578395 
L 468.611593 804.645033 
L 468.351876 807.942759 
L 467.382857 808.679891 
L 464.091429 808.286242 
L 460.8 807.942759 
L 457.508571 811.240484 
L 457.829243 814.53821 
L 457.828368 817.835936 
L 457.934777 821.133661 
M 559.542857 696.087307 
L 559.350129 695.82009 
L 559.542857 695.626993 
L 559.866391 695.82009 
L 559.542857 696.087307 
" clip-path="url(#p617d755322)" style="fill: none"/>
    <path d="M 533.236421 821.133661 
L 533.582002 817.835936 
L 534.191394 817.449061 
M 546.620752 803.261639 
L 548.530923 801.347308 
L 548.915448 798.049582 
L 549.668571 797.131911 
L 552.483412 794.751857 
L 552.861533 791.454131 
L 552.96 791.278996 
L 554.27886 791.454131 
L 556.251429 791.751195 
L 556.606238 791.454131 
L 559.542857 789.367043 
L 560.947088 788.156406 
L 562.834286 786.743 
L 564.974374 784.85868 
L 566.125714 783.967011 
L 568.813719 781.560955 
L 569.417143 781.079002 
L 571.90006 778.263229 
L 572.708571 777.506462 
L 575.107338 774.965503 
L 575.997931 771.667778 
L 576 771.66577 
M 576 683.111915 
L 572.708571 685.730765 
L 572.512797 685.926914 
L 569.417143 688.064494 
L 568.259213 689.224639 
L 566.125714 690.855115 
L 565.31125 689.224639 
L 562.834286 686.415716 
L 559.542857 686.417028 
L 556.740607 689.224639 
L 557.041464 692.522365 
L 556.251429 693.313911 
L 553.750035 695.82009 
L 556.251429 698.738185 
L 556.797578 699.117816 
L 556.251429 699.573061 
L 553.010161 702.415541 
L 552.96 702.457704 
L 550.368318 705.713267 
L 549.668571 706.520013 
L 546.760558 709.010993 
L 546.438574 712.308718 
L 546.377143 712.379552 
L 545.464848 712.308718 
L 543.085714 711.862171 
L 542.64002 712.308718 
L 539.794286 714.305926 
L 538.496251 715.606444 
L 536.502857 717.143331 
L 535.714541 715.606444 
L 533.211429 712.797638 
L 530.407986 715.606444 
L 529.92 716.096737 
L 527.117929 718.904169 
L 527.415771 722.201895 
L 526.628571 722.992578 
L 524.126317 725.49962 
L 524.385178 728.797346 
L 523.337143 729.766768 
L 521.013286 732.095071 
L 520.511554 735.392797 
L 520.045714 736.012983 
L 516.809504 738.690522 
L 516.754286 739.133336 
L 516.097387 741.988248 
L 513.462857 743.889873 
L 512.069423 745.285974 
L 510.171429 746.76988 
L 509.3842 745.285974 
L 506.88 742.477188 
L 504.076578 745.285974 
L 504.323915 748.583699 
L 503.588571 749.322675 
L 503.178051 749.733981 
M 496.508586 766.400789 
L 494.737007 768.370052 
L 493.714286 771.24158 
L 493.288901 771.667778 
L 490.422857 773.655165 
L 489.11502 774.965503 
L 487.131429 775.699921 
L 483.84 775.747303 
L 481.036905 778.263229 
L 481.326529 781.560955 
L 480.548571 782.342754 
L 478.03745 784.85868 
L 478.03745 788.156406 
L 478.16255 791.454131 
L 477.257143 792.992137 
L 475.500784 794.751857 
L 474.744379 798.049582 
L 474.239195 801.347308 
L 473.965714 801.69237 
L 470.674286 804.149283 
L 470.179482 804.645033 
L 469.58836 807.942759 
L 467.382857 809.620483 
L 464.091429 808.724533 
L 460.8 808.433493 
L 457.998368 811.240484 
L 458.27132 814.53821 
L 458.269238 817.835936 
L 458.522343 821.133661 
M 559.542857 696.725835 
L 558.889594 695.82009 
L 559.542857 695.165577 
L 560.639493 695.82009 
L 559.542857 696.725835 
z
" clip-path="url(#p617d755322)" style="fill: none"/>
    <path d="M 530.974008 821.133661 
L 532.568974 817.835936 
L 533.059514 814.53821 
L 533.211429 814.376206 
L 534.436289 814.53821 
L 536.502857 814.843791 
L 536.760357 814.53821 
L 539.794286 812.130905 
L 540.682666 811.240484 
L 541.999306 807.942759 
L 543.085714 807.232292 
L 544.529438 804.645033 
L 544.995753 804.225049 
M 554.599 788.784877 
L 555.496715 788.156406 
L 556.251429 785.036402 
L 559.542857 787.627184 
L 562.834286 785.616778 
L 563.695284 784.85868 
L 566.125714 782.976404 
L 567.70703 781.560955 
L 569.417143 780.195093 
L 571.120639 778.263229 
L 572.708571 776.776923 
L 574.418625 774.965503 
L 575.065722 771.667778 
L 576 770.760783 
M 576 683.72779 
L 573.359651 685.926914 
L 572.972152 689.224639 
L 572.708571 689.484355 
L 569.612292 689.224639 
L 569.417143 689.195758 
L 569.388317 689.224639 
L 566.125714 691.718006 
L 564.880214 689.224639 
L 562.834286 686.904519 
L 559.542857 686.907143 
L 557.229786 689.224639 
L 557.478123 692.522365 
L 556.251429 693.751406 
L 554.186694 695.82009 
L 556.251429 698.228783 
L 557.530418 699.117816 
L 556.251429 700.183924 
L 553.706725 702.415541 
L 552.96 703.043199 
L 550.834417 705.713267 
L 549.668571 707.057385 
L 547.387896 709.010993 
L 547.003938 712.308718 
L 546.377143 713.03145 
L 543.263967 715.606444 
L 543.085714 717.068495 
L 541.244503 715.606444 
L 539.794286 715.4098 
L 539.598018 715.606444 
L 536.502857 717.992782 
L 535.278832 715.606444 
L 533.211429 713.286558 
L 530.895973 715.606444 
L 529.92 716.58703 
L 527.607286 718.904169 
L 527.851674 722.201895 
L 526.628571 723.430411 
L 524.563313 725.49962 
L 524.965517 728.797346 
L 523.337143 730.303576 
L 521.549068 732.095071 
L 521.002892 735.392797 
L 520.045714 736.667115 
L 517.600121 738.690522 
L 517.092968 741.988248 
L 516.754286 742.624724 
L 513.462857 744.942879 
L 513.120418 745.285974 
L 510.171429 747.591578 
L 508.948281 745.285974 
L 506.88 742.966129 
L 504.564585 745.285974 
L 504.76714 748.583699 
L 503.588571 749.76809 
L 501.479273 751.881425 
L 501.479273 755.17915 
L 501.72171 758.476876 
L 500.297143 760.016407 
L 498.542306 761.774601 
L 498.02309 765.072327 
L 497.005714 766.533417 
L 495.353449 768.370052 
L 494.161011 771.667778 
L 493.714286 774.84038 
L 490.422857 774.853055 
L 490.310623 774.965503 
L 487.131429 776.142589 
L 483.84 776.185608 
L 481.525238 778.263229 
L 481.76268 781.560955 
L 480.548571 782.781059 
L 478.652075 784.681183 
M 473.76883 802.514841 
L 471.214521 804.645033 
L 470.755564 807.942759 
L 470.674286 808.640427 
L 467.382857 810.561076 
L 464.091429 809.162824 
L 460.8 808.924226 
L 458.488165 811.240484 
L 458.713398 814.53821 
L 458.710109 817.835936 
L 459.10991 821.133661 
M 464.091429 815.194295 
L 463.759831 814.53821 
L 464.091429 814.207263 
L 465.051269 814.53821 
L 464.091429 815.194295 
z
M 506.88 752.195445 
L 506.700374 751.881425 
L 506.88 751.702253 
L 507.331515 751.881425 
L 506.88 752.195445 
z
M 559.542857 697.364364 
L 558.429059 695.82009 
L 559.542857 694.704161 
L 561.412594 695.82009 
L 559.542857 697.364364 
" clip-path="url(#p617d755322)" style="fill: none"/>
    <path d="M 529.283861 821.133661 
L 529.92 820.50322 
L 531.75906 817.835936 
L 532.105152 814.53821 
L 533.211429 813.358464 
L 535.74466 811.240484 
L 536.264357 807.942759 
L 536.502857 807.32619 
L 537.570249 807.942759 
L 539.087189 811.240484 
L 539.794286 811.370135 
L 539.923639 811.240484 
L 540.40231 807.942759 
L 543.085714 806.18792 
L 543.946665 804.645033 
L 546.377143 802.456037 
L 547.483463 801.347308 
L 547.700548 798.049582 
L 549.668571 795.65157 
L 550.732644 794.751857 
L 551.347219 791.454131 
L 552.197685 789.94148 
M 564.508344 782.111875 
L 566.125714 781.985797 
L 566.600341 781.560955 
L 569.417143 779.311185 
L 570.341218 778.263229 
L 572.708571 776.047385 
L 573.729911 774.965503 
L 574.133513 771.667778 
L 576 769.855796 
M 576 684.343664 
L 574.099093 685.926914 
L 573.622865 689.224639 
L 572.708571 690.125528 
L 569.809973 692.522365 
L 569.417143 695.530788 
L 566.125714 693.00406 
L 566.067508 692.522365 
L 564.449178 689.224639 
L 562.834286 687.393322 
L 559.542857 687.397258 
L 557.718965 689.224639 
L 557.914782 692.522365 
L 556.251429 694.188901 
L 554.623354 695.82009 
L 556.251429 697.719382 
L 557.968524 695.82009 
L 559.542857 694.242745 
L 562.185696 695.82009 
L 559.542857 698.002892 
L 558.263257 699.117816 
L 556.338892 700.721881 
M 544.607872 715.146761 
L 544.052114 715.606444 
L 543.621553 718.904169 
L 543.085714 719.497378 
L 539.794286 721.119978 
L 537.090619 718.904169 
L 536.502857 718.842233 
L 534.843123 715.606444 
L 533.211429 713.775478 
L 531.383959 715.606444 
L 529.92 717.077324 
L 528.096643 718.904169 
L 528.287578 722.201895 
L 526.628571 723.868244 
L 525.00031 725.49962 
L 525.545856 728.797346 
L 523.337143 730.840384 
L 522.084851 732.095071 
L 521.49423 735.392797 
L 520.045714 737.321247 
L 518.390739 738.690522 
L 517.709075 741.988248 
L 516.754286 743.782559 
L 514.587742 745.285974 
L 513.587696 748.583699 
L 513.462857 749.344956 
L 512.075262 748.583699 
L 510.171429 748.413276 
L 508.512361 745.285974 
L 506.88 743.455069 
L 505.052591 745.285974 
L 505.210366 748.583699 
L 503.588571 750.213506 
L 501.923837 751.881425 
L 501.923837 755.17915 
L 502.257449 758.476876 
L 500.297143 760.595381 
L 499.120174 761.774601 
L 498.500223 765.072327 
L 497.005714 767.218646 
L 495.969891 768.370052 
L 494.753676 771.667778 
L 494.377939 774.965503 
L 493.714286 775.633614 
L 490.716942 778.263229 
L 490.422857 780.542742 
L 490.126775 778.263229 
L 487.131429 776.585256 
L 483.84 776.623913 
L 482.013571 778.263229 
L 482.198831 781.560955 
L 480.548571 783.219364 
L 478.912385 784.85868 
L 478.912385 788.156406 
L 479.177757 791.454131 
L 477.257143 794.716661 
L 477.222014 794.751857 
L 475.617473 798.049582 
L 475.28264 801.347308 
L 473.965714 803.008926 
L 472.003861 804.645033 
L 471.423074 807.942759 
L 471.083365 811.240484 
L 470.674286 811.653684 
L 467.382857 812.869307 
L 467.155393 811.240484 
L 464.091429 809.601115 
L 460.8 809.41496 
L 458.977961 811.240484 
L 459.155475 814.53821 
L 459.15098 817.835936 
L 459.697477 821.133661 
M 464.091429 816.435016 
L 463.132747 814.53821 
L 464.091429 813.581409 
L 466.866422 814.53821 
L 464.091429 816.435016 
z
M 483.84 785.355972 
L 483.574211 784.85868 
L 483.84 784.593861 
L 484.651304 784.85868 
L 483.84 785.355972 
z
M 506.88 753.342004 
L 506.044517 751.881425 
L 506.88 751.048058 
L 508.980099 751.881425 
L 506.88 753.342004 
z
" clip-path="url(#p617d755322)" style="fill: none"/>
    <path d="M 528.098584 821.133661 
L 529.92 819.328559 
L 530.078557 819.098596 
M 538.123854 802.792904 
L 539.76485 801.347308 
L 539.794286 801.287623 
L 539.876062 801.347308 
L 541.396016 804.645033 
L 543.085714 805.143549 
L 543.363892 804.645033 
L 546.377143 801.931166 
L 546.959732 801.347308 
L 547.093098 798.049582 
L 549.668571 794.9114 
L 549.85726 794.751857 
L 550.590062 791.454131 
L 551.776912 788.156406 
L 552.96 786.996556 
L 554.238298 784.85868 
L 554.711711 781.560955 
L 556.251429 780.037447 
L 558.263011 778.263229 
L 559.390822 774.965503 
L 559.542857 774.816773 
L 562.834286 774.268168 
L 563.723937 774.965503 
L 566.125714 776.857862 
L 567.727252 778.263229 
L 569.417143 778.427276 
L 569.561797 778.263229 
L 572.708571 775.317846 
L 573.041197 774.965503 
L 573.201305 771.667778 
L 576 768.950809 
M 576 684.959539 
L 574.838534 685.926914 
L 574.273578 689.224639 
L 572.708571 690.7667 
L 570.58537 692.522365 
L 570.297295 695.82009 
L 569.417143 696.69165 
L 566.279477 699.117816 
L 566.125714 699.488672 
L 565.135379 699.117816 
L 562.834286 696.968238 
L 559.542857 698.64142 
L 558.996097 699.117816 
L 556.251429 701.40565 
L 555.099854 702.415541 
L 552.96 704.214189 
L 551.766617 705.713267 
L 549.668571 708.132129 
L 548.64257 709.010993 
L 548.134667 712.308718 
L 546.377143 714.335246 
L 544.84026 715.606444 
L 544.369894 718.904169 
L 543.085714 720.325839 
L 540.681947 722.201895 
L 540.152121 725.49962 
L 539.794286 725.867082 
L 536.951718 725.49962 
L 536.502857 725.158537 
L 533.211429 722.68615 
L 533.12089 722.201895 
L 533.211429 722.111906 
L 535.676956 718.904169 
L 534.407414 715.606444 
L 533.211429 714.264398 
L 531.871946 715.606444 
L 529.92 717.567617 
L 528.586 718.904169 
L 528.723481 722.201895 
L 526.628571 724.306077 
L 525.437307 725.49962 
L 526.126195 728.797346 
L 523.337143 731.377192 
L 522.620634 732.095071 
L 521.985568 735.392797 
L 520.045714 737.975379 
L 519.181356 738.690522 
L 518.325182 741.988248 
L 516.754286 744.940393 
L 516.256276 745.285974 
L 514.413539 748.583699 
L 513.947026 751.881425 
L 513.462857 752.368546 
L 510.171429 753.624485 
L 506.88 754.488562 
L 505.388661 751.881425 
L 503.588571 750.658921 
L 502.368402 751.881425 
L 502.368402 755.17915 
L 502.793187 758.476876 
L 500.297143 761.174354 
L 499.698042 761.774601 
L 499.398222 763.146521 
M 491.359016 779.657639 
L 491.164103 781.560955 
L 490.422857 783.311046 
L 487.131429 784.831579 
L 486.603292 781.560955 
L 487.131429 781.036232 
L 489.336569 778.263229 
L 487.131429 777.027924 
L 483.84 777.062218 
L 482.501904 778.263229 
L 482.634983 781.560955 
L 483.84 783.787847 
L 487.120624 784.85868 
L 483.84 786.86955 
L 482.765244 784.85868 
L 480.548571 783.657669 
L 479.349853 784.85868 
L 479.349853 788.156406 
L 479.685361 791.454131 
L 478.247312 794.751857 
L 477.257143 795.603261 
L 476.054021 798.049582 
L 475.804363 801.347308 
L 473.965714 803.667204 
L 472.7932 804.645033 
L 472.090584 807.942759 
L 471.832301 811.240484 
L 470.674286 812.410165 
L 468.050258 814.53821 
L 467.542422 817.835936 
L 467.382857 818.668547 
L 465.637107 817.835936 
L 464.091429 817.675737 
L 462.505663 814.53821 
L 464.091429 812.955556 
L 466.336232 811.240484 
L 464.091429 810.039405 
L 460.8 809.905693 
L 459.467758 811.240484 
L 459.597553 814.53821 
L 459.591851 817.835936 
L 460.285043 821.133661 
M 506.88 750.393863 
L 509.438546 748.583699 
L 508.076442 745.285974 
L 506.88 743.944009 
L 505.540598 745.285974 
L 505.653591 748.583699 
L 506.88 750.393863 
z
M 556.251429 697.209981 
L 557.507989 695.82009 
L 556.251429 694.626395 
L 555.060013 695.82009 
L 556.251429 697.209981 
z
M 559.542857 693.781329 
L 562.834286 695.638759 
L 565.209418 692.522365 
L 564.018142 689.224639 
L 562.834286 687.882125 
L 559.542857 687.887372 
L 558.208144 689.224639 
L 558.351442 692.522365 
L 559.542857 693.781329 
z
" clip-path="url(#p617d755322)" style="fill: none"/>
    <path d="M 526.913307 821.133661 
L 529.92 818.153898 
L 530.139231 817.835936 
L 530.196428 814.53821 
L 533.211429 811.322978 
L 533.310095 811.240484 
L 533.65388 807.942759 
L 533.964959 804.645033 
L 536.502857 802.156041 
L 537.420906 801.347308 
L 538.35005 798.049582 
L 539.794286 796.66288 
L 541.550379 794.751857 
L 541.770712 791.454131 
L 543.085714 789.821733 
L 544.991098 788.156406 
L 545.650718 784.85868 
L 546.377143 783.112901 
L 548.612595 781.560955 
L 549.668571 779.388626 
L 550.244539 781.560955 
L 550.804271 784.85868 
L 552.96 785.294114 
L 553.220358 784.85868 
L 553.329306 781.560955 
L 556.251429 778.669596 
L 556.712161 778.263229 
L 556.985745 774.965503 
L 559.542857 772.463964 
L 560.644273 771.667778 
L 561.617679 768.370052 
L 562.834286 767.258466 
L 563.605411 766.293358 
M 573.715117 751.16393 
L 576 749.939662 
M 576 685.575413 
L 575.577976 685.926914 
L 575.197843 687.844618 
M 565.166272 702.758949 
L 562.834286 703.9995 
L 561.104533 702.415541 
L 559.542857 700.934297 
L 556.251429 702.016513 
L 555.796418 702.415541 
L 552.96 704.799684 
L 552.232717 705.713267 
L 549.668571 708.669501 
L 549.269908 709.010993 
L 548.700031 712.308718 
L 546.377143 714.987144 
L 545.628407 715.606444 
L 545.118235 718.904169 
L 543.085714 721.1543 
L 541.743445 722.201895 
L 541.258551 725.49962 
L 539.794286 727.003276 
L 537.227036 728.797346 
L 536.502857 731.651584 
L 533.211429 729.185645 
L 532.732944 728.797346 
L 529.92 727.600559 
L 529.0647 725.49962 
L 526.628571 724.74391 
L 525.874304 725.49962 
L 526.628571 728.559214 
L 527.550641 728.797346 
L 526.628571 729.119854 
L 523.337143 731.913999 
L 523.156417 732.095071 
L 522.476906 735.392797 
L 520.045714 738.629511 
L 519.971973 738.690522 
L 518.941289 741.988248 
L 517.66257 745.285974 
L 516.754286 746.198253 
L 515.239383 748.583699 
L 514.922531 751.881425 
L 513.462857 753.35 
L 511.118244 755.17915 
L 510.509808 758.476876 
L 510.171429 758.819339 
L 508.049329 758.476876 
L 506.88 757.708628 
L 506.269002 755.17915 
L 504.732804 751.881425 
L 503.588571 751.104336 
L 502.812967 751.881425 
L 502.812967 755.17915 
L 503.328926 758.476876 
L 500.297143 761.753327 
L 500.275909 761.774601 
L 499.454489 765.072327 
L 497.501019 768.370052 
L 497.005714 768.867428 
L 495.939005 771.667778 
L 495.745913 774.965503 
L 493.714286 777.010775 
L 492.286687 778.263229 
L 492.054346 781.560955 
L 490.818342 784.85868 
L 490.422857 785.262685 
L 487.770526 788.156406 
L 487.131429 790.892676 
L 483.84 789.082779 
L 483.579126 788.156406 
L 481.956277 784.85868 
L 480.548571 784.095974 
L 479.787321 784.85868 
L 479.787321 788.156406 
L 480.192964 791.454131 
L 479.279618 794.751857 
L 477.257143 796.490897 
L 476.490568 798.049582 
L 476.326086 801.347308 
L 473.965714 804.325482 
L 473.58254 804.645033 
L 472.758094 807.942759 
L 472.581237 811.240484 
L 470.674286 813.166645 
L 468.983051 814.53821 
L 468.636604 817.835936 
L 468.136721 821.133661 
M 460.8 820.915026 
L 462.9937 817.835936 
L 461.878579 814.53821 
L 464.091429 812.329702 
L 465.517072 811.240484 
L 464.091429 810.477696 
L 460.8 810.396427 
L 459.957554 811.240484 
L 460.03963 814.53821 
L 460.032721 817.835936 
L 460.8 820.915026 
z
M 546.377143 801.406295 
L 546.436002 801.347308 
L 546.485648 798.049582 
L 546.377143 795.746833 
L 545.467966 798.049582 
L 545.780028 801.347308 
L 546.377143 801.406295 
z
M 549.668571 792.168807 
L 549.832906 791.454131 
L 550.040359 788.156406 
L 549.668571 786.13249 
L 548.046061 788.156406 
L 548.297447 791.454131 
L 549.668571 792.168807 
z
M 483.84 782.981832 
L 485.60313 781.560955 
L 487.131429 780.042535 
L 488.546364 778.263229 
L 487.131429 777.470592 
L 483.84 777.500522 
L 482.990238 778.263229 
L 483.071134 781.560955 
L 483.84 782.981832 
z
M 506.88 749.739667 
L 508.513884 748.583699 
L 507.640522 745.285974 
L 506.88 744.43295 
L 506.028605 745.285974 
L 506.096817 748.583699 
L 506.88 749.739667 
z
M 529.92 724.64957 
L 531.954775 722.201895 
L 533.211429 720.95287 
L 534.786099 718.904169 
L 533.971705 715.606444 
L 533.211429 714.753318 
L 532.359932 715.606444 
L 529.92 718.05791 
L 529.075357 718.904169 
L 529.159384 722.201895 
L 529.92 724.64957 
z
M 556.251429 696.700579 
L 557.047453 695.82009 
L 556.251429 695.06389 
L 555.496672 695.82009 
L 556.251429 696.700579 
z
M 559.542857 693.319913 
L 562.834286 694.512866 
L 564.351328 692.522365 
L 563.587106 689.224639 
L 562.834286 688.370927 
L 559.542857 688.377487 
L 558.697322 689.224639 
L 558.788101 692.522365 
L 559.542857 693.319913 
z
" clip-path="url(#p617d755322)" style="fill: none"/>
    <path d="M 502.93157 821.133661 
L 503.588571 819.761468 
L 504.594869 817.835936 
L 506.628467 814.53821 
L 506.88 814.22629 
L 509.443734 811.240484 
L 510.171429 810.351579 
L 512.14068 807.942759 
L 513.462857 806.024449 
L 514.509925 804.645033 
L 516.441931 801.347308 
L 516.754286 800.857373 
L 517.552555 799.593278 
M 527.580511 783.351995 
L 529.383352 781.560955 
L 529.92 780.994325 
L 532.808611 778.263229 
L 533.211429 777.904676 
L 536.01478 774.965503 
L 536.502857 774.486559 
L 538.899909 771.667778 
L 539.794286 770.645793 
L 541.543611 768.370052 
L 543.085714 766.361943 
L 544.063836 765.072327 
L 546.254027 761.774601 
L 546.377143 761.59577 
L 548.406728 758.476876 
L 549.668571 756.570796 
L 550.859001 755.17915 
L 552.96 752.473623 
L 553.678482 751.881425 
L 556.251429 749.20253 
L 557.258116 748.583699 
L 559.542857 747.241234 
L 562.236006 745.285974 
L 562.834286 744.914343 
L 566.125714 742.018432 
L 566.155041 741.988248 
L 569.417143 738.751515 
L 569.463056 738.690522 
L 572.140463 735.392797 
L 572.708571 734.733192 
L 574.507222 732.095071 
L 576 730.141136 
M 576 687.234762 
L 575.575004 689.224639 
L 572.708571 692.049045 
L 572.136165 692.522365 
L 572.147752 695.82009 
L 569.417143 698.524041 
L 568.649237 699.117816 
L 568.202663 702.415541 
L 566.125714 704.513611 
L 564.723622 705.713267 
L 562.834286 707.243123 
L 559.542857 707.983671 
L 557.099987 705.713267 
L 556.251429 704.901864 
L 552.96 705.385179 
L 552.698816 705.713267 
L 550.742476 709.010993 
L 549.668571 710.126455 
L 549.265395 712.308718 
L 546.586466 715.606444 
L 546.377143 715.831635 
L 545.866576 718.904169 
L 543.085714 721.982762 
L 542.804942 722.201895 
L 542.364982 725.49962 
L 539.794286 728.139471 
L 538.85289 728.797346 
L 538.477697 732.095071 
L 536.502857 733.777616 
L 533.39652 735.392797 
L 533.211429 735.73367 
L 532.752144 735.392797 
L 529.92 733.204474 
L 528.569847 732.095071 
L 526.628571 731.520559 
L 525.755319 732.095071 
L 523.337143 733.641143 
L 522.968244 735.392797 
L 521.806366 738.690522 
L 520.045714 740.450138 
L 519.557396 741.988248 
L 518.957293 745.285974 
L 516.754286 747.49867 
L 516.065227 748.583699 
L 515.898037 751.881425 
L 513.462857 754.331453 
L 512.376275 755.17915 
L 512.05351 758.476876 
L 510.171429 760.381672 
L 507.815577 761.774601 
L 506.88 763.968813 
L 503.588571 761.780608 
L 500.297143 763.611468 
L 499.931623 765.072327 
L 499.05042 768.370052 
L 497.005714 770.423306 
L 496.53167 771.667778 
L 496.429899 774.965503 
L 493.714286 777.699356 
L 493.071559 778.263229 
L 492.944589 781.560955 
L 492.318156 784.85868 
L 490.422857 786.79481 
L 489.174843 788.156406 
L 488.747117 791.454131 
L 487.131429 793.112267 
L 484.102077 794.751857 
L 483.84 795.221524 
L 483.007947 794.751857 
L 480.548571 793.321929 
L 480.311924 794.751857 
L 477.297532 797.343804 
M 470.356804 814.180598 
L 469.915843 814.53821 
L 469.730786 817.835936 
L 469.463386 821.133661 
M 460.8 819.145811 
L 461.733221 817.835936 
L 461.251495 814.53821 
L 464.091429 811.703848 
L 464.697911 811.240484 
L 464.091429 810.915987 
L 460.8 810.88716 
L 460.447351 811.240484 
L 460.481708 814.53821 
L 460.473592 817.835936 
L 460.8 819.145811 
z
M 480.548571 790.504247 
L 481.837556 788.156406 
L 481.14731 784.85868 
L 480.548571 784.534278 
L 480.224789 784.85868 
L 480.224789 788.156406 
L 480.548571 790.504247 
z
M 483.84 782.175818 
L 484.602968 781.560955 
L 487.131429 779.048838 
L 487.756159 778.263229 
L 487.131429 777.913259 
L 483.84 777.938827 
L 483.478571 778.263229 
L 483.507285 781.560955 
L 483.84 782.175818 
z
M 503.588571 757.128067 
L 504.73262 755.17915 
L 504.076947 751.881425 
L 503.588571 751.549751 
L 503.257532 751.881425 
L 503.257532 755.17915 
L 503.588571 757.128067 
z
M 506.88 749.085472 
L 507.589223 748.583699 
L 507.204602 745.285974 
L 506.88 744.92189 
L 506.516612 745.285974 
L 506.540042 748.583699 
L 506.88 749.085472 
z
M 526.628571 726.78659 
L 527.653291 725.49962 
L 526.628571 725.181742 
L 526.311301 725.49962 
L 526.628571 726.78659 
z
M 529.92 723.246825 
L 530.78866 722.201895 
L 533.211429 719.793835 
L 533.895242 718.904169 
L 533.535996 715.606444 
L 533.211429 715.242238 
L 532.847919 715.606444 
L 529.92 718.548204 
L 529.564714 718.904169 
L 529.595288 722.201895 
L 529.92 723.246825 
z
M 556.251429 696.191178 
L 556.586918 695.82009 
L 556.251429 695.501385 
L 555.933332 695.82009 
L 556.251429 696.191178 
z
M 559.542857 692.858496 
L 562.834286 693.386973 
L 563.493239 692.522365 
L 563.15607 689.224639 
L 562.834286 688.85973 
L 559.542857 688.867601 
L 559.186501 689.224639 
L 559.22476 692.522365 
L 559.542857 692.858496 
z
" clip-path="url(#p617d755322)" style="fill: none"/>
    <path d="M 494.339349 821.133661 
L 496.061036 817.835936 
L 497.005714 815.952455 
L 497.750013 814.53821 
L 499.348069 811.240484 
L 500.297143 808.63957 
L 500.704914 807.942759 
L 502.071996 804.645033 
L 503.037484 801.347308 
L 503.588571 799.563304 
L 504.598475 798.049582 
L 506.77995 794.751857 
L 506.88 793.235684 
L 510.171429 792.339404 
L 511.016128 791.454131 
L 513.462857 789.527818 
L 514.357246 788.156406 
L 516.754286 785.288552 
L 517.023996 784.85868 
L 518.898313 781.560955 
L 520.045714 779.35594 
L 520.533752 778.263229 
L 520.83868 777.424315 
M 526.902929 759.553291 
L 527.637934 758.476876 
L 527.546214 755.17915 
L 527.77297 751.881425 
L 526.628571 750.027288 
L 525.524565 751.881425 
L 523.337143 754.938042 
L 523.204597 755.17915 
L 521.438272 758.476876 
L 520.045714 760.865968 
L 519.538026 761.774601 
L 517.885284 765.072327 
L 516.754286 767.126722 
L 515.236943 768.370052 
L 514.43867 771.667778 
L 513.462857 773.504327 
L 512.12116 771.667778 
L 511.297815 768.370052 
L 510.171429 767.210101 
L 509.320004 768.370052 
L 507.041127 771.667778 
L 506.88 771.837718 
L 504.531617 774.965503 
L 503.588571 776.219454 
L 500.635583 778.263229 
L 500.417878 781.560955 
L 500.297143 781.854621 
L 497.005714 782.92527 
L 495.588922 784.85868 
L 493.924902 788.156406 
L 493.714286 788.502354 
L 491.94826 791.454131 
L 490.422857 794.153157 
L 490.049655 794.751857 
L 488.051426 798.049582 
L 487.131429 799.978601 
L 486.320472 801.347308 
L 483.84 804.639477 
L 483.834596 804.645033 
L 481.687755 807.942759 
L 480.575457 811.240484 
L 480.548571 811.288119 
L 477.257143 813.486414 
L 476.499189 814.53821 
L 475.04618 817.835936 
L 473.965714 818.94231 
L 472.836811 821.133661 
M 506.88 790.45333 
L 506.764062 788.156406 
L 506.88 787.814204 
L 509.334485 788.156406 
L 506.88 790.45333 
z
M 510.171429 780.970444 
L 509.100528 778.263229 
L 510.171429 776.343574 
L 511.394377 778.263229 
L 510.171429 780.970444 
M 513.462857 766.991554 
L 515.096282 765.072327 
L 513.462857 762.438681 
L 511.513755 765.072327 
L 513.462857 766.991554 
z
M 516.754286 758.769826 
L 517.310413 758.476876 
L 516.754286 757.922894 
L 516.291512 758.476876 
L 516.754286 758.769826 
z
M 529.92 749.832996 
L 530.352992 748.583699 
L 529.92 746.203552 
L 527.961341 748.583699 
L 529.92 749.832996 
z
M 543.085714 748.213618 
L 543.309725 745.285974 
L 543.085714 744.128319 
L 542.684152 745.285974 
L 543.085714 748.213618 
z
" clip-path="url(#p617d755322)" style="fill: none"/>
    <path clip-path="url(#p617d755322)" style="fill: none"/>
    <path clip-path="url(#p617d755322)" style="fill: none"/>
    <path clip-path="url(#p617d755322)" style="fill: none"/>
    <path clip-path="url(#p617d755322)" style="fill: none"/>
    <path clip-path="url(#p617d755322)" style="fill: none"/>
    <path clip-path="url(#p617d755322)" style="fill: none"/>
    <path clip-path="url(#p617d755322)" style="fill: none"/>
    <path clip-path="url(#p617d755322)" style="fill: none"/>
    <path clip-path="url(#p617d755322)" style="fill: none"/>
    <path clip-path="url(#p617d755322)" style="fill: none"/>
    <path clip-path="url(#p617d755322)" style="fill: none"/>
    <path clip-path="url(#p617d755322)" style="fill: none"/>
    <path clip-path="url(#p617d755322)" style="fill: none"/>
    <path clip-path="url(#p617d755322)" style="fill: none"/>
    <path clip-path="url(#p617d755322)" style="fill: none"/>
    <path clip-path="url(#p617d755322)" style="fill: none"/>
    <path clip-path="url(#p617d755322)" style="fill: none"/>
    <path clip-path="url(#p617d755322)" style="fill: none"/>
    <path clip-path="url(#p617d755322)" style="fill: none"/>
    <path clip-path="url(#p617d755322)" style="fill: none"/>
    <path clip-path="url(#p617d755322)" style="fill: none"/>
    <path clip-path="url(#p617d755322)" style="fill: none"/>
    <path clip-path="url(#p617d755322)" style="fill: none"/>
    <path clip-path="url(#p617d755322)" style="fill: none"/>
    <path clip-path="url(#p617d755322)" style="fill: none"/>
    <path clip-path="url(#p617d755322)" style="fill: none"/>
    <path clip-path="url(#p617d755322)" style="fill: none"/>
    <path clip-path="url(#p617d755322)" style="fill: none"/>
    <path clip-path="url(#p617d755322)" style="fill: none"/>
    <path clip-path="url(#p617d755322)" style="fill: none"/>
    <path clip-path="url(#p617d755322)" style="fill: none"/>
   </g>
   <g id="text_1">
    <g clip-path="url(#p617d755322)">
     <!-- 0 -->
     <g style="opacity: 0" transform="translate(572.854971 783.287362) rotate(-50.722153) scale(0.12 -0.12)">
      <defs>
       <path id="DejaVuSans-30" d="M 2034 4250 
Q 1547 4250 1301 3770 
Q 1056 3291 1056 2328 
Q 1056 1369 1301 889 
Q 1547 409 2034 409 
Q 2525 409 2770 889 
Q 3016 1369 3016 2328 
Q 3016 3291 2770 3770 
Q 2525 4250 2034 4250 
z
M 2034 4750 
Q 2819 4750 3233 4129 
Q 3647 3509 3647 2328 
Q 3647 1150 3233 529 
Q 2819 -91 2034 -91 
Q 1250 -91 836 529 
Q 422 1150 422 2328 
Q 422 3509 836 4129 
Q 1250 4750 2034 4750 
z
" transform="scale(0.015625)"/>
      </defs>
      <use xlink:href="#DejaVuSans-30"/>
     </g>
    </g>
   </g>
   <g id="text_2">
    <g clip-path="url(#p617d755322)">
     <!-- 0 -->
     <g style="opacity: 0" transform="translate(524.602118 734.122559) rotate(-63.558356) scale(0.12 -0.12)">
      <use xlink:href="#DejaVuSans-30"/>
     </g>
    </g>
   </g>
   <g id="text_3">
    <g clip-path="url(#p617d755322)">
     <!-- 1 -->
     <g style="opacity: 0" transform="translate(541.54243 816.292963) rotate(-50.204288) scale(0.12 -0.12)">
      <defs>
       <path id="DejaVuSans-31" d="M 794 531 
L 1825 531 
L 1825 4091 
L 703 3866 
L 703 4441 
L 1819 4666 
L 2450 4666 
L 2450 531 
L 3481 531 
L 3481 0 
L 794 0 
L 794 531 
z
" transform="scale(0.015625)"/>
      </defs>
      <use xlink:href="#DejaVuSans-31"/>
     </g>
    </g>
   </g>
   <g id="text_4">
    <g clip-path="url(#p617d755322)">
     <!-- 1 -->
     <g style="opacity: 0" transform="translate(502.990408 763.197224) rotate(-69.982294) scale(0.12 -0.12)">
      <use xlink:href="#DejaVuSans-31"/>
     </g>
    </g>
   </g>
   <g id="text_5">
    <g clip-path="url(#p617d755322)">
     <!-- 2 -->
     <g style="opacity: 0" transform="translate(551.065455 801.248324) rotate(-65.108707) scale(0.12 -0.12)">
      <defs>
       <path id="DejaVuSans-32" d="M 1228 531 
L 3431 531 
L 3431 0 
L 469 0 
L 469 531 
Q 828 903 1448 1529 
Q 2069 2156 2228 2338 
Q 2531 2678 2651 2914 
Q 2772 3150 2772 3378 
Q 2772 3750 2511 3984 
Q 2250 4219 1831 4219 
Q 1534 4219 1204 4116 
Q 875 4013 500 3803 
L 500 4441 
Q 881 4594 1212 4672 
Q 1544 4750 1819 4750 
Q 2544 4750 2975 4387 
Q 3406 4025 3406 3419 
Q 3406 3131 3298 2873 
Q 3191 2616 2906 2266 
Q 2828 2175 2409 1742 
Q 1991 1309 1228 531 
z
" transform="scale(0.015625)"/>
      </defs>
      <use xlink:href="#DejaVuSans-32"/>
     </g>
    </g>
   </g>
   <g id="text_6">
    <g clip-path="url(#p617d755322)">
     <!-- 2 -->
     <g style="opacity: 0" transform="translate(478.995211 798.599586) rotate(-69.17884) scale(0.12 -0.12)">
      <use xlink:href="#DejaVuSans-32"/>
     </g>
    </g>
   </g>
   <g id="text_7">
    <g clip-path="url(#p617d755322)">
     <!-- 3 -->
     <g style="opacity: 0" transform="translate(555.788777 786.437558) rotate(-43.80921) scale(0.12 -0.12)">
      <defs>
       <path id="DejaVuSans-33" d="M 2597 2516 
Q 3050 2419 3304 2112 
Q 3559 1806 3559 1356 
Q 3559 666 3084 287 
Q 2609 -91 1734 -91 
Q 1441 -91 1130 -33 
Q 819 25 488 141 
L 488 750 
Q 750 597 1062 519 
Q 1375 441 1716 441 
Q 2309 441 2620 675 
Q 2931 909 2931 1356 
Q 2931 1769 2642 2001 
Q 2353 2234 1838 2234 
L 1294 2234 
L 1294 2753 
L 1863 2753 
Q 2328 2753 2575 2939 
Q 2822 3125 2822 3475 
Q 2822 3834 2567 4026 
Q 2313 4219 1838 4219 
Q 1578 4219 1281 4162 
Q 984 4106 628 3988 
L 628 4550 
Q 988 4650 1302 4700 
Q 1616 4750 1894 4750 
Q 2613 4750 3031 4423 
Q 3450 4097 3450 3541 
Q 3450 3153 3228 2886 
Q 3006 2619 2597 2516 
z
" transform="scale(0.015625)"/>
      </defs>
      <use xlink:href="#DejaVuSans-33"/>
     </g>
    </g>
   </g>
   <g id="text_8">
    <g clip-path="url(#p617d755322)">
     <!-- 3 -->
     <g style="opacity: 0" transform="translate(550.347732 712.602393) rotate(-56.785664) scale(0.12 -0.12)">
      <use xlink:href="#DejaVuSans-33"/>
     </g>
    </g>
   </g>
   <g id="text_9">
    <g clip-path="url(#p617d755322)">
     <!-- 4 -->
     <g style="opacity: 0" transform="translate(535.677511 816.161346) rotate(-62.217411) scale(0.12 -0.12)">
      <defs>
       <path id="DejaVuSans-34" d="M 2419 4116 
L 825 1625 
L 2419 1625 
L 2419 4116 
z
M 2253 4666 
L 3047 4666 
L 3047 1625 
L 3713 1625 
L 3713 1100 
L 3047 1100 
L 3047 0 
L 2419 0 
L 2419 1100 
L 313 1100 
L 313 1709 
L 2253 4666 
z
" transform="scale(0.015625)"/>
      </defs>
      <use xlink:href="#DejaVuSans-34"/>
     </g>
    </g>
   </g>
   <g id="text_10">
    <g clip-path="url(#p617d755322)">
     <!-- 4 -->
     <g style="opacity: 0" transform="translate(497.00495 776.441319) rotate(-68.222295) scale(0.12 -0.12)">
      <use xlink:href="#DejaVuSans-34"/>
     </g>
    </g>
   </g>
   <g id="text_11">
    <g clip-path="url(#p617d755322)">
     <!-- 5 -->
     <g style="opacity: 0" transform="translate(569.188411 763.478587) rotate(-57.270442) scale(0.12 -0.12)">
      <defs>
       <path id="DejaVuSans-35" d="M 691 4666 
L 3169 4666 
L 3169 4134 
L 1269 4134 
L 1269 2991 
Q 1406 3038 1543 3061 
Q 1681 3084 1819 3084 
Q 2600 3084 3056 2656 
Q 3513 2228 3513 1497 
Q 3513 744 3044 326 
Q 2575 -91 1722 -91 
Q 1428 -91 1123 -41 
Q 819 9 494 109 
L 494 744 
Q 775 591 1075 516 
Q 1375 441 1709 441 
Q 2250 441 2565 725 
Q 2881 1009 2881 1497 
Q 2881 1984 2565 2268 
Q 2250 2553 1709 2553 
Q 1456 2553 1204 2497 
Q 953 2441 691 2322 
L 691 4666 
z
" transform="scale(0.015625)"/>
      </defs>
      <use xlink:href="#DejaVuSans-35"/>
     </g>
    </g>
   </g>
   <g id="text_12">
    <g clip-path="url(#p617d755322)">
     <!-- 5 -->
     <g style="opacity: 0" transform="translate(571.841265 700.835551) rotate(-56.094917) scale(0.12 -0.12)">
      <use xlink:href="#DejaVuSans-35"/>
     </g>
    </g>
   </g>
   <g id="text_13">
    <g clip-path="url(#p617d755322)">
     <!-- 6 -->
     <g style="opacity: 0" transform="translate(523.526586 796.418283) rotate(-59.851107) scale(0.12 -0.12)">
      <defs>
       <path id="DejaVuSans-36" d="M 2113 2584 
Q 1688 2584 1439 2293 
Q 1191 2003 1191 1497 
Q 1191 994 1439 701 
Q 1688 409 2113 409 
Q 2538 409 2786 701 
Q 3034 994 3034 1497 
Q 3034 2003 2786 2293 
Q 2538 2584 2113 2584 
z
M 3366 4563 
L 3366 3988 
Q 3128 4100 2886 4159 
Q 2644 4219 2406 4219 
Q 1781 4219 1451 3797 
Q 1122 3375 1075 2522 
Q 1259 2794 1537 2939 
Q 1816 3084 2150 3084 
Q 2853 3084 3261 2657 
Q 3669 2231 3669 1497 
Q 3669 778 3244 343 
Q 2819 -91 2113 -91 
Q 1303 -91 875 529 
Q 447 1150 447 2328 
Q 447 3434 972 4092 
Q 1497 4750 2381 4750 
Q 2619 4750 2861 4703 
Q 3103 4656 3366 4563 
z
" transform="scale(0.015625)"/>
      </defs>
      <use xlink:href="#DejaVuSans-36"/>
     </g>
    </g>
   </g>
   <g id="text_14">
    <g clip-path="url(#p617d755322)">
     <!-- 6 -->
     <g style="opacity: 0" transform="translate(475.756444 810.652524) rotate(-69.816007) scale(0.12 -0.12)">
      <use xlink:href="#DejaVuSans-36"/>
     </g>
    </g>
   </g>
   <g id="text_15">
    <g clip-path="url(#p617d755322)">
     <!-- 7 -->
     <g style="opacity: 0" transform="translate(525.813493 773.034367) rotate(-71.694827) scale(0.12 -0.12)">
      <defs>
       <path id="DejaVuSans-37" d="M 525 4666 
L 3525 4666 
L 3525 4397 
L 1831 0 
L 1172 0 
L 2766 4134 
L 525 4134 
L 525 4666 
z
" transform="scale(0.015625)"/>
      </defs>
      <use xlink:href="#DejaVuSans-37"/>
     </g>
    </g>
   </g>
  </g>
 </g>
 <defs>
  <clipPath id="p617d755322">
   <rect x="0" y="0" width="576" height="821.133661"/>
  </clipPath>
 </defs>
</svg>
