<?xml version="1.0" encoding="utf-8" standalone="no"?>
<!DOCTYPE svg PUBLIC "-//W3C//DTD SVG 1.1//EN"
  "http://www.w3.org/Graphics/SVG/1.1/DTD/svg11.dtd">
<svg xmlns:xlink="http://www.w3.org/1999/xlink" width="576pt" height="814.373837pt" viewBox="0 0 576 814.373837" xmlns="http://www.w3.org/2000/svg" version="1.1">
 <metadata>
  <rdf:RDF xmlns:dc="http://purl.org/dc/elements/1.1/" xmlns:cc="http://creativecommons.org/ns#" xmlns:rdf="http://www.w3.org/1999/02/22-rdf-syntax-ns#">
   <cc:Work>
    <dc:type rdf:resource="http://purl.org/dc/dcmitype/StillImage"/>
    <dc:date>2025-07-25T22:45:22.522948</dc:date>
    <dc:format>image/svg+xml</dc:format>
    <dc:creator>
     <cc:Agent>
      <dc:title>Matplotlib v3.10.3, https://matplotlib.org/</dc:title>
     </cc:Agent>
    </dc:creator>
   </cc:Work>
  </rdf:RDF>
 </metadata>
 <defs>
  <style type="text/css">*{stroke-linejoin: round; stroke-linecap: butt}</style>
 </defs>
 <g id="figure_1">
  <g id="patch_1">
   <path d="M 0 814.373837 
L 576 814.373837 
L 576 0 
L 0 0 
L 0 814.373837 
z
" style="fill: none; opacity: 0"/>
  </g>
  <g id="axes_1">
   <g id="QuadContourSet_1">
    <path d="M 3.272727 814.373837 
L 6.545455 814.373837 
L 9.818182 814.373837 
L 13.090909 814.373837 
L 16.363636 814.373837 
L 19.636364 814.373837 
L 22.909091 814.373837 
L 26.181818 814.373837 
L 29.454545 814.373837 
L 32.727273 814.373837 
L 36 814.373837 
L 39.272727 814.373837 
L 42.545455 814.373837 
L 45.818182 814.373837 
L 49.090909 814.373837 
L 52.363636 814.373837 
L 55.636364 814.373837 
L 58.909091 814.373837 
L 62.181818 814.373837 
L 65.454545 814.373837 
L 68.727273 814.373837 
L 72 814.373837 
L 75.272727 814.373837 
L 78.545455 814.373837 
L 81.818182 814.373837 
L 85.090909 814.373837 
L 88.363636 814.373837 
L 91.636364 814.373837 
L 94.909091 814.373837 
L 98.181818 814.373837 
L 101.454545 814.373837 
L 104.727273 814.373837 
L 108 814.373837 
L 111.272727 814.373837 
L 114.545455 814.373837 
L 117.818182 814.373837 
L 121.090909 814.373837 
L 124.363636 814.373837 
L 127.636364 814.373837 
L 130.909091 814.373837 
L 134.181818 814.373837 
L 137.454545 814.373837 
L 140.727273 814.373837 
L 144 814.373837 
L 147.272727 814.373837 
L 150.545455 814.373837 
L 153.818182 814.373837 
L 157.090909 814.373837 
L 160.363636 814.373837 
L 163.636364 814.373837 
L 166.909091 814.373837 
L 170.181818 814.373837 
L 173.454545 814.373837 
L 176.727273 814.373837 
L 180 814.373837 
L 183.272727 814.373837 
L 186.545455 814.373837 
L 189.818182 814.373837 
L 193.090909 814.373837 
L 196.363636 814.373837 
L 199.636364 814.373837 
L 202.909091 814.373837 
L 206.181818 814.373837 
L 209.454545 814.373837 
L 212.727273 814.373837 
L 216 814.373837 
L 219.272727 814.373837 
L 222.545455 814.373837 
L 225.818182 814.373837 
L 229.090909 814.373837 
L 232.363636 814.373837 
L 235.636364 814.373837 
L 238.909091 814.373837 
L 242.181818 814.373837 
L 245.454545 814.373837 
L 248.727273 814.373837 
L 252 814.373837 
L 255.272727 814.373837 
L 258.545455 814.373837 
L 261.818182 814.373837 
L 265.090909 814.373837 
L 268.363636 814.373837 
L 271.636364 814.373837 
L 274.909091 814.373837 
L 278.181818 814.373837 
L 281.454545 814.373837 
L 284.727273 814.373837 
L 288 814.373837 
L 291.272727 814.373837 
L 294.545455 814.373837 
L 297.818182 814.373837 
L 301.090909 814.373837 
L 304.363636 814.373837 
L 307.636364 814.373837 
L 310.909091 814.373837 
L 314.181818 814.373837 
L 317.454545 814.373837 
L 320.727273 814.373837 
L 324 814.373837 
L 327.272727 814.373837 
L 330.545455 814.373837 
L 333.818182 814.373837 
L 337.090909 814.373837 
L 340.363636 814.373837 
L 343.636364 814.373837 
L 346.909091 814.373837 
L 350.181818 814.373837 
L 353.454545 814.373837 
L 356.727273 814.373837 
L 360 814.373837 
L 363.272727 814.373837 
L 366.545455 814.373837 
L 369.818182 814.373837 
L 373.090909 814.373837 
L 376.363636 814.373837 
L 379.636364 814.373837 
L 382.909091 814.373837 
L 386.181818 814.373837 
L 389.454545 814.373837 
L 392.727273 814.373837 
L 396 814.373837 
L 399.272727 814.373837 
L 402.545455 814.373837 
L 405.818182 814.373837 
L 409.090909 814.373837 
L 412.363636 814.373837 
L 415.636364 814.373837 
L 418.909091 814.373837 
L 422.181818 814.373837 
L 425.454545 814.373837 
L 428.727273 814.373837 
L 432 814.373837 
L 435.272727 814.373837 
L 438.545455 814.373837 
L 441.818182 814.373837 
L 445.090909 814.373837 
L 448.363636 814.373837 
L 451.636364 814.373837 
L 454.909091 814.373837 
L 458.181818 814.373837 
L 461.454545 814.373837 
L 464.727273 814.373837 
L 468 814.373837 
L 471.272727 814.373837 
L 474.545455 814.373837 
L 477.818182 814.373837 
L 481.090909 814.373837 
L 484.363636 814.373837 
L 487.636364 814.373837 
L 490.909091 814.373837 
L 494.181818 814.373837 
L 497.454545 814.373837 
L 500.727273 814.373837 
L 504 814.373837 
L 507.272727 814.373837 
L 510.545455 814.373837 
L 513.818182 814.373837 
L 517.090909 814.373837 
L 520.363636 814.373837 
L 523.636364 814.373837 
L 526.909091 814.373837 
L 530.181818 814.373837 
L 533.454545 814.373837 
L 536.727273 814.373837 
L 540 814.373837 
L 543.272727 814.373837 
L 546.545455 814.373837 
L 549.818182 814.373837 
L 553.090909 814.373837 
L 556.363636 814.373837 
L 559.636364 814.373837 
L 562.909091 814.373837 
L 566.181818 814.373837 
L 569.454545 814.373837 
L 572.727273 814.373837 
L 576 814.373837 
L 576 811.10326 
L 576 807.832682 
L 576 804.562104 
L 576 801.291527 
L 576 798.020949 
L 576 794.750371 
L 576 791.479794 
L 576 788.209216 
L 576 784.938638 
L 576 781.668061 
L 576 778.397483 
L 576 775.126905 
L 576 771.856328 
L 576 768.58575 
L 576 765.315172 
L 576 762.044595 
L 576 758.774017 
L 576 755.503439 
L 576 752.232862 
L 576 748.962284 
L 576 745.691706 
L 576 742.421129 
L 576 739.150551 
L 576 735.879973 
L 576 732.609396 
L 576 729.338818 
L 576 726.06824 
L 576 722.797663 
L 576 719.527085 
L 576 716.256507 
L 576 712.98593 
L 576 709.715352 
L 576 706.444774 
L 576 703.174197 
L 576 699.903619 
L 576 696.633042 
L 576 693.362464 
L 576 690.091886 
L 576 686.821309 
L 576 683.550731 
L 576 680.280153 
L 576 677.009576 
L 576 673.738998 
L 576 670.46842 
L 576 667.197843 
L 576 663.927265 
L 576 660.656687 
L 576 657.38611 
L 576 654.115532 
L 576 650.844954 
L 576 647.574377 
L 576 644.303799 
L 576 641.033221 
L 576 637.762644 
L 576 634.492066 
L 576 631.221488 
L 576 627.950911 
L 576 624.680333 
L 576 621.409755 
L 576 618.139178 
L 576 614.8686 
L 576 611.598022 
L 576 608.327445 
L 576 605.056867 
L 576 601.786289 
L 576 598.515712 
L 576 595.245134 
L 576 591.974556 
L 576 588.703979 
L 576 585.433401 
L 576 582.162823 
L 576 578.892246 
L 576 575.621668 
L 576 572.35109 
L 576 569.080513 
L 576 565.809935 
L 576 562.539357 
L 576 559.26878 
L 576 555.998202 
L 576 552.727624 
L 576 549.457047 
L 576 546.186469 
L 576 542.915892 
L 576 539.645314 
L 576 536.374736 
L 576 533.104159 
L 576 529.833581 
L 576 526.563003 
L 576 523.292426 
L 576 520.021848 
L 576 516.75127 
L 576 513.480693 
L 576 510.210115 
L 576 506.939537 
L 576 503.66896 
L 576 500.398382 
L 576 497.127804 
L 576 493.857227 
L 576 490.586649 
L 576 487.316071 
L 576 484.045494 
L 576 480.774916 
L 576 477.504338 
L 576 474.233761 
L 576 470.963183 
L 576 467.692605 
L 576 464.422028 
L 576 461.15145 
L 576 457.880872 
L 576 454.610295 
L 576 451.339717 
L 576 448.069139 
L 576 444.798562 
L 576 441.527984 
L 576 438.257406 
L 576 434.986829 
L 576 431.716251 
L 576 428.445673 
L 576 425.175096 
L 576 421.904518 
L 576 418.63394 
L 576 415.363363 
L 576 412.092785 
L 576 408.822207 
L 576 405.55163 
L 576 402.281052 
L 576 399.010474 
L 576 395.739897 
L 576 392.469319 
L 576 389.198742 
L 576 385.928164 
L 576 382.657586 
L 576 379.387009 
L 576 376.116431 
L 576 372.845853 
L 576 369.575276 
L 576 366.304698 
L 576 363.03412 
L 576 359.763543 
L 576 356.492965 
L 576 353.222387 
L 576 349.95181 
L 576 346.681232 
L 576 343.410654 
L 576 340.140077 
L 576 336.869499 
L 576 333.598921 
L 576 330.328344 
L 576 327.057766 
L 576 323.787188 
L 576 320.516611 
L 576 317.246033 
L 576 313.975455 
L 576 310.704878 
L 576 307.4343 
L 576 304.163722 
L 576 300.893145 
L 576 297.622567 
L 576 294.351989 
L 576 291.081412 
L 576 287.810834 
L 576 284.540256 
L 576 281.269679 
L 576 277.999101 
L 576 274.728523 
L 576 271.457946 
L 576 268.187368 
L 576 264.91679 
L 576 261.646213 
L 576 258.375635 
L 576 255.105057 
L 576 251.83448 
L 576 248.563902 
L 576 245.293324 
L 576 242.022747 
L 576 238.752169 
L 576 235.481591 
L 576 232.211014 
L 576 228.940436 
L 576 225.669859 
L 576 222.399281 
L 576 219.128703 
L 576 215.858126 
L 576 212.587548 
L 576 209.31697 
L 576 206.046393 
L 576 202.775815 
L 576 199.505237 
L 576 196.23466 
L 576 192.964082 
L 576 189.693504 
L 576 186.422927 
L 576 183.152349 
L 576 179.881771 
L 576 176.611194 
L 576 173.340616 
L 576 170.070038 
L 576 166.799461 
L 576 163.528883 
L 576 160.258305 
L 576 156.987728 
L 576 153.71715 
L 576 150.446572 
L 576 147.175995 
L 576 143.905417 
L 576 140.634839 
L 576 137.364262 
L 576 134.093684 
L 576 130.823106 
L 576 127.552529 
L 576 124.281951 
L 576 121.011373 
L 576 117.740796 
L 576 114.470218 
L 576 111.19964 
L 576 107.929063 
L 576 104.658485 
L 576 101.387907 
L 576 98.11733 
L 576 94.846752 
L 576 91.576174 
L 576 88.305597 
L 576 85.035019 
L 576 81.764441 
L 576 78.493864 
L 576 75.223286 
L 576 71.952709 
L 576 68.682131 
L 576 65.411553 
L 576 62.140976 
L 576 58.870398 
L 576 55.59982 
L 576 52.329243 
L 576 49.058665 
L 576 45.788087 
L 576 42.51751 
L 576 39.246932 
L 576 35.976354 
L 576 32.705777 
L 576 29.435199 
L 576 26.164621 
L 576 22.894044 
L 576 19.623466 
L 576 16.352888 
L 576 13.082311 
L 576 9.811733 
L 576 6.541155 
L 576 3.270578 
L 576 0 
L 572.727273 0 
L 569.454545 0 
L 566.181818 0 
L 562.909091 0 
L 559.636364 0 
L 556.363636 0 
L 553.090909 0 
L 549.818182 0 
L 546.545455 0 
L 543.272727 0 
L 540 0 
L 536.727273 0 
L 533.454545 0 
L 530.181818 0 
L 526.909091 0 
L 523.636364 0 
L 520.363636 0 
L 517.090909 0 
L 513.818182 0 
L 510.545455 0 
L 507.272727 0 
L 504 0 
L 500.727273 0 
L 497.454545 0 
L 494.181818 0 
L 490.909091 0 
L 487.636364 0 
L 484.363636 0 
L 481.090909 0 
L 477.818182 0 
L 474.545455 0 
L 471.272727 0 
L 468 0 
L 464.727273 0 
L 461.454545 0 
L 458.181818 0 
L 454.909091 0 
L 451.636364 0 
L 448.363636 0 
L 445.090909 0 
L 441.818182 0 
L 438.545455 0 
L 435.272727 0 
L 432 0 
L 428.727273 0 
L 425.454545 0 
L 422.181818 0 
L 418.909091 0 
L 415.636364 0 
L 412.363636 0 
L 409.090909 0 
L 405.818182 0 
L 402.545455 0 
L 399.272727 0 
L 396 0 
L 392.727273 0 
L 389.454545 0 
L 386.181818 0 
L 382.909091 0 
L 379.636364 0 
L 376.363636 0 
L 373.090909 0 
L 369.818182 0 
L 366.545455 0 
L 363.272727 0 
L 360 0 
L 356.727273 0 
L 353.454545 0 
L 350.181818 0 
L 346.909091 0 
L 343.636364 0 
L 340.363636 0 
L 337.090909 0 
L 333.818182 0 
L 330.545455 0 
L 327.272727 0 
L 324 0 
L 320.727273 0 
L 317.454545 0 
L 314.181818 0 
L 310.909091 0 
L 307.636364 0 
L 304.363636 0 
L 301.090909 0 
L 297.818182 0 
L 294.545455 0 
L 291.272727 0 
L 288 0 
L 284.727273 0 
L 281.454545 0 
L 278.181818 0 
L 274.909091 0 
L 271.636364 0 
L 268.363636 0 
L 265.090909 0 
L 261.818182 0 
L 258.545455 0 
L 255.272727 0 
L 252 0 
L 248.727273 0 
L 245.454545 0 
L 242.181818 0 
L 238.909091 0 
L 235.636364 0 
L 232.363636 0 
L 229.090909 0 
L 225.818182 0 
L 222.545455 0 
L 219.272727 0 
L 216 0 
L 212.727273 0 
L 209.454545 0 
L 206.181818 0 
L 202.909091 0 
L 199.636364 0 
L 196.363636 0 
L 193.090909 0 
L 189.818182 0 
L 186.545455 0 
L 183.272727 0 
L 180 0 
L 176.727273 0 
L 173.454545 0 
L 170.181818 0 
L 166.909091 0 
L 163.636364 0 
L 160.363636 0 
L 157.090909 0 
L 153.818182 0 
L 150.545455 0 
L 147.272727 0 
L 144 0 
L 140.727273 0 
L 137.454545 0 
L 134.181818 0 
L 130.909091 0 
L 127.636364 0 
L 124.363636 0 
L 121.090909 0 
L 117.818182 0 
L 114.545455 0 
L 111.272727 0 
L 108 0 
L 104.727273 0 
L 101.454545 0 
L 98.181818 0 
L 94.909091 0 
L 91.636364 0 
L 88.363636 0 
L 85.090909 0 
L 81.818182 0 
L 78.545455 0 
L 75.272727 0 
L 72 0 
L 68.727273 0 
L 65.454545 0 
L 62.181818 0 
L 58.909091 0 
L 55.636364 0 
L 52.363636 0 
L 49.090909 0 
L 45.818182 0 
L 42.545455 0 
L 39.272727 0 
L 36 0 
L 32.727273 0 
L 29.454545 0 
L 26.181818 0 
L 22.909091 0 
L 19.636364 0 
L 16.363636 0 
L 13.090909 0 
L 9.818182 0 
L 6.545455 0 
L 3.272727 0 
L -0 0 
L -0 3.270578 
L -0 6.541155 
L -0 9.811733 
L -0 13.082311 
L -0 16.352888 
L -0 19.623466 
L -0 22.894044 
L -0 26.164621 
L -0 29.435199 
L -0 32.705777 
L -0 35.976354 
L -0 39.246932 
L -0 42.51751 
L -0 45.788087 
L -0 49.058665 
L -0 52.329243 
L -0 55.59982 
L -0 58.870398 
L -0 62.140976 
L -0 65.411553 
L -0 68.682131 
L -0 71.952709 
L -0 75.223286 
L -0 78.493864 
L -0 81.764441 
L -0 85.035019 
L -0 88.305597 
L -0 91.576174 
L -0 94.846752 
L -0 98.11733 
L -0 101.387907 
L -0 104.658485 
L -0 107.929063 
L -0 111.19964 
L -0 114.470218 
L -0 117.740796 
L -0 121.011373 
L -0 124.281951 
L -0 127.552529 
L -0 130.823106 
L -0 134.093684 
L -0 137.364262 
L -0 140.634839 
L -0 143.905417 
L -0 147.175995 
L -0 150.446572 
L -0 153.71715 
L -0 156.987728 
L -0 160.258305 
L -0 163.528883 
L -0 166.799461 
L -0 170.070038 
L -0 173.340616 
L -0 176.611194 
L -0 179.881771 
L -0 183.152349 
L -0 186.422927 
L -0 189.693504 
L -0 192.964082 
L -0 196.23466 
L -0 199.505237 
L -0 202.775815 
L -0 206.046393 
L -0 209.31697 
L -0 212.587548 
L -0 215.858126 
L -0 219.128703 
L -0 222.399281 
L -0 225.669859 
L -0 228.940436 
L -0 232.211014 
L -0 235.481591 
L -0 238.752169 
L -0 242.022747 
L -0 245.293324 
L -0 248.563902 
L -0 251.83448 
L -0 255.105057 
L -0 258.375635 
L -0 261.646213 
L -0 264.91679 
L -0 268.187368 
L -0 271.457946 
L -0 274.728523 
L -0 277.999101 
L -0 281.269679 
L -0 284.540256 
L -0 287.810834 
L -0 291.081412 
L -0 294.351989 
L -0 297.622567 
L -0 300.893145 
L -0 304.163722 
L -0 307.4343 
L -0 310.704878 
L -0 313.975455 
L -0 317.246033 
L -0 320.516611 
L -0 323.787188 
L -0 327.057766 
L -0 330.328344 
L -0 333.598921 
L -0 336.869499 
L -0 340.140077 
L -0 343.410654 
L -0 346.681232 
L -0 349.95181 
L -0 353.222387 
L -0 356.492965 
L -0 359.763543 
L -0 363.03412 
L -0 366.304698 
L -0 369.575276 
L -0 372.845853 
L -0 376.116431 
L -0 379.387009 
L -0 382.657586 
L -0 385.928164 
L -0 389.198742 
L -0 392.469319 
L -0 395.739897 
L -0 399.010474 
L -0 402.281052 
L -0 405.55163 
L -0 408.822207 
L -0 412.092785 
L -0 415.363363 
L -0 418.63394 
L -0 421.904518 
L -0 425.175096 
L -0 428.445673 
L -0 431.716251 
L -0 434.986829 
L -0 438.257406 
L -0 441.527984 
L -0 444.798562 
L -0 448.069139 
L -0 451.339717 
L -0 454.610295 
L -0 457.880872 
L -0 461.15145 
L -0 464.422028 
L -0 467.692605 
L -0 470.963183 
L -0 474.233761 
L -0 477.504338 
L -0 480.774916 
L -0 484.045494 
L -0 487.316071 
L -0 490.586649 
L -0 493.857227 
L -0 497.127804 
L -0 500.398382 
L -0 503.66896 
L -0 506.939537 
L -0 510.210115 
L -0 513.480693 
L -0 516.75127 
L -0 520.021848 
L -0 523.292426 
L -0 526.563003 
L -0 529.833581 
L -0 533.104159 
L -0 536.374736 
L -0 539.645314 
L -0 542.915892 
L -0 546.186469 
L -0 549.457047 
L -0 552.727624 
L -0 555.998202 
L -0 559.26878 
L -0 562.539357 
L -0 565.809935 
L -0 569.080513 
L -0 572.35109 
L -0 575.621668 
L -0 578.892246 
L -0 582.162823 
L -0 585.433401 
L -0 588.703979 
L -0 591.974556 
L -0 595.245134 
L -0 598.515712 
L -0 601.786289 
L -0 605.056867 
L -0 608.327445 
L -0 611.598022 
L -0 614.8686 
L -0 618.139178 
L -0 621.409755 
L -0 624.680333 
L -0 627.950911 
L -0 631.221488 
L -0 634.492066 
L -0 637.762644 
L -0 641.033221 
L -0 644.303799 
L -0 647.574377 
L -0 650.844954 
L -0 654.115532 
L -0 657.38611 
L -0 660.656687 
L -0 663.927265 
L -0 667.197843 
L -0 670.46842 
L -0 673.738998 
L -0 677.009576 
L -0 680.280153 
L -0 683.550731 
L -0 686.821309 
L -0 690.091886 
L -0 693.362464 
L -0 696.633042 
L -0 699.903619 
L -0 703.174197 
L -0 706.444774 
L -0 709.715352 
L -0 712.98593 
L -0 716.256507 
L -0 719.527085 
L -0 722.797663 
L -0 726.06824 
L -0 729.338818 
L -0 732.609396 
L -0 735.879973 
L -0 739.150551 
L -0 742.421129 
L -0 745.691706 
L -0 748.962284 
L -0 752.232862 
L -0 755.503439 
L -0 758.774017 
L -0 762.044595 
L -0 765.315172 
L -0 768.58575 
L -0 771.856328 
L -0 775.126905 
L -0 778.397483 
L -0 781.668061 
L -0 784.938638 
L -0 788.209216 
L -0 791.479794 
L -0 794.750371 
L -0 798.020949 
L -0 801.291527 
L -0 804.562104 
L -0 807.832682 
L -0 811.10326 
L -0 814.373837 
z
" clip-path="url(#pe86bb22a31)" style="fill: #f5f9fe; fill-opacity: 0.9"/>
    <path clip-path="url(#pe86bb22a31)" style="fill: #eff6fc; fill-opacity: 0.9"/>
    <path clip-path="url(#pe86bb22a31)" style="fill: #eaf3fb; fill-opacity: 0.9"/>
    <path clip-path="url(#pe86bb22a31)" style="fill: #e5eff9; fill-opacity: 0.9"/>
    <path clip-path="url(#pe86bb22a31)" style="fill: #dfecf7; fill-opacity: 0.9"/>
    <path clip-path="url(#pe86bb22a31)" style="fill: #dae8f6; fill-opacity: 0.9"/>
    <path clip-path="url(#pe86bb22a31)" style="fill: #d6e5f4; fill-opacity: 0.9"/>
    <path clip-path="url(#pe86bb22a31)" style="fill: #d0e2f2; fill-opacity: 0.9"/>
    <path clip-path="url(#pe86bb22a31)" style="fill: #cbdef1; fill-opacity: 0.9"/>
    <path clip-path="url(#pe86bb22a31)" style="fill: #c6dbef; fill-opacity: 0.9"/>
    <path clip-path="url(#pe86bb22a31)" style="fill: #bed8ec; fill-opacity: 0.9"/>
    <path clip-path="url(#pe86bb22a31)" style="fill: #b5d4e9; fill-opacity: 0.9"/>
    <path clip-path="url(#pe86bb22a31)" style="fill: #add0e6; fill-opacity: 0.9"/>
    <path clip-path="url(#pe86bb22a31)" style="fill: #a5cde3; fill-opacity: 0.9"/>
    <path clip-path="url(#pe86bb22a31)" style="fill: #9cc9e1; fill-opacity: 0.9"/>
    <path clip-path="url(#pe86bb22a31)" style="fill: #91c3de; fill-opacity: 0.9"/>
    <path clip-path="url(#pe86bb22a31)" style="fill: #85bcdc; fill-opacity: 0.9"/>
    <path clip-path="url(#pe86bb22a31)" style="fill: #7cb7da; fill-opacity: 0.9"/>
    <path clip-path="url(#pe86bb22a31)" style="fill: #71b1d7; fill-opacity: 0.9"/>
    <path clip-path="url(#pe86bb22a31)" style="fill: #66abd4; fill-opacity: 0.9"/>
    <path clip-path="url(#pe86bb22a31)" style="fill: #5da5d1; fill-opacity: 0.9"/>
    <path clip-path="url(#pe86bb22a31)" style="fill: #56a0ce; fill-opacity: 0.9"/>
    <path clip-path="url(#pe86bb22a31)" style="fill: #4d99ca; fill-opacity: 0.9"/>
    <path clip-path="url(#pe86bb22a31)" style="fill: #4493c7; fill-opacity: 0.9"/>
    <path clip-path="url(#pe86bb22a31)" style="fill: #3c8cc3; fill-opacity: 0.9"/>
    <path clip-path="url(#pe86bb22a31)" style="fill: #3686c0; fill-opacity: 0.9"/>
    <path clip-path="url(#pe86bb22a31)" style="fill: #2f7fbc; fill-opacity: 0.9"/>
    <path clip-path="url(#pe86bb22a31)" style="fill: #2777b8; fill-opacity: 0.9"/>
    <path clip-path="url(#pe86bb22a31)" style="fill: #2070b4; fill-opacity: 0.9"/>
    <path clip-path="url(#pe86bb22a31)" style="fill: #1c6ab0; fill-opacity: 0.9"/>
    <path clip-path="url(#pe86bb22a31)" style="fill: #1663aa; fill-opacity: 0.9"/>
    <path clip-path="url(#pe86bb22a31)" style="fill: #115ca5; fill-opacity: 0.9"/>
    <path clip-path="url(#pe86bb22a31)" style="fill: #0c56a0; fill-opacity: 0.9"/>
    <path clip-path="url(#pe86bb22a31)" style="fill: #084f99; fill-opacity: 0.9"/>
    <path clip-path="url(#pe86bb22a31)" style="fill: #08488e; fill-opacity: 0.9"/>
    <path clip-path="url(#pe86bb22a31)" style="fill: #084184; fill-opacity: 0.9"/>
    <path clip-path="url(#pe86bb22a31)" style="fill: #083a7a; fill-opacity: 0.9"/>
    <path clip-path="url(#pe86bb22a31)" style="fill: #083370; fill-opacity: 0.9"/>
    <path clip-path="url(#pe86bb22a31)" style="fill: #08306b; fill-opacity: 0.9"/>
   </g>
   <g id="QuadContourSet_2">
    <path clip-path="url(#pe86bb22a31)" style="fill: none"/>
    <path clip-path="url(#pe86bb22a31)" style="fill: none"/>
    <path clip-path="url(#pe86bb22a31)" style="fill: none"/>
    <path clip-path="url(#pe86bb22a31)" style="fill: none"/>
    <path clip-path="url(#pe86bb22a31)" style="fill: none"/>
    <path clip-path="url(#pe86bb22a31)" style="fill: none"/>
    <path clip-path="url(#pe86bb22a31)" style="fill: none"/>
    <path clip-path="url(#pe86bb22a31)" style="fill: none"/>
    <path clip-path="url(#pe86bb22a31)" style="fill: none"/>
    <path clip-path="url(#pe86bb22a31)" style="fill: none"/>
    <path clip-path="url(#pe86bb22a31)" style="fill: none"/>
    <path clip-path="url(#pe86bb22a31)" style="fill: none"/>
    <path clip-path="url(#pe86bb22a31)" style="fill: none"/>
    <path clip-path="url(#pe86bb22a31)" style="fill: none"/>
    <path clip-path="url(#pe86bb22a31)" style="fill: none"/>
    <path clip-path="url(#pe86bb22a31)" style="fill: none"/>
    <path clip-path="url(#pe86bb22a31)" style="fill: none"/>
    <path clip-path="url(#pe86bb22a31)" style="fill: none"/>
    <path clip-path="url(#pe86bb22a31)" style="fill: none"/>
    <path clip-path="url(#pe86bb22a31)" style="fill: none"/>
    <path clip-path="url(#pe86bb22a31)" style="fill: none"/>
    <path clip-path="url(#pe86bb22a31)" style="fill: none"/>
    <path clip-path="url(#pe86bb22a31)" style="fill: none"/>
    <path clip-path="url(#pe86bb22a31)" style="fill: none"/>
    <path clip-path="url(#pe86bb22a31)" style="fill: none"/>
    <path clip-path="url(#pe86bb22a31)" style="fill: none"/>
    <path clip-path="url(#pe86bb22a31)" style="fill: none"/>
    <path clip-path="url(#pe86bb22a31)" style="fill: none"/>
    <path clip-path="url(#pe86bb22a31)" style="fill: none"/>
    <path clip-path="url(#pe86bb22a31)" style="fill: none"/>
    <path clip-path="url(#pe86bb22a31)" style="fill: none"/>
    <path clip-path="url(#pe86bb22a31)" style="fill: none"/>
    <path clip-path="url(#pe86bb22a31)" style="fill: none"/>
    <path clip-path="url(#pe86bb22a31)" style="fill: none"/>
    <path clip-path="url(#pe86bb22a31)" style="fill: none"/>
    <path clip-path="url(#pe86bb22a31)" style="fill: none"/>
    <path clip-path="url(#pe86bb22a31)" style="fill: none"/>
    <path clip-path="url(#pe86bb22a31)" style="fill: none"/>
    <path clip-path="url(#pe86bb22a31)" style="fill: none"/>
   </g>
  </g>
 </g>
 <defs>
  <clipPath id="pe86bb22a31">
   <rect x="0" y="0" width="576" height="814.373837"/>
  </clipPath>
 </defs>
</svg>
