<?xml version="1.0" encoding="utf-8" standalone="no"?>
<!DOCTYPE svg PUBLIC "-//W3C//DTD SVG 1.1//EN"
  "http://www.w3.org/Graphics/SVG/1.1/DTD/svg11.dtd">
<svg xmlns:xlink="http://www.w3.org/1999/xlink" width="576pt" height="817.086468pt" viewBox="0 0 576 817.086468" xmlns="http://www.w3.org/2000/svg" version="1.1">
 <metadata>
  <rdf:RDF xmlns:dc="http://purl.org/dc/elements/1.1/" xmlns:cc="http://creativecommons.org/ns#" xmlns:rdf="http://www.w3.org/1999/02/22-rdf-syntax-ns#">
   <cc:Work>
    <dc:type rdf:resource="http://purl.org/dc/dcmitype/StillImage"/>
    <dc:date>2025-07-25T22:44:34.856500</dc:date>
    <dc:format>image/svg+xml</dc:format>
    <dc:creator>
     <cc:Agent>
      <dc:title>Matplotlib v3.10.3, https://matplotlib.org/</dc:title>
     </cc:Agent>
    </dc:creator>
   </cc:Work>
  </rdf:RDF>
 </metadata>
 <defs>
  <style type="text/css">*{stroke-linejoin: round; stroke-linecap: butt}</style>
 </defs>
 <g id="figure_1">
  <g id="patch_1">
   <path d="M 0 817.086468 
L 576 817.086468 
L 576 0 
L 0 0 
L 0 817.086468 
z
" style="fill: none; opacity: 0"/>
  </g>
  <g id="axes_1">
   <g id="QuadContourSet_1">
    <path d="M 3.272727 817.086468 
L 6.545455 817.086468 
L 9.818182 817.086468 
L 13.090909 817.086468 
L 16.363636 817.086468 
L 19.636364 817.086468 
L 22.909091 817.086468 
L 26.181818 817.086468 
L 29.454545 817.086468 
L 32.727273 817.086468 
L 36 817.086468 
L 39.272727 817.086468 
L 42.545455 817.086468 
L 45.818182 817.086468 
L 49.090909 817.086468 
L 52.363636 817.086468 
L 55.636364 817.086468 
L 58.909091 817.086468 
L 62.181818 817.086468 
L 65.454545 817.086468 
L 68.727273 817.086468 
L 72 817.086468 
L 75.272727 817.086468 
L 78.545455 817.086468 
L 81.818182 817.086468 
L 85.090909 817.086468 
L 88.363636 817.086468 
L 91.636364 817.086468 
L 94.909091 817.086468 
L 98.181818 817.086468 
L 101.454545 817.086468 
L 104.727273 817.086468 
L 108 817.086468 
L 111.272727 817.086468 
L 114.545455 817.086468 
L 117.818182 817.086468 
L 121.090909 817.086468 
L 124.363636 817.086468 
L 127.636364 817.086468 
L 130.909091 817.086468 
L 134.181818 817.086468 
L 137.454545 817.086468 
L 140.727273 817.086468 
L 144 817.086468 
L 147.272727 817.086468 
L 150.545455 817.086468 
L 153.818182 817.086468 
L 157.090909 817.086468 
L 160.363636 817.086468 
L 163.636364 817.086468 
L 166.909091 817.086468 
L 170.181818 817.086468 
L 173.454545 817.086468 
L 176.727273 817.086468 
L 180 817.086468 
L 183.272727 817.086468 
L 186.545455 817.086468 
L 189.818182 817.086468 
L 193.090909 817.086468 
L 196.363636 817.086468 
L 199.636364 817.086468 
L 202.909091 817.086468 
L 206.181818 817.086468 
L 209.454545 817.086468 
L 212.727273 817.086468 
L 216 817.086468 
L 219.272727 817.086468 
L 222.545455 817.086468 
L 225.818182 817.086468 
L 229.090909 817.086468 
L 232.363636 817.086468 
L 235.636364 817.086468 
L 238.909091 817.086468 
L 242.181818 817.086468 
L 245.454545 817.086468 
L 248.727273 817.086468 
L 252 817.086468 
L 255.272727 817.086468 
L 258.545455 817.086468 
L 261.818182 817.086468 
L 265.090909 817.086468 
L 268.363636 817.086468 
L 271.636364 817.086468 
L 274.909091 817.086468 
L 278.181818 817.086468 
L 281.454545 817.086468 
L 284.727273 817.086468 
L 288 817.086468 
L 291.272727 817.086468 
L 294.545455 817.086468 
L 297.818182 817.086468 
L 301.090909 817.086468 
L 304.363636 817.086468 
L 307.636364 817.086468 
L 310.909091 817.086468 
L 314.181818 817.086468 
L 317.454545 817.086468 
L 320.727273 817.086468 
L 324 817.086468 
L 327.272727 817.086468 
L 330.545455 817.086468 
L 333.818182 817.086468 
L 337.090909 817.086468 
L 340.363636 817.086468 
L 343.636364 817.086468 
L 346.909091 817.086468 
L 350.181818 817.086468 
L 353.454545 817.086468 
L 356.727273 817.086468 
L 360 817.086468 
L 363.272727 817.086468 
L 366.545455 817.086468 
L 369.818182 817.086468 
L 373.090909 817.086468 
L 376.363636 817.086468 
L 379.636364 817.086468 
L 382.909091 817.086468 
L 386.181818 817.086468 
L 389.454545 817.086468 
L 392.727273 817.086468 
L 396 817.086468 
L 399.272727 817.086468 
L 402.545455 817.086468 
L 405.818182 817.086468 
L 409.090909 817.086468 
L 412.363636 817.086468 
L 415.636364 817.086468 
L 418.909091 817.086468 
L 422.181818 817.086468 
L 425.454545 817.086468 
L 428.727273 817.086468 
L 432 817.086468 
L 435.272727 817.086468 
L 438.545455 817.086468 
L 441.818182 817.086468 
L 445.090909 817.086468 
L 448.363636 817.086468 
L 451.636364 817.086468 
L 454.909091 817.086468 
L 458.181818 817.086468 
L 461.454545 817.086468 
L 464.727273 817.086468 
L 468 817.086468 
L 471.272727 817.086468 
L 474.545455 817.086468 
L 477.818182 817.086468 
L 481.090909 817.086468 
L 484.363636 817.086468 
L 487.636364 817.086468 
L 490.909091 817.086468 
L 494.181818 817.086468 
L 497.454545 817.086468 
L 500.727273 817.086468 
L 504 817.086468 
L 507.272727 817.086468 
L 510.545455 817.086468 
L 513.818182 817.086468 
L 517.090909 817.086468 
L 520.363636 817.086468 
L 523.636364 817.086468 
L 526.909091 817.086468 
L 530.181818 817.086468 
L 533.454545 817.086468 
L 536.727273 817.086468 
L 540 817.086468 
L 543.272727 817.086468 
L 546.545455 817.086468 
L 549.818182 817.086468 
L 553.090909 817.086468 
L 556.363636 817.086468 
L 559.636364 817.086468 
L 562.909091 817.086468 
L 566.181818 817.086468 
L 569.454545 817.086468 
L 572.727273 817.086468 
L 576 817.086468 
L 576 813.804996 
L 576 810.523524 
L 576 807.242053 
L 576 803.960581 
L 576 800.679109 
L 576 797.397637 
L 576 794.116166 
L 576 790.834694 
L 576 787.553222 
L 576 784.27175 
L 576 780.990279 
L 576 777.708807 
L 576 774.427335 
L 576 771.145863 
L 576 767.864392 
L 576 764.58292 
L 576 761.301448 
L 576 758.019976 
L 576 754.738504 
L 576 751.457033 
L 576 748.175561 
L 576 744.894089 
L 576 741.612617 
L 576 738.331146 
L 576 735.049674 
L 576 731.768202 
L 576 728.48673 
L 576 725.205259 
L 576 721.923787 
L 576 718.642315 
L 576 715.360843 
L 576 712.079372 
L 576 708.7979 
L 576 705.516428 
L 576 702.234956 
L 576 698.953485 
L 576 695.672013 
L 576 692.390541 
L 576 689.109069 
L 576 685.827598 
L 576 682.546126 
L 576 679.264654 
L 576 675.983182 
L 576 672.701711 
L 576 669.420239 
L 576 666.138767 
L 576 662.857295 
L 576 659.575823 
L 576 656.294352 
L 576 653.01288 
L 576 649.731408 
L 576 646.449936 
L 576 643.168465 
L 576 639.886993 
L 576 636.605521 
L 576 633.324049 
L 576 630.042578 
L 576 626.761106 
L 576 623.479634 
L 576 620.198162 
L 576 616.916691 
L 576 613.635219 
L 576 610.353747 
L 576 607.072275 
L 576 603.790804 
L 576 600.509332 
L 576 597.22786 
L 576 593.946388 
L 576 590.664917 
L 576 587.383445 
L 576 584.101973 
L 576 580.820501 
L 576 577.53903 
L 576 574.257558 
L 576 570.976086 
L 576 567.694614 
L 576 564.413142 
L 576 561.131671 
L 576 557.850199 
L 576 554.568727 
L 576 551.287255 
L 576 548.005784 
L 576 544.724312 
L 576 541.44284 
L 576 538.161368 
L 576 534.879897 
L 576 531.598425 
L 576 528.316953 
L 576 525.035481 
L 576 521.75401 
L 576 518.472538 
L 576 515.191066 
L 576 511.909594 
L 576 508.628123 
L 576 505.346651 
L 576 502.065179 
L 576 498.783707 
L 576 495.502236 
L 576 492.220764 
L 576 488.939292 
L 576 485.65782 
L 576 482.376349 
L 576 479.094877 
L 576 475.813405 
L 576 472.531933 
L 576 469.250461 
L 576 465.96899 
L 576 462.687518 
L 576 459.406046 
L 576 456.124574 
L 576 452.843103 
L 576 449.561631 
L 576 446.280159 
L 576 442.998687 
L 576 439.717216 
L 576 436.435744 
L 576 433.154272 
L 576 429.8728 
L 576 426.591329 
L 576 423.309857 
L 576 420.028385 
L 576 416.746913 
L 576 413.465442 
L 576 410.18397 
L 576 406.902498 
L 576 403.621026 
L 576 400.339555 
L 576 397.058083 
L 576 393.776611 
L 576 390.495139 
L 576 387.213668 
L 576 383.932196 
L 576 380.650724 
L 576 377.369252 
L 576 374.08778 
L 576 370.806309 
L 576 367.524837 
L 576 364.243365 
L 576 360.961893 
L 576 357.680422 
L 576 354.39895 
L 576 351.117478 
L 576 347.836006 
L 576 344.554535 
L 576 341.273063 
L 576 337.991591 
L 576 334.710119 
L 576 331.428648 
L 576 328.147176 
L 576 324.865704 
L 576 321.584232 
L 576 318.302761 
L 576 315.021289 
L 576 311.739817 
L 576 308.458345 
L 576 305.176874 
L 576 301.895402 
L 576 298.61393 
L 576 295.332458 
L 576 292.050987 
L 576 288.769515 
L 576 285.488043 
L 576 282.206571 
L 576 278.925099 
L 576 275.643628 
L 576 272.362156 
L 576 269.080684 
L 576 265.799212 
L 576 262.517741 
L 576 259.236269 
L 576 255.954797 
L 576 252.673325 
L 576 249.391854 
L 576 246.110382 
L 576 242.82891 
L 576 239.547438 
L 576 236.265967 
L 576 232.984495 
L 576 229.703023 
L 576 226.421551 
L 576 223.14008 
L 576 219.858608 
L 576 216.577136 
L 576 213.295664 
L 576 210.014193 
L 576 206.732721 
L 576 203.451249 
L 576 200.169777 
L 576 196.888306 
L 576 193.606834 
L 576 190.325362 
L 576 187.04389 
L 576 183.762418 
L 576 180.480947 
L 576 177.199475 
L 576 173.918003 
L 576 170.636531 
L 576 167.35506 
L 576 164.073588 
L 576 160.792116 
L 576 157.510644 
L 576 154.229173 
L 576 150.947701 
L 576 147.666229 
L 576 144.384757 
L 576 141.103286 
L 576 137.821814 
L 576 134.540342 
L 576 131.25887 
L 576 127.977399 
L 576 124.695927 
L 576 121.414455 
L 576 118.132983 
L 576 114.851512 
L 576 111.57004 
L 576 108.288568 
L 576 105.007096 
L 576 101.725625 
L 576 98.444153 
L 576 95.162681 
L 576 91.881209 
L 576 88.599737 
L 576 85.318266 
L 576 82.036794 
L 576 78.755322 
L 576 75.47385 
L 576 72.192379 
L 576 68.910907 
L 576 65.629435 
L 576 62.347963 
L 576 59.066492 
L 576 55.78502 
L 576 52.503548 
L 576 49.222076 
L 576 45.940605 
L 576 42.659133 
L 576 39.377661 
L 576 36.096189 
L 576 32.814718 
L 576 29.533246 
L 576 26.251774 
L 576 22.970302 
L 576 19.688831 
L 576 16.407359 
L 576 13.125887 
L 576 9.844415 
L 576 6.562944 
L 576 3.281472 
L 576 0 
L 572.727273 0 
L 569.454545 0 
L 566.181818 0 
L 562.909091 0 
L 559.636364 0 
L 556.363636 0 
L 553.090909 0 
L 549.818182 0 
L 546.545455 0 
L 543.272727 0 
L 540 0 
L 536.727273 0 
L 533.454545 0 
L 530.181818 0 
L 526.909091 0 
L 523.636364 0 
L 520.363636 0 
L 517.090909 0 
L 513.818182 0 
L 510.545455 0 
L 507.272727 0 
L 504 0 
L 500.727273 0 
L 497.454545 0 
L 494.181818 0 
L 490.909091 0 
L 487.636364 0 
L 484.363636 0 
L 481.090909 0 
L 477.818182 0 
L 474.545455 0 
L 471.272727 0 
L 468 0 
L 464.727273 0 
L 461.454545 0 
L 458.181818 0 
L 454.909091 0 
L 451.636364 0 
L 448.363636 0 
L 445.090909 0 
L 441.818182 0 
L 438.545455 0 
L 435.272727 0 
L 432 0 
L 428.727273 0 
L 425.454545 0 
L 422.181818 0 
L 418.909091 0 
L 415.636364 0 
L 412.363636 0 
L 409.090909 0 
L 405.818182 0 
L 402.545455 0 
L 399.272727 0 
L 396 0 
L 392.727273 0 
L 389.454545 0 
L 386.181818 0 
L 382.909091 0 
L 379.636364 0 
L 376.363636 0 
L 373.090909 0 
L 369.818182 0 
L 366.545455 0 
L 363.272727 0 
L 360 0 
L 356.727273 0 
L 353.454545 0 
L 350.181818 0 
L 346.909091 0 
L 343.636364 0 
L 340.363636 0 
L 337.090909 0 
L 333.818182 0 
L 330.545455 0 
L 327.272727 0 
L 324 0 
L 320.727273 0 
L 317.454545 0 
L 314.181818 0 
L 310.909091 0 
L 307.636364 0 
L 304.363636 0 
L 301.090909 0 
L 297.818182 0 
L 294.545455 0 
L 291.272727 0 
L 288 0 
L 284.727273 0 
L 281.454545 0 
L 278.181818 0 
L 274.909091 0 
L 271.636364 0 
L 268.363636 0 
L 265.090909 0 
L 261.818182 0 
L 258.545455 0 
L 255.272727 0 
L 252 0 
L 248.727273 0 
L 245.454545 0 
L 242.181818 0 
L 238.909091 0 
L 235.636364 0 
L 232.363636 0 
L 229.090909 0 
L 225.818182 0 
L 222.545455 0 
L 219.272727 0 
L 216 0 
L 212.727273 0 
L 209.454545 0 
L 206.181818 0 
L 202.909091 0 
L 199.636364 0 
L 196.363636 0 
L 193.090909 0 
L 189.818182 0 
L 186.545455 0 
L 183.272727 0 
L 180 0 
L 176.727273 0 
L 173.454545 0 
L 170.181818 0 
L 166.909091 0 
L 163.636364 0 
L 160.363636 0 
L 157.090909 0 
L 153.818182 0 
L 150.545455 0 
L 147.272727 0 
L 144 0 
L 140.727273 0 
L 137.454545 0 
L 134.181818 0 
L 130.909091 0 
L 127.636364 0 
L 124.363636 0 
L 121.090909 0 
L 117.818182 0 
L 114.545455 0 
L 111.272727 0 
L 108 0 
L 104.727273 0 
L 101.454545 0 
L 98.181818 0 
L 94.909091 0 
L 91.636364 0 
L 88.363636 0 
L 85.090909 0 
L 81.818182 0 
L 78.545455 0 
L 75.272727 0 
L 72 0 
L 68.727273 0 
L 65.454545 0 
L 62.181818 0 
L 58.909091 0 
L 55.636364 0 
L 52.363636 0 
L 49.090909 0 
L 45.818182 0 
L 42.545455 0 
L 39.272727 0 
L 36 0 
L 32.727273 0 
L 29.454545 0 
L 26.181818 0 
L 22.909091 0 
L 19.636364 0 
L 16.363636 0 
L 13.090909 0 
L 9.818182 0 
L 6.545455 0 
L 3.272727 0 
L -0 0 
L -0 3.281472 
L -0 6.562944 
L -0 9.844415 
L -0 13.125887 
L -0 16.407359 
L -0 19.688831 
L -0 22.970302 
L -0 26.251774 
L -0 29.533246 
L -0 32.814718 
L -0 36.096189 
L -0 39.377661 
L -0 42.659133 
L -0 45.940605 
L -0 49.222076 
L -0 52.503548 
L -0 55.78502 
L -0 59.066492 
L -0 62.347963 
L -0 65.629435 
L -0 68.910907 
L -0 72.192379 
L -0 75.47385 
L -0 78.755322 
L -0 82.036794 
L -0 85.318266 
L -0 88.599737 
L -0 91.881209 
L -0 95.162681 
L -0 98.444153 
L -0 101.725625 
L -0 105.007096 
L -0 108.288568 
L -0 111.57004 
L -0 114.851512 
L -0 118.132983 
L -0 121.414455 
L -0 124.695927 
L -0 127.977399 
L -0 131.25887 
L -0 134.540342 
L -0 137.821814 
L -0 141.103286 
L -0 144.384757 
L -0 147.666229 
L -0 150.947701 
L -0 154.229173 
L -0 157.510644 
L -0 160.792116 
L -0 164.073588 
L -0 167.35506 
L -0 170.636531 
L -0 173.918003 
L -0 177.199475 
L -0 180.480947 
L -0 183.762418 
L -0 187.04389 
L -0 190.325362 
L -0 193.606834 
L -0 196.888306 
L -0 200.169777 
L -0 203.451249 
L -0 206.732721 
L -0 210.014193 
L -0 213.295664 
L -0 216.577136 
L -0 219.858608 
L -0 223.14008 
L -0 226.421551 
L -0 229.703023 
L -0 232.984495 
L -0 236.265967 
L -0 239.547438 
L -0 242.82891 
L -0 246.110382 
L -0 249.391854 
L -0 252.673325 
L -0 255.954797 
L -0 259.236269 
L -0 262.517741 
L -0 265.799212 
L -0 269.080684 
L -0 272.362156 
L -0 275.643628 
L -0 278.925099 
L -0 282.206571 
L -0 285.488043 
L -0 288.769515 
L -0 292.050987 
L -0 295.332458 
L -0 298.61393 
L -0 301.895402 
L -0 305.176874 
L -0 308.458345 
L -0 311.739817 
L -0 315.021289 
L -0 318.302761 
L -0 321.584232 
L -0 324.865704 
L -0 328.147176 
L -0 331.428648 
L -0 334.710119 
L -0 337.991591 
L -0 341.273063 
L -0 344.554535 
L -0 347.836006 
L -0 351.117478 
L -0 354.39895 
L -0 357.680422 
L -0 360.961893 
L -0 364.243365 
L -0 367.524837 
L -0 370.806309 
L -0 374.08778 
L -0 377.369252 
L -0 380.650724 
L -0 383.932196 
L -0 387.213668 
L -0 390.495139 
L -0 393.776611 
L -0 397.058083 
L -0 400.339555 
L -0 403.621026 
L -0 406.902498 
L -0 410.18397 
L -0 413.465442 
L -0 416.746913 
L -0 420.028385 
L -0 423.309857 
L -0 426.591329 
L -0 429.8728 
L -0 433.154272 
L -0 436.435744 
L -0 439.717216 
L -0 442.998687 
L -0 446.280159 
L -0 449.561631 
L -0 452.843103 
L -0 456.124574 
L -0 459.406046 
L -0 462.687518 
L -0 465.96899 
L -0 469.250461 
L -0 472.531933 
L -0 475.813405 
L -0 479.094877 
L -0 482.376349 
L -0 485.65782 
L -0 488.939292 
L -0 492.220764 
L -0 495.502236 
L -0 498.783707 
L -0 502.065179 
L -0 505.346651 
L -0 508.628123 
L -0 511.909594 
L -0 515.191066 
L -0 518.472538 
L -0 521.75401 
L -0 525.035481 
L -0 528.316953 
L -0 531.598425 
L -0 534.879897 
L -0 538.161368 
L -0 541.44284 
L -0 544.724312 
L -0 548.005784 
L -0 551.287255 
L -0 554.568727 
L -0 557.850199 
L -0 561.131671 
L -0 564.413142 
L -0 567.694614 
L -0 570.976086 
L -0 574.257558 
L -0 577.53903 
L -0 580.820501 
L -0 584.101973 
L -0 587.383445 
L -0 590.664917 
L -0 593.946388 
L -0 597.22786 
L -0 600.509332 
L -0 603.790804 
L -0 607.072275 
L -0 610.353747 
L -0 613.635219 
L -0 616.916691 
L -0 620.198162 
L -0 623.479634 
L -0 626.761106 
L -0 630.042578 
L -0 633.324049 
L -0 636.605521 
L -0 639.886993 
L -0 643.168465 
L -0 646.449936 
L -0 649.731408 
L -0 653.01288 
L -0 656.294352 
L -0 659.575823 
L -0 662.857295 
L -0 666.138767 
L -0 669.420239 
L -0 672.701711 
L -0 675.983182 
L -0 679.264654 
L -0 682.546126 
L -0 685.827598 
L -0 689.109069 
L -0 692.390541 
L -0 695.672013 
L -0 698.953485 
L -0 702.234956 
L -0 705.516428 
L -0 708.7979 
L -0 712.079372 
L -0 715.360843 
L -0 718.642315 
L -0 721.923787 
L -0 725.205259 
L -0 728.48673 
L -0 731.768202 
L -0 735.049674 
L -0 738.331146 
L -0 741.612617 
L -0 744.894089 
L -0 748.175561 
L -0 751.457033 
L -0 754.738504 
L -0 758.019976 
L -0 761.301448 
L -0 764.58292 
L -0 767.864392 
L -0 771.145863 
L -0 774.427335 
L -0 777.708807 
L -0 780.990279 
L -0 784.27175 
L -0 787.553222 
L -0 790.834694 
L -0 794.116166 
L -0 797.397637 
L -0 800.679109 
L -0 803.960581 
L -0 807.242053 
L -0 810.523524 
L -0 813.804996 
L -0 817.086468 
z
" clip-path="url(#ped9ad35e34)" style="fill: #f5f9fe; fill-opacity: 0.9"/>
    <path clip-path="url(#ped9ad35e34)" style="fill: #eff6fc; fill-opacity: 0.9"/>
    <path clip-path="url(#ped9ad35e34)" style="fill: #eaf3fb; fill-opacity: 0.9"/>
    <path clip-path="url(#ped9ad35e34)" style="fill: #e5eff9; fill-opacity: 0.9"/>
    <path clip-path="url(#ped9ad35e34)" style="fill: #dfecf7; fill-opacity: 0.9"/>
    <path clip-path="url(#ped9ad35e34)" style="fill: #dae8f6; fill-opacity: 0.9"/>
    <path clip-path="url(#ped9ad35e34)" style="fill: #d6e5f4; fill-opacity: 0.9"/>
    <path clip-path="url(#ped9ad35e34)" style="fill: #d0e2f2; fill-opacity: 0.9"/>
    <path clip-path="url(#ped9ad35e34)" style="fill: #cbdef1; fill-opacity: 0.9"/>
    <path clip-path="url(#ped9ad35e34)" style="fill: #c6dbef; fill-opacity: 0.9"/>
    <path clip-path="url(#ped9ad35e34)" style="fill: #bed8ec; fill-opacity: 0.9"/>
    <path clip-path="url(#ped9ad35e34)" style="fill: #b5d4e9; fill-opacity: 0.9"/>
    <path clip-path="url(#ped9ad35e34)" style="fill: #add0e6; fill-opacity: 0.9"/>
    <path clip-path="url(#ped9ad35e34)" style="fill: #a5cde3; fill-opacity: 0.9"/>
    <path clip-path="url(#ped9ad35e34)" style="fill: #9cc9e1; fill-opacity: 0.9"/>
    <path clip-path="url(#ped9ad35e34)" style="fill: #91c3de; fill-opacity: 0.9"/>
    <path clip-path="url(#ped9ad35e34)" style="fill: #85bcdc; fill-opacity: 0.9"/>
    <path clip-path="url(#ped9ad35e34)" style="fill: #7cb7da; fill-opacity: 0.9"/>
    <path clip-path="url(#ped9ad35e34)" style="fill: #71b1d7; fill-opacity: 0.9"/>
    <path clip-path="url(#ped9ad35e34)" style="fill: #66abd4; fill-opacity: 0.9"/>
    <path clip-path="url(#ped9ad35e34)" style="fill: #5da5d1; fill-opacity: 0.9"/>
    <path clip-path="url(#ped9ad35e34)" style="fill: #56a0ce; fill-opacity: 0.9"/>
    <path clip-path="url(#ped9ad35e34)" style="fill: #4d99ca; fill-opacity: 0.9"/>
    <path clip-path="url(#ped9ad35e34)" style="fill: #4493c7; fill-opacity: 0.9"/>
    <path clip-path="url(#ped9ad35e34)" style="fill: #3c8cc3; fill-opacity: 0.9"/>
    <path clip-path="url(#ped9ad35e34)" style="fill: #3686c0; fill-opacity: 0.9"/>
    <path clip-path="url(#ped9ad35e34)" style="fill: #2f7fbc; fill-opacity: 0.9"/>
    <path clip-path="url(#ped9ad35e34)" style="fill: #2777b8; fill-opacity: 0.9"/>
    <path clip-path="url(#ped9ad35e34)" style="fill: #2070b4; fill-opacity: 0.9"/>
    <path clip-path="url(#ped9ad35e34)" style="fill: #1c6ab0; fill-opacity: 0.9"/>
    <path clip-path="url(#ped9ad35e34)" style="fill: #1663aa; fill-opacity: 0.9"/>
    <path clip-path="url(#ped9ad35e34)" style="fill: #115ca5; fill-opacity: 0.9"/>
    <path clip-path="url(#ped9ad35e34)" style="fill: #0c56a0; fill-opacity: 0.9"/>
    <path clip-path="url(#ped9ad35e34)" style="fill: #084f99; fill-opacity: 0.9"/>
    <path clip-path="url(#ped9ad35e34)" style="fill: #08488e; fill-opacity: 0.9"/>
    <path clip-path="url(#ped9ad35e34)" style="fill: #084184; fill-opacity: 0.9"/>
    <path clip-path="url(#ped9ad35e34)" style="fill: #083a7a; fill-opacity: 0.9"/>
    <path clip-path="url(#ped9ad35e34)" style="fill: #083370; fill-opacity: 0.9"/>
    <path clip-path="url(#ped9ad35e34)" style="fill: #08306b; fill-opacity: 0.9"/>
   </g>
   <g id="QuadContourSet_2">
    <path clip-path="url(#ped9ad35e34)" style="fill: none"/>
    <path clip-path="url(#ped9ad35e34)" style="fill: none"/>
    <path clip-path="url(#ped9ad35e34)" style="fill: none"/>
    <path clip-path="url(#ped9ad35e34)" style="fill: none"/>
    <path clip-path="url(#ped9ad35e34)" style="fill: none"/>
    <path clip-path="url(#ped9ad35e34)" style="fill: none"/>
    <path clip-path="url(#ped9ad35e34)" style="fill: none"/>
    <path clip-path="url(#ped9ad35e34)" style="fill: none"/>
    <path clip-path="url(#ped9ad35e34)" style="fill: none"/>
    <path clip-path="url(#ped9ad35e34)" style="fill: none"/>
    <path clip-path="url(#ped9ad35e34)" style="fill: none"/>
    <path clip-path="url(#ped9ad35e34)" style="fill: none"/>
    <path clip-path="url(#ped9ad35e34)" style="fill: none"/>
    <path clip-path="url(#ped9ad35e34)" style="fill: none"/>
    <path clip-path="url(#ped9ad35e34)" style="fill: none"/>
    <path clip-path="url(#ped9ad35e34)" style="fill: none"/>
    <path clip-path="url(#ped9ad35e34)" style="fill: none"/>
    <path clip-path="url(#ped9ad35e34)" style="fill: none"/>
    <path clip-path="url(#ped9ad35e34)" style="fill: none"/>
    <path clip-path="url(#ped9ad35e34)" style="fill: none"/>
    <path clip-path="url(#ped9ad35e34)" style="fill: none"/>
    <path clip-path="url(#ped9ad35e34)" style="fill: none"/>
    <path clip-path="url(#ped9ad35e34)" style="fill: none"/>
    <path clip-path="url(#ped9ad35e34)" style="fill: none"/>
    <path clip-path="url(#ped9ad35e34)" style="fill: none"/>
    <path clip-path="url(#ped9ad35e34)" style="fill: none"/>
    <path clip-path="url(#ped9ad35e34)" style="fill: none"/>
    <path clip-path="url(#ped9ad35e34)" style="fill: none"/>
    <path clip-path="url(#ped9ad35e34)" style="fill: none"/>
    <path clip-path="url(#ped9ad35e34)" style="fill: none"/>
    <path clip-path="url(#ped9ad35e34)" style="fill: none"/>
    <path clip-path="url(#ped9ad35e34)" style="fill: none"/>
    <path clip-path="url(#ped9ad35e34)" style="fill: none"/>
    <path clip-path="url(#ped9ad35e34)" style="fill: none"/>
    <path clip-path="url(#ped9ad35e34)" style="fill: none"/>
    <path clip-path="url(#ped9ad35e34)" style="fill: none"/>
    <path clip-path="url(#ped9ad35e34)" style="fill: none"/>
    <path clip-path="url(#ped9ad35e34)" style="fill: none"/>
    <path clip-path="url(#ped9ad35e34)" style="fill: none"/>
   </g>
  </g>
 </g>
 <defs>
  <clipPath id="ped9ad35e34">
   <rect x="0" y="0" width="576" height="817.086468"/>
  </clipPath>
 </defs>
</svg>
