<?xml version="1.0" encoding="utf-8" standalone="no"?>
<!DOCTYPE svg PUBLIC "-//W3C//DTD SVG 1.1//EN"
  "http://www.w3.org/Graphics/SVG/1.1/DTD/svg11.dtd">
<svg xmlns:xlink="http://www.w3.org/1999/xlink" width="576pt" height="815.227542pt" viewBox="0 0 576 815.227542" xmlns="http://www.w3.org/2000/svg" version="1.1">
 <metadata>
  <rdf:RDF xmlns:dc="http://purl.org/dc/elements/1.1/" xmlns:cc="http://creativecommons.org/ns#" xmlns:rdf="http://www.w3.org/1999/02/22-rdf-syntax-ns#">
   <cc:Work>
    <dc:type rdf:resource="http://purl.org/dc/dcmitype/StillImage"/>
    <dc:date>2025-07-25T22:45:09.050099</dc:date>
    <dc:format>image/svg+xml</dc:format>
    <dc:creator>
     <cc:Agent>
      <dc:title>Matplotlib v3.10.3, https://matplotlib.org/</dc:title>
     </cc:Agent>
    </dc:creator>
   </cc:Work>
  </rdf:RDF>
 </metadata>
 <defs>
  <style type="text/css">*{stroke-linejoin: round; stroke-linecap: butt}</style>
 </defs>
 <g id="figure_1">
  <g id="patch_1">
   <path d="M 0 815.227542 
L 576 815.227542 
L 576 0 
L 0 0 
L 0 815.227542 
z
" style="fill: none; opacity: 0"/>
  </g>
  <g id="axes_1">
   <g id="QuadContourSet_1">
    <path d="M 3.272727 815.227542 
L 6.545455 815.227542 
L 9.818182 815.227542 
L 13.090909 815.227542 
L 16.363636 815.227542 
L 19.636364 815.227542 
L 22.909091 815.227542 
L 26.181818 815.227542 
L 29.454545 815.227542 
L 32.727273 815.227542 
L 36 815.227542 
L 39.272727 815.227542 
L 42.545455 815.227542 
L 45.818182 815.227542 
L 49.090909 815.227542 
L 52.363636 815.227542 
L 55.636364 815.227542 
L 58.909091 815.227542 
L 62.181818 815.227542 
L 65.454545 815.227542 
L 68.727273 815.227542 
L 72 815.227542 
L 75.272727 815.227542 
L 78.545455 815.227542 
L 81.818182 815.227542 
L 85.090909 815.227542 
L 88.363636 815.227542 
L 91.636364 815.227542 
L 94.909091 815.227542 
L 98.181818 815.227542 
L 101.454545 815.227542 
L 104.727273 815.227542 
L 108 815.227542 
L 111.272727 815.227542 
L 114.545455 815.227542 
L 117.818182 815.227542 
L 121.090909 815.227542 
L 124.363636 815.227542 
L 127.636364 815.227542 
L 130.909091 815.227542 
L 134.181818 815.227542 
L 137.454545 815.227542 
L 140.727273 815.227542 
L 144 815.227542 
L 147.272727 815.227542 
L 150.545455 815.227542 
L 153.818182 815.227542 
L 157.090909 815.227542 
L 160.363636 815.227542 
L 163.636364 815.227542 
L 166.909091 815.227542 
L 170.181818 815.227542 
L 173.454545 815.227542 
L 176.727273 815.227542 
L 180 815.227542 
L 183.272727 815.227542 
L 186.545455 815.227542 
L 189.818182 815.227542 
L 193.090909 815.227542 
L 196.363636 815.227542 
L 199.636364 815.227542 
L 202.909091 815.227542 
L 206.181818 815.227542 
L 209.454545 815.227542 
L 212.727273 815.227542 
L 216 815.227542 
L 219.272727 815.227542 
L 222.545455 815.227542 
L 225.818182 815.227542 
L 229.090909 815.227542 
L 232.363636 815.227542 
L 235.636364 815.227542 
L 238.909091 815.227542 
L 242.181818 815.227542 
L 245.454545 815.227542 
L 248.727273 815.227542 
L 252 815.227542 
L 255.272727 815.227542 
L 258.545455 815.227542 
L 261.818182 815.227542 
L 265.090909 815.227542 
L 268.363636 815.227542 
L 271.636364 815.227542 
L 274.909091 815.227542 
L 278.181818 815.227542 
L 281.454545 815.227542 
L 284.727273 815.227542 
L 288 815.227542 
L 291.272727 815.227542 
L 294.545455 815.227542 
L 297.818182 815.227542 
L 301.090909 815.227542 
L 304.363636 815.227542 
L 307.636364 815.227542 
L 310.909091 815.227542 
L 314.181818 815.227542 
L 317.454545 815.227542 
L 320.727273 815.227542 
L 324 815.227542 
L 327.272727 815.227542 
L 330.545455 815.227542 
L 333.818182 815.227542 
L 337.090909 815.227542 
L 340.363636 815.227542 
L 343.636364 815.227542 
L 346.909091 815.227542 
L 350.181818 815.227542 
L 353.454545 815.227542 
L 356.727273 815.227542 
L 360 815.227542 
L 363.272727 815.227542 
L 366.545455 815.227542 
L 369.818182 815.227542 
L 373.090909 815.227542 
L 376.363636 815.227542 
L 379.636364 815.227542 
L 382.909091 815.227542 
L 386.181818 815.227542 
L 389.454545 815.227542 
L 392.727273 815.227542 
L 396 815.227542 
L 399.272727 815.227542 
L 402.545455 815.227542 
L 405.818182 815.227542 
L 409.090909 815.227542 
L 412.363636 815.227542 
L 415.636364 815.227542 
L 418.909091 815.227542 
L 422.181818 815.227542 
L 425.454545 815.227542 
L 428.727273 815.227542 
L 432 815.227542 
L 435.272727 815.227542 
L 438.545455 815.227542 
L 441.818182 815.227542 
L 445.090909 815.227542 
L 448.363636 815.227542 
L 451.636364 815.227542 
L 454.909091 815.227542 
L 458.181818 815.227542 
L 461.454545 815.227542 
L 464.727273 815.227542 
L 468 815.227542 
L 471.272727 815.227542 
L 474.545455 815.227542 
L 477.818182 815.227542 
L 481.090909 815.227542 
L 484.363636 815.227542 
L 487.636364 815.227542 
L 490.909091 815.227542 
L 494.181818 815.227542 
L 497.454545 815.227542 
L 500.727273 815.227542 
L 504 815.227542 
L 507.272727 815.227542 
L 510.545455 815.227542 
L 513.818182 815.227542 
L 517.090909 815.227542 
L 520.363636 815.227542 
L 523.636364 815.227542 
L 526.909091 815.227542 
L 530.181818 815.227542 
L 533.454545 815.227542 
L 536.727273 815.227542 
L 540 815.227542 
L 543.272727 815.227542 
L 546.545455 815.227542 
L 549.818182 815.227542 
L 553.090909 815.227542 
L 556.363636 815.227542 
L 559.636364 815.227542 
L 562.909091 815.227542 
L 566.181818 815.227542 
L 569.454545 815.227542 
L 572.727273 815.227542 
L 576 815.227542 
L 576 811.953535 
L 576 808.679529 
L 576 805.405523 
L 576 802.131517 
L 576 798.857511 
L 576 795.583504 
L 576 792.309498 
L 576 789.035492 
L 576 785.761486 
L 576 782.48748 
L 576 779.213473 
L 576 775.939467 
L 576 772.665461 
L 576 769.391455 
L 576 766.117449 
L 576 762.843442 
L 576 759.569436 
L 576 756.29543 
L 576 753.021424 
L 576 749.747418 
L 576 746.473412 
L 576 743.199405 
L 576 739.925399 
L 576 736.651393 
L 576 733.377387 
L 576 730.103381 
L 576 726.829374 
L 576 723.555368 
L 576 720.281362 
L 576 717.007356 
L 576 713.73335 
L 576 710.459343 
L 576 707.185337 
L 576 703.911331 
L 576 700.637325 
L 576 697.363319 
L 576 694.089312 
L 576 690.815306 
L 576 687.5413 
L 576 684.267294 
L 576 680.993288 
L 576 677.719281 
L 576 674.445275 
L 576 671.171269 
L 576 667.897263 
L 576 664.623257 
L 576 661.349251 
L 576 658.075244 
L 576 654.801238 
L 576 651.527232 
L 576 648.253226 
L 576 644.97922 
L 576 641.705213 
L 576 638.431207 
L 576 635.157201 
L 576 631.883195 
L 576 628.609189 
L 576 625.335182 
L 576 622.061176 
L 576 618.78717 
L 576 615.513164 
L 576 612.239158 
L 576 608.965151 
L 576 605.691145 
L 576 602.417139 
L 576 599.143133 
L 576 595.869127 
L 576 592.595121 
L 576 589.321114 
L 576 586.047108 
L 576 582.773102 
L 576 579.499096 
L 576 576.22509 
L 576 572.951083 
L 576 569.677077 
L 576 566.403071 
L 576 563.129065 
L 576 559.855059 
L 576 556.581052 
L 576 553.307046 
L 576 550.03304 
L 576 546.759034 
L 576 543.485028 
L 576 540.211021 
L 576 536.937015 
L 576 533.663009 
L 576 530.389003 
L 576 527.114997 
L 576 523.840991 
L 576 520.566984 
L 576 517.292978 
L 576 514.018972 
L 576 510.744966 
L 576 507.47096 
L 576 504.196953 
L 576 500.922947 
L 576 497.648941 
L 576 494.374935 
L 576 491.100929 
L 576 487.826922 
L 576 484.552916 
L 576 481.27891 
L 576 478.004904 
L 576 474.730898 
L 576 471.456891 
L 576 468.182885 
L 576 464.908879 
L 576 461.634873 
L 576 458.360867 
L 576 455.086861 
L 576 451.812854 
L 576 448.538848 
L 576 445.264842 
L 576 441.990836 
L 576 438.71683 
L 576 435.442823 
L 576 432.168817 
L 576 428.894811 
L 576 425.620805 
L 576 422.346799 
L 576 419.072792 
L 576 415.798786 
L 576 412.52478 
L 576 409.250774 
L 576 405.976768 
L 576 402.702761 
L 576 399.428755 
L 576 396.154749 
L 576 392.880743 
L 576 389.606737 
L 576 386.332731 
L 576 383.058724 
L 576 379.784718 
L 576 376.510712 
L 576 373.236706 
L 576 369.9627 
L 576 366.688693 
L 576 363.414687 
L 576 360.140681 
L 576 356.866675 
L 576 353.592669 
L 576 350.318662 
L 576 347.044656 
L 576 343.77065 
L 576 340.496644 
L 576 337.222638 
L 576 333.948631 
L 576 330.674625 
L 576 327.400619 
L 576 324.126613 
L 576 320.852607 
L 576 317.578601 
L 576 314.304594 
L 576 311.030588 
L 576 307.756582 
L 576 304.482576 
L 576 301.20857 
L 576 297.934563 
L 576 294.660557 
L 576 291.386551 
L 576 288.112545 
L 576 284.838539 
L 576 281.564532 
L 576 278.290526 
L 576 275.01652 
L 576 271.742514 
L 576 268.468508 
L 576 265.194501 
L 576 261.920495 
L 576 258.646489 
L 576 255.372483 
L 576 252.098477 
L 576 248.824471 
L 576 245.550464 
L 576 242.276458 
L 576 239.002452 
L 576 235.728446 
L 576 232.45444 
L 576 229.180433 
L 576 225.906427 
L 576 222.632421 
L 576 219.358415 
L 576 216.084409 
L 576 212.810402 
L 576 209.536396 
L 576 206.26239 
L 576 202.988384 
L 576 199.714378 
L 576 196.440371 
L 576 193.166365 
L 576 189.892359 
L 576 186.618353 
L 576 183.344347 
L 576 180.07034 
L 576 176.796334 
L 576 173.522328 
L 576 170.248322 
L 576 166.974316 
L 576 163.70031 
L 576 160.426303 
L 576 157.152297 
L 576 153.878291 
L 576 150.604285 
L 576 147.330279 
L 576 144.056272 
L 576 140.782266 
L 576 137.50826 
L 576 134.234254 
L 576 130.960248 
L 576 127.686241 
L 576 124.412235 
L 576 121.138229 
L 576 117.864223 
L 576 114.590217 
L 576 111.31621 
L 576 108.042204 
L 576 104.768198 
L 576 101.494192 
L 576 98.220186 
L 576 94.94618 
L 576 91.672173 
L 576 88.398167 
L 576 85.124161 
L 576 81.850155 
L 576 78.576149 
L 576 75.302142 
L 576 72.028136 
L 576 68.75413 
L 576 65.480124 
L 576 62.206118 
L 576 58.932111 
L 576 55.658105 
L 576 52.384099 
L 576 49.110093 
L 576 45.836087 
L 576 42.56208 
L 576 39.288074 
L 576 36.014068 
L 576 32.740062 
L 576 29.466056 
L 576 26.19205 
L 576 22.918043 
L 576 19.644037 
L 576 16.370031 
L 576 13.096025 
L 576 9.822019 
L 576 6.548012 
L 576 3.274006 
L 576 -0 
L 572.727273 -0 
L 569.454545 -0 
L 566.181818 -0 
L 562.909091 -0 
L 559.636364 -0 
L 556.363636 -0 
L 553.090909 -0 
L 549.818182 -0 
L 546.545455 -0 
L 543.272727 -0 
L 540 -0 
L 536.727273 -0 
L 533.454545 -0 
L 530.181818 -0 
L 526.909091 -0 
L 523.636364 -0 
L 520.363636 -0 
L 517.090909 -0 
L 513.818182 -0 
L 510.545455 -0 
L 507.272727 -0 
L 504 -0 
L 500.727273 -0 
L 497.454545 -0 
L 494.181818 -0 
L 490.909091 -0 
L 487.636364 -0 
L 484.363636 -0 
L 481.090909 -0 
L 477.818182 -0 
L 474.545455 -0 
L 471.272727 -0 
L 468 -0 
L 464.727273 -0 
L 461.454545 -0 
L 458.181818 -0 
L 454.909091 -0 
L 451.636364 -0 
L 448.363636 -0 
L 445.090909 -0 
L 441.818182 -0 
L 438.545455 -0 
L 435.272727 -0 
L 432 -0 
L 428.727273 -0 
L 425.454545 -0 
L 422.181818 -0 
L 418.909091 -0 
L 415.636364 -0 
L 412.363636 -0 
L 409.090909 -0 
L 405.818182 -0 
L 402.545455 -0 
L 399.272727 -0 
L 396 -0 
L 392.727273 -0 
L 389.454545 -0 
L 386.181818 -0 
L 382.909091 -0 
L 379.636364 -0 
L 376.363636 -0 
L 373.090909 -0 
L 369.818182 -0 
L 366.545455 -0 
L 363.272727 -0 
L 360 -0 
L 356.727273 -0 
L 353.454545 -0 
L 350.181818 -0 
L 346.909091 -0 
L 343.636364 -0 
L 340.363636 -0 
L 337.090909 -0 
L 333.818182 -0 
L 330.545455 -0 
L 327.272727 -0 
L 324 -0 
L 320.727273 -0 
L 317.454545 -0 
L 314.181818 -0 
L 310.909091 -0 
L 307.636364 -0 
L 304.363636 -0 
L 301.090909 -0 
L 297.818182 -0 
L 294.545455 -0 
L 291.272727 -0 
L 288 -0 
L 284.727273 -0 
L 281.454545 -0 
L 278.181818 -0 
L 274.909091 -0 
L 271.636364 -0 
L 268.363636 -0 
L 265.090909 -0 
L 261.818182 -0 
L 258.545455 -0 
L 255.272727 -0 
L 252 -0 
L 248.727273 -0 
L 245.454545 -0 
L 242.181818 -0 
L 238.909091 -0 
L 235.636364 -0 
L 232.363636 -0 
L 229.090909 -0 
L 225.818182 -0 
L 222.545455 -0 
L 219.272727 -0 
L 216 -0 
L 212.727273 -0 
L 209.454545 -0 
L 206.181818 -0 
L 202.909091 -0 
L 199.636364 -0 
L 196.363636 -0 
L 193.090909 -0 
L 189.818182 -0 
L 186.545455 -0 
L 183.272727 -0 
L 180 -0 
L 176.727273 -0 
L 173.454545 -0 
L 170.181818 -0 
L 166.909091 -0 
L 163.636364 -0 
L 160.363636 -0 
L 157.090909 -0 
L 153.818182 -0 
L 150.545455 -0 
L 147.272727 -0 
L 144 -0 
L 140.727273 -0 
L 137.454545 -0 
L 134.181818 -0 
L 130.909091 -0 
L 127.636364 -0 
L 124.363636 -0 
L 121.090909 -0 
L 117.818182 -0 
L 114.545455 -0 
L 111.272727 -0 
L 108 -0 
L 104.727273 -0 
L 101.454545 -0 
L 98.181818 -0 
L 94.909091 -0 
L 91.636364 -0 
L 88.363636 -0 
L 85.090909 -0 
L 81.818182 -0 
L 78.545455 -0 
L 75.272727 -0 
L 72 -0 
L 68.727273 -0 
L 65.454545 -0 
L 62.181818 -0 
L 58.909091 -0 
L 55.636364 -0 
L 52.363636 -0 
L 49.090909 -0 
L 45.818182 -0 
L 42.545455 -0 
L 39.272727 -0 
L 36 -0 
L 32.727273 -0 
L 29.454545 -0 
L 26.181818 -0 
L 22.909091 -0 
L 19.636364 -0 
L 16.363636 -0 
L 13.090909 -0 
L 9.818182 -0 
L 6.545455 -0 
L 3.272727 -0 
L 0 -0 
L 0 3.274006 
L 0 6.548012 
L 0 9.822019 
L 0 13.096025 
L 0 16.370031 
L 0 19.644037 
L 0 22.918043 
L 0 26.19205 
L 0 29.466056 
L 0 32.740062 
L 0 36.014068 
L 0 39.288074 
L 0 42.56208 
L 0 45.836087 
L 0 49.110093 
L 0 52.384099 
L 0 55.658105 
L 0 58.932111 
L 0 62.206118 
L 0 65.480124 
L 0 68.75413 
L 0 72.028136 
L 0 75.302142 
L 0 78.576149 
L 0 81.850155 
L 0 85.124161 
L 0 88.398167 
L 0 91.672173 
L 0 94.94618 
L 0 98.220186 
L 0 101.494192 
L 0 104.768198 
L 0 108.042204 
L 0 111.31621 
L 0 114.590217 
L 0 117.864223 
L 0 121.138229 
L 0 124.412235 
L 0 127.686241 
L 0 130.960248 
L 0 134.234254 
L 0 137.50826 
L 0 140.782266 
L 0 144.056272 
L 0 147.330279 
L 0 150.604285 
L 0 153.878291 
L 0 157.152297 
L 0 160.426303 
L 0 163.70031 
L 0 166.974316 
L 0 170.248322 
L 0 173.522328 
L 0 176.796334 
L 0 180.07034 
L 0 183.344347 
L 0 186.618353 
L 0 189.892359 
L 0 193.166365 
L 0 196.440371 
L 0 199.714378 
L 0 202.988384 
L 0 206.26239 
L 0 209.536396 
L 0 212.810402 
L 0 216.084409 
L 0 219.358415 
L 0 222.632421 
L 0 225.906427 
L 0 229.180433 
L 0 232.45444 
L 0 235.728446 
L 0 239.002452 
L 0 242.276458 
L 0 245.550464 
L 0 248.824471 
L 0 252.098477 
L 0 255.372483 
L 0 258.646489 
L 0 261.920495 
L 0 265.194501 
L 0 268.468508 
L 0 271.742514 
L 0 275.01652 
L 0 278.290526 
L 0 281.564532 
L 0 284.838539 
L 0 288.112545 
L 0 291.386551 
L 0 294.660557 
L 0 297.934563 
L 0 301.20857 
L 0 304.482576 
L 0 307.756582 
L 0 311.030588 
L 0 314.304594 
L 0 317.578601 
L 0 320.852607 
L 0 324.126613 
L 0 327.400619 
L 0 330.674625 
L 0 333.948631 
L 0 337.222638 
L 0 340.496644 
L 0 343.77065 
L 0 347.044656 
L 0 350.318662 
L 0 353.592669 
L 0 356.866675 
L 0 360.140681 
L 0 363.414687 
L 0 366.688693 
L 0 369.9627 
L 0 373.236706 
L 0 376.510712 
L 0 379.784718 
L 0 383.058724 
L 0 386.332731 
L 0 389.606737 
L 0 392.880743 
L 0 396.154749 
L 0 399.428755 
L 0 402.702761 
L 0 405.976768 
L 0 409.250774 
L 0 412.52478 
L 0 415.798786 
L 0 419.072792 
L 0 422.346799 
L 0 425.620805 
L 0 428.894811 
L 0 432.168817 
L 0 435.442823 
L 0 438.71683 
L 0 441.990836 
L 0 445.264842 
L 0 448.538848 
L 0 451.812854 
L 0 455.086861 
L 0 458.360867 
L 0 461.634873 
L 0 464.908879 
L 0 468.182885 
L 0 471.456891 
L 0 474.730898 
L 0 478.004904 
L 0 481.27891 
L 0 484.552916 
L 0 487.826922 
L 0 491.100929 
L 0 494.374935 
L 0 497.648941 
L 0 500.922947 
L 0 504.196953 
L 0 507.47096 
L 0 510.744966 
L 0 514.018972 
L 0 517.292978 
L 0 520.566984 
L 0 523.840991 
L 0 527.114997 
L 0 530.389003 
L 0 533.663009 
L 0 536.937015 
L 0 540.211021 
L 0 543.485028 
L 0 546.759034 
L 0 550.03304 
L 0 553.307046 
L 0 556.581052 
L 0 559.855059 
L 0 563.129065 
L 0 566.403071 
L 0 569.677077 
L 0 572.951083 
L 0 576.22509 
L 0 579.499096 
L 0 582.773102 
L 0 586.047108 
L 0 589.321114 
L 0 592.595121 
L 0 595.869127 
L 0 599.143133 
L 0 602.417139 
L 0 605.691145 
L 0 608.965151 
L 0 612.239158 
L 0 615.513164 
L 0 618.78717 
L 0 622.061176 
L 0 625.335182 
L 0 628.609189 
L 0 631.883195 
L 0 635.157201 
L 0 638.431207 
L 0 641.705213 
L 0 644.97922 
L 0 648.253226 
L 0 651.527232 
L 0 654.801238 
L 0 658.075244 
L 0 661.349251 
L 0 664.623257 
L 0 667.897263 
L 0 671.171269 
L 0 674.445275 
L 0 677.719281 
L 0 680.993288 
L 0 684.267294 
L 0 687.5413 
L 0 690.815306 
L 0 694.089312 
L 0 697.363319 
L 0 700.637325 
L 0 703.911331 
L 0 707.185337 
L 0 710.459343 
L 0 713.73335 
L 0 717.007356 
L 0 720.281362 
L 0 723.555368 
L 0 726.829374 
L 0 730.103381 
L 0 733.377387 
L 0 736.651393 
L 0 739.925399 
L 0 743.199405 
L 0 746.473412 
L 0 749.747418 
L 0 753.021424 
L 0 756.29543 
L 0 759.569436 
L 0 762.843442 
L 0 766.117449 
L 0 769.391455 
L 0 772.665461 
L 0 775.939467 
L 0 779.213473 
L 0 782.48748 
L 0 785.761486 
L 0 789.035492 
L 0 792.309498 
L 0 795.583504 
L 0 798.857511 
L 0 802.131517 
L 0 805.405523 
L 0 808.679529 
L 0 811.953535 
L 0 815.227542 
z
" clip-path="url(#p9b782f5075)" style="fill: #f5f9fe; fill-opacity: 0.9"/>
    <path clip-path="url(#p9b782f5075)" style="fill: #eff6fc; fill-opacity: 0.9"/>
    <path clip-path="url(#p9b782f5075)" style="fill: #eaf3fb; fill-opacity: 0.9"/>
    <path clip-path="url(#p9b782f5075)" style="fill: #e5eff9; fill-opacity: 0.9"/>
    <path clip-path="url(#p9b782f5075)" style="fill: #dfecf7; fill-opacity: 0.9"/>
    <path clip-path="url(#p9b782f5075)" style="fill: #dae8f6; fill-opacity: 0.9"/>
    <path clip-path="url(#p9b782f5075)" style="fill: #d6e5f4; fill-opacity: 0.9"/>
    <path clip-path="url(#p9b782f5075)" style="fill: #d0e2f2; fill-opacity: 0.9"/>
    <path clip-path="url(#p9b782f5075)" style="fill: #cbdef1; fill-opacity: 0.9"/>
    <path clip-path="url(#p9b782f5075)" style="fill: #c6dbef; fill-opacity: 0.9"/>
    <path clip-path="url(#p9b782f5075)" style="fill: #bed8ec; fill-opacity: 0.9"/>
    <path clip-path="url(#p9b782f5075)" style="fill: #b5d4e9; fill-opacity: 0.9"/>
    <path clip-path="url(#p9b782f5075)" style="fill: #add0e6; fill-opacity: 0.9"/>
    <path clip-path="url(#p9b782f5075)" style="fill: #a5cde3; fill-opacity: 0.9"/>
    <path clip-path="url(#p9b782f5075)" style="fill: #9cc9e1; fill-opacity: 0.9"/>
    <path clip-path="url(#p9b782f5075)" style="fill: #91c3de; fill-opacity: 0.9"/>
    <path clip-path="url(#p9b782f5075)" style="fill: #85bcdc; fill-opacity: 0.9"/>
    <path clip-path="url(#p9b782f5075)" style="fill: #7cb7da; fill-opacity: 0.9"/>
    <path clip-path="url(#p9b782f5075)" style="fill: #71b1d7; fill-opacity: 0.9"/>
    <path clip-path="url(#p9b782f5075)" style="fill: #66abd4; fill-opacity: 0.9"/>
    <path clip-path="url(#p9b782f5075)" style="fill: #5da5d1; fill-opacity: 0.9"/>
    <path clip-path="url(#p9b782f5075)" style="fill: #56a0ce; fill-opacity: 0.9"/>
    <path clip-path="url(#p9b782f5075)" style="fill: #4d99ca; fill-opacity: 0.9"/>
    <path clip-path="url(#p9b782f5075)" style="fill: #4493c7; fill-opacity: 0.9"/>
    <path clip-path="url(#p9b782f5075)" style="fill: #3c8cc3; fill-opacity: 0.9"/>
    <path clip-path="url(#p9b782f5075)" style="fill: #3686c0; fill-opacity: 0.9"/>
    <path clip-path="url(#p9b782f5075)" style="fill: #2f7fbc; fill-opacity: 0.9"/>
    <path clip-path="url(#p9b782f5075)" style="fill: #2777b8; fill-opacity: 0.9"/>
    <path clip-path="url(#p9b782f5075)" style="fill: #2070b4; fill-opacity: 0.9"/>
    <path clip-path="url(#p9b782f5075)" style="fill: #1c6ab0; fill-opacity: 0.9"/>
    <path clip-path="url(#p9b782f5075)" style="fill: #1663aa; fill-opacity: 0.9"/>
    <path clip-path="url(#p9b782f5075)" style="fill: #115ca5; fill-opacity: 0.9"/>
    <path clip-path="url(#p9b782f5075)" style="fill: #0c56a0; fill-opacity: 0.9"/>
    <path clip-path="url(#p9b782f5075)" style="fill: #084f99; fill-opacity: 0.9"/>
    <path clip-path="url(#p9b782f5075)" style="fill: #08488e; fill-opacity: 0.9"/>
    <path clip-path="url(#p9b782f5075)" style="fill: #084184; fill-opacity: 0.9"/>
    <path clip-path="url(#p9b782f5075)" style="fill: #083a7a; fill-opacity: 0.9"/>
    <path clip-path="url(#p9b782f5075)" style="fill: #083370; fill-opacity: 0.9"/>
    <path clip-path="url(#p9b782f5075)" style="fill: #08306b; fill-opacity: 0.9"/>
   </g>
   <g id="QuadContourSet_2">
    <path clip-path="url(#p9b782f5075)" style="fill: none"/>
    <path clip-path="url(#p9b782f5075)" style="fill: none"/>
    <path clip-path="url(#p9b782f5075)" style="fill: none"/>
    <path clip-path="url(#p9b782f5075)" style="fill: none"/>
    <path clip-path="url(#p9b782f5075)" style="fill: none"/>
    <path clip-path="url(#p9b782f5075)" style="fill: none"/>
    <path clip-path="url(#p9b782f5075)" style="fill: none"/>
    <path clip-path="url(#p9b782f5075)" style="fill: none"/>
    <path clip-path="url(#p9b782f5075)" style="fill: none"/>
    <path clip-path="url(#p9b782f5075)" style="fill: none"/>
    <path clip-path="url(#p9b782f5075)" style="fill: none"/>
    <path clip-path="url(#p9b782f5075)" style="fill: none"/>
    <path clip-path="url(#p9b782f5075)" style="fill: none"/>
    <path clip-path="url(#p9b782f5075)" style="fill: none"/>
    <path clip-path="url(#p9b782f5075)" style="fill: none"/>
    <path clip-path="url(#p9b782f5075)" style="fill: none"/>
    <path clip-path="url(#p9b782f5075)" style="fill: none"/>
    <path clip-path="url(#p9b782f5075)" style="fill: none"/>
    <path clip-path="url(#p9b782f5075)" style="fill: none"/>
    <path clip-path="url(#p9b782f5075)" style="fill: none"/>
    <path clip-path="url(#p9b782f5075)" style="fill: none"/>
    <path clip-path="url(#p9b782f5075)" style="fill: none"/>
    <path clip-path="url(#p9b782f5075)" style="fill: none"/>
    <path clip-path="url(#p9b782f5075)" style="fill: none"/>
    <path clip-path="url(#p9b782f5075)" style="fill: none"/>
    <path clip-path="url(#p9b782f5075)" style="fill: none"/>
    <path clip-path="url(#p9b782f5075)" style="fill: none"/>
    <path clip-path="url(#p9b782f5075)" style="fill: none"/>
    <path clip-path="url(#p9b782f5075)" style="fill: none"/>
    <path clip-path="url(#p9b782f5075)" style="fill: none"/>
    <path clip-path="url(#p9b782f5075)" style="fill: none"/>
    <path clip-path="url(#p9b782f5075)" style="fill: none"/>
    <path clip-path="url(#p9b782f5075)" style="fill: none"/>
    <path clip-path="url(#p9b782f5075)" style="fill: none"/>
    <path clip-path="url(#p9b782f5075)" style="fill: none"/>
    <path clip-path="url(#p9b782f5075)" style="fill: none"/>
    <path clip-path="url(#p9b782f5075)" style="fill: none"/>
    <path clip-path="url(#p9b782f5075)" style="fill: none"/>
    <path clip-path="url(#p9b782f5075)" style="fill: none"/>
   </g>
  </g>
 </g>
 <defs>
  <clipPath id="p9b782f5075">
   <rect x="0" y="0" width="576" height="815.227542"/>
  </clipPath>
 </defs>
</svg>
