<?xml version="1.0" encoding="utf-8" standalone="no"?>
<!DOCTYPE svg PUBLIC "-//W3C//DTD SVG 1.1//EN"
  "http://www.w3.org/Graphics/SVG/1.1/DTD/svg11.dtd">
<svg xmlns:xlink="http://www.w3.org/1999/xlink" width="576pt" height="818.669339pt" viewBox="0 0 576 818.669339" xmlns="http://www.w3.org/2000/svg" version="1.1">
 <metadata>
  <rdf:RDF xmlns:dc="http://purl.org/dc/elements/1.1/" xmlns:cc="http://creativecommons.org/ns#" xmlns:rdf="http://www.w3.org/1999/02/22-rdf-syntax-ns#">
   <cc:Work>
    <dc:type rdf:resource="http://purl.org/dc/dcmitype/StillImage"/>
    <dc:date>2025-07-25T22:45:56.969616</dc:date>
    <dc:format>image/svg+xml</dc:format>
    <dc:creator>
     <cc:Agent>
      <dc:title>Matplotlib v3.10.3, https://matplotlib.org/</dc:title>
     </cc:Agent>
    </dc:creator>
   </cc:Work>
  </rdf:RDF>
 </metadata>
 <defs>
  <style type="text/css">*{stroke-linejoin: round; stroke-linecap: butt}</style>
 </defs>
 <g id="figure_1">
  <g id="patch_1">
   <path d="M 0 818.669339 
L 576 818.669339 
L 576 0 
L 0 0 
L 0 818.669339 
z
" style="fill: none; opacity: 0"/>
  </g>
  <g id="axes_1">
   <g id="QuadContourSet_1">
    <path d="M 576 50.861293 
L 576 49.31743 
L 576 48.75545 
L 574.838823 46.029601 
L 574.202938 42.741773 
L 573.85941 39.453944 
L 573.693266 36.166115 
L 573.674195 32.878287 
L 573.172949 29.590458 
L 572.708571 27.454006 
L 572.117108 26.302629 
L 571.20149 23.014801 
L 570.749618 19.726972 
L 570.484209 16.439143 
L 570.406342 13.151315 
L 570.268952 9.863486 
L 569.70045 6.575657 
L 569.417143 5.328021 
L 568.529678 3.287829 
L 567.807207 0 
L 567.141065 0 
L 567.577321 3.287829 
L 568.692725 6.575657 
L 569.417143 7.511186 
L 569.859733 9.863486 
L 570.01446 13.151315 
L 570.061479 16.439143 
L 570.221743 19.726972 
L 570.494601 23.014801 
L 571.047487 26.302629 
L 572.708571 29.536193 
L 572.720366 29.590458 
L 573.291652 32.878287 
L 573.303168 36.166115 
L 573.374233 39.453944 
L 573.572935 42.741773 
L 573.94074 46.029601 
L 574.853419 49.31743 
z
" clip-path="url(#p78be1504b8)" style="fill: #f5f9fe; fill-opacity: 0.9"/>
    <path d="M 576 48.75545 
L 576 46.647212 
L 575.736906 46.029601 
L 574.832941 42.741773 
L 574.344586 39.453944 
L 574.083363 36.166115 
L 574.056738 32.878287 
L 573.625531 29.590458 
L 572.959654 26.302629 
L 572.708571 25.371819 
L 571.908379 23.014801 
L 571.277493 19.726972 
L 570.90694 16.439143 
L 570.798224 13.151315 
L 570.678171 9.863486 
L 570.197602 6.575657 
L 569.460207 3.287829 
L 569.417143 3.136962 
L 568.473349 0 
L 567.807207 0 
L 568.529678 3.287829 
L 569.417143 5.328021 
L 569.70045 6.575657 
L 570.268952 9.863486 
L 570.406342 13.151315 
L 570.484209 16.439143 
L 570.749618 19.726972 
L 571.20149 23.014801 
L 572.117108 26.302629 
L 572.708571 27.454006 
L 573.172949 29.590458 
L 573.674195 32.878287 
L 573.693266 36.166115 
L 573.85941 39.453944 
L 574.202938 42.741773 
L 574.838823 46.029601 
z
" clip-path="url(#p78be1504b8)" style="fill: #eff6fc; fill-opacity: 0.9"/>
    <path d="M 576 46.647212 
L 576 46.029601 
L 576 44.538974 
L 575.462944 42.741773 
L 574.829763 39.453944 
L 574.473461 36.166115 
L 574.439281 32.878287 
L 574.078113 29.590458 
L 573.521315 26.302629 
L 572.708571 23.289632 
L 572.615268 23.014801 
L 571.805368 19.726972 
L 571.32967 16.439143 
L 571.190106 13.151315 
L 571.087391 9.863486 
L 570.694754 6.575657 
L 570.092213 3.287829 
L 569.417143 0.922854 
L 569.139491 0 
L 568.473349 0 
L 569.417143 3.136962 
L 569.460207 3.287829 
L 570.197602 6.575657 
L 570.678171 9.863486 
L 570.798224 13.151315 
L 570.90694 16.439143 
L 571.277493 19.726972 
L 571.908379 23.014801 
L 572.708571 25.371819 
L 572.959654 26.302629 
L 573.625531 29.590458 
L 574.056738 32.878287 
L 574.083363 36.166115 
L 574.344586 39.453944 
L 574.832941 42.741773 
L 575.736906 46.029601 
z
" clip-path="url(#p78be1504b8)" style="fill: #eaf3fb; fill-opacity: 0.9"/>
    <path d="M 576 44.538974 
L 576 42.741773 
L 576 42.430736 
L 575.31494 39.453944 
L 574.863559 36.166115 
L 574.821823 32.878287 
L 574.530695 29.590458 
L 574.082977 26.302629 
L 573.350913 23.014801 
L 572.708571 21.207444 
L 572.333243 19.726972 
L 571.752401 16.439143 
L 571.581989 13.151315 
L 571.49661 9.863486 
L 571.191906 6.575657 
L 570.724219 3.287829 
L 569.920692 0 
L 569.417143 0 
L 569.139491 0 
L 569.417143 0.922854 
L 570.092213 3.287829 
L 570.694754 6.575657 
L 571.087391 9.863486 
L 571.190106 13.151315 
L 571.32967 16.439143 
L 571.805368 19.726972 
L 572.615268 23.014801 
L 572.708571 23.289632 
L 573.521315 26.302629 
L 574.078113 29.590458 
L 574.439281 32.878287 
L 574.473461 36.166115 
L 574.829763 39.453944 
L 575.462944 42.741773 
z
" clip-path="url(#p78be1504b8)" style="fill: #e5eff9; fill-opacity: 0.9"/>
    <path d="M 576 42.430736 
L 576 40.322499 
L 575.800116 39.453944 
L 575.253657 36.166115 
L 575.204366 32.878287 
L 574.983277 29.590458 
L 574.644639 26.302629 
L 574.09093 23.014801 
L 573.022027 19.726972 
L 572.708571 19.114335 
L 572.175131 16.439143 
L 571.973871 13.151315 
L 571.905829 9.863486 
L 571.689058 6.575657 
L 571.356224 3.287829 
L 570.784124 0 
L 569.920692 0 
L 570.724219 3.287829 
L 571.191906 6.575657 
L 571.49661 9.863486 
L 571.581989 13.151315 
L 571.752401 16.439143 
L 572.333243 19.726972 
L 572.708571 21.207444 
L 573.350913 23.014801 
L 574.082977 26.302629 
L 574.530695 29.590458 
L 574.821823 32.878287 
L 574.863559 36.166115 
L 575.31494 39.453944 
z
" clip-path="url(#p78be1504b8)" style="fill: #dfecf7; fill-opacity: 0.9"/>
    <path d="M 576 40.322499 
L 576 39.453944 
L 576 38.166139 
L 575.643754 36.166115 
L 575.586909 32.878287 
L 575.43586 29.590458 
L 575.2063 26.302629 
L 574.830948 23.014801 
L 574.106715 19.726972 
L 572.708571 16.994351 
L 572.597862 16.439143 
L 572.365753 13.151315 
L 572.315049 9.863486 
L 572.18621 6.575657 
L 571.98823 3.287829 
L 571.647557 0 
L 570.784124 0 
L 571.356224 3.287829 
L 571.689058 6.575657 
L 571.905829 9.863486 
L 571.973871 13.151315 
L 572.175131 16.439143 
L 572.708571 19.114335 
L 573.022027 19.726972 
L 574.09093 23.014801 
L 574.644639 26.302629 
L 574.983277 29.590458 
L 575.204366 32.878287 
L 575.253657 36.166115 
L 575.800116 39.453944 
z
" clip-path="url(#p78be1504b8)" style="fill: #dae8f6; fill-opacity: 0.9"/>
    <path d="M 576 38.166139 
L 576 36.166115 
L 576 34.45392 
L 575.969451 32.878287 
L 575.888442 29.590458 
L 575.767962 26.302629 
L 575.570965 23.014801 
L 575.191402 19.726972 
L 574.299422 16.439143 
L 573.154669 13.151315 
L 572.857719 9.863486 
L 572.708571 8.447521 
L 572.683363 6.575657 
L 572.620236 3.287829 
L 572.510989 0 
L 571.647557 0 
L 571.98823 3.287829 
L 572.18621 6.575657 
L 572.315049 9.863486 
L 572.365753 13.151315 
L 572.597862 16.439143 
L 572.708571 16.994351 
L 574.106715 19.726972 
L 574.830948 23.014801 
L 575.2063 26.302629 
L 575.43586 29.590458 
L 575.586909 32.878287 
L 575.643754 36.166115 
z
" clip-path="url(#p78be1504b8)" style="fill: #d6e5f4; fill-opacity: 0.9"/>
    <path d="M 576 34.45392 
L 576 32.878287 
L 576 29.590458 
L 576 26.302629 
L 576 23.014801 
L 576 19.726972 
L 576 16.439143 
L 576 13.151315 
L 576 9.863486 
L 576 6.575657 
L 576 3.287829 
L 576 0 
L 572.708571 0 
L 572.510989 0 
L 572.620236 3.287829 
L 572.683363 6.575657 
L 572.708571 8.447521 
L 572.857719 9.863486 
L 573.154669 13.151315 
L 574.299422 16.439143 
L 575.191402 19.726972 
L 575.570965 23.014801 
L 575.767962 26.302629 
L 575.888442 29.590458 
L 575.969451 32.878287 
z
" clip-path="url(#p78be1504b8)" style="fill: #d0e2f2; fill-opacity: 0.9"/>
    <path clip-path="url(#p78be1504b8)" style="fill: #cbdef1; fill-opacity: 0.9"/>
    <path clip-path="url(#p78be1504b8)" style="fill: #c6dbef; fill-opacity: 0.9"/>
    <path clip-path="url(#p78be1504b8)" style="fill: #bed8ec; fill-opacity: 0.9"/>
    <path clip-path="url(#p78be1504b8)" style="fill: #b5d4e9; fill-opacity: 0.9"/>
    <path clip-path="url(#p78be1504b8)" style="fill: #add0e6; fill-opacity: 0.9"/>
    <path clip-path="url(#p78be1504b8)" style="fill: #a5cde3; fill-opacity: 0.9"/>
    <path clip-path="url(#p78be1504b8)" style="fill: #9cc9e1; fill-opacity: 0.9"/>
    <path clip-path="url(#p78be1504b8)" style="fill: #91c3de; fill-opacity: 0.9"/>
    <path clip-path="url(#p78be1504b8)" style="fill: #85bcdc; fill-opacity: 0.9"/>
    <path clip-path="url(#p78be1504b8)" style="fill: #7cb7da; fill-opacity: 0.9"/>
    <path clip-path="url(#p78be1504b8)" style="fill: #71b1d7; fill-opacity: 0.9"/>
    <path clip-path="url(#p78be1504b8)" style="fill: #66abd4; fill-opacity: 0.9"/>
    <path clip-path="url(#p78be1504b8)" style="fill: #5da5d1; fill-opacity: 0.9"/>
    <path clip-path="url(#p78be1504b8)" style="fill: #56a0ce; fill-opacity: 0.9"/>
    <path clip-path="url(#p78be1504b8)" style="fill: #4d99ca; fill-opacity: 0.9"/>
    <path clip-path="url(#p78be1504b8)" style="fill: #4493c7; fill-opacity: 0.9"/>
    <path clip-path="url(#p78be1504b8)" style="fill: #3c8cc3; fill-opacity: 0.9"/>
    <path clip-path="url(#p78be1504b8)" style="fill: #3686c0; fill-opacity: 0.9"/>
    <path clip-path="url(#p78be1504b8)" style="fill: #2f7fbc; fill-opacity: 0.9"/>
    <path clip-path="url(#p78be1504b8)" style="fill: #2777b8; fill-opacity: 0.9"/>
    <path clip-path="url(#p78be1504b8)" style="fill: #2070b4; fill-opacity: 0.9"/>
    <path clip-path="url(#p78be1504b8)" style="fill: #1c6ab0; fill-opacity: 0.9"/>
    <path clip-path="url(#p78be1504b8)" style="fill: #1663aa; fill-opacity: 0.9"/>
    <path clip-path="url(#p78be1504b8)" style="fill: #115ca5; fill-opacity: 0.9"/>
    <path clip-path="url(#p78be1504b8)" style="fill: #0c56a0; fill-opacity: 0.9"/>
    <path clip-path="url(#p78be1504b8)" style="fill: #084f99; fill-opacity: 0.9"/>
    <path clip-path="url(#p78be1504b8)" style="fill: #08488e; fill-opacity: 0.9"/>
    <path clip-path="url(#p78be1504b8)" style="fill: #084184; fill-opacity: 0.9"/>
    <path clip-path="url(#p78be1504b8)" style="fill: #083a7a; fill-opacity: 0.9"/>
    <path clip-path="url(#p78be1504b8)" style="fill: #083370; fill-opacity: 0.9"/>
    <path clip-path="url(#p78be1504b8)" style="fill: #08306b; fill-opacity: 0.9"/>
   </g>
   <g id="QuadContourSet_2">
    <path d="M 567.141065 0 
L 567.577321 3.287829 
L 567.821809 4.008494 
M 570.470219 22.721008 
L 570.494601 23.014801 
L 571.047487 26.302629 
L 572.708571 29.536193 
L 572.720366 29.590458 
L 573.291652 32.878287 
L 573.303168 36.166115 
L 573.374233 39.453944 
L 573.572935 42.741773 
L 573.94074 46.029601 
L 574.853419 49.31743 
L 576 50.861293 
" clip-path="url(#p78be1504b8)" style="fill: none"/>
    <path d="M 567.807207 0 
L 568.529678 3.287829 
L 569.417143 5.328021 
L 569.70045 6.575657 
L 570.268952 9.863486 
L 570.406342 13.151315 
L 570.484209 16.439143 
L 570.749618 19.726972 
L 571.20149 23.014801 
L 572.117108 26.302629 
L 572.708571 27.454006 
L 573.172949 29.590458 
L 573.674195 32.878287 
L 573.675605 33.121348 
" clip-path="url(#p78be1504b8)" style="fill: none"/>
    <path d="M 568.473349 0 
L 569.417143 3.136962 
L 569.460207 3.287829 
L 570.197602 6.575657 
L 570.678171 9.863486 
L 570.798224 13.151315 
L 570.90694 16.439143 
L 571.277493 19.726972 
L 571.908379 23.014801 
L 572.708571 25.371819 
L 572.959654 26.302629 
L 573.625531 29.590458 
L 574.056738 32.878287 
L 574.058906 33.14605 
" clip-path="url(#p78be1504b8)" style="fill: none"/>
    <path d="M 569.139491 0 
L 569.417143 0.922854 
L 570.092213 3.287829 
L 570.146529 3.584211 
M 572.529708 22.667465 
L 572.615268 23.014801 
L 572.708571 23.289632 
L 573.521315 26.302629 
L 574.078113 29.590458 
L 574.439281 32.878287 
L 574.473461 36.166115 
L 574.829763 39.453944 
L 575.462944 42.741773 
L 576 44.538974 
" clip-path="url(#p78be1504b8)" style="fill: none"/>
    <path d="M 571.457404 9.440446 
L 571.49661 9.863486 
L 571.581989 13.151315 
L 571.752401 16.439143 
L 572.333243 19.726972 
L 572.708571 21.207444 
L 573.350913 23.014801 
L 574.082977 26.302629 
L 574.530695 29.590458 
L 574.821823 32.878287 
L 574.863559 36.166115 
L 575.31494 39.453944 
L 576 42.430736 
" clip-path="url(#p78be1504b8)" style="fill: none"/>
    <path d="M 570.784124 0 
L 571.356224 3.287829 
L 571.689058 6.575657 
L 571.70835 6.868263 
M 574.540476 25.68413 
L 574.644639 26.302629 
L 574.983277 29.590458 
L 575.204366 32.878287 
L 575.253657 36.166115 
L 575.800116 39.453944 
L 576 40.322499 
" clip-path="url(#p78be1504b8)" style="fill: none"/>
    <path d="M 571.647557 0 
L 571.98823 3.287829 
L 572.18621 6.575657 
L 572.197578 6.865744 
M 575.123203 25.574751 
L 575.2063 26.302629 
L 575.43586 29.590458 
L 575.586909 32.878287 
L 575.643754 36.166115 
L 576 38.166139 
" clip-path="url(#p78be1504b8)" style="fill: none"/>
    <path d="M 574.136188 15.970322 
L 574.299422 16.439143 
L 575.191402 19.726972 
L 575.570965 23.014801 
L 575.767962 26.302629 
L 575.888442 29.590458 
L 575.969451 32.878287 
L 576 34.45392 
" clip-path="url(#p78be1504b8)" style="fill: none"/>
    <path clip-path="url(#p78be1504b8)" style="fill: none"/>
    <path clip-path="url(#p78be1504b8)" style="fill: none"/>
    <path clip-path="url(#p78be1504b8)" style="fill: none"/>
    <path clip-path="url(#p78be1504b8)" style="fill: none"/>
    <path clip-path="url(#p78be1504b8)" style="fill: none"/>
    <path clip-path="url(#p78be1504b8)" style="fill: none"/>
    <path clip-path="url(#p78be1504b8)" style="fill: none"/>
    <path clip-path="url(#p78be1504b8)" style="fill: none"/>
    <path clip-path="url(#p78be1504b8)" style="fill: none"/>
    <path clip-path="url(#p78be1504b8)" style="fill: none"/>
    <path clip-path="url(#p78be1504b8)" style="fill: none"/>
    <path clip-path="url(#p78be1504b8)" style="fill: none"/>
    <path clip-path="url(#p78be1504b8)" style="fill: none"/>
    <path clip-path="url(#p78be1504b8)" style="fill: none"/>
    <path clip-path="url(#p78be1504b8)" style="fill: none"/>
    <path clip-path="url(#p78be1504b8)" style="fill: none"/>
    <path clip-path="url(#p78be1504b8)" style="fill: none"/>
    <path clip-path="url(#p78be1504b8)" style="fill: none"/>
    <path clip-path="url(#p78be1504b8)" style="fill: none"/>
    <path clip-path="url(#p78be1504b8)" style="fill: none"/>
    <path clip-path="url(#p78be1504b8)" style="fill: none"/>
    <path clip-path="url(#p78be1504b8)" style="fill: none"/>
    <path clip-path="url(#p78be1504b8)" style="fill: none"/>
    <path clip-path="url(#p78be1504b8)" style="fill: none"/>
    <path clip-path="url(#p78be1504b8)" style="fill: none"/>
    <path clip-path="url(#p78be1504b8)" style="fill: none"/>
    <path clip-path="url(#p78be1504b8)" style="fill: none"/>
    <path clip-path="url(#p78be1504b8)" style="fill: none"/>
    <path clip-path="url(#p78be1504b8)" style="fill: none"/>
    <path clip-path="url(#p78be1504b8)" style="fill: none"/>
    <path clip-path="url(#p78be1504b8)" style="fill: none"/>
   </g>
   <g id="text_1">
    <g clip-path="url(#p78be1504b8)">
     <!-- 0 -->
     <g style="opacity: 0" transform="translate(566.481831 9.537699) rotate(-273.412767) scale(0.12 -0.12)">
      <defs>
       <path id="DejaVuSans-30" d="M 2034 4250 
Q 1547 4250 1301 3770 
Q 1056 3291 1056 2328 
Q 1056 1369 1301 889 
Q 1547 409 2034 409 
Q 2525 409 2770 889 
Q 3016 1369 3016 2328 
Q 3016 3291 2770 3770 
Q 2525 4250 2034 4250 
z
M 2034 4750 
Q 2819 4750 3233 4129 
Q 3647 3509 3647 2328 
Q 3647 1150 3233 529 
Q 2819 -91 2034 -91 
Q 1250 -91 836 529 
Q 422 1150 422 2328 
Q 422 3509 836 4129 
Q 1250 4750 2034 4750 
z
" transform="scale(0.015625)"/>
      </defs>
      <use xlink:href="#DejaVuSans-30"/>
     </g>
    </g>
   </g>
   <g id="text_2">
    <g clip-path="url(#p78be1504b8)">
     <!-- 1 -->
     <g style="opacity: 0" transform="translate(570.281163 39.55471) rotate(-279.962738) scale(0.12 -0.12)">
      <defs>
       <path id="DejaVuSans-31" d="M 794 531 
L 1825 531 
L 1825 4091 
L 703 3866 
L 703 4441 
L 1819 4666 
L 2450 4666 
L 2450 531 
L 3481 531 
L 3481 0 
L 794 0 
L 794 531 
z
" transform="scale(0.015625)"/>
      </defs>
      <use xlink:href="#DejaVuSans-31"/>
     </g>
    </g>
   </g>
   <g id="text_3">
    <g clip-path="url(#p78be1504b8)">
     <!-- 2 -->
     <g style="opacity: 0" transform="translate(570.826939 39.661248) rotate(-281.50259) scale(0.12 -0.12)">
      <defs>
       <path id="DejaVuSans-32" d="M 1228 531 
L 3431 531 
L 3431 0 
L 469 0 
L 469 531 
Q 828 903 1448 1529 
Q 2069 2156 2228 2338 
Q 2531 2678 2651 2914 
Q 2772 3150 2772 3378 
Q 2772 3750 2511 3984 
Q 2250 4219 1831 4219 
Q 1534 4219 1204 4116 
Q 875 4013 500 3803 
L 500 4441 
Q 881 4594 1212 4672 
Q 1544 4750 1819 4750 
Q 2544 4750 2975 4387 
Q 3406 4025 3406 3419 
Q 3406 3131 3298 2873 
Q 3191 2616 2906 2266 
Q 2828 2175 2409 1742 
Q 1991 1309 1228 531 
z
" transform="scale(0.015625)"/>
      </defs>
      <use xlink:href="#DejaVuSans-32"/>
     </g>
    </g>
   </g>
   <g id="text_4">
    <g clip-path="url(#p78be1504b8)">
     <!-- 3 -->
     <g style="opacity: 0" transform="translate(567.623005 9.571724) rotate(-273.961928) scale(0.12 -0.12)">
      <defs>
       <path id="DejaVuSans-33" d="M 2597 2516 
Q 3050 2419 3304 2112 
Q 3559 1806 3559 1356 
Q 3559 666 3084 287 
Q 2609 -91 1734 -91 
Q 1441 -91 1130 -33 
Q 819 25 488 141 
L 488 750 
Q 750 597 1062 519 
Q 1375 441 1716 441 
Q 2309 441 2620 675 
Q 2931 909 2931 1356 
Q 2931 1769 2642 2001 
Q 2353 2234 1838 2234 
L 1294 2234 
L 1294 2753 
L 1863 2753 
Q 2328 2753 2575 2939 
Q 2822 3125 2822 3475 
Q 2822 3834 2567 4026 
Q 2313 4219 1838 4219 
Q 1578 4219 1281 4162 
Q 984 4106 628 3988 
L 628 4550 
Q 988 4650 1302 4700 
Q 1616 4750 1894 4750 
Q 2613 4750 3031 4423 
Q 3450 4097 3450 3541 
Q 3450 3153 3228 2886 
Q 3006 2619 2597 2516 
z
" transform="scale(0.015625)"/>
      </defs>
      <use xlink:href="#DejaVuSans-33"/>
     </g>
    </g>
   </g>
   <g id="text_5">
    <g clip-path="url(#p78be1504b8)">
     <!-- 4 -->
     <g style="opacity: 0" transform="translate(565.884897 -3.041389) rotate(-282.060244) scale(0.12 -0.12)">
      <defs>
       <path id="DejaVuSans-34" d="M 2419 4116 
L 825 1625 
L 2419 1625 
L 2419 4116 
z
M 2253 4666 
L 3047 4666 
L 3047 1625 
L 3713 1625 
L 3713 1100 
L 3047 1100 
L 3047 0 
L 2419 0 
L 2419 1100 
L 313 1100 
L 313 1709 
L 2253 4666 
z
" transform="scale(0.015625)"/>
      </defs>
      <use xlink:href="#DejaVuSans-34"/>
     </g>
    </g>
   </g>
   <g id="text_6">
    <g clip-path="url(#p78be1504b8)">
     <!-- 5 -->
     <g style="opacity: 0" transform="translate(568.297346 13.198701) rotate(-279.178493) scale(0.12 -0.12)">
      <defs>
       <path id="DejaVuSans-35" d="M 691 4666 
L 3169 4666 
L 3169 4134 
L 1269 4134 
L 1269 2991 
Q 1406 3038 1543 3061 
Q 1681 3084 1819 3084 
Q 2600 3084 3056 2656 
Q 3513 2228 3513 1497 
Q 3513 744 3044 326 
Q 2575 -91 1722 -91 
Q 1428 -91 1123 -41 
Q 819 9 494 109 
L 494 744 
Q 775 591 1075 516 
Q 1375 441 1709 441 
Q 2250 441 2565 725 
Q 2881 1009 2881 1497 
Q 2881 1984 2565 2268 
Q 2250 2553 1709 2553 
Q 1456 2553 1204 2497 
Q 953 2441 691 2322 
L 691 4666 
z
" transform="scale(0.015625)"/>
      </defs>
      <use xlink:href="#DejaVuSans-35"/>
     </g>
    </g>
   </g>
   <g id="text_7">
    <g clip-path="url(#p78be1504b8)">
     <!-- 6 -->
     <g style="opacity: 0" transform="translate(568.550454 13.413227) rotate(-282.279589) scale(0.12 -0.12)">
      <defs>
       <path id="DejaVuSans-36" d="M 2113 2584 
Q 1688 2584 1439 2293 
Q 1191 2003 1191 1497 
Q 1191 994 1439 701 
Q 1688 409 2113 409 
Q 2538 409 2786 701 
Q 3034 994 3034 1497 
Q 3034 2003 2786 2293 
Q 2538 2584 2113 2584 
z
M 3366 4563 
L 3366 3988 
Q 3128 4100 2886 4159 
Q 2644 4219 2406 4219 
Q 1781 4219 1451 3797 
Q 1122 3375 1075 2522 
Q 1259 2794 1537 2939 
Q 1816 3084 2150 3084 
Q 2853 3084 3261 2657 
Q 3669 2231 3669 1497 
Q 3669 778 3244 343 
Q 2819 -91 2113 -91 
Q 1303 -91 875 529 
Q 447 1150 447 2328 
Q 447 3434 972 4092 
Q 1497 4750 2381 4750 
Q 2619 4750 2861 4703 
Q 3103 4656 3366 4563 
z
" transform="scale(0.015625)"/>
      </defs>
      <use xlink:href="#DejaVuSans-36"/>
     </g>
    </g>
   </g>
   <g id="text_8">
    <g clip-path="url(#p78be1504b8)">
     <!-- 7 -->
     <g style="opacity: 0" transform="translate(569.204537 2.910217) rotate(-272.565773) scale(0.12 -0.12)">
      <defs>
       <path id="DejaVuSans-37" d="M 525 4666 
L 3525 4666 
L 3525 4397 
L 1831 0 
L 1172 0 
L 2766 4134 
L 525 4134 
L 525 4666 
z
" transform="scale(0.015625)"/>
      </defs>
      <use xlink:href="#DejaVuSans-37"/>
     </g>
    </g>
   </g>
  </g>
 </g>
 <defs>
  <clipPath id="p78be1504b8">
   <rect x="0" y="0" width="576" height="818.669339"/>
  </clipPath>
 </defs>
</svg>
