<?xml version="1.0" encoding="utf-8" standalone="no"?>
<!DOCTYPE svg PUBLIC "-//W3C//DTD SVG 1.1//EN"
  "http://www.w3.org/Graphics/SVG/1.1/DTD/svg11.dtd">
<svg xmlns:xlink="http://www.w3.org/1999/xlink" width="576pt" height="819.681392pt" viewBox="0 0 576 819.681392" xmlns="http://www.w3.org/2000/svg" version="1.1">
 <metadata>
  <rdf:RDF xmlns:dc="http://purl.org/dc/elements/1.1/" xmlns:cc="http://creativecommons.org/ns#" xmlns:rdf="http://www.w3.org/1999/02/22-rdf-syntax-ns#">
   <cc:Work>
    <dc:type rdf:resource="http://purl.org/dc/dcmitype/StillImage"/>
    <dc:date>2025-07-25T22:46:01.572288</dc:date>
    <dc:format>image/svg+xml</dc:format>
    <dc:creator>
     <cc:Agent>
      <dc:title>Matplotlib v3.10.3, https://matplotlib.org/</dc:title>
     </cc:Agent>
    </dc:creator>
   </cc:Work>
  </rdf:RDF>
 </metadata>
 <defs>
  <style type="text/css">*{stroke-linejoin: round; stroke-linecap: butt}</style>
 </defs>
 <g id="figure_1">
  <g id="patch_1">
   <path d="M 0 819.681392 
L 576 819.681392 
L 576 0 
L 0 0 
L 0 819.681392 
z
" style="fill: none; opacity: 0"/>
  </g>
  <g id="axes_1">
   <g id="QuadContourSet_1">
    <path d="M 332.434286 819.597151 
L 335.725714 817.383136 
L 337.134333 816.389499 
L 339.017143 814.669338 
L 342.308571 813.548904 
L 342.862291 813.097606 
L 345.6 811.302996 
L 348.372062 809.805713 
L 348.891429 809.276238 
L 352.182857 808.468766 
L 354.618928 806.51382 
L 355.474286 805.653612 
L 358.765714 804.470997 
L 361.263134 803.221927 
L 362.057143 802.594938 
L 365.348571 800.664478 
L 366.442627 799.930033 
L 368.64 798.24795 
L 371.931429 796.757981 
L 372.091607 796.63814 
L 375.222857 794.770834 
L 378.514286 793.802864 
L 379.094767 793.346247 
L 381.805714 791.757545 
L 385.097143 791.000056 
L 386.594732 790.054354 
L 388.388571 789.164558 
L 391.68 787.70156 
L 394.971429 786.768715 
L 394.97876 786.762461 
L 398.262857 784.406035 
L 400.367254 783.470568 
L 401.554286 782.68451 
L 404.845714 781.238714 
L 407.516371 780.178675 
L 408.137143 779.677026 
L 411.428571 778.688578 
L 412.681946 776.886781 
L 414.72 774.84844 
L 417.143971 776.886781 
L 418.011429 778.19829 
L 420.970725 776.886781 
L 419.264803 773.594888 
L 421.302857 771.556546 
L 424.594286 771.502429 
L 426.686449 773.594888 
L 427.885714 776.31136 
L 431.017919 776.886781 
L 431.177143 776.907101 
L 431.253467 776.886781 
L 434.468571 774.89421 
L 437.76 774.349658 
L 439.467185 773.594888 
L 441.051429 772.525368 
L 444.342857 771.411144 
L 447.634286 770.822007 
L 449.237801 770.302995 
L 450.925714 769.533701 
L 452.125773 767.011102 
L 454.217143 764.919437 
L 457.508571 764.919437 
L 458.70863 763.719209 
L 460.8 761.627544 
L 462.926062 763.719209 
L 460.8 766.094182 
L 459.88321 767.011102 
L 460.8 768.741995 
L 464.091429 767.566626 
L 465.456242 767.011102 
L 467.382857 766.670289 
L 469.017652 767.011102 
L 470.674286 767.209589 
L 471.374639 767.011102 
L 473.965714 766.016455 
L 477.257143 764.708069 
L 480.548571 763.972115 
L 481.162728 763.719209 
L 483.84 762.408172 
L 487.131429 761.932821 
L 488.29644 760.427316 
L 490.422857 758.300599 
L 492.94039 760.427316 
L 493.714286 761.612449 
L 497.005714 760.578169 
L 497.242567 760.427316 
L 498.170726 757.135423 
L 500.297143 755.008706 
L 502.375056 757.135423 
L 503.588571 759.846028 
L 506.722877 760.427316 
L 506.88 760.447848 
L 506.957661 760.427316 
L 510.171429 759.135903 
L 513.462857 758.014824 
L 516.754286 757.516619 
L 517.535942 757.135423 
L 520.045714 755.756389 
L 523.337143 755.314206 
L 526.628571 755.268574 
L 529.92 754.982343 
L 533.211429 754.312812 
L 534.290037 753.843529 
L 534.423371 750.551636 
L 536.502857 748.471857 
L 538.562728 750.551636 
L 539.794286 753.019801 
L 543.085714 753.517429 
L 544.706567 753.843529 
L 546.377143 754.052175 
L 546.883261 753.843529 
L 549.668571 752.230385 
L 552.96 751.49627 
L 556.251429 750.857051 
L 556.992413 750.551636 
L 559.542857 749.329517 
L 562.834286 748.928295 
L 566.125714 748.785323 
L 569.417143 748.847274 
L 572.708571 748.609553 
L 576 747.53375 
L 576 747.259743 
L 576 745.993956 
L 572.997633 747.259743 
L 572.708571 747.355151 
L 569.417143 748.029846 
L 566.125714 748.111632 
L 562.834286 748.191468 
L 559.542857 748.415511 
L 556.251429 749.478583 
L 554.168195 750.551636 
L 552.96 750.79895 
L 549.668571 751.088178 
L 546.377143 752.624783 
L 543.085714 752.207745 
L 539.794286 751.929867 
L 539.10658 750.551636 
L 536.502857 747.922749 
L 533.874341 750.551636 
L 533.211429 752.644243 
L 530.788262 753.843529 
L 529.92 754.069795 
L 526.628571 754.617239 
L 523.337143 754.647965 
L 520.045714 754.889831 
L 516.754286 756.165488 
L 514.090022 757.135423 
L 513.462857 757.228751 
L 510.171429 757.820848 
L 506.88 758.9556 
L 503.588571 758.618078 
L 502.924799 757.135423 
L 500.297143 754.446051 
L 497.608151 757.135423 
L 497.005714 758.901924 
L 494.204745 760.427316 
L 493.714286 760.592468 
L 493.606441 760.427316 
L 490.422857 757.737944 
L 487.733865 760.427316 
L 487.131429 761.205824 
L 483.84 761.451632 
L 480.548571 762.434293 
L 478.302328 763.719209 
L 477.257143 763.958368 
L 473.965714 764.907133 
L 470.674286 765.647093 
L 467.382857 765.245236 
L 464.091429 765.573145 
L 463.488808 763.719209 
L 460.8 761.073902 
L 458.155066 763.719209 
L 457.508571 764.365795 
L 454.217143 764.365795 
L 451.572209 767.011102 
L 450.925714 768.370075 
L 447.634286 769.507846 
L 446.684681 770.302995 
L 444.342857 770.833152 
L 441.051429 771.50023 
L 437.948684 773.594888 
L 437.76 773.678308 
L 436.913301 773.594888 
L 434.468571 772.821268 
L 433.261693 773.594888 
L 431.177143 774.872771 
L 427.885714 775.058304 
L 427.239647 773.594888 
L 424.594286 770.949154 
L 421.302857 771.01758 
L 418.725912 773.594888 
L 418.784209 776.886781 
L 418.011429 777.229264 
L 417.784904 776.886781 
L 414.72 774.309473 
L 412.143055 776.886781 
L 411.428571 777.913893 
L 408.137143 778.477356 
L 406.031822 780.178675 
L 404.845714 780.649466 
L 401.554286 781.607122 
L 398.740281 783.470568 
L 398.262857 783.682797 
L 394.971429 785.352992 
L 391.700932 786.762461 
L 391.68 786.76839 
L 388.388571 788.131772 
L 385.097143 789.414589 
L 384.457469 790.054354 
L 381.805714 790.970409 
L 378.514286 792.266777 
L 377.434968 793.346247 
L 375.222857 794.112456 
L 371.931429 795.24403 
L 370.537515 796.63814 
L 368.64 797.50397 
L 365.470737 799.930033 
L 365.348571 800.012044 
L 362.057143 801.363342 
L 359.703459 803.221927 
L 358.765714 803.690934 
L 355.474286 804.529799 
L 353.50145 806.51382 
L 352.182857 807.57199 
L 348.891429 808.001213 
L 347.121378 809.805713 
L 345.6 810.62746 
L 342.308571 812.162741 
L 341.404569 813.097606 
L 339.017143 813.96197 
L 336.360079 816.389499 
L 335.725714 816.836979 
L 332.434286 818.116623 
L 330.861397 819.681392 
L 332.349607 819.681392 
z
M 460.511752 767.011102 
L 460.8 766.722813 
L 461.970856 767.011102 
L 460.8 767.555312 
z
" clip-path="url(#p726a456cb8)" style="fill: #f5f9fe; fill-opacity: 0.9"/>
    <path d="M 332.434286 819.681392 
L 333.182066 819.681392 
L 335.725714 817.929293 
L 337.908586 816.389499 
L 339.017143 815.376707 
L 342.308571 814.388827 
L 343.892833 813.097606 
L 345.6 811.978532 
L 348.891429 810.557211 
L 350.680813 809.805713 
L 352.182857 809.365542 
L 355.474286 806.750657 
L 355.890854 806.51382 
L 358.765714 805.25106 
L 362.057143 803.686067 
L 362.53088 803.221927 
L 365.348571 801.316912 
L 367.414518 799.930033 
L 368.64 798.99193 
L 371.931429 797.583972 
L 373.195629 796.63814 
L 375.222857 795.429212 
L 378.514286 794.859417 
L 380.437929 793.346247 
L 381.805714 792.544681 
L 385.097143 792.314874 
L 388.388571 790.207816 
L 388.663134 790.054354 
L 391.68 788.63473 
L 394.971429 787.628531 
L 395.986721 786.762461 
L 398.262857 785.129273 
L 401.554286 783.760539 
L 401.845328 783.470568 
L 404.845714 781.827963 
L 408.137143 780.775362 
L 409.409356 780.178675 
L 411.428571 779.463264 
L 413.220836 776.886781 
L 414.72 775.387406 
L 416.503039 776.886781 
L 418.011429 779.167316 
L 421.302857 778.869227 
L 424.594286 778.277626 
L 426.250392 780.178675 
L 427.885714 780.266748 
L 427.974638 780.178675 
L 431.177143 777.777544 
L 434.468571 776.906364 
L 434.488174 776.886781 
L 437.76 775.021008 
L 440.985686 773.594888 
L 441.051429 773.550506 
L 444.342857 771.989136 
L 447.634286 771.648379 
L 450.925714 770.80721 
L 451.790922 770.302995 
L 452.679337 767.011102 
L 454.217143 765.473079 
L 457.508571 765.473079 
L 459.254668 767.011102 
L 460.8 769.928678 
L 462.958843 770.302995 
L 464.091429 770.488218 
L 464.519249 770.302995 
L 467.382857 768.351538 
L 470.674286 768.028589 
L 473.965714 767.12927 
L 474.122129 767.011102 
L 477.257143 765.45777 
L 480.548571 764.776494 
L 483.11608 763.719209 
L 483.84 763.364712 
L 487.131429 762.659818 
L 488.859016 760.427316 
L 490.422857 758.863253 
L 492.274339 760.427316 
L 493.714286 762.63243 
L 497.005714 762.581401 
L 500.297143 761.373161 
L 503.588571 761.300084 
L 506.88 761.313066 
L 510.171429 760.448463 
L 510.199783 760.427316 
L 513.462857 758.800896 
L 516.754286 758.285732 
L 519.113034 757.135423 
L 520.045714 756.622947 
L 523.337143 755.980447 
L 526.628571 755.91991 
L 529.92 755.894891 
L 533.211429 755.836368 
L 536.502857 755.538197 
L 539.794286 755.440345 
L 543.085714 754.677594 
L 546.377143 754.865195 
L 548.855434 753.843529 
L 549.668571 753.372592 
L 552.96 752.19359 
L 556.251429 751.643248 
L 558.899853 750.551636 
L 559.542857 750.243522 
L 562.834286 749.665123 
L 566.125714 749.459014 
L 569.417143 749.664703 
L 572.708571 749.863956 
L 576 748.838467 
L 576 747.53375 
L 572.708571 748.609553 
L 569.417143 748.847274 
L 566.125714 748.785323 
L 562.834286 748.928295 
L 559.542857 749.329517 
L 556.992413 750.551636 
L 556.251429 750.857051 
L 552.96 751.49627 
L 549.668571 752.230385 
L 546.883261 753.843529 
L 546.377143 754.052175 
L 544.706567 753.843529 
L 543.085714 753.517429 
L 539.794286 753.019801 
L 538.562728 750.551636 
L 536.502857 748.471857 
L 534.423371 750.551636 
L 534.290037 753.843529 
L 533.211429 754.312812 
L 529.92 754.982343 
L 526.628571 755.268574 
L 523.337143 755.314206 
L 520.045714 755.756389 
L 517.535942 757.135423 
L 516.754286 757.516619 
L 513.462857 758.014824 
L 510.171429 759.135903 
L 506.957661 760.427316 
L 506.88 760.447848 
L 506.722877 760.427316 
L 503.588571 759.846028 
L 502.375056 757.135423 
L 500.297143 755.008706 
L 498.170726 757.135423 
L 497.242567 760.427316 
L 497.005714 760.578169 
L 493.714286 761.612449 
L 492.94039 760.427316 
L 490.422857 758.300599 
L 488.29644 760.427316 
L 487.131429 761.932821 
L 483.84 762.408172 
L 481.162728 763.719209 
L 480.548571 763.972115 
L 477.257143 764.708069 
L 473.965714 766.016455 
L 471.374639 767.011102 
L 470.674286 767.209589 
L 469.017652 767.011102 
L 467.382857 766.670289 
L 465.456242 767.011102 
L 464.091429 767.566626 
L 460.8 768.741995 
L 459.88321 767.011102 
L 460.8 766.094182 
L 462.926062 763.719209 
L 460.8 761.627544 
L 458.70863 763.719209 
L 457.508571 764.919437 
L 454.217143 764.919437 
L 452.125773 767.011102 
L 450.925714 769.533701 
L 449.237801 770.302995 
L 447.634286 770.822007 
L 444.342857 771.411144 
L 441.051429 772.525368 
L 439.467185 773.594888 
L 437.76 774.349658 
L 434.468571 774.89421 
L 431.253467 776.886781 
L 431.177143 776.907101 
L 431.017919 776.886781 
L 427.885714 776.31136 
L 426.686449 773.594888 
L 424.594286 771.502429 
L 421.302857 771.556546 
L 419.264803 773.594888 
L 420.970725 776.886781 
L 418.011429 778.19829 
L 417.143971 776.886781 
L 414.72 774.84844 
L 412.681946 776.886781 
L 411.428571 778.688578 
L 408.137143 779.677026 
L 407.516371 780.178675 
L 404.845714 781.238714 
L 401.554286 782.68451 
L 400.367254 783.470568 
L 398.262857 784.406035 
L 394.97876 786.762461 
L 394.971429 786.768715 
L 391.68 787.70156 
L 388.388571 789.164558 
L 386.594732 790.054354 
L 385.097143 791.000056 
L 381.805714 791.757545 
L 379.094767 793.346247 
L 378.514286 793.802864 
L 375.222857 794.770834 
L 372.091607 796.63814 
L 371.931429 796.757981 
L 368.64 798.24795 
L 366.442627 799.930033 
L 365.348571 800.664478 
L 362.057143 802.594938 
L 361.263134 803.221927 
L 358.765714 804.470997 
L 355.474286 805.653612 
L 354.618928 806.51382 
L 352.182857 808.468766 
L 348.891429 809.276238 
L 348.372062 809.805713 
L 345.6 811.302996 
L 342.862291 813.097606 
L 342.308571 813.548904 
L 339.017143 814.669338 
L 337.134333 816.389499 
L 335.725714 817.383136 
L 332.434286 819.597151 
L 332.349607 819.681392 
z
M 419.803693 773.594888 
L 421.302857 772.095513 
L 424.594286 772.055705 
L 426.133251 773.594888 
L 424.594286 776.82097 
L 421.302857 776.117685 
z
M 459.262194 763.719209 
L 460.8 762.181186 
L 462.363315 763.719209 
L 460.8 765.465552 
z
M 498.733301 757.135423 
L 500.297143 755.57136 
L 501.825313 757.135423 
L 500.297143 760.393525 
z
M 534.972402 750.551636 
L 536.502857 749.020965 
L 538.018877 750.551636 
L 536.502857 753.459551 
z
" clip-path="url(#p726a456cb8)" style="fill: #eff6fc; fill-opacity: 0.9"/>
    <path d="M 335.725714 818.47545 
L 338.68284 816.389499 
L 339.017143 816.084075 
L 342.308571 815.228749 
L 344.923375 813.097606 
L 345.6 812.654068 
L 348.891429 811.842407 
L 352.182857 810.443643 
L 352.843979 809.805713 
L 355.474286 807.760349 
L 357.666782 806.51382 
L 358.765714 806.031122 
L 362.057143 804.631527 
L 363.495889 803.221927 
L 365.348571 801.969345 
L 368.386408 799.930033 
L 368.64 799.735909 
L 371.931429 798.409963 
L 374.29965 796.63814 
L 375.222857 796.08759 
L 378.514286 795.915971 
L 381.781091 793.346247 
L 381.805714 793.331817 
L 382.063677 793.346247 
L 385.097143 793.689036 
L 385.443771 793.346247 
L 388.388571 791.316233 
L 390.64623 790.054354 
L 391.68 789.567901 
L 394.971429 788.488347 
L 396.994681 786.762461 
L 398.262857 785.852512 
L 401.554286 784.8329 
L 402.921651 783.470568 
L 404.845714 782.417211 
L 408.137143 781.800873 
L 411.428571 780.385025 
L 411.845366 780.178675 
L 413.759727 776.886781 
L 414.72 775.926373 
L 415.862106 776.886781 
L 418.011429 780.136341 
L 418.308825 780.178675 
L 419.233648 783.470568 
L 421.302857 783.946658 
L 421.799957 783.470568 
L 424.594286 781.337219 
L 427.885714 781.416598 
L 429.135591 780.178675 
L 431.177143 778.647988 
L 434.468571 778.082451 
L 435.665456 776.886781 
L 437.76 775.692359 
L 441.051429 774.746426 
L 442.202831 773.594888 
L 444.342857 772.567128 
L 447.634286 772.474752 
L 450.925714 772.295086 
L 454.217143 770.673265 
L 456.901942 773.594888 
L 457.508571 773.751489 
L 457.715824 773.594888 
L 460.8 771.42792 
L 464.091429 771.607497 
L 467.104521 770.302995 
L 467.382857 770.113318 
L 470.674286 768.847588 
L 473.965714 768.27237 
L 475.635213 767.011102 
L 477.257143 766.207471 
L 480.548571 765.580874 
L 483.84 764.62516 
L 485.746488 763.719209 
L 487.131429 763.386814 
L 489.421591 760.427316 
L 490.422857 759.425908 
L 491.608289 760.427316 
L 493.714286 763.652411 
L 494.147555 763.719209 
L 497.005714 764.363166 
L 500.297143 764.848648 
L 502.498655 763.719209 
L 503.588571 762.957389 
L 506.88 762.178285 
L 510.171429 761.624713 
L 511.776874 760.427316 
L 513.462857 759.586968 
L 516.754286 759.054845 
L 520.045714 757.749453 
L 521.223204 757.135423 
L 523.337143 756.646688 
L 526.628571 756.571246 
L 529.92 756.807439 
L 532.254376 757.135423 
L 533.211429 757.537173 
L 536.502857 758.017426 
L 539.794286 758.100339 
L 541.042135 757.135423 
L 543.085714 755.788185 
L 546.377143 755.678215 
L 549.668571 754.656668 
L 550.658614 753.843529 
L 552.96 752.890909 
L 556.251429 752.429445 
L 559.542857 751.449493 
L 562.062211 750.551636 
L 562.834286 750.40195 
L 566.125714 750.132705 
L 569.417143 750.482131 
L 569.93849 750.551636 
L 572.708571 751.20502 
L 574.652786 750.551636 
L 576 750.143184 
L 576 748.838467 
L 572.708571 749.863956 
L 569.417143 749.664703 
L 566.125714 749.459014 
L 562.834286 749.665123 
L 559.542857 750.243522 
L 558.899853 750.551636 
L 556.251429 751.643248 
L 552.96 752.19359 
L 549.668571 753.372592 
L 548.855434 753.843529 
L 546.377143 754.865195 
L 543.085714 754.677594 
L 539.794286 755.440345 
L 536.502857 755.538197 
L 533.211429 755.836368 
L 529.92 755.894891 
L 526.628571 755.91991 
L 523.337143 755.980447 
L 520.045714 756.622947 
L 519.113034 757.135423 
L 516.754286 758.285732 
L 513.462857 758.800896 
L 510.199783 760.427316 
L 510.171429 760.448463 
L 506.88 761.313066 
L 503.588571 761.300084 
L 500.297143 761.373161 
L 497.005714 762.581401 
L 493.714286 762.63243 
L 492.274339 760.427316 
L 490.422857 758.863253 
L 488.859016 760.427316 
L 487.131429 762.659818 
L 483.84 763.364712 
L 483.11608 763.719209 
L 480.548571 764.776494 
L 477.257143 765.45777 
L 474.122129 767.011102 
L 473.965714 767.12927 
L 470.674286 768.028589 
L 467.382857 768.351538 
L 464.519249 770.302995 
L 464.091429 770.488218 
L 462.958843 770.302995 
L 460.8 769.928678 
L 459.254668 767.011102 
L 457.508571 765.473079 
L 454.217143 765.473079 
L 452.679337 767.011102 
L 451.790922 770.302995 
L 450.925714 770.80721 
L 447.634286 771.648379 
L 444.342857 771.989136 
L 441.051429 773.550506 
L 440.985686 773.594888 
L 437.76 775.021008 
L 434.488174 776.886781 
L 434.468571 776.906364 
L 431.177143 777.777544 
L 427.974638 780.178675 
L 427.885714 780.266748 
L 426.250392 780.178675 
L 424.594286 778.277626 
L 421.302857 778.869227 
L 418.011429 779.167316 
L 416.503039 776.886781 
L 414.72 775.387406 
L 413.220836 776.886781 
L 411.428571 779.463264 
L 409.409356 780.178675 
L 408.137143 780.775362 
L 404.845714 781.827963 
L 401.845328 783.470568 
L 401.554286 783.760539 
L 398.262857 785.129273 
L 395.986721 786.762461 
L 394.971429 787.628531 
L 391.68 788.63473 
L 388.663134 790.054354 
L 388.388571 790.207816 
L 385.097143 792.314874 
L 381.805714 792.544681 
L 380.437929 793.346247 
L 378.514286 794.859417 
L 375.222857 795.429212 
L 373.195629 796.63814 
L 371.931429 797.583972 
L 368.64 798.99193 
L 367.414518 799.930033 
L 365.348571 801.316912 
L 362.53088 803.221927 
L 362.057143 803.686067 
L 358.765714 805.25106 
L 355.890854 806.51382 
L 355.474286 806.750657 
L 352.182857 809.365542 
L 350.680813 809.805713 
L 348.891429 810.557211 
L 345.6 811.978532 
L 343.892833 813.097606 
L 342.308571 814.388827 
L 339.017143 815.376707 
L 337.908586 816.389499 
L 335.725714 817.929293 
L 333.182066 819.681392 
L 333.974961 819.681392 
z
M 453.232901 767.011102 
L 454.217143 766.026721 
L 457.508571 766.026721 
L 458.626126 767.011102 
L 457.508571 769.966146 
L 454.217143 770.213474 
z
M 421.302857 776.117685 
L 424.594286 776.82097 
L 426.133251 773.594888 
L 424.594286 772.055705 
L 421.302857 772.095513 
L 419.803693 773.594888 
z
M 420.342584 773.594888 
L 421.302857 772.63448 
L 424.594286 772.608981 
L 425.580054 773.594888 
L 424.594286 775.66132 
L 421.302857 775.210839 
z
M 460.8 765.465552 
L 462.363315 763.719209 
L 460.8 762.181186 
L 459.262194 763.719209 
z
M 459.815758 763.719209 
L 460.8 762.734828 
L 461.800569 763.719209 
L 460.8 764.836921 
z
M 500.297143 760.393525 
L 501.825313 757.135423 
L 500.297143 755.57136 
L 498.733301 757.135423 
z
M 499.295876 757.135423 
L 500.297143 756.134015 
L 501.27557 757.135423 
L 500.297143 759.221458 
z
M 536.502857 753.459551 
L 538.018877 750.551636 
L 536.502857 749.020965 
L 534.972402 750.551636 
z
M 535.521432 750.551636 
L 536.502857 749.570073 
L 537.475025 750.551636 
L 536.502857 752.416375 
z
" clip-path="url(#p726a456cb8)" style="fill: #eaf3fb; fill-opacity: 0.9"/>
    <path d="M 335.725714 819.021607 
L 339.017143 817.505838 
L 340.985441 816.389499 
L 342.308571 816.068672 
L 345.6 813.864053 
L 348.891429 813.161025 
L 348.958723 813.097606 
L 352.182857 811.696543 
L 354.142428 809.805713 
L 355.474286 808.770042 
L 358.765714 807.392463 
L 359.680176 806.51382 
L 362.057143 805.576988 
L 364.460899 803.221927 
L 365.348571 802.621779 
L 368.64 801.409127 
L 370.180238 799.930033 
L 371.931429 799.235954 
L 375.222857 797.366811 
L 378.514286 797.519828 
L 379.413797 796.63814 
L 381.805714 795.118662 
L 385.097143 795.279129 
L 387.051676 793.346247 
L 388.388571 792.424651 
L 391.68 791.256189 
L 392.891993 790.054354 
L 394.971429 789.348163 
L 398.002642 786.762461 
L 398.262857 786.57575 
L 401.554286 785.905262 
L 403.997974 783.470568 
L 404.845714 783.00646 
L 408.137143 782.826383 
L 411.428571 783.081886 
L 412.41079 783.470568 
L 413.341829 786.762461 
L 414.72 787.432156 
L 415.508707 786.762461 
L 418.011429 785.322682 
L 421.302857 785.522235 
L 423.445065 783.470568 
L 424.594286 782.593188 
L 427.885714 782.566448 
L 430.296544 780.178675 
L 431.177143 779.518431 
L 434.468571 779.258537 
L 436.842738 776.886781 
L 437.76 776.363709 
L 441.051429 775.950076 
L 443.406339 773.594888 
L 444.342857 773.14512 
L 447.634286 773.301124 
L 450.062346 773.594888 
L 450.845307 776.886781 
L 450.925714 776.936072 
L 450.974961 776.886781 
L 454.217143 775.043631 
L 457.508571 775.518702 
L 460.054625 773.594888 
L 460.8 773.071182 
L 464.091429 772.726776 
L 467.382857 772.065002 
L 469.14222 770.302995 
L 470.674286 769.666588 
L 473.965714 769.415471 
L 477.148298 767.011102 
L 477.257143 766.957172 
L 480.548571 766.385253 
L 483.84 766.064558 
L 487.131429 766.262345 
L 488.19066 767.011102 
L 490.422857 768.009907 
L 493.714286 768.717237 
L 495.418094 767.011102 
L 497.005714 765.85376 
L 500.297143 766.065072 
L 503.588571 765.069619 
L 504.93456 763.719209 
L 506.88 763.043503 
L 510.171429 762.800963 
L 513.353966 760.427316 
L 513.462857 760.373041 
L 516.754286 759.823958 
L 520.045714 759.252194 
L 523.337143 758.348958 
L 526.306293 760.427316 
L 526.628571 760.624703 
L 529.92 761.797488 
L 532.890093 760.427316 
L 533.211429 760.263608 
L 536.502857 759.367957 
L 539.794286 759.402994 
L 542.726754 757.135423 
L 543.085714 756.898777 
L 546.377143 756.491236 
L 549.668571 756.040273 
L 552.343233 753.843529 
L 552.96 753.588229 
L 556.251429 753.215642 
L 559.542857 752.803939 
L 562.834286 753.104392 
L 566.125714 751.599453 
L 569.417143 752.290538 
L 572.708571 752.651243 
L 576 752.044284 
L 576 750.551636 
L 576 750.143184 
L 574.652786 750.551636 
L 572.708571 751.20502 
L 569.93849 750.551636 
L 569.417143 750.482131 
L 566.125714 750.132705 
L 562.834286 750.40195 
L 562.062211 750.551636 
L 559.542857 751.449493 
L 556.251429 752.429445 
L 552.96 752.890909 
L 550.658614 753.843529 
L 549.668571 754.656668 
L 546.377143 755.678215 
L 543.085714 755.788185 
L 541.042135 757.135423 
L 539.794286 758.100339 
L 536.502857 758.017426 
L 533.211429 757.537173 
L 532.254376 757.135423 
L 529.92 756.807439 
L 526.628571 756.571246 
L 523.337143 756.646688 
L 521.223204 757.135423 
L 520.045714 757.749453 
L 516.754286 759.054845 
L 513.462857 759.586968 
L 511.776874 760.427316 
L 510.171429 761.624713 
L 506.88 762.178285 
L 503.588571 762.957389 
L 502.498655 763.719209 
L 500.297143 764.848648 
L 497.005714 764.363166 
L 494.147555 763.719209 
L 493.714286 763.652411 
L 491.608289 760.427316 
L 490.422857 759.425908 
L 489.421591 760.427316 
L 487.131429 763.386814 
L 485.746488 763.719209 
L 483.84 764.62516 
L 480.548571 765.580874 
L 477.257143 766.207471 
L 475.635213 767.011102 
L 473.965714 768.27237 
L 470.674286 768.847588 
L 467.382857 770.113318 
L 467.104521 770.302995 
L 464.091429 771.607497 
L 460.8 771.42792 
L 457.715824 773.594888 
L 457.508571 773.751489 
L 456.901942 773.594888 
L 454.217143 770.673265 
L 450.925714 772.295086 
L 447.634286 772.474752 
L 444.342857 772.567128 
L 442.202831 773.594888 
L 441.051429 774.746426 
L 437.76 775.692359 
L 435.665456 776.886781 
L 434.468571 778.082451 
L 431.177143 778.647988 
L 429.135591 780.178675 
L 427.885714 781.416598 
L 424.594286 781.337219 
L 421.799957 783.470568 
L 421.302857 783.946658 
L 419.233648 783.470568 
L 418.308825 780.178675 
L 418.011429 780.136341 
L 415.862106 776.886781 
L 414.72 775.926373 
L 413.759727 776.886781 
L 411.845366 780.178675 
L 411.428571 780.385025 
L 408.137143 781.800873 
L 404.845714 782.417211 
L 402.921651 783.470568 
L 401.554286 784.8329 
L 398.262857 785.852512 
L 396.994681 786.762461 
L 394.971429 788.488347 
L 391.68 789.567901 
L 390.64623 790.054354 
L 388.388571 791.316233 
L 385.443771 793.346247 
L 385.097143 793.689036 
L 382.063677 793.346247 
L 381.805714 793.331817 
L 381.781091 793.346247 
L 378.514286 795.915971 
L 375.222857 796.08759 
L 374.29965 796.63814 
L 371.931429 798.409963 
L 368.64 799.735909 
L 368.386408 799.930033 
L 365.348571 801.969345 
L 363.495889 803.221927 
L 362.057143 804.631527 
L 358.765714 806.031122 
L 357.666782 806.51382 
L 355.474286 807.760349 
L 352.843979 809.805713 
L 352.182857 810.443643 
L 348.891429 811.842407 
L 345.6 812.654068 
L 344.923375 813.097606 
L 342.308571 815.228749 
L 339.017143 816.084075 
L 338.68284 816.389499 
L 335.725714 818.47545 
L 333.974961 819.681392 
L 334.767856 819.681392 
z
M 414.298617 776.886781 
L 414.72 776.465339 
L 415.221174 776.886781 
L 414.72 778.939113 
z
M 489.984166 760.427316 
L 490.422857 759.988563 
L 490.942238 760.427316 
L 490.422857 762.537438 
z
M 421.302857 775.210839 
L 424.594286 775.66132 
L 425.580054 773.594888 
L 424.594286 772.608981 
L 421.302857 772.63448 
L 420.342584 773.594888 
z
M 420.881475 773.594888 
L 421.302857 773.173446 
L 424.594286 773.162257 
L 425.026856 773.594888 
L 424.594286 774.50167 
L 421.302857 774.303992 
z
M 454.217143 770.213474 
L 457.508571 769.966146 
L 458.626126 767.011102 
L 457.508571 766.026721 
L 454.217143 766.026721 
L 453.232901 767.011102 
z
M 453.786464 767.011102 
L 454.217143 766.580363 
L 457.508571 766.580363 
L 457.997584 767.011102 
L 457.508571 768.304151 
L 454.217143 768.412375 
z
M 460.8 764.836921 
L 461.800569 763.719209 
L 460.8 762.734828 
L 459.815758 763.719209 
z
M 460.369322 763.719209 
L 460.8 763.28847 
L 461.237823 763.719209 
L 460.8 764.20829 
z
M 500.297143 759.221458 
L 501.27557 757.135423 
L 500.297143 756.134015 
L 499.295876 757.135423 
z
M 499.858452 757.135423 
L 500.297143 756.696669 
L 500.725828 757.135423 
L 500.297143 758.049391 
z
M 536.502857 752.416375 
L 537.475025 750.551636 
L 536.502857 749.570073 
L 535.521432 750.551636 
z
M 536.070463 750.551636 
L 536.502857 750.119181 
L 536.931173 750.551636 
L 536.502857 751.3732 
z
" clip-path="url(#p726a456cb8)" style="fill: #e5eff9; fill-opacity: 0.9"/>
    <path d="M 335.725714 819.567764 
L 339.017143 819.470446 
L 342.308571 818.805306 
L 345.022179 816.389499 
L 345.6 816.095802 
L 348.891429 815.878139 
L 351.841903 813.097606 
L 352.182857 812.949443 
L 355.440878 809.805713 
L 355.474286 809.779734 
L 358.765714 809.697361 
L 362.057143 806.824698 
L 365.348571 807.114998 
L 368.64 807.337951 
L 371.931429 807.476938 
L 375.222857 807.898733 
L 378.514286 806.594544 
L 378.892784 806.51382 
L 381.805714 805.634486 
L 385.097143 803.913646 
L 388.388571 803.515182 
L 389.393951 803.221927 
L 391.68 802.341205 
L 394.971429 801.470021 
L 398.262857 801.534665 
L 401.554286 800.531414 
L 404.845714 801.785273 
L 408.137143 801.090692 
L 411.428571 803.148467 
L 411.929546 803.221927 
L 414.72 803.618393 
L 415.874589 803.221927 
L 418.011429 802.281922 
L 421.302857 801.383502 
L 424.594286 800.28123 
L 426.752956 799.930033 
L 427.885714 799.662021 
L 431.177143 798.769786 
L 434.468571 798.23562 
L 437.76 797.887822 
L 441.051429 797.59838 
L 444.342857 797.563688 
L 447.634286 796.952853 
L 450.925714 797.134604 
L 453.656881 796.63814 
L 454.217143 796.474513 
L 457.508571 795.433924 
L 460.8 794.3449 
L 464.091429 794.230565 
L 466.562934 793.346247 
L 467.382857 792.945982 
L 470.674286 792.740475 
L 473.965714 792.065288 
L 477.257143 791.44215 
L 480.548571 791.446833 
L 483.84 790.833022 
L 487.131429 790.603039 
L 490.422857 790.173835 
L 490.853628 790.054354 
L 493.714286 788.874671 
L 497.005714 787.837992 
L 500.297143 787.623697 
L 502.745413 786.762461 
L 503.588571 786.351783 
L 506.88 785.979682 
L 510.171429 785.455967 
L 513.462857 784.540662 
L 516.754286 784.572341 
L 520.045714 783.97768 
L 523.337143 783.793992 
L 526.628571 783.485695 
L 526.700912 783.470568 
L 529.92 782.447682 
L 533.211429 781.352542 
L 536.502857 780.846005 
L 539.794286 780.213932 
L 539.900289 780.178675 
L 543.085714 778.801825 
L 546.377143 778.826796 
L 549.668571 777.976372 
L 552.96 777.430253 
L 556.251429 777.42351 
L 559.542857 776.941121 
L 560.500141 776.886781 
L 562.834286 776.68626 
L 566.125714 775.867589 
L 569.417143 775.320342 
L 572.708571 774.525557 
L 576 773.780843 
L 576 773.594888 
L 576 770.302995 
L 576 767.011102 
L 576 763.719209 
L 576 760.427316 
L 576 757.135423 
L 576 753.843529 
L 576 752.044284 
L 572.708571 752.651243 
L 569.417143 752.290538 
L 566.125714 751.599453 
L 562.834286 753.104392 
L 559.542857 752.803939 
L 556.251429 753.215642 
L 552.96 753.588229 
L 552.343233 753.843529 
L 549.668571 756.040273 
L 546.377143 756.491236 
L 543.085714 756.898777 
L 542.726754 757.135423 
L 539.794286 759.402994 
L 536.502857 759.367957 
L 533.211429 760.263608 
L 532.890093 760.427316 
L 529.92 761.797488 
L 526.628571 760.624703 
L 526.306293 760.427316 
L 523.337143 758.348958 
L 520.045714 759.252194 
L 516.754286 759.823958 
L 513.462857 760.373041 
L 513.353966 760.427316 
L 510.171429 762.800963 
L 506.88 763.043503 
L 504.93456 763.719209 
L 503.588571 765.069619 
L 500.297143 766.065072 
L 497.005714 765.85376 
L 495.418094 767.011102 
L 493.714286 768.717237 
L 490.422857 768.009907 
L 488.19066 767.011102 
L 487.131429 766.262345 
L 483.84 766.064558 
L 480.548571 766.385253 
L 477.257143 766.957172 
L 477.148298 767.011102 
L 473.965714 769.415471 
L 470.674286 769.666588 
L 469.14222 770.302995 
L 467.382857 772.065002 
L 464.091429 772.726776 
L 460.8 773.071182 
L 460.054625 773.594888 
L 457.508571 775.518702 
L 454.217143 775.043631 
L 450.974961 776.886781 
L 450.925714 776.936072 
L 450.845307 776.886781 
L 450.062346 773.594888 
L 447.634286 773.301124 
L 444.342857 773.14512 
L 443.406339 773.594888 
L 441.051429 775.950076 
L 437.76 776.363709 
L 436.842738 776.886781 
L 434.468571 779.258537 
L 431.177143 779.518431 
L 430.296544 780.178675 
L 427.885714 782.566448 
L 424.594286 782.593188 
L 423.445065 783.470568 
L 421.302857 785.522235 
L 418.011429 785.322682 
L 415.508707 786.762461 
L 414.72 787.432156 
L 413.341829 786.762461 
L 412.41079 783.470568 
L 411.428571 783.081886 
L 408.137143 782.826383 
L 404.845714 783.00646 
L 403.997974 783.470568 
L 401.554286 785.905262 
L 398.262857 786.57575 
L 398.002642 786.762461 
L 394.971429 789.348163 
L 392.891993 790.054354 
L 391.68 791.256189 
L 388.388571 792.424651 
L 387.051676 793.346247 
L 385.097143 795.279129 
L 381.805714 795.118662 
L 379.413797 796.63814 
L 378.514286 797.519828 
L 375.222857 797.366811 
L 371.931429 799.235954 
L 370.180238 799.930033 
L 368.64 801.409127 
L 365.348571 802.621779 
L 364.460899 803.221927 
L 362.057143 805.576988 
L 359.680176 806.51382 
L 358.765714 807.392463 
L 355.474286 808.770042 
L 354.142428 809.805713 
L 352.182857 811.696543 
L 348.958723 813.097606 
L 348.891429 813.161025 
L 345.6 813.864053 
L 342.308571 816.068672 
L 340.985441 816.389499 
L 339.017143 817.505838 
L 335.725714 819.021607 
L 334.767856 819.681392 
L 335.560752 819.681392 
z
M 414.72 778.939113 
L 415.221174 776.886781 
L 414.72 776.465339 
L 414.298617 776.886781 
z
M 421.302857 774.303992 
L 424.594286 774.50167 
L 425.026856 773.594888 
L 424.594286 773.162257 
L 421.302857 773.173446 
L 420.881475 773.594888 
z
M 454.217143 768.412375 
L 457.508571 768.304151 
L 457.997584 767.011102 
L 457.508571 766.580363 
L 454.217143 766.580363 
L 453.786464 767.011102 
z
M 460.8 764.20829 
L 461.237823 763.719209 
L 460.8 763.28847 
L 460.369322 763.719209 
z
M 490.422857 762.537438 
L 490.942238 760.427316 
L 490.422857 759.988563 
L 489.984166 760.427316 
z
M 500.297143 758.049391 
L 500.725828 757.135423 
L 500.297143 756.696669 
L 499.858452 757.135423 
z
M 536.502857 751.3732 
L 536.931173 750.551636 
L 536.502857 750.119181 
L 536.070463 750.551636 
z
" clip-path="url(#p726a456cb8)" style="fill: #dfecf7; fill-opacity: 0.9"/>
    <path d="M 335.725714 819.681392 
L 339.017143 819.681392 
L 342.308571 819.681392 
L 345.6 819.681392 
L 348.891429 819.681392 
L 352.182857 819.681392 
L 355.474286 819.681392 
L 358.765714 819.681392 
L 362.057143 819.681392 
L 365.348571 819.681392 
L 368.64 819.681392 
L 371.931429 819.681392 
L 373.440194 819.681392 
L 375.222857 819.128416 
L 378.514286 817.627282 
L 381.805714 816.785196 
L 382.581556 816.389499 
L 385.097143 814.756822 
L 388.388571 814.065706 
L 390.284716 813.097606 
L 391.68 812.295641 
L 394.971429 811.779266 
L 398.262857 811.067421 
L 401.554286 810.52486 
L 404.845714 810.786332 
L 408.137143 810.82333 
L 411.428571 812.159092 
L 412.452546 813.097606 
L 414.72 814.702304 
L 418.011429 813.551651 
L 420.129724 813.097606 
L 421.302857 812.171637 
L 424.594286 810.403013 
L 427.814308 809.805713 
L 427.885714 809.751609 
L 431.177143 807.28673 
L 434.468571 806.858477 
L 434.979027 806.51382 
L 437.76 804.565463 
L 441.051429 804.38014 
L 443.509569 803.221927 
L 444.342857 802.770289 
L 445.715983 803.221927 
L 447.634286 805.117046 
L 449.21222 806.51382 
L 450.925714 807.928795 
L 453.564784 809.805713 
L 454.217143 809.870431 
L 454.517745 809.805713 
L 457.508571 807.616489 
L 460.8 806.880469 
L 464.091429 806.718852 
L 464.643118 806.51382 
L 467.382857 804.284407 
L 470.674286 803.762122 
L 473.965714 803.496201 
L 474.390898 803.221927 
L 477.257143 801.092422 
L 480.548571 801.171067 
L 483.04997 799.930033 
L 483.84 799.367281 
L 486.209459 799.930033 
L 487.131429 800.418081 
L 490.422857 802.114751 
L 493.714286 801.732869 
L 497.005714 801.213216 
L 500.297143 800.51142 
L 503.588571 799.932811 
L 503.638114 799.930033 
L 506.88 799.516028 
L 510.171429 798.526527 
L 513.462857 797.195739 
L 516.754286 796.829501 
L 518.570356 796.63814 
L 520.045714 796.238199 
L 523.337143 794.701296 
L 526.628571 794.514621 
L 529.92 794.019474 
L 533.211429 793.497626 
L 534.087606 793.346247 
L 536.502857 792.944738 
L 539.794286 792.289986 
L 543.085714 791.904138 
L 546.377143 791.3217 
L 549.668571 790.45583 
L 552.96 790.150716 
L 553.295825 790.054354 
L 556.251429 789.270944 
L 559.542857 788.454794 
L 562.834286 787.824601 
L 566.125714 787.067212 
L 567.60342 786.762461 
L 569.417143 786.422356 
L 572.708571 785.83745 
L 576 785.324892 
L 576 783.470568 
L 576 780.178675 
L 576 776.886781 
L 576 773.780843 
L 572.708571 774.525557 
L 569.417143 775.320342 
L 566.125714 775.867589 
L 562.834286 776.68626 
L 560.500141 776.886781 
L 559.542857 776.941121 
L 556.251429 777.42351 
L 552.96 777.430253 
L 549.668571 777.976372 
L 546.377143 778.826796 
L 543.085714 778.801825 
L 539.900289 780.178675 
L 539.794286 780.213932 
L 536.502857 780.846005 
L 533.211429 781.352542 
L 529.92 782.447682 
L 526.700912 783.470568 
L 526.628571 783.485695 
L 523.337143 783.793992 
L 520.045714 783.97768 
L 516.754286 784.572341 
L 513.462857 784.540662 
L 510.171429 785.455967 
L 506.88 785.979682 
L 503.588571 786.351783 
L 502.745413 786.762461 
L 500.297143 787.623697 
L 497.005714 787.837992 
L 493.714286 788.874671 
L 490.853628 790.054354 
L 490.422857 790.173835 
L 487.131429 790.603039 
L 483.84 790.833022 
L 480.548571 791.446833 
L 477.257143 791.44215 
L 473.965714 792.065288 
L 470.674286 792.740475 
L 467.382857 792.945982 
L 466.562934 793.346247 
L 464.091429 794.230565 
L 460.8 794.3449 
L 457.508571 795.433924 
L 454.217143 796.474513 
L 453.656881 796.63814 
L 450.925714 797.134604 
L 447.634286 796.952853 
L 444.342857 797.563688 
L 441.051429 797.59838 
L 437.76 797.887822 
L 434.468571 798.23562 
L 431.177143 798.769786 
L 427.885714 799.662021 
L 426.752956 799.930033 
L 424.594286 800.28123 
L 421.302857 801.383502 
L 418.011429 802.281922 
L 415.874589 803.221927 
L 414.72 803.618393 
L 411.929546 803.221927 
L 411.428571 803.148467 
L 408.137143 801.090692 
L 404.845714 801.785273 
L 401.554286 800.531414 
L 398.262857 801.534665 
L 394.971429 801.470021 
L 391.68 802.341205 
L 389.393951 803.221927 
L 388.388571 803.515182 
L 385.097143 803.913646 
L 381.805714 805.634486 
L 378.892784 806.51382 
L 378.514286 806.594544 
L 375.222857 807.898733 
L 371.931429 807.476938 
L 368.64 807.337951 
L 365.348571 807.114998 
L 362.057143 806.824698 
L 358.765714 809.697361 
L 355.474286 809.779734 
L 355.440878 809.805713 
L 352.182857 812.949443 
L 351.841903 813.097606 
L 348.891429 815.878139 
L 345.6 816.095802 
L 345.022179 816.389499 
L 342.308571 818.805306 
L 339.017143 819.470446 
L 335.725714 819.567764 
L 335.560752 819.681392 
z
" clip-path="url(#p726a456cb8)" style="fill: #dae8f6; fill-opacity: 0.9"/>
    <path d="M 375.222857 819.681392 
L 378.514286 819.681392 
L 381.805714 819.681392 
L 382.010681 819.681392 
L 385.097143 818.480396 
L 388.388571 817.883186 
L 391.68 816.776897 
L 394.971429 816.599674 
L 395.651274 816.389499 
L 398.262857 815.405892 
L 401.554286 815.750667 
L 404.845714 814.561799 
L 408.137143 816.12048 
L 408.522605 816.389499 
L 411.428571 817.137683 
L 414.72 816.881148 
L 415.646956 816.389499 
L 418.011429 814.645735 
L 421.302857 813.821466 
L 422.484199 813.097606 
L 424.594286 811.537264 
L 427.885714 810.99428 
L 429.439092 809.805713 
L 431.177143 808.482931 
L 434.468571 808.52772 
L 437.451262 806.51382 
L 437.76 806.297517 
L 438.959684 806.51382 
L 441.051429 808.519637 
L 442.630154 809.805713 
L 444.342857 811.034121 
L 446.790525 813.097606 
L 447.634286 813.22231 
L 448.387844 813.097606 
L 450.925714 812.198857 
L 454.217143 811.096764 
L 457.508571 810.404223 
L 458.822068 809.805713 
L 460.8 808.585981 
L 464.091429 808.005361 
L 467.382857 807.008177 
L 468.186558 806.51382 
L 470.674286 805.434346 
L 473.965714 805.5698 
L 477.257143 804.298038 
L 480.548571 806.21463 
L 481.056156 806.51382 
L 483.84 808.353276 
L 487.131429 808.764108 
L 490.422857 807.858637 
L 493.714286 807.299148 
L 495.770047 806.51382 
L 497.005714 805.762444 
L 500.297143 804.811166 
L 503.588571 804.352956 
L 505.525247 803.221927 
L 506.88 802.49881 
L 510.171429 802.407696 
L 513.462857 802.182552 
L 516.754286 802.601559 
L 518.300881 803.221927 
L 520.045714 804.145057 
L 523.337143 806.065131 
L 526.628571 805.123889 
L 529.92 804.803318 
L 533.211429 804.164932 
L 535.578177 803.221927 
L 536.502857 802.766659 
L 539.794286 801.947329 
L 543.085714 801.606733 
L 546.061381 799.930033 
L 546.377143 799.784761 
L 549.668571 799.762725 
L 551.845696 799.930033 
L 552.96 800.388742 
L 556.251429 801.529497 
L 559.542857 801.40941 
L 562.834286 801.364533 
L 566.125714 801.247434 
L 569.417143 800.382173 
L 570.073074 799.930033 
L 572.708571 799.292847 
L 576 799.315136 
L 576 796.63814 
L 576 793.346247 
L 576 790.054354 
L 576 786.762461 
L 576 785.324892 
L 572.708571 785.83745 
L 569.417143 786.422356 
L 567.60342 786.762461 
L 566.125714 787.067212 
L 562.834286 787.824601 
L 559.542857 788.454794 
L 556.251429 789.270944 
L 553.295825 790.054354 
L 552.96 790.150716 
L 549.668571 790.45583 
L 546.377143 791.3217 
L 543.085714 791.904138 
L 539.794286 792.289986 
L 536.502857 792.944738 
L 534.087606 793.346247 
L 533.211429 793.497626 
L 529.92 794.019474 
L 526.628571 794.514621 
L 523.337143 794.701296 
L 520.045714 796.238199 
L 518.570356 796.63814 
L 516.754286 796.829501 
L 513.462857 797.195739 
L 510.171429 798.526527 
L 506.88 799.516028 
L 503.638114 799.930033 
L 503.588571 799.932811 
L 500.297143 800.51142 
L 497.005714 801.213216 
L 493.714286 801.732869 
L 490.422857 802.114751 
L 487.131429 800.418081 
L 486.209459 799.930033 
L 483.84 799.367281 
L 483.04997 799.930033 
L 480.548571 801.171067 
L 477.257143 801.092422 
L 474.390898 803.221927 
L 473.965714 803.496201 
L 470.674286 803.762122 
L 467.382857 804.284407 
L 464.643118 806.51382 
L 464.091429 806.718852 
L 460.8 806.880469 
L 457.508571 807.616489 
L 454.517745 809.805713 
L 454.217143 809.870431 
L 453.564784 809.805713 
L 450.925714 807.928795 
L 449.21222 806.51382 
L 447.634286 805.117046 
L 445.715983 803.221927 
L 444.342857 802.770289 
L 443.509569 803.221927 
L 441.051429 804.38014 
L 437.76 804.565463 
L 434.979027 806.51382 
L 434.468571 806.858477 
L 431.177143 807.28673 
L 427.885714 809.751609 
L 427.814308 809.805713 
L 424.594286 810.403013 
L 421.302857 812.171637 
L 420.129724 813.097606 
L 418.011429 813.551651 
L 414.72 814.702304 
L 412.452546 813.097606 
L 411.428571 812.159092 
L 408.137143 810.82333 
L 404.845714 810.786332 
L 401.554286 810.52486 
L 398.262857 811.067421 
L 394.971429 811.779266 
L 391.68 812.295641 
L 390.284716 813.097606 
L 388.388571 814.065706 
L 385.097143 814.756822 
L 382.581556 816.389499 
L 381.805714 816.785196 
L 378.514286 817.627282 
L 375.222857 819.128416 
L 373.440194 819.681392 
z
" clip-path="url(#p726a456cb8)" style="fill: #d6e5f4; fill-opacity: 0.9"/>
    <path d="M 385.097143 819.681392 
L 388.388571 819.681392 
L 391.68 819.681392 
L 393.929966 819.681392 
L 394.971429 819.436957 
L 398.262857 818.532927 
L 401.554286 818.496625 
L 404.56166 819.681392 
L 404.845714 819.681392 
L 408.137143 819.681392 
L 409.791206 819.681392 
L 411.428571 818.780361 
L 414.72 817.668001 
L 417.130489 816.389499 
L 418.011429 815.739819 
L 421.302857 814.761339 
L 424.018072 813.097606 
L 424.594286 812.671515 
L 427.885714 812.196891 
L 431.010823 809.805713 
L 431.177143 809.679132 
L 432.200921 809.805713 
L 434.468571 811.911694 
L 436.054331 813.097606 
L 437.76 814.174073 
L 440.5972 816.389499 
L 441.051429 816.471837 
L 444.342857 816.540178 
L 444.610658 816.389499 
L 447.634286 814.644184 
L 450.925714 814.044555 
L 452.661414 813.097606 
L 454.217143 812.323097 
L 457.508571 811.664436 
L 460.8 810.593696 
L 462.17013 809.805713 
L 464.091429 809.29187 
L 467.382857 809.378634 
L 469.989348 809.805713 
L 470.674286 810.264333 
L 473.965714 812.346946 
L 475.256187 813.097606 
L 477.257143 813.424264 
L 480.548571 813.648657 
L 481.778084 813.097606 
L 483.84 812.00381 
L 487.131429 811.469938 
L 490.422857 810.382138 
L 491.388488 809.805713 
L 493.714286 809.201876 
L 497.005714 809.203754 
L 500.297143 809.433384 
L 500.902327 809.805713 
L 503.588571 811.224861 
L 506.88 812.632767 
L 510.171429 812.532358 
L 513.462857 811.94937 
L 516.754286 811.980935 
L 520.045714 812.186857 
L 522.966628 813.097606 
L 523.337143 813.311567 
L 526.628571 814.636406 
L 529.612041 816.389499 
L 529.92 816.51059 
L 533.211429 817.079718 
L 536.502857 816.862604 
L 539.794286 816.550858 
L 543.085714 816.90717 
L 546.377143 818.347988 
L 546.69871 819.681392 
L 549.668571 819.681392 
L 552.96 819.681392 
L 556.251429 819.681392 
L 559.542857 819.681392 
L 562.834286 819.681392 
L 566.125714 819.681392 
L 569.417143 819.681392 
L 572.708571 819.681392 
L 576 819.681392 
L 576 816.389499 
L 576 813.097606 
L 576 809.805713 
L 576 806.51382 
L 576 803.221927 
L 576 799.930033 
L 576 799.315136 
L 572.708571 799.292847 
L 570.073074 799.930033 
L 569.417143 800.382173 
L 566.125714 801.247434 
L 562.834286 801.364533 
L 559.542857 801.40941 
L 556.251429 801.529497 
L 552.96 800.388742 
L 551.845696 799.930033 
L 549.668571 799.762725 
L 546.377143 799.784761 
L 546.061381 799.930033 
L 543.085714 801.606733 
L 539.794286 801.947329 
L 536.502857 802.766659 
L 535.578177 803.221927 
L 533.211429 804.164932 
L 529.92 804.803318 
L 526.628571 805.123889 
L 523.337143 806.065131 
L 520.045714 804.145057 
L 518.300881 803.221927 
L 516.754286 802.601559 
L 513.462857 802.182552 
L 510.171429 802.407696 
L 506.88 802.49881 
L 505.525247 803.221927 
L 503.588571 804.352956 
L 500.297143 804.811166 
L 497.005714 805.762444 
L 495.770047 806.51382 
L 493.714286 807.299148 
L 490.422857 807.858637 
L 487.131429 808.764108 
L 483.84 808.353276 
L 481.056156 806.51382 
L 480.548571 806.21463 
L 477.257143 804.298038 
L 473.965714 805.5698 
L 470.674286 805.434346 
L 468.186558 806.51382 
L 467.382857 807.008177 
L 464.091429 808.005361 
L 460.8 808.585981 
L 458.822068 809.805713 
L 457.508571 810.404223 
L 454.217143 811.096764 
L 450.925714 812.198857 
L 448.387844 813.097606 
L 447.634286 813.22231 
L 446.790525 813.097606 
L 444.342857 811.034121 
L 442.630154 809.805713 
L 441.051429 808.519637 
L 438.959684 806.51382 
L 437.76 806.297517 
L 437.451262 806.51382 
L 434.468571 808.52772 
L 431.177143 808.482931 
L 429.439092 809.805713 
L 427.885714 810.99428 
L 424.594286 811.537264 
L 422.484199 813.097606 
L 421.302857 813.821466 
L 418.011429 814.645735 
L 415.646956 816.389499 
L 414.72 816.881148 
L 411.428571 817.137683 
L 408.522605 816.389499 
L 408.137143 816.12048 
L 404.845714 814.561799 
L 401.554286 815.750667 
L 398.262857 815.405892 
L 395.651274 816.389499 
L 394.971429 816.599674 
L 391.68 816.776897 
L 388.388571 817.883186 
L 385.097143 818.480396 
L 382.010681 819.681392 
z
" clip-path="url(#p726a456cb8)" style="fill: #d0e2f2; fill-opacity: 0.9"/>
    <path d="M 394.971429 819.681392 
L 398.262857 819.681392 
L 401.554286 819.681392 
L 404.56166 819.681392 
L 401.554286 818.496625 
L 398.262857 818.532927 
L 394.971429 819.436957 
L 393.929966 819.681392 
z
M 411.428571 819.681392 
L 412.16779 819.681392 
L 414.72 818.454853 
L 418.011429 817.122185 
L 419.185717 816.389499 
L 421.302857 815.701211 
L 424.594286 815.036966 
L 427.885714 815.286389 
L 429.43006 816.389499 
L 431.177143 817.437742 
L 434.406897 819.681392 
L 434.468571 819.681392 
L 437.76 819.681392 
L 438.572192 819.681392 
L 441.051429 818.232056 
L 444.342857 817.926157 
L 447.073949 816.389499 
L 447.634286 816.066059 
L 450.925714 815.388457 
L 454.217143 814.345675 
L 456.615261 813.097606 
L 457.508571 812.92465 
L 459.45429 813.097606 
L 460.8 814.101992 
L 464.091429 816.221123 
L 464.37916 816.389499 
L 467.382857 817.693688 
L 470.674286 817.648755 
L 473.965714 817.698907 
L 477.257143 816.397509 
L 477.27494 816.389499 
L 480.548571 815.781193 
L 483.84 815.781997 
L 486.865355 816.389499 
L 487.131429 816.542526 
L 490.422857 818.447199 
L 492.933449 819.681392 
L 493.714286 819.681392 
L 497.005714 819.681392 
L 500.297143 819.681392 
L 503.588571 819.681392 
L 506.88 819.681392 
L 510.171429 819.681392 
L 513.462857 819.681392 
L 516.754286 819.681392 
L 520.045714 819.681392 
L 523.337143 819.681392 
L 526.628571 819.681392 
L 529.92 819.681392 
L 533.211429 819.681392 
L 536.502857 819.681392 
L 539.794286 819.681392 
L 543.085714 819.681392 
L 546.377143 819.681392 
L 546.69871 819.681392 
L 546.377143 818.347988 
L 543.085714 816.90717 
L 539.794286 816.550858 
L 536.502857 816.862604 
L 533.211429 817.079718 
L 529.92 816.51059 
L 529.612041 816.389499 
L 526.628571 814.636406 
L 523.337143 813.311567 
L 522.966628 813.097606 
L 520.045714 812.186857 
L 516.754286 811.980935 
L 513.462857 811.94937 
L 510.171429 812.532358 
L 506.88 812.632767 
L 503.588571 811.224861 
L 500.902327 809.805713 
L 500.297143 809.433384 
L 497.005714 809.203754 
L 493.714286 809.201876 
L 491.388488 809.805713 
L 490.422857 810.382138 
L 487.131429 811.469938 
L 483.84 812.00381 
L 481.778084 813.097606 
L 480.548571 813.648657 
L 477.257143 813.424264 
L 475.256187 813.097606 
L 473.965714 812.346946 
L 470.674286 810.264333 
L 469.989348 809.805713 
L 467.382857 809.378634 
L 464.091429 809.29187 
L 462.17013 809.805713 
L 460.8 810.593696 
L 457.508571 811.664436 
L 454.217143 812.323097 
L 452.661414 813.097606 
L 450.925714 814.044555 
L 447.634286 814.644184 
L 444.610658 816.389499 
L 444.342857 816.540178 
L 441.051429 816.471837 
L 440.5972 816.389499 
L 437.76 814.174073 
L 436.054331 813.097606 
L 434.468571 811.911694 
L 432.200921 809.805713 
L 431.177143 809.679132 
L 431.010823 809.805713 
L 427.885714 812.196891 
L 424.594286 812.671515 
L 424.018072 813.097606 
L 421.302857 814.761339 
L 418.011429 815.739819 
L 417.130489 816.389499 
L 414.72 817.668001 
L 411.428571 818.780361 
L 409.791206 819.681392 
z
" clip-path="url(#p726a456cb8)" style="fill: #cbdef1; fill-opacity: 0.9"/>
    <path d="M 414.72 819.241706 
L 418.011429 818.925997 
L 421.302857 818.656323 
L 422.780421 819.681392 
L 424.594286 819.681392 
L 427.885714 819.681392 
L 431.177143 819.681392 
L 434.406897 819.681392 
L 431.177143 817.437742 
L 429.43006 816.389499 
L 427.885714 815.286389 
L 424.594286 815.036966 
L 421.302857 815.701211 
L 419.185717 816.389499 
L 418.011429 817.122185 
L 414.72 818.454853 
L 412.16779 819.681392 
L 413.80509 819.681392 
z
M 441.051429 819.681392 
L 442.363545 819.681392 
L 444.342857 819.312136 
L 447.634286 819.22327 
L 450.925714 819.483092 
L 451.392359 819.681392 
L 454.217143 819.681392 
L 457.508571 819.681392 
L 460.8 819.681392 
L 464.091429 819.681392 
L 467.382857 819.681392 
L 470.674286 819.681392 
L 473.965714 819.681392 
L 477.257143 819.681392 
L 480.548571 819.681392 
L 483.84 819.681392 
L 487.131429 819.681392 
L 490.422857 819.681392 
L 492.933449 819.681392 
L 490.422857 818.447199 
L 487.131429 816.542526 
L 486.865355 816.389499 
L 483.84 815.781997 
L 480.548571 815.781193 
L 477.27494 816.389499 
L 477.257143 816.397509 
L 473.965714 817.698907 
L 470.674286 817.648755 
L 467.382857 817.693688 
L 464.37916 816.389499 
L 464.091429 816.221123 
L 460.8 814.101992 
L 459.45429 813.097606 
L 457.508571 812.92465 
L 456.615261 813.097606 
L 454.217143 814.345675 
L 450.925714 815.388457 
L 447.634286 816.066059 
L 447.073949 816.389499 
L 444.342857 817.926157 
L 441.051429 818.232056 
L 438.572192 819.681392 
z
" clip-path="url(#p726a456cb8)" style="fill: #c6dbef; fill-opacity: 0.9"/>
    <path d="M 414.72 819.681392 
L 418.011429 819.681392 
L 421.302857 819.681392 
L 422.780421 819.681392 
L 421.302857 818.656323 
L 418.011429 818.925997 
L 414.72 819.241706 
L 413.80509 819.681392 
z
M 444.342857 819.681392 
L 447.634286 819.681392 
L 450.925714 819.681392 
L 451.392359 819.681392 
L 450.925714 819.483092 
L 447.634286 819.22327 
L 444.342857 819.312136 
L 442.363545 819.681392 
z
" clip-path="url(#p726a456cb8)" style="fill: #bed8ec; fill-opacity: 0.9"/>
    <path clip-path="url(#p726a456cb8)" style="fill: #b5d4e9; fill-opacity: 0.9"/>
    <path clip-path="url(#p726a456cb8)" style="fill: #add0e6; fill-opacity: 0.9"/>
    <path clip-path="url(#p726a456cb8)" style="fill: #a5cde3; fill-opacity: 0.9"/>
    <path clip-path="url(#p726a456cb8)" style="fill: #9cc9e1; fill-opacity: 0.9"/>
    <path clip-path="url(#p726a456cb8)" style="fill: #91c3de; fill-opacity: 0.9"/>
    <path clip-path="url(#p726a456cb8)" style="fill: #85bcdc; fill-opacity: 0.9"/>
    <path clip-path="url(#p726a456cb8)" style="fill: #7cb7da; fill-opacity: 0.9"/>
    <path clip-path="url(#p726a456cb8)" style="fill: #71b1d7; fill-opacity: 0.9"/>
    <path clip-path="url(#p726a456cb8)" style="fill: #66abd4; fill-opacity: 0.9"/>
    <path clip-path="url(#p726a456cb8)" style="fill: #5da5d1; fill-opacity: 0.9"/>
    <path clip-path="url(#p726a456cb8)" style="fill: #56a0ce; fill-opacity: 0.9"/>
    <path clip-path="url(#p726a456cb8)" style="fill: #4d99ca; fill-opacity: 0.9"/>
    <path clip-path="url(#p726a456cb8)" style="fill: #4493c7; fill-opacity: 0.9"/>
    <path clip-path="url(#p726a456cb8)" style="fill: #3c8cc3; fill-opacity: 0.9"/>
    <path clip-path="url(#p726a456cb8)" style="fill: #3686c0; fill-opacity: 0.9"/>
    <path clip-path="url(#p726a456cb8)" style="fill: #2f7fbc; fill-opacity: 0.9"/>
    <path clip-path="url(#p726a456cb8)" style="fill: #2777b8; fill-opacity: 0.9"/>
    <path clip-path="url(#p726a456cb8)" style="fill: #2070b4; fill-opacity: 0.9"/>
    <path clip-path="url(#p726a456cb8)" style="fill: #1c6ab0; fill-opacity: 0.9"/>
    <path clip-path="url(#p726a456cb8)" style="fill: #1663aa; fill-opacity: 0.9"/>
    <path clip-path="url(#p726a456cb8)" style="fill: #115ca5; fill-opacity: 0.9"/>
    <path clip-path="url(#p726a456cb8)" style="fill: #0c56a0; fill-opacity: 0.9"/>
    <path clip-path="url(#p726a456cb8)" style="fill: #084f99; fill-opacity: 0.9"/>
    <path clip-path="url(#p726a456cb8)" style="fill: #08488e; fill-opacity: 0.9"/>
    <path clip-path="url(#p726a456cb8)" style="fill: #084184; fill-opacity: 0.9"/>
    <path clip-path="url(#p726a456cb8)" style="fill: #083a7a; fill-opacity: 0.9"/>
    <path clip-path="url(#p726a456cb8)" style="fill: #083370; fill-opacity: 0.9"/>
    <path clip-path="url(#p726a456cb8)" style="fill: #08306b; fill-opacity: 0.9"/>
   </g>
   <g id="QuadContourSet_2">
    <path d="M 576 745.993956 
L 572.997633 747.259743 
L 572.708571 747.355151 
L 569.417143 748.029846 
L 566.125714 748.111632 
L 562.834286 748.191468 
L 559.542857 748.415511 
L 556.251429 749.478583 
L 554.168195 750.551636 
L 552.96 750.79895 
L 549.668571 751.088178 
L 546.377143 752.624783 
L 543.085714 752.207745 
L 539.794286 751.929867 
L 539.10658 750.551636 
L 536.502857 747.922749 
L 533.874341 750.551636 
L 533.211429 752.644243 
L 530.788262 753.843529 
L 529.92 754.069795 
L 526.628571 754.617239 
L 523.337143 754.647965 
L 520.045714 754.889831 
L 516.754286 756.165488 
L 514.090022 757.135423 
L 513.462857 757.228751 
L 510.171429 757.820848 
L 506.88 758.9556 
L 503.588571 758.618078 
L 502.924799 757.135423 
L 500.297143 754.446051 
L 497.608151 757.135423 
L 497.005714 758.901924 
L 494.204745 760.427316 
L 493.714286 760.592468 
L 493.606441 760.427316 
L 490.422857 757.737944 
L 487.733865 760.427316 
L 487.131429 761.205824 
L 483.84 761.451632 
L 480.548571 762.434293 
L 478.302328 763.719209 
L 477.257143 763.958368 
L 473.965714 764.907133 
L 470.674286 765.647093 
L 467.382857 765.245236 
L 464.091429 765.573145 
L 463.488808 763.719209 
L 460.8 761.073902 
L 458.155066 763.719209 
L 457.508571 764.365795 
L 454.217143 764.365795 
L 451.572209 767.011102 
L 450.925714 768.370075 
L 447.634286 769.507846 
L 446.684681 770.302995 
L 444.342857 770.833152 
L 441.051429 771.50023 
L 437.948684 773.594888 
L 437.76 773.678308 
L 436.913301 773.594888 
L 434.468571 772.821268 
L 433.261693 773.594888 
L 431.177143 774.872771 
L 427.885714 775.058304 
L 427.239647 773.594888 
L 424.594286 770.949154 
L 421.302857 771.01758 
L 418.725912 773.594888 
L 418.784209 776.886781 
L 418.011429 777.229264 
L 417.784904 776.886781 
L 414.72 774.309473 
L 412.143055 776.886781 
L 411.428571 777.913893 
L 408.137143 778.477356 
L 406.031822 780.178675 
L 404.845714 780.649466 
L 401.554286 781.607122 
L 398.740281 783.470568 
L 398.262857 783.682797 
L 394.971429 785.352992 
L 393.918204 785.806895 
M 376.715241 793.595539 
L 375.222857 794.112456 
L 371.931429 795.24403 
L 370.537515 796.63814 
L 368.64 797.50397 
L 365.470737 799.930033 
L 365.348571 800.012044 
L 362.057143 801.363342 
L 359.703459 803.221927 
L 358.765714 803.690934 
L 355.474286 804.529799 
L 353.50145 806.51382 
L 352.182857 807.57199 
L 348.891429 808.001213 
L 347.121378 809.805713 
L 345.6 810.62746 
L 342.308571 812.162741 
L 341.404569 813.097606 
L 339.017143 813.96197 
L 336.360079 816.389499 
L 335.725714 816.836979 
L 332.434286 818.116623 
L 330.861397 819.681392 
M 460.8 767.555312 
L 460.511752 767.011102 
L 460.8 766.722813 
L 461.970856 767.011102 
L 460.8 767.555312 
z
" clip-path="url(#p726a456cb8)" style="fill: none"/>
    <path d="M 576 747.53375 
L 572.708571 748.609553 
L 569.417143 748.847274 
L 566.125714 748.785323 
L 562.834286 748.928295 
L 559.542857 749.329517 
L 556.992413 750.551636 
L 556.251429 750.857051 
L 552.96 751.49627 
L 549.668571 752.230385 
L 546.883261 753.843529 
L 546.377143 754.052175 
L 544.706567 753.843529 
L 543.085714 753.517429 
L 539.794286 753.019801 
L 538.562728 750.551636 
L 536.502857 748.471857 
L 534.423371 750.551636 
L 534.290037 753.843529 
L 533.211429 754.312812 
L 529.92 754.982343 
L 526.628571 755.268574 
L 523.337143 755.314206 
L 520.045714 755.756389 
L 517.535942 757.135423 
L 516.754286 757.516619 
L 513.462857 758.014824 
L 510.171429 759.135903 
L 506.957661 760.427316 
L 506.88 760.447848 
L 506.722877 760.427316 
L 503.588571 759.846028 
L 502.375056 757.135423 
L 500.297143 755.008706 
L 498.170726 757.135423 
L 497.242567 760.427316 
L 497.005714 760.578169 
L 493.714286 761.612449 
L 492.94039 760.427316 
L 490.422857 758.300599 
L 488.29644 760.427316 
L 487.131429 761.932821 
L 483.84 762.408172 
L 481.162728 763.719209 
L 480.548571 763.972115 
L 477.257143 764.708069 
L 473.965714 766.016455 
L 471.374639 767.011102 
L 470.674286 767.209589 
L 469.017652 767.011102 
L 467.382857 766.670289 
L 465.456242 767.011102 
L 464.091429 767.566626 
L 460.8 768.741995 
L 459.88321 767.011102 
L 460.8 766.094182 
L 462.926062 763.719209 
L 460.8 761.627544 
L 458.70863 763.719209 
L 457.508571 764.919437 
L 454.217143 764.919437 
L 452.125773 767.011102 
L 450.925714 769.533701 
L 449.237801 770.302995 
L 447.634286 770.822007 
L 444.342857 771.411144 
L 441.051429 772.525368 
L 439.467185 773.594888 
L 437.76 774.349658 
L 434.468571 774.89421 
L 431.253467 776.886781 
L 431.177143 776.907101 
L 431.017919 776.886781 
L 427.885714 776.31136 
L 426.686449 773.594888 
L 424.594286 771.502429 
L 421.302857 771.556546 
L 419.264803 773.594888 
L 420.970725 776.886781 
L 418.011429 778.19829 
L 417.143971 776.886781 
L 414.72 774.84844 
L 412.681946 776.886781 
L 411.428571 778.688578 
L 408.137143 779.677026 
L 407.516371 780.178675 
L 404.845714 781.238714 
L 401.554286 782.68451 
L 400.367254 783.470568 
L 398.262857 784.406035 
L 394.97876 786.762461 
L 394.971429 786.768715 
L 391.68 787.70156 
L 388.388571 789.164558 
L 386.594732 790.054354 
L 385.097143 791.000056 
L 381.805714 791.757545 
L 379.094767 793.346247 
L 378.514286 793.802864 
L 375.222857 794.770834 
L 372.091607 796.63814 
L 371.931429 796.757981 
L 370.186186 797.54802 
M 353.775553 807.190628 
L 352.182857 808.468766 
L 348.891429 809.276238 
L 348.372062 809.805713 
L 345.6 811.302996 
L 342.862291 813.097606 
L 342.308571 813.548904 
L 339.017143 814.669338 
L 337.134333 816.389499 
L 335.725714 817.383136 
L 332.434286 819.597151 
L 332.349607 819.681392 
" clip-path="url(#p726a456cb8)" style="fill: none"/>
    <path d="M 576 748.838467 
L 572.708571 749.863956 
L 569.417143 749.664703 
L 566.125714 749.459014 
L 562.834286 749.665123 
L 559.542857 750.243522 
L 558.899853 750.551636 
L 556.251429 751.643248 
L 552.96 752.19359 
L 549.668571 753.372592 
L 548.855434 753.843529 
L 546.377143 754.865195 
L 543.085714 754.677594 
L 539.794286 755.440345 
L 536.502857 755.538197 
L 533.211429 755.836368 
L 529.92 755.894891 
L 526.628571 755.91991 
L 523.337143 755.980447 
L 520.045714 756.622947 
L 519.113034 757.135423 
L 516.754286 758.285732 
L 513.462857 758.800896 
L 510.199783 760.427316 
L 510.171429 760.448463 
L 506.88 761.313066 
L 503.588571 761.300084 
L 500.297143 761.373161 
L 497.005714 762.581401 
L 493.714286 762.63243 
L 492.274339 760.427316 
L 490.422857 758.863253 
L 488.859016 760.427316 
L 487.131429 762.659818 
L 483.84 763.364712 
L 483.11608 763.719209 
L 480.548571 764.776494 
L 477.257143 765.45777 
L 474.122129 767.011102 
L 473.965714 767.12927 
L 470.674286 768.028589 
L 467.382857 768.351538 
L 464.519249 770.302995 
L 464.091429 770.488218 
L 462.958843 770.302995 
L 460.8 769.928678 
L 459.254668 767.011102 
L 457.508571 765.473079 
L 454.217143 765.473079 
L 452.679337 767.011102 
L 451.790922 770.302995 
L 450.925714 770.80721 
L 447.634286 771.648379 
L 444.342857 771.989136 
L 441.051429 773.550506 
L 440.985686 773.594888 
L 437.76 775.021008 
L 434.488174 776.886781 
L 434.468571 776.906364 
L 431.177143 777.777544 
L 427.974638 780.178675 
L 427.885714 780.266748 
L 426.250392 780.178675 
L 424.594286 778.277626 
L 421.302857 778.869227 
L 418.011429 779.167316 
L 416.503039 776.886781 
L 414.72 775.387406 
L 413.220836 776.886781 
L 411.428571 779.463264 
L 409.409356 780.178675 
L 408.137143 780.775362 
L 406.936996 781.15917 
M 389.855054 789.493481 
L 388.663134 790.054354 
L 388.388571 790.207816 
L 385.097143 792.314874 
L 381.805714 792.544681 
L 380.437929 793.346247 
L 378.514286 794.859417 
L 375.222857 795.429212 
L 373.195629 796.63814 
L 371.931429 797.583972 
L 368.64 798.99193 
L 367.414518 799.930033 
L 365.348571 801.316912 
L 362.53088 803.221927 
L 362.057143 803.686067 
L 358.765714 805.25106 
L 355.890854 806.51382 
L 355.474286 806.750657 
L 352.182857 809.365542 
L 350.680813 809.805713 
L 348.891429 810.557211 
L 345.6 811.978532 
L 343.892833 813.097606 
L 342.308571 814.388827 
L 339.017143 815.376707 
L 337.908586 816.389499 
L 335.725714 817.929293 
L 333.182066 819.681392 
M 421.302857 776.117685 
L 424.594286 776.82097 
L 426.133251 773.594888 
L 424.594286 772.055705 
L 421.302857 772.095513 
L 419.803693 773.594888 
L 421.302857 776.117685 
z
M 460.8 765.465552 
L 462.363315 763.719209 
L 460.8 762.181186 
L 459.262194 763.719209 
L 460.8 765.465552 
z
M 500.297143 760.393525 
L 501.825313 757.135423 
L 500.297143 755.57136 
L 498.733301 757.135423 
L 500.297143 760.393525 
z
M 536.502857 753.459551 
L 538.018877 750.551636 
L 536.502857 749.020965 
L 534.972402 750.551636 
L 536.502857 753.459551 
z
" clip-path="url(#p726a456cb8)" style="fill: none"/>
    <path d="M 576 750.143184 
L 574.652786 750.551636 
L 572.708571 751.20502 
L 569.93849 750.551636 
L 569.417143 750.482131 
L 566.125714 750.132705 
L 562.834286 750.40195 
L 562.062211 750.551636 
L 559.542857 751.449493 
L 556.251429 752.429445 
L 552.96 752.890909 
L 550.658614 753.843529 
L 549.668571 754.656668 
L 546.377143 755.678215 
L 543.085714 755.788185 
L 541.042135 757.135423 
L 539.794286 758.100339 
L 536.502857 758.017426 
L 533.211429 757.537173 
L 532.254376 757.135423 
L 529.92 756.807439 
L 526.628571 756.571246 
L 523.337143 756.646688 
L 521.223204 757.135423 
L 520.045714 757.749453 
L 516.754286 759.054845 
L 513.462857 759.586968 
L 511.776874 760.427316 
L 510.171429 761.624713 
L 506.88 762.178285 
L 503.588571 762.957389 
L 502.498655 763.719209 
L 500.297143 764.848648 
L 497.005714 764.363166 
L 494.147555 763.719209 
L 493.714286 763.652411 
L 491.608289 760.427316 
L 490.422857 759.425908 
L 489.421591 760.427316 
L 487.131429 763.386814 
L 485.746488 763.719209 
L 483.84 764.62516 
L 482.792626 764.92928 
M 464.91789 771.249685 
L 464.091429 771.607497 
L 460.8 771.42792 
L 457.715824 773.594888 
L 457.508571 773.751489 
L 456.901942 773.594888 
L 454.217143 770.673265 
L 450.925714 772.295086 
L 447.634286 772.474752 
L 444.342857 772.567128 
L 442.202831 773.594888 
L 441.051429 774.746426 
L 437.76 775.692359 
L 435.665456 776.886781 
L 434.468571 778.082451 
L 431.177143 778.647988 
L 429.135591 780.178675 
L 427.885714 781.416598 
L 424.594286 781.337219 
L 421.799957 783.470568 
L 421.302857 783.946658 
L 419.233648 783.470568 
L 418.308825 780.178675 
L 418.011429 780.136341 
L 415.862106 776.886781 
L 414.72 775.926373 
L 413.759727 776.886781 
L 411.845366 780.178675 
L 411.428571 780.385025 
L 408.137143 781.800873 
L 404.845714 782.417211 
L 402.921651 783.470568 
L 401.554286 784.8329 
L 398.262857 785.852512 
L 396.994681 786.762461 
L 394.971429 788.488347 
L 391.68 789.567901 
L 390.64623 790.054354 
L 388.388571 791.316233 
L 385.443771 793.346247 
L 385.097143 793.689036 
L 382.063677 793.346247 
L 381.805714 793.331817 
L 381.781091 793.346247 
L 378.514286 795.915971 
L 375.222857 796.08759 
L 374.29965 796.63814 
L 371.931429 798.409963 
L 368.64 799.735909 
L 368.386408 799.930033 
L 365.348571 801.969345 
L 363.495889 803.221927 
L 362.057143 804.631527 
L 358.765714 806.031122 
L 357.666782 806.51382 
L 355.474286 807.760349 
L 352.843979 809.805713 
L 352.182857 810.443643 
L 348.891429 811.842407 
L 345.6 812.654068 
L 344.923375 813.097606 
L 342.308571 815.228749 
L 339.017143 816.084075 
L 338.68284 816.389499 
L 335.725714 818.47545 
L 333.974961 819.681392 
M 421.302857 775.210839 
L 424.594286 775.66132 
L 425.580054 773.594888 
L 424.594286 772.608981 
L 421.302857 772.63448 
L 420.342584 773.594888 
L 421.302857 775.210839 
z
M 454.217143 770.213474 
L 457.508571 769.966146 
L 458.626126 767.011102 
L 457.508571 766.026721 
L 454.217143 766.026721 
L 453.232901 767.011102 
L 454.217143 770.213474 
z
M 460.8 764.836921 
L 461.800569 763.719209 
L 460.8 762.734828 
L 459.815758 763.719209 
L 460.8 764.836921 
z
M 500.297143 759.221458 
L 501.27557 757.135423 
L 500.297143 756.134015 
L 499.295876 757.135423 
L 500.297143 759.221458 
z
M 536.502857 752.416375 
L 537.475025 750.551636 
L 536.502857 749.570073 
L 535.521432 750.551636 
L 536.502857 752.416375 
z
" clip-path="url(#p726a456cb8)" style="fill: none"/>
    <path d="M 576 752.044284 
L 572.708571 752.651243 
L 569.417143 752.290538 
L 566.125714 751.599453 
L 562.834286 753.104392 
L 559.542857 752.803939 
L 556.251429 753.215642 
L 552.96 753.588229 
L 552.343233 753.843529 
L 549.668571 756.040273 
L 546.377143 756.491236 
L 543.085714 756.898777 
L 542.726754 757.135423 
L 539.794286 759.402994 
L 536.502857 759.367957 
L 533.211429 760.263608 
L 532.890093 760.427316 
L 529.92 761.797488 
L 526.628571 760.624703 
L 526.306293 760.427316 
L 523.337143 758.348958 
L 520.045714 759.252194 
L 516.754286 759.823958 
L 513.462857 760.373041 
L 513.353966 760.427316 
L 510.171429 762.800963 
L 506.88 763.043503 
L 504.93456 763.719209 
L 503.588571 765.069619 
L 500.297143 766.065072 
L 497.005714 765.85376 
L 495.418094 767.011102 
L 493.714286 768.717237 
L 490.422857 768.009907 
L 488.19066 767.011102 
L 487.131429 766.262345 
L 483.84 766.064558 
L 480.548571 766.385253 
L 477.257143 766.957172 
L 477.148298 767.011102 
L 473.965714 769.415471 
L 470.674286 769.666588 
L 469.488859 770.159004 
M 452.384497 776.085473 
L 450.974961 776.886781 
L 450.925714 776.936072 
L 450.845307 776.886781 
L 450.062346 773.594888 
L 447.634286 773.301124 
L 444.342857 773.14512 
L 443.406339 773.594888 
L 441.051429 775.950076 
L 437.76 776.363709 
L 436.842738 776.886781 
L 434.468571 779.258537 
L 431.177143 779.518431 
L 430.296544 780.178675 
L 427.885714 782.566448 
L 424.594286 782.593188 
L 423.445065 783.470568 
L 421.302857 785.522235 
L 418.011429 785.322682 
L 415.508707 786.762461 
L 414.72 787.432156 
L 413.341829 786.762461 
L 412.41079 783.470568 
L 411.428571 783.081886 
L 408.137143 782.826383 
L 404.845714 783.00646 
L 403.997974 783.470568 
L 401.554286 785.905262 
L 398.262857 786.57575 
L 398.002642 786.762461 
L 394.971429 789.348163 
L 392.891993 790.054354 
L 391.68 791.256189 
L 388.388571 792.424651 
L 387.051676 793.346247 
L 385.097143 795.279129 
L 381.805714 795.118662 
L 379.413797 796.63814 
L 378.514286 797.519828 
L 375.222857 797.366811 
L 371.931429 799.235954 
L 370.180238 799.930033 
L 368.64 801.409127 
L 365.348571 802.621779 
L 364.460899 803.221927 
L 362.057143 805.576988 
L 359.680176 806.51382 
L 358.765714 807.392463 
L 355.474286 808.770042 
L 354.142428 809.805713 
L 352.182857 811.696543 
L 348.958723 813.097606 
L 348.891429 813.161025 
L 345.6 813.864053 
L 342.308571 816.068672 
L 340.985441 816.389499 
L 339.017143 817.505838 
L 335.725714 819.021607 
L 334.767856 819.681392 
M 414.72 778.939113 
L 415.221174 776.886781 
L 414.72 776.465339 
L 414.298617 776.886781 
L 414.72 778.939113 
z
M 421.302857 774.303992 
L 424.594286 774.50167 
L 425.026856 773.594888 
L 424.594286 773.162257 
L 421.302857 773.173446 
L 420.881475 773.594888 
L 421.302857 774.303992 
z
M 454.217143 768.412375 
L 457.508571 768.304151 
L 457.997584 767.011102 
L 457.508571 766.580363 
L 454.217143 766.580363 
L 453.786464 767.011102 
L 454.217143 768.412375 
z
M 460.8 764.20829 
L 461.237823 763.719209 
L 460.8 763.28847 
L 460.369322 763.719209 
L 460.8 764.20829 
z
M 490.422857 762.537438 
L 490.942238 760.427316 
L 490.422857 759.988563 
L 489.984166 760.427316 
L 490.422857 762.537438 
z
M 500.297143 758.049391 
L 500.725828 757.135423 
L 500.297143 756.696669 
L 499.858452 757.135423 
L 500.297143 758.049391 
z
M 536.502857 751.3732 
L 536.931173 750.551636 
L 536.502857 750.119181 
L 536.070463 750.551636 
L 536.502857 751.3732 
z
" clip-path="url(#p726a456cb8)" style="fill: none"/>
    <path d="M 576 773.780843 
L 572.708571 774.525557 
L 569.417143 775.320342 
L 566.125714 775.867589 
L 562.834286 776.68626 
L 560.500141 776.886781 
L 559.542857 776.941121 
L 556.251429 777.42351 
L 552.96 777.430253 
L 549.668571 777.976372 
L 546.377143 778.826796 
L 543.085714 778.801825 
L 539.900289 780.178675 
L 539.794286 780.213932 
L 536.502857 780.846005 
L 533.211429 781.352542 
L 529.92 782.447682 
L 526.700912 783.470568 
L 526.628571 783.485695 
L 523.337143 783.793992 
L 520.045714 783.97768 
L 516.754286 784.572341 
L 513.462857 784.540662 
L 510.171429 785.455967 
L 506.88 785.979682 
L 503.588571 786.351783 
L 502.745413 786.762461 
L 500.297143 787.623697 
L 497.005714 787.837992 
L 493.714286 788.874671 
L 490.853628 790.054354 
L 490.422857 790.173835 
L 487.131429 790.603039 
L 486.716775 790.632013 
M 467.86535 792.915857 
L 467.382857 792.945982 
L 466.562934 793.346247 
L 464.091429 794.230565 
L 460.8 794.3449 
L 457.508571 795.433924 
L 454.217143 796.474513 
L 453.656881 796.63814 
L 450.925714 797.134604 
L 447.634286 796.952853 
L 444.342857 797.563688 
L 441.051429 797.59838 
L 437.76 797.887822 
L 434.468571 798.23562 
L 431.177143 798.769786 
L 427.885714 799.662021 
L 426.752956 799.930033 
L 424.594286 800.28123 
L 421.302857 801.383502 
L 418.011429 802.281922 
L 415.874589 803.221927 
L 414.72 803.618393 
L 411.929546 803.221927 
L 411.428571 803.148467 
L 408.137143 801.090692 
L 404.845714 801.785273 
L 401.554286 800.531414 
L 398.262857 801.534665 
L 394.971429 801.470021 
L 391.68 802.341205 
L 389.393951 803.221927 
L 388.388571 803.515182 
L 385.097143 803.913646 
L 381.805714 805.634486 
L 378.892784 806.51382 
L 378.514286 806.594544 
L 375.222857 807.898733 
L 371.931429 807.476938 
L 368.64 807.337951 
L 365.348571 807.114998 
L 362.057143 806.824698 
L 358.765714 809.697361 
L 355.474286 809.779734 
L 355.440878 809.805713 
L 352.182857 812.949443 
L 351.841903 813.097606 
L 348.891429 815.878139 
L 345.6 816.095802 
L 345.022179 816.389499 
L 342.308571 818.805306 
L 339.017143 819.470446 
L 335.725714 819.567764 
L 335.560752 819.681392 
" clip-path="url(#p726a456cb8)" style="fill: none"/>
    <path d="M 576 785.324892 
L 572.708571 785.83745 
L 569.417143 786.422356 
L 567.60342 786.762461 
L 566.125714 787.067212 
L 562.834286 787.824601 
L 559.542857 788.454794 
L 556.251429 789.270944 
L 553.295825 790.054354 
L 552.96 790.150716 
L 549.668571 790.45583 
L 546.377143 791.3217 
L 543.085714 791.904138 
L 539.794286 792.289986 
L 536.502857 792.944738 
L 534.087606 793.346247 
L 533.211429 793.497626 
L 529.92 794.019474 
L 526.628571 794.514621 
L 523.337143 794.701296 
L 520.045714 796.238199 
L 518.570356 796.63814 
L 516.754286 796.829501 
L 515.987866 796.914781 
M 497.49549 801.108786 
L 497.005714 801.213216 
L 493.714286 801.732869 
L 490.422857 802.114751 
L 487.131429 800.418081 
L 486.209459 799.930033 
L 483.84 799.367281 
L 483.04997 799.930033 
L 480.548571 801.171067 
L 477.257143 801.092422 
L 474.390898 803.221927 
L 473.965714 803.496201 
L 470.674286 803.762122 
L 467.382857 804.284407 
L 464.643118 806.51382 
L 464.091429 806.718852 
L 460.8 806.880469 
L 457.508571 807.616489 
L 454.517745 809.805713 
L 454.217143 809.870431 
L 453.564784 809.805713 
L 450.925714 807.928795 
L 449.21222 806.51382 
L 447.634286 805.117046 
L 445.715983 803.221927 
L 444.342857 802.770289 
L 443.509569 803.221927 
L 441.051429 804.38014 
L 437.76 804.565463 
L 434.979027 806.51382 
L 434.468571 806.858477 
L 431.177143 807.28673 
L 427.885714 809.751609 
L 427.814308 809.805713 
L 424.594286 810.403013 
L 421.302857 812.171637 
L 420.129724 813.097606 
L 418.011429 813.551651 
L 414.72 814.702304 
L 412.452546 813.097606 
L 411.428571 812.159092 
L 408.137143 810.82333 
L 404.845714 810.786332 
L 401.554286 810.52486 
L 398.262857 811.067421 
L 394.971429 811.779266 
L 391.68 812.295641 
L 390.284716 813.097606 
L 388.388571 814.065706 
L 385.097143 814.756822 
L 382.581556 816.389499 
L 381.805714 816.785196 
L 378.514286 817.627282 
L 375.222857 819.128416 
L 373.440194 819.681392 
" clip-path="url(#p726a456cb8)" style="fill: none"/>
    <path d="M 576 799.315136 
L 572.708571 799.292847 
L 570.073074 799.930033 
L 569.417143 800.382173 
L 566.125714 801.247434 
L 562.834286 801.364533 
L 559.542857 801.40941 
L 556.251429 801.529497 
L 552.96 800.388742 
L 551.845696 799.930033 
L 549.668571 799.762725 
L 546.377143 799.784761 
L 546.061381 799.930033 
L 543.085714 801.606733 
L 539.794286 801.947329 
L 536.502857 802.766659 
L 535.578177 803.221927 
L 533.211429 804.164932 
L 529.92 804.803318 
L 526.628571 805.123889 
L 523.337143 806.065131 
L 520.045714 804.145057 
L 518.300881 803.221927 
L 516.754286 802.601559 
L 513.462857 802.182552 
L 510.171429 802.407696 
L 506.88 802.49881 
L 505.525247 803.221927 
L 503.588571 804.352956 
L 500.297143 804.811166 
L 497.005714 805.762444 
L 495.770047 806.51382 
L 493.714286 807.299148 
L 490.422857 807.858637 
L 487.131429 808.764108 
L 483.84 808.353276 
L 481.056156 806.51382 
L 480.548571 806.21463 
L 477.257143 804.298038 
L 473.965714 805.5698 
L 470.674286 805.434346 
L 468.186558 806.51382 
L 467.744656 806.785634 
M 449.747158 812.616225 
L 448.387844 813.097606 
L 447.634286 813.22231 
L 446.790525 813.097606 
L 444.342857 811.034121 
L 442.630154 809.805713 
L 441.051429 808.519637 
L 438.959684 806.51382 
L 437.76 806.297517 
L 437.451262 806.51382 
L 434.468571 808.52772 
L 431.177143 808.482931 
L 429.439092 809.805713 
L 427.885714 810.99428 
L 424.594286 811.537264 
L 422.484199 813.097606 
L 421.302857 813.821466 
L 418.011429 814.645735 
L 415.646956 816.389499 
L 414.72 816.881148 
L 411.428571 817.137683 
L 408.522605 816.389499 
L 408.137143 816.12048 
L 404.845714 814.561799 
L 401.554286 815.750667 
L 398.262857 815.405892 
L 395.651274 816.389499 
L 394.971429 816.599674 
L 391.68 816.776897 
L 388.388571 817.883186 
L 385.097143 818.480396 
L 382.010681 819.681392 
" clip-path="url(#p726a456cb8)" style="fill: none"/>
    <path d="M 404.56166 819.681392 
L 401.554286 818.496625 
L 398.262857 818.532927 
L 394.971429 819.436957 
L 393.929966 819.681392 
M 546.69871 819.681392 
L 546.377143 818.347988 
L 543.085714 816.90717 
L 539.794286 816.550858 
L 536.502857 816.862604 
L 533.211429 817.079718 
L 529.92 816.51059 
L 529.612041 816.389499 
L 526.628571 814.636406 
L 523.337143 813.311567 
L 522.966628 813.097606 
L 520.045714 812.186857 
L 516.754286 811.980935 
L 513.462857 811.94937 
L 510.171429 812.532358 
L 506.88 812.632767 
L 503.588571 811.224861 
L 500.902327 809.805713 
L 500.297143 809.433384 
L 497.005714 809.203754 
L 493.714286 809.201876 
L 491.388488 809.805713 
L 490.422857 810.382138 
L 487.131429 811.469938 
L 483.84 812.00381 
L 481.778084 813.097606 
L 480.548571 813.648657 
L 477.257143 813.424264 
L 475.256187 813.097606 
L 473.965714 812.346946 
L 470.674286 810.264333 
L 469.989348 809.805713 
L 467.382857 809.378634 
L 464.091429 809.29187 
L 462.17013 809.805713 
L 460.8 810.593696 
L 457.508571 811.664436 
L 454.217143 812.323097 
L 452.661414 813.097606 
L 450.925714 814.044555 
L 447.634286 814.644184 
L 444.610658 816.389499 
L 444.342857 816.540178 
L 441.051429 816.471837 
L 440.5972 816.389499 
L 437.76 814.174073 
L 436.054331 813.097606 
L 434.468571 811.911694 
L 432.200921 809.805713 
L 431.177143 809.679132 
L 431.010823 809.805713 
L 427.885714 812.196891 
L 426.768848 812.357943 
" clip-path="url(#p726a456cb8)" style="fill: none"/>
    <path d="M 434.406897 819.681392 
L 431.177143 817.437742 
L 430.264252 816.890011 
M 412.582783 819.481955 
L 412.16779 819.681392 
M 481.505505 815.781427 
L 480.548571 815.781193 
L 477.27494 816.389499 
L 477.257143 816.397509 
L 473.965714 817.698907 
L 470.674286 817.648755 
L 467.382857 817.693688 
L 464.37916 816.389499 
L 464.091429 816.221123 
L 460.8 814.101992 
L 459.45429 813.097606 
L 457.508571 812.92465 
L 456.615261 813.097606 
L 454.217143 814.345675 
L 450.925714 815.388457 
L 447.634286 816.066059 
L 447.073949 816.389499 
L 444.342857 817.926157 
L 441.051429 818.232056 
L 438.572192 819.681392 
" clip-path="url(#p726a456cb8)" style="fill: none"/>
    <path d="M 422.780421 819.681392 
L 421.302857 818.656323 
L 418.011429 818.925997 
L 414.72 819.241706 
L 413.80509 819.681392 
M 451.392359 819.681392 
L 450.925714 819.483092 
L 447.634286 819.22327 
L 444.342857 819.312136 
L 442.363545 819.681392 
" clip-path="url(#p726a456cb8)" style="fill: none"/>
    <path clip-path="url(#p726a456cb8)" style="fill: none"/>
    <path clip-path="url(#p726a456cb8)" style="fill: none"/>
    <path clip-path="url(#p726a456cb8)" style="fill: none"/>
    <path clip-path="url(#p726a456cb8)" style="fill: none"/>
    <path clip-path="url(#p726a456cb8)" style="fill: none"/>
    <path clip-path="url(#p726a456cb8)" style="fill: none"/>
    <path clip-path="url(#p726a456cb8)" style="fill: none"/>
    <path clip-path="url(#p726a456cb8)" style="fill: none"/>
    <path clip-path="url(#p726a456cb8)" style="fill: none"/>
    <path clip-path="url(#p726a456cb8)" style="fill: none"/>
    <path clip-path="url(#p726a456cb8)" style="fill: none"/>
    <path clip-path="url(#p726a456cb8)" style="fill: none"/>
    <path clip-path="url(#p726a456cb8)" style="fill: none"/>
    <path clip-path="url(#p726a456cb8)" style="fill: none"/>
    <path clip-path="url(#p726a456cb8)" style="fill: none"/>
    <path clip-path="url(#p726a456cb8)" style="fill: none"/>
    <path clip-path="url(#p726a456cb8)" style="fill: none"/>
    <path clip-path="url(#p726a456cb8)" style="fill: none"/>
    <path clip-path="url(#p726a456cb8)" style="fill: none"/>
    <path clip-path="url(#p726a456cb8)" style="fill: none"/>
    <path clip-path="url(#p726a456cb8)" style="fill: none"/>
    <path clip-path="url(#p726a456cb8)" style="fill: none"/>
    <path clip-path="url(#p726a456cb8)" style="fill: none"/>
    <path clip-path="url(#p726a456cb8)" style="fill: none"/>
    <path clip-path="url(#p726a456cb8)" style="fill: none"/>
    <path clip-path="url(#p726a456cb8)" style="fill: none"/>
    <path clip-path="url(#p726a456cb8)" style="fill: none"/>
    <path clip-path="url(#p726a456cb8)" style="fill: none"/>
   </g>
   <g id="text_1">
    <g clip-path="url(#p726a456cb8)">
     <!-- 0 -->
     <g style="opacity: 0" transform="translate(382.865609 793.948676) rotate(-22.857098) scale(0.12 -0.12)">
      <defs>
       <path id="DejaVuSans-30" d="M 2034 4250 
Q 1547 4250 1301 3770 
Q 1056 3291 1056 2328 
Q 1056 1369 1301 889 
Q 1547 409 2034 409 
Q 2525 409 2770 889 
Q 3016 1369 3016 2328 
Q 3016 3291 2770 3770 
Q 2525 4250 2034 4250 
z
M 2034 4750 
Q 2819 4750 3233 4129 
Q 3647 3509 3647 2328 
Q 3647 1150 3233 529 
Q 2819 -91 2034 -91 
Q 1250 -91 836 529 
Q 422 1150 422 2328 
Q 422 3509 836 4129 
Q 1250 4750 2034 4750 
z
" transform="scale(0.015625)"/>
      </defs>
      <use xlink:href="#DejaVuSans-30"/>
     </g>
    </g>
   </g>
   <g id="text_2">
    <g clip-path="url(#p726a456cb8)">
     <!-- 1 -->
     <g style="opacity: 0" transform="translate(360.335081 807.345958) rotate(-29.138422) scale(0.12 -0.12)">
      <defs>
       <path id="DejaVuSans-31" d="M 794 531 
L 1825 531 
L 1825 4091 
L 703 3866 
L 703 4441 
L 1819 4666 
L 2450 4666 
L 2450 531 
L 3481 531 
L 3481 0 
L 794 0 
L 794 531 
z
" transform="scale(0.015625)"/>
      </defs>
      <use xlink:href="#DejaVuSans-31"/>
     </g>
    </g>
   </g>
   <g id="text_3">
    <g clip-path="url(#p726a456cb8)">
     <!-- 2 -->
     <g style="opacity: 0" transform="translate(396.579574 789.89417) rotate(-29.60539) scale(0.12 -0.12)">
      <defs>
       <path id="DejaVuSans-32" d="M 1228 531 
L 3431 531 
L 3431 0 
L 469 0 
L 469 531 
Q 828 903 1448 1529 
Q 2069 2156 2228 2338 
Q 2531 2678 2651 2914 
Q 2772 3150 2772 3378 
Q 2772 3750 2511 3984 
Q 2250 4219 1831 4219 
Q 1534 4219 1204 4116 
Q 875 4013 500 3803 
L 500 4441 
Q 881 4594 1212 4672 
Q 1544 4750 1819 4750 
Q 2544 4750 2975 4387 
Q 3406 4025 3406 3419 
Q 3406 3131 3298 2873 
Q 3191 2616 2906 2266 
Q 2828 2175 2409 1742 
Q 1991 1309 1228 531 
z
" transform="scale(0.015625)"/>
      </defs>
      <use xlink:href="#DejaVuSans-32"/>
     </g>
    </g>
   </g>
   <g id="text_4">
    <g clip-path="url(#p726a456cb8)">
     <!-- 3 -->
     <g style="opacity: 0" transform="translate(471.543269 772.707395) rotate(-20.418341) scale(0.12 -0.12)">
      <defs>
       <path id="DejaVuSans-33" d="M 2597 2516 
Q 3050 2419 3304 2112 
Q 3559 1806 3559 1356 
Q 3559 666 3084 287 
Q 2609 -91 1734 -91 
Q 1441 -91 1130 -33 
Q 819 25 488 141 
L 488 750 
Q 750 597 1062 519 
Q 1375 441 1716 441 
Q 2309 441 2620 675 
Q 2931 909 2931 1356 
Q 2931 1769 2642 2001 
Q 2353 2234 1838 2234 
L 1294 2234 
L 1294 2753 
L 1863 2753 
Q 2328 2753 2575 2939 
Q 2822 3125 2822 3475 
Q 2822 3834 2567 4026 
Q 2313 4219 1838 4219 
Q 1578 4219 1281 4162 
Q 984 4106 628 3988 
L 628 4550 
Q 988 4650 1302 4700 
Q 1616 4750 1894 4750 
Q 2613 4750 3031 4423 
Q 3450 4097 3450 3541 
Q 3450 3153 3228 2886 
Q 3006 2619 2597 2516 
z
" transform="scale(0.015625)"/>
      </defs>
      <use xlink:href="#DejaVuSans-33"/>
     </g>
    </g>
   </g>
   <g id="text_5">
    <g clip-path="url(#p726a456cb8)">
     <!-- 4 -->
     <g style="opacity: 0" transform="translate(458.227226 777.420724) rotate(-18.457552) scale(0.12 -0.12)">
      <defs>
       <path id="DejaVuSans-34" d="M 2419 4116 
L 825 1625 
L 2419 1625 
L 2419 4116 
z
M 2253 4666 
L 3047 4666 
L 3047 1625 
L 3713 1625 
L 3713 1100 
L 3047 1100 
L 3047 0 
L 2419 0 
L 2419 1100 
L 313 1100 
L 313 1709 
L 2253 4666 
z
" transform="scale(0.015625)"/>
      </defs>
      <use xlink:href="#DejaVuSans-34"/>
     </g>
    </g>
   </g>
   <g id="text_6">
    <g clip-path="url(#p726a456cb8)">
     <!-- 5 -->
     <g style="opacity: 0" transform="translate(473.881229 795.202587) rotate(-7.1463) scale(0.12 -0.12)">
      <defs>
       <path id="DejaVuSans-35" d="M 691 4666 
L 3169 4666 
L 3169 4134 
L 1269 4134 
L 1269 2991 
Q 1406 3038 1543 3061 
Q 1681 3084 1819 3084 
Q 2600 3084 3056 2656 
Q 3513 2228 3513 1497 
Q 3513 744 3044 326 
Q 2575 -91 1722 -91 
Q 1428 -91 1123 -41 
Q 819 9 494 109 
L 494 744 
Q 775 591 1075 516 
Q 1375 441 1709 441 
Q 2250 441 2565 725 
Q 2881 1009 2881 1497 
Q 2881 1984 2565 2268 
Q 2250 2553 1709 2553 
Q 1456 2553 1204 2497 
Q 953 2441 691 2322 
L 691 4666 
z
" transform="scale(0.015625)"/>
      </defs>
      <use xlink:href="#DejaVuSans-35"/>
     </g>
    </g>
   </g>
   <g id="text_7">
    <g clip-path="url(#p726a456cb8)">
     <!-- 6 -->
     <g style="opacity: 0" transform="translate(503.913297 803.607037) rotate(-13.113317) scale(0.12 -0.12)">
      <defs>
       <path id="DejaVuSans-36" d="M 2113 2584 
Q 1688 2584 1439 2293 
Q 1191 2003 1191 1497 
Q 1191 994 1439 701 
Q 1688 409 2113 409 
Q 2538 409 2786 701 
Q 3034 994 3034 1497 
Q 3034 2003 2786 2293 
Q 2538 2584 2113 2584 
z
M 3366 4563 
L 3366 3988 
Q 3128 4100 2886 4159 
Q 2644 4219 2406 4219 
Q 1781 4219 1451 3797 
Q 1122 3375 1075 2522 
Q 1259 2794 1537 2939 
Q 1816 3084 2150 3084 
Q 2853 3084 3261 2657 
Q 3669 2231 3669 1497 
Q 3669 778 3244 343 
Q 2819 -91 2113 -91 
Q 1303 -91 875 529 
Q 447 1150 447 2328 
Q 447 3434 972 4092 
Q 1497 4750 2381 4750 
Q 2619 4750 2861 4703 
Q 3103 4656 3366 4563 
z
" transform="scale(0.015625)"/>
      </defs>
      <use xlink:href="#DejaVuSans-36"/>
     </g>
    </g>
   </g>
   <g id="text_8">
    <g clip-path="url(#p726a456cb8)">
     <!-- 7 -->
     <g style="opacity: 0" transform="translate(456.205758 814.129207) rotate(-17.882332) scale(0.12 -0.12)">
      <defs>
       <path id="DejaVuSans-37" d="M 525 4666 
L 3525 4666 
L 3525 4397 
L 1831 0 
L 1172 0 
L 2766 4134 
L 525 4134 
L 525 4666 
z
" transform="scale(0.015625)"/>
      </defs>
      <use xlink:href="#DejaVuSans-37"/>
     </g>
    </g>
   </g>
   <g id="text_9">
    <g clip-path="url(#p726a456cb8)">
     <!-- 8 -->
     <g style="opacity: 0" transform="translate(415.891939 820.32735) rotate(-24.2646) scale(0.12 -0.12)">
      <defs>
       <path id="DejaVuSans-38" d="M 2034 2216 
Q 1584 2216 1326 1975 
Q 1069 1734 1069 1313 
Q 1069 891 1326 650 
Q 1584 409 2034 409 
Q 2484 409 2743 651 
Q 3003 894 3003 1313 
Q 3003 1734 2745 1975 
Q 2488 2216 2034 2216 
z
M 1403 2484 
Q 997 2584 770 2862 
Q 544 3141 544 3541 
Q 544 4100 942 4425 
Q 1341 4750 2034 4750 
Q 2731 4750 3128 4425 
Q 3525 4100 3525 3541 
Q 3525 3141 3298 2862 
Q 3072 2584 2669 2484 
Q 3125 2378 3379 2068 
Q 3634 1759 3634 1313 
Q 3634 634 3220 271 
Q 2806 -91 2034 -91 
Q 1263 -91 848 271 
Q 434 634 434 1313 
Q 434 1759 690 2068 
Q 947 2378 1403 2484 
z
M 1172 3481 
Q 1172 3119 1398 2916 
Q 1625 2713 2034 2713 
Q 2441 2713 2670 2916 
Q 2900 3119 2900 3481 
Q 2900 3844 2670 4047 
Q 2441 4250 2034 4250 
Q 1625 4250 1398 4047 
Q 1172 3844 1172 3481 
z
" transform="scale(0.015625)"/>
      </defs>
      <use xlink:href="#DejaVuSans-38"/>
     </g>
    </g>
   </g>
   <g id="text_10">
    <g clip-path="url(#p726a456cb8)">
     <!-- 9 -->
     <g style="opacity: 0" transform="translate(418.449671 819.872183) rotate(-14.687666) scale(0.12 -0.12)">
      <defs>
       <path id="DejaVuSans-39" d="M 703 97 
L 703 672 
Q 941 559 1184 500 
Q 1428 441 1663 441 
Q 2288 441 2617 861 
Q 2947 1281 2994 2138 
Q 2813 1869 2534 1725 
Q 2256 1581 1919 1581 
Q 1219 1581 811 2004 
Q 403 2428 403 3163 
Q 403 3881 828 4315 
Q 1253 4750 1959 4750 
Q 2769 4750 3195 4129 
Q 3622 3509 3622 2328 
Q 3622 1225 3098 567 
Q 2575 -91 1691 -91 
Q 1453 -91 1209 -44 
Q 966 3 703 97 
z
M 1959 2075 
Q 2384 2075 2632 2365 
Q 2881 2656 2881 3163 
Q 2881 3666 2632 3958 
Q 2384 4250 1959 4250 
Q 1534 4250 1286 3958 
Q 1038 3666 1038 3163 
Q 1038 2656 1286 2365 
Q 1534 2075 1959 2075 
z
" transform="scale(0.015625)"/>
      </defs>
      <use xlink:href="#DejaVuSans-39"/>
     </g>
    </g>
   </g>
   <g id="text_11">
    <g clip-path="url(#p726a456cb8)">
     <!-- 9 -->
     <g style="opacity: 0" transform="translate(485.526309 819.696799) rotate(-333.378378) scale(0.12 -0.12)">
      <use xlink:href="#DejaVuSans-39"/>
     </g>
    </g>
   </g>
  </g>
 </g>
 <defs>
  <clipPath id="p726a456cb8">
   <rect x="0" y="0" width="576" height="819.681392"/>
  </clipPath>
 </defs>
</svg>
