<?xml version="1.0" encoding="utf-8" standalone="no"?>
<!DOCTYPE svg PUBLIC "-//W3C//DTD SVG 1.1//EN"
  "http://www.w3.org/Graphics/SVG/1.1/DTD/svg11.dtd">
<svg xmlns:xlink="http://www.w3.org/1999/xlink" width="576pt" height="816.943023pt" viewBox="0 0 576 816.943023" xmlns="http://www.w3.org/2000/svg" version="1.1">
 <metadata>
  <rdf:RDF xmlns:dc="http://purl.org/dc/elements/1.1/" xmlns:cc="http://creativecommons.org/ns#" xmlns:rdf="http://www.w3.org/1999/02/22-rdf-syntax-ns#">
   <cc:Work>
    <dc:type rdf:resource="http://purl.org/dc/dcmitype/StillImage"/>
    <dc:date>2025-07-25T22:45:53.060018</dc:date>
    <dc:format>image/svg+xml</dc:format>
    <dc:creator>
     <cc:Agent>
      <dc:title>Matplotlib v3.10.3, https://matplotlib.org/</dc:title>
     </cc:Agent>
    </dc:creator>
   </cc:Work>
  </rdf:RDF>
 </metadata>
 <defs>
  <style type="text/css">*{stroke-linejoin: round; stroke-linecap: butt}</style>
 </defs>
 <g id="figure_1">
  <g id="patch_1">
   <path d="M 0 816.943023 
L 576 816.943023 
L 576 0 
L 0 0 
L 0 816.943023 
z
" style="fill: none; opacity: 0"/>
  </g>
  <g id="axes_1">
   <g id="QuadContourSet_1">
    <path d="M 166.909091 814.404602 
L 170.181818 815.353844 
L 173.454545 815.511368 
L 176.727273 816.347613 
L 178.040664 816.943023 
L 180 816.943023 
L 180.469524 816.943023 
L 180 816.554456 
L 176.727273 815.246517 
L 173.454545 814.753148 
L 170.181818 814.387511 
L 168.358582 813.662128 
L 166.909091 812.698948 
L 163.636364 812.108093 
L 160.363636 812.091919 
L 157.090909 810.694237 
L 155.212358 810.381232 
L 153.818182 809.882103 
L 150.545455 808.384962 
L 147.272727 807.922183 
L 144.237745 807.100336 
L 144 806.885083 
L 140.727273 805.430273 
L 137.454545 804.911861 
L 134.181818 804.56087 
L 132.121783 803.819441 
L 130.909091 802.955502 
L 127.636364 802.186529 
L 124.363636 802.071934 
L 121.090909 800.943606 
L 118.980941 800.538545 
L 117.818182 800.046921 
L 114.545455 798.679565 
L 111.272727 798.255498 
L 108 797.379587 
L 107.593067 797.257649 
L 104.727273 795.824143 
L 101.454545 795.209195 
L 98.181818 794.965155 
L 95.494462 793.976753 
L 94.909091 793.522991 
L 91.636364 792.527958 
L 88.363636 792.607886 
L 85.090909 791.309526 
L 81.818182 790.722157 
L 81.750772 790.695858 
L 78.545455 788.855687 
L 75.272727 788.401576 
L 72 787.585778 
L 71.36869 787.414962 
L 68.727273 786.016797 
L 65.454545 785.366215 
L 62.181818 784.958925 
L 59.193494 784.134066 
L 58.909091 783.882285 
L 55.636364 782.469467 
L 52.363636 782.007763 
L 49.090909 781.462974 
L 46.829752 780.853171 
L 45.818182 780.153641 
L 42.545455 779.147575 
L 39.272727 778.75707 
L 36 778.431774 
L 32.727273 777.84057 
L 31.48498 777.572275 
L 29.454545 776.668422 
L 26.181818 775.937481 
L 22.909091 775.674558 
L 19.636364 775.862987 
L 16.363636 774.978316 
L 13.702553 774.291379 
L 13.090909 774.014026 
L 9.818182 773.637156 
L 6.545455 772.464585 
L 3.272727 772.081066 
L -0 771.911034 
L -0 772.633105 
L 3.272727 772.876099 
L 6.545455 773.544427 
L 8.214535 774.291379 
L 9.818182 774.784691 
L 13.090909 775.168647 
L 16.363636 776.248076 
L 19.636364 777.030091 
L 22.909091 776.701732 
L 26.181818 777.14177 
L 27.578347 777.572275 
L 29.454545 778.162865 
L 32.727273 778.684275 
L 36 779.175458 
L 39.272727 779.623867 
L 42.545455 780.300065 
L 43.96108 780.853171 
L 45.818182 781.326303 
L 49.090909 782.199474 
L 52.363636 782.852464 
L 55.636364 783.65195 
L 56.667458 784.134066 
L 58.909091 784.773157 
L 62.181818 785.649884 
L 65.454545 786.233371 
L 68.727273 787.341816 
L 68.86546 787.414962 
L 72 788.263084 
L 75.272727 789.09593 
L 78.545455 789.869633 
L 79.984621 790.695858 
L 81.818182 791.411206 
L 85.090909 792.238779 
L 88.363636 793.953524 
L 91.636364 793.817344 
L 92.088156 793.976753 
L 94.909091 795.349739 
L 98.181818 795.909199 
L 101.454545 796.065731 
L 104.727273 797.108063 
L 105.026318 797.257649 
L 108 798.148719 
L 111.272727 798.951548 
L 114.545455 799.667785 
L 116.317297 800.538545 
L 117.818182 801.06617 
L 121.090909 801.823789 
L 124.363636 803.137628 
L 127.636364 803.331865 
L 129.165046 803.819441 
L 130.909091 804.453872 
L 134.181818 805.409489 
L 137.454545 805.672579 
L 140.727273 806.551992 
L 141.879891 807.100336 
L 144 807.745331 
L 147.272727 808.560669 
L 150.545455 809.279525 
L 152.587388 810.381232 
L 153.818182 810.867535 
L 157.090909 811.595781 
L 160.363636 813.283173 
L 163.636364 813.310611 
L 165.011808 813.662128 
z
" clip-path="url(#pafecd3ef20)" style="fill: #f5f9fe; fill-opacity: 0.9"/>
    <path d="M 160.363636 814.178558 
L 163.636364 814.420863 
L 166.909091 816.245958 
L 170.181818 816.320177 
L 173.454545 816.269589 
L 175.611804 816.943023 
L 176.727273 816.943023 
L 178.040664 816.943023 
L 176.727273 816.347613 
L 173.454545 815.511368 
L 170.181818 815.353844 
L 166.909091 814.404602 
L 165.011808 813.662128 
L 163.636364 813.310611 
L 160.363636 813.283173 
L 157.090909 811.595781 
L 153.818182 810.867535 
L 152.587388 810.381232 
L 150.545455 809.279525 
L 147.272727 808.560669 
L 144 807.745331 
L 141.879891 807.100336 
L 140.727273 806.551992 
L 137.454545 805.672579 
L 134.181818 805.409489 
L 130.909091 804.453872 
L 129.165046 803.819441 
L 127.636364 803.331865 
L 124.363636 803.137628 
L 121.090909 801.823789 
L 117.818182 801.06617 
L 116.317297 800.538545 
L 114.545455 799.667785 
L 111.272727 798.951548 
L 108 798.148719 
L 105.026318 797.257649 
L 104.727273 797.108063 
L 101.454545 796.065731 
L 98.181818 795.909199 
L 94.909091 795.349739 
L 92.088156 793.976753 
L 91.636364 793.817344 
L 88.363636 793.953524 
L 85.090909 792.238779 
L 81.818182 791.411206 
L 79.984621 790.695858 
L 78.545455 789.869633 
L 75.272727 789.09593 
L 72 788.263084 
L 68.86546 787.414962 
L 68.727273 787.341816 
L 65.454545 786.233371 
L 62.181818 785.649884 
L 58.909091 784.773157 
L 56.667458 784.134066 
L 55.636364 783.65195 
L 52.363636 782.852464 
L 49.090909 782.199474 
L 45.818182 781.326303 
L 43.96108 780.853171 
L 42.545455 780.300065 
L 39.272727 779.623867 
L 36 779.175458 
L 32.727273 778.684275 
L 29.454545 778.162865 
L 27.578347 777.572275 
L 26.181818 777.14177 
L 22.909091 776.701732 
L 19.636364 777.030091 
L 16.363636 776.248076 
L 13.090909 775.168647 
L 9.818182 774.784691 
L 8.214535 774.291379 
L 6.545455 773.544427 
L 3.272727 772.876099 
L -0 772.633105 
L -0 773.355176 
L 3.272727 773.671133 
L 5.618518 774.291379 
L 6.545455 774.558906 
L 9.818182 775.526951 
L 13.090909 776.170491 
L 16.363636 777.517836 
L 16.606258 777.572275 
L 19.636364 778.054614 
L 22.909091 777.835193 
L 26.181818 779.02883 
L 29.454545 779.392594 
L 32.727273 779.52798 
L 36 779.919141 
L 39.272727 780.490664 
L 40.731441 780.853171 
L 42.545455 781.321081 
L 45.818182 782.077795 
L 49.090909 782.935973 
L 52.363636 783.697164 
L 53.889301 784.134066 
L 55.636364 784.622625 
L 58.909091 785.494165 
L 62.181818 786.340843 
L 65.454545 787.100527 
L 66.362231 787.414962 
L 68.727273 788.119284 
L 72 788.94039 
L 75.272727 789.790285 
L 78.138621 790.695858 
L 78.545455 790.844688 
L 81.818182 792.100254 
L 85.090909 793.168033 
L 86.627975 793.976753 
L 88.363636 794.674396 
L 91.636364 795.002871 
L 94.909091 797.128355 
L 98.181818 796.853242 
L 101.454545 796.922268 
L 102.459568 797.257649 
L 104.727273 798.365434 
L 108 798.91785 
L 111.272727 799.647599 
L 114.267374 800.538545 
L 114.545455 800.65308 
L 117.818182 801.773071 
L 121.090909 802.703971 
L 123.639294 803.819441 
L 124.363636 804.09838 
L 127.636364 804.403184 
L 130.909091 805.760149 
L 134.181818 806.258107 
L 137.454545 806.433298 
L 139.522038 807.100336 
L 140.727273 807.646538 
L 144 808.462654 
L 147.272727 809.199155 
L 150.545455 810.174087 
L 150.929382 810.381232 
L 153.818182 811.522635 
L 157.090909 812.497326 
L 159.233064 813.662128 
z
" clip-path="url(#pafecd3ef20)" style="fill: #eff6fc; fill-opacity: 0.9"/>
    <path d="M 160.363636 814.935914 
L 163.636364 815.493003 
L 165.87874 816.943023 
L 166.909091 816.943023 
L 170.181818 816.943023 
L 173.454545 816.943023 
L 175.611804 816.943023 
L 173.454545 816.269589 
L 170.181818 816.320177 
L 166.909091 816.245958 
L 163.636364 814.420863 
L 160.363636 814.178558 
L 159.233064 813.662128 
L 157.090909 812.497326 
L 153.818182 811.522635 
L 150.929382 810.381232 
L 150.545455 810.174087 
L 147.272727 809.199155 
L 144 808.462654 
L 140.727273 807.646538 
L 139.522038 807.100336 
L 137.454545 806.433298 
L 134.181818 806.258107 
L 130.909091 805.760149 
L 127.636364 804.403184 
L 124.363636 804.09838 
L 123.639294 803.819441 
L 121.090909 802.703971 
L 117.818182 801.773071 
L 114.545455 800.65308 
L 114.267374 800.538545 
L 111.272727 799.647599 
L 108 798.91785 
L 104.727273 798.365434 
L 102.459568 797.257649 
L 101.454545 796.922268 
L 98.181818 796.853242 
L 94.909091 797.128355 
L 91.636364 795.002871 
L 88.363636 794.674396 
L 86.627975 793.976753 
L 85.090909 793.168033 
L 81.818182 792.100254 
L 78.545455 790.844688 
L 78.138621 790.695858 
L 75.272727 789.790285 
L 72 788.94039 
L 68.727273 788.119284 
L 66.362231 787.414962 
L 65.454545 787.100527 
L 62.181818 786.340843 
L 58.909091 785.494165 
L 55.636364 784.622625 
L 53.889301 784.134066 
L 52.363636 783.697164 
L 49.090909 782.935973 
L 45.818182 782.077795 
L 42.545455 781.321081 
L 40.731441 780.853171 
L 39.272727 780.490664 
L 36 779.919141 
L 32.727273 779.52798 
L 29.454545 779.392594 
L 26.181818 779.02883 
L 22.909091 777.835193 
L 19.636364 778.054614 
L 16.606258 777.572275 
L 16.363636 777.517836 
L 13.090909 776.170491 
L 9.818182 775.526951 
L 6.545455 774.558906 
L 5.618518 774.291379 
L 3.272727 773.671133 
L -0 773.355176 
L -0 774.077248 
L 1.879423 774.291379 
L 3.272727 774.562938 
L 6.545455 775.426723 
L 9.818182 776.269212 
L 13.090909 777.172335 
L 14.054159 777.572275 
L 16.363636 778.39453 
L 19.636364 778.955432 
L 22.909091 779.559404 
L 25.506095 780.853171 
L 26.181818 781.047492 
L 27.850292 780.853171 
L 29.454545 780.622323 
L 32.727273 780.371684 
L 36 780.662825 
L 36.999902 780.853171 
L 39.272727 781.618926 
L 42.545455 782.220772 
L 45.818182 782.829287 
L 49.090909 783.672473 
L 50.939602 784.134066 
L 52.363636 784.613645 
L 55.636364 785.447496 
L 58.909091 786.215173 
L 62.181818 787.031803 
L 63.704423 787.414962 
L 65.454545 788.007634 
L 68.727273 788.864759 
L 72 789.617696 
L 75.272727 790.484639 
L 75.941178 790.695858 
L 78.545455 791.648567 
L 81.818182 792.789303 
L 84.861824 793.976753 
L 85.090909 794.092098 
L 88.363636 795.384294 
L 91.636364 796.173745 
L 93.271328 797.257649 
L 94.909091 797.985153 
L 98.181818 797.992314 
L 101.454545 799.320916 
L 104.727273 799.619303 
L 108 799.686981 
L 111.272727 800.343649 
L 111.927811 800.538545 
L 114.545455 801.616695 
L 117.818182 802.479971 
L 121.090909 803.584154 
L 121.628442 803.819441 
L 124.363636 804.872745 
L 127.636364 805.419638 
L 130.909091 807.066426 
L 133.446043 807.100336 
L 134.181818 807.108442 
L 137.454545 807.358176 
L 140.727273 808.715096 
L 144 809.179977 
L 147.272727 809.837641 
L 148.992873 810.381232 
L 150.545455 811.07683 
L 153.818182 812.177736 
L 157.090909 813.398871 
L 157.575058 813.662128 
z
" clip-path="url(#pafecd3ef20)" style="fill: #eaf3fb; fill-opacity: 0.9"/>
    <path d="M 157.090909 814.508304 
L 160.363636 815.69327 
L 163.636364 816.565144 
L 164.220734 816.943023 
L 165.87874 816.943023 
L 163.636364 815.493003 
L 160.363636 814.935914 
L 157.575058 813.662128 
L 157.090909 813.398871 
L 153.818182 812.177736 
L 150.545455 811.07683 
L 148.992873 810.381232 
L 147.272727 809.837641 
L 144 809.179977 
L 140.727273 808.715096 
L 137.454545 807.358176 
L 134.181818 807.108442 
L 133.446043 807.100336 
L 130.909091 807.066426 
L 127.636364 805.419638 
L 124.363636 804.872745 
L 121.628442 803.819441 
L 121.090909 803.584154 
L 117.818182 802.479971 
L 114.545455 801.616695 
L 111.927811 800.538545 
L 111.272727 800.343649 
L 108 799.686981 
L 104.727273 799.619303 
L 101.454545 799.320916 
L 98.181818 797.992314 
L 94.909091 797.985153 
L 93.271328 797.257649 
L 91.636364 796.173745 
L 88.363636 795.384294 
L 85.090909 794.092098 
L 84.861824 793.976753 
L 81.818182 792.789303 
L 78.545455 791.648567 
L 75.941178 790.695858 
L 75.272727 790.484639 
L 72 789.617696 
L 68.727273 788.864759 
L 65.454545 788.007634 
L 63.704423 787.414962 
L 62.181818 787.031803 
L 58.909091 786.215173 
L 55.636364 785.447496 
L 52.363636 784.613645 
L 50.939602 784.134066 
L 49.090909 783.672473 
L 45.818182 782.829287 
L 42.545455 782.220772 
L 39.272727 781.618926 
L 36.999902 780.853171 
L 36 780.662825 
L 32.727273 780.371684 
L 29.454545 780.622323 
L 27.850292 780.853171 
L 26.181818 781.047492 
L 25.506095 780.853171 
L 22.909091 779.559404 
L 19.636364 778.955432 
L 16.363636 778.39453 
L 14.054159 777.572275 
L 13.090909 777.172335 
L 9.818182 776.269212 
L 6.545455 775.426723 
L 3.272727 774.562938 
L 1.879423 774.291379 
L -0 774.077248 
L -0 774.291379 
L -0 775.593109 
L 3.272727 775.798148 
L 6.545455 776.294539 
L 9.818182 777.011472 
L 11.641231 777.572275 
L 13.090909 778.271838 
L 16.363636 779.253618 
L 19.636364 779.85625 
L 22.306711 780.853171 
L 22.909091 781.127481 
L 26.181818 782.0428 
L 29.454545 782.027122 
L 32.727273 783.305851 
L 36 782.772344 
L 39.272727 782.935141 
L 42.545455 783.120463 
L 45.818182 783.580779 
L 47.989903 784.134066 
L 49.090909 784.69925 
L 52.363636 785.60703 
L 55.636364 786.272367 
L 58.909091 786.936181 
L 60.867824 787.414962 
L 62.181818 787.942337 
L 65.454545 788.937469 
L 68.727273 789.610234 
L 72 790.295002 
L 73.50424 790.695858 
L 75.272727 791.433985 
L 78.545455 792.452447 
L 81.818182 793.478351 
L 83.095673 793.976753 
L 85.090909 794.981356 
L 88.363636 796.094192 
L 91.494468 797.257649 
L 91.636364 797.331551 
L 94.909091 798.769687 
L 98.181818 799.277541 
L 100.161402 800.538545 
L 101.454545 801.137409 
L 104.727273 800.957317 
L 107.062274 800.538545 
L 108 800.456112 
L 108.424045 800.538545 
L 111.272727 801.882353 
L 114.545455 802.58031 
L 117.818182 803.186872 
L 119.61759 803.819441 
L 121.090909 804.670651 
L 124.363636 805.64711 
L 127.636364 806.436092 
L 128.95044 807.100336 
L 130.909091 807.988532 
L 134.181818 808.185135 
L 137.454545 809.451941 
L 140.727273 809.783655 
L 144 809.8973 
L 146.681897 810.381232 
L 147.272727 810.595606 
L 150.545455 811.982037 
L 153.818182 812.832836 
L 155.917051 813.662128 
z
" clip-path="url(#pafecd3ef20)" style="fill: #e5eff9; fill-opacity: 0.9"/>
    <path d="M 157.090909 815.703478 
L 160.363636 816.450625 
L 162.003288 816.943023 
L 163.636364 816.943023 
L 164.220734 816.943023 
L 163.636364 816.565144 
L 160.363636 815.69327 
L 157.090909 814.508304 
L 155.917051 813.662128 
L 153.818182 812.832836 
L 150.545455 811.982037 
L 147.272727 810.595606 
L 146.681897 810.381232 
L 144 809.8973 
L 140.727273 809.783655 
L 137.454545 809.451941 
L 134.181818 808.185135 
L 130.909091 807.988532 
L 128.95044 807.100336 
L 127.636364 806.436092 
L 124.363636 805.64711 
L 121.090909 804.670651 
L 119.61759 803.819441 
L 117.818182 803.186872 
L 114.545455 802.58031 
L 111.272727 801.882353 
L 108.424045 800.538545 
L 108 800.456112 
L 107.062274 800.538545 
L 104.727273 800.957317 
L 101.454545 801.137409 
L 100.161402 800.538545 
L 98.181818 799.277541 
L 94.909091 798.769687 
L 91.636364 797.331551 
L 91.494468 797.257649 
L 88.363636 796.094192 
L 85.090909 794.981356 
L 83.095673 793.976753 
L 81.818182 793.478351 
L 78.545455 792.452447 
L 75.272727 791.433985 
L 73.50424 790.695858 
L 72 790.295002 
L 68.727273 789.610234 
L 65.454545 788.937469 
L 62.181818 787.942337 
L 60.867824 787.414962 
L 58.909091 786.936181 
L 55.636364 786.272367 
L 52.363636 785.60703 
L 49.090909 784.69925 
L 47.989903 784.134066 
L 45.818182 783.580779 
L 42.545455 783.120463 
L 39.272727 782.935141 
L 36 782.772344 
L 32.727273 783.305851 
L 29.454545 782.027122 
L 26.181818 782.0428 
L 22.909091 781.127481 
L 22.306711 780.853171 
L 19.636364 779.85625 
L 16.363636 779.253618 
L 13.090909 778.271838 
L 11.641231 777.572275 
L 9.818182 777.011472 
L 6.545455 776.294539 
L 3.272727 775.798148 
L -0 775.593109 
L -0 777.443608 
L 3.272727 777.033358 
L 6.545455 777.162356 
L 8.702048 777.572275 
L 9.818182 778.109167 
L 13.090909 779.43623 
L 16.363636 780.112705 
L 19.636364 780.757068 
L 19.893783 780.853171 
L 22.909091 782.226275 
L 26.181818 783.038109 
L 29.454545 783.47238 
L 30.59584 784.134066 
L 32.727273 785.125153 
L 36 784.988633 
L 39.272727 784.502144 
L 40.624626 784.134066 
L 42.545455 784.020155 
L 43.606953 784.134066 
L 45.818182 785.012772 
L 49.090909 786.213429 
L 52.363636 786.600414 
L 55.636364 787.097238 
L 57.384427 787.414962 
L 58.909091 788.004746 
L 62.181818 789.126205 
L 65.454545 789.867304 
L 68.727273 790.355709 
L 70.45473 790.695858 
L 72 791.293707 
L 75.272727 792.49481 
L 78.545455 793.256326 
L 81.046142 793.976753 
L 81.818182 794.355316 
L 85.090909 795.870614 
L 88.363636 796.80409 
L 89.584151 797.257649 
L 91.636364 798.326478 
L 94.909091 799.554221 
L 98.133382 800.538545 
L 98.181818 800.559826 
L 101.454545 802.07178 
L 104.727273 802.526481 
L 107.051656 803.819441 
L 108 804.210242 
L 110.941387 803.819441 
L 111.272727 803.74876 
L 114.545455 803.543925 
L 116.938208 803.819441 
L 117.818182 804.148354 
L 121.090909 805.832421 
L 124.363636 806.421475 
L 126.709248 807.100336 
L 127.636364 807.60711 
L 130.909091 808.9004 
L 134.181818 809.261828 
L 136.313967 810.381232 
L 137.454545 811.004553 
L 140.727273 810.991962 
L 144 811.180267 
L 147.272727 812.037995 
L 150.545455 812.887244 
L 153.818182 813.487937 
L 154.259044 813.662128 
z
" clip-path="url(#pafecd3ef20)" style="fill: #dfecf7; fill-opacity: 0.9"/>
    <path d="M 150.545455 814.056652 
L 153.818182 815.54478 
L 157.090909 816.898653 
L 157.404882 816.943023 
L 160.363636 816.943023 
L 162.003288 816.943023 
L 160.363636 816.450625 
L 157.090909 815.703478 
L 154.259044 813.662128 
L 153.818182 813.487937 
L 150.545455 812.887244 
L 147.272727 812.037995 
L 144 811.180267 
L 140.727273 810.991962 
L 137.454545 811.004553 
L 136.313967 810.381232 
L 134.181818 809.261828 
L 130.909091 808.9004 
L 127.636364 807.60711 
L 126.709248 807.100336 
L 124.363636 806.421475 
L 121.090909 805.832421 
L 117.818182 804.148354 
L 116.938208 803.819441 
L 114.545455 803.543925 
L 111.272727 803.74876 
L 110.941387 803.819441 
L 108 804.210242 
L 107.051656 803.819441 
L 104.727273 802.526481 
L 101.454545 802.07178 
L 98.181818 800.559826 
L 98.133382 800.538545 
L 94.909091 799.554221 
L 91.636364 798.326478 
L 89.584151 797.257649 
L 88.363636 796.80409 
L 85.090909 795.870614 
L 81.818182 794.355316 
L 81.046142 793.976753 
L 78.545455 793.256326 
L 75.272727 792.49481 
L 72 791.293707 
L 70.45473 790.695858 
L 68.727273 790.355709 
L 65.454545 789.867304 
L 62.181818 789.126205 
L 58.909091 788.004746 
L 57.384427 787.414962 
L 55.636364 787.097238 
L 52.363636 786.600414 
L 49.090909 786.213429 
L 45.818182 785.012772 
L 43.606953 784.134066 
L 42.545455 784.020155 
L 40.624626 784.134066 
L 39.272727 784.502144 
L 36 784.988633 
L 32.727273 785.125153 
L 30.59584 784.134066 
L 29.454545 783.47238 
L 26.181818 783.038109 
L 22.909091 782.226275 
L 19.893783 780.853171 
L 19.636364 780.757068 
L 16.363636 780.112705 
L 13.090909 779.43623 
L 9.818182 778.109167 
L 8.702048 777.572275 
L 6.545455 777.162356 
L 3.272727 777.033358 
L -0 777.443608 
L -0 777.572275 
L -0 779.663806 
L 3.272727 779.616683 
L 6.545455 779.710457 
L 9.818182 780.305352 
L 13.090909 780.600623 
L 15.090595 780.853171 
L 16.363636 781.253346 
L 19.636364 782.433376 
L 22.909091 783.325069 
L 26.181818 784.033418 
L 26.696279 784.134066 
L 29.454545 784.96035 
L 32.727273 786.28428 
L 36 786.798888 
L 37.753621 787.414962 
L 39.272727 787.865975 
L 42.545455 788.036561 
L 45.818182 788.03452 
L 49.090909 788.058667 
L 52.363636 788.454904 
L 55.636364 789.290952 
L 58.909091 789.760289 
L 62.181818 790.310073 
L 64.634665 790.695858 
L 65.454545 790.968917 
L 68.727273 791.681276 
L 72 792.758441 
L 75.272727 793.555636 
L 77.867022 793.976753 
L 78.545455 794.167402 
L 81.818182 795.723543 
L 85.090909 796.759872 
L 87.080315 797.257649 
L 88.363636 797.809727 
L 91.636364 799.321405 
L 94.909091 800.338755 
L 95.563532 800.538545 
L 98.181818 801.688922 
L 101.454545 803.00615 
L 104.176769 803.819441 
L 104.727273 804.03265 
L 108 805.372711 
L 111.272727 806.071192 
L 113.508631 807.100336 
L 114.545455 807.369564 
L 117.818182 807.225417 
L 119.065597 807.100336 
L 121.090909 806.994191 
L 122.483629 807.100336 
L 124.363636 807.564105 
L 127.636364 809.069629 
L 130.909091 809.812268 
L 134.181818 810.338521 
L 134.26317 810.381232 
L 137.454545 812.125306 
L 140.727273 812.37758 
L 144 813.63609 
L 147.272727 813.480383 
L 148.800176 813.662128 
z
" clip-path="url(#pafecd3ef20)" style="fill: #dae8f6; fill-opacity: 0.9"/>
    <path d="M 140.727273 813.813533 
L 144 815.202083 
L 147.272727 815.514106 
L 150.545455 816.796949 
L 150.888811 816.943023 
L 153.818182 816.943023 
L 157.090909 816.943023 
L 157.404882 816.943023 
L 157.090909 816.898653 
L 153.818182 815.54478 
L 150.545455 814.056652 
L 148.800176 813.662128 
L 147.272727 813.480383 
L 144 813.63609 
L 140.727273 812.37758 
L 137.454545 812.125306 
L 134.26317 810.381232 
L 134.181818 810.338521 
L 130.909091 809.812268 
L 127.636364 809.069629 
L 124.363636 807.564105 
L 122.483629 807.100336 
L 121.090909 806.994191 
L 119.065597 807.100336 
L 117.818182 807.225417 
L 114.545455 807.369564 
L 113.508631 807.100336 
L 111.272727 806.071192 
L 108 805.372711 
L 104.727273 804.03265 
L 104.176769 803.819441 
L 101.454545 803.00615 
L 98.181818 801.688922 
L 95.563532 800.538545 
L 94.909091 800.338755 
L 91.636364 799.321405 
L 88.363636 797.809727 
L 87.080315 797.257649 
L 85.090909 796.759872 
L 81.818182 795.723543 
L 78.545455 794.167402 
L 77.867022 793.976753 
L 75.272727 793.555636 
L 72 792.758441 
L 68.727273 791.681276 
L 65.454545 790.968917 
L 64.634665 790.695858 
L 62.181818 790.310073 
L 58.909091 789.760289 
L 55.636364 789.290952 
L 52.363636 788.454904 
L 49.090909 788.058667 
L 45.818182 788.03452 
L 42.545455 788.036561 
L 39.272727 787.865975 
L 37.753621 787.414962 
L 36 786.798888 
L 32.727273 786.28428 
L 29.454545 784.96035 
L 26.696279 784.134066 
L 26.181818 784.033418 
L 22.909091 783.325069 
L 19.636364 782.433376 
L 16.363636 781.253346 
L 15.090595 780.853171 
L 13.090909 780.600623 
L 9.818182 780.305352 
L 6.545455 779.710457 
L 3.272727 779.616683 
L -0 779.663806 
L -0 780.853171 
L -0 782.141499 
L 3.272727 782.639076 
L 6.545455 782.855779 
L 9.818182 783.060743 
L 13.090909 783.66021 
L 16.221025 784.134066 
L 16.363636 784.148209 
L 19.636364 784.235632 
L 22.909091 784.883093 
L 26.181818 785.971707 
L 29.454545 786.484389 
L 32.600825 787.414962 
L 32.727273 787.463019 
L 36 788.456692 
L 39.272727 789.395809 
L 42.545455 789.805167 
L 45.818182 790.255391 
L 47.660021 790.695858 
L 49.090909 790.920795 
L 52.363636 791.532544 
L 55.636364 791.571232 
L 58.909091 791.703981 
L 62.181818 792.472808 
L 65.454545 793.475798 
L 68.727273 793.493654 
L 70.733667 793.976753 
L 72 794.260412 
L 75.272727 795.019026 
L 78.545455 796.003876 
L 81.818182 797.09177 
L 82.524853 797.257649 
L 85.090909 798.055051 
L 88.363636 799.338634 
L 91.636364 800.316332 
L 92.390944 800.538545 
L 94.909091 801.653256 
L 98.181818 802.818017 
L 101.037338 803.819441 
L 101.454545 804.004227 
L 104.727273 805.243927 
L 108 806.535179 
L 109.520495 807.100336 
L 111.272727 807.778974 
L 114.545455 808.689881 
L 117.818182 809.448158 
L 119.953976 810.381232 
L 121.090909 810.67117 
L 124.363636 810.866802 
L 127.636364 810.736662 
L 130.909091 811.706915 
L 134.181818 812.276317 
L 137.454545 813.246058 
L 140.189833 813.662128 
z
" clip-path="url(#pafecd3ef20)" style="fill: #d6e5f4; fill-opacity: 0.9"/>
    <path d="M 127.636364 813.861463 
L 130.909091 814.425775 
L 134.181818 814.462935 
L 137.454545 815.362814 
L 140.727273 815.889199 
L 144 816.75854 
L 144.873307 816.943023 
L 147.272727 816.943023 
L 150.545455 816.943023 
L 150.888811 816.943023 
L 150.545455 816.796949 
L 147.272727 815.514106 
L 144 815.202083 
L 140.727273 813.813533 
L 140.189833 813.662128 
L 137.454545 813.246058 
L 134.181818 812.276317 
L 130.909091 811.706915 
L 127.636364 810.736662 
L 124.363636 810.866802 
L 121.090909 810.67117 
L 119.953976 810.381232 
L 117.818182 809.448158 
L 114.545455 808.689881 
L 111.272727 807.778974 
L 109.520495 807.100336 
L 108 806.535179 
L 104.727273 805.243927 
L 101.454545 804.004227 
L 101.037338 803.819441 
L 98.181818 802.818017 
L 94.909091 801.653256 
L 92.390944 800.538545 
L 91.636364 800.316332 
L 88.363636 799.338634 
L 85.090909 798.055051 
L 82.524853 797.257649 
L 81.818182 797.09177 
L 78.545455 796.003876 
L 75.272727 795.019026 
L 72 794.260412 
L 70.733667 793.976753 
L 68.727273 793.493654 
L 65.454545 793.475798 
L 62.181818 792.472808 
L 58.909091 791.703981 
L 55.636364 791.571232 
L 52.363636 791.532544 
L 49.090909 790.920795 
L 47.660021 790.695858 
L 45.818182 790.255391 
L 42.545455 789.805167 
L 39.272727 789.395809 
L 36 788.456692 
L 32.727273 787.463019 
L 32.600825 787.414962 
L 29.454545 786.484389 
L 26.181818 785.971707 
L 22.909091 784.883093 
L 19.636364 784.235632 
L 16.363636 784.148209 
L 16.221025 784.134066 
L 13.090909 783.66021 
L 9.818182 783.060743 
L 6.545455 782.855779 
L 3.272727 782.639076 
L -0 782.141499 
L -0 784.134066 
L -0 784.54941 
L 3.272727 784.934066 
L 6.545455 785.386263 
L 9.818182 785.851657 
L 13.090909 786.239274 
L 16.363636 786.496284 
L 19.636364 786.868823 
L 21.785049 787.414962 
L 22.909091 787.648226 
L 26.181818 788.026829 
L 29.454545 788.357061 
L 32.727273 789.421362 
L 36 790.035847 
L 38.407521 790.695858 
L 39.272727 790.957892 
L 42.545455 791.505933 
L 45.818182 791.922195 
L 49.090909 792.380675 
L 52.363636 792.899542 
L 55.636364 793.19359 
L 58.909091 793.862348 
L 59.268662 793.976753 
L 62.181818 794.539914 
L 65.454545 795.009224 
L 68.727273 795.183833 
L 72 795.946483 
L 75.272727 796.747425 
L 76.850065 797.257649 
L 78.545455 797.688044 
L 81.818182 798.63744 
L 85.090909 799.866369 
L 87.162441 800.538545 
L 88.363636 800.8562 
L 91.636364 801.844327 
L 94.909091 803.148832 
L 97.52272 803.819441 
L 98.181818 803.996819 
L 101.454545 805.430219 
L 104.727273 806.455204 
L 106.392995 807.100336 
L 108 807.777731 
L 111.272727 808.990251 
L 114.545455 810.010198 
L 115.613339 810.381232 
L 117.818182 811.115042 
L 121.090909 811.968658 
L 124.363636 812.802679 
L 126.807067 813.662128 
z
" clip-path="url(#pafecd3ef20)" style="fill: #d0e2f2; fill-opacity: 0.9"/>
    <path d="M 124.363636 814.433595 
L 127.636364 815.184382 
L 130.909091 816.140369 
L 133.714933 816.943023 
L 134.181818 816.943023 
L 137.454545 816.943023 
L 140.727273 816.943023 
L 144 816.943023 
L 144.873307 816.943023 
L 144 816.75854 
L 140.727273 815.889199 
L 137.454545 815.362814 
L 134.181818 814.462935 
L 130.909091 814.425775 
L 127.636364 813.861463 
L 126.807067 813.662128 
L 124.363636 812.802679 
L 121.090909 811.968658 
L 117.818182 811.115042 
L 115.613339 810.381232 
L 114.545455 810.010198 
L 111.272727 808.990251 
L 108 807.777731 
L 106.392995 807.100336 
L 104.727273 806.455204 
L 101.454545 805.430219 
L 98.181818 803.996819 
L 97.52272 803.819441 
L 94.909091 803.148832 
L 91.636364 801.844327 
L 88.363636 800.8562 
L 87.162441 800.538545 
L 85.090909 799.866369 
L 81.818182 798.63744 
L 78.545455 797.688044 
L 76.850065 797.257649 
L 75.272727 796.747425 
L 72 795.946483 
L 68.727273 795.183833 
L 65.454545 795.009224 
L 62.181818 794.539914 
L 59.268662 793.976753 
L 58.909091 793.862348 
L 55.636364 793.19359 
L 52.363636 792.899542 
L 49.090909 792.380675 
L 45.818182 791.922195 
L 42.545455 791.505933 
L 39.272727 790.957892 
L 38.407521 790.695858 
L 36 790.035847 
L 32.727273 789.421362 
L 29.454545 788.357061 
L 26.181818 788.026829 
L 22.909091 787.648226 
L 21.785049 787.414962 
L 19.636364 786.868823 
L 16.363636 786.496284 
L 13.090909 786.239274 
L 9.818182 785.851657 
L 6.545455 785.386263 
L 3.272727 784.934066 
L -0 784.54941 
L -0 786.077982 
L 3.272727 786.718606 
L 5.763973 787.414962 
L 6.545455 787.590961 
L 9.818182 788.084161 
L 13.090909 788.439987 
L 16.363636 788.87534 
L 19.636364 789.392078 
L 22.909091 789.79812 
L 26.181818 790.107756 
L 29.109659 790.695858 
L 29.454545 790.767979 
L 32.727273 791.369904 
L 36 791.871768 
L 39.272727 792.70244 
L 42.545455 793.137872 
L 45.818182 793.451923 
L 49.090909 793.840555 
L 50.091058 793.976753 
L 52.363636 794.363022 
L 55.636364 794.835739 
L 58.909091 795.334681 
L 62.181818 795.8513 
L 65.454545 796.299542 
L 68.727273 796.829601 
L 70.491629 797.257649 
L 72 797.542468 
L 75.272727 798.12879 
L 78.545455 799.044498 
L 81.818182 800.20759 
L 82.639712 800.538545 
L 85.090909 801.355103 
L 88.363636 802.332399 
L 91.636364 803.525618 
L 92.423765 803.819441 
L 94.909091 804.587748 
L 98.181818 805.565503 
L 101.454545 806.85621 
L 102.331916 807.100336 
L 104.727273 807.782038 
L 108 809.096053 
L 111.272727 810.201528 
L 111.83253 810.381232 
L 114.545455 811.33417 
L 117.818182 812.379764 
L 121.090909 813.266146 
L 122.25065 813.662128 
z
" clip-path="url(#pafecd3ef20)" style="fill: #cbdef1; fill-opacity: 0.9"/>
    <path d="M 121.090909 814.692075 
L 124.363636 815.821021 
L 127.636364 816.507302 
L 128.887962 816.943023 
L 130.909091 816.943023 
L 133.714933 816.943023 
L 130.909091 816.140369 
L 127.636364 815.184382 
L 124.363636 814.433595 
L 122.25065 813.662128 
L 121.090909 813.266146 
L 117.818182 812.379764 
L 114.545455 811.33417 
L 111.83253 810.381232 
L 111.272727 810.201528 
L 108 809.096053 
L 104.727273 807.782038 
L 102.331916 807.100336 
L 101.454545 806.85621 
L 98.181818 805.565503 
L 94.909091 804.587748 
L 92.423765 803.819441 
L 91.636364 803.525618 
L 88.363636 802.332399 
L 85.090909 801.355103 
L 82.639712 800.538545 
L 81.818182 800.20759 
L 78.545455 799.044498 
L 75.272727 798.12879 
L 72 797.542468 
L 70.491629 797.257649 
L 68.727273 796.829601 
L 65.454545 796.299542 
L 62.181818 795.8513 
L 58.909091 795.334681 
L 55.636364 794.835739 
L 52.363636 794.363022 
L 50.091058 793.976753 
L 49.090909 793.840555 
L 45.818182 793.451923 
L 42.545455 793.137872 
L 39.272727 792.70244 
L 36 791.871768 
L 32.727273 791.369904 
L 29.454545 790.767979 
L 29.109659 790.695858 
L 26.181818 790.107756 
L 22.909091 789.79812 
L 19.636364 789.392078 
L 16.363636 788.87534 
L 13.090909 788.439987 
L 9.818182 788.084161 
L 6.545455 787.590961 
L 5.763973 787.414962 
L 3.272727 786.718606 
L -0 786.077982 
L -0 787.414962 
L -0 787.617752 
L 3.272727 788.328533 
L 6.545455 789.028779 
L 9.818182 789.670056 
L 13.090909 790.428932 
L 14.261121 790.695858 
L 16.363636 791.064746 
L 19.636364 791.534166 
L 22.909091 791.939926 
L 26.181818 792.336337 
L 29.454545 792.934392 
L 32.727273 793.300179 
L 36 793.892065 
L 36.440464 793.976753 
L 39.272727 794.4959 
L 42.545455 794.901677 
L 45.818182 795.260917 
L 49.090909 795.714662 
L 52.363636 796.185152 
L 55.636364 796.496359 
L 58.909091 796.768616 
L 62.181818 797.162686 
L 62.900239 797.257649 
L 65.454545 797.718926 
L 68.727273 798.362946 
L 72 798.823391 
L 75.272727 799.364803 
L 78.545455 800.400952 
L 78.91818 800.538545 
L 81.818182 801.545158 
L 85.090909 802.653489 
L 88.363636 803.808598 
L 88.392508 803.819441 
L 91.636364 804.893938 
L 94.909091 805.980604 
L 98.096269 807.100336 
L 98.181818 807.129572 
L 101.454545 808.219687 
L 104.727273 809.240552 
L 107.898072 810.381232 
L 108 810.415286 
L 111.272727 811.529131 
L 114.545455 812.65957 
L 117.818182 813.644486 
L 117.882591 813.662128 
z
" clip-path="url(#pafecd3ef20)" style="fill: #c6dbef; fill-opacity: 0.9"/>
    <path d="M 114.545455 814.036156 
L 117.818182 815.050219 
L 121.090909 816.174421 
L 123.481576 816.943023 
L 124.363636 816.943023 
L 127.636364 816.943023 
L 128.887962 816.943023 
L 127.636364 816.507302 
L 124.363636 815.821021 
L 121.090909 814.692075 
L 117.882591 813.662128 
L 117.818182 813.644486 
L 114.545455 812.65957 
L 111.272727 811.529131 
L 108 810.415286 
L 107.898072 810.381232 
L 104.727273 809.240552 
L 101.454545 808.219687 
L 98.181818 807.129572 
L 98.096269 807.100336 
L 94.909091 805.980604 
L 91.636364 804.893938 
L 88.392508 803.819441 
L 88.363636 803.808598 
L 85.090909 802.653489 
L 81.818182 801.545158 
L 78.91818 800.538545 
L 78.545455 800.400952 
L 75.272727 799.364803 
L 72 798.823391 
L 68.727273 798.362946 
L 65.454545 797.718926 
L 62.900239 797.257649 
L 62.181818 797.162686 
L 58.909091 796.768616 
L 55.636364 796.496359 
L 52.363636 796.185152 
L 49.090909 795.714662 
L 45.818182 795.260917 
L 42.545455 794.901677 
L 39.272727 794.4959 
L 36.440464 793.976753 
L 36 793.892065 
L 32.727273 793.300179 
L 29.454545 792.934392 
L 26.181818 792.336337 
L 22.909091 791.939926 
L 19.636364 791.534166 
L 16.363636 791.064746 
L 14.261121 790.695858 
L 13.090909 790.428932 
L 9.818182 789.670056 
L 6.545455 789.028779 
L 3.272727 788.328533 
L -0 787.617752 
L -0 789.23566 
L 3.272727 789.826721 
L 6.545455 790.466596 
L 7.563435 790.695858 
L 9.818182 791.321576 
L 13.090909 792.065438 
L 16.363636 792.594612 
L 19.636364 793.290392 
L 22.561554 793.976753 
L 22.909091 794.055518 
L 26.181818 794.457214 
L 29.454545 794.997862 
L 32.727273 795.341378 
L 36 795.900571 
L 39.272727 796.421916 
L 42.545455 796.804967 
L 45.818182 797.215764 
L 46.1422 797.257649 
L 49.090909 797.680448 
L 52.363636 798.076191 
L 55.636364 798.342695 
L 58.909091 798.662874 
L 62.181818 799.137666 
L 65.454545 799.510539 
L 68.727273 799.856772 
L 72 800.104314 
L 74.849285 800.538545 
L 75.272727 800.635054 
L 78.545455 801.927723 
L 81.818182 802.820609 
L 84.713768 803.819441 
L 85.090909 803.999794 
L 88.363636 805.232121 
L 91.636364 806.195981 
L 94.188558 807.100336 
L 94.909091 807.415941 
L 98.181818 808.484434 
L 101.454545 809.570251 
L 103.855832 810.381232 
L 104.727273 810.714153 
L 108 811.769806 
L 111.272727 812.876998 
L 113.580445 813.662128 
z
" clip-path="url(#pafecd3ef20)" style="fill: #bed8ec; fill-opacity: 0.9"/>
    <path d="M 111.272727 814.407139 
L 114.545455 815.571695 
L 117.818182 816.457946 
L 119.183334 816.943023 
L 121.090909 816.943023 
L 123.481576 816.943023 
L 121.090909 816.174421 
L 117.818182 815.050219 
L 114.545455 814.036156 
L 113.580445 813.662128 
L 111.272727 812.876998 
L 108 811.769806 
L 104.727273 810.714153 
L 103.855832 810.381232 
L 101.454545 809.570251 
L 98.181818 808.484434 
L 94.909091 807.415941 
L 94.188558 807.100336 
L 91.636364 806.195981 
L 88.363636 805.232121 
L 85.090909 803.999794 
L 84.713768 803.819441 
L 81.818182 802.820609 
L 78.545455 801.927723 
L 75.272727 800.635054 
L 74.849285 800.538545 
L 72 800.104314 
L 68.727273 799.856772 
L 65.454545 799.510539 
L 62.181818 799.137666 
L 58.909091 798.662874 
L 55.636364 798.342695 
L 52.363636 798.076191 
L 49.090909 797.680448 
L 46.1422 797.257649 
L 45.818182 797.215764 
L 42.545455 796.804967 
L 39.272727 796.421916 
L 36 795.900571 
L 32.727273 795.341378 
L 29.454545 794.997862 
L 26.181818 794.457214 
L 22.909091 794.055518 
L 22.561554 793.976753 
L 19.636364 793.290392 
L 16.363636 792.594612 
L 13.090909 792.065438 
L 9.818182 791.321576 
L 7.563435 790.695858 
L 6.545455 790.466596 
L 3.272727 789.826721 
L -0 789.23566 
L -0 790.695858 
L -0 790.866685 
L 3.272727 791.447252 
L 6.545455 792.230833 
L 9.818182 793.093286 
L 13.090909 793.647314 
L 15.326905 793.976753 
L 16.363636 794.186039 
L 19.636364 795.172587 
L 22.909091 795.751844 
L 26.181818 796.157097 
L 29.454545 796.965871 
L 31.50871 797.257649 
L 32.727273 797.431997 
L 36 797.87758 
L 39.272727 798.374728 
L 42.545455 798.824711 
L 45.818182 799.330154 
L 49.090909 799.848765 
L 52.363636 800.065817 
L 55.636364 800.346242 
L 57.087834 800.538545 
L 58.909091 800.824286 
L 62.181818 801.218226 
L 65.454545 801.453958 
L 68.727273 801.72936 
L 72 802.016314 
L 75.272727 802.550681 
L 78.545455 803.473721 
L 80.206864 803.819441 
L 81.818182 804.324419 
L 85.090909 805.767982 
L 88.363636 806.655254 
L 90.019362 807.100336 
L 91.636364 807.731046 
L 94.909091 809.025433 
L 98.181818 809.839296 
L 99.819144 810.381232 
L 101.454545 811.121156 
L 104.727273 812.2419 
L 108 813.124326 
L 109.595259 813.662128 
z
" clip-path="url(#pafecd3ef20)" style="fill: #b5d4e9; fill-opacity: 0.9"/>
    <path d="M 104.727273 813.825475 
L 108 814.976932 
L 111.272727 816.191586 
L 113.882653 816.943023 
L 114.545455 816.943023 
L 117.818182 816.943023 
L 119.183334 816.943023 
L 117.818182 816.457946 
L 114.545455 815.571695 
L 111.272727 814.407139 
L 109.595259 813.662128 
L 108 813.124326 
L 104.727273 812.2419 
L 101.454545 811.121156 
L 99.819144 810.381232 
L 98.181818 809.839296 
L 94.909091 809.025433 
L 91.636364 807.731046 
L 90.019362 807.100336 
L 88.363636 806.655254 
L 85.090909 805.767982 
L 81.818182 804.324419 
L 80.206864 803.819441 
L 78.545455 803.473721 
L 75.272727 802.550681 
L 72 802.016314 
L 68.727273 801.72936 
L 65.454545 801.453958 
L 62.181818 801.218226 
L 58.909091 800.824286 
L 57.087834 800.538545 
L 55.636364 800.346242 
L 52.363636 800.065817 
L 49.090909 799.848765 
L 45.818182 799.330154 
L 42.545455 798.824711 
L 39.272727 798.374728 
L 36 797.87758 
L 32.727273 797.431997 
L 31.50871 797.257649 
L 29.454545 796.965871 
L 26.181818 796.157097 
L 22.909091 795.751844 
L 19.636364 795.172587 
L 16.363636 794.186039 
L 15.326905 793.976753 
L 13.090909 793.647314 
L 9.818182 793.093286 
L 6.545455 792.230833 
L 3.272727 791.447252 
L -0 790.866685 
L -0 792.619148 
L 3.272727 793.23682 
L 6.231078 793.976753 
L 6.545455 794.077996 
L 9.818182 794.902696 
L 13.090909 795.53564 
L 16.363636 796.353449 
L 19.636364 797.135596 
L 20.802538 797.257649 
L 22.909091 797.512128 
L 26.181818 798.169435 
L 29.454545 799.011489 
L 32.727273 799.414335 
L 36 799.789994 
L 39.272727 800.348081 
L 40.473889 800.538545 
L 42.545455 800.947355 
L 45.818182 801.520992 
L 49.090909 801.892715 
L 52.363636 802.2406 
L 55.636364 802.73842 
L 58.909091 803.196874 
L 62.181818 803.419141 
L 65.454545 803.601746 
L 67.707486 803.819441 
L 68.727273 803.939614 
L 72 804.300444 
L 75.272727 804.6679 
L 78.545455 805.629456 
L 81.818182 806.652795 
L 83.252099 807.100336 
L 85.090909 807.72148 
L 88.363636 808.700218 
L 91.636364 809.796011 
L 93.739417 810.381232 
L 94.909091 810.756054 
L 98.181818 811.774111 
L 101.454545 812.973169 
L 104.206621 813.662128 
z
" clip-path="url(#pafecd3ef20)" style="fill: #add0e6; fill-opacity: 0.9"/>
    <path d="M 98.181818 814.243201 
L 101.454545 815.30244 
L 104.727273 816.146485 
L 107.27092 816.943023 
L 108 816.943023 
L 111.272727 816.943023 
L 113.882653 816.943023 
L 111.272727 816.191586 
L 108 814.976932 
L 104.727273 813.825475 
L 104.206621 813.662128 
L 101.454545 812.973169 
L 98.181818 811.774111 
L 94.909091 810.756054 
L 93.739417 810.381232 
L 91.636364 809.796011 
L 88.363636 808.700218 
L 85.090909 807.72148 
L 83.252099 807.100336 
L 81.818182 806.652795 
L 78.545455 805.629456 
L 75.272727 804.6679 
L 72 804.300444 
L 68.727273 803.939614 
L 67.707486 803.819441 
L 65.454545 803.601746 
L 62.181818 803.419141 
L 58.909091 803.196874 
L 55.636364 802.73842 
L 52.363636 802.2406 
L 49.090909 801.892715 
L 45.818182 801.520992 
L 42.545455 800.947355 
L 40.473889 800.538545 
L 39.272727 800.348081 
L 36 799.789994 
L 32.727273 799.414335 
L 29.454545 799.011489 
L 26.181818 798.169435 
L 22.909091 797.512128 
L 20.802538 797.257649 
L 19.636364 797.135596 
L 16.363636 796.353449 
L 13.090909 795.53564 
L 9.818182 794.902696 
L 6.545455 794.077996 
L 6.231078 793.976753 
L 3.272727 793.23682 
L -0 792.619148 
L -0 793.976753 
L -0 794.681074 
L 3.272727 795.573214 
L 6.545455 796.382175 
L 9.818182 796.749605 
L 12.066072 797.257649 
L 13.090909 797.68105 
L 16.363636 798.752755 
L 19.636364 799.192774 
L 22.909091 799.777906 
L 25.527404 800.538545 
L 26.181818 800.776442 
L 29.454545 801.196893 
L 32.727273 801.693495 
L 36 802.196789 
L 39.272727 802.823755 
L 42.545455 803.403287 
L 45.818182 803.80876 
L 46.261306 803.819441 
L 49.090909 803.922902 
L 52.363636 804.795536 
L 55.636364 805.385863 
L 58.909091 805.61496 
L 62.181818 805.738071 
L 65.454545 806.242979 
L 68.727273 806.558965 
L 72 806.786672 
L 74.611992 807.100336 
L 75.272727 807.192818 
L 78.545455 808.198573 
L 81.818182 809.356661 
L 85.090909 810.241473 
L 85.635387 810.381232 
L 88.363636 811.255038 
L 91.636364 812.376941 
L 94.909091 813.134009 
L 96.687095 813.662128 
z
" clip-path="url(#pafecd3ef20)" style="fill: #a5cde3; fill-opacity: 0.9"/>
    <path d="M 3.272727 816.943023 
L 6.545455 816.943023 
L 9.818182 816.943023 
L 13.090909 816.943023 
L 14.889825 816.943023 
L 13.090909 816.333653 
L 9.818182 815.295412 
L 6.545455 814.29001 
L 4.778685 813.662128 
L 3.272727 813.173469 
L -0 812.167677 
L -0 813.662128 
L -0 816.943023 
z
M 88.363636 814.741812 
L 91.636364 815.363984 
L 94.909091 816.371055 
L 96.720406 816.943023 
L 98.181818 816.943023 
L 101.454545 816.943023 
L 104.727273 816.943023 
L 107.27092 816.943023 
L 104.727273 816.146485 
L 101.454545 815.30244 
L 98.181818 814.243201 
L 96.687095 813.662128 
L 94.909091 813.134009 
L 91.636364 812.376941 
L 88.363636 811.255038 
L 85.635387 810.381232 
L 85.090909 810.241473 
L 81.818182 809.356661 
L 78.545455 808.198573 
L 75.272727 807.192818 
L 74.611992 807.100336 
L 72 806.786672 
L 68.727273 806.558965 
L 65.454545 806.242979 
L 62.181818 805.738071 
L 58.909091 805.61496 
L 55.636364 805.385863 
L 52.363636 804.795536 
L 49.090909 803.922902 
L 46.261306 803.819441 
L 45.818182 803.80876 
L 42.545455 803.403287 
L 39.272727 802.823755 
L 36 802.196789 
L 32.727273 801.693495 
L 29.454545 801.196893 
L 26.181818 800.776442 
L 25.527404 800.538545 
L 22.909091 799.777906 
L 19.636364 799.192774 
L 16.363636 798.752755 
L 13.090909 797.68105 
L 12.066072 797.257649 
L 9.818182 796.749605 
L 6.545455 796.382175 
L 3.272727 795.573214 
L -0 794.681074 
L -0 797.257649 
L -0 798.169801 
L 3.272727 798.869757 
L 6.545455 799.412102 
L 9.818182 800.193173 
L 10.986566 800.538545 
L 13.090909 801.277663 
L 16.363636 801.703764 
L 19.636364 802.265827 
L 22.909091 803.327445 
L 26.181818 803.611729 
L 29.454545 803.744713 
L 29.867392 803.819441 
L 32.727273 804.775144 
L 36 805.371796 
L 39.272727 805.908411 
L 42.545455 806.180737 
L 45.818182 806.69638 
L 47.858199 807.100336 
L 49.090909 807.612393 
L 52.363636 808.342238 
L 55.636364 808.402351 
L 58.909091 808.646315 
L 62.181818 809.274867 
L 65.454545 809.603526 
L 68.727273 809.684689 
L 72 809.731657 
L 75.272727 810.090677 
L 76.167506 810.381232 
L 78.545455 811.571903 
L 81.818182 812.535739 
L 85.090909 813.259152 
L 86.271188 813.662128 
z
" clip-path="url(#pafecd3ef20)" style="fill: #9cc9e1; fill-opacity: 0.9"/>
    <path d="M 6.545455 814.29001 
L 9.818182 815.295412 
L 13.090909 816.333653 
L 14.889825 816.943023 
L 16.363636 816.943023 
L 19.636364 816.943023 
L 22.909091 816.943023 
L 26.181818 816.943023 
L 29.454545 816.943023 
L 32.727273 816.943023 
L 36 816.943023 
L 39.272727 816.943023 
L 42.545455 816.943023 
L 45.818182 816.943023 
L 49.090909 816.943023 
L 52.363636 816.943023 
L 55.636364 816.943023 
L 58.909091 816.943023 
L 62.181818 816.943023 
L 65.454545 816.943023 
L 68.727273 816.943023 
L 72 816.943023 
L 75.272727 816.943023 
L 78.545455 816.943023 
L 81.818182 816.943023 
L 85.090909 816.943023 
L 88.363636 816.943023 
L 91.636364 816.943023 
L 94.909091 816.943023 
L 96.720406 816.943023 
L 94.909091 816.371055 
L 91.636364 815.363984 
L 88.363636 814.741812 
L 86.271188 813.662128 
L 85.090909 813.259152 
L 81.818182 812.535739 
L 78.545455 811.571903 
L 76.167506 810.381232 
L 75.272727 810.090677 
L 72 809.731657 
L 68.727273 809.684689 
L 65.454545 809.603526 
L 62.181818 809.274867 
L 58.909091 808.646315 
L 55.636364 808.402351 
L 52.363636 808.342238 
L 49.090909 807.612393 
L 47.858199 807.100336 
L 45.818182 806.69638 
L 42.545455 806.180737 
L 39.272727 805.908411 
L 36 805.371796 
L 32.727273 804.775144 
L 29.867392 803.819441 
L 29.454545 803.744713 
L 26.181818 803.611729 
L 22.909091 803.327445 
L 19.636364 802.265827 
L 16.363636 801.703764 
L 13.090909 801.277663 
L 10.986566 800.538545 
L 9.818182 800.193173 
L 6.545455 799.412102 
L 3.272727 798.869757 
L -0 798.169801 
L -0 800.538545 
L -0 803.819441 
L -0 807.100336 
L -0 810.381232 
L -0 812.167677 
L 3.272727 813.173469 
L 4.778685 813.662128 
z
" clip-path="url(#pafecd3ef20)" style="fill: #91c3de; fill-opacity: 0.9"/>
    <path clip-path="url(#pafecd3ef20)" style="fill: #85bcdc; fill-opacity: 0.9"/>
    <path clip-path="url(#pafecd3ef20)" style="fill: #7cb7da; fill-opacity: 0.9"/>
    <path clip-path="url(#pafecd3ef20)" style="fill: #71b1d7; fill-opacity: 0.9"/>
    <path clip-path="url(#pafecd3ef20)" style="fill: #66abd4; fill-opacity: 0.9"/>
    <path clip-path="url(#pafecd3ef20)" style="fill: #5da5d1; fill-opacity: 0.9"/>
    <path clip-path="url(#pafecd3ef20)" style="fill: #56a0ce; fill-opacity: 0.9"/>
    <path clip-path="url(#pafecd3ef20)" style="fill: #4d99ca; fill-opacity: 0.9"/>
    <path clip-path="url(#pafecd3ef20)" style="fill: #4493c7; fill-opacity: 0.9"/>
    <path clip-path="url(#pafecd3ef20)" style="fill: #3c8cc3; fill-opacity: 0.9"/>
    <path clip-path="url(#pafecd3ef20)" style="fill: #3686c0; fill-opacity: 0.9"/>
    <path clip-path="url(#pafecd3ef20)" style="fill: #2f7fbc; fill-opacity: 0.9"/>
    <path clip-path="url(#pafecd3ef20)" style="fill: #2777b8; fill-opacity: 0.9"/>
    <path clip-path="url(#pafecd3ef20)" style="fill: #2070b4; fill-opacity: 0.9"/>
    <path clip-path="url(#pafecd3ef20)" style="fill: #1c6ab0; fill-opacity: 0.9"/>
    <path clip-path="url(#pafecd3ef20)" style="fill: #1663aa; fill-opacity: 0.9"/>
    <path clip-path="url(#pafecd3ef20)" style="fill: #115ca5; fill-opacity: 0.9"/>
    <path clip-path="url(#pafecd3ef20)" style="fill: #0c56a0; fill-opacity: 0.9"/>
    <path clip-path="url(#pafecd3ef20)" style="fill: #084f99; fill-opacity: 0.9"/>
    <path clip-path="url(#pafecd3ef20)" style="fill: #08488e; fill-opacity: 0.9"/>
    <path clip-path="url(#pafecd3ef20)" style="fill: #084184; fill-opacity: 0.9"/>
    <path clip-path="url(#pafecd3ef20)" style="fill: #083a7a; fill-opacity: 0.9"/>
    <path clip-path="url(#pafecd3ef20)" style="fill: #083370; fill-opacity: 0.9"/>
    <path clip-path="url(#pafecd3ef20)" style="fill: #08306b; fill-opacity: 0.9"/>
   </g>
   <g id="QuadContourSet_2">
    <path d="M 180.469524 816.943023 
L 180 816.554456 
L 176.727273 815.246517 
L 173.454545 814.753148 
L 170.181818 814.387511 
L 168.358582 813.662128 
L 166.909091 812.698948 
L 163.636364 812.108093 
L 160.363636 812.091919 
L 157.090909 810.694237 
L 155.212358 810.381232 
L 153.818182 809.882103 
L 150.545455 808.384962 
L 147.272727 807.922183 
L 144.237745 807.100336 
L 144 806.885083 
L 140.727273 805.430273 
L 137.454545 804.911861 
L 134.181818 804.56087 
L 132.121783 803.819441 
L 130.909091 802.955502 
L 127.636364 802.186529 
L 124.363636 802.071934 
L 121.090909 800.943606 
L 118.980941 800.538545 
L 117.818182 800.046921 
L 114.545455 798.679565 
L 111.272727 798.255498 
L 108 797.379587 
L 107.593067 797.257649 
L 104.727273 795.824143 
L 101.454545 795.209195 
L 100.678748 795.151345 
M 82.402214 790.826975 
L 81.818182 790.722157 
L 81.750772 790.695858 
L 78.545455 788.855687 
L 75.272727 788.401576 
L 72 787.585778 
L 71.36869 787.414962 
L 68.727273 786.016797 
L 65.454545 785.366215 
L 62.181818 784.958925 
L 59.193494 784.134066 
L 58.909091 783.882285 
L 55.636364 782.469467 
L 52.363636 782.007763 
L 49.090909 781.462974 
L 46.829752 780.853171 
L 45.818182 780.153641 
L 42.545455 779.147575 
L 39.272727 778.75707 
L 36 778.431774 
L 32.727273 777.84057 
L 31.48498 777.572275 
L 29.454545 776.668422 
L 26.181818 775.937481 
L 22.909091 775.674558 
L 19.636364 775.862987 
L 16.363636 774.978316 
L 13.702553 774.291379 
L 13.090909 774.014026 
L 9.818182 773.637156 
L 6.545455 772.464585 
L 3.272727 772.081066 
L -0 771.911034 
" clip-path="url(#pafecd3ef20)" style="fill: none"/>
    <path d="M 178.040664 816.943023 
L 176.727273 816.347613 
L 173.454545 815.511368 
L 170.181818 815.353844 
L 166.909091 814.404602 
L 165.011808 813.662128 
L 163.636364 813.310611 
L 160.363636 813.283173 
L 157.090909 811.595781 
L 153.818182 810.867535 
L 152.587388 810.381232 
L 150.545455 809.279525 
L 147.272727 808.560669 
L 144 807.745331 
L 141.879891 807.100336 
L 140.727273 806.551992 
L 137.454545 805.672579 
L 134.181818 805.409489 
L 130.909091 804.453872 
L 129.165046 803.819441 
L 127.636364 803.331865 
L 124.363636 803.137628 
L 121.090909 801.823789 
L 117.818182 801.06617 
L 116.317297 800.538545 
L 114.545455 799.667785 
L 111.272727 798.951548 
L 108 798.148719 
L 105.026318 797.257649 
L 104.727273 797.108063 
L 101.454545 796.065731 
L 98.181818 795.909199 
L 94.909091 795.349739 
L 92.088156 793.976753 
L 91.636364 793.817344 
L 88.363636 793.953524 
L 85.090909 792.238779 
L 81.818182 791.411206 
L 79.984621 790.695858 
L 78.545455 789.869633 
L 75.272727 789.09593 
L 72 788.263084 
L 71.422459 788.106817 
M 52.986086 783.00452 
L 52.363636 782.852464 
L 49.090909 782.199474 
L 45.818182 781.326303 
L 43.96108 780.853171 
L 42.545455 780.300065 
L 39.272727 779.623867 
L 36 779.175458 
L 32.727273 778.684275 
L 29.454545 778.162865 
L 27.578347 777.572275 
L 26.181818 777.14177 
L 22.909091 776.701732 
L 19.636364 777.030091 
L 16.363636 776.248076 
L 13.090909 775.168647 
L 9.818182 774.784691 
L 8.214535 774.291379 
L 6.545455 773.544427 
L 3.272727 772.876099 
L -0 772.633105 
" clip-path="url(#pafecd3ef20)" style="fill: none"/>
    <path d="M 175.611804 816.943023 
L 173.454545 816.269589 
L 170.181818 816.320177 
L 166.909091 816.245958 
L 163.636364 814.420863 
L 160.363636 814.178558 
L 159.233064 813.662128 
L 157.090909 812.497326 
L 153.818182 811.522635 
L 150.929382 810.381232 
L 150.545455 810.174087 
L 147.272727 809.199155 
L 144 808.462654 
L 140.727273 807.646538 
L 139.522038 807.100336 
L 137.454545 806.433298 
L 134.181818 806.258107 
L 130.909091 805.760149 
L 127.636364 804.403184 
L 124.363636 804.09838 
L 123.639294 803.819441 
L 121.090909 802.703971 
L 120.417105 802.512313 
M 102.089912 797.134293 
L 101.454545 796.922268 
L 98.181818 796.853242 
L 94.909091 797.128355 
L 91.636364 795.002871 
L 88.363636 794.674396 
L 86.627975 793.976753 
L 85.090909 793.168033 
L 81.818182 792.100254 
L 78.545455 790.844688 
L 78.138621 790.695858 
L 75.272727 789.790285 
L 72 788.94039 
L 68.727273 788.119284 
L 66.362231 787.414962 
L 65.454545 787.100527 
L 62.181818 786.340843 
L 58.909091 785.494165 
L 55.636364 784.622625 
L 53.889301 784.134066 
L 52.363636 783.697164 
L 49.090909 782.935973 
L 45.818182 782.077795 
L 42.545455 781.321081 
L 40.731441 780.853171 
L 39.272727 780.490664 
L 36 779.919141 
L 32.727273 779.52798 
L 29.454545 779.392594 
L 26.181818 779.02883 
L 22.909091 777.835193 
L 19.636364 778.054614 
L 16.606258 777.572275 
L 16.363636 777.517836 
L 13.090909 776.170491 
L 9.818182 775.526951 
L 6.545455 774.558906 
L 5.618518 774.291379 
L 3.272727 773.671133 
L -0 773.355176 
" clip-path="url(#pafecd3ef20)" style="fill: none"/>
    <path d="M 165.87874 816.943023 
L 163.636364 815.493003 
L 160.363636 814.935914 
L 157.575058 813.662128 
L 157.090909 813.398871 
L 153.818182 812.177736 
L 150.545455 811.07683 
L 148.992873 810.381232 
L 147.272727 809.837641 
L 144 809.179977 
L 140.727273 808.715096 
L 137.454545 807.358176 
L 134.181818 807.108442 
L 133.446043 807.100336 
L 130.909091 807.066426 
L 127.636364 805.419638 
L 124.363636 804.872745 
L 121.628442 803.819441 
L 121.090909 803.584154 
L 117.818182 802.479971 
L 114.545455 801.616695 
L 111.927811 800.538545 
L 111.272727 800.343649 
L 108 799.686981 
L 104.727273 799.619303 
L 101.454545 799.320916 
L 98.181818 797.992314 
L 94.909091 797.985153 
L 93.271328 797.257649 
L 91.636364 796.173745 
L 88.363636 795.384294 
L 85.090909 794.092098 
L 84.861824 793.976753 
L 81.818182 792.789303 
L 78.545455 791.648567 
L 75.941178 790.695858 
L 75.272727 790.484639 
L 72 789.617696 
L 68.727273 788.864759 
L 65.454545 788.007634 
L 63.704423 787.414962 
L 62.181818 787.031803 
L 58.909091 786.215173 
L 55.636364 785.447496 
L 52.363636 784.613645 
L 50.939602 784.134066 
L 49.090909 783.672473 
L 45.818182 782.829287 
L 42.545455 782.220772 
L 39.272727 781.618926 
L 36.999902 780.853171 
L 36 780.662825 
L 32.727273 780.371684 
L 29.454545 780.622323 
L 27.850292 780.853171 
L 26.181818 781.047492 
L 25.506095 780.853171 
L 22.909091 779.559404 
L 19.636364 778.955432 
L 16.363636 778.39453 
L 14.054159 777.572275 
L 13.090909 777.172335 
L 11.168353 776.641797 
" clip-path="url(#pafecd3ef20)" style="fill: none"/>
    <path d="M 164.220734 816.943023 
L 163.636364 816.565144 
L 162.631406 816.297417 
M 144.749117 810.032473 
L 144 809.8973 
L 140.727273 809.783655 
L 137.454545 809.451941 
L 134.181818 808.185135 
L 130.909091 807.988532 
L 128.95044 807.100336 
L 127.636364 806.436092 
L 124.363636 805.64711 
L 121.090909 804.670651 
L 119.61759 803.819441 
L 117.818182 803.186872 
L 114.545455 802.58031 
L 111.272727 801.882353 
L 108.424045 800.538545 
L 108 800.456112 
L 107.062274 800.538545 
L 104.727273 800.957317 
L 101.454545 801.137409 
L 100.161402 800.538545 
L 98.181818 799.277541 
L 94.909091 798.769687 
L 91.636364 797.331551 
L 91.494468 797.257649 
L 88.363636 796.094192 
L 85.090909 794.981356 
L 83.095673 793.976753 
L 81.818182 793.478351 
L 78.545455 792.452447 
L 75.272727 791.433985 
L 73.50424 790.695858 
L 72 790.295002 
L 68.727273 789.610234 
L 65.454545 788.937469 
L 62.181818 787.942337 
L 60.867824 787.414962 
L 58.909091 786.936181 
L 55.636364 786.272367 
L 52.363636 785.60703 
L 49.090909 784.69925 
L 47.989903 784.134066 
L 45.818182 783.580779 
L 42.545455 783.120463 
L 39.272727 782.935141 
L 36 782.772344 
L 32.727273 783.305851 
L 29.454545 782.027122 
L 26.181818 782.0428 
L 22.909091 781.127481 
L 22.306711 780.853171 
L 19.636364 779.85625 
L 16.363636 779.253618 
L 13.090909 778.271838 
L 11.641231 777.572275 
L 9.818182 777.011472 
L 6.545455 776.294539 
L 3.272727 775.798148 
L -0 775.593109 
" clip-path="url(#pafecd3ef20)" style="fill: none"/>
    <path d="M 162.003288 816.943023 
L 160.363636 816.450625 
L 157.090909 815.703478 
L 154.259044 813.662128 
L 153.818182 813.487937 
L 150.545455 812.887244 
L 147.272727 812.037995 
L 144 811.180267 
L 140.727273 810.991962 
L 137.454545 811.004553 
L 136.313967 810.381232 
L 134.181818 809.261828 
L 130.909091 808.9004 
L 127.636364 807.60711 
L 126.709248 807.100336 
L 124.363636 806.421475 
L 121.090909 805.832421 
L 117.818182 804.148354 
L 116.938208 803.819441 
L 114.545455 803.543925 
L 111.272727 803.74876 
L 110.941387 803.819441 
L 108 804.210242 
L 107.051656 803.819441 
L 104.727273 802.526481 
L 101.454545 802.07178 
L 98.181818 800.559826 
L 98.133382 800.538545 
L 94.909091 799.554221 
L 91.636364 798.326478 
L 89.584151 797.257649 
L 88.363636 796.80409 
L 87.457973 796.545769 
M 69.449268 790.497875 
L 68.727273 790.355709 
L 65.454545 789.867304 
L 62.181818 789.126205 
L 58.909091 788.004746 
L 57.384427 787.414962 
L 55.636364 787.097238 
L 52.363636 786.600414 
L 49.090909 786.213429 
L 45.818182 785.012772 
L 43.606953 784.134066 
L 42.545455 784.020155 
L 40.624626 784.134066 
L 39.272727 784.502144 
L 36 784.988633 
L 32.727273 785.125153 
L 30.59584 784.134066 
L 29.454545 783.47238 
L 26.181818 783.038109 
L 22.909091 782.226275 
L 19.893783 780.853171 
L 19.636364 780.757068 
L 16.363636 780.112705 
L 13.090909 779.43623 
L 9.818182 778.109167 
L 8.702048 777.572275 
L 6.545455 777.162356 
L 3.272727 777.033358 
L -0 777.443608 
" clip-path="url(#pafecd3ef20)" style="fill: none"/>
    <path d="M 157.404882 816.943023 
L 157.090909 816.898653 
L 153.818182 815.54478 
L 150.545455 814.056652 
L 148.800176 813.662128 
L 147.272727 813.480383 
L 144 813.63609 
L 140.727273 812.37758 
L 137.454545 812.125306 
L 134.26317 810.381232 
L 134.181818 810.338521 
L 130.909091 809.812268 
L 127.636364 809.069629 
L 124.363636 807.564105 
L 122.483629 807.100336 
L 121.090909 806.994191 
L 119.065597 807.100336 
L 117.818182 807.225417 
L 114.545455 807.369564 
L 113.508631 807.100336 
L 111.272727 806.071192 
L 108 805.372711 
L 104.727273 804.03265 
L 104.176769 803.819441 
L 101.454545 803.00615 
L 98.181818 801.688922 
L 95.563532 800.538545 
L 94.909091 800.338755 
L 91.636364 799.321405 
L 88.363636 797.809727 
L 87.080315 797.257649 
L 85.090909 796.759872 
L 81.818182 795.723543 
L 78.545455 794.167402 
L 77.867022 793.976753 
L 75.272727 793.555636 
L 72 792.758441 
L 68.727273 791.681276 
L 65.454545 790.968917 
L 64.634665 790.695858 
L 62.181818 790.310073 
L 58.909091 789.760289 
L 55.636364 789.290952 
L 55.226314 789.186201 
M 36.442287 786.954271 
L 36 786.798888 
L 32.727273 786.28428 
L 29.454545 784.96035 
L 26.696279 784.134066 
L 26.181818 784.033418 
L 22.909091 783.325069 
L 19.636364 782.433376 
L 16.363636 781.253346 
L 15.090595 780.853171 
L 13.090909 780.600623 
L 9.818182 780.305352 
L 6.545455 779.710457 
L 3.272727 779.616683 
L -0 779.663806 
" clip-path="url(#pafecd3ef20)" style="fill: none"/>
    <path d="M 150.888811 816.943023 
L 150.545455 816.796949 
L 149.253314 816.290456 
M 130.886679 811.70027 
L 127.636364 810.736662 
L 124.363636 810.866802 
L 121.090909 810.67117 
L 119.953976 810.381232 
L 117.818182 809.448158 
L 114.545455 808.689881 
L 111.272727 807.778974 
L 109.520495 807.100336 
L 108 806.535179 
L 104.727273 805.243927 
L 101.454545 804.004227 
L 101.037338 803.819441 
L 98.181818 802.818017 
L 94.909091 801.653256 
L 92.390944 800.538545 
L 91.636364 800.316332 
L 88.363636 799.338634 
L 85.090909 798.055051 
L 82.524853 797.257649 
L 81.818182 797.09177 
L 78.545455 796.003876 
L 75.272727 795.019026 
L 72 794.260412 
L 70.733667 793.976753 
L 68.727273 793.493654 
L 65.454545 793.475798 
L 62.181818 792.472808 
L 58.909091 791.703981 
L 55.636364 791.571232 
L 52.363636 791.532544 
L 49.090909 790.920795 
L 47.660021 790.695858 
L 45.818182 790.255391 
L 42.545455 789.805167 
L 39.272727 789.395809 
L 36 788.456692 
L 32.727273 787.463019 
L 32.600825 787.414962 
L 29.454545 786.484389 
L 26.181818 785.971707 
L 22.909091 784.883093 
L 19.636364 784.235632 
L 16.363636 784.148209 
L 16.221025 784.134066 
L 13.090909 783.66021 
L 9.818182 783.060743 
L 6.545455 782.855779 
L 3.272727 782.639076 
L -0 782.141499 
" clip-path="url(#pafecd3ef20)" style="fill: none"/>
    <path d="M 144.873307 816.943023 
L 144 816.75854 
L 140.727273 815.889199 
L 137.454545 815.362814 
L 134.181818 814.462935 
L 130.909091 814.425775 
L 127.636364 813.861463 
L 126.807067 813.662128 
L 124.363636 812.802679 
L 121.090909 811.968658 
L 117.818182 811.115042 
L 115.613339 810.381232 
L 114.545455 810.010198 
L 111.272727 808.990251 
L 108 807.777731 
L 106.392995 807.100336 
L 104.727273 806.455204 
L 101.454545 805.430219 
L 98.181818 803.996819 
L 97.52272 803.819441 
L 94.909091 803.148832 
L 91.636364 801.844327 
L 88.363636 800.8562 
L 87.162441 800.538545 
L 85.090909 799.866369 
L 81.818182 798.63744 
L 78.545455 797.688044 
L 76.850065 797.257649 
L 75.272727 796.747425 
L 72 795.946483 
L 68.727273 795.183833 
L 65.454545 795.009224 
L 62.181818 794.539914 
L 59.268662 793.976753 
L 58.909091 793.862348 
L 55.636364 793.19359 
L 52.363636 792.899542 
L 49.090909 792.380675 
L 45.818182 791.922195 
L 42.545455 791.505933 
L 39.272727 790.957892 
L 38.407521 790.695858 
L 36 790.035847 
L 35.474017 789.937089 
M 16.790029 786.544821 
L 16.363636 786.496284 
L 13.090909 786.239274 
L 9.818182 785.851657 
L 6.545455 785.386263 
L 3.272727 784.934066 
L -0 784.54941 
" clip-path="url(#pafecd3ef20)" style="fill: none"/>
    <path d="M 133.714933 816.943023 
L 130.909091 816.140369 
L 127.636364 815.184382 
L 124.363636 814.433595 
L 122.25065 813.662128 
L 121.090909 813.266146 
L 117.818182 812.379764 
L 114.545455 811.33417 
L 111.83253 810.381232 
L 111.272727 810.201528 
L 108 809.096053 
L 104.727273 807.782038 
L 103.951839 807.561355 
M 85.869056 801.587472 
L 85.090909 801.355103 
L 82.639712 800.538545 
L 81.818182 800.20759 
L 78.545455 799.044498 
L 75.272727 798.12879 
L 72 797.542468 
L 70.491629 797.257649 
L 68.727273 796.829601 
L 65.454545 796.299542 
L 62.181818 795.8513 
L 58.909091 795.334681 
L 55.636364 794.835739 
L 52.363636 794.363022 
L 50.091058 793.976753 
L 49.090909 793.840555 
L 45.818182 793.451923 
L 42.545455 793.137872 
L 39.272727 792.70244 
L 36 791.871768 
L 32.727273 791.369904 
L 29.454545 790.767979 
L 29.109659 790.695858 
L 26.181818 790.107756 
L 22.909091 789.79812 
L 19.636364 789.392078 
L 16.363636 788.87534 
L 13.090909 788.439987 
L 9.818182 788.084161 
L 6.545455 787.590961 
L 5.763973 787.414962 
L 3.272727 786.718606 
L -0 786.077982 
" clip-path="url(#pafecd3ef20)" style="fill: none"/>
    <path d="M 128.887962 816.943023 
L 127.636364 816.507302 
L 124.363636 815.821021 
L 121.090909 814.692075 
L 118.440799 813.841326 
M 90.997897 804.682452 
L 88.392508 803.819441 
L 88.363636 803.808598 
L 85.090909 802.653489 
L 81.818182 801.545158 
L 78.91818 800.538545 
L 78.545455 800.400952 
L 75.272727 799.364803 
L 72 798.823391 
L 68.727273 798.362946 
L 65.454545 797.718926 
L 62.900239 797.257649 
L 62.181818 797.162686 
L 58.909091 796.768616 
L 55.636364 796.496359 
L 52.363636 796.185152 
L 49.090909 795.714662 
L 45.818182 795.260917 
L 42.545455 794.901677 
L 39.272727 794.4959 
L 36.440464 793.976753 
L 36 793.892065 
L 32.727273 793.300179 
L 29.454545 792.934392 
L 26.181818 792.336337 
L 22.909091 791.939926 
L 19.636364 791.534166 
L 16.363636 791.064746 
L 14.261121 790.695858 
L 13.090909 790.428932 
L 9.818182 789.670056 
L 6.545455 789.028779 
L 3.272727 788.328533 
L -0 787.617752 
" clip-path="url(#pafecd3ef20)" style="fill: none"/>
    <path d="M 123.481576 816.943023 
L 121.090909 816.174421 
L 117.818182 815.050219 
L 114.545455 814.036156 
L 113.580445 813.662128 
L 111.950893 813.107723 
M 84.465715 803.733875 
L 81.818182 802.820609 
L 78.545455 801.927723 
L 75.272727 800.635054 
L 74.849285 800.538545 
L 72 800.104314 
L 68.727273 799.856772 
L 65.454545 799.510539 
L 62.181818 799.137666 
L 58.909091 798.662874 
L 55.636364 798.342695 
L 52.363636 798.076191 
L 49.090909 797.680448 
L 46.1422 797.257649 
L 45.818182 797.215764 
L 42.545455 796.804967 
L 39.272727 796.421916 
L 36 795.900571 
L 32.727273 795.341378 
L 29.454545 794.997862 
L 26.181818 794.457214 
L 22.909091 794.055518 
L 22.561554 793.976753 
L 19.636364 793.290392 
L 16.363636 792.594612 
L 13.090909 792.065438 
L 9.818182 791.321576 
L 7.563435 790.695858 
L 6.545455 790.466596 
L 3.272727 789.826721 
L -0 789.23566 
" clip-path="url(#pafecd3ef20)" style="fill: none"/>
    <path d="M 119.183334 816.943023 
L 117.818182 816.457946 
L 114.545455 815.571695 
L 111.272727 814.407139 
L 109.595259 813.662128 
L 108 813.124326 
L 104.727273 812.2419 
L 101.454545 811.121156 
L 99.819144 810.381232 
L 98.181818 809.839296 
L 94.909091 809.025433 
L 91.636364 807.731046 
L 90.019362 807.100336 
L 88.363636 806.655254 
L 85.090909 805.767982 
L 81.818182 804.324419 
L 80.206864 803.819441 
L 78.545455 803.473721 
L 75.272727 802.550681 
L 72 802.016314 
L 68.727273 801.72936 
L 65.454545 801.453958 
L 62.181818 801.218226 
L 58.909091 800.824286 
L 57.087834 800.538545 
L 55.636364 800.346242 
L 52.363636 800.065817 
L 50.367282 799.933416 
M 21.686918 795.535525 
L 19.636364 795.172587 
L 16.363636 794.186039 
L 15.326905 793.976753 
L 13.090909 793.647314 
L 9.818182 793.093286 
L 6.545455 792.230833 
L 3.272727 791.447252 
L -0 790.866685 
" clip-path="url(#pafecd3ef20)" style="fill: none"/>
    <path d="M 113.882653 816.943023 
L 111.272727 816.191586 
L 108 814.976932 
L 104.727273 813.825475 
L 104.206621 813.662128 
L 101.454545 812.973169 
L 98.181818 811.774111 
L 94.909091 810.756054 
L 93.739417 810.381232 
L 91.636364 809.796011 
L 88.363636 808.700218 
L 85.090909 807.72148 
L 83.252099 807.100336 
L 81.818182 806.652795 
L 78.545455 805.629456 
L 75.272727 804.6679 
L 72 804.300444 
L 68.727273 803.939614 
L 67.707486 803.819441 
L 65.454545 803.601746 
L 62.181818 803.419141 
L 58.909091 803.196874 
L 55.636364 802.73842 
L 52.363636 802.2406 
L 49.090909 801.892715 
L 45.818182 801.520992 
L 43.805218 801.168164 
M 15.254264 796.076232 
L 13.090909 795.53564 
L 9.818182 794.902696 
L 6.545455 794.077996 
L 6.231078 793.976753 
L 3.272727 793.23682 
L -0 792.619148 
" clip-path="url(#pafecd3ef20)" style="fill: none"/>
    <path d="M 107.27092 816.943023 
L 104.727273 816.146485 
L 101.454545 815.30244 
L 98.181818 814.243201 
L 96.687095 813.662128 
L 94.909091 813.134009 
L 91.636364 812.376941 
L 88.363636 811.255038 
L 85.635387 810.381232 
L 85.090909 810.241473 
L 81.818182 809.356661 
L 78.545455 808.198573 
L 75.272727 807.192818 
L 74.611992 807.100336 
L 72 806.786672 
L 68.727273 806.558965 
L 65.454545 806.242979 
L 62.181818 805.738071 
L 58.909091 805.61496 
L 55.636364 805.385863 
L 52.363636 804.795536 
L 49.090909 803.922902 
L 46.261306 803.819441 
L 45.818182 803.80876 
L 42.545455 803.403287 
L 39.272727 802.823755 
L 37.097672 802.407073 
M 8.84518 796.640366 
L 6.545455 796.382175 
L 3.272727 795.573214 
L -0 794.681074 
" clip-path="url(#pafecd3ef20)" style="fill: none"/>
    <path d="M 96.720406 816.943023 
L 94.909091 816.371055 
L 91.636364 815.363984 
L 88.363636 814.741812 
L 86.271188 813.662128 
L 85.090909 813.259152 
L 81.818182 812.535739 
L 78.545455 811.571903 
L 76.167506 810.381232 
L 75.272727 810.090677 
L 72 809.731657 
L 68.727273 809.684689 
L 65.454545 809.603526 
L 62.181818 809.274867 
L 58.909091 808.646315 
L 55.636364 808.402351 
L 52.363636 808.342238 
L 49.090909 807.612393 
L 47.858199 807.100336 
L 45.818182 806.69638 
L 42.545455 806.180737 
L 39.272727 805.908411 
L 36 805.371796 
L 32.727273 804.775144 
L 29.867392 803.819441 
L 29.454545 803.744713 
L 26.181818 803.611729 
L 25.071796 803.515307 
M -0 812.167677 
L 3.272727 813.173469 
L 4.778685 813.662128 
L 6.545455 814.29001 
L 9.818182 815.295412 
L 13.090909 816.333653 
L 14.889825 816.943023 
" clip-path="url(#pafecd3ef20)" style="fill: none"/>
    <path clip-path="url(#pafecd3ef20)" style="fill: none"/>
    <path clip-path="url(#pafecd3ef20)" style="fill: none"/>
    <path clip-path="url(#pafecd3ef20)" style="fill: none"/>
    <path clip-path="url(#pafecd3ef20)" style="fill: none"/>
    <path clip-path="url(#pafecd3ef20)" style="fill: none"/>
    <path clip-path="url(#pafecd3ef20)" style="fill: none"/>
    <path clip-path="url(#pafecd3ef20)" style="fill: none"/>
    <path clip-path="url(#pafecd3ef20)" style="fill: none"/>
    <path clip-path="url(#pafecd3ef20)" style="fill: none"/>
    <path clip-path="url(#pafecd3ef20)" style="fill: none"/>
    <path clip-path="url(#pafecd3ef20)" style="fill: none"/>
    <path clip-path="url(#pafecd3ef20)" style="fill: none"/>
    <path clip-path="url(#pafecd3ef20)" style="fill: none"/>
    <path clip-path="url(#pafecd3ef20)" style="fill: none"/>
    <path clip-path="url(#pafecd3ef20)" style="fill: none"/>
    <path clip-path="url(#pafecd3ef20)" style="fill: none"/>
    <path clip-path="url(#pafecd3ef20)" style="fill: none"/>
    <path clip-path="url(#pafecd3ef20)" style="fill: none"/>
    <path clip-path="url(#pafecd3ef20)" style="fill: none"/>
    <path clip-path="url(#pafecd3ef20)" style="fill: none"/>
    <path clip-path="url(#pafecd3ef20)" style="fill: none"/>
    <path clip-path="url(#pafecd3ef20)" style="fill: none"/>
    <path clip-path="url(#pafecd3ef20)" style="fill: none"/>
   </g>
   <g id="text_1">
    <g clip-path="url(#pafecd3ef20)">
     <!-- 0 -->
     <g style="opacity: 0" transform="translate(87.160215 794.873545) rotate(-346.717445) scale(0.12 -0.12)">
      <defs>
       <path id="DejaVuSans-30" d="M 2034 4250 
Q 1547 4250 1301 3770 
Q 1056 3291 1056 2328 
Q 1056 1369 1301 889 
Q 1547 409 2034 409 
Q 2525 409 2770 889 
Q 3016 1369 3016 2328 
Q 3016 3291 2770 3770 
Q 2525 4250 2034 4250 
z
M 2034 4750 
Q 2819 4750 3233 4129 
Q 3647 3509 3647 2328 
Q 3647 1150 3233 529 
Q 2819 -91 2034 -91 
Q 1250 -91 836 529 
Q 422 1150 422 2328 
Q 422 3509 836 4129 
Q 1250 4750 2034 4750 
z
" transform="scale(0.015625)"/>
      </defs>
      <use xlink:href="#DejaVuSans-30"/>
     </g>
    </g>
   </g>
   <g id="text_2">
    <g clip-path="url(#pafecd3ef20)">
     <!-- 1 -->
     <g style="opacity: 0" transform="translate(57.676071 787.938099) rotate(-345.985496) scale(0.12 -0.12)">
      <defs>
       <path id="DejaVuSans-31" d="M 794 531 
L 1825 531 
L 1825 4091 
L 703 3866 
L 703 4441 
L 1819 4666 
L 2450 4666 
L 2450 531 
L 3481 531 
L 3481 0 
L 794 0 
L 794 531 
z
" transform="scale(0.015625)"/>
      </defs>
      <use xlink:href="#DejaVuSans-31"/>
     </g>
    </g>
   </g>
   <g id="text_3">
    <g clip-path="url(#pafecd3ef20)">
     <!-- 2 -->
     <g style="opacity: 0" transform="translate(106.746464 801.894958) rotate(-345.467154) scale(0.12 -0.12)">
      <defs>
       <path id="DejaVuSans-32" d="M 1228 531 
L 3431 531 
L 3431 0 
L 469 0 
L 469 531 
Q 828 903 1448 1529 
Q 2069 2156 2228 2338 
Q 2531 2678 2651 2914 
Q 2772 3150 2772 3378 
Q 2772 3750 2511 3984 
Q 2250 4219 1831 4219 
Q 1534 4219 1204 4116 
Q 875 4013 500 3803 
L 500 4441 
Q 881 4594 1212 4672 
Q 1544 4750 1819 4750 
Q 2544 4750 2975 4387 
Q 3406 4025 3406 3419 
Q 3406 3131 3298 2873 
Q 3191 2616 2906 2266 
Q 2828 2175 2409 1742 
Q 1991 1309 1228 531 
z
" transform="scale(0.015625)"/>
      </defs>
      <use xlink:href="#DejaVuSans-32"/>
     </g>
    </g>
   </g>
   <g id="text_4">
    <g clip-path="url(#pafecd3ef20)">
     <!-- 3 -->
     <g style="opacity: 0" transform="translate(-2.527235 776.765051) rotate(-348.36967) scale(0.12 -0.12)">
      <defs>
       <path id="DejaVuSans-33" d="M 2597 2516 
Q 3050 2419 3304 2112 
Q 3559 1806 3559 1356 
Q 3559 666 3084 287 
Q 2609 -91 1734 -91 
Q 1441 -91 1130 -33 
Q 819 25 488 141 
L 488 750 
Q 750 597 1062 519 
Q 1375 441 1716 441 
Q 2309 441 2620 675 
Q 2931 909 2931 1356 
Q 2931 1769 2642 2001 
Q 2353 2234 1838 2234 
L 1294 2234 
L 1294 2753 
L 1863 2753 
Q 2328 2753 2575 2939 
Q 2822 3125 2822 3475 
Q 2822 3834 2567 4026 
Q 2313 4219 1838 4219 
Q 1578 4219 1281 4162 
Q 984 4106 628 3988 
L 628 4550 
Q 988 4650 1302 4700 
Q 1616 4750 1894 4750 
Q 2613 4750 3031 4423 
Q 3450 4097 3450 3541 
Q 3450 3153 3228 2886 
Q 3006 2619 2597 2516 
z
" transform="scale(0.015625)"/>
      </defs>
      <use xlink:href="#DejaVuSans-33"/>
     </g>
    </g>
   </g>
   <g id="text_5">
    <g clip-path="url(#pafecd3ef20)">
     <!-- 4 -->
     <g style="opacity: 0" transform="translate(149.06399 814.546121) rotate(-338.879871) scale(0.12 -0.12)">
      <defs>
       <path id="DejaVuSans-34" d="M 2419 4116 
L 825 1625 
L 2419 1625 
L 2419 4116 
z
M 2253 4666 
L 3047 4666 
L 3047 1625 
L 3713 1625 
L 3713 1100 
L 3047 1100 
L 3047 0 
L 2419 0 
L 2419 1100 
L 313 1100 
L 313 1709 
L 2253 4666 
z
" transform="scale(0.015625)"/>
      </defs>
      <use xlink:href="#DejaVuSans-34"/>
     </g>
    </g>
   </g>
   <g id="text_6">
    <g clip-path="url(#pafecd3ef20)">
     <!-- 5 -->
     <g style="opacity: 0" transform="translate(73.900787 795.247493) rotate(-342.266846) scale(0.12 -0.12)">
      <defs>
       <path id="DejaVuSans-35" d="M 691 4666 
L 3169 4666 
L 3169 4134 
L 1269 4134 
L 1269 2991 
Q 1406 3038 1543 3061 
Q 1681 3084 1819 3084 
Q 2600 3084 3056 2656 
Q 3513 2228 3513 1497 
Q 3513 744 3044 326 
Q 2575 -91 1722 -91 
Q 1428 -91 1123 -41 
Q 819 9 494 109 
L 494 744 
Q 775 591 1075 516 
Q 1375 441 1709 441 
Q 2250 441 2565 725 
Q 2881 1009 2881 1497 
Q 2881 1984 2565 2268 
Q 2250 2553 1709 2553 
Q 1456 2553 1204 2497 
Q 953 2441 691 2322 
L 691 4666 
z
" transform="scale(0.015625)"/>
      </defs>
      <use xlink:href="#DejaVuSans-35"/>
     </g>
    </g>
   </g>
   <g id="text_7">
    <g clip-path="url(#pafecd3ef20)">
     <!-- 6 -->
     <g style="opacity: 0" transform="translate(41.901678 791.228057) rotate(-358.256027) scale(0.12 -0.12)">
      <defs>
       <path id="DejaVuSans-36" d="M 2113 2584 
Q 1688 2584 1439 2293 
Q 1191 2003 1191 1497 
Q 1191 994 1439 701 
Q 1688 409 2113 409 
Q 2538 409 2786 701 
Q 3034 994 3034 1497 
Q 3034 2003 2786 2293 
Q 2538 2584 2113 2584 
z
M 3366 4563 
L 3366 3988 
Q 3128 4100 2886 4159 
Q 2644 4219 2406 4219 
Q 1781 4219 1451 3797 
Q 1122 3375 1075 2522 
Q 1259 2794 1537 2939 
Q 1816 3084 2150 3084 
Q 2853 3084 3261 2657 
Q 3669 2231 3669 1497 
Q 3669 778 3244 343 
Q 2819 -91 2113 -91 
Q 1303 -91 875 529 
Q 447 1150 447 2328 
Q 447 3434 972 4092 
Q 1497 4750 2381 4750 
Q 2619 4750 2861 4703 
Q 3103 4656 3366 4563 
z
" transform="scale(0.015625)"/>
      </defs>
      <use xlink:href="#DejaVuSans-36"/>
     </g>
    </g>
   </g>
   <g id="text_8">
    <g clip-path="url(#pafecd3ef20)">
     <!-- 7 -->
     <g style="opacity: 0" transform="translate(135.621284 815.822232) rotate(-344.367806) scale(0.12 -0.12)">
      <defs>
       <path id="DejaVuSans-37" d="M 525 4666 
L 3525 4666 
L 3525 4397 
L 1831 0 
L 1172 0 
L 2766 4134 
L 525 4134 
L 525 4666 
z
" transform="scale(0.015625)"/>
      </defs>
      <use xlink:href="#DejaVuSans-37"/>
     </g>
    </g>
   </g>
   <g id="text_9">
    <g clip-path="url(#pafecd3ef20)">
     <!-- 8 -->
     <g style="opacity: 0" transform="translate(21.890613 790.695769) rotate(-350.941844) scale(0.12 -0.12)">
      <defs>
       <path id="DejaVuSans-38" d="M 2034 2216 
Q 1584 2216 1326 1975 
Q 1069 1734 1069 1313 
Q 1069 891 1326 650 
Q 1584 409 2034 409 
Q 2484 409 2743 651 
Q 3003 894 3003 1313 
Q 3003 1734 2745 1975 
Q 2488 2216 2034 2216 
z
M 1403 2484 
Q 997 2584 770 2862 
Q 544 3141 544 3541 
Q 544 4100 942 4425 
Q 1341 4750 2034 4750 
Q 2731 4750 3128 4425 
Q 3525 4100 3525 3541 
Q 3525 3141 3298 2862 
Q 3072 2584 2669 2484 
Q 3125 2378 3379 2068 
Q 3634 1759 3634 1313 
Q 3634 634 3220 271 
Q 2806 -91 2034 -91 
Q 1263 -91 848 271 
Q 434 634 434 1313 
Q 434 1759 690 2068 
Q 947 2378 1403 2484 
z
M 1172 3481 
Q 1172 3119 1398 2916 
Q 1625 2713 2034 2713 
Q 2441 2713 2670 2916 
Q 2900 3119 2900 3481 
Q 2900 3844 2670 4047 
Q 2441 4250 2034 4250 
Q 1625 4250 1398 4047 
Q 1172 3844 1172 3481 
z
" transform="scale(0.015625)"/>
      </defs>
      <use xlink:href="#DejaVuSans-38"/>
     </g>
    </g>
   </g>
   <g id="text_10">
    <g clip-path="url(#pafecd3ef20)">
     <!-- 9 -->
     <g style="opacity: 0" transform="translate(90.247243 806.538351) rotate(-341.767389) scale(0.12 -0.12)">
      <defs>
       <path id="DejaVuSans-39" d="M 703 97 
L 703 672 
Q 941 559 1184 500 
Q 1428 441 1663 441 
Q 2288 441 2617 861 
Q 2947 1281 2994 2138 
Q 2813 1869 2534 1725 
Q 2256 1581 1919 1581 
Q 1219 1581 811 2004 
Q 403 2428 403 3163 
Q 403 3881 828 4315 
Q 1253 4750 1959 4750 
Q 2769 4750 3195 4129 
Q 3622 3509 3622 2328 
Q 3622 1225 3098 567 
Q 2575 -91 1691 -91 
Q 1453 -91 1209 -44 
Q 966 3 703 97 
z
M 1959 2075 
Q 2384 2075 2632 2365 
Q 2881 2656 2881 3163 
Q 2881 3666 2632 3958 
Q 2384 4250 1959 4250 
Q 1534 4250 1286 3958 
Q 1038 3666 1038 3163 
Q 1038 2656 1286 2365 
Q 1534 2075 1959 2075 
z
" transform="scale(0.015625)"/>
      </defs>
      <use xlink:href="#DejaVuSans-39"/>
     </g>
    </g>
   </g>
   <g id="text_11">
    <g clip-path="url(#pafecd3ef20)">
     <!-- 10 -->
     <g style="opacity: 0" transform="translate(96.43431 809.936524) rotate(-341.35114) scale(0.12 -0.12)">
      <use xlink:href="#DejaVuSans-31"/>
      <use xlink:href="#DejaVuSans-30" transform="translate(63.623047 0)"/>
     </g>
    </g>
   </g>
   <g id="text_12">
    <g clip-path="url(#pafecd3ef20)">
     <!-- 11 -->
     <g style="opacity: 0" transform="translate(89.892416 809.221604) rotate(-341.635837) scale(0.12 -0.12)">
      <use xlink:href="#DejaVuSans-31"/>
      <use xlink:href="#DejaVuSans-31" transform="translate(63.623047 0)"/>
     </g>
    </g>
   </g>
   <g id="text_13">
    <g clip-path="url(#pafecd3ef20)">
     <!-- 12 -->
     <g style="opacity: 0" transform="translate(27.937514 799.940082) rotate(-350.903307) scale(0.12 -0.12)">
      <use xlink:href="#DejaVuSans-31"/>
      <use xlink:href="#DejaVuSans-32" transform="translate(63.623047 0)"/>
     </g>
    </g>
   </g>
   <g id="text_14">
    <g clip-path="url(#pafecd3ef20)">
     <!-- 13 -->
     <g style="opacity: 0" transform="translate(21.386404 801.051756) rotate(-350.745347) scale(0.12 -0.12)">
      <use xlink:href="#DejaVuSans-31"/>
      <use xlink:href="#DejaVuSans-33" transform="translate(63.623047 0)"/>
     </g>
    </g>
   </g>
   <g id="text_15">
    <g clip-path="url(#pafecd3ef20)">
     <!-- 14 -->
     <g style="opacity: 0" transform="translate(14.769518 801.511389) rotate(-348.576581) scale(0.12 -0.12)">
      <use xlink:href="#DejaVuSans-31"/>
      <use xlink:href="#DejaVuSans-34" transform="translate(63.623047 0)"/>
     </g>
    </g>
   </g>
   <g id="text_16">
    <g clip-path="url(#pafecd3ef20)">
     <!-- 15 -->
     <g style="opacity: 0" transform="translate(2.830247 802.19144) rotate(-348.009903) scale(0.12 -0.12)">
      <use xlink:href="#DejaVuSans-31"/>
      <use xlink:href="#DejaVuSans-35" transform="translate(63.623047 0)"/>
     </g>
    </g>
   </g>
  </g>
 </g>
 <defs>
  <clipPath id="pafecd3ef20">
   <rect x="0" y="0" width="576" height="816.943023"/>
  </clipPath>
 </defs>
</svg>
