<?xml version="1.0" encoding="utf-8" standalone="no"?>
<!DOCTYPE svg PUBLIC "-//W3C//DTD SVG 1.1//EN"
  "http://www.w3.org/Graphics/SVG/1.1/DTD/svg11.dtd">
<svg xmlns:xlink="http://www.w3.org/1999/xlink" width="576pt" height="817.373583pt" viewBox="0 0 576 817.373583" xmlns="http://www.w3.org/2000/svg" version="1.1">
 <metadata>
  <rdf:RDF xmlns:dc="http://purl.org/dc/elements/1.1/" xmlns:cc="http://creativecommons.org/ns#" xmlns:rdf="http://www.w3.org/1999/02/22-rdf-syntax-ns#">
   <cc:Work>
    <dc:type rdf:resource="http://purl.org/dc/dcmitype/StillImage"/>
    <dc:date>2025-07-25T22:44:19.058078</dc:date>
    <dc:format>image/svg+xml</dc:format>
    <dc:creator>
     <cc:Agent>
      <dc:title>Matplotlib v3.10.3, https://matplotlib.org/</dc:title>
     </cc:Agent>
    </dc:creator>
   </cc:Work>
  </rdf:RDF>
 </metadata>
 <defs>
  <style type="text/css">*{stroke-linejoin: round; stroke-linecap: butt}</style>
 </defs>
 <g id="figure_1">
  <g id="patch_1">
   <path d="M 0 817.373583 
L 576 817.373583 
L 576 0 
L 0 0 
L 0 817.373583 
z
" style="fill: none; opacity: 0"/>
  </g>
  <g id="axes_1">
   <g id="QuadContourSet_1">
    <path d="M 3.272727 44.337315 
L 6.545455 43.621803 
L 8.220549 42.674123 
L 9.818182 42.135839 
L 10.127884 42.674123 
L 13.090909 45.275028 
L 15.683972 42.674123 
L 16.363636 40.62653 
L 18.780118 39.391498 
L 19.636364 39.125319 
L 22.909091 38.115875 
L 26.181818 36.96831 
L 28.580362 36.108873 
L 29.454545 35.869457 
L 32.727273 33.91987 
L 36 34.327336 
L 39.272727 33.302102 
L 39.934975 32.826248 
L 42.545455 31.942638 
L 43.02531 32.826248 
L 45.818182 35.438975 
L 48.423031 32.826248 
L 49.090909 30.397737 
L 50.461006 29.543623 
L 52.363636 28.950273 
L 55.636364 28.160599 
L 58.909091 27.168408 
L 60.489194 26.260999 
L 62.181818 25.630803 
L 65.454545 24.048435 
L 68.727273 24.182361 
L 71.369424 22.978374 
L 72 22.622727 
L 75.272727 21.699932 
L 75.915738 22.978374 
L 78.545455 25.613898 
L 81.173033 22.978374 
L 81.818182 19.735066 
L 81.862711 19.695749 
L 85.090909 18.673704 
L 88.363636 18.096709 
L 91.636364 16.870555 
L 92.179335 16.413124 
L 94.909091 15.36027 
L 98.181818 13.941418 
L 101.454545 13.359093 
L 101.694729 13.130499 
L 104.727273 11.278588 
L 108 11.415788 
L 110.934153 9.847874 
L 111.272727 9.657755 
L 111.354853 9.847874 
L 114.545455 12.459636 
L 117.149341 9.847874 
L 117.818182 7.913661 
L 120.173578 6.56525 
L 121.090909 6.239336 
L 124.363636 5.249296 
L 127.636364 4.413893 
L 129.064827 3.282625 
L 130.909091 2.403442 
L 134.181818 1.049086 
L 137.454545 0.752462 
L 138.40398 0 
L 137.454545 0 
L 134.850328 0 
L 134.181818 0.07861 
L 130.909091 1.84076 
L 127.884487 3.282625 
L 127.636364 3.479126 
L 124.363636 4.677512 
L 121.090909 5.717765 
L 118.705541 6.56525 
L 117.818182 7.073243 
L 116.858729 9.847874 
L 114.545455 12.168145 
L 111.710947 9.847874 
L 111.272727 8.833409 
L 109.466116 9.847874 
L 108 10.631318 
L 104.727273 10.382088 
L 101.454545 12.309111 
L 98.181818 12.9715 
L 97.87839 13.130499 
L 94.909091 14.768531 
L 91.636364 16.069376 
L 90.550612 16.413124 
L 88.363636 17.365158 
L 85.090909 18.141662 
L 81.818182 19.118679 
L 80.182219 19.695749 
L 80.877881 22.978374 
L 78.545455 25.317854 
L 76.21113 22.978374 
L 75.272727 21.112629 
L 72 21.440837 
L 69.273887 22.978374 
L 68.727273 23.227457 
L 65.454545 23.032008 
L 62.181818 24.923378 
L 58.909091 26.162545 
L 58.653748 26.260999 
L 55.636364 27.525253 
L 52.363636 28.392172 
L 49.090909 29.398875 
L 48.671404 29.543623 
L 48.116215 32.826248 
L 45.818182 35.131232 
L 43.354272 32.826248 
L 42.545455 31.336883 
L 39.272727 32.052118 
L 37.869348 32.826248 
L 36 33.511133 
L 32.991285 32.826248 
L 32.727273 32.782079 
L 32.636681 32.826248 
L 29.454545 35.020915 
L 26.181818 35.973392 
L 25.903944 36.108873 
L 22.909091 37.531454 
L 19.636364 38.554726 
L 16.944628 39.391498 
L 16.363636 39.688435 
L 15.372587 42.674123 
L 13.090909 44.962701 
L 10.483696 42.674123 
L 9.818182 41.517416 
L 6.545455 42.564256 
L 6.340692 42.674123 
L 3.272727 43.617103 
L 0 43.160089 
L 0 44.389751 
z
" clip-path="url(#p5800aa2f73)" style="fill: #f5f9fe; fill-opacity: 0.9"/>
    <path d="M 3.272727 43.617103 
L 6.340692 42.674123 
L 6.545455 42.564256 
L 9.818182 41.517416 
L 10.483696 42.674123 
L 13.090909 44.962701 
L 15.372587 42.674123 
L 16.363636 39.688435 
L 16.944628 39.391498 
L 19.636364 38.554726 
L 22.909091 37.531454 
L 25.903944 36.108873 
L 26.181818 35.973392 
L 29.454545 35.020915 
L 32.636681 32.826248 
L 32.727273 32.782079 
L 32.991285 32.826248 
L 36 33.511133 
L 37.869348 32.826248 
L 39.272727 32.052118 
L 42.545455 31.336883 
L 43.354272 32.826248 
L 45.818182 35.131232 
L 48.116215 32.826248 
L 48.671404 29.543623 
L 49.090909 29.398875 
L 52.363636 28.392172 
L 55.636364 27.525253 
L 58.653748 26.260999 
L 58.909091 26.162545 
L 62.181818 24.923378 
L 65.454545 23.032008 
L 68.727273 23.227457 
L 69.273887 22.978374 
L 72 21.440837 
L 75.272727 21.112629 
L 76.21113 22.978374 
L 78.545455 25.317854 
L 80.877881 22.978374 
L 80.182219 19.695749 
L 81.818182 19.118679 
L 85.090909 18.141662 
L 88.363636 17.365158 
L 90.550612 16.413124 
L 91.636364 16.069376 
L 94.909091 14.768531 
L 97.87839 13.130499 
L 98.181818 12.9715 
L 101.454545 12.309111 
L 104.727273 10.382088 
L 108 10.631318 
L 109.466116 9.847874 
L 111.272727 8.833409 
L 111.710947 9.847874 
L 114.545455 12.168145 
L 116.858729 9.847874 
L 117.818182 7.073243 
L 118.705541 6.56525 
L 121.090909 5.717765 
L 124.363636 4.677512 
L 127.636364 3.479126 
L 127.884487 3.282625 
L 130.909091 1.84076 
L 134.181818 0.07861 
L 134.850328 0 
L 134.181818 0 
L 133.239106 0 
L 130.909091 1.278078 
L 127.636364 2.867919 
L 126.476928 3.282625 
L 124.363636 4.105728 
L 121.090909 5.196194 
L 117.818182 6.26347 
L 117.237503 6.56525 
L 116.568116 9.847874 
L 114.545455 11.876653 
L 112.067041 9.847874 
L 111.272727 8.009063 
L 108 9.844425 
L 104.727273 9.565593 
L 104.03495 9.847874 
L 101.454545 11.32705 
L 98.181818 12.409417 
L 96.805731 13.130499 
L 94.909091 14.176792 
L 91.636364 15.537334 
L 88.87012 16.413124 
L 88.363636 16.633606 
L 85.090909 17.609619 
L 81.818182 18.525901 
L 78.545455 19.663567 
L 78.486256 19.695749 
L 78.545455 19.708078 
L 80.582729 22.978374 
L 78.545455 25.021809 
L 76.506522 22.978374 
L 75.272727 20.525327 
L 72 20.258947 
L 68.727273 22.082946 
L 65.454545 22.424551 
L 64.304957 22.978374 
L 62.181818 24.215953 
L 58.909091 25.577871 
L 57.137374 26.260999 
L 55.636364 26.889907 
L 52.363636 27.834071 
L 49.090909 28.781381 
L 46.881802 29.543623 
L 47.8094 32.826248 
L 45.818182 34.823488 
L 43.683234 32.826248 
L 42.545455 30.731128 
L 39.272727 30.823237 
L 36 32.548208 
L 32.727273 32.182215 
L 31.406345 32.826248 
L 29.454545 34.172372 
L 26.181818 35.373527 
L 24.673608 36.108873 
L 22.909091 36.947034 
L 19.636364 37.984132 
L 16.363636 38.964106 
L 15.109139 39.391498 
L 15.061203 42.674123 
L 13.090909 44.650375 
L 10.839507 42.674123 
L 9.818182 40.898992 
L 6.545455 41.306989 
L 3.997496 42.674123 
L 3.272727 42.89689 
L 2.165327 42.674123 
L 0 42.268548 
L 0 42.674123 
L 0 43.160089 
z
" clip-path="url(#p5800aa2f73)" style="fill: #eff6fc; fill-opacity: 0.9"/>
    <path d="M 3.272727 42.89689 
L 3.997496 42.674123 
L 6.545455 41.306989 
L 9.818182 40.898992 
L 10.839507 42.674123 
L 13.090909 44.650375 
L 15.061203 42.674123 
L 15.109139 39.391498 
L 16.363636 38.964106 
L 19.636364 37.984132 
L 22.909091 36.947034 
L 24.673608 36.108873 
L 26.181818 35.373527 
L 29.454545 34.172372 
L 31.406345 32.826248 
L 32.727273 32.182215 
L 36 32.548208 
L 39.272727 30.823237 
L 42.545455 30.731128 
L 43.683234 32.826248 
L 45.818182 34.823488 
L 47.8094 32.826248 
L 46.881802 29.543623 
L 49.090909 28.781381 
L 52.363636 27.834071 
L 55.636364 26.889907 
L 57.137374 26.260999 
L 58.909091 25.577871 
L 62.181818 24.215953 
L 64.304957 22.978374 
L 65.454545 22.424551 
L 68.727273 22.082946 
L 72 20.258947 
L 75.272727 20.525327 
L 76.506522 22.978374 
L 78.545455 25.021809 
L 80.582729 22.978374 
L 78.545455 19.708078 
L 78.486256 19.695749 
L 78.545455 19.663567 
L 81.818182 18.525901 
L 85.090909 17.609619 
L 88.363636 16.633606 
L 88.87012 16.413124 
L 91.636364 15.537334 
L 94.909091 14.176792 
L 96.805731 13.130499 
L 98.181818 12.409417 
L 101.454545 11.32705 
L 104.03495 9.847874 
L 104.727273 9.565593 
L 108 9.844425 
L 111.272727 8.009063 
L 112.067041 9.847874 
L 114.545455 11.876653 
L 116.568116 9.847874 
L 117.237503 6.56525 
L 117.818182 6.26347 
L 121.090909 5.196194 
L 124.363636 4.105728 
L 126.476928 3.282625 
L 127.636364 2.867919 
L 130.909091 1.278078 
L 133.239106 0 
L 132.213303 0 
L 130.909091 0.715397 
L 127.636364 2.342833 
L 125.00889 3.282625 
L 124.363636 3.533944 
L 121.090909 4.674623 
L 117.818182 5.500528 
L 115.769466 6.56525 
L 116.277504 9.847874 
L 114.545455 11.585162 
L 112.423135 9.847874 
L 111.272727 7.184716 
L 108 7.208901 
L 104.727273 8.867069 
L 102.321754 9.847874 
L 101.454545 10.344988 
L 98.181818 11.847335 
L 95.733071 13.130499 
L 94.909091 13.585053 
L 91.636364 15.005291 
L 88.363636 15.98958 
L 87.189627 16.413124 
L 85.090909 17.077577 
L 81.818182 17.933124 
L 78.545455 18.426811 
L 76.211229 19.695749 
L 78.545455 20.181865 
L 80.287577 22.978374 
L 78.545455 24.725765 
L 76.801915 22.978374 
L 75.272727 19.938025 
L 73.830337 19.695749 
L 72 19.306258 
L 70.85332 19.695749 
L 68.727273 20.871523 
L 65.454545 21.839877 
L 63.091329 22.978374 
L 62.181818 23.508528 
L 58.909091 24.993197 
L 55.636364 26.254618 
L 55.618231 26.260999 
L 52.363636 27.275969 
L 49.090909 28.163887 
L 45.818182 29.02511 
L 44.846293 29.543623 
L 45.818182 29.769495 
L 47.502584 32.826248 
L 45.818182 34.515744 
L 44.012197 32.826248 
L 42.545455 30.125373 
L 39.272727 29.594356 
L 36 30.82006 
L 32.727273 31.58235 
L 30.176008 32.826248 
L 29.454545 33.323829 
L 26.181818 34.773662 
L 23.443271 36.108873 
L 22.909091 36.362613 
L 19.636364 37.413538 
L 16.363636 38.338778 
L 13.273649 39.391498 
L 14.749818 42.674123 
L 13.090909 44.338048 
L 11.195318 42.674123 
L 9.818182 40.280569 
L 6.545455 40.049722 
L 3.272727 40.951389 
L 0 41.597951 
L 0 42.268548 
L 2.165327 42.674123 
z
" clip-path="url(#p5800aa2f73)" style="fill: #eaf3fb; fill-opacity: 0.9"/>
    <path d="M 13.090909 44.338048 
L 14.749818 42.674123 
L 13.273649 39.391498 
L 16.363636 38.338778 
L 19.636364 37.413538 
L 22.909091 36.362613 
L 23.443271 36.108873 
L 26.181818 34.773662 
L 29.454545 33.323829 
L 30.176008 32.826248 
L 32.727273 31.58235 
L 36 30.82006 
L 39.272727 29.594356 
L 42.545455 30.125373 
L 44.012197 32.826248 
L 45.818182 34.515744 
L 47.502584 32.826248 
L 45.818182 29.769495 
L 44.846293 29.543623 
L 45.818182 29.02511 
L 49.090909 28.163887 
L 52.363636 27.275969 
L 55.618231 26.260999 
L 55.636364 26.254618 
L 58.909091 24.993197 
L 62.181818 23.508528 
L 63.091329 22.978374 
L 65.454545 21.839877 
L 68.727273 20.871523 
L 70.85332 19.695749 
L 72 19.306258 
L 73.830337 19.695749 
L 75.272727 19.938025 
L 76.801915 22.978374 
L 78.545455 24.725765 
L 80.287577 22.978374 
L 78.545455 20.181865 
L 76.211229 19.695749 
L 78.545455 18.426811 
L 81.818182 17.933124 
L 85.090909 17.077577 
L 87.189627 16.413124 
L 88.363636 15.98958 
L 91.636364 15.005291 
L 94.909091 13.585053 
L 95.733071 13.130499 
L 98.181818 11.847335 
L 101.454545 10.344988 
L 102.321754 9.847874 
L 104.727273 8.867069 
L 108 7.208901 
L 111.272727 7.184716 
L 112.423135 9.847874 
L 114.545455 11.585162 
L 116.277504 9.847874 
L 115.769466 6.56525 
L 117.818182 5.500528 
L 121.090909 4.674623 
L 124.363636 3.533944 
L 125.00889 3.282625 
L 127.636364 2.342833 
L 130.909091 0.715397 
L 132.213303 0 
L 131.187499 0 
L 130.909091 0.152715 
L 127.636364 1.817747 
L 124.363636 2.884666 
L 123.540853 3.282625 
L 121.090909 4.153052 
L 117.818182 4.737586 
L 114.545455 6.085448 
L 111.272727 6.207707 
L 108 6.129607 
L 107.189307 6.56525 
L 104.727273 8.168545 
L 101.454545 9.548687 
L 100.924859 9.847874 
L 98.181818 11.285252 
L 94.909091 12.982469 
L 94.633749 13.130499 
L 91.636364 14.473249 
L 88.363636 15.383313 
L 85.509135 16.413124 
L 85.090909 16.545534 
L 81.818182 17.340347 
L 78.545455 17.190055 
L 75.272727 17.22084 
L 72 18.562211 
L 68.727273 19.675057 
L 68.691558 19.695749 
L 65.454545 21.255203 
L 62.181818 22.807348 
L 61.8777 22.978374 
L 58.909091 24.408523 
L 55.636364 25.624921 
L 53.828629 26.260999 
L 52.363636 26.717868 
L 49.090909 27.546393 
L 45.818182 27.746934 
L 42.545455 29.084084 
L 39.272727 28.646904 
L 36 29.359454 
L 35.678409 29.543623 
L 32.727273 30.982485 
L 29.454545 32.542142 
L 28.945672 32.826248 
L 26.181818 34.173798 
L 22.909091 35.729746 
L 21.90938 36.108873 
L 19.636364 36.842944 
L 16.363636 37.71345 
L 13.090909 38.233406 
L 10.888579 39.391498 
L 9.818182 39.662145 
L 8.251317 39.391498 
L 6.545455 38.84415 
L 3.272727 39.12662 
L 2.812687 39.391498 
L 0 40.927355 
L 0 41.597951 
L 3.272727 40.951389 
L 6.545455 40.049722 
L 9.818182 40.280569 
L 11.195318 42.674123 
z
M 11.551129 42.674123 
L 13.090909 39.956883 
L 14.438433 42.674123 
L 13.090909 44.025722 
z
M 44.341159 32.826248 
L 45.818182 30.326286 
L 47.195768 32.826248 
L 45.818182 34.208001 
z
M 77.097307 22.978374 
L 78.545455 20.655652 
L 79.992425 22.978374 
L 78.545455 24.42972 
z
M 112.779229 9.847874 
L 114.545455 6.671694 
L 115.986892 9.847874 
L 114.545455 11.293671 
z
" clip-path="url(#p5800aa2f73)" style="fill: #e5eff9; fill-opacity: 0.9"/>
    <path d="M 13.090909 44.025722 
L 14.438433 42.674123 
L 13.090909 39.956883 
L 11.551129 42.674123 
z
M 11.906941 42.674123 
L 13.090909 40.584781 
L 14.127048 42.674123 
L 13.090909 43.713395 
z
M 2.812687 39.391498 
L 3.272727 39.12662 
L 6.545455 38.84415 
L 8.251317 39.391498 
L 9.818182 39.662145 
L 10.888579 39.391498 
L 13.090909 38.233406 
L 16.363636 37.71345 
L 19.636364 36.842944 
L 21.90938 36.108873 
L 22.909091 35.729746 
L 26.181818 34.173798 
L 28.945672 32.826248 
L 29.454545 32.542142 
L 32.727273 30.982485 
L 35.678409 29.543623 
L 36 29.359454 
L 39.272727 28.646904 
L 42.545455 29.084084 
L 45.818182 27.746934 
L 49.090909 27.546393 
L 52.363636 26.717868 
L 53.828629 26.260999 
L 55.636364 25.624921 
L 58.909091 24.408523 
L 61.8777 22.978374 
L 62.181818 22.807348 
L 65.454545 21.255203 
L 68.691558 19.695749 
L 68.727273 19.675057 
L 72 18.562211 
L 75.272727 17.22084 
L 78.545455 17.190055 
L 81.818182 17.340347 
L 85.090909 16.545534 
L 85.509135 16.413124 
L 88.363636 15.383313 
L 91.636364 14.473249 
L 94.633749 13.130499 
L 94.909091 12.982469 
L 98.181818 11.285252 
L 100.924859 9.847874 
L 101.454545 9.548687 
L 104.727273 8.168545 
L 107.189307 6.56525 
L 108 6.129607 
L 111.272727 6.207707 
L 114.545455 6.085448 
L 117.818182 4.737586 
L 121.090909 4.153052 
L 123.540853 3.282625 
L 124.363636 2.884666 
L 127.636364 1.817747 
L 130.909091 0.152715 
L 131.187499 0 
L 130.909091 0 
L 130.161695 0 
L 127.636364 1.292661 
L 124.363636 2.174615 
L 122.072816 3.282625 
L 121.090909 3.631481 
L 117.818182 3.974644 
L 114.646743 3.282625 
L 114.545455 3.257934 
L 114.456204 3.282625 
L 111.272727 4.769111 
L 108 5.55319 
L 106.116647 6.56525 
L 104.727273 7.470021 
L 101.454545 8.942806 
L 99.852199 9.847874 
L 98.181818 10.723169 
L 94.909091 12.34395 
L 93.446084 13.130499 
L 91.636364 13.941206 
L 88.363636 14.777046 
L 85.090909 15.438937 
L 83.221993 16.413124 
L 81.818182 16.747569 
L 79.845453 16.413124 
L 78.545455 15.92126 
L 75.272727 15.82708 
L 74.291788 16.413124 
L 72 17.818165 
L 68.727273 18.971918 
L 67.47793 19.695749 
L 65.454545 20.670529 
L 62.181818 22.124844 
L 60.664072 22.978374 
L 58.909091 23.823848 
L 55.636364 24.995224 
L 52.363636 26.019466 
L 51.893628 26.260999 
L 49.090909 26.928899 
L 45.818182 26.468757 
L 45.239391 26.260999 
L 42.545455 25.667762 
L 41.472405 26.260999 
L 39.272727 27.711572 
L 36 28.654859 
L 34.448073 29.543623 
L 32.727273 30.38262 
L 29.454545 31.855239 
L 27.715336 32.826248 
L 26.181818 33.573933 
L 22.909091 35.059705 
L 20.142563 36.108873 
L 19.636364 36.27235 
L 16.363636 37.088121 
L 13.090909 36.947267 
L 10.757054 36.108873 
L 9.818182 35.86702 
L 9.295919 36.108873 
L 6.545455 37.695381 
L 3.272727 38.419516 
L 1.584592 39.391498 
L 0 40.256758 
L 0 40.927355 
z
M 45.818182 34.208001 
L 47.195768 32.826248 
L 45.818182 30.326286 
L 44.341159 32.826248 
z
M 44.670121 32.826248 
L 45.818182 30.883078 
L 46.888952 32.826248 
L 45.818182 33.900257 
z
M 78.545455 24.42972 
L 79.992425 22.978374 
L 78.545455 20.655652 
L 77.097307 22.978374 
z
M 77.392699 22.978374 
L 78.545455 21.129439 
L 79.697273 22.978374 
L 78.545455 24.133676 
z
M 114.545455 11.293671 
L 115.986892 9.847874 
L 114.545455 6.671694 
L 112.779229 9.847874 
z
M 113.135323 9.847874 
L 114.545455 7.312053 
L 115.696279 9.847874 
L 114.545455 11.00218 
z
" clip-path="url(#p5800aa2f73)" style="fill: #dfecf7; fill-opacity: 0.9"/>
    <path d="M 13.090909 43.713395 
L 14.127048 42.674123 
L 13.090909 40.584781 
L 11.906941 42.674123 
z
M 12.262752 42.674123 
L 13.090909 41.212679 
L 13.815663 42.674123 
L 13.090909 43.401069 
z
M 1.584592 39.391498 
L 3.272727 38.419516 
L 6.545455 37.695381 
L 9.295919 36.108873 
L 9.818182 35.86702 
L 10.757054 36.108873 
L 13.090909 36.947267 
L 16.363636 37.088121 
L 19.636364 36.27235 
L 20.142563 36.108873 
L 22.909091 35.059705 
L 26.181818 33.573933 
L 27.715336 32.826248 
L 29.454545 31.855239 
L 32.727273 30.38262 
L 34.448073 29.543623 
L 36 28.654859 
L 39.272727 27.711572 
L 41.472405 26.260999 
L 42.545455 25.667762 
L 45.239391 26.260999 
L 45.818182 26.468757 
L 49.090909 26.928899 
L 51.893628 26.260999 
L 52.363636 26.019466 
L 55.636364 24.995224 
L 58.909091 23.823848 
L 60.664072 22.978374 
L 62.181818 22.124844 
L 65.454545 20.670529 
L 67.47793 19.695749 
L 68.727273 18.971918 
L 72 17.818165 
L 74.291788 16.413124 
L 75.272727 15.82708 
L 78.545455 15.92126 
L 79.845453 16.413124 
L 81.818182 16.747569 
L 83.221993 16.413124 
L 85.090909 15.438937 
L 88.363636 14.777046 
L 91.636364 13.941206 
L 93.446084 13.130499 
L 94.909091 12.34395 
L 98.181818 10.723169 
L 99.852199 9.847874 
L 101.454545 8.942806 
L 104.727273 7.470021 
L 106.116647 6.56525 
L 108 5.55319 
L 111.272727 4.769111 
L 114.456204 3.282625 
L 114.545455 3.257934 
L 114.646743 3.282625 
L 117.818182 3.974644 
L 121.090909 3.631481 
L 122.072816 3.282625 
L 124.363636 2.174615 
L 127.636364 1.292661 
L 130.161695 0 
L 129.135892 0 
L 127.636364 0.767575 
L 124.363636 1.464564 
L 121.090909 2.536942 
L 117.818182 2.206473 
L 114.545455 2.405597 
L 111.375289 3.282625 
L 111.272727 3.330515 
L 108 4.976774 
L 105.043988 6.56525 
L 104.727273 6.771497 
L 101.454545 8.336926 
L 98.77954 9.847874 
L 98.181818 10.161086 
L 94.909091 11.705431 
L 92.258419 13.130499 
L 91.636364 13.409164 
L 88.363636 14.170779 
L 85.090909 14.141972 
L 82.364065 13.130499 
L 81.818182 12.957081 
L 81.414481 13.130499 
L 78.545455 14.598333 
L 75.272727 15.102019 
L 73.078159 16.413124 
L 72 17.074118 
L 68.727273 18.268779 
L 66.264301 19.695749 
L 65.454545 20.085855 
L 62.181818 21.44234 
L 59.450444 22.978374 
L 58.909091 23.239174 
L 55.636364 24.365527 
L 52.363636 24.687875 
L 49.302429 26.260999 
L 49.090909 26.311405 
L 48.800236 26.260999 
L 45.818182 24.476523 
L 42.545455 24.883622 
L 40.054048 26.260999 
L 39.272727 26.776239 
L 36 27.950265 
L 33.217737 29.543623 
L 32.727273 29.782755 
L 29.454545 31.168337 
L 26.484999 32.826248 
L 26.181818 32.974068 
L 22.909091 34.389664 
L 19.636364 35.16965 
L 17.811328 36.108873 
L 16.363636 36.462793 
L 14.337306 36.108873 
L 13.090909 34.715143 
L 9.818182 34.944746 
L 7.304344 36.108873 
L 6.545455 36.546612 
L 3.272727 37.712413 
L 0.356497 39.391498 
L 0 39.586162 
L 0 40.256758 
z
M 45.818182 33.900257 
L 46.888952 32.826248 
L 45.818182 30.883078 
L 44.670121 32.826248 
z
M 44.999084 32.826248 
L 45.818182 31.439869 
L 46.582136 32.826248 
L 45.818182 33.592513 
z
M 78.545455 24.133676 
L 79.697273 22.978374 
L 78.545455 21.129439 
L 77.392699 22.978374 
z
M 77.688091 22.978374 
L 78.545455 21.603226 
L 79.402121 22.978374 
L 78.545455 23.837631 
z
M 114.545455 11.00218 
L 115.696279 9.847874 
L 114.545455 7.312053 
L 113.135323 9.847874 
z
M 113.491417 9.847874 
L 114.545455 7.952412 
L 115.405667 9.847874 
L 114.545455 10.710689 
z
" clip-path="url(#p5800aa2f73)" style="fill: #dae8f6; fill-opacity: 0.9"/>
    <path d="M 13.090909 43.401069 
L 13.815663 42.674123 
L 13.090909 41.212679 
L 12.262752 42.674123 
z
M 12.618563 42.674123 
L 13.090909 41.840577 
L 13.504278 42.674123 
L 13.090909 43.088742 
z
M 0.356497 39.391498 
L 3.272727 37.712413 
L 6.545455 36.546612 
L 7.304344 36.108873 
L 9.818182 34.944746 
L 13.090909 34.715143 
L 14.337306 36.108873 
L 16.363636 36.462793 
L 17.811328 36.108873 
L 19.636364 35.16965 
L 22.909091 34.389664 
L 26.181818 32.974068 
L 26.484999 32.826248 
L 29.454545 31.168337 
L 32.727273 29.782755 
L 33.217737 29.543623 
L 36 27.950265 
L 39.272727 26.776239 
L 40.054048 26.260999 
L 42.545455 24.883622 
L 45.818182 24.476523 
L 48.800236 26.260999 
L 49.090909 26.311405 
L 49.302429 26.260999 
L 52.363636 24.687875 
L 55.636364 24.365527 
L 58.909091 23.239174 
L 59.450444 22.978374 
L 62.181818 21.44234 
L 65.454545 20.085855 
L 66.264301 19.695749 
L 68.727273 18.268779 
L 72 17.074118 
L 73.078159 16.413124 
L 75.272727 15.102019 
L 78.545455 14.598333 
L 81.414481 13.130499 
L 81.818182 12.957081 
L 82.364065 13.130499 
L 85.090909 14.141972 
L 88.363636 14.170779 
L 91.636364 13.409164 
L 92.258419 13.130499 
L 94.909091 11.705431 
L 98.181818 10.161086 
L 98.77954 9.847874 
L 101.454545 8.336926 
L 104.727273 6.771497 
L 105.043988 6.56525 
L 108 4.976774 
L 111.272727 3.330515 
L 111.375289 3.282625 
L 114.545455 2.405597 
L 117.818182 2.206473 
L 121.090909 2.536942 
L 124.363636 1.464564 
L 127.636364 0.767575 
L 129.135892 0 
L 128.110088 -0 
L 127.636364 0.242489 
L 124.363636 0.754513 
L 121.090909 0.2851 
L 120.64823 0 
L 117.818182 0 
L 116.811649 0 
L 114.545455 1.553261 
L 111.272727 2.193716 
L 110.183953 3.282625 
L 108 4.400358 
L 104.727273 5.688068 
L 103.849933 6.56525 
L 101.454545 7.731046 
L 98.181818 9.232109 
L 97.565706 9.847874 
L 94.909091 11.066912 
L 91.636364 12.473343 
L 90.328944 13.130499 
L 88.363636 13.564512 
L 85.860569 13.130499 
L 85.090909 11.818661 
L 81.818182 11.846301 
L 78.828688 13.130499 
L 78.545455 13.275406 
L 75.272727 14.376959 
L 72 16.209098 
L 71.791337 16.413124 
L 68.727273 17.565641 
L 65.454545 19.13182 
L 64.878872 19.695749 
L 62.181818 20.759836 
L 58.909091 22.103465 
L 57.87718 22.978374 
L 55.636364 23.73583 
L 52.363636 23.356284 
L 51.353057 22.978374 
L 49.090909 21.98402 
L 45.818182 22.419797 
L 45.255399 22.978374 
L 42.545455 24.099482 
L 39.272727 25.470422 
L 38.476739 26.260999 
L 36 27.245671 
L 32.727273 28.549097 
L 31.726537 29.543623 
L 29.454545 30.481434 
L 26.181818 31.652272 
L 25.000033 32.826248 
L 22.909091 33.719623 
L 19.636364 33.853281 
L 16.843043 32.826248 
L 16.363636 32.52523 
L 13.090909 31.888532 
L 12.143844 32.826248 
L 9.818182 34.022473 
L 6.545455 35.04538 
L 5.47181 36.108873 
L 3.272727 37.005309 
L 0 38.210072 
L 0 39.391498 
L 0 39.586162 
z
M 45.818182 33.592513 
L 46.582136 32.826248 
L 45.818182 31.439869 
L 44.999084 32.826248 
z
M 45.328046 32.826248 
L 45.818182 31.99666 
L 46.275321 32.826248 
L 45.818182 33.28477 
z
M 78.545455 23.837631 
L 79.402121 22.978374 
L 78.545455 21.603226 
L 77.688091 22.978374 
z
M 77.983483 22.978374 
L 78.545455 22.077013 
L 79.106969 22.978374 
L 78.545455 23.541587 
z
M 114.545455 10.710689 
L 115.405667 9.847874 
L 114.545455 7.952412 
L 113.491417 9.847874 
z
M 113.84751 9.847874 
L 114.545455 8.592771 
L 115.115055 9.847874 
L 114.545455 10.419197 
z
" clip-path="url(#p5800aa2f73)" style="fill: #d6e5f4; fill-opacity: 0.9"/>
    <path d="M 13.090909 43.088742 
L 13.504278 42.674123 
L 13.090909 41.840577 
L 12.618563 42.674123 
z
M 12.974374 42.674123 
L 13.090909 42.468475 
L 13.192893 42.674123 
L 13.090909 42.776416 
z
M 3.272727 37.005309 
L 5.47181 36.108873 
L 6.545455 35.04538 
L 9.818182 34.022473 
L 12.143844 32.826248 
L 13.090909 31.888532 
L 16.363636 32.52523 
L 16.843043 32.826248 
L 19.636364 33.853281 
L 22.909091 33.719623 
L 25.000033 32.826248 
L 26.181818 31.652272 
L 29.454545 30.481434 
L 31.726537 29.543623 
L 32.727273 28.549097 
L 36 27.245671 
L 38.476739 26.260999 
L 39.272727 25.470422 
L 42.545455 24.099482 
L 45.255399 22.978374 
L 45.818182 22.419797 
L 49.090909 21.98402 
L 51.353057 22.978374 
L 52.363636 23.356284 
L 55.636364 23.73583 
L 57.87718 22.978374 
L 58.909091 22.103465 
L 62.181818 20.759836 
L 64.878872 19.695749 
L 65.454545 19.13182 
L 68.727273 17.565641 
L 71.791337 16.413124 
L 72 16.209098 
L 75.272727 14.376959 
L 78.545455 13.275406 
L 78.828688 13.130499 
L 81.818182 11.846301 
L 85.090909 11.818661 
L 85.860569 13.130499 
L 88.363636 13.564512 
L 90.328944 13.130499 
L 91.636364 12.473343 
L 94.909091 11.066912 
L 97.565706 9.847874 
L 98.181818 9.232109 
L 101.454545 7.731046 
L 103.849933 6.56525 
L 104.727273 5.688068 
L 108 4.400358 
L 110.183953 3.282625 
L 111.272727 2.193716 
L 114.545455 1.553261 
L 116.811649 0 
L 115.568098 0 
L 114.545455 0.700925 
L 111.272727 1.067309 
L 109.057685 3.282625 
L 108 3.823941 
L 104.727273 4.443378 
L 102.605017 6.56525 
L 101.454545 7.125166 
L 98.181818 7.841386 
L 96.1742 9.847874 
L 94.909091 10.428394 
L 91.636364 11.093449 
L 88.379676 9.847874 
L 88.363636 9.831357 
L 85.090909 8.396341 
L 83.599204 9.847874 
L 81.818182 10.735521 
L 78.545455 11.364062 
L 76.734885 13.130499 
L 75.272727 13.651898 
L 72 14.381282 
L 69.921982 16.413124 
L 68.727273 16.862502 
L 65.454545 17.437225 
L 63.148986 19.695749 
L 62.181818 20.077332 
L 58.909091 20.524034 
L 56.01432 22.978374 
L 55.636364 23.106133 
L 54.913903 22.978374 
L 53.905878 19.695749 
L 52.363636 18.139093 
L 50.780007 19.695749 
L 49.090909 20.418808 
L 45.818182 20.538538 
L 43.359974 22.978374 
L 42.545455 23.315342 
L 39.272727 23.710209 
L 36.704477 26.260999 
L 36 26.541076 
L 32.727273 26.895295 
L 30.062409 29.543623 
L 29.454545 29.794532 
L 26.181818 30.094404 
L 23.431803 32.826248 
L 22.909091 33.049582 
L 20.936895 32.826248 
L 19.636364 30.422186 
L 16.363636 30.277199 
L 13.090909 30.113175 
L 10.350789 32.826248 
L 9.818182 33.100199 
L 6.545455 33.32716 
L 3.737186 36.108873 
L 3.272727 36.298206 
L 0 36.545425 
L 0 38.210072 
z
M 45.818182 33.28477 
L 46.275321 32.826248 
L 45.818182 31.99666 
L 45.328046 32.826248 
z
M 45.657008 32.826248 
L 45.818182 32.553451 
L 45.968505 32.826248 
L 45.818182 32.977026 
z
M 78.545455 23.541587 
L 79.106969 22.978374 
L 78.545455 22.077013 
L 77.983483 22.978374 
z
M 78.278875 22.978374 
L 78.545455 22.5508 
L 78.811817 22.978374 
L 78.545455 23.245542 
z
M 114.545455 10.419197 
L 115.115055 9.847874 
L 114.545455 8.592771 
L 113.84751 9.847874 
z
M 114.203604 9.847874 
L 114.545455 9.23313 
L 114.824442 9.847874 
L 114.545455 10.127706 
z
M 121.090909 0.2851 
L 124.363636 0.754513 
L 127.636364 0.242489 
L 128.110088 -0 
L 127.636364 0 
L 124.704724 0 
L 124.363636 0.044461 
L 124.144698 0 
L 121.090909 0 
L 120.64823 0 
z
" clip-path="url(#p5800aa2f73)" style="fill: #d0e2f2; fill-opacity: 0.9"/>
    <path d="M 13.090909 42.776416 
L 13.192893 42.674123 
L 13.090909 42.468475 
L 12.974374 42.674123 
z
M 3.272727 36.298206 
L 3.737186 36.108873 
L 6.545455 33.32716 
L 9.818182 33.100199 
L 10.350789 32.826248 
L 13.090909 30.113175 
L 16.363636 30.277199 
L 19.636364 30.422186 
L 20.936895 32.826248 
L 22.909091 33.049582 
L 23.431803 32.826248 
L 26.181818 30.094404 
L 29.454545 29.794532 
L 30.062409 29.543623 
L 32.727273 26.895295 
L 36 26.541076 
L 36.704477 26.260999 
L 39.272727 23.710209 
L 42.545455 23.315342 
L 43.359974 22.978374 
L 45.818182 20.538538 
L 49.090909 20.418808 
L 50.780007 19.695749 
L 52.363636 18.139093 
L 53.905878 19.695749 
L 54.913903 22.978374 
L 55.636364 23.106133 
L 56.01432 22.978374 
L 58.909091 20.524034 
L 62.181818 20.077332 
L 63.148986 19.695749 
L 65.454545 17.437225 
L 68.727273 16.862502 
L 69.921982 16.413124 
L 72 14.381282 
L 75.272727 13.651898 
L 76.734885 13.130499 
L 78.545455 11.364062 
L 81.818182 10.735521 
L 83.599204 9.847874 
L 85.090909 8.396341 
L 88.363636 9.831357 
L 88.379676 9.847874 
L 91.636364 11.093449 
L 94.909091 10.428394 
L 96.1742 9.847874 
L 98.181818 7.841386 
L 101.454545 7.125166 
L 102.605017 6.56525 
L 104.727273 4.443378 
L 108 3.823941 
L 109.057685 3.282625 
L 111.272727 1.067309 
L 114.545455 0.700925 
L 115.568098 0 
L 114.545455 0 
L 111.272727 0 
L 108 0 
L 104.727273 0 
L 101.454545 0 
L 98.181818 0 
L 94.909091 0 
L 91.636364 0 
L 88.363636 0 
L 85.090909 0 
L 81.818182 0 
L 78.545455 0 
L 75.272727 0 
L 72 0 
L 68.727273 0 
L 65.454545 0 
L 62.181818 0 
L 58.909091 0 
L 55.636364 0 
L 52.363636 0 
L 49.090909 0 
L 45.818182 0 
L 42.545455 0 
L 39.272727 0 
L 36 0 
L 32.727273 0 
L 29.454545 0 
L 26.181818 0 
L 22.909091 0 
L 19.636364 0 
L 16.363636 0 
L 13.090909 0 
L 9.818182 0 
L 6.545455 0 
L 3.272727 0 
L 0 0 
L 0 3.282625 
L 0 6.56525 
L 0 9.847874 
L 0 13.130499 
L 0 16.413124 
L 0 19.695749 
L 0 22.978374 
L 0 26.260999 
L 0 29.543623 
L 0 32.826248 
L 0 36.108873 
L 0 36.545425 
z
M 45.818182 32.977026 
L 45.968505 32.826248 
L 45.818182 32.553451 
L 45.657008 32.826248 
z
M 78.545455 23.245542 
L 78.811817 22.978374 
L 78.545455 22.5508 
L 78.278875 22.978374 
z
M 114.545455 10.127706 
L 114.824442 9.847874 
L 114.545455 9.23313 
L 114.203604 9.847874 
z
M 124.363636 0.044461 
L 124.704724 0 
L 124.363636 0 
L 124.144698 0 
z
" clip-path="url(#p5800aa2f73)" style="fill: #cbdef1; fill-opacity: 0.9"/>
    <path clip-path="url(#p5800aa2f73)" style="fill: #c6dbef; fill-opacity: 0.9"/>
    <path clip-path="url(#p5800aa2f73)" style="fill: #bed8ec; fill-opacity: 0.9"/>
    <path clip-path="url(#p5800aa2f73)" style="fill: #b5d4e9; fill-opacity: 0.9"/>
    <path clip-path="url(#p5800aa2f73)" style="fill: #add0e6; fill-opacity: 0.9"/>
    <path clip-path="url(#p5800aa2f73)" style="fill: #a5cde3; fill-opacity: 0.9"/>
    <path clip-path="url(#p5800aa2f73)" style="fill: #9cc9e1; fill-opacity: 0.9"/>
    <path clip-path="url(#p5800aa2f73)" style="fill: #91c3de; fill-opacity: 0.9"/>
    <path clip-path="url(#p5800aa2f73)" style="fill: #85bcdc; fill-opacity: 0.9"/>
    <path clip-path="url(#p5800aa2f73)" style="fill: #7cb7da; fill-opacity: 0.9"/>
    <path clip-path="url(#p5800aa2f73)" style="fill: #71b1d7; fill-opacity: 0.9"/>
    <path clip-path="url(#p5800aa2f73)" style="fill: #66abd4; fill-opacity: 0.9"/>
    <path clip-path="url(#p5800aa2f73)" style="fill: #5da5d1; fill-opacity: 0.9"/>
    <path clip-path="url(#p5800aa2f73)" style="fill: #56a0ce; fill-opacity: 0.9"/>
    <path clip-path="url(#p5800aa2f73)" style="fill: #4d99ca; fill-opacity: 0.9"/>
    <path clip-path="url(#p5800aa2f73)" style="fill: #4493c7; fill-opacity: 0.9"/>
    <path clip-path="url(#p5800aa2f73)" style="fill: #3c8cc3; fill-opacity: 0.9"/>
    <path clip-path="url(#p5800aa2f73)" style="fill: #3686c0; fill-opacity: 0.9"/>
    <path clip-path="url(#p5800aa2f73)" style="fill: #2f7fbc; fill-opacity: 0.9"/>
    <path clip-path="url(#p5800aa2f73)" style="fill: #2777b8; fill-opacity: 0.9"/>
    <path clip-path="url(#p5800aa2f73)" style="fill: #2070b4; fill-opacity: 0.9"/>
    <path clip-path="url(#p5800aa2f73)" style="fill: #1c6ab0; fill-opacity: 0.9"/>
    <path clip-path="url(#p5800aa2f73)" style="fill: #1663aa; fill-opacity: 0.9"/>
    <path clip-path="url(#p5800aa2f73)" style="fill: #115ca5; fill-opacity: 0.9"/>
    <path clip-path="url(#p5800aa2f73)" style="fill: #0c56a0; fill-opacity: 0.9"/>
    <path clip-path="url(#p5800aa2f73)" style="fill: #084f99; fill-opacity: 0.9"/>
    <path clip-path="url(#p5800aa2f73)" style="fill: #08488e; fill-opacity: 0.9"/>
    <path clip-path="url(#p5800aa2f73)" style="fill: #084184; fill-opacity: 0.9"/>
    <path clip-path="url(#p5800aa2f73)" style="fill: #083a7a; fill-opacity: 0.9"/>
    <path clip-path="url(#p5800aa2f73)" style="fill: #083370; fill-opacity: 0.9"/>
    <path clip-path="url(#p5800aa2f73)" style="fill: #08306b; fill-opacity: 0.9"/>
   </g>
   <g id="QuadContourSet_2">
    <path d="M 0 44.389751 
L 3.272727 44.337315 
L 6.545455 43.621803 
L 8.220549 42.674123 
L 9.818182 42.135839 
L 10.127884 42.674123 
L 13.090909 45.275028 
L 15.683972 42.674123 
L 16.363636 40.62653 
L 18.780118 39.391498 
L 19.636364 39.125319 
L 22.909091 38.115875 
L 24.040434 37.719175 
M 41.815133 32.189841 
L 42.545455 31.942638 
L 43.02531 32.826248 
L 45.818182 35.438975 
L 48.423031 32.826248 
L 49.090909 30.397737 
L 50.461006 29.543623 
L 52.363636 28.950273 
L 55.636364 28.160599 
L 58.909091 27.168408 
L 60.489194 26.260999 
L 62.181818 25.630803 
L 65.454545 24.048435 
L 68.727273 24.182361 
L 71.369424 22.978374 
L 72 22.622727 
L 75.272727 21.699932 
L 75.915738 22.978374 
L 78.545455 25.613898 
L 81.173033 22.978374 
L 81.818182 19.735066 
L 81.862711 19.695749 
L 85.090909 18.673704 
L 88.363636 18.096709 
L 91.636364 16.870555 
L 92.179335 16.413124 
L 94.909091 15.36027 
L 98.181818 13.941418 
L 101.454545 13.359093 
L 101.694729 13.130499 
L 104.727273 11.278588 
L 108 11.415788 
L 110.934153 9.847874 
L 111.272727 9.657755 
L 111.354853 9.847874 
L 114.545455 12.459636 
L 117.149341 9.847874 
L 117.818182 7.913661 
L 120.173578 6.56525 
L 121.090909 6.239336 
L 124.363636 5.249296 
L 127.636364 4.413893 
L 129.064827 3.282625 
L 130.909091 2.403442 
L 134.181818 1.049086 
L 137.454545 0.752462 
L 138.40398 0 
" clip-path="url(#p5800aa2f73)" style="fill: none"/>
    <path d="M 0 43.160089 
L 3.272727 43.617103 
L 6.340692 42.674123 
L 6.545455 42.564256 
L 9.818182 41.517416 
L 10.483696 42.674123 
L 13.090909 44.962701 
L 15.372587 42.674123 
L 16.363636 39.688435 
L 16.944628 39.391498 
L 19.636364 38.554726 
L 22.909091 37.531454 
L 25.903944 36.108873 
L 26.181818 35.973392 
L 29.454545 35.020915 
L 32.636681 32.826248 
L 32.727273 32.782079 
L 32.991285 32.826248 
L 36 33.511133 
L 37.869348 32.826248 
L 39.272727 32.052118 
L 42.545455 31.336883 
L 43.354272 32.826248 
L 45.818182 35.131232 
L 48.116215 32.826248 
L 48.671404 29.543623 
L 49.090909 29.398875 
L 52.363636 28.392172 
L 55.636364 27.525253 
L 58.653748 26.260999 
L 58.909091 26.162545 
L 62.181818 24.923378 
L 65.454545 23.032008 
L 68.727273 23.227457 
L 69.273887 22.978374 
L 72 21.440837 
L 75.272727 21.112629 
L 76.21113 22.978374 
L 78.545455 25.317854 
L 80.877881 22.978374 
L 80.182219 19.695749 
L 81.818182 19.118679 
L 82.505012 18.913637 
M 100.469827 12.508415 
L 101.454545 12.309111 
L 104.727273 10.382088 
L 108 10.631318 
L 109.466116 9.847874 
L 111.272727 8.833409 
L 111.710947 9.847874 
L 114.545455 12.168145 
L 116.858729 9.847874 
L 117.818182 7.073243 
L 118.705541 6.56525 
L 121.090909 5.717765 
L 124.363636 4.677512 
L 127.636364 3.479126 
L 127.884487 3.282625 
L 130.909091 1.84076 
L 134.181818 0.07861 
L 134.850328 0 
" clip-path="url(#p5800aa2f73)" style="fill: none"/>
    <path d="M 0 42.268548 
L 2.165327 42.674123 
L 3.272727 42.89689 
L 3.997496 42.674123 
L 6.545455 41.306989 
L 9.818182 40.898992 
L 10.839507 42.674123 
L 13.090909 44.650375 
L 15.061203 42.674123 
L 15.109139 39.391498 
L 16.363636 38.964106 
L 19.636364 37.984132 
L 22.909091 36.947034 
L 24.673608 36.108873 
L 26.181818 35.373527 
L 29.454545 34.172372 
L 31.406345 32.826248 
L 32.727273 32.182215 
L 36 32.548208 
L 39.272727 30.823237 
L 42.545455 30.731128 
L 43.683234 32.826248 
L 45.818182 34.823488 
L 47.8094 32.826248 
L 46.881802 29.543623 
L 49.090909 28.781381 
L 52.363636 27.834071 
L 55.636364 26.889907 
L 57.137374 26.260999 
L 58.909091 25.577871 
L 62.181818 24.215953 
L 64.304957 22.978374 
L 65.454545 22.424551 
L 68.727273 22.082946 
L 72 20.258947 
L 75.272727 20.525327 
L 76.506522 22.978374 
L 78.545455 25.021809 
L 80.582729 22.978374 
L 78.545455 19.708078 
L 78.486256 19.695749 
L 78.545455 19.663567 
L 81.818182 18.525901 
L 85.090909 17.609619 
L 88.363636 16.633606 
L 88.87012 16.413124 
L 91.636364 15.537334 
L 94.909091 14.176792 
L 96.805731 13.130499 
L 98.181818 12.409417 
L 101.454545 11.32705 
L 104.03495 9.847874 
L 104.727273 9.565593 
L 108 9.844425 
L 111.272727 8.009063 
L 112.067041 9.847874 
L 114.545455 11.876653 
L 116.568116 9.847874 
L 117.237503 6.56525 
L 117.818182 6.26347 
L 121.090909 5.196194 
L 124.363636 4.105728 
L 124.553317 4.031849 
" clip-path="url(#p5800aa2f73)" style="fill: none"/>
    <path d="M 0 41.597951 
L 3.272727 40.951389 
L 5.545635 40.325182 
M 16.745333 38.230868 
L 19.636364 37.413538 
L 22.909091 36.362613 
L 23.443271 36.108873 
L 26.181818 34.773662 
L 29.454545 33.323829 
L 30.176008 32.826248 
L 32.727273 31.58235 
L 36 30.82006 
L 39.272727 29.594356 
L 42.545455 30.125373 
L 44.012197 32.826248 
L 45.818182 34.515744 
L 47.502584 32.826248 
L 45.818182 29.769495 
L 44.846293 29.543623 
L 45.818182 29.02511 
L 49.090909 28.163887 
L 52.363636 27.275969 
L 55.618231 26.260999 
L 55.636364 26.254618 
L 58.909091 24.993197 
L 62.181818 23.508528 
L 63.091329 22.978374 
L 65.454545 21.839877 
L 68.727273 20.871523 
L 70.85332 19.695749 
L 72 19.306258 
L 73.830337 19.695749 
L 75.272727 19.938025 
L 76.801915 22.978374 
L 78.545455 24.725765 
L 80.287577 22.978374 
L 78.545455 20.181865 
L 76.211229 19.695749 
L 78.545455 18.426811 
L 81.818182 17.933124 
L 85.090909 17.077577 
L 87.189627 16.413124 
L 88.363636 15.98958 
L 91.636364 15.005291 
L 94.909091 13.585053 
L 95.733071 13.130499 
L 98.181818 11.847335 
L 101.454545 10.344988 
L 102.321754 9.847874 
L 104.727273 8.867069 
L 108 7.208901 
L 111.272727 7.184716 
L 112.423135 9.847874 
L 114.545455 11.585162 
L 116.277504 9.847874 
L 115.769466 6.56525 
L 117.818182 5.500528 
L 121.090909 4.674623 
L 124.363636 3.533944 
L 125.00889 3.282625 
L 127.636364 2.342833 
L 130.909091 0.715397 
L 132.213303 0 
" clip-path="url(#p5800aa2f73)" style="fill: none"/>
    <path d="M 0 40.927355 
L 2.812687 39.391498 
L 3.272727 39.12662 
L 6.545455 38.84415 
L 8.251317 39.391498 
L 9.818182 39.662145 
L 10.888579 39.391498 
L 13.090909 38.233406 
L 16.363636 37.71345 
L 19.636364 36.842944 
L 21.90938 36.108873 
L 22.909091 35.729746 
L 26.181818 34.173798 
L 28.945672 32.826248 
L 29.454545 32.542142 
L 32.727273 30.982485 
L 35.678409 29.543623 
L 36 29.359454 
L 39.272727 28.646904 
L 42.545455 29.084084 
L 45.818182 27.746934 
L 49.090909 27.546393 
L 49.856611 27.352547 
M 67.497753 20.270873 
L 68.691558 19.695749 
L 68.727273 19.675057 
L 72 18.562211 
L 75.272727 17.22084 
L 78.545455 17.190055 
L 81.818182 17.340347 
L 85.090909 16.545534 
L 85.509135 16.413124 
L 88.363636 15.383313 
L 91.636364 14.473249 
L 94.633749 13.130499 
L 94.909091 12.982469 
L 98.181818 11.285252 
L 100.924859 9.847874 
L 101.454545 9.548687 
L 104.727273 8.168545 
L 107.189307 6.56525 
L 108 6.129607 
L 111.272727 6.207707 
L 114.545455 6.085448 
L 117.818182 4.737586 
L 121.090909 4.153052 
L 123.540853 3.282625 
L 124.363636 2.884666 
L 127.636364 1.817747 
L 130.909091 0.152715 
L 131.187499 0 
M 13.090909 44.025722 
L 14.438433 42.674123 
L 13.090909 39.956883 
L 11.551129 42.674123 
L 13.090909 44.025722 
z
M 45.818182 34.208001 
L 47.195768 32.826248 
L 45.818182 30.326286 
L 44.341159 32.826248 
L 45.818182 34.208001 
z
M 78.545455 24.42972 
L 79.992425 22.978374 
L 78.545455 20.655652 
L 77.097307 22.978374 
L 78.545455 24.42972 
z
M 114.545455 11.293671 
L 115.986892 9.847874 
L 114.545455 6.671694 
L 112.779229 9.847874 
L 114.545455 11.293671 
z
" clip-path="url(#p5800aa2f73)" style="fill: none"/>
    <path d="M 0 40.256758 
L 1.584592 39.391498 
L 3.272727 38.419516 
L 6.545455 37.695381 
L 9.295919 36.108873 
L 9.818182 35.86702 
L 10.757054 36.108873 
L 13.090909 36.947267 
L 16.363636 37.088121 
L 19.636364 36.27235 
L 20.142563 36.108873 
L 22.909091 35.059705 
L 26.181818 33.573933 
L 27.715336 32.826248 
L 29.454545 31.855239 
L 32.727273 30.38262 
L 34.448073 29.543623 
L 36 28.654859 
L 39.272727 27.711572 
L 41.472405 26.260999 
L 42.545455 25.667762 
L 45.239391 26.260999 
L 45.818182 26.468757 
L 49.090909 26.928899 
L 51.893628 26.260999 
L 52.363636 26.019466 
L 55.636364 24.995224 
L 58.909091 23.823848 
L 60.664072 22.978374 
L 62.181818 22.124844 
L 65.454545 20.670529 
L 67.47793 19.695749 
L 68.727273 18.971918 
L 72 17.818165 
L 74.291788 16.413124 
L 75.272727 15.82708 
L 78.545455 15.92126 
L 79.845453 16.413124 
L 81.818182 16.747569 
L 83.221993 16.413124 
L 85.090909 15.438937 
L 88.363636 14.777046 
L 91.636364 13.941206 
L 93.446084 13.130499 
L 94.909091 12.34395 
L 98.181818 10.723169 
L 99.852199 9.847874 
L 101.454545 8.942806 
L 104.727273 7.470021 
L 106.116647 6.56525 
L 108 5.55319 
L 108.771306 5.368401 
M 126.922745 1.484971 
L 127.636364 1.292661 
L 130.161695 0 
M 13.090909 43.713395 
L 14.127048 42.674123 
L 13.090909 40.584781 
L 11.906941 42.674123 
L 13.090909 43.713395 
z
M 45.818182 33.900257 
L 46.888952 32.826248 
L 45.818182 30.883078 
L 44.670121 32.826248 
L 45.818182 33.900257 
z
M 78.545455 24.133676 
L 79.697273 22.978374 
L 78.545455 21.129439 
L 77.392699 22.978374 
L 78.545455 24.133676 
z
M 114.545455 11.00218 
L 115.696279 9.847874 
L 114.545455 7.312053 
L 113.135323 9.847874 
L 114.545455 11.00218 
z
" clip-path="url(#p5800aa2f73)" style="fill: none"/>
    <path d="M 0 39.586162 
L 0.356497 39.391498 
L 3.272727 37.712413 
L 6.545455 36.546612 
L 7.304344 36.108873 
L 9.818182 34.944746 
L 13.090909 34.715143 
L 14.337306 36.108873 
L 16.363636 36.462793 
L 17.811328 36.108873 
L 19.636364 35.16965 
L 22.909091 34.389664 
L 26.181818 32.974068 
L 26.484999 32.826248 
L 29.454545 31.168337 
L 32.727273 29.782755 
L 33.217737 29.543623 
L 36 27.950265 
L 39.272727 26.776239 
L 40.054048 26.260999 
L 42.545455 24.883622 
L 45.818182 24.476523 
L 48.800236 26.260999 
L 49.090909 26.311405 
L 49.302429 26.260999 
L 52.363636 24.687875 
L 55.636364 24.365527 
L 58.909091 23.239174 
L 59.450444 22.978374 
L 62.181818 21.44234 
L 65.454545 20.085855 
L 66.264301 19.695749 
L 66.797398 19.386889 
M 84.223833 13.820346 
L 85.090909 14.141972 
L 88.363636 14.170779 
L 91.636364 13.409164 
L 92.258419 13.130499 
L 94.909091 11.705431 
L 98.181818 10.161086 
L 98.77954 9.847874 
L 101.454545 8.336926 
L 104.727273 6.771497 
L 105.043988 6.56525 
L 108 4.976774 
L 111.272727 3.330515 
L 111.375289 3.282625 
L 114.545455 2.405597 
L 117.818182 2.206473 
L 121.090909 2.536942 
L 124.363636 1.464564 
L 127.636364 0.767575 
L 129.135892 0 
M 13.090909 43.401069 
L 13.815663 42.674123 
L 13.090909 41.212679 
L 12.262752 42.674123 
L 13.090909 43.401069 
z
M 45.818182 33.592513 
L 46.582136 32.826248 
L 45.818182 31.439869 
L 44.999084 32.826248 
L 45.818182 33.592513 
z
M 78.545455 23.837631 
L 79.402121 22.978374 
L 78.545455 21.603226 
L 77.688091 22.978374 
L 78.545455 23.837631 
z
M 114.545455 10.710689 
L 115.405667 9.847874 
L 114.545455 7.952412 
L 113.491417 9.847874 
L 114.545455 10.710689 
z
" clip-path="url(#p5800aa2f73)" style="fill: none"/>
    <path d="M 11.792068 33.007187 
L 12.143844 32.826248 
L 13.090909 31.888532 
L 16.363636 32.52523 
L 16.843043 32.826248 
L 19.636364 33.853281 
L 22.909091 33.719623 
L 25.000033 32.826248 
L 26.181818 31.652272 
L 29.454545 30.481434 
L 31.726537 29.543623 
L 32.727273 28.549097 
L 36 27.245671 
L 38.476739 26.260999 
L 39.272727 25.470422 
L 42.545455 24.099482 
L 45.255399 22.978374 
L 45.818182 22.419797 
L 49.090909 21.98402 
L 51.353057 22.978374 
L 52.363636 23.356284 
L 55.636364 23.73583 
L 57.87718 22.978374 
L 58.909091 22.103465 
L 62.181818 20.759836 
L 64.878872 19.695749 
L 65.454545 19.13182 
L 68.727273 17.565641 
L 71.791337 16.413124 
L 72 16.209098 
L 75.272727 14.376959 
L 78.545455 13.275406 
L 78.828688 13.130499 
L 81.818182 11.846301 
L 85.090909 11.818661 
L 85.860569 13.130499 
L 88.363636 13.564512 
L 90.328944 13.130499 
L 91.636364 12.473343 
L 94.909091 11.066912 
L 97.565706 9.847874 
L 98.181818 9.232109 
L 101.454545 7.731046 
L 103.849933 6.56525 
L 104.727273 5.688068 
L 108 4.400358 
L 110.183953 3.282625 
L 111.272727 2.193716 
L 114.545455 1.553261 
L 116.811649 0 
M 120.64823 0 
L 121.090909 0.2851 
L 124.363636 0.754513 
L 127.636364 0.242489 
L 128.110088 -0 
M 13.090909 43.088742 
L 13.504278 42.674123 
L 13.090909 41.840577 
L 12.618563 42.674123 
L 13.090909 43.088742 
z
M 45.818182 33.28477 
L 46.275321 32.826248 
L 45.818182 31.99666 
L 45.328046 32.826248 
L 45.818182 33.28477 
z
M 78.545455 23.541587 
L 79.106969 22.978374 
L 78.545455 22.077013 
L 77.983483 22.978374 
L 78.545455 23.541587 
z
M 114.545455 10.419197 
L 115.115055 9.847874 
L 114.545455 8.592771 
L 113.84751 9.847874 
L 114.545455 10.419197 
z
" clip-path="url(#p5800aa2f73)" style="fill: none"/>
    <path d="M 0 36.545425 
L 3.272727 36.298206 
L 3.737186 36.108873 
L 6.545455 33.32716 
L 9.818182 33.100199 
L 10.350789 32.826248 
L 13.090909 30.113175 
L 16.363636 30.277199 
L 19.636364 30.422186 
L 20.936895 32.826248 
L 22.909091 33.049582 
L 23.431803 32.826248 
L 26.181818 30.094404 
L 29.454545 29.794532 
L 30.062409 29.543623 
L 32.727273 26.895295 
L 36 26.541076 
L 36.704477 26.260999 
L 39.272727 23.710209 
L 42.545455 23.315342 
L 43.359974 22.978374 
L 45.818182 20.538538 
L 49.090909 20.418808 
L 50.780007 19.695749 
L 52.363636 18.139093 
L 53.905878 19.695749 
L 54.913903 22.978374 
L 55.636364 23.106133 
L 56.01432 22.978374 
L 58.909091 20.524034 
L 62.181818 20.077332 
L 63.148986 19.695749 
L 64.00135 18.860774 
M 80.60607 10.968313 
L 81.818182 10.735521 
L 83.599204 9.847874 
L 85.090909 8.396341 
L 88.363636 9.831357 
L 88.379676 9.847874 
L 91.636364 11.093449 
L 94.909091 10.428394 
L 96.1742 9.847874 
L 98.181818 7.841386 
L 101.454545 7.125166 
L 102.605017 6.56525 
L 104.727273 4.443378 
L 108 3.823941 
L 109.057685 3.282625 
L 111.272727 1.067309 
L 114.545455 0.700925 
L 115.568098 0 
M 124.144698 0 
L 124.363636 0.044461 
L 124.704724 0 
M 13.090909 42.776416 
L 13.192893 42.674123 
L 13.090909 42.468475 
L 12.974374 42.674123 
L 13.090909 42.776416 
z
M 45.818182 32.977026 
L 45.968505 32.826248 
L 45.818182 32.553451 
L 45.657008 32.826248 
L 45.818182 32.977026 
z
M 78.545455 23.245542 
L 78.811817 22.978374 
L 78.545455 22.5508 
L 78.278875 22.978374 
L 78.545455 23.245542 
z
M 114.545455 10.127706 
L 114.824442 9.847874 
L 114.545455 9.23313 
L 114.203604 9.847874 
L 114.545455 10.127706 
z
" clip-path="url(#p5800aa2f73)" style="fill: none"/>
    <path clip-path="url(#p5800aa2f73)" style="fill: none"/>
    <path clip-path="url(#p5800aa2f73)" style="fill: none"/>
    <path clip-path="url(#p5800aa2f73)" style="fill: none"/>
    <path clip-path="url(#p5800aa2f73)" style="fill: none"/>
    <path clip-path="url(#p5800aa2f73)" style="fill: none"/>
    <path clip-path="url(#p5800aa2f73)" style="fill: none"/>
    <path clip-path="url(#p5800aa2f73)" style="fill: none"/>
    <path clip-path="url(#p5800aa2f73)" style="fill: none"/>
    <path clip-path="url(#p5800aa2f73)" style="fill: none"/>
    <path clip-path="url(#p5800aa2f73)" style="fill: none"/>
    <path clip-path="url(#p5800aa2f73)" style="fill: none"/>
    <path clip-path="url(#p5800aa2f73)" style="fill: none"/>
    <path clip-path="url(#p5800aa2f73)" style="fill: none"/>
    <path clip-path="url(#p5800aa2f73)" style="fill: none"/>
    <path clip-path="url(#p5800aa2f73)" style="fill: none"/>
    <path clip-path="url(#p5800aa2f73)" style="fill: none"/>
    <path clip-path="url(#p5800aa2f73)" style="fill: none"/>
    <path clip-path="url(#p5800aa2f73)" style="fill: none"/>
    <path clip-path="url(#p5800aa2f73)" style="fill: none"/>
    <path clip-path="url(#p5800aa2f73)" style="fill: none"/>
    <path clip-path="url(#p5800aa2f73)" style="fill: none"/>
    <path clip-path="url(#p5800aa2f73)" style="fill: none"/>
    <path clip-path="url(#p5800aa2f73)" style="fill: none"/>
    <path clip-path="url(#p5800aa2f73)" style="fill: none"/>
    <path clip-path="url(#p5800aa2f73)" style="fill: none"/>
    <path clip-path="url(#p5800aa2f73)" style="fill: none"/>
    <path clip-path="url(#p5800aa2f73)" style="fill: none"/>
    <path clip-path="url(#p5800aa2f73)" style="fill: none"/>
    <path clip-path="url(#p5800aa2f73)" style="fill: none"/>
    <path clip-path="url(#p5800aa2f73)" style="fill: none"/>
   </g>
   <g id="text_1">
    <g clip-path="url(#p5800aa2f73)">
     <!-- 0 -->
     <g style="opacity: 0" transform="translate(29.837284 38.065428) rotate(-14.180582) scale(0.12 -0.12)">
      <defs>
       <path id="DejaVuSans-30" d="M 2034 4250 
Q 1547 4250 1301 3770 
Q 1056 3291 1056 2328 
Q 1056 1369 1301 889 
Q 1547 409 2034 409 
Q 2525 409 2770 889 
Q 3016 1369 3016 2328 
Q 3016 3291 2770 3770 
Q 2525 4250 2034 4250 
z
M 2034 4750 
Q 2819 4750 3233 4129 
Q 3647 3509 3647 2328 
Q 3647 1150 3233 529 
Q 2819 -91 2034 -91 
Q 1250 -91 836 529 
Q 422 1150 422 2328 
Q 422 3509 836 4129 
Q 1250 4750 2034 4750 
z
" transform="scale(0.015625)"/>
      </defs>
      <use xlink:href="#DejaVuSans-30"/>
     </g>
    </g>
   </g>
   <g id="text_2">
    <g clip-path="url(#p5800aa2f73)">
     <!-- 1 -->
     <g style="opacity: 0" transform="translate(89.287634 20.543876) rotate(-21.366422) scale(0.12 -0.12)">
      <defs>
       <path id="DejaVuSans-31" d="M 794 531 
L 1825 531 
L 1825 4091 
L 703 3866 
L 703 4441 
L 1819 4666 
L 2450 4666 
L 2450 531 
L 3481 531 
L 3481 0 
L 794 0 
L 794 531 
z
" transform="scale(0.015625)"/>
      </defs>
      <use xlink:href="#DejaVuSans-31"/>
     </g>
    </g>
   </g>
   <g id="text_3">
    <g clip-path="url(#p5800aa2f73)">
     <!-- 2 -->
     <g style="opacity: 0" transform="translate(131.364163 4.692789) rotate(-27.283513) scale(0.12 -0.12)">
      <defs>
       <path id="DejaVuSans-32" d="M 1228 531 
L 3431 531 
L 3431 0 
L 469 0 
L 469 531 
Q 828 903 1448 1529 
Q 2069 2156 2228 2338 
Q 2531 2678 2651 2914 
Q 2772 3150 2772 3378 
Q 2772 3750 2511 3984 
Q 2250 4219 1831 4219 
Q 1534 4219 1204 4116 
Q 875 4013 500 3803 
L 500 4441 
Q 881 4594 1212 4672 
Q 1544 4750 1819 4750 
Q 2544 4750 2975 4387 
Q 3406 4025 3406 3419 
Q 3406 3131 3298 2873 
Q 3191 2616 2906 2266 
Q 2828 2175 2409 1742 
Q 1991 1309 1228 531 
z
" transform="scale(0.015625)"/>
      </defs>
      <use xlink:href="#DejaVuSans-32"/>
     </g>
    </g>
   </g>
   <g id="text_4">
    <g clip-path="url(#p5800aa2f73)">
     <!-- 3 -->
     <g style="opacity: 0" transform="translate(9.523022 47.916856) rotate(-4.149608) scale(0.12 -0.12)">
      <defs>
       <path id="DejaVuSans-33" d="M 2597 2516 
Q 3050 2419 3304 2112 
Q 3559 1806 3559 1356 
Q 3559 666 3084 287 
Q 2609 -91 1734 -91 
Q 1441 -91 1130 -33 
Q 819 25 488 141 
L 488 750 
Q 750 597 1062 519 
Q 1375 441 1716 441 
Q 2309 441 2620 675 
Q 2931 909 2931 1356 
Q 2931 1769 2642 2001 
Q 2353 2234 1838 2234 
L 1294 2234 
L 1294 2753 
L 1863 2753 
Q 2328 2753 2575 2939 
Q 2822 3125 2822 3475 
Q 2822 3834 2567 4026 
Q 2313 4219 1838 4219 
Q 1578 4219 1281 4162 
Q 984 4106 628 3988 
L 628 4550 
Q 988 4650 1302 4700 
Q 1616 4750 1894 4750 
Q 2613 4750 3031 4423 
Q 3450 4097 3450 3541 
Q 3450 3153 3228 2886 
Q 3006 2619 2597 2516 
z
" transform="scale(0.015625)"/>
      </defs>
      <use xlink:href="#DejaVuSans-33"/>
     </g>
    </g>
   </g>
   <g id="text_5">
    <g clip-path="url(#p5800aa2f73)">
     <!-- 4 -->
     <g style="opacity: 0" transform="translate(56.678234 28.942942) rotate(-22.865658) scale(0.12 -0.12)">
      <defs>
       <path id="DejaVuSans-34" d="M 2419 4116 
L 825 1625 
L 2419 1625 
L 2419 4116 
z
M 2253 4666 
L 3047 4666 
L 3047 1625 
L 3713 1625 
L 3713 1100 
L 3047 1100 
L 3047 0 
L 2419 0 
L 2419 1100 
L 313 1100 
L 313 1709 
L 2253 4666 
z
" transform="scale(0.015625)"/>
      </defs>
      <use xlink:href="#DejaVuSans-34"/>
     </g>
    </g>
   </g>
   <g id="text_6">
    <g clip-path="url(#p5800aa2f73)">
     <!-- 5 -->
     <g style="opacity: 0" transform="translate(114.310381 7.612365) rotate(-5.103691) scale(0.12 -0.12)">
      <defs>
       <path id="DejaVuSans-35" d="M 691 4666 
L 3169 4666 
L 3169 4134 
L 1269 4134 
L 1269 2991 
Q 1406 3038 1543 3061 
Q 1681 3084 1819 3084 
Q 2600 3084 3056 2656 
Q 3513 2228 3513 1497 
Q 3513 744 3044 326 
Q 2575 -91 1722 -91 
Q 1428 -91 1123 -41 
Q 819 9 494 109 
L 494 744 
Q 775 591 1075 516 
Q 1375 441 1709 441 
Q 2250 441 2565 725 
Q 2881 1009 2881 1497 
Q 2881 1984 2565 2268 
Q 2250 2553 1709 2553 
Q 1456 2553 1204 2497 
Q 953 2441 691 2322 
L 691 4666 
z
" transform="scale(0.015625)"/>
      </defs>
      <use xlink:href="#DejaVuSans-35"/>
     </g>
    </g>
   </g>
   <g id="text_7">
    <g clip-path="url(#p5800aa2f73)">
     <!-- 6 -->
     <g style="opacity: 0" transform="translate(72.938796 19.584256) rotate(-21.555757) scale(0.12 -0.12)">
      <defs>
       <path id="DejaVuSans-36" d="M 2113 2584 
Q 1688 2584 1439 2293 
Q 1191 2003 1191 1497 
Q 1191 994 1439 701 
Q 1688 409 2113 409 
Q 2538 409 2786 701 
Q 3034 994 3034 1497 
Q 3034 2003 2786 2293 
Q 2538 2584 2113 2584 
z
M 3366 4563 
L 3366 3988 
Q 3128 4100 2886 4159 
Q 2644 4219 2406 4219 
Q 1781 4219 1451 3797 
Q 1122 3375 1075 2522 
Q 1259 2794 1537 2939 
Q 1816 3084 2150 3084 
Q 2853 3084 3261 2657 
Q 3669 2231 3669 1497 
Q 3669 778 3244 343 
Q 2819 -91 2113 -91 
Q 1303 -91 875 529 
Q 447 1150 447 2328 
Q 447 3434 972 4092 
Q 1497 4750 2381 4750 
Q 2619 4750 2861 4703 
Q 3103 4656 3366 4563 
z
" transform="scale(0.015625)"/>
      </defs>
      <use xlink:href="#DejaVuSans-36"/>
     </g>
    </g>
   </g>
   <g id="text_8">
    <g clip-path="url(#p5800aa2f73)">
     <!-- 7 -->
     <g style="opacity: 0" transform="translate(1.183718 41.606801) rotate(-24.644706) scale(0.12 -0.12)">
      <defs>
       <path id="DejaVuSans-37" d="M 525 4666 
L 3525 4666 
L 3525 4397 
L 1831 0 
L 1172 0 
L 2766 4134 
L 525 4134 
L 525 4666 
z
" transform="scale(0.015625)"/>
      </defs>
      <use xlink:href="#DejaVuSans-37"/>
     </g>
    </g>
   </g>
   <g id="text_9">
    <g clip-path="url(#p5800aa2f73)">
     <!-- 8 -->
     <g style="opacity: 0" transform="translate(69.840362 18.950051) rotate(-23.762143) scale(0.12 -0.12)">
      <defs>
       <path id="DejaVuSans-38" d="M 2034 2216 
Q 1584 2216 1326 1975 
Q 1069 1734 1069 1313 
Q 1069 891 1326 650 
Q 1584 409 2034 409 
Q 2484 409 2743 651 
Q 3003 894 3003 1313 
Q 3003 1734 2745 1975 
Q 2488 2216 2034 2216 
z
M 1403 2484 
Q 997 2584 770 2862 
Q 544 3141 544 3541 
Q 544 4100 942 4425 
Q 1341 4750 2034 4750 
Q 2731 4750 3128 4425 
Q 3525 4100 3525 3541 
Q 3525 3141 3298 2862 
Q 3072 2584 2669 2484 
Q 3125 2378 3379 2068 
Q 3634 1759 3634 1313 
Q 3634 634 3220 271 
Q 2806 -91 2034 -91 
Q 1263 -91 848 271 
Q 434 634 434 1313 
Q 434 1759 690 2068 
Q 947 2378 1403 2484 
z
M 1172 3481 
Q 1172 3119 1398 2916 
Q 1625 2713 2034 2713 
Q 2441 2713 2670 2916 
Q 2900 3119 2900 3481 
Q 2900 3844 2670 4047 
Q 2441 4250 2034 4250 
Q 1625 4250 1398 4047 
Q 1172 3844 1172 3481 
z
" transform="scale(0.015625)"/>
      </defs>
      <use xlink:href="#DejaVuSans-38"/>
     </g>
    </g>
   </g>
  </g>
 </g>
 <defs>
  <clipPath id="p5800aa2f73">
   <rect x="0" y="0" width="576" height="817.373583"/>
  </clipPath>
 </defs>
</svg>
