<?xml version="1.0" encoding="utf-8" standalone="no"?>
<!DOCTYPE svg PUBLIC "-//W3C//DTD SVG 1.1//EN"
  "http://www.w3.org/Graphics/SVG/1.1/DTD/svg11.dtd">
<svg xmlns:xlink="http://www.w3.org/1999/xlink" width="576pt" height="819.971235pt" viewBox="0 0 576 819.971235" xmlns="http://www.w3.org/2000/svg" version="1.1">
 <metadata>
  <rdf:RDF xmlns:dc="http://purl.org/dc/elements/1.1/" xmlns:cc="http://creativecommons.org/ns#" xmlns:rdf="http://www.w3.org/1999/02/22-rdf-syntax-ns#">
   <cc:Work>
    <dc:type rdf:resource="http://purl.org/dc/dcmitype/StillImage"/>
    <dc:date>2025-07-25T22:44:41.983060</dc:date>
    <dc:format>image/svg+xml</dc:format>
    <dc:creator>
     <cc:Agent>
      <dc:title>Matplotlib v3.10.3, https://matplotlib.org/</dc:title>
     </cc:Agent>
    </dc:creator>
   </cc:Work>
  </rdf:RDF>
 </metadata>
 <defs>
  <style type="text/css">*{stroke-linejoin: round; stroke-linecap: butt}</style>
 </defs>
 <g id="figure_1">
  <g id="patch_1">
   <path d="M 0 819.971235 
L 576 819.971235 
L 576 0 
L 0 0 
L 0 819.971235 
z
" style="fill: none; opacity: 0"/>
  </g>
  <g id="axes_1">
   <g id="QuadContourSet_1">
    <path d="M 533.211429 818.737777 
L 534.683608 816.678178 
L 536.502857 814.808321 
L 537.926205 813.385121 
L 539.794286 811.448955 
L 541.39457 810.092064 
L 539.794286 809.002723 
L 537.699688 806.799007 
L 539.794286 804.703373 
L 540.991117 803.505949 
L 540.319234 800.212892 
L 543.085714 797.445044 
L 545.251532 800.212892 
L 545.42321 803.505949 
L 546.377143 805.303757 
L 548.756423 803.505949 
L 549.668571 802.517902 
L 552.96 800.82181 
L 553.510232 800.212892 
L 556.251429 798.832151 
L 556.750945 796.919835 
L 557.786077 793.626778 
L 559.542857 792.045232 
L 560.491682 790.333721 
L 562.834286 787.625031 
L 563.52892 787.040664 
L 566.125714 784.339316 
L 566.862047 783.747606 
L 566.125714 783.277498 
L 563.959897 780.454549 
L 566.125714 778.28766 
L 567.251326 777.161492 
L 566.650663 773.868435 
L 569.417143 771.100586 
L 572.708571 771.693379 
L 575.825409 773.868435 
L 576 774.553959 
L 576 773.868435 
L 576 772.906838 
L 572.708571 771.280655 
L 569.417143 770.575378 
L 566.125714 773.868435 
L 566.840355 777.161492 
L 566.125714 777.876486 
L 563.548926 780.454549 
L 565.909299 783.747606 
L 562.880793 787.040664 
L 562.834286 787.079789 
L 560.020131 790.333721 
L 559.542857 791.194637 
L 556.841238 793.626778 
L 556.251429 796.740398 
L 556.089732 796.919835 
L 552.96 798.392922 
L 551.372611 800.212892 
L 549.668571 801.319562 
L 547.650136 803.505949 
L 546.377143 804.467836 
L 545.866757 803.505949 
L 545.662503 800.212892 
L 543.085714 796.919835 
L 539.794286 800.212892 
L 540.59366 803.505949 
L 539.794286 804.305719 
L 537.302231 806.799007 
L 539.794286 809.420886 
L 540.780273 810.092064 
L 539.794286 810.928088 
L 537.423655 813.385121 
L 536.502857 814.305823 
L 534.19471 816.678178 
L 533.211429 818.053803 
L 531.294944 819.971235 
L 531.97858 819.971235 
z
M 543.085714 808.325164 
L 544.964122 806.799007 
L 543.085714 805.77513 
L 542.062344 806.799007 
z
M 542.492715 806.799007 
L 543.085714 806.205714 
L 544.17417 806.799007 
L 543.085714 807.683349 
z
M 569.417143 781.058151 
L 570.229988 780.454549 
L 569.417143 780.076495 
L 569.039276 780.454549 
z
M 572.708571 777.787665 
L 573.707597 777.161492 
L 572.708571 776.881698 
L 572.428916 777.161492 
z
" clip-path="url(#p041cfff852)" style="fill: #f5f9fe; fill-opacity: 0.9"/>
    <path d="M 533.211429 819.421751 
L 535.172505 816.678178 
L 536.502857 815.310818 
L 538.428756 813.385121 
L 539.794286 811.969821 
L 542.008868 810.092064 
L 543.085714 808.966979 
L 545.754074 806.799007 
L 546.377143 806.139679 
L 549.668571 804.472134 
L 552.96 805.456295 
L 553.279947 803.505949 
L 556.251429 800.47143 
L 556.462318 800.212892 
L 557.269102 796.919835 
L 558.730917 793.626778 
L 559.542857 792.895826 
L 560.963234 790.333721 
L 562.834286 788.170273 
L 564.177047 787.040664 
L 566.125714 785.013538 
L 567.701059 783.747606 
L 566.125714 782.741834 
L 564.370868 780.454549 
L 566.125714 778.698835 
L 567.662297 777.161492 
L 567.175612 773.868435 
L 569.417143 771.625795 
L 572.708571 772.106103 
L 575.233978 773.868435 
L 576 776.876183 
L 576 774.553959 
L 575.825409 773.868435 
L 572.708571 771.693379 
L 569.417143 771.100586 
L 566.650663 773.868435 
L 567.251326 777.161492 
L 566.125714 778.28766 
L 563.959897 780.454549 
L 566.125714 783.277498 
L 566.862047 783.747606 
L 566.125714 784.339316 
L 563.52892 787.040664 
L 562.834286 787.625031 
L 560.491682 790.333721 
L 559.542857 792.045232 
L 557.786077 793.626778 
L 556.750945 796.919835 
L 556.251429 798.832151 
L 553.510232 800.212892 
L 552.96 800.82181 
L 549.668571 802.517902 
L 548.756423 803.505949 
L 546.377143 805.303757 
L 545.42321 803.505949 
L 545.251532 800.212892 
L 543.085714 797.445044 
L 540.319234 800.212892 
L 540.991117 803.505949 
L 539.794286 804.703373 
L 537.699688 806.799007 
L 539.794286 809.002723 
L 541.39457 810.092064 
L 539.794286 811.448955 
L 537.926205 813.385121 
L 536.502857 814.808321 
L 534.683608 816.678178 
L 533.211429 818.737777 
L 531.97858 819.971235 
L 532.662216 819.971235 
z
M 538.097145 806.799007 
L 539.794286 805.101026 
L 541.388574 803.505949 
L 540.844183 800.212892 
L 543.085714 797.970252 
L 544.840561 800.212892 
L 544.979662 803.505949 
L 543.085714 805.344545 
L 541.631972 806.799007 
L 539.794286 808.584561 
z
M 542.062344 806.799007 
L 543.085714 805.77513 
L 544.964122 806.799007 
L 543.085714 808.325164 
z
M 569.417143 781.941283 
L 571.419264 780.454549 
L 569.417143 779.523364 
L 568.486418 780.454549 
z
M 569.039276 780.454549 
L 569.417143 780.076495 
L 570.229988 780.454549 
L 569.417143 781.058151 
z
M 572.708571 779.067292 
L 575.749171 777.161492 
L 572.708571 776.309922 
L 571.857422 777.161492 
z
M 572.428916 777.161492 
L 572.708571 776.881698 
L 573.707597 777.161492 
L 572.708571 777.787665 
z
" clip-path="url(#p041cfff852)" style="fill: #eff6fc; fill-opacity: 0.9"/>
    <path d="M 533.211429 819.971235 
L 533.401872 819.971235 
L 535.661403 816.678178 
L 536.502857 815.813316 
L 538.931306 813.385121 
L 539.794286 812.490688 
L 542.623165 810.092064 
L 543.085714 809.608794 
L 546.377143 808.136092 
L 549.668571 809.258199 
L 552.96 807.930992 
L 553.519874 806.799007 
L 554.112871 803.505949 
L 556.251429 801.322024 
L 557.156148 800.212892 
L 557.787259 796.919835 
L 559.542857 793.758038 
L 559.677763 793.626778 
L 561.434785 790.333721 
L 562.834286 788.715515 
L 564.825174 787.040664 
L 566.125714 785.68776 
L 568.540071 783.747606 
L 569.417143 782.824414 
L 572.60854 780.454549 
L 572.708571 780.346918 
L 573.66137 780.454549 
L 576 781.34493 
L 576 780.454549 
L 576 777.161492 
L 576 776.876183 
L 575.233978 773.868435 
L 572.708571 772.106103 
L 569.417143 771.625795 
L 567.175612 773.868435 
L 567.662297 777.161492 
L 566.125714 778.698835 
L 564.370868 780.454549 
L 566.125714 782.741834 
L 567.701059 783.747606 
L 566.125714 785.013538 
L 564.177047 787.040664 
L 562.834286 788.170273 
L 560.963234 790.333721 
L 559.542857 792.895826 
L 558.730917 793.626778 
L 557.269102 796.919835 
L 556.462318 800.212892 
L 556.251429 800.47143 
L 553.279947 803.505949 
L 552.96 805.456295 
L 549.668571 804.472134 
L 546.377143 806.139679 
L 545.754074 806.799007 
L 543.085714 808.966979 
L 542.008868 810.092064 
L 539.794286 811.969821 
L 538.428756 813.385121 
L 536.502857 815.310818 
L 535.172505 816.678178 
L 533.211429 819.421751 
L 532.662216 819.971235 
z
M 564.781839 780.454549 
L 566.125714 779.110009 
L 567.93356 780.454549 
L 566.125714 782.20617 
z
M 568.486418 780.454549 
L 569.417143 779.523364 
L 571.419264 780.454549 
L 569.417143 781.941283 
z
M 568.073268 777.161492 
L 567.70056 773.868435 
L 569.417143 772.151003 
L 572.708571 772.518827 
L 574.642548 773.868435 
L 572.708571 775.738145 
L 571.285928 777.161492 
L 569.417143 778.970232 
z
M 571.857422 777.161492 
L 572.708571 776.309922 
L 575.749171 777.161492 
L 572.708571 779.067292 
z
M 539.794286 808.584561 
L 541.631972 806.799007 
L 543.085714 805.344545 
L 544.979662 803.505949 
L 544.840561 800.212892 
L 543.085714 797.970252 
L 540.844183 800.212892 
L 541.388574 803.505949 
L 539.794286 805.101026 
L 538.097145 806.799007 
z
M 538.494602 806.799007 
L 539.794286 805.49868 
L 541.201601 806.799007 
L 539.794286 808.166398 
z
M 541.78603 803.505949 
L 541.369132 800.212892 
L 543.085714 798.49546 
L 544.42959 800.212892 
L 544.536115 803.505949 
L 543.085714 804.913961 
z
" clip-path="url(#p041cfff852)" style="fill: #eaf3fb; fill-opacity: 0.9"/>
    <path d="M 536.1503 816.678178 
L 536.502857 816.315813 
L 539.433856 813.385121 
L 539.794286 813.011554 
L 543.085714 811.655547 
L 546.377143 813.356307 
L 546.561598 813.385121 
L 549.668571 813.976307 
L 549.787644 813.385121 
L 551.858998 810.092064 
L 552.96 809.469957 
L 554.281037 806.799007 
L 554.945796 803.505949 
L 556.251429 802.172618 
L 557.849978 800.212892 
L 558.305416 796.919835 
L 559.542857 794.691228 
L 560.636871 793.626778 
L 561.906337 790.333721 
L 562.834286 789.260758 
L 565.473301 787.040664 
L 566.125714 786.361982 
L 569.379083 783.747606 
L 569.417143 783.707545 
L 569.748698 783.747606 
L 572.708571 785.413355 
L 576 784.497787 
L 576 783.747606 
L 576 781.34493 
L 573.66137 780.454549 
L 572.708571 780.346918 
L 572.60854 780.454549 
L 569.417143 782.824414 
L 568.540071 783.747606 
L 566.125714 785.68776 
L 564.825174 787.040664 
L 562.834286 788.715515 
L 561.434785 790.333721 
L 559.677763 793.626778 
L 559.542857 793.758038 
L 557.787259 796.919835 
L 557.156148 800.212892 
L 556.251429 801.322024 
L 554.112871 803.505949 
L 553.519874 806.799007 
L 552.96 807.930992 
L 549.668571 809.258199 
L 546.377143 808.136092 
L 543.085714 809.608794 
L 542.623165 810.092064 
L 539.794286 812.490688 
L 538.931306 813.385121 
L 536.502857 815.813316 
L 535.661403 816.678178 
L 533.401872 819.971235 
L 534.370406 819.971235 
z
M 539.794286 808.166398 
L 541.201601 806.799007 
L 539.794286 805.49868 
L 538.494602 806.799007 
z
M 538.892059 806.799007 
L 539.794286 805.896333 
L 540.771229 806.799007 
L 539.794286 807.748236 
z
M 543.085714 804.913961 
L 544.536115 803.505949 
L 544.42959 800.212892 
L 543.085714 798.49546 
L 541.369132 800.212892 
L 541.78603 803.505949 
z
M 542.183487 803.505949 
L 541.894081 800.212892 
L 543.085714 799.020669 
L 544.018619 800.212892 
L 544.092567 803.505949 
L 543.085714 804.483376 
z
M 566.125714 782.20617 
L 567.93356 780.454549 
L 566.125714 779.110009 
L 564.781839 780.454549 
z
M 565.19281 780.454549 
L 566.125714 779.521183 
L 567.380702 780.454549 
L 566.125714 781.670506 
z
M 569.417143 778.970232 
L 571.285928 777.161492 
L 572.708571 775.738145 
L 574.642548 773.868435 
L 572.708571 772.518827 
L 569.417143 772.151003 
L 567.70056 773.868435 
L 568.073268 777.161492 
z
M 568.484239 777.161492 
L 568.225509 773.868435 
L 569.417143 772.676212 
L 572.708571 772.931551 
L 574.051118 773.868435 
L 572.708571 775.166368 
L 570.714434 777.161492 
L 569.417143 778.417101 
z
" clip-path="url(#p041cfff852)" style="fill: #e5eff9; fill-opacity: 0.9"/>
    <path d="M 536.502857 817.298429 
L 538.280434 816.678178 
L 539.794286 815.175002 
L 541.555162 816.678178 
L 543.085714 817.53219 
L 546.377143 817.689497 
L 549.668571 817.401202 
L 550.421282 816.678178 
L 550.946656 813.385121 
L 552.96 810.933032 
L 553.83693 810.092064 
L 555.042201 806.799007 
L 555.77872 803.505949 
L 556.251429 803.023213 
L 558.543808 800.212892 
L 558.823573 796.919835 
L 559.542857 795.624418 
L 561.595978 793.626778 
L 562.377888 790.333721 
L 562.834286 789.806 
L 566.121428 787.040664 
L 566.125714 787.036205 
L 566.174052 787.040664 
L 569.417143 789.556808 
L 572.708571 789.698445 
L 574.507743 787.040664 
L 576 786.191588 
L 576 784.497787 
L 572.708571 785.413355 
L 569.748698 783.747606 
L 569.417143 783.707545 
L 569.379083 783.747606 
L 566.125714 786.361982 
L 565.473301 787.040664 
L 562.834286 789.260758 
L 561.906337 790.333721 
L 560.636871 793.626778 
L 559.542857 794.691228 
L 558.305416 796.919835 
L 557.849978 800.212892 
L 556.251429 802.172618 
L 554.945796 803.505949 
L 554.281037 806.799007 
L 552.96 809.469957 
L 551.858998 810.092064 
L 549.787644 813.385121 
L 549.668571 813.976307 
L 546.561598 813.385121 
L 546.377143 813.356307 
L 543.085714 811.655547 
L 539.794286 813.011554 
L 539.433856 813.385121 
L 536.502857 816.315813 
L 536.1503 816.678178 
L 534.370406 819.971235 
L 535.338941 819.971235 
z
M 539.794286 807.748236 
L 540.771229 806.799007 
L 539.794286 805.896333 
L 538.892059 806.799007 
z
M 539.289516 806.799007 
L 539.794286 806.293987 
L 540.340858 806.799007 
L 539.794286 807.330073 
z
M 543.085714 804.483376 
L 544.092567 803.505949 
L 544.018619 800.212892 
L 543.085714 799.020669 
L 541.894081 800.212892 
L 542.183487 803.505949 
z
M 542.580944 803.505949 
L 542.419029 800.212892 
L 543.085714 799.545877 
L 543.607647 800.212892 
L 543.64902 803.505949 
L 543.085714 804.052792 
z
M 566.125714 781.670506 
L 567.380702 780.454549 
L 566.125714 779.521183 
L 565.19281 780.454549 
z
M 565.603781 780.454549 
L 566.125714 779.932358 
L 566.827844 780.454549 
L 566.125714 781.134842 
z
M 569.417143 778.417101 
L 570.714434 777.161492 
L 572.708571 775.166368 
L 574.051118 773.868435 
L 572.708571 772.931551 
L 569.417143 772.676212 
L 568.225509 773.868435 
L 568.484239 777.161492 
z
M 568.89521 777.161492 
L 568.750458 773.868435 
L 569.417143 773.20142 
L 572.708571 773.344275 
L 573.459688 773.868435 
L 572.708571 774.594591 
L 570.14294 777.161492 
L 569.417143 777.863969 
z
" clip-path="url(#p041cfff852)" style="fill: #dfecf7; fill-opacity: 0.9"/>
    <path d="M 536.502857 819.522564 
L 537.998523 819.971235 
L 539.794286 819.971235 
L 543.085714 819.971235 
L 546.377143 819.971235 
L 547.555553 819.971235 
L 549.668571 818.764191 
L 551.840235 816.678178 
L 552.105668 813.385121 
L 552.96 812.344614 
L 555.308873 810.092064 
L 555.803364 806.799007 
L 556.251429 804.900635 
L 557.791928 803.505949 
L 559.237638 800.212892 
L 559.34173 796.919835 
L 559.542857 796.557608 
L 562.555086 793.626778 
L 562.834286 790.661108 
L 566.125714 793.443299 
L 569.16941 793.626778 
L 569.417143 793.637171 
L 572.708571 793.719634 
L 572.810929 793.626778 
L 574.351097 790.333721 
L 576 788.250394 
L 576 787.040664 
L 576 786.191588 
L 574.507743 787.040664 
L 572.708571 789.698445 
L 569.417143 789.556808 
L 566.174052 787.040664 
L 566.125714 787.036205 
L 566.121428 787.040664 
L 562.834286 789.806 
L 562.377888 790.333721 
L 561.595978 793.626778 
L 559.542857 795.624418 
L 558.823573 796.919835 
L 558.543808 800.212892 
L 556.251429 803.023213 
L 555.77872 803.505949 
L 555.042201 806.799007 
L 553.83693 810.092064 
L 552.96 810.933032 
L 550.946656 813.385121 
L 550.421282 816.678178 
L 549.668571 817.401202 
L 546.377143 817.689497 
L 543.085714 817.53219 
L 541.555162 816.678178 
L 539.794286 815.175002 
L 538.280434 816.678178 
L 536.502857 817.298429 
L 535.338941 819.971235 
L 536.307476 819.971235 
z
M 539.794286 807.330073 
L 540.340858 806.799007 
L 539.794286 806.293987 
L 539.289516 806.799007 
z
M 539.686972 806.799007 
L 539.794286 806.69164 
L 539.910486 806.799007 
L 539.794286 806.91191 
z
M 543.085714 804.052792 
L 543.64902 803.505949 
L 543.607647 800.212892 
L 543.085714 799.545877 
L 542.419029 800.212892 
L 542.580944 803.505949 
z
M 542.978401 803.505949 
L 542.943978 800.212892 
L 543.085714 800.071086 
L 543.196676 800.212892 
L 543.205472 803.505949 
L 543.085714 803.622207 
z
M 566.125714 781.134842 
L 566.827844 780.454549 
L 566.125714 779.932358 
L 565.603781 780.454549 
z
M 566.014752 780.454549 
L 566.125714 780.343532 
L 566.274986 780.454549 
L 566.125714 780.599178 
z
M 569.417143 777.863969 
L 570.14294 777.161492 
L 572.708571 774.594591 
L 573.459688 773.868435 
L 572.708571 773.344275 
L 569.417143 773.20142 
L 568.750458 773.868435 
L 568.89521 777.161492 
z
M 569.306181 777.161492 
L 569.275407 773.868435 
L 569.417143 773.726629 
L 572.708571 773.756999 
L 572.868258 773.868435 
L 572.708571 774.022815 
L 569.571446 777.161492 
L 569.417143 777.310838 
z
" clip-path="url(#p041cfff852)" style="fill: #dae8f6; fill-opacity: 0.9"/>
    <path d="M 536.502857 819.971235 
L 537.998523 819.971235 
L 536.502857 819.522564 
L 536.307476 819.971235 
z
M 549.668571 819.971235 
L 552.96 819.971235 
L 556.251429 819.971235 
L 558.045675 819.971235 
L 559.542857 817.95217 
L 560.66688 816.678178 
L 561.8006 813.385121 
L 562.834286 811.916431 
L 564.459615 810.092064 
L 565.354197 806.799007 
L 566.125714 805.398684 
L 567.781315 803.505949 
L 568.814235 800.212892 
L 569.417143 799.696663 
L 572.629104 796.919835 
L 572.708571 796.898742 
L 573.190372 796.919835 
L 576 799.404554 
L 576 796.919835 
L 576 793.626778 
L 576 790.333721 
L 576 788.250394 
L 574.351097 790.333721 
L 572.810929 793.626778 
L 572.708571 793.719634 
L 569.417143 793.637171 
L 569.16941 793.626778 
L 566.125714 793.443299 
L 562.834286 790.661108 
L 562.555086 793.626778 
L 559.542857 796.557608 
L 559.34173 796.919835 
L 559.237638 800.212892 
L 557.791928 803.505949 
L 556.251429 804.900635 
L 555.803364 806.799007 
L 555.308873 810.092064 
L 552.96 812.344614 
L 552.105668 813.385121 
L 551.840235 816.678178 
L 549.668571 818.764191 
L 547.555553 819.971235 
z
M 572.708571 819.971235 
L 576 819.971235 
L 576 816.678178 
L 576 813.385121 
L 576 810.977822 
L 575.012659 813.385121 
L 572.708571 814.688852 
L 571.662288 816.678178 
L 571.028277 819.971235 
z
M 539.794286 806.91191 
L 539.910486 806.799007 
L 539.794286 806.69164 
L 539.686972 806.799007 
z
M 543.085714 803.622207 
L 543.205472 803.505949 
L 543.196676 800.212892 
L 543.085714 800.071086 
L 542.943978 800.212892 
L 542.978401 803.505949 
z
M 566.125714 780.599178 
L 566.274986 780.454549 
L 566.125714 780.343532 
L 566.014752 780.454549 
z
M 569.417143 777.310838 
L 569.571446 777.161492 
L 572.708571 774.022815 
L 572.868258 773.868435 
L 572.708571 773.756999 
L 569.417143 773.726629 
L 569.275407 773.868435 
L 569.306181 777.161492 
z
" clip-path="url(#p041cfff852)" style="fill: #d6e5f4; fill-opacity: 0.9"/>
    <path d="M 559.542857 819.971235 
L 562.834286 819.971235 
L 566.125714 819.971235 
L 569.417143 819.971235 
L 571.028277 819.971235 
L 571.662288 816.678178 
L 572.708571 814.688852 
L 575.012659 813.385121 
L 576 810.977822 
L 576 810.092064 
L 576 806.799007 
L 576 803.505949 
L 576 800.212892 
L 576 799.404554 
L 573.190372 796.919835 
L 572.708571 796.898742 
L 572.629104 796.919835 
L 569.417143 799.696663 
L 568.814235 800.212892 
L 567.781315 803.505949 
L 566.125714 805.398684 
L 565.354197 806.799007 
L 564.459615 810.092064 
L 562.834286 811.916431 
L 561.8006 813.385121 
L 560.66688 816.678178 
L 559.542857 817.95217 
L 558.045675 819.971235 
z
" clip-path="url(#p041cfff852)" style="fill: #d0e2f2; fill-opacity: 0.9"/>
    <path clip-path="url(#p041cfff852)" style="fill: #cbdef1; fill-opacity: 0.9"/>
    <path clip-path="url(#p041cfff852)" style="fill: #c6dbef; fill-opacity: 0.9"/>
    <path clip-path="url(#p041cfff852)" style="fill: #bed8ec; fill-opacity: 0.9"/>
    <path clip-path="url(#p041cfff852)" style="fill: #b5d4e9; fill-opacity: 0.9"/>
    <path clip-path="url(#p041cfff852)" style="fill: #add0e6; fill-opacity: 0.9"/>
    <path clip-path="url(#p041cfff852)" style="fill: #a5cde3; fill-opacity: 0.9"/>
    <path clip-path="url(#p041cfff852)" style="fill: #9cc9e1; fill-opacity: 0.9"/>
    <path clip-path="url(#p041cfff852)" style="fill: #91c3de; fill-opacity: 0.9"/>
    <path clip-path="url(#p041cfff852)" style="fill: #85bcdc; fill-opacity: 0.9"/>
    <path clip-path="url(#p041cfff852)" style="fill: #7cb7da; fill-opacity: 0.9"/>
    <path clip-path="url(#p041cfff852)" style="fill: #71b1d7; fill-opacity: 0.9"/>
    <path clip-path="url(#p041cfff852)" style="fill: #66abd4; fill-opacity: 0.9"/>
    <path clip-path="url(#p041cfff852)" style="fill: #5da5d1; fill-opacity: 0.9"/>
    <path clip-path="url(#p041cfff852)" style="fill: #56a0ce; fill-opacity: 0.9"/>
    <path clip-path="url(#p041cfff852)" style="fill: #4d99ca; fill-opacity: 0.9"/>
    <path clip-path="url(#p041cfff852)" style="fill: #4493c7; fill-opacity: 0.9"/>
    <path clip-path="url(#p041cfff852)" style="fill: #3c8cc3; fill-opacity: 0.9"/>
    <path clip-path="url(#p041cfff852)" style="fill: #3686c0; fill-opacity: 0.9"/>
    <path clip-path="url(#p041cfff852)" style="fill: #2f7fbc; fill-opacity: 0.9"/>
    <path clip-path="url(#p041cfff852)" style="fill: #2777b8; fill-opacity: 0.9"/>
    <path clip-path="url(#p041cfff852)" style="fill: #2070b4; fill-opacity: 0.9"/>
    <path clip-path="url(#p041cfff852)" style="fill: #1c6ab0; fill-opacity: 0.9"/>
    <path clip-path="url(#p041cfff852)" style="fill: #1663aa; fill-opacity: 0.9"/>
    <path clip-path="url(#p041cfff852)" style="fill: #115ca5; fill-opacity: 0.9"/>
    <path clip-path="url(#p041cfff852)" style="fill: #0c56a0; fill-opacity: 0.9"/>
    <path clip-path="url(#p041cfff852)" style="fill: #084f99; fill-opacity: 0.9"/>
    <path clip-path="url(#p041cfff852)" style="fill: #08488e; fill-opacity: 0.9"/>
    <path clip-path="url(#p041cfff852)" style="fill: #084184; fill-opacity: 0.9"/>
    <path clip-path="url(#p041cfff852)" style="fill: #083a7a; fill-opacity: 0.9"/>
    <path clip-path="url(#p041cfff852)" style="fill: #083370; fill-opacity: 0.9"/>
    <path clip-path="url(#p041cfff852)" style="fill: #08306b; fill-opacity: 0.9"/>
   </g>
   <g id="QuadContourSet_2">
    <path d="M 576 772.906838 
L 572.708571 771.280655 
L 569.417143 770.575378 
L 566.125714 773.868435 
L 566.840355 777.161492 
L 566.125714 777.876486 
L 563.548926 780.454549 
L 565.909299 783.747606 
L 562.880793 787.040664 
L 562.834286 787.079789 
L 560.020131 790.333721 
L 559.542857 791.194637 
L 558.836985 791.830101 
M 546.12682 803.996071 
L 545.866757 803.505949 
L 545.662503 800.212892 
L 543.085714 796.919835 
L 539.794286 800.212892 
L 540.59366 803.505949 
L 539.794286 804.305719 
L 537.302231 806.799007 
L 539.794286 809.420886 
L 540.780273 810.092064 
L 539.794286 810.928088 
L 537.423655 813.385121 
L 536.502857 814.305823 
L 534.19471 816.678178 
L 533.211429 818.053803 
L 531.294944 819.971235 
M 543.085714 807.683349 
L 542.492715 806.799007 
L 543.085714 806.205714 
L 544.17417 806.799007 
L 543.085714 807.683349 
" clip-path="url(#p041cfff852)" style="fill: none"/>
    <path d="M 576 774.553959 
L 575.825409 773.868435 
L 572.708571 771.693379 
L 569.417143 771.100586 
L 566.650663 773.868435 
L 567.251326 777.161492 
L 566.125714 778.28766 
L 563.959897 780.454549 
L 566.125714 783.277498 
L 566.862047 783.747606 
L 566.125714 784.339316 
L 563.52892 787.040664 
L 562.834286 787.625031 
L 560.491682 790.333721 
L 559.542857 792.045232 
L 557.786077 793.626778 
L 556.750945 796.919835 
L 556.251429 798.832151 
L 553.510232 800.212892 
L 552.96 800.82181 
L 549.668571 802.517902 
L 548.756423 803.505949 
L 546.377143 805.303757 
L 545.42321 803.505949 
L 545.251532 800.212892 
L 543.085714 797.445044 
L 540.319234 800.212892 
L 540.991117 803.505949 
L 539.794286 804.703373 
L 537.699688 806.799007 
L 539.794286 809.002723 
L 541.228748 809.979186 
M 543.085714 808.325164 
L 542.062344 806.799007 
L 543.085714 805.77513 
L 544.964122 806.799007 
L 543.085714 808.325164 
z
M 569.417143 781.058151 
L 569.039276 780.454549 
L 569.417143 780.076495 
L 570.229988 780.454549 
L 569.417143 781.058151 
M 572.708571 777.787665 
L 572.428916 777.161492 
L 572.708571 776.881698 
L 573.707597 777.161492 
L 572.708571 777.787665 
" clip-path="url(#p041cfff852)" style="fill: none"/>
    <path d="M 565.455026 779.369854 
L 564.370868 780.454549 
L 566.125714 782.741834 
L 567.701059 783.747606 
L 566.125714 785.013538 
L 564.177047 787.040664 
L 562.834286 788.170273 
L 560.963234 790.333721 
L 559.542857 792.895826 
L 558.730917 793.626778 
L 557.269102 796.919835 
L 556.462318 800.212892 
L 556.251429 800.47143 
L 553.279947 803.505949 
L 552.96 805.456295 
L 549.668571 804.472134 
L 546.377143 806.139679 
L 545.754074 806.799007 
L 543.085714 808.966979 
L 542.008868 810.092064 
L 539.794286 811.969821 
L 538.428756 813.385121 
L 536.502857 815.310818 
L 535.172505 816.678178 
L 533.211429 819.421751 
L 532.662216 819.971235 
M 539.794286 808.584561 
L 541.631972 806.799007 
L 543.085714 805.344545 
L 544.979662 803.505949 
L 544.840561 800.212892 
L 543.085714 797.970252 
L 540.844183 800.212892 
L 541.388574 803.505949 
L 539.794286 805.101026 
L 538.097145 806.799007 
L 539.794286 808.584561 
z
M 569.417143 781.941283 
L 568.486418 780.454549 
L 569.417143 779.523364 
L 571.419264 780.454549 
L 569.417143 781.941283 
z
M 572.708571 779.067292 
L 571.857422 777.161492 
L 572.708571 776.309922 
L 575.749171 777.161492 
L 572.708571 779.067292 
z
" clip-path="url(#p041cfff852)" style="fill: none"/>
    <path d="M 561.50404 790.253643 
L 561.434785 790.333721 
L 559.677763 793.626778 
L 559.542857 793.758038 
L 557.787259 796.919835 
L 557.156148 800.212892 
L 556.251429 801.322024 
L 554.112871 803.505949 
L 553.519874 806.799007 
L 552.96 807.930992 
L 549.668571 809.258199 
L 546.377143 808.136092 
L 543.085714 809.608794 
L 542.623165 810.092064 
L 539.794286 812.490688 
L 538.931306 813.385121 
L 536.502857 815.813316 
L 535.661403 816.678178 
L 533.401872 819.971235 
M 539.794286 808.166398 
L 541.201601 806.799007 
L 539.794286 805.49868 
L 538.494602 806.799007 
L 539.794286 808.166398 
z
M 543.085714 804.913961 
L 544.536115 803.505949 
L 544.42959 800.212892 
L 543.085714 798.49546 
L 541.369132 800.212892 
L 541.78603 803.505949 
L 543.085714 804.913961 
z
M 566.125714 782.20617 
L 567.93356 780.454549 
L 566.125714 779.110009 
L 564.781839 780.454549 
L 566.125714 782.20617 
z
M 569.417143 778.970232 
L 571.285928 777.161492 
L 572.708571 775.738145 
L 574.642548 773.868435 
L 572.708571 772.518827 
L 569.417143 772.151003 
L 567.70056 773.868435 
L 568.073268 777.161492 
L 569.417143 778.970232 
z
" clip-path="url(#p041cfff852)" style="fill: none"/>
    <path d="M 576 784.497787 
L 572.708571 785.413355 
L 569.748698 783.747606 
L 569.417143 783.707545 
L 569.379083 783.747606 
L 566.125714 786.361982 
L 565.473301 787.040664 
L 562.834286 789.260758 
L 561.906337 790.333721 
L 560.636871 793.626778 
L 559.542857 794.691228 
L 558.305416 796.919835 
L 558.098794 798.41382 
M 548.859004 813.822265 
L 546.561598 813.385121 
L 546.377143 813.356307 
L 543.085714 811.655547 
L 539.794286 813.011554 
L 539.433856 813.385121 
L 536.502857 816.315813 
L 536.1503 816.678178 
L 534.370406 819.971235 
M 539.794286 807.748236 
L 540.771229 806.799007 
L 539.794286 805.896333 
L 538.892059 806.799007 
L 539.794286 807.748236 
z
M 543.085714 804.483376 
L 544.092567 803.505949 
L 544.018619 800.212892 
L 543.085714 799.020669 
L 541.894081 800.212892 
L 542.183487 803.505949 
L 543.085714 804.483376 
z
M 566.125714 781.670506 
L 567.380702 780.454549 
L 566.125714 779.521183 
L 565.19281 780.454549 
L 566.125714 781.670506 
z
M 569.417143 778.417101 
L 570.714434 777.161492 
L 572.708571 775.166368 
L 574.051118 773.868435 
L 572.708571 772.931551 
L 569.417143 772.676212 
L 568.225509 773.868435 
L 568.484239 777.161492 
L 569.417143 778.417101 
z
" clip-path="url(#p041cfff852)" style="fill: none"/>
    <path d="M 576 786.191588 
L 574.507743 787.040664 
L 572.708571 789.698445 
L 569.417143 789.556808 
L 566.174052 787.040664 
L 566.125714 787.036205 
L 566.121428 787.040664 
L 562.834286 789.806 
L 562.377888 790.333721 
L 561.595978 793.626778 
L 559.542857 795.624418 
L 558.823573 796.919835 
L 558.704218 798.324741 
M 550.68283 815.038786 
L 550.421282 816.678178 
L 549.668571 817.401202 
L 546.377143 817.689497 
L 543.085714 817.53219 
L 541.555162 816.678178 
L 539.794286 815.175002 
L 538.280434 816.678178 
L 536.502857 817.298429 
L 535.338941 819.971235 
M 539.794286 807.330073 
L 540.340858 806.799007 
L 539.794286 806.293987 
L 539.289516 806.799007 
L 539.794286 807.330073 
z
M 543.085714 804.052792 
L 543.64902 803.505949 
L 543.607647 800.212892 
L 543.085714 799.545877 
L 542.419029 800.212892 
L 542.580944 803.505949 
L 543.085714 804.052792 
z
M 566.125714 781.134842 
L 566.827844 780.454549 
L 566.125714 779.932358 
L 565.603781 780.454549 
L 566.125714 781.134842 
z
M 569.417143 777.863969 
L 570.14294 777.161492 
L 572.708571 774.594591 
L 573.459688 773.868435 
L 572.708571 773.344275 
L 569.417143 773.20142 
L 568.750458 773.868435 
L 568.89521 777.161492 
L 569.417143 777.863969 
z
" clip-path="url(#p041cfff852)" style="fill: none"/>
    <path d="M 537.998523 819.971235 
L 536.502857 819.522564 
L 536.307476 819.971235 
M 576 788.250394 
L 574.351097 790.333721 
L 572.810929 793.626778 
L 572.708571 793.719634 
L 569.417143 793.637171 
L 569.16941 793.626778 
L 566.125714 793.443299 
L 562.834286 790.661108 
L 562.555086 793.626778 
L 559.542857 796.557608 
L 559.34173 796.919835 
L 559.237638 800.212892 
L 558.682305 801.477837 
M 550.643315 817.827892 
L 549.668571 818.764191 
L 547.555553 819.971235 
M 539.794286 806.91191 
L 539.910486 806.799007 
L 539.794286 806.69164 
L 539.686972 806.799007 
L 539.794286 806.91191 
z
M 543.085714 803.622207 
L 543.205472 803.505949 
L 543.196676 800.212892 
L 543.085714 800.071086 
L 542.943978 800.212892 
L 542.978401 803.505949 
L 543.085714 803.622207 
z
M 566.125714 780.599178 
L 566.274986 780.454549 
L 566.125714 780.343532 
L 566.014752 780.454549 
L 566.125714 780.599178 
z
M 569.417143 777.310838 
L 569.571446 777.161492 
L 572.708571 774.022815 
L 572.868258 773.868435 
L 572.708571 773.756999 
L 569.417143 773.726629 
L 569.275407 773.868435 
L 569.306181 777.161492 
L 569.417143 777.310838 
z
" clip-path="url(#p041cfff852)" style="fill: none"/>
    <path d="M 571.028277 819.971235 
L 571.662288 816.678178 
L 572.708571 814.688852 
L 575.012659 813.385121 
L 576 810.977822 
M 568.756345 800.397452 
L 567.781315 803.505949 
L 566.125714 805.398684 
L 565.354197 806.799007 
L 564.459615 810.092064 
L 562.834286 811.916431 
L 561.8006 813.385121 
L 560.66688 816.678178 
L 559.542857 817.95217 
L 558.045675 819.971235 
" clip-path="url(#p041cfff852)" style="fill: none"/>
    <path clip-path="url(#p041cfff852)" style="fill: none"/>
    <path clip-path="url(#p041cfff852)" style="fill: none"/>
    <path clip-path="url(#p041cfff852)" style="fill: none"/>
    <path clip-path="url(#p041cfff852)" style="fill: none"/>
    <path clip-path="url(#p041cfff852)" style="fill: none"/>
    <path clip-path="url(#p041cfff852)" style="fill: none"/>
    <path clip-path="url(#p041cfff852)" style="fill: none"/>
    <path clip-path="url(#p041cfff852)" style="fill: none"/>
    <path clip-path="url(#p041cfff852)" style="fill: none"/>
    <path clip-path="url(#p041cfff852)" style="fill: none"/>
    <path clip-path="url(#p041cfff852)" style="fill: none"/>
    <path clip-path="url(#p041cfff852)" style="fill: none"/>
    <path clip-path="url(#p041cfff852)" style="fill: none"/>
    <path clip-path="url(#p041cfff852)" style="fill: none"/>
    <path clip-path="url(#p041cfff852)" style="fill: none"/>
    <path clip-path="url(#p041cfff852)" style="fill: none"/>
    <path clip-path="url(#p041cfff852)" style="fill: none"/>
    <path clip-path="url(#p041cfff852)" style="fill: none"/>
    <path clip-path="url(#p041cfff852)" style="fill: none"/>
    <path clip-path="url(#p041cfff852)" style="fill: none"/>
    <path clip-path="url(#p041cfff852)" style="fill: none"/>
    <path clip-path="url(#p041cfff852)" style="fill: none"/>
    <path clip-path="url(#p041cfff852)" style="fill: none"/>
    <path clip-path="url(#p041cfff852)" style="fill: none"/>
    <path clip-path="url(#p041cfff852)" style="fill: none"/>
    <path clip-path="url(#p041cfff852)" style="fill: none"/>
    <path clip-path="url(#p041cfff852)" style="fill: none"/>
    <path clip-path="url(#p041cfff852)" style="fill: none"/>
    <path clip-path="url(#p041cfff852)" style="fill: none"/>
    <path clip-path="url(#p041cfff852)" style="fill: none"/>
    <path clip-path="url(#p041cfff852)" style="fill: none"/>
   </g>
   <g id="text_1">
    <g clip-path="url(#p041cfff852)">
     <!-- 0 -->
     <g style="opacity: 0" transform="translate(552.193831 803.387986) rotate(-40.341698) scale(0.12 -0.12)">
      <defs>
       <path id="DejaVuSans-30" d="M 2034 4250 
Q 1547 4250 1301 3770 
Q 1056 3291 1056 2328 
Q 1056 1369 1301 889 
Q 1547 409 2034 409 
Q 2525 409 2770 889 
Q 3016 1369 3016 2328 
Q 3016 3291 2770 3770 
Q 2525 4250 2034 4250 
z
M 2034 4750 
Q 2819 4750 3233 4129 
Q 3647 3509 3647 2328 
Q 3647 1150 3233 529 
Q 2819 -91 2034 -91 
Q 1250 -91 836 529 
Q 422 1150 422 2328 
Q 422 3509 836 4129 
Q 1250 4750 2034 4750 
z
" transform="scale(0.015625)"/>
      </defs>
      <use xlink:href="#DejaVuSans-30"/>
     </g>
    </g>
   </g>
   <g id="text_2">
    <g clip-path="url(#p041cfff852)">
     <!-- 1 -->
     <g style="opacity: 0" transform="translate(534.560299 821.730156) rotate(-47.663861) scale(0.12 -0.12)">
      <defs>
       <path id="DejaVuSans-31" d="M 794 531 
L 1825 531 
L 1825 4091 
L 703 3866 
L 703 4441 
L 1819 4666 
L 2450 4666 
L 2450 531 
L 3481 531 
L 3481 0 
L 794 0 
L 794 531 
z
" transform="scale(0.015625)"/>
      </defs>
      <use xlink:href="#DejaVuSans-31"/>
     </g>
    </g>
   </g>
   <g id="text_3">
    <g clip-path="url(#p041cfff852)">
     <!-- 2 -->
     <g style="opacity: 0" transform="translate(567.073985 776.103215) rotate(-21.437752) scale(0.12 -0.12)">
      <defs>
       <path id="DejaVuSans-32" d="M 1228 531 
L 3431 531 
L 3431 0 
L 469 0 
L 469 531 
Q 828 903 1448 1529 
Q 2069 2156 2228 2338 
Q 2531 2678 2651 2914 
Q 2772 3150 2772 3378 
Q 2772 3750 2511 3984 
Q 2250 4219 1831 4219 
Q 1534 4219 1204 4116 
Q 875 4013 500 3803 
L 500 4441 
Q 881 4594 1212 4672 
Q 1544 4750 1819 4750 
Q 2544 4750 2975 4387 
Q 3406 4025 3406 3419 
Q 3406 3131 3298 2873 
Q 3191 2616 2906 2266 
Q 2828 2175 2409 1742 
Q 1991 1309 1228 531 
z
" transform="scale(0.015625)"/>
      </defs>
      <use xlink:href="#DejaVuSans-32"/>
     </g>
    </g>
   </g>
   <g id="text_4">
    <g clip-path="url(#p041cfff852)">
     <!-- 3 -->
     <g style="opacity: 0" transform="translate(567.757229 788.740085) rotate(-40.150394) scale(0.12 -0.12)">
      <defs>
       <path id="DejaVuSans-33" d="M 2597 2516 
Q 3050 2419 3304 2112 
Q 3559 1806 3559 1356 
Q 3559 666 3084 287 
Q 2609 -91 1734 -91 
Q 1441 -91 1130 -33 
Q 819 25 488 141 
L 488 750 
Q 750 597 1062 519 
Q 1375 441 1716 441 
Q 2309 441 2620 675 
Q 2931 909 2931 1356 
Q 2931 1769 2642 2001 
Q 2353 2234 1838 2234 
L 1294 2234 
L 1294 2753 
L 1863 2753 
Q 2328 2753 2575 2939 
Q 2822 3125 2822 3475 
Q 2822 3834 2567 4026 
Q 2313 4219 1838 4219 
Q 1578 4219 1281 4162 
Q 984 4106 628 3988 
L 628 4550 
Q 988 4650 1302 4700 
Q 1616 4750 1894 4750 
Q 2613 4750 3031 4423 
Q 3450 4097 3450 3541 
Q 3450 3153 3228 2886 
Q 3006 2619 2597 2516 
z
" transform="scale(0.015625)"/>
      </defs>
      <use xlink:href="#DejaVuSans-33"/>
     </g>
    </g>
   </g>
   <g id="text_5">
    <g clip-path="url(#p041cfff852)">
     <!-- 4 -->
     <g style="opacity: 0" transform="translate(555.337663 811.74079) rotate(-61.131) scale(0.12 -0.12)">
      <defs>
       <path id="DejaVuSans-34" d="M 2419 4116 
L 825 1625 
L 2419 1625 
L 2419 4116 
z
M 2253 4666 
L 3047 4666 
L 3047 1625 
L 3713 1625 
L 3713 1100 
L 3047 1100 
L 3047 0 
L 2419 0 
L 2419 1100 
L 313 1100 
L 313 1709 
L 2253 4666 
z
" transform="scale(0.015625)"/>
      </defs>
      <use xlink:href="#DejaVuSans-34"/>
     </g>
    </g>
   </g>
   <g id="text_6">
    <g clip-path="url(#p041cfff852)">
     <!-- 5 -->
     <g style="opacity: 0" transform="translate(556.471619 811.646114) rotate(-65.492909) scale(0.12 -0.12)">
      <defs>
       <path id="DejaVuSans-35" d="M 691 4666 
L 3169 4666 
L 3169 4134 
L 1269 4134 
L 1269 2991 
Q 1406 3038 1543 3061 
Q 1681 3084 1819 3084 
Q 2600 3084 3056 2656 
Q 3513 2228 3513 1497 
Q 3513 744 3044 326 
Q 2575 -91 1722 -91 
Q 1428 -91 1123 -41 
Q 819 9 494 109 
L 494 744 
Q 775 591 1075 516 
Q 1375 441 1709 441 
Q 2250 441 2565 725 
Q 2881 1009 2881 1497 
Q 2881 1984 2565 2268 
Q 2250 2553 1709 2553 
Q 1456 2553 1204 2497 
Q 953 2441 691 2322 
L 691 4666 
z
" transform="scale(0.015625)"/>
      </defs>
      <use xlink:href="#DejaVuSans-35"/>
     </g>
    </g>
   </g>
   <g id="text_7">
    <g clip-path="url(#p041cfff852)">
     <!-- 6 -->
     <g style="opacity: 0" transform="translate(556.608652 814.975531) rotate(-63.966317) scale(0.12 -0.12)">
      <defs>
       <path id="DejaVuSans-36" d="M 2113 2584 
Q 1688 2584 1439 2293 
Q 1191 2003 1191 1497 
Q 1191 994 1439 701 
Q 1688 409 2113 409 
Q 2538 409 2786 701 
Q 3034 994 3034 1497 
Q 3034 2003 2786 2293 
Q 2538 2584 2113 2584 
z
M 3366 4563 
L 3366 3988 
Q 3128 4100 2886 4159 
Q 2644 4219 2406 4219 
Q 1781 4219 1451 3797 
Q 1122 3375 1075 2522 
Q 1259 2794 1537 2939 
Q 1816 3084 2150 3084 
Q 2853 3084 3261 2657 
Q 3669 2231 3669 1497 
Q 3669 778 3244 343 
Q 2819 -91 2113 -91 
Q 1303 -91 875 529 
Q 447 1150 447 2328 
Q 447 3434 972 4092 
Q 1497 4750 2381 4750 
Q 2619 4750 2861 4703 
Q 3103 4656 3366 4563 
z
" transform="scale(0.015625)"/>
      </defs>
      <use xlink:href="#DejaVuSans-36"/>
     </g>
    </g>
   </g>
   <g id="text_8">
    <g clip-path="url(#p041cfff852)">
     <!-- 7 -->
     <g style="opacity: 0" transform="translate(571.058776 800.463792) rotate(-331.161292) scale(0.12 -0.12)">
      <defs>
       <path id="DejaVuSans-37" d="M 525 4666 
L 3525 4666 
L 3525 4397 
L 1831 0 
L 1172 0 
L 2766 4134 
L 525 4134 
L 525 4666 
z
" transform="scale(0.015625)"/>
      </defs>
      <use xlink:href="#DejaVuSans-37"/>
     </g>
    </g>
   </g>
  </g>
 </g>
 <defs>
  <clipPath id="p041cfff852">
   <rect x="0" y="0" width="576" height="819.971235"/>
  </clipPath>
 </defs>
</svg>
