<?xml version="1.0" encoding="utf-8" standalone="no"?>
<!DOCTYPE svg PUBLIC "-//W3C//DTD SVG 1.1//EN"
  "http://www.w3.org/Graphics/SVG/1.1/DTD/svg11.dtd">
<svg xmlns:xlink="http://www.w3.org/1999/xlink" width="576pt" height="816.226927pt" viewBox="0 0 576 816.226927" xmlns="http://www.w3.org/2000/svg" version="1.1">
 <metadata>
  <rdf:RDF xmlns:dc="http://purl.org/dc/elements/1.1/" xmlns:cc="http://creativecommons.org/ns#" xmlns:rdf="http://www.w3.org/1999/02/22-rdf-syntax-ns#">
   <cc:Work>
    <dc:type rdf:resource="http://purl.org/dc/dcmitype/StillImage"/>
    <dc:date>2025-07-25T22:44:54.308112</dc:date>
    <dc:format>image/svg+xml</dc:format>
    <dc:creator>
     <cc:Agent>
      <dc:title>Matplotlib v3.10.3, https://matplotlib.org/</dc:title>
     </cc:Agent>
    </dc:creator>
   </cc:Work>
  </rdf:RDF>
 </metadata>
 <defs>
  <style type="text/css">*{stroke-linejoin: round; stroke-linecap: butt}</style>
 </defs>
 <g id="figure_1">
  <g id="patch_1">
   <path d="M 0 816.226927 
L 576 816.226927 
L 576 0 
L 0 0 
L 0 816.226927 
z
" style="fill: none; opacity: 0"/>
  </g>
  <g id="axes_1">
   <g id="QuadContourSet_1">
    <path d="M 3.139224 763.778611 
L 3.272727 763.765954 
L 6.545455 763.657296 
L 9.818182 763.656964 
L 13.090909 763.656531 
L 16.363636 763.656922 
L 19.636364 763.65943 
L 22.909091 763.661516 
L 26.181818 763.637759 
L 29.454545 763.596304 
L 32.727273 763.505647 
L 36 763.150303 
L 39.272727 762.844454 
L 42.545455 762.87042 
L 45.818182 762.710927 
L 49.090909 762.398898 
L 52.363636 762.017308 
L 55.636364 761.718365 
L 58.909091 761.453246 
L 62.181818 761.225697 
L 65.454545 761.041155 
L 68.727273 760.894338 
L 72 760.532009 
L 72.242523 760.500591 
L 75.272727 759.841946 
L 78.545455 759.389541 
L 81.818182 759.053889 
L 85.090909 758.758422 
L 88.363636 758.502979 
L 91.636364 758.169507 
L 94.909091 757.779319 
L 98.181818 757.406605 
L 99.739032 757.222571 
L 101.454545 756.945215 
L 104.727273 756.453438 
L 108 756.064324 
L 111.272727 755.737899 
L 114.545455 755.318956 
L 117.818182 754.900649 
L 121.090909 754.483851 
L 124.363636 754.066294 
L 125.298437 753.944551 
L 127.636364 753.608647 
L 130.909091 753.206392 
L 134.181818 752.819374 
L 137.454545 752.404841 
L 140.727273 751.987767 
L 144 751.575661 
L 147.272727 751.183845 
L 150.545455 750.760168 
L 151.140329 750.666532 
L 153.818182 750.308932 
L 157.090909 749.871894 
L 160.363636 749.448095 
L 163.636364 749.034447 
L 166.909091 748.607188 
L 170.181818 748.222691 
L 173.454545 747.839323 
L 176.452933 747.388512 
L 176.727273 747.355141 
L 180 746.949866 
L 183.272727 746.540943 
L 186.545455 746.134206 
L 189.818182 745.715119 
L 193.090909 745.411517 
L 196.363636 745.048517 
L 199.636364 744.559227 
L 202.194958 744.110492 
L 202.909091 744.026013 
L 206.181818 743.631461 
L 209.454545 743.22364 
L 212.727273 742.836084 
L 216 742.619899 
L 219.272727 742.345289 
L 222.545455 741.984265 
L 225.818182 741.491856 
L 228.892408 740.832472 
L 229.090909 740.808102 
L 232.363636 740.40631 
L 235.636364 740.091359 
L 238.909091 739.93177 
L 242.181818 739.72828 
L 245.454545 739.459883 
L 248.727273 739.089634 
L 252 738.545978 
L 255.272727 737.669841 
L 255.891209 737.554452 
L 258.545455 737.367284 
L 261.818182 737.26712 
L 265.090909 737.139426 
L 268.363636 736.971197 
L 271.636364 736.73943 
L 274.909091 736.399745 
L 278.181818 735.853896 
L 281.454545 735.541005 
L 284.727273 735.333722 
L 288 735.126488 
L 291.272727 734.919303 
L 294.545455 734.712167 
L 297.818182 734.505079 
L 301.090909 734.297284 
L 301.44045 734.276433 
L 304.363636 734.092844 
L 307.636364 733.887348 
L 310.909091 733.681899 
L 314.181818 733.476498 
L 317.454545 733.271143 
L 320.727273 733.065793 
L 324 732.80566 
L 327.272727 732.560476 
L 330.545455 732.328986 
L 333.818182 732.110076 
L 337.090909 731.902747 
L 340.363636 731.795032 
L 343.636364 731.710276 
L 346.909091 731.538749 
L 350.181818 731.368105 
L 353.454545 731.198338 
L 356.727273 731.029442 
L 357.330356 730.998413 
L 360 730.858106 
L 363.272727 730.697059 
L 366.545455 730.546869 
L 369.818182 730.386504 
L 373.090909 730.226138 
L 376.363636 730.066275 
L 379.636364 729.90729 
L 382.909091 729.748304 
L 386.181818 729.589319 
L 389.454545 729.430334 
L 392.727273 729.307396 
L 396 729.187592 
L 399.272727 729.060351 
L 402.545455 728.924959 
L 405.818182 728.781973 
L 409.090909 728.632057 
L 412.363636 728.472107 
L 415.636364 728.314413 
L 418.909091 728.257936 
L 422.181818 728.201133 
L 425.454545 728.144002 
L 428.727273 728.086538 
L 432 728.02874 
L 435.272727 727.970604 
L 438.545455 727.912128 
L 441.818182 727.853308 
L 445.090909 727.79798 
L 448.363636 727.736661 
L 449.549109 727.720393 
L 451.636364 727.694943 
L 454.909091 727.674194 
L 458.181818 727.653445 
L 461.454545 727.632696 
L 464.727273 727.611947 
L 468 727.591198 
L 471.272727 727.650285 
L 472.534426 727.720393 
L 474.545455 727.93789 
L 477.818182 728.291842 
L 481.090909 728.645793 
L 484.363636 728.999745 
L 487.636364 729.354923 
L 490.909091 729.719845 
L 494.181818 730.084767 
L 497.454545 730.449689 
L 500.727273 730.814611 
L 502.375658 730.998413 
L 504 731.184687 
L 507.272727 731.561537 
L 510.545455 731.944074 
L 513.818182 732.329891 
L 517.090909 732.715708 
L 520.363636 733.101525 
L 523.636364 733.487341 
L 526.909091 733.669702 
L 530.181818 733.750936 
L 533.454545 733.83217 
L 536.727273 733.910142 
L 540 733.986724 
L 543.272727 734.066261 
L 546.545455 734.148927 
L 549.818182 734.234912 
L 551.352864 734.276433 
L 553.090909 734.301964 
L 556.363636 734.347413 
L 559.636364 734.389731 
L 562.909091 734.384514 
L 566.181818 734.295938 
L 566.574773 734.276433 
L 569.454545 733.988763 
L 572.727273 733.693013 
L 576 733.425816 
L 576 730.998413 
L 576 727.720393 
L 576 724.442373 
L 576 721.164354 
L 576 717.886334 
L 576 714.608314 
L 576 711.330294 
L 576 708.052274 
L 576 704.774255 
L 576 701.496235 
L 576 698.218215 
L 576 694.940195 
L 576 691.662175 
L 576 688.933893 
L 572.727273 689.239735 
L 569.454545 689.542836 
L 566.181818 689.884047 
L 562.909091 690.21345 
L 559.636364 690.483204 
L 556.363636 690.70959 
L 553.090909 690.889633 
L 549.818182 691.054588 
L 546.545455 691.206275 
L 543.272727 691.346234 
L 540 691.475773 
L 536.727273 691.596015 
L 535.494728 691.662175 
L 533.454545 691.81218 
L 530.181818 692.098071 
L 526.909091 692.348581 
L 523.636364 692.564596 
L 520.363636 692.740317 
L 517.090909 692.889097 
L 513.818182 693.016691 
L 510.545455 693.113244 
L 507.272727 693.179918 
L 504 693.250811 
L 500.727273 693.378617 
L 497.454545 693.506424 
L 494.181818 693.63423 
L 490.909091 693.762036 
L 487.636364 693.889843 
L 484.363636 694.218282 
L 481.090909 694.606609 
L 478.279522 694.940195 
L 477.818182 694.988794 
L 474.545455 695.330272 
L 471.272727 695.666103 
L 468 695.996424 
L 464.727273 696.321371 
L 461.454545 696.641074 
L 458.181818 696.955658 
L 454.909091 697.265246 
L 451.636364 697.78503 
L 448.363636 698.120627 
L 446.023533 698.218215 
L 445.090909 698.338366 
L 441.818182 698.759997 
L 438.545455 699.181628 
L 435.272727 699.603259 
L 432 700.02489 
L 428.727273 701.077756 
L 425.454545 701.348869 
L 422.181818 701.461916 
L 420.57932 701.496235 
L 418.909091 701.673667 
L 415.636364 702.010366 
L 412.363636 702.340921 
L 409.090909 703.559659 
L 405.818182 704.27204 
L 402.545455 704.527675 
L 399.272727 704.659196 
L 396 704.739336 
L 394.018214 704.774255 
L 392.727273 704.942661 
L 389.454545 705.521653 
L 386.181818 707.145228 
L 382.909091 707.58134 
L 379.636364 707.783895 
L 376.363636 707.900885 
L 373.090909 707.980953 
L 369.818182 708.045535 
L 369.754173 708.052274 
L 366.545455 709.665604 
L 363.272727 710.478983 
L 360 710.833523 
L 356.727273 711.032063 
L 353.454545 711.158997 
L 350.181818 711.247146 
L 348.89459 711.330294 
L 346.909091 712.000663 
L 343.636364 713.336779 
L 340.363636 713.8506 
L 337.090909 714.122607 
L 333.818182 714.293789 
L 330.545455 714.409052 
L 327.272727 714.491559 
L 326.501711 714.608314 
L 324 715.985351 
L 320.727273 716.762077 
L 317.454545 717.144452 
L 314.181818 717.371996 
L 310.909091 717.522917 
L 307.636364 717.63034 
L 305.179504 717.886334 
L 304.363636 718.257451 
L 301.090909 719.527581 
L 297.818182 720.073984 
L 294.545455 720.371882 
L 291.272727 720.571829 
L 288 720.715313 
L 284.727273 720.920423 
L 283.038594 721.164354 
L 281.454545 721.913833 
L 278.181818 722.784605 
L 274.909091 723.258746 
L 271.636364 723.55698 
L 268.363636 723.761883 
L 265.090909 723.911338 
L 261.818182 724.373723 
L 261.387928 724.442373 
L 258.545455 725.542272 
L 255.272727 726.202498 
L 252 726.591882 
L 248.727273 726.848719 
L 245.454545 727.030843 
L 242.181818 727.377145 
L 239.941827 727.720393 
L 238.909091 728.166633 
L 235.636364 729.062035 
L 232.363636 729.566979 
L 229.090909 729.891147 
L 225.818182 730.11688 
L 222.545455 730.389325 
L 219.336251 730.998413 
L 219.272727 731.033247 
L 216 732.214645 
L 212.727273 732.802855 
L 209.454545 733.153304 
L 206.181818 733.38607 
L 202.909091 733.552818 
L 199.636364 734.007325 
L 197.888623 734.276433 
L 196.363636 734.907238 
L 193.090909 735.714094 
L 189.818182 736.172324 
L 186.545455 736.467739 
L 183.272727 736.673425 
L 180 737.010823 
L 176.727273 737.511181 
L 176.444247 737.554452 
L 173.454545 738.552628 
L 170.181818 739.151433 
L 166.909091 739.521257 
L 163.636364 739.797944 
L 160.363636 740.055399 
L 157.090909 740.53898 
L 155.175362 740.832472 
L 153.818182 741.367751 
L 150.545455 742.22967 
L 147.272727 742.68328 
L 144 742.963496 
L 140.727273 743.156541 
L 137.454545 743.594937 
L 134.181818 744.091584 
L 134.054969 744.110492 
L 130.909091 745.080901 
L 127.636364 745.640513 
L 124.363636 746.01381 
L 121.090909 746.271665 
L 117.818182 746.610664 
L 114.545455 747.107145 
L 112.781829 747.388512 
L 111.272727 747.936633 
L 108 748.646577 
L 104.727273 749.074816 
L 101.454545 749.352493 
L 98.181818 749.601793 
L 94.909091 750.103536 
L 91.636364 750.590501 
L 91.116255 750.666532 
L 88.363636 751.443747 
L 85.090909 752.025672 
L 81.818182 752.401615 
L 78.545455 752.656686 
L 75.272727 753.112342 
L 72 753.614855 
L 69.811159 753.944551 
L 68.727273 754.282931 
L 65.454545 754.987802 
L 62.181818 755.419178 
L 58.909091 755.710182 
L 55.636364 756.113336 
L 52.363636 756.610309 
L 49.090909 757.078892 
L 48.161067 757.222571 
L 45.818182 757.883853 
L 42.545455 758.492577 
L 39.272727 758.87106 
L 36 759.166887 
L 32.727273 759.476083 
L 29.454545 759.785279 
L 26.181818 760.099487 
L 22.909091 760.406165 
L 21.883226 760.500591 
L 19.636364 760.890728 
L 16.363636 761.312221 
L 13.090909 761.647094 
L 9.818182 761.909332 
L 6.545455 762.111114 
L 3.272727 762.331978 
L 0 762.651694 
L -0 763.778611 
L -0 765.638474 
z
" clip-path="url(#pb89f6cf3ff)" style="fill: #f5f9fe; fill-opacity: 0.9"/>
    <path d="M 566.181818 806.438197 
L 569.454545 807.047137 
L 572.727273 807.656076 
L 576 808.265016 
L 576 806.392868 
L 576 803.114848 
L 576 799.836828 
L 576 796.558809 
L 576 793.280789 
L 576 790.002769 
L 576 786.724749 
L 576 783.446729 
L 576 780.16871 
L 576 776.89069 
L 576 773.61267 
L 576 770.33465 
L 576 767.056631 
L 576 763.778611 
L 576 760.500591 
L 576 757.222571 
L 576 753.944551 
L 576 750.666532 
L 576 747.388512 
L 576 744.110492 
L 576 740.832472 
L 576 737.554452 
L 576 734.276433 
L 576 733.425816 
L 572.727273 733.693013 
L 569.454545 733.988763 
L 566.574773 734.276433 
L 566.181818 734.295938 
L 562.909091 734.384514 
L 559.636364 734.389731 
L 556.363636 734.347413 
L 553.090909 734.301964 
L 551.352864 734.276433 
L 549.818182 734.234912 
L 546.545455 734.148927 
L 543.272727 734.066261 
L 540 733.986724 
L 536.727273 733.910142 
L 533.454545 733.83217 
L 530.181818 733.750936 
L 526.909091 733.669702 
L 523.636364 733.487341 
L 520.363636 733.101525 
L 517.090909 732.715708 
L 513.818182 732.329891 
L 510.545455 731.944074 
L 507.272727 731.561537 
L 504 731.184687 
L 502.375658 730.998413 
L 500.727273 730.814611 
L 497.454545 730.449689 
L 494.181818 730.084767 
L 490.909091 729.719845 
L 487.636364 729.354923 
L 484.363636 728.999745 
L 481.090909 728.645793 
L 477.818182 728.291842 
L 474.545455 727.93789 
L 472.534426 727.720393 
L 471.272727 727.650285 
L 468 727.591198 
L 464.727273 727.611947 
L 461.454545 727.632696 
L 458.181818 727.653445 
L 454.909091 727.674194 
L 451.636364 727.694943 
L 449.549109 727.720393 
L 448.363636 727.736661 
L 445.090909 727.79798 
L 441.818182 727.853308 
L 438.545455 727.912128 
L 435.272727 727.970604 
L 432 728.02874 
L 428.727273 728.086538 
L 425.454545 728.144002 
L 422.181818 728.201133 
L 418.909091 728.257936 
L 415.636364 728.314413 
L 412.363636 728.472107 
L 409.090909 728.632057 
L 405.818182 728.781973 
L 402.545455 728.924959 
L 399.272727 729.060351 
L 396 729.187592 
L 392.727273 729.307396 
L 389.454545 729.430334 
L 386.181818 729.589319 
L 382.909091 729.748304 
L 379.636364 729.90729 
L 376.363636 730.066275 
L 373.090909 730.226138 
L 369.818182 730.386504 
L 366.545455 730.546869 
L 363.272727 730.697059 
L 360 730.858106 
L 357.330356 730.998413 
L 356.727273 731.029442 
L 353.454545 731.198338 
L 350.181818 731.368105 
L 346.909091 731.538749 
L 343.636364 731.710276 
L 340.363636 731.795032 
L 337.090909 731.902747 
L 333.818182 732.110076 
L 330.545455 732.328986 
L 327.272727 732.560476 
L 324 732.80566 
L 320.727273 733.065793 
L 317.454545 733.271143 
L 314.181818 733.476498 
L 310.909091 733.681899 
L 307.636364 733.887348 
L 304.363636 734.092844 
L 301.44045 734.276433 
L 301.090909 734.297284 
L 297.818182 734.505079 
L 294.545455 734.712167 
L 291.272727 734.919303 
L 288 735.126488 
L 284.727273 735.333722 
L 281.454545 735.541005 
L 278.181818 735.853896 
L 274.909091 736.399745 
L 271.636364 736.73943 
L 268.363636 736.971197 
L 265.090909 737.139426 
L 261.818182 737.26712 
L 258.545455 737.367284 
L 255.891209 737.554452 
L 255.272727 737.669841 
L 252 738.545978 
L 248.727273 739.089634 
L 245.454545 739.459883 
L 242.181818 739.72828 
L 238.909091 739.93177 
L 235.636364 740.091359 
L 232.363636 740.40631 
L 229.090909 740.808102 
L 228.892408 740.832472 
L 225.818182 741.491856 
L 222.545455 741.984265 
L 219.272727 742.345289 
L 216 742.619899 
L 212.727273 742.836084 
L 209.454545 743.22364 
L 206.181818 743.631461 
L 202.909091 744.026013 
L 202.194958 744.110492 
L 199.636364 744.559227 
L 196.363636 745.048517 
L 193.090909 745.411517 
L 189.818182 745.715119 
L 186.545455 746.134206 
L 183.272727 746.540943 
L 180 746.949866 
L 176.727273 747.355141 
L 176.452933 747.388512 
L 173.454545 747.839323 
L 170.181818 748.222691 
L 166.909091 748.607188 
L 163.636364 749.034447 
L 160.363636 749.448095 
L 157.090909 749.871894 
L 153.818182 750.308932 
L 151.140329 750.666532 
L 150.545455 750.760168 
L 147.272727 751.183845 
L 144 751.575661 
L 140.727273 751.987767 
L 137.454545 752.404841 
L 134.181818 752.819374 
L 130.909091 753.206392 
L 127.636364 753.608647 
L 125.298437 753.944551 
L 124.363636 754.066294 
L 121.090909 754.483851 
L 117.818182 754.900649 
L 114.545455 755.318956 
L 111.272727 755.737899 
L 108 756.064324 
L 104.727273 756.453438 
L 101.454545 756.945215 
L 99.739032 757.222571 
L 98.181818 757.406605 
L 94.909091 757.779319 
L 91.636364 758.169507 
L 88.363636 758.502979 
L 85.090909 758.758422 
L 81.818182 759.053889 
L 78.545455 759.389541 
L 75.272727 759.841946 
L 72.242523 760.500591 
L 72 760.532009 
L 68.727273 760.894338 
L 65.454545 761.041155 
L 62.181818 761.225697 
L 58.909091 761.453246 
L 55.636364 761.718365 
L 52.363636 762.017308 
L 49.090909 762.398898 
L 45.818182 762.710927 
L 42.545455 762.87042 
L 39.272727 762.844454 
L 36 763.150303 
L 32.727273 763.505647 
L 29.454545 763.596304 
L 26.181818 763.637759 
L 22.909091 763.661516 
L 19.636364 763.65943 
L 16.363636 763.656922 
L 13.090909 763.656531 
L 9.818182 763.656964 
L 6.545455 763.657296 
L 3.272727 763.765954 
L 3.139224 763.778611 
L -0 765.638474 
L -0 767.056631 
L -0 770.33465 
L -0 773.61267 
L -0 776.89069 
L -0 780.16871 
L -0 782.081521 
L 3.272727 781.840647 
L 6.545455 781.648678 
L 9.818182 781.56943 
L 13.090909 781.477792 
L 16.363636 781.366225 
L 19.636364 781.227196 
L 22.909091 781.049359 
L 26.181818 780.814424 
L 29.454545 780.488744 
L 31.772907 780.16871 
L 32.727273 780.112699 
L 36 779.920625 
L 39.272727 779.72356 
L 42.545455 779.71773 
L 45.818182 779.709923 
L 49.090909 779.698929 
L 52.363636 779.684586 
L 55.636364 779.662296 
L 58.909091 779.631006 
L 62.181818 779.73502 
L 65.454545 780.052902 
L 66.631826 780.16871 
L 68.727273 780.231697 
L 72 780.31556 
L 74.230696 780.16871 
L 75.272727 779.982856 
L 78.545455 779.543527 
L 81.818182 779.238316 
L 85.090909 779.023915 
L 88.363636 778.869698 
L 91.636364 778.753772 
L 94.909091 778.701998 
L 98.181818 778.571293 
L 101.454545 778.380869 
L 104.727273 778.174432 
L 108 778.040037 
L 111.272727 777.950277 
L 114.545455 777.879099 
L 117.818182 777.705882 
L 121.090909 777.485714 
L 124.363636 777.223425 
L 127.636364 777.100698 
L 130.909091 776.953737 
L 132.139502 776.89069 
L 134.181818 776.828905 
L 137.454545 776.88703 
L 137.574923 776.89069 
L 140.727273 777.033838 
L 144 777.148956 
L 147.272727 777.115664 
L 150.545455 777.082372 
L 153.818182 777.096344 
L 157.090909 777.141007 
L 160.363636 777.194725 
L 163.636364 777.258565 
L 166.909091 777.039722 
L 168.483336 776.89069 
L 170.181818 776.811251 
L 173.454545 776.66981 
L 176.727273 776.535738 
L 180 776.660528 
L 183.018273 776.89069 
L 183.272727 776.983795 
L 186.545455 777.776475 
L 189.818182 778.469361 
L 193.090909 779.358753 
L 196.363636 779.872579 
L 199.50637 780.16871 
L 199.636364 780.176408 
L 202.909091 780.365679 
L 206.181818 780.536487 
L 209.454545 780.691576 
L 212.727273 780.833021 
L 216 780.883752 
L 219.272727 780.704698 
L 222.545455 780.588814 
L 225.818182 780.544138 
L 229.090909 780.520183 
L 232.363636 780.508474 
L 235.636364 780.492184 
L 238.909091 780.450038 
L 242.181818 780.415312 
L 245.454545 780.360734 
L 247.698051 780.16871 
L 248.727273 779.936914 
L 252 779.372827 
L 255.272727 778.97965 
L 258.545455 778.761812 
L 261.818182 778.631296 
L 265.090909 778.516016 
L 268.363636 778.381551 
L 271.636364 778.245099 
L 274.909091 778.074244 
L 278.181818 777.815299 
L 281.454545 777.584788 
L 284.727273 777.337135 
L 288 777.061925 
L 290.136482 776.89069 
L 291.272727 776.785837 
L 294.545455 776.65743 
L 297.818182 776.536367 
L 301.090909 776.422035 
L 304.363636 776.274931 
L 307.636364 776.092992 
L 310.909091 775.911054 
L 314.181818 775.790099 
L 317.454545 775.751419 
L 320.727273 775.706501 
L 324 775.653704 
L 327.272727 775.689262 
L 330.545455 775.734917 
L 333.818182 775.778583 
L 337.090909 775.788079 
L 340.363636 775.767454 
L 343.636364 775.714152 
L 346.909091 775.66231 
L 350.181818 775.611869 
L 353.454545 775.562772 
L 356.727273 775.514968 
L 360 775.476889 
L 363.272727 775.443365 
L 366.545455 775.408625 
L 369.818182 775.372601 
L 373.090909 775.363941 
L 376.363636 775.355298 
L 379.636364 775.476371 
L 382.909091 775.649617 
L 386.181818 775.822862 
L 389.454545 775.996108 
L 392.727273 776.278742 
L 396 776.63085 
L 398.186284 776.89069 
L 399.272727 777.203771 
L 402.545455 778.140247 
L 405.818182 779.078375 
L 409.090909 780.016503 
L 409.621892 780.16871 
L 412.363636 780.683888 
L 415.636364 781.218658 
L 418.909091 781.687324 
L 422.181818 782.119193 
L 425.454545 782.518436 
L 428.727273 782.888615 
L 432 783.231488 
L 434.201813 783.446729 
L 435.272727 783.549843 
L 438.545455 783.875306 
L 441.818182 784.217531 
L 445.090909 784.577847 
L 448.363636 784.957729 
L 451.636364 785.357891 
L 454.909091 785.763864 
L 458.181818 786.180252 
L 461.454545 786.616719 
L 462.223247 786.724749 
L 464.727273 787.154079 
L 468 787.706302 
L 471.272727 788.248682 
L 474.545455 788.781481 
L 477.818182 789.304951 
L 481.090909 789.819334 
L 482.271912 790.002769 
L 484.363636 790.292998 
L 487.636364 790.74945 
L 490.909091 791.201673 
L 494.181818 791.624135 
L 497.454545 792.007825 
L 500.727273 792.372262 
L 504 792.72076 
L 507.272727 793.068467 
L 509.038323 793.280789 
L 510.545455 793.483785 
L 513.818182 793.909452 
L 517.090909 794.339899 
L 520.363636 794.771182 
L 523.636364 795.202952 
L 526.909091 795.599999 
L 530.181818 796.000358 
L 533.454545 796.419119 
L 534.51379 796.558809 
L 536.727273 797.636498 
L 540 799.214361 
L 541.301656 799.836828 
L 543.272727 800.802424 
L 546.545455 802.408178 
L 548.068377 803.114848 
L 549.818182 803.438357 
L 553.090909 804.034173 
L 556.363636 804.629988 
L 559.636364 805.225804 
L 562.909091 805.827765 
L 565.938197 806.392868 
z
" clip-path="url(#pb89f6cf3ff)" style="fill: #eff6fc; fill-opacity: 0.9"/>
    <path d="M 3.272727 816.226927 
L 6.545455 816.226927 
L 9.818182 816.226927 
L 13.090909 816.226927 
L 16.363636 816.226927 
L 19.636364 816.226927 
L 22.909091 816.226927 
L 26.181818 816.226927 
L 29.454545 816.226927 
L 32.727273 816.226927 
L 36 816.226927 
L 39.272727 816.226927 
L 42.545455 816.226927 
L 45.818182 816.226927 
L 49.090909 816.226927 
L 52.363636 816.226927 
L 55.636364 816.226927 
L 58.909091 816.226927 
L 62.181818 816.226927 
L 65.454545 816.226927 
L 68.727273 816.226927 
L 72 816.226927 
L 75.272727 816.226927 
L 78.545455 816.226927 
L 81.818182 816.226927 
L 85.090909 816.226927 
L 88.363636 816.226927 
L 91.636364 816.226927 
L 94.909091 816.226927 
L 98.181818 816.226927 
L 101.454545 816.226927 
L 104.727273 816.226927 
L 108 816.226927 
L 111.272727 816.226927 
L 114.545455 816.226927 
L 117.818182 816.226927 
L 121.090909 816.226927 
L 124.363636 816.226927 
L 127.636364 816.226927 
L 130.909091 816.226927 
L 134.181818 816.226927 
L 137.454545 816.226927 
L 140.727273 816.226927 
L 144 816.226927 
L 147.272727 816.226927 
L 150.545455 816.226927 
L 153.818182 816.226927 
L 157.090909 816.226927 
L 160.363636 816.226927 
L 163.636364 816.226927 
L 166.909091 816.226927 
L 170.181818 816.226927 
L 173.454545 816.226927 
L 176.727273 816.226927 
L 180 816.226927 
L 183.272727 816.226927 
L 186.545455 816.226927 
L 189.818182 816.226927 
L 193.090909 816.226927 
L 196.363636 816.226927 
L 199.636364 816.226927 
L 202.909091 816.226927 
L 206.181818 816.226927 
L 209.454545 816.226927 
L 212.727273 816.226927 
L 216 816.226927 
L 219.272727 816.226927 
L 222.545455 816.226927 
L 225.818182 816.226927 
L 229.090909 816.226927 
L 232.363636 816.226927 
L 235.636364 816.226927 
L 238.909091 816.226927 
L 242.181818 816.226927 
L 245.454545 816.226927 
L 248.727273 816.226927 
L 252 816.226927 
L 255.272727 816.226927 
L 258.545455 816.226927 
L 261.818182 816.226927 
L 265.090909 816.226927 
L 268.363636 816.226927 
L 271.636364 816.226927 
L 274.909091 816.226927 
L 278.181818 816.226927 
L 281.454545 816.226927 
L 284.727273 816.226927 
L 288 816.226927 
L 291.272727 816.226927 
L 294.545455 816.226927 
L 297.818182 816.226927 
L 301.090909 816.226927 
L 304.363636 816.226927 
L 307.636364 816.226927 
L 310.909091 816.226927 
L 314.181818 816.226927 
L 317.454545 816.226927 
L 320.727273 816.226927 
L 324 816.226927 
L 327.272727 816.226927 
L 330.545455 816.226927 
L 333.818182 816.226927 
L 337.090909 816.226927 
L 340.363636 816.226927 
L 343.636364 816.226927 
L 346.909091 816.226927 
L 350.181818 816.226927 
L 353.454545 816.226927 
L 356.727273 816.226927 
L 360 816.226927 
L 363.272727 816.226927 
L 366.545455 816.226927 
L 369.818182 816.226927 
L 373.090909 816.226927 
L 376.363636 816.226927 
L 379.636364 816.226927 
L 382.909091 816.226927 
L 386.181818 816.226927 
L 389.454545 816.226927 
L 392.727273 816.226927 
L 396 816.226927 
L 399.272727 816.226927 
L 402.545455 816.226927 
L 405.818182 816.226927 
L 409.090909 816.226927 
L 412.363636 816.226927 
L 415.636364 816.226927 
L 418.909091 816.226927 
L 422.181818 816.226927 
L 425.454545 816.226927 
L 428.727273 816.226927 
L 432 816.226927 
L 435.272727 816.226927 
L 438.545455 816.226927 
L 441.818182 816.226927 
L 445.090909 816.226927 
L 448.363636 816.226927 
L 451.636364 816.226927 
L 454.909091 816.226927 
L 458.181818 816.226927 
L 461.454545 816.226927 
L 464.727273 816.226927 
L 468 816.226927 
L 471.272727 816.226927 
L 474.545455 816.226927 
L 477.818182 816.226927 
L 481.090909 816.226927 
L 484.363636 816.226927 
L 487.636364 816.226927 
L 490.909091 816.226927 
L 494.181818 816.226927 
L 497.454545 816.226927 
L 500.727273 816.226927 
L 504 816.226927 
L 507.272727 816.226927 
L 510.545455 816.226927 
L 513.818182 816.226927 
L 517.090909 816.226927 
L 520.363636 816.226927 
L 523.636364 816.226927 
L 526.909091 816.226927 
L 530.181818 816.226927 
L 533.454545 816.226927 
L 536.727273 816.226927 
L 540 816.226927 
L 543.272727 816.226927 
L 546.545455 816.226927 
L 549.818182 816.226927 
L 553.090909 816.226927 
L 556.363636 816.226927 
L 559.636364 816.226927 
L 562.909091 816.226927 
L 566.181818 816.226927 
L 569.454545 816.226927 
L 572.727273 816.226927 
L 576 816.226927 
L 576 812.948908 
L 576 809.670888 
L 576 808.265016 
L 572.727273 807.656076 
L 569.454545 807.047137 
L 566.181818 806.438197 
L 565.938197 806.392868 
L 562.909091 805.827765 
L 559.636364 805.225804 
L 556.363636 804.629988 
L 553.090909 804.034173 
L 549.818182 803.438357 
L 548.068377 803.114848 
L 546.545455 802.408178 
L 543.272727 800.802424 
L 541.301656 799.836828 
L 540 799.214361 
L 536.727273 797.636498 
L 534.51379 796.558809 
L 533.454545 796.419119 
L 530.181818 796.000358 
L 526.909091 795.599999 
L 523.636364 795.202952 
L 520.363636 794.771182 
L 517.090909 794.339899 
L 513.818182 793.909452 
L 510.545455 793.483785 
L 509.038323 793.280789 
L 507.272727 793.068467 
L 504 792.72076 
L 500.727273 792.372262 
L 497.454545 792.007825 
L 494.181818 791.624135 
L 490.909091 791.201673 
L 487.636364 790.74945 
L 484.363636 790.292998 
L 482.271912 790.002769 
L 481.090909 789.819334 
L 477.818182 789.304951 
L 474.545455 788.781481 
L 471.272727 788.248682 
L 468 787.706302 
L 464.727273 787.154079 
L 462.223247 786.724749 
L 461.454545 786.616719 
L 458.181818 786.180252 
L 454.909091 785.763864 
L 451.636364 785.357891 
L 448.363636 784.957729 
L 445.090909 784.577847 
L 441.818182 784.217531 
L 438.545455 783.875306 
L 435.272727 783.549843 
L 434.201813 783.446729 
L 432 783.231488 
L 428.727273 782.888615 
L 425.454545 782.518436 
L 422.181818 782.119193 
L 418.909091 781.687324 
L 415.636364 781.218658 
L 412.363636 780.683888 
L 409.621892 780.16871 
L 409.090909 780.016503 
L 405.818182 779.078375 
L 402.545455 778.140247 
L 399.272727 777.203771 
L 398.186284 776.89069 
L 396 776.63085 
L 392.727273 776.278742 
L 389.454545 775.996108 
L 386.181818 775.822862 
L 382.909091 775.649617 
L 379.636364 775.476371 
L 376.363636 775.355298 
L 373.090909 775.363941 
L 369.818182 775.372601 
L 366.545455 775.408625 
L 363.272727 775.443365 
L 360 775.476889 
L 356.727273 775.514968 
L 353.454545 775.562772 
L 350.181818 775.611869 
L 346.909091 775.66231 
L 343.636364 775.714152 
L 340.363636 775.767454 
L 337.090909 775.788079 
L 333.818182 775.778583 
L 330.545455 775.734917 
L 327.272727 775.689262 
L 324 775.653704 
L 320.727273 775.706501 
L 317.454545 775.751419 
L 314.181818 775.790099 
L 310.909091 775.911054 
L 307.636364 776.092992 
L 304.363636 776.274931 
L 301.090909 776.422035 
L 297.818182 776.536367 
L 294.545455 776.65743 
L 291.272727 776.785837 
L 290.136482 776.89069 
L 288 777.061925 
L 284.727273 777.337135 
L 281.454545 777.584788 
L 278.181818 777.815299 
L 274.909091 778.074244 
L 271.636364 778.245099 
L 268.363636 778.381551 
L 265.090909 778.516016 
L 261.818182 778.631296 
L 258.545455 778.761812 
L 255.272727 778.97965 
L 252 779.372827 
L 248.727273 779.936914 
L 247.698051 780.16871 
L 245.454545 780.360734 
L 242.181818 780.415312 
L 238.909091 780.450038 
L 235.636364 780.492184 
L 232.363636 780.508474 
L 229.090909 780.520183 
L 225.818182 780.544138 
L 222.545455 780.588814 
L 219.272727 780.704698 
L 216 780.883752 
L 212.727273 780.833021 
L 209.454545 780.691576 
L 206.181818 780.536487 
L 202.909091 780.365679 
L 199.636364 780.176408 
L 199.50637 780.16871 
L 196.363636 779.872579 
L 193.090909 779.358753 
L 189.818182 778.469361 
L 186.545455 777.776475 
L 183.272727 776.983795 
L 183.018273 776.89069 
L 180 776.660528 
L 176.727273 776.535738 
L 173.454545 776.66981 
L 170.181818 776.811251 
L 168.483336 776.89069 
L 166.909091 777.039722 
L 163.636364 777.258565 
L 160.363636 777.194725 
L 157.090909 777.141007 
L 153.818182 777.096344 
L 150.545455 777.082372 
L 147.272727 777.115664 
L 144 777.148956 
L 140.727273 777.033838 
L 137.574923 776.89069 
L 137.454545 776.88703 
L 134.181818 776.828905 
L 132.139502 776.89069 
L 130.909091 776.953737 
L 127.636364 777.100698 
L 124.363636 777.223425 
L 121.090909 777.485714 
L 117.818182 777.705882 
L 114.545455 777.879099 
L 111.272727 777.950277 
L 108 778.040037 
L 104.727273 778.174432 
L 101.454545 778.380869 
L 98.181818 778.571293 
L 94.909091 778.701998 
L 91.636364 778.753772 
L 88.363636 778.869698 
L 85.090909 779.023915 
L 81.818182 779.238316 
L 78.545455 779.543527 
L 75.272727 779.982856 
L 74.230696 780.16871 
L 72 780.31556 
L 68.727273 780.231697 
L 66.631826 780.16871 
L 65.454545 780.052902 
L 62.181818 779.73502 
L 58.909091 779.631006 
L 55.636364 779.662296 
L 52.363636 779.684586 
L 49.090909 779.698929 
L 45.818182 779.709923 
L 42.545455 779.71773 
L 39.272727 779.72356 
L 36 779.920625 
L 32.727273 780.112699 
L 31.772907 780.16871 
L 29.454545 780.488744 
L 26.181818 780.814424 
L 22.909091 781.049359 
L 19.636364 781.227196 
L 16.363636 781.366225 
L 13.090909 781.477792 
L 9.818182 781.56943 
L 6.545455 781.648678 
L 3.272727 781.840647 
L -0 782.081521 
L -0 783.446729 
L -0 786.724749 
L -0 790.002769 
L -0 793.280789 
L -0 796.558809 
L -0 799.836828 
L -0 803.114848 
L -0 806.392868 
L -0 809.670888 
L -0 812.948908 
L -0 816.226927 
z
" clip-path="url(#pb89f6cf3ff)" style="fill: #eaf3fb; fill-opacity: 0.9"/>
    <path clip-path="url(#pb89f6cf3ff)" style="fill: #e5eff9; fill-opacity: 0.9"/>
    <path clip-path="url(#pb89f6cf3ff)" style="fill: #dfecf7; fill-opacity: 0.9"/>
    <path clip-path="url(#pb89f6cf3ff)" style="fill: #dae8f6; fill-opacity: 0.9"/>
    <path clip-path="url(#pb89f6cf3ff)" style="fill: #d6e5f4; fill-opacity: 0.9"/>
    <path clip-path="url(#pb89f6cf3ff)" style="fill: #d0e2f2; fill-opacity: 0.9"/>
    <path clip-path="url(#pb89f6cf3ff)" style="fill: #cbdef1; fill-opacity: 0.9"/>
    <path clip-path="url(#pb89f6cf3ff)" style="fill: #c6dbef; fill-opacity: 0.9"/>
    <path clip-path="url(#pb89f6cf3ff)" style="fill: #bed8ec; fill-opacity: 0.9"/>
    <path clip-path="url(#pb89f6cf3ff)" style="fill: #b5d4e9; fill-opacity: 0.9"/>
    <path clip-path="url(#pb89f6cf3ff)" style="fill: #add0e6; fill-opacity: 0.9"/>
    <path clip-path="url(#pb89f6cf3ff)" style="fill: #a5cde3; fill-opacity: 0.9"/>
    <path clip-path="url(#pb89f6cf3ff)" style="fill: #9cc9e1; fill-opacity: 0.9"/>
    <path clip-path="url(#pb89f6cf3ff)" style="fill: #91c3de; fill-opacity: 0.9"/>
    <path clip-path="url(#pb89f6cf3ff)" style="fill: #85bcdc; fill-opacity: 0.9"/>
    <path clip-path="url(#pb89f6cf3ff)" style="fill: #7cb7da; fill-opacity: 0.9"/>
    <path clip-path="url(#pb89f6cf3ff)" style="fill: #71b1d7; fill-opacity: 0.9"/>
    <path clip-path="url(#pb89f6cf3ff)" style="fill: #66abd4; fill-opacity: 0.9"/>
    <path clip-path="url(#pb89f6cf3ff)" style="fill: #5da5d1; fill-opacity: 0.9"/>
    <path clip-path="url(#pb89f6cf3ff)" style="fill: #56a0ce; fill-opacity: 0.9"/>
    <path clip-path="url(#pb89f6cf3ff)" style="fill: #4d99ca; fill-opacity: 0.9"/>
    <path clip-path="url(#pb89f6cf3ff)" style="fill: #4493c7; fill-opacity: 0.9"/>
    <path clip-path="url(#pb89f6cf3ff)" style="fill: #3c8cc3; fill-opacity: 0.9"/>
    <path clip-path="url(#pb89f6cf3ff)" style="fill: #3686c0; fill-opacity: 0.9"/>
    <path clip-path="url(#pb89f6cf3ff)" style="fill: #2f7fbc; fill-opacity: 0.9"/>
    <path clip-path="url(#pb89f6cf3ff)" style="fill: #2777b8; fill-opacity: 0.9"/>
    <path clip-path="url(#pb89f6cf3ff)" style="fill: #2070b4; fill-opacity: 0.9"/>
    <path clip-path="url(#pb89f6cf3ff)" style="fill: #1c6ab0; fill-opacity: 0.9"/>
    <path clip-path="url(#pb89f6cf3ff)" style="fill: #1663aa; fill-opacity: 0.9"/>
    <path clip-path="url(#pb89f6cf3ff)" style="fill: #115ca5; fill-opacity: 0.9"/>
    <path clip-path="url(#pb89f6cf3ff)" style="fill: #0c56a0; fill-opacity: 0.9"/>
    <path clip-path="url(#pb89f6cf3ff)" style="fill: #084f99; fill-opacity: 0.9"/>
    <path clip-path="url(#pb89f6cf3ff)" style="fill: #08488e; fill-opacity: 0.9"/>
    <path clip-path="url(#pb89f6cf3ff)" style="fill: #084184; fill-opacity: 0.9"/>
    <path clip-path="url(#pb89f6cf3ff)" style="fill: #083a7a; fill-opacity: 0.9"/>
    <path clip-path="url(#pb89f6cf3ff)" style="fill: #083370; fill-opacity: 0.9"/>
    <path clip-path="url(#pb89f6cf3ff)" style="fill: #08306b; fill-opacity: 0.9"/>
   </g>
   <g id="QuadContourSet_2">
    <path d="M 576 688.933893 
L 556.363636 690.70959 
L 543.272727 691.346234 
L 533.454545 691.81218 
L 523.636364 692.564596 
L 513.818182 693.016691 
L 487.636364 693.889843 
L 478.279522 694.940195 
L 477.47351 695.024757 
M 458.522027 696.922957 
L 454.909091 697.265246 
L 451.636364 697.78503 
L 448.363636 698.120627 
L 445.090909 698.338366 
L 432 700.02489 
L 428.727273 701.077756 
L 425.454545 701.348869 
L 418.909091 701.673667 
L 412.363636 702.340921 
L 409.090909 703.559659 
L 405.818182 704.27204 
L 402.545455 704.527675 
L 392.727273 704.942661 
L 389.454545 705.521653 
L 386.181818 707.145228 
L 382.909091 707.58134 
L 376.363636 707.900885 
L 369.754173 708.052274 
L 366.545455 709.665604 
L 363.272727 710.478983 
L 360 710.833523 
L 353.454545 711.158997 
L 348.89459 711.330294 
L 346.909091 712.000663 
L 343.636364 713.336779 
L 340.363636 713.8506 
L 333.818182 714.293789 
L 326.501711 714.608314 
L 324 715.985351 
L 320.727273 716.762077 
L 317.454545 717.144452 
L 310.909091 717.522917 
L 307.636364 717.63034 
L 305.179504 717.886334 
L 304.363636 718.257451 
L 301.090909 719.527581 
L 297.818182 720.073984 
L 291.272727 720.571829 
L 284.727273 720.920423 
L 283.038594 721.164354 
L 281.454545 721.913833 
L 278.181818 722.784605 
L 274.909091 723.258746 
L 268.363636 723.761883 
L 265.090909 723.911338 
L 261.387928 724.442373 
L 258.545455 725.542272 
L 255.272727 726.202498 
L 252 726.591882 
L 242.181818 727.377145 
L 239.941827 727.720393 
L 238.909091 728.166633 
L 235.636364 729.062035 
L 232.363636 729.566979 
L 225.818182 730.11688 
L 222.545455 730.389325 
L 219.272727 731.033247 
L 216 732.214645 
L 212.727273 732.802855 
L 209.454545 733.153304 
L 202.909091 733.552818 
L 197.888623 734.276433 
L 196.363636 734.907238 
L 193.090909 735.714094 
L 189.818182 736.172324 
L 180 737.010823 
L 176.444247 737.554452 
L 173.454545 738.552628 
L 170.181818 739.151433 
L 163.636364 739.797944 
L 160.363636 740.055399 
L 155.175362 740.832472 
L 153.818182 741.367751 
L 150.545455 742.22967 
L 147.272727 742.68328 
L 137.454545 743.594937 
L 134.054969 744.110492 
L 130.909091 745.080901 
L 127.636364 745.640513 
L 124.363636 746.01381 
L 117.818182 746.610664 
L 112.781829 747.388512 
L 111.272727 747.936633 
L 108 748.646577 
L 104.727273 749.074816 
L 98.181818 749.601793 
L 91.116255 750.666532 
L 88.363636 751.443747 
L 85.090909 752.025672 
L 81.818182 752.401615 
L 78.545455 752.656686 
L 69.811159 753.944551 
L 68.727273 754.282931 
L 65.454545 754.987802 
L 62.181818 755.419178 
L 58.909091 755.710182 
L 52.363636 756.610309 
L 48.161067 757.222571 
L 45.818182 757.883853 
L 42.545455 758.492577 
L 36 759.166887 
L 21.883226 760.500591 
L 19.636364 760.890728 
L 13.090909 761.647094 
L 0 762.651694 
L 0 762.651694 
" clip-path="url(#pb89f6cf3ff)" style="fill: none"/>
    <path d="M 576 733.425816 
L 562.909091 734.384514 
L 553.090909 734.301964 
L 543.272727 734.066261 
L 523.636364 733.487341 
L 487.636364 729.354923 
L 471.272727 727.650285 
L 464.727273 727.611947 
L 441.818182 727.853308 
L 412.363636 728.472107 
L 396 729.187592 
L 382.909091 729.748304 
L 327.272727 732.560476 
L 310.909091 733.681899 
L 281.454545 735.541005 
L 278.181818 735.853896 
L 274.909091 736.399745 
L 268.363636 736.971197 
L 255.272727 737.669841 
L 252 738.545978 
L 248.727273 739.089634 
L 242.181818 739.72828 
L 232.363636 740.40631 
L 228.892408 740.832472 
L 225.818182 741.491856 
L 222.545455 741.984265 
L 216 742.619899 
L 212.727273 742.836084 
L 202.194958 744.110492 
L 196.363636 745.048517 
L 179.682821 746.989144 
M 160.674075 749.408858 
L 88.363636 758.502979 
L 81.818182 759.053889 
L 78.545455 759.389541 
L 75.272727 759.841946 
L 72 760.532009 
L 68.727273 760.894338 
L 62.181818 761.225697 
L 52.363636 762.017308 
L 45.818182 762.710927 
L 42.545455 762.87042 
L 39.272727 762.844454 
L 32.727273 763.505647 
L 26.181818 763.637759 
L 9.818182 763.656964 
L 3.272727 763.765954 
L 3.139224 763.778611 
L -0 765.638474 
L -0 765.638474 
" clip-path="url(#pb89f6cf3ff)" style="fill: none"/>
    <path d="M 576 808.265016 
L 572.329842 807.582129 
M 553.482505 804.105465 
L 548.068377 803.114848 
L 543.272727 800.802424 
L 534.51379 796.558809 
L 507.272727 793.068467 
L 494.181818 791.624135 
L 482.271912 790.002769 
L 468 787.706302 
L 461.454545 786.616719 
L 448.363636 784.957729 
L 435.272727 783.549843 
L 425.454545 782.518436 
L 415.636364 781.218658 
L 409.621892 780.16871 
L 398.186284 776.89069 
L 392.727273 776.278742 
L 386.181818 775.822862 
L 376.363636 775.355298 
L 356.727273 775.514968 
L 333.818182 775.778583 
L 320.727273 775.706501 
L 310.909091 775.911054 
L 297.818182 776.536367 
L 290.136482 776.89069 
L 274.909091 778.074244 
L 265.090909 778.516016 
L 258.545455 778.761812 
L 255.272727 778.97965 
L 252 779.372827 
L 247.698051 780.16871 
L 245.454545 780.360734 
L 232.363636 780.508474 
L 222.545455 780.588814 
L 212.727273 780.833021 
L 199.50637 780.16871 
L 196.363636 779.872579 
L 193.090909 779.358753 
L 189.818182 778.469361 
L 183.272727 776.983795 
L 183.018273 776.89069 
L 180 776.660528 
L 176.727273 776.535738 
L 166.909091 777.039722 
L 163.636364 777.258565 
L 150.545455 777.082372 
L 144 777.148956 
L 134.181818 776.828905 
L 124.363636 777.223425 
L 117.818182 777.705882 
L 111.272727 777.950277 
L 104.727273 778.174432 
L 94.909091 778.701998 
L 88.363636 778.869698 
L 81.818182 779.238316 
L 78.545455 779.543527 
L 72 780.31556 
L 65.454545 780.052902 
L 62.181818 779.73502 
L 58.909091 779.631006 
L 36 779.920625 
L 31.772907 780.16871 
L 29.454545 780.488744 
L 22.909091 781.049359 
L 13.090909 781.477792 
L 3.272727 781.840647 
L -0 782.081521 
L -0 782.081521 
" clip-path="url(#pb89f6cf3ff)" style="fill: none"/>
    <path clip-path="url(#pb89f6cf3ff)" style="fill: none"/>
    <path clip-path="url(#pb89f6cf3ff)" style="fill: none"/>
    <path clip-path="url(#pb89f6cf3ff)" style="fill: none"/>
    <path clip-path="url(#pb89f6cf3ff)" style="fill: none"/>
    <path clip-path="url(#pb89f6cf3ff)" style="fill: none"/>
    <path clip-path="url(#pb89f6cf3ff)" style="fill: none"/>
    <path clip-path="url(#pb89f6cf3ff)" style="fill: none"/>
    <path clip-path="url(#pb89f6cf3ff)" style="fill: none"/>
    <path clip-path="url(#pb89f6cf3ff)" style="fill: none"/>
    <path clip-path="url(#pb89f6cf3ff)" style="fill: none"/>
    <path clip-path="url(#pb89f6cf3ff)" style="fill: none"/>
    <path clip-path="url(#pb89f6cf3ff)" style="fill: none"/>
    <path clip-path="url(#pb89f6cf3ff)" style="fill: none"/>
    <path clip-path="url(#pb89f6cf3ff)" style="fill: none"/>
    <path clip-path="url(#pb89f6cf3ff)" style="fill: none"/>
    <path clip-path="url(#pb89f6cf3ff)" style="fill: none"/>
    <path clip-path="url(#pb89f6cf3ff)" style="fill: none"/>
    <path clip-path="url(#pb89f6cf3ff)" style="fill: none"/>
    <path clip-path="url(#pb89f6cf3ff)" style="fill: none"/>
    <path clip-path="url(#pb89f6cf3ff)" style="fill: none"/>
    <path clip-path="url(#pb89f6cf3ff)" style="fill: none"/>
    <path clip-path="url(#pb89f6cf3ff)" style="fill: none"/>
    <path clip-path="url(#pb89f6cf3ff)" style="fill: none"/>
    <path clip-path="url(#pb89f6cf3ff)" style="fill: none"/>
    <path clip-path="url(#pb89f6cf3ff)" style="fill: none"/>
    <path clip-path="url(#pb89f6cf3ff)" style="fill: none"/>
    <path clip-path="url(#pb89f6cf3ff)" style="fill: none"/>
    <path clip-path="url(#pb89f6cf3ff)" style="fill: none"/>
    <path clip-path="url(#pb89f6cf3ff)" style="fill: none"/>
    <path clip-path="url(#pb89f6cf3ff)" style="fill: none"/>
    <path clip-path="url(#pb89f6cf3ff)" style="fill: none"/>
    <path clip-path="url(#pb89f6cf3ff)" style="fill: none"/>
    <path clip-path="url(#pb89f6cf3ff)" style="fill: none"/>
    <path clip-path="url(#pb89f6cf3ff)" style="fill: none"/>
    <path clip-path="url(#pb89f6cf3ff)" style="fill: none"/>
    <path clip-path="url(#pb89f6cf3ff)" style="fill: none"/>
   </g>
   <g id="text_1">
    <g clip-path="url(#pb89f6cf3ff)">
     <!-- 0 -->
     <g style="opacity: 0" transform="translate(464.529026 699.669301) rotate(-5.680943) scale(0.12 -0.12)">
      <defs>
       <path id="DejaVuSans-30" d="M 2034 4250 
Q 1547 4250 1301 3770 
Q 1056 3291 1056 2328 
Q 1056 1369 1301 889 
Q 1547 409 2034 409 
Q 2525 409 2770 889 
Q 3016 1369 3016 2328 
Q 3016 3291 2770 3770 
Q 2525 4250 2034 4250 
z
M 2034 4750 
Q 2819 4750 3233 4129 
Q 3647 3509 3647 2328 
Q 3647 1150 3233 529 
Q 2819 -91 2034 -91 
Q 1250 -91 836 529 
Q 422 1150 422 2328 
Q 422 3509 836 4129 
Q 1250 4750 2034 4750 
z
" transform="scale(0.015625)"/>
      </defs>
      <use xlink:href="#DejaVuSans-30"/>
     </g>
    </g>
   </g>
   <g id="text_2">
    <g clip-path="url(#pb89f6cf3ff)">
     <!-- 1 -->
     <g style="opacity: 0" transform="translate(166.801467 751.979141) rotate(-7.078665) scale(0.12 -0.12)">
      <defs>
       <path id="DejaVuSans-31" d="M 794 531 
L 1825 531 
L 1825 4091 
L 703 3866 
L 703 4441 
L 1819 4666 
L 2450 4666 
L 2450 531 
L 3481 531 
L 3481 0 
L 794 0 
L 794 531 
z
" transform="scale(0.015625)"/>
      </defs>
      <use xlink:href="#DejaVuSans-31"/>
     </g>
    </g>
   </g>
   <g id="text_3">
    <g clip-path="url(#pb89f6cf3ff)">
     <!-- 2 -->
     <g style="opacity: 0" transform="translate(558.556267 808.394983) rotate(-349.593398) scale(0.12 -0.12)">
      <defs>
       <path id="DejaVuSans-32" d="M 1228 531 
L 3431 531 
L 3431 0 
L 469 0 
L 469 531 
Q 828 903 1448 1529 
Q 2069 2156 2228 2338 
Q 2531 2678 2651 2914 
Q 2772 3150 2772 3378 
Q 2772 3750 2511 3984 
Q 2250 4219 1831 4219 
Q 1534 4219 1204 4116 
Q 875 4013 500 3803 
L 500 4441 
Q 881 4594 1212 4672 
Q 1544 4750 1819 4750 
Q 2544 4750 2975 4387 
Q 3406 4025 3406 3419 
Q 3406 3131 3298 2873 
Q 3191 2616 2906 2266 
Q 2828 2175 2409 1742 
Q 1991 1309 1228 531 
z
" transform="scale(0.015625)"/>
      </defs>
      <use xlink:href="#DejaVuSans-32"/>
     </g>
    </g>
   </g>
  </g>
 </g>
 <defs>
  <clipPath id="pb89f6cf3ff">
   <rect x="0" y="0" width="576" height="816.226927"/>
  </clipPath>
 </defs>
</svg>
