<?xml version="1.0" encoding="utf-8" standalone="no"?>
<!DOCTYPE svg PUBLIC "-//W3C//DTD SVG 1.1//EN"
  "http://www.w3.org/Graphics/SVG/1.1/DTD/svg11.dtd">
<svg xmlns:xlink="http://www.w3.org/1999/xlink" width="576pt" height="820.98809pt" viewBox="0 0 576 820.98809" xmlns="http://www.w3.org/2000/svg" version="1.1">
 <metadata>
  <rdf:RDF xmlns:dc="http://purl.org/dc/elements/1.1/" xmlns:cc="http://creativecommons.org/ns#" xmlns:rdf="http://www.w3.org/1999/02/22-rdf-syntax-ns#">
   <cc:Work>
    <dc:type rdf:resource="http://purl.org/dc/dcmitype/StillImage"/>
    <dc:date>2025-07-25T22:45:39.019440</dc:date>
    <dc:format>image/svg+xml</dc:format>
    <dc:creator>
     <cc:Agent>
      <dc:title>Matplotlib v3.10.3, https://matplotlib.org/</dc:title>
     </cc:Agent>
    </dc:creator>
   </cc:Work>
  </rdf:RDF>
 </metadata>
 <defs>
  <style type="text/css">*{stroke-linejoin: round; stroke-linecap: butt}</style>
 </defs>
 <g id="figure_1">
  <g id="patch_1">
   <path d="M 0 820.98809 
L 576 820.98809 
L 576 0 
L 0 0 
L 0 820.98809 
z
" style="fill: none; opacity: 0"/>
  </g>
  <g id="axes_1">
   <g id="QuadContourSet_1">
    <path d="M 576 188.356355 
L 576 187.937033 
L 576 184.639892 
L 576 184.548289 
L 572.708571 181.706992 
L 569.417143 181.583626 
L 569.041267 181.342751 
L 566.125714 179.241474 
L 564.118745 178.04561 
L 562.834286 177.171281 
L 559.542857 175.197702 
L 559.043235 174.748469 
L 556.251429 172.685142 
L 554.900993 171.451328 
L 552.96 169.442661 
L 551.431962 168.154187 
L 549.668571 166.276024 
L 547.705897 164.857046 
L 546.377143 163.398151 
L 543.274728 161.559905 
L 543.085714 161.333861 
L 539.794286 159.480417 
L 536.947501 158.262764 
L 536.502857 158.033564 
L 533.211429 155.810025 
L 532.136703 154.965623 
L 529.92 153.336544 
L 527.650253 151.668483 
L 526.628571 150.830539 
L 524.24339 148.371342 
L 523.337143 147.427708 
L 521.07626 145.074201 
L 520.045714 144.001128 
L 517.161634 141.77706 
L 516.754286 141.346957 
L 513.462857 140.165603 
L 510.171429 139.102817 
L 509.492875 138.479919 
L 506.88 136.392487 
L 505.15776 135.182778 
L 503.588571 133.963078 
L 500.490209 131.885637 
L 500.297143 131.740741 
L 497.005714 129.007982 
L 496.434368 128.588496 
L 493.714286 125.294266 
L 493.709168 125.291355 
L 490.788894 121.994214 
L 490.422857 121.629969 
L 487.210057 118.697073 
L 487.131429 118.614371 
L 486.714924 118.697073 
L 483.84 119.816844 
L 480.548571 119.426275 
L 479.727185 118.697073 
L 477.257143 116.777061 
L 474.75421 115.399932 
L 473.965714 114.822398 
L 470.674286 113.144796 
L 469.389659 112.102791 
L 467.382857 110.510809 
L 465.661809 108.80565 
L 464.091429 107.071567 
L 462.138687 105.50851 
L 460.8 103.970539 
L 458.305524 102.211369 
L 457.508571 101.202571 
L 454.864596 102.211369 
L 454.217143 102.41049 
L 450.925714 102.648104 
L 450.232725 102.211369 
L 447.634286 100.370522 
L 444.342857 99.721973 
L 443.114821 98.914228 
L 441.051429 97.617755 
L 437.76 96.457559 
L 436.774589 95.617087 
L 434.468571 93.846697 
L 432.737174 92.319946 
L 431.177143 90.924706 
L 428.857929 89.022805 
L 427.885714 88.161651 
L 424.861549 85.725664 
L 424.594286 85.478151 
L 422.621997 85.725664 
L 421.302857 86.120457 
L 418.011429 86.155913 
L 417.079048 85.725664 
L 414.72 84.186637 
L 411.428571 83.462667 
L 409.521477 82.428523 
L 408.137143 81.447207 
L 404.845714 80.189981 
L 403.567176 79.131382 
L 401.554286 77.36311 
L 399.773314 75.834241 
L 398.262857 74.511142 
L 395.824691 72.5371 
L 394.971429 71.796532 
L 391.758902 69.239959 
L 391.68 69.163403 
L 390.832975 69.239959 
L 388.388571 70.064399 
L 385.097143 69.723227 
L 383.40468 69.239959 
L 381.805714 68.386792 
L 378.514286 67.143151 
L 375.743248 65.942818 
L 375.222857 65.585561 
L 371.931429 63.86469 
L 370.525508 62.645678 
L 368.64 61.010836 
L 366.668841 59.348537 
L 365.348571 58.208106 
L 362.654567 56.051396 
L 362.057143 55.511309 
L 358.765714 54.028428 
L 355.474286 55.337813 
L 352.182857 53.557968 
L 348.891429 53.020343 
L 348.497322 52.754255 
L 345.6 50.998673 
L 342.308571 49.861404 
L 341.807019 49.457114 
L 339.017143 47.533133 
L 337.399447 46.159973 
L 335.725714 44.739247 
L 333.496256 42.862832 
L 332.434286 41.937908 
L 329.431997 39.565691 
L 329.142857 39.294236 
L 326.475685 39.565691 
L 325.851429 39.704945 
L 322.56 39.797271 
L 322.058695 39.565691 
L 319.268571 37.826875 
L 315.977143 37.189268 
L 314.284415 36.26855 
L 312.685714 35.148048 
L 309.394286 33.98656 
L 308.077554 32.971409 
L 306.102857 31.389711 
L 304.034785 29.674268 
L 302.811429 28.639237 
L 300.072956 26.377127 
L 299.52 25.858816 
L 296.228571 24.003824 
L 292.937143 25.125246 
L 289.645714 23.783197 
L 286.800306 23.079986 
L 286.354286 22.847899 
L 283.062857 21.151633 
L 279.771429 19.815915 
L 279.733332 19.782846 
L 276.48 18.077608 
L 274.478383 16.485705 
L 273.188571 15.403387 
L 270.505005 13.188564 
L 269.897143 12.615399 
L 266.605714 10.232913 
L 264.824057 9.891423 
L 263.314286 9.587799 
L 262.457436 9.891423 
L 260.022857 10.16036 
L 259.6138 9.891423 
L 256.731429 7.83323 
L 253.44 7.445277 
L 252.179938 6.594282 
L 250.148571 5.224732 
L 246.857143 4.270659 
L 245.476831 3.297141 
L 243.565714 2.168498 
L 240.804367 0 
L 240.274286 0 
L 237.113962 0 
L 240.274286 1.13856 
L 243.565714 3.108939 
L 243.884394 3.297141 
L 246.857143 5.393786 
L 250.148571 6.398138 
L 250.439499 6.594282 
L 253.44 8.620699 
L 256.731429 9.404419 
L 257.413447 9.891423 
L 260.022857 11.606997 
L 263.314286 12.11253 
L 265.213931 13.188564 
L 266.605714 13.962593 
L 269.897143 14.708481 
L 273.188571 16.425851 
L 273.2599 16.485705 
L 276.48 19.046678 
L 277.884494 19.782846 
L 279.771429 21.420813 
L 283.062857 22.18621 
L 284.660078 23.079986 
L 286.354286 24.64836 
L 289.645714 25.101153 
L 291.435661 26.377127 
L 292.937143 27.861724 
L 296.228571 27.757649 
L 299.046499 29.674268 
L 299.52 30.161554 
L 302.811429 30.088449 
L 306.102857 32.576003 
L 306.596508 32.971409 
L 309.394286 35.128391 
L 311.992821 36.26855 
L 312.685714 36.955571 
L 315.977143 38.374389 
L 318.831064 39.565691 
L 319.268571 39.995246 
L 322.56 41.320989 
L 325.720429 42.862832 
L 325.851429 42.992215 
L 329.142857 43.925987 
L 332.434286 45.135438 
L 335.725714 45.962326 
L 335.958559 46.159973 
L 339.017143 48.756212 
L 340.033488 49.457114 
L 342.308571 51.291006 
L 345.6 52.343779 
L 346.277427 52.754255 
L 348.891429 54.519149 
L 352.182857 55.325821 
L 353.200324 56.051396 
L 355.474286 57.610054 
L 358.765714 58.018682 
L 361.054676 59.348537 
L 362.057143 59.94439 
L 365.348571 59.698455 
L 368.64 62.212852 
L 369.13919 62.645678 
L 371.931429 65.066706 
L 373.498068 65.942818 
L 375.222857 67.390252 
L 378.514286 68.284203 
L 380.328107 69.239959 
L 381.805714 70.556708 
L 385.097143 71.160557 
L 387.171036 72.5371 
L 388.388571 73.70134 
L 391.68 73.741194 
L 394.833659 75.834241 
L 394.971429 75.976073 
L 395.785383 75.834241 
L 398.262857 75.669313 
L 398.45114 75.834241 
L 401.554286 78.498125 
L 402.275146 79.131382 
L 404.845714 81.259751 
L 407.407554 82.428523 
L 408.137143 83.175409 
L 411.428571 84.552408 
L 414.163933 85.725664 
L 414.72 86.284176 
L 418.011429 87.549516 
L 420.950881 89.022805 
L 421.302857 89.368483 
L 424.594286 90.198927 
L 427.885714 92.229413 
L 431.177143 92.046776 
L 431.482576 92.319946 
L 434.468571 94.953005 
L 435.333569 95.617087 
L 437.76 97.686626 
L 441.051429 98.820264 
L 441.200975 98.914228 
L 444.342857 100.980812 
L 447.634286 102.01368 
L 447.913332 102.211369 
L 450.925714 104.10983 
L 454.217143 105.075497 
L 454.999238 105.50851 
L 457.508571 106.682304 
L 460.8 106.980529 
L 464.091429 108.35494 
L 464.499591 108.80565 
L 467.382857 111.662297 
L 467.93813 112.102791 
L 470.674286 114.32218 
L 472.617435 115.399932 
L 473.965714 116.756477 
L 477.257143 117.966127 
L 478.197485 118.697073 
L 480.548571 120.784297 
L 483.037869 121.994214 
L 483.84 122.781755 
L 487.131429 123.587629 
L 489.65738 125.291355 
L 490.422857 126.049747 
L 493.714286 127.839784 
L 494.332506 128.588496 
L 497.005714 130.551181 
L 498.614542 131.885637 
L 500.297143 133.541857 
L 503.260776 135.182778 
L 503.588571 135.501129 
L 506.88 137.615945 
L 507.961451 138.479919 
L 510.171429 140.508631 
L 512.047708 141.77706 
L 513.462857 143.167676 
L 516.754286 144.611371 
L 518.043331 145.074201 
L 520.045714 145.653864 
L 522.538982 148.371342 
L 523.337143 149.152073 
L 525.707933 151.668483 
L 526.628571 152.571716 
L 529.92 154.517161 
L 530.530227 154.965623 
L 533.211429 157.072219 
L 534.873102 158.262764 
L 536.502857 159.871769 
L 539.276394 161.559905 
L 539.794286 162.068366 
L 543.085714 163.63591 
L 544.94457 164.857046 
L 546.377143 165.870971 
L 549.668571 167.972147 
L 549.839487 168.154187 
L 552.96 170.785468 
L 553.603426 171.451328 
L 556.251429 173.870653 
L 557.439166 174.748469 
L 559.542857 176.639995 
L 561.603359 178.04561 
L 562.834286 179.286966 
L 566.125714 181.073334 
L 566.499534 181.342751 
L 569.417143 183.212466 
L 571.315674 184.639892 
L 572.708571 185.965553 
L 575.584833 187.937033 
z
" clip-path="url(#p57deecb78d)" style="fill: #f5f9fe; fill-opacity: 0.9"/>
    <path d="M 569.417143 181.583626 
L 572.708571 181.706992 
L 576 184.548289 
L 576 182.937423 
L 574.325282 181.342751 
L 572.708571 179.801349 
L 570.363825 178.04561 
L 569.417143 177.076896 
L 566.125714 175.34485 
L 562.834286 175.078585 
L 562.220759 174.748469 
L 559.542857 173.068361 
L 556.251429 171.499631 
L 556.19856 171.451328 
L 553.087911 168.154187 
L 552.96 168.02658 
L 550.128862 164.857046 
L 549.668571 164.397645 
L 547.104536 161.559905 
L 546.377143 160.873005 
L 543.985359 158.262764 
L 543.085714 157.418608 
L 540.165461 154.965623 
L 539.794286 154.619904 
L 536.552982 154.965623 
L 536.502857 154.972778 
L 536.479775 154.965623 
L 533.211429 153.691034 
L 529.92 152.155928 
L 529.256729 151.668483 
L 526.628571 149.512968 
L 525.521305 148.371342 
L 523.337143 146.097072 
L 522.354527 145.074201 
L 520.045714 142.670112 
L 518.887641 141.77706 
L 516.754286 139.524533 
L 515.231576 138.479919 
L 513.462857 136.556367 
L 510.722494 135.182778 
L 510.171429 134.516743 
L 506.88 135.106512 
L 503.588571 132.6092 
L 502.509426 131.885637 
L 500.297143 130.225321 
L 498.331128 128.588496 
L 497.005714 127.323055 
L 495.230767 125.291355 
L 493.714286 123.761729 
L 492.146889 121.994214 
L 490.422857 120.27862 
L 488.690374 118.697073 
L 487.131429 117.057369 
L 484.898593 115.399932 
L 483.84 114.118446 
L 480.548571 113.205547 
L 479.380081 115.399932 
L 477.257143 115.587996 
L 476.915338 115.399932 
L 473.965714 113.239477 
L 471.12858 112.102791 
L 470.674286 111.830634 
L 467.382857 109.35932 
L 466.824028 108.80565 
L 464.091429 105.788193 
L 463.742017 105.50851 
L 460.904813 102.211369 
L 460.8 102.105137 
L 458.11949 98.914228 
L 457.508571 98.305143 
L 455.133523 95.617087 
L 454.217143 94.703509 
L 450.947394 92.319946 
L 450.925714 92.298371 
L 450.823985 92.319946 
L 448.83096 95.617087 
L 447.634286 97.437745 
L 444.342857 97.494352 
L 441.051429 96.415245 
L 438.821984 95.617087 
L 437.76 94.931438 
L 434.468571 92.740389 
L 433.991772 92.319946 
L 431.177143 89.802635 
L 430.226203 89.022805 
L 427.885714 86.949682 
L 426.366152 85.725664 
L 424.594286 84.084736 
L 422.460347 82.428523 
L 421.302857 81.290204 
L 418.287193 79.131382 
L 418.011429 78.862024 
L 416.74083 79.131382 
L 414.72 81.185068 
L 411.428571 82.109296 
L 408.137143 80.022641 
L 404.89975 79.131382 
L 404.845714 79.09755 
L 401.554286 76.228095 
L 401.095488 75.834241 
L 398.262857 73.352971 
L 397.255163 72.5371 
L 394.971429 70.554987 
L 393.318997 69.239959 
L 391.68 67.649697 
L 389.406202 65.942818 
L 388.388571 64.964438 
L 385.097143 63.017871 
L 381.805714 64.938647 
L 379.718388 65.942818 
L 378.514286 66.002098 
L 378.377435 65.942818 
L 375.222857 63.777144 
L 371.931429 62.662674 
L 371.911826 62.645678 
L 368.64 59.80882 
L 368.094195 59.348537 
L 365.348571 56.976905 
L 364.192493 56.051396 
L 362.057143 54.120984 
L 360.292616 52.754255 
L 358.765714 51.313176 
L 356.205355 49.457114 
L 355.474286 48.778979 
L 352.182857 48.067746 
L 348.891429 49.387674 
L 348.720092 49.457114 
L 345.6 49.653566 
L 345.043138 49.457114 
L 342.308571 47.768761 
L 339.017143 46.310054 
L 338.840335 46.159973 
L 335.725714 43.516167 
L 334.949455 42.862832 
L 332.434286 40.672243 
L 331.033829 39.565691 
L 329.142857 37.790374 
L 327.114607 36.26855 
L 325.851429 35.101048 
L 322.774034 32.971409 
L 322.56 32.778592 
L 321.378343 32.971409 
L 319.268571 34.19504 
L 315.977143 35.016054 
L 312.685714 33.620943 
L 310.075211 32.971409 
L 309.394286 32.617135 
L 306.102857 30.203418 
L 305.464934 29.674268 
L 302.811429 27.429248 
L 301.537749 26.377127 
L 299.52 24.485798 
L 297.767941 23.079986 
L 296.228571 21.652499 
L 293.71186 19.782846 
L 292.937143 19.077444 
L 289.645714 18.504278 
L 287.832926 19.782846 
L 286.354286 20.072933 
L 283.062857 20.117055 
L 282.246491 19.782846 
L 279.771429 18.059143 
L 276.48 17.108538 
L 275.696866 16.485705 
L 273.188571 14.380923 
L 271.743863 13.188564 
L 269.897143 11.447258 
L 267.952821 9.891423 
L 266.605714 8.634376 
L 263.944866 6.594282 
L 263.314286 6.014477 
L 260.022857 4.336638 
L 256.731429 4.612642 
L 253.44 5.230379 
L 250.148571 4.051325 
L 247.422192 3.297141 
L 246.857143 2.978548 
L 243.565714 1.228057 
L 242.001916 0 
L 240.804367 0 
L 243.565714 2.168498 
L 245.476831 3.297141 
L 246.857143 4.270659 
L 250.148571 5.224732 
L 252.179938 6.594282 
L 253.44 7.445277 
L 256.731429 7.83323 
L 259.6138 9.891423 
L 260.022857 10.16036 
L 262.457436 9.891423 
L 263.314286 9.587799 
L 264.824057 9.891423 
L 266.605714 10.232913 
L 269.897143 12.615399 
L 270.505005 13.188564 
L 273.188571 15.403387 
L 274.478383 16.485705 
L 276.48 18.077608 
L 279.733332 19.782846 
L 279.771429 19.815915 
L 283.062857 21.151633 
L 286.354286 22.847899 
L 286.800306 23.079986 
L 289.645714 23.783197 
L 292.937143 25.125246 
L 296.228571 24.003824 
L 299.52 25.858816 
L 300.072956 26.377127 
L 302.811429 28.639237 
L 304.034785 29.674268 
L 306.102857 31.389711 
L 308.077554 32.971409 
L 309.394286 33.98656 
L 312.685714 35.148048 
L 314.284415 36.26855 
L 315.977143 37.189268 
L 319.268571 37.826875 
L 322.058695 39.565691 
L 322.56 39.797271 
L 325.851429 39.704945 
L 326.475685 39.565691 
L 329.142857 39.294236 
L 329.431997 39.565691 
L 332.434286 41.937908 
L 333.496256 42.862832 
L 335.725714 44.739247 
L 337.399447 46.159973 
L 339.017143 47.533133 
L 341.807019 49.457114 
L 342.308571 49.861404 
L 345.6 50.998673 
L 348.497322 52.754255 
L 348.891429 53.020343 
L 352.182857 53.557968 
L 355.474286 55.337813 
L 358.765714 54.028428 
L 362.057143 55.511309 
L 362.654567 56.051396 
L 365.348571 58.208106 
L 366.668841 59.348537 
L 368.64 61.010836 
L 370.525508 62.645678 
L 371.931429 63.86469 
L 375.222857 65.585561 
L 375.743248 65.942818 
L 378.514286 67.143151 
L 381.805714 68.386792 
L 383.40468 69.239959 
L 385.097143 69.723227 
L 388.388571 70.064399 
L 390.832975 69.239959 
L 391.68 69.163403 
L 391.758902 69.239959 
L 394.971429 71.796532 
L 395.824691 72.5371 
L 398.262857 74.511142 
L 399.773314 75.834241 
L 401.554286 77.36311 
L 403.567176 79.131382 
L 404.845714 80.189981 
L 408.137143 81.447207 
L 409.521477 82.428523 
L 411.428571 83.462667 
L 414.72 84.186637 
L 417.079048 85.725664 
L 418.011429 86.155913 
L 421.302857 86.120457 
L 422.621997 85.725664 
L 424.594286 85.478151 
L 424.861549 85.725664 
L 427.885714 88.161651 
L 428.857929 89.022805 
L 431.177143 90.924706 
L 432.737174 92.319946 
L 434.468571 93.846697 
L 436.774589 95.617087 
L 437.76 96.457559 
L 441.051429 97.617755 
L 443.114821 98.914228 
L 444.342857 99.721973 
L 447.634286 100.370522 
L 450.232725 102.211369 
L 450.925714 102.648104 
L 454.217143 102.41049 
L 454.864596 102.211369 
L 457.508571 101.202571 
L 458.305524 102.211369 
L 460.8 103.970539 
L 462.138687 105.50851 
L 464.091429 107.071567 
L 465.661809 108.80565 
L 467.382857 110.510809 
L 469.389659 112.102791 
L 470.674286 113.144796 
L 473.965714 114.822398 
L 474.75421 115.399932 
L 477.257143 116.777061 
L 479.727185 118.697073 
L 480.548571 119.426275 
L 483.84 119.816844 
L 486.714924 118.697073 
L 487.131429 118.614371 
L 487.210057 118.697073 
L 490.422857 121.629969 
L 490.788894 121.994214 
L 493.709168 125.291355 
L 493.714286 125.294266 
L 496.434368 128.588496 
L 497.005714 129.007982 
L 500.297143 131.740741 
L 500.490209 131.885637 
L 503.588571 133.963078 
L 505.15776 135.182778 
L 506.88 136.392487 
L 509.492875 138.479919 
L 510.171429 139.102817 
L 513.462857 140.165603 
L 516.754286 141.346957 
L 517.161634 141.77706 
L 520.045714 144.001128 
L 521.07626 145.074201 
L 523.337143 147.427708 
L 524.24339 148.371342 
L 526.628571 150.830539 
L 527.650253 151.668483 
L 529.92 153.336544 
L 532.136703 154.965623 
L 533.211429 155.810025 
L 536.502857 158.033564 
L 536.947501 158.262764 
L 539.794286 159.480417 
L 543.085714 161.333861 
L 543.274728 161.559905 
L 546.377143 163.398151 
L 547.705897 164.857046 
L 549.668571 166.276024 
L 551.431962 168.154187 
L 552.96 169.442661 
L 554.900993 171.451328 
L 556.251429 172.685142 
L 559.043235 174.748469 
L 559.542857 175.197702 
L 562.834286 177.171281 
L 564.118745 178.04561 
L 566.125714 179.241474 
L 569.041267 181.342751 
z
" clip-path="url(#p57deecb78d)" style="fill: #eff6fc; fill-opacity: 0.9"/>
    <path d="M 576 182.937423 
L 576 181.342751 
L 576 181.071313 
L 572.708571 178.188426 
L 572.517844 178.04561 
L 569.417143 174.872749 
L 569.227715 174.748469 
L 566.931422 171.451328 
L 566.125714 170.868803 
L 563.331204 168.154187 
L 562.834286 167.767393 
L 561.772843 168.154187 
L 559.542857 168.959347 
L 556.251429 168.156721 
L 556.249096 168.154187 
L 552.96 164.872912 
L 552.945828 164.857046 
L 549.668571 161.58612 
L 549.644885 161.559905 
L 546.377143 158.474074 
L 546.183518 158.262764 
L 543.085714 155.356029 
L 542.620941 154.965623 
L 539.794286 152.332823 
L 538.731415 151.668483 
L 536.502857 149.661806 
L 533.691832 148.371342 
L 533.211429 147.977098 
L 531.297159 148.371342 
L 529.92 148.621269 
L 529.047648 148.371342 
L 526.628571 146.968235 
L 525.186923 145.074201 
L 523.337143 143.123483 
L 522.261917 141.77706 
L 520.045714 139.45922 
L 519.237005 138.479919 
L 516.754286 135.898839 
L 516.148145 135.182778 
L 513.462857 132.7468 
L 512.707224 131.885637 
L 510.171429 129.608688 
L 508.657345 128.588496 
L 506.88 127.045757 
L 503.922262 128.588496 
L 503.588571 128.830795 
L 500.297143 128.709901 
L 500.151322 128.588496 
L 497.005714 125.585221 
L 496.748985 125.291355 
L 493.714286 122.230352 
L 493.504884 121.994214 
L 490.422857 118.927271 
L 490.17069 118.697073 
L 487.131429 115.500366 
L 486.996128 115.399932 
L 485.136072 112.102791 
L 483.84 110.750337 
L 482.578191 108.80565 
L 480.548571 106.814092 
L 478.843676 105.50851 
L 477.257143 103.960637 
L 475.03619 105.50851 
L 474.010085 108.80565 
L 473.965714 108.869566 
L 470.674286 109.463718 
L 469.526381 108.80565 
L 467.382857 106.909757 
L 466.29949 105.50851 
L 464.091429 103.264985 
L 463.235436 102.211369 
L 460.8 99.742979 
L 460.103811 98.914228 
L 457.508571 96.326777 
L 456.88152 95.617087 
L 454.217143 92.960858 
L 453.337946 92.319946 
L 450.925714 89.919314 
L 449.501245 89.022805 
L 447.634286 87.171852 
L 444.342857 86.064515 
L 442.780866 89.022805 
L 441.386616 92.319946 
L 441.051429 92.6474 
L 437.76 92.762837 
L 436.944403 92.319946 
L 434.468571 89.902933 
L 433.068609 89.022805 
L 431.177143 87.201894 
L 427.885714 85.737713 
L 427.870756 85.725664 
L 424.594286 82.691321 
L 424.255685 82.428523 
L 421.302857 79.524603 
L 420.753566 79.131382 
L 418.011429 76.452949 
L 416.999948 75.834241 
L 414.72 73.639903 
L 411.877839 72.5371 
L 411.428571 72.128429 
L 410.841824 72.5371 
L 408.333077 75.834241 
L 408.137143 75.989699 
L 404.845714 75.857735 
L 404.809565 75.834241 
L 401.554286 72.781159 
L 401.060222 72.5371 
L 398.262857 70.055621 
L 394.971429 69.313442 
L 394.879092 69.239959 
L 391.68 66.135992 
L 391.422667 65.942818 
L 388.388571 63.025749 
L 387.829796 62.645678 
L 385.097143 60.061417 
L 383.811905 59.348537 
L 381.805714 57.523274 
L 378.514286 57.155019 
L 375.31975 59.348537 
L 375.222857 59.417719 
L 375.003855 59.348537 
L 371.931429 57.677558 
L 368.862145 56.051396 
L 368.64 55.930357 
L 365.348571 53.678428 
L 362.54856 52.754255 
L 362.057143 52.497923 
L 358.765714 49.619077 
L 358.542293 49.457114 
L 355.474286 46.611249 
L 354.777368 46.159973 
L 352.182857 43.827971 
L 350.290706 42.862832 
L 348.891429 41.696457 
L 345.6 42.099447 
L 342.308571 42.235316 
L 339.017143 40.577151 
L 336.672246 39.565691 
L 335.725714 39.131686 
L 332.434286 37.771067 
L 329.142857 36.286512 
L 329.118918 36.26855 
L 325.851429 33.248548 
L 325.450954 32.971409 
L 322.56 30.36702 
L 321.402633 29.674268 
L 319.268571 27.844781 
L 315.977143 26.584417 
L 312.685714 28.826917 
L 309.394286 28.885584 
L 306.102857 26.748586 
L 304.950028 26.377127 
L 302.811429 25.146416 
L 299.52 23.11278 
L 299.47913 23.079986 
L 296.228571 20.06568 
L 295.847852 19.782846 
L 292.937143 17.132563 
L 291.968591 16.485705 
L 289.645714 14.438392 
L 287.418354 13.188564 
L 286.354286 12.310912 
L 283.086715 13.188564 
L 283.062857 13.205553 
L 279.771429 15.466754 
L 276.48 14.587115 
L 273.188571 13.358459 
L 272.98272 13.188564 
L 269.897143 10.279117 
L 269.412643 9.891423 
L 266.605714 7.27215 
L 265.721587 6.594282 
L 263.314286 4.380819 
L 261.808922 3.297141 
L 260.022857 1.69145 
L 257.419589 0 
L 256.731429 0 
L 253.44 0 
L 250.148571 0 
L 250.071617 0 
L 246.857143 0.586843 
L 243.565714 0.287616 
L 243.199466 0 
L 242.001916 0 
L 243.565714 1.228057 
L 246.857143 2.978548 
L 247.422192 3.297141 
L 250.148571 4.051325 
L 253.44 5.230379 
L 256.731429 4.612642 
L 260.022857 4.336638 
L 263.314286 6.014477 
L 263.944866 6.594282 
L 266.605714 8.634376 
L 267.952821 9.891423 
L 269.897143 11.447258 
L 271.743863 13.188564 
L 273.188571 14.380923 
L 275.696866 16.485705 
L 276.48 17.108538 
L 279.771429 18.059143 
L 282.246491 19.782846 
L 283.062857 20.117055 
L 286.354286 20.072933 
L 287.832926 19.782846 
L 289.645714 18.504278 
L 292.937143 19.077444 
L 293.71186 19.782846 
L 296.228571 21.652499 
L 297.767941 23.079986 
L 299.52 24.485798 
L 301.537749 26.377127 
L 302.811429 27.429248 
L 305.464934 29.674268 
L 306.102857 30.203418 
L 309.394286 32.617135 
L 310.075211 32.971409 
L 312.685714 33.620943 
L 315.977143 35.016054 
L 319.268571 34.19504 
L 321.378343 32.971409 
L 322.56 32.778592 
L 322.774034 32.971409 
L 325.851429 35.101048 
L 327.114607 36.26855 
L 329.142857 37.790374 
L 331.033829 39.565691 
L 332.434286 40.672243 
L 334.949455 42.862832 
L 335.725714 43.516167 
L 338.840335 46.159973 
L 339.017143 46.310054 
L 342.308571 47.768761 
L 345.043138 49.457114 
L 345.6 49.653566 
L 348.720092 49.457114 
L 348.891429 49.387674 
L 352.182857 48.067746 
L 355.474286 48.778979 
L 356.205355 49.457114 
L 358.765714 51.313176 
L 360.292616 52.754255 
L 362.057143 54.120984 
L 364.192493 56.051396 
L 365.348571 56.976905 
L 368.094195 59.348537 
L 368.64 59.80882 
L 371.911826 62.645678 
L 371.931429 62.662674 
L 375.222857 63.777144 
L 378.377435 65.942818 
L 378.514286 66.002098 
L 379.718388 65.942818 
L 381.805714 64.938647 
L 385.097143 63.017871 
L 388.388571 64.964438 
L 389.406202 65.942818 
L 391.68 67.649697 
L 393.318997 69.239959 
L 394.971429 70.554987 
L 397.255163 72.5371 
L 398.262857 73.352971 
L 401.095488 75.834241 
L 401.554286 76.228095 
L 404.845714 79.09755 
L 404.89975 79.131382 
L 408.137143 80.022641 
L 411.428571 82.109296 
L 414.72 81.185068 
L 416.74083 79.131382 
L 418.011429 78.862024 
L 418.287193 79.131382 
L 421.302857 81.290204 
L 422.460347 82.428523 
L 424.594286 84.084736 
L 426.366152 85.725664 
L 427.885714 86.949682 
L 430.226203 89.022805 
L 431.177143 89.802635 
L 433.991772 92.319946 
L 434.468571 92.740389 
L 437.76 94.931438 
L 438.821984 95.617087 
L 441.051429 96.415245 
L 444.342857 97.494352 
L 447.634286 97.437745 
L 448.83096 95.617087 
L 450.823985 92.319946 
L 450.925714 92.298371 
L 450.947394 92.319946 
L 454.217143 94.703509 
L 455.133523 95.617087 
L 457.508571 98.305143 
L 458.11949 98.914228 
L 460.8 102.105137 
L 460.904813 102.211369 
L 463.742017 105.50851 
L 464.091429 105.788193 
L 466.824028 108.80565 
L 467.382857 109.35932 
L 470.674286 111.830634 
L 471.12858 112.102791 
L 473.965714 113.239477 
L 476.915338 115.399932 
L 477.257143 115.587996 
L 479.380081 115.399932 
L 480.548571 113.205547 
L 483.84 114.118446 
L 484.898593 115.399932 
L 487.131429 117.057369 
L 488.690374 118.697073 
L 490.422857 120.27862 
L 492.146889 121.994214 
L 493.714286 123.761729 
L 495.230767 125.291355 
L 497.005714 127.323055 
L 498.331128 128.588496 
L 500.297143 130.225321 
L 502.509426 131.885637 
L 503.588571 132.6092 
L 506.88 135.106512 
L 510.171429 134.516743 
L 510.722494 135.182778 
L 513.462857 136.556367 
L 515.231576 138.479919 
L 516.754286 139.524533 
L 518.887641 141.77706 
L 520.045714 142.670112 
L 522.354527 145.074201 
L 523.337143 146.097072 
L 525.521305 148.371342 
L 526.628571 149.512968 
L 529.256729 151.668483 
L 529.92 152.155928 
L 533.211429 153.691034 
L 536.479775 154.965623 
L 536.502857 154.972778 
L 536.552982 154.965623 
L 539.794286 154.619904 
L 540.165461 154.965623 
L 543.085714 157.418608 
L 543.985359 158.262764 
L 546.377143 160.873005 
L 547.104536 161.559905 
L 549.668571 164.397645 
L 550.128862 164.857046 
L 552.96 168.02658 
L 553.087911 168.154187 
L 556.19856 171.451328 
L 556.251429 171.499631 
L 559.542857 173.068361 
L 562.220759 174.748469 
L 562.834286 175.078585 
L 566.125714 175.34485 
L 569.417143 177.076896 
L 570.363825 178.04561 
L 572.708571 179.801349 
L 574.325282 181.342751 
z
" clip-path="url(#p57deecb78d)" style="fill: #eaf3fb; fill-opacity: 0.9"/>
    <path d="M 572.708571 178.188426 
L 576 181.071313 
L 576 178.04561 
L 576 174.748469 
L 576 171.451328 
L 576 168.154187 
L 576 164.857046 
L 576 161.559905 
L 576 158.262764 
L 576 154.965623 
L 576 152.022037 
L 575.638077 151.668483 
L 572.708571 148.824026 
L 572.251204 148.371342 
L 569.417143 145.476241 
L 568.957591 145.074201 
L 566.125714 142.033652 
L 565.786175 141.77706 
L 562.834286 138.508882 
L 562.790799 138.479919 
L 559.796817 135.182778 
L 559.542857 134.93073 
L 556.468333 131.885637 
L 556.251429 131.670369 
L 553.443137 131.885637 
L 552.96 131.991035 
L 549.668571 131.998979 
L 549.552054 131.885637 
L 546.377143 129.732436 
L 545.211674 128.588496 
L 543.085714 126.986813 
L 541.388197 125.291355 
L 539.794286 123.78504 
L 538.026259 121.994214 
L 536.502857 120.461355 
L 534.741166 118.697073 
L 533.211429 117.147528 
L 530.990357 115.399932 
L 529.92 114.312216 
L 526.869025 112.102791 
L 526.628571 111.857005 
L 523.337143 111.109107 
L 520.045714 111.960405 
L 516.754286 109.465944 
L 516.061461 108.80565 
L 513.462857 106.32906 
L 512.619368 105.50851 
L 510.171429 103.085621 
L 509.130262 102.211369 
L 506.88 99.961648 
L 505.521929 98.914228 
L 503.588571 96.982463 
L 501.652392 95.617087 
L 500.297143 94.264396 
L 497.005714 92.376351 
L 493.714286 92.654955 
L 490.422857 93.337734 
L 487.131429 94.50438 
L 483.84 92.917097 
L 483.25673 92.319946 
L 480.548571 89.758714 
L 479.796688 89.022805 
L 477.257143 86.596145 
L 476.229982 85.725664 
L 473.965714 83.57631 
L 472.513616 82.428523 
L 470.674286 80.70073 
L 468.50375 79.131382 
L 467.382857 78.097719 
L 464.091429 76.225271 
L 460.8 76.881331 
L 457.508571 77.565437 
L 454.217143 78.51298 
L 450.925714 76.607516 
L 450.184787 75.834241 
L 447.634286 73.32679 
L 446.641132 72.5371 
L 444.342857 70.78251 
L 442.322324 69.239959 
L 441.051429 68.266294 
L 437.986524 65.942818 
L 437.76 65.752376 
L 434.468571 64.103172 
L 431.754954 62.645678 
L 431.177143 62.360163 
L 427.885714 62.432314 
L 426.703268 62.645678 
L 424.594286 62.942039 
L 422.74061 62.645678 
L 421.302857 62.436961 
L 418.011429 59.854049 
L 417.399137 59.348537 
L 414.72 57.202491 
L 413.18298 56.051396 
L 411.428571 54.737495 
L 408.780416 52.754255 
L 408.137143 52.230595 
L 404.845714 51.208124 
L 401.554286 50.745831 
L 399.099045 49.457114 
L 398.262857 49.046435 
L 394.971429 48.260953 
L 391.68 48.073701 
L 388.388571 46.59216 
L 387.885591 46.159973 
L 385.097143 43.763995 
L 383.999469 42.862832 
L 381.805714 41.136637 
L 379.677928 39.565691 
L 378.514286 38.648228 
L 375.222857 36.294377 
L 371.931429 36.871392 
L 368.64 38.552765 
L 365.348571 37.572054 
L 363.335953 36.26855 
L 362.057143 35.589574 
L 360.771404 36.26855 
L 358.765714 37.403242 
L 356.887221 36.26855 
L 355.474286 35.342674 
L 352.182857 33.403637 
L 351.596028 32.971409 
L 348.891429 31.182786 
L 346.317857 29.674268 
L 345.6 29.222735 
L 342.308571 28.425724 
L 339.017143 28.092748 
L 335.725714 27.942966 
L 332.434286 27.234646 
L 330.861865 26.377127 
L 329.142857 25.449569 
L 325.851429 23.497993 
L 325.305114 23.079986 
L 322.56 21.172369 
L 320.781379 19.782846 
L 319.268571 18.694749 
L 316.466965 16.485705 
L 315.977143 16.120146 
L 312.685714 15.013127 
L 309.394286 14.936835 
L 306.102857 14.915774 
L 302.811429 14.748163 
L 299.52 13.915871 
L 298.24932 13.188564 
L 296.228571 12.144099 
L 292.937143 10.149297 
L 292.496372 9.891423 
L 289.645714 8.247997 
L 286.84822 6.594282 
L 286.354286 6.324841 
L 283.062857 4.50401 
L 280.37532 3.297141 
L 279.771429 3.02364 
L 276.48 2.511098 
L 273.188571 2.296834 
L 269.897143 1.544972 
L 266.605714 0.10971 
L 266.219653 0 
L 263.314286 0 
L 260.022857 0 
L 257.419589 0 
L 260.022857 1.69145 
L 261.808922 3.297141 
L 263.314286 4.380819 
L 265.721587 6.594282 
L 266.605714 7.27215 
L 269.412643 9.891423 
L 269.897143 10.279117 
L 272.98272 13.188564 
L 273.188571 13.358459 
L 276.48 14.587115 
L 279.771429 15.466754 
L 283.062857 13.205553 
L 283.086715 13.188564 
L 286.354286 12.310912 
L 287.418354 13.188564 
L 289.645714 14.438392 
L 291.968591 16.485705 
L 292.937143 17.132563 
L 295.847852 19.782846 
L 296.228571 20.06568 
L 299.47913 23.079986 
L 299.52 23.11278 
L 302.811429 25.146416 
L 304.950028 26.377127 
L 306.102857 26.748586 
L 309.394286 28.885584 
L 312.685714 28.826917 
L 315.977143 26.584417 
L 319.268571 27.844781 
L 321.402633 29.674268 
L 322.56 30.36702 
L 325.450954 32.971409 
L 325.851429 33.248548 
L 329.118918 36.26855 
L 329.142857 36.286512 
L 332.434286 37.771067 
L 335.725714 39.131686 
L 336.672246 39.565691 
L 339.017143 40.577151 
L 342.308571 42.235316 
L 345.6 42.099447 
L 348.891429 41.696457 
L 350.290706 42.862832 
L 352.182857 43.827971 
L 354.777368 46.159973 
L 355.474286 46.611249 
L 358.542293 49.457114 
L 358.765714 49.619077 
L 362.057143 52.497923 
L 362.54856 52.754255 
L 365.348571 53.678428 
L 368.64 55.930357 
L 368.862145 56.051396 
L 371.931429 57.677558 
L 375.003855 59.348537 
L 375.222857 59.417719 
L 375.31975 59.348537 
L 378.514286 57.155019 
L 381.805714 57.523274 
L 383.811905 59.348537 
L 385.097143 60.061417 
L 387.829796 62.645678 
L 388.388571 63.025749 
L 391.422667 65.942818 
L 391.68 66.135992 
L 394.879092 69.239959 
L 394.971429 69.313442 
L 398.262857 70.055621 
L 401.060222 72.5371 
L 401.554286 72.781159 
L 404.809565 75.834241 
L 404.845714 75.857735 
L 408.137143 75.989699 
L 408.333077 75.834241 
L 410.841824 72.5371 
L 411.428571 72.128429 
L 411.877839 72.5371 
L 414.72 73.639903 
L 416.999948 75.834241 
L 418.011429 76.452949 
L 420.753566 79.131382 
L 421.302857 79.524603 
L 424.255685 82.428523 
L 424.594286 82.691321 
L 427.870756 85.725664 
L 427.885714 85.737713 
L 431.177143 87.201894 
L 433.068609 89.022805 
L 434.468571 89.902933 
L 436.944403 92.319946 
L 437.76 92.762837 
L 441.051429 92.6474 
L 441.386616 92.319946 
L 442.780866 89.022805 
L 444.342857 86.064515 
L 447.634286 87.171852 
L 449.501245 89.022805 
L 450.925714 89.919314 
L 453.337946 92.319946 
L 454.217143 92.960858 
L 456.88152 95.617087 
L 457.508571 96.326777 
L 460.103811 98.914228 
L 460.8 99.742979 
L 463.235436 102.211369 
L 464.091429 103.264985 
L 466.29949 105.50851 
L 467.382857 106.909757 
L 469.526381 108.80565 
L 470.674286 109.463718 
L 473.965714 108.869566 
L 474.010085 108.80565 
L 475.03619 105.50851 
L 477.257143 103.960637 
L 478.843676 105.50851 
L 480.548571 106.814092 
L 482.578191 108.80565 
L 483.84 110.750337 
L 485.136072 112.102791 
L 486.996128 115.399932 
L 487.131429 115.500366 
L 490.17069 118.697073 
L 490.422857 118.927271 
L 493.504884 121.994214 
L 493.714286 122.230352 
L 496.748985 125.291355 
L 497.005714 125.585221 
L 500.151322 128.588496 
L 500.297143 128.709901 
L 503.588571 128.830795 
L 503.922262 128.588496 
L 506.88 127.045757 
L 508.657345 128.588496 
L 510.171429 129.608688 
L 512.707224 131.885637 
L 513.462857 132.7468 
L 516.148145 135.182778 
L 516.754286 135.898839 
L 519.237005 138.479919 
L 520.045714 139.45922 
L 522.261917 141.77706 
L 523.337143 143.123483 
L 525.186923 145.074201 
L 526.628571 146.968235 
L 529.047648 148.371342 
L 529.92 148.621269 
L 531.297159 148.371342 
L 533.211429 147.977098 
L 533.691832 148.371342 
L 536.502857 149.661806 
L 538.731415 151.668483 
L 539.794286 152.332823 
L 542.620941 154.965623 
L 543.085714 155.356029 
L 546.183518 158.262764 
L 546.377143 158.474074 
L 549.644885 161.559905 
L 549.668571 161.58612 
L 552.945828 164.857046 
L 552.96 164.872912 
L 556.249096 168.154187 
L 556.251429 168.156721 
L 559.542857 168.959347 
L 561.772843 168.154187 
L 562.834286 167.767393 
L 563.331204 168.154187 
L 566.125714 170.868803 
L 566.931422 171.451328 
L 569.227715 174.748469 
L 569.417143 174.872749 
L 572.517844 178.04561 
z
M 361.967492 39.565691 
L 362.057143 39.312321 
L 362.167163 39.565691 
L 362.057143 39.622215 
z
M 243.565714 0.287616 
L 246.857143 0.586843 
L 250.071617 0 
L 246.857143 0 
L 243.565714 0 
L 243.199466 0 
z
" clip-path="url(#p57deecb78d)" style="fill: #e5eff9; fill-opacity: 0.9"/>
    <path d="M 576 152.022037 
L 576 151.668483 
L 576 148.371342 
L 576 145.074201 
L 576 141.77706 
L 576 138.479919 
L 576 135.182778 
L 576 131.885637 
L 576 128.588496 
L 576 125.291355 
L 576 121.994214 
L 576 118.697073 
L 576 115.399932 
L 576 112.102791 
L 576 108.80565 
L 576 105.50851 
L 576 102.211369 
L 576 100.441058 
L 574.480254 98.914228 
L 572.708571 97.864757 
L 570.468654 95.617087 
L 569.417143 94.868961 
L 566.875648 92.319946 
L 566.125714 91.737323 
L 563.126971 89.022805 
L 562.834286 88.823561 
L 559.542857 87.375171 
L 556.251429 86.290715 
L 555.216561 85.725664 
L 552.96 84.831184 
L 549.668571 82.899199 
L 548.320726 82.428523 
L 546.377143 81.835856 
L 543.085714 79.728472 
L 542.55638 79.131382 
L 539.794286 76.679024 
L 538.950054 75.834241 
L 536.502857 73.112466 
L 535.870624 72.5371 
L 533.211429 69.505277 
L 532.724483 69.239959 
L 529.92 68.050621 
L 526.628571 67.429517 
L 523.337143 68.967012 
L 520.045714 67.664581 
L 517.40426 65.942818 
L 516.754286 65.500324 
L 513.462857 64.142332 
L 510.171429 62.807176 
L 509.993273 62.645678 
L 506.88 60.339835 
L 505.807081 59.348537 
L 503.588571 57.534458 
L 501.99879 56.051396 
L 500.297143 54.494626 
L 497.376034 52.754255 
L 497.005714 52.565992 
L 494.642244 52.754255 
L 493.714286 53.012795 
L 490.422857 53.466401 
L 489.146231 52.754255 
L 487.131429 51.912222 
L 483.84 50.094801 
L 481.404766 49.457114 
L 480.548571 49.253214 
L 477.257143 47.301409 
L 476.023834 46.159973 
L 473.965714 44.706918 
L 472.011376 42.862832 
L 470.674286 41.844569 
L 468.287537 39.565691 
L 467.382857 38.762529 
L 464.091429 37.616136 
L 460.8 38.71761 
L 457.508571 38.595195 
L 454.217143 37.156304 
L 450.925714 36.435077 
L 450.73636 36.26855 
L 447.634286 34.017578 
L 446.470347 32.971409 
L 444.342857 31.341046 
L 442.3223 29.674268 
L 441.051429 28.683831 
L 438.287845 26.377127 
L 437.76 25.957155 
L 434.468571 23.399804 
L 433.217408 23.079986 
L 431.177143 22.726332 
L 428.855685 23.079986 
L 427.885714 24.194887 
L 424.594286 25.393694 
L 421.302857 23.626984 
L 420.668046 23.079986 
L 418.011429 21.274532 
L 416.282706 19.782846 
L 414.72 18.642964 
L 412.025111 16.485705 
L 411.428571 16.03981 
L 408.137143 13.652287 
L 407.466372 13.188564 
L 404.845714 11.671407 
L 402.446162 9.891423 
L 401.554286 9.322357 
L 400.706356 9.891423 
L 401.554286 12.675801 
L 401.798959 13.188564 
L 403.112466 16.485705 
L 402.516859 19.782846 
L 401.554286 20.23272 
L 400.919209 23.079986 
L 398.262857 25.624394 
L 394.971429 24.06479 
L 391.87659 23.079986 
L 391.68 22.9638 
L 388.388571 21.404115 
L 385.097143 20.162623 
L 383.074757 19.782846 
L 381.805714 19.508728 
L 380.821499 19.782846 
L 378.514286 20.4255 
L 375.222857 20.890483 
L 371.931429 20.08977 
L 371.480839 19.782846 
L 368.64 17.472709 
L 367.045554 16.485705 
L 365.348571 15.182666 
L 362.057143 13.587266 
L 358.765714 13.517453 
L 355.474286 14.744026 
L 353.498603 16.485705 
L 352.584055 19.782846 
L 352.182857 19.903489 
L 351.98001 19.782846 
L 348.891429 17.200149 
L 347.228101 16.485705 
L 345.6 15.308456 
L 342.308571 13.56051 
L 341.836609 13.188564 
L 339.017143 10.537674 
L 338.151829 9.891423 
L 335.725714 7.633441 
L 334.206675 6.594282 
L 332.434286 4.985839 
L 329.52451 3.297141 
L 329.142857 2.968233 
L 328.060008 3.297141 
L 326.719977 6.594282 
L 325.851429 7.115467 
L 322.56 8.950383 
L 319.268571 8.884956 
L 316.156704 6.594282 
L 315.977143 6.459803 
L 312.685714 4.514458 
L 310.084209 3.297141 
L 309.394286 2.939263 
L 306.102857 2.078761 
L 302.811429 0.189517 
L 302.524957 0 
L 299.52 0 
L 296.228571 0 
L 292.937143 0 
L 289.645714 0 
L 286.354286 0 
L 283.062857 0 
L 279.771429 0 
L 276.48 0 
L 273.188571 0 
L 269.897143 0 
L 266.605714 0 
L 266.219653 0 
L 266.605714 0.10971 
L 269.897143 1.544972 
L 273.188571 2.296834 
L 276.48 2.511098 
L 279.771429 3.02364 
L 280.37532 3.297141 
L 283.062857 4.50401 
L 286.354286 6.324841 
L 286.84822 6.594282 
L 289.645714 8.247997 
L 292.496372 9.891423 
L 292.937143 10.149297 
L 296.228571 12.144099 
L 298.24932 13.188564 
L 299.52 13.915871 
L 302.811429 14.748163 
L 306.102857 14.915774 
L 309.394286 14.936835 
L 312.685714 15.013127 
L 315.977143 16.120146 
L 316.466965 16.485705 
L 319.268571 18.694749 
L 320.781379 19.782846 
L 322.56 21.172369 
L 325.305114 23.079986 
L 325.851429 23.497993 
L 329.142857 25.449569 
L 330.861865 26.377127 
L 332.434286 27.234646 
L 335.725714 27.942966 
L 339.017143 28.092748 
L 342.308571 28.425724 
L 345.6 29.222735 
L 346.317857 29.674268 
L 348.891429 31.182786 
L 351.596028 32.971409 
L 352.182857 33.403637 
L 355.474286 35.342674 
L 356.887221 36.26855 
L 358.765714 37.403242 
L 360.771404 36.26855 
L 362.057143 35.589574 
L 363.335953 36.26855 
L 365.348571 37.572054 
L 368.64 38.552765 
L 371.931429 36.871392 
L 375.222857 36.294377 
L 378.514286 38.648228 
L 379.677928 39.565691 
L 381.805714 41.136637 
L 383.999469 42.862832 
L 385.097143 43.763995 
L 387.885591 46.159973 
L 388.388571 46.59216 
L 391.68 48.073701 
L 394.971429 48.260953 
L 398.262857 49.046435 
L 399.099045 49.457114 
L 401.554286 50.745831 
L 404.845714 51.208124 
L 408.137143 52.230595 
L 408.780416 52.754255 
L 411.428571 54.737495 
L 413.18298 56.051396 
L 414.72 57.202491 
L 417.399137 59.348537 
L 418.011429 59.854049 
L 421.302857 62.436961 
L 422.74061 62.645678 
L 424.594286 62.942039 
L 426.703268 62.645678 
L 427.885714 62.432314 
L 431.177143 62.360163 
L 431.754954 62.645678 
L 434.468571 64.103172 
L 437.76 65.752376 
L 437.986524 65.942818 
L 441.051429 68.266294 
L 442.322324 69.239959 
L 444.342857 70.78251 
L 446.641132 72.5371 
L 447.634286 73.32679 
L 450.184787 75.834241 
L 450.925714 76.607516 
L 454.217143 78.51298 
L 457.508571 77.565437 
L 460.8 76.881331 
L 464.091429 76.225271 
L 467.382857 78.097719 
L 468.50375 79.131382 
L 470.674286 80.70073 
L 472.513616 82.428523 
L 473.965714 83.57631 
L 476.229982 85.725664 
L 477.257143 86.596145 
L 479.796688 89.022805 
L 480.548571 89.758714 
L 483.25673 92.319946 
L 483.84 92.917097 
L 487.131429 94.50438 
L 490.422857 93.337734 
L 493.714286 92.654955 
L 497.005714 92.376351 
L 500.297143 94.264396 
L 501.652392 95.617087 
L 503.588571 96.982463 
L 505.521929 98.914228 
L 506.88 99.961648 
L 509.130262 102.211369 
L 510.171429 103.085621 
L 512.619368 105.50851 
L 513.462857 106.32906 
L 516.061461 108.80565 
L 516.754286 109.465944 
L 520.045714 111.960405 
L 523.337143 111.109107 
L 526.628571 111.857005 
L 526.869025 112.102791 
L 529.92 114.312216 
L 530.990357 115.399932 
L 533.211429 117.147528 
L 534.741166 118.697073 
L 536.502857 120.461355 
L 538.026259 121.994214 
L 539.794286 123.78504 
L 541.388197 125.291355 
L 543.085714 126.986813 
L 545.211674 128.588496 
L 546.377143 129.732436 
L 549.552054 131.885637 
L 549.668571 131.998979 
L 552.96 131.991035 
L 553.443137 131.885637 
L 556.251429 131.670369 
L 556.468333 131.885637 
L 559.542857 134.93073 
L 559.796817 135.182778 
L 562.790799 138.479919 
L 562.834286 138.508882 
L 565.786175 141.77706 
L 566.125714 142.033652 
L 568.957591 145.074201 
L 569.417143 145.476241 
L 572.251204 148.371342 
L 572.708571 148.824026 
L 575.638077 151.668483 
z
M 362.057143 39.622215 
L 362.167163 39.565691 
L 362.057143 39.312321 
L 361.967492 39.565691 
z
" clip-path="url(#p57deecb78d)" style="fill: #dfecf7; fill-opacity: 0.9"/>
    <path d="M 576 100.441058 
L 576 98.914228 
L 576 95.617087 
L 576 92.319946 
L 576 89.022805 
L 576 88.798438 
L 572.708571 85.936366 
L 572.462286 85.725664 
L 569.417143 83.153456 
L 568.572557 82.428523 
L 566.125714 80.281646 
L 564.783919 79.131382 
L 562.834286 77.460044 
L 560.444265 75.834241 
L 559.542857 75.089455 
L 556.251429 74.651789 
L 552.96 74.142333 
L 549.668571 72.607895 
L 549.568412 72.5371 
L 546.377143 69.847323 
L 545.533992 69.239959 
L 543.085714 67.225133 
L 541.718982 65.942818 
L 539.794286 64.323366 
L 537.987694 62.645678 
L 536.502857 61.337001 
L 533.881646 59.348537 
L 533.211429 58.746235 
L 529.92 56.597812 
L 527.843413 56.051396 
L 526.628571 55.605649 
L 524.297082 56.051396 
L 523.337143 56.134552 
L 523.19716 56.051396 
L 520.045714 54.325791 
L 517.627081 52.754255 
L 516.754286 52.239648 
L 513.462857 50.165295 
L 512.332515 49.457114 
L 510.171429 48.162929 
L 507.056825 46.159973 
L 506.88 46.051067 
L 503.588571 44.457119 
L 500.32896 42.862832 
L 500.297143 42.84642 
L 497.005714 40.55912 
L 494.921498 39.565691 
L 493.714286 38.827913 
L 490.422857 39.069837 
L 487.131429 38.472619 
L 483.84 36.771294 
L 483.096425 36.26855 
L 480.548571 34.399929 
L 478.41487 32.971409 
L 477.257143 32.14349 
L 473.965714 29.971988 
L 473.262793 29.674268 
L 470.674286 28.558278 
L 467.382857 26.750104 
L 466.849902 26.377127 
L 464.091429 24.41156 
L 461.536735 23.079986 
L 460.8 22.60532 
L 457.508739 23.079986 
L 457.508571 23.080022 
L 457.508362 23.079986 
L 454.217143 22.551877 
L 450.925714 20.651404 
L 449.737876 19.782846 
L 447.634286 18.205972 
L 445.259543 16.485705 
L 444.342857 15.791671 
L 441.051429 13.811223 
L 439.135342 13.188564 
L 437.76 12.724354 
L 434.468571 10.820228 
L 432.632247 9.891423 
L 431.177143 9.047434 
L 427.885714 7.866803 
L 424.594286 7.114175 
L 423.158018 6.594282 
L 421.302857 5.981318 
L 418.011429 4.100356 
L 416.871965 3.297141 
L 414.72 1.867901 
L 412.094013 0 
L 411.428571 0 
L 408.137143 0 
L 404.845714 0 
L 401.554286 0 
L 398.262857 0 
L 394.971429 0 
L 391.68 0 
L 388.388571 0 
L 385.097143 0 
L 381.805714 0 
L 378.514286 0 
L 375.222857 0 
L 371.931429 0 
L 368.64 0 
L 365.348571 0 
L 362.057143 0 
L 358.765714 0 
L 355.474286 0 
L 352.182857 0 
L 348.891429 0 
L 345.6 0 
L 342.308571 0 
L 339.017143 0 
L 335.725714 0 
L 332.434286 0 
L 329.142857 0 
L 325.851429 0 
L 322.56 0 
L 319.268571 0 
L 315.977143 0 
L 312.685714 0 
L 309.394286 0 
L 306.102857 0 
L 302.811429 0 
L 302.524957 0 
L 302.811429 0.189517 
L 306.102857 2.078761 
L 309.394286 2.939263 
L 310.084209 3.297141 
L 312.685714 4.514458 
L 315.977143 6.459803 
L 316.156704 6.594282 
L 319.268571 8.884956 
L 322.56 8.950383 
L 325.851429 7.115467 
L 326.719977 6.594282 
L 328.060008 3.297141 
L 329.142857 2.968233 
L 329.52451 3.297141 
L 332.434286 4.985839 
L 334.206675 6.594282 
L 335.725714 7.633441 
L 338.151829 9.891423 
L 339.017143 10.537674 
L 341.836609 13.188564 
L 342.308571 13.56051 
L 345.6 15.308456 
L 347.228101 16.485705 
L 348.891429 17.200149 
L 351.98001 19.782846 
L 352.182857 19.903489 
L 352.584055 19.782846 
L 353.498603 16.485705 
L 355.474286 14.744026 
L 358.765714 13.517453 
L 362.057143 13.587266 
L 365.348571 15.182666 
L 367.045554 16.485705 
L 368.64 17.472709 
L 371.480839 19.782846 
L 371.931429 20.08977 
L 375.222857 20.890483 
L 378.514286 20.4255 
L 380.821499 19.782846 
L 381.805714 19.508728 
L 383.074757 19.782846 
L 385.097143 20.162623 
L 388.388571 21.404115 
L 391.68 22.9638 
L 391.87659 23.079986 
L 394.971429 24.06479 
L 398.262857 25.624394 
L 400.919209 23.079986 
L 401.554286 20.23272 
L 402.516859 19.782846 
L 403.112466 16.485705 
L 401.798959 13.188564 
L 401.554286 12.675801 
L 400.706356 9.891423 
L 401.554286 9.322357 
L 402.446162 9.891423 
L 404.845714 11.671407 
L 407.466372 13.188564 
L 408.137143 13.652287 
L 411.428571 16.03981 
L 412.025111 16.485705 
L 414.72 18.642964 
L 416.282706 19.782846 
L 418.011429 21.274532 
L 420.668046 23.079986 
L 421.302857 23.626984 
L 424.594286 25.393694 
L 427.885714 24.194887 
L 428.855685 23.079986 
L 431.177143 22.726332 
L 433.217408 23.079986 
L 434.468571 23.399804 
L 437.76 25.957155 
L 438.287845 26.377127 
L 441.051429 28.683831 
L 442.3223 29.674268 
L 444.342857 31.341046 
L 446.470347 32.971409 
L 447.634286 34.017578 
L 450.73636 36.26855 
L 450.925714 36.435077 
L 454.217143 37.156304 
L 457.508571 38.595195 
L 460.8 38.71761 
L 464.091429 37.616136 
L 467.382857 38.762529 
L 468.287537 39.565691 
L 470.674286 41.844569 
L 472.011376 42.862832 
L 473.965714 44.706918 
L 476.023834 46.159973 
L 477.257143 47.301409 
L 480.548571 49.253214 
L 481.404766 49.457114 
L 483.84 50.094801 
L 487.131429 51.912222 
L 489.146231 52.754255 
L 490.422857 53.466401 
L 493.714286 53.012795 
L 494.642244 52.754255 
L 497.005714 52.565992 
L 497.376034 52.754255 
L 500.297143 54.494626 
L 501.99879 56.051396 
L 503.588571 57.534458 
L 505.807081 59.348537 
L 506.88 60.339835 
L 509.993273 62.645678 
L 510.171429 62.807176 
L 513.462857 64.142332 
L 516.754286 65.500324 
L 517.40426 65.942818 
L 520.045714 67.664581 
L 523.337143 68.967012 
L 526.628571 67.429517 
L 529.92 68.050621 
L 532.724483 69.239959 
L 533.211429 69.505277 
L 535.870624 72.5371 
L 536.502857 73.112466 
L 538.950054 75.834241 
L 539.794286 76.679024 
L 542.55638 79.131382 
L 543.085714 79.728472 
L 546.377143 81.835856 
L 548.320726 82.428523 
L 549.668571 82.899199 
L 552.96 84.831184 
L 555.216561 85.725664 
L 556.251429 86.290715 
L 559.542857 87.375171 
L 562.834286 88.823561 
L 563.126971 89.022805 
L 566.125714 91.737323 
L 566.875648 92.319946 
L 569.417143 94.868961 
L 570.468654 95.617087 
L 572.708571 97.864757 
L 574.480254 98.914228 
z
" clip-path="url(#p57deecb78d)" style="fill: #dae8f6; fill-opacity: 0.9"/>
    <path d="M 572.708571 85.936366 
L 576 88.798438 
L 576 85.725664 
L 576 82.428523 
L 576 79.131382 
L 576 77.462814 
L 572.708571 77.736423 
L 569.417143 76.44469 
L 568.879765 75.834241 
L 566.125714 73.222299 
L 565.51053 72.5371 
L 562.834286 70.089774 
L 562.057313 69.239959 
L 559.542857 66.948118 
L 558.387861 65.942818 
L 556.251429 63.846269 
L 554.732743 62.645678 
L 552.96 60.65181 
L 551.101551 59.348537 
L 549.668571 57.693449 
L 546.428944 56.051396 
L 546.377143 56.02514 
L 544.661848 56.051396 
L 543.085714 56.091084 
L 539.794286 56.8528 
L 538.736384 56.051396 
L 536.502857 54.124676 
L 534.707823 52.754255 
L 533.211429 51.486285 
L 530.459135 49.457114 
L 529.92 49.010554 
L 526.628571 46.314545 
L 526.418937 46.159973 
L 523.337143 43.396723 
L 522.552263 42.862832 
L 520.045714 40.687964 
L 518.148756 39.565691 
L 516.754286 38.426862 
L 513.462857 37.111246 
L 510.171429 37.858787 
L 506.88 38.21212 
L 505.185979 36.26855 
L 503.588571 34.598093 
L 502.431885 32.971409 
L 500.297143 30.763904 
L 499.45847 29.674268 
L 497.005714 27.154517 
L 496.377253 26.377127 
L 493.714286 23.711136 
L 493.184852 23.079986 
L 490.422857 20.559976 
L 489.717549 19.782846 
L 487.131429 17.386553 
L 485.050752 16.485705 
L 483.84 15.452209 
L 482.300981 16.485705 
L 480.548571 18.437623 
L 479.072002 19.782846 
L 477.257143 20.698405 
L 473.965714 20.607573 
L 473.049506 19.782846 
L 470.674286 17.186452 
L 469.664 16.485705 
L 467.382857 13.853866 
L 466.842931 13.188564 
L 464.091429 10.044437 
L 463.995974 9.891423 
L 461.188916 6.594282 
L 460.8 6.200332 
L 457.508571 3.35842 
L 457.460535 3.297141 
L 454.217143 0.519608 
L 453.556606 0 
L 450.925714 0 
L 449.067812 0 
L 447.634286 1.938482 
L 445.192259 3.297141 
L 444.342857 3.673767 
L 441.051429 3.761434 
L 440.501995 3.297141 
L 437.76 0.735469 
L 436.872289 0 
L 434.468571 0 
L 431.177143 0 
L 427.885714 0 
L 424.594286 0 
L 421.302857 0 
L 418.011429 0 
L 414.72 0 
L 412.094013 0 
L 414.72 1.867901 
L 416.871965 3.297141 
L 418.011429 4.100356 
L 421.302857 5.981318 
L 423.158018 6.594282 
L 424.594286 7.114175 
L 427.885714 7.866803 
L 431.177143 9.047434 
L 432.632247 9.891423 
L 434.468571 10.820228 
L 437.76 12.724354 
L 439.135342 13.188564 
L 441.051429 13.811223 
L 444.342857 15.791671 
L 445.259543 16.485705 
L 447.634286 18.205972 
L 449.737876 19.782846 
L 450.925714 20.651404 
L 454.217143 22.551877 
L 457.508362 23.079986 
L 457.508571 23.080022 
L 457.508739 23.079986 
L 460.8 22.60532 
L 461.536735 23.079986 
L 464.091429 24.41156 
L 466.849902 26.377127 
L 467.382857 26.750104 
L 470.674286 28.558278 
L 473.262793 29.674268 
L 473.965714 29.971988 
L 477.257143 32.14349 
L 478.41487 32.971409 
L 480.548571 34.399929 
L 483.096425 36.26855 
L 483.84 36.771294 
L 487.131429 38.472619 
L 490.422857 39.069837 
L 493.714286 38.827913 
L 494.921498 39.565691 
L 497.005714 40.55912 
L 500.297143 42.84642 
L 500.32896 42.862832 
L 503.588571 44.457119 
L 506.88 46.051067 
L 507.056825 46.159973 
L 510.171429 48.162929 
L 512.332515 49.457114 
L 513.462857 50.165295 
L 516.754286 52.239648 
L 517.627081 52.754255 
L 520.045714 54.325791 
L 523.19716 56.051396 
L 523.337143 56.134552 
L 524.297082 56.051396 
L 526.628571 55.605649 
L 527.843413 56.051396 
L 529.92 56.597812 
L 533.211429 58.746235 
L 533.881646 59.348537 
L 536.502857 61.337001 
L 537.987694 62.645678 
L 539.794286 64.323366 
L 541.718982 65.942818 
L 543.085714 67.225133 
L 545.533992 69.239959 
L 546.377143 69.847323 
L 549.568412 72.5371 
L 549.668571 72.607895 
L 552.96 74.142333 
L 556.251429 74.651789 
L 559.542857 75.089455 
L 560.444265 75.834241 
L 562.834286 77.460044 
L 564.783919 79.131382 
L 566.125714 80.281646 
L 568.572557 82.428523 
L 569.417143 83.153456 
L 572.462286 85.725664 
z
" clip-path="url(#p57deecb78d)" style="fill: #d6e5f4; fill-opacity: 0.9"/>
    <path d="M 569.417143 76.44469 
L 572.708571 77.736423 
L 576 77.462814 
L 576 75.834241 
L 576 72.5371 
L 576 69.239959 
L 576 65.942818 
L 576 62.645678 
L 576 59.348537 
L 576 56.051396 
L 576 52.754255 
L 576 49.457114 
L 576 46.159973 
L 576 42.862832 
L 576 39.565691 
L 576 36.26855 
L 576 32.971409 
L 576 29.674268 
L 576 28.54741 
L 572.778826 26.377127 
L 572.708571 26.327895 
L 569.417143 24.372187 
L 567.178366 23.079986 
L 566.125714 22.455967 
L 562.834286 20.204918 
L 562.289249 19.782846 
L 559.542857 17.75637 
L 557.617775 16.485705 
L 556.251429 15.541978 
L 552.96 13.703445 
L 552.062734 13.188564 
L 549.668571 11.863627 
L 546.510112 9.891423 
L 546.377143 9.813891 
L 543.085714 7.944469 
L 540.990577 6.594282 
L 539.794286 5.885848 
L 536.502857 3.777814 
L 535.578067 3.297141 
L 533.211429 1.991448 
L 529.92 0.359892 
L 529.353061 0 
L 526.628571 0 
L 523.337143 0 
L 520.045714 0 
L 516.754286 0 
L 513.462857 0 
L 510.171429 0 
L 506.88 0 
L 503.588571 0 
L 500.297143 0 
L 497.005714 0 
L 493.714286 0 
L 490.422857 0 
L 487.131429 0 
L 483.84 0 
L 480.548571 0 
L 477.257143 0 
L 473.965714 0 
L 470.674286 0 
L 467.382857 0 
L 464.091429 0 
L 460.8 0 
L 457.508571 0 
L 454.217143 0 
L 453.556606 0 
L 454.217143 0.519608 
L 457.460535 3.297141 
L 457.508571 3.35842 
L 460.8 6.200332 
L 461.188916 6.594282 
L 463.995974 9.891423 
L 464.091429 10.044437 
L 466.842931 13.188564 
L 467.382857 13.853866 
L 469.664 16.485705 
L 470.674286 17.186452 
L 473.049506 19.782846 
L 473.965714 20.607573 
L 477.257143 20.698405 
L 479.072002 19.782846 
L 480.548571 18.437623 
L 482.300981 16.485705 
L 483.84 15.452209 
L 485.050752 16.485705 
L 487.131429 17.386553 
L 489.717549 19.782846 
L 490.422857 20.559976 
L 493.184853 23.079986 
L 493.714286 23.711136 
L 496.377253 26.377127 
L 497.005714 27.154517 
L 499.45847 29.674268 
L 500.297143 30.763904 
L 502.431885 32.971409 
L 503.588571 34.598093 
L 505.185979 36.26855 
L 506.88 38.21212 
L 510.171429 37.858787 
L 513.462857 37.111246 
L 516.754286 38.426862 
L 518.148756 39.565691 
L 520.045714 40.687964 
L 522.552263 42.862832 
L 523.337143 43.396723 
L 526.418937 46.159973 
L 526.628571 46.314545 
L 529.92 49.010554 
L 530.459135 49.457114 
L 533.211429 51.486285 
L 534.707823 52.754255 
L 536.502857 54.124676 
L 538.736384 56.051396 
L 539.794286 56.8528 
L 543.085714 56.091084 
L 544.661848 56.051396 
L 546.377143 56.02514 
L 546.428944 56.051396 
L 549.668571 57.693449 
L 551.101551 59.348537 
L 552.96 60.65181 
L 554.732743 62.645678 
L 556.251429 63.846269 
L 558.387861 65.942818 
L 559.542857 66.948118 
L 562.057313 69.239959 
L 562.834286 70.089774 
L 565.51053 72.5371 
L 566.125714 73.222299 
L 568.879765 75.834241 
z
M 441.051429 3.761434 
L 444.342857 3.673767 
L 445.192259 3.297141 
L 447.634286 1.938482 
L 449.067812 0 
L 447.634286 0 
L 444.342857 0 
L 441.051429 0 
L 437.76 0 
L 436.872289 0 
L 437.76 0.735469 
L 440.501995 3.297141 
z
" clip-path="url(#p57deecb78d)" style="fill: #d0e2f2; fill-opacity: 0.9"/>
    <path d="M 576 28.54741 
L 576 26.377127 
L 576 23.079986 
L 576 19.782846 
L 576 16.485705 
L 576 13.188564 
L 576 9.891423 
L 576 6.594282 
L 576 3.297141 
L 576 0 
L 572.708571 0 
L 569.417143 0 
L 566.125714 0 
L 562.834286 0 
L 559.542857 0 
L 556.251429 0 
L 552.96 0 
L 549.668571 0 
L 546.377143 0 
L 543.085714 0 
L 539.794286 0 
L 536.502857 0 
L 533.211429 0 
L 529.92 0 
L 529.353061 0 
L 529.92 0.359892 
L 533.211429 1.991448 
L 535.578067 3.297141 
L 536.502857 3.777814 
L 539.794286 5.885848 
L 540.990577 6.594282 
L 543.085714 7.944469 
L 546.377143 9.813891 
L 546.510112 9.891423 
L 549.668571 11.863627 
L 552.062734 13.188564 
L 552.96 13.703445 
L 556.251429 15.541978 
L 557.617775 16.485705 
L 559.542857 17.75637 
L 562.289249 19.782846 
L 562.834286 20.204918 
L 566.125714 22.455967 
L 567.178366 23.079986 
L 569.417143 24.372187 
L 572.708571 26.327895 
L 572.778826 26.377127 
z
" clip-path="url(#p57deecb78d)" style="fill: #cbdef1; fill-opacity: 0.9"/>
    <path clip-path="url(#p57deecb78d)" style="fill: #c6dbef; fill-opacity: 0.9"/>
    <path clip-path="url(#p57deecb78d)" style="fill: #bed8ec; fill-opacity: 0.9"/>
    <path clip-path="url(#p57deecb78d)" style="fill: #b5d4e9; fill-opacity: 0.9"/>
    <path clip-path="url(#p57deecb78d)" style="fill: #add0e6; fill-opacity: 0.9"/>
    <path clip-path="url(#p57deecb78d)" style="fill: #a5cde3; fill-opacity: 0.9"/>
    <path clip-path="url(#p57deecb78d)" style="fill: #9cc9e1; fill-opacity: 0.9"/>
    <path clip-path="url(#p57deecb78d)" style="fill: #91c3de; fill-opacity: 0.9"/>
    <path clip-path="url(#p57deecb78d)" style="fill: #85bcdc; fill-opacity: 0.9"/>
    <path clip-path="url(#p57deecb78d)" style="fill: #7cb7da; fill-opacity: 0.9"/>
    <path clip-path="url(#p57deecb78d)" style="fill: #71b1d7; fill-opacity: 0.9"/>
    <path clip-path="url(#p57deecb78d)" style="fill: #66abd4; fill-opacity: 0.9"/>
    <path clip-path="url(#p57deecb78d)" style="fill: #5da5d1; fill-opacity: 0.9"/>
    <path clip-path="url(#p57deecb78d)" style="fill: #56a0ce; fill-opacity: 0.9"/>
    <path clip-path="url(#p57deecb78d)" style="fill: #4d99ca; fill-opacity: 0.9"/>
    <path clip-path="url(#p57deecb78d)" style="fill: #4493c7; fill-opacity: 0.9"/>
    <path clip-path="url(#p57deecb78d)" style="fill: #3c8cc3; fill-opacity: 0.9"/>
    <path clip-path="url(#p57deecb78d)" style="fill: #3686c0; fill-opacity: 0.9"/>
    <path clip-path="url(#p57deecb78d)" style="fill: #2f7fbc; fill-opacity: 0.9"/>
    <path clip-path="url(#p57deecb78d)" style="fill: #2777b8; fill-opacity: 0.9"/>
    <path clip-path="url(#p57deecb78d)" style="fill: #2070b4; fill-opacity: 0.9"/>
    <path clip-path="url(#p57deecb78d)" style="fill: #1c6ab0; fill-opacity: 0.9"/>
    <path clip-path="url(#p57deecb78d)" style="fill: #1663aa; fill-opacity: 0.9"/>
    <path clip-path="url(#p57deecb78d)" style="fill: #115ca5; fill-opacity: 0.9"/>
    <path clip-path="url(#p57deecb78d)" style="fill: #0c56a0; fill-opacity: 0.9"/>
    <path clip-path="url(#p57deecb78d)" style="fill: #084f99; fill-opacity: 0.9"/>
    <path clip-path="url(#p57deecb78d)" style="fill: #08488e; fill-opacity: 0.9"/>
    <path clip-path="url(#p57deecb78d)" style="fill: #084184; fill-opacity: 0.9"/>
    <path clip-path="url(#p57deecb78d)" style="fill: #083a7a; fill-opacity: 0.9"/>
    <path clip-path="url(#p57deecb78d)" style="fill: #083370; fill-opacity: 0.9"/>
    <path clip-path="url(#p57deecb78d)" style="fill: #08306b; fill-opacity: 0.9"/>
   </g>
   <g id="QuadContourSet_2">
    <path d="M 237.113962 0 
L 240.274286 1.13856 
L 243.884394 3.297141 
L 246.857143 5.393786 
L 250.439499 6.594282 
L 253.44 8.620699 
L 256.731429 9.404419 
L 257.413447 9.891423 
L 260.022857 11.606997 
L 263.314286 12.11253 
L 266.605714 13.962593 
L 269.897143 14.708481 
L 273.2599 16.485705 
L 276.48 19.046678 
L 277.884494 19.782846 
L 279.771429 21.420813 
L 283.062857 22.18621 
L 284.660078 23.079986 
L 286.354286 24.64836 
L 289.645714 25.101153 
L 291.435661 26.377127 
L 292.937143 27.861724 
L 296.228571 27.757649 
L 299.046499 29.674268 
L 299.52 30.161554 
L 302.811429 30.088449 
L 309.394286 35.128391 
L 311.992821 36.26855 
L 312.685714 36.955571 
L 318.831064 39.565691 
L 319.268571 39.995246 
L 322.56 41.320989 
L 325.851429 42.992215 
L 329.142857 43.925987 
L 332.434286 45.135438 
L 335.725714 45.962326 
L 339.017143 48.756212 
L 340.033488 49.457114 
L 342.308571 51.291006 
L 345.6 52.343779 
L 346.277427 52.754255 
L 348.891429 54.519149 
L 352.182857 55.325821 
L 355.474286 57.610054 
L 358.765714 58.018682 
L 362.057143 59.94439 
L 365.348571 59.698455 
L 369.13919 62.645678 
L 371.931429 65.066706 
L 373.498068 65.942818 
L 375.222857 67.390252 
L 378.514286 68.284203 
L 380.328107 69.239959 
L 381.805714 70.556708 
L 385.097143 71.160557 
L 387.171036 72.5371 
L 388.388571 73.70134 
L 391.68 73.741194 
L 394.971429 75.976073 
L 395.785383 75.834241 
L 398.262857 75.669313 
L 402.275146 79.131382 
L 404.845714 81.259751 
L 407.407554 82.428523 
L 408.137143 83.175409 
L 414.163933 85.725664 
L 414.72 86.284176 
L 418.011429 87.549516 
L 420.950881 89.022805 
L 421.302857 89.368483 
L 424.594286 90.198927 
L 427.885714 92.229413 
L 431.177143 92.046776 
L 435.333569 95.617087 
L 437.76 97.686626 
L 441.200975 98.914228 
L 444.342857 100.980812 
L 447.913332 102.211369 
L 450.925714 104.10983 
L 454.217143 105.075497 
L 454.999238 105.50851 
L 457.508571 106.682304 
L 460.8 106.980529 
L 464.091429 108.35494 
L 464.499591 108.80565 
L 467.93813 112.102791 
L 470.674286 114.32218 
L 472.617435 115.399932 
L 473.965714 116.756477 
L 477.257143 117.966127 
L 478.197485 118.697073 
L 480.548571 120.784297 
L 483.037869 121.994214 
L 483.84 122.781755 
L 487.131429 123.587629 
L 489.65738 125.291355 
L 490.422857 126.049747 
L 493.714286 127.839784 
L 494.332506 128.588496 
L 497.005714 130.551181 
L 499.024789 132.289452 
M 514.2996 143.534691 
L 518.043331 145.074201 
L 520.045714 145.653864 
L 525.707933 151.668483 
L 526.628571 152.571716 
L 530.530227 154.965623 
L 534.873102 158.262764 
L 536.502857 159.871769 
L 539.276394 161.559905 
L 539.794286 162.068366 
L 543.085714 163.63591 
L 549.839487 168.154187 
L 553.603426 171.451328 
L 556.251429 173.870653 
L 557.439166 174.748469 
L 559.542857 176.639995 
L 561.603359 178.04561 
L 562.834286 179.286966 
L 566.499534 181.342751 
L 569.417143 183.212466 
L 571.315674 184.639892 
L 572.708571 185.965553 
L 575.584833 187.937033 
L 576 188.356355 
L 576 188.356355 
" clip-path="url(#p57deecb78d)" style="fill: none"/>
    <path d="M 240.804367 0 
L 243.565714 2.168498 
L 245.476831 3.297141 
L 246.857143 4.270659 
L 250.148571 5.224732 
L 253.44 7.445277 
L 256.731429 7.83323 
L 260.022857 10.16036 
L 262.457436 9.891423 
L 263.314286 9.587799 
L 266.605714 10.232913 
L 270.505005 13.188564 
L 276.48 18.077608 
L 279.771429 19.815915 
L 283.062857 21.151633 
L 286.800306 23.079986 
L 289.645714 23.783197 
L 292.937143 25.125246 
L 296.228571 24.003824 
L 299.52 25.858816 
L 300.072956 26.377127 
L 309.394286 33.98656 
L 312.685714 35.148048 
L 314.284415 36.26855 
L 315.977143 37.189268 
L 319.268571 37.826875 
L 322.56 39.797271 
L 325.851429 39.704945 
L 326.475685 39.565691 
L 329.142857 39.294236 
L 329.431997 39.565691 
L 333.496256 42.862832 
L 339.017143 47.533133 
L 342.308571 49.861404 
L 345.6 50.998673 
L 348.891429 53.020343 
L 352.182857 53.557968 
L 355.474286 55.337813 
L 358.765714 54.028428 
L 362.057143 55.511309 
L 362.654567 56.051396 
L 366.668841 59.348537 
L 371.931429 63.86469 
L 375.743248 65.942818 
L 378.514286 67.143151 
L 381.805714 68.386792 
L 383.40468 69.239959 
L 385.097143 69.723227 
L 388.388571 70.064399 
L 390.832975 69.239959 
L 391.758902 69.239959 
L 398.262857 74.511142 
L 404.845714 80.189981 
L 408.137143 81.447207 
L 409.521477 82.428523 
L 411.428571 83.462667 
L 414.72 84.186637 
L 417.079048 85.725664 
L 418.011429 86.155913 
L 421.302857 86.120457 
L 422.621997 85.725664 
L 424.594286 85.478151 
L 424.861549 85.725664 
L 431.177143 90.924706 
L 434.468571 93.846697 
L 437.76 96.457559 
L 441.051429 97.617755 
L 444.342857 99.721973 
L 447.634286 100.370522 
L 450.925714 102.648104 
L 454.217143 102.41049 
L 454.864596 102.211369 
L 457.508571 101.202571 
L 458.305524 102.211369 
L 460.8 103.970539 
L 462.138687 105.50851 
L 464.091429 107.071567 
L 466.181202 109.320248 
M 482.074792 119.60738 
L 483.84 119.816844 
L 487.131429 118.614371 
L 487.210057 118.697073 
L 490.788894 121.994214 
L 493.714286 125.294266 
L 496.434368 128.588496 
L 497.005714 129.007982 
L 500.490209 131.885637 
L 503.588571 133.963078 
L 510.171429 139.102817 
L 513.462857 140.165603 
L 516.754286 141.346957 
L 517.161634 141.77706 
L 520.045714 144.001128 
L 526.628571 150.830539 
L 527.650253 151.668483 
L 533.211429 155.810025 
L 536.947501 158.262764 
L 539.794286 159.480417 
L 543.274728 161.559905 
L 546.377143 163.398151 
L 547.705897 164.857046 
L 549.668571 166.276024 
L 551.431962 168.154187 
L 552.96 169.442661 
L 554.900993 171.451328 
L 556.251429 172.685142 
L 559.542857 175.197702 
L 566.125714 179.241474 
L 569.417143 181.583626 
L 572.708571 181.706992 
L 576 184.548289 
L 576 184.548289 
" clip-path="url(#p57deecb78d)" style="fill: none"/>
    <path d="M 242.001916 0 
L 243.565714 1.228057 
L 247.422192 3.297141 
L 250.148571 4.051325 
L 253.44 5.230379 
L 256.731429 4.612642 
L 260.022857 4.336638 
L 263.314286 6.014477 
L 263.944866 6.594282 
L 266.605714 8.634376 
L 267.952821 9.891423 
L 269.897143 11.447258 
L 271.743863 13.188564 
L 276.48 17.108538 
L 279.771429 18.059143 
L 282.246491 19.782846 
L 283.062857 20.117055 
L 286.354286 20.072933 
L 287.832926 19.782846 
L 289.645714 18.504278 
L 292.937143 19.077444 
L 293.71186 19.782846 
L 296.228571 21.652499 
L 297.767941 23.079986 
L 299.52 24.485798 
L 302.811429 27.429248 
L 306.102857 30.203418 
L 309.394286 32.617135 
L 310.075211 32.971409 
L 312.685714 33.620943 
L 315.977143 35.016054 
L 319.268571 34.19504 
L 321.378343 32.971409 
L 322.56 32.778592 
L 322.774034 32.971409 
L 325.851429 35.101048 
L 327.114607 36.26855 
L 329.142857 37.790374 
L 331.033829 39.565691 
L 332.434286 40.672243 
L 339.017143 46.310054 
L 342.308571 47.768761 
L 345.043138 49.457114 
L 345.6 49.653566 
L 348.891429 49.387674 
L 352.182857 48.067746 
L 355.474286 48.778979 
L 356.205355 49.457114 
L 358.765714 51.313176 
L 360.292616 52.754255 
L 362.057143 54.120984 
L 365.348571 56.976905 
L 371.931429 62.662674 
L 375.222857 63.777144 
L 378.514286 66.002098 
L 379.718388 65.942818 
L 381.805714 64.938647 
L 385.097143 63.017871 
L 388.388571 64.964438 
L 389.406202 65.942818 
L 391.68 67.649697 
L 393.318997 69.239959 
L 394.971429 70.554987 
L 404.89975 79.131382 
L 408.137143 80.022641 
L 411.428571 82.109296 
L 414.72 81.185068 
L 416.74083 79.131382 
L 418.011429 78.862024 
L 418.287193 79.131382 
L 421.302857 81.290204 
L 422.460347 82.428523 
L 424.594286 84.084736 
L 426.366152 85.725664 
L 427.885714 86.949682 
L 434.468571 92.740389 
L 438.821984 95.617087 
L 444.342857 97.494352 
L 447.634286 97.437745 
L 448.83096 95.617087 
L 450.925714 92.298371 
L 450.947394 92.319946 
L 454.217143 94.703509 
L 455.133523 95.617087 
L 467.382857 109.35932 
L 471.12858 112.102791 
L 473.965714 113.239477 
L 477.257143 115.587996 
L 479.380081 115.399932 
L 480.548571 113.205547 
L 483.84 114.118446 
L 484.898593 115.399932 
L 487.131429 117.057369 
L 488.690374 118.697073 
L 492.146889 121.994214 
L 493.714286 123.761729 
L 495.230767 125.291355 
L 497.005714 127.323055 
L 498.331128 128.588496 
L 500.297143 130.225321 
L 506.88 135.106512 
L 510.171429 134.516743 
L 510.722494 135.182778 
L 513.462857 136.556367 
L 515.343107 138.556432 
M 529.296305 151.697567 
L 529.92 152.155928 
L 533.211429 153.691034 
L 536.552982 154.965623 
L 539.794286 154.619904 
L 540.165461 154.965623 
L 543.985359 158.262764 
L 556.251429 171.499631 
L 559.542857 173.068361 
L 562.834286 175.078585 
L 566.125714 175.34485 
L 569.417143 177.076896 
L 570.363825 178.04561 
L 572.708571 179.801349 
L 576 182.937423 
L 576 182.937423 
" clip-path="url(#p57deecb78d)" style="fill: none"/>
    <path d="M 243.199466 0 
L 243.565714 0.287616 
L 246.857143 0.586843 
L 250.071617 0 
M 257.419589 0 
L 260.022857 1.69145 
L 261.808922 3.297141 
L 263.314286 4.380819 
L 269.412643 9.891423 
L 269.897143 10.279117 
L 273.188571 13.358459 
L 276.48 14.587115 
L 279.771429 15.466754 
L 283.086715 13.188564 
L 286.354286 12.310912 
L 287.418354 13.188564 
L 289.645714 14.438392 
L 291.968591 16.485705 
L 292.937143 17.132563 
L 299.52 23.11278 
L 304.950028 26.377127 
L 306.102857 26.748586 
L 309.394286 28.885584 
L 312.685714 28.826917 
L 315.977143 26.584417 
L 319.268571 27.844781 
L 321.402633 29.674268 
L 322.56 30.36702 
L 329.142857 36.286512 
L 332.434286 37.771067 
L 339.017143 40.577151 
L 342.308571 42.235316 
L 345.6 42.099447 
L 348.891429 41.696457 
L 350.290706 42.862832 
L 352.182857 43.827971 
L 354.777368 46.159973 
L 355.474286 46.611249 
L 358.765714 49.619077 
L 362.057143 52.497923 
L 362.54856 52.754255 
L 365.348571 53.678428 
L 368.862145 56.051396 
L 375.31975 59.348537 
L 378.514286 57.155019 
L 381.805714 57.523274 
L 383.811905 59.348537 
L 385.097143 60.061417 
L 394.971429 69.313442 
L 398.262857 70.055621 
L 401.060222 72.5371 
L 401.554286 72.781159 
L 404.845714 75.857735 
L 408.137143 75.989699 
L 408.333077 75.834241 
L 410.841824 72.5371 
L 411.428571 72.128429 
L 411.877839 72.5371 
L 414.72 73.639903 
L 416.999948 75.834241 
L 418.011429 76.452949 
L 424.255685 82.428523 
L 424.594286 82.691321 
L 427.885714 85.737713 
L 431.177143 87.201894 
L 433.068609 89.022805 
L 434.468571 89.902933 
L 436.944403 92.319946 
L 437.76 92.762837 
L 441.051429 92.6474 
L 441.386616 92.319946 
L 442.780866 89.022805 
L 444.342857 86.064515 
L 447.634286 87.171852 
L 449.501245 89.022805 
L 450.925714 89.919314 
L 453.337946 92.319946 
L 454.217143 92.960858 
L 460.103811 98.914228 
L 460.8 99.742979 
L 463.235436 102.211369 
L 464.091429 103.264985 
L 466.29949 105.50851 
L 467.382857 106.909757 
L 469.526381 108.80565 
L 470.674286 109.463718 
L 474.010085 108.80565 
L 475.03619 105.50851 
L 477.257143 103.960637 
L 478.843676 105.50851 
L 480.548571 106.814092 
L 482.578191 108.80565 
L 483.84 110.750337 
L 485.136072 112.102791 
L 486.982508 115.37579 
M 500.667434 128.723502 
L 503.588571 128.830795 
L 503.922262 128.588496 
L 506.88 127.045757 
L 508.657345 128.588496 
L 510.171429 129.608688 
L 512.707224 131.885637 
L 513.462857 132.7468 
L 516.148145 135.182778 
L 516.754286 135.898839 
L 522.261917 141.77706 
L 523.337143 143.123483 
L 525.186923 145.074201 
L 526.628571 146.968235 
L 529.047648 148.371342 
L 529.92 148.621269 
L 533.211429 147.977098 
L 533.691832 148.371342 
L 536.502857 149.661806 
L 538.731415 151.668483 
L 539.794286 152.332823 
L 549.668571 161.58612 
L 556.251429 168.156721 
L 559.542857 168.959347 
L 562.834286 167.767393 
L 563.331204 168.154187 
L 566.125714 170.868803 
L 566.931422 171.451328 
L 569.417143 174.872749 
L 572.708571 178.188426 
L 576 181.071313 
L 576 181.071313 
" clip-path="url(#p57deecb78d)" style="fill: none"/>
    <path d="M 266.219653 0 
L 266.605714 0.10971 
L 269.897143 1.544972 
L 273.188571 2.296834 
L 276.48 2.511098 
L 279.771429 3.02364 
L 280.37532 3.297141 
L 283.062857 4.50401 
L 286.354286 6.324841 
L 286.84822 6.594282 
L 289.645714 8.247997 
L 292.496372 9.891423 
L 292.937143 10.149297 
L 296.228571 12.144099 
L 298.24932 13.188564 
L 299.52 13.915871 
L 302.811429 14.748163 
L 306.102857 14.915774 
L 309.394286 14.936835 
L 312.685714 15.013127 
L 315.977143 16.120146 
L 316.466965 16.485705 
L 319.268571 18.694749 
L 320.781379 19.782846 
L 322.56 21.172369 
L 325.305114 23.079986 
L 325.851429 23.497993 
L 329.142857 25.449569 
L 330.861865 26.377127 
L 332.434286 27.234646 
L 335.725714 27.942966 
L 339.017143 28.092748 
L 342.308571 28.425724 
L 345.6 29.222735 
L 346.317857 29.674268 
L 348.891429 31.182786 
L 351.596028 32.971409 
L 352.182857 33.403637 
L 355.474286 35.342674 
L 356.887221 36.26855 
L 358.765714 37.403242 
L 360.771404 36.26855 
L 362.057143 35.589574 
L 363.335953 36.26855 
L 365.348571 37.572054 
L 368.64 38.552765 
L 371.931429 36.871392 
L 375.222857 36.294377 
L 378.514286 38.648228 
L 379.677928 39.565691 
L 381.805714 41.136637 
L 383.999469 42.862832 
L 385.097143 43.763995 
L 387.885591 46.159973 
L 388.388571 46.59216 
L 391.68 48.073701 
L 394.971429 48.260953 
L 398.262857 49.046435 
L 399.099045 49.457114 
L 401.554286 50.745831 
L 404.845714 51.208124 
L 408.137143 52.230595 
L 408.780416 52.754255 
L 411.428571 54.737495 
L 413.18298 56.051396 
L 414.72 57.202491 
L 417.399137 59.348537 
L 418.011429 59.854049 
L 421.302857 62.436961 
L 422.74061 62.645678 
L 424.594286 62.942039 
L 426.703268 62.645678 
L 427.885714 62.432314 
L 431.177143 62.360163 
L 431.754954 62.645678 
L 434.468571 64.103172 
L 437.76 65.752376 
L 437.986524 65.942818 
L 441.051429 68.266294 
L 442.322324 69.239959 
L 444.342857 70.78251 
L 446.641132 72.5371 
L 447.634286 73.32679 
L 450.184787 75.834241 
L 450.925714 76.607516 
L 454.217143 78.51298 
L 457.508571 77.565437 
L 460.8 76.881331 
L 464.091429 76.225271 
L 467.382857 78.097719 
L 468.50375 79.131382 
L 470.674286 80.70073 
L 472.513616 82.428523 
L 473.965714 83.57631 
L 476.229982 85.725664 
L 477.257143 86.596145 
L 479.796688 89.022805 
L 480.548571 89.758714 
L 483.25673 92.319946 
L 483.84 92.917097 
L 487.131429 94.50438 
L 490.422857 93.337734 
L 493.714286 92.654955 
L 497.005714 92.376351 
L 500.297143 94.264396 
L 501.652392 95.617087 
L 503.588571 96.982463 
L 505.521929 98.914228 
L 506.88 99.961648 
L 509.130262 102.211369 
L 510.171429 103.085621 
L 512.619368 105.50851 
L 513.462857 106.32906 
L 516.061461 108.80565 
L 516.754286 109.465944 
L 520.045714 111.960405 
L 523.337143 111.109107 
L 526.628571 111.857005 
L 526.869025 112.102791 
L 529.92 114.312216 
L 530.990357 115.399932 
L 533.050225 117.020688 
M 546.925488 130.10432 
L 549.552054 131.885637 
L 549.668571 131.998979 
L 552.96 131.991035 
L 553.443137 131.885637 
L 556.251429 131.670369 
L 556.468333 131.885637 
L 559.542857 134.93073 
L 559.796817 135.182778 
L 562.790799 138.479919 
L 562.834286 138.508882 
L 565.786175 141.77706 
L 566.125714 142.033652 
L 568.957591 145.074201 
L 569.417143 145.476241 
L 572.251204 148.371342 
L 572.708571 148.824026 
L 575.638077 151.668483 
L 576 152.022037 
M 362.057143 39.622215 
L 362.167163 39.565691 
L 362.057143 39.312321 
L 361.967492 39.565691 
L 362.057143 39.622215 
z
" clip-path="url(#p57deecb78d)" style="fill: none"/>
    <path d="M 302.524957 0 
L 303.951282 0.84378 
M 320.894746 8.917281 
L 322.56 8.950383 
L 326.719977 6.594282 
L 328.060008 3.297141 
L 329.142857 2.968233 
L 329.52451 3.297141 
L 332.434286 4.985839 
L 334.206675 6.594282 
L 335.725714 7.633441 
L 338.151829 9.891423 
L 339.017143 10.537674 
L 342.308571 13.56051 
L 345.6 15.308456 
L 347.228101 16.485705 
L 348.891429 17.200149 
L 352.182857 19.903489 
L 352.584055 19.782846 
L 353.498603 16.485705 
L 355.474286 14.744026 
L 358.765714 13.517453 
L 362.057143 13.587266 
L 365.348571 15.182666 
L 367.045554 16.485705 
L 368.64 17.472709 
L 371.931429 20.08977 
L 375.222857 20.890483 
L 378.514286 20.4255 
L 381.805714 19.508728 
L 385.097143 20.162623 
L 388.388571 21.404115 
L 391.87659 23.079986 
L 394.971429 24.06479 
L 398.262857 25.624394 
L 400.919209 23.079986 
L 401.554286 20.23272 
L 402.516859 19.782846 
L 403.112466 16.485705 
L 401.554286 12.675801 
L 400.706356 9.891423 
L 401.554286 9.322357 
L 402.446162 9.891423 
L 404.845714 11.671407 
L 408.137143 13.652287 
L 412.025111 16.485705 
L 418.011429 21.274532 
L 421.302857 23.626984 
L 424.594286 25.393694 
L 427.885714 24.194887 
L 428.855685 23.079986 
L 431.177143 22.726332 
L 434.468571 23.399804 
L 438.287845 26.377127 
L 444.342857 31.341046 
L 446.470347 32.971409 
L 447.634286 34.017578 
L 450.925714 36.435077 
L 454.217143 37.156304 
L 457.508571 38.595195 
L 460.8 38.71761 
L 464.091429 37.616136 
L 467.382857 38.762529 
L 468.287537 39.565691 
L 470.674286 41.844569 
L 472.011376 42.862832 
L 473.965714 44.706918 
L 476.023834 46.159973 
L 477.257143 47.301409 
L 480.548571 49.253214 
L 483.84 50.094801 
L 487.131429 51.912222 
L 489.146231 52.754255 
L 490.422857 53.466401 
L 493.714286 53.012795 
L 494.642244 52.754255 
L 497.005714 52.565992 
L 497.376034 52.754255 
L 500.297143 54.494626 
L 503.588571 57.534458 
L 510.171429 62.807176 
L 516.754286 65.500324 
L 520.045714 67.664581 
L 523.337143 68.967012 
L 526.628571 67.429517 
L 529.92 68.050621 
L 533.211429 69.505277 
L 536.502857 73.112466 
L 539.794286 76.679024 
L 543.085714 79.728472 
L 546.377143 81.835856 
L 549.668571 82.899199 
L 552.96 84.831184 
L 555.216561 85.725664 
L 556.251429 86.290715 
L 559.542857 87.375171 
L 563.126971 89.022805 
L 566.875648 92.319946 
L 569.417143 94.868961 
L 570.468654 95.617087 
L 572.708571 97.864757 
L 574.480254 98.914228 
L 576 100.441058 
L 576 100.441058 
" clip-path="url(#p57deecb78d)" style="fill: none"/>
    <path d="M 412.094013 0 
L 414.72 1.867901 
L 416.871965 3.297141 
L 418.011429 4.100356 
L 421.302857 5.981318 
L 423.158018 6.594282 
L 424.594286 7.114175 
L 427.885714 7.866803 
L 431.177143 9.047434 
L 432.632247 9.891423 
L 434.468571 10.820228 
L 437.76 12.724354 
L 439.135342 13.188564 
L 441.051429 13.811223 
L 444.342857 15.791671 
L 445.259543 16.485705 
L 447.634286 18.205972 
L 449.737876 19.782846 
L 450.925714 20.651404 
L 454.217143 22.551877 
L 457.508362 23.079986 
L 457.508571 23.080022 
L 457.508739 23.079986 
L 460.8 22.60532 
L 461.536735 23.079986 
L 464.091429 24.41156 
L 466.849902 26.377127 
L 467.382857 26.750104 
L 470.674286 28.558278 
L 473.262793 29.674268 
L 473.965714 29.971988 
L 477.257143 32.14349 
L 478.41487 32.971409 
L 480.548571 34.399929 
L 483.096425 36.26855 
L 483.84 36.771294 
L 487.131429 38.472619 
L 490.422857 39.069837 
L 493.714286 38.827913 
L 494.921498 39.565691 
L 497.005714 40.55912 
L 498.649003 41.701085 
M 515.141329 51.223116 
L 516.754286 52.239648 
L 517.627081 52.754255 
L 520.045714 54.325791 
L 523.19716 56.051396 
L 523.337143 56.134552 
L 524.297082 56.051396 
L 526.628571 55.605649 
L 527.843413 56.051396 
L 529.92 56.597812 
L 533.211429 58.746235 
L 533.881646 59.348537 
L 536.502857 61.337001 
L 537.987694 62.645678 
L 539.794286 64.323366 
L 541.718982 65.942818 
L 543.085714 67.225133 
L 545.533992 69.239959 
L 546.377143 69.847323 
L 549.568412 72.5371 
L 549.668571 72.607895 
L 552.96 74.142333 
L 556.251429 74.651789 
L 559.542857 75.089455 
L 560.444265 75.834241 
L 562.834286 77.460044 
L 564.783919 79.131382 
L 566.125714 80.281646 
L 568.572557 82.428523 
L 569.417143 83.153456 
L 572.462286 85.725664 
L 572.708571 85.936366 
L 576 88.798438 
" clip-path="url(#p57deecb78d)" style="fill: none"/>
    <path d="M 453.556606 0 
L 454.217143 0.519608 
L 457.460535 3.297141 
L 457.508571 3.35842 
L 460.8 6.200332 
L 461.188916 6.594282 
L 463.995974 9.891423 
L 464.091429 10.044437 
L 466.842931 13.188564 
L 467.382857 13.853866 
L 469.664 16.485705 
L 470.674286 17.186452 
L 473.049506 19.782846 
L 473.965714 20.607573 
L 477.257143 20.698405 
L 479.072002 19.782846 
L 480.548571 18.437623 
L 482.300981 16.485705 
L 483.84 15.452209 
L 485.050752 16.485705 
L 487.131429 17.386553 
L 489.59085 19.665446 
M 502.776395 33.455903 
L 503.588571 34.598093 
L 505.185979 36.26855 
L 506.88 38.21212 
L 510.171429 37.858787 
L 513.462857 37.111246 
L 516.754286 38.426862 
L 518.148756 39.565691 
L 520.045714 40.687964 
L 522.552263 42.862832 
L 523.337143 43.396723 
L 526.418937 46.159973 
L 526.628571 46.314545 
L 529.92 49.010554 
L 530.459135 49.457114 
L 533.211429 51.486285 
L 534.707823 52.754255 
L 536.502857 54.124676 
L 538.736384 56.051396 
L 539.794286 56.8528 
L 543.085714 56.091084 
L 544.661848 56.051396 
L 546.377143 56.02514 
L 546.428944 56.051396 
L 549.668571 57.693449 
L 551.101551 59.348537 
L 552.96 60.65181 
L 554.732743 62.645678 
L 556.251429 63.846269 
L 558.387861 65.942818 
L 559.542857 66.948118 
L 562.057313 69.239959 
L 562.834286 70.089774 
L 565.51053 72.5371 
L 566.125714 73.222299 
L 568.879765 75.834241 
L 569.417143 76.44469 
L 572.708571 77.736423 
L 576 77.462814 
" clip-path="url(#p57deecb78d)" style="fill: none"/>
    <path d="M 529.353061 0 
L 529.92 0.359892 
L 531.523451 1.15472 
M 547.966409 10.800763 
L 549.668571 11.863627 
L 552.062734 13.188564 
L 552.96 13.703445 
L 556.251429 15.541978 
L 557.617775 16.485705 
L 559.542857 17.75637 
L 562.289249 19.782846 
L 562.834286 20.204918 
L 566.125714 22.455967 
L 567.178366 23.079986 
L 569.417143 24.372187 
L 572.708571 26.327895 
L 572.778826 26.377127 
L 576 28.54741 
" clip-path="url(#p57deecb78d)" style="fill: none"/>
    <path clip-path="url(#p57deecb78d)" style="fill: none"/>
    <path clip-path="url(#p57deecb78d)" style="fill: none"/>
    <path clip-path="url(#p57deecb78d)" style="fill: none"/>
    <path clip-path="url(#p57deecb78d)" style="fill: none"/>
    <path clip-path="url(#p57deecb78d)" style="fill: none"/>
    <path clip-path="url(#p57deecb78d)" style="fill: none"/>
    <path clip-path="url(#p57deecb78d)" style="fill: none"/>
    <path clip-path="url(#p57deecb78d)" style="fill: none"/>
    <path clip-path="url(#p57deecb78d)" style="fill: none"/>
    <path clip-path="url(#p57deecb78d)" style="fill: none"/>
    <path clip-path="url(#p57deecb78d)" style="fill: none"/>
    <path clip-path="url(#p57deecb78d)" style="fill: none"/>
    <path clip-path="url(#p57deecb78d)" style="fill: none"/>
    <path clip-path="url(#p57deecb78d)" style="fill: none"/>
    <path clip-path="url(#p57deecb78d)" style="fill: none"/>
    <path clip-path="url(#p57deecb78d)" style="fill: none"/>
    <path clip-path="url(#p57deecb78d)" style="fill: none"/>
    <path clip-path="url(#p57deecb78d)" style="fill: none"/>
    <path clip-path="url(#p57deecb78d)" style="fill: none"/>
    <path clip-path="url(#p57deecb78d)" style="fill: none"/>
    <path clip-path="url(#p57deecb78d)" style="fill: none"/>
    <path clip-path="url(#p57deecb78d)" style="fill: none"/>
    <path clip-path="url(#p57deecb78d)" style="fill: none"/>
    <path clip-path="url(#p57deecb78d)" style="fill: none"/>
    <path clip-path="url(#p57deecb78d)" style="fill: none"/>
    <path clip-path="url(#p57deecb78d)" style="fill: none"/>
    <path clip-path="url(#p57deecb78d)" style="fill: none"/>
    <path clip-path="url(#p57deecb78d)" style="fill: none"/>
    <path clip-path="url(#p57deecb78d)" style="fill: none"/>
    <path clip-path="url(#p57deecb78d)" style="fill: none"/>
   </g>
   <g id="text_1">
    <g clip-path="url(#p57deecb78d)">
     <!-- 0 -->
     <g style="opacity: 0" transform="translate(501.839694 137.980632) rotate(-323.200424) scale(0.12 -0.12)">
      <defs>
       <path id="DejaVuSans-30" d="M 2034 4250 
Q 1547 4250 1301 3770 
Q 1056 3291 1056 2328 
Q 1056 1369 1301 889 
Q 1547 409 2034 409 
Q 2525 409 2770 889 
Q 3016 1369 3016 2328 
Q 3016 3291 2770 3770 
Q 2525 4250 2034 4250 
z
M 2034 4750 
Q 2819 4750 3233 4129 
Q 3647 3509 3647 2328 
Q 3647 1150 3233 529 
Q 2819 -91 2034 -91 
Q 1250 -91 836 529 
Q 422 1150 422 2328 
Q 422 3509 836 4129 
Q 1250 4750 2034 4750 
z
" transform="scale(0.015625)"/>
      </defs>
      <use xlink:href="#DejaVuSans-30"/>
     </g>
    </g>
   </g>
   <g id="text_2">
    <g clip-path="url(#p57deecb78d)">
     <!-- 1 -->
     <g style="opacity: 0" transform="translate(468.987853 115.693362) rotate(-328.986496) scale(0.12 -0.12)">
      <defs>
       <path id="DejaVuSans-31" d="M 794 531 
L 1825 531 
L 1825 4091 
L 703 3866 
L 703 4441 
L 1819 4666 
L 2450 4666 
L 2450 531 
L 3481 531 
L 3481 0 
L 794 0 
L 794 531 
z
" transform="scale(0.015625)"/>
      </defs>
      <use xlink:href="#DejaVuSans-31"/>
     </g>
    </g>
   </g>
   <g id="text_3">
    <g clip-path="url(#p57deecb78d)">
     <!-- 2 -->
     <g style="opacity: 0" transform="translate(517.312 144.74163) rotate(-315.288684) scale(0.12 -0.12)">
      <defs>
       <path id="DejaVuSans-32" d="M 1228 531 
L 3431 531 
L 3431 0 
L 469 0 
L 469 531 
Q 828 903 1448 1529 
Q 2069 2156 2228 2338 
Q 2531 2678 2651 2914 
Q 2772 3150 2772 3378 
Q 2772 3750 2511 3984 
Q 2250 4219 1831 4219 
Q 1534 4219 1204 4116 
Q 875 4013 500 3803 
L 500 4441 
Q 881 4594 1212 4672 
Q 1544 4750 1819 4750 
Q 2544 4750 2975 4387 
Q 3406 4025 3406 3419 
Q 3406 3131 3298 2873 
Q 3191 2616 2906 2266 
Q 2828 2175 2409 1742 
Q 1991 1309 1228 531 
z
" transform="scale(0.015625)"/>
      </defs>
      <use xlink:href="#DejaVuSans-32"/>
     </g>
    </g>
   </g>
   <g id="text_4">
    <g clip-path="url(#p57deecb78d)">
     <!-- 3 -->
     <g style="opacity: 0" transform="translate(488.673576 121.871284) rotate(-314.987555) scale(0.12 -0.12)">
      <defs>
       <path id="DejaVuSans-33" d="M 2597 2516 
Q 3050 2419 3304 2112 
Q 3559 1806 3559 1356 
Q 3559 666 3084 287 
Q 2609 -91 1734 -91 
Q 1441 -91 1130 -33 
Q 819 25 488 141 
L 488 750 
Q 750 597 1062 519 
Q 1375 441 1716 441 
Q 2309 441 2620 675 
Q 2931 909 2931 1356 
Q 2931 1769 2642 2001 
Q 2353 2234 1838 2234 
L 1294 2234 
L 1294 2753 
L 1863 2753 
Q 2328 2753 2575 2939 
Q 2822 3125 2822 3475 
Q 2822 3834 2567 4026 
Q 2313 4219 1838 4219 
Q 1578 4219 1281 4162 
Q 984 4106 628 3988 
L 628 4550 
Q 988 4650 1302 4700 
Q 1616 4750 1894 4750 
Q 2613 4750 3031 4423 
Q 3450 4097 3450 3541 
Q 3450 3153 3228 2886 
Q 3006 2619 2597 2516 
z
" transform="scale(0.015625)"/>
      </defs>
      <use xlink:href="#DejaVuSans-33"/>
     </g>
    </g>
   </g>
   <g id="text_5">
    <g clip-path="url(#p57deecb78d)">
     <!-- 4 -->
     <g style="opacity: 0" transform="translate(534.749672 123.485781) rotate(-315.667103) scale(0.12 -0.12)">
      <defs>
       <path id="DejaVuSans-34" d="M 2419 4116 
L 825 1625 
L 2419 1625 
L 2419 4116 
z
M 2253 4666 
L 3047 4666 
L 3047 1625 
L 3713 1625 
L 3713 1100 
L 3047 1100 
L 3047 0 
L 2419 0 
L 2419 1100 
L 313 1100 
L 313 1709 
L 2253 4666 
z
" transform="scale(0.015625)"/>
      </defs>
      <use xlink:href="#DejaVuSans-34"/>
     </g>
    </g>
   </g>
   <g id="text_6">
    <g clip-path="url(#p57deecb78d)">
     <!-- 5 -->
     <g style="opacity: 0" transform="translate(307.776837 5.714711) rotate(-332.801677) scale(0.12 -0.12)">
      <defs>
       <path id="DejaVuSans-35" d="M 691 4666 
L 3169 4666 
L 3169 4134 
L 1269 4134 
L 1269 2991 
Q 1406 3038 1543 3061 
Q 1681 3084 1819 3084 
Q 2600 3084 3056 2656 
Q 3513 2228 3513 1497 
Q 3513 744 3044 326 
Q 2575 -91 1722 -91 
Q 1428 -91 1123 -41 
Q 819 9 494 109 
L 494 744 
Q 775 591 1075 516 
Q 1375 441 1709 441 
Q 2250 441 2565 725 
Q 2881 1009 2881 1497 
Q 2881 1984 2565 2268 
Q 2250 2553 1709 2553 
Q 1456 2553 1204 2497 
Q 953 2441 691 2322 
L 691 4666 
z
" transform="scale(0.015625)"/>
      </defs>
      <use xlink:href="#DejaVuSans-35"/>
     </g>
    </g>
   </g>
   <g id="text_7">
    <g clip-path="url(#p57deecb78d)">
     <!-- 6 -->
     <g style="opacity: 0" transform="translate(502.111542 47.200098) rotate(-330.939764) scale(0.12 -0.12)">
      <defs>
       <path id="DejaVuSans-36" d="M 2113 2584 
Q 1688 2584 1439 2293 
Q 1191 2003 1191 1497 
Q 1191 994 1439 701 
Q 1688 409 2113 409 
Q 2538 409 2786 701 
Q 3034 994 3034 1497 
Q 3034 2003 2786 2293 
Q 2538 2584 2113 2584 
z
M 3366 4563 
L 3366 3988 
Q 3128 4100 2886 4159 
Q 2644 4219 2406 4219 
Q 1781 4219 1451 3797 
Q 1122 3375 1075 2522 
Q 1259 2794 1537 2939 
Q 1816 3084 2150 3084 
Q 2853 3084 3261 2657 
Q 3669 2231 3669 1497 
Q 3669 778 3244 343 
Q 2819 -91 2113 -91 
Q 1303 -91 875 529 
Q 447 1150 447 2328 
Q 447 3434 972 4092 
Q 1497 4750 2381 4750 
Q 2619 4750 2861 4703 
Q 3103 4656 3366 4563 
z
" transform="scale(0.015625)"/>
      </defs>
      <use xlink:href="#DejaVuSans-36"/>
     </g>
    </g>
   </g>
   <g id="text_8">
    <g clip-path="url(#p57deecb78d)">
     <!-- 7 -->
     <g style="opacity: 0" transform="translate(441.247728 7.668496) rotate(-11.293413) scale(0.12 -0.12)">
      <defs>
       <path id="DejaVuSans-37" d="M 525 4666 
L 3525 4666 
L 3525 4397 
L 1831 0 
L 1172 0 
L 2766 4134 
L 525 4134 
L 525 4666 
z
" transform="scale(0.015625)"/>
      </defs>
      <use xlink:href="#DejaVuSans-37"/>
     </g>
    </g>
   </g>
   <g id="text_9">
    <g clip-path="url(#p57deecb78d)">
     <!-- 7 -->
     <g style="opacity: 0" transform="translate(491.346288 25.900603) rotate(-313.65124) scale(0.12 -0.12)">
      <use xlink:href="#DejaVuSans-37"/>
     </g>
    </g>
   </g>
   <g id="text_10">
    <g clip-path="url(#p57deecb78d)">
     <!-- 8 -->
     <g style="opacity: 0" transform="translate(534.810674 6.723281) rotate(-328.600766) scale(0.12 -0.12)">
      <defs>
       <path id="DejaVuSans-38" d="M 2034 2216 
Q 1584 2216 1326 1975 
Q 1069 1734 1069 1313 
Q 1069 891 1326 650 
Q 1584 409 2034 409 
Q 2484 409 2743 651 
Q 3003 894 3003 1313 
Q 3003 1734 2745 1975 
Q 2488 2216 2034 2216 
z
M 1403 2484 
Q 997 2584 770 2862 
Q 544 3141 544 3541 
Q 544 4100 942 4425 
Q 1341 4750 2034 4750 
Q 2731 4750 3128 4425 
Q 3525 4100 3525 3541 
Q 3525 3141 3298 2862 
Q 3072 2584 2669 2484 
Q 3125 2378 3379 2068 
Q 3634 1759 3634 1313 
Q 3634 634 3220 271 
Q 2806 -91 2034 -91 
Q 1263 -91 848 271 
Q 434 634 434 1313 
Q 434 1759 690 2068 
Q 947 2378 1403 2484 
z
M 1172 3481 
Q 1172 3119 1398 2916 
Q 1625 2713 2034 2713 
Q 2441 2713 2670 2916 
Q 2900 3119 2900 3481 
Q 2900 3844 2670 4047 
Q 2441 4250 2034 4250 
Q 1625 4250 1398 4047 
Q 1172 3844 1172 3481 
z
" transform="scale(0.015625)"/>
      </defs>
      <use xlink:href="#DejaVuSans-38"/>
     </g>
    </g>
   </g>
  </g>
 </g>
 <defs>
  <clipPath id="p57deecb78d">
   <rect x="0" y="0" width="576" height="820.98809"/>
  </clipPath>
 </defs>
</svg>
