<?xml version="1.0" encoding="utf-8" standalone="no"?>
<!DOCTYPE svg PUBLIC "-//W3C//DTD SVG 1.1//EN"
  "http://www.w3.org/Graphics/SVG/1.1/DTD/svg11.dtd">
<svg xmlns:xlink="http://www.w3.org/1999/xlink" width="576pt" height="815.512706pt" viewBox="0 0 576 815.512706" xmlns="http://www.w3.org/2000/svg" version="1.1">
 <metadata>
  <rdf:RDF xmlns:dc="http://purl.org/dc/elements/1.1/" xmlns:cc="http://creativecommons.org/ns#" xmlns:rdf="http://www.w3.org/1999/02/22-rdf-syntax-ns#">
   <cc:Work>
    <dc:type rdf:resource="http://purl.org/dc/dcmitype/StillImage"/>
    <dc:date>2025-07-25T22:44:49.958824</dc:date>
    <dc:format>image/svg+xml</dc:format>
    <dc:creator>
     <cc:Agent>
      <dc:title>Matplotlib v3.10.3, https://matplotlib.org/</dc:title>
     </cc:Agent>
    </dc:creator>
   </cc:Work>
  </rdf:RDF>
 </metadata>
 <defs>
  <style type="text/css">*{stroke-linejoin: round; stroke-linecap: butt}</style>
 </defs>
 <g id="figure_1">
  <g id="patch_1">
   <path d="M 0 815.512706 
L 576 815.512706 
L 576 0 
L 0 0 
L 0 815.512706 
z
" style="fill: none; opacity: 0"/>
  </g>
  <g id="axes_1">
   <g id="QuadContourSet_1">
    <path d="M 3.272727 815.512706 
L 6.545455 815.512706 
L 9.818182 815.512706 
L 13.090909 815.512706 
L 16.363636 815.512706 
L 19.636364 815.512706 
L 22.909091 815.512706 
L 26.181818 815.512706 
L 29.454545 815.512706 
L 32.727273 815.512706 
L 36 815.512706 
L 39.272727 815.512706 
L 42.545455 815.512706 
L 45.818182 815.512706 
L 49.090909 815.512706 
L 52.363636 815.512706 
L 55.636364 815.512706 
L 58.909091 815.512706 
L 62.181818 815.512706 
L 65.454545 815.512706 
L 68.727273 815.512706 
L 72 815.512706 
L 75.272727 815.512706 
L 78.545455 815.512706 
L 81.818182 815.512706 
L 85.090909 815.512706 
L 88.363636 815.512706 
L 91.636364 815.512706 
L 94.909091 815.512706 
L 98.181818 815.512706 
L 101.454545 815.512706 
L 104.727273 815.512706 
L 108 815.512706 
L 111.272727 815.512706 
L 114.545455 815.512706 
L 117.818182 815.512706 
L 121.090909 815.512706 
L 124.363636 815.512706 
L 127.636364 815.512706 
L 130.909091 815.512706 
L 134.181818 815.512706 
L 137.454545 815.512706 
L 140.727273 815.512706 
L 144 815.512706 
L 147.272727 815.512706 
L 150.545455 815.512706 
L 153.818182 815.512706 
L 157.090909 815.512706 
L 160.363636 815.512706 
L 163.636364 815.512706 
L 166.909091 815.512706 
L 170.181818 815.512706 
L 173.454545 815.512706 
L 176.727273 815.512706 
L 180 815.512706 
L 183.272727 815.512706 
L 186.545455 815.512706 
L 189.818182 815.512706 
L 193.090909 815.512706 
L 196.363636 815.512706 
L 199.636364 815.512706 
L 202.909091 815.512706 
L 206.181818 815.512706 
L 209.454545 815.512706 
L 212.727273 815.512706 
L 216 815.512706 
L 219.272727 815.512706 
L 222.545455 815.512706 
L 225.818182 815.512706 
L 229.090909 815.512706 
L 232.363636 815.512706 
L 235.636364 815.512706 
L 238.909091 815.512706 
L 242.181818 815.512706 
L 245.454545 815.512706 
L 248.727273 815.512706 
L 252 815.512706 
L 255.272727 815.512706 
L 258.545455 815.512706 
L 261.818182 815.512706 
L 265.090909 815.512706 
L 268.363636 815.512706 
L 271.636364 815.512706 
L 274.909091 815.512706 
L 278.181818 815.512706 
L 281.454545 815.512706 
L 284.727273 815.512706 
L 288 815.512706 
L 291.272727 815.512706 
L 294.545455 815.512706 
L 297.818182 815.512706 
L 301.090909 815.512706 
L 304.363636 815.512706 
L 307.636364 815.512706 
L 310.909091 815.512706 
L 314.181818 815.512706 
L 317.454545 815.512706 
L 320.727273 815.512706 
L 324 815.512706 
L 327.272727 815.512706 
L 330.545455 815.512706 
L 333.818182 815.512706 
L 337.090909 815.512706 
L 340.363636 815.512706 
L 343.636364 815.512706 
L 346.909091 815.512706 
L 350.181818 815.512706 
L 353.454545 815.512706 
L 356.727273 815.512706 
L 360 815.512706 
L 363.272727 815.512706 
L 366.545455 815.512706 
L 369.818182 815.512706 
L 373.090909 815.512706 
L 376.363636 815.512706 
L 379.636364 815.512706 
L 382.909091 815.512706 
L 386.181818 815.512706 
L 389.454545 815.512706 
L 392.727273 815.512706 
L 396 815.512706 
L 399.272727 815.512706 
L 402.545455 815.512706 
L 405.818182 815.512706 
L 409.090909 815.512706 
L 412.363636 815.512706 
L 415.636364 815.512706 
L 418.909091 815.512706 
L 422.181818 815.512706 
L 425.454545 815.512706 
L 428.727273 815.512706 
L 432 815.512706 
L 435.272727 815.512706 
L 438.545455 815.512706 
L 441.818182 815.512706 
L 445.090909 815.512706 
L 448.363636 815.512706 
L 451.636364 815.512706 
L 454.909091 815.512706 
L 458.181818 815.512706 
L 461.454545 815.512706 
L 464.727273 815.512706 
L 468 815.512706 
L 471.272727 815.512706 
L 474.545455 815.512706 
L 477.818182 815.512706 
L 481.090909 815.512706 
L 484.363636 815.512706 
L 487.636364 815.512706 
L 490.909091 815.512706 
L 494.181818 815.512706 
L 497.454545 815.512706 
L 500.727273 815.512706 
L 504 815.512706 
L 507.272727 815.512706 
L 510.545455 815.512706 
L 513.818182 815.512706 
L 517.090909 815.512706 
L 520.363636 815.512706 
L 523.636364 815.512706 
L 526.909091 815.512706 
L 530.181818 815.512706 
L 533.454545 815.512706 
L 536.727273 815.512706 
L 540 815.512706 
L 543.272727 815.512706 
L 546.545455 815.512706 
L 549.818182 815.512706 
L 553.090909 815.512706 
L 556.363636 815.512706 
L 559.636364 815.512706 
L 562.909091 815.512706 
L 566.181818 815.512706 
L 569.454545 815.512706 
L 572.727273 815.512706 
L 576 815.512706 
L 576 812.237555 
L 576 808.962403 
L 576 805.687252 
L 576 802.412101 
L 576 799.136949 
L 576 795.861798 
L 576 792.586646 
L 576 789.311495 
L 576 786.036343 
L 576 782.761192 
L 576 779.486041 
L 576 776.210889 
L 576 772.935738 
L 576 769.660586 
L 576 766.385435 
L 576 763.110283 
L 576 759.835132 
L 576 756.559981 
L 576 753.284829 
L 576 750.009678 
L 576 746.734526 
L 576 743.459375 
L 576 740.184223 
L 576 736.909072 
L 576 733.633921 
L 576 730.358769 
L 576 727.083618 
L 576 723.808466 
L 576 720.533315 
L 576 717.258163 
L 576 713.983012 
L 576 710.707861 
L 576 707.432709 
L 576 704.157558 
L 576 700.882406 
L 576 697.607255 
L 576 694.332103 
L 576 691.056952 
L 576 687.781801 
L 576 684.506649 
L 576 681.231498 
L 576 677.956346 
L 576 674.681195 
L 576 671.406043 
L 576 668.130892 
L 576 664.855741 
L 576 661.580589 
L 576 658.305438 
L 576 655.030286 
L 576 651.755135 
L 576 648.479983 
L 576 645.204832 
L 576 641.92968 
L 576 638.654529 
L 576 635.379378 
L 576 632.104226 
L 576 628.829075 
L 576 625.553923 
L 576 622.278772 
L 576 619.00362 
L 576 615.728469 
L 576 612.453318 
L 576 609.178166 
L 576 605.903015 
L 576 602.627863 
L 576 599.352712 
L 576 596.07756 
L 576 592.802409 
L 576 589.527258 
L 576 586.252106 
L 576 582.976955 
L 576 579.701803 
L 576 576.426652 
L 576 573.1515 
L 576 569.876349 
L 576 566.601198 
L 576 563.326046 
L 576 560.050895 
L 576 556.775743 
L 576 553.500592 
L 576 550.22544 
L 576 546.950289 
L 576 543.675138 
L 576 540.399986 
L 576 537.124835 
L 576 533.849683 
L 576 530.574532 
L 576 527.29938 
L 576 524.024229 
L 576 520.749078 
L 576 517.473926 
L 576 514.198775 
L 576 510.923623 
L 576 507.648472 
L 576 504.37332 
L 576 501.098169 
L 576 497.823018 
L 576 494.547866 
L 576 491.272715 
L 576 487.997563 
L 576 484.722412 
L 576 481.44726 
L 576 478.172109 
L 576 474.896958 
L 576 471.621806 
L 576 468.346655 
L 576 465.071503 
L 576 461.796352 
L 576 458.5212 
L 576 455.246049 
L 576 451.970897 
L 576 448.695746 
L 576 445.420595 
L 576 442.145443 
L 576 438.870292 
L 576 435.59514 
L 576 432.319989 
L 576 429.044837 
L 576 425.769686 
L 576 422.494535 
L 576 419.219383 
L 576 415.944232 
L 576 412.66908 
L 576 409.393929 
L 576 406.118777 
L 576 402.843626 
L 576 399.568475 
L 576 396.293323 
L 576 393.018172 
L 576 389.74302 
L 576 386.467869 
L 576 383.192717 
L 576 379.917566 
L 576 376.642415 
L 576 373.367263 
L 576 370.092112 
L 576 366.81696 
L 576 363.541809 
L 576 360.266657 
L 576 356.991506 
L 576 353.716355 
L 576 350.441203 
L 576 347.166052 
L 576 343.8909 
L 576 340.615749 
L 576 337.340597 
L 576 334.065446 
L 576 330.790295 
L 576 327.515143 
L 576 324.239992 
L 576 320.96484 
L 576 317.689689 
L 576 314.414537 
L 576 311.139386 
L 576 307.864235 
L 576 304.589083 
L 576 301.313932 
L 576 298.03878 
L 576 294.763629 
L 576 291.488477 
L 576 288.213326 
L 576 284.938175 
L 576 281.663023 
L 576 278.387872 
L 576 275.11272 
L 576 271.837569 
L 576 268.562417 
L 576 265.287266 
L 576 262.012114 
L 576 258.736963 
L 576 255.461812 
L 576 252.18666 
L 576 248.911509 
L 576 245.636357 
L 576 242.361206 
L 576 239.086054 
L 576 235.810903 
L 576 232.535752 
L 576 229.2606 
L 576 225.985449 
L 576 222.710297 
L 576 219.435146 
L 576 216.159994 
L 576 212.884843 
L 576 209.609692 
L 576 206.33454 
L 576 203.059389 
L 576 199.784237 
L 576 196.509086 
L 576 193.233934 
L 576 189.958783 
L 576 186.683632 
L 576 183.40848 
L 576 180.133329 
L 576 176.858177 
L 576 173.583026 
L 576 170.307874 
L 576 167.032723 
L 576 163.757572 
L 576 160.48242 
L 576 157.207269 
L 576 153.932117 
L 576 150.656966 
L 576 147.381814 
L 576 144.106663 
L 576 140.831512 
L 576 137.55636 
L 576 134.281209 
L 576 131.006057 
L 576 127.730906 
L 576 124.455754 
L 576 121.180603 
L 576 117.905452 
L 576 114.6303 
L 576 111.355149 
L 576 108.079997 
L 576 104.804846 
L 576 101.529694 
L 576 98.254543 
L 576 94.979392 
L 576 91.70424 
L 576 88.429089 
L 576 85.153937 
L 576 81.878786 
L 576 78.603634 
L 576 75.328483 
L 576 72.053331 
L 576 68.77818 
L 576 65.503029 
L 576 62.227877 
L 576 58.952726 
L 576 55.677574 
L 576 52.402423 
L 576 49.127271 
L 576 45.85212 
L 576 42.576969 
L 576 39.301817 
L 576 36.026666 
L 576 32.751514 
L 576 29.476363 
L 576 26.201211 
L 576 22.92606 
L 576 19.650909 
L 576 16.375757 
L 576 13.100606 
L 576 9.825454 
L 576 6.550303 
L 576 3.275151 
L 576 -0 
L 572.727273 -0 
L 569.454545 -0 
L 566.181818 -0 
L 562.909091 -0 
L 559.636364 -0 
L 556.363636 -0 
L 553.090909 -0 
L 549.818182 -0 
L 546.545455 -0 
L 543.272727 -0 
L 540 -0 
L 536.727273 -0 
L 533.454545 -0 
L 530.181818 -0 
L 526.909091 -0 
L 523.636364 -0 
L 520.363636 -0 
L 517.090909 -0 
L 513.818182 -0 
L 510.545455 -0 
L 507.272727 -0 
L 504 -0 
L 500.727273 -0 
L 497.454545 -0 
L 494.181818 -0 
L 490.909091 -0 
L 487.636364 -0 
L 484.363636 -0 
L 481.090909 -0 
L 477.818182 -0 
L 474.545455 -0 
L 471.272727 -0 
L 468 -0 
L 464.727273 -0 
L 461.454545 -0 
L 458.181818 -0 
L 454.909091 -0 
L 451.636364 -0 
L 448.363636 -0 
L 445.090909 -0 
L 441.818182 -0 
L 438.545455 -0 
L 435.272727 -0 
L 432 -0 
L 428.727273 -0 
L 425.454545 -0 
L 422.181818 -0 
L 418.909091 -0 
L 415.636364 -0 
L 412.363636 -0 
L 409.090909 -0 
L 405.818182 -0 
L 402.545455 -0 
L 399.272727 -0 
L 396 -0 
L 392.727273 -0 
L 389.454545 -0 
L 386.181818 -0 
L 382.909091 -0 
L 379.636364 -0 
L 376.363636 -0 
L 373.090909 -0 
L 369.818182 -0 
L 366.545455 -0 
L 363.272727 -0 
L 360 -0 
L 356.727273 -0 
L 353.454545 -0 
L 350.181818 -0 
L 346.909091 -0 
L 343.636364 -0 
L 340.363636 -0 
L 337.090909 -0 
L 333.818182 -0 
L 330.545455 -0 
L 327.272727 -0 
L 324 -0 
L 320.727273 -0 
L 317.454545 -0 
L 314.181818 -0 
L 310.909091 -0 
L 307.636364 -0 
L 304.363636 -0 
L 301.090909 -0 
L 297.818182 -0 
L 294.545455 -0 
L 291.272727 -0 
L 288 -0 
L 284.727273 -0 
L 281.454545 -0 
L 278.181818 -0 
L 274.909091 -0 
L 271.636364 -0 
L 268.363636 -0 
L 265.090909 -0 
L 261.818182 -0 
L 258.545455 -0 
L 255.272727 -0 
L 252 -0 
L 248.727273 -0 
L 245.454545 -0 
L 242.181818 -0 
L 238.909091 -0 
L 235.636364 -0 
L 232.363636 -0 
L 229.090909 -0 
L 225.818182 -0 
L 222.545455 -0 
L 219.272727 -0 
L 216 -0 
L 212.727273 -0 
L 209.454545 -0 
L 206.181818 -0 
L 202.909091 -0 
L 199.636364 -0 
L 196.363636 -0 
L 193.090909 -0 
L 189.818182 -0 
L 186.545455 -0 
L 183.272727 -0 
L 180 -0 
L 176.727273 -0 
L 173.454545 -0 
L 170.181818 -0 
L 166.909091 -0 
L 163.636364 -0 
L 160.363636 -0 
L 157.090909 -0 
L 153.818182 -0 
L 150.545455 -0 
L 147.272727 -0 
L 144 -0 
L 140.727273 -0 
L 137.454545 -0 
L 134.181818 -0 
L 130.909091 -0 
L 127.636364 -0 
L 124.363636 -0 
L 121.090909 -0 
L 117.818182 -0 
L 114.545455 -0 
L 111.272727 -0 
L 108 -0 
L 104.727273 -0 
L 101.454545 -0 
L 98.181818 -0 
L 94.909091 -0 
L 91.636364 -0 
L 88.363636 -0 
L 85.090909 -0 
L 81.818182 -0 
L 78.545455 -0 
L 75.272727 -0 
L 72 -0 
L 68.727273 -0 
L 65.454545 -0 
L 62.181818 -0 
L 58.909091 -0 
L 55.636364 -0 
L 52.363636 -0 
L 49.090909 -0 
L 45.818182 -0 
L 42.545455 -0 
L 39.272727 -0 
L 36 -0 
L 32.727273 -0 
L 29.454545 -0 
L 26.181818 -0 
L 22.909091 -0 
L 19.636364 -0 
L 16.363636 -0 
L 13.090909 -0 
L 9.818182 -0 
L 6.545455 -0 
L 3.272727 -0 
L 0 -0 
L 0 3.275151 
L 0 6.550303 
L 0 9.825454 
L 0 13.100606 
L 0 16.375757 
L 0 19.650909 
L 0 22.92606 
L 0 26.201211 
L 0 29.476363 
L 0 32.751514 
L 0 36.026666 
L 0 39.301817 
L 0 42.576969 
L 0 45.85212 
L 0 49.127271 
L 0 52.402423 
L 0 55.677574 
L 0 58.952726 
L 0 62.227877 
L 0 65.503029 
L 0 68.77818 
L 0 72.053331 
L 0 75.328483 
L 0 78.603634 
L 0 81.878786 
L 0 85.153937 
L 0 88.429089 
L 0 91.70424 
L 0 94.979392 
L 0 98.254543 
L 0 101.529694 
L 0 104.804846 
L 0 108.079997 
L 0 111.355149 
L 0 114.6303 
L 0 117.905452 
L 0 121.180603 
L 0 124.455754 
L 0 127.730906 
L 0 131.006057 
L 0 134.281209 
L 0 137.55636 
L 0 140.831512 
L 0 144.106663 
L 0 147.381814 
L 0 150.656966 
L 0 153.932117 
L 0 157.207269 
L 0 160.48242 
L 0 163.757572 
L 0 167.032723 
L 0 170.307874 
L 0 173.583026 
L 0 176.858177 
L 0 180.133329 
L 0 183.40848 
L 0 186.683632 
L 0 189.958783 
L 0 193.233934 
L 0 196.509086 
L 0 199.784237 
L 0 203.059389 
L 0 206.33454 
L 0 209.609692 
L 0 212.884843 
L 0 216.159994 
L 0 219.435146 
L 0 222.710297 
L 0 225.985449 
L 0 229.2606 
L 0 232.535752 
L 0 235.810903 
L 0 239.086054 
L 0 242.361206 
L 0 245.636357 
L 0 248.911509 
L 0 252.18666 
L 0 255.461812 
L 0 258.736963 
L 0 262.012114 
L 0 265.287266 
L 0 268.562417 
L 0 271.837569 
L 0 275.11272 
L 0 278.387872 
L 0 281.663023 
L 0 284.938175 
L 0 288.213326 
L 0 291.488477 
L 0 294.763629 
L 0 298.03878 
L 0 301.313932 
L 0 304.589083 
L 0 307.864235 
L 0 311.139386 
L 0 314.414537 
L 0 317.689689 
L 0 320.96484 
L 0 324.239992 
L 0 327.515143 
L 0 330.790295 
L 0 334.065446 
L 0 337.340597 
L 0 340.615749 
L 0 343.8909 
L 0 347.166052 
L 0 350.441203 
L 0 353.716355 
L 0 356.991506 
L 0 360.266657 
L 0 363.541809 
L 0 366.81696 
L 0 370.092112 
L 0 373.367263 
L 0 376.642415 
L 0 379.917566 
L 0 383.192717 
L 0 386.467869 
L 0 389.74302 
L 0 393.018172 
L 0 396.293323 
L 0 399.568475 
L 0 402.843626 
L 0 406.118777 
L 0 409.393929 
L 0 412.66908 
L 0 415.944232 
L 0 419.219383 
L 0 422.494535 
L 0 425.769686 
L 0 429.044837 
L 0 432.319989 
L 0 435.59514 
L 0 438.870292 
L 0 442.145443 
L 0 445.420595 
L 0 448.695746 
L 0 451.970897 
L 0 455.246049 
L 0 458.5212 
L 0 461.796352 
L 0 465.071503 
L 0 468.346655 
L 0 471.621806 
L 0 474.896958 
L 0 478.172109 
L 0 481.44726 
L 0 484.722412 
L 0 487.997563 
L 0 491.272715 
L 0 494.547866 
L 0 497.823018 
L 0 501.098169 
L 0 504.37332 
L 0 507.648472 
L 0 510.923623 
L 0 514.198775 
L 0 517.473926 
L 0 520.749078 
L 0 524.024229 
L 0 527.29938 
L 0 530.574532 
L 0 533.849683 
L 0 537.124835 
L 0 540.399986 
L 0 543.675138 
L 0 546.950289 
L 0 550.22544 
L 0 553.500592 
L 0 556.775743 
L 0 560.050895 
L 0 563.326046 
L 0 566.601198 
L 0 569.876349 
L 0 573.1515 
L 0 576.426652 
L 0 579.701803 
L 0 582.976955 
L 0 586.252106 
L 0 589.527258 
L 0 592.802409 
L 0 596.07756 
L 0 599.352712 
L 0 602.627863 
L 0 605.903015 
L 0 609.178166 
L 0 612.453318 
L 0 615.728469 
L 0 619.00362 
L 0 622.278772 
L 0 625.553923 
L 0 628.829075 
L 0 632.104226 
L 0 635.379378 
L 0 638.654529 
L 0 641.92968 
L 0 645.204832 
L 0 648.479983 
L 0 651.755135 
L 0 655.030286 
L 0 658.305438 
L 0 661.580589 
L 0 664.855741 
L 0 668.130892 
L 0 671.406043 
L 0 674.681195 
L 0 677.956346 
L 0 681.231498 
L 0 684.506649 
L 0 687.781801 
L 0 691.056952 
L 0 694.332103 
L 0 697.607255 
L 0 700.882406 
L 0 704.157558 
L 0 707.432709 
L 0 710.707861 
L 0 713.983012 
L 0 717.258163 
L 0 720.533315 
L 0 723.808466 
L 0 727.083618 
L 0 730.358769 
L 0 733.633921 
L 0 736.909072 
L 0 740.184223 
L 0 743.459375 
L 0 746.734526 
L 0 750.009678 
L 0 753.284829 
L 0 756.559981 
L 0 759.835132 
L 0 763.110283 
L 0 766.385435 
L 0 769.660586 
L 0 772.935738 
L 0 776.210889 
L 0 779.486041 
L 0 782.761192 
L 0 786.036343 
L 0 789.311495 
L 0 792.586646 
L 0 795.861798 
L 0 799.136949 
L 0 802.412101 
L 0 805.687252 
L 0 808.962403 
L 0 812.237555 
L 0 815.512706 
z
" clip-path="url(#pc429d4814c)" style="fill: #f5f9fe; fill-opacity: 0.9"/>
    <path clip-path="url(#pc429d4814c)" style="fill: #eff6fc; fill-opacity: 0.9"/>
    <path clip-path="url(#pc429d4814c)" style="fill: #eaf3fb; fill-opacity: 0.9"/>
    <path clip-path="url(#pc429d4814c)" style="fill: #e5eff9; fill-opacity: 0.9"/>
    <path clip-path="url(#pc429d4814c)" style="fill: #dfecf7; fill-opacity: 0.9"/>
    <path clip-path="url(#pc429d4814c)" style="fill: #dae8f6; fill-opacity: 0.9"/>
    <path clip-path="url(#pc429d4814c)" style="fill: #d6e5f4; fill-opacity: 0.9"/>
    <path clip-path="url(#pc429d4814c)" style="fill: #d0e2f2; fill-opacity: 0.9"/>
    <path clip-path="url(#pc429d4814c)" style="fill: #cbdef1; fill-opacity: 0.9"/>
    <path clip-path="url(#pc429d4814c)" style="fill: #c6dbef; fill-opacity: 0.9"/>
    <path clip-path="url(#pc429d4814c)" style="fill: #bed8ec; fill-opacity: 0.9"/>
    <path clip-path="url(#pc429d4814c)" style="fill: #b5d4e9; fill-opacity: 0.9"/>
    <path clip-path="url(#pc429d4814c)" style="fill: #add0e6; fill-opacity: 0.9"/>
    <path clip-path="url(#pc429d4814c)" style="fill: #a5cde3; fill-opacity: 0.9"/>
    <path clip-path="url(#pc429d4814c)" style="fill: #9cc9e1; fill-opacity: 0.9"/>
    <path clip-path="url(#pc429d4814c)" style="fill: #91c3de; fill-opacity: 0.9"/>
    <path clip-path="url(#pc429d4814c)" style="fill: #85bcdc; fill-opacity: 0.9"/>
    <path clip-path="url(#pc429d4814c)" style="fill: #7cb7da; fill-opacity: 0.9"/>
    <path clip-path="url(#pc429d4814c)" style="fill: #71b1d7; fill-opacity: 0.9"/>
    <path clip-path="url(#pc429d4814c)" style="fill: #66abd4; fill-opacity: 0.9"/>
    <path clip-path="url(#pc429d4814c)" style="fill: #5da5d1; fill-opacity: 0.9"/>
    <path clip-path="url(#pc429d4814c)" style="fill: #56a0ce; fill-opacity: 0.9"/>
    <path clip-path="url(#pc429d4814c)" style="fill: #4d99ca; fill-opacity: 0.9"/>
    <path clip-path="url(#pc429d4814c)" style="fill: #4493c7; fill-opacity: 0.9"/>
    <path clip-path="url(#pc429d4814c)" style="fill: #3c8cc3; fill-opacity: 0.9"/>
    <path clip-path="url(#pc429d4814c)" style="fill: #3686c0; fill-opacity: 0.9"/>
    <path clip-path="url(#pc429d4814c)" style="fill: #2f7fbc; fill-opacity: 0.9"/>
    <path clip-path="url(#pc429d4814c)" style="fill: #2777b8; fill-opacity: 0.9"/>
    <path clip-path="url(#pc429d4814c)" style="fill: #2070b4; fill-opacity: 0.9"/>
    <path clip-path="url(#pc429d4814c)" style="fill: #1c6ab0; fill-opacity: 0.9"/>
    <path clip-path="url(#pc429d4814c)" style="fill: #1663aa; fill-opacity: 0.9"/>
    <path clip-path="url(#pc429d4814c)" style="fill: #115ca5; fill-opacity: 0.9"/>
    <path clip-path="url(#pc429d4814c)" style="fill: #0c56a0; fill-opacity: 0.9"/>
    <path clip-path="url(#pc429d4814c)" style="fill: #084f99; fill-opacity: 0.9"/>
    <path clip-path="url(#pc429d4814c)" style="fill: #08488e; fill-opacity: 0.9"/>
    <path clip-path="url(#pc429d4814c)" style="fill: #084184; fill-opacity: 0.9"/>
    <path clip-path="url(#pc429d4814c)" style="fill: #083a7a; fill-opacity: 0.9"/>
    <path clip-path="url(#pc429d4814c)" style="fill: #083370; fill-opacity: 0.9"/>
    <path clip-path="url(#pc429d4814c)" style="fill: #08306b; fill-opacity: 0.9"/>
   </g>
   <g id="QuadContourSet_2">
    <path clip-path="url(#pc429d4814c)" style="fill: none"/>
    <path clip-path="url(#pc429d4814c)" style="fill: none"/>
    <path clip-path="url(#pc429d4814c)" style="fill: none"/>
    <path clip-path="url(#pc429d4814c)" style="fill: none"/>
    <path clip-path="url(#pc429d4814c)" style="fill: none"/>
    <path clip-path="url(#pc429d4814c)" style="fill: none"/>
    <path clip-path="url(#pc429d4814c)" style="fill: none"/>
    <path clip-path="url(#pc429d4814c)" style="fill: none"/>
    <path clip-path="url(#pc429d4814c)" style="fill: none"/>
    <path clip-path="url(#pc429d4814c)" style="fill: none"/>
    <path clip-path="url(#pc429d4814c)" style="fill: none"/>
    <path clip-path="url(#pc429d4814c)" style="fill: none"/>
    <path clip-path="url(#pc429d4814c)" style="fill: none"/>
    <path clip-path="url(#pc429d4814c)" style="fill: none"/>
    <path clip-path="url(#pc429d4814c)" style="fill: none"/>
    <path clip-path="url(#pc429d4814c)" style="fill: none"/>
    <path clip-path="url(#pc429d4814c)" style="fill: none"/>
    <path clip-path="url(#pc429d4814c)" style="fill: none"/>
    <path clip-path="url(#pc429d4814c)" style="fill: none"/>
    <path clip-path="url(#pc429d4814c)" style="fill: none"/>
    <path clip-path="url(#pc429d4814c)" style="fill: none"/>
    <path clip-path="url(#pc429d4814c)" style="fill: none"/>
    <path clip-path="url(#pc429d4814c)" style="fill: none"/>
    <path clip-path="url(#pc429d4814c)" style="fill: none"/>
    <path clip-path="url(#pc429d4814c)" style="fill: none"/>
    <path clip-path="url(#pc429d4814c)" style="fill: none"/>
    <path clip-path="url(#pc429d4814c)" style="fill: none"/>
    <path clip-path="url(#pc429d4814c)" style="fill: none"/>
    <path clip-path="url(#pc429d4814c)" style="fill: none"/>
    <path clip-path="url(#pc429d4814c)" style="fill: none"/>
    <path clip-path="url(#pc429d4814c)" style="fill: none"/>
    <path clip-path="url(#pc429d4814c)" style="fill: none"/>
    <path clip-path="url(#pc429d4814c)" style="fill: none"/>
    <path clip-path="url(#pc429d4814c)" style="fill: none"/>
    <path clip-path="url(#pc429d4814c)" style="fill: none"/>
    <path clip-path="url(#pc429d4814c)" style="fill: none"/>
    <path clip-path="url(#pc429d4814c)" style="fill: none"/>
    <path clip-path="url(#pc429d4814c)" style="fill: none"/>
    <path clip-path="url(#pc429d4814c)" style="fill: none"/>
   </g>
  </g>
 </g>
 <defs>
  <clipPath id="pc429d4814c">
   <rect x="0" y="0" width="576" height="815.512706"/>
  </clipPath>
 </defs>
</svg>
