<?xml version="1.0" encoding="utf-8" standalone="no"?>
<!DOCTYPE svg PUBLIC "-//W3C//DTD SVG 1.1//EN"
  "http://www.w3.org/Graphics/SVG/1.1/DTD/svg11.dtd">
<svg xmlns:xlink="http://www.w3.org/1999/xlink" width="576pt" height="813.239728pt" viewBox="0 0 576 813.239728" xmlns="http://www.w3.org/2000/svg" version="1.1">
 <metadata>
  <rdf:RDF xmlns:dc="http://purl.org/dc/elements/1.1/" xmlns:cc="http://creativecommons.org/ns#" xmlns:rdf="http://www.w3.org/1999/02/22-rdf-syntax-ns#">
   <cc:Work>
    <dc:type rdf:resource="http://purl.org/dc/dcmitype/StillImage"/>
    <dc:date>2025-07-25T22:45:43.210377</dc:date>
    <dc:format>image/svg+xml</dc:format>
    <dc:creator>
     <cc:Agent>
      <dc:title>Matplotlib v3.10.3, https://matplotlib.org/</dc:title>
     </cc:Agent>
    </dc:creator>
   </cc:Work>
  </rdf:RDF>
 </metadata>
 <defs>
  <style type="text/css">*{stroke-linejoin: round; stroke-linecap: butt}</style>
 </defs>
 <g id="figure_1">
  <g id="patch_1">
   <path d="M 0 813.239728 
L 576 813.239728 
L 576 0 
L 0 0 
L 0 813.239728 
z
" style="fill: none; opacity: 0"/>
  </g>
  <g id="axes_1">
   <g id="QuadContourSet_1">
    <path d="M 3.254237 813.239728 
L 6.508475 813.239728 
L 9.762712 813.239728 
L 13.016949 813.239728 
L 16.271186 813.239728 
L 19.525424 813.239728 
L 22.779661 813.239728 
L 26.033898 813.239728 
L 29.288136 813.239728 
L 32.542373 813.239728 
L 35.79661 813.239728 
L 39.050847 813.239728 
L 42.305085 813.239728 
L 45.559322 813.239728 
L 48.813559 813.239728 
L 52.067797 813.239728 
L 55.322034 813.239728 
L 58.576271 813.239728 
L 61.830508 813.239728 
L 65.084746 813.239728 
L 68.338983 813.239728 
L 71.59322 813.239728 
L 74.847458 813.239728 
L 78.101695 813.239728 
L 81.355932 813.239728 
L 84.610169 813.239728 
L 87.864407 813.239728 
L 91.118644 813.239728 
L 94.372881 813.239728 
L 97.627119 813.239728 
L 100.881356 813.239728 
L 104.135593 813.239728 
L 107.389831 813.239728 
L 110.644068 813.239728 
L 113.898305 813.239728 
L 117.152542 813.239728 
L 120.40678 813.239728 
L 123.661017 813.239728 
L 126.915254 813.239728 
L 130.169492 813.239728 
L 133.423729 813.239728 
L 136.677966 813.239728 
L 139.932203 813.239728 
L 143.186441 813.239728 
L 146.440678 813.239728 
L 149.694915 813.239728 
L 152.949153 813.239728 
L 156.20339 813.239728 
L 159.457627 813.239728 
L 162.711864 813.239728 
L 165.966102 813.239728 
L 169.220339 813.239728 
L 172.474576 813.239728 
L 175.728814 813.239728 
L 178.983051 813.239728 
L 182.237288 813.239728 
L 185.491525 813.239728 
L 188.745763 813.239728 
L 192 813.239728 
L 195.254237 813.239728 
L 198.508475 813.239728 
L 201.762712 813.239728 
L 205.016949 813.239728 
L 208.271186 813.239728 
L 211.525424 813.239728 
L 214.779661 813.239728 
L 218.033898 813.239728 
L 221.288136 813.239728 
L 224.542373 813.239728 
L 227.79661 813.239728 
L 231.050847 813.239728 
L 234.305085 813.239728 
L 237.559322 813.239728 
L 240.813559 813.239728 
L 244.067797 813.239728 
L 247.322034 813.239728 
L 250.576271 813.239728 
L 253.830508 813.239728 
L 257.084746 813.239728 
L 260.338983 813.239728 
L 263.59322 813.239728 
L 266.847458 813.239728 
L 270.101695 813.239728 
L 273.355932 813.239728 
L 276.610169 813.239728 
L 279.864407 813.239728 
L 283.118644 813.239728 
L 286.372881 813.239728 
L 289.627119 813.239728 
L 292.881356 813.239728 
L 296.135593 813.239728 
L 299.389831 813.239728 
L 302.644068 813.239728 
L 305.898305 813.239728 
L 309.152542 813.239728 
L 312.40678 813.239728 
L 315.661017 813.239728 
L 318.915254 813.239728 
L 322.169492 813.239728 
L 325.423729 813.239728 
L 328.677966 813.239728 
L 331.932203 813.239728 
L 335.186441 813.239728 
L 338.440678 813.239728 
L 341.694915 813.239728 
L 344.949153 813.239728 
L 348.20339 813.239728 
L 351.457627 813.239728 
L 354.711864 813.239728 
L 357.966102 813.239728 
L 361.220339 813.239728 
L 364.474576 813.239728 
L 367.728814 813.239728 
L 370.983051 813.239728 
L 374.237288 813.239728 
L 377.491525 813.239728 
L 380.745763 813.239728 
L 384 813.239728 
L 387.254237 813.239728 
L 390.508475 813.239728 
L 393.762712 813.239728 
L 397.016949 813.239728 
L 400.271186 813.239728 
L 403.525424 813.239728 
L 406.779661 813.239728 
L 410.033898 813.239728 
L 413.288136 813.239728 
L 416.542373 813.239728 
L 419.79661 813.239728 
L 423.050847 813.239728 
L 426.305085 813.239728 
L 429.559322 813.239728 
L 432.813559 813.239728 
L 436.067797 813.239728 
L 439.322034 813.239728 
L 442.576271 813.239728 
L 445.830508 813.239728 
L 449.084746 813.239728 
L 452.338983 813.239728 
L 455.59322 813.239728 
L 458.847458 813.239728 
L 462.101695 813.239728 
L 465.355932 813.239728 
L 468.610169 813.239728 
L 471.864407 813.239728 
L 475.118644 813.239728 
L 478.372881 813.239728 
L 481.627119 813.239728 
L 484.881356 813.239728 
L 488.135593 813.239728 
L 491.389831 813.239728 
L 494.644068 813.239728 
L 497.898305 813.239728 
L 501.152542 813.239728 
L 504.40678 813.239728 
L 507.661017 813.239728 
L 510.915254 813.239728 
L 514.169492 813.239728 
L 517.423729 813.239728 
L 520.677966 813.239728 
L 523.932203 813.239728 
L 527.186441 813.239728 
L 530.440678 813.239728 
L 533.694915 813.239728 
L 536.949153 813.239728 
L 540.20339 813.239728 
L 543.457627 813.239728 
L 546.711864 813.239728 
L 549.966102 813.239728 
L 553.220339 813.239728 
L 556.474576 813.239728 
L 559.728814 813.239728 
L 562.983051 813.239728 
L 566.237288 813.239728 
L 569.491525 813.239728 
L 572.745763 813.239728 
L 576 813.239728 
L 576 809.973705 
L 576 806.707682 
L 576 803.441659 
L 576 800.175636 
L 576 796.909613 
L 576 793.64359 
L 576 790.377567 
L 576 787.111544 
L 576 783.845521 
L 576 780.579498 
L 576 777.313475 
L 576 774.047452 
L 576 770.781429 
L 576 767.515406 
L 576 764.249383 
L 576 760.98336 
L 576 757.717337 
L 576 754.451314 
L 576 751.185291 
L 576 747.919268 
L 576 744.653245 
L 576 741.387222 
L 576 738.121199 
L 576 734.855176 
L 576 731.589153 
L 576 728.32313 
L 576 725.057107 
L 576 721.791084 
L 576 718.525061 
L 576 715.259038 
L 576 711.993015 
L 576 708.726992 
L 576 705.460969 
L 576 702.194946 
L 576 698.928923 
L 576 695.6629 
L 576 692.396877 
L 576 689.130854 
L 576 685.864831 
L 576 682.598808 
L 576 679.332785 
L 576 676.066762 
L 576 672.800739 
L 576 669.534716 
L 576 666.268693 
L 576 663.00267 
L 576 659.736647 
L 576 656.470624 
L 576 653.204601 
L 576 649.938578 
L 576 646.672555 
L 576 643.406532 
L 576 640.140509 
L 576 636.874486 
L 576 633.608463 
L 576 630.34244 
L 576 627.076417 
L 576 623.810394 
L 576 620.544371 
L 576 617.278348 
L 576 614.012325 
L 576 610.746302 
L 576 607.480279 
L 576 604.214256 
L 576 600.948233 
L 576 597.68221 
L 576 594.416187 
L 576 591.150164 
L 576 587.884141 
L 576 584.618118 
L 576 581.352095 
L 576 578.086072 
L 576 574.820049 
L 576 571.554026 
L 576 568.288003 
L 576 565.02198 
L 576 561.755957 
L 576 558.489934 
L 576 555.223911 
L 576 551.957888 
L 576 548.691865 
L 576 545.425842 
L 576 542.159819 
L 576 538.893796 
L 576 535.627773 
L 576 532.36175 
L 576 529.095727 
L 576 525.829704 
L 576 522.563681 
L 576 519.297658 
L 576 516.031635 
L 576 512.765612 
L 576 509.499589 
L 576 506.233566 
L 576 502.967543 
L 576 499.70152 
L 576 496.435497 
L 576 493.169474 
L 576 489.903451 
L 576 486.637428 
L 576 483.371405 
L 576 480.105382 
L 576 476.839359 
L 576 473.573336 
L 576 470.307313 
L 576 467.04129 
L 576 463.775267 
L 576 460.509243 
L 576 457.24322 
L 576 453.977197 
L 576 450.711174 
L 576 447.445151 
L 576 444.179128 
L 576 440.913105 
L 576 437.647082 
L 576 434.381059 
L 576 431.115036 
L 576 427.849013 
L 576 424.58299 
L 576 421.316967 
L 576 418.050944 
L 576 414.784921 
L 576 411.518898 
L 576 408.252875 
L 576 404.986852 
L 576 401.720829 
L 576 398.454806 
L 576 395.188783 
L 576 391.92276 
L 576 388.656737 
L 576 385.390714 
L 576 382.124691 
L 576 378.858668 
L 576 375.592645 
L 576 372.326622 
L 576 369.060599 
L 576 365.794576 
L 576 362.528553 
L 576 359.26253 
L 576 355.996507 
L 576 352.730484 
L 576 349.464461 
L 576 346.198438 
L 576 342.932415 
L 576 339.666392 
L 576 336.400369 
L 576 333.134346 
L 576 329.868323 
L 576 326.6023 
L 576 323.336277 
L 576 320.070254 
L 576 316.804231 
L 576 313.538208 
L 576 310.272185 
L 576 307.006162 
L 576 303.740139 
L 576 300.474116 
L 576 297.208093 
L 576 293.94207 
L 576 290.676047 
L 576 287.410024 
L 576 284.144001 
L 576 280.877978 
L 576 277.611955 
L 576 274.345932 
L 576 271.079909 
L 576 267.813886 
L 576 264.547863 
L 576 261.28184 
L 576 258.015817 
L 576 254.749794 
L 576 251.483771 
L 576 248.217748 
L 576 244.951725 
L 576 241.685702 
L 576 238.419679 
L 576 235.153656 
L 576 231.887633 
L 576 228.62161 
L 576 225.355587 
L 576 222.089564 
L 576 218.823541 
L 576 215.557518 
L 576 212.291495 
L 576 209.025472 
L 576 205.759449 
L 576 202.493426 
L 576 199.227403 
L 576 195.96138 
L 576 192.695357 
L 576 189.429334 
L 576 186.163311 
L 576 182.897288 
L 576 179.631265 
L 576 176.365242 
L 576 173.099219 
L 576 169.833196 
L 576 166.567173 
L 576 163.30115 
L 576 160.035127 
L 576 156.769104 
L 576 153.503081 
L 576 150.237058 
L 576 146.971035 
L 576 143.705012 
L 576 140.438989 
L 576 137.172966 
L 576 133.906943 
L 576 130.64092 
L 576 127.374897 
L 576 124.108874 
L 576 120.842851 
L 576 117.576828 
L 576 114.310805 
L 576 111.044782 
L 576 107.778759 
L 576 104.512736 
L 576 101.246713 
L 576 97.98069 
L 576 94.714667 
L 576 91.448644 
L 576 88.182621 
L 576 84.916598 
L 576 81.650575 
L 576 78.384552 
L 576 75.118529 
L 576 71.852506 
L 576 68.586483 
L 576 65.32046 
L 576 62.054437 
L 576 58.788414 
L 576 55.522391 
L 576 52.256368 
L 576 48.990345 
L 576 45.724322 
L 576 42.458299 
L 576 39.192276 
L 576 35.926253 
L 576 32.66023 
L 576 29.394207 
L 576 26.128184 
L 576 22.862161 
L 576 19.596138 
L 576 16.330115 
L 576 13.064092 
L 576 9.798069 
L 576 6.532046 
L 576 3.266023 
L 576 -0 
L 572.745763 -0 
L 569.491525 -0 
L 566.237288 -0 
L 562.983051 -0 
L 559.728814 -0 
L 556.474576 -0 
L 553.220339 -0 
L 549.966102 -0 
L 546.711864 -0 
L 543.457627 -0 
L 540.20339 -0 
L 536.949153 -0 
L 533.694915 -0 
L 530.440678 -0 
L 527.186441 -0 
L 523.932203 -0 
L 520.677966 -0 
L 517.423729 -0 
L 514.169492 -0 
L 510.915254 -0 
L 507.661017 -0 
L 504.40678 -0 
L 501.152542 -0 
L 497.898305 -0 
L 494.644068 -0 
L 491.389831 -0 
L 488.135593 -0 
L 484.881356 -0 
L 481.627119 -0 
L 478.372881 -0 
L 475.118644 -0 
L 471.864407 -0 
L 468.610169 -0 
L 465.355932 -0 
L 462.101695 -0 
L 458.847458 -0 
L 455.59322 -0 
L 452.338983 -0 
L 449.084746 -0 
L 445.830508 -0 
L 442.576271 -0 
L 439.322034 -0 
L 436.067797 -0 
L 432.813559 -0 
L 429.559322 -0 
L 426.305085 -0 
L 423.050847 -0 
L 419.79661 -0 
L 416.542373 -0 
L 413.288136 -0 
L 410.033898 -0 
L 406.779661 -0 
L 403.525424 -0 
L 400.271186 -0 
L 397.016949 -0 
L 393.762712 -0 
L 390.508475 -0 
L 387.254237 -0 
L 384 -0 
L 380.745763 -0 
L 377.491525 -0 
L 374.237288 -0 
L 370.983051 -0 
L 367.728814 -0 
L 364.474576 -0 
L 361.220339 -0 
L 357.966102 -0 
L 354.711864 -0 
L 351.457627 -0 
L 348.20339 -0 
L 344.949153 -0 
L 341.694915 -0 
L 338.440678 -0 
L 335.186441 -0 
L 331.932203 -0 
L 328.677966 -0 
L 325.423729 -0 
L 322.169492 -0 
L 318.915254 -0 
L 315.661017 -0 
L 312.40678 -0 
L 309.152542 -0 
L 305.898305 -0 
L 302.644068 -0 
L 299.389831 -0 
L 296.135593 -0 
L 292.881356 -0 
L 289.627119 -0 
L 286.372881 -0 
L 283.118644 -0 
L 279.864407 -0 
L 276.610169 -0 
L 273.355932 -0 
L 270.101695 -0 
L 266.847458 -0 
L 263.59322 -0 
L 260.338983 -0 
L 257.084746 -0 
L 253.830508 -0 
L 250.576271 -0 
L 247.322034 -0 
L 244.067797 -0 
L 240.813559 -0 
L 237.559322 -0 
L 234.305085 -0 
L 231.050847 -0 
L 227.79661 -0 
L 224.542373 -0 
L 221.288136 -0 
L 218.033898 -0 
L 214.779661 -0 
L 211.525424 -0 
L 208.271186 -0 
L 205.016949 -0 
L 201.762712 -0 
L 198.508475 -0 
L 195.254237 -0 
L 192 -0 
L 188.745763 -0 
L 185.491525 -0 
L 182.237288 -0 
L 178.983051 -0 
L 175.728814 -0 
L 172.474576 -0 
L 169.220339 -0 
L 165.966102 -0 
L 162.711864 -0 
L 159.457627 -0 
L 156.20339 -0 
L 152.949153 -0 
L 149.694915 -0 
L 146.440678 -0 
L 143.186441 -0 
L 139.932203 -0 
L 136.677966 -0 
L 133.423729 -0 
L 130.169492 -0 
L 126.915254 -0 
L 123.661017 -0 
L 120.40678 -0 
L 117.152542 -0 
L 113.898305 -0 
L 110.644068 -0 
L 107.389831 -0 
L 104.135593 -0 
L 100.881356 -0 
L 97.627119 -0 
L 94.372881 -0 
L 91.118644 -0 
L 87.864407 -0 
L 84.610169 -0 
L 81.355932 -0 
L 78.101695 -0 
L 74.847458 -0 
L 71.59322 -0 
L 68.338983 -0 
L 65.084746 -0 
L 61.830508 -0 
L 58.576271 -0 
L 55.322034 -0 
L 52.067797 -0 
L 48.813559 -0 
L 45.559322 -0 
L 42.305085 -0 
L 39.050847 -0 
L 35.79661 -0 
L 32.542373 -0 
L 29.288136 -0 
L 26.033898 -0 
L 22.779661 -0 
L 19.525424 -0 
L 16.271186 -0 
L 13.016949 -0 
L 9.762712 -0 
L 6.508475 -0 
L 3.254237 -0 
L 0 -0 
L 0 3.266023 
L 0 6.532046 
L 0 9.798069 
L 0 13.064092 
L 0 16.330115 
L 0 19.596138 
L 0 22.862161 
L 0 26.128184 
L 0 29.394207 
L 0 32.66023 
L 0 35.926253 
L 0 39.192276 
L 0 42.458299 
L 0 45.724322 
L 0 48.990345 
L 0 52.256368 
L 0 55.522391 
L 0 58.788414 
L 0 62.054437 
L 0 65.32046 
L 0 68.586483 
L 0 71.852506 
L 0 75.118529 
L 0 78.384552 
L 0 81.650575 
L 0 84.916598 
L 0 88.182621 
L 0 91.448644 
L 0 94.714667 
L 0 97.98069 
L 0 101.246713 
L 0 104.512736 
L 0 107.778759 
L 0 111.044782 
L 0 114.310805 
L 0 117.576828 
L 0 120.842851 
L 0 124.108874 
L 0 127.374897 
L 0 130.64092 
L 0 133.906943 
L 0 137.172966 
L 0 140.438989 
L 0 143.705012 
L 0 146.971035 
L 0 150.237058 
L 0 153.503081 
L 0 156.769104 
L 0 160.035127 
L 0 163.30115 
L 0 166.567173 
L 0 169.833196 
L 0 173.099219 
L 0 176.365242 
L 0 179.631265 
L 0 182.897288 
L 0 186.163311 
L 0 189.429334 
L 0 192.695357 
L 0 195.96138 
L 0 199.227403 
L 0 202.493426 
L 0 205.759449 
L 0 209.025472 
L 0 212.291495 
L 0 215.557518 
L 0 218.823541 
L 0 222.089564 
L 0 225.355587 
L 0 228.62161 
L 0 231.887633 
L 0 235.153656 
L 0 238.419679 
L 0 241.685702 
L 0 244.951725 
L 0 248.217748 
L 0 251.483771 
L 0 254.749794 
L 0 258.015817 
L 0 261.28184 
L 0 264.547863 
L 0 267.813886 
L 0 271.079909 
L 0 274.345932 
L 0 277.611955 
L 0 280.877978 
L 0 284.144001 
L 0 287.410024 
L 0 290.676047 
L 0 293.94207 
L 0 297.208093 
L 0 300.474116 
L 0 303.740139 
L 0 307.006162 
L 0 310.272185 
L 0 313.538208 
L 0 316.804231 
L 0 320.070254 
L 0 323.336277 
L 0 326.6023 
L 0 329.868323 
L 0 333.134346 
L 0 336.400369 
L 0 339.666392 
L 0 342.932415 
L 0 346.198438 
L 0 349.464461 
L 0 352.730484 
L 0 355.996507 
L 0 359.26253 
L 0 362.528553 
L 0 365.794576 
L 0 369.060599 
L 0 372.326622 
L 0 375.592645 
L 0 378.858668 
L 0 382.124691 
L 0 385.390714 
L 0 388.656737 
L 0 391.92276 
L 0 395.188783 
L 0 398.454806 
L 0 401.720829 
L 0 404.986852 
L 0 408.252875 
L 0 411.518898 
L 0 414.784921 
L 0 418.050944 
L 0 421.316967 
L 0 424.58299 
L 0 427.849013 
L 0 431.115036 
L 0 434.381059 
L 0 437.647082 
L 0 440.913105 
L 0 444.179128 
L 0 447.445151 
L 0 450.711174 
L 0 453.977197 
L 0 457.24322 
L 0 460.509243 
L 0 463.775267 
L 0 467.04129 
L 0 470.307313 
L 0 473.573336 
L 0 476.839359 
L 0 480.105382 
L 0 483.371405 
L 0 486.637428 
L 0 489.903451 
L 0 493.169474 
L 0 496.435497 
L 0 499.70152 
L 0 502.967543 
L 0 506.233566 
L 0 509.499589 
L 0 512.765612 
L 0 516.031635 
L 0 519.297658 
L 0 522.563681 
L 0 525.829704 
L 0 529.095727 
L 0 532.36175 
L 0 535.627773 
L 0 538.893796 
L 0 542.159819 
L 0 545.425842 
L 0 548.691865 
L 0 551.957888 
L 0 555.223911 
L 0 558.489934 
L 0 561.755957 
L 0 565.02198 
L 0 568.288003 
L 0 571.554026 
L 0 574.820049 
L 0 578.086072 
L 0 581.352095 
L 0 584.618118 
L 0 587.884141 
L 0 591.150164 
L 0 594.416187 
L 0 597.68221 
L 0 600.948233 
L 0 604.214256 
L 0 607.480279 
L 0 610.746302 
L 0 614.012325 
L 0 617.278348 
L 0 620.544371 
L 0 623.810394 
L 0 627.076417 
L 0 630.34244 
L 0 633.608463 
L 0 636.874486 
L 0 640.140509 
L 0 643.406532 
L 0 646.672555 
L 0 649.938578 
L 0 653.204601 
L 0 656.470624 
L 0 659.736647 
L 0 663.00267 
L 0 666.268693 
L 0 669.534716 
L 0 672.800739 
L 0 676.066762 
L 0 679.332785 
L 0 682.598808 
L 0 685.864831 
L 0 689.130854 
L 0 692.396877 
L 0 695.6629 
L 0 698.928923 
L 0 702.194946 
L 0 705.460969 
L 0 708.726992 
L 0 711.993015 
L 0 715.259038 
L 0 718.525061 
L 0 721.791084 
L 0 725.057107 
L 0 728.32313 
L 0 731.589153 
L 0 734.855176 
L 0 738.121199 
L 0 741.387222 
L 0 744.653245 
L 0 747.919268 
L 0 751.185291 
L 0 754.451314 
L 0 757.717337 
L 0 760.98336 
L 0 764.249383 
L 0 767.515406 
L 0 770.781429 
L 0 774.047452 
L 0 777.313475 
L 0 780.579498 
L 0 783.845521 
L 0 787.111544 
L 0 790.377567 
L 0 793.64359 
L 0 796.909613 
L 0 800.175636 
L 0 803.441659 
L 0 806.707682 
L 0 809.973705 
L 0 813.239728 
z
" clip-path="url(#p3c8443c8d0)" style="fill: #f5f9fe; fill-opacity: 0.9"/>
    <path clip-path="url(#p3c8443c8d0)" style="fill: #eff6fc; fill-opacity: 0.9"/>
    <path clip-path="url(#p3c8443c8d0)" style="fill: #eaf3fb; fill-opacity: 0.9"/>
    <path clip-path="url(#p3c8443c8d0)" style="fill: #e5eff9; fill-opacity: 0.9"/>
    <path clip-path="url(#p3c8443c8d0)" style="fill: #dfecf7; fill-opacity: 0.9"/>
    <path clip-path="url(#p3c8443c8d0)" style="fill: #dae8f6; fill-opacity: 0.9"/>
    <path clip-path="url(#p3c8443c8d0)" style="fill: #d6e5f4; fill-opacity: 0.9"/>
    <path clip-path="url(#p3c8443c8d0)" style="fill: #d0e2f2; fill-opacity: 0.9"/>
    <path clip-path="url(#p3c8443c8d0)" style="fill: #cbdef1; fill-opacity: 0.9"/>
    <path clip-path="url(#p3c8443c8d0)" style="fill: #c6dbef; fill-opacity: 0.9"/>
    <path clip-path="url(#p3c8443c8d0)" style="fill: #bed8ec; fill-opacity: 0.9"/>
    <path clip-path="url(#p3c8443c8d0)" style="fill: #b5d4e9; fill-opacity: 0.9"/>
    <path clip-path="url(#p3c8443c8d0)" style="fill: #add0e6; fill-opacity: 0.9"/>
    <path clip-path="url(#p3c8443c8d0)" style="fill: #a5cde3; fill-opacity: 0.9"/>
    <path clip-path="url(#p3c8443c8d0)" style="fill: #9cc9e1; fill-opacity: 0.9"/>
    <path clip-path="url(#p3c8443c8d0)" style="fill: #91c3de; fill-opacity: 0.9"/>
    <path clip-path="url(#p3c8443c8d0)" style="fill: #85bcdc; fill-opacity: 0.9"/>
    <path clip-path="url(#p3c8443c8d0)" style="fill: #7cb7da; fill-opacity: 0.9"/>
    <path clip-path="url(#p3c8443c8d0)" style="fill: #71b1d7; fill-opacity: 0.9"/>
    <path clip-path="url(#p3c8443c8d0)" style="fill: #66abd4; fill-opacity: 0.9"/>
    <path clip-path="url(#p3c8443c8d0)" style="fill: #5da5d1; fill-opacity: 0.9"/>
    <path clip-path="url(#p3c8443c8d0)" style="fill: #56a0ce; fill-opacity: 0.9"/>
    <path clip-path="url(#p3c8443c8d0)" style="fill: #4d99ca; fill-opacity: 0.9"/>
    <path clip-path="url(#p3c8443c8d0)" style="fill: #4493c7; fill-opacity: 0.9"/>
    <path clip-path="url(#p3c8443c8d0)" style="fill: #3c8cc3; fill-opacity: 0.9"/>
    <path clip-path="url(#p3c8443c8d0)" style="fill: #3686c0; fill-opacity: 0.9"/>
    <path clip-path="url(#p3c8443c8d0)" style="fill: #2f7fbc; fill-opacity: 0.9"/>
    <path clip-path="url(#p3c8443c8d0)" style="fill: #2777b8; fill-opacity: 0.9"/>
    <path clip-path="url(#p3c8443c8d0)" style="fill: #2070b4; fill-opacity: 0.9"/>
    <path clip-path="url(#p3c8443c8d0)" style="fill: #1c6ab0; fill-opacity: 0.9"/>
    <path clip-path="url(#p3c8443c8d0)" style="fill: #1663aa; fill-opacity: 0.9"/>
    <path clip-path="url(#p3c8443c8d0)" style="fill: #115ca5; fill-opacity: 0.9"/>
    <path clip-path="url(#p3c8443c8d0)" style="fill: #0c56a0; fill-opacity: 0.9"/>
    <path clip-path="url(#p3c8443c8d0)" style="fill: #084f99; fill-opacity: 0.9"/>
    <path clip-path="url(#p3c8443c8d0)" style="fill: #08488e; fill-opacity: 0.9"/>
    <path clip-path="url(#p3c8443c8d0)" style="fill: #084184; fill-opacity: 0.9"/>
    <path clip-path="url(#p3c8443c8d0)" style="fill: #083a7a; fill-opacity: 0.9"/>
    <path clip-path="url(#p3c8443c8d0)" style="fill: #083370; fill-opacity: 0.9"/>
    <path clip-path="url(#p3c8443c8d0)" style="fill: #08306b; fill-opacity: 0.9"/>
   </g>
   <g id="QuadContourSet_2">
    <path clip-path="url(#p3c8443c8d0)" style="fill: none"/>
    <path clip-path="url(#p3c8443c8d0)" style="fill: none"/>
    <path clip-path="url(#p3c8443c8d0)" style="fill: none"/>
    <path clip-path="url(#p3c8443c8d0)" style="fill: none"/>
    <path clip-path="url(#p3c8443c8d0)" style="fill: none"/>
    <path clip-path="url(#p3c8443c8d0)" style="fill: none"/>
    <path clip-path="url(#p3c8443c8d0)" style="fill: none"/>
    <path clip-path="url(#p3c8443c8d0)" style="fill: none"/>
    <path clip-path="url(#p3c8443c8d0)" style="fill: none"/>
    <path clip-path="url(#p3c8443c8d0)" style="fill: none"/>
    <path clip-path="url(#p3c8443c8d0)" style="fill: none"/>
    <path clip-path="url(#p3c8443c8d0)" style="fill: none"/>
    <path clip-path="url(#p3c8443c8d0)" style="fill: none"/>
    <path clip-path="url(#p3c8443c8d0)" style="fill: none"/>
    <path clip-path="url(#p3c8443c8d0)" style="fill: none"/>
    <path clip-path="url(#p3c8443c8d0)" style="fill: none"/>
    <path clip-path="url(#p3c8443c8d0)" style="fill: none"/>
    <path clip-path="url(#p3c8443c8d0)" style="fill: none"/>
    <path clip-path="url(#p3c8443c8d0)" style="fill: none"/>
    <path clip-path="url(#p3c8443c8d0)" style="fill: none"/>
    <path clip-path="url(#p3c8443c8d0)" style="fill: none"/>
    <path clip-path="url(#p3c8443c8d0)" style="fill: none"/>
    <path clip-path="url(#p3c8443c8d0)" style="fill: none"/>
    <path clip-path="url(#p3c8443c8d0)" style="fill: none"/>
    <path clip-path="url(#p3c8443c8d0)" style="fill: none"/>
    <path clip-path="url(#p3c8443c8d0)" style="fill: none"/>
    <path clip-path="url(#p3c8443c8d0)" style="fill: none"/>
    <path clip-path="url(#p3c8443c8d0)" style="fill: none"/>
    <path clip-path="url(#p3c8443c8d0)" style="fill: none"/>
    <path clip-path="url(#p3c8443c8d0)" style="fill: none"/>
    <path clip-path="url(#p3c8443c8d0)" style="fill: none"/>
    <path clip-path="url(#p3c8443c8d0)" style="fill: none"/>
    <path clip-path="url(#p3c8443c8d0)" style="fill: none"/>
    <path clip-path="url(#p3c8443c8d0)" style="fill: none"/>
    <path clip-path="url(#p3c8443c8d0)" style="fill: none"/>
    <path clip-path="url(#p3c8443c8d0)" style="fill: none"/>
    <path clip-path="url(#p3c8443c8d0)" style="fill: none"/>
    <path clip-path="url(#p3c8443c8d0)" style="fill: none"/>
    <path clip-path="url(#p3c8443c8d0)" style="fill: none"/>
   </g>
  </g>
 </g>
 <defs>
  <clipPath id="p3c8443c8d0">
   <rect x="0" y="0" width="576" height="813.239728"/>
  </clipPath>
 </defs>
</svg>
