<?xml version="1.0" encoding="utf-8" standalone="no"?>
<!DOCTYPE svg PUBLIC "-//W3C//DTD SVG 1.1//EN"
  "http://www.w3.org/Graphics/SVG/1.1/DTD/svg11.dtd">
<svg xmlns:xlink="http://www.w3.org/1999/xlink" width="576pt" height="815.941014pt" viewBox="0 0 576 815.941014" xmlns="http://www.w3.org/2000/svg" version="1.1">
 <metadata>
  <rdf:RDF xmlns:dc="http://purl.org/dc/elements/1.1/" xmlns:cc="http://creativecommons.org/ns#" xmlns:rdf="http://www.w3.org/1999/02/22-rdf-syntax-ns#">
   <cc:Work>
    <dc:type rdf:resource="http://purl.org/dc/dcmitype/StillImage"/>
    <dc:date>2025-07-25T22:44:53.234967</dc:date>
    <dc:format>image/svg+xml</dc:format>
    <dc:creator>
     <cc:Agent>
      <dc:title>Matplotlib v3.10.3, https://matplotlib.org/</dc:title>
     </cc:Agent>
    </dc:creator>
   </cc:Work>
  </rdf:RDF>
 </metadata>
 <defs>
  <style type="text/css">*{stroke-linejoin: round; stroke-linecap: butt}</style>
 </defs>
 <g id="figure_1">
  <g id="patch_1">
   <path d="M 0 815.941014 
L 576 815.941014 
L 576 0 
L 0 0 
L 0 815.941014 
z
" style="fill: none; opacity: 0"/>
  </g>
  <g id="axes_1">
   <g id="QuadContourSet_1">
    <path d="M 3.272727 787.066667 
L 6.545455 786.497907 
L 6.773191 786.44917 
L 9.818182 785.480636 
L 13.090909 784.894686 
L 16.363636 784.546084 
L 19.636364 784.088562 
L 22.909091 783.52453 
L 24.414942 783.172299 
L 26.181818 782.423303 
L 29.454545 781.491657 
L 32.727273 780.978526 
L 36 779.948773 
L 36.118272 779.895427 
L 39.272727 778.506361 
L 42.545455 778.560998 
L 45.818182 778.042416 
L 48.538049 776.618556 
L 49.090909 776.394658 
L 49.966729 776.618556 
L 52.363636 777.033495 
L 55.636364 777.290138 
L 58.909091 776.992978 
L 60.731622 776.618556 
L 62.181818 776.013617 
L 65.454545 775.00785 
L 68.727273 774.524449 
L 72 773.624416 
L 72.665126 773.341684 
L 75.272727 772.124262 
L 78.545455 772.016967 
L 81.818182 771.849535 
L 84.743758 770.064813 
L 85.090909 769.86994 
L 85.920714 770.064813 
L 88.363636 770.482841 
L 91.636364 770.729023 
L 94.909091 770.550576 
L 97.55484 770.064813 
L 98.181818 769.803012 
L 101.454545 768.57994 
L 104.727273 768.064651 
L 108 767.314666 
L 109.302464 766.787941 
L 111.272727 765.73343 
L 114.545455 765.393327 
L 117.818182 765.449328 
L 120.827669 763.51107 
L 121.090909 763.3106 
L 122.156122 763.51107 
L 124.363636 763.775215 
L 127.636364 764.03807 
L 130.909091 764.008785 
L 133.324024 763.51107 
L 134.181818 763.078043 
L 137.454545 761.661898 
L 140.727273 760.864075 
L 142.021351 760.234198 
L 144 758.724431 
L 147.272727 758.22216 
L 149.850971 756.957327 
L 150.545455 756.186043 
L 153.818182 755.341529 
L 157.090909 755.020362 
L 159.176547 753.680455 
L 160.363636 753.112252 
L 161.602764 753.680455 
L 161.293056 756.957327 
L 163.636364 757.241986 
L 166.909091 757.297082 
L 168.708416 756.957327 
L 170.181818 756.241577 
L 173.454545 755.126848 
L 176.727273 754.219296 
L 177.854228 753.680455 
L 180 752.040935 
L 183.272727 751.493064 
L 185.272521 750.403583 
L 186.545455 749.092652 
L 189.818182 748.588514 
L 192.51035 747.126712 
L 193.090909 746.499218 
L 196.363636 746.255532 
L 198.053256 747.126712 
L 198.029608 750.403583 
L 199.636364 750.599538 
L 202.909091 750.556819 
L 203.722907 750.403583 
L 206.181818 749.335806 
L 209.454545 748.32435 
L 212.727273 747.220723 
L 212.903645 747.126712 
L 216 745.075869 
L 219.272727 744.340751 
L 220.027765 743.84984 
L 222.545455 741.836176 
L 225.818182 741.684392 
L 227.165876 740.572969 
L 229.090909 738.629914 
L 232.363636 739.078905 
L 235.370243 740.572969 
L 235.636364 741.532384 
L 238.909091 743.416876 
L 242.181818 742.244578 
L 245.454545 741.348108 
L 247.507452 740.572969 
L 248.727273 739.359272 
L 252 738.072724 
L 254.859518 737.296097 
L 255.272727 736.904394 
L 258.545455 734.797948 
L 261.818182 734.490867 
L 262.430483 734.019226 
L 265.090909 731.640952 
L 268.363636 731.60212 
L 269.977084 730.742354 
L 271.636364 729.334552 
L 273.463693 730.742354 
L 273.13265 734.019226 
L 274.480074 737.296097 
L 274.909091 737.352541 
L 275.118448 737.296097 
L 278.181818 734.835096 
L 281.454545 734.324684 
L 282.472335 734.019226 
L 284.727273 731.906893 
L 288 731.01524 
L 289.423636 730.742354 
L 291.272727 729.31801 
L 294.545455 727.689153 
L 296.044064 727.465483 
L 297.818182 726.440739 
L 301.090909 724.348778 
L 301.921922 724.188611 
L 304.363636 722.827369 
L 307.636364 720.996677 
L 307.858413 720.91174 
L 310.909091 719.705238 
L 314.181818 718.698958 
L 316.496071 717.634868 
L 317.454545 717.260828 
L 320.727273 716.427797 
L 324 715.710017 
L 326.299955 714.357996 
L 327.272727 714.095842 
L 329.638681 714.357996 
L 330.545455 714.675659 
L 333.818182 714.768962 
L 337.090909 714.40814 
L 337.213162 714.357996 
L 340.363636 712.369684 
L 343.636364 711.914773 
L 346.591467 711.081125 
L 346.909091 710.775206 
L 350.181818 709.234988 
L 353.454545 708.669555 
L 356.727273 708.198504 
L 358.207279 707.804253 
L 360 706.326171 
L 363.272727 705.391123 
L 366.545455 704.975088 
L 369.818182 704.528522 
L 369.822192 704.527382 
L 373.090909 702.028234 
L 376.363636 701.551632 
L 379.636364 701.315428 
L 379.955727 701.25051 
L 382.80592 697.973639 
L 382.909091 697.965174 
L 386.181818 697.53025 
L 388.851308 694.696767 
L 389.454545 694.486193 
L 392.727273 694.320879 
L 396 693.931039 
L 399.272727 692.74712 
L 400.51893 691.419896 
L 402.545455 690.872989 
L 405.818182 690.544488 
L 409.090909 689.912649 
L 412.363636 688.865399 
L 413.125545 688.143024 
L 415.636364 687.443138 
L 418.909091 687.151737 
L 422.181818 686.835277 
L 425.454545 685.821465 
L 426.718 684.866153 
L 428.727273 684.296854 
L 432 683.872705 
L 435.272727 683.411451 
L 438.545455 682.418798 
L 439.869112 681.589281 
L 441.818182 681.10363 
L 445.090909 680.496873 
L 448.363636 680.186576 
L 451.636364 679.704596 
L 454.909091 678.530983 
L 455.190677 678.312409 
L 458.181818 677.514584 
L 461.454545 677.110806 
L 464.727273 676.748395 
L 468 675.867087 
L 469.562439 675.035538 
L 471.272727 674.616704 
L 474.545455 673.91331 
L 477.818182 673.50837 
L 481.090909 672.506276 
L 483.198253 671.758666 
L 484.363636 671.531354 
L 487.636364 670.77483 
L 490.909091 669.645378 
L 494.181818 669.946026 
L 497.454545 669.562062 
L 499.787812 668.481795 
L 500.727273 668.086459 
L 504 667.361536 
L 507.272727 667.107591 
L 510.545455 666.584426 
L 513.598833 665.204923 
L 513.818182 665.126592 
L 517.090909 664.57492 
L 520.363636 664.839845 
L 521.728466 665.204923 
L 523.636364 665.630688 
L 524.501227 665.204923 
L 526.909091 663.635621 
L 530.181818 663.312957 
L 533.454545 663.029719 
L 535.327995 661.928052 
L 536.727273 661.147838 
L 540 660.588386 
L 543.272727 659.786193 
L 545.227034 658.65118 
L 546.545455 658.137365 
L 549.818182 657.580266 
L 553.090909 657.238745 
L 555.569867 655.374309 
L 556.363636 655.046058 
L 559.135642 655.374309 
L 559.636364 655.505731 
L 562.909091 656.072057 
L 566.181818 655.619284 
L 566.503423 655.374309 
L 569.454545 653.762563 
L 572.727273 653.742187 
L 576 652.620057 
L 576 652.097437 
L 576 648.820566 
L 576 648.817031 
L 572.727273 647.506338 
L 571.598062 648.820566 
L 569.454545 650.35722 
L 566.181818 650.044503 
L 562.909091 650.299649 
L 560.850341 652.097437 
L 559.636364 652.746688 
L 556.363636 652.930218 
L 553.090909 653.549145 
L 550.485172 655.374309 
L 549.818182 655.631457 
L 546.545455 656.242454 
L 543.272727 656.55571 
L 540.381942 658.65118 
L 540 658.793045 
L 538.305957 658.65118 
L 536.727273 658.163199 
L 533.454545 657.268623 
L 530.181818 657.259173 
L 528.750763 658.65118 
L 526.909091 659.609021 
L 523.636364 659.509036 
L 520.363636 660.070733 
L 517.850169 661.928052 
L 517.090909 662.198883 
L 513.818182 662.612409 
L 510.545455 663.002431 
L 507.272727 663.258372 
L 504 664.45307 
L 500.727273 663.536341 
L 497.454545 663.287115 
L 495.453656 665.204923 
L 494.181818 665.867626 
L 490.909091 665.754077 
L 487.636364 666.072013 
L 484.524491 668.481795 
L 484.363636 668.537227 
L 481.090909 668.788915 
L 477.818182 669.067601 
L 474.545455 669.785961 
L 471.802318 671.758666 
L 471.272727 671.849094 
L 468 671.866857 
L 464.727273 671.902008 
L 461.454545 671.958015 
L 458.181818 672.195754 
L 454.909091 672.911416 
L 451.636364 672.825774 
L 448.363636 672.220006 
L 445.090909 671.92692 
L 442.091375 671.758666 
L 441.818182 671.709172 
L 438.545455 669.913942 
L 435.497524 668.481795 
L 435.272727 668.438014 
L 432 667.961634 
L 428.727273 667.638316 
L 425.454545 667.766207 
L 422.181818 668.02831 
L 418.909091 668.119738 
L 415.636364 668.271973 
L 414.17823 668.481795 
L 412.363636 668.841394 
L 409.090909 669.346292 
L 405.818182 669.813641 
L 402.545455 669.865766 
L 399.272727 669.956616 
L 396 670.192747 
L 392.727273 670.545728 
L 389.454545 670.955821 
L 386.181818 671.467154 
L 384.973214 671.758666 
L 382.909091 672.254765 
L 379.636364 672.692883 
L 376.363636 672.844421 
L 373.090909 672.992102 
L 369.818182 673.096526 
L 366.545455 673.484864 
L 363.272727 673.91674 
L 360 674.354132 
L 356.727273 674.925611 
L 353.454545 674.668945 
L 350.181818 673.788194 
L 346.909091 673.143822 
L 343.636364 673.137999 
L 340.363636 672.5277 
L 339.677029 671.758666 
L 340.363636 671.04568 
L 342.631326 668.481795 
L 343.636364 666.727581 
L 345.344652 665.204923 
L 346.596244 661.928052 
L 346.909091 661.650299 
L 350.181818 659.366918 
L 350.882807 658.65118 
L 353.454545 656.36952 
L 354.815331 655.374309 
L 356.727273 654.762864 
L 360 652.726216 
L 360.75052 652.097437 
L 363.272727 650.955527 
L 366.545455 649.30946 
L 367.106603 648.820566 
L 369.818182 647.110081 
L 372.301327 645.543694 
L 373.090909 644.875043 
L 376.363636 642.688767 
L 377.080574 642.266823 
L 379.636364 639.923453 
L 380.804392 638.989951 
L 382.909091 637.075406 
L 384.359103 635.713079 
L 386.181818 634.211651 
L 388.201952 632.436208 
L 389.454545 631.713259 
L 392.605213 629.159336 
L 392.727273 629.090797 
L 396 627.422915 
L 398.605912 625.882465 
L 399.272727 625.529032 
L 402.545455 624.186333 
L 405.818182 622.845001 
L 406.368183 622.605593 
L 409.090909 621.336084 
L 412.363636 620.007706 
L 414.118878 619.328722 
L 415.636364 618.622212 
L 418.909091 616.993505 
L 421.136352 616.05185 
L 422.181818 615.663778 
L 425.454545 614.06258 
L 428.088563 612.774979 
L 428.727273 612.60709 
L 432 611.588024 
L 435.272727 610.220381 
L 436.839833 609.498107 
L 438.545455 609.060707 
L 441.818182 608.297362 
L 445.090909 607.132263 
L 447.399427 606.221236 
L 448.363636 605.973256 
L 451.636364 605.059366 
L 454.909091 603.994691 
L 458.059328 602.944364 
L 458.181818 602.913946 
L 461.454545 602.024999 
L 464.727273 600.903273 
L 468 599.851283 
L 468.587756 599.667492 
L 471.272727 598.922589 
L 474.545455 597.957749 
L 477.818182 596.816575 
L 479.037734 596.390621 
L 481.090909 595.777671 
L 484.363636 594.943328 
L 487.636364 593.970522 
L 490.196032 593.113749 
L 490.909091 592.886235 
L 494.181818 591.925179 
L 497.454545 591.033659 
L 500.727273 589.99586 
L 501.185358 589.836878 
L 504 588.909444 
L 507.272727 587.842618 
L 510.545455 586.731774 
L 511.034507 586.560006 
L 513.818182 585.671341 
L 517.090909 584.609267 
L 520.363636 583.468446 
L 520.919631 583.283135 
L 523.636364 582.472428 
L 526.909091 581.400406 
L 530.181818 580.243953 
L 530.852627 580.006263 
L 533.454545 579.185359 
L 536.727273 577.70499 
L 538.298207 576.729392 
L 540 575.88504 
L 543.272727 574.725364 
L 546.410696 573.45252 
L 546.545455 573.414729 
L 549.818182 571.685046 
L 553.090909 570.716272 
L 554.327548 570.175649 
L 556.363636 569.576074 
L 559.636364 568.149895 
L 562.727392 566.898777 
L 562.909091 566.853502 
L 566.181818 565.896463 
L 569.454545 564.041292 
L 570.347173 563.621905 
L 572.727273 562.817573 
L 576 561.057304 
L 576 560.345034 
L 576 557.908024 
L 572.727273 557.833629 
L 569.454545 558.261831 
L 566.546938 557.068162 
L 566.181818 557.025448 
L 562.909091 556.920339 
L 561.063146 557.068162 
L 559.636364 557.69581 
L 556.363636 559.640995 
L 553.090909 560.055128 
L 550.324216 560.345034 
L 549.818182 560.576581 
L 546.545455 562.376852 
L 543.272727 563.180573 
L 540.284253 563.621905 
L 540 563.750641 
L 536.727273 564.911142 
L 533.454545 566.070274 
L 530.181818 566.878759 
L 530.109424 566.898777 
L 526.909091 567.697638 
L 523.636364 568.020934 
L 520.363636 568.558328 
L 517.090909 569.314795 
L 513.818182 569.330557 
L 510.545455 569.455109 
L 507.272727 569.674993 
L 504 569.6993 
L 500.727273 569.728989 
L 497.454545 569.828109 
L 495.689911 570.175649 
L 494.181818 570.596248 
L 490.909091 571.51097 
L 487.636364 571.998937 
L 484.363636 572.603128 
L 481.774221 573.45252 
L 481.090909 573.688749 
L 477.818182 573.977909 
L 474.545455 574.162712 
L 471.272727 574.683869 
L 468 574.758072 
L 464.727273 574.783368 
L 461.454545 574.84103 
L 458.181818 575.816288 
L 454.909091 576.651582 
L 454.470998 576.729392 
L 451.636364 577.407975 
L 448.363636 578.313301 
L 445.090909 579.40591 
L 441.818182 579.859491 
L 440.587677 580.006263 
L 438.545455 580.416954 
L 435.272727 581.77235 
L 432 582.16672 
L 428.727273 582.638095 
L 426.272124 583.283135 
L 425.454545 583.533393 
L 422.181818 584.67867 
L 418.909091 585.799786 
L 416.829309 586.560006 
L 415.636364 586.99236 
L 412.363636 588.072909 
L 409.090909 589.239082 
L 407.557975 589.836878 
L 405.818182 590.426473 
L 402.545455 591.488286 
L 399.272727 592.687025 
L 398.249821 593.113749 
L 396 593.865989 
L 392.727273 594.84468 
L 389.454545 596.209159 
L 389.039467 596.390621 
L 386.181818 597.351842 
L 382.909091 598.446923 
L 379.906534 599.667492 
L 379.636364 599.760033 
L 376.363636 600.831355 
L 373.090909 602.009902 
L 370.642162 602.944364 
L 369.818182 603.2068 
L 366.545455 604.257433 
L 363.272727 605.531335 
L 361.407216 606.221236 
L 360 606.635081 
L 356.727273 607.399805 
L 353.454545 608.019017 
L 350.181818 608.379702 
L 346.909091 608.838366 
L 343.636364 609.246102 
L 342.065424 609.498107 
L 340.363636 609.797915 
L 337.090909 610.339304 
L 333.818182 610.900349 
L 330.545455 611.41725 
L 327.272727 611.933075 
L 324 612.471833 
L 321.950751 612.774979 
L 320.727273 612.958509 
L 317.454545 613.552438 
L 314.181818 613.997274 
L 310.909091 614.384988 
L 307.636364 614.920543 
L 304.363636 615.316955 
L 301.090909 615.628606 
L 297.818182 616.007517 
L 297.507516 616.05185 
L 294.545455 616.545893 
L 291.272727 617.076384 
L 288 617.544638 
L 284.727273 618.228633 
L 281.454545 619.206648 
L 281.031556 619.328722 
L 278.181818 620.060431 
L 274.909091 620.702754 
L 271.636364 621.48335 
L 268.363636 621.925287 
L 265.090909 622.493955 
L 264.67754 622.605593 
L 261.818182 623.538381 
L 258.545455 624.355969 
L 255.272727 625.258725 
L 253.468797 625.882465 
L 252 626.330316 
L 248.727273 627.288599 
L 245.454545 628.4189 
L 242.181818 629.026629 
L 241.365471 629.159336 
L 238.909091 629.690508 
L 235.636364 630.30703 
L 232.363636 631.306111 
L 229.090909 632.136064 
L 228.443537 632.436208 
L 225.818182 633.454712 
L 222.545455 634.386185 
L 219.542618 635.713079 
L 219.272727 635.81244 
L 216 636.703289 
L 212.727273 637.761248 
L 209.454545 638.149483 
L 206.181818 638.631078 
L 204.806972 638.989951 
L 202.909091 639.588993 
L 199.636364 640.633912 
L 196.363636 641.673393 
L 195.233061 642.266823 
L 193.090909 643.053384 
L 189.818182 643.911447 
L 186.926141 645.543694 
L 186.545455 645.692028 
L 183.272727 646.202843 
L 180 647.702265 
L 176.727273 648.076266 
L 173.454545 648.573172 
L 172.648794 648.820566 
L 170.181818 649.696424 
L 166.909091 650.508159 
L 163.636364 651.334326 
L 162.296902 652.097437 
L 160.363636 652.70264 
L 158.632236 652.097437 
L 160.363636 650.325764 
L 161.25143 648.820566 
L 160.363636 647.743857 
L 157.090909 646.998738 
L 153.818182 646.142071 
L 151.129272 645.543694 
L 153.818182 645.231461 
L 155.996393 642.266823 
L 157.090909 641.685588 
L 160.363636 640.313681 
L 161.67249 638.989951 
L 163.636364 637.546942 
L 166.909091 636.270788 
L 167.49287 635.713079 
L 170.181818 632.827269 
L 170.854387 632.436208 
L 173.454545 629.873704 
L 174.090551 629.159336 
L 176.727273 627.815097 
L 179.662137 625.882465 
L 180 625.729961 
L 183.272727 624.43487 
L 186.545455 623.103414 
L 187.43615 622.605593 
L 189.818182 621.66013 
L 193.090909 620.365489 
L 195.287498 619.328722 
L 196.363636 619.096535 
L 199.636364 617.636911 
L 202.909091 616.157641 
L 203.151877 616.05185 
L 206.181818 615.392785 
L 209.454545 613.503658 
L 211.183493 612.774979 
L 212.727273 612.555263 
L 216 611.204686 
L 218.937437 609.498107 
L 219.272727 609.431021 
L 222.545455 608.732907 
L 225.818182 606.751513 
L 226.818207 606.221236 
L 229.090909 605.801613 
L 232.363636 604.908152 
L 235.014695 602.944364 
L 235.636364 602.716867 
L 238.909091 602.17277 
L 242.181818 600.987486 
L 244.118502 599.667492 
L 245.454545 599.22477 
L 248.727273 598.533907 
L 252 597.26779 
L 255.272727 596.694611 
L 258.545455 596.434939 
L 258.606476 596.390621 
L 261.818182 594.492854 
L 265.090909 593.758941 
L 266.139853 593.113749 
L 268.363636 591.986114 
L 271.636364 590.923392 
L 273.673231 589.836878 
L 274.909091 589.288044 
L 278.181818 587.981074 
L 281.454545 586.603951 
L 281.522161 586.560006 
L 284.727273 585.36009 
L 288 584.564851 
L 290.275054 583.283135 
L 288 581.669324 
L 286.271879 580.006263 
L 284.727273 579.377961 
L 281.454545 578.967329 
L 278.181818 578.819207 
L 274.909091 579.925308 
L 274.721991 580.006263 
L 271.636364 581.777645 
L 268.363636 582.652897 
L 267.148689 583.283135 
L 265.090909 584.741041 
L 261.818182 585.009377 
L 259.575387 586.560006 
L 258.545455 587.512772 
L 255.584584 586.560006 
L 255.272727 586.501834 
L 252 586.223992 
L 251.03653 586.560006 
L 248.727273 588.096333 
L 245.454545 588.433808 
L 242.181818 589.445728 
L 241.05933 589.836878 
L 238.909091 590.783015 
L 235.636364 591.693084 
L 232.363636 592.806801 
L 231.502181 593.113749 
L 229.090909 594.048312 
L 225.818182 595.246304 
L 222.545455 596.209521 
L 222.201888 596.390621 
L 219.272727 597.648391 
L 216 598.765711 
L 213.650778 599.667492 
L 212.727273 600.190039 
L 209.454545 601.275531 
L 206.181818 602.390712 
L 204.78547 602.944364 
L 202.909091 603.736579 
L 199.636364 604.782698 
L 196.363636 605.818371 
L 195.487058 606.221236 
L 193.090909 607.148759 
L 189.818182 608.289602 
L 186.545455 609.392076 
L 186.359597 609.498107 
L 183.272727 610.664871 
L 180 611.710993 
L 177.437925 612.774979 
L 176.727273 613.114243 
L 173.454545 614.246685 
L 170.181818 615.277534 
L 168.600195 616.05185 
L 166.909091 616.75283 
L 163.636364 617.911211 
L 160.363636 618.995468 
L 159.802722 619.328722 
L 157.090909 620.353394 
L 153.818182 621.43254 
L 151.048588 622.605593 
L 150.545455 622.864398 
L 147.272727 624.021351 
L 144 625.043203 
L 142.422339 625.882465 
L 140.727273 626.674737 
L 137.454545 627.723808 
L 134.666318 629.159336 
L 134.181818 629.459654 
L 130.909091 629.924094 
L 127.636364 631.858186 
L 124.363636 631.985323 
L 121.632497 632.436208 
L 121.090909 632.655443 
L 117.818182 634.044896 
L 114.545455 634.453426 
L 111.272727 635.441131 
L 110.735216 635.713079 
L 108 636.711387 
L 104.727273 637.358241 
L 101.454545 638.400177 
L 100.392464 638.989951 
L 98.181818 639.733407 
L 94.909091 639.203917 
L 93.56349 638.989951 
L 91.636364 638.754184 
L 88.363636 638.438189 
L 85.090909 638.437413 
L 81.818182 638.82934 
L 80.714323 638.989951 
L 78.545455 639.315316 
L 75.272727 639.633953 
L 72 640.31976 
L 68.727273 640.807734 
L 65.454545 641.965948 
L 64.001206 642.266823 
L 62.181818 642.488966 
L 60.665614 642.266823 
L 58.909091 641.942563 
L 55.636364 641.781418 
L 52.363636 641.612819 
L 49.090909 641.528543 
L 45.818182 641.76808 
L 42.545455 642.056116 
L 41.1218 642.266823 
L 39.272727 642.537458 
L 36 643.229477 
L 32.727273 643.638123 
L 29.454545 644.12817 
L 26.181818 644.893622 
L 22.909091 645.282973 
L 19.636364 645.304885 
L 16.363636 645.485886 
L 16.016704 645.543694 
L 13.090909 646.111645 
L 9.818182 646.557729 
L 6.545455 646.882582 
L 3.272727 647.334313 
L 0 647.929258 
L 0 648.820566 
L 0 649.397572 
L 1.747195 648.820566 
L 3.272727 648.508686 
L 6.545455 648.172591 
L 9.818182 648.050593 
L 13.090909 647.883068 
L 16.363636 647.521847 
L 19.636364 646.865621 
L 22.909091 646.739869 
L 26.181818 646.476224 
L 29.315539 645.543694 
L 29.454545 645.508339 
L 32.727273 644.808102 
L 36 644.453372 
L 39.272727 644.01276 
L 42.545455 643.770641 
L 45.818182 643.657547 
L 49.090909 643.50678 
L 52.363636 644.392438 
L 54.541771 645.543694 
L 55.636364 645.81168 
L 56.223682 645.543694 
L 58.909091 644.12518 
L 62.181818 643.78746 
L 65.454545 643.639893 
L 68.553604 642.266823 
L 68.727273 642.199488 
L 72 641.313107 
L 75.272727 640.882554 
L 78.545455 640.89802 
L 81.818182 640.941272 
L 85.090909 641.133326 
L 86.950621 642.266823 
L 88.363636 642.784359 
L 91.636364 643.361656 
L 93.236714 642.266823 
L 94.909091 641.095243 
L 98.181818 640.863768 
L 101.454545 640.157387 
L 103.301219 638.989951 
L 104.727273 638.425967 
L 108 637.722369 
L 111.272727 637.02903 
L 113.548943 635.713079 
L 114.545455 635.384545 
L 117.818182 635.356037 
L 120.587355 635.713079 
L 121.090909 635.854657 
L 121.197021 635.713079 
L 124.363636 633.444006 
L 127.636364 633.607667 
L 129.027179 632.436208 
L 130.909091 631.231432 
L 134.181818 630.725465 
L 136.708434 629.159336 
L 137.454545 628.775198 
L 140.727273 627.673263 
L 144 626.376972 
L 144.603583 625.882465 
L 147.272727 624.884391 
L 150.545455 624.051909 
L 153.35719 622.605593 
L 153.818182 622.410341 
L 157.090909 621.225929 
L 160.363636 620.402573 
L 162.157129 619.328722 
L 163.636364 618.783829 
L 166.909091 617.734771 
L 170.181818 616.644309 
L 170.969112 616.05185 
L 173.454545 615.127604 
L 176.727273 614.25811 
L 179.833972 612.774979 
L 180 612.70603 
L 183.272727 611.57052 
L 186.545455 610.838235 
L 188.951667 609.498107 
L 189.818182 609.196764 
L 193.090909 608.163382 
L 196.363636 607.457899 
L 198.246357 606.221236 
L 199.636364 605.747258 
L 202.909091 604.930871 
L 206.181818 604.120649 
L 207.585312 602.944364 
L 209.454545 602.272206 
L 212.727273 601.661682 
L 216 600.069578 
L 216.350001 599.667492 
L 219.272727 598.76519 
L 222.545455 598.268336 
L 225.751239 596.390621 
L 225.818182 596.370251 
L 229.090909 595.510728 
L 232.363636 595.222924 
L 235.305371 593.113749 
L 235.636364 593.000251 
L 238.909091 592.46802 
L 242.181818 592.248847 
L 244.493293 593.113749 
L 242.181818 595.745779 
L 241.297557 596.390621 
L 238.909091 597.140525 
L 235.636364 598.132663 
L 233.579663 599.667492 
L 232.363636 600.219331 
L 229.090909 601.060027 
L 225.818182 602.653248 
L 225.469657 602.944364 
L 222.545455 604.150205 
L 219.272727 605.159796 
L 217.476243 606.221236 
L 216 606.845423 
L 212.727273 608.041048 
L 209.454545 609.468045 
L 209.400448 609.498107 
L 206.181818 610.697309 
L 202.909091 611.863744 
L 200.605402 612.774979 
L 199.636364 613.169038 
L 196.363636 614.552481 
L 193.090909 615.57103 
L 192.139074 616.05185 
L 189.818182 617.110444 
L 186.545455 618.287951 
L 183.905971 619.328722 
L 183.272727 619.6889 
L 180 620.905903 
L 176.727273 622.162715 
L 175.696143 622.605593 
L 173.454545 623.744766 
L 170.181818 624.802398 
L 167.52248 625.882465 
L 166.909091 626.32906 
L 163.636364 627.705392 
L 160.363636 628.710433 
L 159.334301 629.159336 
L 157.090909 630.629469 
L 153.818182 631.514375 
L 151.351389 632.436208 
L 150.545455 633.103633 
L 147.272727 634.640177 
L 144 635.356866 
L 143.191532 635.713079 
L 140.727273 637.824196 
L 137.454545 638.779018 
L 136.837681 638.989951 
L 134.181818 641.139318 
L 130.909091 642.263217 
L 130.891166 642.266823 
L 127.636364 644.512487 
L 125.8455 645.543694 
L 124.363636 646.146033 
L 121.090909 648.715682 
L 120.946408 648.820566 
L 117.818182 649.85441 
L 114.919078 652.097437 
L 114.545455 652.285814 
L 111.272727 653.169383 
L 108 654.387837 
L 105.562682 655.374309 
L 104.727273 655.549659 
L 101.454545 655.969339 
L 98.181818 656.958971 
L 94.909091 656.127666 
L 92.837885 655.374309 
L 91.636364 655.310783 
L 91.115449 655.374309 
L 88.363636 656.823474 
L 85.090909 657.740931 
L 81.818182 657.974692 
L 79.886536 658.65118 
L 78.545455 659.741529 
L 75.272727 660.541176 
L 72 661.292483 
L 70.255977 661.928052 
L 68.727273 662.754201 
L 65.454545 663.744845 
L 62.181818 664.40379 
L 60.583615 665.204923 
L 58.909091 665.954294 
L 55.636364 666.603217 
L 52.363636 667.31599 
L 49.817409 668.481795 
L 49.090909 668.715937 
L 45.818182 668.807394 
L 42.545455 668.916128 
L 39.272727 669.595454 
L 36 669.678942 
L 32.727273 669.619989 
L 29.454545 670.401586 
L 28.082896 671.758666 
L 26.181818 672.408981 
L 22.909091 672.455083 
L 19.636364 672.980255 
L 16.363636 674.346563 
L 15.167323 675.035538 
L 13.090909 675.562355 
L 9.818182 676.04242 
L 6.545455 676.396698 
L 3.272727 677.019944 
L 0 677.403371 
L 0 678.312409 
L 0 681.589281 
L 0 684.866153 
L 0 684.956328 
L 0.26717 684.866153 
L 3.272727 684.029639 
L 6.545455 683.412245 
L 9.818182 682.954022 
L 13.090909 682.743753 
L 16.363636 682.608017 
L 18.190997 681.589281 
L 19.636364 681.256921 
L 22.909091 681.390555 
L 26.181818 681.554009 
L 29.454545 681.246501 
L 32.727273 680.246274 
L 36 680.07585 
L 39.272727 679.693108 
L 42.545455 679.120065 
L 44.845112 678.312409 
L 45.818182 678.128345 
L 47.334561 678.312409 
L 49.090909 679.049624 
L 52.363636 679.92522 
L 55.636364 680.398356 
L 58.909091 679.212466 
L 62.181818 678.517128 
L 65.454545 678.497405 
L 66.621713 678.312409 
L 68.727273 678.044763 
L 72 677.613419 
L 75.272727 677.630201 
L 78.545455 678.039942 
L 79.75017 678.312409 
L 81.818182 678.824994 
L 85.090909 678.513948 
L 86.30881 678.312409 
L 88.363636 678.137074 
L 91.636364 677.76505 
L 93.857839 678.312409 
L 94.909091 678.86654 
L 98.181818 679.365712 
L 101.454545 680.239377 
L 104.727273 681.07272 
L 107.863736 681.589281 
L 108 681.641818 
L 110.978096 684.866153 
L 111.272727 685.842334 
L 111.942956 688.143024 
L 113.012274 691.419896 
L 112.732495 694.696767 
L 112.608587 697.973639 
L 112.980932 701.25051 
L 112.838957 704.527382 
L 112.239561 707.804253 
L 111.272727 710.463829 
L 110.80906 711.081125 
L 110.218455 714.357996 
L 109.96746 717.634868 
L 108 720.325356 
L 107.717549 720.91174 
L 104.727273 722.937861 
L 103.423599 724.188611 
L 101.454545 726.130876 
L 99.343737 727.465483 
L 98.181818 729.024733 
L 96.537701 730.742354 
L 94.909091 732.938055 
L 94.158795 734.019226 
L 91.636364 734.828626 
L 88.363636 736.223228 
L 87.051169 737.296097 
L 85.090909 737.99715 
L 81.818182 738.869556 
L 79.302906 740.572969 
L 78.545455 740.802445 
L 75.272727 741.667638 
L 72 743.263182 
L 71.2969 743.84984 
L 68.727273 744.539387 
L 65.454545 745.251019 
L 62.572656 747.126712 
L 62.181818 747.261221 
L 58.909091 748.03195 
L 55.636364 748.557835 
L 52.363636 749.371753 
L 50.763605 750.403583 
L 49.090909 750.77181 
L 45.818182 750.797516 
L 42.545455 750.858293 
L 39.272727 752.583158 
L 36 753.392305 
L 32.727273 753.590272 
L 32.49109 753.680455 
L 29.454545 755.144957 
L 26.181818 756.21827 
L 23.222518 756.957327 
L 22.909091 757.032983 
L 19.636364 757.900035 
L 16.363636 758.514941 
L 13.090909 759.125012 
L 9.818182 759.758196 
L 7.298341 760.234198 
L 6.545455 760.384952 
L 3.272727 761.01977 
L 0 761.664946 
L 0 763.51107 
L 0 766.787941 
L 0 770.064813 
L 0 773.341684 
L 0 776.618556 
L 0 778.98379 
L 3.272727 778.381228 
L 6.545455 777.370569 
L 8.163172 776.618556 
L 9.818182 776.336047 
L 13.090909 776.073839 
L 16.363636 775.740812 
L 19.636364 775.286505 
L 22.909091 774.472078 
L 25.415457 773.341684 
L 26.181818 773.198896 
L 28.402495 773.341684 
L 29.454545 773.53635 
L 32.727273 774.062702 
L 36 774.370629 
L 37.444092 773.341684 
L 39.272727 772.444152 
L 42.545455 772.302996 
L 45.818182 772.12996 
L 49.090909 770.639011 
L 49.969738 770.064813 
L 52.363636 769.566439 
L 55.636364 769.296073 
L 58.909091 768.542053 
L 62.181818 766.90999 
L 65.454545 767.324937 
L 68.727273 767.802437 
L 72 768.298207 
L 74.363942 766.787941 
L 75.272727 766.375342 
L 78.545455 765.866464 
L 81.818182 766.002833 
L 85.090909 765.088966 
L 87.062839 763.51107 
L 88.363636 763.148803 
L 91.636364 763.038728 
L 94.909091 762.460285 
L 98.181818 761.455799 
L 101.454545 761.246724 
L 104.727273 761.844736 
L 108 763.380946 
L 108.197952 763.51107 
L 108 763.525087 
L 104.81099 766.787941 
L 104.727273 766.811011 
L 101.454545 766.820984 
L 98.181818 766.984104 
L 97.011806 766.787941 
L 94.909091 764.719005 
L 91.636364 765.743882 
L 91.069792 766.787941 
L 88.363636 767.147477 
L 85.090909 766.989222 
L 81.818182 767.155897 
L 79.140583 770.064813 
L 78.545455 770.235077 
L 75.272727 770.193637 
L 72 770.336182 
L 68.727273 772.263233 
L 67.461107 773.341684 
L 65.454545 773.458842 
L 62.181818 773.57829 
L 60.441966 773.341684 
L 58.909091 771.702736 
L 55.636364 770.737762 
L 53.44451 773.341684 
L 52.363636 773.773749 
L 49.090909 773.606693 
L 45.818182 773.694181 
L 43.117053 776.618556 
L 42.545455 776.838987 
L 39.272727 776.797267 
L 36 776.925848 
L 32.727273 778.142718 
L 31.036887 779.895427 
L 29.454545 780.064197 
L 26.181818 780.181759 
L 22.909091 780.403915 
L 19.636364 781.26921 
L 17.718981 783.172299 
L 16.363636 783.328674 
L 13.090909 783.368091 
L 9.818182 783.434346 
L 6.545455 783.555849 
L 3.272727 783.885008 
L 0.276862 786.44917 
L 0 786.498694 
L 0 787.661132 
z
M 127.134942 760.234198 
L 127.636364 760.089194 
L 127.707192 760.234198 
L 127.636364 760.265916 
z
M 235.088846 737.296097 
L 235.636364 736.725002 
L 236.357156 737.296097 
L 235.636364 739.689361 
z
M 336.965334 675.035538 
L 337.090909 674.868614 
L 337.281956 675.035538 
L 337.090909 675.071426 
z
M 245.242309 589.836878 
L 245.454545 589.771313 
L 245.863386 589.836878 
L 245.454545 590.877032 
z
M 157.090909 764.368391 
L 157.947146 763.51107 
L 157.090909 761.969109 
L 156.17102 763.51107 
z
M 291.272727 580.791146 
L 294.545455 582.130421 
L 297.818182 581.129254 
L 299.36574 580.006263 
L 297.818182 579.675728 
L 294.545455 578.979742 
L 291.272727 579.825641 
L 290.885928 580.006263 
z
M 304.363636 578.508785 
L 307.636364 577.102553 
L 309.228439 576.729392 
L 307.636364 576.699616 
L 304.363636 576.522037 
L 303.5788 576.729392 
z
M 288 575.959549 
L 288.913214 573.45252 
L 288 572.601054 
L 287.149611 573.45252 
z
M 294.545455 571.220889 
L 295.40959 570.175649 
L 294.545455 569.324182 
L 293.695065 570.175649 
z
M 327.272727 567.063085 
L 330.545455 567.060307 
L 330.619509 566.898777 
L 330.545455 566.830419 
L 327.272727 566.830419 
L 327.204455 566.898777 
z
" clip-path="url(#pb3c8c3c012)" style="fill: #f5f9fe; fill-opacity: 0.9"/>
    <path d="M 0.276862 786.44917 
L 3.272727 783.885008 
L 6.545455 783.555849 
L 9.818182 783.434346 
L 13.090909 783.368091 
L 16.363636 783.328674 
L 17.718981 783.172299 
L 19.636364 781.26921 
L 22.909091 780.403915 
L 26.181818 780.181759 
L 29.454545 780.064197 
L 31.036887 779.895427 
L 32.727273 778.142718 
L 36 776.925848 
L 39.272727 776.797267 
L 42.545455 776.838987 
L 43.117053 776.618556 
L 45.818182 773.694181 
L 49.090909 773.606693 
L 52.363636 773.773749 
L 53.44451 773.341684 
L 55.636364 770.737762 
L 58.909091 771.702736 
L 60.441966 773.341684 
L 62.181818 773.57829 
L 65.454545 773.458842 
L 67.461107 773.341684 
L 68.727273 772.263233 
L 72 770.336182 
L 75.272727 770.193637 
L 78.545455 770.235077 
L 79.140583 770.064813 
L 81.818182 767.155897 
L 85.090909 766.989222 
L 88.363636 767.147477 
L 91.069792 766.787941 
L 91.636364 765.743882 
L 94.909091 764.719005 
L 97.011806 766.787941 
L 98.181818 766.984104 
L 101.454545 766.820984 
L 104.727273 766.811011 
L 104.81099 766.787941 
L 108 763.525087 
L 108.197952 763.51107 
L 108 763.380946 
L 104.727273 761.844736 
L 101.454545 761.246724 
L 98.181818 761.455799 
L 94.909091 762.460285 
L 91.636364 763.038728 
L 88.363636 763.148803 
L 87.062839 763.51107 
L 85.090909 765.088966 
L 81.818182 766.002833 
L 78.545455 765.866464 
L 75.272727 766.375342 
L 74.363942 766.787941 
L 72 768.298207 
L 68.727273 767.802437 
L 65.454545 767.324937 
L 62.181818 766.90999 
L 58.909091 768.542053 
L 55.636364 769.296073 
L 52.363636 769.566439 
L 49.969738 770.064813 
L 49.090909 770.639011 
L 45.818182 772.12996 
L 42.545455 772.302996 
L 39.272727 772.444152 
L 37.444092 773.341684 
L 36 774.370629 
L 32.727273 774.062702 
L 29.454545 773.53635 
L 28.402495 773.341684 
L 26.181818 773.198896 
L 25.415457 773.341684 
L 22.909091 774.472078 
L 19.636364 775.286505 
L 16.363636 775.740812 
L 13.090909 776.073839 
L 9.818182 776.336047 
L 8.163172 776.618556 
L 6.545455 777.370569 
L 3.272727 778.381228 
L 0 778.98379 
L 0 779.895427 
L 0 783.172299 
L 0 786.44917 
L 0 786.498694 
z
M 127.636364 760.265916 
L 127.707192 760.234198 
L 127.636364 760.089194 
L 127.134942 760.234198 
z
M 3.272727 677.019944 
L 6.545455 676.396698 
L 9.818182 676.04242 
L 13.090909 675.562355 
L 15.167323 675.035538 
L 16.363636 674.346563 
L 19.636364 672.980255 
L 22.909091 672.455083 
L 26.181818 672.408981 
L 28.082896 671.758666 
L 29.454545 670.401586 
L 32.727273 669.619989 
L 36 669.678942 
L 39.272727 669.595454 
L 42.545455 668.916128 
L 45.818182 668.807394 
L 49.090909 668.715937 
L 49.817409 668.481795 
L 52.363636 667.31599 
L 55.636364 666.603217 
L 58.909091 665.954294 
L 60.583615 665.204923 
L 62.181818 664.40379 
L 65.454545 663.744845 
L 68.727273 662.754201 
L 70.255977 661.928052 
L 72 661.292483 
L 75.272727 660.541176 
L 78.545455 659.741529 
L 79.886536 658.65118 
L 81.818182 657.974692 
L 85.090909 657.740931 
L 88.363636 656.823474 
L 91.115449 655.374309 
L 91.636364 655.310783 
L 92.837885 655.374309 
L 94.909091 656.127666 
L 98.181818 656.958971 
L 101.454545 655.969339 
L 104.727273 655.549659 
L 105.562682 655.374309 
L 108 654.387837 
L 111.272727 653.169383 
L 114.545455 652.285814 
L 114.919078 652.097437 
L 117.818182 649.85441 
L 120.946408 648.820566 
L 121.090909 648.715682 
L 124.363636 646.146033 
L 125.8455 645.543694 
L 127.636364 644.512487 
L 130.891166 642.266823 
L 130.909091 642.263217 
L 134.181818 641.139318 
L 136.837681 638.989951 
L 137.454545 638.779018 
L 140.727273 637.824196 
L 143.191532 635.713079 
L 144 635.356866 
L 147.272727 634.640177 
L 150.545455 633.103633 
L 151.351389 632.436208 
L 153.818182 631.514375 
L 157.090909 630.629469 
L 159.334301 629.159336 
L 160.363636 628.710433 
L 163.636364 627.705392 
L 166.909091 626.32906 
L 167.52248 625.882465 
L 170.181818 624.802398 
L 173.454545 623.744766 
L 175.696143 622.605593 
L 176.727273 622.162715 
L 180 620.905903 
L 183.272727 619.6889 
L 183.905971 619.328722 
L 186.545455 618.287951 
L 189.818182 617.110444 
L 192.139074 616.05185 
L 193.090909 615.57103 
L 196.363636 614.552481 
L 199.636364 613.169038 
L 200.605402 612.774979 
L 202.909091 611.863744 
L 206.181818 610.697309 
L 209.400448 609.498107 
L 209.454545 609.468045 
L 212.727273 608.041048 
L 216 606.845423 
L 217.476243 606.221236 
L 219.272727 605.159796 
L 222.545455 604.150205 
L 225.469657 602.944364 
L 225.818182 602.653248 
L 229.090909 601.060027 
L 232.363636 600.219331 
L 233.579663 599.667492 
L 235.636364 598.132663 
L 238.909091 597.140525 
L 241.297557 596.390621 
L 242.181818 595.745779 
L 244.493293 593.113749 
L 242.181818 592.248847 
L 238.909091 592.46802 
L 235.636364 593.000251 
L 235.305371 593.113749 
L 232.363636 595.222924 
L 229.090909 595.510728 
L 225.818182 596.370251 
L 225.751239 596.390621 
L 222.545455 598.268336 
L 219.272727 598.76519 
L 216.350001 599.667492 
L 216 600.069578 
L 212.727273 601.661682 
L 209.454545 602.272206 
L 207.585312 602.944364 
L 206.181818 604.120649 
L 202.909091 604.930871 
L 199.636364 605.747258 
L 198.246357 606.221236 
L 196.363636 607.457899 
L 193.090909 608.163382 
L 189.818182 609.196764 
L 188.951667 609.498107 
L 186.545455 610.838235 
L 183.272727 611.57052 
L 180 612.70603 
L 179.833972 612.774979 
L 176.727273 614.25811 
L 173.454545 615.127604 
L 170.969112 616.05185 
L 170.181818 616.644309 
L 166.909091 617.734771 
L 163.636364 618.783829 
L 162.157129 619.328722 
L 160.363636 620.402573 
L 157.090909 621.225929 
L 153.818182 622.410341 
L 153.35719 622.605593 
L 150.545455 624.051909 
L 147.272727 624.884391 
L 144.603583 625.882465 
L 144 626.376972 
L 140.727273 627.673263 
L 137.454545 628.775198 
L 136.708434 629.159336 
L 134.181818 630.725465 
L 130.909091 631.231432 
L 129.027179 632.436208 
L 127.636364 633.607667 
L 124.363636 633.444006 
L 121.197021 635.713079 
L 121.090909 635.854657 
L 120.587355 635.713079 
L 117.818182 635.356037 
L 114.545455 635.384545 
L 113.548943 635.713079 
L 111.272727 637.02903 
L 108 637.722369 
L 104.727273 638.425967 
L 103.301219 638.989951 
L 101.454545 640.157387 
L 98.181818 640.863768 
L 94.909091 641.095243 
L 93.236714 642.266823 
L 91.636364 643.361656 
L 88.363636 642.784359 
L 86.950621 642.266823 
L 85.090909 641.133326 
L 81.818182 640.941272 
L 78.545455 640.89802 
L 75.272727 640.882554 
L 72 641.313107 
L 68.727273 642.199488 
L 68.553604 642.266823 
L 65.454545 643.639893 
L 62.181818 643.78746 
L 58.909091 644.12518 
L 56.223682 645.543694 
L 55.636364 645.81168 
L 54.541771 645.543694 
L 52.363636 644.392438 
L 49.090909 643.50678 
L 45.818182 643.657547 
L 42.545455 643.770641 
L 39.272727 644.01276 
L 36 644.453372 
L 32.727273 644.808102 
L 29.454545 645.508339 
L 29.315539 645.543694 
L 26.181818 646.476224 
L 22.909091 646.739869 
L 19.636364 646.865621 
L 16.363636 647.521847 
L 13.090909 647.883068 
L 9.818182 648.050593 
L 6.545455 648.172591 
L 3.272727 648.508686 
L 1.747195 648.820566 
L 0 649.397572 
L 0 651.294627 
L 3.272727 650.534246 
L 6.545455 649.992982 
L 9.818182 649.914119 
L 13.090909 649.876798 
L 16.363636 649.694697 
L 18.362899 648.820566 
L 19.636364 648.448986 
L 22.909091 648.196099 
L 26.181818 648.091024 
L 29.454545 647.616824 
L 32.727273 646.658806 
L 36 645.907548 
L 38.432314 645.543694 
L 39.272727 645.488062 
L 42.545455 645.52179 
L 42.809554 645.543694 
L 45.818182 646.590474 
L 49.090909 647.689778 
L 52.363636 647.270726 
L 55.636364 647.813732 
L 58.909091 647.068114 
L 60.623798 645.543694 
L 62.181818 645.085954 
L 65.454545 645.230305 
L 68.727273 644.637723 
L 72 642.493737 
L 72.87894 642.266823 
L 75.272727 642.131154 
L 76.73128 642.266823 
L 78.545455 643.639583 
L 79.672014 645.543694 
L 81.818182 647.667906 
L 85.090909 647.85101 
L 86.834841 645.543694 
L 88.363636 644.985448 
L 91.636364 645.208636 
L 94.909091 644.35005 
L 96.912064 642.266823 
L 98.181818 641.994129 
L 101.454545 641.864147 
L 104.727273 640.884131 
L 106.855214 638.989951 
L 108 638.733351 
L 111.272727 638.661827 
L 113.316277 638.989951 
L 114.222504 642.266823 
L 111.272727 643.562646 
L 108 644.545555 
L 105.626443 645.543694 
L 104.727273 645.895544 
L 101.454545 646.952288 
L 98.181818 647.845452 
L 96.526675 648.820566 
L 94.909091 649.36522 
L 91.636364 649.932864 
L 88.363636 651.176173 
L 85.958593 652.097437 
L 85.090909 652.240433 
L 81.818182 652.598333 
L 78.545455 653.282302 
L 75.272727 653.390689 
L 72 653.130096 
L 68.727273 653.093223 
L 65.454545 654.227104 
L 62.181818 654.328251 
L 59.689569 655.374309 
L 58.909091 655.825229 
L 55.636364 656.896195 
L 52.363636 657.465579 
L 49.680695 658.65118 
L 49.090909 658.925915 
L 45.818182 659.933689 
L 42.545455 660.727802 
L 39.272727 661.890638 
L 39.206113 661.928052 
L 36 662.786128 
L 32.727273 662.842283 
L 29.454545 663.425753 
L 26.181818 664.894056 
L 22.909091 664.425033 
L 19.636364 664.487318 
L 16.363636 664.604997 
L 14.107191 665.204923 
L 13.090909 665.894707 
L 9.818182 666.811501 
L 6.545455 667.28295 
L 3.272727 668.148698 
L 2.346844 668.481795 
L 0 669.555467 
L 0 671.758666 
L 0 675.035538 
L 0 677.403371 
z
M 115.29173 638.989951 
L 117.818182 637.810485 
L 121.090909 638.713758 
L 123.057145 638.989951 
L 121.090909 639.85409 
L 117.818182 641.037851 
z
M 123.339902 635.713079 
L 124.363636 634.979511 
L 127.636364 635.327704 
L 130.909091 633.750168 
L 131.506246 632.436208 
L 134.181818 631.991275 
L 137.454545 631.387782 
L 139.30421 629.159336 
L 140.727273 628.671789 
L 144 628.2679 
L 146.911607 625.882465 
L 147.272727 625.747431 
L 150.545455 625.239421 
L 153.818182 624.648976 
L 155.714063 622.605593 
L 157.090909 622.098464 
L 160.363636 621.820958 
L 163.636364 620.849353 
L 164.866924 619.328722 
L 166.909091 618.716711 
L 170.181818 618.42698 
L 173.33803 616.05185 
L 173.454545 616.008522 
L 176.727273 615.401977 
L 180 615.155035 
L 182.41618 612.774979 
L 183.272727 612.476168 
L 186.545455 612.291056 
L 189.818182 612.291273 
L 191.961183 612.774979 
L 189.818182 613.299931 
L 186.545455 615.672735 
L 185.738916 616.05185 
L 183.272727 616.477247 
L 180 617.755872 
L 177.767634 619.328722 
L 176.727273 619.700204 
L 173.454545 620.476999 
L 170.181818 622.275961 
L 169.590333 622.605593 
L 166.909091 623.336695 
L 163.636364 624.453539 
L 161.199652 625.882465 
L 160.363636 626.174306 
L 157.090909 627.096889 
L 153.818182 628.329798 
L 152.628506 629.159336 
L 150.545455 629.955717 
L 147.272727 630.741192 
L 144.085315 632.436208 
L 144 632.470401 
L 140.727273 633.476777 
L 137.454545 634.911044 
L 135.90795 635.713079 
L 134.181818 636.13415 
L 130.909091 636.903641 
L 127.636364 638.120943 
L 124.363636 638.601824 
z
M 192.040872 609.498107 
L 193.090909 609.178005 
L 196.363636 609.315934 
L 198.182662 609.498107 
L 196.363636 610.267908 
L 193.090909 612.244291 
z
M 202.462154 606.221236 
L 202.909091 606.125163 
L 204.403352 606.221236 
L 202.909091 607.029124 
z
M 337.090909 675.071426 
L 337.281956 675.035538 
L 337.090909 674.868614 
L 336.965334 675.035538 
z
M 340.363636 672.5277 
L 343.636364 673.137999 
L 346.909091 673.143822 
L 350.181818 673.788194 
L 353.454545 674.668945 
L 356.727273 674.925611 
L 360 674.354132 
L 363.272727 673.91674 
L 366.545455 673.484864 
L 369.818182 673.096526 
L 373.090909 672.992102 
L 376.363636 672.844421 
L 379.636364 672.692883 
L 382.909091 672.254765 
L 384.973214 671.758666 
L 386.181818 671.467154 
L 389.454545 670.955821 
L 392.727273 670.545728 
L 396 670.192747 
L 399.272727 669.956616 
L 402.545455 669.865766 
L 405.818182 669.813641 
L 409.090909 669.346292 
L 412.363636 668.841394 
L 414.17823 668.481795 
L 415.636364 668.271973 
L 418.909091 668.119738 
L 422.181818 668.02831 
L 425.454545 667.766207 
L 428.727273 667.638316 
L 432 667.961634 
L 435.272727 668.438014 
L 435.497524 668.481795 
L 438.545455 669.913942 
L 441.818182 671.709172 
L 442.091375 671.758666 
L 445.090909 671.92692 
L 448.363636 672.220006 
L 451.636364 672.825774 
L 454.909091 672.911416 
L 458.181818 672.195754 
L 461.454545 671.958015 
L 464.727273 671.902008 
L 468 671.866857 
L 471.272727 671.849094 
L 471.802318 671.758666 
L 474.545455 669.785961 
L 477.818182 669.067601 
L 481.090909 668.788915 
L 484.363636 668.537227 
L 484.524491 668.481795 
L 487.636364 666.072013 
L 490.909091 665.754077 
L 494.181818 665.867626 
L 495.453656 665.204923 
L 497.454545 663.287115 
L 500.727273 663.536341 
L 504 664.45307 
L 507.272727 663.258372 
L 510.545455 663.002431 
L 513.818182 662.612409 
L 517.090909 662.198883 
L 517.850169 661.928052 
L 520.363636 660.070733 
L 523.636364 659.509036 
L 526.909091 659.609021 
L 528.750763 658.65118 
L 530.181818 657.259173 
L 533.454545 657.268623 
L 536.727273 658.163199 
L 538.305957 658.65118 
L 540 658.793045 
L 540.381942 658.65118 
L 543.272727 656.55571 
L 546.545455 656.242454 
L 549.818182 655.631457 
L 550.485172 655.374309 
L 553.090909 653.549145 
L 556.363636 652.930218 
L 559.636364 652.746688 
L 560.850341 652.097437 
L 562.909091 650.299649 
L 566.181818 650.044503 
L 569.454545 650.35722 
L 571.598062 648.820566 
L 572.727273 647.506338 
L 576 648.817031 
L 576 645.543694 
L 576 642.266823 
L 576 638.989951 
L 576 635.713079 
L 576 632.436208 
L 576 629.159336 
L 576 625.882465 
L 576 622.605593 
L 576 619.328722 
L 576 616.05185 
L 576 612.774979 
L 576 611.796284 
L 572.727273 612.356859 
L 571.293701 612.774979 
L 569.454545 613.417382 
L 566.181818 613.965 
L 562.909091 615.322228 
L 559.636364 615.566548 
L 556.363636 615.905599 
L 556.001806 616.05185 
L 553.090909 616.99636 
L 550.977874 616.05185 
L 550.842779 612.774979 
L 551.729487 609.498107 
L 553.090909 606.499907 
L 553.190885 606.221236 
L 555.956572 602.944364 
L 556.363636 602.287038 
L 557.822296 599.667492 
L 559.636364 598.101912 
L 561.155903 596.390621 
L 562.909091 594.730487 
L 564.922943 593.113749 
L 566.181818 592.002677 
L 568.554064 589.836878 
L 569.454545 589.073433 
L 571.686513 586.560006 
L 572.727273 585.407934 
L 574.571024 583.283135 
L 576 581.712982 
L 576 580.006263 
L 576 576.729392 
L 576 573.45252 
L 576 570.175649 
L 576 566.898777 
L 576 563.621905 
L 576 561.057304 
L 572.727273 562.817573 
L 570.347173 563.621905 
L 569.454545 564.041292 
L 566.181818 565.896463 
L 562.909091 566.853502 
L 562.727392 566.898777 
L 559.636364 568.149895 
L 556.363636 569.576074 
L 554.327548 570.175649 
L 553.090909 570.716272 
L 549.818182 571.685046 
L 546.545455 573.414729 
L 546.410696 573.45252 
L 543.272727 574.725364 
L 540 575.88504 
L 538.298207 576.729392 
L 536.727273 577.70499 
L 533.454545 579.185359 
L 530.852627 580.006263 
L 530.181818 580.243953 
L 526.909091 581.400406 
L 523.636364 582.472428 
L 520.919631 583.283135 
L 520.363636 583.468446 
L 517.090909 584.609267 
L 513.818182 585.671341 
L 511.034507 586.560006 
L 510.545455 586.731774 
L 507.272727 587.842618 
L 504 588.909444 
L 501.185358 589.836878 
L 500.727273 589.99586 
L 497.454545 591.033659 
L 494.181818 591.925179 
L 490.909091 592.886235 
L 490.196032 593.113749 
L 487.636364 593.970522 
L 484.363636 594.943328 
L 481.090909 595.777671 
L 479.037734 596.390621 
L 477.818182 596.816575 
L 474.545455 597.957749 
L 471.272727 598.922589 
L 468.587756 599.667492 
L 468 599.851283 
L 464.727273 600.903273 
L 461.454545 602.024999 
L 458.181818 602.913946 
L 458.059328 602.944364 
L 454.909091 603.994691 
L 451.636364 605.059366 
L 448.363636 605.973256 
L 447.399427 606.221236 
L 445.090909 607.132263 
L 441.818182 608.297362 
L 438.545455 609.060707 
L 436.839833 609.498107 
L 435.272727 610.220381 
L 432 611.588024 
L 428.727273 612.60709 
L 428.088563 612.774979 
L 425.454545 614.06258 
L 422.181818 615.663778 
L 421.136352 616.05185 
L 418.909091 616.993505 
L 415.636364 618.622212 
L 414.118878 619.328722 
L 412.363636 620.007706 
L 409.090909 621.336084 
L 406.368183 622.605593 
L 405.818182 622.845001 
L 402.545455 624.186333 
L 399.272727 625.529032 
L 398.605912 625.882465 
L 396 627.422915 
L 392.727273 629.090797 
L 392.605213 629.159336 
L 389.454545 631.713259 
L 388.201952 632.436208 
L 386.181818 634.211651 
L 384.359103 635.713079 
L 382.909091 637.075406 
L 380.804392 638.989951 
L 379.636364 639.923453 
L 377.080574 642.266823 
L 376.363636 642.688767 
L 373.090909 644.875043 
L 372.301327 645.543694 
L 369.818182 647.110081 
L 367.106603 648.820566 
L 366.545455 649.30946 
L 363.272727 650.955527 
L 360.75052 652.097437 
L 360 652.726216 
L 356.727273 654.762864 
L 354.815331 655.374309 
L 353.454545 656.36952 
L 350.882807 658.65118 
L 350.181818 659.366918 
L 346.909091 661.650299 
L 346.596244 661.928052 
L 345.344652 665.204923 
L 343.636364 666.727581 
L 342.631326 668.481795 
L 340.363636 671.04568 
L 339.677029 671.758666 
z
M 245.454545 590.877032 
L 245.863386 589.836878 
L 245.454545 589.771313 
L 245.242309 589.836878 
z
" clip-path="url(#pb3c8c3c012)" style="fill: #eff6fc; fill-opacity: 0.9"/>
    <path d="M 2.346844 668.481795 
L 3.272727 668.148698 
L 6.545455 667.28295 
L 9.818182 666.811501 
L 13.090909 665.894707 
L 14.107191 665.204923 
L 16.363636 664.604997 
L 19.636364 664.487318 
L 22.909091 664.425033 
L 26.181818 664.894056 
L 29.454545 663.425753 
L 32.727273 662.842283 
L 36 662.786128 
L 39.206113 661.928052 
L 39.272727 661.890638 
L 42.545455 660.727802 
L 45.818182 659.933689 
L 49.090909 658.925915 
L 49.680695 658.65118 
L 52.363636 657.465579 
L 55.636364 656.896195 
L 58.909091 655.825229 
L 59.689569 655.374309 
L 62.181818 654.328251 
L 65.454545 654.227104 
L 68.727273 653.093223 
L 72 653.130096 
L 75.272727 653.390689 
L 78.545455 653.282302 
L 81.818182 652.598333 
L 85.090909 652.240433 
L 85.958593 652.097437 
L 88.363636 651.176173 
L 91.636364 649.932864 
L 94.909091 649.36522 
L 96.526675 648.820566 
L 98.181818 647.845452 
L 101.454545 646.952288 
L 104.727273 645.895544 
L 105.626443 645.543694 
L 108 644.545555 
L 111.272727 643.562646 
L 114.222504 642.266823 
L 113.316277 638.989951 
L 111.272727 638.661827 
L 108 638.733351 
L 106.855214 638.989951 
L 104.727273 640.884131 
L 101.454545 641.864147 
L 98.181818 641.994129 
L 96.912064 642.266823 
L 94.909091 644.35005 
L 91.636364 645.208636 
L 88.363636 644.985448 
L 86.834841 645.543694 
L 85.090909 647.85101 
L 81.818182 647.667906 
L 79.672014 645.543694 
L 78.545455 643.639583 
L 76.73128 642.266823 
L 75.272727 642.131154 
L 72.87894 642.266823 
L 72 642.493737 
L 68.727273 644.637723 
L 65.454545 645.230305 
L 62.181818 645.085954 
L 60.623798 645.543694 
L 58.909091 647.068114 
L 55.636364 647.813732 
L 52.363636 647.270726 
L 49.090909 647.689778 
L 45.818182 646.590474 
L 42.809554 645.543694 
L 42.545455 645.52179 
L 39.272727 645.488062 
L 38.432314 645.543694 
L 36 645.907548 
L 32.727273 646.658806 
L 29.454545 647.616824 
L 26.181818 648.091024 
L 22.909091 648.196099 
L 19.636364 648.448986 
L 18.362899 648.820566 
L 16.363636 649.694697 
L 13.090909 649.876798 
L 9.818182 649.914119 
L 6.545455 649.992982 
L 3.272727 650.534246 
L 0 651.294627 
L 0 652.097437 
L 0 654.270144 
L 3.272727 653.51909 
L 6.545455 652.615193 
L 9.818182 652.263579 
L 13.090909 652.158077 
L 14.552463 652.097437 
L 16.363636 652.06729 
L 19.636364 651.73959 
L 22.909091 651.1059 
L 26.181818 651.237552 
L 29.454545 651.624771 
L 32.727273 651.475225 
L 36 651.063758 
L 39.272727 651.14438 
L 41.190901 652.097437 
L 39.272727 653.146749 
L 36 654.352801 
L 34.938145 655.374309 
L 32.727273 655.782675 
L 29.454545 658.045404 
L 27.991097 658.65118 
L 26.181818 658.810592 
L 22.909091 659.193153 
L 19.636364 660.273631 
L 17.414243 661.928052 
L 16.363636 662.206602 
L 13.090909 662.544009 
L 9.818182 663.216179 
L 6.545455 664.522068 
L 3.65703 665.204923 
L 3.272727 665.243151 
L 2.635358 665.204923 
L 0 664.926242 
L 0 665.204923 
L 0 668.481795 
L 0 669.555467 
z
M 117.818182 641.037851 
L 121.090909 639.85409 
L 123.057145 638.989951 
L 121.090909 638.713758 
L 117.818182 637.810485 
L 115.29173 638.989951 
z
M 124.363636 638.601824 
L 127.636364 638.120943 
L 130.909091 636.903641 
L 134.181818 636.13415 
L 135.90795 635.713079 
L 137.454545 634.911044 
L 140.727273 633.476777 
L 144 632.470401 
L 144.085315 632.436208 
L 147.272727 630.741192 
L 150.545455 629.955717 
L 152.628506 629.159336 
L 153.818182 628.329798 
L 157.090909 627.096889 
L 160.363636 626.174306 
L 161.199652 625.882465 
L 163.636364 624.453539 
L 166.909091 623.336695 
L 169.590333 622.605593 
L 170.181818 622.275961 
L 173.454545 620.476999 
L 176.727273 619.700204 
L 177.767634 619.328722 
L 180 617.755872 
L 183.272727 616.477247 
L 185.738916 616.05185 
L 186.545455 615.672735 
L 189.818182 613.299931 
L 191.961183 612.774979 
L 189.818182 612.291273 
L 186.545455 612.291056 
L 183.272727 612.476168 
L 182.41618 612.774979 
L 180 615.155035 
L 176.727273 615.401977 
L 173.454545 616.008522 
L 173.33803 616.05185 
L 170.181818 618.42698 
L 166.909091 618.716711 
L 164.866924 619.328722 
L 163.636364 620.849353 
L 160.363636 621.820958 
L 157.090909 622.098464 
L 155.714063 622.605593 
L 153.818182 624.648976 
L 150.545455 625.239421 
L 147.272727 625.747431 
L 146.911607 625.882465 
L 144 628.2679 
L 140.727273 628.671789 
L 139.30421 629.159336 
L 137.454545 631.387782 
L 134.181818 631.991275 
L 131.506246 632.436208 
L 130.909091 633.750168 
L 127.636364 635.327704 
L 124.363636 634.979511 
L 123.339902 635.713079 
z
M 553.090909 616.99636 
L 556.001806 616.05185 
L 556.363636 615.905599 
L 559.636364 615.566548 
L 562.909091 615.322228 
L 566.181818 613.965 
L 569.454545 613.417382 
L 571.293701 612.774979 
L 572.727273 612.356859 
L 576 611.796284 
L 576 609.498107 
L 576 606.221236 
L 576 602.944364 
L 576 599.667492 
L 576 596.390621 
L 576 593.113749 
L 576 589.836878 
L 576 586.560006 
L 576 583.283135 
L 576 581.712982 
L 574.571024 583.283135 
L 572.727273 585.407934 
L 571.686513 586.560006 
L 569.454545 589.073433 
L 568.554064 589.836878 
L 566.181818 592.002677 
L 564.922943 593.113749 
L 562.909091 594.730487 
L 561.155903 596.390621 
L 559.636364 598.101912 
L 557.822296 599.667492 
L 556.363636 602.287038 
L 555.956572 602.944364 
L 553.190885 606.221236 
L 553.090909 606.499907 
L 551.729487 609.498107 
L 550.842779 612.774979 
L 550.977874 616.05185 
z
M 193.090909 612.244291 
L 196.363636 610.267908 
L 198.182662 609.498107 
L 196.363636 609.315934 
L 193.090909 609.178005 
L 192.040872 609.498107 
z
M 202.909091 607.029124 
L 204.403352 606.221236 
L 202.909091 606.125163 
L 202.462154 606.221236 
z
" clip-path="url(#pb3c8c3c012)" style="fill: #eaf3fb; fill-opacity: 0.9"/>
    <path d="M 3.272727 665.243151 
L 3.65703 665.204923 
L 6.545455 664.522068 
L 9.818182 663.216179 
L 13.090909 662.544009 
L 16.363636 662.206602 
L 17.414243 661.928052 
L 19.636364 660.273631 
L 22.909091 659.193153 
L 26.181818 658.810592 
L 27.991097 658.65118 
L 29.454545 658.045404 
L 32.727273 655.782675 
L 34.938145 655.374309 
L 36 654.352801 
L 39.272727 653.146749 
L 41.190901 652.097437 
L 39.272727 651.14438 
L 36 651.063758 
L 32.727273 651.475225 
L 29.454545 651.624771 
L 26.181818 651.237552 
L 22.909091 651.1059 
L 19.636364 651.73959 
L 16.363636 652.06729 
L 14.552463 652.097437 
L 13.090909 652.158077 
L 9.818182 652.263579 
L 6.545455 652.615193 
L 3.272727 653.51909 
L 0 654.270144 
L 0 655.374309 
L 0 658.65118 
L 0 661.928052 
L 0 664.926242 
L 2.635358 665.204923 
z
" clip-path="url(#pb3c8c3c012)" style="fill: #e5eff9; fill-opacity: 0.9"/>
    <path clip-path="url(#pb3c8c3c012)" style="fill: #dfecf7; fill-opacity: 0.9"/>
    <path clip-path="url(#pb3c8c3c012)" style="fill: #dae8f6; fill-opacity: 0.9"/>
    <path clip-path="url(#pb3c8c3c012)" style="fill: #d6e5f4; fill-opacity: 0.9"/>
    <path clip-path="url(#pb3c8c3c012)" style="fill: #d0e2f2; fill-opacity: 0.9"/>
    <path clip-path="url(#pb3c8c3c012)" style="fill: #cbdef1; fill-opacity: 0.9"/>
    <path clip-path="url(#pb3c8c3c012)" style="fill: #c6dbef; fill-opacity: 0.9"/>
    <path clip-path="url(#pb3c8c3c012)" style="fill: #bed8ec; fill-opacity: 0.9"/>
    <path clip-path="url(#pb3c8c3c012)" style="fill: #b5d4e9; fill-opacity: 0.9"/>
    <path clip-path="url(#pb3c8c3c012)" style="fill: #add0e6; fill-opacity: 0.9"/>
    <path clip-path="url(#pb3c8c3c012)" style="fill: #a5cde3; fill-opacity: 0.9"/>
    <path clip-path="url(#pb3c8c3c012)" style="fill: #9cc9e1; fill-opacity: 0.9"/>
    <path clip-path="url(#pb3c8c3c012)" style="fill: #91c3de; fill-opacity: 0.9"/>
    <path clip-path="url(#pb3c8c3c012)" style="fill: #85bcdc; fill-opacity: 0.9"/>
    <path clip-path="url(#pb3c8c3c012)" style="fill: #7cb7da; fill-opacity: 0.9"/>
    <path clip-path="url(#pb3c8c3c012)" style="fill: #71b1d7; fill-opacity: 0.9"/>
    <path clip-path="url(#pb3c8c3c012)" style="fill: #66abd4; fill-opacity: 0.9"/>
    <path clip-path="url(#pb3c8c3c012)" style="fill: #5da5d1; fill-opacity: 0.9"/>
    <path clip-path="url(#pb3c8c3c012)" style="fill: #56a0ce; fill-opacity: 0.9"/>
    <path clip-path="url(#pb3c8c3c012)" style="fill: #4d99ca; fill-opacity: 0.9"/>
    <path clip-path="url(#pb3c8c3c012)" style="fill: #4493c7; fill-opacity: 0.9"/>
    <path clip-path="url(#pb3c8c3c012)" style="fill: #3c8cc3; fill-opacity: 0.9"/>
    <path clip-path="url(#pb3c8c3c012)" style="fill: #3686c0; fill-opacity: 0.9"/>
    <path clip-path="url(#pb3c8c3c012)" style="fill: #2f7fbc; fill-opacity: 0.9"/>
    <path clip-path="url(#pb3c8c3c012)" style="fill: #2777b8; fill-opacity: 0.9"/>
    <path clip-path="url(#pb3c8c3c012)" style="fill: #2070b4; fill-opacity: 0.9"/>
    <path clip-path="url(#pb3c8c3c012)" style="fill: #1c6ab0; fill-opacity: 0.9"/>
    <path clip-path="url(#pb3c8c3c012)" style="fill: #1663aa; fill-opacity: 0.9"/>
    <path clip-path="url(#pb3c8c3c012)" style="fill: #115ca5; fill-opacity: 0.9"/>
    <path clip-path="url(#pb3c8c3c012)" style="fill: #0c56a0; fill-opacity: 0.9"/>
    <path clip-path="url(#pb3c8c3c012)" style="fill: #084f99; fill-opacity: 0.9"/>
    <path clip-path="url(#pb3c8c3c012)" style="fill: #08488e; fill-opacity: 0.9"/>
    <path clip-path="url(#pb3c8c3c012)" style="fill: #084184; fill-opacity: 0.9"/>
    <path clip-path="url(#pb3c8c3c012)" style="fill: #083a7a; fill-opacity: 0.9"/>
    <path clip-path="url(#pb3c8c3c012)" style="fill: #083370; fill-opacity: 0.9"/>
    <path clip-path="url(#pb3c8c3c012)" style="fill: #08306b; fill-opacity: 0.9"/>
   </g>
   <g id="QuadContourSet_2">
    <path d="M 0 787.661132 
L 3.272727 787.066667 
L 3.813653 786.972661 
M 22.5218 783.591277 
L 22.909091 783.52453 
L 24.414942 783.172299 
L 26.181818 782.423303 
L 29.454545 781.491657 
L 32.727273 780.978526 
L 36 779.948773 
L 36.118272 779.895427 
L 39.272727 778.506361 
L 42.545455 778.560998 
L 45.818182 778.042416 
L 48.538049 776.618556 
L 49.090909 776.394658 
L 49.966729 776.618556 
L 52.363636 777.033495 
L 55.636364 777.290138 
L 58.909091 776.992978 
L 60.731622 776.618556 
L 62.181818 776.013617 
L 65.454545 775.00785 
L 68.727273 774.524449 
L 72 773.624416 
L 72.665126 773.341684 
L 75.272727 772.124262 
L 78.545455 772.016967 
L 81.818182 771.849535 
L 84.743758 770.064813 
L 85.090909 769.86994 
L 85.920714 770.064813 
L 88.363636 770.482841 
L 91.636364 770.729023 
L 94.909091 770.550576 
L 97.55484 770.064813 
L 98.181818 769.803012 
L 101.454545 768.57994 
L 104.727273 768.064651 
L 108 767.314666 
L 109.302464 766.787941 
L 111.272727 765.73343 
L 114.545455 765.393327 
L 117.818182 765.449328 
L 120.827669 763.51107 
L 121.090909 763.3106 
L 122.156122 763.51107 
L 124.363636 763.775215 
L 127.636364 764.03807 
L 130.909091 764.008785 
L 133.324024 763.51107 
L 134.181818 763.078043 
L 137.454545 761.661898 
L 140.727273 760.864075 
L 142.021351 760.234198 
L 144 758.724431 
L 147.272727 758.22216 
L 149.850971 756.957327 
L 150.545455 756.186043 
L 153.818182 755.341529 
L 157.090909 755.020362 
L 159.176547 753.680455 
L 160.363636 753.112252 
L 161.602764 753.680455 
L 161.293056 756.957327 
L 163.636364 757.241986 
L 166.909091 757.297082 
L 168.708416 756.957327 
L 170.181818 756.241577 
L 173.454545 755.126848 
L 176.727273 754.219296 
L 177.854228 753.680455 
L 180 752.040935 
L 183.272727 751.493064 
L 185.272521 750.403583 
L 186.545455 749.092652 
L 189.818182 748.588514 
L 192.51035 747.126712 
L 193.090909 746.499218 
L 196.363636 746.255532 
L 198.053256 747.126712 
L 198.029608 750.403583 
L 199.636364 750.599538 
L 202.909091 750.556819 
L 203.722907 750.403583 
L 206.181818 749.335806 
L 209.454545 748.32435 
L 212.727273 747.220723 
L 212.903645 747.126712 
L 216 745.075869 
L 219.272727 744.340751 
L 220.027765 743.84984 
L 222.545455 741.836176 
L 225.818182 741.684392 
L 227.165876 740.572969 
L 229.090909 738.629914 
L 232.363636 739.078905 
L 235.370243 740.572969 
L 235.636364 741.532384 
L 238.909091 743.416876 
L 242.181818 742.244578 
L 245.454545 741.348108 
L 247.507452 740.572969 
L 248.727273 739.359272 
L 252 738.072724 
L 254.859518 737.296097 
L 255.272727 736.904394 
L 258.545455 734.797948 
L 261.818182 734.490867 
L 262.430483 734.019226 
L 265.090909 731.640952 
L 268.363636 731.60212 
L 269.977084 730.742354 
L 271.636364 729.334552 
L 273.463693 730.742354 
L 273.13265 734.019226 
L 274.480074 737.296097 
L 274.909091 737.352541 
L 275.118448 737.296097 
L 278.181818 734.835096 
L 281.454545 734.324684 
L 282.472335 734.019226 
L 284.727273 731.906893 
L 288 731.01524 
L 289.423636 730.742354 
L 291.272727 729.31801 
L 294.545455 727.689153 
L 296.044064 727.465483 
L 297.818182 726.440739 
L 301.090909 724.348778 
L 301.921922 724.188611 
L 304.363636 722.827369 
L 307.636364 720.996677 
L 307.858413 720.91174 
L 310.909091 719.705238 
L 314.181818 718.698958 
L 316.496071 717.634868 
L 317.454545 717.260828 
L 320.727273 716.427797 
L 324 715.710017 
L 326.299955 714.357996 
L 327.272727 714.095842 
L 329.638681 714.357996 
L 330.545455 714.675659 
L 333.818182 714.768962 
L 337.090909 714.40814 
L 337.213162 714.357996 
L 340.363636 712.369684 
L 343.636364 711.914773 
L 346.591467 711.081125 
L 346.909091 710.775206 
L 350.181818 709.234988 
L 353.454545 708.669555 
L 356.727273 708.198504 
L 358.207279 707.804253 
L 360 706.326171 
L 363.272727 705.391123 
L 366.545455 704.975088 
L 369.818182 704.528522 
L 369.822192 704.527382 
L 373.090909 702.028234 
L 376.363636 701.551632 
L 379.636364 701.315428 
L 379.955727 701.25051 
L 382.80592 697.973639 
L 382.909091 697.965174 
L 386.181818 697.53025 
L 388.851308 694.696767 
L 389.454545 694.486193 
L 392.727273 694.320879 
L 396 693.931039 
L 399.272727 692.74712 
L 400.51893 691.419896 
L 402.545455 690.872989 
L 405.818182 690.544488 
L 409.090909 689.912649 
L 412.363636 688.865399 
L 413.125545 688.143024 
L 415.636364 687.443138 
L 418.909091 687.151737 
L 422.181818 686.835277 
L 425.454545 685.821465 
L 426.718 684.866153 
L 428.727273 684.296854 
L 432 683.872705 
L 435.272727 683.411451 
L 438.545455 682.418798 
L 439.869112 681.589281 
L 441.818182 681.10363 
L 445.090909 680.496873 
L 448.363636 680.186576 
L 451.636364 679.704596 
L 454.909091 678.530983 
L 455.190677 678.312409 
L 458.181818 677.514584 
L 461.454545 677.110806 
L 464.727273 676.748395 
L 468 675.867087 
L 469.562439 675.035538 
L 471.272727 674.616704 
L 474.545455 673.91331 
L 477.818182 673.50837 
L 481.090909 672.506276 
L 483.198253 671.758666 
L 484.363636 671.531354 
L 487.636364 670.77483 
L 490.909091 669.645378 
L 494.181818 669.946026 
L 497.454545 669.562062 
L 499.787812 668.481795 
L 500.727273 668.086459 
L 504 667.361536 
L 507.272727 667.107591 
L 510.545455 666.584426 
L 513.598833 665.204923 
L 513.818182 665.126592 
L 517.090909 664.57492 
L 520.363636 664.839845 
L 521.728466 665.204923 
L 523.636364 665.630688 
L 524.501227 665.204923 
L 526.909091 663.635621 
L 530.181818 663.312957 
L 533.454545 663.029719 
L 535.327995 661.928052 
L 536.727273 661.147838 
L 540 660.588386 
L 543.272727 659.786193 
L 545.227034 658.65118 
L 546.545455 658.137365 
L 549.818182 657.580266 
L 553.090909 657.238745 
L 555.569867 655.374309 
L 556.363636 655.046058 
L 559.135642 655.374309 
L 559.636364 655.505731 
L 562.909091 656.072057 
L 566.181818 655.619284 
L 566.503423 655.374309 
L 569.454545 653.762563 
L 572.727273 653.742187 
L 576 652.620057 
M 0 684.956328 
L 0.26717 684.866153 
L 3.272727 684.029639 
L 6.545455 683.412245 
L 9.818182 682.954022 
L 13.090909 682.743753 
L 16.363636 682.608017 
L 18.190997 681.589281 
L 19.636364 681.256921 
L 22.909091 681.390555 
L 26.181818 681.554009 
L 29.454545 681.246501 
L 32.727273 680.246274 
L 36 680.07585 
L 39.272727 679.693108 
L 42.545455 679.120065 
L 44.845112 678.312409 
L 45.818182 678.128345 
L 47.334561 678.312409 
L 49.090909 679.049624 
L 52.363636 679.92522 
L 55.636364 680.398356 
L 58.909091 679.212466 
L 62.181818 678.517128 
L 65.454545 678.497405 
L 66.621713 678.312409 
L 68.727273 678.044763 
L 72 677.613419 
L 75.272727 677.630201 
L 78.545455 678.039942 
L 79.75017 678.312409 
L 81.818182 678.824994 
L 85.090909 678.513948 
L 86.30881 678.312409 
L 88.363636 678.137074 
L 91.636364 677.76505 
L 93.857839 678.312409 
L 94.909091 678.86654 
L 98.181818 679.365712 
L 101.454545 680.239377 
L 104.727273 681.07272 
L 107.863736 681.589281 
L 108 681.641818 
L 110.978096 684.866153 
L 111.272727 685.842334 
L 111.942956 688.143024 
L 113.012274 691.419896 
L 112.732495 694.696767 
L 112.608587 697.973639 
L 112.980932 701.25051 
L 112.838957 704.527382 
L 112.239561 707.804253 
L 111.272727 710.463829 
L 110.80906 711.081125 
L 110.218455 714.357996 
L 109.96746 717.634868 
L 108 720.325356 
L 107.717549 720.91174 
L 104.727273 722.937861 
L 103.423599 724.188611 
L 101.454545 726.130876 
L 99.343737 727.465483 
L 98.181818 729.024733 
L 96.537701 730.742354 
L 94.909091 732.938055 
L 94.158795 734.019226 
L 91.636364 734.828626 
L 88.363636 736.223228 
L 87.051169 737.296097 
L 85.090909 737.99715 
L 81.818182 738.869556 
L 79.965057 740.124543 
M 62.494106 747.153746 
L 62.181818 747.261221 
L 58.909091 748.03195 
L 55.636364 748.557835 
L 52.363636 749.371753 
L 50.763605 750.403583 
L 49.090909 750.77181 
L 45.818182 750.797516 
L 42.545455 750.858293 
L 39.272727 752.583158 
L 36 753.392305 
L 32.727273 753.590272 
L 32.49109 753.680455 
L 29.454545 755.144957 
L 26.181818 756.21827 
L 23.222518 756.957327 
L 22.909091 757.032983 
L 19.636364 757.900035 
L 16.363636 758.514941 
L 13.090909 759.125012 
L 9.818182 759.758196 
L 7.298341 760.234198 
L 6.545455 760.384952 
L 3.272727 761.01977 
L 0 761.664946 
M 576 557.908024 
L 572.727273 557.833629 
L 569.454545 558.261831 
L 566.546938 557.068162 
L 566.181818 557.025448 
L 562.909091 556.920339 
L 561.063146 557.068162 
L 559.636364 557.69581 
L 556.363636 559.640995 
L 553.090909 560.055128 
L 550.324216 560.345034 
L 549.818182 560.576581 
L 546.545455 562.376852 
L 543.272727 563.180573 
L 540.284253 563.621905 
L 540 563.750641 
L 536.727273 564.911142 
L 533.454545 566.070274 
L 530.181818 566.878759 
L 530.109424 566.898777 
L 526.909091 567.697638 
L 523.636364 568.020934 
L 520.363636 568.558328 
L 517.090909 569.314795 
L 513.818182 569.330557 
L 510.545455 569.455109 
L 507.272727 569.674993 
L 504 569.6993 
L 500.727273 569.728989 
L 497.454545 569.828109 
L 495.689911 570.175649 
L 494.181818 570.596248 
L 490.909091 571.51097 
L 487.636364 571.998937 
L 484.363636 572.603128 
L 481.774221 573.45252 
L 481.090909 573.688749 
L 477.818182 573.977909 
L 474.545455 574.162712 
L 471.272727 574.683869 
L 468 574.758072 
L 464.727273 574.783368 
L 461.454545 574.84103 
L 458.181818 575.816288 
L 454.909091 576.651582 
L 454.470998 576.729392 
L 451.636364 577.407975 
L 448.363636 578.313301 
L 445.090909 579.40591 
L 441.818182 579.859491 
L 440.587677 580.006263 
L 438.545455 580.416954 
L 435.272727 581.77235 
L 432 582.16672 
L 428.727273 582.638095 
L 426.272124 583.283135 
L 425.454545 583.533393 
L 422.181818 584.67867 
L 418.909091 585.799786 
L 416.829309 586.560006 
L 415.636364 586.99236 
L 412.363636 588.072909 
L 409.090909 589.239082 
L 407.557975 589.836878 
L 405.818182 590.426473 
L 402.545455 591.488286 
L 399.272727 592.687025 
L 398.249821 593.113749 
L 396 593.865989 
L 392.727273 594.84468 
L 389.454545 596.209159 
L 389.039467 596.390621 
L 386.181818 597.351842 
L 382.909091 598.446923 
L 379.906534 599.667492 
L 379.636364 599.760033 
L 376.363636 600.831355 
L 373.090909 602.009902 
L 370.642162 602.944364 
L 369.818182 603.2068 
L 366.545455 604.257433 
L 363.272727 605.531335 
L 361.407216 606.221236 
L 360 606.635081 
L 356.727273 607.399805 
L 353.454545 608.019017 
L 350.181818 608.379702 
L 346.909091 608.838366 
L 343.636364 609.246102 
L 342.065424 609.498107 
L 340.363636 609.797915 
L 337.090909 610.339304 
L 333.818182 610.900349 
L 333.404226 610.96573 
M 314.59171 613.94156 
L 314.181818 613.997274 
L 310.909091 614.384988 
L 307.636364 614.920543 
L 304.363636 615.316955 
L 301.090909 615.628606 
L 297.818182 616.007517 
L 297.507516 616.05185 
L 294.545455 616.545893 
L 291.272727 617.076384 
L 288 617.544638 
L 284.727273 618.228633 
L 281.454545 619.206648 
L 281.031556 619.328722 
L 278.181818 620.060431 
L 274.909091 620.702754 
L 271.636364 621.48335 
L 268.363636 621.925287 
L 265.090909 622.493955 
L 264.67754 622.605593 
L 261.818182 623.538381 
L 258.545455 624.355969 
L 255.272727 625.258725 
L 253.468797 625.882465 
L 252 626.330316 
L 248.727273 627.288599 
L 245.454545 628.4189 
L 242.181818 629.026629 
L 241.365471 629.159336 
L 238.909091 629.690508 
L 235.636364 630.30703 
L 232.363636 631.306111 
L 229.090909 632.136064 
L 228.443537 632.436208 
L 225.818182 633.454712 
L 222.545455 634.386185 
L 219.542618 635.713079 
L 219.272727 635.81244 
L 216 636.703289 
L 212.727273 637.761248 
L 209.454545 638.149483 
L 206.181818 638.631078 
L 204.806972 638.989951 
L 202.909091 639.588993 
L 199.636364 640.633912 
L 196.363636 641.673393 
L 195.233061 642.266823 
L 193.090909 643.053384 
L 189.818182 643.911447 
L 186.926141 645.543694 
L 186.545455 645.692028 
L 183.272727 646.202843 
L 180 647.702265 
L 176.727273 648.076266 
L 173.454545 648.573172 
L 172.648794 648.820566 
L 170.181818 649.696424 
L 166.909091 650.508159 
L 163.636364 651.334326 
L 162.296902 652.097437 
L 160.363636 652.70264 
L 158.632236 652.097437 
L 160.363636 650.325764 
L 161.25143 648.820566 
L 160.363636 647.743857 
L 157.090909 646.998738 
L 153.818182 646.142071 
L 151.129272 645.543694 
L 153.818182 645.231461 
L 155.996393 642.266823 
L 157.090909 641.685588 
L 160.363636 640.313681 
L 161.67249 638.989951 
L 163.636364 637.546942 
L 166.909091 636.270788 
L 167.49287 635.713079 
L 170.181818 632.827269 
L 170.854387 632.436208 
L 173.454545 629.873704 
L 174.090551 629.159336 
L 176.727273 627.815097 
L 179.662137 625.882465 
L 180 625.729961 
L 183.272727 624.43487 
L 186.545455 623.103414 
L 187.43615 622.605593 
L 189.818182 621.66013 
L 193.090909 620.365489 
L 195.287498 619.328722 
L 196.363636 619.096535 
L 199.636364 617.636911 
L 202.909091 616.157641 
L 203.151877 616.05185 
L 206.181818 615.392785 
L 209.454545 613.503658 
L 211.183493 612.774979 
L 212.727273 612.555263 
L 216 611.204686 
L 218.937437 609.498107 
L 219.272727 609.431021 
L 222.545455 608.732907 
L 225.818182 606.751513 
L 226.818207 606.221236 
L 229.090909 605.801613 
L 232.363636 604.908152 
L 235.014695 602.944364 
L 235.636364 602.716867 
L 238.909091 602.17277 
L 242.181818 600.987486 
L 244.118502 599.667492 
L 245.454545 599.22477 
L 248.727273 598.533907 
L 252 597.26779 
L 255.272727 596.694611 
L 258.545455 596.434939 
L 258.606476 596.390621 
L 261.818182 594.492854 
L 265.090909 593.758941 
L 266.139853 593.113749 
L 268.363636 591.986114 
L 271.636364 590.923392 
L 273.673231 589.836878 
L 274.909091 589.288044 
L 278.181818 587.981074 
L 281.454545 586.603951 
L 281.522161 586.560006 
L 284.727273 585.36009 
L 288 584.564851 
L 290.275054 583.283135 
L 288 581.669324 
L 286.271879 580.006263 
L 284.727273 579.377961 
L 281.454545 578.967329 
L 278.181818 578.819207 
L 274.909091 579.925308 
L 274.721991 580.006263 
L 271.636364 581.777645 
L 268.363636 582.652897 
L 267.148689 583.283135 
L 265.090909 584.741041 
L 261.818182 585.009377 
L 259.575387 586.560006 
L 258.545455 587.512772 
L 255.584584 586.560006 
L 255.272727 586.501834 
L 252 586.223992 
L 251.03653 586.560006 
L 248.727273 588.096333 
L 245.454545 588.433808 
L 242.181818 589.445728 
L 241.05933 589.836878 
L 238.909091 590.783015 
L 235.636364 591.693084 
L 232.363636 592.806801 
L 231.502181 593.113749 
L 229.090909 594.048312 
L 225.818182 595.246304 
L 222.545455 596.209521 
L 222.201888 596.390621 
L 219.272727 597.648391 
L 216 598.765711 
L 213.650778 599.667492 
L 212.727273 600.190039 
L 209.454545 601.275531 
L 206.181818 602.390712 
L 204.78547 602.944364 
L 202.909091 603.736579 
L 199.636364 604.782698 
L 196.363636 605.818371 
L 195.487058 606.221236 
L 193.090909 607.148759 
L 189.818182 608.289602 
L 186.545455 609.392076 
L 186.359597 609.498107 
L 183.272727 610.664871 
L 180 611.710993 
L 177.437925 612.774979 
L 176.727273 613.114243 
L 173.454545 614.246685 
L 170.181818 615.277534 
L 168.600195 616.05185 
L 166.909091 616.75283 
L 163.636364 617.911211 
L 160.363636 618.995468 
L 159.802722 619.328722 
L 157.090909 620.353394 
L 153.818182 621.43254 
L 151.048588 622.605593 
L 150.545455 622.864398 
L 147.272727 624.021351 
L 144 625.043203 
L 142.422339 625.882465 
L 140.727273 626.674737 
L 137.454545 627.723808 
L 134.666318 629.159336 
L 134.181818 629.459654 
L 130.909091 629.924094 
L 127.636364 631.858186 
L 124.363636 631.985323 
L 121.632497 632.436208 
L 121.090909 632.655443 
L 117.818182 634.044896 
L 114.545455 634.453426 
L 111.272727 635.441131 
L 110.735216 635.713079 
L 108 636.711387 
L 104.727273 637.358241 
L 101.454545 638.400177 
L 100.392464 638.989951 
L 98.181818 639.733407 
L 94.909091 639.203917 
L 93.56349 638.989951 
L 91.636364 638.754184 
L 88.363636 638.438189 
L 85.090909 638.437413 
L 81.818182 638.82934 
L 80.714323 638.989951 
L 78.545455 639.315316 
L 75.272727 639.633953 
L 72 640.31976 
L 68.727273 640.807734 
L 65.454545 641.965948 
L 64.001206 642.266823 
L 62.181818 642.488966 
L 60.665614 642.266823 
L 58.909091 641.942563 
L 55.636364 641.781418 
L 52.363636 641.612819 
L 49.090909 641.528543 
L 45.818182 641.76808 
L 42.545455 642.056116 
L 41.1218 642.266823 
L 39.272727 642.537458 
L 36 643.229477 
L 32.727273 643.638123 
L 29.454545 644.12817 
L 26.181818 644.893622 
L 22.909091 645.282973 
L 19.636364 645.304885 
L 16.363636 645.485886 
L 16.016704 645.543694 
L 13.090909 646.111645 
L 9.818182 646.557729 
L 6.545455 646.882582 
L 3.272727 647.334313 
L 0 647.929258 
M 157.090909 764.368391 
L 157.947146 763.51107 
L 157.090909 761.969109 
L 156.17102 763.51107 
L 157.090909 764.368391 
z
M 235.636364 739.689361 
L 235.088846 737.296097 
L 235.636364 736.725002 
L 236.357156 737.296097 
L 235.636364 739.689361 
z
M 291.272727 580.791146 
L 294.545455 582.130421 
L 297.818182 581.129254 
L 299.36574 580.006263 
L 297.818182 579.675728 
L 294.545455 578.979742 
L 291.272727 579.825641 
L 290.885928 580.006263 
L 291.272727 580.791146 
z
M 304.363636 578.508785 
L 307.636364 577.102553 
L 309.228439 576.729392 
L 307.636364 576.699616 
L 304.363636 576.522037 
L 303.5788 576.729392 
L 304.363636 578.508785 
z
M 288 575.959549 
L 288.913214 573.45252 
L 288 572.601054 
L 287.149611 573.45252 
L 288 575.959549 
z
M 294.545455 571.220889 
L 295.40959 570.175649 
L 294.545455 569.324182 
L 293.695065 570.175649 
L 294.545455 571.220889 
z
M 327.272727 567.063085 
L 330.545455 567.060307 
L 330.619509 566.898777 
L 330.545455 566.830419 
L 327.272727 566.830419 
L 327.204455 566.898777 
L 327.272727 567.063085 
z
" clip-path="url(#pb3c8c3c012)" style="fill: none"/>
    <path d="M 0 786.498694 
L 0.276862 786.44917 
L 3.272727 783.885008 
L 6.545455 783.555849 
L 9.818182 783.434346 
L 13.090909 783.368091 
L 16.363636 783.328674 
L 17.718981 783.172299 
L 19.636364 781.26921 
L 22.909091 780.403915 
L 26.181818 780.181759 
L 29.454545 780.064197 
L 31.036887 779.895427 
L 32.727273 778.142718 
L 36 776.925848 
L 39.272727 776.797267 
L 42.545455 776.838987 
L 43.117053 776.618556 
L 45.818182 773.694181 
L 49.090909 773.606693 
L 52.363636 773.773749 
L 53.44451 773.341684 
L 55.636364 770.737762 
L 58.909091 771.702736 
L 60.441966 773.341684 
L 62.181818 773.57829 
L 65.454545 773.458842 
L 67.461107 773.341684 
L 68.727273 772.263233 
L 72 770.336182 
L 75.272727 770.193637 
L 78.545455 770.235077 
L 79.140583 770.064813 
L 81.818182 767.155897 
L 85.090909 766.989222 
L 88.363636 767.147477 
L 91.069792 766.787941 
L 91.636364 765.743882 
L 94.909091 764.719005 
L 97.011806 766.787941 
L 98.181818 766.984104 
L 101.454545 766.820984 
L 104.727273 766.811011 
L 104.81099 766.787941 
L 108 763.525087 
L 108.197952 763.51107 
L 108 763.380946 
L 104.727273 761.844736 
L 101.454545 761.246724 
L 98.181818 761.455799 
L 94.909091 762.460285 
L 91.636364 763.038728 
L 90.677795 763.070968 
M 72.678261 767.864882 
L 72 768.298207 
L 68.727273 767.802437 
L 65.454545 767.324937 
L 62.181818 766.90999 
L 58.909091 768.542053 
L 55.636364 769.296073 
L 52.363636 769.566439 
L 49.969738 770.064813 
L 49.090909 770.639011 
L 45.818182 772.12996 
L 42.545455 772.302996 
L 39.272727 772.444152 
L 37.444092 773.341684 
L 36 774.370629 
L 32.727273 774.062702 
L 29.454545 773.53635 
L 28.402495 773.341684 
L 26.181818 773.198896 
L 25.415457 773.341684 
L 22.909091 774.472078 
L 19.636364 775.286505 
L 16.363636 775.740812 
L 13.090909 776.073839 
L 9.818182 776.336047 
L 8.163172 776.618556 
L 6.545455 777.370569 
L 3.272727 778.381228 
L 0 778.98379 
M 0 677.403371 
L 3.272727 677.019944 
L 6.545455 676.396698 
L 9.818182 676.04242 
L 13.090909 675.562355 
L 15.167323 675.035538 
L 16.363636 674.346563 
L 19.636364 672.980255 
L 22.909091 672.455083 
L 26.181818 672.408981 
L 28.082896 671.758666 
L 29.454545 670.401586 
L 32.727273 669.619989 
L 36 669.678942 
L 39.272727 669.595454 
L 42.545455 668.916128 
L 45.818182 668.807394 
L 49.090909 668.715937 
L 49.817409 668.481795 
L 52.363636 667.31599 
L 55.636364 666.603217 
L 58.909091 665.954294 
L 60.583615 665.204923 
L 62.181818 664.40379 
L 65.454545 663.744845 
L 68.727273 662.754201 
L 70.255977 661.928052 
L 72 661.292483 
L 75.272727 660.541176 
L 78.545455 659.741529 
L 79.886536 658.65118 
L 81.818182 657.974692 
L 85.090909 657.740931 
L 88.363636 656.823474 
L 91.115449 655.374309 
L 91.636364 655.310783 
L 92.837885 655.374309 
L 94.909091 656.127666 
L 98.181818 656.958971 
L 101.454545 655.969339 
L 104.727273 655.549659 
L 105.562682 655.374309 
L 108 654.387837 
L 111.272727 653.169383 
L 114.545455 652.285814 
L 114.919078 652.097437 
L 117.818182 649.85441 
L 120.946408 648.820566 
L 121.090909 648.715682 
L 124.363636 646.146033 
L 125.8455 645.543694 
L 127.636364 644.512487 
L 130.891166 642.266823 
L 130.909091 642.263217 
L 134.181818 641.139318 
L 136.837681 638.989951 
L 137.454545 638.779018 
L 140.727273 637.824196 
L 143.191532 635.713079 
L 144 635.356866 
L 147.272727 634.640177 
L 150.545455 633.103633 
L 151.351389 632.436208 
L 153.818182 631.514375 
L 157.090909 630.629469 
L 159.334301 629.159336 
L 160.363636 628.710433 
L 163.636364 627.705392 
L 166.909091 626.32906 
L 167.52248 625.882465 
L 170.181818 624.802398 
L 173.454545 623.744766 
L 174.38594 623.271434 
M 192.134371 616.053995 
L 192.139074 616.05185 
L 193.090909 615.57103 
L 196.363636 614.552481 
L 199.636364 613.169038 
L 200.605402 612.774979 
L 202.909091 611.863744 
L 206.181818 610.697309 
L 209.400448 609.498107 
L 209.454545 609.468045 
L 212.727273 608.041048 
L 216 606.845423 
L 217.476243 606.221236 
L 219.272727 605.159796 
L 222.545455 604.150205 
L 225.469657 602.944364 
L 225.818182 602.653248 
L 229.090909 601.060027 
L 232.363636 600.219331 
L 233.579663 599.667492 
L 235.636364 598.132663 
L 238.909091 597.140525 
L 241.297557 596.390621 
L 242.181818 595.745779 
L 244.493293 593.113749 
L 242.181818 592.248847 
L 238.909091 592.46802 
L 235.636364 593.000251 
L 235.305371 593.113749 
L 232.363636 595.222924 
L 229.090909 595.510728 
L 225.818182 596.370251 
L 225.751239 596.390621 
L 222.545455 598.268336 
L 219.272727 598.76519 
L 216.350001 599.667492 
L 216 600.069578 
L 212.727273 601.661682 
L 209.454545 602.272206 
L 207.585312 602.944364 
L 206.181818 604.120649 
L 202.909091 604.930871 
L 199.636364 605.747258 
L 198.246357 606.221236 
L 196.363636 607.457899 
L 193.090909 608.163382 
L 189.818182 609.196764 
L 188.951667 609.498107 
L 186.545455 610.838235 
L 183.272727 611.57052 
L 180 612.70603 
L 179.833972 612.774979 
L 176.727273 614.25811 
L 173.454545 615.127604 
L 170.969112 616.05185 
L 170.181818 616.644309 
L 166.909091 617.734771 
L 163.636364 618.783829 
L 162.157129 619.328722 
L 160.363636 620.402573 
L 157.090909 621.225929 
L 153.818182 622.410341 
L 153.35719 622.605593 
L 150.545455 624.051909 
L 147.272727 624.884391 
L 144.603583 625.882465 
L 144 626.376972 
L 140.727273 627.673263 
L 137.454545 628.775198 
L 136.708434 629.159336 
L 134.181818 630.725465 
L 130.909091 631.231432 
L 129.027179 632.436208 
L 127.636364 633.607667 
L 124.363636 633.444006 
L 121.197021 635.713079 
L 121.090909 635.854657 
L 120.587355 635.713079 
L 117.818182 635.356037 
L 114.545455 635.384545 
L 113.548943 635.713079 
L 111.272727 637.02903 
L 108 637.722369 
L 104.727273 638.425967 
L 103.301219 638.989951 
L 101.454545 640.157387 
L 98.181818 640.863768 
L 94.909091 641.095243 
L 93.236714 642.266823 
L 91.636364 643.361656 
L 88.363636 642.784359 
L 86.950621 642.266823 
L 85.090909 641.133326 
L 81.818182 640.941272 
L 78.545455 640.89802 
L 75.272727 640.882554 
L 72 641.313107 
L 68.727273 642.199488 
L 68.553604 642.266823 
L 65.454545 643.639893 
L 62.181818 643.78746 
L 58.909091 644.12518 
L 56.223682 645.543694 
L 55.636364 645.81168 
L 54.541771 645.543694 
L 52.363636 644.392438 
L 49.090909 643.50678 
L 45.818182 643.657547 
L 42.545455 643.770641 
L 39.272727 644.01276 
L 36 644.453372 
L 32.727273 644.808102 
L 29.454545 645.508339 
L 29.315539 645.543694 
L 26.181818 646.476224 
L 22.909091 646.739869 
L 19.636364 646.865621 
L 16.363636 647.521847 
L 13.090909 647.883068 
L 9.818182 648.050593 
L 6.545455 648.172591 
L 3.272727 648.508686 
L 1.747195 648.820566 
L 0 649.397572 
M 576 561.057304 
L 572.727273 562.817573 
L 570.347173 563.621905 
L 569.454545 564.041292 
L 566.181818 565.896463 
L 562.909091 566.853502 
L 562.727392 566.898777 
L 559.636364 568.149895 
L 556.363636 569.576074 
L 554.327548 570.175649 
L 553.090909 570.716272 
L 549.818182 571.685046 
L 546.545455 573.414729 
L 546.410696 573.45252 
L 543.272727 574.725364 
L 540 575.88504 
L 538.298207 576.729392 
L 536.727273 577.70499 
L 533.454545 579.185359 
L 530.852627 580.006263 
L 530.181818 580.243953 
L 526.909091 581.400406 
L 526.201806 581.632086 
M 507.983526 587.601356 
L 507.272727 587.842618 
L 504 588.909444 
L 501.185358 589.836878 
L 500.727273 589.99586 
L 497.454545 591.033659 
L 494.181818 591.925179 
L 490.909091 592.886235 
L 490.196032 593.113749 
L 487.636364 593.970522 
L 484.363636 594.943328 
L 481.090909 595.777671 
L 479.037734 596.390621 
L 477.818182 596.816575 
L 474.545455 597.957749 
L 471.272727 598.922589 
L 468.587756 599.667492 
L 468 599.851283 
L 464.727273 600.903273 
L 461.454545 602.024999 
L 458.181818 602.913946 
L 458.059328 602.944364 
L 454.909091 603.994691 
L 451.636364 605.059366 
L 448.363636 605.973256 
L 447.399427 606.221236 
L 445.090909 607.132263 
L 441.818182 608.297362 
L 438.545455 609.060707 
L 436.839833 609.498107 
L 435.272727 610.220381 
L 432 611.588024 
L 428.727273 612.60709 
L 428.088563 612.774979 
L 425.454545 614.06258 
L 422.181818 615.663778 
L 421.136352 616.05185 
L 418.909091 616.993505 
L 415.636364 618.622212 
L 414.118878 619.328722 
L 412.363636 620.007706 
L 409.090909 621.336084 
L 406.368183 622.605593 
L 405.818182 622.845001 
L 402.545455 624.186333 
L 399.272727 625.529032 
L 398.605912 625.882465 
L 396 627.422915 
L 392.727273 629.090797 
L 392.605213 629.159336 
L 389.454545 631.713259 
L 388.201952 632.436208 
L 386.181818 634.211651 
L 384.359103 635.713079 
L 382.909091 637.075406 
L 380.804392 638.989951 
L 379.636364 639.923453 
L 377.080574 642.266823 
L 376.363636 642.688767 
L 373.090909 644.875043 
L 372.301327 645.543694 
L 369.818182 647.110081 
L 367.106603 648.820566 
L 366.545455 649.30946 
L 363.272727 650.955527 
L 360.75052 652.097437 
L 360 652.726216 
L 356.727273 654.762864 
L 354.815331 655.374309 
L 353.454545 656.36952 
L 350.882807 658.65118 
L 350.181818 659.366918 
L 346.909091 661.650299 
L 346.596244 661.928052 
L 345.344652 665.204923 
L 343.636364 666.727581 
L 342.631326 668.481795 
L 340.363636 671.04568 
L 339.677029 671.758666 
L 340.363636 672.5277 
L 343.636364 673.137999 
L 346.909091 673.143822 
L 350.181818 673.788194 
L 353.454545 674.668945 
L 356.727273 674.925611 
L 360 674.354132 
L 363.272727 673.91674 
L 366.545455 673.484864 
L 369.818182 673.096526 
L 373.090909 672.992102 
L 376.363636 672.844421 
L 379.636364 672.692883 
L 382.909091 672.254765 
L 384.973214 671.758666 
L 386.181818 671.467154 
L 389.454545 670.955821 
L 392.727273 670.545728 
L 396 670.192747 
L 399.272727 669.956616 
L 402.545455 669.865766 
L 405.818182 669.813641 
L 409.090909 669.346292 
L 412.363636 668.841394 
L 414.17823 668.481795 
L 415.636364 668.271973 
L 418.909091 668.119738 
L 422.181818 668.02831 
L 425.454545 667.766207 
L 428.727273 667.638316 
L 432 667.961634 
L 435.272727 668.438014 
L 435.497524 668.481795 
L 438.545455 669.913942 
L 441.818182 671.709172 
L 442.091375 671.758666 
L 445.090909 671.92692 
L 448.363636 672.220006 
L 451.636364 672.825774 
L 454.909091 672.911416 
L 458.181818 672.195754 
L 461.454545 671.958015 
L 464.727273 671.902008 
L 468 671.866857 
L 471.272727 671.849094 
L 471.802318 671.758666 
L 474.545455 669.785961 
L 477.818182 669.067601 
L 481.090909 668.788915 
L 484.363636 668.537227 
L 484.524491 668.481795 
L 487.636364 666.072013 
L 490.909091 665.754077 
L 494.181818 665.867626 
L 495.453656 665.204923 
L 497.454545 663.287115 
L 500.727273 663.536341 
L 504 664.45307 
L 507.272727 663.258372 
L 510.545455 663.002431 
L 513.818182 662.612409 
L 517.090909 662.198883 
L 517.850169 661.928052 
L 520.363636 660.070733 
L 523.636364 659.509036 
L 526.909091 659.609021 
L 528.750763 658.65118 
L 530.181818 657.259173 
L 533.454545 657.268623 
L 536.727273 658.163199 
L 538.305957 658.65118 
L 540 658.793045 
L 540.381942 658.65118 
L 543.272727 656.55571 
L 546.545455 656.242454 
L 549.818182 655.631457 
L 550.485172 655.374309 
L 553.090909 653.549145 
L 556.363636 652.930218 
L 559.636364 652.746688 
L 560.850341 652.097437 
L 562.909091 650.299649 
L 566.181818 650.044503 
L 569.454545 650.35722 
L 571.598062 648.820566 
L 572.727273 647.506338 
L 576 648.817031 
M 127.636364 760.265916 
L 127.707192 760.234198 
L 127.636364 760.089194 
L 127.134942 760.234198 
L 127.636364 760.265916 
z
M 337.090909 675.071426 
L 337.281956 675.035538 
L 337.090909 674.868614 
L 336.965334 675.035538 
L 337.090909 675.071426 
z
M 245.454545 590.877032 
L 245.863386 589.836878 
L 245.454545 589.771313 
L 245.242309 589.836878 
L 245.454545 590.877032 
z
" clip-path="url(#pb3c8c3c012)" style="fill: none"/>
    <path d="M 0 669.555467 
L 2.346844 668.481795 
L 3.272727 668.148698 
L 6.545455 667.28295 
L 9.818182 666.811501 
L 13.090909 665.894707 
L 14.107191 665.204923 
L 16.363636 664.604997 
L 19.636364 664.487318 
L 22.909091 664.425033 
L 26.181818 664.894056 
L 29.454545 663.425753 
L 32.727273 662.842283 
L 36 662.786128 
L 39.206113 661.928052 
L 39.272727 661.890638 
L 42.545455 660.727802 
L 45.818182 659.933689 
L 49.090909 658.925915 
L 49.680695 658.65118 
L 52.363636 657.465579 
L 55.636364 656.896195 
L 58.909091 655.825229 
L 59.689569 655.374309 
L 62.181818 654.328251 
L 65.454545 654.227104 
L 68.727273 653.093223 
L 72 653.130096 
L 75.272727 653.390689 
L 78.545455 653.282302 
L 81.818182 652.598333 
L 85.090909 652.240433 
L 85.958593 652.097437 
L 88.363636 651.176173 
L 91.636364 649.932864 
L 94.909091 649.36522 
L 96.526675 648.820566 
L 98.181818 647.845452 
L 101.454545 646.952288 
L 104.727273 645.895544 
L 105.626443 645.543694 
L 108 644.545555 
L 111.272727 643.562646 
L 114.222504 642.266823 
L 113.316277 638.989951 
L 111.272727 638.661827 
L 108 638.733351 
L 106.855214 638.989951 
L 104.727273 640.884131 
L 101.454545 641.864147 
L 98.181818 641.994129 
L 96.912064 642.266823 
L 94.909091 644.35005 
L 91.636364 645.208636 
L 88.363636 644.985448 
L 86.834841 645.543694 
L 85.090909 647.85101 
L 81.818182 647.667906 
L 79.672014 645.543694 
L 78.545455 643.639583 
L 76.73128 642.266823 
L 75.272727 642.131154 
L 72.87894 642.266823 
L 72 642.493737 
L 68.727273 644.637723 
L 65.454545 645.230305 
L 62.181818 645.085954 
L 60.623798 645.543694 
L 58.909091 647.068114 
L 55.636364 647.813732 
L 52.363636 647.270726 
L 49.090909 647.689778 
L 45.818182 646.590474 
L 42.809554 645.543694 
L 42.545455 645.52179 
L 39.272727 645.488062 
L 38.432314 645.543694 
L 36 645.907548 
L 32.727273 646.658806 
L 29.454545 647.616824 
L 26.181818 648.091024 
L 22.909091 648.196099 
L 22.425424 648.233473 
M 3.551561 650.488131 
L 3.272727 650.534246 
L 0 651.294627 
M 576 581.712982 
L 575.046575 582.760601 
M 561.359556 596.197777 
L 561.155903 596.390621 
L 559.636364 598.101912 
L 557.822296 599.667492 
L 556.363636 602.287038 
L 555.956572 602.944364 
L 553.190885 606.221236 
L 553.090909 606.499907 
L 551.729487 609.498107 
L 550.842779 612.774979 
L 550.977874 616.05185 
L 553.090909 616.99636 
L 556.001806 616.05185 
L 556.363636 615.905599 
L 559.636364 615.566548 
L 562.909091 615.322228 
L 566.181818 613.965 
L 569.454545 613.417382 
L 571.293701 612.774979 
L 572.727273 612.356859 
L 576 611.796284 
M 117.818182 641.037851 
L 121.090909 639.85409 
L 123.057145 638.989951 
L 121.090909 638.713758 
L 117.818182 637.810485 
L 115.29173 638.989951 
L 117.818182 641.037851 
z
M 170.051286 622.348707 
L 170.181818 622.275961 
L 173.454545 620.476999 
L 176.727273 619.700204 
L 177.767634 619.328722 
L 180 617.755872 
L 183.272727 616.477247 
L 185.738916 616.05185 
L 186.545455 615.672735 
L 189.818182 613.299931 
L 191.961183 612.774979 
L 189.818182 612.291273 
L 186.545455 612.291056 
L 183.272727 612.476168 
L 182.41618 612.774979 
L 180 615.155035 
L 176.727273 615.401977 
L 173.454545 616.008522 
L 173.33803 616.05185 
L 170.181818 618.42698 
L 166.909091 618.716711 
L 164.866924 619.328722 
L 163.636364 620.849353 
L 160.363636 621.820958 
L 157.090909 622.098464 
L 155.714063 622.605593 
L 153.818182 624.648976 
L 150.545455 625.239421 
L 147.272727 625.747431 
L 146.911607 625.882465 
L 144 628.2679 
L 140.727273 628.671789 
L 139.30421 629.159336 
L 137.454545 631.387782 
L 134.181818 631.991275 
L 131.506246 632.436208 
L 130.909091 633.750168 
L 127.636364 635.327704 
L 124.363636 634.979511 
L 123.339902 635.713079 
L 124.363636 638.601824 
L 127.636364 638.120943 
L 130.909091 636.903641 
L 134.181818 636.13415 
L 135.90795 635.713079 
L 137.454545 634.911044 
L 140.727273 633.476777 
L 144 632.470401 
L 144.085315 632.436208 
L 147.272727 630.741192 
L 150.545455 629.955717 
L 152.2963 629.286344 
M 193.090909 612.244291 
L 196.363636 610.267908 
L 198.182662 609.498107 
L 196.363636 609.315934 
L 193.090909 609.178005 
L 192.040872 609.498107 
L 193.090909 612.244291 
z
M 202.909091 607.029124 
L 204.403352 606.221236 
L 202.909091 606.125163 
L 202.462154 606.221236 
L 202.909091 607.029124 
z
" clip-path="url(#pb3c8c3c012)" style="fill: none"/>
    <path d="M 0 664.926242 
L 0.578278 664.987393 
M 18.912946 660.812233 
L 19.636364 660.273631 
L 22.909091 659.193153 
L 26.181818 658.810592 
L 27.991097 658.65118 
L 29.454545 658.045404 
L 32.727273 655.782675 
L 34.938145 655.374309 
L 36 654.352801 
L 39.272727 653.146749 
L 41.190901 652.097437 
L 39.272727 651.14438 
L 36 651.063758 
L 32.727273 651.475225 
L 29.454545 651.624771 
L 26.181818 651.237552 
L 22.909091 651.1059 
L 19.636364 651.73959 
L 16.363636 652.06729 
L 14.552463 652.097437 
L 13.090909 652.158077 
L 9.818182 652.263579 
L 6.545455 652.615193 
L 3.272727 653.51909 
L 0 654.270144 
" clip-path="url(#pb3c8c3c012)" style="fill: none"/>
    <path clip-path="url(#pb3c8c3c012)" style="fill: none"/>
    <path clip-path="url(#pb3c8c3c012)" style="fill: none"/>
    <path clip-path="url(#pb3c8c3c012)" style="fill: none"/>
    <path clip-path="url(#pb3c8c3c012)" style="fill: none"/>
    <path clip-path="url(#pb3c8c3c012)" style="fill: none"/>
    <path clip-path="url(#pb3c8c3c012)" style="fill: none"/>
    <path clip-path="url(#pb3c8c3c012)" style="fill: none"/>
    <path clip-path="url(#pb3c8c3c012)" style="fill: none"/>
    <path clip-path="url(#pb3c8c3c012)" style="fill: none"/>
    <path clip-path="url(#pb3c8c3c012)" style="fill: none"/>
    <path clip-path="url(#pb3c8c3c012)" style="fill: none"/>
    <path clip-path="url(#pb3c8c3c012)" style="fill: none"/>
    <path clip-path="url(#pb3c8c3c012)" style="fill: none"/>
    <path clip-path="url(#pb3c8c3c012)" style="fill: none"/>
    <path clip-path="url(#pb3c8c3c012)" style="fill: none"/>
    <path clip-path="url(#pb3c8c3c012)" style="fill: none"/>
    <path clip-path="url(#pb3c8c3c012)" style="fill: none"/>
    <path clip-path="url(#pb3c8c3c012)" style="fill: none"/>
    <path clip-path="url(#pb3c8c3c012)" style="fill: none"/>
    <path clip-path="url(#pb3c8c3c012)" style="fill: none"/>
    <path clip-path="url(#pb3c8c3c012)" style="fill: none"/>
    <path clip-path="url(#pb3c8c3c012)" style="fill: none"/>
    <path clip-path="url(#pb3c8c3c012)" style="fill: none"/>
    <path clip-path="url(#pb3c8c3c012)" style="fill: none"/>
    <path clip-path="url(#pb3c8c3c012)" style="fill: none"/>
    <path clip-path="url(#pb3c8c3c012)" style="fill: none"/>
    <path clip-path="url(#pb3c8c3c012)" style="fill: none"/>
    <path clip-path="url(#pb3c8c3c012)" style="fill: none"/>
    <path clip-path="url(#pb3c8c3c012)" style="fill: none"/>
    <path clip-path="url(#pb3c8c3c012)" style="fill: none"/>
    <path clip-path="url(#pb3c8c3c012)" style="fill: none"/>
    <path clip-path="url(#pb3c8c3c012)" style="fill: none"/>
    <path clip-path="url(#pb3c8c3c012)" style="fill: none"/>
    <path clip-path="url(#pb3c8c3c012)" style="fill: none"/>
    <path clip-path="url(#pb3c8c3c012)" style="fill: none"/>
   </g>
   <g id="text_1">
    <g clip-path="url(#pb3c8c3c012)">
     <!-- 0 -->
     <g style="opacity: 0" transform="translate(9.875715 788.793431) rotate(-9.550535) scale(0.12 -0.12)">
      <defs>
       <path id="DejaVuSans-30" d="M 2034 4250 
Q 1547 4250 1301 3770 
Q 1056 3291 1056 2328 
Q 1056 1369 1301 889 
Q 1547 409 2034 409 
Q 2525 409 2770 889 
Q 3016 1369 3016 2328 
Q 3016 3291 2770 3770 
Q 2525 4250 2034 4250 
z
M 2034 4750 
Q 2819 4750 3233 4129 
Q 3647 3509 3647 2328 
Q 3647 1150 3233 529 
Q 2819 -91 2034 -91 
Q 1250 -91 836 529 
Q 422 1150 422 2328 
Q 422 3509 836 4129 
Q 1250 4750 2034 4750 
z
" transform="scale(0.015625)"/>
      </defs>
      <use xlink:href="#DejaVuSans-30"/>
     </g>
    </g>
   </g>
   <g id="text_2">
    <g clip-path="url(#pb3c8c3c012)">
     <!-- 0 -->
     <g style="opacity: 0" transform="translate(68.893071 748.294983) rotate(-20.658576) scale(0.12 -0.12)">
      <use xlink:href="#DejaVuSans-30"/>
     </g>
    </g>
   </g>
   <g id="text_3">
    <g clip-path="url(#pb3c8c3c012)">
     <!-- 0 -->
     <g style="opacity: 0" transform="translate(320.752672 616.343854) rotate(-9.076678) scale(0.12 -0.12)">
      <use xlink:href="#DejaVuSans-30"/>
     </g>
    </g>
   </g>
   <g id="text_4">
    <g clip-path="url(#pb3c8c3c012)">
     <!-- 1 -->
     <g style="opacity: 0" transform="translate(78.767491 770.031601) rotate(-11.928074) scale(0.12 -0.12)">
      <defs>
       <path id="DejaVuSans-31" d="M 794 531 
L 1825 531 
L 1825 4091 
L 703 3866 
L 703 4441 
L 1819 4666 
L 2450 4666 
L 2450 531 
L 3481 531 
L 3481 0 
L 794 0 
L 794 531 
z
" transform="scale(0.015625)"/>
      </defs>
      <use xlink:href="#DejaVuSans-31"/>
     </g>
    </g>
   </g>
   <g id="text_5">
    <g clip-path="url(#pb3c8c3c012)">
     <!-- 1 -->
     <g style="opacity: 0" transform="translate(180.917087 624.159766) rotate(-21.277901) scale(0.12 -0.12)">
      <use xlink:href="#DejaVuSans-31"/>
     </g>
    </g>
   </g>
   <g id="text_6">
    <g clip-path="url(#pb3c8c3c012)">
     <!-- 1 -->
     <g style="opacity: 0" transform="translate(514.49609 588.945694) rotate(-18.166713) scale(0.12 -0.12)">
      <use xlink:href="#DejaVuSans-31"/>
     </g>
    </g>
   </g>
   <g id="text_7">
    <g clip-path="url(#pb3c8c3c012)">
     <!-- 2 -->
     <g style="opacity: 0" transform="translate(9.601498 653.532163) rotate(-5.39265) scale(0.12 -0.12)">
      <defs>
       <path id="DejaVuSans-32" d="M 1228 531 
L 3431 531 
L 3431 0 
L 469 0 
L 469 531 
Q 828 903 1448 1529 
Q 2069 2156 2228 2338 
Q 2531 2678 2651 2914 
Q 2772 3150 2772 3378 
Q 2772 3750 2511 3984 
Q 2250 4219 1831 4219 
Q 1534 4219 1204 4116 
Q 875 4013 500 3803 
L 500 4441 
Q 881 4594 1212 4672 
Q 1544 4750 1819 4750 
Q 2544 4750 2975 4387 
Q 3406 4025 3406 3419 
Q 3406 3131 3298 2873 
Q 3191 2616 2906 2266 
Q 2828 2175 2409 1742 
Q 1991 1309 1228 531 
z
" transform="scale(0.015625)"/>
      </defs>
      <use xlink:href="#DejaVuSans-32"/>
     </g>
    </g>
   </g>
   <g id="text_8">
    <g clip-path="url(#pb3c8c3c012)">
     <!-- 2 -->
     <g style="opacity: 0" transform="translate(568.111544 594.870948) rotate(-44.03838) scale(0.12 -0.12)">
      <use xlink:href="#DejaVuSans-32"/>
     </g>
    </g>
   </g>
   <g id="text_9">
    <g clip-path="url(#pb3c8c3c012)">
     <!-- 2 -->
     <g style="opacity: 0" transform="translate(158.830043 630.345943) rotate(-21.098734) scale(0.12 -0.12)">
      <use xlink:href="#DejaVuSans-32"/>
     </g>
    </g>
   </g>
   <g id="text_10">
    <g clip-path="url(#pb3c8c3c012)">
     <!-- 3 -->
     <g style="opacity: 0" transform="translate(6.948055 667.375513) rotate(-14.454641) scale(0.12 -0.12)">
      <defs>
       <path id="DejaVuSans-33" d="M 2597 2516 
Q 3050 2419 3304 2112 
Q 3559 1806 3559 1356 
Q 3559 666 3084 287 
Q 2609 -91 1734 -91 
Q 1441 -91 1130 -33 
Q 819 25 488 141 
L 488 750 
Q 750 597 1062 519 
Q 1375 441 1716 441 
Q 2309 441 2620 675 
Q 2931 909 2931 1356 
Q 2931 1769 2642 2001 
Q 2353 2234 1838 2234 
L 1294 2234 
L 1294 2753 
L 1863 2753 
Q 2328 2753 2575 2939 
Q 2822 3125 2822 3475 
Q 2822 3834 2567 4026 
Q 2313 4219 1838 4219 
Q 1578 4219 1281 4162 
Q 984 4106 628 3988 
L 628 4550 
Q 988 4650 1302 4700 
Q 1616 4750 1894 4750 
Q 2613 4750 3031 4423 
Q 3450 4097 3450 3541 
Q 3450 3153 3228 2886 
Q 3006 2619 2597 2516 
z
" transform="scale(0.015625)"/>
      </defs>
      <use xlink:href="#DejaVuSans-33"/>
     </g>
    </g>
   </g>
  </g>
 </g>
 <defs>
  <clipPath id="pb3c8c3c012">
   <rect x="0" y="0" width="576" height="815.941014"/>
  </clipPath>
 </defs>
</svg>
