<?xml version="1.0" encoding="utf-8" standalone="no"?>
<!DOCTYPE svg PUBLIC "-//W3C//DTD SVG 1.1//EN"
  "http://www.w3.org/Graphics/SVG/1.1/DTD/svg11.dtd">
<svg xmlns:xlink="http://www.w3.org/1999/xlink" width="576pt" height="813.52281pt" viewBox="0 0 576 813.52281" xmlns="http://www.w3.org/2000/svg" version="1.1">
 <metadata>
  <rdf:RDF xmlns:dc="http://purl.org/dc/elements/1.1/" xmlns:cc="http://creativecommons.org/ns#" xmlns:rdf="http://www.w3.org/1999/02/22-rdf-syntax-ns#">
   <cc:Work>
    <dc:type rdf:resource="http://purl.org/dc/dcmitype/StillImage"/>
    <dc:date>2025-07-25T22:45:40.871472</dc:date>
    <dc:format>image/svg+xml</dc:format>
    <dc:creator>
     <cc:Agent>
      <dc:title>Matplotlib v3.10.3, https://matplotlib.org/</dc:title>
     </cc:Agent>
    </dc:creator>
   </cc:Work>
  </rdf:RDF>
 </metadata>
 <defs>
  <style type="text/css">*{stroke-linejoin: round; stroke-linecap: butt}</style>
 </defs>
 <g id="figure_1">
  <g id="patch_1">
   <path d="M 0 813.52281 
L 576 813.52281 
L 576 0 
L 0 0 
L 0 813.52281 
z
" style="fill: none; opacity: 0"/>
  </g>
  <g id="axes_1">
   <g id="QuadContourSet_1">
    <path d="M 576 101.102546 
L 576 99.054605 
L 575.254963 98.014796 
L 573.799649 94.747637 
L 572.745763 92.68476 
L 571.201831 91.480477 
L 569.603903 88.213317 
L 569.491525 87.871501 
L 566.237288 86.619041 
L 565.22723 84.946157 
L 562.983051 83.069802 
L 561.971528 81.678997 
L 559.728814 79.405818 
L 558.950718 78.411837 
L 556.474576 75.248678 
L 556.393164 75.144677 
L 554.194478 71.877517 
L 553.220339 70.159158 
L 552.226544 68.610357 
L 550.793703 65.343198 
L 549.966102 63.793678 
L 548.191095 62.076038 
L 546.892536 58.808878 
L 546.711864 58.369631 
L 543.457627 56.997598 
L 542.411137 55.541718 
L 540.20339 53.85112 
L 539.097424 52.274558 
L 536.949153 50.356454 
L 535.885227 49.007398 
L 533.694915 46.230088 
L 533.308598 45.740238 
L 531.152004 42.473078 
L 530.440678 41.334113 
L 529.20358 39.205919 
L 527.732679 35.938759 
L 527.186441 35.010213 
L 525.177027 32.671599 
L 524.057472 29.404439 
L 523.932203 29.159428 
L 520.677966 27.563663 
L 519.31952 26.137279 
L 517.423729 24.88293 
L 516.109845 22.870119 
L 514.169492 21.277858 
L 512.867882 19.602959 
L 510.915254 17.283316 
L 510.16627 16.335799 
L 507.938786 13.06864 
L 507.661017 12.706087 
L 506.035012 9.80148 
L 504.40678 6.892895 
L 503.987751 6.53432 
L 501.944689 3.26716 
L 501.152542 1.570431 
L 498.932005 0 
L 497.898305 0 
L 495.725195 0 
L 497.898305 3.195799 
L 498.023309 3.26716 
L 501.152542 5.449775 
L 501.641178 6.53432 
L 504.40678 8.900925 
L 504.910912 9.80148 
L 506.444484 13.06864 
L 507.661017 14.566201 
L 508.893472 16.335799 
L 510.915254 18.893492 
L 511.512469 19.602959 
L 513.995145 22.870119 
L 514.169492 23.040304 
L 516.514091 26.137279 
L 517.423729 27.127157 
L 519.660046 29.404439 
L 520.677966 30.778784 
L 523.112023 32.671599 
L 523.932203 34.155719 
L 525.216489 35.938759 
L 527.186441 37.400927 
L 528.002645 39.205919 
L 529.726787 42.473078 
L 530.440678 43.300438 
L 532.074122 45.740238 
L 533.694915 47.795401 
L 534.65075 49.007398 
L 536.949153 51.921767 
L 537.344278 52.274558 
L 539.663578 55.541718 
L 540.20339 56.078099 
L 542.587575 58.808878 
L 543.457627 59.890338 
L 546.083187 62.076038 
L 546.711864 63.069318 
L 549.124262 65.343198 
L 549.966102 66.119816 
L 550.931309 68.610357 
L 552.951254 71.877517 
L 553.220339 72.14754 
L 555.196254 75.144677 
L 556.474576 76.777675 
L 557.753809 78.411837 
L 559.728814 80.934816 
L 560.463021 81.678997 
L 562.798284 84.946157 
L 562.983051 85.126274 
L 565.350717 88.213317 
L 566.237288 89.178587 
L 568.864088 91.480477 
L 569.491525 92.409504 
L 572.745763 94.732701 
L 572.753393 94.747637 
L 573.787584 98.014796 
z
" clip-path="url(#pb17c062be1)" style="fill: #f5f9fe; fill-opacity: 0.9"/>
    <path d="M 576 99.054605 
L 576 98.014796 
L 576 97.006663 
L 574.845904 94.747637 
L 573.455676 91.480477 
L 572.745763 90.636818 
L 571.042889 88.213317 
L 570.022909 84.946157 
L 569.491525 84.266973 
L 566.237288 81.809014 
L 566.011438 81.678997 
L 562.983051 80.325385 
L 561.12488 78.411837 
L 559.728814 77.352351 
L 558.300405 75.144677 
L 556.474576 73.562473 
L 555.338815 71.877517 
L 553.656616 68.610357 
L 553.220339 68.097815 
L 551.871833 65.343198 
L 550.248724 62.076038 
L 549.966102 61.775094 
L 548.13717 58.808878 
L 546.830004 55.541718 
L 546.711864 55.409613 
L 543.639657 52.274558 
L 543.457627 51.724824 
L 540.20339 50.598481 
L 537.869336 49.007398 
L 536.949153 48.442315 
L 535.35395 45.740238 
L 533.694915 44.386256 
L 532.442288 42.473078 
L 530.440678 39.268128 
L 530.404516 39.205919 
L 528.948042 35.938759 
L 527.186441 32.944228 
L 526.952189 32.671599 
L 525.30982 29.404439 
L 523.932203 26.709985 
L 523.137776 26.137279 
L 520.887344 22.870119 
L 520.677966 22.209139 
L 517.423729 20.897141 
L 514.614688 19.602959 
L 514.169492 19.397848 
L 512.249003 16.335799 
L 510.915254 15.33705 
L 509.477235 13.06864 
L 507.661017 10.698057 
L 507.159111 9.80148 
L 505.684031 6.53432 
L 504.40678 4.884865 
L 503.308262 3.26716 
L 501.891733 0 
L 501.152542 0 
L 498.932005 0 
L 501.152542 1.570431 
L 501.944689 3.26716 
L 503.987751 6.53432 
L 504.40678 6.892895 
L 506.035012 9.80148 
L 507.661017 12.706087 
L 507.938786 13.06864 
L 510.16627 16.335799 
L 510.915254 17.283316 
L 512.867882 19.602959 
L 514.169492 21.277858 
L 516.109845 22.870119 
L 517.423729 24.88293 
L 519.31952 26.137279 
L 520.677966 27.563663 
L 523.932203 29.159428 
L 524.057472 29.404439 
L 525.177027 32.671599 
L 527.186441 35.010213 
L 527.732679 35.938759 
L 529.20358 39.205919 
L 530.440678 41.334113 
L 531.152004 42.473078 
L 533.308598 45.740238 
L 533.694915 46.230088 
L 535.885227 49.007398 
L 536.949153 50.356454 
L 539.097424 52.274558 
L 540.20339 53.85112 
L 542.411137 55.541718 
L 543.457627 56.997598 
L 546.711864 58.369631 
L 546.892536 58.808878 
L 548.191095 62.076038 
L 549.966102 63.793678 
L 550.793703 65.343198 
L 552.226544 68.610357 
L 553.220339 70.159158 
L 554.194478 71.877517 
L 556.393164 75.144677 
L 556.474576 75.248678 
L 558.950718 78.411837 
L 559.728814 79.405819 
L 561.971528 81.678997 
L 562.983051 83.069802 
L 565.22723 84.946157 
L 566.237288 86.619041 
L 569.491525 87.871501 
L 569.603903 88.213317 
L 571.201831 91.480477 
L 572.745763 92.68476 
L 573.799649 94.747637 
L 575.254963 98.014796 
z
" clip-path="url(#pb17c062be1)" style="fill: #eff6fc; fill-opacity: 0.9"/>
    <path d="M 576 97.006663 
L 576 94.958722 
L 575.89216 94.747637 
L 575.178959 91.480477 
L 572.745763 88.588877 
L 572.481875 88.213317 
L 571.62519 84.946157 
L 569.491525 82.219032 
L 568.798997 81.678997 
L 567.328884 78.411837 
L 566.237288 76.488378 
L 562.983051 75.773094 
L 561.943015 75.144677 
L 559.728814 74.031728 
L 556.520434 71.877517 
L 556.474576 71.829577 
L 555.531226 68.610357 
L 553.220339 65.8955 
L 552.949962 65.343198 
L 552.144415 62.076038 
L 549.966102 59.756509 
L 549.381804 58.808878 
L 548.635195 55.541718 
L 546.711864 53.391029 
L 545.617775 52.274558 
L 544.601136 49.007398 
L 543.457627 47.500452 
L 540.390677 45.740238 
L 540.20339 45.507951 
L 536.949153 44.199363 
L 533.926898 42.473078 
L 533.694915 42.27287 
L 532.66816 39.205919 
L 530.440678 36.560921 
L 530.163406 35.938759 
L 529.117385 32.671599 
L 527.186441 30.596241 
L 526.562167 29.404439 
L 525.554645 26.137279 
L 523.932203 24.506506 
L 522.608745 22.870119 
L 521.762628 19.602959 
L 520.677966 18.420141 
L 517.863348 16.335799 
L 517.423729 15.557412 
L 514.169492 14.230619 
L 511.647399 13.06864 
L 510.915254 12.590599 
L 509.588758 9.80148 
L 507.661017 7.609359 
L 507.238945 6.53432 
L 505.148471 3.26716 
L 504.40678 2.439539 
L 503.490647 0 
L 501.891733 0 
L 503.308262 3.26716 
L 504.40678 4.884865 
L 505.684031 6.53432 
L 507.159111 9.80148 
L 507.661017 10.698057 
L 509.477235 13.06864 
L 510.915254 15.33705 
L 512.249003 16.335799 
L 514.169492 19.397848 
L 514.614688 19.602959 
L 517.423729 20.897141 
L 520.677966 22.209139 
L 520.887344 22.870119 
L 523.137776 26.137279 
L 523.932203 26.709985 
L 525.30982 29.404439 
L 526.952189 32.671599 
L 527.186441 32.944228 
L 528.948042 35.938759 
L 530.404516 39.205919 
L 530.440678 39.268128 
L 532.442288 42.473078 
L 533.694915 44.386256 
L 535.35395 45.740238 
L 536.949153 48.442315 
L 537.869336 49.007398 
L 540.20339 50.598481 
L 543.457627 51.724824 
L 543.639657 52.274558 
L 546.711864 55.409613 
L 546.830004 55.541718 
L 548.13717 58.808878 
L 549.966102 61.775094 
L 550.248724 62.076038 
L 551.871833 65.343198 
L 553.220339 68.097815 
L 553.656616 68.610357 
L 555.338815 71.877517 
L 556.474576 73.562473 
L 558.300405 75.144677 
L 559.728814 77.352351 
L 561.12488 78.411837 
L 562.983051 80.325385 
L 566.011438 81.678997 
L 566.237288 81.809014 
L 569.491525 84.266973 
L 570.022909 84.946157 
L 571.042889 88.213317 
L 572.745763 90.636818 
L 573.455676 91.480477 
L 574.845904 94.747637 
z
" clip-path="url(#pb17c062be1)" style="fill: #eaf3fb; fill-opacity: 0.9"/>
    <path d="M 576 94.958722 
L 576 94.747637 
L 576 91.480477 
L 576 88.213317 
L 576 87.975994 
L 574.044535 84.946157 
L 572.913897 81.678997 
L 572.745763 81.320737 
L 569.664519 78.411837 
L 569.491525 77.930226 
L 568.915397 75.144677 
L 566.237288 72.783856 
L 564.959959 71.877517 
L 562.983051 69.24096 
L 559.728814 69.674886 
L 558.699263 68.610357 
L 556.820588 65.343198 
L 556.474576 64.964167 
L 554.920873 62.076038 
L 553.220339 58.900572 
L 553.145508 58.808878 
L 551.15278 55.541718 
L 549.966102 53.013757 
L 549.488738 52.274558 
L 546.711864 49.052127 
L 546.698852 49.007398 
L 545.471457 45.740238 
L 543.457627 43.881169 
L 542.290445 42.473078 
L 540.20339 39.533994 
L 536.949153 39.279374 
L 536.867363 39.205919 
L 534.763506 35.938759 
L 533.694915 34.751321 
L 532.446805 32.671599 
L 530.440678 29.43556 
L 530.415592 29.404439 
L 528.364118 26.137279 
L 527.186441 24.170671 
L 525.897057 22.870119 
L 523.932203 20.094616 
L 523.846853 19.602959 
L 521.359484 16.335799 
L 520.677966 15.648485 
L 519.490801 13.06864 
L 517.423729 10.123176 
L 516.563866 9.80148 
L 514.169492 8.32431 
L 512.664205 6.53432 
L 510.915254 4.265826 
L 510.165867 3.26716 
L 507.661017 0.384335 
L 507.347478 0 
L 504.40678 0 
L 503.490647 0 
L 504.40678 2.439539 
L 505.148471 3.26716 
L 507.238945 6.53432 
L 507.661017 7.609359 
L 509.588758 9.80148 
L 510.915254 12.590599 
L 511.647399 13.06864 
L 514.169492 14.230619 
L 517.423729 15.557412 
L 517.863348 16.335799 
L 520.677966 18.420141 
L 521.762628 19.602959 
L 522.608745 22.870119 
L 523.932203 24.506506 
L 525.554645 26.137279 
L 526.562167 29.404439 
L 527.186441 30.596241 
L 529.117385 32.671599 
L 530.163406 35.938759 
L 530.440678 36.560921 
L 532.66816 39.205919 
L 533.694915 42.27287 
L 533.926898 42.473078 
L 536.949153 44.199363 
L 540.20339 45.507951 
L 540.390677 45.740238 
L 543.457627 47.500452 
L 544.601136 49.007398 
L 545.617775 52.274558 
L 546.711864 53.391029 
L 548.635195 55.541718 
L 549.381804 58.808878 
L 549.966102 59.756509 
L 552.144415 62.076038 
L 552.949962 65.343198 
L 553.220339 65.8955 
L 555.531226 68.610357 
L 556.474576 71.829577 
L 556.520434 71.877517 
L 559.728814 74.031728 
L 561.943015 75.144677 
L 562.983051 75.773094 
L 566.237288 76.488378 
L 567.328884 78.411837 
L 568.798997 81.678997 
L 569.491525 82.219032 
L 571.62519 84.946157 
L 572.481875 88.213317 
L 572.745763 88.588877 
L 575.178959 91.480477 
L 575.89216 94.747637 
z
" clip-path="url(#pb17c062be1)" style="fill: #e5eff9; fill-opacity: 0.9"/>
    <path d="M 576 87.975994 
L 576 84.946157 
L 576 81.678997 
L 576 81.546061 
L 574.623421 78.411837 
L 572.978116 75.144677 
L 572.745763 74.887203 
L 571.247831 71.877517 
L 569.720684 68.610357 
L 569.491525 68.201742 
L 567.762848 65.343198 
L 566.515432 62.076038 
L 566.237288 61.495901 
L 563.592134 58.808878 
L 562.983051 56.751735 
L 559.728814 56.244074 
L 558.480272 55.541718 
L 556.474576 54.389222 
L 554.500493 52.274558 
L 553.220339 51.380623 
L 552.182414 49.007398 
L 550.125111 45.740238 
L 549.966102 45.585406 
L 548.296372 42.473078 
L 546.711864 39.500159 
L 546.468714 39.205919 
L 544.653374 35.938759 
L 543.457627 33.490992 
L 542.501351 32.671599 
L 540.268195 29.404439 
L 540.20339 29.176668 
L 536.949153 26.840347 
L 536.281038 26.137279 
L 533.694915 23.752069 
L 532.909229 22.870119 
L 530.440678 20.286573 
L 530.05931 19.602959 
L 527.766908 16.335799 
L 527.186441 15.724279 
L 525.526775 13.06864 
L 523.932203 10.522743 
L 523.393857 9.80148 
L 521.457862 6.53432 
L 520.677966 5.275118 
L 518.706 3.26716 
L 517.423729 1.4618 
L 516.001731 0 
L 514.169492 0 
L 510.915254 0 
L 507.661017 0 
L 507.347478 0 
L 507.661017 0.384335 
L 510.165867 3.26716 
L 510.915254 4.265826 
L 512.664205 6.53432 
L 514.169492 8.32431 
L 516.563866 9.80148 
L 517.423729 10.123176 
L 519.490801 13.06864 
L 520.677966 15.648485 
L 521.359484 16.335799 
L 523.846853 19.602959 
L 523.932203 20.094616 
L 525.897057 22.870119 
L 527.186441 24.170671 
L 528.364118 26.137279 
L 530.415592 29.404439 
L 530.440678 29.43556 
L 532.446805 32.671599 
L 533.694915 34.751321 
L 534.763506 35.938759 
L 536.867363 39.205919 
L 536.949153 39.279374 
L 540.20339 39.533994 
L 542.290445 42.473078 
L 543.457627 43.881169 
L 545.471457 45.740238 
L 546.698852 49.007398 
L 546.711864 49.052127 
L 549.488738 52.274558 
L 549.966102 53.013757 
L 551.15278 55.541718 
L 553.145508 58.808878 
L 553.220339 58.900572 
L 554.920873 62.076038 
L 556.474576 64.964167 
L 556.820588 65.343198 
L 558.699263 68.610357 
L 559.728814 69.674886 
L 562.983051 69.24096 
L 564.959959 71.877517 
L 566.237288 72.783856 
L 568.915397 75.144677 
L 569.491525 77.930226 
L 569.664519 78.411837 
L 572.745763 81.320737 
L 572.913897 81.678997 
L 574.044535 84.946157 
z
" clip-path="url(#pb17c062be1)" style="fill: #dfecf7; fill-opacity: 0.9"/>
    <path d="M 576 81.546061 
L 576 78.411837 
L 576 75.144677 
L 576 71.877517 
L 576 68.610357 
L 576 67.303663 
L 572.745763 66.561237 
L 572.392305 65.343198 
L 569.491525 62.153927 
L 569.453684 62.076038 
L 568.228119 58.808878 
L 566.423928 55.541718 
L 566.237288 55.324719 
L 564.944942 52.274558 
L 563.362449 49.007398 
L 562.983051 48.490806 
L 561.557322 45.740238 
L 560.256032 42.473078 
L 559.728814 41.701419 
L 557.442681 39.205919 
L 556.787416 35.938759 
L 556.474576 35.452838 
L 554.927714 35.938759 
L 553.220339 37.12605 
L 551.459864 35.938759 
L 549.966102 35.069128 
L 547.383207 32.671599 
L 546.711864 32.096058 
L 545.732518 29.404439 
L 543.762937 26.137279 
L 543.457627 25.766009 
L 542.223391 22.870119 
L 540.4986 19.602959 
L 540.20339 19.175466 
L 538.913325 16.335799 
L 537.2383 13.06864 
L 536.949153 12.591831 
L 534.81004 9.80148 
L 534.017817 6.53432 
L 533.694915 6.013906 
L 531.760724 6.53432 
L 530.440678 7.220707 
L 529.777596 6.53432 
L 527.186441 4.380307 
L 526.106931 3.26716 
L 523.932203 0.883665 
L 523.495631 0 
L 520.677966 0 
L 517.423729 0 
L 516.001731 0 
L 517.423729 1.4618 
L 518.706 3.26716 
L 520.677966 5.275118 
L 521.457862 6.53432 
L 523.393857 9.80148 
L 523.932203 10.522743 
L 525.526775 13.06864 
L 527.186441 15.724279 
L 527.766908 16.335799 
L 530.05931 19.602959 
L 530.440678 20.286573 
L 532.909229 22.870119 
L 533.694915 23.752069 
L 536.281038 26.137279 
L 536.949153 26.840347 
L 540.20339 29.176668 
L 540.268195 29.404439 
L 542.501351 32.671599 
L 543.457627 33.490992 
L 544.653374 35.938759 
L 546.468714 39.205919 
L 546.711864 39.500159 
L 548.296372 42.473078 
L 549.966102 45.585406 
L 550.125111 45.740238 
L 552.182414 49.007398 
L 553.220339 51.380623 
L 554.500493 52.274558 
L 556.474576 54.389222 
L 558.480272 55.541718 
L 559.728814 56.244074 
L 562.983051 56.751735 
L 563.592134 58.808878 
L 566.237288 61.495901 
L 566.515432 62.076038 
L 567.762848 65.343198 
L 569.491525 68.201742 
L 569.720684 68.610357 
L 571.247831 71.877517 
L 572.745763 74.887203 
L 572.978116 75.144677 
L 574.623421 78.411837 
z
" clip-path="url(#pb17c062be1)" style="fill: #dae8f6; fill-opacity: 0.9"/>
    <path d="M 572.745763 66.561237 
L 576 67.303663 
L 576 65.343198 
L 576 62.076038 
L 576 58.808878 
L 576 55.541718 
L 576 52.274558 
L 576 49.007398 
L 576 46.116572 
L 575.76602 45.740238 
L 574.141092 42.473078 
L 572.745763 40.400637 
L 571.781843 39.205919 
L 570.146946 35.938759 
L 569.491525 34.891097 
L 567.178883 32.671599 
L 566.237288 31.253579 
L 562.983051 30.746542 
L 561.49004 29.404439 
L 559.728814 27.821231 
L 559.091189 26.137279 
L 556.474576 23.509283 
L 556.149644 22.870119 
L 554.932983 19.602959 
L 553.220339 17.640493 
L 552.483802 16.335799 
L 550.942015 13.06864 
L 549.966102 11.859659 
L 548.533227 9.80148 
L 547.054724 6.53432 
L 546.711864 6.078825 
L 544.159074 3.26716 
L 543.457627 2.039556 
L 540.20339 0.338729 
L 539.623358 0 
L 536.949153 0 
L 533.694915 0 
L 530.440678 0 
L 527.186441 0 
L 523.932203 0 
L 523.495631 0 
L 523.932203 0.883665 
L 526.106931 3.26716 
L 527.186441 4.380307 
L 529.777596 6.53432 
L 530.440678 7.220707 
L 531.760724 6.53432 
L 533.694915 6.013906 
L 534.017817 6.53432 
L 534.81004 9.80148 
L 536.949153 12.591831 
L 537.2383 13.06864 
L 538.913325 16.335799 
L 540.20339 19.175466 
L 540.4986 19.602959 
L 542.223391 22.870119 
L 543.457627 25.766009 
L 543.762937 26.137279 
L 545.732518 29.404439 
L 546.711864 32.096058 
L 547.383207 32.671599 
L 549.966102 35.069128 
L 551.459864 35.938759 
L 553.220339 37.12605 
L 554.927714 35.938759 
L 556.474576 35.452838 
L 556.787416 35.938759 
L 557.442681 39.205919 
L 559.728814 41.701419 
L 560.256032 42.473078 
L 561.557322 45.740238 
L 562.983051 48.490806 
L 563.362449 49.007398 
L 564.944942 52.274558 
L 566.237288 55.324719 
L 566.423928 55.541718 
L 568.228119 58.808878 
L 569.453684 62.076038 
L 569.491525 62.153927 
L 572.392305 65.343198 
z
" clip-path="url(#pb17c062be1)" style="fill: #d6e5f4; fill-opacity: 0.9"/>
    <path d="M 576 46.116572 
L 576 45.740238 
L 576 42.473078 
L 576 39.205919 
L 576 35.938759 
L 576 32.671599 
L 576 29.404439 
L 576 26.137279 
L 576 22.870119 
L 576 19.602959 
L 576 16.335799 
L 576 13.06864 
L 576 9.949684 
L 575.901095 9.80148 
L 574.160232 6.53432 
L 573.019984 3.26716 
L 572.745763 2.679242 
L 571.405737 0 
L 569.491525 0 
L 566.237288 0 
L 562.983051 0 
L 559.728814 0 
L 556.474576 0 
L 553.220339 0 
L 549.966102 0 
L 546.711864 0 
L 543.457627 0 
L 540.20339 0 
L 539.623358 0 
L 540.20339 0.338729 
L 543.457627 2.039556 
L 544.159074 3.26716 
L 546.711864 6.078825 
L 547.054724 6.53432 
L 548.533227 9.80148 
L 549.966102 11.859659 
L 550.942015 13.06864 
L 552.483802 16.335799 
L 553.220339 17.640493 
L 554.932983 19.602959 
L 556.149644 22.870119 
L 556.474576 23.509283 
L 559.091189 26.137279 
L 559.728814 27.821231 
L 561.49004 29.404439 
L 562.983051 30.746542 
L 566.237288 31.253579 
L 567.178883 32.671599 
L 569.491525 34.891097 
L 570.146946 35.938759 
L 571.781843 39.205919 
L 572.745763 40.400637 
L 574.141092 42.473078 
L 575.76602 45.740238 
z
" clip-path="url(#pb17c062be1)" style="fill: #d0e2f2; fill-opacity: 0.9"/>
    <path d="M 576 9.949684 
L 576 9.80148 
L 576 6.53432 
L 576 3.26716 
L 576 0 
L 572.745763 0 
L 571.405737 0 
L 572.745763 2.679242 
L 573.019984 3.26716 
L 574.160232 6.53432 
L 575.901095 9.80148 
z
" clip-path="url(#pb17c062be1)" style="fill: #cbdef1; fill-opacity: 0.9"/>
    <path clip-path="url(#pb17c062be1)" style="fill: #c6dbef; fill-opacity: 0.9"/>
    <path clip-path="url(#pb17c062be1)" style="fill: #bed8ec; fill-opacity: 0.9"/>
    <path clip-path="url(#pb17c062be1)" style="fill: #b5d4e9; fill-opacity: 0.9"/>
    <path clip-path="url(#pb17c062be1)" style="fill: #add0e6; fill-opacity: 0.9"/>
    <path clip-path="url(#pb17c062be1)" style="fill: #a5cde3; fill-opacity: 0.9"/>
    <path clip-path="url(#pb17c062be1)" style="fill: #9cc9e1; fill-opacity: 0.9"/>
    <path clip-path="url(#pb17c062be1)" style="fill: #91c3de; fill-opacity: 0.9"/>
    <path clip-path="url(#pb17c062be1)" style="fill: #85bcdc; fill-opacity: 0.9"/>
    <path clip-path="url(#pb17c062be1)" style="fill: #7cb7da; fill-opacity: 0.9"/>
    <path clip-path="url(#pb17c062be1)" style="fill: #71b1d7; fill-opacity: 0.9"/>
    <path clip-path="url(#pb17c062be1)" style="fill: #66abd4; fill-opacity: 0.9"/>
    <path clip-path="url(#pb17c062be1)" style="fill: #5da5d1; fill-opacity: 0.9"/>
    <path clip-path="url(#pb17c062be1)" style="fill: #56a0ce; fill-opacity: 0.9"/>
    <path clip-path="url(#pb17c062be1)" style="fill: #4d99ca; fill-opacity: 0.9"/>
    <path clip-path="url(#pb17c062be1)" style="fill: #4493c7; fill-opacity: 0.9"/>
    <path clip-path="url(#pb17c062be1)" style="fill: #3c8cc3; fill-opacity: 0.9"/>
    <path clip-path="url(#pb17c062be1)" style="fill: #3686c0; fill-opacity: 0.9"/>
    <path clip-path="url(#pb17c062be1)" style="fill: #2f7fbc; fill-opacity: 0.9"/>
    <path clip-path="url(#pb17c062be1)" style="fill: #2777b8; fill-opacity: 0.9"/>
    <path clip-path="url(#pb17c062be1)" style="fill: #2070b4; fill-opacity: 0.9"/>
    <path clip-path="url(#pb17c062be1)" style="fill: #1c6ab0; fill-opacity: 0.9"/>
    <path clip-path="url(#pb17c062be1)" style="fill: #1663aa; fill-opacity: 0.9"/>
    <path clip-path="url(#pb17c062be1)" style="fill: #115ca5; fill-opacity: 0.9"/>
    <path clip-path="url(#pb17c062be1)" style="fill: #0c56a0; fill-opacity: 0.9"/>
    <path clip-path="url(#pb17c062be1)" style="fill: #084f99; fill-opacity: 0.9"/>
    <path clip-path="url(#pb17c062be1)" style="fill: #08488e; fill-opacity: 0.9"/>
    <path clip-path="url(#pb17c062be1)" style="fill: #084184; fill-opacity: 0.9"/>
    <path clip-path="url(#pb17c062be1)" style="fill: #083a7a; fill-opacity: 0.9"/>
    <path clip-path="url(#pb17c062be1)" style="fill: #083370; fill-opacity: 0.9"/>
    <path clip-path="url(#pb17c062be1)" style="fill: #08306b; fill-opacity: 0.9"/>
   </g>
   <g id="QuadContourSet_2">
    <path d="M 495.725195 0 
L 497.898305 3.195799 
L 498.023309 3.26716 
L 501.152542 5.449775 
L 501.641178 6.53432 
L 504.40678 8.900925 
L 504.910912 9.80148 
L 506.444484 13.06864 
L 507.661017 14.566201 
L 508.893472 16.335799 
L 510.915254 18.893492 
L 511.512469 19.602959 
L 513.995145 22.870119 
L 514.169492 23.040304 
L 516.514091 26.137279 
L 517.423729 27.127157 
L 519.660046 29.404439 
L 520.677966 30.778784 
L 523.112023 32.671599 
L 523.932203 34.155719 
L 525.216489 35.938759 
L 527.186441 37.400927 
L 528.002645 39.205919 
L 529.726787 42.473078 
L 530.440678 43.300438 
L 532.074122 45.740238 
L 533.694915 47.795401 
L 534.65075 49.007398 
L 536.949153 51.921767 
L 537.344278 52.274558 
L 539.663578 55.541718 
L 540.20339 56.078099 
L 542.587575 58.808878 
L 543.457627 59.890338 
L 546.083187 62.076038 
L 546.711864 63.069318 
L 549.124262 65.343198 
L 549.966102 66.119816 
L 550.931309 68.610357 
L 552.951254 71.877517 
L 553.220339 72.14754 
L 554.556686 74.174557 
M 566.302012 89.235306 
L 568.864088 91.480477 
L 569.491525 92.409504 
L 572.745763 94.732701 
L 572.753393 94.747637 
L 573.787584 98.014796 
L 576 101.102546 
" clip-path="url(#pb17c062be1)" style="fill: none"/>
    <path d="M 498.932005 0 
L 501.13982 1.561433 
M 511.350627 17.800521 
L 512.867882 19.602959 
L 514.169492 21.277858 
L 516.109845 22.870119 
L 517.423729 24.88293 
L 519.31952 26.137279 
L 520.677966 27.563663 
L 523.932203 29.159428 
L 524.057472 29.404439 
L 525.177027 32.671599 
L 527.186441 35.010213 
L 527.732679 35.938759 
L 529.20358 39.205919 
L 530.440678 41.334113 
L 531.152004 42.473078 
L 533.308598 45.740238 
L 533.694915 46.230088 
L 535.885227 49.007398 
L 536.949153 50.356454 
L 539.097424 52.274558 
L 540.20339 53.85112 
L 542.411137 55.541718 
L 543.457627 56.997598 
L 546.711864 58.369631 
L 546.892536 58.808878 
L 548.191095 62.076038 
L 549.966102 63.793678 
L 550.793703 65.343198 
L 552.226544 68.610357 
L 553.220339 70.159158 
L 554.194478 71.877517 
L 556.393164 75.144677 
L 556.474576 75.248678 
L 558.950718 78.411837 
L 559.728814 79.405819 
L 561.971528 81.678997 
L 562.983051 83.069802 
L 565.22723 84.946157 
L 566.237288 86.619041 
L 569.491525 87.871501 
L 569.603903 88.213317 
L 571.201831 91.480477 
L 572.745763 92.68476 
L 573.799649 94.747637 
L 575.254963 98.014796 
L 576 99.054605 
" clip-path="url(#pb17c062be1)" style="fill: none"/>
    <path d="M 501.891733 0 
L 503.308262 3.26716 
L 504.40678 4.884865 
L 505.684031 6.53432 
L 507.159111 9.80148 
L 507.661017 10.698057 
L 509.477235 13.06864 
L 510.915254 15.33705 
L 512.249003 16.335799 
L 514.169492 19.397848 
L 514.614688 19.602959 
L 517.423729 20.897141 
L 520.677966 22.209139 
L 520.887344 22.870119 
L 523.137776 26.137279 
L 523.932203 26.709985 
L 525.30982 29.404439 
L 526.952189 32.671599 
L 527.186441 32.944228 
L 528.948042 35.938759 
L 530.404516 39.205919 
L 530.440678 39.268128 
L 532.442288 42.473078 
L 533.694915 44.386256 
L 535.35395 45.740238 
L 536.949153 48.442315 
L 537.869336 49.007398 
L 540.20339 50.598481 
L 543.457627 51.724824 
L 543.639657 52.274558 
L 546.711864 55.409613 
L 546.830004 55.541718 
L 547.363385 56.874864 
M 556.610971 73.680668 
L 558.300405 75.144677 
L 559.728814 77.352351 
L 561.12488 78.411837 
L 562.983051 80.325385 
L 566.011438 81.678997 
L 566.237288 81.809014 
L 569.491525 84.266973 
L 570.022909 84.946157 
L 571.042889 88.213317 
L 572.745763 90.636818 
L 573.455676 91.480477 
L 574.845904 94.747637 
L 576 97.006663 
" clip-path="url(#pb17c062be1)" style="fill: none"/>
    <path d="M 503.490647 0 
L 504.40678 2.439539 
L 505.148471 3.26716 
L 507.238945 6.53432 
L 507.661017 7.609359 
L 509.588758 9.80148 
L 510.915254 12.590599 
L 511.647399 13.06864 
L 514.169492 14.230619 
L 517.423729 15.557412 
L 517.863348 16.335799 
L 520.486633 18.278451 
M 529.736408 34.605067 
L 530.163406 35.938759 
L 530.440678 36.560921 
L 532.66816 39.205919 
L 533.694915 42.27287 
L 533.926898 42.473078 
L 536.949153 44.199363 
L 540.20339 45.507951 
L 540.390677 45.740238 
L 543.457627 47.500452 
L 544.601136 49.007398 
L 545.617775 52.274558 
L 546.711864 53.391029 
L 548.635195 55.541718 
L 549.381804 58.808878 
L 549.966102 59.756509 
L 552.144415 62.076038 
L 552.949962 65.343198 
L 553.220339 65.8955 
L 555.531226 68.610357 
L 556.474576 71.829577 
L 556.520434 71.877517 
L 559.728814 74.031728 
L 561.943015 75.144677 
L 562.983051 75.773094 
L 566.237288 76.488378 
L 567.328884 78.411837 
L 568.798997 81.678997 
L 569.491525 82.219032 
L 571.62519 84.946157 
L 572.481875 88.213317 
L 572.745763 88.588877 
L 575.178959 91.480477 
L 575.89216 94.747637 
L 576 94.958722 
" clip-path="url(#pb17c062be1)" style="fill: none"/>
    <path d="M 507.347478 0 
L 507.661017 0.384335 
L 510.165867 3.26716 
L 510.915254 4.265826 
L 512.664205 6.53432 
L 514.169492 8.32431 
L 516.563866 9.80148 
L 517.423729 10.123176 
L 519.490801 13.06864 
L 520.677966 15.648485 
L 521.359484 16.335799 
L 523.846853 19.602959 
L 523.932203 20.094616 
L 525.897057 22.870119 
L 527.186441 24.170671 
L 528.364118 26.137279 
L 530.415592 29.404439 
L 530.440678 29.43556 
L 532.446805 32.671599 
L 533.694915 34.751321 
L 534.763506 35.938759 
L 536.867363 39.205919 
L 536.949153 39.279374 
L 540.20339 39.533994 
L 542.290445 42.473078 
L 543.457627 43.881169 
L 545.471457 45.740238 
L 546.698852 49.007398 
L 546.711864 49.052127 
L 549.488738 52.274558 
L 549.966102 53.013757 
L 551.15278 55.541718 
L 553.145508 58.808878 
L 553.220339 58.900572 
L 554.920873 62.076038 
L 556.474576 64.964167 
L 556.820588 65.343198 
L 558.699263 68.610357 
L 559.728814 69.674886 
L 562.983051 69.24096 
L 564.959959 71.877517 
L 566.237288 72.783856 
L 567.439233 73.843401 
" clip-path="url(#pb17c062be1)" style="fill: none"/>
    <path d="M 516.001731 0 
L 517.423729 1.4618 
L 517.854817 2.068745 
M 528.735328 17.716004 
L 530.05931 19.602959 
L 530.440678 20.286573 
L 532.909229 22.870119 
L 533.694915 23.752069 
L 536.281038 26.137279 
L 536.949153 26.840347 
L 540.20339 29.176668 
L 540.268195 29.404439 
L 542.501351 32.671599 
L 543.457627 33.490992 
L 544.653374 35.938759 
L 546.468714 39.205919 
L 546.711864 39.500159 
L 548.296372 42.473078 
L 549.966102 45.585406 
L 550.125111 45.740238 
L 552.182414 49.007398 
L 553.220339 51.380623 
L 554.500493 52.274558 
L 556.474576 54.389222 
L 558.480272 55.541718 
L 559.728814 56.244074 
L 562.983051 56.751735 
L 563.592134 58.808878 
L 566.237288 61.495901 
L 566.515432 62.076038 
L 567.762848 65.343198 
L 569.491525 68.201742 
L 569.720684 68.610357 
L 571.247831 71.877517 
L 572.745763 74.887203 
L 572.978116 75.144677 
L 574.623421 78.411837 
L 576 81.546061 
" clip-path="url(#pb17c062be1)" style="fill: none"/>
    <path d="M 523.495631 0 
L 523.932203 0.883665 
L 526.106931 3.26716 
L 527.186441 4.380307 
L 529.777596 6.53432 
L 530.440678 7.220707 
L 531.760724 6.53432 
L 533.694915 6.013906 
L 534.017817 6.53432 
L 534.81004 9.80148 
L 536.949153 12.591831 
L 537.2383 13.06864 
L 537.892028 14.343746 
M 546.460203 31.404395 
L 546.711864 32.096058 
L 547.383207 32.671599 
L 549.966102 35.069128 
L 551.459864 35.938759 
L 553.220339 37.12605 
L 554.927714 35.938759 
L 556.474576 35.452838 
L 556.787416 35.938759 
L 557.442681 39.205919 
L 559.728814 41.701419 
L 560.256032 42.473078 
L 561.557322 45.740238 
L 562.983051 48.490806 
L 563.362449 49.007398 
L 564.944942 52.274558 
L 566.237288 55.324719 
L 566.423928 55.541718 
L 568.228119 58.808878 
L 569.453684 62.076038 
L 569.491525 62.153927 
L 572.392305 65.343198 
L 572.745763 66.561237 
L 576 67.303663 
" clip-path="url(#pb17c062be1)" style="fill: none"/>
    <path d="M 539.623358 0 
L 540.119722 0.289869 
M 551.761917 14.806071 
L 552.483802 16.335799 
L 553.220339 17.640493 
L 554.932983 19.602959 
L 556.149644 22.870119 
L 556.474576 23.509283 
L 559.091189 26.137279 
L 559.728814 27.821231 
L 561.49004 29.404439 
L 562.983051 30.746542 
L 566.237288 31.253579 
L 567.178883 32.671599 
L 569.491525 34.891097 
L 570.146946 35.938759 
L 571.781843 39.205919 
L 572.745763 40.400637 
L 574.141092 42.473078 
L 575.76602 45.740238 
L 576 46.116572 
" clip-path="url(#pb17c062be1)" style="fill: none"/>
    <path d="M 571.405737 0 
L 572.745763 2.679242 
L 573.019984 3.26716 
L 574.160232 6.53432 
L 575.901095 9.80148 
L 576 9.949684 
" clip-path="url(#pb17c062be1)" style="fill: none"/>
    <path clip-path="url(#pb17c062be1)" style="fill: none"/>
    <path clip-path="url(#pb17c062be1)" style="fill: none"/>
    <path clip-path="url(#pb17c062be1)" style="fill: none"/>
    <path clip-path="url(#pb17c062be1)" style="fill: none"/>
    <path clip-path="url(#pb17c062be1)" style="fill: none"/>
    <path clip-path="url(#pb17c062be1)" style="fill: none"/>
    <path clip-path="url(#pb17c062be1)" style="fill: none"/>
    <path clip-path="url(#pb17c062be1)" style="fill: none"/>
    <path clip-path="url(#pb17c062be1)" style="fill: none"/>
    <path clip-path="url(#pb17c062be1)" style="fill: none"/>
    <path clip-path="url(#pb17c062be1)" style="fill: none"/>
    <path clip-path="url(#pb17c062be1)" style="fill: none"/>
    <path clip-path="url(#pb17c062be1)" style="fill: none"/>
    <path clip-path="url(#pb17c062be1)" style="fill: none"/>
    <path clip-path="url(#pb17c062be1)" style="fill: none"/>
    <path clip-path="url(#pb17c062be1)" style="fill: none"/>
    <path clip-path="url(#pb17c062be1)" style="fill: none"/>
    <path clip-path="url(#pb17c062be1)" style="fill: none"/>
    <path clip-path="url(#pb17c062be1)" style="fill: none"/>
    <path clip-path="url(#pb17c062be1)" style="fill: none"/>
    <path clip-path="url(#pb17c062be1)" style="fill: none"/>
    <path clip-path="url(#pb17c062be1)" style="fill: none"/>
    <path clip-path="url(#pb17c062be1)" style="fill: none"/>
    <path clip-path="url(#pb17c062be1)" style="fill: none"/>
    <path clip-path="url(#pb17c062be1)" style="fill: none"/>
    <path clip-path="url(#pb17c062be1)" style="fill: none"/>
    <path clip-path="url(#pb17c062be1)" style="fill: none"/>
    <path clip-path="url(#pb17c062be1)" style="fill: none"/>
    <path clip-path="url(#pb17c062be1)" style="fill: none"/>
    <path clip-path="url(#pb17c062be1)" style="fill: none"/>
   </g>
   <g id="text_1">
    <g clip-path="url(#pb17c062be1)">
     <!-- 0 -->
     <g style="opacity: 0" transform="translate(555.502187 80.715772) rotate(-308.073888) scale(0.12 -0.12)">
      <defs>
       <path id="DejaVuSans-30" d="M 2034 4250 
Q 1547 4250 1301 3770 
Q 1056 3291 1056 2328 
Q 1056 1369 1301 889 
Q 1547 409 2034 409 
Q 2525 409 2770 889 
Q 3016 1369 3016 2328 
Q 3016 3291 2770 3770 
Q 2525 4250 2034 4250 
z
M 2034 4750 
Q 2819 4750 3233 4129 
Q 3647 3509 3647 2328 
Q 3647 1150 3233 529 
Q 2819 -91 2034 -91 
Q 1250 -91 836 529 
Q 422 1150 422 2328 
Q 422 3509 836 4129 
Q 1250 4750 2034 4750 
z
" transform="scale(0.015625)"/>
      </defs>
      <use xlink:href="#DejaVuSans-30"/>
     </g>
    </g>
   </g>
   <g id="text_2">
    <g clip-path="url(#pb17c062be1)">
     <!-- 1 -->
     <g style="opacity: 0" transform="translate(501.209418 8.301038) rotate(-301.789804) scale(0.12 -0.12)">
      <defs>
       <path id="DejaVuSans-31" d="M 794 531 
L 1825 531 
L 1825 4091 
L 703 3866 
L 703 4441 
L 1819 4666 
L 2450 4666 
L 2450 531 
L 3481 531 
L 3481 0 
L 794 0 
L 794 531 
z
" transform="scale(0.015625)"/>
      </defs>
      <use xlink:href="#DejaVuSans-31"/>
     </g>
    </g>
   </g>
   <g id="text_3">
    <g clip-path="url(#pb17c062be1)">
     <!-- 2 -->
     <g style="opacity: 0" transform="translate(547.134677 63.583357) rotate(-298.682154) scale(0.12 -0.12)">
      <defs>
       <path id="DejaVuSans-32" d="M 1228 531 
L 3431 531 
L 3431 0 
L 469 0 
L 469 531 
Q 828 903 1448 1529 
Q 2069 2156 2228 2338 
Q 2531 2678 2651 2914 
Q 2772 3150 2772 3378 
Q 2772 3750 2511 3984 
Q 2250 4219 1831 4219 
Q 1534 4219 1204 4116 
Q 875 4013 500 3803 
L 500 4441 
Q 881 4594 1212 4672 
Q 1544 4750 1819 4750 
Q 2544 4750 2975 4387 
Q 3406 4025 3406 3419 
Q 3406 3131 3298 2873 
Q 3191 2616 2906 2266 
Q 2828 2175 2409 1742 
Q 1991 1309 1228 531 
z
" transform="scale(0.015625)"/>
      </defs>
      <use xlink:href="#DejaVuSans-32"/>
     </g>
    </g>
   </g>
   <g id="text_4">
    <g clip-path="url(#pb17c062be1)">
     <!-- 3 -->
     <g style="opacity: 0" transform="translate(520.773796 24.499852) rotate(-300.155876) scale(0.12 -0.12)">
      <defs>
       <path id="DejaVuSans-33" d="M 2597 2516 
Q 3050 2419 3304 2112 
Q 3559 1806 3559 1356 
Q 3559 666 3084 287 
Q 2609 -91 1734 -91 
Q 1441 -91 1130 -33 
Q 819 25 488 141 
L 488 750 
Q 750 597 1062 519 
Q 1375 441 1716 441 
Q 2309 441 2620 675 
Q 2931 909 2931 1356 
Q 2931 1769 2642 2001 
Q 2353 2234 1838 2234 
L 1294 2234 
L 1294 2753 
L 1863 2753 
Q 2328 2753 2575 2939 
Q 2822 3125 2822 3475 
Q 2822 3834 2567 4026 
Q 2313 4219 1838 4219 
Q 1578 4219 1281 4162 
Q 984 4106 628 3988 
L 628 4550 
Q 988 4650 1302 4700 
Q 1616 4750 1894 4750 
Q 2613 4750 3031 4423 
Q 3450 4097 3450 3541 
Q 3450 3153 3228 2886 
Q 3006 2619 2597 2516 
z
" transform="scale(0.015625)"/>
      </defs>
      <use xlink:href="#DejaVuSans-33"/>
     </g>
    </g>
   </g>
   <g id="text_5">
    <g clip-path="url(#pb17c062be1)">
     <!-- 4 -->
     <g style="opacity: 0" transform="translate(567.894002 79.907195) rotate(-302.818772) scale(0.12 -0.12)">
      <defs>
       <path id="DejaVuSans-34" d="M 2419 4116 
L 825 1625 
L 2419 1625 
L 2419 4116 
z
M 2253 4666 
L 3047 4666 
L 3047 1625 
L 3713 1625 
L 3713 1100 
L 3047 1100 
L 3047 0 
L 2419 0 
L 2419 1100 
L 313 1100 
L 313 1709 
L 2253 4666 
z
" transform="scale(0.015625)"/>
      </defs>
      <use xlink:href="#DejaVuSans-34"/>
     </g>
    </g>
   </g>
   <g id="text_6">
    <g clip-path="url(#pb17c062be1)">
     <!-- 5 -->
     <g style="opacity: 0" transform="translate(518.560957 8.32474) rotate(-302.071012) scale(0.12 -0.12)">
      <defs>
       <path id="DejaVuSans-35" d="M 691 4666 
L 3169 4666 
L 3169 4134 
L 1269 4134 
L 1269 2991 
Q 1406 3038 1543 3061 
Q 1681 3084 1819 3084 
Q 2600 3084 3056 2656 
Q 3513 2228 3513 1497 
Q 3513 744 3044 326 
Q 2575 -91 1722 -91 
Q 1428 -91 1123 -41 
Q 819 9 494 109 
L 494 744 
Q 775 591 1075 516 
Q 1375 441 1709 441 
Q 2250 441 2565 725 
Q 2881 1009 2881 1497 
Q 2881 1984 2565 2268 
Q 2250 2553 1709 2553 
Q 1456 2553 1204 2497 
Q 953 2441 691 2322 
L 691 4666 
z
" transform="scale(0.015625)"/>
      </defs>
      <use xlink:href="#DejaVuSans-35"/>
     </g>
    </g>
   </g>
   <g id="text_7">
    <g clip-path="url(#pb17c062be1)">
     <!-- 6 -->
     <g style="opacity: 0" transform="translate(537.521377 21.018431) rotate(-297.567167) scale(0.12 -0.12)">
      <defs>
       <path id="DejaVuSans-36" d="M 2113 2584 
Q 1688 2584 1439 2293 
Q 1191 2003 1191 1497 
Q 1191 994 1439 701 
Q 1688 409 2113 409 
Q 2538 409 2786 701 
Q 3034 994 3034 1497 
Q 3034 2003 2786 2293 
Q 2538 2584 2113 2584 
z
M 3366 4563 
L 3366 3988 
Q 3128 4100 2886 4159 
Q 2644 4219 2406 4219 
Q 1781 4219 1451 3797 
Q 1122 3375 1075 2522 
Q 1259 2794 1537 2939 
Q 1816 3084 2150 3084 
Q 2853 3084 3261 2657 
Q 3669 2231 3669 1497 
Q 3669 778 3244 343 
Q 2819 -91 2113 -91 
Q 1303 -91 875 529 
Q 447 1150 447 2328 
Q 447 3434 972 4092 
Q 1497 4750 2381 4750 
Q 2619 4750 2861 4703 
Q 3103 4656 3366 4563 
z
" transform="scale(0.015625)"/>
      </defs>
      <use xlink:href="#DejaVuSans-36"/>
     </g>
    </g>
   </g>
   <g id="text_8">
    <g clip-path="url(#pb17c062be1)">
     <!-- 7 -->
     <g style="opacity: 0" transform="translate(542.177344 5.211878) rotate(-303.891735) scale(0.12 -0.12)">
      <defs>
       <path id="DejaVuSans-37" d="M 525 4666 
L 3525 4666 
L 3525 4397 
L 1831 0 
L 1172 0 
L 2766 4134 
L 525 4134 
L 525 4666 
z
" transform="scale(0.015625)"/>
      </defs>
      <use xlink:href="#DejaVuSans-37"/>
     </g>
    </g>
   </g>
  </g>
 </g>
 <defs>
  <clipPath id="pb17c062be1">
   <rect x="0" y="0" width="576" height="813.52281"/>
  </clipPath>
 </defs>
</svg>
