<?xml version="1.0" encoding="utf-8" standalone="no"?>
<!DOCTYPE svg PUBLIC "-//W3C//DTD SVG 1.1//EN"
  "http://www.w3.org/Graphics/SVG/1.1/DTD/svg11.dtd">
<svg xmlns:xlink="http://www.w3.org/1999/xlink" width="576pt" height="818.23674pt" viewBox="0 0 576 818.23674" xmlns="http://www.w3.org/2000/svg" version="1.1">
 <metadata>
  <rdf:RDF xmlns:dc="http://purl.org/dc/elements/1.1/" xmlns:cc="http://creativecommons.org/ns#" xmlns:rdf="http://www.w3.org/1999/02/22-rdf-syntax-ns#">
   <cc:Work>
    <dc:type rdf:resource="http://purl.org/dc/dcmitype/StillImage"/>
    <dc:date>2025-07-25T22:45:58.706686</dc:date>
    <dc:format>image/svg+xml</dc:format>
    <dc:creator>
     <cc:Agent>
      <dc:title>Matplotlib v3.10.3, https://matplotlib.org/</dc:title>
     </cc:Agent>
    </dc:creator>
   </cc:Work>
  </rdf:RDF>
 </metadata>
 <defs>
  <style type="text/css">*{stroke-linejoin: round; stroke-linecap: butt}</style>
 </defs>
 <g id="figure_1">
  <g id="patch_1">
   <path d="M 0 818.23674 
L 576 818.23674 
L 576 0 
L 0 0 
L 0 818.23674 
z
" style="fill: none; opacity: 0"/>
  </g>
  <g id="axes_1">
   <g id="QuadContourSet_1">
    <path d="M 3.291429 818.23674 
L 6.582857 818.23674 
L 9.874286 818.23674 
L 13.165714 818.23674 
L 16.457143 818.23674 
L 19.748571 818.23674 
L 23.04 818.23674 
L 26.331429 818.23674 
L 29.622857 818.23674 
L 32.914286 818.23674 
L 36.205714 818.23674 
L 39.497143 818.23674 
L 42.788571 818.23674 
L 46.08 818.23674 
L 49.371429 818.23674 
L 52.662857 818.23674 
L 55.954286 818.23674 
L 59.245714 818.23674 
L 62.537143 818.23674 
L 65.828571 818.23674 
L 69.12 818.23674 
L 72.411429 818.23674 
L 75.702857 818.23674 
L 78.994286 818.23674 
L 82.285714 818.23674 
L 85.577143 818.23674 
L 88.868571 818.23674 
L 92.16 818.23674 
L 95.451429 818.23674 
L 98.742857 818.23674 
L 102.034286 818.23674 
L 105.325714 818.23674 
L 108.617143 818.23674 
L 111.908571 818.23674 
L 115.2 818.23674 
L 118.491429 818.23674 
L 121.782857 818.23674 
L 125.074286 818.23674 
L 128.365714 818.23674 
L 131.657143 818.23674 
L 134.948571 818.23674 
L 138.24 818.23674 
L 141.531429 818.23674 
L 144.822857 818.23674 
L 148.114286 818.23674 
L 151.405714 818.23674 
L 154.697143 818.23674 
L 157.988571 818.23674 
L 161.28 818.23674 
L 164.571429 818.23674 
L 167.862857 818.23674 
L 171.154286 818.23674 
L 174.445714 818.23674 
L 177.737143 818.23674 
L 181.028571 818.23674 
L 184.32 818.23674 
L 187.611429 818.23674 
L 190.902857 818.23674 
L 194.194286 818.23674 
L 197.485714 818.23674 
L 200.777143 818.23674 
L 204.068571 818.23674 
L 207.36 818.23674 
L 210.651429 818.23674 
L 213.942857 818.23674 
L 217.234286 818.23674 
L 220.525714 818.23674 
L 223.817143 818.23674 
L 227.108571 818.23674 
L 230.4 818.23674 
L 233.691429 818.23674 
L 236.982857 818.23674 
L 240.274286 818.23674 
L 243.565714 818.23674 
L 246.857143 818.23674 
L 250.148571 818.23674 
L 253.44 818.23674 
L 256.731429 818.23674 
L 260.022857 818.23674 
L 263.314286 818.23674 
L 266.605714 818.23674 
L 269.897143 818.23674 
L 273.188571 818.23674 
L 276.48 818.23674 
L 279.771429 818.23674 
L 283.062857 818.23674 
L 286.354286 818.23674 
L 289.645714 818.23674 
L 292.937143 818.23674 
L 296.228571 818.23674 
L 299.52 818.23674 
L 302.811429 818.23674 
L 306.102857 818.23674 
L 309.394286 818.23674 
L 312.685714 818.23674 
L 315.977143 818.23674 
L 319.268571 818.23674 
L 322.56 818.23674 
L 325.851429 818.23674 
L 329.142857 818.23674 
L 332.434286 818.23674 
L 335.725714 818.23674 
L 339.017143 818.23674 
L 342.308571 818.23674 
L 345.6 818.23674 
L 348.891429 818.23674 
L 352.182857 818.23674 
L 355.474286 818.23674 
L 358.765714 818.23674 
L 362.057143 818.23674 
L 365.348571 818.23674 
L 368.64 818.23674 
L 371.931429 818.23674 
L 375.222857 818.23674 
L 378.514286 818.23674 
L 381.805714 818.23674 
L 385.097143 818.23674 
L 388.388571 818.23674 
L 391.68 818.23674 
L 394.971429 818.23674 
L 398.262857 818.23674 
L 401.554286 818.23674 
L 404.845714 818.23674 
L 408.137143 818.23674 
L 411.428571 818.23674 
L 414.72 818.23674 
L 418.011429 818.23674 
L 421.302857 818.23674 
L 424.594286 818.23674 
L 427.885714 818.23674 
L 431.177143 818.23674 
L 434.468571 818.23674 
L 437.76 818.23674 
L 441.051429 818.23674 
L 444.342857 818.23674 
L 447.634286 818.23674 
L 450.925714 818.23674 
L 454.217143 818.23674 
L 457.508571 818.23674 
L 460.8 818.23674 
L 464.091429 818.23674 
L 467.382857 818.23674 
L 470.674286 818.23674 
L 473.965714 818.23674 
L 477.257143 818.23674 
L 480.548571 818.23674 
L 483.84 818.23674 
L 487.131429 818.23674 
L 490.422857 818.23674 
L 493.714286 818.23674 
L 497.005714 818.23674 
L 500.297143 818.23674 
L 503.588571 818.23674 
L 506.88 818.23674 
L 510.171429 818.23674 
L 513.462857 818.23674 
L 516.754286 818.23674 
L 520.045714 818.23674 
L 523.337143 818.23674 
L 526.628571 818.23674 
L 529.92 818.23674 
L 533.211429 818.23674 
L 536.502857 818.23674 
L 539.794286 818.23674 
L 543.085714 818.23674 
L 546.377143 818.23674 
L 549.668571 818.23674 
L 552.96 818.23674 
L 556.251429 818.23674 
L 559.542857 818.23674 
L 562.834286 818.23674 
L 566.125714 818.23674 
L 569.417143 818.23674 
L 572.708571 818.23674 
L 576 818.23674 
L 576 814.950648 
L 576 811.664557 
L 576 808.378466 
L 576 805.092374 
L 576 801.806283 
L 576 798.520192 
L 576 795.2341 
L 576 791.948009 
L 576 788.661918 
L 576 785.375826 
L 576 782.089735 
L 576 778.803644 
L 576 775.517552 
L 576 772.231461 
L 576 768.94537 
L 576 765.659278 
L 576 762.373187 
L 576 759.087096 
L 576 755.801004 
L 576 752.514913 
L 576 749.228822 
L 576 745.94273 
L 576 742.656639 
L 576 739.370548 
L 576 736.084456 
L 576 732.798365 
L 576 729.512274 
L 576 726.226182 
L 576 722.940091 
L 576 719.654 
L 576 716.367908 
L 576 713.081817 
L 576 709.795726 
L 576 706.509635 
L 576 703.223543 
L 576 699.937452 
L 576 696.651361 
L 576 693.365269 
L 576 690.079178 
L 576 686.793087 
L 576 683.506995 
L 576 680.220904 
L 576 676.934813 
L 576 673.648721 
L 576 670.36263 
L 576 667.076539 
L 576 663.790447 
L 576 660.504356 
L 576 657.218265 
L 576 653.932173 
L 576 650.646082 
L 576 647.359991 
L 576 644.073899 
L 576 640.787808 
L 576 637.501717 
L 576 634.215625 
L 576 630.929534 
L 576 627.643443 
L 576 624.357351 
L 576 621.07126 
L 576 617.785169 
L 576 614.499077 
L 576 611.212986 
L 576 607.926895 
L 576 604.640804 
L 576 601.354712 
L 576 598.068621 
L 576 594.78253 
L 576 591.496438 
L 576 588.210347 
L 576 584.924256 
L 576 581.638164 
L 576 578.352073 
L 576 575.065982 
L 576 571.77989 
L 576 568.493799 
L 576 565.207708 
L 576 561.921616 
L 576 558.635525 
L 576 555.349434 
L 576 552.063342 
L 576 548.777251 
L 576 545.49116 
L 576 542.205068 
L 576 538.918977 
L 576 535.632886 
L 576 532.346794 
L 576 529.060703 
L 576 525.774612 
L 576 522.48852 
L 576 519.202429 
L 576 515.916338 
L 576 512.630246 
L 576 509.344155 
L 576 506.058064 
L 576 502.771972 
L 576 499.485881 
L 576 496.19979 
L 576 492.913699 
L 576 489.627607 
L 576 486.341516 
L 576 483.055425 
L 576 479.769333 
L 576 476.483242 
L 576 473.197151 
L 576 469.911059 
L 576 466.624968 
L 576 463.338877 
L 576 460.052785 
L 576 456.766694 
L 576 453.480603 
L 576 450.194511 
L 576 446.90842 
L 576 443.622329 
L 576 440.336237 
L 576 437.050146 
L 576 433.764055 
L 576 430.477963 
L 576 427.191872 
L 576 423.905781 
L 576 420.619689 
L 576 417.333598 
L 576 414.047507 
L 576 410.761415 
L 576 407.475324 
L 576 404.189233 
L 576 400.903141 
L 576 397.61705 
L 576 394.330959 
L 576 391.044867 
L 576 387.758776 
L 576 384.472685 
L 576 381.186594 
L 576 377.900502 
L 576 374.614411 
L 576 371.32832 
L 576 368.042228 
L 576 364.756137 
L 576 361.470046 
L 576 358.183954 
L 576 354.897863 
L 576 351.611772 
L 576 348.32568 
L 576 345.039589 
L 576 341.753498 
L 576 338.467406 
L 576 335.181315 
L 576 331.895224 
L 576 328.609132 
L 576 325.323041 
L 576 322.03695 
L 576 318.750858 
L 576 315.464767 
L 576 312.178676 
L 576 308.892584 
L 576 305.606493 
L 576 302.320402 
L 576 299.03431 
L 576 295.748219 
L 576 292.462128 
L 576 289.176036 
L 576 285.889945 
L 576 282.603854 
L 576 279.317762 
L 576 276.031671 
L 576 272.74558 
L 576 269.459489 
L 576 266.173397 
L 576 262.887306 
L 576 259.601215 
L 576 256.315123 
L 576 253.029032 
L 576 249.742941 
L 576 246.456849 
L 576 243.170758 
L 576 239.884667 
L 576 236.598575 
L 576 233.312484 
L 576 230.026393 
L 576 226.740301 
L 576 223.45421 
L 576 220.168119 
L 576 216.882027 
L 576 213.595936 
L 576 210.309845 
L 576 207.023753 
L 576 203.737662 
L 576 200.451571 
L 576 197.165479 
L 576 193.879388 
L 576 190.593297 
L 576 187.307205 
L 576 184.021114 
L 576 180.735023 
L 576 177.448931 
L 576 174.16284 
L 576 170.876749 
L 576 167.590657 
L 576 164.304566 
L 576 161.018475 
L 576 157.732384 
L 576 154.446292 
L 576 151.160201 
L 576 147.87411 
L 576 144.588018 
L 576 141.301927 
L 576 138.015836 
L 576 134.729744 
L 576 131.443653 
L 576 128.157562 
L 576 124.87147 
L 576 121.585379 
L 576 118.299288 
L 576 115.013196 
L 576 111.727105 
L 576 108.441014 
L 576 105.154922 
L 576 101.868831 
L 576 98.58274 
L 576 95.296648 
L 576 92.010557 
L 576 88.724466 
L 576 85.438374 
L 576 82.152283 
L 576 78.866192 
L 576 75.5801 
L 576 72.294009 
L 576 69.007918 
L 576 65.721826 
L 576 62.435735 
L 576 59.149644 
L 576 55.863552 
L 576 52.577461 
L 576 49.29137 
L 576 46.005279 
L 576 42.719187 
L 576 39.433096 
L 576 36.147005 
L 576 32.860913 
L 576 29.574822 
L 576 26.288731 
L 576 23.002639 
L 576 19.716548 
L 576 16.430457 
L 576 13.144365 
L 576 9.858274 
L 576 6.572183 
L 576 3.286091 
L 576 0 
L 572.708571 0 
L 569.417143 0 
L 566.125714 0 
L 562.834286 0 
L 559.542857 0 
L 556.251429 0 
L 552.96 0 
L 549.668571 0 
L 546.377143 0 
L 543.085714 0 
L 539.794286 0 
L 536.502857 0 
L 533.211429 0 
L 529.92 0 
L 526.628571 0 
L 523.337143 0 
L 520.045714 0 
L 516.754286 0 
L 513.462857 0 
L 510.171429 0 
L 506.88 0 
L 503.588571 0 
L 500.297143 0 
L 497.005714 0 
L 493.714286 0 
L 490.422857 0 
L 487.131429 0 
L 483.84 0 
L 480.548571 0 
L 477.257143 0 
L 473.965714 0 
L 470.674286 0 
L 467.382857 0 
L 464.091429 0 
L 460.8 0 
L 457.508571 0 
L 454.217143 0 
L 450.925714 0 
L 447.634286 0 
L 444.342857 0 
L 441.051429 0 
L 437.76 0 
L 434.468571 0 
L 431.177143 0 
L 427.885714 0 
L 424.594286 0 
L 421.302857 0 
L 418.011429 0 
L 414.72 0 
L 411.428571 0 
L 408.137143 0 
L 404.845714 0 
L 401.554286 0 
L 398.262857 0 
L 394.971429 0 
L 391.68 0 
L 388.388571 0 
L 385.097143 0 
L 381.805714 0 
L 378.514286 0 
L 375.222857 0 
L 371.931429 0 
L 368.64 0 
L 365.348571 0 
L 362.057143 0 
L 358.765714 0 
L 355.474286 0 
L 352.182857 0 
L 348.891429 0 
L 345.6 0 
L 342.308571 0 
L 339.017143 0 
L 335.725714 0 
L 332.434286 0 
L 329.142857 0 
L 325.851429 0 
L 322.56 0 
L 319.268571 0 
L 315.977143 0 
L 312.685714 0 
L 309.394286 0 
L 306.102857 0 
L 302.811429 0 
L 299.52 0 
L 296.228571 0 
L 292.937143 0 
L 289.645714 0 
L 286.354286 0 
L 283.062857 0 
L 279.771429 0 
L 276.48 0 
L 273.188571 0 
L 269.897143 0 
L 266.605714 0 
L 263.314286 0 
L 260.022857 0 
L 256.731429 0 
L 253.44 0 
L 250.148571 0 
L 246.857143 0 
L 243.565714 0 
L 240.274286 0 
L 236.982857 0 
L 233.691429 0 
L 230.4 0 
L 227.108571 0 
L 223.817143 0 
L 220.525714 0 
L 217.234286 0 
L 213.942857 0 
L 210.651429 0 
L 207.36 0 
L 204.068571 0 
L 200.777143 0 
L 197.485714 0 
L 194.194286 0 
L 190.902857 0 
L 187.611429 0 
L 184.32 0 
L 181.028571 0 
L 177.737143 0 
L 174.445714 0 
L 171.154286 0 
L 167.862857 0 
L 164.571429 0 
L 161.28 0 
L 157.988571 0 
L 154.697143 0 
L 151.405714 0 
L 148.114286 0 
L 144.822857 0 
L 141.531429 0 
L 138.24 0 
L 134.948571 0 
L 131.657143 0 
L 128.365714 0 
L 125.074286 0 
L 121.782857 0 
L 118.491429 0 
L 115.2 0 
L 111.908571 0 
L 108.617143 0 
L 105.325714 0 
L 102.034286 0 
L 98.742857 0 
L 95.451429 0 
L 92.16 0 
L 88.868571 0 
L 85.577143 0 
L 82.285714 0 
L 78.994286 0 
L 75.702857 0 
L 72.411429 0 
L 69.12 0 
L 65.828571 0 
L 62.537143 0 
L 59.245714 0 
L 55.954286 0 
L 52.662857 0 
L 49.371429 0 
L 46.08 0 
L 42.788571 0 
L 39.497143 0 
L 36.205714 0 
L 32.914286 0 
L 29.622857 0 
L 26.331429 0 
L 23.04 0 
L 19.748571 0 
L 16.457143 0 
L 13.165714 0 
L 9.874286 0 
L 6.582857 0 
L 3.291429 0 
L 0 0 
L 0 3.286091 
L 0 6.572183 
L 0 9.858274 
L 0 13.144365 
L 0 16.430457 
L 0 19.716548 
L 0 23.002639 
L 0 26.288731 
L 0 29.574822 
L 0 32.860913 
L 0 36.147005 
L 0 39.433096 
L 0 42.719187 
L 0 46.005279 
L 0 49.29137 
L 0 52.577461 
L 0 55.863552 
L 0 59.149644 
L 0 62.435735 
L 0 65.721826 
L 0 69.007918 
L 0 72.294009 
L 0 75.5801 
L 0 78.866192 
L 0 82.152283 
L 0 85.438374 
L 0 88.724466 
L 0 92.010557 
L 0 95.296648 
L 0 98.58274 
L 0 101.868831 
L 0 105.154922 
L 0 108.441014 
L 0 111.727105 
L 0 115.013196 
L 0 118.299288 
L 0 121.585379 
L 0 124.87147 
L 0 128.157562 
L 0 131.443653 
L 0 134.729744 
L 0 138.015836 
L 0 141.301927 
L 0 144.588018 
L 0 147.87411 
L 0 151.160201 
L 0 154.446292 
L 0 157.732384 
L 0 161.018475 
L 0 164.304566 
L 0 167.590657 
L 0 170.876749 
L 0 174.16284 
L 0 177.448931 
L 0 180.735023 
L 0 184.021114 
L 0 187.307205 
L 0 190.593297 
L 0 193.879388 
L 0 197.165479 
L 0 200.451571 
L 0 203.737662 
L 0 207.023753 
L 0 210.309845 
L 0 213.595936 
L 0 216.882027 
L 0 220.168119 
L 0 223.45421 
L 0 226.740301 
L 0 230.026393 
L 0 233.312484 
L 0 236.598575 
L 0 239.884667 
L 0 243.170758 
L 0 246.456849 
L 0 249.742941 
L 0 253.029032 
L 0 256.315123 
L 0 259.601215 
L 0 262.887306 
L 0 266.173397 
L 0 269.459489 
L 0 272.74558 
L 0 276.031671 
L 0 279.317762 
L 0 282.603854 
L 0 285.889945 
L 0 289.176036 
L 0 292.462128 
L 0 295.748219 
L 0 299.03431 
L 0 302.320402 
L 0 305.606493 
L 0 308.892584 
L 0 312.178676 
L 0 315.464767 
L 0 318.750858 
L 0 322.03695 
L 0 325.323041 
L 0 328.609132 
L 0 331.895224 
L 0 335.181315 
L 0 338.467406 
L 0 341.753498 
L 0 345.039589 
L 0 348.32568 
L 0 351.611772 
L 0 354.897863 
L 0 358.183954 
L 0 361.470046 
L 0 364.756137 
L 0 368.042228 
L 0 371.32832 
L 0 374.614411 
L 0 377.900502 
L 0 381.186594 
L 0 384.472685 
L 0 387.758776 
L 0 391.044867 
L 0 394.330959 
L 0 397.61705 
L 0 400.903141 
L 0 404.189233 
L 0 407.475324 
L 0 410.761415 
L 0 414.047507 
L 0 417.333598 
L 0 420.619689 
L 0 423.905781 
L 0 427.191872 
L 0 430.477963 
L 0 433.764055 
L 0 437.050146 
L 0 440.336237 
L 0 443.622329 
L 0 446.90842 
L 0 450.194511 
L 0 453.480603 
L 0 456.766694 
L 0 460.052785 
L 0 463.338877 
L 0 466.624968 
L 0 469.911059 
L 0 473.197151 
L 0 476.483242 
L 0 479.769333 
L 0 483.055425 
L 0 486.341516 
L 0 489.627607 
L 0 492.913699 
L 0 496.19979 
L 0 499.485881 
L 0 502.771972 
L 0 506.058064 
L 0 509.344155 
L 0 512.630246 
L 0 515.916338 
L 0 519.202429 
L 0 522.48852 
L 0 525.774612 
L 0 529.060703 
L 0 532.346794 
L 0 535.632886 
L 0 538.918977 
L 0 542.205068 
L 0 545.49116 
L 0 548.777251 
L 0 552.063342 
L 0 555.349434 
L 0 558.635525 
L 0 561.921616 
L 0 565.207708 
L 0 568.493799 
L 0 571.77989 
L 0 575.065982 
L 0 578.352073 
L 0 581.638164 
L 0 584.924256 
L 0 588.210347 
L 0 591.496438 
L 0 594.78253 
L 0 598.068621 
L 0 601.354712 
L 0 604.640804 
L 0 607.926895 
L 0 611.212986 
L 0 614.499077 
L 0 617.785169 
L 0 621.07126 
L 0 624.357351 
L 0 627.643443 
L 0 630.929534 
L 0 634.215625 
L 0 637.501717 
L 0 640.787808 
L 0 644.073899 
L 0 647.359991 
L 0 650.646082 
L 0 653.932173 
L 0 657.218265 
L 0 660.504356 
L 0 663.790447 
L 0 667.076539 
L 0 670.36263 
L 0 673.648721 
L 0 676.934813 
L 0 680.220904 
L 0 683.506995 
L 0 686.793087 
L 0 690.079178 
L 0 693.365269 
L 0 696.651361 
L 0 699.937452 
L 0 703.223543 
L 0 706.509635 
L 0 709.795726 
L 0 713.081817 
L 0 716.367908 
L 0 719.654 
L 0 722.940091 
L 0 726.226182 
L 0 729.512274 
L 0 732.798365 
L 0 736.084456 
L 0 739.370548 
L 0 742.656639 
L 0 745.94273 
L 0 749.228822 
L 0 752.514913 
L 0 755.801004 
L 0 759.087096 
L 0 762.373187 
L 0 765.659278 
L 0 768.94537 
L 0 772.231461 
L 0 775.517552 
L 0 778.803644 
L 0 782.089735 
L 0 785.375826 
L 0 788.661918 
L 0 791.948009 
L 0 795.2341 
L 0 798.520192 
L 0 801.806283 
L 0 805.092374 
L 0 808.378466 
L 0 811.664557 
L 0 814.950648 
L 0 818.23674 
z
" clip-path="url(#pf2b4839308)" style="fill: #f5f9fe; fill-opacity: 0.9"/>
    <path clip-path="url(#pf2b4839308)" style="fill: #eff6fc; fill-opacity: 0.9"/>
    <path clip-path="url(#pf2b4839308)" style="fill: #eaf3fb; fill-opacity: 0.9"/>
    <path clip-path="url(#pf2b4839308)" style="fill: #e5eff9; fill-opacity: 0.9"/>
    <path clip-path="url(#pf2b4839308)" style="fill: #dfecf7; fill-opacity: 0.9"/>
    <path clip-path="url(#pf2b4839308)" style="fill: #dae8f6; fill-opacity: 0.9"/>
    <path clip-path="url(#pf2b4839308)" style="fill: #d6e5f4; fill-opacity: 0.9"/>
    <path clip-path="url(#pf2b4839308)" style="fill: #d0e2f2; fill-opacity: 0.9"/>
    <path clip-path="url(#pf2b4839308)" style="fill: #cbdef1; fill-opacity: 0.9"/>
    <path clip-path="url(#pf2b4839308)" style="fill: #c6dbef; fill-opacity: 0.9"/>
    <path clip-path="url(#pf2b4839308)" style="fill: #bed8ec; fill-opacity: 0.9"/>
    <path clip-path="url(#pf2b4839308)" style="fill: #b5d4e9; fill-opacity: 0.9"/>
    <path clip-path="url(#pf2b4839308)" style="fill: #add0e6; fill-opacity: 0.9"/>
    <path clip-path="url(#pf2b4839308)" style="fill: #a5cde3; fill-opacity: 0.9"/>
    <path clip-path="url(#pf2b4839308)" style="fill: #9cc9e1; fill-opacity: 0.9"/>
    <path clip-path="url(#pf2b4839308)" style="fill: #91c3de; fill-opacity: 0.9"/>
    <path clip-path="url(#pf2b4839308)" style="fill: #85bcdc; fill-opacity: 0.9"/>
    <path clip-path="url(#pf2b4839308)" style="fill: #7cb7da; fill-opacity: 0.9"/>
    <path clip-path="url(#pf2b4839308)" style="fill: #71b1d7; fill-opacity: 0.9"/>
    <path clip-path="url(#pf2b4839308)" style="fill: #66abd4; fill-opacity: 0.9"/>
    <path clip-path="url(#pf2b4839308)" style="fill: #5da5d1; fill-opacity: 0.9"/>
    <path clip-path="url(#pf2b4839308)" style="fill: #56a0ce; fill-opacity: 0.9"/>
    <path clip-path="url(#pf2b4839308)" style="fill: #4d99ca; fill-opacity: 0.9"/>
    <path clip-path="url(#pf2b4839308)" style="fill: #4493c7; fill-opacity: 0.9"/>
    <path clip-path="url(#pf2b4839308)" style="fill: #3c8cc3; fill-opacity: 0.9"/>
    <path clip-path="url(#pf2b4839308)" style="fill: #3686c0; fill-opacity: 0.9"/>
    <path clip-path="url(#pf2b4839308)" style="fill: #2f7fbc; fill-opacity: 0.9"/>
    <path clip-path="url(#pf2b4839308)" style="fill: #2777b8; fill-opacity: 0.9"/>
    <path clip-path="url(#pf2b4839308)" style="fill: #2070b4; fill-opacity: 0.9"/>
    <path clip-path="url(#pf2b4839308)" style="fill: #1c6ab0; fill-opacity: 0.9"/>
    <path clip-path="url(#pf2b4839308)" style="fill: #1663aa; fill-opacity: 0.9"/>
    <path clip-path="url(#pf2b4839308)" style="fill: #115ca5; fill-opacity: 0.9"/>
    <path clip-path="url(#pf2b4839308)" style="fill: #0c56a0; fill-opacity: 0.9"/>
    <path clip-path="url(#pf2b4839308)" style="fill: #084f99; fill-opacity: 0.9"/>
    <path clip-path="url(#pf2b4839308)" style="fill: #08488e; fill-opacity: 0.9"/>
    <path clip-path="url(#pf2b4839308)" style="fill: #084184; fill-opacity: 0.9"/>
    <path clip-path="url(#pf2b4839308)" style="fill: #083a7a; fill-opacity: 0.9"/>
    <path clip-path="url(#pf2b4839308)" style="fill: #083370; fill-opacity: 0.9"/>
    <path clip-path="url(#pf2b4839308)" style="fill: #08306b; fill-opacity: 0.9"/>
   </g>
   <g id="QuadContourSet_2">
    <path clip-path="url(#pf2b4839308)" style="fill: none"/>
    <path clip-path="url(#pf2b4839308)" style="fill: none"/>
    <path clip-path="url(#pf2b4839308)" style="fill: none"/>
    <path clip-path="url(#pf2b4839308)" style="fill: none"/>
    <path clip-path="url(#pf2b4839308)" style="fill: none"/>
    <path clip-path="url(#pf2b4839308)" style="fill: none"/>
    <path clip-path="url(#pf2b4839308)" style="fill: none"/>
    <path clip-path="url(#pf2b4839308)" style="fill: none"/>
    <path clip-path="url(#pf2b4839308)" style="fill: none"/>
    <path clip-path="url(#pf2b4839308)" style="fill: none"/>
    <path clip-path="url(#pf2b4839308)" style="fill: none"/>
    <path clip-path="url(#pf2b4839308)" style="fill: none"/>
    <path clip-path="url(#pf2b4839308)" style="fill: none"/>
    <path clip-path="url(#pf2b4839308)" style="fill: none"/>
    <path clip-path="url(#pf2b4839308)" style="fill: none"/>
    <path clip-path="url(#pf2b4839308)" style="fill: none"/>
    <path clip-path="url(#pf2b4839308)" style="fill: none"/>
    <path clip-path="url(#pf2b4839308)" style="fill: none"/>
    <path clip-path="url(#pf2b4839308)" style="fill: none"/>
    <path clip-path="url(#pf2b4839308)" style="fill: none"/>
    <path clip-path="url(#pf2b4839308)" style="fill: none"/>
    <path clip-path="url(#pf2b4839308)" style="fill: none"/>
    <path clip-path="url(#pf2b4839308)" style="fill: none"/>
    <path clip-path="url(#pf2b4839308)" style="fill: none"/>
    <path clip-path="url(#pf2b4839308)" style="fill: none"/>
    <path clip-path="url(#pf2b4839308)" style="fill: none"/>
    <path clip-path="url(#pf2b4839308)" style="fill: none"/>
    <path clip-path="url(#pf2b4839308)" style="fill: none"/>
    <path clip-path="url(#pf2b4839308)" style="fill: none"/>
    <path clip-path="url(#pf2b4839308)" style="fill: none"/>
    <path clip-path="url(#pf2b4839308)" style="fill: none"/>
    <path clip-path="url(#pf2b4839308)" style="fill: none"/>
    <path clip-path="url(#pf2b4839308)" style="fill: none"/>
    <path clip-path="url(#pf2b4839308)" style="fill: none"/>
    <path clip-path="url(#pf2b4839308)" style="fill: none"/>
    <path clip-path="url(#pf2b4839308)" style="fill: none"/>
    <path clip-path="url(#pf2b4839308)" style="fill: none"/>
    <path clip-path="url(#pf2b4839308)" style="fill: none"/>
    <path clip-path="url(#pf2b4839308)" style="fill: none"/>
   </g>
  </g>
 </g>
 <defs>
  <clipPath id="pf2b4839308">
   <rect x="0" y="0" width="576" height="818.23674"/>
  </clipPath>
 </defs>
</svg>
