<?xml version="1.0" encoding="utf-8" standalone="no"?>
<!DOCTYPE svg PUBLIC "-//W3C//DTD SVG 1.1//EN"
  "http://www.w3.org/Graphics/SVG/1.1/DTD/svg11.dtd">
<svg xmlns:xlink="http://www.w3.org/1999/xlink" width="576pt" height="815.512706pt" viewBox="0 0 576 815.512706" xmlns="http://www.w3.org/2000/svg" version="1.1">
 <metadata>
  <rdf:RDF xmlns:dc="http://purl.org/dc/elements/1.1/" xmlns:cc="http://creativecommons.org/ns#" xmlns:rdf="http://www.w3.org/1999/02/22-rdf-syntax-ns#">
   <cc:Work>
    <dc:type rdf:resource="http://purl.org/dc/dcmitype/StillImage"/>
    <dc:date>2025-07-25T22:45:00.166297</dc:date>
    <dc:format>image/svg+xml</dc:format>
    <dc:creator>
     <cc:Agent>
      <dc:title>Matplotlib v3.10.3, https://matplotlib.org/</dc:title>
     </cc:Agent>
    </dc:creator>
   </cc:Work>
  </rdf:RDF>
 </metadata>
 <defs>
  <style type="text/css">*{stroke-linejoin: round; stroke-linecap: butt}</style>
 </defs>
 <g id="figure_1">
  <g id="patch_1">
   <path d="M 0 815.512706 
L 576 815.512706 
L 576 0 
L 0 0 
L 0 815.512706 
z
" style="fill: none; opacity: 0"/>
  </g>
  <g id="axes_1">
   <g id="QuadContourSet_1">
    <path d="M 274.909091 815.512706 
L 276.152745 815.512706 
L 278.181818 812.446404 
L 278.389092 812.237555 
L 281.454545 809.197039 
L 281.957897 808.962403 
L 284.727273 806.242761 
L 287.870551 808.962403 
L 288 809.391816 
L 288.225174 808.962403 
L 291.272727 808.028097 
L 292.737756 805.687252 
L 294.545455 803.015039 
L 295.001255 802.412101 
L 297.042402 799.136949 
L 297.818182 797.93206 
L 299.151141 795.861798 
L 301.090909 792.849082 
L 301.292405 792.586646 
L 303.36862 789.311495 
L 304.363636 787.766103 
L 305.729353 786.036343 
L 307.636364 784.337743 
L 309.70972 782.761192 
L 310.909091 781.849207 
L 314.016942 779.486041 
L 314.181818 779.360671 
L 314.64907 779.486041 
L 316.040913 782.761192 
L 317.454545 784.589532 
L 318.572034 782.761192 
L 320.727273 781.74265 
L 322.632762 779.486041 
L 324 777.925397 
L 325.455893 776.210889 
L 327.272727 774.071325 
L 328.237024 772.935738 
L 330.545455 770.217253 
L 331.050083 769.660586 
L 333.799285 766.385435 
L 333.818182 766.363181 
L 336.580415 763.110283 
L 337.090909 762.615223 
L 340.363636 760.302996 
L 341.404737 759.835132 
L 343.636364 758.630372 
L 346.448237 759.835132 
L 346.909091 760.680015 
L 350.181818 760.700108 
L 350.999123 759.835132 
L 353.454545 757.046049 
L 353.951794 756.559981 
L 356.727273 753.336829 
L 356.780708 753.284829 
L 359.670429 750.009678 
L 360 749.638363 
L 362.577387 746.734526 
L 363.272727 745.951115 
L 365.484346 743.459375 
L 366.545455 742.263867 
L 368.521977 740.184223 
L 369.818182 739.056018 
L 372.76636 736.909072 
L 373.090909 736.672726 
L 375.545714 736.909072 
L 376.363636 737.389853 
L 379.636364 740.008947 
L 381.987089 736.909072 
L 382.909091 736.477877 
L 385.463158 733.633921 
L 386.181818 732.918062 
L 388.505043 730.358769 
L 389.454545 729.312785 
L 391.478096 727.083618 
L 392.727273 725.707509 
L 394.451148 723.808466 
L 396 722.102232 
L 397.56248 720.533315 
L 399.272727 718.630665 
L 400.973342 717.258163 
L 402.545455 716.10193 
L 405.818182 715.470463 
L 407.802614 717.258163 
L 409.090909 718.005016 
L 409.730779 717.258163 
L 412.363636 715.971904 
L 414.2217 713.983012 
L 415.636364 712.589897 
L 417.543651 710.707861 
L 418.909091 709.246483 
L 420.853263 707.432709 
L 422.181818 705.996117 
L 424.175609 704.157558 
L 425.454545 702.755128 
L 427.518659 700.882406 
L 428.727273 699.530075 
L 430.703969 697.607255 
L 432 696.1605 
L 435.272727 694.720698 
L 438.545455 696.298485 
L 441.818182 695.690207 
L 443.271205 694.332103 
L 445.090909 692.446477 
L 446.589054 691.056952 
L 448.363636 689.070199 
L 449.775844 687.781801 
L 451.636364 685.641101 
L 452.912118 684.506649 
L 454.909091 682.103173 
L 455.934798 681.231498 
L 458.181818 678.277915 
L 458.528335 677.956346 
L 461.313766 674.681195 
L 461.454545 674.530898 
L 464.727273 671.91089 
L 468 673.000827 
L 471.272727 674.203825 
L 473.731525 671.406043 
L 474.545455 671.035489 
L 477.297049 668.130892 
L 477.818182 667.701233 
L 480.544815 664.855741 
L 481.090909 664.285841 
L 483.881523 661.580589 
L 484.363636 661.075806 
L 487.34907 658.305438 
L 487.636364 658.00284 
L 490.873968 655.030286 
L 490.909091 654.993005 
L 494.181818 652.586537 
L 495.111816 651.755135 
L 497.454545 650.792778 
L 500.727273 651.687485 
L 504 650.347992 
L 506.096197 648.479983 
L 507.272727 647.675047 
L 509.967709 645.204832 
L 510.545455 644.651998 
L 513.527509 641.92968 
L 513.818182 641.652127 
L 517.090909 638.887381 
L 518.192585 638.654529 
L 520.363636 638.250247 
L 523.636364 635.573175 
L 523.857429 635.379378 
L 526.909091 632.704132 
L 527.593405 632.104226 
L 530.181818 630.652756 
L 533.454545 630.956769 
L 535.508204 632.104226 
L 536.727273 633.01698 
L 540 633.790224 
L 541.560774 632.104226 
L 543.272727 630.745942 
L 545.56114 628.829075 
L 546.545455 627.288508 
L 549.037704 625.553923 
L 549.802668 622.278772 
L 549.818182 622.259444 
L 550.110275 622.278772 
L 553.090909 623.344797 
L 553.985594 622.278772 
L 556.363636 619.876243 
L 557.114282 619.00362 
L 559.636364 616.071711 
L 559.931627 615.728469 
L 562.748971 612.453318 
L 562.909091 612.304847 
L 566.181818 611.421719 
L 568.500263 612.453318 
L 569.454545 613.040536 
L 572.727273 613.787485 
L 574.220173 612.453318 
L 576 611.150401 
L 576 609.178166 
L 576 605.903015 
L 576 603.479577 
L 574.373949 602.627863 
L 572.727273 602.014147 
L 569.454545 601.865555 
L 566.181818 602.297324 
L 565.586655 602.627863 
L 562.909091 604.219488 
L 559.869045 605.903015 
L 559.636364 606.072857 
L 557.252807 609.178166 
L 556.363636 610.109711 
L 554.479174 612.453318 
L 553.090909 614.179829 
L 551.845668 615.728469 
L 549.818182 618.249946 
L 549.022384 619.00362 
L 546.578897 622.278772 
L 546.545455 622.320063 
L 543.272727 624.475366 
L 540.05459 622.278772 
L 540 622.251235 
L 536.727273 621.626564 
L 533.454545 621.835328 
L 532.614086 622.278772 
L 530.181818 623.642904 
L 526.909091 625.327918 
L 526.614909 625.553923 
L 523.636364 628.270941 
L 523.056001 628.829075 
L 520.363636 631.418315 
L 519.650406 632.104226 
L 517.090909 634.565688 
L 516.244812 635.379378 
L 513.818182 637.713062 
L 512.612334 638.654529 
L 510.545455 640.62443 
L 507.910806 641.92968 
L 507.272727 642.512192 
L 504.357208 641.92968 
L 504 641.88321 
L 503.894444 641.92968 
L 500.727273 643.262966 
L 497.454545 644.946428 
L 497.069781 645.204832 
L 494.181818 647.229051 
L 492.817827 648.479983 
L 490.909091 650.471925 
L 489.679482 651.755135 
L 487.636364 653.887317 
L 486.541137 655.030286 
L 484.363636 657.302709 
L 483.402793 658.305438 
L 481.090909 660.718101 
L 479.658935 661.580589 
L 477.818182 663.563802 
L 474.545455 663.932814 
L 471.272727 664.173555 
L 470.262802 664.855741 
L 468 666.231764 
L 465.317328 668.130892 
L 464.727273 668.510721 
L 461.454545 671.254605 
L 461.306868 671.406043 
L 458.239124 674.681195 
L 458.181818 674.742375 
L 455.17138 677.956346 
L 454.909091 678.236369 
L 452.103636 681.231498 
L 451.636364 681.730362 
L 449.035892 684.506649 
L 448.363636 685.224355 
L 445.197332 687.781801 
L 445.090909 687.897915 
L 444.473076 687.781801 
L 441.818182 686.703644 
L 438.545455 687.525811 
L 438.193646 687.781801 
L 435.272727 689.907174 
L 433.692578 691.056952 
L 432 692.288537 
L 429.732297 694.332103 
L 428.727273 695.392765 
L 426.647621 697.607255 
L 425.454545 698.877686 
L 423.571891 700.882406 
L 422.181818 702.362608 
L 420.496162 704.157558 
L 418.909091 705.84753 
L 416.843242 707.432709 
L 415.636364 708.750565 
L 412.363636 708.221586 
L 409.090909 708.969465 
L 405.916867 710.707861 
L 405.818182 710.754651 
L 402.545455 713.083393 
L 401.288052 713.983012 
L 399.272727 715.527389 
L 397.511809 717.258163 
L 396 718.923591 
L 394.538756 720.533315 
L 392.727273 722.528868 
L 391.565704 723.808466 
L 389.454545 726.134144 
L 388.236965 727.083618 
L 386.181818 729.445854 
L 383.116756 730.358769 
L 382.909091 730.561924 
L 382.753766 730.358769 
L 379.636364 729.622249 
L 378.5845 730.358769 
L 376.363636 731.768827 
L 373.802497 733.633921 
L 373.090909 734.152119 
L 369.818182 736.535412 
L 369.305073 736.909072 
L 366.545455 739.251457 
L 365.686813 740.184223 
L 363.272727 742.904076 
L 362.779855 743.459375 
L 360 746.591324 
L 359.821194 746.734526 
L 356.965938 750.009678 
L 356.727273 750.278572 
L 353.75807 753.284829 
L 353.454545 753.63172 
L 352.485316 753.284829 
L 350.181818 751.632752 
L 346.909091 752.982287 
L 346.501306 753.284829 
L 343.636364 755.410374 
L 342.086852 756.559981 
L 340.363636 757.83846 
L 337.672397 759.835132 
L 337.090909 760.272265 
L 334.164417 763.110283 
L 333.818182 763.518021 
L 331.383286 766.385435 
L 330.545455 767.372093 
L 328.602156 769.660586 
L 327.272727 771.226165 
L 325.520483 772.935738 
L 324 774.794323 
L 320.727273 774.984583 
L 317.454545 775.015012 
L 315.796219 776.210889 
L 314.181818 777.211657 
L 311.190727 779.486041 
L 310.909091 779.700193 
L 307.636364 782.188729 
L 306.883505 782.761192 
L 304.363636 784.96416 
L 303.509845 786.036343 
L 301.401105 789.311495 
L 301.090909 789.79327 
L 299.292366 792.586646 
L 297.818182 794.876249 
L 296.801154 795.861798 
L 295.074887 799.136949 
L 294.545455 799.959227 
L 291.272727 799.702292 
L 288 800.680936 
L 286.254157 802.412101 
L 284.727273 803.695382 
L 282.721335 805.687252 
L 281.454545 806.945157 
L 279.423051 808.962403 
L 278.181818 810.194931 
L 276.416947 812.237555 
L 274.909091 814.668533 
L 274.442767 815.512706 
z
M 366.545455 806.056933 
L 367.547624 805.687252 
L 369.818182 805.271972 
L 371.466228 805.687252 
L 373.090909 805.965367 
L 373.874976 805.687252 
L 376.300815 802.412101 
L 376.363636 802.244745 
L 377.530223 799.136949 
L 378.409029 795.861798 
L 376.363636 794.289573 
L 374.000925 795.861798 
L 373.090909 796.404346 
L 369.818182 798.696302 
L 369.40738 799.136949 
L 367.676005 802.412101 
L 366.545455 805.332583 
L 366.408158 805.687252 
z
M 379.636364 792.798421 
L 379.702912 792.586646 
L 379.636364 792.518543 
L 379.515647 792.586646 
z
M 389.454545 792.912153 
L 389.756234 792.586646 
L 389.454545 792.281293 
L 389.253274 792.586646 
z
M 392.727273 790.617855 
L 393.972878 789.311495 
L 396 787.777398 
L 398.777169 786.036343 
L 399.272727 785.677513 
L 400.103238 786.036343 
L 402.545455 788.69702 
L 405.818182 787.801347 
L 409.090909 786.438884 
L 409.53164 786.036343 
L 412.363636 782.874226 
L 412.46487 782.761192 
L 415.279651 779.486041 
L 415.636364 779.184616 
L 418.263389 776.210889 
L 418.909091 775.565781 
L 421.264561 772.935738 
L 422.181818 771.911558 
L 424.197792 769.660586 
L 425.454545 768.257335 
L 428.131226 769.660586 
L 428.553395 772.935738 
L 428.727273 773.012551 
L 428.834262 772.935738 
L 432 771.059253 
L 434.208295 769.660586 
L 435.272727 768.988519 
L 438.545455 767.338815 
L 440.208943 766.385435 
L 441.818182 765.043356 
L 443.384408 763.110283 
L 445.090909 761.004079 
L 446.03802 759.835132 
L 448.363636 756.964802 
L 449.061175 756.559981 
L 451.345246 753.284829 
L 451.636364 752.925524 
L 452.668145 753.284829 
L 453.954959 756.559981 
L 454.909091 756.965535 
L 455.473584 756.559981 
L 458.181818 754.614277 
L 460.061399 753.284829 
L 461.454545 752.28836 
L 464.727273 750.384427 
L 465.431093 750.009678 
L 468 748.641863 
L 471.272727 746.901167 
L 471.583291 746.734526 
L 474.545455 743.91053 
L 475.143316 743.459375 
L 477.283957 740.184223 
L 477.818182 739.264211 
L 481.090909 738.232814 
L 483.279685 736.909072 
L 484.363636 736.443687 
L 487.636364 733.937706 
L 488.000914 733.633921 
L 490.909091 731.258988 
L 491.969964 730.358769 
L 494.181818 728.522009 
L 495.87043 727.083618 
L 497.454545 725.734239 
L 499.715323 723.808466 
L 500.727273 722.946468 
L 502.986707 720.533315 
L 504 719.077875 
L 505.147523 717.258163 
L 507.212856 713.983012 
L 507.272727 713.88807 
L 509.27819 710.707861 
L 510.545455 708.698266 
L 511.372055 707.432709 
L 513.362449 704.157558 
L 513.818182 703.508462 
L 515.474191 700.882406 
L 517.090909 698.318658 
L 517.861162 697.607255 
L 517.090909 696.384062 
L 514.542742 697.607255 
L 513.818182 697.841495 
L 510.545455 700.069195 
L 509.030541 700.882406 
L 507.272727 701.994652 
L 504 703.444543 
L 502.323048 704.157558 
L 500.727273 704.836057 
L 497.454545 706.26544 
L 496.183022 707.432709 
L 494.181818 708.707821 
L 491.80597 710.707861 
L 490.909091 711.406612 
L 487.636364 713.95249 
L 487.597128 713.983012 
L 484.363636 716.498368 
L 483.247584 717.258163 
L 481.090909 718.884204 
L 478.05296 720.533315 
L 477.818182 720.687949 
L 474.545455 722.080923 
L 471.272727 723.269044 
L 470.623172 723.808466 
L 468 725.195364 
L 465.992359 727.083618 
L 464.727273 728.078761 
L 462.328239 730.358769 
L 461.454545 731.222201 
L 459.164084 733.633921 
L 458.181818 734.680955 
L 456.091532 736.909072 
L 454.909091 738.169482 
L 453.018981 740.184223 
L 451.636364 741.658009 
L 449.413766 743.459375 
L 448.363636 744.602217 
L 445.090909 745.819692 
L 441.818182 746.306348 
L 440.706704 746.734526 
L 438.545455 747.531043 
L 435.272727 749.942829 
L 435.192369 750.009678 
L 432 752.665349 
L 431.321382 753.284829 
L 428.727273 756.101091 
L 428.350675 756.559981 
L 425.662849 759.835132 
L 425.454545 760.088952 
L 422.975023 763.110283 
L 422.181818 764.076814 
L 420.287197 766.385435 
L 418.909091 768.064675 
L 416.881829 769.660586 
L 415.636364 771.383623 
L 412.363636 770.590634 
L 409.090909 770.091194 
L 405.818182 771.828011 
L 404.428032 772.935738 
L 402.545455 774.430936 
L 400.340068 776.210889 
L 399.272727 777.385889 
L 397.88843 779.486041 
L 396 782.351023 
L 395.729641 782.761192 
L 393.570852 786.036343 
L 392.727273 787.316158 
L 391.412063 789.311495 
z
M 481.088011 733.633921 
L 481.090909 733.629392 
L 481.097745 733.633921 
L 481.090909 733.654291 
z
M 310.909091 774.884491 
L 312.693489 772.935738 
L 314.181818 771.446306 
L 315.828457 769.660586 
L 314.181818 768.075001 
L 312.597406 769.660586 
L 310.909091 771.350152 
L 309.324679 772.935738 
z
M 309.988858 772.935738 
L 310.909091 772.014823 
L 311.945476 772.935738 
L 310.909091 774.067582 
z
M 313.261586 769.660586 
L 314.181818 768.739672 
L 315.138192 769.660586 
L 314.181818 770.697739 
z
M 343.636364 748.285324 
L 346.909091 748.766244 
L 348.741107 746.734526 
L 348.479965 743.459375 
L 346.909091 740.184223 
L 345.387024 743.459375 
L 343.636364 745.211332 
L 342.114297 746.734526 
z
M 342.838901 746.734526 
L 343.636364 745.936473 
L 346.111628 743.459375 
L 346.909091 741.743411 
L 347.732125 743.459375 
L 347.868947 746.734526 
L 346.909091 747.799013 
L 343.636364 747.547043 
z
M 376.363636 725.426443 
L 377.838373 723.808466 
L 376.363636 722.355405 
L 374.911651 723.808466 
z
M 375.711733 723.808466 
L 376.363636 723.15608 
L 377.025755 723.808466 
L 376.363636 724.534896 
z
M 405.818182 705.959457 
L 407.415966 704.157558 
L 405.818182 702.856061 
L 404.517648 704.157558 
z
M 405.368466 704.157558 
L 405.818182 703.707509 
L 406.370685 704.157558 
L 405.818182 704.780642 
z
M 409.090909 702.481374 
L 410.526964 700.882406 
L 410.329582 697.607255 
L 409.090909 694.332103 
L 405.818182 697.607255 
L 407.790376 700.882406 
z
M 408.641193 700.882406 
L 407.959222 697.607255 
L 409.090909 696.474729 
L 409.519234 697.607255 
L 409.587487 700.882406 
L 409.090909 701.435319 
z
M 523.636364 701.746267 
L 524.704668 700.882406 
L 526.909091 699.416742 
L 529.125869 697.607255 
L 530.181818 696.766733 
L 532.240689 694.332103 
L 533.454545 692.514028 
L 534.427377 691.056952 
L 533.454545 688.270701 
L 530.181818 689.409652 
L 526.909091 690.935151 
L 526.805197 691.056952 
L 525.356114 694.332103 
L 523.907031 697.607255 
L 523.636364 698.219004 
L 522.457948 700.882406 
z
M 438.545455 679.062415 
L 441.818182 679.432218 
L 443.12853 677.956346 
L 442.836452 674.681195 
L 441.818182 671.406043 
L 440.787494 674.681195 
L 438.545455 676.924895 
L 437.514767 677.956346 
z
M 438.407974 677.956346 
L 438.545455 677.818764 
L 441.680701 674.681195 
L 441.818182 674.244332 
L 441.954006 674.681195 
L 441.992965 677.956346 
L 441.818182 678.153208 
L 438.545455 678.103881 
z
M 471.272727 656.214285 
L 472.348512 655.030286 
L 471.272727 654.072441 
L 470.315591 655.030286 
z
M 471.221967 655.030286 
L 471.272727 654.979488 
L 471.32978 655.030286 
L 471.272727 655.093078 
z
M 500.727273 636.678209 
L 501.847308 635.379378 
L 500.727273 634.480033 
L 499.828594 635.379378 
z
M 504 633.225091 
L 504.985061 632.104226 
L 504.878386 628.829075 
L 504 625.553923 
L 500.727273 628.829075 
L 503.101321 632.104226 
z
M 533.454545 613.355329 
L 534.226158 612.453318 
L 533.454545 611.695303 
L 532.697092 612.453318 
z
M 536.727273 609.95035 
L 537.474034 609.178166 
L 536.727273 608.420152 
L 535.969819 609.178166 
z
M 566.181818 593.556678 
L 566.827948 592.802409 
L 566.181818 592.187674 
L 565.567538 592.802409 
z
M 569.454545 590.173866 
L 572.727273 590.365638 
L 573.434202 589.527258 
L 572.727273 588.870784 
L 569.454545 588.912523 
L 568.840266 589.527258 
z
" clip-path="url(#p195d377c47)" style="fill: #f5f9fe; fill-opacity: 0.9"/>
    <path d="M 278.181818 815.030495 
L 280.953681 812.237555 
L 281.454545 811.740765 
L 282.664173 812.237555 
L 283.651487 815.512706 
L 284.727273 815.512706 
L 288 815.512706 
L 291.272727 815.512706 
L 294.545455 815.512706 
L 297.818182 815.512706 
L 301.090909 815.512706 
L 304.363636 815.512706 
L 307.636364 815.512706 
L 310.909091 815.512706 
L 314.181818 815.512706 
L 317.454545 815.512706 
L 320.727273 815.512706 
L 324 815.512706 
L 327.272727 815.512706 
L 330.545455 815.512706 
L 333.818182 815.512706 
L 337.090909 815.512706 
L 340.363636 815.512706 
L 343.636364 815.512706 
L 346.909091 815.512706 
L 350.181818 815.512706 
L 353.454545 815.512706 
L 356.727273 815.512706 
L 360 815.512706 
L 363.272727 815.512706 
L 366.545455 815.512706 
L 369.818182 815.512706 
L 373.090909 815.512706 
L 376.363636 815.512706 
L 379.636364 815.512706 
L 382.909091 815.512706 
L 386.181818 815.512706 
L 389.454545 815.512706 
L 391.413256 815.512706 
L 392.727273 814.473044 
L 396 813.5044 
L 399.272727 813.188867 
L 402.264068 812.237555 
L 402.545455 812.164292 
L 405.818182 809.559518 
L 406.562632 808.962403 
L 409.090909 806.934506 
L 410.641282 805.687252 
L 412.363636 804.304956 
L 414.686039 802.412101 
L 415.636364 801.647086 
L 418.909091 799.919272 
L 421.833196 799.136949 
L 422.181818 799.03613 
L 425.454545 798.089682 
L 428.727273 796.820153 
L 430.079798 795.861798 
L 432 794.551145 
L 434.73116 792.586646 
L 435.272727 792.209247 
L 438.545455 789.770539 
L 439.23718 789.311495 
L 441.818182 787.420983 
L 444.795175 786.036343 
L 445.090909 785.859268 
L 448.363636 784.840798 
L 451.636364 783.850036 
L 453.721115 782.761192 
L 454.909091 782.203609 
L 458.181818 780.120835 
L 459.142092 779.486041 
L 461.454545 777.95738 
L 464.096517 776.210889 
L 464.727273 775.793924 
L 468 773.784843 
L 469.964325 772.935738 
L 471.272727 772.370164 
L 474.545455 771.067466 
L 477.818182 769.87155 
L 478.218575 769.660586 
L 481.090909 768.239516 
L 484.363636 766.420528 
L 484.426776 766.385435 
L 487.636364 764.557796 
L 489.573387 763.110283 
L 490.909091 761.977875 
L 493.758182 759.835132 
L 494.181818 759.482826 
L 497.454545 757.143015 
L 498.279911 756.559981 
L 500.727273 754.831176 
L 502.916339 753.284829 
L 504 752.519336 
L 507.272727 750.122876 
L 507.407636 750.009678 
L 510.545455 747.376802 
L 511.310909 746.734526 
L 513.818182 744.630728 
L 515.214182 743.459375 
L 517.090909 741.884654 
L 519.063684 740.184223 
L 520.363636 739.042349 
L 522.96033 736.909072 
L 523.636364 736.319571 
L 526.909091 733.979687 
L 527.410552 733.633921 
L 530.181818 731.723888 
L 532.161257 730.358769 
L 533.454545 729.467125 
L 536.727273 727.195243 
L 536.858541 727.083618 
L 540 724.531354 
L 540.843443 723.808466 
L 543.272727 721.726406 
L 544.66479 720.533315 
L 546.545455 718.921458 
L 548.481869 717.258163 
L 549.818182 716.108184 
L 552.286102 713.983012 
L 553.090909 713.289978 
L 556.363636 710.849665 
L 556.591236 710.707861 
L 559.636364 708.814527 
L 561.851458 707.432709 
L 562.909091 706.774293 
L 566.181818 704.724454 
L 566.897375 704.157558 
L 569.454545 702.416753 
L 571.314963 700.882406 
L 572.727273 699.798001 
L 575.345033 697.607255 
L 576 697.059128 
L 576 694.332103 
L 576 691.056952 
L 576 687.781801 
L 576 684.506649 
L 576 681.231498 
L 576 677.956346 
L 576 674.681195 
L 576 671.406043 
L 576 668.130892 
L 576 664.855741 
L 576 661.580589 
L 576 658.305438 
L 576 655.030286 
L 576 651.755135 
L 576 648.479983 
L 576 645.204832 
L 576 641.92968 
L 576 638.654529 
L 576 635.379378 
L 576 632.104226 
L 576 628.829075 
L 576 625.553923 
L 576 622.278772 
L 576 619.00362 
L 576 615.728469 
L 576 612.453318 
L 576 611.150401 
L 574.220173 612.453318 
L 572.727273 613.787485 
L 569.454545 613.040536 
L 568.500263 612.453318 
L 566.181818 611.421719 
L 562.909091 612.304847 
L 562.748971 612.453318 
L 559.931627 615.728469 
L 559.636364 616.071711 
L 557.114282 619.00362 
L 556.363636 619.876243 
L 553.985594 622.278772 
L 553.090909 623.344797 
L 550.110275 622.278772 
L 549.818182 622.259444 
L 549.802668 622.278772 
L 549.037704 625.553923 
L 546.545455 627.288508 
L 545.56114 628.829075 
L 543.272727 630.745942 
L 541.560774 632.104226 
L 540 633.790224 
L 536.727273 633.01698 
L 535.508204 632.104226 
L 533.454545 630.956769 
L 530.181818 630.652756 
L 527.593405 632.104226 
L 526.909091 632.704132 
L 523.857429 635.379378 
L 523.636364 635.573175 
L 520.363636 638.250247 
L 518.192585 638.654529 
L 517.090909 638.887381 
L 513.818182 641.652127 
L 513.527509 641.92968 
L 510.545455 644.651998 
L 509.967709 645.204832 
L 507.272727 647.675047 
L 506.096197 648.479983 
L 504 650.347992 
L 500.727273 651.687485 
L 497.454545 650.792778 
L 495.111816 651.755135 
L 494.181818 652.586537 
L 490.909091 654.993005 
L 490.873968 655.030286 
L 487.636364 658.00284 
L 487.34907 658.305438 
L 484.363636 661.075806 
L 483.881523 661.580589 
L 481.090909 664.285841 
L 480.544815 664.855741 
L 477.818182 667.701233 
L 477.297049 668.130892 
L 474.545455 671.035489 
L 473.731525 671.406043 
L 471.272727 674.203825 
L 468 673.000827 
L 464.727273 671.91089 
L 461.454545 674.530898 
L 461.313766 674.681195 
L 458.528335 677.956346 
L 458.181818 678.277915 
L 455.934798 681.231498 
L 454.909091 682.103173 
L 452.912118 684.506649 
L 451.636364 685.641101 
L 449.775844 687.781801 
L 448.363636 689.070199 
L 446.589054 691.056952 
L 445.090909 692.446477 
L 443.271205 694.332103 
L 441.818182 695.690207 
L 438.545455 696.298485 
L 435.272727 694.720698 
L 432 696.1605 
L 430.703969 697.607255 
L 428.727273 699.530075 
L 427.518659 700.882406 
L 425.454545 702.755128 
L 424.175609 704.157558 
L 422.181818 705.996117 
L 420.853263 707.432709 
L 418.909091 709.246483 
L 417.543651 710.707861 
L 415.636364 712.589897 
L 414.2217 713.983012 
L 412.363636 715.971904 
L 409.730779 717.258163 
L 409.090909 718.005016 
L 407.802614 717.258163 
L 405.818182 715.470463 
L 402.545455 716.10193 
L 400.973342 717.258163 
L 399.272727 718.630665 
L 397.56248 720.533315 
L 396 722.102232 
L 394.451148 723.808466 
L 392.727273 725.707509 
L 391.478096 727.083618 
L 389.454545 729.312785 
L 388.505043 730.358769 
L 386.181818 732.918062 
L 385.463158 733.633921 
L 382.909091 736.477877 
L 381.987089 736.909072 
L 379.636364 740.008947 
L 376.363636 737.389853 
L 375.545714 736.909072 
L 373.090909 736.672726 
L 372.76636 736.909072 
L 369.818182 739.056018 
L 368.521977 740.184223 
L 366.545455 742.263867 
L 365.484346 743.459375 
L 363.272727 745.951115 
L 362.577387 746.734526 
L 360 749.638363 
L 359.670429 750.009678 
L 356.780708 753.284829 
L 356.727273 753.336829 
L 353.951794 756.559981 
L 353.454545 757.046049 
L 350.999123 759.835132 
L 350.181818 760.700108 
L 346.909091 760.680015 
L 346.448237 759.835132 
L 343.636364 758.630372 
L 341.404737 759.835132 
L 340.363636 760.302996 
L 337.090909 762.615223 
L 336.580415 763.110283 
L 333.818182 766.363181 
L 333.799285 766.385435 
L 331.050083 769.660586 
L 330.545455 770.217253 
L 328.237024 772.935738 
L 327.272727 774.071325 
L 325.455893 776.210889 
L 324 777.925397 
L 322.632762 779.486041 
L 320.727273 781.74265 
L 318.572034 782.761192 
L 317.454545 784.589532 
L 316.040913 782.761192 
L 314.64907 779.486041 
L 314.181818 779.360671 
L 314.016942 779.486041 
L 310.909091 781.849207 
L 309.70972 782.761192 
L 307.636364 784.337743 
L 305.729353 786.036343 
L 304.363636 787.766103 
L 303.36862 789.311495 
L 301.292405 792.586646 
L 301.090909 792.849082 
L 299.151141 795.861798 
L 297.818182 797.93206 
L 297.042402 799.136949 
L 295.001255 802.412101 
L 294.545455 803.015039 
L 292.737756 805.687252 
L 291.272727 808.028097 
L 288.225174 808.962403 
L 288 809.391816 
L 287.870551 808.962403 
L 284.727273 806.242761 
L 281.957897 808.962403 
L 281.454545 809.197039 
L 278.389092 812.237555 
L 278.181818 812.446404 
L 276.152745 815.512706 
L 277.862723 815.512706 
z
M 290.844203 812.237555 
L 291.272727 811.735617 
L 293.252528 812.237555 
L 291.272727 814.696086 
z
M 294.187223 808.962403 
L 294.545455 807.611342 
L 295.889937 808.962403 
L 294.545455 810.63199 
z
M 296.933655 805.687252 
L 297.311339 802.412101 
L 297.818182 801.541208 
L 300.348388 799.136949 
L 301.090909 796.102548 
L 301.355089 795.861798 
L 303.638628 792.586646 
L 304.363636 791.326754 
L 306.368188 789.311495 
L 307.636364 787.350623 
L 310.829572 789.311495 
L 310.909091 789.53935 
L 314.077035 792.586646 
L 310.909091 795.423837 
L 310.313535 795.861798 
L 307.636364 797.83054 
L 305.859858 799.136949 
L 304.363636 800.237242 
L 301.40618 802.412101 
L 301.090909 802.643945 
L 298.779988 805.687252 
L 297.818182 806.567895 
z
M 366.408158 805.687252 
L 366.545455 805.332583 
L 367.676005 802.412101 
L 369.40738 799.136949 
L 369.818182 798.696302 
L 373.090909 796.404346 
L 374.000925 795.861798 
L 376.363636 794.289573 
L 378.409029 795.861798 
L 377.530223 799.136949 
L 376.363636 802.244745 
L 376.300815 802.412101 
L 373.874976 805.687252 
L 373.090909 805.965367 
L 371.466228 805.687252 
L 369.818182 805.271972 
L 367.547624 805.687252 
L 366.545455 806.056933 
z
M 379.515647 792.586646 
L 379.636364 792.518543 
L 379.702912 792.586646 
L 379.636364 792.798421 
z
M 389.253274 792.586646 
L 389.454545 792.281293 
L 389.756234 792.586646 
L 389.454545 792.912153 
z
M 391.412063 789.311495 
L 392.727273 787.316158 
L 393.570852 786.036343 
L 395.729641 782.761192 
L 396 782.351023 
L 397.88843 779.486041 
L 399.272727 777.385889 
L 400.340068 776.210889 
L 402.545455 774.430936 
L 404.428032 772.935738 
L 405.818182 771.828011 
L 409.090909 770.091194 
L 412.363636 770.590634 
L 415.636364 771.383623 
L 416.881829 769.660586 
L 418.909091 768.064675 
L 420.287197 766.385435 
L 422.181818 764.076814 
L 422.975023 763.110283 
L 425.454545 760.088952 
L 425.662849 759.835132 
L 428.350675 756.559981 
L 428.727273 756.101091 
L 431.321382 753.284829 
L 432 752.665349 
L 435.192369 750.009678 
L 435.272727 749.942829 
L 438.545455 747.531043 
L 440.706704 746.734526 
L 441.818182 746.306348 
L 445.090909 745.819692 
L 448.363636 744.602217 
L 449.413766 743.459375 
L 451.636364 741.658009 
L 453.018981 740.184223 
L 454.909091 738.169482 
L 456.091532 736.909072 
L 458.181818 734.680955 
L 459.164084 733.633921 
L 461.454545 731.222201 
L 462.328239 730.358769 
L 464.727273 728.078761 
L 465.992359 727.083618 
L 468 725.195364 
L 470.623172 723.808466 
L 471.272727 723.269044 
L 474.545455 722.080923 
L 477.818182 720.687949 
L 478.05296 720.533315 
L 481.090909 718.884204 
L 483.247584 717.258163 
L 484.363636 716.498368 
L 487.597128 713.983012 
L 487.636364 713.95249 
L 490.909091 711.406612 
L 491.80597 710.707861 
L 494.181818 708.707821 
L 496.183022 707.432709 
L 497.454545 706.26544 
L 500.727273 704.836057 
L 502.323048 704.157558 
L 504 703.444543 
L 507.272727 701.994652 
L 509.030541 700.882406 
L 510.545455 700.069195 
L 513.818182 697.841495 
L 514.542742 697.607255 
L 517.090909 696.384062 
L 517.861162 697.607255 
L 517.090909 698.318658 
L 515.474191 700.882406 
L 513.818182 703.508462 
L 513.362449 704.157558 
L 511.372055 707.432709 
L 510.545455 708.698266 
L 509.27819 710.707861 
L 507.272727 713.88807 
L 507.212856 713.983012 
L 505.147523 717.258163 
L 504 719.077875 
L 502.986707 720.533315 
L 500.727273 722.946468 
L 499.715323 723.808466 
L 497.454545 725.734239 
L 495.87043 727.083618 
L 494.181818 728.522009 
L 491.969964 730.358769 
L 490.909091 731.258988 
L 488.000914 733.633921 
L 487.636364 733.937706 
L 484.363636 736.443687 
L 483.279685 736.909072 
L 481.090909 738.232814 
L 477.818182 739.264211 
L 477.283957 740.184223 
L 475.143316 743.459375 
L 474.545455 743.91053 
L 471.583291 746.734526 
L 471.272727 746.901167 
L 468 748.641863 
L 465.431093 750.009678 
L 464.727273 750.384427 
L 461.454545 752.28836 
L 460.061399 753.284829 
L 458.181818 754.614277 
L 455.473584 756.559981 
L 454.909091 756.965535 
L 453.954959 756.559981 
L 452.668145 753.284829 
L 451.636364 752.925524 
L 451.345246 753.284829 
L 449.061175 756.559981 
L 448.363636 756.964802 
L 446.03802 759.835132 
L 445.090909 761.004079 
L 443.384408 763.110283 
L 441.818182 765.043356 
L 440.208943 766.385435 
L 438.545455 767.338815 
L 435.272727 768.988519 
L 434.208295 769.660586 
L 432 771.059253 
L 428.834262 772.935738 
L 428.727273 773.012551 
L 428.553395 772.935738 
L 428.131226 769.660586 
L 425.454545 768.257335 
L 424.197792 769.660586 
L 422.181818 771.911558 
L 421.264561 772.935738 
L 418.909091 775.565781 
L 418.263389 776.210889 
L 415.636364 779.184616 
L 415.279651 779.486041 
L 412.46487 782.761192 
L 412.363636 782.874226 
L 409.53164 786.036343 
L 409.090909 786.438884 
L 405.818182 787.801347 
L 402.545455 788.69702 
L 400.103238 786.036343 
L 399.272727 785.677513 
L 398.777169 786.036343 
L 396 787.777398 
L 393.972878 789.311495 
L 392.727273 790.617855 
z
M 333.629269 769.660586 
L 333.818182 769.435428 
L 336.374704 769.660586 
L 333.818182 771.373138 
z
M 336.902933 766.385435 
L 337.090909 766.152243 
L 340.363636 766.298313 
L 340.411158 766.385435 
L 340.363636 766.655816 
L 337.090909 768.8307 
z
M 522.457948 700.882406 
L 523.636364 698.219004 
L 523.907031 697.607255 
L 525.356114 694.332103 
L 526.805197 691.056952 
L 526.909091 690.935151 
L 530.181818 689.409652 
L 533.454545 688.270701 
L 534.427377 691.056952 
L 533.454545 692.514028 
L 532.240689 694.332103 
L 530.181818 696.766733 
L 529.125869 697.607255 
L 526.909091 699.416742 
L 524.704668 700.882406 
L 523.636364 701.746267 
z
M 310.909091 774.067581 
L 311.945476 772.935738 
L 310.909091 772.014823 
L 309.988858 772.935738 
z
M 310.653038 772.935738 
L 310.909091 772.679495 
L 311.197463 772.935738 
L 310.909091 773.250672 
z
M 314.181818 770.697739 
L 315.138192 769.660586 
L 314.181818 768.739672 
L 313.261586 769.660586 
z
M 313.925765 769.660586 
L 314.181818 769.404343 
L 314.447928 769.660586 
L 314.181818 769.949172 
z
M 343.636364 747.547043 
L 346.909091 747.799013 
L 347.868947 746.734526 
L 347.732125 743.459375 
L 346.909091 741.743411 
L 346.111628 743.459375 
L 343.636364 745.936473 
L 342.838901 746.734526 
z
M 343.563505 746.734526 
L 343.636364 746.661613 
L 346.836232 743.459375 
L 346.909091 743.302598 
L 346.984286 743.459375 
L 346.996787 746.734526 
L 346.909091 746.831781 
L 343.636364 746.808761 
z
M 481.090909 733.654291 
L 481.097745 733.633921 
L 481.090909 733.629392 
L 481.088011 733.633921 
z
M 376.363636 724.534896 
L 377.025755 723.808466 
L 376.363636 723.15608 
L 375.711733 723.808466 
z
M 405.818182 704.780642 
L 406.370685 704.157558 
L 405.818182 703.707509 
L 405.368466 704.157558 
z
M 409.090909 701.435319 
L 409.587487 700.882406 
L 409.519234 697.607255 
L 409.090909 696.474729 
L 407.959222 697.607255 
L 408.641193 700.882406 
z
M 438.545455 678.103881 
L 441.818182 678.153208 
L 441.992965 677.956346 
L 441.954006 674.681195 
L 441.818182 674.244332 
L 441.680701 674.681195 
L 438.545455 677.818764 
L 438.407974 677.956346 
z
M 471.272727 655.093078 
L 471.32978 655.030286 
L 471.272727 654.979488 
L 471.221967 655.030286 
z
" clip-path="url(#p195d377c47)" style="fill: #eff6fc; fill-opacity: 0.9"/>
    <path d="M 278.181818 815.512706 
L 281.454545 815.512706 
L 283.651487 815.512706 
L 282.664173 812.237555 
L 281.454545 811.740765 
L 280.953681 812.237555 
L 278.181818 815.030495 
L 277.862723 815.512706 
z
M 291.272727 814.696086 
L 293.252528 812.237555 
L 291.272727 811.735617 
L 290.844203 812.237555 
z
M 392.727273 815.512706 
L 396 815.512706 
L 399.272727 815.512706 
L 402.545455 815.512706 
L 405.818182 815.512706 
L 409.090909 815.512706 
L 412.363636 815.512706 
L 415.636364 815.512706 
L 418.909091 815.512706 
L 422.181818 815.512706 
L 425.454545 815.512706 
L 428.727273 815.512706 
L 432 815.512706 
L 434.693036 815.512706 
L 435.272727 815.360583 
L 438.545455 813.700675 
L 441.206722 812.237555 
L 441.818182 811.884537 
L 445.090909 810.177158 
L 447.469114 808.962403 
L 448.363636 808.50121 
L 451.636364 807.171046 
L 454.909091 805.866124 
L 455.301877 805.687252 
L 458.181818 804.397422 
L 461.454545 802.76932 
L 462.123528 802.412101 
L 464.727273 801.021769 
L 468 799.274409 
L 468.265414 799.136949 
L 471.272727 797.574006 
L 474.545455 796.087846 
L 475.009314 795.861798 
L 477.818182 794.492981 
L 481.090909 792.898116 
L 481.703944 792.586646 
L 484.363636 791.262776 
L 487.636364 789.522524 
L 488.02819 789.311495 
L 490.909091 787.758631 
L 494.12045 786.036343 
L 494.181818 786.003342 
L 497.454545 784.232757 
L 500.071503 782.761192 
L 500.727273 782.387657 
L 504 780.174396 
L 504.906621 779.486041 
L 507.272727 777.689565 
L 509.241462 776.210889 
L 510.545455 775.223421 
L 513.635592 772.935738 
L 513.818182 772.798818 
L 517.090909 770.321564 
L 517.933054 769.660586 
L 520.363636 767.797871 
L 522.151608 766.385435 
L 523.636364 765.237684 
L 526.600559 763.110283 
L 526.909091 762.870448 
L 530.181818 760.701948 
L 531.470685 759.835132 
L 533.454545 758.443778 
L 535.992798 756.559981 
L 536.727273 756.014881 
L 540 753.576283 
L 540.375242 753.284829 
L 543.272727 751.081459 
L 544.644341 750.009678 
L 546.545455 748.554619 
L 548.861386 746.734526 
L 549.818182 745.997695 
L 553.030352 743.459375 
L 553.090909 743.412465 
L 556.363636 741.068344 
L 557.730874 740.184223 
L 559.636364 738.952044 
L 562.769871 736.909072 
L 562.909091 736.81636 
L 566.181818 734.56284 
L 567.467198 733.633921 
L 569.454545 732.245036 
L 572.031737 730.358769 
L 572.727273 729.857095 
L 576 727.400598 
L 576 727.083618 
L 576 723.808466 
L 576 720.533315 
L 576 717.258163 
L 576 713.983012 
L 576 710.707861 
L 576 707.432709 
L 576 704.157558 
L 576 700.882406 
L 576 697.607255 
L 576 697.059128 
L 575.345033 697.607255 
L 572.727273 699.798001 
L 571.314963 700.882406 
L 569.454545 702.416753 
L 566.897375 704.157558 
L 566.181818 704.724454 
L 562.909091 706.774293 
L 561.851458 707.432709 
L 559.636364 708.814527 
L 556.591236 710.707861 
L 556.363636 710.849665 
L 553.090909 713.289978 
L 552.286102 713.983012 
L 549.818182 716.108184 
L 548.481869 717.258163 
L 546.545455 718.921458 
L 544.66479 720.533315 
L 543.272727 721.726406 
L 540.843443 723.808466 
L 540 724.531354 
L 536.858541 727.083618 
L 536.727273 727.195243 
L 533.454545 729.467125 
L 532.161257 730.358769 
L 530.181818 731.723888 
L 527.410552 733.633921 
L 526.909091 733.979687 
L 523.636364 736.319571 
L 522.96033 736.909072 
L 520.363636 739.042349 
L 519.063684 740.184223 
L 517.090909 741.884654 
L 515.214182 743.459375 
L 513.818182 744.630728 
L 511.310909 746.734526 
L 510.545455 747.376802 
L 507.407636 750.009678 
L 507.272727 750.122876 
L 504 752.519336 
L 502.916339 753.284829 
L 500.727273 754.831176 
L 498.279911 756.559981 
L 497.454545 757.143015 
L 494.181818 759.482826 
L 493.758182 759.835132 
L 490.909091 761.977875 
L 489.573387 763.110283 
L 487.636364 764.557796 
L 484.426776 766.385435 
L 484.363636 766.420528 
L 481.090909 768.239516 
L 478.218575 769.660586 
L 477.818182 769.87155 
L 474.545455 771.067466 
L 471.272727 772.370164 
L 469.964325 772.935738 
L 468 773.784843 
L 464.727273 775.793924 
L 464.096517 776.210889 
L 461.454545 777.95738 
L 459.142092 779.486041 
L 458.181818 780.120835 
L 454.909091 782.203609 
L 453.721115 782.761192 
L 451.636364 783.850036 
L 448.363636 784.840798 
L 445.090909 785.859268 
L 444.795175 786.036343 
L 441.818182 787.420983 
L 439.23718 789.311495 
L 438.545455 789.770539 
L 435.272727 792.209247 
L 434.73116 792.586646 
L 432 794.551145 
L 430.079798 795.861798 
L 428.727273 796.820153 
L 425.454545 798.089682 
L 422.181818 799.03613 
L 421.833196 799.136949 
L 418.909091 799.919272 
L 415.636364 801.647086 
L 414.686039 802.412101 
L 412.363636 804.304956 
L 410.641282 805.687252 
L 409.090909 806.934506 
L 406.562632 808.962403 
L 405.818182 809.559518 
L 402.545455 812.164292 
L 402.264068 812.237555 
L 399.272727 813.188867 
L 396 813.5044 
L 392.727273 814.473044 
L 391.413256 815.512706 
z
M 294.545455 810.63199 
L 295.889937 808.962403 
L 294.545455 807.611342 
L 294.187223 808.962403 
z
M 297.818182 806.567895 
L 298.779988 805.687252 
L 301.090909 802.643945 
L 301.40618 802.412101 
L 304.363636 800.237242 
L 305.859858 799.136949 
L 307.636364 797.83054 
L 310.313535 795.861798 
L 310.909091 795.423837 
L 314.077035 792.586646 
L 310.909091 789.53935 
L 310.829572 789.311495 
L 307.636364 787.350623 
L 306.368188 789.311495 
L 304.363636 791.326754 
L 303.638628 792.586646 
L 301.355089 795.861798 
L 301.090909 796.102548 
L 300.348388 799.136949 
L 297.818182 801.541208 
L 297.311339 802.412101 
L 296.933655 805.687252 
z
M 310.909091 773.250672 
L 311.197463 772.935738 
L 310.909091 772.679495 
L 310.653038 772.935738 
z
M 314.181818 769.949172 
L 314.447928 769.660586 
L 314.181818 769.404343 
L 313.925765 769.660586 
z
M 333.818182 771.373138 
L 336.374704 769.660586 
L 333.818182 769.435428 
L 333.629269 769.660586 
z
M 337.090909 768.8307 
L 340.363636 766.655816 
L 340.411158 766.385435 
L 340.363636 766.298313 
L 337.090909 766.152243 
L 336.902933 766.385435 
z
M 343.636364 746.808761 
L 346.909091 746.831781 
L 346.996787 746.734526 
L 346.984286 743.459375 
L 346.909091 743.302598 
L 346.836232 743.459375 
L 343.636364 746.661613 
L 343.563505 746.734526 
z
" clip-path="url(#p195d377c47)" style="fill: #eaf3fb; fill-opacity: 0.9"/>
    <path d="M 435.272727 815.512706 
L 438.545455 815.512706 
L 441.818182 815.512706 
L 445.090909 815.512706 
L 448.363636 815.512706 
L 451.636364 815.512706 
L 454.909091 815.512706 
L 458.181818 815.512706 
L 461.454545 815.512706 
L 464.727273 815.512706 
L 468 815.512706 
L 471.272727 815.512706 
L 474.545455 815.512706 
L 477.818182 815.512706 
L 481.090909 815.512706 
L 484.363636 815.512706 
L 487.636364 815.512706 
L 490.909091 815.512706 
L 491.517813 815.512706 
L 494.181818 813.261239 
L 495.393073 812.237555 
L 497.454545 810.495315 
L 499.28402 808.962403 
L 500.727273 807.744285 
L 504 806.847881 
L 507.272727 806.893489 
L 510.545455 806.229405 
L 511.137717 805.687252 
L 513.818182 803.589922 
L 515.087674 802.412101 
L 517.090909 800.528525 
L 518.49949 799.136949 
L 520.363636 797.248297 
L 521.732145 795.861798 
L 523.636364 793.932546 
L 524.982881 792.586646 
L 526.909091 790.634785 
L 529.045014 789.311495 
L 530.181818 788.150277 
L 533.454545 787.023689 
L 536.465409 786.036343 
L 536.727273 785.952152 
L 540 784.219321 
L 541.588033 782.761192 
L 543.272727 781.474972 
L 545.406528 779.486041 
L 546.545455 778.422928 
L 548.904445 776.210889 
L 549.818182 775.352421 
L 552.390453 772.935738 
L 553.090909 772.27765 
L 555.876461 769.660586 
L 556.363636 769.202879 
L 559.636364 767.162124 
L 561.188489 766.385435 
L 562.909091 765.523129 
L 566.181818 764.061346 
L 567.654294 763.110283 
L 569.454545 762.167188 
L 572.071988 759.835132 
L 572.727273 759.370156 
L 575.804166 756.559981 
L 576 756.384822 
L 576 753.284829 
L 576 750.009678 
L 576 746.734526 
L 576 743.459375 
L 576 740.184223 
L 576 736.909072 
L 576 733.633921 
L 576 730.358769 
L 576 727.400598 
L 572.727273 729.857095 
L 572.031737 730.358769 
L 569.454545 732.245036 
L 567.467198 733.633921 
L 566.181818 734.56284 
L 562.909091 736.81636 
L 562.769871 736.909072 
L 559.636364 738.952044 
L 557.730874 740.184223 
L 556.363636 741.068344 
L 553.090909 743.412465 
L 553.030352 743.459375 
L 549.818182 745.997695 
L 548.861386 746.734526 
L 546.545455 748.554619 
L 544.644341 750.009678 
L 543.272727 751.081459 
L 540.375242 753.284829 
L 540 753.576283 
L 536.727273 756.014881 
L 535.992798 756.559981 
L 533.454545 758.443778 
L 531.470685 759.835132 
L 530.181818 760.701948 
L 526.909091 762.870448 
L 526.600559 763.110283 
L 523.636364 765.237684 
L 522.151608 766.385435 
L 520.363636 767.797871 
L 517.933054 769.660586 
L 517.090909 770.321564 
L 513.818182 772.798818 
L 513.635592 772.935738 
L 510.545455 775.223421 
L 509.241462 776.210889 
L 507.272727 777.689565 
L 504.906621 779.486041 
L 504 780.174396 
L 500.727273 782.387657 
L 500.071503 782.761192 
L 497.454545 784.232757 
L 494.181818 786.003342 
L 494.12045 786.036343 
L 490.909091 787.758631 
L 488.02819 789.311495 
L 487.636364 789.522524 
L 484.363636 791.262776 
L 481.703944 792.586646 
L 481.090909 792.898116 
L 477.818182 794.492981 
L 475.009314 795.861798 
L 474.545455 796.087846 
L 471.272727 797.574006 
L 468.265414 799.136949 
L 468 799.274409 
L 464.727273 801.021769 
L 462.123528 802.412101 
L 461.454545 802.76932 
L 458.181818 804.397422 
L 455.301877 805.687252 
L 454.909091 805.866124 
L 451.636364 807.171046 
L 448.363636 808.50121 
L 447.469114 808.962403 
L 445.090909 810.177158 
L 441.818182 811.884537 
L 441.206722 812.237555 
L 438.545455 813.700675 
L 435.272727 815.360583 
L 434.693036 815.512706 
z
" clip-path="url(#p195d377c47)" style="fill: #e5eff9; fill-opacity: 0.9"/>
    <path d="M 494.181818 815.512706 
L 497.454545 815.512706 
L 500.727273 815.512706 
L 504 815.512706 
L 507.272727 815.512706 
L 510.545455 815.512706 
L 513.818182 815.512706 
L 517.090909 815.512706 
L 520.363636 815.512706 
L 523.636364 815.512706 
L 526.909091 815.512706 
L 530.181818 815.512706 
L 533.454545 815.512706 
L 536.727273 815.512706 
L 540 815.512706 
L 543.272727 815.512706 
L 546.545455 815.512706 
L 549.818182 815.512706 
L 553.090909 815.512706 
L 556.363636 815.512706 
L 559.636364 815.512706 
L 562.909091 815.512706 
L 566.181818 815.512706 
L 569.454545 815.512706 
L 572.727273 815.512706 
L 576 815.512706 
L 576 812.237555 
L 576 808.962403 
L 576 805.687252 
L 576 802.412101 
L 576 799.136949 
L 576 795.861798 
L 576 792.586646 
L 576 789.311495 
L 576 786.036343 
L 576 782.761192 
L 576 779.486041 
L 576 776.210889 
L 576 772.935738 
L 576 769.660586 
L 576 766.385435 
L 576 763.110283 
L 576 759.835132 
L 576 756.559981 
L 576 756.384822 
L 575.804166 756.559981 
L 572.727273 759.370156 
L 572.071988 759.835132 
L 569.454545 762.167188 
L 567.654294 763.110283 
L 566.181818 764.061346 
L 562.909091 765.523129 
L 561.188489 766.385435 
L 559.636364 767.162124 
L 556.363636 769.202879 
L 555.876461 769.660586 
L 553.090909 772.27765 
L 552.390453 772.935738 
L 549.818182 775.352421 
L 548.904445 776.210889 
L 546.545455 778.422928 
L 545.406528 779.486041 
L 543.272727 781.474972 
L 541.588033 782.761192 
L 540 784.219321 
L 536.727273 785.952152 
L 536.465409 786.036343 
L 533.454545 787.023689 
L 530.181818 788.150277 
L 529.045014 789.311495 
L 526.909091 790.634785 
L 524.982881 792.586646 
L 523.636364 793.932546 
L 521.732145 795.861798 
L 520.363636 797.248297 
L 518.49949 799.136949 
L 517.090909 800.528525 
L 515.087674 802.412101 
L 513.818182 803.589922 
L 511.137717 805.687252 
L 510.545455 806.229405 
L 507.272727 806.893489 
L 504 806.847881 
L 500.727273 807.744285 
L 499.28402 808.962403 
L 497.454545 810.495315 
L 495.393073 812.237555 
L 494.181818 813.261239 
L 491.517813 815.512706 
z
" clip-path="url(#p195d377c47)" style="fill: #dfecf7; fill-opacity: 0.9"/>
    <path clip-path="url(#p195d377c47)" style="fill: #dae8f6; fill-opacity: 0.9"/>
    <path clip-path="url(#p195d377c47)" style="fill: #d6e5f4; fill-opacity: 0.9"/>
    <path clip-path="url(#p195d377c47)" style="fill: #d0e2f2; fill-opacity: 0.9"/>
    <path clip-path="url(#p195d377c47)" style="fill: #cbdef1; fill-opacity: 0.9"/>
    <path clip-path="url(#p195d377c47)" style="fill: #c6dbef; fill-opacity: 0.9"/>
    <path clip-path="url(#p195d377c47)" style="fill: #bed8ec; fill-opacity: 0.9"/>
    <path clip-path="url(#p195d377c47)" style="fill: #b5d4e9; fill-opacity: 0.9"/>
    <path clip-path="url(#p195d377c47)" style="fill: #add0e6; fill-opacity: 0.9"/>
    <path clip-path="url(#p195d377c47)" style="fill: #a5cde3; fill-opacity: 0.9"/>
    <path clip-path="url(#p195d377c47)" style="fill: #9cc9e1; fill-opacity: 0.9"/>
    <path clip-path="url(#p195d377c47)" style="fill: #91c3de; fill-opacity: 0.9"/>
    <path clip-path="url(#p195d377c47)" style="fill: #85bcdc; fill-opacity: 0.9"/>
    <path clip-path="url(#p195d377c47)" style="fill: #7cb7da; fill-opacity: 0.9"/>
    <path clip-path="url(#p195d377c47)" style="fill: #71b1d7; fill-opacity: 0.9"/>
    <path clip-path="url(#p195d377c47)" style="fill: #66abd4; fill-opacity: 0.9"/>
    <path clip-path="url(#p195d377c47)" style="fill: #5da5d1; fill-opacity: 0.9"/>
    <path clip-path="url(#p195d377c47)" style="fill: #56a0ce; fill-opacity: 0.9"/>
    <path clip-path="url(#p195d377c47)" style="fill: #4d99ca; fill-opacity: 0.9"/>
    <path clip-path="url(#p195d377c47)" style="fill: #4493c7; fill-opacity: 0.9"/>
    <path clip-path="url(#p195d377c47)" style="fill: #3c8cc3; fill-opacity: 0.9"/>
    <path clip-path="url(#p195d377c47)" style="fill: #3686c0; fill-opacity: 0.9"/>
    <path clip-path="url(#p195d377c47)" style="fill: #2f7fbc; fill-opacity: 0.9"/>
    <path clip-path="url(#p195d377c47)" style="fill: #2777b8; fill-opacity: 0.9"/>
    <path clip-path="url(#p195d377c47)" style="fill: #2070b4; fill-opacity: 0.9"/>
    <path clip-path="url(#p195d377c47)" style="fill: #1c6ab0; fill-opacity: 0.9"/>
    <path clip-path="url(#p195d377c47)" style="fill: #1663aa; fill-opacity: 0.9"/>
    <path clip-path="url(#p195d377c47)" style="fill: #115ca5; fill-opacity: 0.9"/>
    <path clip-path="url(#p195d377c47)" style="fill: #0c56a0; fill-opacity: 0.9"/>
    <path clip-path="url(#p195d377c47)" style="fill: #084f99; fill-opacity: 0.9"/>
    <path clip-path="url(#p195d377c47)" style="fill: #08488e; fill-opacity: 0.9"/>
    <path clip-path="url(#p195d377c47)" style="fill: #084184; fill-opacity: 0.9"/>
    <path clip-path="url(#p195d377c47)" style="fill: #083a7a; fill-opacity: 0.9"/>
    <path clip-path="url(#p195d377c47)" style="fill: #083370; fill-opacity: 0.9"/>
    <path clip-path="url(#p195d377c47)" style="fill: #08306b; fill-opacity: 0.9"/>
   </g>
   <g id="QuadContourSet_2">
    <path d="M 576 603.479577 
L 574.373949 602.627863 
L 572.727273 602.014147 
L 569.454545 601.865555 
L 566.181818 602.297324 
L 565.586655 602.627863 
L 562.909091 604.219488 
L 559.869045 605.903015 
L 559.636364 606.072857 
L 557.252807 609.178166 
L 556.363636 610.109711 
L 554.479174 612.453318 
L 553.090909 614.179829 
L 551.845668 615.728469 
L 549.818182 618.249946 
L 549.022384 619.00362 
L 546.578897 622.278772 
L 546.545455 622.320063 
L 543.272727 624.475366 
L 540.05459 622.278772 
L 540 622.251235 
L 536.727273 621.626564 
L 533.454545 621.835328 
L 532.614086 622.278772 
L 530.181818 623.642904 
L 526.909091 625.327918 
L 526.614909 625.553923 
L 523.636364 628.270941 
L 523.056001 628.829075 
L 520.363636 631.418315 
L 519.650406 632.104226 
L 517.090909 634.565688 
L 516.244812 635.379378 
L 513.818182 637.713062 
L 512.612334 638.654529 
L 510.545455 640.62443 
L 507.910806 641.92968 
L 507.272727 642.512192 
L 504.357208 641.92968 
L 504 641.88321 
L 503.894444 641.92968 
L 500.727273 643.262966 
L 497.454545 644.946428 
L 497.069781 645.204832 
L 494.181818 647.229051 
L 492.817827 648.479983 
L 490.909091 650.471925 
L 489.679482 651.755135 
L 487.636364 653.887317 
L 486.541137 655.030286 
L 484.363636 657.302709 
L 483.402793 658.305438 
L 481.090909 660.718101 
L 479.658935 661.580589 
L 477.818182 663.563802 
L 474.545455 663.932814 
L 471.272727 664.173555 
L 470.262802 664.855741 
L 468 666.231764 
L 465.317328 668.130892 
L 464.727273 668.510721 
L 461.454545 671.254605 
L 461.306868 671.406043 
L 458.239124 674.681195 
L 458.181818 674.742375 
L 455.17138 677.956346 
L 454.909091 678.236369 
L 452.103636 681.231498 
L 451.636364 681.730362 
L 449.035892 684.506649 
L 448.363636 685.224355 
L 445.197332 687.781801 
L 445.090909 687.897915 
L 444.473076 687.781801 
L 441.818182 686.703644 
L 438.545455 687.525811 
L 438.193646 687.781801 
L 435.272727 689.907174 
L 433.692578 691.056952 
L 432 692.288537 
L 429.732297 694.332103 
L 428.727273 695.392765 
L 428.723042 695.39727 
M 415.261408 708.68996 
L 412.363636 708.221586 
L 409.090909 708.969465 
L 405.916867 710.707861 
L 405.818182 710.754651 
L 402.545455 713.083393 
L 401.288052 713.983012 
L 399.272727 715.527389 
L 397.511809 717.258163 
L 396 718.923591 
L 394.538756 720.533315 
L 392.727273 722.528868 
L 391.565704 723.808466 
L 389.454545 726.134144 
L 388.236965 727.083618 
L 386.181818 729.445854 
L 383.116756 730.358769 
L 382.909091 730.561924 
L 382.753766 730.358769 
L 379.636364 729.622249 
L 378.5845 730.358769 
L 376.363636 731.768827 
L 373.802497 733.633921 
L 373.090909 734.152119 
L 369.818182 736.535412 
L 369.305073 736.909072 
L 366.545455 739.251457 
L 365.686813 740.184223 
L 363.272727 742.904076 
L 362.779855 743.459375 
L 360 746.591324 
L 359.821194 746.734526 
L 356.965938 750.009678 
L 356.727273 750.278572 
L 353.75807 753.284829 
L 353.454545 753.63172 
L 352.485316 753.284829 
L 350.181818 751.632752 
L 346.909091 752.982287 
L 346.501306 753.284829 
L 343.636364 755.410374 
L 342.086852 756.559981 
L 340.363636 757.83846 
L 337.672397 759.835132 
L 337.090909 760.272265 
L 334.164417 763.110283 
L 333.818182 763.518021 
L 331.383286 766.385435 
L 330.545455 767.372093 
L 328.602156 769.660586 
L 327.272727 771.226165 
L 325.520483 772.935738 
L 324 774.794323 
L 320.727273 774.984583 
L 317.454545 775.015012 
L 315.796219 776.210889 
L 314.181818 777.211657 
L 311.190727 779.486041 
L 310.909091 779.700193 
L 307.636364 782.188729 
L 306.883505 782.761192 
L 304.363636 784.96416 
L 303.509845 786.036343 
L 301.401105 789.311495 
L 301.090909 789.79327 
L 299.292366 792.586646 
L 297.818182 794.876249 
L 296.801154 795.861798 
L 295.074887 799.136949 
L 294.545455 799.959227 
L 291.272727 799.702292 
L 288 800.680936 
L 286.254157 802.412101 
L 284.727273 803.695382 
L 282.721335 805.687252 
L 281.454545 806.945157 
L 279.423051 808.962403 
L 278.181818 810.194931 
L 276.416947 812.237555 
L 274.909091 814.668533 
L 274.442767 815.512706 
M 310.909091 774.884491 
L 312.693489 772.935738 
L 314.181818 771.446306 
L 315.828457 769.660586 
L 314.181818 768.075001 
L 312.597406 769.660586 
L 310.909091 771.350152 
L 309.324679 772.935738 
L 310.909091 774.884491 
z
M 343.636364 748.285324 
L 346.909091 748.766244 
L 348.741107 746.734526 
L 348.479965 743.459375 
L 346.909091 740.184223 
L 345.387024 743.459375 
L 343.636364 745.211332 
L 342.114297 746.734526 
L 343.636364 748.285324 
z
M 376.363636 725.426443 
L 377.838373 723.808466 
L 376.363636 722.355405 
L 374.911651 723.808466 
L 376.363636 725.426443 
z
M 405.818182 705.959457 
L 407.415966 704.157558 
L 405.818182 702.856061 
L 404.517648 704.157558 
L 405.818182 705.959457 
z
M 409.090909 702.481374 
L 410.526964 700.882406 
L 410.329582 697.607255 
L 409.090909 694.332103 
L 405.818182 697.607255 
L 407.790376 700.882406 
L 409.090909 702.481374 
z
M 438.545455 679.062415 
L 441.818182 679.432218 
L 443.12853 677.956346 
L 442.836452 674.681195 
L 441.818182 671.406043 
L 440.787494 674.681195 
L 438.545455 676.924895 
L 437.514767 677.956346 
L 438.545455 679.062415 
z
M 471.272727 656.214285 
L 472.348512 655.030286 
L 471.272727 654.072441 
L 470.315591 655.030286 
L 471.272727 656.214285 
z
M 500.727273 636.678209 
L 501.847308 635.379378 
L 500.727273 634.480033 
L 499.828594 635.379378 
L 500.727273 636.678209 
z
M 504 633.225091 
L 504.985061 632.104226 
L 504.878386 628.829075 
L 504 625.553923 
L 500.727273 628.829075 
L 503.101321 632.104226 
L 504 633.225091 
z
M 533.454545 613.355329 
L 534.226158 612.453318 
L 533.454545 611.695303 
L 532.697092 612.453318 
L 533.454545 613.355329 
z
M 536.727273 609.95035 
L 537.474034 609.178166 
L 536.727273 608.420152 
L 535.969819 609.178166 
L 536.727273 609.95035 
z
M 566.181818 593.556678 
L 566.827948 592.802409 
L 566.181818 592.187674 
L 565.567538 592.802409 
L 566.181818 593.556678 
z
M 569.454545 590.173866 
L 572.727273 590.365638 
L 573.434202 589.527258 
L 572.727273 588.870784 
L 569.454545 588.912523 
L 568.840266 589.527258 
L 569.454545 590.173866 
z
" clip-path="url(#p195d377c47)" style="fill: none"/>
    <path d="M 576 611.150401 
L 574.220173 612.453318 
L 572.727273 613.787485 
L 569.454545 613.040536 
L 568.500263 612.453318 
L 566.181818 611.421719 
L 562.909091 612.304847 
L 562.748971 612.453318 
L 559.931627 615.728469 
L 559.636364 616.071711 
L 557.114282 619.00362 
L 556.363636 619.876243 
L 553.985594 622.278772 
L 553.090909 623.344797 
L 550.110275 622.278772 
L 549.818182 622.259444 
L 549.802668 622.278772 
L 549.037704 625.553923 
L 546.545455 627.288508 
L 545.56114 628.829075 
L 543.272727 630.745942 
L 541.560774 632.104226 
L 540 633.790224 
L 536.727273 633.01698 
L 535.508204 632.104226 
L 533.454545 630.956769 
L 530.181818 630.652756 
L 527.593405 632.104226 
L 526.909091 632.704132 
L 523.857429 635.379378 
L 523.636364 635.573175 
L 520.363636 638.250247 
L 518.192585 638.654529 
L 517.090909 638.887381 
L 513.818182 641.652127 
L 513.527509 641.92968 
L 510.545455 644.651998 
L 509.967709 645.204832 
L 507.272727 647.675047 
L 506.096197 648.479983 
L 504 650.347992 
L 500.727273 651.687485 
L 497.454545 650.792778 
L 495.111816 651.755135 
L 494.181818 652.586537 
L 490.909091 654.993005 
L 490.873968 655.030286 
L 487.636364 658.00284 
L 487.34907 658.305438 
L 484.363636 661.075806 
L 483.881523 661.580589 
L 481.090909 664.285841 
L 480.544815 664.855741 
L 477.818182 667.701233 
L 477.297049 668.130892 
L 474.545455 671.035489 
L 473.731525 671.406043 
L 471.272727 674.203825 
L 468 673.000827 
L 464.727273 671.91089 
L 461.454545 674.530898 
L 461.313766 674.681195 
L 461.175577 674.84368 
M 448.341214 689.095302 
L 446.589054 691.056952 
L 445.090909 692.446477 
L 443.271205 694.332103 
L 441.818182 695.690207 
L 438.545455 696.298485 
L 435.272727 694.720698 
L 432 696.1605 
L 430.703969 697.607255 
L 428.727273 699.530075 
L 427.518659 700.882406 
L 425.454545 702.755128 
L 424.175609 704.157558 
L 422.181818 705.996117 
L 420.853263 707.432709 
L 418.909091 709.246483 
L 417.543651 710.707861 
L 415.636364 712.589897 
L 414.2217 713.983012 
L 412.363636 715.971904 
L 409.730779 717.258163 
L 409.090909 718.005016 
L 407.802614 717.258163 
L 405.818182 715.470463 
L 402.545455 716.10193 
L 400.973342 717.258163 
L 399.272727 718.630665 
L 397.56248 720.533315 
L 396 722.102232 
L 394.451148 723.808466 
L 392.727273 725.707509 
L 391.478096 727.083618 
L 389.454545 729.312785 
L 388.505043 730.358769 
L 386.181818 732.918062 
L 385.463158 733.633921 
L 382.909091 736.477877 
L 381.987089 736.909072 
L 379.636364 740.008947 
L 376.363636 737.389853 
L 375.545714 736.909072 
L 373.090909 736.672726 
L 372.76636 736.909072 
L 369.818182 739.056018 
L 368.521977 740.184223 
L 366.545455 742.263867 
L 365.484346 743.459375 
L 363.272727 745.951115 
L 362.577387 746.734526 
L 360 749.638363 
L 359.670429 750.009678 
L 356.780708 753.284829 
L 356.727273 753.336829 
L 353.951794 756.559981 
L 353.454545 757.046049 
L 350.999123 759.835132 
L 350.181818 760.700108 
L 346.909091 760.680015 
L 346.448237 759.835132 
L 343.636364 758.630372 
L 341.404737 759.835132 
L 340.363636 760.302996 
L 337.090909 762.615223 
L 336.580415 763.110283 
L 333.818182 766.363181 
L 333.799285 766.385435 
L 331.050083 769.660586 
L 330.545455 770.217253 
L 328.237024 772.935738 
L 327.272727 774.071325 
L 325.455893 776.210889 
L 324 777.925397 
L 322.632762 779.486041 
L 320.727273 781.74265 
L 318.572034 782.761192 
L 317.454545 784.589532 
L 316.040913 782.761192 
L 314.64907 779.486041 
L 314.181818 779.360671 
L 314.016942 779.486041 
L 310.909091 781.849207 
L 309.70972 782.761192 
L 307.636364 784.337743 
L 305.729353 786.036343 
L 304.363636 787.766103 
L 303.36862 789.311495 
L 301.292405 792.586646 
L 301.090909 792.849082 
L 299.151141 795.861798 
L 297.818182 797.93206 
L 297.042402 799.136949 
L 295.001255 802.412101 
L 294.545455 803.015039 
L 292.737756 805.687252 
L 291.272727 808.028097 
L 288.225174 808.962403 
L 288 809.391816 
L 287.870551 808.962403 
L 284.727273 806.242761 
L 281.957897 808.962403 
L 281.454545 809.197039 
L 278.389092 812.237555 
L 278.181818 812.446404 
L 276.152745 815.512706 
M 367.968279 801.859222 
L 369.40738 799.136949 
L 369.818182 798.696302 
L 373.090909 796.404346 
L 374.000925 795.861798 
L 376.363636 794.289573 
L 378.409029 795.861798 
L 377.530223 799.136949 
L 377.376144 799.547417 
M 379.636364 792.798421 
L 379.515647 792.586646 
L 379.636364 792.518543 
L 379.702912 792.586646 
L 379.636364 792.798421 
M 389.454545 792.912153 
L 389.253274 792.586646 
L 389.454545 792.281293 
L 389.756234 792.586646 
L 389.454545 792.912153 
M 505.411412 716.839695 
L 505.147523 717.258163 
L 504 719.077875 
L 502.986707 720.533315 
L 500.727273 722.946468 
L 499.715323 723.808466 
L 497.454545 725.734239 
L 495.87043 727.083618 
L 494.181818 728.522009 
L 491.969964 730.358769 
L 490.909091 731.258988 
L 488.000914 733.633921 
L 487.636364 733.937706 
L 484.363636 736.443687 
L 483.279685 736.909072 
L 481.090909 738.232814 
L 477.818182 739.264211 
L 477.283957 740.184223 
L 475.143316 743.459375 
L 474.545455 743.91053 
L 471.583291 746.734526 
L 471.272727 746.901167 
L 468 748.641863 
L 465.431093 750.009678 
L 464.727273 750.384427 
L 461.454545 752.28836 
L 460.061399 753.284829 
L 458.181818 754.614277 
L 455.473584 756.559981 
L 454.909091 756.965535 
L 453.954959 756.559981 
L 452.668145 753.284829 
L 451.636364 752.925524 
L 451.345246 753.284829 
L 449.061175 756.559981 
L 448.363636 756.964802 
L 446.03802 759.835132 
L 445.090909 761.004079 
L 443.384408 763.110283 
L 441.818182 765.043356 
L 440.208943 766.385435 
L 438.545455 767.338815 
L 435.272727 768.988519 
L 434.208295 769.660586 
L 432 771.059253 
L 428.834262 772.935738 
L 428.727273 773.012551 
L 428.553395 772.935738 
L 428.131226 769.660586 
L 425.454545 768.257335 
L 424.197792 769.660586 
L 422.181818 771.911558 
L 421.264561 772.935738 
L 418.909091 775.565781 
L 418.263389 776.210889 
L 415.636364 779.184616 
L 415.279651 779.486041 
L 412.46487 782.761192 
L 412.363636 782.874226 
L 409.53164 786.036343 
L 409.090909 786.438884 
L 405.818182 787.801347 
L 402.545455 788.69702 
L 400.103238 786.036343 
L 399.272727 785.677513 
L 398.777169 786.036343 
L 396 787.777398 
L 393.972878 789.311495 
L 392.727273 790.617855 
L 391.412063 789.311495 
L 392.727273 787.316158 
L 393.570852 786.036343 
L 395.729641 782.761192 
L 396 782.351023 
L 397.88843 779.486041 
L 399.272727 777.385889 
L 400.340068 776.210889 
L 402.545455 774.430936 
L 404.428032 772.935738 
L 405.818182 771.828011 
L 409.090909 770.091194 
L 412.363636 770.590634 
L 415.636364 771.383623 
L 416.881829 769.660586 
L 418.909091 768.064675 
L 420.287197 766.385435 
L 422.181818 764.076814 
L 422.975023 763.110283 
L 425.454545 760.088952 
L 425.662849 759.835132 
L 428.350675 756.559981 
L 428.727273 756.101091 
L 431.321382 753.284829 
L 432 752.665349 
L 435.192369 750.009678 
L 435.272727 749.942829 
L 438.545455 747.531043 
L 440.706704 746.734526 
L 441.818182 746.306348 
L 445.090909 745.819692 
L 448.363636 744.602217 
L 449.413766 743.459375 
L 451.636364 741.658009 
L 453.018981 740.184223 
L 454.909091 738.169482 
L 456.091532 736.909072 
L 458.181818 734.680955 
L 459.164084 733.633921 
L 461.454545 731.222201 
L 462.328239 730.358769 
L 464.727273 728.078761 
L 465.992359 727.083618 
L 468 725.195364 
L 470.623172 723.808466 
L 471.272727 723.269044 
L 474.545455 722.080923 
L 477.818182 720.687949 
L 478.05296 720.533315 
L 481.090909 718.884204 
L 483.247584 717.258163 
L 484.363636 716.498368 
L 487.597128 713.983012 
L 487.636364 713.95249 
L 490.909091 711.406612 
L 491.80597 710.707861 
L 494.181818 708.707821 
L 496.183022 707.432709 
L 497.454545 706.26544 
L 500.727273 704.836057 
L 502.323048 704.157558 
L 504 703.444543 
L 507.272727 701.994652 
L 509.030541 700.882406 
L 510.545455 700.069195 
L 513.818182 697.841495 
L 514.542742 697.607255 
L 517.090909 696.384062 
L 517.861162 697.607255 
L 517.090909 698.318658 
L 515.678592 700.558273 
M 310.909091 774.067581 
L 311.945476 772.935738 
L 310.909091 772.014823 
L 309.988858 772.935738 
L 310.909091 774.067581 
z
M 314.181818 770.697739 
L 315.138192 769.660586 
L 314.181818 768.739672 
L 313.261586 769.660586 
L 314.181818 770.697739 
z
M 343.636364 747.547043 
L 346.909091 747.799013 
L 347.868947 746.734526 
L 347.732125 743.459375 
L 346.909091 741.743411 
L 346.111628 743.459375 
L 343.636364 745.936473 
L 342.838901 746.734526 
L 343.636364 747.547043 
z
M 481.090909 733.654291 
L 481.097745 733.633921 
L 481.090909 733.629392 
L 481.088011 733.633921 
L 481.090909 733.654291 
z
M 376.363636 724.534896 
L 377.025755 723.808466 
L 376.363636 723.15608 
L 375.711733 723.808466 
L 376.363636 724.534896 
z
M 405.818182 704.780642 
L 406.370685 704.157558 
L 405.818182 703.707509 
L 405.368466 704.157558 
L 405.818182 704.780642 
z
M 409.090909 701.435319 
L 409.587487 700.882406 
L 409.519234 697.607255 
L 409.090909 696.474729 
L 407.959222 697.607255 
L 408.641193 700.882406 
L 409.090909 701.435319 
z
M 523.636364 701.746267 
L 522.457948 700.882406 
L 523.636364 698.219004 
L 523.907031 697.607255 
L 525.356114 694.332103 
L 526.805197 691.056952 
L 526.909091 690.935151 
L 530.181818 689.409652 
L 533.454545 688.270701 
L 534.427377 691.056952 
L 533.454545 692.514028 
L 532.240689 694.332103 
L 531.956635 694.667999 
M 438.545455 678.103881 
L 441.818182 678.153208 
L 441.992965 677.956346 
L 441.954006 674.681195 
L 441.818182 674.244332 
L 441.680701 674.681195 
L 438.545455 677.818764 
L 438.407974 677.956346 
L 438.545455 678.103881 
z
M 471.272727 655.093078 
L 471.32978 655.030286 
L 471.272727 654.979488 
L 471.221967 655.030286 
L 471.272727 655.093078 
z
" clip-path="url(#p195d377c47)" style="fill: none"/>
    <path d="M 283.651487 815.512706 
L 282.664173 812.237555 
L 281.454545 811.740765 
L 280.953681 812.237555 
L 278.181818 815.030495 
L 277.862723 815.512706 
M 576 697.059128 
L 575.345033 697.607255 
L 572.727273 699.798001 
L 571.314963 700.882406 
L 569.454545 702.416753 
L 566.897375 704.157558 
L 566.181818 704.724454 
L 562.909091 706.774293 
L 561.851458 707.432709 
L 559.636364 708.814527 
L 556.591236 710.707861 
L 556.363636 710.849665 
L 553.090909 713.289978 
L 552.286102 713.983012 
L 549.818182 716.108184 
L 548.481869 717.258163 
L 546.545455 718.921458 
L 544.66479 720.533315 
L 543.272727 721.726406 
L 540.843443 723.808466 
L 540 724.531354 
L 536.858541 727.083618 
L 536.727273 727.195243 
L 533.454545 729.467125 
L 532.161257 730.358769 
L 530.181818 731.723888 
L 527.410552 733.633921 
L 526.909091 733.979687 
L 523.636364 736.319571 
L 522.96033 736.909072 
L 520.363636 739.042349 
L 519.063684 740.184223 
L 517.090909 741.884654 
L 515.214182 743.459375 
L 513.818182 744.630728 
L 511.310909 746.734526 
L 510.545455 747.376802 
L 507.407636 750.009678 
L 507.272727 750.122876 
L 504 752.519336 
L 502.916339 753.284829 
L 501.560881 754.242319 
M 486.013095 765.482135 
L 484.426776 766.385435 
L 484.363636 766.420528 
L 481.090909 768.239516 
L 478.218575 769.660586 
L 477.818182 769.87155 
L 474.545455 771.067466 
L 471.272727 772.370164 
L 469.964325 772.935738 
L 468 773.784843 
L 464.727273 775.793924 
L 464.096517 776.210889 
L 461.454545 777.95738 
L 459.142092 779.486041 
L 458.181818 780.120835 
L 454.909091 782.203609 
L 453.721115 782.761192 
L 451.636364 783.850036 
L 448.363636 784.840798 
L 445.090909 785.859268 
L 444.795175 786.036343 
L 441.818182 787.420983 
L 439.23718 789.311495 
L 438.545455 789.770539 
L 435.272727 792.209247 
L 434.73116 792.586646 
L 432 794.551145 
L 430.079798 795.861798 
L 428.727273 796.820153 
L 425.454545 798.089682 
L 422.181818 799.03613 
L 421.833196 799.136949 
L 418.909091 799.919272 
L 415.636364 801.647086 
L 414.686039 802.412101 
L 412.363636 804.304956 
L 410.641282 805.687252 
L 409.090909 806.934506 
L 406.562632 808.962403 
L 405.818182 809.559518 
L 402.545455 812.164292 
L 402.264068 812.237555 
L 399.272727 813.188867 
L 396 813.5044 
L 392.727273 814.473044 
L 391.413256 815.512706 
M 291.272727 814.696086 
L 293.252528 812.237555 
L 291.272727 811.735617 
L 290.844203 812.237555 
L 291.272727 814.696086 
z
M 294.545455 810.63199 
L 295.889937 808.962403 
L 294.545455 807.611342 
L 294.187223 808.962403 
L 294.545455 810.63199 
z
M 313.394783 793.197666 
L 314.077035 792.586646 
L 310.909091 789.53935 
L 310.829572 789.311495 
L 307.636364 787.350623 
L 306.368188 789.311495 
L 304.363636 791.326754 
L 303.638628 792.586646 
L 301.355089 795.861798 
L 301.090909 796.102548 
L 300.348388 799.136949 
L 297.818182 801.541208 
L 297.311339 802.412101 
L 296.933655 805.687252 
L 297.818182 806.567895 
L 298.779988 805.687252 
L 298.859685 805.582298 
M 310.909091 773.250672 
L 311.197463 772.935738 
L 310.909091 772.679495 
L 310.653038 772.935738 
L 310.909091 773.250672 
z
M 314.181818 769.949172 
L 314.447928 769.660586 
L 314.181818 769.404343 
L 313.925765 769.660586 
L 314.181818 769.949172 
z
M 333.818182 771.373138 
L 336.374704 769.660586 
L 333.818182 769.435428 
L 333.629269 769.660586 
L 333.818182 771.373138 
z
M 337.090909 768.8307 
L 340.363636 766.655816 
L 340.411158 766.385435 
L 340.363636 766.298313 
L 337.090909 766.152243 
L 336.902933 766.385435 
L 337.090909 768.8307 
z
M 343.636364 746.808761 
L 346.909091 746.831781 
L 346.996787 746.734526 
L 346.984286 743.459375 
L 346.909091 743.302598 
L 346.836232 743.459375 
L 343.636364 746.661613 
L 343.563505 746.734526 
L 343.636364 746.808761 
z
" clip-path="url(#p195d377c47)" style="fill: none"/>
    <path d="M 576 727.400598 
L 572.727273 729.857095 
L 572.031737 730.358769 
L 569.454545 732.245036 
L 567.467198 733.633921 
L 566.181818 734.56284 
L 562.909091 736.81636 
L 562.769871 736.909072 
L 559.636364 738.952044 
L 557.730874 740.184223 
L 556.363636 741.068344 
L 554.131576 742.667077 
M 538.91469 754.384977 
L 536.727273 756.014881 
L 535.992798 756.559981 
L 533.454545 758.443778 
L 531.470685 759.835132 
L 530.181818 760.701948 
L 526.909091 762.870448 
L 526.600559 763.110283 
L 523.636364 765.237684 
L 522.151608 766.385435 
L 520.363636 767.797871 
L 517.933054 769.660586 
L 517.090909 770.321564 
L 513.818182 772.798818 
L 513.635592 772.935738 
L 510.545455 775.223421 
L 509.241462 776.210889 
L 507.272727 777.689565 
L 504.906621 779.486041 
L 504 780.174396 
L 500.727273 782.387657 
L 500.071503 782.761192 
L 497.454545 784.232757 
L 494.181818 786.003342 
L 494.12045 786.036343 
L 490.909091 787.758631 
L 488.02819 789.311495 
L 487.636364 789.522524 
L 484.363636 791.262776 
L 481.703944 792.586646 
L 481.090909 792.898116 
L 477.818182 794.492981 
L 475.009314 795.861798 
L 474.545455 796.087846 
L 471.272727 797.574006 
L 468.265414 799.136949 
L 468 799.274409 
L 464.727273 801.021769 
L 462.123528 802.412101 
L 461.454545 802.76932 
L 458.181818 804.397422 
L 455.301877 805.687252 
L 454.909091 805.866124 
L 451.636364 807.171046 
L 448.363636 808.50121 
L 447.469114 808.962403 
L 445.090909 810.177158 
L 441.818182 811.884537 
L 441.206722 812.237555 
L 438.545455 813.700675 
L 435.272727 815.360583 
L 434.693036 815.512706 
" clip-path="url(#p195d377c47)" style="fill: none"/>
    <path d="M 576 756.384822 
L 575.804166 756.559981 
L 572.727273 759.370156 
L 572.071988 759.835132 
L 569.454545 762.167188 
L 567.654294 763.110283 
L 566.181818 764.061346 
L 562.909091 765.523129 
L 561.188489 766.385435 
L 559.636364 767.162124 
L 556.363636 769.202879 
L 555.876461 769.660586 
L 555.865565 769.670823 
M 541.809277 782.592278 
L 541.588033 782.761192 
L 540 784.219321 
L 536.727273 785.952152 
L 536.465409 786.036343 
L 533.454545 787.023689 
L 530.181818 788.150277 
L 529.045014 789.311495 
L 526.909091 790.634785 
L 524.982881 792.586646 
L 523.636364 793.932546 
L 521.732145 795.861798 
L 520.363636 797.248297 
L 518.49949 799.136949 
L 517.090909 800.528525 
L 515.087674 802.412101 
L 513.818182 803.589922 
L 511.137717 805.687252 
L 510.545455 806.229405 
L 507.272727 806.893489 
L 504 806.847881 
L 500.727273 807.744285 
L 499.28402 808.962403 
L 497.454545 810.495315 
L 495.393073 812.237555 
L 494.181818 813.261239 
L 491.517813 815.512706 
" clip-path="url(#p195d377c47)" style="fill: none"/>
    <path clip-path="url(#p195d377c47)" style="fill: none"/>
    <path clip-path="url(#p195d377c47)" style="fill: none"/>
    <path clip-path="url(#p195d377c47)" style="fill: none"/>
    <path clip-path="url(#p195d377c47)" style="fill: none"/>
    <path clip-path="url(#p195d377c47)" style="fill: none"/>
    <path clip-path="url(#p195d377c47)" style="fill: none"/>
    <path clip-path="url(#p195d377c47)" style="fill: none"/>
    <path clip-path="url(#p195d377c47)" style="fill: none"/>
    <path clip-path="url(#p195d377c47)" style="fill: none"/>
    <path clip-path="url(#p195d377c47)" style="fill: none"/>
    <path clip-path="url(#p195d377c47)" style="fill: none"/>
    <path clip-path="url(#p195d377c47)" style="fill: none"/>
    <path clip-path="url(#p195d377c47)" style="fill: none"/>
    <path clip-path="url(#p195d377c47)" style="fill: none"/>
    <path clip-path="url(#p195d377c47)" style="fill: none"/>
    <path clip-path="url(#p195d377c47)" style="fill: none"/>
    <path clip-path="url(#p195d377c47)" style="fill: none"/>
    <path clip-path="url(#p195d377c47)" style="fill: none"/>
    <path clip-path="url(#p195d377c47)" style="fill: none"/>
    <path clip-path="url(#p195d377c47)" style="fill: none"/>
    <path clip-path="url(#p195d377c47)" style="fill: none"/>
    <path clip-path="url(#p195d377c47)" style="fill: none"/>
    <path clip-path="url(#p195d377c47)" style="fill: none"/>
    <path clip-path="url(#p195d377c47)" style="fill: none"/>
    <path clip-path="url(#p195d377c47)" style="fill: none"/>
    <path clip-path="url(#p195d377c47)" style="fill: none"/>
    <path clip-path="url(#p195d377c47)" style="fill: none"/>
    <path clip-path="url(#p195d377c47)" style="fill: none"/>
    <path clip-path="url(#p195d377c47)" style="fill: none"/>
    <path clip-path="url(#p195d377c47)" style="fill: none"/>
    <path clip-path="url(#p195d377c47)" style="fill: none"/>
    <path clip-path="url(#p195d377c47)" style="fill: none"/>
    <path clip-path="url(#p195d377c47)" style="fill: none"/>
    <path clip-path="url(#p195d377c47)" style="fill: none"/>
   </g>
   <g id="text_1">
    <g clip-path="url(#p195d377c47)">
     <!-- 0 -->
     <g style="opacity: 0" transform="translate(421.956467 707.411063) rotate(-46.506203) scale(0.12 -0.12)">
      <defs>
       <path id="DejaVuSans-30" d="M 2034 4250 
Q 1547 4250 1301 3770 
Q 1056 3291 1056 2328 
Q 1056 1369 1301 889 
Q 1547 409 2034 409 
Q 2525 409 2770 889 
Q 3016 1369 3016 2328 
Q 3016 3291 2770 3770 
Q 2525 4250 2034 4250 
z
M 2034 4750 
Q 2819 4750 3233 4129 
Q 3647 3509 3647 2328 
Q 3647 1150 3233 529 
Q 2819 -91 2034 -91 
Q 1250 -91 836 529 
Q 422 1150 422 2328 
Q 422 3509 836 4129 
Q 1250 4750 2034 4750 
z
" transform="scale(0.015625)"/>
      </defs>
      <use xlink:href="#DejaVuSans-30"/>
     </g>
    </g>
   </g>
   <g id="text_2">
    <g clip-path="url(#p195d377c47)">
     <!-- 1 -->
     <g style="opacity: 0" transform="translate(454.827995 687.156004) rotate(-48.142557) scale(0.12 -0.12)">
      <defs>
       <path id="DejaVuSans-31" d="M 794 531 
L 1825 531 
L 1825 4091 
L 703 3866 
L 703 4441 
L 1819 4666 
L 2450 4666 
L 2450 531 
L 3481 531 
L 3481 0 
L 794 0 
L 794 531 
z
" transform="scale(0.015625)"/>
      </defs>
      <use xlink:href="#DejaVuSans-31"/>
     </g>
    </g>
   </g>
   <g id="text_3">
    <g clip-path="url(#p195d377c47)">
     <!-- 1 -->
     <g style="opacity: 0" transform="translate(368.620664 809.863428) rotate(-14.792309) scale(0.12 -0.12)">
      <use xlink:href="#DejaVuSans-31"/>
     </g>
    </g>
   </g>
   <g id="text_4">
    <g clip-path="url(#p195d377c47)">
     <!-- 1 -->
     <g style="opacity: 0" transform="translate(511.312034 713.693268) rotate(-57.78712) scale(0.12 -0.12)">
      <use xlink:href="#DejaVuSans-31"/>
     </g>
    </g>
   </g>
   <g id="text_5">
    <g clip-path="url(#p195d377c47)">
     <!-- 1 -->
     <g style="opacity: 0" transform="translate(523.617737 705.817613) rotate(-36.641514) scale(0.12 -0.12)">
      <use xlink:href="#DejaVuSans-31"/>
     </g>
    </g>
   </g>
   <g id="text_6">
    <g clip-path="url(#p195d377c47)">
     <!-- 2 -->
     <g style="opacity: 0" transform="translate(492.681841 764.772659) rotate(-36.764428) scale(0.12 -0.12)">
      <defs>
       <path id="DejaVuSans-32" d="M 1228 531 
L 3431 531 
L 3431 0 
L 469 0 
L 469 531 
Q 828 903 1448 1529 
Q 2069 2156 2228 2338 
Q 2531 2678 2651 2914 
Q 2772 3150 2772 3378 
Q 2772 3750 2511 3984 
Q 2250 4219 1831 4219 
Q 1534 4219 1204 4116 
Q 875 4013 500 3803 
L 500 4441 
Q 881 4594 1212 4672 
Q 1544 4750 1819 4750 
Q 2544 4750 2975 4387 
Q 3406 4025 3406 3419 
Q 3406 3131 3298 2873 
Q 3191 2616 2906 2266 
Q 2828 2175 2409 1742 
Q 1991 1309 1228 531 
z
" transform="scale(0.015625)"/>
      </defs>
      <use xlink:href="#DejaVuSans-32"/>
     </g>
    </g>
   </g>
   <g id="text_7">
    <g clip-path="url(#p195d377c47)">
     <!-- 2 -->
     <g style="opacity: 0" transform="translate(304.73091 804.062714) rotate(-36.153244) scale(0.12 -0.12)">
      <use xlink:href="#DejaVuSans-32"/>
     </g>
    </g>
   </g>
   <g id="text_8">
    <g clip-path="url(#p195d377c47)">
     <!-- 3 -->
     <g style="opacity: 0" transform="translate(545.545297 753.508139) rotate(-37.647022) scale(0.12 -0.12)">
      <defs>
       <path id="DejaVuSans-33" d="M 2597 2516 
Q 3050 2419 3304 2112 
Q 3559 1806 3559 1356 
Q 3559 666 3084 287 
Q 2609 -91 1734 -91 
Q 1441 -91 1130 -33 
Q 819 25 488 141 
L 488 750 
Q 750 597 1062 519 
Q 1375 441 1716 441 
Q 2309 441 2620 675 
Q 2931 909 2931 1356 
Q 2931 1769 2642 2001 
Q 2353 2234 1838 2234 
L 1294 2234 
L 1294 2753 
L 1863 2753 
Q 2328 2753 2575 2939 
Q 2822 3125 2822 3475 
Q 2822 3834 2567 4026 
Q 2313 4219 1838 4219 
Q 1578 4219 1281 4162 
Q 984 4106 628 3988 
L 628 4550 
Q 988 4650 1302 4700 
Q 1616 4750 1894 4750 
Q 2613 4750 3031 4423 
Q 3450 4097 3450 3541 
Q 3450 3153 3228 2886 
Q 3006 2619 2597 2516 
z
" transform="scale(0.015625)"/>
      </defs>
      <use xlink:href="#DejaVuSans-33"/>
     </g>
    </g>
   </g>
   <g id="text_9">
    <g clip-path="url(#p195d377c47)">
     <!-- 4 -->
     <g style="opacity: 0" transform="translate(548.368897 781.235914) rotate(-42.978654) scale(0.12 -0.12)">
      <defs>
       <path id="DejaVuSans-34" d="M 2419 4116 
L 825 1625 
L 2419 1625 
L 2419 4116 
z
M 2253 4666 
L 3047 4666 
L 3047 1625 
L 3713 1625 
L 3713 1100 
L 3047 1100 
L 3047 0 
L 2419 0 
L 2419 1100 
L 313 1100 
L 313 1709 
L 2253 4666 
z
" transform="scale(0.015625)"/>
      </defs>
      <use xlink:href="#DejaVuSans-34"/>
     </g>
    </g>
   </g>
  </g>
 </g>
 <defs>
  <clipPath id="p195d377c47">
   <rect x="0" y="0" width="576" height="815.512706"/>
  </clipPath>
 </defs>
</svg>
