<?xml version="1.0" encoding="utf-8" standalone="no"?>
<!DOCTYPE svg PUBLIC "-//W3C//DTD SVG 1.1//EN"
  "http://www.w3.org/Graphics/SVG/1.1/DTD/svg11.dtd">
<svg xmlns:xlink="http://www.w3.org/1999/xlink" width="576pt" height="816.226927pt" viewBox="0 0 576 816.226927" xmlns="http://www.w3.org/2000/svg" version="1.1">
 <metadata>
  <rdf:RDF xmlns:dc="http://purl.org/dc/elements/1.1/" xmlns:cc="http://creativecommons.org/ns#" xmlns:rdf="http://www.w3.org/1999/02/22-rdf-syntax-ns#">
   <cc:Work>
    <dc:type rdf:resource="http://purl.org/dc/dcmitype/StillImage"/>
    <dc:date>2025-07-25T22:44:53.289335</dc:date>
    <dc:format>image/svg+xml</dc:format>
    <dc:creator>
     <cc:Agent>
      <dc:title>Matplotlib v3.10.3, https://matplotlib.org/</dc:title>
     </cc:Agent>
    </dc:creator>
   </cc:Work>
  </rdf:RDF>
 </metadata>
 <defs>
  <style type="text/css">*{stroke-linejoin: round; stroke-linecap: butt}</style>
 </defs>
 <g id="figure_1">
  <g id="patch_1">
   <path d="M 0 816.226927 
L 576 816.226927 
L 576 0 
L 0 0 
L 0 816.226927 
z
" style="fill: none; opacity: 0"/>
  </g>
  <g id="axes_1">
   <g id="QuadContourSet_1">
    <path d="M 288 816.226927 
L 291.272727 816.226927 
L 294.545455 816.226927 
L 297.818182 816.226927 
L 301.090909 816.226927 
L 304.363636 816.226927 
L 307.636364 816.226927 
L 310.909091 816.226927 
L 314.181818 816.226927 
L 316.520638 816.226927 
L 317.454545 816.005611 
L 320.727273 815.226104 
L 324 814.245822 
L 327.272727 813.434667 
L 330.325876 812.948908 
L 330.545455 812.893914 
L 333.818182 812.116723 
L 337.090909 811.340493 
L 340.363636 810.337807 
L 343.636364 809.748846 
L 344.113034 809.670888 
L 346.909091 809.006088 
L 350.181818 808.218397 
L 353.454545 807.429552 
L 356.727273 806.612883 
L 357.728114 806.392868 
L 360 805.787405 
L 363.272727 805.222383 
L 366.545455 804.503756 
L 369.818182 803.549014 
L 371.982151 803.114848 
L 373.090909 802.832872 
L 376.363636 802.23379 
L 379.636364 801.552067 
L 382.909091 800.836496 
L 386.181818 800.082128 
L 387.202478 799.836828 
L 389.454545 799.05076 
L 392.727273 798.327729 
L 396 797.66759 
L 399.272727 796.813383 
L 399.945316 796.558809 
L 402.545455 795.337853 
L 405.818182 794.709815 
L 409.090909 794.511358 
L 412.363636 793.468352 
L 412.841461 793.280789 
L 415.636364 791.512683 
L 418.909091 791.006474 
L 422.181818 790.354593 
L 423.627882 790.002769 
L 423.136695 786.724749 
L 425.454545 786.679061 
L 428.727273 786.558755 
L 432 786.071666 
L 434.415702 783.446729 
L 435.272727 783.30568 
L 438.545455 783.227419 
L 441.818182 783.079648 
L 445.090909 782.741303 
L 448.363636 781.201555 
L 449.303305 780.16871 
L 451.636364 779.844305 
L 454.909091 779.703767 
L 458.181818 779.448434 
L 461.454545 778.981832 
L 464.635339 776.89069 
L 464.727273 776.871459 
L 468 776.431835 
L 471.272727 776.298945 
L 474.545455 776.043309 
L 477.818182 775.382428 
L 480.315779 773.61267 
L 481.090909 773.446315 
L 484.363636 773.057003 
L 487.636364 772.859788 
L 490.909091 772.492167 
L 494.181818 771.622213 
L 496.614662 770.33465 
L 497.454545 770.206232 
L 499.187705 770.33465 
L 500.472802 773.61267 
L 500.727273 773.759298 
L 501.205549 773.61267 
L 504 772.744036 
L 507.272727 772.409247 
L 510.545455 772.628841 
L 513.818182 771.98779 
L 516.561923 770.33465 
L 517.090909 770.168116 
L 520.363636 769.754274 
L 523.636364 769.481713 
L 526.909091 768.993619 
L 529.948845 767.056631 
L 530.181818 766.999583 
L 533.454545 766.600036 
L 536.596761 767.056631 
L 536.727273 767.634266 
L 540 768.890551 
L 543.272727 769.250666 
L 546.545455 769.482976 
L 549.818182 769.323201 
L 553.090909 768.680985 
L 555.894967 767.056631 
L 556.363636 766.957793 
L 559.636364 766.721409 
L 562.909091 766.600987 
L 566.181818 766.487388 
L 569.454545 766.254052 
L 572.727273 765.638474 
L 575.866497 763.778611 
L 576 763.765954 
L 576 762.331978 
L 572.727273 762.651694 
L 569.454545 763.133772 
L 566.181818 763.726684 
L 565.94019 763.778611 
L 562.909091 764.567009 
L 559.636364 765.092067 
L 556.363636 765.308659 
L 553.090909 765.389565 
L 549.818182 765.690285 
L 546.545455 766.33914 
L 543.272727 765.407756 
L 540 765.17774 
L 536.727273 765.073556 
L 533.454545 765.018461 
L 530.181818 765.611068 
L 526.909091 766.373454 
L 524.278368 767.056631 
L 523.636364 767.303271 
L 520.363636 768.158385 
L 517.090909 768.382942 
L 513.818182 768.53254 
L 510.802832 770.33465 
L 510.545455 770.431457 
L 510.095241 770.33465 
L 507.272727 769.174143 
L 504 768.903109 
L 500.727273 768.794752 
L 497.454545 768.836879 
L 494.181818 769.324487 
L 490.909091 770.001952 
L 489.353936 770.33465 
L 487.636364 770.854308 
L 484.363636 771.503906 
L 481.090909 772.023737 
L 477.818182 772.667251 
L 474.545455 773.402294 
L 473.553455 773.61267 
L 471.272727 774.228862 
L 468 774.721109 
L 464.727273 775.240601 
L 461.454545 775.890619 
L 458.181818 776.482765 
L 456.274612 776.89069 
L 454.909091 777.305305 
L 451.636364 777.98338 
L 448.363636 778.590546 
L 445.090909 779.264184 
L 441.818182 779.985443 
L 441.015142 780.16871 
L 438.545455 780.894566 
L 435.272727 781.416787 
L 432 782.00881 
L 428.727273 782.729727 
L 425.454545 783.383613 
L 425.163027 783.446729 
L 422.181818 784.241901 
L 418.909091 784.798302 
L 415.636364 785.45087 
L 412.363636 786.154917 
L 409.788695 786.724749 
L 409.090909 786.990338 
L 405.818182 787.835541 
L 402.545455 788.297657 
L 399.272727 788.973012 
L 396 789.709172 
L 394.628371 790.002769 
L 392.727273 790.653445 
L 389.454545 791.324628 
L 386.181818 791.765731 
L 382.909091 792.466663 
L 379.636364 793.183821 
L 379.195328 793.280789 
L 376.363636 794.261992 
L 373.090909 794.874877 
L 369.818182 795.332584 
L 366.545455 796.048088 
L 364.242134 796.558809 
L 363.272727 797.023095 
L 360 797.948679 
L 356.727273 798.430735 
L 353.454545 798.905265 
L 350.181818 799.624282 
L 349.199096 799.836828 
L 346.909091 800.847769 
L 343.636364 801.590613 
L 340.363636 801.995977 
L 337.090909 802.682903 
L 335.291091 803.114848 
L 333.818182 803.926953 
L 330.545455 804.840643 
L 327.272727 805.30471 
L 324 805.833216 
L 321.653439 806.392868 
L 320.727273 806.997115 
L 317.454545 808.116658 
L 314.181818 808.623322 
L 310.909091 808.98511 
L 308.317117 809.670888 
L 307.636364 810.210468 
L 304.363636 811.46278 
L 301.090909 811.95401 
L 297.818182 812.648419 
L 296.674864 812.948908 
L 294.545455 814.131802 
L 291.272727 814.95291 
L 288 815.518309 
L 285.071625 816.226927 
z
M 513.818182 766.30466 
L 515.137785 763.778611 
L 513.818182 762.555434 
L 512.54436 763.778611 
z
M 513.441429 763.778611 
L 513.818182 763.416837 
L 514.208476 763.778611 
L 513.818182 764.52573 
z
" clip-path="url(#p23df9e9d14)" style="fill: #f5f9fe; fill-opacity: 0.9"/>
    <path d="M 317.454545 816.226927 
L 320.727273 816.226927 
L 324 816.226927 
L 327.272727 816.226927 
L 330.545455 816.226927 
L 330.913666 816.226927 
L 333.818182 815.653206 
L 337.090909 815.194539 
L 340.363636 814.481918 
L 343.636364 813.887452 
L 346.909091 813.387508 
L 348.696255 812.948908 
L 350.181818 812.64991 
L 353.454545 812.003646 
L 356.727273 811.674569 
L 360 811.623516 
L 363.272727 811.405458 
L 366.545455 810.148579 
L 369.818182 810.439785 
L 373.090909 809.807306 
L 373.42044 809.670888 
L 376.363636 808.509378 
L 379.636364 807.755247 
L 382.909091 806.877404 
L 384.097274 806.392868 
L 386.181818 805.783895 
L 389.454545 805.18688 
L 392.727273 804.640633 
L 396 804.232053 
L 399.272727 803.579246 
L 400.814816 803.114848 
L 402.545455 802.799439 
L 405.818182 802.202853 
L 409.090909 801.643643 
L 412.363636 801.305262 
L 415.636364 800.75724 
L 418.794439 799.836828 
L 418.909091 799.815926 
L 422.181818 799.219254 
L 425.454545 798.590882 
L 428.727273 798.164776 
L 432 797.392391 
L 434.241527 796.558809 
L 435.272727 796.34866 
L 438.545455 795.898166 
L 441.818182 795.295542 
L 445.090909 794.755455 
L 448.363636 794.273879 
L 451.636364 793.531551 
L 452.497845 793.280789 
L 454.909091 792.86693 
L 458.181818 792.30521 
L 461.454545 791.901138 
L 464.727273 791.270992 
L 468 790.085946 
L 468.289007 790.002769 
L 471.272727 789.552984 
L 474.545455 789.171676 
L 477.818182 788.524889 
L 481.090909 787.825969 
L 484.363636 787.400025 
L 487.636364 786.931282 
L 489.174698 786.724749 
L 490.909091 786.49948 
L 494.181818 786.11053 
L 497.454545 785.596643 
L 500.727273 785.26461 
L 504 784.962411 
L 507.272727 784.681783 
L 510.545455 784.398398 
L 513.818182 784.105084 
L 517.090909 783.856214 
L 520.363636 783.77632 
L 523.636364 783.565286 
L 525.635655 783.446729 
L 526.909091 783.396459 
L 527.307978 783.446729 
L 530.181818 783.745887 
L 531.758959 783.446729 
L 533.454545 783.066705 
L 536.727273 782.645739 
L 540 782.497821 
L 543.272727 782.310749 
L 546.545455 782.233737 
L 549.818182 782.239305 
L 553.090909 782.452721 
L 556.363636 783.011667 
L 558.106984 783.446729 
L 559.636364 783.6653 
L 561.901063 783.446729 
L 562.909091 783.28445 
L 566.181818 782.749377 
L 569.454545 782.469075 
L 572.727273 782.081521 
L 576 781.840647 
L 576 780.16871 
L 576 776.89069 
L 576 773.61267 
L 576 770.33465 
L 576 767.056631 
L 576 763.778611 
L 576 763.765954 
L 575.866497 763.778611 
L 572.727273 765.638474 
L 569.454545 766.254052 
L 566.181818 766.487388 
L 562.909091 766.600987 
L 559.636364 766.721409 
L 556.363636 766.957793 
L 555.894967 767.056631 
L 553.090909 768.680985 
L 549.818182 769.323201 
L 546.545455 769.482976 
L 543.272727 769.250666 
L 540 768.890551 
L 536.727273 767.634266 
L 536.596761 767.056631 
L 533.454545 766.600036 
L 530.181818 766.999583 
L 529.948845 767.056631 
L 526.909091 768.993619 
L 523.636364 769.481713 
L 520.363636 769.754274 
L 517.090909 770.168116 
L 516.561923 770.33465 
L 513.818182 771.98779 
L 510.545455 772.628841 
L 507.272727 772.409247 
L 504 772.744036 
L 501.205549 773.61267 
L 500.727273 773.759298 
L 500.472802 773.61267 
L 499.187705 770.33465 
L 497.454545 770.206232 
L 496.614662 770.33465 
L 494.181818 771.622213 
L 490.909091 772.492167 
L 487.636364 772.859788 
L 484.363636 773.057003 
L 481.090909 773.446315 
L 480.315779 773.61267 
L 477.818182 775.382428 
L 474.545455 776.043309 
L 471.272727 776.298945 
L 468 776.431835 
L 464.727273 776.871459 
L 464.635339 776.89069 
L 461.454545 778.981832 
L 458.181818 779.448434 
L 454.909091 779.703767 
L 451.636364 779.844305 
L 449.303305 780.16871 
L 448.363636 781.201555 
L 445.090909 782.741303 
L 441.818182 783.079648 
L 438.545455 783.227419 
L 435.272727 783.30568 
L 434.415702 783.446729 
L 432 786.071666 
L 428.727273 786.558755 
L 425.454545 786.679061 
L 423.136695 786.724749 
L 423.627882 790.002769 
L 422.181818 790.354593 
L 418.909091 791.006474 
L 415.636364 791.512683 
L 412.841461 793.280789 
L 412.363636 793.468352 
L 409.090909 794.511358 
L 405.818182 794.709815 
L 402.545455 795.337853 
L 399.945316 796.558809 
L 399.272727 796.813383 
L 396 797.66759 
L 392.727273 798.327729 
L 389.454545 799.05076 
L 387.202478 799.836828 
L 386.181818 800.082128 
L 382.909091 800.836496 
L 379.636364 801.552067 
L 376.363636 802.23379 
L 373.090909 802.832872 
L 371.982151 803.114848 
L 369.818182 803.549014 
L 366.545455 804.503756 
L 363.272727 805.222383 
L 360 805.787405 
L 357.728114 806.392868 
L 356.727273 806.612883 
L 353.454545 807.429552 
L 350.181818 808.218397 
L 346.909091 809.006088 
L 344.113034 809.670888 
L 343.636364 809.748846 
L 340.363636 810.337807 
L 337.090909 811.340493 
L 333.818182 812.116723 
L 330.545455 812.893914 
L 330.325876 812.948908 
L 327.272727 813.434667 
L 324 814.245822 
L 320.727273 815.226104 
L 317.454545 816.005611 
L 316.520638 816.226927 
z
M 513.818182 764.52573 
L 514.208476 763.778611 
L 513.818182 763.416837 
L 513.441429 763.778611 
z
" clip-path="url(#p23df9e9d14)" style="fill: #eff6fc; fill-opacity: 0.9"/>
    <path d="M 333.818182 816.226927 
L 337.090909 816.226927 
L 340.363636 816.226927 
L 343.636364 816.226927 
L 346.909091 816.226927 
L 350.181818 816.226927 
L 353.454545 816.226927 
L 356.727273 816.226927 
L 360 816.226927 
L 363.272727 816.226927 
L 366.545455 816.226927 
L 369.818182 816.226927 
L 373.090909 816.226927 
L 376.363636 816.226927 
L 379.636364 816.226927 
L 382.909091 816.226927 
L 386.181818 816.226927 
L 389.454545 816.226927 
L 392.727273 816.226927 
L 396 816.226927 
L 399.272727 816.226927 
L 402.545455 816.226927 
L 405.818182 816.226927 
L 409.090909 816.226927 
L 412.363636 816.226927 
L 415.636364 816.226927 
L 418.909091 816.226927 
L 422.181818 816.226927 
L 425.454545 816.226927 
L 428.727273 816.226927 
L 432 816.226927 
L 435.272727 816.226927 
L 438.545455 816.226927 
L 441.818182 816.226927 
L 445.090909 816.226927 
L 448.363636 816.226927 
L 450.309502 816.226927 
L 451.636364 815.989392 
L 454.909091 815.709248 
L 458.181818 815.455512 
L 461.454545 815.128652 
L 464.727273 814.803995 
L 468 814.521193 
L 471.272727 814.459981 
L 474.545455 814.367027 
L 477.818182 814.459897 
L 481.090909 815.498224 
L 484.363636 815.442738 
L 487.636364 814.966689 
L 490.909091 814.888213 
L 494.181818 814.67598 
L 497.454545 814.239588 
L 500.727273 814.021208 
L 504 814.021546 
L 507.272727 814.108491 
L 510.237552 816.226927 
L 510.545455 816.226927 
L 513.818182 816.226927 
L 515.43754 816.226927 
L 517.090909 815.809342 
L 520.363636 815.844276 
L 523.636364 816.02364 
L 526.909091 816.163258 
L 530.181818 816.063255 
L 533.454545 815.975363 
L 536.727273 815.910189 
L 540 816.159198 
L 540.164469 816.226927 
L 543.272727 816.226927 
L 546.545455 816.226927 
L 549.818182 816.226927 
L 553.090909 816.226927 
L 556.363636 816.226927 
L 559.636364 816.226927 
L 562.909091 816.226927 
L 566.181818 816.226927 
L 569.454545 816.226927 
L 572.727273 816.226927 
L 576 816.226927 
L 576 812.948908 
L 576 809.670888 
L 576 806.392868 
L 576 803.114848 
L 576 799.836828 
L 576 796.558809 
L 576 793.280789 
L 576 790.002769 
L 576 786.724749 
L 576 783.446729 
L 576 781.840647 
L 572.727273 782.081521 
L 569.454545 782.469075 
L 566.181818 782.749377 
L 562.909091 783.28445 
L 561.901063 783.446729 
L 559.636364 783.6653 
L 558.106984 783.446729 
L 556.363636 783.011667 
L 553.090909 782.452721 
L 549.818182 782.239305 
L 546.545455 782.233737 
L 543.272727 782.310749 
L 540 782.497821 
L 536.727273 782.645739 
L 533.454545 783.066705 
L 531.758959 783.446729 
L 530.181818 783.745887 
L 527.307978 783.446729 
L 526.909091 783.396459 
L 525.635655 783.446729 
L 523.636364 783.565286 
L 520.363636 783.77632 
L 517.090909 783.856214 
L 513.818182 784.105084 
L 510.545455 784.398398 
L 507.272727 784.681783 
L 504 784.962411 
L 500.727273 785.26461 
L 497.454545 785.596643 
L 494.181818 786.11053 
L 490.909091 786.49948 
L 489.174698 786.724749 
L 487.636364 786.931282 
L 484.363636 787.400025 
L 481.090909 787.825969 
L 477.818182 788.524889 
L 474.545455 789.171676 
L 471.272727 789.552984 
L 468.289007 790.002769 
L 468 790.085946 
L 464.727273 791.270992 
L 461.454545 791.901138 
L 458.181818 792.30521 
L 454.909091 792.86693 
L 452.497845 793.280789 
L 451.636364 793.531551 
L 448.363636 794.273879 
L 445.090909 794.755455 
L 441.818182 795.295542 
L 438.545455 795.898166 
L 435.272727 796.34866 
L 434.241527 796.558809 
L 432 797.392391 
L 428.727273 798.164776 
L 425.454545 798.590882 
L 422.181818 799.219254 
L 418.909091 799.815926 
L 418.794439 799.836828 
L 415.636364 800.75724 
L 412.363636 801.305262 
L 409.090909 801.643643 
L 405.818182 802.202853 
L 402.545455 802.799439 
L 400.814816 803.114848 
L 399.272727 803.579246 
L 396 804.232053 
L 392.727273 804.640633 
L 389.454545 805.18688 
L 386.181818 805.783895 
L 384.097274 806.392868 
L 382.909091 806.877404 
L 379.636364 807.755247 
L 376.363636 808.509378 
L 373.42044 809.670888 
L 373.090909 809.807306 
L 369.818182 810.439785 
L 366.545455 810.148579 
L 363.272727 811.405458 
L 360 811.623516 
L 356.727273 811.674569 
L 353.454545 812.003646 
L 350.181818 812.64991 
L 348.696255 812.948908 
L 346.909091 813.387508 
L 343.636364 813.887452 
L 340.363636 814.481918 
L 337.090909 815.194539 
L 333.818182 815.653206 
L 330.913666 816.226927 
z
" clip-path="url(#p23df9e9d14)" style="fill: #eaf3fb; fill-opacity: 0.9"/>
    <path d="M 451.636364 816.226927 
L 454.909091 816.226927 
L 458.181818 816.226927 
L 461.454545 816.226927 
L 464.727273 816.226927 
L 468 816.226927 
L 471.272727 816.226927 
L 474.545455 816.226927 
L 477.818182 816.226927 
L 481.090909 816.226927 
L 484.363636 816.226927 
L 487.636364 816.226927 
L 490.909091 816.226927 
L 494.181818 816.226927 
L 497.454545 816.226927 
L 500.727273 816.226927 
L 504 816.226927 
L 507.272727 816.226927 
L 510.237552 816.226927 
L 507.272727 814.108491 
L 504 814.021546 
L 500.727273 814.021208 
L 497.454545 814.239588 
L 494.181818 814.67598 
L 490.909091 814.888213 
L 487.636364 814.966689 
L 484.363636 815.442738 
L 481.090909 815.498224 
L 477.818182 814.459897 
L 474.545455 814.367027 
L 471.272727 814.459981 
L 468 814.521193 
L 464.727273 814.803995 
L 461.454545 815.128652 
L 458.181818 815.455512 
L 454.909091 815.709248 
L 451.636364 815.989392 
L 450.309502 816.226927 
z
M 517.090909 816.226927 
L 520.363636 816.226927 
L 523.636364 816.226927 
L 526.909091 816.226927 
L 530.181818 816.226927 
L 533.454545 816.226927 
L 536.727273 816.226927 
L 540 816.226927 
L 540.164469 816.226927 
L 540 816.159198 
L 536.727273 815.910189 
L 533.454545 815.975363 
L 530.181818 816.063255 
L 526.909091 816.163258 
L 523.636364 816.02364 
L 520.363636 815.844276 
L 517.090909 815.809342 
L 515.43754 816.226927 
z
" clip-path="url(#p23df9e9d14)" style="fill: #e5eff9; fill-opacity: 0.9"/>
    <path clip-path="url(#p23df9e9d14)" style="fill: #dfecf7; fill-opacity: 0.9"/>
    <path clip-path="url(#p23df9e9d14)" style="fill: #dae8f6; fill-opacity: 0.9"/>
    <path clip-path="url(#p23df9e9d14)" style="fill: #d6e5f4; fill-opacity: 0.9"/>
    <path clip-path="url(#p23df9e9d14)" style="fill: #d0e2f2; fill-opacity: 0.9"/>
    <path clip-path="url(#p23df9e9d14)" style="fill: #cbdef1; fill-opacity: 0.9"/>
    <path clip-path="url(#p23df9e9d14)" style="fill: #c6dbef; fill-opacity: 0.9"/>
    <path clip-path="url(#p23df9e9d14)" style="fill: #bed8ec; fill-opacity: 0.9"/>
    <path clip-path="url(#p23df9e9d14)" style="fill: #b5d4e9; fill-opacity: 0.9"/>
    <path clip-path="url(#p23df9e9d14)" style="fill: #add0e6; fill-opacity: 0.9"/>
    <path clip-path="url(#p23df9e9d14)" style="fill: #a5cde3; fill-opacity: 0.9"/>
    <path clip-path="url(#p23df9e9d14)" style="fill: #9cc9e1; fill-opacity: 0.9"/>
    <path clip-path="url(#p23df9e9d14)" style="fill: #91c3de; fill-opacity: 0.9"/>
    <path clip-path="url(#p23df9e9d14)" style="fill: #85bcdc; fill-opacity: 0.9"/>
    <path clip-path="url(#p23df9e9d14)" style="fill: #7cb7da; fill-opacity: 0.9"/>
    <path clip-path="url(#p23df9e9d14)" style="fill: #71b1d7; fill-opacity: 0.9"/>
    <path clip-path="url(#p23df9e9d14)" style="fill: #66abd4; fill-opacity: 0.9"/>
    <path clip-path="url(#p23df9e9d14)" style="fill: #5da5d1; fill-opacity: 0.9"/>
    <path clip-path="url(#p23df9e9d14)" style="fill: #56a0ce; fill-opacity: 0.9"/>
    <path clip-path="url(#p23df9e9d14)" style="fill: #4d99ca; fill-opacity: 0.9"/>
    <path clip-path="url(#p23df9e9d14)" style="fill: #4493c7; fill-opacity: 0.9"/>
    <path clip-path="url(#p23df9e9d14)" style="fill: #3c8cc3; fill-opacity: 0.9"/>
    <path clip-path="url(#p23df9e9d14)" style="fill: #3686c0; fill-opacity: 0.9"/>
    <path clip-path="url(#p23df9e9d14)" style="fill: #2f7fbc; fill-opacity: 0.9"/>
    <path clip-path="url(#p23df9e9d14)" style="fill: #2777b8; fill-opacity: 0.9"/>
    <path clip-path="url(#p23df9e9d14)" style="fill: #2070b4; fill-opacity: 0.9"/>
    <path clip-path="url(#p23df9e9d14)" style="fill: #1c6ab0; fill-opacity: 0.9"/>
    <path clip-path="url(#p23df9e9d14)" style="fill: #1663aa; fill-opacity: 0.9"/>
    <path clip-path="url(#p23df9e9d14)" style="fill: #115ca5; fill-opacity: 0.9"/>
    <path clip-path="url(#p23df9e9d14)" style="fill: #0c56a0; fill-opacity: 0.9"/>
    <path clip-path="url(#p23df9e9d14)" style="fill: #084f99; fill-opacity: 0.9"/>
    <path clip-path="url(#p23df9e9d14)" style="fill: #08488e; fill-opacity: 0.9"/>
    <path clip-path="url(#p23df9e9d14)" style="fill: #084184; fill-opacity: 0.9"/>
    <path clip-path="url(#p23df9e9d14)" style="fill: #083a7a; fill-opacity: 0.9"/>
    <path clip-path="url(#p23df9e9d14)" style="fill: #083370; fill-opacity: 0.9"/>
    <path clip-path="url(#p23df9e9d14)" style="fill: #08306b; fill-opacity: 0.9"/>
   </g>
   <g id="QuadContourSet_2">
    <path d="M 576 762.331978 
L 572.727273 762.651694 
L 569.454545 763.133772 
L 566.181818 763.726684 
L 565.94019 763.778611 
L 562.909091 764.567009 
L 559.636364 765.092067 
L 556.363636 765.308659 
L 553.090909 765.389565 
L 549.818182 765.690285 
L 546.545455 766.33914 
L 543.272727 765.407756 
L 540 765.17774 
L 536.727273 765.073556 
L 533.454545 765.018461 
L 530.181818 765.611068 
L 526.909091 766.373454 
L 524.278368 767.056631 
L 523.636364 767.303271 
L 520.363636 768.158385 
L 517.090909 768.382942 
L 513.818182 768.53254 
L 510.802832 770.33465 
L 510.545455 770.431457 
L 510.095241 770.33465 
L 507.272727 769.174143 
L 504 768.903109 
L 500.727273 768.794752 
L 497.454545 768.836879 
L 494.181818 769.324487 
L 490.909091 770.001952 
L 489.353936 770.33465 
L 487.636364 770.854308 
L 484.363636 771.503906 
L 481.090909 772.023737 
L 477.818182 772.667251 
L 474.545455 773.402294 
L 473.553455 773.61267 
L 471.272727 774.228862 
L 468 774.721109 
L 464.727273 775.240601 
L 461.454545 775.890619 
L 460.942696 775.98323 
M 442.302709 779.878661 
L 441.818182 779.985443 
L 441.015142 780.16871 
L 438.545455 780.894566 
L 435.272727 781.416787 
L 432 782.00881 
L 428.727273 782.729727 
L 425.454545 783.383613 
L 425.163027 783.446729 
L 422.181818 784.241901 
L 418.909091 784.798302 
L 415.636364 785.45087 
L 412.363636 786.154917 
L 409.788695 786.724749 
L 409.090909 786.990338 
L 405.818182 787.835541 
L 402.545455 788.297657 
L 399.272727 788.973012 
L 396 789.709172 
L 394.628371 790.002769 
L 392.727273 790.653445 
L 389.454545 791.324628 
L 386.181818 791.765731 
L 382.909091 792.466663 
L 379.636364 793.183821 
L 379.195328 793.280789 
L 376.363636 794.261992 
L 373.090909 794.874877 
L 369.818182 795.332584 
L 366.545455 796.048088 
L 364.242134 796.558809 
L 363.272727 797.023095 
L 360 797.948679 
L 356.727273 798.430735 
L 353.454545 798.905265 
L 350.181818 799.624282 
L 349.199096 799.836828 
L 346.909091 800.847769 
L 343.636364 801.590613 
L 340.363636 801.995977 
L 337.090909 802.682903 
L 335.291091 803.114848 
L 333.818182 803.926953 
L 330.545455 804.840643 
L 327.272727 805.30471 
L 324 805.833216 
L 321.653439 806.392868 
L 320.727273 806.997115 
L 317.454545 808.116658 
L 314.181818 808.623322 
L 310.909091 808.98511 
L 308.317117 809.670888 
L 307.636364 810.210468 
L 304.363636 811.46278 
L 301.090909 811.95401 
L 297.818182 812.648419 
L 296.674864 812.948908 
L 294.545455 814.131802 
L 291.272727 814.95291 
L 288 815.518309 
L 285.071625 816.226927 
M 513.818182 766.30466 
L 515.137785 763.778611 
L 513.818182 762.555434 
L 512.54436 763.778611 
L 513.818182 766.30466 
z
" clip-path="url(#p23df9e9d14)" style="fill: none"/>
    <path d="M 576 763.765954 
L 575.866497 763.778611 
L 572.727273 765.638474 
L 569.454545 766.254052 
L 566.181818 766.487388 
L 562.909091 766.600987 
L 559.636364 766.721409 
L 556.363636 766.957793 
L 555.894967 767.056631 
L 553.090909 768.680985 
L 549.818182 769.323201 
L 546.545455 769.482976 
L 543.272727 769.250666 
L 540 768.890551 
L 536.727273 767.634266 
L 536.596761 767.056631 
L 533.454545 766.600036 
L 530.181818 766.999583 
L 529.948845 767.056631 
L 526.909091 768.993619 
L 523.636364 769.481713 
L 520.363636 769.754274 
L 517.090909 770.168116 
L 516.561923 770.33465 
L 513.818182 771.98779 
L 510.545455 772.628841 
L 507.272727 772.409247 
L 504 772.744036 
L 501.205549 773.61267 
L 500.727273 773.759298 
L 500.472802 773.61267 
L 499.187705 770.33465 
L 497.454545 770.206232 
L 496.614662 770.33465 
L 494.181818 771.622213 
L 490.909091 772.492167 
L 487.636364 772.859788 
L 484.363636 773.057003 
L 481.090909 773.446315 
L 480.315779 773.61267 
L 477.818182 775.382428 
L 474.545455 776.043309 
L 471.272727 776.298945 
L 468 776.431835 
L 464.727273 776.871459 
L 464.635339 776.89069 
L 461.454545 778.981832 
L 458.181818 779.448434 
L 454.909091 779.703767 
L 451.636364 779.844305 
L 449.303305 780.16871 
L 448.363636 781.201555 
L 445.090909 782.741303 
L 441.818182 783.079648 
L 438.545455 783.227419 
L 435.272727 783.30568 
L 434.415702 783.446729 
L 432 786.071666 
L 428.727273 786.558755 
L 425.454545 786.679061 
L 423.136695 786.724749 
L 423.627882 790.002769 
L 422.181818 790.354593 
L 418.909091 791.006474 
L 415.636364 791.512683 
L 412.841461 793.280789 
L 412.363636 793.468352 
L 409.090909 794.511358 
L 405.818182 794.709815 
L 402.545455 795.337853 
L 399.945316 796.558809 
L 399.272727 796.813383 
L 396 797.66759 
L 392.727273 798.327729 
L 389.454545 799.05076 
L 387.202478 799.836828 
L 386.181818 800.082128 
L 382.909091 800.836496 
L 379.636364 801.552067 
L 376.363636 802.23379 
L 373.090909 802.832872 
L 371.982151 803.114848 
L 369.818182 803.549014 
L 369.340818 803.688274 
M 350.698261 808.093916 
L 350.181818 808.218397 
L 346.909091 809.006088 
L 344.113034 809.670888 
L 343.636364 809.748846 
L 340.363636 810.337807 
L 337.090909 811.340493 
L 333.818182 812.116723 
L 330.545455 812.893914 
L 330.325876 812.948908 
L 327.272727 813.434667 
L 324 814.245822 
L 320.727273 815.226104 
L 317.454545 816.005611 
L 316.520638 816.226927 
M 513.818182 764.52573 
L 514.208476 763.778611 
L 513.818182 763.416837 
L 513.441429 763.778611 
L 513.818182 764.52573 
z
" clip-path="url(#p23df9e9d14)" style="fill: none"/>
    <path d="M 576 781.840647 
L 572.727273 782.081521 
L 569.454545 782.469075 
L 566.181818 782.749377 
L 562.909091 783.28445 
L 561.901063 783.446729 
L 559.636364 783.6653 
L 558.106984 783.446729 
L 556.363636 783.011667 
L 553.090909 782.452721 
L 549.818182 782.239305 
L 546.545455 782.233737 
L 543.272727 782.310749 
L 540 782.497821 
L 536.727273 782.645739 
L 533.454545 783.066705 
L 531.758959 783.446729 
L 530.181818 783.745887 
L 527.307978 783.446729 
L 526.909091 783.396459 
L 525.635655 783.446729 
L 523.636364 783.565286 
L 520.363636 783.77632 
L 517.090909 783.856214 
L 513.818182 784.105084 
L 510.545455 784.398398 
L 507.272727 784.681783 
L 504 784.962411 
L 500.727273 785.26461 
L 497.454545 785.596643 
L 494.181818 786.11053 
L 490.909091 786.49948 
L 489.174698 786.724749 
L 487.636364 786.931282 
L 484.363636 787.400025 
L 481.090909 787.825969 
L 477.818182 788.524889 
L 474.545455 789.171676 
L 471.272727 789.552984 
L 468.289007 790.002769 
L 468 790.085946 
L 464.727273 791.270992 
L 461.454545 791.901138 
L 458.181818 792.30521 
L 454.909091 792.86693 
L 452.497845 793.280789 
L 451.636364 793.531551 
L 448.363636 794.273879 
L 445.090909 794.755455 
L 441.818182 795.295542 
L 438.545455 795.898166 
L 435.272727 796.34866 
L 434.241527 796.558809 
L 432 797.392391 
L 428.727273 798.164776 
L 425.454545 798.590882 
L 422.181818 799.219254 
L 418.909091 799.815926 
L 418.794439 799.836828 
L 415.636364 800.75724 
L 412.363636 801.305262 
L 409.090909 801.643643 
L 405.818182 802.202853 
L 402.545455 802.799439 
L 400.814816 803.114848 
L 399.272727 803.579246 
L 396 804.232053 
L 392.727273 804.640633 
L 389.454545 805.18688 
L 386.181818 805.783895 
L 384.097274 806.392868 
L 382.909091 806.877404 
L 379.636364 807.755247 
L 376.363636 808.509378 
L 373.42044 809.670888 
L 373.090909 809.807306 
L 369.818182 810.439785 
L 366.545455 810.148579 
L 363.272727 811.405458 
L 360 811.623516 
L 356.727273 811.674569 
L 353.454545 812.003646 
L 353.043205 812.084873 
M 334.212073 815.598003 
L 333.818182 815.653206 
L 330.913666 816.226927 
" clip-path="url(#p23df9e9d14)" style="fill: none"/>
    <path d="M 510.237552 816.226927 
L 507.272727 814.108491 
L 504 814.021546 
L 500.727273 814.021208 
L 497.454545 814.239588 
L 494.181818 814.67598 
L 490.909091 814.888213 
L 487.636364 814.966689 
L 484.363636 815.442738 
L 481.090909 815.498224 
L 477.818182 814.459897 
L 474.545455 814.367027 
L 471.272727 814.459981 
L 471.006775 814.464955 
M 451.910493 815.965926 
L 451.636364 815.989392 
L 450.309502 816.226927 
M 540.164469 816.226927 
L 540 816.159198 
L 536.727273 815.910189 
L 536.48647 815.914985 
M 517.336403 815.811963 
L 517.090909 815.809342 
L 515.43754 816.226927 
" clip-path="url(#p23df9e9d14)" style="fill: none"/>
    <path clip-path="url(#p23df9e9d14)" style="fill: none"/>
    <path clip-path="url(#p23df9e9d14)" style="fill: none"/>
    <path clip-path="url(#p23df9e9d14)" style="fill: none"/>
    <path clip-path="url(#p23df9e9d14)" style="fill: none"/>
    <path clip-path="url(#p23df9e9d14)" style="fill: none"/>
    <path clip-path="url(#p23df9e9d14)" style="fill: none"/>
    <path clip-path="url(#p23df9e9d14)" style="fill: none"/>
    <path clip-path="url(#p23df9e9d14)" style="fill: none"/>
    <path clip-path="url(#p23df9e9d14)" style="fill: none"/>
    <path clip-path="url(#p23df9e9d14)" style="fill: none"/>
    <path clip-path="url(#p23df9e9d14)" style="fill: none"/>
    <path clip-path="url(#p23df9e9d14)" style="fill: none"/>
    <path clip-path="url(#p23df9e9d14)" style="fill: none"/>
    <path clip-path="url(#p23df9e9d14)" style="fill: none"/>
    <path clip-path="url(#p23df9e9d14)" style="fill: none"/>
    <path clip-path="url(#p23df9e9d14)" style="fill: none"/>
    <path clip-path="url(#p23df9e9d14)" style="fill: none"/>
    <path clip-path="url(#p23df9e9d14)" style="fill: none"/>
    <path clip-path="url(#p23df9e9d14)" style="fill: none"/>
    <path clip-path="url(#p23df9e9d14)" style="fill: none"/>
    <path clip-path="url(#p23df9e9d14)" style="fill: none"/>
    <path clip-path="url(#p23df9e9d14)" style="fill: none"/>
    <path clip-path="url(#p23df9e9d14)" style="fill: none"/>
    <path clip-path="url(#p23df9e9d14)" style="fill: none"/>
    <path clip-path="url(#p23df9e9d14)" style="fill: none"/>
    <path clip-path="url(#p23df9e9d14)" style="fill: none"/>
    <path clip-path="url(#p23df9e9d14)" style="fill: none"/>
    <path clip-path="url(#p23df9e9d14)" style="fill: none"/>
    <path clip-path="url(#p23df9e9d14)" style="fill: none"/>
    <path clip-path="url(#p23df9e9d14)" style="fill: none"/>
    <path clip-path="url(#p23df9e9d14)" style="fill: none"/>
    <path clip-path="url(#p23df9e9d14)" style="fill: none"/>
    <path clip-path="url(#p23df9e9d14)" style="fill: none"/>
    <path clip-path="url(#p23df9e9d14)" style="fill: none"/>
    <path clip-path="url(#p23df9e9d14)" style="fill: none"/>
   </g>
   <g id="text_1">
    <g clip-path="url(#p23df9e9d14)">
     <!-- 0 -->
     <g style="opacity: 0" transform="translate(448.588763 782.014486) rotate(-11.972014) scale(0.12 -0.12)">
      <defs>
       <path id="DejaVuSans-30" d="M 2034 4250 
Q 1547 4250 1301 3770 
Q 1056 3291 1056 2328 
Q 1056 1369 1301 889 
Q 1547 409 2034 409 
Q 2525 409 2770 889 
Q 3016 1369 3016 2328 
Q 3016 3291 2770 3770 
Q 2525 4250 2034 4250 
z
M 2034 4750 
Q 2819 4750 3233 4129 
Q 3647 3509 3647 2328 
Q 3647 1150 3233 529 
Q 2819 -91 2034 -91 
Q 1250 -91 836 529 
Q 422 1150 422 2328 
Q 422 3509 836 4129 
Q 1250 4750 2034 4750 
z
" transform="scale(0.015625)"/>
      </defs>
      <use xlink:href="#DejaVuSans-30"/>
     </g>
    </g>
   </g>
   <g id="text_2">
    <g clip-path="url(#p23df9e9d14)">
     <!-- 1 -->
     <g style="opacity: 0" transform="translate(356.975477 809.835854) rotate(-12.299316) scale(0.12 -0.12)">
      <defs>
       <path id="DejaVuSans-31" d="M 794 531 
L 1825 531 
L 1825 4091 
L 703 3866 
L 703 4441 
L 1819 4666 
L 2450 4666 
L 2450 531 
L 3481 531 
L 3481 0 
L 794 0 
L 794 531 
z
" transform="scale(0.015625)"/>
      </defs>
      <use xlink:href="#DejaVuSans-31"/>
     </g>
    </g>
   </g>
   <g id="text_3">
    <g clip-path="url(#p23df9e9d14)">
     <!-- 2 -->
     <g style="opacity: 0" transform="translate(340.49227 817.843759) rotate(-10.587739) scale(0.12 -0.12)">
      <defs>
       <path id="DejaVuSans-32" d="M 1228 531 
L 3431 531 
L 3431 0 
L 469 0 
L 469 531 
Q 828 903 1448 1529 
Q 2069 2156 2228 2338 
Q 2531 2678 2651 2914 
Q 2772 3150 2772 3378 
Q 2772 3750 2511 3984 
Q 2250 4219 1831 4219 
Q 1534 4219 1204 4116 
Q 875 4013 500 3803 
L 500 4441 
Q 881 4594 1212 4672 
Q 1544 4750 1819 4750 
Q 2544 4750 2975 4387 
Q 3406 4025 3406 3419 
Q 3406 3131 3298 2873 
Q 3191 2616 2906 2266 
Q 2828 2175 2409 1742 
Q 1991 1309 1228 531 
z
" transform="scale(0.015625)"/>
      </defs>
      <use xlink:href="#DejaVuSans-32"/>
     </g>
    </g>
   </g>
   <g id="text_4">
    <g clip-path="url(#p23df9e9d14)">
     <!-- 3 -->
     <g style="opacity: 0" transform="translate(457.960307 818.779403) rotate(-5.316931) scale(0.12 -0.12)">
      <defs>
       <path id="DejaVuSans-33" d="M 2597 2516 
Q 3050 2419 3304 2112 
Q 3559 1806 3559 1356 
Q 3559 666 3084 287 
Q 2609 -91 1734 -91 
Q 1441 -91 1130 -33 
Q 819 25 488 141 
L 488 750 
Q 750 597 1062 519 
Q 1375 441 1716 441 
Q 2309 441 2620 675 
Q 2931 909 2931 1356 
Q 2931 1769 2642 2001 
Q 2353 2234 1838 2234 
L 1294 2234 
L 1294 2753 
L 1863 2753 
Q 2328 2753 2575 2939 
Q 2822 3125 2822 3475 
Q 2822 3834 2567 4026 
Q 2313 4219 1838 4219 
Q 1578 4219 1281 4162 
Q 984 4106 628 3988 
L 628 4550 
Q 988 4650 1302 4700 
Q 1616 4750 1894 4750 
Q 2613 4750 3031 4423 
Q 3450 4097 3450 3541 
Q 3450 3153 3228 2886 
Q 3006 2619 2597 2516 
z
" transform="scale(0.015625)"/>
      </defs>
      <use xlink:href="#DejaVuSans-33"/>
     </g>
    </g>
   </g>
   <g id="text_5">
    <g clip-path="url(#p23df9e9d14)">
     <!-- 3 -->
     <g style="opacity: 0" transform="translate(523.0631 819.441373) rotate(-359.50454) scale(0.12 -0.12)">
      <use xlink:href="#DejaVuSans-33"/>
     </g>
    </g>
   </g>
  </g>
 </g>
 <defs>
  <clipPath id="p23df9e9d14">
   <rect x="0" y="0" width="576" height="816.226927"/>
  </clipPath>
 </defs>
</svg>
