<?xml version="1.0" encoding="utf-8" standalone="no"?>
<!DOCTYPE svg PUBLIC "-//W3C//DTD SVG 1.1//EN"
  "http://www.w3.org/Graphics/SVG/1.1/DTD/svg11.dtd">
<svg xmlns:xlink="http://www.w3.org/1999/xlink" width="576pt" height="814.089865pt" viewBox="0 0 576 814.089865" xmlns="http://www.w3.org/2000/svg" version="1.1">
 <metadata>
  <rdf:RDF xmlns:dc="http://purl.org/dc/elements/1.1/" xmlns:cc="http://creativecommons.org/ns#" xmlns:rdf="http://www.w3.org/1999/02/22-rdf-syntax-ns#">
   <cc:Work>
    <dc:type rdf:resource="http://purl.org/dc/dcmitype/StillImage"/>
    <dc:date>2025-07-25T22:45:14.188312</dc:date>
    <dc:format>image/svg+xml</dc:format>
    <dc:creator>
     <cc:Agent>
      <dc:title>Matplotlib v3.10.3, https://matplotlib.org/</dc:title>
     </cc:Agent>
    </dc:creator>
   </cc:Work>
  </rdf:RDF>
 </metadata>
 <defs>
  <style type="text/css">*{stroke-linejoin: round; stroke-linecap: butt}</style>
 </defs>
 <g id="figure_1">
  <g id="patch_1">
   <path d="M 0 814.089865 
L 576 814.089865 
L 576 0 
L 0 0 
L 0 814.089865 
z
" style="fill: none; opacity: 0"/>
  </g>
  <g id="axes_1">
   <g id="QuadContourSet_1">
    <path d="M 3.272727 814.089865 
L 6.545455 814.089865 
L 9.818182 814.089865 
L 13.090909 814.089865 
L 16.363636 814.089865 
L 19.636364 814.089865 
L 22.909091 814.089865 
L 26.181818 814.089865 
L 29.454545 814.089865 
L 32.727273 814.089865 
L 36 814.089865 
L 39.272727 814.089865 
L 42.545455 814.089865 
L 45.818182 814.089865 
L 49.090909 814.089865 
L 52.363636 814.089865 
L 55.636364 814.089865 
L 58.909091 814.089865 
L 62.181818 814.089865 
L 65.454545 814.089865 
L 68.727273 814.089865 
L 72 814.089865 
L 75.272727 814.089865 
L 78.545455 814.089865 
L 81.818182 814.089865 
L 85.090909 814.089865 
L 88.363636 814.089865 
L 91.636364 814.089865 
L 94.909091 814.089865 
L 98.181818 814.089865 
L 101.454545 814.089865 
L 104.727273 814.089865 
L 108 814.089865 
L 111.272727 814.089865 
L 114.545455 814.089865 
L 117.818182 814.089865 
L 121.090909 814.089865 
L 124.363636 814.089865 
L 127.636364 814.089865 
L 130.909091 814.089865 
L 134.181818 814.089865 
L 137.454545 814.089865 
L 140.727273 814.089865 
L 144 814.089865 
L 147.272727 814.089865 
L 150.545455 814.089865 
L 153.818182 814.089865 
L 157.090909 814.089865 
L 160.363636 814.089865 
L 163.636364 814.089865 
L 166.909091 814.089865 
L 170.181818 814.089865 
L 173.454545 814.089865 
L 176.727273 814.089865 
L 180 814.089865 
L 183.272727 814.089865 
L 186.545455 814.089865 
L 189.818182 814.089865 
L 193.090909 814.089865 
L 196.363636 814.089865 
L 199.636364 814.089865 
L 202.909091 814.089865 
L 206.181818 814.089865 
L 209.454545 814.089865 
L 212.727273 814.089865 
L 216 814.089865 
L 219.272727 814.089865 
L 222.545455 814.089865 
L 225.818182 814.089865 
L 229.090909 814.089865 
L 232.363636 814.089865 
L 235.636364 814.089865 
L 238.909091 814.089865 
L 242.181818 814.089865 
L 245.454545 814.089865 
L 248.727273 814.089865 
L 252 814.089865 
L 255.272727 814.089865 
L 258.545455 814.089865 
L 261.818182 814.089865 
L 265.090909 814.089865 
L 268.363636 814.089865 
L 271.636364 814.089865 
L 274.909091 814.089865 
L 278.181818 814.089865 
L 281.454545 814.089865 
L 284.727273 814.089865 
L 288 814.089865 
L 291.272727 814.089865 
L 294.545455 814.089865 
L 297.818182 814.089865 
L 301.090909 814.089865 
L 304.363636 814.089865 
L 307.636364 814.089865 
L 310.909091 814.089865 
L 314.181818 814.089865 
L 317.454545 814.089865 
L 320.727273 814.089865 
L 324 814.089865 
L 327.272727 814.089865 
L 330.545455 814.089865 
L 333.818182 814.089865 
L 337.090909 814.089865 
L 340.363636 814.089865 
L 343.636364 814.089865 
L 346.909091 814.089865 
L 350.181818 814.089865 
L 353.454545 814.089865 
L 356.727273 814.089865 
L 360 814.089865 
L 363.272727 814.089865 
L 366.545455 814.089865 
L 369.818182 814.089865 
L 373.090909 814.089865 
L 376.363636 814.089865 
L 379.636364 814.089865 
L 382.909091 814.089865 
L 386.181818 814.089865 
L 389.454545 814.089865 
L 392.727273 814.089865 
L 396 814.089865 
L 399.272727 814.089865 
L 402.545455 814.089865 
L 405.818182 814.089865 
L 409.090909 814.089865 
L 412.363636 814.089865 
L 415.636364 814.089865 
L 418.909091 814.089865 
L 422.181818 814.089865 
L 425.454545 814.089865 
L 428.727273 814.089865 
L 432 814.089865 
L 435.272727 814.089865 
L 438.545455 814.089865 
L 441.818182 814.089865 
L 445.090909 814.089865 
L 448.363636 814.089865 
L 451.636364 814.089865 
L 454.909091 814.089865 
L 458.181818 814.089865 
L 461.454545 814.089865 
L 464.727273 814.089865 
L 468 814.089865 
L 471.272727 814.089865 
L 474.545455 814.089865 
L 477.818182 814.089865 
L 481.090909 814.089865 
L 484.363636 814.089865 
L 487.636364 814.089865 
L 490.909091 814.089865 
L 494.181818 814.089865 
L 497.454545 814.089865 
L 500.727273 814.089865 
L 504 814.089865 
L 507.272727 814.089865 
L 510.545455 814.089865 
L 513.818182 814.089865 
L 517.090909 814.089865 
L 520.363636 814.089865 
L 523.636364 814.089865 
L 526.909091 814.089865 
L 530.181818 814.089865 
L 533.454545 814.089865 
L 536.727273 814.089865 
L 540 814.089865 
L 543.272727 814.089865 
L 546.545455 814.089865 
L 549.818182 814.089865 
L 553.090909 814.089865 
L 556.363636 814.089865 
L 559.636364 814.089865 
L 562.909091 814.089865 
L 566.181818 814.089865 
L 569.454545 814.089865 
L 572.727273 814.089865 
L 576 814.089865 
L 576 810.820427 
L 576 807.55099 
L 576 804.281553 
L 576 801.012116 
L 576 797.742679 
L 576 794.473241 
L 576 791.203804 
L 576 787.934367 
L 576 784.66493 
L 576 781.395493 
L 576 778.126055 
L 576 774.856618 
L 576 771.587181 
L 576 768.317744 
L 576 765.048307 
L 576 761.778869 
L 576 758.509432 
L 576 755.239995 
L 576 751.970558 
L 576 748.701121 
L 576 745.431683 
L 576 742.162246 
L 576 738.892809 
L 576 735.623372 
L 576 732.353934 
L 576 729.084497 
L 576 725.81506 
L 576 722.545623 
L 576 719.276186 
L 576 716.006748 
L 576 712.737311 
L 576 709.467874 
L 576 706.198437 
L 576 702.929 
L 576 699.659562 
L 576 696.390125 
L 576 693.120688 
L 576 689.851251 
L 576 686.581814 
L 576 683.312376 
L 576 680.042939 
L 576 676.773502 
L 576 673.504065 
L 576 670.234628 
L 576 666.96519 
L 576 663.695753 
L 576 660.426316 
L 576 657.156879 
L 576 653.887441 
L 576 650.618004 
L 576 647.348567 
L 576 644.07913 
L 576 640.809693 
L 576 637.540255 
L 576 634.270818 
L 576 631.001381 
L 576 627.731944 
L 576 624.462507 
L 576 621.193069 
L 576 617.923632 
L 576 614.654195 
L 576 611.384758 
L 576 608.115321 
L 576 604.845883 
L 576 601.576446 
L 576 598.307009 
L 576 595.037572 
L 576 591.768135 
L 576 588.498697 
L 576 585.22926 
L 576 581.959823 
L 576 578.690386 
L 576 575.420949 
L 576 572.151511 
L 576 568.882074 
L 576 565.612637 
L 576 562.3432 
L 576 559.073762 
L 576 555.804325 
L 576 552.534888 
L 576 549.265451 
L 576 545.996014 
L 576 542.726576 
L 576 539.457139 
L 576 536.187702 
L 576 532.918265 
L 576 529.648828 
L 576 526.37939 
L 576 523.109953 
L 576 519.840516 
L 576 516.571079 
L 576 513.301642 
L 576 510.032204 
L 576 506.762767 
L 576 503.49333 
L 576 500.223893 
L 576 496.954456 
L 576 493.685018 
L 576 490.415581 
L 576 487.146144 
L 576 483.876707 
L 576 480.607269 
L 576 477.337832 
L 576 474.068395 
L 576 470.798958 
L 576 467.529521 
L 576 464.260083 
L 576 460.990646 
L 576 457.721209 
L 576 454.451772 
L 576 451.182335 
L 576 447.912897 
L 576 444.64346 
L 576 441.374023 
L 576 438.104586 
L 576 434.835149 
L 576 431.565711 
L 576 428.296274 
L 576 425.026837 
L 576 421.7574 
L 576 418.487963 
L 576 415.218525 
L 576 411.949088 
L 576 408.679651 
L 576 405.410214 
L 576 402.140777 
L 576 398.871339 
L 576 395.601902 
L 576 392.332465 
L 576 389.063028 
L 576 385.79359 
L 576 382.524153 
L 576 379.254716 
L 576 375.985279 
L 576 372.715842 
L 576 369.446404 
L 576 366.176967 
L 576 362.90753 
L 576 359.638093 
L 576 356.368656 
L 576 353.099218 
L 576 349.829781 
L 576 346.560344 
L 576 343.290907 
L 576 340.02147 
L 576 336.752032 
L 576 333.482595 
L 576 330.213158 
L 576 326.943721 
L 576 323.674284 
L 576 320.404846 
L 576 317.135409 
L 576 313.865972 
L 576 310.596535 
L 576 307.327097 
L 576 304.05766 
L 576 300.788223 
L 576 297.518786 
L 576 294.249349 
L 576 290.979911 
L 576 287.710474 
L 576 284.441037 
L 576 281.1716 
L 576 277.902163 
L 576 274.632725 
L 576 271.363288 
L 576 268.093851 
L 576 264.824414 
L 576 261.554977 
L 576 258.285539 
L 576 255.016102 
L 576 251.746665 
L 576 248.477228 
L 576 245.207791 
L 576 241.938353 
L 576 238.668916 
L 576 235.399479 
L 576 232.130042 
L 576 228.860605 
L 576 225.591167 
L 576 222.32173 
L 576 219.052293 
L 576 215.782856 
L 576 212.513418 
L 576 209.243981 
L 576 205.974544 
L 576 202.705107 
L 576 199.43567 
L 576 196.166232 
L 576 192.896795 
L 576 189.627358 
L 576 186.357921 
L 576 183.088484 
L 576 179.819046 
L 576 176.549609 
L 576 173.280172 
L 576 170.010735 
L 576 166.741298 
L 576 163.47186 
L 576 160.202423 
L 576 156.932986 
L 576 153.663549 
L 576 150.394112 
L 576 147.124674 
L 576 143.855237 
L 576 140.5858 
L 576 137.316363 
L 576 134.046926 
L 576 130.777488 
L 576 127.508051 
L 576 124.238614 
L 576 120.969177 
L 576 117.699739 
L 576 114.430302 
L 576 111.160865 
L 576 107.891428 
L 576 104.621991 
L 576 101.352553 
L 576 98.083116 
L 576 94.813679 
L 576 91.544242 
L 576 88.274805 
L 576 85.005367 
L 576 81.73593 
L 576 78.466493 
L 576 75.197056 
L 576 71.927619 
L 576 68.658181 
L 576 65.388744 
L 576 62.119307 
L 576 58.84987 
L 576 55.580433 
L 576 52.310995 
L 576 49.041558 
L 576 45.772121 
L 576 42.502684 
L 576 39.233246 
L 576 35.963809 
L 576 32.694372 
L 576 29.424935 
L 576 26.155498 
L 576 22.88606 
L 576 19.616623 
L 576 16.347186 
L 576 13.077749 
L 576 9.808312 
L 576 6.538874 
L 576 3.269437 
L 576 0 
L 572.727273 0 
L 569.454545 0 
L 566.181818 0 
L 562.909091 0 
L 559.636364 0 
L 556.363636 0 
L 553.090909 0 
L 549.818182 0 
L 546.545455 0 
L 543.272727 0 
L 540 0 
L 536.727273 0 
L 533.454545 0 
L 530.181818 0 
L 526.909091 0 
L 523.636364 0 
L 520.363636 0 
L 517.090909 0 
L 513.818182 0 
L 510.545455 0 
L 507.272727 0 
L 504 0 
L 500.727273 0 
L 497.454545 0 
L 494.181818 0 
L 490.909091 0 
L 487.636364 0 
L 484.363636 0 
L 481.090909 0 
L 477.818182 0 
L 474.545455 0 
L 471.272727 0 
L 468 0 
L 464.727273 0 
L 461.454545 0 
L 458.181818 0 
L 454.909091 0 
L 451.636364 0 
L 448.363636 0 
L 445.090909 0 
L 441.818182 0 
L 438.545455 0 
L 435.272727 0 
L 432 0 
L 428.727273 0 
L 425.454545 0 
L 422.181818 0 
L 418.909091 0 
L 415.636364 0 
L 412.363636 0 
L 409.090909 0 
L 405.818182 0 
L 402.545455 0 
L 399.272727 0 
L 396 0 
L 392.727273 0 
L 389.454545 0 
L 386.181818 0 
L 382.909091 0 
L 379.636364 0 
L 376.363636 0 
L 373.090909 0 
L 369.818182 0 
L 366.545455 0 
L 363.272727 0 
L 360 0 
L 356.727273 0 
L 353.454545 0 
L 350.181818 0 
L 346.909091 0 
L 343.636364 0 
L 340.363636 0 
L 337.090909 0 
L 333.818182 0 
L 330.545455 0 
L 327.272727 0 
L 324 0 
L 320.727273 0 
L 317.454545 0 
L 314.181818 0 
L 310.909091 0 
L 307.636364 0 
L 304.363636 0 
L 301.090909 0 
L 297.818182 0 
L 294.545455 0 
L 291.272727 0 
L 288 0 
L 284.727273 0 
L 281.454545 0 
L 278.181818 0 
L 274.909091 0 
L 271.636364 0 
L 268.363636 0 
L 265.090909 0 
L 261.818182 0 
L 258.545455 0 
L 255.272727 0 
L 252 0 
L 248.727273 0 
L 245.454545 0 
L 242.181818 0 
L 238.909091 0 
L 235.636364 0 
L 232.363636 0 
L 229.090909 0 
L 225.818182 0 
L 222.545455 0 
L 219.272727 0 
L 216 0 
L 212.727273 0 
L 209.454545 0 
L 206.181818 0 
L 202.909091 0 
L 199.636364 0 
L 196.363636 0 
L 193.090909 0 
L 189.818182 0 
L 186.545455 0 
L 183.272727 0 
L 180 0 
L 176.727273 0 
L 173.454545 0 
L 170.181818 0 
L 166.909091 0 
L 163.636364 0 
L 160.363636 0 
L 157.090909 0 
L 153.818182 0 
L 150.545455 0 
L 147.272727 0 
L 144 0 
L 140.727273 0 
L 137.454545 0 
L 134.181818 0 
L 130.909091 0 
L 127.636364 0 
L 124.363636 0 
L 121.090909 0 
L 117.818182 0 
L 114.545455 0 
L 111.272727 0 
L 108 0 
L 104.727273 0 
L 101.454545 0 
L 98.181818 0 
L 94.909091 0 
L 91.636364 0 
L 88.363636 0 
L 85.090909 0 
L 81.818182 0 
L 78.545455 0 
L 75.272727 0 
L 72 0 
L 68.727273 0 
L 65.454545 0 
L 62.181818 0 
L 58.909091 0 
L 55.636364 0 
L 52.363636 0 
L 49.090909 0 
L 45.818182 0 
L 42.545455 0 
L 39.272727 0 
L 36 0 
L 32.727273 0 
L 29.454545 0 
L 26.181818 0 
L 22.909091 0 
L 19.636364 0 
L 16.363636 0 
L 13.090909 0 
L 9.818182 0 
L 6.545455 0 
L 3.272727 0 
L 0 0 
L 0 3.269437 
L 0 6.538874 
L 0 9.808312 
L 0 13.077749 
L 0 16.347186 
L 0 19.616623 
L 0 22.88606 
L 0 26.155498 
L 0 29.424935 
L 0 32.694372 
L 0 35.963809 
L 0 39.233246 
L 0 42.502684 
L 0 45.772121 
L 0 49.041558 
L 0 52.310995 
L 0 55.580433 
L 0 58.84987 
L 0 62.119307 
L 0 65.388744 
L 0 68.658181 
L 0 71.927619 
L 0 75.197056 
L 0 78.466493 
L 0 81.73593 
L 0 85.005367 
L 0 88.274805 
L 0 91.544242 
L 0 94.813679 
L 0 98.083116 
L 0 101.352553 
L 0 104.621991 
L 0 107.891428 
L 0 111.160865 
L 0 114.430302 
L 0 117.699739 
L 0 120.969177 
L 0 124.238614 
L 0 127.508051 
L 0 130.777488 
L 0 134.046926 
L 0 137.316363 
L 0 140.5858 
L 0 143.855237 
L 0 147.124674 
L 0 150.394112 
L 0 153.663549 
L 0 156.932986 
L 0 160.202423 
L 0 163.47186 
L 0 166.741298 
L 0 170.010735 
L 0 173.280172 
L 0 176.549609 
L 0 179.819046 
L 0 183.088484 
L 0 186.357921 
L 0 189.627358 
L 0 192.896795 
L 0 196.166232 
L 0 199.43567 
L 0 202.705107 
L 0 205.974544 
L 0 209.243981 
L 0 212.513418 
L 0 215.782856 
L 0 219.052293 
L 0 222.32173 
L 0 225.591167 
L 0 228.860605 
L 0 232.130042 
L 0 235.399479 
L 0 238.668916 
L 0 241.938353 
L 0 245.207791 
L 0 248.477228 
L 0 251.746665 
L 0 255.016102 
L 0 258.285539 
L 0 261.554977 
L 0 264.824414 
L 0 268.093851 
L 0 271.363288 
L 0 274.632725 
L 0 277.902163 
L 0 281.1716 
L 0 284.441037 
L 0 287.710474 
L 0 290.979911 
L 0 294.249349 
L 0 297.518786 
L 0 300.788223 
L 0 304.05766 
L 0 307.327097 
L 0 310.596535 
L 0 313.865972 
L 0 317.135409 
L 0 320.404846 
L 0 323.674284 
L 0 326.943721 
L 0 330.213158 
L 0 333.482595 
L 0 336.752032 
L 0 340.02147 
L 0 343.290907 
L 0 346.560344 
L 0 349.829781 
L 0 353.099218 
L 0 356.368656 
L 0 359.638093 
L 0 362.90753 
L 0 366.176967 
L 0 369.446404 
L 0 372.715842 
L 0 375.985279 
L 0 379.254716 
L 0 382.524153 
L 0 385.79359 
L 0 389.063028 
L 0 392.332465 
L 0 395.601902 
L 0 398.871339 
L 0 402.140777 
L 0 405.410214 
L 0 408.679651 
L 0 411.949088 
L 0 415.218525 
L 0 418.487963 
L 0 421.7574 
L 0 425.026837 
L 0 428.296274 
L 0 431.565711 
L 0 434.835149 
L 0 438.104586 
L 0 441.374023 
L 0 444.64346 
L 0 447.912897 
L 0 451.182335 
L 0 454.451772 
L 0 457.721209 
L 0 460.990646 
L 0 464.260083 
L 0 467.529521 
L 0 470.798958 
L 0 474.068395 
L 0 477.337832 
L 0 480.607269 
L 0 483.876707 
L 0 487.146144 
L 0 490.415581 
L 0 493.685018 
L 0 496.954456 
L 0 500.223893 
L 0 503.49333 
L 0 506.762767 
L 0 510.032204 
L 0 513.301642 
L 0 516.571079 
L 0 519.840516 
L 0 523.109953 
L 0 526.37939 
L 0 529.648828 
L 0 532.918265 
L 0 536.187702 
L 0 539.457139 
L 0 542.726576 
L 0 545.996014 
L 0 549.265451 
L 0 552.534888 
L 0 555.804325 
L 0 559.073762 
L 0 562.3432 
L 0 565.612637 
L 0 568.882074 
L 0 572.151511 
L 0 575.420949 
L 0 578.690386 
L 0 581.959823 
L 0 585.22926 
L 0 588.498697 
L 0 591.768135 
L 0 595.037572 
L 0 598.307009 
L 0 601.576446 
L 0 604.845883 
L 0 608.115321 
L 0 611.384758 
L 0 614.654195 
L 0 617.923632 
L 0 621.193069 
L 0 624.462507 
L 0 627.731944 
L 0 631.001381 
L 0 634.270818 
L 0 637.540255 
L 0 640.809693 
L 0 644.07913 
L 0 647.348567 
L 0 650.618004 
L 0 653.887441 
L 0 657.156879 
L 0 660.426316 
L 0 663.695753 
L 0 666.96519 
L 0 670.234628 
L 0 673.504065 
L 0 676.773502 
L 0 680.042939 
L 0 683.312376 
L 0 686.581814 
L 0 689.851251 
L 0 693.120688 
L 0 696.390125 
L 0 699.659562 
L 0 702.929 
L 0 706.198437 
L 0 709.467874 
L 0 712.737311 
L 0 716.006748 
L 0 719.276186 
L 0 722.545623 
L 0 725.81506 
L 0 729.084497 
L 0 732.353934 
L 0 735.623372 
L 0 738.892809 
L 0 742.162246 
L 0 745.431683 
L 0 748.701121 
L 0 751.970558 
L 0 755.239995 
L 0 758.509432 
L 0 761.778869 
L 0 765.048307 
L 0 768.317744 
L 0 771.587181 
L 0 774.856618 
L 0 778.126055 
L 0 781.395493 
L 0 784.66493 
L 0 787.934367 
L 0 791.203804 
L 0 794.473241 
L 0 797.742679 
L 0 801.012116 
L 0 804.281553 
L 0 807.55099 
L 0 810.820427 
L 0 814.089865 
z
" clip-path="url(#pafe4a531cf)" style="fill: #f5f9fe; fill-opacity: 0.9"/>
    <path clip-path="url(#pafe4a531cf)" style="fill: #eff6fc; fill-opacity: 0.9"/>
    <path clip-path="url(#pafe4a531cf)" style="fill: #eaf3fb; fill-opacity: 0.9"/>
    <path clip-path="url(#pafe4a531cf)" style="fill: #e5eff9; fill-opacity: 0.9"/>
    <path clip-path="url(#pafe4a531cf)" style="fill: #dfecf7; fill-opacity: 0.9"/>
    <path clip-path="url(#pafe4a531cf)" style="fill: #dae8f6; fill-opacity: 0.9"/>
    <path clip-path="url(#pafe4a531cf)" style="fill: #d6e5f4; fill-opacity: 0.9"/>
    <path clip-path="url(#pafe4a531cf)" style="fill: #d0e2f2; fill-opacity: 0.9"/>
    <path clip-path="url(#pafe4a531cf)" style="fill: #cbdef1; fill-opacity: 0.9"/>
    <path clip-path="url(#pafe4a531cf)" style="fill: #c6dbef; fill-opacity: 0.9"/>
    <path clip-path="url(#pafe4a531cf)" style="fill: #bed8ec; fill-opacity: 0.9"/>
    <path clip-path="url(#pafe4a531cf)" style="fill: #b5d4e9; fill-opacity: 0.9"/>
    <path clip-path="url(#pafe4a531cf)" style="fill: #add0e6; fill-opacity: 0.9"/>
    <path clip-path="url(#pafe4a531cf)" style="fill: #a5cde3; fill-opacity: 0.9"/>
    <path clip-path="url(#pafe4a531cf)" style="fill: #9cc9e1; fill-opacity: 0.9"/>
    <path clip-path="url(#pafe4a531cf)" style="fill: #91c3de; fill-opacity: 0.9"/>
    <path clip-path="url(#pafe4a531cf)" style="fill: #85bcdc; fill-opacity: 0.9"/>
    <path clip-path="url(#pafe4a531cf)" style="fill: #7cb7da; fill-opacity: 0.9"/>
    <path clip-path="url(#pafe4a531cf)" style="fill: #71b1d7; fill-opacity: 0.9"/>
    <path clip-path="url(#pafe4a531cf)" style="fill: #66abd4; fill-opacity: 0.9"/>
    <path clip-path="url(#pafe4a531cf)" style="fill: #5da5d1; fill-opacity: 0.9"/>
    <path clip-path="url(#pafe4a531cf)" style="fill: #56a0ce; fill-opacity: 0.9"/>
    <path clip-path="url(#pafe4a531cf)" style="fill: #4d99ca; fill-opacity: 0.9"/>
    <path clip-path="url(#pafe4a531cf)" style="fill: #4493c7; fill-opacity: 0.9"/>
    <path clip-path="url(#pafe4a531cf)" style="fill: #3c8cc3; fill-opacity: 0.9"/>
    <path clip-path="url(#pafe4a531cf)" style="fill: #3686c0; fill-opacity: 0.9"/>
    <path clip-path="url(#pafe4a531cf)" style="fill: #2f7fbc; fill-opacity: 0.9"/>
    <path clip-path="url(#pafe4a531cf)" style="fill: #2777b8; fill-opacity: 0.9"/>
    <path clip-path="url(#pafe4a531cf)" style="fill: #2070b4; fill-opacity: 0.9"/>
    <path clip-path="url(#pafe4a531cf)" style="fill: #1c6ab0; fill-opacity: 0.9"/>
    <path clip-path="url(#pafe4a531cf)" style="fill: #1663aa; fill-opacity: 0.9"/>
    <path clip-path="url(#pafe4a531cf)" style="fill: #115ca5; fill-opacity: 0.9"/>
    <path clip-path="url(#pafe4a531cf)" style="fill: #0c56a0; fill-opacity: 0.9"/>
    <path clip-path="url(#pafe4a531cf)" style="fill: #084f99; fill-opacity: 0.9"/>
    <path clip-path="url(#pafe4a531cf)" style="fill: #08488e; fill-opacity: 0.9"/>
    <path clip-path="url(#pafe4a531cf)" style="fill: #084184; fill-opacity: 0.9"/>
    <path clip-path="url(#pafe4a531cf)" style="fill: #083a7a; fill-opacity: 0.9"/>
    <path clip-path="url(#pafe4a531cf)" style="fill: #083370; fill-opacity: 0.9"/>
    <path clip-path="url(#pafe4a531cf)" style="fill: #08306b; fill-opacity: 0.9"/>
   </g>
   <g id="QuadContourSet_2">
    <path clip-path="url(#pafe4a531cf)" style="fill: none"/>
    <path clip-path="url(#pafe4a531cf)" style="fill: none"/>
    <path clip-path="url(#pafe4a531cf)" style="fill: none"/>
    <path clip-path="url(#pafe4a531cf)" style="fill: none"/>
    <path clip-path="url(#pafe4a531cf)" style="fill: none"/>
    <path clip-path="url(#pafe4a531cf)" style="fill: none"/>
    <path clip-path="url(#pafe4a531cf)" style="fill: none"/>
    <path clip-path="url(#pafe4a531cf)" style="fill: none"/>
    <path clip-path="url(#pafe4a531cf)" style="fill: none"/>
    <path clip-path="url(#pafe4a531cf)" style="fill: none"/>
    <path clip-path="url(#pafe4a531cf)" style="fill: none"/>
    <path clip-path="url(#pafe4a531cf)" style="fill: none"/>
    <path clip-path="url(#pafe4a531cf)" style="fill: none"/>
    <path clip-path="url(#pafe4a531cf)" style="fill: none"/>
    <path clip-path="url(#pafe4a531cf)" style="fill: none"/>
    <path clip-path="url(#pafe4a531cf)" style="fill: none"/>
    <path clip-path="url(#pafe4a531cf)" style="fill: none"/>
    <path clip-path="url(#pafe4a531cf)" style="fill: none"/>
    <path clip-path="url(#pafe4a531cf)" style="fill: none"/>
    <path clip-path="url(#pafe4a531cf)" style="fill: none"/>
    <path clip-path="url(#pafe4a531cf)" style="fill: none"/>
    <path clip-path="url(#pafe4a531cf)" style="fill: none"/>
    <path clip-path="url(#pafe4a531cf)" style="fill: none"/>
    <path clip-path="url(#pafe4a531cf)" style="fill: none"/>
    <path clip-path="url(#pafe4a531cf)" style="fill: none"/>
    <path clip-path="url(#pafe4a531cf)" style="fill: none"/>
    <path clip-path="url(#pafe4a531cf)" style="fill: none"/>
    <path clip-path="url(#pafe4a531cf)" style="fill: none"/>
    <path clip-path="url(#pafe4a531cf)" style="fill: none"/>
    <path clip-path="url(#pafe4a531cf)" style="fill: none"/>
    <path clip-path="url(#pafe4a531cf)" style="fill: none"/>
    <path clip-path="url(#pafe4a531cf)" style="fill: none"/>
    <path clip-path="url(#pafe4a531cf)" style="fill: none"/>
    <path clip-path="url(#pafe4a531cf)" style="fill: none"/>
    <path clip-path="url(#pafe4a531cf)" style="fill: none"/>
    <path clip-path="url(#pafe4a531cf)" style="fill: none"/>
    <path clip-path="url(#pafe4a531cf)" style="fill: none"/>
    <path clip-path="url(#pafe4a531cf)" style="fill: none"/>
    <path clip-path="url(#pafe4a531cf)" style="fill: none"/>
   </g>
  </g>
 </g>
 <defs>
  <clipPath id="pafe4a531cf">
   <rect x="0" y="0" width="576" height="814.089865"/>
  </clipPath>
 </defs>
</svg>
