<?xml version="1.0" encoding="utf-8" standalone="no"?>
<!DOCTYPE svg PUBLIC "-//W3C//DTD SVG 1.1//EN"
  "http://www.w3.org/Graphics/SVG/1.1/DTD/svg11.dtd">
<svg xmlns:xlink="http://www.w3.org/1999/xlink" width="576pt" height="820.406572pt" viewBox="0 0 576 820.406572" xmlns="http://www.w3.org/2000/svg" version="1.1">
 <metadata>
  <rdf:RDF xmlns:dc="http://purl.org/dc/elements/1.1/" xmlns:cc="http://creativecommons.org/ns#" xmlns:rdf="http://www.w3.org/1999/02/22-rdf-syntax-ns#">
   <cc:Work>
    <dc:type rdf:resource="http://purl.org/dc/dcmitype/StillImage"/>
    <dc:date>2025-07-25T22:45:40.966238</dc:date>
    <dc:format>image/svg+xml</dc:format>
    <dc:creator>
     <cc:Agent>
      <dc:title>Matplotlib v3.10.3, https://matplotlib.org/</dc:title>
     </cc:Agent>
    </dc:creator>
   </cc:Work>
  </rdf:RDF>
 </metadata>
 <defs>
  <style type="text/css">*{stroke-linejoin: round; stroke-linecap: butt}</style>
 </defs>
 <g id="figure_1">
  <g id="patch_1">
   <path d="M 0 820.406572 
L 576 820.406572 
L 576 0 
L 0 0 
L 0 820.406572 
z
" style="fill: none; opacity: 0"/>
  </g>
  <g id="axes_1">
   <g id="QuadContourSet_1">
    <path d="M 569.417143 74.085567 
L 572.708571 74.408311 
L 576 75.023878 
L 576 74.181384 
L 572.708571 73.508032 
L 569.417143 72.948525 
L 568.8403 72.485721 
L 566.125714 71.180578 
L 562.834286 70.898003 
L 559.542857 69.635937 
L 558.990563 69.190916 
L 556.251429 68.274656 
L 552.96 67.596342 
L 549.668571 66.20392 
L 549.256369 65.89611 
L 546.377143 64.87349 
L 543.085714 63.531636 
L 539.794286 62.757058 
L 539.526018 62.601305 
L 536.502857 61.120901 
L 533.211429 60.707946 
L 529.92 60.339598 
L 528.167623 59.306499 
L 526.628571 58.581816 
L 523.337143 57.974524 
L 520.045714 57.253789 
L 517.705056 56.011694 
L 516.754286 55.709872 
L 513.462857 54.728886 
L 510.171429 53.523666 
L 508.875836 52.716888 
L 506.88 51.965335 
L 503.588571 50.507827 
L 500.297143 49.461302 
L 500.118248 49.422083 
L 497.005714 48.584693 
L 493.714286 47.379842 
L 490.422857 47.274134 
L 487.675073 46.127277 
L 487.131429 45.82053 
L 483.84 44.894056 
L 480.548571 44.113278 
L 477.268247 42.832472 
L 477.257143 42.828372 
L 473.965714 41.446688 
L 470.674286 40.238669 
L 469.145092 39.537666 
L 467.382857 38.926648 
L 464.091429 37.870634 
L 460.8 36.781885 
L 457.508571 36.85332 
L 456.346074 36.242861 
L 454.217143 35.034269 
L 450.925714 34.527741 
L 447.634286 33.791854 
L 445.872071 32.948055 
L 444.342857 32.389031 
L 441.051429 31.431626 
L 437.76 30.355995 
L 436.735924 29.65325 
L 434.468571 28.657199 
L 431.177143 27.622561 
L 428.436213 26.358444 
L 427.885714 26.162011 
L 424.594286 26.075577 
L 421.302857 24.262033 
L 418.011429 24.340705 
L 414.72 23.212062 
L 414.487571 23.063639 
L 411.428571 21.937404 
L 408.137143 21.231432 
L 404.845714 20.24407 
L 404.150827 19.768833 
L 401.554286 18.762254 
L 398.262857 17.576471 
L 396.346453 16.474028 
L 394.971429 15.869867 
L 391.68 15.391803 
L 388.388571 13.481713 
L 385.097143 14.021781 
L 383.198794 13.179222 
L 381.805714 12.23184 
L 378.514286 11.497265 
L 375.222857 11.017955 
L 372.561034 9.884417 
L 371.931429 9.613308 
L 368.64 8.656726 
L 365.348571 7.731024 
L 363.354886 6.589611 
L 362.057143 6.024599 
L 358.765714 5.098776 
L 355.787236 3.294806 
L 355.474286 3.14344 
L 353.522932 3.294806 
L 352.182857 3.475393 
L 351.865369 3.294806 
L 348.891429 1.321955 
L 345.6 1.191814 
L 342.308571 0.612529 
L 341.152471 0 
L 339.073553 0 
L 342.308571 1.713987 
L 345.6 2.04175 
L 348.891429 2.814934 
L 349.614803 3.294806 
L 352.182857 4.755514 
L 355.474286 4.450087 
L 358.765714 6.021492 
L 361.418716 6.589611 
L 362.057143 6.898639 
L 365.348571 8.60323 
L 368.64 9.300995 
L 370.50335 9.884417 
L 371.931429 10.959394 
L 375.222857 11.894221 
L 378.514286 12.254615 
L 381.026398 13.179222 
L 381.805714 13.867315 
L 385.097143 15.017012 
L 388.388571 14.661586 
L 391.549445 16.474028 
L 391.68 16.613408 
L 394.971429 16.625472 
L 398.262857 18.427396 
L 401.554286 19.41218 
L 402.474297 19.768833 
L 404.845714 21.390658 
L 408.137143 21.942968 
L 411.428571 22.675829 
L 412.481913 23.063639 
L 414.72 24.492827 
L 418.011429 25.124733 
L 421.302857 25.411521 
L 422.955074 26.358444 
L 424.594286 27.543935 
L 427.885714 27.40776 
L 431.177143 28.579363 
L 434.468571 29.302698 
L 435.266548 29.65325 
L 437.76 31.364317 
L 441.051429 32.058354 
L 443.879737 32.948055 
L 444.342857 33.403466 
L 447.634286 34.745842 
L 450.925714 35.178955 
L 454.217143 36.165315 
L 454.35374 36.242861 
L 457.508571 37.899548 
L 460.8 37.830612 
L 464.091429 39.087825 
L 466.290973 39.537666 
L 467.382857 39.884462 
L 470.674286 41.228008 
L 473.965714 42.092122 
L 475.728772 42.832472 
L 477.257143 44.11842 
L 480.548571 44.883224 
L 483.84 45.52816 
L 485.703135 46.127277 
L 487.131429 47.177893 
L 490.422857 48.097172 
L 493.714286 48.301895 
L 496.109962 49.422083 
L 497.005714 50.1722 
L 500.297143 50.711626 
L 503.588571 51.396805 
L 506.88 52.545364 
L 507.335504 52.716888 
L 510.171429 54.482847 
L 513.462857 55.231323 
L 516.124304 56.011694 
L 516.754286 56.650488 
L 520.045714 58.051659 
L 523.337143 58.498521 
L 526.628571 59.289778 
L 526.664083 59.306499 
L 529.92 61.225997 
L 533.211429 61.454218 
L 536.502857 62.16721 
L 537.389331 62.601305 
L 539.794286 63.997597 
L 543.085714 64.465388 
L 546.377143 65.439679 
L 547.662242 65.89611 
L 549.668571 67.394327 
L 552.96 68.227264 
L 556.251429 68.748726 
L 557.573342 69.190916 
L 559.542857 70.777891 
L 562.834286 71.527423 
L 566.125714 71.861962 
L 567.423079 72.485721 
z
" clip-path="url(#p583c8b0faa)" style="fill: #f5f9fe; fill-opacity: 0.9"/>
    <path d="M 569.417143 72.948525 
L 572.708571 73.508032 
L 576 74.181384 
L 576 73.338891 
L 572.708571 72.607754 
L 572.096167 72.485721 
L 569.417143 71.528095 
L 566.125714 70.499193 
L 562.834286 70.268582 
L 560.407784 69.190916 
L 559.542857 68.724889 
L 556.251429 67.800586 
L 552.96 66.965419 
L 550.670249 65.89611 
L 549.668571 65.535347 
L 546.377143 64.307301 
L 543.089711 62.601305 
L 543.085714 62.599271 
L 539.794286 61.978402 
L 536.502857 60.074592 
L 533.211429 59.961675 
L 529.92 59.453198 
L 529.671164 59.306499 
L 526.628571 57.873854 
L 523.337143 57.450527 
L 520.045714 56.455919 
L 519.208597 56.011694 
L 516.754286 55.232575 
L 513.462857 54.226449 
L 510.336749 52.716888 
L 510.171429 52.628124 
L 506.88 51.385307 
L 503.588571 49.618848 
L 502.976353 49.422083 
L 500.297143 48.747864 
L 497.005714 47.05031 
L 493.714286 46.457789 
L 490.422857 46.451096 
L 489.647012 46.127277 
L 487.131429 44.707882 
L 483.84 44.259952 
L 480.548571 43.343333 
L 479.240185 42.832472 
L 477.257143 42.100247 
L 473.965714 40.801255 
L 471.10078 39.537666 
L 470.674286 39.294187 
L 467.382857 38.178345 
L 464.091429 36.653443 
L 462.74294 36.242861 
L 460.8 35.810216 
L 457.508571 35.250282 
L 454.217143 33.903223 
L 450.925714 33.876527 
L 447.880947 32.948055 
L 447.634286 32.78191 
L 444.342857 31.660708 
L 441.051429 30.804898 
L 438.225979 29.65325 
L 437.76 29.38744 
L 434.468571 28.0117 
L 431.177143 26.66576 
L 430.510804 26.358444 
L 427.885714 25.421739 
L 424.594286 24.527368 
L 421.302857 23.112544 
L 418.011429 23.556678 
L 416.643368 23.063639 
L 414.72 21.760033 
L 411.428571 21.19898 
L 408.137143 20.519896 
L 406.020068 19.768833 
L 404.845714 19.265154 
L 401.554286 18.112328 
L 398.262857 16.725546 
L 397.825637 16.474028 
L 394.971429 15.219941 
L 391.68 14.236262 
L 389.86446 13.179222 
L 388.388571 12.574008 
L 385.097143 12.879678 
L 381.805714 10.706917 
L 378.514286 10.739915 
L 375.222857 10.14169 
L 374.618718 9.884417 
L 371.931429 8.727266 
L 368.64 8.012458 
L 365.348571 6.858818 
L 364.878353 6.589611 
L 362.057143 5.361312 
L 358.765714 4.17606 
L 357.310703 3.294806 
L 355.474286 2.406581 
L 352.182857 2.144589 
L 349.111144 0 
L 348.891429 0 
L 348.161852 0 
L 345.6 0.341879 
L 344.035299 0 
L 342.308571 0 
L 341.152471 0 
L 342.308571 0.612529 
L 345.6 1.191814 
L 348.891429 1.321955 
L 351.865369 3.294806 
L 352.182857 3.475393 
L 353.522932 3.294806 
L 355.474286 3.14344 
L 355.787236 3.294806 
L 358.765714 5.098776 
L 362.057143 6.024599 
L 363.354886 6.589611 
L 365.348571 7.731024 
L 368.64 8.656726 
L 371.931429 9.613308 
L 372.561034 9.884417 
L 375.222857 11.017955 
L 378.514286 11.497265 
L 381.805714 12.23184 
L 383.198794 13.179222 
L 385.097143 14.021781 
L 388.388571 13.481713 
L 391.68 15.391803 
L 394.971429 15.869867 
L 396.346453 16.474028 
L 398.262857 17.576471 
L 401.554286 18.762254 
L 404.150827 19.768833 
L 404.845714 20.24407 
L 408.137143 21.231432 
L 411.428571 21.937404 
L 414.487571 23.063639 
L 414.72 23.212062 
L 418.011429 24.340705 
L 421.302857 24.262033 
L 424.594286 26.075577 
L 427.885714 26.162011 
L 428.436213 26.358444 
L 431.177143 27.622561 
L 434.468571 28.657199 
L 436.735924 29.65325 
L 437.76 30.355995 
L 441.051429 31.431626 
L 444.342857 32.389031 
L 445.872071 32.948055 
L 447.634286 33.791854 
L 450.925714 34.527741 
L 454.217143 35.034269 
L 456.346074 36.242861 
L 457.508571 36.85332 
L 460.8 36.781885 
L 464.091429 37.870634 
L 467.382857 38.926648 
L 469.145092 39.537666 
L 470.674286 40.238669 
L 473.965714 41.446688 
L 477.257143 42.828372 
L 477.268247 42.832472 
L 480.548571 44.113278 
L 483.84 44.894056 
L 487.131429 45.82053 
L 487.675073 46.127277 
L 490.422857 47.274134 
L 493.714286 47.379842 
L 497.005714 48.584693 
L 500.118248 49.422083 
L 500.297143 49.461302 
L 503.588571 50.507827 
L 506.88 51.965335 
L 508.875836 52.716888 
L 510.171429 53.523666 
L 513.462857 54.728886 
L 516.754286 55.709872 
L 517.705056 56.011694 
L 520.045714 57.253789 
L 523.337143 57.974524 
L 526.628571 58.581816 
L 528.167623 59.306499 
L 529.92 60.339598 
L 533.211429 60.707946 
L 536.502857 61.120901 
L 539.526018 62.601305 
L 539.794286 62.757058 
L 543.085714 63.531636 
L 546.377143 64.87349 
L 549.256369 65.89611 
L 549.668571 66.20392 
L 552.96 67.596342 
L 556.251429 68.274656 
L 558.990563 69.190916 
L 559.542857 69.635937 
L 562.834286 70.898003 
L 566.125714 71.180578 
L 568.8403 72.485721 
z
" clip-path="url(#p583c8b0faa)" style="fill: #eff6fc; fill-opacity: 0.9"/>
    <path d="M 572.708571 72.607754 
L 576 73.338891 
L 576 72.496398 
L 575.952444 72.485721 
L 572.708571 71.850657 
L 569.417143 69.913144 
L 566.125714 69.817809 
L 562.834286 69.639161 
L 561.825004 69.190916 
L 559.542857 67.961284 
L 556.251429 67.326516 
L 552.96 66.334496 
L 552.021267 65.89611 
L 549.668571 65.048765 
L 546.377143 63.741112 
L 544.180749 62.601305 
L 543.085714 62.044019 
L 539.794286 61.266062 
L 536.792967 59.306499 
L 536.502857 59.134182 
L 533.211429 59.195111 
L 529.92 57.562782 
L 526.628571 57.165892 
L 523.337143 56.926531 
L 520.712138 56.011694 
L 520.045714 55.629988 
L 516.754286 54.755277 
L 513.462857 53.724011 
L 511.377233 52.716888 
L 510.171429 52.069467 
L 506.88 50.805278 
L 504.398755 49.422083 
L 503.588571 48.921907 
L 500.297143 48.051812 
L 497.420278 46.127277 
L 497.005714 45.826242 
L 493.714286 45.569068 
L 490.422857 43.376263 
L 487.131429 43.595234 
L 483.84 43.625848 
L 481.246168 42.832472 
L 480.548571 42.360511 
L 477.257143 41.372122 
L 473.965714 40.155821 
L 472.564171 39.537666 
L 470.674286 38.458759 
L 467.382857 37.430042 
L 465.06119 36.242861 
L 464.091429 35.596941 
L 460.8 34.920035 
L 457.558208 32.948055 
L 457.508571 32.90838 
L 454.217143 32.756561 
L 453.336606 32.948055 
L 450.925714 33.225313 
L 450.016492 32.948055 
L 447.634286 31.343458 
L 444.342857 30.932385 
L 441.051429 30.17817 
L 439.763592 29.65325 
L 437.76 28.510336 
L 434.468571 27.366202 
L 432.17457 26.358444 
L 431.177143 25.648563 
L 427.885714 24.681467 
L 424.674463 23.063639 
L 424.594286 22.992521 
L 421.302857 22.123098 
L 418.011429 21.763874 
L 414.72 20.285556 
L 411.428571 20.460555 
L 408.137143 19.80836 
L 408.025726 19.768833 
L 404.845714 18.404931 
L 401.554286 17.462402 
L 399.30482 16.474028 
L 398.262857 15.719849 
L 394.971429 14.570014 
L 391.806089 13.179222 
L 391.68 13.065963 
L 388.388571 11.760138 
L 385.097143 10.92701 
L 383.33013 9.884417 
L 381.805714 9.33454 
L 379.236979 9.884417 
L 378.514286 9.982565 
L 378.004054 9.884417 
L 375.222857 8.361983 
L 371.931429 7.841225 
L 368.64 7.368189 
L 366.546332 6.589611 
L 365.348571 5.814948 
L 362.057143 4.698024 
L 358.83417 3.294806 
L 358.765714 3.230707 
L 355.474286 1.669723 
L 352.182857 0.80546 
L 351.029189 0 
L 349.111144 0 
L 352.182857 2.144589 
L 355.474286 2.406581 
L 357.310703 3.294806 
L 358.765714 4.17606 
L 362.057143 5.361312 
L 364.878353 6.589611 
L 365.348571 6.858818 
L 368.64 8.012458 
L 371.931429 8.727266 
L 374.618718 9.884417 
L 375.222857 10.14169 
L 378.514286 10.739915 
L 381.805714 10.706917 
L 385.097143 12.879678 
L 388.388571 12.574008 
L 389.86446 13.179222 
L 391.68 14.236262 
L 394.971429 15.219941 
L 397.825637 16.474028 
L 398.262857 16.725546 
L 401.554286 18.112328 
L 404.845714 19.265154 
L 406.020068 19.768833 
L 408.137143 20.519896 
L 411.428571 21.19898 
L 414.72 21.760033 
L 416.643368 23.063639 
L 418.011429 23.556678 
L 421.302857 23.112544 
L 424.594286 24.527368 
L 427.885714 25.421739 
L 430.510804 26.358444 
L 431.177143 26.66576 
L 434.468571 28.0117 
L 437.76 29.38744 
L 438.225979 29.65325 
L 441.051429 30.804898 
L 444.342857 31.660708 
L 447.634286 32.78191 
L 447.880947 32.948055 
L 450.925714 33.876527 
L 454.217143 33.903223 
L 457.508571 35.250282 
L 460.8 35.810216 
L 462.74294 36.242861 
L 464.091429 36.653443 
L 467.382857 38.178345 
L 470.674286 39.294187 
L 471.10078 39.537666 
L 473.965714 40.801255 
L 477.257143 42.100247 
L 479.240185 42.832472 
L 480.548571 43.343333 
L 483.84 44.259952 
L 487.131429 44.707882 
L 489.647012 46.127277 
L 490.422857 46.451096 
L 493.714286 46.457789 
L 497.005714 47.05031 
L 500.297143 48.747864 
L 502.976353 49.422083 
L 503.588571 49.618848 
L 506.88 51.385307 
L 510.171429 52.628124 
L 510.336749 52.716888 
L 513.462857 54.226449 
L 516.754286 55.232575 
L 519.208597 56.011694 
L 520.045714 56.455919 
L 523.337143 57.450527 
L 526.628571 57.873854 
L 529.671164 59.306499 
L 529.92 59.453198 
L 533.211429 59.961675 
L 536.502857 60.074592 
L 539.794286 61.978402 
L 543.085714 62.599271 
L 543.089711 62.601305 
L 546.377143 64.307301 
L 549.668571 65.535347 
L 550.670249 65.89611 
L 552.96 66.965419 
L 556.251429 67.800586 
L 559.542857 68.724889 
L 560.407784 69.190916 
L 562.834286 70.268582 
L 566.125714 70.499193 
L 569.417143 71.528095 
L 572.096167 72.485721 
z
M 345.6 0.341879 
L 348.161852 0 
L 345.6 0 
L 344.035299 0 
z
" clip-path="url(#p583c8b0faa)" style="fill: #eaf3fb; fill-opacity: 0.9"/>
    <path d="M 576 72.496398 
L 576 72.485721 
L 576 71.824742 
L 572.708571 71.116012 
L 569.99052 69.190916 
L 569.417143 68.773547 
L 566.125714 69.106866 
L 562.834286 68.317755 
L 559.542857 67.19768 
L 556.251429 66.852446 
L 553.392488 65.89611 
L 552.96 65.631106 
L 549.668571 64.562184 
L 546.377143 63.174923 
L 545.271787 62.601305 
L 543.085714 61.488767 
L 539.794286 60.553723 
L 537.884005 59.306499 
L 536.502857 58.486135 
L 533.211429 58.282603 
L 530.228834 56.011694 
L 529.92 55.797512 
L 528.964863 56.011694 
L 526.628571 56.45793 
L 523.337143 56.402534 
L 522.215679 56.011694 
L 520.045714 54.76881 
L 516.754286 54.27798 
L 513.462857 53.221574 
L 512.417717 52.716888 
L 510.171429 51.510809 
L 506.88 50.22525 
L 505.439239 49.422083 
L 503.588571 48.279553 
L 500.297143 47.35576 
L 498.460761 46.127277 
L 497.005714 45.070694 
L 493.714286 44.69897 
L 491.380393 42.832472 
L 490.422857 41.992996 
L 487.131429 42.414896 
L 485.301587 42.832472 
L 483.84 42.991744 
L 483.319281 42.832472 
L 480.548571 40.95794 
L 477.257143 40.643997 
L 474.05479 39.537666 
L 473.965714 39.453837 
L 470.674286 37.62333 
L 467.382857 36.681739 
L 466.524581 36.242861 
L 464.091429 34.622233 
L 460.8 34.029855 
L 459.021599 32.948055 
L 457.508571 31.738661 
L 454.217143 31.525088 
L 451.618409 29.65325 
L 450.925714 29.060797 
L 448.627196 29.65325 
L 447.634286 29.905006 
L 444.342857 30.204062 
L 441.633404 29.65325 
L 441.051429 29.321882 
L 437.76 27.633232 
L 434.468571 26.720703 
L 433.643946 26.358444 
L 431.177143 24.602789 
L 427.885714 23.941195 
L 426.143839 23.063639 
L 424.594286 21.68917 
L 421.302857 21.140764 
L 418.786705 19.768833 
L 418.011429 19.024017 
L 414.72 18.722834 
L 411.428571 18.958537 
L 408.137143 17.827361 
L 404.845714 17.544707 
L 401.554286 16.812476 
L 400.784003 16.474028 
L 398.262857 14.649208 
L 394.971429 13.920088 
L 393.285273 13.179222 
L 391.68 11.7373 
L 388.388571 10.946268 
L 385.963453 9.884417 
L 385.097143 9.060374 
L 381.805714 8.140787 
L 378.514286 7.082483 
L 376.990598 6.589611 
L 375.222857 6.19195 
L 374.232278 6.589611 
L 371.931429 6.955183 
L 368.64 6.723921 
L 368.278829 6.589611 
L 365.348571 4.694441 
L 362.057143 4.034737 
L 360.357637 3.294806 
L 358.765714 1.80421 
L 355.474286 0.932864 
L 352.97089 0 
L 352.182857 0 
L 351.029189 0 
L 352.182857 0.80546 
L 355.474286 1.669723 
L 358.765714 3.230707 
L 358.83417 3.294806 
L 362.057143 4.698024 
L 365.348571 5.814948 
L 366.546332 6.589611 
L 368.64 7.368189 
L 371.931429 7.841225 
L 375.222857 8.361983 
L 378.004054 9.884417 
L 378.514286 9.982565 
L 379.236979 9.884417 
L 381.805714 9.33454 
L 383.33013 9.884417 
L 385.097143 10.92701 
L 388.388571 11.760138 
L 391.68 13.065963 
L 391.806089 13.179222 
L 394.971429 14.570014 
L 398.262857 15.719849 
L 399.30482 16.474028 
L 401.554286 17.462402 
L 404.845714 18.404931 
L 408.025726 19.768833 
L 408.137143 19.80836 
L 411.428571 20.460555 
L 414.72 20.285556 
L 418.011429 21.763874 
L 421.302857 22.123098 
L 424.594286 22.992521 
L 424.674463 23.063639 
L 427.885714 24.681467 
L 431.177143 25.648563 
L 432.17457 26.358444 
L 434.468571 27.366202 
L 437.76 28.510336 
L 439.763592 29.65325 
L 441.051429 30.17817 
L 444.342857 30.932385 
L 447.634286 31.343458 
L 450.016492 32.948055 
L 450.925714 33.225313 
L 453.336606 32.948055 
L 454.217143 32.756561 
L 457.508571 32.90838 
L 457.558208 32.948055 
L 460.8 34.920035 
L 464.091429 35.596941 
L 465.06119 36.242861 
L 467.382857 37.430042 
L 470.674286 38.458759 
L 472.564171 39.537666 
L 473.965714 40.155821 
L 477.257143 41.372122 
L 480.548571 42.360511 
L 481.246168 42.832472 
L 483.84 43.625848 
L 487.131429 43.595234 
L 490.422857 43.376263 
L 493.714286 45.569068 
L 497.005714 45.826242 
L 497.420278 46.127277 
L 500.297143 48.051812 
L 503.588571 48.921907 
L 504.398755 49.422083 
L 506.88 50.805278 
L 510.171429 52.069467 
L 511.377233 52.716888 
L 513.462857 53.724011 
L 516.754286 54.755277 
L 520.045714 55.629988 
L 520.712138 56.011694 
L 523.337143 56.926531 
L 526.628571 57.165892 
L 529.92 57.562782 
L 533.211429 59.195111 
L 536.502857 59.134182 
L 536.792967 59.306499 
L 539.794286 61.266062 
L 543.085714 62.044019 
L 544.180749 62.601305 
L 546.377143 63.741112 
L 549.668571 65.048765 
L 552.021267 65.89611 
L 552.96 66.334496 
L 556.251429 67.326516 
L 559.542857 67.961284 
L 561.825004 69.190916 
L 562.834286 69.639161 
L 566.125714 69.817809 
L 569.417143 69.913144 
L 572.708571 71.850657 
L 575.952444 72.485721 
z
" clip-path="url(#p583c8b0faa)" style="fill: #e5eff9; fill-opacity: 0.9"/>
    <path d="M 572.708571 71.116012 
L 576 71.824742 
L 576 71.155279 
L 572.708571 70.381366 
L 571.027769 69.190916 
L 569.417143 68.018521 
L 566.125714 68.055876 
L 563.12845 65.89611 
L 562.834286 65.666138 
L 562.101736 65.89611 
L 559.542857 66.434075 
L 556.251429 66.378375 
L 554.809709 65.89611 
L 552.96 64.762716 
L 549.668571 64.075602 
L 546.377143 62.608735 
L 546.362825 62.601305 
L 543.085714 60.933516 
L 539.794286 59.841383 
L 538.975043 59.306499 
L 536.502857 57.838088 
L 533.211429 57.370095 
L 531.427315 56.011694 
L 529.92 54.966344 
L 526.628571 55.542507 
L 523.337143 54.89356 
L 520.045714 53.907631 
L 516.754286 53.800683 
L 513.462857 52.719137 
L 513.4582 52.716888 
L 510.171429 50.952152 
L 506.88 49.645221 
L 506.479723 49.422083 
L 503.588571 47.637199 
L 500.297143 46.659708 
L 499.501245 46.127277 
L 497.005714 44.315146 
L 493.714286 43.828871 
L 492.468374 42.832472 
L 490.422857 41.039158 
L 487.131429 41.086992 
L 484.898411 39.537666 
L 483.84 38.489859 
L 480.622021 39.537666 
L 480.548571 39.55537 
L 477.257143 39.915872 
L 476.162399 39.537666 
L 473.965714 37.470359 
L 470.674286 36.787902 
L 468.65971 36.242861 
L 467.382857 35.080098 
L 464.091429 33.647526 
L 460.8 33.139675 
L 460.484991 32.948055 
L 457.508571 30.568942 
L 454.217143 30.293614 
L 453.328103 29.65325 
L 450.925714 27.598519 
L 447.634286 27.725744 
L 444.719933 26.358444 
L 444.342857 26.106187 
L 443.871263 26.358444 
L 441.051429 27.281992 
L 437.76 26.756128 
L 436.087329 26.358444 
L 434.468571 24.769572 
L 431.177143 23.557016 
L 427.885714 23.200924 
L 427.613215 23.063639 
L 424.594286 20.385818 
L 421.302857 20.15843 
L 420.588328 19.768833 
L 418.011429 17.293178 
L 414.72 17.112503 
L 413.634811 16.474028 
L 411.428571 14.397881 
L 408.137143 14.948757 
L 406.219147 16.474028 
L 404.845714 16.684484 
L 403.733334 16.474028 
L 401.554286 14.582804 
L 398.262857 13.578567 
L 394.971429 13.270162 
L 394.764456 13.179222 
L 391.68 10.408636 
L 388.388571 10.132397 
L 387.822218 9.884417 
L 385.097143 7.292297 
L 381.805714 6.947034 
L 380.946002 6.589611 
L 378.514286 4.337589 
L 375.222857 3.953267 
L 373.367703 3.294806 
L 371.931429 2.074005 
L 369.681189 3.294806 
L 368.64 3.68187 
L 365.348571 3.573933 
L 362.057143 3.371449 
L 361.881104 3.294806 
L 358.765714 0.377713 
L 355.474286 0.196005 
L 354.948295 0 
L 352.97089 0 
L 355.474286 0.932864 
L 358.765714 1.80421 
L 360.357637 3.294806 
L 362.057143 4.034737 
L 365.348571 4.694441 
L 368.278829 6.589611 
L 368.64 6.723921 
L 371.931429 6.955183 
L 374.232278 6.589611 
L 375.222857 6.19195 
L 376.990598 6.589611 
L 378.514286 7.082483 
L 381.805714 8.140787 
L 385.097143 9.060374 
L 385.963453 9.884417 
L 388.388571 10.946268 
L 391.68 11.7373 
L 393.285273 13.179222 
L 394.971429 13.920088 
L 398.262857 14.649208 
L 400.784003 16.474028 
L 401.554286 16.812476 
L 404.845714 17.544707 
L 408.137143 17.827361 
L 411.428571 18.958537 
L 414.72 18.722834 
L 418.011429 19.024017 
L 418.786705 19.768833 
L 421.302857 21.140764 
L 424.594286 21.68917 
L 426.143839 23.063639 
L 427.885714 23.941195 
L 431.177143 24.602789 
L 433.643946 26.358444 
L 434.468571 26.720703 
L 437.76 27.633232 
L 441.051429 29.321882 
L 441.633404 29.65325 
L 444.342857 30.204062 
L 447.634286 29.905006 
L 448.627196 29.65325 
L 450.925714 29.060797 
L 451.618409 29.65325 
L 454.217143 31.525088 
L 457.508571 31.738661 
L 459.021599 32.948055 
L 460.8 34.029855 
L 464.091429 34.622233 
L 466.524581 36.242861 
L 467.382857 36.681739 
L 470.674286 37.62333 
L 473.965714 39.453837 
L 474.05479 39.537666 
L 477.257143 40.643997 
L 480.548571 40.95794 
L 483.319281 42.832472 
L 483.84 42.991744 
L 485.301587 42.832472 
L 487.131429 42.414896 
L 490.422857 41.992996 
L 491.380393 42.832472 
L 493.714286 44.69897 
L 497.005714 45.070694 
L 498.460761 46.127277 
L 500.297143 47.35576 
L 503.588571 48.279553 
L 505.439239 49.422083 
L 506.88 50.22525 
L 510.171429 51.510809 
L 512.417717 52.716888 
L 513.462857 53.221574 
L 516.754286 54.27798 
L 520.045714 54.76881 
L 522.215679 56.011694 
L 523.337143 56.402534 
L 526.628571 56.45793 
L 528.964863 56.011694 
L 529.92 55.797512 
L 530.228834 56.011694 
L 533.211429 58.282603 
L 536.502857 58.486135 
L 537.884005 59.306499 
L 539.794286 60.553723 
L 543.085714 61.488767 
L 545.271787 62.601305 
L 546.377143 63.174923 
L 549.668571 64.562184 
L 552.96 65.631106 
L 553.392488 65.89611 
L 556.251429 66.852446 
L 559.542857 67.19768 
L 562.834286 68.317755 
L 566.125714 69.106866 
L 569.417143 68.773547 
L 569.99052 69.190916 
z
" clip-path="url(#p583c8b0faa)" style="fill: #dfecf7; fill-opacity: 0.9"/>
    <path d="M 572.708571 70.381366 
L 576 71.155279 
L 576 70.485816 
L 572.708571 69.646721 
L 572.065018 69.190916 
L 569.417143 67.263495 
L 566.125714 67.004887 
L 564.586984 65.89611 
L 562.834286 64.525882 
L 559.542857 65.350685 
L 556.43334 65.89611 
L 556.251429 65.904305 
L 556.226929 65.89611 
L 552.96 63.894325 
L 549.668571 63.589021 
L 547.453864 62.601305 
L 546.377143 61.458868 
L 543.085714 60.378264 
L 540.170521 59.306499 
L 539.794286 58.894286 
L 536.502857 57.190042 
L 533.211429 56.457586 
L 532.625797 56.011694 
L 529.92 54.135177 
L 526.628571 54.273368 
L 524.297571 52.716888 
L 523.337143 51.923992 
L 521.464183 52.716888 
L 520.045714 53.046453 
L 516.754286 53.323385 
L 514.908748 52.716888 
L 513.462857 51.534372 
L 510.171429 50.393494 
L 507.740278 49.422083 
L 506.88 48.458281 
L 503.588571 46.994845 
L 500.785082 46.127277 
L 500.297143 45.586816 
L 497.005714 43.559598 
L 493.714286 42.958773 
L 493.556356 42.832472 
L 490.422857 40.08532 
L 487.131429 39.759089 
L 486.812296 39.537666 
L 483.84 36.59515 
L 482.33787 36.242861 
L 480.548571 34.532285 
L 478.103084 32.948055 
L 477.257143 32.242915 
L 473.965714 31.097112 
L 470.674286 29.783287 
L 470.475916 29.65325 
L 467.382857 28.354306 
L 464.091429 27.669633 
L 461.79239 26.358444 
L 460.8 25.974155 
L 457.508571 26.311873 
L 457.297023 26.358444 
L 454.217143 26.593472 
L 453.574466 26.358444 
L 450.925714 24.627722 
L 447.634286 24.04552 
L 445.429171 23.063639 
L 444.342857 22.278293 
L 441.051429 21.01472 
L 438.618872 19.768833 
L 437.76 19.077185 
L 434.468571 17.578752 
L 432.247389 16.474028 
L 431.177143 15.667798 
L 427.885714 14.06125 
L 425.990837 13.179222 
L 424.594286 12.260117 
L 421.302857 10.575545 
L 419.837108 9.884417 
L 418.011429 8.774583 
L 414.72 7.020173 
L 413.869465 6.589611 
L 411.428571 5.189568 
L 408.137143 3.302754 
L 408.122915 3.294806 
L 404.845714 1.754909 
L 401.554286 0.409471 
L 400.873294 0 
L 398.262857 0 
L 394.971429 0 
L 391.68 0 
L 388.388571 0 
L 385.097143 0 
L 381.805714 0 
L 378.514286 0 
L 375.222857 0 
L 371.931429 0 
L 368.64 0 
L 365.348571 0 
L 362.057143 0 
L 358.765714 0 
L 355.474286 0 
L 354.948295 0 
L 355.474286 0.196005 
L 358.765714 0.377713 
L 361.881104 3.294806 
L 362.057143 3.371449 
L 365.348571 3.573933 
L 368.64 3.68187 
L 369.681189 3.294806 
L 371.931429 2.074005 
L 373.367703 3.294806 
L 375.222857 3.953267 
L 378.514286 4.337589 
L 380.946002 6.589611 
L 381.805714 6.947034 
L 385.097143 7.292297 
L 387.822218 9.884417 
L 388.388571 10.132397 
L 391.68 10.408636 
L 394.764456 13.179222 
L 394.971429 13.270162 
L 398.262857 13.578567 
L 401.554286 14.582804 
L 403.733334 16.474028 
L 404.845714 16.684484 
L 406.219147 16.474028 
L 408.137143 14.948757 
L 411.428571 14.397881 
L 413.634811 16.474028 
L 414.72 17.112503 
L 418.011429 17.293178 
L 420.588328 19.768833 
L 421.302857 20.15843 
L 424.594286 20.385818 
L 427.613215 23.063639 
L 427.885714 23.200924 
L 431.177143 23.557016 
L 434.468571 24.769572 
L 436.087329 26.358444 
L 437.76 26.756128 
L 441.051429 27.281992 
L 443.871263 26.358444 
L 444.342857 26.106187 
L 444.719933 26.358444 
L 447.634286 27.725744 
L 450.925714 27.598519 
L 453.328103 29.65325 
L 454.217143 30.293614 
L 457.508571 30.568942 
L 460.484991 32.948055 
L 460.8 33.139675 
L 464.091429 33.647526 
L 467.382857 35.080098 
L 468.65971 36.242861 
L 470.674286 36.787902 
L 473.965714 37.470359 
L 476.162399 39.537666 
L 477.257143 39.915872 
L 480.548571 39.55537 
L 480.622021 39.537666 
L 483.84 38.489859 
L 484.898411 39.537666 
L 487.131429 41.086992 
L 490.422857 41.039158 
L 492.468374 42.832472 
L 493.714286 43.828871 
L 497.005714 44.315146 
L 499.501245 46.127277 
L 500.297143 46.659708 
L 503.588571 47.637199 
L 506.479723 49.422083 
L 506.88 49.645221 
L 510.171429 50.952152 
L 513.4582 52.716888 
L 513.462857 52.719137 
L 516.754286 53.800683 
L 520.045714 53.907631 
L 523.337143 54.89356 
L 526.628571 55.542507 
L 529.92 54.966344 
L 531.427315 56.011694 
L 533.211429 57.370095 
L 536.502857 57.838088 
L 538.975043 59.306499 
L 539.794286 59.841383 
L 543.085714 60.933516 
L 546.362825 62.601305 
L 546.377143 62.608735 
L 549.668571 64.075602 
L 552.96 64.762716 
L 554.809709 65.89611 
L 556.251429 66.378375 
L 559.542857 66.434075 
L 562.101736 65.89611 
L 562.834286 65.666138 
L 563.12845 65.89611 
L 566.125714 68.055876 
L 569.417143 68.018521 
L 571.027769 69.190916 
z
M 444.342857 0.753753 
L 447.634286 1.823364 
L 450.925714 1.972511 
L 454.217143 2.010934 
L 457.508571 0.756828 
L 457.829572 0 
L 457.508571 0 
L 454.217143 0 
L 450.925714 0 
L 447.634286 0 
L 444.342857 0 
L 442.061996 0 
z
" clip-path="url(#p583c8b0faa)" style="fill: #dae8f6; fill-opacity: 0.9"/>
    <path d="M 572.708571 69.646721 
L 576 70.485816 
L 576 69.816353 
L 573.65947 69.190916 
L 572.708571 68.02899 
L 569.417143 66.508468 
L 566.125714 65.953897 
L 566.045519 65.89611 
L 562.834286 63.385625 
L 559.542857 63.504874 
L 557.765885 62.601305 
L 556.251429 61.20129 
L 554.73607 62.601305 
L 552.96 63.025935 
L 549.668571 63.102439 
L 548.544902 62.601305 
L 546.377143 60.30124 
L 543.085714 59.823013 
L 541.680801 59.306499 
L 539.794286 57.239586 
L 536.502857 56.541995 
L 534.47723 56.011694 
L 533.211429 54.528828 
L 529.92 53.304009 
L 526.628571 53.004229 
L 526.198247 52.716888 
L 523.337143 50.354861 
L 520.045714 51.147707 
L 517.757615 52.716888 
L 516.754286 52.846088 
L 516.361139 52.716888 
L 513.462857 50.346539 
L 510.171429 49.834837 
L 509.13843 49.422083 
L 506.88 46.891879 
L 503.588571 46.352491 
L 502.860807 46.127277 
L 500.297143 43.287662 
L 497.531248 42.832472 
L 498.988108 39.537666 
L 500.297143 38.824321 
L 503.588571 37.927751 
L 506.88 39.275327 
L 510.171429 39.336223 
L 510.612897 39.537666 
L 513.462857 41.315963 
L 516.754286 42.322868 
L 518.079006 42.832472 
L 520.045714 43.810456 
L 523.337143 44.831917 
L 526.628571 46.068637 
L 526.750038 46.127277 
L 529.92 47.334554 
L 533.211429 48.321633 
L 535.957566 49.422083 
L 536.502857 49.627345 
L 539.794286 50.402697 
L 543.085714 50.774051 
L 546.377143 51.417024 
L 549.668571 51.982481 
L 552.96 52.005313 
L 556.251429 52.252429 
L 558.37923 52.716888 
L 559.542857 53.154002 
L 562.834286 54.384981 
L 566.125714 55.495101 
L 567.472732 56.011694 
L 569.417143 56.82996 
L 572.708571 58.185143 
L 575.907766 59.306499 
L 576 59.344875 
L 576 59.306499 
L 576 56.011694 
L 576 52.716888 
L 576 49.491499 
L 575.757894 49.422083 
L 576 49.382064 
L 576 46.127277 
L 576 42.832472 
L 576 39.537666 
L 576 36.242861 
L 576 34.984379 
L 572.708571 34.342646 
L 570.25615 32.948055 
L 569.417143 32.42641 
L 566.125714 31.260416 
L 562.963916 29.65325 
L 562.834286 29.588108 
L 559.542857 28.148124 
L 556.251429 27.182577 
L 554.998967 26.358444 
L 552.96 25.66849 
L 549.668571 25.568782 
L 547.187862 26.358444 
L 546.377143 26.551379 
L 546.013094 26.358444 
L 543.085714 24.475173 
L 539.794286 24.335962 
L 537.33493 23.063639 
L 536.502857 22.456717 
L 533.211429 21.4217 
L 529.92 20.00201 
L 529.651088 19.768833 
L 526.628571 18.459624 
L 523.337143 17.360446 
L 522.007857 16.474028 
L 520.045714 15.650153 
L 516.754286 15.090137 
L 513.95416 13.179222 
L 513.462857 12.982016 
L 510.741396 13.179222 
L 510.171429 13.415201 
L 506.88 13.896664 
L 504.175902 13.179222 
L 503.588571 12.87473 
L 500.297143 11.400521 
L 497.005714 10.491827 
L 496.194337 9.884417 
L 493.714286 8.789237 
L 490.422857 7.705225 
L 488.58284 6.589611 
L 487.131429 5.961336 
L 483.84 4.795348 
L 480.771569 3.294806 
L 480.548571 3.19902 
L 477.257143 1.826264 
L 473.965714 0.794364 
L 472.91007 0 
L 470.674286 0 
L 467.382857 0 
L 464.091429 0 
L 460.8 0 
L 457.829572 0 
L 457.508571 0.756828 
L 454.217143 2.010934 
L 450.925714 1.972511 
L 447.634286 1.823364 
L 444.342857 0.753753 
L 442.061996 0 
L 441.051429 0 
L 437.76 0 
L 434.468571 0 
L 431.177143 0 
L 427.885714 0 
L 424.594286 0 
L 421.302857 0 
L 418.011429 0 
L 414.72 0 
L 411.428571 0 
L 408.137143 0 
L 404.845714 0 
L 401.554286 0 
L 400.873294 0 
L 401.554286 0.409471 
L 404.845714 1.754909 
L 408.122915 3.294806 
L 408.137143 3.302754 
L 411.428571 5.189568 
L 413.869465 6.589611 
L 414.72 7.020173 
L 418.011429 8.774583 
L 419.837108 9.884417 
L 421.302857 10.575545 
L 424.594286 12.260117 
L 425.990837 13.179222 
L 427.885714 14.06125 
L 431.177143 15.667798 
L 432.247389 16.474028 
L 434.468571 17.578752 
L 437.76 19.077185 
L 438.618872 19.768833 
L 441.051429 21.01472 
L 444.342857 22.278293 
L 445.429171 23.063639 
L 447.634286 24.04552 
L 450.925714 24.627722 
L 453.574466 26.358444 
L 454.217143 26.593472 
L 457.297023 26.358444 
L 457.508571 26.311873 
L 460.8 25.974155 
L 461.79239 26.358444 
L 464.091429 27.669633 
L 467.382857 28.354306 
L 470.475916 29.65325 
L 470.674286 29.783287 
L 473.965714 31.097112 
L 477.257143 32.242915 
L 478.103084 32.948055 
L 480.548571 34.532285 
L 482.33787 36.242861 
L 483.84 36.59515 
L 486.812296 39.537666 
L 487.131429 39.759089 
L 490.422857 40.08532 
L 493.556356 42.832472 
L 493.714286 42.958773 
L 497.005714 43.559598 
L 500.297143 45.586816 
L 500.785082 46.127277 
L 503.588571 46.994845 
L 506.88 48.458281 
L 507.740278 49.422083 
L 510.171429 50.393494 
L 513.462857 51.534372 
L 514.908748 52.716888 
L 516.754286 53.323385 
L 520.045714 53.046453 
L 521.464183 52.716888 
L 523.337143 51.923992 
L 524.297571 52.716888 
L 526.628571 54.273368 
L 529.92 54.135177 
L 532.625797 56.011694 
L 533.211429 56.457586 
L 536.502857 57.190042 
L 539.794286 58.894286 
L 540.170521 59.306499 
L 543.085714 60.378264 
L 546.377143 61.458868 
L 547.453864 62.601305 
L 549.668571 63.589021 
L 552.96 63.894325 
L 556.226929 65.89611 
L 556.251429 65.904305 
L 556.43334 65.89611 
L 559.542857 65.350685 
L 562.834286 64.525882 
L 564.586984 65.89611 
L 566.125714 67.004887 
L 569.417143 67.263495 
L 572.065018 69.190916 
z
" clip-path="url(#p583c8b0faa)" style="fill: #d6e5f4; fill-opacity: 0.9"/>
    <path d="M 576 69.816353 
L 576 69.190916 
L 576 65.89611 
L 576 62.601305 
L 576 59.344875 
L 575.907766 59.306499 
L 572.708571 58.185143 
L 569.417143 56.82996 
L 567.472732 56.011694 
L 566.125714 55.495101 
L 562.834286 54.384981 
L 559.542857 53.154002 
L 558.37923 52.716888 
L 556.251429 52.252429 
L 552.96 52.005313 
L 549.668571 51.982481 
L 546.377143 51.417024 
L 543.085714 50.774051 
L 539.794286 50.402697 
L 536.502857 49.627345 
L 535.957566 49.422083 
L 533.211429 48.321633 
L 529.92 47.334554 
L 526.750038 46.127277 
L 526.628571 46.068637 
L 523.337143 44.831917 
L 520.045714 43.810456 
L 518.079006 42.832472 
L 516.754286 42.322868 
L 513.462857 41.315963 
L 510.612897 39.537666 
L 510.171429 39.336223 
L 506.88 39.275327 
L 503.588571 37.927751 
L 500.297143 38.824321 
L 498.988108 39.537666 
L 497.531248 42.832472 
L 500.297143 43.287662 
L 502.860807 46.127277 
L 503.588571 46.352491 
L 506.88 46.891879 
L 509.13843 49.422083 
L 510.171429 49.834837 
L 513.462857 50.346539 
L 516.361139 52.716888 
L 516.754286 52.846088 
L 517.757615 52.716888 
L 520.045714 51.147707 
L 523.337143 50.354861 
L 526.198247 52.716888 
L 526.628571 53.004229 
L 529.92 53.304009 
L 533.211429 54.528828 
L 534.47723 56.011694 
L 536.502857 56.541995 
L 539.794286 57.239586 
L 541.680801 59.306499 
L 543.085714 59.823013 
L 546.377143 60.30124 
L 548.544902 62.601305 
L 549.668571 63.102439 
L 552.96 63.025935 
L 554.73607 62.601305 
L 556.251429 61.20129 
L 557.765885 62.601305 
L 559.542857 63.504874 
L 562.834286 63.385625 
L 566.045519 65.89611 
L 566.125714 65.953897 
L 569.417143 66.508468 
L 572.708571 68.02899 
L 573.65947 69.190916 
z
M 549.63594 62.601305 
L 549.668571 62.180833 
L 549.850562 62.601305 
L 549.668571 62.615858 
z
M 576 49.491499 
L 576 49.422083 
L 576 49.382064 
L 575.757894 49.422083 
z
M 572.708571 34.342646 
L 576 34.984379 
L 576 32.948055 
L 576 29.65325 
L 576 28.404726 
L 572.708571 28.446258 
L 569.417143 27.030294 
L 566.125714 27.157516 
L 562.834286 26.934624 
L 561.328529 26.358444 
L 559.542857 25.136117 
L 556.251429 24.074626 
L 553.273641 23.063639 
L 552.96 22.812585 
L 549.668571 21.089717 
L 546.377143 20.324873 
L 545.373019 19.768833 
L 543.085714 18.227955 
L 539.794286 17.920644 
L 537.565158 16.474028 
L 536.502857 15.580945 
L 533.211429 15.738823 
L 529.92 15.671987 
L 526.628571 14.974569 
L 523.337143 14.073585 
L 520.06748 13.179222 
L 520.045714 13.163275 
L 516.754286 11.110366 
L 513.462857 10.42875 
L 512.205046 9.884417 
L 510.171429 8.30961 
L 506.88 7.63628 
L 504.507579 6.589611 
L 503.588571 5.818893 
L 500.297143 4.992606 
L 497.005714 4.061335 
L 493.748489 3.294806 
L 493.714286 3.287942 
L 493.676158 3.294806 
L 490.422857 3.62405 
L 487.131429 3.389215 
L 486.906387 3.294806 
L 483.84 1.143165 
L 480.548571 0.56229 
L 479.145325 0 
L 477.257143 0 
L 473.965714 0 
L 472.91007 0 
L 473.965714 0.794364 
L 477.257143 1.826264 
L 480.548571 3.19902 
L 480.771569 3.294806 
L 483.84 4.795348 
L 487.131429 5.961336 
L 488.58284 6.589611 
L 490.422857 7.705225 
L 493.714286 8.789237 
L 496.194337 9.884417 
L 497.005714 10.491827 
L 500.297143 11.400521 
L 503.588571 12.87473 
L 504.175902 13.179222 
L 506.88 13.896664 
L 510.171429 13.415201 
L 510.741396 13.179222 
L 513.462857 12.982016 
L 513.95416 13.179222 
L 516.754286 15.090137 
L 520.045714 15.650153 
L 522.007857 16.474028 
L 523.337143 17.360446 
L 526.628571 18.459624 
L 529.651088 19.768833 
L 529.92 20.00201 
L 533.211429 21.4217 
L 536.502857 22.456717 
L 537.33493 23.063639 
L 539.794286 24.335962 
L 543.085714 24.475173 
L 546.013094 26.358444 
L 546.377143 26.551379 
L 547.187862 26.358444 
L 549.668571 25.568782 
L 552.96 25.66849 
L 554.998967 26.358444 
L 556.251429 27.182577 
L 559.542857 28.148124 
L 562.834286 29.588108 
L 562.963916 29.65325 
L 566.125714 31.260416 
L 569.417143 32.42641 
L 570.25615 32.948055 
z
M 569.417143 7.007329 
L 572.708571 6.761042 
L 573.298621 6.589611 
L 574.923993 3.294806 
L 576 2.775296 
L 576 0 
L 572.708571 0 
L 569.417143 0 
L 566.125714 0 
L 562.834286 0 
L 559.542857 0 
L 556.251429 0 
L 553.468394 0 
L 556.251429 1.045778 
L 559.542857 1.952776 
L 561.088646 3.294806 
L 562.834286 4.040041 
L 566.125714 4.816713 
L 568.528701 6.589611 
z
" clip-path="url(#p583c8b0faa)" style="fill: #d0e2f2; fill-opacity: 0.9"/>
    <path d="M 549.668571 62.615858 
L 549.850562 62.601305 
L 549.668571 62.180833 
L 549.63594 62.601305 
z
M 562.834286 26.934624 
L 566.125714 27.157516 
L 569.417143 27.030294 
L 572.708571 28.446258 
L 576 28.404726 
L 576 26.358444 
L 576 23.063639 
L 576 19.768833 
L 576 16.826426 
L 575.387498 16.474028 
L 572.708571 15.300809 
L 569.417143 14.030137 
L 567.864141 13.179222 
L 566.125714 12.41789 
L 562.834286 10.320641 
L 562.573546 9.884417 
L 562.834286 9.431227 
L 566.125714 9.049504 
L 569.115786 9.884417 
L 569.417143 10.783744 
L 572.708571 12.381416 
L 576 13.020372 
L 576 9.884417 
L 576 6.589611 
L 576 3.294806 
L 576 2.775296 
L 574.923993 3.294806 
L 573.298621 6.589611 
L 572.708571 6.761042 
L 569.417143 7.007329 
L 568.528701 6.589611 
L 566.125714 4.816713 
L 562.834286 4.040041 
L 561.088646 3.294806 
L 559.542857 1.952776 
L 556.251429 1.045778 
L 553.468394 0 
L 552.96 0 
L 549.668571 0 
L 546.377143 0 
L 543.085714 0 
L 539.794286 0 
L 536.502857 0 
L 534.597048 0 
L 533.211429 1.910144 
L 529.92 0.685608 
L 528.726951 0 
L 526.628571 0 
L 523.337143 0 
L 520.045714 0 
L 516.754286 0 
L 513.462857 0 
L 510.171429 0 
L 506.88 0 
L 503.588571 0 
L 500.297143 0 
L 497.005714 0 
L 493.714286 0 
L 490.422857 0 
L 487.131429 0 
L 483.84 0 
L 480.548571 0 
L 479.145325 0 
L 480.548571 0.56229 
L 483.84 1.143165 
L 486.906387 3.294806 
L 487.131429 3.389215 
L 490.422857 3.62405 
L 493.676158 3.294806 
L 493.714286 3.287942 
L 493.748489 3.294806 
L 497.005714 4.061335 
L 500.297143 4.992606 
L 503.588571 5.818893 
L 504.507579 6.589611 
L 506.88 7.63628 
L 510.171429 8.30961 
L 512.205046 9.884417 
L 513.462857 10.42875 
L 516.754286 11.110366 
L 520.045714 13.163275 
L 520.06748 13.179222 
L 523.337143 14.073585 
L 526.628571 14.974569 
L 529.92 15.671987 
L 533.211429 15.738823 
L 536.502857 15.580945 
L 537.565158 16.474028 
L 539.794286 17.920644 
L 543.085714 18.227955 
L 545.373019 19.768833 
L 546.377143 20.324873 
L 549.668571 21.089717 
L 552.96 22.812585 
L 553.273641 23.063639 
L 556.251429 24.074626 
L 559.542857 25.136117 
L 561.328529 26.358444 
z
M 545.682169 6.589611 
L 546.377143 6.532695 
L 547.212821 6.589611 
L 546.377143 6.748838 
z
M 559.428402 6.589611 
L 559.542857 6.553088 
L 559.758205 6.589611 
L 559.542857 6.709512 
z
M 536.277348 3.294806 
L 536.502857 3.171847 
L 539.794286 2.942394 
L 541.12415 3.294806 
L 539.794286 4.41804 
L 536.502857 3.405653 
z
" clip-path="url(#p583c8b0faa)" style="fill: #cbdef1; fill-opacity: 0.9"/>
    <path d="M 576 16.826426 
L 576 16.474028 
L 576 13.179222 
L 576 13.020372 
L 572.708571 12.381416 
L 569.417143 10.783744 
L 569.115786 9.884417 
L 566.125714 9.049504 
L 562.834286 9.431227 
L 562.573546 9.884417 
L 562.834286 10.320641 
L 566.125714 12.41789 
L 567.864141 13.179222 
L 569.417143 14.030137 
L 572.708571 15.300809 
L 575.387498 16.474028 
z
M 546.377143 6.748838 
L 547.212821 6.589611 
L 546.377143 6.532695 
L 545.682169 6.589611 
z
M 559.542857 6.709512 
L 559.758205 6.589611 
L 559.542857 6.553088 
L 559.428402 6.589611 
z
M 536.502857 3.405653 
L 539.794286 4.41804 
L 541.12415 3.294806 
L 539.794286 2.942394 
L 536.502857 3.171847 
L 536.277348 3.294806 
z
M 529.92 0.685608 
L 533.211429 1.910144 
L 534.597048 0 
L 533.211429 0 
L 529.92 0 
L 528.726951 0 
z
" clip-path="url(#p583c8b0faa)" style="fill: #c6dbef; fill-opacity: 0.9"/>
    <path clip-path="url(#p583c8b0faa)" style="fill: #bed8ec; fill-opacity: 0.9"/>
    <path clip-path="url(#p583c8b0faa)" style="fill: #b5d4e9; fill-opacity: 0.9"/>
    <path clip-path="url(#p583c8b0faa)" style="fill: #add0e6; fill-opacity: 0.9"/>
    <path clip-path="url(#p583c8b0faa)" style="fill: #a5cde3; fill-opacity: 0.9"/>
    <path clip-path="url(#p583c8b0faa)" style="fill: #9cc9e1; fill-opacity: 0.9"/>
    <path clip-path="url(#p583c8b0faa)" style="fill: #91c3de; fill-opacity: 0.9"/>
    <path clip-path="url(#p583c8b0faa)" style="fill: #85bcdc; fill-opacity: 0.9"/>
    <path clip-path="url(#p583c8b0faa)" style="fill: #7cb7da; fill-opacity: 0.9"/>
    <path clip-path="url(#p583c8b0faa)" style="fill: #71b1d7; fill-opacity: 0.9"/>
    <path clip-path="url(#p583c8b0faa)" style="fill: #66abd4; fill-opacity: 0.9"/>
    <path clip-path="url(#p583c8b0faa)" style="fill: #5da5d1; fill-opacity: 0.9"/>
    <path clip-path="url(#p583c8b0faa)" style="fill: #56a0ce; fill-opacity: 0.9"/>
    <path clip-path="url(#p583c8b0faa)" style="fill: #4d99ca; fill-opacity: 0.9"/>
    <path clip-path="url(#p583c8b0faa)" style="fill: #4493c7; fill-opacity: 0.9"/>
    <path clip-path="url(#p583c8b0faa)" style="fill: #3c8cc3; fill-opacity: 0.9"/>
    <path clip-path="url(#p583c8b0faa)" style="fill: #3686c0; fill-opacity: 0.9"/>
    <path clip-path="url(#p583c8b0faa)" style="fill: #2f7fbc; fill-opacity: 0.9"/>
    <path clip-path="url(#p583c8b0faa)" style="fill: #2777b8; fill-opacity: 0.9"/>
    <path clip-path="url(#p583c8b0faa)" style="fill: #2070b4; fill-opacity: 0.9"/>
    <path clip-path="url(#p583c8b0faa)" style="fill: #1c6ab0; fill-opacity: 0.9"/>
    <path clip-path="url(#p583c8b0faa)" style="fill: #1663aa; fill-opacity: 0.9"/>
    <path clip-path="url(#p583c8b0faa)" style="fill: #115ca5; fill-opacity: 0.9"/>
    <path clip-path="url(#p583c8b0faa)" style="fill: #0c56a0; fill-opacity: 0.9"/>
    <path clip-path="url(#p583c8b0faa)" style="fill: #084f99; fill-opacity: 0.9"/>
    <path clip-path="url(#p583c8b0faa)" style="fill: #08488e; fill-opacity: 0.9"/>
    <path clip-path="url(#p583c8b0faa)" style="fill: #084184; fill-opacity: 0.9"/>
    <path clip-path="url(#p583c8b0faa)" style="fill: #083a7a; fill-opacity: 0.9"/>
    <path clip-path="url(#p583c8b0faa)" style="fill: #083370; fill-opacity: 0.9"/>
    <path clip-path="url(#p583c8b0faa)" style="fill: #08306b; fill-opacity: 0.9"/>
   </g>
   <g id="QuadContourSet_2">
    <path d="M 339.073553 0 
L 342.308571 1.713987 
L 345.6 2.04175 
L 348.891429 2.814934 
L 349.614803 3.294806 
L 352.182857 4.755514 
L 355.474286 4.450087 
L 358.765714 6.021492 
L 361.418716 6.589611 
L 362.057143 6.898639 
L 365.348571 8.60323 
L 368.64 9.300995 
L 370.50335 9.884417 
L 371.931429 10.959394 
L 375.222857 11.894221 
L 378.514286 12.254615 
L 381.026398 13.179222 
L 381.805714 13.867315 
L 385.097143 15.017012 
L 388.388571 14.661586 
L 391.549445 16.474028 
L 391.68 16.613408 
L 394.971429 16.625472 
L 398.262857 18.427396 
L 401.554286 19.41218 
L 402.474297 19.768833 
L 404.845714 21.390658 
L 408.137143 21.942968 
L 411.428571 22.675829 
L 412.481913 23.063639 
L 414.72 24.492827 
L 418.011429 25.124733 
L 421.302857 25.411521 
L 422.955074 26.358444 
L 424.594286 27.543935 
L 427.885714 27.40776 
L 431.177143 28.579363 
L 434.468571 29.302698 
L 435.266548 29.65325 
L 437.76 31.364317 
L 441.051429 32.058354 
L 443.879737 32.948055 
L 444.342857 33.403466 
L 447.634286 34.745842 
L 450.925714 35.178955 
L 454.217143 36.165315 
L 454.35374 36.242861 
L 457.508571 37.899548 
L 460.8 37.830612 
L 464.091429 39.087825 
L 466.290973 39.537666 
L 467.382857 39.884462 
L 468.618325 40.388774 
M 486.377645 46.623429 
L 487.131429 47.177893 
L 490.422857 48.097172 
L 493.714286 48.301895 
L 496.109962 49.422083 
L 497.005714 50.1722 
L 500.297143 50.711626 
L 503.588571 51.396805 
L 506.88 52.545364 
L 507.335504 52.716888 
L 510.171429 54.482847 
L 513.462857 55.231323 
L 516.124304 56.011694 
L 516.754286 56.650488 
L 520.045714 58.051659 
L 523.337143 58.498521 
L 526.628571 59.289778 
L 526.664083 59.306499 
L 529.92 61.225997 
L 533.211429 61.454218 
L 536.502857 62.16721 
L 537.389331 62.601305 
L 539.794286 63.997597 
L 543.085714 64.465388 
L 546.377143 65.439679 
L 547.662242 65.89611 
L 549.668571 67.394327 
L 552.96 68.227264 
L 556.251429 68.748726 
L 557.573342 69.190916 
L 559.542857 70.777891 
L 562.834286 71.527423 
L 566.125714 71.861962 
L 567.423079 72.485721 
L 569.417143 74.085567 
L 572.708571 74.408311 
L 576 75.023878 
" clip-path="url(#p583c8b0faa)" style="fill: none"/>
    <path d="M 341.152471 0 
L 342.308571 0.612529 
L 345.6 1.191814 
L 348.891429 1.321955 
L 351.865369 3.294806 
L 352.182857 3.475393 
L 353.522932 3.294806 
L 355.474286 3.14344 
L 355.787236 3.294806 
L 358.765714 5.098776 
L 362.057143 6.024599 
L 363.354886 6.589611 
L 365.348571 7.731024 
L 368.64 8.656726 
L 371.931429 9.613308 
L 372.561034 9.884417 
L 375.222857 11.017955 
L 378.514286 11.497265 
L 381.805714 12.23184 
L 383.198794 13.179222 
L 385.097143 14.021781 
L 388.388571 13.481713 
L 391.68 15.391803 
L 394.971429 15.869867 
L 396.346453 16.474028 
L 398.262857 17.576471 
L 401.554286 18.762254 
L 404.150827 19.768833 
L 404.845714 20.24407 
L 408.137143 21.231432 
L 411.428571 21.937404 
L 414.487571 23.063639 
L 414.72 23.212062 
L 418.011429 24.340705 
L 421.302857 24.262033 
L 424.594286 26.075577 
L 427.885714 26.162011 
L 428.436213 26.358444 
L 431.177143 27.622561 
L 434.468571 28.657199 
L 436.735924 29.65325 
L 437.76 30.355995 
L 438.601253 30.630915 
M 456.731809 36.445421 
L 457.508571 36.85332 
L 460.8 36.781885 
L 464.091429 37.870634 
L 467.382857 38.926648 
L 469.145092 39.537666 
L 470.674286 40.238669 
L 473.965714 41.446688 
L 477.257143 42.828372 
L 477.268247 42.832472 
L 480.548571 44.113278 
L 483.84 44.894056 
L 487.131429 45.82053 
L 487.675073 46.127277 
L 490.422857 47.274134 
L 493.714286 47.379842 
L 497.005714 48.584693 
L 500.118248 49.422083 
L 500.297143 49.461302 
L 503.588571 50.507827 
L 506.88 51.965335 
L 508.875836 52.716888 
L 510.171429 53.523666 
L 513.462857 54.728886 
L 516.754286 55.709872 
L 517.705056 56.011694 
L 520.045714 57.253789 
L 523.337143 57.974524 
L 526.628571 58.581816 
L 528.167623 59.306499 
L 529.92 60.339598 
L 533.211429 60.707946 
L 536.502857 61.120901 
L 539.526018 62.601305 
L 539.794286 62.757058 
L 543.085714 63.531636 
L 546.377143 64.87349 
L 549.256369 65.89611 
L 549.668571 66.20392 
L 552.96 67.596342 
L 556.251429 68.274656 
L 558.990563 69.190916 
L 559.542857 69.635937 
L 562.834286 70.898003 
L 566.125714 71.180578 
L 568.8403 72.485721 
L 569.417143 72.948525 
L 572.708571 73.508032 
L 576 74.181384 
" clip-path="url(#p583c8b0faa)" style="fill: none"/>
    <path d="M 344.035299 0 
L 345.6 0.341879 
L 348.161852 0 
M 349.111144 0 
L 352.182857 2.144589 
L 355.474286 2.406581 
L 357.310703 3.294806 
L 358.765714 4.17606 
L 362.057143 5.361312 
L 364.878353 6.589611 
L 365.348571 6.858818 
L 368.64 8.012458 
L 371.931429 8.727266 
L 374.618718 9.884417 
L 375.222857 10.14169 
L 378.514286 10.739915 
L 381.805714 10.706917 
L 385.097143 12.879678 
L 388.388571 12.574008 
L 389.86446 13.179222 
L 391.68 14.236262 
L 394.971429 15.219941 
L 397.825637 16.474028 
L 398.262857 16.725546 
L 401.554286 18.112328 
L 404.845714 19.265154 
L 406.020068 19.768833 
L 408.137143 20.519896 
L 411.428571 21.19898 
L 414.72 21.760033 
L 416.643368 23.063639 
L 418.011429 23.556678 
L 421.302857 23.112544 
L 424.594286 24.527368 
L 427.885714 25.421739 
L 430.510804 26.358444 
L 431.177143 26.66576 
L 434.468571 28.0117 
L 437.76 29.38744 
L 438.225979 29.65325 
L 441.051429 30.804898 
L 444.342857 31.660708 
L 447.634286 32.78191 
L 447.880947 32.948055 
L 450.925714 33.876527 
L 454.217143 33.903223 
L 457.508571 35.250282 
L 460.8 35.810216 
L 462.74294 36.242861 
L 464.091429 36.653443 
L 467.382857 38.178345 
L 470.674286 39.294187 
L 471.10078 39.537666 
L 473.965714 40.801255 
L 477.257143 42.100247 
L 479.240185 42.832472 
L 480.548571 43.343333 
L 483.84 44.259952 
L 487.131429 44.707882 
L 489.647012 46.127277 
L 490.422857 46.451096 
L 493.714286 46.457789 
L 497.005714 47.05031 
L 500.297143 48.747864 
L 501.516242 49.054648 
M 519.297051 56.058633 
L 520.045714 56.455919 
L 523.337143 57.450527 
L 526.628571 57.873854 
L 529.671164 59.306499 
L 529.92 59.453198 
L 533.211429 59.961675 
L 536.502857 60.074592 
L 539.794286 61.978402 
L 543.085714 62.599271 
L 543.089711 62.601305 
L 546.377143 64.307301 
L 549.668571 65.535347 
L 550.670249 65.89611 
L 552.96 66.965419 
L 556.251429 67.800586 
L 559.542857 68.724889 
L 560.407784 69.190916 
L 562.834286 70.268582 
L 566.125714 70.499193 
L 569.417143 71.528095 
L 572.096167 72.485721 
L 572.708571 72.607754 
L 576 73.338891 
" clip-path="url(#p583c8b0faa)" style="fill: none"/>
    <path d="M 351.029189 0 
L 352.182857 0.80546 
L 355.474286 1.669723 
L 358.765714 3.230707 
L 358.83417 3.294806 
L 362.057143 4.698024 
L 365.348571 5.814948 
L 366.546332 6.589611 
L 368.64 7.368189 
L 371.931429 7.841225 
L 375.222857 8.361983 
L 378.004054 9.884417 
L 378.514286 9.982565 
L 379.236979 9.884417 
L 381.805714 9.33454 
L 383.33013 9.884417 
L 385.097143 10.92701 
L 388.388571 11.760138 
L 391.68 13.065963 
L 391.806089 13.179222 
L 394.971429 14.570014 
L 398.262857 15.719849 
L 399.30482 16.474028 
L 401.554286 17.462402 
L 404.845714 18.404931 
L 408.025726 19.768833 
L 408.137143 19.80836 
L 411.428571 20.460555 
L 414.72 20.285556 
L 418.011429 21.763874 
L 421.302857 22.123098 
L 424.594286 22.992521 
L 424.674463 23.063639 
L 427.885714 24.681467 
L 431.177143 25.648563 
L 432.17457 26.358444 
L 434.468571 27.366202 
L 437.76 28.510336 
L 439.763592 29.65325 
L 441.051429 30.17817 
L 444.342857 30.932385 
L 447.634286 31.343458 
L 450.016492 32.948055 
L 450.925714 33.225313 
L 453.336606 32.948055 
L 454.217143 32.756561 
L 457.508571 32.90838 
L 457.558208 32.948055 
L 460.8 34.920035 
L 464.091429 35.596941 
L 465.06119 36.242861 
L 467.382857 37.430042 
L 470.674286 38.458759 
L 472.564171 39.537666 
L 473.965714 40.155821 
L 477.257143 41.372122 
L 480.548571 42.360511 
L 481.246168 42.832472 
L 483.84 43.625848 
L 487.131429 43.595234 
L 490.422857 43.376263 
L 493.714286 45.569068 
L 497.005714 45.826242 
L 497.420278 46.127277 
L 500.297143 48.051812 
L 503.588571 48.921907 
L 504.398755 49.422083 
L 506.88 50.805278 
L 510.171429 52.069467 
L 511.377233 52.716888 
L 513.462857 53.724011 
L 516.754286 54.755277 
L 520.045714 55.629988 
L 520.712138 56.011694 
L 523.337143 56.926531 
L 526.628571 57.165892 
L 529.92 57.562782 
L 533.211429 59.195111 
L 536.502857 59.134182 
L 536.792967 59.306499 
L 539.794286 61.266062 
L 543.085714 62.044019 
L 543.223968 62.114379 
M 561.09332 68.796681 
L 561.825004 69.190916 
L 562.834286 69.639161 
L 566.125714 69.817809 
L 569.417143 69.913144 
L 572.708571 71.850657 
L 575.952444 72.485721 
L 576 72.496398 
" clip-path="url(#p583c8b0faa)" style="fill: none"/>
    <path d="M 352.97089 0 
L 355.474286 0.932864 
L 358.765714 1.80421 
L 360.357637 3.294806 
L 362.057143 4.034737 
L 365.348571 4.694441 
L 368.278829 6.589611 
L 368.64 6.723921 
L 371.931429 6.955183 
L 374.232278 6.589611 
L 375.222857 6.19195 
L 376.990598 6.589611 
L 377.124859 6.633041 
M 394.515534 13.719776 
L 394.971429 13.920088 
L 398.262857 14.649208 
L 400.784003 16.474028 
L 401.554286 16.812476 
L 404.845714 17.544707 
L 408.137143 17.827361 
L 411.428571 18.958537 
L 414.72 18.722834 
L 418.011429 19.024017 
L 418.786705 19.768833 
L 421.302857 21.140764 
L 424.594286 21.68917 
L 426.143839 23.063639 
L 427.885714 23.941195 
L 431.177143 24.602789 
L 433.643946 26.358444 
L 434.468571 26.720703 
L 437.76 27.633232 
L 441.051429 29.321882 
L 441.633404 29.65325 
L 444.342857 30.204062 
L 447.634286 29.905006 
L 448.627196 29.65325 
L 450.925714 29.060797 
L 451.618409 29.65325 
L 454.217143 31.525088 
L 457.508571 31.738661 
L 459.021599 32.948055 
L 460.8 34.029855 
L 464.091429 34.622233 
L 466.524581 36.242861 
L 467.382857 36.681739 
L 470.674286 37.62333 
L 473.965714 39.453837 
L 474.05479 39.537666 
L 477.257143 40.643997 
L 480.548571 40.95794 
L 483.319281 42.832472 
L 483.84 42.991744 
L 485.301587 42.832472 
L 487.131429 42.414896 
L 490.422857 41.992996 
L 491.380393 42.832472 
L 493.714286 44.69897 
L 497.005714 45.070694 
L 498.460761 46.127277 
L 500.297143 47.35576 
L 503.588571 48.279553 
L 505.439239 49.422083 
L 506.88 50.22525 
L 510.171429 51.510809 
L 512.417717 52.716888 
L 513.462857 53.221574 
L 516.754286 54.27798 
L 520.045714 54.76881 
L 522.215679 56.011694 
L 523.337143 56.402534 
L 526.628571 56.45793 
L 528.964863 56.011694 
L 529.92 55.797512 
L 530.228834 56.011694 
L 533.211429 58.282603 
L 536.502857 58.486135 
L 537.884005 59.306499 
L 539.794286 60.553723 
L 543.085714 61.488767 
L 545.271787 62.601305 
L 546.377143 63.174923 
L 549.668571 64.562184 
L 552.96 65.631106 
L 553.392488 65.89611 
L 556.251429 66.852446 
L 559.542857 67.19768 
L 562.834286 68.317755 
L 566.125714 69.106866 
L 569.417143 68.773547 
L 569.99052 69.190916 
L 572.708571 71.116012 
L 576 71.824742 
" clip-path="url(#p583c8b0faa)" style="fill: none"/>
    <path d="M 354.948295 0 
L 355.474286 0.196005 
L 358.765714 0.377713 
L 361.881104 3.294806 
L 362.057143 3.371449 
L 365.348571 3.573933 
L 368.64 3.68187 
L 369.681189 3.294806 
L 371.931429 2.074005 
L 373.367703 3.294806 
L 375.222857 3.953267 
L 378.514286 4.337589 
L 380.946002 6.589611 
L 381.805714 6.947034 
L 385.097143 7.292297 
L 387.822218 9.884417 
L 388.388571 10.132397 
L 391.68 10.408636 
L 394.764456 13.179222 
L 394.971429 13.270162 
L 398.262857 13.578567 
L 401.554286 14.582804 
L 403.733334 16.474028 
L 404.845714 16.684484 
L 406.219147 16.474028 
L 408.137143 14.948757 
L 411.428571 14.397881 
L 413.634811 16.474028 
L 414.72 17.112503 
L 418.011429 17.293178 
L 420.588328 19.768833 
L 421.302857 20.15843 
L 424.594286 20.385818 
L 427.613215 23.063639 
L 427.885714 23.200924 
L 431.177143 23.557016 
L 434.468571 24.769572 
L 436.087329 26.358444 
L 437.76 26.756128 
L 441.051429 27.281992 
L 443.871263 26.358444 
L 444.342857 26.106187 
L 444.719933 26.358444 
L 447.634286 27.725744 
L 450.925714 27.598519 
L 453.328103 29.65325 
L 454.217143 30.293614 
L 457.508571 30.568942 
L 460.484991 32.948055 
L 460.8 33.139675 
L 464.091429 33.647526 
L 467.382857 35.080098 
L 468.65971 36.242861 
L 470.674286 36.787902 
L 473.965714 37.470359 
L 476.162399 39.537666 
L 477.257143 39.915872 
L 480.548571 39.55537 
L 480.622021 39.537666 
L 483.84 38.489859 
L 484.898411 39.537666 
L 487.131429 41.086992 
L 488.531207 41.066649 
M 505.342839 48.720215 
L 506.479723 49.422083 
L 506.88 49.645221 
L 510.171429 50.952152 
L 513.4582 52.716888 
L 513.462857 52.719137 
L 516.754286 53.800683 
L 520.045714 53.907631 
L 523.337143 54.89356 
L 526.628571 55.542507 
L 529.92 54.966344 
L 531.427315 56.011694 
L 533.211429 57.370095 
L 536.502857 57.838088 
L 538.975043 59.306499 
L 539.794286 59.841383 
L 543.085714 60.933516 
L 546.362825 62.601305 
L 546.377143 62.608735 
L 549.668571 64.075602 
L 552.96 64.762716 
L 554.809709 65.89611 
L 556.251429 66.378375 
L 559.542857 66.434075 
L 562.101736 65.89611 
L 562.834286 65.666138 
L 563.12845 65.89611 
L 566.125714 68.055876 
L 569.417143 68.018521 
L 571.027769 69.190916 
L 572.708571 70.381366 
L 576 71.155279 
" clip-path="url(#p583c8b0faa)" style="fill: none"/>
    <path d="M 400.873294 0 
L 401.554286 0.409471 
L 404.845714 1.754909 
L 408.122915 3.294806 
L 408.137143 3.302754 
L 411.428571 5.189568 
L 413.869465 6.589611 
L 414.72 7.020173 
L 418.011429 8.774583 
L 419.837108 9.884417 
L 421.302857 10.575545 
L 423.906674 11.908194 
M 440.697779 20.833591 
L 441.051429 21.01472 
L 444.342857 22.278293 
L 445.429171 23.063639 
L 447.634286 24.04552 
L 450.925714 24.627722 
L 453.574466 26.358444 
L 454.217143 26.593472 
L 457.297023 26.358444 
L 457.508571 26.311873 
L 460.8 25.974155 
L 461.79239 26.358444 
L 464.091429 27.669633 
L 467.382857 28.354306 
L 470.475916 29.65325 
L 470.674286 29.783287 
L 473.965714 31.097112 
L 477.257143 32.242915 
L 478.103084 32.948055 
L 480.548571 34.532285 
L 482.33787 36.242861 
L 483.84 36.59515 
L 486.812296 39.537666 
L 487.131429 39.759089 
L 490.422857 40.08532 
L 493.556356 42.832472 
L 493.714286 42.958773 
L 497.005714 43.559598 
L 500.297143 45.586816 
L 500.785082 46.127277 
L 503.588571 46.994845 
L 506.88 48.458281 
L 507.740278 49.422083 
L 510.171429 50.393494 
L 513.462857 51.534372 
L 514.908748 52.716888 
L 516.754286 53.323385 
L 520.045714 53.046453 
L 521.464183 52.716888 
L 523.337143 51.923992 
L 524.297571 52.716888 
L 526.628571 54.273368 
L 529.92 54.135177 
L 532.625797 56.011694 
L 533.211429 56.457586 
L 536.502857 57.190042 
L 539.794286 58.894286 
L 540.170521 59.306499 
L 543.085714 60.378264 
L 546.377143 61.458868 
L 547.453864 62.601305 
L 549.668571 63.589021 
L 552.96 63.894325 
L 556.226929 65.89611 
L 556.251429 65.904305 
L 556.43334 65.89611 
L 559.542857 65.350685 
L 562.834286 64.525882 
L 564.586984 65.89611 
L 566.125714 67.004887 
L 569.417143 67.263495 
L 572.065018 69.190916 
L 572.708571 69.646721 
L 576 70.485816 
" clip-path="url(#p583c8b0faa)" style="fill: none"/>
    <path d="M 576 59.344875 
L 575.907766 59.306499 
L 574.991481 58.98533 
M 557.110794 52.440012 
L 556.251429 52.252429 
L 552.96 52.005313 
L 549.668571 51.982481 
L 546.377143 51.417024 
L 543.085714 50.774051 
L 539.794286 50.402697 
L 536.502857 49.627345 
L 535.957566 49.422083 
L 533.211429 48.321633 
L 529.92 47.334554 
L 526.750038 46.127277 
L 526.628571 46.068637 
L 523.337143 44.831917 
L 520.045714 43.810456 
L 518.079006 42.832472 
L 516.754286 42.322868 
L 513.462857 41.315963 
L 510.612897 39.537666 
L 510.171429 39.336223 
L 506.88 39.275327 
L 503.588571 37.927751 
L 500.297143 38.824321 
L 498.988108 39.537666 
L 497.531248 42.832472 
L 500.297143 43.287662 
L 502.860807 46.127277 
L 503.588571 46.352491 
L 506.88 46.891879 
L 509.13843 49.422083 
L 510.171429 49.834837 
L 513.462857 50.346539 
L 516.361139 52.716888 
L 516.754286 52.846088 
L 517.757615 52.716888 
L 520.045714 51.147707 
L 523.337143 50.354861 
L 526.198247 52.716888 
L 526.628571 53.004229 
L 529.92 53.304009 
L 533.211429 54.528828 
L 534.47723 56.011694 
L 536.502857 56.541995 
L 539.794286 57.239586 
L 541.680801 59.306499 
L 543.085714 59.823013 
L 546.377143 60.30124 
L 548.544902 62.601305 
L 549.668571 63.102439 
L 552.96 63.025935 
L 554.73607 62.601305 
L 556.251429 61.20129 
L 557.765885 62.601305 
L 559.542857 63.504874 
L 562.834286 63.385625 
L 566.045519 65.89611 
L 566.125714 65.953897 
L 569.417143 66.508468 
L 572.708571 68.02899 
L 573.65947 69.190916 
L 576 69.816353 
M 576 49.382064 
L 575.757894 49.422083 
L 576 49.491499 
M 472.91007 0 
L 473.965714 0.794364 
L 475.055615 1.13606 
M 492.613748 8.426782 
L 493.714286 8.789237 
L 496.194337 9.884417 
L 497.005714 10.491827 
L 500.297143 11.400521 
L 503.588571 12.87473 
L 504.175902 13.179222 
L 506.88 13.896664 
L 510.171429 13.415201 
L 510.741396 13.179222 
L 513.462857 12.982016 
L 513.95416 13.179222 
L 516.754286 15.090137 
L 520.045714 15.650153 
L 522.007857 16.474028 
L 523.337143 17.360446 
L 526.628571 18.459624 
L 529.651088 19.768833 
L 529.92 20.00201 
L 533.211429 21.4217 
L 536.502857 22.456717 
L 537.33493 23.063639 
L 539.794286 24.335962 
L 543.085714 24.475173 
L 546.013094 26.358444 
L 546.377143 26.551379 
L 547.187862 26.358444 
L 549.668571 25.568782 
L 552.96 25.66849 
L 554.998967 26.358444 
L 556.251429 27.182577 
L 559.542857 28.148124 
L 562.834286 29.588108 
L 562.963916 29.65325 
L 566.125714 31.260416 
L 569.417143 32.42641 
L 570.25615 32.948055 
L 572.708571 34.342646 
L 576 34.984379 
" clip-path="url(#p583c8b0faa)" style="fill: none"/>
    <path d="M 479.145325 0 
L 480.548571 0.56229 
L 483.84 1.143165 
L 486.906387 3.294806 
L 487.131429 3.389215 
L 490.422857 3.62405 
L 493.676158 3.294806 
L 493.714286 3.287942 
L 493.748489 3.294806 
L 497.005714 4.061335 
L 500.297143 4.992606 
L 503.588571 5.818893 
L 503.733443 5.940388 
M 520.930146 13.41519 
L 523.337143 14.073585 
L 526.628571 14.974569 
L 529.92 15.671987 
L 533.211429 15.738823 
L 536.502857 15.580945 
L 537.565158 16.474028 
L 539.794286 17.920644 
L 543.085714 18.227955 
L 545.373019 19.768833 
L 546.377143 20.324873 
L 549.668571 21.089717 
L 552.96 22.812585 
L 553.273641 23.063639 
L 556.251429 24.074626 
L 559.542857 25.136117 
L 561.328529 26.358444 
L 562.834286 26.934624 
L 566.125714 27.157516 
L 569.417143 27.030294 
L 572.708571 28.446258 
L 576 28.404726 
M 563.923403 4.297037 
L 562.834286 4.040041 
L 561.088646 3.294806 
L 559.542857 1.952776 
L 556.251429 1.045778 
L 553.468394 0 
M 549.668571 62.615858 
L 549.850562 62.601305 
L 549.668571 62.180833 
L 549.63594 62.601305 
L 549.668571 62.615858 
z
" clip-path="url(#p583c8b0faa)" style="fill: none"/>
    <path d="M 564.3153 9.259467 
L 562.834286 9.431227 
L 562.573546 9.884417 
L 562.834286 10.320641 
L 566.125714 12.41789 
L 567.864141 13.179222 
L 569.417143 14.030137 
L 572.708571 15.300809 
L 575.387498 16.474028 
L 576 16.826426 
M 528.726951 0 
L 529.92 0.685608 
L 533.211429 1.910144 
L 534.597048 0 
M 546.377143 6.748838 
L 547.212821 6.589611 
L 546.377143 6.532695 
L 545.682169 6.589611 
L 546.377143 6.748838 
z
M 559.542857 6.709512 
L 559.758205 6.589611 
L 559.542857 6.553088 
L 559.428402 6.589611 
L 559.542857 6.709512 
z
M 536.502857 3.405653 
L 539.794286 4.41804 
L 541.12415 3.294806 
L 539.794286 2.942394 
L 536.502857 3.171847 
L 536.277348 3.294806 
L 536.502857 3.405653 
z
" clip-path="url(#p583c8b0faa)" style="fill: none"/>
    <path clip-path="url(#p583c8b0faa)" style="fill: none"/>
    <path clip-path="url(#p583c8b0faa)" style="fill: none"/>
    <path clip-path="url(#p583c8b0faa)" style="fill: none"/>
    <path clip-path="url(#p583c8b0faa)" style="fill: none"/>
    <path clip-path="url(#p583c8b0faa)" style="fill: none"/>
    <path clip-path="url(#p583c8b0faa)" style="fill: none"/>
    <path clip-path="url(#p583c8b0faa)" style="fill: none"/>
    <path clip-path="url(#p583c8b0faa)" style="fill: none"/>
    <path clip-path="url(#p583c8b0faa)" style="fill: none"/>
    <path clip-path="url(#p583c8b0faa)" style="fill: none"/>
    <path clip-path="url(#p583c8b0faa)" style="fill: none"/>
    <path clip-path="url(#p583c8b0faa)" style="fill: none"/>
    <path clip-path="url(#p583c8b0faa)" style="fill: none"/>
    <path clip-path="url(#p583c8b0faa)" style="fill: none"/>
    <path clip-path="url(#p583c8b0faa)" style="fill: none"/>
    <path clip-path="url(#p583c8b0faa)" style="fill: none"/>
    <path clip-path="url(#p583c8b0faa)" style="fill: none"/>
    <path clip-path="url(#p583c8b0faa)" style="fill: none"/>
    <path clip-path="url(#p583c8b0faa)" style="fill: none"/>
    <path clip-path="url(#p583c8b0faa)" style="fill: none"/>
    <path clip-path="url(#p583c8b0faa)" style="fill: none"/>
    <path clip-path="url(#p583c8b0faa)" style="fill: none"/>
    <path clip-path="url(#p583c8b0faa)" style="fill: none"/>
    <path clip-path="url(#p583c8b0faa)" style="fill: none"/>
    <path clip-path="url(#p583c8b0faa)" style="fill: none"/>
    <path clip-path="url(#p583c8b0faa)" style="fill: none"/>
    <path clip-path="url(#p583c8b0faa)" style="fill: none"/>
    <path clip-path="url(#p583c8b0faa)" style="fill: none"/>
    <path clip-path="url(#p583c8b0faa)" style="fill: none"/>
   </g>
   <g id="text_1">
    <g clip-path="url(#p583c8b0faa)">
     <!-- 0 -->
     <g style="opacity: 0" transform="translate(472.531943 45.910115) rotate(-339.827709) scale(0.12 -0.12)">
      <defs>
       <path id="DejaVuSans-30" d="M 2034 4250 
Q 1547 4250 1301 3770 
Q 1056 3291 1056 2328 
Q 1056 1369 1301 889 
Q 1547 409 2034 409 
Q 2525 409 2770 889 
Q 3016 1369 3016 2328 
Q 3016 3291 2770 3770 
Q 2525 4250 2034 4250 
z
M 2034 4750 
Q 2819 4750 3233 4129 
Q 3647 3509 3647 2328 
Q 3647 1150 3233 529 
Q 2819 -91 2034 -91 
Q 1250 -91 836 529 
Q 422 1150 422 2328 
Q 422 3509 836 4129 
Q 1250 4750 2034 4750 
z
" transform="scale(0.015625)"/>
      </defs>
      <use xlink:href="#DejaVuSans-30"/>
     </g>
    </g>
   </g>
   <g id="text_2">
    <g clip-path="url(#p583c8b0faa)">
     <!-- 1 -->
     <g style="opacity: 0" transform="translate(443.045036 35.907622) rotate(-343.813028) scale(0.12 -0.12)">
      <defs>
       <path id="DejaVuSans-31" d="M 794 531 
L 1825 531 
L 1825 4091 
L 703 3866 
L 703 4441 
L 1819 4666 
L 2450 4666 
L 2450 531 
L 3481 531 
L 3481 0 
L 794 0 
L 794 531 
z
" transform="scale(0.015625)"/>
      </defs>
      <use xlink:href="#DejaVuSans-31"/>
     </g>
    </g>
   </g>
   <g id="text_3">
    <g clip-path="url(#p583c8b0faa)">
     <!-- 2 -->
     <g style="opacity: 0" transform="translate(505.532243 54.283542) rotate(-337.12217) scale(0.12 -0.12)">
      <defs>
       <path id="DejaVuSans-32" d="M 1228 531 
L 3431 531 
L 3431 0 
L 469 0 
L 469 531 
Q 828 903 1448 1529 
Q 2069 2156 2228 2338 
Q 2531 2678 2651 2914 
Q 2772 3150 2772 3378 
Q 2772 3750 2511 3984 
Q 2250 4219 1831 4219 
Q 1534 4219 1204 4116 
Q 875 4013 500 3803 
L 500 4441 
Q 881 4594 1212 4672 
Q 1544 4750 1819 4750 
Q 2544 4750 2975 4387 
Q 3406 4025 3406 3419 
Q 3406 3131 3298 2873 
Q 3191 2616 2906 2266 
Q 2828 2175 2409 1742 
Q 1991 1309 1228 531 
z
" transform="scale(0.015625)"/>
      </defs>
      <use xlink:href="#DejaVuSans-32"/>
     </g>
    </g>
   </g>
   <g id="text_4">
    <g clip-path="url(#p583c8b0faa)">
     <!-- 3 -->
     <g style="opacity: 0" transform="translate(547.326338 67.765688) rotate(-340.775102) scale(0.12 -0.12)">
      <defs>
       <path id="DejaVuSans-33" d="M 2597 2516 
Q 3050 2419 3304 2112 
Q 3559 1806 3559 1356 
Q 3559 666 3084 287 
Q 2609 -91 1734 -91 
Q 1441 -91 1130 -33 
Q 819 25 488 141 
L 488 750 
Q 750 597 1062 519 
Q 1375 441 1716 441 
Q 2309 441 2620 675 
Q 2931 909 2931 1356 
Q 2931 1769 2642 2001 
Q 2353 2234 1838 2234 
L 1294 2234 
L 1294 2753 
L 1863 2753 
Q 2328 2753 2575 2939 
Q 2822 3125 2822 3475 
Q 2822 3834 2567 4026 
Q 2313 4219 1838 4219 
Q 1578 4219 1281 4162 
Q 984 4106 628 3988 
L 628 4550 
Q 988 4650 1302 4700 
Q 1616 4750 1894 4750 
Q 2613 4750 3031 4423 
Q 3450 4097 3450 3541 
Q 3450 3153 3228 2886 
Q 3006 2619 2597 2516 
z
" transform="scale(0.015625)"/>
      </defs>
      <use xlink:href="#DejaVuSans-33"/>
     </g>
    </g>
   </g>
   <g id="text_5">
    <g clip-path="url(#p583c8b0faa)">
     <!-- 4 -->
     <g style="opacity: 0" transform="translate(381.224868 11.640405) rotate(-339.395369) scale(0.12 -0.12)">
      <defs>
       <path id="DejaVuSans-34" d="M 2419 4116 
L 825 1625 
L 2419 1625 
L 2419 4116 
z
M 2253 4666 
L 3047 4666 
L 3047 1625 
L 3713 1625 
L 3713 1100 
L 3047 1100 
L 3047 0 
L 2419 0 
L 2419 1100 
L 313 1100 
L 313 1709 
L 2253 4666 
z
" transform="scale(0.015625)"/>
      </defs>
      <use xlink:href="#DejaVuSans-34"/>
     </g>
    </g>
   </g>
   <g id="text_6">
    <g clip-path="url(#p583c8b0faa)">
     <!-- 5 -->
     <g style="opacity: 0" transform="translate(492.146121 45.701522) rotate(-334.984784) scale(0.12 -0.12)">
      <defs>
       <path id="DejaVuSans-35" d="M 691 4666 
L 3169 4666 
L 3169 4134 
L 1269 4134 
L 1269 2991 
Q 1406 3038 1543 3061 
Q 1681 3084 1819 3084 
Q 2600 3084 3056 2656 
Q 3513 2228 3513 1497 
Q 3513 744 3044 326 
Q 2575 -91 1722 -91 
Q 1428 -91 1123 -41 
Q 819 9 494 109 
L 494 744 
Q 775 591 1075 516 
Q 1375 441 1709 441 
Q 2250 441 2565 725 
Q 2881 1009 2881 1497 
Q 2881 1984 2565 2268 
Q 2250 2553 1709 2553 
Q 1456 2553 1204 2497 
Q 953 2441 691 2322 
L 691 4666 
z
" transform="scale(0.015625)"/>
      </defs>
      <use xlink:href="#DejaVuSans-35"/>
     </g>
    </g>
   </g>
   <g id="text_7">
    <g clip-path="url(#p583c8b0faa)">
     <!-- 6 -->
     <g style="opacity: 0" transform="translate(427.340677 17.683099) rotate(-332.904637) scale(0.12 -0.12)">
      <defs>
       <path id="DejaVuSans-36" d="M 2113 2584 
Q 1688 2584 1439 2293 
Q 1191 2003 1191 1497 
Q 1191 994 1439 701 
Q 1688 409 2113 409 
Q 2538 409 2786 701 
Q 3034 994 3034 1497 
Q 3034 2003 2786 2293 
Q 2538 2584 2113 2584 
z
M 3366 4563 
L 3366 3988 
Q 3128 4100 2886 4159 
Q 2644 4219 2406 4219 
Q 1781 4219 1451 3797 
Q 1122 3375 1075 2522 
Q 1259 2794 1537 2939 
Q 1816 3084 2150 3084 
Q 2853 3084 3261 2657 
Q 3669 2231 3669 1497 
Q 3669 778 3244 343 
Q 2819 -91 2113 -91 
Q 1303 -91 875 529 
Q 447 1150 447 2328 
Q 447 3434 972 4092 
Q 1497 4750 2381 4750 
Q 2619 4750 2861 4703 
Q 3103 4656 3366 4563 
z
" transform="scale(0.015625)"/>
      </defs>
      <use xlink:href="#DejaVuSans-36"/>
     </g>
    </g>
   </g>
   <g id="text_8">
    <g clip-path="url(#p583c8b0faa)">
     <!-- 6 -->
     <g style="opacity: 0" transform="translate(447.070005 5.239189) rotate(-359.334378) scale(0.12 -0.12)">
      <use xlink:href="#DejaVuSans-36"/>
     </g>
    </g>
   </g>
   <g id="text_9">
    <g clip-path="url(#p583c8b0faa)">
     <!-- 7 -->
     <g style="opacity: 0" transform="translate(561.388954 57.256006) rotate(-339.454827) scale(0.12 -0.12)">
      <defs>
       <path id="DejaVuSans-37" d="M 525 4666 
L 3525 4666 
L 3525 4397 
L 1831 0 
L 1172 0 
L 2766 4134 
L 525 4134 
L 525 4666 
z
" transform="scale(0.015625)"/>
      </defs>
      <use xlink:href="#DejaVuSans-37"/>
     </g>
    </g>
   </g>
   <g id="text_10">
    <g clip-path="url(#p583c8b0faa)">
     <!-- 7 -->
     <g style="opacity: 0" transform="translate(479.040171 6.376273) rotate(-337.292448) scale(0.12 -0.12)">
      <use xlink:href="#DejaVuSans-37"/>
     </g>
    </g>
   </g>
   <g id="text_11">
    <g clip-path="url(#p583c8b0faa)">
     <!-- 8 -->
     <g style="opacity: 0" transform="translate(507.475604 11.664884) rotate(-339.691634) scale(0.12 -0.12)">
      <defs>
       <path id="DejaVuSans-38" d="M 2034 2216 
Q 1584 2216 1326 1975 
Q 1069 1734 1069 1313 
Q 1069 891 1326 650 
Q 1584 409 2034 409 
Q 2484 409 2743 651 
Q 3003 894 3003 1313 
Q 3003 1734 2745 1975 
Q 2488 2216 2034 2216 
z
M 1403 2484 
Q 997 2584 770 2862 
Q 544 3141 544 3541 
Q 544 4100 942 4425 
Q 1341 4750 2034 4750 
Q 2731 4750 3128 4425 
Q 3525 4100 3525 3541 
Q 3525 3141 3298 2862 
Q 3072 2584 2669 2484 
Q 3125 2378 3379 2068 
Q 3634 1759 3634 1313 
Q 3634 634 3220 271 
Q 2806 -91 2034 -91 
Q 1263 -91 848 271 
Q 434 634 434 1313 
Q 434 1759 690 2068 
Q 947 2378 1403 2484 
z
M 1172 3481 
Q 1172 3119 1398 2916 
Q 1625 2713 2034 2713 
Q 2441 2713 2670 2916 
Q 2900 3119 2900 3481 
Q 2900 3844 2670 4047 
Q 2441 4250 2034 4250 
Q 1625 4250 1398 4047 
Q 1172 3844 1172 3481 
z
" transform="scale(0.015625)"/>
      </defs>
      <use xlink:href="#DejaVuSans-38"/>
     </g>
    </g>
   </g>
   <g id="text_12">
    <g clip-path="url(#p583c8b0faa)">
     <!-- 8 -->
     <g style="opacity: 0" transform="translate(570.505187 11.308874) rotate(-23.212276) scale(0.12 -0.12)">
      <use xlink:href="#DejaVuSans-38"/>
     </g>
    </g>
   </g>
   <g id="text_13">
    <g clip-path="url(#p583c8b0faa)">
     <!-- 9 -->
     <g style="opacity: 0" transform="translate(567.873385 13.850653) rotate(-335.964178) scale(0.12 -0.12)">
      <defs>
       <path id="DejaVuSans-39" d="M 703 97 
L 703 672 
Q 941 559 1184 500 
Q 1428 441 1663 441 
Q 2288 441 2617 861 
Q 2947 1281 2994 2138 
Q 2813 1869 2534 1725 
Q 2256 1581 1919 1581 
Q 1219 1581 811 2004 
Q 403 2428 403 3163 
Q 403 3881 828 4315 
Q 1253 4750 1959 4750 
Q 2769 4750 3195 4129 
Q 3622 3509 3622 2328 
Q 3622 1225 3098 567 
Q 2575 -91 1691 -91 
Q 1453 -91 1209 -44 
Q 966 3 703 97 
z
M 1959 2075 
Q 2384 2075 2632 2365 
Q 2881 2656 2881 3163 
Q 2881 3666 2632 3958 
Q 2384 4250 1959 4250 
Q 1534 4250 1286 3958 
Q 1038 3666 1038 3163 
Q 1038 2656 1286 2365 
Q 1534 2075 1959 2075 
z
" transform="scale(0.015625)"/>
      </defs>
      <use xlink:href="#DejaVuSans-39"/>
     </g>
    </g>
   </g>
  </g>
 </g>
 <defs>
  <clipPath id="p583c8b0faa">
   <rect x="0" y="0" width="576" height="820.406572"/>
  </clipPath>
 </defs>
</svg>
