<?xml version="1.0" encoding="utf-8" standalone="no"?>
<!DOCTYPE svg PUBLIC "-//W3C//DTD SVG 1.1//EN"
  "http://www.w3.org/Graphics/SVG/1.1/DTD/svg11.dtd">
<svg xmlns:xlink="http://www.w3.org/1999/xlink" width="576pt" height="819.826276pt" viewBox="0 0 576 819.826276" xmlns="http://www.w3.org/2000/svg" version="1.1">
 <metadata>
  <rdf:RDF xmlns:dc="http://purl.org/dc/elements/1.1/" xmlns:cc="http://creativecommons.org/ns#" xmlns:rdf="http://www.w3.org/1999/02/22-rdf-syntax-ns#">
   <cc:Work>
    <dc:type rdf:resource="http://purl.org/dc/dcmitype/StillImage"/>
    <dc:date>2025-07-25T22:44:46.184800</dc:date>
    <dc:format>image/svg+xml</dc:format>
    <dc:creator>
     <cc:Agent>
      <dc:title>Matplotlib v3.10.3, https://matplotlib.org/</dc:title>
     </cc:Agent>
    </dc:creator>
   </cc:Work>
  </rdf:RDF>
 </metadata>
 <defs>
  <style type="text/css">*{stroke-linejoin: round; stroke-linecap: butt}</style>
 </defs>
 <g id="figure_1">
  <g id="patch_1">
   <path d="M 0 819.826276 
L 576 819.826276 
L 576 0 
L 0 0 
L 0 819.826276 
z
" style="fill: none; opacity: 0"/>
  </g>
  <g id="axes_1">
   <g id="QuadContourSet_1">
    <path d="M 2.134799 42.802175 
L 3.291429 41.009205 
L 4.641639 39.5097 
L 5.808013 36.217225 
L 6.582857 35.64809 
L 8.617971 32.92475 
L 9.874286 30.012206 
L 10.254096 29.632275 
L 12.099601 26.3398 
L 13.165714 24.280686 
L 14.399264 23.047325 
L 15.607502 19.75485 
L 16.457143 18.258552 
L 18.12924 16.462375 
L 19.152498 13.1699 
L 19.748571 11.861231 
L 21.374853 9.877425 
L 23.04 7.150589 
L 23.618464 6.58495 
L 24.383848 3.292475 
L 26.331429 1.420493 
L 27.719764 0 
L 26.980714 0 
L 26.331429 0.664324 
L 23.597142 3.292475 
L 23.04 5.250066 
L 22.775909 6.58495 
L 20.706856 9.877425 
L 19.748571 11.04638 
L 18.781349 13.1699 
L 17.483886 16.462375 
L 16.457143 17.565309 
L 15.213858 19.75485 
L 13.550682 23.047325 
L 13.165714 23.432234 
L 11.660312 26.3398 
L 9.874286 29.158335 
L 9.372376 29.632275 
L 8.099921 32.92475 
L 6.582857 34.954847 
L 4.864203 36.217225 
L 3.817218 39.5097 
L 3.291429 40.093627 
L 1.544167 42.802175 
L -0 45.14428 
L 0 46.040118 
z
" clip-path="url(#p065ee8e1c8)" style="fill: #f5f9fe; fill-opacity: 0.9"/>
    <path d="M 1.544167 42.802175 
L 3.291429 40.093627 
L 3.817218 39.5097 
L 4.864203 36.217225 
L 6.582857 34.954847 
L 8.099921 32.92475 
L 9.372376 29.632275 
L 9.874286 29.158335 
L 11.660312 26.3398 
L 13.165714 23.432234 
L 13.550682 23.047325 
L 15.213858 19.75485 
L 16.457143 17.565309 
L 17.483886 16.462375 
L 18.781349 13.1699 
L 19.748571 11.04638 
L 20.706856 9.877425 
L 22.775909 6.58495 
L 23.04 5.250066 
L 23.597142 3.292475 
L 26.331429 0.664324 
L 26.980714 0 
L 26.331429 0 
L 26.229728 0 
L 23.04 3.058216 
L 22.932433 3.292475 
L 22.229046 6.58495 
L 20.038858 9.877425 
L 19.748571 10.231529 
L 18.4102 13.1699 
L 16.838533 16.462375 
L 16.457143 16.872066 
L 14.820214 19.75485 
L 13.165714 22.668579 
L 12.850351 23.047325 
L 11.221024 26.3398 
L 9.874286 28.465092 
L 8.638221 29.632275 
L 7.58187 32.92475 
L 6.582857 34.261604 
L 3.920393 36.217225 
L 3.291429 38.350269 
L 3.080482 39.5097 
L 0.953534 42.802175 
L 0 44.248442 
L -0 45.14428 
z
" clip-path="url(#p065ee8e1c8)" style="fill: #eff6fc; fill-opacity: 0.9"/>
    <path d="M 0.953534 42.802175 
L 3.080482 39.5097 
L 3.291429 38.350269 
L 3.920393 36.217225 
L 6.582857 34.261604 
L 7.58187 32.92475 
L 8.638221 29.632275 
L 9.874286 28.465092 
L 11.221024 26.3398 
L 12.850351 23.047325 
L 13.165714 22.668579 
L 14.820214 19.75485 
L 16.457143 16.872066 
L 16.838533 16.462375 
L 18.4102 13.1699 
L 19.748571 10.231529 
L 20.038858 9.877425 
L 22.229046 6.58495 
L 22.932433 3.292475 
L 23.04 3.058216 
L 26.229728 0 
L 25.39241 0 
L 23.04 2.255421 
L 22.563807 3.292475 
L 21.682184 6.58495 
L 19.748571 9.423495 
L 19.529961 9.877425 
L 18.039052 13.1699 
L 16.457143 16.174079 
L 16.262622 16.462375 
L 14.426571 19.75485 
L 13.165714 21.975336 
L 12.27312 23.047325 
L 10.781735 26.3398 
L 9.874286 27.771849 
L 7.904066 29.632275 
L 7.063819 32.92475 
L 6.582857 33.568361 
L 3.291429 35.918382 
L 3.158931 36.217225 
L 2.498131 39.5097 
L 0.362902 42.802175 
L 0 43.352605 
L 0 44.248442 
z
" clip-path="url(#p065ee8e1c8)" style="fill: #eaf3fb; fill-opacity: 0.9"/>
    <path d="M 0.362902 42.802175 
L 2.498131 39.5097 
L 3.158931 36.217225 
L 3.291429 35.918382 
L 6.582857 33.568361 
L 7.063819 32.92475 
L 7.904066 29.632275 
L 9.874286 27.771849 
L 10.781735 26.3398 
L 12.27312 23.047325 
L 13.165714 21.975336 
L 14.426571 19.75485 
L 16.262622 16.462375 
L 16.457143 16.174079 
L 18.039052 13.1699 
L 19.529961 9.877425 
L 19.748571 9.423495 
L 21.682184 6.58495 
L 22.563807 3.292475 
L 23.04 2.255421 
L 25.39241 0 
L 24.555093 -0 
L 23.04 1.452626 
L 22.19518 3.292475 
L 21.135321 6.58495 
L 19.748571 8.6207 
L 19.14334 9.877425 
L 17.667903 13.1699 
L 16.457143 15.469236 
L 15.787045 16.462375 
L 14.032927 19.75485 
L 13.165714 21.282093 
L 11.69589 23.047325 
L 10.342446 26.3398 
L 9.874286 27.078606 
L 7.169912 29.632275 
L 6.582857 32.654189 
L 6.485213 32.92475 
L 3.291429 35.022545 
L 2.761743 36.217225 
L 1.91578 39.5097 
L 0 42.456767 
L 0 42.802175 
L 0 43.352605 
z
" clip-path="url(#p065ee8e1c8)" style="fill: #e5eff9; fill-opacity: 0.9"/>
    <path d="M 1.91578 39.5097 
L 2.761743 36.217225 
L 3.291429 35.022545 
L 6.485213 32.92475 
L 6.582857 32.654189 
L 7.169912 29.632275 
L 9.874286 27.078606 
L 10.342446 26.3398 
L 11.69589 23.047325 
L 13.165714 21.282093 
L 14.032927 19.75485 
L 15.787045 16.462375 
L 16.457143 15.469236 
L 17.667903 13.1699 
L 19.14334 9.877425 
L 19.748571 8.6207 
L 21.135321 6.58495 
L 22.19518 3.292475 
L 23.04 1.452626 
L 24.555093 -0 
L 23.717776 -0 
L 23.04 0.649831 
L 21.826554 3.292475 
L 20.588459 6.58495 
L 19.748571 7.817905 
L 18.756718 9.877425 
L 17.296754 13.1699 
L 16.457143 14.764393 
L 15.311469 16.462375 
L 13.639284 19.75485 
L 13.165714 20.58885 
L 11.11866 23.047325 
L 9.903157 26.3398 
L 9.874286 26.385363 
L 6.582857 28.813512 
L 6.456454 29.632275 
L 5.121347 32.92475 
L 3.291429 34.126707 
L 2.364555 36.217225 
L 1.333429 39.5097 
L 0 41.56093 
L 0 42.456767 
z
" clip-path="url(#p065ee8e1c8)" style="fill: #dfecf7; fill-opacity: 0.9"/>
    <path d="M 1.333429 39.5097 
L 2.364555 36.217225 
L 3.291429 34.126707 
L 5.121347 32.92475 
L 6.456454 29.632275 
L 6.582857 28.813512 
L 9.874286 26.385363 
L 9.903157 26.3398 
L 11.11866 23.047325 
L 13.165714 20.58885 
L 13.639284 19.75485 
L 15.311469 16.462375 
L 16.457143 14.764393 
L 17.296754 13.1699 
L 18.756718 9.877425 
L 19.748571 7.817905 
L 20.588459 6.58495 
L 21.826554 3.292475 
L 23.04 0.649831 
L 23.717776 -0 
L 23.04 0 
L 22.917467 0 
L 21.457927 3.292475 
L 20.041596 6.58495 
L 19.748571 7.01511 
L 18.370096 9.877425 
L 16.925605 13.1699 
L 16.457143 14.05955 
L 14.835892 16.462375 
L 13.24564 19.75485 
L 13.165714 19.895607 
L 10.54143 23.047325 
L 9.874286 24.868022 
L 6.582857 25.964665 
L 6.338809 26.3398 
L 5.825596 29.632275 
L 3.75748 32.92475 
L 3.291429 33.23087 
L 1.967367 36.217225 
L 0.751078 39.5097 
L 0 40.665092 
L 0 41.56093 
z
" clip-path="url(#p065ee8e1c8)" style="fill: #dae8f6; fill-opacity: 0.9"/>
    <path d="M 0.751078 39.5097 
L 1.967367 36.217225 
L 3.291429 33.23087 
L 3.75748 32.92475 
L 5.825596 29.632275 
L 6.338809 26.3398 
L 6.582857 25.964665 
L 9.874286 24.868022 
L 10.54143 23.047325 
L 13.165714 19.895607 
L 13.24564 19.75485 
L 14.835892 16.462375 
L 16.457143 14.05955 
L 16.925605 13.1699 
L 18.370096 9.877425 
L 19.748571 7.01511 
L 20.041596 6.58495 
L 21.457927 3.292475 
L 22.917467 0 
L 22.274384 0 
L 21.089301 3.292475 
L 19.748571 6.212315 
L 19.40109 6.58495 
L 17.983475 9.877425 
L 16.554456 13.1699 
L 16.457143 13.354707 
L 14.360316 16.462375 
L 13.165714 18.961838 
L 11.673991 19.75485 
L 9.9642 23.047325 
L 9.874286 23.292709 
L 6.582857 25.014081 
L 5.720395 26.3398 
L 5.194738 29.632275 
L 3.291429 32.335032 
L 2.819731 32.92475 
L 1.570179 36.217225 
L 0.168727 39.5097 
L 0 39.769255 
L 0 40.665092 
z
" clip-path="url(#p065ee8e1c8)" style="fill: #d6e5f4; fill-opacity: 0.9"/>
    <path d="M 0.168727 39.5097 
L 1.570179 36.217225 
L 2.819731 32.92475 
L 3.291429 32.335032 
L 5.194738 29.632275 
L 5.720395 26.3398 
L 6.582857 25.014081 
L 9.874286 23.292709 
L 9.9642 23.047325 
L 11.673991 19.75485 
L 13.165714 18.961838 
L 14.360316 16.462375 
L 16.457143 13.354707 
L 16.554456 13.1699 
L 17.983475 9.877425 
L 19.40109 6.58495 
L 19.748571 6.212315 
L 21.089301 3.292475 
L 22.274384 0 
L 21.631301 0 
L 20.720674 3.292475 
L 19.748571 5.40952 
L 18.652486 6.58495 
L 17.596853 9.877425 
L 16.457143 12.510807 
L 15.662353 13.1699 
L 13.88474 16.462375 
L 13.165714 17.96679 
L 9.874286 19.597521 
L 9.831457 19.75485 
L 8.421908 23.047325 
L 6.582857 24.063496 
L 5.101981 26.3398 
L 4.56388 29.632275 
L 3.291429 31.439194 
L 2.103177 32.92475 
L 1.172992 36.217225 
L 0 38.871368 
L 0 39.5097 
L 0 39.769255 
z
" clip-path="url(#p065ee8e1c8)" style="fill: #d0e2f2; fill-opacity: 0.9"/>
    <path d="M 1.172992 36.217225 
L 2.103177 32.92475 
L 3.291429 31.439194 
L 4.56388 29.632275 
L 5.101981 26.3398 
L 6.582857 24.063496 
L 8.421908 23.047325 
L 9.831457 19.75485 
L 9.874286 19.597521 
L 13.165714 17.96679 
L 13.88474 16.462375 
L 15.662353 13.1699 
L 16.457143 12.510807 
L 17.596853 9.877425 
L 18.652486 6.58495 
L 19.748571 5.40952 
L 20.720674 3.292475 
L 21.631301 0 
L 20.988217 -0 
L 20.352047 3.292475 
L 19.748571 4.606725 
L 17.903882 6.58495 
L 17.210231 9.877425 
L 16.457143 11.61749 
L 14.585117 13.1699 
L 13.409163 16.462375 
L 13.165714 16.971743 
L 10.903123 16.462375 
L 9.874286 16.105204 
L 9.515434 16.462375 
L 8.719054 19.75485 
L 6.701555 23.047325 
L 6.582857 23.112912 
L 4.483568 26.3398 
L 3.933022 29.632275 
L 3.291429 30.543357 
L 1.386623 32.92475 
L 0.775804 36.217225 
L -0 37.972646 
L 0 38.871368 
z
" clip-path="url(#p065ee8e1c8)" style="fill: #cbdef1; fill-opacity: 0.9"/>
    <path d="M 0.775804 36.217225 
L 1.386623 32.92475 
L 3.291429 30.543357 
L 3.933022 29.632275 
L 4.483568 26.3398 
L 6.582857 23.112912 
L 6.701555 23.047325 
L 8.719054 19.75485 
L 9.515434 16.462375 
L 9.874286 16.105204 
L 10.903123 16.462375 
L 13.165714 16.971743 
L 13.409163 16.462375 
L 14.585117 13.1699 
L 16.457143 11.61749 
L 17.210231 9.877425 
L 17.903882 6.58495 
L 19.748571 4.606725 
L 20.352047 3.292475 
L 20.988217 -0 
L 20.345134 0 
L 19.983421 3.292475 
L 19.748571 3.80393 
L 17.155277 6.58495 
L 16.82361 9.877425 
L 16.457143 10.724172 
L 13.507881 13.1699 
L 13.165714 14.467853 
L 9.874286 14.570769 
L 7.973784 16.462375 
L 7.606652 19.75485 
L 6.582857 21.39161 
L 4.918026 23.047325 
L 3.865154 26.3398 
L 3.302164 29.632275 
L 3.291429 29.647519 
L 0.670069 32.92475 
L 0.378616 36.217225 
L 0 37.073925 
L -0 37.972646 
z
" clip-path="url(#p065ee8e1c8)" style="fill: #c6dbef; fill-opacity: 0.9"/>
    <path d="M 0.378616 36.217225 
L 0.670069 32.92475 
L 3.291429 29.647519 
L 3.302164 29.632275 
L 3.865154 26.3398 
L 4.918026 23.047325 
L 6.582857 21.39161 
L 7.606652 19.75485 
L 7.973784 16.462375 
L 9.874286 14.570769 
L 13.165714 14.467853 
L 13.507881 13.1699 
L 16.457143 10.724172 
L 16.82361 9.877425 
L 17.155277 6.58495 
L 19.748571 3.80393 
L 19.983421 3.292475 
L 20.345134 0 
L 19.748571 0 
L 16.457143 0 
L 13.165714 0 
L 9.874286 0 
L 6.582857 0 
L 3.291429 0 
L 0 0 
L 0 3.292475 
L 0 6.58495 
L 0 9.877425 
L 0 13.1699 
L 0 16.462375 
L 0 19.75485 
L 0 23.047325 
L 0 26.3398 
L 0 29.632275 
L 0 32.92475 
L 0 36.217225 
L 0 37.073925 
z
" clip-path="url(#p065ee8e1c8)" style="fill: #bed8ec; fill-opacity: 0.9"/>
    <path clip-path="url(#p065ee8e1c8)" style="fill: #b5d4e9; fill-opacity: 0.9"/>
    <path clip-path="url(#p065ee8e1c8)" style="fill: #add0e6; fill-opacity: 0.9"/>
    <path clip-path="url(#p065ee8e1c8)" style="fill: #a5cde3; fill-opacity: 0.9"/>
    <path clip-path="url(#p065ee8e1c8)" style="fill: #9cc9e1; fill-opacity: 0.9"/>
    <path clip-path="url(#p065ee8e1c8)" style="fill: #91c3de; fill-opacity: 0.9"/>
    <path clip-path="url(#p065ee8e1c8)" style="fill: #85bcdc; fill-opacity: 0.9"/>
    <path clip-path="url(#p065ee8e1c8)" style="fill: #7cb7da; fill-opacity: 0.9"/>
    <path clip-path="url(#p065ee8e1c8)" style="fill: #71b1d7; fill-opacity: 0.9"/>
    <path clip-path="url(#p065ee8e1c8)" style="fill: #66abd4; fill-opacity: 0.9"/>
    <path clip-path="url(#p065ee8e1c8)" style="fill: #5da5d1; fill-opacity: 0.9"/>
    <path clip-path="url(#p065ee8e1c8)" style="fill: #56a0ce; fill-opacity: 0.9"/>
    <path clip-path="url(#p065ee8e1c8)" style="fill: #4d99ca; fill-opacity: 0.9"/>
    <path clip-path="url(#p065ee8e1c8)" style="fill: #4493c7; fill-opacity: 0.9"/>
    <path clip-path="url(#p065ee8e1c8)" style="fill: #3c8cc3; fill-opacity: 0.9"/>
    <path clip-path="url(#p065ee8e1c8)" style="fill: #3686c0; fill-opacity: 0.9"/>
    <path clip-path="url(#p065ee8e1c8)" style="fill: #2f7fbc; fill-opacity: 0.9"/>
    <path clip-path="url(#p065ee8e1c8)" style="fill: #2777b8; fill-opacity: 0.9"/>
    <path clip-path="url(#p065ee8e1c8)" style="fill: #2070b4; fill-opacity: 0.9"/>
    <path clip-path="url(#p065ee8e1c8)" style="fill: #1c6ab0; fill-opacity: 0.9"/>
    <path clip-path="url(#p065ee8e1c8)" style="fill: #1663aa; fill-opacity: 0.9"/>
    <path clip-path="url(#p065ee8e1c8)" style="fill: #115ca5; fill-opacity: 0.9"/>
    <path clip-path="url(#p065ee8e1c8)" style="fill: #0c56a0; fill-opacity: 0.9"/>
    <path clip-path="url(#p065ee8e1c8)" style="fill: #084f99; fill-opacity: 0.9"/>
    <path clip-path="url(#p065ee8e1c8)" style="fill: #08488e; fill-opacity: 0.9"/>
    <path clip-path="url(#p065ee8e1c8)" style="fill: #084184; fill-opacity: 0.9"/>
    <path clip-path="url(#p065ee8e1c8)" style="fill: #083a7a; fill-opacity: 0.9"/>
    <path clip-path="url(#p065ee8e1c8)" style="fill: #083370; fill-opacity: 0.9"/>
    <path clip-path="url(#p065ee8e1c8)" style="fill: #08306b; fill-opacity: 0.9"/>
   </g>
   <g id="QuadContourSet_2">
    <path d="M 0 46.040118 
L 1.606314 43.60375 
M 11.45631 27.487464 
L 12.099601 26.3398 
L 13.165714 24.280686 
L 14.399264 23.047325 
L 15.607502 19.75485 
L 16.457143 18.258552 
L 18.12924 16.462375 
L 19.152498 13.1699 
L 19.748571 11.861231 
L 21.374853 9.877425 
L 23.04 7.150589 
L 23.618464 6.58495 
L 24.383848 3.292475 
L 26.331429 1.420493 
L 27.719764 0 
" clip-path="url(#p065ee8e1c8)" style="fill: none"/>
    <path d="M -0 45.14428 
L 1.544167 42.802175 
L 3.291429 40.093627 
L 3.817218 39.5097 
L 4.864203 36.217225 
L 6.582857 34.954847 
L 8.099921 32.92475 
L 9.372376 29.632275 
L 9.874286 29.158335 
L 11.660312 26.3398 
L 13.165714 23.432234 
L 13.550682 23.047325 
L 14.282873 21.597858 
M 23.186227 4.736278 
L 23.597142 3.292475 
L 26.331429 0.664324 
L 26.980714 0 
" clip-path="url(#p065ee8e1c8)" style="fill: none"/>
    <path d="M 0 44.248442 
L 0.953534 42.802175 
L 1.498131 41.95915 
M 11.346619 26.086001 
L 12.850351 23.047325 
L 13.165714 22.668579 
L 14.820214 19.75485 
L 16.457143 16.872066 
L 16.838533 16.462375 
L 18.4102 13.1699 
L 19.748571 10.231529 
L 20.038858 9.877425 
L 22.229046 6.58495 
L 22.932433 3.292475 
L 23.04 3.058216 
L 26.229728 0 
" clip-path="url(#p065ee8e1c8)" style="fill: none"/>
    <path d="M 0 43.352605 
L 0.362902 42.802175 
L 2.498131 39.5097 
L 3.158931 36.217225 
L 3.291429 35.918382 
L 6.582857 33.568361 
L 7.063819 32.92475 
L 7.904066 29.632275 
L 9.874286 27.771849 
L 10.781735 26.3398 
L 12.27312 23.047325 
L 13.165714 21.975336 
L 13.382055 21.59434 
M 22.219557 4.578097 
L 22.563807 3.292475 
L 23.04 2.255421 
L 25.39241 0 
" clip-path="url(#p065ee8e1c8)" style="fill: none"/>
    <path d="M 0 42.456767 
L 1.91578 39.5097 
L 2.761743 36.217225 
L 3.291429 35.022545 
L 6.485213 32.92475 
L 6.582857 32.654189 
L 7.169912 29.632275 
L 9.874286 27.078606 
L 10.342446 26.3398 
L 11.69589 23.047325 
L 13.165714 21.282093 
L 14.032927 19.75485 
L 14.768308 18.374542 
M 23.206717 1.292783 
L 24.555093 -0 
" clip-path="url(#p065ee8e1c8)" style="fill: none"/>
    <path d="M 0 41.56093 
L 1.333429 39.5097 
L 2.364555 36.217225 
L 3.291429 34.126707 
L 5.121347 32.92475 
L 6.456454 29.632275 
L 6.582857 28.813512 
L 9.874286 26.385363 
L 9.903157 26.3398 
L 11.11866 23.047325 
L 13.165714 20.58885 
L 13.639284 19.75485 
L 14.351939 18.351656 
M 22.777055 1.222473 
L 23.04 0.649831 
L 23.717776 -0 
" clip-path="url(#p065ee8e1c8)" style="fill: none"/>
    <path d="M 0 40.665092 
L 0.751078 39.5097 
L 1.967367 36.217225 
L 3.291429 33.23087 
L 3.75748 32.92475 
L 5.825596 29.632275 
L 6.338809 26.3398 
L 6.582857 25.964665 
L 9.874286 24.868022 
L 10.54143 23.047325 
L 13.165714 19.895607 
L 13.24564 19.75485 
L 13.935046 18.327498 
M 22.386677 1.197372 
L 22.917467 0 
" clip-path="url(#p065ee8e1c8)" style="fill: none"/>
    <path d="M 0 39.769255 
L 0.168727 39.5097 
L 1.570179 36.217225 
L 2.819731 32.92475 
L 3.291429 32.335032 
L 5.194738 29.632275 
L 5.720395 26.3398 
L 6.582857 25.014081 
L 9.874286 23.292709 
L 9.9642 23.047325 
L 11.673991 19.75485 
L 13.165714 18.961838 
L 13.487803 18.287933 
M 21.85697 1.159686 
L 22.274384 0 
" clip-path="url(#p065ee8e1c8)" style="fill: none"/>
    <path d="M 0 38.871368 
L 1.172992 36.217225 
L 1.525505 34.969471 
M 10.768999 19.154237 
L 13.165714 17.96679 
L 13.88474 16.462375 
L 15.662353 13.1699 
L 16.457143 12.510807 
L 17.596853 9.877425 
L 18.652486 6.58495 
L 19.748571 5.40952 
L 20.720674 3.292475 
L 21.631301 0 
" clip-path="url(#p065ee8e1c8)" style="fill: none"/>
    <path d="M -0 37.972646 
L 0.775804 36.217225 
L 1.008813 34.961244 
M 9.123921 18.081012 
L 9.515434 16.462375 
L 9.874286 16.105204 
L 10.903123 16.462375 
L 13.165714 16.971743 
L 13.409163 16.462375 
L 14.585117 13.1699 
L 16.457143 11.61749 
L 17.210231 9.877425 
L 17.903882 6.58495 
L 19.748571 4.606725 
L 20.352047 3.292475 
L 20.988217 -0 
" clip-path="url(#p065ee8e1c8)" style="fill: none"/>
    <path d="M 0 37.073925 
L 0.378616 36.217225 
L 0.670069 32.92475 
L 3.21003 29.749284 
M 17.06762 7.455123 
L 17.155277 6.58495 
L 19.748571 3.80393 
L 19.983421 3.292475 
L 20.345134 0 
" clip-path="url(#p065ee8e1c8)" style="fill: none"/>
    <path clip-path="url(#p065ee8e1c8)" style="fill: none"/>
    <path clip-path="url(#p065ee8e1c8)" style="fill: none"/>
    <path clip-path="url(#p065ee8e1c8)" style="fill: none"/>
    <path clip-path="url(#p065ee8e1c8)" style="fill: none"/>
    <path clip-path="url(#p065ee8e1c8)" style="fill: none"/>
    <path clip-path="url(#p065ee8e1c8)" style="fill: none"/>
    <path clip-path="url(#p065ee8e1c8)" style="fill: none"/>
    <path clip-path="url(#p065ee8e1c8)" style="fill: none"/>
    <path clip-path="url(#p065ee8e1c8)" style="fill: none"/>
    <path clip-path="url(#p065ee8e1c8)" style="fill: none"/>
    <path clip-path="url(#p065ee8e1c8)" style="fill: none"/>
    <path clip-path="url(#p065ee8e1c8)" style="fill: none"/>
    <path clip-path="url(#p065ee8e1c8)" style="fill: none"/>
    <path clip-path="url(#p065ee8e1c8)" style="fill: none"/>
    <path clip-path="url(#p065ee8e1c8)" style="fill: none"/>
    <path clip-path="url(#p065ee8e1c8)" style="fill: none"/>
    <path clip-path="url(#p065ee8e1c8)" style="fill: none"/>
    <path clip-path="url(#p065ee8e1c8)" style="fill: none"/>
    <path clip-path="url(#p065ee8e1c8)" style="fill: none"/>
    <path clip-path="url(#p065ee8e1c8)" style="fill: none"/>
    <path clip-path="url(#p065ee8e1c8)" style="fill: none"/>
    <path clip-path="url(#p065ee8e1c8)" style="fill: none"/>
    <path clip-path="url(#p065ee8e1c8)" style="fill: none"/>
    <path clip-path="url(#p065ee8e1c8)" style="fill: none"/>
    <path clip-path="url(#p065ee8e1c8)" style="fill: none"/>
    <path clip-path="url(#p065ee8e1c8)" style="fill: none"/>
    <path clip-path="url(#p065ee8e1c8)" style="fill: none"/>
    <path clip-path="url(#p065ee8e1c8)" style="fill: none"/>
   </g>
   <g id="text_1">
    <g clip-path="url(#p065ee8e1c8)">
     <!-- 0 -->
     <g style="opacity: 0" transform="translate(7.491584 40.619197) rotate(-59.421444) scale(0.12 -0.12)">
      <defs>
       <path id="DejaVuSans-30" d="M 2034 4250 
Q 1547 4250 1301 3770 
Q 1056 3291 1056 2328 
Q 1056 1369 1301 889 
Q 1547 409 2034 409 
Q 2525 409 2770 889 
Q 3016 1369 3016 2328 
Q 3016 3291 2770 3770 
Q 2525 4250 2034 4250 
z
M 2034 4750 
Q 2819 4750 3233 4129 
Q 3647 3509 3647 2328 
Q 3647 1150 3233 529 
Q 2819 -91 2034 -91 
Q 1250 -91 836 529 
Q 422 1150 422 2328 
Q 422 3509 836 4129 
Q 1250 4750 2034 4750 
z
" transform="scale(0.015625)"/>
      </defs>
      <use xlink:href="#DejaVuSans-30"/>
     </g>
    </g>
   </g>
   <g id="text_2">
    <g clip-path="url(#p065ee8e1c8)">
     <!-- 1 -->
     <g style="opacity: 0" transform="translate(19.797789 18.120105) rotate(-60.665486) scale(0.12 -0.12)">
      <defs>
       <path id="DejaVuSans-31" d="M 794 531 
L 1825 531 
L 1825 4091 
L 703 3866 
L 703 4441 
L 1819 4666 
L 2450 4666 
L 2450 531 
L 3481 531 
L 3481 0 
L 794 0 
L 794 531 
z
" transform="scale(0.015625)"/>
      </defs>
      <use xlink:href="#DejaVuSans-31"/>
     </g>
    </g>
   </g>
   <g id="text_3">
    <g clip-path="url(#p065ee8e1c8)">
     <!-- 2 -->
     <g style="opacity: 0" transform="translate(7.295873 39.264533) rotate(-57.173207) scale(0.12 -0.12)">
      <defs>
       <path id="DejaVuSans-32" d="M 1228 531 
L 3431 531 
L 3431 0 
L 469 0 
L 469 531 
Q 828 903 1448 1529 
Q 2069 2156 2228 2338 
Q 2531 2678 2651 2914 
Q 2772 3150 2772 3378 
Q 2772 3750 2511 3984 
Q 2250 4219 1831 4219 
Q 1534 4219 1204 4116 
Q 875 4013 500 3803 
L 500 4441 
Q 881 4594 1212 4672 
Q 1544 4750 1819 4750 
Q 2544 4750 2975 4387 
Q 3406 4025 3406 3419 
Q 3406 3131 3298 2873 
Q 3191 2616 2906 2266 
Q 2828 2175 2409 1742 
Q 1991 1309 1228 531 
z
" transform="scale(0.015625)"/>
      </defs>
      <use xlink:href="#DejaVuSans-32"/>
     </g>
    </g>
   </g>
   <g id="text_4">
    <g clip-path="url(#p065ee8e1c8)">
     <!-- 3 -->
     <g style="opacity: 0" transform="translate(19.212277 18.085307) rotate(-62.486437) scale(0.12 -0.12)">
      <defs>
       <path id="DejaVuSans-33" d="M 2597 2516 
Q 3050 2419 3304 2112 
Q 3559 1806 3559 1356 
Q 3559 666 3084 287 
Q 2609 -91 1734 -91 
Q 1441 -91 1130 -33 
Q 819 25 488 141 
L 488 750 
Q 750 597 1062 519 
Q 1375 441 1716 441 
Q 2309 441 2620 675 
Q 2931 909 2931 1356 
Q 2931 1769 2642 2001 
Q 2353 2234 1838 2234 
L 1294 2234 
L 1294 2753 
L 1863 2753 
Q 2328 2753 2575 2939 
Q 2822 3125 2822 3475 
Q 2822 3834 2567 4026 
Q 2313 4219 1838 4219 
Q 1578 4219 1281 4162 
Q 984 4106 628 3988 
L 628 4550 
Q 988 4650 1302 4700 
Q 1616 4750 1894 4750 
Q 2613 4750 3031 4423 
Q 3450 4097 3450 3541 
Q 3450 3153 3228 2886 
Q 3006 2619 2597 2516 
z
" transform="scale(0.015625)"/>
      </defs>
      <use xlink:href="#DejaVuSans-33"/>
     </g>
    </g>
   </g>
   <g id="text_5">
    <g clip-path="url(#p065ee8e1c8)">
     <!-- 4 -->
     <g style="opacity: 0" transform="translate(20.372243 14.779208) rotate(-63.136328) scale(0.12 -0.12)">
      <defs>
       <path id="DejaVuSans-34" d="M 2419 4116 
L 825 1625 
L 2419 1625 
L 2419 4116 
z
M 2253 4666 
L 3047 4666 
L 3047 1625 
L 3713 1625 
L 3713 1100 
L 3047 1100 
L 3047 0 
L 2419 0 
L 2419 1100 
L 313 1100 
L 313 1709 
L 2253 4666 
z
" transform="scale(0.015625)"/>
      </defs>
      <use xlink:href="#DejaVuSans-34"/>
     </g>
    </g>
   </g>
   <g id="text_6">
    <g clip-path="url(#p065ee8e1c8)">
     <!-- 5 -->
     <g style="opacity: 0" transform="translate(20.043653 14.764293) rotate(-63.815676) scale(0.12 -0.12)">
      <defs>
       <path id="DejaVuSans-35" d="M 691 4666 
L 3169 4666 
L 3169 4134 
L 1269 4134 
L 1269 2991 
Q 1406 3038 1543 3061 
Q 1681 3084 1819 3084 
Q 2600 3084 3056 2656 
Q 3513 2228 3513 1497 
Q 3513 744 3044 326 
Q 2575 -91 1722 -91 
Q 1428 -91 1123 -41 
Q 819 9 494 109 
L 494 744 
Q 775 591 1075 516 
Q 1375 441 1709 441 
Q 2250 441 2565 725 
Q 2881 1009 2881 1497 
Q 2881 1984 2565 2268 
Q 2250 2553 1709 2553 
Q 1456 2553 1204 2497 
Q 953 2441 691 2322 
L 691 4666 
z
" transform="scale(0.015625)"/>
      </defs>
      <use xlink:href="#DejaVuSans-35"/>
     </g>
    </g>
   </g>
   <g id="text_7">
    <g clip-path="url(#p065ee8e1c8)">
     <!-- 6 -->
     <g style="opacity: 0" transform="translate(19.695356 14.75404) rotate(-64.265479) scale(0.12 -0.12)">
      <defs>
       <path id="DejaVuSans-36" d="M 2113 2584 
Q 1688 2584 1439 2293 
Q 1191 2003 1191 1497 
Q 1191 994 1439 701 
Q 1688 409 2113 409 
Q 2538 409 2786 701 
Q 3034 994 3034 1497 
Q 3034 2003 2786 2293 
Q 2538 2584 2113 2584 
z
M 3366 4563 
L 3366 3988 
Q 3128 4100 2886 4159 
Q 2644 4219 2406 4219 
Q 1781 4219 1451 3797 
Q 1122 3375 1075 2522 
Q 1259 2794 1537 2939 
Q 1816 3084 2150 3084 
Q 2853 3084 3261 2657 
Q 3669 2231 3669 1497 
Q 3669 778 3244 343 
Q 2819 -91 2113 -91 
Q 1303 -91 875 529 
Q 447 1150 447 2328 
Q 447 3434 972 4092 
Q 1497 4750 2381 4750 
Q 2619 4750 2861 4703 
Q 3103 4656 3366 4563 
z
" transform="scale(0.015625)"/>
      </defs>
      <use xlink:href="#DejaVuSans-36"/>
     </g>
    </g>
   </g>
   <g id="text_8">
    <g clip-path="url(#p065ee8e1c8)">
     <!-- 7 -->
     <g style="opacity: 0" transform="translate(19.292547 14.75841) rotate(-64.075372) scale(0.12 -0.12)">
      <defs>
       <path id="DejaVuSans-37" d="M 525 4666 
L 3525 4666 
L 3525 4397 
L 1831 0 
L 1172 0 
L 2766 4134 
L 525 4134 
L 525 4666 
z
" transform="scale(0.015625)"/>
      </defs>
      <use xlink:href="#DejaVuSans-37"/>
     </g>
    </g>
   </g>
   <g id="text_9">
    <g clip-path="url(#p065ee8e1c8)">
     <!-- 8 -->
     <g style="opacity: 0" transform="translate(5.949796 31.321656) rotate(-58.720154) scale(0.12 -0.12)">
      <defs>
       <path id="DejaVuSans-38" d="M 2034 2216 
Q 1584 2216 1326 1975 
Q 1069 1734 1069 1313 
Q 1069 891 1326 650 
Q 1584 409 2034 409 
Q 2484 409 2743 651 
Q 3003 894 3003 1313 
Q 3003 1734 2745 1975 
Q 2488 2216 2034 2216 
z
M 1403 2484 
Q 997 2584 770 2862 
Q 544 3141 544 3541 
Q 544 4100 942 4425 
Q 1341 4750 2034 4750 
Q 2731 4750 3128 4425 
Q 3525 4100 3525 3541 
Q 3525 3141 3298 2862 
Q 3072 2584 2669 2484 
Q 3125 2378 3379 2068 
Q 3634 1759 3634 1313 
Q 3634 634 3220 271 
Q 2806 -91 2034 -91 
Q 1263 -91 848 271 
Q 434 634 434 1313 
Q 434 1759 690 2068 
Q 947 2378 1403 2484 
z
M 1172 3481 
Q 1172 3119 1398 2916 
Q 1625 2713 2034 2713 
Q 2441 2713 2670 2916 
Q 2900 3119 2900 3481 
Q 2900 3844 2670 4047 
Q 2441 4250 2034 4250 
Q 1625 4250 1398 4047 
Q 1172 3844 1172 3481 
z
" transform="scale(0.015625)"/>
      </defs>
      <use xlink:href="#DejaVuSans-38"/>
     </g>
    </g>
   </g>
   <g id="text_10">
    <g clip-path="url(#p065ee8e1c8)">
     <!-- 9 -->
     <g style="opacity: 0" transform="translate(5.791304 31.221143) rotate(-64.059695) scale(0.12 -0.12)">
      <defs>
       <path id="DejaVuSans-39" d="M 703 97 
L 703 672 
Q 941 559 1184 500 
Q 1428 441 1663 441 
Q 2288 441 2617 861 
Q 2947 1281 2994 2138 
Q 2813 1869 2534 1725 
Q 2256 1581 1919 1581 
Q 1219 1581 811 2004 
Q 403 2428 403 3163 
Q 403 3881 828 4315 
Q 1253 4750 1959 4750 
Q 2769 4750 3195 4129 
Q 3622 3509 3622 2328 
Q 3622 1225 3098 567 
Q 2575 -91 1691 -91 
Q 1453 -91 1209 -44 
Q 966 3 703 97 
z
M 1959 2075 
Q 2384 2075 2632 2365 
Q 2881 2656 2881 3163 
Q 2881 3666 2632 3958 
Q 2384 4250 1959 4250 
Q 1534 4250 1286 3958 
Q 1038 3666 1038 3163 
Q 1038 2656 1286 2365 
Q 1534 2075 1959 2075 
z
" transform="scale(0.015625)"/>
      </defs>
      <use xlink:href="#DejaVuSans-39"/>
     </g>
    </g>
   </g>
   <g id="text_11">
    <g clip-path="url(#p065ee8e1c8)">
     <!-- 10 -->
     <g style="opacity: 0" transform="translate(5.657746 24.45572) rotate(-50.395214) scale(0.12 -0.12)">
      <use xlink:href="#DejaVuSans-31"/>
      <use xlink:href="#DejaVuSans-30" transform="translate(63.623047 0)"/>
     </g>
    </g>
   </g>
  </g>
 </g>
 <defs>
  <clipPath id="p065ee8e1c8">
   <rect x="0" y="0" width="576" height="819.826276"/>
  </clipPath>
 </defs>
</svg>
