<?xml version="1.0" encoding="utf-8" standalone="no"?>
<!DOCTYPE svg PUBLIC "-//W3C//DTD SVG 1.1//EN"
  "http://www.w3.org/Graphics/SVG/1.1/DTD/svg11.dtd">
<svg xmlns:xlink="http://www.w3.org/1999/xlink" width="576pt" height="815.085071pt" viewBox="0 0 576 815.085071" xmlns="http://www.w3.org/2000/svg" version="1.1">
 <metadata>
  <rdf:RDF xmlns:dc="http://purl.org/dc/elements/1.1/" xmlns:cc="http://creativecommons.org/ns#" xmlns:rdf="http://www.w3.org/1999/02/22-rdf-syntax-ns#">
   <cc:Work>
    <dc:type rdf:resource="http://purl.org/dc/dcmitype/StillImage"/>
    <dc:date>2025-07-25T22:45:01.349676</dc:date>
    <dc:format>image/svg+xml</dc:format>
    <dc:creator>
     <cc:Agent>
      <dc:title>Matplotlib v3.10.3, https://matplotlib.org/</dc:title>
     </cc:Agent>
    </dc:creator>
   </cc:Work>
  </rdf:RDF>
 </metadata>
 <defs>
  <style type="text/css">*{stroke-linejoin: round; stroke-linecap: butt}</style>
 </defs>
 <g id="figure_1">
  <g id="patch_1">
   <path d="M 0 815.085071 
L 576 815.085071 
L 576 0 
L 0 0 
L 0 815.085071 
z
" style="fill: none; opacity: 0"/>
  </g>
  <g id="axes_1">
   <g id="QuadContourSet_1">
    <path d="M 3.272727 815.085071 
L 6.545455 815.085071 
L 9.818182 815.085071 
L 13.090909 815.085071 
L 16.363636 815.085071 
L 19.636364 815.085071 
L 22.909091 815.085071 
L 26.181818 815.085071 
L 29.454545 815.085071 
L 32.727273 815.085071 
L 36 815.085071 
L 39.272727 815.085071 
L 42.545455 815.085071 
L 45.818182 815.085071 
L 49.090909 815.085071 
L 52.363636 815.085071 
L 55.636364 815.085071 
L 58.909091 815.085071 
L 62.181818 815.085071 
L 65.454545 815.085071 
L 68.727273 815.085071 
L 72 815.085071 
L 75.272727 815.085071 
L 78.545455 815.085071 
L 81.818182 815.085071 
L 85.090909 815.085071 
L 88.363636 815.085071 
L 91.636364 815.085071 
L 94.909091 815.085071 
L 98.181818 815.085071 
L 101.454545 815.085071 
L 104.727273 815.085071 
L 108 815.085071 
L 111.272727 815.085071 
L 114.545455 815.085071 
L 117.818182 815.085071 
L 121.090909 815.085071 
L 124.363636 815.085071 
L 127.636364 815.085071 
L 130.909091 815.085071 
L 134.181818 815.085071 
L 137.454545 815.085071 
L 140.727273 815.085071 
L 144 815.085071 
L 147.272727 815.085071 
L 150.545455 815.085071 
L 153.818182 815.085071 
L 157.090909 815.085071 
L 160.363636 815.085071 
L 163.636364 815.085071 
L 166.909091 815.085071 
L 170.181818 815.085071 
L 173.454545 815.085071 
L 176.727273 815.085071 
L 180 815.085071 
L 183.272727 815.085071 
L 186.545455 815.085071 
L 189.818182 815.085071 
L 193.090909 815.085071 
L 196.363636 815.085071 
L 199.636364 815.085071 
L 202.909091 815.085071 
L 206.181818 815.085071 
L 209.454545 815.085071 
L 212.727273 815.085071 
L 216 815.085071 
L 219.272727 815.085071 
L 222.545455 815.085071 
L 225.818182 815.085071 
L 229.090909 815.085071 
L 232.363636 815.085071 
L 235.636364 815.085071 
L 238.909091 815.085071 
L 242.181818 815.085071 
L 245.454545 815.085071 
L 248.727273 815.085071 
L 252 815.085071 
L 255.272727 815.085071 
L 258.545455 815.085071 
L 261.818182 815.085071 
L 265.090909 815.085071 
L 268.363636 815.085071 
L 271.636364 815.085071 
L 274.909091 815.085071 
L 278.181818 815.085071 
L 281.454545 815.085071 
L 284.727273 815.085071 
L 288 815.085071 
L 291.272727 815.085071 
L 294.545455 815.085071 
L 297.818182 815.085071 
L 301.090909 815.085071 
L 304.363636 815.085071 
L 307.636364 815.085071 
L 310.909091 815.085071 
L 314.181818 815.085071 
L 317.454545 815.085071 
L 320.727273 815.085071 
L 324 815.085071 
L 327.272727 815.085071 
L 330.545455 815.085071 
L 333.818182 815.085071 
L 337.090909 815.085071 
L 340.363636 815.085071 
L 343.636364 815.085071 
L 346.909091 815.085071 
L 350.181818 815.085071 
L 353.454545 815.085071 
L 356.727273 815.085071 
L 360 815.085071 
L 363.272727 815.085071 
L 366.545455 815.085071 
L 369.818182 815.085071 
L 373.090909 815.085071 
L 376.363636 815.085071 
L 379.636364 815.085071 
L 382.909091 815.085071 
L 386.181818 815.085071 
L 389.454545 815.085071 
L 392.727273 815.085071 
L 396 815.085071 
L 399.272727 815.085071 
L 402.545455 815.085071 
L 405.818182 815.085071 
L 409.090909 815.085071 
L 412.363636 815.085071 
L 415.636364 815.085071 
L 418.909091 815.085071 
L 422.181818 815.085071 
L 425.454545 815.085071 
L 428.727273 815.085071 
L 432 815.085071 
L 435.272727 815.085071 
L 438.545455 815.085071 
L 441.818182 815.085071 
L 445.090909 815.085071 
L 448.363636 815.085071 
L 451.636364 815.085071 
L 454.909091 815.085071 
L 458.181818 815.085071 
L 461.454545 815.085071 
L 464.727273 815.085071 
L 468 815.085071 
L 471.272727 815.085071 
L 474.545455 815.085071 
L 477.818182 815.085071 
L 481.090909 815.085071 
L 484.363636 815.085071 
L 487.636364 815.085071 
L 490.909091 815.085071 
L 494.181818 815.085071 
L 497.454545 815.085071 
L 500.727273 815.085071 
L 504 815.085071 
L 507.272727 815.085071 
L 510.545455 815.085071 
L 513.818182 815.085071 
L 517.090909 815.085071 
L 520.363636 815.085071 
L 523.636364 815.085071 
L 526.909091 815.085071 
L 530.181818 815.085071 
L 533.454545 815.085071 
L 536.727273 815.085071 
L 540 815.085071 
L 543.272727 815.085071 
L 546.545455 815.085071 
L 549.818182 815.085071 
L 553.090909 815.085071 
L 556.363636 815.085071 
L 559.636364 815.085071 
L 562.909091 815.085071 
L 566.181818 815.085071 
L 569.454545 815.085071 
L 572.727273 815.085071 
L 576 815.085071 
L 576 811.811637 
L 576 808.538203 
L 576 805.264769 
L 576 801.991335 
L 576 798.717901 
L 576 795.444467 
L 576 792.171033 
L 576 788.897599 
L 576 785.624165 
L 576 782.350731 
L 576 779.077297 
L 576 775.803863 
L 576 772.530429 
L 576 769.256995 
L 576 765.983561 
L 576 762.710127 
L 576 759.436693 
L 576 756.163259 
L 576 752.889825 
L 576 749.616391 
L 576 746.342957 
L 576 743.069523 
L 576 739.796089 
L 576 736.522655 
L 576 733.249221 
L 576 729.975787 
L 576 726.702353 
L 576 723.428919 
L 576 720.155485 
L 576 716.88205 
L 576 713.608616 
L 576 710.335182 
L 576 707.061748 
L 576 703.788314 
L 576 700.51488 
L 576 697.241446 
L 576 693.968012 
L 576 690.694578 
L 576 687.421144 
L 576 684.14771 
L 576 680.874276 
L 576 677.600842 
L 576 674.327408 
L 576 671.053974 
L 576 667.78054 
L 576 664.507106 
L 576 661.233672 
L 576 657.960238 
L 576 654.686804 
L 576 651.41337 
L 576 648.139936 
L 576 644.866502 
L 576 641.593068 
L 576 638.319634 
L 576 635.0462 
L 576 631.772766 
L 576 628.499332 
L 576 625.225898 
L 576 621.952464 
L 576 618.67903 
L 576 615.405596 
L 576 612.132162 
L 576 608.858728 
L 576 605.585294 
L 576 602.31186 
L 576 599.038426 
L 576 595.764992 
L 576 592.491558 
L 576 589.218124 
L 576 585.94469 
L 576 582.671256 
L 576 579.397822 
L 576 576.124388 
L 576 572.850954 
L 576 569.57752 
L 576 566.304086 
L 576 563.030652 
L 576 559.757218 
L 576 556.483783 
L 576 553.210349 
L 576 549.936915 
L 576 546.663481 
L 576 543.390047 
L 576 540.116613 
L 576 536.843179 
L 576 533.569745 
L 576 530.296311 
L 576 527.022877 
L 576 523.749443 
L 576 520.476009 
L 576 517.202575 
L 576 513.929141 
L 576 510.655707 
L 576 507.382273 
L 576 504.108839 
L 576 500.835405 
L 576 497.561971 
L 576 494.288537 
L 576 491.015103 
L 576 487.741669 
L 576 484.468235 
L 576 481.194801 
L 576 477.921367 
L 576 474.647933 
L 576 471.374499 
L 576 468.101065 
L 576 464.827631 
L 576 461.554197 
L 576 458.280763 
L 576 455.007329 
L 576 451.733895 
L 576 448.460461 
L 576 445.187027 
L 576 441.913593 
L 576 438.640159 
L 576 435.366725 
L 576 432.093291 
L 576 428.819857 
L 576 425.546423 
L 576 422.272989 
L 576 418.999555 
L 576 415.726121 
L 576 412.452687 
L 576 409.179253 
L 576 405.905819 
L 576 402.632385 
L 576 399.358951 
L 576 396.085516 
L 576 392.812082 
L 576 389.538648 
L 576 386.265214 
L 576 382.99178 
L 576 379.718346 
L 576 376.444912 
L 576 373.171478 
L 576 369.898044 
L 576 366.62461 
L 576 363.351176 
L 576 360.077742 
L 576 356.804308 
L 576 353.530874 
L 576 350.25744 
L 576 346.984006 
L 576 343.710572 
L 576 340.437138 
L 576 337.163704 
L 576 333.89027 
L 576 330.616836 
L 576 327.343402 
L 576 324.069968 
L 576 320.796534 
L 576 317.5231 
L 576 314.249666 
L 576 310.976232 
L 576 307.702798 
L 576 304.429364 
L 576 301.15593 
L 576 297.882496 
L 576 294.609062 
L 576 291.335628 
L 576 288.062194 
L 576 284.78876 
L 576 281.515326 
L 576 278.241892 
L 576 274.968458 
L 576 271.695024 
L 576 268.42159 
L 576 265.148156 
L 576 261.874722 
L 576 258.601288 
L 576 255.327854 
L 576 252.05442 
L 576 248.780986 
L 576 245.507552 
L 576 242.234118 
L 576 238.960683 
L 576 235.687249 
L 576 232.413815 
L 576 229.140381 
L 576 225.866947 
L 576 222.593513 
L 576 219.320079 
L 576 216.046645 
L 576 212.773211 
L 576 209.499777 
L 576 206.226343 
L 576 202.952909 
L 576 199.679475 
L 576 196.406041 
L 576 193.132607 
L 576 189.859173 
L 576 186.585739 
L 576 183.312305 
L 576 180.038871 
L 576 176.765437 
L 576 173.492003 
L 576 170.218569 
L 576 166.945135 
L 576 163.671701 
L 576 160.398267 
L 576 157.124833 
L 576 153.851399 
L 576 150.577965 
L 576 147.304531 
L 576 144.031097 
L 576 140.757663 
L 576 137.484229 
L 576 134.210795 
L 576 130.937361 
L 576 127.663927 
L 576 124.390493 
L 576 121.117059 
L 576 117.843625 
L 576 114.570191 
L 576 111.296757 
L 576 108.023323 
L 576 104.749889 
L 576 101.476455 
L 576 98.203021 
L 576 94.929587 
L 576 91.656153 
L 576 88.382719 
L 576 85.109285 
L 576 81.835851 
L 576 78.562416 
L 576 75.288982 
L 576 72.015548 
L 576 68.742114 
L 576 65.46868 
L 576 62.195246 
L 576 58.921812 
L 576 55.648378 
L 576 52.374944 
L 576 49.10151 
L 576 45.828076 
L 576 42.554642 
L 576 39.281208 
L 576 36.007774 
L 576 32.73434 
L 576 29.460906 
L 576 26.187472 
L 576 22.914038 
L 576 19.640604 
L 576 16.36717 
L 576 13.093736 
L 576 9.820302 
L 576 6.546868 
L 576 3.273434 
L 576 0 
L 572.727273 0 
L 569.454545 0 
L 566.181818 0 
L 562.909091 0 
L 559.636364 0 
L 556.363636 0 
L 553.090909 0 
L 549.818182 0 
L 546.545455 0 
L 543.272727 0 
L 540 0 
L 536.727273 0 
L 533.454545 0 
L 530.181818 0 
L 526.909091 0 
L 523.636364 0 
L 520.363636 0 
L 517.090909 0 
L 513.818182 0 
L 510.545455 0 
L 507.272727 0 
L 504 0 
L 500.727273 0 
L 497.454545 0 
L 494.181818 0 
L 490.909091 0 
L 487.636364 0 
L 484.363636 0 
L 481.090909 0 
L 477.818182 0 
L 474.545455 0 
L 471.272727 0 
L 468 0 
L 464.727273 0 
L 461.454545 0 
L 458.181818 0 
L 454.909091 0 
L 451.636364 0 
L 448.363636 0 
L 445.090909 0 
L 441.818182 0 
L 438.545455 0 
L 435.272727 0 
L 432 0 
L 428.727273 0 
L 425.454545 0 
L 422.181818 0 
L 418.909091 0 
L 415.636364 0 
L 412.363636 0 
L 409.090909 0 
L 405.818182 0 
L 402.545455 0 
L 399.272727 0 
L 396 0 
L 392.727273 0 
L 389.454545 0 
L 386.181818 0 
L 382.909091 0 
L 379.636364 0 
L 376.363636 0 
L 373.090909 0 
L 369.818182 0 
L 366.545455 0 
L 363.272727 0 
L 360 0 
L 356.727273 0 
L 353.454545 0 
L 350.181818 0 
L 346.909091 0 
L 343.636364 0 
L 340.363636 0 
L 337.090909 0 
L 333.818182 0 
L 330.545455 0 
L 327.272727 0 
L 324 0 
L 320.727273 0 
L 317.454545 0 
L 314.181818 0 
L 310.909091 0 
L 307.636364 0 
L 304.363636 0 
L 301.090909 0 
L 297.818182 0 
L 294.545455 0 
L 291.272727 0 
L 288 0 
L 284.727273 0 
L 281.454545 0 
L 278.181818 0 
L 274.909091 0 
L 271.636364 0 
L 268.363636 0 
L 265.090909 0 
L 261.818182 0 
L 258.545455 0 
L 255.272727 0 
L 252 0 
L 248.727273 0 
L 245.454545 0 
L 242.181818 0 
L 238.909091 0 
L 235.636364 0 
L 232.363636 0 
L 229.090909 0 
L 225.818182 0 
L 222.545455 0 
L 219.272727 0 
L 216 0 
L 212.727273 0 
L 209.454545 0 
L 206.181818 0 
L 202.909091 0 
L 199.636364 0 
L 196.363636 0 
L 193.090909 0 
L 189.818182 0 
L 186.545455 0 
L 183.272727 0 
L 180 0 
L 176.727273 0 
L 173.454545 0 
L 170.181818 0 
L 166.909091 0 
L 163.636364 0 
L 160.363636 0 
L 157.090909 0 
L 153.818182 0 
L 150.545455 0 
L 147.272727 0 
L 144 0 
L 140.727273 0 
L 137.454545 0 
L 134.181818 0 
L 130.909091 0 
L 127.636364 0 
L 124.363636 0 
L 121.090909 0 
L 117.818182 0 
L 114.545455 0 
L 111.272727 0 
L 108 0 
L 104.727273 0 
L 101.454545 0 
L 98.181818 0 
L 94.909091 0 
L 91.636364 0 
L 88.363636 0 
L 85.090909 0 
L 81.818182 0 
L 78.545455 0 
L 75.272727 0 
L 72 0 
L 68.727273 0 
L 65.454545 0 
L 62.181818 0 
L 58.909091 0 
L 55.636364 0 
L 52.363636 0 
L 49.090909 0 
L 45.818182 0 
L 42.545455 0 
L 39.272727 0 
L 36 0 
L 32.727273 0 
L 29.454545 0 
L 26.181818 0 
L 22.909091 0 
L 19.636364 0 
L 16.363636 0 
L 13.090909 0 
L 9.818182 0 
L 6.545455 0 
L 3.272727 0 
L 0 0 
L 0 3.273434 
L 0 6.546868 
L 0 9.820302 
L 0 13.093736 
L 0 16.36717 
L 0 19.640604 
L 0 22.914038 
L 0 26.187472 
L 0 29.460906 
L 0 32.73434 
L 0 36.007774 
L 0 39.281208 
L 0 42.554642 
L 0 45.828076 
L 0 49.10151 
L 0 52.374944 
L 0 55.648378 
L 0 58.921812 
L 0 62.195246 
L 0 65.46868 
L 0 68.742114 
L 0 72.015548 
L 0 75.288982 
L 0 78.562416 
L 0 81.835851 
L 0 85.109285 
L 0 88.382719 
L 0 91.656153 
L 0 94.929587 
L 0 98.203021 
L 0 101.476455 
L 0 104.749889 
L 0 108.023323 
L 0 111.296757 
L 0 114.570191 
L 0 117.843625 
L 0 121.117059 
L 0 124.390493 
L 0 127.663927 
L 0 130.937361 
L 0 134.210795 
L 0 137.484229 
L 0 140.757663 
L 0 144.031097 
L 0 147.304531 
L 0 150.577965 
L 0 153.851399 
L 0 157.124833 
L 0 160.398267 
L 0 163.671701 
L 0 166.945135 
L 0 170.218569 
L 0 173.492003 
L 0 176.765437 
L 0 180.038871 
L 0 183.312305 
L 0 186.585739 
L 0 189.859173 
L 0 193.132607 
L 0 196.406041 
L 0 199.679475 
L 0 202.952909 
L 0 206.226343 
L 0 209.499777 
L 0 212.773211 
L 0 216.046645 
L 0 219.320079 
L 0 222.593513 
L 0 225.866947 
L 0 229.140381 
L 0 232.413815 
L 0 235.687249 
L 0 238.960683 
L 0 242.234118 
L 0 245.507552 
L 0 248.780986 
L 0 252.05442 
L 0 255.327854 
L 0 258.601288 
L 0 261.874722 
L 0 265.148156 
L 0 268.42159 
L 0 271.695024 
L 0 274.968458 
L 0 278.241892 
L 0 281.515326 
L 0 284.78876 
L 0 288.062194 
L 0 291.335628 
L 0 294.609062 
L 0 297.882496 
L 0 301.15593 
L 0 304.429364 
L 0 307.702798 
L 0 310.976232 
L 0 314.249666 
L 0 317.5231 
L 0 320.796534 
L 0 324.069968 
L 0 327.343402 
L 0 330.616836 
L 0 333.89027 
L 0 337.163704 
L 0 340.437138 
L 0 343.710572 
L 0 346.984006 
L 0 350.25744 
L 0 353.530874 
L 0 356.804308 
L 0 360.077742 
L 0 363.351176 
L 0 366.62461 
L 0 369.898044 
L 0 373.171478 
L 0 376.444912 
L 0 379.718346 
L 0 382.99178 
L 0 386.265214 
L 0 389.538648 
L 0 392.812082 
L 0 396.085516 
L 0 399.358951 
L 0 402.632385 
L 0 405.905819 
L 0 409.179253 
L 0 412.452687 
L 0 415.726121 
L 0 418.999555 
L 0 422.272989 
L 0 425.546423 
L 0 428.819857 
L 0 432.093291 
L 0 435.366725 
L 0 438.640159 
L 0 441.913593 
L 0 445.187027 
L 0 448.460461 
L 0 451.733895 
L 0 455.007329 
L 0 458.280763 
L 0 461.554197 
L 0 464.827631 
L 0 468.101065 
L 0 471.374499 
L 0 474.647933 
L 0 477.921367 
L 0 481.194801 
L 0 484.468235 
L 0 487.741669 
L 0 491.015103 
L 0 494.288537 
L 0 497.561971 
L 0 500.835405 
L 0 504.108839 
L 0 507.382273 
L 0 510.655707 
L 0 513.929141 
L 0 517.202575 
L 0 520.476009 
L 0 523.749443 
L 0 527.022877 
L 0 530.296311 
L 0 533.569745 
L 0 536.843179 
L 0 540.116613 
L 0 543.390047 
L 0 546.663481 
L 0 549.936915 
L 0 553.210349 
L 0 556.483783 
L 0 559.757218 
L 0 563.030652 
L 0 566.304086 
L 0 569.57752 
L 0 572.850954 
L 0 576.124388 
L 0 579.397822 
L 0 582.671256 
L 0 585.94469 
L 0 589.218124 
L 0 592.491558 
L 0 595.764992 
L 0 599.038426 
L 0 602.31186 
L 0 605.585294 
L 0 608.858728 
L 0 612.132162 
L 0 615.405596 
L 0 618.67903 
L 0 621.952464 
L 0 625.225898 
L 0 628.499332 
L 0 631.772766 
L 0 635.0462 
L 0 638.319634 
L 0 641.593068 
L 0 644.866502 
L 0 648.139936 
L 0 651.41337 
L 0 654.686804 
L 0 657.960238 
L 0 661.233672 
L 0 664.507106 
L 0 667.78054 
L 0 671.053974 
L 0 674.327408 
L 0 677.600842 
L 0 680.874276 
L 0 684.14771 
L 0 687.421144 
L 0 690.694578 
L 0 693.968012 
L 0 697.241446 
L 0 700.51488 
L 0 703.788314 
L 0 707.061748 
L 0 710.335182 
L 0 713.608616 
L 0 716.88205 
L 0 720.155485 
L 0 723.428919 
L 0 726.702353 
L 0 729.975787 
L 0 733.249221 
L 0 736.522655 
L 0 739.796089 
L 0 743.069523 
L 0 746.342957 
L 0 749.616391 
L 0 752.889825 
L 0 756.163259 
L 0 759.436693 
L 0 762.710127 
L 0 765.983561 
L 0 769.256995 
L 0 772.530429 
L 0 775.803863 
L 0 779.077297 
L 0 782.350731 
L 0 785.624165 
L 0 788.897599 
L 0 792.171033 
L 0 795.444467 
L 0 798.717901 
L 0 801.991335 
L 0 805.264769 
L 0 808.538203 
L 0 811.811637 
L 0 815.085071 
z
" clip-path="url(#pb8eaf26734)" style="fill: #f5f9fe; fill-opacity: 0.9"/>
    <path clip-path="url(#pb8eaf26734)" style="fill: #eff6fc; fill-opacity: 0.9"/>
    <path clip-path="url(#pb8eaf26734)" style="fill: #eaf3fb; fill-opacity: 0.9"/>
    <path clip-path="url(#pb8eaf26734)" style="fill: #e5eff9; fill-opacity: 0.9"/>
    <path clip-path="url(#pb8eaf26734)" style="fill: #dfecf7; fill-opacity: 0.9"/>
    <path clip-path="url(#pb8eaf26734)" style="fill: #dae8f6; fill-opacity: 0.9"/>
    <path clip-path="url(#pb8eaf26734)" style="fill: #d6e5f4; fill-opacity: 0.9"/>
    <path clip-path="url(#pb8eaf26734)" style="fill: #d0e2f2; fill-opacity: 0.9"/>
    <path clip-path="url(#pb8eaf26734)" style="fill: #cbdef1; fill-opacity: 0.9"/>
    <path clip-path="url(#pb8eaf26734)" style="fill: #c6dbef; fill-opacity: 0.9"/>
    <path clip-path="url(#pb8eaf26734)" style="fill: #bed8ec; fill-opacity: 0.9"/>
    <path clip-path="url(#pb8eaf26734)" style="fill: #b5d4e9; fill-opacity: 0.9"/>
    <path clip-path="url(#pb8eaf26734)" style="fill: #add0e6; fill-opacity: 0.9"/>
    <path clip-path="url(#pb8eaf26734)" style="fill: #a5cde3; fill-opacity: 0.9"/>
    <path clip-path="url(#pb8eaf26734)" style="fill: #9cc9e1; fill-opacity: 0.9"/>
    <path clip-path="url(#pb8eaf26734)" style="fill: #91c3de; fill-opacity: 0.9"/>
    <path clip-path="url(#pb8eaf26734)" style="fill: #85bcdc; fill-opacity: 0.9"/>
    <path clip-path="url(#pb8eaf26734)" style="fill: #7cb7da; fill-opacity: 0.9"/>
    <path clip-path="url(#pb8eaf26734)" style="fill: #71b1d7; fill-opacity: 0.9"/>
    <path clip-path="url(#pb8eaf26734)" style="fill: #66abd4; fill-opacity: 0.9"/>
    <path clip-path="url(#pb8eaf26734)" style="fill: #5da5d1; fill-opacity: 0.9"/>
    <path clip-path="url(#pb8eaf26734)" style="fill: #56a0ce; fill-opacity: 0.9"/>
    <path clip-path="url(#pb8eaf26734)" style="fill: #4d99ca; fill-opacity: 0.9"/>
    <path clip-path="url(#pb8eaf26734)" style="fill: #4493c7; fill-opacity: 0.9"/>
    <path clip-path="url(#pb8eaf26734)" style="fill: #3c8cc3; fill-opacity: 0.9"/>
    <path clip-path="url(#pb8eaf26734)" style="fill: #3686c0; fill-opacity: 0.9"/>
    <path clip-path="url(#pb8eaf26734)" style="fill: #2f7fbc; fill-opacity: 0.9"/>
    <path clip-path="url(#pb8eaf26734)" style="fill: #2777b8; fill-opacity: 0.9"/>
    <path clip-path="url(#pb8eaf26734)" style="fill: #2070b4; fill-opacity: 0.9"/>
    <path clip-path="url(#pb8eaf26734)" style="fill: #1c6ab0; fill-opacity: 0.9"/>
    <path clip-path="url(#pb8eaf26734)" style="fill: #1663aa; fill-opacity: 0.9"/>
    <path clip-path="url(#pb8eaf26734)" style="fill: #115ca5; fill-opacity: 0.9"/>
    <path clip-path="url(#pb8eaf26734)" style="fill: #0c56a0; fill-opacity: 0.9"/>
    <path clip-path="url(#pb8eaf26734)" style="fill: #084f99; fill-opacity: 0.9"/>
    <path clip-path="url(#pb8eaf26734)" style="fill: #08488e; fill-opacity: 0.9"/>
    <path clip-path="url(#pb8eaf26734)" style="fill: #084184; fill-opacity: 0.9"/>
    <path clip-path="url(#pb8eaf26734)" style="fill: #083a7a; fill-opacity: 0.9"/>
    <path clip-path="url(#pb8eaf26734)" style="fill: #083370; fill-opacity: 0.9"/>
    <path clip-path="url(#pb8eaf26734)" style="fill: #08306b; fill-opacity: 0.9"/>
   </g>
   <g id="QuadContourSet_2">
    <path clip-path="url(#pb8eaf26734)" style="fill: none"/>
    <path clip-path="url(#pb8eaf26734)" style="fill: none"/>
    <path clip-path="url(#pb8eaf26734)" style="fill: none"/>
    <path clip-path="url(#pb8eaf26734)" style="fill: none"/>
    <path clip-path="url(#pb8eaf26734)" style="fill: none"/>
    <path clip-path="url(#pb8eaf26734)" style="fill: none"/>
    <path clip-path="url(#pb8eaf26734)" style="fill: none"/>
    <path clip-path="url(#pb8eaf26734)" style="fill: none"/>
    <path clip-path="url(#pb8eaf26734)" style="fill: none"/>
    <path clip-path="url(#pb8eaf26734)" style="fill: none"/>
    <path clip-path="url(#pb8eaf26734)" style="fill: none"/>
    <path clip-path="url(#pb8eaf26734)" style="fill: none"/>
    <path clip-path="url(#pb8eaf26734)" style="fill: none"/>
    <path clip-path="url(#pb8eaf26734)" style="fill: none"/>
    <path clip-path="url(#pb8eaf26734)" style="fill: none"/>
    <path clip-path="url(#pb8eaf26734)" style="fill: none"/>
    <path clip-path="url(#pb8eaf26734)" style="fill: none"/>
    <path clip-path="url(#pb8eaf26734)" style="fill: none"/>
    <path clip-path="url(#pb8eaf26734)" style="fill: none"/>
    <path clip-path="url(#pb8eaf26734)" style="fill: none"/>
    <path clip-path="url(#pb8eaf26734)" style="fill: none"/>
    <path clip-path="url(#pb8eaf26734)" style="fill: none"/>
    <path clip-path="url(#pb8eaf26734)" style="fill: none"/>
    <path clip-path="url(#pb8eaf26734)" style="fill: none"/>
    <path clip-path="url(#pb8eaf26734)" style="fill: none"/>
    <path clip-path="url(#pb8eaf26734)" style="fill: none"/>
    <path clip-path="url(#pb8eaf26734)" style="fill: none"/>
    <path clip-path="url(#pb8eaf26734)" style="fill: none"/>
    <path clip-path="url(#pb8eaf26734)" style="fill: none"/>
    <path clip-path="url(#pb8eaf26734)" style="fill: none"/>
    <path clip-path="url(#pb8eaf26734)" style="fill: none"/>
    <path clip-path="url(#pb8eaf26734)" style="fill: none"/>
    <path clip-path="url(#pb8eaf26734)" style="fill: none"/>
    <path clip-path="url(#pb8eaf26734)" style="fill: none"/>
    <path clip-path="url(#pb8eaf26734)" style="fill: none"/>
    <path clip-path="url(#pb8eaf26734)" style="fill: none"/>
    <path clip-path="url(#pb8eaf26734)" style="fill: none"/>
    <path clip-path="url(#pb8eaf26734)" style="fill: none"/>
    <path clip-path="url(#pb8eaf26734)" style="fill: none"/>
   </g>
  </g>
 </g>
 <defs>
  <clipPath id="pb8eaf26734">
   <rect x="0" y="0" width="576" height="815.085071"/>
  </clipPath>
 </defs>
</svg>
