<?xml version="1.0" encoding="utf-8" standalone="no"?>
<!DOCTYPE svg PUBLIC "-//W3C//DTD SVG 1.1//EN"
  "http://www.w3.org/Graphics/SVG/1.1/DTD/svg11.dtd">
<svg xmlns:xlink="http://www.w3.org/1999/xlink" width="576pt" height="816.369996pt" viewBox="0 0 576 816.369996" xmlns="http://www.w3.org/2000/svg" version="1.1">
 <metadata>
  <rdf:RDF xmlns:dc="http://purl.org/dc/elements/1.1/" xmlns:cc="http://creativecommons.org/ns#" xmlns:rdf="http://www.w3.org/1999/02/22-rdf-syntax-ns#">
   <cc:Work>
    <dc:type rdf:resource="http://purl.org/dc/dcmitype/StillImage"/>
    <dc:date>2025-07-25T22:44:41.856786</dc:date>
    <dc:format>image/svg+xml</dc:format>
    <dc:creator>
     <cc:Agent>
      <dc:title>Matplotlib v3.10.3, https://matplotlib.org/</dc:title>
     </cc:Agent>
    </dc:creator>
   </cc:Work>
  </rdf:RDF>
 </metadata>
 <defs>
  <style type="text/css">*{stroke-linejoin: round; stroke-linecap: butt}</style>
 </defs>
 <g id="figure_1">
  <g id="patch_1">
   <path d="M 0 816.369996 
L 576 816.369996 
L 576 0 
L 0 0 
L 0 816.369996 
z
" style="fill: none; opacity: 0"/>
  </g>
  <g id="axes_1">
   <g id="QuadContourSet_1">
    <path d="M 3.272727 816.369996 
L 6.545455 816.369996 
L 9.818182 816.369996 
L 13.090909 816.369996 
L 16.363636 816.369996 
L 19.636364 816.369996 
L 22.909091 816.369996 
L 26.181818 816.369996 
L 29.454545 816.369996 
L 32.727273 816.369996 
L 36 816.369996 
L 39.272727 816.369996 
L 42.545455 816.369996 
L 45.818182 816.369996 
L 49.090909 816.369996 
L 52.363636 816.369996 
L 55.636364 816.369996 
L 58.909091 816.369996 
L 62.181818 816.369996 
L 65.454545 816.369996 
L 68.727273 816.369996 
L 72 816.369996 
L 75.272727 816.369996 
L 78.545455 816.369996 
L 81.818182 816.369996 
L 85.090909 816.369996 
L 88.363636 816.369996 
L 91.636364 816.369996 
L 94.909091 816.369996 
L 98.181818 816.369996 
L 101.454545 816.369996 
L 104.727273 816.369996 
L 108 816.369996 
L 111.272727 816.369996 
L 114.545455 816.369996 
L 117.818182 816.369996 
L 121.090909 816.369996 
L 124.363636 816.369996 
L 127.636364 816.369996 
L 130.909091 816.369996 
L 134.181818 816.369996 
L 137.454545 816.369996 
L 140.727273 816.369996 
L 144 816.369996 
L 147.272727 816.369996 
L 150.545455 816.369996 
L 153.818182 816.369996 
L 157.090909 816.369996 
L 160.363636 816.369996 
L 163.636364 816.369996 
L 166.909091 816.369996 
L 170.181818 816.369996 
L 173.454545 816.369996 
L 176.727273 816.369996 
L 180 816.369996 
L 183.272727 816.369996 
L 186.545455 816.369996 
L 189.818182 816.369996 
L 193.090909 816.369996 
L 196.363636 816.369996 
L 199.636364 816.369996 
L 202.909091 816.369996 
L 206.181818 816.369996 
L 209.454545 816.369996 
L 212.727273 816.369996 
L 216 816.369996 
L 219.272727 816.369996 
L 222.545455 816.369996 
L 225.818182 816.369996 
L 229.090909 816.369996 
L 232.363636 816.369996 
L 235.636364 816.369996 
L 238.909091 816.369996 
L 242.181818 816.369996 
L 245.454545 816.369996 
L 248.727273 816.369996 
L 252 816.369996 
L 255.272727 816.369996 
L 258.545455 816.369996 
L 261.818182 816.369996 
L 265.090909 816.369996 
L 268.363636 816.369996 
L 271.636364 816.369996 
L 274.909091 816.369996 
L 278.181818 816.369996 
L 281.454545 816.369996 
L 284.727273 816.369996 
L 288 816.369996 
L 291.272727 816.369996 
L 294.545455 816.369996 
L 297.818182 816.369996 
L 301.090909 816.369996 
L 304.363636 816.369996 
L 307.636364 816.369996 
L 310.909091 816.369996 
L 314.181818 816.369996 
L 317.454545 816.369996 
L 320.727273 816.369996 
L 324 816.369996 
L 327.272727 816.369996 
L 330.545455 816.369996 
L 333.818182 816.369996 
L 337.090909 816.369996 
L 340.363636 816.369996 
L 343.636364 816.369996 
L 346.909091 816.369996 
L 350.181818 816.369996 
L 353.454545 816.369996 
L 356.727273 816.369996 
L 360 816.369996 
L 363.272727 816.369996 
L 366.545455 816.369996 
L 369.818182 816.369996 
L 373.090909 816.369996 
L 376.363636 816.369996 
L 379.636364 816.369996 
L 382.909091 816.369996 
L 386.181818 816.369996 
L 389.454545 816.369996 
L 392.727273 816.369996 
L 396 816.369996 
L 399.272727 816.369996 
L 402.545455 816.369996 
L 405.818182 816.369996 
L 409.090909 816.369996 
L 412.363636 816.369996 
L 415.636364 816.369996 
L 418.909091 816.369996 
L 422.181818 816.369996 
L 425.454545 816.369996 
L 428.727273 816.369996 
L 432 816.369996 
L 435.272727 816.369996 
L 438.545455 816.369996 
L 441.818182 816.369996 
L 445.090909 816.369996 
L 448.363636 816.369996 
L 451.636364 816.369996 
L 454.909091 816.369996 
L 458.181818 816.369996 
L 461.454545 816.369996 
L 464.727273 816.369996 
L 468 816.369996 
L 471.272727 816.369996 
L 474.545455 816.369996 
L 477.818182 816.369996 
L 481.090909 816.369996 
L 484.363636 816.369996 
L 487.636364 816.369996 
L 490.909091 816.369996 
L 494.181818 816.369996 
L 497.454545 816.369996 
L 500.727273 816.369996 
L 504 816.369996 
L 507.272727 816.369996 
L 510.545455 816.369996 
L 513.818182 816.369996 
L 517.090909 816.369996 
L 520.363636 816.369996 
L 523.636364 816.369996 
L 526.909091 816.369996 
L 530.181818 816.369996 
L 533.454545 816.369996 
L 536.727273 816.369996 
L 540 816.369996 
L 543.272727 816.369996 
L 546.545455 816.369996 
L 549.818182 816.369996 
L 553.090909 816.369996 
L 556.363636 816.369996 
L 559.636364 816.369996 
L 562.909091 816.369996 
L 566.181818 816.369996 
L 569.454545 816.369996 
L 572.727273 816.369996 
L 576 816.369996 
L 576 813.091402 
L 576 809.812808 
L 576 806.534213 
L 576 803.255619 
L 576 799.977025 
L 576 796.69843 
L 576 793.419836 
L 576 790.141241 
L 576 786.862647 
L 576 783.584053 
L 576 780.305458 
L 576 777.026864 
L 576 773.74827 
L 576 770.469675 
L 576 767.191081 
L 576 763.912487 
L 576 760.633892 
L 576 757.355298 
L 576 754.076703 
L 576 750.798109 
L 576 747.519515 
L 576 744.24092 
L 576 740.962326 
L 576 737.683732 
L 576 734.405137 
L 576 731.126543 
L 576 727.847949 
L 576 724.569354 
L 576 721.29076 
L 576 718.012165 
L 576 714.733571 
L 576 711.454977 
L 576 708.176382 
L 576 704.897788 
L 576 701.619194 
L 576 698.340599 
L 576 695.062005 
L 576 691.783411 
L 576 688.504816 
L 576 685.226222 
L 576 681.947627 
L 576 678.669033 
L 576 675.390439 
L 576 672.111844 
L 576 668.83325 
L 576 665.554656 
L 576 662.276061 
L 576 658.997467 
L 576 655.718873 
L 576 652.440278 
L 576 649.161684 
L 576 645.88309 
L 576 642.604495 
L 576 639.325901 
L 576 636.047306 
L 576 632.768712 
L 576 629.490118 
L 576 626.211523 
L 576 622.932929 
L 576 619.654335 
L 576 616.37574 
L 576 613.097146 
L 576 609.818552 
L 576 606.539957 
L 576 603.261363 
L 576 599.982768 
L 576 596.704174 
L 576 593.42558 
L 576 590.146985 
L 576 586.868391 
L 576 583.589797 
L 576 580.311202 
L 576 577.032608 
L 576 573.754014 
L 576 570.475419 
L 576 567.196825 
L 576 563.91823 
L 576 560.639636 
L 576 557.361042 
L 576 554.082447 
L 576 550.803853 
L 576 547.525259 
L 576 544.246664 
L 576 540.96807 
L 576 537.689476 
L 576 534.410881 
L 576 531.132287 
L 576 527.853692 
L 576 524.575098 
L 576 521.296504 
L 576 518.017909 
L 576 514.739315 
L 576 511.460721 
L 576 508.182126 
L 576 504.903532 
L 576 501.624938 
L 576 498.346343 
L 576 495.067749 
L 576 491.789154 
L 576 488.51056 
L 576 485.231966 
L 576 481.953371 
L 576 478.674777 
L 576 475.396183 
L 576 472.117588 
L 576 468.838994 
L 576 465.5604 
L 576 462.281805 
L 576 459.003211 
L 576 455.724616 
L 576 452.446022 
L 576 449.167428 
L 576 445.888833 
L 576 442.610239 
L 576 439.331645 
L 576 436.05305 
L 576 432.774456 
L 576 429.495862 
L 576 426.217267 
L 576 422.938673 
L 576 419.660078 
L 576 416.381484 
L 576 413.10289 
L 576 409.824295 
L 576 406.545701 
L 576 403.267107 
L 576 399.988512 
L 576 396.709918 
L 576 393.431324 
L 576 390.152729 
L 576 386.874135 
L 576 383.59554 
L 576 380.316946 
L 576 377.038352 
L 576 373.759757 
L 576 370.481163 
L 576 367.202569 
L 576 363.923974 
L 576 360.64538 
L 576 357.366786 
L 576 354.088191 
L 576 350.809597 
L 576 347.531002 
L 576 344.252408 
L 576 340.973814 
L 576 337.695219 
L 576 334.416625 
L 576 331.138031 
L 576 327.859436 
L 576 324.580842 
L 576 321.302248 
L 576 318.023653 
L 576 314.745059 
L 576 311.466464 
L 576 308.18787 
L 576 304.909276 
L 576 301.630681 
L 576 298.352087 
L 576 295.073493 
L 576 291.794898 
L 576 288.516304 
L 576 285.23771 
L 576 281.959115 
L 576 278.680521 
L 576 275.401926 
L 576 272.123332 
L 576 268.844738 
L 576 265.566143 
L 576 262.287549 
L 576 259.008955 
L 576 255.73036 
L 576 252.451766 
L 576 249.173172 
L 576 245.894577 
L 576 242.615983 
L 576 239.337388 
L 576 236.058794 
L 576 232.7802 
L 576 229.501605 
L 576 226.223011 
L 576 222.944417 
L 576 219.665822 
L 576 216.387228 
L 576 213.108634 
L 576 209.830039 
L 576 206.551445 
L 576 203.272851 
L 576 199.994256 
L 576 196.715662 
L 576 193.437067 
L 576 190.158473 
L 576 186.879879 
L 576 183.601284 
L 576 180.32269 
L 576 177.044096 
L 576 173.765501 
L 576 170.486907 
L 576 167.208313 
L 576 163.929718 
L 576 160.651124 
L 576 157.372529 
L 576 154.093935 
L 576 150.815341 
L 576 147.536746 
L 576 144.258152 
L 576 140.979558 
L 576 137.700963 
L 576 134.422369 
L 576 131.143775 
L 576 127.86518 
L 576 124.586586 
L 576 121.307991 
L 576 118.029397 
L 576 114.750803 
L 576 111.472208 
L 576 108.193614 
L 576 104.91502 
L 576 101.636425 
L 576 98.357831 
L 576 95.079237 
L 576 91.800642 
L 576 88.522048 
L 576 85.243453 
L 576 81.964859 
L 576 78.686265 
L 576 75.40767 
L 576 72.129076 
L 576 68.850482 
L 576 65.571887 
L 576 62.293293 
L 576 59.014699 
L 576 55.736104 
L 576 52.45751 
L 576 49.178915 
L 576 45.900321 
L 576 42.621727 
L 576 39.343132 
L 576 36.064538 
L 576 32.785944 
L 576 29.507349 
L 576 26.228755 
L 576 22.950161 
L 576 19.671566 
L 576 16.392972 
L 576 13.114377 
L 576 9.835783 
L 576 6.557189 
L 576 3.278594 
L 576 0 
L 572.727273 0 
L 569.454545 0 
L 566.181818 0 
L 562.909091 0 
L 559.636364 0 
L 556.363636 0 
L 553.090909 0 
L 549.818182 0 
L 546.545455 0 
L 543.272727 0 
L 540 0 
L 536.727273 0 
L 533.454545 0 
L 530.181818 0 
L 526.909091 0 
L 523.636364 0 
L 520.363636 0 
L 517.090909 0 
L 513.818182 0 
L 510.545455 0 
L 507.272727 0 
L 504 0 
L 500.727273 0 
L 497.454545 0 
L 494.181818 0 
L 490.909091 0 
L 487.636364 0 
L 484.363636 0 
L 481.090909 0 
L 477.818182 0 
L 474.545455 0 
L 471.272727 0 
L 468 0 
L 464.727273 0 
L 461.454545 0 
L 458.181818 0 
L 454.909091 0 
L 451.636364 0 
L 448.363636 0 
L 445.090909 0 
L 441.818182 0 
L 438.545455 0 
L 435.272727 0 
L 432 0 
L 428.727273 0 
L 425.454545 0 
L 422.181818 0 
L 418.909091 0 
L 415.636364 0 
L 412.363636 0 
L 409.090909 0 
L 405.818182 0 
L 402.545455 0 
L 399.272727 0 
L 396 0 
L 392.727273 0 
L 389.454545 0 
L 386.181818 0 
L 382.909091 0 
L 379.636364 0 
L 376.363636 0 
L 373.090909 0 
L 369.818182 0 
L 366.545455 0 
L 363.272727 0 
L 360 0 
L 356.727273 0 
L 353.454545 0 
L 350.181818 0 
L 346.909091 0 
L 343.636364 0 
L 340.363636 0 
L 337.090909 0 
L 333.818182 0 
L 330.545455 0 
L 327.272727 0 
L 324 0 
L 320.727273 0 
L 317.454545 0 
L 314.181818 0 
L 310.909091 0 
L 307.636364 0 
L 304.363636 0 
L 301.090909 0 
L 297.818182 0 
L 294.545455 0 
L 291.272727 0 
L 288 0 
L 284.727273 0 
L 281.454545 0 
L 278.181818 0 
L 274.909091 0 
L 271.636364 0 
L 268.363636 0 
L 265.090909 0 
L 261.818182 0 
L 258.545455 0 
L 255.272727 0 
L 252 0 
L 248.727273 0 
L 245.454545 0 
L 242.181818 0 
L 238.909091 0 
L 235.636364 0 
L 232.363636 0 
L 229.090909 0 
L 225.818182 0 
L 222.545455 0 
L 219.272727 0 
L 216 0 
L 212.727273 0 
L 209.454545 0 
L 206.181818 0 
L 202.909091 0 
L 199.636364 0 
L 196.363636 0 
L 193.090909 0 
L 189.818182 0 
L 186.545455 0 
L 183.272727 0 
L 180 0 
L 176.727273 0 
L 173.454545 0 
L 170.181818 0 
L 166.909091 0 
L 163.636364 0 
L 160.363636 0 
L 157.090909 0 
L 153.818182 0 
L 150.545455 0 
L 147.272727 0 
L 144 0 
L 140.727273 0 
L 137.454545 0 
L 134.181818 0 
L 130.909091 0 
L 127.636364 0 
L 124.363636 0 
L 121.090909 0 
L 117.818182 0 
L 114.545455 0 
L 111.272727 0 
L 108 0 
L 104.727273 0 
L 101.454545 0 
L 98.181818 0 
L 94.909091 0 
L 91.636364 0 
L 88.363636 0 
L 85.090909 0 
L 81.818182 0 
L 78.545455 0 
L 75.272727 0 
L 72 0 
L 68.727273 0 
L 65.454545 0 
L 62.181818 0 
L 58.909091 0 
L 55.636364 0 
L 52.363636 0 
L 49.090909 0 
L 45.818182 0 
L 42.545455 0 
L 39.272727 0 
L 36 0 
L 32.727273 0 
L 29.454545 0 
L 26.181818 0 
L 22.909091 0 
L 19.636364 0 
L 16.363636 0 
L 13.090909 0 
L 9.818182 0 
L 6.545455 0 
L 3.272727 0 
L 0 0 
L 0 3.278594 
L 0 6.557189 
L 0 9.835783 
L 0 13.114377 
L 0 16.392972 
L 0 19.671566 
L 0 22.950161 
L 0 26.228755 
L 0 29.507349 
L 0 32.785944 
L 0 36.064538 
L 0 39.343132 
L 0 42.621727 
L 0 45.900321 
L 0 49.178915 
L 0 52.45751 
L 0 55.736104 
L 0 59.014699 
L 0 62.293293 
L 0 65.571887 
L 0 68.850482 
L 0 72.129076 
L 0 75.40767 
L 0 78.686265 
L 0 81.964859 
L 0 85.243453 
L 0 88.522048 
L 0 91.800642 
L 0 95.079237 
L 0 98.357831 
L 0 101.636425 
L 0 104.91502 
L 0 108.193614 
L 0 111.472208 
L 0 114.750803 
L 0 118.029397 
L 0 121.307991 
L 0 124.586586 
L 0 127.86518 
L 0 131.143775 
L 0 134.422369 
L 0 137.700963 
L 0 140.979558 
L 0 144.258152 
L 0 147.536746 
L 0 150.815341 
L 0 154.093935 
L 0 157.372529 
L 0 160.651124 
L 0 163.929718 
L 0 167.208313 
L 0 170.486907 
L 0 173.765501 
L 0 177.044096 
L 0 180.32269 
L 0 183.601284 
L 0 186.879879 
L 0 190.158473 
L 0 193.437067 
L 0 196.715662 
L 0 199.994256 
L 0 203.272851 
L 0 206.551445 
L 0 209.830039 
L 0 213.108634 
L 0 216.387228 
L 0 219.665822 
L 0 222.944417 
L 0 226.223011 
L 0 229.501605 
L 0 232.7802 
L 0 236.058794 
L 0 239.337388 
L 0 242.615983 
L 0 245.894577 
L 0 249.173172 
L 0 252.451766 
L 0 255.73036 
L 0 259.008955 
L 0 262.287549 
L 0 265.566143 
L 0 268.844738 
L 0 272.123332 
L 0 275.401926 
L 0 278.680521 
L 0 281.959115 
L 0 285.23771 
L 0 288.516304 
L 0 291.794898 
L 0 295.073493 
L 0 298.352087 
L 0 301.630681 
L 0 304.909276 
L 0 308.18787 
L 0 311.466464 
L 0 314.745059 
L 0 318.023653 
L 0 321.302248 
L 0 324.580842 
L 0 327.859436 
L 0 331.138031 
L 0 334.416625 
L 0 337.695219 
L 0 340.973814 
L 0 344.252408 
L 0 347.531002 
L 0 350.809597 
L 0 354.088191 
L 0 357.366786 
L 0 360.64538 
L 0 363.923974 
L 0 367.202569 
L 0 370.481163 
L 0 373.759757 
L 0 377.038352 
L 0 380.316946 
L 0 383.59554 
L 0 386.874135 
L 0 390.152729 
L 0 393.431324 
L 0 396.709918 
L 0 399.988512 
L 0 403.267107 
L 0 406.545701 
L 0 409.824295 
L 0 413.10289 
L 0 416.381484 
L 0 419.660078 
L 0 422.938673 
L 0 426.217267 
L 0 429.495862 
L 0 432.774456 
L 0 436.05305 
L 0 439.331645 
L 0 442.610239 
L 0 445.888833 
L 0 449.167428 
L 0 452.446022 
L 0 455.724616 
L 0 459.003211 
L 0 462.281805 
L 0 465.5604 
L 0 468.838994 
L 0 472.117588 
L 0 475.396183 
L 0 478.674777 
L 0 481.953371 
L 0 485.231966 
L 0 488.51056 
L 0 491.789154 
L 0 495.067749 
L 0 498.346343 
L 0 501.624938 
L 0 504.903532 
L 0 508.182126 
L 0 511.460721 
L 0 514.739315 
L 0 518.017909 
L 0 521.296504 
L 0 524.575098 
L 0 527.853692 
L 0 531.132287 
L 0 534.410881 
L 0 537.689476 
L 0 540.96807 
L 0 544.246664 
L 0 547.525259 
L 0 550.803853 
L 0 554.082447 
L 0 557.361042 
L 0 560.639636 
L 0 563.91823 
L 0 567.196825 
L 0 570.475419 
L 0 573.754014 
L 0 577.032608 
L 0 580.311202 
L 0 583.589797 
L 0 586.868391 
L 0 590.146985 
L 0 593.42558 
L 0 596.704174 
L 0 599.982768 
L 0 603.261363 
L 0 606.539957 
L 0 609.818552 
L 0 613.097146 
L 0 616.37574 
L 0 619.654335 
L 0 622.932929 
L 0 626.211523 
L 0 629.490118 
L 0 632.768712 
L 0 636.047306 
L 0 639.325901 
L 0 642.604495 
L 0 645.88309 
L 0 649.161684 
L 0 652.440278 
L 0 655.718873 
L 0 658.997467 
L 0 662.276061 
L 0 665.554656 
L 0 668.83325 
L 0 672.111844 
L 0 675.390439 
L 0 678.669033 
L 0 681.947627 
L 0 685.226222 
L 0 688.504816 
L 0 691.783411 
L 0 695.062005 
L 0 698.340599 
L 0 701.619194 
L 0 704.897788 
L 0 708.176382 
L 0 711.454977 
L 0 714.733571 
L 0 718.012165 
L 0 721.29076 
L 0 724.569354 
L 0 727.847949 
L 0 731.126543 
L 0 734.405137 
L 0 737.683732 
L 0 740.962326 
L 0 744.24092 
L 0 747.519515 
L 0 750.798109 
L 0 754.076703 
L 0 757.355298 
L 0 760.633892 
L 0 763.912487 
L 0 767.191081 
L 0 770.469675 
L 0 773.74827 
L 0 777.026864 
L 0 780.305458 
L 0 783.584053 
L 0 786.862647 
L 0 790.141241 
L 0 793.419836 
L 0 796.69843 
L 0 799.977025 
L 0 803.255619 
L 0 806.534213 
L 0 809.812808 
L 0 813.091402 
L 0 816.369996 
z
" clip-path="url(#p953ce88541)" style="fill: #f5f9fe; fill-opacity: 0.9"/>
    <path clip-path="url(#p953ce88541)" style="fill: #eff6fc; fill-opacity: 0.9"/>
    <path clip-path="url(#p953ce88541)" style="fill: #eaf3fb; fill-opacity: 0.9"/>
    <path clip-path="url(#p953ce88541)" style="fill: #e5eff9; fill-opacity: 0.9"/>
    <path clip-path="url(#p953ce88541)" style="fill: #dfecf7; fill-opacity: 0.9"/>
    <path clip-path="url(#p953ce88541)" style="fill: #dae8f6; fill-opacity: 0.9"/>
    <path clip-path="url(#p953ce88541)" style="fill: #d6e5f4; fill-opacity: 0.9"/>
    <path clip-path="url(#p953ce88541)" style="fill: #d0e2f2; fill-opacity: 0.9"/>
    <path clip-path="url(#p953ce88541)" style="fill: #cbdef1; fill-opacity: 0.9"/>
    <path clip-path="url(#p953ce88541)" style="fill: #c6dbef; fill-opacity: 0.9"/>
    <path clip-path="url(#p953ce88541)" style="fill: #bed8ec; fill-opacity: 0.9"/>
    <path clip-path="url(#p953ce88541)" style="fill: #b5d4e9; fill-opacity: 0.9"/>
    <path clip-path="url(#p953ce88541)" style="fill: #add0e6; fill-opacity: 0.9"/>
    <path clip-path="url(#p953ce88541)" style="fill: #a5cde3; fill-opacity: 0.9"/>
    <path clip-path="url(#p953ce88541)" style="fill: #9cc9e1; fill-opacity: 0.9"/>
    <path clip-path="url(#p953ce88541)" style="fill: #91c3de; fill-opacity: 0.9"/>
    <path clip-path="url(#p953ce88541)" style="fill: #85bcdc; fill-opacity: 0.9"/>
    <path clip-path="url(#p953ce88541)" style="fill: #7cb7da; fill-opacity: 0.9"/>
    <path clip-path="url(#p953ce88541)" style="fill: #71b1d7; fill-opacity: 0.9"/>
    <path clip-path="url(#p953ce88541)" style="fill: #66abd4; fill-opacity: 0.9"/>
    <path clip-path="url(#p953ce88541)" style="fill: #5da5d1; fill-opacity: 0.9"/>
    <path clip-path="url(#p953ce88541)" style="fill: #56a0ce; fill-opacity: 0.9"/>
    <path clip-path="url(#p953ce88541)" style="fill: #4d99ca; fill-opacity: 0.9"/>
    <path clip-path="url(#p953ce88541)" style="fill: #4493c7; fill-opacity: 0.9"/>
    <path clip-path="url(#p953ce88541)" style="fill: #3c8cc3; fill-opacity: 0.9"/>
    <path clip-path="url(#p953ce88541)" style="fill: #3686c0; fill-opacity: 0.9"/>
    <path clip-path="url(#p953ce88541)" style="fill: #2f7fbc; fill-opacity: 0.9"/>
    <path clip-path="url(#p953ce88541)" style="fill: #2777b8; fill-opacity: 0.9"/>
    <path clip-path="url(#p953ce88541)" style="fill: #2070b4; fill-opacity: 0.9"/>
    <path clip-path="url(#p953ce88541)" style="fill: #1c6ab0; fill-opacity: 0.9"/>
    <path clip-path="url(#p953ce88541)" style="fill: #1663aa; fill-opacity: 0.9"/>
    <path clip-path="url(#p953ce88541)" style="fill: #115ca5; fill-opacity: 0.9"/>
    <path clip-path="url(#p953ce88541)" style="fill: #0c56a0; fill-opacity: 0.9"/>
    <path clip-path="url(#p953ce88541)" style="fill: #084f99; fill-opacity: 0.9"/>
    <path clip-path="url(#p953ce88541)" style="fill: #08488e; fill-opacity: 0.9"/>
    <path clip-path="url(#p953ce88541)" style="fill: #084184; fill-opacity: 0.9"/>
    <path clip-path="url(#p953ce88541)" style="fill: #083a7a; fill-opacity: 0.9"/>
    <path clip-path="url(#p953ce88541)" style="fill: #083370; fill-opacity: 0.9"/>
    <path clip-path="url(#p953ce88541)" style="fill: #08306b; fill-opacity: 0.9"/>
   </g>
   <g id="QuadContourSet_2">
    <path clip-path="url(#p953ce88541)" style="fill: none"/>
    <path clip-path="url(#p953ce88541)" style="fill: none"/>
    <path clip-path="url(#p953ce88541)" style="fill: none"/>
    <path clip-path="url(#p953ce88541)" style="fill: none"/>
    <path clip-path="url(#p953ce88541)" style="fill: none"/>
    <path clip-path="url(#p953ce88541)" style="fill: none"/>
    <path clip-path="url(#p953ce88541)" style="fill: none"/>
    <path clip-path="url(#p953ce88541)" style="fill: none"/>
    <path clip-path="url(#p953ce88541)" style="fill: none"/>
    <path clip-path="url(#p953ce88541)" style="fill: none"/>
    <path clip-path="url(#p953ce88541)" style="fill: none"/>
    <path clip-path="url(#p953ce88541)" style="fill: none"/>
    <path clip-path="url(#p953ce88541)" style="fill: none"/>
    <path clip-path="url(#p953ce88541)" style="fill: none"/>
    <path clip-path="url(#p953ce88541)" style="fill: none"/>
    <path clip-path="url(#p953ce88541)" style="fill: none"/>
    <path clip-path="url(#p953ce88541)" style="fill: none"/>
    <path clip-path="url(#p953ce88541)" style="fill: none"/>
    <path clip-path="url(#p953ce88541)" style="fill: none"/>
    <path clip-path="url(#p953ce88541)" style="fill: none"/>
    <path clip-path="url(#p953ce88541)" style="fill: none"/>
    <path clip-path="url(#p953ce88541)" style="fill: none"/>
    <path clip-path="url(#p953ce88541)" style="fill: none"/>
    <path clip-path="url(#p953ce88541)" style="fill: none"/>
    <path clip-path="url(#p953ce88541)" style="fill: none"/>
    <path clip-path="url(#p953ce88541)" style="fill: none"/>
    <path clip-path="url(#p953ce88541)" style="fill: none"/>
    <path clip-path="url(#p953ce88541)" style="fill: none"/>
    <path clip-path="url(#p953ce88541)" style="fill: none"/>
    <path clip-path="url(#p953ce88541)" style="fill: none"/>
    <path clip-path="url(#p953ce88541)" style="fill: none"/>
    <path clip-path="url(#p953ce88541)" style="fill: none"/>
    <path clip-path="url(#p953ce88541)" style="fill: none"/>
    <path clip-path="url(#p953ce88541)" style="fill: none"/>
    <path clip-path="url(#p953ce88541)" style="fill: none"/>
    <path clip-path="url(#p953ce88541)" style="fill: none"/>
    <path clip-path="url(#p953ce88541)" style="fill: none"/>
    <path clip-path="url(#p953ce88541)" style="fill: none"/>
    <path clip-path="url(#p953ce88541)" style="fill: none"/>
   </g>
  </g>
 </g>
 <defs>
  <clipPath id="p953ce88541">
   <rect x="0" y="0" width="576" height="816.369996"/>
  </clipPath>
 </defs>
</svg>
