<?xml version="1.0" encoding="utf-8" standalone="no"?>
<!DOCTYPE svg PUBLIC "-//W3C//DTD SVG 1.1//EN"
  "http://www.w3.org/Graphics/SVG/1.1/DTD/svg11.dtd">
<svg xmlns:xlink="http://www.w3.org/1999/xlink" width="576pt" height="813.806189pt" viewBox="0 0 576 813.806189" xmlns="http://www.w3.org/2000/svg" version="1.1">
 <metadata>
  <rdf:RDF xmlns:dc="http://purl.org/dc/elements/1.1/" xmlns:cc="http://creativecommons.org/ns#" xmlns:rdf="http://www.w3.org/1999/02/22-rdf-syntax-ns#">
   <cc:Work>
    <dc:type rdf:resource="http://purl.org/dc/dcmitype/StillImage"/>
    <dc:date>2025-07-25T22:45:40.885617</dc:date>
    <dc:format>image/svg+xml</dc:format>
    <dc:creator>
     <cc:Agent>
      <dc:title>Matplotlib v3.10.3, https://matplotlib.org/</dc:title>
     </cc:Agent>
    </dc:creator>
   </cc:Work>
  </rdf:RDF>
 </metadata>
 <defs>
  <style type="text/css">*{stroke-linejoin: round; stroke-linecap: butt}</style>
 </defs>
 <g id="figure_1">
  <g id="patch_1">
   <path d="M 0 813.806189 
L 576 813.806189 
L 576 0 
L 0 0 
L 0 813.806189 
z
" style="fill: none; opacity: 0"/>
  </g>
  <g id="axes_1">
   <g id="QuadContourSet_1">
    <path d="M 78.545455 811.705004 
L 81.039704 813.806189 
L 81.818182 813.806189 
L 82.76748 813.806189 
L 81.818182 812.858175 
L 78.765911 810.537891 
L 81.114956 807.269593 
L 78.545455 804.703569 
L 77.842229 804.001295 
L 75.272727 801.551349 
L 72.461922 804.001295 
L 72 805.060976 
L 70.511054 804.001295 
L 68.727273 802.581698 
L 65.999673 800.732997 
L 65.454545 800.29831 
L 62.181818 798.371956 
L 61.509853 797.464699 
L 59.204305 794.196401 
L 58.909091 793.901587 
L 55.636364 791.279355 
L 55.212775 790.928103 
L 52.363636 788.565521 
L 51.271396 787.659806 
L 49.090909 785.851686 
L 47.330018 784.391508 
L 49.090909 783.663493 
L 51.458236 781.12321 
L 49.090909 778.759086 
L 46.745561 781.12321 
L 45.818182 783.137852 
L 43.38864 781.12321 
L 42.545455 780.339814 
L 39.473214 777.854912 
L 39.272727 777.654697 
L 36 777.121723 
L 34.194213 774.586614 
L 32.727273 773.725304 
L 30.993779 771.318316 
L 29.454545 769.884812 
L 27.130887 768.050018 
L 26.181818 767.281547 
L 22.909091 764.94758 
L 22.683389 764.78172 
L 22.909091 764.66443 
L 25.077666 761.513422 
L 22.909091 759.347782 
L 21.804938 758.245124 
L 22.909091 754.976826 
L 19.636364 751.708528 
L 16.363636 752.819134 
L 14.20302 754.976826 
L 13.090909 757.64814 
L 9.818182 755.854218 
L 6.801911 754.976826 
L 6.545455 754.898469 
L 3.272727 752.484834 
L 2.595405 751.708528 
L 0 748.733831 
L 0 750.582847 
L 0.98215 751.708528 
L 3.272727 754.33385 
L 4.130989 754.976826 
L 6.545455 757.979108 
L 7.272836 758.245124 
L 9.818182 760.224125 
L 13.090909 760.447945 
L 16.363636 761.50946 
L 16.369028 761.513422 
L 19.636364 763.914463 
L 21.068986 761.513422 
L 19.636364 760.082739 
L 18.046491 758.245124 
L 16.363636 756.564547 
L 14.868239 754.976826 
L 16.363636 753.483453 
L 19.636364 752.714784 
L 21.901471 754.976826 
L 21.137269 758.245124 
L 22.909091 760.014547 
L 24.409997 761.513422 
L 22.909091 763.694286 
L 20.816526 764.78172 
L 22.909091 766.319467 
L 25.264024 768.050018 
L 26.181818 768.72447 
L 29.407559 771.318316 
L 29.454545 771.367363 
L 31.903445 774.586614 
L 32.727273 775.669593 
L 34.650998 777.854912 
L 36 779.721081 
L 38.840505 781.12321 
L 39.272727 781.803515 
L 42.545455 782.680596 
L 45.457173 784.391508 
L 45.818182 784.569608 
L 49.090909 787.192773 
L 49.654124 787.659806 
L 52.363636 789.906607 
L 53.595502 790.928103 
L 55.636364 792.620441 
L 57.529896 794.196401 
L 58.909091 795.640936 
L 60.259872 797.464699 
L 62.181818 800.059623 
L 63.292108 800.732997 
L 65.125363 804.001295 
L 65.454545 804.447038 
L 68.727273 804.653439 
L 72 806.543313 
L 73.108083 804.001295 
L 75.272727 802.114554 
L 77.25154 804.001295 
L 78.545455 805.293459 
L 80.524267 807.269593 
L 78.545455 809.837316 
L 77.077324 810.537891 
z
M 47.36289 781.12321 
L 49.090909 779.381357 
L 50.835123 781.12321 
L 49.090909 782.994855 
z
M 18.235891 761.513422 
L 19.636364 760.900191 
L 20.250426 761.513422 
L 19.636364 762.542576 
z
M 13.788393 758.245124 
L 16.363636 757.270835 
L 17.339246 758.245124 
L 16.363636 760.137573 
z
M 75.272727 809.031741 
L 76.194982 807.269593 
L 75.272727 806.348587 
L 72.888659 807.269593 
z
M 74.702408 807.269593 
L 75.272727 807.049269 
L 75.49335 807.269593 
L 75.272727 807.691136 
z
" clip-path="url(#p8e4763f641)" style="fill: #f5f9fe; fill-opacity: 0.9"/>
    <path d="M 78.545455 812.981915 
L 79.523924 813.806189 
L 81.039704 813.806189 
L 78.545455 811.705004 
L 77.077324 810.537891 
L 78.545455 809.837316 
L 80.524267 807.269593 
L 78.545455 805.293459 
L 77.25154 804.001295 
L 75.272727 802.114554 
L 73.108083 804.001295 
L 72 806.543313 
L 68.727273 804.653439 
L 65.454545 804.447038 
L 65.125363 804.001295 
L 63.292108 800.732997 
L 62.181818 800.059623 
L 60.259872 797.464699 
L 58.909091 795.640936 
L 57.529896 794.196401 
L 55.636364 792.620441 
L 53.595502 790.928103 
L 52.363636 789.906607 
L 49.654124 787.659806 
L 49.090909 787.192773 
L 45.818182 784.569608 
L 45.457173 784.391508 
L 42.545455 782.680596 
L 39.272727 781.803515 
L 38.840505 781.12321 
L 36 779.721081 
L 34.650998 777.854912 
L 32.727273 775.669593 
L 31.903445 774.586614 
L 29.454545 771.367363 
L 29.407559 771.318316 
L 26.181818 768.72447 
L 25.264024 768.050018 
L 22.909091 766.319467 
L 20.816526 764.78172 
L 22.909091 763.694286 
L 24.409997 761.513422 
L 22.909091 760.014547 
L 21.137269 758.245124 
L 21.901471 754.976826 
L 19.636364 752.714784 
L 16.363636 753.483453 
L 14.868239 754.976826 
L 16.363636 756.564547 
L 18.046491 758.245124 
L 19.636364 760.082739 
L 21.068986 761.513422 
L 19.636364 763.914463 
L 16.369028 761.513422 
L 16.363636 761.50946 
L 13.090909 760.447945 
L 9.818182 760.224125 
L 7.272836 758.245124 
L 6.545455 757.979108 
L 4.130989 754.976826 
L 3.272727 754.33385 
L 0.98215 751.708528 
L 0 750.582847 
L 0 751.708528 
L 0 752.575214 
L 2.043281 754.976826 
L 3.272727 756.182867 
L 5.072034 758.245124 
L 6.545455 759.93387 
L 8.233056 761.513422 
L 9.818182 763.392515 
L 12.56008 764.78172 
L 13.090909 765.550362 
L 16.363636 765.228695 
L 19.636364 766.142603 
L 22.909091 767.691354 
L 23.397161 768.050018 
L 26.181818 770.096357 
L 27.701462 771.318316 
L 29.454545 773.148286 
L 30.548688 774.586614 
L 32.727273 777.450516 
L 33.08326 777.854912 
L 35.464594 781.12321 
L 36 781.752746 
L 38.300958 784.391508 
L 39.272727 785.730953 
L 42.545455 786.929943 
L 45.818182 787.301459 
L 46.366505 787.659806 
L 49.090909 789.194164 
L 51.563589 790.928103 
L 52.363636 791.420993 
L 55.636364 793.961528 
L 55.918567 794.196401 
L 58.909091 797.328604 
L 59.009891 797.464699 
L 61.430576 800.732997 
L 62.181818 801.747291 
L 63.865054 804.001295 
L 65.454545 806.153613 
L 67.439873 807.269593 
L 68.727273 810.295172 
L 72 809.213953 
L 75.272727 810.372347 
L 75.471075 810.537891 
z
M 72.888659 807.269593 
L 75.272727 806.348587 
L 76.194982 807.269593 
L 75.272727 809.031741 
z
M 76.896614 807.269593 
L 78.545455 805.883348 
L 79.933578 807.269593 
L 78.545455 809.070834 
z
M 73.754244 804.001295 
L 75.272727 802.677759 
L 76.660851 804.001295 
L 75.272727 805.647904 
z
M 21.887546 761.513422 
L 22.909091 760.681313 
L 23.742328 761.513422 
L 22.909091 762.724142 
z
M 18.753736 758.245124 
L 16.363636 755.858259 
L 15.533458 754.976826 
L 16.363636 754.147771 
L 19.636364 753.72104 
L 20.893852 754.976826 
L 20.4696 758.245124 
L 19.636364 759.265287 
z
M 49.090909 782.994855 
L 50.835123 781.12321 
L 49.090909 779.381357 
L 47.36289 781.12321 
z
M 47.980218 781.12321 
L 49.090909 780.003627 
L 50.212009 781.12321 
L 49.090909 782.326216 
z
" clip-path="url(#p8e4763f641)" style="fill: #eff6fc; fill-opacity: 0.9"/>
    <path d="M 68.727273 812.221827 
L 71.593674 813.806189 
L 72 813.806189 
L 75.272727 813.806189 
L 78.545455 813.806189 
L 79.523924 813.806189 
L 78.545455 812.981915 
L 75.471075 810.537891 
L 75.272727 810.372347 
L 72 809.213953 
L 68.727273 810.295172 
L 67.439873 807.269593 
L 65.454545 806.153613 
L 63.865054 804.001295 
L 62.181818 801.747291 
L 61.430576 800.732997 
L 59.009891 797.464699 
L 58.909091 797.328604 
L 55.918567 794.196401 
L 55.636364 793.961528 
L 52.363636 791.420993 
L 51.563589 790.928103 
L 49.090909 789.194164 
L 46.366505 787.659806 
L 45.818182 787.301459 
L 42.545455 786.929943 
L 39.272727 785.730953 
L 38.300958 784.391508 
L 36 781.752746 
L 35.464594 781.12321 
L 33.08326 777.854912 
L 32.727273 777.450516 
L 30.548688 774.586614 
L 29.454545 773.148286 
L 27.701462 771.318316 
L 26.181818 770.096357 
L 23.397161 768.050018 
L 22.909091 767.691354 
L 19.636364 766.142603 
L 16.363636 765.228695 
L 13.090909 765.550362 
L 12.56008 764.78172 
L 9.818182 763.392515 
L 8.233056 761.513422 
L 6.545455 759.93387 
L 5.072034 758.245124 
L 3.272727 756.182867 
L 2.043281 754.976826 
L 0 752.575214 
L 0 754.790669 
L 0.158382 754.976826 
L 3.272727 758.031883 
L 3.458779 758.245124 
L 6.003499 761.513422 
L 6.545455 761.985985 
L 8.769043 764.78172 
L 9.818182 765.735126 
L 11.820682 768.050018 
L 13.090909 769.236206 
L 16.363636 770.909874 
L 19.636364 770.176122 
L 22.909091 770.855457 
L 24.634417 771.318316 
L 26.181818 771.757511 
L 28.752167 774.586614 
L 29.454545 775.274372 
L 31.034924 777.854912 
L 32.727273 779.453567 
L 33.949961 781.12321 
L 36 783.533669 
L 36.748021 784.391508 
L 39.042953 787.659806 
L 39.272727 787.870873 
L 41.843526 790.928103 
L 42.545455 791.754376 
L 45.818182 791.630438 
L 49.090909 792.007812 
L 52.363636 793.489294 
L 53.322611 794.196401 
L 55.636364 795.717708 
L 57.297162 797.464699 
L 58.909091 799.016272 
L 60.180594 800.732997 
L 62.181818 803.434958 
L 62.604745 804.001295 
L 64.827369 807.269593 
L 65.454545 807.853645 
L 67.490656 810.537891 
z
M 78.545455 809.070834 
L 79.933578 807.269593 
L 78.545455 805.883348 
L 76.896614 807.269593 
z
M 77.598246 807.269593 
L 78.545455 806.473238 
L 79.342889 807.269593 
L 78.545455 808.304351 
z
M 75.272727 805.647904 
L 76.660851 804.001295 
L 75.272727 802.677759 
L 73.754244 804.001295 
z
M 74.400405 804.001295 
L 75.272727 803.240964 
L 76.070162 804.001295 
L 75.272727 804.947222 
z
M 49.090909 782.326216 
L 50.212009 781.12321 
L 49.090909 780.003627 
L 47.980218 781.12321 
z
M 48.597547 781.12321 
L 49.090909 780.625898 
L 49.588895 781.12321 
L 49.090909 781.657578 
z
M 22.909091 762.724142 
L 23.742328 761.513422 
L 22.909091 760.681313 
L 21.887546 761.513422 
z
M 22.706105 761.513422 
L 22.909091 761.348078 
L 23.074659 761.513422 
L 22.909091 761.753997 
z
M 19.636364 759.265287 
L 20.4696 758.245124 
L 20.893852 754.976826 
L 19.636364 753.72104 
L 16.363636 754.147771 
L 15.533458 754.976826 
L 16.363636 755.858259 
L 18.753736 758.245124 
z
M 19.460982 758.245124 
L 16.363636 755.151971 
L 16.198676 754.976826 
L 16.363636 754.812089 
L 19.636364 754.727296 
L 19.886232 754.976826 
L 19.801932 758.245124 
L 19.636364 758.447835 
z
" clip-path="url(#p8e4763f641)" style="fill: #eaf3fb; fill-opacity: 0.9"/>
    <path d="M 68.727273 813.806189 
L 71.593674 813.806189 
L 68.727273 812.221827 
L 67.490656 810.537891 
L 65.454545 807.853645 
L 64.827369 807.269593 
L 62.604745 804.001295 
L 62.181818 803.434958 
L 60.180594 800.732997 
L 58.909091 799.016272 
L 57.297162 797.464699 
L 55.636364 795.717708 
L 53.322611 794.196401 
L 52.363636 793.489294 
L 49.090909 792.007812 
L 45.818182 791.630438 
L 42.545455 791.754376 
L 41.843526 790.928103 
L 39.272727 787.870873 
L 39.042953 787.659806 
L 36.748021 784.391508 
L 36 783.533669 
L 33.949961 781.12321 
L 32.727273 779.453567 
L 31.034924 777.854912 
L 29.454545 775.274372 
L 28.752167 774.586614 
L 26.181818 771.757511 
L 24.634417 771.318316 
L 22.909091 770.855457 
L 19.636364 770.176122 
L 16.363636 770.909874 
L 13.090909 769.236206 
L 11.820682 768.050018 
L 9.818182 765.735126 
L 8.769043 764.78172 
L 6.545455 761.985985 
L 6.003499 761.513422 
L 3.458779 758.245124 
L 3.272727 758.031883 
L 0.158382 754.976826 
L 0 754.790669 
L 0 754.976826 
L 0 758.245124 
L 0 760.910795 
L 0.845998 761.513422 
L 3.272727 763.242047 
L 5.340927 764.78172 
L 6.545455 765.650486 
L 9.715799 768.050018 
L 9.818182 768.126243 
L 13.090909 771.129494 
L 13.405142 771.318316 
L 15.70502 774.586614 
L 16.363636 775.155291 
L 19.636364 776.269386 
L 22.909091 775.320308 
L 26.181818 776.578353 
L 27.508772 777.854912 
L 29.454545 779.726788 
L 31.151393 781.12321 
L 32.727273 782.629902 
L 33.71902 784.391508 
L 36 786.437963 
L 36.719136 787.659806 
L 39.272727 790.0055 
L 40.048536 790.928103 
L 42.545455 793.867342 
L 43.194982 794.196401 
L 45.349111 797.464699 
L 45.818182 797.885754 
L 47.585588 797.464699 
L 49.090909 796.738289 
L 52.363636 796.893365 
L 54.737773 797.464699 
L 55.636364 797.781631 
L 58.909091 800.703939 
L 58.930613 800.732997 
L 60.188079 804.001295 
L 62.181818 805.932899 
L 63.015089 807.269593 
L 65.454545 809.541313 
L 66.210491 810.537891 
L 68.424004 813.806189 
z
M 78.545455 808.304351 
L 79.342889 807.269593 
L 78.545455 806.473238 
L 77.598246 807.269593 
z
M 78.299878 807.269593 
L 78.545455 807.063127 
L 78.7522 807.269593 
L 78.545455 807.537868 
z
M 75.272727 804.947222 
L 76.070162 804.001295 
L 75.272727 803.240964 
L 74.400405 804.001295 
z
M 75.046566 804.001295 
L 75.272727 803.804169 
L 75.479473 804.001295 
L 75.272727 804.24654 
z
M 49.090909 781.657578 
L 49.588895 781.12321 
L 49.090909 780.625898 
L 48.597547 781.12321 
z
M 22.909091 761.753997 
L 23.074659 761.513422 
L 22.909091 761.348078 
L 22.706105 761.513422 
z
M 19.636364 758.447835 
L 19.801932 758.245124 
L 19.886232 754.976826 
L 19.636364 754.727296 
L 16.363636 754.812089 
L 16.198676 754.976826 
L 16.363636 755.151971 
L 19.460982 758.245124 
z
" clip-path="url(#p8e4763f641)" style="fill: #e5eff9; fill-opacity: 0.9"/>
    <path d="M 62.181818 811.521773 
L 64.673365 813.806189 
L 65.454545 813.806189 
L 68.424004 813.806189 
L 66.210491 810.537891 
L 65.454545 809.541313 
L 63.015089 807.269593 
L 62.181818 805.932899 
L 60.188079 804.001295 
L 58.930613 800.732997 
L 58.909091 800.703939 
L 55.636364 797.781631 
L 54.737773 797.464699 
L 52.363636 796.893365 
L 49.090909 796.738289 
L 47.585588 797.464699 
L 45.818182 797.885754 
L 45.349111 797.464699 
L 43.194982 794.196401 
L 42.545455 793.867342 
L 40.048536 790.928103 
L 39.272727 790.0055 
L 36.719136 787.659806 
L 36 786.437963 
L 33.71902 784.391508 
L 32.727273 782.629902 
L 31.151393 781.12321 
L 29.454545 779.726788 
L 27.508772 777.854912 
L 26.181818 776.578353 
L 22.909091 775.320308 
L 19.636364 776.269386 
L 16.363636 775.155291 
L 15.70502 774.586614 
L 13.405142 771.318316 
L 13.090909 771.129494 
L 9.818182 768.126243 
L 9.715799 768.050018 
L 6.545455 765.650486 
L 5.340927 764.78172 
L 3.272727 763.242047 
L 0.845998 761.513422 
L 0 760.910795 
L 0 761.513422 
L 0 764.78172 
L 0 768.050018 
L 0 770.966151 
L 0.790667 771.318316 
L 3.272727 772.42803 
L 6.545455 772.898346 
L 9.818182 774.414221 
L 10.046847 774.586614 
L 13.090909 776.816802 
L 14.45538 777.854912 
L 16.363636 779.30674 
L 18.751169 781.12321 
L 19.636364 781.926032 
L 22.389023 784.391508 
L 22.909091 785.245241 
L 26.181818 786.758439 
L 28.173191 787.659806 
L 29.454545 788.241555 
L 32.727273 790.038765 
L 33.659669 790.928103 
L 36 792.751947 
L 37.743394 794.196401 
L 39.272727 795.659011 
L 41.825429 797.464699 
L 42.545455 798.029525 
L 45.818182 800.579035 
L 46.23264 800.732997 
L 49.090909 803.459277 
L 52.363636 801.945577 
L 55.342774 804.001295 
L 55.636364 804.188634 
L 58.1788 807.269593 
L 58.909091 807.858849 
L 61.257927 810.537891 
z
M 78.545455 807.537868 
L 78.7522 807.269593 
L 78.545455 807.063127 
L 78.299878 807.269593 
z
M 75.272727 804.24654 
L 75.479473 804.001295 
L 75.272727 803.804169 
L 75.046566 804.001295 
z
" clip-path="url(#p8e4763f641)" style="fill: #dfecf7; fill-opacity: 0.9"/>
    <path d="M 36 811.95245 
L 37.096687 810.537891 
L 38.067316 807.269593 
L 39.272727 806.55149 
L 41.69026 807.269593 
L 42.545455 807.523634 
L 45.818182 809.345863 
L 46.987244 810.537891 
L 49.090909 812.674196 
L 50.000437 813.806189 
L 52.363636 813.806189 
L 55.636364 813.806189 
L 58.909091 813.806189 
L 62.181818 813.806189 
L 64.673365 813.806189 
L 62.181818 811.521773 
L 61.257927 810.537891 
L 58.909091 807.858849 
L 58.1788 807.269593 
L 55.636364 804.188634 
L 55.342774 804.001295 
L 52.363636 801.945577 
L 49.090909 803.459277 
L 46.23264 800.732997 
L 45.818182 800.579035 
L 42.545455 798.029525 
L 41.825429 797.464699 
L 39.272727 795.659011 
L 37.743394 794.196401 
L 36 792.751947 
L 33.659669 790.928103 
L 32.727273 790.038765 
L 29.454545 788.241555 
L 28.173191 787.659806 
L 26.181818 786.758439 
L 22.909091 785.245241 
L 22.389023 784.391508 
L 19.636364 781.926032 
L 18.751169 781.12321 
L 16.363636 779.30674 
L 14.45538 777.854912 
L 13.090909 776.816802 
L 10.046847 774.586614 
L 9.818182 774.414221 
L 6.545455 772.898346 
L 3.272727 772.42803 
L 0.790667 771.318316 
L 0 770.966151 
L 0 771.318316 
L 0 774.586614 
L 0 777.854912 
L 0 781.12321 
L 0 784.391508 
L 0 784.950534 
L 3.272727 785.596257 
L 3.975427 787.659806 
L 6.545455 789.663301 
L 9.818182 789.35712 
L 11.509489 787.659806 
L 13.090909 787.018647 
L 15.640488 787.659806 
L 16.363636 788.058213 
L 18.346852 790.928103 
L 19.636364 792.794142 
L 21.183168 794.196401 
L 22.863917 797.464699 
L 22.909091 797.53007 
L 26.181818 800.606966 
L 26.250259 800.732997 
L 29.454545 803.74384 
L 29.719224 804.001295 
L 30.843793 807.269593 
L 32.727273 808.919263 
L 34.403423 810.537891 
z
" clip-path="url(#p8e4763f641)" style="fill: #dae8f6; fill-opacity: 0.9"/>
    <path d="M 3.272727 813.806189 
L 6.545455 813.806189 
L 9.818182 813.806189 
L 13.090909 813.806189 
L 16.363636 813.806189 
L 19.636364 813.806189 
L 22.909091 813.806189 
L 26.181818 813.806189 
L 29.454545 813.806189 
L 32.727273 813.806189 
L 36 813.806189 
L 39.272727 813.806189 
L 42.545455 813.806189 
L 45.818182 813.806189 
L 49.090909 813.806189 
L 50.000437 813.806189 
L 49.090909 812.674196 
L 46.987244 810.537891 
L 45.818182 809.345863 
L 42.545455 807.523634 
L 41.69026 807.269593 
L 39.272727 806.55149 
L 38.067316 807.269593 
L 37.096687 810.537891 
L 36 811.95245 
L 34.403423 810.537891 
L 32.727273 808.919263 
L 30.843793 807.269593 
L 29.719224 804.001295 
L 29.454545 803.74384 
L 26.250259 800.732997 
L 26.181818 800.606966 
L 22.909091 797.53007 
L 22.863917 797.464699 
L 21.183168 794.196401 
L 19.636364 792.794142 
L 18.346852 790.928103 
L 16.363636 788.058213 
L 15.640488 787.659806 
L 13.090909 787.018647 
L 11.509489 787.659806 
L 9.818182 789.35712 
L 6.545455 789.663301 
L 3.975427 787.659806 
L 3.272727 785.596257 
L 0 784.950534 
L 0 787.659806 
L 0 790.928103 
L 0 794.196401 
L 0 797.464699 
L 0 800.732997 
L 0 804.001295 
L 0 807.269593 
L 0 810.537891 
L 0 813.806189 
z
" clip-path="url(#p8e4763f641)" style="fill: #d6e5f4; fill-opacity: 0.9"/>
    <path clip-path="url(#p8e4763f641)" style="fill: #d0e2f2; fill-opacity: 0.9"/>
    <path clip-path="url(#p8e4763f641)" style="fill: #cbdef1; fill-opacity: 0.9"/>
    <path clip-path="url(#p8e4763f641)" style="fill: #c6dbef; fill-opacity: 0.9"/>
    <path clip-path="url(#p8e4763f641)" style="fill: #bed8ec; fill-opacity: 0.9"/>
    <path clip-path="url(#p8e4763f641)" style="fill: #b5d4e9; fill-opacity: 0.9"/>
    <path clip-path="url(#p8e4763f641)" style="fill: #add0e6; fill-opacity: 0.9"/>
    <path clip-path="url(#p8e4763f641)" style="fill: #a5cde3; fill-opacity: 0.9"/>
    <path clip-path="url(#p8e4763f641)" style="fill: #9cc9e1; fill-opacity: 0.9"/>
    <path clip-path="url(#p8e4763f641)" style="fill: #91c3de; fill-opacity: 0.9"/>
    <path clip-path="url(#p8e4763f641)" style="fill: #85bcdc; fill-opacity: 0.9"/>
    <path clip-path="url(#p8e4763f641)" style="fill: #7cb7da; fill-opacity: 0.9"/>
    <path clip-path="url(#p8e4763f641)" style="fill: #71b1d7; fill-opacity: 0.9"/>
    <path clip-path="url(#p8e4763f641)" style="fill: #66abd4; fill-opacity: 0.9"/>
    <path clip-path="url(#p8e4763f641)" style="fill: #5da5d1; fill-opacity: 0.9"/>
    <path clip-path="url(#p8e4763f641)" style="fill: #56a0ce; fill-opacity: 0.9"/>
    <path clip-path="url(#p8e4763f641)" style="fill: #4d99ca; fill-opacity: 0.9"/>
    <path clip-path="url(#p8e4763f641)" style="fill: #4493c7; fill-opacity: 0.9"/>
    <path clip-path="url(#p8e4763f641)" style="fill: #3c8cc3; fill-opacity: 0.9"/>
    <path clip-path="url(#p8e4763f641)" style="fill: #3686c0; fill-opacity: 0.9"/>
    <path clip-path="url(#p8e4763f641)" style="fill: #2f7fbc; fill-opacity: 0.9"/>
    <path clip-path="url(#p8e4763f641)" style="fill: #2777b8; fill-opacity: 0.9"/>
    <path clip-path="url(#p8e4763f641)" style="fill: #2070b4; fill-opacity: 0.9"/>
    <path clip-path="url(#p8e4763f641)" style="fill: #1c6ab0; fill-opacity: 0.9"/>
    <path clip-path="url(#p8e4763f641)" style="fill: #1663aa; fill-opacity: 0.9"/>
    <path clip-path="url(#p8e4763f641)" style="fill: #115ca5; fill-opacity: 0.9"/>
    <path clip-path="url(#p8e4763f641)" style="fill: #0c56a0; fill-opacity: 0.9"/>
    <path clip-path="url(#p8e4763f641)" style="fill: #084f99; fill-opacity: 0.9"/>
    <path clip-path="url(#p8e4763f641)" style="fill: #08488e; fill-opacity: 0.9"/>
    <path clip-path="url(#p8e4763f641)" style="fill: #084184; fill-opacity: 0.9"/>
    <path clip-path="url(#p8e4763f641)" style="fill: #083a7a; fill-opacity: 0.9"/>
    <path clip-path="url(#p8e4763f641)" style="fill: #083370; fill-opacity: 0.9"/>
    <path clip-path="url(#p8e4763f641)" style="fill: #08306b; fill-opacity: 0.9"/>
   </g>
   <g id="QuadContourSet_2">
    <path d="M 82.76748 813.806189 
L 81.818182 812.858175 
L 78.765911 810.537891 
L 81.114956 807.269593 
L 78.545455 804.703569 
L 77.842229 804.001295 
L 75.272727 801.551349 
L 72.461922 804.001295 
L 72 805.060976 
L 70.511054 804.001295 
L 68.727273 802.581698 
L 65.999673 800.732997 
L 65.944067 800.688657 
M 51.836337 788.12827 
L 51.271396 787.659806 
L 49.090909 785.851686 
L 47.330018 784.391508 
L 49.090909 783.663493 
L 51.458236 781.12321 
L 49.090909 778.759086 
L 46.745561 781.12321 
L 45.818182 783.137852 
L 43.38864 781.12321 
L 42.545455 780.339814 
L 39.473214 777.854912 
L 39.272727 777.654697 
L 36 777.121723 
L 34.194213 774.586614 
L 32.727273 773.725304 
L 30.993779 771.318316 
L 29.454545 769.884812 
L 27.130887 768.050018 
L 26.181818 767.281547 
L 22.909091 764.94758 
L 22.683389 764.78172 
L 22.909091 764.66443 
L 25.077666 761.513422 
L 22.909091 759.347782 
L 21.804938 758.245124 
L 22.909091 754.976826 
L 19.636364 751.708528 
L 16.363636 752.819134 
L 14.20302 754.976826 
L 13.090909 757.64814 
L 9.818182 755.854218 
L 6.801911 754.976826 
L 6.545455 754.898469 
L 3.272727 752.484834 
L 2.595405 751.708528 
L 0 748.733831 
M 75.272727 807.691136 
L 74.702408 807.269593 
L 75.272727 807.049269 
L 75.49335 807.269593 
L 75.272727 807.691136 
M 19.636364 762.542576 
L 18.235891 761.513422 
L 19.636364 760.900191 
L 20.250426 761.513422 
L 19.636364 762.542576 
M 16.363636 760.137573 
L 13.788393 758.245124 
L 16.363636 757.270835 
L 17.339246 758.245124 
L 16.363636 760.137573 
z
" clip-path="url(#p8e4763f641)" style="fill: none"/>
    <path d="M 81.039704 813.806189 
L 78.545455 811.705004 
L 77.077324 810.537891 
L 78.545455 809.837316 
L 80.524267 807.269593 
L 78.545455 805.293459 
L 77.25154 804.001295 
L 75.272727 802.114554 
L 73.108083 804.001295 
L 72 806.543313 
L 68.727273 804.653439 
L 65.454545 804.447038 
L 65.125363 804.001295 
L 63.292108 800.732997 
L 62.181818 800.059623 
L 60.259872 797.464699 
L 58.909091 795.640936 
L 57.529896 794.196401 
L 55.636364 792.620441 
L 53.595502 790.928103 
L 52.363636 789.906607 
L 50.343782 788.231689 
M 34.689285 777.907876 
L 34.650998 777.854912 
L 32.727273 775.669593 
L 31.903445 774.586614 
L 29.454545 771.367363 
L 29.407559 771.318316 
L 26.181818 768.72447 
L 25.264024 768.050018 
L 22.909091 766.319467 
L 20.816526 764.78172 
L 22.909091 763.694286 
L 24.409997 761.513422 
L 22.909091 760.014547 
L 21.137269 758.245124 
L 21.901471 754.976826 
L 19.636364 752.714784 
L 16.363636 753.483453 
L 14.868239 754.976826 
L 16.363636 756.564547 
L 18.046491 758.245124 
L 19.636364 760.082739 
L 21.068986 761.513422 
L 19.636364 763.914463 
L 16.369028 761.513422 
L 16.363636 761.50946 
L 13.090909 760.447945 
L 9.818182 760.224125 
L 7.272836 758.245124 
L 6.545455 757.979108 
L 4.130989 754.976826 
L 3.272727 754.33385 
L 0.98215 751.708528 
L 0 750.582847 
M 75.272727 809.031741 
L 72.888659 807.269593 
L 75.272727 806.348587 
L 76.194982 807.269593 
L 75.272727 809.031741 
z
M 49.090909 782.994855 
L 50.835123 781.12321 
L 49.090909 779.381357 
L 47.36289 781.12321 
L 49.090909 782.994855 
z
" clip-path="url(#p8e4763f641)" style="fill: none"/>
    <path d="M 79.523924 813.806189 
L 78.545455 812.981915 
L 75.471075 810.537891 
L 75.272727 810.372347 
L 72 809.213953 
L 68.727273 810.295172 
L 67.439873 807.269593 
L 65.454545 806.153613 
L 63.865054 804.001295 
L 62.181818 801.747291 
L 61.430576 800.732997 
L 59.009891 797.464699 
L 58.909091 797.328604 
L 55.918567 794.196401 
L 55.636364 793.961528 
L 52.363636 791.420993 
L 51.563589 790.928103 
L 49.090909 789.194164 
L 46.366505 787.659806 
L 45.818182 787.301459 
L 42.545455 786.929943 
L 39.272727 785.730953 
L 38.300958 784.391508 
L 36 781.752746 
L 35.464594 781.12321 
L 33.08326 777.854912 
L 32.727273 777.450516 
L 30.548688 774.586614 
L 29.454545 773.148286 
L 27.701462 771.318316 
L 26.181818 770.096357 
L 23.397161 768.050018 
L 22.909091 767.691354 
L 22.25713 767.382827 
M 5.999606 759.308252 
L 5.072034 758.245124 
L 3.272727 756.182867 
L 2.043281 754.976826 
L 0 752.575214 
M 78.545455 809.070834 
L 79.933578 807.269593 
L 78.545455 805.883348 
L 76.896614 807.269593 
L 78.545455 809.070834 
z
M 75.272727 805.647904 
L 76.660851 804.001295 
L 75.272727 802.677759 
L 73.754244 804.001295 
L 75.272727 805.647904 
z
M 49.090909 782.326216 
L 50.212009 781.12321 
L 49.090909 780.003627 
L 47.980218 781.12321 
L 49.090909 782.326216 
z
M 22.909091 762.724142 
L 23.742328 761.513422 
L 22.909091 760.681313 
L 21.887546 761.513422 
L 22.909091 762.724142 
z
M 19.636364 759.265287 
L 20.4696 758.245124 
L 20.893852 754.976826 
L 19.636364 753.72104 
L 16.363636 754.147771 
L 15.533458 754.976826 
L 16.363636 755.858259 
L 18.753736 758.245124 
L 19.636364 759.265287 
z
" clip-path="url(#p8e4763f641)" style="fill: none"/>
    <path d="M 71.593674 813.806189 
L 68.727273 812.221827 
L 67.490656 810.537891 
L 65.454545 807.853645 
L 64.827369 807.269593 
L 62.604745 804.001295 
L 62.181818 803.434958 
L 60.180594 800.732997 
L 58.909091 799.016272 
L 57.297162 797.464699 
L 55.636364 795.717708 
L 53.322611 794.196401 
L 52.363636 793.489294 
L 49.090909 792.007812 
L 45.818182 791.630438 
L 42.545455 791.754376 
L 41.843526 790.928103 
L 39.272727 787.870873 
L 39.042953 787.659806 
L 36.748021 784.391508 
L 36 783.533669 
L 34.734951 782.04621 
M 20.579663 770.371927 
L 19.636364 770.176122 
L 16.363636 770.909874 
L 13.090909 769.236206 
L 11.820682 768.050018 
L 9.818182 765.735126 
L 8.769043 764.78172 
L 6.545455 761.985985 
L 6.003499 761.513422 
L 3.458779 758.245124 
L 3.272727 758.031883 
L 0.158382 754.976826 
L 0 754.790669 
M 78.545455 808.304351 
L 79.342889 807.269593 
L 78.545455 806.473238 
L 77.598246 807.269593 
L 78.545455 808.304351 
z
M 75.272727 804.947222 
L 76.070162 804.001295 
L 75.272727 803.240964 
L 74.400405 804.001295 
L 75.272727 804.947222 
z
M 49.090909 781.657578 
L 49.588895 781.12321 
L 49.090909 780.625898 
L 48.597547 781.12321 
L 49.090909 781.657578 
z
M 22.909091 761.753997 
L 23.074659 761.513422 
L 22.909091 761.348078 
L 22.706105 761.513422 
L 22.909091 761.753997 
z
M 19.636364 758.447835 
L 19.801932 758.245124 
L 19.886232 754.976826 
L 19.636364 754.727296 
L 16.363636 754.812089 
L 16.198676 754.976826 
L 16.363636 755.151971 
L 19.460982 758.245124 
L 19.636364 758.447835 
z
" clip-path="url(#p8e4763f641)" style="fill: none"/>
    <path d="M 68.424004 813.806189 
L 66.558715 811.052051 
M 54.079136 797.306199 
L 52.363636 796.893365 
L 49.090909 796.738289 
L 47.585588 797.464699 
L 45.818182 797.885754 
L 45.349111 797.464699 
L 43.194982 794.196401 
L 42.545455 793.867342 
L 40.048536 790.928103 
L 39.272727 790.0055 
L 36.719136 787.659806 
L 36 786.437963 
L 33.71902 784.391508 
L 32.727273 782.629902 
L 31.151393 781.12321 
L 29.454545 779.726788 
L 27.508772 777.854912 
L 26.181818 776.578353 
L 22.909091 775.320308 
L 19.636364 776.269386 
L 16.363636 775.155291 
L 15.70502 774.586614 
L 13.405142 771.318316 
L 13.090909 771.129494 
L 9.818182 768.126243 
L 9.715799 768.050018 
L 6.545455 765.650486 
L 5.340927 764.78172 
L 3.272727 763.242047 
L 0.845998 761.513422 
L 0 760.910795 
M 78.545455 807.537868 
L 78.7522 807.269593 
L 78.545455 807.063127 
L 78.299878 807.269593 
L 78.545455 807.537868 
z
M 75.272727 804.24654 
L 75.479473 804.001295 
L 75.272727 803.804169 
L 75.046566 804.001295 
L 75.272727 804.24654 
z
" clip-path="url(#p8e4763f641)" style="fill: none"/>
    <path d="M 64.673365 813.806189 
L 62.181818 811.521773 
L 61.257927 810.537891 
L 58.909091 807.858849 
L 58.1788 807.269593 
L 55.636364 804.188634 
L 55.342774 804.001295 
L 52.363636 801.945577 
L 49.090909 803.459277 
L 46.23264 800.732997 
L 45.818182 800.579035 
L 42.545455 798.029525 
L 41.825429 797.464699 
L 39.272727 795.659011 
L 37.743394 794.196401 
L 36 792.751947 
L 33.659669 790.928103 
L 32.727273 790.038765 
L 29.454545 788.241555 
L 28.173191 787.659806 
L 26.181818 786.758439 
L 23.507375 785.521867 
M 8.574341 773.838094 
L 6.545455 772.898346 
L 3.272727 772.42803 
L 0.790667 771.318316 
L 0 770.966151 
" clip-path="url(#p8e4763f641)" style="fill: none"/>
    <path d="M 50.000437 813.806189 
L 49.090909 812.674196 
L 46.987244 810.537891 
L 45.818182 809.345863 
L 42.545455 807.523634 
L 41.69026 807.269593 
L 39.272727 806.55149 
L 38.067316 807.269593 
L 37.096687 810.537891 
L 36 811.95245 
L 34.403423 810.537891 
L 32.727273 808.919263 
L 31.85046 808.151296 
M 20.316838 793.411027 
L 19.636364 792.794142 
L 18.346852 790.928103 
L 16.363636 788.058213 
L 15.640488 787.659806 
L 13.090909 787.018647 
L 11.509489 787.659806 
L 9.818182 789.35712 
L 6.545455 789.663301 
L 3.975427 787.659806 
L 3.272727 785.596257 
L 0 784.950534 
" clip-path="url(#p8e4763f641)" style="fill: none"/>
    <path clip-path="url(#p8e4763f641)" style="fill: none"/>
    <path clip-path="url(#p8e4763f641)" style="fill: none"/>
    <path clip-path="url(#p8e4763f641)" style="fill: none"/>
    <path clip-path="url(#p8e4763f641)" style="fill: none"/>
    <path clip-path="url(#p8e4763f641)" style="fill: none"/>
    <path clip-path="url(#p8e4763f641)" style="fill: none"/>
    <path clip-path="url(#p8e4763f641)" style="fill: none"/>
    <path clip-path="url(#p8e4763f641)" style="fill: none"/>
    <path clip-path="url(#p8e4763f641)" style="fill: none"/>
    <path clip-path="url(#p8e4763f641)" style="fill: none"/>
    <path clip-path="url(#p8e4763f641)" style="fill: none"/>
    <path clip-path="url(#p8e4763f641)" style="fill: none"/>
    <path clip-path="url(#p8e4763f641)" style="fill: none"/>
    <path clip-path="url(#p8e4763f641)" style="fill: none"/>
    <path clip-path="url(#p8e4763f641)" style="fill: none"/>
    <path clip-path="url(#p8e4763f641)" style="fill: none"/>
    <path clip-path="url(#p8e4763f641)" style="fill: none"/>
    <path clip-path="url(#p8e4763f641)" style="fill: none"/>
    <path clip-path="url(#p8e4763f641)" style="fill: none"/>
    <path clip-path="url(#p8e4763f641)" style="fill: none"/>
    <path clip-path="url(#p8e4763f641)" style="fill: none"/>
    <path clip-path="url(#p8e4763f641)" style="fill: none"/>
    <path clip-path="url(#p8e4763f641)" style="fill: none"/>
    <path clip-path="url(#p8e4763f641)" style="fill: none"/>
    <path clip-path="url(#p8e4763f641)" style="fill: none"/>
    <path clip-path="url(#p8e4763f641)" style="fill: none"/>
    <path clip-path="url(#p8e4763f641)" style="fill: none"/>
    <path clip-path="url(#p8e4763f641)" style="fill: none"/>
    <path clip-path="url(#p8e4763f641)" style="fill: none"/>
    <path clip-path="url(#p8e4763f641)" style="fill: none"/>
    <path clip-path="url(#p8e4763f641)" style="fill: none"/>
    <path clip-path="url(#p8e4763f641)" style="fill: none"/>
   </g>
   <g id="text_1">
    <g clip-path="url(#p8e4763f641)">
     <!-- 0 -->
     <g style="opacity: 0" transform="translate(54.176774 793.68492) rotate(-313.252993) scale(0.12 -0.12)">
      <defs>
       <path id="DejaVuSans-30" d="M 2034 4250 
Q 1547 4250 1301 3770 
Q 1056 3291 1056 2328 
Q 1056 1369 1301 889 
Q 1547 409 2034 409 
Q 2525 409 2770 889 
Q 3016 1369 3016 2328 
Q 3016 3291 2770 3770 
Q 2525 4250 2034 4250 
z
M 2034 4750 
Q 2819 4750 3233 4129 
Q 3647 3509 3647 2328 
Q 3647 1150 3233 529 
Q 2819 -91 2034 -91 
Q 1250 -91 836 529 
Q 422 1150 422 2328 
Q 422 3509 836 4129 
Q 1250 4750 2034 4750 
z
" transform="scale(0.015625)"/>
      </defs>
      <use xlink:href="#DejaVuSans-30"/>
     </g>
    </g>
   </g>
   <g id="text_2">
    <g clip-path="url(#p8e4763f641)">
     <!-- 1 -->
     <g style="opacity: 0" transform="translate(37.627934 783.844928) rotate(-332.382796) scale(0.12 -0.12)">
      <defs>
       <path id="DejaVuSans-31" d="M 794 531 
L 1825 531 
L 1825 4091 
L 703 3866 
L 703 4441 
L 1819 4666 
L 2450 4666 
L 2450 531 
L 3481 531 
L 3481 0 
L 794 0 
L 794 531 
z
" transform="scale(0.015625)"/>
      </defs>
      <use xlink:href="#DejaVuSans-31"/>
     </g>
    </g>
   </g>
   <g id="text_3">
    <g clip-path="url(#p8e4763f641)">
     <!-- 2 -->
     <g style="opacity: 0" transform="translate(8.409338 767.453143) rotate(-341.180882) scale(0.12 -0.12)">
      <defs>
       <path id="DejaVuSans-32" d="M 1228 531 
L 3431 531 
L 3431 0 
L 469 0 
L 469 531 
Q 828 903 1448 1529 
Q 2069 2156 2228 2338 
Q 2531 2678 2651 2914 
Q 2772 3150 2772 3378 
Q 2772 3750 2511 3984 
Q 2250 4219 1831 4219 
Q 1534 4219 1204 4116 
Q 875 4013 500 3803 
L 500 4441 
Q 881 4594 1212 4672 
Q 1544 4750 1819 4750 
Q 2544 4750 2975 4387 
Q 3406 4025 3406 3419 
Q 3406 3131 3298 2873 
Q 3191 2616 2906 2266 
Q 2828 2175 2409 1742 
Q 1991 1309 1228 531 
z
" transform="scale(0.015625)"/>
      </defs>
      <use xlink:href="#DejaVuSans-32"/>
     </g>
    </g>
   </g>
   <g id="text_4">
    <g clip-path="url(#p8e4763f641)">
     <!-- 3 -->
     <g style="opacity: 0" transform="translate(23.72346 774.086832) rotate(-313.386315) scale(0.12 -0.12)">
      <defs>
       <path id="DejaVuSans-33" d="M 2597 2516 
Q 3050 2419 3304 2112 
Q 3559 1806 3559 1356 
Q 3559 666 3084 287 
Q 2609 -91 1734 -91 
Q 1441 -91 1130 -33 
Q 819 25 488 141 
L 488 750 
Q 750 597 1062 519 
Q 1375 441 1716 441 
Q 2309 441 2620 675 
Q 2931 909 2931 1356 
Q 2931 1769 2642 2001 
Q 2353 2234 1838 2234 
L 1294 2234 
L 1294 2753 
L 1863 2753 
Q 2328 2753 2575 2939 
Q 2822 3125 2822 3475 
Q 2822 3834 2567 4026 
Q 2313 4219 1838 4219 
Q 1578 4219 1281 4162 
Q 984 4106 628 3988 
L 628 4550 
Q 988 4650 1302 4700 
Q 1616 4750 1894 4750 
Q 2613 4750 3031 4423 
Q 3450 4097 3450 3541 
Q 3450 3153 3228 2886 
Q 3006 2619 2597 2516 
z
" transform="scale(0.015625)"/>
      </defs>
      <use xlink:href="#DejaVuSans-33"/>
     </g>
    </g>
   </g>
   <g id="text_5">
    <g clip-path="url(#p8e4763f641)">
     <!-- 4 -->
     <g style="opacity: 0" transform="translate(55.279403 802.800216) rotate(-305.312786) scale(0.12 -0.12)">
      <defs>
       <path id="DejaVuSans-34" d="M 2419 4116 
L 825 1625 
L 2419 1625 
L 2419 4116 
z
M 2253 4666 
L 3047 4666 
L 3047 1625 
L 3713 1625 
L 3713 1100 
L 3047 1100 
L 3047 0 
L 2419 0 
L 2419 1100 
L 313 1100 
L 313 1709 
L 2253 4666 
z
" transform="scale(0.015625)"/>
      </defs>
      <use xlink:href="#DejaVuSans-34"/>
     </g>
    </g>
   </g>
   <g id="text_6">
    <g clip-path="url(#p8e4763f641)">
     <!-- 5 -->
     <g style="opacity: 0" transform="translate(11.31711 779.571799) rotate(-322.068634) scale(0.12 -0.12)">
      <defs>
       <path id="DejaVuSans-35" d="M 691 4666 
L 3169 4666 
L 3169 4134 
L 1269 4134 
L 1269 2991 
Q 1406 3038 1543 3061 
Q 1681 3084 1819 3084 
Q 2600 3084 3056 2656 
Q 3513 2228 3513 1497 
Q 3513 744 3044 326 
Q 2575 -91 1722 -91 
Q 1428 -91 1123 -41 
Q 819 9 494 109 
L 494 744 
Q 775 591 1075 516 
Q 1375 441 1709 441 
Q 2250 441 2565 725 
Q 2881 1009 2881 1497 
Q 2881 1984 2565 2268 
Q 2250 2553 1709 2553 
Q 1456 2553 1204 2497 
Q 953 2441 691 2322 
L 691 4666 
z
" transform="scale(0.015625)"/>
      </defs>
      <use xlink:href="#DejaVuSans-35"/>
     </g>
    </g>
   </g>
   <g id="text_7">
    <g clip-path="url(#p8e4763f641)">
     <!-- 6 -->
     <g style="opacity: 0" transform="translate(21.204647 800.451067) rotate(-315.863907) scale(0.12 -0.12)">
      <defs>
       <path id="DejaVuSans-36" d="M 2113 2584 
Q 1688 2584 1439 2293 
Q 1191 2003 1191 1497 
Q 1191 994 1439 701 
Q 1688 409 2113 409 
Q 2538 409 2786 701 
Q 3034 994 3034 1497 
Q 3034 2003 2786 2293 
Q 2538 2584 2113 2584 
z
M 3366 4563 
L 3366 3988 
Q 3128 4100 2886 4159 
Q 2644 4219 2406 4219 
Q 1781 4219 1451 3797 
Q 1122 3375 1075 2522 
Q 1259 2794 1537 2939 
Q 1816 3084 2150 3084 
Q 2853 3084 3261 2657 
Q 3669 2231 3669 1497 
Q 3669 778 3244 343 
Q 2819 -91 2113 -91 
Q 1303 -91 875 529 
Q 447 1150 447 2328 
Q 447 3434 972 4092 
Q 1497 4750 2381 4750 
Q 2619 4750 2861 4703 
Q 3103 4656 3366 4563 
z
" transform="scale(0.015625)"/>
      </defs>
      <use xlink:href="#DejaVuSans-36"/>
     </g>
    </g>
   </g>
  </g>
 </g>
 <defs>
  <clipPath id="p8e4763f641">
   <rect x="0" y="0" width="576" height="813.806189"/>
  </clipPath>
 </defs>
</svg>
