<?xml version="1.0" encoding="utf-8" standalone="no"?>
<!DOCTYPE svg PUBLIC "-//W3C//DTD SVG 1.1//EN"
  "http://www.w3.org/Graphics/SVG/1.1/DTD/svg11.dtd">
<svg xmlns:xlink="http://www.w3.org/1999/xlink" width="576pt" height="816.51314pt" viewBox="0 0 576 816.51314" xmlns="http://www.w3.org/2000/svg" version="1.1">
 <metadata>
  <rdf:RDF xmlns:dc="http://purl.org/dc/elements/1.1/" xmlns:cc="http://creativecommons.org/ns#" xmlns:rdf="http://www.w3.org/1999/02/22-rdf-syntax-ns#">
   <cc:Work>
    <dc:type rdf:resource="http://purl.org/dc/dcmitype/StillImage"/>
    <dc:date>2025-07-25T22:44:32.091331</dc:date>
    <dc:format>image/svg+xml</dc:format>
    <dc:creator>
     <cc:Agent>
      <dc:title>Matplotlib v3.10.3, https://matplotlib.org/</dc:title>
     </cc:Agent>
    </dc:creator>
   </cc:Work>
  </rdf:RDF>
 </metadata>
 <defs>
  <style type="text/css">*{stroke-linejoin: round; stroke-linecap: butt}</style>
 </defs>
 <g id="figure_1">
  <g id="patch_1">
   <path d="M 0 816.51314 
L 576 816.51314 
L 576 0 
L 0 0 
L 0 816.51314 
z
" style="fill: none; opacity: 0"/>
  </g>
  <g id="axes_1">
   <g id="QuadContourSet_1">
    <path d="M 576 108.25043 
L 576 108.212585 
L 576 106.146666 
L 574.14327 104.933416 
L 572.727273 103.996096 
L 569.454545 101.888705 
L 569.114169 101.654246 
L 566.181818 99.759618 
L 564.14993 98.375077 
L 562.909091 97.528297 
L 559.636364 95.515659 
L 558.856851 95.095908 
L 556.363636 93.710324 
L 553.090909 91.958099 
L 552.863534 91.816739 
L 549.818182 89.915017 
L 547.59656 88.537569 
L 546.545455 87.878194 
L 543.272727 85.820691 
L 542.474656 85.2584 
L 540 83.615755 
L 537.551226 81.979231 
L 536.727273 81.429818 
L 533.454545 79.340895 
L 532.447228 78.700062 
L 530.181818 77.241369 
L 527.09999 75.420892 
L 526.909091 75.301049 
L 523.636364 73.45778 
L 521.343028 72.141723 
L 520.363636 71.585679 
L 517.090909 69.540918 
L 516.054705 68.862554 
L 513.818182 67.396656 
L 510.985629 65.583385 
L 510.545455 65.297241 
L 507.272727 63.22087 
L 505.950648 62.304216 
L 504 61.026872 
L 501.074617 59.025046 
L 500.727273 58.794119 
L 497.454545 56.893976 
L 495.267654 55.745877 
L 494.181818 55.158922 
L 490.909091 53.361061 
L 489.27825 52.466708 
L 487.636364 51.545057 
L 484.363636 49.652603 
L 483.66097 49.187539 
L 481.090909 47.542239 
L 478.444228 45.908369 
L 477.818182 45.512874 
L 474.545455 43.560644 
L 473.1248 42.6292 
L 471.272727 41.488205 
L 468 39.509162 
L 467.627835 39.350031 
L 464.727273 38.115538 
L 461.454545 36.697281 
L 459.929969 36.070862 
L 458.181818 35.331532 
L 454.909091 33.798626 
L 452.657141 32.791692 
L 451.636364 32.306682 
L 448.363636 30.788731 
L 445.892719 29.512523 
L 445.090909 29.093279 
L 441.818182 27.599089 
L 439.300651 26.233354 
L 438.545455 25.857229 
L 435.272727 24.230685 
L 432.645483 22.954185 
L 432 22.583038 
L 428.727273 21.144986 
L 425.454545 19.700913 
L 425.395908 19.675015 
L 422.181818 18.224032 
L 418.909091 16.790077 
L 418.0493 16.395846 
L 415.636364 15.286674 
L 412.363636 13.789561 
L 410.901204 13.116677 
L 409.090909 12.283381 
L 405.818182 10.78228 
L 403.765999 9.837508 
L 402.545455 9.245009 
L 399.272727 7.432212 
L 397.541751 6.558338 
L 396 5.781451 
L 392.727273 4.195268 
L 390.564923 3.279169 
L 389.454545 2.797077 
L 386.181818 1.294761 
L 383.450118 0 
L 382.909091 0 
L 379.636364 0 
L 378.368767 0 
L 379.636364 0.515303 
L 382.909091 2.010381 
L 385.909734 3.279169 
L 386.181818 3.383957 
L 389.454545 5.000341 
L 392.727273 6.415209 
L 393.034875 6.558338 
L 396 7.879943 
L 399.272727 9.488606 
L 399.907627 9.837508 
L 402.545455 11.183247 
L 405.818182 12.686518 
L 406.756095 13.116677 
L 409.090909 14.18961 
L 412.363636 15.692719 
L 413.895697 16.395846 
L 415.636364 17.203251 
L 418.909091 18.69683 
L 421.033828 19.675015 
L 422.181818 20.267733 
L 425.454545 21.664775 
L 428.237153 22.954185 
L 428.727273 23.236513 
L 432 24.630473 
L 435.272727 26.144893 
L 435.461671 26.233354 
L 438.545455 27.704387 
L 441.818182 29.266175 
L 442.361896 29.512523 
L 445.090909 30.886375 
L 448.363636 32.392002 
L 449.197493 32.791692 
L 451.636364 34.077664 
L 454.909091 35.483772 
L 456.072679 36.070862 
L 458.181818 37.236133 
L 461.454545 38.646481 
L 463.055684 39.350031 
L 464.727273 40.162003 
L 468 41.499333 
L 470.035057 42.6292 
L 471.272727 43.389248 
L 474.545455 45.415315 
L 475.379343 45.908369 
L 477.818182 47.449389 
L 480.905078 49.187539 
L 481.090909 49.334786 
L 484.363636 51.448424 
L 486.009615 52.466708 
L 487.636364 53.558799 
L 490.909091 55.409334 
L 491.497976 55.745877 
L 494.181818 57.264404 
L 497.239676 59.025046 
L 497.454545 59.196837 
L 500.727273 60.988562 
L 502.872282 62.304216 
L 504 63.018756 
L 507.272727 65.172019 
L 507.921146 65.583385 
L 510.545455 67.35232 
L 513.015391 68.862554 
L 513.818182 69.449574 
L 517.090909 71.459329 
L 518.13139 72.141723 
L 520.363636 73.670861 
L 523.096153 75.420892 
L 523.636364 75.870875 
L 526.909091 77.697886 
L 528.704178 78.700062 
L 530.181818 79.530569 
L 533.454545 81.537591 
L 534.175854 81.979231 
L 536.727273 83.653023 
L 539.448224 85.2584 
L 540 85.634359 
L 543.272727 87.844115 
L 544.351171 88.537569 
L 546.545455 90.040868 
L 549.411978 91.816739 
L 549.818182 92.138769 
L 553.090909 94.101629 
L 554.678871 95.095908 
L 556.363636 96.203098 
L 559.636364 98.159128 
L 560.026193 98.375077 
L 562.909091 99.949886 
L 565.699761 101.654246 
L 566.181818 101.971052 
L 569.454545 104.165742 
L 570.687577 104.933416 
L 572.727273 106.293192 
L 575.949142 108.212585 
z
" clip-path="url(#pe2574cb32a)" style="fill: #f5f9fe; fill-opacity: 0.9"/>
    <path d="M 576 106.146666 
L 576 104.933416 
L 576 103.893972 
L 572.727273 101.876918 
L 572.384116 101.654246 
L 569.454545 99.72817 
L 567.354217 98.375077 
L 566.181818 97.609712 
L 562.909091 95.389243 
L 562.450358 95.095908 
L 559.636364 93.18093 
L 557.469715 91.816739 
L 556.363636 91.083054 
L 553.090909 89.184043 
L 551.817765 88.537569 
L 549.818182 87.487446 
L 546.545455 85.699807 
L 545.82833 85.2584 
L 543.272727 83.660767 
L 540.513758 81.979231 
L 540 81.661131 
L 536.727273 79.527781 
L 535.481734 78.700062 
L 533.454545 77.333945 
L 530.687365 75.420892 
L 530.181818 75.075109 
L 526.909091 72.938167 
L 525.499216 72.141723 
L 523.636364 71.018928 
L 520.363636 69.238156 
L 519.714283 68.862554 
L 517.090909 67.361134 
L 514.041022 65.583385 
L 513.818182 65.454849 
L 510.545455 63.346817 
L 508.902401 62.304216 
L 507.272727 61.253837 
L 504 59.184102 
L 503.767563 59.025046 
L 500.727273 57.003747 
L 498.805875 55.745877 
L 497.454545 54.851974 
L 494.181818 52.822106 
L 493.486119 52.466708 
L 490.909091 51.129302 
L 487.636364 49.448465 
L 487.165759 49.187539 
L 484.363636 47.62315 
L 481.313835 45.908369 
L 481.090909 45.783522 
L 477.818182 43.735334 
L 475.999932 42.6292 
L 474.545455 41.723223 
L 471.272727 39.745497 
L 470.625223 39.350031 
L 468 37.857489 
L 464.727273 36.134566 
L 464.579204 36.070862 
L 461.454545 34.732705 
L 458.181818 33.325213 
L 456.879749 32.791692 
L 454.909091 31.973462 
L 451.636364 30.516013 
L 449.23704 29.512523 
L 448.363636 29.121745 
L 445.090909 27.470201 
L 442.445667 26.233354 
L 441.818182 25.92282 
L 438.545455 24.32671 
L 436.159203 22.954185 
L 435.272727 22.404605 
L 432 20.317717 
L 430.357124 19.675015 
L 428.727273 18.949068 
L 425.454545 17.636923 
L 422.605129 16.395846 
L 422.181818 16.209693 
L 418.909091 14.771643 
L 415.636364 13.375105 
L 415.07031 13.116677 
L 412.363636 11.877087 
L 409.090909 10.379411 
L 407.909547 9.837508 
L 405.818182 8.875177 
L 402.545455 7.237099 
L 401.333828 6.558338 
L 399.272727 5.328636 
L 396 3.728905 
L 395.110797 3.279169 
L 392.727273 2.075895 
L 389.454545 0.52206 
L 388.222904 0 
L 386.181818 0 
L 383.450118 0 
L 386.181818 1.294761 
L 389.454545 2.797077 
L 390.564923 3.279169 
L 392.727273 4.195268 
L 396 5.781451 
L 397.541751 6.558338 
L 399.272727 7.432212 
L 402.545455 9.245009 
L 403.765999 9.837508 
L 405.818182 10.78228 
L 409.090909 12.283381 
L 410.901204 13.116677 
L 412.363636 13.789561 
L 415.636364 15.286674 
L 418.0493 16.395846 
L 418.909091 16.790077 
L 422.181818 18.224032 
L 425.395908 19.675015 
L 425.454545 19.700913 
L 428.727273 21.144986 
L 432 22.583038 
L 432.645483 22.954185 
L 435.272727 24.230685 
L 438.545455 25.857229 
L 439.300651 26.233354 
L 441.818182 27.599089 
L 445.090909 29.093279 
L 445.892719 29.512523 
L 448.363636 30.788731 
L 451.636364 32.306682 
L 452.657141 32.791692 
L 454.909091 33.798626 
L 458.181818 35.331532 
L 459.929969 36.070862 
L 461.454545 36.697281 
L 464.727273 38.115538 
L 467.627835 39.350031 
L 468 39.509162 
L 471.272727 41.488205 
L 473.1248 42.6292 
L 474.545455 43.560644 
L 477.818182 45.512874 
L 478.444228 45.908369 
L 481.090909 47.542239 
L 483.66097 49.187539 
L 484.363636 49.652603 
L 487.636364 51.545057 
L 489.27825 52.466708 
L 490.909091 53.361061 
L 494.181818 55.158922 
L 495.267654 55.745877 
L 497.454545 56.893976 
L 500.727273 58.794119 
L 501.074617 59.025046 
L 504 61.026872 
L 505.950648 62.304216 
L 507.272727 63.22087 
L 510.545455 65.297241 
L 510.985629 65.583385 
L 513.818182 67.396656 
L 516.054705 68.862554 
L 517.090909 69.540918 
L 520.363636 71.585679 
L 521.343028 72.141723 
L 523.636364 73.45778 
L 526.909091 75.301049 
L 527.09999 75.420892 
L 530.181818 77.241369 
L 532.447228 78.700062 
L 533.454545 79.340895 
L 536.727273 81.429818 
L 537.551226 81.979231 
L 540 83.615755 
L 542.474656 85.2584 
L 543.272727 85.820691 
L 546.545455 87.878194 
L 547.59656 88.537569 
L 549.818182 89.915017 
L 552.863534 91.816739 
L 553.090909 91.958099 
L 556.363636 93.710324 
L 558.856851 95.095908 
L 559.636364 95.515659 
L 562.909091 97.528297 
L 564.14993 98.375077 
L 566.181818 99.759618 
L 569.114169 101.654246 
L 569.454545 101.888705 
L 572.727273 103.996096 
L 574.14327 104.933416 
z
" clip-path="url(#pe2574cb32a)" style="fill: #eff6fc; fill-opacity: 0.9"/>
    <path d="M 572.727273 101.876918 
L 576 103.893972 
L 576 101.654246 
L 576 101.187036 
L 572.727273 99.466286 
L 570.937516 98.375077 
L 569.454545 97.48169 
L 566.181818 95.433918 
L 565.682495 95.095908 
L 562.909091 93.266011 
L 560.846099 91.816739 
L 559.636364 91.001631 
L 556.363636 88.684803 
L 556.122155 88.537569 
L 553.090909 86.58491 
L 550.83316 85.2584 
L 549.818182 84.626333 
L 546.545455 82.875555 
L 544.727336 81.979231 
L 543.272727 81.247366 
L 540 79.413528 
L 538.822482 78.700062 
L 536.727273 77.413539 
L 533.484802 75.420892 
L 533.454545 75.402282 
L 530.181818 73.166835 
L 528.716903 72.141723 
L 526.909091 70.880745 
L 524.02905 68.862554 
L 523.636364 68.588264 
L 520.363636 66.592856 
L 518.353434 65.583385 
L 517.090909 64.900362 
L 513.818182 63.15632 
L 512.367207 62.304216 
L 510.545455 61.22981 
L 507.272727 59.27273 
L 506.878811 59.025046 
L 504 57.186004 
L 501.688249 55.745877 
L 500.727273 55.079791 
L 497.454545 53.042909 
L 496.560881 52.466708 
L 494.181818 50.906719 
L 491.442756 49.187539 
L 490.909091 48.842931 
L 487.636364 47.075431 
L 485.278567 45.908369 
L 484.363636 45.44806 
L 481.090909 43.680757 
L 479.226435 42.6292 
L 477.818182 41.838075 
L 474.545455 39.903206 
L 473.621871 39.350031 
L 471.272727 37.908109 
L 468 36.235235 
L 467.689846 36.070862 
L 464.727273 34.489331 
L 461.50309 32.791692 
L 461.454545 32.765945 
L 458.181818 31.350822 
L 454.909091 29.940415 
L 453.849504 29.512523 
L 451.636364 28.608528 
L 448.363636 27.206138 
L 446.13516 26.233354 
L 445.090909 25.772502 
L 441.818182 24.204933 
L 438.951851 22.954185 
L 438.545455 22.764058 
L 435.272727 20.754934 
L 433.709964 19.675015 
L 432 18.493377 
L 428.752979 16.395846 
L 428.727273 16.378459 
L 425.454545 15.369752 
L 422.181818 14.124446 
L 419.838671 13.116677 
L 418.909091 12.71491 
L 415.636364 11.311113 
L 412.363636 9.959518 
L 412.096327 9.837508 
L 409.090909 8.459653 
L 405.818182 6.965255 
L 405.021314 6.558338 
L 402.545455 5.095211 
L 399.430471 3.279169 
L 399.272727 3.172651 
L 396 1.395815 
L 392.727273 0.027182 
L 392.671872 0 
L 389.454545 0 
L 388.222904 0 
L 389.454545 0.52206 
L 392.727273 2.075895 
L 395.110797 3.279169 
L 396 3.728905 
L 399.272727 5.328636 
L 401.333828 6.558338 
L 402.545455 7.237099 
L 405.818182 8.875177 
L 407.909547 9.837508 
L 409.090909 10.379411 
L 412.363636 11.877087 
L 415.07031 13.116677 
L 415.636364 13.375105 
L 418.909091 14.771643 
L 422.181818 16.209693 
L 422.605129 16.395846 
L 425.454545 17.636923 
L 428.727273 18.949068 
L 430.357124 19.675015 
L 432 20.317717 
L 435.272727 22.404605 
L 436.159203 22.954185 
L 438.545455 24.32671 
L 441.818182 25.92282 
L 442.445667 26.233354 
L 445.090909 27.470201 
L 448.363636 29.121745 
L 449.23704 29.512523 
L 451.636364 30.516013 
L 454.909091 31.973462 
L 456.879749 32.791692 
L 458.181818 33.325213 
L 461.454545 34.732705 
L 464.579204 36.070862 
L 464.727273 36.134566 
L 468 37.857489 
L 470.625223 39.350031 
L 471.272727 39.745497 
L 474.545455 41.723223 
L 475.999932 42.6292 
L 477.818182 43.735334 
L 481.090909 45.783522 
L 481.313835 45.908369 
L 484.363636 47.62315 
L 487.165759 49.187539 
L 487.636364 49.448465 
L 490.909091 51.129302 
L 493.486119 52.466708 
L 494.181818 52.822106 
L 497.454545 54.851974 
L 498.805875 55.745877 
L 500.727273 57.003747 
L 503.767563 59.025046 
L 504 59.184102 
L 507.272727 61.253837 
L 508.902401 62.304216 
L 510.545455 63.346817 
L 513.818182 65.454849 
L 514.041022 65.583385 
L 517.090909 67.361134 
L 519.714283 68.862554 
L 520.363636 69.238156 
L 523.636364 71.018928 
L 525.499216 72.141723 
L 526.909091 72.938167 
L 530.181818 75.075109 
L 530.687365 75.420892 
L 533.454545 77.333945 
L 535.481734 78.700062 
L 536.727273 79.527781 
L 540 81.661131 
L 540.513758 81.979231 
L 543.272727 83.660767 
L 545.82833 85.2584 
L 546.545455 85.699807 
L 549.818182 87.487446 
L 551.817765 88.537569 
L 553.090909 89.184043 
L 556.363636 91.083054 
L 557.469715 91.816739 
L 559.636364 93.18093 
L 562.450358 95.095908 
L 562.909091 95.389243 
L 566.181818 97.609712 
L 567.354217 98.375077 
L 569.454545 99.72817 
L 572.384116 101.654246 
z
" clip-path="url(#pe2574cb32a)" style="fill: #eaf3fb; fill-opacity: 0.9"/>
    <path d="M 572.727273 99.466286 
L 576 101.187036 
L 576 98.375077 
L 576 97.415734 
L 572.727273 95.417252 
L 570.013619 95.095908 
L 569.454545 95.0235 
L 566.181818 92.96668 
L 564.249936 91.816739 
L 562.909091 90.947704 
L 559.636364 88.967612 
L 559.034697 88.537569 
L 556.363636 86.703406 
L 554.37336 85.2584 
L 553.090909 84.362487 
L 549.854817 81.979231 
L 549.818182 81.953233 
L 546.545455 79.979284 
L 544.153085 78.700062 
L 543.272727 78.202447 
L 540 76.574623 
L 537.553677 75.420892 
L 536.727273 75.022785 
L 533.454545 73.122557 
L 531.877851 72.141723 
L 530.181818 71.092776 
L 526.909091 68.978632 
L 526.743443 68.862554 
L 523.636364 66.692272 
L 522.056122 65.583385 
L 520.363636 64.399543 
L 517.381742 62.304216 
L 517.090909 62.100505 
L 513.818182 60.318942 
L 510.868143 59.025046 
L 510.545455 58.881733 
L 507.272727 56.989691 
L 505.136597 55.745877 
L 504 55.062932 
L 500.727273 52.84028 
L 500.083725 52.466708 
L 497.454545 50.691422 
L 494.51557 49.187539 
L 494.181818 48.983449 
L 490.909091 46.950121 
L 489.220313 45.908369 
L 487.636364 44.902293 
L 484.363636 42.996115 
L 483.609682 42.6292 
L 481.090909 41.382964 
L 477.818182 39.743582 
L 477.122517 39.350031 
L 474.545455 37.888867 
L 471.328357 36.070862 
L 471.272727 36.037366 
L 468 34.172056 
L 464.727273 32.855251 
L 464.606561 32.791692 
L 461.454545 31.119865 
L 458.381478 29.512523 
L 458.181818 29.404471 
L 454.909091 27.969876 
L 451.636364 26.552129 
L 450.852481 26.233354 
L 448.363636 25.219409 
L 445.090909 23.835836 
L 443.042027 22.954185 
L 441.818182 22.4217 
L 438.545455 20.922249 
L 436.378112 19.675015 
L 435.272727 18.878329 
L 432 16.843706 
L 431.306704 16.395846 
L 428.727273 14.651133 
L 425.854531 13.116677 
L 425.454545 12.867676 
L 422.181818 11.792314 
L 418.909091 10.61943 
L 417.079115 9.837508 
L 415.636364 9.220963 
L 412.363636 7.843305 
L 409.159091 6.558338 
L 409.090909 6.530529 
L 405.818182 5.014637 
L 403.09459 3.279169 
L 402.545455 2.837961 
L 399.272727 0.612569 
L 398.08719 0 
L 396 0 
L 392.727273 0 
L 392.671872 0 
L 392.727273 0.027182 
L 396 1.395815 
L 399.272727 3.172651 
L 399.430471 3.279169 
L 402.545455 5.095211 
L 405.021314 6.558338 
L 405.818182 6.965255 
L 409.090909 8.459653 
L 412.096327 9.837508 
L 412.363636 9.959518 
L 415.636364 11.311113 
L 418.909091 12.71491 
L 419.838671 13.116677 
L 422.181818 14.124446 
L 425.454545 15.369752 
L 428.727273 16.378459 
L 428.752979 16.395846 
L 432 18.493377 
L 433.709964 19.675015 
L 435.272727 20.754934 
L 438.545455 22.764058 
L 438.951851 22.954185 
L 441.818182 24.204933 
L 445.090909 25.772502 
L 446.13516 26.233354 
L 448.363636 27.206138 
L 451.636364 28.608528 
L 453.849504 29.512523 
L 454.909091 29.940415 
L 458.181818 31.350822 
L 461.454545 32.765945 
L 461.50309 32.791692 
L 464.727273 34.489331 
L 467.689846 36.070862 
L 468 36.235235 
L 471.272727 37.908109 
L 473.621871 39.350031 
L 474.545455 39.903206 
L 477.818182 41.838075 
L 479.226435 42.6292 
L 481.090909 43.680757 
L 484.363636 45.44806 
L 485.278567 45.908369 
L 487.636364 47.075431 
L 490.909091 48.842931 
L 491.442756 49.187539 
L 494.181818 50.906719 
L 496.560881 52.466708 
L 497.454545 53.042909 
L 500.727273 55.079791 
L 501.688249 55.745877 
L 504 57.186004 
L 506.878811 59.025046 
L 507.272727 59.27273 
L 510.545455 61.22981 
L 512.367207 62.304216 
L 513.818182 63.15632 
L 517.090909 64.900362 
L 518.353434 65.583385 
L 520.363636 66.592856 
L 523.636364 68.588264 
L 524.02905 68.862554 
L 526.909091 70.880745 
L 528.716903 72.141723 
L 530.181818 73.166835 
L 533.454545 75.402282 
L 533.484802 75.420892 
L 536.727273 77.413539 
L 538.822482 78.700062 
L 540 79.413528 
L 543.272727 81.247366 
L 544.727336 81.979231 
L 546.545455 82.875555 
L 549.818182 84.626333 
L 550.83316 85.2584 
L 553.090909 86.58491 
L 556.122155 88.537569 
L 556.363636 88.684803 
L 559.636364 91.001631 
L 560.846099 91.816739 
L 562.909091 93.266011 
L 565.682495 95.095908 
L 566.181818 95.433918 
L 569.454545 97.48169 
L 570.937516 98.375077 
z
" clip-path="url(#pe2574cb32a)" style="fill: #e5eff9; fill-opacity: 0.9"/>
    <path d="M 572.727273 95.417252 
L 576 97.415734 
L 576 95.177078 
L 575.878431 95.095908 
L 572.727273 92.915154 
L 571.051568 91.816739 
L 569.454545 90.718688 
L 566.309942 88.537569 
L 566.181818 88.432131 
L 562.909091 87.688018 
L 559.636364 86.162057 
L 557.884858 85.2584 
L 556.363636 84.388763 
L 553.090909 82.482205 
L 552.407948 81.979231 
L 549.818182 80.141423 
L 547.886397 78.700062 
L 546.545455 77.723385 
L 543.459822 75.420892 
L 543.272727 75.282099 
L 540 73.425985 
L 537.344551 72.141723 
L 536.727273 71.804783 
L 533.454545 70.027624 
L 530.340514 68.862554 
L 530.181818 68.789959 
L 526.909091 66.777503 
L 525.062168 65.583385 
L 523.636364 64.679846 
L 520.363636 62.509633 
L 520.071304 62.304216 
L 517.090909 60.216638 
L 515.397442 59.025046 
L 513.818182 57.917357 
L 510.596619 55.745877 
L 510.545455 55.710422 
L 507.272727 54.259472 
L 504 52.662471 
L 503.708225 52.466708 
L 500.727273 50.23548 
L 499.153967 49.187539 
L 497.454545 48.10746 
L 494.227548 45.908369 
L 494.181818 45.878571 
L 490.909091 44.509604 
L 487.636364 42.953326 
L 487.10101 42.6292 
L 484.363636 40.933592 
L 481.707906 39.350031 
L 481.090909 38.977474 
L 477.818182 37.291177 
L 475.257927 36.070862 
L 474.545455 35.72801 
L 471.272727 33.800703 
L 469.422176 32.791692 
L 468 31.883911 
L 464.727273 30.33465 
L 461.677707 29.512523 
L 461.454545 29.436375 
L 458.181818 27.701312 
L 455.283203 26.233354 
L 454.909091 26.018835 
L 451.636364 24.589854 
L 448.363636 23.159297 
L 447.857918 22.954185 
L 445.090909 21.829892 
L 441.818182 20.463507 
L 440.001731 19.675015 
L 438.545455 18.917738 
L 435.272727 16.571593 
L 434.96287 16.395846 
L 432 14.411216 
L 429.349958 13.116677 
L 428.727273 12.745282 
L 425.454545 10.854542 
L 423.227799 9.837508 
L 422.181818 9.26505 
L 418.909091 8.22647 
L 415.636364 7.125221 
L 414.309435 6.558338 
L 412.363636 5.726963 
L 409.090909 4.364247 
L 406.430545 3.279169 
L 405.818182 2.992808 
L 402.545455 0.36448 
L 402.014384 0 
L 399.272727 0 
L 398.08719 0 
L 399.272727 0.612569 
L 402.545455 2.837961 
L 403.09459 3.279169 
L 405.818182 5.014637 
L 409.090909 6.530529 
L 409.159091 6.558338 
L 412.363636 7.843305 
L 415.636364 9.220963 
L 417.079115 9.837508 
L 418.909091 10.61943 
L 422.181818 11.792314 
L 425.454545 12.867676 
L 425.854531 13.116677 
L 428.727273 14.651133 
L 431.306704 16.395846 
L 432 16.843706 
L 435.272727 18.878329 
L 436.378112 19.675015 
L 438.545455 20.922249 
L 441.818182 22.4217 
L 443.042027 22.954185 
L 445.090909 23.835836 
L 448.363636 25.219409 
L 450.852481 26.233354 
L 451.636364 26.552129 
L 454.909091 27.969876 
L 458.181818 29.404471 
L 458.381478 29.512523 
L 461.454545 31.119865 
L 464.606561 32.791692 
L 464.727273 32.855251 
L 468 34.172056 
L 471.272727 36.037366 
L 471.328357 36.070862 
L 474.545455 37.888867 
L 477.122517 39.350031 
L 477.818182 39.743582 
L 481.090909 41.382964 
L 483.609682 42.6292 
L 484.363636 42.996115 
L 487.636364 44.902293 
L 489.220313 45.908369 
L 490.909091 46.950121 
L 494.181818 48.983449 
L 494.51557 49.187539 
L 497.454545 50.691422 
L 500.083725 52.466708 
L 500.727273 52.84028 
L 504 55.062932 
L 505.136597 55.745877 
L 507.272727 56.989691 
L 510.545455 58.881733 
L 510.868143 59.025046 
L 513.818182 60.318942 
L 517.090909 62.100505 
L 517.381742 62.304216 
L 520.363636 64.399543 
L 522.056122 65.583385 
L 523.636364 66.692272 
L 526.743443 68.862554 
L 526.909091 68.978632 
L 530.181818 71.092776 
L 531.877851 72.141723 
L 533.454545 73.122557 
L 536.727273 75.022785 
L 537.553677 75.420892 
L 540 76.574623 
L 543.272727 78.202447 
L 544.153085 78.700062 
L 546.545455 79.979284 
L 549.818182 81.953233 
L 549.854817 81.979231 
L 553.090909 84.362487 
L 554.37336 85.2584 
L 556.363636 86.703406 
L 559.034697 88.537569 
L 559.636364 88.967612 
L 562.909091 90.947704 
L 564.249936 91.816739 
L 566.181818 92.96668 
L 569.454545 95.0235 
L 570.013619 95.095908 
z
" clip-path="url(#pe2574cb32a)" style="fill: #dfecf7; fill-opacity: 0.9"/>
    <path d="M 576 95.177078 
L 576 95.095908 
L 576 93.318994 
L 574.012104 91.816739 
L 572.727273 90.827868 
L 569.711304 88.537569 
L 569.454545 88.321585 
L 566.181818 85.544461 
L 565.749759 85.2584 
L 562.909091 83.017948 
L 561.169451 81.979231 
L 559.636364 80.847388 
L 556.363636 79.683242 
L 553.090909 79.238116 
L 551.739675 78.700062 
L 549.818182 77.82949 
L 546.545455 75.954748 
L 545.83002 75.420892 
L 543.272727 73.523798 
L 541.409684 72.141723 
L 540 71.095967 
L 537.128343 68.862554 
L 536.727273 68.533444 
L 533.454545 65.694792 
L 533.205723 65.583385 
L 530.181818 63.730358 
L 526.909091 62.885552 
L 523.636364 62.503387 
L 523.331636 62.304216 
L 520.363636 60.363779 
L 518.315101 59.025046 
L 517.090909 58.181258 
L 513.818182 56.039494 
L 513.382578 55.745877 
L 510.545455 53.779858 
L 508.556094 52.466708 
L 507.272727 51.590836 
L 504 49.226749 
L 503.941308 49.187539 
L 500.727273 47.009022 
L 498.47523 45.908369 
L 497.454545 45.293493 
L 494.181818 43.435292 
L 492.693491 42.6292 
L 490.909091 41.543567 
L 487.636364 40.20807 
L 485.707442 39.350031 
L 484.363636 38.783929 
L 481.090909 36.958262 
L 479.589767 36.070862 
L 477.818182 35.010174 
L 474.545455 33.168454 
L 473.853375 32.791692 
L 471.272727 31.303469 
L 468.408986 29.512523 
L 468 29.256749 
L 464.727273 27.370619 
L 461.544093 26.233354 
L 461.454545 26.194203 
L 458.181818 25.664629 
L 454.909091 24.090432 
L 452.33198 22.954185 
L 451.636364 22.600745 
L 448.363636 21.210743 
L 445.090909 19.766055 
L 444.865847 19.675015 
L 441.818182 18.440653 
L 438.545455 16.571927 
L 438.29952 16.395846 
L 435.272727 13.859585 
L 434.159334 13.116677 
L 432 11.380021 
L 429.422773 9.837508 
L 428.727273 9.385762 
L 425.454545 7.72488 
L 422.181818 6.852775 
L 421.337273 6.558338 
L 418.909091 5.502442 
L 415.636364 4.667218 
L 412.363636 3.630957 
L 411.540051 3.279169 
L 409.090909 2.232908 
L 405.818182 0.509104 
L 405.183895 0 
L 402.545455 0 
L 402.014384 0 
L 402.545455 0.36448 
L 405.818182 2.992808 
L 406.430545 3.279169 
L 409.090909 4.364247 
L 412.363636 5.726963 
L 414.309435 6.558338 
L 415.636364 7.125221 
L 418.909091 8.22647 
L 422.181818 9.26505 
L 423.227799 9.837508 
L 425.454545 10.854542 
L 428.727273 12.745282 
L 429.349958 13.116677 
L 432 14.411216 
L 434.96287 16.395846 
L 435.272727 16.571593 
L 438.545455 18.917738 
L 440.001731 19.675015 
L 441.818182 20.463507 
L 445.090909 21.829892 
L 447.857918 22.954185 
L 448.363636 23.159297 
L 451.636364 24.589854 
L 454.909091 26.018835 
L 455.283203 26.233354 
L 458.181818 27.701312 
L 461.454545 29.436375 
L 461.677707 29.512523 
L 464.727273 30.33465 
L 468 31.883911 
L 469.422176 32.791692 
L 471.272727 33.800703 
L 474.545455 35.72801 
L 475.257927 36.070862 
L 477.818182 37.291177 
L 481.090909 38.977474 
L 481.707906 39.350031 
L 484.363636 40.933592 
L 487.10101 42.6292 
L 487.636364 42.953326 
L 490.909091 44.509604 
L 494.181818 45.878571 
L 494.227548 45.908369 
L 497.454545 48.10746 
L 499.153967 49.187539 
L 500.727273 50.23548 
L 503.708225 52.466708 
L 504 52.662471 
L 507.272727 54.259472 
L 510.545455 55.710422 
L 510.596619 55.745877 
L 513.818182 57.917357 
L 515.397442 59.025046 
L 517.090909 60.216638 
L 520.071304 62.304216 
L 520.363636 62.509633 
L 523.636364 64.679846 
L 525.062168 65.583385 
L 526.909091 66.777503 
L 530.181818 68.789959 
L 530.340514 68.862554 
L 533.454545 70.027624 
L 536.727273 71.804783 
L 537.344551 72.141723 
L 540 73.425985 
L 543.272727 75.282099 
L 543.459822 75.420892 
L 546.545455 77.723385 
L 547.886397 78.700062 
L 549.818182 80.141423 
L 552.407948 81.979231 
L 553.090909 82.482205 
L 556.363636 84.388763 
L 557.884858 85.2584 
L 559.636364 86.162057 
L 562.909091 87.688018 
L 566.181818 88.432131 
L 566.309942 88.537569 
L 569.454545 90.718688 
L 571.051568 91.816739 
L 572.727273 92.915154 
L 575.878431 95.095908 
z
" clip-path="url(#pe2574cb32a)" style="fill: #dae8f6; fill-opacity: 0.9"/>
    <path d="M 576 93.318994 
L 576 91.816739 
L 576 88.537569 
L 576 85.827971 
L 574.828712 88.537569 
L 572.727273 88.950068 
L 572.184076 88.537569 
L 569.454545 86.241497 
L 568.328445 85.2584 
L 566.181818 83.185706 
L 564.777863 81.979231 
L 562.909091 80.174252 
L 561.157562 78.700062 
L 559.636364 77.237977 
L 557.417435 75.420892 
L 556.363636 74.415162 
L 553.480809 72.141723 
L 553.090909 71.773287 
L 549.818182 70.360216 
L 546.545455 71.965881 
L 543.272727 71.016313 
L 540 69.337666 
L 539.389115 68.862554 
L 536.727273 66.6783 
L 535.493887 65.583385 
L 533.454545 63.772998 
L 531.80001 62.304216 
L 530.181818 60.867696 
L 527.907563 59.025046 
L 526.909091 58.089411 
L 523.893426 55.745877 
L 523.636364 55.499252 
L 520.363636 54.713681 
L 518.222074 55.745877 
L 517.090909 55.885085 
L 516.871492 55.745877 
L 513.818182 53.696609 
L 511.812378 52.466708 
L 510.545455 51.642143 
L 507.272727 49.594779 
L 506.712994 49.187539 
L 504 46.669188 
L 503.013617 45.908369 
L 500.727273 43.588471 
L 499.354044 42.6292 
L 497.454545 40.690699 
L 495.054919 39.350031 
L 494.181818 38.558028 
L 490.909091 37.693781 
L 487.636364 36.941459 
L 484.528753 36.070862 
L 484.363636 36.005485 
L 481.090909 34.586174 
L 477.818182 32.965096 
L 477.522214 32.791692 
L 474.545455 30.997755 
L 472.33536 29.512523 
L 471.272727 28.65537 
L 468 26.545351 
L 467.501113 26.233354 
L 464.727273 24.430951 
L 462.224973 22.954185 
L 461.454545 22.428694 
L 458.181818 21.308962 
L 454.909091 21.126992 
L 451.636364 20.378443 
L 449.65705 19.675015 
L 448.363636 19.132697 
L 445.090909 17.832531 
L 441.863517 16.395846 
L 441.818182 16.375314 
L 438.545455 14.025148 
L 437.475194 13.116677 
L 435.272727 11.255051 
L 433.604005 9.837508 
L 432 8.480671 
L 429.445541 6.558338 
L 428.727273 5.96227 
L 425.454545 3.966295 
L 424.242997 3.279169 
L 422.181818 2.118171 
L 418.909091 1.592246 
L 415.636364 1.422165 
L 412.363636 1.103067 
L 409.090909 0.136639 
L 408.842918 0 
L 405.818182 0 
L 405.183895 0 
L 405.818182 0.509104 
L 409.090909 2.232908 
L 411.540051 3.279169 
L 412.363636 3.630957 
L 415.636364 4.667218 
L 418.909091 5.502442 
L 421.337273 6.558338 
L 422.181818 6.852775 
L 425.454545 7.72488 
L 428.727273 9.385762 
L 429.422773 9.837508 
L 432 11.380021 
L 434.159334 13.116677 
L 435.272727 13.859585 
L 438.29952 16.395846 
L 438.545455 16.571927 
L 441.818182 18.440653 
L 444.865847 19.675015 
L 445.090909 19.766055 
L 448.363636 21.210743 
L 451.636364 22.600745 
L 452.33198 22.954185 
L 454.909091 24.090432 
L 458.181818 25.664629 
L 461.454545 26.194203 
L 461.544093 26.233354 
L 464.727273 27.370619 
L 468 29.256749 
L 468.408986 29.512523 
L 471.272727 31.303469 
L 473.853375 32.791692 
L 474.545455 33.168454 
L 477.818182 35.010174 
L 479.589767 36.070862 
L 481.090909 36.958262 
L 484.363636 38.783929 
L 485.707442 39.350031 
L 487.636364 40.20807 
L 490.909091 41.543567 
L 492.693491 42.6292 
L 494.181818 43.435292 
L 497.454545 45.293493 
L 498.47523 45.908369 
L 500.727273 47.009022 
L 503.941308 49.187539 
L 504 49.226749 
L 507.272727 51.590836 
L 508.556094 52.466708 
L 510.545455 53.779858 
L 513.382578 55.745877 
L 513.818182 56.039494 
L 517.090909 58.181258 
L 518.315101 59.025046 
L 520.363636 60.363779 
L 523.331636 62.304216 
L 523.636364 62.503387 
L 526.909091 62.885552 
L 530.181818 63.730358 
L 533.205723 65.583385 
L 533.454545 65.694792 
L 536.727273 68.533444 
L 537.128343 68.862554 
L 540 71.095967 
L 541.409684 72.141723 
L 543.272727 73.523798 
L 545.83002 75.420892 
L 546.545455 75.954748 
L 549.818182 77.82949 
L 551.739675 78.700062 
L 553.090909 79.238116 
L 556.363636 79.683242 
L 559.636364 80.847388 
L 561.169451 81.979231 
L 562.909091 83.017948 
L 565.749759 85.2584 
L 566.181818 85.544461 
L 569.454545 88.321585 
L 569.711304 88.537569 
L 572.727273 90.827868 
L 574.012104 91.816739 
z
" clip-path="url(#pe2574cb32a)" style="fill: #d6e5f4; fill-opacity: 0.9"/>
    <path d="M 572.727273 88.950068 
L 574.828712 88.537569 
L 576 85.827971 
L 576 85.2584 
L 576 81.979231 
L 576 78.700062 
L 576 75.420892 
L 576 72.141723 
L 576 70.151651 
L 573.814203 68.862554 
L 572.727273 68.203289 
L 569.454545 66.333615 
L 568.113148 65.583385 
L 566.181818 64.496821 
L 562.909091 62.861935 
L 560.734224 62.304216 
L 559.636364 61.999671 
L 558.076687 62.304216 
L 556.363636 62.631501 
L 555.620571 62.304216 
L 553.090909 61.287271 
L 549.818182 59.554005 
L 549.026803 59.025046 
L 546.545455 57.484826 
L 543.882039 55.745877 
L 543.272727 55.362109 
L 540 54.653029 
L 537.178023 55.745877 
L 536.727273 56.169629 
L 533.454545 57.878449 
L 530.181818 58.37444 
L 526.909091 55.943831 
L 526.654363 55.745877 
L 523.636364 52.850416 
L 523.106659 52.466708 
L 520.363636 49.870842 
L 519.29484 49.187539 
L 517.090909 47.155998 
L 514.486785 45.908369 
L 513.818182 45.3345 
L 512.433803 45.908369 
L 510.545455 48.026952 
L 507.272727 46.90688 
L 506.186249 45.908369 
L 504 43.908813 
L 502.736539 42.6292 
L 500.727273 40.737428 
L 499.356359 39.350031 
L 497.454545 37.516699 
L 495.966797 36.070862 
L 494.181818 34.349631 
L 492.093035 32.791692 
L 490.909091 31.662468 
L 487.721456 29.512523 
L 487.636364 29.432949 
L 484.363636 28.913634 
L 482.782113 29.512523 
L 481.090909 30.13559 
L 477.818182 30.453822 
L 475.997689 29.512523 
L 474.545455 28.649595 
L 471.427158 26.233354 
L 471.272727 26.09485 
L 468 23.588966 
L 466.989847 22.954185 
L 464.727273 21.296862 
L 462.268978 19.675015 
L 461.454545 19.09563 
L 458.181818 17.058528 
L 456.506923 16.395846 
L 454.909091 15.588779 
L 451.636364 16.34579 
L 451.283964 16.395846 
L 448.363636 16.510804 
L 447.882899 16.395846 
L 445.090909 15.581834 
L 441.818182 14.414285 
L 440.161613 13.116677 
L 438.545455 11.496007 
L 436.58924 9.837508 
L 435.272727 8.517122 
L 432.88281 6.558338 
L 432 5.672739 
L 428.926438 3.279169 
L 428.727273 3.079306 
L 425.454545 0.537545 
L 424.529933 0 
L 422.181818 0 
L 418.909091 0 
L 415.636364 0 
L 412.363636 0 
L 409.090909 0 
L 408.842918 0 
L 409.090909 0.136639 
L 412.363636 1.103067 
L 415.636364 1.422165 
L 418.909091 1.592246 
L 422.181818 2.118171 
L 424.242997 3.279169 
L 425.454545 3.966295 
L 428.727273 5.96227 
L 429.445541 6.558338 
L 432 8.480671 
L 433.604005 9.837508 
L 435.272727 11.255051 
L 437.475194 13.116677 
L 438.545455 14.025148 
L 441.818182 16.375314 
L 441.863517 16.395846 
L 445.090909 17.832531 
L 448.363636 19.132697 
L 449.65705 19.675015 
L 451.636364 20.378443 
L 454.909091 21.126992 
L 458.181818 21.308962 
L 461.454545 22.428694 
L 462.224973 22.954185 
L 464.727273 24.430951 
L 467.501113 26.233354 
L 468 26.545351 
L 471.272727 28.65537 
L 472.33536 29.512523 
L 474.545455 30.997755 
L 477.522214 32.791692 
L 477.818182 32.965096 
L 481.090909 34.586174 
L 484.363636 36.005485 
L 484.528753 36.070862 
L 487.636364 36.941459 
L 490.909091 37.693781 
L 494.181818 38.558028 
L 495.054919 39.350031 
L 497.454545 40.690699 
L 499.354044 42.6292 
L 500.727273 43.588471 
L 503.013617 45.908369 
L 504 46.669188 
L 506.712994 49.187539 
L 507.272727 49.594779 
L 510.545455 51.642143 
L 511.812378 52.466708 
L 513.818182 53.696609 
L 516.871492 55.745877 
L 517.090909 55.885085 
L 518.222074 55.745877 
L 520.363636 54.713681 
L 523.636364 55.499252 
L 523.893426 55.745877 
L 526.909091 58.089411 
L 527.907563 59.025046 
L 530.181818 60.867696 
L 531.80001 62.304216 
L 533.454545 63.772998 
L 535.493887 65.583385 
L 536.727273 66.6783 
L 539.389115 68.862554 
L 540 69.337666 
L 543.272727 71.016313 
L 546.545455 71.965881 
L 549.818182 70.360216 
L 553.090909 71.773287 
L 553.480809 72.141723 
L 556.363636 74.415162 
L 557.417435 75.420892 
L 559.636364 77.237977 
L 561.157562 78.700062 
L 562.909091 80.174252 
L 564.777863 81.979231 
L 566.181818 83.185706 
L 568.328445 85.2584 
L 569.454545 86.241497 
L 572.184076 88.537569 
z
" clip-path="url(#pe2574cb32a)" style="fill: #d0e2f2; fill-opacity: 0.9"/>
    <path d="M 576 70.151651 
L 576 68.862554 
L 576 65.583385 
L 576 62.304216 
L 576 59.025046 
L 576 55.745877 
L 576 52.466708 
L 576 49.187539 
L 576 45.908369 
L 576 42.6292 
L 576 39.350031 
L 576 36.070862 
L 576 32.791692 
L 576 29.512523 
L 576 26.233354 
L 576 22.954185 
L 576 22.725172 
L 572.727273 20.533066 
L 570.818948 19.675015 
L 569.454545 19.181004 
L 567.326874 19.675015 
L 568.17678 22.954185 
L 566.181818 24.099208 
L 563.65673 22.954185 
L 562.909091 22.514162 
L 559.636364 21.675321 
L 558.730456 22.954185 
L 556.363636 23.785733 
L 555.091415 22.954185 
L 553.090909 21.43867 
L 550.142738 19.675015 
L 549.818182 19.444143 
L 546.545455 17.941954 
L 543.272727 16.933836 
L 540.981711 19.675015 
L 540 20.081879 
L 539.275264 19.675015 
L 536.727273 18.462457 
L 533.964946 19.675015 
L 534.811134 22.954185 
L 535.719656 26.233354 
L 536.171444 29.512523 
L 533.454545 30.116431 
L 532.294101 29.512523 
L 530.181818 27.936177 
L 526.909091 29.323171 
L 526.826408 29.512523 
L 523.636364 30.459404 
L 521.272917 29.512523 
L 520.363636 29.099047 
L 517.090909 27.687788 
L 514.672009 26.233354 
L 513.818182 25.523261 
L 510.545455 24.425085 
L 507.272727 23.809461 
L 505.54689 22.954185 
L 504 22.176345 
L 500.727273 20.930261 
L 497.983644 19.675015 
L 497.454545 19.446764 
L 494.510245 19.675015 
L 494.181818 19.733018 
L 490.909091 20.984226 
L 487.636364 21.33708 
L 484.363636 19.762798 
L 484.26182 19.675015 
L 481.090909 17.163712 
L 479.704289 16.395846 
L 477.818182 15.276306 
L 474.545455 16.126295 
L 474.371066 16.395846 
L 471.272727 18.515808 
L 469.725101 19.675015 
L 468 19.778048 
L 467.850672 19.675015 
L 464.727273 17.024654 
L 463.710235 16.395846 
L 461.454545 14.585047 
L 458.539829 13.116677 
L 458.181818 12.859608 
L 454.909091 10.713322 
L 453.28733 9.837508 
L 451.636364 8.509832 
L 448.363636 8.051501 
L 446.602556 9.837508 
L 445.090909 11.056659 
L 441.818182 11.155985 
L 440.504785 9.837508 
L 438.545455 7.880784 
L 437.228091 6.558338 
L 435.272727 4.605542 
L 433.951439 3.279169 
L 432 1.33026 
L 430.674827 0 
L 428.727273 0 
L 425.454545 0 
L 424.529933 0 
L 425.454545 0.537545 
L 428.727273 3.079306 
L 428.926438 3.279169 
L 432 5.672739 
L 432.88281 6.558338 
L 435.272727 8.517122 
L 436.58924 9.837508 
L 438.545455 11.496007 
L 440.161613 13.116677 
L 441.818182 14.414285 
L 445.090909 15.581834 
L 447.882899 16.395846 
L 448.363636 16.510804 
L 451.283964 16.395846 
L 451.636364 16.34579 
L 454.909091 15.588779 
L 456.506923 16.395846 
L 458.181818 17.058528 
L 461.454545 19.09563 
L 462.268978 19.675015 
L 464.727273 21.296862 
L 466.989847 22.954185 
L 468 23.588966 
L 471.272727 26.09485 
L 471.427158 26.233354 
L 474.545455 28.649595 
L 475.997689 29.512523 
L 477.818182 30.453822 
L 481.090909 30.13559 
L 482.782113 29.512523 
L 484.363636 28.913634 
L 487.636364 29.432949 
L 487.721456 29.512523 
L 490.909091 31.662468 
L 492.093035 32.791692 
L 494.181818 34.349631 
L 495.966797 36.070862 
L 497.454545 37.516699 
L 499.356359 39.350031 
L 500.727273 40.737428 
L 502.736539 42.6292 
L 504 43.908813 
L 506.186249 45.908369 
L 507.272727 46.90688 
L 510.545455 48.026952 
L 512.433803 45.908369 
L 513.818182 45.3345 
L 514.486785 45.908369 
L 517.090909 47.155998 
L 519.29484 49.187539 
L 520.363636 49.870842 
L 523.106659 52.466708 
L 523.636364 52.850416 
L 526.654363 55.745877 
L 526.909091 55.943831 
L 530.181818 58.37444 
L 533.454545 57.878449 
L 536.727273 56.169629 
L 537.178023 55.745877 
L 540 54.653029 
L 543.272727 55.362109 
L 543.882039 55.745877 
L 546.545455 57.484826 
L 549.026803 59.025046 
L 549.818182 59.554005 
L 553.090909 61.287271 
L 555.620571 62.304216 
L 556.363636 62.631501 
L 558.076687 62.304216 
L 559.636364 61.999671 
L 560.734224 62.304216 
L 562.909091 62.861935 
L 566.181818 64.496821 
L 568.113148 65.583385 
L 569.454545 66.333615 
L 572.727273 68.203289 
L 573.814203 68.862554 
z
M 536.70255 32.791692 
L 536.727273 32.3277 
L 536.825047 32.791692 
L 536.727273 32.807324 
z
M 559.525201 26.233354 
L 559.636364 25.53541 
L 559.81744 26.233354 
L 559.636364 26.30819 
z
" clip-path="url(#pe2574cb32a)" style="fill: #cbdef1; fill-opacity: 0.9"/>
    <path d="M 536.727273 32.807324 
L 536.825047 32.791692 
L 536.727273 32.3277 
L 536.70255 32.791692 
z
M 523.636364 30.459404 
L 526.826408 29.512523 
L 526.909091 29.323171 
L 530.181818 27.936177 
L 532.294101 29.512523 
L 533.454545 30.116431 
L 536.171444 29.512523 
L 535.719656 26.233354 
L 534.811134 22.954185 
L 533.964946 19.675015 
L 536.727273 18.462457 
L 539.275264 19.675015 
L 540 20.081879 
L 540.981711 19.675015 
L 543.272727 16.933836 
L 546.545455 17.941954 
L 549.818182 19.444143 
L 550.142738 19.675015 
L 553.090909 21.43867 
L 555.091415 22.954185 
L 556.363636 23.785733 
L 558.730456 22.954185 
L 559.636364 21.675321 
L 562.909091 22.514162 
L 563.65673 22.954185 
L 566.181818 24.099208 
L 568.17678 22.954185 
L 567.326874 19.675015 
L 569.454545 19.181004 
L 570.818948 19.675015 
L 572.727273 20.533066 
L 576 22.725172 
L 576 19.675015 
L 576 16.395846 
L 576 13.116677 
L 576 9.837508 
L 576 6.558338 
L 576 3.279169 
L 576 0 
L 572.727273 0 
L 569.454545 0 
L 566.181818 0 
L 562.909091 0 
L 559.636364 0 
L 556.363636 0 
L 553.090909 0 
L 549.818182 0 
L 546.545455 0 
L 543.272727 0 
L 540 0 
L 536.727273 0 
L 533.454545 0 
L 530.181818 0 
L 526.909091 0 
L 523.636364 0 
L 520.363636 0 
L 517.090909 0 
L 513.818182 0 
L 510.545455 0 
L 507.272727 0 
L 504 0 
L 500.727273 0 
L 497.454545 0 
L 494.181818 0 
L 490.909091 0 
L 487.636364 0 
L 484.363636 0 
L 481.090909 0 
L 477.818182 0 
L 474.545455 0 
L 471.272727 0 
L 468 0 
L 464.727273 0 
L 461.454545 0 
L 458.181818 0 
L 454.909091 0 
L 451.636364 0 
L 448.363636 0 
L 445.090909 0 
L 441.818182 0 
L 438.545455 0 
L 435.272727 0 
L 432 0 
L 430.674827 0 
L 432 1.33026 
L 433.951439 3.279169 
L 435.272727 4.605542 
L 437.228091 6.558338 
L 438.545455 7.880784 
L 440.504785 9.837508 
L 441.818182 11.155985 
L 445.090909 11.056659 
L 446.602556 9.837508 
L 448.363636 8.051501 
L 451.636364 8.509832 
L 453.28733 9.837508 
L 454.909091 10.713322 
L 458.181818 12.859608 
L 458.539829 13.116677 
L 461.454545 14.585047 
L 463.710235 16.395846 
L 464.727273 17.024654 
L 467.850672 19.675015 
L 468 19.778048 
L 469.725101 19.675015 
L 471.272727 18.515808 
L 474.371066 16.395846 
L 474.545455 16.126295 
L 477.818182 15.276306 
L 479.704289 16.395846 
L 481.090909 17.163712 
L 484.26182 19.675015 
L 484.363636 19.762798 
L 487.636364 21.33708 
L 490.909091 20.984226 
L 494.181818 19.733018 
L 494.510245 19.675015 
L 497.454545 19.446764 
L 497.983644 19.675015 
L 500.727273 20.930261 
L 504 22.176345 
L 505.54689 22.954185 
L 507.272727 23.809461 
L 510.545455 24.425085 
L 513.818182 25.523261 
L 514.672009 26.233354 
L 517.090909 27.687788 
L 520.363636 29.099047 
L 521.272917 29.512523 
z
M 559.636364 26.30819 
L 559.81744 26.233354 
L 559.636364 25.53541 
L 559.525201 26.233354 
z
" clip-path="url(#pe2574cb32a)" style="fill: #c6dbef; fill-opacity: 0.9"/>
    <path clip-path="url(#pe2574cb32a)" style="fill: #bed8ec; fill-opacity: 0.9"/>
    <path clip-path="url(#pe2574cb32a)" style="fill: #b5d4e9; fill-opacity: 0.9"/>
    <path clip-path="url(#pe2574cb32a)" style="fill: #add0e6; fill-opacity: 0.9"/>
    <path clip-path="url(#pe2574cb32a)" style="fill: #a5cde3; fill-opacity: 0.9"/>
    <path clip-path="url(#pe2574cb32a)" style="fill: #9cc9e1; fill-opacity: 0.9"/>
    <path clip-path="url(#pe2574cb32a)" style="fill: #91c3de; fill-opacity: 0.9"/>
    <path clip-path="url(#pe2574cb32a)" style="fill: #85bcdc; fill-opacity: 0.9"/>
    <path clip-path="url(#pe2574cb32a)" style="fill: #7cb7da; fill-opacity: 0.9"/>
    <path clip-path="url(#pe2574cb32a)" style="fill: #71b1d7; fill-opacity: 0.9"/>
    <path clip-path="url(#pe2574cb32a)" style="fill: #66abd4; fill-opacity: 0.9"/>
    <path clip-path="url(#pe2574cb32a)" style="fill: #5da5d1; fill-opacity: 0.9"/>
    <path clip-path="url(#pe2574cb32a)" style="fill: #56a0ce; fill-opacity: 0.9"/>
    <path clip-path="url(#pe2574cb32a)" style="fill: #4d99ca; fill-opacity: 0.9"/>
    <path clip-path="url(#pe2574cb32a)" style="fill: #4493c7; fill-opacity: 0.9"/>
    <path clip-path="url(#pe2574cb32a)" style="fill: #3c8cc3; fill-opacity: 0.9"/>
    <path clip-path="url(#pe2574cb32a)" style="fill: #3686c0; fill-opacity: 0.9"/>
    <path clip-path="url(#pe2574cb32a)" style="fill: #2f7fbc; fill-opacity: 0.9"/>
    <path clip-path="url(#pe2574cb32a)" style="fill: #2777b8; fill-opacity: 0.9"/>
    <path clip-path="url(#pe2574cb32a)" style="fill: #2070b4; fill-opacity: 0.9"/>
    <path clip-path="url(#pe2574cb32a)" style="fill: #1c6ab0; fill-opacity: 0.9"/>
    <path clip-path="url(#pe2574cb32a)" style="fill: #1663aa; fill-opacity: 0.9"/>
    <path clip-path="url(#pe2574cb32a)" style="fill: #115ca5; fill-opacity: 0.9"/>
    <path clip-path="url(#pe2574cb32a)" style="fill: #0c56a0; fill-opacity: 0.9"/>
    <path clip-path="url(#pe2574cb32a)" style="fill: #084f99; fill-opacity: 0.9"/>
    <path clip-path="url(#pe2574cb32a)" style="fill: #08488e; fill-opacity: 0.9"/>
    <path clip-path="url(#pe2574cb32a)" style="fill: #084184; fill-opacity: 0.9"/>
    <path clip-path="url(#pe2574cb32a)" style="fill: #083a7a; fill-opacity: 0.9"/>
    <path clip-path="url(#pe2574cb32a)" style="fill: #083370; fill-opacity: 0.9"/>
    <path clip-path="url(#pe2574cb32a)" style="fill: #08306b; fill-opacity: 0.9"/>
   </g>
   <g id="QuadContourSet_2">
    <path d="M 378.368767 0 
L 379.636364 0.515303 
L 382.909091 2.010381 
L 385.909734 3.279169 
L 386.181818 3.383957 
L 389.454545 5.000341 
L 392.727273 6.415209 
L 393.034875 6.558338 
L 396 7.879943 
L 399.272727 9.488606 
L 399.907627 9.837508 
L 402.545455 11.183247 
L 405.818182 12.686518 
L 406.756095 13.116677 
L 409.090909 14.18961 
L 412.363636 15.692719 
L 413.895697 16.395846 
L 415.636364 17.203251 
L 418.909091 18.69683 
L 421.033828 19.675015 
L 422.181818 20.267733 
L 425.454545 21.664775 
L 428.237153 22.954185 
L 428.727273 23.236513 
L 432 24.630473 
L 435.272727 26.144893 
L 435.461671 26.233354 
L 438.545455 27.704387 
L 441.818182 29.266175 
L 442.361896 29.512523 
L 445.090909 30.886375 
L 447.467171 31.979581 
M 464.685245 40.141588 
L 464.727273 40.162003 
L 468 41.499333 
L 470.035057 42.6292 
L 471.272727 43.389248 
L 474.545455 45.415315 
L 475.379343 45.908369 
L 477.818182 47.449389 
L 480.905078 49.187539 
L 481.090909 49.334786 
L 484.363636 51.448424 
L 486.009615 52.466708 
L 487.636364 53.558799 
L 490.909091 55.409334 
L 491.497976 55.745877 
L 494.181818 57.264404 
L 497.239676 59.025046 
L 497.454545 59.196837 
L 500.727273 60.988562 
L 502.872282 62.304216 
L 504 63.018756 
L 507.272727 65.172019 
L 507.921146 65.583385 
L 510.545455 67.35232 
L 513.015391 68.862554 
L 513.818182 69.449574 
L 517.090909 71.459329 
L 518.13139 72.141723 
L 520.363636 73.670861 
L 523.096153 75.420892 
L 523.636364 75.870875 
L 526.909091 77.697886 
L 528.704178 78.700062 
L 530.181818 79.530569 
L 533.454545 81.537591 
L 534.175854 81.979231 
L 536.727273 83.653023 
L 539.448224 85.2584 
L 540 85.634359 
L 543.272727 87.844115 
L 544.351171 88.537569 
L 546.545455 90.040868 
L 549.411978 91.816739 
L 549.818182 92.138769 
L 553.090909 94.101629 
L 554.678871 95.095908 
L 556.363636 96.203098 
L 559.636364 98.159128 
L 560.026193 98.375077 
L 562.909091 99.949886 
L 565.699761 101.654246 
L 566.181818 101.971052 
L 569.454545 104.165742 
L 570.687577 104.933416 
L 572.727273 106.293192 
L 575.949142 108.212585 
L 576 108.25043 
" clip-path="url(#pe2574cb32a)" style="fill: none"/>
    <path d="M 383.450118 0 
L 386.181818 1.294761 
L 389.454545 2.797077 
L 390.564923 3.279169 
L 392.727273 4.195268 
L 396 5.781451 
L 397.541751 6.558338 
L 399.272727 7.432212 
L 402.545455 9.245009 
L 403.765999 9.837508 
L 405.818182 10.78228 
L 409.090909 12.283381 
L 409.33241 12.394546 
M 426.809852 20.298935 
L 428.727273 21.144986 
L 432 22.583038 
L 432.645483 22.954185 
L 435.272727 24.230685 
L 438.545455 25.857229 
L 439.300651 26.233354 
L 441.818182 27.599089 
L 445.090909 29.093279 
L 445.892719 29.512523 
L 448.363636 30.788731 
L 451.636364 32.306682 
L 452.657141 32.791692 
L 454.909091 33.798626 
L 458.181818 35.331532 
L 459.929969 36.070862 
L 461.454545 36.697281 
L 464.727273 38.115538 
L 467.627835 39.350031 
L 468 39.509162 
L 471.272727 41.488205 
L 473.1248 42.6292 
L 474.545455 43.560644 
L 477.818182 45.512874 
L 478.444228 45.908369 
L 481.090909 47.542239 
L 483.66097 49.187539 
L 484.363636 49.652603 
L 487.636364 51.545057 
L 489.27825 52.466708 
L 490.909091 53.361061 
L 494.181818 55.158922 
L 495.267654 55.745877 
L 497.454545 56.893976 
L 500.727273 58.794119 
L 501.074617 59.025046 
L 504 61.026872 
L 505.950648 62.304216 
L 507.272727 63.22087 
L 510.545455 65.297241 
L 510.985629 65.583385 
L 513.818182 67.396656 
L 516.054705 68.862554 
L 517.090909 69.540918 
L 520.363636 71.585679 
L 521.343028 72.141723 
L 523.636364 73.45778 
L 526.909091 75.301049 
L 527.09999 75.420892 
L 530.181818 77.241369 
L 532.447228 78.700062 
L 533.454545 79.340895 
L 536.727273 81.429818 
L 537.551226 81.979231 
L 540 83.615755 
L 542.474656 85.2584 
L 543.272727 85.820691 
L 546.545455 87.878194 
L 547.59656 88.537569 
L 549.818182 89.915017 
L 552.863534 91.816739 
L 553.090909 91.958099 
L 556.363636 93.710324 
L 558.856851 95.095908 
L 559.636364 95.515659 
L 562.909091 97.528297 
L 564.14993 98.375077 
L 566.181818 99.759618 
L 569.114169 101.654246 
L 569.454545 101.888705 
L 572.727273 103.996096 
L 574.14327 104.933416 
L 576 106.146666 
" clip-path="url(#pe2574cb32a)" style="fill: none"/>
    <path d="M 388.222904 0 
L 389.454545 0.52206 
L 392.727273 2.075895 
L 395.110797 3.279169 
L 396 3.728905 
L 399.272727 5.328636 
L 401.333828 6.558338 
L 402.545455 7.237099 
L 405.818182 8.875177 
L 407.909547 9.837508 
L 409.090909 10.379411 
L 412.363636 11.877087 
L 415.07031 13.116677 
L 415.636364 13.375105 
L 418.909091 14.771643 
L 422.181818 16.209693 
L 422.605129 16.395846 
L 425.454545 17.636923 
L 428.727273 18.949068 
L 430.357124 19.675015 
L 432 20.317717 
L 435.272727 22.404605 
L 436.159203 22.954185 
L 438.545455 24.32671 
L 441.818182 25.92282 
L 442.445667 26.233354 
L 445.090909 27.470201 
L 448.363636 29.121745 
L 449.23704 29.512523 
L 451.636364 30.516013 
L 454.909091 31.973462 
L 456.879749 32.791692 
L 458.181818 33.325213 
L 461.454545 34.732705 
L 464.579204 36.070862 
L 464.727273 36.134566 
L 468 37.857489 
L 470.625223 39.350031 
L 471.272727 39.745497 
L 474.545455 41.723223 
L 475.999932 42.6292 
L 477.818182 43.735334 
L 481.090909 45.783522 
L 481.313835 45.908369 
L 484.363636 47.62315 
L 487.165759 49.187539 
L 487.636364 49.448465 
L 490.909091 51.129302 
L 493.486119 52.466708 
L 494.181818 52.822106 
L 497.454545 54.851974 
L 498.805875 55.745877 
L 499.22615 56.021016 
M 515.39163 66.370641 
L 517.090909 67.361134 
L 519.714283 68.862554 
L 520.363636 69.238156 
L 523.636364 71.018928 
L 525.499216 72.141723 
L 526.909091 72.938167 
L 530.181818 75.075109 
L 530.687365 75.420892 
L 533.454545 77.333945 
L 535.481734 78.700062 
L 536.727273 79.527781 
L 540 81.661131 
L 540.513758 81.979231 
L 543.272727 83.660767 
L 545.82833 85.2584 
L 546.545455 85.699807 
L 549.818182 87.487446 
L 551.817765 88.537569 
L 553.090909 89.184043 
L 556.363636 91.083054 
L 557.469715 91.816739 
L 559.636364 93.18093 
L 562.450358 95.095908 
L 562.909091 95.389243 
L 566.181818 97.609712 
L 567.354217 98.375077 
L 569.454545 99.72817 
L 572.384116 101.654246 
L 572.727273 101.876918 
L 576 103.893972 
" clip-path="url(#pe2574cb32a)" style="fill: none"/>
    <path d="M 392.671872 0 
L 392.727273 0.027182 
L 396 1.395815 
L 399.272727 3.172651 
L 399.430471 3.279169 
L 402.545455 5.095211 
L 405.021314 6.558338 
L 405.818182 6.965255 
L 409.090909 8.459653 
L 412.096327 9.837508 
L 412.363636 9.959518 
L 415.636364 11.311113 
L 418.909091 12.71491 
L 419.838671 13.116677 
L 422.181818 14.124446 
L 425.454545 15.369752 
L 428.727273 16.378459 
L 428.752979 16.395846 
L 432 18.493377 
L 433.709964 19.675015 
L 435.272727 20.754934 
L 438.545455 22.764058 
L 438.951851 22.954185 
L 441.818182 24.204933 
L 445.090909 25.772502 
L 446.13516 26.233354 
L 448.363636 27.206138 
L 451.636364 28.608528 
L 453.849504 29.512523 
L 454.909091 29.940415 
L 458.181818 31.350822 
L 461.454545 32.765945 
L 461.50309 32.791692 
L 464.727273 34.489331 
L 467.689846 36.070862 
L 468 36.235235 
L 471.272727 37.908109 
L 473.621871 39.350031 
L 474.545455 39.903206 
L 477.818182 41.838075 
L 479.226435 42.6292 
L 481.090909 43.680757 
L 484.363636 45.44806 
L 485.278567 45.908369 
L 487.636364 47.075431 
L 490.909091 48.842931 
L 491.442756 49.187539 
L 494.181818 50.906719 
L 496.560881 52.466708 
L 497.454545 53.042909 
L 500.727273 55.079791 
L 501.688249 55.745877 
L 504 57.186004 
L 506.878811 59.025046 
L 507.272727 59.27273 
L 510.545455 61.22981 
L 512.367207 62.304216 
L 513.818182 63.15632 
L 517.090909 64.900362 
L 518.353434 65.583385 
L 520.363636 66.592856 
L 522.259617 67.748851 
M 538.256099 78.352285 
L 538.822482 78.700062 
L 540 79.413528 
L 543.272727 81.247366 
L 544.727336 81.979231 
L 546.545455 82.875555 
L 549.818182 84.626333 
L 550.83316 85.2584 
L 553.090909 86.58491 
L 556.122155 88.537569 
L 556.363636 88.684803 
L 559.636364 91.001631 
L 560.846099 91.816739 
L 562.909091 93.266011 
L 565.682495 95.095908 
L 566.181818 95.433918 
L 569.454545 97.48169 
L 570.937516 98.375077 
L 572.727273 99.466286 
L 576 101.187036 
" clip-path="url(#pe2574cb32a)" style="fill: none"/>
    <path d="M 398.08719 0 
L 399.272727 0.612569 
L 402.545455 2.837961 
L 403.09459 3.279169 
L 405.818182 5.014637 
L 409.090909 6.530529 
L 409.159091 6.558338 
L 412.363636 7.843305 
L 415.636364 9.220963 
L 417.079115 9.837508 
L 418.909091 10.61943 
L 422.181818 11.792314 
L 425.454545 12.867676 
L 425.854531 13.116677 
L 428.727273 14.651133 
L 431.306704 16.395846 
L 432 16.843706 
L 435.272727 18.878329 
L 436.378112 19.675015 
L 438.545455 20.922249 
L 441.818182 22.4217 
L 443.042027 22.954185 
L 445.090909 23.835836 
L 448.363636 25.219409 
L 450.852481 26.233354 
L 451.636364 26.552129 
L 454.909091 27.969876 
L 458.181818 29.404471 
L 458.381478 29.512523 
L 461.454545 31.119865 
L 464.606561 32.791692 
L 464.727273 32.855251 
L 468 34.172056 
L 471.272727 36.037366 
L 471.328357 36.070862 
L 474.545455 37.888867 
L 477.122517 39.350031 
L 477.818182 39.743582 
L 481.090909 41.382964 
L 483.609682 42.6292 
L 484.363636 42.996115 
L 487.636364 44.902293 
L 489.220313 45.908369 
L 490.909091 46.950121 
L 494.181818 48.983449 
L 494.51557 49.187539 
L 497.454545 50.691422 
L 500.083725 52.466708 
L 500.727273 52.84028 
L 504 55.062932 
L 505.136597 55.745877 
L 507.272727 56.989691 
L 510.545455 58.881733 
L 510.868143 59.025046 
L 513.818182 60.318942 
L 517.090909 62.100505 
L 517.381742 62.304216 
L 520.363636 64.399543 
L 522.056122 65.583385 
L 523.636364 66.692272 
L 526.743443 68.862554 
L 526.909091 68.978632 
L 530.181818 71.092776 
L 531.877851 72.141723 
L 533.454545 73.122557 
L 536.727273 75.022785 
L 537.553677 75.420892 
L 540 76.574623 
L 543.272727 78.202447 
L 544.153085 78.700062 
L 546.545455 79.979284 
L 548.572075 81.201642 
M 564.368575 91.887358 
L 566.181818 92.96668 
L 569.454545 95.0235 
L 570.013619 95.095908 
L 572.727273 95.417252 
L 576 97.415734 
" clip-path="url(#pe2574cb32a)" style="fill: none"/>
    <path d="M 402.014384 0 
L 402.545455 0.36448 
L 405.818182 2.992808 
L 406.430545 3.279169 
L 409.090909 4.364247 
L 412.363636 5.726963 
L 414.309435 6.558338 
L 415.636364 7.125221 
L 418.909091 8.22647 
L 422.181818 9.26505 
L 423.227799 9.837508 
L 425.454545 10.854542 
L 428.727273 12.745282 
L 429.349958 13.116677 
L 432 14.411216 
L 434.96287 16.395846 
L 435.272727 16.571593 
L 438.545455 18.917738 
L 440.001731 19.675015 
L 441.818182 20.463507 
L 445.090909 21.829892 
L 447.857918 22.954185 
L 448.363636 23.159297 
L 451.636364 24.589854 
L 454.909091 26.018835 
L 455.283203 26.233354 
L 458.181818 27.701312 
L 461.454545 29.436375 
L 461.677707 29.512523 
L 464.727273 30.33465 
L 468 31.883911 
L 469.422176 32.791692 
L 471.272727 33.800703 
L 474.545455 35.72801 
L 475.257927 36.070862 
L 477.818182 37.291177 
L 481.090909 38.977474 
L 481.707906 39.350031 
L 484.363636 40.933592 
L 487.10101 42.6292 
L 487.636364 42.953326 
L 490.909091 44.509604 
L 494.181818 45.878571 
L 494.227548 45.908369 
L 497.454545 48.10746 
L 499.153967 49.187539 
L 500.727273 50.23548 
L 503.708225 52.466708 
L 504 52.662471 
L 507.272727 54.259472 
L 510.545455 55.710422 
L 510.596619 55.745877 
L 512.239217 56.853063 
M 528.075476 67.494733 
L 530.181818 68.789959 
L 530.340514 68.862554 
L 533.454545 70.027624 
L 536.727273 71.804783 
L 537.344551 72.141723 
L 540 73.425985 
L 543.272727 75.282099 
L 543.459822 75.420892 
L 546.545455 77.723385 
L 547.886397 78.700062 
L 549.818182 80.141423 
L 552.407948 81.979231 
L 553.090909 82.482205 
L 556.363636 84.388763 
L 557.884858 85.2584 
L 559.636364 86.162057 
L 562.909091 87.688018 
L 566.181818 88.432131 
L 566.309942 88.537569 
L 569.454545 90.718688 
L 571.051568 91.816739 
L 572.727273 92.915154 
L 575.878431 95.095908 
L 576 95.177078 
" clip-path="url(#pe2574cb32a)" style="fill: none"/>
    <path d="M 405.183895 0 
L 405.818182 0.509104 
L 409.090909 2.232908 
L 411.540051 3.279169 
L 412.363636 3.630957 
L 415.636364 4.667218 
L 418.909091 5.502442 
L 421.337273 6.558338 
L 422.181818 6.852775 
L 425.454545 7.72488 
L 428.727273 9.385762 
L 429.422773 9.837508 
L 432 11.380021 
L 434.159334 13.116677 
L 435.272727 13.859585 
L 438.29952 16.395846 
L 438.545455 16.571927 
L 441.818182 18.440653 
L 444.865847 19.675015 
L 445.090909 19.766055 
L 448.363636 21.210743 
L 451.636364 22.600745 
L 452.33198 22.954185 
L 454.909091 24.090432 
L 458.181818 25.664629 
L 461.454545 26.194203 
L 461.544093 26.233354 
L 464.727273 27.370619 
L 468 29.256749 
L 468.408986 29.512523 
L 471.272727 31.303469 
L 473.853375 32.791692 
L 474.545455 33.168454 
L 477.818182 35.010174 
L 479.589767 36.070862 
L 481.090909 36.958262 
L 484.363636 38.783929 
L 485.707442 39.350031 
L 487.636364 40.20807 
L 490.909091 41.543567 
L 492.693491 42.6292 
L 494.181818 43.435292 
L 495.752123 44.326886 
M 511.776134 54.632672 
L 513.382578 55.745877 
L 513.818182 56.039494 
L 517.090909 58.181258 
L 518.315101 59.025046 
L 520.363636 60.363779 
L 523.331636 62.304216 
L 523.636364 62.503387 
L 526.909091 62.885552 
L 530.181818 63.730358 
L 533.205723 65.583385 
L 533.454545 65.694792 
L 536.727273 68.533444 
L 537.128343 68.862554 
L 540 71.095967 
L 541.409684 72.141723 
L 543.272727 73.523798 
L 545.83002 75.420892 
L 546.545455 75.954748 
L 549.818182 77.82949 
L 551.739675 78.700062 
L 553.090909 79.238116 
L 556.363636 79.683242 
L 559.636364 80.847388 
L 561.169451 81.979231 
L 562.909091 83.017948 
L 565.749759 85.2584 
L 566.181818 85.544461 
L 569.454545 88.321585 
L 569.711304 88.537569 
L 572.727273 90.827868 
L 574.012104 91.816739 
L 576 93.318994 
" clip-path="url(#pe2574cb32a)" style="fill: none"/>
    <path d="M 408.842918 0 
L 409.090909 0.136639 
L 412.363636 1.103067 
L 415.636364 1.422165 
L 418.909091 1.592246 
L 422.181818 2.118171 
L 424.242997 3.279169 
L 425.454545 3.966295 
L 428.727273 5.96227 
L 429.445541 6.558338 
L 432 8.480671 
L 433.604005 9.837508 
L 435.272727 11.255051 
L 437.475194 13.116677 
L 438.545455 14.025148 
L 441.818182 16.375314 
L 441.863517 16.395846 
L 445.090909 17.832531 
L 448.363636 19.132697 
L 449.65705 19.675015 
L 451.636364 20.378443 
L 454.909091 21.126992 
L 458.181818 21.308962 
L 461.454545 22.428694 
L 462.224973 22.954185 
L 464.727273 24.430951 
L 467.501113 26.233354 
L 468 26.545351 
L 471.272727 28.65537 
L 472.33536 29.512523 
L 474.545455 30.997755 
L 475.985173 31.865398 
M 493.752679 38.444703 
L 494.181818 38.558028 
L 495.054919 39.350031 
L 497.454545 40.690699 
L 499.354044 42.6292 
L 500.727273 43.588471 
L 503.013617 45.908369 
L 504 46.669188 
L 506.712994 49.187539 
L 507.272727 49.594779 
L 510.545455 51.642143 
L 511.812378 52.466708 
L 513.818182 53.696609 
L 516.871492 55.745877 
L 517.090909 55.885085 
L 518.222074 55.745877 
L 520.363636 54.713681 
L 523.636364 55.499252 
L 523.893426 55.745877 
L 526.909091 58.089411 
L 527.907563 59.025046 
L 530.181818 60.867696 
L 531.80001 62.304216 
L 533.454545 63.772998 
L 535.493887 65.583385 
L 536.727273 66.6783 
L 539.389115 68.862554 
L 540 69.337666 
L 543.272727 71.016313 
L 546.545455 71.965881 
L 549.818182 70.360216 
L 553.090909 71.773287 
L 553.480809 72.141723 
L 556.363636 74.415162 
L 557.417435 75.420892 
L 559.636364 77.237977 
L 561.157562 78.700062 
L 562.909091 80.174252 
L 564.777863 81.979231 
L 566.181818 83.185706 
L 568.328445 85.2584 
L 569.454545 86.241497 
L 572.184076 88.537569 
L 572.727273 88.950068 
L 574.828712 88.537569 
L 576 85.827971 
" clip-path="url(#pe2574cb32a)" style="fill: none"/>
    <path d="M 424.529933 0 
L 425.454545 0.537545 
L 425.474363 0.552936 
M 439.979429 12.933984 
L 440.161613 13.116677 
L 441.818182 14.414285 
L 445.090909 15.581834 
L 447.882899 16.395846 
L 448.363636 16.510804 
L 451.283964 16.395846 
L 451.636364 16.34579 
L 454.909091 15.588779 
L 456.506923 16.395846 
L 458.181818 17.058528 
L 461.454545 19.09563 
L 462.268978 19.675015 
L 464.727273 21.296862 
L 466.989847 22.954185 
L 468 23.588966 
L 471.272727 26.09485 
L 471.427158 26.233354 
L 474.545455 28.649595 
L 475.997689 29.512523 
L 477.818182 30.453822 
L 481.090909 30.13559 
L 482.782113 29.512523 
L 484.363636 28.913634 
L 487.636364 29.432949 
L 487.721456 29.512523 
L 490.909091 31.662468 
L 492.093035 32.791692 
L 494.181818 34.349631 
L 495.966797 36.070862 
L 497.454545 37.516699 
L 499.356359 39.350031 
L 500.727273 40.737428 
L 502.736539 42.6292 
L 504 43.908813 
L 506.186249 45.908369 
L 507.272727 46.90688 
L 510.545455 48.026952 
L 512.433803 45.908369 
L 513.818182 45.3345 
L 514.486785 45.908369 
L 517.090909 47.155998 
L 519.29484 49.187539 
L 520.363636 49.870842 
L 523.106659 52.466708 
L 523.636364 52.850416 
L 526.654363 55.745877 
L 526.909091 55.943831 
L 530.181818 58.37444 
L 533.454545 57.878449 
L 536.727273 56.169629 
L 537.178023 55.745877 
L 540 54.653029 
L 543.272727 55.362109 
L 543.882039 55.745877 
L 546.545455 57.484826 
L 549.026803 59.025046 
L 549.818182 59.554005 
L 553.090909 61.287271 
L 555.620571 62.304216 
L 556.363636 62.631501 
L 558.076687 62.304216 
L 559.636364 61.999671 
L 560.734224 62.304216 
L 562.909091 62.861935 
L 566.181818 64.496821 
L 568.113148 65.583385 
L 569.454545 66.333615 
L 572.727273 68.203289 
L 573.814203 68.862554 
L 576 70.151651 
" clip-path="url(#pe2574cb32a)" style="fill: none"/>
    <path d="M 430.674827 0 
L 432 1.33026 
L 433.951439 3.279169 
L 435.272727 4.605542 
L 437.228091 6.558338 
L 438.545455 7.880784 
L 440.504785 9.837508 
L 441.818182 11.155985 
L 445.090909 11.056659 
L 446.602556 9.837508 
L 448.363636 8.051501 
L 450.425077 8.340196 
M 466.397225 18.441692 
L 467.850672 19.675015 
L 468 19.778048 
L 469.725101 19.675015 
L 471.272727 18.515808 
L 474.371066 16.395846 
L 474.545455 16.126295 
L 477.818182 15.276306 
L 479.704289 16.395846 
L 481.090909 17.163712 
L 484.26182 19.675015 
L 484.363636 19.762798 
L 487.636364 21.33708 
L 490.909091 20.984226 
L 494.181818 19.733018 
L 494.510245 19.675015 
L 497.454545 19.446764 
L 497.983644 19.675015 
L 500.727273 20.930261 
L 504 22.176345 
L 505.54689 22.954185 
L 507.272727 23.809461 
L 510.545455 24.425085 
L 513.818182 25.523261 
L 514.672009 26.233354 
L 517.090909 27.687788 
L 520.363636 29.099047 
L 521.272917 29.512523 
L 523.636364 30.459404 
L 526.826408 29.512523 
L 526.909091 29.323171 
L 530.181818 27.936177 
L 532.294101 29.512523 
L 533.454545 30.116431 
L 536.171444 29.512523 
L 535.719656 26.233354 
L 534.811134 22.954185 
L 533.964946 19.675015 
L 536.727273 18.462457 
L 539.275264 19.675015 
L 540 20.081879 
L 540.981711 19.675015 
L 543.272727 16.933836 
L 546.545455 17.941954 
L 549.818182 19.444143 
L 550.142738 19.675015 
L 553.090909 21.43867 
L 555.091415 22.954185 
L 556.363636 23.785733 
L 558.730456 22.954185 
L 559.636364 21.675321 
L 562.909091 22.514162 
L 563.65673 22.954185 
L 566.181818 24.099208 
L 568.17678 22.954185 
L 567.326874 19.675015 
L 569.454545 19.181004 
L 570.818948 19.675015 
L 572.727273 20.533066 
L 576 22.725172 
M 536.727273 32.807324 
L 536.825047 32.791692 
L 536.727273 32.3277 
L 536.70255 32.791692 
L 536.727273 32.807324 
z
M 559.636364 26.30819 
L 559.81744 26.233354 
L 559.636364 25.53541 
L 559.525201 26.233354 
L 559.636364 26.30819 
z
" clip-path="url(#pe2574cb32a)" style="fill: none"/>
    <path clip-path="url(#pe2574cb32a)" style="fill: none"/>
    <path clip-path="url(#pe2574cb32a)" style="fill: none"/>
    <path clip-path="url(#pe2574cb32a)" style="fill: none"/>
    <path clip-path="url(#pe2574cb32a)" style="fill: none"/>
    <path clip-path="url(#pe2574cb32a)" style="fill: none"/>
    <path clip-path="url(#pe2574cb32a)" style="fill: none"/>
    <path clip-path="url(#pe2574cb32a)" style="fill: none"/>
    <path clip-path="url(#pe2574cb32a)" style="fill: none"/>
    <path clip-path="url(#pe2574cb32a)" style="fill: none"/>
    <path clip-path="url(#pe2574cb32a)" style="fill: none"/>
    <path clip-path="url(#pe2574cb32a)" style="fill: none"/>
    <path clip-path="url(#pe2574cb32a)" style="fill: none"/>
    <path clip-path="url(#pe2574cb32a)" style="fill: none"/>
    <path clip-path="url(#pe2574cb32a)" style="fill: none"/>
    <path clip-path="url(#pe2574cb32a)" style="fill: none"/>
    <path clip-path="url(#pe2574cb32a)" style="fill: none"/>
    <path clip-path="url(#pe2574cb32a)" style="fill: none"/>
    <path clip-path="url(#pe2574cb32a)" style="fill: none"/>
    <path clip-path="url(#pe2574cb32a)" style="fill: none"/>
    <path clip-path="url(#pe2574cb32a)" style="fill: none"/>
    <path clip-path="url(#pe2574cb32a)" style="fill: none"/>
    <path clip-path="url(#pe2574cb32a)" style="fill: none"/>
    <path clip-path="url(#pe2574cb32a)" style="fill: none"/>
    <path clip-path="url(#pe2574cb32a)" style="fill: none"/>
    <path clip-path="url(#pe2574cb32a)" style="fill: none"/>
    <path clip-path="url(#pe2574cb32a)" style="fill: none"/>
    <path clip-path="url(#pe2574cb32a)" style="fill: none"/>
    <path clip-path="url(#pe2574cb32a)" style="fill: none"/>
    <path clip-path="url(#pe2574cb32a)" style="fill: none"/>
   </g>
   <g id="text_1">
    <g clip-path="url(#pe2574cb32a)">
     <!-- 0 -->
     <g style="opacity: 0" transform="translate(451.213439 37.458477) rotate(-334.999398) scale(0.12 -0.12)">
      <defs>
       <path id="DejaVuSans-30" d="M 2034 4250 
Q 1547 4250 1301 3770 
Q 1056 3291 1056 2328 
Q 1056 1369 1301 889 
Q 1547 409 2034 409 
Q 2525 409 2770 889 
Q 3016 1369 3016 2328 
Q 3016 3291 2770 3770 
Q 2525 4250 2034 4250 
z
M 2034 4750 
Q 2819 4750 3233 4129 
Q 3647 3509 3647 2328 
Q 3647 1150 3233 529 
Q 2819 -91 2034 -91 
Q 1250 -91 836 529 
Q 422 1150 422 2328 
Q 422 3509 836 4129 
Q 1250 4750 2034 4750 
z
" transform="scale(0.015625)"/>
      </defs>
      <use xlink:href="#DejaVuSans-30"/>
     </g>
    </g>
   </g>
   <g id="text_2">
    <g clip-path="url(#pe2574cb32a)">
     <!-- 1 -->
     <g style="opacity: 0" transform="translate(413.211678 17.857042) rotate(-335.86891) scale(0.12 -0.12)">
      <defs>
       <path id="DejaVuSans-31" d="M 794 531 
L 1825 531 
L 1825 4091 
L 703 3866 
L 703 4441 
L 1819 4666 
L 2450 4666 
L 2450 531 
L 3481 531 
L 3481 0 
L 794 0 
L 794 531 
z
" transform="scale(0.015625)"/>
      </defs>
      <use xlink:href="#DejaVuSans-31"/>
     </g>
    </g>
   </g>
   <g id="text_3">
    <g clip-path="url(#pe2574cb32a)">
     <!-- 2 -->
     <g style="opacity: 0" transform="translate(502.274332 61.997965) rotate(-327.529685) scale(0.12 -0.12)">
      <defs>
       <path id="DejaVuSans-32" d="M 1228 531 
L 3431 531 
L 3431 0 
L 469 0 
L 469 531 
Q 828 903 1448 1529 
Q 2069 2156 2228 2338 
Q 2531 2678 2651 2914 
Q 2772 3150 2772 3378 
Q 2772 3750 2511 3984 
Q 2250 4219 1831 4219 
Q 1534 4219 1204 4116 
Q 875 4013 500 3803 
L 500 4441 
Q 881 4594 1212 4672 
Q 1544 4750 1819 4750 
Q 2544 4750 2975 4387 
Q 3406 4025 3406 3419 
Q 3406 3131 3298 2873 
Q 3191 2616 2906 2266 
Q 2828 2175 2409 1742 
Q 1991 1309 1228 531 
z
" transform="scale(0.015625)"/>
      </defs>
      <use xlink:href="#DejaVuSans-32"/>
     </g>
    </g>
   </g>
   <g id="text_4">
    <g clip-path="url(#pe2574cb32a)">
     <!-- 3 -->
     <g style="opacity: 0" transform="translate(525.163272 73.760029) rotate(-325.803155) scale(0.12 -0.12)">
      <defs>
       <path id="DejaVuSans-33" d="M 2597 2516 
Q 3050 2419 3304 2112 
Q 3559 1806 3559 1356 
Q 3559 666 3084 287 
Q 2609 -91 1734 -91 
Q 1441 -91 1130 -33 
Q 819 25 488 141 
L 488 750 
Q 750 597 1062 519 
Q 1375 441 1716 441 
Q 2309 441 2620 675 
Q 2931 909 2931 1356 
Q 2931 1769 2642 2001 
Q 2353 2234 1838 2234 
L 1294 2234 
L 1294 2753 
L 1863 2753 
Q 2328 2753 2575 2939 
Q 2822 3125 2822 3475 
Q 2822 3834 2567 4026 
Q 2313 4219 1838 4219 
Q 1578 4219 1281 4162 
Q 984 4106 628 3988 
L 628 4550 
Q 988 4650 1302 4700 
Q 1616 4750 1894 4750 
Q 2613 4750 3031 4423 
Q 3450 4097 3450 3541 
Q 3450 3153 3228 2886 
Q 3006 2619 2597 2516 
z
" transform="scale(0.015625)"/>
      </defs>
      <use xlink:href="#DejaVuSans-33"/>
     </g>
    </g>
   </g>
   <g id="text_5">
    <g clip-path="url(#pe2574cb32a)">
     <!-- 4 -->
     <g style="opacity: 0" transform="translate(551.340095 87.252693) rotate(-325.30213) scale(0.12 -0.12)">
      <defs>
       <path id="DejaVuSans-34" d="M 2419 4116 
L 825 1625 
L 2419 1625 
L 2419 4116 
z
M 2253 4666 
L 3047 4666 
L 3047 1625 
L 3713 1625 
L 3713 1100 
L 3047 1100 
L 3047 0 
L 2419 0 
L 2419 1100 
L 313 1100 
L 313 1709 
L 2253 4666 
z
" transform="scale(0.015625)"/>
      </defs>
      <use xlink:href="#DejaVuSans-34"/>
     </g>
    </g>
   </g>
   <g id="text_6">
    <g clip-path="url(#pe2574cb32a)">
     <!-- 5 -->
     <g style="opacity: 0" transform="translate(515.053708 62.905389) rotate(-325.894272) scale(0.12 -0.12)">
      <defs>
       <path id="DejaVuSans-35" d="M 691 4666 
L 3169 4666 
L 3169 4134 
L 1269 4134 
L 1269 2991 
Q 1406 3038 1543 3061 
Q 1681 3084 1819 3084 
Q 2600 3084 3056 2656 
Q 3513 2228 3513 1497 
Q 3513 744 3044 326 
Q 2575 -91 1722 -91 
Q 1428 -91 1123 -41 
Q 819 9 494 109 
L 494 744 
Q 775 591 1075 516 
Q 1375 441 1709 441 
Q 2250 441 2565 725 
Q 2881 1009 2881 1497 
Q 2881 1984 2565 2268 
Q 2250 2553 1709 2553 
Q 1456 2553 1204 2497 
Q 953 2441 691 2322 
L 691 4666 
z
" transform="scale(0.015625)"/>
      </defs>
      <use xlink:href="#DejaVuSans-35"/>
     </g>
    </g>
   </g>
   <g id="text_7">
    <g clip-path="url(#pe2574cb32a)">
     <!-- 6 -->
     <g style="opacity: 0" transform="translate(498.926445 49.81111) rotate(-326.150099) scale(0.12 -0.12)">
      <defs>
       <path id="DejaVuSans-36" d="M 2113 2584 
Q 1688 2584 1439 2293 
Q 1191 2003 1191 1497 
Q 1191 994 1439 701 
Q 1688 409 2113 409 
Q 2538 409 2786 701 
Q 3034 994 3034 1497 
Q 3034 2003 2786 2293 
Q 2538 2584 2113 2584 
z
M 3366 4563 
L 3366 3988 
Q 3128 4100 2886 4159 
Q 2644 4219 2406 4219 
Q 1781 4219 1451 3797 
Q 1122 3375 1075 2522 
Q 1259 2794 1537 2939 
Q 1816 3084 2150 3084 
Q 2853 3084 3261 2657 
Q 3669 2231 3669 1497 
Q 3669 778 3244 343 
Q 2819 -91 2113 -91 
Q 1303 -91 875 529 
Q 447 1150 447 2328 
Q 447 3434 972 4092 
Q 1497 4750 2381 4750 
Q 2619 4750 2861 4703 
Q 3103 4656 3366 4563 
z
" transform="scale(0.015625)"/>
      </defs>
      <use xlink:href="#DejaVuSans-36"/>
     </g>
    </g>
   </g>
   <g id="text_8">
    <g clip-path="url(#pe2574cb32a)">
     <!-- 7 -->
     <g style="opacity: 0" transform="translate(479.832011 37.935881) rotate(-340.719485) scale(0.12 -0.12)">
      <defs>
       <path id="DejaVuSans-37" d="M 525 4666 
L 3525 4666 
L 3525 4397 
L 1831 0 
L 1172 0 
L 2766 4134 
L 525 4134 
L 525 4666 
z
" transform="scale(0.015625)"/>
      </defs>
      <use xlink:href="#DejaVuSans-37"/>
     </g>
    </g>
   </g>
   <g id="text_9">
    <g clip-path="url(#pe2574cb32a)">
     <!-- 8 -->
     <g style="opacity: 0" transform="translate(427.829537 6.604375) rotate(-319.584022) scale(0.12 -0.12)">
      <defs>
       <path id="DejaVuSans-38" d="M 2034 2216 
Q 1584 2216 1326 1975 
Q 1069 1734 1069 1313 
Q 1069 891 1326 650 
Q 1584 409 2034 409 
Q 2484 409 2743 651 
Q 3003 894 3003 1313 
Q 3003 1734 2745 1975 
Q 2488 2216 2034 2216 
z
M 1403 2484 
Q 997 2584 770 2862 
Q 544 3141 544 3541 
Q 544 4100 942 4425 
Q 1341 4750 2034 4750 
Q 2731 4750 3128 4425 
Q 3525 4100 3525 3541 
Q 3525 3141 3298 2862 
Q 3072 2584 2669 2484 
Q 3125 2378 3379 2068 
Q 3634 1759 3634 1313 
Q 3634 634 3220 271 
Q 2806 -91 2034 -91 
Q 1263 -91 848 271 
Q 434 634 434 1313 
Q 434 1759 690 2068 
Q 947 2378 1403 2484 
z
M 1172 3481 
Q 1172 3119 1398 2916 
Q 1625 2713 2034 2713 
Q 2441 2713 2670 2916 
Q 2900 3119 2900 3481 
Q 2900 3844 2670 4047 
Q 2441 4250 2034 4250 
Q 1625 4250 1398 4047 
Q 1172 3844 1172 3481 
z
" transform="scale(0.015625)"/>
      </defs>
      <use xlink:href="#DejaVuSans-38"/>
     </g>
    </g>
   </g>
   <g id="text_10">
    <g clip-path="url(#pe2574cb32a)">
     <!-- 9 -->
     <g style="opacity: 0" transform="translate(453.552325 13.930604) rotate(-328.33064) scale(0.12 -0.12)">
      <defs>
       <path id="DejaVuSans-39" d="M 703 97 
L 703 672 
Q 941 559 1184 500 
Q 1428 441 1663 441 
Q 2288 441 2617 861 
Q 2947 1281 2994 2138 
Q 2813 1869 2534 1725 
Q 2256 1581 1919 1581 
Q 1219 1581 811 2004 
Q 403 2428 403 3163 
Q 403 3881 828 4315 
Q 1253 4750 1959 4750 
Q 2769 4750 3195 4129 
Q 3622 3509 3622 2328 
Q 3622 1225 3098 567 
Q 2575 -91 1691 -91 
Q 1453 -91 1209 -44 
Q 966 3 703 97 
z
M 1959 2075 
Q 2384 2075 2632 2365 
Q 2881 2656 2881 3163 
Q 2881 3666 2632 3958 
Q 2384 4250 1959 4250 
Q 1534 4250 1286 3958 
Q 1038 3666 1038 3163 
Q 1038 2656 1286 2365 
Q 1534 2075 1959 2075 
z
" transform="scale(0.015625)"/>
      </defs>
      <use xlink:href="#DejaVuSans-39"/>
     </g>
    </g>
   </g>
  </g>
 </g>
 <defs>
  <clipPath id="pe2574cb32a">
   <rect x="0" y="0" width="576" height="816.51314"/>
  </clipPath>
 </defs>
</svg>
