<?xml version="1.0" encoding="utf-8" standalone="no"?>
<!DOCTYPE svg PUBLIC "-//W3C//DTD SVG 1.1//EN"
  "http://www.w3.org/Graphics/SVG/1.1/DTD/svg11.dtd">
<svg xmlns:xlink="http://www.w3.org/1999/xlink" width="576pt" height="816.369996pt" viewBox="0 0 576 816.369996" xmlns="http://www.w3.org/2000/svg" version="1.1">
 <metadata>
  <rdf:RDF xmlns:dc="http://purl.org/dc/elements/1.1/" xmlns:cc="http://creativecommons.org/ns#" xmlns:rdf="http://www.w3.org/1999/02/22-rdf-syntax-ns#">
   <cc:Work>
    <dc:type rdf:resource="http://purl.org/dc/dcmitype/StillImage"/>
    <dc:date>2025-07-25T22:44:41.222820</dc:date>
    <dc:format>image/svg+xml</dc:format>
    <dc:creator>
     <cc:Agent>
      <dc:title>Matplotlib v3.10.3, https://matplotlib.org/</dc:title>
     </cc:Agent>
    </dc:creator>
   </cc:Work>
  </rdf:RDF>
 </metadata>
 <defs>
  <style type="text/css">*{stroke-linejoin: round; stroke-linecap: butt}</style>
 </defs>
 <g id="figure_1">
  <g id="patch_1">
   <path d="M 0 816.369996 
L 576 816.369996 
L 576 0 
L 0 0 
L 0 816.369996 
z
" style="fill: none; opacity: 0"/>
  </g>
  <g id="axes_1">
   <g id="QuadContourSet_1">
    <path d="M 261.818182 813.946223 
L 265.090909 813.488722 
L 268.363636 814.400918 
L 271.636364 814.296914 
L 274.909091 813.884284 
L 278.181818 813.737777 
L 281.454545 813.516644 
L 284.727273 815.346621 
L 288 815.6905 
L 290.239836 816.369996 
L 291.272727 816.369996 
L 293.187234 816.369996 
L 291.272727 815.309947 
L 288 814.679843 
L 284.727273 813.619025 
L 283.914715 813.091402 
L 281.454545 812.236127 
L 278.181818 812.201431 
L 274.909091 812.151767 
L 271.636364 811.911983 
L 268.363636 810.785206 
L 265.090909 811.088262 
L 261.818182 812.095323 
L 258.545455 810.399603 
L 255.272727 810.615221 
L 253.339929 809.812808 
L 252 809.110711 
L 248.727273 808.382026 
L 245.454545 807.505076 
L 243.732342 806.534213 
L 242.181818 806.060093 
L 238.909091 806.14728 
L 235.636364 806.199247 
L 232.363636 806.114693 
L 229.090909 804.984726 
L 225.818182 805.095995 
L 222.545455 805.481095 
L 219.272727 803.873236 
L 216 803.881385 
L 214.603899 803.255619 
L 212.727273 802.344159 
L 209.454545 801.656404 
L 206.181818 800.456706 
L 204.867037 799.977025 
L 202.909091 799.604545 
L 199.636364 799.623173 
L 196.363636 799.801512 
L 193.090909 799.911804 
L 189.818182 799.177163 
L 186.545455 799.770065 
L 183.272727 798.961783 
L 180 797.831031 
L 176.727273 797.32516 
L 175.622069 796.69843 
L 173.454545 795.708706 
L 170.181818 795.135506 
L 166.909091 794.357774 
L 164.786119 793.419836 
L 163.636364 793.107016 
L 160.363636 793.100555 
L 157.090909 793.277791 
L 153.818182 793.135232 
L 150.545455 792.566924 
L 147.486979 793.419836 
L 147.272727 793.443319 
L 147.233128 793.419836 
L 144 791.292604 
L 140.727273 791.012697 
L 139.167186 790.141241 
L 137.454545 789.178061 
L 134.181818 788.489039 
L 130.909091 787.026812 
L 130.625279 786.862647 
L 127.636364 786.042637 
L 124.363636 786.045851 
L 121.090909 785.650934 
L 117.818182 784.039466 
L 114.545455 783.980947 
L 111.272727 783.801625 
L 110.897662 783.584053 
L 108 781.911643 
L 104.727273 781.536961 
L 102.107318 780.305458 
L 101.454545 779.961104 
L 98.181818 778.884143 
L 94.909091 777.995272 
L 92.844583 777.026864 
L 91.636364 776.510658 
L 88.363636 776.118656 
L 85.090909 775.966676 
L 81.818182 774.91069 
L 78.545455 773.951669 
L 75.272727 773.965693 
L 74.567501 773.74827 
L 72 772.684011 
L 68.727273 771.590148 
L 65.454545 770.688046 
L 65.156035 770.469675 
L 62.181818 769.097401 
L 58.909091 768.299996 
L 56.156727 767.191081 
L 55.636364 766.901139 
L 52.363636 765.993856 
L 49.090909 765.994207 
L 45.818182 765.207681 
L 43.429064 763.912487 
L 42.545455 763.561404 
L 39.272727 763.801004 
L 36 763.367735 
L 32.727273 761.611046 
L 29.454545 761.169024 
L 28.54502 760.633892 
L 26.181818 759.414989 
L 22.909091 758.596228 
L 19.636364 757.574681 
L 19.233411 757.355298 
L 16.363636 756.307658 
L 13.090909 756.236711 
L 9.818182 755.885016 
L 6.766293 754.076703 
L 6.545455 753.968058 
L 4.041885 754.076703 
L 3.272727 754.191088 
L -0 754.259134 
L -0 755.841525 
L 2.220781 757.355298 
L 3.272727 758.107193 
L 6.545455 758.187737 
L 9.818182 758.855927 
L 13.090909 757.998297 
L 16.363636 758.169643 
L 19.636364 759.443223 
L 22.909091 759.75491 
L 26.181818 760.601656 
L 26.244317 760.633892 
L 29.454545 762.522675 
L 32.727273 762.971786 
L 34.317784 763.912487 
L 36 765.095718 
L 39.272727 765.310893 
L 42.379754 767.191081 
L 42.545455 767.325898 
L 45.818182 767.406765 
L 49.090909 767.20016 
L 49.134516 767.191081 
L 52.363636 767.035582 
L 52.869373 767.191081 
L 55.636364 768.867642 
L 58.909091 769.443696 
L 62.181818 770.003196 
L 63.192848 770.469675 
L 65.454545 772.124181 
L 68.727273 772.620312 
L 71.133047 773.74827 
L 72 774.483608 
L 75.272727 775.273147 
L 78.545455 776.208017 
L 80.499438 777.026864 
L 81.818182 777.465038 
L 85.090909 777.615072 
L 88.363636 777.391383 
L 91.636364 778.623597 
L 94.909091 779.312837 
L 98.181818 779.740748 
L 99.757101 780.305458 
L 101.454545 781.517532 
L 104.727273 782.596344 
L 108 783.292563 
L 108.505044 783.584053 
L 111.272727 785.189564 
L 114.545455 785.332251 
L 117.43306 786.862647 
L 117.818182 787.16654 
L 121.090909 787.478293 
L 124.363636 787.644263 
L 127.636364 787.354872 
L 130.909091 788.971042 
L 134.181818 789.486034 
L 137.0485 790.141241 
L 137.454545 790.371245 
L 140.727273 792.06756 
L 144 792.53509 
L 145.344703 793.419836 
L 147.272727 794.563181 
L 150.545455 794.563261 
L 153.354797 796.69843 
L 153.818182 796.955975 
L 155.004026 796.69843 
L 157.090909 795.720043 
L 160.363636 795.381666 
L 163.636364 795.913171 
L 166.909091 796.229168 
L 170.181818 796.26602 
L 173.371175 796.69843 
L 173.454545 796.729593 
L 176.727273 798.566715 
L 180 798.999462 
L 182.060851 799.977025 
L 183.272727 800.654384 
L 186.545455 801.195885 
L 189.818182 801.788557 
L 193.090909 802.937671 
L 196.363636 801.662951 
L 199.636364 801.861915 
L 202.909091 802.518722 
L 206.181818 802.72895 
L 209.454545 802.832688 
L 211.241214 803.255619 
L 212.727273 803.965112 
L 216 805.081405 
L 219.272727 805.550522 
L 220.869945 806.534213 
L 222.545455 807.287701 
L 225.818182 807.285608 
L 229.090909 808.27664 
L 232.363636 808.510361 
L 235.636364 807.86016 
L 238.909091 808.160414 
L 242.181818 808.931267 
L 245.454545 809.453058 
L 248.727273 809.475523 
L 249.957347 809.812808 
L 252 810.88944 
L 255.272727 811.755614 
L 258.545455 812.225804 
L 259.847452 813.091402 
z
M 307.636364 816.369996 
L 308.54231 816.369996 
L 307.636364 816.241317 
L 305.963172 816.369996 
z
" clip-path="url(#p5d9ad19fb0)" style="fill: #f5f9fe; fill-opacity: 0.9"/>
    <path d="M 258.545455 814.290399 
L 261.818182 815.137713 
L 265.090909 815.676355 
L 266.080774 816.369996 
L 268.363636 816.369996 
L 271.636364 816.369996 
L 272.658574 816.369996 
L 274.909091 815.811152 
L 277.819161 816.369996 
L 278.181818 816.369996 
L 281.454545 816.369996 
L 284.727273 816.369996 
L 288 816.369996 
L 290.239836 816.369996 
L 288 815.6905 
L 284.727273 815.346621 
L 281.454545 813.516644 
L 278.181818 813.737777 
L 274.909091 813.884284 
L 271.636364 814.296914 
L 268.363636 814.400918 
L 265.090909 813.488722 
L 261.818182 813.946223 
L 259.847452 813.091402 
L 258.545455 812.225804 
L 255.272727 811.755614 
L 252 810.88944 
L 249.957347 809.812808 
L 248.727273 809.475523 
L 245.454545 809.453058 
L 242.181818 808.931267 
L 238.909091 808.160414 
L 235.636364 807.86016 
L 232.363636 808.510361 
L 229.090909 808.27664 
L 225.818182 807.285608 
L 222.545455 807.287701 
L 220.869945 806.534213 
L 219.272727 805.550522 
L 216 805.081405 
L 212.727273 803.965112 
L 211.241214 803.255619 
L 209.454545 802.832688 
L 206.181818 802.72895 
L 202.909091 802.518722 
L 199.636364 801.861915 
L 196.363636 801.662951 
L 193.090909 802.937671 
L 189.818182 801.788557 
L 186.545455 801.195885 
L 183.272727 800.654384 
L 182.060851 799.977025 
L 180 798.999462 
L 176.727273 798.566715 
L 173.454545 796.729593 
L 173.371175 796.69843 
L 170.181818 796.26602 
L 166.909091 796.229168 
L 163.636364 795.913171 
L 160.363636 795.381666 
L 157.090909 795.720043 
L 155.004026 796.69843 
L 153.818182 796.955975 
L 153.354797 796.69843 
L 150.545455 794.563261 
L 147.272727 794.563181 
L 145.344703 793.419836 
L 144 792.53509 
L 140.727273 792.06756 
L 137.454545 790.371245 
L 137.0485 790.141241 
L 134.181818 789.486034 
L 130.909091 788.971042 
L 127.636364 787.354872 
L 124.363636 787.644263 
L 121.090909 787.478293 
L 117.818182 787.16654 
L 117.43306 786.862647 
L 114.545455 785.332251 
L 111.272727 785.189564 
L 108.505044 783.584053 
L 108 783.292563 
L 104.727273 782.596344 
L 101.454545 781.517532 
L 99.757101 780.305458 
L 98.181818 779.740748 
L 94.909091 779.312837 
L 91.636364 778.623597 
L 88.363636 777.391383 
L 85.090909 777.615072 
L 81.818182 777.465038 
L 80.499438 777.026864 
L 78.545455 776.208017 
L 75.272727 775.273147 
L 72 774.483608 
L 71.133047 773.74827 
L 68.727273 772.620312 
L 65.454545 772.124181 
L 63.192848 770.469675 
L 62.181818 770.003196 
L 58.909091 769.443696 
L 55.636364 768.867642 
L 52.869373 767.191081 
L 52.363636 767.035582 
L 49.134516 767.191081 
L 49.090909 767.20016 
L 45.818182 767.406765 
L 42.545455 767.325898 
L 42.379754 767.191081 
L 39.272727 765.310893 
L 36 765.095718 
L 34.317784 763.912487 
L 32.727273 762.971786 
L 29.454545 762.522675 
L 26.244317 760.633892 
L 26.181818 760.601656 
L 22.909091 759.75491 
L 19.636364 759.443223 
L 16.363636 758.169643 
L 13.090909 757.998297 
L 9.818182 758.855927 
L 6.545455 758.187737 
L 3.272727 758.107193 
L 2.220781 757.355298 
L -0 755.841525 
L -0 757.355298 
L -0 757.598345 
L 3.272727 759.766483 
L 6.545455 760.626666 
L 6.559825 760.633892 
L 9.818182 762.184916 
L 13.090909 763.650418 
L 16.363636 763.327453 
L 19.636364 762.722716 
L 22.909091 762.543926 
L 26.181818 763.70713 
L 29.454545 763.876325 
L 29.715214 763.912487 
L 32.727273 765.489382 
L 36 766.713979 
L 39.272727 766.806946 
L 39.907513 767.191081 
L 42.545455 769.337358 
L 45.818182 769.415354 
L 47.968204 770.469675 
L 49.090909 771.282818 
L 52.363636 771.325261 
L 55.636364 771.401306 
L 58.909091 771.068418 
L 62.181818 772.7175 
L 65.454545 773.560317 
L 68.727273 773.650476 
L 68.935853 773.74827 
L 72 776.347241 
L 75.272727 776.580601 
L 76.414427 777.026864 
L 78.545455 778.717389 
L 81.818182 779.254037 
L 85.090909 780.016368 
L 85.978404 780.305458 
L 88.363636 781.221799 
L 91.636364 781.339817 
L 94.909091 781.349955 
L 98.181818 782.284868 
L 101.454545 783.223801 
L 103.933051 783.584053 
L 104.727273 783.880616 
L 108 785.358314 
L 111.272727 786.577502 
L 114.545455 786.683554 
L 114.883373 786.862647 
L 117.818182 789.17845 
L 121.090909 789.103996 
L 123.75646 790.141241 
L 124.363636 790.672459 
L 127.636364 791.09354 
L 130.909091 791.203531 
L 134.181818 791.57108 
L 137.454545 792.842136 
L 140.727273 793.122423 
L 142.346467 793.419836 
L 144 794.2384 
L 147.272727 795.683044 
L 150.545455 796.195194 
L 151.207587 796.69843 
L 153.818182 798.149372 
L 157.090909 798.090599 
L 159.805916 799.977025 
L 160.363636 800.224972 
L 161.256397 799.977025 
L 163.636364 798.751048 
L 166.909091 798.285458 
L 170.181818 798.738204 
L 173.454545 799.846417 
L 176.727273 799.808271 
L 178.213635 799.977025 
L 180 800.490834 
L 183.272727 802.031171 
L 186.545455 802.502625 
L 188.332305 803.255619 
L 189.818182 803.995986 
L 193.090909 804.583903 
L 196.363636 804.138779 
L 199.636364 805.7891 
L 202.909091 804.831203 
L 206.181818 804.768532 
L 209.454545 805.410901 
L 212.727273 806.337566 
L 216 806.281425 
L 217.104515 806.534213 
L 219.272727 807.504567 
L 222.545455 808.512436 
L 225.818182 809.079901 
L 227.01447 809.812808 
L 229.090909 810.699389 
L 232.363636 810.718044 
L 234.831964 809.812808 
L 235.636364 809.553778 
L 236.689918 809.812808 
L 238.909091 811.129305 
L 242.181818 811.082761 
L 245.454545 811.389569 
L 248.727273 812.515444 
L 252 812.991404 
L 255.272727 812.896006 
L 256.076843 813.091402 
z
" clip-path="url(#p5d9ad19fb0)" style="fill: #eff6fc; fill-opacity: 0.9"/>
    <path d="M 235.636364 814.116795 
L 238.909091 814.175425 
L 241.08793 813.091402 
L 242.181818 812.675661 
L 244.423722 813.091402 
L 245.454545 814.286029 
L 248.727273 814.742778 
L 252 814.888496 
L 255.272727 816.174479 
L 256.499337 816.369996 
L 258.545455 816.369996 
L 260.89899 816.369996 
L 261.818182 816.329204 
L 261.974416 816.369996 
L 265.090909 816.369996 
L 266.080774 816.369996 
L 265.090909 815.676355 
L 261.818182 815.137713 
L 258.545455 814.290399 
L 256.076843 813.091402 
L 255.272727 812.896006 
L 252 812.991404 
L 248.727273 812.515444 
L 245.454545 811.389569 
L 242.181818 811.082761 
L 238.909091 811.129305 
L 236.689918 809.812808 
L 235.636364 809.553778 
L 234.831964 809.812808 
L 232.363636 810.718044 
L 229.090909 810.699389 
L 227.01447 809.812808 
L 225.818182 809.079901 
L 222.545455 808.512436 
L 219.272727 807.504567 
L 217.104515 806.534213 
L 216 806.281425 
L 212.727273 806.337566 
L 209.454545 805.410901 
L 206.181818 804.768532 
L 202.909091 804.831203 
L 199.636364 805.7891 
L 196.363636 804.138779 
L 193.090909 804.583903 
L 189.818182 803.995986 
L 188.332305 803.255619 
L 186.545455 802.502625 
L 183.272727 802.031171 
L 180 800.490834 
L 178.213635 799.977025 
L 176.727273 799.808271 
L 173.454545 799.846417 
L 170.181818 798.738204 
L 166.909091 798.285458 
L 163.636364 798.751048 
L 161.256397 799.977025 
L 160.363636 800.224972 
L 159.805916 799.977025 
L 157.090909 798.090599 
L 153.818182 798.149372 
L 151.207587 796.69843 
L 150.545455 796.195194 
L 147.272727 795.683044 
L 144 794.2384 
L 142.346467 793.419836 
L 140.727273 793.122423 
L 137.454545 792.842136 
L 134.181818 791.57108 
L 130.909091 791.203531 
L 127.636364 791.09354 
L 124.363636 790.672459 
L 123.75646 790.141241 
L 121.090909 789.103996 
L 117.818182 789.17845 
L 114.883373 786.862647 
L 114.545455 786.683554 
L 111.272727 786.577502 
L 108 785.358314 
L 104.727273 783.880616 
L 103.933051 783.584053 
L 101.454545 783.223801 
L 98.181818 782.284868 
L 94.909091 781.349955 
L 91.636364 781.339817 
L 88.363636 781.221799 
L 85.978404 780.305458 
L 85.090909 780.016368 
L 81.818182 779.254037 
L 78.545455 778.717389 
L 76.414427 777.026864 
L 75.272727 776.580601 
L 72 776.347241 
L 68.935853 773.74827 
L 68.727273 773.650476 
L 65.454545 773.560317 
L 62.181818 772.7175 
L 58.909091 771.068418 
L 55.636364 771.401306 
L 52.363636 771.325261 
L 49.090909 771.282818 
L 47.968204 770.469675 
L 45.818182 769.415354 
L 42.545455 769.337358 
L 39.907513 767.191081 
L 39.272727 766.806946 
L 36 766.713979 
L 32.727273 765.489382 
L 29.715214 763.912487 
L 29.454545 763.876325 
L 26.181818 763.70713 
L 22.909091 762.543926 
L 19.636364 762.722716 
L 16.363636 763.327453 
L 13.090909 763.650418 
L 9.818182 762.184916 
L 6.559825 760.633892 
L 6.545455 760.626666 
L 3.272727 759.766483 
L -0 757.598345 
L -0 760.633892 
L -0 763.695994 
L 1.193449 763.912487 
L 3.272727 764.269016 
L 6.545455 764.915992 
L 9.818182 765.606469 
L 13.090909 766.721379 
L 15.900672 767.191081 
L 16.363636 767.346216 
L 19.636364 768.431598 
L 22.909091 768.875881 
L 26.181818 769.564172 
L 29.454545 770.086731 
L 31.890524 770.469675 
L 32.727273 770.619419 
L 36 771.385502 
L 39.272727 772.265312 
L 42.545455 772.771177 
L 45.163105 773.74827 
L 45.818182 773.972523 
L 49.090909 774.556552 
L 52.363636 775.145351 
L 55.636364 776.431113 
L 58.909091 776.611759 
L 62.181818 776.934755 
L 62.513879 777.026864 
L 65.454545 778.108347 
L 68.727273 778.960327 
L 72 779.709288 
L 73.500645 780.305458 
L 75.272727 780.969999 
L 78.545455 781.79635 
L 81.818182 782.678288 
L 83.402511 783.584053 
L 85.090909 784.139804 
L 88.363636 784.424186 
L 91.636364 785.500672 
L 94.909091 786.160584 
L 98.181818 786.109498 
L 100.584187 786.862647 
L 101.454545 787.282067 
L 104.727273 787.957498 
L 108 788.569947 
L 111.272727 789.655868 
L 113.928309 790.141241 
L 114.545455 790.278534 
L 117.818182 791.671416 
L 121.090909 792.271615 
L 122.530743 793.419836 
L 124.363636 794.045246 
L 127.636364 793.989866 
L 130.909091 795.696204 
L 134.181818 795.438132 
L 137.454545 795.441082 
L 140.727273 796.335887 
L 142.031718 796.69843 
L 144 797.069912 
L 147.272727 797.06758 
L 150.545455 798.538053 
L 153.818182 799.34277 
L 156.335114 799.977025 
L 157.090909 800.357201 
L 160.363636 801.661199 
L 163.636364 801.917012 
L 166.157759 803.255619 
L 166.909091 803.458965 
L 167.798063 803.255619 
L 170.181818 802.198021 
L 173.454545 801.93801 
L 176.727273 802.592154 
L 178.836082 803.255619 
L 180 803.552507 
L 183.272727 803.564608 
L 186.545455 804.460685 
L 189.818182 805.541063 
L 193.090909 806.066091 
L 194.302385 806.534213 
L 196.363636 807.423798 
L 199.636364 808.005861 
L 202.909091 807.840759 
L 206.181818 808.827983 
L 209.454545 808.275679 
L 212.727273 808.236435 
L 216 808.939624 
L 219.096273 809.812808 
L 219.272727 809.846103 
L 219.95712 809.812808 
L 222.545455 809.737171 
L 222.854837 809.812808 
L 225.818182 811.072126 
L 229.090909 811.949878 
L 232.363636 812.646892 
L 233.09361 813.091402 
z
M 274.909091 816.369996 
L 277.819161 816.369996 
L 274.909091 815.811152 
L 272.658574 816.369996 
z
" clip-path="url(#p5d9ad19fb0)" style="fill: #eaf3fb; fill-opacity: 0.9"/>
    <path d="M 212.727273 813.610008 
L 214.699862 813.091402 
L 216 812.329582 
L 219.272727 811.885023 
L 222.545455 812.425168 
L 225.238611 813.091402 
L 225.818182 813.225191 
L 229.090909 813.314743 
L 232.363636 814.590628 
L 235.636364 815.394144 
L 238.909091 816.260645 
L 239.077548 816.369996 
L 242.181818 816.369996 
L 245.454545 816.369996 
L 248.727273 816.369996 
L 252 816.369996 
L 255.272727 816.369996 
L 256.499337 816.369996 
L 255.272727 816.174479 
L 252 814.888496 
L 248.727273 814.742778 
L 245.454545 814.286029 
L 244.423722 813.091402 
L 242.181818 812.675661 
L 241.08793 813.091402 
L 238.909091 814.175425 
L 235.636364 814.116795 
L 233.09361 813.091402 
L 232.363636 812.646892 
L 229.090909 811.949878 
L 225.818182 811.072126 
L 222.854837 809.812808 
L 222.545455 809.737171 
L 219.95712 809.812808 
L 219.272727 809.846103 
L 219.096273 809.812808 
L 216 808.939624 
L 212.727273 808.236435 
L 209.454545 808.275679 
L 206.181818 808.827983 
L 202.909091 807.840759 
L 199.636364 808.005861 
L 196.363636 807.423798 
L 194.302385 806.534213 
L 193.090909 806.066091 
L 189.818182 805.541063 
L 186.545455 804.460685 
L 183.272727 803.564608 
L 180 803.552507 
L 178.836082 803.255619 
L 176.727273 802.592154 
L 173.454545 801.93801 
L 170.181818 802.198021 
L 167.798063 803.255619 
L 166.909091 803.458965 
L 166.157759 803.255619 
L 163.636364 801.917012 
L 160.363636 801.661199 
L 157.090909 800.357201 
L 156.335114 799.977025 
L 153.818182 799.34277 
L 150.545455 798.538053 
L 147.272727 797.06758 
L 144 797.069912 
L 142.031718 796.69843 
L 140.727273 796.335887 
L 137.454545 795.441082 
L 134.181818 795.438132 
L 130.909091 795.696204 
L 127.636364 793.989866 
L 124.363636 794.045246 
L 122.530743 793.419836 
L 121.090909 792.271615 
L 117.818182 791.671416 
L 114.545455 790.278534 
L 113.928309 790.141241 
L 111.272727 789.655868 
L 108 788.569947 
L 104.727273 787.957498 
L 101.454545 787.282067 
L 100.584187 786.862647 
L 98.181818 786.109498 
L 94.909091 786.160584 
L 91.636364 785.500672 
L 88.363636 784.424186 
L 85.090909 784.139804 
L 83.402511 783.584053 
L 81.818182 782.678288 
L 78.545455 781.79635 
L 75.272727 780.969999 
L 73.500645 780.305458 
L 72 779.709288 
L 68.727273 778.960327 
L 65.454545 778.108347 
L 62.513879 777.026864 
L 62.181818 776.934755 
L 58.909091 776.611759 
L 55.636364 776.431113 
L 52.363636 775.145351 
L 49.090909 774.556552 
L 45.818182 773.972523 
L 45.163105 773.74827 
L 42.545455 772.771177 
L 39.272727 772.265312 
L 36 771.385502 
L 32.727273 770.619419 
L 31.890524 770.469675 
L 29.454545 770.086731 
L 26.181818 769.564172 
L 22.909091 768.875881 
L 19.636364 768.431598 
L 16.363636 767.346216 
L 15.900672 767.191081 
L 13.090909 766.721379 
L 9.818182 765.606469 
L 6.545455 764.915992 
L 3.272727 764.269016 
L 1.193449 763.912487 
L -0 763.695994 
L -0 763.912487 
L -0 767.191081 
L -0 770.469675 
L -0 770.887266 
L 3.272727 770.665818 
L 6.545455 772.104645 
L 9.818182 772.161031 
L 13.090909 772.619603 
L 16.363636 773.376815 
L 17.902832 773.74827 
L 19.636364 774.125564 
L 22.909091 774.761231 
L 26.181818 775.759298 
L 29.454545 776.783668 
L 32.727273 776.764571 
L 33.890909 777.026864 
L 36 777.794735 
L 39.272727 778.294966 
L 42.545455 778.763164 
L 45.818182 779.406717 
L 49.090909 780.020532 
L 50.803007 780.305458 
L 52.363636 780.570955 
L 55.636364 781.272443 
L 58.909091 782.087176 
L 62.181818 782.927381 
L 64.414027 783.584053 
L 65.454545 783.856422 
L 68.727273 784.827259 
L 72 785.25471 
L 75.272727 786.106471 
L 78.545455 786.538896 
L 80.694611 786.862647 
L 81.818182 787.067387 
L 85.090909 787.904021 
L 88.363636 788.979129 
L 91.636364 789.684787 
L 93.018478 790.141241 
L 94.909091 790.91478 
L 98.181818 791.826924 
L 101.454545 792.764551 
L 103.160177 793.419836 
L 104.727273 793.774068 
L 107.570124 793.419836 
L 108 793.351228 
L 111.272727 793.321183 
L 111.571824 793.419836 
L 114.545455 794.665006 
L 117.818182 795.036775 
L 121.090909 796.088561 
L 124.363636 796.563485 
L 124.641431 796.69843 
L 127.636364 798.26194 
L 130.909091 798.970079 
L 133.564944 799.977025 
L 134.181818 800.237006 
L 137.454545 800.939905 
L 140.727273 800.656701 
L 143.001788 799.977025 
L 144 799.827658 
L 144.555891 799.977025 
L 147.272727 801.271918 
L 150.545455 801.447796 
L 153.818182 801.784578 
L 157.090909 802.739383 
L 160.363636 803.097427 
L 160.852282 803.255619 
L 163.636364 804.609261 
L 166.909091 805.291199 
L 170.181818 806.317623 
L 170.506287 806.534213 
L 173.454545 807.389974 
L 176.727273 806.968742 
L 177.937876 806.534213 
L 180 806.006254 
L 183.272727 806.357153 
L 183.89354 806.534213 
L 186.545455 807.373983 
L 189.818182 807.46018 
L 193.090909 808.309562 
L 196.363636 809.079243 
L 199.636364 809.717915 
L 199.848968 809.812808 
L 202.909091 811.063655 
L 206.181818 811.537524 
L 209.454545 812.584232 
L 210.066702 813.091402 
z
M 261.818182 816.369996 
L 261.974416 816.369996 
L 261.818182 816.329204 
L 260.89899 816.369996 
z
" clip-path="url(#p5d9ad19fb0)" style="fill: #e5eff9; fill-opacity: 0.9"/>
    <path d="M 206.181818 813.466368 
L 209.454545 814.875522 
L 212.727273 815.192756 
L 215.860618 816.369996 
L 216 816.369996 
L 219.272727 816.369996 
L 222.545455 816.369996 
L 223.939455 816.369996 
L 225.818182 815.823364 
L 229.090909 815.877824 
L 231.345962 816.369996 
L 232.363636 816.369996 
L 235.636364 816.369996 
L 238.909091 816.369996 
L 239.077548 816.369996 
L 238.909091 816.260645 
L 235.636364 815.394144 
L 232.363636 814.590628 
L 229.090909 813.314743 
L 225.818182 813.225191 
L 225.238611 813.091402 
L 222.545455 812.425168 
L 219.272727 811.885023 
L 216 812.329582 
L 214.699862 813.091402 
L 212.727273 813.610008 
L 210.066702 813.091402 
L 209.454545 812.584232 
L 206.181818 811.537524 
L 202.909091 811.063655 
L 199.848968 809.812808 
L 199.636364 809.717915 
L 196.363636 809.079243 
L 193.090909 808.309562 
L 189.818182 807.46018 
L 186.545455 807.373983 
L 183.89354 806.534213 
L 183.272727 806.357153 
L 180 806.006254 
L 177.937876 806.534213 
L 176.727273 806.968742 
L 173.454545 807.389974 
L 170.506287 806.534213 
L 170.181818 806.317623 
L 166.909091 805.291199 
L 163.636364 804.609261 
L 160.852282 803.255619 
L 160.363636 803.097427 
L 157.090909 802.739383 
L 153.818182 801.784578 
L 150.545455 801.447796 
L 147.272727 801.271918 
L 144.555891 799.977025 
L 144 799.827658 
L 143.001788 799.977025 
L 140.727273 800.656701 
L 137.454545 800.939905 
L 134.181818 800.237006 
L 133.564944 799.977025 
L 130.909091 798.970079 
L 127.636364 798.26194 
L 124.641431 796.69843 
L 124.363636 796.563485 
L 121.090909 796.088561 
L 117.818182 795.036775 
L 114.545455 794.665006 
L 111.571824 793.419836 
L 111.272727 793.321183 
L 108 793.351228 
L 107.570124 793.419836 
L 104.727273 793.774068 
L 103.160177 793.419836 
L 101.454545 792.764551 
L 98.181818 791.826924 
L 94.909091 790.91478 
L 93.018478 790.141241 
L 91.636364 789.684787 
L 88.363636 788.979129 
L 85.090909 787.904021 
L 81.818182 787.067387 
L 80.694611 786.862647 
L 78.545455 786.538896 
L 75.272727 786.106471 
L 72 785.25471 
L 68.727273 784.827259 
L 65.454545 783.856422 
L 64.414027 783.584053 
L 62.181818 782.927381 
L 58.909091 782.087176 
L 55.636364 781.272443 
L 52.363636 780.570955 
L 50.803007 780.305458 
L 49.090909 780.020532 
L 45.818182 779.406717 
L 42.545455 778.763164 
L 39.272727 778.294966 
L 36 777.794735 
L 33.890909 777.026864 
L 32.727273 776.764571 
L 29.454545 776.783668 
L 26.181818 775.759298 
L 22.909091 774.761231 
L 19.636364 774.125564 
L 17.902832 773.74827 
L 16.363636 773.376815 
L 13.090909 772.619603 
L 9.818182 772.161031 
L 6.545455 772.104645 
L 3.272727 770.665818 
L -0 770.887266 
L -0 773.74827 
L -0 774.53035 
L 3.272727 775.951568 
L 6.545455 776.53515 
L 7.495424 777.026864 
L 9.818182 778.204803 
L 13.090909 778.976871 
L 15.744295 780.305458 
L 16.363636 780.599204 
L 19.636364 781.222426 
L 22.909091 781.024562 
L 26.181818 780.650227 
L 29.454545 780.839017 
L 32.727273 782.101559 
L 36 782.456319 
L 38.398179 783.584053 
L 39.272727 784.025286 
L 42.545455 784.782699 
L 45.818182 785.633345 
L 47.506252 786.862647 
L 49.090909 787.367769 
L 52.363636 787.480884 
L 55.636364 788.206561 
L 58.909091 787.990431 
L 62.181818 788.076922 
L 65.454545 788.407304 
L 68.727273 789.282085 
L 71.898566 790.141241 
L 72 790.17342 
L 75.272727 791.331008 
L 78.545455 792.417359 
L 80.552916 793.419836 
L 81.818182 793.752107 
L 85.090909 794.109592 
L 88.363636 795.439565 
L 91.636364 795.426498 
L 94.909091 795.666954 
L 98.181818 796.002644 
L 101.454545 796.463284 
L 102.3308 796.69843 
L 104.727273 797.525618 
L 108 798.48515 
L 111.272727 799.482494 
L 112.489257 799.977025 
L 114.545455 800.603259 
L 117.818182 801.095341 
L 121.090909 801.296053 
L 124.363636 801.508694 
L 127.636364 801.937096 
L 130.909091 802.264132 
L 134.181818 802.965636 
L 136.459064 803.255619 
L 137.454545 803.463651 
L 140.727273 804.814706 
L 144 805.378039 
L 147.272727 806.331934 
L 147.895786 806.534213 
L 150.545455 807.043566 
L 153.818182 806.854071 
L 155.353047 806.534213 
L 157.090909 806.250476 
L 160.363636 806.421866 
L 161.106191 806.534213 
L 163.636364 807.044075 
L 166.909091 807.606534 
L 170.181818 808.768802 
L 173.454545 809.285549 
L 175.471227 809.812808 
L 176.727273 810.321571 
L 180 811.311335 
L 183.272727 811.375961 
L 186.545455 811.852782 
L 189.818182 812.374579 
L 193.090909 811.58413 
L 196.363636 811.451415 
L 199.636364 812.066669 
L 202.909091 812.631574 
L 205.129125 813.091402 
z
" clip-path="url(#p5d9ad19fb0)" style="fill: #dfecf7; fill-opacity: 0.9"/>
    <path d="M 166.909091 813.441342 
L 170.181818 813.370763 
L 172.642302 813.091402 
L 173.454545 813.023734 
L 174.145581 813.091402 
L 176.727273 813.626355 
L 180 814.322474 
L 183.272727 814.640423 
L 186.545455 815.546278 
L 189.818182 815.534415 
L 192.457936 816.369996 
L 193.090909 816.369996 
L 196.363636 816.369996 
L 199.636364 816.369996 
L 200.998859 816.369996 
L 202.909091 815.967164 
L 206.181818 816.162727 
L 207.013838 816.369996 
L 209.454545 816.369996 
L 212.727273 816.369996 
L 215.860618 816.369996 
L 212.727273 815.192756 
L 209.454545 814.875522 
L 206.181818 813.466368 
L 205.129125 813.091402 
L 202.909091 812.631574 
L 199.636364 812.066669 
L 196.363636 811.451415 
L 193.090909 811.58413 
L 189.818182 812.374579 
L 186.545455 811.852782 
L 183.272727 811.375961 
L 180 811.311335 
L 176.727273 810.321571 
L 175.471227 809.812808 
L 173.454545 809.285549 
L 170.181818 808.768802 
L 166.909091 807.606534 
L 163.636364 807.044075 
L 161.106191 806.534213 
L 160.363636 806.421866 
L 157.090909 806.250476 
L 155.353047 806.534213 
L 153.818182 806.854071 
L 150.545455 807.043566 
L 147.895786 806.534213 
L 147.272727 806.331934 
L 144 805.378039 
L 140.727273 804.814706 
L 137.454545 803.463651 
L 136.459064 803.255619 
L 134.181818 802.965636 
L 130.909091 802.264132 
L 127.636364 801.937096 
L 124.363636 801.508694 
L 121.090909 801.296053 
L 117.818182 801.095341 
L 114.545455 800.603259 
L 112.489257 799.977025 
L 111.272727 799.482494 
L 108 798.48515 
L 104.727273 797.525618 
L 102.3308 796.69843 
L 101.454545 796.463284 
L 98.181818 796.002644 
L 94.909091 795.666954 
L 91.636364 795.426498 
L 88.363636 795.439565 
L 85.090909 794.109592 
L 81.818182 793.752107 
L 80.552916 793.419836 
L 78.545455 792.417359 
L 75.272727 791.331008 
L 72 790.17342 
L 71.898566 790.141241 
L 68.727273 789.282085 
L 65.454545 788.407304 
L 62.181818 788.076922 
L 58.909091 787.990431 
L 55.636364 788.206561 
L 52.363636 787.480884 
L 49.090909 787.367769 
L 47.506252 786.862647 
L 45.818182 785.633345 
L 42.545455 784.782699 
L 39.272727 784.025286 
L 38.398179 783.584053 
L 36 782.456319 
L 32.727273 782.101559 
L 29.454545 780.839017 
L 26.181818 780.650227 
L 22.909091 781.024562 
L 19.636364 781.222426 
L 16.363636 780.599204 
L 15.744295 780.305458 
L 13.090909 778.976871 
L 9.818182 778.204803 
L 7.495424 777.026864 
L 6.545455 776.53515 
L 3.272727 775.951568 
L -0 774.53035 
L -0 777.026864 
L -0 780.305458 
L -0 780.98748 
L 3.272727 781.331474 
L 6.545455 781.305859 
L 9.818182 782.11717 
L 13.090909 782.714615 
L 16.363636 783.480698 
L 16.851471 783.584053 
L 19.636364 784.550296 
L 22.909091 785.913091 
L 26.181818 786.151116 
L 27.820958 786.862647 
L 29.454545 787.871325 
L 32.727273 788.124677 
L 36 788.032574 
L 39.272727 788.038579 
L 42.545455 787.878085 
L 45.818182 789.10678 
L 49.090909 789.520313 
L 50.543176 790.141241 
L 52.363636 791.160828 
L 55.636364 792.183764 
L 57.936695 793.419836 
L 58.909091 794.07403 
L 62.181818 794.782832 
L 64.854838 796.69843 
L 65.454545 797.089712 
L 68.727273 796.701336 
L 68.743126 796.69843 
L 72 795.701247 
L 75.272727 795.728769 
L 78.545455 796.301757 
L 81.818182 796.647228 
L 81.907696 796.69843 
L 85.090909 798.492068 
L 88.363636 799.346678 
L 89.392592 799.977025 
L 91.636364 801.125227 
L 94.909091 801.866002 
L 97.090154 803.255619 
L 98.181818 803.758104 
L 101.454545 803.59153 
L 104.727273 803.439847 
L 108 803.65524 
L 111.272727 803.379429 
L 114.545455 804.256604 
L 117.818182 805.169046 
L 121.090909 806.000377 
L 122.254329 806.534213 
L 124.363636 807.331591 
L 127.636364 807.914094 
L 130.909091 809.103267 
L 134.181818 809.187637 
L 137.454545 809.452222 
L 140.727273 809.616582 
L 144 809.365968 
L 147.272727 809.624386 
L 148.511323 809.812808 
L 150.545455 810.346769 
L 153.818182 811.203118 
L 157.090909 811.747656 
L 160.363636 812.290492 
L 163.636364 812.589774 
L 165.296781 813.091402 
z
M 225.818182 816.369996 
L 229.090909 816.369996 
L 231.345962 816.369996 
L 229.090909 815.877824 
L 225.818182 815.823364 
L 223.939455 816.369996 
z
" clip-path="url(#p5d9ad19fb0)" style="fill: #dae8f6; fill-opacity: 0.9"/>
    <path d="M 114.545455 813.356499 
L 115.539307 813.091402 
L 117.818182 811.908211 
L 121.090909 811.5846 
L 124.363636 811.427251 
L 127.636364 812.399791 
L 130.909091 812.760705 
L 131.835591 813.091402 
L 134.181818 814.441676 
L 137.454545 815.159247 
L 140.727273 816.138182 
L 141.344311 816.369996 
L 144 816.369996 
L 147.272727 816.369996 
L 150.545455 816.369996 
L 153.818182 816.369996 
L 157.090909 816.369996 
L 160.044487 816.369996 
L 160.363636 816.327291 
L 160.581765 816.369996 
L 163.636364 816.369996 
L 166.909091 816.369996 
L 170.181818 816.369996 
L 173.454545 816.369996 
L 176.727273 816.369996 
L 180 816.369996 
L 183.272727 816.369996 
L 186.545455 816.369996 
L 189.818182 816.369996 
L 192.457936 816.369996 
L 189.818182 815.534415 
L 186.545455 815.546278 
L 183.272727 814.640423 
L 180 814.322474 
L 176.727273 813.626355 
L 174.145581 813.091402 
L 173.454545 813.023734 
L 172.642302 813.091402 
L 170.181818 813.370763 
L 166.909091 813.441342 
L 165.296781 813.091402 
L 163.636364 812.589774 
L 160.363636 812.290492 
L 157.090909 811.747656 
L 153.818182 811.203118 
L 150.545455 810.346769 
L 148.511323 809.812808 
L 147.272727 809.624386 
L 144 809.365968 
L 140.727273 809.616582 
L 137.454545 809.452222 
L 134.181818 809.187637 
L 130.909091 809.103267 
L 127.636364 807.914094 
L 124.363636 807.331591 
L 122.254329 806.534213 
L 121.090909 806.000377 
L 117.818182 805.169046 
L 114.545455 804.256604 
L 111.272727 803.379429 
L 108 803.65524 
L 104.727273 803.439847 
L 101.454545 803.59153 
L 98.181818 803.758104 
L 97.090154 803.255619 
L 94.909091 801.866002 
L 91.636364 801.125227 
L 89.392592 799.977025 
L 88.363636 799.346678 
L 85.090909 798.492068 
L 81.907696 796.69843 
L 81.818182 796.647228 
L 78.545455 796.301757 
L 75.272727 795.728769 
L 72 795.701247 
L 68.743126 796.69843 
L 68.727273 796.701336 
L 65.454545 797.089712 
L 64.854838 796.69843 
L 62.181818 794.782832 
L 58.909091 794.07403 
L 57.936695 793.419836 
L 55.636364 792.183764 
L 52.363636 791.160828 
L 50.543176 790.141241 
L 49.090909 789.520313 
L 45.818182 789.10678 
L 42.545455 787.878085 
L 39.272727 788.038579 
L 36 788.032574 
L 32.727273 788.124677 
L 29.454545 787.871325 
L 27.820958 786.862647 
L 26.181818 786.151116 
L 22.909091 785.913091 
L 19.636364 784.550296 
L 16.851471 783.584053 
L 16.363636 783.480698 
L 13.090909 782.714615 
L 9.818182 782.11717 
L 6.545455 781.305859 
L 3.272727 781.331474 
L -0 780.98748 
L -0 783.584053 
L -0 786.577645 
L 0.9686 786.862647 
L 3.272727 787.627001 
L 6.545455 788.630575 
L 9.818182 788.906863 
L 13.090909 790.048663 
L 16.363636 789.371183 
L 19.636364 789.88014 
L 20.202876 790.141241 
L 22.909091 791.647551 
L 26.181818 792.235539 
L 29.454545 793.376821 
L 29.780784 793.419836 
L 32.727273 794.005152 
L 36 795.060452 
L 39.272727 795.317517 
L 42.299475 796.69843 
L 42.545455 796.782651 
L 43.168584 796.69843 
L 45.818182 796.176079 
L 49.090909 795.341631 
L 52.363636 795.136984 
L 55.636364 795.955311 
L 57.803803 796.69843 
L 58.909091 797.308824 
L 62.181818 798.612443 
L 65.454545 799.81839 
L 66.031313 799.977025 
L 68.727273 801.338473 
L 72 802.581207 
L 73.6697 803.255619 
L 75.272727 804.122546 
L 78.545455 804.77245 
L 81.62438 806.534213 
L 81.818182 806.635939 
L 82.153228 806.534213 
L 85.090909 803.892806 
L 88.363636 803.616146 
L 91.636364 804.608576 
L 94.909091 805.931076 
L 98.16896 806.534213 
L 98.181818 806.539129 
L 101.454545 808.552379 
L 104.727273 809.22489 
L 105.776273 809.812808 
L 108 811.200029 
L 111.272727 811.406762 
L 114.06766 813.091402 
z
M 202.909091 816.369996 
L 206.181818 816.369996 
L 207.013838 816.369996 
L 206.181818 816.162727 
L 202.909091 815.967164 
L 200.998859 816.369996 
z
" clip-path="url(#p5d9ad19fb0)" style="fill: #d6e5f4; fill-opacity: 0.9"/>
    <path d="M 78.545455 813.564908 
L 81.818182 814.465351 
L 85.090909 815.526489 
L 88.363636 816.074824 
L 91.636364 815.510844 
L 93.645552 816.369996 
L 94.909091 816.369996 
L 98.181818 816.369996 
L 101.454545 816.369996 
L 104.727273 816.369996 
L 108 816.369996 
L 111.272727 816.369996 
L 114.545455 816.369996 
L 117.818182 816.369996 
L 121.090909 816.369996 
L 124.363636 816.369996 
L 127.636364 816.369996 
L 130.909091 816.369996 
L 134.181818 816.369996 
L 137.454545 816.369996 
L 140.727273 816.369996 
L 141.344311 816.369996 
L 140.727273 816.138182 
L 137.454545 815.159247 
L 134.181818 814.441676 
L 131.835591 813.091402 
L 130.909091 812.760705 
L 127.636364 812.399791 
L 124.363636 811.427251 
L 121.090909 811.5846 
L 117.818182 811.908211 
L 115.539307 813.091402 
L 114.545455 813.356499 
L 114.06766 813.091402 
L 111.272727 811.406762 
L 108 811.200029 
L 105.776273 809.812808 
L 104.727273 809.22489 
L 101.454545 808.552379 
L 98.181818 806.539129 
L 98.16896 806.534213 
L 94.909091 805.931076 
L 91.636364 804.608576 
L 88.363636 803.616146 
L 85.090909 803.892806 
L 82.153228 806.534213 
L 81.818182 806.635939 
L 81.62438 806.534213 
L 78.545455 804.77245 
L 75.272727 804.122546 
L 73.6697 803.255619 
L 72 802.581207 
L 68.727273 801.338473 
L 66.031313 799.977025 
L 65.454545 799.81839 
L 62.181818 798.612443 
L 58.909091 797.308824 
L 57.803803 796.69843 
L 55.636364 795.955311 
L 52.363636 795.136984 
L 49.090909 795.341631 
L 45.818182 796.176079 
L 43.168584 796.69843 
L 42.545455 796.782651 
L 42.299475 796.69843 
L 39.272727 795.317517 
L 36 795.060452 
L 32.727273 794.005152 
L 29.780784 793.419836 
L 29.454545 793.376821 
L 26.181818 792.235539 
L 22.909091 791.647551 
L 20.202876 790.141241 
L 19.636364 789.88014 
L 16.363636 789.371183 
L 13.090909 790.048663 
L 9.818182 788.906863 
L 6.545455 788.630575 
L 3.272727 787.627001 
L 0.9686 786.862647 
L -0 786.577645 
L -0 786.862647 
L -0 790.141241 
L -0 793.419836 
L -0 796.085119 
L 3.272727 796.206979 
L 6.432201 796.69843 
L 6.545455 796.742995 
L 9.818182 798.079292 
L 13.090909 798.346132 
L 16.363636 798.457925 
L 19.102441 799.977025 
L 19.636364 800.164964 
L 22.909091 800.341275 
L 26.181818 801.245556 
L 29.454545 802.582014 
L 31.485723 803.255619 
L 32.727273 803.494969 
L 36 803.983707 
L 39.272727 805.136486 
L 42.545455 805.348294 
L 45.818182 806.19326 
L 46.526458 806.534213 
L 49.090909 807.329726 
L 52.363636 806.709772 
L 55.636364 807.551347 
L 58.909091 807.989786 
L 62.181818 809.621789 
L 62.547332 809.812808 
L 65.454545 810.405394 
L 68.727273 811.314533 
L 72 812.361334 
L 75.272727 812.389493 
L 77.465686 813.091402 
z
M 160.363636 816.369996 
L 160.581765 816.369996 
L 160.363636 816.327291 
L 160.044487 816.369996 
z
" clip-path="url(#p5d9ad19fb0)" style="fill: #d0e2f2; fill-opacity: 0.9"/>
    <path d="M 49.090909 813.855796 
L 52.363636 814.221088 
L 55.636364 815.818507 
L 58.909091 815.283082 
L 62.181818 815.092901 
L 65.454545 815.187595 
L 68.727273 816.257429 
L 69.338084 816.369996 
L 72 816.369996 
L 75.272727 816.369996 
L 78.545455 816.369996 
L 81.818182 816.369996 
L 85.090909 816.369996 
L 88.363636 816.369996 
L 91.636364 816.369996 
L 93.645552 816.369996 
L 91.636364 815.510844 
L 88.363636 816.074824 
L 85.090909 815.526489 
L 81.818182 814.465351 
L 78.545455 813.564908 
L 77.465686 813.091402 
L 75.272727 812.389493 
L 72 812.361334 
L 68.727273 811.314533 
L 65.454545 810.405394 
L 62.547332 809.812808 
L 62.181818 809.621789 
L 58.909091 807.989786 
L 55.636364 807.551347 
L 52.363636 806.709772 
L 49.090909 807.329726 
L 46.526458 806.534213 
L 45.818182 806.19326 
L 42.545455 805.348294 
L 39.272727 805.136486 
L 36 803.983707 
L 32.727273 803.494969 
L 31.485723 803.255619 
L 29.454545 802.582014 
L 26.181818 801.245556 
L 22.909091 800.341275 
L 19.636364 800.164964 
L 19.102441 799.977025 
L 16.363636 798.457925 
L 13.090909 798.346132 
L 9.818182 798.079292 
L 6.545455 796.742995 
L 6.432201 796.69843 
L 3.272727 796.206979 
L -0 796.085119 
L -0 796.69843 
L -0 799.977025 
L -0 800.086621 
L 3.272727 801.747991 
L 6.545455 802.471589 
L 8.175858 803.255619 
L 9.818182 804.177097 
L 13.090909 805.092083 
L 16.363636 806.506315 
L 16.435797 806.534213 
L 19.636364 807.125299 
L 22.909091 806.545585 
L 22.948237 806.534213 
L 26.181818 806.164256 
L 29.454545 806.472617 
L 29.600508 806.534213 
L 32.727273 807.913468 
L 36 808.68039 
L 38.937472 809.812808 
L 39.272727 809.967686 
L 42.545455 811.234509 
L 45.818182 812.063078 
L 47.304003 813.091402 
z
" clip-path="url(#p5d9ad19fb0)" style="fill: #cbdef1; fill-opacity: 0.9"/>
    <path d="M 29.454545 813.992493 
L 32.727273 814.425559 
L 36 814.264487 
L 39.272727 813.956727 
L 42.545455 814.324456 
L 45.818182 815.384556 
L 49.090909 816.080644 
L 49.792702 816.369996 
L 52.363636 816.369996 
L 55.636364 816.369996 
L 58.909091 816.369996 
L 62.181818 816.369996 
L 65.454545 816.369996 
L 68.727273 816.369996 
L 69.338084 816.369996 
L 68.727273 816.257429 
L 65.454545 815.187595 
L 62.181818 815.092901 
L 58.909091 815.283082 
L 55.636364 815.818507 
L 52.363636 814.221088 
L 49.090909 813.855796 
L 47.304003 813.091402 
L 45.818182 812.063078 
L 42.545455 811.234509 
L 39.272727 809.967686 
L 38.937472 809.812808 
L 36 808.68039 
L 32.727273 807.913468 
L 29.600508 806.534213 
L 29.454545 806.472617 
L 26.181818 806.164256 
L 22.948237 806.534213 
L 22.909091 806.545585 
L 19.636364 807.125299 
L 16.435797 806.534213 
L 16.363636 806.506315 
L 13.090909 805.092083 
L 9.818182 804.177097 
L 8.175858 803.255619 
L 6.545455 802.471589 
L 3.272727 801.747991 
L -0 800.086621 
L -0 803.255619 
L -0 806.534213 
L -0 806.70527 
L 3.272727 807.352504 
L 6.545455 807.704527 
L 9.818182 808.36938 
L 13.090909 809.05501 
L 16.363636 809.755223 
L 16.613371 809.812808 
L 19.636364 810.770996 
L 22.909091 811.990318 
L 26.181818 812.784897 
L 26.909262 813.091402 
z
" clip-path="url(#p5d9ad19fb0)" style="fill: #c6dbef; fill-opacity: 0.9"/>
    <path d="M 6.545455 813.410493 
L 9.818182 814.060716 
L 13.090909 814.893028 
L 16.363636 815.406571 
L 19.636364 815.980171 
L 22.909091 816.355776 
L 22.993385 816.369996 
L 26.181818 816.369996 
L 29.454545 816.369996 
L 32.727273 816.369996 
L 36 816.369996 
L 39.272727 816.369996 
L 42.545455 816.369996 
L 45.818182 816.369996 
L 49.090909 816.369996 
L 49.792702 816.369996 
L 49.090909 816.080644 
L 45.818182 815.384556 
L 42.545455 814.324456 
L 39.272727 813.956727 
L 36 814.264487 
L 32.727273 814.425559 
L 29.454545 813.992493 
L 26.909262 813.091402 
L 26.181818 812.784897 
L 22.909091 811.990318 
L 19.636364 810.770996 
L 16.613371 809.812808 
L 16.363636 809.755223 
L 13.090909 809.05501 
L 9.818182 808.36938 
L 6.545455 807.704527 
L 3.272727 807.352504 
L -0 806.70527 
L -0 809.812808 
L -0 811.250575 
L 3.272727 812.14358 
L 5.541747 813.091402 
z
" clip-path="url(#p5d9ad19fb0)" style="fill: #bed8ec; fill-opacity: 0.9"/>
    <path d="M 3.272727 816.369996 
L 6.545455 816.369996 
L 9.818182 816.369996 
L 13.090909 816.369996 
L 16.363636 816.369996 
L 19.636364 816.369996 
L 22.909091 816.369996 
L 22.993385 816.369996 
L 22.909091 816.355776 
L 19.636364 815.980171 
L 16.363636 815.406571 
L 13.090909 814.893028 
L 9.818182 814.060716 
L 6.545455 813.410493 
L 5.541747 813.091402 
L 3.272727 812.14358 
L -0 811.250575 
L -0 813.091402 
L -0 816.102135 
L 1.975132 816.369996 
z
" clip-path="url(#p5d9ad19fb0)" style="fill: #b5d4e9; fill-opacity: 0.9"/>
    <path d="M -0 816.102135 
L -0 816.369996 
L 1.975132 816.369996 
z
" clip-path="url(#p5d9ad19fb0)" style="fill: #add0e6; fill-opacity: 0.9"/>
    <path clip-path="url(#p5d9ad19fb0)" style="fill: #a5cde3; fill-opacity: 0.9"/>
    <path clip-path="url(#p5d9ad19fb0)" style="fill: #9cc9e1; fill-opacity: 0.9"/>
    <path clip-path="url(#p5d9ad19fb0)" style="fill: #91c3de; fill-opacity: 0.9"/>
    <path clip-path="url(#p5d9ad19fb0)" style="fill: #85bcdc; fill-opacity: 0.9"/>
    <path clip-path="url(#p5d9ad19fb0)" style="fill: #7cb7da; fill-opacity: 0.9"/>
    <path clip-path="url(#p5d9ad19fb0)" style="fill: #71b1d7; fill-opacity: 0.9"/>
    <path clip-path="url(#p5d9ad19fb0)" style="fill: #66abd4; fill-opacity: 0.9"/>
    <path clip-path="url(#p5d9ad19fb0)" style="fill: #5da5d1; fill-opacity: 0.9"/>
    <path clip-path="url(#p5d9ad19fb0)" style="fill: #56a0ce; fill-opacity: 0.9"/>
    <path clip-path="url(#p5d9ad19fb0)" style="fill: #4d99ca; fill-opacity: 0.9"/>
    <path clip-path="url(#p5d9ad19fb0)" style="fill: #4493c7; fill-opacity: 0.9"/>
    <path clip-path="url(#p5d9ad19fb0)" style="fill: #3c8cc3; fill-opacity: 0.9"/>
    <path clip-path="url(#p5d9ad19fb0)" style="fill: #3686c0; fill-opacity: 0.9"/>
    <path clip-path="url(#p5d9ad19fb0)" style="fill: #2f7fbc; fill-opacity: 0.9"/>
    <path clip-path="url(#p5d9ad19fb0)" style="fill: #2777b8; fill-opacity: 0.9"/>
    <path clip-path="url(#p5d9ad19fb0)" style="fill: #2070b4; fill-opacity: 0.9"/>
    <path clip-path="url(#p5d9ad19fb0)" style="fill: #1c6ab0; fill-opacity: 0.9"/>
    <path clip-path="url(#p5d9ad19fb0)" style="fill: #1663aa; fill-opacity: 0.9"/>
    <path clip-path="url(#p5d9ad19fb0)" style="fill: #115ca5; fill-opacity: 0.9"/>
    <path clip-path="url(#p5d9ad19fb0)" style="fill: #0c56a0; fill-opacity: 0.9"/>
    <path clip-path="url(#p5d9ad19fb0)" style="fill: #084f99; fill-opacity: 0.9"/>
    <path clip-path="url(#p5d9ad19fb0)" style="fill: #08488e; fill-opacity: 0.9"/>
    <path clip-path="url(#p5d9ad19fb0)" style="fill: #084184; fill-opacity: 0.9"/>
    <path clip-path="url(#p5d9ad19fb0)" style="fill: #083a7a; fill-opacity: 0.9"/>
    <path clip-path="url(#p5d9ad19fb0)" style="fill: #083370; fill-opacity: 0.9"/>
    <path clip-path="url(#p5d9ad19fb0)" style="fill: #08306b; fill-opacity: 0.9"/>
   </g>
   <g id="QuadContourSet_2">
    <path d="M 293.187234 816.369996 
L 291.272727 815.309947 
L 288 814.679843 
L 284.727273 813.619025 
L 283.914715 813.091402 
L 281.454545 812.236127 
L 278.181818 812.201431 
L 274.909091 812.151767 
L 271.636364 811.911983 
L 268.363636 810.785206 
L 265.090909 811.088262 
L 261.818182 812.095323 
L 258.545455 810.399603 
L 255.272727 810.615221 
L 253.339929 809.812808 
L 252 809.110711 
L 248.727273 808.382026 
L 245.454545 807.505076 
L 243.732342 806.534213 
L 242.181818 806.060093 
L 238.909091 806.14728 
L 235.636364 806.199247 
L 232.363636 806.114693 
L 229.090909 804.984726 
L 225.818182 805.095995 
L 222.545455 805.481095 
L 219.272727 803.873236 
L 216 803.881385 
L 214.603899 803.255619 
L 212.727273 802.344159 
L 209.454545 801.656404 
L 206.181818 800.456706 
L 204.867037 799.977025 
L 202.909091 799.604545 
L 199.636364 799.623173 
L 196.363636 799.801512 
L 193.090909 799.911804 
L 189.818182 799.177163 
L 186.545455 799.770065 
L 183.272727 798.961783 
L 180 797.831031 
L 176.727273 797.32516 
L 175.622069 796.69843 
L 173.454545 795.708706 
L 170.181818 795.135506 
L 166.909091 794.357774 
L 164.786119 793.419836 
L 163.636364 793.107016 
L 160.363636 793.100555 
L 157.090909 793.277791 
L 153.818182 793.135232 
L 150.545455 792.566924 
L 147.486979 793.419836 
L 147.272727 793.443319 
L 147.233128 793.419836 
L 144 791.292604 
L 140.727273 791.012697 
L 139.167186 790.141241 
L 137.454545 789.178061 
L 134.181818 788.489039 
L 130.909091 787.026812 
L 130.625279 786.862647 
L 127.636364 786.042637 
L 124.363636 786.045851 
L 121.090909 785.650934 
L 117.818182 784.039466 
L 114.545455 783.980947 
L 111.272727 783.801625 
L 110.897662 783.584053 
L 108 781.911643 
L 104.727273 781.536961 
L 102.107318 780.305458 
L 101.454545 779.961104 
L 98.181818 778.884143 
L 94.909091 777.995272 
L 92.844583 777.026864 
L 91.636364 776.510658 
L 88.363636 776.118656 
L 85.090909 775.966676 
L 81.818182 774.91069 
L 78.545455 773.951669 
L 75.272727 773.965693 
L 74.567501 773.74827 
L 72 772.684011 
L 68.727273 771.590148 
L 65.454545 770.688046 
L 65.156035 770.469675 
L 62.181818 769.097401 
L 58.909091 768.299996 
L 56.156727 767.191081 
L 55.636364 766.901139 
L 52.363636 765.993856 
L 49.090909 765.994207 
L 45.818182 765.207681 
L 43.429064 763.912487 
L 42.545455 763.561404 
L 39.272727 763.801004 
L 36 763.367735 
L 32.727273 761.611046 
L 29.454545 761.169024 
L 28.54502 760.633892 
L 26.181818 759.414989 
L 25.417994 759.223898 
M 7.269299 754.374746 
L 6.766293 754.076703 
L 6.545455 753.968058 
L 4.041885 754.076703 
L 3.272727 754.191088 
L -0 754.259134 
M 308.54231 816.369996 
L 307.636364 816.241317 
L 305.963172 816.369996 
" clip-path="url(#p5d9ad19fb0)" style="fill: none"/>
    <path d="M 290.239836 816.369996 
L 288 815.6905 
L 284.727273 815.346621 
L 281.454545 813.516644 
L 278.181818 813.737777 
L 274.909091 813.884284 
L 271.636364 814.296914 
L 268.363636 814.400918 
L 265.090909 813.488722 
L 261.818182 813.946223 
L 259.847452 813.091402 
L 258.545455 812.225804 
L 255.272727 811.755614 
L 252 810.88944 
L 249.957347 809.812808 
L 248.727273 809.475523 
L 245.454545 809.453058 
L 242.181818 808.931267 
L 238.909091 808.160414 
L 235.636364 807.86016 
L 232.363636 808.510361 
L 229.090909 808.27664 
L 225.818182 807.285608 
L 222.545455 807.287701 
L 220.869945 806.534213 
L 219.272727 805.550522 
L 216 805.081405 
L 212.727273 803.965112 
L 211.241214 803.255619 
L 209.454545 802.832688 
L 206.181818 802.72895 
L 202.909091 802.518722 
L 199.636364 801.861915 
L 196.363636 801.662951 
L 193.090909 802.937671 
L 189.818182 801.788557 
L 186.545455 801.195885 
L 183.272727 800.654384 
L 182.060851 799.977025 
L 180 798.999462 
L 176.727273 798.566715 
L 173.454545 796.729593 
L 173.371175 796.69843 
L 170.181818 796.26602 
L 166.909091 796.229168 
L 163.636364 795.913171 
L 160.363636 795.381666 
L 157.090909 795.720043 
L 155.004026 796.69843 
L 153.818182 796.955975 
L 153.354797 796.69843 
L 150.545455 794.563261 
L 147.272727 794.563181 
L 145.344703 793.419836 
L 144 792.53509 
L 140.727273 792.06756 
L 137.454545 790.371245 
L 137.0485 790.141241 
L 134.181818 789.486034 
L 130.909091 788.971042 
L 127.636364 787.354872 
L 124.363636 787.644263 
L 121.090909 787.478293 
L 117.818182 787.16654 
L 117.43306 786.862647 
L 114.545455 785.332251 
L 111.272727 785.189564 
L 108.505044 783.584053 
L 108 783.292563 
L 104.727273 782.596344 
L 101.454545 781.517532 
L 99.757101 780.305458 
L 98.181818 779.740748 
L 94.909091 779.312837 
L 91.636364 778.623597 
L 88.363636 777.391383 
L 85.090909 777.615072 
L 81.818182 777.465038 
L 80.499438 777.026864 
L 78.545455 776.208017 
L 75.272727 775.273147 
L 72 774.483608 
L 71.760881 774.28079 
M 54.071583 767.919518 
L 52.869373 767.191081 
L 52.363636 767.035582 
L 49.134516 767.191081 
L 49.090909 767.20016 
L 45.818182 767.406765 
L 42.545455 767.325898 
L 42.379754 767.191081 
L 39.272727 765.310893 
L 36 765.095718 
L 34.317784 763.912487 
L 32.727273 762.971786 
L 29.454545 762.522675 
L 26.244317 760.633892 
L 26.181818 760.601656 
L 22.909091 759.75491 
L 19.636364 759.443223 
L 16.363636 758.169643 
L 13.090909 757.998297 
L 9.818182 758.855927 
L 6.545455 758.187737 
L 3.272727 758.107193 
L 2.220781 757.355298 
L -0 755.841525 
" clip-path="url(#p5d9ad19fb0)" style="fill: none"/>
    <path d="M 266.080774 816.369996 
L 265.090909 815.676355 
L 261.818182 815.137713 
L 258.545455 814.290399 
L 256.076843 813.091402 
L 255.272727 812.896006 
L 252 812.991404 
L 248.727273 812.515444 
L 245.454545 811.389569 
L 242.181818 811.082761 
L 238.909091 811.129305 
L 236.689918 809.812808 
L 235.636364 809.553778 
L 234.831964 809.812808 
L 232.363636 810.718044 
L 229.090909 810.699389 
L 227.01447 809.812808 
L 225.818182 809.079901 
L 222.545455 808.512436 
L 219.272727 807.504567 
L 217.104515 806.534213 
L 216 806.281425 
L 212.727273 806.337566 
L 209.454545 805.410901 
L 206.181818 804.768532 
L 202.909091 804.831203 
L 199.636364 805.7891 
L 196.363636 804.138779 
L 193.090909 804.583903 
L 189.818182 803.995986 
L 188.332305 803.255619 
L 186.545455 802.502625 
L 183.272727 802.031171 
L 180 800.490834 
L 178.213635 799.977025 
L 176.727273 799.808271 
L 173.454545 799.846417 
L 170.181818 798.738204 
L 166.909091 798.285458 
L 163.636364 798.751048 
L 161.256397 799.977025 
L 160.363636 800.224972 
L 159.829807 799.987646 
M 142.324296 793.415763 
L 140.727273 793.122423 
L 137.454545 792.842136 
L 134.181818 791.57108 
L 130.909091 791.203531 
L 127.636364 791.09354 
L 124.363636 790.672459 
L 123.75646 790.141241 
L 121.090909 789.103996 
L 117.818182 789.17845 
L 114.883373 786.862647 
L 114.545455 786.683554 
L 111.272727 786.577502 
L 108 785.358314 
L 104.727273 783.880616 
L 103.933051 783.584053 
L 101.454545 783.223801 
L 98.181818 782.284868 
L 94.909091 781.349955 
L 91.636364 781.339817 
L 88.363636 781.221799 
L 85.978404 780.305458 
L 85.090909 780.016368 
L 81.818182 779.254037 
L 78.545455 778.717389 
L 76.414427 777.026864 
L 75.272727 776.580601 
L 72 776.347241 
L 68.935853 773.74827 
L 68.727273 773.650476 
L 65.454545 773.560317 
L 62.181818 772.7175 
L 58.909091 771.068418 
L 55.636364 771.401306 
L 52.363636 771.325261 
L 49.090909 771.282818 
L 47.968204 770.469675 
L 45.818182 769.415354 
L 42.545455 769.337358 
L 39.907513 767.191081 
L 39.272727 766.806946 
L 36 766.713979 
L 32.727273 765.489382 
L 29.715214 763.912487 
L 29.454545 763.876325 
L 26.181818 763.70713 
L 22.909091 762.543926 
L 19.636364 762.722716 
L 16.363636 763.327453 
L 13.090909 763.650418 
L 9.818182 762.184916 
L 6.559825 760.633892 
L 6.545455 760.626666 
L 3.272727 759.766483 
L -0 757.598345 
M 277.819161 816.369996 
L 274.909091 815.811152 
L 272.658574 816.369996 
" clip-path="url(#p5d9ad19fb0)" style="fill: none"/>
    <path d="M 256.499337 816.369996 
L 255.272727 816.174479 
L 252 814.888496 
L 248.727273 814.742778 
L 245.454545 814.286029 
L 244.423722 813.091402 
L 242.181818 812.675661 
L 241.08793 813.091402 
L 238.909091 814.175425 
L 235.636364 814.116795 
L 233.09361 813.091402 
L 232.363636 812.646892 
L 229.090909 811.949878 
L 225.818182 811.072126 
L 222.854837 809.812808 
L 222.545455 809.737171 
L 219.95712 809.812808 
L 219.272727 809.846103 
L 219.096273 809.812808 
L 216 808.939624 
L 212.727273 808.236435 
L 209.454545 808.275679 
L 206.181818 808.827983 
L 202.909091 807.840759 
L 199.636364 808.005861 
L 196.363636 807.423798 
L 194.302385 806.534213 
L 193.090909 806.066091 
L 189.818182 805.541063 
L 186.545455 804.460685 
L 183.272727 803.564608 
L 180 803.552507 
L 178.836082 803.255619 
L 176.727273 802.592154 
L 173.454545 801.93801 
L 170.181818 802.198021 
L 167.798063 803.255619 
L 166.909091 803.458965 
L 166.157759 803.255619 
L 163.636364 801.917012 
L 160.363636 801.661199 
L 157.090909 800.357201 
L 156.335114 799.977025 
L 153.818182 799.34277 
L 150.545455 798.538053 
L 147.272727 797.06758 
L 144 797.069912 
L 142.031718 796.69843 
L 140.727273 796.335887 
L 137.454545 795.441082 
L 134.181818 795.438132 
L 130.909091 795.696204 
L 127.636364 793.989866 
L 124.363636 794.045246 
L 122.530743 793.419836 
L 121.090909 792.271615 
L 117.818182 791.671416 
L 114.545455 790.278534 
L 113.928309 790.141241 
L 111.272727 789.655868 
L 108 788.569947 
L 104.727273 787.957498 
L 101.454545 787.282067 
L 100.584187 786.862647 
L 98.181818 786.109498 
L 94.909091 786.160584 
L 91.636364 785.500672 
L 88.363636 784.424186 
L 85.090909 784.139804 
L 83.402511 783.584053 
L 81.818182 782.678288 
L 78.545455 781.79635 
L 75.272727 780.969999 
L 73.500645 780.305458 
L 72 779.709288 
L 68.727273 778.960327 
L 65.454545 778.108347 
L 62.513879 777.026864 
L 62.181818 776.934755 
L 58.909091 776.611759 
L 55.636364 776.431113 
L 52.363636 775.145351 
L 51.820718 775.047674 
M 33.192825 770.728396 
L 32.727273 770.619419 
L 31.890524 770.469675 
L 29.454545 770.086731 
L 26.181818 769.564172 
L 22.909091 768.875881 
L 19.636364 768.431598 
L 16.363636 767.346216 
L 15.900672 767.191081 
L 13.090909 766.721379 
L 9.818182 765.606469 
L 6.545455 764.915992 
L 3.272727 764.269016 
L 1.193449 763.912487 
L -0 763.695994 
M 261.974416 816.369996 
L 261.818182 816.329204 
L 260.89899 816.369996 
" clip-path="url(#p5d9ad19fb0)" style="fill: none"/>
    <path d="M 239.077548 816.369996 
L 238.909091 816.260645 
L 235.636364 815.394144 
L 232.363636 814.590628 
L 229.090909 813.314743 
L 225.818182 813.225191 
L 225.238611 813.091402 
L 222.545455 812.425168 
L 219.272727 811.885023 
L 216 812.329582 
L 214.699862 813.091402 
L 212.727273 813.610008 
L 210.066702 813.091402 
L 209.454545 812.584232 
L 206.181818 811.537524 
L 202.909091 811.063655 
L 199.848968 809.812808 
L 199.636364 809.717915 
L 196.363636 809.079243 
L 193.090909 808.309562 
L 189.818182 807.46018 
L 186.545455 807.373983 
L 183.89354 806.534213 
L 183.272727 806.357153 
L 180 806.006254 
L 177.937876 806.534213 
L 176.727273 806.968742 
L 173.454545 807.389974 
L 170.506287 806.534213 
L 170.181818 806.317623 
L 166.909091 805.291199 
L 163.636364 804.609261 
L 160.852282 803.255619 
L 160.363636 803.097427 
L 157.090909 802.739383 
L 153.818182 801.784578 
L 150.545455 801.447796 
L 147.272727 801.271918 
L 144.555891 799.977025 
L 144 799.827658 
L 143.001788 799.977025 
L 140.727273 800.656701 
L 137.454545 800.939905 
L 134.181818 800.237006 
L 133.564944 799.977025 
L 130.909091 798.970079 
L 127.636364 798.26194 
L 124.641431 796.69843 
L 124.363636 796.563485 
L 121.090909 796.088561 
L 117.818182 795.036775 
L 114.545455 794.665006 
L 111.571824 793.419836 
L 111.272727 793.321183 
L 108 793.351228 
L 107.570124 793.419836 
L 104.727273 793.774068 
L 103.160177 793.419836 
L 101.454545 792.764551 
L 98.181818 791.826924 
L 94.909091 790.91478 
L 93.018478 790.141241 
L 91.636364 789.684787 
L 88.363636 788.979129 
L 85.090909 787.904021 
L 81.818182 787.067387 
L 80.694611 786.862647 
L 78.545455 786.538896 
L 75.272727 786.106471 
L 72 785.25471 
L 68.727273 784.827259 
L 65.454545 783.856422 
L 64.414027 783.584053 
L 62.181818 782.927381 
L 58.909091 782.087176 
L 55.636364 781.272443 
L 52.363636 780.570955 
L 50.803007 780.305458 
L 49.090909 780.020532 
L 45.818182 779.406717 
L 42.545455 778.763164 
L 39.272727 778.294966 
L 38.7826 778.220051 
M 20.281969 774.250961 
L 19.636364 774.125564 
L 17.902832 773.74827 
L 16.363636 773.376815 
L 13.090909 772.619603 
L 9.818182 772.161031 
L 6.545455 772.104645 
L 3.272727 770.665818 
L -0 770.887266 
" clip-path="url(#p5d9ad19fb0)" style="fill: none"/>
    <path d="M 215.860618 816.369996 
L 212.727273 815.192756 
L 209.454545 814.875522 
L 206.181818 813.466368 
L 205.129125 813.091402 
L 202.909091 812.631574 
L 199.636364 812.066669 
L 196.363636 811.451415 
L 193.090909 811.58413 
L 189.818182 812.374579 
L 186.545455 811.852782 
L 183.272727 811.375961 
L 180 811.311335 
L 176.727273 810.321571 
L 175.471227 809.812808 
L 173.454545 809.285549 
L 170.181818 808.768802 
L 166.909091 807.606534 
L 163.636364 807.044075 
L 161.106191 806.534213 
L 160.363636 806.421866 
L 157.090909 806.250476 
L 155.353047 806.534213 
L 153.818182 806.854071 
L 150.545455 807.043566 
L 147.895786 806.534213 
L 147.272727 806.331934 
L 144 805.378039 
L 140.727273 804.814706 
L 137.454545 803.463651 
L 136.459064 803.255619 
L 134.181818 802.965636 
L 130.909091 802.264132 
L 130.564718 802.229719 
M 111.760022 799.680584 
L 111.272727 799.482494 
L 108 798.48515 
L 104.727273 797.525618 
L 102.3308 796.69843 
L 101.454545 796.463284 
L 98.181818 796.002644 
L 94.909091 795.666954 
L 91.636364 795.426498 
L 88.363636 795.439565 
L 85.090909 794.109592 
L 81.818182 793.752107 
L 80.552916 793.419836 
L 78.545455 792.417359 
L 75.272727 791.331008 
L 72 790.17342 
L 71.898566 790.141241 
L 68.727273 789.282085 
L 65.454545 788.407304 
L 62.181818 788.076922 
L 58.909091 787.990431 
L 55.636364 788.206561 
L 52.363636 787.480884 
L 49.090909 787.367769 
L 47.506252 786.862647 
L 45.818182 785.633345 
L 42.545455 784.782699 
L 39.272727 784.025286 
L 38.398179 783.584053 
L 36 782.456319 
L 32.727273 782.101559 
L 29.454545 780.839017 
L 26.181818 780.650227 
L 22.909091 781.024562 
L 19.636364 781.222426 
L 16.363636 780.599204 
L 15.744295 780.305458 
L 13.090909 778.976871 
L 9.818182 778.204803 
L 7.495424 777.026864 
L 6.545455 776.53515 
L 3.272727 775.951568 
L -0 774.53035 
M 231.345962 816.369996 
L 229.090909 815.877824 
L 225.818182 815.823364 
L 223.939455 816.369996 
" clip-path="url(#p5d9ad19fb0)" style="fill: none"/>
    <path d="M 192.457936 816.369996 
L 189.818182 815.534415 
L 186.545455 815.546278 
L 183.272727 814.640423 
L 180 814.322474 
L 176.727273 813.626355 
L 174.145581 813.091402 
L 173.454545 813.023734 
L 172.642302 813.091402 
L 170.181818 813.370763 
L 166.909091 813.441342 
L 165.296781 813.091402 
L 163.636364 812.589774 
L 163.240353 812.55356 
M 144.495035 809.405057 
L 144 809.365968 
L 140.727273 809.616582 
L 137.454545 809.452222 
L 134.181818 809.187637 
L 130.909091 809.103267 
L 127.636364 807.914094 
L 124.363636 807.331591 
L 122.254329 806.534213 
L 121.090909 806.000377 
L 117.818182 805.169046 
L 114.545455 804.256604 
L 111.272727 803.379429 
L 108 803.65524 
L 104.727273 803.439847 
L 101.454545 803.59153 
L 98.181818 803.758104 
L 97.090154 803.255619 
L 94.909091 801.866002 
L 91.636364 801.125227 
L 89.392592 799.977025 
L 88.363636 799.346678 
L 85.090909 798.492068 
L 81.907696 796.69843 
L 81.818182 796.647228 
L 78.545455 796.301757 
L 75.272727 795.728769 
L 72 795.701247 
L 68.743126 796.69843 
L 68.727273 796.701336 
L 65.454545 797.089712 
L 64.854838 796.69843 
L 62.181818 794.782832 
L 58.909091 794.07403 
L 57.936695 793.419836 
L 55.636364 792.183764 
L 52.363636 791.160828 
L 50.543176 790.141241 
L 49.090909 789.520313 
L 45.818182 789.10678 
L 42.545455 787.878085 
L 39.272727 788.038579 
L 36 788.032574 
L 32.727273 788.124677 
L 29.454545 787.871325 
L 27.820958 786.862647 
L 26.181818 786.151116 
L 22.909091 785.913091 
L 19.636364 784.550296 
L 16.851471 783.584053 
L 16.363636 783.480698 
L 13.090909 782.714615 
L 9.818182 782.11717 
L 6.545455 781.305859 
L 3.272727 781.331474 
L -0 780.98748 
M 207.013838 816.369996 
L 206.181818 816.162727 
L 202.909091 815.967164 
L 200.998859 816.369996 
" clip-path="url(#p5d9ad19fb0)" style="fill: none"/>
    <path d="M 141.344311 816.369996 
L 140.727273 816.138182 
L 137.454545 815.159247 
L 134.181818 814.441676 
L 131.835591 813.091402 
L 130.909091 812.760705 
L 127.636364 812.399791 
L 124.363636 811.427251 
L 121.090909 811.5846 
L 117.818182 811.908211 
L 115.539307 813.091402 
L 114.545455 813.356499 
L 114.391174 813.270898 
M 97.055296 806.328164 
L 94.909091 805.931076 
L 91.636364 804.608576 
L 88.363636 803.616146 
L 85.090909 803.892806 
L 82.153228 806.534213 
L 81.818182 806.635939 
L 81.62438 806.534213 
L 78.545455 804.77245 
L 75.272727 804.122546 
L 73.6697 803.255619 
L 72 802.581207 
L 68.727273 801.338473 
L 66.031313 799.977025 
L 65.454545 799.81839 
L 62.181818 798.612443 
L 58.909091 797.308824 
L 57.803803 796.69843 
L 55.636364 795.955311 
L 52.363636 795.136984 
L 49.090909 795.341631 
L 45.818182 796.176079 
L 43.168584 796.69843 
L 42.545455 796.782651 
L 42.299475 796.69843 
L 39.272727 795.317517 
L 36 795.060452 
L 32.727273 794.005152 
L 29.780784 793.419836 
L 29.454545 793.376821 
L 26.181818 792.235539 
L 22.909091 791.647551 
L 20.202876 790.141241 
L 19.636364 789.88014 
L 16.363636 789.371183 
L 13.090909 790.048663 
L 9.818182 788.906863 
L 6.545455 788.630575 
L 3.272727 787.627001 
L 0.9686 786.862647 
L -0 786.577645 
M 160.581765 816.369996 
L 160.363636 816.327291 
L 160.044487 816.369996 
" clip-path="url(#p5d9ad19fb0)" style="fill: none"/>
    <path d="M 93.645552 816.369996 
L 91.636364 815.510844 
L 88.363636 816.074824 
L 85.090909 815.526489 
L 81.818182 814.465351 
L 78.545455 813.564908 
L 77.465686 813.091402 
L 75.272727 812.389493 
L 72 812.361334 
L 68.727273 811.314533 
L 65.454545 810.405394 
L 62.547332 809.812808 
L 62.181818 809.621789 
L 58.909091 807.989786 
L 55.636364 807.551347 
L 52.363636 806.709772 
L 49.090909 807.329726 
L 46.526458 806.534213 
L 45.818182 806.19326 
L 42.545455 805.348294 
L 39.272727 805.136486 
L 36 803.983707 
L 35.287274 803.877271 
M 17.100565 798.866668 
L 16.363636 798.457925 
L 13.090909 798.346132 
L 9.818182 798.079292 
L 6.545455 796.742995 
L 6.432201 796.69843 
L 3.272727 796.206979 
L -0 796.085119 
" clip-path="url(#p5d9ad19fb0)" style="fill: none"/>
    <path d="M 69.338084 816.369996 
L 68.727273 816.257429 
L 65.454545 815.187595 
L 65.109332 815.177607 
M 46.767643 812.720192 
L 45.818182 812.063078 
L 42.545455 811.234509 
L 39.272727 809.967686 
L 38.937472 809.812808 
L 36 808.68039 
L 32.727273 807.913468 
L 29.600508 806.534213 
L 29.454545 806.472617 
L 26.181818 806.164256 
L 22.948237 806.534213 
L 22.909091 806.545585 
L 19.636364 807.125299 
L 16.435797 806.534213 
L 16.363636 806.506315 
L 13.090909 805.092083 
L 9.818182 804.177097 
L 8.175858 803.255619 
L 6.545455 802.471589 
L 3.272727 801.747991 
L -0 800.086621 
" clip-path="url(#p5d9ad19fb0)" style="fill: none"/>
    <path d="M 49.792702 816.369996 
L 49.090909 816.080644 
L 45.818182 815.384556 
L 42.545455 814.324456 
L 40.372691 814.080321 
M 12.278028 808.884713 
L 9.818182 808.36938 
L 6.545455 807.704527 
L 3.272727 807.352504 
L -0 806.70527 
" clip-path="url(#p5d9ad19fb0)" style="fill: none"/>
    <path d="M 22.993385 816.369996 
L 22.909091 816.355776 
L 19.636364 815.980171 
L 16.363636 815.406571 
L 13.090909 814.893028 
L 9.818182 814.060716 
L 6.545455 813.410493 
L 5.541747 813.091402 
L 3.272727 812.14358 
L -0 811.250575 
" clip-path="url(#p5d9ad19fb0)" style="fill: none"/>
    <path d="M 1.975132 816.369996 
L -0 816.102135 
" clip-path="url(#p5d9ad19fb0)" style="fill: none"/>
    <path clip-path="url(#p5d9ad19fb0)" style="fill: none"/>
    <path clip-path="url(#p5d9ad19fb0)" style="fill: none"/>
    <path clip-path="url(#p5d9ad19fb0)" style="fill: none"/>
    <path clip-path="url(#p5d9ad19fb0)" style="fill: none"/>
    <path clip-path="url(#p5d9ad19fb0)" style="fill: none"/>
    <path clip-path="url(#p5d9ad19fb0)" style="fill: none"/>
    <path clip-path="url(#p5d9ad19fb0)" style="fill: none"/>
    <path clip-path="url(#p5d9ad19fb0)" style="fill: none"/>
    <path clip-path="url(#p5d9ad19fb0)" style="fill: none"/>
    <path clip-path="url(#p5d9ad19fb0)" style="fill: none"/>
    <path clip-path="url(#p5d9ad19fb0)" style="fill: none"/>
    <path clip-path="url(#p5d9ad19fb0)" style="fill: none"/>
    <path clip-path="url(#p5d9ad19fb0)" style="fill: none"/>
    <path clip-path="url(#p5d9ad19fb0)" style="fill: none"/>
    <path clip-path="url(#p5d9ad19fb0)" style="fill: none"/>
    <path clip-path="url(#p5d9ad19fb0)" style="fill: none"/>
    <path clip-path="url(#p5d9ad19fb0)" style="fill: none"/>
    <path clip-path="url(#p5d9ad19fb0)" style="fill: none"/>
    <path clip-path="url(#p5d9ad19fb0)" style="fill: none"/>
    <path clip-path="url(#p5d9ad19fb0)" style="fill: none"/>
    <path clip-path="url(#p5d9ad19fb0)" style="fill: none"/>
    <path clip-path="url(#p5d9ad19fb0)" style="fill: none"/>
    <path clip-path="url(#p5d9ad19fb0)" style="fill: none"/>
    <path clip-path="url(#p5d9ad19fb0)" style="fill: none"/>
    <path clip-path="url(#p5d9ad19fb0)" style="fill: none"/>
    <path clip-path="url(#p5d9ad19fb0)" style="fill: none"/>
   </g>
   <g id="text_1">
    <g clip-path="url(#p5d9ad19fb0)">
     <!-- 0 -->
     <g style="opacity: 0" transform="translate(11.966996 758.799091) rotate(-348.60087) scale(0.12 -0.12)">
      <defs>
       <path id="DejaVuSans-30" d="M 2034 4250 
Q 1547 4250 1301 3770 
Q 1056 3291 1056 2328 
Q 1056 1369 1301 889 
Q 1547 409 2034 409 
Q 2525 409 2770 889 
Q 3016 1369 3016 2328 
Q 3016 3291 2770 3770 
Q 2525 4250 2034 4250 
z
M 2034 4750 
Q 2819 4750 3233 4129 
Q 3647 3509 3647 2328 
Q 3647 1150 3233 529 
Q 2819 -91 2034 -91 
Q 1250 -91 836 529 
Q 422 1150 422 2328 
Q 422 3509 836 4129 
Q 1250 4750 2034 4750 
z
" transform="scale(0.015625)"/>
      </defs>
      <use xlink:href="#DejaVuSans-30"/>
     </g>
    </g>
   </g>
   <g id="text_2">
    <g clip-path="url(#p5d9ad19fb0)">
     <!-- 1 -->
     <g style="opacity: 0" transform="translate(58.521069 772.396374) rotate(-341.473906) scale(0.12 -0.12)">
      <defs>
       <path id="DejaVuSans-31" d="M 794 531 
L 1825 531 
L 1825 4091 
L 703 3866 
L 703 4441 
L 1819 4666 
L 2450 4666 
L 2450 531 
L 3481 531 
L 3481 0 
L 794 0 
L 794 531 
z
" transform="scale(0.015625)"/>
      </defs>
      <use xlink:href="#DejaVuSans-31"/>
     </g>
    </g>
   </g>
   <g id="text_3">
    <g clip-path="url(#p5d9ad19fb0)">
     <!-- 2 -->
     <g style="opacity: 0" transform="translate(146.606494 798.788317) rotate(-343.490334) scale(0.12 -0.12)">
      <defs>
       <path id="DejaVuSans-32" d="M 1228 531 
L 3431 531 
L 3431 0 
L 469 0 
L 469 531 
Q 828 903 1448 1529 
Q 2069 2156 2228 2338 
Q 2531 2678 2651 2914 
Q 2772 3150 2772 3378 
Q 2772 3750 2511 3984 
Q 2250 4219 1831 4219 
Q 1534 4219 1204 4116 
Q 875 4013 500 3803 
L 500 4441 
Q 881 4594 1212 4672 
Q 1544 4750 1819 4750 
Q 2544 4750 2975 4387 
Q 3406 4025 3406 3419 
Q 3406 3131 3298 2873 
Q 3191 2616 2906 2266 
Q 2828 2175 2409 1742 
Q 1991 1309 1228 531 
z
" transform="scale(0.015625)"/>
      </defs>
      <use xlink:href="#DejaVuSans-32"/>
     </g>
    </g>
   </g>
   <g id="text_4">
    <g clip-path="url(#p5d9ad19fb0)">
     <!-- 3 -->
     <g style="opacity: 0" transform="translate(38.042737 775.065347) rotate(-346.061261) scale(0.12 -0.12)">
      <defs>
       <path id="DejaVuSans-33" d="M 2597 2516 
Q 3050 2419 3304 2112 
Q 3559 1806 3559 1356 
Q 3559 666 3084 287 
Q 2609 -91 1734 -91 
Q 1441 -91 1130 -33 
Q 819 25 488 141 
L 488 750 
Q 750 597 1062 519 
Q 1375 441 1716 441 
Q 2309 441 2620 675 
Q 2931 909 2931 1356 
Q 2931 1769 2642 2001 
Q 2353 2234 1838 2234 
L 1294 2234 
L 1294 2753 
L 1863 2753 
Q 2328 2753 2575 2939 
Q 2822 3125 2822 3475 
Q 2822 3834 2567 4026 
Q 2313 4219 1838 4219 
Q 1578 4219 1281 4162 
Q 984 4106 628 3988 
L 628 4550 
Q 988 4650 1302 4700 
Q 1616 4750 1894 4750 
Q 2613 4750 3031 4423 
Q 3450 4097 3450 3541 
Q 3450 3153 3228 2886 
Q 3006 2619 2597 2516 
z
" transform="scale(0.015625)"/>
      </defs>
      <use xlink:href="#DejaVuSans-33"/>
     </g>
    </g>
   </g>
   <g id="text_5">
    <g clip-path="url(#p5d9ad19fb0)">
     <!-- 4 -->
     <g style="opacity: 0" transform="translate(25.081406 779.316123) rotate(-349.136897) scale(0.12 -0.12)">
      <defs>
       <path id="DejaVuSans-34" d="M 2419 4116 
L 825 1625 
L 2419 1625 
L 2419 4116 
z
M 2253 4666 
L 3047 4666 
L 3047 1625 
L 3713 1625 
L 3713 1100 
L 3047 1100 
L 3047 0 
L 2419 0 
L 2419 1100 
L 313 1100 
L 313 1709 
L 2253 4666 
z
" transform="scale(0.015625)"/>
      </defs>
      <use xlink:href="#DejaVuSans-34"/>
     </g>
    </g>
   </g>
   <g id="text_6">
    <g clip-path="url(#p5d9ad19fb0)">
     <!-- 5 -->
     <g style="opacity: 0" transform="translate(116.998326 804.260584) rotate(-354.980382) scale(0.12 -0.12)">
      <defs>
       <path id="DejaVuSans-35" d="M 691 4666 
L 3169 4666 
L 3169 4134 
L 1269 4134 
L 1269 2991 
Q 1406 3038 1543 3061 
Q 1681 3084 1819 3084 
Q 2600 3084 3056 2656 
Q 3513 2228 3513 1497 
Q 3513 744 3044 326 
Q 2575 -91 1722 -91 
Q 1428 -91 1123 -41 
Q 819 9 494 109 
L 494 744 
Q 775 591 1075 516 
Q 1375 441 1709 441 
Q 2250 441 2565 725 
Q 2881 1009 2881 1497 
Q 2881 1984 2565 2268 
Q 2250 2553 1709 2553 
Q 1456 2553 1204 2497 
Q 953 2441 691 2322 
L 691 4666 
z
" transform="scale(0.015625)"/>
      </defs>
      <use xlink:href="#DejaVuSans-35"/>
     </g>
    </g>
   </g>
   <g id="text_7">
    <g clip-path="url(#p5d9ad19fb0)">
     <!-- 6 -->
     <g style="opacity: 0" transform="translate(149.39642 813.649689) rotate(-348.017914) scale(0.12 -0.12)">
      <defs>
       <path id="DejaVuSans-36" d="M 2113 2584 
Q 1688 2584 1439 2293 
Q 1191 2003 1191 1497 
Q 1191 994 1439 701 
Q 1688 409 2113 409 
Q 2538 409 2786 701 
Q 3034 994 3034 1497 
Q 3034 2003 2786 2293 
Q 2538 2584 2113 2584 
z
M 3366 4563 
L 3366 3988 
Q 3128 4100 2886 4159 
Q 2644 4219 2406 4219 
Q 1781 4219 1451 3797 
Q 1122 3375 1075 2522 
Q 1259 2794 1537 2939 
Q 1816 3084 2150 3084 
Q 2853 3084 3261 2657 
Q 3669 2231 3669 1497 
Q 3669 778 3244 343 
Q 2819 -91 2113 -91 
Q 1303 -91 875 529 
Q 447 1150 447 2328 
Q 447 3434 972 4092 
Q 1497 4750 2381 4750 
Q 2619 4750 2861 4703 
Q 3103 4656 3366 4563 
z
" transform="scale(0.015625)"/>
      </defs>
      <use xlink:href="#DejaVuSans-36"/>
     </g>
    </g>
   </g>
   <g id="text_8">
    <g clip-path="url(#p5d9ad19fb0)">
     <!-- 7 -->
     <g style="opacity: 0" transform="translate(101.123483 811.78492) rotate(-342.032002) scale(0.12 -0.12)">
      <defs>
       <path id="DejaVuSans-37" d="M 525 4666 
L 3525 4666 
L 3525 4397 
L 1831 0 
L 1172 0 
L 2766 4134 
L 525 4134 
L 525 4666 
z
" transform="scale(0.015625)"/>
      </defs>
      <use xlink:href="#DejaVuSans-37"/>
     </g>
    </g>
   </g>
   <g id="text_9">
    <g clip-path="url(#p5d9ad19fb0)">
     <!-- 8 -->
     <g style="opacity: 0" transform="translate(21.587213 803.349667) rotate(-343.667579) scale(0.12 -0.12)">
      <defs>
       <path id="DejaVuSans-38" d="M 2034 2216 
Q 1584 2216 1326 1975 
Q 1069 1734 1069 1313 
Q 1069 891 1326 650 
Q 1584 409 2034 409 
Q 2484 409 2743 651 
Q 3003 894 3003 1313 
Q 3003 1734 2745 1975 
Q 2488 2216 2034 2216 
z
M 1403 2484 
Q 997 2584 770 2862 
Q 544 3141 544 3541 
Q 544 4100 942 4425 
Q 1341 4750 2034 4750 
Q 2731 4750 3128 4425 
Q 3525 4100 3525 3541 
Q 3525 3141 3298 2862 
Q 3072 2584 2669 2484 
Q 3125 2378 3379 2068 
Q 3634 1759 3634 1313 
Q 3634 634 3220 271 
Q 2806 -91 2034 -91 
Q 1263 -91 848 271 
Q 434 634 434 1313 
Q 434 1759 690 2068 
Q 947 2378 1403 2484 
z
M 1172 3481 
Q 1172 3119 1398 2916 
Q 1625 2713 2034 2713 
Q 2441 2713 2670 2916 
Q 2900 3119 2900 3481 
Q 2900 3844 2670 4047 
Q 2441 4250 2034 4250 
Q 1625 4250 1398 4047 
Q 1172 3844 1172 3481 
z
" transform="scale(0.015625)"/>
      </defs>
      <use xlink:href="#DejaVuSans-38"/>
     </g>
    </g>
   </g>
   <g id="text_10">
    <g clip-path="url(#p5d9ad19fb0)">
     <!-- 9 -->
     <g style="opacity: 0" transform="translate(51.457124 818.659569) rotate(-353.270062) scale(0.12 -0.12)">
      <defs>
       <path id="DejaVuSans-39" d="M 703 97 
L 703 672 
Q 941 559 1184 500 
Q 1428 441 1663 441 
Q 2288 441 2617 861 
Q 2947 1281 2994 2138 
Q 2813 1869 2534 1725 
Q 2256 1581 1919 1581 
Q 1219 1581 811 2004 
Q 403 2428 403 3163 
Q 403 3881 828 4315 
Q 1253 4750 1959 4750 
Q 2769 4750 3195 4129 
Q 3622 3509 3622 2328 
Q 3622 1225 3098 567 
Q 2575 -91 1691 -91 
Q 1453 -91 1209 -44 
Q 966 3 703 97 
z
M 1959 2075 
Q 2384 2075 2632 2365 
Q 2881 2656 2881 3163 
Q 2881 3666 2632 3958 
Q 2384 4250 1959 4250 
Q 1534 4250 1286 3958 
Q 1038 3666 1038 3163 
Q 1038 2656 1286 2365 
Q 1534 2075 1959 2075 
z
" transform="scale(0.015625)"/>
      </defs>
      <use xlink:href="#DejaVuSans-39"/>
     </g>
    </g>
   </g>
   <g id="text_11">
    <g clip-path="url(#p5d9ad19fb0)">
     <!-- 10 -->
     <g style="opacity: 0" transform="translate(17.997604 814.29362) rotate(-346.998887) scale(0.12 -0.12)">
      <use xlink:href="#DejaVuSans-31"/>
      <use xlink:href="#DejaVuSans-30" transform="translate(63.623047 0)"/>
     </g>
    </g>
   </g>
  </g>
 </g>
 <defs>
  <clipPath id="p5d9ad19fb0">
   <rect x="0" y="0" width="576" height="816.369996"/>
  </clipPath>
 </defs>
</svg>
