<?xml version="1.0" encoding="utf-8" standalone="no"?>
<!DOCTYPE svg PUBLIC "-//W3C//DTD SVG 1.1//EN"
  "http://www.w3.org/Graphics/SVG/1.1/DTD/svg11.dtd">
<svg xmlns:xlink="http://www.w3.org/1999/xlink" width="576pt" height="815.227542pt" viewBox="0 0 576 815.227542" xmlns="http://www.w3.org/2000/svg" version="1.1">
 <metadata>
  <rdf:RDF xmlns:dc="http://purl.org/dc/elements/1.1/" xmlns:cc="http://creativecommons.org/ns#" xmlns:rdf="http://www.w3.org/1999/02/22-rdf-syntax-ns#">
   <cc:Work>
    <dc:type rdf:resource="http://purl.org/dc/dcmitype/StillImage"/>
    <dc:date>2025-07-25T22:45:06.641871</dc:date>
    <dc:format>image/svg+xml</dc:format>
    <dc:creator>
     <cc:Agent>
      <dc:title>Matplotlib v3.10.3, https://matplotlib.org/</dc:title>
     </cc:Agent>
    </dc:creator>
   </cc:Work>
  </rdf:RDF>
 </metadata>
 <defs>
  <style type="text/css">*{stroke-linejoin: round; stroke-linecap: butt}</style>
 </defs>
 <g id="figure_1">
  <g id="patch_1">
   <path d="M 0 815.227542 
L 576 815.227542 
L 576 0 
L 0 0 
L 0 815.227542 
z
" style="fill: none; opacity: 0"/>
  </g>
  <g id="axes_1">
   <g id="QuadContourSet_1">
    <path d="M 222.545455 812.547746 
L 225.818182 813.251225 
L 229.090909 814.015619 
L 232.363636 815.115934 
L 232.621744 815.227542 
L 234.806674 815.227542 
L 232.363636 814.17116 
L 229.090909 813.265664 
L 225.818182 812.465391 
L 223.758388 811.953535 
L 222.545455 811.494116 
L 219.272727 810.724768 
L 216 810.315346 
L 212.727273 809.661651 
L 209.637605 808.679529 
L 209.454545 808.601126 
L 206.181818 808.095417 
L 202.909091 807.49492 
L 199.636364 806.437248 
L 196.363636 805.759168 
L 195.222201 805.405523 
L 193.090909 804.446905 
L 189.818182 803.801055 
L 186.545455 803.109042 
L 183.272727 802.315299 
L 182.692596 802.131517 
L 180 801.159297 
L 176.727273 800.719011 
L 173.454545 800.24704 
L 170.181818 799.130781 
L 168.330062 798.857511 
L 166.909091 798.563682 
L 163.636364 797.595058 
L 160.363636 796.688556 
L 157.090909 795.8214 
L 156.395754 795.583504 
L 153.818182 794.350473 
L 150.545455 793.53715 
L 147.272727 792.37966 
L 147.077259 792.309498 
L 144 790.909566 
L 140.727273 790.045783 
L 137.827979 789.035492 
L 137.454545 788.760098 
L 134.181818 787.462765 
L 130.909091 786.55761 
L 128.659643 785.761486 
L 127.636364 785.076414 
L 124.363636 784.031255 
L 121.090909 783.04895 
L 119.22131 782.48748 
L 117.818182 781.69047 
L 114.545455 780.811309 
L 111.272727 780.200033 
L 108.054993 779.213473 
L 108 779.171655 
L 104.727273 777.787687 
L 101.454545 777.559094 
L 98.181818 776.497465 
L 96.233275 775.939467 
L 94.909091 775.36967 
L 91.636364 774.455409 
L 88.363636 773.509681 
L 85.707695 772.665461 
L 85.090909 772.250316 
L 81.818182 771.187438 
L 78.545455 770.728424 
L 75.272727 770.256364 
L 72 769.538146 
L 71.494245 769.391455 
L 68.727273 768.28248 
L 65.454545 767.771768 
L 62.181818 767.71932 
L 58.909091 766.745598 
L 55.636364 766.137766 
L 55.548504 766.117449 
L 52.363636 764.915366 
L 49.090909 764.158235 
L 45.818182 763.479867 
L 43.590492 762.843442 
L 42.545455 762.173562 
L 39.272727 761.143971 
L 36 760.712438 
L 32.727273 759.810402 
L 32.130421 759.569436 
L 29.454545 758.274528 
L 26.181818 758.037375 
L 22.909091 757.214046 
L 19.636364 756.337666 
L 19.490982 756.29543 
L 16.363636 755.027318 
L 13.090909 754.248191 
L 9.818182 753.102543 
L 9.599238 753.021424 
L 6.545455 751.513029 
L 3.272727 750.677628 
L 0.762498 749.747418 
L 0 749.172041 
L 0 749.747418 
L 0 750.068192 
L 3.272727 751.254816 
L 6.545455 752.282382 
L 8.041662 753.021424 
L 9.818182 753.679623 
L 13.090909 754.838423 
L 16.363636 755.917343 
L 17.296052 756.29543 
L 19.636364 756.97533 
L 22.909091 757.992839 
L 26.181818 758.824671 
L 29.454545 759.192998 
L 30.23244 759.569436 
L 32.727273 760.576671 
L 36 761.273066 
L 39.272727 761.891016 
L 41.692511 762.843442 
L 42.545455 763.123018 
L 45.818182 764.022098 
L 49.090909 764.7963 
L 52.363636 765.905128 
L 52.926171 766.117449 
L 55.636364 766.74418 
L 58.909091 767.499527 
L 62.181818 768.502147 
L 65.454545 768.567486 
L 68.727273 769.310156 
L 68.930119 769.391455 
L 72 770.281854 
L 75.272727 770.843303 
L 78.545455 771.375962 
L 81.818182 772.049241 
L 83.478167 772.665461 
L 85.090909 773.07493 
L 88.363636 774.151812 
L 91.636364 775.324273 
L 93.455623 775.939467 
L 94.909091 776.329178 
L 98.181818 777.370562 
L 101.454545 778.316818 
L 104.727273 778.665018 
L 106.007343 779.213473 
L 108 780.029259 
L 111.272727 780.827844 
L 114.545455 781.54291 
L 117.189175 782.48748 
L 117.818182 782.701475 
L 121.090909 783.657166 
L 124.363636 784.716486 
L 126.94325 785.761486 
L 127.636364 786.03415 
L 130.909091 787.171188 
L 134.181818 788.210393 
L 136.087105 789.035492 
L 137.454545 789.550837 
L 140.727273 790.671636 
L 144 791.726639 
L 145.281211 792.309498 
L 147.272727 793.024341 
L 150.545455 794.172904 
L 153.818182 795.233355 
L 154.550146 795.583504 
L 157.090909 796.453003 
L 160.363636 797.380499 
L 163.636364 798.458464 
L 164.864611 798.857511 
L 166.909091 799.388587 
L 170.181818 800.039817 
L 173.454545 801.166672 
L 176.727273 801.508526 
L 179.982661 802.131517 
L 180 802.136308 
L 183.272727 803.171895 
L 186.545455 803.795075 
L 189.818182 804.50102 
L 193.04263 805.405523 
L 193.090909 805.421748 
L 196.363636 806.432523 
L 199.636364 807.229243 
L 202.909091 808.388741 
L 204.222658 808.679529 
L 206.181818 809.060776 
L 209.454545 809.668788 
L 212.727273 810.66687 
L 216 811.128403 
L 219.272727 811.591033 
L 220.596057 811.953535 
z
" clip-path="url(#paa8ae19a71)" style="fill: #f5f9fe; fill-opacity: 0.9"/>
    <path d="M 219.272727 812.67837 
L 222.545455 813.51168 
L 225.818182 814.037059 
L 229.090909 814.765573 
L 230.436815 815.227542 
L 232.363636 815.227542 
L 232.621744 815.227542 
L 232.363636 815.115934 
L 229.090909 814.015619 
L 225.818182 813.251225 
L 222.545455 812.547746 
L 220.596057 811.953535 
L 219.272727 811.591033 
L 216 811.128403 
L 212.727273 810.66687 
L 209.454545 809.668788 
L 206.181818 809.060776 
L 204.222658 808.679529 
L 202.909091 808.388741 
L 199.636364 807.229243 
L 196.363636 806.432523 
L 193.090909 805.421748 
L 193.04263 805.405523 
L 189.818182 804.50102 
L 186.545455 803.795075 
L 183.272727 803.171895 
L 180 802.136308 
L 179.982661 802.131517 
L 176.727273 801.508526 
L 173.454545 801.166672 
L 170.181818 800.039817 
L 166.909091 799.388587 
L 164.864611 798.857511 
L 163.636364 798.458464 
L 160.363636 797.380499 
L 157.090909 796.453003 
L 154.550146 795.583504 
L 153.818182 795.233355 
L 150.545455 794.172904 
L 147.272727 793.024341 
L 145.281211 792.309498 
L 144 791.726639 
L 140.727273 790.671636 
L 137.454545 789.550837 
L 136.087105 789.035492 
L 134.181818 788.210393 
L 130.909091 787.171188 
L 127.636364 786.03415 
L 126.94325 785.761486 
L 124.363636 784.716486 
L 121.090909 783.657166 
L 117.818182 782.701475 
L 117.189175 782.48748 
L 114.545455 781.54291 
L 111.272727 780.827844 
L 108 780.029259 
L 106.007343 779.213473 
L 104.727273 778.665018 
L 101.454545 778.316818 
L 98.181818 777.370562 
L 94.909091 776.329178 
L 93.455623 775.939467 
L 91.636364 775.324273 
L 88.363636 774.151812 
L 85.090909 773.07493 
L 83.478167 772.665461 
L 81.818182 772.049241 
L 78.545455 771.375962 
L 75.272727 770.843303 
L 72 770.281854 
L 68.930119 769.391455 
L 68.727273 769.310156 
L 65.454545 768.567486 
L 62.181818 768.502147 
L 58.909091 767.499527 
L 55.636364 766.74418 
L 52.926171 766.117449 
L 52.363636 765.905128 
L 49.090909 764.7963 
L 45.818182 764.022098 
L 42.545455 763.123018 
L 41.692511 762.843442 
L 39.272727 761.891016 
L 36 761.273066 
L 32.727273 760.576671 
L 30.23244 759.569436 
L 29.454545 759.192998 
L 26.181818 758.824671 
L 22.909091 757.992839 
L 19.636364 756.97533 
L 17.296052 756.29543 
L 16.363636 755.917343 
L 13.090909 754.838423 
L 9.818182 753.679623 
L 8.041662 753.021424 
L 6.545455 752.282382 
L 3.272727 751.254816 
L 0 750.068192 
L 0 750.696597 
L 3.272727 751.832003 
L 6.484056 753.021424 
L 6.545455 753.050839 
L 9.818182 754.256704 
L 13.090909 755.428656 
L 15.442545 756.29543 
L 16.363636 756.665077 
L 19.636364 757.612994 
L 22.909091 758.771631 
L 26.017881 759.569436 
L 26.181818 759.606894 
L 29.454545 760.170569 
L 32.727273 761.34294 
L 36 761.833694 
L 39.272727 762.638061 
L 39.79453 762.843442 
L 42.545455 763.745131 
L 45.818182 764.564328 
L 49.090909 765.434365 
L 50.978605 766.117449 
L 52.363636 766.571148 
L 55.636364 767.350593 
L 58.909091 768.253457 
L 62.181818 769.284974 
L 65.454545 769.363204 
L 65.576036 769.391455 
L 68.727273 770.325922 
L 72 771.025562 
L 75.272727 771.430242 
L 78.545455 772.0235 
L 81.087495 772.665461 
L 81.818182 772.870106 
L 85.090909 773.66436 
L 88.363636 774.793943 
L 91.176086 775.939467 
L 91.636364 776.137458 
L 94.909091 777.018101 
L 98.181818 778.243659 
L 101.454545 779.074542 
L 102.529525 779.213473 
L 104.727273 779.638382 
L 108 780.867559 
L 111.272727 781.455654 
L 114.545455 782.27451 
L 115.141526 782.48748 
L 117.818182 783.398109 
L 121.090909 784.265382 
L 124.363636 785.401717 
L 125.251736 785.761486 
L 127.636364 786.699577 
L 130.909091 787.784765 
L 134.181818 788.95802 
L 134.360714 789.035492 
L 137.454545 790.20146 
L 140.727273 791.297489 
L 143.507198 792.309498 
L 144 792.539001 
L 147.272727 793.669021 
L 150.545455 794.808659 
L 152.734443 795.583504 
L 153.818182 796.061194 
L 157.090909 797.084605 
L 160.363636 798.072442 
L 162.583902 798.857511 
L 163.636364 799.296846 
L 166.909091 800.078907 
L 170.181818 800.948852 
L 173.454545 802.086305 
L 174.073181 802.131517 
L 176.727273 802.337605 
L 180 803.276343 
L 183.272727 804.028491 
L 186.545455 804.481108 
L 189.818182 805.200986 
L 190.547332 805.405523 
L 193.090909 806.260362 
L 196.363636 807.105877 
L 199.636364 808.021237 
L 201.442806 808.679529 
L 202.909091 809.265575 
L 206.181818 809.846487 
L 209.454545 810.718831 
L 212.727273 811.67209 
L 216 811.941461 
L 216.081497 811.953535 
z
" clip-path="url(#paa8ae19a71)" style="fill: #eff6fc; fill-opacity: 0.9"/>
    <path d="M 212.727273 812.642073 
L 216 813.024543 
L 219.272727 813.92479 
L 222.545455 814.475614 
L 225.818182 814.822893 
L 227.69287 815.227542 
L 229.090909 815.227542 
L 230.436815 815.227542 
L 229.090909 814.765573 
L 225.818182 814.037059 
L 222.545455 813.51168 
L 219.272727 812.67837 
L 216.081497 811.953535 
L 216 811.941461 
L 212.727273 811.67209 
L 209.454545 810.718831 
L 206.181818 809.846487 
L 202.909091 809.265575 
L 201.442806 808.679529 
L 199.636364 808.021237 
L 196.363636 807.105877 
L 193.090909 806.260362 
L 190.547332 805.405523 
L 189.818182 805.200986 
L 186.545455 804.481108 
L 183.272727 804.028491 
L 180 803.276343 
L 176.727273 802.337605 
L 174.073181 802.131517 
L 173.454545 802.086305 
L 170.181818 800.948852 
L 166.909091 800.078907 
L 163.636364 799.296846 
L 162.583902 798.857511 
L 160.363636 798.072442 
L 157.090909 797.084605 
L 153.818182 796.061194 
L 152.734443 795.583504 
L 150.545455 794.808659 
L 147.272727 793.669021 
L 144 792.539001 
L 143.507198 792.309498 
L 140.727273 791.297489 
L 137.454545 790.20146 
L 134.360714 789.035492 
L 134.181818 788.95802 
L 130.909091 787.784765 
L 127.636364 786.699577 
L 125.251736 785.761486 
L 124.363636 785.401717 
L 121.090909 784.265382 
L 117.818182 783.398109 
L 115.141526 782.48748 
L 114.545455 782.27451 
L 111.272727 781.455654 
L 108 780.867559 
L 104.727273 779.638382 
L 102.529525 779.213473 
L 101.454545 779.074542 
L 98.181818 778.243659 
L 94.909091 777.018101 
L 91.636364 776.137458 
L 91.176086 775.939467 
L 88.363636 774.793943 
L 85.090909 773.66436 
L 81.818182 772.870106 
L 81.087495 772.665461 
L 78.545455 772.0235 
L 75.272727 771.430242 
L 72 771.025562 
L 68.727273 770.325922 
L 65.576036 769.391455 
L 65.454545 769.363204 
L 62.181818 769.284974 
L 58.909091 768.253457 
L 55.636364 767.350593 
L 52.363636 766.571148 
L 50.978605 766.117449 
L 49.090909 765.434365 
L 45.818182 764.564328 
L 42.545455 763.745131 
L 39.79453 762.843442 
L 39.272727 762.638061 
L 36 761.833694 
L 32.727273 761.34294 
L 29.454545 760.170569 
L 26.181818 759.606894 
L 26.017881 759.569436 
L 22.909091 758.771631 
L 19.636364 757.612994 
L 16.363636 756.665077 
L 15.442545 756.29543 
L 13.090909 755.428656 
L 9.818182 754.256704 
L 6.545455 753.050839 
L 6.484056 753.021424 
L 3.272727 751.832003 
L 0 750.696597 
L 0 751.325002 
L 3.272727 752.409191 
L 4.925702 753.021424 
L 6.545455 753.797423 
L 9.818182 754.833784 
L 13.090909 756.018888 
L 13.841193 756.29543 
L 16.363636 757.307722 
L 19.636364 758.250658 
L 22.909091 759.550424 
L 22.983175 759.569436 
L 26.181818 760.300279 
L 29.454545 761.189187 
L 32.727273 762.109209 
L 36 762.394322 
L 37.71788 762.843442 
L 39.272727 763.485821 
L 42.545455 764.367245 
L 45.818182 765.106559 
L 49.090909 766.07243 
L 49.215319 766.117449 
L 52.363636 767.148754 
L 55.636364 767.957007 
L 58.909091 769.007386 
L 60.123014 769.391455 
L 62.181818 769.912239 
L 65.454545 770.22932 
L 68.727273 771.340666 
L 72 771.769271 
L 75.272727 772.017181 
L 78.52013 772.665461 
L 78.545455 772.673796 
L 81.818182 773.588247 
L 85.090909 774.25379 
L 88.363636 775.436073 
L 89.59955 775.939467 
L 91.636364 776.815613 
L 94.909091 777.707024 
L 98.181818 779.116756 
L 98.572728 779.213473 
L 101.454545 779.820299 
L 104.727273 780.771897 
L 108 781.705858 
L 111.272727 782.083465 
L 112.829996 782.48748 
L 114.545455 783.172058 
L 117.818182 784.094744 
L 121.090909 784.873598 
L 123.560222 785.761486 
L 124.363636 786.169615 
L 127.636364 787.365003 
L 130.909091 788.398343 
L 132.665586 789.035492 
L 134.181818 789.774845 
L 137.454545 790.852082 
L 140.727273 791.923342 
L 141.788019 792.309498 
L 144 793.339642 
L 147.272727 794.313702 
L 150.545455 795.444413 
L 150.938395 795.583504 
L 153.818182 796.852855 
L 157.090909 797.716208 
L 160.363636 798.764385 
L 160.627008 798.857511 
L 163.636364 800.113725 
L 166.909091 800.769227 
L 170.181818 801.857888 
L 170.968753 802.131517 
L 173.454545 802.904868 
L 176.727273 803.314698 
L 180 804.416378 
L 183.272727 804.885088 
L 186.545455 805.167141 
L 187.623098 805.405523 
L 189.818182 806.144972 
L 193.090909 807.098975 
L 196.363636 807.779232 
L 199.269464 808.679529 
L 199.636364 808.879561 
L 202.909091 810.134217 
L 206.181818 810.632197 
L 209.454545 811.768873 
L 210.096984 811.953535 
z
" clip-path="url(#paa8ae19a71)" style="fill: #eaf3fb; fill-opacity: 0.9"/>
    <path d="M 209.454545 812.999544 
L 212.727273 813.598354 
L 216 814.111697 
L 219.272727 815.17121 
L 219.830593 815.227542 
L 222.545455 815.227542 
L 225.818182 815.227542 
L 227.69287 815.227542 
L 225.818182 814.822893 
L 222.545455 814.475614 
L 219.272727 813.92479 
L 216 813.024543 
L 212.727273 812.642073 
L 210.096984 811.953535 
L 209.454545 811.768873 
L 206.181818 810.632197 
L 202.909091 810.134217 
L 199.636364 808.879561 
L 199.269464 808.679529 
L 196.363636 807.779232 
L 193.090909 807.098975 
L 189.818182 806.144972 
L 187.623098 805.405523 
L 186.545455 805.167141 
L 183.272727 804.885088 
L 180 804.416378 
L 176.727273 803.314698 
L 173.454545 802.904868 
L 170.968753 802.131517 
L 170.181818 801.857888 
L 166.909091 800.769227 
L 163.636364 800.113725 
L 160.627008 798.857511 
L 160.363636 798.764385 
L 157.090909 797.716208 
L 153.818182 796.852855 
L 150.938395 795.583504 
L 150.545455 795.444413 
L 147.272727 794.313702 
L 144 793.339642 
L 141.788019 792.309498 
L 140.727273 791.923342 
L 137.454545 790.852082 
L 134.181818 789.774845 
L 132.665586 789.035492 
L 130.909091 788.398343 
L 127.636364 787.365003 
L 124.363636 786.169615 
L 123.560222 785.761486 
L 121.090909 784.873598 
L 117.818182 784.094744 
L 114.545455 783.172058 
L 112.829996 782.48748 
L 111.272727 782.083465 
L 108 781.705858 
L 104.727273 780.771897 
L 101.454545 779.820299 
L 98.572728 779.213473 
L 98.181818 779.116756 
L 94.909091 777.707024 
L 91.636364 776.815613 
L 89.59955 775.939467 
L 88.363636 775.436073 
L 85.090909 774.25379 
L 81.818182 773.588247 
L 78.545455 772.673796 
L 78.52013 772.665461 
L 75.272727 772.017181 
L 72 771.769271 
L 68.727273 771.340666 
L 65.454545 770.22932 
L 62.181818 769.912239 
L 60.123014 769.391455 
L 58.909091 769.007386 
L 55.636364 767.957007 
L 52.363636 767.148754 
L 49.215319 766.117449 
L 49.090909 766.07243 
L 45.818182 765.106559 
L 42.545455 764.367245 
L 39.272727 763.485821 
L 37.71788 762.843442 
L 36 762.394322 
L 32.727273 762.109209 
L 29.454545 761.189187 
L 26.181818 760.300279 
L 22.983175 759.569436 
L 22.909091 759.550424 
L 19.636364 758.250658 
L 16.363636 757.307722 
L 13.841193 756.29543 
L 13.090909 756.018888 
L 9.818182 754.833784 
L 6.545455 753.797423 
L 4.925702 753.021424 
L 3.272727 752.409191 
L 0 751.325002 
L 0 751.953407 
L 3.272727 752.986378 
L 3.367348 753.021424 
L 6.545455 754.544007 
L 9.818182 755.410865 
L 12.248321 756.29543 
L 13.090909 756.790677 
L 16.363636 757.950367 
L 19.636364 758.888322 
L 21.346832 759.569436 
L 22.909091 760.317187 
L 26.181818 760.993665 
L 29.454545 762.207804 
L 32.521782 762.843442 
L 32.727273 762.875768 
L 36 763.11225 
L 39.272727 764.371769 
L 42.545455 764.989359 
L 45.818182 765.648789 
L 47.395133 766.117449 
L 49.090909 766.824607 
L 52.363636 767.726359 
L 55.636364 768.56342 
L 58.044064 769.391455 
L 58.909091 769.792819 
L 62.181818 770.515013 
L 65.454545 771.098027 
L 68.727273 772.355409 
L 72 772.512979 
L 75.272727 772.604119 
L 75.580004 772.665461 
L 78.545455 773.64153 
L 81.818182 774.306388 
L 85.090909 774.843221 
L 88.023014 775.939467 
L 88.363636 776.149843 
L 91.636364 777.493768 
L 94.909091 778.395947 
L 96.779924 779.213473 
L 98.181818 779.943599 
L 101.454545 780.56337 
L 104.727273 781.905413 
L 107.619228 782.48748 
L 108 782.546916 
L 111.272727 782.989075 
L 114.545455 784.137749 
L 117.818182 784.791378 
L 121.090909 785.481814 
L 121.868707 785.761486 
L 124.363636 787.028892 
L 127.636364 788.030429 
L 130.909091 789.011921 
L 130.974072 789.035492 
L 134.181818 790.599671 
L 137.454545 791.502704 
L 139.954994 792.309498 
L 140.727273 792.724909 
L 144 794.140282 
L 147.272727 794.958382 
L 149.085209 795.583504 
L 150.545455 796.396418 
L 153.818182 797.644516 
L 157.090909 798.347811 
L 158.670113 798.857511 
L 160.363636 799.791733 
L 163.636364 800.930603 
L 166.909091 801.459547 
L 168.813967 802.131517 
L 170.181818 802.946553 
L 173.454545 803.718205 
L 176.727273 804.291792 
L 179.659515 805.405523 
L 180 805.557802 
L 183.272727 805.823843 
L 186.545455 806.319025 
L 189.818182 807.189701 
L 193.090909 807.937589 
L 196.363636 808.452587 
L 197.096122 808.679529 
L 199.636364 810.064453 
L 202.909091 811.00286 
L 206.181818 811.417907 
L 207.66341 811.953535 
z
" clip-path="url(#paa8ae19a71)" style="fill: #e5eff9; fill-opacity: 0.9"/>
    <path d="M 206.181818 812.595929 
L 209.454545 814.268759 
L 212.727273 814.554636 
L 216 815.19885 
L 216.088026 815.227542 
L 219.272727 815.227542 
L 219.830593 815.227542 
L 219.272727 815.17121 
L 216 814.111697 
L 212.727273 813.598354 
L 209.454545 812.999544 
L 207.66341 811.953535 
L 206.181818 811.417907 
L 202.909091 811.00286 
L 199.636364 810.064453 
L 197.096122 808.679529 
L 196.363636 808.452587 
L 193.090909 807.937589 
L 189.818182 807.189701 
L 186.545455 806.319025 
L 183.272727 805.823843 
L 180 805.557802 
L 179.659515 805.405523 
L 176.727273 804.291792 
L 173.454545 803.718205 
L 170.181818 802.946553 
L 168.813967 802.131517 
L 166.909091 801.459547 
L 163.636364 800.930603 
L 160.363636 799.791733 
L 158.670113 798.857511 
L 157.090909 798.347811 
L 153.818182 797.644516 
L 150.545455 796.396418 
L 149.085209 795.583504 
L 147.272727 794.958382 
L 144 794.140282 
L 140.727273 792.724909 
L 139.954994 792.309498 
L 137.454545 791.502704 
L 134.181818 790.599671 
L 130.974072 789.035492 
L 130.909091 789.011921 
L 127.636364 788.030429 
L 124.363636 787.028892 
L 121.868707 785.761486 
L 121.090909 785.481814 
L 117.818182 784.791378 
L 114.545455 784.137749 
L 111.272727 782.989075 
L 108 782.546916 
L 107.619228 782.48748 
L 104.727273 781.905413 
L 101.454545 780.56337 
L 98.181818 779.943599 
L 96.779924 779.213473 
L 94.909091 778.395947 
L 91.636364 777.493768 
L 88.363636 776.149843 
L 88.023014 775.939467 
L 85.090909 774.843221 
L 81.818182 774.306388 
L 78.545455 773.64153 
L 75.580004 772.665461 
L 75.272727 772.604119 
L 72 772.512979 
L 68.727273 772.355409 
L 65.454545 771.098027 
L 62.181818 770.515013 
L 58.909091 769.792819 
L 58.044064 769.391455 
L 55.636364 768.56342 
L 52.363636 767.726359 
L 49.090909 766.824607 
L 47.395133 766.117449 
L 45.818182 765.648789 
L 42.545455 764.989359 
L 39.272727 764.371769 
L 36 763.11225 
L 32.727273 762.875768 
L 32.521782 762.843442 
L 29.454545 762.207804 
L 26.181818 760.993665 
L 22.909091 760.317187 
L 21.346832 759.569436 
L 19.636364 758.888322 
L 16.363636 757.950367 
L 13.090909 756.790677 
L 12.248321 756.29543 
L 9.818182 755.410865 
L 6.545455 754.544007 
L 3.367348 753.021424 
L 3.272727 752.986378 
L 0 751.953407 
L 0 752.581812 
L 1.397014 753.021424 
L 3.272727 754.084167 
L 6.545455 755.290592 
L 9.818182 755.987946 
L 10.662925 756.29543 
L 13.090909 757.722523 
L 16.363636 758.593012 
L 19.636364 759.525986 
L 19.74548 759.569436 
L 22.909091 761.083649 
L 26.181818 761.68705 
L 28.85247 762.843442 
L 29.454545 763.200388 
L 32.727273 763.648984 
L 36 764.463734 
L 39.272727 765.257718 
L 42.545455 765.611473 
L 45.350265 766.117449 
L 45.818182 766.259906 
L 49.090909 767.585448 
L 52.363636 768.303965 
L 55.636364 769.169834 
L 56.280778 769.391455 
L 58.909091 770.610968 
L 62.181818 771.117787 
L 65.454545 771.966734 
L 67.210872 772.665461 
L 68.727273 773.24988 
L 72 773.333823 
L 75.272727 773.902229 
L 78.545455 774.609264 
L 81.818182 775.024529 
L 85.090909 775.432651 
L 86.446478 775.939467 
L 88.363636 777.123547 
L 91.636364 778.171923 
L 94.909091 779.08487 
L 95.203388 779.213473 
L 98.181818 780.764679 
L 101.454545 781.306441 
L 103.960297 782.48748 
L 104.727273 782.993599 
L 108 783.426003 
L 111.272727 784.396187 
L 114.545455 785.103441 
L 117.818182 785.488012 
L 119.19558 785.761486 
L 121.090909 786.417363 
L 124.363636 787.88817 
L 127.636364 788.695855 
L 128.771166 789.035492 
L 130.909091 790.136917 
L 134.181818 791.424496 
L 137.454545 792.153327 
L 137.938558 792.309498 
L 140.727273 793.809555 
L 144 794.940922 
L 147.153524 795.583504 
L 147.272727 795.628077 
L 150.545455 797.436988 
L 153.818182 798.436177 
L 156.219926 798.857511 
L 157.090909 799.151074 
L 160.363636 800.871242 
L 163.636364 801.747482 
L 166.733946 802.131517 
L 166.909091 802.178622 
L 170.181818 804.112572 
L 173.454545 804.531541 
L 176.727273 805.268885 
L 177.087014 805.405523 
L 180 806.708331 
L 183.272727 806.889795 
L 186.545455 807.718982 
L 189.818182 808.23443 
L 192.393964 808.679529 
L 193.090909 808.848894 
L 196.363636 809.755822 
L 199.636364 811.249346 
L 202.909091 811.871502 
L 203.657943 811.953535 
z
" clip-path="url(#paa8ae19a71)" style="fill: #dfecf7; fill-opacity: 0.9"/>
    <path d="M 199.636364 812.683812 
L 202.909091 813.459374 
L 206.181818 814.614207 
L 207.995114 815.227542 
L 209.454545 815.227542 
L 212.727273 815.227542 
L 216 815.227542 
L 216.088026 815.227542 
L 216 815.19885 
L 212.727273 814.554636 
L 209.454545 814.268759 
L 206.181818 812.595929 
L 203.657943 811.953535 
L 202.909091 811.871502 
L 199.636364 811.249346 
L 196.363636 809.755822 
L 193.090909 808.848894 
L 192.393964 808.679529 
L 189.818182 808.23443 
L 186.545455 807.718982 
L 183.272727 806.889795 
L 180 806.708331 
L 177.087014 805.405523 
L 176.727273 805.268885 
L 173.454545 804.531541 
L 170.181818 804.112572 
L 166.909091 802.178622 
L 166.733946 802.131517 
L 163.636364 801.747482 
L 160.363636 800.871242 
L 157.090909 799.151074 
L 156.219926 798.857511 
L 153.818182 798.436177 
L 150.545455 797.436988 
L 147.272727 795.628077 
L 147.153524 795.583504 
L 144 794.940922 
L 140.727273 793.809555 
L 137.938558 792.309498 
L 137.454545 792.153327 
L 134.181818 791.424496 
L 130.909091 790.136917 
L 128.771166 789.035492 
L 127.636364 788.695855 
L 124.363636 787.88817 
L 121.090909 786.417363 
L 119.19558 785.761486 
L 117.818182 785.488012 
L 114.545455 785.103441 
L 111.272727 784.396187 
L 108 783.426003 
L 104.727273 782.993599 
L 103.960297 782.48748 
L 101.454545 781.306441 
L 98.181818 780.764679 
L 95.203388 779.213473 
L 94.909091 779.08487 
L 91.636364 778.171923 
L 88.363636 777.123547 
L 86.446478 775.939467 
L 85.090909 775.432651 
L 81.818182 775.024529 
L 78.545455 774.609264 
L 75.272727 773.902229 
L 72 773.333823 
L 68.727273 773.24988 
L 67.210872 772.665461 
L 65.454545 771.966734 
L 62.181818 771.117787 
L 58.909091 770.610968 
L 56.280778 769.391455 
L 55.636364 769.169834 
L 52.363636 768.303965 
L 49.090909 767.585448 
L 45.818182 766.259906 
L 45.350265 766.117449 
L 42.545455 765.611473 
L 39.272727 765.257718 
L 36 764.463734 
L 32.727273 763.648984 
L 29.454545 763.200388 
L 28.85247 762.843442 
L 26.181818 761.68705 
L 22.909091 761.083649 
L 19.74548 759.569436 
L 19.636364 759.525986 
L 16.363636 758.593012 
L 13.090909 757.722523 
L 10.662925 756.29543 
L 9.818182 755.987946 
L 6.545455 755.290592 
L 3.272727 754.084167 
L 1.397014 753.021424 
L 0 752.581812 
L 0 753.021424 
L 0 753.549321 
L 3.272727 755.215609 
L 6.545455 756.037176 
L 7.937782 756.29543 
L 9.818182 757.035083 
L 13.090909 758.654369 
L 16.363636 759.235657 
L 17.534909 759.569436 
L 19.636364 760.773387 
L 22.909091 761.850111 
L 26.181818 762.380435 
L 27.251118 762.843442 
L 29.454545 764.149764 
L 32.727273 764.422201 
L 36 765.815218 
L 38.890265 766.117449 
L 39.272727 766.149758 
L 42.545455 766.380174 
L 45.818182 767.309838 
L 49.090909 768.346288 
L 52.363636 768.881571 
L 54.267696 769.391455 
L 55.636364 770.161926 
L 58.909091 771.429117 
L 62.181818 771.720561 
L 65.091368 772.665461 
L 65.454545 772.939794 
L 68.727273 774.091433 
L 72 774.17456 
L 75.272727 775.283339 
L 78.545455 775.576998 
L 81.818182 775.74267 
L 83.983454 775.939467 
L 85.090909 776.149879 
L 88.363636 778.097251 
L 91.636364 778.850078 
L 92.936199 779.213473 
L 94.909091 780.343672 
L 98.181818 781.58576 
L 101.454545 782.049511 
L 102.383761 782.48748 
L 104.727273 784.033938 
L 108 784.305091 
L 111.215059 785.761486 
L 111.272727 785.804676 
L 114.545455 786.172506 
L 117.818182 786.616217 
L 121.090909 787.631555 
L 124.363636 788.747447 
L 125.693727 789.035492 
L 127.636364 789.761659 
L 130.909091 791.282345 
L 134.181818 792.249321 
L 134.468483 792.309498 
L 137.454545 793.431172 
L 140.727273 794.894201 
L 143.22432 795.583504 
L 144 795.880396 
L 147.272727 797.097296 
L 150.545455 798.477559 
L 151.980157 798.857511 
L 153.818182 799.544898 
L 157.090909 800.672087 
L 160.363636 801.950752 
L 161.149526 802.131517 
L 163.636364 802.94108 
L 166.909091 803.950706 
L 170.181818 805.278591 
L 173.454545 805.344878 
L 173.715611 805.405523 
L 176.727273 807.15714 
L 180 807.85886 
L 183.272727 807.955747 
L 185.510858 808.679529 
L 186.545455 809.296387 
L 189.818182 809.672893 
L 193.090909 810.318087 
L 196.363636 811.379268 
L 197.88804 811.953535 
z
" clip-path="url(#paa8ae19a71)" style="fill: #dae8f6; fill-opacity: 0.9"/>
    <path d="M 196.363636 813.62677 
L 199.636364 814.483884 
L 202.909091 815.122253 
L 203.181954 815.227542 
L 206.181818 815.227542 
L 207.995114 815.227542 
L 206.181818 814.614207 
L 202.909091 813.459374 
L 199.636364 812.683812 
L 197.88804 811.953535 
L 196.363636 811.379268 
L 193.090909 810.318087 
L 189.818182 809.672893 
L 186.545455 809.296387 
L 185.510858 808.679529 
L 183.272727 807.955747 
L 180 807.85886 
L 176.727273 807.15714 
L 173.715611 805.405523 
L 173.454545 805.344878 
L 170.181818 805.278591 
L 166.909091 803.950706 
L 163.636364 802.94108 
L 161.149526 802.131517 
L 160.363636 801.950752 
L 157.090909 800.672087 
L 153.818182 799.544898 
L 151.980157 798.857511 
L 150.545455 798.477559 
L 147.272727 797.097296 
L 144 795.880396 
L 143.22432 795.583504 
L 140.727273 794.894201 
L 137.454545 793.431172 
L 134.468483 792.309498 
L 134.181818 792.249321 
L 130.909091 791.282345 
L 127.636364 789.761659 
L 125.693727 789.035492 
L 124.363636 788.747447 
L 121.090909 787.631555 
L 117.818182 786.616217 
L 114.545455 786.172506 
L 111.272727 785.804676 
L 111.215059 785.761486 
L 108 784.305091 
L 104.727273 784.033938 
L 102.383761 782.48748 
L 101.454545 782.049511 
L 98.181818 781.58576 
L 94.909091 780.343672 
L 92.936199 779.213473 
L 91.636364 778.850078 
L 88.363636 778.097251 
L 85.090909 776.149879 
L 83.983454 775.939467 
L 81.818182 775.74267 
L 78.545455 775.576998 
L 75.272727 775.283339 
L 72 774.17456 
L 68.727273 774.091433 
L 65.454545 772.939794 
L 65.091368 772.665461 
L 62.181818 771.720561 
L 58.909091 771.429117 
L 55.636364 770.161926 
L 54.267696 769.391455 
L 52.363636 768.881571 
L 49.090909 768.346288 
L 45.818182 767.309838 
L 42.545455 766.380174 
L 39.272727 766.149758 
L 38.890265 766.117449 
L 36 765.815218 
L 32.727273 764.422201 
L 29.454545 764.149764 
L 27.251118 762.843442 
L 26.181818 762.380435 
L 22.909091 761.850111 
L 19.636364 760.773387 
L 17.534909 759.569436 
L 16.363636 759.235657 
L 13.090909 758.654369 
L 9.818182 757.035083 
L 7.937782 756.29543 
L 6.545455 756.037176 
L 3.272727 755.215609 
L 0 753.549321 
L 0 755.30645 
L 3.027332 756.29543 
L 3.272727 756.392911 
L 6.545455 757.444743 
L 9.818182 758.618339 
L 12.995665 759.569436 
L 13.090909 759.602724 
L 16.363636 760.493432 
L 19.636364 762.065373 
L 22.909091 762.616573 
L 24.451022 762.843442 
L 26.181818 763.543117 
L 29.454545 765.09914 
L 32.727273 765.195417 
L 34.709464 766.117449 
L 36 767.085552 
L 39.272727 767.241579 
L 42.545455 767.787503 
L 45.818182 768.359769 
L 49.090909 769.107128 
L 51.582062 769.391455 
L 52.363636 769.59051 
L 55.636364 771.37615 
L 58.909091 772.247265 
L 62.181818 772.323335 
L 63.235298 772.665461 
L 65.454545 774.34181 
L 68.727273 774.932986 
L 72 775.015298 
L 74.214987 775.939467 
L 75.272727 776.67101 
L 78.545455 776.756507 
L 81.818182 776.942101 
L 85.090909 777.651111 
L 88.363636 779.070954 
L 89.148263 779.213473 
L 91.636364 780.01274 
L 94.909091 781.733271 
L 98.181818 782.406841 
L 98.813522 782.48748 
L 101.454545 783.483451 
L 104.727273 785.074277 
L 108 785.184178 
L 109.274433 785.761486 
L 111.272727 787.258091 
L 114.545455 787.462683 
L 117.818182 788.02333 
L 121.090909 788.845746 
L 121.713815 789.035492 
L 124.363636 790.101469 
L 127.636364 791.244859 
L 130.497506 792.309498 
L 130.909091 792.528467 
L 134.181818 793.751136 
L 137.454545 794.907124 
L 139.27742 795.583504 
L 140.727273 796.326362 
L 144 797.384298 
L 147.272727 798.566514 
L 148.050953 798.857511 
L 150.545455 800.096148 
L 153.818182 801.01435 
L 156.925431 802.131517 
L 157.090909 802.240391 
L 160.363636 803.631568 
L 163.636364 804.468919 
L 166.169331 805.405523 
L 166.909091 805.829436 
L 170.181818 806.949452 
L 173.454545 807.56986 
L 175.590835 808.679529 
L 176.727273 809.241513 
L 180 809.402426 
L 183.272727 810.165341 
L 186.545455 811.261688 
L 189.818182 811.403623 
L 193.090909 811.787281 
L 193.57857 811.953535 
z
" clip-path="url(#paa8ae19a71)" style="fill: #d6e5f4; fill-opacity: 0.9"/>
    <path d="M 183.272727 813.864809 
L 186.545455 814.366397 
L 189.818182 815.115032 
L 190.20962 815.227542 
L 193.090909 815.227542 
L 196.363636 815.227542 
L 199.636364 815.227542 
L 202.909091 815.227542 
L 203.181954 815.227542 
L 202.909091 815.122253 
L 199.636364 814.483884 
L 196.363636 813.62677 
L 193.57857 811.953535 
L 193.090909 811.787281 
L 189.818182 811.403623 
L 186.545455 811.261688 
L 183.272727 810.165341 
L 180 809.402426 
L 176.727273 809.241513 
L 175.590835 808.679529 
L 173.454545 807.56986 
L 170.181818 806.949452 
L 166.909091 805.829436 
L 166.169331 805.405523 
L 163.636364 804.468919 
L 160.363636 803.631568 
L 157.090909 802.240391 
L 156.925431 802.131517 
L 153.818182 801.01435 
L 150.545455 800.096148 
L 148.050953 798.857511 
L 147.272727 798.566514 
L 144 797.384298 
L 140.727273 796.326362 
L 139.27742 795.583504 
L 137.454545 794.907124 
L 134.181818 793.751136 
L 130.909091 792.528467 
L 130.497506 792.309498 
L 127.636364 791.244859 
L 124.363636 790.101469 
L 121.713815 789.035492 
L 121.090909 788.845746 
L 117.818182 788.02333 
L 114.545455 787.462683 
L 111.272727 787.258091 
L 109.274433 785.761486 
L 108 785.184178 
L 104.727273 785.074277 
L 101.454545 783.483451 
L 98.813522 782.48748 
L 98.181818 782.406841 
L 94.909091 781.733271 
L 91.636364 780.01274 
L 89.148263 779.213473 
L 88.363636 779.070954 
L 85.090909 777.651111 
L 81.818182 776.942101 
L 78.545455 776.756507 
L 75.272727 776.67101 
L 74.214987 775.939467 
L 72 775.015298 
L 68.727273 774.932986 
L 65.454545 774.34181 
L 63.235298 772.665461 
L 62.181818 772.323335 
L 58.909091 772.247265 
L 55.636364 771.37615 
L 52.363636 769.59051 
L 51.582062 769.391455 
L 49.090909 769.107128 
L 45.818182 768.359769 
L 42.545455 767.787503 
L 39.272727 767.241579 
L 36 767.085552 
L 34.709464 766.117449 
L 32.727273 765.195417 
L 29.454545 765.09914 
L 26.181818 763.543117 
L 24.451022 762.843442 
L 22.909091 762.616573 
L 19.636364 762.065373 
L 16.363636 760.493432 
L 13.090909 759.602724 
L 12.995665 759.569436 
L 9.818182 758.618339 
L 6.545455 757.444743 
L 3.272727 756.392911 
L 3.027332 756.29543 
L 0 755.30645 
L 0 756.29543 
L 0 757.587237 
L 3.272727 758.529536 
L 6.545455 759.201872 
L 7.670592 759.569436 
L 9.818182 760.519494 
L 13.090909 761.451405 
L 16.363636 762.415955 
L 17.537125 762.843442 
L 19.636364 763.691215 
L 22.909091 764.333757 
L 26.181818 765.648976 
L 29.454545 766.048516 
L 32.727273 765.968634 
L 33.047196 766.117449 
L 36 768.332511 
L 39.272727 768.3334 
L 42.545455 769.194832 
L 45.456142 769.391455 
L 45.818182 769.423726 
L 49.090909 770.329134 
L 52.363636 771.288285 
L 55.636364 772.590374 
L 56.003873 772.665461 
L 58.909091 773.470479 
L 62.181818 773.862801 
L 65.454545 775.743826 
L 68.727273 775.774539 
L 72 775.856036 
L 72.199963 775.939467 
L 75.272727 778.064618 
L 78.545455 778.06284 
L 81.818182 778.323211 
L 85.090909 779.152342 
L 85.239919 779.213473 
L 88.363636 780.625844 
L 91.636364 781.734771 
L 93.235873 782.48748 
L 94.909091 783.376098 
L 98.181818 784.188915 
L 101.231826 785.761486 
L 101.454545 785.904787 
L 104.727273 786.513013 
L 108 787.417219 
L 111.272727 788.711506 
L 114.545455 788.75286 
L 115.980059 789.035492 
L 117.818182 789.897592 
L 121.090909 790.931239 
L 124.363636 791.704967 
L 126.23534 792.309498 
L 127.636364 793.276142 
L 130.909091 794.649078 
L 134.181818 795.30623 
L 134.992238 795.583504 
L 137.454545 797.279133 
L 140.727273 798.364434 
L 143.74542 798.857511 
L 144 798.971619 
L 147.272727 801.228204 
L 150.545455 802.047183 
L 151.045391 802.131517 
L 153.818182 803.419793 
L 157.090909 804.929429 
L 160.101277 805.405523 
L 160.363636 805.489149 
L 163.636364 807.023262 
L 166.909091 808.197191 
L 170.159229 808.679529 
L 170.181818 808.687045 
L 173.454545 810.493752 
L 176.727273 811.468013 
L 180 811.92384 
L 180.061626 811.953535 
z
" clip-path="url(#paa8ae19a71)" style="fill: #d0e2f2; fill-opacity: 0.9"/>
    <path d="M 163.636364 812.779734 
L 166.909091 813.66308 
L 170.181818 815.121578 
L 170.532435 815.227542 
L 173.454545 815.227542 
L 176.727273 815.227542 
L 180 815.227542 
L 183.272727 815.227542 
L 186.545455 815.227542 
L 189.818182 815.227542 
L 190.20962 815.227542 
L 189.818182 815.115032 
L 186.545455 814.366397 
L 183.272727 813.864809 
L 180.061626 811.953535 
L 180 811.92384 
L 176.727273 811.468013 
L 173.454545 810.493752 
L 170.181818 808.687045 
L 170.159229 808.679529 
L 166.909091 808.197191 
L 163.636364 807.023262 
L 160.363636 805.489149 
L 160.101277 805.405523 
L 157.090909 804.929429 
L 153.818182 803.419793 
L 151.045391 802.131517 
L 150.545455 802.047183 
L 147.272727 801.228204 
L 144 798.971619 
L 143.74542 798.857511 
L 140.727273 798.364434 
L 137.454545 797.279133 
L 134.992238 795.583504 
L 134.181818 795.30623 
L 130.909091 794.649078 
L 127.636364 793.276142 
L 126.23534 792.309498 
L 124.363636 791.704967 
L 121.090909 790.931239 
L 117.818182 789.897592 
L 115.980059 789.035492 
L 114.545455 788.75286 
L 111.272727 788.711506 
L 108 787.417219 
L 104.727273 786.513013 
L 101.454545 785.904787 
L 101.231826 785.761486 
L 98.181818 784.188915 
L 94.909091 783.376098 
L 93.235873 782.48748 
L 91.636364 781.734771 
L 88.363636 780.625844 
L 85.239919 779.213473 
L 85.090909 779.152342 
L 81.818182 778.323211 
L 78.545455 778.06284 
L 75.272727 778.064618 
L 72.199963 775.939467 
L 72 775.856036 
L 68.727273 775.774539 
L 65.454545 775.743826 
L 62.181818 773.862801 
L 58.909091 773.470479 
L 56.003873 772.665461 
L 55.636364 772.590374 
L 52.363636 771.288285 
L 49.090909 770.329134 
L 45.818182 769.423726 
L 45.456142 769.391455 
L 42.545455 769.194832 
L 39.272727 768.3334 
L 36 768.332511 
L 33.047196 766.117449 
L 32.727273 765.968634 
L 29.454545 766.048516 
L 26.181818 765.648976 
L 22.909091 764.333757 
L 19.636364 763.691215 
L 17.537125 762.843442 
L 16.363636 762.415955 
L 13.090909 761.451405 
L 9.818182 760.519494 
L 7.670592 759.569436 
L 6.545455 759.201872 
L 3.272727 758.529536 
L 0 757.587237 
L 0 759.569436 
L 0 760.619352 
L 3.272727 761.508599 
L 6.545455 762.266299 
L 9.421811 762.843442 
L 9.818182 762.934074 
L 13.090909 763.832935 
L 16.363636 765.174939 
L 19.636364 765.822516 
L 21.167466 766.117449 
L 22.909091 766.75412 
L 26.181818 768.07368 
L 29.454545 768.301486 
L 31.897099 769.391455 
L 32.727273 769.874373 
L 36 769.867042 
L 39.272727 769.580039 
L 42.545455 771.286716 
L 45.818182 771.280723 
L 49.090909 771.826308 
L 51.53889 772.665461 
L 52.363636 773.233911 
L 55.636364 774.490732 
L 58.909091 775.117235 
L 61.089832 775.939467 
L 62.181818 776.65402 
L 65.454545 777.678572 
L 68.727273 778.058691 
L 70.866753 779.213473 
L 72 779.878536 
L 75.272727 779.818835 
L 78.545455 779.970427 
L 81.818182 780.653252 
L 85.090909 781.696342 
L 88.363636 782.280387 
L 88.958981 782.48748 
L 91.636364 784.381522 
L 94.909091 785.319503 
L 96.798491 785.761486 
L 98.181818 786.56192 
L 101.454545 788.259253 
L 104.727273 788.727048 
L 105.294502 789.035492 
L 108 791.019671 
L 111.272727 791.533071 
L 113.020082 792.309498 
L 114.545455 793.236144 
L 117.818182 793.568145 
L 121.090909 794.745081 
L 122.979815 795.583504 
L 124.363636 796.211116 
L 127.636364 797.597927 
L 130.411881 798.857511 
L 130.909091 799.09013 
L 134.181818 800.477483 
L 137.454545 801.918796 
L 137.923415 802.131517 
L 140.727273 803.36969 
L 144 804.766564 
L 145.434146 805.405523 
L 147.272727 806.223977 
L 150.545455 807.631298 
L 153.018602 808.679529 
L 153.818182 809.081252 
L 157.090909 810.241243 
L 160.363636 811.405064 
L 161.655265 811.953535 
z
" clip-path="url(#paa8ae19a71)" style="fill: #cbdef1; fill-opacity: 0.9"/>
    <path d="M 3.272727 815.227542 
L 6.545455 815.227542 
L 9.818182 815.227542 
L 13.090909 815.227542 
L 16.363636 815.227542 
L 19.636364 815.227542 
L 22.909091 815.227542 
L 26.181818 815.227542 
L 29.454545 815.227542 
L 32.727273 815.227542 
L 36 815.227542 
L 39.272727 815.227542 
L 42.545455 815.227542 
L 45.818182 815.227542 
L 49.090909 815.227542 
L 52.363636 815.227542 
L 55.636364 815.227542 
L 58.909091 815.227542 
L 62.16739 815.227542 
L 58.909091 814.190957 
L 55.636364 813.36625 
L 52.363636 812.274579 
L 51.904728 811.953535 
L 49.090909 811.319118 
L 45.818182 811.410652 
L 42.545455 810.112229 
L 39.272727 809.53308 
L 36 808.820719 
L 34.871187 808.679529 
L 32.727273 808.12046 
L 29.454545 806.551153 
L 26.181818 805.792112 
L 25.022719 805.405523 
L 22.909091 804.364956 
L 19.636364 803.169088 
L 16.363636 802.151372 
L 16.323509 802.131517 
L 13.090909 800.643679 
L 9.818182 799.741009 
L 8.029052 798.857511 
L 6.545455 798.239618 
L 3.272727 797.741931 
L 0 796.221221 
L 0 798.857511 
L 0 802.131517 
L 0 805.405523 
L 0 808.679529 
L 0 811.953535 
L 0 815.227542 
z
M 134.181818 814.058334 
L 137.454545 815.213894 
L 137.479228 815.227542 
L 140.727273 815.227542 
L 144 815.227542 
L 147.272727 815.227542 
L 150.545455 815.227542 
L 153.818182 815.227542 
L 157.090909 815.227542 
L 160.363636 815.227542 
L 163.636364 815.227542 
L 166.909091 815.227542 
L 170.181818 815.227542 
L 170.532435 815.227542 
L 170.181818 815.121578 
L 166.909091 813.66308 
L 163.636364 812.779734 
L 161.655265 811.953535 
L 160.363636 811.405064 
L 157.090909 810.241243 
L 153.818182 809.081252 
L 153.018602 808.679529 
L 150.545455 807.631298 
L 147.272727 806.223977 
L 145.434146 805.405523 
L 144 804.766564 
L 140.727273 803.36969 
L 137.923415 802.131517 
L 137.454545 801.918796 
L 134.181818 800.477483 
L 130.909091 799.09013 
L 130.411881 798.857511 
L 127.636364 797.597927 
L 124.363636 796.211116 
L 122.979815 795.583504 
L 121.090909 794.745081 
L 117.818182 793.568145 
L 114.545455 793.236144 
L 113.020082 792.309498 
L 111.272727 791.533071 
L 108 791.019671 
L 105.294502 789.035492 
L 104.727273 788.727048 
L 101.454545 788.259253 
L 98.181818 786.56192 
L 96.798491 785.761486 
L 94.909091 785.319503 
L 91.636364 784.381522 
L 88.958981 782.48748 
L 88.363636 782.280387 
L 85.090909 781.696342 
L 81.818182 780.653252 
L 78.545455 779.970427 
L 75.272727 779.818835 
L 72 779.878536 
L 70.866753 779.213473 
L 68.727273 778.058691 
L 65.454545 777.678572 
L 62.181818 776.65402 
L 61.089832 775.939467 
L 58.909091 775.117235 
L 55.636364 774.490732 
L 52.363636 773.233911 
L 51.53889 772.665461 
L 49.090909 771.826308 
L 45.818182 771.280723 
L 42.545455 771.286716 
L 39.272727 769.580039 
L 36 769.867042 
L 32.727273 769.874373 
L 31.897099 769.391455 
L 29.454545 768.301486 
L 26.181818 768.07368 
L 22.909091 766.75412 
L 21.167466 766.117449 
L 19.636364 765.822516 
L 16.363636 765.174939 
L 13.090909 763.832935 
L 9.818182 762.934074 
L 9.421811 762.843442 
L 6.545455 762.266299 
L 3.272727 761.508599 
L 0 760.619352 
L 0 762.843442 
L 0 764.293401 
L 3.272727 765.356888 
L 6.545455 766.076024 
L 6.727409 766.117449 
L 9.818182 767.059117 
L 13.090909 768.503023 
L 16.165295 769.391455 
L 16.363636 769.453893 
L 19.636364 770.290301 
L 22.909091 771.633354 
L 26.181818 771.551313 
L 29.32323 772.665461 
L 29.454545 772.764064 
L 32.727273 773.179579 
L 36 773.504349 
L 39.272727 774.716533 
L 42.545455 774.559542 
L 45.818182 774.431375 
L 49.090909 775.557933 
L 50.282614 775.939467 
L 52.363636 776.843877 
L 55.636364 777.733476 
L 58.909091 778.908322 
L 59.989367 779.213473 
L 62.181818 780.103436 
L 65.454545 780.984502 
L 68.727273 782.237344 
L 69.844694 782.48748 
L 72 783.251857 
L 75.272727 784.233216 
L 78.545455 785.45978 
L 79.949702 785.761486 
L 81.818182 786.456903 
L 85.090909 788.004292 
L 87.103366 789.035492 
L 88.363636 789.817054 
L 91.636364 791.154685 
L 93.709349 792.309498 
L 94.909091 793.223811 
L 98.181818 794.314429 
L 100.283783 795.583504 
L 101.454545 796.70937 
L 104.727273 797.885453 
L 106.396273 798.857511 
L 108 800.373516 
L 111.272727 801.845217 
L 111.809718 802.131517 
L 114.545455 804.60754 
L 116.058835 805.405523 
L 117.818182 806.366493 
L 121.090909 807.882797 
L 123.336742 808.679529 
L 124.363636 809.107911 
L 127.636364 810.936121 
L 130.909091 811.904132 
L 130.999815 811.953535 
z
" clip-path="url(#paa8ae19a71)" style="fill: #c6dbef; fill-opacity: 0.9"/>
    <path d="M 52.363636 812.274579 
L 55.636364 813.36625 
L 58.909091 814.190957 
L 62.16739 815.227542 
L 62.181818 815.227542 
L 65.454545 815.227542 
L 68.727273 815.227542 
L 72 815.227542 
L 75.272727 815.227542 
L 78.545455 815.227542 
L 81.818182 815.227542 
L 85.090909 815.227542 
L 88.363636 815.227542 
L 91.636364 815.227542 
L 94.909091 815.227542 
L 98.181818 815.227542 
L 101.454545 815.227542 
L 104.727273 815.227542 
L 108 815.227542 
L 111.272727 815.227542 
L 114.545455 815.227542 
L 117.818182 815.227542 
L 121.090909 815.227542 
L 124.363636 815.227542 
L 127.636364 815.227542 
L 130.909091 815.227542 
L 134.181818 815.227542 
L 137.454545 815.227542 
L 137.479228 815.227542 
L 137.454545 815.213894 
L 134.181818 814.058334 
L 130.999815 811.953535 
L 130.909091 811.904132 
L 127.636364 810.936121 
L 124.363636 809.107911 
L 123.336742 808.679529 
L 121.090909 807.882797 
L 117.818182 806.366493 
L 116.058835 805.405523 
L 114.545455 804.60754 
L 111.809718 802.131517 
L 111.272727 801.845217 
L 108 800.373516 
L 106.396273 798.857511 
L 104.727273 797.885453 
L 101.454545 796.70937 
L 100.283783 795.583504 
L 98.181818 794.314429 
L 94.909091 793.223811 
L 93.709349 792.309498 
L 91.636364 791.154685 
L 88.363636 789.817054 
L 87.103366 789.035492 
L 85.090909 788.004292 
L 81.818182 786.456903 
L 79.949702 785.761486 
L 78.545455 785.45978 
L 75.272727 784.233216 
L 72 783.251857 
L 69.844694 782.48748 
L 68.727273 782.237344 
L 65.454545 780.984502 
L 62.181818 780.103436 
L 59.989367 779.213473 
L 58.909091 778.908322 
L 55.636364 777.733476 
L 52.363636 776.843877 
L 50.282614 775.939467 
L 49.090909 775.557933 
L 45.818182 774.431375 
L 42.545455 774.559542 
L 39.272727 774.716533 
L 36 773.504349 
L 32.727273 773.179579 
L 29.454545 772.764064 
L 29.32323 772.665461 
L 26.181818 771.551313 
L 22.909091 771.633354 
L 19.636364 770.290301 
L 16.363636 769.453893 
L 16.165295 769.391455 
L 13.090909 768.503023 
L 9.818182 767.059117 
L 6.727409 766.117449 
L 6.545455 766.076024 
L 3.272727 765.356888 
L 0 764.293401 
L 0 766.117449 
L 0 769.391455 
L 0 772.665461 
L 0 775.939467 
L 0 779.213473 
L 0 782.48748 
L 0 785.761486 
L 0 789.035492 
L 0 792.309498 
L 0 795.583504 
L 0 796.221221 
L 3.272727 797.741931 
L 6.545455 798.239618 
L 8.029052 798.857511 
L 9.818182 799.741009 
L 13.090909 800.643679 
L 16.323509 802.131517 
L 16.363636 802.151372 
L 19.636364 803.169088 
L 22.909091 804.364956 
L 25.022719 805.405523 
L 26.181818 805.792112 
L 29.454545 806.551153 
L 32.727273 808.12046 
L 34.871187 808.679529 
L 36 808.820719 
L 39.272727 809.53308 
L 42.545455 810.112229 
L 45.818182 811.410652 
L 49.090909 811.319118 
L 51.904728 811.953535 
z
" clip-path="url(#paa8ae19a71)" style="fill: #bed8ec; fill-opacity: 0.9"/>
    <path clip-path="url(#paa8ae19a71)" style="fill: #b5d4e9; fill-opacity: 0.9"/>
    <path clip-path="url(#paa8ae19a71)" style="fill: #add0e6; fill-opacity: 0.9"/>
    <path clip-path="url(#paa8ae19a71)" style="fill: #a5cde3; fill-opacity: 0.9"/>
    <path clip-path="url(#paa8ae19a71)" style="fill: #9cc9e1; fill-opacity: 0.9"/>
    <path clip-path="url(#paa8ae19a71)" style="fill: #91c3de; fill-opacity: 0.9"/>
    <path clip-path="url(#paa8ae19a71)" style="fill: #85bcdc; fill-opacity: 0.9"/>
    <path clip-path="url(#paa8ae19a71)" style="fill: #7cb7da; fill-opacity: 0.9"/>
    <path clip-path="url(#paa8ae19a71)" style="fill: #71b1d7; fill-opacity: 0.9"/>
    <path clip-path="url(#paa8ae19a71)" style="fill: #66abd4; fill-opacity: 0.9"/>
    <path clip-path="url(#paa8ae19a71)" style="fill: #5da5d1; fill-opacity: 0.9"/>
    <path clip-path="url(#paa8ae19a71)" style="fill: #56a0ce; fill-opacity: 0.9"/>
    <path clip-path="url(#paa8ae19a71)" style="fill: #4d99ca; fill-opacity: 0.9"/>
    <path clip-path="url(#paa8ae19a71)" style="fill: #4493c7; fill-opacity: 0.9"/>
    <path clip-path="url(#paa8ae19a71)" style="fill: #3c8cc3; fill-opacity: 0.9"/>
    <path clip-path="url(#paa8ae19a71)" style="fill: #3686c0; fill-opacity: 0.9"/>
    <path clip-path="url(#paa8ae19a71)" style="fill: #2f7fbc; fill-opacity: 0.9"/>
    <path clip-path="url(#paa8ae19a71)" style="fill: #2777b8; fill-opacity: 0.9"/>
    <path clip-path="url(#paa8ae19a71)" style="fill: #2070b4; fill-opacity: 0.9"/>
    <path clip-path="url(#paa8ae19a71)" style="fill: #1c6ab0; fill-opacity: 0.9"/>
    <path clip-path="url(#paa8ae19a71)" style="fill: #1663aa; fill-opacity: 0.9"/>
    <path clip-path="url(#paa8ae19a71)" style="fill: #115ca5; fill-opacity: 0.9"/>
    <path clip-path="url(#paa8ae19a71)" style="fill: #0c56a0; fill-opacity: 0.9"/>
    <path clip-path="url(#paa8ae19a71)" style="fill: #084f99; fill-opacity: 0.9"/>
    <path clip-path="url(#paa8ae19a71)" style="fill: #08488e; fill-opacity: 0.9"/>
    <path clip-path="url(#paa8ae19a71)" style="fill: #084184; fill-opacity: 0.9"/>
    <path clip-path="url(#paa8ae19a71)" style="fill: #083a7a; fill-opacity: 0.9"/>
    <path clip-path="url(#paa8ae19a71)" style="fill: #083370; fill-opacity: 0.9"/>
    <path clip-path="url(#paa8ae19a71)" style="fill: #08306b; fill-opacity: 0.9"/>
   </g>
   <g id="QuadContourSet_2">
    <path d="M 234.806674 815.227542 
L 232.363636 814.17116 
L 229.090909 813.265664 
L 225.818182 812.465391 
L 223.758388 811.953535 
L 222.545455 811.494116 
L 219.272727 810.724768 
L 216 810.315346 
L 212.727273 809.661651 
L 209.637605 808.679529 
L 209.454545 808.601126 
L 206.181818 808.095417 
L 202.909091 807.49492 
L 199.636364 806.437248 
L 196.363636 805.759168 
L 195.222201 805.405523 
L 193.090909 804.446905 
L 189.818182 803.801055 
L 186.545455 803.109042 
L 183.272727 802.315299 
L 182.692596 802.131517 
L 180 801.159297 
L 176.727273 800.719011 
L 173.454545 800.24704 
L 170.181818 799.130781 
L 168.330062 798.857511 
L 166.909091 798.563682 
L 163.636364 797.595058 
L 160.363636 796.688556 
L 157.090909 795.8214 
L 156.395754 795.583504 
L 153.818182 794.350473 
L 152.942614 794.132881 
M 135.027858 787.798142 
L 134.181818 787.462765 
L 130.909091 786.55761 
L 128.659643 785.761486 
L 127.636364 785.076414 
L 124.363636 784.031255 
L 121.090909 783.04895 
L 119.22131 782.48748 
L 117.818182 781.69047 
L 114.545455 780.811309 
L 111.272727 780.200033 
L 108.054993 779.213473 
L 108 779.171655 
L 104.727273 777.787687 
L 101.454545 777.559094 
L 98.181818 776.497465 
L 96.233275 775.939467 
L 94.909091 775.36967 
L 91.636364 774.455409 
L 88.363636 773.509681 
L 85.707695 772.665461 
L 85.090909 772.250316 
L 81.818182 771.187438 
L 78.545455 770.728424 
L 75.272727 770.256364 
L 72 769.538146 
L 71.494245 769.391455 
L 68.727273 768.28248 
L 65.454545 767.771768 
L 62.181818 767.71932 
L 58.909091 766.745598 
L 55.636364 766.137766 
L 55.548504 766.117449 
L 52.363636 764.915366 
L 49.090909 764.158235 
L 45.818182 763.479867 
L 43.590492 762.843442 
L 42.545455 762.173562 
L 39.272727 761.143971 
L 36 760.712438 
L 32.727273 759.810402 
L 32.130421 759.569436 
L 29.454545 758.274528 
L 26.181818 758.037375 
L 22.909091 757.214046 
L 19.636364 756.337666 
L 19.490982 756.29543 
L 16.363636 755.027318 
L 13.090909 754.248191 
L 9.818182 753.102543 
L 9.599238 753.021424 
L 6.545455 751.513029 
L 3.272727 750.677628 
L 0.762498 749.747418 
L 0 749.172041 
" clip-path="url(#paa8ae19a71)" style="fill: none"/>
    <path d="M 232.621744 815.227542 
L 232.363636 815.115934 
L 229.090909 814.015619 
L 225.818182 813.251225 
L 222.545455 812.547746 
L 220.596057 811.953535 
L 219.272727 811.591033 
L 216 811.128403 
L 212.727273 810.66687 
L 209.454545 809.668788 
L 206.181818 809.060776 
L 204.222658 808.679529 
L 202.909091 808.388741 
L 199.636364 807.229243 
L 196.363636 806.432523 
L 193.090909 805.421748 
L 193.04263 805.405523 
L 189.818182 804.50102 
L 186.545455 803.795075 
L 183.272727 803.171895 
L 180 802.136308 
L 179.982661 802.131517 
L 176.727273 801.508526 
L 173.454545 801.166672 
L 170.181818 800.039817 
L 166.909091 799.388587 
L 164.864611 798.857511 
L 163.636364 798.458464 
L 160.363636 797.380499 
L 157.090909 796.453003 
L 154.550146 795.583504 
L 153.818182 795.233355 
L 150.545455 794.172904 
L 147.272727 793.024341 
L 145.281211 792.309498 
L 144 791.726639 
L 140.727273 790.671636 
L 137.454545 789.550837 
L 136.087105 789.035492 
L 134.181818 788.210393 
L 130.909091 787.171188 
L 127.636364 786.03415 
L 126.94325 785.761486 
L 124.363636 784.716486 
L 121.090909 783.657166 
L 117.818182 782.701475 
L 117.189175 782.48748 
L 114.545455 781.54291 
L 111.272727 780.827844 
L 108 780.029259 
L 106.007343 779.213473 
L 104.727273 778.665018 
L 101.454545 778.316818 
L 98.181818 777.370562 
L 94.909091 776.329178 
L 93.455623 775.939467 
L 91.636364 775.324273 
L 88.363636 774.151812 
L 85.090909 773.07493 
L 83.478167 772.665461 
L 81.818182 772.049241 
L 78.545455 771.375962 
L 75.272727 770.843303 
L 72 770.281854 
L 68.930119 769.391455 
L 68.727273 769.310156 
L 65.454545 768.567486 
L 62.181818 768.502147 
L 58.909091 767.499527 
L 55.636364 766.74418 
L 52.926171 766.117449 
L 52.363636 765.905128 
L 50.919351 765.415792 
M 32.44185 760.461438 
L 30.23244 759.569436 
L 29.454545 759.192998 
L 26.181818 758.824671 
L 22.909091 757.992839 
L 19.636364 756.97533 
L 17.296052 756.29543 
L 16.363636 755.917343 
L 13.090909 754.838423 
L 9.818182 753.679623 
L 8.041662 753.021424 
L 6.545455 752.282382 
L 3.272727 751.254816 
L 0 750.068192 
" clip-path="url(#paa8ae19a71)" style="fill: none"/>
    <path d="M 230.436815 815.227542 
L 229.090909 814.765573 
L 225.818182 814.037059 
L 225.442178 813.976698 
M 206.740506 809.995404 
L 206.181818 809.846487 
L 202.909091 809.265575 
L 201.442806 808.679529 
L 199.636364 808.021237 
L 196.363636 807.105877 
L 193.090909 806.260362 
L 190.547332 805.405523 
L 189.818182 805.200986 
L 186.545455 804.481108 
L 183.272727 804.028491 
L 180 803.276343 
L 176.727273 802.337605 
L 174.073181 802.131517 
L 173.454545 802.086305 
L 170.181818 800.948852 
L 166.909091 800.078907 
L 163.636364 799.296846 
L 162.583902 798.857511 
L 160.363636 798.072442 
L 157.090909 797.084605 
L 153.818182 796.061194 
L 152.734443 795.583504 
L 150.545455 794.808659 
L 147.272727 793.669021 
L 144 792.539001 
L 143.507198 792.309498 
L 140.727273 791.297489 
L 137.454545 790.20146 
L 134.360714 789.035492 
L 134.181818 788.95802 
L 130.909091 787.784765 
L 127.636364 786.699577 
L 125.251736 785.761486 
L 124.363636 785.401717 
L 121.090909 784.265382 
L 117.818182 783.398109 
L 115.141526 782.48748 
L 114.545455 782.27451 
L 111.272727 781.455654 
L 108 780.867559 
L 104.727273 779.638382 
L 102.529525 779.213473 
L 101.454545 779.074542 
L 98.181818 778.243659 
L 94.909091 777.018101 
L 91.636364 776.137458 
L 91.176086 775.939467 
L 88.363636 774.793943 
L 85.090909 773.66436 
L 81.818182 772.870106 
L 81.087495 772.665461 
L 78.545455 772.0235 
L 75.272727 771.430242 
L 72 771.025562 
L 68.727273 770.325922 
L 65.576036 769.391455 
L 65.454545 769.363204 
L 62.181818 769.284974 
L 58.909091 768.253457 
L 55.636364 767.350593 
L 52.363636 766.571148 
L 50.978605 766.117449 
L 49.090909 765.434365 
L 45.818182 764.564328 
L 42.545455 763.745131 
L 39.79453 762.843442 
L 39.272727 762.638061 
L 36 761.833694 
L 32.727273 761.34294 
L 29.454545 760.170569 
L 26.181818 759.606894 
L 26.017881 759.569436 
L 22.909091 758.771631 
L 19.636364 757.612994 
L 16.363636 756.665077 
L 15.442545 756.29543 
L 13.090909 755.428656 
L 9.818182 754.256704 
L 6.545455 753.050839 
L 6.484056 753.021424 
L 3.272727 751.832003 
L 0 750.696597 
" clip-path="url(#paa8ae19a71)" style="fill: none"/>
    <path d="M 227.69287 815.227542 
L 225.818182 814.822893 
L 222.545455 814.475614 
L 219.272727 813.92479 
L 216 813.024543 
L 212.727273 812.642073 
L 210.096984 811.953535 
L 209.454545 811.768873 
L 206.181818 810.632197 
L 202.909091 810.134217 
L 199.636364 808.879561 
L 199.269464 808.679529 
L 196.363636 807.779232 
L 193.090909 807.098975 
L 189.818182 806.144972 
L 187.623098 805.405523 
L 186.545455 805.167141 
L 183.272727 804.885088 
L 180 804.416378 
L 176.727273 803.314698 
L 173.454545 802.904868 
L 170.968753 802.131517 
L 170.181818 801.857888 
L 166.909091 800.769227 
L 163.636364 800.113725 
L 160.627008 798.857511 
L 160.363636 798.764385 
L 157.090909 797.716208 
L 153.818182 796.852855 
L 150.938395 795.583504 
L 150.545455 795.444413 
L 147.272727 794.313702 
L 144 793.339642 
L 141.788019 792.309498 
L 140.727273 791.923342 
L 137.454545 790.852082 
L 134.181818 789.774845 
L 132.665586 789.035492 
L 130.909091 788.398343 
L 127.636364 787.365003 
L 124.363636 786.169615 
L 123.560222 785.761486 
L 121.090909 784.873598 
L 117.818182 784.094744 
L 114.545455 783.172058 
L 112.829996 782.48748 
L 111.272727 782.083465 
L 108 781.705858 
L 104.727273 780.771897 
L 101.454545 779.820299 
L 98.572728 779.213473 
L 98.181818 779.116756 
L 94.909091 777.707024 
L 91.636364 776.815613 
L 89.59955 775.939467 
L 88.363636 775.436073 
L 85.090909 774.25379 
L 81.818182 773.588247 
L 78.545455 772.673796 
L 78.52013 772.665461 
L 75.272727 772.017181 
L 72 771.769271 
L 68.727273 771.340666 
L 65.454545 770.22932 
L 62.181818 769.912239 
L 60.123014 769.391455 
L 58.909091 769.007386 
L 55.636364 767.957007 
L 52.363636 767.148754 
L 49.215319 766.117449 
L 49.090909 766.07243 
L 45.818182 765.106559 
L 42.545455 764.367245 
L 39.272727 763.485821 
L 37.71788 762.843442 
L 36 762.394322 
L 32.727273 762.109209 
L 29.454545 761.189187 
L 26.181818 760.300279 
L 22.983175 759.569436 
L 22.909091 759.550424 
L 19.636364 758.250658 
L 18.851679 758.024575 
M 0.80826 751.592762 
L 0 751.325002 
" clip-path="url(#paa8ae19a71)" style="fill: none"/>
    <path d="M 219.830593 815.227542 
L 219.272727 815.17121 
L 216 814.111697 
L 212.727273 813.598354 
L 209.454545 812.999544 
L 207.66341 811.953535 
L 206.181818 811.417907 
L 202.909091 811.00286 
L 199.636364 810.064453 
L 197.096122 808.679529 
L 196.363636 808.452587 
L 193.090909 807.937589 
L 189.818182 807.189701 
L 186.545455 806.319025 
L 183.272727 805.823843 
L 180 805.557802 
L 179.659515 805.405523 
L 176.727273 804.291792 
L 173.454545 803.718205 
L 170.181818 802.946553 
L 168.813967 802.131517 
L 166.909091 801.459547 
L 163.636364 800.930603 
L 160.363636 799.791733 
L 158.670113 798.857511 
L 157.090909 798.347811 
L 153.818182 797.644516 
L 150.545455 796.396418 
L 149.085209 795.583504 
L 147.272727 794.958382 
L 144 794.140282 
L 140.727273 792.724909 
L 139.954994 792.309498 
L 137.454545 791.502704 
L 134.181818 790.599671 
L 130.974072 789.035492 
L 130.909091 789.011921 
L 127.636364 788.030429 
L 124.363636 787.028892 
L 121.868707 785.761486 
L 121.090909 785.481814 
L 117.818182 784.791378 
L 114.545455 784.137749 
L 111.272727 782.989075 
L 108 782.546916 
L 107.619228 782.48748 
L 104.727273 781.905413 
L 101.454545 780.56337 
L 98.181818 779.943599 
L 96.779924 779.213473 
L 94.909091 778.395947 
L 91.636364 777.493768 
L 88.363636 776.149843 
L 88.023014 775.939467 
L 85.090909 774.843221 
L 81.818182 774.306388 
L 78.545455 773.64153 
L 75.580004 772.665461 
L 75.272727 772.604119 
L 72 772.512979 
L 68.727273 772.355409 
L 65.454545 771.098027 
L 64.816098 770.984292 
M 46.515551 765.856043 
L 45.818182 765.648789 
L 42.545455 764.989359 
L 39.272727 764.371769 
L 36 763.11225 
L 32.727273 762.875768 
L 32.521782 762.843442 
L 29.454545 762.207804 
L 26.181818 760.993665 
L 22.909091 760.317187 
L 21.346832 759.569436 
L 19.636364 758.888322 
L 16.363636 757.950367 
L 13.090909 756.790677 
L 12.248321 756.29543 
L 9.818182 755.410865 
L 6.545455 754.544007 
L 3.367348 753.021424 
L 3.272727 752.986378 
L 0 751.953407 
" clip-path="url(#paa8ae19a71)" style="fill: none"/>
    <path d="M 216.088026 815.227542 
L 216 815.19885 
L 212.727273 814.554636 
L 209.454545 814.268759 
L 206.181818 812.595929 
L 203.657943 811.953535 
L 202.909091 811.871502 
L 199.636364 811.249346 
L 196.363636 809.755822 
L 193.090909 808.848894 
L 192.393964 808.679529 
L 189.818182 808.23443 
L 186.545455 807.718982 
L 183.272727 806.889795 
L 180 806.708331 
L 177.087014 805.405523 
L 176.727273 805.268885 
L 173.454545 804.531541 
L 170.181818 804.112572 
L 166.909091 802.178622 
L 166.733946 802.131517 
L 163.636364 801.747482 
L 160.363636 800.871242 
L 157.090909 799.151074 
L 156.219926 798.857511 
L 153.818182 798.436177 
L 150.545455 797.436988 
L 147.272727 795.628077 
L 147.153524 795.583504 
L 144 794.940922 
L 140.727273 793.809555 
L 137.938558 792.309498 
L 137.697478 792.231711 
M 119.781315 785.964179 
L 119.19558 785.761486 
L 117.818182 785.488012 
L 114.545455 785.103441 
L 111.272727 784.396187 
L 108 783.426003 
L 104.727273 782.993599 
L 103.960297 782.48748 
L 101.454545 781.306441 
L 98.181818 780.764679 
L 95.203388 779.213473 
L 94.909091 779.08487 
L 91.636364 778.171923 
L 88.363636 777.123547 
L 86.446478 775.939467 
L 85.090909 775.432651 
L 81.818182 775.024529 
L 78.545455 774.609264 
L 75.272727 773.902229 
L 72 773.333823 
L 68.727273 773.24988 
L 67.210872 772.665461 
L 65.454545 771.966734 
L 62.181818 771.117787 
L 58.909091 770.610968 
L 56.280778 769.391455 
L 55.636364 769.169834 
L 52.363636 768.303965 
L 49.090909 767.585448 
L 45.818182 766.259906 
L 45.350265 766.117449 
L 42.545455 765.611473 
L 39.272727 765.257718 
L 36 764.463734 
L 32.727273 763.648984 
L 29.454545 763.200388 
L 28.85247 762.843442 
L 26.181818 761.68705 
L 22.909091 761.083649 
L 19.74548 759.569436 
L 19.636364 759.525986 
L 16.363636 758.593012 
L 13.090909 757.722523 
L 10.662925 756.29543 
L 9.818182 755.987946 
L 6.545455 755.290592 
L 3.272727 754.084167 
L 1.397014 753.021424 
L 0 752.581812 
" clip-path="url(#paa8ae19a71)" style="fill: none"/>
    <path d="M 207.995114 815.227542 
L 206.181818 814.614207 
L 205.400211 814.338404 
M 187.086669 809.35865 
L 186.545455 809.296387 
L 185.510858 808.679529 
L 183.272727 807.955747 
L 180 807.85886 
L 176.727273 807.15714 
L 173.715611 805.405523 
L 173.454545 805.344878 
L 170.181818 805.278591 
L 166.909091 803.950706 
L 163.636364 802.94108 
L 161.149526 802.131517 
L 160.363636 801.950752 
L 157.090909 800.672087 
L 153.818182 799.544898 
L 151.980157 798.857511 
L 150.545455 798.477559 
L 147.272727 797.097296 
L 144 795.880396 
L 143.22432 795.583504 
L 140.727273 794.894201 
L 137.454545 793.431172 
L 134.468483 792.309498 
L 134.181818 792.249321 
L 130.909091 791.282345 
L 127.636364 789.761659 
L 125.693727 789.035492 
L 124.363636 788.747447 
L 121.090909 787.631555 
L 117.818182 786.616217 
L 114.545455 786.172506 
L 111.272727 785.804676 
L 111.215059 785.761486 
L 108 784.305091 
L 104.727273 784.033938 
L 102.383761 782.48748 
L 101.454545 782.049511 
L 98.181818 781.58576 
L 94.909091 780.343672 
L 92.936199 779.213473 
L 91.636364 778.850078 
L 88.363636 778.097251 
L 85.090909 776.149879 
L 83.983454 775.939467 
L 81.818182 775.74267 
L 78.545455 775.576998 
L 75.272727 775.283339 
L 72 774.17456 
L 68.727273 774.091433 
L 65.454545 772.939794 
L 65.091368 772.665461 
L 62.181818 771.720561 
L 58.909091 771.429117 
L 55.636364 770.161926 
L 54.267696 769.391455 
L 52.363636 768.881571 
L 49.090909 768.346288 
L 45.818182 767.309838 
L 42.545455 766.380174 
L 39.272727 766.149758 
L 38.890265 766.117449 
L 36 765.815218 
L 32.727273 764.422201 
L 29.454545 764.149764 
L 27.251118 762.843442 
L 26.181818 762.380435 
L 22.909091 761.850111 
L 19.636364 760.773387 
L 17.534909 759.569436 
L 16.363636 759.235657 
L 13.090909 758.654369 
L 9.818182 757.035083 
L 7.937782 756.29543 
L 6.545455 756.037176 
L 3.272727 755.215609 
L 0 753.549321 
" clip-path="url(#paa8ae19a71)" style="fill: none"/>
    <path d="M 203.181954 815.227542 
L 202.909091 815.122253 
L 199.636364 814.483884 
L 196.363636 813.62677 
L 193.57857 811.953535 
L 193.090909 811.787281 
L 189.818182 811.403623 
L 186.545455 811.261688 
L 183.272727 810.165341 
L 180 809.402426 
L 176.727273 809.241513 
L 175.590835 808.679529 
L 175.129016 808.439643 
M 157.187972 802.281651 
L 157.090909 802.240391 
L 156.925431 802.131517 
L 153.818182 801.01435 
L 150.545455 800.096148 
L 148.050953 798.857511 
L 147.272727 798.566514 
L 144 797.384298 
L 140.727273 796.326362 
L 139.27742 795.583504 
L 137.454545 794.907124 
L 134.181818 793.751136 
L 130.909091 792.528467 
L 130.497506 792.309498 
L 127.636364 791.244859 
L 124.363636 790.101469 
L 121.713815 789.035492 
L 121.090909 788.845746 
L 117.818182 788.02333 
L 114.545455 787.462683 
L 111.272727 787.258091 
L 109.274433 785.761486 
L 108 785.184178 
L 104.727273 785.074277 
L 101.454545 783.483451 
L 98.813522 782.48748 
L 98.181818 782.406841 
L 94.909091 781.733271 
L 91.636364 780.01274 
L 89.148263 779.213473 
L 88.363636 779.070954 
L 85.090909 777.651111 
L 81.818182 776.942101 
L 78.545455 776.756507 
L 75.272727 776.67101 
L 74.214987 775.939467 
L 72 775.015298 
L 68.727273 774.932986 
L 65.454545 774.34181 
L 63.235298 772.665461 
L 62.181818 772.323335 
L 58.909091 772.247265 
L 55.636364 771.37615 
L 52.363636 769.59051 
L 51.582062 769.391455 
L 49.090909 769.107128 
L 45.818182 768.359769 
L 42.545455 767.787503 
L 39.272727 767.241579 
L 36 767.085552 
L 34.709464 766.117449 
L 32.727273 765.195417 
L 29.454545 765.09914 
L 26.181818 763.543117 
L 24.451022 762.843442 
L 22.909091 762.616573 
L 19.636364 762.065373 
L 16.363636 760.493432 
L 13.090909 759.602724 
L 12.995665 759.569436 
L 9.818182 758.618339 
L 6.545455 757.444743 
L 3.272727 756.392911 
L 3.027332 756.29543 
L 0 755.30645 
" clip-path="url(#paa8ae19a71)" style="fill: none"/>
    <path d="M 190.20962 815.227542 
L 189.818182 815.115032 
L 188.898676 814.904695 
M 170.994498 809.135684 
L 170.181818 808.687045 
L 170.159229 808.679529 
L 166.909091 808.197191 
L 163.636364 807.023262 
L 160.363636 805.489149 
L 160.101277 805.405523 
L 157.090909 804.929429 
L 153.818182 803.419793 
L 151.045391 802.131517 
L 150.545455 802.047183 
L 147.272727 801.228204 
L 144 798.971619 
L 143.74542 798.857511 
L 140.727273 798.364434 
L 137.454545 797.279133 
L 134.992238 795.583504 
L 134.181818 795.30623 
L 130.909091 794.649078 
L 127.636364 793.276142 
L 126.23534 792.309498 
L 124.363636 791.704967 
L 121.090909 790.931239 
L 117.818182 789.897592 
L 115.980059 789.035492 
L 114.545455 788.75286 
L 111.272727 788.711506 
L 108 787.417219 
L 104.727273 786.513013 
L 101.454545 785.904787 
L 101.231826 785.761486 
L 98.181818 784.188915 
L 94.909091 783.376098 
L 93.235873 782.48748 
L 91.636364 781.734771 
L 88.363636 780.625844 
L 85.239919 779.213473 
L 85.090909 779.152342 
L 81.818182 778.323211 
L 78.545455 778.06284 
L 75.272727 778.064618 
L 72.199963 775.939467 
L 72 775.856036 
L 68.727273 775.774539 
L 65.454545 775.743826 
L 62.181818 773.862801 
L 58.909091 773.470479 
L 56.003873 772.665461 
L 55.636364 772.590374 
L 52.363636 771.288285 
L 49.090909 770.329134 
L 45.818182 769.423726 
L 45.456142 769.391455 
L 42.545455 769.194832 
L 39.272727 768.3334 
L 36 768.332511 
L 33.047196 766.117449 
L 32.727273 765.968634 
L 29.454545 766.048516 
L 26.181818 765.648976 
L 22.909091 764.333757 
L 19.636364 763.691215 
L 17.537125 762.843442 
L 16.363636 762.415955 
L 13.090909 761.451405 
L 9.818182 760.519494 
L 7.670592 759.569436 
L 6.545455 759.201872 
L 3.272727 758.529536 
L 0 757.587237 
" clip-path="url(#paa8ae19a71)" style="fill: none"/>
    <path d="M 170.532435 815.227542 
L 170.181818 815.121578 
L 166.909091 813.66308 
L 163.636364 812.779734 
L 161.655265 811.953535 
L 160.363636 811.405064 
L 157.090909 810.241243 
L 153.818182 809.081252 
L 153.018602 808.679529 
L 150.545455 807.631298 
L 147.272727 806.223977 
L 146.187003 805.740662 
M 128.724652 798.091813 
L 127.636364 797.597927 
L 124.363636 796.211116 
L 122.979815 795.583504 
L 121.090909 794.745081 
L 117.818182 793.568145 
L 114.545455 793.236144 
L 113.020082 792.309498 
L 111.272727 791.533071 
L 108 791.019671 
L 105.294502 789.035492 
L 104.727273 788.727048 
L 101.454545 788.259253 
L 98.181818 786.56192 
L 96.798491 785.761486 
L 94.909091 785.319503 
L 91.636364 784.381522 
L 88.958981 782.48748 
L 88.363636 782.280387 
L 85.090909 781.696342 
L 81.818182 780.653252 
L 78.545455 779.970427 
L 75.272727 779.818835 
L 72 779.878536 
L 70.866753 779.213473 
L 68.727273 778.058691 
L 65.454545 777.678572 
L 62.181818 776.65402 
L 61.089832 775.939467 
L 58.909091 775.117235 
L 55.636364 774.490732 
L 52.363636 773.233911 
L 51.53889 772.665461 
L 49.090909 771.826308 
L 45.818182 771.280723 
L 42.545455 771.286716 
L 39.272727 769.580039 
L 36 769.867042 
L 32.727273 769.874373 
L 31.897099 769.391455 
L 29.454545 768.301486 
L 26.181818 768.07368 
L 22.909091 766.75412 
L 21.167466 766.117449 
L 19.636364 765.822516 
L 16.363636 765.174939 
L 13.090909 763.832935 
L 9.818182 762.934074 
L 9.421811 762.843442 
L 6.545455 762.266299 
L 3.272727 761.508599 
L 0 760.619352 
" clip-path="url(#paa8ae19a71)" style="fill: none"/>
    <path d="M 137.479228 815.227542 
L 137.454545 815.213894 
L 134.181818 814.058334 
L 130.999815 811.953535 
L 130.909091 811.904132 
L 129.188384 811.39518 
M 104.02113 797.631694 
L 101.454545 796.70937 
L 100.283783 795.583504 
L 98.181818 794.314429 
L 94.909091 793.223811 
L 93.709349 792.309498 
L 91.636364 791.154685 
L 88.363636 789.817054 
L 87.103366 789.035492 
L 85.090909 788.004292 
L 81.818182 786.456903 
L 79.949702 785.761486 
L 78.545455 785.45978 
L 75.272727 784.233216 
L 72 783.251857 
L 69.844694 782.48748 
L 68.727273 782.237344 
L 65.454545 780.984502 
L 62.181818 780.103436 
L 59.989367 779.213473 
L 58.909091 778.908322 
L 55.636364 777.733476 
L 52.363636 776.843877 
L 50.282614 775.939467 
L 49.090909 775.557933 
L 45.818182 774.431375 
L 42.545455 774.559542 
L 39.272727 774.716533 
L 36 773.504349 
L 32.727273 773.179579 
L 29.454545 772.764064 
L 29.32323 772.665461 
L 26.181818 771.551313 
L 22.909091 771.633354 
L 19.636364 770.290301 
L 16.363636 769.453893 
L 16.165295 769.391455 
L 13.090909 768.503023 
L 9.818182 767.059117 
L 6.727409 766.117449 
L 6.545455 766.076024 
L 3.272727 765.356888 
L 0 764.293401 
M 0 796.221221 
L 3.272727 797.741931 
L 6.545455 798.239618 
L 8.029052 798.857511 
L 9.818182 799.741009 
L 11.548998 800.218395 
M 38.835579 809.437928 
L 39.272727 809.53308 
L 42.545455 810.112229 
L 45.818182 811.410652 
L 49.090909 811.319118 
L 51.904728 811.953535 
L 52.363636 812.274579 
L 55.636364 813.36625 
L 58.909091 814.190957 
L 62.16739 815.227542 
" clip-path="url(#paa8ae19a71)" style="fill: none"/>
    <path clip-path="url(#paa8ae19a71)" style="fill: none"/>
    <path clip-path="url(#paa8ae19a71)" style="fill: none"/>
    <path clip-path="url(#paa8ae19a71)" style="fill: none"/>
    <path clip-path="url(#paa8ae19a71)" style="fill: none"/>
    <path clip-path="url(#paa8ae19a71)" style="fill: none"/>
    <path clip-path="url(#paa8ae19a71)" style="fill: none"/>
    <path clip-path="url(#paa8ae19a71)" style="fill: none"/>
    <path clip-path="url(#paa8ae19a71)" style="fill: none"/>
    <path clip-path="url(#paa8ae19a71)" style="fill: none"/>
    <path clip-path="url(#paa8ae19a71)" style="fill: none"/>
    <path clip-path="url(#paa8ae19a71)" style="fill: none"/>
    <path clip-path="url(#paa8ae19a71)" style="fill: none"/>
    <path clip-path="url(#paa8ae19a71)" style="fill: none"/>
    <path clip-path="url(#paa8ae19a71)" style="fill: none"/>
    <path clip-path="url(#paa8ae19a71)" style="fill: none"/>
    <path clip-path="url(#paa8ae19a71)" style="fill: none"/>
    <path clip-path="url(#paa8ae19a71)" style="fill: none"/>
    <path clip-path="url(#paa8ae19a71)" style="fill: none"/>
    <path clip-path="url(#paa8ae19a71)" style="fill: none"/>
    <path clip-path="url(#paa8ae19a71)" style="fill: none"/>
    <path clip-path="url(#paa8ae19a71)" style="fill: none"/>
    <path clip-path="url(#paa8ae19a71)" style="fill: none"/>
    <path clip-path="url(#paa8ae19a71)" style="fill: none"/>
    <path clip-path="url(#paa8ae19a71)" style="fill: none"/>
    <path clip-path="url(#paa8ae19a71)" style="fill: none"/>
    <path clip-path="url(#paa8ae19a71)" style="fill: none"/>
    <path clip-path="url(#paa8ae19a71)" style="fill: none"/>
    <path clip-path="url(#paa8ae19a71)" style="fill: none"/>
   </g>
   <g id="text_1">
    <g clip-path="url(#paa8ae19a71)">
     <!-- 0 -->
     <g style="opacity: 0" transform="translate(139.298573 792.762744) rotate(-340.575094) scale(0.12 -0.12)">
      <defs>
       <path id="DejaVuSans-30" d="M 2034 4250 
Q 1547 4250 1301 3770 
Q 1056 3291 1056 2328 
Q 1056 1369 1301 889 
Q 1547 409 2034 409 
Q 2525 409 2770 889 
Q 3016 1369 3016 2328 
Q 3016 3291 2770 3770 
Q 2525 4250 2034 4250 
z
M 2034 4750 
Q 2819 4750 3233 4129 
Q 3647 3509 3647 2328 
Q 3647 1150 3233 529 
Q 2819 -91 2034 -91 
Q 1250 -91 836 529 
Q 422 1150 422 2328 
Q 422 3509 836 4129 
Q 1250 4750 2034 4750 
z
" transform="scale(0.015625)"/>
      </defs>
      <use xlink:href="#DejaVuSans-30"/>
     </g>
    </g>
   </g>
   <g id="text_2">
    <g clip-path="url(#paa8ae19a71)">
     <!-- 1 -->
     <g style="opacity: 0" transform="translate(37.114321 764.983036) rotate(-344.110847) scale(0.12 -0.12)">
      <defs>
       <path id="DejaVuSans-31" d="M 794 531 
L 1825 531 
L 1825 4091 
L 703 3866 
L 703 4441 
L 1819 4666 
L 2450 4666 
L 2450 531 
L 3481 531 
L 3481 0 
L 794 0 
L 794 531 
z
" transform="scale(0.015625)"/>
      </defs>
      <use xlink:href="#DejaVuSans-31"/>
     </g>
    </g>
   </g>
   <g id="text_3">
    <g clip-path="url(#paa8ae19a71)">
     <!-- 2 -->
     <g style="opacity: 0" transform="translate(211.711086 814.490698) rotate(-349.198581) scale(0.12 -0.12)">
      <defs>
       <path id="DejaVuSans-32" d="M 1228 531 
L 3431 531 
L 3431 0 
L 469 0 
L 469 531 
Q 828 903 1448 1529 
Q 2069 2156 2228 2338 
Q 2531 2678 2651 2914 
Q 2772 3150 2772 3378 
Q 2772 3750 2511 3984 
Q 2250 4219 1831 4219 
Q 1534 4219 1204 4116 
Q 875 4013 500 3803 
L 500 4441 
Q 881 4594 1212 4672 
Q 1544 4750 1819 4750 
Q 2544 4750 2975 4387 
Q 3406 4025 3406 3419 
Q 3406 3131 3298 2873 
Q 3191 2616 2906 2266 
Q 2828 2175 2409 1742 
Q 1991 1309 1228 531 
z
" transform="scale(0.015625)"/>
      </defs>
      <use xlink:href="#DejaVuSans-32"/>
     </g>
    </g>
   </g>
   <g id="text_4">
    <g clip-path="url(#paa8ae19a71)">
     <!-- 3 -->
     <g style="opacity: 0" transform="translate(5.098408 756.639723) rotate(-340.000529) scale(0.12 -0.12)">
      <defs>
       <path id="DejaVuSans-33" d="M 2597 2516 
Q 3050 2419 3304 2112 
Q 3559 1806 3559 1356 
Q 3559 666 3084 287 
Q 2609 -91 1734 -91 
Q 1441 -91 1130 -33 
Q 819 25 488 141 
L 488 750 
Q 750 597 1062 519 
Q 1375 441 1716 441 
Q 2309 441 2620 675 
Q 2931 909 2931 1356 
Q 2931 1769 2642 2001 
Q 2353 2234 1838 2234 
L 1294 2234 
L 1294 2753 
L 1863 2753 
Q 2328 2753 2575 2939 
Q 2822 3125 2822 3475 
Q 2822 3834 2567 4026 
Q 2313 4219 1838 4219 
Q 1578 4219 1281 4162 
Q 984 4106 628 3988 
L 628 4550 
Q 988 4650 1302 4700 
Q 1616 4750 1894 4750 
Q 2613 4750 3031 4423 
Q 3450 4097 3450 3541 
Q 3450 3153 3228 2886 
Q 3006 2619 2597 2516 
z
" transform="scale(0.015625)"/>
      </defs>
      <use xlink:href="#DejaVuSans-33"/>
     </g>
    </g>
   </g>
   <g id="text_5">
    <g clip-path="url(#paa8ae19a71)">
     <!-- 4 -->
     <g style="opacity: 0" transform="translate(51.040167 770.664054) rotate(-343.624226) scale(0.12 -0.12)">
      <defs>
       <path id="DejaVuSans-34" d="M 2419 4116 
L 825 1625 
L 2419 1625 
L 2419 4116 
z
M 2253 4666 
L 3047 4666 
L 3047 1625 
L 3713 1625 
L 3713 1100 
L 3047 1100 
L 3047 0 
L 2419 0 
L 2419 1100 
L 313 1100 
L 313 1709 
L 2253 4666 
z
" transform="scale(0.015625)"/>
      </defs>
      <use xlink:href="#DejaVuSans-34"/>
     </g>
    </g>
   </g>
   <g id="text_6">
    <g clip-path="url(#paa8ae19a71)">
     <!-- 5 -->
     <g style="opacity: 0" transform="translate(124.062228 790.869499) rotate(-340.341652) scale(0.12 -0.12)">
      <defs>
       <path id="DejaVuSans-35" d="M 691 4666 
L 3169 4666 
L 3169 4134 
L 1269 4134 
L 1269 2991 
Q 1406 3038 1543 3061 
Q 1681 3084 1819 3084 
Q 2600 3084 3056 2656 
Q 3513 2228 3513 1497 
Q 3513 744 3044 326 
Q 2575 -91 1722 -91 
Q 1428 -91 1123 -41 
Q 819 9 494 109 
L 494 744 
Q 775 591 1075 516 
Q 1375 441 1709 441 
Q 2250 441 2565 725 
Q 2881 1009 2881 1497 
Q 2881 1984 2565 2268 
Q 2250 2553 1709 2553 
Q 1456 2553 1204 2497 
Q 953 2441 691 2322 
L 691 4666 
z
" transform="scale(0.015625)"/>
      </defs>
      <use xlink:href="#DejaVuSans-35"/>
     </g>
    </g>
   </g>
   <g id="text_7">
    <g clip-path="url(#paa8ae19a71)">
     <!-- 6 -->
     <g style="opacity: 0" transform="translate(191.724637 813.383606) rotate(-342.429426) scale(0.12 -0.12)">
      <defs>
       <path id="DejaVuSans-36" d="M 2113 2584 
Q 1688 2584 1439 2293 
Q 1191 2003 1191 1497 
Q 1191 994 1439 701 
Q 1688 409 2113 409 
Q 2538 409 2786 701 
Q 3034 994 3034 1497 
Q 3034 2003 2786 2293 
Q 2538 2584 2113 2584 
z
M 3366 4563 
L 3366 3988 
Q 3128 4100 2886 4159 
Q 2644 4219 2406 4219 
Q 1781 4219 1451 3797 
Q 1122 3375 1075 2522 
Q 1259 2794 1537 2939 
Q 1816 3084 2150 3084 
Q 2853 3084 3261 2657 
Q 3669 2231 3669 1497 
Q 3669 778 3244 343 
Q 2819 -91 2113 -91 
Q 1303 -91 875 529 
Q 447 1150 447 2328 
Q 447 3434 972 4092 
Q 1497 4750 2381 4750 
Q 2619 4750 2861 4703 
Q 3103 4656 3366 4563 
z
" transform="scale(0.015625)"/>
      </defs>
      <use xlink:href="#DejaVuSans-36"/>
     </g>
    </g>
   </g>
   <g id="text_8">
    <g clip-path="url(#paa8ae19a71)">
     <!-- 7 -->
     <g style="opacity: 0" transform="translate(161.494145 807.323938) rotate(-341.372351) scale(0.12 -0.12)">
      <defs>
       <path id="DejaVuSans-37" d="M 525 4666 
L 3525 4666 
L 3525 4397 
L 1831 0 
L 1172 0 
L 2766 4134 
L 525 4134 
L 525 4666 
z
" transform="scale(0.015625)"/>
      </defs>
      <use xlink:href="#DejaVuSans-37"/>
     </g>
    </g>
   </g>
   <g id="text_9">
    <g clip-path="url(#paa8ae19a71)">
     <!-- 8 -->
     <g style="opacity: 0" transform="translate(175.340949 813.881116) rotate(-341.849425) scale(0.12 -0.12)">
      <defs>
       <path id="DejaVuSans-38" d="M 2034 2216 
Q 1584 2216 1326 1975 
Q 1069 1734 1069 1313 
Q 1069 891 1326 650 
Q 1584 409 2034 409 
Q 2484 409 2743 651 
Q 3003 894 3003 1313 
Q 3003 1734 2745 1975 
Q 2488 2216 2034 2216 
z
M 1403 2484 
Q 997 2584 770 2862 
Q 544 3141 544 3541 
Q 544 4100 942 4425 
Q 1341 4750 2034 4750 
Q 2731 4750 3128 4425 
Q 3525 4100 3525 3541 
Q 3525 3141 3298 2862 
Q 3072 2584 2669 2484 
Q 3125 2378 3379 2068 
Q 3634 1759 3634 1313 
Q 3634 634 3220 271 
Q 2806 -91 2034 -91 
Q 1263 -91 848 271 
Q 434 634 434 1313 
Q 434 1759 690 2068 
Q 947 2378 1403 2484 
z
M 1172 3481 
Q 1172 3119 1398 2916 
Q 1625 2713 2034 2713 
Q 2441 2713 2670 2916 
Q 2900 3119 2900 3481 
Q 2900 3844 2670 4047 
Q 2441 4250 2034 4250 
Q 1625 4250 1398 4047 
Q 1172 3844 1172 3481 
z
" transform="scale(0.015625)"/>
      </defs>
      <use xlink:href="#DejaVuSans-38"/>
     </g>
    </g>
   </g>
   <g id="text_10">
    <g clip-path="url(#paa8ae19a71)">
     <!-- 9 -->
     <g style="opacity: 0" transform="translate(132.633562 803.433987) rotate(-336.509512) scale(0.12 -0.12)">
      <defs>
       <path id="DejaVuSans-39" d="M 703 97 
L 703 672 
Q 941 559 1184 500 
Q 1428 441 1663 441 
Q 2288 441 2617 861 
Q 2947 1281 2994 2138 
Q 2813 1869 2534 1725 
Q 2256 1581 1919 1581 
Q 1219 1581 811 2004 
Q 403 2428 403 3163 
Q 403 3881 828 4315 
Q 1253 4750 1959 4750 
Q 2769 4750 3195 4129 
Q 3622 3509 3622 2328 
Q 3622 1225 3098 567 
Q 2575 -91 1691 -91 
Q 1453 -91 1209 -44 
Q 966 3 703 97 
z
M 1959 2075 
Q 2384 2075 2632 2365 
Q 2881 2656 2881 3163 
Q 2881 3666 2632 3958 
Q 2384 4250 1959 4250 
Q 1534 4250 1286 3958 
Q 1038 3666 1038 3163 
Q 1038 2656 1286 2365 
Q 1534 2075 1959 2075 
z
" transform="scale(0.015625)"/>
      </defs>
      <use xlink:href="#DejaVuSans-39"/>
     </g>
    </g>
   </g>
   <g id="text_11">
    <g clip-path="url(#paa8ae19a71)">
     <!-- 10 -->
     <g style="opacity: 0" transform="translate(107.764858 804.721754) rotate(-331.841037) scale(0.12 -0.12)">
      <use xlink:href="#DejaVuSans-31"/>
      <use xlink:href="#DejaVuSans-30" transform="translate(63.623047 0)"/>
     </g>
    </g>
   </g>
   <g id="text_12">
    <g clip-path="url(#paa8ae19a71)">
     <!-- 10 -->
     <g style="opacity: 0" transform="translate(16.719213 805.961755) rotate(-340.386317) scale(0.12 -0.12)">
      <use xlink:href="#DejaVuSans-31"/>
      <use xlink:href="#DejaVuSans-30" transform="translate(63.623047 0)"/>
     </g>
    </g>
   </g>
  </g>
 </g>
 <defs>
  <clipPath id="paa8ae19a71">
   <rect x="0" y="0" width="576" height="815.227542"/>
  </clipPath>
 </defs>
</svg>
