<?xml version="1.0" encoding="utf-8" standalone="no"?>
<!DOCTYPE svg PUBLIC "-//W3C//DTD SVG 1.1//EN"
  "http://www.w3.org/Graphics/SVG/1.1/DTD/svg11.dtd">
<svg xmlns:xlink="http://www.w3.org/1999/xlink" width="576pt" height="818.525063pt" viewBox="0 0 576 818.525063" xmlns="http://www.w3.org/2000/svg" version="1.1">
 <metadata>
  <rdf:RDF xmlns:dc="http://purl.org/dc/elements/1.1/" xmlns:cc="http://creativecommons.org/ns#" xmlns:rdf="http://www.w3.org/1999/02/22-rdf-syntax-ns#">
   <cc:Work>
    <dc:type rdf:resource="http://purl.org/dc/dcmitype/StillImage"/>
    <dc:date>2025-07-25T22:43:55.254017</dc:date>
    <dc:format>image/svg+xml</dc:format>
    <dc:creator>
     <cc:Agent>
      <dc:title>Matplotlib v3.10.3, https://matplotlib.org/</dc:title>
     </cc:Agent>
    </dc:creator>
   </cc:Work>
  </rdf:RDF>
 </metadata>
 <defs>
  <style type="text/css">*{stroke-linejoin: round; stroke-linecap: butt}</style>
 </defs>
 <g id="figure_1">
  <g id="patch_1">
   <path d="M 0 818.525063 
L 576 818.525063 
L 576 0 
L 0 0 
L 0 818.525063 
z
" style="fill: none; opacity: 0"/>
  </g>
  <g id="axes_1">
   <g id="QuadContourSet_1">
    <path d="M 3.291429 818.525063 
L 6.582857 818.525063 
L 9.874286 818.525063 
L 13.165714 818.525063 
L 16.457143 818.525063 
L 19.748571 818.525063 
L 23.04 818.525063 
L 26.331429 818.525063 
L 29.622857 818.525063 
L 32.914286 818.525063 
L 36.205714 818.525063 
L 39.497143 818.525063 
L 42.788571 818.525063 
L 46.08 818.525063 
L 49.371429 818.525063 
L 52.662857 818.525063 
L 55.954286 818.525063 
L 59.245714 818.525063 
L 62.537143 818.525063 
L 65.828571 818.525063 
L 69.12 818.525063 
L 72.411429 818.525063 
L 75.702857 818.525063 
L 78.994286 818.525063 
L 82.285714 818.525063 
L 85.577143 818.525063 
L 88.868571 818.525063 
L 92.16 818.525063 
L 95.451429 818.525063 
L 98.742857 818.525063 
L 102.034286 818.525063 
L 105.325714 818.525063 
L 108.617143 818.525063 
L 111.908571 818.525063 
L 115.2 818.525063 
L 118.491429 818.525063 
L 121.782857 818.525063 
L 125.074286 818.525063 
L 128.365714 818.525063 
L 131.657143 818.525063 
L 134.948571 818.525063 
L 138.24 818.525063 
L 141.531429 818.525063 
L 144.822857 818.525063 
L 148.114286 818.525063 
L 151.405714 818.525063 
L 154.697143 818.525063 
L 157.988571 818.525063 
L 161.28 818.525063 
L 164.571429 818.525063 
L 167.862857 818.525063 
L 171.154286 818.525063 
L 174.445714 818.525063 
L 177.737143 818.525063 
L 181.028571 818.525063 
L 184.32 818.525063 
L 187.611429 818.525063 
L 190.902857 818.525063 
L 194.194286 818.525063 
L 197.485714 818.525063 
L 200.777143 818.525063 
L 204.068571 818.525063 
L 207.36 818.525063 
L 210.651429 818.525063 
L 213.942857 818.525063 
L 217.234286 818.525063 
L 220.525714 818.525063 
L 223.817143 818.525063 
L 227.108571 818.525063 
L 230.4 818.525063 
L 233.691429 818.525063 
L 236.982857 818.525063 
L 240.274286 818.525063 
L 243.565714 818.525063 
L 246.857143 818.525063 
L 250.148571 818.525063 
L 253.44 818.525063 
L 256.731429 818.525063 
L 260.022857 818.525063 
L 263.314286 818.525063 
L 266.605714 818.525063 
L 269.897143 818.525063 
L 273.188571 818.525063 
L 276.48 818.525063 
L 279.771429 818.525063 
L 283.062857 818.525063 
L 286.354286 818.525063 
L 289.645714 818.525063 
L 292.937143 818.525063 
L 296.228571 818.525063 
L 299.52 818.525063 
L 302.811429 818.525063 
L 306.102857 818.525063 
L 309.394286 818.525063 
L 312.685714 818.525063 
L 315.977143 818.525063 
L 319.268571 818.525063 
L 322.56 818.525063 
L 325.851429 818.525063 
L 329.142857 818.525063 
L 332.434286 818.525063 
L 335.725714 818.525063 
L 339.017143 818.525063 
L 342.308571 818.525063 
L 345.6 818.525063 
L 348.891429 818.525063 
L 352.182857 818.525063 
L 355.474286 818.525063 
L 358.765714 818.525063 
L 362.057143 818.525063 
L 365.348571 818.525063 
L 368.64 818.525063 
L 371.931429 818.525063 
L 375.222857 818.525063 
L 378.514286 818.525063 
L 381.805714 818.525063 
L 385.097143 818.525063 
L 388.388571 818.525063 
L 391.68 818.525063 
L 394.971429 818.525063 
L 398.262857 818.525063 
L 401.554286 818.525063 
L 404.845714 818.525063 
L 408.137143 818.525063 
L 411.428571 818.525063 
L 414.72 818.525063 
L 418.011429 818.525063 
L 421.302857 818.525063 
L 424.594286 818.525063 
L 427.885714 818.525063 
L 431.177143 818.525063 
L 434.468571 818.525063 
L 437.76 818.525063 
L 441.051429 818.525063 
L 444.342857 818.525063 
L 447.634286 818.525063 
L 450.925714 818.525063 
L 454.217143 818.525063 
L 457.508571 818.525063 
L 460.8 818.525063 
L 464.091429 818.525063 
L 467.382857 818.525063 
L 470.674286 818.525063 
L 473.965714 818.525063 
L 477.257143 818.525063 
L 480.548571 818.525063 
L 483.84 818.525063 
L 487.131429 818.525063 
L 490.422857 818.525063 
L 493.714286 818.525063 
L 497.005714 818.525063 
L 500.297143 818.525063 
L 503.588571 818.525063 
L 506.88 818.525063 
L 510.171429 818.525063 
L 513.462857 818.525063 
L 516.754286 818.525063 
L 520.045714 818.525063 
L 523.337143 818.525063 
L 526.628571 818.525063 
L 529.92 818.525063 
L 533.211429 818.525063 
L 536.502857 818.525063 
L 539.794286 818.525063 
L 543.085714 818.525063 
L 546.377143 818.525063 
L 549.668571 818.525063 
L 552.96 818.525063 
L 556.251429 818.525063 
L 559.542857 818.525063 
L 562.834286 818.525063 
L 566.125714 818.525063 
L 569.417143 818.525063 
L 572.708571 818.525063 
L 576 818.525063 
L 576 815.237814 
L 576 811.950565 
L 576 808.663315 
L 576 805.376066 
L 576 802.088817 
L 576 798.801568 
L 576 795.514318 
L 576 792.227069 
L 576 788.93982 
L 576 785.652571 
L 576 782.365321 
L 576 779.078072 
L 576 775.790823 
L 576 772.503574 
L 576 769.216324 
L 576 765.929075 
L 576 762.641826 
L 576 759.354577 
L 576 756.067327 
L 576 752.780078 
L 576 749.492829 
L 576 746.20558 
L 576 742.91833 
L 576 739.631081 
L 576 736.343832 
L 576 733.056583 
L 576 729.769333 
L 576 726.482084 
L 576 723.194835 
L 576 719.907586 
L 576 716.620336 
L 576 713.333087 
L 576 710.045838 
L 576 706.758589 
L 576 703.471339 
L 576 700.18409 
L 576 696.896841 
L 576 693.609592 
L 576 690.322342 
L 576 687.035093 
L 576 683.747844 
L 576 680.460595 
L 576 677.173345 
L 576 673.886096 
L 576 670.598847 
L 576 667.311598 
L 576 664.024348 
L 576 660.737099 
L 576 657.44985 
L 576 654.162601 
L 576 650.875351 
L 576 647.588102 
L 576 644.300853 
L 576 641.013604 
L 576 637.726354 
L 576 634.439105 
L 576 631.151856 
L 576 627.864607 
L 576 624.577357 
L 576 621.290108 
L 576 618.002859 
L 576 614.71561 
L 576 611.42836 
L 576 608.141111 
L 576 604.853862 
L 576 601.566613 
L 576 598.279363 
L 576 594.992114 
L 576 591.704865 
L 576 588.417616 
L 576 585.130366 
L 576 581.843117 
L 576 578.555868 
L 576 575.268619 
L 576 571.981369 
L 576 568.69412 
L 576 565.406871 
L 576 562.119622 
L 576 558.832372 
L 576 555.545123 
L 576 552.257874 
L 576 548.970625 
L 576 545.683375 
L 576 542.396126 
L 576 539.108877 
L 576 535.821628 
L 576 532.534378 
L 576 529.247129 
L 576 525.95988 
L 576 522.672631 
L 576 519.385381 
L 576 516.098132 
L 576 512.810883 
L 576 509.523634 
L 576 506.236384 
L 576 502.949135 
L 576 499.661886 
L 576 496.374637 
L 576 493.087387 
L 576 489.800138 
L 576 486.512889 
L 576 483.22564 
L 576 479.93839 
L 576 476.651141 
L 576 473.363892 
L 576 470.076643 
L 576 466.789393 
L 576 463.502144 
L 576 460.214895 
L 576 456.927646 
L 576 453.640396 
L 576 450.353147 
L 576 447.065898 
L 576 443.778649 
L 576 440.491399 
L 576 437.20415 
L 576 433.916901 
L 576 430.629652 
L 576 427.342402 
L 576 424.055153 
L 576 420.767904 
L 576 417.480655 
L 576 414.193405 
L 576 410.906156 
L 576 407.618907 
L 576 404.331658 
L 576 401.044408 
L 576 397.757159 
L 576 394.46991 
L 576 391.182661 
L 576 387.895411 
L 576 384.608162 
L 576 381.320913 
L 576 378.033664 
L 576 374.746414 
L 576 371.459165 
L 576 368.171916 
L 576 364.884667 
L 576 361.597417 
L 576 358.310168 
L 576 355.022919 
L 576 351.73567 
L 576 348.44842 
L 576 345.161171 
L 576 341.873922 
L 576 338.586673 
L 576 335.299423 
L 576 332.012174 
L 576 328.724925 
L 576 325.437676 
L 576 322.150426 
L 576 318.863177 
L 576 315.575928 
L 576 312.288679 
L 576 309.001429 
L 576 305.71418 
L 576 302.426931 
L 576 299.139682 
L 576 295.852432 
L 576 292.565183 
L 576 289.277934 
L 576 285.990685 
L 576 282.703435 
L 576 279.416186 
L 576 276.128937 
L 576 272.841688 
L 576 269.554438 
L 576 266.267189 
L 576 262.97994 
L 576 259.692691 
L 576 256.405441 
L 576 253.118192 
L 576 249.830943 
L 576 246.543694 
L 576 243.256444 
L 576 239.969195 
L 576 236.681946 
L 576 233.394697 
L 576 230.107447 
L 576 226.820198 
L 576 223.532949 
L 576 220.2457 
L 576 216.95845 
L 576 213.671201 
L 576 210.383952 
L 576 207.096703 
L 576 203.809453 
L 576 200.522204 
L 576 197.234955 
L 576 193.947706 
L 576 190.660456 
L 576 187.373207 
L 576 184.085958 
L 576 180.798709 
L 576 177.511459 
L 576 174.22421 
L 576 170.936961 
L 576 167.649712 
L 576 164.362462 
L 576 161.075213 
L 576 157.787964 
L 576 154.500715 
L 576 151.213465 
L 576 147.926216 
L 576 144.638967 
L 576 141.351718 
L 576 138.064468 
L 576 134.777219 
L 576 131.48997 
L 576 128.202721 
L 576 124.915471 
L 576 121.628222 
L 576 118.340973 
L 576 115.053724 
L 576 111.766474 
L 576 108.479225 
L 576 105.191976 
L 576 101.904727 
L 576 98.617477 
L 576 95.330228 
L 576 92.042979 
L 576 88.75573 
L 576 85.46848 
L 576 82.181231 
L 576 78.893982 
L 576 75.606733 
L 576 72.319483 
L 576 69.032234 
L 576 65.744985 
L 576 62.457736 
L 576 59.170486 
L 576 55.883237 
L 576 52.595988 
L 576 49.308739 
L 576 46.021489 
L 576 42.73424 
L 576 39.446991 
L 576 36.159742 
L 576 32.872492 
L 576 29.585243 
L 576 26.297994 
L 576 23.010745 
L 576 19.723495 
L 576 16.436246 
L 576 13.148997 
L 576 9.861748 
L 576 6.574498 
L 576 3.287249 
L 576 0 
L 572.708571 0 
L 569.417143 0 
L 566.125714 0 
L 562.834286 0 
L 559.542857 0 
L 556.251429 0 
L 552.96 0 
L 549.668571 0 
L 546.377143 0 
L 543.085714 0 
L 539.794286 0 
L 536.502857 0 
L 533.211429 0 
L 529.92 0 
L 526.628571 0 
L 523.337143 0 
L 520.045714 0 
L 516.754286 0 
L 513.462857 0 
L 510.171429 0 
L 506.88 0 
L 503.588571 0 
L 500.297143 0 
L 497.005714 0 
L 493.714286 0 
L 490.422857 0 
L 487.131429 0 
L 483.84 0 
L 480.548571 0 
L 477.257143 0 
L 473.965714 0 
L 470.674286 0 
L 467.382857 0 
L 464.091429 0 
L 460.8 0 
L 457.508571 0 
L 454.217143 0 
L 450.925714 0 
L 447.634286 0 
L 444.342857 0 
L 441.051429 0 
L 437.76 0 
L 434.468571 0 
L 431.177143 0 
L 427.885714 0 
L 424.594286 0 
L 421.302857 0 
L 418.011429 0 
L 414.72 0 
L 411.428571 0 
L 408.137143 0 
L 404.845714 0 
L 401.554286 0 
L 398.262857 0 
L 394.971429 0 
L 391.68 0 
L 388.388571 0 
L 385.097143 0 
L 381.805714 0 
L 378.514286 0 
L 375.222857 0 
L 371.931429 0 
L 368.64 0 
L 365.348571 0 
L 362.057143 0 
L 358.765714 0 
L 355.474286 0 
L 352.182857 0 
L 348.891429 0 
L 345.6 0 
L 342.308571 0 
L 339.017143 0 
L 335.725714 0 
L 332.434286 0 
L 329.142857 0 
L 325.851429 0 
L 322.56 0 
L 319.268571 0 
L 315.977143 0 
L 312.685714 0 
L 309.394286 0 
L 306.102857 0 
L 302.811429 0 
L 299.52 0 
L 296.228571 0 
L 292.937143 0 
L 289.645714 0 
L 286.354286 0 
L 283.062857 0 
L 279.771429 0 
L 276.48 0 
L 273.188571 0 
L 269.897143 0 
L 266.605714 0 
L 263.314286 0 
L 260.022857 0 
L 256.731429 0 
L 253.44 0 
L 250.148571 0 
L 246.857143 0 
L 243.565714 0 
L 240.274286 0 
L 236.982857 0 
L 233.691429 0 
L 230.4 0 
L 227.108571 0 
L 223.817143 0 
L 220.525714 0 
L 217.234286 0 
L 213.942857 0 
L 210.651429 0 
L 207.36 0 
L 204.068571 0 
L 200.777143 0 
L 197.485714 0 
L 194.194286 0 
L 190.902857 0 
L 187.611429 0 
L 184.32 0 
L 181.028571 0 
L 177.737143 0 
L 174.445714 0 
L 171.154286 0 
L 167.862857 0 
L 164.571429 0 
L 161.28 0 
L 157.988571 0 
L 154.697143 0 
L 151.405714 0 
L 148.114286 0 
L 144.822857 0 
L 141.531429 0 
L 138.24 0 
L 134.948571 0 
L 131.657143 0 
L 128.365714 0 
L 125.074286 0 
L 121.782857 0 
L 118.491429 0 
L 115.2 0 
L 111.908571 0 
L 108.617143 0 
L 105.325714 0 
L 102.034286 0 
L 98.742857 0 
L 95.451429 0 
L 92.16 0 
L 88.868571 0 
L 85.577143 0 
L 82.285714 0 
L 78.994286 0 
L 75.702857 0 
L 72.411429 0 
L 69.12 0 
L 65.828571 0 
L 62.537143 0 
L 59.245714 0 
L 55.954286 0 
L 52.662857 0 
L 49.371429 0 
L 46.08 0 
L 42.788571 0 
L 39.497143 0 
L 36.205714 0 
L 32.914286 0 
L 29.622857 0 
L 26.331429 0 
L 23.04 0 
L 19.748571 0 
L 16.457143 0 
L 13.165714 0 
L 9.874286 0 
L 6.582857 0 
L 3.291429 0 
L -0 0 
L -0 3.287249 
L -0 6.574498 
L -0 9.861748 
L -0 13.148997 
L -0 16.436246 
L -0 19.723495 
L -0 23.010745 
L -0 26.297994 
L -0 29.585243 
L -0 32.872492 
L -0 36.159742 
L -0 39.446991 
L -0 42.73424 
L -0 46.021489 
L -0 49.308739 
L -0 52.595988 
L -0 55.883237 
L -0 59.170486 
L -0 62.457736 
L -0 65.744985 
L -0 69.032234 
L -0 72.319483 
L -0 75.606733 
L -0 78.893982 
L -0 82.181231 
L -0 85.46848 
L -0 88.75573 
L -0 92.042979 
L -0 95.330228 
L -0 98.617477 
L -0 101.904727 
L -0 105.191976 
L -0 108.479225 
L -0 111.766474 
L -0 115.053724 
L -0 118.340973 
L -0 121.628222 
L -0 124.915471 
L -0 128.202721 
L -0 131.48997 
L -0 134.777219 
L -0 138.064468 
L -0 141.351718 
L -0 144.638967 
L -0 147.926216 
L -0 151.213465 
L -0 154.500715 
L -0 157.787964 
L -0 161.075213 
L -0 164.362462 
L -0 167.649712 
L -0 170.936961 
L -0 174.22421 
L -0 177.511459 
L -0 180.798709 
L -0 184.085958 
L -0 187.373207 
L -0 190.660456 
L -0 193.947706 
L -0 197.234955 
L -0 200.522204 
L -0 203.809453 
L -0 207.096703 
L -0 210.383952 
L -0 213.671201 
L -0 216.95845 
L -0 220.2457 
L -0 223.532949 
L -0 226.820198 
L -0 230.107447 
L -0 233.394697 
L -0 236.681946 
L -0 239.969195 
L -0 243.256444 
L -0 246.543694 
L -0 249.830943 
L -0 253.118192 
L -0 256.405441 
L -0 259.692691 
L -0 262.97994 
L -0 266.267189 
L -0 269.554438 
L -0 272.841688 
L -0 276.128937 
L -0 279.416186 
L -0 282.703435 
L -0 285.990685 
L -0 289.277934 
L -0 292.565183 
L -0 295.852432 
L -0 299.139682 
L -0 302.426931 
L -0 305.71418 
L -0 309.001429 
L -0 312.288679 
L -0 315.575928 
L -0 318.863177 
L -0 322.150426 
L -0 325.437676 
L -0 328.724925 
L -0 332.012174 
L -0 335.299423 
L -0 338.586673 
L -0 341.873922 
L -0 345.161171 
L -0 348.44842 
L -0 351.73567 
L -0 355.022919 
L -0 358.310168 
L -0 361.597417 
L -0 364.884667 
L -0 368.171916 
L -0 371.459165 
L -0 374.746414 
L -0 378.033664 
L -0 381.320913 
L -0 384.608162 
L -0 387.895411 
L -0 391.182661 
L -0 394.46991 
L -0 397.757159 
L -0 401.044408 
L -0 404.331658 
L -0 407.618907 
L -0 410.906156 
L -0 414.193405 
L -0 417.480655 
L -0 420.767904 
L -0 424.055153 
L -0 427.342402 
L -0 430.629652 
L -0 433.916901 
L -0 437.20415 
L -0 440.491399 
L -0 443.778649 
L -0 447.065898 
L -0 450.353147 
L -0 453.640396 
L -0 456.927646 
L -0 460.214895 
L -0 463.502144 
L -0 466.789393 
L -0 470.076643 
L -0 473.363892 
L -0 476.651141 
L -0 479.93839 
L -0 483.22564 
L -0 486.512889 
L -0 489.800138 
L -0 493.087387 
L -0 496.374637 
L -0 499.661886 
L -0 502.949135 
L -0 506.236384 
L -0 509.523634 
L -0 512.810883 
L -0 516.098132 
L -0 519.385381 
L -0 522.672631 
L -0 525.95988 
L -0 529.247129 
L -0 532.534378 
L -0 535.821628 
L -0 539.108877 
L -0 542.396126 
L -0 545.683375 
L -0 548.970625 
L -0 552.257874 
L -0 555.545123 
L -0 558.832372 
L -0 562.119622 
L -0 565.406871 
L -0 568.69412 
L -0 571.981369 
L -0 575.268619 
L -0 578.555868 
L -0 581.843117 
L -0 585.130366 
L -0 588.417616 
L -0 591.704865 
L -0 594.992114 
L -0 598.279363 
L -0 601.566613 
L -0 604.853862 
L -0 608.141111 
L -0 611.42836 
L -0 614.71561 
L -0 618.002859 
L -0 621.290108 
L -0 624.577357 
L -0 627.864607 
L -0 631.151856 
L -0 634.439105 
L -0 637.726354 
L -0 641.013604 
L -0 644.300853 
L -0 647.588102 
L -0 650.875351 
L -0 654.162601 
L -0 657.44985 
L -0 660.737099 
L -0 664.024348 
L -0 667.311598 
L -0 670.598847 
L -0 673.886096 
L -0 677.173345 
L -0 680.460595 
L -0 683.747844 
L -0 687.035093 
L -0 690.322342 
L -0 693.609592 
L -0 696.896841 
L -0 700.18409 
L -0 703.471339 
L -0 706.758589 
L -0 710.045838 
L -0 713.333087 
L -0 716.620336 
L -0 719.907586 
L -0 723.194835 
L -0 726.482084 
L -0 729.769333 
L -0 733.056583 
L -0 736.343832 
L -0 739.631081 
L -0 742.91833 
L -0 746.20558 
L -0 749.492829 
L -0 752.780078 
L -0 756.067327 
L -0 759.354577 
L -0 762.641826 
L -0 765.929075 
L -0 769.216324 
L -0 772.503574 
L -0 775.790823 
L -0 779.078072 
L -0 782.365321 
L -0 785.652571 
L -0 788.93982 
L -0 792.227069 
L -0 795.514318 
L -0 798.801568 
L -0 802.088817 
L -0 805.376066 
L -0 808.663315 
L -0 811.950565 
L -0 815.237814 
L -0 818.525063 
z
" clip-path="url(#p89a552c275)" style="fill: #f5f9fe; fill-opacity: 0.9"/>
    <path clip-path="url(#p89a552c275)" style="fill: #eff6fc; fill-opacity: 0.9"/>
    <path clip-path="url(#p89a552c275)" style="fill: #eaf3fb; fill-opacity: 0.9"/>
    <path clip-path="url(#p89a552c275)" style="fill: #e5eff9; fill-opacity: 0.9"/>
    <path clip-path="url(#p89a552c275)" style="fill: #dfecf7; fill-opacity: 0.9"/>
    <path clip-path="url(#p89a552c275)" style="fill: #dae8f6; fill-opacity: 0.9"/>
    <path clip-path="url(#p89a552c275)" style="fill: #d6e5f4; fill-opacity: 0.9"/>
    <path clip-path="url(#p89a552c275)" style="fill: #d0e2f2; fill-opacity: 0.9"/>
    <path clip-path="url(#p89a552c275)" style="fill: #cbdef1; fill-opacity: 0.9"/>
    <path clip-path="url(#p89a552c275)" style="fill: #c6dbef; fill-opacity: 0.9"/>
    <path clip-path="url(#p89a552c275)" style="fill: #bed8ec; fill-opacity: 0.9"/>
    <path clip-path="url(#p89a552c275)" style="fill: #b5d4e9; fill-opacity: 0.9"/>
    <path clip-path="url(#p89a552c275)" style="fill: #add0e6; fill-opacity: 0.9"/>
    <path clip-path="url(#p89a552c275)" style="fill: #a5cde3; fill-opacity: 0.9"/>
    <path clip-path="url(#p89a552c275)" style="fill: #9cc9e1; fill-opacity: 0.9"/>
    <path clip-path="url(#p89a552c275)" style="fill: #91c3de; fill-opacity: 0.9"/>
    <path clip-path="url(#p89a552c275)" style="fill: #85bcdc; fill-opacity: 0.9"/>
    <path clip-path="url(#p89a552c275)" style="fill: #7cb7da; fill-opacity: 0.9"/>
    <path clip-path="url(#p89a552c275)" style="fill: #71b1d7; fill-opacity: 0.9"/>
    <path clip-path="url(#p89a552c275)" style="fill: #66abd4; fill-opacity: 0.9"/>
    <path clip-path="url(#p89a552c275)" style="fill: #5da5d1; fill-opacity: 0.9"/>
    <path clip-path="url(#p89a552c275)" style="fill: #56a0ce; fill-opacity: 0.9"/>
    <path clip-path="url(#p89a552c275)" style="fill: #4d99ca; fill-opacity: 0.9"/>
    <path clip-path="url(#p89a552c275)" style="fill: #4493c7; fill-opacity: 0.9"/>
    <path clip-path="url(#p89a552c275)" style="fill: #3c8cc3; fill-opacity: 0.9"/>
    <path clip-path="url(#p89a552c275)" style="fill: #3686c0; fill-opacity: 0.9"/>
    <path clip-path="url(#p89a552c275)" style="fill: #2f7fbc; fill-opacity: 0.9"/>
    <path clip-path="url(#p89a552c275)" style="fill: #2777b8; fill-opacity: 0.9"/>
    <path clip-path="url(#p89a552c275)" style="fill: #2070b4; fill-opacity: 0.9"/>
    <path clip-path="url(#p89a552c275)" style="fill: #1c6ab0; fill-opacity: 0.9"/>
    <path clip-path="url(#p89a552c275)" style="fill: #1663aa; fill-opacity: 0.9"/>
    <path clip-path="url(#p89a552c275)" style="fill: #115ca5; fill-opacity: 0.9"/>
    <path clip-path="url(#p89a552c275)" style="fill: #0c56a0; fill-opacity: 0.9"/>
    <path clip-path="url(#p89a552c275)" style="fill: #084f99; fill-opacity: 0.9"/>
    <path clip-path="url(#p89a552c275)" style="fill: #08488e; fill-opacity: 0.9"/>
    <path clip-path="url(#p89a552c275)" style="fill: #084184; fill-opacity: 0.9"/>
    <path clip-path="url(#p89a552c275)" style="fill: #083a7a; fill-opacity: 0.9"/>
    <path clip-path="url(#p89a552c275)" style="fill: #083370; fill-opacity: 0.9"/>
    <path clip-path="url(#p89a552c275)" style="fill: #08306b; fill-opacity: 0.9"/>
   </g>
   <g id="QuadContourSet_2">
    <path clip-path="url(#p89a552c275)" style="fill: none"/>
    <path clip-path="url(#p89a552c275)" style="fill: none"/>
    <path clip-path="url(#p89a552c275)" style="fill: none"/>
    <path clip-path="url(#p89a552c275)" style="fill: none"/>
    <path clip-path="url(#p89a552c275)" style="fill: none"/>
    <path clip-path="url(#p89a552c275)" style="fill: none"/>
    <path clip-path="url(#p89a552c275)" style="fill: none"/>
    <path clip-path="url(#p89a552c275)" style="fill: none"/>
    <path clip-path="url(#p89a552c275)" style="fill: none"/>
    <path clip-path="url(#p89a552c275)" style="fill: none"/>
    <path clip-path="url(#p89a552c275)" style="fill: none"/>
    <path clip-path="url(#p89a552c275)" style="fill: none"/>
    <path clip-path="url(#p89a552c275)" style="fill: none"/>
    <path clip-path="url(#p89a552c275)" style="fill: none"/>
    <path clip-path="url(#p89a552c275)" style="fill: none"/>
    <path clip-path="url(#p89a552c275)" style="fill: none"/>
    <path clip-path="url(#p89a552c275)" style="fill: none"/>
    <path clip-path="url(#p89a552c275)" style="fill: none"/>
    <path clip-path="url(#p89a552c275)" style="fill: none"/>
    <path clip-path="url(#p89a552c275)" style="fill: none"/>
    <path clip-path="url(#p89a552c275)" style="fill: none"/>
    <path clip-path="url(#p89a552c275)" style="fill: none"/>
    <path clip-path="url(#p89a552c275)" style="fill: none"/>
    <path clip-path="url(#p89a552c275)" style="fill: none"/>
    <path clip-path="url(#p89a552c275)" style="fill: none"/>
    <path clip-path="url(#p89a552c275)" style="fill: none"/>
    <path clip-path="url(#p89a552c275)" style="fill: none"/>
    <path clip-path="url(#p89a552c275)" style="fill: none"/>
    <path clip-path="url(#p89a552c275)" style="fill: none"/>
    <path clip-path="url(#p89a552c275)" style="fill: none"/>
    <path clip-path="url(#p89a552c275)" style="fill: none"/>
    <path clip-path="url(#p89a552c275)" style="fill: none"/>
    <path clip-path="url(#p89a552c275)" style="fill: none"/>
    <path clip-path="url(#p89a552c275)" style="fill: none"/>
    <path clip-path="url(#p89a552c275)" style="fill: none"/>
    <path clip-path="url(#p89a552c275)" style="fill: none"/>
    <path clip-path="url(#p89a552c275)" style="fill: none"/>
    <path clip-path="url(#p89a552c275)" style="fill: none"/>
    <path clip-path="url(#p89a552c275)" style="fill: none"/>
   </g>
  </g>
 </g>
 <defs>
  <clipPath id="p89a552c275">
   <rect x="0" y="0" width="576" height="818.525063"/>
  </clipPath>
 </defs>
</svg>
