<?xml version="1.0" encoding="utf-8" standalone="no"?>
<!DOCTYPE svg PUBLIC "-//W3C//DTD SVG 1.1//EN"
  "http://www.w3.org/Graphics/SVG/1.1/DTD/svg11.dtd">
<svg xmlns:xlink="http://www.w3.org/1999/xlink" width="576pt" height="818.81369pt" viewBox="0 0 576 818.81369" xmlns="http://www.w3.org/2000/svg" version="1.1">
 <metadata>
  <rdf:RDF xmlns:dc="http://purl.org/dc/elements/1.1/" xmlns:cc="http://creativecommons.org/ns#" xmlns:rdf="http://www.w3.org/1999/02/22-rdf-syntax-ns#">
   <cc:Work>
    <dc:type rdf:resource="http://purl.org/dc/dcmitype/StillImage"/>
    <dc:date>2025-07-25T22:44:23.026578</dc:date>
    <dc:format>image/svg+xml</dc:format>
    <dc:creator>
     <cc:Agent>
      <dc:title>Matplotlib v3.10.3, https://matplotlib.org/</dc:title>
     </cc:Agent>
    </dc:creator>
   </cc:Work>
  </rdf:RDF>
 </metadata>
 <defs>
  <style type="text/css">*{stroke-linejoin: round; stroke-linecap: butt}</style>
 </defs>
 <g id="figure_1">
  <g id="patch_1">
   <path d="M 0 818.81369 
L 576 818.81369 
L 576 0 
L 0 0 
L 0 818.81369 
z
" style="fill: none; opacity: 0"/>
  </g>
  <g id="axes_1">
   <g id="QuadContourSet_1">
    <path d="M 3.291429 818.81369 
L 6.582857 818.81369 
L 9.874286 818.81369 
L 13.165714 818.81369 
L 16.457143 818.81369 
L 19.748571 818.81369 
L 23.04 818.81369 
L 26.331429 818.81369 
L 29.622857 818.81369 
L 32.914286 818.81369 
L 36.205714 818.81369 
L 39.497143 818.81369 
L 42.788571 818.81369 
L 46.08 818.81369 
L 49.371429 818.81369 
L 52.662857 818.81369 
L 55.954286 818.81369 
L 59.245714 818.81369 
L 62.537143 818.81369 
L 65.828571 818.81369 
L 69.12 818.81369 
L 72.411429 818.81369 
L 75.702857 818.81369 
L 78.994286 818.81369 
L 82.285714 818.81369 
L 85.577143 818.81369 
L 88.868571 818.81369 
L 92.16 818.81369 
L 95.451429 818.81369 
L 98.742857 818.81369 
L 102.034286 818.81369 
L 105.325714 818.81369 
L 108.617143 818.81369 
L 111.908571 818.81369 
L 115.2 818.81369 
L 118.491429 818.81369 
L 121.782857 818.81369 
L 125.074286 818.81369 
L 128.365714 818.81369 
L 131.657143 818.81369 
L 134.948571 818.81369 
L 138.24 818.81369 
L 141.531429 818.81369 
L 144.822857 818.81369 
L 148.114286 818.81369 
L 151.405714 818.81369 
L 154.697143 818.81369 
L 157.988571 818.81369 
L 161.28 818.81369 
L 164.571429 818.81369 
L 167.862857 818.81369 
L 171.154286 818.81369 
L 174.445714 818.81369 
L 177.737143 818.81369 
L 181.028571 818.81369 
L 184.32 818.81369 
L 187.611429 818.81369 
L 190.902857 818.81369 
L 194.194286 818.81369 
L 197.485714 818.81369 
L 200.777143 818.81369 
L 204.068571 818.81369 
L 207.36 818.81369 
L 210.651429 818.81369 
L 213.942857 818.81369 
L 217.234286 818.81369 
L 220.525714 818.81369 
L 223.817143 818.81369 
L 227.108571 818.81369 
L 230.4 818.81369 
L 233.691429 818.81369 
L 236.982857 818.81369 
L 240.274286 818.81369 
L 243.565714 818.81369 
L 246.857143 818.81369 
L 250.148571 818.81369 
L 253.44 818.81369 
L 256.731429 818.81369 
L 260.022857 818.81369 
L 263.314286 818.81369 
L 266.605714 818.81369 
L 269.897143 818.81369 
L 273.188571 818.81369 
L 276.48 818.81369 
L 279.771429 818.81369 
L 283.062857 818.81369 
L 286.354286 818.81369 
L 289.645714 818.81369 
L 292.937143 818.81369 
L 296.228571 818.81369 
L 299.52 818.81369 
L 302.811429 818.81369 
L 306.102857 818.81369 
L 309.394286 818.81369 
L 312.685714 818.81369 
L 315.977143 818.81369 
L 319.268571 818.81369 
L 322.56 818.81369 
L 325.851429 818.81369 
L 329.142857 818.81369 
L 332.434286 818.81369 
L 335.725714 818.81369 
L 339.017143 818.81369 
L 342.308571 818.81369 
L 345.6 818.81369 
L 348.891429 818.81369 
L 352.182857 818.81369 
L 355.474286 818.81369 
L 358.765714 818.81369 
L 362.057143 818.81369 
L 365.348571 818.81369 
L 368.64 818.81369 
L 371.931429 818.81369 
L 375.222857 818.81369 
L 378.514286 818.81369 
L 381.805714 818.81369 
L 385.097143 818.81369 
L 388.388571 818.81369 
L 391.68 818.81369 
L 394.971429 818.81369 
L 398.262857 818.81369 
L 401.554286 818.81369 
L 404.845714 818.81369 
L 408.137143 818.81369 
L 411.428571 818.81369 
L 414.72 818.81369 
L 418.011429 818.81369 
L 421.302857 818.81369 
L 424.594286 818.81369 
L 427.885714 818.81369 
L 431.177143 818.81369 
L 434.468571 818.81369 
L 437.76 818.81369 
L 441.051429 818.81369 
L 444.342857 818.81369 
L 447.634286 818.81369 
L 450.925714 818.81369 
L 454.217143 818.81369 
L 457.508571 818.81369 
L 460.8 818.81369 
L 464.091429 818.81369 
L 467.382857 818.81369 
L 470.674286 818.81369 
L 473.965714 818.81369 
L 477.257143 818.81369 
L 480.548571 818.81369 
L 483.84 818.81369 
L 487.131429 818.81369 
L 490.422857 818.81369 
L 493.714286 818.81369 
L 497.005714 818.81369 
L 500.297143 818.81369 
L 503.588571 818.81369 
L 506.88 818.81369 
L 510.171429 818.81369 
L 513.462857 818.81369 
L 516.754286 818.81369 
L 520.045714 818.81369 
L 523.337143 818.81369 
L 526.628571 818.81369 
L 529.92 818.81369 
L 533.211429 818.81369 
L 536.502857 818.81369 
L 539.794286 818.81369 
L 543.085714 818.81369 
L 546.377143 818.81369 
L 549.668571 818.81369 
L 552.96 818.81369 
L 556.251429 818.81369 
L 559.542857 818.81369 
L 562.834286 818.81369 
L 566.125714 818.81369 
L 569.417143 818.81369 
L 572.708571 818.81369 
L 576 818.81369 
L 576 815.525281 
L 576 812.236873 
L 576 808.948465 
L 576 805.660056 
L 576 802.371648 
L 576 799.08324 
L 576 795.794831 
L 576 792.506423 
L 576 789.218014 
L 576 785.929606 
L 576 782.641198 
L 576 779.352789 
L 576 776.064381 
L 576 772.775972 
L 576 769.487564 
L 576 766.199156 
L 576 762.910747 
L 576 759.622339 
L 576 756.33393 
L 576 753.045522 
L 576 749.757114 
L 576 746.468705 
L 576 743.180297 
L 576 739.891888 
L 576 736.60348 
L 576 733.315072 
L 576 730.026663 
L 576 726.738255 
L 576 723.449846 
L 576 720.161438 
L 576 716.87303 
L 576 713.584621 
L 576 710.296213 
L 576 707.007804 
L 576 703.719396 
L 576 700.430988 
L 576 697.142579 
L 576 693.854171 
L 576 690.565763 
L 576 687.277354 
L 576 683.988946 
L 576 680.700537 
L 576 677.412129 
L 576 674.123721 
L 576 670.835312 
L 576 667.546904 
L 576 664.258495 
L 576 660.970087 
L 576 657.681679 
L 576 654.39327 
L 576 651.104862 
L 576 647.816453 
L 576 644.528045 
L 576 641.239637 
L 576 637.951228 
L 576 634.66282 
L 576 631.374411 
L 576 628.086003 
L 576 624.797595 
L 576 621.509186 
L 576 618.220778 
L 576 614.932369 
L 576 611.643961 
L 576 608.355553 
L 576 605.067144 
L 576 601.778736 
L 576 598.490328 
L 576 595.201919 
L 576 591.913511 
L 576 588.625102 
L 576 585.336694 
L 576 582.048286 
L 576 578.759877 
L 576 575.471469 
L 576 572.18306 
L 576 568.894652 
L 576 565.606244 
L 576 562.317835 
L 576 559.029427 
L 576 555.741018 
L 576 552.45261 
L 576 549.164202 
L 576 545.875793 
L 576 542.587385 
L 576 539.298976 
L 576 536.010568 
L 576 532.72216 
L 576 529.433751 
L 576 526.145343 
L 576 522.856934 
L 576 519.568526 
L 576 516.280118 
L 576 512.991709 
L 576 509.703301 
L 576 506.414893 
L 576 503.126484 
L 576 499.838076 
L 576 496.549667 
L 576 493.261259 
L 576 489.972851 
L 576 486.684442 
L 576 483.396034 
L 576 480.107625 
L 576 476.819217 
L 576 473.530809 
L 576 470.2424 
L 576 466.953992 
L 576 463.665583 
L 576 460.377175 
L 576 457.088767 
L 576 453.800358 
L 576 450.51195 
L 576 447.223541 
L 576 443.935133 
L 576 440.646725 
L 576 437.358316 
L 576 434.069908 
L 576 430.781499 
L 576 427.493091 
L 576 424.204683 
L 576 420.916274 
L 576 417.627866 
L 576 414.339458 
L 576 411.051049 
L 576 407.762641 
L 576 404.474232 
L 576 401.185824 
L 576 397.897416 
L 576 394.609007 
L 576 391.320599 
L 576 388.03219 
L 576 384.743782 
L 576 381.455374 
L 576 378.166965 
L 576 374.878557 
L 576 371.590148 
L 576 368.30174 
L 576 365.013332 
L 576 361.724923 
L 576 358.436515 
L 576 355.148106 
L 576 351.859698 
L 576 348.57129 
L 576 345.282881 
L 576 341.994473 
L 576 338.706064 
L 576 335.417656 
L 576 332.129248 
L 576 328.840839 
L 576 325.552431 
L 576 322.264023 
L 576 318.975614 
L 576 315.687206 
L 576 312.398797 
L 576 309.110389 
L 576 305.821981 
L 576 302.533572 
L 576 299.245164 
L 576 295.956755 
L 576 292.668347 
L 576 289.379939 
L 576 286.09153 
L 576 282.803122 
L 576 279.514713 
L 576 276.226305 
L 576 272.937897 
L 576 269.649488 
L 576 266.36108 
L 576 263.072671 
L 576 259.784263 
L 576 256.495855 
L 576 253.207446 
L 576 249.919038 
L 576 246.630629 
L 576 243.342221 
L 576 240.053813 
L 576 236.765404 
L 576 233.476996 
L 576 230.188588 
L 576 226.900179 
L 576 223.611771 
L 576 220.323362 
L 576 217.034954 
L 576 213.746546 
L 576 210.458137 
L 576 207.169729 
L 576 203.88132 
L 576 200.592912 
L 576 197.304504 
L 576 194.016095 
L 576 190.727687 
L 576 187.439278 
L 576 184.15087 
L 576 180.862462 
L 576 177.574053 
L 576 174.285645 
L 576 170.997236 
L 576 167.708828 
L 576 164.42042 
L 576 161.132011 
L 576 157.843603 
L 576 154.555194 
L 576 151.266786 
L 576 147.978378 
L 576 144.689969 
L 576 141.401561 
L 576 138.113153 
L 576 134.824744 
L 576 131.536336 
L 576 128.247927 
L 576 124.959519 
L 576 121.671111 
L 576 118.382702 
L 576 115.094294 
L 576 111.805885 
L 576 108.517477 
L 576 105.229069 
L 576 101.94066 
L 576 98.652252 
L 576 95.363843 
L 576 92.075435 
L 576 88.787027 
L 576 85.498618 
L 576 82.21021 
L 576 78.921801 
L 576 75.633393 
L 576 72.344985 
L 576 69.056576 
L 576 65.768168 
L 576 62.479759 
L 576 59.191351 
L 576 55.902943 
L 576 52.614534 
L 576 49.326126 
L 576 46.037718 
L 576 42.749309 
L 576 39.460901 
L 576 36.172492 
L 576 32.884084 
L 576 29.595676 
L 576 26.307267 
L 576 23.018859 
L 576 19.73045 
L 576 16.442042 
L 576 13.153634 
L 576 9.865225 
L 576 6.576817 
L 576 3.288408 
L 576 0 
L 572.708571 0 
L 569.417143 0 
L 566.125714 0 
L 562.834286 0 
L 559.542857 0 
L 556.251429 0 
L 552.96 0 
L 549.668571 0 
L 546.377143 0 
L 543.085714 0 
L 539.794286 0 
L 536.502857 0 
L 533.211429 0 
L 529.92 0 
L 526.628571 0 
L 523.337143 0 
L 520.045714 0 
L 516.754286 0 
L 513.462857 0 
L 510.171429 0 
L 506.88 0 
L 503.588571 0 
L 500.297143 0 
L 497.005714 0 
L 493.714286 0 
L 490.422857 0 
L 487.131429 0 
L 483.84 0 
L 480.548571 0 
L 477.257143 0 
L 473.965714 0 
L 470.674286 0 
L 467.382857 0 
L 464.091429 0 
L 460.8 0 
L 457.508571 0 
L 454.217143 0 
L 450.925714 0 
L 447.634286 0 
L 444.342857 0 
L 441.051429 0 
L 437.76 0 
L 434.468571 0 
L 431.177143 0 
L 427.885714 0 
L 424.594286 0 
L 421.302857 0 
L 418.011429 0 
L 414.72 0 
L 411.428571 0 
L 408.137143 0 
L 404.845714 0 
L 401.554286 0 
L 398.262857 0 
L 394.971429 0 
L 391.68 0 
L 388.388571 0 
L 385.097143 0 
L 381.805714 0 
L 378.514286 0 
L 375.222857 0 
L 371.931429 0 
L 368.64 0 
L 365.348571 0 
L 362.057143 0 
L 358.765714 0 
L 355.474286 0 
L 352.182857 0 
L 348.891429 0 
L 345.6 0 
L 342.308571 0 
L 339.017143 0 
L 335.725714 0 
L 332.434286 0 
L 329.142857 0 
L 325.851429 0 
L 322.56 0 
L 319.268571 0 
L 315.977143 0 
L 312.685714 0 
L 309.394286 0 
L 306.102857 0 
L 302.811429 0 
L 299.52 0 
L 296.228571 0 
L 292.937143 0 
L 289.645714 0 
L 286.354286 0 
L 283.062857 0 
L 279.771429 0 
L 276.48 0 
L 273.188571 0 
L 269.897143 0 
L 266.605714 0 
L 263.314286 0 
L 260.022857 0 
L 256.731429 0 
L 253.44 0 
L 250.148571 0 
L 246.857143 0 
L 243.565714 0 
L 240.274286 0 
L 236.982857 0 
L 233.691429 0 
L 230.4 0 
L 227.108571 0 
L 223.817143 0 
L 220.525714 0 
L 217.234286 0 
L 213.942857 0 
L 210.651429 0 
L 207.36 0 
L 204.068571 0 
L 200.777143 0 
L 197.485714 0 
L 194.194286 0 
L 190.902857 0 
L 187.611429 0 
L 184.32 0 
L 181.028571 0 
L 177.737143 0 
L 174.445714 0 
L 171.154286 0 
L 167.862857 0 
L 164.571429 0 
L 161.28 0 
L 157.988571 0 
L 154.697143 0 
L 151.405714 0 
L 148.114286 0 
L 144.822857 0 
L 141.531429 0 
L 138.24 0 
L 134.948571 0 
L 131.657143 0 
L 128.365714 0 
L 125.074286 0 
L 121.782857 0 
L 118.491429 0 
L 115.2 0 
L 111.908571 0 
L 108.617143 0 
L 105.325714 0 
L 102.034286 0 
L 98.742857 0 
L 95.451429 0 
L 92.16 0 
L 88.868571 0 
L 85.577143 0 
L 82.285714 0 
L 78.994286 0 
L 75.702857 0 
L 72.411429 0 
L 69.12 0 
L 65.828571 0 
L 62.537143 0 
L 59.245714 0 
L 55.954286 0 
L 52.662857 0 
L 49.371429 0 
L 46.08 0 
L 42.788571 0 
L 39.497143 0 
L 36.205714 0 
L 32.914286 0 
L 29.622857 0 
L 26.331429 0 
L 23.04 0 
L 19.748571 0 
L 16.457143 0 
L 13.165714 0 
L 9.874286 0 
L 6.582857 0 
L 3.291429 0 
L 0 0 
L 0 3.288408 
L 0 6.576817 
L 0 9.865225 
L 0 13.153634 
L 0 16.442042 
L 0 19.73045 
L 0 23.018859 
L 0 26.307267 
L 0 29.595676 
L 0 32.884084 
L 0 36.172492 
L 0 39.460901 
L 0 42.749309 
L 0 46.037718 
L 0 49.326126 
L 0 52.614534 
L 0 55.902943 
L 0 59.191351 
L 0 62.479759 
L 0 65.768168 
L 0 69.056576 
L 0 72.344985 
L 0 75.633393 
L 0 78.921801 
L 0 82.21021 
L 0 85.498618 
L 0 88.787027 
L 0 92.075435 
L 0 95.363843 
L 0 98.652252 
L 0 101.94066 
L 0 105.229069 
L 0 108.517477 
L 0 111.805885 
L 0 115.094294 
L 0 118.382702 
L 0 121.671111 
L 0 124.959519 
L 0 128.247927 
L 0 131.536336 
L 0 134.824744 
L 0 138.113153 
L 0 141.401561 
L 0 144.689969 
L 0 147.978378 
L 0 151.266786 
L 0 154.555194 
L 0 157.843603 
L 0 161.132011 
L 0 164.42042 
L 0 167.708828 
L 0 170.997236 
L 0 174.285645 
L 0 177.574053 
L 0 180.862462 
L 0 184.15087 
L 0 187.439278 
L 0 190.727687 
L 0 194.016095 
L 0 197.304504 
L 0 200.592912 
L 0 203.88132 
L 0 207.169729 
L 0 210.458137 
L 0 213.746546 
L 0 217.034954 
L 0 220.323362 
L 0 223.611771 
L 0 226.900179 
L 0 230.188588 
L 0 233.476996 
L 0 236.765404 
L 0 240.053813 
L 0 243.342221 
L 0 246.630629 
L 0 249.919038 
L 0 253.207446 
L 0 256.495855 
L 0 259.784263 
L 0 263.072671 
L 0 266.36108 
L 0 269.649488 
L 0 272.937897 
L 0 276.226305 
L 0 279.514713 
L 0 282.803122 
L 0 286.09153 
L 0 289.379939 
L 0 292.668347 
L 0 295.956755 
L 0 299.245164 
L 0 302.533572 
L 0 305.821981 
L 0 309.110389 
L 0 312.398797 
L 0 315.687206 
L 0 318.975614 
L 0 322.264023 
L 0 325.552431 
L 0 328.840839 
L 0 332.129248 
L 0 335.417656 
L 0 338.706064 
L 0 341.994473 
L 0 345.282881 
L 0 348.57129 
L 0 351.859698 
L 0 355.148106 
L 0 358.436515 
L 0 361.724923 
L 0 365.013332 
L 0 368.30174 
L 0 371.590148 
L 0 374.878557 
L 0 378.166965 
L 0 381.455374 
L 0 384.743782 
L 0 388.03219 
L 0 391.320599 
L 0 394.609007 
L 0 397.897416 
L 0 401.185824 
L 0 404.474232 
L 0 407.762641 
L 0 411.051049 
L 0 414.339458 
L 0 417.627866 
L 0 420.916274 
L 0 424.204683 
L 0 427.493091 
L 0 430.781499 
L 0 434.069908 
L 0 437.358316 
L 0 440.646725 
L 0 443.935133 
L 0 447.223541 
L 0 450.51195 
L 0 453.800358 
L 0 457.088767 
L 0 460.377175 
L 0 463.665583 
L 0 466.953992 
L 0 470.2424 
L 0 473.530809 
L 0 476.819217 
L 0 480.107625 
L 0 483.396034 
L 0 486.684442 
L 0 489.972851 
L 0 493.261259 
L 0 496.549667 
L 0 499.838076 
L 0 503.126484 
L 0 506.414893 
L 0 509.703301 
L 0 512.991709 
L 0 516.280118 
L 0 519.568526 
L 0 522.856934 
L 0 526.145343 
L 0 529.433751 
L 0 532.72216 
L 0 536.010568 
L 0 539.298976 
L 0 542.587385 
L 0 545.875793 
L 0 549.164202 
L 0 552.45261 
L 0 555.741018 
L 0 559.029427 
L 0 562.317835 
L 0 565.606244 
L 0 568.894652 
L 0 572.18306 
L 0 575.471469 
L 0 578.759877 
L 0 582.048286 
L 0 585.336694 
L 0 588.625102 
L 0 591.913511 
L 0 595.201919 
L 0 598.490328 
L 0 601.778736 
L 0 605.067144 
L 0 608.355553 
L 0 611.643961 
L 0 614.932369 
L 0 618.220778 
L 0 621.509186 
L 0 624.797595 
L 0 628.086003 
L 0 631.374411 
L 0 634.66282 
L 0 637.951228 
L 0 641.239637 
L 0 644.528045 
L 0 647.816453 
L 0 651.104862 
L 0 654.39327 
L 0 657.681679 
L 0 660.970087 
L 0 664.258495 
L 0 667.546904 
L 0 670.835312 
L 0 674.123721 
L 0 677.412129 
L 0 680.700537 
L 0 683.988946 
L 0 687.277354 
L 0 690.565763 
L 0 693.854171 
L 0 697.142579 
L 0 700.430988 
L 0 703.719396 
L 0 707.007804 
L 0 710.296213 
L 0 713.584621 
L 0 716.87303 
L 0 720.161438 
L 0 723.449846 
L 0 726.738255 
L 0 730.026663 
L 0 733.315072 
L 0 736.60348 
L 0 739.891888 
L 0 743.180297 
L 0 746.468705 
L 0 749.757114 
L 0 753.045522 
L 0 756.33393 
L 0 759.622339 
L 0 762.910747 
L 0 766.199156 
L 0 769.487564 
L 0 772.775972 
L 0 776.064381 
L 0 779.352789 
L 0 782.641198 
L 0 785.929606 
L 0 789.218014 
L 0 792.506423 
L 0 795.794831 
L 0 799.08324 
L 0 802.371648 
L 0 805.660056 
L 0 808.948465 
L 0 812.236873 
L 0 815.525281 
L 0 818.81369 
z
" clip-path="url(#pf27ed57d80)" style="fill: #f5f9fe; fill-opacity: 0.9"/>
    <path clip-path="url(#pf27ed57d80)" style="fill: #eff6fc; fill-opacity: 0.9"/>
    <path clip-path="url(#pf27ed57d80)" style="fill: #eaf3fb; fill-opacity: 0.9"/>
    <path clip-path="url(#pf27ed57d80)" style="fill: #e5eff9; fill-opacity: 0.9"/>
    <path clip-path="url(#pf27ed57d80)" style="fill: #dfecf7; fill-opacity: 0.9"/>
    <path clip-path="url(#pf27ed57d80)" style="fill: #dae8f6; fill-opacity: 0.9"/>
    <path clip-path="url(#pf27ed57d80)" style="fill: #d6e5f4; fill-opacity: 0.9"/>
    <path clip-path="url(#pf27ed57d80)" style="fill: #d0e2f2; fill-opacity: 0.9"/>
    <path clip-path="url(#pf27ed57d80)" style="fill: #cbdef1; fill-opacity: 0.9"/>
    <path clip-path="url(#pf27ed57d80)" style="fill: #c6dbef; fill-opacity: 0.9"/>
    <path clip-path="url(#pf27ed57d80)" style="fill: #bed8ec; fill-opacity: 0.9"/>
    <path clip-path="url(#pf27ed57d80)" style="fill: #b5d4e9; fill-opacity: 0.9"/>
    <path clip-path="url(#pf27ed57d80)" style="fill: #add0e6; fill-opacity: 0.9"/>
    <path clip-path="url(#pf27ed57d80)" style="fill: #a5cde3; fill-opacity: 0.9"/>
    <path clip-path="url(#pf27ed57d80)" style="fill: #9cc9e1; fill-opacity: 0.9"/>
    <path clip-path="url(#pf27ed57d80)" style="fill: #91c3de; fill-opacity: 0.9"/>
    <path clip-path="url(#pf27ed57d80)" style="fill: #85bcdc; fill-opacity: 0.9"/>
    <path clip-path="url(#pf27ed57d80)" style="fill: #7cb7da; fill-opacity: 0.9"/>
    <path clip-path="url(#pf27ed57d80)" style="fill: #71b1d7; fill-opacity: 0.9"/>
    <path clip-path="url(#pf27ed57d80)" style="fill: #66abd4; fill-opacity: 0.9"/>
    <path clip-path="url(#pf27ed57d80)" style="fill: #5da5d1; fill-opacity: 0.9"/>
    <path clip-path="url(#pf27ed57d80)" style="fill: #56a0ce; fill-opacity: 0.9"/>
    <path clip-path="url(#pf27ed57d80)" style="fill: #4d99ca; fill-opacity: 0.9"/>
    <path clip-path="url(#pf27ed57d80)" style="fill: #4493c7; fill-opacity: 0.9"/>
    <path clip-path="url(#pf27ed57d80)" style="fill: #3c8cc3; fill-opacity: 0.9"/>
    <path clip-path="url(#pf27ed57d80)" style="fill: #3686c0; fill-opacity: 0.9"/>
    <path clip-path="url(#pf27ed57d80)" style="fill: #2f7fbc; fill-opacity: 0.9"/>
    <path clip-path="url(#pf27ed57d80)" style="fill: #2777b8; fill-opacity: 0.9"/>
    <path clip-path="url(#pf27ed57d80)" style="fill: #2070b4; fill-opacity: 0.9"/>
    <path clip-path="url(#pf27ed57d80)" style="fill: #1c6ab0; fill-opacity: 0.9"/>
    <path clip-path="url(#pf27ed57d80)" style="fill: #1663aa; fill-opacity: 0.9"/>
    <path clip-path="url(#pf27ed57d80)" style="fill: #115ca5; fill-opacity: 0.9"/>
    <path clip-path="url(#pf27ed57d80)" style="fill: #0c56a0; fill-opacity: 0.9"/>
    <path clip-path="url(#pf27ed57d80)" style="fill: #084f99; fill-opacity: 0.9"/>
    <path clip-path="url(#pf27ed57d80)" style="fill: #08488e; fill-opacity: 0.9"/>
    <path clip-path="url(#pf27ed57d80)" style="fill: #084184; fill-opacity: 0.9"/>
    <path clip-path="url(#pf27ed57d80)" style="fill: #083a7a; fill-opacity: 0.9"/>
    <path clip-path="url(#pf27ed57d80)" style="fill: #083370; fill-opacity: 0.9"/>
    <path clip-path="url(#pf27ed57d80)" style="fill: #08306b; fill-opacity: 0.9"/>
   </g>
   <g id="QuadContourSet_2">
    <path clip-path="url(#pf27ed57d80)" style="fill: none"/>
    <path clip-path="url(#pf27ed57d80)" style="fill: none"/>
    <path clip-path="url(#pf27ed57d80)" style="fill: none"/>
    <path clip-path="url(#pf27ed57d80)" style="fill: none"/>
    <path clip-path="url(#pf27ed57d80)" style="fill: none"/>
    <path clip-path="url(#pf27ed57d80)" style="fill: none"/>
    <path clip-path="url(#pf27ed57d80)" style="fill: none"/>
    <path clip-path="url(#pf27ed57d80)" style="fill: none"/>
    <path clip-path="url(#pf27ed57d80)" style="fill: none"/>
    <path clip-path="url(#pf27ed57d80)" style="fill: none"/>
    <path clip-path="url(#pf27ed57d80)" style="fill: none"/>
    <path clip-path="url(#pf27ed57d80)" style="fill: none"/>
    <path clip-path="url(#pf27ed57d80)" style="fill: none"/>
    <path clip-path="url(#pf27ed57d80)" style="fill: none"/>
    <path clip-path="url(#pf27ed57d80)" style="fill: none"/>
    <path clip-path="url(#pf27ed57d80)" style="fill: none"/>
    <path clip-path="url(#pf27ed57d80)" style="fill: none"/>
    <path clip-path="url(#pf27ed57d80)" style="fill: none"/>
    <path clip-path="url(#pf27ed57d80)" style="fill: none"/>
    <path clip-path="url(#pf27ed57d80)" style="fill: none"/>
    <path clip-path="url(#pf27ed57d80)" style="fill: none"/>
    <path clip-path="url(#pf27ed57d80)" style="fill: none"/>
    <path clip-path="url(#pf27ed57d80)" style="fill: none"/>
    <path clip-path="url(#pf27ed57d80)" style="fill: none"/>
    <path clip-path="url(#pf27ed57d80)" style="fill: none"/>
    <path clip-path="url(#pf27ed57d80)" style="fill: none"/>
    <path clip-path="url(#pf27ed57d80)" style="fill: none"/>
    <path clip-path="url(#pf27ed57d80)" style="fill: none"/>
    <path clip-path="url(#pf27ed57d80)" style="fill: none"/>
    <path clip-path="url(#pf27ed57d80)" style="fill: none"/>
    <path clip-path="url(#pf27ed57d80)" style="fill: none"/>
    <path clip-path="url(#pf27ed57d80)" style="fill: none"/>
    <path clip-path="url(#pf27ed57d80)" style="fill: none"/>
    <path clip-path="url(#pf27ed57d80)" style="fill: none"/>
    <path clip-path="url(#pf27ed57d80)" style="fill: none"/>
    <path clip-path="url(#pf27ed57d80)" style="fill: none"/>
    <path clip-path="url(#pf27ed57d80)" style="fill: none"/>
    <path clip-path="url(#pf27ed57d80)" style="fill: none"/>
    <path clip-path="url(#pf27ed57d80)" style="fill: none"/>
   </g>
  </g>
 </g>
 <defs>
  <clipPath id="pf27ed57d80">
   <rect x="0" y="0" width="576" height="818.81369"/>
  </clipPath>
 </defs>
</svg>
