<?xml version="1.0" encoding="utf-8" standalone="no"?>
<!DOCTYPE svg PUBLIC "-//W3C//DTD SVG 1.1//EN"
  "http://www.w3.org/Graphics/SVG/1.1/DTD/svg11.dtd">
<svg xmlns:xlink="http://www.w3.org/1999/xlink" width="576pt" height="818.81369pt" viewBox="0 0 576 818.81369" xmlns="http://www.w3.org/2000/svg" version="1.1">
 <metadata>
  <rdf:RDF xmlns:dc="http://purl.org/dc/elements/1.1/" xmlns:cc="http://creativecommons.org/ns#" xmlns:rdf="http://www.w3.org/1999/02/22-rdf-syntax-ns#">
   <cc:Work>
    <dc:type rdf:resource="http://purl.org/dc/dcmitype/StillImage"/>
    <dc:date>2025-07-25T22:43:52.371662</dc:date>
    <dc:format>image/svg+xml</dc:format>
    <dc:creator>
     <cc:Agent>
      <dc:title>Matplotlib v3.10.3, https://matplotlib.org/</dc:title>
     </cc:Agent>
    </dc:creator>
   </cc:Work>
  </rdf:RDF>
 </metadata>
 <defs>
  <style type="text/css">*{stroke-linejoin: round; stroke-linecap: butt}</style>
 </defs>
 <g id="figure_1">
  <g id="patch_1">
   <path d="M 0 818.81369 
L 576 818.81369 
L 576 0 
L 0 0 
L 0 818.81369 
z
" style="fill: none; opacity: 0"/>
  </g>
  <g id="axes_1">
   <g id="QuadContourSet_1">
    <path d="M 154.697143 815.816154 
L 157.988571 817.544671 
L 160.060033 818.81369 
L 161.046072 818.81369 
L 157.988571 816.940604 
L 155.317534 815.525281 
L 154.697143 814.985291 
L 151.405714 813.690054 
L 148.257497 812.236873 
L 148.114286 812.10703 
L 144.822857 810.607249 
L 141.531429 809.327591 
L 140.957176 808.948465 
L 138.24 807.794588 
L 134.948571 806.820289 
L 131.657143 805.752164 
L 131.49314 805.660056 
L 128.365714 803.393556 
L 126.014217 802.371648 
L 125.074286 801.895843 
L 121.782857 800.077683 
L 119.772026 799.083239 
L 118.491429 798.173735 
L 115.2 796.951473 
L 112.699134 795.794831 
L 111.908571 795.181332 
L 108.617143 793.906327 
L 105.58901 792.506423 
L 105.325714 792.27306 
L 102.034286 790.823851 
L 98.742857 789.33918 
L 98.481273 789.218014 
L 95.451429 787.673634 
L 92.16 786.289621 
L 91.383694 785.929606 
L 88.868571 784.520141 
L 85.577143 783.238127 
L 84.278837 782.641198 
L 82.285714 781.421435 
L 78.994286 780.212915 
L 77.122437 779.352789 
L 75.702857 778.380216 
L 72.411429 777.184117 
L 69.966036 776.064381 
L 69.12 775.406088 
L 65.828571 774.152044 
L 62.809636 772.775972 
L 62.537143 772.535468 
L 59.245714 771.085179 
L 55.954286 769.60916 
L 55.691423 769.487564 
L 52.662857 767.928313 
L 49.371429 766.588678 
L 48.473785 766.199156 
L 46.08 764.875902 
L 42.788571 763.732124 
L 40.895728 762.910747 
L 39.497143 761.982303 
L 36.205714 760.870515 
L 33.317672 759.622339 
L 32.914286 759.287227 
L 29.622857 757.959964 
L 26.331429 756.584898 
L 25.755852 756.33393 
L 23.04 754.913974 
L 19.748571 753.712713 
L 18.223936 753.045522 
L 16.457143 751.95293 
L 13.165714 750.852307 
L 10.539287 749.757114 
L 9.874286 749.257038 
L 6.582857 748.059599 
L 3.291429 746.733459 
L 2.653221 746.468705 
L 0 745.097117 
L 0 745.760524 
L 1.369916 746.468705 
L 3.291429 747.265824 
L 6.582857 748.610204 
L 9.255982 749.757114 
L 9.874286 750.030693 
L 13.165714 751.387432 
L 16.457143 752.712897 
L 16.99502 753.045522 
L 19.748571 754.250495 
L 23.04 755.56064 
L 24.519018 756.33393 
L 26.331429 757.124192 
L 29.622857 758.52273 
L 32.061945 759.622339 
L 32.914286 760.001051 
L 36.205714 761.420138 
L 39.497143 762.82653 
L 39.624005 762.910747 
L 42.788571 764.283973 
L 46.08 765.578894 
L 47.202062 766.199156 
L 49.371429 767.140527 
L 52.662857 768.546883 
L 54.489963 769.487564 
L 55.954286 770.164939 
L 59.245714 771.656692 
L 61.600137 772.775972 
L 62.537143 773.209278 
L 65.828571 774.715131 
L 68.73743 776.064381 
L 69.12 776.253983 
L 72.411429 777.749776 
L 75.702857 779.226567 
L 75.887092 779.352789 
L 78.994286 780.780563 
L 82.285714 782.177448 
L 83.043492 782.641198 
L 85.577143 783.806109 
L 88.868571 785.206824 
L 90.158341 785.929606 
L 92.16 786.857883 
L 95.451429 788.299615 
L 97.253191 789.218014 
L 98.742857 789.90803 
L 102.034286 791.407732 
L 104.3546 792.506423 
L 105.325714 792.955261 
L 108.617143 794.479249 
L 111.46026 795.794831 
L 111.908571 796.015354 
L 115.2 797.524639 
L 118.491429 799.029033 
L 118.567752 799.08324 
L 121.782857 800.673249 
L 124.558868 802.371648 
L 125.074286 802.686987 
L 128.365714 804.261684 
L 130.295255 805.660056 
L 131.657143 806.424919 
L 134.948571 808.373882 
L 138.24 808.565153 
L 139.142631 808.948465 
L 141.531429 810.525567 
L 144.822857 811.204013 
L 146.999741 812.236873 
L 148.114286 812.974779 
L 151.405714 814.27062 
L 154.123854 815.525281 
z
" clip-path="url(#p5ded0069c9)" style="fill: #f5f9fe; fill-opacity: 0.9"/>
    <path d="M 154.697143 816.454307 
L 157.988571 818.148738 
L 159.073995 818.81369 
L 160.060033 818.81369 
L 157.988571 817.544671 
L 154.697143 815.816154 
L 154.123854 815.525281 
L 151.405714 814.27062 
L 148.114286 812.974779 
L 146.999741 812.236873 
L 144.822857 811.204013 
L 141.531429 810.525567 
L 139.142631 808.948465 
L 138.24 808.565153 
L 134.948571 808.373882 
L 131.657143 806.424919 
L 130.295255 805.660056 
L 128.365714 804.261684 
L 125.074286 802.686987 
L 124.558868 802.371648 
L 121.782857 800.673249 
L 118.567752 799.083239 
L 118.491429 799.029033 
L 115.2 797.524639 
L 111.908571 796.015354 
L 111.46026 795.794831 
L 108.617143 794.479249 
L 105.325714 792.955261 
L 104.3546 792.506423 
L 102.034286 791.407732 
L 98.742857 789.90803 
L 97.253191 789.218014 
L 95.451429 788.299615 
L 92.16 786.857883 
L 90.158341 785.929606 
L 88.868571 785.206824 
L 85.577143 783.806109 
L 83.043492 782.641198 
L 82.285714 782.177448 
L 78.994286 780.780563 
L 75.887092 779.352789 
L 75.702857 779.226567 
L 72.411429 777.749776 
L 69.12 776.253983 
L 68.73743 776.064381 
L 65.828571 774.715131 
L 62.537143 773.209278 
L 61.600137 772.775972 
L 59.245714 771.656692 
L 55.954286 770.164939 
L 54.489963 769.487564 
L 52.662857 768.546883 
L 49.371429 767.140527 
L 47.202062 766.199156 
L 46.08 765.578894 
L 42.788571 764.283973 
L 39.624005 762.910747 
L 39.497143 762.82653 
L 36.205714 761.420138 
L 32.914286 760.001051 
L 32.061945 759.622339 
L 29.622857 758.52273 
L 26.331429 757.124192 
L 24.519018 756.33393 
L 23.04 755.56064 
L 19.748571 754.250495 
L 16.99502 753.045522 
L 16.457143 752.712897 
L 13.165714 751.387432 
L 9.874286 750.030693 
L 9.255982 749.757114 
L 6.582857 748.610204 
L 3.291429 747.265824 
L 1.369916 746.468705 
L 0 745.760524 
L 0 746.423931 
L 0.086611 746.468705 
L 3.291429 747.798189 
L 6.582857 749.160809 
L 7.972677 749.757114 
L 9.874286 750.598515 
L 13.165714 751.922557 
L 15.761561 753.045522 
L 16.457143 753.426076 
L 19.748571 754.788277 
L 23.04 756.207307 
L 23.282183 756.33393 
L 26.331429 757.663486 
L 29.622857 759.085497 
L 30.813649 759.622339 
L 32.914286 760.555695 
L 36.205714 761.969761 
L 38.362861 762.910747 
L 39.497143 763.487496 
L 42.788571 764.835823 
L 45.930339 766.199156 
L 46.08 766.288389 
L 49.371429 767.692376 
L 52.662857 769.165452 
L 53.288502 769.487564 
L 55.954286 770.720717 
L 59.245714 772.228205 
L 60.397951 772.775972 
L 62.537143 773.765211 
L 65.828571 775.278218 
L 67.523467 776.064381 
L 69.12 776.855626 
L 72.411429 778.315436 
L 74.659721 779.352789 
L 75.702857 779.91397 
L 78.994286 781.348211 
L 81.808148 782.641198 
L 82.285714 782.923317 
L 85.577143 784.37409 
L 88.868571 785.893508 
L 88.932987 785.929606 
L 92.16 787.426146 
L 95.451429 788.925596 
L 96.025109 789.218014 
L 98.742857 790.476879 
L 102.034286 791.991614 
L 103.121507 792.506423 
L 105.325714 793.525185 
L 108.617143 795.052171 
L 110.222113 795.794831 
L 111.908571 796.624393 
L 115.2 798.097806 
L 117.330683 799.08324 
L 118.491429 799.704472 
L 121.782857 801.268815 
L 123.585423 802.371648 
L 125.074286 803.282553 
L 128.365714 805.129812 
L 129.09737 805.660056 
L 131.657143 807.097675 
L 134.335146 808.948465 
L 134.948571 809.39737 
L 138.24 809.769572 
L 141.531429 811.723543 
L 144.822857 811.800776 
L 145.741986 812.236873 
L 148.114286 813.807501 
L 151.405714 814.851185 
L 152.866098 815.525281 
z
" clip-path="url(#p5ded0069c9)" style="fill: #eff6fc; fill-opacity: 0.9"/>
    <path d="M 154.697143 817.092461 
L 157.988571 818.752805 
L 158.087956 818.81369 
L 159.073995 818.81369 
L 157.988571 818.148738 
L 154.697143 816.454307 
L 152.866098 815.525281 
L 151.405714 814.851185 
L 148.114286 813.807501 
L 145.741986 812.236873 
L 144.822857 811.800776 
L 141.531429 811.723543 
L 138.24 809.769572 
L 134.948571 809.39737 
L 134.335146 808.948465 
L 131.657143 807.097675 
L 129.09737 805.660056 
L 128.365714 805.129812 
L 125.074286 803.282553 
L 123.585423 802.371648 
L 121.782857 801.268815 
L 118.491429 799.704472 
L 117.330683 799.08324 
L 115.2 798.097806 
L 111.908571 796.624393 
L 110.222113 795.794831 
L 108.617143 795.052171 
L 105.325714 793.525185 
L 103.121507 792.506423 
L 102.034286 791.991614 
L 98.742857 790.476879 
L 96.025109 789.218014 
L 95.451429 788.925596 
L 92.16 787.426146 
L 88.932987 785.929606 
L 88.868571 785.893508 
L 85.577143 784.37409 
L 82.285714 782.923317 
L 81.808148 782.641198 
L 78.994286 781.348211 
L 75.702857 779.91397 
L 74.659721 779.352789 
L 72.411429 778.315436 
L 69.12 776.855626 
L 67.523467 776.064381 
L 65.828571 775.278218 
L 62.537143 773.765211 
L 60.397951 772.775972 
L 59.245714 772.228205 
L 55.954286 770.720717 
L 53.288502 769.487564 
L 52.662857 769.165452 
L 49.371429 767.692376 
L 46.08 766.288389 
L 45.930339 766.199156 
L 42.788571 764.835823 
L 39.497143 763.487496 
L 38.362861 762.910747 
L 36.205714 761.969761 
L 32.914286 760.555695 
L 30.813649 759.622339 
L 29.622857 759.085497 
L 26.331429 757.663486 
L 23.282183 756.33393 
L 23.04 756.207307 
L 19.748571 754.788277 
L 16.457143 753.426076 
L 15.761561 753.045522 
L 13.165714 751.922557 
L 9.874286 750.598515 
L 7.972677 749.757114 
L 6.582857 749.160809 
L 3.291429 747.798189 
L 0.086611 746.468705 
L 0 746.423931 
L 0 746.468705 
L 0 747.185382 
L 3.291429 748.330554 
L 6.582857 749.711413 
L 6.689371 749.757114 
L 9.874286 751.166337 
L 13.165714 752.457682 
L 14.524565 753.045522 
L 16.457143 754.102839 
L 19.748571 755.326059 
L 22.051717 756.33393 
L 23.04 756.980993 
L 26.331429 758.20278 
L 29.566245 759.622339 
L 29.622857 759.668031 
L 32.914286 761.110339 
L 36.205714 762.519384 
L 37.102888 762.910747 
L 39.497143 764.128156 
L 42.788571 765.387672 
L 44.658616 766.199156 
L 46.08 767.046639 
L 49.371429 768.244225 
L 52.08552 769.487564 
L 52.662857 769.915486 
L 55.954286 771.276496 
L 59.195796 772.775972 
L 59.245714 772.818298 
L 62.537143 774.321145 
L 65.828571 775.841304 
L 66.309504 776.064381 
L 69.12 777.457269 
L 72.411429 778.881096 
L 73.433747 779.352789 
L 75.702857 780.573513 
L 78.994286 781.915859 
L 80.572804 782.641198 
L 82.285714 783.653091 
L 85.577143 784.942072 
L 87.707633 785.929606 
L 88.868571 786.698882 
L 92.16 787.994408 
L 94.798481 789.218014 
L 95.451429 789.702282 
L 98.742857 791.045728 
L 101.889328 792.506423 
L 102.034286 792.628453 
L 105.325714 794.095108 
L 108.617143 795.625093 
L 108.983966 795.794831 
L 111.908571 797.233432 
L 115.2 798.670972 
L 116.091395 799.08324 
L 118.491429 800.36774 
L 121.782857 801.864381 
L 122.611978 802.371648 
L 125.074286 803.878119 
L 127.98684 805.660056 
L 128.365714 806.037117 
L 131.657143 807.770431 
L 133.361701 808.948465 
L 134.948571 810.109738 
L 138.24 811.403428 
L 139.792302 812.236873 
L 141.531429 812.820177 
L 144.822857 813.644893 
L 148.114286 814.640223 
L 151.405714 815.43175 
L 151.608343 815.525281 
z
" clip-path="url(#p5ded0069c9)" style="fill: #eaf3fb; fill-opacity: 0.9"/>
    <path d="M 144.822857 816.332618 
L 147.820147 815.525281 
L 148.114286 815.472945 
L 148.343693 815.525281 
L 151.405714 817.030427 
L 154.697143 817.730614 
L 156.84866 818.81369 
L 157.988571 818.81369 
L 158.087956 818.81369 
L 157.988571 818.752805 
L 154.697143 817.092461 
L 151.608343 815.525281 
L 151.405714 815.43175 
L 148.114286 814.640223 
L 144.822857 813.644893 
L 141.531429 812.820177 
L 139.792302 812.236873 
L 138.24 811.403428 
L 134.948571 810.109738 
L 133.361701 808.948465 
L 131.657143 807.770431 
L 128.365714 806.037117 
L 127.98684 805.660056 
L 125.074286 803.878119 
L 122.611978 802.371648 
L 121.782857 801.864381 
L 118.491429 800.36774 
L 116.091395 799.08324 
L 115.2 798.670972 
L 111.908571 797.233432 
L 108.983966 795.794831 
L 108.617143 795.625093 
L 105.325714 794.095108 
L 102.034286 792.628453 
L 101.889328 792.506423 
L 98.742857 791.045728 
L 95.451429 789.702282 
L 94.798481 789.218014 
L 92.16 787.994408 
L 88.868571 786.698882 
L 87.707633 785.929606 
L 85.577143 784.942072 
L 82.285714 783.653091 
L 80.572804 782.641198 
L 78.994286 781.915859 
L 75.702857 780.573513 
L 73.433747 779.352789 
L 72.411429 778.881096 
L 69.12 777.457269 
L 66.309504 776.064381 
L 65.828571 775.841304 
L 62.537143 774.321145 
L 59.245714 772.818298 
L 59.195796 772.775972 
L 55.954286 771.276496 
L 52.662857 769.915486 
L 52.08552 769.487564 
L 49.371429 768.244225 
L 46.08 767.046639 
L 44.658616 766.199156 
L 42.788571 765.387672 
L 39.497143 764.128156 
L 37.102888 762.910747 
L 36.205714 762.519384 
L 32.914286 761.110339 
L 29.622857 759.668031 
L 29.566245 759.622339 
L 26.331429 758.20278 
L 23.04 756.980993 
L 22.051717 756.33393 
L 19.748571 755.326059 
L 16.457143 754.102839 
L 14.524565 753.045522 
L 13.165714 752.457682 
L 9.874286 751.166337 
L 6.689371 749.757114 
L 6.582857 749.711413 
L 3.291429 748.330554 
L 0 747.185382 
L 0 747.953929 
L 3.291429 748.862919 
L 5.420504 749.757114 
L 6.582857 750.68431 
L 9.874286 751.734158 
L 13.165714 752.992807 
L 13.28757 753.045522 
L 16.457143 754.779601 
L 19.748571 755.86384 
L 20.822801 756.33393 
L 23.04 757.785605 
L 26.331429 758.742075 
L 28.337329 759.622339 
L 29.622857 760.659898 
L 32.914286 761.664983 
L 35.831705 762.910747 
L 36.205714 763.282975 
L 39.497143 764.768815 
L 42.788571 765.939521 
L 43.386893 766.199156 
L 46.08 767.804889 
L 49.371429 768.796075 
L 50.880885 769.487564 
L 52.662857 770.808362 
L 55.954286 771.832274 
L 57.994336 772.775972 
L 59.245714 773.837005 
L 62.537143 774.877079 
L 65.10309 776.064381 
L 65.828571 776.780025 
L 69.12 778.058912 
L 72.175417 779.352789 
L 72.411429 779.588108 
L 75.702857 781.233055 
L 78.994286 782.483507 
L 79.33746 782.641198 
L 82.285714 784.382864 
L 85.577143 785.510053 
L 86.48228 785.929606 
L 88.868571 787.510842 
L 92.16 788.562671 
L 93.573127 789.218014 
L 95.451429 790.611082 
L 98.742857 791.614577 
L 100.663975 792.506423 
L 102.034286 793.659998 
L 105.325714 794.665031 
L 107.754822 795.794831 
L 108.617143 796.63412 
L 111.908571 797.842471 
L 114.801389 799.08324 
L 115.2 799.481433 
L 118.491429 801.031009 
L 121.557927 802.371648 
L 121.782857 802.59635 
L 125.074286 804.473685 
L 127.013395 805.660056 
L 128.365714 807.005901 
L 131.657143 808.443186 
L 132.388256 808.948465 
L 134.948571 810.822106 
L 137.588744 812.236873 
L 138.24 812.887179 
L 141.531429 813.840826 
L 143.902671 815.525281 
z
" clip-path="url(#p5ded0069c9)" style="fill: #e5eff9; fill-opacity: 0.9"/>
    <path d="M 144.822857 817.593202 
L 146.867256 818.81369 
L 148.114286 818.81369 
L 151.405714 818.81369 
L 151.434235 818.81369 
L 154.697143 818.368768 
L 155.580976 818.81369 
L 156.84866 818.81369 
L 154.697143 817.730614 
L 151.405714 817.030427 
L 148.343693 815.525281 
L 148.114286 815.472945 
L 147.820147 815.525281 
L 144.822857 816.332618 
L 143.902671 815.525281 
L 141.531429 813.840826 
L 138.24 812.887179 
L 137.588744 812.236873 
L 134.948571 810.822106 
L 132.388256 808.948465 
L 131.657143 808.443186 
L 128.365714 807.005901 
L 127.013395 805.660056 
L 125.074286 804.473685 
L 121.782857 802.59635 
L 121.557927 802.371648 
L 118.491429 801.031009 
L 115.2 799.481433 
L 114.801389 799.08324 
L 111.908571 797.842471 
L 108.617143 796.63412 
L 107.754822 795.794831 
L 105.325714 794.665031 
L 102.034286 793.659998 
L 100.663975 792.506423 
L 98.742857 791.614577 
L 95.451429 790.611082 
L 93.573127 789.218014 
L 92.16 788.562671 
L 88.868571 787.510842 
L 86.48228 785.929606 
L 85.577143 785.510053 
L 82.285714 784.382864 
L 79.33746 782.641198 
L 78.994286 782.483507 
L 75.702857 781.233055 
L 72.411429 779.588108 
L 72.175417 779.352789 
L 69.12 778.058912 
L 65.828571 776.780025 
L 65.10309 776.064381 
L 62.537143 774.877079 
L 59.245714 773.837005 
L 57.994336 772.775972 
L 55.954286 771.832274 
L 52.662857 770.808362 
L 50.880885 769.487564 
L 49.371429 768.796075 
L 46.08 767.804889 
L 43.386893 766.199156 
L 42.788571 765.939521 
L 39.497143 764.768815 
L 36.205714 763.282975 
L 35.831705 762.910747 
L 32.914286 761.664983 
L 29.622857 760.659898 
L 28.337329 759.622339 
L 26.331429 758.742075 
L 23.04 757.785605 
L 20.822801 756.33393 
L 19.748571 755.86384 
L 16.457143 754.779601 
L 13.28757 753.045522 
L 13.165714 752.992807 
L 9.874286 751.734158 
L 6.582857 750.68431 
L 5.420504 749.757114 
L 3.291429 748.862919 
L 0 747.953929 
L 0 748.722475 
L 3.291429 749.395284 
L 4.152944 749.757114 
L 6.582857 751.695429 
L 9.874286 752.30198 
L 11.823673 753.045522 
L 13.165714 754.377524 
L 16.457143 755.456363 
L 19.457341 756.33393 
L 19.748571 756.622301 
L 23.04 758.590218 
L 26.331429 759.281369 
L 27.108414 759.622339 
L 29.622857 761.651766 
L 32.914286 762.219627 
L 34.5328 762.910747 
L 36.205714 764.575694 
L 39.497143 765.409474 
L 41.799497 766.199156 
L 42.788571 767.181862 
L 46.08 768.563139 
L 49.371429 769.347924 
L 49.67625 769.487564 
L 52.662857 771.701238 
L 55.954286 772.388053 
L 56.792875 772.775972 
L 59.245714 774.855713 
L 62.537143 775.433012 
L 63.90163 776.064381 
L 65.828571 777.965195 
L 69.12 778.660555 
L 70.754672 779.352789 
L 72.411429 781.004689 
L 75.702857 781.892598 
L 77.71438 782.641198 
L 78.994286 783.916715 
L 82.285714 785.112637 
L 84.954221 785.929606 
L 85.577143 786.550048 
L 88.868571 788.322802 
L 92.16 789.130934 
L 92.347774 789.218014 
L 95.451429 791.519881 
L 98.742857 792.183426 
L 99.438621 792.506423 
L 102.034286 794.691544 
L 105.325714 795.234954 
L 106.529469 795.794831 
L 108.617143 797.826745 
L 111.908571 798.45151 
L 113.381432 799.08324 
L 115.2 800.899903 
L 118.491429 801.694277 
L 120.040806 802.371648 
L 121.782857 804.11193 
L 125.074286 805.069251 
L 126.03995 805.660056 
L 128.365714 807.974684 
L 131.003785 808.948465 
L 131.657143 809.601134 
L 134.948571 811.534474 
L 136.259356 812.236873 
L 138.24 814.214631 
L 141.531429 814.861475 
L 142.465882 815.525281 
z
" clip-path="url(#p5ded0069c9)" style="fill: #dfecf7; fill-opacity: 0.9"/>
    <path d="M 138.24 817.804579 
L 139.329932 818.81369 
L 141.531429 818.81369 
L 144.822857 818.81369 
L 146.867256 818.81369 
L 144.822857 817.593202 
L 142.465882 815.525281 
L 141.531429 814.861475 
L 138.24 814.214631 
L 136.259356 812.236873 
L 134.948571 811.534474 
L 131.657143 809.601134 
L 131.003785 808.948465 
L 128.365714 807.974684 
L 126.03995 805.660056 
L 125.074286 805.069251 
L 121.782857 804.11193 
L 120.040806 802.371648 
L 118.491429 801.694277 
L 115.2 800.899903 
L 113.381432 799.08324 
L 111.908571 798.45151 
L 108.617143 797.826745 
L 106.529469 795.794831 
L 105.325714 795.234954 
L 102.034286 794.691544 
L 99.438621 792.506423 
L 98.742857 792.183426 
L 95.451429 791.519881 
L 92.347774 789.218014 
L 92.16 789.130934 
L 88.868571 788.322802 
L 85.577143 786.550048 
L 84.954221 785.929606 
L 82.285714 785.112637 
L 78.994286 783.916715 
L 77.71438 782.641198 
L 75.702857 781.892598 
L 72.411429 781.004689 
L 70.754672 779.352789 
L 69.12 778.660555 
L 65.828571 777.965195 
L 63.90163 776.064381 
L 62.537143 775.433012 
L 59.245714 774.855713 
L 56.792875 772.775972 
L 55.954286 772.388053 
L 52.662857 771.701238 
L 49.67625 769.487564 
L 49.371429 769.347924 
L 46.08 768.563139 
L 42.788571 767.181862 
L 41.799497 766.199156 
L 39.497143 765.409474 
L 36.205714 764.575694 
L 34.5328 762.910747 
L 32.914286 762.219627 
L 29.622857 761.651766 
L 27.108414 759.622339 
L 26.331429 759.281369 
L 23.04 758.590218 
L 19.748571 756.622301 
L 19.457341 756.33393 
L 16.457143 755.456363 
L 13.165714 754.377524 
L 11.823673 753.045522 
L 9.874286 752.30198 
L 6.582857 751.695429 
L 4.152944 749.757114 
L 3.291429 749.395284 
L 0 748.722475 
L 0 749.491022 
L 1.709639 749.757114 
L 3.291429 751.303126 
L 6.582857 752.706549 
L 9.874286 752.869801 
L 10.334983 753.045522 
L 13.165714 755.855079 
L 16.457143 756.133125 
L 17.143649 756.33393 
L 19.748571 758.91328 
L 23.04 759.394831 
L 24.47069 759.622339 
L 26.331429 761.44725 
L 29.622857 762.643634 
L 32.914286 762.774271 
L 33.233895 762.910747 
L 36.205714 765.868413 
L 39.497143 766.050133 
L 39.931625 766.199156 
L 42.788571 769.037709 
L 46.08 769.321389 
L 46.826636 769.487564 
L 49.371429 772.005496 
L 52.662857 772.594114 
L 53.988515 772.775972 
L 55.954286 774.710542 
L 59.245714 775.874421 
L 62.537143 775.988946 
L 62.700169 776.064381 
L 65.828571 779.150364 
L 69.12 779.262198 
L 69.333926 779.352789 
L 72.411429 782.421269 
L 75.702857 782.552141 
L 75.942157 782.641198 
L 78.994286 785.682861 
L 82.285714 785.84241 
L 82.570525 785.929606 
L 85.577143 788.924254 
L 88.868571 789.134763 
L 89.224075 789.218014 
L 92.16 792.140698 
L 95.451429 792.428681 
L 95.995255 792.506423 
L 98.742857 795.237562 
L 102.034286 795.723089 
L 104.660183 795.794831 
L 105.325714 796.453213 
L 108.617143 799.019371 
L 111.908571 799.060549 
L 111.961474 799.08324 
L 115.2 802.318373 
L 118.491429 802.357546 
L 118.523685 802.371648 
L 121.782857 805.62751 
L 124.181476 805.660056 
L 125.074286 806.547896 
L 128.365714 808.943468 
L 128.37925 808.948465 
L 131.657143 812.222905 
L 132.564689 812.236873 
L 134.948571 814.60171 
L 135.941268 815.525281 
z
M 154.697143 818.81369 
L 155.580976 818.81369 
L 154.697143 818.368768 
L 151.434235 818.81369 
z
" clip-path="url(#p5ded0069c9)" style="fill: #dae8f6; fill-opacity: 0.9"/>
    <path d="M 55.954286 815.561688 
L 59.245714 817.720403 
L 61.069288 818.81369 
L 62.537143 818.81369 
L 65.828571 818.81369 
L 69.12 818.81369 
L 72.411429 818.81369 
L 75.702857 818.81369 
L 78.994286 818.81369 
L 82.285714 818.81369 
L 85.577143 818.81369 
L 88.868571 818.81369 
L 92.16 818.81369 
L 95.451429 818.81369 
L 98.742857 818.81369 
L 102.034286 818.81369 
L 105.325714 818.81369 
L 108.617143 818.81369 
L 111.908571 818.81369 
L 115.2 818.81369 
L 118.491429 818.81369 
L 121.782857 818.81369 
L 125.074286 818.81369 
L 128.365714 818.81369 
L 131.657143 818.81369 
L 134.948571 818.81369 
L 138.24 818.81369 
L 139.329932 818.81369 
L 138.24 817.804579 
L 135.941268 815.525281 
L 134.948571 814.60171 
L 132.564689 812.236873 
L 131.657143 812.222905 
L 128.37925 808.948465 
L 128.365714 808.943468 
L 125.074286 806.547896 
L 124.181476 805.660056 
L 121.782857 805.62751 
L 118.523685 802.371648 
L 118.491429 802.357546 
L 115.2 802.318373 
L 111.961474 799.08324 
L 111.908571 799.060549 
L 108.617143 799.019371 
L 105.325714 796.453213 
L 104.660183 795.794831 
L 102.034286 795.723089 
L 98.742857 795.237562 
L 95.995255 792.506423 
L 95.451429 792.428681 
L 92.16 792.140698 
L 89.224075 789.218014 
L 88.868571 789.134763 
L 85.577143 788.924254 
L 82.570525 785.929606 
L 82.285714 785.84241 
L 78.994286 785.682861 
L 75.942157 782.641198 
L 75.702857 782.552141 
L 72.411429 782.421269 
L 69.333926 779.352789 
L 69.12 779.262198 
L 65.828571 779.150364 
L 62.700169 776.064381 
L 62.537143 775.988946 
L 59.245714 775.874421 
L 55.954286 774.710542 
L 53.988515 772.775972 
L 52.662857 772.594114 
L 49.371429 772.005496 
L 46.826636 769.487564 
L 46.08 769.321389 
L 42.788571 769.037709 
L 39.931625 766.199156 
L 39.497143 766.050133 
L 36.205714 765.868413 
L 33.233895 762.910747 
L 32.914286 762.774271 
L 29.622857 762.643634 
L 26.331429 761.44725 
L 24.47069 759.622339 
L 23.04 759.394831 
L 19.748571 758.91328 
L 17.143649 756.33393 
L 16.457143 756.133125 
L 13.165714 755.855079 
L 10.334983 753.045522 
L 9.874286 752.869801 
L 6.582857 752.706549 
L 3.291429 751.303126 
L 1.709639 749.757114 
L 0 749.491022 
L 0 749.757114 
L 0 753.045522 
L 0 756.33393 
L 0 759.622339 
L 0 762.910747 
L 0 766.199156 
L 0 769.487564 
L 0 772.775972 
L 0 776.064381 
L 0 779.352789 
L 0 782.641198 
L 0 782.930521 
L 3.291429 784.801936 
L 5.419828 785.929606 
L 6.582857 786.588712 
L 9.874286 788.518857 
L 11.137424 789.218014 
L 13.165714 790.404555 
L 16.457143 792.264451 
L 16.887011 792.506423 
L 19.748571 794.201571 
L 22.646138 795.794831 
L 23.04 796.027411 
L 26.331429 797.98075 
L 28.308142 799.08324 
L 29.622857 799.878645 
L 32.914286 801.743015 
L 34.026233 802.371648 
L 36.205714 803.72134 
L 39.497143 805.508395 
L 39.75239 805.660056 
L 42.788571 807.644476 
L 45.063501 808.948465 
L 46.08 809.582108 
L 49.371429 811.634575 
L 50.396918 812.236873 
L 52.662857 813.672154 
L 55.809967 815.525281 
z
" clip-path="url(#p5ded0069c9)" style="fill: #d6e5f4; fill-opacity: 0.9"/>
    <path d="M 3.291429 818.81369 
L 6.582857 818.81369 
L 9.874286 818.81369 
L 13.165714 818.81369 
L 16.457143 818.81369 
L 19.748571 818.81369 
L 23.04 818.81369 
L 26.331429 818.81369 
L 29.622857 818.81369 
L 32.914286 818.81369 
L 36.205714 818.81369 
L 39.497143 818.81369 
L 42.788571 818.81369 
L 46.08 818.81369 
L 49.371429 818.81369 
L 52.662857 818.81369 
L 55.954286 818.81369 
L 59.245714 818.81369 
L 61.069288 818.81369 
L 59.245714 817.720403 
L 55.954286 815.561688 
L 55.809967 815.525281 
L 52.662857 813.672154 
L 50.396918 812.236873 
L 49.371429 811.634575 
L 46.08 809.582108 
L 45.063501 808.948465 
L 42.788571 807.644476 
L 39.75239 805.660056 
L 39.497143 805.508395 
L 36.205714 803.72134 
L 34.026233 802.371648 
L 32.914286 801.743015 
L 29.622857 799.878645 
L 28.308142 799.08324 
L 26.331429 797.98075 
L 23.04 796.027411 
L 22.646138 795.794831 
L 19.748571 794.201571 
L 16.887011 792.506423 
L 16.457143 792.264451 
L 13.165714 790.404555 
L 11.137424 789.218014 
L 9.874286 788.518857 
L 6.582857 786.588712 
L 5.419828 785.929606 
L 3.291429 784.801936 
L 0 782.930521 
L 0 785.929606 
L 0 789.218014 
L 0 792.506423 
L 0 795.794831 
L 0 799.08324 
L 0 802.371648 
L 0 805.660056 
L 0 808.948465 
L 0 812.236873 
L 0 815.525281 
L 0 818.81369 
z
" clip-path="url(#p5ded0069c9)" style="fill: #d0e2f2; fill-opacity: 0.9"/>
    <path clip-path="url(#p5ded0069c9)" style="fill: #cbdef1; fill-opacity: 0.9"/>
    <path clip-path="url(#p5ded0069c9)" style="fill: #c6dbef; fill-opacity: 0.9"/>
    <path clip-path="url(#p5ded0069c9)" style="fill: #bed8ec; fill-opacity: 0.9"/>
    <path clip-path="url(#p5ded0069c9)" style="fill: #b5d4e9; fill-opacity: 0.9"/>
    <path clip-path="url(#p5ded0069c9)" style="fill: #add0e6; fill-opacity: 0.9"/>
    <path clip-path="url(#p5ded0069c9)" style="fill: #a5cde3; fill-opacity: 0.9"/>
    <path clip-path="url(#p5ded0069c9)" style="fill: #9cc9e1; fill-opacity: 0.9"/>
    <path clip-path="url(#p5ded0069c9)" style="fill: #91c3de; fill-opacity: 0.9"/>
    <path clip-path="url(#p5ded0069c9)" style="fill: #85bcdc; fill-opacity: 0.9"/>
    <path clip-path="url(#p5ded0069c9)" style="fill: #7cb7da; fill-opacity: 0.9"/>
    <path clip-path="url(#p5ded0069c9)" style="fill: #71b1d7; fill-opacity: 0.9"/>
    <path clip-path="url(#p5ded0069c9)" style="fill: #66abd4; fill-opacity: 0.9"/>
    <path clip-path="url(#p5ded0069c9)" style="fill: #5da5d1; fill-opacity: 0.9"/>
    <path clip-path="url(#p5ded0069c9)" style="fill: #56a0ce; fill-opacity: 0.9"/>
    <path clip-path="url(#p5ded0069c9)" style="fill: #4d99ca; fill-opacity: 0.9"/>
    <path clip-path="url(#p5ded0069c9)" style="fill: #4493c7; fill-opacity: 0.9"/>
    <path clip-path="url(#p5ded0069c9)" style="fill: #3c8cc3; fill-opacity: 0.9"/>
    <path clip-path="url(#p5ded0069c9)" style="fill: #3686c0; fill-opacity: 0.9"/>
    <path clip-path="url(#p5ded0069c9)" style="fill: #2f7fbc; fill-opacity: 0.9"/>
    <path clip-path="url(#p5ded0069c9)" style="fill: #2777b8; fill-opacity: 0.9"/>
    <path clip-path="url(#p5ded0069c9)" style="fill: #2070b4; fill-opacity: 0.9"/>
    <path clip-path="url(#p5ded0069c9)" style="fill: #1c6ab0; fill-opacity: 0.9"/>
    <path clip-path="url(#p5ded0069c9)" style="fill: #1663aa; fill-opacity: 0.9"/>
    <path clip-path="url(#p5ded0069c9)" style="fill: #115ca5; fill-opacity: 0.9"/>
    <path clip-path="url(#p5ded0069c9)" style="fill: #0c56a0; fill-opacity: 0.9"/>
    <path clip-path="url(#p5ded0069c9)" style="fill: #084f99; fill-opacity: 0.9"/>
    <path clip-path="url(#p5ded0069c9)" style="fill: #08488e; fill-opacity: 0.9"/>
    <path clip-path="url(#p5ded0069c9)" style="fill: #084184; fill-opacity: 0.9"/>
    <path clip-path="url(#p5ded0069c9)" style="fill: #083a7a; fill-opacity: 0.9"/>
    <path clip-path="url(#p5ded0069c9)" style="fill: #083370; fill-opacity: 0.9"/>
    <path clip-path="url(#p5ded0069c9)" style="fill: #08306b; fill-opacity: 0.9"/>
   </g>
   <g id="QuadContourSet_2">
    <path d="M 161.046072 818.81369 
L 157.988571 816.940604 
L 155.317534 815.525281 
L 154.697143 814.985291 
L 151.405714 813.690054 
L 148.257497 812.236873 
L 148.114286 812.10703 
L 144.822857 810.607249 
L 141.531429 809.327591 
L 140.957176 808.948465 
L 138.24 807.794588 
L 134.948571 806.820289 
L 131.657143 805.752164 
L 131.49314 805.660056 
L 128.365714 803.393556 
L 126.014217 802.371648 
L 125.074286 801.895843 
L 121.782857 800.077683 
L 119.772026 799.083239 
L 118.491429 798.173735 
L 115.2 796.951473 
L 112.699134 795.794831 
L 111.908571 795.181332 
L 108.617143 793.906327 
L 105.58901 792.506423 
L 105.325714 792.27306 
L 102.034286 790.823851 
L 98.742857 789.33918 
L 98.481273 789.218014 
L 95.451429 787.673634 
L 92.16 786.289621 
L 91.383694 785.929606 
L 88.868571 784.520141 
L 85.577143 783.238127 
L 84.278837 782.641198 
L 82.285714 781.421435 
L 78.994286 780.212915 
L 77.122437 779.352789 
L 75.702857 778.380216 
L 72.411429 777.184117 
L 69.966036 776.064381 
L 69.12 775.406088 
L 67.9357 774.954867 
M 50.597214 767.087581 
L 49.371429 766.588678 
L 48.473785 766.199156 
L 46.08 764.875902 
L 42.788571 763.732124 
L 40.895728 762.910747 
L 39.497143 761.982303 
L 36.205714 760.870515 
L 33.317672 759.622339 
L 32.914286 759.287227 
L 29.622857 757.959964 
L 26.331429 756.584898 
L 25.755852 756.33393 
L 23.04 754.913974 
L 19.748571 753.712713 
L 18.223936 753.045522 
L 16.457143 751.95293 
L 13.165714 750.852307 
L 10.539287 749.757114 
L 9.874286 749.257038 
L 6.582857 748.059599 
L 3.291429 746.733459 
L 2.653221 746.468705 
L 0 745.097117 
" clip-path="url(#p5ded0069c9)" style="fill: none"/>
    <path d="M 160.060033 818.81369 
L 157.988571 817.544671 
L 154.697143 815.816154 
L 154.123854 815.525281 
L 151.405714 814.27062 
L 148.114286 812.974779 
L 146.999741 812.236873 
L 144.822857 811.204013 
L 141.531429 810.525567 
L 139.142631 808.948465 
L 138.24 808.565153 
L 134.948571 808.373882 
L 131.657143 806.424919 
L 130.295255 805.660056 
L 128.365714 804.261684 
L 125.074286 802.686987 
L 124.558868 802.371648 
L 121.782857 800.673249 
L 118.567752 799.083239 
L 118.491429 799.029033 
L 115.2 797.524639 
L 111.908571 796.015354 
L 111.46026 795.794831 
L 108.617143 794.479249 
L 105.325714 792.955261 
L 104.3546 792.506423 
L 102.034286 791.407732 
L 98.742857 789.90803 
L 97.253191 789.218014 
L 95.451429 788.299615 
L 92.16 786.857883 
L 90.158341 785.929606 
L 88.868571 785.206824 
L 85.577143 783.806109 
L 83.043492 782.641198 
L 82.285714 782.177448 
L 78.994286 780.780563 
L 75.887092 779.352789 
L 75.702857 779.226567 
L 72.411429 777.749776 
L 69.12 776.253983 
L 68.73743 776.064381 
L 65.828571 774.715131 
L 62.537143 773.209278 
L 61.600137 772.775972 
L 59.245714 771.656692 
L 55.954286 770.164939 
L 54.489963 769.487564 
L 52.662857 768.546883 
L 49.371429 767.140527 
L 47.202062 766.199156 
L 46.08 765.578894 
L 45.030176 765.16587 
M 27.415812 757.58495 
L 26.331429 757.124192 
L 24.519018 756.33393 
L 23.04 755.56064 
L 19.748571 754.250495 
L 16.99502 753.045522 
L 16.457143 752.712897 
L 13.165714 751.387432 
L 9.874286 750.030693 
L 9.255982 749.757114 
L 6.582857 748.610204 
L 3.291429 747.265824 
L 1.369916 746.468705 
L 0 745.760524 
" clip-path="url(#p5ded0069c9)" style="fill: none"/>
    <path d="M 159.073995 818.81369 
L 157.988571 818.148738 
L 154.697143 816.454307 
L 152.866098 815.525281 
L 151.405714 814.851185 
L 148.114286 813.807501 
L 145.741986 812.236873 
L 144.822857 811.800776 
L 141.531429 811.723543 
L 138.24 809.769572 
L 134.948571 809.39737 
L 134.335146 808.948465 
L 131.657143 807.097675 
L 129.09737 805.660056 
L 128.365714 805.129812 
L 125.074286 803.282553 
L 123.585423 802.371648 
L 121.782857 801.268815 
L 118.491429 799.704472 
L 117.330683 799.08324 
L 115.2 798.097806 
L 111.908571 796.624393 
L 111.807356 796.574605 
M 94.426389 788.458627 
L 92.16 787.426146 
L 88.932987 785.929606 
L 88.868571 785.893508 
L 85.577143 784.37409 
L 82.285714 782.923317 
L 81.808148 782.641198 
L 78.994286 781.348211 
L 75.702857 779.91397 
L 74.659721 779.352789 
L 72.411429 778.315436 
L 69.12 776.855626 
L 67.523467 776.064381 
L 65.828571 775.278218 
L 62.537143 773.765211 
L 60.397951 772.775972 
L 59.245714 772.228205 
L 55.954286 770.720717 
L 53.288502 769.487564 
L 52.662857 769.165452 
L 49.371429 767.692376 
L 46.08 766.288389 
L 45.930339 766.199156 
L 42.788571 764.835823 
L 39.497143 763.487496 
L 38.362861 762.910747 
L 36.205714 761.969761 
L 32.914286 760.555695 
L 30.813649 759.622339 
L 29.622857 759.085497 
L 26.331429 757.663486 
L 23.282183 756.33393 
L 23.04 756.207307 
L 19.748571 754.788277 
L 16.457143 753.426076 
L 15.761561 753.045522 
L 13.165714 751.922557 
L 9.874286 750.598515 
L 7.972677 749.757114 
L 6.582857 749.160809 
L 3.291429 747.798189 
L 0.086611 746.468705 
L 0 746.423931 
" clip-path="url(#p5ded0069c9)" style="fill: none"/>
    <path d="M 158.087956 818.81369 
L 157.988571 818.752805 
L 154.697143 817.092461 
L 151.608343 815.525281 
L 151.405714 815.43175 
L 148.114286 814.640223 
L 144.822857 813.644893 
L 141.531429 812.820177 
L 139.792302 812.236873 
L 138.24 811.403428 
L 134.948571 810.109738 
L 133.361701 808.948465 
L 131.657143 807.770431 
L 128.365714 806.037117 
L 127.98684 805.660056 
L 125.074286 803.878119 
L 122.611978 802.371648 
L 121.782857 801.864381 
L 118.491429 800.36774 
L 116.091395 799.08324 
L 115.2 798.670972 
L 111.908571 797.233432 
L 108.983966 795.794831 
L 108.617143 795.625093 
L 105.325714 794.095108 
L 102.034286 792.628453 
L 101.889328 792.506423 
L 98.742857 791.045728 
L 95.451429 789.702282 
L 94.798481 789.218014 
L 92.16 787.994408 
L 89.173278 786.818817 
M 71.863397 778.644025 
L 69.12 777.457269 
L 66.309504 776.064381 
L 65.828571 775.841304 
L 62.537143 774.321145 
L 59.245714 772.818298 
L 59.195796 772.775972 
L 55.954286 771.276496 
L 52.662857 769.915486 
L 52.08552 769.487564 
L 49.371429 768.244225 
L 46.08 767.046639 
L 44.658616 766.199156 
L 42.788571 765.387672 
L 39.497143 764.128156 
L 37.102888 762.910747 
L 36.205714 762.519384 
L 32.914286 761.110339 
L 29.622857 759.668031 
L 29.566245 759.622339 
L 26.331429 758.20278 
L 23.04 756.980993 
L 22.051717 756.33393 
L 19.748571 755.326059 
L 16.457143 754.102839 
L 14.524565 753.045522 
L 13.165714 752.457682 
L 9.874286 751.166337 
L 6.689371 749.757114 
L 6.582857 749.711413 
L 3.291429 748.330554 
L 0 747.185382 
" clip-path="url(#p5ded0069c9)" style="fill: none"/>
    <path d="M 156.84866 818.81369 
L 154.697143 817.730614 
L 151.405714 817.030427 
L 148.343693 815.525281 
L 148.114286 815.472945 
L 147.820147 815.525281 
L 144.822857 816.332618 
L 143.902671 815.525281 
L 141.531429 813.840826 
L 138.24 812.887179 
L 137.588744 812.236873 
L 134.948571 810.822106 
L 132.388256 808.948465 
L 131.657143 808.443186 
L 128.365714 807.005901 
L 127.013395 805.660056 
L 125.074286 804.473685 
L 121.782857 802.59635 
L 121.557927 802.371648 
L 118.491429 801.031009 
L 115.2 799.481433 
L 114.801389 799.08324 
L 111.908571 797.842471 
L 108.617143 796.63412 
L 107.754822 795.794831 
L 105.325714 794.665031 
L 102.034286 793.659998 
L 100.663975 792.506423 
L 98.742857 791.614577 
L 95.451429 790.611082 
L 93.573127 789.218014 
L 92.16 788.562671 
L 88.868571 787.510842 
L 86.48228 785.929606 
L 85.577143 785.510053 
L 82.285714 784.382864 
L 79.33746 782.641198 
L 78.994286 782.483507 
L 75.702857 781.233055 
L 72.411429 779.588108 
L 72.175417 779.352789 
L 69.12 778.058912 
L 65.828571 776.780025 
L 65.10309 776.064381 
L 62.537143 774.877079 
L 59.245714 773.837005 
L 57.994336 772.775972 
L 55.954286 771.832274 
L 52.662857 770.808362 
L 50.880885 769.487564 
L 49.371429 768.796075 
L 46.08 767.804889 
L 43.386893 766.199156 
L 42.788571 765.939521 
L 39.497143 764.768815 
L 36.205714 763.282975 
L 35.831705 762.910747 
L 32.914286 761.664983 
L 29.622857 760.659898 
L 28.337329 759.622339 
L 26.331429 758.742075 
L 23.04 757.785605 
L 21.896104 757.036658 
M 4.559397 749.395455 
L 3.291429 748.862919 
L 0 747.953929 
" clip-path="url(#p5ded0069c9)" style="fill: none"/>
    <path d="M 146.867256 818.81369 
L 144.822857 817.593202 
L 142.465882 815.525281 
L 141.531429 814.861475 
L 138.24 814.214631 
L 136.259356 812.236873 
L 134.948571 811.534474 
L 131.657143 809.601134 
L 131.003785 808.948465 
L 128.365714 807.974684 
L 126.03995 805.660056 
L 125.074286 805.069251 
L 123.698628 804.669137 
M 107.172309 796.420502 
L 106.529469 795.794831 
L 105.325714 795.234954 
L 102.034286 794.691544 
L 99.438621 792.506423 
L 98.742857 792.183426 
L 95.451429 791.519881 
L 92.347774 789.218014 
L 92.16 789.130934 
L 88.868571 788.322802 
L 85.577143 786.550048 
L 84.954221 785.929606 
L 82.285714 785.112637 
L 78.994286 783.916715 
L 77.71438 782.641198 
L 75.702857 781.892598 
L 72.411429 781.004689 
L 70.754672 779.352789 
L 69.12 778.660555 
L 65.828571 777.965195 
L 63.90163 776.064381 
L 62.537143 775.433012 
L 59.245714 774.855713 
L 56.792875 772.775972 
L 55.954286 772.388053 
L 52.662857 771.701238 
L 49.67625 769.487564 
L 49.371429 769.347924 
L 46.08 768.563139 
L 42.788571 767.181862 
L 41.799497 766.199156 
L 39.497143 765.409474 
L 36.205714 764.575694 
L 34.5328 762.910747 
L 32.914286 762.219627 
L 29.622857 761.651766 
L 27.108414 759.622339 
L 26.331429 759.281369 
L 23.04 758.590218 
L 19.748571 756.622301 
L 19.457341 756.33393 
L 16.457143 755.456363 
L 13.165714 754.377524 
L 11.823673 753.045522 
L 9.874286 752.30198 
L 6.582857 751.695429 
L 4.152944 749.757114 
L 3.291429 749.395284 
L 0 748.722475 
M 155.580976 818.81369 
L 154.697143 818.368768 
L 151.434235 818.81369 
" clip-path="url(#p5ded0069c9)" style="fill: none"/>
    <path d="M 139.329932 818.81369 
L 138.747157 818.274129 
M 124.485255 805.962144 
L 124.181476 805.660056 
L 121.782857 805.62751 
L 118.523685 802.371648 
L 118.491429 802.357546 
L 115.2 802.318373 
L 111.961474 799.08324 
L 111.908571 799.060549 
L 108.617143 799.019371 
L 105.325714 796.453213 
L 104.660183 795.794831 
L 102.034286 795.723089 
L 98.742857 795.237562 
L 95.995255 792.506423 
L 95.451429 792.428681 
L 92.16 792.140698 
L 89.224075 789.218014 
L 88.868571 789.134763 
L 85.577143 788.924254 
L 82.570525 785.929606 
L 82.285714 785.84241 
L 78.994286 785.682861 
L 75.942157 782.641198 
L 75.702857 782.552141 
L 72.411429 782.421269 
L 69.333926 779.352789 
L 69.12 779.262198 
L 65.828571 779.150364 
L 62.700169 776.064381 
L 62.537143 775.988946 
L 59.245714 775.874421 
L 55.954286 774.710542 
L 53.988515 772.775972 
L 52.662857 772.594114 
L 49.371429 772.005496 
L 46.826636 769.487564 
L 46.08 769.321389 
L 42.788571 769.037709 
L 39.931625 766.199156 
L 39.497143 766.050133 
L 36.205714 765.868413 
L 33.233895 762.910747 
L 32.914286 762.774271 
L 29.622857 762.643634 
L 26.331429 761.44725 
L 24.47069 759.622339 
L 23.04 759.394831 
L 19.748571 758.91328 
L 17.143649 756.33393 
L 16.457143 756.133125 
L 13.165714 755.855079 
L 10.334983 753.045522 
L 9.874286 752.869801 
L 6.582857 752.706549 
L 3.291429 751.303126 
L 1.709639 749.757114 
L 0 749.491022 
" clip-path="url(#p5ded0069c9)" style="fill: none"/>
    <path d="M 61.069288 818.81369 
L 59.245714 817.720403 
L 55.954286 815.561688 
L 55.809967 815.525281 
L 52.662857 813.672154 
L 50.396918 812.236873 
L 49.371429 811.634575 
L 46.08 809.582108 
L 45.063501 808.948465 
L 42.788571 807.644476 
L 39.75239 805.660056 
L 39.497143 805.508395 
L 37.887949 804.634696 
M 21.372708 795.094621 
L 19.748571 794.201571 
L 16.887011 792.506423 
L 16.457143 792.264451 
L 13.165714 790.404555 
L 11.137424 789.218014 
L 9.874286 788.518857 
L 6.582857 786.588712 
L 5.419828 785.929606 
L 3.291429 784.801936 
L 0 782.930521 
" clip-path="url(#p5ded0069c9)" style="fill: none"/>
    <path clip-path="url(#p5ded0069c9)" style="fill: none"/>
    <path clip-path="url(#p5ded0069c9)" style="fill: none"/>
    <path clip-path="url(#p5ded0069c9)" style="fill: none"/>
    <path clip-path="url(#p5ded0069c9)" style="fill: none"/>
    <path clip-path="url(#p5ded0069c9)" style="fill: none"/>
    <path clip-path="url(#p5ded0069c9)" style="fill: none"/>
    <path clip-path="url(#p5ded0069c9)" style="fill: none"/>
    <path clip-path="url(#p5ded0069c9)" style="fill: none"/>
    <path clip-path="url(#p5ded0069c9)" style="fill: none"/>
    <path clip-path="url(#p5ded0069c9)" style="fill: none"/>
    <path clip-path="url(#p5ded0069c9)" style="fill: none"/>
    <path clip-path="url(#p5ded0069c9)" style="fill: none"/>
    <path clip-path="url(#p5ded0069c9)" style="fill: none"/>
    <path clip-path="url(#p5ded0069c9)" style="fill: none"/>
    <path clip-path="url(#p5ded0069c9)" style="fill: none"/>
    <path clip-path="url(#p5ded0069c9)" style="fill: none"/>
    <path clip-path="url(#p5ded0069c9)" style="fill: none"/>
    <path clip-path="url(#p5ded0069c9)" style="fill: none"/>
    <path clip-path="url(#p5ded0069c9)" style="fill: none"/>
    <path clip-path="url(#p5ded0069c9)" style="fill: none"/>
    <path clip-path="url(#p5ded0069c9)" style="fill: none"/>
    <path clip-path="url(#p5ded0069c9)" style="fill: none"/>
    <path clip-path="url(#p5ded0069c9)" style="fill: none"/>
    <path clip-path="url(#p5ded0069c9)" style="fill: none"/>
    <path clip-path="url(#p5ded0069c9)" style="fill: none"/>
    <path clip-path="url(#p5ded0069c9)" style="fill: none"/>
    <path clip-path="url(#p5ded0069c9)" style="fill: none"/>
    <path clip-path="url(#p5ded0069c9)" style="fill: none"/>
    <path clip-path="url(#p5ded0069c9)" style="fill: none"/>
    <path clip-path="url(#p5ded0069c9)" style="fill: none"/>
    <path clip-path="url(#p5ded0069c9)" style="fill: none"/>
   </g>
   <g id="text_1">
    <g clip-path="url(#p5ded0069c9)">
     <!-- 0 -->
     <g style="opacity: 0" transform="translate(54.389565 772.483571) rotate(-335.126502) scale(0.12 -0.12)">
      <defs>
       <path id="DejaVuSans-30" d="M 2034 4250 
Q 1547 4250 1301 3770 
Q 1056 3291 1056 2328 
Q 1056 1369 1301 889 
Q 1547 409 2034 409 
Q 2525 409 2770 889 
Q 3016 1369 3016 2328 
Q 3016 3291 2770 3770 
Q 2525 4250 2034 4250 
z
M 2034 4750 
Q 2819 4750 3233 4129 
Q 3647 3509 3647 2328 
Q 3647 1150 3233 529 
Q 2819 -91 2034 -91 
Q 1250 -91 836 529 
Q 422 1150 422 2328 
Q 422 3509 836 4129 
Q 1250 4750 2034 4750 
z
" transform="scale(0.015625)"/>
      </defs>
      <use xlink:href="#DejaVuSans-30"/>
     </g>
    </g>
   </g>
   <g id="text_2">
    <g clip-path="url(#p5ded0069c9)">
     <!-- 1 -->
     <g style="opacity: 0" transform="translate(31.387288 762.943441) rotate(-336.605946) scale(0.12 -0.12)">
      <defs>
       <path id="DejaVuSans-31" d="M 794 531 
L 1825 531 
L 1825 4091 
L 703 3866 
L 703 4441 
L 1819 4666 
L 2450 4666 
L 2450 531 
L 3481 531 
L 3481 0 
L 794 0 
L 794 531 
z
" transform="scale(0.015625)"/>
      </defs>
      <use xlink:href="#DejaVuSans-31"/>
     </g>
    </g>
   </g>
   <g id="text_3">
    <g clip-path="url(#p5ded0069c9)">
     <!-- 2 -->
     <g style="opacity: 0" transform="translate(98.269206 793.918111) rotate(-335.283446) scale(0.12 -0.12)">
      <defs>
       <path id="DejaVuSans-32" d="M 1228 531 
L 3431 531 
L 3431 0 
L 469 0 
L 469 531 
Q 828 903 1448 1529 
Q 2069 2156 2228 2338 
Q 2531 2678 2651 2914 
Q 2772 3150 2772 3378 
Q 2772 3750 2511 3984 
Q 2250 4219 1831 4219 
Q 1534 4219 1204 4116 
Q 875 4013 500 3803 
L 500 4441 
Q 881 4594 1212 4672 
Q 1544 4750 1819 4750 
Q 2544 4750 2975 4387 
Q 3406 4025 3406 3419 
Q 3406 3131 3298 2873 
Q 3191 2616 2906 2266 
Q 2828 2175 2409 1742 
Q 1991 1309 1228 531 
z
" transform="scale(0.015625)"/>
      </defs>
      <use xlink:href="#DejaVuSans-32"/>
     </g>
    </g>
   </g>
   <g id="text_4">
    <g clip-path="url(#p5ded0069c9)">
     <!-- 3 -->
     <g style="opacity: 0" transform="translate(75.740239 784.119033) rotate(-336.066088) scale(0.12 -0.12)">
      <defs>
       <path id="DejaVuSans-33" d="M 2597 2516 
Q 3050 2419 3304 2112 
Q 3559 1806 3559 1356 
Q 3559 666 3084 287 
Q 2609 -91 1734 -91 
Q 1441 -91 1130 -33 
Q 819 25 488 141 
L 488 750 
Q 750 597 1062 519 
Q 1375 441 1716 441 
Q 2309 441 2620 675 
Q 2931 909 2931 1356 
Q 2931 1769 2642 2001 
Q 2353 2234 1838 2234 
L 1294 2234 
L 1294 2753 
L 1863 2753 
Q 2328 2753 2575 2939 
Q 2822 3125 2822 3475 
Q 2822 3834 2567 4026 
Q 2313 4219 1838 4219 
Q 1578 4219 1281 4162 
Q 984 4106 628 3988 
L 628 4550 
Q 988 4650 1302 4700 
Q 1616 4750 1894 4750 
Q 2613 4750 3031 4423 
Q 3450 4097 3450 3541 
Q 3450 3153 3228 2886 
Q 3006 2619 2597 2516 
z
" transform="scale(0.015625)"/>
      </defs>
      <use xlink:href="#DejaVuSans-33"/>
     </g>
    </g>
   </g>
   <g id="text_5">
    <g clip-path="url(#p5ded0069c9)">
     <!-- 4 -->
     <g style="opacity: 0" transform="translate(8.481393 754.607044) rotate(-337.060981) scale(0.12 -0.12)">
      <defs>
       <path id="DejaVuSans-34" d="M 2419 4116 
L 825 1625 
L 2419 1625 
L 2419 4116 
z
M 2253 4666 
L 3047 4666 
L 3047 1625 
L 3713 1625 
L 3713 1100 
L 3047 1100 
L 3047 0 
L 2419 0 
L 2419 1100 
L 313 1100 
L 313 1709 
L 2253 4666 
z
" transform="scale(0.015625)"/>
      </defs>
      <use xlink:href="#DejaVuSans-34"/>
     </g>
    </g>
   </g>
   <g id="text_6">
    <g clip-path="url(#p5ded0069c9)">
     <!-- 5 -->
     <g style="opacity: 0" transform="translate(110.352366 802.327533) rotate(-335.471779) scale(0.12 -0.12)">
      <defs>
       <path id="DejaVuSans-35" d="M 691 4666 
L 3169 4666 
L 3169 4134 
L 1269 4134 
L 1269 2991 
Q 1406 3038 1543 3061 
Q 1681 3084 1819 3084 
Q 2600 3084 3056 2656 
Q 3513 2228 3513 1497 
Q 3513 744 3044 326 
Q 2575 -91 1722 -91 
Q 1428 -91 1123 -41 
Q 819 9 494 109 
L 494 744 
Q 775 591 1075 516 
Q 1375 441 1709 441 
Q 2250 441 2565 725 
Q 2881 1009 2881 1497 
Q 2881 1984 2565 2268 
Q 2250 2553 1709 2553 
Q 1456 2553 1204 2497 
Q 953 2441 691 2322 
L 691 4666 
z
" transform="scale(0.015625)"/>
      </defs>
      <use xlink:href="#DejaVuSans-35"/>
     </g>
    </g>
   </g>
   <g id="text_7">
    <g clip-path="url(#p5ded0069c9)">
     <!-- 6 -->
     <g style="opacity: 0" transform="translate(126.603791 812.259267) rotate(-319.474323) scale(0.12 -0.12)">
      <defs>
       <path id="DejaVuSans-36" d="M 2113 2584 
Q 1688 2584 1439 2293 
Q 1191 2003 1191 1497 
Q 1191 994 1439 701 
Q 1688 409 2113 409 
Q 2538 409 2786 701 
Q 3034 994 3034 1497 
Q 3034 2003 2786 2293 
Q 2538 2584 2113 2584 
z
M 3366 4563 
L 3366 3988 
Q 3128 4100 2886 4159 
Q 2644 4219 2406 4219 
Q 1781 4219 1451 3797 
Q 1122 3375 1075 2522 
Q 1259 2794 1537 2939 
Q 1816 3084 2150 3084 
Q 2853 3084 3261 2657 
Q 3669 2231 3669 1497 
Q 3669 778 3244 343 
Q 2819 -91 2113 -91 
Q 1303 -91 875 529 
Q 447 1150 447 2328 
Q 447 3434 972 4092 
Q 1497 4750 2381 4750 
Q 2619 4750 2861 4703 
Q 3103 4656 3366 4563 
z
" transform="scale(0.015625)"/>
      </defs>
      <use xlink:href="#DejaVuSans-36"/>
     </g>
    </g>
   </g>
   <g id="text_8">
    <g clip-path="url(#p5ded0069c9)">
     <!-- 7 -->
     <g style="opacity: 0" transform="translate(24.6669 800.866658) rotate(-330.336653) scale(0.12 -0.12)">
      <defs>
       <path id="DejaVuSans-37" d="M 525 4666 
L 3525 4666 
L 3525 4397 
L 1831 0 
L 1172 0 
L 2766 4134 
L 525 4134 
L 525 4666 
z
" transform="scale(0.015625)"/>
      </defs>
      <use xlink:href="#DejaVuSans-37"/>
     </g>
    </g>
   </g>
  </g>
 </g>
 <defs>
  <clipPath id="p5ded0069c9">
   <rect x="0" y="0" width="576" height="818.81369"/>
  </clipPath>
 </defs>
</svg>
