<?xml version="1.0" encoding="utf-8" standalone="no"?>
<!DOCTYPE svg PUBLIC "-//W3C//DTD SVG 1.1//EN"
  "http://www.w3.org/Graphics/SVG/1.1/DTD/svg11.dtd">
<svg xmlns:xlink="http://www.w3.org/1999/xlink" width="576pt" height="818.23674pt" viewBox="0 0 576 818.23674" xmlns="http://www.w3.org/2000/svg" version="1.1">
 <metadata>
  <rdf:RDF xmlns:dc="http://purl.org/dc/elements/1.1/" xmlns:cc="http://creativecommons.org/ns#" xmlns:rdf="http://www.w3.org/1999/02/22-rdf-syntax-ns#">
   <cc:Work>
    <dc:type rdf:resource="http://purl.org/dc/dcmitype/StillImage"/>
    <dc:date>2025-07-25T22:43:57.739131</dc:date>
    <dc:format>image/svg+xml</dc:format>
    <dc:creator>
     <cc:Agent>
      <dc:title>Matplotlib v3.10.3, https://matplotlib.org/</dc:title>
     </cc:Agent>
    </dc:creator>
   </cc:Work>
  </rdf:RDF>
 </metadata>
 <defs>
  <style type="text/css">*{stroke-linejoin: round; stroke-linecap: butt}</style>
 </defs>
 <g id="figure_1">
  <g id="patch_1">
   <path d="M 0 818.23674 
L 576 818.23674 
L 576 0 
L 0 0 
L 0 818.23674 
z
" style="fill: none; opacity: 0"/>
  </g>
  <g id="axes_1">
   <g id="QuadContourSet_1">
    <path d="M 26.331429 815.551322 
L 29.622857 816.672519 
L 32.914286 817.4429 
L 33.715648 818.23674 
L 34.561339 818.23674 
L 32.914286 816.605148 
L 29.622857 816.091812 
L 26.331429 815.177368 
L 25.378372 814.950648 
L 23.04 813.540583 
L 19.748571 812.305912 
L 17.845816 811.664557 
L 16.457143 810.289442 
L 13.165714 809.042046 
L 9.874286 808.474685 
L 9.718804 808.378466 
L 6.582857 806.001168 
L 3.291429 805.904888 
L 1.87728 805.092374 
L 0 803.230244 
L 0 803.930527 
L 1.1713 805.092374 
L 3.291429 806.310516 
L 6.582857 806.452779 
L 9.123073 808.378466 
L 9.874286 808.84335 
L 13.165714 809.375319 
L 16.457143 811.24477 
L 16.881068 811.664557 
L 19.748571 812.631097 
L 23.04 814.488502 
L 23.806397 814.950648 
z
" clip-path="url(#pe6590bb9d2)" style="fill: #f5f9fe; fill-opacity: 0.9"/>
    <path d="M 23.04 815.154304 
L 26.331429 815.925275 
L 29.622857 817.253225 
L 32.815478 818.23674 
L 32.914286 818.23674 
L 33.715648 818.23674 
L 32.914286 817.4429 
L 29.622857 816.672519 
L 26.331429 815.551322 
L 23.806397 814.950648 
L 23.04 814.488502 
L 19.748571 812.631097 
L 16.881068 811.664557 
L 16.457143 811.24477 
L 13.165714 809.375319 
L 9.874286 808.84335 
L 9.123073 808.378466 
L 6.582857 806.452779 
L 3.291429 806.310516 
L 1.1713 805.092374 
L 0 803.930527 
L -0 804.63081 
L 0.46532 805.092374 
L 3.291429 806.716145 
L 6.582857 806.904391 
L 8.527342 808.378466 
L 9.874286 809.212015 
L 13.165714 809.708592 
L 16.170167 811.664557 
L 16.457143 811.881955 
L 19.748571 812.956281 
L 22.786184 814.950648 
z
" clip-path="url(#pe6590bb9d2)" style="fill: #eff6fc; fill-opacity: 0.9"/>
    <path d="M 23.04 815.551711 
L 26.331429 816.299228 
L 29.622857 817.833931 
L 30.930429 818.23674 
L 32.815478 818.23674 
L 29.622857 817.253225 
L 26.331429 815.925275 
L 23.04 815.154304 
L 22.786184 814.950648 
L 19.748571 812.956281 
L 16.457143 811.881955 
L 16.170167 811.664557 
L 13.165714 809.708592 
L 9.874286 809.212015 
L 8.527342 808.378466 
L 6.582857 806.904391 
L 3.291429 806.716145 
L 0.46532 805.092374 
L -0 804.63081 
L 0 805.092374 
L 0 805.262706 
L 3.291429 807.121773 
L 6.582857 807.356002 
L 7.931611 808.378466 
L 9.874286 809.58068 
L 13.165714 810.041865 
L 15.658244 811.664557 
L 16.457143 812.269762 
L 19.748571 813.281465 
L 22.290898 814.950648 
z
" clip-path="url(#pe6590bb9d2)" style="fill: #eaf3fb; fill-opacity: 0.9"/>
    <path d="M 23.04 815.949118 
L 26.331429 816.673181 
L 29.398163 818.23674 
L 29.622857 818.23674 
L 30.930429 818.23674 
L 29.622857 817.833931 
L 26.331429 816.299228 
L 23.04 815.551711 
L 22.290898 814.950648 
L 19.748571 813.281465 
L 16.457143 812.269762 
L 15.658244 811.664557 
L 13.165714 810.041865 
L 9.874286 809.58068 
L 7.931611 808.378466 
L 6.582857 807.356002 
L 3.291429 807.121773 
L 0 805.262706 
L 0 805.762375 
L 3.291429 807.527401 
L 6.582857 807.807614 
L 7.335881 808.378466 
L 9.874286 809.949345 
L 13.165714 810.375138 
L 15.146321 811.664557 
L 16.457143 812.65757 
L 19.748571 813.606649 
L 21.795611 814.950648 
z
" clip-path="url(#pe6590bb9d2)" style="fill: #e5eff9; fill-opacity: 0.9"/>
    <path d="M 23.04 816.346524 
L 26.331429 817.047134 
L 28.664698 818.23674 
L 29.398163 818.23674 
L 26.331429 816.673181 
L 23.04 815.949118 
L 21.795611 814.950648 
L 19.748571 813.606649 
L 16.457143 812.65757 
L 15.146321 811.664557 
L 13.165714 810.375138 
L 9.874286 809.949345 
L 7.335881 808.378466 
L 6.582857 807.807614 
L 3.291429 807.527401 
L 0 805.762375 
L 0 806.262044 
L 3.291429 807.93303 
L 6.582857 808.259225 
L 6.74015 808.378466 
L 9.874286 810.31801 
L 13.165714 810.708411 
L 14.634398 811.664557 
L 16.457143 813.045377 
L 19.748571 813.931833 
L 21.300324 814.950648 
z
" clip-path="url(#pe6590bb9d2)" style="fill: #dfecf7; fill-opacity: 0.9"/>
    <path d="M 23.04 816.743931 
L 26.331429 817.421087 
L 27.931234 818.23674 
L 28.664698 818.23674 
L 26.331429 817.047134 
L 23.04 816.346524 
L 21.300324 814.950648 
L 19.748571 813.931833 
L 16.457143 813.045377 
L 14.634398 811.664557 
L 13.165714 810.708411 
L 9.874286 810.31801 
L 6.74015 808.378466 
L 6.582857 808.259225 
L 3.291429 807.93303 
L 0 806.262044 
L 0 806.761713 
L 3.291429 808.338658 
L 3.678685 808.378466 
L 6.582857 808.985235 
L 9.874286 810.686674 
L 13.165714 811.041685 
L 14.122475 811.664557 
L 16.457143 813.433184 
L 19.748571 814.257017 
L 20.805038 814.950648 
z
" clip-path="url(#pe6590bb9d2)" style="fill: #dae8f6; fill-opacity: 0.9"/>
    <path d="M 23.04 817.141338 
L 26.331429 817.79504 
L 27.197769 818.23674 
L 27.931234 818.23674 
L 26.331429 817.421087 
L 23.04 816.743931 
L 20.805038 814.950648 
L 19.748571 814.257017 
L 16.457143 813.433184 
L 14.122475 811.664557 
L 13.165714 811.041685 
L 9.874286 810.686674 
L 6.582857 808.985235 
L 3.678685 808.378466 
L 3.291429 808.338658 
L 0 806.761713 
L 0 807.261382 
L 2.345323 808.378466 
L 3.291429 809.144649 
L 6.582857 809.809686 
L 9.874286 811.055339 
L 13.165714 811.374958 
L 13.610552 811.664557 
L 16.457143 813.820991 
L 19.748571 814.582201 
L 20.309751 814.950648 
z
" clip-path="url(#pe6590bb9d2)" style="fill: #d6e5f4; fill-opacity: 0.9"/>
    <path d="M 23.04 817.538745 
L 26.331429 818.168993 
L 26.464305 818.23674 
L 27.197769 818.23674 
L 26.331429 817.79504 
L 23.04 817.141338 
L 20.309751 814.950648 
L 19.748571 814.582201 
L 16.457143 813.820991 
L 13.610552 811.664557 
L 13.165714 811.374958 
L 9.874286 811.055339 
L 6.582857 809.809686 
L 3.291429 809.144649 
L 2.345323 808.378466 
L 0 807.261382 
L 0 807.761051 
L 1.296265 808.378466 
L 3.291429 809.994206 
L 6.582857 810.634137 
L 9.874286 811.424004 
L 12.615229 811.664557 
L 13.165714 811.875889 
L 16.457143 814.208798 
L 19.748571 814.907386 
L 19.814464 814.950648 
z
" clip-path="url(#pe6590bb9d2)" style="fill: #d0e2f2; fill-opacity: 0.9"/>
    <path d="M 19.748571 816.712455 
L 23.04 817.936151 
L 24.620455 818.23674 
L 26.331429 818.23674 
L 26.464305 818.23674 
L 26.331429 818.168993 
L 23.04 817.538745 
L 19.814464 814.950648 
L 19.748571 814.907386 
L 16.457143 814.208798 
L 13.165714 811.875889 
L 12.615229 811.664557 
L 9.874286 811.424004 
L 6.582857 810.634137 
L 3.291429 809.994206 
L 1.296265 808.378466 
L 0 807.761051 
L 0 808.26072 
L 0.247207 808.378466 
L 3.291429 810.843763 
L 6.582857 811.458588 
L 7.959455 811.664557 
L 9.874286 812.60816 
L 13.165714 813.488548 
L 16.457143 814.596606 
L 18.145366 814.950648 
z
" clip-path="url(#pe6590bb9d2)" style="fill: #cbdef1; fill-opacity: 0.9"/>
    <path d="M 3.291429 818.23674 
L 6.582857 818.23674 
L 9.874286 818.23674 
L 13.165714 818.23674 
L 16.457143 818.23674 
L 19.748571 818.23674 
L 23.04 818.23674 
L 24.620455 818.23674 
L 23.04 817.936151 
L 19.748571 816.712455 
L 18.145366 814.950648 
L 16.457143 814.596606 
L 13.165714 813.488548 
L 9.874286 812.60816 
L 7.959455 811.664557 
L 6.582857 811.458588 
L 3.291429 810.843763 
L 0.247207 808.378466 
L 0 808.26072 
L 0 808.378466 
L 0 811.664557 
L 0 814.950648 
L 0 818.23674 
z
" clip-path="url(#pe6590bb9d2)" style="fill: #c6dbef; fill-opacity: 0.9"/>
    <path clip-path="url(#pe6590bb9d2)" style="fill: #bed8ec; fill-opacity: 0.9"/>
    <path clip-path="url(#pe6590bb9d2)" style="fill: #b5d4e9; fill-opacity: 0.9"/>
    <path clip-path="url(#pe6590bb9d2)" style="fill: #add0e6; fill-opacity: 0.9"/>
    <path clip-path="url(#pe6590bb9d2)" style="fill: #a5cde3; fill-opacity: 0.9"/>
    <path clip-path="url(#pe6590bb9d2)" style="fill: #9cc9e1; fill-opacity: 0.9"/>
    <path clip-path="url(#pe6590bb9d2)" style="fill: #91c3de; fill-opacity: 0.9"/>
    <path clip-path="url(#pe6590bb9d2)" style="fill: #85bcdc; fill-opacity: 0.9"/>
    <path clip-path="url(#pe6590bb9d2)" style="fill: #7cb7da; fill-opacity: 0.9"/>
    <path clip-path="url(#pe6590bb9d2)" style="fill: #71b1d7; fill-opacity: 0.9"/>
    <path clip-path="url(#pe6590bb9d2)" style="fill: #66abd4; fill-opacity: 0.9"/>
    <path clip-path="url(#pe6590bb9d2)" style="fill: #5da5d1; fill-opacity: 0.9"/>
    <path clip-path="url(#pe6590bb9d2)" style="fill: #56a0ce; fill-opacity: 0.9"/>
    <path clip-path="url(#pe6590bb9d2)" style="fill: #4d99ca; fill-opacity: 0.9"/>
    <path clip-path="url(#pe6590bb9d2)" style="fill: #4493c7; fill-opacity: 0.9"/>
    <path clip-path="url(#pe6590bb9d2)" style="fill: #3c8cc3; fill-opacity: 0.9"/>
    <path clip-path="url(#pe6590bb9d2)" style="fill: #3686c0; fill-opacity: 0.9"/>
    <path clip-path="url(#pe6590bb9d2)" style="fill: #2f7fbc; fill-opacity: 0.9"/>
    <path clip-path="url(#pe6590bb9d2)" style="fill: #2777b8; fill-opacity: 0.9"/>
    <path clip-path="url(#pe6590bb9d2)" style="fill: #2070b4; fill-opacity: 0.9"/>
    <path clip-path="url(#pe6590bb9d2)" style="fill: #1c6ab0; fill-opacity: 0.9"/>
    <path clip-path="url(#pe6590bb9d2)" style="fill: #1663aa; fill-opacity: 0.9"/>
    <path clip-path="url(#pe6590bb9d2)" style="fill: #115ca5; fill-opacity: 0.9"/>
    <path clip-path="url(#pe6590bb9d2)" style="fill: #0c56a0; fill-opacity: 0.9"/>
    <path clip-path="url(#pe6590bb9d2)" style="fill: #084f99; fill-opacity: 0.9"/>
    <path clip-path="url(#pe6590bb9d2)" style="fill: #08488e; fill-opacity: 0.9"/>
    <path clip-path="url(#pe6590bb9d2)" style="fill: #084184; fill-opacity: 0.9"/>
    <path clip-path="url(#pe6590bb9d2)" style="fill: #083a7a; fill-opacity: 0.9"/>
    <path clip-path="url(#pe6590bb9d2)" style="fill: #083370; fill-opacity: 0.9"/>
    <path clip-path="url(#pe6590bb9d2)" style="fill: #08306b; fill-opacity: 0.9"/>
   </g>
   <g id="QuadContourSet_2">
    <path d="M 34.561339 818.23674 
L 32.914286 816.605148 
L 31.997334 816.462139 
M 14.533696 809.560488 
L 13.165714 809.042046 
L 9.874286 808.474685 
L 9.718804 808.378466 
L 6.582857 806.001168 
L 3.291429 805.904888 
L 1.87728 805.092374 
L 0 803.230244 
" clip-path="url(#pe6590bb9d2)" style="fill: none"/>
    <path d="M 33.715648 818.23674 
L 32.914286 817.4429 
L 29.622857 816.672519 
L 26.331429 815.551322 
L 23.806397 814.950648 
L 23.04 814.488502 
L 19.748571 812.631097 
L 16.881068 811.664557 
L 16.457143 811.24477 
L 13.165714 809.375319 
L 9.874286 808.84335 
L 9.123073 808.378466 
L 8.340483 807.7852 
" clip-path="url(#pe6590bb9d2)" style="fill: none"/>
    <path d="M 32.815478 818.23674 
L 29.622857 817.253225 
L 28.419786 816.767837 
M 11.00672 809.382865 
L 9.874286 809.212015 
L 8.527342 808.378466 
L 6.582857 806.904391 
L 3.291429 806.716145 
L 0.46532 805.092374 
L -0 804.63081 
" clip-path="url(#pe6590bb9d2)" style="fill: none"/>
    <path d="M 30.930429 818.23674 
L 29.622857 817.833931 
L 28.339455 817.235515 
M 11.015694 809.74061 
L 9.874286 809.58068 
L 7.931611 808.378466 
L 6.582857 807.356002 
L 3.291429 807.121773 
L 0 805.262706 
" clip-path="url(#pe6590bb9d2)" style="fill: none"/>
    <path d="M 29.398163 818.23674 
L 26.331429 816.673181 
L 25.055669 816.392533 
M 7.996244 808.787128 
L 7.335881 808.378466 
L 6.582857 807.807614 
L 3.291429 807.527401 
L 0 805.762375 
" clip-path="url(#pe6590bb9d2)" style="fill: none"/>
    <path d="M 28.664698 818.23674 
L 26.331429 817.047134 
L 25.033703 816.770902 
M 8.019027 809.169892 
L 6.74015 808.378466 
L 6.582857 808.259225 
L 3.291429 807.93303 
L 0 806.262044 
" clip-path="url(#pe6590bb9d2)" style="fill: none"/>
    <path d="M 27.931234 818.23674 
L 26.331429 817.421087 
L 25.010543 817.149337 
M 7.961089 809.697685 
L 6.582857 808.985235 
L 3.678685 808.378466 
L 3.291429 808.338658 
L 0 806.761713 
" clip-path="url(#pe6590bb9d2)" style="fill: none"/>
    <path d="M 27.197769 818.23674 
L 26.331429 817.79504 
L 24.986174 817.527863 
M 7.886845 810.303185 
L 6.582857 809.809686 
L 3.291429 809.144649 
L 2.345323 808.378466 
L 0 807.261382 
" clip-path="url(#pe6590bb9d2)" style="fill: none"/>
    <path d="M 26.464305 818.23674 
L 26.331429 818.168993 
L 24.960579 817.906501 
M 7.776681 810.920627 
L 6.582857 810.634137 
L 3.291429 809.994206 
L 1.296265 808.378466 
L 0 807.761051 
" clip-path="url(#pe6590bb9d2)" style="fill: none"/>
    <path d="M 9.046423 812.2002 
L 7.959455 811.664557 
L 6.582857 811.458588 
L 3.291429 810.843763 
L 0.247207 808.378466 
L 0 808.26072 
" clip-path="url(#pe6590bb9d2)" style="fill: none"/>
    <path clip-path="url(#pe6590bb9d2)" style="fill: none"/>
    <path clip-path="url(#pe6590bb9d2)" style="fill: none"/>
    <path clip-path="url(#pe6590bb9d2)" style="fill: none"/>
    <path clip-path="url(#pe6590bb9d2)" style="fill: none"/>
    <path clip-path="url(#pe6590bb9d2)" style="fill: none"/>
    <path clip-path="url(#pe6590bb9d2)" style="fill: none"/>
    <path clip-path="url(#pe6590bb9d2)" style="fill: none"/>
    <path clip-path="url(#pe6590bb9d2)" style="fill: none"/>
    <path clip-path="url(#pe6590bb9d2)" style="fill: none"/>
    <path clip-path="url(#pe6590bb9d2)" style="fill: none"/>
    <path clip-path="url(#pe6590bb9d2)" style="fill: none"/>
    <path clip-path="url(#pe6590bb9d2)" style="fill: none"/>
    <path clip-path="url(#pe6590bb9d2)" style="fill: none"/>
    <path clip-path="url(#pe6590bb9d2)" style="fill: none"/>
    <path clip-path="url(#pe6590bb9d2)" style="fill: none"/>
    <path clip-path="url(#pe6590bb9d2)" style="fill: none"/>
    <path clip-path="url(#pe6590bb9d2)" style="fill: none"/>
    <path clip-path="url(#pe6590bb9d2)" style="fill: none"/>
    <path clip-path="url(#pe6590bb9d2)" style="fill: none"/>
    <path clip-path="url(#pe6590bb9d2)" style="fill: none"/>
    <path clip-path="url(#pe6590bb9d2)" style="fill: none"/>
    <path clip-path="url(#pe6590bb9d2)" style="fill: none"/>
    <path clip-path="url(#pe6590bb9d2)" style="fill: none"/>
    <path clip-path="url(#pe6590bb9d2)" style="fill: none"/>
    <path clip-path="url(#pe6590bb9d2)" style="fill: none"/>
    <path clip-path="url(#pe6590bb9d2)" style="fill: none"/>
    <path clip-path="url(#pe6590bb9d2)" style="fill: none"/>
    <path clip-path="url(#pe6590bb9d2)" style="fill: none"/>
    <path clip-path="url(#pe6590bb9d2)" style="fill: none"/>
   </g>
   <g id="text_1">
    <g clip-path="url(#pe6590bb9d2)">
     <!-- 0 -->
     <g style="opacity: 0" transform="translate(18.266494 815.199295) rotate(-338.223524) scale(0.12 -0.12)">
      <defs>
       <path id="DejaVuSans-30" d="M 2034 4250 
Q 1547 4250 1301 3770 
Q 1056 3291 1056 2328 
Q 1056 1369 1301 889 
Q 1547 409 2034 409 
Q 2525 409 2770 889 
Q 3016 1369 3016 2328 
Q 3016 3291 2770 3770 
Q 2525 4250 2034 4250 
z
M 2034 4750 
Q 2819 4750 3233 4129 
Q 3647 3509 3647 2328 
Q 3647 1150 3233 529 
Q 2819 -91 2034 -91 
Q 1250 -91 836 529 
Q 422 1150 422 2328 
Q 422 3509 836 4129 
Q 1250 4750 2034 4750 
z
" transform="scale(0.015625)"/>
      </defs>
      <use xlink:href="#DejaVuSans-30"/>
     </g>
    </g>
   </g>
   <g id="text_2">
    <g clip-path="url(#pe6590bb9d2)">
     <!-- 1 -->
     <g style="opacity: 0" transform="translate(-4.963517 804.879831) rotate(-329.889482) scale(0.12 -0.12)">
      <defs>
       <path id="DejaVuSans-31" d="M 794 531 
L 1825 531 
L 1825 4091 
L 703 3866 
L 703 4441 
L 1819 4666 
L 2450 4666 
L 2450 531 
L 3481 531 
L 3481 0 
L 794 0 
L 794 531 
z
" transform="scale(0.015625)"/>
      </defs>
      <use xlink:href="#DejaVuSans-31"/>
     </g>
    </g>
   </g>
   <g id="text_3">
    <g clip-path="url(#pe6590bb9d2)">
     <!-- 2 -->
     <g style="opacity: 0" transform="translate(14.863328 814.249371) rotate(-333.887853) scale(0.12 -0.12)">
      <defs>
       <path id="DejaVuSans-32" d="M 1228 531 
L 3431 531 
L 3431 0 
L 469 0 
L 469 531 
Q 828 903 1448 1529 
Q 2069 2156 2228 2338 
Q 2531 2678 2651 2914 
Q 2772 3150 2772 3378 
Q 2772 3750 2511 3984 
Q 2250 4219 1831 4219 
Q 1534 4219 1204 4116 
Q 875 4013 500 3803 
L 500 4441 
Q 881 4594 1212 4672 
Q 1544 4750 1819 4750 
Q 2544 4750 2975 4387 
Q 3406 4025 3406 3419 
Q 3406 3131 3298 2873 
Q 3191 2616 2906 2266 
Q 2828 2175 2409 1742 
Q 1991 1309 1228 531 
z
" transform="scale(0.015625)"/>
      </defs>
      <use xlink:href="#DejaVuSans-32"/>
     </g>
    </g>
   </g>
   <g id="text_4">
    <g clip-path="url(#pe6590bb9d2)">
     <!-- 3 -->
     <g style="opacity: 0" transform="translate(14.855574 814.544896) rotate(-333.540281) scale(0.12 -0.12)">
      <defs>
       <path id="DejaVuSans-33" d="M 2597 2516 
Q 3050 2419 3304 2112 
Q 3559 1806 3559 1356 
Q 3559 666 3084 287 
Q 2609 -91 1734 -91 
Q 1441 -91 1130 -33 
Q 819 25 488 141 
L 488 750 
Q 750 597 1062 519 
Q 1375 441 1716 441 
Q 2309 441 2620 675 
Q 2931 909 2931 1356 
Q 2931 1769 2642 2001 
Q 2353 2234 1838 2234 
L 1294 2234 
L 1294 2753 
L 1863 2753 
Q 2328 2753 2575 2939 
Q 2822 3125 2822 3475 
Q 2822 3834 2567 4026 
Q 2313 4219 1838 4219 
Q 1578 4219 1281 4162 
Q 984 4106 628 3988 
L 628 4550 
Q 988 4650 1302 4700 
Q 1616 4750 1894 4750 
Q 2613 4750 3031 4423 
Q 3450 4097 3450 3541 
Q 3450 3153 3228 2886 
Q 3006 2619 2597 2516 
z
" transform="scale(0.015625)"/>
      </defs>
      <use xlink:href="#DejaVuSans-33"/>
     </g>
    </g>
   </g>
   <g id="text_5">
    <g clip-path="url(#pe6590bb9d2)">
     <!-- 4 -->
     <g style="opacity: 0" transform="translate(11.588425 814.011551) rotate(-334.603203) scale(0.12 -0.12)">
      <defs>
       <path id="DejaVuSans-34" d="M 2419 4116 
L 825 1625 
L 2419 1625 
L 2419 4116 
z
M 2253 4666 
L 3047 4666 
L 3047 1625 
L 3713 1625 
L 3713 1100 
L 3047 1100 
L 3047 0 
L 2419 0 
L 2419 1100 
L 313 1100 
L 313 1709 
L 2253 4666 
z
" transform="scale(0.015625)"/>
      </defs>
      <use xlink:href="#DejaVuSans-34"/>
     </g>
    </g>
   </g>
   <g id="text_6">
    <g clip-path="url(#pe6590bb9d2)">
     <!-- 5 -->
     <g style="opacity: 0" transform="translate(11.58897 814.401318) rotate(-334.626269) scale(0.12 -0.12)">
      <defs>
       <path id="DejaVuSans-35" d="M 691 4666 
L 3169 4666 
L 3169 4134 
L 1269 4134 
L 1269 2991 
Q 1406 3038 1543 3061 
Q 1681 3084 1819 3084 
Q 2600 3084 3056 2656 
Q 3513 2228 3513 1497 
Q 3513 744 3044 326 
Q 2575 -91 1722 -91 
Q 1428 -91 1123 -41 
Q 819 9 494 109 
L 494 744 
Q 775 591 1075 516 
Q 1375 441 1709 441 
Q 2250 441 2565 725 
Q 2881 1009 2881 1497 
Q 2881 1984 2565 2268 
Q 2250 2553 1709 2553 
Q 1456 2553 1204 2497 
Q 953 2441 691 2322 
L 691 4666 
z
" transform="scale(0.015625)"/>
      </defs>
      <use xlink:href="#DejaVuSans-35"/>
     </g>
    </g>
   </g>
   <g id="text_7">
    <g clip-path="url(#pe6590bb9d2)">
     <!-- 6 -->
     <g style="opacity: 0" transform="translate(11.586484 814.780166) rotate(-334.520853) scale(0.12 -0.12)">
      <defs>
       <path id="DejaVuSans-36" d="M 2113 2584 
Q 1688 2584 1439 2293 
Q 1191 2003 1191 1497 
Q 1191 994 1439 701 
Q 1688 409 2113 409 
Q 2538 409 2786 701 
Q 3034 994 3034 1497 
Q 3034 2003 2786 2293 
Q 2538 2584 2113 2584 
z
M 3366 4563 
L 3366 3988 
Q 3128 4100 2886 4159 
Q 2644 4219 2406 4219 
Q 1781 4219 1451 3797 
Q 1122 3375 1075 2522 
Q 1259 2794 1537 2939 
Q 1816 3084 2150 3084 
Q 2853 3084 3261 2657 
Q 3669 2231 3669 1497 
Q 3669 778 3244 343 
Q 2819 -91 2113 -91 
Q 1303 -91 875 529 
Q 447 1150 447 2328 
Q 447 3434 972 4092 
Q 1497 4750 2381 4750 
Q 2619 4750 2861 4703 
Q 3103 4656 3366 4563 
z
" transform="scale(0.015625)"/>
      </defs>
      <use xlink:href="#DejaVuSans-36"/>
     </g>
    </g>
   </g>
   <g id="text_8">
    <g clip-path="url(#pe6590bb9d2)">
     <!-- 7 -->
     <g style="opacity: 0" transform="translate(11.578958 815.140461) rotate(-334.197457) scale(0.12 -0.12)">
      <defs>
       <path id="DejaVuSans-37" d="M 525 4666 
L 3525 4666 
L 3525 4397 
L 1831 0 
L 1172 0 
L 2766 4134 
L 525 4134 
L 525 4666 
z
" transform="scale(0.015625)"/>
      </defs>
      <use xlink:href="#DejaVuSans-37"/>
     </g>
    </g>
   </g>
   <g id="text_9">
    <g clip-path="url(#pe6590bb9d2)">
     <!-- 8 -->
     <g style="opacity: 0" transform="translate(11.574926 815.513268) rotate(-334.021349) scale(0.12 -0.12)">
      <defs>
       <path id="DejaVuSans-38" d="M 2034 2216 
Q 1584 2216 1326 1975 
Q 1069 1734 1069 1313 
Q 1069 891 1326 650 
Q 1584 409 2034 409 
Q 2484 409 2743 651 
Q 3003 894 3003 1313 
Q 3003 1734 2745 1975 
Q 2488 2216 2034 2216 
z
M 1403 2484 
Q 997 2584 770 2862 
Q 544 3141 544 3541 
Q 544 4100 942 4425 
Q 1341 4750 2034 4750 
Q 2731 4750 3128 4425 
Q 3525 4100 3525 3541 
Q 3525 3141 3298 2862 
Q 3072 2584 2669 2484 
Q 3125 2378 3379 2068 
Q 3634 1759 3634 1313 
Q 3634 634 3220 271 
Q 2806 -91 2034 -91 
Q 1263 -91 848 271 
Q 434 634 434 1313 
Q 434 1759 690 2068 
Q 947 2378 1403 2484 
z
M 1172 3481 
Q 1172 3119 1398 2916 
Q 1625 2713 2034 2713 
Q 2441 2713 2670 2916 
Q 2900 3119 2900 3481 
Q 2900 3844 2670 4047 
Q 2441 4250 2034 4250 
Q 1625 4250 1398 4047 
Q 1172 3844 1172 3481 
z
" transform="scale(0.015625)"/>
      </defs>
      <use xlink:href="#DejaVuSans-38"/>
     </g>
    </g>
   </g>
   <g id="text_10">
    <g clip-path="url(#pe6590bb9d2)">
     <!-- 9 -->
     <g style="opacity: 0" transform="translate(13.293415 816.363537) rotate(-335.297622) scale(0.12 -0.12)">
      <defs>
       <path id="DejaVuSans-39" d="M 703 97 
L 703 672 
Q 941 559 1184 500 
Q 1428 441 1663 441 
Q 2288 441 2617 861 
Q 2947 1281 2994 2138 
Q 2813 1869 2534 1725 
Q 2256 1581 1919 1581 
Q 1219 1581 811 2004 
Q 403 2428 403 3163 
Q 403 3881 828 4315 
Q 1253 4750 1959 4750 
Q 2769 4750 3195 4129 
Q 3622 3509 3622 2328 
Q 3622 1225 3098 567 
Q 2575 -91 1691 -91 
Q 1453 -91 1209 -44 
Q 966 3 703 97 
z
M 1959 2075 
Q 2384 2075 2632 2365 
Q 2881 2656 2881 3163 
Q 2881 3666 2632 3958 
Q 2384 4250 1959 4250 
Q 1534 4250 1286 3958 
Q 1038 3666 1038 3163 
Q 1038 2656 1286 2365 
Q 1534 2075 1959 2075 
z
" transform="scale(0.015625)"/>
      </defs>
      <use xlink:href="#DejaVuSans-39"/>
     </g>
    </g>
   </g>
  </g>
 </g>
 <defs>
  <clipPath id="pe6590bb9d2">
   <rect x="0" y="0" width="576" height="818.23674"/>
  </clipPath>
 </defs>
</svg>
