<?xml version="1.0" encoding="utf-8" standalone="no"?>
<!DOCTYPE svg PUBLIC "-//W3C//DTD SVG 1.1//EN"
  "http://www.w3.org/Graphics/SVG/1.1/DTD/svg11.dtd">
<svg xmlns:xlink="http://www.w3.org/1999/xlink" width="576pt" height="815.79817pt" viewBox="0 0 576 815.79817" xmlns="http://www.w3.org/2000/svg" version="1.1">
 <metadata>
  <rdf:RDF xmlns:dc="http://purl.org/dc/elements/1.1/" xmlns:cc="http://creativecommons.org/ns#" xmlns:rdf="http://www.w3.org/1999/02/22-rdf-syntax-ns#">
   <cc:Work>
    <dc:type rdf:resource="http://purl.org/dc/dcmitype/StillImage"/>
    <dc:date>2025-07-25T22:45:01.358273</dc:date>
    <dc:format>image/svg+xml</dc:format>
    <dc:creator>
     <cc:Agent>
      <dc:title>Matplotlib v3.10.3, https://matplotlib.org/</dc:title>
     </cc:Agent>
    </dc:creator>
   </cc:Work>
  </rdf:RDF>
 </metadata>
 <defs>
  <style type="text/css">*{stroke-linejoin: round; stroke-linecap: butt}</style>
 </defs>
 <g id="figure_1">
  <g id="patch_1">
   <path d="M 0 815.79817 
L 576 815.79817 
L 576 0 
L 0 0 
L 0 815.79817 
z
" style="fill: none; opacity: 0"/>
  </g>
  <g id="axes_1">
   <g id="QuadContourSet_1">
    <path d="M 576 203.090274 
L 576 199.85417 
L 576 198.160646 
L 575.595571 196.577872 
L 572.727273 193.700634 
L 572.498927 193.301574 
L 571.547499 190.025277 
L 569.454545 187.981175 
L 568.639139 186.748979 
L 567.456248 183.472681 
L 566.181818 182.261716 
L 564.045353 180.196383 
L 562.909091 178.127448 
L 560.480872 176.920085 
L 559.636364 176.500177 
L 556.363636 173.850915 
L 556.24959 173.643787 
L 554.785459 170.367489 
L 553.090909 168.500949 
L 552.447169 167.091191 
L 550.200595 163.814894 
L 549.818182 163.515259 
L 548.488641 160.538596 
L 546.545455 158.035589 
L 545.944732 157.262298 
L 544.504405 153.986 
L 543.272727 152.428673 
L 541.064897 150.709702 
L 540 149.258624 
L 536.988904 147.433404 
L 536.727273 147.274813 
L 533.454545 144.458537 
L 533.265498 144.157106 
L 532.254887 140.880809 
L 530.181818 138.805025 
L 529.509687 137.604511 
L 528.337118 134.328213 
L 526.909091 133.132125 
L 525.749028 131.051915 
L 523.995693 127.775617 
L 523.636364 127.475182 
L 521.719132 124.499319 
L 520.363636 121.95573 
L 519.326504 121.223021 
L 517.090909 119.077827 
L 515.208661 117.946723 
L 513.818182 117.111139 
L 511.655827 114.670426 
L 510.545455 113.203139 
L 509.862805 111.394128 
L 507.471048 108.11783 
L 507.272727 107.87364 
L 506.172026 104.841532 
L 504 102.063079 
L 503.725768 101.565234 
L 502.382266 98.288936 
L 500.727273 96.121723 
L 499.828779 95.012638 
L 498.382215 91.73634 
L 497.454545 90.445097 
L 494.750729 88.460043 
L 494.181818 87.805434 
L 490.909091 85.898246 
L 490.517367 85.183745 
L 487.636364 82.25286 
L 487.448664 81.907447 
L 486.762779 78.631149 
L 484.363636 76.230237 
L 483.887947 75.354851 
L 483.049916 72.078553 
L 481.090909 70.207614 
L 480.327229 68.802255 
L 479.165464 65.525957 
L 477.818182 64.184991 
L 476.313006 62.24966 
L 475.101392 58.973362 
L 474.545455 58.395828 
L 471.272727 56.359289 
L 469.937867 55.697064 
L 468 54.625679 
L 466.763466 52.420766 
L 464.727273 49.732049 
L 464.465727 49.144468 
L 463.32561 45.86817 
L 461.454545 44.07476 
L 460.792112 42.591872 
L 459.331359 39.315574 
L 458.181818 38.406003 
L 457.120802 36.039277 
L 454.95575 32.762979 
L 454.909091 32.725998 
L 452.937271 29.486681 
L 451.636364 27.126722 
L 449.946292 26.210383 
L 448.363636 25.204463 
L 445.090909 23.629079 
L 444.686469 22.934085 
L 441.818182 19.668072 
L 441.811962 19.657787 
L 441.104798 16.381489 
L 438.545455 14.020121 
L 438.067928 13.105191 
L 435.658424 9.828894 
L 435.272727 9.589526 
L 434.073091 6.552596 
L 432 4.580662 
L 430.943464 3.276298 
L 429.554683 -0 
L 428.727273 -0 
L 425.454545 -0 
L 422.181818 -0 
L 421.180383 -0 
L 422.181818 1.135905 
L 424.931444 3.276298 
L 425.454545 3.908063 
L 428.727273 5.593354 
L 429.384987 6.552596 
L 432 8.499532 
L 432.843426 9.828894 
L 434.778098 13.105191 
L 435.272727 13.657823 
L 437.000783 16.381489 
L 438.545455 18.816114 
L 439.122979 19.657787 
L 441.158141 22.934085 
L 441.818182 23.936295 
L 443.437129 26.210383 
L 445.090909 28.292043 
L 446.646767 29.486681 
L 448.363636 32.073354 
L 449.764969 32.762979 
L 451.636364 33.736375 
L 454.171102 36.039277 
L 454.909091 36.503311 
L 456.25107 39.315574 
L 458.181818 42.356951 
L 458.339662 42.591872 
L 460.107018 45.86817 
L 461.454545 48.325819 
L 462.006188 49.144468 
L 463.699802 52.420766 
L 464.727273 54.257885 
L 465.773087 55.697064 
L 468 58.913462 
L 468.083445 58.973362 
L 470.954384 62.24966 
L 471.272727 62.713172 
L 474.545455 64.678376 
L 475.097417 65.525957 
L 477.818182 67.751335 
L 478.389258 68.802255 
L 479.92824 72.078553 
L 481.090909 73.773958 
L 481.949975 75.354851 
L 483.730334 78.631149 
L 484.363636 79.796581 
L 485.510693 81.907447 
L 487.291051 85.183745 
L 487.636364 85.709771 
L 489.627847 88.460043 
L 490.909091 90.218488 
L 492.784962 91.73634 
L 494.181818 94.199706 
L 495.576807 95.012638 
L 497.454545 96.106894 
L 498.987972 98.288936 
L 500.727273 99.657517 
L 501.778117 101.565234 
L 503.453176 104.841532 
L 504 105.598873 
L 505.387538 108.11783 
L 507.192249 111.394128 
L 507.272727 111.540229 
L 508.99696 114.670426 
L 510.545455 117.058009 
L 511.380894 117.946723 
L 513.632179 121.223021 
L 513.818182 121.471593 
L 516.773273 124.499319 
L 517.090909 124.971981 
L 520.363636 127.159942 
L 520.686658 127.775617 
L 523.636364 130.960293 
L 523.690801 131.051915 
L 525.459939 134.328213 
L 526.909091 136.669704 
L 527.461737 137.604511 
L 529.322964 140.880809 
L 530.181818 142.379116 
L 531.227723 144.157106 
L 533.27554 147.433404 
L 533.454545 147.679992 
L 535.700042 150.709702 
L 536.727273 152.109625 
L 539.00765 153.986 
L 540 155.758735 
L 542.448431 157.262298 
L 543.272727 157.778861 
L 545.110163 160.538596 
L 546.545455 161.770324 
L 547.738859 163.814894 
L 549.608909 167.091191 
L 549.818182 167.377239 
L 551.563575 170.367489 
L 553.090909 172.984154 
L 553.565055 173.643787 
L 555.512353 176.920085 
L 556.363636 178.069669 
L 558.312985 180.196383 
L 559.636364 182.030738 
L 561.656583 183.472681 
L 562.909091 185.040366 
L 566.181818 186.692437 
L 566.210396 186.748979 
L 567.893333 190.025277 
L 569.454545 191.651355 
L 570.398816 193.301574 
L 572.227305 196.577872 
L 572.727273 197.370815 
L 574.148272 199.85417 
z
" clip-path="url(#p651b50b5f2)" style="fill: #f5f9fe; fill-opacity: 0.9"/>
    <path d="M 576 198.160646 
L 576 196.577872 
L 576 193.301574 
L 576 190.025277 
L 576 186.748979 
L 576 183.472681 
L 576 180.196383 
L 576 176.920085 
L 576 173.643787 
L 576 173.390621 
L 572.727273 172.015513 
L 569.454545 170.833012 
L 568.589606 170.367489 
L 566.181818 168.530246 
L 564.386461 167.091191 
L 562.909091 165.185434 
L 561.846629 163.814894 
L 559.636364 160.963726 
L 558.619006 160.538596 
L 556.363636 158.914938 
L 556.096433 157.262298 
L 553.090909 154.709634 
L 552.666298 153.986 
L 551.681054 150.709702 
L 549.818182 149.132387 
L 548.109694 147.433404 
L 546.670191 144.157106 
L 546.545455 144.055198 
L 545.912278 144.157106 
L 543.272727 144.951038 
L 542.944324 144.157106 
L 540 142.241267 
L 538.535903 140.880809 
L 536.727273 138.403751 
L 536.302778 137.604511 
L 535.002074 134.328213 
L 533.454545 132.241847 
L 532.822545 131.051915 
L 531.441664 127.775617 
L 530.181818 126.079943 
L 529.119001 124.499319 
L 527.880289 121.223021 
L 526.909091 119.918039 
L 524.015482 117.946723 
L 523.636364 117.219304 
L 522.431776 117.946723 
L 520.363636 118.076287 
L 520.230828 117.946723 
L 519.352284 114.670426 
L 517.090909 113.004242 
L 515.272895 111.394128 
L 513.818182 108.500089 
L 513.64249 108.11783 
L 512.188468 104.841532 
L 510.729173 101.565234 
L 510.545455 101.3745 
L 509.14767 98.288936 
L 507.988379 95.012638 
L 507.272727 94.258947 
L 505.936779 91.73634 
L 505.206522 88.460043 
L 504 87.138376 
L 501.808761 85.183745 
L 500.908297 81.907447 
L 500.727273 81.671988 
L 500.367874 81.907447 
L 497.498155 85.183745 
L 497.454545 85.189937 
L 497.449161 85.183745 
L 495.96354 81.907447 
L 494.181818 80.762312 
L 492.977509 78.631149 
L 491.43456 75.354851 
L 490.909091 74.761711 
L 490.09936 72.078553 
L 489.453926 68.802255 
L 487.636364 66.934151 
L 487.181016 65.525957 
L 487.211653 62.24966 
L 487.636364 60.570509 
L 490.909091 62.003042 
L 491.222139 62.24966 
L 494.181818 63.689424 
L 496.697609 65.525957 
L 497.454545 66.187879 
L 500.727273 66.531475 
L 503.569994 68.802255 
L 504 69.004029 
L 507.272727 71.367996 
L 508.066049 72.078553 
L 510.545455 75.076693 
L 510.977363 75.354851 
L 513.592882 78.631149 
L 513.818182 78.905681 
L 517.090909 80.645159 
L 517.917254 81.907447 
L 520.112007 85.183745 
L 520.363636 85.334978 
L 522.648455 88.460043 
L 523.636364 89.948105 
L 526.507078 91.73634 
L 526.909091 92.066085 
L 530.181818 93.276398 
L 531.065215 95.012638 
L 533.454545 97.337294 
L 533.95032 98.288936 
L 535.439814 101.565234 
L 536.727273 103.460668 
L 537.471063 104.841532 
L 538.998161 108.11783 
L 540 109.536561 
L 541.000562 111.394128 
L 542.612831 114.670426 
L 543.272727 115.612455 
L 545.110719 117.946723 
L 546.435922 121.223021 
L 546.545455 121.385796 
L 549.818182 123.097991 
L 553.090909 124.490456 
L 553.093446 124.499319 
L 555.109176 127.775617 
L 556.363636 128.978976 
L 557.41483 131.051915 
L 558.67993 134.328213 
L 559.636364 135.425841 
L 560.742918 137.604511 
L 561.913674 140.880809 
L 562.909091 141.869437 
L 564.071007 144.157106 
L 565.293027 147.433404 
L 566.181818 148.313033 
L 567.837476 150.709702 
L 568.673135 153.986 
L 569.454545 154.756628 
L 572.727273 156.830319 
L 576 157.223029 
L 576 153.986 
L 576 150.709702 
L 576 147.433404 
L 576 144.157106 
L 576 140.880809 
L 576 137.604511 
L 576 134.328213 
L 576 131.051915 
L 576 127.775617 
L 576 124.499319 
L 576 121.223021 
L 576 117.946723 
L 576 114.670426 
L 576 111.394128 
L 576 108.11783 
L 576 104.841532 
L 576 101.565234 
L 576 98.288936 
L 576 95.012638 
L 576 91.73634 
L 576 88.460043 
L 576 85.183745 
L 576 81.907447 
L 576 78.631149 
L 576 75.354851 
L 576 72.078553 
L 576 68.802255 
L 576 65.525957 
L 576 62.24966 
L 576 58.973362 
L 576 55.697064 
L 576 52.420766 
L 576 49.144468 
L 576 45.86817 
L 576 42.591872 
L 576 39.315574 
L 576 36.039277 
L 576 32.762979 
L 576 30.860549 
L 575.097394 29.486681 
L 573.113842 26.210383 
L 572.727273 25.580862 
L 570.978476 22.934085 
L 569.454545 19.895196 
L 569.278802 19.657787 
L 566.726083 16.381489 
L 566.181818 15.510019 
L 564.413478 13.105191 
L 562.909091 11.145551 
L 561.972332 9.828894 
L 559.636364 6.733384 
L 559.530856 6.552596 
L 557.541268 3.276298 
L 556.363636 1.598653 
L 555.395577 -0 
L 553.090909 -0 
L 549.818182 -0 
L 546.545455 -0 
L 543.272727 -0 
L 540 -0 
L 536.727273 -0 
L 533.454545 -0 
L 530.181818 -0 
L 526.909091 -0 
L 523.636364 -0 
L 520.363636 -0 
L 517.090909 -0 
L 513.818182 -0 
L 510.545455 -0 
L 507.272727 -0 
L 504 -0 
L 500.727273 -0 
L 497.454545 -0 
L 494.181818 -0 
L 490.909091 -0 
L 487.636364 -0 
L 484.363636 -0 
L 481.090909 -0 
L 477.818182 -0 
L 474.545455 -0 
L 471.272727 -0 
L 468 -0 
L 464.727273 -0 
L 461.454545 -0 
L 458.181818 -0 
L 454.909091 -0 
L 451.636364 -0 
L 448.363636 -0 
L 445.090909 -0 
L 441.818182 -0 
L 438.545455 -0 
L 435.272727 -0 
L 432 -0 
L 429.554683 -0 
L 430.943464 3.276298 
L 432 4.580662 
L 434.073091 6.552596 
L 435.272727 9.589526 
L 435.658424 9.828894 
L 438.067928 13.105191 
L 438.545455 14.020121 
L 441.104798 16.381489 
L 441.811962 19.657787 
L 441.818182 19.668072 
L 444.686469 22.934085 
L 445.090909 23.629079 
L 448.363636 25.204463 
L 449.946292 26.210383 
L 451.636364 27.126722 
L 452.937271 29.486681 
L 454.909091 32.725998 
L 454.95575 32.762979 
L 457.120802 36.039277 
L 458.181818 38.406003 
L 459.331359 39.315574 
L 460.792112 42.591872 
L 461.454545 44.07476 
L 463.32561 45.86817 
L 464.465727 49.144468 
L 464.727273 49.732049 
L 466.763466 52.420766 
L 468 54.625679 
L 469.937867 55.697064 
L 471.272727 56.359289 
L 474.545455 58.395828 
L 475.101392 58.973362 
L 476.313006 62.24966 
L 477.818182 64.184991 
L 479.165464 65.525957 
L 480.327229 68.802255 
L 481.090909 70.207614 
L 483.049916 72.078553 
L 483.887947 75.354851 
L 484.363636 76.230237 
L 486.762779 78.631149 
L 487.448664 81.907447 
L 487.636364 82.25286 
L 490.517367 85.183745 
L 490.909091 85.898246 
L 494.181818 87.805434 
L 494.750729 88.460043 
L 497.454545 90.445097 
L 498.382215 91.73634 
L 499.828779 95.012638 
L 500.727273 96.121723 
L 502.382266 98.288936 
L 503.725768 101.565234 
L 504 102.063079 
L 506.172026 104.841532 
L 507.272727 107.87364 
L 507.471048 108.11783 
L 509.862805 111.394128 
L 510.545455 113.203139 
L 511.655827 114.670426 
L 513.818182 117.111139 
L 515.208661 117.946723 
L 517.090909 119.077827 
L 519.326504 121.223021 
L 520.363636 121.95573 
L 521.719132 124.499319 
L 523.636364 127.475182 
L 523.995693 127.775617 
L 525.749028 131.051915 
L 526.909091 133.132125 
L 528.337118 134.328213 
L 529.509687 137.604511 
L 530.181818 138.805025 
L 532.254887 140.880809 
L 533.265498 144.157106 
L 533.454545 144.458537 
L 536.727273 147.274813 
L 536.988904 147.433404 
L 540 149.258624 
L 541.064897 150.709702 
L 543.272727 152.428673 
L 544.504405 153.986 
L 545.944732 157.262298 
L 546.545455 158.035589 
L 548.488641 160.538596 
L 549.818182 163.515259 
L 550.200595 163.814894 
L 552.447169 167.091191 
L 553.090909 168.500949 
L 554.785459 170.367489 
L 556.24959 173.643787 
L 556.363636 173.850915 
L 559.636364 176.500177 
L 560.480872 176.920085 
L 562.909091 178.127448 
L 564.045353 180.196383 
L 566.181818 182.261716 
L 567.456248 183.472681 
L 568.639139 186.748979 
L 569.454545 187.981175 
L 571.547499 190.025277 
L 572.498927 193.301574 
L 572.727273 193.700634 
L 575.595571 196.577872 
z
M 484.224002 58.973362 
L 484.363636 57.601898 
L 485.875598 58.973362 
L 484.363636 59.329086 
z
" clip-path="url(#p651b50b5f2)" style="fill: #eff6fc; fill-opacity: 0.9"/>
    <path d="M 569.454545 170.833012 
L 572.727273 172.015513 
L 576 173.390621 
L 576 170.367489 
L 576 167.091191 
L 576 163.814894 
L 576 160.538596 
L 576 157.262298 
L 576 157.223029 
L 572.727273 156.830319 
L 569.454545 154.756628 
L 568.673135 153.986 
L 567.837476 150.709702 
L 566.181818 148.313033 
L 565.293027 147.433404 
L 564.071007 144.157106 
L 562.909091 141.869437 
L 561.913674 140.880809 
L 560.742918 137.604511 
L 559.636364 135.425841 
L 558.67993 134.328213 
L 557.41483 131.051915 
L 556.363636 128.978976 
L 555.109176 127.775617 
L 553.093446 124.499319 
L 553.090909 124.490456 
L 549.818182 123.097991 
L 546.545455 121.385796 
L 546.435922 121.223021 
L 545.110719 117.946723 
L 543.272727 115.612455 
L 542.612831 114.670426 
L 541.000562 111.394128 
L 540 109.536561 
L 538.998161 108.11783 
L 537.471063 104.841532 
L 536.727273 103.460668 
L 535.439814 101.565234 
L 533.95032 98.288936 
L 533.454545 97.337294 
L 531.065215 95.012638 
L 530.181818 93.276398 
L 526.909091 92.066085 
L 526.507078 91.73634 
L 523.636364 89.948105 
L 522.648455 88.460043 
L 520.363636 85.334978 
L 520.112007 85.183745 
L 517.917254 81.907447 
L 517.090909 80.645159 
L 513.818182 78.905681 
L 513.592882 78.631149 
L 510.977363 75.354851 
L 510.545455 75.076693 
L 508.066049 72.078553 
L 507.272727 71.367996 
L 504 69.004029 
L 503.569994 68.802255 
L 500.727273 66.531475 
L 497.454545 66.187879 
L 496.697609 65.525957 
L 494.181818 63.689424 
L 491.222139 62.24966 
L 490.909091 62.003042 
L 487.636364 60.570509 
L 487.211653 62.24966 
L 487.181016 65.525957 
L 487.636364 66.934151 
L 489.453926 68.802255 
L 490.09936 72.078553 
L 490.909091 74.761711 
L 491.43456 75.354851 
L 492.977509 78.631149 
L 494.181818 80.762312 
L 495.96354 81.907447 
L 497.449161 85.183745 
L 497.454545 85.189937 
L 497.498155 85.183745 
L 500.367874 81.907447 
L 500.727273 81.671988 
L 500.908297 81.907447 
L 501.808761 85.183745 
L 504 87.138376 
L 505.206522 88.460043 
L 505.936779 91.73634 
L 507.272727 94.258947 
L 507.988379 95.012638 
L 509.14767 98.288936 
L 510.545455 101.3745 
L 510.729173 101.565234 
L 512.188468 104.841532 
L 513.64249 108.11783 
L 513.818182 108.500089 
L 515.272895 111.394128 
L 517.090909 113.004242 
L 519.352284 114.670426 
L 520.230828 117.946723 
L 520.363636 118.076287 
L 522.431776 117.946723 
L 523.636364 117.219304 
L 524.015482 117.946723 
L 526.909091 119.918039 
L 527.880289 121.223021 
L 529.119001 124.499319 
L 530.181818 126.079943 
L 531.441664 127.775617 
L 532.822545 131.051915 
L 533.454545 132.241847 
L 535.002074 134.328213 
L 536.302778 137.604511 
L 536.727273 138.403751 
L 538.535903 140.880809 
L 540 142.241267 
L 542.944324 144.157106 
L 543.272727 144.951038 
L 545.912278 144.157106 
L 546.545455 144.055198 
L 546.670191 144.157106 
L 548.109694 147.433404 
L 549.818182 149.132387 
L 551.681054 150.709702 
L 552.666298 153.986 
L 553.090909 154.709634 
L 556.096433 157.262298 
L 556.363636 158.914938 
L 558.619006 160.538596 
L 559.636364 160.963726 
L 561.846629 163.814894 
L 562.909091 165.185434 
L 564.386461 167.091191 
L 566.181818 168.530246 
L 568.589606 170.367489 
z
M 484.363636 59.329086 
L 485.875598 58.973362 
L 484.363636 57.601898 
L 484.224002 58.973362 
z
M 576 30.860549 
L 576 29.486681 
L 576 26.210383 
L 576 22.934085 
L 576 19.657787 
L 576 16.381489 
L 576 13.105191 
L 576 9.828894 
L 576 6.552596 
L 576 3.276298 
L 576 -0 
L 572.727273 -0 
L 569.454545 -0 
L 566.181818 -0 
L 562.909091 -0 
L 559.636364 -0 
L 556.363636 -0 
L 555.395577 -0 
L 556.363636 1.598653 
L 557.541268 3.276298 
L 559.530856 6.552596 
L 559.636364 6.733384 
L 561.972332 9.828894 
L 562.909091 11.145551 
L 564.413478 13.105191 
L 566.181818 15.510019 
L 566.726083 16.381489 
L 569.278802 19.657787 
L 569.454545 19.895196 
L 570.978476 22.934085 
L 572.727273 25.580862 
L 573.113842 26.210383 
L 575.097394 29.486681 
z
" clip-path="url(#p651b50b5f2)" style="fill: #eaf3fb; fill-opacity: 0.9"/>
    <path clip-path="url(#p651b50b5f2)" style="fill: #e5eff9; fill-opacity: 0.9"/>
    <path clip-path="url(#p651b50b5f2)" style="fill: #dfecf7; fill-opacity: 0.9"/>
    <path clip-path="url(#p651b50b5f2)" style="fill: #dae8f6; fill-opacity: 0.9"/>
    <path clip-path="url(#p651b50b5f2)" style="fill: #d6e5f4; fill-opacity: 0.9"/>
    <path clip-path="url(#p651b50b5f2)" style="fill: #d0e2f2; fill-opacity: 0.9"/>
    <path clip-path="url(#p651b50b5f2)" style="fill: #cbdef1; fill-opacity: 0.9"/>
    <path clip-path="url(#p651b50b5f2)" style="fill: #c6dbef; fill-opacity: 0.9"/>
    <path clip-path="url(#p651b50b5f2)" style="fill: #bed8ec; fill-opacity: 0.9"/>
    <path clip-path="url(#p651b50b5f2)" style="fill: #b5d4e9; fill-opacity: 0.9"/>
    <path clip-path="url(#p651b50b5f2)" style="fill: #add0e6; fill-opacity: 0.9"/>
    <path clip-path="url(#p651b50b5f2)" style="fill: #a5cde3; fill-opacity: 0.9"/>
    <path clip-path="url(#p651b50b5f2)" style="fill: #9cc9e1; fill-opacity: 0.9"/>
    <path clip-path="url(#p651b50b5f2)" style="fill: #91c3de; fill-opacity: 0.9"/>
    <path clip-path="url(#p651b50b5f2)" style="fill: #85bcdc; fill-opacity: 0.9"/>
    <path clip-path="url(#p651b50b5f2)" style="fill: #7cb7da; fill-opacity: 0.9"/>
    <path clip-path="url(#p651b50b5f2)" style="fill: #71b1d7; fill-opacity: 0.9"/>
    <path clip-path="url(#p651b50b5f2)" style="fill: #66abd4; fill-opacity: 0.9"/>
    <path clip-path="url(#p651b50b5f2)" style="fill: #5da5d1; fill-opacity: 0.9"/>
    <path clip-path="url(#p651b50b5f2)" style="fill: #56a0ce; fill-opacity: 0.9"/>
    <path clip-path="url(#p651b50b5f2)" style="fill: #4d99ca; fill-opacity: 0.9"/>
    <path clip-path="url(#p651b50b5f2)" style="fill: #4493c7; fill-opacity: 0.9"/>
    <path clip-path="url(#p651b50b5f2)" style="fill: #3c8cc3; fill-opacity: 0.9"/>
    <path clip-path="url(#p651b50b5f2)" style="fill: #3686c0; fill-opacity: 0.9"/>
    <path clip-path="url(#p651b50b5f2)" style="fill: #2f7fbc; fill-opacity: 0.9"/>
    <path clip-path="url(#p651b50b5f2)" style="fill: #2777b8; fill-opacity: 0.9"/>
    <path clip-path="url(#p651b50b5f2)" style="fill: #2070b4; fill-opacity: 0.9"/>
    <path clip-path="url(#p651b50b5f2)" style="fill: #1c6ab0; fill-opacity: 0.9"/>
    <path clip-path="url(#p651b50b5f2)" style="fill: #1663aa; fill-opacity: 0.9"/>
    <path clip-path="url(#p651b50b5f2)" style="fill: #115ca5; fill-opacity: 0.9"/>
    <path clip-path="url(#p651b50b5f2)" style="fill: #0c56a0; fill-opacity: 0.9"/>
    <path clip-path="url(#p651b50b5f2)" style="fill: #084f99; fill-opacity: 0.9"/>
    <path clip-path="url(#p651b50b5f2)" style="fill: #08488e; fill-opacity: 0.9"/>
    <path clip-path="url(#p651b50b5f2)" style="fill: #084184; fill-opacity: 0.9"/>
    <path clip-path="url(#p651b50b5f2)" style="fill: #083a7a; fill-opacity: 0.9"/>
    <path clip-path="url(#p651b50b5f2)" style="fill: #083370; fill-opacity: 0.9"/>
    <path clip-path="url(#p651b50b5f2)" style="fill: #08306b; fill-opacity: 0.9"/>
   </g>
   <g id="QuadContourSet_2">
    <path d="M 421.180383 -0 
L 422.181818 1.135905 
L 424.931444 3.276298 
L 425.454545 3.908063 
L 428.727273 5.593354 
L 429.384987 6.552596 
L 432 8.499532 
L 432.843426 9.828894 
L 434.778098 13.105191 
L 435.272727 13.657823 
L 437.000783 16.381489 
L 438.545455 18.816114 
L 439.122979 19.657787 
L 441.158141 22.934085 
L 441.818182 23.936295 
L 443.437129 26.210383 
L 445.090909 28.292043 
L 446.646767 29.486681 
L 448.363636 32.073354 
L 449.764969 32.762979 
L 451.636364 33.736375 
L 454.171102 36.039277 
L 454.909091 36.503311 
L 456.25107 39.315574 
L 458.181818 42.356951 
L 458.339662 42.591872 
L 460.107018 45.86817 
L 461.454545 48.325819 
L 462.006188 49.144468 
L 463.699802 52.420766 
L 464.727273 54.257885 
L 465.773087 55.697064 
L 468 58.913462 
L 468.083445 58.973362 
L 470.954384 62.24966 
L 471.272727 62.713172 
L 474.545455 64.678376 
L 475.097417 65.525957 
L 477.818182 67.751335 
L 478.389258 68.802255 
L 479.92824 72.078553 
L 480.913753 73.515629 
M 490.695114 89.924815 
L 490.909091 90.218488 
L 492.784962 91.73634 
L 494.181818 94.199706 
L 495.576807 95.012638 
L 497.454545 96.106894 
L 498.987972 98.288936 
L 500.727273 99.657517 
L 501.778117 101.565234 
L 503.453176 104.841532 
L 504 105.598873 
L 505.387538 108.11783 
L 507.192249 111.394128 
L 507.272727 111.540229 
L 508.99696 114.670426 
L 510.545455 117.058009 
L 511.380894 117.946723 
L 513.632179 121.223021 
L 513.818182 121.471593 
L 516.773273 124.499319 
L 517.090909 124.971981 
L 520.363636 127.159942 
L 520.686658 127.775617 
L 523.636364 130.960293 
L 523.690801 131.051915 
L 525.459939 134.328213 
L 526.909091 136.669704 
L 527.461737 137.604511 
L 529.322964 140.880809 
L 530.181818 142.379116 
L 531.227723 144.157106 
L 533.27554 147.433404 
L 533.454545 147.679992 
L 535.700042 150.709702 
L 536.727273 152.109625 
L 539.00765 153.986 
L 540 155.758735 
L 542.448431 157.262298 
L 543.272727 157.778861 
L 545.110163 160.538596 
L 546.545455 161.770324 
L 547.738859 163.814894 
L 549.608909 167.091191 
L 549.818182 167.377239 
L 551.563575 170.367489 
L 553.090909 172.984154 
L 553.565055 173.643787 
L 555.512353 176.920085 
L 556.363636 178.069669 
L 558.312985 180.196383 
L 559.636364 182.030738 
L 561.656583 183.472681 
L 562.909091 185.040366 
L 566.181818 186.692437 
L 566.210396 186.748979 
L 567.893333 190.025277 
L 569.454545 191.651355 
L 570.398816 193.301574 
L 572.227305 196.577872 
L 572.727273 197.370815 
L 574.148272 199.85417 
L 576 203.090274 
" clip-path="url(#p651b50b5f2)" style="fill: none"/>
    <path d="M 429.554683 -0 
L 430.943464 3.276298 
L 432 4.580662 
L 434.073091 6.552596 
L 435.272727 9.589526 
L 435.658424 9.828894 
L 438.067928 13.105191 
L 438.545455 14.020121 
L 441.104798 16.381489 
L 441.811962 19.657787 
L 441.818182 19.668072 
L 444.686469 22.934085 
L 445.090909 23.629079 
L 448.363636 25.204463 
L 449.946292 26.210383 
L 451.636364 27.126722 
L 452.937271 29.486681 
L 454.909091 32.725998 
L 454.95575 32.762979 
L 457.120802 36.039277 
L 458.181818 38.406003 
L 459.331359 39.315574 
L 460.792112 42.591872 
L 461.454545 44.07476 
L 463.32561 45.86817 
L 464.465727 49.144468 
L 464.727273 49.732049 
L 466.763466 52.420766 
L 468 54.625679 
L 469.937867 55.697064 
L 471.272727 56.359289 
L 474.545455 58.395828 
L 475.101392 58.973362 
L 476.313006 62.24966 
L 477.818182 64.184991 
L 479.165464 65.525957 
L 480.327229 68.802255 
L 481.090909 70.207614 
L 483.049916 72.078553 
L 483.887947 75.354851 
L 484.363636 76.230237 
L 486.762779 78.631149 
L 487.448664 81.907447 
L 487.636364 82.25286 
L 490.517367 85.183745 
L 490.909091 85.898246 
L 494.181818 87.805434 
L 494.750729 88.460043 
L 497.454545 90.445097 
L 498.382215 91.73634 
L 499.828779 95.012638 
L 500.727273 96.121723 
L 501.175051 96.708089 
M 510.604814 113.281578 
L 511.655827 114.670426 
L 513.818182 117.111139 
L 515.208661 117.946723 
L 517.090909 119.077827 
L 519.326504 121.223021 
L 520.363636 121.95573 
L 521.719132 124.499319 
L 523.636364 127.475182 
L 523.995693 127.775617 
L 525.749028 131.051915 
L 526.909091 133.132125 
L 528.337118 134.328213 
L 529.509687 137.604511 
L 530.181818 138.805025 
L 532.254887 140.880809 
L 533.265498 144.157106 
L 533.454545 144.458537 
L 536.727273 147.274813 
L 536.988904 147.433404 
L 540 149.258624 
L 541.064897 150.709702 
L 543.272727 152.428673 
L 544.504405 153.986 
L 545.944732 157.262298 
L 546.545455 158.035589 
L 548.488641 160.538596 
L 549.818182 163.515259 
L 550.200595 163.814894 
L 552.447169 167.091191 
L 553.090909 168.500949 
L 554.785459 170.367489 
L 556.24959 173.643787 
L 556.363636 173.850915 
L 559.636364 176.500177 
L 560.480872 176.920085 
L 562.909091 178.127448 
L 564.045353 180.196383 
L 566.181818 182.261716 
L 567.456248 183.472681 
L 568.639139 186.748979 
L 569.454545 187.981175 
L 571.547499 190.025277 
L 572.498927 193.301574 
L 572.727273 193.700634 
L 575.595571 196.577872 
L 576 198.160646 
" clip-path="url(#p651b50b5f2)" style="fill: none"/>
    <path d="M 576 157.223029 
L 572.727273 156.830319 
L 569.454545 154.756628 
L 568.673135 153.986 
L 567.837476 150.709702 
L 566.181818 148.313033 
L 565.293027 147.433404 
L 564.071007 144.157106 
L 562.909091 141.869437 
L 561.913674 140.880809 
L 560.742918 137.604511 
L 559.636364 135.425841 
L 558.67993 134.328213 
L 557.41483 131.051915 
L 556.363636 128.978976 
L 555.109176 127.775617 
L 553.093446 124.499319 
L 553.090909 124.490456 
L 549.818182 123.097991 
L 546.545455 121.385796 
L 546.435922 121.223021 
L 545.110719 117.946723 
L 544.951916 117.745042 
M 535.26759 101.186411 
L 533.95032 98.288936 
L 533.454545 97.337294 
L 531.065215 95.012638 
L 530.181818 93.276398 
L 526.909091 92.066085 
L 526.507078 91.73634 
L 523.636364 89.948105 
L 522.648455 88.460043 
L 520.363636 85.334978 
L 520.112007 85.183745 
L 517.917254 81.907447 
L 517.090909 80.645159 
L 513.818182 78.905681 
L 513.592882 78.631149 
L 510.977363 75.354851 
L 510.545455 75.076693 
L 508.066049 72.078553 
L 507.272727 71.367996 
L 504 69.004029 
L 503.569994 68.802255 
L 500.727273 66.531475 
L 497.454545 66.187879 
L 496.697609 65.525957 
L 494.181818 63.689424 
L 491.222139 62.24966 
L 490.909091 62.003042 
L 487.636364 60.570509 
L 487.211653 62.24966 
L 487.181016 65.525957 
L 487.636364 66.934151 
L 489.453926 68.802255 
L 490.09936 72.078553 
L 490.909091 74.761711 
L 491.43456 75.354851 
L 492.977509 78.631149 
L 494.181818 80.762312 
L 495.96354 81.907447 
L 497.449161 85.183745 
L 497.454545 85.189937 
L 497.498155 85.183745 
L 500.367874 81.907447 
L 500.727273 81.671988 
L 500.908297 81.907447 
L 501.808761 85.183745 
L 504 87.138376 
L 505.206522 88.460043 
L 505.936779 91.73634 
L 507.272727 94.258947 
L 507.988379 95.012638 
L 509.14767 98.288936 
L 510.545455 101.3745 
L 510.729173 101.565234 
L 512.188468 104.841532 
L 513.64249 108.11783 
L 513.818182 108.500089 
L 515.272895 111.394128 
L 517.090909 113.004242 
L 519.352284 114.670426 
L 520.230828 117.946723 
L 520.363636 118.076287 
L 522.431776 117.946723 
L 523.636364 117.219304 
L 524.015482 117.946723 
L 526.909091 119.918039 
L 527.880289 121.223021 
L 529.119001 124.499319 
L 530.181818 126.079943 
L 531.441664 127.775617 
L 532.822545 131.051915 
L 533.454545 132.241847 
L 535.002074 134.328213 
L 536.302778 137.604511 
L 536.727273 138.403751 
L 538.535903 140.880809 
L 540 142.241267 
L 542.944324 144.157106 
L 543.272727 144.951038 
L 545.912278 144.157106 
L 546.545455 144.055198 
L 546.670191 144.157106 
L 548.109694 147.433404 
L 549.818182 149.132387 
L 551.681054 150.709702 
L 552.666298 153.986 
L 553.090909 154.709634 
L 556.096433 157.262298 
L 556.363636 158.914938 
L 558.619006 160.538596 
L 559.636364 160.963726 
L 561.846629 163.814894 
L 562.909091 165.185434 
L 564.386461 167.091191 
L 566.181818 168.530246 
L 568.589606 170.367489 
L 569.454545 170.833012 
L 572.727273 172.015513 
L 576 173.390621 
M 555.395577 -0 
L 556.363636 1.598653 
L 556.563088 1.882791 
M 567.661569 17.582143 
L 569.278802 19.657787 
L 569.454545 19.895196 
L 570.978476 22.934085 
L 572.727273 25.580862 
L 573.113842 26.210383 
L 575.097394 29.486681 
L 576 30.860549 
M 484.363636 59.329086 
L 485.875598 58.973362 
L 484.363636 57.601898 
L 484.224002 58.973362 
L 484.363636 59.329086 
z
" clip-path="url(#p651b50b5f2)" style="fill: none"/>
    <path clip-path="url(#p651b50b5f2)" style="fill: none"/>
    <path clip-path="url(#p651b50b5f2)" style="fill: none"/>
    <path clip-path="url(#p651b50b5f2)" style="fill: none"/>
    <path clip-path="url(#p651b50b5f2)" style="fill: none"/>
    <path clip-path="url(#p651b50b5f2)" style="fill: none"/>
    <path clip-path="url(#p651b50b5f2)" style="fill: none"/>
    <path clip-path="url(#p651b50b5f2)" style="fill: none"/>
    <path clip-path="url(#p651b50b5f2)" style="fill: none"/>
    <path clip-path="url(#p651b50b5f2)" style="fill: none"/>
    <path clip-path="url(#p651b50b5f2)" style="fill: none"/>
    <path clip-path="url(#p651b50b5f2)" style="fill: none"/>
    <path clip-path="url(#p651b50b5f2)" style="fill: none"/>
    <path clip-path="url(#p651b50b5f2)" style="fill: none"/>
    <path clip-path="url(#p651b50b5f2)" style="fill: none"/>
    <path clip-path="url(#p651b50b5f2)" style="fill: none"/>
    <path clip-path="url(#p651b50b5f2)" style="fill: none"/>
    <path clip-path="url(#p651b50b5f2)" style="fill: none"/>
    <path clip-path="url(#p651b50b5f2)" style="fill: none"/>
    <path clip-path="url(#p651b50b5f2)" style="fill: none"/>
    <path clip-path="url(#p651b50b5f2)" style="fill: none"/>
    <path clip-path="url(#p651b50b5f2)" style="fill: none"/>
    <path clip-path="url(#p651b50b5f2)" style="fill: none"/>
    <path clip-path="url(#p651b50b5f2)" style="fill: none"/>
    <path clip-path="url(#p651b50b5f2)" style="fill: none"/>
    <path clip-path="url(#p651b50b5f2)" style="fill: none"/>
    <path clip-path="url(#p651b50b5f2)" style="fill: none"/>
    <path clip-path="url(#p651b50b5f2)" style="fill: none"/>
    <path clip-path="url(#p651b50b5f2)" style="fill: none"/>
    <path clip-path="url(#p651b50b5f2)" style="fill: none"/>
    <path clip-path="url(#p651b50b5f2)" style="fill: none"/>
    <path clip-path="url(#p651b50b5f2)" style="fill: none"/>
    <path clip-path="url(#p651b50b5f2)" style="fill: none"/>
    <path clip-path="url(#p651b50b5f2)" style="fill: none"/>
    <path clip-path="url(#p651b50b5f2)" style="fill: none"/>
    <path clip-path="url(#p651b50b5f2)" style="fill: none"/>
    <path clip-path="url(#p651b50b5f2)" style="fill: none"/>
   </g>
   <g id="text_1">
    <g clip-path="url(#p651b50b5f2)">
     <!-- 0 -->
     <g style="opacity: 0" transform="translate(480.752091 80.20645) rotate(-299.392256) scale(0.12 -0.12)">
      <defs>
       <path id="DejaVuSans-30" d="M 2034 4250 
Q 1547 4250 1301 3770 
Q 1056 3291 1056 2328 
Q 1056 1369 1301 889 
Q 1547 409 2034 409 
Q 2525 409 2770 889 
Q 3016 1369 3016 2328 
Q 3016 3291 2770 3770 
Q 2525 4250 2034 4250 
z
M 2034 4750 
Q 2819 4750 3233 4129 
Q 3647 3509 3647 2328 
Q 3647 1150 3233 529 
Q 2819 -91 2034 -91 
Q 1250 -91 836 529 
Q 422 1150 422 2328 
Q 422 3509 836 4129 
Q 1250 4750 2034 4750 
z
" transform="scale(0.015625)"/>
      </defs>
      <use xlink:href="#DejaVuSans-30"/>
     </g>
    </g>
   </g>
   <g id="text_2">
    <g clip-path="url(#p651b50b5f2)">
     <!-- 1 -->
     <g style="opacity: 0" transform="translate(501.390471 103.206169) rotate(-300.180601) scale(0.12 -0.12)">
      <defs>
       <path id="DejaVuSans-31" d="M 794 531 
L 1825 531 
L 1825 4091 
L 703 3866 
L 703 4441 
L 1819 4666 
L 2450 4666 
L 2450 531 
L 3481 531 
L 3481 0 
L 794 0 
L 794 531 
z
" transform="scale(0.015625)"/>
      </defs>
      <use xlink:href="#DejaVuSans-31"/>
     </g>
    </g>
   </g>
   <g id="text_3">
    <g clip-path="url(#p651b50b5f2)">
     <!-- 2 -->
     <g style="opacity: 0" transform="translate(535.284552 107.719356) rotate(-297.986743) scale(0.12 -0.12)">
      <defs>
       <path id="DejaVuSans-32" d="M 1228 531 
L 3431 531 
L 3431 0 
L 469 0 
L 469 531 
Q 828 903 1448 1529 
Q 2069 2156 2228 2338 
Q 2531 2678 2651 2914 
Q 2772 3150 2772 3378 
Q 2772 3750 2511 3984 
Q 2250 4219 1831 4219 
Q 1534 4219 1204 4116 
Q 875 4013 500 3803 
L 500 4441 
Q 881 4594 1212 4672 
Q 1544 4750 1819 4750 
Q 2544 4750 2975 4387 
Q 3406 4025 3406 3419 
Q 3406 3131 3298 2873 
Q 3191 2616 2906 2266 
Q 2828 2175 2409 1742 
Q 1991 1309 1228 531 
z
" transform="scale(0.015625)"/>
      </defs>
      <use xlink:href="#DejaVuSans-32"/>
     </g>
    </g>
   </g>
   <g id="text_4">
    <g clip-path="url(#p651b50b5f2)">
     <!-- 2 -->
     <g style="opacity: 0" transform="translate(557.042499 8.717845) rotate(-306.361359) scale(0.12 -0.12)">
      <use xlink:href="#DejaVuSans-32"/>
     </g>
    </g>
   </g>
  </g>
 </g>
 <defs>
  <clipPath id="p651b50b5f2">
   <rect x="0" y="0" width="576" height="815.79817"/>
  </clipPath>
 </defs>
</svg>
