<?xml version="1.0" encoding="utf-8" standalone="no"?>
<!DOCTYPE svg PUBLIC "-//W3C//DTD SVG 1.1//EN"
  "http://www.w3.org/Graphics/SVG/1.1/DTD/svg11.dtd">
<svg xmlns:xlink="http://www.w3.org/1999/xlink" width="576pt" height="817.229988pt" viewBox="0 0 576 817.229988" xmlns="http://www.w3.org/2000/svg" version="1.1">
 <metadata>
  <rdf:RDF xmlns:dc="http://purl.org/dc/elements/1.1/" xmlns:cc="http://creativecommons.org/ns#" xmlns:rdf="http://www.w3.org/1999/02/22-rdf-syntax-ns#">
   <cc:Work>
    <dc:type rdf:resource="http://purl.org/dc/dcmitype/StillImage"/>
    <dc:date>2025-07-25T22:44:22.018546</dc:date>
    <dc:format>image/svg+xml</dc:format>
    <dc:creator>
     <cc:Agent>
      <dc:title>Matplotlib v3.10.3, https://matplotlib.org/</dc:title>
     </cc:Agent>
    </dc:creator>
   </cc:Work>
  </rdf:RDF>
 </metadata>
 <defs>
  <style type="text/css">*{stroke-linejoin: round; stroke-linecap: butt}</style>
 </defs>
 <g id="figure_1">
  <g id="patch_1">
   <path d="M 0 817.229988 
L 576 817.229988 
L 576 0 
L 0 0 
L 0 817.229988 
z
" style="fill: none; opacity: 0"/>
  </g>
  <g id="axes_1">
   <g id="QuadContourSet_1">
    <path d="M 3.272727 817.229988 
L 6.545455 817.229988 
L 9.818182 817.229988 
L 13.090909 817.229988 
L 16.363636 817.229988 
L 19.636364 817.229988 
L 22.909091 817.229988 
L 26.181818 817.229988 
L 29.454545 817.229988 
L 32.727273 817.229988 
L 36 817.229988 
L 39.272727 817.229988 
L 42.545455 817.229988 
L 45.818182 817.229988 
L 49.090909 817.229988 
L 52.363636 817.229988 
L 55.636364 817.229988 
L 58.909091 817.229988 
L 62.181818 817.229988 
L 65.454545 817.229988 
L 68.727273 817.229988 
L 72 817.229988 
L 75.272727 817.229988 
L 78.545455 817.229988 
L 81.818182 817.229988 
L 85.090909 817.229988 
L 88.363636 817.229988 
L 91.636364 817.229988 
L 94.909091 817.229988 
L 98.181818 817.229988 
L 101.454545 817.229988 
L 104.727273 817.229988 
L 108 817.229988 
L 111.272727 817.229988 
L 114.545455 817.229988 
L 117.818182 817.229988 
L 121.090909 817.229988 
L 124.363636 817.229988 
L 127.636364 817.229988 
L 130.909091 817.229988 
L 134.181818 817.229988 
L 137.454545 817.229988 
L 140.727273 817.229988 
L 144 817.229988 
L 147.272727 817.229988 
L 150.545455 817.229988 
L 153.818182 817.229988 
L 157.090909 817.229988 
L 160.363636 817.229988 
L 163.636364 817.229988 
L 166.909091 817.229988 
L 170.181818 817.229988 
L 173.454545 817.229988 
L 176.727273 817.229988 
L 180 817.229988 
L 183.272727 817.229988 
L 186.545455 817.229988 
L 189.818182 817.229988 
L 193.090909 817.229988 
L 196.363636 817.229988 
L 199.636364 817.229988 
L 202.909091 817.229988 
L 206.181818 817.229988 
L 209.454545 817.229988 
L 212.727273 817.229988 
L 216 817.229988 
L 219.272727 817.229988 
L 222.545455 817.229988 
L 225.818182 817.229988 
L 229.090909 817.229988 
L 232.363636 817.229988 
L 235.636364 817.229988 
L 238.909091 817.229988 
L 242.181818 817.229988 
L 245.454545 817.229988 
L 248.727273 817.229988 
L 252 817.229988 
L 255.272727 817.229988 
L 258.545455 817.229988 
L 261.818182 817.229988 
L 265.090909 817.229988 
L 268.363636 817.229988 
L 271.636364 817.229988 
L 274.909091 817.229988 
L 278.181818 817.229988 
L 281.454545 817.229988 
L 284.727273 817.229988 
L 288 817.229988 
L 291.272727 817.229988 
L 294.545455 817.229988 
L 297.818182 817.229988 
L 301.090909 817.229988 
L 304.363636 817.229988 
L 307.636364 817.229988 
L 310.909091 817.229988 
L 314.181818 817.229988 
L 317.454545 817.229988 
L 320.727273 817.229988 
L 324 817.229988 
L 327.272727 817.229988 
L 330.545455 817.229988 
L 333.818182 817.229988 
L 337.090909 817.229988 
L 340.363636 817.229988 
L 343.636364 817.229988 
L 346.909091 817.229988 
L 350.181818 817.229988 
L 353.454545 817.229988 
L 356.727273 817.229988 
L 360 817.229988 
L 363.272727 817.229988 
L 366.545455 817.229988 
L 369.818182 817.229988 
L 373.090909 817.229988 
L 376.363636 817.229988 
L 379.636364 817.229988 
L 382.909091 817.229988 
L 386.181818 817.229988 
L 389.454545 817.229988 
L 392.727273 817.229988 
L 396 817.229988 
L 399.272727 817.229988 
L 402.545455 817.229988 
L 405.818182 817.229988 
L 409.090909 817.229988 
L 412.363636 817.229988 
L 415.636364 817.229988 
L 418.909091 817.229988 
L 422.181818 817.229988 
L 425.454545 817.229988 
L 428.727273 817.229988 
L 432 817.229988 
L 435.272727 817.229988 
L 438.545455 817.229988 
L 441.818182 817.229988 
L 445.090909 817.229988 
L 448.363636 817.229988 
L 451.636364 817.229988 
L 454.909091 817.229988 
L 458.181818 817.229988 
L 461.454545 817.229988 
L 464.727273 817.229988 
L 468 817.229988 
L 471.272727 817.229988 
L 474.545455 817.229988 
L 477.818182 817.229988 
L 481.090909 817.229988 
L 484.363636 817.229988 
L 487.636364 817.229988 
L 490.909091 817.229988 
L 494.181818 817.229988 
L 497.454545 817.229988 
L 500.727273 817.229988 
L 504 817.229988 
L 507.272727 817.229988 
L 510.545455 817.229988 
L 513.818182 817.229988 
L 517.090909 817.229988 
L 520.363636 817.229988 
L 523.636364 817.229988 
L 526.909091 817.229988 
L 530.181818 817.229988 
L 533.454545 817.229988 
L 536.727273 817.229988 
L 540 817.229988 
L 543.272727 817.229988 
L 546.545455 817.229988 
L 549.818182 817.229988 
L 553.090909 817.229988 
L 556.363636 817.229988 
L 559.636364 817.229988 
L 562.909091 817.229988 
L 566.181818 817.229988 
L 569.454545 817.229988 
L 572.727273 817.229988 
L 576 817.229988 
L 576 813.94794 
L 576 810.665892 
L 576 807.383843 
L 576 804.101795 
L 576 800.819747 
L 576 797.537699 
L 576 794.255651 
L 576 790.973603 
L 576 787.691555 
L 576 784.409506 
L 576 781.127458 
L 576 777.84541 
L 576 774.563362 
L 576 771.281314 
L 576 767.999266 
L 576 764.717218 
L 576 761.435169 
L 576 758.153121 
L 576 754.871073 
L 576 751.589025 
L 576 748.306977 
L 576 745.024929 
L 576 741.742881 
L 576 738.460832 
L 576 735.178784 
L 576 731.896736 
L 576 728.614688 
L 576 725.33264 
L 576 722.050592 
L 576 718.768544 
L 576 715.486495 
L 576 712.204447 
L 576 708.922399 
L 576 705.640351 
L 576 702.358303 
L 576 699.076255 
L 576 695.794207 
L 576 692.512158 
L 576 689.23011 
L 576 685.948062 
L 576 682.666014 
L 576 679.383966 
L 576 676.101918 
L 576 672.81987 
L 576 669.537821 
L 576 666.255773 
L 576 662.973725 
L 576 659.691677 
L 576 656.409629 
L 576 653.127581 
L 576 649.845533 
L 576 646.563484 
L 576 643.281436 
L 576 639.999388 
L 576 636.71734 
L 576 633.435292 
L 576 630.153244 
L 576 626.871196 
L 576 623.589147 
L 576 620.307099 
L 576 617.025051 
L 576 613.743003 
L 576 610.460955 
L 576 607.178907 
L 576 603.896859 
L 576 600.61481 
L 576 597.332762 
L 576 594.050714 
L 576 590.768666 
L 576 587.486618 
L 576 584.20457 
L 576 580.922521 
L 576 577.640473 
L 576 574.358425 
L 576 571.076377 
L 576 567.794329 
L 576 564.512281 
L 576 561.230233 
L 576 557.948184 
L 576 554.666136 
L 576 551.384088 
L 576 548.10204 
L 576 544.819992 
L 576 541.537944 
L 576 538.255896 
L 576 534.973847 
L 576 531.691799 
L 576 528.409751 
L 576 525.127703 
L 576 521.845655 
L 576 518.563607 
L 576 515.281559 
L 576 511.99951 
L 576 508.717462 
L 576 505.435414 
L 576 502.153366 
L 576 498.871318 
L 576 495.58927 
L 576 492.307222 
L 576 489.025173 
L 576 485.743125 
L 576 482.461077 
L 576 479.179029 
L 576 475.896981 
L 576 472.614933 
L 576 469.332885 
L 576 466.050836 
L 576 462.768788 
L 576 459.48674 
L 576 456.204692 
L 576 452.922644 
L 576 449.640596 
L 576 446.358548 
L 576 443.076499 
L 576 439.794451 
L 576 436.512403 
L 576 433.230355 
L 576 429.948307 
L 576 426.666259 
L 576 423.384211 
L 576 420.102162 
L 576 416.820114 
L 576 413.538066 
L 576 410.256018 
L 576 406.97397 
L 576 403.691922 
L 576 400.409874 
L 576 397.127825 
L 576 393.845777 
L 576 390.563729 
L 576 387.281681 
L 576 383.999633 
L 576 380.717585 
L 576 377.435537 
L 576 374.153488 
L 576 370.87144 
L 576 367.589392 
L 576 364.307344 
L 576 361.025296 
L 576 357.743248 
L 576 354.4612 
L 576 351.179151 
L 576 347.897103 
L 576 344.615055 
L 576 341.333007 
L 576 338.050959 
L 576 334.768911 
L 576 331.486863 
L 576 328.204814 
L 576 324.922766 
L 576 321.640718 
L 576 318.35867 
L 576 315.076622 
L 576 311.794574 
L 576 308.512526 
L 576 305.230477 
L 576 301.948429 
L 576 298.666381 
L 576 295.384333 
L 576 292.102285 
L 576 288.820237 
L 576 285.538189 
L 576 282.25614 
L 576 278.974092 
L 576 275.692044 
L 576 272.409996 
L 576 269.127948 
L 576 265.8459 
L 576 262.563852 
L 576 259.281803 
L 576 255.999755 
L 576 252.717707 
L 576 249.435659 
L 576 246.153611 
L 576 242.871563 
L 576 239.589515 
L 576 236.307466 
L 576 233.025418 
L 576 229.74337 
L 576 226.461322 
L 576 223.179274 
L 576 219.897226 
L 576 216.615178 
L 576 213.333129 
L 576 210.051081 
L 576 206.769033 
L 576 203.486985 
L 576 200.204937 
L 576 196.922889 
L 576 193.64084 
L 576 190.358792 
L 576 187.076744 
L 576 183.794696 
L 576 180.512648 
L 576 177.2306 
L 576 173.948552 
L 576 170.666503 
L 576 167.384455 
L 576 164.102407 
L 576 160.820359 
L 576 157.538311 
L 576 154.256263 
L 576 150.974215 
L 576 147.692166 
L 576 144.410118 
L 576 141.12807 
L 576 137.846022 
L 576 134.563974 
L 576 131.281926 
L 576 127.999878 
L 576 124.717829 
L 576 121.435781 
L 576 118.153733 
L 576 114.871685 
L 576 111.589637 
L 576 108.307589 
L 576 105.025541 
L 576 101.743492 
L 576 98.461444 
L 576 95.179396 
L 576 91.897348 
L 576 88.6153 
L 576 85.333252 
L 576 82.051204 
L 576 78.769155 
L 576 75.487107 
L 576 72.205059 
L 576 68.923011 
L 576 65.640963 
L 576 62.358915 
L 576 59.076867 
L 576 55.794818 
L 576 52.51277 
L 576 49.230722 
L 576 45.948674 
L 576 42.666626 
L 576 39.384578 
L 576 36.10253 
L 576 32.820481 
L 576 29.538433 
L 576 26.256385 
L 576 22.974337 
L 576 19.692289 
L 576 16.410241 
L 576 13.128193 
L 576 9.846144 
L 576 6.564096 
L 576 3.282048 
L 576 -0 
L 572.727273 -0 
L 569.454545 -0 
L 566.181818 -0 
L 562.909091 -0 
L 559.636364 -0 
L 556.363636 -0 
L 553.090909 -0 
L 549.818182 -0 
L 546.545455 -0 
L 543.272727 -0 
L 540 -0 
L 536.727273 -0 
L 533.454545 -0 
L 530.181818 -0 
L 526.909091 -0 
L 523.636364 -0 
L 520.363636 -0 
L 517.090909 -0 
L 513.818182 -0 
L 510.545455 -0 
L 507.272727 -0 
L 504 -0 
L 500.727273 -0 
L 497.454545 -0 
L 494.181818 -0 
L 490.909091 -0 
L 487.636364 -0 
L 484.363636 -0 
L 481.090909 -0 
L 477.818182 -0 
L 474.545455 -0 
L 471.272727 -0 
L 468 -0 
L 464.727273 -0 
L 461.454545 -0 
L 458.181818 -0 
L 454.909091 -0 
L 451.636364 -0 
L 448.363636 -0 
L 445.090909 -0 
L 441.818182 -0 
L 438.545455 -0 
L 435.272727 -0 
L 432 -0 
L 428.727273 -0 
L 425.454545 -0 
L 422.181818 -0 
L 418.909091 -0 
L 415.636364 -0 
L 412.363636 -0 
L 409.090909 -0 
L 405.818182 -0 
L 402.545455 -0 
L 399.272727 -0 
L 396 -0 
L 392.727273 -0 
L 389.454545 -0 
L 386.181818 -0 
L 382.909091 -0 
L 379.636364 -0 
L 376.363636 -0 
L 373.090909 -0 
L 369.818182 -0 
L 366.545455 -0 
L 363.272727 -0 
L 360 -0 
L 356.727273 -0 
L 353.454545 -0 
L 350.181818 -0 
L 346.909091 -0 
L 343.636364 -0 
L 340.363636 -0 
L 337.090909 -0 
L 333.818182 -0 
L 330.545455 -0 
L 327.272727 -0 
L 324 -0 
L 320.727273 -0 
L 317.454545 -0 
L 314.181818 -0 
L 310.909091 -0 
L 307.636364 -0 
L 304.363636 -0 
L 301.090909 -0 
L 297.818182 -0 
L 294.545455 -0 
L 291.272727 -0 
L 288 -0 
L 284.727273 -0 
L 281.454545 -0 
L 278.181818 -0 
L 274.909091 -0 
L 271.636364 -0 
L 268.363636 -0 
L 265.090909 -0 
L 261.818182 -0 
L 258.545455 -0 
L 255.272727 -0 
L 252 -0 
L 248.727273 -0 
L 245.454545 -0 
L 242.181818 -0 
L 238.909091 -0 
L 235.636364 -0 
L 232.363636 -0 
L 229.090909 -0 
L 225.818182 -0 
L 222.545455 -0 
L 219.272727 -0 
L 216 -0 
L 212.727273 -0 
L 209.454545 -0 
L 206.181818 -0 
L 202.909091 -0 
L 199.636364 -0 
L 196.363636 -0 
L 193.090909 -0 
L 189.818182 -0 
L 186.545455 -0 
L 183.272727 -0 
L 180 -0 
L 176.727273 -0 
L 173.454545 -0 
L 170.181818 -0 
L 166.909091 -0 
L 163.636364 -0 
L 160.363636 -0 
L 157.090909 -0 
L 153.818182 -0 
L 150.545455 -0 
L 147.272727 -0 
L 144 -0 
L 140.727273 -0 
L 137.454545 -0 
L 134.181818 -0 
L 130.909091 -0 
L 127.636364 -0 
L 124.363636 -0 
L 121.090909 -0 
L 117.818182 -0 
L 114.545455 -0 
L 111.272727 -0 
L 108 -0 
L 104.727273 -0 
L 101.454545 -0 
L 98.181818 -0 
L 94.909091 -0 
L 91.636364 -0 
L 88.363636 -0 
L 85.090909 -0 
L 81.818182 -0 
L 78.545455 -0 
L 75.272727 -0 
L 72 -0 
L 68.727273 -0 
L 65.454545 -0 
L 62.181818 -0 
L 58.909091 -0 
L 55.636364 -0 
L 52.363636 -0 
L 49.090909 -0 
L 45.818182 -0 
L 42.545455 -0 
L 39.272727 -0 
L 36 -0 
L 32.727273 -0 
L 29.454545 -0 
L 26.181818 -0 
L 22.909091 -0 
L 19.636364 -0 
L 16.363636 -0 
L 13.090909 -0 
L 9.818182 -0 
L 6.545455 -0 
L 3.272727 -0 
L 0 -0 
L 0 3.282048 
L 0 6.564096 
L 0 9.846144 
L 0 13.128193 
L 0 16.410241 
L 0 19.692289 
L 0 22.974337 
L 0 26.256385 
L 0 29.538433 
L 0 32.820481 
L 0 36.10253 
L 0 39.384578 
L 0 42.666626 
L 0 45.948674 
L 0 49.230722 
L 0 52.51277 
L 0 55.794818 
L 0 59.076867 
L 0 62.358915 
L 0 65.640963 
L 0 68.923011 
L 0 72.205059 
L 0 75.487107 
L 0 78.769155 
L 0 82.051204 
L 0 85.333252 
L 0 88.6153 
L 0 91.897348 
L 0 95.179396 
L 0 98.461444 
L 0 101.743492 
L 0 105.025541 
L 0 108.307589 
L 0 111.589637 
L 0 114.871685 
L 0 118.153733 
L 0 121.435781 
L 0 124.717829 
L 0 127.999878 
L 0 131.281926 
L 0 134.563974 
L 0 137.846022 
L 0 141.12807 
L 0 144.410118 
L 0 147.692166 
L 0 150.974215 
L 0 154.256263 
L 0 157.538311 
L 0 160.820359 
L 0 164.102407 
L 0 167.384455 
L 0 170.666503 
L 0 173.948552 
L 0 177.2306 
L 0 180.512648 
L 0 183.794696 
L 0 187.076744 
L 0 190.358792 
L 0 193.64084 
L 0 196.922889 
L 0 200.204937 
L 0 203.486985 
L 0 206.769033 
L 0 210.051081 
L 0 213.333129 
L 0 216.615178 
L 0 219.897226 
L 0 223.179274 
L 0 226.461322 
L 0 229.74337 
L 0 233.025418 
L 0 236.307466 
L 0 239.589515 
L 0 242.871563 
L 0 246.153611 
L 0 249.435659 
L 0 252.717707 
L 0 255.999755 
L 0 259.281803 
L 0 262.563852 
L 0 265.8459 
L 0 269.127948 
L 0 272.409996 
L 0 275.692044 
L 0 278.974092 
L 0 282.25614 
L 0 285.538189 
L 0 288.820237 
L 0 292.102285 
L 0 295.384333 
L 0 298.666381 
L 0 301.948429 
L 0 305.230477 
L 0 308.512526 
L 0 311.794574 
L 0 315.076622 
L 0 318.35867 
L 0 321.640718 
L 0 324.922766 
L 0 328.204814 
L 0 331.486863 
L 0 334.768911 
L 0 338.050959 
L 0 341.333007 
L 0 344.615055 
L 0 347.897103 
L 0 351.179151 
L 0 354.4612 
L 0 357.743248 
L 0 361.025296 
L 0 364.307344 
L 0 367.589392 
L 0 370.87144 
L 0 374.153488 
L 0 377.435537 
L 0 380.717585 
L 0 383.999633 
L 0 387.281681 
L 0 390.563729 
L 0 393.845777 
L 0 397.127825 
L 0 400.409874 
L 0 403.691922 
L 0 406.97397 
L 0 410.256018 
L 0 413.538066 
L 0 416.820114 
L 0 420.102162 
L 0 423.384211 
L 0 426.666259 
L 0 429.948307 
L 0 433.230355 
L 0 436.512403 
L 0 439.794451 
L 0 443.076499 
L 0 446.358548 
L 0 449.640596 
L 0 452.922644 
L 0 456.204692 
L 0 459.48674 
L 0 462.768788 
L 0 466.050836 
L 0 469.332885 
L 0 472.614933 
L 0 475.896981 
L 0 479.179029 
L 0 482.461077 
L 0 485.743125 
L 0 489.025173 
L 0 492.307222 
L 0 495.58927 
L 0 498.871318 
L 0 502.153366 
L 0 505.435414 
L 0 508.717462 
L 0 511.99951 
L 0 515.281559 
L 0 518.563607 
L 0 521.845655 
L 0 525.127703 
L 0 528.409751 
L 0 531.691799 
L 0 534.973847 
L 0 538.255896 
L 0 541.537944 
L 0 544.819992 
L 0 548.10204 
L 0 551.384088 
L 0 554.666136 
L 0 557.948184 
L 0 561.230233 
L 0 564.512281 
L 0 567.794329 
L 0 571.076377 
L 0 574.358425 
L 0 577.640473 
L 0 580.922521 
L 0 584.20457 
L 0 587.486618 
L 0 590.768666 
L 0 594.050714 
L 0 597.332762 
L 0 600.61481 
L 0 603.896859 
L 0 607.178907 
L 0 610.460955 
L 0 613.743003 
L 0 617.025051 
L 0 620.307099 
L 0 623.589147 
L 0 626.871196 
L 0 630.153244 
L 0 633.435292 
L 0 636.71734 
L 0 639.999388 
L 0 643.281436 
L 0 646.563484 
L 0 649.845533 
L 0 653.127581 
L 0 656.409629 
L 0 659.691677 
L 0 662.973725 
L 0 666.255773 
L 0 669.537821 
L 0 672.81987 
L 0 676.101918 
L 0 679.383966 
L 0 682.666014 
L 0 685.948062 
L 0 689.23011 
L 0 692.512158 
L 0 695.794207 
L 0 699.076255 
L 0 702.358303 
L 0 705.640351 
L 0 708.922399 
L 0 712.204447 
L 0 715.486495 
L 0 718.768544 
L 0 722.050592 
L 0 725.33264 
L 0 728.614688 
L 0 731.896736 
L 0 735.178784 
L 0 738.460832 
L 0 741.742881 
L 0 745.024929 
L 0 748.306977 
L 0 751.589025 
L 0 754.871073 
L 0 758.153121 
L 0 761.435169 
L 0 764.717218 
L 0 767.999266 
L 0 771.281314 
L 0 774.563362 
L 0 777.84541 
L 0 781.127458 
L 0 784.409506 
L 0 787.691555 
L 0 790.973603 
L 0 794.255651 
L 0 797.537699 
L 0 800.819747 
L 0 804.101795 
L 0 807.383843 
L 0 810.665892 
L 0 813.94794 
L 0 817.229988 
z
" clip-path="url(#p2bc57cdaa9)" style="fill: #f5f9fe; fill-opacity: 0.9"/>
    <path clip-path="url(#p2bc57cdaa9)" style="fill: #eff6fc; fill-opacity: 0.9"/>
    <path clip-path="url(#p2bc57cdaa9)" style="fill: #eaf3fb; fill-opacity: 0.9"/>
    <path clip-path="url(#p2bc57cdaa9)" style="fill: #e5eff9; fill-opacity: 0.9"/>
    <path clip-path="url(#p2bc57cdaa9)" style="fill: #dfecf7; fill-opacity: 0.9"/>
    <path clip-path="url(#p2bc57cdaa9)" style="fill: #dae8f6; fill-opacity: 0.9"/>
    <path clip-path="url(#p2bc57cdaa9)" style="fill: #d6e5f4; fill-opacity: 0.9"/>
    <path clip-path="url(#p2bc57cdaa9)" style="fill: #d0e2f2; fill-opacity: 0.9"/>
    <path clip-path="url(#p2bc57cdaa9)" style="fill: #cbdef1; fill-opacity: 0.9"/>
    <path clip-path="url(#p2bc57cdaa9)" style="fill: #c6dbef; fill-opacity: 0.9"/>
    <path clip-path="url(#p2bc57cdaa9)" style="fill: #bed8ec; fill-opacity: 0.9"/>
    <path clip-path="url(#p2bc57cdaa9)" style="fill: #b5d4e9; fill-opacity: 0.9"/>
    <path clip-path="url(#p2bc57cdaa9)" style="fill: #add0e6; fill-opacity: 0.9"/>
    <path clip-path="url(#p2bc57cdaa9)" style="fill: #a5cde3; fill-opacity: 0.9"/>
    <path clip-path="url(#p2bc57cdaa9)" style="fill: #9cc9e1; fill-opacity: 0.9"/>
    <path clip-path="url(#p2bc57cdaa9)" style="fill: #91c3de; fill-opacity: 0.9"/>
    <path clip-path="url(#p2bc57cdaa9)" style="fill: #85bcdc; fill-opacity: 0.9"/>
    <path clip-path="url(#p2bc57cdaa9)" style="fill: #7cb7da; fill-opacity: 0.9"/>
    <path clip-path="url(#p2bc57cdaa9)" style="fill: #71b1d7; fill-opacity: 0.9"/>
    <path clip-path="url(#p2bc57cdaa9)" style="fill: #66abd4; fill-opacity: 0.9"/>
    <path clip-path="url(#p2bc57cdaa9)" style="fill: #5da5d1; fill-opacity: 0.9"/>
    <path clip-path="url(#p2bc57cdaa9)" style="fill: #56a0ce; fill-opacity: 0.9"/>
    <path clip-path="url(#p2bc57cdaa9)" style="fill: #4d99ca; fill-opacity: 0.9"/>
    <path clip-path="url(#p2bc57cdaa9)" style="fill: #4493c7; fill-opacity: 0.9"/>
    <path clip-path="url(#p2bc57cdaa9)" style="fill: #3c8cc3; fill-opacity: 0.9"/>
    <path clip-path="url(#p2bc57cdaa9)" style="fill: #3686c0; fill-opacity: 0.9"/>
    <path clip-path="url(#p2bc57cdaa9)" style="fill: #2f7fbc; fill-opacity: 0.9"/>
    <path clip-path="url(#p2bc57cdaa9)" style="fill: #2777b8; fill-opacity: 0.9"/>
    <path clip-path="url(#p2bc57cdaa9)" style="fill: #2070b4; fill-opacity: 0.9"/>
    <path clip-path="url(#p2bc57cdaa9)" style="fill: #1c6ab0; fill-opacity: 0.9"/>
    <path clip-path="url(#p2bc57cdaa9)" style="fill: #1663aa; fill-opacity: 0.9"/>
    <path clip-path="url(#p2bc57cdaa9)" style="fill: #115ca5; fill-opacity: 0.9"/>
    <path clip-path="url(#p2bc57cdaa9)" style="fill: #0c56a0; fill-opacity: 0.9"/>
    <path clip-path="url(#p2bc57cdaa9)" style="fill: #084f99; fill-opacity: 0.9"/>
    <path clip-path="url(#p2bc57cdaa9)" style="fill: #08488e; fill-opacity: 0.9"/>
    <path clip-path="url(#p2bc57cdaa9)" style="fill: #084184; fill-opacity: 0.9"/>
    <path clip-path="url(#p2bc57cdaa9)" style="fill: #083a7a; fill-opacity: 0.9"/>
    <path clip-path="url(#p2bc57cdaa9)" style="fill: #083370; fill-opacity: 0.9"/>
    <path clip-path="url(#p2bc57cdaa9)" style="fill: #08306b; fill-opacity: 0.9"/>
   </g>
   <g id="QuadContourSet_2">
    <path clip-path="url(#p2bc57cdaa9)" style="fill: none"/>
    <path clip-path="url(#p2bc57cdaa9)" style="fill: none"/>
    <path clip-path="url(#p2bc57cdaa9)" style="fill: none"/>
    <path clip-path="url(#p2bc57cdaa9)" style="fill: none"/>
    <path clip-path="url(#p2bc57cdaa9)" style="fill: none"/>
    <path clip-path="url(#p2bc57cdaa9)" style="fill: none"/>
    <path clip-path="url(#p2bc57cdaa9)" style="fill: none"/>
    <path clip-path="url(#p2bc57cdaa9)" style="fill: none"/>
    <path clip-path="url(#p2bc57cdaa9)" style="fill: none"/>
    <path clip-path="url(#p2bc57cdaa9)" style="fill: none"/>
    <path clip-path="url(#p2bc57cdaa9)" style="fill: none"/>
    <path clip-path="url(#p2bc57cdaa9)" style="fill: none"/>
    <path clip-path="url(#p2bc57cdaa9)" style="fill: none"/>
    <path clip-path="url(#p2bc57cdaa9)" style="fill: none"/>
    <path clip-path="url(#p2bc57cdaa9)" style="fill: none"/>
    <path clip-path="url(#p2bc57cdaa9)" style="fill: none"/>
    <path clip-path="url(#p2bc57cdaa9)" style="fill: none"/>
    <path clip-path="url(#p2bc57cdaa9)" style="fill: none"/>
    <path clip-path="url(#p2bc57cdaa9)" style="fill: none"/>
    <path clip-path="url(#p2bc57cdaa9)" style="fill: none"/>
    <path clip-path="url(#p2bc57cdaa9)" style="fill: none"/>
    <path clip-path="url(#p2bc57cdaa9)" style="fill: none"/>
    <path clip-path="url(#p2bc57cdaa9)" style="fill: none"/>
    <path clip-path="url(#p2bc57cdaa9)" style="fill: none"/>
    <path clip-path="url(#p2bc57cdaa9)" style="fill: none"/>
    <path clip-path="url(#p2bc57cdaa9)" style="fill: none"/>
    <path clip-path="url(#p2bc57cdaa9)" style="fill: none"/>
    <path clip-path="url(#p2bc57cdaa9)" style="fill: none"/>
    <path clip-path="url(#p2bc57cdaa9)" style="fill: none"/>
    <path clip-path="url(#p2bc57cdaa9)" style="fill: none"/>
    <path clip-path="url(#p2bc57cdaa9)" style="fill: none"/>
    <path clip-path="url(#p2bc57cdaa9)" style="fill: none"/>
    <path clip-path="url(#p2bc57cdaa9)" style="fill: none"/>
    <path clip-path="url(#p2bc57cdaa9)" style="fill: none"/>
    <path clip-path="url(#p2bc57cdaa9)" style="fill: none"/>
    <path clip-path="url(#p2bc57cdaa9)" style="fill: none"/>
    <path clip-path="url(#p2bc57cdaa9)" style="fill: none"/>
    <path clip-path="url(#p2bc57cdaa9)" style="fill: none"/>
    <path clip-path="url(#p2bc57cdaa9)" style="fill: none"/>
   </g>
  </g>
 </g>
 <defs>
  <clipPath id="p2bc57cdaa9">
   <rect x="0" y="0" width="576" height="817.229988"/>
  </clipPath>
 </defs>
</svg>
