<?xml version="1.0" encoding="utf-8" standalone="no"?>
<!DOCTYPE svg PUBLIC "-//W3C//DTD SVG 1.1//EN"
  "http://www.w3.org/Graphics/SVG/1.1/DTD/svg11.dtd">
<svg xmlns:xlink="http://www.w3.org/1999/xlink" width="576pt" height="815.79817pt" viewBox="0 0 576 815.79817" xmlns="http://www.w3.org/2000/svg" version="1.1">
 <metadata>
  <rdf:RDF xmlns:dc="http://purl.org/dc/elements/1.1/" xmlns:cc="http://creativecommons.org/ns#" xmlns:rdf="http://www.w3.org/1999/02/22-rdf-syntax-ns#">
   <cc:Work>
    <dc:type rdf:resource="http://purl.org/dc/dcmitype/StillImage"/>
    <dc:date>2025-07-25T22:44:56.008905</dc:date>
    <dc:format>image/svg+xml</dc:format>
    <dc:creator>
     <cc:Agent>
      <dc:title>Matplotlib v3.10.3, https://matplotlib.org/</dc:title>
     </cc:Agent>
    </dc:creator>
   </cc:Work>
  </rdf:RDF>
 </metadata>
 <defs>
  <style type="text/css">*{stroke-linejoin: round; stroke-linecap: butt}</style>
 </defs>
 <g id="figure_1">
  <g id="patch_1">
   <path d="M 0 815.79817 
L 576 815.79817 
L 576 0 
L 0 0 
L 0 815.79817 
z
" style="fill: none; opacity: 0"/>
  </g>
  <g id="axes_1">
   <g id="QuadContourSet_1">
    <path d="M 0.235188 248.998638 
L 0.280613 245.72234 
L 0.431669 242.446043 
L 0.930246 239.169745 
L 3.272727 236.433379 
L 3.476079 235.893447 
L 3.76738 232.617149 
L 3.884533 229.340851 
L 4.632343 226.064553 
L 6.545455 222.915799 
L 6.624851 222.788255 
L 7.328098 219.511957 
L 8.013073 216.23566 
L 8.640602 212.959362 
L 9.818182 210.569398 
L 12.343126 212.959362 
L 13.090909 215.357657 
L 13.384606 216.23566 
L 16.363636 218.30652 
L 16.816373 216.23566 
L 17.432558 212.959362 
L 19.636364 210.462011 
L 19.96909 209.683064 
L 20.463569 206.406766 
L 20.864911 203.130468 
L 22.426197 199.85417 
L 22.909091 199.216961 
L 23.867866 196.577872 
L 24.508375 193.301574 
L 25.130751 190.025277 
L 26.181818 188.207835 
L 27.403011 186.748979 
L 28.491091 183.472681 
L 29.454545 180.84525 
L 31.474296 180.196383 
L 32.727273 179.539805 
L 33.020832 180.196383 
L 33.953611 183.472681 
L 34.746084 186.748979 
L 36 189.6577 
L 36.471631 186.748979 
L 39.272727 184.709132 
L 39.878344 183.472681 
L 40.332494 180.196383 
L 41.596143 176.920085 
L 42.545455 175.95739 
L 43.570501 173.643787 
L 44.188839 170.367489 
L 44.985605 167.091191 
L 45.818182 165.638079 
L 47.137102 163.814894 
L 48.433321 160.538596 
L 49.090909 158.824916 
L 50.480695 157.262298 
L 52.363636 154.067984 
L 52.626196 153.986 
L 55.636364 152.774032 
L 56.297078 153.986 
L 57.179691 157.262298 
L 57.668465 160.538596 
L 58.909091 163.567905 
L 60.220748 160.538596 
L 62.181818 159.578279 
L 63.235236 157.262298 
L 65.454545 154.074621 
L 65.502271 153.986 
L 66.774577 150.709702 
L 67.391336 147.433404 
L 68.727273 144.813614 
L 69.435426 144.157106 
L 71.314012 140.880809 
L 72 139.047067 
L 75.272727 137.738544 
L 77.715654 140.880809 
L 78.545455 141.38772 
L 78.928843 140.880809 
L 81.818182 139.132258 
L 83.148903 137.604511 
L 85.090909 136.158913 
L 86.760672 134.328213 
L 88.363636 133.027944 
L 90.207647 131.051915 
L 91.483836 127.775617 
L 91.636364 127.289182 
L 92.297196 124.499319 
L 92.850255 121.223021 
L 93.181298 117.946723 
L 93.361401 114.670426 
L 93.592011 111.394128 
L 94.15736 108.11783 
L 94.909091 105.329659 
L 95.216308 104.841532 
L 96.578333 101.565234 
L 97.081038 98.288936 
L 97.656194 95.012638 
L 98.181818 92.650782 
L 101.454545 92.299265 
L 102.375276 95.012638 
L 103.334039 98.288936 
L 104.337132 101.565234 
L 104.727273 102.374985 
L 105.670266 101.565234 
L 108 100.839372 
L 108.407043 101.565234 
L 110.137679 104.841532 
L 111.272727 105.728328 
L 112.158557 104.841532 
L 112.158557 101.565234 
L 111.272727 100.108888 
L 108.934015 98.288936 
L 111.272727 95.937648 
L 111.826931 95.012638 
L 112.539684 91.73634 
L 113.04365 88.460043 
L 113.931034 85.183745 
L 114.545455 83.803708 
L 114.975813 81.907447 
L 115.502037 78.631149 
L 116.064569 75.354851 
L 116.606631 72.078553 
L 117.527361 68.802255 
L 117.818182 68.093266 
L 118.444313 65.525957 
L 118.927832 62.24966 
L 119.374885 58.973362 
L 119.797362 55.697064 
L 120.317735 52.420766 
L 120.931604 49.144468 
L 121.090909 48.440597 
L 121.575223 45.86817 
L 122.017428 42.591872 
L 122.338575 39.315574 
L 122.582391 36.039277 
L 122.885545 32.762979 
L 123.146536 29.486681 
L 123.467613 26.210383 
L 123.858316 22.934085 
L 124.344049 19.657787 
L 124.363636 19.540505 
L 125.032577 16.381489 
L 125.488002 13.105191 
L 125.749852 9.828894 
L 125.934788 6.552596 
L 126.086702 3.276298 
L 126.213714 -0 
L 125.622605 -0 
L 125.44282 3.276298 
L 125.227785 6.552596 
L 124.966009 9.828894 
L 124.595362 13.105191 
L 124.363636 14.431472 
L 123.992868 16.381489 
L 123.490772 19.657787 
L 123.097557 22.934085 
L 122.781271 26.210383 
L 122.52135 29.486681 
L 122.2714 32.762979 
L 121.937146 36.039277 
L 121.60501 39.315574 
L 121.167528 42.591872 
L 121.090909 43.075537 
L 120.333875 45.86817 
L 119.717342 49.144468 
L 119.275537 52.420766 
L 118.923839 55.697064 
L 118.633396 58.973362 
L 118.144271 62.24966 
L 117.818182 64.036494 
L 116.958564 65.525957 
L 115.914909 68.802255 
L 115.411589 72.078553 
L 115.11527 75.354851 
L 114.615266 78.631149 
L 114.545455 79.008645 
L 112.462483 81.907447 
L 111.796175 85.183745 
L 111.497101 88.460043 
L 111.32725 91.73634 
L 111.272727 91.995537 
L 110.369592 91.73634 
L 108.803199 88.460043 
L 108 85.685708 
L 107.932947 85.183745 
L 107.437441 81.907447 
L 106.813633 78.631149 
L 106.004281 75.354851 
L 104.912141 72.078553 
L 104.727273 71.726795 
L 104.38298 72.078553 
L 101.454545 73.872407 
L 100.950045 75.354851 
L 99.289416 78.631149 
L 98.181818 80.153786 
L 97.665399 81.907447 
L 96.755496 85.183745 
L 95.742549 88.460043 
L 95.206486 91.73634 
L 94.909091 94.824848 
L 94.885079 95.012638 
L 94.540054 98.288936 
L 94.151843 101.565234 
L 93.220991 104.841532 
L 92.79968 108.11783 
L 92.498374 111.394128 
L 92.340659 114.670426 
L 92.210718 117.946723 
L 91.842581 121.223021 
L 91.636364 122.253548 
L 90.603355 124.499319 
L 89.904846 127.775617 
L 89.129476 131.051915 
L 88.363636 131.872584 
L 85.33635 134.328213 
L 85.090909 134.59731 
L 82.09541 134.328213 
L 81.818182 134.09189 
L 79.691676 131.051915 
L 78.545455 130.054865 
L 75.272727 130.438402 
L 74.808654 131.051915 
L 72 134.07552 
L 71.860762 134.328213 
L 70.570331 137.604511 
L 69.37923 140.880809 
L 68.727273 141.870826 
L 66.682885 144.157106 
L 65.882172 147.433404 
L 65.518552 150.709702 
L 65.454545 150.87326 
L 64.494284 150.709702 
L 62.181818 149.954672 
L 59.779056 147.433404 
L 58.909091 145.542601 
L 58.31123 144.157106 
L 56.803366 140.880809 
L 55.636364 138.528698 
L 53.592154 140.880809 
L 52.363636 142.168804 
L 51.293812 144.157106 
L 50.306019 147.433404 
L 49.7926 150.709702 
L 49.090909 152.096378 
L 47.834931 153.986 
L 46.577328 157.262298 
L 45.929325 160.538596 
L 45.818182 160.779856 
L 43.109433 163.814894 
L 42.62021 167.091191 
L 42.545455 167.699628 
L 41.115769 170.367489 
L 39.272727 171.614102 
L 37.422706 170.367489 
L 36 167.863889 
L 35.305105 167.091191 
L 32.727273 165.379636 
L 31.035641 167.091191 
L 29.454545 168.692709 
L 28.343138 170.367489 
L 27.145096 173.643787 
L 26.610291 176.920085 
L 26.181818 178.080265 
L 24.836468 180.196383 
L 23.429357 183.472681 
L 22.909091 185.043158 
L 21.980212 186.748979 
L 19.636364 189.229216 
L 19.154017 190.025277 
L 18.679533 193.301574 
L 16.363636 196.34985 
L 13.090909 194.261873 
L 10.873088 196.577872 
L 9.818182 197.938516 
L 8.496102 199.85417 
L 7.491896 203.130468 
L 6.545455 204.780037 
L 5.110154 206.406766 
L 3.480265 209.683064 
L 3.272727 210.316977 
L 2.226327 212.959362 
L -0 215.454985 
L -0 216.23566 
L -0 219.511957 
L -0 222.788255 
L -0 226.064553 
L -0 229.340851 
L -0 232.617149 
L -0 235.893447 
L -0 239.169745 
L -0 242.446043 
L -0 245.72234 
L -0 248.998638 
L -0 249.513772 
z
M 1.118445 167.091191 
L 2.806341 163.814894 
L 3.272727 162.824851 
L 4.967102 160.538596 
L 6.545455 157.956797 
L 6.946366 157.262298 
L 9.096043 153.986 
L 9.818182 153.311687 
L 12.490847 150.709702 
L 13.090909 150.206271 
L 16.363636 148.555221 
L 17.20664 147.433404 
L 19.636364 144.469103 
L 19.9548 144.157106 
L 22.792036 140.880809 
L 22.909091 140.657944 
L 25.068456 137.604511 
L 26.181818 135.346923 
L 26.563903 134.328213 
L 28.567275 131.051915 
L 29.454545 130.009786 
L 31.669618 127.775617 
L 32.727273 126.735844 
L 35.910944 124.499319 
L 36 124.419539 
L 38.474879 121.223021 
L 39.272727 120.63868 
L 41.417214 117.946723 
L 42.545455 116.404879 
L 44.478175 114.670426 
L 45.818182 113.216944 
L 46.956148 111.394128 
L 48.574575 108.11783 
L 49.090909 107.310839 
L 50.552795 104.841532 
L 52.07213 101.565234 
L 52.363636 100.868167 
L 54.205473 98.288936 
L 55.636364 97.016947 
L 56.552546 95.012638 
L 58.157671 91.73634 
L 58.909091 90.283571 
L 60.088566 88.460043 
L 61.994933 85.183745 
L 62.181818 84.841665 
L 64.072721 81.907447 
L 65.454545 79.693964 
L 65.847377 78.631149 
L 66.470258 75.354851 
L 67.089704 72.078553 
L 67.709781 68.802255 
L 68.354717 65.525957 
L 68.727273 63.727776 
L 69.157031 62.24966 
L 70.079826 58.973362 
L 70.957825 55.697064 
L 71.767638 52.420766 
L 72 51.450029 
L 72.504705 49.144468 
L 73.264066 45.86817 
L 74.0033 42.591872 
L 74.355206 39.315574 
L 74.711174 36.039277 
L 75.071275 32.762979 
L 75.272727 30.946552 
L 75.408861 29.486681 
L 75.711893 26.210383 
L 76.014212 22.934085 
L 76.316245 19.657787 
L 76.617992 16.381489 
L 76.919454 13.105191 
L 77.220632 9.828894 
L 77.521525 6.552596 
L 77.755741 3.276298 
L 77.983378 -0 
L 75.272727 -0 
L 72 -0 
L 68.727273 -0 
L 65.454545 -0 
L 62.181818 -0 
L 58.909091 -0 
L 55.636364 -0 
L 52.797882 -0 
L 52.363636 1.113491 
L 51.972098 3.276298 
L 51.356005 6.552596 
L 50.402112 9.828894 
L 49.090909 12.556683 
L 48.844891 13.105191 
L 47.597806 16.381489 
L 46.6173 19.657787 
L 45.818182 22.018326 
L 45.354988 22.934085 
L 43.54403 26.210383 
L 42.545455 27.834232 
L 42.01686 29.486681 
L 41.278348 32.762979 
L 40.753364 36.039277 
L 40.196259 39.315574 
L 39.491653 42.591872 
L 39.272727 43.369704 
L 37.565343 45.86817 
L 36.3743 49.144468 
L 36 50.726022 
L 35.680826 52.420766 
L 34.707967 55.697064 
L 33.454028 58.973362 
L 32.727273 60.598039 
L 32.277013 62.24966 
L 31.686969 65.525957 
L 31.223321 68.802255 
L 30.409047 72.078553 
L 29.454545 74.91942 
L 29.028482 75.354851 
L 27.058765 78.631149 
L 26.181818 81.517177 
L 22.909091 81.715218 
L 22.700165 81.907447 
L 19.636364 83.760234 
L 19.005223 85.183745 
L 18.4055 88.460043 
L 17.900986 91.73634 
L 16.773939 95.012638 
L 16.363636 96.002612 
L 15.207081 98.288936 
L 14.176701 101.565234 
L 13.417715 104.841532 
L 13.090909 106.377607 
L 9.818182 105.73705 
L 7.427922 104.841532 
L 6.545455 104.557816 
L 6.320276 104.841532 
L 3.272727 107.976313 
L 3.204551 108.11783 
L 2.043579 111.394128 
L 0.557785 114.670426 
L -0 115.507389 
L -0 117.946723 
L -0 121.223021 
L -0 124.499319 
L -0 127.775617 
L -0 131.051915 
L -0 134.328213 
L -0 137.604511 
L -0 140.880809 
L -0 144.157106 
L -0 147.433404 
L -0 150.709702 
L -0 153.986 
L -0 157.262298 
L -0 160.538596 
L -0 163.814894 
L -0 167.091191 
L -0 168.562899 
z
M 81.818182 152.102407 
L 85.090909 153.986 
L 88.363636 150.709702 
L 88.363636 147.433404 
L 88.363636 147.433404 
L 91.636364 144.157106 
L 89.74257 140.880809 
L 88.363636 139.493972 
L 86.976898 140.880809 
L 85.090909 142.744187 
L 83.682783 144.157106 
L 81.818182 146.023742 
L 80.413294 147.433404 
L 80.392105 150.709702 
z
M 81.100466 150.709702 
L 81.111131 147.433404 
L 81.818182 146.72395 
L 84.382228 144.157106 
L 85.090909 143.446013 
L 87.687241 140.880809 
L 88.363636 140.204365 
L 89.036225 140.880809 
L 89.959942 144.157106 
L 88.363636 145.755154 
L 86.687215 147.433404 
L 86.687215 150.709702 
L 85.090909 152.307749 
L 81.818182 151.410622 
z
M 104.727273 115.442472 
L 108 117.946723 
L 111.272727 114.670426 
L 108.885829 111.394128 
L 108.885829 108.11783 
L 108 106.981543 
L 106.156945 108.11783 
L 107.069456 111.394128 
L 104.727273 113.841341 
L 103.493577 114.670426 
z
" clip-path="url(#pcc1be0fd1e)" style="fill: #f5f9fe; fill-opacity: 0.9"/>
    <path d="M 2.226327 212.959362 
L 3.272727 210.316977 
L 3.480265 209.683064 
L 5.110154 206.406766 
L 6.545455 204.780037 
L 7.491896 203.130468 
L 8.496102 199.85417 
L 9.818182 197.938516 
L 10.873088 196.577872 
L 13.090909 194.261873 
L 16.363636 196.34985 
L 18.679533 193.301574 
L 19.154017 190.025277 
L 19.636364 189.229216 
L 21.980212 186.748979 
L 22.909091 185.043158 
L 23.429357 183.472681 
L 24.836468 180.196383 
L 26.181818 178.080265 
L 26.610291 176.920085 
L 27.145096 173.643787 
L 28.343138 170.367489 
L 29.454545 168.692709 
L 31.035641 167.091191 
L 32.727273 165.379636 
L 35.305105 167.091191 
L 36 167.863889 
L 37.422706 170.367489 
L 39.272727 171.614102 
L 41.115769 170.367489 
L 42.545455 167.699628 
L 42.62021 167.091191 
L 43.109433 163.814894 
L 45.818182 160.779856 
L 45.929325 160.538596 
L 46.577328 157.262298 
L 47.834931 153.986 
L 49.090909 152.096378 
L 49.7926 150.709702 
L 50.306019 147.433404 
L 51.293812 144.157106 
L 52.363636 142.168804 
L 53.592154 140.880809 
L 55.636364 138.528698 
L 56.803366 140.880809 
L 58.31123 144.157106 
L 58.909091 145.542601 
L 59.779056 147.433404 
L 62.181818 149.954672 
L 64.494284 150.709702 
L 65.454545 150.87326 
L 65.518552 150.709702 
L 65.882172 147.433404 
L 66.682885 144.157106 
L 68.727273 141.870826 
L 69.37923 140.880809 
L 70.570331 137.604511 
L 71.860762 134.328213 
L 72 134.07552 
L 74.808654 131.051915 
L 75.272727 130.438402 
L 78.545455 130.054865 
L 79.691676 131.051915 
L 81.818182 134.09189 
L 82.09541 134.328213 
L 85.090909 134.59731 
L 85.33635 134.328213 
L 88.363636 131.872584 
L 89.129476 131.051915 
L 89.904846 127.775617 
L 90.603355 124.499319 
L 91.636364 122.253548 
L 91.842581 121.223021 
L 92.210718 117.946723 
L 92.340659 114.670426 
L 92.498374 111.394128 
L 92.79968 108.11783 
L 93.220991 104.841532 
L 94.151843 101.565234 
L 94.540054 98.288936 
L 94.885079 95.012638 
L 94.909091 94.824848 
L 95.206486 91.73634 
L 95.742549 88.460043 
L 96.755496 85.183745 
L 97.665399 81.907447 
L 98.181818 80.153786 
L 99.289416 78.631149 
L 100.950045 75.354851 
L 101.454545 73.872407 
L 104.38298 72.078553 
L 104.727273 71.726795 
L 104.912141 72.078553 
L 106.004281 75.354851 
L 106.813633 78.631149 
L 107.437441 81.907447 
L 107.932947 85.183745 
L 108 85.685708 
L 108.803199 88.460043 
L 110.369592 91.73634 
L 111.272727 91.995537 
L 111.32725 91.73634 
L 111.497101 88.460043 
L 111.796175 85.183745 
L 112.462483 81.907447 
L 114.545455 79.008645 
L 114.615266 78.631149 
L 115.11527 75.354851 
L 115.411589 72.078553 
L 115.914909 68.802255 
L 116.958564 65.525957 
L 117.818182 64.036494 
L 118.144271 62.24966 
L 118.633396 58.973362 
L 118.923839 55.697064 
L 119.275537 52.420766 
L 119.717342 49.144468 
L 120.333875 45.86817 
L 121.090909 43.075537 
L 121.167528 42.591872 
L 121.60501 39.315574 
L 121.937146 36.039277 
L 122.2714 32.762979 
L 122.52135 29.486681 
L 122.781271 26.210383 
L 123.097557 22.934085 
L 123.490772 19.657787 
L 123.992868 16.381489 
L 124.363636 14.431472 
L 124.595362 13.105191 
L 124.966009 9.828894 
L 125.227785 6.552596 
L 125.44282 3.276298 
L 125.622605 -0 
L 125.031496 -0 
L 124.798938 3.276298 
L 124.520783 6.552596 
L 124.363636 8.157385 
L 124.069157 9.828894 
L 123.528818 13.105191 
L 123.021455 16.381489 
L 122.637496 19.657787 
L 122.336799 22.934085 
L 122.09493 26.210383 
L 121.896164 29.486681 
L 121.657255 32.762979 
L 121.291901 36.039277 
L 121.090909 37.710477 
L 120.371134 39.315574 
L 119.441486 42.591872 
L 118.879502 45.86817 
L 118.503081 49.144468 
L 118.23334 52.420766 
L 118.050317 55.697064 
L 117.891907 58.973362 
L 117.818182 59.450126 
L 115.017281 62.24966 
L 114.545455 64.837279 
L 113.222168 62.24966 
L 112.093471 58.973362 
L 111.3639 55.697064 
L 111.272727 55.437678 
L 108.857258 52.420766 
L 108 51.87623 
L 107.324008 52.420766 
L 104.727273 54.599525 
L 104.411614 55.697064 
L 103.183168 58.973362 
L 101.454545 61.930334 
L 101.320302 62.24966 
L 100.264365 65.525957 
L 99.157673 68.802255 
L 98.181818 71.281261 
L 97.627433 72.078553 
L 96.117551 75.354851 
L 95.383141 78.631149 
L 94.909091 81.560374 
L 94.760863 81.907447 
L 92.671864 85.183745 
L 91.697045 88.460043 
L 91.636364 88.835063 
L 90.896959 91.73634 
L 89.687846 95.012638 
L 89.374692 98.288936 
L 88.363636 100.408092 
L 88.101174 101.565234 
L 85.927994 104.841532 
L 85.090909 106.029989 
L 84.669076 108.11783 
L 84.385358 111.394128 
L 83.649542 114.670426 
L 81.818182 116.024421 
L 79.719378 117.946723 
L 78.545455 119.961616 
L 78.026317 121.223021 
L 76.095578 124.499319 
L 75.272727 125.049915 
L 73.663614 127.775617 
L 72 129.744856 
L 70.389308 131.051915 
L 69.164068 134.328213 
L 68.727273 136.611736 
L 65.454545 137.335413 
L 64.84011 137.604511 
L 62.181818 140.088486 
L 61.082164 137.604511 
L 60.426861 134.328213 
L 60.075067 131.051915 
L 59.847986 127.775617 
L 59.296257 124.499319 
L 58.909091 121.742451 
L 58.30103 121.223021 
L 57.215619 117.946723 
L 58.172206 114.670426 
L 58.909091 113.299306 
L 59.614436 111.394128 
L 62.052048 108.11783 
L 62.181818 107.923104 
L 62.677792 104.841532 
L 63.455062 101.565234 
L 64.82602 98.288936 
L 65.454545 97.347761 
L 66.933395 95.012638 
L 68.164022 91.73634 
L 68.727273 90.368715 
L 70.316193 88.460043 
L 72 86.829946 
L 73.77853 85.183745 
L 75.272727 82.591308 
L 75.624222 81.907447 
L 76.436773 78.631149 
L 77.180111 75.354851 
L 77.862719 72.078553 
L 78.545455 69.107976 
L 78.627681 68.802255 
L 79.575675 65.525957 
L 80.36796 62.24966 
L 81.006044 58.973362 
L 81.632797 55.697064 
L 81.818182 54.976723 
L 82.595214 52.420766 
L 83.437092 49.144468 
L 84.144298 45.86817 
L 84.342503 42.591872 
L 84.52957 39.315574 
L 84.84279 36.039277 
L 85.090909 33.450465 
L 85.163366 32.762979 
L 85.462662 29.486681 
L 85.72148 26.210383 
L 85.947509 22.934085 
L 86.166145 19.657787 
L 86.342673 16.381489 
L 86.543574 13.105191 
L 86.774269 9.828894 
L 87.032568 6.552596 
L 87.29519 3.276298 
L 87.593011 -0 
L 85.090909 -0 
L 81.818182 -0 
L 78.545455 -0 
L 77.983378 -0 
L 77.755741 3.276298 
L 77.521525 6.552596 
L 77.220632 9.828894 
L 76.919454 13.105191 
L 76.617992 16.381489 
L 76.316245 19.657787 
L 76.014212 22.934085 
L 75.711893 26.210383 
L 75.408861 29.486681 
L 75.272727 30.946552 
L 75.071275 32.762979 
L 74.711174 36.039277 
L 74.355206 39.315574 
L 74.0033 42.591872 
L 73.264066 45.86817 
L 72.504705 49.144468 
L 72 51.450029 
L 71.767638 52.420766 
L 70.957825 55.697064 
L 70.079826 58.973362 
L 69.157031 62.24966 
L 68.727273 63.727776 
L 68.354717 65.525957 
L 67.709781 68.802255 
L 67.089704 72.078553 
L 66.470258 75.354851 
L 65.847377 78.631149 
L 65.454545 79.693964 
L 64.072721 81.907447 
L 62.181818 84.841665 
L 61.994933 85.183745 
L 60.088566 88.460043 
L 58.909091 90.283571 
L 58.157671 91.73634 
L 56.552546 95.012638 
L 55.636364 97.016947 
L 54.205473 98.288936 
L 52.363636 100.868167 
L 52.07213 101.565234 
L 50.552795 104.841532 
L 49.090909 107.310839 
L 48.574575 108.11783 
L 46.956148 111.394128 
L 45.818182 113.216944 
L 44.478175 114.670426 
L 42.545455 116.404879 
L 41.417214 117.946723 
L 39.272727 120.63868 
L 38.474879 121.223021 
L 36 124.419539 
L 35.910944 124.499319 
L 32.727273 126.735844 
L 31.669618 127.775617 
L 29.454545 130.009786 
L 28.567275 131.051915 
L 26.563903 134.328213 
L 26.181818 135.346923 
L 25.068456 137.604511 
L 22.909091 140.657944 
L 22.792036 140.880809 
L 19.9548 144.157106 
L 19.636364 144.469103 
L 17.20664 147.433404 
L 16.363636 148.555221 
L 13.090909 150.206271 
L 12.490847 150.709702 
L 9.818182 153.311687 
L 9.096043 153.986 
L 6.946366 157.262298 
L 6.545455 157.956797 
L 4.967102 160.538596 
L 3.272727 162.824851 
L 2.806341 163.814894 
L 1.118445 167.091191 
L -0 168.562899 
L -0 170.367489 
L -0 173.643787 
L -0 176.920085 
L -0 180.196383 
L -0 183.472681 
L -0 186.748979 
L -0 190.025277 
L -0 193.301574 
L -0 196.577872 
L -0 199.85417 
L -0 203.130468 
L -0 206.406766 
L -0 209.683064 
L -0 212.959362 
L -0 215.454985 
z
M 18.628864 180.196383 
L 16.378921 176.920085 
L 16.363636 176.889633 
L 13.090909 174.319085 
L 12.974243 173.643787 
L 13.090909 173.189067 
L 14.727274 170.367489 
L 16.363636 168.815187 
L 19.636364 168.279549 
L 20.867747 170.367489 
L 21.084044 173.643787 
L 20.789442 176.920085 
L 19.981703 180.196383 
L 19.636364 180.865193 
z
M 22.15901 163.814894 
L 22.909091 162.725516 
L 23.226058 163.814894 
L 22.909091 166.657324 
z
M 38.195792 153.986 
L 36.621876 150.709702 
L 36 149.244485 
L 34.774435 147.433404 
L 35.061933 144.157106 
L 36 142.919942 
L 37.789082 140.880809 
L 39.272727 139.388028 
L 40.504891 137.604511 
L 42.545455 134.955551 
L 42.981135 134.328213 
L 45.182174 131.051915 
L 45.818182 130.118708 
L 46.194038 131.051915 
L 47.129481 134.328213 
L 46.871723 137.604511 
L 46.110889 140.880809 
L 45.818182 141.987004 
L 45.345157 144.157106 
L 45.038933 147.433404 
L 44.701124 150.709702 
L 43.659271 153.986 
L 42.545455 156.092111 
L 39.272727 156.919997 
z
M 81.818182 151.410622 
L 85.090909 152.307749 
L 86.687215 150.709702 
L 86.687215 147.433404 
L 88.363636 145.755154 
L 89.959942 144.157106 
L 89.036225 140.880809 
L 88.363636 140.204365 
L 87.687241 140.880809 
L 85.090909 143.446013 
L 84.382228 144.157106 
L 81.818182 146.72395 
L 81.111131 147.433404 
L 81.100466 150.709702 
z
M 81.808828 150.709702 
L 81.808967 147.433404 
L 81.818182 147.424158 
L 82.526689 147.433404 
L 82.526689 150.709702 
L 81.818182 150.718837 
z
M 85.081673 144.157106 
L 85.090909 144.147839 
L 85.799416 144.157106 
L 85.090909 144.866386 
z
" clip-path="url(#pcc1be0fd1e)" style="fill: #eff6fc; fill-opacity: 0.9"/>
    <path d="M 19.636364 180.865193 
L 19.981703 180.196383 
L 20.789442 176.920085 
L 21.084044 173.643787 
L 20.867747 170.367489 
L 19.636364 168.279549 
L 16.363636 168.815187 
L 14.727274 170.367489 
L 13.090909 173.189067 
L 12.974243 173.643787 
L 13.090909 174.319085 
L 16.363636 176.889633 
L 16.378921 176.920085 
L 18.628864 180.196383 
z
M 22.909091 166.657324 
L 23.226058 163.814894 
L 22.909091 162.725516 
L 22.15901 163.814894 
z
M 39.272727 156.919997 
L 42.545455 156.092111 
L 43.659271 153.986 
L 44.701124 150.709702 
L 45.038933 147.433404 
L 45.345157 144.157106 
L 45.818182 141.987004 
L 46.110889 140.880809 
L 46.871723 137.604511 
L 47.129481 134.328213 
L 46.194038 131.051915 
L 45.818182 130.118708 
L 45.182174 131.051915 
L 42.981135 134.328213 
L 42.545455 134.955551 
L 40.504891 137.604511 
L 39.272727 139.388028 
L 37.789082 140.880809 
L 36 142.919942 
L 35.061933 144.157106 
L 34.774435 147.433404 
L 36 149.244485 
L 36.621876 150.709702 
L 38.195792 153.986 
z
M 81.818182 150.718837 
L 82.526689 150.709702 
L 82.526689 147.433404 
L 81.818182 147.424158 
L 81.808967 147.433404 
L 81.808828 150.709702 
z
M 85.090909 144.866386 
L 85.799416 144.157106 
L 85.090909 144.147839 
L 85.081673 144.157106 
z
M 62.181818 140.088486 
L 64.84011 137.604511 
L 65.454545 137.335413 
L 68.727273 136.611736 
L 69.164068 134.328213 
L 70.389308 131.051915 
L 72 129.744856 
L 73.663614 127.775617 
L 75.272727 125.049915 
L 76.095578 124.499319 
L 78.026317 121.223021 
L 78.545455 119.961616 
L 79.719378 117.946723 
L 81.818182 116.024421 
L 83.649542 114.670426 
L 84.385358 111.394128 
L 84.669076 108.11783 
L 85.090909 106.029989 
L 85.927994 104.841532 
L 88.101174 101.565234 
L 88.363636 100.408092 
L 89.374692 98.288936 
L 89.687846 95.012638 
L 90.896959 91.73634 
L 91.636364 88.835063 
L 91.697045 88.460043 
L 92.671864 85.183745 
L 94.760863 81.907447 
L 94.909091 81.560374 
L 95.383141 78.631149 
L 96.117551 75.354851 
L 97.627433 72.078553 
L 98.181818 71.281261 
L 99.157673 68.802255 
L 100.264365 65.525957 
L 101.320302 62.24966 
L 101.454545 61.930334 
L 103.183168 58.973362 
L 104.411614 55.697064 
L 104.727273 54.599525 
L 107.324008 52.420766 
L 108 51.87623 
L 108.857258 52.420766 
L 111.272727 55.437678 
L 111.3639 55.697064 
L 112.093471 58.973362 
L 113.222168 62.24966 
L 114.545455 64.837279 
L 115.017281 62.24966 
L 117.818182 59.450126 
L 117.891907 58.973362 
L 118.050317 55.697064 
L 118.23334 52.420766 
L 118.503081 49.144468 
L 118.879502 45.86817 
L 119.441486 42.591872 
L 120.371134 39.315574 
L 121.090909 37.710477 
L 121.291901 36.039277 
L 121.657255 32.762979 
L 121.896164 29.486681 
L 122.09493 26.210383 
L 122.336799 22.934085 
L 122.637496 19.657787 
L 123.021455 16.381489 
L 123.528818 13.105191 
L 124.069157 9.828894 
L 124.363636 8.157385 
L 124.520783 6.552596 
L 124.798938 3.276298 
L 125.031496 -0 
L 124.440387 -0 
L 124.363636 0.937453 
L 123.841498 3.276298 
L 123.257805 6.552596 
L 122.797182 9.828894 
L 122.401302 13.105191 
L 122.050043 16.381489 
L 121.784219 19.657787 
L 121.57604 22.934085 
L 121.408589 26.210383 
L 121.270978 29.486681 
L 121.090909 32.065999 
L 120.54938 32.762979 
L 118.629219 36.039277 
L 117.965273 39.315574 
L 117.818182 40.524458 
L 115.818484 39.315574 
L 114.545455 38.44855 
L 111.272727 36.847122 
L 108 37.055722 
L 106.781615 39.315574 
L 104.727273 42.366867 
L 104.603881 42.591872 
L 103.295922 45.86817 
L 102.518726 49.144468 
L 101.454545 52.219992 
L 101.066365 52.420766 
L 98.299414 55.697064 
L 98.181818 56.05608 
L 97.335118 58.973362 
L 95.15926 62.24966 
L 94.909091 62.527549 
L 94.275162 65.525957 
L 93.492486 68.802255 
L 92.301383 72.078553 
L 91.636364 73.595763 
L 91.212729 75.354851 
L 90.577788 78.631149 
L 89.933009 81.907447 
L 89.101851 85.183745 
L 88.363636 87.128424 
L 87.824195 88.460043 
L 86.865992 91.73634 
L 86.180753 95.012638 
L 85.090909 98.037349 
L 84.300187 98.288936 
L 82.093242 101.565234 
L 81.818182 102.961888 
L 78.545455 104.82148 
L 77.365487 101.565234 
L 78.545455 98.313864 
L 78.589561 98.288936 
L 80.287273 95.012638 
L 80.58476 91.73634 
L 80.445853 88.460043 
L 80.973586 85.183745 
L 81.805314 81.907447 
L 81.818182 81.865492 
L 82.629678 78.631149 
L 83.230613 75.354851 
L 83.911804 72.078553 
L 84.662233 68.802255 
L 85.090909 67.364798 
L 85.570252 65.525957 
L 86.189751 62.24966 
L 86.726101 58.973362 
L 87.319577 55.697064 
L 88.09712 52.420766 
L 88.363636 51.573149 
L 88.959161 49.144468 
L 89.540557 45.86817 
L 89.917274 42.591872 
L 90.185002 39.315574 
L 90.510969 36.039277 
L 90.966706 32.762979 
L 91.636364 29.530707 
L 91.643385 29.486681 
L 92.116964 26.210383 
L 92.510407 22.934085 
L 92.774966 19.657787 
L 92.976305 16.381489 
L 93.252943 13.105191 
L 93.656836 9.828894 
L 94.17614 6.552596 
L 94.819629 3.276298 
L 94.909091 2.915468 
L 95.171164 0 
L 94.909091 -0 
L 91.636364 -0 
L 88.363636 -0 
L 87.593011 -0 
L 87.29519 3.276298 
L 87.032568 6.552596 
L 86.774269 9.828894 
L 86.543574 13.105191 
L 86.342673 16.381489 
L 86.166145 19.657787 
L 85.947509 22.934085 
L 85.72148 26.210383 
L 85.462662 29.486681 
L 85.163366 32.762979 
L 85.090909 33.450465 
L 84.84279 36.039277 
L 84.52957 39.315574 
L 84.342503 42.591872 
L 84.144298 45.86817 
L 83.437092 49.144468 
L 82.595214 52.420766 
L 81.818182 54.976723 
L 81.632797 55.697064 
L 81.006044 58.973362 
L 80.36796 62.24966 
L 79.575675 65.525957 
L 78.627681 68.802255 
L 78.545455 69.107976 
L 77.862719 72.078553 
L 77.180111 75.354851 
L 76.436773 78.631149 
L 75.624222 81.907447 
L 75.272727 82.591308 
L 73.77853 85.183745 
L 72 86.829946 
L 70.316193 88.460043 
L 68.727273 90.368715 
L 68.164022 91.73634 
L 66.933395 95.012638 
L 65.454545 97.347761 
L 64.82602 98.288936 
L 63.455062 101.565234 
L 62.677792 104.841532 
L 62.181818 107.923104 
L 62.052048 108.11783 
L 59.614436 111.394128 
L 58.909091 113.299306 
L 58.172206 114.670426 
L 57.215619 117.946723 
L 58.30103 121.223021 
L 58.909091 121.742451 
L 59.296257 124.499319 
L 59.847986 127.775617 
L 60.075067 131.051915 
L 60.426861 134.328213 
L 61.082164 137.604511 
z
M 65.256806 131.051915 
L 63.001985 127.775617 
L 62.181818 125.584736 
L 61.960462 124.499319 
L 61.903606 121.223021 
L 62.074932 117.946723 
L 62.181818 117.687402 
L 63.388885 114.670426 
L 64.527425 111.394128 
L 65.321051 108.11783 
L 65.454545 107.496893 
L 67.1224 104.841532 
L 68.727273 102.933093 
L 70.255615 104.841532 
L 70.738613 108.11783 
L 71.298844 111.394128 
L 71.614095 114.670426 
L 71.654667 117.946723 
L 71.706028 121.223021 
L 69.252498 124.499319 
L 68.727273 124.775208 
L 67.277665 127.775617 
L 65.58207 131.051915 
L 65.454545 131.202513 
z
" clip-path="url(#pcc1be0fd1e)" style="fill: #eaf3fb; fill-opacity: 0.9"/>
    <path d="M 65.454545 131.202513 
L 65.58207 131.051915 
L 67.277665 127.775617 
L 68.727273 124.775208 
L 69.252498 124.499319 
L 71.706028 121.223021 
L 71.654667 117.946723 
L 71.614095 114.670426 
L 71.298844 111.394128 
L 70.738613 108.11783 
L 70.255615 104.841532 
L 68.727273 102.933093 
L 67.1224 104.841532 
L 65.454545 107.496893 
L 65.321051 108.11783 
L 64.527425 111.394128 
L 63.388885 114.670426 
L 62.181818 117.687402 
L 62.074932 117.946723 
L 61.903606 121.223021 
L 61.960462 124.499319 
L 62.181818 125.584736 
L 63.001985 127.775617 
L 65.256806 131.051915 
z
M 78.545455 104.82148 
L 81.818182 102.961888 
L 82.093242 101.565234 
L 84.300187 98.288936 
L 85.090909 98.037349 
L 86.180753 95.012638 
L 86.865992 91.73634 
L 87.824195 88.460043 
L 88.363636 87.128424 
L 89.101851 85.183745 
L 89.933009 81.907447 
L 90.577788 78.631149 
L 91.212729 75.354851 
L 91.636364 73.595763 
L 92.301383 72.078553 
L 93.492486 68.802255 
L 94.275162 65.525957 
L 94.909091 62.527549 
L 95.15926 62.24966 
L 97.335118 58.973362 
L 98.181818 56.05608 
L 98.299414 55.697064 
L 101.066365 52.420766 
L 101.454545 52.219992 
L 102.518726 49.144468 
L 103.295922 45.86817 
L 104.603881 42.591872 
L 104.727273 42.366867 
L 106.781615 39.315574 
L 108 37.055722 
L 111.272727 36.847122 
L 114.545455 38.44855 
L 115.818484 39.315574 
L 117.818182 40.524458 
L 117.965273 39.315574 
L 118.629219 36.039277 
L 120.54938 32.762979 
L 121.090909 32.065999 
L 121.270978 29.486681 
L 121.408589 26.210383 
L 121.57604 22.934085 
L 121.784219 19.657787 
L 122.050043 16.381489 
L 122.401302 13.105191 
L 122.797182 9.828894 
L 123.257805 6.552596 
L 123.841498 3.276298 
L 124.363636 0.937453 
L 124.440387 -0 
L 124.363636 -0 
L 122.744841 -0 
L 122.229675 3.276298 
L 121.835931 6.552596 
L 121.525207 9.828894 
L 121.273786 13.105191 
L 121.090909 16.144639 
L 120.874264 16.381489 
L 118.173883 19.657787 
L 117.818182 20.139654 
L 114.545455 19.748883 
L 111.272727 20.771504 
L 108 22.920736 
L 107.993047 22.934085 
L 106.654248 26.210383 
L 105.25608 29.486681 
L 104.727273 30.588497 
L 103.075633 29.486681 
L 101.454545 26.625946 
L 100.705092 29.486681 
L 99.468623 32.762979 
L 98.181818 35.066856 
L 97.495195 36.039277 
L 96.643459 39.315574 
L 96.349783 42.591872 
L 96.214227 45.86817 
L 95.546921 49.144468 
L 94.909091 51.17782 
L 92.905239 49.144468 
L 92.732038 45.86817 
L 93.232041 42.591872 
L 93.751541 39.315574 
L 94.137207 36.039277 
L 94.435413 32.762979 
L 94.67288 29.486681 
L 94.866451 26.210383 
L 94.909091 25.396919 
L 95.134329 22.934085 
L 95.779069 19.657787 
L 96.329041 16.381489 
L 96.763847 13.105191 
L 97.116231 9.828894 
L 97.352944 6.552596 
L 97.52064 3.276298 
L 97.669651 -0 
L 95.171164 0 
L 94.909091 2.915468 
L 94.819629 3.276298 
L 94.17614 6.552596 
L 93.656836 9.828894 
L 93.252943 13.105191 
L 92.976305 16.381489 
L 92.774966 19.657787 
L 92.510407 22.934085 
L 92.116964 26.210383 
L 91.643385 29.486681 
L 91.636364 29.530707 
L 90.966706 32.762979 
L 90.510969 36.039277 
L 90.185002 39.315574 
L 89.917274 42.591872 
L 89.540557 45.86817 
L 88.959161 49.144468 
L 88.363636 51.573149 
L 88.09712 52.420766 
L 87.319577 55.697064 
L 86.726101 58.973362 
L 86.189751 62.24966 
L 85.570252 65.525957 
L 85.090909 67.364798 
L 84.662233 68.802255 
L 83.911804 72.078553 
L 83.230613 75.354851 
L 82.629678 78.631149 
L 81.818182 81.865492 
L 81.805314 81.907447 
L 80.973586 85.183745 
L 80.445853 88.460043 
L 80.58476 91.73634 
L 80.287273 95.012638 
L 78.589561 98.288936 
L 78.545455 98.313864 
L 77.365487 101.565234 
z
M 87.707989 75.354851 
L 88.360826 72.078553 
L 88.363636 72.060143 
L 88.365679 72.078553 
L 88.622637 75.354851 
L 88.363636 77.529012 
z
M 90.208945 62.24966 
L 90.603283 58.973362 
L 91.26628 55.697064 
L 91.636364 52.902525 
L 92.208507 55.697064 
L 92.325655 58.973362 
L 92.207209 62.24966 
L 91.636364 64.1604 
z
" clip-path="url(#pcc1be0fd1e)" style="fill: #e5eff9; fill-opacity: 0.9"/>
    <path d="M 88.363636 77.529012 
L 88.622637 75.354851 
L 88.365679 72.078553 
L 88.363636 72.060143 
L 88.360826 72.078553 
L 87.707989 75.354851 
z
M 91.636364 64.1604 
L 92.207209 62.24966 
L 92.325655 58.973362 
L 92.208507 55.697064 
L 91.636364 52.902525 
L 91.26628 55.697064 
L 90.603283 58.973362 
L 90.208945 62.24966 
z
M 94.909091 51.17782 
L 95.546921 49.144468 
L 96.214227 45.86817 
L 96.349783 42.591872 
L 96.643459 39.315574 
L 97.495195 36.039277 
L 98.181818 35.066856 
L 99.468623 32.762979 
L 100.705092 29.486681 
L 101.454545 26.625946 
L 103.075633 29.486681 
L 104.727273 30.588497 
L 105.25608 29.486681 
L 106.654248 26.210383 
L 107.993047 22.934085 
L 108 22.920736 
L 111.272727 20.771504 
L 114.545455 19.748883 
L 117.818182 20.139654 
L 118.173883 19.657787 
L 120.874264 16.381489 
L 121.090909 16.144639 
L 121.273786 13.105191 
L 121.525207 9.828894 
L 121.835931 6.552596 
L 122.229675 3.276298 
L 122.744841 -0 
L 121.090909 -0 
L 118.660018 -0 
L 117.818182 0.701092 
L 115.664174 3.276298 
L 114.545455 4.352662 
L 111.272727 5.379026 
L 110.47149 6.552596 
L 108.32917 9.828894 
L 108 10.221368 
L 107.582079 9.828894 
L 106.074483 6.552596 
L 105.386946 3.276298 
L 104.992929 -0 
L 104.727273 -0 
L 101.454545 -0 
L 98.181818 -0 
L 97.669651 -0 
L 97.52064 3.276298 
L 97.352944 6.552596 
L 97.116231 9.828894 
L 96.763847 13.105191 
L 96.329041 16.381489 
L 95.779069 19.657787 
L 95.134329 22.934085 
L 94.909091 25.396919 
L 94.866451 26.210383 
L 94.67288 29.486681 
L 94.435413 32.762979 
L 94.137207 36.039277 
L 93.751541 39.315574 
L 93.232041 42.591872 
L 92.732038 45.86817 
L 92.905239 49.144468 
z
" clip-path="url(#pcc1be0fd1e)" style="fill: #dfecf7; fill-opacity: 0.9"/>
    <path d="M 108 10.221368 
L 108.32917 9.828894 
L 110.47149 6.552596 
L 111.272727 5.379026 
L 114.545455 4.352662 
L 115.664174 3.276298 
L 117.818182 0.701092 
L 118.660018 -0 
L 117.818182 -0 
L 114.545455 -0 
L 111.272727 -0 
L 108 -0 
L 104.992929 -0 
L 105.386946 3.276298 
L 106.074483 6.552596 
L 107.582079 9.828894 
z
" clip-path="url(#pcc1be0fd1e)" style="fill: #dae8f6; fill-opacity: 0.9"/>
    <path clip-path="url(#pcc1be0fd1e)" style="fill: #d6e5f4; fill-opacity: 0.9"/>
    <path clip-path="url(#pcc1be0fd1e)" style="fill: #d0e2f2; fill-opacity: 0.9"/>
    <path clip-path="url(#pcc1be0fd1e)" style="fill: #cbdef1; fill-opacity: 0.9"/>
    <path clip-path="url(#pcc1be0fd1e)" style="fill: #c6dbef; fill-opacity: 0.9"/>
    <path clip-path="url(#pcc1be0fd1e)" style="fill: #bed8ec; fill-opacity: 0.9"/>
    <path clip-path="url(#pcc1be0fd1e)" style="fill: #b5d4e9; fill-opacity: 0.9"/>
    <path clip-path="url(#pcc1be0fd1e)" style="fill: #add0e6; fill-opacity: 0.9"/>
    <path clip-path="url(#pcc1be0fd1e)" style="fill: #a5cde3; fill-opacity: 0.9"/>
    <path clip-path="url(#pcc1be0fd1e)" style="fill: #9cc9e1; fill-opacity: 0.9"/>
    <path clip-path="url(#pcc1be0fd1e)" style="fill: #91c3de; fill-opacity: 0.9"/>
    <path clip-path="url(#pcc1be0fd1e)" style="fill: #85bcdc; fill-opacity: 0.9"/>
    <path clip-path="url(#pcc1be0fd1e)" style="fill: #7cb7da; fill-opacity: 0.9"/>
    <path clip-path="url(#pcc1be0fd1e)" style="fill: #71b1d7; fill-opacity: 0.9"/>
    <path clip-path="url(#pcc1be0fd1e)" style="fill: #66abd4; fill-opacity: 0.9"/>
    <path clip-path="url(#pcc1be0fd1e)" style="fill: #5da5d1; fill-opacity: 0.9"/>
    <path clip-path="url(#pcc1be0fd1e)" style="fill: #56a0ce; fill-opacity: 0.9"/>
    <path clip-path="url(#pcc1be0fd1e)" style="fill: #4d99ca; fill-opacity: 0.9"/>
    <path clip-path="url(#pcc1be0fd1e)" style="fill: #4493c7; fill-opacity: 0.9"/>
    <path clip-path="url(#pcc1be0fd1e)" style="fill: #3c8cc3; fill-opacity: 0.9"/>
    <path clip-path="url(#pcc1be0fd1e)" style="fill: #3686c0; fill-opacity: 0.9"/>
    <path clip-path="url(#pcc1be0fd1e)" style="fill: #2f7fbc; fill-opacity: 0.9"/>
    <path clip-path="url(#pcc1be0fd1e)" style="fill: #2777b8; fill-opacity: 0.9"/>
    <path clip-path="url(#pcc1be0fd1e)" style="fill: #2070b4; fill-opacity: 0.9"/>
    <path clip-path="url(#pcc1be0fd1e)" style="fill: #1c6ab0; fill-opacity: 0.9"/>
    <path clip-path="url(#pcc1be0fd1e)" style="fill: #1663aa; fill-opacity: 0.9"/>
    <path clip-path="url(#pcc1be0fd1e)" style="fill: #115ca5; fill-opacity: 0.9"/>
    <path clip-path="url(#pcc1be0fd1e)" style="fill: #0c56a0; fill-opacity: 0.9"/>
    <path clip-path="url(#pcc1be0fd1e)" style="fill: #084f99; fill-opacity: 0.9"/>
    <path clip-path="url(#pcc1be0fd1e)" style="fill: #08488e; fill-opacity: 0.9"/>
    <path clip-path="url(#pcc1be0fd1e)" style="fill: #084184; fill-opacity: 0.9"/>
    <path clip-path="url(#pcc1be0fd1e)" style="fill: #083a7a; fill-opacity: 0.9"/>
    <path clip-path="url(#pcc1be0fd1e)" style="fill: #083370; fill-opacity: 0.9"/>
    <path clip-path="url(#pcc1be0fd1e)" style="fill: #08306b; fill-opacity: 0.9"/>
   </g>
   <g id="QuadContourSet_2">
    <path d="M -0 249.513772 
L 0.235188 248.998638 
L 0.280613 245.72234 
L 0.431669 242.446043 
L 0.930246 239.169745 
L 3.272727 236.433379 
L 3.476079 235.893447 
L 3.76738 232.617149 
L 3.884533 229.340851 
L 4.632343 226.064553 
L 6.545455 222.915799 
L 6.624851 222.788255 
L 7.328098 219.511957 
L 8.013073 216.23566 
L 8.640602 212.959362 
L 9.818182 210.569398 
L 12.343126 212.959362 
L 13.090909 215.357657 
L 13.384606 216.23566 
L 16.363636 218.30652 
L 16.816373 216.23566 
L 17.432558 212.959362 
L 19.636364 210.462011 
L 19.96909 209.683064 
L 20.463569 206.406766 
L 20.864911 203.130468 
L 22.426197 199.85417 
L 22.909091 199.216961 
L 23.867866 196.577872 
L 24.508375 193.301574 
L 25.130751 190.025277 
L 26.181818 188.207835 
L 27.403011 186.748979 
L 28.491091 183.472681 
L 29.454545 180.84525 
L 31.474296 180.196383 
L 32.727273 179.539805 
L 33.020832 180.196383 
L 33.953611 183.472681 
L 34.746084 186.748979 
L 36 189.6577 
L 36.471631 186.748979 
L 39.272727 184.709132 
L 39.878344 183.472681 
L 40.332494 180.196383 
L 41.596143 176.920085 
L 42.545455 175.95739 
L 43.570501 173.643787 
L 44.188839 170.367489 
L 44.985605 167.091191 
L 45.818182 165.638079 
L 47.137102 163.814894 
L 48.433321 160.538596 
L 49.090909 158.824916 
L 50.480695 157.262298 
L 52.363636 154.067984 
L 52.626196 153.986 
L 55.636364 152.774032 
L 56.297078 153.986 
L 57.179691 157.262298 
L 57.668465 160.538596 
L 58.909091 163.567905 
L 60.220748 160.538596 
L 62.181818 159.578279 
L 63.235236 157.262298 
L 65.454545 154.074621 
L 65.502271 153.986 
L 66.774577 150.709702 
L 67.391336 147.433404 
L 68.727273 144.813614 
L 69.435426 144.157106 
L 71.314012 140.880809 
L 72 139.047067 
L 75.272727 137.738544 
L 77.715654 140.880809 
L 78.545455 141.38772 
L 78.928843 140.880809 
L 81.818182 139.132258 
L 83.148903 137.604511 
L 85.090909 136.158913 
L 86.760672 134.328213 
L 88.363636 133.027944 
L 90.207647 131.051915 
L 91.483836 127.775617 
L 91.636364 127.289182 
L 92.297196 124.499319 
L 92.850255 121.223021 
L 93.181298 117.946723 
L 93.361401 114.670426 
L 93.592011 111.394128 
L 94.15736 108.11783 
L 94.909091 105.329659 
L 95.216308 104.841532 
L 96.578333 101.565234 
L 97.081038 98.288936 
L 97.656194 95.012638 
L 98.181818 92.650782 
L 101.454545 92.299265 
L 102.375276 95.012638 
L 103.334039 98.288936 
L 104.337132 101.565234 
L 104.727273 102.374985 
L 105.670266 101.565234 
L 108 100.839372 
L 108.407043 101.565234 
L 110.137679 104.841532 
L 111.272727 105.728328 
L 112.158557 104.841532 
L 112.158557 101.565234 
L 111.272727 100.108888 
L 108.934015 98.288936 
L 111.272727 95.937648 
L 111.826931 95.012638 
L 112.539684 91.73634 
L 113.04365 88.460043 
L 113.931034 85.183745 
L 114.545455 83.803708 
L 114.975813 81.907447 
L 115.502037 78.631149 
L 116.064569 75.354851 
L 116.606631 72.078553 
L 117.527361 68.802255 
L 117.818182 68.093266 
L 118.444313 65.525957 
L 118.927832 62.24966 
L 119.374885 58.973362 
L 119.797362 55.697064 
L 120.317735 52.420766 
L 120.931604 49.144468 
L 121.090909 48.440597 
L 121.575223 45.86817 
L 122.017428 42.591872 
L 122.338575 39.315574 
L 122.359232 39.038005 
M 124.297102 19.974448 
L 124.344049 19.657787 
L 124.363636 19.540505 
L 125.032577 16.381489 
L 125.488002 13.105191 
L 125.749852 9.828894 
L 125.934788 6.552596 
L 126.086702 3.276298 
L 126.213714 -0 
M 52.797882 -0 
L 52.363636 1.113491 
L 51.972098 3.276298 
L 51.936183 3.46729 
M 45.959626 21.600509 
L 45.818182 22.018326 
L 45.354988 22.934085 
L 43.54403 26.210383 
L 42.545455 27.834232 
L 42.01686 29.486681 
L 41.278348 32.762979 
L 40.753364 36.039277 
L 40.196259 39.315574 
L 39.491653 42.591872 
L 39.272727 43.369704 
L 37.565343 45.86817 
L 36.3743 49.144468 
L 36 50.726022 
L 35.680826 52.420766 
L 34.707967 55.697064 
L 33.454028 58.973362 
L 32.727273 60.598039 
L 32.277013 62.24966 
L 31.686969 65.525957 
L 31.223321 68.802255 
L 30.409047 72.078553 
L 29.454545 74.91942 
L 29.028482 75.354851 
L 27.058765 78.631149 
L 26.181818 81.517177 
L 22.909091 81.715218 
L 22.700165 81.907447 
L 19.636364 83.760234 
L 19.005223 85.183745 
L 18.4055 88.460043 
L 17.900986 91.73634 
L 16.773939 95.012638 
L 16.363636 96.002612 
L 15.207081 98.288936 
L 14.176701 101.565234 
L 13.417715 104.841532 
L 13.090909 106.377607 
L 9.818182 105.73705 
L 7.427922 104.841532 
L 6.545455 104.557816 
L 6.320276 104.841532 
L 3.272727 107.976313 
L 3.204551 108.11783 
L 2.043579 111.394128 
L 0.557785 114.670426 
L -0 115.507389 
M 85.655011 142.186848 
L 85.090909 142.744187 
L 83.682783 144.157106 
L 81.818182 146.023742 
L 80.413294 147.433404 
L 80.392105 150.709702 
L 81.818182 152.102407 
L 85.090909 153.986 
L 87.192718 151.881898 
M 104.727273 115.442472 
L 108 117.946723 
L 111.272727 114.670426 
L 108.885829 111.394128 
L 108.885829 108.11783 
L 108 106.981543 
L 106.156945 108.11783 
L 107.069456 111.394128 
L 104.727273 113.841341 
L 103.493577 114.670426 
L 104.727273 115.442472 
z
" clip-path="url(#pcc1be0fd1e)" style="fill: none"/>
    <path d="M -0 215.454985 
L 2.03301 213.176062 
M 11.04614 196.39716 
L 13.090909 194.261873 
L 16.363636 196.34985 
L 18.679533 193.301574 
L 19.154017 190.025277 
L 19.636364 189.229216 
L 21.980212 186.748979 
L 22.909091 185.043158 
L 23.429357 183.472681 
L 24.836468 180.196383 
L 26.181818 178.080265 
L 26.610291 176.920085 
L 27.145096 173.643787 
L 28.343138 170.367489 
L 29.454545 168.692709 
L 32.727273 165.379636 
L 35.305105 167.091191 
L 36 167.863889 
L 37.422706 170.367489 
L 39.272727 171.614102 
L 41.115769 170.367489 
L 42.545455 167.699628 
L 43.109433 163.814894 
L 45.929325 160.538596 
L 46.577328 157.262298 
L 47.834931 153.986 
L 49.090909 152.096378 
L 49.7926 150.709702 
L 50.306019 147.433404 
L 51.293812 144.157106 
L 52.363636 142.168804 
L 53.592154 140.880809 
L 55.636364 138.528698 
L 58.31123 144.157106 
L 59.779056 147.433404 
L 62.181818 149.954672 
L 64.494284 150.709702 
L 65.454545 150.87326 
L 65.518552 150.709702 
L 65.882172 147.433404 
L 66.682885 144.157106 
L 68.727273 141.870826 
L 69.37923 140.880809 
L 71.860762 134.328213 
L 72 134.07552 
L 75.272727 130.438402 
L 78.545455 130.054865 
L 79.691676 131.051915 
L 82.09541 134.328213 
L 85.090909 134.59731 
L 85.33635 134.328213 
L 88.363636 131.872584 
L 89.129476 131.051915 
L 90.603355 124.499319 
L 91.636364 122.253548 
L 91.842581 121.223021 
L 92.210718 117.946723 
L 92.498374 111.394128 
L 92.79968 108.11783 
L 93.220991 104.841532 
L 94.151843 101.565234 
L 95.742549 88.460043 
L 97.665399 81.907447 
L 98.181818 80.153786 
L 99.289416 78.631149 
L 100.950045 75.354851 
L 101.454545 73.872407 
L 104.38298 72.078553 
L 104.727273 71.726795 
L 104.912141 72.078553 
L 106.004281 75.354851 
L 106.813633 78.631149 
L 107.437441 81.907447 
L 108 85.685708 
L 108.803199 88.460043 
L 110.369592 91.73634 
L 111.272727 91.995537 
L 111.32725 91.73634 
L 111.497101 88.460043 
L 111.796175 85.183745 
L 112.462483 81.907447 
L 114.545455 79.008645 
L 115.11527 75.354851 
L 115.411589 72.078553 
L 115.914909 68.802255 
L 116.958564 65.525957 
L 117.818182 64.036494 
L 118.633396 58.973362 
L 119.275537 52.420766 
L 119.717342 49.144468 
L 120.333875 45.86817 
L 121.167528 42.591872 
L 121.937146 36.039277 
L 122.52135 29.486681 
L 123.097557 22.934085 
L 123.992868 16.381489 
L 124.595362 13.105191 
L 125.227785 6.552596 
L 125.622605 -0 
M 77.983378 -0 
L 77.500673 6.779645 
M 75.732865 25.983106 
L 74.711174 36.039277 
L 74.0033 42.591872 
L 70.957825 55.697064 
L 68.354717 65.525957 
L 65.454545 79.693964 
L 58.909091 90.283571 
L 56.552546 95.012638 
L 55.636364 97.016947 
L 54.205473 98.288936 
L 52.363636 100.868167 
L 52.07213 101.565234 
L 50.552795 104.841532 
L 48.574575 108.11783 
L 46.956148 111.394128 
L 45.818182 113.216944 
L 44.478175 114.670426 
L 42.545455 116.404879 
L 41.417214 117.946723 
L 39.272727 120.63868 
L 38.474879 121.223021 
L 35.910944 124.499319 
L 32.727273 126.735844 
L 29.454545 130.009786 
L 28.567275 131.051915 
L 26.563903 134.328213 
L 26.181818 135.346923 
L 25.068456 137.604511 
L 22.792036 140.880809 
L 17.20664 147.433404 
L 16.363636 148.555221 
L 13.090909 150.206271 
L 12.490847 150.709702 
L 9.096043 153.986 
L 6.545455 157.956797 
L 4.967102 160.538596 
L 3.272727 162.824851 
L 2.806341 163.814894 
L 1.118445 167.091191 
L -0 168.562899 
M 87.170816 146.949276 
L 89.959942 144.157106 
L 89.036225 140.880809 
L 88.363636 140.204365 
L 84.885505 143.652117 
L 84.885505 143.652117 
" clip-path="url(#pcc1be0fd1e)" style="fill: none"/>
    <path d="M 87.593011 -0 
L 87.29519 3.276298 
L 87.032568 6.552596 
L 86.774269 9.828894 
L 86.543574 13.105191 
L 86.342673 16.381489 
L 86.166145 19.657787 
L 85.947509 22.934085 
L 85.72148 26.210383 
L 85.462662 29.486681 
L 85.163366 32.762979 
L 85.090909 33.450465 
L 84.84279 36.039277 
L 84.52957 39.315574 
L 84.342503 42.591872 
L 84.144298 45.86817 
L 83.437092 49.144468 
L 82.595214 52.420766 
L 81.818182 54.976723 
L 81.632797 55.697064 
L 81.006044 58.973362 
L 80.36796 62.24966 
L 80.248777 62.742514 
M 75.730619 81.478444 
L 75.624222 81.907447 
L 75.272727 82.591308 
L 73.77853 85.183745 
L 72 86.829946 
L 70.316193 88.460043 
L 68.727273 90.368715 
L 68.164022 91.73634 
L 66.933395 95.012638 
L 65.454545 97.347761 
L 64.82602 98.288936 
L 63.455062 101.565234 
L 62.677792 104.841532 
L 62.181818 107.923104 
L 62.052048 108.11783 
L 59.614436 111.394128 
L 58.909091 113.299306 
L 58.172206 114.670426 
L 57.215619 117.946723 
L 58.30103 121.223021 
L 58.909091 121.742451 
L 59.296257 124.499319 
L 59.847986 127.775617 
L 60.075067 131.051915 
L 60.426861 134.328213 
L 61.082164 137.604511 
L 62.181818 140.088486 
L 64.84011 137.604511 
L 65.454545 137.335413 
L 68.727273 136.611736 
L 69.164068 134.328213 
L 70.389308 131.051915 
L 72 129.744856 
L 73.663614 127.775617 
L 75.272727 125.049915 
L 76.095578 124.499319 
L 78.026317 121.223021 
L 78.545455 119.961616 
L 79.719378 117.946723 
L 81.818182 116.024421 
L 83.649542 114.670426 
L 84.385358 111.394128 
L 84.669076 108.11783 
L 85.090909 106.029989 
L 85.927994 104.841532 
L 88.101174 101.565234 
L 88.363636 100.408092 
L 89.374692 98.288936 
L 89.687846 95.012638 
L 90.896959 91.73634 
L 91.636364 88.835063 
L 91.697045 88.460043 
L 92.671864 85.183745 
L 94.760863 81.907447 
L 94.909091 81.560374 
L 95.383141 78.631149 
L 96.117551 75.354851 
L 97.627433 72.078553 
L 98.181818 71.281261 
L 99.157673 68.802255 
L 100.264365 65.525957 
L 101.320302 62.24966 
L 101.454545 61.930334 
L 103.183168 58.973362 
L 104.411614 55.697064 
L 104.727273 54.599525 
L 107.324008 52.420766 
L 108 51.87623 
L 108.857258 52.420766 
L 111.272727 55.437678 
L 111.3639 55.697064 
L 112.093471 58.973362 
L 113.222168 62.24966 
L 114.545455 64.837279 
L 115.017281 62.24966 
L 117.818182 59.450126 
L 117.891907 58.973362 
L 118.050317 55.697064 
L 118.23334 52.420766 
L 118.503081 49.144468 
L 118.879502 45.86817 
L 119.441486 42.591872 
L 120.371134 39.315574 
L 121.090909 37.710477 
L 121.291901 36.039277 
L 121.657255 32.762979 
L 121.896164 29.486681 
L 122.09493 26.210383 
L 122.336799 22.934085 
L 122.637496 19.657787 
L 123.021455 16.381489 
L 123.528818 13.105191 
L 124.069157 9.828894 
L 124.363636 8.157385 
L 124.520783 6.552596 
L 124.798938 3.276298 
L 125.031496 -0 
M 13.026268 173.944923 
L 13.090909 174.319085 
L 16.363636 176.889633 
L 16.378921 176.920085 
L 18.628864 180.196383 
L 19.636364 180.865193 
L 19.981703 180.196383 
L 20.635925 177.54277 
M 22.909091 166.657324 
L 23.226058 163.814894 
L 22.909091 162.725516 
L 22.15901 163.814894 
L 22.909091 166.657324 
z
M 34.96732 145.235308 
L 34.774435 147.433404 
L 36 149.244485 
L 36.621876 150.709702 
L 38.195792 153.986 
L 39.272727 156.919997 
L 42.545455 156.092111 
L 43.659271 153.986 
L 44.701124 150.709702 
L 45.038933 147.433404 
L 45.345157 144.157106 
L 45.818182 141.987004 
L 46.110889 140.880809 
L 46.871723 137.604511 
L 47.129481 134.328213 
L 46.194038 131.051915 
L 45.982016 130.525489 
M 81.818182 150.718837 
L 82.526689 150.709702 
L 82.526689 147.433404 
L 81.818182 147.424158 
L 81.808967 147.433404 
L 81.808828 150.709702 
L 81.818182 150.718837 
z
M 85.090909 144.866386 
L 85.799416 144.157106 
L 85.090909 144.147839 
L 85.081673 144.157106 
L 85.090909 144.866386 
z
" clip-path="url(#pcc1be0fd1e)" style="fill: none"/>
    <path d="M 95.171164 0 
L 94.909091 2.915468 
L 94.819629 3.276298 
L 94.758744 3.586292 
M 92.527704 22.719881 
L 92.510407 22.934085 
L 92.116964 26.210383 
L 91.643385 29.486681 
L 91.636364 29.530707 
L 90.966706 32.762979 
L 90.510969 36.039277 
L 90.185002 39.315574 
L 89.917274 42.591872 
L 89.540557 45.86817 
L 88.959161 49.144468 
L 88.363636 51.573149 
L 88.09712 52.420766 
L 87.319577 55.697064 
L 86.726101 58.973362 
L 86.189751 62.24966 
L 85.570252 65.525957 
L 85.090909 67.364798 
L 84.662233 68.802255 
L 83.911804 72.078553 
L 83.230613 75.354851 
L 82.629678 78.631149 
L 81.818182 81.865492 
L 81.805314 81.907447 
L 80.973586 85.183745 
L 80.445853 88.460043 
L 80.58476 91.73634 
L 80.287273 95.012638 
L 78.589561 98.288936 
L 78.545455 98.313864 
L 77.365487 101.565234 
L 78.545455 104.82148 
L 81.818182 102.961888 
L 82.093242 101.565234 
L 84.300187 98.288936 
L 85.090909 98.037349 
L 86.180753 95.012638 
L 86.865992 91.73634 
L 87.824195 88.460043 
L 88.363636 87.128424 
L 89.101851 85.183745 
L 89.933009 81.907447 
L 90.577788 78.631149 
L 91.212729 75.354851 
L 91.636364 73.595763 
L 92.301383 72.078553 
L 93.492486 68.802255 
L 94.275162 65.525957 
L 94.909091 62.527549 
L 95.15926 62.24966 
L 97.335118 58.973362 
L 98.181818 56.05608 
L 98.299414 55.697064 
L 101.066365 52.420766 
L 101.454545 52.219992 
L 102.518726 49.144468 
L 103.295922 45.86817 
L 104.603881 42.591872 
L 104.727273 42.366867 
L 106.781615 39.315574 
L 108 37.055722 
L 111.272727 36.847122 
L 114.545455 38.44855 
L 115.818484 39.315574 
L 117.818182 40.524458 
L 117.965273 39.315574 
L 118.629219 36.039277 
L 120.54938 32.762979 
L 121.090909 32.065999 
L 121.270978 29.486681 
L 121.408589 26.210383 
L 121.57604 22.934085 
L 121.784219 19.657787 
L 122.050043 16.381489 
L 122.401302 13.105191 
L 122.797182 9.828894 
L 123.257805 6.552596 
L 123.841498 3.276298 
L 124.363636 0.937453 
L 124.440387 -0 
M 71.318193 111.595214 
L 71.298844 111.394128 
L 70.738613 108.11783 
L 70.255615 104.841532 
L 68.727273 102.933093 
L 67.1224 104.841532 
L 65.454545 107.496893 
L 65.321051 108.11783 
L 64.527425 111.394128 
L 63.388885 114.670426 
L 62.181818 117.687402 
L 62.074932 117.946723 
L 61.903606 121.223021 
L 61.960462 124.499319 
L 62.181818 125.584736 
L 63.001985 127.775617 
L 65.256806 131.051915 
L 65.454545 131.202513 
L 65.58207 131.051915 
L 66.539833 129.201285 
" clip-path="url(#pcc1be0fd1e)" style="fill: none"/>
    <path d="M 97.669651 -0 
L 97.52064 3.276298 
L 97.352944 6.552596 
L 97.116231 9.828894 
L 96.763847 13.105191 
L 96.329041 16.381489 
L 95.779069 19.657787 
L 95.134329 22.934085 
L 94.909091 25.396919 
L 94.866451 26.210383 
L 94.67288 29.486681 
L 94.435413 32.762979 
L 94.137207 36.039277 
L 94.096611 36.384144 
M 95.80775 47.863863 
L 96.214227 45.86817 
L 96.349783 42.591872 
L 96.643459 39.315574 
L 97.495195 36.039277 
L 98.181818 35.066856 
L 99.468623 32.762979 
L 100.705092 29.486681 
L 101.454545 26.625946 
L 103.075633 29.486681 
L 104.727273 30.588497 
L 105.25608 29.486681 
L 106.654248 26.210383 
L 107.993047 22.934085 
L 108 22.920736 
L 111.272727 20.771504 
L 114.545455 19.748883 
L 117.818182 20.139654 
L 118.173883 19.657787 
L 120.874264 16.381489 
L 121.090909 16.144639 
L 121.273786 13.105191 
L 121.525207 9.828894 
L 121.835931 6.552596 
L 122.229675 3.276298 
L 122.744841 -0 
M 88.363636 77.529012 
L 88.622637 75.354851 
L 88.365679 72.078553 
L 88.363636 72.060143 
L 88.360826 72.078553 
L 87.707989 75.354851 
L 88.363636 77.529012 
z
M 91.636364 64.1604 
L 92.207209 62.24966 
L 92.325655 58.973362 
L 92.208507 55.697064 
L 91.636364 52.902525 
L 91.26628 55.697064 
L 90.603283 58.973362 
L 90.208945 62.24966 
L 91.636364 64.1604 
z
" clip-path="url(#pcc1be0fd1e)" style="fill: none"/>
    <path d="M 104.992929 -0 
L 105.073518 0.670108 
M 114.260132 4.442142 
L 114.545455 4.352662 
L 115.664174 3.276298 
L 117.818182 0.701092 
L 118.660018 -0 
" clip-path="url(#pcc1be0fd1e)" style="fill: none"/>
    <path clip-path="url(#pcc1be0fd1e)" style="fill: none"/>
    <path clip-path="url(#pcc1be0fd1e)" style="fill: none"/>
    <path clip-path="url(#pcc1be0fd1e)" style="fill: none"/>
    <path clip-path="url(#pcc1be0fd1e)" style="fill: none"/>
    <path clip-path="url(#pcc1be0fd1e)" style="fill: none"/>
    <path clip-path="url(#pcc1be0fd1e)" style="fill: none"/>
    <path clip-path="url(#pcc1be0fd1e)" style="fill: none"/>
    <path clip-path="url(#pcc1be0fd1e)" style="fill: none"/>
    <path clip-path="url(#pcc1be0fd1e)" style="fill: none"/>
    <path clip-path="url(#pcc1be0fd1e)" style="fill: none"/>
    <path clip-path="url(#pcc1be0fd1e)" style="fill: none"/>
    <path clip-path="url(#pcc1be0fd1e)" style="fill: none"/>
    <path clip-path="url(#pcc1be0fd1e)" style="fill: none"/>
    <path clip-path="url(#pcc1be0fd1e)" style="fill: none"/>
    <path clip-path="url(#pcc1be0fd1e)" style="fill: none"/>
    <path clip-path="url(#pcc1be0fd1e)" style="fill: none"/>
    <path clip-path="url(#pcc1be0fd1e)" style="fill: none"/>
    <path clip-path="url(#pcc1be0fd1e)" style="fill: none"/>
    <path clip-path="url(#pcc1be0fd1e)" style="fill: none"/>
    <path clip-path="url(#pcc1be0fd1e)" style="fill: none"/>
    <path clip-path="url(#pcc1be0fd1e)" style="fill: none"/>
    <path clip-path="url(#pcc1be0fd1e)" style="fill: none"/>
    <path clip-path="url(#pcc1be0fd1e)" style="fill: none"/>
    <path clip-path="url(#pcc1be0fd1e)" style="fill: none"/>
    <path clip-path="url(#pcc1be0fd1e)" style="fill: none"/>
    <path clip-path="url(#pcc1be0fd1e)" style="fill: none"/>
    <path clip-path="url(#pcc1be0fd1e)" style="fill: none"/>
    <path clip-path="url(#pcc1be0fd1e)" style="fill: none"/>
    <path clip-path="url(#pcc1be0fd1e)" style="fill: none"/>
    <path clip-path="url(#pcc1be0fd1e)" style="fill: none"/>
    <path clip-path="url(#pcc1be0fd1e)" style="fill: none"/>
    <path clip-path="url(#pcc1be0fd1e)" style="fill: none"/>
    <path clip-path="url(#pcc1be0fd1e)" style="fill: none"/>
   </g>
   <g id="text_1">
    <g clip-path="url(#pcc1be0fd1e)">
     <!-- 0 -->
     <g style="opacity: 0" transform="translate(126.081696 33.60038) rotate(-84.570244) scale(0.12 -0.12)">
      <defs>
       <path id="DejaVuSans-30" d="M 2034 4250 
Q 1547 4250 1301 3770 
Q 1056 3291 1056 2328 
Q 1056 1369 1301 889 
Q 1547 409 2034 409 
Q 2525 409 2770 889 
Q 3016 1369 3016 2328 
Q 3016 3291 2770 3770 
Q 2525 4250 2034 4250 
z
M 2034 4750 
Q 2819 4750 3233 4129 
Q 3647 3509 3647 2328 
Q 3647 1150 3233 529 
Q 2819 -91 2034 -91 
Q 1250 -91 836 529 
Q 422 1150 422 2328 
Q 422 3509 836 4129 
Q 1250 4750 2034 4750 
z
" transform="scale(0.015625)"/>
      </defs>
      <use xlink:href="#DejaVuSans-30"/>
     </g>
    </g>
   </g>
   <g id="text_2">
    <g clip-path="url(#pcc1be0fd1e)">
     <!-- 0 -->
     <g style="opacity: 0" transform="translate(50.777787 17.320308) rotate(-68.561946) scale(0.12 -0.12)">
      <use xlink:href="#DejaVuSans-30"/>
     </g>
    </g>
   </g>
   <g id="text_3">
    <g clip-path="url(#pcc1be0fd1e)">
     <!-- 0 -->
     <g style="opacity: 0" transform="translate(94.63899 148.221823) rotate(-85.515525) scale(0.12 -0.12)">
      <use xlink:href="#DejaVuSans-30"/>
     </g>
    </g>
   </g>
   <g id="text_4">
    <g clip-path="url(#pcc1be0fd1e)">
     <!-- 1 -->
     <g style="opacity: 0" transform="translate(7.710311 209.697434) rotate(-62.388901) scale(0.12 -0.12)">
      <defs>
       <path id="DejaVuSans-31" d="M 794 531 
L 1825 531 
L 1825 4091 
L 703 3866 
L 703 4441 
L 1819 4666 
L 2450 4666 
L 2450 531 
L 3481 531 
L 3481 0 
L 794 0 
L 794 531 
z
" transform="scale(0.015625)"/>
      </defs>
      <use xlink:href="#DejaVuSans-31"/>
     </g>
    </g>
   </g>
   <g id="text_5">
    <g clip-path="url(#pcc1be0fd1e)">
     <!-- 1 -->
     <g style="opacity: 0" transform="translate(79.56292 20.488201) rotate(-84.706407) scale(0.12 -0.12)">
      <use xlink:href="#DejaVuSans-31"/>
     </g>
    </g>
   </g>
   <g id="text_6">
    <g clip-path="url(#pcc1be0fd1e)">
     <!-- 1 -->
     <g style="opacity: 0" transform="translate(76.767033 151.257068) rotate(-317.320808) scale(0.12 -0.12)">
      <use xlink:href="#DejaVuSans-31"/>
     </g>
    </g>
   </g>
   <g id="text_7">
    <g clip-path="url(#pcc1be0fd1e)">
     <!-- 2 -->
     <g style="opacity: 0" transform="translate(80.215865 76.550733) rotate(-76.814246) scale(0.12 -0.12)">
      <defs>
       <path id="DejaVuSans-32" d="M 1228 531 
L 3431 531 
L 3431 0 
L 469 0 
L 469 531 
Q 828 903 1448 1529 
Q 2069 2156 2228 2338 
Q 2531 2678 2651 2914 
Q 2772 3150 2772 3378 
Q 2772 3750 2511 3984 
Q 2250 4219 1831 4219 
Q 1534 4219 1204 4116 
Q 875 4013 500 3803 
L 500 4441 
Q 881 4594 1212 4672 
Q 1544 4750 1819 4750 
Q 2544 4750 2975 4387 
Q 3406 4025 3406 3419 
Q 3406 3131 3298 2873 
Q 3191 2616 2906 2266 
Q 2828 2175 2409 1742 
Q 1991 1309 1228 531 
z
" transform="scale(0.015625)"/>
      </defs>
      <use xlink:href="#DejaVuSans-32"/>
     </g>
    </g>
   </g>
   <g id="text_8">
    <g clip-path="url(#pcc1be0fd1e)">
     <!-- 2 -->
     <g style="opacity: 0" transform="translate(14.737005 169.518084) rotate(-333.248936) scale(0.12 -0.12)">
      <use xlink:href="#DejaVuSans-32"/>
     </g>
    </g>
   </g>
   <g id="text_9">
    <g clip-path="url(#pcc1be0fd1e)">
     <!-- 2 -->
     <g style="opacity: 0" transform="translate(40.730015 142.652976) rotate(-51.615323) scale(0.12 -0.12)">
      <use xlink:href="#DejaVuSans-32"/>
     </g>
    </g>
   </g>
   <g id="text_10">
    <g clip-path="url(#pcc1be0fd1e)">
     <!-- 3 -->
     <g style="opacity: 0" transform="translate(96.141497 17.251749) rotate(-83.923703) scale(0.12 -0.12)">
      <defs>
       <path id="DejaVuSans-33" d="M 2597 2516 
Q 3050 2419 3304 2112 
Q 3559 1806 3559 1356 
Q 3559 666 3084 287 
Q 2609 -91 1734 -91 
Q 1441 -91 1130 -33 
Q 819 25 488 141 
L 488 750 
Q 750 597 1062 519 
Q 1375 441 1716 441 
Q 2309 441 2620 675 
Q 2931 909 2931 1356 
Q 2931 1769 2642 2001 
Q 2353 2234 1838 2234 
L 1294 2234 
L 1294 2753 
L 1863 2753 
Q 2328 2753 2575 2939 
Q 2822 3125 2822 3475 
Q 2822 3834 2567 4026 
Q 2313 4219 1838 4219 
Q 1578 4219 1281 4162 
Q 984 4106 628 3988 
L 628 4550 
Q 988 4650 1302 4700 
Q 1616 4750 1894 4750 
Q 2613 4750 3031 4423 
Q 3450 4097 3450 3541 
Q 3450 3153 3228 2886 
Q 3006 2619 2597 2516 
z
" transform="scale(0.015625)"/>
      </defs>
      <use xlink:href="#DejaVuSans-33"/>
     </g>
    </g>
   </g>
   <g id="text_11">
    <g clip-path="url(#pcc1be0fd1e)">
     <!-- 3 -->
     <g style="opacity: 0" transform="translate(73.581484 125.915606) rotate(-70.846847) scale(0.12 -0.12)">
      <use xlink:href="#DejaVuSans-33"/>
     </g>
    </g>
   </g>
   <g id="text_12">
    <g clip-path="url(#pcc1be0fd1e)">
     <!-- 4 -->
     <g style="opacity: 0" transform="translate(89.194446 42.259413) rotate(-273.491509) scale(0.12 -0.12)">
      <defs>
       <path id="DejaVuSans-34" d="M 2419 4116 
L 825 1625 
L 2419 1625 
L 2419 4116 
z
M 2253 4666 
L 3047 4666 
L 3047 1625 
L 3713 1625 
L 3713 1100 
L 3047 1100 
L 3047 0 
L 2419 0 
L 2419 1100 
L 313 1100 
L 313 1709 
L 2253 4666 
z
" transform="scale(0.015625)"/>
      </defs>
      <use xlink:href="#DejaVuSans-34"/>
     </g>
    </g>
   </g>
   <g id="text_13">
    <g clip-path="url(#pcc1be0fd1e)">
     <!-- 5 -->
     <g style="opacity: 0" transform="translate(102.988896 11.936106) rotate(-343.70627) scale(0.12 -0.12)">
      <defs>
       <path id="DejaVuSans-35" d="M 691 4666 
L 3169 4666 
L 3169 4134 
L 1269 4134 
L 1269 2991 
Q 1406 3038 1543 3061 
Q 1681 3084 1819 3084 
Q 2600 3084 3056 2656 
Q 3513 2228 3513 1497 
Q 3513 744 3044 326 
Q 2575 -91 1722 -91 
Q 1428 -91 1123 -41 
Q 819 9 494 109 
L 494 744 
Q 775 591 1075 516 
Q 1375 441 1709 441 
Q 2250 441 2565 725 
Q 2881 1009 2881 1497 
Q 2881 1984 2565 2268 
Q 2250 2553 1709 2553 
Q 1456 2553 1204 2497 
Q 953 2441 691 2322 
L 691 4666 
z
" transform="scale(0.015625)"/>
      </defs>
      <use xlink:href="#DejaVuSans-35"/>
     </g>
    </g>
   </g>
  </g>
 </g>
 <defs>
  <clipPath id="pcc1be0fd1e">
   <rect x="0" y="0" width="576" height="815.79817"/>
  </clipPath>
 </defs>
</svg>
