<?xml version="1.0" encoding="utf-8" standalone="no"?>
<!DOCTYPE svg PUBLIC "-//W3C//DTD SVG 1.1//EN"
  "http://www.w3.org/Graphics/SVG/1.1/DTD/svg11.dtd">
<svg xmlns:xlink="http://www.w3.org/1999/xlink" width="576pt" height="817.086468pt" viewBox="0 0 576 817.086468" xmlns="http://www.w3.org/2000/svg" version="1.1">
 <metadata>
  <rdf:RDF xmlns:dc="http://purl.org/dc/elements/1.1/" xmlns:cc="http://creativecommons.org/ns#" xmlns:rdf="http://www.w3.org/1999/02/22-rdf-syntax-ns#">
   <cc:Work>
    <dc:type rdf:resource="http://purl.org/dc/dcmitype/StillImage"/>
    <dc:date>2025-07-25T22:45:42.010566</dc:date>
    <dc:format>image/svg+xml</dc:format>
    <dc:creator>
     <cc:Agent>
      <dc:title>Matplotlib v3.10.3, https://matplotlib.org/</dc:title>
     </cc:Agent>
    </dc:creator>
   </cc:Work>
  </rdf:RDF>
 </metadata>
 <defs>
  <style type="text/css">*{stroke-linejoin: round; stroke-linecap: butt}</style>
 </defs>
 <g id="figure_1">
  <g id="patch_1">
   <path d="M 0 817.086468 
L 576 817.086468 
L 576 0 
L 0 0 
L 0 817.086468 
z
" style="fill: none; opacity: 0"/>
  </g>
  <g id="axes_1">
   <g id="QuadContourSet_1">
    <path d="M 572.727273 20.099969 
L 576 21.07091 
L 576 19.688831 
L 576 18.879496 
L 573.093847 16.407359 
L 572.727273 16.09553 
L 569.454545 14.30505 
L 566.181818 13.918579 
L 565.142292 16.407359 
L 562.909091 18.247937 
L 561.073417 16.407359 
L 562.909091 13.553373 
L 564.553829 13.125887 
L 562.909091 12.172332 
L 559.636364 10.525166 
L 558.514639 9.844415 
L 556.363636 8.539016 
L 553.107514 6.562944 
L 553.090909 6.552866 
L 549.818182 4.282258 
L 548.671596 3.281472 
L 546.545455 1.42569 
L 544.912062 0 
L 543.272727 0 
L 540 0 
L 539.929952 0 
L 540 0.070235 
L 543.272727 0.381063 
L 546.545455 3.035189 
L 546.827617 3.281472 
L 549.818182 5.891757 
L 550.78603 6.562944 
L 553.090909 8.049402 
L 556.097385 9.844415 
L 556.363636 10.111378 
L 559.636364 11.985678 
L 561.515171 13.125887 
L 560.419987 16.407359 
L 562.909091 18.903113 
L 565.937227 16.407359 
L 566.181818 15.821771 
L 567.086217 16.407359 
L 569.454545 17.756416 
L 572.317229 19.688831 
z
" clip-path="url(#pfb34e456e3)" style="fill: #f5f9fe; fill-opacity: 0.9"/>
    <path d="M 562.909091 18.247937 
L 565.142292 16.407359 
L 566.181818 13.918579 
L 569.454545 14.30505 
L 572.727273 16.09553 
L 573.093847 16.407359 
L 576 18.879496 
L 576 17.175448 
L 575.097063 16.407359 
L 572.727273 14.391482 
L 571.239486 13.125887 
L 569.454545 11.607516 
L 567.060087 9.844415 
L 566.181818 9.114494 
L 563.128564 9.844415 
L 562.909091 9.906233 
L 562.75 9.844415 
L 559.636364 8.3495 
L 556.363636 7.078505 
L 555.514108 6.562944 
L 553.090909 5.092355 
L 550.583121 3.281472 
L 549.818182 2.672759 
L 546.756042 0 
L 546.545455 0 
L 544.912062 0 
L 546.545455 1.42569 
L 548.671596 3.281472 
L 549.818182 4.282258 
L 553.090909 6.552866 
L 553.107514 6.562944 
L 556.363636 8.539016 
L 558.514639 9.844415 
L 559.636364 10.525166 
L 562.909091 12.172332 
L 564.553829 13.125887 
L 562.909091 13.553373 
L 561.073417 16.407359 
z
M 561.726847 16.407359 
L 562.909091 14.569284 
L 564.347358 16.407359 
L 562.909091 17.592762 
z
" clip-path="url(#pfb34e456e3)" style="fill: #eff6fc; fill-opacity: 0.9"/>
    <path d="M 562.909091 17.592762 
L 564.347358 16.407359 
L 562.909091 14.569284 
L 561.726847 16.407359 
z
M 562.380277 16.407359 
L 562.909091 15.585194 
L 563.552423 16.407359 
L 562.909091 16.937586 
z
M 576 17.175448 
L 576 16.407359 
L 576 14.921524 
L 573.641499 13.125887 
L 572.727273 12.236595 
L 569.454545 9.903468 
L 569.374346 9.844415 
L 566.181818 7.191133 
L 565.205952 6.562944 
L 562.909091 4.74461 
L 560.302088 3.281472 
L 559.636364 2.727959 
L 558.365537 3.281472 
L 556.363636 4.192938 
L 553.090909 3.631843 
L 552.6057 3.281472 
L 549.818182 1.06326 
L 548.600021 0 
L 546.756042 0 
L 549.818182 2.672759 
L 550.583121 3.281472 
L 553.090909 5.092355 
L 555.514108 6.562944 
L 556.363636 7.078505 
L 559.636364 8.3495 
L 562.75 9.844415 
L 562.909091 9.906233 
L 563.128564 9.844415 
L 566.181818 9.114494 
L 567.060087 9.844415 
L 569.454545 11.607516 
L 571.239486 13.125887 
L 572.727273 14.391482 
L 575.097063 16.407359 
z
" clip-path="url(#pfb34e456e3)" style="fill: #eaf3fb; fill-opacity: 0.9"/>
    <path d="M 562.909091 16.937586 
L 563.552423 16.407359 
L 562.909091 15.585194 
L 562.380277 16.407359 
z
M 576 14.921524 
L 576 13.125887 
L 576 9.844415 
L 576 6.562944 
L 576 3.281472 
L 576 0 
L 572.727273 0 
L 569.454545 0 
L 566.181818 0 
L 562.909091 0 
L 559.636364 0 
L 556.363636 0 
L 553.090909 0 
L 549.818182 0 
L 548.600021 0 
L 549.818182 1.06326 
L 552.6057 3.281472 
L 553.090909 3.631843 
L 556.363636 4.192938 
L 558.365537 3.281472 
L 559.636364 2.727959 
L 560.302088 3.281472 
L 562.909091 4.74461 
L 565.205952 6.562944 
L 566.181818 7.191133 
L 569.374346 9.844415 
L 569.454545 9.903468 
L 572.727273 12.236595 
L 573.641499 13.125887 
z
" clip-path="url(#pfb34e456e3)" style="fill: #e5eff9; fill-opacity: 0.9"/>
    <path clip-path="url(#pfb34e456e3)" style="fill: #dfecf7; fill-opacity: 0.9"/>
    <path clip-path="url(#pfb34e456e3)" style="fill: #dae8f6; fill-opacity: 0.9"/>
    <path clip-path="url(#pfb34e456e3)" style="fill: #d6e5f4; fill-opacity: 0.9"/>
    <path clip-path="url(#pfb34e456e3)" style="fill: #d0e2f2; fill-opacity: 0.9"/>
    <path clip-path="url(#pfb34e456e3)" style="fill: #cbdef1; fill-opacity: 0.9"/>
    <path clip-path="url(#pfb34e456e3)" style="fill: #c6dbef; fill-opacity: 0.9"/>
    <path clip-path="url(#pfb34e456e3)" style="fill: #bed8ec; fill-opacity: 0.9"/>
    <path clip-path="url(#pfb34e456e3)" style="fill: #b5d4e9; fill-opacity: 0.9"/>
    <path clip-path="url(#pfb34e456e3)" style="fill: #add0e6; fill-opacity: 0.9"/>
    <path clip-path="url(#pfb34e456e3)" style="fill: #a5cde3; fill-opacity: 0.9"/>
    <path clip-path="url(#pfb34e456e3)" style="fill: #9cc9e1; fill-opacity: 0.9"/>
    <path clip-path="url(#pfb34e456e3)" style="fill: #91c3de; fill-opacity: 0.9"/>
    <path clip-path="url(#pfb34e456e3)" style="fill: #85bcdc; fill-opacity: 0.9"/>
    <path clip-path="url(#pfb34e456e3)" style="fill: #7cb7da; fill-opacity: 0.9"/>
    <path clip-path="url(#pfb34e456e3)" style="fill: #71b1d7; fill-opacity: 0.9"/>
    <path clip-path="url(#pfb34e456e3)" style="fill: #66abd4; fill-opacity: 0.9"/>
    <path clip-path="url(#pfb34e456e3)" style="fill: #5da5d1; fill-opacity: 0.9"/>
    <path clip-path="url(#pfb34e456e3)" style="fill: #56a0ce; fill-opacity: 0.9"/>
    <path clip-path="url(#pfb34e456e3)" style="fill: #4d99ca; fill-opacity: 0.9"/>
    <path clip-path="url(#pfb34e456e3)" style="fill: #4493c7; fill-opacity: 0.9"/>
    <path clip-path="url(#pfb34e456e3)" style="fill: #3c8cc3; fill-opacity: 0.9"/>
    <path clip-path="url(#pfb34e456e3)" style="fill: #3686c0; fill-opacity: 0.9"/>
    <path clip-path="url(#pfb34e456e3)" style="fill: #2f7fbc; fill-opacity: 0.9"/>
    <path clip-path="url(#pfb34e456e3)" style="fill: #2777b8; fill-opacity: 0.9"/>
    <path clip-path="url(#pfb34e456e3)" style="fill: #2070b4; fill-opacity: 0.9"/>
    <path clip-path="url(#pfb34e456e3)" style="fill: #1c6ab0; fill-opacity: 0.9"/>
    <path clip-path="url(#pfb34e456e3)" style="fill: #1663aa; fill-opacity: 0.9"/>
    <path clip-path="url(#pfb34e456e3)" style="fill: #115ca5; fill-opacity: 0.9"/>
    <path clip-path="url(#pfb34e456e3)" style="fill: #0c56a0; fill-opacity: 0.9"/>
    <path clip-path="url(#pfb34e456e3)" style="fill: #084f99; fill-opacity: 0.9"/>
    <path clip-path="url(#pfb34e456e3)" style="fill: #08488e; fill-opacity: 0.9"/>
    <path clip-path="url(#pfb34e456e3)" style="fill: #084184; fill-opacity: 0.9"/>
    <path clip-path="url(#pfb34e456e3)" style="fill: #083a7a; fill-opacity: 0.9"/>
    <path clip-path="url(#pfb34e456e3)" style="fill: #083370; fill-opacity: 0.9"/>
    <path clip-path="url(#pfb34e456e3)" style="fill: #08306b; fill-opacity: 0.9"/>
   </g>
   <g id="QuadContourSet_2">
    <path d="M 539.929952 0 
L 540 0.070235 
L 542.289382 0.28767 
M 557.8745 10.976654 
L 559.636364 11.985678 
L 561.515171 13.125887 
L 560.419987 16.407359 
L 562.909091 18.903113 
L 565.937227 16.407359 
L 566.181818 15.821771 
L 567.086217 16.407359 
L 569.454545 17.756416 
L 572.317229 19.688831 
L 572.727273 20.099969 
L 576 21.07091 
" clip-path="url(#pfb34e456e3)" style="fill: none"/>
    <path d="M 544.912062 0 
L 546.545455 1.42569 
L 548.671596 3.281472 
L 549.818182 4.282258 
L 553.090909 6.552866 
L 553.107514 6.562944 
L 556.363636 8.539016 
L 558.514639 9.844415 
L 559.636364 10.525166 
L 562.909091 12.172332 
L 564.553829 13.125887 
L 562.909091 13.553373 
L 561.845523 15.206939 
M 574.682881 17.75908 
L 576 18.879496 
" clip-path="url(#pfb34e456e3)" style="fill: none"/>
    <path d="M 546.756042 0 
L 548.535788 1.553434 
M 565.292902 9.327001 
L 566.181818 9.114494 
L 567.060087 9.844415 
L 569.454545 11.607516 
L 571.239486 13.125887 
L 572.727273 14.391482 
L 575.097063 16.407359 
L 576 17.175448 
M 562.909091 17.592762 
L 564.347358 16.407359 
L 562.909091 14.569284 
L 561.726847 16.407359 
L 562.909091 17.592762 
z
" clip-path="url(#pfb34e456e3)" style="fill: none"/>
    <path d="M 548.600021 0 
L 549.818182 1.06326 
L 549.886508 1.117631 
M 566.387634 7.362184 
L 569.374346 9.844415 
L 569.454545 9.903468 
L 572.727273 12.236595 
L 573.641499 13.125887 
L 576 14.921524 
M 562.909091 16.937586 
L 563.552423 16.407359 
L 562.909091 15.585194 
L 562.380277 16.407359 
L 562.909091 16.937586 
z
" clip-path="url(#pfb34e456e3)" style="fill: none"/>
    <path clip-path="url(#pfb34e456e3)" style="fill: none"/>
    <path clip-path="url(#pfb34e456e3)" style="fill: none"/>
    <path clip-path="url(#pfb34e456e3)" style="fill: none"/>
    <path clip-path="url(#pfb34e456e3)" style="fill: none"/>
    <path clip-path="url(#pfb34e456e3)" style="fill: none"/>
    <path clip-path="url(#pfb34e456e3)" style="fill: none"/>
    <path clip-path="url(#pfb34e456e3)" style="fill: none"/>
    <path clip-path="url(#pfb34e456e3)" style="fill: none"/>
    <path clip-path="url(#pfb34e456e3)" style="fill: none"/>
    <path clip-path="url(#pfb34e456e3)" style="fill: none"/>
    <path clip-path="url(#pfb34e456e3)" style="fill: none"/>
    <path clip-path="url(#pfb34e456e3)" style="fill: none"/>
    <path clip-path="url(#pfb34e456e3)" style="fill: none"/>
    <path clip-path="url(#pfb34e456e3)" style="fill: none"/>
    <path clip-path="url(#pfb34e456e3)" style="fill: none"/>
    <path clip-path="url(#pfb34e456e3)" style="fill: none"/>
    <path clip-path="url(#pfb34e456e3)" style="fill: none"/>
    <path clip-path="url(#pfb34e456e3)" style="fill: none"/>
    <path clip-path="url(#pfb34e456e3)" style="fill: none"/>
    <path clip-path="url(#pfb34e456e3)" style="fill: none"/>
    <path clip-path="url(#pfb34e456e3)" style="fill: none"/>
    <path clip-path="url(#pfb34e456e3)" style="fill: none"/>
    <path clip-path="url(#pfb34e456e3)" style="fill: none"/>
    <path clip-path="url(#pfb34e456e3)" style="fill: none"/>
    <path clip-path="url(#pfb34e456e3)" style="fill: none"/>
    <path clip-path="url(#pfb34e456e3)" style="fill: none"/>
    <path clip-path="url(#pfb34e456e3)" style="fill: none"/>
    <path clip-path="url(#pfb34e456e3)" style="fill: none"/>
    <path clip-path="url(#pfb34e456e3)" style="fill: none"/>
    <path clip-path="url(#pfb34e456e3)" style="fill: none"/>
    <path clip-path="url(#pfb34e456e3)" style="fill: none"/>
    <path clip-path="url(#pfb34e456e3)" style="fill: none"/>
    <path clip-path="url(#pfb34e456e3)" style="fill: none"/>
    <path clip-path="url(#pfb34e456e3)" style="fill: none"/>
    <path clip-path="url(#pfb34e456e3)" style="fill: none"/>
   </g>
   <g id="text_1">
    <g clip-path="url(#pfb34e456e3)">
     <!-- 0 -->
     <g style="opacity: 0" transform="translate(544.778443 6.264198) rotate(-323.288578) scale(0.12 -0.12)">
      <defs>
       <path id="DejaVuSans-30" d="M 2034 4250 
Q 1547 4250 1301 3770 
Q 1056 3291 1056 2328 
Q 1056 1369 1301 889 
Q 1547 409 2034 409 
Q 2525 409 2770 889 
Q 3016 1369 3016 2328 
Q 3016 3291 2770 3770 
Q 2525 4250 2034 4250 
z
M 2034 4750 
Q 2819 4750 3233 4129 
Q 3647 3509 3647 2328 
Q 3647 1150 3233 529 
Q 2819 -91 2034 -91 
Q 1250 -91 836 529 
Q 422 1150 422 2328 
Q 422 3509 836 4129 
Q 1250 4750 2034 4750 
z
" transform="scale(0.015625)"/>
      </defs>
      <use xlink:href="#DejaVuSans-30"/>
     </g>
    </g>
   </g>
   <g id="text_2">
    <g clip-path="url(#pfb34e456e3)">
     <!-- 1 -->
     <g style="opacity: 0" transform="translate(563.7293 18.337044) rotate(-20.02911) scale(0.12 -0.12)">
      <defs>
       <path id="DejaVuSans-31" d="M 794 531 
L 1825 531 
L 1825 4091 
L 703 3866 
L 703 4441 
L 1819 4666 
L 2450 4666 
L 2450 531 
L 3481 531 
L 3481 0 
L 794 0 
L 794 531 
z
" transform="scale(0.015625)"/>
      </defs>
      <use xlink:href="#DejaVuSans-31"/>
     </g>
    </g>
   </g>
   <g id="text_3">
    <g clip-path="url(#pfb34e456e3)">
     <!-- 2 -->
     <g style="opacity: 0" transform="translate(551.453764 8.27468) rotate(-332.754091) scale(0.12 -0.12)">
      <defs>
       <path id="DejaVuSans-32" d="M 1228 531 
L 3431 531 
L 3431 0 
L 469 0 
L 469 531 
Q 828 903 1448 1529 
Q 2069 2156 2228 2338 
Q 2531 2678 2651 2914 
Q 2772 3150 2772 3378 
Q 2772 3750 2511 3984 
Q 2250 4219 1831 4219 
Q 1534 4219 1204 4116 
Q 875 4013 500 3803 
L 500 4441 
Q 881 4594 1212 4672 
Q 1544 4750 1819 4750 
Q 2544 4750 2975 4387 
Q 3406 4025 3406 3419 
Q 3406 3131 3298 2873 
Q 3191 2616 2906 2266 
Q 2828 2175 2409 1742 
Q 1991 1309 1228 531 
z
" transform="scale(0.015625)"/>
      </defs>
      <use xlink:href="#DejaVuSans-32"/>
     </g>
    </g>
   </g>
   <g id="text_4">
    <g clip-path="url(#pfb34e456e3)">
     <!-- 3 -->
     <g style="opacity: 0" transform="translate(554.248946 6.212574) rotate(-354.513742) scale(0.12 -0.12)">
      <defs>
       <path id="DejaVuSans-33" d="M 2597 2516 
Q 3050 2419 3304 2112 
Q 3559 1806 3559 1356 
Q 3559 666 3084 287 
Q 2609 -91 1734 -91 
Q 1441 -91 1130 -33 
Q 819 25 488 141 
L 488 750 
Q 750 597 1062 519 
Q 1375 441 1716 441 
Q 2309 441 2620 675 
Q 2931 909 2931 1356 
Q 2931 1769 2642 2001 
Q 2353 2234 1838 2234 
L 1294 2234 
L 1294 2753 
L 1863 2753 
Q 2328 2753 2575 2939 
Q 2822 3125 2822 3475 
Q 2822 3834 2567 4026 
Q 2313 4219 1838 4219 
Q 1578 4219 1281 4162 
Q 984 4106 628 3988 
L 628 4550 
Q 988 4650 1302 4700 
Q 1616 4750 1894 4750 
Q 2613 4750 3031 4423 
Q 3450 4097 3450 3541 
Q 3450 3153 3228 2886 
Q 3006 2619 2597 2516 
z
" transform="scale(0.015625)"/>
      </defs>
      <use xlink:href="#DejaVuSans-33"/>
     </g>
    </g>
   </g>
  </g>
 </g>
 <defs>
  <clipPath id="pfb34e456e3">
   <rect x="0" y="0" width="576" height="817.086468"/>
  </clipPath>
 </defs>
</svg>
