<?xml version="1.0" encoding="utf-8" standalone="no"?>
<!DOCTYPE svg PUBLIC "-//W3C//DTD SVG 1.1//EN"
  "http://www.w3.org/Graphics/SVG/1.1/DTD/svg11.dtd">
<svg xmlns:xlink="http://www.w3.org/1999/xlink" width="576pt" height="815.941014pt" viewBox="0 0 576 815.941014" xmlns="http://www.w3.org/2000/svg" version="1.1">
 <metadata>
  <rdf:RDF xmlns:dc="http://purl.org/dc/elements/1.1/" xmlns:cc="http://creativecommons.org/ns#" xmlns:rdf="http://www.w3.org/1999/02/22-rdf-syntax-ns#">
   <cc:Work>
    <dc:type rdf:resource="http://purl.org/dc/dcmitype/StillImage"/>
    <dc:date>2025-07-25T22:45:03.164301</dc:date>
    <dc:format>image/svg+xml</dc:format>
    <dc:creator>
     <cc:Agent>
      <dc:title>Matplotlib v3.10.3, https://matplotlib.org/</dc:title>
     </cc:Agent>
    </dc:creator>
   </cc:Work>
  </rdf:RDF>
 </metadata>
 <defs>
  <style type="text/css">*{stroke-linejoin: round; stroke-linecap: butt}</style>
 </defs>
 <g id="figure_1">
  <g id="patch_1">
   <path d="M 0 815.941014 
L 576 815.941014 
L 576 0 
L 0 0 
L 0 815.941014 
z
" style="fill: none; opacity: 0"/>
  </g>
  <g id="axes_1">
   <g id="QuadContourSet_1">
    <path d="M 134.181818 815.941014 
L 137.454545 815.941014 
L 137.724329 815.941014 
L 137.454545 815.448702 
L 134.181818 813.376163 
L 133.866183 812.664143 
L 132.437826 809.387271 
L 130.909091 807.367906 
L 130.279499 806.1104 
L 128.638876 802.833528 
L 127.636364 800.831175 
L 126.998254 799.556657 
L 125.264763 796.279785 
L 124.363636 794.862992 
L 123.118573 793.002914 
L 121.090909 789.936822 
L 120.809348 789.726042 
L 118.498598 786.44917 
L 117.818182 785.358381 
L 114.711248 783.172299 
L 114.545455 782.925243 
L 112.124414 779.895427 
L 111.272727 779.328323 
L 109.981328 776.618556 
L 108.448518 773.341684 
L 108 772.669982 
L 106.724956 770.064813 
L 105.121161 766.787941 
L 104.727273 765.983149 
L 103.409003 763.51107 
L 101.454545 760.534116 
L 101.179927 760.234198 
L 99.105528 756.957327 
L 98.181818 755.550817 
L 96.223041 753.680455 
L 94.909091 750.952064 
L 94.078702 750.403583 
L 91.636364 748.790392 
L 90.908445 747.126712 
L 88.484472 743.84984 
L 88.363636 743.739536 
L 86.749795 740.572969 
L 85.090909 737.318017 
L 85.079529 737.296097 
L 83.40968 734.019226 
L 81.818182 731.115213 
L 81.573266 730.742354 
L 79.415164 727.465483 
L 78.545455 726.159127 
L 76.956189 724.188611 
L 75.272727 721.360899 
L 74.77609 720.91174 
L 72.055909 717.634868 
L 72 717.53374 
L 68.727273 714.574386 
L 68.615286 714.357996 
L 67.145811 711.081125 
L 65.454545 708.568691 
L 65.048746 707.804253 
L 63.309231 704.527382 
L 62.181818 702.403578 
L 61.569716 701.25051 
L 59.671406 697.973639 
L 58.909091 696.81455 
L 57.477321 694.696767 
L 55.636364 691.857829 
L 55.212565 691.419896 
L 52.937511 688.143024 
L 52.363636 687.218185 
L 50.096562 684.866153 
L 49.090909 683.439997 
L 47.884196 681.589281 
L 45.818182 679.266443 
L 45.290139 678.312409 
L 43.579776 675.035538 
L 42.545455 673.353487 
L 41.662747 671.758666 
L 39.849051 668.481795 
L 39.272727 667.464525 
L 37.958074 665.204923 
L 36 661.963823 
L 35.972344 661.928052 
L 33.907588 658.65118 
L 32.727273 656.637586 
L 31.695999 655.374309 
L 29.608378 652.097437 
L 29.454545 651.813021 
L 27.098882 648.820566 
L 26.181818 647.555668 
L 25.173941 645.543694 
L 23.222025 642.266823 
L 22.909091 641.80434 
L 21.393854 638.989951 
L 19.636364 635.725601 
L 19.629397 635.713079 
L 17.8083 632.436208 
L 16.363636 629.99574 
L 15.858885 629.159336 
L 13.928734 625.882465 
L 13.090909 624.467128 
L 11.949951 622.605593 
L 10.01267 619.328722 
L 9.818182 618.997441 
L 8.020806 616.05185 
L 6.545455 613.589625 
L 6.051888 612.774979 
L 4.066544 609.498107 
L 3.272727 608.187889 
L 2.081199 606.221236 
L 0.095855 602.944364 
L 0 602.786152 
L 0 602.944364 
L 0 606.221236 
L 0 606.527763 
L 1.710782 609.498107 
L 3.272727 611.89375 
L 3.806634 612.774979 
L 5.693248 616.05185 
L 6.545455 617.349396 
L 7.724554 619.328722 
L 9.752017 622.605593 
L 9.818182 622.709234 
L 11.639698 625.882465 
L 13.090909 628.104954 
L 13.70672 629.159336 
L 15.579669 632.436208 
L 16.363636 633.644662 
L 17.509223 635.713079 
L 19.264778 638.989951 
L 19.636364 639.536415 
L 21.106385 642.266823 
L 22.861816 645.543694 
L 22.909091 645.615154 
L 24.666264 648.820566 
L 26.181818 651.680052 
L 26.515413 652.097437 
L 28.843333 655.374309 
L 29.454545 656.39623 
L 31.197969 658.65118 
L 32.727273 660.629186 
L 33.440882 661.928052 
L 35.966978 665.204923 
L 36 665.246609 
L 37.729706 668.481795 
L 39.272727 670.920642 
L 39.736561 671.758666 
L 41.425502 675.035538 
L 42.545455 676.833598 
L 43.363953 678.312409 
L 45.15777 681.589281 
L 45.818182 682.746554 
L 47.341353 684.866153 
L 49.071361 688.143024 
L 49.090909 688.181072 
L 52.193713 691.419896 
L 52.363636 691.62611 
L 55.285957 694.696767 
L 55.636364 695.064961 
L 57.279908 697.973639 
L 58.909091 699.833123 
L 59.751049 701.25051 
L 61.294998 704.527382 
L 62.181818 705.829557 
L 63.230078 707.804253 
L 64.870336 711.081125 
L 65.454545 711.99467 
L 66.744832 714.357996 
L 68.419365 717.634868 
L 68.727273 718.159783 
L 71.002401 720.91174 
L 72 722.755847 
L 73.646072 724.188611 
L 75.272727 725.604474 
L 76.566925 727.465483 
L 78.545455 729.281282 
L 79.466573 730.742354 
L 81.550917 734.019226 
L 81.818182 734.357432 
L 83.288993 737.296097 
L 84.948753 740.572969 
L 85.090909 740.766783 
L 86.662189 743.84984 
L 88.322589 747.126712 
L 88.363636 747.188302 
L 90.201805 750.403583 
L 91.636364 753.590739 
L 91.75611 753.680455 
L 94.909091 756.874054 
L 95.001579 756.957327 
L 98.181818 759.267329 
L 98.686441 760.234198 
L 101.454545 763.257321 
L 101.621139 763.51107 
L 103.218595 766.787941 
L 104.727273 769.335834 
L 105.084056 770.064813 
L 106.563907 773.341684 
L 108 776.022668 
L 108.299007 776.618556 
L 109.871404 779.895427 
L 111.272727 782.709501 
L 111.68312 783.172299 
L 113.576921 786.44917 
L 114.545455 789.157891 
L 115.801499 789.726042 
L 117.818182 790.773603 
L 121.090909 792.595908 
L 121.36007 793.002914 
L 123.002438 796.279785 
L 124.363636 797.650121 
L 125.392739 799.556657 
L 126.822063 802.833528 
L 127.636364 804.037925 
L 128.673984 806.1104 
L 130.189875 809.387271 
L 130.909091 810.574656 
L 132.075731 812.664143 
L 133.530972 815.941014 
z
M 140.727273 810.823071 
L 142.118522 809.387271 
L 140.727273 808.049303 
L 139.066918 809.387271 
z
M 139.922845 809.387271 
L 140.727273 808.739037 
L 141.401321 809.387271 
L 140.727273 810.082904 
z
" clip-path="url(#p8c66cc2fb0)" style="fill: #f5f9fe; fill-opacity: 0.9"/>
    <path d="M 130.909091 814.058716 
L 131.747695 815.941014 
L 133.530972 815.941014 
L 132.075731 812.664143 
L 130.909091 810.574656 
L 130.189875 809.387271 
L 128.673984 806.1104 
L 127.636364 804.037925 
L 126.822063 802.833528 
L 125.392739 799.556657 
L 124.363636 797.650121 
L 123.002438 796.279785 
L 121.36007 793.002914 
L 121.090909 792.595908 
L 117.818182 790.773603 
L 115.801499 789.726042 
L 114.545455 789.157891 
L 113.576921 786.44917 
L 111.68312 783.172299 
L 111.272727 782.709501 
L 109.871404 779.895427 
L 108.299007 776.618556 
L 108 776.022668 
L 106.563907 773.341684 
L 105.084056 770.064813 
L 104.727273 769.335834 
L 103.218595 766.787941 
L 101.621139 763.51107 
L 101.454545 763.257321 
L 98.686441 760.234198 
L 98.181818 759.267329 
L 95.001579 756.957327 
L 94.909091 756.874054 
L 91.75611 753.680455 
L 91.636364 753.590739 
L 90.201805 750.403583 
L 88.363636 747.188302 
L 88.322589 747.126712 
L 86.662189 743.84984 
L 85.090909 740.766783 
L 84.948753 740.572969 
L 83.288993 737.296097 
L 81.818182 734.357432 
L 81.550917 734.019226 
L 79.466573 730.742354 
L 78.545455 729.281282 
L 76.566925 727.465483 
L 75.272727 725.604474 
L 73.646072 724.188611 
L 72 722.755847 
L 71.002401 720.91174 
L 68.727273 718.159783 
L 68.419365 717.634868 
L 66.744832 714.357996 
L 65.454545 711.99467 
L 64.870336 711.081125 
L 63.230078 707.804253 
L 62.181818 705.829557 
L 61.294998 704.527382 
L 59.751049 701.25051 
L 58.909091 699.833123 
L 57.279908 697.973639 
L 55.636364 695.064961 
L 55.285957 694.696767 
L 52.363636 691.62611 
L 52.193713 691.419896 
L 49.090909 688.181072 
L 49.071361 688.143024 
L 47.341353 684.866153 
L 45.818182 682.746554 
L 45.15777 681.589281 
L 43.363953 678.312409 
L 42.545455 676.833598 
L 41.425502 675.035538 
L 39.736561 671.758666 
L 39.272727 670.920642 
L 37.729706 668.481795 
L 36 665.246609 
L 35.966978 665.204923 
L 33.440882 661.928052 
L 32.727273 660.629186 
L 31.197969 658.65118 
L 29.454545 656.39623 
L 28.843333 655.374309 
L 26.515413 652.097437 
L 26.181818 651.680052 
L 24.666264 648.820566 
L 22.909091 645.615154 
L 22.861816 645.543694 
L 21.106385 642.266823 
L 19.636364 639.536415 
L 19.264778 638.989951 
L 17.509223 635.713079 
L 16.363636 633.644662 
L 15.579669 632.436208 
L 13.70672 629.159336 
L 13.090909 628.104954 
L 11.639698 625.882465 
L 9.818182 622.709234 
L 9.752017 622.605593 
L 7.724554 619.328722 
L 6.545455 617.349396 
L 5.693248 616.05185 
L 3.806634 612.774979 
L 3.272727 611.89375 
L 1.710782 609.498107 
L 0 606.527763 
L 0 609.498107 
L 0 611.17294 
L 0.877563 612.774979 
L 3.0666 616.05185 
L 3.272727 616.275453 
L 5.128867 619.328722 
L 6.545455 621.658946 
L 7.076053 622.605593 
L 9.113012 625.882465 
L 9.818182 627.042439 
L 11.072113 629.159336 
L 13.090909 632.426357 
L 13.096254 632.436208 
L 15.053416 635.713079 
L 16.363636 638.31349 
L 16.673496 638.989951 
L 18.691829 642.266823 
L 19.636364 643.917213 
L 20.340756 645.543694 
L 22.301242 648.820566 
L 22.909091 649.481169 
L 24.260851 652.097437 
L 26.078171 655.374309 
L 26.181818 655.504708 
L 28.204004 658.65118 
L 29.454545 661.003836 
L 30.169107 661.928052 
L 32.703625 665.204923 
L 32.727273 665.236792 
L 35.23616 668.481795 
L 36 669.696352 
L 37.060769 671.758666 
L 39.248579 675.035538 
L 39.272727 675.084894 
L 40.707099 678.312409 
L 42.545455 680.428658 
L 43.171802 681.589281 
L 44.691819 684.866153 
L 45.818182 686.226665 
L 46.973429 688.143024 
L 48.559649 691.419896 
L 49.090909 692.139621 
L 51.301247 694.696767 
L 52.363636 696.373372 
L 53.886598 697.973639 
L 55.636364 699.812223 
L 56.816747 701.25051 
L 58.909091 704.395099 
L 58.961802 704.527382 
L 60.708287 707.804253 
L 62.181818 709.937393 
L 62.679435 711.081125 
L 64.396653 714.357996 
L 65.454545 715.651987 
L 66.409733 717.634868 
L 68.138889 720.91174 
L 68.727273 721.61232 
L 70.360398 724.188611 
L 71.77818 727.465483 
L 72 727.750875 
L 75.204133 730.742354 
L 75.272727 730.840226 
L 78.545455 733.688854 
L 78.723841 734.019226 
L 80.966188 737.296097 
L 81.818182 738.702129 
L 82.419191 740.572969 
L 84.638466 743.84984 
L 85.090909 744.528442 
L 86.024119 747.126712 
L 88.113905 750.403583 
L 88.363636 750.747645 
L 89.576947 753.680455 
L 91.542152 756.957327 
L 91.636364 757.081069 
L 93.710049 760.234198 
L 94.909091 762.796044 
L 95.991625 763.51107 
L 98.181818 764.957717 
L 100.58739 766.787941 
L 101.454545 767.827267 
L 102.222291 770.064813 
L 104.727273 773.249375 
L 104.768011 773.341684 
L 105.845973 776.618556 
L 108 779.475339 
L 108.20187 779.895427 
L 109.239214 783.172299 
L 111.272727 786.062187 
L 111.511167 786.44917 
L 112.610658 789.726042 
L 114.545455 792.74902 
L 114.880501 793.002914 
L 117.19405 796.279785 
L 117.818182 797.408153 
L 121.090909 798.621964 
L 122.013229 799.556657 
L 124.363636 801.943346 
L 124.65396 802.833528 
L 126.168001 806.1104 
L 127.636364 807.844642 
L 128.247501 809.387271 
L 129.809089 812.664143 
z
M 140.727273 810.082904 
L 141.401321 809.387271 
L 140.727273 808.739037 
L 139.922845 809.387271 
z
" clip-path="url(#p8c66cc2fb0)" style="fill: #eff6fc; fill-opacity: 0.9"/>
    <path d="M 3.272727 815.941014 
L 6.545455 815.941014 
L 9.818182 815.941014 
L 11.008148 815.941014 
L 9.818182 813.084301 
L 9.524084 812.664143 
L 7.093672 809.387271 
L 6.545455 808.388559 
L 4.977812 806.1104 
L 3.272727 803.705368 
L 2.736724 802.833528 
L 0.436388 799.556657 
L 0 798.94432 
L 0 799.556657 
L 0 802.833528 
L 0 806.1104 
L 0 809.387271 
L 0 812.664143 
L 0 815.941014 
z
M 127.636364 815.792117 
L 127.725566 815.941014 
L 130.909091 815.941014 
L 131.747695 815.941014 
L 130.909091 814.058716 
L 129.809089 812.664143 
L 128.247501 809.387271 
L 127.636364 807.844642 
L 126.168001 806.1104 
L 124.65396 802.833528 
L 124.363636 801.943346 
L 122.013229 799.556657 
L 121.090909 798.621964 
L 117.818182 797.408153 
L 117.19405 796.279785 
L 114.880501 793.002914 
L 114.545455 792.74902 
L 112.610658 789.726042 
L 111.511167 786.44917 
L 111.272727 786.062187 
L 109.239214 783.172299 
L 108.20187 779.895427 
L 108 779.475339 
L 105.845973 776.618556 
L 104.768011 773.341684 
L 104.727273 773.249375 
L 102.222291 770.064813 
L 101.454545 767.827267 
L 100.58739 766.787941 
L 98.181818 764.957717 
L 95.991625 763.51107 
L 94.909091 762.796044 
L 93.710049 760.234198 
L 91.636364 757.081069 
L 91.542152 756.957327 
L 89.576947 753.680455 
L 88.363636 750.747645 
L 88.113905 750.403583 
L 86.024119 747.126712 
L 85.090909 744.528442 
L 84.638466 743.84984 
L 82.419191 740.572969 
L 81.818182 738.702129 
L 80.966188 737.296097 
L 78.723841 734.019226 
L 78.545455 733.688854 
L 75.272727 730.840226 
L 75.204133 730.742354 
L 72 727.750875 
L 71.77818 727.465483 
L 70.360398 724.188611 
L 68.727273 721.61232 
L 68.138889 720.91174 
L 66.409733 717.634868 
L 65.454545 715.651987 
L 64.396653 714.357996 
L 62.679435 711.081125 
L 62.181818 709.937393 
L 60.708287 707.804253 
L 58.961802 704.527382 
L 58.909091 704.395099 
L 56.816747 701.25051 
L 55.636364 699.812223 
L 53.886598 697.973639 
L 52.363636 696.373372 
L 51.301247 694.696767 
L 49.090909 692.139621 
L 48.559649 691.419896 
L 46.973429 688.143024 
L 45.818182 686.226665 
L 44.691819 684.866153 
L 43.171802 681.589281 
L 42.545455 680.428658 
L 40.707099 678.312409 
L 39.272727 675.084894 
L 39.248579 675.035538 
L 37.060769 671.758666 
L 36 669.696352 
L 35.23616 668.481795 
L 32.727273 665.236792 
L 32.703625 665.204923 
L 30.169107 661.928052 
L 29.454545 661.003836 
L 28.204004 658.65118 
L 26.181818 655.504708 
L 26.078171 655.374309 
L 24.260851 652.097437 
L 22.909091 649.481169 
L 22.301242 648.820566 
L 20.340756 645.543694 
L 19.636364 643.917213 
L 18.691829 642.266823 
L 16.673496 638.989951 
L 16.363636 638.31349 
L 15.053416 635.713079 
L 13.096254 632.436208 
L 13.090909 632.426357 
L 11.072113 629.159336 
L 9.818182 627.042439 
L 9.113012 625.882465 
L 7.076053 622.605593 
L 6.545455 621.658946 
L 5.128867 619.328722 
L 3.272727 616.275453 
L 3.0666 616.05185 
L 0.877563 612.774979 
L 0 611.17294 
L 0 612.774979 
L 0 616.05185 
L 0 618.431664 
L 0.78789 619.328722 
L 3.272727 621.820025 
L 3.679107 622.605593 
L 5.961555 625.882465 
L 6.545455 626.467676 
L 8.142607 629.159336 
L 9.818182 631.816664 
L 10.194814 632.436208 
L 12.186887 635.713079 
L 13.090909 637.307386 
L 13.980647 638.989951 
L 15.548473 642.266823 
L 16.363636 643.970575 
L 17.274921 645.543694 
L 18.780665 648.820566 
L 19.636364 650.693786 
L 20.880518 652.097437 
L 22.909091 655.010953 
L 23.049175 655.374309 
L 25.287076 658.65118 
L 26.181818 659.652782 
L 27.265988 661.928052 
L 29.266079 665.204923 
L 29.454545 665.409596 
L 31.798008 668.481795 
L 32.727273 669.879878 
L 33.985938 671.758666 
L 35.756295 675.035538 
L 36 675.486628 
L 37.526652 678.312409 
L 39.272727 681.544337 
L 39.308971 681.589281 
L 41.529643 684.866153 
L 42.545455 686.811615 
L 43.461047 688.143024 
L 45.818182 690.993526 
L 45.990834 691.419896 
L 47.951845 694.696767 
L 49.090909 696.02425 
L 50.302078 697.973639 
L 52.363636 701.120633 
L 52.487239 701.25051 
L 55.207342 704.527382 
L 55.636364 705.238701 
L 57.093113 707.804253 
L 58.909091 711.002459 
L 58.958613 711.081125 
L 60.843102 714.357996 
L 62.181818 716.742937 
L 62.836158 717.634868 
L 64.994183 720.91174 
L 65.454545 721.706644 
L 67.209752 724.188611 
L 68.727273 726.334475 
L 69.115361 727.465483 
L 71.402641 730.742354 
L 72 731.540422 
L 73.638633 734.019226 
L 75.272727 736.188758 
L 76.219393 737.296097 
L 78.159023 740.572969 
L 78.545455 741.10892 
L 80.217588 743.84984 
L 81.818182 746.473494 
L 82.22536 747.126712 
L 84.232741 750.403583 
L 85.090909 751.816639 
L 86.269616 753.680455 
L 88.317737 756.957327 
L 88.363636 757.031888 
L 90.379831 760.234198 
L 91.636364 762.229943 
L 92.144645 763.51107 
L 94.506107 766.787941 
L 94.909091 767.427998 
L 96.784351 770.064813 
L 98.181818 772.378035 
L 98.841841 773.341684 
L 100.954479 776.618556 
L 101.454545 777.156298 
L 103.330629 779.895427 
L 104.727273 781.934562 
L 105.442143 783.172299 
L 107.584561 786.44917 
L 108 787.035324 
L 109.511206 789.726042 
L 111.272727 792.777075 
L 111.368517 793.002914 
L 113.263696 796.279785 
L 114.545455 798.534782 
L 115.059856 799.556657 
L 116.968335 802.833528 
L 117.818182 804.459227 
L 119.24896 806.1104 
L 121.090909 808.85678 
L 121.584496 809.387271 
L 124.363636 812.270237 
L 124.703654 812.664143 
z
" clip-path="url(#p8c66cc2fb0)" style="fill: #eaf3fb; fill-opacity: 0.9"/>
    <path d="M 9.818182 813.084301 
L 11.008148 815.941014 
L 13.090909 815.941014 
L 16.363636 815.941014 
L 19.636364 815.941014 
L 22.909091 815.941014 
L 26.181818 815.941014 
L 29.454545 815.941014 
L 32.727273 815.941014 
L 32.801444 815.941014 
L 32.727273 815.846019 
L 30.271001 812.664143 
L 29.454545 811.633454 
L 28.624765 809.387271 
L 26.985813 806.1104 
L 26.181818 804.96984 
L 25.157665 802.833528 
L 23.708083 799.556657 
L 22.909091 797.939134 
L 22.108401 796.279785 
L 20.611327 793.002914 
L 19.636364 790.908427 
L 19.038616 789.726042 
L 17.550649 786.44917 
L 16.363636 783.885033 
L 15.874576 783.172299 
L 14.208627 779.895427 
L 13.090909 777.200969 
L 12.637261 776.618556 
L 10.405732 773.341684 
L 9.818182 772.144505 
L 8.231136 770.064813 
L 6.545455 767.444503 
L 6.130927 766.787941 
L 3.636031 763.51107 
L 3.272727 762.967447 
L 2.142451 760.234198 
L 0.105787 756.957327 
L 0 756.819966 
L 0 756.957327 
L 0 760.234198 
L 0 763.51107 
L 0 766.787941 
L 0 770.064813 
L 0 773.341684 
L 0 776.618556 
L 0 779.895427 
L 0 783.172299 
L 0 786.44917 
L 0 789.726042 
L 0 793.002914 
L 0 796.279785 
L 0 798.94432 
L 0.436388 799.556657 
L 2.736724 802.833528 
L 3.272727 803.705368 
L 4.977812 806.1104 
L 6.545455 808.388559 
L 7.093672 809.387271 
L 9.524084 812.664143 
z
M 117.818182 813.196552 
L 119.22329 815.941014 
L 121.090909 815.941014 
L 124.363636 815.941014 
L 127.636364 815.941014 
L 127.725566 815.941014 
L 127.636364 815.792117 
L 124.703654 812.664143 
L 124.363636 812.270237 
L 121.584496 809.387271 
L 121.090909 808.85678 
L 119.24896 806.1104 
L 117.818182 804.459227 
L 116.968335 802.833528 
L 115.059856 799.556657 
L 114.545455 798.534782 
L 113.263696 796.279785 
L 111.368517 793.002914 
L 111.272727 792.777075 
L 109.511206 789.726042 
L 108 787.035324 
L 107.584561 786.44917 
L 105.442143 783.172299 
L 104.727273 781.934562 
L 103.330629 779.895427 
L 101.454545 777.156298 
L 100.954479 776.618556 
L 98.841841 773.341684 
L 98.181818 772.378035 
L 96.784351 770.064813 
L 94.909091 767.427998 
L 94.506107 766.787941 
L 92.144645 763.51107 
L 91.636364 762.229943 
L 90.379831 760.234198 
L 88.363636 757.031888 
L 88.317737 756.957327 
L 86.269616 753.680455 
L 85.090909 751.816639 
L 84.232741 750.403583 
L 82.22536 747.126712 
L 81.818182 746.473494 
L 80.217588 743.84984 
L 78.545455 741.10892 
L 78.159023 740.572969 
L 76.219393 737.296097 
L 75.272727 736.188758 
L 73.638633 734.019226 
L 72 731.540422 
L 71.402641 730.742354 
L 69.115361 727.465483 
L 68.727273 726.334475 
L 67.209752 724.188611 
L 65.454545 721.706644 
L 64.994183 720.91174 
L 62.836158 717.634868 
L 62.181818 716.742937 
L 60.843102 714.357996 
L 58.958613 711.081125 
L 58.909091 711.002459 
L 57.093113 707.804253 
L 55.636364 705.238701 
L 55.207342 704.527382 
L 52.487239 701.25051 
L 52.363636 701.120633 
L 50.302078 697.973639 
L 49.090909 696.02425 
L 47.951845 694.696767 
L 45.990834 691.419896 
L 45.818182 690.993526 
L 43.461047 688.143024 
L 42.545455 686.811615 
L 41.529643 684.866153 
L 39.308971 681.589281 
L 39.272727 681.544337 
L 37.526652 678.312409 
L 36 675.486628 
L 35.756295 675.035538 
L 33.985938 671.758666 
L 32.727273 669.879878 
L 31.798008 668.481795 
L 29.454545 665.409596 
L 29.266079 665.204923 
L 27.265988 661.928052 
L 26.181818 659.652782 
L 25.287076 658.65118 
L 23.049175 655.374309 
L 22.909091 655.010953 
L 20.880518 652.097437 
L 19.636364 650.693786 
L 18.780665 648.820566 
L 17.274921 645.543694 
L 16.363636 643.970575 
L 15.548473 642.266823 
L 13.980647 638.989951 
L 13.090909 637.307386 
L 12.186887 635.713079 
L 10.194814 632.436208 
L 9.818182 631.816664 
L 8.142607 629.159336 
L 6.545455 626.467676 
L 5.961555 625.882465 
L 3.679107 622.605593 
L 3.272727 621.820025 
L 0.78789 619.328722 
L 0 618.431664 
L 0 619.328722 
L 0 622.605593 
L 0 624.18083 
L 1.325027 625.882465 
L 3.102171 629.159336 
L 3.272727 629.561988 
L 6.138969 632.436208 
L 6.545455 632.843825 
L 8.723008 635.713079 
L 9.818182 636.810904 
L 10.970804 638.989951 
L 12.685144 642.266823 
L 13.090909 642.787418 
L 14.409655 645.543694 
L 15.717425 648.820566 
L 16.363636 649.62766 
L 17.545306 652.097437 
L 18.974418 655.374309 
L 19.636364 656.467902 
L 21.005374 658.65118 
L 22.541434 661.928052 
L 22.909091 662.789597 
L 25.010432 665.204923 
L 26.181818 666.673415 
L 27.73694 668.481795 
L 29.454545 670.479119 
L 30.150862 671.758666 
L 32.475821 675.035538 
L 32.727273 675.650424 
L 33.601624 678.312409 
L 36 681.34895 
L 36.129841 681.589281 
L 37.522421 684.866153 
L 39.272727 687.406659 
L 39.704963 688.143024 
L 41.306979 691.419896 
L 42.545455 693.464368 
L 43.509808 694.696767 
L 45.532091 697.973639 
L 45.818182 698.535351 
L 47.987829 701.25051 
L 49.090909 702.630937 
L 50.606332 704.527382 
L 52.363636 707.457071 
L 52.536477 707.804253 
L 54.685315 711.081125 
L 55.636364 714.193482 
L 55.682319 714.357996 
L 58.909091 717.627202 
L 58.913444 717.634868 
L 60.095866 720.91174 
L 62.181818 723.39096 
L 62.67403 724.188611 
L 64.216024 727.465483 
L 65.454545 729.154718 
L 66.622299 730.742354 
L 68.677074 734.019226 
L 68.727273 734.094743 
L 70.991219 737.296097 
L 72 738.895466 
L 72.934 740.572969 
L 74.458498 743.84984 
L 75.272727 745.600005 
L 76.331707 747.126712 
L 77.775763 750.403583 
L 78.545455 752.322122 
L 80.266876 753.680455 
L 81.818182 755.481852 
L 82.406089 756.957327 
L 85.090909 759.577416 
L 85.498879 760.234198 
L 87.100308 763.51107 
L 88.363636 764.931071 
L 89.540389 766.787941 
L 91.564724 770.064813 
L 91.636364 770.156028 
L 93.460557 773.341684 
L 94.909091 776.37158 
L 95.027779 776.618556 
L 96.593773 779.895427 
L 98.159266 783.172299 
L 98.181818 783.217137 
L 100.016409 786.44917 
L 101.293599 789.726042 
L 101.454545 790.062694 
L 104.394652 793.002914 
L 104.727273 793.598996 
L 108 796.238876 
L 108.023567 796.279785 
L 109.775125 799.556657 
L 111.272727 800.968639 
L 112.303316 802.833528 
L 114.026987 806.1104 
L 114.545455 806.804248 
L 115.867909 809.387271 
L 117.454294 812.664143 
z
" clip-path="url(#p8c66cc2fb0)" style="fill: #e5eff9; fill-opacity: 0.9"/>
    <path d="M 32.727273 815.846019 
L 32.801444 815.941014 
L 36 815.941014 
L 39.272727 815.941014 
L 42.545455 815.941014 
L 45.818182 815.941014 
L 49.090909 815.941014 
L 52.187252 815.941014 
L 50.879851 812.664143 
L 49.090909 809.486382 
L 49.012893 809.387271 
L 47.202361 806.1104 
L 45.818182 803.249708 
L 45.569402 802.833528 
L 43.759528 799.556657 
L 42.545455 797.774818 
L 41.651768 796.279785 
L 39.770248 793.002914 
L 39.272727 792.299928 
L 37.809888 789.726042 
L 36 786.795107 
L 35.843921 786.44917 
L 34.311456 783.172299 
L 32.727273 780.418882 
L 32.473422 779.895427 
L 30.884293 776.618556 
L 29.454545 773.670336 
L 29.295165 773.341684 
L 27.709038 770.064813 
L 26.181818 766.900625 
L 26.122964 766.787941 
L 24.545822 763.51107 
L 22.964215 760.234198 
L 22.909091 760.11999 
L 21.098354 756.957327 
L 19.693722 753.680455 
L 19.636364 753.557063 
L 17.416452 750.403583 
L 16.363636 748.532701 
L 15.448842 747.126712 
L 13.294437 743.84984 
L 13.090909 743.539305 
L 11.194899 740.572969 
L 9.818182 738.499336 
L 9.30363 737.296097 
L 7.477017 734.019226 
L 6.545455 732.384019 
L 5.850387 730.742354 
L 3.831163 727.465483 
L 3.272727 726.719843 
L 2.127905 724.188611 
L 0.028257 720.91174 
L 0 720.878101 
L 0 720.91174 
L 0 724.188611 
L 0 727.465483 
L 0 730.742354 
L 0 734.019226 
L 0 737.296097 
L 0 740.572969 
L 0 743.84984 
L 0 747.126712 
L 0 750.403583 
L 0 753.680455 
L 0 756.819966 
L 0.105787 756.957327 
L 2.142451 760.234198 
L 3.272727 762.967447 
L 3.636031 763.51107 
L 6.130927 766.787941 
L 6.545455 767.444503 
L 8.231136 770.064813 
L 9.818182 772.144505 
L 10.405732 773.341684 
L 12.637261 776.618556 
L 13.090909 777.200969 
L 14.208627 779.895427 
L 15.874576 783.172299 
L 16.363636 783.885033 
L 17.550649 786.44917 
L 19.038616 789.726042 
L 19.636364 790.908427 
L 20.611327 793.002914 
L 22.108401 796.279785 
L 22.909091 797.939134 
L 23.708083 799.556657 
L 25.157665 802.833528 
L 26.181818 804.96984 
L 26.985813 806.1104 
L 28.624765 809.387271 
L 29.454545 811.633454 
L 30.271001 812.664143 
z
M 108 815.941014 
L 111.272727 815.941014 
L 114.545455 815.941014 
L 117.818182 815.941014 
L 119.22329 815.941014 
L 117.818182 813.196552 
L 117.454294 812.664143 
L 115.867909 809.387271 
L 114.545455 806.804248 
L 114.026987 806.1104 
L 112.303316 802.833528 
L 111.272727 800.968639 
L 109.775125 799.556657 
L 108.023567 796.279785 
L 108 796.238876 
L 104.727273 793.598996 
L 104.394652 793.002914 
L 101.454545 790.062694 
L 101.293599 789.726042 
L 100.016409 786.44917 
L 98.181818 783.217137 
L 98.159266 783.172299 
L 96.593773 779.895427 
L 95.027779 776.618556 
L 94.909091 776.37158 
L 93.460557 773.341684 
L 91.636364 770.156028 
L 91.564724 770.064813 
L 89.540389 766.787941 
L 88.363636 764.931071 
L 87.100308 763.51107 
L 85.498879 760.234198 
L 85.090909 759.577416 
L 82.406089 756.957327 
L 81.818182 755.481852 
L 80.266876 753.680455 
L 78.545455 752.322122 
L 77.775763 750.403583 
L 76.331707 747.126712 
L 75.272727 745.600005 
L 74.458498 743.84984 
L 72.934 740.572969 
L 72 738.895466 
L 70.991219 737.296097 
L 68.727273 734.094743 
L 68.677074 734.019226 
L 66.622299 730.742354 
L 65.454545 729.154718 
L 64.216024 727.465483 
L 62.67403 724.188611 
L 62.181818 723.39096 
L 60.095866 720.91174 
L 58.913444 717.634868 
L 58.909091 717.627202 
L 55.682319 714.357996 
L 55.636364 714.193482 
L 54.685315 711.081125 
L 52.536477 707.804253 
L 52.363636 707.457071 
L 50.606332 704.527382 
L 49.090909 702.630937 
L 47.987829 701.25051 
L 45.818182 698.535351 
L 45.532091 697.973639 
L 43.509808 694.696767 
L 42.545455 693.464368 
L 41.306979 691.419896 
L 39.704963 688.143024 
L 39.272727 687.406659 
L 37.522421 684.866153 
L 36.129841 681.589281 
L 36 681.34895 
L 33.601624 678.312409 
L 32.727273 675.650424 
L 32.475821 675.035538 
L 30.150862 671.758666 
L 29.454545 670.479119 
L 27.73694 668.481795 
L 26.181818 666.673415 
L 25.010432 665.204923 
L 22.909091 662.789597 
L 22.541434 661.928052 
L 21.005374 658.65118 
L 19.636364 656.467902 
L 18.974418 655.374309 
L 17.545306 652.097437 
L 16.363636 649.62766 
L 15.717425 648.820566 
L 14.409655 645.543694 
L 13.090909 642.787418 
L 12.685144 642.266823 
L 10.970804 638.989951 
L 9.818182 636.810904 
L 8.723008 635.713079 
L 6.545455 632.843825 
L 6.138969 632.436208 
L 3.272727 629.561988 
L 3.102171 629.159336 
L 1.325027 625.882465 
L 0 624.18083 
L 0 625.882465 
L 0 629.159336 
L 0 629.736222 
L 1.081894 632.436208 
L 2.086487 635.713079 
L 3.272727 636.876104 
L 5.381711 638.989951 
L 6.545455 640.692313 
L 7.738316 642.266823 
L 9.071362 645.543694 
L 9.818182 647.475086 
L 10.397499 648.820566 
L 11.605527 652.097437 
L 12.872609 655.374309 
L 13.090909 655.938867 
L 14.899483 658.65118 
L 15.955005 661.928052 
L 16.363636 663.618133 
L 19.636364 663.928035 
L 19.80052 665.204923 
L 21.581345 668.481795 
L 22.909091 669.405591 
L 24.15795 671.758666 
L 26.181818 674.530173 
L 26.57148 675.035538 
L 28.235018 678.312409 
L 29.454545 680.937385 
L 29.74152 681.589281 
L 31.184051 684.866153 
L 32.567822 688.143024 
L 32.727273 688.371756 
L 34.069112 691.419896 
L 35.328429 694.696767 
L 36 695.806128 
L 37.542842 697.973639 
L 38.636137 701.25051 
L 39.272727 702.680798 
L 42.542975 704.527382 
L 42.545455 704.529612 
L 45.818182 706.643218 
L 46.465554 707.804253 
L 48.54721 711.081125 
L 49.090909 711.782391 
L 49.908454 714.357996 
L 51.191691 717.634868 
L 52.363636 719.027604 
L 53.094908 720.91174 
L 54.064987 724.188611 
L 55.636364 725.981356 
L 56.297584 727.465483 
L 57.069987 730.742354 
L 58.909091 733.156116 
L 59.571893 734.019226 
L 60.571835 737.296097 
L 62.181818 740.263372 
L 62.672714 740.572969 
L 65.454545 742.804347 
L 66.625725 743.84984 
L 68.373561 747.126712 
L 68.727273 747.812781 
L 70.089896 750.403583 
L 71.752432 753.680455 
L 72 754.160644 
L 73.58596 756.957327 
L 75.272727 760.188367 
L 75.28303 760.234198 
L 77.134847 763.51107 
L 78.545455 766.028109 
L 78.685527 766.787941 
L 80.807717 770.064813 
L 81.818182 771.867852 
L 82.187117 773.341684 
L 83.941715 776.618556 
L 85.090909 778.4626 
L 85.976565 779.895427 
L 88.066495 783.172299 
L 88.363636 783.714407 
L 89.521712 786.44917 
L 91.636364 789.516903 
L 91.75022 789.726042 
L 93.308895 793.002914 
L 94.909091 795.528478 
L 95.346391 796.279785 
L 97.063175 799.556657 
L 98.181818 801.493364 
L 99.003247 802.833528 
L 100.936302 806.1104 
L 101.454545 807.046663 
L 102.860146 809.387271 
L 104.727273 812.56204 
L 104.787743 812.664143 
L 106.579033 815.941014 
z
" clip-path="url(#p8c66cc2fb0)" style="fill: #dfecf7; fill-opacity: 0.9"/>
    <path d="M 52.363636 815.941014 
L 55.636364 815.941014 
L 58.909091 815.941014 
L 62.181818 815.941014 
L 65.454545 815.941014 
L 68.727273 815.941014 
L 72 815.941014 
L 75.272727 815.941014 
L 78.545455 815.941014 
L 81.818182 815.941014 
L 85.090909 815.941014 
L 88.363636 815.941014 
L 91.636364 815.941014 
L 94.909091 815.941014 
L 98.181818 815.941014 
L 101.454545 815.941014 
L 104.727273 815.941014 
L 106.579033 815.941014 
L 104.787743 812.664143 
L 104.727273 812.56204 
L 102.860146 809.387271 
L 101.454545 807.046663 
L 100.936302 806.1104 
L 99.003247 802.833528 
L 98.181818 801.493364 
L 97.063175 799.556657 
L 95.346391 796.279785 
L 94.909091 795.528478 
L 93.308895 793.002914 
L 91.75022 789.726042 
L 91.636364 789.516903 
L 89.521712 786.44917 
L 88.363636 783.714407 
L 88.066495 783.172299 
L 85.976565 779.895427 
L 85.090909 778.4626 
L 83.941715 776.618556 
L 82.187117 773.341684 
L 81.818182 771.867852 
L 80.807717 770.064813 
L 78.685527 766.787941 
L 78.545455 766.028109 
L 77.134847 763.51107 
L 75.28303 760.234198 
L 75.272727 760.188367 
L 73.58596 756.957327 
L 72 754.160644 
L 71.752432 753.680455 
L 70.089896 750.403583 
L 68.727273 747.812781 
L 68.373561 747.126712 
L 66.625725 743.84984 
L 65.454545 742.804347 
L 62.672714 740.572969 
L 62.181818 740.263372 
L 60.571835 737.296097 
L 59.571893 734.019226 
L 58.909091 733.156116 
L 57.069987 730.742354 
L 56.297584 727.465483 
L 55.636364 725.981356 
L 54.064987 724.188611 
L 53.094908 720.91174 
L 52.363636 719.027604 
L 51.191691 717.634868 
L 49.908454 714.357996 
L 49.090909 711.782391 
L 48.54721 711.081125 
L 46.465554 707.804253 
L 45.818182 706.643218 
L 42.545455 704.529612 
L 42.542975 704.527382 
L 39.272727 702.680798 
L 38.636137 701.25051 
L 37.542842 697.973639 
L 36 695.806128 
L 35.328429 694.696767 
L 34.069112 691.419896 
L 32.727273 688.371756 
L 32.567822 688.143024 
L 31.184051 684.866153 
L 29.74152 681.589281 
L 29.454545 680.937385 
L 28.235018 678.312409 
L 26.57148 675.035538 
L 26.181818 674.530173 
L 24.15795 671.758666 
L 22.909091 669.405591 
L 21.581345 668.481795 
L 19.80052 665.204923 
L 19.636364 663.928035 
L 16.363636 663.618133 
L 15.955005 661.928052 
L 14.899483 658.65118 
L 13.090909 655.938867 
L 12.872609 655.374309 
L 11.605527 652.097437 
L 10.397499 648.820566 
L 9.818182 647.475086 
L 9.071362 645.543694 
L 7.738316 642.266823 
L 6.545455 640.692313 
L 5.381711 638.989951 
L 3.272727 636.876104 
L 2.086487 635.713079 
L 1.081894 632.436208 
L 0 629.736222 
L 0 632.436208 
L 0 635.713079 
L 0 638.989951 
L 0 642.266823 
L 0 645.543694 
L 0 648.820566 
L 0 652.097437 
L 0 655.374309 
L 0 658.65118 
L 0 661.928052 
L 0 665.204923 
L 0 668.481795 
L 0 671.758666 
L 0 675.035538 
L 0 678.312409 
L 0 681.589281 
L 0 684.866153 
L 0 688.143024 
L 0 691.419896 
L 0 694.696767 
L 0 697.973639 
L 0 701.25051 
L 0 704.527382 
L 0 707.804253 
L 0 711.081125 
L 0 714.357996 
L 0 717.634868 
L 0 720.878101 
L 0.028257 720.91174 
L 2.127905 724.188611 
L 3.272727 726.719843 
L 3.831163 727.465483 
L 5.850387 730.742354 
L 6.545455 732.384019 
L 7.477017 734.019226 
L 9.30363 737.296097 
L 9.818182 738.499336 
L 11.194899 740.572969 
L 13.090909 743.539305 
L 13.294437 743.84984 
L 15.448842 747.126712 
L 16.363636 748.532701 
L 17.416452 750.403583 
L 19.636364 753.557063 
L 19.693722 753.680455 
L 21.098354 756.957327 
L 22.909091 760.11999 
L 22.964215 760.234198 
L 24.545822 763.51107 
L 26.122964 766.787941 
L 26.181818 766.900625 
L 27.709038 770.064813 
L 29.295165 773.341684 
L 29.454545 773.670336 
L 30.884293 776.618556 
L 32.473422 779.895427 
L 32.727273 780.418882 
L 34.311456 783.172299 
L 35.843921 786.44917 
L 36 786.795107 
L 37.809888 789.726042 
L 39.272727 792.299928 
L 39.770248 793.002914 
L 41.651768 796.279785 
L 42.545455 797.774818 
L 43.759528 799.556657 
L 45.569402 802.833528 
L 45.818182 803.249708 
L 47.202361 806.1104 
L 49.012893 809.387271 
L 49.090909 809.486382 
L 50.879851 812.664143 
L 52.187252 815.941014 
z
" clip-path="url(#p8c66cc2fb0)" style="fill: #dae8f6; fill-opacity: 0.9"/>
    <path clip-path="url(#p8c66cc2fb0)" style="fill: #d6e5f4; fill-opacity: 0.9"/>
    <path clip-path="url(#p8c66cc2fb0)" style="fill: #d0e2f2; fill-opacity: 0.9"/>
    <path clip-path="url(#p8c66cc2fb0)" style="fill: #cbdef1; fill-opacity: 0.9"/>
    <path clip-path="url(#p8c66cc2fb0)" style="fill: #c6dbef; fill-opacity: 0.9"/>
    <path clip-path="url(#p8c66cc2fb0)" style="fill: #bed8ec; fill-opacity: 0.9"/>
    <path clip-path="url(#p8c66cc2fb0)" style="fill: #b5d4e9; fill-opacity: 0.9"/>
    <path clip-path="url(#p8c66cc2fb0)" style="fill: #add0e6; fill-opacity: 0.9"/>
    <path clip-path="url(#p8c66cc2fb0)" style="fill: #a5cde3; fill-opacity: 0.9"/>
    <path clip-path="url(#p8c66cc2fb0)" style="fill: #9cc9e1; fill-opacity: 0.9"/>
    <path clip-path="url(#p8c66cc2fb0)" style="fill: #91c3de; fill-opacity: 0.9"/>
    <path clip-path="url(#p8c66cc2fb0)" style="fill: #85bcdc; fill-opacity: 0.9"/>
    <path clip-path="url(#p8c66cc2fb0)" style="fill: #7cb7da; fill-opacity: 0.9"/>
    <path clip-path="url(#p8c66cc2fb0)" style="fill: #71b1d7; fill-opacity: 0.9"/>
    <path clip-path="url(#p8c66cc2fb0)" style="fill: #66abd4; fill-opacity: 0.9"/>
    <path clip-path="url(#p8c66cc2fb0)" style="fill: #5da5d1; fill-opacity: 0.9"/>
    <path clip-path="url(#p8c66cc2fb0)" style="fill: #56a0ce; fill-opacity: 0.9"/>
    <path clip-path="url(#p8c66cc2fb0)" style="fill: #4d99ca; fill-opacity: 0.9"/>
    <path clip-path="url(#p8c66cc2fb0)" style="fill: #4493c7; fill-opacity: 0.9"/>
    <path clip-path="url(#p8c66cc2fb0)" style="fill: #3c8cc3; fill-opacity: 0.9"/>
    <path clip-path="url(#p8c66cc2fb0)" style="fill: #3686c0; fill-opacity: 0.9"/>
    <path clip-path="url(#p8c66cc2fb0)" style="fill: #2f7fbc; fill-opacity: 0.9"/>
    <path clip-path="url(#p8c66cc2fb0)" style="fill: #2777b8; fill-opacity: 0.9"/>
    <path clip-path="url(#p8c66cc2fb0)" style="fill: #2070b4; fill-opacity: 0.9"/>
    <path clip-path="url(#p8c66cc2fb0)" style="fill: #1c6ab0; fill-opacity: 0.9"/>
    <path clip-path="url(#p8c66cc2fb0)" style="fill: #1663aa; fill-opacity: 0.9"/>
    <path clip-path="url(#p8c66cc2fb0)" style="fill: #115ca5; fill-opacity: 0.9"/>
    <path clip-path="url(#p8c66cc2fb0)" style="fill: #0c56a0; fill-opacity: 0.9"/>
    <path clip-path="url(#p8c66cc2fb0)" style="fill: #084f99; fill-opacity: 0.9"/>
    <path clip-path="url(#p8c66cc2fb0)" style="fill: #08488e; fill-opacity: 0.9"/>
    <path clip-path="url(#p8c66cc2fb0)" style="fill: #084184; fill-opacity: 0.9"/>
    <path clip-path="url(#p8c66cc2fb0)" style="fill: #083a7a; fill-opacity: 0.9"/>
    <path clip-path="url(#p8c66cc2fb0)" style="fill: #083370; fill-opacity: 0.9"/>
    <path clip-path="url(#p8c66cc2fb0)" style="fill: #08306b; fill-opacity: 0.9"/>
   </g>
   <g id="QuadContourSet_2">
    <path d="M 137.724329 815.941014 
L 137.454545 815.448702 
L 134.181818 813.376163 
L 133.866183 812.664143 
L 132.437826 809.387271 
L 130.909091 807.367906 
L 130.279499 806.1104 
L 128.638876 802.833528 
L 127.636364 800.831175 
L 126.998254 799.556657 
L 125.264763 796.279785 
L 124.363636 794.862992 
L 123.118573 793.002914 
L 121.090909 789.936822 
L 120.809348 789.726042 
L 118.498598 786.44917 
L 117.818182 785.358381 
L 114.711248 783.172299 
L 114.545455 782.925243 
L 112.124414 779.895427 
L 111.272727 779.328323 
L 109.981328 776.618556 
L 108.448518 773.341684 
L 108 772.669982 
L 106.724956 770.064813 
L 105.121161 766.787941 
L 104.727273 765.983149 
L 103.409003 763.51107 
L 101.454545 760.534116 
L 101.179927 760.234198 
L 99.105528 756.957327 
L 98.181818 755.550817 
L 96.223041 753.680455 
L 94.909091 750.952064 
L 94.078702 750.403583 
L 91.636364 748.790392 
L 90.908445 747.126712 
L 88.484472 743.84984 
L 88.363636 743.739536 
L 86.749795 740.572969 
L 85.090909 737.318017 
L 85.079529 737.296097 
L 83.40968 734.019226 
L 81.818182 731.115213 
L 81.573266 730.742354 
L 79.415164 727.465483 
L 78.545455 726.159127 
L 76.956189 724.188611 
L 75.272727 721.360899 
L 74.77609 720.91174 
L 72.055909 717.634868 
L 72 717.53374 
L 68.727273 714.574386 
L 68.615286 714.357996 
L 67.145811 711.081125 
L 65.454545 708.568691 
L 65.048746 707.804253 
L 63.309231 704.527382 
L 62.181818 702.403578 
L 61.569716 701.25051 
L 59.671406 697.973639 
L 58.909091 696.81455 
L 57.477321 694.696767 
L 55.636364 691.857829 
L 55.212565 691.419896 
L 52.937511 688.143024 
L 52.363636 687.218185 
L 50.096562 684.866153 
L 49.090909 683.439997 
L 47.884196 681.589281 
L 45.818182 679.266443 
L 45.290139 678.312409 
L 44.517614 676.832334 
M 34.931373 660.27598 
L 33.907588 658.65118 
L 32.727273 656.637586 
L 31.695999 655.374309 
L 29.608378 652.097437 
L 29.454545 651.813021 
L 27.098882 648.820566 
L 26.181818 647.555668 
L 25.173941 645.543694 
L 23.222025 642.266823 
L 22.909091 641.80434 
L 21.393854 638.989951 
L 19.636364 635.725601 
L 19.629397 635.713079 
L 17.8083 632.436208 
L 16.363636 629.99574 
L 15.858885 629.159336 
L 13.928734 625.882465 
L 13.090909 624.467128 
L 11.949951 622.605593 
L 10.01267 619.328722 
L 9.818182 618.997441 
L 8.020806 616.05185 
L 6.545455 613.589625 
L 6.051888 612.774979 
L 4.066544 609.498107 
L 3.272727 608.187889 
L 2.081199 606.221236 
L 0.095855 602.944364 
L 0 602.786152 
M 140.727273 810.823071 
L 142.118522 809.387271 
L 140.727273 808.049303 
L 139.066918 809.387271 
L 140.727273 810.823071 
z
" clip-path="url(#p8c66cc2fb0)" style="fill: none"/>
    <path d="M 133.530972 815.941014 
L 132.075731 812.664143 
L 130.909091 810.574656 
L 130.189875 809.387271 
L 128.673984 806.1104 
L 127.636364 804.037925 
L 126.822063 802.833528 
L 125.392739 799.556657 
L 124.363636 797.650121 
L 123.002438 796.279785 
L 121.36007 793.002914 
L 121.090909 792.595908 
L 117.818182 790.773603 
L 115.801499 789.726042 
L 114.545455 789.157891 
L 113.576921 786.44917 
L 111.68312 783.172299 
L 111.272727 782.709501 
L 109.871404 779.895427 
L 108.299007 776.618556 
L 108 776.022668 
L 106.563907 773.341684 
L 105.084056 770.064813 
L 104.727273 769.335834 
L 103.218595 766.787941 
L 101.621139 763.51107 
L 101.454545 763.257321 
L 98.686441 760.234198 
L 98.181818 759.267329 
L 95.001579 756.957327 
L 94.909091 756.874054 
L 91.75611 753.680455 
L 91.636364 753.590739 
L 90.201805 750.403583 
L 88.363636 747.188302 
L 88.322589 747.126712 
L 86.662189 743.84984 
L 85.090909 740.766783 
L 84.948753 740.572969 
L 83.288993 737.296097 
L 81.818182 734.357432 
L 81.550917 734.019226 
L 79.466573 730.742354 
L 78.545455 729.281282 
L 76.566925 727.465483 
L 75.272727 725.604474 
L 73.646072 724.188611 
L 72 722.755847 
L 71.002401 720.91174 
L 68.727273 718.159783 
L 68.419365 717.634868 
L 66.744832 714.357996 
L 65.454545 711.99467 
L 64.870336 711.081125 
L 63.230078 707.804253 
L 62.181818 705.829557 
L 61.294998 704.527382 
L 59.751049 701.25051 
L 58.909091 699.833123 
L 57.279908 697.973639 
L 55.636364 695.064961 
L 55.285957 694.696767 
L 52.363636 691.62611 
L 52.193713 691.419896 
L 49.090909 688.181072 
L 49.071361 688.143024 
L 47.341353 684.866153 
L 45.818182 682.746554 
L 45.15777 681.589281 
L 43.363953 678.312409 
L 42.545455 676.833598 
L 41.425502 675.035538 
L 39.736561 671.758666 
L 39.272727 670.920642 
L 37.729706 668.481795 
L 36 665.246609 
L 35.966978 665.204923 
L 33.440882 661.928052 
L 32.727273 660.629186 
L 31.197969 658.65118 
L 29.454545 656.39623 
L 28.843333 655.374309 
L 26.515413 652.097437 
L 26.181818 651.680052 
L 24.666264 648.820566 
L 22.909091 645.615154 
L 22.861816 645.543694 
L 21.106385 642.266823 
L 19.636364 639.536415 
L 19.264778 638.989951 
L 17.509223 635.713079 
L 16.623239 634.113388 
M 6.705503 617.618066 
L 6.545455 617.349396 
L 5.693248 616.05185 
L 3.806634 612.774979 
L 3.272727 611.89375 
L 1.710782 609.498107 
L 0 606.527763 
M 140.727273 810.082904 
L 141.401321 809.387271 
L 140.727273 808.739037 
L 139.922845 809.387271 
L 140.727273 810.082904 
z
" clip-path="url(#p8c66cc2fb0)" style="fill: none"/>
    <path d="M 131.747695 815.941014 
L 130.909091 814.058716 
L 129.809089 812.664143 
L 128.247501 809.387271 
L 127.636364 807.844642 
L 126.168001 806.1104 
L 124.65396 802.833528 
L 124.363636 801.943346 
L 122.013229 799.556657 
L 121.090909 798.621964 
L 117.818182 797.408153 
L 117.19405 796.279785 
L 114.880501 793.002914 
L 114.545455 792.74902 
L 112.610658 789.726042 
L 111.511167 786.44917 
L 111.272727 786.062187 
L 109.239214 783.172299 
L 108.20187 779.895427 
L 108 779.475339 
L 105.845973 776.618556 
L 104.768011 773.341684 
L 104.727273 773.249375 
L 102.222291 770.064813 
L 101.454545 767.827267 
L 100.58739 766.787941 
L 98.181818 764.957717 
L 95.991625 763.51107 
L 94.909091 762.796044 
L 93.710049 760.234198 
L 91.636364 757.081069 
L 91.542152 756.957327 
L 89.576947 753.680455 
L 88.363636 750.747645 
L 88.113905 750.403583 
L 86.024119 747.126712 
L 85.090909 744.528442 
L 84.638466 743.84984 
L 82.419191 740.572969 
L 81.818182 738.702129 
L 80.966188 737.296097 
L 78.723841 734.019226 
L 78.545455 733.688854 
L 75.272727 730.840226 
L 75.204133 730.742354 
L 72 727.750875 
L 71.77818 727.465483 
L 70.360398 724.188611 
L 68.727273 721.61232 
L 68.138889 720.91174 
L 66.409733 717.634868 
L 65.454545 715.651987 
L 64.396653 714.357996 
L 62.679435 711.081125 
L 62.181818 709.937393 
L 60.708287 707.804253 
L 58.961802 704.527382 
L 58.909091 704.395099 
L 56.816747 701.25051 
L 55.636364 699.812223 
L 53.886598 697.973639 
L 52.363636 696.373372 
L 51.301247 694.696767 
L 49.090909 692.139621 
L 48.559649 691.419896 
L 46.973429 688.143024 
L 45.818182 686.226665 
L 44.691819 684.866153 
L 43.171802 681.589281 
L 42.545455 680.428658 
L 40.707099 678.312409 
L 39.272727 675.084894 
L 39.248579 675.035538 
L 37.060769 671.758666 
L 36 669.696352 
L 35.23616 668.481795 
L 32.727273 665.236792 
L 32.703625 665.204923 
L 30.169107 661.928052 
L 29.454545 661.003836 
L 28.204004 658.65118 
L 27.192965 657.078029 
M 17.572143 640.448953 
L 16.673496 638.989951 
L 16.363636 638.31349 
L 15.053416 635.713079 
L 13.096254 632.436208 
L 13.090909 632.426357 
L 11.072113 629.159336 
L 9.818182 627.042439 
L 9.113012 625.882465 
L 7.076053 622.605593 
L 6.545455 621.658946 
L 5.128867 619.328722 
L 3.272727 616.275453 
L 3.0666 616.05185 
L 0.877563 612.774979 
L 0 611.17294 
" clip-path="url(#p8c66cc2fb0)" style="fill: none"/>
    <path d="M 127.725566 815.941014 
L 127.636364 815.792117 
L 124.703654 812.664143 
L 124.363636 812.270237 
L 121.584496 809.387271 
L 121.090909 808.85678 
L 119.24896 806.1104 
L 117.818182 804.459227 
L 116.968335 802.833528 
L 115.059856 799.556657 
L 114.545455 798.534782 
L 113.263696 796.279785 
L 111.368517 793.002914 
L 111.272727 792.777075 
L 109.511206 789.726042 
L 108 787.035324 
L 107.584561 786.44917 
L 105.442143 783.172299 
L 104.727273 781.934562 
L 103.330629 779.895427 
L 101.454545 777.156298 
L 100.954479 776.618556 
L 98.841841 773.341684 
L 98.181818 772.378035 
L 96.784351 770.064813 
L 94.909091 767.427998 
L 94.506107 766.787941 
L 92.144645 763.51107 
L 91.636364 762.229943 
L 90.379831 760.234198 
L 88.363636 757.031888 
L 88.317737 756.957327 
L 87.289456 755.312138 
M 77.185546 738.928347 
L 76.219393 737.296097 
L 75.272727 736.188758 
L 73.638633 734.019226 
L 72 731.540422 
L 71.402641 730.742354 
L 69.115361 727.465483 
L 68.727273 726.334475 
L 67.209752 724.188611 
L 65.454545 721.706644 
L 64.994183 720.91174 
L 62.836158 717.634868 
L 62.181818 716.742937 
L 60.843102 714.357996 
L 58.958613 711.081125 
L 58.909091 711.002459 
L 57.093113 707.804253 
L 55.636364 705.238701 
L 55.207342 704.527382 
L 52.487239 701.25051 
L 52.363636 701.120633 
L 50.302078 697.973639 
L 49.090909 696.02425 
L 47.951845 694.696767 
L 45.990834 691.419896 
L 45.818182 690.993526 
L 43.461047 688.143024 
L 42.545455 686.811615 
L 41.529643 684.866153 
L 39.308971 681.589281 
L 39.272727 681.544337 
L 37.526652 678.312409 
L 36 675.486628 
L 35.756295 675.035538 
L 33.985938 671.758666 
L 32.727273 669.879878 
L 31.798008 668.481795 
L 29.454545 665.409596 
L 29.266079 665.204923 
L 27.265988 661.928052 
L 26.181818 659.652782 
L 25.287076 658.65118 
L 23.049175 655.374309 
L 22.909091 655.010953 
L 20.880518 652.097437 
L 19.636364 650.693786 
L 18.780665 648.820566 
L 17.274921 645.543694 
L 16.363636 643.970575 
L 15.548473 642.266823 
L 13.980647 638.989951 
L 13.090909 637.307386 
L 12.186887 635.713079 
L 10.194814 632.436208 
L 9.818182 631.816664 
L 8.142607 629.159336 
L 6.545455 626.467676 
L 5.961555 625.882465 
L 3.679107 622.605593 
L 3.272727 621.820025 
L 0.78789 619.328722 
L 0 618.431664 
M 0 798.94432 
L 0.436388 799.556657 
L 1.078754 800.471719 
" clip-path="url(#p8c66cc2fb0)" style="fill: none"/>
    <path d="M 119.22329 815.941014 
L 117.818182 813.196552 
L 117.454294 812.664143 
L 115.867909 809.387271 
L 114.545455 806.804248 
L 114.026987 806.1104 
L 112.303316 802.833528 
L 111.272727 800.968639 
L 109.775125 799.556657 
L 108.023567 796.279785 
L 108 796.238876 
L 104.727273 793.598996 
L 104.394652 793.002914 
L 101.454545 790.062694 
L 101.293599 789.726042 
L 100.016409 786.44917 
L 98.181818 783.217137 
L 98.159266 783.172299 
L 96.593773 779.895427 
L 95.027779 776.618556 
L 94.909091 776.37158 
L 93.460557 773.341684 
L 91.636364 770.156028 
L 91.564724 770.064813 
L 89.540389 766.787941 
L 88.363636 764.931071 
L 87.100308 763.51107 
L 85.498879 760.234198 
L 85.090909 759.577416 
L 82.406089 756.957327 
L 81.818182 755.481852 
L 80.266876 753.680455 
L 78.545455 752.322122 
L 77.775763 750.403583 
L 76.331707 747.126712 
L 75.272727 745.600005 
L 74.458498 743.84984 
L 72.934 740.572969 
L 72 738.895466 
L 70.991219 737.296097 
L 68.727273 734.094743 
L 68.677074 734.019226 
L 66.622299 730.742354 
L 65.454545 729.154718 
L 64.216024 727.465483 
L 62.67403 724.188611 
L 62.181818 723.39096 
L 60.095866 720.91174 
L 58.913444 717.634868 
L 58.909091 717.627202 
L 55.682319 714.357996 
L 55.636364 714.193482 
L 54.685315 711.081125 
L 52.536477 707.804253 
L 52.363636 707.457071 
L 50.606332 704.527382 
L 49.090909 702.630937 
L 47.987829 701.25051 
L 45.818182 698.535351 
L 45.532091 697.973639 
L 43.509808 694.696767 
L 42.545455 693.464368 
L 42.33391 693.11515 
M 33.019177 676.539135 
L 32.727273 675.650424 
L 32.475821 675.035538 
L 30.150862 671.758666 
L 29.454545 670.479119 
L 27.73694 668.481795 
L 26.181818 666.673415 
L 25.010432 665.204923 
L 22.909091 662.789597 
L 22.541434 661.928052 
L 21.005374 658.65118 
L 19.636364 656.467902 
L 18.974418 655.374309 
L 17.545306 652.097437 
L 16.363636 649.62766 
L 15.717425 648.820566 
L 14.409655 645.543694 
L 13.090909 642.787418 
L 12.685144 642.266823 
L 10.970804 638.989951 
L 9.818182 636.810904 
L 8.723008 635.713079 
L 6.545455 632.843825 
L 6.138969 632.436208 
L 3.272727 629.561988 
L 3.102171 629.159336 
L 1.325027 625.882465 
L 0 624.18083 
M 0 756.819966 
L 0.105787 756.957327 
L 2.142451 760.234198 
L 3.272727 762.967447 
L 3.636031 763.51107 
L 6.130927 766.787941 
L 6.545455 767.444503 
L 8.231136 770.064813 
L 9.818182 772.144505 
L 10.405732 773.341684 
L 12.637261 776.618556 
L 13.090909 777.200969 
L 13.363236 777.857462 
M 21.583412 795.130663 
L 22.108401 796.279785 
L 22.909091 797.939134 
L 23.708083 799.556657 
L 25.157665 802.833528 
L 26.181818 804.96984 
L 26.985813 806.1104 
L 28.624765 809.387271 
L 29.454545 811.633454 
L 30.271001 812.664143 
L 32.727273 815.846019 
L 32.801444 815.941014 
" clip-path="url(#p8c66cc2fb0)" style="fill: none"/>
    <path d="M 106.579033 815.941014 
L 105.731053 814.389774 
M 96.155505 797.824162 
L 95.346391 796.279785 
L 94.909091 795.528478 
L 93.308895 793.002914 
L 91.75022 789.726042 
L 91.636364 789.516903 
L 89.521712 786.44917 
L 88.363636 783.714407 
L 88.066495 783.172299 
L 85.976565 779.895427 
L 85.090909 778.4626 
L 83.941715 776.618556 
L 82.187117 773.341684 
L 81.818182 771.867852 
L 80.807717 770.064813 
L 78.685527 766.787941 
L 78.545455 766.028109 
L 77.134847 763.51107 
L 75.28303 760.234198 
L 75.272727 760.188367 
L 73.58596 756.957327 
L 72 754.160644 
L 71.752432 753.680455 
L 70.089896 750.403583 
L 68.727273 747.812781 
L 68.373561 747.126712 
L 66.625725 743.84984 
L 65.454545 742.804347 
L 62.672714 740.572969 
L 62.181818 740.263372 
L 60.571835 737.296097 
L 59.571893 734.019226 
L 58.909091 733.156116 
L 57.069987 730.742354 
L 56.297584 727.465483 
L 55.636364 725.981356 
L 54.064987 724.188611 
L 53.094908 720.91174 
L 52.363636 719.027604 
L 51.191691 717.634868 
L 49.908454 714.357996 
L 49.090909 711.782391 
L 48.54721 711.081125 
L 46.465554 707.804253 
L 45.818182 706.643218 
L 42.545455 704.529612 
L 42.542975 704.527382 
L 39.272727 702.680798 
L 38.636137 701.25051 
L 37.542842 697.973639 
L 36 695.806128 
L 35.328429 694.696767 
L 34.069112 691.419896 
L 32.727273 688.371756 
L 32.567822 688.143024 
L 31.184051 684.866153 
L 29.74152 681.589281 
L 29.454545 680.937385 
L 28.235018 678.312409 
L 26.57148 675.035538 
L 26.181818 674.530173 
L 24.15795 671.758666 
L 22.909091 669.405591 
L 21.581345 668.481795 
L 19.80052 665.204923 
L 19.636364 663.928035 
L 16.363636 663.618133 
L 15.955005 661.928052 
L 14.899483 658.65118 
L 13.090909 655.938867 
L 12.872609 655.374309 
L 11.605527 652.097437 
L 10.397499 648.820566 
L 9.818182 647.475086 
L 9.071362 645.543694 
L 7.738316 642.266823 
L 6.545455 640.692313 
L 5.381711 638.989951 
L 3.272727 636.876104 
L 2.086487 635.713079 
L 1.081894 632.436208 
L 0 629.736222 
M 0 720.878101 
L 0.028257 720.91174 
L 2.127905 724.188611 
L 3.272727 726.719843 
L 3.831163 727.465483 
L 5.850387 730.742354 
L 6.545455 732.384019 
L 7.477017 734.019226 
L 9.30363 737.296097 
L 9.818182 738.499336 
L 11.194899 740.572969 
L 13.090909 743.539305 
L 13.294437 743.84984 
L 15.448842 747.126712 
L 16.363636 748.532701 
L 17.416452 750.403583 
L 19.636364 753.557063 
L 19.693722 753.680455 
L 21.098354 756.957327 
L 22.909091 760.11999 
L 22.964215 760.234198 
L 24.545822 763.51107 
L 25.12921 764.72319 
M 33.578256 781.897948 
L 34.311456 783.172299 
L 35.843921 786.44917 
L 36 786.795107 
L 37.809888 789.726042 
L 39.272727 792.299928 
L 39.770248 793.002914 
L 41.651768 796.279785 
L 42.545455 797.774818 
L 43.759528 799.556657 
L 45.569402 802.833528 
L 45.818182 803.249708 
L 47.202361 806.1104 
L 49.012893 809.387271 
L 49.090909 809.486382 
L 50.879851 812.664143 
L 52.187252 815.941014 
" clip-path="url(#p8c66cc2fb0)" style="fill: none"/>
    <path clip-path="url(#p8c66cc2fb0)" style="fill: none"/>
    <path clip-path="url(#p8c66cc2fb0)" style="fill: none"/>
    <path clip-path="url(#p8c66cc2fb0)" style="fill: none"/>
    <path clip-path="url(#p8c66cc2fb0)" style="fill: none"/>
    <path clip-path="url(#p8c66cc2fb0)" style="fill: none"/>
    <path clip-path="url(#p8c66cc2fb0)" style="fill: none"/>
    <path clip-path="url(#p8c66cc2fb0)" style="fill: none"/>
    <path clip-path="url(#p8c66cc2fb0)" style="fill: none"/>
    <path clip-path="url(#p8c66cc2fb0)" style="fill: none"/>
    <path clip-path="url(#p8c66cc2fb0)" style="fill: none"/>
    <path clip-path="url(#p8c66cc2fb0)" style="fill: none"/>
    <path clip-path="url(#p8c66cc2fb0)" style="fill: none"/>
    <path clip-path="url(#p8c66cc2fb0)" style="fill: none"/>
    <path clip-path="url(#p8c66cc2fb0)" style="fill: none"/>
    <path clip-path="url(#p8c66cc2fb0)" style="fill: none"/>
    <path clip-path="url(#p8c66cc2fb0)" style="fill: none"/>
    <path clip-path="url(#p8c66cc2fb0)" style="fill: none"/>
    <path clip-path="url(#p8c66cc2fb0)" style="fill: none"/>
    <path clip-path="url(#p8c66cc2fb0)" style="fill: none"/>
    <path clip-path="url(#p8c66cc2fb0)" style="fill: none"/>
    <path clip-path="url(#p8c66cc2fb0)" style="fill: none"/>
    <path clip-path="url(#p8c66cc2fb0)" style="fill: none"/>
    <path clip-path="url(#p8c66cc2fb0)" style="fill: none"/>
    <path clip-path="url(#p8c66cc2fb0)" style="fill: none"/>
    <path clip-path="url(#p8c66cc2fb0)" style="fill: none"/>
    <path clip-path="url(#p8c66cc2fb0)" style="fill: none"/>
    <path clip-path="url(#p8c66cc2fb0)" style="fill: none"/>
    <path clip-path="url(#p8c66cc2fb0)" style="fill: none"/>
    <path clip-path="url(#p8c66cc2fb0)" style="fill: none"/>
    <path clip-path="url(#p8c66cc2fb0)" style="fill: none"/>
    <path clip-path="url(#p8c66cc2fb0)" style="fill: none"/>
    <path clip-path="url(#p8c66cc2fb0)" style="fill: none"/>
    <path clip-path="url(#p8c66cc2fb0)" style="fill: none"/>
   </g>
   <g id="text_1">
    <g clip-path="url(#p8c66cc2fb0)">
     <!-- 0 -->
     <g style="opacity: 0" transform="translate(35.079441 666.811913) rotate(-299.766456) scale(0.12 -0.12)">
      <defs>
       <path id="DejaVuSans-30" d="M 2034 4250 
Q 1547 4250 1301 3770 
Q 1056 3291 1056 2328 
Q 1056 1369 1301 889 
Q 1547 409 2034 409 
Q 2525 409 2770 889 
Q 3016 1369 3016 2328 
Q 3016 3291 2770 3770 
Q 2525 4250 2034 4250 
z
M 2034 4750 
Q 2819 4750 3233 4129 
Q 3647 3509 3647 2328 
Q 3647 1150 3233 529 
Q 2819 -91 2034 -91 
Q 1250 -91 836 529 
Q 422 1150 422 2328 
Q 422 3509 836 4129 
Q 1250 4750 2034 4750 
z
" transform="scale(0.015625)"/>
      </defs>
      <use xlink:href="#DejaVuSans-30"/>
     </g>
    </g>
   </g>
   <g id="text_2">
    <g clip-path="url(#p8c66cc2fb0)">
     <!-- 1 -->
     <g style="opacity: 0" transform="translate(6.829819 624.332385) rotate(-301.199481) scale(0.12 -0.12)">
      <defs>
       <path id="DejaVuSans-31" d="M 794 531 
L 1825 531 
L 1825 4091 
L 703 3866 
L 703 4441 
L 1819 4666 
L 2450 4666 
L 2450 531 
L 3481 531 
L 3481 0 
L 794 0 
L 794 531 
z
" transform="scale(0.015625)"/>
      </defs>
      <use xlink:href="#DejaVuSans-31"/>
     </g>
    </g>
   </g>
   <g id="text_3">
    <g clip-path="url(#p8c66cc2fb0)">
     <!-- 2 -->
     <g style="opacity: 0" transform="translate(17.525603 647.168005) rotate(-299.974401) scale(0.12 -0.12)">
      <defs>
       <path id="DejaVuSans-32" d="M 1228 531 
L 3431 531 
L 3431 0 
L 469 0 
L 469 531 
Q 828 903 1448 1529 
Q 2069 2156 2228 2338 
Q 2531 2678 2651 2914 
Q 2772 3150 2772 3378 
Q 2772 3750 2511 3984 
Q 2250 4219 1831 4219 
Q 1534 4219 1204 4116 
Q 875 4013 500 3803 
L 500 4441 
Q 881 4594 1212 4672 
Q 1544 4750 1819 4750 
Q 2544 4750 2975 4387 
Q 3406 4025 3406 3419 
Q 3406 3131 3298 2873 
Q 3191 2616 2906 2266 
Q 2828 2175 2409 1742 
Q 1991 1309 1228 531 
z
" transform="scale(0.015625)"/>
      </defs>
      <use xlink:href="#DejaVuSans-32"/>
     </g>
    </g>
   </g>
   <g id="text_4">
    <g clip-path="url(#p8c66cc2fb0)">
     <!-- 3 -->
     <g style="opacity: 0" transform="translate(77.404186 745.612131) rotate(-301.621845) scale(0.12 -0.12)">
      <defs>
       <path id="DejaVuSans-33" d="M 2597 2516 
Q 3050 2419 3304 2112 
Q 3559 1806 3559 1356 
Q 3559 666 3084 287 
Q 2609 -91 1734 -91 
Q 1441 -91 1130 -33 
Q 819 25 488 141 
L 488 750 
Q 750 597 1062 519 
Q 1375 441 1716 441 
Q 2309 441 2620 675 
Q 2931 909 2931 1356 
Q 2931 1769 2642 2001 
Q 2353 2234 1838 2234 
L 1294 2234 
L 1294 2753 
L 1863 2753 
Q 2328 2753 2575 2939 
Q 2822 3125 2822 3475 
Q 2822 3834 2567 4026 
Q 2313 4219 1838 4219 
Q 1578 4219 1281 4162 
Q 984 4106 628 3988 
L 628 4550 
Q 988 4650 1302 4700 
Q 1616 4750 1894 4750 
Q 2613 4750 3031 4423 
Q 3450 4097 3450 3541 
Q 3450 3153 3228 2886 
Q 3006 2619 2597 2516 
z
" transform="scale(0.015625)"/>
      </defs>
      <use xlink:href="#DejaVuSans-33"/>
     </g>
    </g>
   </g>
   <g id="text_5">
    <g clip-path="url(#p8c66cc2fb0)">
     <!-- 3 -->
     <g style="opacity: 0" transform="translate(1.643312 807.161088) rotate(-305.004522) scale(0.12 -0.12)">
      <use xlink:href="#DejaVuSans-33"/>
     </g>
    </g>
   </g>
   <g id="text_6">
    <g clip-path="url(#p8c66cc2fb0)">
     <!-- 4 -->
     <g style="opacity: 0" transform="translate(32.758565 683.179925) rotate(-299.569988) scale(0.12 -0.12)">
      <defs>
       <path id="DejaVuSans-34" d="M 2419 4116 
L 825 1625 
L 2419 1625 
L 2419 4116 
z
M 2253 4666 
L 3047 4666 
L 3047 1625 
L 3713 1625 
L 3713 1100 
L 3047 1100 
L 3047 0 
L 2419 0 
L 2419 1100 
L 313 1100 
L 313 1709 
L 2253 4666 
z
" transform="scale(0.015625)"/>
      </defs>
      <use xlink:href="#DejaVuSans-34"/>
     </g>
    </g>
   </g>
   <g id="text_7">
    <g clip-path="url(#p8c66cc2fb0)">
     <!-- 4 -->
     <g style="opacity: 0" transform="translate(12.894067 784.48603) rotate(-296.202545) scale(0.12 -0.12)">
      <use xlink:href="#DejaVuSans-34"/>
     </g>
    </g>
   </g>
   <g id="text_8">
    <g clip-path="url(#p8c66cc2fb0)">
     <!-- 5 -->
     <g style="opacity: 0" transform="translate(96.138653 804.522872) rotate(-300.752826) scale(0.12 -0.12)">
      <defs>
       <path id="DejaVuSans-35" d="M 691 4666 
L 3169 4666 
L 3169 4134 
L 1269 4134 
L 1269 2991 
Q 1406 3038 1543 3061 
Q 1681 3084 1819 3084 
Q 2600 3084 3056 2656 
Q 3513 2228 3513 1497 
Q 3513 744 3044 326 
Q 2575 -91 1722 -91 
Q 1428 -91 1123 -41 
Q 819 9 494 109 
L 494 744 
Q 775 591 1075 516 
Q 1375 441 1709 441 
Q 2250 441 2565 725 
Q 2881 1009 2881 1497 
Q 2881 1984 2565 2268 
Q 2250 2553 1709 2553 
Q 1456 2553 1204 2497 
Q 953 2441 691 2322 
L 691 4666 
z
" transform="scale(0.015625)"/>
      </defs>
      <use xlink:href="#DejaVuSans-35"/>
     </g>
    </g>
   </g>
   <g id="text_9">
    <g clip-path="url(#p8c66cc2fb0)">
     <!-- 5 -->
     <g style="opacity: 0" transform="translate(24.645984 771.361078) rotate(-295.987478) scale(0.12 -0.12)">
      <use xlink:href="#DejaVuSans-35"/>
     </g>
    </g>
   </g>
  </g>
 </g>
 <defs>
  <clipPath id="p8c66cc2fb0">
   <rect x="0" y="0" width="576" height="815.941014"/>
  </clipPath>
 </defs>
</svg>
