<?xml version="1.0" encoding="utf-8" standalone="no"?>
<!DOCTYPE svg PUBLIC "-//W3C//DTD SVG 1.1//EN"
  "http://www.w3.org/Graphics/SVG/1.1/DTD/svg11.dtd">
<svg xmlns:xlink="http://www.w3.org/1999/xlink" width="576pt" height="820.697178pt" viewBox="0 0 576 820.697178" xmlns="http://www.w3.org/2000/svg" version="1.1">
 <metadata>
  <rdf:RDF xmlns:dc="http://purl.org/dc/elements/1.1/" xmlns:cc="http://creativecommons.org/ns#" xmlns:rdf="http://www.w3.org/1999/02/22-rdf-syntax-ns#">
   <cc:Work>
    <dc:type rdf:resource="http://purl.org/dc/dcmitype/StillImage"/>
    <dc:date>2025-07-25T22:45:09.059641</dc:date>
    <dc:format>image/svg+xml</dc:format>
    <dc:creator>
     <cc:Agent>
      <dc:title>Matplotlib v3.10.3, https://matplotlib.org/</dc:title>
     </cc:Agent>
    </dc:creator>
   </cc:Work>
  </rdf:RDF>
 </metadata>
 <defs>
  <style type="text/css">*{stroke-linejoin: round; stroke-linecap: butt}</style>
 </defs>
 <g id="figure_1">
  <g id="patch_1">
   <path d="M 0 820.697178 
L 576 820.697178 
L 576 0 
L 0 0 
L 0 820.697178 
z
" style="fill: none; opacity: 0"/>
  </g>
  <g id="axes_1">
   <g id="QuadContourSet_1">
    <path d="M 549.668571 60.138178 
L 550.465023 59.327507 
L 549.668571 58.455187 
L 548.859018 59.327507 
z
M 516.754286 59.327507 
L 520.045714 59.327507 
L 520.745701 56.031534 
L 520.843562 52.735562 
L 520.045714 51.952662 
L 516.754286 51.953398 
L 513.462857 51.92949 
L 512.637714 52.735562 
L 513.462857 53.561844 
L 515.929143 56.031534 
z
M 546.377143 56.842205 
L 547.24826 56.031534 
L 546.377143 55.217628 
L 545.56759 56.031534 
z
M 487.131429 56.031534 
L 490.422857 56.031534 
L 491.226613 52.735562 
L 491.202965 49.439589 
L 490.422857 48.411127 
L 487.131429 48.438922 
L 483.84 48.489142 
L 483.014245 49.439589 
L 483.84 50.266484 
L 486.305674 52.735562 
z
M 457.508571 52.735562 
L 458.349277 49.439589 
L 458.349277 46.143616 
L 457.508571 45.27218 
L 455.087378 42.847644 
L 454.217143 41.088539 
L 450.925714 41.410044 
L 450.082823 42.847644 
L 450.925714 43.691698 
L 453.374252 46.143616 
L 454.217143 49.439589 
L 454.217143 49.439589 
z
M 569.417143 50.486905 
L 572.708571 50.455437 
L 576 50.078823 
L 576 49.439589 
L 576 46.143616 
L 576 42.847644 
L 576 39.551671 
L 576 38.473766 
L 574.556348 39.551671 
L 572.885471 42.847644 
L 572.708571 43.098915 
L 569.489237 46.143616 
L 569.417143 46.210625 
L 568.773014 46.143616 
L 566.125714 44.190583 
L 564.375002 42.847644 
L 562.834286 41.699427 
L 561.1313 39.551671 
L 559.542857 38.222584 
L 558.260759 36.255699 
L 556.251429 34.423918 
L 555.140471 32.959726 
L 552.96 30.915446 
L 551.939525 29.663753 
L 549.668571 27.502169 
L 546.377143 29.080456 
L 543.085714 26.766251 
L 542.519957 26.367781 
L 539.794286 24.450301 
L 537.83803 23.071808 
L 536.502857 22.132064 
L 533.211429 19.811617 
L 533.161129 19.775836 
L 529.92 17.485244 
L 528.497411 16.479863 
L 526.628571 15.159105 
L 523.434895 13.18389 
L 523.337143 13.130665 
L 520.045714 11.85438 
L 516.754286 10.652316 
L 514.770563 9.887918 
L 513.462857 9.379092 
L 510.171429 8.242619 
L 506.88 7.176992 
L 504.977872 6.591945 
L 503.588571 6.151816 
L 500.297143 5.089623 
L 497.005714 4.042738 
L 494.834248 3.295973 
L 493.714286 2.90401 
L 490.422857 1.810142 
L 487.131429 0.838698 
L 484.832929 -0 
L 483.84 0 
L 480.548571 0 
L 477.257143 0 
L 473.965714 0 
L 470.674286 0 
L 467.382857 0 
L 464.091429 0 
L 460.8 0 
L 457.508571 0 
L 454.217143 0 
L 450.925714 0 
L 447.634286 0 
L 444.342857 0 
L 441.051429 0 
L 437.76 0 
L 434.468571 0 
L 431.177143 0 
L 427.885714 0 
L 424.594286 0 
L 421.302857 0 
L 418.011429 0 
L 414.72 0 
L 411.428571 0 
L 408.137143 0 
L 404.845714 0 
L 401.554286 0 
L 398.262857 0 
L 394.971429 0 
L 391.68 0 
L 388.388571 0 
L 385.097143 0 
L 381.805714 0 
L 378.514286 0 
L 377.924781 -0 
L 378.514286 0.285196 
L 381.805714 2.536573 
L 382.65459 3.295973 
L 385.097143 5.140851 
L 387.018339 6.591945 
L 388.388571 7.626892 
L 391.68 9.811329 
L 391.82608 9.887918 
L 394.971429 11.097119 
L 398.174179 13.18389 
L 398.262857 13.229502 
L 398.500137 13.18389 
L 401.554286 11.933875 
L 403.833431 13.18389 
L 404.845714 13.673101 
L 408.137143 15.825137 
L 408.801813 16.479863 
L 411.428571 18.469899 
L 413.051895 19.775836 
L 414.72 21.057781 
L 417.34071 23.071808 
L 418.011429 23.54953 
L 421.302857 24.674432 
L 423.992511 26.367781 
L 424.594286 26.641145 
L 425.999512 26.367781 
L 427.885714 25.158424 
L 431.177143 25.910176 
L 431.633438 26.367781 
L 434.468571 28.29095 
L 436.231124 29.663753 
L 437.76 30.745905 
L 440.887709 32.959726 
L 441.051429 33.075608 
L 444.342857 35.175234 
L 445.796433 36.255699 
L 447.634286 37.1278 
L 450.925714 37.181425 
L 454.217143 36.604829 
L 455.065969 36.255699 
L 456.376582 32.959726 
L 457.508571 30.363926 
L 457.833554 29.663753 
L 460.8 28.675852 
L 461.971798 29.663753 
L 464.091429 30.989675 
L 466.320215 32.959726 
L 467.382857 33.755298 
L 470.155274 36.255699 
L 470.674286 36.723787 
L 473.809813 39.551671 
L 473.965714 39.692276 
L 477.257143 42.150289 
L 480.548571 42.470738 
L 482.316448 42.847644 
L 483.84 42.951835 
L 484.476998 42.847644 
L 486.051755 39.551671 
L 487.131429 37.357151 
L 487.693723 36.255699 
L 489.558341 32.959726 
L 490.422857 32.651475 
L 490.782153 32.959726 
L 493.714286 34.725696 
L 495.905543 36.255699 
L 497.005714 36.956704 
L 500.297143 39.23299 
L 500.618048 39.551671 
L 503.588571 41.641089 
L 504.878875 42.847644 
L 506.88 44.353707 
L 510.171429 44.322763 
L 513.462857 43.685888 
L 515.387047 42.847644 
L 516.754286 40.548824 
L 517.359192 39.551671 
L 519.48924 36.255699 
L 520.045714 35.434337 
L 521.75747 32.959726 
L 523.337143 32.476049 
L 523.823103 32.959726 
L 526.628571 35.066175 
L 527.821921 36.255699 
L 529.92 38.543836 
L 530.931515 39.551671 
L 533.211429 42.05924 
L 534.003699 42.847644 
L 536.502857 45.625094 
L 537.118124 46.143616 
L 539.794286 47.206485 
L 543.085714 46.857279 
L 546.377143 46.148596 
L 546.392375 46.143616 
L 548.64128 42.847644 
L 549.668571 41.370136 
L 550.939394 39.551671 
L 552.96 36.687042 
L 556.251429 38.400408 
L 557.378735 39.551671 
L 559.542857 41.479372 
L 560.901634 42.847644 
L 562.834286 44.816855 
L 564.165828 46.143616 
L 566.125714 48.141368 
L 567.629586 49.439589 
z
M 427.885714 33.833884 
L 429.018953 32.959726 
L 427.885714 31.172243 
L 427.012761 32.959726 
z
M 401.554286 20.719174 
L 402.80658 19.775836 
L 401.554286 17.916176 
L 400.612248 19.775836 
z
" clip-path="url(#pe7c6e53de3)" style="fill: #f5f9fe; fill-opacity: 0.9"/>
    <path d="M 569.417143 46.210625 
L 569.489237 46.143616 
L 572.708571 43.098915 
L 572.885471 42.847644 
L 574.556348 39.551671 
L 576 38.473766 
L 576 36.255699 
L 576 32.959726 
L 576 29.663753 
L 576 26.367781 
L 576 23.071808 
L 576 19.775836 
L 576 16.479863 
L 576 13.18389 
L 576 9.887918 
L 576 6.591945 
L 576 3.295973 
L 576 0 
L 572.708571 0 
L 569.417143 0 
L 566.125714 0 
L 562.834286 0 
L 559.542857 0 
L 556.251429 0 
L 552.96 0 
L 549.668571 0 
L 546.377143 0 
L 543.085714 0 
L 539.794286 0 
L 536.502857 0 
L 533.211429 0 
L 529.92 0 
L 526.628571 0 
L 523.337143 0 
L 520.045714 0 
L 516.754286 0 
L 513.462857 0 
L 510.171429 0 
L 506.88 0 
L 503.588571 0 
L 500.297143 0 
L 497.005714 0 
L 493.714286 0 
L 490.422857 0 
L 487.131429 0 
L 484.832929 -0 
L 487.131429 0.838698 
L 490.422857 1.810141 
L 493.714286 2.90401 
L 494.834248 3.295973 
L 497.005714 4.042738 
L 500.297143 5.089623 
L 503.588571 6.151816 
L 504.977872 6.591945 
L 506.88 7.176992 
L 510.171429 8.242619 
L 513.462857 9.379092 
L 514.770563 9.887918 
L 516.754286 10.652316 
L 520.045714 11.85438 
L 523.337143 13.130665 
L 523.434895 13.18389 
L 526.628571 15.159105 
L 528.497411 16.479863 
L 529.92 17.485244 
L 533.161129 19.775836 
L 533.211429 19.811617 
L 536.502857 22.132064 
L 537.83803 23.071808 
L 539.794286 24.450301 
L 542.519957 26.367781 
L 543.085714 26.766251 
L 546.377143 29.080456 
L 549.668571 27.502169 
L 551.939525 29.663753 
L 552.96 30.915446 
L 555.140471 32.959726 
L 556.251429 34.423918 
L 558.260759 36.255699 
L 559.542857 38.222584 
L 561.1313 39.551671 
L 562.834286 41.699427 
L 564.375002 42.847644 
L 566.125714 44.190583 
L 568.773014 46.143616 
z
" clip-path="url(#pe7c6e53de3)" style="fill: #eff6fc; fill-opacity: 0.9"/>
    <path clip-path="url(#pe7c6e53de3)" style="fill: #eaf3fb; fill-opacity: 0.9"/>
    <path clip-path="url(#pe7c6e53de3)" style="fill: #e5eff9; fill-opacity: 0.9"/>
    <path clip-path="url(#pe7c6e53de3)" style="fill: #dfecf7; fill-opacity: 0.9"/>
    <path clip-path="url(#pe7c6e53de3)" style="fill: #dae8f6; fill-opacity: 0.9"/>
    <path clip-path="url(#pe7c6e53de3)" style="fill: #d6e5f4; fill-opacity: 0.9"/>
    <path clip-path="url(#pe7c6e53de3)" style="fill: #d0e2f2; fill-opacity: 0.9"/>
    <path clip-path="url(#pe7c6e53de3)" style="fill: #cbdef1; fill-opacity: 0.9"/>
    <path clip-path="url(#pe7c6e53de3)" style="fill: #c6dbef; fill-opacity: 0.9"/>
    <path clip-path="url(#pe7c6e53de3)" style="fill: #bed8ec; fill-opacity: 0.9"/>
    <path clip-path="url(#pe7c6e53de3)" style="fill: #b5d4e9; fill-opacity: 0.9"/>
    <path clip-path="url(#pe7c6e53de3)" style="fill: #add0e6; fill-opacity: 0.9"/>
    <path clip-path="url(#pe7c6e53de3)" style="fill: #a5cde3; fill-opacity: 0.9"/>
    <path clip-path="url(#pe7c6e53de3)" style="fill: #9cc9e1; fill-opacity: 0.9"/>
    <path clip-path="url(#pe7c6e53de3)" style="fill: #91c3de; fill-opacity: 0.9"/>
    <path clip-path="url(#pe7c6e53de3)" style="fill: #85bcdc; fill-opacity: 0.9"/>
    <path clip-path="url(#pe7c6e53de3)" style="fill: #7cb7da; fill-opacity: 0.9"/>
    <path clip-path="url(#pe7c6e53de3)" style="fill: #71b1d7; fill-opacity: 0.9"/>
    <path clip-path="url(#pe7c6e53de3)" style="fill: #66abd4; fill-opacity: 0.9"/>
    <path clip-path="url(#pe7c6e53de3)" style="fill: #5da5d1; fill-opacity: 0.9"/>
    <path clip-path="url(#pe7c6e53de3)" style="fill: #56a0ce; fill-opacity: 0.9"/>
    <path clip-path="url(#pe7c6e53de3)" style="fill: #4d99ca; fill-opacity: 0.9"/>
    <path clip-path="url(#pe7c6e53de3)" style="fill: #4493c7; fill-opacity: 0.9"/>
    <path clip-path="url(#pe7c6e53de3)" style="fill: #3c8cc3; fill-opacity: 0.9"/>
    <path clip-path="url(#pe7c6e53de3)" style="fill: #3686c0; fill-opacity: 0.9"/>
    <path clip-path="url(#pe7c6e53de3)" style="fill: #2f7fbc; fill-opacity: 0.9"/>
    <path clip-path="url(#pe7c6e53de3)" style="fill: #2777b8; fill-opacity: 0.9"/>
    <path clip-path="url(#pe7c6e53de3)" style="fill: #2070b4; fill-opacity: 0.9"/>
    <path clip-path="url(#pe7c6e53de3)" style="fill: #1c6ab0; fill-opacity: 0.9"/>
    <path clip-path="url(#pe7c6e53de3)" style="fill: #1663aa; fill-opacity: 0.9"/>
    <path clip-path="url(#pe7c6e53de3)" style="fill: #115ca5; fill-opacity: 0.9"/>
    <path clip-path="url(#pe7c6e53de3)" style="fill: #0c56a0; fill-opacity: 0.9"/>
    <path clip-path="url(#pe7c6e53de3)" style="fill: #084f99; fill-opacity: 0.9"/>
    <path clip-path="url(#pe7c6e53de3)" style="fill: #08488e; fill-opacity: 0.9"/>
    <path clip-path="url(#pe7c6e53de3)" style="fill: #084184; fill-opacity: 0.9"/>
    <path clip-path="url(#pe7c6e53de3)" style="fill: #083a7a; fill-opacity: 0.9"/>
    <path clip-path="url(#pe7c6e53de3)" style="fill: #083370; fill-opacity: 0.9"/>
    <path clip-path="url(#pe7c6e53de3)" style="fill: #08306b; fill-opacity: 0.9"/>
   </g>
   <g id="QuadContourSet_2">
    <path d="M 377.924781 -0 
L 378.514286 0.285196 
L 381.805714 2.536573 
L 382.65459 3.295973 
L 385.097143 5.140851 
L 387.018339 6.591945 
L 388.388571 7.626892 
L 391.68 9.811329 
L 391.82608 9.887918 
L 394.971429 11.097119 
L 398.174179 13.18389 
L 398.262857 13.229502 
L 398.500137 13.18389 
L 401.554286 11.933875 
L 403.833431 13.18389 
L 404.845714 13.673101 
L 408.137143 15.825137 
L 408.801813 16.479863 
L 411.428571 18.469899 
L 413.051895 19.775836 
L 414.72 21.057781 
L 417.34071 23.071808 
L 418.011429 23.54953 
L 421.302857 24.674432 
L 423.992511 26.367781 
L 424.594286 26.641145 
L 425.999512 26.367781 
L 427.885714 25.158424 
L 431.177143 25.910176 
L 431.633438 26.367781 
L 434.468571 28.29095 
L 436.231124 29.663753 
L 437.76 30.745905 
L 440.887709 32.959726 
L 441.051429 33.075608 
L 444.342857 35.175234 
L 445.796433 36.255699 
L 447.634286 37.1278 
L 450.925714 37.181425 
L 454.217143 36.604829 
L 455.065969 36.255699 
L 456.376582 32.959726 
L 457.508571 30.363926 
L 457.833554 29.663753 
L 460.8 28.675852 
L 461.971798 29.663753 
L 464.091429 30.989675 
L 466.320215 32.959726 
L 467.382857 33.755298 
L 470.155274 36.255699 
L 470.674286 36.723787 
L 473.809813 39.551671 
L 473.965714 39.692276 
L 477.257143 42.150289 
L 480.548571 42.470738 
L 482.316448 42.847644 
L 483.84 42.951835 
L 484.476998 42.847644 
L 486.051755 39.551671 
L 487.131429 37.357151 
L 487.693723 36.255699 
L 489.558341 32.959726 
L 490.422857 32.651475 
L 490.782153 32.959726 
L 493.714286 34.725696 
L 495.905543 36.255699 
L 497.005714 36.956704 
L 500.297143 39.23299 
L 500.618048 39.551671 
L 503.588571 41.641089 
L 504.878875 42.847644 
L 506.88 44.353707 
L 510.171429 44.322763 
L 513.462857 43.685888 
L 515.387047 42.847644 
L 516.754286 40.548824 
L 517.359192 39.551671 
L 519.48924 36.255699 
L 520.045714 35.434337 
L 521.75747 32.959726 
L 523.337143 32.476049 
L 523.823103 32.959726 
L 523.962527 33.064411 
M 537.588654 46.330493 
L 539.794286 47.206485 
L 543.085714 46.857279 
L 546.377143 46.148596 
L 546.392375 46.143616 
L 548.64128 42.847644 
L 549.668571 41.370136 
L 550.939394 39.551671 
L 552.96 36.687042 
L 556.251429 38.400408 
L 557.378735 39.551671 
L 559.542857 41.479372 
L 560.901634 42.847644 
L 562.834286 44.816855 
L 564.165828 46.143616 
L 566.125714 48.141368 
L 567.629586 49.439589 
L 569.417143 50.486905 
L 572.708571 50.455437 
L 576 50.078823 
M 549.668571 60.138178 
L 550.465023 59.327507 
L 549.668571 58.455187 
L 548.859018 59.327507 
L 549.668571 60.138178 
z
M 516.754286 59.327507 
L 520.045714 59.327507 
L 520.745701 56.031534 
L 520.843562 52.735562 
L 520.045714 51.952662 
L 516.754286 51.953398 
L 513.462857 51.92949 
L 512.637714 52.735562 
L 513.462857 53.561844 
L 515.929143 56.031534 
L 516.754286 59.327507 
z
M 546.377143 56.842205 
L 547.24826 56.031534 
L 546.377143 55.217628 
L 545.56759 56.031534 
L 546.377143 56.842205 
z
M 487.131429 56.031534 
L 490.422857 56.031534 
L 491.226613 52.735562 
L 491.202965 49.439589 
L 490.422857 48.411127 
L 487.131429 48.438922 
L 483.84 48.489142 
L 483.014245 49.439589 
L 483.84 50.266484 
L 486.305674 52.735562 
L 487.131429 56.031534 
z
M 457.508571 52.735562 
L 458.349277 49.439589 
L 458.349277 46.143616 
L 457.508571 45.27218 
L 455.087378 42.847644 
L 454.217143 41.088539 
L 450.925714 41.410044 
L 450.082823 42.847644 
L 450.925714 43.691698 
L 453.374252 46.143616 
L 454.217143 49.439589 
L 454.217143 49.439589 
L 457.508571 52.735562 
z
M 427.885714 33.833884 
L 429.018953 32.959726 
L 427.885714 31.172243 
L 427.012761 32.959726 
L 427.885714 33.833884 
z
M 401.554286 20.719174 
L 402.80658 19.775836 
L 401.554286 17.916176 
L 400.612248 19.775836 
L 401.554286 20.719174 
z
" clip-path="url(#pe7c6e53de3)" style="fill: none"/>
    <path d="M 484.832929 -0 
L 487.131429 0.838698 
L 487.895319 1.064155 
M 506.140599 6.949571 
L 506.88 7.176992 
L 510.171429 8.242619 
L 513.462857 9.379092 
L 514.770563 9.887918 
L 516.754286 10.652316 
L 520.045714 11.85438 
L 523.337143 13.130665 
L 523.434895 13.18389 
L 526.628571 15.159105 
L 528.497411 16.479863 
L 529.92 17.485244 
L 533.161129 19.775836 
L 533.211429 19.811617 
L 536.502857 22.132064 
L 537.83803 23.071808 
L 539.794286 24.450301 
L 542.519957 26.367781 
L 543.085714 26.766251 
L 546.377143 29.080456 
L 549.668571 27.502169 
L 551.939525 29.663753 
L 552.96 30.915446 
L 555.140471 32.959726 
L 556.251429 34.423918 
L 558.260759 36.255699 
L 559.542857 38.222584 
L 561.1313 39.551671 
L 562.834286 41.699427 
L 564.375002 42.847644 
L 566.125714 44.190583 
L 568.773014 46.143616 
L 569.417143 46.210625 
L 569.489237 46.143616 
L 572.708571 43.098915 
L 572.885471 42.847644 
L 574.556348 39.551671 
L 576 38.473766 
" clip-path="url(#pe7c6e53de3)" style="fill: none"/>
    <path clip-path="url(#pe7c6e53de3)" style="fill: none"/>
    <path clip-path="url(#pe7c6e53de3)" style="fill: none"/>
    <path clip-path="url(#pe7c6e53de3)" style="fill: none"/>
    <path clip-path="url(#pe7c6e53de3)" style="fill: none"/>
    <path clip-path="url(#pe7c6e53de3)" style="fill: none"/>
    <path clip-path="url(#pe7c6e53de3)" style="fill: none"/>
    <path clip-path="url(#pe7c6e53de3)" style="fill: none"/>
    <path clip-path="url(#pe7c6e53de3)" style="fill: none"/>
    <path clip-path="url(#pe7c6e53de3)" style="fill: none"/>
    <path clip-path="url(#pe7c6e53de3)" style="fill: none"/>
    <path clip-path="url(#pe7c6e53de3)" style="fill: none"/>
    <path clip-path="url(#pe7c6e53de3)" style="fill: none"/>
    <path clip-path="url(#pe7c6e53de3)" style="fill: none"/>
    <path clip-path="url(#pe7c6e53de3)" style="fill: none"/>
    <path clip-path="url(#pe7c6e53de3)" style="fill: none"/>
    <path clip-path="url(#pe7c6e53de3)" style="fill: none"/>
    <path clip-path="url(#pe7c6e53de3)" style="fill: none"/>
    <path clip-path="url(#pe7c6e53de3)" style="fill: none"/>
    <path clip-path="url(#pe7c6e53de3)" style="fill: none"/>
    <path clip-path="url(#pe7c6e53de3)" style="fill: none"/>
    <path clip-path="url(#pe7c6e53de3)" style="fill: none"/>
    <path clip-path="url(#pe7c6e53de3)" style="fill: none"/>
    <path clip-path="url(#pe7c6e53de3)" style="fill: none"/>
    <path clip-path="url(#pe7c6e53de3)" style="fill: none"/>
    <path clip-path="url(#pe7c6e53de3)" style="fill: none"/>
    <path clip-path="url(#pe7c6e53de3)" style="fill: none"/>
    <path clip-path="url(#pe7c6e53de3)" style="fill: none"/>
    <path clip-path="url(#pe7c6e53de3)" style="fill: none"/>
    <path clip-path="url(#pe7c6e53de3)" style="fill: none"/>
    <path clip-path="url(#pe7c6e53de3)" style="fill: none"/>
    <path clip-path="url(#pe7c6e53de3)" style="fill: none"/>
    <path clip-path="url(#pe7c6e53de3)" style="fill: none"/>
    <path clip-path="url(#pe7c6e53de3)" style="fill: none"/>
    <path clip-path="url(#pe7c6e53de3)" style="fill: none"/>
    <path clip-path="url(#pe7c6e53de3)" style="fill: none"/>
    <path clip-path="url(#pe7c6e53de3)" style="fill: none"/>
    <path clip-path="url(#pe7c6e53de3)" style="fill: none"/>
   </g>
   <g id="text_1">
    <g clip-path="url(#pe7c6e53de3)">
     <!-- 0 -->
     <g style="opacity: 0" transform="translate(525.902945 39.050509) rotate(-313.370582) scale(0.12 -0.12)">
      <defs>
       <path id="DejaVuSans-30" d="M 2034 4250 
Q 1547 4250 1301 3770 
Q 1056 3291 1056 2328 
Q 1056 1369 1301 889 
Q 1547 409 2034 409 
Q 2525 409 2770 889 
Q 3016 1369 3016 2328 
Q 3016 3291 2770 3770 
Q 2525 4250 2034 4250 
z
M 2034 4750 
Q 2819 4750 3233 4129 
Q 3647 3509 3647 2328 
Q 3647 1150 3233 529 
Q 2819 -91 2034 -91 
Q 1250 -91 836 529 
Q 422 1150 422 2328 
Q 422 3509 836 4129 
Q 1250 4750 2034 4750 
z
" transform="scale(0.015625)"/>
      </defs>
      <use xlink:href="#DejaVuSans-30"/>
     </g>
    </g>
   </g>
   <g id="text_2">
    <g clip-path="url(#pe7c6e53de3)">
     <!-- 1 -->
     <g style="opacity: 0" transform="translate(492.345426 5.997065) rotate(-341.813159) scale(0.12 -0.12)">
      <defs>
       <path id="DejaVuSans-31" d="M 794 531 
L 1825 531 
L 1825 4091 
L 703 3866 
L 703 4441 
L 1819 4666 
L 2450 4666 
L 2450 531 
L 3481 531 
L 3481 0 
L 794 0 
L 794 531 
z
" transform="scale(0.015625)"/>
      </defs>
      <use xlink:href="#DejaVuSans-31"/>
     </g>
    </g>
   </g>
  </g>
 </g>
 <defs>
  <clipPath id="pe7c6e53de3">
   <rect x="0" y="0" width="576" height="820.697178"/>
  </clipPath>
 </defs>
</svg>
