<?xml version="1.0" encoding="utf-8" standalone="no"?>
<!DOCTYPE svg PUBLIC "-//W3C//DTD SVG 1.1//EN"
  "http://www.w3.org/Graphics/SVG/1.1/DTD/svg11.dtd">
<svg xmlns:xlink="http://www.w3.org/1999/xlink" width="576pt" height="821.570834pt" viewBox="0 0 576 821.570834" xmlns="http://www.w3.org/2000/svg" version="1.1">
 <metadata>
  <rdf:RDF xmlns:dc="http://purl.org/dc/elements/1.1/" xmlns:cc="http://creativecommons.org/ns#" xmlns:rdf="http://www.w3.org/1999/02/22-rdf-syntax-ns#">
   <cc:Work>
    <dc:type rdf:resource="http://purl.org/dc/dcmitype/StillImage"/>
    <dc:date>2025-07-25T22:46:07.384928</dc:date>
    <dc:format>image/svg+xml</dc:format>
    <dc:creator>
     <cc:Agent>
      <dc:title>Matplotlib v3.10.3, https://matplotlib.org/</dc:title>
     </cc:Agent>
    </dc:creator>
   </cc:Work>
  </rdf:RDF>
 </metadata>
 <defs>
  <style type="text/css">*{stroke-linejoin: round; stroke-linecap: butt}</style>
 </defs>
 <g id="figure_1">
  <g id="patch_1">
   <path d="M 0 821.570834 
L 576 821.570834 
L 576 0 
L 0 0 
L 0 821.570834 
z
" style="fill: none; opacity: 0"/>
  </g>
  <g id="axes_1">
   <g id="QuadContourSet_1">
    <path d="M 306.102857 820.690136 
L 309.171994 818.271353 
L 309.394286 818.020661 
L 311.114442 818.271353 
L 312.685714 819.697183 
L 314.750852 821.570834 
L 315.977143 821.570834 
L 316.234299 821.570834 
L 316.803721 818.271353 
L 319.268571 816.319931 
L 320.611469 814.971872 
L 320.961483 811.67239 
L 322.56 809.068187 
L 323.252196 808.372909 
L 324.665847 805.073428 
L 325.620153 801.773947 
L 325.851429 801.481867 
L 327.861266 798.474465 
L 329.142857 795.436285 
L 329.573462 795.174984 
L 332.328779 791.875503 
L 332.434286 791.762825 
L 335.725714 791.420855 
L 336.233169 791.875503 
L 339.017143 794.369557 
L 342.308571 793.106281 
L 343.348112 791.875503 
L 343.708812 788.576022 
L 345.6 786.630581 
L 346.949169 785.27654 
L 347.597508 781.977059 
L 348.891429 779.272427 
L 349.483831 778.677578 
L 351.138636 775.378097 
L 351.893025 772.078615 
L 352.182857 771.646894 
L 354.362775 768.779134 
L 355.474286 767.270007 
L 357.867068 765.479653 
L 358.765714 764.300797 
L 362.057143 763.401555 
L 364.400315 765.479653 
L 365.348571 766.320581 
L 365.546051 765.479653 
L 368.64 763.33126 
L 369.78712 762.180172 
L 370.08667 758.88069 
L 371.931429 756.212193 
L 372.560061 755.581209 
L 373.906754 752.281728 
L 374.918999 748.982247 
L 375.222857 748.646886 
L 377.23313 745.682765 
L 377.877809 742.383284 
L 378.514286 741.568239 
L 380.970819 739.083803 
L 381.805714 738.117589 
L 384.822593 735.784321 
L 385.097143 735.440205 
L 387.082742 735.784321 
L 388.388571 736.930763 
L 390.84114 739.083803 
L 391.68 739.26055 
L 391.856106 739.083803 
L 392.458091 735.784321 
L 394.971429 732.518873 
L 395.005335 732.48484 
L 396.645726 729.185359 
L 397.347604 725.885878 
L 398.262857 724.950796 
L 400.092636 722.586396 
L 400.460477 719.286915 
L 401.554286 717.397145 
L 402.959381 715.987434 
L 404.012366 712.687953 
L 404.845714 711.658646 
L 407.595387 709.388471 
L 408.137143 708.736259 
L 411.428571 707.515048 
L 413.58433 709.388471 
L 414.72 710.375385 
L 415.086234 709.388471 
L 418.011429 707.657931 
L 419.180827 706.08899 
L 419.479429 702.789509 
L 421.302857 700.719922 
L 422.528911 699.490028 
L 423.294186 696.190546 
L 424.594286 693.034076 
L 424.736794 692.891065 
L 426.706141 689.591584 
L 427.337113 686.292103 
L 427.885714 685.618051 
L 430.420822 682.992621 
L 431.177143 682.087035 
L 434.293128 679.69314 
L 434.468571 679.45748 
L 435.714929 679.69314 
L 437.76 681.452134 
L 439.551068 682.992621 
L 441.051429 683.304018 
L 441.361809 682.992621 
L 441.940723 679.69314 
L 443.144462 676.393659 
L 444.342857 675.589624 
L 446.088569 673.094177 
L 446.259831 669.794696 
L 447.634286 667.960103 
L 449.094822 666.495215 
L 449.88129 663.195734 
L 450.925714 660.346613 
L 451.374587 659.896252 
L 453.245107 656.596771 
L 454.217143 655.23472 
L 456.817813 653.29729 
L 457.508571 652.139371 
L 460.8 652.393998 
L 464.091429 651.524721 
L 465.086571 649.997809 
L 465.863104 646.698327 
L 467.382857 645.599516 
L 469.189081 643.398846 
L 469.610732 640.099365 
L 470.674286 638.948943 
L 472.552178 636.799884 
L 473.096287 633.500402 
L 473.965714 632.180979 
L 475.776488 630.200921 
L 476.960844 626.90144 
L 477.257143 626.550522 
L 480.209651 623.601959 
L 480.548571 623.166585 
L 483.84 622.827314 
L 484.76019 623.601959 
L 487.131429 624.061353 
L 487.585285 623.601959 
L 488.108115 620.302477 
L 490.422857 618.304682 
L 491.712855 617.002996 
L 492.182859 613.703515 
L 493.714286 611.539612 
L 494.839423 610.404033 
L 495.852047 607.104552 
L 497.005714 604.751327 
L 497.943038 603.805071 
L 499.291793 600.50559 
L 500.297143 598.824689 
L 502.378688 597.206108 
L 503.588571 595.37805 
L 506.397502 593.906627 
L 506.88 592.93281 
L 508.03702 593.906627 
L 510.171429 595.703221 
L 513.462857 594.785136 
L 514.338809 593.906627 
L 514.727414 590.607146 
L 516.455737 587.307665 
L 516.754286 587.107386 
L 518.653734 584.008183 
L 518.906266 580.708702 
L 520.045714 579.020932 
L 521.529229 577.409221 
L 522.357757 574.10974 
L 523.337143 570.965119 
L 523.528382 570.810258 
L 526.086124 567.510777 
L 526.628571 566.862025 
L 529.835943 564.211296 
L 529.92 564.101269 
L 530.789284 564.211296 
L 533.211429 566.23084 
L 534.746254 567.510777 
L 536.502857 567.854174 
L 536.845119 567.510777 
L 537.403891 564.211296 
L 539.252847 560.911815 
L 539.794286 560.578065 
L 541.528483 557.612333 
L 541.785422 554.312852 
L 543.085714 552.550838 
L 544.529184 551.013371 
L 545.316778 547.71389 
L 546.377143 544.450084 
L 546.412691 544.414408 
L 548.653592 541.114927 
L 549.668571 539.827788 
L 552.30454 537.815446 
L 552.96 536.807624 
L 556.251429 536.704668 
L 557.598642 537.815446 
L 559.542857 539.418452 
L 559.911119 537.815446 
L 561.716441 534.515964 
L 562.834286 533.89686 
L 564.352434 531.216483 
L 564.597934 527.917002 
L 566.125714 526.04966 
L 567.524597 524.617521 
L 568.258005 521.318039 
L 569.374917 518.018558 
L 569.417143 517.965689 
L 571.476019 514.719077 
L 572.708571 511.97641 
L 573.615167 511.419596 
L 575.715878 508.120114 
L 576 507.797299 
L 576 506.503291 
L 574.576975 508.120114 
L 572.708571 510.32897 
L 571.631491 511.419596 
L 570.158915 514.719077 
L 569.417143 515.888768 
L 567.716107 518.018558 
L 567.016749 521.318039 
L 566.125714 523.621385 
L 564.391611 524.617521 
L 562.898683 527.917002 
L 562.834286 528.436056 
L 562.204747 527.917002 
L 559.542857 527.524465 
L 559.245151 527.917002 
L 556.251429 530.322037 
L 555.348314 531.216483 
L 552.96 533.898266 
L 552.347489 534.515964 
L 549.95726 537.815446 
L 549.668571 538.035836 
L 547.24054 541.114927 
L 546.377143 542.374249 
L 544.882393 544.414408 
L 544.172279 547.71389 
L 543.085714 550.267734 
L 541.925154 551.013371 
L 540.215738 554.312852 
L 539.841627 557.612333 
L 539.794286 557.693294 
L 539.332451 557.612333 
L 536.502857 555.252836 
L 533.915225 557.612333 
L 533.211429 557.846434 
L 531.448673 560.911815 
L 529.92 562.018108 
L 528.244481 564.211296 
L 526.628571 565.546763 
L 524.986381 567.510777 
L 523.337143 569.526788 
L 522.110637 570.810258 
L 521.292096 574.10974 
L 520.045714 576.834493 
L 519.213679 577.409221 
L 517.461825 580.708702 
L 517.134749 584.008183 
L 516.754286 584.628961 
L 513.462857 584.68996 
L 510.171429 586.328291 
L 509.450546 587.307665 
L 506.88 589.37454 
L 505.738578 590.607146 
L 503.588571 593.00509 
L 502.687952 593.906627 
L 500.297143 596.969317 
L 500.062753 597.206108 
L 498.190679 600.50559 
L 497.005714 602.576248 
L 495.652556 603.805071 
L 494.568294 607.104552 
L 493.714286 608.931741 
L 491.454387 610.404033 
L 490.450698 613.703515 
L 490.422857 613.821497 
L 490.147285 613.703515 
L 487.131429 613.366447 
L 486.787242 613.703515 
L 484.450093 617.002996 
L 483.84 617.334116 
L 481.955536 620.302477 
L 480.548571 621.394252 
L 478.829964 623.601959 
L 477.257143 625.172678 
L 475.797457 626.90144 
L 474.00761 630.200921 
L 473.965714 630.246734 
L 471.821726 633.500402 
L 470.861995 636.799884 
L 470.674286 637.014698 
L 467.82254 640.099365 
L 467.411634 643.398846 
L 467.382857 643.433907 
L 467.109585 643.398846 
L 464.091429 642.805618 
L 463.696034 643.398846 
L 460.8 645.657526 
L 459.850032 646.698327 
L 457.508571 649.139447 
L 456.668812 649.997809 
L 454.217143 653.235636 
L 454.157459 653.29729 
L 451.82104 656.596771 
L 450.925714 657.982262 
L 449.403973 659.896252 
L 448.625516 663.195734 
L 447.634286 665.508566 
L 446.086316 666.495215 
L 444.605188 669.794696 
L 444.342857 672.164779 
L 441.587284 669.794696 
L 441.051429 669.7237 
L 440.980929 669.794696 
L 437.76 672.351698 
L 437.040418 673.094177 
L 434.468571 676.247622 
L 434.329367 676.393659 
L 431.846557 679.69314 
L 431.177143 680.207426 
L 428.851022 682.992621 
L 427.885714 683.992321 
L 426.013952 686.292103 
L 425.278202 689.591584 
L 424.594286 690.687805 
L 422.386722 692.891065 
L 421.717819 696.190546 
L 421.302857 697.312867 
L 418.011429 697.478218 
L 414.72 698.891966 
L 414.147287 699.490028 
L 411.428571 702.606816 
L 411.254304 702.789509 
L 408.776734 706.08899 
L 408.137143 706.565228 
L 405.792035 709.388471 
L 404.845714 710.169769 
L 402.806941 712.687953 
L 401.554286 715.08779 
L 400.693049 715.987434 
L 399.123809 719.286915 
L 398.305455 722.586396 
L 398.262857 722.64144 
L 395.087219 725.885878 
L 394.971429 726.705691 
L 394.037611 725.885878 
L 391.68 725.607325 
L 391.414461 725.885878 
L 388.388571 728.587752 
L 387.815096 729.185359 
L 385.097143 732.352547 
L 384.967548 732.48484 
L 382.302028 735.784321 
L 381.805714 736.168172 
L 379.286349 739.083803 
L 378.514286 739.864635 
L 376.547449 742.383284 
L 375.652396 745.682765 
L 375.222857 746.316114 
L 372.807176 748.982247 
L 372.278671 752.281728 
L 371.931429 752.96988 
L 368.64 752.856893 
L 365.348571 754.941037 
L 364.750355 755.581209 
L 362.057143 757.839768 
L 361.011365 758.88069 
L 358.765714 761.43047 
L 357.97298 762.180172 
L 355.474286 765.09483 
L 355.061595 765.479653 
L 352.739222 768.779134 
L 352.182857 769.511053 
L 350.459149 772.078615 
L 349.832118 775.378097 
L 348.891429 776.915898 
L 346.764277 778.677578 
L 345.973021 781.977059 
L 345.6 783.095962 
L 342.308571 782.443971 
L 339.017143 784.211337 
L 338.066687 785.27654 
L 335.725714 787.065063 
L 334.330657 788.576022 
L 332.434286 790.244851 
L 330.907404 791.875503 
L 329.142857 793.759972 
L 327.687371 795.174984 
L 326.23623 798.474465 
L 325.851429 799.05026 
L 323.694747 801.773947 
L 323.155495 805.073428 
L 322.56 806.170638 
L 319.360139 808.372909 
L 319.268571 808.755936 
L 318.846455 808.372909 
L 315.977143 807.975122 
L 315.607109 808.372909 
L 312.685714 811.594133 
L 312.612846 811.67239 
L 309.871881 814.971872 
L 309.394286 815.304142 
L 306.76323 818.271353 
L 306.102857 818.791792 
L 303.553325 821.570834 
L 305.294892 821.570834 
z
M 470.674286 821.507537 
L 473.902571 818.271353 
L 473.965714 818.124994 
L 477.111141 814.971872 
L 477.257143 814.88134 
L 480.45826 811.67239 
L 480.548571 811.569936 
L 483.84 811.643241 
L 487.113472 808.372909 
L 487.131429 808.354908 
L 490.4049 805.073428 
L 488.43244 801.773947 
L 490.422857 801.755946 
L 493.696329 798.474465 
L 493.683124 795.174984 
L 493.714286 795.133552 
L 496.964383 791.875503 
L 497.005714 791.731766 
L 500.153757 788.576022 
L 500.297143 788.468843 
L 503.481654 785.27654 
L 503.588571 784.671724 
L 506.27666 781.977059 
L 506.88 781.959139 
L 510.171429 781.963898 
L 513.462857 778.677578 
L 513.449728 775.378097 
L 513.462857 775.364935 
L 516.741157 772.078615 
L 516.713734 768.779134 
L 516.754286 768.708372 
L 519.975125 765.479653 
L 520.045714 765.208497 
L 523.066649 762.180172 
L 523.305219 758.88069 
L 523.337143 758.825851 
L 526.573866 755.581209 
L 526.628571 755.544975 
L 529.883854 752.281728 
L 529.92 752.243105 
L 529.93307 752.281728 
L 533.211429 755.581209 
L 536.502857 752.281728 
L 536.366143 748.982247 
L 536.502857 748.845198 
L 539.657572 745.682765 
L 538.036036 742.383284 
L 539.794286 742.246235 
L 542.949 739.083803 
L 542.873455 735.784321 
L 543.085714 735.377024 
L 545.970839 732.48484 
L 546.377143 731.654006 
L 548.839765 729.185359 
L 549.668571 728.577562 
L 552.353686 725.885878 
L 552.96 724.285298 
L 554.654755 722.586396 
L 556.251429 722.450025 
L 559.542857 722.437267 
L 562.834286 719.286915 
L 562.685521 715.987434 
L 562.834286 715.838305 
L 565.976949 712.687953 
L 565.736902 709.388471 
L 566.125714 708.777249 
L 568.807413 706.08899 
L 569.417143 704.449417 
L 571.073 702.789509 
L 571.934874 699.490028 
L 572.708571 698.964735 
L 575.47599 696.190546 
L 576 695.826083 
L 576 692.891065 
L 576 689.591584 
L 576 686.292103 
L 576 685.45364 
L 575.837682 686.292103 
L 572.708571 688.759637 
L 572.046751 689.591584 
L 571.64994 692.891065 
L 570.109131 696.190546 
L 569.417143 696.74089 
L 567.914832 699.490028 
L 567.295952 702.789509 
L 566.125714 704.273497 
L 564.557385 706.08899 
L 562.834286 708.269664 
L 561.38263 709.388471 
L 562.834286 710.345628 
L 564.276874 712.687953 
L 562.834286 714.13407 
L 560.985446 715.987434 
L 561.053734 719.286915 
L 559.542857 720.733033 
L 556.251429 720.739159 
L 553.487098 719.286915 
L 553.977364 715.987434 
L 552.96 715.131134 
L 549.668571 715.326344 
L 549.196439 715.987434 
L 548.870649 719.286915 
L 546.838736 722.586396 
L 546.377143 722.892754 
L 544.961629 725.885878 
L 544.256543 729.185359 
L 543.085714 730.810728 
L 541.938796 732.48484 
L 540.210526 735.784321 
L 541.233836 739.083803 
L 539.794286 740.526875 
L 536.502857 740.128478 
L 533.877209 742.383284 
L 533.211429 743.256386 
L 529.966551 745.682765 
L 529.92 745.762286 
L 529.622559 745.682765 
L 526.628571 745.298979 
L 526.293251 745.682765 
L 525.853177 748.982247 
L 523.337143 751.452528 
L 522.609376 752.281728 
L 521.853465 755.581209 
L 520.045714 757.999677 
L 519.281871 758.88069 
L 518.103387 762.180172 
L 516.754286 763.794825 
L 515.013175 765.479653 
L 513.462857 767.425551 
L 511.720714 768.779134 
L 513.462857 769.873025 
L 514.950714 772.078615 
L 513.462857 773.570112 
L 511.659285 775.378097 
L 511.665244 778.677578 
L 510.171429 780.169074 
L 506.88 780.166899 
L 504.244906 778.677578 
L 506.281209 775.378097 
L 503.588571 773.058732 
L 503.248499 775.378097 
L 500.297143 778.004757 
L 499.681436 778.677578 
L 499.071314 781.977059 
L 497.005714 784.561553 
L 496.358022 785.27654 
L 495.29099 788.576022 
L 493.714286 791.118349 
L 492.961761 791.875503 
L 490.566615 795.174984 
L 491.900441 798.474465 
L 490.422857 799.955665 
L 487.131429 799.232557 
L 484.267981 801.773947 
L 483.84 802.32336 
L 480.548571 802.961634 
L 477.257143 804.509965 
L 476.726248 805.073428 
L 476.315783 808.372909 
L 473.965714 811.08707 
L 473.416726 811.67239 
L 472.438571 814.971872 
L 470.674286 817.664175 
L 470.107367 818.271353 
L 468.454535 821.570834 
L 470.638798 821.570834 
z
M 481.781868 808.372909 
L 483.84 806.639401 
L 485.317584 808.372909 
L 483.84 809.849076 
z
M 485.402151 805.073428 
L 487.131429 803.578744 
L 488.609013 805.073428 
L 487.131429 806.554627 
z
M 531.715457 752.281728 
L 530.947447 748.982247 
L 533.211429 747.12989 
L 534.650979 748.982247 
L 534.713364 752.281728 
L 533.211429 753.787338 
z
M 534.655021 745.682765 
L 536.502857 744.118025 
L 537.942408 745.682765 
L 536.502857 747.125838 
z
M 309.394286 810.274812 
L 311.347893 808.372909 
L 309.394286 806.27583 
L 307.302325 808.372909 
z
M 308.4811 808.372909 
L 309.394286 807.457489 
L 310.247077 808.372909 
L 309.394286 809.203131 
z
M 335.725714 780.607813 
L 337.71123 778.677578 
L 335.725714 776.707071 
L 333.760017 778.677578 
z
M 334.858582 778.677578 
L 335.725714 777.808324 
L 336.601589 778.677578 
L 335.725714 779.529066 
z
M 510.171429 772.608189 
L 510.69971 772.078615 
L 510.171429 771.080869 
L 508.424944 772.078615 
z
M 559.542857 712.966862 
L 559.821086 712.687953 
L 559.542857 712.188689 
L 558.626439 712.687953 
z
M 506.88 582.560251 
L 508.712755 580.708702 
L 506.88 578.922706 
L 505.056788 580.708702 
z
M 506.009379 580.708702 
L 506.88 579.855853 
L 507.755178 580.708702 
L 506.88 581.592854 
z
M 529.92 556.143302 
L 531.732073 554.312852 
L 529.92 552.524332 
L 528.135845 554.312852 
z
M 529.065161 554.312852 
L 529.92 553.455922 
L 530.788215 554.312852 
L 529.92 555.189872 
z
M 552.96 529.727996 
L 554.753017 527.917002 
L 556.251429 526.414924 
L 558.288921 524.617521 
L 556.251429 522.820201 
L 554.461396 524.617521 
L 552.96 526.12259 
L 551.169967 527.917002 
z
M 552.098299 527.917002 
L 552.96 527.053193 
L 553.823137 527.917002 
L 552.96 528.788794 
z
M 555.389728 524.617521 
L 556.251429 523.752312 
L 557.232254 524.617521 
L 556.251429 525.48277 
z
M 576 503.494941 
L 576 502.475449 
L 575.131546 501.521152 
L 576 500.650573 
L 576 499.720518 
L 574.203761 501.521152 
z
" clip-path="url(#pc059063380)" style="fill: #f5f9fe; fill-opacity: 0.9"/>
    <path d="M 306.102857 821.570834 
L 309.394286 821.570834 
L 312.685714 821.570834 
L 314.750852 821.570834 
L 312.685714 819.697183 
L 311.114442 818.271353 
L 309.394286 818.020661 
L 309.171994 818.271353 
L 306.102857 820.690136 
L 305.294892 821.570834 
z
M 319.268571 821.570834 
L 322.56 821.570834 
L 325.851429 821.570834 
L 329.142857 821.570834 
L 332.434286 821.570834 
L 335.725714 821.570834 
L 339.017143 821.570834 
L 342.308571 821.570834 
L 345.6 821.570834 
L 348.891429 821.570834 
L 352.182857 821.570834 
L 355.474286 821.570834 
L 358.765714 821.570834 
L 362.057143 821.570834 
L 365.348571 821.570834 
L 368.64 821.570834 
L 371.931429 821.570834 
L 375.222857 821.570834 
L 378.514286 821.570834 
L 381.805714 821.570834 
L 385.097143 821.570834 
L 388.388571 821.570834 
L 391.68 821.570834 
L 394.971429 821.570834 
L 398.262857 821.570834 
L 401.554286 821.570834 
L 404.845714 821.570834 
L 408.137143 821.570834 
L 411.428571 821.570834 
L 414.72 821.570834 
L 418.011429 821.570834 
L 421.302857 821.570834 
L 424.594286 821.570834 
L 427.885714 821.570834 
L 431.177143 821.570834 
L 434.468571 821.570834 
L 437.76 821.570834 
L 441.051429 821.570834 
L 444.342857 821.570834 
L 447.634286 821.570834 
L 450.925714 821.570834 
L 454.217143 821.570834 
L 457.508571 821.570834 
L 460.8 821.570834 
L 464.091429 821.570834 
L 467.382857 821.570834 
L 468.454535 821.570834 
L 470.107367 818.271353 
L 470.674286 817.664175 
L 472.438571 814.971872 
L 473.416726 811.67239 
L 473.965714 811.08707 
L 476.315783 808.372909 
L 476.726248 805.073428 
L 477.257143 804.509965 
L 480.548571 802.961634 
L 483.84 802.32336 
L 484.267981 801.773947 
L 487.131429 799.232557 
L 490.422857 799.955665 
L 491.900441 798.474465 
L 490.566615 795.174984 
L 492.961761 791.875503 
L 493.714286 791.118349 
L 495.29099 788.576022 
L 496.358022 785.27654 
L 497.005714 784.561553 
L 499.071314 781.977059 
L 499.681436 778.677578 
L 500.297143 778.004757 
L 503.248499 775.378097 
L 503.588571 773.058732 
L 506.281209 775.378097 
L 504.244906 778.677578 
L 506.88 780.166899 
L 510.171429 780.169074 
L 511.665244 778.677578 
L 511.659285 775.378097 
L 513.462857 773.570112 
L 514.950714 772.078615 
L 513.462857 769.873025 
L 511.720714 768.779134 
L 513.462857 767.425551 
L 515.013175 765.479653 
L 516.754286 763.794825 
L 518.103387 762.180172 
L 519.281871 758.88069 
L 520.045714 757.999677 
L 521.853465 755.581209 
L 522.609376 752.281728 
L 523.337143 751.452528 
L 525.853177 748.982247 
L 526.293251 745.682765 
L 526.628571 745.298979 
L 529.622559 745.682765 
L 529.92 745.762286 
L 529.966551 745.682765 
L 533.211429 743.256386 
L 533.877209 742.383284 
L 536.502857 740.128478 
L 539.794286 740.526875 
L 541.233836 739.083803 
L 540.210526 735.784321 
L 541.938796 732.48484 
L 543.085714 730.810728 
L 544.256543 729.185359 
L 544.961629 725.885878 
L 546.377143 722.892754 
L 546.838736 722.586396 
L 548.870649 719.286915 
L 549.196439 715.987434 
L 549.668571 715.326344 
L 552.96 715.131134 
L 553.977364 715.987434 
L 553.487098 719.286915 
L 556.251429 720.739159 
L 559.542857 720.733033 
L 561.053734 719.286915 
L 560.985446 715.987434 
L 562.834286 714.13407 
L 564.276874 712.687953 
L 562.834286 710.345628 
L 561.38263 709.388471 
L 562.834286 708.269664 
L 564.557385 706.08899 
L 566.125714 704.273497 
L 567.295952 702.789509 
L 567.914832 699.490028 
L 569.417143 696.74089 
L 570.109131 696.190546 
L 571.64994 692.891065 
L 572.046751 689.591584 
L 572.708571 688.759637 
L 575.837682 686.292103 
L 576 685.45364 
L 576 682.992621 
L 576 679.69314 
L 576 676.393659 
L 576 673.094177 
L 576 669.794696 
L 576 666.495215 
L 576 663.195734 
L 576 659.896252 
L 576 656.596771 
L 576 653.29729 
L 576 649.997809 
L 576 646.698327 
L 576 643.398846 
L 576 640.099365 
L 576 636.799884 
L 576 633.500402 
L 576 630.200921 
L 576 626.90144 
L 576 623.601959 
L 576 620.302477 
L 576 617.002996 
L 576 613.703515 
L 576 610.404033 
L 576 607.104552 
L 576 603.805071 
L 576 600.50559 
L 576 597.206108 
L 576 593.906627 
L 576 590.607146 
L 576 587.307665 
L 576 584.008183 
L 576 580.708702 
L 576 577.409221 
L 576 574.10974 
L 576 570.810258 
L 576 567.510777 
L 576 564.211296 
L 576 560.911815 
L 576 557.612333 
L 576 554.312852 
L 576 551.013371 
L 576 547.71389 
L 576 544.414408 
L 576 541.114927 
L 576 537.815446 
L 576 534.515964 
L 576 531.216483 
L 576 527.917002 
L 576 524.617521 
L 576 521.318039 
L 576 518.018558 
L 576 514.719077 
L 576 511.419596 
L 576 508.120114 
L 576 507.797299 
L 575.715878 508.120114 
L 573.615167 511.419596 
L 572.708571 511.97641 
L 571.476019 514.719077 
L 569.417143 517.965689 
L 569.374917 518.018558 
L 568.258005 521.318039 
L 567.524597 524.617521 
L 566.125714 526.04966 
L 564.597934 527.917002 
L 564.352434 531.216483 
L 562.834286 533.89686 
L 561.716441 534.515964 
L 559.911119 537.815446 
L 559.542857 539.418452 
L 557.598642 537.815446 
L 556.251429 536.704668 
L 552.96 536.807624 
L 552.30454 537.815446 
L 549.668571 539.827788 
L 548.653592 541.114927 
L 546.412691 544.414408 
L 546.377143 544.450084 
L 545.316778 547.71389 
L 544.529184 551.013371 
L 543.085714 552.550838 
L 541.785422 554.312852 
L 541.528483 557.612333 
L 539.794286 560.578065 
L 539.252847 560.911815 
L 537.403891 564.211296 
L 536.845119 567.510777 
L 536.502857 567.854174 
L 534.746254 567.510777 
L 533.211429 566.23084 
L 530.789284 564.211296 
L 529.92 564.101269 
L 529.835943 564.211296 
L 526.628571 566.862025 
L 526.086124 567.510777 
L 523.528382 570.810258 
L 523.337143 570.965119 
L 522.357757 574.10974 
L 521.529229 577.409221 
L 520.045714 579.020932 
L 518.906266 580.708702 
L 518.653734 584.008183 
L 516.754286 587.107386 
L 516.455737 587.307665 
L 514.727414 590.607146 
L 514.338809 593.906627 
L 513.462857 594.785136 
L 510.171429 595.703221 
L 508.03702 593.906627 
L 506.88 592.93281 
L 506.397502 593.906627 
L 503.588571 595.37805 
L 502.378688 597.206108 
L 500.297143 598.824689 
L 499.291793 600.50559 
L 497.943038 603.805071 
L 497.005714 604.751327 
L 495.852047 607.104552 
L 494.839423 610.404033 
L 493.714286 611.539612 
L 492.182859 613.703515 
L 491.712855 617.002996 
L 490.422857 618.304682 
L 488.108115 620.302477 
L 487.585285 623.601959 
L 487.131429 624.061353 
L 484.76019 623.601959 
L 483.84 622.827314 
L 480.548571 623.166585 
L 480.209651 623.601959 
L 477.257143 626.550522 
L 476.960844 626.90144 
L 475.776488 630.200921 
L 473.965714 632.180979 
L 473.096287 633.500402 
L 472.552178 636.799884 
L 470.674286 638.948943 
L 469.610732 640.099365 
L 469.189081 643.398846 
L 467.382857 645.599516 
L 465.863104 646.698327 
L 465.086571 649.997809 
L 464.091429 651.524721 
L 460.8 652.393998 
L 457.508571 652.139371 
L 456.817813 653.29729 
L 454.217143 655.23472 
L 453.245107 656.596771 
L 451.374587 659.896252 
L 450.925714 660.346613 
L 449.88129 663.195734 
L 449.094822 666.495215 
L 447.634286 667.960103 
L 446.259831 669.794696 
L 446.088569 673.094177 
L 444.342857 675.589624 
L 443.144462 676.393659 
L 441.940723 679.69314 
L 441.361809 682.992621 
L 441.051429 683.304018 
L 439.551068 682.992621 
L 437.76 681.452134 
L 435.714929 679.69314 
L 434.468571 679.45748 
L 434.293128 679.69314 
L 431.177143 682.087035 
L 430.420822 682.992621 
L 427.885714 685.618051 
L 427.337113 686.292103 
L 426.706141 689.591584 
L 424.736794 692.891065 
L 424.594286 693.034076 
L 423.294186 696.190546 
L 422.528911 699.490028 
L 421.302857 700.719922 
L 419.479429 702.789509 
L 419.180827 706.08899 
L 418.011429 707.657931 
L 415.086234 709.388471 
L 414.72 710.375385 
L 413.58433 709.388471 
L 411.428571 707.515048 
L 408.137143 708.736259 
L 407.595387 709.388471 
L 404.845714 711.658646 
L 404.012366 712.687953 
L 402.959381 715.987434 
L 401.554286 717.397145 
L 400.460477 719.286915 
L 400.092636 722.586396 
L 398.262857 724.950796 
L 397.347604 725.885878 
L 396.645726 729.185359 
L 395.005335 732.48484 
L 394.971429 732.518873 
L 392.458091 735.784321 
L 391.856106 739.083803 
L 391.68 739.26055 
L 390.84114 739.083803 
L 388.388571 736.930763 
L 387.082742 735.784321 
L 385.097143 735.440205 
L 384.822593 735.784321 
L 381.805714 738.117589 
L 380.970819 739.083803 
L 378.514286 741.568239 
L 377.877809 742.383284 
L 377.23313 745.682765 
L 375.222857 748.646886 
L 374.918999 748.982247 
L 373.906754 752.281728 
L 372.560061 755.581209 
L 371.931429 756.212193 
L 370.08667 758.88069 
L 369.78712 762.180172 
L 368.64 763.33126 
L 365.546051 765.479653 
L 365.348571 766.320581 
L 364.400315 765.479653 
L 362.057143 763.401555 
L 358.765714 764.300797 
L 357.867068 765.479653 
L 355.474286 767.270007 
L 354.362775 768.779134 
L 352.182857 771.646894 
L 351.893025 772.078615 
L 351.138636 775.378097 
L 349.483831 778.677578 
L 348.891429 779.272427 
L 347.597508 781.977059 
L 346.949169 785.27654 
L 345.6 786.630581 
L 343.708812 788.576022 
L 343.348112 791.875503 
L 342.308571 793.106281 
L 339.017143 794.369557 
L 336.233169 791.875503 
L 335.725714 791.420855 
L 332.434286 791.762825 
L 332.328779 791.875503 
L 329.573462 795.174984 
L 329.142857 795.436285 
L 327.861266 798.474465 
L 325.851429 801.481867 
L 325.620153 801.773947 
L 324.665847 805.073428 
L 323.252196 808.372909 
L 322.56 809.068187 
L 320.961483 811.67239 
L 320.611469 814.971872 
L 319.268571 816.319931 
L 316.803721 818.271353 
L 316.234299 821.570834 
z
M 508.424944 772.078615 
L 510.171429 771.080869 
L 510.69971 772.078615 
L 510.171429 772.608189 
z
M 558.626439 712.687953 
L 559.542857 712.188689 
L 559.821086 712.687953 
L 559.542857 712.966862 
z
M 309.394286 809.203131 
L 310.247077 808.372909 
L 309.394286 807.457489 
L 308.4811 808.372909 
z
M 483.84 809.849076 
L 485.317584 808.372909 
L 483.84 806.639401 
L 481.781868 808.372909 
z
M 487.131429 806.554627 
L 488.609013 805.073428 
L 487.131429 803.578744 
L 485.402151 805.073428 
z
M 335.725714 779.529066 
L 336.601589 778.677578 
L 335.725714 777.808324 
L 334.858582 778.677578 
z
M 533.211429 753.787338 
L 534.713364 752.281728 
L 534.650979 748.982247 
L 533.211429 747.12989 
L 530.947447 748.982247 
L 531.715457 752.281728 
z
M 536.502857 747.125838 
L 537.942408 745.682765 
L 536.502857 744.118025 
L 534.655021 745.682765 
z
M 506.88 581.592854 
L 507.755178 580.708702 
L 506.88 579.855853 
L 506.009379 580.708702 
z
M 529.92 555.189872 
L 530.788215 554.312852 
L 529.92 553.455922 
L 529.065161 554.312852 
z
M 552.96 528.788794 
L 553.823137 527.917002 
L 552.96 527.053193 
L 552.098299 527.917002 
z
M 556.251429 525.48277 
L 557.232254 524.617521 
L 556.251429 523.752312 
L 555.389728 524.617521 
z
M 576 502.475449 
L 576 501.521152 
L 576 500.650573 
L 575.131546 501.521152 
z
" clip-path="url(#pc059063380)" style="fill: #eff6fc; fill-opacity: 0.9"/>
    <path clip-path="url(#pc059063380)" style="fill: #eaf3fb; fill-opacity: 0.9"/>
    <path clip-path="url(#pc059063380)" style="fill: #e5eff9; fill-opacity: 0.9"/>
    <path clip-path="url(#pc059063380)" style="fill: #dfecf7; fill-opacity: 0.9"/>
    <path clip-path="url(#pc059063380)" style="fill: #dae8f6; fill-opacity: 0.9"/>
    <path clip-path="url(#pc059063380)" style="fill: #d6e5f4; fill-opacity: 0.9"/>
    <path clip-path="url(#pc059063380)" style="fill: #d0e2f2; fill-opacity: 0.9"/>
    <path clip-path="url(#pc059063380)" style="fill: #cbdef1; fill-opacity: 0.9"/>
    <path clip-path="url(#pc059063380)" style="fill: #c6dbef; fill-opacity: 0.9"/>
    <path clip-path="url(#pc059063380)" style="fill: #bed8ec; fill-opacity: 0.9"/>
    <path clip-path="url(#pc059063380)" style="fill: #b5d4e9; fill-opacity: 0.9"/>
    <path clip-path="url(#pc059063380)" style="fill: #add0e6; fill-opacity: 0.9"/>
    <path clip-path="url(#pc059063380)" style="fill: #a5cde3; fill-opacity: 0.9"/>
    <path clip-path="url(#pc059063380)" style="fill: #9cc9e1; fill-opacity: 0.9"/>
    <path clip-path="url(#pc059063380)" style="fill: #91c3de; fill-opacity: 0.9"/>
    <path clip-path="url(#pc059063380)" style="fill: #85bcdc; fill-opacity: 0.9"/>
    <path clip-path="url(#pc059063380)" style="fill: #7cb7da; fill-opacity: 0.9"/>
    <path clip-path="url(#pc059063380)" style="fill: #71b1d7; fill-opacity: 0.9"/>
    <path clip-path="url(#pc059063380)" style="fill: #66abd4; fill-opacity: 0.9"/>
    <path clip-path="url(#pc059063380)" style="fill: #5da5d1; fill-opacity: 0.9"/>
    <path clip-path="url(#pc059063380)" style="fill: #56a0ce; fill-opacity: 0.9"/>
    <path clip-path="url(#pc059063380)" style="fill: #4d99ca; fill-opacity: 0.9"/>
    <path clip-path="url(#pc059063380)" style="fill: #4493c7; fill-opacity: 0.9"/>
    <path clip-path="url(#pc059063380)" style="fill: #3c8cc3; fill-opacity: 0.9"/>
    <path clip-path="url(#pc059063380)" style="fill: #3686c0; fill-opacity: 0.9"/>
    <path clip-path="url(#pc059063380)" style="fill: #2f7fbc; fill-opacity: 0.9"/>
    <path clip-path="url(#pc059063380)" style="fill: #2777b8; fill-opacity: 0.9"/>
    <path clip-path="url(#pc059063380)" style="fill: #2070b4; fill-opacity: 0.9"/>
    <path clip-path="url(#pc059063380)" style="fill: #1c6ab0; fill-opacity: 0.9"/>
    <path clip-path="url(#pc059063380)" style="fill: #1663aa; fill-opacity: 0.9"/>
    <path clip-path="url(#pc059063380)" style="fill: #115ca5; fill-opacity: 0.9"/>
    <path clip-path="url(#pc059063380)" style="fill: #0c56a0; fill-opacity: 0.9"/>
    <path clip-path="url(#pc059063380)" style="fill: #084f99; fill-opacity: 0.9"/>
    <path clip-path="url(#pc059063380)" style="fill: #08488e; fill-opacity: 0.9"/>
    <path clip-path="url(#pc059063380)" style="fill: #084184; fill-opacity: 0.9"/>
    <path clip-path="url(#pc059063380)" style="fill: #083a7a; fill-opacity: 0.9"/>
    <path clip-path="url(#pc059063380)" style="fill: #083370; fill-opacity: 0.9"/>
    <path clip-path="url(#pc059063380)" style="fill: #08306b; fill-opacity: 0.9"/>
   </g>
   <g id="QuadContourSet_2">
    <path d="M 470.638798 821.570834 
L 470.674286 821.507537 
L 473.902571 818.271353 
L 473.965714 818.124994 
L 477.111141 814.971872 
L 477.257143 814.88134 
L 480.45826 811.67239 
L 480.548571 811.569936 
L 483.84 811.643241 
L 487.113472 808.372909 
L 487.131429 808.354908 
L 490.4049 805.073428 
L 488.43244 801.773947 
L 490.422857 801.755946 
L 493.696329 798.474465 
L 493.683124 795.174984 
L 493.714286 795.133552 
L 496.964383 791.875503 
L 497.005714 791.731766 
L 500.153757 788.576022 
L 500.297143 788.468843 
L 503.481654 785.27654 
L 503.588571 784.671724 
L 506.27666 781.977059 
L 506.88 781.959139 
L 510.171429 781.963898 
L 513.462857 778.677578 
L 513.449728 775.378097 
L 513.462857 775.364935 
L 516.741157 772.078615 
L 516.713734 768.779134 
L 516.754286 768.708372 
L 519.975125 765.479653 
L 520.045714 765.208497 
L 523.066649 762.180172 
L 523.305219 758.88069 
L 523.337143 758.825851 
L 526.573866 755.581209 
L 526.628571 755.544975 
L 529.883854 752.281728 
L 529.92 752.243105 
L 529.93307 752.281728 
L 533.211429 755.581209 
L 536.502857 752.281728 
L 536.366143 748.982247 
L 536.502857 748.845198 
L 539.657572 745.682765 
L 538.036036 742.383284 
L 539.794286 742.246235 
L 542.949 739.083803 
L 542.873455 735.784321 
L 543.07206 735.403225 
M 556.288048 722.449883 
L 559.542857 722.437267 
L 562.834286 719.286915 
L 562.685521 715.987434 
L 562.834286 715.838305 
L 565.976949 712.687953 
L 565.736902 709.388471 
L 566.125714 708.777249 
L 568.807413 706.08899 
L 569.417143 704.449417 
L 571.073 702.789509 
L 571.934874 699.490028 
L 572.708571 698.964735 
L 575.47599 696.190546 
L 576 695.826083 
M 576 506.503291 
L 574.576975 508.120114 
L 572.708571 510.32897 
L 571.631491 511.419596 
L 570.158915 514.719077 
L 569.417143 515.888768 
L 567.716107 518.018558 
L 567.016749 521.318039 
L 566.125714 523.621385 
L 564.391611 524.617521 
L 562.898683 527.917002 
L 562.834286 528.436056 
L 562.204747 527.917002 
L 559.542857 527.524465 
L 559.245151 527.917002 
L 556.251429 530.322037 
L 555.348314 531.216483 
L 552.96 533.898266 
L 552.347489 534.515964 
L 549.95726 537.815446 
L 549.668571 538.035836 
L 547.24054 541.114927 
L 546.377143 542.374249 
L 544.882393 544.414408 
L 544.172279 547.71389 
L 543.085714 550.267734 
L 541.925154 551.013371 
L 540.215738 554.312852 
L 539.841627 557.612333 
L 539.794286 557.693294 
L 539.332451 557.612333 
L 536.502857 555.252836 
L 533.915225 557.612333 
L 533.211429 557.846434 
L 531.448673 560.911815 
L 529.92 562.018108 
L 528.244481 564.211296 
L 526.628571 565.546763 
L 524.986381 567.510777 
L 523.337143 569.526788 
L 522.110637 570.810258 
L 521.292096 574.10974 
L 520.045714 576.834493 
L 519.213679 577.409221 
L 517.461825 580.708702 
L 517.134749 584.008183 
L 516.754286 584.628961 
L 513.462857 584.68996 
L 510.171429 586.328291 
L 509.450546 587.307665 
L 506.88 589.37454 
L 505.738578 590.607146 
L 503.588571 593.00509 
L 502.687952 593.906627 
L 500.297143 596.969317 
L 500.062753 597.206108 
L 498.190679 600.50559 
L 497.005714 602.576248 
L 495.652556 603.805071 
L 494.568294 607.104552 
L 493.714286 608.931741 
L 491.454387 610.404033 
L 490.450698 613.703515 
L 490.422857 613.821497 
L 490.147285 613.703515 
L 487.131429 613.366447 
L 486.787242 613.703515 
L 484.450093 617.002996 
L 483.84 617.334116 
L 481.955536 620.302477 
L 480.548571 621.394252 
L 478.829964 623.601959 
L 477.257143 625.172678 
L 475.797457 626.90144 
L 474.00761 630.200921 
L 473.965714 630.246734 
L 471.821726 633.500402 
L 470.861995 636.799884 
L 470.674286 637.014698 
L 467.82254 640.099365 
L 467.411634 643.398846 
L 467.382857 643.433907 
L 467.109585 643.398846 
L 464.091429 642.805618 
L 463.696034 643.398846 
L 460.8 645.657526 
L 459.850032 646.698327 
L 457.508571 649.139447 
L 456.668812 649.997809 
L 454.217143 653.235636 
L 454.157459 653.29729 
L 451.82104 656.596771 
L 450.925714 657.982262 
L 449.403973 659.896252 
L 448.625516 663.195734 
L 447.634286 665.508566 
L 446.086316 666.495215 
L 444.605188 669.794696 
L 444.342857 672.164779 
L 441.587284 669.794696 
L 441.086635 669.728365 
M 428.18674 683.68057 
L 427.885714 683.992321 
L 426.013952 686.292103 
L 425.278202 689.591584 
L 424.594286 690.687805 
L 422.386722 692.891065 
L 421.717819 696.190546 
L 421.302857 697.312867 
L 418.011429 697.478218 
L 414.72 698.891966 
L 414.147287 699.490028 
L 411.428571 702.606816 
L 411.254304 702.789509 
L 408.776734 706.08899 
L 408.137143 706.565228 
L 405.792035 709.388471 
L 404.845714 710.169769 
L 402.806941 712.687953 
L 401.554286 715.08779 
L 400.693049 715.987434 
L 399.123809 719.286915 
L 398.305455 722.586396 
L 398.262857 722.64144 
L 395.087219 725.885878 
L 394.971429 726.705691 
L 394.037611 725.885878 
L 391.68 725.607325 
L 391.414461 725.885878 
L 388.388571 728.587752 
L 387.815096 729.185359 
L 385.097143 732.352547 
L 384.967548 732.48484 
L 382.302028 735.784321 
L 381.805714 736.168172 
L 379.286349 739.083803 
L 378.514286 739.864635 
L 376.547449 742.383284 
L 375.652396 745.682765 
L 375.222857 746.316114 
L 372.807176 748.982247 
L 372.278671 752.281728 
L 371.931429 752.96988 
L 368.64 752.856893 
L 365.348571 754.941037 
L 364.750355 755.581209 
L 362.057143 757.839768 
L 361.011365 758.88069 
L 358.765714 761.43047 
L 357.97298 762.180172 
L 355.474286 765.09483 
L 355.061595 765.479653 
L 352.739222 768.779134 
L 352.182857 769.511053 
L 350.459149 772.078615 
L 349.832118 775.378097 
L 348.891429 776.915898 
L 346.764277 778.677578 
L 345.973021 781.977059 
L 345.6 783.095962 
L 342.308571 782.443971 
L 339.017143 784.211337 
L 338.066687 785.27654 
L 335.725714 787.065063 
L 334.330657 788.576022 
L 332.434286 790.244851 
L 330.907404 791.875503 
L 329.142857 793.759972 
L 327.687371 795.174984 
L 326.23623 798.474465 
L 325.851429 799.05026 
L 323.694747 801.773947 
L 323.155495 805.073428 
L 322.56 806.170638 
L 319.360139 808.372909 
L 319.268571 808.755936 
L 318.846455 808.372909 
L 315.977143 807.975122 
L 315.607109 808.372909 
L 312.685714 811.594133 
L 312.612846 811.67239 
L 309.871881 814.971872 
L 309.394286 815.304142 
L 306.76323 818.271353 
L 306.102857 818.791792 
L 303.553325 821.570834 
M 576 499.720518 
L 574.203761 501.521152 
L 576 503.494941 
M 309.394286 810.274812 
L 311.347893 808.372909 
L 309.394286 806.27583 
L 307.302325 808.372909 
L 309.394286 810.274812 
z
M 335.725714 780.607813 
L 337.71123 778.677578 
L 335.725714 776.707071 
L 333.760017 778.677578 
L 335.725714 780.607813 
z
M 506.88 582.560251 
L 508.712755 580.708702 
L 506.88 578.922706 
L 505.056788 580.708702 
L 506.88 582.560251 
z
M 529.92 556.143302 
L 531.732073 554.312852 
L 529.92 552.524332 
L 528.135845 554.312852 
L 529.92 556.143302 
z
M 552.96 529.727996 
L 554.753017 527.917002 
L 556.251429 526.414924 
L 558.288921 524.617521 
L 556.251429 522.820201 
L 554.461396 524.617521 
L 552.96 526.12259 
L 551.169967 527.917002 
L 552.96 529.727996 
z
" clip-path="url(#pc059063380)" style="fill: none"/>
    <path d="M 314.750852 821.570834 
L 312.685714 819.697183 
L 311.114442 818.271353 
L 309.394286 818.020661 
L 309.171994 818.271353 
L 306.102857 820.690136 
L 305.294892 821.570834 
M 468.454535 821.570834 
L 469.509639 819.464573 
M 479.004105 803.688171 
L 480.548571 802.961634 
L 483.84 802.32336 
L 484.267981 801.773947 
L 487.131429 799.232557 
L 490.422857 799.955665 
L 491.900441 798.474465 
L 490.566615 795.174984 
L 492.961761 791.875503 
L 493.714286 791.118349 
L 495.29099 788.576022 
L 496.358022 785.27654 
L 497.005714 784.561553 
L 499.071314 781.977059 
L 499.681436 778.677578 
L 500.297143 778.004757 
L 503.248499 775.378097 
L 503.588571 773.058732 
L 506.281209 775.378097 
L 504.244906 778.677578 
L 506.88 780.166899 
L 510.171429 780.169074 
L 511.665244 778.677578 
L 511.659285 775.378097 
L 513.462857 773.570112 
L 514.950714 772.078615 
L 513.462857 769.873025 
L 511.720714 768.779134 
L 513.462857 767.425551 
L 515.013175 765.479653 
L 516.754286 763.794825 
L 518.103387 762.180172 
L 519.281871 758.88069 
L 520.045714 757.999677 
L 521.853465 755.581209 
L 522.609376 752.281728 
L 523.337143 751.452528 
L 525.853177 748.982247 
L 526.293251 745.682765 
L 526.628571 745.298979 
L 529.622559 745.682765 
L 529.92 745.762286 
L 529.966551 745.682765 
L 533.211429 743.256386 
L 533.877209 742.383284 
L 536.502857 740.128478 
L 539.794286 740.526875 
L 541.233836 739.083803 
L 540.210526 735.784321 
L 541.938796 732.48484 
L 543.085714 730.810728 
L 544.256543 729.185359 
L 544.961629 725.885878 
L 546.377143 722.892754 
L 546.838736 722.586396 
L 548.870649 719.286915 
L 549.196439 715.987434 
L 549.668571 715.326344 
L 552.96 715.131134 
L 553.977364 715.987434 
L 553.487098 719.286915 
L 556.251429 720.739159 
L 559.542857 720.733033 
L 561.053734 719.286915 
L 560.985446 715.987434 
L 562.834286 714.13407 
L 564.276874 712.687953 
L 562.834286 710.345628 
L 561.38263 709.388471 
L 562.834286 708.269664 
L 564.557385 706.08899 
L 566.125714 704.273497 
L 567.295952 702.789509 
L 567.914832 699.490028 
L 569.417143 696.74089 
L 570.109131 696.190546 
L 571.64994 692.891065 
L 572.046751 689.591584 
L 572.708571 688.759637 
L 575.837682 686.292103 
L 576 685.45364 
M 576 507.797299 
L 575.715878 508.120114 
L 573.615167 511.419596 
L 572.708571 511.97641 
L 571.476019 514.719077 
L 569.417143 517.965689 
L 569.374917 518.018558 
L 568.258005 521.318039 
L 567.524597 524.617521 
L 566.125714 526.04966 
L 564.597934 527.917002 
L 564.352434 531.216483 
L 562.834286 533.89686 
L 561.716441 534.515964 
L 559.911119 537.815446 
L 559.542857 539.418452 
L 557.598642 537.815446 
L 556.251429 536.704668 
L 552.96 536.807624 
L 552.30454 537.815446 
L 549.668571 539.827788 
L 548.653592 541.114927 
L 546.412691 544.414408 
L 546.377143 544.450084 
L 545.316778 547.71389 
L 544.529184 551.013371 
L 543.085714 552.550838 
L 541.785422 554.312852 
L 541.528483 557.612333 
L 539.794286 560.578065 
L 539.252847 560.911815 
L 537.403891 564.211296 
L 536.845119 567.510777 
L 536.502857 567.854174 
L 534.746254 567.510777 
L 533.211429 566.23084 
L 530.789284 564.211296 
L 529.92 564.101269 
L 529.835943 564.211296 
L 526.628571 566.862025 
L 526.086124 567.510777 
L 523.528382 570.810258 
L 523.337143 570.965119 
L 522.357757 574.10974 
L 521.529229 577.409221 
L 520.045714 579.020932 
L 518.906266 580.708702 
L 518.653734 584.008183 
L 516.754286 587.107386 
L 516.455737 587.307665 
L 514.727414 590.607146 
L 514.338809 593.906627 
L 513.462857 594.785136 
L 510.171429 595.703221 
L 508.03702 593.906627 
L 506.88 592.93281 
L 506.397502 593.906627 
L 503.588571 595.37805 
L 502.378688 597.206108 
L 500.297143 598.824689 
L 499.291793 600.50559 
L 497.943038 603.805071 
L 497.005714 604.751327 
L 495.852047 607.104552 
L 494.839423 610.404033 
L 493.714286 611.539612 
L 492.182859 613.703515 
L 491.712855 617.002996 
L 490.422857 618.304682 
L 488.108115 620.302477 
L 487.585285 623.601959 
L 487.131429 624.061353 
L 484.76019 623.601959 
L 483.84 622.827314 
L 480.548571 623.166585 
L 480.209651 623.601959 
L 477.257143 626.550522 
L 476.960844 626.90144 
L 475.776488 630.200921 
L 473.965714 632.180979 
L 473.096287 633.500402 
L 472.552178 636.799884 
L 470.674286 638.948943 
L 469.610732 640.099365 
L 469.189081 643.398846 
L 467.382857 645.599516 
L 465.863104 646.698327 
L 465.086571 649.997809 
L 464.091429 651.524721 
L 460.8 652.393998 
L 457.508571 652.139371 
L 456.817813 653.29729 
L 454.217143 655.23472 
L 453.245107 656.596771 
L 451.374587 659.896252 
L 450.925714 660.346613 
L 449.88129 663.195734 
L 449.094822 666.495215 
L 447.634286 667.960103 
L 446.259831 669.794696 
L 446.088569 673.094177 
L 444.342857 675.589624 
L 443.144462 676.393659 
L 441.940723 679.69314 
L 441.361809 682.992621 
L 441.051429 683.304018 
L 439.551068 682.992621 
L 437.76 681.452134 
L 435.714929 679.69314 
L 434.468571 679.45748 
L 434.293128 679.69314 
L 431.177143 682.087035 
L 430.420822 682.992621 
L 427.885714 685.618051 
L 427.337113 686.292103 
L 426.706141 689.591584 
L 424.736794 692.891065 
L 424.594286 693.034076 
L 423.294186 696.190546 
L 422.528911 699.490028 
L 421.302857 700.719922 
L 419.479429 702.789509 
L 419.180827 706.08899 
L 418.011429 707.657931 
L 415.086234 709.388471 
L 414.72 710.375385 
L 413.58433 709.388471 
L 411.428571 707.515048 
L 408.137143 708.736259 
L 407.595387 709.388471 
L 404.845714 711.658646 
L 404.012366 712.687953 
L 402.959381 715.987434 
L 401.554286 717.397145 
L 400.460477 719.286915 
L 400.092636 722.586396 
L 398.262857 724.950796 
L 397.347604 725.885878 
L 396.645726 729.185359 
L 395.005335 732.48484 
L 394.971429 732.518873 
L 392.458091 735.784321 
L 391.856106 739.083803 
L 391.68 739.26055 
L 390.84114 739.083803 
L 388.388571 736.930763 
L 387.082742 735.784321 
L 385.097143 735.440205 
L 384.822593 735.784321 
L 381.805714 738.117589 
L 380.970819 739.083803 
L 378.514286 741.568239 
L 377.877809 742.383284 
L 377.23313 745.682765 
L 375.222857 748.646886 
L 374.918999 748.982247 
L 373.906754 752.281728 
L 372.560061 755.581209 
L 371.931429 756.212193 
L 370.08667 758.88069 
L 369.78712 762.180172 
L 368.64 763.33126 
L 365.546051 765.479653 
L 365.348571 766.320581 
L 364.400315 765.479653 
L 362.057143 763.401555 
L 358.765714 764.300797 
L 357.867068 765.479653 
L 355.474286 767.270007 
L 354.362775 768.779134 
L 352.182857 771.646894 
L 351.893025 772.078615 
L 351.60716 773.328908 
M 343.530596 790.206244 
L 343.348112 791.875503 
L 342.308571 793.106281 
L 339.017143 794.369557 
L 336.233169 791.875503 
L 335.725714 791.420855 
L 332.434286 791.762825 
L 332.328779 791.875503 
L 329.573462 795.174984 
L 329.142857 795.436285 
L 327.861266 798.474465 
L 325.851429 801.481867 
L 325.620153 801.773947 
L 324.665847 805.073428 
L 323.252196 808.372909 
L 322.56 809.068187 
L 320.961483 811.67239 
L 320.611469 814.971872 
L 319.268571 816.319931 
L 316.803721 818.271353 
L 316.234299 821.570834 
M 576 500.650573 
L 575.131546 501.521152 
L 576 502.475449 
M 309.394286 809.203131 
L 310.247077 808.372909 
L 309.394286 807.457489 
L 308.4811 808.372909 
L 309.394286 809.203131 
z
M 483.84 809.849076 
L 485.317584 808.372909 
L 483.84 806.639401 
L 481.781868 808.372909 
L 483.84 809.849076 
z
M 487.131429 806.554627 
L 488.609013 805.073428 
L 487.131429 803.578744 
L 485.402151 805.073428 
L 487.131429 806.554627 
z
M 335.725714 779.529066 
L 336.601589 778.677578 
L 335.725714 777.808324 
L 334.858582 778.677578 
L 335.725714 779.529066 
z
M 510.171429 772.608189 
L 508.424944 772.078615 
L 510.171429 771.080869 
L 510.69971 772.078615 
L 510.171429 772.608189 
M 533.211429 753.787338 
L 534.713364 752.281728 
L 534.650979 748.982247 
L 533.211429 747.12989 
L 530.947447 748.982247 
L 531.715457 752.281728 
L 533.211429 753.787338 
z
M 536.502857 747.125838 
L 537.942408 745.682765 
L 536.502857 744.118025 
L 534.655021 745.682765 
L 536.502857 747.125838 
z
M 559.542857 712.966862 
L 558.626439 712.687953 
L 559.542857 712.188689 
L 559.821086 712.687953 
L 559.542857 712.966862 
M 506.88 581.592854 
L 507.755178 580.708702 
L 506.88 579.855853 
L 506.009379 580.708702 
L 506.88 581.592854 
z
M 529.92 555.189872 
L 530.788215 554.312852 
L 529.92 553.455922 
L 529.065161 554.312852 
L 529.92 555.189872 
z
M 552.96 528.788794 
L 553.823137 527.917002 
L 552.96 527.053193 
L 552.098299 527.917002 
L 552.96 528.788794 
z
M 556.251429 525.48277 
L 557.232254 524.617521 
L 556.251429 523.752312 
L 555.389728 524.617521 
L 556.251429 525.48277 
z
" clip-path="url(#pc059063380)" style="fill: none"/>
    <path clip-path="url(#pc059063380)" style="fill: none"/>
    <path clip-path="url(#pc059063380)" style="fill: none"/>
    <path clip-path="url(#pc059063380)" style="fill: none"/>
    <path clip-path="url(#pc059063380)" style="fill: none"/>
    <path clip-path="url(#pc059063380)" style="fill: none"/>
    <path clip-path="url(#pc059063380)" style="fill: none"/>
    <path clip-path="url(#pc059063380)" style="fill: none"/>
    <path clip-path="url(#pc059063380)" style="fill: none"/>
    <path clip-path="url(#pc059063380)" style="fill: none"/>
    <path clip-path="url(#pc059063380)" style="fill: none"/>
    <path clip-path="url(#pc059063380)" style="fill: none"/>
    <path clip-path="url(#pc059063380)" style="fill: none"/>
    <path clip-path="url(#pc059063380)" style="fill: none"/>
    <path clip-path="url(#pc059063380)" style="fill: none"/>
    <path clip-path="url(#pc059063380)" style="fill: none"/>
    <path clip-path="url(#pc059063380)" style="fill: none"/>
    <path clip-path="url(#pc059063380)" style="fill: none"/>
    <path clip-path="url(#pc059063380)" style="fill: none"/>
    <path clip-path="url(#pc059063380)" style="fill: none"/>
    <path clip-path="url(#pc059063380)" style="fill: none"/>
    <path clip-path="url(#pc059063380)" style="fill: none"/>
    <path clip-path="url(#pc059063380)" style="fill: none"/>
    <path clip-path="url(#pc059063380)" style="fill: none"/>
    <path clip-path="url(#pc059063380)" style="fill: none"/>
    <path clip-path="url(#pc059063380)" style="fill: none"/>
    <path clip-path="url(#pc059063380)" style="fill: none"/>
    <path clip-path="url(#pc059063380)" style="fill: none"/>
    <path clip-path="url(#pc059063380)" style="fill: none"/>
    <path clip-path="url(#pc059063380)" style="fill: none"/>
    <path clip-path="url(#pc059063380)" style="fill: none"/>
    <path clip-path="url(#pc059063380)" style="fill: none"/>
    <path clip-path="url(#pc059063380)" style="fill: none"/>
    <path clip-path="url(#pc059063380)" style="fill: none"/>
    <path clip-path="url(#pc059063380)" style="fill: none"/>
    <path clip-path="url(#pc059063380)" style="fill: none"/>
    <path clip-path="url(#pc059063380)" style="fill: none"/>
    <path clip-path="url(#pc059063380)" style="fill: none"/>
   </g>
   <g id="text_1">
    <g clip-path="url(#pc059063380)">
     <!-- 0 -->
     <g style="opacity: 0" transform="translate(549.516076 733.628743) rotate(-47.332819) scale(0.12 -0.12)">
      <defs>
       <path id="DejaVuSans-30" d="M 2034 4250 
Q 1547 4250 1301 3770 
Q 1056 3291 1056 2328 
Q 1056 1369 1301 889 
Q 1547 409 2034 409 
Q 2525 409 2770 889 
Q 3016 1369 3016 2328 
Q 3016 3291 2770 3770 
Q 2525 4250 2034 4250 
z
M 2034 4750 
Q 2819 4750 3233 4129 
Q 3647 3509 3647 2328 
Q 3647 1150 3233 529 
Q 2819 -91 2034 -91 
Q 1250 -91 836 529 
Q 422 1150 422 2328 
Q 422 3509 836 4129 
Q 1250 4750 2034 4750 
z
" transform="scale(0.015625)"/>
      </defs>
      <use xlink:href="#DejaVuSans-30"/>
     </g>
    </g>
   </g>
   <g id="text_2">
    <g clip-path="url(#pc059063380)">
     <!-- 0 -->
     <g style="opacity: 0" transform="translate(434.42329 681.446268) rotate(-50.127008) scale(0.12 -0.12)">
      <use xlink:href="#DejaVuSans-30"/>
     </g>
    </g>
   </g>
   <g id="text_3">
    <g clip-path="url(#pc059063380)">
     <!-- 1 -->
     <g style="opacity: 0" transform="translate(475.133662 816.003733) rotate(-62.42492) scale(0.12 -0.12)">
      <defs>
       <path id="DejaVuSans-31" d="M 794 531 
L 1825 531 
L 1825 4091 
L 703 3866 
L 703 4441 
L 1819 4666 
L 2450 4666 
L 2450 531 
L 3481 531 
L 3481 0 
L 794 0 
L 794 531 
z
" transform="scale(0.015625)"/>
      </defs>
      <use xlink:href="#DejaVuSans-31"/>
     </g>
    </g>
   </g>
   <g id="text_4">
    <g clip-path="url(#pc059063380)">
     <!-- 1 -->
     <g style="opacity: 0" transform="translate(348.930397 786.851594) rotate(-64.355127) scale(0.12 -0.12)">
      <use xlink:href="#DejaVuSans-31"/>
     </g>
    </g>
   </g>
  </g>
 </g>
 <defs>
  <clipPath id="pc059063380">
   <rect x="0" y="0" width="576" height="821.570834"/>
  </clipPath>
 </defs>
</svg>
