<?xml version="1.0" encoding="utf-8" standalone="no"?>
<!DOCTYPE svg PUBLIC "-//W3C//DTD SVG 1.1//EN"
  "http://www.w3.org/Graphics/SVG/1.1/DTD/svg11.dtd">
<svg xmlns:xlink="http://www.w3.org/1999/xlink" width="576pt" height="819.536585pt" viewBox="0 0 576 819.536585" xmlns="http://www.w3.org/2000/svg" version="1.1">
 <metadata>
  <rdf:RDF xmlns:dc="http://purl.org/dc/elements/1.1/" xmlns:cc="http://creativecommons.org/ns#" xmlns:rdf="http://www.w3.org/1999/02/22-rdf-syntax-ns#">
   <cc:Work>
    <dc:type rdf:resource="http://purl.org/dc/dcmitype/StillImage"/>
    <dc:date>2025-07-25T22:44:17.764300</dc:date>
    <dc:format>image/svg+xml</dc:format>
    <dc:creator>
     <cc:Agent>
      <dc:title>Matplotlib v3.10.3, https://matplotlib.org/</dc:title>
     </cc:Agent>
    </dc:creator>
   </cc:Work>
  </rdf:RDF>
 </metadata>
 <defs>
  <style type="text/css">*{stroke-linejoin: round; stroke-linecap: butt}</style>
 </defs>
 <g id="figure_1">
  <g id="patch_1">
   <path d="M 0 819.536585 
L 576 819.536585 
L 576 0 
L 0 0 
L 0 819.536585 
z
" style="fill: none; opacity: 0"/>
  </g>
  <g id="axes_1">
   <g id="QuadContourSet_1">
    <path d="M 3.291429 819.536585 
L 6.582857 819.536585 
L 9.874286 819.536585 
L 13.165714 819.536585 
L 16.457143 819.536585 
L 19.748571 819.536585 
L 23.04 819.536585 
L 26.331429 819.536585 
L 29.622857 819.536585 
L 32.914286 819.536585 
L 36.205714 819.536585 
L 39.497143 819.536585 
L 42.788571 819.536585 
L 46.08 819.536585 
L 49.371429 819.536585 
L 52.662857 819.536585 
L 55.954286 819.536585 
L 59.245714 819.536585 
L 62.537143 819.536585 
L 65.828571 819.536585 
L 69.12 819.536585 
L 72.411429 819.536585 
L 75.702857 819.536585 
L 78.994286 819.536585 
L 82.285714 819.536585 
L 85.577143 819.536585 
L 88.868571 819.536585 
L 92.16 819.536585 
L 95.451429 819.536585 
L 98.742857 819.536585 
L 102.034286 819.536585 
L 105.325714 819.536585 
L 108.617143 819.536585 
L 111.908571 819.536585 
L 115.2 819.536585 
L 118.491429 819.536585 
L 121.782857 819.536585 
L 125.074286 819.536585 
L 128.365714 819.536585 
L 131.657143 819.536585 
L 134.948571 819.536585 
L 138.24 819.536585 
L 141.531429 819.536585 
L 144.822857 819.536585 
L 148.114286 819.536585 
L 151.405714 819.536585 
L 154.697143 819.536585 
L 157.988571 819.536585 
L 161.28 819.536585 
L 164.571429 819.536585 
L 167.862857 819.536585 
L 171.154286 819.536585 
L 174.445714 819.536585 
L 177.737143 819.536585 
L 181.028571 819.536585 
L 184.32 819.536585 
L 187.611429 819.536585 
L 190.902857 819.536585 
L 194.194286 819.536585 
L 197.485714 819.536585 
L 200.777143 819.536585 
L 204.068571 819.536585 
L 207.36 819.536585 
L 210.651429 819.536585 
L 213.942857 819.536585 
L 217.234286 819.536585 
L 220.525714 819.536585 
L 223.817143 819.536585 
L 227.108571 819.536585 
L 230.4 819.536585 
L 233.691429 819.536585 
L 236.982857 819.536585 
L 240.274286 819.536585 
L 243.565714 819.536585 
L 246.857143 819.536585 
L 250.148571 819.536585 
L 253.44 819.536585 
L 256.731429 819.536585 
L 260.022857 819.536585 
L 263.314286 819.536585 
L 266.605714 819.536585 
L 269.897143 819.536585 
L 273.188571 819.536585 
L 276.48 819.536585 
L 279.771429 819.536585 
L 283.062857 819.536585 
L 286.354286 819.536585 
L 289.645714 819.536585 
L 292.937143 819.536585 
L 296.228571 819.536585 
L 299.52 819.536585 
L 302.811429 819.536585 
L 306.102857 819.536585 
L 309.394286 819.536585 
L 312.685714 819.536585 
L 315.977143 819.536585 
L 319.268571 819.536585 
L 322.56 819.536585 
L 325.851429 819.536585 
L 329.142857 819.536585 
L 332.434286 819.536585 
L 335.725714 819.536585 
L 339.017143 819.536585 
L 342.308571 819.536585 
L 345.6 819.536585 
L 348.891429 819.536585 
L 352.182857 819.536585 
L 355.474286 819.536585 
L 358.765714 819.536585 
L 362.057143 819.536585 
L 365.348571 819.536585 
L 368.64 819.536585 
L 371.931429 819.536585 
L 375.222857 819.536585 
L 378.514286 819.536585 
L 381.805714 819.536585 
L 385.097143 819.536585 
L 388.388571 819.536585 
L 391.68 819.536585 
L 394.971429 819.536585 
L 398.262857 819.536585 
L 401.554286 819.536585 
L 404.845714 819.536585 
L 408.137143 819.536585 
L 411.428571 819.536585 
L 414.72 819.536585 
L 418.011429 819.536585 
L 421.302857 819.536585 
L 424.594286 819.536585 
L 427.885714 819.536585 
L 431.177143 819.536585 
L 434.468571 819.536585 
L 437.76 819.536585 
L 441.051429 819.536585 
L 444.342857 819.536585 
L 447.634286 819.536585 
L 450.925714 819.536585 
L 454.217143 819.536585 
L 457.508571 819.536585 
L 460.8 819.536585 
L 464.091429 819.536585 
L 467.382857 819.536585 
L 470.674286 819.536585 
L 473.965714 819.536585 
L 477.257143 819.536585 
L 480.548571 819.536585 
L 483.84 819.536585 
L 487.131429 819.536585 
L 490.422857 819.536585 
L 493.714286 819.536585 
L 497.005714 819.536585 
L 500.297143 819.536585 
L 503.588571 819.536585 
L 506.88 819.536585 
L 510.171429 819.536585 
L 513.462857 819.536585 
L 516.754286 819.536585 
L 520.045714 819.536585 
L 523.337143 819.536585 
L 526.628571 819.536585 
L 529.92 819.536585 
L 533.211429 819.536585 
L 536.502857 819.536585 
L 539.794286 819.536585 
L 543.085714 819.536585 
L 546.377143 819.536585 
L 549.668571 819.536585 
L 552.96 819.536585 
L 556.251429 819.536585 
L 559.542857 819.536585 
L 562.834286 819.536585 
L 566.125714 819.536585 
L 569.417143 819.536585 
L 572.708571 819.536585 
L 576 819.536585 
L 576 816.245274 
L 576 812.953962 
L 576 809.66265 
L 576 806.371339 
L 576 803.080027 
L 576 799.788716 
L 576 796.497404 
L 576 793.206092 
L 576 789.914781 
L 576 786.623469 
L 576 783.332158 
L 576 780.040846 
L 576 776.749534 
L 576 773.458223 
L 576 770.166911 
L 576 766.8756 
L 576 763.584288 
L 576 760.292977 
L 576 757.001665 
L 576 753.710353 
L 576 750.419042 
L 576 747.12773 
L 576 743.836419 
L 576 740.545107 
L 576 737.253795 
L 576 733.962484 
L 576 730.671172 
L 576 727.379861 
L 576 724.088549 
L 576 720.797238 
L 576 717.505926 
L 576 714.214614 
L 576 710.923303 
L 576 707.631991 
L 576 704.34068 
L 576 701.049368 
L 576 697.758056 
L 576 694.466745 
L 576 691.175433 
L 576 687.884122 
L 576 684.59281 
L 576 681.301498 
L 576 678.010187 
L 576 674.718875 
L 576 671.427564 
L 576 668.136252 
L 576 664.844941 
L 576 661.553629 
L 576 658.262317 
L 576 654.971006 
L 576 651.679694 
L 576 648.388383 
L 576 645.097071 
L 576 641.805759 
L 576 638.514448 
L 576 635.223136 
L 576 631.931825 
L 576 628.640513 
L 576 625.349201 
L 576 622.05789 
L 576 618.766578 
L 576 615.475267 
L 576 612.183955 
L 576 608.892644 
L 576 605.601332 
L 576 602.31002 
L 576 599.018709 
L 576 595.727397 
L 576 592.436086 
L 576 589.144774 
L 576 585.853462 
L 576 582.562151 
L 576 579.270839 
L 576 575.979528 
L 576 572.688216 
L 576 569.396905 
L 576 566.105593 
L 576 562.814281 
L 576 559.52297 
L 576 556.231658 
L 576 552.940347 
L 576 549.649035 
L 576 546.357723 
L 576 543.066412 
L 576 539.7751 
L 576 536.483789 
L 576 533.192477 
L 576 529.901165 
L 576 526.609854 
L 576 523.318542 
L 576 520.027231 
L 576 516.735919 
L 576 513.444608 
L 576 510.153296 
L 576 506.861984 
L 576 503.570673 
L 576 500.279361 
L 576 496.98805 
L 576 493.696738 
L 576 490.405426 
L 576 487.114115 
L 576 483.822803 
L 576 480.531492 
L 576 477.24018 
L 576 473.948869 
L 576 470.657557 
L 576 467.366245 
L 576 464.074934 
L 576 460.783622 
L 576 457.492311 
L 576 454.200999 
L 576 450.909687 
L 576 447.618376 
L 576 444.327064 
L 576 441.035753 
L 576 437.744441 
L 576 434.453129 
L 576 431.161818 
L 576 427.870506 
L 576 424.579195 
L 576 421.287883 
L 576 417.996572 
L 576 414.70526 
L 576 411.413948 
L 576 408.122637 
L 576 404.831325 
L 576 401.540014 
L 576 398.248702 
L 576 394.95739 
L 576 391.666079 
L 576 388.374767 
L 576 385.083456 
L 576 381.792144 
L 576 378.500832 
L 576 375.209521 
L 576 371.918209 
L 576 368.626898 
L 576 365.335586 
L 576 362.044275 
L 576 358.752963 
L 576 355.461651 
L 576 352.17034 
L 576 348.879028 
L 576 345.587717 
L 576 342.296405 
L 576 339.005093 
L 576 335.713782 
L 576 332.42247 
L 576 329.131159 
L 576 325.839847 
L 576 322.548536 
L 576 319.257224 
L 576 315.965912 
L 576 312.674601 
L 576 309.383289 
L 576 306.091978 
L 576 302.800666 
L 576 299.509354 
L 576 296.218043 
L 576 292.926731 
L 576 289.63542 
L 576 286.344108 
L 576 283.052796 
L 576 279.761485 
L 576 276.470173 
L 576 273.178862 
L 576 269.88755 
L 576 266.596239 
L 576 263.304927 
L 576 260.013615 
L 576 256.722304 
L 576 253.430992 
L 576 250.139681 
L 576 246.848369 
L 576 243.557057 
L 576 240.265746 
L 576 236.974434 
L 576 233.683123 
L 576 230.391811 
L 576 227.100499 
L 576 223.809188 
L 576 220.517876 
L 576 217.226565 
L 576 213.935253 
L 576 210.643942 
L 576 207.35263 
L 576 204.061318 
L 576 200.770007 
L 576 197.478695 
L 576 194.187384 
L 576 190.896072 
L 576 187.60476 
L 576 184.313449 
L 576 181.022137 
L 576 177.730826 
L 576 174.439514 
L 576 171.148203 
L 576 167.856891 
L 576 164.565579 
L 576 161.274268 
L 576 157.982956 
L 576 154.691645 
L 576 151.400333 
L 576 148.109021 
L 576 144.81771 
L 576 141.526398 
L 576 138.235087 
L 576 134.943775 
L 576 131.652463 
L 576 128.361152 
L 576 125.06984 
L 576 121.778529 
L 576 118.487217 
L 576 115.195906 
L 576 111.904594 
L 576 108.613282 
L 576 105.321971 
L 576 102.030659 
L 576 98.739348 
L 576 95.448036 
L 576 92.156724 
L 576 88.865413 
L 576 85.574101 
L 576 82.28279 
L 576 78.991478 
L 576 75.700166 
L 576 72.408855 
L 576 69.117543 
L 576 65.826232 
L 576 62.53492 
L 576 59.243609 
L 576 55.952297 
L 576 52.660985 
L 576 49.369674 
L 576 46.078362 
L 576 42.787051 
L 576 39.495739 
L 576 36.204427 
L 576 32.913116 
L 576 29.621804 
L 576 26.330493 
L 576 23.039181 
L 576 19.74787 
L 576 16.456558 
L 576 13.165246 
L 576 9.873935 
L 576 6.582623 
L 576 3.291312 
L 576 0 
L 572.708571 0 
L 569.417143 0 
L 566.125714 0 
L 562.834286 0 
L 559.542857 0 
L 556.251429 0 
L 552.96 0 
L 549.668571 0 
L 546.377143 0 
L 543.085714 0 
L 539.794286 0 
L 536.502857 0 
L 533.211429 0 
L 529.92 0 
L 526.628571 0 
L 523.337143 0 
L 520.045714 0 
L 516.754286 0 
L 513.462857 0 
L 510.171429 0 
L 506.88 0 
L 503.588571 0 
L 500.297143 0 
L 497.005714 0 
L 493.714286 0 
L 490.422857 0 
L 487.131429 0 
L 483.84 0 
L 480.548571 0 
L 477.257143 0 
L 473.965714 0 
L 470.674286 0 
L 467.382857 0 
L 464.091429 0 
L 460.8 0 
L 457.508571 0 
L 454.217143 0 
L 450.925714 0 
L 447.634286 0 
L 444.342857 0 
L 441.051429 0 
L 437.76 0 
L 434.468571 0 
L 431.177143 0 
L 427.885714 0 
L 424.594286 0 
L 421.302857 0 
L 418.011429 0 
L 414.72 0 
L 411.428571 0 
L 408.137143 0 
L 404.845714 0 
L 401.554286 0 
L 398.262857 0 
L 394.971429 0 
L 391.68 0 
L 388.388571 0 
L 385.097143 0 
L 381.805714 0 
L 378.514286 0 
L 375.222857 0 
L 371.931429 0 
L 368.64 0 
L 365.348571 0 
L 362.057143 0 
L 358.765714 0 
L 355.474286 0 
L 352.182857 0 
L 348.891429 0 
L 345.6 0 
L 342.308571 0 
L 339.017143 0 
L 335.725714 0 
L 332.434286 0 
L 329.142857 0 
L 325.851429 0 
L 322.56 0 
L 319.268571 0 
L 315.977143 0 
L 312.685714 0 
L 309.394286 0 
L 306.102857 0 
L 302.811429 0 
L 299.52 0 
L 296.228571 0 
L 292.937143 0 
L 289.645714 0 
L 286.354286 0 
L 283.062857 0 
L 279.771429 0 
L 276.48 0 
L 273.188571 0 
L 269.897143 0 
L 266.605714 0 
L 263.314286 0 
L 260.022857 0 
L 256.731429 0 
L 253.44 0 
L 250.148571 0 
L 246.857143 0 
L 243.565714 0 
L 240.274286 0 
L 236.982857 0 
L 233.691429 0 
L 230.4 0 
L 227.108571 0 
L 223.817143 0 
L 220.525714 0 
L 217.234286 0 
L 213.942857 0 
L 210.651429 0 
L 207.36 0 
L 204.068571 0 
L 200.777143 0 
L 197.485714 0 
L 194.194286 0 
L 190.902857 0 
L 187.611429 0 
L 184.32 0 
L 181.028571 0 
L 177.737143 0 
L 174.445714 0 
L 171.154286 0 
L 167.862857 0 
L 164.571429 0 
L 161.28 0 
L 157.988571 0 
L 154.697143 0 
L 151.405714 0 
L 148.114286 0 
L 144.822857 0 
L 141.531429 0 
L 138.24 0 
L 134.948571 0 
L 131.657143 0 
L 128.365714 0 
L 125.074286 0 
L 121.782857 0 
L 118.491429 0 
L 115.2 0 
L 111.908571 0 
L 108.617143 0 
L 105.325714 0 
L 102.034286 0 
L 98.742857 0 
L 95.451429 0 
L 92.16 0 
L 88.868571 0 
L 85.577143 0 
L 82.285714 0 
L 78.994286 0 
L 75.702857 0 
L 72.411429 0 
L 69.12 0 
L 65.828571 0 
L 62.537143 0 
L 59.245714 0 
L 55.954286 0 
L 52.662857 0 
L 49.371429 0 
L 46.08 0 
L 42.788571 0 
L 39.497143 0 
L 36.205714 0 
L 32.914286 0 
L 29.622857 0 
L 26.331429 0 
L 23.04 0 
L 19.748571 0 
L 16.457143 0 
L 13.165714 0 
L 9.874286 0 
L 6.582857 0 
L 3.291429 0 
L 0 0 
L 0 3.291312 
L 0 6.582623 
L 0 9.873935 
L 0 13.165246 
L 0 16.456558 
L 0 19.74787 
L 0 23.039181 
L 0 26.330493 
L 0 29.621804 
L 0 32.913116 
L 0 36.204427 
L 0 39.495739 
L 0 42.787051 
L 0 46.078362 
L 0 49.369674 
L 0 52.660985 
L 0 55.952297 
L 0 59.243609 
L 0 62.53492 
L 0 65.826232 
L 0 69.117543 
L 0 72.408855 
L 0 75.700166 
L 0 78.991478 
L 0 82.28279 
L 0 85.574101 
L 0 88.865413 
L 0 92.156724 
L 0 95.448036 
L 0 98.739348 
L 0 102.030659 
L 0 105.321971 
L 0 108.613282 
L 0 111.904594 
L 0 115.195906 
L 0 118.487217 
L 0 121.778529 
L 0 125.06984 
L 0 128.361152 
L 0 131.652463 
L 0 134.943775 
L 0 138.235087 
L 0 141.526398 
L 0 144.81771 
L 0 148.109021 
L 0 151.400333 
L 0 154.691645 
L 0 157.982956 
L 0 161.274268 
L 0 164.565579 
L 0 167.856891 
L 0 171.148203 
L 0 174.439514 
L 0 177.730826 
L 0 181.022137 
L 0 184.313449 
L 0 187.60476 
L 0 190.896072 
L 0 194.187384 
L 0 197.478695 
L 0 200.770007 
L 0 204.061318 
L 0 207.35263 
L 0 210.643942 
L 0 213.935253 
L 0 217.226565 
L 0 220.517876 
L 0 223.809188 
L 0 227.100499 
L 0 230.391811 
L 0 233.683123 
L 0 236.974434 
L 0 240.265746 
L 0 243.557057 
L 0 246.848369 
L 0 250.139681 
L 0 253.430992 
L 0 256.722304 
L 0 260.013615 
L 0 263.304927 
L 0 266.596239 
L 0 269.88755 
L 0 273.178862 
L 0 276.470173 
L 0 279.761485 
L 0 283.052796 
L 0 286.344108 
L 0 289.63542 
L 0 292.926731 
L 0 296.218043 
L 0 299.509354 
L 0 302.800666 
L 0 306.091978 
L 0 309.383289 
L 0 312.674601 
L 0 315.965912 
L 0 319.257224 
L 0 322.548536 
L 0 325.839847 
L 0 329.131159 
L 0 332.42247 
L 0 335.713782 
L 0 339.005093 
L 0 342.296405 
L 0 345.587717 
L 0 348.879028 
L 0 352.17034 
L 0 355.461651 
L 0 358.752963 
L 0 362.044275 
L 0 365.335586 
L 0 368.626898 
L 0 371.918209 
L 0 375.209521 
L 0 378.500832 
L 0 381.792144 
L 0 385.083456 
L 0 388.374767 
L 0 391.666079 
L 0 394.95739 
L 0 398.248702 
L 0 401.540014 
L 0 404.831325 
L 0 408.122637 
L 0 411.413948 
L 0 414.70526 
L 0 417.996572 
L 0 421.287883 
L 0 424.579195 
L 0 427.870506 
L 0 431.161818 
L 0 434.453129 
L 0 437.744441 
L 0 441.035753 
L 0 444.327064 
L 0 447.618376 
L 0 450.909687 
L 0 454.200999 
L 0 457.492311 
L 0 460.783622 
L 0 464.074934 
L 0 467.366245 
L 0 470.657557 
L 0 473.948869 
L 0 477.24018 
L 0 480.531492 
L 0 483.822803 
L 0 487.114115 
L 0 490.405426 
L 0 493.696738 
L 0 496.98805 
L 0 500.279361 
L 0 503.570673 
L 0 506.861984 
L 0 510.153296 
L 0 513.444608 
L 0 516.735919 
L 0 520.027231 
L 0 523.318542 
L 0 526.609854 
L 0 529.901165 
L 0 533.192477 
L 0 536.483789 
L 0 539.7751 
L 0 543.066412 
L 0 546.357723 
L 0 549.649035 
L 0 552.940347 
L 0 556.231658 
L 0 559.52297 
L 0 562.814281 
L 0 566.105593 
L 0 569.396905 
L 0 572.688216 
L 0 575.979528 
L 0 579.270839 
L 0 582.562151 
L 0 585.853462 
L 0 589.144774 
L 0 592.436086 
L 0 595.727397 
L 0 599.018709 
L 0 602.31002 
L 0 605.601332 
L 0 608.892644 
L 0 612.183955 
L 0 615.475267 
L 0 618.766578 
L 0 622.05789 
L 0 625.349201 
L 0 628.640513 
L 0 631.931825 
L 0 635.223136 
L 0 638.514448 
L 0 641.805759 
L 0 645.097071 
L 0 648.388383 
L 0 651.679694 
L 0 654.971006 
L 0 658.262317 
L 0 661.553629 
L 0 664.844941 
L 0 668.136252 
L 0 671.427564 
L 0 674.718875 
L 0 678.010187 
L 0 681.301498 
L 0 684.59281 
L 0 687.884122 
L 0 691.175433 
L 0 694.466745 
L 0 697.758056 
L 0 701.049368 
L 0 704.34068 
L 0 707.631991 
L 0 710.923303 
L 0 714.214614 
L 0 717.505926 
L 0 720.797238 
L 0 724.088549 
L 0 727.379861 
L 0 730.671172 
L 0 733.962484 
L 0 737.253795 
L 0 740.545107 
L 0 743.836419 
L 0 747.12773 
L 0 750.419042 
L 0 753.710353 
L 0 757.001665 
L 0 760.292977 
L 0 763.584288 
L 0 766.8756 
L 0 770.166911 
L 0 773.458223 
L 0 776.749534 
L 0 780.040846 
L 0 783.332158 
L 0 786.623469 
L 0 789.914781 
L 0 793.206092 
L 0 796.497404 
L 0 799.788716 
L 0 803.080027 
L 0 806.371339 
L 0 809.66265 
L 0 812.953962 
L 0 816.245274 
L 0 819.536585 
z
" clip-path="url(#p31b387f614)" style="fill: #f5f9fe; fill-opacity: 0.9"/>
    <path clip-path="url(#p31b387f614)" style="fill: #eff6fc; fill-opacity: 0.9"/>
    <path clip-path="url(#p31b387f614)" style="fill: #eaf3fb; fill-opacity: 0.9"/>
    <path clip-path="url(#p31b387f614)" style="fill: #e5eff9; fill-opacity: 0.9"/>
    <path clip-path="url(#p31b387f614)" style="fill: #dfecf7; fill-opacity: 0.9"/>
    <path clip-path="url(#p31b387f614)" style="fill: #dae8f6; fill-opacity: 0.9"/>
    <path clip-path="url(#p31b387f614)" style="fill: #d6e5f4; fill-opacity: 0.9"/>
    <path clip-path="url(#p31b387f614)" style="fill: #d0e2f2; fill-opacity: 0.9"/>
    <path clip-path="url(#p31b387f614)" style="fill: #cbdef1; fill-opacity: 0.9"/>
    <path clip-path="url(#p31b387f614)" style="fill: #c6dbef; fill-opacity: 0.9"/>
    <path clip-path="url(#p31b387f614)" style="fill: #bed8ec; fill-opacity: 0.9"/>
    <path clip-path="url(#p31b387f614)" style="fill: #b5d4e9; fill-opacity: 0.9"/>
    <path clip-path="url(#p31b387f614)" style="fill: #add0e6; fill-opacity: 0.9"/>
    <path clip-path="url(#p31b387f614)" style="fill: #a5cde3; fill-opacity: 0.9"/>
    <path clip-path="url(#p31b387f614)" style="fill: #9cc9e1; fill-opacity: 0.9"/>
    <path clip-path="url(#p31b387f614)" style="fill: #91c3de; fill-opacity: 0.9"/>
    <path clip-path="url(#p31b387f614)" style="fill: #85bcdc; fill-opacity: 0.9"/>
    <path clip-path="url(#p31b387f614)" style="fill: #7cb7da; fill-opacity: 0.9"/>
    <path clip-path="url(#p31b387f614)" style="fill: #71b1d7; fill-opacity: 0.9"/>
    <path clip-path="url(#p31b387f614)" style="fill: #66abd4; fill-opacity: 0.9"/>
    <path clip-path="url(#p31b387f614)" style="fill: #5da5d1; fill-opacity: 0.9"/>
    <path clip-path="url(#p31b387f614)" style="fill: #56a0ce; fill-opacity: 0.9"/>
    <path clip-path="url(#p31b387f614)" style="fill: #4d99ca; fill-opacity: 0.9"/>
    <path clip-path="url(#p31b387f614)" style="fill: #4493c7; fill-opacity: 0.9"/>
    <path clip-path="url(#p31b387f614)" style="fill: #3c8cc3; fill-opacity: 0.9"/>
    <path clip-path="url(#p31b387f614)" style="fill: #3686c0; fill-opacity: 0.9"/>
    <path clip-path="url(#p31b387f614)" style="fill: #2f7fbc; fill-opacity: 0.9"/>
    <path clip-path="url(#p31b387f614)" style="fill: #2777b8; fill-opacity: 0.9"/>
    <path clip-path="url(#p31b387f614)" style="fill: #2070b4; fill-opacity: 0.9"/>
    <path clip-path="url(#p31b387f614)" style="fill: #1c6ab0; fill-opacity: 0.9"/>
    <path clip-path="url(#p31b387f614)" style="fill: #1663aa; fill-opacity: 0.9"/>
    <path clip-path="url(#p31b387f614)" style="fill: #115ca5; fill-opacity: 0.9"/>
    <path clip-path="url(#p31b387f614)" style="fill: #0c56a0; fill-opacity: 0.9"/>
    <path clip-path="url(#p31b387f614)" style="fill: #084f99; fill-opacity: 0.9"/>
    <path clip-path="url(#p31b387f614)" style="fill: #08488e; fill-opacity: 0.9"/>
    <path clip-path="url(#p31b387f614)" style="fill: #084184; fill-opacity: 0.9"/>
    <path clip-path="url(#p31b387f614)" style="fill: #083a7a; fill-opacity: 0.9"/>
    <path clip-path="url(#p31b387f614)" style="fill: #083370; fill-opacity: 0.9"/>
    <path clip-path="url(#p31b387f614)" style="fill: #08306b; fill-opacity: 0.9"/>
   </g>
   <g id="QuadContourSet_2">
    <path clip-path="url(#p31b387f614)" style="fill: none"/>
    <path clip-path="url(#p31b387f614)" style="fill: none"/>
    <path clip-path="url(#p31b387f614)" style="fill: none"/>
    <path clip-path="url(#p31b387f614)" style="fill: none"/>
    <path clip-path="url(#p31b387f614)" style="fill: none"/>
    <path clip-path="url(#p31b387f614)" style="fill: none"/>
    <path clip-path="url(#p31b387f614)" style="fill: none"/>
    <path clip-path="url(#p31b387f614)" style="fill: none"/>
    <path clip-path="url(#p31b387f614)" style="fill: none"/>
    <path clip-path="url(#p31b387f614)" style="fill: none"/>
    <path clip-path="url(#p31b387f614)" style="fill: none"/>
    <path clip-path="url(#p31b387f614)" style="fill: none"/>
    <path clip-path="url(#p31b387f614)" style="fill: none"/>
    <path clip-path="url(#p31b387f614)" style="fill: none"/>
    <path clip-path="url(#p31b387f614)" style="fill: none"/>
    <path clip-path="url(#p31b387f614)" style="fill: none"/>
    <path clip-path="url(#p31b387f614)" style="fill: none"/>
    <path clip-path="url(#p31b387f614)" style="fill: none"/>
    <path clip-path="url(#p31b387f614)" style="fill: none"/>
    <path clip-path="url(#p31b387f614)" style="fill: none"/>
    <path clip-path="url(#p31b387f614)" style="fill: none"/>
    <path clip-path="url(#p31b387f614)" style="fill: none"/>
    <path clip-path="url(#p31b387f614)" style="fill: none"/>
    <path clip-path="url(#p31b387f614)" style="fill: none"/>
    <path clip-path="url(#p31b387f614)" style="fill: none"/>
    <path clip-path="url(#p31b387f614)" style="fill: none"/>
    <path clip-path="url(#p31b387f614)" style="fill: none"/>
    <path clip-path="url(#p31b387f614)" style="fill: none"/>
    <path clip-path="url(#p31b387f614)" style="fill: none"/>
    <path clip-path="url(#p31b387f614)" style="fill: none"/>
    <path clip-path="url(#p31b387f614)" style="fill: none"/>
    <path clip-path="url(#p31b387f614)" style="fill: none"/>
    <path clip-path="url(#p31b387f614)" style="fill: none"/>
    <path clip-path="url(#p31b387f614)" style="fill: none"/>
    <path clip-path="url(#p31b387f614)" style="fill: none"/>
    <path clip-path="url(#p31b387f614)" style="fill: none"/>
    <path clip-path="url(#p31b387f614)" style="fill: none"/>
    <path clip-path="url(#p31b387f614)" style="fill: none"/>
    <path clip-path="url(#p31b387f614)" style="fill: none"/>
   </g>
  </g>
 </g>
 <defs>
  <clipPath id="p31b387f614">
   <rect x="0" y="0" width="576" height="819.536585"/>
  </clipPath>
 </defs>
</svg>
