<?xml version="1.0" encoding="utf-8" standalone="no"?>
<!DOCTYPE svg PUBLIC "-//W3C//DTD SVG 1.1//EN"
  "http://www.w3.org/Graphics/SVG/1.1/DTD/svg11.dtd">
<svg xmlns:xlink="http://www.w3.org/1999/xlink" width="576pt" height="820.98809pt" viewBox="0 0 576 820.98809" xmlns="http://www.w3.org/2000/svg" version="1.1">
 <metadata>
  <rdf:RDF xmlns:dc="http://purl.org/dc/elements/1.1/" xmlns:cc="http://creativecommons.org/ns#" xmlns:rdf="http://www.w3.org/1999/02/22-rdf-syntax-ns#">
   <cc:Work>
    <dc:type rdf:resource="http://purl.org/dc/dcmitype/StillImage"/>
    <dc:date>2025-07-25T22:45:33.846254</dc:date>
    <dc:format>image/svg+xml</dc:format>
    <dc:creator>
     <cc:Agent>
      <dc:title>Matplotlib v3.10.3, https://matplotlib.org/</dc:title>
     </cc:Agent>
    </dc:creator>
   </cc:Work>
  </rdf:RDF>
 </metadata>
 <defs>
  <style type="text/css">*{stroke-linejoin: round; stroke-linecap: butt}</style>
 </defs>
 <g id="figure_1">
  <g id="patch_1">
   <path d="M 0 820.98809 
L 576 820.98809 
L 576 0 
L 0 0 
L 0 820.98809 
z
" style="fill: none; opacity: 0"/>
  </g>
  <g id="axes_1">
   <g id="QuadContourSet_1">
    <path d="M 3.291429 103.734522 
L 6.582857 102.790173 
L 7.160658 102.211369 
L 9.874286 101.313184 
L 13.165714 101.092733 
L 13.512603 102.211369 
L 16.457143 105.50851 
L 19.405772 102.211369 
L 19.748571 101.867975 
L 22.697201 98.914228 
L 23.04 96.580873 
L 24.002117 95.617087 
L 26.331429 95.108957 
L 29.622857 94.577215 
L 31.876216 92.319946 
L 32.914286 91.861734 
L 36.205714 90.241491 
L 39.497143 90.237268 
L 40.709502 89.022805 
L 42.788571 87.923493 
L 46.08 88.028834 
L 48.334331 85.725664 
L 49.371429 85.006329 
L 49.737093 85.725664 
L 52.662857 88.612019 
L 55.954286 88.612019 
L 58.83564 85.725664 
L 59.245714 85.314878 
L 62.127069 82.428523 
L 62.537143 81.321657 
L 64.874069 79.131382 
L 65.828571 78.750828 
L 69.12 78.130412 
L 72.396227 75.834241 
L 72.411429 75.824621 
L 75.702857 74.122887 
L 78.994286 74.433405 
L 80.887305 72.5371 
L 82.285714 71.579499 
L 85.577143 71.5531 
L 85.989911 72.5371 
L 88.868571 75.356401 
L 91.682988 72.5371 
L 92.16 72.05926 
L 94.974417 69.239959 
L 95.451429 66.629448 
L 96.136869 65.942818 
L 98.742857 65.237667 
L 102.034286 64.377629 
L 103.763236 62.645678 
L 105.325714 61.857746 
L 108.617143 59.726342 
L 108.994294 59.348537 
L 111.908571 57.644289 
L 115.2 57.99317 
L 117.13841 56.051396 
L 118.491429 55.032271 
L 118.970603 56.051396 
L 121.782857 58.868531 
L 124.567093 56.051396 
L 124.034454 52.754255 
L 125.074286 52.080817 
L 128.365714 51.67852 
L 130.893023 49.457114 
L 131.657143 49.057692 
L 134.948571 48.455032 
L 137.626871 46.159973 
L 138.24 45.827444 
L 141.531429 44.480552 
L 144.26528 42.862832 
L 144.822857 42.618145 
L 148.114286 41.255739 
L 151.405714 39.581527 
L 151.421523 39.565691 
L 154.697143 38.559663 
L 155.207404 39.565691 
L 157.988571 42.35806 
L 160.776103 39.565691 
L 161.28 39.060919 
L 164.067531 36.26855 
L 164.571429 33.935921 
L 165.534269 32.971409 
L 167.862857 32.216867 
L 171.154286 30.933346 
L 172.411182 29.674268 
L 174.445714 28.731598 
L 177.737143 26.59378 
L 177.95342 26.377127 
L 181.028571 24.574096 
L 184.32 24.735187 
L 185.972332 23.079986 
L 187.611429 22.00173 
L 188.120454 23.079986 
L 190.902857 25.831995 
L 193.650098 23.079986 
L 194.194286 22.534854 
L 196.941527 19.782846 
L 197.485714 18.334747 
L 199.331553 16.485705 
L 200.777143 15.828784 
L 204.068571 15.139824 
L 206.016451 13.188564 
L 207.36 12.4776 
L 210.651429 10.22803 
L 211.0168 9.891423 
L 213.942857 8.654794 
L 217.234286 8.175084 
L 219.095864 6.594282 
L 220.525714 5.591797 
L 223.817143 5.488228 
L 226.440679 3.297141 
L 227.108571 2.787597 
L 227.411557 3.297141 
L 230.4 6.091952 
L 233.189969 3.297141 
L 233.292532 0 
L 232.242019 0 
L 232.74506 3.297141 
L 230.4 5.646271 
L 227.888116 3.297141 
L 227.108571 1.986148 
L 225.390166 3.297141 
L 223.817143 4.610876 
L 220.525714 4.46773 
L 217.492602 6.594282 
L 217.234286 6.813637 
L 213.942857 7.577497 
L 210.651429 9.436715 
L 210.016722 9.891423 
L 207.36 11.913644 
L 204.950711 13.188564 
L 204.068571 14.072235 
L 200.777143 15.307696 
L 198.184871 16.485705 
L 197.485714 17.186075 
L 196.509862 19.782846 
L 194.194286 22.10244 
L 193.218433 23.079986 
L 190.902857 25.399581 
L 188.557644 23.079986 
L 187.611429 21.075642 
L 184.564553 23.079986 
L 184.32 23.324964 
L 181.582791 23.079986 
L 181.028571 23.05876 
L 180.997311 23.079986 
L 177.737143 25.717088 
L 176.667887 26.377127 
L 174.445714 27.921962 
L 171.154286 29.512871 
L 170.865928 29.674268 
L 167.862857 31.568809 
L 164.571429 32.595633 
L 164.038727 32.971409 
L 163.634746 36.26855 
L 161.28 38.627383 
L 160.343318 39.565691 
L 157.988571 41.924524 
L 155.639201 39.565691 
L 154.697143 37.708336 
L 151.405714 38.027231 
L 148.760097 39.565691 
L 148.114286 39.895774 
L 144.822857 41.564187 
L 141.863585 42.862832 
L 141.531429 43.059381 
L 138.24 45.290744 
L 136.637282 46.159973 
L 134.948571 47.607044 
L 131.657143 48.516326 
L 129.857351 49.457114 
L 128.365714 50.768205 
L 125.074286 51.410073 
L 122.998782 52.754255 
L 124.137893 56.051396 
L 121.782857 58.434259 
L 119.404122 56.051396 
L 118.491429 54.110247 
L 115.914306 56.051396 
L 115.2 56.766942 
L 111.908571 56.102421 
L 108.617143 58.796178 
L 107.781873 59.348537 
L 105.325714 61.144887 
L 102.34963 62.645678 
L 102.034286 62.961569 
L 98.742857 64.599703 
L 95.451429 65.459157 
L 94.629361 65.942818 
L 94.542854 69.239959 
L 92.16 71.626949 
L 91.251425 72.5371 
L 88.868571 74.92409 
L 86.431325 72.5371 
L 85.577143 70.500811 
L 82.285714 70.55544 
L 79.391847 72.5371 
L 78.994286 72.935351 
L 76.803215 72.5371 
L 75.702857 72.42097 
L 75.529481 72.5371 
L 72.411429 74.858 
L 70.868903 75.834241 
L 69.12 77.059974 
L 65.828571 78.247304 
L 63.611131 79.131382 
L 62.537143 80.137973 
L 61.688535 82.428523 
L 59.245714 84.875584 
L 58.397107 85.725664 
L 55.954286 88.172725 
L 52.662857 88.172725 
L 50.182385 85.725664 
L 49.371429 84.130349 
L 47.071393 85.725664 
L 46.08 86.738535 
L 42.788571 86.496449 
L 39.497143 87.791221 
L 36.205714 88.710735 
L 35.788055 89.022805 
L 32.914286 91.266917 
L 30.52867 92.319946 
L 29.622857 93.227331 
L 26.331429 94.449341 
L 23.04 95.128183 
L 22.162026 95.617087 
L 22.252205 98.914228 
L 19.748571 101.422206 
L 18.960776 102.211369 
L 16.457143 105.010917 
L 13.956982 102.211369 
L 13.165714 99.659713 
L 9.874286 100.162572 
L 6.582857 100.214356 
L 3.291429 101.918027 
L 2.800548 102.211369 
L 0 103.905282 
L 0 104.805661 
z
M 55.954286 82.6928 
L 56.218105 82.428523 
L 55.954286 82.010851 
L 55.341262 82.428523 
z
M 88.868571 69.995595 
L 89.622898 69.239959 
L 88.868571 67.994765 
L 86.965884 69.239959 
z
M 88.124909 69.239959 
L 88.868571 68.753277 
L 89.163399 69.239959 
L 88.868571 69.535298 
z
M 157.988571 36.670992 
L 158.390316 36.26855 
L 157.988571 35.521692 
L 156.971375 36.26855 
z
" clip-path="url(#p1f73bc8fe8)" style="fill: #f5f9fe; fill-opacity: 0.9"/>
    <path d="M 2.800548 102.211369 
L 3.291429 101.918027 
L 6.582857 100.214356 
L 9.874286 100.162572 
L 13.165714 99.659713 
L 13.956982 102.211369 
L 16.457143 105.010917 
L 18.960776 102.211369 
L 19.748571 101.422206 
L 22.252205 98.914228 
L 22.162026 95.617087 
L 23.04 95.128183 
L 26.331429 94.449341 
L 29.622857 93.227331 
L 30.52867 92.319946 
L 32.914286 91.266917 
L 35.788055 89.022805 
L 36.205714 88.710735 
L 39.497143 87.791221 
L 42.788571 86.496449 
L 46.08 86.738535 
L 47.071393 85.725664 
L 49.371429 84.130349 
L 50.182385 85.725664 
L 52.662857 88.172725 
L 55.954286 88.172725 
L 58.397107 85.725664 
L 59.245714 84.875584 
L 61.688535 82.428523 
L 62.537143 80.137973 
L 63.611131 79.131382 
L 65.828571 78.247304 
L 69.12 77.059974 
L 70.868903 75.834241 
L 72.411429 74.858 
L 75.529481 72.5371 
L 75.702857 72.42097 
L 76.803215 72.5371 
L 78.994286 72.935351 
L 79.391847 72.5371 
L 82.285714 70.55544 
L 85.577143 70.500811 
L 86.431325 72.5371 
L 88.868571 74.92409 
L 91.251425 72.5371 
L 92.16 71.626949 
L 94.542854 69.239959 
L 94.629361 65.942818 
L 95.451429 65.459157 
L 98.742857 64.599703 
L 102.034286 62.961569 
L 102.34963 62.645678 
L 105.325714 61.144887 
L 107.781873 59.348537 
L 108.617143 58.796178 
L 111.908571 56.102421 
L 115.2 56.766942 
L 115.914306 56.051396 
L 118.491429 54.110247 
L 119.404122 56.051396 
L 121.782857 58.434259 
L 124.137893 56.051396 
L 122.998782 52.754255 
L 125.074286 51.410073 
L 128.365714 50.768205 
L 129.857351 49.457114 
L 131.657143 48.516326 
L 134.948571 47.607044 
L 136.637282 46.159973 
L 138.24 45.290744 
L 141.531429 43.059381 
L 141.863585 42.862832 
L 144.822857 41.564187 
L 148.114286 39.895774 
L 148.760097 39.565691 
L 151.405714 38.027231 
L 154.697143 37.708336 
L 155.639201 39.565691 
L 157.988571 41.924524 
L 160.343318 39.565691 
L 161.28 38.627383 
L 163.634746 36.26855 
L 164.038727 32.971409 
L 164.571429 32.595633 
L 167.862857 31.568809 
L 170.865928 29.674268 
L 171.154286 29.512871 
L 174.445714 27.921962 
L 176.667887 26.377127 
L 177.737143 25.717088 
L 180.997311 23.079986 
L 181.028571 23.05876 
L 181.582791 23.079986 
L 184.32 23.324964 
L 184.564553 23.079986 
L 187.611429 21.075642 
L 188.557644 23.079986 
L 190.902857 25.399581 
L 193.218433 23.079986 
L 194.194286 22.10244 
L 196.509862 19.782846 
L 197.485714 17.186075 
L 198.184871 16.485705 
L 200.777143 15.307696 
L 204.068571 14.072235 
L 204.950711 13.188564 
L 207.36 11.913644 
L 210.016722 9.891423 
L 210.651429 9.436715 
L 213.942857 7.577497 
L 217.234286 6.813637 
L 217.492602 6.594282 
L 220.525714 4.46773 
L 223.817143 4.610876 
L 225.390166 3.297141 
L 227.108571 1.986148 
L 227.888116 3.297141 
L 230.4 5.646271 
L 232.74506 3.297141 
L 232.242019 0 
L 231.191506 0 
L 232.300151 3.297141 
L 230.4 5.20059 
L 228.364675 3.297141 
L 227.108571 1.184698 
L 224.339654 3.297141 
L 223.817143 3.733524 
L 220.525714 3.343664 
L 217.234286 5.497083 
L 213.942857 6.530354 
L 213.878153 6.594282 
L 210.651429 8.905926 
L 209.275817 9.891423 
L 207.36 11.349688 
L 204.068571 13.056945 
L 203.893509 13.188564 
L 200.777143 14.786608 
L 197.485714 16.070653 
L 196.906955 16.485705 
L 196.078197 19.782846 
L 194.194286 21.670027 
L 192.786769 23.079986 
L 190.902857 24.967167 
L 188.994834 23.079986 
L 187.611429 20.149554 
L 184.32 19.87157 
L 181.028571 22.455277 
L 180.108547 23.079986 
L 177.737143 24.99818 
L 175.503263 26.377127 
L 174.445714 27.112326 
L 171.154286 28.937906 
L 169.838681 29.674268 
L 167.862857 30.920752 
L 164.571429 31.870997 
L 163.01148 32.971409 
L 163.201961 36.26855 
L 161.28 38.193847 
L 159.910533 39.565691 
L 157.988571 41.490988 
L 156.070998 39.565691 
L 154.697143 36.857008 
L 151.405714 36.479947 
L 148.114286 38.833758 
L 146.606815 39.565691 
L 144.822857 40.510228 
L 141.531429 42.335688 
L 140.884697 42.862832 
L 138.24 44.754043 
L 135.647692 46.159973 
L 134.948571 46.759056 
L 131.657143 47.974959 
L 128.821679 49.457114 
L 128.365714 49.85789 
L 125.074286 50.73933 
L 121.963111 52.754255 
L 123.708693 56.051396 
L 121.782857 57.999988 
L 119.837641 56.051396 
L 118.491429 53.188223 
L 115.2 54.817576 
L 111.908571 55.477647 
L 111.155368 56.051396 
L 108.617143 58.151619 
L 106.807178 59.348537 
L 105.325714 60.432029 
L 102.034286 62.163941 
L 101.133814 62.645678 
L 98.742857 63.961738 
L 95.451429 64.777246 
L 93.470336 65.942818 
L 94.111291 69.239959 
L 92.16 71.194637 
L 90.819862 72.5371 
L 88.868571 74.491778 
L 86.872739 72.5371 
L 88.868571 70.455891 
L 90.082397 69.239959 
L 88.868571 67.236254 
L 85.806859 69.239959 
L 85.577143 69.448521 
L 82.285714 69.531381 
L 80.54922 69.239959 
L 78.994286 69.038371 
L 78.706246 69.239959 
L 75.702857 71.551132 
L 74.230859 72.5371 
L 72.411429 73.89138 
L 69.341578 75.834241 
L 69.12 75.989536 
L 65.828571 77.743779 
L 62.537143 79.004884 
L 62.348193 79.131382 
L 61.250002 82.428523 
L 59.245714 84.436289 
L 57.958574 85.725664 
L 55.954286 87.73343 
L 52.662857 87.73343 
L 50.627678 85.725664 
L 49.371429 83.25437 
L 46.08 84.585322 
L 42.788571 84.908588 
L 39.497143 85.673572 
L 39.439075 85.725664 
L 36.205714 88.141593 
L 35.026343 89.022805 
L 32.914286 90.6721 
L 29.622857 92.087999 
L 29.20074 92.319946 
L 26.331429 93.789725 
L 23.04 94.411118 
L 20.87432 95.617087 
L 21.807208 98.914228 
L 19.748571 100.976437 
L 18.51578 102.211369 
L 16.457143 104.513325 
L 14.401361 102.211369 
L 13.474992 98.914228 
L 13.165714 97.81223 
L 10.369352 98.914228 
L 9.874286 99.011961 
L 9.358575 98.914228 
L 6.582857 98.566049 
L 6.051873 98.914228 
L 3.291429 101.028468 
L 1.311951 102.211369 
L 0 103.004903 
L 0 103.905282 
z
M 86.965884 69.239959 
L 88.868571 67.994765 
L 89.622898 69.239959 
L 88.868571 69.995595 
z
M 55.954286 83.237257 
L 56.761619 82.428523 
L 55.954286 81.150373 
L 54.078324 82.428523 
z
M 55.341262 82.428523 
L 55.954286 82.010851 
L 56.218105 82.428523 
L 55.954286 82.6928 
z
M 157.988571 37.203016 
L 158.921418 36.26855 
L 157.988571 34.534351 
L 155.626649 36.26855 
z
M 156.971375 36.26855 
L 157.988571 35.521692 
L 158.390316 36.26855 
L 157.988571 36.670992 
z
M 190.902857 20.186176 
L 191.305488 19.782846 
L 190.902857 18.719296 
L 188.90923 19.782846 
z
" clip-path="url(#p1f73bc8fe8)" style="fill: #eff6fc; fill-opacity: 0.9"/>
    <path d="M 1.311951 102.211369 
L 3.291429 101.028468 
L 6.051873 98.914228 
L 6.582857 98.566049 
L 9.358575 98.914228 
L 9.874286 99.011961 
L 10.369352 98.914228 
L 13.165714 97.81223 
L 13.474992 98.914228 
L 14.401361 102.211369 
L 16.457143 104.513325 
L 18.51578 102.211369 
L 19.748571 100.976437 
L 21.807208 98.914228 
L 20.87432 95.617087 
L 23.04 94.411118 
L 26.331429 93.789725 
L 29.20074 92.319946 
L 29.622857 92.087999 
L 32.914286 90.6721 
L 35.026343 89.022805 
L 36.205714 88.141593 
L 39.439075 85.725664 
L 39.497143 85.673572 
L 42.788571 84.908588 
L 46.08 84.585322 
L 49.371429 83.25437 
L 50.627678 85.725664 
L 52.662857 87.73343 
L 55.954286 87.73343 
L 57.958574 85.725664 
L 59.245714 84.436289 
L 61.250002 82.428523 
L 62.348193 79.131382 
L 62.537143 79.004884 
L 65.828571 77.743779 
L 69.12 75.989536 
L 69.341578 75.834241 
L 72.411429 73.89138 
L 74.230859 72.5371 
L 75.702857 71.551132 
L 78.706246 69.239959 
L 78.994286 69.038371 
L 80.54922 69.239959 
L 82.285714 69.531381 
L 85.577143 69.448521 
L 85.806859 69.239959 
L 88.868571 67.236254 
L 90.082397 69.239959 
L 88.868571 70.455891 
L 86.872739 72.5371 
L 88.868571 74.491778 
L 90.819862 72.5371 
L 92.16 71.194637 
L 94.111291 69.239959 
L 93.470336 65.942818 
L 95.451429 64.777246 
L 98.742857 63.961738 
L 101.133814 62.645678 
L 102.034286 62.163941 
L 105.325714 60.432029 
L 106.807178 59.348537 
L 108.617143 58.151619 
L 111.155368 56.051396 
L 111.908571 55.477647 
L 115.2 54.817576 
L 118.491429 53.188223 
L 119.837641 56.051396 
L 121.782857 57.999988 
L 123.708693 56.051396 
L 121.963111 52.754255 
L 125.074286 50.73933 
L 128.365714 49.85789 
L 128.821679 49.457114 
L 131.657143 47.974959 
L 134.948571 46.759056 
L 135.647692 46.159973 
L 138.24 44.754043 
L 140.884697 42.862832 
L 141.531429 42.335688 
L 144.822857 40.510228 
L 146.606815 39.565691 
L 148.114286 38.833758 
L 151.405714 36.479947 
L 154.697143 36.857008 
L 156.070998 39.565691 
L 157.988571 41.490988 
L 159.910533 39.565691 
L 161.28 38.193847 
L 163.201961 36.26855 
L 163.01148 32.971409 
L 164.571429 31.870997 
L 167.862857 30.920752 
L 169.838681 29.674268 
L 171.154286 28.937906 
L 174.445714 27.112326 
L 175.503263 26.377127 
L 177.737143 24.99818 
L 180.108547 23.079986 
L 181.028571 22.455277 
L 184.32 19.87157 
L 187.611429 20.149554 
L 188.994834 23.079986 
L 190.902857 24.967167 
L 192.786769 23.079986 
L 194.194286 21.670027 
L 196.078197 19.782846 
L 196.906955 16.485705 
L 197.485714 16.070653 
L 200.777143 14.786608 
L 203.893509 13.188564 
L 204.068571 13.056945 
L 207.36 11.349688 
L 209.275817 9.891423 
L 210.651429 8.905926 
L 213.878153 6.594282 
L 213.942857 6.530354 
L 217.234286 5.497083 
L 220.525714 3.343664 
L 223.817143 3.733524 
L 224.339654 3.297141 
L 227.108571 1.184698 
L 228.364675 3.297141 
L 230.4 5.20059 
L 232.300151 3.297141 
L 231.191506 0 
L 230.4 0 
L 229.280283 0 
L 227.108571 0.383248 
L 224.271051 0 
L 223.817143 0 
L 223.717541 0 
L 220.525714 2.370241 
L 218.60253 3.297141 
L 217.234286 4.189152 
L 213.942857 5.798339 
L 213.137248 6.594282 
L 210.651429 8.375137 
L 208.534911 9.891423 
L 207.36 10.785732 
L 204.068571 12.292943 
L 202.877329 13.188564 
L 200.777143 14.26552 
L 197.485714 15.007177 
L 195.424015 16.485705 
L 195.646532 19.782846 
L 194.194286 21.237613 
L 192.355104 23.079986 
L 190.902857 24.534754 
L 189.432023 23.079986 
L 190.902857 20.849241 
L 191.967405 19.782846 
L 190.902857 16.970845 
L 187.611429 18.346993 
L 184.32 19.06735 
L 183.589953 19.782846 
L 181.028571 21.851794 
L 179.219783 23.079986 
L 177.737143 24.279272 
L 174.445714 26.292628 
L 174.360369 26.377127 
L 171.154286 28.362941 
L 168.811433 29.674268 
L 167.862857 30.272694 
L 164.571429 31.146361 
L 161.984232 32.971409 
L 162.769176 36.26855 
L 161.28 37.760311 
L 159.452521 36.26855 
L 157.988571 33.547011 
L 154.697143 33.273728 
L 151.405714 35.602711 
L 150.276891 36.26855 
L 148.114286 37.867236 
L 144.822857 39.472684 
L 144.728768 39.565691 
L 141.531429 41.72394 
L 140.134167 42.862832 
L 138.24 44.217342 
L 134.948571 45.886064 
L 134.583466 46.159973 
L 131.657143 47.433592 
L 128.365714 48.674611 
L 127.113589 49.457114 
L 125.074286 50.068586 
L 121.782857 50.457264 
L 118.491429 51.865733 
L 115.2 52.500605 
L 114.943371 52.754255 
L 111.908571 54.884262 
L 110.376386 56.051396 
L 108.617143 57.507059 
L 105.832483 59.348537 
L 105.325714 59.71917 
L 102.034286 61.543882 
L 99.974789 62.645678 
L 98.742857 63.323773 
L 95.451429 64.095336 
L 92.311312 65.942818 
L 93.679728 69.239959 
L 92.16 70.762325 
L 90.541896 69.239959 
L 88.868571 66.477742 
L 85.577143 66.494885 
L 84.588799 65.942818 
L 82.285714 65.642256 
L 81.909651 65.942818 
L 78.994286 68.247274 
L 77.575884 69.239959 
L 75.702857 70.681295 
L 72.932236 72.5371 
L 72.411429 72.92476 
L 69.12 75.205773 
L 68.348485 75.834241 
L 65.828571 77.240254 
L 62.537143 78.159367 
L 61.085255 79.131382 
L 60.811469 82.428523 
L 59.245714 83.996995 
L 57.52004 85.725664 
L 55.954286 87.294136 
L 52.662857 87.294136 
L 51.07297 85.725664 
L 50.429663 82.428523 
L 49.371429 81.859828 
L 46.08 81.633682 
L 44.105723 82.428523 
L 42.788571 83.131845 
L 39.497143 84.990249 
L 38.677363 85.725664 
L 36.205714 87.57245 
L 34.264631 89.022805 
L 32.914286 90.077283 
L 29.622857 91.380424 
L 27.913034 92.319946 
L 26.331429 93.130109 
L 23.04 93.694053 
L 19.748571 95.339706 
L 19.087686 95.617087 
L 19.748571 95.727613 
L 21.362212 98.914228 
L 19.748571 100.530669 
L 18.070783 102.211369 
L 16.457143 104.015732 
L 14.845741 102.211369 
L 14.119616 98.914228 
L 13.433268 95.617087 
L 13.165714 95.179379 
L 9.874286 95.182277 
L 9.318191 95.617087 
L 6.582857 97.804462 
L 4.890427 98.914228 
L 3.291429 100.138909 
L 0 102.111225 
L 0 102.211369 
L 0 103.004903 
z
M 87.314153 72.5371 
L 88.868571 70.916188 
L 90.388299 72.5371 
L 88.868571 74.059466 
z
M 120.27116 56.051396 
L 121.782857 53.38567 
L 123.279493 56.051396 
L 121.782857 57.565716 
z
M 156.502795 39.565691 
L 157.988571 37.73504 
L 159.477748 39.565691 
L 157.988571 41.057452 
z
M 155.626649 36.26855 
L 157.988571 34.534351 
L 158.921418 36.26855 
L 157.988571 37.203016 
z
M 188.90923 19.782846 
L 190.902857 18.719296 
L 191.305488 19.782846 
L 190.902857 20.186176 
z
M 228.841234 3.297141 
L 230.4 0.231112 
L 231.855242 3.297141 
L 230.4 4.754909 
z
M 55.954286 83.781715 
L 57.305133 82.428523 
L 55.954286 80.289895 
L 52.815386 82.428523 
z
M 54.078324 82.428523 
L 55.954286 81.150373 
L 56.761619 82.428523 
L 55.954286 83.237257 
z
" clip-path="url(#p1f73bc8fe8)" style="fill: #eaf3fb; fill-opacity: 0.9"/>
    <path d="M 16.457143 104.015732 
L 18.070783 102.211369 
L 19.748571 100.530669 
L 21.362212 98.914228 
L 19.748571 95.727613 
L 19.087686 95.617087 
L 19.748571 95.339706 
L 23.04 93.694053 
L 26.331429 93.130109 
L 27.913034 92.319946 
L 29.622857 91.380424 
L 32.914286 90.077283 
L 34.264631 89.022805 
L 36.205714 87.57245 
L 38.677363 85.725664 
L 39.497143 84.990249 
L 42.788571 83.131845 
L 44.105723 82.428523 
L 46.08 81.633682 
L 49.371429 81.859828 
L 50.429663 82.428523 
L 51.07297 85.725664 
L 52.662857 87.294136 
L 55.954286 87.294136 
L 57.52004 85.725664 
L 59.245714 83.996995 
L 60.811469 82.428523 
L 61.085255 79.131382 
L 62.537143 78.159367 
L 65.828571 77.240254 
L 68.348485 75.834241 
L 69.12 75.205773 
L 72.411429 72.92476 
L 72.932236 72.5371 
L 75.702857 70.681295 
L 77.575884 69.239959 
L 78.994286 68.247274 
L 81.909651 65.942818 
L 82.285714 65.642256 
L 84.588799 65.942818 
L 85.577143 66.494885 
L 88.868571 66.477742 
L 90.541896 69.239959 
L 92.16 70.762325 
L 93.679728 69.239959 
L 92.311312 65.942818 
L 95.451429 64.095336 
L 98.742857 63.323773 
L 99.974789 62.645678 
L 102.034286 61.543882 
L 105.325714 59.71917 
L 105.832483 59.348537 
L 108.617143 57.507059 
L 110.376386 56.051396 
L 111.908571 54.884262 
L 114.943371 52.754255 
L 115.2 52.500605 
L 118.491429 51.865733 
L 121.782857 50.457264 
L 125.074286 50.068586 
L 127.113589 49.457114 
L 128.365714 48.674611 
L 131.657143 47.433592 
L 134.583466 46.159973 
L 134.948571 45.886064 
L 138.24 44.217342 
L 140.134167 42.862832 
L 141.531429 41.72394 
L 144.728768 39.565691 
L 144.822857 39.472684 
L 148.114286 37.867236 
L 150.276891 36.26855 
L 151.405714 35.602711 
L 154.697143 33.273728 
L 157.988571 33.547011 
L 159.452521 36.26855 
L 161.28 37.760311 
L 162.769176 36.26855 
L 161.984232 32.971409 
L 164.571429 31.146361 
L 167.862857 30.272694 
L 168.811433 29.674268 
L 171.154286 28.362941 
L 174.360369 26.377127 
L 174.445714 26.292628 
L 177.737143 24.279272 
L 179.219783 23.079986 
L 181.028571 21.851794 
L 183.589953 19.782846 
L 184.32 19.06735 
L 187.611429 18.346993 
L 190.902857 16.970845 
L 191.967405 19.782846 
L 190.902857 20.849241 
L 189.432023 23.079986 
L 190.902857 24.534754 
L 192.355104 23.079986 
L 194.194286 21.237613 
L 195.646532 19.782846 
L 195.424015 16.485705 
L 197.485714 15.007177 
L 200.777143 14.26552 
L 202.877329 13.188564 
L 204.068571 12.292943 
L 207.36 10.785732 
L 208.534911 9.891423 
L 210.651429 8.375137 
L 213.137248 6.594282 
L 213.942857 5.798339 
L 217.234286 4.189152 
L 218.60253 3.297141 
L 220.525714 2.370241 
L 223.717541 0 
L 222.415463 0 
L 220.525714 1.403322 
L 217.234286 2.91877 
L 216.851572 3.297141 
L 213.942857 5.066323 
L 212.396342 6.594282 
L 210.651429 7.844348 
L 207.794006 9.891423 
L 207.36 10.221776 
L 204.068571 11.52894 
L 201.861149 13.188564 
L 200.777143 13.744432 
L 197.485714 13.943701 
L 194.194286 14.788516 
L 190.902857 15.434232 
L 187.611429 16.228898 
L 187.351011 16.485705 
L 184.32 18.335124 
L 182.842835 19.782846 
L 181.028571 21.248312 
L 178.331019 23.079986 
L 177.737143 23.560364 
L 174.445714 25.373555 
L 173.432091 26.377127 
L 171.154286 27.787976 
L 167.862857 29.548002 
L 167.635369 29.674268 
L 164.571429 30.421724 
L 161.28 31.658699 
L 158.433412 29.674268 
L 157.988571 29.584933 
L 157.897739 29.674268 
L 154.697143 32.080701 
L 153.753916 32.971409 
L 151.405714 34.831507 
L 148.969439 36.26855 
L 148.114286 36.900714 
L 144.822857 38.576827 
L 143.822492 39.565691 
L 141.531429 41.112191 
L 139.383637 42.862832 
L 138.24 43.680642 
L 134.948571 44.952891 
L 133.339597 46.159973 
L 131.657143 46.892225 
L 128.365714 47.276634 
L 125.074286 48.595242 
L 121.782857 48.706735 
L 119.822707 49.457114 
L 118.491429 50.187157 
L 115.2 51.664975 
L 114.097925 52.754255 
L 111.908571 54.290876 
L 109.597403 56.051396 
L 108.617143 56.8625 
L 105.325714 58.83303 
L 104.8026 59.348537 
L 102.034286 60.923824 
L 98.815764 62.645678 
L 98.742857 62.685808 
L 95.451429 63.413426 
L 92.16 63.96381 
L 88.868571 63.028427 
L 88.630583 62.645678 
L 85.577143 62.154146 
L 85.073025 62.645678 
L 82.285714 64.842369 
L 80.908834 65.942818 
L 78.994286 67.456177 
L 76.445523 69.239959 
L 75.702857 69.811457 
L 72.411429 71.93993 
L 71.800937 72.5371 
L 69.12 74.470656 
L 67.446047 75.834241 
L 65.828571 76.736729 
L 62.537143 77.313851 
L 59.822317 79.131382 
L 60.372935 82.428523 
L 59.245714 83.557701 
L 57.848647 82.428523 
L 55.954286 79.429417 
L 53.837552 79.131382 
L 52.662857 77.239772 
L 49.371429 78.351127 
L 47.872905 79.131382 
L 46.08 80.294072 
L 42.788571 81.850632 
L 42.195528 82.428523 
L 39.497143 84.306927 
L 37.915651 85.725664 
L 36.205714 87.003308 
L 33.502919 89.022805 
L 32.914286 89.482465 
L 29.622857 90.672849 
L 26.625327 92.319946 
L 26.331429 92.470493 
L 23.04 92.976988 
L 19.748571 93.134296 
L 17.504543 92.319946 
L 16.457143 91.477921 
L 13.165714 91.680705 
L 12.507664 92.319946 
L 9.874286 94.437616 
L 8.365818 95.617087 
L 6.582857 97.042874 
L 3.72898 98.914228 
L 3.291429 99.249351 
L 0 101.267319 
L 0 102.111225 
L 3.291429 100.138909 
L 4.890427 98.914228 
L 6.582857 97.804462 
L 9.318191 95.617087 
L 9.874286 95.182277 
L 13.165714 95.179379 
L 13.433268 95.617087 
L 14.119616 98.914228 
L 14.845741 102.211369 
z
M 15.29012 102.211369 
L 14.764239 98.914228 
L 16.457143 96.143882 
L 19.748571 96.606391 
L 20.917216 98.914228 
L 19.748571 100.0849 
L 17.625787 102.211369 
L 16.457143 103.51814 
z
M 51.518262 85.725664 
L 52.662857 83.268876 
L 55.954286 84.326172 
L 57.081507 85.725664 
L 55.954286 86.854842 
L 52.662857 86.854842 
z
M 52.815386 82.428523 
L 55.954286 80.289895 
L 57.305133 82.428523 
L 55.954286 83.781715 
z
M 91.001395 69.239959 
L 92.16 66.788227 
L 93.248165 69.239959 
L 92.16 70.330013 
z
M 159.983624 36.26855 
L 161.28 33.347686 
L 162.336391 36.26855 
L 161.28 37.326775 
z
M 189.869213 23.079986 
L 190.902857 21.512306 
L 191.923439 23.079986 
L 190.902857 24.10234 
z
M 192.629321 19.782846 
L 194.194286 16.707785 
L 195.214868 19.782846 
L 194.194286 20.805199 
z
M 88.868571 74.059466 
L 90.388299 72.5371 
L 88.868571 70.916188 
L 87.314153 72.5371 
z
M 87.755567 72.5371 
L 88.868571 71.376485 
L 89.956737 72.5371 
L 88.868571 73.627154 
z
M 121.782857 57.565716 
L 123.279493 56.051396 
L 121.782857 53.38567 
L 120.27116 56.051396 
z
M 120.704679 56.051396 
L 121.782857 54.150138 
L 122.850293 56.051396 
L 121.782857 57.131445 
z
M 157.988571 41.057452 
L 159.477748 39.565691 
L 157.988571 37.73504 
L 156.502795 39.565691 
z
M 156.934592 39.565691 
L 157.988571 38.267065 
L 159.044963 39.565691 
L 157.988571 40.623916 
z
M 230.4 4.754909 
L 231.855242 3.297141 
L 230.4 0.231112 
L 228.841234 3.297141 
z
M 229.317793 3.297141 
L 230.4 1.168484 
L 231.410333 3.297141 
L 230.4 4.309228 
z
M 227.108571 0.383248 
L 229.280283 0 
L 227.108571 0 
L 224.271051 0 
z
" clip-path="url(#p1f73bc8fe8)" style="fill: #e5eff9; fill-opacity: 0.9"/>
    <path d="M 16.457143 103.51814 
L 17.625787 102.211369 
L 19.748571 100.0849 
L 20.917216 98.914228 
L 19.748571 96.606391 
L 16.457143 96.143882 
L 14.764239 98.914228 
L 15.29012 102.211369 
z
M 15.734499 102.211369 
L 15.408863 98.914228 
L 16.457143 97.198774 
L 19.748571 97.485169 
L 20.472219 98.914228 
L 19.748571 99.639131 
L 17.180791 102.211369 
L 16.457143 103.020548 
z
M 3.291429 99.249351 
L 3.72898 98.914228 
L 6.582857 97.042874 
L 8.365818 95.617087 
L 9.874286 94.437616 
L 12.507664 92.319946 
L 13.165714 91.680705 
L 16.457143 91.477921 
L 17.504543 92.319946 
L 19.748571 93.134296 
L 23.04 92.976988 
L 26.331429 92.470493 
L 26.625327 92.319946 
L 29.622857 90.672849 
L 32.914286 89.482465 
L 33.502919 89.022805 
L 36.205714 87.003308 
L 37.915651 85.725664 
L 39.497143 84.306927 
L 42.195528 82.428523 
L 42.788571 81.850632 
L 46.08 80.294072 
L 47.872905 79.131382 
L 49.371429 78.351127 
L 52.662857 77.239772 
L 53.837552 79.131382 
L 55.954286 79.429417 
L 57.848647 82.428523 
L 59.245714 83.557701 
L 60.372935 82.428523 
L 59.822317 79.131382 
L 62.537143 77.313851 
L 65.828571 76.736729 
L 67.446047 75.834241 
L 69.12 74.470656 
L 71.800937 72.5371 
L 72.411429 71.93993 
L 75.702857 69.811457 
L 76.445523 69.239959 
L 78.994286 67.456177 
L 80.908834 65.942818 
L 82.285714 64.842369 
L 85.073025 62.645678 
L 85.577143 62.154146 
L 88.630583 62.645678 
L 88.868571 63.028427 
L 92.16 63.96381 
L 95.451429 63.413426 
L 98.742857 62.685808 
L 98.815764 62.645678 
L 102.034286 60.923824 
L 104.8026 59.348537 
L 105.325714 58.83303 
L 108.617143 56.8625 
L 109.597403 56.051396 
L 111.908571 54.290876 
L 114.097925 52.754255 
L 115.2 51.664975 
L 118.491429 50.187157 
L 119.822707 49.457114 
L 121.782857 48.706735 
L 125.074286 48.595242 
L 128.365714 47.276634 
L 131.657143 46.892225 
L 133.339597 46.159973 
L 134.948571 44.952891 
L 138.24 43.680642 
L 139.383637 42.862832 
L 141.531429 41.112191 
L 143.822492 39.565691 
L 144.822857 38.576827 
L 148.114286 36.900714 
L 148.969439 36.26855 
L 151.405714 34.831507 
L 153.753916 32.971409 
L 154.697143 32.080701 
L 157.897739 29.674268 
L 157.988571 29.584933 
L 158.433412 29.674268 
L 161.28 31.658699 
L 164.571429 30.421724 
L 167.635369 29.674268 
L 167.862857 29.548002 
L 171.154286 27.787976 
L 173.432091 26.377127 
L 174.445714 25.373555 
L 177.737143 23.560364 
L 178.331019 23.079986 
L 181.028571 21.248312 
L 182.842835 19.782846 
L 184.32 18.335124 
L 187.351011 16.485705 
L 187.611429 16.228898 
L 190.902857 15.434232 
L 194.194286 14.788516 
L 197.485714 13.943701 
L 200.777143 13.744432 
L 201.861149 13.188564 
L 204.068571 11.52894 
L 207.36 10.221776 
L 207.794006 9.891423 
L 210.651429 7.844348 
L 212.396342 6.594282 
L 213.942857 5.066323 
L 216.851572 3.297141 
L 217.234286 2.91877 
L 220.525714 1.403322 
L 222.415463 0 
L 221.113386 0 
L 220.525714 0.436403 
L 217.234286 1.728918 
L 215.648065 3.297141 
L 213.942857 4.334308 
L 211.655437 6.594282 
L 210.651429 7.31356 
L 207.36 9.151541 
L 206.48467 9.891423 
L 204.068571 10.764938 
L 200.844969 13.188564 
L 200.777143 13.223344 
L 200.161212 13.188564 
L 197.485714 10.329837 
L 194.194286 12.031923 
L 192.196255 13.188564 
L 190.902857 13.97897 
L 187.611429 15.045491 
L 186.150965 16.485705 
L 184.32 17.602897 
L 182.095716 19.782846 
L 181.028571 20.644829 
L 177.737143 22.494673 
L 177.139501 23.079986 
L 174.445714 24.454482 
L 172.503814 26.377127 
L 171.154286 27.213011 
L 167.862857 27.899294 
L 164.66497 29.674268 
L 164.571429 29.697088 
L 164.385052 29.674268 
L 161.28 28.052864 
L 157.988571 28.38232 
L 156.674968 29.674268 
L 154.697143 31.161336 
L 152.780342 32.971409 
L 151.405714 34.060303 
L 148.114286 35.689602 
L 147.522034 36.26855 
L 144.822857 37.68097 
L 142.916216 39.565691 
L 141.531429 40.500442 
L 138.633107 42.862832 
L 138.24 43.143941 
L 134.948571 44.019718 
L 132.095728 46.159973 
L 131.657143 46.350858 
L 129.561637 46.159973 
L 128.365714 44.21406 
L 125.074286 45.14506 
L 123.7905 46.159973 
L 121.782857 47.534936 
L 118.491429 48.632634 
L 117.648777 49.457114 
L 115.2 50.829344 
L 113.252479 52.754255 
L 111.908571 53.697491 
L 108.818421 56.051396 
L 108.617143 56.217941 
L 105.325714 57.759223 
L 103.712948 59.348537 
L 102.034286 60.303766 
L 98.742857 61.05044 
L 95.841205 62.645678 
L 95.451429 62.731516 
L 94.693673 62.645678 
L 92.670999 59.348537 
L 92.16 58.548161 
L 88.868571 58.547276 
L 88.039736 59.348537 
L 85.577143 61.164535 
L 84.058075 62.645678 
L 82.285714 64.042482 
L 79.908017 65.942818 
L 78.994286 66.665079 
L 75.702857 68.708733 
L 75.152444 69.239959 
L 72.411429 70.942908 
L 70.781674 72.5371 
L 69.12 73.735539 
L 66.543609 75.834241 
L 65.828571 76.233204 
L 62.537143 76.468335 
L 59.245714 76.750503 
L 57.958609 75.834241 
L 55.954286 72.645465 
L 52.662857 74.800681 
L 51.378791 75.834241 
L 49.371429 77.275541 
L 46.08 78.92007 
L 45.859889 79.131382 
L 42.788571 80.894097 
L 41.213914 82.428523 
L 39.497143 83.623604 
L 37.153938 85.725664 
L 36.205714 86.434166 
L 32.914286 88.638035 
L 32.434621 89.022805 
L 29.622857 89.965275 
L 26.331429 90.685315 
L 23.04 91.470426 
L 21.572533 89.022805 
L 19.748571 88.261174 
L 16.457143 88.382869 
L 15.789415 89.022805 
L 13.165714 90.78117 
L 11.581659 92.319946 
L 9.874286 93.692956 
L 7.413445 95.617087 
L 6.582857 96.281286 
L 3.291429 98.091966 
L 2.440769 98.914228 
L 0 100.423412 
L 0 101.267319 
z
M 58.392161 82.428523 
L 59.245714 79.979023 
L 59.934402 82.428523 
L 59.245714 83.118406 
z
M 52.662857 86.854842 
L 55.954286 86.854842 
L 57.081507 85.725664 
L 55.954286 84.326172 
L 52.662857 83.268876 
L 51.518262 85.725664 
z
M 51.963555 85.725664 
L 52.662857 84.224663 
L 55.954286 84.870629 
L 56.642974 85.725664 
L 55.954286 86.415547 
L 52.662857 86.415547 
z
M 88.868571 73.627154 
L 89.956737 72.5371 
L 88.868571 71.376485 
L 87.755567 72.5371 
z
M 88.196981 72.5371 
L 88.868571 71.836781 
L 89.525174 72.5371 
L 88.868571 73.194842 
z
M 92.16 70.330013 
L 93.248165 69.239959 
L 92.16 66.788227 
L 91.001395 69.239959 
z
M 91.460894 69.239959 
L 92.16 67.760576 
L 92.816602 69.239959 
L 92.16 69.897701 
z
M 121.782857 57.131445 
L 122.850293 56.051396 
L 121.782857 54.150138 
L 120.704679 56.051396 
z
M 121.138199 56.051396 
L 121.782857 54.914605 
L 122.421093 56.051396 
L 121.782857 56.697173 
z
M 157.988571 40.623916 
L 159.044963 39.565691 
L 157.988571 38.267065 
L 156.934592 39.565691 
z
M 157.366389 39.565691 
L 157.988571 38.799089 
L 158.612178 39.565691 
L 157.988571 40.19038 
z
M 161.28 37.326775 
L 162.336391 36.26855 
L 161.28 33.347686 
L 159.983624 36.26855 
z
M 160.514726 36.26855 
L 161.28 34.544313 
L 161.903606 36.26855 
L 161.28 36.893239 
z
M 190.902857 24.10234 
L 191.923439 23.079986 
L 190.902857 21.512306 
L 189.869213 23.079986 
z
M 190.306402 23.079986 
L 190.902857 22.175371 
L 191.491774 23.079986 
L 190.902857 23.669926 
z
M 194.194286 20.805199 
L 195.214868 19.782846 
L 194.194286 16.707785 
L 192.629321 19.782846 
z
M 193.291238 19.782846 
L 194.194286 18.008411 
L 194.783203 19.782846 
L 194.194286 20.372785 
z
M 230.4 4.309228 
L 231.410333 3.297141 
L 230.4 1.168484 
L 229.317793 3.297141 
z
M 229.794352 3.297141 
L 230.4 2.105856 
L 230.965425 3.297141 
L 230.4 3.863547 
z
" clip-path="url(#p1f73bc8fe8)" style="fill: #dfecf7; fill-opacity: 0.9"/>
    <path d="M 16.457143 103.020548 
L 17.180791 102.211369 
L 19.748571 99.639131 
L 20.472219 98.914228 
L 19.748571 97.485169 
L 16.457143 97.198774 
L 15.408863 98.914228 
L 15.734499 102.211369 
z
M 16.178878 102.211369 
L 16.053487 98.914228 
L 16.457143 98.253667 
L 19.748571 98.363947 
L 20.027223 98.914228 
L 19.748571 99.193363 
L 16.735794 102.211369 
L 16.457143 102.522955 
z
M 2.440769 98.914228 
L 3.291429 98.091966 
L 6.582857 96.281286 
L 7.413445 95.617087 
L 9.874286 93.692956 
L 11.581659 92.319946 
L 13.165714 90.78117 
L 15.789415 89.022805 
L 16.457143 88.382869 
L 19.748571 88.261174 
L 21.572533 89.022805 
L 23.04 91.470426 
L 26.331429 90.685315 
L 29.622857 89.965275 
L 32.434621 89.022805 
L 32.914286 88.638035 
L 36.205714 86.434166 
L 37.153938 85.725664 
L 39.497143 83.623604 
L 41.213914 82.428523 
L 42.788571 80.894097 
L 45.859889 79.131382 
L 46.08 78.92007 
L 49.371429 77.275541 
L 51.378791 75.834241 
L 52.662857 74.800681 
L 55.954286 72.645465 
L 57.958609 75.834241 
L 59.245714 76.750503 
L 62.537143 76.468335 
L 65.828571 76.233204 
L 66.543609 75.834241 
L 69.12 73.735539 
L 70.781674 72.5371 
L 72.411429 70.942908 
L 75.152444 69.239959 
L 75.702857 68.708733 
L 78.994286 66.665079 
L 79.908017 65.942818 
L 82.285714 64.042482 
L 84.058075 62.645678 
L 85.577143 61.164535 
L 88.039736 59.348537 
L 88.868571 58.547276 
L 92.16 58.548161 
L 92.670999 59.348537 
L 94.693673 62.645678 
L 95.451429 62.731516 
L 95.841205 62.645678 
L 98.742857 61.05044 
L 102.034286 60.303766 
L 103.712948 59.348537 
L 105.325714 57.759223 
L 108.617143 56.217941 
L 108.818421 56.051396 
L 111.908571 53.697491 
L 113.252479 52.754255 
L 115.2 50.829344 
L 117.648777 49.457114 
L 118.491429 48.632634 
L 121.782857 47.534936 
L 123.7905 46.159973 
L 125.074286 45.14506 
L 128.365714 44.21406 
L 129.561637 46.159973 
L 131.657143 46.350858 
L 132.095728 46.159973 
L 134.948571 44.019718 
L 138.24 43.143941 
L 138.633107 42.862832 
L 141.531429 40.500442 
L 142.916216 39.565691 
L 144.822857 37.68097 
L 147.522034 36.26855 
L 148.114286 35.689602 
L 151.405714 34.060303 
L 152.780342 32.971409 
L 154.697143 31.161336 
L 156.674968 29.674268 
L 157.988571 28.38232 
L 161.28 28.052864 
L 164.385052 29.674268 
L 164.571429 29.697088 
L 164.66497 29.674268 
L 167.862857 27.899294 
L 171.154286 27.213011 
L 172.503814 26.377127 
L 174.445714 24.454482 
L 177.139501 23.079986 
L 177.737143 22.494673 
L 181.028571 20.644829 
L 182.095716 19.782846 
L 184.32 17.602897 
L 186.150965 16.485705 
L 187.611429 15.045491 
L 190.902857 13.97897 
L 192.196255 13.188564 
L 194.194286 12.031923 
L 197.485714 10.329837 
L 200.161212 13.188564 
L 200.777143 13.223344 
L 200.844969 13.188564 
L 204.068571 10.764938 
L 206.48467 9.891423 
L 207.36 9.151541 
L 210.651429 7.31356 
L 211.655437 6.594282 
L 213.942857 4.334308 
L 215.648065 3.297141 
L 217.234286 1.728918 
L 220.525714 0.436403 
L 221.113386 0 
L 220.525714 0 
L 218.72292 0 
L 217.234286 0.539067 
L 214.444558 3.297141 
L 213.942857 3.602293 
L 210.914532 6.594282 
L 210.651429 6.782771 
L 207.36 7.365344 
L 204.371477 9.891423 
L 204.068571 10.000935 
L 203.214584 9.891423 
L 201.211686 6.594282 
L 200.777143 6.260477 
L 200.422277 6.594282 
L 197.485714 7.860988 
L 195.400487 9.891423 
L 194.194286 10.653383 
L 190.902857 11.779245 
L 189.437231 13.188564 
L 187.611429 13.862084 
L 184.95092 16.485705 
L 184.32 16.87067 
L 181.348598 19.782846 
L 181.028571 20.041346 
L 177.737143 20.730594 
L 175.338268 23.079986 
L 174.445714 23.535409 
L 171.575537 26.377127 
L 171.154286 26.638046 
L 168.339007 26.377127 
L 167.862857 25.635443 
L 164.571429 24.763166 
L 161.28 25.092586 
L 159.94085 26.377127 
L 157.988571 27.179706 
L 155.452197 29.674268 
L 154.697143 30.241971 
L 151.806769 32.971409 
L 151.405714 33.289099 
L 148.114286 34.016048 
L 145.810024 36.26855 
L 144.822857 36.785113 
L 142.00994 39.565691 
L 141.531429 39.888693 
L 138.24 41.37098 
L 136.050679 42.862832 
L 134.948571 43.086545 
L 133.523123 42.862832 
L 131.657143 39.85147 
L 128.365714 41.090136 
L 126.53598 42.862832 
L 125.074286 43.792412 
L 122.079506 46.159973 
L 121.782857 46.363137 
L 118.491429 47.17359 
L 116.157574 49.457114 
L 115.2 49.993713 
L 112.407033 52.754255 
L 111.908571 53.104106 
L 108.617143 54.282006 
L 106.78466 56.051396 
L 105.325714 56.685416 
L 102.623296 59.348537 
L 102.034286 59.683708 
L 98.744348 59.348537 
L 98.742857 59.346116 
L 96.703524 56.051396 
L 95.451429 54.923955 
L 92.16 54.660873 
L 90.697731 56.051396 
L 88.868571 57.249955 
L 86.697769 59.348537 
L 85.577143 60.174924 
L 83.043125 62.645678 
L 82.285714 63.242596 
L 78.994286 65.641005 
L 78.666151 65.942818 
L 75.702857 67.159894 
L 73.547666 69.239959 
L 72.411429 69.945885 
L 69.762411 72.5371 
L 69.12 73.000422 
L 65.828571 74.999659 
L 62.537143 73.301322 
L 62.072637 72.5371 
L 59.996022 69.239959 
L 59.245714 68.904374 
L 58.881904 69.239959 
L 55.954286 70.873597 
L 54.210121 72.5371 
L 52.662857 73.594911 
L 49.880775 75.834241 
L 49.371429 76.199956 
L 46.08 77.320049 
L 44.193244 79.131382 
L 42.788571 79.937563 
L 40.2323 82.428523 
L 39.497143 82.940282 
L 36.392226 85.725664 
L 36.205714 85.865024 
L 32.914286 86.944683 
L 30.323642 89.022805 
L 29.622857 89.2577 
L 27.625463 89.022805 
L 26.331429 86.862099 
L 25.641445 85.725664 
L 23.04 84.722073 
L 19.748571 85.719833 
L 19.742145 85.725664 
L 16.457143 87.096515 
L 14.447194 89.022805 
L 13.165714 89.881634 
L 10.655654 92.319946 
L 9.874286 92.948295 
L 6.582857 95.230787 
L 6.163568 95.617087 
L 3.291429 96.772697 
L 1.075938 98.914228 
L 0 99.579505 
L 0 100.423412 
z
M 52.662857 86.415547 
L 55.954286 86.415547 
L 56.642974 85.725664 
L 55.954286 84.870629 
L 52.662857 84.224663 
L 51.963555 85.725664 
z
M 52.408847 85.725664 
L 52.662857 85.18045 
L 55.954286 85.415087 
L 56.20444 85.725664 
L 55.954286 85.976253 
L 52.662857 85.976253 
z
M 59.245714 83.118406 
L 59.934402 82.428523 
L 59.245714 79.979023 
L 58.392161 82.428523 
z
M 58.935675 82.428523 
L 59.245714 81.538782 
L 59.495869 82.428523 
L 59.245714 82.679112 
z
M 88.868571 73.194842 
L 89.525174 72.5371 
L 88.868571 71.836781 
L 88.196981 72.5371 
z
M 88.638395 72.5371 
L 88.868571 72.297078 
L 89.093611 72.5371 
L 88.868571 72.76253 
z
M 92.16 69.897701 
L 92.816602 69.239959 
L 92.16 67.760576 
L 91.460894 69.239959 
z
M 91.920393 69.239959 
L 92.16 68.732925 
L 92.38504 69.239959 
L 92.16 69.465389 
z
M 121.782857 56.697173 
L 122.421093 56.051396 
L 121.782857 54.914605 
L 121.138199 56.051396 
z
M 121.571718 56.051396 
L 121.782857 55.679073 
L 121.991893 56.051396 
L 121.782857 56.262902 
z
M 157.988571 40.19038 
L 158.612178 39.565691 
L 157.988571 38.799089 
L 157.366389 39.565691 
z
M 157.798186 39.565691 
L 157.988571 39.331114 
L 158.179393 39.565691 
L 157.988571 39.756844 
z
M 161.28 36.893239 
L 161.903606 36.26855 
L 161.28 34.544313 
L 160.514726 36.26855 
z
M 161.045829 36.26855 
L 161.28 35.74094 
L 161.470821 36.26855 
L 161.28 36.459703 
z
M 190.902857 23.669926 
L 191.491774 23.079986 
L 190.902857 22.175371 
L 190.306402 23.079986 
z
M 190.743592 23.079986 
L 190.902857 22.838436 
L 191.06011 23.079986 
L 190.902857 23.237512 
z
M 194.194286 20.372785 
L 194.783203 19.782846 
L 194.194286 18.008411 
L 193.291238 19.782846 
z
M 193.953154 19.782846 
L 194.194286 19.309037 
L 194.351538 19.782846 
L 194.194286 19.940371 
z
M 230.4 3.863547 
L 230.965425 3.297141 
L 230.4 2.105856 
L 229.794352 3.297141 
z
M 230.270911 3.297141 
L 230.4 3.043228 
L 230.520516 3.297141 
L 230.4 3.417866 
z
" clip-path="url(#p1f73bc8fe8)" style="fill: #dae8f6; fill-opacity: 0.9"/>
    <path d="M 16.457143 102.522955 
L 16.735794 102.211369 
L 19.748571 99.193363 
L 20.027223 98.914228 
L 19.748571 98.363947 
L 16.457143 98.253667 
L 16.053487 98.914228 
L 16.178878 102.211369 
z
M 1.075938 98.914228 
L 3.291429 96.772697 
L 6.163568 95.617087 
L 6.582857 95.230787 
L 9.874286 92.948295 
L 10.655654 92.319946 
L 13.165714 89.881634 
L 14.447194 89.022805 
L 16.457143 87.096515 
L 19.742145 85.725664 
L 19.748571 85.719833 
L 23.04 84.722073 
L 25.641445 85.725664 
L 26.331429 86.862099 
L 27.625463 89.022805 
L 29.622857 89.2577 
L 30.323642 89.022805 
L 32.914286 86.944683 
L 36.205714 85.865024 
L 36.392226 85.725664 
L 39.497143 82.940282 
L 40.2323 82.428523 
L 42.788571 79.937563 
L 44.193244 79.131382 
L 46.08 77.320049 
L 49.371429 76.199956 
L 49.880775 75.834241 
L 52.662857 73.594911 
L 54.210121 72.5371 
L 55.954286 70.873597 
L 58.881904 69.239959 
L 59.245714 68.904374 
L 59.996022 69.239959 
L 62.072637 72.5371 
L 62.537143 73.301322 
L 65.828571 74.999659 
L 69.12 73.000422 
L 69.762411 72.5371 
L 72.411429 69.945885 
L 73.547666 69.239959 
L 75.702857 67.159894 
L 78.666151 65.942818 
L 78.994286 65.641005 
L 82.285714 63.242596 
L 83.043125 62.645678 
L 85.577143 60.174924 
L 86.697769 59.348537 
L 88.868571 57.249955 
L 90.697731 56.051396 
L 92.16 54.660873 
L 95.451429 54.923955 
L 96.703524 56.051396 
L 98.742857 59.346116 
L 98.744348 59.348537 
L 102.034286 59.683708 
L 102.623296 59.348537 
L 105.325714 56.685416 
L 106.78466 56.051396 
L 108.617143 54.282006 
L 111.908571 53.104106 
L 112.407033 52.754255 
L 115.2 49.993713 
L 116.157574 49.457114 
L 118.491429 47.17359 
L 121.782857 46.363137 
L 122.079506 46.159973 
L 125.074286 43.792412 
L 126.53598 42.862832 
L 128.365714 41.090136 
L 131.657143 39.85147 
L 133.523123 42.862832 
L 134.948571 43.086545 
L 136.050679 42.862832 
L 138.24 41.37098 
L 141.531429 39.888693 
L 142.00994 39.565691 
L 144.822857 36.785113 
L 145.810024 36.26855 
L 148.114286 34.016048 
L 151.405714 33.289099 
L 151.806769 32.971409 
L 154.697143 30.241971 
L 155.452197 29.674268 
L 157.988571 27.179706 
L 159.94085 26.377127 
L 161.28 25.092586 
L 164.571429 24.763166 
L 167.862857 25.635443 
L 168.339007 26.377127 
L 171.154286 26.638046 
L 171.575537 26.377127 
L 174.445714 23.535409 
L 175.338268 23.079986 
L 177.737143 20.730594 
L 181.028571 20.041346 
L 181.348598 19.782846 
L 184.32 16.87067 
L 184.95092 16.485705 
L 187.611429 13.862084 
L 189.437231 13.188564 
L 190.902857 11.779245 
L 194.194286 10.653383 
L 195.400487 9.891423 
L 197.485714 7.860988 
L 200.422277 6.594282 
L 200.777143 6.260477 
L 201.211686 6.594282 
L 203.214584 9.891423 
L 204.068571 10.000935 
L 204.371477 9.891423 
L 207.36 7.365344 
L 210.651429 6.782771 
L 210.914532 6.594282 
L 213.942857 3.602293 
L 214.444558 3.297141 
L 217.234286 0.539067 
L 218.72292 0 
L 217.234286 0 
L 213.942857 0 
L 210.651429 0 
L 207.36 0 
L 204.068571 0 
L 200.777143 0 
L 198.111449 0 
L 197.485714 0.407813 
L 194.194286 1.471597 
L 190.902857 2.56053 
L 187.985591 3.297141 
L 187.611429 3.391125 
L 184.32 3.978824 
L 181.028571 6.043579 
L 180.198416 6.594282 
L 177.737143 8.389154 
L 175.016434 9.891423 
L 174.445714 10.241864 
L 171.154286 12.23321 
L 170.011437 13.188564 
L 167.862857 14.682006 
L 165.152527 16.485705 
L 164.571429 16.902516 
L 161.28 18.476476 
L 159.262075 19.782846 
L 157.988571 20.451305 
L 154.697143 21.795071 
L 151.405714 22.471008 
L 149.873888 23.079986 
L 148.114286 23.727266 
L 144.822857 24.95071 
L 141.531429 26.124851 
L 141.191927 26.377127 
L 138.24 28.591277 
L 136.578762 29.674268 
L 134.948571 30.840748 
L 131.657143 32.820229 
L 131.44658 32.971409 
L 128.365714 34.828693 
L 126.260322 36.26855 
L 125.074286 37.042366 
L 121.782857 38.504904 
L 119.587056 39.565691 
L 118.491429 39.96545 
L 115.2 40.810835 
L 111.908571 41.516653 
L 109.048385 42.862832 
L 108.617143 43.041022 
L 105.325714 44.840483 
L 102.560555 46.159973 
L 102.034286 46.433997 
L 98.742857 48.543714 
L 97.374268 49.457114 
L 95.451429 49.930107 
L 92.227469 52.754255 
L 92.16 52.778131 
L 88.868571 54.52845 
L 86.237071 56.051396 
L 85.577143 56.393445 
L 82.285714 56.772621 
L 78.994286 57.380379 
L 75.702857 58.519853 
L 72.616062 59.348537 
L 72.411429 59.400938 
L 69.12 60.816158 
L 65.828571 62.427838 
L 65.527641 62.645678 
L 62.537143 63.91128 
L 59.920202 65.942818 
L 59.245714 66.123737 
L 55.954286 68.727691 
L 55.11839 69.239959 
L 52.662857 70.586137 
L 49.540494 72.5371 
L 49.371429 72.569963 
L 46.08 73.09926 
L 42.788571 73.918913 
L 39.497143 74.432432 
L 36.205714 75.307629 
L 35.046473 75.834241 
L 32.914286 76.778657 
L 29.622857 78.601068 
L 28.710688 79.131382 
L 26.331429 79.573253 
L 23.04 82.161644 
L 22.627232 82.428523 
L 19.748571 82.922592 
L 16.659624 85.725664 
L 16.457143 85.810161 
L 13.165714 88.187833 
L 11.621133 89.022805 
L 9.874286 89.836536 
L 6.582857 90.486376 
L 3.291429 90.875956 
L 0 92.079238 
L 0 92.319946 
L 0 95.617087 
L 0 98.914228 
L 0 99.579505 
z
M 52.662857 85.976253 
L 55.954286 85.976253 
L 56.20444 85.725664 
L 55.954286 85.415087 
L 52.662857 85.18045 
L 52.408847 85.725664 
z
M 59.245714 82.679112 
L 59.495869 82.428523 
L 59.245714 81.538782 
L 58.935675 82.428523 
z
M 88.868571 72.76253 
L 89.093611 72.5371 
L 88.868571 72.297078 
L 88.638395 72.5371 
z
M 92.16 69.465389 
L 92.38504 69.239959 
L 92.16 68.732925 
L 91.920393 69.239959 
z
M 121.782857 56.262902 
L 121.991893 56.051396 
L 121.782857 55.679073 
L 121.571718 56.051396 
z
M 157.988571 39.756844 
L 158.179393 39.565691 
L 157.988571 39.331114 
L 157.798186 39.565691 
z
M 161.28 36.459703 
L 161.470821 36.26855 
L 161.28 35.74094 
L 161.045829 36.26855 
z
M 190.902857 23.237512 
L 191.06011 23.079986 
L 190.902857 22.838436 
L 190.743592 23.079986 
z
M 194.194286 19.940371 
L 194.351538 19.782846 
L 194.194286 19.309037 
L 193.953154 19.782846 
z
M 0.217479 3.297141 
L 3.291429 0.785805 
L 4.608083 0 
L 3.291429 0 
L 0 0 
L 0 3.297141 
L 0 3.442725 
z
M 230.4 3.417866 
L 230.520516 3.297141 
L 230.4 3.043228 
L 230.270911 3.297141 
z
" clip-path="url(#p1f73bc8fe8)" style="fill: #d6e5f4; fill-opacity: 0.9"/>
    <path d="M 3.291429 90.875956 
L 6.582857 90.486376 
L 9.874286 89.836536 
L 11.621133 89.022805 
L 13.165714 88.187833 
L 16.457143 85.810161 
L 16.659624 85.725664 
L 19.748571 82.922592 
L 22.627232 82.428523 
L 23.04 82.161644 
L 26.331429 79.573253 
L 28.710688 79.131382 
L 29.622857 78.601068 
L 32.914286 76.778657 
L 35.046473 75.834241 
L 36.205714 75.307629 
L 39.497143 74.432432 
L 42.788571 73.918913 
L 46.08 73.09926 
L 49.371429 72.569963 
L 49.540494 72.5371 
L 52.662857 70.586137 
L 55.11839 69.239959 
L 55.954286 68.727691 
L 59.245714 66.123737 
L 59.920202 65.942818 
L 62.537143 63.91128 
L 65.527641 62.645678 
L 65.828571 62.427838 
L 69.12 60.816158 
L 72.411429 59.400938 
L 72.616062 59.348537 
L 75.702857 58.519853 
L 78.994286 57.380379 
L 82.285714 56.772621 
L 85.577143 56.393445 
L 86.237071 56.051396 
L 88.868571 54.52845 
L 92.16 52.778131 
L 92.227469 52.754255 
L 95.451429 49.930107 
L 97.374268 49.457114 
L 98.742857 48.543714 
L 102.034286 46.433997 
L 102.560555 46.159973 
L 105.325714 44.840483 
L 108.617143 43.041022 
L 109.048385 42.862832 
L 111.908571 41.516653 
L 115.2 40.810835 
L 118.491429 39.96545 
L 119.587056 39.565691 
L 121.782857 38.504904 
L 125.074286 37.042366 
L 126.260322 36.26855 
L 128.365714 34.828693 
L 131.44658 32.971409 
L 131.657143 32.820229 
L 134.948571 30.840748 
L 136.578762 29.674268 
L 138.24 28.591277 
L 141.191927 26.377127 
L 141.531429 26.124851 
L 144.822857 24.95071 
L 148.114286 23.727266 
L 149.873888 23.079986 
L 151.405714 22.471008 
L 154.697143 21.795071 
L 157.988571 20.451305 
L 159.262075 19.782846 
L 161.28 18.476476 
L 164.571429 16.902516 
L 165.152527 16.485705 
L 167.862857 14.682006 
L 170.011437 13.188564 
L 171.154286 12.23321 
L 174.445714 10.241864 
L 175.016434 9.891423 
L 177.737143 8.389154 
L 180.198416 6.594282 
L 181.028571 6.043579 
L 184.32 3.978824 
L 187.611429 3.391125 
L 187.985591 3.297141 
L 190.902857 2.56053 
L 194.194286 1.471597 
L 197.485714 0.407813 
L 198.111449 0 
L 197.485714 0 
L 194.194286 0 
L 190.902857 0 
L 187.611429 0 
L 184.32 0 
L 181.028571 0 
L 177.737143 0 
L 174.445714 0 
L 171.154286 0 
L 167.862857 0 
L 164.571429 0 
L 161.28 0 
L 157.988571 0 
L 154.697143 0 
L 151.405714 0 
L 148.114286 0 
L 146.322965 0 
L 144.822857 0.507907 
L 141.531429 1.793784 
L 138.24 3.192712 
L 137.92671 3.297141 
L 134.948571 4.258573 
L 131.657143 5.514851 
L 128.756728 6.594282 
L 128.365714 6.744963 
L 125.074286 8.209473 
L 121.782857 9.827549 
L 121.639885 9.891423 
L 118.491429 11.44858 
L 115.2 12.769582 
L 114.328955 13.188564 
L 111.908571 14.506369 
L 108.617143 15.733398 
L 106.162519 16.485705 
L 105.325714 16.75911 
L 102.034286 18.319358 
L 98.742857 19.489992 
L 98.009056 19.782846 
L 95.451429 20.717915 
L 92.16 21.866475 
L 89.111798 23.079986 
L 88.868571 23.169881 
L 85.577143 24.989665 
L 82.898907 26.377127 
L 82.285714 26.76724 
L 78.994286 28.217164 
L 75.702857 29.244145 
L 74.88412 29.674268 
L 72.411429 31.167392 
L 69.12 32.402761 
L 65.828571 32.734849 
L 64.616612 32.971409 
L 62.537143 33.379607 
L 59.245714 34.085256 
L 55.954286 35.497926 
L 54.45139 36.26855 
L 52.662857 37.213081 
L 49.371429 38.989817 
L 47.877349 39.565691 
L 46.08 40.416941 
L 42.788571 42.054402 
L 41.125946 42.862832 
L 39.497143 43.870781 
L 36.205714 44.733328 
L 32.914286 45.782203 
L 31.116914 46.159973 
L 29.622857 46.516667 
L 26.331429 48.224786 
L 24.509309 49.457114 
L 23.04 50.383162 
L 19.748571 52.131359 
L 18.76723 52.754255 
L 16.457143 53.974289 
L 13.165714 55.937295 
L 12.786782 56.051396 
L 9.874286 57.034218 
L 6.582857 57.543146 
L 3.291429 58.199924 
L 0 59.229849 
L 0 59.348537 
L 0 62.645678 
L 0 65.942818 
L 0 69.239959 
L 0 72.5371 
L 0 75.834241 
L 0 79.131382 
L 0 82.428523 
L 0 85.725664 
L 0 89.022805 
L 0 92.079238 
z
M 3.096049 13.188564 
L 3.291429 13.062284 
L 4.507873 13.188564 
L 6.582857 13.801803 
L 8.420305 13.188564 
L 9.874286 12.840451 
L 13.165714 12.582655 
L 16.457143 12.130216 
L 19.748571 10.588677 
L 21.107372 9.891423 
L 23.04 8.75763 
L 26.331429 7.163648 
L 27.002757 6.594282 
L 29.622857 4.881149 
L 31.510163 3.297141 
L 32.914286 2.302759 
L 36.165908 0 
L 32.914286 0 
L 29.622857 0 
L 26.331429 0 
L 23.04 0 
L 19.748571 0 
L 16.457143 0 
L 13.165714 0 
L 9.874286 0 
L 6.582857 0 
L 4.608083 0 
L 3.291429 0.785805 
L 0.217479 3.297141 
L 0 3.442725 
L 0 6.594282 
L 0 9.891423 
L 0 13.188564 
L 0 15.723563 
z
" clip-path="url(#p1f73bc8fe8)" style="fill: #d0e2f2; fill-opacity: 0.9"/>
    <path d="M 3.291429 58.199924 
L 6.582857 57.543146 
L 9.874286 57.034218 
L 12.786782 56.051396 
L 13.165714 55.937295 
L 16.457143 53.974289 
L 18.76723 52.754255 
L 19.748571 52.131359 
L 23.04 50.383162 
L 24.509309 49.457114 
L 26.331429 48.224786 
L 29.622857 46.516667 
L 31.116914 46.159973 
L 32.914286 45.782203 
L 36.205714 44.733328 
L 39.497143 43.870781 
L 41.125946 42.862832 
L 42.788571 42.054402 
L 46.08 40.416941 
L 47.877349 39.565691 
L 49.371429 38.989817 
L 52.662857 37.213081 
L 54.45139 36.26855 
L 55.954286 35.497926 
L 59.245714 34.085256 
L 62.537143 33.379607 
L 64.616612 32.971409 
L 65.828571 32.734849 
L 69.12 32.402761 
L 72.411429 31.167392 
L 74.88412 29.674268 
L 75.702857 29.244145 
L 78.994286 28.217164 
L 82.285714 26.76724 
L 82.898907 26.377127 
L 85.577143 24.989665 
L 88.868571 23.169881 
L 89.111798 23.079986 
L 92.16 21.866475 
L 95.451429 20.717915 
L 98.009056 19.782846 
L 98.742857 19.489992 
L 102.034286 18.319358 
L 105.325714 16.75911 
L 106.162519 16.485705 
L 108.617143 15.733398 
L 111.908571 14.506369 
L 114.328955 13.188564 
L 115.2 12.769582 
L 118.491429 11.44858 
L 121.639885 9.891423 
L 121.782857 9.827549 
L 125.074286 8.209473 
L 128.365714 6.744963 
L 128.756728 6.594282 
L 131.657143 5.514851 
L 134.948571 4.258573 
L 137.92671 3.297141 
L 138.24 3.192712 
L 141.531429 1.793784 
L 144.822857 0.507907 
L 146.322965 0 
L 144.822857 0 
L 141.531429 0 
L 138.24 0 
L 134.948571 0 
L 131.657143 0 
L 128.365714 0 
L 125.074286 0 
L 121.782857 0 
L 118.491429 0 
L 115.2 0 
L 111.908571 0 
L 108.617143 0 
L 105.325714 0 
L 102.034286 0 
L 98.742857 0 
L 95.451429 0 
L 92.16 0 
L 88.868571 0 
L 85.577143 0 
L 82.285714 0 
L 78.994286 0 
L 75.702857 0 
L 72.411429 0 
L 69.12 0 
L 65.828571 0 
L 62.537143 0 
L 59.245714 0 
L 55.954286 0 
L 52.662857 0 
L 49.371429 0 
L 46.08 0 
L 42.788571 0 
L 39.497143 0 
L 36.205714 0 
L 36.165908 0 
L 32.914286 2.302759 
L 31.510163 3.297141 
L 29.622857 4.881149 
L 27.002757 6.594282 
L 26.331429 7.163648 
L 23.04 8.75763 
L 21.107372 9.891423 
L 19.748571 10.588677 
L 16.457143 12.130216 
L 13.165714 12.582655 
L 9.874286 12.840451 
L 8.420305 13.188564 
L 6.582857 13.801803 
L 4.507873 13.188564 
L 3.291429 13.062284 
L 3.096049 13.188564 
L 0 15.723563 
L 0 16.485705 
L 0 19.782846 
L 0 23.079986 
L 0 26.377127 
L 0 29.674268 
L 0 32.971409 
L 0 36.26855 
L 0 39.565691 
L 0 42.862832 
L 0 46.159973 
L 0 49.457114 
L 0 52.754255 
L 0 56.051396 
L 0 59.229849 
z
" clip-path="url(#p1f73bc8fe8)" style="fill: #cbdef1; fill-opacity: 0.9"/>
    <path clip-path="url(#p1f73bc8fe8)" style="fill: #c6dbef; fill-opacity: 0.9"/>
    <path clip-path="url(#p1f73bc8fe8)" style="fill: #bed8ec; fill-opacity: 0.9"/>
    <path clip-path="url(#p1f73bc8fe8)" style="fill: #b5d4e9; fill-opacity: 0.9"/>
    <path clip-path="url(#p1f73bc8fe8)" style="fill: #add0e6; fill-opacity: 0.9"/>
    <path clip-path="url(#p1f73bc8fe8)" style="fill: #a5cde3; fill-opacity: 0.9"/>
    <path clip-path="url(#p1f73bc8fe8)" style="fill: #9cc9e1; fill-opacity: 0.9"/>
    <path clip-path="url(#p1f73bc8fe8)" style="fill: #91c3de; fill-opacity: 0.9"/>
    <path clip-path="url(#p1f73bc8fe8)" style="fill: #85bcdc; fill-opacity: 0.9"/>
    <path clip-path="url(#p1f73bc8fe8)" style="fill: #7cb7da; fill-opacity: 0.9"/>
    <path clip-path="url(#p1f73bc8fe8)" style="fill: #71b1d7; fill-opacity: 0.9"/>
    <path clip-path="url(#p1f73bc8fe8)" style="fill: #66abd4; fill-opacity: 0.9"/>
    <path clip-path="url(#p1f73bc8fe8)" style="fill: #5da5d1; fill-opacity: 0.9"/>
    <path clip-path="url(#p1f73bc8fe8)" style="fill: #56a0ce; fill-opacity: 0.9"/>
    <path clip-path="url(#p1f73bc8fe8)" style="fill: #4d99ca; fill-opacity: 0.9"/>
    <path clip-path="url(#p1f73bc8fe8)" style="fill: #4493c7; fill-opacity: 0.9"/>
    <path clip-path="url(#p1f73bc8fe8)" style="fill: #3c8cc3; fill-opacity: 0.9"/>
    <path clip-path="url(#p1f73bc8fe8)" style="fill: #3686c0; fill-opacity: 0.9"/>
    <path clip-path="url(#p1f73bc8fe8)" style="fill: #2f7fbc; fill-opacity: 0.9"/>
    <path clip-path="url(#p1f73bc8fe8)" style="fill: #2777b8; fill-opacity: 0.9"/>
    <path clip-path="url(#p1f73bc8fe8)" style="fill: #2070b4; fill-opacity: 0.9"/>
    <path clip-path="url(#p1f73bc8fe8)" style="fill: #1c6ab0; fill-opacity: 0.9"/>
    <path clip-path="url(#p1f73bc8fe8)" style="fill: #1663aa; fill-opacity: 0.9"/>
    <path clip-path="url(#p1f73bc8fe8)" style="fill: #115ca5; fill-opacity: 0.9"/>
    <path clip-path="url(#p1f73bc8fe8)" style="fill: #0c56a0; fill-opacity: 0.9"/>
    <path clip-path="url(#p1f73bc8fe8)" style="fill: #084f99; fill-opacity: 0.9"/>
    <path clip-path="url(#p1f73bc8fe8)" style="fill: #08488e; fill-opacity: 0.9"/>
    <path clip-path="url(#p1f73bc8fe8)" style="fill: #084184; fill-opacity: 0.9"/>
    <path clip-path="url(#p1f73bc8fe8)" style="fill: #083a7a; fill-opacity: 0.9"/>
    <path clip-path="url(#p1f73bc8fe8)" style="fill: #083370; fill-opacity: 0.9"/>
    <path clip-path="url(#p1f73bc8fe8)" style="fill: #08306b; fill-opacity: 0.9"/>
   </g>
   <g id="QuadContourSet_2">
    <path d="M 0 104.805661 
L 3.291429 103.734522 
L 6.582857 102.790173 
L 7.160658 102.211369 
L 9.874286 101.313184 
L 13.165714 101.092733 
L 13.512603 102.211369 
L 16.457143 105.50851 
L 19.405772 102.211369 
L 19.748571 101.867975 
L 22.697201 98.914228 
L 23.04 96.580873 
L 24.002117 95.617087 
L 26.331429 95.108957 
L 29.622857 94.577215 
L 31.876216 92.319946 
L 32.914286 91.861734 
L 36.205714 90.241491 
L 39.497143 90.237268 
L 40.709502 89.022805 
L 42.788571 87.923493 
L 46.08 88.028834 
L 48.334331 85.725664 
L 49.371429 85.006329 
L 49.737093 85.725664 
L 52.662857 88.612019 
L 55.954286 88.612019 
L 58.83564 85.725664 
L 59.245714 85.314878 
L 62.127069 82.428523 
L 62.537143 81.321657 
L 64.874069 79.131382 
L 65.828571 78.750828 
L 69.12 78.130412 
L 72.396227 75.834241 
L 72.411429 75.824621 
L 75.702857 74.122887 
L 78.994286 74.433405 
L 80.887305 72.5371 
L 82.285714 71.579499 
L 85.577143 71.5531 
L 85.989911 72.5371 
L 88.868571 75.356401 
L 91.682988 72.5371 
L 92.16 72.05926 
L 94.974417 69.239959 
L 95.451429 66.629448 
L 96.136869 65.942818 
L 98.742857 65.237667 
L 102.034286 64.377629 
L 103.763236 62.645678 
L 105.325714 61.857746 
L 108.617143 59.726342 
L 108.994294 59.348537 
L 111.908571 57.644289 
L 115.2 57.99317 
L 117.13841 56.051396 
L 118.491429 55.032271 
L 118.970603 56.051396 
L 121.782857 58.868531 
L 124.567093 56.051396 
L 124.034454 52.754255 
L 125.074286 52.080817 
L 128.365714 51.67852 
L 130.893023 49.457114 
L 131.657143 49.057692 
L 134.948571 48.455032 
L 137.626871 46.159973 
L 138.24 45.827444 
L 141.531429 44.480552 
L 144.26528 42.862832 
L 144.822857 42.618145 
L 148.114286 41.255739 
L 151.405714 39.581527 
L 151.421523 39.565691 
L 154.697143 38.559663 
L 155.207404 39.565691 
L 157.988571 42.35806 
L 160.776103 39.565691 
L 161.28 39.060919 
L 164.067531 36.26855 
L 164.571429 33.935921 
L 165.534269 32.971409 
L 167.862857 32.216867 
L 171.154286 30.933346 
L 172.411182 29.674268 
L 174.445714 28.731598 
L 177.737143 26.59378 
L 177.95342 26.377127 
L 181.028571 24.574096 
L 184.32 24.735187 
L 185.972332 23.079986 
L 187.611429 22.00173 
L 188.120454 23.079986 
L 190.902857 25.831995 
L 193.650098 23.079986 
L 194.194286 22.534854 
L 196.941527 19.782846 
L 197.485714 18.334747 
L 199.331553 16.485705 
L 200.777143 15.828784 
L 203.302409 15.300197 
M 219.578059 6.256209 
L 220.525714 5.591797 
L 223.817143 5.488228 
L 226.440679 3.297141 
L 227.108571 2.787597 
L 227.411557 3.297141 
L 230.4 6.091952 
L 233.189969 3.297141 
L 233.292532 0 
M 88.868571 69.535298 
L 88.124909 69.239959 
L 88.868571 68.753277 
L 89.163399 69.239959 
L 88.868571 69.535298 
" clip-path="url(#p1f73bc8fe8)" style="fill: none"/>
    <path d="M 0 103.905282 
L 2.800548 102.211369 
L 3.291429 101.918027 
L 6.582857 100.214356 
L 9.874286 100.162572 
L 13.165714 99.659713 
L 13.956982 102.211369 
L 16.457143 105.010917 
L 18.960776 102.211369 
L 19.748571 101.422206 
L 22.252205 98.914228 
L 22.162026 95.617087 
L 23.04 95.128183 
L 26.331429 94.449341 
L 29.622857 93.227331 
L 30.52867 92.319946 
L 32.914286 91.266917 
L 35.788055 89.022805 
L 36.205714 88.710735 
L 39.497143 87.791221 
L 42.788571 86.496449 
L 46.08 86.738535 
L 47.071393 85.725664 
L 49.371429 84.130349 
L 50.182385 85.725664 
L 52.662857 88.172725 
L 55.954286 88.172725 
L 58.397107 85.725664 
L 59.245714 84.875584 
L 61.688535 82.428523 
L 62.537143 80.137973 
L 63.611131 79.131382 
L 65.828571 78.247304 
L 69.12 77.059974 
L 70.868903 75.834241 
L 72.411429 74.858 
L 75.529481 72.5371 
L 75.702857 72.42097 
L 76.803215 72.5371 
L 78.994286 72.935351 
L 79.391847 72.5371 
L 82.285714 70.55544 
L 85.577143 70.500811 
L 86.431325 72.5371 
L 88.868571 74.92409 
L 91.251425 72.5371 
L 92.16 71.626949 
L 94.542854 69.239959 
L 94.629361 65.942818 
L 95.451429 65.459157 
L 98.742857 64.599703 
L 100.446373 63.751868 
M 116.693819 55.464249 
L 118.491429 54.110247 
L 119.404122 56.051396 
L 121.782857 58.434259 
L 124.137893 56.051396 
L 122.998782 52.754255 
L 125.074286 51.410073 
L 128.365714 50.768205 
L 129.857351 49.457114 
L 131.657143 48.516326 
L 134.948571 47.607044 
L 136.637282 46.159973 
L 138.24 45.290744 
L 141.531429 43.059381 
L 141.863585 42.862832 
L 144.822857 41.564187 
L 148.114286 39.895774 
L 148.760097 39.565691 
L 151.405714 38.027231 
L 154.697143 37.708336 
L 155.639201 39.565691 
L 157.988571 41.924524 
L 160.343318 39.565691 
L 161.28 38.627383 
L 163.634746 36.26855 
L 164.038727 32.971409 
L 164.571429 32.595633 
L 167.862857 31.568809 
L 170.865928 29.674268 
L 171.154286 29.512871 
L 174.445714 27.921962 
L 176.667887 26.377127 
L 177.737143 25.717088 
L 180.997311 23.079986 
L 181.028571 23.05876 
L 181.582791 23.079986 
L 184.32 23.324964 
L 184.564553 23.079986 
L 187.611429 21.075642 
L 188.557644 23.079986 
L 190.902857 25.399581 
L 193.218433 23.079986 
L 194.194286 22.10244 
L 196.509862 19.782846 
L 197.485714 17.186075 
L 198.184871 16.485705 
L 200.777143 15.307696 
L 204.068571 14.072235 
L 204.950711 13.188564 
L 207.36 11.913644 
L 210.016722 9.891423 
L 210.651429 9.436715 
L 213.942857 7.577497 
L 217.234286 6.813637 
L 217.492602 6.594282 
L 220.525714 4.46773 
L 223.817143 4.610876 
L 225.390166 3.297141 
L 227.108571 1.986148 
L 227.888116 3.297141 
L 230.4 5.646271 
L 232.74506 3.297141 
L 232.242019 0 
M 55.954286 82.6928 
L 55.341262 82.428523 
L 55.954286 82.010851 
L 56.218105 82.428523 
L 55.954286 82.6928 
z
M 88.868571 69.995595 
L 86.965884 69.239959 
L 88.868571 67.994765 
L 89.622898 69.239959 
L 88.868571 69.995595 
z
M 157.988571 36.670992 
L 156.971375 36.26855 
L 157.988571 35.521692 
L 158.390316 36.26855 
L 157.988571 36.670992 
" clip-path="url(#p1f73bc8fe8)" style="fill: none"/>
    <path d="M 0 103.004903 
L 1.311951 102.211369 
L 3.291429 101.028468 
L 6.051873 98.914228 
L 6.582857 98.566049 
L 9.358575 98.914228 
L 9.874286 99.011961 
L 10.369352 98.914228 
L 13.165714 97.81223 
L 13.474992 98.914228 
L 14.401361 102.211369 
L 16.457143 104.513325 
L 18.51578 102.211369 
L 19.748571 100.976437 
L 21.807208 98.914228 
L 20.87432 95.617087 
L 23.04 94.411118 
L 26.331429 93.789725 
L 29.20074 92.319946 
L 29.622857 92.087999 
L 32.914286 90.6721 
L 35.026343 89.022805 
L 36.205714 88.141593 
L 39.439075 85.725664 
L 39.497143 85.673572 
L 42.788571 84.908588 
L 46.08 84.585322 
L 49.371429 83.25437 
L 50.627678 85.725664 
L 52.662857 87.73343 
L 55.954286 87.73343 
L 57.069144 86.616637 
M 71.089169 74.728218 
L 72.411429 73.89138 
L 74.230859 72.5371 
L 75.702857 71.551132 
L 78.706246 69.239959 
L 78.994286 69.038371 
L 80.54922 69.239959 
L 82.285714 69.531381 
L 85.577143 69.448521 
L 85.806859 69.239959 
L 88.868571 67.236254 
L 90.082397 69.239959 
L 88.868571 70.455891 
L 86.872739 72.5371 
L 88.868571 74.491778 
L 90.819862 72.5371 
L 92.16 71.194637 
L 94.111291 69.239959 
L 93.470336 65.942818 
L 95.451429 64.777246 
L 98.742857 63.961738 
L 101.133814 62.645678 
L 102.034286 62.163941 
L 105.325714 60.432029 
L 106.807178 59.348537 
L 108.617143 58.151619 
L 111.155368 56.051396 
L 111.908571 55.477647 
L 115.2 54.817576 
L 118.491429 53.188223 
L 119.837641 56.051396 
L 121.782857 57.999988 
L 123.708693 56.051396 
L 121.963111 52.754255 
L 125.074286 50.73933 
L 128.365714 49.85789 
L 128.821679 49.457114 
L 131.657143 47.974959 
L 134.948571 46.759056 
L 135.647692 46.159973 
L 138.24 44.754043 
L 140.884697 42.862832 
L 141.531429 42.335688 
L 144.822857 40.510228 
L 146.606815 39.565691 
L 148.114286 38.833758 
L 151.405714 36.479947 
L 154.697143 36.857008 
L 156.070998 39.565691 
L 157.988571 41.490988 
L 159.910533 39.565691 
L 161.28 38.193847 
L 163.201961 36.26855 
L 163.01148 32.971409 
L 164.571429 31.870997 
L 167.862857 30.920752 
L 169.838681 29.674268 
L 171.154286 28.937906 
L 174.445714 27.112326 
L 175.503263 26.377127 
L 177.737143 24.99818 
L 180.108547 23.079986 
L 181.028571 22.455277 
L 184.32 19.87157 
L 187.611429 20.149554 
L 188.994834 23.079986 
L 190.902857 24.967167 
L 192.786769 23.079986 
L 194.194286 21.670027 
L 196.078197 19.782846 
L 196.906955 16.485705 
L 197.485714 16.070653 
L 200.777143 14.786608 
L 203.893509 13.188564 
L 204.068571 13.056945 
L 207.36 11.349688 
L 209.275817 9.891423 
L 210.651429 8.905926 
L 213.878153 6.594282 
L 213.942857 6.530354 
L 217.234286 5.497083 
L 220.525714 3.343664 
L 223.817143 3.733524 
L 224.339654 3.297141 
L 227.108571 1.184698 
L 228.364675 3.297141 
L 230.4 5.20059 
L 232.300151 3.297141 
L 231.191506 0 
M 55.954286 83.237257 
L 54.078324 82.428523 
L 55.954286 81.150373 
L 56.761619 82.428523 
L 55.954286 83.237257 
z
M 157.988571 37.203016 
L 155.626649 36.26855 
L 157.988571 34.534351 
L 158.921418 36.26855 
L 157.988571 37.203016 
M 190.902857 20.186176 
L 188.90923 19.782846 
L 190.902857 18.719296 
L 191.305488 19.782846 
L 190.902857 20.186176 
" clip-path="url(#p1f73bc8fe8)" style="fill: none"/>
    <path d="M 0 102.111225 
L 3.291429 100.138909 
L 4.890427 98.914228 
L 6.582857 97.804462 
L 9.318191 95.617087 
L 9.874286 95.182277 
L 13.165714 95.179379 
L 13.433268 95.617087 
L 14.119616 98.914228 
L 14.845741 102.211369 
L 16.457143 104.015732 
L 18.070783 102.211369 
L 19.748571 100.530669 
L 21.362212 98.914228 
L 19.748571 95.727613 
L 19.087686 95.617087 
L 19.748571 95.339706 
L 23.04 93.694053 
L 26.331429 93.130109 
L 27.913034 92.319946 
L 29.622857 91.380424 
L 32.914286 90.077283 
L 34.264631 89.022805 
L 36.205714 87.57245 
L 38.677363 85.725664 
L 39.497143 84.990249 
L 42.788571 83.131845 
L 44.105723 82.428523 
L 46.08 81.633682 
L 49.371429 81.859828 
L 50.429663 82.428523 
L 51.07297 85.725664 
L 52.662857 87.294136 
L 55.954286 87.294136 
L 57.52004 85.725664 
L 59.245714 83.996995 
L 60.811469 82.428523 
L 61.085255 79.131382 
L 62.537143 78.159367 
L 65.828571 77.240254 
L 68.348485 75.834241 
L 69.12 75.205773 
L 72.411429 72.92476 
L 72.932236 72.5371 
L 75.702857 70.681295 
L 77.575884 69.239959 
L 78.994286 68.247274 
L 81.909651 65.942818 
L 82.285714 65.642256 
L 84.588799 65.942818 
L 85.577143 66.494885 
L 88.868571 66.477742 
L 90.541896 69.239959 
L 92.16 70.762325 
L 93.679728 69.239959 
L 92.311312 65.942818 
L 95.451429 64.095336 
L 98.742857 63.323773 
L 99.974789 62.645678 
L 102.034286 61.543882 
L 105.325714 59.71917 
L 105.832483 59.348537 
L 108.617143 57.507059 
L 110.376386 56.051396 
L 111.908571 54.884262 
L 114.943371 52.754255 
L 115.2 52.500605 
L 118.491429 51.865733 
L 121.782857 50.457264 
L 125.074286 50.068586 
L 127.113589 49.457114 
L 128.365714 48.674611 
L 131.657143 47.433592 
L 134.583466 46.159973 
L 134.948571 45.886064 
L 138.24 44.217342 
L 140.134167 42.862832 
L 141.531429 41.72394 
L 144.728768 39.565691 
L 144.822857 39.472684 
L 148.114286 37.867236 
L 150.276891 36.26855 
L 151.405714 35.602711 
L 154.697143 33.273728 
L 157.988571 33.547011 
L 159.452521 36.26855 
L 161.28 37.760311 
L 162.769176 36.26855 
L 161.984232 32.971409 
L 164.571429 31.146361 
L 167.862857 30.272694 
L 168.811433 29.674268 
L 169.542035 29.26534 
M 185.486159 18.812126 
L 187.611429 18.346993 
L 190.902857 16.970845 
L 191.967405 19.782846 
L 190.902857 20.849241 
L 189.432023 23.079986 
L 190.902857 24.534754 
L 192.355104 23.079986 
L 194.194286 21.237613 
L 195.646532 19.782846 
L 195.424015 16.485705 
L 197.485714 15.007177 
L 200.777143 14.26552 
L 202.877329 13.188564 
L 204.068571 12.292943 
L 207.36 10.785732 
L 208.534911 9.891423 
L 210.651429 8.375137 
L 213.137248 6.594282 
L 213.942857 5.798339 
L 217.234286 4.189152 
L 218.60253 3.297141 
L 220.525714 2.370241 
L 223.717541 0 
M 224.271051 0 
L 227.108571 0.383248 
L 229.280283 0 
M 55.954286 83.781715 
L 52.815386 82.428523 
L 55.954286 80.289895 
L 57.305133 82.428523 
L 55.954286 83.781715 
z
M 88.868571 74.059466 
L 90.388299 72.5371 
L 88.868571 70.916188 
L 87.314153 72.5371 
L 88.868571 74.059466 
z
M 121.782857 57.565716 
L 123.279493 56.051396 
L 121.782857 53.38567 
L 120.27116 56.051396 
L 121.782857 57.565716 
z
M 157.988571 41.057452 
L 159.477748 39.565691 
L 157.988571 37.73504 
L 156.502795 39.565691 
L 157.988571 41.057452 
z
M 230.4 4.754909 
L 231.855242 3.297141 
L 230.4 0.231112 
L 228.841234 3.297141 
L 230.4 4.754909 
z
" clip-path="url(#p1f73bc8fe8)" style="fill: none"/>
    <path d="M 0 101.267319 
L 3.291429 99.249351 
L 3.72898 98.914228 
L 6.582857 97.042874 
L 8.365818 95.617087 
L 9.874286 94.437616 
L 12.507664 92.319946 
L 13.165714 91.680705 
L 16.457143 91.477921 
L 17.504543 92.319946 
L 19.748571 93.134296 
L 23.04 92.976988 
L 26.331429 92.470493 
L 26.625327 92.319946 
L 29.622857 90.672849 
L 32.914286 89.482465 
L 33.502919 89.022805 
L 36.205714 87.003308 
L 37.915651 85.725664 
L 39.497143 84.306927 
L 42.195528 82.428523 
L 42.788571 81.850632 
L 46.08 80.294072 
L 47.872905 79.131382 
L 49.371429 78.351127 
L 52.662857 77.239772 
L 53.837552 79.131382 
L 55.954286 79.429417 
L 57.848647 82.428523 
L 59.245714 83.557701 
L 60.372935 82.428523 
L 59.822317 79.131382 
L 62.537143 77.313851 
L 65.828571 76.736729 
L 67.446047 75.834241 
L 69.12 74.470656 
L 71.800937 72.5371 
L 72.411429 71.93993 
L 75.702857 69.811457 
L 76.445523 69.239959 
L 78.994286 67.456177 
L 80.908834 65.942818 
L 82.285714 64.842369 
L 85.073025 62.645678 
L 85.577143 62.154146 
L 88.630583 62.645678 
L 88.868571 63.028427 
L 92.16 63.96381 
L 95.451429 63.413426 
L 98.742857 62.685808 
L 98.815764 62.645678 
L 102.034286 60.923824 
L 104.8026 59.348537 
L 105.325714 58.83303 
L 108.617143 56.8625 
L 109.597403 56.051396 
L 111.908571 54.290876 
L 114.097925 52.754255 
L 115.2 51.664975 
L 118.491429 50.187157 
L 119.822707 49.457114 
L 121.782857 48.706735 
L 125.074286 48.595242 
L 128.365714 47.276634 
L 131.657143 46.892225 
L 133.339597 46.159973 
L 134.948571 44.952891 
L 138.24 43.680642 
L 139.383637 42.862832 
L 141.531429 41.112191 
L 143.822492 39.565691 
L 144.822857 38.576827 
L 145.750152 38.104615 
M 161.458793 31.591506 
L 164.571429 30.421724 
L 167.635369 29.674268 
L 167.862857 29.548002 
L 171.154286 27.787976 
L 173.432091 26.377127 
L 174.445714 25.373555 
L 177.737143 23.560364 
L 178.331019 23.079986 
L 181.028571 21.248312 
L 182.842835 19.782846 
L 184.32 18.335124 
L 187.351011 16.485705 
L 187.611429 16.228898 
L 190.902857 15.434232 
L 194.194286 14.788516 
L 197.485714 13.943701 
L 200.777143 13.744432 
L 201.861149 13.188564 
L 204.068571 11.52894 
L 207.36 10.221776 
L 207.794006 9.891423 
L 210.651429 7.844348 
L 212.396342 6.594282 
L 213.942857 5.066323 
L 216.851572 3.297141 
L 217.234286 2.91877 
L 220.525714 1.403322 
L 222.415463 0 
M 16.457143 103.51814 
L 17.625787 102.211369 
L 19.748571 100.0849 
L 20.917216 98.914228 
L 19.748571 96.606391 
L 16.457143 96.143882 
L 14.764239 98.914228 
L 15.29012 102.211369 
L 16.457143 103.51814 
z
M 52.662857 86.854842 
L 55.954286 86.854842 
L 57.081507 85.725664 
L 55.954286 84.326172 
L 52.662857 83.268876 
L 51.518262 85.725664 
L 52.662857 86.854842 
z
M 88.868571 73.627154 
L 89.956737 72.5371 
L 88.868571 71.376485 
L 87.755567 72.5371 
L 88.868571 73.627154 
z
M 92.16 70.330013 
L 93.248165 69.239959 
L 92.16 66.788227 
L 91.001395 69.239959 
L 92.16 70.330013 
z
M 121.782857 57.131445 
L 122.850293 56.051396 
L 121.782857 54.150138 
L 120.704679 56.051396 
L 121.782857 57.131445 
z
M 157.988571 40.623916 
L 159.044963 39.565691 
L 157.988571 38.267065 
L 156.934592 39.565691 
L 157.988571 40.623916 
z
M 161.28 37.326775 
L 162.336391 36.26855 
L 161.28 33.347686 
L 159.983624 36.26855 
L 161.28 37.326775 
z
M 190.902857 24.10234 
L 191.923439 23.079986 
L 190.902857 21.512306 
L 189.869213 23.079986 
L 190.902857 24.10234 
z
M 194.194286 20.805199 
L 195.214868 19.782846 
L 194.194286 16.707785 
L 192.629321 19.782846 
L 194.194286 20.805199 
z
M 230.4 4.309228 
L 231.410333 3.297141 
L 230.4 1.168484 
L 229.317793 3.297141 
L 230.4 4.309228 
z
" clip-path="url(#p1f73bc8fe8)" style="fill: none"/>
    <path d="M 0 100.423412 
L 2.087005 99.132968 
M 17.517954 88.343647 
L 19.748571 88.261174 
L 21.572533 89.022805 
L 23.04 91.470426 
L 26.331429 90.685315 
L 29.622857 89.965275 
L 32.434621 89.022805 
L 32.914286 88.638035 
L 36.205714 86.434166 
L 37.153938 85.725664 
L 39.497143 83.623604 
L 41.213914 82.428523 
L 42.788571 80.894097 
L 45.859889 79.131382 
L 46.08 78.92007 
L 49.371429 77.275541 
L 51.378791 75.834241 
L 52.662857 74.800681 
L 55.954286 72.645465 
L 57.958609 75.834241 
L 59.245714 76.750503 
L 62.537143 76.468335 
L 65.828571 76.233204 
L 66.543609 75.834241 
L 69.12 73.735539 
L 70.781674 72.5371 
L 72.411429 70.942908 
L 75.152444 69.239959 
L 75.702857 68.708733 
L 78.994286 66.665079 
L 79.908017 65.942818 
L 82.285714 64.042482 
L 84.058075 62.645678 
L 85.577143 61.164535 
L 88.039736 59.348537 
L 88.868571 58.547276 
L 92.16 58.548161 
L 92.670999 59.348537 
L 94.693673 62.645678 
L 95.451429 62.731516 
L 95.841205 62.645678 
L 98.742857 61.05044 
L 102.034286 60.303766 
L 103.712948 59.348537 
L 105.325714 57.759223 
L 108.617143 56.217941 
L 108.818421 56.051396 
L 111.908571 53.697491 
L 113.252479 52.754255 
L 115.2 50.829344 
L 117.648777 49.457114 
L 118.491429 48.632634 
L 121.782857 47.534936 
L 123.7905 46.159973 
L 125.074286 45.14506 
L 128.365714 44.21406 
L 129.561637 46.159973 
L 131.657143 46.350858 
L 132.095728 46.159973 
L 134.948571 44.019718 
L 138.24 43.143941 
L 138.633107 42.862832 
L 141.531429 40.500442 
L 142.916216 39.565691 
L 144.822857 37.68097 
L 147.522034 36.26855 
L 148.114286 35.689602 
L 151.405714 34.060303 
L 152.780342 32.971409 
L 154.697143 31.161336 
L 156.674968 29.674268 
L 157.988571 28.38232 
L 161.28 28.052864 
L 164.385052 29.674268 
L 164.571429 29.697088 
L 164.66497 29.674268 
L 167.862857 27.899294 
L 171.154286 27.213011 
L 172.503814 26.377127 
L 174.445714 24.454482 
L 177.139501 23.079986 
L 177.737143 22.494673 
L 181.028571 20.644829 
L 182.095716 19.782846 
L 184.32 17.602897 
L 186.150965 16.485705 
L 187.611429 15.045491 
L 190.902857 13.97897 
L 192.196255 13.188564 
L 194.194286 12.031923 
L 197.485714 10.329837 
L 200.161212 13.188564 
L 200.777143 13.223344 
L 200.844969 13.188564 
L 204.068571 10.764938 
L 206.48467 9.891423 
L 207.36 9.151541 
L 210.651429 7.31356 
L 211.655437 6.594282 
L 213.942857 4.334308 
L 215.648065 3.297141 
L 217.234286 1.728918 
L 220.525714 0.436403 
L 221.113386 0 
M 16.457143 103.020548 
L 17.180791 102.211369 
L 19.748571 99.639131 
L 20.472219 98.914228 
L 19.748571 97.485169 
L 16.457143 97.198774 
L 15.408863 98.914228 
L 15.734499 102.211369 
L 16.457143 103.020548 
z
M 52.662857 86.415547 
L 55.954286 86.415547 
L 56.642974 85.725664 
L 55.954286 84.870629 
L 52.662857 84.224663 
L 51.963555 85.725664 
L 52.662857 86.415547 
z
M 59.245714 83.118406 
L 59.934402 82.428523 
L 59.245714 79.979023 
L 58.392161 82.428523 
L 59.245714 83.118406 
z
M 88.868571 73.194842 
L 89.525174 72.5371 
L 88.868571 71.836781 
L 88.196981 72.5371 
L 88.868571 73.194842 
z
M 92.16 69.897701 
L 92.816602 69.239959 
L 92.16 67.760576 
L 91.460894 69.239959 
L 92.16 69.897701 
z
M 121.782857 56.697173 
L 122.421093 56.051396 
L 121.782857 54.914605 
L 121.138199 56.051396 
L 121.782857 56.697173 
z
M 157.988571 40.19038 
L 158.612178 39.565691 
L 157.988571 38.799089 
L 157.366389 39.565691 
L 157.988571 40.19038 
z
M 161.28 36.893239 
L 161.903606 36.26855 
L 161.28 34.544313 
L 160.514726 36.26855 
L 161.28 36.893239 
z
M 190.902857 23.669926 
L 191.491774 23.079986 
L 190.902857 22.175371 
L 190.306402 23.079986 
L 190.902857 23.669926 
z
M 194.194286 20.372785 
L 194.783203 19.782846 
L 194.194286 18.008411 
L 193.291238 19.782846 
L 194.194286 20.372785 
z
M 230.4 3.863547 
L 230.965425 3.297141 
L 230.4 2.105856 
L 229.794352 3.297141 
L 230.4 3.863547 
z
" clip-path="url(#p1f73bc8fe8)" style="fill: none"/>
    <path d="M 0 99.579505 
L 1.075938 98.914228 
L 3.291429 96.772697 
L 6.163568 95.617087 
L 6.582857 95.230787 
L 9.874286 92.948295 
L 10.655654 92.319946 
L 13.165714 89.881634 
L 14.447194 89.022805 
L 16.457143 87.096515 
L 19.742145 85.725664 
L 19.748571 85.719833 
L 23.04 84.722073 
L 25.641445 85.725664 
L 26.331429 86.862099 
L 27.625463 89.022805 
L 29.622857 89.2577 
L 30.323642 89.022805 
L 32.914286 86.944683 
L 36.205714 85.865024 
L 36.392226 85.725664 
L 39.497143 82.940282 
L 40.2323 82.428523 
L 42.788571 79.937563 
L 44.193244 79.131382 
L 46.08 77.320049 
L 49.371429 76.199956 
L 49.880775 75.834241 
L 52.662857 73.594911 
L 54.210121 72.5371 
L 55.954286 70.873597 
L 58.881904 69.239959 
L 59.245714 68.904374 
L 59.996022 69.239959 
L 62.072637 72.5371 
L 62.537143 73.301322 
L 65.828571 74.999659 
L 69.12 73.000422 
L 69.762411 72.5371 
L 72.411429 69.945885 
L 73.547666 69.239959 
L 75.087838 67.753475 
M 90.20554 56.373904 
L 90.697731 56.051396 
L 92.16 54.660873 
L 95.451429 54.923955 
L 96.703524 56.051396 
L 98.742857 59.346116 
L 98.744348 59.348537 
L 102.034286 59.683708 
L 102.623296 59.348537 
L 105.325714 56.685416 
L 106.78466 56.051396 
L 108.617143 54.282006 
L 111.908571 53.104106 
L 112.407033 52.754255 
L 115.2 49.993713 
L 116.157574 49.457114 
L 118.491429 47.17359 
L 121.782857 46.363137 
L 122.079506 46.159973 
L 125.074286 43.792412 
L 126.53598 42.862832 
L 128.365714 41.090136 
L 131.657143 39.85147 
L 133.523123 42.862832 
L 134.948571 43.086545 
L 136.050679 42.862832 
L 138.24 41.37098 
L 141.531429 39.888693 
L 142.00994 39.565691 
L 144.822857 36.785113 
L 145.810024 36.26855 
L 148.114286 34.016048 
L 151.405714 33.289099 
L 151.806769 32.971409 
L 154.697143 30.241971 
L 155.452197 29.674268 
L 157.988571 27.179706 
L 159.94085 26.377127 
L 161.28 25.092586 
L 164.571429 24.763166 
L 167.862857 25.635443 
L 168.339007 26.377127 
L 171.154286 26.638046 
L 171.575537 26.377127 
L 174.445714 23.535409 
L 175.338268 23.079986 
L 177.737143 20.730594 
L 181.028571 20.041346 
L 181.348598 19.782846 
L 184.32 16.87067 
L 184.95092 16.485705 
L 187.611429 13.862084 
L 189.437231 13.188564 
L 190.902857 11.779245 
L 194.194286 10.653383 
L 195.400487 9.891423 
L 197.485714 7.860988 
L 200.422277 6.594282 
L 200.777143 6.260477 
L 201.211686 6.594282 
L 203.214584 9.891423 
L 204.068571 10.000935 
L 204.371477 9.891423 
L 207.36 7.365344 
L 210.651429 6.782771 
L 210.914532 6.594282 
L 213.942857 3.602293 
L 214.444558 3.297141 
L 217.234286 0.539067 
L 218.72292 0 
M 16.457143 102.522955 
L 16.735794 102.211369 
L 19.748571 99.193363 
L 20.027223 98.914228 
L 19.748571 98.363947 
L 16.457143 98.253667 
L 16.053487 98.914228 
L 16.178878 102.211369 
L 16.457143 102.522955 
z
M 52.662857 85.976253 
L 55.954286 85.976253 
L 56.20444 85.725664 
L 55.954286 85.415087 
L 52.662857 85.18045 
L 52.408847 85.725664 
L 52.662857 85.976253 
z
M 59.245714 82.679112 
L 59.495869 82.428523 
L 59.245714 81.538782 
L 58.935675 82.428523 
L 59.245714 82.679112 
z
M 88.868571 72.76253 
L 89.093611 72.5371 
L 88.868571 72.297078 
L 88.638395 72.5371 
L 88.868571 72.76253 
z
M 92.16 69.465389 
L 92.38504 69.239959 
L 92.16 68.732925 
L 91.920393 69.239959 
L 92.16 69.465389 
z
M 121.782857 56.262902 
L 121.991893 56.051396 
L 121.782857 55.679073 
L 121.571718 56.051396 
L 121.782857 56.262902 
z
M 157.988571 39.756844 
L 158.179393 39.565691 
L 157.988571 39.331114 
L 157.798186 39.565691 
L 157.988571 39.756844 
z
M 161.28 36.459703 
L 161.470821 36.26855 
L 161.28 35.74094 
L 161.045829 36.26855 
L 161.28 36.459703 
z
M 190.902857 23.237512 
L 191.06011 23.079986 
L 190.902857 22.838436 
L 190.743592 23.079986 
L 190.902857 23.237512 
z
M 194.194286 19.940371 
L 194.351538 19.782846 
L 194.194286 19.309037 
L 193.953154 19.782846 
L 194.194286 19.940371 
z
M 230.4 3.417866 
L 230.520516 3.297141 
L 230.4 3.043228 
L 230.270911 3.297141 
L 230.4 3.417866 
z
" clip-path="url(#p1f73bc8fe8)" style="fill: none"/>
    <path d="M 0 92.079238 
L 3.291429 90.875956 
L 6.582857 90.486376 
L 9.874286 89.836536 
L 11.621133 89.022805 
L 13.165714 88.187833 
L 16.457143 85.810161 
L 16.659624 85.725664 
L 19.748571 82.922592 
L 22.627232 82.428523 
L 23.04 82.161644 
L 26.331429 79.573253 
L 28.710688 79.131382 
L 29.622857 78.601068 
L 32.914286 76.778657 
L 35.046473 75.834241 
L 36.205714 75.307629 
L 39.497143 74.432432 
L 42.788571 73.918913 
L 46.08 73.09926 
L 49.371429 72.569963 
L 49.540494 72.5371 
L 52.662857 70.586137 
L 55.11839 69.239959 
L 55.954286 68.727691 
L 59.245714 66.123737 
L 59.920202 65.942818 
L 62.537143 63.91128 
L 65.527641 62.645678 
L 65.828571 62.427838 
L 69.12 60.816158 
L 72.411429 59.400938 
L 72.616062 59.348537 
L 75.702857 58.519853 
L 78.994286 57.380379 
L 82.285714 56.772621 
L 85.577143 56.393445 
L 86.237071 56.051396 
L 88.868571 54.52845 
L 92.16 52.778131 
L 92.227469 52.754255 
L 95.451429 49.930107 
L 97.374268 49.457114 
L 98.742857 48.543714 
L 102.034286 46.433997 
L 102.560555 46.159973 
L 105.325714 44.840483 
L 108.617143 43.041022 
L 109.048385 42.862832 
L 111.908571 41.516653 
L 115.2 40.810835 
L 118.491429 39.96545 
L 119.587056 39.565691 
L 121.782857 38.504904 
L 125.074286 37.042366 
L 126.260322 36.26855 
L 128.365714 34.828693 
L 131.44658 32.971409 
L 131.657143 32.820229 
L 134.948571 30.840748 
L 136.578762 29.674268 
L 138.24 28.591277 
L 141.191927 26.377127 
L 141.531429 26.124851 
L 144.822857 24.95071 
L 148.114286 23.727266 
L 149.873888 23.079986 
L 151.405714 22.471008 
L 154.697143 21.795071 
L 157.988571 20.451305 
L 159.262075 19.782846 
L 161.28 18.476476 
L 161.908088 18.176125 
M 178.081205 8.138248 
L 180.198416 6.594282 
L 181.028571 6.043579 
L 184.32 3.978824 
L 187.611429 3.391125 
L 187.985591 3.297141 
L 190.902857 2.56053 
L 194.194286 1.471597 
L 197.485714 0.407813 
L 198.111449 0 
M 4.608083 0 
L 3.291429 0.785805 
L 0.217479 3.297141 
L 0 3.442725 
" clip-path="url(#p1f73bc8fe8)" style="fill: none"/>
    <path d="M 0 59.229849 
L 3.291429 58.199924 
L 6.582857 57.543146 
L 9.874286 57.034218 
L 12.786782 56.051396 
L 13.165714 55.937295 
L 16.457143 53.974289 
L 18.76723 52.754255 
L 19.748571 52.131359 
L 23.04 50.383162 
L 24.509309 49.457114 
L 26.331429 48.224786 
L 29.622857 46.516667 
L 31.116914 46.159973 
L 32.914286 45.782203 
L 36.205714 44.733328 
L 39.497143 43.870781 
L 41.125946 42.862832 
L 42.788571 42.054402 
L 46.08 40.416941 
L 47.877349 39.565691 
L 49.371429 38.989817 
L 52.662857 37.213081 
L 54.45139 36.26855 
L 55.954286 35.497926 
L 59.245714 34.085256 
L 62.537143 33.379607 
L 64.616612 32.971409 
L 65.828571 32.734849 
L 69.12 32.402761 
L 72.411429 31.167392 
L 74.88412 29.674268 
L 75.702857 29.244145 
L 78.994286 28.217164 
L 82.285714 26.76724 
L 82.898907 26.377127 
L 85.577143 24.989665 
L 88.868571 23.169881 
L 89.111798 23.079986 
L 92.16 21.866475 
L 95.451429 20.717915 
L 97.328262 20.031744 
M 114.955939 12.886978 
L 115.2 12.769582 
L 118.491429 11.44858 
L 121.639885 9.891423 
L 121.782857 9.827549 
L 125.074286 8.209473 
L 128.365714 6.744963 
L 128.756728 6.594282 
L 131.657143 5.514851 
L 134.948571 4.258573 
L 137.92671 3.297141 
L 138.24 3.192712 
L 141.531429 1.793784 
L 144.822857 0.507907 
L 146.322965 0 
M 36.165908 0 
L 34.015112 1.523167 
M 17.837542 11.483707 
L 16.457143 12.130216 
L 13.165714 12.582655 
L 9.874286 12.840451 
L 8.420305 13.188564 
L 6.582857 13.801803 
L 4.507873 13.188564 
L 3.291429 13.062284 
L 3.096049 13.188564 
L 0 15.723563 
" clip-path="url(#p1f73bc8fe8)" style="fill: none"/>
    <path clip-path="url(#p1f73bc8fe8)" style="fill: none"/>
    <path clip-path="url(#p1f73bc8fe8)" style="fill: none"/>
    <path clip-path="url(#p1f73bc8fe8)" style="fill: none"/>
    <path clip-path="url(#p1f73bc8fe8)" style="fill: none"/>
    <path clip-path="url(#p1f73bc8fe8)" style="fill: none"/>
    <path clip-path="url(#p1f73bc8fe8)" style="fill: none"/>
    <path clip-path="url(#p1f73bc8fe8)" style="fill: none"/>
    <path clip-path="url(#p1f73bc8fe8)" style="fill: none"/>
    <path clip-path="url(#p1f73bc8fe8)" style="fill: none"/>
    <path clip-path="url(#p1f73bc8fe8)" style="fill: none"/>
    <path clip-path="url(#p1f73bc8fe8)" style="fill: none"/>
    <path clip-path="url(#p1f73bc8fe8)" style="fill: none"/>
    <path clip-path="url(#p1f73bc8fe8)" style="fill: none"/>
    <path clip-path="url(#p1f73bc8fe8)" style="fill: none"/>
    <path clip-path="url(#p1f73bc8fe8)" style="fill: none"/>
    <path clip-path="url(#p1f73bc8fe8)" style="fill: none"/>
    <path clip-path="url(#p1f73bc8fe8)" style="fill: none"/>
    <path clip-path="url(#p1f73bc8fe8)" style="fill: none"/>
    <path clip-path="url(#p1f73bc8fe8)" style="fill: none"/>
    <path clip-path="url(#p1f73bc8fe8)" style="fill: none"/>
    <path clip-path="url(#p1f73bc8fe8)" style="fill: none"/>
    <path clip-path="url(#p1f73bc8fe8)" style="fill: none"/>
    <path clip-path="url(#p1f73bc8fe8)" style="fill: none"/>
    <path clip-path="url(#p1f73bc8fe8)" style="fill: none"/>
    <path clip-path="url(#p1f73bc8fe8)" style="fill: none"/>
    <path clip-path="url(#p1f73bc8fe8)" style="fill: none"/>
    <path clip-path="url(#p1f73bc8fe8)" style="fill: none"/>
    <path clip-path="url(#p1f73bc8fe8)" style="fill: none"/>
    <path clip-path="url(#p1f73bc8fe8)" style="fill: none"/>
    <path clip-path="url(#p1f73bc8fe8)" style="fill: none"/>
   </g>
   <g id="text_1">
    <g clip-path="url(#p1f73bc8fe8)">
     <!-- 0 -->
     <g style="opacity: 0" transform="translate(209.047121 14.545244) rotate(-26.122074) scale(0.12 -0.12)">
      <defs>
       <path id="DejaVuSans-30" d="M 2034 4250 
Q 1547 4250 1301 3770 
Q 1056 3291 1056 2328 
Q 1056 1369 1301 889 
Q 1547 409 2034 409 
Q 2525 409 2770 889 
Q 3016 1369 3016 2328 
Q 3016 3291 2770 3770 
Q 2525 4250 2034 4250 
z
M 2034 4750 
Q 2819 4750 3233 4129 
Q 3647 3509 3647 2328 
Q 3647 1150 3233 529 
Q 2819 -91 2034 -91 
Q 1250 -91 836 529 
Q 422 1150 422 2328 
Q 422 3509 836 4129 
Q 1250 4750 2034 4750 
z
" transform="scale(0.015625)"/>
      </defs>
      <use xlink:href="#DejaVuSans-30"/>
     </g>
    </g>
   </g>
   <g id="text_2">
    <g clip-path="url(#p1f73bc8fe8)">
     <!-- 1 -->
     <g style="opacity: 0" transform="translate(107.234947 63.656962) rotate(-33.18861) scale(0.12 -0.12)">
      <defs>
       <path id="DejaVuSans-31" d="M 794 531 
L 1825 531 
L 1825 4091 
L 703 3866 
L 703 4441 
L 1819 4666 
L 2450 4666 
L 2450 531 
L 3481 531 
L 3481 0 
L 794 0 
L 794 531 
z
" transform="scale(0.015625)"/>
      </defs>
      <use xlink:href="#DejaVuSans-31"/>
     </g>
    </g>
   </g>
   <g id="text_3">
    <g clip-path="url(#p1f73bc8fe8)">
     <!-- 2 -->
     <g style="opacity: 0" transform="translate(61.978245 84.027365) rotate(-42.712353) scale(0.12 -0.12)">
      <defs>
       <path id="DejaVuSans-32" d="M 1228 531 
L 3431 531 
L 3431 0 
L 469 0 
L 469 531 
Q 828 903 1448 1529 
Q 2069 2156 2228 2338 
Q 2531 2678 2651 2914 
Q 2772 3150 2772 3378 
Q 2772 3750 2511 3984 
Q 2250 4219 1831 4219 
Q 1534 4219 1204 4116 
Q 875 4013 500 3803 
L 500 4441 
Q 881 4594 1212 4672 
Q 1544 4750 1819 4750 
Q 2544 4750 2975 4387 
Q 3406 4025 3406 3419 
Q 3406 3131 3298 2873 
Q 3191 2616 2906 2266 
Q 2828 2175 2409 1742 
Q 1991 1309 1228 531 
z
" transform="scale(0.015625)"/>
      </defs>
      <use xlink:href="#DejaVuSans-32"/>
     </g>
    </g>
   </g>
   <g id="text_4">
    <g clip-path="url(#p1f73bc8fe8)">
     <!-- 3 -->
     <g style="opacity: 0" transform="translate(176.438234 29.162971) rotate(-34.168007) scale(0.12 -0.12)">
      <defs>
       <path id="DejaVuSans-33" d="M 2597 2516 
Q 3050 2419 3304 2112 
Q 3559 1806 3559 1356 
Q 3559 666 3084 287 
Q 2609 -91 1734 -91 
Q 1441 -91 1130 -33 
Q 819 25 488 141 
L 488 750 
Q 750 597 1062 519 
Q 1375 441 1716 441 
Q 2309 441 2620 675 
Q 2931 909 2931 1356 
Q 2931 1769 2642 2001 
Q 2353 2234 1838 2234 
L 1294 2234 
L 1294 2753 
L 1863 2753 
Q 2328 2753 2575 2939 
Q 2822 3125 2822 3475 
Q 2822 3834 2567 4026 
Q 2313 4219 1838 4219 
Q 1578 4219 1281 4162 
Q 984 4106 628 3988 
L 628 4550 
Q 988 4650 1302 4700 
Q 1616 4750 1894 4750 
Q 2613 4750 3031 4423 
Q 3450 4097 3450 3541 
Q 3450 3153 3228 2886 
Q 3006 2619 2597 2516 
z
" transform="scale(0.015625)"/>
      </defs>
      <use xlink:href="#DejaVuSans-33"/>
     </g>
    </g>
   </g>
   <g id="text_5">
    <g clip-path="url(#p1f73bc8fe8)">
     <!-- 4 -->
     <g style="opacity: 0" transform="translate(152.682079 37.909916) rotate(-36.816687) scale(0.12 -0.12)">
      <defs>
       <path id="DejaVuSans-34" d="M 2419 4116 
L 825 1625 
L 2419 1625 
L 2419 4116 
z
M 2253 4666 
L 3047 4666 
L 3047 1625 
L 3713 1625 
L 3713 1100 
L 3047 1100 
L 3047 0 
L 2419 0 
L 2419 1100 
L 313 1100 
L 313 1709 
L 2253 4666 
z
" transform="scale(0.015625)"/>
      </defs>
      <use xlink:href="#DejaVuSans-34"/>
     </g>
    </g>
   </g>
   <g id="text_6">
    <g clip-path="url(#p1f73bc8fe8)">
     <!-- 5 -->
     <g style="opacity: 0" transform="translate(8.956983 98.662486) rotate(-38.603806) scale(0.12 -0.12)">
      <defs>
       <path id="DejaVuSans-35" d="M 691 4666 
L 3169 4666 
L 3169 4134 
L 1269 4134 
L 1269 2991 
Q 1406 3038 1543 3061 
Q 1681 3084 1819 3084 
Q 2600 3084 3056 2656 
Q 3513 2228 3513 1497 
Q 3513 744 3044 326 
Q 2575 -91 1722 -91 
Q 1428 -91 1123 -41 
Q 819 9 494 109 
L 494 744 
Q 775 591 1075 516 
Q 1375 441 1709 441 
Q 2250 441 2565 725 
Q 2881 1009 2881 1497 
Q 2881 1984 2565 2268 
Q 2250 2553 1709 2553 
Q 1456 2553 1204 2497 
Q 953 2441 691 2322 
L 691 4666 
z
" transform="scale(0.015625)"/>
      </defs>
      <use xlink:href="#DejaVuSans-35"/>
     </g>
    </g>
   </g>
   <g id="text_7">
    <g clip-path="url(#p1f73bc8fe8)">
     <!-- 6 -->
     <g style="opacity: 0" transform="translate(82.17073 67.623288) rotate(-39.121148) scale(0.12 -0.12)">
      <defs>
       <path id="DejaVuSans-36" d="M 2113 2584 
Q 1688 2584 1439 2293 
Q 1191 2003 1191 1497 
Q 1191 994 1439 701 
Q 1688 409 2113 409 
Q 2538 409 2786 701 
Q 3034 994 3034 1497 
Q 3034 2003 2786 2293 
Q 2538 2584 2113 2584 
z
M 3366 4563 
L 3366 3988 
Q 3128 4100 2886 4159 
Q 2644 4219 2406 4219 
Q 1781 4219 1451 3797 
Q 1122 3375 1075 2522 
Q 1259 2794 1537 2939 
Q 1816 3084 2150 3084 
Q 2853 3084 3261 2657 
Q 3669 2231 3669 1497 
Q 3669 778 3244 343 
Q 2819 -91 2113 -91 
Q 1303 -91 875 529 
Q 447 1150 447 2328 
Q 447 3434 972 4092 
Q 1497 4750 2381 4750 
Q 2619 4750 2861 4703 
Q 3103 4656 3366 4563 
z
" transform="scale(0.015625)"/>
      </defs>
      <use xlink:href="#DejaVuSans-36"/>
     </g>
    </g>
   </g>
   <g id="text_8">
    <g clip-path="url(#p1f73bc8fe8)">
     <!-- 7 -->
     <g style="opacity: 0" transform="translate(168.687567 18.065556) rotate(-33.874964) scale(0.12 -0.12)">
      <defs>
       <path id="DejaVuSans-37" d="M 525 4666 
L 3525 4666 
L 3525 4397 
L 1831 0 
L 1172 0 
L 2766 4134 
L 525 4134 
L 525 4666 
z
" transform="scale(0.015625)"/>
      </defs>
      <use xlink:href="#DejaVuSans-37"/>
     </g>
    </g>
   </g>
   <g id="text_9">
    <g clip-path="url(#p1f73bc8fe8)">
     <!-- 8 -->
     <g style="opacity: 0" transform="translate(103.786424 20.945733) rotate(-21.015453) scale(0.12 -0.12)">
      <defs>
       <path id="DejaVuSans-38" d="M 2034 2216 
Q 1584 2216 1326 1975 
Q 1069 1734 1069 1313 
Q 1069 891 1326 650 
Q 1584 409 2034 409 
Q 2484 409 2743 651 
Q 3003 894 3003 1313 
Q 3003 1734 2745 1975 
Q 2488 2216 2034 2216 
z
M 1403 2484 
Q 997 2584 770 2862 
Q 544 3141 544 3541 
Q 544 4100 942 4425 
Q 1341 4750 2034 4750 
Q 2731 4750 3128 4425 
Q 3525 4100 3525 3541 
Q 3525 3141 3298 2862 
Q 3072 2584 2669 2484 
Q 3125 2378 3379 2068 
Q 3634 1759 3634 1313 
Q 3634 634 3220 271 
Q 2806 -91 2034 -91 
Q 1263 -91 848 271 
Q 434 634 434 1313 
Q 434 1759 690 2068 
Q 947 2378 1403 2484 
z
M 1172 3481 
Q 1172 3119 1398 2916 
Q 1625 2713 2034 2713 
Q 2441 2713 2670 2916 
Q 2900 3119 2900 3481 
Q 2900 3844 2670 4047 
Q 2441 4250 2034 4250 
Q 1625 4250 1398 4047 
Q 1172 3844 1172 3481 
z
" transform="scale(0.015625)"/>
      </defs>
      <use xlink:href="#DejaVuSans-38"/>
     </g>
    </g>
   </g>
   <g id="text_10">
    <g clip-path="url(#p1f73bc8fe8)">
     <!-- 8 -->
     <g style="opacity: 0" transform="translate(24.778891 11.972734) rotate(-31.170204) scale(0.12 -0.12)">
      <use xlink:href="#DejaVuSans-38"/>
     </g>
    </g>
   </g>
  </g>
 </g>
 <defs>
  <clipPath id="p1f73bc8fe8">
   <rect x="0" y="0" width="576" height="820.98809"/>
  </clipPath>
 </defs>
</svg>
