<?xml version="1.0" encoding="utf-8" standalone="no"?>
<!DOCTYPE svg PUBLIC "-//W3C//DTD SVG 1.1//EN"
  "http://www.w3.org/Graphics/SVG/1.1/DTD/svg11.dtd">
<svg xmlns:xlink="http://www.w3.org/1999/xlink" width="576pt" height="818.958117pt" viewBox="0 0 576 818.958117" xmlns="http://www.w3.org/2000/svg" version="1.1">
 <metadata>
  <rdf:RDF xmlns:dc="http://purl.org/dc/elements/1.1/" xmlns:cc="http://creativecommons.org/ns#" xmlns:rdf="http://www.w3.org/1999/02/22-rdf-syntax-ns#">
   <cc:Work>
    <dc:type rdf:resource="http://purl.org/dc/dcmitype/StillImage"/>
    <dc:date>2025-07-25T22:44:22.163215</dc:date>
    <dc:format>image/svg+xml</dc:format>
    <dc:creator>
     <cc:Agent>
      <dc:title>Matplotlib v3.10.3, https://matplotlib.org/</dc:title>
     </cc:Agent>
    </dc:creator>
   </cc:Work>
  </rdf:RDF>
 </metadata>
 <defs>
  <style type="text/css">*{stroke-linejoin: round; stroke-linecap: butt}</style>
 </defs>
 <g id="figure_1">
  <g id="patch_1">
   <path d="M 0 818.958117 
L 576 818.958117 
L 576 0 
L 0 0 
L 0 818.958117 
z
" style="fill: none; opacity: 0"/>
  </g>
  <g id="axes_1">
   <g id="QuadContourSet_1">
    <path d="M 576 80.491513 
L 576 79.643022 
L 575.308354 78.935722 
L 573.716149 75.646734 
L 572.708571 74.583703 
L 571.251878 72.357745 
L 570.435417 69.068757 
L 569.417143 67.989596 
L 567.466155 65.779768 
L 567.103803 62.49078 
L 566.125714 61.448024 
L 563.150212 59.201792 
L 562.834286 57.669435 
L 560.384526 59.201792 
L 559.542857 59.328757 
L 559.441369 59.201792 
L 556.251429 56.774951 
L 555.503275 55.912803 
L 552.96 53.50917 
L 552.181404 52.623815 
L 550.50947 49.334826 
L 549.668571 48.487608 
L 548.209357 46.045838 
L 547.202232 42.756849 
L 546.377143 41.924393 
L 544.433538 39.467861 
L 543.894616 36.178873 
L 543.085714 35.361573 
L 540.155429 32.889884 
L 539.794286 30.917874 
L 536.502857 30.521748 
L 535.951581 29.600896 
L 533.211429 27.278918 
L 532.47677 26.311907 
L 530.401326 23.022919 
L 529.92 22.604322 
L 528.576641 19.733931 
L 527.171175 16.444942 
L 526.628571 15.900704 
L 524.870427 13.155954 
L 523.994843 9.866965 
L 523.337143 9.206695 
L 520.784048 6.577977 
L 520.301861 3.288988 
L 520.045714 3.031395 
L 518.491882 3.288988 
L 516.754286 3.618388 
L 516.546895 3.288988 
L 513.462857 0.476438 
L 513.043722 0 
L 511.869478 0 
L 513.462857 1.81122 
L 515.08327 3.288988 
L 516.754286 5.943067 
L 517.824376 6.577977 
L 516.754286 6.903971 
L 514.67444 9.866965 
L 516.754286 11.771158 
L 520.045714 10.285499 
L 523.337143 12.060799 
L 523.701263 13.155954 
L 525.32421 16.444942 
L 526.628571 17.665204 
L 527.687039 19.733931 
L 528.927142 23.022919 
L 529.92 24.015041 
L 531.565356 26.311907 
L 533.211429 28.478586 
L 534.53586 29.600896 
L 536.502857 32.886571 
L 536.508554 32.889884 
L 536.502857 32.891718 
L 534.587926 36.178873 
L 536.502857 38.092384 
L 539.794286 36.88341 
L 543.085714 38.960273 
L 543.195245 39.467861 
L 545.229782 42.756849 
L 546.377143 43.816488 
L 547.286254 46.045838 
L 549.03505 49.334826 
L 549.668571 50.004042 
L 551.273449 52.623815 
L 552.96 54.541623 
L 554.41084 55.912803 
L 556.251429 58.033838 
L 557.786636 59.201792 
L 556.251429 60.069668 
L 554.350974 62.49078 
L 556.251429 64.389825 
L 557.642403 65.779768 
L 556.251429 69.068757 
L 559.542857 72.357745 
L 561.320092 69.068757 
L 562.680168 65.779768 
L 562.834286 65.042372 
L 566.125714 64.374989 
L 566.314224 65.779768 
L 568.614368 69.068757 
L 569.417143 69.499024 
L 570.398028 72.357745 
L 572.453471 75.646734 
L 572.708571 75.909535 
L 574.478641 78.935722 
z
M 557.52314 69.068757 
L 558.376683 65.779768 
L 559.542857 64.103218 
L 561.468003 65.779768 
L 560.633421 69.068757 
L 559.542857 71.086977 
z
M 555.085254 62.49078 
L 556.251429 61.005115 
L 557.929223 62.49078 
L 556.251429 63.65609 
z
M 558.985643 62.49078 
L 559.542857 61.398882 
L 561.337438 62.49078 
L 559.542857 63.047581 
z
M 535.35041 36.178873 
L 536.502857 34.200592 
L 538.967662 36.178873 
L 536.502857 37.330465 
z
M 515.512281 9.866965 
L 516.754286 8.097577 
L 518.952939 9.866965 
L 516.754286 11.004077 
z
" clip-path="url(#p46faf851ce)" style="fill: #f5f9fe; fill-opacity: 0.9"/>
    <path d="M 576 79.643022 
L 576 78.935722 
L 576 78.395526 
L 574.952843 75.646734 
L 572.708571 73.278945 
L 572.105727 72.357745 
L 571.666559 69.068757 
L 569.417143 66.684838 
L 568.618085 65.779768 
L 568.356954 62.49078 
L 566.125714 60.112019 
L 564.919969 59.201792 
L 564.436495 55.912803 
L 562.834286 54.126337 
L 560.280977 52.623815 
L 559.542857 50.963889 
L 556.757774 52.623815 
L 556.251429 52.953906 
L 555.599971 52.623815 
L 552.96 51.991293 
L 552.042621 49.334826 
L 549.668571 46.942936 
L 549.132461 46.045838 
L 548.753464 42.756849 
L 546.377143 40.359309 
L 545.67183 39.467861 
L 545.464361 36.178873 
L 543.085714 33.77553 
L 542.035746 32.889884 
L 541.782107 29.600896 
L 539.794286 27.580302 
L 537.657453 26.311907 
L 536.502857 23.276071 
L 533.211429 24.981996 
L 532.587014 23.022919 
L 529.92 20.703484 
L 529.466244 19.733931 
L 528.990947 16.444942 
L 526.628571 14.075449 
L 526.039591 13.155954 
L 525.743464 9.866965 
L 523.337143 7.451242 
L 522.489 6.577977 
L 522.323367 3.288988 
L 520.045714 0.998478 
L 518.499945 0 
L 516.754286 0 
L 513.462857 0 
L 513.043722 0 
L 513.462857 0.476438 
L 516.546895 3.288988 
L 516.754286 3.618388 
L 518.491882 3.288988 
L 520.045714 3.031395 
L 520.301861 3.288988 
L 520.784048 6.577977 
L 523.337143 9.206695 
L 523.994843 9.866965 
L 524.870427 13.155954 
L 526.628571 15.900704 
L 527.171175 16.444942 
L 528.576641 19.733931 
L 529.92 22.604322 
L 530.401326 23.022919 
L 532.47677 26.311907 
L 533.211429 27.278918 
L 535.951581 29.600896 
L 536.502857 30.521748 
L 539.794286 30.917874 
L 540.155429 32.889884 
L 543.085714 35.361573 
L 543.894616 36.178873 
L 544.433538 39.467861 
L 546.377143 41.924393 
L 547.202232 42.756849 
L 548.209357 46.045838 
L 549.668571 48.487608 
L 550.50947 49.334826 
L 552.181404 52.623815 
L 552.96 53.50917 
L 555.503275 55.912803 
L 556.251429 56.774951 
L 559.441369 59.201792 
L 559.542857 59.328757 
L 560.384526 59.201792 
L 562.834286 57.669435 
L 563.150212 59.201792 
L 566.125714 61.448024 
L 567.103803 62.49078 
L 567.466155 65.779768 
L 569.417143 67.989596 
L 570.435417 69.068757 
L 571.251878 72.357745 
L 572.708571 74.583703 
L 573.716149 75.646734 
L 575.308354 78.935722 
z
M 559.542857 71.086977 
L 560.633421 69.068757 
L 561.468003 65.779768 
L 559.542857 64.103218 
L 558.376683 65.779768 
L 557.52314 69.068757 
z
M 558.794851 69.068757 
L 559.110962 65.779768 
L 559.542857 65.158855 
L 560.255838 65.779768 
L 559.946749 69.068757 
L 559.542857 69.816208 
z
M 556.251429 63.65609 
L 557.929223 62.49078 
L 556.251429 61.005115 
L 555.085254 62.49078 
z
M 555.819534 62.49078 
L 556.251429 61.940561 
L 556.872803 62.49078 
L 556.251429 62.922355 
z
M 536.502857 37.330465 
L 538.967662 36.178873 
L 536.502857 34.200592 
L 535.35041 36.178873 
z
M 536.112895 36.178873 
L 536.502857 35.509467 
L 537.336892 36.178873 
L 536.502857 36.568546 
z
M 516.754286 11.004077 
L 518.952939 9.866965 
L 516.754286 8.097577 
L 515.512281 9.866965 
z
M 516.350121 9.866965 
L 516.754286 9.291183 
L 517.469756 9.866965 
L 516.754286 10.236996 
z
" clip-path="url(#p46faf851ce)" style="fill: #eff6fc; fill-opacity: 0.9"/>
    <path d="M 576 78.395526 
L 576 75.646734 
L 576 72.357745 
L 576 69.068757 
L 576 65.790807 
L 575.994698 65.779768 
L 573.830669 62.49078 
L 572.708571 59.787451 
L 572.449785 59.201792 
L 570.339066 55.912803 
L 569.417143 53.688108 
L 568.942403 52.623815 
L 567.005388 49.334826 
L 566.125714 47.403419 
L 565.464792 46.045838 
L 563.676673 42.756849 
L 562.834286 41.002129 
L 562.032124 39.467861 
L 560.178428 36.178873 
L 559.542857 34.869403 
L 558.520464 32.889884 
L 556.647975 29.600896 
L 556.251429 28.771337 
L 555.023474 26.311907 
L 553.18689 23.022919 
L 552.96 22.554329 
L 551.539735 19.733931 
L 549.772853 16.444942 
L 549.668571 16.23653 
L 548.068006 13.155954 
L 546.377143 9.890204 
L 546.363746 9.866965 
L 544.496479 6.577977 
L 543.085714 4.13599 
L 542.548005 3.288988 
L 540.735648 0 
L 539.794286 0 
L 536.502857 0 
L 533.211429 0 
L 529.92 0 
L 526.628571 0 
L 523.337143 0 
L 520.045714 0 
L 518.499945 0 
L 520.045714 0.998478 
L 522.323367 3.288988 
L 522.489 6.577977 
L 523.337143 7.451242 
L 525.743464 9.866965 
L 526.039591 13.155954 
L 526.628571 14.075449 
L 528.990947 16.444942 
L 529.466244 19.733931 
L 529.92 20.703484 
L 532.587014 23.022919 
L 533.211429 24.981996 
L 536.502857 23.276071 
L 537.657453 26.311907 
L 539.794286 27.580302 
L 541.782107 29.600896 
L 542.035746 32.889884 
L 543.085714 33.77553 
L 545.464361 36.178873 
L 545.67183 39.467861 
L 546.377143 40.359309 
L 548.753464 42.756849 
L 549.132461 46.045838 
L 549.668571 46.942936 
L 552.042621 49.334826 
L 552.96 51.991293 
L 555.599971 52.623815 
L 556.251429 52.953906 
L 556.757774 52.623815 
L 559.542857 50.963889 
L 560.280977 52.623815 
L 562.834286 54.126337 
L 564.436495 55.912803 
L 564.919969 59.201792 
L 566.125714 60.112019 
L 568.356954 62.49078 
L 568.618085 65.779768 
L 569.417143 66.684838 
L 571.666559 69.068757 
L 572.105727 72.357745 
L 572.708571 73.278945 
L 574.952843 75.646734 
z
M 559.542857 69.816208 
L 559.946749 69.068757 
L 560.255838 65.779768 
L 559.542857 65.158855 
L 559.110962 65.779768 
L 558.794851 69.068757 
z
M 556.251429 62.922355 
L 556.872803 62.49078 
L 556.251429 61.940561 
L 555.819534 62.49078 
z
M 536.502857 36.568546 
L 537.336892 36.178873 
L 536.502857 35.509467 
L 536.112895 36.178873 
z
M 516.754286 10.236996 
L 517.469756 9.866965 
L 516.754286 9.291183 
L 516.350121 9.866965 
z
" clip-path="url(#p46faf851ce)" style="fill: #eaf3fb; fill-opacity: 0.9"/>
    <path d="M 576 65.790807 
L 576 65.779768 
L 576 62.49078 
L 576 59.201792 
L 576 55.912803 
L 576 52.623815 
L 576 49.334826 
L 576 46.045838 
L 576 42.756849 
L 576 39.467861 
L 576 36.178873 
L 576 36.10627 
L 574.044942 32.889884 
L 572.708571 30.595092 
L 572.183358 29.600896 
L 570.340703 26.311907 
L 569.417143 24.671116 
L 568.546956 23.022919 
L 566.682019 19.733931 
L 566.125714 18.746857 
L 564.901602 16.444942 
L 563.023512 13.155954 
L 562.834286 12.820995 
L 561.247228 9.866965 
L 559.542857 6.874705 
L 559.385077 6.577977 
L 557.587247 3.288988 
L 556.251429 0.974638 
L 555.696087 0 
L 552.96 0 
L 549.668571 0 
L 546.377143 0 
L 543.085714 0 
L 540.735648 0 
L 542.548005 3.288988 
L 543.085714 4.13599 
L 544.496479 6.577977 
L 546.363746 9.866965 
L 546.377143 9.890204 
L 548.068006 13.155954 
L 549.668571 16.23653 
L 549.772853 16.444942 
L 551.539735 19.733931 
L 552.96 22.554329 
L 553.18689 23.022919 
L 555.023474 26.311907 
L 556.251429 28.771337 
L 556.647975 29.600896 
L 558.520464 32.889884 
L 559.542857 34.869403 
L 560.178428 36.178873 
L 562.032124 39.467861 
L 562.834286 41.002129 
L 563.676673 42.756849 
L 565.464792 46.045838 
L 566.125714 47.403419 
L 567.005388 49.334826 
L 568.942403 52.623815 
L 569.417143 53.688108 
L 570.339066 55.912803 
L 572.449785 59.201792 
L 572.708571 59.787451 
L 573.830669 62.49078 
L 575.994698 65.779768 
z
" clip-path="url(#p46faf851ce)" style="fill: #e5eff9; fill-opacity: 0.9"/>
    <path d="M 576 36.10627 
L 576 32.889884 
L 576 29.600896 
L 576 26.311907 
L 576 23.022919 
L 576 19.733931 
L 576 16.444942 
L 576 13.155954 
L 576 9.866965 
L 576 6.577977 
L 576 3.288988 
L 576 1.800195 
L 574.806493 0 
L 572.708571 0 
L 569.417143 0 
L 566.125714 0 
L 562.834286 0 
L 559.542857 0 
L 556.251429 0 
L 555.696087 0 
L 556.251429 0.974638 
L 557.587247 3.288988 
L 559.385077 6.577977 
L 559.542857 6.874705 
L 561.247228 9.866965 
L 562.834286 12.820995 
L 563.023512 13.155954 
L 564.901602 16.444942 
L 566.125714 18.746857 
L 566.682019 19.733931 
L 568.546956 23.022919 
L 569.417143 24.671116 
L 570.340703 26.311907 
L 572.183358 29.600896 
L 572.708571 30.595092 
L 574.044942 32.889884 
z
" clip-path="url(#p46faf851ce)" style="fill: #dfecf7; fill-opacity: 0.9"/>
    <path d="M 576 1.800195 
L 576 0 
L 574.806493 0 
z
" clip-path="url(#p46faf851ce)" style="fill: #dae8f6; fill-opacity: 0.9"/>
    <path clip-path="url(#p46faf851ce)" style="fill: #d6e5f4; fill-opacity: 0.9"/>
    <path clip-path="url(#p46faf851ce)" style="fill: #d0e2f2; fill-opacity: 0.9"/>
    <path clip-path="url(#p46faf851ce)" style="fill: #cbdef1; fill-opacity: 0.9"/>
    <path clip-path="url(#p46faf851ce)" style="fill: #c6dbef; fill-opacity: 0.9"/>
    <path clip-path="url(#p46faf851ce)" style="fill: #bed8ec; fill-opacity: 0.9"/>
    <path clip-path="url(#p46faf851ce)" style="fill: #b5d4e9; fill-opacity: 0.9"/>
    <path clip-path="url(#p46faf851ce)" style="fill: #add0e6; fill-opacity: 0.9"/>
    <path clip-path="url(#p46faf851ce)" style="fill: #a5cde3; fill-opacity: 0.9"/>
    <path clip-path="url(#p46faf851ce)" style="fill: #9cc9e1; fill-opacity: 0.9"/>
    <path clip-path="url(#p46faf851ce)" style="fill: #91c3de; fill-opacity: 0.9"/>
    <path clip-path="url(#p46faf851ce)" style="fill: #85bcdc; fill-opacity: 0.9"/>
    <path clip-path="url(#p46faf851ce)" style="fill: #7cb7da; fill-opacity: 0.9"/>
    <path clip-path="url(#p46faf851ce)" style="fill: #71b1d7; fill-opacity: 0.9"/>
    <path clip-path="url(#p46faf851ce)" style="fill: #66abd4; fill-opacity: 0.9"/>
    <path clip-path="url(#p46faf851ce)" style="fill: #5da5d1; fill-opacity: 0.9"/>
    <path clip-path="url(#p46faf851ce)" style="fill: #56a0ce; fill-opacity: 0.9"/>
    <path clip-path="url(#p46faf851ce)" style="fill: #4d99ca; fill-opacity: 0.9"/>
    <path clip-path="url(#p46faf851ce)" style="fill: #4493c7; fill-opacity: 0.9"/>
    <path clip-path="url(#p46faf851ce)" style="fill: #3c8cc3; fill-opacity: 0.9"/>
    <path clip-path="url(#p46faf851ce)" style="fill: #3686c0; fill-opacity: 0.9"/>
    <path clip-path="url(#p46faf851ce)" style="fill: #2f7fbc; fill-opacity: 0.9"/>
    <path clip-path="url(#p46faf851ce)" style="fill: #2777b8; fill-opacity: 0.9"/>
    <path clip-path="url(#p46faf851ce)" style="fill: #2070b4; fill-opacity: 0.9"/>
    <path clip-path="url(#p46faf851ce)" style="fill: #1c6ab0; fill-opacity: 0.9"/>
    <path clip-path="url(#p46faf851ce)" style="fill: #1663aa; fill-opacity: 0.9"/>
    <path clip-path="url(#p46faf851ce)" style="fill: #115ca5; fill-opacity: 0.9"/>
    <path clip-path="url(#p46faf851ce)" style="fill: #0c56a0; fill-opacity: 0.9"/>
    <path clip-path="url(#p46faf851ce)" style="fill: #084f99; fill-opacity: 0.9"/>
    <path clip-path="url(#p46faf851ce)" style="fill: #08488e; fill-opacity: 0.9"/>
    <path clip-path="url(#p46faf851ce)" style="fill: #084184; fill-opacity: 0.9"/>
    <path clip-path="url(#p46faf851ce)" style="fill: #083a7a; fill-opacity: 0.9"/>
    <path clip-path="url(#p46faf851ce)" style="fill: #083370; fill-opacity: 0.9"/>
    <path clip-path="url(#p46faf851ce)" style="fill: #08306b; fill-opacity: 0.9"/>
   </g>
   <g id="QuadContourSet_2">
    <path d="M 511.869478 0 
L 513.462857 1.81122 
L 515.08327 3.288988 
L 516.754286 5.943067 
L 517.824376 6.577977 
L 516.754286 6.903971 
L 514.67444 9.866965 
L 516.754286 11.771158 
L 520.045714 10.285499 
L 523.337143 12.060799 
L 523.701263 13.155954 
L 525.085955 15.962105 
M 535.706361 31.556103 
L 536.502857 32.886571 
L 536.508554 32.889884 
L 536.502857 32.891718 
L 534.587926 36.178873 
L 536.502857 38.092384 
L 539.794286 36.88341 
L 543.085714 38.960273 
L 543.195245 39.467861 
L 545.229782 42.756849 
L 546.377143 43.816488 
L 547.286254 46.045838 
L 549.03505 49.334826 
L 549.668571 50.004042 
L 551.273449 52.623815 
L 552.96 54.541623 
L 554.41084 55.912803 
L 556.251429 58.033838 
L 557.786636 59.201792 
L 556.251429 60.069668 
L 554.350974 62.49078 
L 556.251429 64.389825 
L 557.642403 65.779768 
L 556.251429 69.068757 
L 559.542857 72.357745 
L 561.320092 69.068757 
L 562.680168 65.779768 
L 562.834286 65.042372 
L 566.125714 64.374989 
L 566.314224 65.779768 
L 568.614368 69.068757 
L 569.417143 69.499024 
L 570.398028 72.357745 
L 572.453471 75.646734 
L 572.708571 75.909535 
L 574.478641 78.935722 
L 576 80.491513 
M 559.542857 63.047581 
L 558.985643 62.49078 
L 559.542857 61.398882 
L 561.337438 62.49078 
L 559.542857 63.047581 
z
" clip-path="url(#p46faf851ce)" style="fill: none"/>
    <path d="M 513.043722 0 
L 513.462857 0.476438 
L 516.546895 3.288988 
L 516.754286 3.618388 
L 518.491882 3.288988 
L 520.045714 3.031395 
L 520.301861 3.288988 
L 520.784048 6.577977 
L 523.337143 9.206695 
L 523.994843 9.866965 
L 524.870427 13.155954 
L 526.628571 15.900704 
L 527.171175 16.444942 
L 528.576641 19.733931 
L 529.92 22.604322 
L 530.401326 23.022919 
L 532.47677 26.311907 
L 533.211429 27.278918 
L 535.951581 29.600896 
L 536.502857 30.521748 
L 539.794286 30.917874 
L 540.155429 32.889884 
L 541.55089 34.066952 
M 550.952234 50.20582 
L 552.181404 52.623815 
L 552.96 53.50917 
L 555.503275 55.912803 
L 556.251429 56.774951 
L 559.441369 59.201792 
L 559.542857 59.328757 
L 560.384526 59.201792 
L 562.834286 57.669435 
L 563.150212 59.201792 
L 566.125714 61.448024 
L 567.103803 62.49078 
L 567.466155 65.779768 
L 569.417143 67.989596 
L 570.435417 69.068757 
L 571.251878 72.357745 
L 572.708571 74.583703 
L 573.716149 75.646734 
L 575.308354 78.935722 
L 576 79.643022 
M 559.542857 71.086977 
L 560.633421 69.068757 
L 561.468003 65.779768 
L 559.542857 64.103218 
L 558.376683 65.779768 
L 557.52314 69.068757 
L 559.542857 71.086977 
z
M 556.251429 63.65609 
L 557.929223 62.49078 
L 556.251429 61.005115 
L 555.085254 62.49078 
L 556.251429 63.65609 
z
M 536.502857 37.330465 
L 538.967662 36.178873 
L 536.502857 34.200592 
L 535.35041 36.178873 
L 536.502857 37.330465 
z
M 516.754286 11.004077 
L 518.952939 9.866965 
L 516.754286 8.097577 
L 515.512281 9.866965 
L 516.754286 11.004077 
z
" clip-path="url(#p46faf851ce)" style="fill: none"/>
    <path d="M 524.665123 8.784411 
L 525.743464 9.866965 
L 526.039591 13.155954 
L 526.628571 14.075449 
L 528.990947 16.444942 
L 529.466244 19.733931 
L 529.92 20.703484 
L 532.587014 23.022919 
L 533.211429 24.981996 
L 536.502857 23.276071 
L 537.657453 26.311907 
L 539.794286 27.580302 
L 541.782107 29.600896 
L 542.035746 32.889884 
L 543.085714 33.77553 
L 545.464361 36.178873 
L 545.67183 39.467861 
L 546.377143 40.359309 
L 548.753464 42.756849 
L 549.132461 46.045838 
L 549.668571 46.942936 
L 552.042621 49.334826 
L 552.96 51.991293 
L 555.599971 52.623815 
L 556.251429 52.953906 
L 556.757774 52.623815 
L 559.542857 50.963889 
L 560.280977 52.623815 
L 562.834286 54.126337 
L 564.436495 55.912803 
L 564.919969 59.201792 
L 566.125714 60.112019 
L 568.356954 62.49078 
L 568.618085 65.779768 
L 569.417143 66.684838 
L 571.666559 69.068757 
L 572.105727 72.357745 
L 572.708571 73.278945 
L 574.952843 75.646734 
L 576 78.395526 
M 559.542857 69.816208 
L 559.946749 69.068757 
L 560.255838 65.779768 
L 559.542857 65.158855 
L 559.110962 65.779768 
L 558.794851 69.068757 
L 559.542857 69.816208 
z
M 556.251429 62.922355 
L 556.872803 62.49078 
L 556.251429 61.940561 
L 555.819534 62.49078 
L 556.251429 62.922355 
z
M 536.502857 36.568546 
L 537.336892 36.178873 
L 536.502857 35.509467 
L 536.112895 36.178873 
L 536.502857 36.568546 
z
M 516.754286 10.236996 
L 517.469756 9.866965 
L 516.754286 9.291183 
L 516.350121 9.866965 
L 516.754286 10.236996 
z
" clip-path="url(#p46faf851ce)" style="fill: none"/>
    <path d="M 540.735648 0 
L 542.548005 3.288988 
L 543.085714 4.13599 
L 544.496479 6.577977 
L 546.363746 9.866965 
L 546.377143 9.890204 
L 548.068006 13.155954 
L 549.668571 16.23653 
L 549.772853 16.444942 
L 551.539735 19.733931 
L 552.96 22.554329 
L 553.18689 23.022919 
L 553.962724 24.412296 
M 563.024229 41.397787 
L 563.676673 42.756849 
L 565.464792 46.045838 
L 566.125714 47.403419 
L 567.005388 49.334826 
L 568.942403 52.623815 
L 569.417143 53.688108 
L 570.339066 55.912803 
L 572.449785 59.201792 
L 572.708571 59.787451 
L 573.830669 62.49078 
L 575.994698 65.779768 
L 576 65.790807 
" clip-path="url(#p46faf851ce)" style="fill: none"/>
    <path d="M 555.696087 0 
L 556.251429 0.974638 
L 556.566692 1.520842 
M 565.861495 18.249998 
L 566.125714 18.746857 
L 566.682019 19.733931 
L 568.546956 23.022919 
L 569.417143 24.671116 
L 570.340703 26.311907 
L 572.183358 29.600896 
L 572.708571 30.595092 
L 574.044942 32.889884 
L 576 36.10627 
" clip-path="url(#p46faf851ce)" style="fill: none"/>
    <path d="M 574.806493 0 
L 576 1.800195 
" clip-path="url(#p46faf851ce)" style="fill: none"/>
    <path clip-path="url(#p46faf851ce)" style="fill: none"/>
    <path clip-path="url(#p46faf851ce)" style="fill: none"/>
    <path clip-path="url(#p46faf851ce)" style="fill: none"/>
    <path clip-path="url(#p46faf851ce)" style="fill: none"/>
    <path clip-path="url(#p46faf851ce)" style="fill: none"/>
    <path clip-path="url(#p46faf851ce)" style="fill: none"/>
    <path clip-path="url(#p46faf851ce)" style="fill: none"/>
    <path clip-path="url(#p46faf851ce)" style="fill: none"/>
    <path clip-path="url(#p46faf851ce)" style="fill: none"/>
    <path clip-path="url(#p46faf851ce)" style="fill: none"/>
    <path clip-path="url(#p46faf851ce)" style="fill: none"/>
    <path clip-path="url(#p46faf851ce)" style="fill: none"/>
    <path clip-path="url(#p46faf851ce)" style="fill: none"/>
    <path clip-path="url(#p46faf851ce)" style="fill: none"/>
    <path clip-path="url(#p46faf851ce)" style="fill: none"/>
    <path clip-path="url(#p46faf851ce)" style="fill: none"/>
    <path clip-path="url(#p46faf851ce)" style="fill: none"/>
    <path clip-path="url(#p46faf851ce)" style="fill: none"/>
    <path clip-path="url(#p46faf851ce)" style="fill: none"/>
    <path clip-path="url(#p46faf851ce)" style="fill: none"/>
    <path clip-path="url(#p46faf851ce)" style="fill: none"/>
    <path clip-path="url(#p46faf851ce)" style="fill: none"/>
    <path clip-path="url(#p46faf851ce)" style="fill: none"/>
    <path clip-path="url(#p46faf851ce)" style="fill: none"/>
    <path clip-path="url(#p46faf851ce)" style="fill: none"/>
    <path clip-path="url(#p46faf851ce)" style="fill: none"/>
    <path clip-path="url(#p46faf851ce)" style="fill: none"/>
    <path clip-path="url(#p46faf851ce)" style="fill: none"/>
    <path clip-path="url(#p46faf851ce)" style="fill: none"/>
    <path clip-path="url(#p46faf851ce)" style="fill: none"/>
    <path clip-path="url(#p46faf851ce)" style="fill: none"/>
    <path clip-path="url(#p46faf851ce)" style="fill: none"/>
    <path clip-path="url(#p46faf851ce)" style="fill: none"/>
   </g>
   <g id="text_1">
    <g clip-path="url(#p46faf851ce)">
     <!-- 0 -->
     <g style="opacity: 0" transform="translate(525.085357 22.544017) rotate(-302.13876) scale(0.12 -0.12)">
      <defs>
       <path id="DejaVuSans-30" d="M 2034 4250 
Q 1547 4250 1301 3770 
Q 1056 3291 1056 2328 
Q 1056 1369 1301 889 
Q 1547 409 2034 409 
Q 2525 409 2770 889 
Q 3016 1369 3016 2328 
Q 3016 3291 2770 3770 
Q 2525 4250 2034 4250 
z
M 2034 4750 
Q 2819 4750 3233 4129 
Q 3647 3509 3647 2328 
Q 3647 1150 3233 529 
Q 2819 -91 2034 -91 
Q 1250 -91 836 529 
Q 422 1150 422 2328 
Q 422 3509 836 4129 
Q 1250 4750 2034 4750 
z
" transform="scale(0.015625)"/>
      </defs>
      <use xlink:href="#DejaVuSans-30"/>
     </g>
    </g>
   </g>
   <g id="text_2">
    <g clip-path="url(#p46faf851ce)">
     <!-- 1 -->
     <g style="opacity: 0" transform="translate(541.719448 39.963892) rotate(-296.235025) scale(0.12 -0.12)">
      <defs>
       <path id="DejaVuSans-31" d="M 794 531 
L 1825 531 
L 1825 4091 
L 703 3866 
L 703 4441 
L 1819 4666 
L 2450 4666 
L 2450 531 
L 3481 531 
L 3481 0 
L 794 0 
L 794 531 
z
" transform="scale(0.015625)"/>
      </defs>
      <use xlink:href="#DejaVuSans-31"/>
     </g>
    </g>
   </g>
   <g id="text_3">
    <g clip-path="url(#p46faf851ce)">
     <!-- 2 -->
     <g style="opacity: 0" transform="translate(515.083914 0.040239) rotate(-308.131471) scale(0.12 -0.12)">
      <defs>
       <path id="DejaVuSans-32" d="M 1228 531 
L 3431 531 
L 3431 0 
L 469 0 
L 469 531 
Q 828 903 1448 1529 
Q 2069 2156 2228 2338 
Q 2531 2678 2651 2914 
Q 2772 3150 2772 3378 
Q 2772 3750 2511 3984 
Q 2250 4219 1831 4219 
Q 1534 4219 1204 4116 
Q 875 4013 500 3803 
L 500 4441 
Q 881 4594 1212 4672 
Q 1544 4750 1819 4750 
Q 2544 4750 2975 4387 
Q 3406 4025 3406 3419 
Q 3406 3131 3298 2873 
Q 3191 2616 2906 2266 
Q 2828 2175 2409 1742 
Q 1991 1309 1228 531 
z
" transform="scale(0.015625)"/>
      </defs>
      <use xlink:href="#DejaVuSans-32"/>
     </g>
    </g>
   </g>
   <g id="text_4">
    <g clip-path="url(#p46faf851ce)">
     <!-- 3 -->
     <g style="opacity: 0" transform="translate(553.797093 31.093375) rotate(-298.238004) scale(0.12 -0.12)">
      <defs>
       <path id="DejaVuSans-33" d="M 2597 2516 
Q 3050 2419 3304 2112 
Q 3559 1806 3559 1356 
Q 3559 666 3084 287 
Q 2609 -91 1734 -91 
Q 1441 -91 1130 -33 
Q 819 25 488 141 
L 488 750 
Q 750 597 1062 519 
Q 1375 441 1716 441 
Q 2309 441 2620 675 
Q 2931 909 2931 1356 
Q 2931 1769 2642 2001 
Q 2353 2234 1838 2234 
L 1294 2234 
L 1294 2753 
L 1863 2753 
Q 2328 2753 2575 2939 
Q 2822 3125 2822 3475 
Q 2822 3834 2567 4026 
Q 2313 4219 1838 4219 
Q 1578 4219 1281 4162 
Q 984 4106 628 3988 
L 628 4550 
Q 988 4650 1302 4700 
Q 1616 4750 1894 4750 
Q 2613 4750 3031 4423 
Q 3450 4097 3450 3541 
Q 3450 3153 3228 2886 
Q 3006 2619 2597 2516 
z
" transform="scale(0.015625)"/>
      </defs>
      <use xlink:href="#DejaVuSans-33"/>
     </g>
    </g>
   </g>
   <g id="text_5">
    <g clip-path="url(#p46faf851ce)">
     <!-- 4 -->
     <g style="opacity: 0" transform="translate(556.4954 8.147136) rotate(-299.165344) scale(0.12 -0.12)">
      <defs>
       <path id="DejaVuSans-34" d="M 2419 4116 
L 825 1625 
L 2419 1625 
L 2419 4116 
z
M 2253 4666 
L 3047 4666 
L 3047 1625 
L 3713 1625 
L 3713 1100 
L 3047 1100 
L 3047 0 
L 2419 0 
L 2419 1100 
L 313 1100 
L 313 1709 
L 2253 4666 
z
" transform="scale(0.015625)"/>
      </defs>
      <use xlink:href="#DejaVuSans-34"/>
     </g>
    </g>
   </g>
  </g>
 </g>
 <defs>
  <clipPath id="p46faf851ce">
   <rect x="0" y="0" width="576" height="818.958117"/>
  </clipPath>
 </defs>
</svg>
