<?xml version="1.0" encoding="utf-8" standalone="no"?>
<!DOCTYPE svg PUBLIC "-//W3C//DTD SVG 1.1//EN"
  "http://www.w3.org/Graphics/SVG/1.1/DTD/svg11.dtd">
<svg xmlns:xlink="http://www.w3.org/1999/xlink" width="576pt" height="819.971235pt" viewBox="0 0 576 819.971235" xmlns="http://www.w3.org/2000/svg" version="1.1">
 <metadata>
  <rdf:RDF xmlns:dc="http://purl.org/dc/elements/1.1/" xmlns:cc="http://creativecommons.org/ns#" xmlns:rdf="http://www.w3.org/1999/02/22-rdf-syntax-ns#">
   <cc:Work>
    <dc:type rdf:resource="http://purl.org/dc/dcmitype/StillImage"/>
    <dc:date>2025-07-25T22:45:48.831697</dc:date>
    <dc:format>image/svg+xml</dc:format>
    <dc:creator>
     <cc:Agent>
      <dc:title>Matplotlib v3.10.3, https://matplotlib.org/</dc:title>
     </cc:Agent>
    </dc:creator>
   </cc:Work>
  </rdf:RDF>
 </metadata>
 <defs>
  <style type="text/css">*{stroke-linejoin: round; stroke-linecap: butt}</style>
 </defs>
 <g id="figure_1">
  <g id="patch_1">
   <path d="M 0 819.971235 
L 576 819.971235 
L 576 0 
L 0 0 
L 0 819.971235 
z
" style="fill: none; opacity: 0"/>
  </g>
  <g id="axes_1">
   <g id="QuadContourSet_1">
    <path d="M 576 146.992545 
L 576 146.139647 
L 574.755484 144.894515 
L 572.978383 141.601458 
L 572.708571 141.220039 
L 569.736729 138.308401 
L 569.417143 137.402423 
L 566.125714 135.783105 
L 565.359707 135.015344 
L 562.834286 133.175461 
L 561.911772 135.015344 
L 559.542857 137.386982 
L 557.160713 135.015344 
L 556.251429 134.10561 
L 553.869284 131.722287 
L 556.251429 128.987615 
L 557.209859 128.42923 
L 556.251429 127.674294 
L 553.409028 125.136172 
L 552.96 124.773385 
L 549.715639 121.843115 
L 549.668571 121.791462 
L 547.080324 118.550058 
L 546.377143 117.196463 
L 543.323624 115.257001 
L 543.085714 114.106755 
L 539.794286 112.969864 
L 538.788863 111.963944 
L 536.502857 110.269108 
L 535.606003 111.963944 
L 533.211429 114.805812 
L 530.370965 111.963944 
L 530.826685 108.670887 
L 529.92 107.763753 
L 527.535257 105.377829 
L 527.933188 102.084772 
L 526.628571 100.901189 
L 524.399657 98.791715 
L 523.337143 97.571196 
L 520.870955 95.498658 
L 520.045714 94.032745 
L 517.650725 92.205601 
L 516.754286 90.732801 
L 513.462857 89.009307 
L 510.171429 91.312355 
L 507.79256 88.912544 
L 506.88 87.999532 
L 504.501132 85.619486 
L 505.78637 82.326429 
L 503.588571 80.424815 
L 502.197817 79.033372 
L 500.297143 77.358224 
L 498.680034 75.740315 
L 497.005714 73.307912 
L 496.145486 72.447258 
L 493.833753 69.154201 
L 493.714286 68.9794 
L 490.422857 66.946356 
L 489.090661 65.861143 
L 487.131429 64.546577 
L 486.510091 65.861143 
L 483.84 68.258828 
L 481.443501 65.861143 
L 483.84 62.981321 
L 484.796605 62.568086 
L 483.84 61.878988 
L 480.848097 59.275029 
L 480.548571 59.048325 
L 477.257143 56.263618 
L 476.975636 55.981972 
L 473.965714 53.091633 
L 473.563195 52.688915 
L 471.170518 49.395858 
L 470.674286 48.666848 
L 467.382857 46.484165 
L 467.001681 46.1028 
L 464.091429 44.109294 
L 460.8 45.214126 
L 458.40196 42.809743 
L 457.508571 41.915913 
L 455.110531 39.516686 
L 455.350804 36.223629 
L 454.217143 35.195546 
L 451.719568 32.930572 
L 450.925714 32.193439 
L 448.503978 29.637515 
L 447.634286 28.332725 
L 444.761621 26.344457 
L 444.342857 24.836789 
L 441.051429 23.39728 
L 440.70572 23.0514 
L 437.76 20.594077 
L 434.468571 22.174381 
L 432.053729 19.758343 
L 433.26676 16.465286 
L 431.177143 14.638591 
L 429.711506 13.172229 
L 427.885714 11.55031 
L 426.215402 9.879172 
L 424.594286 8.154553 
L 423.026623 6.586114 
L 421.302857 4.426849 
L 420.079941 3.293057 
L 418.011429 1.041729 
L 416.819688 0 
L 415.616375 0 
L 418.011429 2.093575 
L 419.113509 3.293057 
L 421.302857 5.322849 
L 422.311336 6.586114 
L 424.594286 8.870193 
L 425.542711 9.879172 
L 427.885714 12.223335 
L 428.953883 13.172229 
L 431.177143 15.396589 
L 432.399661 16.465286 
L 431.689984 19.758343 
L 434.468571 22.538305 
L 437.76 21.591958 
L 439.509508 23.0514 
L 441.051429 24.594083 
L 443.350182 26.344457 
L 444.342857 27.337624 
L 447.634286 29.119421 
L 447.979615 29.637515 
L 450.925714 32.746857 
L 451.123566 32.930572 
L 454.217143 35.736042 
L 454.754802 36.223629 
L 454.74774 39.516686 
L 457.508571 42.278884 
L 458.039168 42.809743 
L 460.8 45.577877 
L 464.091429 44.925273 
L 465.810461 46.1028 
L 467.382857 47.675974 
L 470.575274 49.395858 
L 470.674286 49.494918 
L 472.380711 52.688915 
L 473.965714 54.274702 
L 475.74362 55.981972 
L 477.257143 57.496243 
L 479.532016 59.275029 
L 480.548571 60.292088 
L 483.706028 62.568086 
L 481.07719 65.861143 
L 483.84 68.625321 
L 486.918221 65.861143 
L 487.131429 65.41006 
L 487.803725 65.861143 
L 490.422857 67.9947 
L 492.359286 69.154201 
L 493.714286 70.290954 
L 495.160427 72.447258 
L 497.005714 74.293458 
L 498.001643 75.740315 
L 500.297143 78.03695 
L 501.427713 79.033372 
L 503.588571 81.195299 
L 504.895879 82.326429 
L 504.131386 85.619486 
L 506.88 88.36946 
L 507.422814 88.912544 
L 510.171429 91.685356 
L 513.462857 90.344014 
L 515.892535 92.205601 
L 516.754286 93.067778 
L 520.045714 95.386157 
L 520.109047 95.498658 
L 523.337143 98.21149 
L 523.842254 98.791715 
L 526.628571 101.428722 
L 527.351709 102.084772 
L 527.156644 105.377829 
L 529.92 108.142553 
L 530.448072 108.670887 
L 529.92 111.963944 
L 533.211429 115.257001 
L 535.986177 111.963944 
L 536.502857 110.987544 
L 537.819832 111.963944 
L 539.794286 113.939374 
L 541.818764 115.257001 
L 543.085714 116.524578 
L 546.377143 118.207387 
L 546.555157 118.550058 
L 548.338646 121.843115 
L 549.668571 123.173699 
L 552.317309 125.136172 
L 552.96 125.779182 
L 556.251429 128.27253 
L 556.450366 128.42923 
L 556.251429 128.545132 
L 553.483841 131.722287 
L 556.251429 134.491244 
L 556.77527 135.015344 
L 559.542857 137.770725 
L 562.295074 135.015344 
L 562.834286 133.939927 
L 564.310401 135.015344 
L 566.125714 136.834813 
L 568.481492 138.308401 
L 569.417143 139.244515 
L 571.895406 141.601458 
L 572.708571 142.415026 
L 573.903008 144.894515 
z
M 559.542857 132.482081 
L 561.167854 131.722287 
L 559.542857 130.482977 
L 558.783438 131.722287 
z
M 559.19313 131.722287 
L 559.542857 131.151561 
L 560.291199 131.722287 
L 559.542857 132.072187 
z
" clip-path="url(#p99311f447b)" style="fill: #f5f9fe; fill-opacity: 0.9"/>
    <path d="M 576 146.139647 
L 576 145.286749 
L 575.60796 144.894515 
L 573.477793 141.601458 
L 572.708571 140.514046 
L 570.45732 138.308401 
L 569.417143 135.359662 
L 568.152071 135.015344 
L 566.125714 132.919681 
L 562.834286 132.410995 
L 562.044508 131.722287 
L 559.542857 129.814393 
L 558.373747 131.722287 
L 559.542857 132.891976 
L 561.52847 135.015344 
L 559.542857 137.003239 
L 557.546155 135.015344 
L 556.251429 133.719977 
L 554.254727 131.722287 
L 556.251429 129.430098 
L 557.969351 128.42923 
L 556.251429 127.076058 
L 554.078983 125.136172 
L 552.96 124.232102 
L 550.314941 121.843115 
L 549.668571 121.133768 
L 547.60549 118.550058 
L 546.377143 116.185539 
L 544.915239 115.257001 
L 543.494313 111.963944 
L 543.085714 111.231592 
L 539.957122 111.963944 
L 539.794286 112.000353 
L 539.757894 111.963944 
L 536.502857 109.550673 
L 535.225829 111.963944 
L 533.211429 114.354624 
L 530.821931 111.963944 
L 531.205298 108.670887 
L 529.92 107.384952 
L 527.91387 105.377829 
L 528.514666 102.084772 
L 526.628571 100.373656 
L 524.957059 98.791715 
L 523.337143 96.930903 
L 521.632864 95.498658 
L 520.045714 92.679332 
L 519.424755 92.205601 
L 516.97312 88.912544 
L 516.754286 88.602009 
L 513.462857 87.194661 
L 512.982954 88.912544 
L 510.171429 90.939355 
L 508.162306 88.912544 
L 506.88 87.629603 
L 504.870877 85.619486 
L 506.676861 82.326429 
L 503.588571 79.65433 
L 502.967921 79.033372 
L 500.297143 76.679497 
L 499.358425 75.740315 
L 497.080985 72.447258 
L 497.005714 72.365894 
L 494.362218 69.154201 
L 493.714286 68.206168 
L 490.422857 65.898012 
L 490.377598 65.861143 
L 487.131429 63.683094 
L 486.101961 65.861143 
L 483.84 67.892336 
L 481.809812 65.861143 
L 483.84 63.421509 
L 485.815604 62.568086 
L 483.84 61.144944 
L 481.691501 59.275029 
L 480.548571 58.409972 
L 477.812189 55.981972 
L 477.257143 55.546275 
L 474.345313 52.688915 
L 473.965714 52.257972 
L 471.690001 49.395858 
L 470.674286 47.903682 
L 468.119168 46.1028 
L 467.382857 43.904771 
L 464.091429 43.293316 
L 460.8 44.850375 
L 458.764751 42.809743 
L 457.508571 41.552942 
L 455.473322 39.516686 
L 455.946806 36.223629 
L 454.217143 34.655051 
L 452.315569 32.930572 
L 450.925714 31.640021 
L 449.028341 29.637515 
L 447.634286 27.546029 
L 445.898246 26.344457 
L 444.643429 23.0514 
L 444.342857 22.676447 
L 441.051429 21.064286 
L 438.609253 19.758343 
L 437.76 19.479887 
L 437.66781 19.758343 
L 434.468571 21.810456 
L 432.417473 19.758343 
L 434.133858 16.465286 
L 431.177143 13.880593 
L 430.469128 13.172229 
L 427.885714 10.877285 
L 426.888094 9.879172 
L 424.594286 7.438912 
L 423.741909 6.586114 
L 421.302857 3.530849 
L 421.046373 3.293057 
L 418.017088 0 
L 418.011429 0 
L 416.819688 0 
L 418.011429 1.041729 
L 420.079941 3.293057 
L 421.302857 4.426849 
L 423.026623 6.586114 
L 424.594286 8.154553 
L 426.215402 9.879172 
L 427.885714 11.55031 
L 429.711506 13.172229 
L 431.177143 14.638591 
L 433.26676 16.465286 
L 432.053729 19.758343 
L 434.468571 22.174381 
L 437.76 20.594077 
L 440.70572 23.0514 
L 441.051429 23.39728 
L 444.342857 24.836789 
L 444.761621 26.344457 
L 447.634286 28.332725 
L 448.503978 29.637515 
L 450.925714 32.193439 
L 451.719568 32.930572 
L 454.217143 35.195546 
L 455.350804 36.223629 
L 455.110531 39.516686 
L 457.508571 41.915913 
L 458.40196 42.809743 
L 460.8 45.214126 
L 464.091429 44.109294 
L 467.001681 46.1028 
L 467.382857 46.484165 
L 470.674286 48.666848 
L 471.170518 49.395858 
L 473.563195 52.688915 
L 473.965714 53.091633 
L 476.975636 55.981972 
L 477.257143 56.263618 
L 480.548571 59.048325 
L 480.848097 59.275029 
L 483.84 61.878988 
L 484.796605 62.568086 
L 483.84 62.981321 
L 481.443501 65.861143 
L 483.84 68.258828 
L 486.510091 65.861143 
L 487.131429 64.546577 
L 489.090661 65.861143 
L 490.422857 66.946356 
L 493.714286 68.9794 
L 493.833753 69.154201 
L 496.145486 72.447258 
L 497.005714 73.307912 
L 498.680034 75.740315 
L 500.297143 77.358224 
L 502.197817 79.033372 
L 503.588571 80.424815 
L 505.78637 82.326429 
L 504.501132 85.619486 
L 506.88 87.999532 
L 507.79256 88.912544 
L 510.171429 91.312355 
L 513.462857 89.009307 
L 516.754286 90.732801 
L 517.650725 92.205601 
L 520.045714 94.032745 
L 520.870955 95.498658 
L 523.337143 97.571196 
L 524.399657 98.791715 
L 526.628571 100.901189 
L 527.933188 102.084772 
L 527.535257 105.377829 
L 529.92 107.763753 
L 530.826685 108.670887 
L 530.370965 111.963944 
L 533.211429 114.805812 
L 535.606003 111.963944 
L 536.502857 110.269108 
L 538.788863 111.963944 
L 539.794286 112.969864 
L 543.085714 114.106755 
L 543.323624 115.257001 
L 546.377143 117.196463 
L 547.080324 118.550058 
L 549.668571 121.791462 
L 549.715639 121.843115 
L 552.96 124.773385 
L 553.409028 125.136172 
L 556.251429 127.674294 
L 557.209859 128.42923 
L 556.251429 128.987615 
L 553.869284 131.722287 
L 556.251429 134.10561 
L 557.160713 135.015344 
L 559.542857 137.386982 
L 561.911772 135.015344 
L 562.834286 133.175461 
L 565.359707 135.015344 
L 566.125714 135.783105 
L 569.417143 137.402423 
L 569.736729 138.308401 
L 572.708571 141.220039 
L 572.978383 141.601458 
L 574.755484 144.894515 
z
M 558.783438 131.722287 
L 559.542857 130.482977 
L 561.167854 131.722287 
L 559.542857 132.482081 
z
M 510.171429 85.818597 
L 511.130466 85.619486 
L 510.171429 85.143667 
L 509.972417 85.619486 
z
" clip-path="url(#p99311f447b)" style="fill: #eff6fc; fill-opacity: 0.9"/>
    <path d="M 576 145.286749 
L 576 144.894515 
L 576 144.507055 
L 573.977204 141.601458 
L 572.708571 139.808054 
L 571.17791 138.308401 
L 569.988399 135.015344 
L 569.417143 134.42835 
L 566.720681 131.722287 
L 566.125714 130.105984 
L 562.834286 130.962945 
L 559.542857 129.145809 
L 558.728843 128.42923 
L 556.251429 126.477821 
L 554.748938 125.136172 
L 552.96 123.690818 
L 550.914244 121.843115 
L 549.668571 120.476073 
L 548.130656 118.550058 
L 546.441513 115.257001 
L 546.377143 115.192677 
L 544.060604 111.963944 
L 543.085714 110.216602 
L 540.63656 108.670887 
L 539.878832 105.377829 
L 539.794286 105.27073 
L 539.347318 105.377829 
L 537.49069 108.670887 
L 536.502857 108.832237 
L 534.845655 111.963944 
L 533.211429 113.903435 
L 531.272896 111.963944 
L 531.583912 108.670887 
L 529.92 107.006152 
L 528.292483 105.377829 
L 529.096145 102.084772 
L 526.628571 99.846122 
L 525.514462 98.791715 
L 523.337143 96.290609 
L 522.394772 95.498658 
L 520.481978 92.205601 
L 520.045714 91.770731 
L 517.555938 88.912544 
L 516.754286 87.774964 
L 513.641472 85.619486 
L 513.462857 85.052753 
L 510.171429 83.782981 
L 509.403309 85.619486 
L 510.171429 86.387986 
L 512.46554 88.912544 
L 510.171429 90.566354 
L 508.532051 88.912544 
L 506.88 87.259675 
L 505.240623 85.619486 
L 506.88 82.814712 
L 508.259005 82.326429 
L 506.88 81.496306 
L 503.845702 79.033372 
L 503.588571 78.860828 
L 500.297143 76.000771 
L 500.036816 75.740315 
L 497.674956 72.447258 
L 497.005714 71.723839 
L 494.890684 69.154201 
L 493.714286 67.432936 
L 491.482267 65.861143 
L 490.422857 62.770839 
L 487.131429 62.819611 
L 486.834603 62.568086 
L 483.84 60.410899 
L 482.534905 59.275029 
L 480.548571 57.771619 
L 478.53162 55.981972 
L 477.257143 54.981542 
L 474.920812 52.688915 
L 473.965714 51.60463 
L 472.209484 49.395858 
L 470.674286 47.140516 
L 469.201959 46.1028 
L 467.802902 42.809743 
L 467.382857 42.377736 
L 464.091429 40.248991 
L 463.824189 42.809743 
L 460.8 44.486624 
L 459.127542 42.809743 
L 457.508571 41.189972 
L 455.836113 39.516686 
L 456.542807 36.223629 
L 454.217143 34.114555 
L 452.911571 32.930572 
L 450.925714 31.086603 
L 449.552704 29.637515 
L 447.634286 26.759333 
L 447.03487 26.344457 
L 445.176635 23.0514 
L 444.342857 22.011288 
L 441.498756 19.758343 
L 441.051429 18.799045 
L 437.76 17.766216 
L 437.100453 19.758343 
L 434.468571 21.446532 
L 432.781217 19.758343 
L 434.468571 16.8502 
L 435.940306 16.465286 
L 434.468571 15.70608 
L 431.27906 13.172229 
L 431.177143 13.108897 
L 427.885714 10.204261 
L 427.560786 9.879172 
L 424.594286 6.723272 
L 424.457196 6.586114 
L 421.751695 3.293057 
L 421.302857 2.838191 
L 418.605549 0 
L 418.017088 0 
L 421.046373 3.293057 
L 421.302857 3.530849 
L 423.741909 6.586114 
L 424.594286 7.438912 
L 426.888094 9.879172 
L 427.885714 10.877285 
L 430.469128 13.172229 
L 431.177143 13.880593 
L 434.133858 16.465286 
L 432.417473 19.758343 
L 434.468571 21.810456 
L 437.66781 19.758343 
L 437.76 19.479887 
L 438.609253 19.758343 
L 441.051429 21.064286 
L 444.342857 22.676447 
L 444.643429 23.0514 
L 445.898246 26.344457 
L 447.634286 27.546029 
L 449.028341 29.637515 
L 450.925714 31.640021 
L 452.315569 32.930572 
L 454.217143 34.655051 
L 455.946806 36.223629 
L 455.473322 39.516686 
L 457.508571 41.552942 
L 458.764751 42.809743 
L 460.8 44.850375 
L 464.091429 43.293316 
L 467.382857 43.904771 
L 468.119168 46.1028 
L 470.674286 47.903682 
L 471.690001 49.395858 
L 473.965714 52.257972 
L 474.345313 52.688915 
L 477.257143 55.546275 
L 477.812189 55.981972 
L 480.548571 58.409972 
L 481.691501 59.275029 
L 483.84 61.144944 
L 485.815604 62.568086 
L 483.84 63.421509 
L 481.809812 65.861143 
L 483.84 67.892336 
L 486.101961 65.861143 
L 487.131429 63.683094 
L 490.377598 65.861143 
L 490.422857 65.898012 
L 493.714286 68.206168 
L 494.362218 69.154201 
L 497.005714 72.365894 
L 497.080985 72.447258 
L 499.358425 75.740315 
L 500.297143 76.679497 
L 502.967921 79.033372 
L 503.588571 79.65433 
L 506.676861 82.326429 
L 504.870877 85.619486 
L 506.88 87.629603 
L 508.162306 88.912544 
L 510.171429 90.939355 
L 512.982954 88.912544 
L 513.462857 87.194661 
L 516.754286 88.602009 
L 516.97312 88.912544 
L 519.424755 92.205601 
L 520.045714 92.679332 
L 521.632864 95.498658 
L 523.337143 96.930903 
L 524.957059 98.791715 
L 526.628571 100.373656 
L 528.514666 102.084772 
L 527.91387 105.377829 
L 529.92 107.384952 
L 531.205298 108.670887 
L 530.821931 111.963944 
L 533.211429 114.354624 
L 535.225829 111.963944 
L 536.502857 109.550673 
L 539.757894 111.963944 
L 539.794286 112.000353 
L 539.957122 111.963944 
L 543.085714 111.231592 
L 543.494313 111.963944 
L 544.915239 115.257001 
L 546.377143 116.185539 
L 547.60549 118.550058 
L 549.668571 121.133768 
L 550.314941 121.843115 
L 552.96 124.232102 
L 554.078983 125.136172 
L 556.251429 127.076058 
L 557.969351 128.42923 
L 556.251429 129.430098 
L 554.254727 131.722287 
L 556.251429 133.719977 
L 557.546155 135.015344 
L 559.542857 137.003239 
L 561.52847 135.015344 
L 559.542857 132.891976 
L 558.373747 131.722287 
L 559.542857 129.814393 
L 562.044508 131.722287 
L 562.834286 132.410995 
L 566.125714 132.919681 
L 568.152071 135.015344 
L 569.417143 135.359662 
L 570.45732 138.308401 
L 572.708571 140.514046 
L 573.477793 141.601458 
L 575.60796 144.894515 
z
M 557.931598 135.015344 
L 556.251429 133.334343 
L 554.64017 131.722287 
L 556.251429 129.872582 
L 557.964055 131.722287 
L 559.542857 133.30187 
L 561.145168 135.015344 
L 559.542857 136.619496 
z
M 509.972417 85.619486 
L 510.171429 85.143667 
L 511.130466 85.619486 
L 510.171429 85.818597 
z
M 482.176123 65.861143 
L 483.84 63.861698 
L 485.693831 65.861143 
L 483.84 67.525844 
z
" clip-path="url(#p99311f447b)" style="fill: #eaf3fb; fill-opacity: 0.9"/>
    <path d="M 576 144.507055 
L 576 143.789689 
L 574.476614 141.601458 
L 572.708571 139.102061 
L 571.8985 138.308401 
L 570.675462 135.015344 
L 569.417143 133.722358 
L 567.424168 131.722287 
L 566.260684 128.42923 
L 566.125714 128.293967 
L 563.097869 125.136172 
L 562.834286 124.689021 
L 561.748206 125.136172 
L 559.861674 128.42923 
L 559.542857 128.477225 
L 559.488336 128.42923 
L 556.251429 125.879585 
L 555.418893 125.136172 
L 552.96 123.149535 
L 551.513547 121.843115 
L 549.668571 119.818379 
L 548.655822 118.550058 
L 547.231371 115.257001 
L 546.377143 114.403396 
L 544.626894 111.963944 
L 543.085714 109.201613 
L 542.24479 108.670887 
L 540.68307 105.377829 
L 539.794286 104.251965 
L 536.502857 102.838473 
L 533.211429 104.846446 
L 533.054546 105.377829 
L 533.211429 105.534789 
L 535.876398 108.670887 
L 534.465481 111.963944 
L 533.211429 113.452247 
L 531.723862 111.963944 
L 531.962525 108.670887 
L 529.92 106.627351 
L 528.671096 105.377829 
L 529.677624 102.084772 
L 526.628571 99.318589 
L 526.071865 98.791715 
L 523.337143 95.650315 
L 523.15668 95.498658 
L 521.153182 92.205601 
L 520.045714 91.101673 
L 518.138757 88.912544 
L 516.754286 86.94792 
L 514.835841 85.619486 
L 513.728384 82.326429 
L 513.462857 82.062416 
L 510.83202 82.326429 
L 510.171429 82.422295 
L 510.045559 82.326429 
L 506.88 80.420849 
L 505.170649 79.033372 
L 503.588571 77.971743 
L 500.946001 75.740315 
L 500.297143 75.236864 
L 498.268927 72.447258 
L 497.005714 71.081784 
L 495.419149 69.154201 
L 493.714286 66.659704 
L 492.580293 65.861143 
L 491.137418 62.568086 
L 490.422857 61.856661 
L 487.324673 59.275029 
L 487.131429 58.988281 
L 486.212541 59.275029 
L 483.84 59.676855 
L 483.378309 59.275029 
L 480.548571 57.133265 
L 479.251052 55.981972 
L 477.257143 54.416808 
L 475.496311 52.688915 
L 473.965714 50.951288 
L 472.728967 49.395858 
L 470.674286 46.37735 
L 470.284751 46.1028 
L 468.438153 42.809743 
L 467.382857 41.724394 
L 464.773638 39.516686 
L 464.091429 38.218776 
L 460.8 38.679453 
L 460.681578 39.516686 
L 460.8 39.635167 
L 463.168179 42.809743 
L 460.8 44.122874 
L 459.490333 42.809743 
L 457.508571 40.827001 
L 456.198905 39.516686 
L 457.138809 36.223629 
L 454.217143 33.574059 
L 453.507573 32.930572 
L 450.925714 30.533186 
L 450.077067 29.637515 
L 448.01612 26.344457 
L 447.634286 25.963154 
L 445.709842 23.0514 
L 444.342857 21.34613 
L 442.338447 19.758343 
L 441.051429 16.998319 
L 439.236629 16.465286 
L 437.76 14.995333 
L 434.468571 14.469559 
L 432.835543 13.172229 
L 431.177143 12.141684 
L 428.481468 9.879172 
L 427.885714 9.468575 
L 425.193847 6.586114 
L 424.594286 5.989376 
L 422.362685 3.293057 
L 421.302857 2.218994 
L 419.19401 0 
L 418.605549 0 
L 421.302857 2.838191 
L 421.751695 3.293057 
L 424.457196 6.586114 
L 424.594286 6.723272 
L 427.560786 9.879172 
L 427.885714 10.204261 
L 431.177143 13.108897 
L 431.27906 13.172229 
L 434.468571 15.70608 
L 435.940306 16.465286 
L 434.468571 16.8502 
L 432.781217 19.758343 
L 434.468571 21.446532 
L 437.100453 19.758343 
L 437.76 17.766216 
L 441.051429 18.799045 
L 441.498756 19.758343 
L 444.342857 22.011288 
L 445.176635 23.0514 
L 447.03487 26.344457 
L 447.634286 26.759333 
L 449.552704 29.637515 
L 450.925714 31.086603 
L 452.911571 32.930572 
L 454.217143 34.114555 
L 456.542807 36.223629 
L 455.836113 39.516686 
L 457.508571 41.189972 
L 459.127542 42.809743 
L 460.8 44.486624 
L 463.824189 42.809743 
L 464.091429 40.248991 
L 467.382857 42.377736 
L 467.802902 42.809743 
L 469.201959 46.1028 
L 470.674286 47.140516 
L 472.209484 49.395858 
L 473.965714 51.60463 
L 474.920812 52.688915 
L 477.257143 54.981542 
L 478.53162 55.981972 
L 480.548571 57.771619 
L 482.534905 59.275029 
L 483.84 60.410899 
L 486.834603 62.568086 
L 487.131429 62.819611 
L 490.422857 62.770839 
L 491.482267 65.861143 
L 493.714286 67.432936 
L 494.890684 69.154201 
L 497.005714 71.723839 
L 497.674956 72.447258 
L 500.036816 75.740315 
L 500.297143 76.000771 
L 503.588571 78.860828 
L 503.845702 79.033372 
L 506.88 81.496306 
L 508.259005 82.326429 
L 506.88 82.814712 
L 505.240623 85.619486 
L 506.88 87.259675 
L 508.532051 88.912544 
L 510.171429 90.566354 
L 512.46554 88.912544 
L 510.171429 86.387986 
L 509.403309 85.619486 
L 510.171429 83.782981 
L 513.462857 85.052753 
L 513.641472 85.619486 
L 516.754286 87.774964 
L 517.555938 88.912544 
L 520.045714 91.770731 
L 520.481978 92.205601 
L 522.394772 95.498658 
L 523.337143 96.290609 
L 525.514462 98.791715 
L 526.628571 99.846122 
L 529.096145 102.084772 
L 528.292483 105.377829 
L 529.92 107.006152 
L 531.583912 108.670887 
L 531.272896 111.963944 
L 533.211429 113.903435 
L 534.845655 111.963944 
L 536.502857 108.832237 
L 537.49069 108.670887 
L 539.347318 105.377829 
L 539.794286 105.27073 
L 539.878832 105.377829 
L 540.63656 108.670887 
L 543.085714 110.216602 
L 544.060604 111.963944 
L 546.377143 115.192677 
L 546.441513 115.257001 
L 548.130656 118.550058 
L 549.668571 120.476073 
L 550.914244 121.843115 
L 552.96 123.690818 
L 554.748938 125.136172 
L 556.251429 126.477821 
L 558.728843 128.42923 
L 559.542857 129.145809 
L 562.834286 130.962945 
L 566.125714 130.105984 
L 566.720681 131.722287 
L 569.417143 134.42835 
L 569.988399 135.015344 
L 571.17791 138.308401 
L 572.708571 139.808054 
L 573.977204 141.601458 
z
M 508.901797 88.912544 
L 510.171429 86.957376 
L 511.948125 88.912544 
L 510.171429 90.193353 
z
M 505.610368 85.619486 
L 506.88 83.447302 
L 508.834201 85.619486 
L 506.88 86.889746 
z
M 433.144962 19.758343 
L 434.468571 17.477111 
L 436.533096 19.758343 
L 434.468571 21.082608 
z
M 559.542857 136.619496 
L 561.145168 135.015344 
L 559.542857 133.30187 
L 557.964055 131.722287 
L 556.251429 129.872582 
L 554.64017 131.722287 
L 556.251429 133.334343 
L 557.931598 135.015344 
z
M 558.317041 135.015344 
L 559.542857 133.711765 
L 560.761865 135.015344 
L 559.542857 136.235754 
z
M 555.025612 131.722287 
L 556.251429 130.315065 
L 557.554363 131.722287 
L 556.251429 132.94871 
z
M 483.84 67.525844 
L 485.693831 65.861143 
L 483.84 63.861698 
L 482.176123 65.861143 
z
M 482.542434 65.861143 
L 483.84 64.301886 
L 485.2857 65.861143 
L 483.84 67.159352 
z
" clip-path="url(#p99311f447b)" style="fill: #e5eff9; fill-opacity: 0.9"/>
    <path d="M 576 143.789689 
L 576 143.072323 
L 574.976025 141.601458 
L 572.708571 138.396069 
L 572.619091 138.308401 
L 571.362526 135.015344 
L 569.417143 133.016365 
L 568.127656 131.722287 
L 567.361306 128.42923 
L 566.125714 127.190955 
L 564.15549 125.136172 
L 562.834286 122.894838 
L 559.896421 121.843115 
L 559.542857 121.287133 
L 559.233329 121.843115 
L 557.335775 125.136172 
L 556.251429 125.281349 
L 556.088848 125.136172 
L 552.96 122.608252 
L 552.11285 121.843115 
L 549.668571 119.160685 
L 549.180989 118.550058 
L 548.021229 115.257001 
L 546.377143 113.614115 
L 545.193185 111.963944 
L 543.72428 108.670887 
L 543.085714 108.033396 
L 541.487307 105.377829 
L 539.794286 103.233199 
L 537.965663 102.084772 
L 537.180736 98.791715 
L 536.502857 98.120541 
L 534.441189 98.791715 
L 533.211429 101.006212 
L 529.92 100.905315 
L 526.632503 98.791715 
L 526.628571 98.789872 
L 524.175755 95.498658 
L 523.337143 94.665669 
L 521.824386 92.205601 
L 520.045714 90.432615 
L 518.721576 88.912544 
L 516.754286 86.120875 
L 516.03021 85.619486 
L 514.674709 82.326429 
L 513.462857 81.121485 
L 510.744128 79.033372 
L 510.171429 78.403264 
L 508.140473 79.033372 
L 506.88 79.345392 
L 506.495596 79.033372 
L 503.588571 77.082658 
L 501.998901 75.740315 
L 500.297143 74.419916 
L 498.862899 72.447258 
L 497.005714 70.43973 
L 495.947615 69.154201 
L 493.714286 65.886472 
L 493.678318 65.861143 
L 491.900269 62.568086 
L 490.422857 61.097158 
L 488.236143 59.275029 
L 487.131429 57.635783 
L 483.84 56.315664 
L 480.548571 56.494912 
L 479.970483 55.981972 
L 477.257143 53.852074 
L 476.071811 52.688915 
L 473.965714 50.297946 
L 473.248449 49.395858 
L 471.343288 46.1028 
L 470.674286 45.435662 
L 469.073403 42.809743 
L 467.382857 41.071052 
L 465.545802 39.516686 
L 464.091429 36.749727 
L 462.86731 36.223629 
L 460.915228 32.930572 
L 460.8 32.816103 
L 460.405639 32.930572 
L 457.508571 35.03021 
L 454.217143 33.033563 
L 454.103574 32.930572 
L 450.925714 29.979768 
L 450.60143 29.637515 
L 448.824003 26.344457 
L 447.634286 25.156393 
L 446.243049 23.0514 
L 444.342857 20.680972 
L 443.178138 19.758343 
L 441.753161 16.465286 
L 441.051429 15.766011 
L 438.456812 13.172229 
L 437.76 12.363912 
L 434.684259 13.172229 
L 434.468571 13.233038 
L 434.392027 13.172229 
L 431.177143 11.17447 
L 429.633856 9.879172 
L 427.885714 8.674341 
L 425.935564 6.586114 
L 424.594286 5.251151 
L 422.973675 3.293057 
L 421.302857 1.599797 
L 419.782471 0 
L 419.19401 0 
L 421.302857 2.218994 
L 422.362685 3.293057 
L 424.594286 5.989376 
L 425.193847 6.586114 
L 427.885714 9.468575 
L 428.481468 9.879172 
L 431.177143 12.141684 
L 432.835543 13.172229 
L 434.468571 14.469559 
L 437.76 14.995333 
L 439.236629 16.465286 
L 441.051429 16.998319 
L 442.338447 19.758343 
L 444.342857 21.34613 
L 445.709842 23.0514 
L 447.634286 25.963154 
L 448.01612 26.344457 
L 450.077067 29.637515 
L 450.925714 30.533186 
L 453.507573 32.930572 
L 454.217143 33.574059 
L 457.138809 36.223629 
L 456.198905 39.516686 
L 457.508571 40.827001 
L 459.490333 42.809743 
L 460.8 44.122874 
L 463.168179 42.809743 
L 460.8 39.635167 
L 460.681578 39.516686 
L 460.8 38.679453 
L 464.091429 38.218776 
L 464.773638 39.516686 
L 467.382857 41.724394 
L 468.438153 42.809743 
L 470.284751 46.1028 
L 470.674286 46.37735 
L 472.728967 49.395858 
L 473.965714 50.951288 
L 475.496311 52.688915 
L 477.257143 54.416808 
L 479.251052 55.981972 
L 480.548571 57.133265 
L 483.378309 59.275029 
L 483.84 59.676855 
L 486.212541 59.275029 
L 487.131429 58.988281 
L 487.324673 59.275029 
L 490.422857 61.856661 
L 491.137418 62.568086 
L 492.580293 65.861143 
L 493.714286 66.659704 
L 495.419149 69.154201 
L 497.005714 71.081784 
L 498.268927 72.447258 
L 500.297143 75.236864 
L 500.946001 75.740315 
L 503.588571 77.971743 
L 505.170649 79.033372 
L 506.88 80.420849 
L 510.045559 82.326429 
L 510.171429 82.422295 
L 510.83202 82.326429 
L 513.462857 82.062416 
L 513.728384 82.326429 
L 514.835841 85.619486 
L 516.754286 86.94792 
L 518.138757 88.912544 
L 520.045714 91.101673 
L 521.153182 92.205601 
L 523.15668 95.498658 
L 523.337143 95.650315 
L 526.071865 98.791715 
L 526.628571 99.318589 
L 529.677624 102.084772 
L 528.671096 105.377829 
L 529.92 106.627351 
L 531.962525 108.670887 
L 531.723862 111.963944 
L 533.211429 113.452247 
L 534.465481 111.963944 
L 535.876398 108.670887 
L 533.211429 105.534789 
L 533.054546 105.377829 
L 533.211429 104.846446 
L 536.502857 102.838473 
L 539.794286 104.251965 
L 540.68307 105.377829 
L 542.24479 108.670887 
L 543.085714 109.201613 
L 544.626894 111.963944 
L 546.377143 114.403396 
L 547.231371 115.257001 
L 548.655822 118.550058 
L 549.668571 119.818379 
L 551.513547 121.843115 
L 552.96 123.149535 
L 555.418893 125.136172 
L 556.251429 125.879585 
L 559.488336 128.42923 
L 559.542857 128.477225 
L 559.861674 128.42923 
L 561.748206 125.136172 
L 562.834286 124.689021 
L 563.097869 125.136172 
L 566.125714 128.293967 
L 566.260684 128.42923 
L 567.424168 131.722287 
L 569.417143 133.722358 
L 570.675462 135.015344 
L 571.8985 138.308401 
L 572.708571 139.102061 
L 574.476614 141.601458 
z
M 532.174827 111.963944 
L 532.341138 108.670887 
L 533.211429 106.485517 
L 535.068496 108.670887 
L 534.085307 111.963944 
L 533.211429 113.001058 
z
M 529.049709 105.377829 
L 529.92 102.751168 
L 532.104289 105.377829 
L 529.92 106.248551 
z
M 459.853125 42.809743 
L 460.8 40.514557 
L 462.512169 42.809743 
L 460.8 43.759123 
z
M 456.561696 39.516686 
L 457.508571 36.641759 
L 459.802622 39.516686 
L 457.508571 40.46403 
z
M 559.542857 136.235754 
L 560.761865 135.015344 
L 559.542857 133.711765 
L 558.317041 135.015344 
z
M 558.702484 135.015344 
L 559.542857 134.121659 
L 560.378563 135.015344 
L 559.542857 135.852011 
z
M 556.251429 132.94871 
L 557.554363 131.722287 
L 556.251429 130.315065 
L 555.025612 131.722287 
z
M 555.411055 131.722287 
L 556.251429 130.757549 
L 557.144672 131.722287 
L 556.251429 132.563076 
z
M 510.171429 90.193353 
L 511.948125 88.912544 
L 510.171429 86.957376 
L 508.901797 88.912544 
z
M 509.271543 88.912544 
L 510.171429 87.526765 
L 511.430711 88.912544 
L 510.171429 89.820352 
z
M 506.88 86.889746 
L 508.834201 85.619486 
L 506.88 83.447302 
L 505.610368 85.619486 
z
M 505.980114 85.619486 
L 506.88 84.079892 
L 508.265093 85.619486 
L 506.88 86.519818 
z
M 483.84 67.159352 
L 485.2857 65.861143 
L 483.84 64.301886 
L 482.542434 65.861143 
z
M 482.908745 65.861143 
L 483.84 64.742074 
L 484.87757 65.861143 
L 483.84 66.792859 
z
M 434.468571 21.082608 
L 436.533096 19.758343 
L 434.468571 17.477111 
L 433.144962 19.758343 
z
M 433.508706 19.758343 
L 434.468571 18.104022 
L 435.965739 19.758343 
L 434.468571 20.718683 
z
" clip-path="url(#p99311f447b)" style="fill: #dfecf7; fill-opacity: 0.9"/>
    <path d="M 576 143.072323 
L 576 142.354957 
L 575.475435 141.601458 
L 574.280588 138.308401 
L 572.708571 136.736622 
L 572.04959 135.015344 
L 569.417143 132.310373 
L 568.831144 131.722287 
L 568.461928 128.42923 
L 566.125714 126.087943 
L 565.213111 125.136172 
L 563.978418 121.843115 
L 562.834286 120.693766 
L 561.050957 118.550058 
L 559.542857 117.03379 
L 556.706966 118.550058 
L 556.251429 119.362002 
L 554.814638 121.843115 
L 552.96 122.066968 
L 552.712152 121.843115 
L 549.924031 118.550058 
L 549.668571 118.346403 
L 548.811086 115.257001 
L 546.377143 112.824834 
L 545.759475 111.963944 
L 545.062677 108.670887 
L 543.085714 106.697249 
L 542.291545 105.377829 
L 539.794286 102.214433 
L 539.587828 102.084772 
L 538.567796 98.791715 
L 536.502857 96.747201 
L 533.997722 95.498658 
L 533.211429 93.223658 
L 531.991049 95.498658 
L 530.116782 98.791715 
L 529.92 98.88283 
L 529.778279 98.791715 
L 526.628571 97.315368 
L 525.274647 95.498658 
L 523.337143 93.574147 
L 522.49559 92.205601 
L 520.045714 89.763556 
L 519.304395 88.912544 
L 517.575022 85.619486 
L 516.754286 84.80463 
L 515.621035 82.326429 
L 513.462857 80.180553 
L 511.969224 79.033372 
L 510.171429 77.055363 
L 507.533178 75.740315 
L 506.88 73.996527 
L 505.82186 75.740315 
L 503.588571 76.193572 
L 503.051801 75.740315 
L 500.297143 73.602969 
L 499.45687 72.447258 
L 497.005714 69.797675 
L 496.47608 69.154201 
L 495.078977 65.861143 
L 493.714286 64.502963 
L 492.663119 62.568086 
L 490.422857 60.337654 
L 489.147614 59.275029 
L 487.131429 56.283285 
L 486.505636 55.981972 
L 484.680007 52.688915 
L 483.84 51.858223 
L 481.871632 52.688915 
L 480.548571 54.704231 
L 477.257143 53.28734 
L 476.64731 52.688915 
L 473.965714 49.644604 
L 473.767932 49.395858 
L 472.388197 46.1028 
L 470.674286 44.393664 
L 469.708654 42.809743 
L 467.382857 40.41771 
L 466.317966 39.516686 
L 465.083045 36.223629 
L 464.091429 35.239457 
L 462.182738 32.930572 
L 460.8 31.556951 
L 457.508571 30.828673 
L 454.217143 31.407332 
L 451.875676 29.637515 
L 450.925714 29.003893 
L 449.631886 26.344457 
L 447.634286 24.349632 
L 446.776255 23.0514 
L 444.342857 20.015813 
L 444.017829 19.758343 
L 442.749954 16.465286 
L 441.051429 14.772707 
L 439.450435 13.172229 
L 437.76 11.211289 
L 435.325624 9.879172 
L 434.468571 7.384224 
L 432.67357 9.879172 
L 431.177143 10.207257 
L 430.786244 9.879172 
L 427.885714 7.880108 
L 426.677282 6.586114 
L 424.594286 4.512926 
L 423.584664 3.293057 
L 421.302857 0.9806 
L 420.370932 0 
L 419.782471 0 
L 421.302857 1.599797 
L 422.973675 3.293057 
L 424.594286 5.251151 
L 425.935564 6.586114 
L 427.885714 8.674341 
L 429.633856 9.879172 
L 431.177143 11.17447 
L 434.392027 13.172229 
L 434.468571 13.233038 
L 434.684259 13.172229 
L 437.76 12.363912 
L 438.456812 13.172229 
L 441.051429 15.766011 
L 441.753161 16.465286 
L 443.178138 19.758343 
L 444.342857 20.680972 
L 446.243049 23.0514 
L 447.634286 25.156393 
L 448.824003 26.344457 
L 450.60143 29.637515 
L 450.925714 29.979768 
L 454.103574 32.930572 
L 454.217143 33.033563 
L 457.508571 35.03021 
L 460.405639 32.930572 
L 460.8 32.816103 
L 460.915228 32.930572 
L 462.86731 36.223629 
L 464.091429 36.749727 
L 465.545802 39.516686 
L 467.382857 41.071052 
L 469.073403 42.809743 
L 470.674286 45.435662 
L 471.343288 46.1028 
L 473.248449 49.395858 
L 473.965714 50.297946 
L 476.071811 52.688915 
L 477.257143 53.852074 
L 479.970483 55.981972 
L 480.548571 56.494912 
L 483.84 56.315664 
L 487.131429 57.635783 
L 488.236143 59.275029 
L 490.422857 61.097158 
L 491.900269 62.568086 
L 493.678318 65.861143 
L 493.714286 65.886472 
L 495.947615 69.154201 
L 497.005714 70.43973 
L 498.862899 72.447258 
L 500.297143 74.419916 
L 501.998901 75.740315 
L 503.588571 77.082658 
L 506.495596 79.033372 
L 506.88 79.345392 
L 508.140473 79.033372 
L 510.171429 78.403264 
L 510.744128 79.033372 
L 513.462857 81.121485 
L 514.674709 82.326429 
L 516.03021 85.619486 
L 516.754286 86.120875 
L 518.721576 88.912544 
L 520.045714 90.432615 
L 521.824386 92.205601 
L 523.337143 94.665669 
L 524.175755 95.498658 
L 526.628571 98.789872 
L 526.632503 98.791715 
L 529.92 100.905315 
L 533.211429 101.006212 
L 534.441189 98.791715 
L 536.502857 98.120541 
L 537.180736 98.791715 
L 537.965663 102.084772 
L 539.794286 103.233199 
L 541.487307 105.377829 
L 543.085714 108.033396 
L 543.72428 108.670887 
L 545.193185 111.963944 
L 546.377143 113.614115 
L 548.021229 115.257001 
L 549.180989 118.550058 
L 549.668571 119.160685 
L 552.11285 121.843115 
L 552.96 122.608252 
L 556.088848 125.136172 
L 556.251429 125.281349 
L 557.335775 125.136172 
L 559.233329 121.843115 
L 559.542857 121.287133 
L 559.896421 121.843115 
L 562.834286 122.894838 
L 564.15549 125.136172 
L 566.125714 127.190955 
L 567.361306 128.42923 
L 568.127656 131.722287 
L 569.417143 133.016365 
L 571.362526 135.015344 
L 572.619091 138.308401 
L 572.708571 138.396069 
L 574.976025 141.601458 
z
M 559.542857 135.852011 
L 560.378563 135.015344 
L 559.542857 134.121659 
L 558.702484 135.015344 
z
M 559.087926 135.015344 
L 559.542857 134.531553 
L 559.995261 135.015344 
L 559.542857 135.468268 
z
M 556.251429 132.563076 
L 557.144672 131.722287 
L 556.251429 130.757549 
L 555.411055 131.722287 
z
M 555.796498 131.722287 
L 556.251429 131.200032 
L 556.73498 131.722287 
L 556.251429 132.177443 
z
M 533.211429 113.001058 
L 534.085307 111.963944 
L 535.068496 108.670887 
L 533.211429 106.485517 
L 532.341138 108.670887 
L 532.174827 111.963944 
z
M 532.625792 111.963944 
L 532.719751 108.670887 
L 533.211429 107.436245 
L 534.260593 108.670887 
L 533.705133 111.963944 
L 533.211429 112.54987 
z
M 529.92 106.248551 
L 532.104289 105.377829 
L 529.92 102.751168 
L 529.049709 105.377829 
z
M 529.428322 105.377829 
L 529.92 103.893877 
L 531.154031 105.377829 
L 529.92 105.86975 
z
M 510.171429 89.820352 
L 511.430711 88.912544 
L 510.171429 87.526765 
L 509.271543 88.912544 
z
M 509.641288 88.912544 
L 510.171429 88.096155 
L 510.913296 88.912544 
L 510.171429 89.447351 
z
M 506.88 86.519818 
L 508.265093 85.619486 
L 506.88 84.079892 
L 505.980114 85.619486 
z
M 506.34986 85.619486 
L 506.88 84.712481 
L 507.695985 85.619486 
L 506.88 86.149889 
z
M 483.84 66.792859 
L 484.87757 65.861143 
L 483.84 64.742074 
L 482.908745 65.861143 
z
M 483.275056 65.861143 
L 483.84 65.182262 
L 484.46944 65.861143 
L 483.84 66.426367 
z
M 460.8 43.759123 
L 462.512169 42.809743 
L 460.8 40.514557 
L 459.853125 42.809743 
z
M 460.215916 42.809743 
L 460.8 41.393948 
L 461.856159 42.809743 
L 460.8 43.395372 
z
M 457.508571 40.46403 
L 459.802622 39.516686 
L 457.508571 36.641759 
L 456.561696 39.516686 
z
M 456.924487 39.516686 
L 457.508571 37.743275 
L 458.923667 39.516686 
L 457.508571 40.101059 
z
M 434.468571 20.718683 
L 435.965739 19.758343 
L 434.468571 18.104022 
L 433.508706 19.758343 
z
M 433.872451 19.758343 
L 434.468571 18.730933 
L 435.398382 19.758343 
L 434.468571 20.354759 
z
" clip-path="url(#p99311f447b)" style="fill: #dae8f6; fill-opacity: 0.9"/>
    <path d="M 576 142.354957 
L 576 141.637591 
L 575.974846 141.601458 
L 576 139.806888 
L 576 138.308401 
L 576 135.015344 
L 576 131.722287 
L 576 128.42923 
L 576 125.136172 
L 576 121.843115 
L 576 118.550058 
L 576 115.257001 
L 576 111.963944 
L 576 108.670887 
L 576 105.377829 
L 576 102.084772 
L 576 98.791715 
L 576 95.498658 
L 576 92.205601 
L 576 91.059756 
L 572.708571 89.263179 
L 572.359655 88.912544 
L 569.647158 85.619486 
L 569.417143 85.468799 
L 566.281969 82.326429 
L 566.125714 82.114551 
L 563.083203 79.033372 
L 562.834286 78.462156 
L 560.280167 75.740315 
L 559.542857 74.9988 
L 557.955544 72.447258 
L 556.251429 70.680483 
L 554.81939 69.154201 
L 552.96 67.221974 
L 550.887827 65.861143 
L 549.668571 64.700788 
L 547.632202 62.568086 
L 546.377143 61.098827 
L 545.098339 59.275029 
L 543.085714 57.184717 
L 542.501685 55.981972 
L 539.794286 53.166309 
L 539.435425 52.688915 
L 536.502857 49.62631 
L 536.223455 49.395858 
L 534.622745 46.1028 
L 533.211429 44.595854 
L 531.012662 42.809743 
L 529.92 41.617844 
L 526.979697 39.516686 
L 526.628571 39.132332 
L 523.981243 36.223629 
L 523.337143 35.539656 
L 522.117056 32.930572 
L 520.045714 30.79503 
L 519.352835 29.637515 
L 516.754286 26.896387 
L 516.202314 26.344457 
L 514.023712 23.0514 
L 513.462857 22.444506 
L 511.391736 19.758343 
L 510.171429 18.437687 
L 507.561896 16.465286 
L 506.88 15.613201 
L 503.588571 13.172637 
L 503.588289 13.172229 
L 501.860145 9.879172 
L 500.297143 8.262028 
L 499.343398 6.586114 
L 497.005714 4.128748 
L 496.333545 3.293057 
L 493.77008 0 
L 493.714286 0 
L 490.422857 0 
L 487.131429 0 
L 483.84 0 
L 480.548571 0 
L 477.257143 0 
L 473.965714 0 
L 470.674286 0 
L 467.382857 0 
L 464.091429 0 
L 460.8 0 
L 457.508571 0 
L 454.217143 0 
L 452.81067 0 
L 454.217143 1.549473 
L 455.759304 3.293057 
L 457.508571 5.435476 
L 458.545195 6.586114 
L 460.8 9.318386 
L 461.240264 9.879172 
L 464.091429 13.056609 
L 464.185314 13.172229 
L 466.815388 16.465286 
L 467.382857 17.180417 
L 469.537986 19.758343 
L 470.674286 21.210498 
L 472.002536 23.0514 
L 473.965714 25.294283 
L 474.805488 26.344457 
L 477.257143 29.004529 
L 477.845825 29.637515 
L 480.258668 32.930572 
L 480.548571 33.251278 
L 483.254613 36.223629 
L 483.84 36.871701 
L 486.159667 39.516686 
L 487.131429 40.680729 
L 488.905258 42.809743 
L 490.422857 44.708538 
L 491.536668 46.1028 
L 493.714286 48.827065 
L 494.14126 49.395858 
L 497.005714 52.540415 
L 497.13324 52.688915 
L 500.040697 55.981972 
L 500.297143 56.290684 
L 502.527775 59.275029 
L 503.588571 60.438292 
L 505.560477 62.568086 
L 506.88 64.017196 
L 508.486643 65.861143 
L 510.171429 67.855745 
L 511.292644 69.154201 
L 513.462857 71.808395 
L 513.992833 72.447258 
L 516.671389 75.740315 
L 516.754286 75.829809 
L 519.697317 79.033372 
L 520.045714 79.461583 
L 522.671359 82.326429 
L 523.337143 83.117839 
L 525.287741 85.619486 
L 526.628571 87.067575 
L 528.363728 88.912544 
L 528.782666 92.205601 
L 527.650042 95.498658 
L 526.628571 95.840865 
L 526.373538 95.498658 
L 523.337143 92.482625 
L 523.166794 92.205601 
L 520.045714 89.094498 
L 519.887213 88.912544 
L 519.659385 85.619486 
L 516.754286 82.735199 
L 516.56736 82.326429 
L 513.462857 79.239622 
L 513.19432 79.033372 
L 510.703517 75.740315 
L 510.171429 75.265789 
L 509.65916 72.447258 
L 506.88 69.730025 
L 503.588571 72.25567 
L 503.461702 72.447258 
L 500.297143 72.786021 
L 500.050841 72.447258 
L 497.005714 69.15562 
L 497.004546 69.154201 
L 496.489884 65.861143 
L 493.714286 63.098788 
L 493.42597 62.568086 
L 490.422857 59.578151 
L 490.059084 59.275029 
L 489.448881 55.981972 
L 487.131429 53.702061 
L 486.502111 52.688915 
L 483.84 50.056326 
L 481.702827 49.395858 
L 480.548571 48.282756 
L 479.617455 49.395858 
L 477.519034 52.688915 
L 477.257143 52.722606 
L 477.222809 52.688915 
L 475.783839 49.395858 
L 473.965714 47.589556 
L 473.433105 46.1028 
L 470.674286 43.351666 
L 470.343904 42.809743 
L 467.382857 39.764368 
L 467.09013 39.516686 
L 466.627911 36.223629 
L 464.091429 33.706189 
L 463.450247 32.930572 
L 460.8 30.297798 
L 459.508241 29.637515 
L 458.78139 26.344457 
L 457.508571 25.100878 
L 456.226235 26.344457 
L 454.217143 29.265526 
L 450.925714 27.343306 
L 450.43977 26.344457 
L 447.634286 23.542871 
L 447.309462 23.0514 
L 446.016158 19.758343 
L 444.342857 18.091566 
L 443.746747 16.465286 
L 441.051429 13.779404 
L 440.444058 13.172229 
L 437.76 10.058665 
L 437.431984 9.879172 
L 436.416273 6.586114 
L 434.468571 4.654845 
L 431.177143 5.892548 
L 430.675013 6.586114 
L 427.885714 7.085875 
L 427.418999 6.586114 
L 424.594286 3.774701 
L 424.195654 3.293057 
L 421.302857 0.361403 
L 420.959393 0 
L 420.370932 0 
L 421.302857 0.9806 
L 423.584664 3.293057 
L 424.594286 4.512926 
L 426.677282 6.586114 
L 427.885714 7.880108 
L 430.786244 9.879172 
L 431.177143 10.207257 
L 432.67357 9.879172 
L 434.468571 7.384224 
L 435.325624 9.879172 
L 437.76 11.211289 
L 439.450435 13.172229 
L 441.051429 14.772707 
L 442.749954 16.465286 
L 444.017829 19.758343 
L 444.342857 20.015813 
L 446.776255 23.0514 
L 447.634286 24.349632 
L 449.631886 26.344457 
L 450.925714 29.003893 
L 451.875676 29.637515 
L 454.217143 31.407332 
L 457.508571 30.828673 
L 460.8 31.556951 
L 462.182738 32.930572 
L 464.091429 35.239457 
L 465.083045 36.223629 
L 466.317966 39.516686 
L 467.382857 40.41771 
L 469.708654 42.809743 
L 470.674286 44.393664 
L 472.388197 46.1028 
L 473.767932 49.395858 
L 473.965714 49.644604 
L 476.64731 52.688915 
L 477.257143 53.28734 
L 480.548571 54.704231 
L 481.871632 52.688915 
L 483.84 51.858223 
L 484.680007 52.688915 
L 486.505636 55.981972 
L 487.131429 56.283285 
L 489.147614 59.275029 
L 490.422857 60.337654 
L 492.663119 62.568086 
L 493.714286 64.502963 
L 495.078977 65.861143 
L 496.47608 69.154201 
L 497.005714 69.797675 
L 499.45687 72.447258 
L 500.297143 73.602969 
L 503.051801 75.740315 
L 503.588571 76.193572 
L 505.82186 75.740315 
L 506.88 73.996527 
L 507.533178 75.740315 
L 510.171429 77.055363 
L 511.969224 79.033372 
L 513.462857 80.180553 
L 515.621035 82.326429 
L 516.754286 84.80463 
L 517.575022 85.619486 
L 519.304395 88.912544 
L 520.045714 89.763556 
L 522.49559 92.205601 
L 523.337143 93.574147 
L 525.274647 95.498658 
L 526.628571 97.315368 
L 529.778279 98.791715 
L 529.92 98.88283 
L 530.116782 98.791715 
L 531.991049 95.498658 
L 533.211429 93.223658 
L 533.997722 95.498658 
L 536.502857 96.747201 
L 538.567796 98.791715 
L 539.587828 102.084772 
L 539.794286 102.214433 
L 542.291545 105.377829 
L 543.085714 106.697249 
L 545.062677 108.670887 
L 545.759475 111.963944 
L 546.377143 112.824834 
L 548.811086 115.257001 
L 549.668571 118.346403 
L 549.924031 118.550058 
L 552.712152 121.843115 
L 552.96 122.066968 
L 554.814638 121.843115 
L 556.251429 119.362002 
L 556.706966 118.550058 
L 559.542857 117.03379 
L 561.050957 118.550058 
L 562.834286 120.693766 
L 563.978418 121.843115 
L 565.213111 125.136172 
L 566.125714 126.087943 
L 568.461928 128.42923 
L 568.831144 131.722287 
L 569.417143 132.310373 
L 572.04959 135.015344 
L 572.708571 136.736622 
L 574.280588 138.308401 
L 575.475435 141.601458 
z
M 549.600944 115.257001 
L 549.668571 112.29596 
L 552.711463 115.257001 
L 549.668571 115.500654 
z
M 546.325765 111.963944 
L 546.377143 109.213057 
L 549.353611 111.963944 
L 546.377143 112.035553 
z
M 559.542857 135.468268 
L 559.995261 135.015344 
L 559.542857 134.531553 
L 559.087926 135.015344 
z
M 559.473369 135.015344 
L 559.542857 134.941448 
L 559.611959 135.015344 
L 559.542857 135.084525 
z
M 556.251429 132.177443 
L 556.73498 131.722287 
L 556.251429 131.200032 
L 555.796498 131.722287 
z
M 556.181941 131.722287 
L 556.251429 131.642516 
L 556.325288 131.722287 
L 556.251429 131.791809 
z
M 533.211429 112.54987 
L 533.705133 111.963944 
L 534.260593 108.670887 
L 533.211429 107.436245 
L 532.719751 108.670887 
L 532.625792 111.963944 
z
M 533.076758 111.963944 
L 533.098364 108.670887 
L 533.211429 108.386973 
L 533.452691 108.670887 
L 533.324959 111.963944 
L 533.211429 112.098681 
z
M 529.92 105.86975 
L 531.154031 105.377829 
L 529.92 103.893877 
L 529.428322 105.377829 
z
M 529.806936 105.377829 
L 529.92 105.036585 
L 530.203773 105.377829 
L 529.92 105.49095 
z
M 510.171429 89.447351 
L 510.913296 88.912544 
L 510.171429 88.096155 
L 509.641288 88.912544 
z
M 510.011034 88.912544 
L 510.171429 88.665544 
L 510.395882 88.912544 
L 510.171429 89.07435 
z
M 506.88 86.149889 
L 507.695985 85.619486 
L 506.88 84.712481 
L 506.34986 85.619486 
z
M 506.719605 85.619486 
L 506.88 85.345071 
L 507.126877 85.619486 
L 506.88 85.77996 
z
M 483.84 66.426367 
L 484.46944 65.861143 
L 483.84 65.182262 
L 483.275056 65.861143 
z
M 483.641367 65.861143 
L 483.84 65.62245 
L 484.06131 65.861143 
L 483.84 66.059875 
z
M 460.8 43.395372 
L 461.856159 42.809743 
L 460.8 41.393948 
L 460.215916 42.809743 
z
M 460.578707 42.809743 
L 460.8 42.273338 
L 461.200149 42.809743 
L 460.8 43.031622 
z
M 457.508571 40.101059 
L 458.923667 39.516686 
L 457.508571 37.743275 
L 456.924487 39.516686 
z
M 457.287278 39.516686 
L 457.508571 38.844791 
L 458.044711 39.516686 
L 457.508571 39.738089 
z
M 434.468571 20.354759 
L 435.398382 19.758343 
L 434.468571 18.730933 
L 433.872451 19.758343 
z
M 434.236195 19.758343 
L 434.468571 19.357844 
L 434.831025 19.758343 
L 434.468571 19.990835 
z
" clip-path="url(#p99311f447b)" style="fill: #d6e5f4; fill-opacity: 0.9"/>
    <path d="M 576 141.637591 
L 576 141.601458 
L 576 139.806888 
L 575.974846 141.601458 
z
M 559.542857 135.084525 
L 559.611959 135.015344 
L 559.542857 134.941448 
L 559.473369 135.015344 
z
M 556.251429 131.791809 
L 556.325288 131.722287 
L 556.251429 131.642516 
L 556.181941 131.722287 
z
M 549.668571 115.500654 
L 552.711463 115.257001 
L 549.668571 112.29596 
L 549.600944 115.257001 
z
M 533.211429 112.098681 
L 533.324959 111.963944 
L 533.452691 108.670887 
L 533.211429 108.386973 
L 533.098364 108.670887 
L 533.076758 111.963944 
z
M 546.377143 112.035553 
L 549.353611 111.963944 
L 546.377143 109.213057 
L 546.325765 111.963944 
z
M 529.92 105.49095 
L 530.203773 105.377829 
L 529.92 105.036585 
L 529.806936 105.377829 
z
M 526.628571 95.840865 
L 527.650042 95.498658 
L 528.782666 92.205601 
L 528.363728 88.912544 
L 526.628571 87.067575 
L 525.287741 85.619486 
L 523.337143 83.117839 
L 522.671359 82.326429 
L 520.045714 79.461583 
L 519.697317 79.033372 
L 516.754286 75.829809 
L 516.671389 75.740315 
L 513.992833 72.447258 
L 513.462857 71.808395 
L 511.292644 69.154201 
L 510.171429 67.855745 
L 508.486643 65.861143 
L 506.88 64.017196 
L 505.560477 62.568086 
L 503.588571 60.438292 
L 502.527775 59.275029 
L 500.297143 56.290684 
L 500.040697 55.981972 
L 497.13324 52.688915 
L 497.005714 52.540415 
L 494.14126 49.395858 
L 493.714286 48.827065 
L 491.536668 46.1028 
L 490.422857 44.708538 
L 488.905258 42.809743 
L 487.131429 40.680729 
L 486.159667 39.516686 
L 483.84 36.871701 
L 483.254613 36.223629 
L 480.548571 33.251278 
L 480.258668 32.930572 
L 477.845825 29.637515 
L 477.257143 29.004529 
L 474.805488 26.344457 
L 473.965714 25.294283 
L 472.002536 23.0514 
L 470.674286 21.210498 
L 469.537986 19.758343 
L 467.382857 17.180417 
L 466.815388 16.465286 
L 464.185314 13.172229 
L 464.091429 13.056609 
L 461.240264 9.879172 
L 460.8 9.318386 
L 458.545195 6.586114 
L 457.508571 5.435476 
L 455.759304 3.293057 
L 454.217143 1.549473 
L 452.81067 0 
L 450.925714 0 
L 447.634286 0 
L 444.342857 0 
L 441.051429 0 
L 437.76 0 
L 434.468571 0 
L 431.177143 0 
L 427.885714 0 
L 424.594286 0 
L 421.302857 0 
L 420.959393 0 
L 421.302857 0.361403 
L 424.195654 3.293057 
L 424.594286 3.774701 
L 427.418999 6.586114 
L 427.885714 7.085875 
L 430.675013 6.586114 
L 431.177143 5.892548 
L 434.468571 4.654845 
L 436.416273 6.586114 
L 437.431984 9.879172 
L 437.76 10.058665 
L 440.444058 13.172229 
L 441.051429 13.779404 
L 443.746747 16.465286 
L 444.342857 18.091566 
L 446.016158 19.758343 
L 447.309462 23.0514 
L 447.634286 23.542871 
L 450.43977 26.344457 
L 450.925714 27.343306 
L 454.217143 29.265526 
L 456.226235 26.344457 
L 457.508571 25.100878 
L 458.78139 26.344457 
L 459.508241 29.637515 
L 460.8 30.297798 
L 463.450247 32.930572 
L 464.091429 33.706189 
L 466.627911 36.223629 
L 467.09013 39.516686 
L 467.382857 39.764368 
L 470.343904 42.809743 
L 470.674286 43.351666 
L 473.433105 46.1028 
L 473.965714 47.589556 
L 475.783839 49.395858 
L 477.222809 52.688915 
L 477.257143 52.722606 
L 477.519034 52.688915 
L 479.617455 49.395858 
L 480.548571 48.282756 
L 481.702827 49.395858 
L 483.84 50.056326 
L 486.502111 52.688915 
L 487.131429 53.702061 
L 489.448881 55.981972 
L 490.059084 59.275029 
L 490.422857 59.578151 
L 493.42597 62.568086 
L 493.714286 63.098788 
L 496.489884 65.861143 
L 497.004546 69.154201 
L 497.005714 69.15562 
L 500.050841 72.447258 
L 500.297143 72.786021 
L 503.461702 72.447258 
L 503.588571 72.25567 
L 506.88 69.730025 
L 509.65916 72.447258 
L 510.171429 75.265789 
L 510.703517 75.740315 
L 513.19432 79.033372 
L 513.462857 79.239622 
L 516.56736 82.326429 
L 516.754286 82.735199 
L 519.659385 85.619486 
L 519.887213 88.912544 
L 520.045714 89.094498 
L 523.166794 92.205601 
L 523.337143 92.482625 
L 526.373538 95.498658 
z
M 510.171429 89.07435 
L 510.395882 88.912544 
L 510.171429 88.665544 
L 510.011034 88.912544 
z
M 572.708571 89.263179 
L 576 91.059756 
L 576 88.912544 
L 576 85.619486 
L 576 82.326429 
L 576 79.033372 
L 576 75.740315 
L 576 72.447258 
L 576 69.154201 
L 576 65.861143 
L 576 62.568086 
L 576 59.275029 
L 576 55.981972 
L 576 52.688915 
L 576 49.395858 
L 576 46.1028 
L 576 42.809743 
L 576 39.516686 
L 576 36.223629 
L 576 32.930572 
L 576 29.637515 
L 576 26.344457 
L 576 23.0514 
L 576 19.758343 
L 576 16.465286 
L 576 13.172229 
L 576 12.825574 
L 574.224479 9.879172 
L 572.708571 8.373116 
L 570.965582 6.586114 
L 569.684024 3.293057 
L 569.417143 3.062511 
L 567.044857 0 
L 566.125714 0 
L 562.834286 0 
L 559.542857 0 
L 556.251429 0 
L 552.96 0 
L 549.668571 0 
L 546.377143 0 
L 543.085714 0 
L 539.794286 0 
L 536.502857 0 
L 533.211429 0 
L 529.92 0 
L 526.628571 0 
L 524.112606 0 
L 523.337143 0.417432 
L 522.810562 0 
L 520.045714 0 
L 516.754286 0 
L 513.462857 0 
L 510.171429 0 
L 506.88 0 
L 503.588571 0 
L 500.297143 0 
L 497.005714 0 
L 493.77008 0 
L 496.333545 3.293057 
L 497.005714 4.128748 
L 499.343398 6.586114 
L 500.297143 8.262028 
L 501.860145 9.879172 
L 503.588289 13.172229 
L 503.588571 13.172637 
L 506.88 15.613201 
L 507.561896 16.465286 
L 510.171429 18.437687 
L 511.391736 19.758343 
L 513.462857 22.444506 
L 514.023712 23.0514 
L 516.202314 26.344457 
L 516.754286 26.896387 
L 519.352835 29.637515 
L 520.045714 30.79503 
L 522.117056 32.930572 
L 523.337143 35.539656 
L 523.981243 36.223629 
L 526.628571 39.132332 
L 526.979697 39.516686 
L 529.92 41.617844 
L 531.012662 42.809743 
L 533.211429 44.595854 
L 534.622745 46.1028 
L 536.223455 49.395858 
L 536.502857 49.62631 
L 539.435425 52.688915 
L 539.794286 53.166309 
L 542.501685 55.981972 
L 543.085714 57.184717 
L 545.098339 59.275029 
L 546.377143 61.098827 
L 547.632202 62.568086 
L 549.668571 64.700788 
L 550.887827 65.861143 
L 552.96 67.221974 
L 554.81939 69.154201 
L 556.251429 70.680483 
L 557.955544 72.447258 
L 559.542857 74.9988 
L 560.280167 75.740315 
L 562.834286 78.462156 
L 563.083203 79.033372 
L 566.125714 82.114551 
L 566.281969 82.326429 
L 569.417143 85.468799 
L 569.647158 85.619486 
L 572.359655 88.912544 
z
M 506.88 85.77996 
L 507.126877 85.619486 
L 506.88 85.345071 
L 506.719605 85.619486 
z
M 483.84 66.059875 
L 484.06131 65.861143 
L 483.84 65.62245 
L 483.641367 65.861143 
z
M 460.8 43.031622 
L 461.200149 42.809743 
L 460.8 42.273338 
L 460.578707 42.809743 
z
M 457.508571 39.738089 
L 458.044711 39.516686 
L 457.508571 38.844791 
L 457.287278 39.516686 
z
M 434.468571 19.990835 
L 434.831025 19.758343 
L 434.468571 19.357844 
L 434.236195 19.758343 
z
" clip-path="url(#p99311f447b)" style="fill: #d0e2f2; fill-opacity: 0.9"/>
    <path d="M 576 12.825574 
L 576 9.879172 
L 576 6.586114 
L 576 3.293057 
L 576 1.395661 
L 575.15907 0 
L 572.708571 0 
L 569.417143 0 
L 567.044857 0 
L 569.417143 3.062511 
L 569.684024 3.293057 
L 570.965582 6.586114 
L 572.708571 8.373116 
L 574.224479 9.879172 
z
M 523.337143 0.417432 
L 524.112606 0 
L 523.337143 0 
L 522.810562 0 
z
" clip-path="url(#p99311f447b)" style="fill: #cbdef1; fill-opacity: 0.9"/>
    <path d="M 576 1.395661 
L 576 0 
L 575.15907 0 
z
" clip-path="url(#p99311f447b)" style="fill: #c6dbef; fill-opacity: 0.9"/>
    <path clip-path="url(#p99311f447b)" style="fill: #bed8ec; fill-opacity: 0.9"/>
    <path clip-path="url(#p99311f447b)" style="fill: #b5d4e9; fill-opacity: 0.9"/>
    <path clip-path="url(#p99311f447b)" style="fill: #add0e6; fill-opacity: 0.9"/>
    <path clip-path="url(#p99311f447b)" style="fill: #a5cde3; fill-opacity: 0.9"/>
    <path clip-path="url(#p99311f447b)" style="fill: #9cc9e1; fill-opacity: 0.9"/>
    <path clip-path="url(#p99311f447b)" style="fill: #91c3de; fill-opacity: 0.9"/>
    <path clip-path="url(#p99311f447b)" style="fill: #85bcdc; fill-opacity: 0.9"/>
    <path clip-path="url(#p99311f447b)" style="fill: #7cb7da; fill-opacity: 0.9"/>
    <path clip-path="url(#p99311f447b)" style="fill: #71b1d7; fill-opacity: 0.9"/>
    <path clip-path="url(#p99311f447b)" style="fill: #66abd4; fill-opacity: 0.9"/>
    <path clip-path="url(#p99311f447b)" style="fill: #5da5d1; fill-opacity: 0.9"/>
    <path clip-path="url(#p99311f447b)" style="fill: #56a0ce; fill-opacity: 0.9"/>
    <path clip-path="url(#p99311f447b)" style="fill: #4d99ca; fill-opacity: 0.9"/>
    <path clip-path="url(#p99311f447b)" style="fill: #4493c7; fill-opacity: 0.9"/>
    <path clip-path="url(#p99311f447b)" style="fill: #3c8cc3; fill-opacity: 0.9"/>
    <path clip-path="url(#p99311f447b)" style="fill: #3686c0; fill-opacity: 0.9"/>
    <path clip-path="url(#p99311f447b)" style="fill: #2f7fbc; fill-opacity: 0.9"/>
    <path clip-path="url(#p99311f447b)" style="fill: #2777b8; fill-opacity: 0.9"/>
    <path clip-path="url(#p99311f447b)" style="fill: #2070b4; fill-opacity: 0.9"/>
    <path clip-path="url(#p99311f447b)" style="fill: #1c6ab0; fill-opacity: 0.9"/>
    <path clip-path="url(#p99311f447b)" style="fill: #1663aa; fill-opacity: 0.9"/>
    <path clip-path="url(#p99311f447b)" style="fill: #115ca5; fill-opacity: 0.9"/>
    <path clip-path="url(#p99311f447b)" style="fill: #0c56a0; fill-opacity: 0.9"/>
    <path clip-path="url(#p99311f447b)" style="fill: #084f99; fill-opacity: 0.9"/>
    <path clip-path="url(#p99311f447b)" style="fill: #08488e; fill-opacity: 0.9"/>
    <path clip-path="url(#p99311f447b)" style="fill: #084184; fill-opacity: 0.9"/>
    <path clip-path="url(#p99311f447b)" style="fill: #083a7a; fill-opacity: 0.9"/>
    <path clip-path="url(#p99311f447b)" style="fill: #083370; fill-opacity: 0.9"/>
    <path clip-path="url(#p99311f447b)" style="fill: #08306b; fill-opacity: 0.9"/>
   </g>
   <g id="QuadContourSet_2">
    <path d="M 415.616375 0 
L 417.940693 2.031743 
M 431.388082 15.580986 
L 432.399661 16.465286 
L 431.689984 19.758343 
L 434.468571 22.538305 
L 437.76 21.591958 
L 439.509508 23.0514 
L 441.051429 24.594083 
L 443.350182 26.344457 
L 444.342857 27.337624 
L 447.634286 29.119421 
L 447.979615 29.637515 
L 450.925714 32.746857 
L 451.123566 32.930572 
L 454.217143 35.736042 
L 454.754802 36.223629 
L 454.74774 39.516686 
L 457.508571 42.278884 
L 458.039168 42.809743 
L 460.8 45.577877 
L 464.091429 44.925273 
L 465.810461 46.1028 
L 467.382857 47.675974 
L 470.575274 49.395858 
L 470.674286 49.494918 
L 472.380711 52.688915 
L 473.965714 54.274702 
L 475.74362 55.981972 
L 477.257143 57.496243 
L 479.532016 59.275029 
L 480.548571 60.292088 
L 483.706028 62.568086 
L 481.07719 65.861143 
L 483.84 68.625321 
L 486.918221 65.861143 
L 487.131429 65.41006 
L 487.803725 65.861143 
L 490.422857 67.9947 
L 492.359286 69.154201 
L 493.714286 70.290954 
L 495.160427 72.447258 
L 497.005714 74.293458 
L 498.001643 75.740315 
L 500.297143 78.03695 
L 501.427713 79.033372 
L 503.588571 81.195299 
L 504.895879 82.326429 
L 504.131386 85.619486 
L 506.88 88.36946 
L 507.422814 88.912544 
L 510.171429 91.685356 
L 513.462857 90.344014 
L 515.892535 92.205601 
L 516.754286 93.067778 
L 520.045714 95.386157 
L 520.109047 95.498658 
L 523.337143 98.21149 
L 523.842254 98.791715 
L 526.628571 101.428722 
L 527.351709 102.084772 
L 527.156644 105.377829 
L 529.92 108.142553 
L 530.448072 108.670887 
L 529.92 111.963944 
L 533.211429 115.257001 
L 535.986177 111.963944 
L 536.502857 110.987544 
L 537.819832 111.963944 
L 539.794286 113.939374 
L 541.818764 115.257001 
L 543.085714 116.524578 
L 546.377143 118.207387 
L 546.555157 118.550058 
L 548.338646 121.843115 
L 549.668571 123.173699 
L 552.317309 125.136172 
L 552.96 125.779182 
L 556.251429 128.27253 
L 556.450366 128.42923 
L 556.251429 128.545132 
L 553.483841 131.722287 
L 556.251429 134.491244 
L 556.77527 135.015344 
L 559.542857 137.770725 
L 562.295074 135.015344 
L 562.834286 133.939927 
L 564.310401 135.015344 
L 566.125714 136.834813 
L 568.481492 138.308401 
L 569.417143 139.244515 
L 571.895406 141.601458 
L 572.708571 142.415026 
L 573.903008 144.894515 
L 576 146.992545 
M 559.542857 132.072187 
L 559.19313 131.722287 
L 559.542857 131.151561 
L 560.291199 131.722287 
L 559.542857 132.072187 
z
" clip-path="url(#p99311f447b)" style="fill: none"/>
    <path d="M 416.819688 0 
L 418.011429 1.041729 
L 420.079941 3.293057 
L 421.302857 4.426849 
L 423.026623 6.586114 
L 424.594286 8.154553 
L 426.215402 9.879172 
L 427.885714 11.55031 
L 429.711506 13.172229 
L 431.177143 14.638591 
L 433.26676 16.465286 
L 432.053729 19.758343 
L 434.468571 22.174381 
L 437.76 20.594077 
L 440.70572 23.0514 
L 441.051429 23.39728 
L 444.342857 24.836789 
L 444.761621 26.344457 
L 447.634286 28.332725 
L 448.503978 29.637515 
L 450.925714 32.193439 
L 451.719568 32.930572 
L 454.217143 35.195546 
L 455.350804 36.223629 
L 455.110531 39.516686 
L 457.508571 41.915913 
L 458.40196 42.809743 
L 460.8 45.214126 
L 464.091429 44.109294 
L 467.001681 46.1028 
L 467.382857 46.484165 
L 470.674286 48.666848 
L 470.718556 48.731885 
M 484.290329 62.203386 
L 484.796605 62.568086 
L 483.84 62.981321 
L 481.443501 65.861143 
L 483.84 68.258828 
L 486.510091 65.861143 
L 487.131429 64.546577 
L 489.090661 65.861143 
L 490.422857 66.946356 
L 493.714286 68.9794 
L 493.833753 69.154201 
L 496.145486 72.447258 
L 497.005714 73.307912 
L 498.680034 75.740315 
L 500.297143 77.358224 
L 502.197817 79.033372 
L 503.588571 80.424815 
L 505.78637 82.326429 
L 504.501132 85.619486 
L 506.88 87.999532 
L 507.79256 88.912544 
L 510.171429 91.312355 
L 513.462857 89.009307 
L 516.754286 90.732801 
L 517.650725 92.205601 
L 520.045714 94.032745 
L 520.870955 95.498658 
L 523.337143 97.571196 
L 524.399657 98.791715 
L 526.628571 100.901189 
L 527.933188 102.084772 
L 527.535257 105.377829 
L 529.92 107.763753 
L 530.826685 108.670887 
L 530.370965 111.963944 
L 533.211429 114.805812 
L 535.606003 111.963944 
L 536.502857 110.269108 
L 538.788863 111.963944 
L 539.794286 112.969864 
L 543.085714 114.106755 
L 543.323624 115.257001 
L 546.377143 117.196463 
L 547.080324 118.550058 
L 549.668571 121.791462 
L 549.715639 121.843115 
L 552.96 124.773385 
L 553.409028 125.136172 
L 556.251429 127.674294 
L 557.209859 128.42923 
L 556.251429 128.987615 
L 553.869284 131.722287 
L 556.251429 134.10561 
L 557.160713 135.015344 
L 559.542857 137.386982 
L 561.911772 135.015344 
L 562.834286 133.175461 
L 565.359707 135.015344 
L 566.125714 135.783105 
L 569.417143 137.402423 
L 569.736729 138.308401 
L 572.708571 141.220039 
L 572.978383 141.601458 
L 574.755484 144.894515 
L 576 146.139647 
M 559.542857 132.482081 
L 558.783438 131.722287 
L 559.542857 130.482977 
L 561.167854 131.722287 
L 559.542857 132.482081 
" clip-path="url(#p99311f447b)" style="fill: none"/>
    <path d="M 418.017088 0 
L 421.046373 3.293057 
L 421.302857 3.530849 
L 423.741909 6.586114 
L 424.594286 7.438912 
L 426.888094 9.879172 
L 427.885714 10.877285 
L 430.469128 13.172229 
L 431.177143 13.880593 
L 434.133858 16.465286 
L 432.417473 19.758343 
L 434.468571 21.810456 
L 437.66781 19.758343 
L 437.76 19.479887 
L 438.609253 19.758343 
L 441.051429 21.064286 
L 444.342857 22.676447 
L 444.643429 23.0514 
L 445.898246 26.344457 
L 447.634286 27.546029 
L 449.028341 29.637515 
L 450.925714 31.640021 
L 452.315569 32.930572 
L 454.217143 34.655051 
L 455.946806 36.223629 
L 455.473322 39.516686 
L 457.508571 41.552942 
L 458.764751 42.809743 
L 460.8 44.850375 
L 464.091429 43.293316 
L 467.382857 43.904771 
L 468.119168 46.1028 
L 470.674286 47.903682 
L 471.690001 49.395858 
L 473.965714 52.257972 
L 474.345313 52.688915 
L 477.257143 55.546275 
L 477.812189 55.981972 
L 480.548571 58.409972 
L 481.691501 59.275029 
L 483.84 61.144944 
L 485.815604 62.568086 
L 483.84 63.421509 
L 481.809812 65.861143 
L 483.84 67.892336 
L 486.101961 65.861143 
L 487.131429 63.683094 
L 490.377598 65.861143 
L 490.422857 65.898012 
L 493.714286 68.206168 
L 494.362218 69.154201 
L 496.61645 71.892961 
M 505.506194 86.255118 
L 506.88 87.629603 
L 508.162306 88.912544 
L 510.171429 90.939355 
L 512.982954 88.912544 
L 513.462857 87.194661 
L 516.754286 88.602009 
L 516.97312 88.912544 
L 519.424755 92.205601 
L 520.045714 92.679332 
L 521.632864 95.498658 
L 523.337143 96.930903 
L 524.957059 98.791715 
L 526.628571 100.373656 
L 528.514666 102.084772 
L 527.91387 105.377829 
L 529.92 107.384952 
L 531.205298 108.670887 
L 530.821931 111.963944 
L 533.211429 114.354624 
L 535.225829 111.963944 
L 536.502857 109.550673 
L 539.757894 111.963944 
L 539.794286 112.000353 
L 539.957122 111.963944 
L 543.085714 111.231592 
L 543.494313 111.963944 
L 544.915239 115.257001 
L 546.377143 116.185539 
L 547.60549 118.550058 
L 549.668571 121.133768 
L 550.314941 121.843115 
L 552.96 124.232102 
L 554.078983 125.136172 
L 556.251429 127.076058 
L 557.969351 128.42923 
L 556.251429 129.430098 
L 554.254727 131.722287 
L 556.251429 133.719977 
L 557.546155 135.015344 
L 559.542857 137.003239 
L 561.52847 135.015344 
L 559.542857 132.891976 
L 558.373747 131.722287 
L 559.542857 129.814393 
L 562.044508 131.722287 
L 562.834286 132.410995 
L 566.125714 132.919681 
L 568.152071 135.015344 
L 569.417143 135.359662 
L 570.45732 138.308401 
L 572.708571 140.514046 
L 573.477793 141.601458 
L 575.60796 144.894515 
L 576 145.286749 
M 510.171429 85.818597 
L 509.972417 85.619486 
L 510.171429 85.143667 
L 511.130466 85.619486 
L 510.171429 85.818597 
z
" clip-path="url(#p99311f447b)" style="fill: none"/>
    <path d="M 418.605549 0 
L 421.302857 2.838191 
L 421.751695 3.293057 
L 424.457196 6.586114 
L 424.594286 6.723272 
L 427.560786 9.879172 
L 427.885714 10.204261 
L 431.177143 13.108897 
L 431.27906 13.172229 
L 434.468571 15.70608 
L 435.940306 16.465286 
L 434.468571 16.8502 
L 432.781217 19.758343 
L 434.468571 21.446532 
L 437.100453 19.758343 
L 437.76 17.766216 
L 441.051429 18.799045 
L 441.498756 19.758343 
L 444.342857 22.011288 
L 445.176635 23.0514 
L 447.03487 26.344457 
L 447.634286 26.759333 
L 449.552704 29.637515 
L 450.925714 31.086603 
L 452.911571 32.930572 
L 454.217143 34.114555 
L 456.542807 36.223629 
L 455.836113 39.516686 
L 457.508571 41.189972 
L 459.127542 42.809743 
L 460.8 44.486624 
L 463.824189 42.809743 
L 464.091429 40.248991 
L 467.382857 42.377736 
L 467.802902 42.809743 
L 469.201959 46.1028 
L 470.674286 47.140516 
L 472.209484 49.395858 
L 473.965714 51.60463 
L 474.920812 52.688915 
L 477.257143 54.981542 
L 478.53162 55.981972 
L 480.548571 57.771619 
L 482.534905 59.275029 
L 483.84 60.410899 
L 486.834603 62.568086 
L 487.131429 62.819611 
L 490.422857 62.770839 
L 491.482267 65.861143 
L 493.714286 67.432936 
L 494.890684 69.154201 
L 497.005714 71.723839 
L 497.674956 72.447258 
L 500.036816 75.740315 
L 500.297143 76.000771 
L 503.588571 78.860828 
L 503.845702 79.033372 
L 506.88 81.496306 
L 508.259005 82.326429 
L 506.88 82.814712 
L 505.240623 85.619486 
L 506.88 87.259675 
L 508.532051 88.912544 
L 510.171429 90.566354 
L 512.46554 88.912544 
L 510.171429 86.387986 
L 509.403309 85.619486 
L 510.171429 83.782981 
L 513.462857 85.052753 
L 513.641472 85.619486 
L 516.754286 87.774964 
L 517.555938 88.912544 
L 520.045714 91.770731 
L 520.481978 92.205601 
L 522.394772 95.498658 
L 523.337143 96.290609 
L 525.514462 98.791715 
L 526.628571 99.846122 
L 529.096145 102.084772 
L 528.292483 105.377829 
L 529.92 107.006152 
L 531.583912 108.670887 
L 531.272896 111.963944 
L 533.211429 113.903435 
L 534.845655 111.963944 
L 536.502857 108.832237 
L 537.49069 108.670887 
L 539.347318 105.377829 
L 539.794286 105.27073 
L 539.878832 105.377829 
L 540.63656 108.670887 
L 543.085714 110.216602 
L 543.154328 110.339582 
M 554.928478 125.296492 
L 556.251429 126.477821 
L 558.728843 128.42923 
L 559.542857 129.145809 
L 562.834286 130.962945 
L 566.125714 130.105984 
L 566.720681 131.722287 
L 569.417143 134.42835 
L 569.988399 135.015344 
L 571.17791 138.308401 
L 572.708571 139.808054 
L 573.977204 141.601458 
L 576 144.507055 
M 559.542857 136.619496 
L 561.145168 135.015344 
L 559.542857 133.30187 
L 557.964055 131.722287 
L 556.251429 129.872582 
L 554.64017 131.722287 
L 556.251429 133.334343 
L 557.931598 135.015344 
L 559.542857 136.619496 
z
M 483.84 67.525844 
L 485.693831 65.861143 
L 483.84 63.861698 
L 482.176123 65.861143 
L 483.84 67.525844 
z
" clip-path="url(#p99311f447b)" style="fill: none"/>
    <path d="M 419.19401 0 
L 421.302857 2.218994 
L 422.362685 3.293057 
L 424.594286 5.989376 
L 425.193847 6.586114 
L 427.885714 9.468575 
L 428.481468 9.879172 
L 431.177143 12.141684 
L 432.835543 13.172229 
L 434.468571 14.469559 
L 437.76 14.995333 
L 439.236629 16.465286 
L 439.356477 16.500487 
M 451.229719 30.81547 
L 453.507573 32.930572 
L 454.217143 33.574059 
L 457.138809 36.223629 
L 456.198905 39.516686 
L 457.508571 40.827001 
L 459.490333 42.809743 
L 460.8 44.122874 
L 463.168179 42.809743 
L 460.8 39.635167 
L 460.681578 39.516686 
L 460.8 38.679453 
L 464.091429 38.218776 
L 464.773638 39.516686 
L 467.382857 41.724394 
L 468.438153 42.809743 
L 470.284751 46.1028 
L 470.674286 46.37735 
L 472.728967 49.395858 
L 473.965714 50.951288 
L 475.496311 52.688915 
L 477.257143 54.416808 
L 479.251052 55.981972 
L 480.548571 57.133265 
L 483.378309 59.275029 
L 483.84 59.676855 
L 486.212541 59.275029 
L 487.131429 58.988281 
L 487.324673 59.275029 
L 490.422857 61.856661 
L 491.137418 62.568086 
L 492.580293 65.861143 
L 493.714286 66.659704 
L 495.419149 69.154201 
L 497.005714 71.081784 
L 498.268927 72.447258 
L 500.297143 75.236864 
L 500.946001 75.740315 
L 503.588571 77.971743 
L 505.170649 79.033372 
L 506.88 80.420849 
L 510.045559 82.326429 
L 510.171429 82.422295 
L 510.83202 82.326429 
L 513.462857 82.062416 
L 513.728384 82.326429 
L 514.835841 85.619486 
L 516.754286 86.94792 
L 518.138757 88.912544 
L 520.045714 91.101673 
L 521.153182 92.205601 
L 523.15668 95.498658 
L 523.337143 95.650315 
L 526.071865 98.791715 
L 526.628571 99.318589 
L 529.677624 102.084772 
L 528.671096 105.377829 
L 529.92 106.627351 
L 531.962525 108.670887 
L 531.723862 111.963944 
L 533.211429 113.452247 
L 534.465481 111.963944 
L 535.876398 108.670887 
L 533.211429 105.534789 
L 533.054546 105.377829 
L 533.211429 104.846446 
L 536.502857 102.838473 
L 539.794286 104.251965 
L 540.68307 105.377829 
L 542.24479 108.670887 
L 543.085714 109.201613 
L 544.626894 111.963944 
L 546.377143 114.403396 
L 547.231371 115.257001 
L 548.655822 118.550058 
L 549.668571 119.818379 
L 551.513547 121.843115 
L 552.96 123.149535 
L 555.418893 125.136172 
L 556.251429 125.879585 
L 559.488336 128.42923 
L 559.542857 128.477225 
L 559.861674 128.42923 
L 561.748206 125.136172 
L 562.834286 124.689021 
L 563.097869 125.136172 
L 566.125714 128.293967 
L 566.260684 128.42923 
L 567.424168 131.722287 
L 569.417143 133.722358 
L 570.675462 135.015344 
L 571.8985 138.308401 
L 572.708571 139.102061 
L 574.476614 141.601458 
L 576 143.789689 
M 559.542857 136.235754 
L 560.761865 135.015344 
L 559.542857 133.711765 
L 558.317041 135.015344 
L 559.542857 136.235754 
z
M 556.251429 132.94871 
L 557.554363 131.722287 
L 556.251429 130.315065 
L 555.025612 131.722287 
L 556.251429 132.94871 
z
M 510.171429 90.193353 
L 511.948125 88.912544 
L 510.171429 86.957376 
L 508.901797 88.912544 
L 510.171429 90.193353 
z
M 506.88 86.889746 
L 508.834201 85.619486 
L 506.88 83.447302 
L 505.610368 85.619486 
L 506.88 86.889746 
z
M 483.84 67.159352 
L 485.2857 65.861143 
L 483.84 64.301886 
L 482.542434 65.861143 
L 483.84 67.159352 
z
M 434.468571 21.082608 
L 436.533096 19.758343 
L 434.468571 17.477111 
L 433.144962 19.758343 
L 434.468571 21.082608 
z
" clip-path="url(#p99311f447b)" style="fill: none"/>
    <path d="M 419.782471 0 
L 421.302857 1.599797 
L 422.973675 3.293057 
L 424.594286 5.251151 
L 425.935564 6.586114 
L 427.885714 8.674341 
L 429.633856 9.879172 
L 431.177143 11.17447 
L 434.392027 13.172229 
L 434.468571 13.233038 
L 434.684259 13.172229 
L 437.76 12.363912 
L 438.456812 13.172229 
L 441.051429 15.766011 
L 441.753161 16.465286 
L 443.178138 19.758343 
L 444.342857 20.680972 
L 446.243049 23.0514 
L 447.634286 25.156393 
L 448.824003 26.344457 
L 450.60143 29.637515 
L 450.925714 29.979768 
L 454.103574 32.930572 
L 454.217143 33.033563 
L 457.508571 35.03021 
L 460.405639 32.930572 
L 460.8 32.816103 
L 460.915228 32.930572 
L 462.86731 36.223629 
L 464.091429 36.749727 
L 465.545802 39.516686 
L 467.382857 41.071052 
L 469.073403 42.809743 
L 470.674286 45.435662 
L 471.343288 46.1028 
L 473.248449 49.395858 
L 473.965714 50.297946 
L 476.071811 52.688915 
L 477.257143 53.852074 
L 479.970483 55.981972 
L 480.548571 56.494912 
L 483.84 56.315664 
L 487.131429 57.635783 
L 488.236143 59.275029 
L 490.422857 61.097158 
L 491.900269 62.568086 
L 493.678318 65.861143 
L 493.714286 65.886472 
L 495.947615 69.154201 
L 497.005714 70.43973 
L 498.862899 72.447258 
L 500.297143 74.419916 
L 501.998901 75.740315 
L 503.588571 77.082658 
L 506.495596 79.033372 
L 506.88 79.345392 
L 508.140473 79.033372 
L 510.171429 78.403264 
L 510.744128 79.033372 
L 513.462857 81.121485 
L 514.674709 82.326429 
L 515.750303 84.939479 
M 527.793699 99.538272 
L 529.92 100.905315 
L 533.211429 101.006212 
L 534.441189 98.791715 
L 536.502857 98.120541 
L 537.180736 98.791715 
L 537.965663 102.084772 
L 539.794286 103.233199 
L 541.487307 105.377829 
L 543.085714 108.033396 
L 543.72428 108.670887 
L 545.193185 111.963944 
L 546.377143 113.614115 
L 548.021229 115.257001 
L 549.180989 118.550058 
L 549.668571 119.160685 
L 552.11285 121.843115 
L 552.96 122.608252 
L 556.088848 125.136172 
L 556.251429 125.281349 
L 557.335775 125.136172 
L 559.233329 121.843115 
L 559.542857 121.287133 
L 559.896421 121.843115 
L 562.834286 122.894838 
L 564.15549 125.136172 
L 566.125714 127.190955 
L 567.361306 128.42923 
L 568.127656 131.722287 
L 569.417143 133.016365 
L 571.362526 135.015344 
L 572.619091 138.308401 
L 572.708571 138.396069 
L 574.976025 141.601458 
L 576 143.072323 
M 559.542857 135.852011 
L 560.378563 135.015344 
L 559.542857 134.121659 
L 558.702484 135.015344 
L 559.542857 135.852011 
z
M 556.251429 132.563076 
L 557.144672 131.722287 
L 556.251429 130.757549 
L 555.411055 131.722287 
L 556.251429 132.563076 
z
M 533.211429 113.001058 
L 534.085307 111.963944 
L 535.068496 108.670887 
L 533.211429 106.485517 
L 532.341138 108.670887 
L 532.174827 111.963944 
L 533.211429 113.001058 
z
M 529.92 106.248551 
L 532.104289 105.377829 
L 529.92 102.751168 
L 529.049709 105.377829 
L 529.92 106.248551 
z
M 510.171429 89.820352 
L 511.430711 88.912544 
L 510.171429 87.526765 
L 509.271543 88.912544 
L 510.171429 89.820352 
z
M 506.88 86.519818 
L 508.265093 85.619486 
L 506.88 84.079892 
L 505.980114 85.619486 
L 506.88 86.519818 
z
M 483.84 66.792859 
L 484.87757 65.861143 
L 483.84 64.742074 
L 482.908745 65.861143 
L 483.84 66.792859 
z
M 460.8 43.759123 
L 462.512169 42.809743 
L 460.8 40.514557 
L 459.853125 42.809743 
L 460.8 43.759123 
z
M 457.508571 40.46403 
L 459.802622 39.516686 
L 457.508571 36.641759 
L 456.561696 39.516686 
L 457.508571 40.46403 
z
M 434.468571 20.718683 
L 435.965739 19.758343 
L 434.468571 18.104022 
L 433.508706 19.758343 
L 434.468571 20.718683 
z
" clip-path="url(#p99311f447b)" style="fill: none"/>
    <path d="M 420.370932 0 
L 421.302857 0.9806 
L 423.584664 3.293057 
L 424.594286 4.512926 
L 426.677282 6.586114 
L 427.885714 7.880108 
L 430.786244 9.879172 
L 431.177143 10.207257 
L 432.67357 9.879172 
L 434.468571 7.384224 
L 435.325624 9.879172 
L 437.76 11.211289 
L 439.450435 13.172229 
L 441.051429 14.772707 
L 442.749954 16.465286 
L 444.017829 19.758343 
L 444.342857 20.015813 
L 446.776255 23.0514 
L 447.634286 24.349632 
L 449.631886 26.344457 
L 450.925714 29.003893 
L 451.875676 29.637515 
L 454.217143 31.407332 
L 457.508571 30.828673 
L 460.8 31.556951 
L 462.182738 32.930572 
L 464.091429 35.239457 
L 465.083045 36.223629 
L 466.317966 39.516686 
L 467.382857 40.41771 
L 469.708654 42.809743 
L 470.674286 44.393664 
L 472.388197 46.1028 
L 473.767932 49.395858 
L 473.965714 49.644604 
L 476.64731 52.688915 
L 477.257143 53.28734 
L 480.548571 54.704231 
L 481.871632 52.688915 
L 483.84 51.858223 
L 484.680007 52.688915 
L 486.295889 55.603632 
M 497.70389 70.55237 
L 499.45687 72.447258 
L 500.297143 73.602969 
L 503.051801 75.740315 
L 503.588571 76.193572 
L 505.82186 75.740315 
L 506.88 73.996527 
L 507.533178 75.740315 
L 510.171429 77.055363 
L 511.969224 79.033372 
L 513.462857 80.180553 
L 515.621035 82.326429 
L 516.754286 84.80463 
L 517.575022 85.619486 
L 519.304395 88.912544 
L 520.045714 89.763556 
L 522.49559 92.205601 
L 523.337143 93.574147 
L 525.274647 95.498658 
L 526.628571 97.315368 
L 529.778279 98.791715 
L 529.92 98.88283 
L 530.116782 98.791715 
L 531.991049 95.498658 
L 533.211429 93.223658 
L 533.997722 95.498658 
L 536.502857 96.747201 
L 538.567796 98.791715 
L 539.587828 102.084772 
L 539.794286 102.214433 
L 542.291545 105.377829 
L 543.085714 106.697249 
L 545.062677 108.670887 
L 545.759475 111.963944 
L 546.377143 112.824834 
L 548.811086 115.257001 
L 549.668571 118.346403 
L 549.924031 118.550058 
L 552.712152 121.843115 
L 552.96 122.066968 
L 554.814638 121.843115 
L 556.251429 119.362002 
L 556.706966 118.550058 
L 559.542857 117.03379 
L 561.050957 118.550058 
L 562.834286 120.693766 
L 563.978418 121.843115 
L 565.213111 125.136172 
L 566.125714 126.087943 
L 568.461928 128.42923 
L 568.831144 131.722287 
L 569.417143 132.310373 
L 572.04959 135.015344 
L 572.708571 136.736622 
L 574.280588 138.308401 
L 575.475435 141.601458 
L 576 142.354957 
M 559.542857 135.468268 
L 559.995261 135.015344 
L 559.542857 134.531553 
L 559.087926 135.015344 
L 559.542857 135.468268 
z
M 556.251429 132.177443 
L 556.73498 131.722287 
L 556.251429 131.200032 
L 555.796498 131.722287 
L 556.251429 132.177443 
z
M 533.211429 112.54987 
L 533.705133 111.963944 
L 534.260593 108.670887 
L 533.211429 107.436245 
L 532.719751 108.670887 
L 532.625792 111.963944 
L 533.211429 112.54987 
z
M 529.92 105.86975 
L 531.154031 105.377829 
L 529.92 103.893877 
L 529.428322 105.377829 
L 529.92 105.86975 
z
M 510.171429 89.447351 
L 510.913296 88.912544 
L 510.171429 88.096155 
L 509.641288 88.912544 
L 510.171429 89.447351 
z
M 506.88 86.149889 
L 507.695985 85.619486 
L 506.88 84.712481 
L 506.34986 85.619486 
L 506.88 86.149889 
z
M 483.84 66.426367 
L 484.46944 65.861143 
L 483.84 65.182262 
L 483.275056 65.861143 
L 483.84 66.426367 
z
M 460.8 43.395372 
L 461.856159 42.809743 
L 460.8 41.393948 
L 460.215916 42.809743 
L 460.8 43.395372 
z
M 457.508571 40.101059 
L 458.923667 39.516686 
L 457.508571 37.743275 
L 456.924487 39.516686 
L 457.508571 40.101059 
z
M 434.468571 20.354759 
L 435.398382 19.758343 
L 434.468571 18.730933 
L 433.872451 19.758343 
L 434.468571 20.354759 
z
" clip-path="url(#p99311f447b)" style="fill: none"/>
    <path d="M 576 139.806888 
L 575.974846 141.601458 
L 576 141.637591 
M 420.959393 0 
L 421.302857 0.361403 
L 424.195654 3.293057 
L 424.594286 3.774701 
L 427.418999 6.586114 
L 427.885714 7.085875 
L 430.675013 6.586114 
L 431.177143 5.892548 
L 434.468571 4.654845 
L 436.416273 6.586114 
L 437.431984 9.879172 
L 437.76 10.058665 
L 440.444058 13.172229 
L 441.051429 13.779404 
L 443.746747 16.465286 
L 444.342857 18.091566 
L 446.016158 19.758343 
L 447.309462 23.0514 
L 447.634286 23.542871 
L 450.43977 26.344457 
L 450.925714 27.343306 
L 454.217143 29.265526 
L 456.226235 26.344457 
L 457.508571 25.100878 
L 458.78139 26.344457 
L 459.508241 29.637515 
L 460.8 30.297798 
L 463.450247 32.930572 
L 464.091429 33.706189 
L 466.627911 36.223629 
L 467.09013 39.516686 
L 467.382857 39.764368 
L 470.343904 42.809743 
L 470.674286 43.351666 
L 473.433105 46.1028 
L 473.965714 47.589556 
L 475.783839 49.395858 
L 477.222809 52.688915 
L 477.257143 52.722606 
L 477.519034 52.688915 
L 479.617455 49.395858 
L 480.548571 48.282756 
L 481.702827 49.395858 
L 483.84 50.056326 
L 486.502111 52.688915 
L 487.131429 53.702061 
L 489.448881 55.981972 
L 490.059084 59.275029 
L 490.422857 59.578151 
L 493.42597 62.568086 
L 493.714286 63.098788 
L 496.489884 65.861143 
L 497.004546 69.154201 
L 497.005714 69.15562 
L 500.050841 72.447258 
L 500.297143 72.786021 
L 503.461702 72.447258 
L 503.588571 72.25567 
L 506.88 69.730025 
L 509.65916 72.447258 
L 510.171429 75.265789 
L 510.703517 75.740315 
L 513.19432 79.033372 
L 513.462857 79.239622 
L 516.56736 82.326429 
L 516.754286 82.735199 
L 519.659385 85.619486 
L 519.887213 88.912544 
L 520.045714 89.094498 
L 523.166794 92.205601 
L 523.337143 92.482625 
L 526.373538 95.498658 
L 526.628571 95.840865 
L 527.650042 95.498658 
L 528.782666 92.205601 
L 528.363728 88.912544 
L 526.628571 87.067575 
L 525.287741 85.619486 
L 523.337143 83.117839 
L 522.671359 82.326429 
L 520.045714 79.461583 
L 519.704098 79.041706 
M 507.301809 64.501307 
L 506.88 64.017196 
L 505.560477 62.568086 
L 503.588571 60.438292 
L 502.527775 59.275029 
L 500.297143 56.290684 
L 500.040697 55.981972 
L 497.13324 52.688915 
L 497.005714 52.540415 
L 494.14126 49.395858 
L 493.714286 48.827065 
L 491.536668 46.1028 
L 490.422857 44.708538 
L 488.905258 42.809743 
L 487.131429 40.680729 
L 486.159667 39.516686 
L 483.84 36.871701 
L 483.254613 36.223629 
L 480.548571 33.251278 
L 480.258668 32.930572 
L 477.845825 29.637515 
L 477.257143 29.004529 
L 474.805488 26.344457 
L 473.965714 25.294283 
L 472.002536 23.0514 
L 470.674286 21.210498 
L 469.537986 19.758343 
L 467.382857 17.180417 
L 466.815388 16.465286 
L 464.185314 13.172229 
L 464.091429 13.056609 
L 461.240264 9.879172 
L 460.8 9.318386 
L 458.545195 6.586114 
L 457.508571 5.435476 
L 455.759304 3.293057 
L 454.217143 1.549473 
L 452.81067 0 
M 493.77008 0 
L 496.333545 3.293057 
L 497.005714 4.128748 
L 499.343398 6.586114 
L 500.297143 8.262028 
L 501.860145 9.879172 
L 503.588289 13.172229 
L 503.588571 13.172637 
L 506.88 15.613201 
L 507.561896 16.465286 
L 510.171429 18.437687 
L 510.974922 19.307253 
M 522.734758 34.251491 
L 523.337143 35.539656 
L 523.981243 36.223629 
L 526.628571 39.132332 
L 526.979697 39.516686 
L 529.92 41.617844 
L 531.012662 42.809743 
L 533.211429 44.595854 
L 534.622745 46.1028 
L 536.223455 49.395858 
L 536.502857 49.62631 
L 539.435425 52.688915 
L 539.794286 53.166309 
L 542.501685 55.981972 
L 543.085714 57.184717 
L 545.098339 59.275029 
L 546.377143 61.098827 
L 547.632202 62.568086 
L 549.668571 64.700788 
L 550.887827 65.861143 
L 552.96 67.221974 
L 554.81939 69.154201 
L 556.251429 70.680483 
L 557.955544 72.447258 
L 559.542857 74.9988 
L 560.280167 75.740315 
L 562.834286 78.462156 
L 563.083203 79.033372 
L 566.125714 82.114551 
L 566.281969 82.326429 
L 569.417143 85.468799 
L 569.647158 85.619486 
L 572.359655 88.912544 
L 572.708571 89.263179 
L 576 91.059756 
M 559.542857 135.084525 
L 559.611959 135.015344 
L 559.542857 134.941448 
L 559.473369 135.015344 
L 559.542857 135.084525 
z
M 556.251429 131.791809 
L 556.325288 131.722287 
L 556.251429 131.642516 
L 556.181941 131.722287 
L 556.251429 131.791809 
z
M 549.668571 115.500654 
L 552.711463 115.257001 
L 549.668571 112.29596 
L 549.600944 115.257001 
L 549.668571 115.500654 
z
M 533.211429 112.098681 
L 533.324959 111.963944 
L 533.452691 108.670887 
L 533.211429 108.386973 
L 533.098364 108.670887 
L 533.076758 111.963944 
L 533.211429 112.098681 
z
M 546.377143 112.035553 
L 549.353611 111.963944 
L 546.377143 109.213057 
L 546.325765 111.963944 
L 546.377143 112.035553 
z
M 529.92 105.49095 
L 530.203773 105.377829 
L 529.92 105.036585 
L 529.806936 105.377829 
L 529.92 105.49095 
z
M 510.171429 89.07435 
L 510.395882 88.912544 
L 510.171429 88.665544 
L 510.011034 88.912544 
L 510.171429 89.07435 
z
M 506.88 85.77996 
L 507.126877 85.619486 
L 506.88 85.345071 
L 506.719605 85.619486 
L 506.88 85.77996 
z
M 483.84 66.059875 
L 484.06131 65.861143 
L 483.84 65.62245 
L 483.641367 65.861143 
L 483.84 66.059875 
z
M 460.8 43.031622 
L 461.200149 42.809743 
L 460.8 42.273338 
L 460.578707 42.809743 
L 460.8 43.031622 
z
M 457.508571 39.738089 
L 458.044711 39.516686 
L 457.508571 38.844791 
L 457.287278 39.516686 
L 457.508571 39.738089 
z
M 434.468571 19.990835 
L 434.831025 19.758343 
L 434.468571 19.357844 
L 434.236195 19.758343 
L 434.468571 19.990835 
z
" clip-path="url(#p99311f447b)" style="fill: none"/>
    <path d="M 522.810562 0 
L 523.337143 0.417432 
L 524.112606 0 
" clip-path="url(#p99311f447b)" style="fill: none"/>
    <path d="M 575.15907 0 
L 576 1.395661 
" clip-path="url(#p99311f447b)" style="fill: none"/>
    <path clip-path="url(#p99311f447b)" style="fill: none"/>
    <path clip-path="url(#p99311f447b)" style="fill: none"/>
    <path clip-path="url(#p99311f447b)" style="fill: none"/>
    <path clip-path="url(#p99311f447b)" style="fill: none"/>
    <path clip-path="url(#p99311f447b)" style="fill: none"/>
    <path clip-path="url(#p99311f447b)" style="fill: none"/>
    <path clip-path="url(#p99311f447b)" style="fill: none"/>
    <path clip-path="url(#p99311f447b)" style="fill: none"/>
    <path clip-path="url(#p99311f447b)" style="fill: none"/>
    <path clip-path="url(#p99311f447b)" style="fill: none"/>
    <path clip-path="url(#p99311f447b)" style="fill: none"/>
    <path clip-path="url(#p99311f447b)" style="fill: none"/>
    <path clip-path="url(#p99311f447b)" style="fill: none"/>
    <path clip-path="url(#p99311f447b)" style="fill: none"/>
    <path clip-path="url(#p99311f447b)" style="fill: none"/>
    <path clip-path="url(#p99311f447b)" style="fill: none"/>
    <path clip-path="url(#p99311f447b)" style="fill: none"/>
    <path clip-path="url(#p99311f447b)" style="fill: none"/>
    <path clip-path="url(#p99311f447b)" style="fill: none"/>
    <path clip-path="url(#p99311f447b)" style="fill: none"/>
    <path clip-path="url(#p99311f447b)" style="fill: none"/>
    <path clip-path="url(#p99311f447b)" style="fill: none"/>
    <path clip-path="url(#p99311f447b)" style="fill: none"/>
    <path clip-path="url(#p99311f447b)" style="fill: none"/>
    <path clip-path="url(#p99311f447b)" style="fill: none"/>
    <path clip-path="url(#p99311f447b)" style="fill: none"/>
    <path clip-path="url(#p99311f447b)" style="fill: none"/>
    <path clip-path="url(#p99311f447b)" style="fill: none"/>
    <path clip-path="url(#p99311f447b)" style="fill: none"/>
   </g>
   <g id="text_1">
    <g clip-path="url(#p99311f447b)">
     <!-- 0 -->
     <g style="opacity: 0" transform="translate(419.560927 8.419661) rotate(-313.947179) scale(0.12 -0.12)">
      <defs>
       <path id="DejaVuSans-30" d="M 2034 4250 
Q 1547 4250 1301 3770 
Q 1056 3291 1056 2328 
Q 1056 1369 1301 889 
Q 1547 409 2034 409 
Q 2525 409 2770 889 
Q 3016 1369 3016 2328 
Q 3016 3291 2770 3770 
Q 2525 4250 2034 4250 
z
M 2034 4750 
Q 2819 4750 3233 4129 
Q 3647 3509 3647 2328 
Q 3647 1150 3233 529 
Q 2819 -91 2034 -91 
Q 1250 -91 836 529 
Q 422 1150 422 2328 
Q 422 3509 836 4129 
Q 1250 4750 2034 4750 
z
" transform="scale(0.015625)"/>
      </defs>
      <use xlink:href="#DejaVuSans-30"/>
     </g>
    </g>
   </g>
   <g id="text_2">
    <g clip-path="url(#p99311f447b)">
     <!-- 1 -->
     <g style="opacity: 0" transform="translate(471.923478 55.866332) rotate(-317.750826) scale(0.12 -0.12)">
      <defs>
       <path id="DejaVuSans-31" d="M 794 531 
L 1825 531 
L 1825 4091 
L 703 3866 
L 703 4441 
L 1819 4666 
L 2450 4666 
L 2450 531 
L 3481 531 
L 3481 0 
L 794 0 
L 794 531 
z
" transform="scale(0.015625)"/>
      </defs>
      <use xlink:href="#DejaVuSans-31"/>
     </g>
    </g>
   </g>
   <g id="text_3">
    <g clip-path="url(#p99311f447b)">
     <!-- 2 -->
     <g style="opacity: 0" transform="translate(497.915129 78.949826) rotate(-318.114771) scale(0.12 -0.12)">
      <defs>
       <path id="DejaVuSans-32" d="M 1228 531 
L 3431 531 
L 3431 0 
L 469 0 
L 469 531 
Q 828 903 1448 1529 
Q 2069 2156 2228 2338 
Q 2531 2678 2651 2914 
Q 2772 3150 2772 3378 
Q 2772 3750 2511 3984 
Q 2250 4219 1831 4219 
Q 1534 4219 1204 4116 
Q 875 4013 500 3803 
L 500 4441 
Q 881 4594 1212 4672 
Q 1544 4750 1819 4750 
Q 2544 4750 2975 4387 
Q 3406 4025 3406 3419 
Q 3406 3131 3298 2873 
Q 3191 2616 2906 2266 
Q 2828 2175 2409 1742 
Q 1991 1309 1228 531 
z
" transform="scale(0.015625)"/>
      </defs>
      <use xlink:href="#DejaVuSans-32"/>
     </g>
    </g>
   </g>
   <g id="text_4">
    <g clip-path="url(#p99311f447b)">
     <!-- 3 -->
     <g style="opacity: 0" transform="translate(543.217777 117.366294) rotate(-305.514804) scale(0.12 -0.12)">
      <defs>
       <path id="DejaVuSans-33" d="M 2597 2516 
Q 3050 2419 3304 2112 
Q 3559 1806 3559 1356 
Q 3559 666 3084 287 
Q 2609 -91 1734 -91 
Q 1441 -91 1130 -33 
Q 819 25 488 141 
L 488 750 
Q 750 597 1062 519 
Q 1375 441 1716 441 
Q 2309 441 2620 675 
Q 2931 909 2931 1356 
Q 2931 1769 2642 2001 
Q 2353 2234 1838 2234 
L 1294 2234 
L 1294 2753 
L 1863 2753 
Q 2328 2753 2575 2939 
Q 2822 3125 2822 3475 
Q 2822 3834 2567 4026 
Q 2313 4219 1838 4219 
Q 1578 4219 1281 4162 
Q 984 4106 628 3988 
L 628 4550 
Q 988 4650 1302 4700 
Q 1616 4750 1894 4750 
Q 2613 4750 3031 4423 
Q 3450 4097 3450 3541 
Q 3450 3153 3228 2886 
Q 3006 2619 2597 2516 
z
" transform="scale(0.015625)"/>
      </defs>
      <use xlink:href="#DejaVuSans-33"/>
     </g>
    </g>
   </g>
   <g id="text_5">
    <g clip-path="url(#p99311f447b)">
     <!-- 4 -->
     <g style="opacity: 0" transform="translate(440.720467 22.249014) rotate(-309.92603) scale(0.12 -0.12)">
      <defs>
       <path id="DejaVuSans-34" d="M 2419 4116 
L 825 1625 
L 2419 1625 
L 2419 4116 
z
M 2253 4666 
L 3047 4666 
L 3047 1625 
L 3713 1625 
L 3713 1100 
L 3047 1100 
L 3047 0 
L 2419 0 
L 2419 1100 
L 313 1100 
L 313 1709 
L 2253 4666 
z
" transform="scale(0.015625)"/>
      </defs>
      <use xlink:href="#DejaVuSans-34"/>
     </g>
    </g>
   </g>
   <g id="text_6">
    <g clip-path="url(#p99311f447b)">
     <!-- 5 -->
     <g style="opacity: 0" transform="translate(516.842676 91.356929) rotate(-309.394108) scale(0.12 -0.12)">
      <defs>
       <path id="DejaVuSans-35" d="M 691 4666 
L 3169 4666 
L 3169 4134 
L 1269 4134 
L 1269 2991 
Q 1406 3038 1543 3061 
Q 1681 3084 1819 3084 
Q 2600 3084 3056 2656 
Q 3513 2228 3513 1497 
Q 3513 744 3044 326 
Q 2575 -91 1722 -91 
Q 1428 -91 1123 -41 
Q 819 9 494 109 
L 494 744 
Q 775 591 1075 516 
Q 1375 441 1709 441 
Q 2250 441 2565 725 
Q 2881 1009 2881 1497 
Q 2881 1984 2565 2268 
Q 2250 2553 1709 2553 
Q 1456 2553 1204 2497 
Q 953 2441 691 2322 
L 691 4666 
z
" transform="scale(0.015625)"/>
      </defs>
      <use xlink:href="#DejaVuSans-35"/>
     </g>
    </g>
   </g>
   <g id="text_7">
    <g clip-path="url(#p99311f447b)">
     <!-- 6 -->
     <g style="opacity: 0" transform="translate(487.664133 61.827941) rotate(-310.640079) scale(0.12 -0.12)">
      <defs>
       <path id="DejaVuSans-36" d="M 2113 2584 
Q 1688 2584 1439 2293 
Q 1191 2003 1191 1497 
Q 1191 994 1439 701 
Q 1688 409 2113 409 
Q 2538 409 2786 701 
Q 3034 994 3034 1497 
Q 3034 2003 2786 2293 
Q 2538 2584 2113 2584 
z
M 3366 4563 
L 3366 3988 
Q 3128 4100 2886 4159 
Q 2644 4219 2406 4219 
Q 1781 4219 1451 3797 
Q 1122 3375 1075 2522 
Q 1259 2794 1537 2939 
Q 1816 3084 2150 3084 
Q 2853 3084 3261 2657 
Q 3669 2231 3669 1497 
Q 3669 778 3244 343 
Q 2819 -91 2113 -91 
Q 1303 -91 875 529 
Q 447 1150 447 2328 
Q 447 3434 972 4092 
Q 1497 4750 2381 4750 
Q 2619 4750 2861 4703 
Q 3103 4656 3366 4563 
z
" transform="scale(0.015625)"/>
      </defs>
      <use xlink:href="#DejaVuSans-36"/>
     </g>
    </g>
   </g>
   <g id="text_8">
    <g clip-path="url(#p99311f447b)">
     <!-- 7 -->
     <g style="opacity: 0" transform="translate(508.477295 70.982648) rotate(-309.657665) scale(0.12 -0.12)">
      <defs>
       <path id="DejaVuSans-37" d="M 525 4666 
L 3525 4666 
L 3525 4397 
L 1831 0 
L 1172 0 
L 2766 4134 
L 525 4134 
L 525 4666 
z
" transform="scale(0.015625)"/>
      </defs>
      <use xlink:href="#DejaVuSans-37"/>
     </g>
    </g>
   </g>
   <g id="text_9">
    <g clip-path="url(#p99311f447b)">
     <!-- 7 -->
     <g style="opacity: 0" transform="translate(511.789685 25.952765) rotate(-308.300216) scale(0.12 -0.12)">
      <use xlink:href="#DejaVuSans-37"/>
     </g>
    </g>
   </g>
   <g id="text_10">
    <g clip-path="url(#p99311f447b)">
     <!-- 8 -->
     <g style="opacity: 0" transform="translate(566.052435 5.403464) rotate(-305.527788) scale(0.12 -0.12)">
      <defs>
       <path id="DejaVuSans-38" d="M 2034 2216 
Q 1584 2216 1326 1975 
Q 1069 1734 1069 1313 
Q 1069 891 1326 650 
Q 1584 409 2034 409 
Q 2484 409 2743 651 
Q 3003 894 3003 1313 
Q 3003 1734 2745 1975 
Q 2488 2216 2034 2216 
z
M 1403 2484 
Q 997 2584 770 2862 
Q 544 3141 544 3541 
Q 544 4100 942 4425 
Q 1341 4750 2034 4750 
Q 2731 4750 3128 4425 
Q 3525 4100 3525 3541 
Q 3525 3141 3298 2862 
Q 3072 2584 2669 2484 
Q 3125 2378 3379 2068 
Q 3634 1759 3634 1313 
Q 3634 634 3220 271 
Q 2806 -91 2034 -91 
Q 1263 -91 848 271 
Q 434 634 434 1313 
Q 434 1759 690 2068 
Q 947 2378 1403 2484 
z
M 1172 3481 
Q 1172 3119 1398 2916 
Q 1625 2713 2034 2713 
Q 2441 2713 2670 2916 
Q 2900 3119 2900 3481 
Q 2900 3844 2670 4047 
Q 2441 4250 2034 4250 
Q 1625 4250 1398 4047 
Q 1172 3844 1172 3481 
z
" transform="scale(0.015625)"/>
      </defs>
      <use xlink:href="#DejaVuSans-38"/>
     </g>
    </g>
   </g>
  </g>
 </g>
 <defs>
  <clipPath id="p99311f447b">
   <rect x="0" y="0" width="576" height="819.971235"/>
  </clipPath>
 </defs>
</svg>
