<?xml version="1.0" encoding="utf-8" standalone="no"?>
<!DOCTYPE svg PUBLIC "-//W3C//DTD SVG 1.1//EN"
  "http://www.w3.org/Graphics/SVG/1.1/DTD/svg11.dtd">
<svg xmlns:xlink="http://www.w3.org/1999/xlink" width="576pt" height="816.226927pt" viewBox="0 0 576 816.226927" xmlns="http://www.w3.org/2000/svg" version="1.1">
 <metadata>
  <rdf:RDF xmlns:dc="http://purl.org/dc/elements/1.1/" xmlns:cc="http://creativecommons.org/ns#" xmlns:rdf="http://www.w3.org/1999/02/22-rdf-syntax-ns#">
   <cc:Work>
    <dc:type rdf:resource="http://purl.org/dc/dcmitype/StillImage"/>
    <dc:date>2025-07-25T22:44:57.351989</dc:date>
    <dc:format>image/svg+xml</dc:format>
    <dc:creator>
     <cc:Agent>
      <dc:title>Matplotlib v3.10.3, https://matplotlib.org/</dc:title>
     </cc:Agent>
    </dc:creator>
   </cc:Work>
  </rdf:RDF>
 </metadata>
 <defs>
  <style type="text/css">*{stroke-linejoin: round; stroke-linecap: butt}</style>
 </defs>
 <g id="figure_1">
  <g id="patch_1">
   <path d="M 0 816.226927 
L 576 816.226927 
L 576 0 
L 0 0 
L 0 816.226927 
z
" style="fill: none; opacity: 0"/>
  </g>
  <g id="axes_1">
   <g id="QuadContourSet_1">
    <path d="M 3.272727 816.226927 
L 6.545455 816.226927 
L 9.818182 816.226927 
L 13.090909 816.226927 
L 16.363636 816.226927 
L 19.636364 816.226927 
L 22.909091 816.226927 
L 26.181818 816.226927 
L 29.454545 816.226927 
L 32.727273 816.226927 
L 36 816.226927 
L 39.272727 816.226927 
L 42.545455 816.226927 
L 45.818182 816.226927 
L 49.090909 816.226927 
L 52.363636 816.226927 
L 55.636364 816.226927 
L 58.909091 816.226927 
L 62.181818 816.226927 
L 65.454545 816.226927 
L 68.727273 816.226927 
L 72 816.226927 
L 75.272727 816.226927 
L 78.545455 816.226927 
L 81.818182 816.226927 
L 85.090909 816.226927 
L 88.363636 816.226927 
L 91.636364 816.226927 
L 94.909091 816.226927 
L 98.181818 816.226927 
L 101.454545 816.226927 
L 104.727273 816.226927 
L 108 816.226927 
L 110.744386 816.226927 
L 108 814.687065 
L 105.632239 812.948908 
L 104.727273 812.460697 
L 101.454545 810.434226 
L 100.372988 809.670888 
L 98.181818 808.561506 
L 95.857127 806.392868 
L 94.909091 805.632101 
L 91.902522 803.114848 
L 91.636364 802.899486 
L 88.363636 800.434441 
L 87.705031 799.836828 
L 85.090909 797.844321 
L 83.404347 796.558809 
L 81.818182 795.34982 
L 79.103662 793.280789 
L 78.545455 792.855318 
L 75.272727 790.360817 
L 74.802977 790.002769 
L 72 787.866315 
L 70.574106 786.724749 
L 68.727273 785.221424 
L 66.572665 783.446729 
L 65.454545 782.514365 
L 62.599116 780.16871 
L 62.181818 779.649071 
L 59.194494 776.89069 
L 58.909091 776.502366 
L 56.785276 773.61267 
L 58.909091 773.042161 
L 59.949465 773.61267 
L 62.181818 775.592714 
L 65.454545 776.667544 
L 65.819511 776.89069 
L 68.727273 778.66854 
L 71.180873 780.16871 
L 72 780.908546 
L 75.272727 782.55446 
L 76.877907 783.446729 
L 78.545455 784.373667 
L 81.818182 786.192875 
L 82.775016 786.724749 
L 85.090909 788.012082 
L 86.176028 786.724749 
L 85.090909 784.981461 
L 84.134835 783.446729 
L 81.818182 780.324059 
L 81.715198 780.16871 
L 78.545455 777.063247 
L 78.415792 776.89069 
L 75.272727 773.95081 
L 74.976337 773.61267 
L 72 771.402375 
L 70.562225 770.33465 
L 68.727273 768.971973 
L 66.148113 767.056631 
L 65.454545 766.541572 
L 62.181818 764.233258 
L 61.734001 763.778611 
L 58.909091 761.650809 
L 57.352478 760.500591 
L 55.636364 758.775619 
L 53.558711 757.222571 
L 52.363636 756.019862 
L 50.3015 753.944551 
L 49.090909 752.793869 
L 46.289635 750.666532 
L 45.818182 750.312308 
L 42.545455 747.853362 
L 41.926764 747.388512 
L 39.272727 745.394415 
L 37.563894 744.110492 
L 36 742.618346 
L 33.388309 740.832472 
L 32.727273 739.905764 
L 30.675215 737.554452 
L 29.454545 735.675368 
L 28.545786 734.276433 
L 26.456142 730.998413 
L 26.181818 730.306019 
L 24.909944 727.720393 
L 24.957721 724.442373 
L 25.909606 721.164354 
L 26.181818 720.301113 
L 26.75409 717.886334 
L 27.157937 714.608314 
L 27.640375 711.330294 
L 29.269141 708.052274 
L 29.454545 707.77444 
L 31.174358 704.774255 
L 32.727273 702.940088 
L 34.742027 701.496235 
L 36 700.42936 
L 38.396997 698.218215 
L 38.775898 694.940195 
L 38.646075 691.662175 
L 38.509741 688.384156 
L 39.272727 688.292512 
L 39.381858 688.384156 
L 42.545455 691.167295 
L 43.191823 691.662175 
L 45.818182 693.93153 
L 47.29732 694.940195 
L 49.090909 696.435146 
L 52.009803 698.218215 
L 52.363636 698.496133 
L 55.636364 700.942406 
L 56.330411 701.496235 
L 58.909091 703.553946 
L 60.438355 704.774255 
L 62.181818 706.165487 
L 64.500648 708.052274 
L 65.454545 708.858463 
L 68.190093 711.330294 
L 68.727273 711.817284 
L 71.921762 714.608314 
L 72 714.67899 
L 75.272727 717.24845 
L 75.966429 717.886334 
L 78.545455 719.984919 
L 79.987028 721.164354 
L 81.818182 722.655906 
L 84.011397 724.442373 
L 85.090909 725.321682 
L 88.035765 727.720393 
L 88.363636 727.987458 
L 91.636364 730.675725 
L 92.019115 730.998413 
L 94.909091 733.434879 
L 95.907287 734.276433 
L 98.181818 736.07649 
L 99.914903 737.554452 
L 101.454545 738.673942 
L 104.062961 740.832472 
L 104.727273 741.332116 
L 108 743.760038 
L 108.42132 744.110492 
L 111.272727 746.2551 
L 112.779678 747.388512 
L 114.545455 748.716592 
L 117.138037 750.666532 
L 117.818182 751.167467 
L 121.090909 753.204166 
L 122.312949 753.944551 
L 124.363636 755.186982 
L 127.636364 757.175611 
L 127.710807 757.222571 
L 130.909091 759.27835 
L 132.868504 760.500591 
L 134.181818 761.335646 
L 137.454545 763.417155 
L 137.99053 763.778611 
L 140.727273 765.624206 
L 142.851344 767.056631 
L 144 767.831257 
L 147.272727 770.038309 
L 147.712158 770.33465 
L 150.545455 772.215744 
L 152.877614 773.61267 
L 153.818182 774.171792 
L 157.090909 776.140175 
L 158.380973 776.89069 
L 160.363636 778.073352 
L 163.636364 780.036131 
L 163.842171 780.16871 
L 166.909091 782.186832 
L 168.888473 783.446729 
L 170.181818 784.288032 
L 173.454545 786.36693 
L 174.004942 786.724749 
L 176.727273 788.49457 
L 179.047177 790.002769 
L 180 790.622211 
L 183.272727 792.674412 
L 184.376765 793.280789 
L 186.545455 794.468406 
L 189.818182 796.262633 
L 190.360081 796.558809 
L 193.090909 798.05754 
L 196.34865 799.836828 
L 196.363636 799.845035 
L 199.636364 801.655114 
L 202.295301 803.114848 
L 202.909091 803.453205 
L 206.181818 805.254893 
L 208.24518 806.392868 
L 209.454545 807.060011 
L 212.727273 808.864809 
L 214.188846 809.670888 
L 216 810.680765 
L 219.272727 812.755538 
L 219.534561 812.948908 
L 222.545455 814.920306 
L 224.541042 816.226927 
L 225.818182 816.226927 
L 229.090909 816.226927 
L 229.754789 816.226927 
L 229.090909 815.854705 
L 225.818182 815.903145 
L 222.545455 813.927147 
L 221.051401 812.948908 
L 219.272727 811.635318 
L 216 809.707402 
L 215.934514 809.670888 
L 212.727273 807.902047 
L 209.990849 806.392868 
L 209.454545 806.00075 
L 206.181818 804.292131 
L 204.047184 803.114848 
L 202.909091 802.374191 
L 199.636364 800.686955 
L 198.09937 799.836828 
L 196.363636 798.820234 
L 193.090909 797.080118 
L 192.141034 796.558809 
L 189.818182 795.289252 
L 186.545455 793.488395 
L 186.166348 793.280789 
L 183.272727 791.69151 
L 180.601765 790.002769 
L 180 789.506054 
L 176.727273 787.483914 
L 175.55953 786.724749 
L 173.454545 785.356273 
L 170.517294 783.446729 
L 170.181818 783.142832 
L 166.909091 781.137067 
L 165.437488 780.16871 
L 163.636364 779.008444 
L 160.432823 776.89069 
L 160.363636 776.821279 
L 157.090909 774.933005 
L 154.913971 773.61267 
L 153.818182 772.913512 
L 150.545455 770.962246 
L 149.600172 770.33465 
L 147.272727 768.765076 
L 144.739358 767.056631 
L 144 766.508083 
L 140.727273 764.350973 
L 139.878544 763.778611 
L 137.454545 762.143922 
L 135.017731 760.500591 
L 134.181818 759.868175 
L 130.909091 757.80825 
L 129.997919 757.222571 
L 127.636364 755.732875 
L 124.882788 753.944551 
L 124.363636 753.559486 
L 121.090909 751.582832 
L 119.625518 750.666532 
L 117.818182 749.489628 
L 115.0246 747.388512 
L 114.545455 746.98789 
L 111.272727 744.566644 
L 110.666242 744.110492 
L 108 741.892714 
L 106.538992 740.832472 
L 104.727273 739.289085 
L 102.54862 737.554452 
L 101.454545 736.632066 
L 98.660448 734.276433 
L 98.181818 733.872911 
L 94.909091 731.113757 
L 94.772277 730.998413 
L 91.636364 728.354603 
L 90.863681 727.720393 
L 88.363636 725.683989 
L 86.839326 724.442373 
L 85.090909 722.973339 
L 82.85386 721.164354 
L 81.818182 720.214608 
L 78.863376 717.886334 
L 78.545455 717.598769 
L 75.272727 714.633861 
L 75.240359 714.608314 
L 72 711.668446 
L 71.615253 711.330294 
L 68.727273 708.718071 
L 67.991192 708.052274 
L 65.454545 705.786837 
L 64.205502 704.774255 
L 62.181818 703.159414 
L 60.097557 701.496235 
L 58.909091 700.547873 
L 55.989612 698.218215 
L 55.636364 697.915335 
L 52.363636 695.324792 
L 51.881668 694.940195 
L 49.090909 692.592009 
L 47.909243 691.662175 
L 45.818182 689.861813 
L 43.984593 688.384156 
L 42.545455 687.156868 
L 40.140732 685.106136 
L 39.272727 684.365906 
L 36 681.965875 
L 35.788436 681.828116 
L 32.727273 679.838288 
L 30.750765 678.550096 
L 29.454545 677.706738 
L 26.181818 675.661825 
L 25.469806 675.272076 
L 22.909091 673.870364 
L 19.636364 672.10493 
L 19.481365 671.994057 
L 16.363636 670.28744 
L 13.492923 668.716037 
L 13.090909 668.495978 
L 9.818182 667.035214 
L 7.504481 665.438017 
L 6.545455 664.913055 
L 3.272727 664.240976 
L 0.614598 665.438017 
L -0 668.206224 
L -0 668.716037 
L -0 671.994057 
L -0 675.272076 
L -0 678.550096 
L -0 681.828116 
L -0 685.106136 
L -0 688.384156 
L -0 691.662175 
L -0 694.940195 
L -0 698.218215 
L -0 701.496235 
L -0 704.774255 
L -0 708.052274 
L -0 711.330294 
L -0 714.608314 
L -0 717.886334 
L -0 721.164354 
L -0 724.442373 
L -0 727.720393 
L -0 730.998413 
L -0 734.276433 
L -0 737.554452 
L -0 740.832472 
L -0 744.110492 
L -0 747.388512 
L -0 750.666532 
L -0 753.944551 
L -0 757.222571 
L -0 760.500591 
L -0 763.778611 
L -0 767.056631 
L -0 770.33465 
L -0 773.61267 
L -0 776.89069 
L -0 780.16871 
L -0 783.446729 
L -0 786.724749 
L -0 790.002769 
L -0 793.280789 
L -0 796.558809 
L -0 799.836828 
L -0 803.114848 
L -0 806.392868 
L -0 809.670888 
L -0 812.948908 
L -0 816.226927 
z
" clip-path="url(#p25c8f3a9e1)" style="fill: #f5f9fe; fill-opacity: 0.9"/>
    <path d="M 108 814.687065 
L 110.744386 816.226927 
L 111.272727 816.226927 
L 114.545455 816.226927 
L 117.818182 816.226927 
L 121.090909 816.226927 
L 124.363636 816.226927 
L 127.636364 816.226927 
L 128.255023 816.226927 
L 127.636364 815.832113 
L 124.363636 813.896367 
L 123.124153 812.948908 
L 121.090909 811.69889 
L 117.818182 809.675967 
L 117.811435 809.670888 
L 114.545455 807.713659 
L 112.499686 806.392868 
L 111.272727 805.635749 
L 108 803.666248 
L 107.187452 803.114848 
L 104.727273 801.596746 
L 101.952144 799.836828 
L 101.454545 799.4562 
L 99.304852 796.558809 
L 98.181818 795.045165 
L 96.872756 793.280789 
L 94.909091 790.63413 
L 94.440659 790.002769 
L 91.638054 786.724749 
L 91.636364 786.723075 
L 88.363636 783.493822 
L 88.325328 783.446729 
L 85.090909 780.246422 
L 85.021927 780.16871 
L 81.818182 776.99406 
L 81.713864 776.89069 
L 78.545455 773.751056 
L 78.400632 773.61267 
L 75.272727 770.814103 
L 74.627107 770.33465 
L 72 768.383701 
L 70.212995 767.056631 
L 68.727273 765.752473 
L 65.889147 763.778611 
L 65.454545 763.341398 
L 62.387761 760.500591 
L 62.181818 760.293333 
L 59.13055 757.222571 
L 58.909091 756.961797 
L 55.913414 753.944551 
L 55.636364 753.56565 
L 52.763667 750.666532 
L 52.363636 749.993507 
L 49.090909 747.44366 
L 49.016819 747.388512 
L 48.262488 744.110492 
L 48.320398 740.832472 
L 48.579855 737.554452 
L 49.090909 735.34195 
L 49.337774 734.276433 
L 50.078926 730.998413 
L 51.875999 727.720393 
L 52.363636 727.373628 
L 55.636364 725.472067 
L 58.028568 724.442373 
L 58.909091 724.192271 
L 60.440769 724.442373 
L 62.181818 724.701772 
L 65.454545 725.345627 
L 68.727273 725.948301 
L 72 724.485904 
L 72.025188 724.442373 
L 72.221501 721.164354 
L 75.272727 720.817161 
L 75.778262 721.164354 
L 78.545455 723.530735 
L 80.040937 724.442373 
L 81.818182 725.877653 
L 85.090909 727.625151 
L 85.207836 727.720393 
L 88.363636 730.290927 
L 89.224152 730.998413 
L 91.636364 732.955209 
L 93.197396 734.276433 
L 94.909091 735.864255 
L 97.129283 737.554452 
L 98.181818 738.515309 
L 101.454545 740.531672 
L 101.81804 740.832472 
L 104.727273 743.020572 
L 106.176398 744.110492 
L 108 745.533799 
L 110.497218 747.388512 
L 111.272727 748.114412 
L 114.545455 750.405048 
L 114.893115 750.666532 
L 117.818182 752.820881 
L 119.636865 753.944551 
L 121.090909 754.847847 
L 124.363636 756.808315 
L 125.047384 757.222571 
L 127.636364 758.791131 
L 130.457904 760.500591 
L 130.909091 760.79849 
L 134.181818 762.834167 
L 135.713827 763.778611 
L 137.454545 764.872874 
L 140.727273 766.897439 
L 140.96333 767.056631 
L 144 769.10449 
L 145.824144 770.33465 
L 147.272727 771.312857 
L 150.545455 773.469243 
L 150.784906 773.61267 
L 153.818182 775.415805 
L 156.299268 776.89069 
L 157.090909 777.361282 
L 160.363636 779.3111 
L 161.81363 780.16871 
L 163.636364 781.252236 
L 166.909091 783.236596 
L 167.239224 783.446729 
L 170.181818 785.360844 
L 172.351932 786.724749 
L 173.454545 787.433292 
L 176.727273 789.505227 
L 177.492589 790.002769 
L 180 791.632868 
L 182.650116 793.280789 
L 183.272727 793.656207 
L 186.545455 795.448417 
L 188.573124 796.558809 
L 189.818182 797.240627 
L 193.090909 799.034961 
L 194.559067 799.836828 
L 196.363636 800.825046 
L 199.636364 802.623274 
L 200.531777 803.114848 
L 202.909091 804.425362 
L 206.181818 806.217655 
L 206.499512 806.392868 
L 209.454545 808.023005 
L 212.443053 809.670888 
L 212.727273 809.841267 
L 216 811.654128 
L 218.01772 812.948908 
L 219.272727 813.77063 
L 222.545455 815.913465 
L 223.024202 816.226927 
L 224.541042 816.226927 
L 222.545455 814.920306 
L 219.534561 812.948908 
L 219.272727 812.755538 
L 216 810.680765 
L 214.188846 809.670888 
L 212.727273 808.864809 
L 209.454545 807.060011 
L 208.24518 806.392868 
L 206.181818 805.254893 
L 202.909091 803.453205 
L 202.295301 803.114848 
L 199.636364 801.655114 
L 196.363636 799.845035 
L 196.34865 799.836828 
L 193.090909 798.05754 
L 190.360081 796.558809 
L 189.818182 796.262633 
L 186.545455 794.468406 
L 184.376765 793.280789 
L 183.272727 792.674412 
L 180 790.622211 
L 179.047177 790.002769 
L 176.727273 788.49457 
L 174.004942 786.724749 
L 173.454545 786.36693 
L 170.181818 784.288032 
L 168.888473 783.446729 
L 166.909091 782.186832 
L 163.842171 780.16871 
L 163.636364 780.036131 
L 160.363636 778.073352 
L 158.380973 776.89069 
L 157.090909 776.140175 
L 153.818182 774.171792 
L 152.877614 773.61267 
L 150.545455 772.215744 
L 147.712158 770.33465 
L 147.272727 770.038309 
L 144 767.831257 
L 142.851344 767.056631 
L 140.727273 765.624206 
L 137.99053 763.778611 
L 137.454545 763.417155 
L 134.181818 761.335646 
L 132.868504 760.500591 
L 130.909091 759.27835 
L 127.710807 757.222571 
L 127.636364 757.175611 
L 124.363636 755.186982 
L 122.312949 753.944551 
L 121.090909 753.204166 
L 117.818182 751.167467 
L 117.138037 750.666532 
L 114.545455 748.716592 
L 112.779678 747.388512 
L 111.272727 746.2551 
L 108.42132 744.110492 
L 108 743.760038 
L 104.727273 741.332116 
L 104.062961 740.832472 
L 101.454545 738.673942 
L 99.914903 737.554452 
L 98.181818 736.07649 
L 95.907287 734.276433 
L 94.909091 733.434879 
L 92.019115 730.998413 
L 91.636364 730.675725 
L 88.363636 727.987458 
L 88.035765 727.720393 
L 85.090909 725.321682 
L 84.011397 724.442373 
L 81.818182 722.655906 
L 79.987028 721.164354 
L 78.545455 719.984919 
L 75.966429 717.886334 
L 75.272727 717.24845 
L 72 714.67899 
L 71.921762 714.608314 
L 68.727273 711.817284 
L 68.190093 711.330294 
L 65.454545 708.858463 
L 64.500648 708.052274 
L 62.181818 706.165487 
L 60.438355 704.774255 
L 58.909091 703.553946 
L 56.330411 701.496235 
L 55.636364 700.942406 
L 52.363636 698.496133 
L 52.009803 698.218215 
L 49.090909 696.435146 
L 47.29732 694.940195 
L 45.818182 693.93153 
L 43.191823 691.662175 
L 42.545455 691.167295 
L 39.381858 688.384156 
L 39.272727 688.292512 
L 38.509741 688.384156 
L 38.646075 691.662175 
L 38.775898 694.940195 
L 38.396997 698.218215 
L 36 700.42936 
L 34.742027 701.496235 
L 32.727273 702.940088 
L 31.174358 704.774255 
L 29.454545 707.77444 
L 29.269141 708.052274 
L 27.640375 711.330294 
L 27.157937 714.608314 
L 26.75409 717.886334 
L 26.181818 720.301113 
L 25.909606 721.164354 
L 24.957721 724.442373 
L 24.909944 727.720393 
L 26.181818 730.306019 
L 26.456142 730.998413 
L 28.545786 734.276433 
L 29.454545 735.675368 
L 30.675215 737.554452 
L 32.727273 739.905764 
L 33.388309 740.832472 
L 36 742.618346 
L 37.563894 744.110492 
L 39.272727 745.394415 
L 41.926764 747.388512 
L 42.545455 747.853362 
L 45.818182 750.312308 
L 46.289635 750.666532 
L 49.090909 752.793869 
L 50.3015 753.944551 
L 52.363636 756.019862 
L 53.558711 757.222571 
L 55.636364 758.775619 
L 57.352478 760.500591 
L 58.909091 761.650809 
L 61.734001 763.778611 
L 62.181818 764.233258 
L 65.454545 766.541572 
L 66.148113 767.056631 
L 68.727273 768.971973 
L 70.562225 770.33465 
L 72 771.402375 
L 74.976337 773.61267 
L 75.272727 773.95081 
L 78.415792 776.89069 
L 78.545455 777.063247 
L 81.715198 780.16871 
L 81.818182 780.324059 
L 84.134835 783.446729 
L 85.090909 784.981461 
L 86.176028 786.724749 
L 85.090909 788.012082 
L 82.775016 786.724749 
L 81.818182 786.192875 
L 78.545455 784.373667 
L 76.877907 783.446729 
L 75.272727 782.55446 
L 72 780.908546 
L 71.180873 780.16871 
L 68.727273 778.66854 
L 65.819511 776.89069 
L 65.454545 776.667544 
L 62.181818 775.592714 
L 59.949465 773.61267 
L 58.909091 773.042161 
L 56.785276 773.61267 
L 58.909091 776.502366 
L 59.194494 776.89069 
L 62.181818 779.649071 
L 62.599116 780.16871 
L 65.454545 782.514365 
L 66.572665 783.446729 
L 68.727273 785.221424 
L 70.574106 786.724749 
L 72 787.866315 
L 74.802977 790.002769 
L 75.272727 790.360817 
L 78.545455 792.855318 
L 79.103662 793.280789 
L 81.818182 795.34982 
L 83.404347 796.558809 
L 85.090909 797.844321 
L 87.705031 799.836828 
L 88.363636 800.434441 
L 91.636364 802.899486 
L 91.902522 803.114848 
L 94.909091 805.632101 
L 95.857127 806.392868 
L 98.181818 808.561506 
L 100.372988 809.670888 
L 101.454545 810.434226 
L 104.727273 812.460697 
L 105.632239 812.948908 
z
" clip-path="url(#p25c8f3a9e1)" style="fill: #eff6fc; fill-opacity: 0.9"/>
    <path d="M 124.363636 813.896367 
L 127.636364 815.832113 
L 128.255023 816.226927 
L 130.909091 816.226927 
L 134.181818 816.226927 
L 134.852252 816.226927 
L 134.181818 815.818813 
L 130.909091 813.613668 
L 129.922498 812.948908 
L 127.636364 811.408523 
L 125.057482 809.670888 
L 124.363636 809.175615 
L 121.090909 806.998234 
L 120.192466 806.392868 
L 117.818182 804.764126 
L 115.348683 803.114848 
L 114.545455 802.500408 
L 111.272727 800.460747 
L 110.361376 799.836828 
L 108 798.114199 
L 105.656913 796.558809 
L 104.727273 795.880266 
L 101.564703 793.280789 
L 101.454545 793.181026 
L 98.215867 790.002769 
L 98.181818 789.970065 
L 94.909091 786.744081 
L 94.89155 786.724749 
L 91.636364 783.499126 
L 91.583487 783.446729 
L 88.363636 780.256121 
L 88.275423 780.16871 
L 85.090909 777.013117 
L 84.96736 776.89069 
L 81.818182 773.770112 
L 81.659297 773.61267 
L 78.545455 770.527107 
L 78.328587 770.33465 
L 75.272727 767.533913 
L 74.606083 767.056631 
L 72 763.91218 
L 71.834464 763.778611 
L 70.98264 760.500591 
L 70.523056 757.222571 
L 70.725117 753.944551 
L 71.504821 750.666532 
L 72 748.675304 
L 72.475709 747.388512 
L 75.272727 745.916135 
L 78.545455 745.479551 
L 81.818182 744.94697 
L 85.090909 745.684147 
L 88.363636 746.938573 
L 89.492729 747.388512 
L 91.636364 748.198099 
L 94.909091 749.546908 
L 97.718719 750.666532 
L 98.181818 750.837105 
L 101.454545 752.02792 
L 104.727273 751.605182 
L 105.319181 750.666532 
L 105.832465 747.388512 
L 108 747.285942 
L 108.138101 747.388512 
L 111.272727 750.322615 
L 111.78199 750.666532 
L 114.545455 753.185478 
L 115.994823 753.944551 
L 117.818182 755.50314 
L 121.090909 756.510312 
L 122.286335 757.222571 
L 124.363636 759.146691 
L 127.636364 760.412465 
L 127.78182 760.500591 
L 130.909091 762.565389 
L 133.036322 763.778611 
L 134.181818 764.830903 
L 137.454545 766.400936 
L 138.531428 767.056631 
L 140.727273 768.632711 
L 143.886872 770.33465 
L 144 770.437894 
L 147.272727 772.587804 
L 148.829929 773.61267 
L 150.545455 774.998035 
L 153.818182 776.659818 
L 154.20656 776.89069 
L 157.090909 778.605295 
L 159.720922 780.16871 
L 160.363636 780.723886 
L 163.636364 782.496249 
L 165.235284 783.446729 
L 166.909091 784.499813 
L 170.181818 786.433656 
L 170.644977 786.724749 
L 173.454545 788.530187 
L 175.829222 790.002769 
L 176.727273 790.67031 
L 180 792.643525 
L 181.024821 793.280789 
L 183.272727 794.636218 
L 186.545455 796.428428 
L 186.78354 796.558809 
L 189.818182 798.220638 
L 192.769483 799.836828 
L 193.090909 800.099865 
L 196.363636 801.805057 
L 198.755426 803.114848 
L 199.636364 803.75496 
L 202.909091 805.397519 
L 204.728334 806.392868 
L 206.181818 807.344921 
L 209.454545 808.985999 
L 210.696621 809.670888 
L 212.727273 810.888186 
L 216 812.627491 
L 216.500879 812.948908 
L 219.272727 814.763789 
L 221.507361 816.226927 
L 222.545455 816.226927 
L 223.024202 816.226927 
L 222.545455 815.913465 
L 219.272727 813.77063 
L 218.01772 812.948908 
L 216 811.654128 
L 212.727273 809.841267 
L 212.443053 809.670888 
L 209.454545 808.023005 
L 206.499512 806.392868 
L 206.181818 806.217655 
L 202.909091 804.425362 
L 200.531777 803.114848 
L 199.636364 802.623274 
L 196.363636 800.825046 
L 194.559067 799.836828 
L 193.090909 799.034961 
L 189.818182 797.240627 
L 188.573124 796.558809 
L 186.545455 795.448417 
L 183.272727 793.656207 
L 182.650116 793.280789 
L 180 791.632868 
L 177.492589 790.002769 
L 176.727273 789.505227 
L 173.454545 787.433292 
L 172.351932 786.724749 
L 170.181818 785.360844 
L 167.239224 783.446729 
L 166.909091 783.236596 
L 163.636364 781.252236 
L 161.81363 780.16871 
L 160.363636 779.3111 
L 157.090909 777.361282 
L 156.299268 776.89069 
L 153.818182 775.415805 
L 150.784906 773.61267 
L 150.545455 773.469243 
L 147.272727 771.312857 
L 145.824144 770.33465 
L 144 769.10449 
L 140.96333 767.056631 
L 140.727273 766.897439 
L 137.454545 764.872874 
L 135.713827 763.778611 
L 134.181818 762.834167 
L 130.909091 760.79849 
L 130.457904 760.500591 
L 127.636364 758.791131 
L 125.047384 757.222571 
L 124.363636 756.808315 
L 121.090909 754.847847 
L 119.636865 753.944551 
L 117.818182 752.820881 
L 114.893115 750.666532 
L 114.545455 750.405048 
L 111.272727 748.114412 
L 110.497218 747.388512 
L 108 745.533799 
L 106.176398 744.110492 
L 104.727273 743.020572 
L 101.81804 740.832472 
L 101.454545 740.531672 
L 98.181818 738.515309 
L 97.129283 737.554452 
L 94.909091 735.864255 
L 93.197396 734.276433 
L 91.636364 732.955209 
L 89.224152 730.998413 
L 88.363636 730.290927 
L 85.207836 727.720393 
L 85.090909 727.625151 
L 81.818182 725.877653 
L 80.040937 724.442373 
L 78.545455 723.530735 
L 75.778262 721.164354 
L 75.272727 720.817161 
L 72.221501 721.164354 
L 72.025188 724.442373 
L 72 724.485904 
L 68.727273 725.948301 
L 65.454545 725.345627 
L 62.181818 724.701772 
L 60.440769 724.442373 
L 58.909091 724.192271 
L 58.028568 724.442373 
L 55.636364 725.472067 
L 52.363636 727.373628 
L 51.875999 727.720393 
L 50.078926 730.998413 
L 49.337774 734.276433 
L 49.090909 735.34195 
L 48.579855 737.554452 
L 48.320398 740.832472 
L 48.262488 744.110492 
L 49.016819 747.388512 
L 49.090909 747.44366 
L 52.363636 749.993507 
L 52.763667 750.666532 
L 55.636364 753.56565 
L 55.913414 753.944551 
L 58.909091 756.961797 
L 59.13055 757.222571 
L 62.181818 760.293333 
L 62.387761 760.500591 
L 65.454545 763.341398 
L 65.889147 763.778611 
L 68.727273 765.752473 
L 70.212995 767.056631 
L 72 768.383701 
L 74.627107 770.33465 
L 75.272727 770.814103 
L 78.400632 773.61267 
L 78.545455 773.751056 
L 81.713864 776.89069 
L 81.818182 776.99406 
L 85.021927 780.16871 
L 85.090909 780.246422 
L 88.325328 783.446729 
L 88.363636 783.493822 
L 91.636364 786.723075 
L 91.638054 786.724749 
L 94.440659 790.002769 
L 94.909091 790.63413 
L 96.872756 793.280789 
L 98.181818 795.045165 
L 99.304852 796.558809 
L 101.454545 799.4562 
L 101.952144 799.836828 
L 104.727273 801.596746 
L 107.187452 803.114848 
L 108 803.666248 
L 111.272727 805.635749 
L 112.499686 806.392868 
L 114.545455 807.713659 
L 117.811435 809.670888 
L 117.818182 809.675967 
L 121.090909 811.69889 
L 123.124153 812.948908 
z
" clip-path="url(#p25c8f3a9e1)" style="fill: #eaf3fb; fill-opacity: 0.9"/>
    <path d="M 130.909091 813.613668 
L 134.181818 815.818813 
L 134.852252 816.226927 
L 137.454545 816.226927 
L 140.727273 816.226927 
L 141.054249 816.226927 
L 140.727273 816.010874 
L 137.454545 813.793661 
L 136.108828 812.948908 
L 134.181818 811.593482 
L 131.627911 809.670888 
L 130.909091 809.136144 
L 127.636364 806.69917 
L 127.176244 806.392868 
L 124.363636 804.455668 
L 122.556602 803.114848 
L 121.090909 802.082198 
L 118.117322 799.836828 
L 117.818182 799.6218 
L 114.545455 797.23011 
L 113.608844 796.558809 
L 111.272727 794.884433 
L 109.035298 793.280789 
L 108 792.565524 
L 104.727273 790.158527 
L 104.555973 790.002769 
L 101.454545 787.02853 
L 101.137774 786.724749 
L 98.181818 783.890017 
L 97.719575 783.446729 
L 94.98197 780.16871 
L 94.909091 779.954793 
L 93.865189 776.89069 
L 93.08837 773.61267 
L 92.874433 770.33465 
L 93.773804 767.056631 
L 94.670771 763.778611 
L 94.909091 763.639532 
L 98.181818 763.702442 
L 98.981176 763.778611 
L 101.454545 763.992423 
L 104.727273 764.07742 
L 108 764.724378 
L 111.272727 765.751169 
L 114.545455 766.981015 
L 114.778791 767.056631 
L 117.818182 768.041582 
L 121.090909 769.102148 
L 124.363636 770.186882 
L 124.660447 770.33465 
L 127.636364 771.708473 
L 130.909091 772.904405 
L 131.88579 773.61267 
L 134.181818 774.687321 
L 137.454545 775.150762 
L 140.66411 776.89069 
L 140.727273 776.908511 
L 140.826939 776.89069 
L 142.043263 773.61267 
L 144 773.489777 
L 144.557428 773.61267 
L 147.272727 775.550277 
L 150.545455 776.562397 
L 151.215985 776.89069 
L 153.818182 779.242378 
L 157.090909 779.849308 
L 157.628214 780.16871 
L 160.363636 782.531565 
L 162.595945 783.446729 
L 163.636364 784.352236 
L 166.909091 785.816449 
L 168.500696 786.724749 
L 170.181818 788.285408 
L 173.454545 789.627082 
L 174.060377 790.002769 
L 176.727273 791.985131 
L 179.107577 793.280789 
L 180 794.106427 
L 183.272727 795.61623 
L 184.993957 796.558809 
L 186.545455 798.011303 
L 189.818182 799.200649 
L 190.9799 799.836828 
L 193.090909 801.56436 
L 196.363636 802.785068 
L 196.965842 803.114848 
L 199.636364 805.055318 
L 202.909091 806.369675 
L 202.951481 806.392868 
L 206.181818 808.508786 
L 208.720331 809.670888 
L 209.454545 810.416341 
L 212.727273 811.935105 
L 214.66189 812.948908 
L 216 814.252968 
L 219.272727 815.756949 
L 219.99052 816.226927 
L 221.507361 816.226927 
L 219.272727 814.763789 
L 216.500879 812.948908 
L 216 812.627491 
L 212.727273 810.888186 
L 210.696621 809.670888 
L 209.454545 808.985999 
L 206.181818 807.344921 
L 204.728334 806.392868 
L 202.909091 805.397519 
L 199.636364 803.75496 
L 198.755426 803.114848 
L 196.363636 801.805057 
L 193.090909 800.099865 
L 192.769483 799.836828 
L 189.818182 798.220638 
L 186.78354 796.558809 
L 186.545455 796.428428 
L 183.272727 794.636218 
L 181.024821 793.280789 
L 180 792.643525 
L 176.727273 790.67031 
L 175.829222 790.002769 
L 173.454545 788.530187 
L 170.644977 786.724749 
L 170.181818 786.433656 
L 166.909091 784.499813 
L 165.235284 783.446729 
L 163.636364 782.496249 
L 160.363636 780.723886 
L 159.720922 780.16871 
L 157.090909 778.605295 
L 154.20656 776.89069 
L 153.818182 776.659818 
L 150.545455 774.998035 
L 148.829929 773.61267 
L 147.272727 772.587804 
L 144 770.437894 
L 143.886872 770.33465 
L 140.727273 768.632711 
L 138.531428 767.056631 
L 137.454545 766.400936 
L 134.181818 764.830903 
L 133.036322 763.778611 
L 130.909091 762.565389 
L 127.78182 760.500591 
L 127.636364 760.412465 
L 124.363636 759.146691 
L 122.286335 757.222571 
L 121.090909 756.510312 
L 117.818182 755.50314 
L 115.994823 753.944551 
L 114.545455 753.185478 
L 111.78199 750.666532 
L 111.272727 750.322615 
L 108.138101 747.388512 
L 108 747.285942 
L 105.832465 747.388512 
L 105.319181 750.666532 
L 104.727273 751.605182 
L 101.454545 752.02792 
L 98.181818 750.837105 
L 97.718719 750.666532 
L 94.909091 749.546908 
L 91.636364 748.198099 
L 89.492729 747.388512 
L 88.363636 746.938573 
L 85.090909 745.684147 
L 81.818182 744.94697 
L 78.545455 745.479551 
L 75.272727 745.916135 
L 72.475709 747.388512 
L 72 748.675304 
L 71.504821 750.666532 
L 70.725117 753.944551 
L 70.523056 757.222571 
L 70.98264 760.500591 
L 71.834464 763.778611 
L 72 763.91218 
L 74.606083 767.056631 
L 75.272727 767.533913 
L 78.328587 770.33465 
L 78.545455 770.527107 
L 81.659297 773.61267 
L 81.818182 773.770112 
L 84.96736 776.89069 
L 85.090909 777.013117 
L 88.275423 780.16871 
L 88.363636 780.256121 
L 91.583487 783.446729 
L 91.636364 783.499126 
L 94.89155 786.724749 
L 94.909091 786.744081 
L 98.181818 789.970065 
L 98.215867 790.002769 
L 101.454545 793.181026 
L 101.564703 793.280789 
L 104.727273 795.880266 
L 105.656913 796.558809 
L 108 798.114199 
L 110.361376 799.836828 
L 111.272727 800.460747 
L 114.545455 802.500408 
L 115.348683 803.114848 
L 117.818182 804.764126 
L 120.192466 806.392868 
L 121.090909 806.998234 
L 124.363636 809.175615 
L 125.057482 809.670888 
L 127.636364 811.408523 
L 129.922498 812.948908 
z
" clip-path="url(#p25c8f3a9e1)" style="fill: #e5eff9; fill-opacity: 0.9"/>
    <path d="M 137.454545 813.793661 
L 140.727273 816.010874 
L 141.054249 816.226927 
L 144 816.226927 
L 147.272727 816.226927 
L 147.384635 816.226927 
L 147.272727 816.15385 
L 144 813.977341 
L 142.443563 812.948908 
L 140.727273 811.814849 
L 137.48259 809.670888 
L 137.454545 809.649668 
L 134.181818 807.242524 
L 133.045317 806.392868 
L 130.909091 804.795811 
L 128.660632 803.114848 
L 127.636364 801.920962 
L 124.363636 799.902385 
L 124.275947 799.836828 
L 121.090909 796.812182 
L 120.717732 796.558809 
L 118.860982 793.280789 
L 117.818182 790.684344 
L 117.54482 790.002769 
L 116.140398 786.724749 
L 116.467339 783.446729 
L 117.647918 780.16871 
L 117.818182 780.069374 
L 121.090909 779.582655 
L 124.363636 779.722661 
L 127.636364 780.124 
L 127.84682 780.16871 
L 130.909091 780.857291 
L 134.181818 781.818949 
L 137.454545 782.741658 
L 139.312196 783.446729 
L 140.727273 784.047824 
L 144 785.439205 
L 147.150936 786.724749 
L 147.272727 786.77455 
L 150.545455 787.970931 
L 153.818182 789.232989 
L 155.863023 790.002769 
L 157.090909 790.483442 
L 160.363636 791.958111 
L 163.122032 793.280789 
L 163.636364 793.53556 
L 166.909091 794.675522 
L 169.958222 796.558809 
L 170.181818 796.666025 
L 173.454545 796.940435 
L 175.550679 796.558809 
L 176.727273 794.465436 
L 180 796.341169 
L 182.35077 796.558809 
L 183.272727 797.399988 
L 186.545455 799.68669 
L 187.211314 799.836828 
L 189.818182 802.538111 
L 193.090909 803.028854 
L 193.356997 803.114848 
L 196.363636 806.200508 
L 199.636364 806.355675 
L 199.729529 806.392868 
L 202.909091 809.633556 
L 205.793284 809.670888 
L 204.920696 812.948908 
L 206.181818 813.431936 
L 208.14909 816.226927 
L 209.454545 816.226927 
L 212.727273 816.226927 
L 215.09442 816.226927 
L 216 816.199942 
L 216.083899 816.226927 
L 219.272727 816.226927 
L 219.99052 816.226927 
L 219.272727 815.756949 
L 216 814.252968 
L 214.66189 812.948908 
L 212.727273 811.935105 
L 209.454545 810.416341 
L 208.720331 809.670888 
L 206.181818 808.508786 
L 202.951481 806.392868 
L 202.909091 806.369675 
L 199.636364 805.055318 
L 196.965842 803.114848 
L 196.363636 802.785068 
L 193.090909 801.56436 
L 190.9799 799.836828 
L 189.818182 799.200649 
L 186.545455 798.011303 
L 184.993957 796.558809 
L 183.272727 795.61623 
L 180 794.106427 
L 179.107577 793.280789 
L 176.727273 791.985131 
L 174.060377 790.002769 
L 173.454545 789.627082 
L 170.181818 788.285408 
L 168.500696 786.724749 
L 166.909091 785.816449 
L 163.636364 784.352236 
L 162.595945 783.446729 
L 160.363636 782.531565 
L 157.628214 780.16871 
L 157.090909 779.849308 
L 153.818182 779.242378 
L 151.215985 776.89069 
L 150.545455 776.562397 
L 147.272727 775.550277 
L 144.557428 773.61267 
L 144 773.489777 
L 142.043263 773.61267 
L 140.826939 776.89069 
L 140.727273 776.908511 
L 140.66411 776.89069 
L 137.454545 775.150762 
L 134.181818 774.687321 
L 131.88579 773.61267 
L 130.909091 772.904405 
L 127.636364 771.708473 
L 124.660447 770.33465 
L 124.363636 770.186882 
L 121.090909 769.102148 
L 117.818182 768.041582 
L 114.778791 767.056631 
L 114.545455 766.981015 
L 111.272727 765.751169 
L 108 764.724378 
L 104.727273 764.07742 
L 101.454545 763.992423 
L 98.981176 763.778611 
L 98.181818 763.702442 
L 94.909091 763.639532 
L 94.670771 763.778611 
L 93.773804 767.056631 
L 92.874433 770.33465 
L 93.08837 773.61267 
L 93.865189 776.89069 
L 94.909091 779.954793 
L 94.98197 780.16871 
L 97.719575 783.446729 
L 98.181818 783.890017 
L 101.137774 786.724749 
L 101.454545 787.02853 
L 104.555973 790.002769 
L 104.727273 790.158527 
L 108 792.565524 
L 109.035298 793.280789 
L 111.272727 794.884433 
L 113.608844 796.558809 
L 114.545455 797.23011 
L 117.818182 799.6218 
L 118.117322 799.836828 
L 121.090909 802.082198 
L 122.556602 803.114848 
L 124.363636 804.455668 
L 127.176244 806.392868 
L 127.636364 806.69917 
L 130.909091 809.136144 
L 131.627911 809.670888 
L 134.181818 811.593482 
L 136.108828 812.948908 
z
" clip-path="url(#p25c8f3a9e1)" style="fill: #dfecf7; fill-opacity: 0.9"/>
    <path d="M 144 813.977341 
L 147.272727 816.15385 
L 147.384635 816.226927 
L 150.545455 816.226927 
L 152.349294 816.226927 
L 150.545455 814.263965 
L 148.0729 812.948908 
L 147.272727 811.846695 
L 144.375786 809.670888 
L 144 808.917468 
L 142.740798 806.392868 
L 141.091295 803.114848 
L 140.727273 801.408372 
L 140.23016 799.836828 
L 140.727273 798.374057 
L 141.470877 796.558809 
L 144 795.186795 
L 147.272727 794.981764 
L 150.545455 795.360052 
L 153.818182 795.904316 
L 156.729067 796.558809 
L 157.090909 796.646278 
L 160.363636 797.771656 
L 163.636364 798.789682 
L 166.645534 799.836828 
L 166.909091 799.940548 
L 170.181818 801.416828 
L 173.454545 802.834407 
L 174.039395 803.114848 
L 176.727273 804.403712 
L 180 806.346685 
L 180.070184 806.392868 
L 183.272727 808.500245 
L 185.051732 809.670888 
L 186.545455 810.653805 
L 189.818182 812.717433 
L 190.336496 812.948908 
L 193.090909 814.170631 
L 196.363636 815.77362 
L 197.571 816.226927 
L 199.636364 816.226927 
L 202.909091 816.226927 
L 206.181818 816.226927 
L 208.14909 816.226927 
L 206.181818 813.431936 
L 204.920696 812.948908 
L 205.793284 809.670888 
L 202.909091 809.633556 
L 199.729529 806.392868 
L 199.636364 806.355675 
L 196.363636 806.200508 
L 193.356997 803.114848 
L 193.090909 803.028854 
L 189.818182 802.538111 
L 187.211314 799.836828 
L 186.545455 799.68669 
L 183.272727 797.399988 
L 182.35077 796.558809 
L 180 796.341169 
L 176.727273 794.465436 
L 175.550679 796.558809 
L 173.454545 796.940435 
L 170.181818 796.666025 
L 169.958222 796.558809 
L 166.909091 794.675522 
L 163.636364 793.53556 
L 163.122032 793.280789 
L 160.363636 791.958111 
L 157.090909 790.483442 
L 155.863023 790.002769 
L 153.818182 789.232989 
L 150.545455 787.970931 
L 147.272727 786.77455 
L 147.150936 786.724749 
L 144 785.439205 
L 140.727273 784.047824 
L 139.312196 783.446729 
L 137.454545 782.741658 
L 134.181818 781.818949 
L 130.909091 780.857291 
L 127.84682 780.16871 
L 127.636364 780.124 
L 124.363636 779.722661 
L 121.090909 779.582655 
L 117.818182 780.069374 
L 117.647918 780.16871 
L 116.467339 783.446729 
L 116.140398 786.724749 
L 117.54482 790.002769 
L 117.818182 790.684344 
L 118.860982 793.280789 
L 120.717732 796.558809 
L 121.090909 796.812182 
L 124.275947 799.836828 
L 124.363636 799.902385 
L 127.636364 801.920962 
L 128.660632 803.114848 
L 130.909091 804.795811 
L 133.045317 806.392868 
L 134.181818 807.242524 
L 137.454545 809.649668 
L 137.48259 809.670888 
L 140.727273 811.814849 
L 142.443563 812.948908 
z
M 216 816.226927 
L 216.083899 816.226927 
L 216 816.199942 
L 215.09442 816.226927 
z
" clip-path="url(#p25c8f3a9e1)" style="fill: #dae8f6; fill-opacity: 0.9"/>
    <path d="M 150.545455 814.263965 
L 152.349294 816.226927 
L 153.818182 816.226927 
L 157.090909 816.226927 
L 160.363636 816.226927 
L 163.411434 816.226927 
L 162.076302 812.948908 
L 163.395202 809.670888 
L 163.636364 809.429081 
L 166.909091 808.240987 
L 170.181818 808.524854 
L 173.454545 809.410479 
L 174.220683 809.670888 
L 176.727273 810.675255 
L 179.541143 812.948908 
L 180 813.319671 
L 183.272727 815.880538 
L 183.721678 816.226927 
L 186.545455 816.226927 
L 189.818182 816.226927 
L 193.090909 816.226927 
L 196.363636 816.226927 
L 197.571 816.226927 
L 196.363636 815.77362 
L 193.090909 814.170631 
L 190.336496 812.948908 
L 189.818182 812.717433 
L 186.545455 810.653805 
L 185.051732 809.670888 
L 183.272727 808.500245 
L 180.070184 806.392868 
L 180 806.346685 
L 176.727273 804.403712 
L 174.039395 803.114848 
L 173.454545 802.834407 
L 170.181818 801.416828 
L 166.909091 799.940548 
L 166.645534 799.836828 
L 163.636364 798.789682 
L 160.363636 797.771656 
L 157.090909 796.646278 
L 156.729067 796.558809 
L 153.818182 795.904316 
L 150.545455 795.360052 
L 147.272727 794.981764 
L 144 795.186795 
L 141.470877 796.558809 
L 140.727273 798.374057 
L 140.23016 799.836828 
L 140.727273 801.408372 
L 141.091295 803.114848 
L 142.740798 806.392868 
L 144 808.917468 
L 144.375786 809.670888 
L 147.272727 811.846695 
L 148.0729 812.948908 
z
" clip-path="url(#p25c8f3a9e1)" style="fill: #d6e5f4; fill-opacity: 0.9"/>
    <path d="M 163.636364 816.226927 
L 166.909091 816.226927 
L 170.181818 816.226927 
L 173.454545 816.226927 
L 176.727273 816.226927 
L 180 816.226927 
L 183.272727 816.226927 
L 183.721678 816.226927 
L 183.272727 815.880538 
L 180 813.319671 
L 179.541143 812.948908 
L 176.727273 810.675255 
L 174.220683 809.670888 
L 173.454545 809.410479 
L 170.181818 808.524854 
L 166.909091 808.240987 
L 163.636364 809.429081 
L 163.395202 809.670888 
L 162.076302 812.948908 
L 163.411434 816.226927 
z
" clip-path="url(#p25c8f3a9e1)" style="fill: #d0e2f2; fill-opacity: 0.9"/>
    <path clip-path="url(#p25c8f3a9e1)" style="fill: #cbdef1; fill-opacity: 0.9"/>
    <path clip-path="url(#p25c8f3a9e1)" style="fill: #c6dbef; fill-opacity: 0.9"/>
    <path clip-path="url(#p25c8f3a9e1)" style="fill: #bed8ec; fill-opacity: 0.9"/>
    <path clip-path="url(#p25c8f3a9e1)" style="fill: #b5d4e9; fill-opacity: 0.9"/>
    <path clip-path="url(#p25c8f3a9e1)" style="fill: #add0e6; fill-opacity: 0.9"/>
    <path clip-path="url(#p25c8f3a9e1)" style="fill: #a5cde3; fill-opacity: 0.9"/>
    <path clip-path="url(#p25c8f3a9e1)" style="fill: #9cc9e1; fill-opacity: 0.9"/>
    <path clip-path="url(#p25c8f3a9e1)" style="fill: #91c3de; fill-opacity: 0.9"/>
    <path clip-path="url(#p25c8f3a9e1)" style="fill: #85bcdc; fill-opacity: 0.9"/>
    <path clip-path="url(#p25c8f3a9e1)" style="fill: #7cb7da; fill-opacity: 0.9"/>
    <path clip-path="url(#p25c8f3a9e1)" style="fill: #71b1d7; fill-opacity: 0.9"/>
    <path clip-path="url(#p25c8f3a9e1)" style="fill: #66abd4; fill-opacity: 0.9"/>
    <path clip-path="url(#p25c8f3a9e1)" style="fill: #5da5d1; fill-opacity: 0.9"/>
    <path clip-path="url(#p25c8f3a9e1)" style="fill: #56a0ce; fill-opacity: 0.9"/>
    <path clip-path="url(#p25c8f3a9e1)" style="fill: #4d99ca; fill-opacity: 0.9"/>
    <path clip-path="url(#p25c8f3a9e1)" style="fill: #4493c7; fill-opacity: 0.9"/>
    <path clip-path="url(#p25c8f3a9e1)" style="fill: #3c8cc3; fill-opacity: 0.9"/>
    <path clip-path="url(#p25c8f3a9e1)" style="fill: #3686c0; fill-opacity: 0.9"/>
    <path clip-path="url(#p25c8f3a9e1)" style="fill: #2f7fbc; fill-opacity: 0.9"/>
    <path clip-path="url(#p25c8f3a9e1)" style="fill: #2777b8; fill-opacity: 0.9"/>
    <path clip-path="url(#p25c8f3a9e1)" style="fill: #2070b4; fill-opacity: 0.9"/>
    <path clip-path="url(#p25c8f3a9e1)" style="fill: #1c6ab0; fill-opacity: 0.9"/>
    <path clip-path="url(#p25c8f3a9e1)" style="fill: #1663aa; fill-opacity: 0.9"/>
    <path clip-path="url(#p25c8f3a9e1)" style="fill: #115ca5; fill-opacity: 0.9"/>
    <path clip-path="url(#p25c8f3a9e1)" style="fill: #0c56a0; fill-opacity: 0.9"/>
    <path clip-path="url(#p25c8f3a9e1)" style="fill: #084f99; fill-opacity: 0.9"/>
    <path clip-path="url(#p25c8f3a9e1)" style="fill: #08488e; fill-opacity: 0.9"/>
    <path clip-path="url(#p25c8f3a9e1)" style="fill: #084184; fill-opacity: 0.9"/>
    <path clip-path="url(#p25c8f3a9e1)" style="fill: #083a7a; fill-opacity: 0.9"/>
    <path clip-path="url(#p25c8f3a9e1)" style="fill: #083370; fill-opacity: 0.9"/>
    <path clip-path="url(#p25c8f3a9e1)" style="fill: #08306b; fill-opacity: 0.9"/>
   </g>
   <g id="QuadContourSet_2">
    <path d="M 229.754789 816.226927 
L 229.090909 815.854705 
L 225.818182 815.903145 
L 222.545455 813.927147 
L 221.051401 812.948908 
L 219.272727 811.635318 
L 216 809.707402 
L 215.934514 809.670888 
L 212.727273 807.902047 
L 209.990849 806.392868 
L 209.454545 806.00075 
L 206.450204 804.432249 
M 189.741062 795.246817 
L 186.545455 793.488395 
L 186.166348 793.280789 
L 183.272727 791.69151 
L 180.601765 790.002769 
L 180 789.506054 
L 176.727273 787.483914 
L 175.55953 786.724749 
L 173.454545 785.356273 
L 170.517294 783.446729 
L 170.181818 783.142832 
L 166.909091 781.137067 
L 165.437488 780.16871 
L 163.636364 779.008444 
L 160.432823 776.89069 
L 160.363636 776.821279 
L 157.090909 774.933005 
L 154.913971 773.61267 
L 153.818182 772.913512 
L 150.545455 770.962246 
L 149.600172 770.33465 
L 147.272727 768.765076 
L 144.739358 767.056631 
L 144 766.508083 
L 140.727273 764.350973 
L 139.878544 763.778611 
L 137.454545 762.143922 
L 135.017731 760.500591 
L 134.181818 759.868175 
L 130.909091 757.80825 
L 129.997919 757.222571 
L 127.636364 755.732875 
L 124.882788 753.944551 
L 124.363636 753.559486 
L 121.090909 751.582832 
L 119.625518 750.666532 
L 117.818182 749.489628 
L 115.0246 747.388512 
L 114.545455 746.98789 
L 111.272727 744.566644 
L 110.666242 744.110492 
L 108 741.892714 
L 106.538992 740.832472 
L 104.727273 739.289085 
L 102.54862 737.554452 
L 101.454545 736.632066 
L 98.660448 734.276433 
L 98.181818 733.872911 
L 94.909091 731.113757 
L 94.772277 730.998413 
L 91.636364 728.354603 
L 90.863681 727.720393 
L 88.363636 725.683989 
L 86.839326 724.442373 
L 85.090909 722.973339 
L 82.85386 721.164354 
L 81.818182 720.214608 
L 78.863376 717.886334 
L 78.545455 717.598769 
L 75.272727 714.633861 
L 75.240359 714.608314 
L 72 711.668446 
L 71.615253 711.330294 
L 68.727273 708.718071 
L 67.991192 708.052274 
L 65.454545 705.786837 
L 64.205502 704.774255 
L 62.181818 703.159414 
L 60.097557 701.496235 
L 58.909091 700.547873 
L 55.989612 698.218215 
L 55.636364 697.915335 
L 52.363636 695.324792 
L 51.881668 694.940195 
L 49.090909 692.592009 
L 47.909243 691.662175 
L 45.818182 689.861813 
L 43.984593 688.384156 
L 42.545455 687.156868 
L 40.140732 685.106136 
L 39.272727 684.365906 
L 36 681.965875 
L 35.788436 681.828116 
L 32.727273 679.838288 
L 30.750765 678.550096 
L 29.454545 677.706738 
L 26.181818 675.661825 
L 25.469806 675.272076 
L 22.909091 673.870364 
L 19.636364 672.10493 
L 19.481365 671.994057 
L 16.363636 670.28744 
L 13.492923 668.716037 
L 13.090909 668.495978 
L 9.818182 667.035214 
L 7.504481 665.438017 
L 6.545455 664.913055 
L 3.272727 664.240976 
L 0.614598 665.438017 
L -0 668.206224 
" clip-path="url(#p25c8f3a9e1)" style="fill: none"/>
    <path d="M 224.541042 816.226927 
L 216 810.680765 
L 196.34865 799.836828 
L 183.272727 792.674412 
L 181.517998 791.574089 
M 165.378473 781.179641 
L 163.636364 780.036131 
L 150.545455 772.215744 
L 130.909091 759.27835 
L 124.363636 755.186982 
L 117.818182 751.167467 
L 108.42132 744.110492 
L 108 743.760038 
L 104.062961 740.832472 
L 101.454545 738.673942 
L 99.914903 737.554452 
L 95.907287 734.276433 
L 88.035765 727.720393 
L 71.921762 714.608314 
L 62.181818 706.165487 
L 55.636364 700.942406 
L 52.009803 698.218215 
L 49.090909 696.435146 
L 47.29732 694.940195 
L 45.818182 693.93153 
L 39.272727 688.292512 
L 38.509741 688.384156 
L 38.775898 694.940195 
L 38.396997 698.218215 
L 34.742027 701.496235 
L 32.727273 702.940088 
L 31.174358 704.774255 
L 29.269141 708.052274 
L 27.640375 711.330294 
L 26.75409 717.886334 
L 25.909606 721.164354 
L 24.957721 724.442373 
L 24.909944 727.720393 
L 26.456142 730.998413 
L 30.675215 737.554452 
L 32.727273 739.905764 
L 33.388309 740.832472 
L 36 742.618346 
L 37.563894 744.110492 
L 49.090909 752.793869 
L 52.363636 756.019862 
L 53.558711 757.222571 
L 55.636364 758.775619 
L 57.352478 760.500591 
L 61.734001 763.778611 
L 62.181818 764.233258 
L 68.727273 768.971973 
L 75.272727 773.95081 
L 78.545455 777.063247 
L 81.818182 780.324059 
L 84.134835 783.446729 
L 86.176028 786.724749 
L 85.090909 788.012082 
L 75.272727 782.55446 
L 72 780.908546 
L 71.180873 780.16871 
L 65.454545 776.667544 
L 62.181818 775.592714 
L 59.949465 773.61267 
L 58.909091 773.042161 
L 56.785276 773.61267 
L 59.194494 776.89069 
L 62.599116 780.16871 
L 72 787.866315 
L 91.902522 803.114848 
L 95.857127 806.392868 
L 98.181818 808.561506 
L 100.372988 809.670888 
L 101.454545 810.434226 
L 105.632239 812.948908 
L 108 814.687065 
L 110.744386 816.226927 
L 110.744386 816.226927 
" clip-path="url(#p25c8f3a9e1)" style="fill: none"/>
    <path d="M 223.024202 816.226927 
L 216 811.654128 
L 186.545455 795.448417 
L 182.650116 793.280789 
L 173.454545 787.433292 
L 163.636364 781.252236 
L 150.545455 773.469243 
L 139.060039 765.86606 
M 122.707007 755.815941 
L 117.818182 752.820881 
L 106.176398 744.110492 
L 101.454545 740.531672 
L 98.181818 738.515309 
L 97.129283 737.554452 
L 94.909091 735.864255 
L 91.636364 732.955209 
L 85.090909 727.625151 
L 81.818182 725.877653 
L 80.040937 724.442373 
L 78.545455 723.530735 
L 75.272727 720.817161 
L 72.221501 721.164354 
L 72 724.485904 
L 68.727273 725.948301 
L 58.909091 724.192271 
L 58.028568 724.442373 
L 55.636364 725.472067 
L 51.875999 727.720393 
L 50.078926 730.998413 
L 48.579855 737.554452 
L 48.320398 740.832472 
L 48.262488 744.110492 
L 49.090909 747.44366 
L 52.363636 749.993507 
L 52.763667 750.666532 
L 65.889147 763.778611 
L 68.727273 765.752473 
L 70.212995 767.056631 
L 75.272727 770.814103 
L 78.545455 773.751056 
L 91.638054 786.724749 
L 94.909091 790.63413 
L 101.454545 799.4562 
L 101.952144 799.836828 
L 111.272727 805.635749 
L 123.124153 812.948908 
L 124.363636 813.896367 
L 128.255023 816.226927 
L 128.255023 816.226927 
" clip-path="url(#p25c8f3a9e1)" style="fill: none"/>
    <path d="M 221.507361 816.226927 
L 219.272727 814.763789 
L 216.500879 812.948908 
L 216 812.627491 
L 212.727273 810.888186 
L 210.696621 809.670888 
L 209.454545 808.985999 
L 206.181818 807.344921 
L 204.728334 806.392868 
L 202.909091 805.397519 
L 199.636364 803.75496 
L 198.755426 803.114848 
L 196.363636 801.805057 
L 193.090909 800.099865 
L 192.769483 799.836828 
L 189.818182 798.220638 
L 186.78354 796.558809 
L 186.545455 796.428428 
L 183.272727 794.636218 
L 181.024821 793.280789 
L 180 792.643525 
L 176.727273 790.67031 
L 175.829222 790.002769 
L 173.454545 788.530187 
L 170.644977 786.724749 
L 170.181818 786.433656 
L 166.909091 784.499813 
L 165.235284 783.446729 
L 163.636364 782.496249 
L 160.363636 780.723886 
L 159.720922 780.16871 
L 157.090909 778.605295 
L 154.20656 776.89069 
L 153.818182 776.659818 
L 150.545455 774.998035 
L 148.829929 773.61267 
L 147.272727 772.587804 
L 144 770.437894 
L 143.886872 770.33465 
L 140.727273 768.632711 
L 138.531428 767.056631 
L 137.454545 766.400936 
L 134.181818 764.830903 
L 133.036322 763.778611 
L 130.909091 762.565389 
L 127.78182 760.500591 
L 127.636364 760.412465 
L 124.363636 759.146691 
L 122.286335 757.222571 
L 121.090909 756.510312 
L 117.818182 755.50314 
L 115.994823 753.944551 
L 114.545455 753.185478 
L 111.78199 750.666532 
L 111.272727 750.322615 
L 108.138101 747.388512 
L 108 747.285942 
L 105.832465 747.388512 
L 105.319181 750.666532 
L 104.727273 751.605182 
L 101.454545 752.02792 
L 98.181818 750.837105 
L 97.718719 750.666532 
L 94.909091 749.546908 
L 91.636364 748.198099 
L 89.492729 747.388512 
L 88.363636 746.938573 
L 85.090909 745.684147 
L 81.818182 744.94697 
L 78.545455 745.479551 
L 75.272727 745.916135 
L 72.475709 747.388512 
L 72 748.675304 
L 71.504821 750.666532 
L 70.725117 753.944551 
L 70.523056 757.222571 
L 70.98264 760.500591 
L 71.834464 763.778611 
L 72 763.91218 
L 74.606083 767.056631 
L 75.272727 767.533913 
L 78.328587 770.33465 
L 78.545455 770.527107 
L 81.659297 773.61267 
L 81.818182 773.770112 
L 84.96736 776.89069 
L 85.090909 777.013117 
L 88.275423 780.16871 
L 88.363636 780.256121 
L 91.583487 783.446729 
L 91.636364 783.499126 
L 94.89155 786.724749 
L 94.909091 786.744081 
L 98.181818 789.970065 
L 98.215867 790.002769 
L 101.454545 793.181026 
L 101.564703 793.280789 
L 104.727273 795.880266 
L 105.656913 796.558809 
L 108 798.114199 
L 110.361376 799.836828 
L 111.272727 800.460747 
L 112.220368 801.051345 
M 128.153501 811.756967 
L 129.922498 812.948908 
L 130.909091 813.613668 
L 134.181818 815.818813 
L 134.852252 816.226927 
" clip-path="url(#p25c8f3a9e1)" style="fill: none"/>
    <path d="M 219.99052 816.226927 
L 219.272727 815.756949 
L 217.705638 815.036793 
M 201.247933 805.702539 
L 199.636364 805.055318 
L 196.965842 803.114848 
L 196.363636 802.785068 
L 193.090909 801.56436 
L 190.9799 799.836828 
L 189.818182 799.200649 
L 186.545455 798.011303 
L 184.993957 796.558809 
L 183.272727 795.61623 
L 180 794.106427 
L 179.107577 793.280789 
L 176.727273 791.985131 
L 174.060377 790.002769 
L 173.454545 789.627082 
L 170.181818 788.285408 
L 168.500696 786.724749 
L 166.909091 785.816449 
L 163.636364 784.352236 
L 162.595945 783.446729 
L 160.363636 782.531565 
L 157.628214 780.16871 
L 157.090909 779.849308 
L 153.818182 779.242378 
L 151.215985 776.89069 
L 150.545455 776.562397 
L 147.272727 775.550277 
L 144.557428 773.61267 
L 144 773.489777 
L 142.043263 773.61267 
L 140.826939 776.89069 
L 140.727273 776.908511 
L 140.66411 776.89069 
L 137.454545 775.150762 
L 134.181818 774.687321 
L 131.88579 773.61267 
L 130.909091 772.904405 
L 127.636364 771.708473 
L 124.660447 770.33465 
L 124.363636 770.186882 
L 121.090909 769.102148 
L 117.818182 768.041582 
L 114.778791 767.056631 
L 114.545455 766.981015 
L 111.272727 765.751169 
L 108 764.724378 
L 104.727273 764.07742 
L 101.454545 763.992423 
L 98.981176 763.778611 
L 98.181818 763.702442 
L 94.909091 763.639532 
L 94.670771 763.778611 
L 93.773804 767.056631 
L 92.874433 770.33465 
L 93.08837 773.61267 
L 93.865189 776.89069 
L 94.909091 779.954793 
L 94.98197 780.16871 
L 97.719575 783.446729 
L 98.181818 783.890017 
L 101.137774 786.724749 
L 101.454545 787.02853 
L 104.555973 790.002769 
L 104.727273 790.158527 
L 108 792.565524 
L 109.035298 793.280789 
L 111.272727 794.884433 
L 113.608844 796.558809 
L 114.545455 797.23011 
L 117.818182 799.6218 
L 118.117322 799.836828 
L 121.090909 802.082198 
L 122.556602 803.114848 
L 124.363636 804.455668 
L 127.176244 806.392868 
L 127.636364 806.69917 
L 130.909091 809.136144 
L 131.627911 809.670888 
L 134.181818 811.593482 
L 136.108828 812.948908 
L 137.454545 813.793661 
L 140.727273 816.010874 
L 141.054249 816.226927 
" clip-path="url(#p25c8f3a9e1)" style="fill: none"/>
    <path d="M 208.14909 816.226927 
L 206.181818 813.431936 
L 204.920696 812.948908 
L 205.793284 809.670888 
L 202.909091 809.633556 
L 199.729529 806.392868 
L 199.636364 806.355675 
L 196.363636 806.200508 
L 193.356997 803.114848 
L 193.090909 803.028854 
L 189.818182 802.538111 
L 187.211314 799.836828 
L 186.545455 799.68669 
L 183.272727 797.399988 
L 182.35077 796.558809 
L 180 796.341169 
L 176.727273 794.465436 
L 175.550679 796.558809 
L 173.454545 796.940435 
L 170.181818 796.666025 
L 169.958222 796.558809 
L 166.909091 794.675522 
L 163.636364 793.53556 
L 163.122032 793.280789 
L 160.363636 791.958111 
L 157.090909 790.483442 
L 155.863023 790.002769 
L 153.818182 789.232989 
L 150.545455 787.970931 
L 147.272727 786.77455 
L 147.150936 786.724749 
L 144 785.439205 
L 140.727273 784.047824 
L 139.312196 783.446729 
L 137.454545 782.741658 
L 134.181818 781.818949 
L 130.909091 780.857291 
L 127.84682 780.16871 
L 127.636364 780.124 
L 124.363636 779.722661 
L 121.090909 779.582655 
L 117.818182 780.069374 
L 117.647918 780.16871 
L 116.467339 783.446729 
L 116.140398 786.724749 
L 117.54482 790.002769 
L 117.818182 790.684344 
L 118.860982 793.280789 
L 120.717732 796.558809 
L 121.090909 796.812182 
L 124.275947 799.836828 
L 124.363636 799.902385 
L 125.510365 800.609673 
M 140.841708 811.890464 
L 142.443563 812.948908 
L 144 813.977341 
L 147.272727 816.15385 
L 147.384635 816.226927 
M 216.083899 816.226927 
L 216 816.199942 
L 215.09442 816.226927 
" clip-path="url(#p25c8f3a9e1)" style="fill: none"/>
    <path d="M 197.571 816.226927 
L 196.363636 815.77362 
L 193.090909 814.170631 
L 190.336496 812.948908 
L 189.818182 812.717433 
L 186.545455 810.653805 
L 185.051732 809.670888 
L 183.272727 808.500245 
L 180.070184 806.392868 
L 180 806.346685 
L 176.727273 804.403712 
L 175.34162 803.739278 
M 157.606912 796.823713 
L 157.090909 796.646278 
L 156.729067 796.558809 
L 153.818182 795.904316 
L 150.545455 795.360052 
L 147.272727 794.981764 
L 144 795.186795 
L 141.470877 796.558809 
L 140.727273 798.374057 
L 140.23016 799.836828 
L 140.727273 801.408372 
L 141.091295 803.114848 
L 142.740798 806.392868 
L 144 808.917468 
L 144.375786 809.670888 
L 147.272727 811.846695 
L 148.0729 812.948908 
L 150.545455 814.263965 
L 152.349294 816.226927 
" clip-path="url(#p25c8f3a9e1)" style="fill: none"/>
    <path d="M 183.721678 816.226927 
L 183.272727 815.880538 
L 182.074592 814.943012 
M 164.989982 808.937678 
L 163.636364 809.429081 
L 163.395202 809.670888 
L 162.076302 812.948908 
L 163.411434 816.226927 
" clip-path="url(#p25c8f3a9e1)" style="fill: none"/>
    <path clip-path="url(#p25c8f3a9e1)" style="fill: none"/>
    <path clip-path="url(#p25c8f3a9e1)" style="fill: none"/>
    <path clip-path="url(#p25c8f3a9e1)" style="fill: none"/>
    <path clip-path="url(#p25c8f3a9e1)" style="fill: none"/>
    <path clip-path="url(#p25c8f3a9e1)" style="fill: none"/>
    <path clip-path="url(#p25c8f3a9e1)" style="fill: none"/>
    <path clip-path="url(#p25c8f3a9e1)" style="fill: none"/>
    <path clip-path="url(#p25c8f3a9e1)" style="fill: none"/>
    <path clip-path="url(#p25c8f3a9e1)" style="fill: none"/>
    <path clip-path="url(#p25c8f3a9e1)" style="fill: none"/>
    <path clip-path="url(#p25c8f3a9e1)" style="fill: none"/>
    <path clip-path="url(#p25c8f3a9e1)" style="fill: none"/>
    <path clip-path="url(#p25c8f3a9e1)" style="fill: none"/>
    <path clip-path="url(#p25c8f3a9e1)" style="fill: none"/>
    <path clip-path="url(#p25c8f3a9e1)" style="fill: none"/>
    <path clip-path="url(#p25c8f3a9e1)" style="fill: none"/>
    <path clip-path="url(#p25c8f3a9e1)" style="fill: none"/>
    <path clip-path="url(#p25c8f3a9e1)" style="fill: none"/>
    <path clip-path="url(#p25c8f3a9e1)" style="fill: none"/>
    <path clip-path="url(#p25c8f3a9e1)" style="fill: none"/>
    <path clip-path="url(#p25c8f3a9e1)" style="fill: none"/>
    <path clip-path="url(#p25c8f3a9e1)" style="fill: none"/>
    <path clip-path="url(#p25c8f3a9e1)" style="fill: none"/>
    <path clip-path="url(#p25c8f3a9e1)" style="fill: none"/>
    <path clip-path="url(#p25c8f3a9e1)" style="fill: none"/>
    <path clip-path="url(#p25c8f3a9e1)" style="fill: none"/>
    <path clip-path="url(#p25c8f3a9e1)" style="fill: none"/>
    <path clip-path="url(#p25c8f3a9e1)" style="fill: none"/>
    <path clip-path="url(#p25c8f3a9e1)" style="fill: none"/>
    <path clip-path="url(#p25c8f3a9e1)" style="fill: none"/>
    <path clip-path="url(#p25c8f3a9e1)" style="fill: none"/>
   </g>
   <g id="text_1">
    <g clip-path="url(#p25c8f3a9e1)">
     <!-- 0 -->
     <g style="opacity: 0" transform="translate(193.168946 800.945248) rotate(-331.7322) scale(0.12 -0.12)">
      <defs>
       <path id="DejaVuSans-30" d="M 2034 4250 
Q 1547 4250 1301 3770 
Q 1056 3291 1056 2328 
Q 1056 1369 1301 889 
Q 1547 409 2034 409 
Q 2525 409 2770 889 
Q 3016 1369 3016 2328 
Q 3016 3291 2770 3770 
Q 2525 4250 2034 4250 
z
M 2034 4750 
Q 2819 4750 3233 4129 
Q 3647 3509 3647 2328 
Q 3647 1150 3233 529 
Q 2819 -91 2034 -91 
Q 1250 -91 836 529 
Q 422 1150 422 2328 
Q 422 3509 836 4129 
Q 1250 4750 2034 4750 
z
" transform="scale(0.015625)"/>
      </defs>
      <use xlink:href="#DejaVuSans-30"/>
     </g>
    </g>
   </g>
   <g id="text_2">
    <g clip-path="url(#p25c8f3a9e1)">
     <!-- 1 -->
     <g style="opacity: 0" transform="translate(168.454164 787.097593) rotate(-327.375362) scale(0.12 -0.12)">
      <defs>
       <path id="DejaVuSans-31" d="M 794 531 
L 1825 531 
L 1825 4091 
L 703 3866 
L 703 4441 
L 1819 4666 
L 2450 4666 
L 2450 531 
L 3481 531 
L 3481 0 
L 794 0 
L 794 531 
z
" transform="scale(0.015625)"/>
      </defs>
      <use xlink:href="#DejaVuSans-31"/>
     </g>
    </g>
   </g>
   <g id="text_3">
    <g clip-path="url(#p25c8f3a9e1)">
     <!-- 2 -->
     <g style="opacity: 0" transform="translate(125.924346 761.629154) rotate(-328.522959) scale(0.12 -0.12)">
      <defs>
       <path id="DejaVuSans-32" d="M 1228 531 
L 3431 531 
L 3431 0 
L 469 0 
L 469 531 
Q 828 903 1448 1529 
Q 2069 2156 2228 2338 
Q 2531 2678 2651 2914 
Q 2772 3150 2772 3378 
Q 2772 3750 2511 3984 
Q 2250 4219 1831 4219 
Q 1534 4219 1204 4116 
Q 875 4013 500 3803 
L 500 4441 
Q 881 4594 1212 4672 
Q 1544 4750 1819 4750 
Q 2544 4750 2975 4387 
Q 3406 4025 3406 3419 
Q 3406 3131 3298 2873 
Q 3191 2616 2906 2266 
Q 2828 2175 2409 1742 
Q 1991 1309 1228 531 
z
" transform="scale(0.015625)"/>
      </defs>
      <use xlink:href="#DejaVuSans-32"/>
     </g>
    </g>
   </g>
   <g id="text_4">
    <g clip-path="url(#p25c8f3a9e1)">
     <!-- 3 -->
     <g style="opacity: 0" transform="translate(115.178595 807.024358) rotate(-326.240574) scale(0.12 -0.12)">
      <defs>
       <path id="DejaVuSans-33" d="M 2597 2516 
Q 3050 2419 3304 2112 
Q 3559 1806 3559 1356 
Q 3559 666 3084 287 
Q 2609 -91 1734 -91 
Q 1441 -91 1130 -33 
Q 819 25 488 141 
L 488 750 
Q 750 597 1062 519 
Q 1375 441 1716 441 
Q 2309 441 2620 675 
Q 2931 909 2931 1356 
Q 2931 1769 2642 2001 
Q 2353 2234 1838 2234 
L 1294 2234 
L 1294 2753 
L 1863 2753 
Q 2328 2753 2575 2939 
Q 2822 3125 2822 3475 
Q 2822 3834 2567 4026 
Q 2313 4219 1838 4219 
Q 1578 4219 1281 4162 
Q 984 4106 628 3988 
L 628 4550 
Q 988 4650 1302 4700 
Q 1616 4750 1894 4750 
Q 2613 4750 3031 4423 
Q 3450 4097 3450 3541 
Q 3450 3153 3228 2886 
Q 3006 2619 2597 2516 
z
" transform="scale(0.015625)"/>
      </defs>
      <use xlink:href="#DejaVuSans-33"/>
     </g>
    </g>
   </g>
   <g id="text_5">
    <g clip-path="url(#p25c8f3a9e1)">
     <!-- 4 -->
     <g style="opacity: 0" transform="translate(204.52773 811.540697) rotate(-331.917451) scale(0.12 -0.12)">
      <defs>
       <path id="DejaVuSans-34" d="M 2419 4116 
L 825 1625 
L 2419 1625 
L 2419 4116 
z
M 2253 4666 
L 3047 4666 
L 3047 1625 
L 3713 1625 
L 3713 1100 
L 3047 1100 
L 3047 0 
L 2419 0 
L 2419 1100 
L 313 1100 
L 313 1709 
L 2253 4666 
z
" transform="scale(0.015625)"/>
      </defs>
      <use xlink:href="#DejaVuSans-34"/>
     </g>
    </g>
   </g>
   <g id="text_6">
    <g clip-path="url(#p25c8f3a9e1)">
     <!-- 5 -->
     <g style="opacity: 0" transform="translate(128.007357 806.788647) rotate(-323.553955) scale(0.12 -0.12)">
      <defs>
       <path id="DejaVuSans-35" d="M 691 4666 
L 3169 4666 
L 3169 4134 
L 1269 4134 
L 1269 2991 
Q 1406 3038 1543 3061 
Q 1681 3084 1819 3084 
Q 2600 3084 3056 2656 
Q 3513 2228 3513 1497 
Q 3513 744 3044 326 
Q 2575 -91 1722 -91 
Q 1428 -91 1123 -41 
Q 819 9 494 109 
L 494 744 
Q 775 591 1075 516 
Q 1375 441 1709 441 
Q 2250 441 2565 725 
Q 2881 1009 2881 1497 
Q 2881 1984 2565 2268 
Q 2250 2553 1709 2553 
Q 1456 2553 1204 2497 
Q 953 2441 691 2322 
L 691 4666 
z
" transform="scale(0.015625)"/>
      </defs>
      <use xlink:href="#DejaVuSans-35"/>
     </g>
    </g>
   </g>
   <g id="text_7">
    <g clip-path="url(#p25c8f3a9e1)">
     <!-- 6 -->
     <g style="opacity: 0" transform="translate(161.891709 801.551132) rotate(-338.892152) scale(0.12 -0.12)">
      <defs>
       <path id="DejaVuSans-36" d="M 2113 2584 
Q 1688 2584 1439 2293 
Q 1191 2003 1191 1497 
Q 1191 994 1439 701 
Q 1688 409 2113 409 
Q 2538 409 2786 701 
Q 3034 994 3034 1497 
Q 3034 2003 2786 2293 
Q 2538 2584 2113 2584 
z
M 3366 4563 
L 3366 3988 
Q 3128 4100 2886 4159 
Q 2644 4219 2406 4219 
Q 1781 4219 1451 3797 
Q 1122 3375 1075 2522 
Q 1259 2794 1537 2939 
Q 1816 3084 2150 3084 
Q 2853 3084 3261 2657 
Q 3669 2231 3669 1497 
Q 3669 778 3244 343 
Q 2819 -91 2113 -91 
Q 1303 -91 875 529 
Q 447 1150 447 2328 
Q 447 3434 972 4092 
Q 1497 4750 2381 4750 
Q 2619 4750 2861 4703 
Q 3103 4656 3366 4563 
z
" transform="scale(0.015625)"/>
      </defs>
      <use xlink:href="#DejaVuSans-36"/>
     </g>
    </g>
   </g>
   <g id="text_8">
    <g clip-path="url(#p25c8f3a9e1)">
     <!-- 7 -->
     <g style="opacity: 0" transform="translate(169.447998 811.331959) rotate(-338.251839) scale(0.12 -0.12)">
      <defs>
       <path id="DejaVuSans-37" d="M 525 4666 
L 3525 4666 
L 3525 4397 
L 1831 0 
L 1172 0 
L 2766 4134 
L 525 4134 
L 525 4666 
z
" transform="scale(0.015625)"/>
      </defs>
      <use xlink:href="#DejaVuSans-37"/>
     </g>
    </g>
   </g>
  </g>
 </g>
 <defs>
  <clipPath id="p25c8f3a9e1">
   <rect x="0" y="0" width="576" height="816.226927"/>
  </clipPath>
 </defs>
</svg>
