<?xml version="1.0" encoding="utf-8" standalone="no"?>
<!DOCTYPE svg PUBLIC "-//W3C//DTD SVG 1.1//EN"
  "http://www.w3.org/Graphics/SVG/1.1/DTD/svg11.dtd">
<svg xmlns:xlink="http://www.w3.org/1999/xlink" width="576pt" height="821.133661pt" viewBox="0 0 576 821.133661" xmlns="http://www.w3.org/2000/svg" version="1.1">
 <metadata>
  <rdf:RDF xmlns:dc="http://purl.org/dc/elements/1.1/" xmlns:cc="http://creativecommons.org/ns#" xmlns:rdf="http://www.w3.org/1999/02/22-rdf-syntax-ns#">
   <cc:Work>
    <dc:type rdf:resource="http://purl.org/dc/dcmitype/StillImage"/>
    <dc:date>2025-07-25T22:45:19.518760</dc:date>
    <dc:format>image/svg+xml</dc:format>
    <dc:creator>
     <cc:Agent>
      <dc:title>Matplotlib v3.10.3, https://matplotlib.org/</dc:title>
     </cc:Agent>
    </dc:creator>
   </cc:Work>
  </rdf:RDF>
 </metadata>
 <defs>
  <style type="text/css">*{stroke-linejoin: round; stroke-linecap: butt}</style>
 </defs>
 <g id="figure_1">
  <g id="patch_1">
   <path d="M 0 821.133661 
L 576 821.133661 
L 576 0 
L 0 0 
L 0 821.133661 
z
" style="fill: none; opacity: 0"/>
  </g>
  <g id="axes_1">
   <g id="QuadContourSet_1">
    <path d="M 141.531429 818.128903 
L 144.822857 818.773294 
L 148.114286 819.181741 
L 151.405714 820.578871 
L 151.959445 821.133661 
L 152.778921 821.133661 
L 151.405714 819.757828 
L 148.114286 818.778901 
L 144.822857 818.492715 
L 141.768999 817.835936 
L 141.531429 817.597911 
L 138.24 815.747623 
L 134.948571 815.291866 
L 131.657143 815.008166 
L 130.279311 814.53821 
L 128.365714 812.956003 
L 125.074286 812.174296 
L 121.782857 811.905148 
L 119.037317 811.240484 
L 118.491429 810.693552 
L 115.2 809.132037 
L 111.908571 808.700923 
L 108.617143 808.325911 
L 107.295424 807.942759 
L 105.325714 806.50691 
L 102.034286 805.866825 
L 98.742857 805.554251 
L 95.451429 805.369029 
L 92.16 805.306739 
L 88.868571 804.705166 
L 88.606044 804.645033 
L 85.577143 803.142512 
L 82.285714 802.548021 
L 78.994286 802.248536 
L 75.702857 802.068288 
L 72.411429 801.953076 
L 69.19241 801.347308 
L 69.12 801.282619 
L 65.828571 799.758677 
L 62.537143 799.23917 
L 59.245714 798.963827 
L 55.954286 798.791989 
L 52.662857 798.695611 
L 49.371429 798.297252 
L 48.087194 798.049582 
L 46.08 796.916813 
L 42.788571 796.132008 
L 39.497143 795.765772 
L 36.205714 795.556007 
L 32.914286 795.419317 
L 29.622857 795.297825 
L 26.331429 794.754266 
L 26.316228 794.751857 
L 23.04 793.404369 
L 19.748571 793.063513 
L 16.457143 792.824078 
L 13.165714 792.64666 
L 9.874286 792.509927 
L 6.582857 792.325173 
L 3.291429 791.538281 
L 2.991633 791.454131 
L 0 790.024718 
L 0 790.834512 
L 1.296808 791.454131 
L 3.291429 792.014001 
L 6.582857 792.736249 
L 9.874286 792.953757 
L 13.165714 793.147969 
L 16.457143 793.399969 
L 19.748571 793.740056 
L 23.04 794.224199 
L 24.322925 794.751857 
L 26.331429 795.070222 
L 29.622857 795.562764 
L 32.914286 795.6999 
L 36.205714 795.894051 
L 39.497143 796.191996 
L 42.788571 796.712188 
L 46.08 797.821557 
L 46.484046 798.049582 
L 49.371429 798.606425 
L 52.662857 798.965589 
L 55.954286 799.102244 
L 59.245714 799.345894 
L 62.537143 799.736304 
L 65.828571 800.472914 
L 67.680052 801.347308 
L 69.12 801.681493 
L 72.411429 802.237678 
L 75.702857 802.369589 
L 78.994286 802.625162 
L 82.285714 803.049804 
L 85.577143 803.892735 
L 87.093686 804.645033 
L 88.868571 805.051577 
L 92.16 805.588322 
L 95.451429 805.675924 
L 98.742857 805.93966 
L 102.034286 806.384733 
L 105.325714 807.296145 
L 106.212745 807.942759 
L 108.617143 808.639767 
L 111.908571 809.022303 
L 115.2 809.636162 
L 118.020807 811.240484 
L 118.491429 811.438889 
L 121.782857 812.186894 
L 125.074286 812.57013 
L 128.365714 813.688883 
L 129.392932 814.53821 
L 131.657143 815.310496 
L 134.948571 815.613832 
L 138.24 816.264292 
L 140.833963 817.835936 
z
" clip-path="url(#p9a841056c9)" style="fill: #f5f9fe; fill-opacity: 0.9"/>
    <path d="M 141.531429 818.487097 
L 144.822857 819.053874 
L 148.114286 819.584581 
L 151.149732 821.133661 
L 151.405714 821.133661 
L 151.959445 821.133661 
L 151.405714 820.578871 
L 148.114286 819.181741 
L 144.822857 818.773294 
L 141.531429 818.128903 
L 140.833963 817.835936 
L 138.24 816.264292 
L 134.948571 815.613832 
L 131.657143 815.310496 
L 129.392932 814.53821 
L 128.365714 813.688883 
L 125.074286 812.57013 
L 121.782857 812.186894 
L 118.491429 811.438889 
L 118.020807 811.240484 
L 115.2 809.636162 
L 111.908571 809.022303 
L 108.617143 808.639767 
L 106.212745 807.942759 
L 105.325714 807.296145 
L 102.034286 806.384733 
L 98.742857 805.93966 
L 95.451429 805.675924 
L 92.16 805.588322 
L 88.868571 805.051577 
L 87.093686 804.645033 
L 85.577143 803.892735 
L 82.285714 803.049804 
L 78.994286 802.625162 
L 75.702857 802.369589 
L 72.411429 802.237678 
L 69.12 801.681493 
L 67.680052 801.347308 
L 65.828571 800.472914 
L 62.537143 799.736304 
L 59.245714 799.345894 
L 55.954286 799.102244 
L 52.662857 798.965589 
L 49.371429 798.606425 
L 46.484046 798.049582 
L 46.08 797.821557 
L 42.788571 796.712188 
L 39.497143 796.191996 
L 36.205714 795.894051 
L 32.914286 795.6999 
L 29.622857 795.562764 
L 26.331429 795.070222 
L 24.322925 794.751857 
L 23.04 794.224199 
L 19.748571 793.740056 
L 16.457143 793.399969 
L 13.165714 793.147969 
L 9.874286 792.953757 
L 6.582857 792.736249 
L 3.291429 792.014001 
L 1.296808 791.454131 
L 0 790.834512 
L 0 791.454131 
L 0 791.586698 
L 3.291429 792.489721 
L 6.582857 793.147324 
L 9.874286 793.397587 
L 13.165714 793.649278 
L 16.457143 793.97586 
L 19.748571 794.416599 
L 21.663114 794.751857 
L 23.04 794.885008 
L 26.331429 795.386177 
L 29.622857 795.827703 
L 32.914286 795.980483 
L 36.205714 796.232095 
L 39.497143 796.61822 
L 42.788571 797.292368 
L 44.880898 798.049582 
L 46.08 798.334524 
L 49.371429 798.915598 
L 52.662857 799.235567 
L 55.954286 799.412499 
L 59.245714 799.727961 
L 62.537143 800.233438 
L 65.828571 801.187152 
L 66.167693 801.347308 
L 69.12 802.032484 
L 72.411429 802.52228 
L 75.702857 802.67089 
L 78.994286 803.001789 
L 82.285714 803.551587 
L 85.577143 804.642958 
L 85.581327 804.645033 
L 88.868571 805.397989 
L 92.16 805.869906 
L 95.451429 805.98282 
L 98.742857 806.32507 
L 102.034286 806.902641 
L 105.054002 807.942759 
L 105.325714 808.022969 
L 108.617143 808.953623 
L 111.908571 809.343682 
L 115.2 810.140287 
L 117.134427 811.240484 
L 118.491429 811.812569 
L 121.782857 812.468639 
L 125.074286 812.965965 
L 128.365714 814.421762 
L 128.506552 814.53821 
L 131.657143 815.612826 
L 134.948571 815.935799 
L 138.24 816.78096 
L 139.981214 817.835936 
z
" clip-path="url(#p9a841056c9)" style="fill: #eff6fc; fill-opacity: 0.9"/>
    <path d="M 141.531429 818.84529 
L 144.822857 819.334454 
L 148.114286 819.987421 
L 150.36036 821.133661 
L 151.149732 821.133661 
L 148.114286 819.584581 
L 144.822857 819.053874 
L 141.531429 818.487097 
L 139.981214 817.835936 
L 138.24 816.78096 
L 134.948571 815.935799 
L 131.657143 815.612826 
L 128.506552 814.53821 
L 128.365714 814.421762 
L 125.074286 812.965965 
L 121.782857 812.468639 
L 118.491429 811.812569 
L 117.134427 811.240484 
L 115.2 810.140287 
L 111.908571 809.343682 
L 108.617143 808.953623 
L 105.325714 808.022969 
L 105.054002 807.942759 
L 102.034286 806.902641 
L 98.742857 806.32507 
L 95.451429 805.98282 
L 92.16 805.869906 
L 88.868571 805.397989 
L 85.581327 804.645033 
L 85.577143 804.642958 
L 82.285714 803.551587 
L 78.994286 803.001789 
L 75.702857 802.67089 
L 72.411429 802.52228 
L 69.12 802.032484 
L 66.167693 801.347308 
L 65.828571 801.187152 
L 62.537143 800.233438 
L 59.245714 799.727961 
L 55.954286 799.412499 
L 52.662857 799.235567 
L 49.371429 798.915598 
L 46.08 798.334524 
L 44.880898 798.049582 
L 42.788571 797.292368 
L 39.497143 796.61822 
L 36.205714 796.232095 
L 32.914286 795.980483 
L 29.622857 795.827703 
L 26.331429 795.386177 
L 23.04 794.885008 
L 21.663114 794.751857 
L 19.748571 794.416599 
L 16.457143 793.97586 
L 13.165714 793.649278 
L 9.874286 793.397587 
L 6.582857 793.147324 
L 3.291429 792.489721 
L 0 791.586698 
L -0 792.151188 
L 3.291429 792.965441 
L 6.582857 793.5584 
L 9.874286 793.841417 
L 13.165714 794.150587 
L 16.457143 794.551751 
L 17.799606 794.751857 
L 19.748571 794.959585 
L 23.04 795.258628 
L 26.331429 795.702133 
L 29.622857 796.092642 
L 32.914286 796.261066 
L 36.205714 796.570139 
L 39.497143 797.044444 
L 42.788571 797.872549 
L 43.277749 798.049582 
L 46.08 798.715478 
L 49.371429 799.224771 
L 52.662857 799.505545 
L 55.954286 799.722754 
L 59.245714 800.110028 
L 62.537143 800.730572 
L 64.562233 801.347308 
L 65.828571 801.702435 
L 69.12 802.383475 
L 72.411429 802.806882 
L 75.702857 802.97219 
L 78.994286 803.378416 
L 82.285714 804.05337 
L 84.068968 804.645033 
L 85.577143 805.093805 
L 88.868571 805.7444 
L 92.16 806.151489 
L 95.451429 806.289715 
L 98.742857 806.71048 
L 102.034286 807.420548 
L 103.55039 807.942759 
L 105.325714 808.466836 
L 108.617143 809.26748 
L 111.908571 809.665062 
L 115.2 810.644412 
L 116.248047 811.240484 
L 118.491429 812.186249 
L 121.782857 812.750385 
L 125.074286 813.3618 
L 127.639674 814.53821 
L 128.365714 814.92616 
L 131.657143 815.915156 
L 134.948571 816.257765 
L 138.24 817.297628 
L 139.128464 817.835936 
z
" clip-path="url(#p9a841056c9)" style="fill: #eaf3fb; fill-opacity: 0.9"/>
    <path d="M 141.531429 819.203484 
L 144.822857 819.615034 
L 148.114286 820.390261 
L 149.570989 821.133661 
L 150.36036 821.133661 
L 148.114286 819.987421 
L 144.822857 819.334454 
L 141.531429 818.84529 
L 139.128464 817.835936 
L 138.24 817.297628 
L 134.948571 816.257765 
L 131.657143 815.915156 
L 128.365714 814.92616 
L 127.639674 814.53821 
L 125.074286 813.3618 
L 121.782857 812.750385 
L 118.491429 812.186249 
L 116.248047 811.240484 
L 115.2 810.644412 
L 111.908571 809.665062 
L 108.617143 809.26748 
L 105.325714 808.466836 
L 103.55039 807.942759 
L 102.034286 807.420548 
L 98.742857 806.71048 
L 95.451429 806.289715 
L 92.16 806.151489 
L 88.868571 805.7444 
L 85.577143 805.093805 
L 84.068968 804.645033 
L 82.285714 804.05337 
L 78.994286 803.378416 
L 75.702857 802.97219 
L 72.411429 802.806882 
L 69.12 802.383475 
L 65.828571 801.702435 
L 64.562233 801.347308 
L 62.537143 800.730572 
L 59.245714 800.110028 
L 55.954286 799.722754 
L 52.662857 799.505545 
L 49.371429 799.224771 
L 46.08 798.715478 
L 43.277749 798.049582 
L 42.788571 797.872549 
L 39.497143 797.044444 
L 36.205714 796.570139 
L 32.914286 796.261066 
L 29.622857 796.092642 
L 26.331429 795.702133 
L 23.04 795.258628 
L 19.748571 794.959585 
L 17.799606 794.751857 
L 16.457143 794.551751 
L 13.165714 794.150587 
L 9.874286 793.841417 
L 6.582857 793.5584 
L 3.291429 792.965441 
L -0 792.151188 
L 0 792.715678 
L 3.291429 793.441161 
L 6.582857 793.969475 
L 9.874286 794.285246 
L 13.165714 794.651896 
L 13.936098 794.751857 
L 16.457143 795.051131 
L 19.748571 795.371372 
L 23.04 795.632248 
L 26.331429 796.018089 
L 29.622857 796.357582 
L 32.914286 796.541649 
L 36.205714 796.908183 
L 39.497143 797.470668 
L 41.674601 798.049582 
L 42.788571 798.394336 
L 46.08 799.096432 
L 49.371429 799.533944 
L 52.662857 799.775523 
L 55.954286 800.033008 
L 59.245714 800.492094 
L 62.537143 801.227706 
L 62.929863 801.347308 
L 65.828571 802.16021 
L 69.12 802.734465 
L 72.411429 803.091484 
L 75.702857 803.273491 
L 78.994286 803.755043 
L 82.285714 804.555154 
L 82.556609 804.645033 
L 85.577143 805.543821 
L 88.868571 806.090811 
L 92.16 806.433073 
L 95.451429 806.596611 
L 98.742857 807.095889 
L 102.034286 807.938456 
L 102.046778 807.942759 
L 105.325714 808.910704 
L 108.617143 809.581336 
L 111.908571 809.986441 
L 115.2 811.148537 
L 115.361667 811.240484 
L 118.491429 812.559928 
L 121.782857 813.03213 
L 125.074286 813.757635 
L 126.77648 814.53821 
L 128.365714 815.387395 
L 131.657143 816.217486 
L 134.948571 816.579731 
L 138.24 817.814297 
L 138.275715 817.835936 
z
" clip-path="url(#p9a841056c9)" style="fill: #e5eff9; fill-opacity: 0.9"/>
    <path d="M 138.24 818.429336 
L 141.531429 819.561678 
L 144.822857 819.895614 
L 148.114286 820.793102 
L 148.781617 821.133661 
L 149.570989 821.133661 
L 148.114286 820.390261 
L 144.822857 819.615034 
L 141.531429 819.203484 
L 138.275715 817.835936 
L 138.24 817.814297 
L 134.948571 816.579731 
L 131.657143 816.217486 
L 128.365714 815.387395 
L 126.77648 814.53821 
L 125.074286 813.757635 
L 121.782857 813.03213 
L 118.491429 812.559928 
L 115.361667 811.240484 
L 115.2 811.148537 
L 111.908571 809.986441 
L 108.617143 809.581336 
L 105.325714 808.910704 
L 102.046778 807.942759 
L 102.034286 807.938456 
L 98.742857 807.095889 
L 95.451429 806.596611 
L 92.16 806.433073 
L 88.868571 806.090811 
L 85.577143 805.543821 
L 82.556609 804.645033 
L 82.285714 804.555154 
L 78.994286 803.755043 
L 75.702857 803.273491 
L 72.411429 803.091484 
L 69.12 802.734465 
L 65.828571 802.16021 
L 62.929863 801.347308 
L 62.537143 801.227706 
L 59.245714 800.492094 
L 55.954286 800.033008 
L 52.662857 799.775523 
L 49.371429 799.533944 
L 46.08 799.096432 
L 42.788571 798.394336 
L 41.674601 798.049582 
L 39.497143 797.470668 
L 36.205714 796.908183 
L 32.914286 796.541649 
L 29.622857 796.357582 
L 26.331429 796.018089 
L 23.04 795.632248 
L 19.748571 795.371372 
L 16.457143 795.051131 
L 13.936098 794.751857 
L 13.165714 794.651896 
L 9.874286 794.285246 
L 6.582857 793.969475 
L 3.291429 793.441161 
L 0 792.715678 
L 0 793.280169 
L 3.291429 793.916881 
L 6.582857 794.380551 
L 9.874286 794.729076 
L 10.07259 794.751857 
L 13.165714 795.166184 
L 16.457143 795.50977 
L 19.748571 795.783159 
L 23.04 796.005868 
L 26.331429 796.334044 
L 29.622857 796.622521 
L 32.914286 796.822232 
L 36.205714 797.246227 
L 39.497143 797.896892 
L 40.071453 798.049582 
L 42.788571 798.890482 
L 46.08 799.477387 
L 49.371429 799.843117 
L 52.662857 800.045501 
L 55.954286 800.343263 
L 59.245714 800.874161 
L 61.285986 801.347308 
L 62.537143 801.826548 
L 65.828571 802.617985 
L 69.12 803.085456 
L 72.411429 803.376086 
L 75.702857 803.574792 
L 78.994286 804.13167 
L 81.04856 804.645033 
L 82.285714 805.171869 
L 85.577143 805.993837 
L 88.868571 806.437222 
L 92.16 806.714657 
L 95.451429 806.903507 
L 98.742857 807.481299 
L 100.543166 807.942759 
L 102.034286 808.5682 
L 105.325714 809.354572 
L 108.617143 809.895192 
L 111.908571 810.307821 
L 114.476521 811.240484 
L 115.2 811.77332 
L 118.491429 812.933608 
L 121.782857 813.313876 
L 125.074286 814.15347 
L 125.913286 814.53821 
L 128.365714 815.848631 
L 131.657143 816.519815 
L 134.948571 816.901697 
L 137.422965 817.835936 
z
" clip-path="url(#p9a841056c9)" style="fill: #dfecf7; fill-opacity: 0.9"/>
    <path d="M 138.24 819.048675 
L 141.531429 819.919872 
L 144.822857 820.176193 
L 147.971629 821.133661 
L 148.114286 821.133661 
L 148.781617 821.133661 
L 148.114286 820.793102 
L 144.822857 819.895614 
L 141.531429 819.561678 
L 138.24 818.429336 
L 137.422965 817.835936 
L 134.948571 816.901697 
L 131.657143 816.519815 
L 128.365714 815.848631 
L 125.913286 814.53821 
L 125.074286 814.15347 
L 121.782857 813.313876 
L 118.491429 812.933608 
L 115.2 811.77332 
L 114.476521 811.240484 
L 111.908571 810.307821 
L 108.617143 809.895192 
L 105.325714 809.354572 
L 102.034286 808.5682 
L 100.543166 807.942759 
L 98.742857 807.481299 
L 95.451429 806.903507 
L 92.16 806.714657 
L 88.868571 806.437222 
L 85.577143 805.993837 
L 82.285714 805.171869 
L 81.04856 804.645033 
L 78.994286 804.13167 
L 75.702857 803.574792 
L 72.411429 803.376086 
L 69.12 803.085456 
L 65.828571 802.617985 
L 62.537143 801.826548 
L 61.285986 801.347308 
L 59.245714 800.874161 
L 55.954286 800.343263 
L 52.662857 800.045501 
L 49.371429 799.843117 
L 46.08 799.477387 
L 42.788571 798.890482 
L 40.071453 798.049582 
L 39.497143 797.896892 
L 36.205714 797.246227 
L 32.914286 796.822232 
L 29.622857 796.622521 
L 26.331429 796.334044 
L 23.04 796.005868 
L 19.748571 795.783159 
L 16.457143 795.50977 
L 13.165714 795.166184 
L 10.07259 794.751857 
L 9.874286 794.729076 
L 6.582857 794.380551 
L 3.291429 793.916881 
L 0 793.280169 
L 0 793.844659 
L 3.291429 794.392601 
L 6.209081 794.751857 
L 6.582857 794.819222 
L 9.874286 795.315131 
L 13.165714 795.683705 
L 16.457143 795.968409 
L 19.748571 796.194946 
L 23.04 796.379488 
L 26.331429 796.65 
L 29.622857 796.88746 
L 32.914286 797.102815 
L 36.205714 797.584271 
L 38.450534 798.049582 
L 39.497143 798.50578 
L 42.788571 799.386627 
L 46.08 799.858341 
L 49.371429 800.15229 
L 52.662857 800.315479 
L 55.954286 800.653518 
L 59.245714 801.256228 
L 59.638463 801.347308 
L 62.537143 802.45761 
L 65.828571 803.07576 
L 69.12 803.436447 
L 72.411429 803.660688 
L 75.702857 803.876092 
L 78.994286 804.508296 
L 79.541452 804.645033 
L 82.285714 805.813663 
L 85.577143 806.443853 
L 88.868571 806.783633 
L 92.16 806.99624 
L 95.451429 807.210402 
L 98.742857 807.866709 
L 99.039555 807.942759 
L 102.034286 809.198881 
L 105.325714 809.79844 
L 108.617143 810.209049 
L 111.908571 810.629201 
L 113.59165 811.240484 
L 115.2 812.42502 
L 118.491429 813.307288 
L 121.782857 813.595621 
L 125.04694 814.53821 
L 125.074286 814.566096 
L 128.365714 816.309867 
L 131.657143 816.822145 
L 134.948571 817.223663 
L 136.570216 817.835936 
z
" clip-path="url(#p9a841056c9)" style="fill: #dae8f6; fill-opacity: 0.9"/>
    <path d="M 138.24 819.668014 
L 141.531429 820.278065 
L 144.822857 820.456773 
L 147.048901 821.133661 
L 147.971629 821.133661 
L 144.822857 820.176193 
L 141.531429 819.919872 
L 138.24 819.048675 
L 136.570216 817.835936 
L 134.948571 817.223663 
L 131.657143 816.822145 
L 128.365714 816.309867 
L 125.074286 814.566096 
L 125.04694 814.53821 
L 121.782857 813.595621 
L 118.491429 813.307288 
L 115.2 812.42502 
L 113.59165 811.240484 
L 111.908571 810.629201 
L 108.617143 810.209049 
L 105.325714 809.79844 
L 102.034286 809.198881 
L 99.039555 807.942759 
L 98.742857 807.866709 
L 95.451429 807.210402 
L 92.16 806.99624 
L 88.868571 806.783633 
L 85.577143 806.443853 
L 82.285714 805.813663 
L 79.541452 804.645033 
L 78.994286 804.508296 
L 75.702857 803.876092 
L 72.411429 803.660688 
L 69.12 803.436447 
L 65.828571 803.07576 
L 62.537143 802.45761 
L 59.638463 801.347308 
L 59.245714 801.256228 
L 55.954286 800.653518 
L 52.662857 800.315479 
L 49.371429 800.15229 
L 46.08 799.858341 
L 42.788571 799.386627 
L 39.497143 798.50578 
L 38.450534 798.049582 
L 36.205714 797.584271 
L 32.914286 797.102815 
L 29.622857 796.88746 
L 26.331429 796.65 
L 23.04 796.379488 
L 19.748571 796.194946 
L 16.457143 795.968409 
L 13.165714 795.683705 
L 9.874286 795.315131 
L 6.582857 794.819222 
L 6.209081 794.751857 
L 3.291429 794.392601 
L 0 793.844659 
L 0 794.409149 
L 2.345573 794.751857 
L 3.291429 794.957922 
L 6.582857 795.515534 
L 9.874286 795.90888 
L 13.165714 796.201226 
L 16.457143 796.427048 
L 19.748571 796.606732 
L 23.04 796.753108 
L 26.331429 796.965955 
L 29.622857 797.152399 
L 32.914286 797.383398 
L 36.205714 797.922315 
L 36.819696 798.049582 
L 39.497143 799.216634 
L 42.788571 799.882773 
L 46.08 800.239295 
L 49.371429 800.461463 
L 52.662857 800.585457 
L 55.954286 800.963773 
L 57.990941 801.347308 
L 59.245714 802.113921 
L 62.537143 803.088673 
L 65.828571 803.533536 
L 69.12 803.787438 
L 72.411429 803.94529 
L 75.702857 804.177393 
L 78.03657 804.645033 
L 78.994286 805.358826 
L 82.285714 806.455457 
L 85.577143 806.893869 
L 88.868571 807.130044 
L 92.16 807.277824 
L 95.451429 807.517298 
L 97.535943 807.942759 
L 98.742857 808.816894 
L 102.034286 809.829562 
L 105.325714 810.242307 
L 108.617143 810.522905 
L 111.908571 810.95058 
L 112.70678 811.240484 
L 115.2 813.07672 
L 118.491429 813.680968 
L 121.782857 813.877367 
L 124.071286 814.53821 
L 125.074286 815.561032 
L 128.365714 816.771103 
L 131.657143 817.124475 
L 134.948571 817.54563 
L 135.717466 817.835936 
z
" clip-path="url(#p9a841056c9)" style="fill: #d6e5f4; fill-opacity: 0.9"/>
    <path d="M 134.948571 818.06087 
L 138.24 820.287353 
L 141.531429 820.636259 
L 144.822857 820.737353 
L 146.126174 821.133661 
L 147.048901 821.133661 
L 144.822857 820.456773 
L 141.531429 820.278065 
L 138.24 819.668014 
L 135.717466 817.835936 
L 134.948571 817.54563 
L 131.657143 817.124475 
L 128.365714 816.771103 
L 125.074286 815.561032 
L 124.071286 814.53821 
L 121.782857 813.877367 
L 118.491429 813.680968 
L 115.2 813.07672 
L 112.70678 811.240484 
L 111.908571 810.95058 
L 108.617143 810.522905 
L 105.325714 810.242307 
L 102.034286 809.829562 
L 98.742857 808.816894 
L 97.535943 807.942759 
L 95.451429 807.517298 
L 92.16 807.277824 
L 88.868571 807.130044 
L 85.577143 806.893869 
L 82.285714 806.455457 
L 78.994286 805.358826 
L 78.03657 804.645033 
L 75.702857 804.177393 
L 72.411429 803.94529 
L 69.12 803.787438 
L 65.828571 803.533536 
L 62.537143 803.088673 
L 59.245714 802.113921 
L 57.990941 801.347308 
L 55.954286 800.963773 
L 52.662857 800.585457 
L 49.371429 800.461463 
L 46.08 800.239295 
L 42.788571 799.882773 
L 39.497143 799.216634 
L 36.819696 798.049582 
L 36.205714 797.922315 
L 32.914286 797.383398 
L 29.622857 797.152399 
L 26.331429 796.965955 
L 23.04 796.753108 
L 19.748571 796.606732 
L 16.457143 796.427048 
L 13.165714 796.201226 
L 9.874286 795.90888 
L 6.582857 795.515534 
L 3.291429 794.957922 
L 2.345573 794.751857 
L 0 794.409149 
L 0 794.751857 
L 0 795.169832 
L 3.291429 795.79963 
L 6.582857 796.211847 
L 9.874286 796.502629 
L 13.165714 796.718748 
L 16.457143 796.885687 
L 19.748571 797.018519 
L 23.04 797.126728 
L 26.331429 797.281911 
L 29.622857 797.417339 
L 32.914286 797.663981 
L 35.178454 798.049582 
L 36.205714 798.819919 
L 39.497143 799.927487 
L 42.788571 800.378918 
L 46.08 800.62025 
L 49.371429 800.770636 
L 52.662857 800.855435 
L 55.954286 801.274028 
L 56.343418 801.347308 
L 59.245714 803.120488 
L 62.537143 803.719735 
L 65.828571 803.991311 
L 69.12 804.138428 
L 72.411429 804.229892 
L 75.702857 804.478694 
L 76.532959 804.645033 
L 78.994286 806.479479 
L 82.285714 807.097251 
L 85.577143 807.343885 
L 88.868571 807.476456 
L 92.16 807.559407 
L 95.451429 807.824193 
L 96.032331 807.942759 
L 98.742857 809.905919 
L 102.034286 810.460242 
L 105.325714 810.686175 
L 108.617143 810.836762 
L 111.6757 811.240484 
L 111.908571 811.488081 
L 115.2 813.72842 
L 118.491429 814.054647 
L 121.782857 814.159112 
L 123.095632 814.53821 
L 125.074286 816.555968 
L 128.365714 817.232338 
L 131.657143 817.426805 
L 134.725602 817.835936 
z
" clip-path="url(#p9a841056c9)" style="fill: #d0e2f2; fill-opacity: 0.9"/>
    <path d="M 32.914286 821.133661 
L 36.205714 821.133661 
L 39.497143 821.133661 
L 42.788571 821.133661 
L 46.08 821.133661 
L 49.371429 821.133661 
L 52.662857 821.133661 
L 55.954286 821.133661 
L 59.245714 821.133661 
L 62.537143 821.133661 
L 65.828571 821.133661 
L 69.12 821.133661 
L 72.411429 821.133661 
L 75.702857 821.133661 
L 78.994286 821.133661 
L 82.285714 821.133661 
L 85.577143 821.133661 
L 88.868571 821.133661 
L 92.16 821.133661 
L 95.451429 821.133661 
L 98.742857 821.133661 
L 102.034286 821.133661 
L 105.325714 821.133661 
L 108.617143 821.133661 
L 109.011187 821.133661 
L 108.617143 820.72649 
L 105.488734 817.835936 
L 105.325714 817.761441 
L 102.034286 817.349624 
L 98.742857 816.880192 
L 95.451429 816.244352 
L 92.16 815.686233 
L 88.868571 815.214571 
L 85.577143 814.811889 
L 83.325272 814.53821 
L 82.285714 814.443005 
L 78.994286 814.131867 
L 75.702857 813.635167 
L 72.411429 813.147775 
L 69.12 812.678983 
L 65.828571 812.227746 
L 62.537143 812.575698 
L 59.245714 813.198479 
L 55.954286 813.64224 
L 52.662857 814.067261 
L 49.623131 814.53821 
L 49.371429 814.593218 
L 46.08 815.312844 
L 42.788571 816.03305 
L 39.497143 816.753835 
L 36.205714 817.381472 
L 33.723773 817.835936 
L 32.914286 818.966767 
L 31.75528 821.133661 
z
M 134.948571 820.348307 
L 138.24 820.906692 
L 141.531429 820.994453 
L 144.822857 821.017933 
L 145.203447 821.133661 
L 146.126174 821.133661 
L 144.822857 820.737353 
L 141.531429 820.636259 
L 138.24 820.287353 
L 134.948571 818.06087 
L 134.725602 817.835936 
L 131.657143 817.426805 
L 128.365714 817.232338 
L 125.074286 816.555968 
L 123.095632 814.53821 
L 121.782857 814.159112 
L 118.491429 814.054647 
L 115.2 813.72842 
L 111.908571 811.488081 
L 111.6757 811.240484 
L 108.617143 810.836762 
L 105.325714 810.686175 
L 102.034286 810.460242 
L 98.742857 809.905919 
L 96.032331 807.942759 
L 95.451429 807.824193 
L 92.16 807.559407 
L 88.868571 807.476456 
L 85.577143 807.343885 
L 82.285714 807.097251 
L 78.994286 806.479479 
L 76.532959 804.645033 
L 75.702857 804.478694 
L 72.411429 804.229892 
L 69.12 804.138428 
L 65.828571 803.991311 
L 62.537143 803.719735 
L 59.245714 803.120488 
L 56.343418 801.347308 
L 55.954286 801.274028 
L 52.662857 800.855435 
L 49.371429 800.770636 
L 46.08 800.62025 
L 42.788571 800.378918 
L 39.497143 799.927487 
L 36.205714 798.819919 
L 35.178454 798.049582 
L 32.914286 797.663981 
L 29.622857 797.417339 
L 26.331429 797.281911 
L 23.04 797.126728 
L 19.748571 797.018519 
L 16.457143 796.885687 
L 13.165714 796.718748 
L 9.874286 796.502629 
L 6.582857 796.211847 
L 3.291429 795.79963 
L 0 795.169832 
L 0 796.23368 
L 3.291429 796.641338 
L 6.582857 796.90816 
L 9.874286 797.096379 
L 13.165714 797.236269 
L 16.457143 797.344326 
L 19.748571 797.430306 
L 23.04 797.500348 
L 26.331429 797.597867 
L 29.622857 797.682278 
L 32.914286 797.944564 
L 33.530932 798.049582 
L 36.205714 800.055388 
L 39.497143 800.638341 
L 42.788571 800.875063 
L 46.08 801.001204 
L 49.371429 801.079809 
L 52.662857 801.125413 
L 54.368862 801.347308 
L 55.954286 803.245798 
L 59.245714 804.127055 
L 62.537143 804.350798 
L 65.828571 804.449086 
L 69.12 804.489419 
L 72.411429 804.514494 
L 74.076647 804.645033 
L 75.702857 806.636895 
L 78.994286 807.600132 
L 82.285714 807.739045 
L 85.577143 807.793901 
L 88.868571 807.822867 
L 92.16 807.840991 
L 93.379973 807.942759 
L 95.451429 810.390629 
L 98.742857 810.994944 
L 102.034286 811.090923 
L 105.325714 811.130043 
L 108.617143 811.150618 
L 109.297961 811.240484 
L 111.908571 814.016173 
L 115.2 814.38012 
L 118.491429 814.428327 
L 121.782857 814.440858 
L 122.119977 814.53821 
L 125.074286 817.550904 
L 128.365714 817.693574 
L 131.657143 817.729135 
L 132.458143 817.835936 
z
" clip-path="url(#p9a841056c9)" style="fill: #cbdef1; fill-opacity: 0.9"/>
    <path d="M 3.291429 821.133661 
L 6.582857 821.133661 
L 9.874286 821.133661 
L 13.165714 821.133661 
L 16.457143 821.133661 
L 19.748571 821.133661 
L 23.04 821.133661 
L 26.331429 821.133661 
L 29.622857 821.133661 
L 31.75528 821.133661 
L 32.914286 818.966767 
L 33.723773 817.835936 
L 36.205714 817.381472 
L 39.497143 816.753835 
L 42.788571 816.03305 
L 46.08 815.312844 
L 49.371429 814.593218 
L 49.623131 814.53821 
L 52.662857 814.067261 
L 55.954286 813.64224 
L 59.245714 813.198479 
L 62.537143 812.575698 
L 65.828571 812.227746 
L 69.12 812.678983 
L 72.411429 813.147775 
L 75.702857 813.635167 
L 78.994286 814.131867 
L 82.285714 814.443005 
L 83.325272 814.53821 
L 85.577143 814.811889 
L 88.868571 815.214571 
L 92.16 815.686233 
L 95.451429 816.244352 
L 98.742857 816.880192 
L 102.034286 817.349624 
L 105.325714 817.761441 
L 105.488734 817.835936 
L 108.617143 820.72649 
L 109.011187 821.133661 
L 111.908571 821.133661 
L 115.2 821.133661 
L 118.491429 821.133661 
L 121.782857 821.133661 
L 125.074286 821.133661 
L 128.365714 821.133661 
L 131.657143 821.133661 
L 134.948571 821.133661 
L 138.24 821.133661 
L 141.531429 821.133661 
L 144.822857 821.133661 
L 145.203447 821.133661 
L 144.822857 821.017933 
L 141.531429 820.994453 
L 138.24 820.906692 
L 134.948571 820.348307 
L 132.458143 817.835936 
L 131.657143 817.729135 
L 128.365714 817.693574 
L 125.074286 817.550904 
L 122.119977 814.53821 
L 121.782857 814.440858 
L 118.491429 814.428327 
L 115.2 814.38012 
L 111.908571 814.016173 
L 109.297961 811.240484 
L 108.617143 811.150618 
L 105.325714 811.130043 
L 102.034286 811.090923 
L 98.742857 810.994944 
L 95.451429 810.390629 
L 93.379973 807.942759 
L 92.16 807.840991 
L 88.868571 807.822867 
L 85.577143 807.793901 
L 82.285714 807.739045 
L 78.994286 807.600132 
L 75.702857 806.636895 
L 74.076647 804.645033 
L 72.411429 804.514494 
L 69.12 804.489419 
L 65.828571 804.449086 
L 62.537143 804.350798 
L 59.245714 804.127055 
L 55.954286 803.245798 
L 54.368862 801.347308 
L 52.662857 801.125413 
L 49.371429 801.079809 
L 46.08 801.001204 
L 42.788571 800.875063 
L 39.497143 800.638341 
L 36.205714 800.055388 
L 33.530932 798.049582 
L 32.914286 797.944564 
L 29.622857 797.682278 
L 26.331429 797.597867 
L 23.04 797.500348 
L 19.748571 797.430306 
L 16.457143 797.344326 
L 13.165714 797.236269 
L 9.874286 797.096379 
L 6.582857 796.90816 
L 3.291429 796.641338 
L 0 796.23368 
L 0 797.297528 
L 3.291429 797.483047 
L 6.582857 797.604473 
L 9.874286 797.690128 
L 13.165714 797.75379 
L 16.457143 797.802965 
L 19.748571 797.842093 
L 23.04 797.873968 
L 26.331429 797.913822 
L 29.622857 797.947217 
L 30.879388 798.049582 
L 32.914286 800.91645 
L 36.205714 801.290857 
L 39.316473 801.347308 
L 36.205714 801.96141 
L 32.914286 802.567666 
L 29.622857 803.01676 
L 26.331429 803.433594 
L 23.04 803.868984 
L 19.748571 804.413602 
L 18.39472 804.645033 
L 16.457143 804.99101 
L 13.165714 805.606765 
L 9.874286 806.260637 
L 6.582857 806.95628 
L 3.291429 807.697829 
L 2.249996 807.942759 
L 0 808.574787 
L 0 811.240484 
L 0 814.53821 
L 0 817.835936 
L 0 821.133661 
z
" clip-path="url(#p9a841056c9)" style="fill: #c6dbef; fill-opacity: 0.9"/>
    <path d="M 2.249996 807.942759 
L 3.291429 807.697829 
L 6.582857 806.95628 
L 9.874286 806.260637 
L 13.165714 805.606765 
L 16.457143 804.99101 
L 18.39472 804.645033 
L 19.748571 804.413602 
L 23.04 803.868984 
L 26.331429 803.433594 
L 29.622857 803.01676 
L 32.914286 802.567666 
L 36.205714 801.96141 
L 39.316473 801.347308 
L 36.205714 801.290857 
L 32.914286 800.91645 
L 30.879388 798.049582 
L 29.622857 797.947217 
L 26.331429 797.913822 
L 23.04 797.873968 
L 19.748571 797.842093 
L 16.457143 797.802965 
L 13.165714 797.75379 
L 9.874286 797.690128 
L 6.582857 797.604473 
L 3.291429 797.483047 
L 0 797.297528 
L 0 798.049582 
L 0 801.347308 
L 0 804.645033 
L 0 807.942759 
L 0 808.574787 
z
" clip-path="url(#p9a841056c9)" style="fill: #bed8ec; fill-opacity: 0.9"/>
    <path clip-path="url(#p9a841056c9)" style="fill: #b5d4e9; fill-opacity: 0.9"/>
    <path clip-path="url(#p9a841056c9)" style="fill: #add0e6; fill-opacity: 0.9"/>
    <path clip-path="url(#p9a841056c9)" style="fill: #a5cde3; fill-opacity: 0.9"/>
    <path clip-path="url(#p9a841056c9)" style="fill: #9cc9e1; fill-opacity: 0.9"/>
    <path clip-path="url(#p9a841056c9)" style="fill: #91c3de; fill-opacity: 0.9"/>
    <path clip-path="url(#p9a841056c9)" style="fill: #85bcdc; fill-opacity: 0.9"/>
    <path clip-path="url(#p9a841056c9)" style="fill: #7cb7da; fill-opacity: 0.9"/>
    <path clip-path="url(#p9a841056c9)" style="fill: #71b1d7; fill-opacity: 0.9"/>
    <path clip-path="url(#p9a841056c9)" style="fill: #66abd4; fill-opacity: 0.9"/>
    <path clip-path="url(#p9a841056c9)" style="fill: #5da5d1; fill-opacity: 0.9"/>
    <path clip-path="url(#p9a841056c9)" style="fill: #56a0ce; fill-opacity: 0.9"/>
    <path clip-path="url(#p9a841056c9)" style="fill: #4d99ca; fill-opacity: 0.9"/>
    <path clip-path="url(#p9a841056c9)" style="fill: #4493c7; fill-opacity: 0.9"/>
    <path clip-path="url(#p9a841056c9)" style="fill: #3c8cc3; fill-opacity: 0.9"/>
    <path clip-path="url(#p9a841056c9)" style="fill: #3686c0; fill-opacity: 0.9"/>
    <path clip-path="url(#p9a841056c9)" style="fill: #2f7fbc; fill-opacity: 0.9"/>
    <path clip-path="url(#p9a841056c9)" style="fill: #2777b8; fill-opacity: 0.9"/>
    <path clip-path="url(#p9a841056c9)" style="fill: #2070b4; fill-opacity: 0.9"/>
    <path clip-path="url(#p9a841056c9)" style="fill: #1c6ab0; fill-opacity: 0.9"/>
    <path clip-path="url(#p9a841056c9)" style="fill: #1663aa; fill-opacity: 0.9"/>
    <path clip-path="url(#p9a841056c9)" style="fill: #115ca5; fill-opacity: 0.9"/>
    <path clip-path="url(#p9a841056c9)" style="fill: #0c56a0; fill-opacity: 0.9"/>
    <path clip-path="url(#p9a841056c9)" style="fill: #084f99; fill-opacity: 0.9"/>
    <path clip-path="url(#p9a841056c9)" style="fill: #08488e; fill-opacity: 0.9"/>
    <path clip-path="url(#p9a841056c9)" style="fill: #084184; fill-opacity: 0.9"/>
    <path clip-path="url(#p9a841056c9)" style="fill: #083a7a; fill-opacity: 0.9"/>
    <path clip-path="url(#p9a841056c9)" style="fill: #083370; fill-opacity: 0.9"/>
    <path clip-path="url(#p9a841056c9)" style="fill: #08306b; fill-opacity: 0.9"/>
   </g>
   <g id="QuadContourSet_2">
    <path d="M 152.778921 821.133661 
L 151.405714 819.757828 
L 148.114286 818.778901 
L 144.822857 818.492715 
L 141.768999 817.835936 
L 141.531429 817.597911 
L 138.24 815.747623 
L 134.948571 815.291866 
L 131.657143 815.008166 
L 130.279311 814.53821 
L 128.365714 812.956003 
L 125.074286 812.174296 
L 121.782857 811.905148 
L 119.037317 811.240484 
L 118.491429 810.693552 
L 115.2 809.132037 
L 111.908571 808.700923 
L 108.617143 808.325911 
L 107.295424 807.942759 
L 105.325714 806.50691 
L 102.034286 805.866825 
L 98.742857 805.554251 
L 95.451429 805.369029 
L 92.16 805.306739 
L 88.868571 804.705166 
L 88.606044 804.645033 
L 85.577143 803.142512 
L 82.285714 802.548021 
L 78.994286 802.248536 
L 75.702857 802.068288 
L 72.411429 801.953076 
L 69.19241 801.347308 
L 69.12 801.282619 
L 65.828571 799.758677 
L 62.537143 799.23917 
L 59.245714 798.963827 
L 55.954286 798.791989 
L 52.662857 798.695611 
L 49.371429 798.297252 
L 48.087194 798.049582 
L 46.08 796.916813 
L 42.788571 796.132008 
L 39.497143 795.765772 
L 39.134559 795.742664 
M 20.421286 793.133179 
L 19.748571 793.063513 
L 16.457143 792.824078 
L 13.165714 792.64666 
L 9.874286 792.509927 
L 6.582857 792.325173 
L 3.291429 791.538281 
L 2.991633 791.454131 
L 0 790.024718 
" clip-path="url(#p9a841056c9)" style="fill: none"/>
    <path d="M 151.959445 821.133661 
L 151.405714 820.578871 
L 148.114286 819.181741 
L 144.822857 818.773294 
L 141.531429 818.128903 
L 140.833963 817.835936 
L 138.24 816.264292 
L 134.948571 815.613832 
L 131.657143 815.310496 
L 129.392932 814.53821 
L 128.365714 813.688883 
L 125.074286 812.57013 
L 124.22269 812.470975 
M 105.874413 807.696127 
L 105.325714 807.296145 
L 102.034286 806.384733 
L 98.742857 805.93966 
L 95.451429 805.675924 
L 92.16 805.588322 
L 88.868571 805.051577 
L 87.093686 804.645033 
L 85.577143 803.892735 
L 82.285714 803.049804 
L 78.994286 802.625162 
L 75.702857 802.369589 
L 72.411429 802.237678 
L 69.12 801.681493 
L 67.680052 801.347308 
L 65.828571 800.472914 
L 62.537143 799.736304 
L 59.245714 799.345894 
L 55.954286 799.102244 
L 52.662857 798.965589 
L 49.371429 798.606425 
L 46.484046 798.049582 
L 46.08 797.821557 
L 42.788571 796.712188 
L 39.497143 796.191996 
L 36.205714 795.894051 
L 32.914286 795.6999 
L 29.622857 795.562764 
L 26.331429 795.070222 
L 24.322925 794.751857 
L 23.04 794.224199 
L 19.748571 793.740056 
L 16.457143 793.399969 
L 13.165714 793.147969 
L 9.874286 792.953757 
L 6.582857 792.736249 
L 3.291429 792.014001 
L 1.296808 791.454131 
L 0 790.834512 
" clip-path="url(#p9a841056c9)" style="fill: none"/>
    <path d="M 151.149732 821.133661 
L 148.114286 819.584581 
L 147.320249 819.456551 
M 128.932581 814.683522 
L 128.506552 814.53821 
L 128.365714 814.421762 
L 125.074286 812.965965 
L 121.782857 812.468639 
L 118.491429 811.812569 
L 117.134427 811.240484 
L 115.2 810.140287 
L 111.908571 809.343682 
L 108.617143 808.953623 
L 105.325714 808.022969 
L 105.054002 807.942759 
L 102.034286 806.902641 
L 98.742857 806.32507 
L 95.451429 805.98282 
L 92.16 805.869906 
L 88.868571 805.397989 
L 85.581327 804.645033 
L 85.577143 804.642958 
L 82.285714 803.551587 
L 78.994286 803.001789 
L 75.702857 802.67089 
L 72.411429 802.52228 
L 69.12 802.032484 
L 66.167693 801.347308 
L 65.828571 801.187152 
L 62.537143 800.233438 
L 59.245714 799.727961 
L 55.954286 799.412499 
L 52.662857 799.235567 
L 49.371429 798.915598 
L 46.08 798.334524 
L 44.880898 798.049582 
L 42.788571 797.292368 
L 39.497143 796.61822 
L 36.205714 796.232095 
L 32.914286 795.980483 
L 29.622857 795.827703 
L 26.331429 795.386177 
L 23.04 794.885008 
L 21.663114 794.751857 
L 19.748571 794.416599 
L 16.457143 793.97586 
L 13.165714 793.649278 
L 9.874286 793.397587 
L 6.582857 793.147324 
L 3.291429 792.489721 
L 0 791.586698 
" clip-path="url(#p9a841056c9)" style="fill: none"/>
    <path d="M 150.36036 821.133661 
L 148.114286 819.987421 
L 144.822857 819.334454 
L 141.531429 818.84529 
L 139.128464 817.835936 
L 138.24 817.297628 
L 134.948571 816.257765 
L 131.657143 815.915156 
L 128.365714 814.92616 
L 127.639674 814.53821 
L 125.074286 813.3618 
L 121.782857 812.750385 
L 118.491429 812.186249 
L 116.248047 811.240484 
L 115.2 810.644412 
L 111.908571 809.665062 
L 108.617143 809.26748 
L 105.325714 808.466836 
L 103.55039 807.942759 
L 102.034286 807.420548 
L 98.742857 806.71048 
L 95.451429 806.289715 
L 93.496292 806.207608 
M 74.676266 802.920631 
L 72.411429 802.806882 
L 69.12 802.383475 
L 65.828571 801.702435 
L 64.562233 801.347308 
L 62.537143 800.730572 
L 59.245714 800.110028 
L 55.954286 799.722754 
L 52.662857 799.505545 
L 49.371429 799.224771 
L 46.08 798.715478 
L 43.277749 798.049582 
L 42.788571 797.872549 
L 39.497143 797.044444 
L 36.205714 796.570139 
L 32.914286 796.261066 
L 29.622857 796.092642 
L 26.331429 795.702133 
L 23.04 795.258628 
L 19.748571 794.959585 
L 17.799606 794.751857 
L 16.457143 794.551751 
L 13.165714 794.150587 
L 9.874286 793.841417 
L 6.582857 793.5584 
L 3.291429 792.965441 
L -0 792.151188 
" clip-path="url(#p9a841056c9)" style="fill: none"/>
    <path d="M 149.570989 821.133661 
L 148.114286 820.390261 
L 144.822857 819.615034 
L 141.531429 819.203484 
L 138.275715 817.835936 
L 138.24 817.814297 
L 134.948571 816.579731 
L 131.657143 816.217486 
L 128.365714 815.387395 
L 126.77648 814.53821 
L 125.074286 813.757635 
L 121.782857 813.03213 
L 118.491429 812.559928 
L 115.361667 811.240484 
L 115.2 811.148537 
L 111.908571 809.986441 
L 108.617143 809.581336 
L 105.325714 808.910704 
L 102.046778 807.942759 
L 102.034286 807.938456 
L 98.742857 807.095889 
L 95.451429 806.596611 
L 92.16 806.433073 
L 88.868571 806.090811 
L 85.577143 805.543821 
L 82.556609 804.645033 
L 82.285714 804.555154 
L 78.994286 803.755043 
L 75.702857 803.273491 
L 72.411429 803.091484 
L 69.12 802.734465 
L 65.828571 802.16021 
L 65.258942 802.000465 
M 46.475517 799.149006 
L 46.08 799.096432 
L 42.788571 798.394336 
L 41.674601 798.049582 
L 39.497143 797.470668 
L 36.205714 796.908183 
L 32.914286 796.541649 
L 29.622857 796.357582 
L 26.331429 796.018089 
L 23.04 795.632248 
L 19.748571 795.371372 
L 16.457143 795.051131 
L 13.936098 794.751857 
L 13.165714 794.651896 
L 9.874286 794.285246 
L 6.582857 793.969475 
L 3.291429 793.441161 
L 0 792.715678 
" clip-path="url(#p9a841056c9)" style="fill: none"/>
    <path d="M 148.781617 821.133661 
L 148.114286 820.793102 
L 144.822857 819.895614 
L 141.531429 819.561678 
L 138.24 818.429336 
L 137.422965 817.835936 
L 134.948571 816.901697 
L 131.657143 816.519815 
L 128.365714 815.848631 
L 125.913286 814.53821 
L 125.074286 814.15347 
L 121.782857 813.313876 
L 118.491429 812.933608 
L 115.2 811.77332 
L 114.476521 811.240484 
L 111.908571 810.307821 
L 108.617143 809.895192 
L 105.325714 809.354572 
L 102.034286 808.5682 
L 100.543166 807.942759 
L 98.742857 807.481299 
L 95.451429 806.903507 
L 92.16 806.714657 
L 88.868571 806.437222 
L 85.577143 805.993837 
L 82.285714 805.171869 
L 81.04856 804.645033 
L 78.994286 804.13167 
L 75.702857 803.574792 
L 72.411429 803.376086 
L 69.12 803.085456 
L 65.828571 802.617985 
L 62.537143 801.826548 
L 61.285986 801.347308 
L 59.245714 800.874161 
L 55.954286 800.343263 
L 52.662857 800.045501 
L 49.371429 799.843117 
L 46.08 799.477387 
L 42.788571 798.890482 
L 40.071453 798.049582 
L 39.497143 797.896892 
L 36.205714 797.246227 
L 35.811942 797.195502 
M 16.842268 795.541759 
L 16.457143 795.50977 
L 13.165714 795.166184 
L 10.07259 794.751857 
L 9.874286 794.729076 
L 6.582857 794.380551 
L 3.291429 793.916881 
L 0 793.280169 
" clip-path="url(#p9a841056c9)" style="fill: none"/>
    <path d="M 147.971629 821.133661 
L 144.822857 820.176193 
L 141.531429 819.919872 
L 138.24 819.048675 
L 136.570216 817.835936 
L 134.948571 817.223663 
L 131.657143 816.822145 
L 128.365714 816.309867 
L 125.074286 814.566096 
L 125.04694 814.53821 
L 121.782857 813.595621 
L 118.491429 813.307288 
L 115.2 812.42502 
L 113.59165 811.240484 
L 111.908571 810.629201 
L 108.617143 810.209049 
L 105.325714 809.79844 
L 102.034286 809.198881 
L 99.039555 807.942759 
L 98.742857 807.866709 
L 95.451429 807.210402 
L 92.16 806.99624 
L 88.868571 806.783633 
L 85.577143 806.443853 
L 82.285714 805.813663 
L 79.541452 804.645033 
L 78.994286 804.508296 
L 75.702857 803.876092 
L 72.411429 803.660688 
L 69.12 803.436447 
L 65.828571 803.07576 
L 62.537143 802.45761 
L 59.638463 801.347308 
L 59.245714 801.256228 
L 55.954286 800.653518 
L 52.662857 800.315479 
L 49.371429 800.15229 
L 46.08 799.858341 
L 42.788571 799.386627 
L 39.497143 798.50578 
L 38.450534 798.049582 
L 36.205714 797.584271 
L 32.914286 797.102815 
L 32.53703 797.078131 
M 13.540958 795.716163 
L 13.165714 795.683705 
L 9.874286 795.315131 
L 6.582857 794.819222 
L 6.209081 794.751857 
L 3.291429 794.392601 
L 0 793.844659 
" clip-path="url(#p9a841056c9)" style="fill: none"/>
    <path d="M 147.048901 821.133661 
L 144.822857 820.456773 
L 141.531429 820.278065 
L 138.24 819.668014 
L 135.717466 817.835936 
L 134.948571 817.54563 
L 131.657143 817.124475 
L 128.365714 816.771103 
L 125.074286 815.561032 
L 124.071286 814.53821 
L 121.782857 813.877367 
L 118.491429 813.680968 
L 115.2 813.07672 
L 112.70678 811.240484 
L 111.908571 810.95058 
L 108.617143 810.522905 
L 105.325714 810.242307 
L 102.034286 809.829562 
L 98.742857 808.816894 
L 97.535943 807.942759 
L 95.451429 807.517298 
L 92.16 807.277824 
L 88.868571 807.130044 
L 85.577143 806.893869 
L 82.285714 806.455457 
L 78.994286 805.358826 
L 78.03657 804.645033 
L 75.702857 804.177393 
L 72.411429 803.94529 
L 69.12 803.787438 
L 65.828571 803.533536 
L 62.537143 803.088673 
L 59.245714 802.113921 
L 57.990941 801.347308 
L 55.954286 800.963773 
L 52.662857 800.585457 
L 49.371429 800.461463 
L 46.08 800.239295 
L 42.788571 799.882773 
L 39.497143 799.216634 
L 36.819696 798.049582 
L 36.205714 797.922315 
L 32.914286 797.383398 
L 32.543494 797.357375 
M 13.532256 796.226375 
L 13.165714 796.201226 
L 9.874286 795.90888 
L 6.582857 795.515534 
L 3.291429 794.957922 
L 2.345573 794.751857 
L 0 794.409149 
" clip-path="url(#p9a841056c9)" style="fill: none"/>
    <path d="M 146.126174 821.133661 
L 144.822857 820.737353 
L 141.531429 820.636259 
L 138.24 820.287353 
L 134.948571 818.06087 
L 134.725602 817.835936 
L 131.657143 817.426805 
L 128.365714 817.232338 
L 125.074286 816.555968 
L 123.095632 814.53821 
L 121.782857 814.159112 
L 118.491429 814.054647 
L 115.2 813.72842 
L 111.908571 811.488081 
L 111.6757 811.240484 
L 108.617143 810.836762 
L 105.325714 810.686175 
L 102.034286 810.460242 
L 98.742857 809.905919 
L 96.032331 807.942759 
L 95.451429 807.824193 
L 92.16 807.559407 
L 88.868571 807.476456 
L 85.577143 807.343885 
L 82.285714 807.097251 
L 78.994286 806.479479 
L 76.532959 804.645033 
L 75.702857 804.478694 
L 72.411429 804.229892 
L 69.12 804.138428 
L 65.828571 803.991311 
L 62.537143 803.719735 
L 59.245714 803.120488 
L 56.343418 801.347308 
L 55.954286 801.274028 
L 52.662857 800.855435 
L 49.371429 800.770636 
L 46.08 800.62025 
L 42.788571 800.378918 
L 39.497143 799.927487 
L 36.205714 798.819919 
L 35.178454 798.049582 
L 32.914286 797.663981 
L 32.548126 797.636543 
M 13.525539 796.736998 
L 13.165714 796.718748 
L 9.874286 796.502629 
L 6.582857 796.211847 
L 3.291429 795.79963 
L 0 795.169832 
" clip-path="url(#p9a841056c9)" style="fill: none"/>
    <path d="M 31.75528 821.133661 
L 32.914286 818.966767 
L 33.723773 817.835936 
L 36.205714 817.381472 
L 39.497143 816.753835 
L 42.788571 816.03305 
L 46.08 815.312844 
L 49.371429 814.593218 
L 49.623131 814.53821 
L 52.662857 814.067261 
L 55.954286 813.64224 
L 59.245714 813.198479 
L 62.537143 812.575698 
L 62.967769 812.530174 
M 81.849224 814.401744 
L 82.285714 814.443005 
L 83.325272 814.53821 
L 85.577143 814.811889 
L 88.868571 815.214571 
L 92.16 815.686233 
L 95.451429 816.244352 
L 98.742857 816.880192 
L 102.034286 817.349624 
L 105.325714 817.761441 
L 105.488734 817.835936 
L 108.617143 820.72649 
L 109.011187 821.133661 
M 145.203447 821.133661 
L 144.822857 821.017933 
L 141.531429 820.994453 
L 138.24 820.906692 
L 134.948571 820.348307 
L 132.458143 817.835936 
L 131.657143 817.729135 
L 128.365714 817.693574 
L 125.074286 817.550904 
L 122.119977 814.53821 
L 121.782857 814.440858 
L 118.491429 814.428327 
L 115.2 814.38012 
L 111.908571 814.016173 
L 109.297961 811.240484 
L 108.617143 811.150618 
L 105.325714 811.130043 
L 102.034286 811.090923 
L 98.742857 810.994944 
L 95.451429 810.390629 
L 93.379973 807.942759 
L 92.16 807.840991 
L 88.868571 807.822867 
L 85.577143 807.793901 
L 82.285714 807.739045 
L 78.994286 807.600132 
L 75.702857 806.636895 
L 74.076647 804.645033 
L 72.411429 804.514494 
L 69.12 804.489419 
L 65.828571 804.449086 
L 62.537143 804.350798 
L 61.173779 804.25812 
M 43.143643 800.888671 
L 42.788571 800.875063 
L 39.497143 800.638341 
L 36.205714 800.055388 
L 33.530932 798.049582 
L 32.914286 797.944564 
L 29.622857 797.682278 
L 26.331429 797.597867 
L 23.04 797.500348 
L 19.748571 797.430306 
L 16.457143 797.344326 
L 13.165714 797.236269 
L 9.874286 797.096379 
L 6.582857 796.90816 
L 3.291429 796.641338 
L 0 796.23368 
" clip-path="url(#p9a841056c9)" style="fill: none"/>
    <path d="M 0 808.574787 
L 2.249996 807.942759 
L 3.291429 807.697829 
L 6.582857 806.95628 
L 9.874286 806.260637 
L 12.07295 805.823852 
M 38.013657 801.323666 
L 36.205714 801.290857 
L 32.914286 800.91645 
L 30.879388 798.049582 
L 29.622857 797.947217 
L 26.331429 797.913822 
L 23.04 797.873968 
L 19.748571 797.842093 
L 16.457143 797.802965 
L 13.165714 797.75379 
L 9.874286 797.690128 
L 6.582857 797.604473 
L 3.291429 797.483047 
L 0 797.297528 
" clip-path="url(#p9a841056c9)" style="fill: none"/>
    <path clip-path="url(#p9a841056c9)" style="fill: none"/>
    <path clip-path="url(#p9a841056c9)" style="fill: none"/>
    <path clip-path="url(#p9a841056c9)" style="fill: none"/>
    <path clip-path="url(#p9a841056c9)" style="fill: none"/>
    <path clip-path="url(#p9a841056c9)" style="fill: none"/>
    <path clip-path="url(#p9a841056c9)" style="fill: none"/>
    <path clip-path="url(#p9a841056c9)" style="fill: none"/>
    <path clip-path="url(#p9a841056c9)" style="fill: none"/>
    <path clip-path="url(#p9a841056c9)" style="fill: none"/>
    <path clip-path="url(#p9a841056c9)" style="fill: none"/>
    <path clip-path="url(#p9a841056c9)" style="fill: none"/>
    <path clip-path="url(#p9a841056c9)" style="fill: none"/>
    <path clip-path="url(#p9a841056c9)" style="fill: none"/>
    <path clip-path="url(#p9a841056c9)" style="fill: none"/>
    <path clip-path="url(#p9a841056c9)" style="fill: none"/>
    <path clip-path="url(#p9a841056c9)" style="fill: none"/>
    <path clip-path="url(#p9a841056c9)" style="fill: none"/>
    <path clip-path="url(#p9a841056c9)" style="fill: none"/>
    <path clip-path="url(#p9a841056c9)" style="fill: none"/>
    <path clip-path="url(#p9a841056c9)" style="fill: none"/>
    <path clip-path="url(#p9a841056c9)" style="fill: none"/>
    <path clip-path="url(#p9a841056c9)" style="fill: none"/>
    <path clip-path="url(#p9a841056c9)" style="fill: none"/>
    <path clip-path="url(#p9a841056c9)" style="fill: none"/>
    <path clip-path="url(#p9a841056c9)" style="fill: none"/>
    <path clip-path="url(#p9a841056c9)" style="fill: none"/>
    <path clip-path="url(#p9a841056c9)" style="fill: none"/>
    <path clip-path="url(#p9a841056c9)" style="fill: none"/>
   </g>
   <g id="text_1">
    <g clip-path="url(#p9a841056c9)">
     <!-- 0 -->
     <g style="opacity: 0" transform="translate(25.393622 798.063915) rotate(-352.248363) scale(0.12 -0.12)">
      <defs>
       <path id="DejaVuSans-30" d="M 2034 4250 
Q 1547 4250 1301 3770 
Q 1056 3291 1056 2328 
Q 1056 1369 1301 889 
Q 1547 409 2034 409 
Q 2525 409 2770 889 
Q 3016 1369 3016 2328 
Q 3016 3291 2770 3770 
Q 2525 4250 2034 4250 
z
M 2034 4750 
Q 2819 4750 3233 4129 
Q 3647 3509 3647 2328 
Q 3647 1150 3233 529 
Q 2819 -91 2034 -91 
Q 1250 -91 836 529 
Q 422 1150 422 2328 
Q 422 3509 836 4129 
Q 1250 4750 2034 4750 
z
" transform="scale(0.015625)"/>
      </defs>
      <use xlink:href="#DejaVuSans-30"/>
     </g>
    </g>
   </g>
   <g id="text_2">
    <g clip-path="url(#p9a841056c9)">
     <!-- 1 -->
     <g style="opacity: 0" transform="translate(110.582026 811.688477) rotate(-343.023322) scale(0.12 -0.12)">
      <defs>
       <path id="DejaVuSans-31" d="M 794 531 
L 1825 531 
L 1825 4091 
L 703 3866 
L 703 4441 
L 1819 4666 
L 2450 4666 
L 2450 531 
L 3481 531 
L 3481 0 
L 794 0 
L 794 531 
z
" transform="scale(0.015625)"/>
      </defs>
      <use xlink:href="#DejaVuSans-31"/>
     </g>
    </g>
   </g>
   <g id="text_3">
    <g clip-path="url(#p9a841056c9)">
     <!-- 2 -->
     <g style="opacity: 0" transform="translate(133.612987 818.812814) rotate(-342.769707) scale(0.12 -0.12)">
      <defs>
       <path id="DejaVuSans-32" d="M 1228 531 
L 3431 531 
L 3431 0 
L 469 0 
L 469 531 
Q 828 903 1448 1529 
Q 2069 2156 2228 2338 
Q 2531 2678 2651 2914 
Q 2772 3150 2772 3378 
Q 2772 3750 2511 3984 
Q 2250 4219 1831 4219 
Q 1534 4219 1204 4116 
Q 875 4013 500 3803 
L 500 4441 
Q 881 4594 1212 4672 
Q 1544 4750 1819 4750 
Q 2544 4750 2975 4387 
Q 3406 4025 3406 3419 
Q 3406 3131 3298 2873 
Q 3191 2616 2906 2266 
Q 2828 2175 2409 1742 
Q 1991 1309 1228 531 
z
" transform="scale(0.015625)"/>
      </defs>
      <use xlink:href="#DejaVuSans-32"/>
     </g>
    </g>
   </g>
   <g id="text_4">
    <g clip-path="url(#p9a841056c9)">
     <!-- 3 -->
     <g style="opacity: 0" transform="translate(79.586283 806.978104) rotate(-346.557356) scale(0.12 -0.12)">
      <defs>
       <path id="DejaVuSans-33" d="M 2597 2516 
Q 3050 2419 3304 2112 
Q 3559 1806 3559 1356 
Q 3559 666 3084 287 
Q 2609 -91 1734 -91 
Q 1441 -91 1130 -33 
Q 819 25 488 141 
L 488 750 
Q 750 597 1062 519 
Q 1375 441 1716 441 
Q 2309 441 2620 675 
Q 2931 909 2931 1356 
Q 2931 1769 2642 2001 
Q 2353 2234 1838 2234 
L 1294 2234 
L 1294 2753 
L 1863 2753 
Q 2328 2753 2575 2939 
Q 2822 3125 2822 3475 
Q 2822 3834 2567 4026 
Q 2313 4219 1838 4219 
Q 1578 4219 1281 4162 
Q 984 4106 628 3988 
L 628 4550 
Q 988 4650 1302 4700 
Q 1616 4750 1894 4750 
Q 2613 4750 3031 4423 
Q 3450 4097 3450 3541 
Q 3450 3153 3228 2886 
Q 3006 2619 2597 2516 
z
" transform="scale(0.015625)"/>
      </defs>
      <use xlink:href="#DejaVuSans-33"/>
     </g>
    </g>
   </g>
   <g id="text_5">
    <g clip-path="url(#p9a841056c9)">
     <!-- 4 -->
     <g style="opacity: 0" transform="translate(51.768629 802.864608) rotate(-353.140434) scale(0.12 -0.12)">
      <defs>
       <path id="DejaVuSans-34" d="M 2419 4116 
L 825 1625 
L 2419 1625 
L 2419 4116 
z
M 2253 4666 
L 3047 4666 
L 3047 1625 
L 3713 1625 
L 3713 1100 
L 3047 1100 
L 3047 0 
L 2419 0 
L 2419 1100 
L 313 1100 
L 313 1709 
L 2253 4666 
z
" transform="scale(0.015625)"/>
      </defs>
      <use xlink:href="#DejaVuSans-34"/>
     </g>
    </g>
   </g>
   <g id="text_6">
    <g clip-path="url(#p9a841056c9)">
     <!-- 5 -->
     <g style="opacity: 0" transform="translate(22.251317 799.315716) rotate(-355.220714) scale(0.12 -0.12)">
      <defs>
       <path id="DejaVuSans-35" d="M 691 4666 
L 3169 4666 
L 3169 4134 
L 1269 4134 
L 1269 2991 
Q 1406 3038 1543 3061 
Q 1681 3084 1819 3084 
Q 2600 3084 3056 2656 
Q 3513 2228 3513 1497 
Q 3513 744 3044 326 
Q 2575 -91 1722 -91 
Q 1428 -91 1123 -41 
Q 819 9 494 109 
L 494 744 
Q 775 591 1075 516 
Q 1375 441 1709 441 
Q 2250 441 2565 725 
Q 2881 1009 2881 1497 
Q 2881 1984 2565 2268 
Q 2250 2553 1709 2553 
Q 1456 2553 1204 2497 
Q 953 2441 691 2322 
L 691 4666 
z
" transform="scale(0.015625)"/>
      </defs>
      <use xlink:href="#DejaVuSans-35"/>
     </g>
    </g>
   </g>
   <g id="text_7">
    <g clip-path="url(#p9a841056c9)">
     <!-- 6 -->
     <g style="opacity: 0" transform="translate(19.003268 799.419632) rotate(-356.046188) scale(0.12 -0.12)">
      <defs>
       <path id="DejaVuSans-36" d="M 2113 2584 
Q 1688 2584 1439 2293 
Q 1191 2003 1191 1497 
Q 1191 994 1439 701 
Q 1688 409 2113 409 
Q 2538 409 2786 701 
Q 3034 994 3034 1497 
Q 3034 2003 2786 2293 
Q 2538 2584 2113 2584 
z
M 3366 4563 
L 3366 3988 
Q 3128 4100 2886 4159 
Q 2644 4219 2406 4219 
Q 1781 4219 1451 3797 
Q 1122 3375 1075 2522 
Q 1259 2794 1537 2939 
Q 1816 3084 2150 3084 
Q 2853 3084 3261 2657 
Q 3669 2231 3669 1497 
Q 3669 778 3244 343 
Q 2819 -91 2113 -91 
Q 1303 -91 875 529 
Q 447 1150 447 2328 
Q 447 3434 972 4092 
Q 1497 4750 2381 4750 
Q 2619 4750 2861 4703 
Q 3103 4656 3366 4563 
z
" transform="scale(0.015625)"/>
      </defs>
      <use xlink:href="#DejaVuSans-36"/>
     </g>
    </g>
   </g>
   <g id="text_8">
    <g clip-path="url(#p9a841056c9)">
     <!-- 7 -->
     <g style="opacity: 0" transform="translate(19.047792 799.851488) rotate(-356.877333) scale(0.12 -0.12)">
      <defs>
       <path id="DejaVuSans-37" d="M 525 4666 
L 3525 4666 
L 3525 4397 
L 1831 0 
L 1172 0 
L 2766 4134 
L 525 4134 
L 525 4666 
z
" transform="scale(0.015625)"/>
      </defs>
      <use xlink:href="#DejaVuSans-37"/>
     </g>
    </g>
   </g>
   <g id="text_9">
    <g clip-path="url(#p9a841056c9)">
     <!-- 8 -->
     <g style="opacity: 0" transform="translate(19.093231 800.282786) rotate(-357.709845) scale(0.12 -0.12)">
      <defs>
       <path id="DejaVuSans-38" d="M 2034 2216 
Q 1584 2216 1326 1975 
Q 1069 1734 1069 1313 
Q 1069 891 1326 650 
Q 1584 409 2034 409 
Q 2484 409 2743 651 
Q 3003 894 3003 1313 
Q 3003 1734 2745 1975 
Q 2488 2216 2034 2216 
z
M 1403 2484 
Q 997 2584 770 2862 
Q 544 3141 544 3541 
Q 544 4100 942 4425 
Q 1341 4750 2034 4750 
Q 2731 4750 3128 4425 
Q 3525 4100 3525 3541 
Q 3525 3141 3298 2862 
Q 3072 2584 2669 2484 
Q 3125 2378 3379 2068 
Q 3634 1759 3634 1313 
Q 3634 634 3220 271 
Q 2806 -91 2034 -91 
Q 1263 -91 848 271 
Q 434 634 434 1313 
Q 434 1759 690 2068 
Q 947 2378 1403 2484 
z
M 1172 3481 
Q 1172 3119 1398 2916 
Q 1625 2713 2034 2713 
Q 2441 2713 2670 2916 
Q 2900 3119 2900 3481 
Q 2900 3844 2670 4047 
Q 2441 4250 2034 4250 
Q 1625 4250 1398 4047 
Q 1172 3844 1172 3481 
z
" transform="scale(0.015625)"/>
      </defs>
      <use xlink:href="#DejaVuSans-38"/>
     </g>
    </g>
   </g>
   <g id="text_10">
    <g clip-path="url(#p9a841056c9)">
     <!-- 9 -->
     <g style="opacity: 0" transform="translate(68.161175 815.881458) rotate(-351.810423) scale(0.12 -0.12)">
      <defs>
       <path id="DejaVuSans-39" d="M 703 97 
L 703 672 
Q 941 559 1184 500 
Q 1428 441 1663 441 
Q 2288 441 2617 861 
Q 2947 1281 2994 2138 
Q 2813 1869 2534 1725 
Q 2256 1581 1919 1581 
Q 1219 1581 811 2004 
Q 403 2428 403 3163 
Q 403 3881 828 4315 
Q 1253 4750 1959 4750 
Q 2769 4750 3195 4129 
Q 3622 3509 3622 2328 
Q 3622 1225 3098 567 
Q 2575 -91 1691 -91 
Q 1453 -91 1209 -44 
Q 966 3 703 97 
z
M 1959 2075 
Q 2384 2075 2632 2365 
Q 2881 2656 2881 3163 
Q 2881 3666 2632 3958 
Q 2384 4250 1959 4250 
Q 1534 4250 1286 3958 
Q 1038 3666 1038 3163 
Q 1038 2656 1286 2365 
Q 1534 2075 1959 2075 
z
" transform="scale(0.015625)"/>
      </defs>
      <use xlink:href="#DejaVuSans-39"/>
     </g>
    </g>
   </g>
   <g id="text_11">
    <g clip-path="url(#p9a841056c9)">
     <!-- 9 -->
     <g style="opacity: 0" transform="translate(48.118491 803.335937) rotate(-345.001811) scale(0.12 -0.12)">
      <use xlink:href="#DejaVuSans-39"/>
     </g>
    </g>
   </g>
   <g id="text_12">
    <g clip-path="url(#p9a841056c9)">
     <!-- 10 -->
     <g style="opacity: 0" transform="translate(19.280374 807.854027) rotate(-8.638273) scale(0.12 -0.12)">
      <use xlink:href="#DejaVuSans-31"/>
      <use xlink:href="#DejaVuSans-30" transform="translate(63.623047 0)"/>
     </g>
    </g>
   </g>
  </g>
 </g>
 <defs>
  <clipPath id="p9a841056c9">
   <rect x="0" y="0" width="576" height="821.133661"/>
  </clipPath>
 </defs>
</svg>
