<?xml version="1.0" encoding="utf-8" standalone="no"?>
<!DOCTYPE svg PUBLIC "-//W3C//DTD SVG 1.1//EN"
  "http://www.w3.org/Graphics/SVG/1.1/DTD/svg11.dtd">
<svg xmlns:xlink="http://www.w3.org/1999/xlink" width="576pt" height="812.815659pt" viewBox="0 0 576 812.815659" xmlns="http://www.w3.org/2000/svg" version="1.1">
 <metadata>
  <rdf:RDF xmlns:dc="http://purl.org/dc/elements/1.1/" xmlns:cc="http://creativecommons.org/ns#" xmlns:rdf="http://www.w3.org/1999/02/22-rdf-syntax-ns#">
   <cc:Work>
    <dc:type rdf:resource="http://purl.org/dc/dcmitype/StillImage"/>
    <dc:date>2025-07-25T22:45:50.054371</dc:date>
    <dc:format>image/svg+xml</dc:format>
    <dc:creator>
     <cc:Agent>
      <dc:title>Matplotlib v3.10.3, https://matplotlib.org/</dc:title>
     </cc:Agent>
    </dc:creator>
   </cc:Work>
  </rdf:RDF>
 </metadata>
 <defs>
  <style type="text/css">*{stroke-linejoin: round; stroke-linecap: butt}</style>
 </defs>
 <g id="figure_1">
  <g id="patch_1">
   <path d="M 0 812.815659 
L 576 812.815659 
L 576 0 
L 0 0 
L 0 812.815659 
z
" style="fill: none; opacity: 0"/>
  </g>
  <g id="axes_1">
   <g id="QuadContourSet_1">
    <path d="M 305.898305 180.955533 
L 309.152542 182.801915 
L 312.40678 179.537595 
L 312.40678 179.537595 
L 315.661017 176.273275 
L 315.661017 173.008956 
L 315.661017 173.008956 
L 318.915254 169.744636 
L 318.915254 166.480316 
L 318.915254 163.215996 
L 318.915254 163.215996 
L 322.169492 159.951676 
L 322.169492 156.687356 
L 322.169492 156.687356 
L 325.423729 153.423036 
L 325.423729 150.158716 
L 325.423729 146.894396 
L 325.423729 146.894396 
L 328.677966 143.630076 
L 328.677966 140.365756 
L 328.677966 140.365756 
L 331.932203 137.101436 
L 331.932203 133.837117 
L 331.932203 130.572797 
L 331.932203 130.572797 
L 335.186441 127.308477 
L 335.186441 124.044157 
L 335.186441 124.044157 
L 338.440678 120.779837 
L 338.440678 117.515517 
L 338.440678 114.251197 
L 338.440678 114.251197 
L 341.694915 110.986877 
L 341.694915 107.722557 
L 341.694915 107.722557 
L 344.949153 104.458237 
L 344.949153 101.193917 
L 344.949153 97.929597 
L 344.949153 97.929597 
L 348.20339 94.665278 
L 348.20339 91.400958 
L 348.20339 91.400958 
L 351.457627 88.136638 
L 351.457627 84.872318 
L 351.457627 81.607998 
L 351.457627 81.607998 
L 354.711864 78.343678 
L 354.711864 75.079358 
L 354.711864 75.079358 
L 357.966102 71.815038 
L 357.966102 68.550718 
L 357.966102 65.286398 
L 357.966102 65.286398 
L 361.220339 62.022078 
L 361.220339 58.757758 
L 361.220339 58.757758 
L 364.474576 55.493439 
L 364.474576 52.229119 
L 364.474576 48.964799 
L 364.474576 48.964799 
L 367.728814 45.700479 
L 367.728814 42.436159 
L 367.728814 42.436159 
L 370.983051 39.171839 
L 370.983051 35.907519 
L 370.983051 32.643199 
L 370.983051 32.643199 
L 374.237288 29.378879 
L 374.237288 26.114559 
L 374.237288 26.114559 
L 377.491525 22.850239 
L 377.491525 19.585919 
L 377.491525 16.3216 
L 377.491525 16.3216 
L 380.745763 13.05728 
L 380.745763 9.79296 
L 380.745763 9.79296 
L 384 6.52864 
L 384 3.26432 
L 384 0 
L 383.563569 0 
L 383.563569 3.26432 
L 383.563569 6.52864 
L 380.745763 9.355176 
L 380.292724 9.79296 
L 380.304179 13.05728 
L 377.491525 15.878647 
L 377.049941 16.3216 
L 377.0466 19.585919 
L 377.0466 22.850239 
L 374.237288 25.668256 
L 373.793923 26.114559 
L 373.793923 29.378879 
L 370.983051 32.198461 
L 370.533776 32.643199 
L 370.533776 35.907519 
L 370.534061 39.171839 
L 367.728814 41.985778 
L 367.283671 42.436159 
L 367.283671 45.700479 
L 364.474576 48.518277 
L 364.028782 48.964799 
L 364.028782 52.229119 
L 364.034985 55.493439 
L 361.220339 58.316805 
L 360.780747 58.757758 
L 360.783243 62.022078 
L 357.966102 64.847948 
L 357.516352 65.286398 
L 357.516352 68.550718 
L 357.516352 71.815038 
L 354.711864 74.628215 
L 354.256397 75.079358 
L 354.2524 78.343678 
L 351.457627 81.14711 
L 350.998162 81.607998 
L 350.973883 84.872318 
L 350.973883 88.136638 
L 348.20339 90.915714 
L 347.690606 91.400958 
L 347.690606 94.665278 
L 344.949153 97.415225 
L 344.388816 97.929597 
L 344.307485 101.193917 
L 344.307485 104.458237 
L 341.694915 107.078901 
L 340.965005 107.722557 
L 340.965005 110.986877 
L 338.440678 113.519025 
L 337.593817 114.251197 
L 337.593817 117.515517 
L 337.289385 120.779837 
L 335.186441 122.889297 
L 333.42377 124.044157 
L 333.42377 127.308477 
L 331.932203 128.804665 
L 329.445848 130.572797 
L 329.445848 133.837117 
L 329.359975 137.101436 
L 328.677966 137.785559 
L 326.105738 140.365756 
L 326.183344 143.630076 
L 325.423729 144.392045 
L 322.929107 146.894396 
L 323.198949 150.158716 
L 323.198949 153.423036 
L 322.169492 154.455683 
L 320.735002 156.687356 
L 320.735002 159.951676 
L 318.915254 161.777062 
L 316.925402 163.215996 
L 316.008071 166.480316 
L 316.008071 169.744636 
L 315.661017 170.092765 
L 312.40678 170.728752 
L 311.108755 169.744636 
L 309.638753 166.480316 
L 309.152542 166.054114 
L 306.281954 163.215996 
L 305.898305 162.835891 
L 303.171831 159.951676 
L 302.644068 158.719638 
L 301.581479 156.687356 
L 299.389831 155.241402 
L 296.135593 154.456013 
L 295.124836 153.423036 
L 294.853255 150.158716 
L 293.31182 146.894396 
L 292.881356 146.471078 
L 289.627119 145.430153 
L 287.907998 143.630076 
L 286.372881 141.985819 
L 284.856228 140.365756 
L 283.118644 138.530667 
L 281.750391 137.101436 
L 279.864407 135.154738 
L 278.602408 133.837117 
L 276.610169 131.820182 
L 275.414017 130.572797 
L 273.355932 128.489763 
L 272.221892 127.308477 
L 270.101695 125.163126 
L 269.014386 124.044157 
L 266.847458 121.851841 
L 265.787867 120.779837 
L 263.59322 118.559478 
L 262.561349 117.515517 
L 260.338983 115.267114 
L 259.33483 114.251197 
L 257.084746 111.965276 
L 256.155513 110.986877 
L 253.830508 108.51089 
L 253.090248 107.722557 
L 250.576271 105.045327 
L 250.024982 104.458237 
L 247.322034 101.64581 
L 246.897131 101.193917 
L 244.067797 98.267276 
L 243.749791 97.929597 
L 240.813559 94.894831 
L 240.59706 94.665278 
L 237.559322 91.528002 
L 237.437832 91.400958 
L 234.305085 88.166744 
L 234.275923 88.136638 
L 231.114759 84.872318 
L 231.050847 84.806733 
L 228.008531 81.607998 
L 227.79661 81.391638 
L 224.93869 78.343678 
L 224.542373 77.935301 
L 221.859104 75.079358 
L 221.288136 74.491525 
L 218.76873 71.815038 
L 218.033898 71.059117 
L 215.624533 68.550718 
L 214.779661 67.681863 
L 212.450319 65.286398 
L 211.525424 64.335249 
L 209.276105 62.022078 
L 208.271186 60.988634 
L 206.10189 58.757758 
L 205.016949 57.642019 
L 202.928869 55.493439 
L 201.762712 54.275822 
L 199.857873 52.229119 
L 198.508475 50.779223 
L 196.819815 48.964799 
L 195.254237 47.341233 
L 193.723667 45.700479 
L 192 43.931055 
L 190.601683 42.436159 
L 188.745763 40.532741 
L 187.469581 39.171839 
L 185.491525 37.144899 
L 184.315591 35.907519 
L 182.237288 33.779055 
L 181.128201 32.643199 
L 178.983051 30.446274 
L 177.940811 29.378879 
L 175.728814 27.113494 
L 174.778951 26.114559 
L 172.474576 23.650807 
L 171.729513 22.850239 
L 169.220339 20.154142 
L 168.691512 19.585919 
L 165.966102 16.657478 
L 165.65351 16.3216 
L 162.711864 13.246347 
L 162.535589 13.05728 
L 159.457627 9.926318 
L 159.332874 9.79296 
L 156.20339 6.611756 
L 156.125401 6.52864 
L 152.949153 3.301894 
L 152.913799 3.26432 
L 149.69874 0 
L 149.694915 0 
L 146.440678 0 
L 143.186441 0 
L 139.932203 0 
L 136.677966 0 
L 136.531006 0 
L 136.677966 0.155719 
L 139.611713 3.26432 
L 139.932203 3.603912 
L 142.692419 6.52864 
L 143.186441 7.053474 
L 145.746645 9.79296 
L 146.440678 10.536622 
L 148.793115 13.05728 
L 149.694915 14.023567 
L 151.839584 16.3216 
L 152.949153 17.510512 
L 154.886054 19.585919 
L 156.20339 20.997457 
L 157.932523 22.850239 
L 159.457627 24.516886 
L 160.946787 26.114559 
L 162.711864 28.059817 
L 163.963191 29.378879 
L 165.966102 31.596201 
L 167.003649 32.643199 
L 169.220339 35.122119 
L 169.998497 35.907519 
L 172.474576 38.61257 
L 173.028597 39.171839 
L 175.728814 42.110883 
L 176.050872 42.436159 
L 178.983051 45.648917 
L 179.034073 45.700479 
L 182.062986 48.964799 
L 182.237288 49.159629 
L 185.091755 52.229119 
L 185.491525 52.677996 
L 188.101995 55.493439 
L 188.745763 56.219849 
L 191.091322 58.757758 
L 192 59.788603 
L 193.981899 62.022078 
L 195.254237 63.466736 
L 196.885511 65.286398 
L 198.508475 67.056094 
L 199.914948 68.550718 
L 201.762712 70.514291 
L 202.986742 71.815038 
L 205.016949 73.972489 
L 206.058536 75.079358 
L 208.271186 77.430687 
L 209.130331 78.343678 
L 211.525424 80.888884 
L 212.202125 81.607998 
L 214.779661 84.356088 
L 215.265355 84.872318 
L 218.033898 87.827507 
L 218.335773 88.136638 
L 221.288136 91.296622 
L 221.391531 91.400958 
L 224.439584 94.665278 
L 224.542373 94.774643 
L 227.529473 97.929597 
L 227.79661 98.211746 
L 230.620121 101.193917 
L 231.050847 101.648848 
L 233.710768 104.458237 
L 234.305085 105.094697 
L 236.791393 107.722557 
L 237.559322 108.550428 
L 239.862185 110.986877 
L 240.813559 112.013968 
L 242.92589 114.251197 
L 244.067797 115.485802 
L 245.969618 117.515517 
L 247.322034 118.979207 
L 248.985776 120.779837 
L 250.576271 122.501195 
L 252.024149 124.044157 
L 253.830508 125.945745 
L 255.140775 127.308477 
L 257.084746 129.330286 
L 258.27942 130.572797 
L 260.338983 132.714828 
L 261.418064 133.837117 
L 263.59322 136.099369 
L 264.556709 137.101436 
L 266.847458 139.489004 
L 267.690391 140.365756 
L 270.101695 142.883257 
L 270.819611 143.630076 
L 273.355932 146.278493 
L 273.947918 146.894396 
L 276.610169 149.674724 
L 277.074584 150.158716 
L 279.864407 153.072527 
L 280.159872 153.423036 
L 282.873936 156.687356 
L 283.118644 156.943263 
L 285.841866 159.951676 
L 286.372881 160.517511 
L 288.972397 163.215996 
L 289.627119 163.894496 
L 292.173705 166.480316 
L 292.881356 167.19641 
L 295.520869 169.744636 
L 296.135593 170.386566 
L 298.74443 173.008956 
L 299.389831 173.675787 
L 301.931739 176.273275 
L 302.644068 177.006462 
L 303.99382 179.537595 
z
M 292.881356 121.058766 
L 293.955168 120.779837 
L 296.135593 117.813013 
L 296.284613 117.515517 
L 297.01402 114.251197 
L 298.795699 110.986877 
L 299.389831 110.03816 
L 300.428166 107.722557 
L 301.677566 104.458237 
L 301.572305 101.193917 
L 299.570307 97.929597 
L 299.389831 97.741624 
L 296.135593 95.67485 
L 294.545971 94.665278 
L 292.881356 93.608076 
L 289.627119 92.02386 
L 287.87017 94.665278 
L 287.520804 97.929597 
L 286.372881 100.577215 
L 286.160357 101.193917 
L 286.372881 101.912706 
L 287.125519 104.458237 
L 286.372881 105.561942 
L 283.118644 106.754076 
L 282.806086 107.722557 
L 283.118644 108.266517 
L 284.742744 110.986877 
L 286.372881 113.907639 
L 286.572413 114.251197 
L 289.399583 117.515517 
L 289.627119 117.746938 
L 292.556151 120.779837 
z
" clip-path="url(#p9ee2ee9168)" style="fill: #f5f9fe; fill-opacity: 0.9"/>
    <path d="M 312.40678 170.728752 
L 315.661017 170.092765 
L 316.008071 169.744636 
L 316.008071 166.480316 
L 316.925402 163.215996 
L 318.915254 161.777062 
L 320.735002 159.951676 
L 320.735002 156.687356 
L 322.169492 154.455683 
L 323.198949 153.423036 
L 323.198949 150.158716 
L 322.929107 146.894396 
L 325.423729 144.392045 
L 326.183344 143.630076 
L 326.105738 140.365756 
L 328.677966 137.785559 
L 329.359975 137.101436 
L 329.445848 133.837117 
L 329.445848 130.572797 
L 331.932203 128.804665 
L 333.42377 127.308477 
L 333.42377 124.044157 
L 335.186441 122.889297 
L 337.289385 120.779837 
L 337.593817 117.515517 
L 337.593817 114.251197 
L 338.440678 113.519025 
L 340.965005 110.986877 
L 340.965005 107.722557 
L 341.694915 107.078901 
L 344.307485 104.458237 
L 344.307485 101.193917 
L 344.388816 97.929597 
L 344.949153 97.415225 
L 347.690606 94.665278 
L 347.690606 91.400958 
L 348.20339 90.915714 
L 350.973883 88.136638 
L 350.973883 84.872318 
L 350.998162 81.607998 
L 351.457627 81.14711 
L 354.2524 78.343678 
L 354.256397 75.079358 
L 354.711864 74.628215 
L 357.516352 71.815038 
L 357.516352 68.550718 
L 357.516352 65.286398 
L 357.966102 64.847948 
L 360.783243 62.022078 
L 360.780747 58.757758 
L 361.220339 58.316805 
L 364.034985 55.493439 
L 364.028782 52.229119 
L 364.028782 48.964799 
L 364.474576 48.518277 
L 367.283671 45.700479 
L 367.283671 42.436159 
L 367.728814 41.985778 
L 370.534061 39.171839 
L 370.533776 35.907519 
L 370.533776 32.643199 
L 370.983051 32.198461 
L 373.793923 29.378879 
L 373.793923 26.114559 
L 374.237288 25.668256 
L 377.0466 22.850239 
L 377.0466 19.585919 
L 377.049941 16.3216 
L 377.491525 15.878647 
L 380.304179 13.05728 
L 380.292724 9.79296 
L 380.745763 9.355176 
L 383.563569 6.52864 
L 383.563569 3.26432 
L 383.563569 0 
L 383.127137 0 
L 383.127137 3.26432 
L 383.127137 6.52864 
L 380.745763 8.917392 
L 379.839685 9.79296 
L 379.862595 13.05728 
L 377.491525 15.435695 
L 376.608357 16.3216 
L 376.601675 19.585919 
L 376.601675 22.850239 
L 374.237288 25.221952 
L 373.350559 26.114559 
L 373.350559 29.378879 
L 370.983051 31.753723 
L 370.084502 32.643199 
L 370.084502 35.907519 
L 370.085072 39.171839 
L 367.728814 41.535398 
L 366.838528 42.436159 
L 366.838528 45.700479 
L 364.474576 48.071754 
L 363.582988 48.964799 
L 363.582988 52.229119 
L 363.595393 55.493439 
L 361.220339 57.875851 
L 360.341156 58.757758 
L 360.346146 62.022078 
L 357.966102 64.409497 
L 357.066602 65.286398 
L 357.066602 68.550718 
L 357.066602 71.815038 
L 354.711864 74.177072 
L 353.800929 75.079358 
L 353.792935 78.343678 
L 351.457627 80.686221 
L 350.538698 81.607998 
L 350.490138 84.872318 
L 350.490138 88.136638 
L 348.20339 90.430471 
L 347.177823 91.400958 
L 347.177823 94.665278 
L 344.949153 96.900853 
L 343.828479 97.929597 
L 343.665817 101.193917 
L 343.665817 104.458237 
L 341.694915 106.435246 
L 340.235095 107.722557 
L 340.235095 110.986877 
L 338.440678 112.786854 
L 336.746956 114.251197 
L 336.746956 117.515517 
L 336.138092 120.779837 
L 335.186441 121.734436 
L 331.932203 123.532056 
L 328.677966 123.122486 
L 325.679354 120.779837 
L 325.423729 120.439779 
L 323.267812 117.515517 
L 322.169492 115.614714 
L 321.28942 114.251197 
L 318.915254 111.734253 
L 316.566581 110.986877 
L 315.661017 110.684046 
L 312.40678 108.093342 
L 312.017063 107.722557 
L 309.34631 104.458237 
L 309.152542 104.207673 
L 307.297818 101.193917 
L 306.090322 97.929597 
L 305.898305 97.420434 
L 304.941689 94.665278 
L 302.644068 91.407218 
L 302.635761 91.400958 
L 299.389831 88.954741 
L 298.304274 88.136638 
L 296.135593 86.502264 
L 293.972787 84.872318 
L 292.881356 84.048079 
L 289.641339 81.607998 
L 289.627119 81.596835 
L 286.372881 79.27912 
L 285.0665 78.343678 
L 283.118644 76.954783 
L 280.503956 75.079358 
L 279.864407 74.608554 
L 276.610169 72.435206 
L 275.616283 71.815038 
L 273.355932 70.41725 
L 270.245305 68.550718 
L 270.101695 68.464545 
L 266.847458 66.51184 
L 264.805224 65.286398 
L 263.59322 64.559135 
L 260.734706 65.286398 
L 260.338983 66.099755 
L 258.372479 68.550718 
L 257.084746 69.056 
L 253.830508 69.011436 
L 250.576271 69.172983 
L 249.490776 68.550718 
L 247.322034 67.32616 
L 244.067797 65.440369 
L 243.803463 65.286398 
L 240.813559 63.553112 
L 238.345919 62.022078 
L 237.559322 61.514103 
L 234.407986 62.022078 
L 237.453968 65.286398 
L 237.559322 65.408006 
L 239.798628 68.550718 
L 240.813559 69.98065 
L 242.115565 71.815038 
L 244.067797 74.565528 
L 244.432501 75.079358 
L 246.962929 78.343678 
L 247.322034 78.721163 
L 249.911036 81.607998 
L 250.576271 82.305368 
L 253.024937 84.872318 
L 253.830508 85.716802 
L 256.138839 88.136638 
L 257.084746 89.128237 
L 259.252741 91.400958 
L 260.338983 92.539672 
L 262.366642 94.665278 
L 263.59322 95.962191 
L 265.38422 97.929597 
L 266.847458 99.550869 
L 268.330349 101.193917 
L 270.101695 103.006935 
L 271.421055 104.458237 
L 273.355932 106.428657 
L 274.539941 107.722557 
L 276.610169 109.828631 
L 277.689861 110.986877 
L 279.864407 113.197455 
L 280.900973 114.251197 
L 283.118644 116.505615 
L 284.112085 117.515517 
L 286.372881 119.813774 
L 287.323197 120.779837 
L 289.627119 123.121934 
L 290.733029 124.044157 
L 292.881356 126.512059 
L 293.628252 127.308477 
L 292.881356 129.520599 
L 289.627119 129.692652 
L 286.84465 127.308477 
L 286.372881 126.827462 
L 283.643078 124.044157 
L 283.118644 123.509583 
L 280.441358 120.779837 
L 279.864407 120.192238 
L 277.23908 117.515517 
L 276.610169 116.875011 
L 274.036687 114.251197 
L 273.355932 113.557902 
L 270.833055 110.986877 
L 270.101695 110.242053 
L 267.627745 107.722557 
L 266.847458 106.927904 
L 264.422436 104.458237 
L 263.59322 103.613756 
L 261.234101 101.193917 
L 260.338983 100.268111 
L 258.105087 97.929597 
L 257.084746 96.861472 
L 254.986801 94.665278 
L 253.830508 93.454833 
L 251.868516 91.400958 
L 250.576271 90.043474 
L 248.755006 88.136638 
L 247.322034 86.630943 
L 245.642581 84.872318 
L 244.067797 83.217343 
L 242.531137 81.607998 
L 240.813559 79.802661 
L 239.424189 78.343678 
L 237.559322 76.383438 
L 236.318691 75.079358 
L 234.305085 72.964023 
L 233.205949 71.815038 
L 231.050847 69.566087 
L 230.077851 68.550718 
L 227.79661 66.170135 
L 226.949753 65.286398 
L 224.542373 62.774183 
L 223.821654 62.022078 
L 221.288136 59.378188 
L 220.693597 58.757758 
L 218.033898 55.972683 
L 217.574714 55.493439 
L 214.779661 52.566204 
L 214.456729 52.229119 
L 211.525424 49.158739 
L 211.339651 48.964799 
L 208.271186 45.75028 
L 208.223522 45.700479 
L 205.095261 42.436159 
L 205.016949 42.35461 
L 201.95959 39.171839 
L 201.762712 38.966462 
L 198.824523 35.907519 
L 198.508475 35.576853 
L 195.691138 32.643199 
L 195.254237 32.185997 
L 192.558911 29.378879 
L 192 28.793875 
L 189.4297 26.114559 
L 188.745763 25.398565 
L 186.311532 22.850239 
L 185.491525 21.991798 
L 183.193364 19.585919 
L 182.237288 18.585031 
L 180.069665 16.3216 
L 178.983051 15.191354 
L 176.921259 13.05728 
L 175.728814 11.82303 
L 173.767503 9.79296 
L 172.474576 8.454706 
L 170.613747 6.52864 
L 169.220339 5.073926 
L 167.472492 3.26432 
L 165.966102 1.684766 
L 164.339481 0 
L 162.711864 0 
L 159.457627 0 
L 156.20339 0 
L 152.949153 0 
L 149.69874 0 
L 152.913799 3.26432 
L 152.949153 3.301894 
L 156.125401 6.52864 
L 156.20339 6.611756 
L 159.332874 9.79296 
L 159.457627 9.926318 
L 162.535589 13.05728 
L 162.711864 13.246347 
L 165.65351 16.3216 
L 165.966102 16.657478 
L 168.691512 19.585919 
L 169.220339 20.154142 
L 171.729513 22.850239 
L 172.474576 23.650807 
L 174.778951 26.114559 
L 175.728814 27.113494 
L 177.940811 29.378879 
L 178.983051 30.446274 
L 181.128201 32.643199 
L 182.237288 33.779055 
L 184.315591 35.907519 
L 185.491525 37.144899 
L 187.469581 39.171839 
L 188.745763 40.532741 
L 190.601683 42.436159 
L 192 43.931055 
L 193.723667 45.700479 
L 195.254237 47.341233 
L 196.819815 48.964799 
L 198.508475 50.779223 
L 199.857873 52.229119 
L 201.762712 54.275822 
L 202.928869 55.493439 
L 205.016949 57.642019 
L 206.10189 58.757758 
L 208.271186 60.988634 
L 209.276105 62.022078 
L 211.525424 64.335249 
L 212.450319 65.286398 
L 214.779661 67.681863 
L 215.624533 68.550718 
L 218.033898 71.059117 
L 218.76873 71.815038 
L 221.288136 74.491525 
L 221.859104 75.079358 
L 224.542373 77.935301 
L 224.93869 78.343678 
L 227.79661 81.391638 
L 228.008531 81.607998 
L 231.050847 84.806733 
L 231.114759 84.872318 
L 234.275923 88.136638 
L 234.305085 88.166744 
L 237.437832 91.400958 
L 237.559322 91.528002 
L 240.59706 94.665278 
L 240.813559 94.894831 
L 243.749791 97.929597 
L 244.067797 98.267276 
L 246.897131 101.193917 
L 247.322034 101.64581 
L 250.024982 104.458237 
L 250.576271 105.045327 
L 253.090248 107.722557 
L 253.830508 108.51089 
L 256.155513 110.986877 
L 257.084746 111.965276 
L 259.33483 114.251197 
L 260.338983 115.267114 
L 262.561349 117.515517 
L 263.59322 118.559478 
L 265.787867 120.779837 
L 266.847458 121.851841 
L 269.014386 124.044157 
L 270.101695 125.163126 
L 272.221892 127.308477 
L 273.355932 128.489763 
L 275.414017 130.572797 
L 276.610169 131.820182 
L 278.602408 133.837117 
L 279.864407 135.154738 
L 281.750391 137.101436 
L 283.118644 138.530667 
L 284.856228 140.365756 
L 286.372881 141.985819 
L 287.907998 143.630076 
L 289.627119 145.430153 
L 292.881356 146.471078 
L 293.31182 146.894396 
L 294.853255 150.158716 
L 295.124836 153.423036 
L 296.135593 154.456013 
L 299.389831 155.241402 
L 301.581479 156.687356 
L 302.644068 158.719638 
L 303.171831 159.951676 
L 305.898305 162.835891 
L 306.281954 163.215996 
L 309.152542 166.054114 
L 309.638753 166.480316 
L 311.108755 169.744636 
z
M 317.534882 159.951676 
L 315.661017 158.072005 
L 314.111007 156.687356 
L 313.202108 153.423036 
L 312.40678 152.336586 
L 310.743428 150.158716 
L 312.40678 147.988567 
L 315.387227 150.158716 
L 315.661017 150.342213 
L 318.915254 152.33512 
L 319.99981 153.423036 
L 319.300512 156.687356 
L 319.300512 159.951676 
L 318.915254 160.338128 
z
M 301.32034 143.630076 
L 301.062919 140.365756 
L 302.644068 139.438961 
L 304.142263 140.365756 
L 305.898305 142.156169 
L 306.805668 143.630076 
L 305.898305 145.737376 
L 302.644068 145.326903 
z
M 292.556151 120.779837 
L 289.627119 117.746938 
L 289.399583 117.515517 
L 286.572413 114.251197 
L 286.372881 113.907639 
L 284.742744 110.986877 
L 283.118644 108.266517 
L 282.806086 107.722557 
L 283.118644 106.754076 
L 286.372881 105.561942 
L 287.125519 104.458237 
L 286.372881 101.912706 
L 286.160357 101.193917 
L 286.372881 100.577215 
L 287.520804 97.929597 
L 287.87017 94.665278 
L 289.627119 92.02386 
L 292.881356 93.608076 
L 294.545971 94.665278 
L 296.135593 95.67485 
L 299.389831 97.741624 
L 299.570307 97.929597 
L 301.572305 101.193917 
L 301.677566 104.458237 
L 300.428166 107.722557 
L 299.389831 110.03816 
L 298.795699 110.986877 
L 297.01402 114.251197 
L 296.284613 117.515517 
L 296.135593 117.813013 
L 293.955168 120.779837 
L 292.881356 121.058766 
z
" clip-path="url(#p9ee2ee9168)" style="fill: #eff6fc; fill-opacity: 0.9"/>
    <path d="M 318.915254 160.338128 
L 319.300512 159.951676 
L 319.300512 156.687356 
L 319.99981 153.423036 
L 318.915254 152.33512 
L 315.661017 150.342213 
L 315.387227 150.158716 
L 312.40678 147.988567 
L 310.743428 150.158716 
L 312.40678 152.336586 
L 313.202108 153.423036 
L 314.111007 156.687356 
L 315.661017 158.072005 
L 317.534882 159.951676 
z
M 302.644068 145.326903 
L 305.898305 145.737376 
L 306.805668 143.630076 
L 305.898305 142.156169 
L 304.142263 140.365756 
L 302.644068 139.438961 
L 301.062919 140.365756 
L 301.32034 143.630076 
z
M 289.627119 129.692652 
L 292.881356 129.520599 
L 293.628252 127.308477 
L 292.881356 126.512059 
L 290.733029 124.044157 
L 289.627119 123.121934 
L 287.323197 120.779837 
L 286.372881 119.813774 
L 284.112085 117.515517 
L 283.118644 116.505615 
L 280.900973 114.251197 
L 279.864407 113.197455 
L 277.689861 110.986877 
L 276.610169 109.828631 
L 274.539941 107.722557 
L 273.355932 106.428657 
L 271.421055 104.458237 
L 270.101695 103.006935 
L 268.330349 101.193917 
L 266.847458 99.550869 
L 265.38422 97.929597 
L 263.59322 95.962191 
L 262.366642 94.665278 
L 260.338983 92.539672 
L 259.252741 91.400958 
L 257.084746 89.128237 
L 256.138839 88.136638 
L 253.830508 85.716802 
L 253.024937 84.872318 
L 250.576271 82.305368 
L 249.911036 81.607998 
L 247.322034 78.721163 
L 246.962929 78.343678 
L 244.432501 75.079358 
L 244.067797 74.565528 
L 242.115565 71.815038 
L 240.813559 69.98065 
L 239.798628 68.550718 
L 237.559322 65.408006 
L 237.453968 65.286398 
L 234.407986 62.022078 
L 237.559322 61.514103 
L 238.345919 62.022078 
L 240.813559 63.553112 
L 243.803463 65.286398 
L 244.067797 65.440369 
L 247.322034 67.32616 
L 249.490776 68.550718 
L 250.576271 69.172983 
L 253.830508 69.011436 
L 257.084746 69.056 
L 258.372479 68.550718 
L 260.338983 66.099755 
L 260.734706 65.286398 
L 263.59322 64.559135 
L 264.805224 65.286398 
L 266.847458 66.51184 
L 270.101695 68.464545 
L 270.245305 68.550718 
L 273.355932 70.41725 
L 275.616283 71.815038 
L 276.610169 72.435206 
L 279.864407 74.608554 
L 280.503956 75.079358 
L 283.118644 76.954783 
L 285.0665 78.343678 
L 286.372881 79.27912 
L 289.627119 81.596835 
L 289.641339 81.607998 
L 292.881356 84.048079 
L 293.972787 84.872318 
L 296.135593 86.502264 
L 298.304274 88.136638 
L 299.389831 88.954741 
L 302.635761 91.400958 
L 302.644068 91.407218 
L 304.941689 94.665278 
L 305.898305 97.420434 
L 306.090322 97.929597 
L 307.297818 101.193917 
L 309.152542 104.207673 
L 309.34631 104.458237 
L 312.017063 107.722557 
L 312.40678 108.093342 
L 315.661017 110.684046 
L 316.566581 110.986877 
L 318.915254 111.734253 
L 321.28942 114.251197 
L 322.169492 115.614714 
L 323.267812 117.515517 
L 325.423729 120.439779 
L 325.679354 120.779837 
L 328.677966 123.122486 
L 331.932203 123.532056 
L 335.186441 121.734436 
L 336.138092 120.779837 
L 336.746956 117.515517 
L 336.746956 114.251197 
L 338.440678 112.786854 
L 340.235095 110.986877 
L 340.235095 107.722557 
L 341.694915 106.435246 
L 343.665817 104.458237 
L 343.665817 101.193917 
L 343.828479 97.929597 
L 344.949153 96.900853 
L 347.177823 94.665278 
L 347.177823 91.400958 
L 348.20339 90.430471 
L 350.490138 88.136638 
L 350.490138 84.872318 
L 350.538698 81.607998 
L 351.457627 80.686221 
L 353.792935 78.343678 
L 353.800929 75.079358 
L 354.711864 74.177072 
L 357.066602 71.815038 
L 357.066602 68.550718 
L 357.066602 65.286398 
L 357.966102 64.409497 
L 360.346146 62.022078 
L 360.341156 58.757758 
L 361.220339 57.875851 
L 363.595393 55.493439 
L 363.582988 52.229119 
L 363.582988 48.964799 
L 364.474576 48.071754 
L 366.838528 45.700479 
L 366.838528 42.436159 
L 367.728814 41.535398 
L 370.085072 39.171839 
L 370.084502 35.907519 
L 370.084502 32.643199 
L 370.983051 31.753723 
L 373.350559 29.378879 
L 373.350559 26.114559 
L 374.237288 25.221952 
L 376.601675 22.850239 
L 376.601675 19.585919 
L 376.608357 16.3216 
L 377.491525 15.435695 
L 379.862595 13.05728 
L 379.839685 9.79296 
L 380.745763 8.917392 
L 383.127137 6.52864 
L 383.127137 3.26432 
L 383.127137 0 
L 382.690706 0 
L 382.690706 3.26432 
L 382.690706 6.52864 
L 380.745763 8.479609 
L 379.386646 9.79296 
L 379.42101 13.05728 
L 377.491525 14.992743 
L 376.166773 16.3216 
L 376.156751 19.585919 
L 376.156751 22.850239 
L 374.237288 24.775649 
L 372.907194 26.114559 
L 372.907194 29.378879 
L 370.983051 31.308984 
L 369.635227 32.643199 
L 369.635227 35.907519 
L 369.636082 39.171839 
L 367.728814 41.085017 
L 366.393385 42.436159 
L 366.393385 45.700479 
L 364.474576 47.625232 
L 363.137194 48.964799 
L 363.137194 52.229119 
L 363.155802 55.493439 
L 361.220339 57.434898 
L 359.901564 58.757758 
L 359.90905 62.022078 
L 357.966102 63.971047 
L 356.616852 65.286398 
L 356.616852 68.550718 
L 356.616852 71.815038 
L 354.711864 73.725928 
L 353.345461 75.079358 
L 353.33347 78.343678 
L 351.457627 80.225333 
L 350.079233 81.607998 
L 350.006394 84.872318 
L 350.006394 88.136638 
L 348.20339 89.945228 
L 346.66504 91.400958 
L 346.66504 94.665278 
L 344.949153 96.386481 
L 343.268142 97.929597 
L 343.02415 101.193917 
L 343.02415 104.458237 
L 341.694915 105.79159 
L 339.505185 107.722557 
L 339.505185 110.986877 
L 338.440678 112.054682 
L 335.900094 114.251197 
L 335.900094 117.515517 
L 335.186441 120.222757 
L 332.487563 117.515517 
L 331.932203 116.958437 
L 328.677966 114.83419 
L 328.306063 114.251197 
L 325.685077 110.986877 
L 325.423729 110.710463 
L 322.728045 107.722557 
L 322.169492 107.211661 
L 318.915254 104.508042 
L 318.847756 104.458237 
L 315.747433 101.193917 
L 315.661017 101.133069 
L 312.40678 98.392271 
L 312.105089 97.929597 
L 310.084978 94.665278 
L 309.152542 93.086333 
L 308.309461 91.400958 
L 306.460153 88.136638 
L 305.898305 87.383224 
L 303.013532 84.872318 
L 302.644068 84.567515 
L 299.389831 81.884952 
L 299.055357 81.607998 
L 296.135593 79.200972 
L 295.09989 78.343678 
L 292.881356 76.51342 
L 291.143068 75.079358 
L 289.627119 73.828722 
L 287.186247 71.815038 
L 286.372881 71.112713 
L 283.235775 68.550718 
L 283.118644 68.449675 
L 279.864407 65.950412 
L 278.998488 65.286398 
L 276.610169 63.403127 
L 274.777279 62.022078 
L 273.355932 60.879282 
L 270.475965 58.757758 
L 270.101695 58.464228 
L 266.847458 56.045267 
L 266.116046 55.493439 
L 263.59322 53.541672 
L 261.838829 52.229119 
L 260.338983 51.04888 
L 257.503294 48.964799 
L 257.084746 48.640384 
L 253.830508 46.414572 
L 252.715762 45.700479 
L 250.576271 44.252306 
L 247.60024 42.436159 
L 247.322034 42.255363 
L 244.067797 40.706997 
L 240.815736 39.171839 
L 240.813559 39.170812 
L 237.559322 38.083992 
L 235.127856 39.171839 
L 234.305085 40.800681 
L 231.050847 41.399414 
L 227.79661 40.646637 
L 224.542373 39.494123 
L 223.878332 39.171839 
L 221.288136 37.971983 
L 218.033898 36.144048 
L 217.703933 35.907519 
L 214.779661 33.811315 
L 213.198584 32.643199 
L 211.525424 31.370151 
L 209.039291 29.378879 
L 208.271186 28.766512 
L 205.016949 26.157178 
L 204.963739 26.114559 
L 201.762712 23.550692 
L 200.886361 22.850239 
L 198.508475 20.946468 
L 196.804762 19.585919 
L 195.254237 18.345185 
L 192.718932 16.3216 
L 192 15.794847 
L 188.745763 13.155956 
L 188.620197 13.05728 
L 185.491525 10.598602 
L 184.53892 9.79296 
L 182.237288 7.661736 
L 181.15851 6.52864 
L 178.983051 4.732192 
L 177.571972 3.26432 
L 175.728814 1.72211 
L 174.061685 0 
L 172.474576 0 
L 169.220339 0 
L 165.966102 0 
L 164.339481 0 
L 165.966102 1.684766 
L 167.472492 3.26432 
L 169.220339 5.073926 
L 170.613747 6.52864 
L 172.474576 8.454706 
L 173.767503 9.79296 
L 175.728814 11.82303 
L 176.921259 13.05728 
L 178.983051 15.191354 
L 180.069665 16.3216 
L 182.237288 18.585031 
L 183.193364 19.585919 
L 185.491525 21.991798 
L 186.311532 22.850239 
L 188.745763 25.398565 
L 189.4297 26.114559 
L 192 28.793875 
L 192.558911 29.378879 
L 195.254237 32.185997 
L 195.691138 32.643199 
L 198.508475 35.576853 
L 198.824523 35.907519 
L 201.762712 38.966462 
L 201.95959 39.171839 
L 205.016949 42.35461 
L 205.095261 42.436159 
L 208.223522 45.700479 
L 208.271186 45.75028 
L 211.339651 48.964799 
L 211.525424 49.158739 
L 214.456729 52.229119 
L 214.779661 52.566204 
L 217.574714 55.493439 
L 218.033898 55.972683 
L 220.693597 58.757758 
L 221.288136 59.378188 
L 223.821654 62.022078 
L 224.542373 62.774183 
L 226.949753 65.286398 
L 227.79661 66.170135 
L 230.077851 68.550718 
L 231.050847 69.566087 
L 233.205949 71.815038 
L 234.305085 72.964023 
L 236.318691 75.079358 
L 237.559322 76.383438 
L 239.424189 78.343678 
L 240.813559 79.802661 
L 242.531137 81.607998 
L 244.067797 83.217343 
L 245.642581 84.872318 
L 247.322034 86.630943 
L 248.755006 88.136638 
L 250.576271 90.043474 
L 251.868516 91.400958 
L 253.830508 93.454833 
L 254.986801 94.665278 
L 257.084746 96.861472 
L 258.105087 97.929597 
L 260.338983 100.268111 
L 261.234101 101.193917 
L 263.59322 103.613756 
L 264.422436 104.458237 
L 266.847458 106.927904 
L 267.627745 107.722557 
L 270.101695 110.242053 
L 270.833055 110.986877 
L 273.355932 113.557902 
L 274.036687 114.251197 
L 276.610169 116.875011 
L 277.23908 117.515517 
L 279.864407 120.192238 
L 280.441358 120.779837 
L 283.118644 123.509583 
L 283.643078 124.044157 
L 286.372881 126.827462 
L 286.84465 127.308477 
z
" clip-path="url(#p9ee2ee9168)" style="fill: #eaf3fb; fill-opacity: 0.9"/>
    <path d="M 335.186441 120.222757 
L 335.900094 117.515517 
L 335.900094 114.251197 
L 338.440678 112.054682 
L 339.505185 110.986877 
L 339.505185 107.722557 
L 341.694915 105.79159 
L 343.02415 104.458237 
L 343.02415 101.193917 
L 343.268142 97.929597 
L 344.949153 96.386481 
L 346.66504 94.665278 
L 346.66504 91.400958 
L 348.20339 89.945228 
L 350.006394 88.136638 
L 350.006394 84.872318 
L 350.079233 81.607998 
L 351.457627 80.225333 
L 353.33347 78.343678 
L 353.345461 75.079358 
L 354.711864 73.725928 
L 356.616852 71.815038 
L 356.616852 68.550718 
L 356.616852 65.286398 
L 357.966102 63.971047 
L 359.90905 62.022078 
L 359.901564 58.757758 
L 361.220339 57.434898 
L 363.155802 55.493439 
L 363.137194 52.229119 
L 363.137194 48.964799 
L 364.474576 47.625232 
L 366.393385 45.700479 
L 366.393385 42.436159 
L 367.728814 41.085017 
L 369.636082 39.171839 
L 369.635227 35.907519 
L 369.635227 32.643199 
L 370.983051 31.308984 
L 372.907194 29.378879 
L 372.907194 26.114559 
L 374.237288 24.775649 
L 376.156751 22.850239 
L 376.156751 19.585919 
L 376.166773 16.3216 
L 377.491525 14.992743 
L 379.42101 13.05728 
L 379.386646 9.79296 
L 380.745763 8.479609 
L 382.690706 6.52864 
L 382.690706 3.26432 
L 382.690706 0 
L 382.254274 0 
L 382.254274 3.26432 
L 382.254274 6.52864 
L 380.745763 8.041825 
L 378.933607 9.79296 
L 378.979426 13.05728 
L 377.491525 14.549791 
L 375.725189 16.3216 
L 375.711826 19.585919 
L 375.711826 22.850239 
L 374.237288 24.329345 
L 372.46383 26.114559 
L 372.46383 29.378879 
L 370.983051 30.864246 
L 369.185953 32.643199 
L 369.185953 35.907519 
L 369.187093 39.171839 
L 367.728814 40.634636 
L 365.948242 42.436159 
L 365.948242 45.700479 
L 364.474576 47.17871 
L 362.6914 48.964799 
L 362.6914 52.229119 
L 362.71621 55.493439 
L 361.220339 56.993944 
L 359.461973 58.757758 
L 359.471954 62.022078 
L 357.966102 63.532596 
L 356.167102 65.286398 
L 356.167102 68.550718 
L 356.167102 71.815038 
L 354.711864 73.274785 
L 352.889993 75.079358 
L 352.874005 78.343678 
L 351.457627 79.764445 
L 349.619768 81.607998 
L 349.52265 84.872318 
L 349.52265 88.136638 
L 348.20339 89.459985 
L 346.152256 91.400958 
L 346.152256 94.665278 
L 344.949153 95.872109 
L 342.707805 97.929597 
L 342.382482 101.193917 
L 342.382482 104.458237 
L 341.694915 105.147934 
L 338.775275 107.722557 
L 338.775275 110.986877 
L 338.440678 111.322511 
L 336.017809 110.986877 
L 335.186441 110.152933 
L 331.932203 109.610806 
L 330.675684 107.722557 
L 328.677966 106.019313 
L 327.097429 104.458237 
L 325.423729 102.599146 
L 324.24782 101.193917 
L 322.169492 98.444396 
L 321.761835 97.929597 
L 318.915254 95.462168 
L 317.091426 94.665278 
L 315.661017 93.817018 
L 313.929084 91.400958 
L 312.40678 89.049621 
L 311.903681 88.136638 
L 309.809876 84.872318 
L 309.152542 83.828262 
L 307.317502 81.607998 
L 305.898305 80.22796 
L 303.617412 78.343678 
L 302.644068 77.539583 
L 299.666004 75.079358 
L 299.389831 74.851206 
L 296.135593 72.130622 
L 295.759526 71.815038 
L 292.881356 69.391706 
L 291.878535 68.550718 
L 289.627119 66.656309 
L 287.99252 65.286398 
L 286.372881 63.924465 
L 284.101421 62.022078 
L 283.118644 61.163248 
L 280.221608 58.757758 
L 279.864407 58.444019 
L 276.610169 55.750269 
L 276.305349 55.493439 
L 273.355932 52.990582 
L 272.45095 52.229119 
L 270.101695 50.135661 
L 268.694175 48.964799 
L 266.847458 47.332143 
L 264.860317 45.700479 
L 263.59322 44.590358 
L 260.952687 42.436159 
L 260.338983 41.903468 
L 257.191918 39.171839 
L 257.084746 39.078815 
L 253.830508 36.237994 
L 253.410591 35.907519 
L 250.576271 33.554188 
L 249.288558 32.643199 
L 247.322034 31.168411 
L 244.911473 29.378879 
L 244.067797 28.747792 
L 240.813559 26.374723 
L 240.399026 26.114559 
L 237.559322 24.198347 
L 235.381533 22.850239 
L 234.305085 22.144664 
L 231.050847 19.938634 
L 230.507292 19.585919 
L 227.79661 17.702735 
L 225.582859 16.3216 
L 224.542373 15.623126 
L 221.288136 13.901927 
L 218.330379 13.05728 
L 218.033898 12.964224 
L 214.779661 12.100394 
L 211.525424 11.892868 
L 209.780493 13.05728 
L 208.271186 15.566562 
L 205.016949 14.629899 
L 201.871157 13.05728 
L 201.762712 13.00395 
L 198.508475 11.615864 
L 195.254237 9.921439 
L 195.073695 9.79296 
L 192 7.654443 
L 190.432314 6.52864 
L 188.745763 5.387928 
L 185.895071 3.26432 
L 185.491525 2.990736 
L 182.237288 0.346422 
L 181.815853 -0 
L 178.983051 0 
L 175.728814 0 
L 174.061685 0 
L 175.728814 1.72211 
L 177.571972 3.26432 
L 178.983051 4.732192 
L 181.15851 6.52864 
L 182.237288 7.661736 
L 184.53892 9.79296 
L 185.491525 10.598602 
L 188.620197 13.05728 
L 188.745763 13.155956 
L 192 15.794847 
L 192.718932 16.3216 
L 195.254237 18.345185 
L 196.804762 19.585919 
L 198.508475 20.946468 
L 200.886361 22.850239 
L 201.762712 23.550692 
L 204.963739 26.114559 
L 205.016949 26.157178 
L 208.271186 28.766512 
L 209.039291 29.378879 
L 211.525424 31.370151 
L 213.198584 32.643199 
L 214.779661 33.811315 
L 217.703933 35.907519 
L 218.033898 36.144048 
L 221.288136 37.971983 
L 223.878332 39.171839 
L 224.542373 39.494123 
L 227.79661 40.646637 
L 231.050847 41.399414 
L 234.305085 40.800681 
L 235.127856 39.171839 
L 237.559322 38.083992 
L 240.813559 39.170812 
L 240.815736 39.171839 
L 244.067797 40.706997 
L 247.322034 42.255363 
L 247.60024 42.436159 
L 250.576271 44.252306 
L 252.715762 45.700479 
L 253.830508 46.414572 
L 257.084746 48.640384 
L 257.503294 48.964799 
L 260.338983 51.04888 
L 261.838829 52.229119 
L 263.59322 53.541672 
L 266.116046 55.493439 
L 266.847458 56.045267 
L 270.101695 58.464228 
L 270.475965 58.757758 
L 273.355932 60.879282 
L 274.777279 62.022078 
L 276.610169 63.403127 
L 278.998488 65.286398 
L 279.864407 65.950412 
L 283.118644 68.449675 
L 283.235775 68.550718 
L 286.372881 71.112713 
L 287.186247 71.815038 
L 289.627119 73.828722 
L 291.143068 75.079358 
L 292.881356 76.51342 
L 295.09989 78.343678 
L 296.135593 79.200972 
L 299.055357 81.607998 
L 299.389831 81.884952 
L 302.644068 84.567515 
L 303.013532 84.872318 
L 305.898305 87.383224 
L 306.460153 88.136638 
L 308.309461 91.400958 
L 309.152542 93.086333 
L 310.084978 94.665278 
L 312.105089 97.929597 
L 312.40678 98.392271 
L 315.661017 101.133069 
L 315.747433 101.193917 
L 318.847756 104.458237 
L 318.915254 104.508042 
L 322.169492 107.211661 
L 322.728045 107.722557 
L 325.423729 110.710463 
L 325.685077 110.986877 
L 328.306063 114.251197 
L 328.677966 114.83419 
L 331.932203 116.958437 
L 332.487563 117.515517 
z
" clip-path="url(#p9ee2ee9168)" style="fill: #e5eff9; fill-opacity: 0.9"/>
    <path d="M 338.440678 111.322511 
L 338.775275 110.986877 
L 338.775275 107.722557 
L 341.694915 105.147934 
L 342.382482 104.458237 
L 342.382482 101.193917 
L 342.707805 97.929597 
L 344.949153 95.872109 
L 346.152256 94.665278 
L 346.152256 91.400958 
L 348.20339 89.459985 
L 349.52265 88.136638 
L 349.52265 84.872318 
L 349.619768 81.607998 
L 351.457627 79.764445 
L 352.874005 78.343678 
L 352.889993 75.079358 
L 354.711864 73.274785 
L 356.167102 71.815038 
L 356.167102 68.550718 
L 356.167102 65.286398 
L 357.966102 63.532596 
L 359.471954 62.022078 
L 359.461973 58.757758 
L 361.220339 56.993944 
L 362.71621 55.493439 
L 362.6914 52.229119 
L 362.6914 48.964799 
L 364.474576 47.17871 
L 365.948242 45.700479 
L 365.948242 42.436159 
L 367.728814 40.634636 
L 369.187093 39.171839 
L 369.185953 35.907519 
L 369.185953 32.643199 
L 370.983051 30.864246 
L 372.46383 29.378879 
L 372.46383 26.114559 
L 374.237288 24.329345 
L 375.711826 22.850239 
L 375.711826 19.585919 
L 375.725189 16.3216 
L 377.491525 14.549791 
L 378.979426 13.05728 
L 378.933607 9.79296 
L 380.745763 8.041825 
L 382.254274 6.52864 
L 382.254274 3.26432 
L 382.254274 0 
L 381.817843 0 
L 381.817843 3.26432 
L 381.817843 6.52864 
L 380.745763 7.604042 
L 378.480568 9.79296 
L 378.537842 13.05728 
L 377.491525 14.106838 
L 375.283605 16.3216 
L 375.266901 19.585919 
L 375.266901 22.850239 
L 374.237288 23.883042 
L 372.020465 26.114559 
L 372.020465 29.378879 
L 370.983051 30.419508 
L 368.736678 32.643199 
L 368.736678 35.907519 
L 368.738103 39.171839 
L 367.728814 40.184256 
L 365.503099 42.436159 
L 365.503099 45.700479 
L 364.474576 46.732188 
L 362.245605 48.964799 
L 362.245605 52.229119 
L 362.276618 55.493439 
L 361.220339 56.552991 
L 359.022381 58.757758 
L 359.034857 62.022078 
L 357.966102 63.094145 
L 355.717353 65.286398 
L 355.717353 68.550718 
L 355.717353 71.815038 
L 354.711864 72.823642 
L 352.434525 75.079358 
L 352.414541 78.343678 
L 351.457627 79.303556 
L 349.160303 81.607998 
L 349.038905 84.872318 
L 349.038905 88.136638 
L 348.20339 88.974742 
L 345.639473 91.400958 
L 345.639473 94.665278 
L 344.949153 95.357737 
L 342.147468 97.929597 
L 341.740814 101.193917 
L 341.740814 104.458237 
L 341.694915 104.504278 
L 338.440678 104.839073 
L 337.869238 104.458237 
L 336.456 101.193917 
L 335.186441 100.763533 
L 331.932203 99.616034 
L 330.428778 97.929597 
L 328.677966 94.955037 
L 328.475252 94.665278 
L 325.751608 91.400958 
L 325.423729 91.105876 
L 322.169492 88.569 
L 321.444535 88.136638 
L 318.915254 86.629159 
L 317.331954 84.872318 
L 315.661017 82.625107 
L 314.958523 81.607998 
L 312.693799 78.343678 
L 312.40678 77.953382 
L 310.020877 75.079358 
L 309.152542 74.181221 
L 306.460424 71.815038 
L 305.898305 71.320975 
L 302.746453 68.550718 
L 302.644068 68.459535 
L 299.389831 65.610068 
L 299.022222 65.286398 
L 296.135593 62.758239 
L 295.300114 62.022078 
L 292.881356 59.902068 
L 291.583608 58.757758 
L 289.627119 56.926871 
L 287.987654 55.493439 
L 286.372881 53.985325 
L 284.343874 52.229119 
L 283.118644 51.091822 
L 280.733923 48.964799 
L 279.864407 48.170063 
L 277.134595 45.700479 
L 276.610169 45.221593 
L 273.528078 42.436159 
L 273.355932 42.279108 
L 270.101695 39.380963 
L 269.857969 39.171839 
L 266.847458 36.532955 
L 266.133943 35.907519 
L 263.59322 33.680432 
L 262.409917 32.643199 
L 260.338983 30.827908 
L 258.685891 29.378879 
L 257.084746 27.975385 
L 254.881304 26.114559 
L 253.830508 25.256479 
L 250.721669 22.850239 
L 250.576271 22.733579 
L 247.322034 20.218924 
L 246.504198 19.585919 
L 244.067797 17.700147 
L 242.286727 16.3216 
L 240.813559 15.181369 
L 238.069256 13.05728 
L 237.559322 12.639523 
L 234.305085 10.128466 
L 233.877634 9.79296 
L 231.050847 7.576157 
L 229.716584 6.52864 
L 227.79661 5.022604 
L 225.383832 3.26432 
L 224.542373 2.615088 
L 221.288136 0.487837 
L 220.562894 0 
L 218.033898 0 
L 214.779661 0 
L 211.525424 0 
L 208.271186 0 
L 205.016949 0 
L 201.762712 0 
L 198.508475 0 
L 195.254237 0 
L 192 0 
L 188.745763 0 
L 185.491525 0 
L 182.237288 0 
L 181.815853 -0 
L 182.237288 0.346422 
L 185.491525 2.990736 
L 185.895071 3.26432 
L 188.745763 5.387928 
L 190.432314 6.52864 
L 192 7.654443 
L 195.073695 9.79296 
L 195.254237 9.921439 
L 198.508475 11.615864 
L 201.762712 13.00395 
L 201.871157 13.05728 
L 205.016949 14.629899 
L 208.271186 15.566562 
L 209.780493 13.05728 
L 211.525424 11.892868 
L 214.779661 12.100394 
L 218.033898 12.964224 
L 218.330379 13.05728 
L 221.288136 13.901927 
L 224.542373 15.623126 
L 225.582859 16.3216 
L 227.79661 17.702735 
L 230.507292 19.585919 
L 231.050847 19.938634 
L 234.305085 22.144664 
L 235.381533 22.850239 
L 237.559322 24.198347 
L 240.399026 26.114559 
L 240.813559 26.374723 
L 244.067797 28.747792 
L 244.911473 29.378879 
L 247.322034 31.168411 
L 249.288558 32.643199 
L 250.576271 33.554188 
L 253.410591 35.907519 
L 253.830508 36.237994 
L 257.084746 39.078815 
L 257.191918 39.171839 
L 260.338983 41.903468 
L 260.952687 42.436159 
L 263.59322 44.590358 
L 264.860317 45.700479 
L 266.847458 47.332143 
L 268.694175 48.964799 
L 270.101695 50.135661 
L 272.45095 52.229119 
L 273.355932 52.990582 
L 276.305349 55.493439 
L 276.610169 55.750269 
L 279.864407 58.444019 
L 280.221608 58.757758 
L 283.118644 61.163248 
L 284.101421 62.022078 
L 286.372881 63.924465 
L 287.99252 65.286398 
L 289.627119 66.656309 
L 291.878535 68.550718 
L 292.881356 69.391706 
L 295.759526 71.815038 
L 296.135593 72.130622 
L 299.389831 74.851206 
L 299.666004 75.079358 
L 302.644068 77.539583 
L 303.617412 78.343678 
L 305.898305 80.22796 
L 307.317502 81.607998 
L 309.152542 83.828262 
L 309.809876 84.872318 
L 311.903681 88.136638 
L 312.40678 89.049621 
L 313.929084 91.400958 
L 315.661017 93.817018 
L 317.091426 94.665278 
L 318.915254 95.462168 
L 321.761835 97.929597 
L 322.169492 98.444396 
L 324.24782 101.193917 
L 325.423729 102.599146 
L 327.097429 104.458237 
L 328.677966 106.019313 
L 330.675684 107.722557 
L 331.932203 109.610806 
L 335.186441 110.152933 
L 336.017809 110.986877 
z
" clip-path="url(#p9ee2ee9168)" style="fill: #dfecf7; fill-opacity: 0.9"/>
    <path d="M 338.440678 104.839073 
L 341.694915 104.504278 
L 341.740814 104.458237 
L 341.740814 101.193917 
L 342.147468 97.929597 
L 344.949153 95.357737 
L 345.639473 94.665278 
L 345.639473 91.400958 
L 348.20339 88.974742 
L 349.038905 88.136638 
L 349.038905 84.872318 
L 349.160303 81.607998 
L 351.457627 79.303556 
L 352.414541 78.343678 
L 352.434525 75.079358 
L 354.711864 72.823642 
L 355.717353 71.815038 
L 355.717353 68.550718 
L 355.717353 65.286398 
L 357.966102 63.094145 
L 359.034857 62.022078 
L 359.022381 58.757758 
L 361.220339 56.552991 
L 362.276618 55.493439 
L 362.245605 52.229119 
L 362.245605 48.964799 
L 364.474576 46.732188 
L 365.503099 45.700479 
L 365.503099 42.436159 
L 367.728814 40.184256 
L 368.738103 39.171839 
L 368.736678 35.907519 
L 368.736678 32.643199 
L 370.983051 30.419508 
L 372.020465 29.378879 
L 372.020465 26.114559 
L 374.237288 23.883042 
L 375.266901 22.850239 
L 375.266901 19.585919 
L 375.283605 16.3216 
L 377.491525 14.106838 
L 378.537842 13.05728 
L 378.480568 9.79296 
L 380.745763 7.604042 
L 381.817843 6.52864 
L 381.817843 3.26432 
L 381.817843 0 
L 381.381411 0 
L 381.381411 3.26432 
L 381.381411 6.52864 
L 380.745763 7.166258 
L 378.027529 9.79296 
L 378.096258 13.05728 
L 377.491525 13.663886 
L 374.842021 16.3216 
L 374.821976 19.585919 
L 374.821976 22.850239 
L 374.237288 23.436738 
L 371.5771 26.114559 
L 371.5771 29.378879 
L 370.983051 29.974769 
L 368.287404 32.643199 
L 368.287404 35.907519 
L 368.289114 39.171839 
L 367.728814 39.733875 
L 365.057956 42.436159 
L 365.057956 45.700479 
L 364.474576 46.285666 
L 361.799811 48.964799 
L 361.799811 52.229119 
L 361.837027 55.493439 
L 361.220339 56.112037 
L 358.582789 58.757758 
L 358.597761 62.022078 
L 357.966102 62.655695 
L 355.267603 65.286398 
L 355.267603 68.550718 
L 355.267603 71.815038 
L 354.711864 72.372498 
L 351.979057 75.079358 
L 351.955076 78.343678 
L 351.457627 78.842668 
L 348.700839 81.607998 
L 348.555161 84.872318 
L 348.555161 88.136638 
L 348.20339 88.489499 
L 345.12669 91.400958 
L 345.12669 94.665278 
L 344.949153 94.843365 
L 342.857186 94.665278 
L 341.694915 93.499406 
L 338.440678 92.168945 
L 336.139973 91.400958 
L 335.186441 90.99581 
L 333.322929 88.136638 
L 331.932203 85.560092 
L 331.398069 84.872318 
L 328.677966 82.389483 
L 327.455554 81.607998 
L 325.423729 80.287423 
L 322.169492 78.404442 
L 322.10497 78.343678 
L 319.061526 75.079358 
L 318.915254 74.932373 
L 316.333598 71.815038 
L 315.661017 70.977853 
L 313.677594 68.550718 
L 312.40678 67.145142 
L 310.396413 65.286398 
L 309.152542 64.131563 
L 306.870176 62.022078 
L 305.898305 61.111031 
L 303.349074 58.757758 
L 302.644068 58.097543 
L 299.824467 55.493439 
L 299.389831 55.086793 
L 296.335451 52.229119 
L 296.135593 52.042132 
L 292.881356 48.996964 
L 292.846477 48.964799 
L 289.627119 45.95253 
L 289.35742 45.700479 
L 286.372881 42.908147 
L 285.886629 42.436159 
L 283.118644 39.705741 
L 282.579156 39.171839 
L 279.864407 36.485196 
L 279.280686 35.907519 
L 276.610169 33.264652 
L 275.982215 32.643199 
L 273.355932 30.044107 
L 272.683745 29.378879 
L 270.101695 26.784998 
L 269.424103 26.114559 
L 266.847458 23.523026 
L 266.167338 22.850239 
L 263.59322 20.261133 
L 262.910486 19.585919 
L 260.338983 16.999323 
L 259.647827 16.3216 
L 257.084746 13.844431 
L 256.264079 13.05728 
L 253.830508 10.723094 
L 252.860771 9.79296 
L 250.576271 7.601757 
L 249.457463 6.52864 
L 247.322034 4.48042 
L 246.054155 3.26432 
L 244.067797 1.354502 
L 242.655467 0 
L 240.813559 0 
L 237.559322 0 
L 234.305085 0 
L 231.050847 0 
L 227.79661 0 
L 224.542373 0 
L 221.288136 0 
L 220.562894 0 
L 221.288136 0.487837 
L 224.542373 2.615088 
L 225.383832 3.26432 
L 227.79661 5.022604 
L 229.716584 6.52864 
L 231.050847 7.576157 
L 233.877634 9.79296 
L 234.305085 10.128466 
L 237.559322 12.639523 
L 238.069256 13.05728 
L 240.813559 15.181369 
L 242.286727 16.3216 
L 244.067797 17.700147 
L 246.504198 19.585919 
L 247.322034 20.218924 
L 250.576271 22.733579 
L 250.721669 22.850239 
L 253.830508 25.256479 
L 254.881304 26.114559 
L 257.084746 27.975385 
L 258.685891 29.378879 
L 260.338983 30.827908 
L 262.409917 32.643199 
L 263.59322 33.680432 
L 266.133943 35.907519 
L 266.847458 36.532955 
L 269.857969 39.171839 
L 270.101695 39.380963 
L 273.355932 42.279108 
L 273.528078 42.436159 
L 276.610169 45.221593 
L 277.134595 45.700479 
L 279.864407 48.170063 
L 280.733923 48.964799 
L 283.118644 51.091822 
L 284.343874 52.229119 
L 286.372881 53.985325 
L 287.987654 55.493439 
L 289.627119 56.926871 
L 291.583608 58.757758 
L 292.881356 59.902068 
L 295.300114 62.022078 
L 296.135593 62.758239 
L 299.022222 65.286398 
L 299.389831 65.610068 
L 302.644068 68.459535 
L 302.746453 68.550718 
L 305.898305 71.320975 
L 306.460424 71.815038 
L 309.152542 74.181221 
L 310.020877 75.079358 
L 312.40678 77.953382 
L 312.693799 78.343678 
L 314.958523 81.607998 
L 315.661017 82.625107 
L 317.331954 84.872318 
L 318.915254 86.629159 
L 321.444535 88.136638 
L 322.169492 88.569 
L 325.423729 91.105876 
L 325.751608 91.400958 
L 328.475252 94.665278 
L 328.677966 94.955037 
L 330.428778 97.929597 
L 331.932203 99.616034 
L 335.186441 100.763533 
L 336.456 101.193917 
L 337.869238 104.458237 
z
" clip-path="url(#p9ee2ee9168)" style="fill: #dae8f6; fill-opacity: 0.9"/>
    <path d="M 344.949153 94.843365 
L 345.12669 94.665278 
L 345.12669 91.400958 
L 348.20339 88.489499 
L 348.555161 88.136638 
L 348.555161 84.872318 
L 348.700839 81.607998 
L 351.457627 78.842668 
L 351.955076 78.343678 
L 351.979057 75.079358 
L 354.711864 72.372498 
L 355.267603 71.815038 
L 355.267603 68.550718 
L 355.267603 65.286398 
L 357.966102 62.655695 
L 358.597761 62.022078 
L 358.582789 58.757758 
L 361.220339 56.112037 
L 361.837027 55.493439 
L 361.799811 52.229119 
L 361.799811 48.964799 
L 364.474576 46.285666 
L 365.057956 45.700479 
L 365.057956 42.436159 
L 367.728814 39.733875 
L 368.289114 39.171839 
L 368.287404 35.907519 
L 368.287404 32.643199 
L 370.983051 29.974769 
L 371.5771 29.378879 
L 371.5771 26.114559 
L 374.237288 23.436738 
L 374.821976 22.850239 
L 374.821976 19.585919 
L 374.842021 16.3216 
L 377.491525 13.663886 
L 378.096258 13.05728 
L 378.027529 9.79296 
L 380.745763 7.166258 
L 381.381411 6.52864 
L 381.381411 3.26432 
L 381.381411 0 
L 380.94498 0 
L 380.94498 3.26432 
L 380.94498 6.52864 
L 380.745763 6.728474 
L 377.574489 9.79296 
L 377.654674 13.05728 
L 377.491525 13.220934 
L 374.400437 16.3216 
L 374.377051 19.585919 
L 374.377051 22.850239 
L 374.237288 22.990435 
L 371.133736 26.114559 
L 371.133736 29.378879 
L 370.983051 29.530031 
L 367.838129 32.643199 
L 367.838129 35.907519 
L 367.840124 39.171839 
L 367.728814 39.283495 
L 364.612813 42.436159 
L 364.612813 45.700479 
L 364.474576 45.839144 
L 361.354017 48.964799 
L 361.354017 52.229119 
L 361.397435 55.493439 
L 361.220339 55.671083 
L 358.143198 58.757758 
L 358.160665 62.022078 
L 357.966102 62.217244 
L 354.817853 65.286398 
L 354.817853 68.550718 
L 354.817853 71.815038 
L 354.711864 71.921355 
L 351.523589 75.079358 
L 351.495611 78.343678 
L 351.457627 78.38178 
L 348.241374 81.607998 
L 348.20339 82.367129 
L 347.446603 81.607998 
L 345.645872 78.343678 
L 344.949153 77.441708 
L 343.322086 75.079358 
L 341.694915 72.208372 
L 341.152507 71.815038 
L 338.440678 70.013649 
L 337.11807 68.550718 
L 335.186441 65.676044 
L 334.940964 65.286398 
L 331.932203 62.025612 
L 328.677966 62.71723 
L 325.423729 62.384411 
L 325.077302 62.022078 
L 322.169492 59.007492 
L 321.948587 58.757758 
L 318.915254 55.623008 
L 318.787135 55.493439 
L 315.661017 52.365411 
L 315.524104 52.229119 
L 312.40678 49.070497 
L 312.300585 48.964799 
L 309.328676 45.700479 
L 309.152542 45.485038 
L 306.494494 42.436159 
L 305.898305 41.696144 
L 303.720037 39.171839 
L 302.644068 37.813374 
L 301.019015 35.907519 
L 299.389831 33.825421 
L 298.39471 32.643199 
L 296.135593 29.783318 
L 295.798601 29.378879 
L 293.469061 26.114559 
L 292.881356 25.170608 
L 291.54327 22.850239 
L 289.655179 19.585919 
L 289.627119 19.543104 
L 287.53306 16.3216 
L 286.372881 14.558838 
L 285.374459 13.05728 
L 283.200569 9.79296 
L 283.118644 9.685273 
L 280.717152 6.52864 
L 279.864407 5.459927 
L 278.175418 3.26432 
L 276.610169 1.450573 
L 275.465923 0 
L 273.355932 0 
L 270.101695 0 
L 266.847458 0 
L 263.59322 0 
L 260.338983 0 
L 257.084746 0 
L 253.830508 0 
L 250.576271 0 
L 247.322034 0 
L 244.067797 0 
L 242.655467 0 
L 244.067797 1.354502 
L 246.054155 3.26432 
L 247.322034 4.48042 
L 249.457463 6.52864 
L 250.576271 7.601757 
L 252.860771 9.79296 
L 253.830508 10.723094 
L 256.264079 13.05728 
L 257.084746 13.844431 
L 259.647827 16.3216 
L 260.338983 16.999323 
L 262.910486 19.585919 
L 263.59322 20.261133 
L 266.167338 22.850239 
L 266.847458 23.523026 
L 269.424103 26.114559 
L 270.101695 26.784998 
L 272.683745 29.378879 
L 273.355932 30.044107 
L 275.982215 32.643199 
L 276.610169 33.264652 
L 279.280686 35.907519 
L 279.864407 36.485196 
L 282.579156 39.171839 
L 283.118644 39.705741 
L 285.886629 42.436159 
L 286.372881 42.908147 
L 289.35742 45.700479 
L 289.627119 45.95253 
L 292.846477 48.964799 
L 292.881356 48.996964 
L 296.135593 52.042132 
L 296.335451 52.229119 
L 299.389831 55.086793 
L 299.824467 55.493439 
L 302.644068 58.097543 
L 303.349074 58.757758 
L 305.898305 61.111031 
L 306.870176 62.022078 
L 309.152542 64.131563 
L 310.396413 65.286398 
L 312.40678 67.145142 
L 313.677594 68.550718 
L 315.661017 70.977853 
L 316.333598 71.815038 
L 318.915254 74.932373 
L 319.061526 75.079358 
L 322.10497 78.343678 
L 322.169492 78.404442 
L 325.423729 80.287423 
L 327.455554 81.607998 
L 328.677966 82.389483 
L 331.398069 84.872318 
L 331.932203 85.560092 
L 333.322929 88.136638 
L 335.186441 90.99581 
L 336.139973 91.400958 
L 338.440678 92.168945 
L 341.694915 93.499406 
L 342.857186 94.665278 
z
" clip-path="url(#p9ee2ee9168)" style="fill: #d6e5f4; fill-opacity: 0.9"/>
    <path d="M 348.20339 82.367129 
L 348.241374 81.607998 
L 351.457627 78.38178 
L 351.495611 78.343678 
L 351.523589 75.079358 
L 354.711864 71.921355 
L 354.817853 71.815038 
L 354.817853 68.550718 
L 354.817853 65.286398 
L 357.966102 62.217244 
L 358.160665 62.022078 
L 358.143198 58.757758 
L 361.220339 55.671083 
L 361.397435 55.493439 
L 361.354017 52.229119 
L 361.354017 48.964799 
L 364.474576 45.839144 
L 364.612813 45.700479 
L 364.612813 42.436159 
L 367.728814 39.283495 
L 367.840124 39.171839 
L 367.838129 35.907519 
L 367.838129 32.643199 
L 370.983051 29.530031 
L 371.133736 29.378879 
L 371.133736 26.114559 
L 374.237288 22.990435 
L 374.377051 22.850239 
L 374.377051 19.585919 
L 374.400437 16.3216 
L 377.491525 13.220934 
L 377.654674 13.05728 
L 377.574489 9.79296 
L 380.745763 6.728474 
L 380.94498 6.52864 
L 380.94498 3.26432 
L 380.94498 0 
L 380.745763 0 
L 377.491525 0 
L 374.237288 0 
L 370.983051 0 
L 367.728814 0 
L 364.474576 0 
L 361.220339 0 
L 357.966102 0 
L 354.711864 0 
L 351.457627 0 
L 348.20339 0 
L 344.949153 0 
L 341.694915 0 
L 338.440678 0 
L 335.186441 0 
L 331.932203 0 
L 328.677966 0 
L 325.423729 0 
L 322.169492 0 
L 318.915254 0 
L 315.661017 0 
L 312.40678 0 
L 309.152542 0 
L 305.898305 0 
L 302.644068 0 
L 299.389831 0 
L 296.135593 0 
L 292.881356 0 
L 289.627119 0 
L 286.372881 0 
L 283.118644 0 
L 279.864407 0 
L 276.610169 0 
L 275.465923 0 
L 276.610169 1.450573 
L 278.175418 3.26432 
L 279.864407 5.459927 
L 280.717152 6.52864 
L 283.118644 9.685273 
L 283.200569 9.79296 
L 285.374459 13.05728 
L 286.372881 14.558838 
L 287.53306 16.3216 
L 289.627119 19.543104 
L 289.655179 19.585919 
L 291.54327 22.850239 
L 292.881356 25.170608 
L 293.469061 26.114559 
L 295.798601 29.378879 
L 296.135593 29.783318 
L 298.39471 32.643199 
L 299.389831 33.825421 
L 301.019015 35.907519 
L 302.644068 37.813374 
L 303.720037 39.171839 
L 305.898305 41.696144 
L 306.494494 42.436159 
L 309.152542 45.485038 
L 309.328676 45.700479 
L 312.300585 48.964799 
L 312.40678 49.070497 
L 315.524104 52.229119 
L 315.661017 52.365411 
L 318.787135 55.493439 
L 318.915254 55.623008 
L 321.948587 58.757758 
L 322.169492 59.007492 
L 325.077302 62.022078 
L 325.423729 62.384411 
L 328.677966 62.71723 
L 331.932203 62.025612 
L 334.940964 65.286398 
L 335.186441 65.676044 
L 337.11807 68.550718 
L 338.440678 70.013649 
L 341.152507 71.815038 
L 341.694915 72.208372 
L 343.322086 75.079358 
L 344.949153 77.441708 
L 345.645872 78.343678 
L 347.446603 81.607998 
z
" clip-path="url(#p9ee2ee9168)" style="fill: #d0e2f2; fill-opacity: 0.9"/>
    <path clip-path="url(#p9ee2ee9168)" style="fill: #cbdef1; fill-opacity: 0.9"/>
    <path clip-path="url(#p9ee2ee9168)" style="fill: #c6dbef; fill-opacity: 0.9"/>
    <path clip-path="url(#p9ee2ee9168)" style="fill: #bed8ec; fill-opacity: 0.9"/>
    <path clip-path="url(#p9ee2ee9168)" style="fill: #b5d4e9; fill-opacity: 0.9"/>
    <path clip-path="url(#p9ee2ee9168)" style="fill: #add0e6; fill-opacity: 0.9"/>
    <path clip-path="url(#p9ee2ee9168)" style="fill: #a5cde3; fill-opacity: 0.9"/>
    <path clip-path="url(#p9ee2ee9168)" style="fill: #9cc9e1; fill-opacity: 0.9"/>
    <path clip-path="url(#p9ee2ee9168)" style="fill: #91c3de; fill-opacity: 0.9"/>
    <path clip-path="url(#p9ee2ee9168)" style="fill: #85bcdc; fill-opacity: 0.9"/>
    <path clip-path="url(#p9ee2ee9168)" style="fill: #7cb7da; fill-opacity: 0.9"/>
    <path clip-path="url(#p9ee2ee9168)" style="fill: #71b1d7; fill-opacity: 0.9"/>
    <path clip-path="url(#p9ee2ee9168)" style="fill: #66abd4; fill-opacity: 0.9"/>
    <path clip-path="url(#p9ee2ee9168)" style="fill: #5da5d1; fill-opacity: 0.9"/>
    <path clip-path="url(#p9ee2ee9168)" style="fill: #56a0ce; fill-opacity: 0.9"/>
    <path clip-path="url(#p9ee2ee9168)" style="fill: #4d99ca; fill-opacity: 0.9"/>
    <path clip-path="url(#p9ee2ee9168)" style="fill: #4493c7; fill-opacity: 0.9"/>
    <path clip-path="url(#p9ee2ee9168)" style="fill: #3c8cc3; fill-opacity: 0.9"/>
    <path clip-path="url(#p9ee2ee9168)" style="fill: #3686c0; fill-opacity: 0.9"/>
    <path clip-path="url(#p9ee2ee9168)" style="fill: #2f7fbc; fill-opacity: 0.9"/>
    <path clip-path="url(#p9ee2ee9168)" style="fill: #2777b8; fill-opacity: 0.9"/>
    <path clip-path="url(#p9ee2ee9168)" style="fill: #2070b4; fill-opacity: 0.9"/>
    <path clip-path="url(#p9ee2ee9168)" style="fill: #1c6ab0; fill-opacity: 0.9"/>
    <path clip-path="url(#p9ee2ee9168)" style="fill: #1663aa; fill-opacity: 0.9"/>
    <path clip-path="url(#p9ee2ee9168)" style="fill: #115ca5; fill-opacity: 0.9"/>
    <path clip-path="url(#p9ee2ee9168)" style="fill: #0c56a0; fill-opacity: 0.9"/>
    <path clip-path="url(#p9ee2ee9168)" style="fill: #084f99; fill-opacity: 0.9"/>
    <path clip-path="url(#p9ee2ee9168)" style="fill: #08488e; fill-opacity: 0.9"/>
    <path clip-path="url(#p9ee2ee9168)" style="fill: #084184; fill-opacity: 0.9"/>
    <path clip-path="url(#p9ee2ee9168)" style="fill: #083a7a; fill-opacity: 0.9"/>
    <path clip-path="url(#p9ee2ee9168)" style="fill: #083370; fill-opacity: 0.9"/>
    <path clip-path="url(#p9ee2ee9168)" style="fill: #08306b; fill-opacity: 0.9"/>
   </g>
   <g id="QuadContourSet_2">
    <path d="M 136.531006 0 
L 156.20339 20.997457 
L 167.003649 32.643199 
L 172.474576 38.61257 
L 173.028597 39.171839 
L 199.510295 68.120704 
M 212.606077 82.038679 
L 258.27942 130.572797 
L 280.159872 153.423036 
L 283.118644 156.943263 
L 286.372881 160.517511 
L 292.881356 167.19641 
L 298.74443 173.008956 
L 302.644068 177.006462 
L 303.99382 179.537595 
L 305.898305 180.955533 
L 309.152542 182.801915 
L 315.661017 176.273275 
L 315.661017 173.008956 
L 315.661017 173.008956 
L 318.915254 169.744636 
L 318.915254 163.215996 
L 318.915254 163.215996 
L 322.169492 159.951676 
L 322.169492 156.687356 
L 322.169492 156.687356 
L 325.423729 153.423036 
L 325.423729 146.894396 
L 325.423729 146.894396 
L 328.677966 143.630076 
L 328.677966 140.365756 
L 328.677966 140.365756 
L 331.932203 137.101436 
L 331.932203 130.572797 
L 331.932203 130.572797 
L 335.186441 127.308477 
L 335.186441 124.044157 
L 335.186441 124.044157 
L 338.440678 120.779837 
L 338.440678 114.251197 
L 338.440678 114.251197 
L 341.694915 110.986877 
L 341.694915 107.722557 
L 341.694915 107.722557 
L 344.949153 104.458237 
L 344.949153 97.929597 
L 344.949153 97.929597 
L 348.20339 94.665278 
L 348.20339 91.400958 
L 348.20339 91.400958 
L 351.457627 88.136638 
L 351.457627 81.607998 
L 351.457627 81.607998 
L 354.711864 78.343678 
L 354.711864 75.079358 
L 354.711864 75.079358 
L 357.966102 71.815038 
L 357.966102 65.286398 
L 357.966102 65.286398 
L 361.220339 62.022078 
L 361.220339 58.757758 
L 361.220339 58.757758 
L 364.474576 55.493439 
L 364.474576 48.964799 
L 364.474576 48.964799 
L 367.728814 45.700479 
L 367.728814 42.436159 
L 367.728814 42.436159 
L 370.983051 39.171839 
L 370.983051 32.643199 
L 370.983051 32.643199 
L 374.237288 29.378879 
L 374.237288 26.114559 
L 374.237288 26.114559 
L 377.491525 22.850239 
L 377.491525 16.3216 
L 377.491525 16.3216 
L 380.745763 13.05728 
L 380.745763 9.79296 
L 380.745763 9.79296 
L 384 6.52864 
L 384 0 
L 384 0 
" clip-path="url(#p9ee2ee9168)" style="fill: none"/>
    <path d="M 149.69874 0 
L 165.966102 16.657478 
L 177.940811 29.378879 
L 193.723667 45.700479 
L 202.928869 55.493439 
L 221.859104 75.079358 
L 230.874034 84.620829 
M 244.237128 98.442432 
L 253.830508 108.51089 
L 259.33483 114.251197 
L 279.864407 135.154738 
L 286.372881 141.985819 
L 289.627119 145.430153 
L 292.881356 146.471078 
L 293.31182 146.894396 
L 294.853255 150.158716 
L 295.124836 153.423036 
L 296.135593 154.456013 
L 299.389831 155.241402 
L 301.581479 156.687356 
L 303.171831 159.951676 
L 306.281954 163.215996 
L 309.638753 166.480316 
L 311.108755 169.744636 
L 312.40678 170.728752 
L 315.661017 170.092765 
L 316.008071 169.744636 
L 316.008071 166.480316 
L 316.925402 163.215996 
L 318.915254 161.777062 
L 320.735002 159.951676 
L 320.735002 156.687356 
L 322.169492 154.455683 
L 323.198949 153.423036 
L 323.198949 150.158716 
L 322.929107 146.894396 
L 326.183344 143.630076 
L 326.105738 140.365756 
L 329.359975 137.101436 
L 329.445848 130.572797 
L 331.932203 128.804665 
L 333.42377 127.308477 
L 333.42377 124.044157 
L 335.186441 122.889297 
L 337.289385 120.779837 
L 337.593817 117.515517 
L 337.593817 114.251197 
L 338.440678 113.519025 
L 340.965005 110.986877 
L 340.965005 107.722557 
L 341.694915 107.078901 
L 344.307485 104.458237 
L 344.388816 97.929597 
L 344.949153 97.415225 
L 347.690606 94.665278 
L 347.690606 91.400958 
L 348.20339 90.915714 
L 350.973883 88.136638 
L 350.998162 81.607998 
L 354.2524 78.343678 
L 354.256397 75.079358 
L 357.516352 71.815038 
L 357.516352 65.286398 
L 360.783243 62.022078 
L 360.780747 58.757758 
L 364.034985 55.493439 
L 364.028782 48.964799 
L 367.283671 45.700479 
L 367.283671 42.436159 
L 370.534061 39.171839 
L 370.533776 32.643199 
L 373.793923 29.378879 
L 373.793923 26.114559 
L 377.0466 22.850239 
L 377.049941 16.3216 
L 380.304179 13.05728 
L 380.292724 9.79296 
L 383.563569 6.52864 
L 383.563569 0 
M 292.881356 121.058766 
L 292.827842 121.012867 
M 284.49335 106.250476 
L 286.372881 105.561942 
L 287.125519 104.458237 
L 286.160357 101.193917 
L 286.372881 100.577215 
L 287.520804 97.929597 
L 287.87017 94.665278 
L 289.627119 92.02386 
L 292.881356 93.608076 
L 299.570307 97.929597 
L 301.572305 101.193917 
L 301.677566 104.458237 
L 300.428166 107.722557 
L 299.389831 110.03816 
L 298.795699 110.986877 
L 297.01402 114.251197 
L 296.135593 117.813013 
L 293.955168 120.779837 
L 292.881356 121.058766 
L 292.881356 121.058766 
" clip-path="url(#p9ee2ee9168)" style="fill: none"/>
    <path d="M 164.339481 0 
L 165.966102 1.684766 
L 167.472492 3.26432 
L 169.220339 5.073926 
L 170.613747 6.52864 
L 172.474576 8.454706 
L 173.767503 9.79296 
L 175.728814 11.82303 
L 176.921259 13.05728 
L 178.983051 15.191354 
L 180.069665 16.3216 
L 182.237288 18.585031 
L 183.193364 19.585919 
L 185.491525 21.991798 
L 186.311532 22.850239 
L 188.745763 25.398565 
L 189.4297 26.114559 
L 192 28.793875 
L 192.558911 29.378879 
L 195.254237 32.185997 
L 195.691138 32.643199 
L 198.508475 35.576853 
L 198.824523 35.907519 
L 201.762712 38.966462 
L 201.95959 39.171839 
L 205.016949 42.35461 
L 205.095261 42.436159 
L 208.223522 45.700479 
L 208.271186 45.75028 
L 211.339651 48.964799 
L 211.525424 49.158739 
L 214.456729 52.229119 
L 214.779661 52.566204 
L 217.574714 55.493439 
L 218.033898 55.972683 
L 220.693597 58.757758 
L 221.288136 59.378188 
L 223.821654 62.022078 
L 224.542373 62.774183 
L 226.949753 65.286398 
L 227.79661 66.170135 
L 230.077851 68.550718 
L 231.050847 69.566087 
L 233.205949 71.815038 
L 234.305085 72.964023 
L 236.318691 75.079358 
L 237.559322 76.383438 
L 239.424189 78.343678 
L 240.813559 79.802661 
L 242.531137 81.607998 
L 244.067797 83.217343 
L 245.234706 84.443673 
M 258.508686 98.352098 
L 260.338983 100.268111 
L 261.234101 101.193917 
L 263.59322 103.613756 
L 264.422436 104.458237 
L 266.847458 106.927904 
L 267.627745 107.722557 
L 270.101695 110.242053 
L 270.833055 110.986877 
L 273.355932 113.557902 
L 274.036687 114.251197 
L 276.610169 116.875011 
L 277.23908 117.515517 
L 279.864407 120.192238 
L 280.441358 120.779837 
L 283.118644 123.509583 
L 283.643078 124.044157 
L 286.372881 126.827462 
L 286.84465 127.308477 
L 289.627119 129.692652 
L 292.881356 129.520599 
L 293.628252 127.308477 
L 292.881356 126.512059 
L 290.733029 124.044157 
L 289.627119 123.121934 
L 287.323197 120.779837 
L 286.372881 119.813774 
L 284.112085 117.515517 
L 283.118644 116.505615 
L 280.900973 114.251197 
L 279.864407 113.197455 
L 277.689861 110.986877 
L 276.610169 109.828631 
L 274.539941 107.722557 
L 273.355932 106.428657 
L 271.421055 104.458237 
L 270.101695 103.006935 
L 268.330349 101.193917 
L 266.847458 99.550869 
L 265.38422 97.929597 
L 263.59322 95.962191 
L 262.366642 94.665278 
L 260.338983 92.539672 
L 259.252741 91.400958 
L 257.084746 89.128237 
L 256.138839 88.136638 
L 253.830508 85.716802 
L 253.024937 84.872318 
L 250.576271 82.305368 
L 249.911036 81.607998 
L 247.322034 78.721163 
L 246.962929 78.343678 
L 244.432501 75.079358 
L 244.067797 74.565528 
L 242.115565 71.815038 
L 240.813559 69.98065 
L 239.798628 68.550718 
L 237.559322 65.408006 
L 237.453968 65.286398 
L 234.407986 62.022078 
L 237.559322 61.514103 
L 238.345919 62.022078 
L 240.813559 63.553112 
L 243.803463 65.286398 
L 244.067797 65.440369 
L 247.322034 67.32616 
L 249.490776 68.550718 
L 250.576271 69.172983 
L 253.830508 69.011436 
L 257.084746 69.056 
L 258.372479 68.550718 
L 260.338983 66.099755 
L 260.734706 65.286398 
L 263.59322 64.559135 
L 264.805224 65.286398 
L 266.847458 66.51184 
L 270.101695 68.464545 
L 270.245305 68.550718 
L 273.355932 70.41725 
L 275.616283 71.815038 
L 276.610169 72.435206 
L 279.864407 74.608554 
L 280.503956 75.079358 
L 283.118644 76.954783 
L 285.0665 78.343678 
L 286.372881 79.27912 
L 289.627119 81.596835 
L 289.641339 81.607998 
L 292.881356 84.048079 
L 293.972787 84.872318 
L 296.135593 86.502264 
L 298.304274 88.136638 
L 299.389831 88.954741 
L 302.635761 91.400958 
L 302.644068 91.407218 
L 304.941689 94.665278 
L 305.898305 97.420434 
L 306.090322 97.929597 
L 307.297818 101.193917 
L 309.152542 104.207673 
L 309.34631 104.458237 
L 312.017063 107.722557 
L 312.40678 108.093342 
L 315.661017 110.684046 
L 316.566581 110.986877 
L 318.915254 111.734253 
L 321.28942 114.251197 
L 322.169492 115.614714 
L 323.267812 117.515517 
L 325.423729 120.439779 
L 325.679354 120.779837 
L 328.677966 123.122486 
L 331.932203 123.532056 
L 335.186441 121.734436 
L 336.138092 120.779837 
L 336.746956 117.515517 
L 336.746956 114.251197 
L 338.440678 112.786854 
L 340.235095 110.986877 
L 340.235095 107.722557 
L 341.694915 106.435246 
L 343.665817 104.458237 
L 343.665817 101.193917 
L 343.828479 97.929597 
L 344.949153 96.900853 
L 347.177823 94.665278 
L 347.177823 91.400958 
L 348.20339 90.430471 
L 350.490138 88.136638 
L 350.490138 84.872318 
L 350.538698 81.607998 
L 351.457627 80.686221 
L 353.792935 78.343678 
L 353.800929 75.079358 
L 354.711864 74.177072 
L 357.066602 71.815038 
L 357.066602 68.550718 
L 357.066602 65.286398 
L 357.966102 64.409497 
L 360.346146 62.022078 
L 360.341156 58.757758 
L 361.220339 57.875851 
L 363.595393 55.493439 
L 363.582988 52.229119 
L 363.582988 48.964799 
L 364.474576 48.071754 
L 366.838528 45.700479 
L 366.838528 42.436159 
L 367.728814 41.535398 
L 370.085072 39.171839 
L 370.084502 35.907519 
L 370.084502 32.643199 
L 370.983051 31.753723 
L 373.350559 29.378879 
L 373.350559 26.114559 
L 374.237288 25.221952 
L 376.601675 22.850239 
L 376.601675 19.585919 
L 376.608357 16.3216 
L 377.491525 15.435695 
L 379.862595 13.05728 
L 379.839685 9.79296 
L 380.745763 8.917392 
L 383.127137 6.52864 
L 383.127137 3.26432 
L 383.127137 0 
M 312.478363 152.434372 
L 313.202108 153.423036 
L 314.111007 156.687356 
L 315.661017 158.072005 
L 317.534882 159.951676 
L 318.915254 160.338128 
L 319.300512 159.951676 
L 319.300512 157.615703 
M 302.644068 145.326903 
L 305.898305 145.737376 
L 306.805668 143.630076 
L 305.898305 142.156169 
L 304.142263 140.365756 
L 302.644068 139.438961 
L 301.062919 140.365756 
L 301.32034 143.630076 
L 302.644068 145.326903 
z
" clip-path="url(#p9ee2ee9168)" style="fill: none"/>
    <path d="M 174.061685 0 
L 175.728814 1.72211 
L 177.571972 3.26432 
L 178.983051 4.732192 
L 181.15851 6.52864 
L 182.237288 7.661736 
L 185.491525 10.598602 
L 193.384316 16.852684 
M 208.382508 28.855263 
L 213.198584 32.643199 
L 218.033898 36.144048 
L 221.288136 37.971983 
L 224.542373 39.494123 
L 227.79661 40.646637 
L 231.050847 41.399414 
L 234.305085 40.800681 
L 235.127856 39.171839 
L 237.559322 38.083992 
L 240.815736 39.171839 
L 247.60024 42.436159 
L 250.576271 44.252306 
L 257.503294 48.964799 
L 263.59322 53.541672 
L 270.475965 58.757758 
L 276.610169 63.403127 
L 287.186247 71.815038 
L 305.898305 87.383224 
L 306.460153 88.136638 
L 312.105089 97.929597 
L 312.40678 98.392271 
L 315.747433 101.193917 
L 318.915254 104.508042 
L 322.728045 107.722557 
L 325.685077 110.986877 
L 328.677966 114.83419 
L 331.932203 116.958437 
L 335.186441 120.222757 
L 335.900094 117.515517 
L 335.900094 114.251197 
L 338.440678 112.054682 
L 339.505185 110.986877 
L 339.505185 107.722557 
L 341.694915 105.79159 
L 343.02415 104.458237 
L 343.02415 101.193917 
L 343.268142 97.929597 
L 346.66504 94.665278 
L 346.66504 91.400958 
L 350.006394 88.136638 
L 350.079233 81.607998 
L 353.33347 78.343678 
L 353.345461 75.079358 
L 356.616852 71.815038 
L 356.616852 65.286398 
L 359.90905 62.022078 
L 359.901564 58.757758 
L 363.155802 55.493439 
L 363.137194 48.964799 
L 366.393385 45.700479 
L 366.393385 42.436159 
L 369.636082 39.171839 
L 369.635227 32.643199 
L 372.907194 29.378879 
L 372.907194 26.114559 
L 376.156751 22.850239 
L 376.166773 16.3216 
L 379.42101 13.05728 
L 379.386646 9.79296 
L 382.690706 6.52864 
L 382.690706 0 
L 382.690706 0 
" clip-path="url(#p9ee2ee9168)" style="fill: none"/>
    <path d="M 181.815853 -0 
L 185.895071 3.26432 
L 190.432314 6.52864 
L 195.254237 9.921439 
L 198.508475 11.615864 
L 201.871157 13.05728 
L 205.016949 14.629899 
L 208.271186 15.566562 
L 209.780493 13.05728 
L 211.525424 11.892868 
L 214.779661 12.100394 
L 221.288136 13.901927 
L 224.542373 15.623126 
L 235.381533 22.850239 
L 237.559322 24.198347 
L 240.813559 26.374723 
L 250.576271 33.554188 
L 257.191918 39.171839 
L 264.860317 45.700479 
L 270.101695 50.135661 
L 273.355932 52.990582 
L 280.684503 59.142113 
M 295.301791 71.429639 
L 307.317502 81.607998 
L 309.152542 83.828262 
L 313.929084 91.400958 
L 315.661017 93.817018 
L 317.091426 94.665278 
L 318.915254 95.462168 
L 321.761835 97.929597 
L 325.423729 102.599146 
L 327.097429 104.458237 
L 328.677966 106.019313 
L 330.675684 107.722557 
L 331.932203 109.610806 
L 335.186441 110.152933 
L 336.017809 110.986877 
L 338.440678 111.322511 
L 338.775275 110.986877 
L 338.775275 107.722557 
L 342.382482 104.458237 
L 342.382482 101.193917 
L 342.707805 97.929597 
L 346.152256 94.665278 
L 346.152256 91.400958 
L 349.52265 88.136638 
L 349.619768 81.607998 
L 352.874005 78.343678 
L 352.889993 75.079358 
L 356.167102 71.815038 
L 356.167102 65.286398 
L 359.471954 62.022078 
L 359.461973 58.757758 
L 362.71621 55.493439 
L 362.6914 48.964799 
L 365.948242 45.700479 
L 365.948242 42.436159 
L 369.187093 39.171839 
L 369.185953 32.643199 
L 372.46383 29.378879 
L 372.46383 26.114559 
L 375.711826 22.850239 
L 375.725189 16.3216 
L 378.979426 13.05728 
L 378.933607 9.79296 
L 382.254274 6.52864 
L 382.254274 0 
L 382.254274 0 
" clip-path="url(#p9ee2ee9168)" style="fill: none"/>
    <path d="M 220.562894 0 
L 221.288136 0.487837 
L 224.542373 2.615088 
L 225.383832 3.26432 
L 227.79661 5.022604 
L 229.716584 6.52864 
L 231.050847 7.576157 
L 233.877634 9.79296 
L 234.305085 10.128466 
L 237.559322 12.639523 
L 238.069256 13.05728 
L 240.813559 15.181369 
L 242.286727 16.3216 
L 244.067797 17.700147 
L 246.504198 19.585919 
L 247.322034 20.218924 
L 250.576271 22.733579 
L 250.721669 22.850239 
L 253.830508 25.256479 
L 254.881304 26.114559 
L 257.084746 27.975385 
L 258.685891 29.378879 
L 258.952905 29.612932 
M 273.295061 42.224898 
L 273.355932 42.279108 
L 273.528078 42.436159 
L 276.610169 45.221593 
L 277.134595 45.700479 
L 279.864407 48.170063 
L 280.733923 48.964799 
L 283.118644 51.091822 
L 284.343874 52.229119 
L 286.372881 53.985325 
L 287.987654 55.493439 
L 289.627119 56.926871 
L 291.583608 58.757758 
L 292.881356 59.902068 
L 295.300114 62.022078 
L 296.135593 62.758239 
L 299.022222 65.286398 
L 299.389831 65.610068 
L 302.644068 68.459535 
L 302.746453 68.550718 
L 305.898305 71.320975 
L 306.460424 71.815038 
L 309.152542 74.181221 
L 310.020877 75.079358 
L 312.40678 77.953382 
L 312.693799 78.343678 
L 314.958523 81.607998 
L 315.661017 82.625107 
L 317.331954 84.872318 
L 318.915254 86.629159 
L 321.444535 88.136638 
L 322.169492 88.569 
L 325.423729 91.105876 
L 325.751608 91.400958 
L 328.475252 94.665278 
L 328.677966 94.955037 
L 330.428778 97.929597 
L 331.932203 99.616034 
L 335.186441 100.763533 
L 336.456 101.193917 
L 337.869238 104.458237 
L 338.440678 104.839073 
L 341.694915 104.504278 
L 341.740814 104.458237 
L 341.740814 101.193917 
L 342.147468 97.929597 
L 344.949153 95.357737 
L 345.639473 94.665278 
L 345.639473 91.400958 
L 348.20339 88.974742 
L 349.038905 88.136638 
L 349.038905 84.872318 
L 349.160303 81.607998 
L 351.457627 79.303556 
L 352.414541 78.343678 
L 352.434525 75.079358 
L 354.711864 72.823642 
L 355.717353 71.815038 
L 355.717353 68.550718 
L 355.717353 65.286398 
L 357.966102 63.094145 
L 359.034857 62.022078 
L 359.022381 58.757758 
L 361.220339 56.552991 
L 362.276618 55.493439 
L 362.245605 52.229119 
L 362.245605 48.964799 
L 364.474576 46.732188 
L 365.503099 45.700479 
L 365.503099 42.436159 
L 367.728814 40.184256 
L 368.738103 39.171839 
L 368.736678 35.907519 
L 368.736678 32.643199 
L 370.983051 30.419508 
L 372.020465 29.378879 
L 372.020465 26.114559 
L 374.237288 23.883042 
L 375.266901 22.850239 
L 375.266901 19.585919 
L 375.283605 16.3216 
L 377.491525 14.106838 
L 378.537842 13.05728 
L 378.480568 9.79296 
L 380.745763 7.604042 
L 381.817843 6.52864 
L 381.817843 3.26432 
L 381.817843 0 
" clip-path="url(#p9ee2ee9168)" style="fill: none"/>
    <path d="M 242.655467 0 
L 243.684901 0.987284 
M 257.468499 14.215321 
L 259.647827 16.3216 
L 260.338983 16.999323 
L 262.910486 19.585919 
L 263.59322 20.261133 
L 266.167338 22.850239 
L 266.847458 23.523026 
L 269.424103 26.114559 
L 270.101695 26.784998 
L 272.683745 29.378879 
L 273.355932 30.044107 
L 275.982215 32.643199 
L 276.610169 33.264652 
L 279.280686 35.907519 
L 279.864407 36.485196 
L 282.579156 39.171839 
L 283.118644 39.705741 
L 285.886629 42.436159 
L 286.372881 42.908147 
L 289.35742 45.700479 
L 289.627119 45.95253 
L 292.846477 48.964799 
L 292.881356 48.996964 
L 296.135593 52.042132 
L 296.335451 52.229119 
L 299.389831 55.086793 
L 299.824467 55.493439 
L 302.644068 58.097543 
L 303.349074 58.757758 
L 305.898305 61.111031 
L 306.870176 62.022078 
L 309.152542 64.131563 
L 310.396413 65.286398 
L 312.40678 67.145142 
L 313.677594 68.550718 
L 315.661017 70.977853 
L 316.333598 71.815038 
L 318.915254 74.932373 
L 319.061526 75.079358 
L 322.10497 78.343678 
L 322.169492 78.404442 
L 325.423729 80.287423 
L 327.455554 81.607998 
L 328.677966 82.389483 
L 331.398069 84.872318 
L 331.932203 85.560092 
L 333.322929 88.136638 
L 335.186441 90.99581 
L 336.139973 91.400958 
L 338.440678 92.168945 
L 341.694915 93.499406 
L 342.857186 94.665278 
L 344.949153 94.843365 
L 345.12669 94.665278 
L 345.12669 91.400958 
L 348.20339 88.489499 
L 348.555161 88.136638 
L 348.555161 84.872318 
L 348.700839 81.607998 
L 351.457627 78.842668 
L 351.955076 78.343678 
L 351.979057 75.079358 
L 354.711864 72.372498 
L 355.267603 71.815038 
L 355.267603 68.550718 
L 355.267603 65.286398 
L 357.966102 62.655695 
L 358.597761 62.022078 
L 358.582789 58.757758 
L 361.220339 56.112037 
L 361.837027 55.493439 
L 361.799811 52.229119 
L 361.799811 48.964799 
L 364.474576 46.285666 
L 365.057956 45.700479 
L 365.057956 42.436159 
L 367.728814 39.733875 
L 368.289114 39.171839 
L 368.287404 35.907519 
L 368.287404 32.643199 
L 370.983051 29.974769 
L 371.5771 29.378879 
L 371.5771 26.114559 
L 374.237288 23.436738 
L 374.821976 22.850239 
L 374.821976 19.585919 
L 374.842021 16.3216 
L 377.491525 13.663886 
L 378.096258 13.05728 
L 378.027529 9.79296 
L 380.745763 7.166258 
L 381.381411 6.52864 
L 381.381411 3.26432 
L 381.381411 0 
" clip-path="url(#p9ee2ee9168)" style="fill: none"/>
    <path d="M 275.465923 0 
L 276.610169 1.450573 
L 278.175418 3.26432 
L 279.864407 5.459927 
L 280.717152 6.52864 
L 283.118644 9.685273 
L 283.200569 9.79296 
L 285.374459 13.05728 
L 286.372881 14.558838 
L 287.53306 16.3216 
L 289.627119 19.543104 
L 289.655179 19.585919 
L 291.54327 22.850239 
L 292.881356 25.170608 
L 293.469061 26.114559 
L 295.798601 29.378879 
L 296.135593 29.783318 
L 298.39471 32.643199 
L 299.389831 33.825421 
L 301.019015 35.907519 
L 302.644068 37.813374 
L 303.129817 38.426657 
M 315.915122 52.619671 
L 318.787135 55.493439 
L 318.915254 55.623008 
L 321.948587 58.757758 
L 322.169492 59.007492 
L 325.077302 62.022078 
L 325.423729 62.384411 
L 328.677966 62.71723 
L 331.932203 62.025612 
L 334.940964 65.286398 
L 335.186441 65.676044 
L 337.11807 68.550718 
L 338.440678 70.013649 
L 341.152507 71.815038 
L 341.694915 72.208372 
L 343.322086 75.079358 
L 344.949153 77.441708 
L 345.645872 78.343678 
L 347.446603 81.607998 
L 348.20339 82.367129 
L 348.241374 81.607998 
L 351.457627 78.38178 
L 351.495611 78.343678 
L 351.523589 75.079358 
L 354.711864 71.921355 
L 354.817853 71.815038 
L 354.817853 68.550718 
L 354.817853 65.286398 
L 357.966102 62.217244 
L 358.160665 62.022078 
L 358.143198 58.757758 
L 361.220339 55.671083 
L 361.397435 55.493439 
L 361.354017 52.229119 
L 361.354017 48.964799 
L 364.474576 45.839144 
L 364.612813 45.700479 
L 364.612813 42.436159 
L 367.728814 39.283495 
L 367.840124 39.171839 
L 367.838129 35.907519 
L 367.838129 32.643199 
L 370.983051 29.530031 
L 371.133736 29.378879 
L 371.133736 26.114559 
L 374.237288 22.990435 
L 374.377051 22.850239 
L 374.377051 19.585919 
L 374.400437 16.3216 
L 377.491525 13.220934 
L 377.654674 13.05728 
L 377.574489 9.79296 
L 380.745763 6.728474 
L 380.94498 6.52864 
L 380.94498 3.26432 
L 380.94498 0 
" clip-path="url(#p9ee2ee9168)" style="fill: none"/>
    <path clip-path="url(#p9ee2ee9168)" style="fill: none"/>
    <path clip-path="url(#p9ee2ee9168)" style="fill: none"/>
    <path clip-path="url(#p9ee2ee9168)" style="fill: none"/>
    <path clip-path="url(#p9ee2ee9168)" style="fill: none"/>
    <path clip-path="url(#p9ee2ee9168)" style="fill: none"/>
    <path clip-path="url(#p9ee2ee9168)" style="fill: none"/>
    <path clip-path="url(#p9ee2ee9168)" style="fill: none"/>
    <path clip-path="url(#p9ee2ee9168)" style="fill: none"/>
    <path clip-path="url(#p9ee2ee9168)" style="fill: none"/>
    <path clip-path="url(#p9ee2ee9168)" style="fill: none"/>
    <path clip-path="url(#p9ee2ee9168)" style="fill: none"/>
    <path clip-path="url(#p9ee2ee9168)" style="fill: none"/>
    <path clip-path="url(#p9ee2ee9168)" style="fill: none"/>
    <path clip-path="url(#p9ee2ee9168)" style="fill: none"/>
    <path clip-path="url(#p9ee2ee9168)" style="fill: none"/>
    <path clip-path="url(#p9ee2ee9168)" style="fill: none"/>
    <path clip-path="url(#p9ee2ee9168)" style="fill: none"/>
    <path clip-path="url(#p9ee2ee9168)" style="fill: none"/>
    <path clip-path="url(#p9ee2ee9168)" style="fill: none"/>
    <path clip-path="url(#p9ee2ee9168)" style="fill: none"/>
    <path clip-path="url(#p9ee2ee9168)" style="fill: none"/>
    <path clip-path="url(#p9ee2ee9168)" style="fill: none"/>
    <path clip-path="url(#p9ee2ee9168)" style="fill: none"/>
    <path clip-path="url(#p9ee2ee9168)" style="fill: none"/>
    <path clip-path="url(#p9ee2ee9168)" style="fill: none"/>
    <path clip-path="url(#p9ee2ee9168)" style="fill: none"/>
    <path clip-path="url(#p9ee2ee9168)" style="fill: none"/>
    <path clip-path="url(#p9ee2ee9168)" style="fill: none"/>
    <path clip-path="url(#p9ee2ee9168)" style="fill: none"/>
    <path clip-path="url(#p9ee2ee9168)" style="fill: none"/>
    <path clip-path="url(#p9ee2ee9168)" style="fill: none"/>
   </g>
   <g id="text_1">
    <g clip-path="url(#p9ee2ee9168)">
     <!-- 0 -->
     <g style="opacity: 0" transform="translate(201.029322 74.584701) rotate(-313.444694) scale(0.12 -0.12)">
      <defs>
       <path id="DejaVuSans-30" d="M 2034 4250 
Q 1547 4250 1301 3770 
Q 1056 3291 1056 2328 
Q 1056 1369 1301 889 
Q 1547 409 2034 409 
Q 2525 409 2770 889 
Q 3016 1369 3016 2328 
Q 3016 3291 2770 3770 
Q 2525 4250 2034 4250 
z
M 2034 4750 
Q 2819 4750 3233 4129 
Q 3647 3509 3647 2328 
Q 3647 1150 3233 529 
Q 2819 -91 2034 -91 
Q 1250 -91 836 529 
Q 422 1150 422 2328 
Q 422 3509 836 4129 
Q 1250 4750 2034 4750 
z
" transform="scale(0.015625)"/>
      </defs>
      <use xlink:href="#DejaVuSans-30"/>
     </g>
    </g>
   </g>
   <g id="text_2">
    <g clip-path="url(#p9ee2ee9168)">
     <!-- 1 -->
     <g style="opacity: 0" transform="translate(232.523757 91.102832) rotate(-314.235829) scale(0.12 -0.12)">
      <defs>
       <path id="DejaVuSans-31" d="M 794 531 
L 1825 531 
L 1825 4091 
L 703 3866 
L 703 4441 
L 1819 4666 
L 2450 4666 
L 2450 531 
L 3481 531 
L 3481 0 
L 794 0 
L 794 531 
z
" transform="scale(0.015625)"/>
      </defs>
      <use xlink:href="#DejaVuSans-31"/>
     </g>
    </g>
   </g>
   <g id="text_3">
    <g clip-path="url(#p9ee2ee9168)">
     <!-- 1 -->
     <g style="opacity: 0" transform="translate(281.468084 112.690821) rotate(-305.128999) scale(0.12 -0.12)">
      <use xlink:href="#DejaVuSans-31"/>
     </g>
    </g>
   </g>
   <g id="text_4">
    <g clip-path="url(#p9ee2ee9168)">
     <!-- 2 -->
     <g style="opacity: 0" transform="translate(246.83593 90.941872) rotate(-313.84981) scale(0.12 -0.12)">
      <defs>
       <path id="DejaVuSans-32" d="M 1228 531 
L 3431 531 
L 3431 0 
L 469 0 
L 469 531 
Q 828 903 1448 1529 
Q 2069 2156 2228 2338 
Q 2531 2678 2651 2914 
Q 2772 3150 2772 3378 
Q 2772 3750 2511 3984 
Q 2250 4219 1831 4219 
Q 1534 4219 1204 4116 
Q 875 4013 500 3803 
L 500 4441 
Q 881 4594 1212 4672 
Q 1544 4750 1819 4750 
Q 2544 4750 2975 4387 
Q 3406 4025 3406 3419 
Q 3406 3131 3298 2873 
Q 3191 2616 2906 2266 
Q 2828 2175 2409 1742 
Q 1991 1309 1228 531 
z
" transform="scale(0.015625)"/>
      </defs>
      <use xlink:href="#DejaVuSans-32"/>
     </g>
    </g>
   </g>
   <g id="text_5">
    <g clip-path="url(#p9ee2ee9168)">
     <!-- 2 -->
     <g style="opacity: 0" transform="translate(310.715342 151.380472) rotate(-330.918142) scale(0.12 -0.12)">
      <use xlink:href="#DejaVuSans-32"/>
     </g>
    </g>
   </g>
   <g id="text_6">
    <g clip-path="url(#p9ee2ee9168)">
     <!-- 3 -->
     <g style="opacity: 0" transform="translate(195.837505 23.066426) rotate(-321.513906) scale(0.12 -0.12)">
      <defs>
       <path id="DejaVuSans-33" d="M 2597 2516 
Q 3050 2419 3304 2112 
Q 3559 1806 3559 1356 
Q 3559 666 3084 287 
Q 2609 -91 1734 -91 
Q 1441 -91 1130 -33 
Q 819 25 488 141 
L 488 750 
Q 750 597 1062 519 
Q 1375 441 1716 441 
Q 2309 441 2620 675 
Q 2931 909 2931 1356 
Q 2931 1769 2642 2001 
Q 2353 2234 1838 2234 
L 1294 2234 
L 1294 2753 
L 1863 2753 
Q 2328 2753 2575 2939 
Q 2822 3125 2822 3475 
Q 2822 3834 2567 4026 
Q 2313 4219 1838 4219 
Q 1578 4219 1281 4162 
Q 984 4106 628 3988 
L 628 4550 
Q 988 4650 1302 4700 
Q 1616 4750 1894 4750 
Q 2613 4750 3031 4423 
Q 3450 4097 3450 3541 
Q 3450 3153 3228 2886 
Q 3006 2619 2597 2516 
z
" transform="scale(0.015625)"/>
      </defs>
      <use xlink:href="#DejaVuSans-33"/>
     </g>
    </g>
   </g>
   <g id="text_7">
    <g clip-path="url(#p9ee2ee9168)">
     <!-- 4 -->
     <g style="opacity: 0" transform="translate(282.939983 65.384122) rotate(-320.170104) scale(0.12 -0.12)">
      <defs>
       <path id="DejaVuSans-34" d="M 2419 4116 
L 825 1625 
L 2419 1625 
L 2419 4116 
z
M 2253 4666 
L 3047 4666 
L 3047 1625 
L 3713 1625 
L 3713 1100 
L 3047 1100 
L 3047 0 
L 2419 0 
L 2419 1100 
L 313 1100 
L 313 1709 
L 2253 4666 
z
" transform="scale(0.015625)"/>
      </defs>
      <use xlink:href="#DejaVuSans-34"/>
     </g>
    </g>
   </g>
   <g id="text_8">
    <g clip-path="url(#p9ee2ee9168)">
     <!-- 5 -->
     <g style="opacity: 0" transform="translate(261.080471 35.897402) rotate(-318.947345) scale(0.12 -0.12)">
      <defs>
       <path id="DejaVuSans-35" d="M 691 4666 
L 3169 4666 
L 3169 4134 
L 1269 4134 
L 1269 2991 
Q 1406 3038 1543 3061 
Q 1681 3084 1819 3084 
Q 2600 3084 3056 2656 
Q 3513 2228 3513 1497 
Q 3513 744 3044 326 
Q 2575 -91 1722 -91 
Q 1428 -91 1123 -41 
Q 819 9 494 109 
L 494 744 
Q 775 591 1075 516 
Q 1375 441 1709 441 
Q 2250 441 2565 725 
Q 2881 1009 2881 1497 
Q 2881 1984 2565 2268 
Q 2250 2553 1709 2553 
Q 1456 2553 1204 2497 
Q 953 2441 691 2322 
L 691 4666 
z
" transform="scale(0.015625)"/>
      </defs>
      <use xlink:href="#DejaVuSans-35"/>
     </g>
    </g>
   </g>
   <g id="text_9">
    <g clip-path="url(#p9ee2ee9168)">
     <!-- 6 -->
     <g style="opacity: 0" transform="translate(245.528327 7.365234) rotate(-316.379408) scale(0.12 -0.12)">
      <defs>
       <path id="DejaVuSans-36" d="M 2113 2584 
Q 1688 2584 1439 2293 
Q 1191 2003 1191 1497 
Q 1191 994 1439 701 
Q 1688 409 2113 409 
Q 2538 409 2786 701 
Q 3034 994 3034 1497 
Q 3034 2003 2786 2293 
Q 2538 2584 2113 2584 
z
M 3366 4563 
L 3366 3988 
Q 3128 4100 2886 4159 
Q 2644 4219 2406 4219 
Q 1781 4219 1451 3797 
Q 1122 3375 1075 2522 
Q 1259 2794 1537 2939 
Q 1816 3084 2150 3084 
Q 2853 3084 3261 2657 
Q 3669 2231 3669 1497 
Q 3669 778 3244 343 
Q 2819 -91 2113 -91 
Q 1303 -91 875 529 
Q 447 1150 447 2328 
Q 447 3434 972 4092 
Q 1497 4750 2381 4750 
Q 2619 4750 2861 4703 
Q 3103 4656 3366 4563 
z
" transform="scale(0.015625)"/>
      </defs>
      <use xlink:href="#DejaVuSans-36"/>
     </g>
    </g>
   </g>
   <g id="text_10">
    <g clip-path="url(#p9ee2ee9168)">
     <!-- 7 -->
     <g style="opacity: 0" transform="translate(304.315483 45.063627) rotate(-311.822257) scale(0.12 -0.12)">
      <defs>
       <path id="DejaVuSans-37" d="M 525 4666 
L 3525 4666 
L 3525 4397 
L 1831 0 
L 1172 0 
L 2766 4134 
L 525 4134 
L 525 4666 
z
" transform="scale(0.015625)"/>
      </defs>
      <use xlink:href="#DejaVuSans-37"/>
     </g>
    </g>
   </g>
  </g>
 </g>
 <defs>
  <clipPath id="p9ee2ee9168">
   <rect x="0" y="0" width="576" height="812.815659"/>
  </clipPath>
 </defs>
</svg>
