<?xml version="1.0" encoding="utf-8" standalone="no"?>
<!DOCTYPE svg PUBLIC "-//W3C//DTD SVG 1.1//EN"
  "http://www.w3.org/Graphics/SVG/1.1/DTD/svg11.dtd">
<svg xmlns:xlink="http://www.w3.org/1999/xlink" width="576pt" height="821.133661pt" viewBox="0 0 576 821.133661" xmlns="http://www.w3.org/2000/svg" version="1.1">
 <metadata>
  <rdf:RDF xmlns:dc="http://purl.org/dc/elements/1.1/" xmlns:cc="http://creativecommons.org/ns#" xmlns:rdf="http://www.w3.org/1999/02/22-rdf-syntax-ns#">
   <cc:Work>
    <dc:type rdf:resource="http://purl.org/dc/dcmitype/StillImage"/>
    <dc:date>2025-07-25T22:46:10.819055</dc:date>
    <dc:format>image/svg+xml</dc:format>
    <dc:creator>
     <cc:Agent>
      <dc:title>Matplotlib v3.10.3, https://matplotlib.org/</dc:title>
     </cc:Agent>
    </dc:creator>
   </cc:Work>
  </rdf:RDF>
 </metadata>
 <defs>
  <style type="text/css">*{stroke-linejoin: round; stroke-linecap: butt}</style>
 </defs>
 <g id="figure_1">
  <g id="patch_1">
   <path d="M 0 821.133661 
L 576 821.133661 
L 576 0 
L 0 0 
L 0 821.133661 
z
" style="fill: none; opacity: 0"/>
  </g>
  <g id="axes_1">
   <g id="QuadContourSet_1">
    <path d="M 2.402035 161.588552 
L 3.291429 160.974257 
L 6.582857 160.35953 
L 9.537748 161.588552 
L 9.874286 161.627722 
L 9.936272 161.588552 
L 13.165714 159.576393 
L 16.457143 159.31118 
L 17.773602 161.588552 
L 19.748571 163.405691 
L 21.562241 161.588552 
L 19.748571 158.547999 
L 19.02214 158.290826 
L 19.748571 157.846977 
L 23.04 156.83254 
L 26.331429 155.739524 
L 28.108008 154.993101 
L 29.622857 154.443284 
L 32.914286 152.640205 
L 34.295296 151.695375 
L 36.205714 150.388346 
L 39.115413 148.39765 
L 39.497143 148.136486 
L 42.788571 146.84212 
L 46.003828 145.099924 
L 46.08 145.066771 
L 46.201526 145.099924 
L 49.371429 146.465897 
L 52.662857 146.229944 
L 55.954286 145.65548 
L 57.37206 145.099924 
L 59.245714 144.306326 
L 62.537143 143.373417 
L 65.828571 142.35577 
L 66.835603 141.802199 
L 69.12 140.609531 
L 72.173084 138.504473 
L 72.411429 138.340138 
L 75.702857 136.459397 
L 77.506019 135.206747 
L 78.994286 134.304155 
L 82.258693 131.909022 
L 82.285714 131.89143 
L 82.386491 131.909022 
L 83.582379 135.206747 
L 85.577143 135.55593 
L 86.986048 138.504473 
L 88.868571 140.33645 
L 90.69705 138.504473 
L 88.868571 135.7494 
L 86.598597 135.206747 
L 88.868571 133.867442 
L 92.16 133.383192 
L 95.451429 132.463411 
L 96.918396 131.909022 
L 98.742857 131.266878 
L 102.034286 130.214378 
L 105.325714 128.677497 
L 105.409974 128.611296 
L 108.617143 126.420498 
L 110.146115 125.313571 
L 111.908571 124.087622 
L 114.887014 122.015845 
L 115.2 121.798135 
L 118.491429 121.464136 
L 119.49727 122.015845 
L 121.782857 122.547125 
L 125.074286 122.581328 
L 126.480902 125.313571 
L 125.074286 126.722878 
L 123.244504 128.611296 
L 125.074286 130.447169 
L 126.906653 128.611296 
L 128.365714 127.149444 
L 130.198082 125.313571 
L 128.365714 122.522576 
L 126.58726 122.015845 
L 128.365714 121.056712 
L 131.657143 120.330003 
L 134.948571 119.29799 
L 136.504605 118.71812 
L 138.24 118.141064 
L 141.531429 116.708488 
L 143.381101 115.420394 
L 144.822857 114.41637 
L 148.114286 112.125936 
L 148.120282 112.122669 
L 151.405714 110.597201 
L 154.299549 108.824943 
L 154.697143 108.612806 
L 155.563634 108.824943 
L 157.988571 110.095554 
L 161.28 109.924225 
L 164.571429 109.481086 
L 165.9092 112.122669 
L 167.862857 113.980022 
L 169.716664 112.122669 
L 167.862857 109.27867 
L 166.269804 108.824943 
L 167.862857 108.124318 
L 171.154286 107.208481 
L 174.445714 106.230492 
L 176.0415 105.527217 
L 177.737143 104.817528 
L 181.028571 102.607211 
L 181.556056 102.229492 
L 184.32 100.436185 
L 186.345007 98.931766 
L 187.611429 98.071693 
L 190.902857 95.810074 
L 192.706956 98.931766 
L 194.194286 99.182302 
L 195.631194 102.229492 
L 195.631194 105.527217 
L 197.485714 108.824943 
L 199.487335 105.527217 
L 200.777143 104.234943 
L 202.778764 102.229492 
L 204.068571 100.937217 
L 206.070193 98.931766 
L 206.495707 95.634041 
L 207.36 95.320186 
L 210.651429 94.303829 
L 213.942857 93.134613 
L 215.021226 92.336315 
L 217.234286 90.577772 
L 219.171288 89.03859 
L 220.525714 87.962334 
L 223.321349 85.740864 
L 223.817143 85.346896 
L 227.022642 85.740864 
L 227.108571 85.765283 
L 230.4 86.300693 
L 231.689545 89.03859 
L 233.691429 91.068042 
L 235.717006 89.03859 
L 233.691429 86.252678 
L 231.774411 85.740864 
L 233.691429 84.526934 
L 236.982857 83.705219 
L 238.158797 85.740864 
L 240.274286 87.770317 
L 242.299863 85.740864 
L 240.274286 82.531466 
L 240.030882 82.443139 
L 240.274286 82.304726 
L 243.565714 80.979488 
L 246.857143 79.708475 
L 247.904391 79.145413 
L 250.148571 77.966644 
L 252.58355 75.847688 
L 253.44 75.102391 
L 256.3731 72.549962 
L 256.731429 72.238139 
L 260.022857 69.601604 
L 263.314286 69.466 
L 263.569155 69.252236 
L 266.605714 67.116541 
L 268.436129 65.954511 
L 269.897143 64.897391 
L 273.188571 62.990194 
L 273.587616 62.656785 
L 276.48 60.752643 
L 278.596847 59.35906 
L 279.771429 58.585798 
L 283.062857 56.453042 
L 283.508653 56.061334 
L 286.354286 54.105982 
L 288.307806 52.763609 
L 289.645714 51.84427 
L 292.937143 49.631332 
L 293.106933 49.465883 
L 296.228571 47.320984 
L 297.906359 46.168158 
L 299.52 45.059424 
L 302.705768 42.870432 
L 302.811429 42.797832 
L 306.102857 40.603561 
L 307.505181 39.572707 
L 309.394286 38.274684 
L 312.173355 36.274981 
L 312.685714 35.901106 
L 315.977143 33.62403 
L 316.65782 32.977255 
L 319.268571 31.049246 
L 321.126363 29.67953 
L 322.56 28.621262 
L 325.598767 26.381804 
L 325.851429 26.195377 
L 329.142857 23.893226 
L 330.04705 23.084079 
L 332.434286 21.311442 
L 334.488146 19.786353 
L 335.725714 18.8674 
L 338.968865 16.488628 
L 339.017143 16.453417 
L 342.308571 14.174318 
L 343.529743 13.190902 
L 345.6 11.69415 
L 348.091046 9.893177 
L 348.891429 9.321473 
L 352.182857 7.065551 
L 352.652349 6.595451 
L 355.474286 4.578224 
L 357.237767 3.297726 
L 358.765714 2.203037 
L 361.827939 0 
L 359.538545 0 
L 358.765714 0.555993 
L 355.474286 2.800275 
L 354.941069 3.297726 
L 352.182857 5.280544 
L 350.348087 6.595451 
L 348.891429 7.653468 
L 345.755849 9.893177 
L 345.6 10.005852 
L 342.308571 12.310977 
L 341.194546 13.190902 
L 339.017143 14.765119 
L 336.654045 16.488628 
L 335.725714 17.169536 
L 332.434286 19.548676 
L 332.194007 19.786353 
L 329.142857 22.032982 
L 327.717705 23.084079 
L 325.851429 24.458857 
L 323.245287 26.381804 
L 322.56 26.886835 
L 319.268571 29.225194 
L 318.760003 29.67953 
L 315.977143 31.715522 
L 314.252565 32.977255 
L 312.685714 34.123593 
L 309.737441 36.274981 
L 309.394286 36.521902 
L 306.102857 38.729147 
L 304.954289 39.572707 
L 302.811429 41.04511 
L 300.15489 42.870432 
L 299.52 43.306675 
L 296.228571 45.484861 
L 295.355641 46.168158 
L 292.937143 47.830057 
L 290.556549 49.465883 
L 289.645714 50.091774 
L 286.354286 52.263543 
L 285.757429 52.763609 
L 283.062857 54.615195 
L 280.940377 56.061334 
L 279.771429 56.850152 
L 276.48 58.781012 
L 275.540987 59.35906 
L 273.188571 60.571972 
L 270.115164 62.656785 
L 269.897143 62.784013 
L 269.247494 62.656785 
L 266.605714 62.136546 
L 265.998638 62.656785 
L 263.314286 64.684097 
L 261.851684 65.954511 
L 260.022857 67.523755 
L 258.03659 69.252236 
L 256.731429 70.388008 
L 254.247039 72.549962 
L 253.44 73.25226 
L 250.457489 75.847688 
L 250.148571 76.116513 
L 246.857143 77.910868 
L 244.16755 79.145413 
L 243.565714 79.394612 
L 240.274286 80.128151 
L 236.982857 80.560126 
L 235.2954 79.145413 
L 233.906921 75.847688 
L 233.691429 75.798948 
L 233.642842 75.847688 
L 230.4 78.307982 
L 229.380714 79.145413 
L 227.108571 80.928967 
L 225.203044 82.443139 
L 223.817143 83.544404 
L 221.052982 85.740864 
L 220.525714 86.159842 
L 217.234286 88.707246 
L 216.90292 89.03859 
L 213.942857 91.390718 
L 211.79838 92.336315 
L 210.651429 92.767405 
L 207.36 93.577155 
L 204.068571 93.782782 
L 200.777143 93.86105 
L 200.164445 92.336315 
L 197.485714 90.657155 
L 194.194286 91.610753 
L 193.342254 92.336315 
L 190.902857 94.034856 
L 188.606153 95.634041 
L 187.611429 96.36555 
L 184.32 98.504971 
L 183.870052 98.931766 
L 181.028571 100.910277 
L 179.133952 102.229492 
L 177.737143 103.202084 
L 174.445714 104.416339 
L 171.907838 105.527217 
L 171.154286 105.776597 
L 167.862857 106.221415 
L 164.571429 105.700844 
L 164.23576 105.527217 
L 162.965294 102.229492 
L 161.28 101.848705 
L 160.758801 102.229492 
L 157.988571 104.172264 
L 155.680261 105.527217 
L 154.697143 106.17862 
L 151.405714 108.101419 
L 150.571867 108.824943 
L 148.114286 110.536379 
L 145.83641 112.122669 
L 144.822857 112.828497 
L 141.531429 115.003267 
L 140.973816 115.420394 
L 138.24 116.728166 
L 134.948571 117.270466 
L 132.255555 118.71812 
L 131.657143 118.917104 
L 128.365714 118.765169 
L 128.162644 118.71812 
L 126.937524 115.420394 
L 125.074286 114.79015 
L 123.251362 115.420394 
L 121.782857 116.048485 
L 118.491429 117.808633 
L 117.382694 118.71812 
L 115.2 120.236382 
L 112.641796 122.015845 
L 111.908571 122.525869 
L 108.617143 124.663483 
L 107.900897 125.313571 
L 105.325714 127.104845 
L 102.480669 128.611296 
L 102.034286 128.82202 
L 98.742857 129.787457 
L 95.451429 129.97393 
L 92.16 131.895693 
L 90.96888 128.611296 
L 88.868571 126.397283 
L 85.577143 127.624674 
L 84.345136 128.611296 
L 82.285714 130.184559 
L 79.636902 131.909022 
L 78.994286 132.380517 
L 75.702857 134.382188 
L 74.751689 135.206747 
L 72.411429 136.820323 
L 69.968811 138.504473 
L 69.12 139.089716 
L 65.828571 140.665231 
L 63.164443 141.802199 
L 62.537143 142.011883 
L 59.245714 142.58109 
L 55.954286 142.297804 
L 54.825322 141.802199 
L 53.658241 138.504473 
L 52.662857 138.262894 
L 52.335487 138.504473 
L 49.371429 140.558942 
L 47.018583 141.802199 
L 46.08 142.395732 
L 42.788571 144.210439 
L 41.746344 145.099924 
L 39.497143 146.638735 
L 36.926227 148.39765 
L 36.205714 148.890595 
L 32.914286 150.962405 
L 32.040768 151.695375 
L 29.622857 153.084185 
L 26.331429 153.813501 
L 24.363429 154.993101 
L 23.04 155.473441 
L 19.748571 155.559042 
L 17.008579 154.993101 
L 16.457143 153.384326 
L 13.165714 153.587312 
L 9.874286 154.659929 
L 9.524296 154.993101 
L 6.582857 157.024723 
L 4.749758 158.290826 
L 3.291429 159.29808 
L -0 161.562579 
L -0 161.588552 
L -0 163.370732 
z
M 18.634676 161.588552 
L 19.748571 159.873661 
L 20.771492 161.588552 
L 19.748571 162.61343 
z
M 87.803956 138.504473 
L 88.868571 136.946408 
L 89.902624 138.504473 
L 88.868571 139.540503 
z
M 124.038223 128.611296 
L 125.074286 127.542032 
L 126.111813 128.611296 
L 125.074286 129.650808 
z
M 127.298492 125.313571 
L 128.365714 123.733248 
L 129.403241 125.313571 
L 128.365714 126.353083 
z
M 166.755732 112.122669 
L 167.862857 110.510993 
L 168.913398 112.122669 
L 167.862857 113.175219 
z
M 196.434063 105.527217 
L 196.434063 102.229492 
L 197.485714 100.55467 
L 200.777143 100.906436 
L 201.912211 102.229492 
L 200.777143 103.366732 
L 198.620783 105.527217 
L 197.485714 107.397274 
z
M 195.357388 98.931766 
L 197.485714 97.914804 
L 200.777143 97.260621 
L 201.739901 98.931766 
L 200.777143 99.896367 
L 197.485714 99.276051 
z
M 202.748042 98.931766 
L 204.068571 96.537596 
L 205.20364 98.931766 
L 204.068571 100.069007 
z
M 232.555921 89.03859 
L 233.691429 87.458366 
L 234.840376 89.03859 
L 233.691429 90.189735 
z
M 239.074339 85.740864 
L 240.274286 83.92043 
L 241.423233 85.740864 
L 240.274286 86.89201 
z
M 52.662857 153.508636 
L 54.472656 151.695375 
L 52.662857 149.569123 
L 50.847742 151.695375 
z
M 51.637716 151.695375 
L 52.662857 150.49451 
L 53.684995 151.695375 
L 52.662857 152.719469 
z
M 161.28 117.277748 
L 163.133807 115.420394 
L 161.28 113.219305 
L 159.446749 115.420394 
z
M 160.241109 115.420394 
L 161.28 114.173051 
L 162.33054 115.420394 
L 161.28 116.472944 
z
" clip-path="url(#p90cd07a181)" style="fill: #f5f9fe; fill-opacity: 0.9"/>
    <path d="M 19.748571 162.61343 
L 20.771492 161.588552 
L 19.748571 159.873661 
L 18.634676 161.588552 
z
M 19.495751 161.588552 
L 19.748571 161.199323 
L 19.980744 161.588552 
L 19.748571 161.821168 
z
M 3.291429 159.29808 
L 4.749758 158.290826 
L 6.582857 157.024723 
L 9.524296 154.993101 
L 9.874286 154.659929 
L 13.165714 153.587312 
L 16.457143 153.384326 
L 17.008579 154.993101 
L 19.748571 155.559042 
L 23.04 155.473441 
L 24.363429 154.993101 
L 26.331429 153.813501 
L 29.622857 153.084185 
L 32.040768 151.695375 
L 32.914286 150.962405 
L 36.205714 148.890595 
L 36.926227 148.39765 
L 39.497143 146.638735 
L 41.746344 145.099924 
L 42.788571 144.210439 
L 46.08 142.395732 
L 47.018583 141.802199 
L 49.371429 140.558942 
L 52.335487 138.504473 
L 52.662857 138.262894 
L 53.658241 138.504473 
L 54.825322 141.802199 
L 55.954286 142.297804 
L 59.245714 142.58109 
L 62.537143 142.011883 
L 63.164443 141.802199 
L 65.828571 140.665231 
L 69.12 139.089716 
L 69.968811 138.504473 
L 72.411429 136.820323 
L 74.751689 135.206747 
L 75.702857 134.382188 
L 78.994286 132.380517 
L 79.636902 131.909022 
L 82.285714 130.184559 
L 84.345136 128.611296 
L 85.577143 127.624674 
L 88.868571 126.397283 
L 90.96888 128.611296 
L 92.16 131.895693 
L 95.451429 129.97393 
L 98.742857 129.787457 
L 102.034286 128.82202 
L 102.480669 128.611296 
L 105.325714 127.104845 
L 107.900897 125.313571 
L 108.617143 124.663483 
L 111.908571 122.525869 
L 112.641796 122.015845 
L 115.2 120.236382 
L 117.382694 118.71812 
L 118.491429 117.808633 
L 121.782857 116.048485 
L 123.251362 115.420394 
L 125.074286 114.79015 
L 126.937524 115.420394 
L 128.162644 118.71812 
L 128.365714 118.765169 
L 131.657143 118.917104 
L 132.255555 118.71812 
L 134.948571 117.270466 
L 138.24 116.728166 
L 140.973816 115.420394 
L 141.531429 115.003267 
L 144.822857 112.828497 
L 145.83641 112.122669 
L 148.114286 110.536379 
L 150.571867 108.824943 
L 151.405714 108.101419 
L 154.697143 106.17862 
L 155.680261 105.527217 
L 157.988571 104.172264 
L 160.758801 102.229492 
L 161.28 101.848705 
L 162.965294 102.229492 
L 164.23576 105.527217 
L 164.571429 105.700844 
L 167.862857 106.221415 
L 171.154286 105.776597 
L 171.907838 105.527217 
L 174.445714 104.416339 
L 177.737143 103.202084 
L 179.133952 102.229492 
L 181.028571 100.910277 
L 183.870052 98.931766 
L 184.32 98.504971 
L 187.611429 96.36555 
L 188.606153 95.634041 
L 190.902857 94.034856 
L 193.342254 92.336315 
L 194.194286 91.610753 
L 197.485714 90.657155 
L 200.164445 92.336315 
L 200.777143 93.86105 
L 204.068571 93.782782 
L 207.36 93.577155 
L 210.651429 92.767405 
L 211.79838 92.336315 
L 213.942857 91.390718 
L 216.90292 89.03859 
L 217.234286 88.707246 
L 220.525714 86.159842 
L 221.052982 85.740864 
L 223.817143 83.544404 
L 225.203044 82.443139 
L 227.108571 80.928967 
L 229.380714 79.145413 
L 230.4 78.307982 
L 233.642842 75.847688 
L 233.691429 75.798948 
L 233.906921 75.847688 
L 235.2954 79.145413 
L 236.982857 80.560126 
L 240.274286 80.128151 
L 243.565714 79.394612 
L 244.16755 79.145413 
L 246.857143 77.910868 
L 250.148571 76.116513 
L 250.457489 75.847688 
L 253.44 73.25226 
L 254.247039 72.549962 
L 256.731429 70.388008 
L 258.03659 69.252236 
L 260.022857 67.523755 
L 261.851684 65.954511 
L 263.314286 64.684097 
L 265.998638 62.656785 
L 266.605714 62.136546 
L 269.247494 62.656785 
L 269.897143 62.784013 
L 270.115164 62.656785 
L 273.188571 60.571972 
L 275.540987 59.35906 
L 276.48 58.781012 
L 279.771429 56.850152 
L 280.940377 56.061334 
L 283.062857 54.615195 
L 285.757429 52.763609 
L 286.354286 52.263543 
L 289.645714 50.091774 
L 290.556549 49.465883 
L 292.937143 47.830057 
L 295.355641 46.168158 
L 296.228571 45.484861 
L 299.52 43.306675 
L 300.15489 42.870432 
L 302.811429 41.04511 
L 304.954289 39.572707 
L 306.102857 38.729147 
L 309.394286 36.521902 
L 309.737441 36.274981 
L 312.685714 34.123593 
L 314.252565 32.977255 
L 315.977143 31.715522 
L 318.760003 29.67953 
L 319.268571 29.225194 
L 322.56 26.886835 
L 323.245287 26.381804 
L 325.851429 24.458857 
L 327.717705 23.084079 
L 329.142857 22.032982 
L 332.194007 19.786353 
L 332.434286 19.548676 
L 335.725714 17.169536 
L 336.654045 16.488628 
L 339.017143 14.765119 
L 341.194546 13.190902 
L 342.308571 12.310977 
L 345.6 10.005852 
L 345.755849 9.893177 
L 348.891429 7.653468 
L 350.348087 6.595451 
L 352.182857 5.280544 
L 354.941069 3.297726 
L 355.474286 2.800275 
L 358.765714 0.555993 
L 359.538545 0 
L 358.765714 0 
L 356.526076 0 
L 355.474286 0.664444 
L 352.651675 3.297726 
L 352.182857 3.634748 
L 348.891429 4.81043 
L 347.111028 6.595451 
L 345.6 7.418455 
L 343.130917 9.893177 
L 342.308571 10.466495 
L 339.017143 12.59945 
L 338.427541 13.190902 
L 335.725714 14.314739 
L 333.557168 16.488628 
L 332.434286 17.21302 
L 329.832785 19.786353 
L 329.142857 20.294362 
L 325.851429 21.756212 
L 324.527375 23.084079 
L 322.56 24.086427 
L 320.270128 26.381804 
L 319.268571 27.054713 
L 316.33044 29.67953 
L 315.977143 29.938009 
L 312.685714 31.213555 
L 310.92672 32.977255 
L 309.394286 33.850324 
L 306.975556 36.274981 
L 306.102857 36.855709 
L 302.811429 38.446349 
L 301.688821 39.572707 
L 299.52 40.533888 
L 297.189384 42.870432 
L 296.228571 43.48858 
L 292.937143 45.694295 
L 292.46506 46.168158 
L 289.645714 47.23788 
L 287.423523 49.465883 
L 286.354286 50.126815 
L 283.207126 52.763609 
L 283.062857 52.862744 
L 279.771429 53.954188 
L 276.48 54.194687 
L 273.188571 54.23683 
L 271.370158 56.061334 
L 269.897143 56.964517 
L 267.509265 59.35906 
L 266.605714 60.011429 
L 263.518806 62.656785 
L 263.314286 62.811246 
L 260.022857 64.862014 
L 258.934771 65.954511 
L 256.731429 67.41631 
L 254.901527 69.252236 
L 253.44 70.347176 
L 251.243666 72.549962 
L 250.148571 73.426313 
L 247.414752 75.847688 
L 246.857143 76.153969 
L 244.934794 75.847688 
L 243.565714 72.594318 
L 243.547046 72.549962 
L 242.158458 69.252236 
L 240.274286 68.053738 
L 239.082188 69.252236 
L 236.982857 70.359483 
L 234.80051 72.549962 
L 233.691429 73.304485 
L 231.156192 75.847688 
L 230.4 76.421399 
L 227.108571 79.034871 
L 226.998809 79.145413 
L 223.817143 80.593463 
L 221.975305 82.443139 
L 220.525714 83.383501 
L 218.1764 85.740864 
L 217.234286 86.439029 
L 214.634553 89.03859 
L 213.942857 89.588226 
L 210.651429 89.664754 
L 208.947083 89.03859 
L 207.621866 85.740864 
L 207.36 85.089358 
L 204.068571 83.959583 
L 200.777143 84.783904 
L 199.826328 85.740864 
L 197.485714 86.687989 
L 195.143878 89.03859 
L 194.194286 89.63507 
L 191.022198 92.336315 
L 190.902857 92.419412 
L 187.611429 93.478411 
L 185.4646 95.634041 
L 184.32 96.304294 
L 181.549997 98.931766 
L 181.028571 99.294833 
L 177.737143 100.363068 
L 175.366987 102.229492 
L 174.445714 102.522438 
L 172.907833 102.229492 
L 171.637476 98.931766 
L 171.154286 97.677599 
L 170.366946 95.634041 
L 167.862857 94.113744 
L 166.350959 95.634041 
L 164.571429 96.604695 
L 162.253371 98.931766 
L 161.28 99.602173 
L 157.988571 101.404787 
L 157.169545 102.229492 
L 154.697143 103.185777 
L 152.364663 105.527217 
L 151.405714 106.122951 
L 148.29172 108.824943 
L 148.114286 108.948506 
L 144.822857 109.985764 
L 142.695015 112.122669 
L 141.531429 112.793816 
L 138.24 114.700917 
L 135.602894 112.122669 
L 134.948571 110.361385 
L 134.377781 108.824943 
L 131.657143 107.225962 
L 130.066782 108.824943 
L 128.365714 109.770669 
L 125.074286 110.773688 
L 123.733256 112.122669 
L 121.782857 112.973069 
L 119.344442 115.420394 
L 118.491429 115.966899 
L 115.2 118.433899 
L 114.918065 118.71812 
L 111.908571 119.727993 
L 109.62975 122.015845 
L 108.617143 122.62565 
L 105.65568 125.313571 
L 105.325714 125.543092 
L 102.034286 126.073033 
L 99.55132 125.313571 
L 98.742857 123.084273 
L 98.355397 122.015845 
L 95.451429 120.344472 
L 92.16 120.592543 
L 90.745297 122.015845 
L 88.868571 122.821973 
L 86.386137 125.313571 
L 85.577143 125.835375 
L 82.285714 127.910485 
L 81.59021 128.611296 
L 78.994286 129.53147 
L 76.626029 131.909022 
L 75.702857 132.471324 
L 72.547416 135.206747 
L 72.411429 135.300509 
L 69.12 136.275165 
L 66.760879 138.504473 
L 65.828571 138.926909 
L 63.449192 138.504473 
L 62.537143 135.927736 
L 62.281956 135.206747 
L 61.095624 131.909022 
L 59.245714 130.595731 
L 57.941169 131.909022 
L 55.954286 132.915538 
L 53.672941 135.206747 
L 52.662857 135.886699 
L 49.371429 137.784216 
L 48.656941 138.504473 
L 46.08 139.392713 
L 43.680162 141.802199 
L 42.788571 142.342087 
L 39.557158 145.099924 
L 39.497143 145.140984 
L 36.205714 146.094002 
L 33.911874 148.39765 
L 32.914286 148.976937 
L 29.674584 151.695375 
L 29.622857 151.725086 
L 28.702133 151.695375 
L 26.331429 149.876789 
L 25.824326 148.39765 
L 24.694051 145.099924 
L 23.04 143.947315 
L 21.895935 145.099924 
L 19.748571 146.215151 
L 16.867136 148.39765 
L 16.457143 148.648567 
L 13.165714 149.53562 
L 11.016338 151.695375 
L 9.874286 152.349737 
L 7.097481 154.993101 
L 6.582857 155.348546 
L 3.291429 156.36368 
L 1.374652 158.290826 
L -0 159.018853 
L -0 161.562579 
z
M 52.662857 152.719469 
L 53.684995 151.695375 
L 52.662857 150.49451 
L 51.637716 151.695375 
z
M 52.427691 151.695375 
L 52.662857 151.419898 
L 52.897335 151.695375 
L 52.662857 151.930301 
z
M 88.868571 139.540503 
L 89.902624 138.504473 
L 88.868571 136.946408 
L 87.803956 138.504473 
z
M 88.621863 138.504473 
L 88.868571 138.143416 
L 89.108197 138.504473 
L 88.868571 138.744557 
z
M 125.074286 129.650808 
L 126.111813 128.611296 
L 125.074286 127.542032 
L 124.038223 128.611296 
z
M 124.831942 128.611296 
L 125.074286 128.361186 
L 125.316972 128.611296 
L 125.074286 128.854447 
z
M 128.365714 126.353083 
L 129.403241 125.313571 
L 128.365714 123.733248 
L 127.298492 125.313571 
z
M 128.116082 125.313571 
L 128.365714 124.94392 
L 128.608401 125.313571 
L 128.365714 125.556721 
z
M 161.28 116.472944 
L 162.33054 115.420394 
L 161.28 114.173051 
L 160.241109 115.420394 
z
M 161.035468 115.420394 
L 161.28 115.126798 
L 161.527274 115.420394 
L 161.28 115.668141 
z
M 167.862857 113.175219 
L 168.913398 112.122669 
L 167.862857 110.510993 
L 166.755732 112.122669 
z
M 167.602265 112.122669 
L 167.862857 111.743316 
L 168.110131 112.122669 
L 167.862857 112.370415 
z
M 197.485714 107.397274 
L 198.620783 105.527217 
L 200.777143 103.366732 
L 201.912211 102.229492 
L 200.777143 100.906436 
L 197.485714 100.55467 
L 196.434063 102.229492 
L 196.434063 105.527217 
z
M 197.236932 105.527217 
L 197.236932 102.229492 
L 197.485714 101.83329 
L 200.777143 101.916505 
L 201.045659 102.229492 
L 200.777143 102.498522 
L 197.75423 105.527217 
L 197.485714 105.969605 
z
M 204.068571 100.069007 
L 205.20364 98.931766 
L 204.068571 96.537596 
L 202.748042 98.931766 
z
M 203.756182 98.931766 
L 204.068571 98.365393 
L 204.337087 98.931766 
L 204.068571 99.200796 
z
M 233.691429 90.189735 
L 234.840376 89.03859 
L 233.691429 87.458366 
L 232.555921 89.03859 
z
M 233.422297 89.03859 
L 233.691429 88.664054 
L 233.963746 89.03859 
L 233.691429 89.311428 
z
M 240.274286 86.89201 
L 241.423233 85.740864 
L 240.274286 83.92043 
L 239.074339 85.740864 
z
M 239.989881 85.740864 
L 240.274286 85.309395 
L 240.546603 85.740864 
L 240.274286 86.013702 
z
" clip-path="url(#p90cd07a181)" style="fill: #eff6fc; fill-opacity: 0.9"/>
    <path d="M 19.748571 161.821168 
L 19.980744 161.588552 
L 19.748571 161.199323 
L 19.495751 161.588552 
z
M 1.374652 158.290826 
L 3.291429 156.36368 
L 6.582857 155.348546 
L 7.097481 154.993101 
L 9.874286 152.349737 
L 11.016338 151.695375 
L 13.165714 149.53562 
L 16.457143 148.648567 
L 16.867136 148.39765 
L 19.748571 146.215151 
L 21.895935 145.099924 
L 23.04 143.947315 
L 24.694051 145.099924 
L 25.824326 148.39765 
L 26.331429 149.876789 
L 28.702133 151.695375 
L 29.622857 151.725086 
L 29.674584 151.695375 
L 32.914286 148.976937 
L 33.911874 148.39765 
L 36.205714 146.094002 
L 39.497143 145.140984 
L 39.557158 145.099924 
L 42.788571 142.342087 
L 43.680162 141.802199 
L 46.08 139.392713 
L 48.656941 138.504473 
L 49.371429 137.784216 
L 52.662857 135.886699 
L 53.672941 135.206747 
L 55.954286 132.915538 
L 57.941169 131.909022 
L 59.245714 130.595731 
L 61.095624 131.909022 
L 62.281956 135.206747 
L 62.537143 135.927736 
L 63.449192 138.504473 
L 65.828571 138.926909 
L 66.760879 138.504473 
L 69.12 136.275165 
L 72.411429 135.300509 
L 72.547416 135.206747 
L 75.702857 132.471324 
L 76.626029 131.909022 
L 78.994286 129.53147 
L 81.59021 128.611296 
L 82.285714 127.910485 
L 85.577143 125.835375 
L 86.386137 125.313571 
L 88.868571 122.821973 
L 90.745297 122.015845 
L 92.16 120.592543 
L 95.451429 120.344472 
L 98.355397 122.015845 
L 98.742857 123.084273 
L 99.55132 125.313571 
L 102.034286 126.073033 
L 105.325714 125.543092 
L 105.65568 125.313571 
L 108.617143 122.62565 
L 109.62975 122.015845 
L 111.908571 119.727993 
L 114.918065 118.71812 
L 115.2 118.433899 
L 118.491429 115.966899 
L 119.344442 115.420394 
L 121.782857 112.973069 
L 123.733256 112.122669 
L 125.074286 110.773688 
L 128.365714 109.770669 
L 130.066782 108.824943 
L 131.657143 107.225962 
L 134.377781 108.824943 
L 134.948571 110.361385 
L 135.602894 112.122669 
L 138.24 114.700917 
L 141.531429 112.793816 
L 142.695015 112.122669 
L 144.822857 109.985764 
L 148.114286 108.948506 
L 148.29172 108.824943 
L 151.405714 106.122951 
L 152.364663 105.527217 
L 154.697143 103.185777 
L 157.169545 102.229492 
L 157.988571 101.404787 
L 161.28 99.602173 
L 162.253371 98.931766 
L 164.571429 96.604695 
L 166.350959 95.634041 
L 167.862857 94.113744 
L 170.366946 95.634041 
L 171.154286 97.677599 
L 171.637476 98.931766 
L 172.907833 102.229492 
L 174.445714 102.522438 
L 175.366987 102.229492 
L 177.737143 100.363068 
L 181.028571 99.294833 
L 181.549997 98.931766 
L 184.32 96.304294 
L 185.4646 95.634041 
L 187.611429 93.478411 
L 190.902857 92.419412 
L 191.022198 92.336315 
L 194.194286 89.63507 
L 195.143878 89.03859 
L 197.485714 86.687989 
L 199.826328 85.740864 
L 200.777143 84.783904 
L 204.068571 83.959583 
L 207.36 85.089358 
L 207.621866 85.740864 
L 208.947083 89.03859 
L 210.651429 89.664754 
L 213.942857 89.588226 
L 214.634553 89.03859 
L 217.234286 86.439029 
L 218.1764 85.740864 
L 220.525714 83.383501 
L 221.975305 82.443139 
L 223.817143 80.593463 
L 226.998809 79.145413 
L 227.108571 79.034871 
L 230.4 76.421399 
L 231.156192 75.847688 
L 233.691429 73.304485 
L 234.80051 72.549962 
L 236.982857 70.359483 
L 239.082188 69.252236 
L 240.274286 68.053738 
L 242.158458 69.252236 
L 243.547046 72.549962 
L 243.565714 72.594318 
L 244.934794 75.847688 
L 246.857143 76.153969 
L 247.414752 75.847688 
L 250.148571 73.426313 
L 251.243666 72.549962 
L 253.44 70.347176 
L 254.901527 69.252236 
L 256.731429 67.41631 
L 258.934771 65.954511 
L 260.022857 64.862014 
L 263.314286 62.811246 
L 263.518806 62.656785 
L 266.605714 60.011429 
L 267.509265 59.35906 
L 269.897143 56.964517 
L 271.370158 56.061334 
L 273.188571 54.23683 
L 276.48 54.194687 
L 279.771429 53.954188 
L 283.062857 52.862744 
L 283.207126 52.763609 
L 286.354286 50.126815 
L 287.423523 49.465883 
L 289.645714 47.23788 
L 292.46506 46.168158 
L 292.937143 45.694295 
L 296.228571 43.48858 
L 297.189384 42.870432 
L 299.52 40.533888 
L 301.688821 39.572707 
L 302.811429 38.446349 
L 306.102857 36.855709 
L 306.975556 36.274981 
L 309.394286 33.850324 
L 310.92672 32.977255 
L 312.685714 31.213555 
L 315.977143 29.938009 
L 316.33044 29.67953 
L 319.268571 27.054713 
L 320.270128 26.381804 
L 322.56 24.086427 
L 324.527375 23.084079 
L 325.851429 21.756212 
L 329.142857 20.294362 
L 329.832785 19.786353 
L 332.434286 17.21302 
L 333.557168 16.488628 
L 335.725714 14.314739 
L 338.427541 13.190902 
L 339.017143 12.59945 
L 342.308571 10.466495 
L 343.130917 9.893177 
L 345.6 7.418455 
L 347.111028 6.595451 
L 348.891429 4.81043 
L 352.182857 3.634748 
L 352.651675 3.297726 
L 355.474286 0.664444 
L 356.526076 0 
L 355.474286 0 
L 352.182857 0 
L 348.891429 0 
L 345.6 0 
L 342.308571 0 
L 339.017143 0 
L 335.725714 0 
L 332.434286 0 
L 329.142857 0 
L 325.851429 0 
L 322.56 0 
L 319.268571 0 
L 315.977143 0 
L 312.685714 0 
L 309.394286 0 
L 306.102857 0 
L 302.811429 0 
L 299.52 0 
L 296.228571 0 
L 292.937143 0 
L 289.645714 0 
L 286.354286 0 
L 283.062857 0 
L 279.771429 0 
L 276.48 0 
L 273.188571 0 
L 269.897143 0 
L 266.605714 0 
L 263.314286 0 
L 260.022857 0 
L 256.731429 0 
L 253.44 0 
L 250.148571 0 
L 246.857143 0 
L 243.565714 0 
L 240.274286 0 
L 236.982857 0 
L 233.691429 0 
L 230.4 0 
L 227.108571 0 
L 223.817143 0 
L 220.525714 0 
L 217.234286 0 
L 213.942857 0 
L 210.651429 0 
L 207.36 0 
L 204.068571 0 
L 200.777143 0 
L 197.485714 0 
L 194.194286 0 
L 190.902857 0 
L 187.611429 0 
L 184.32 0 
L 181.028571 0 
L 177.737143 0 
L 174.445714 0 
L 171.154286 0 
L 167.862857 0 
L 164.571429 0 
L 161.28 0 
L 157.988571 0 
L 154.697143 0 
L 151.405714 0 
L 148.114286 0 
L 144.822857 0 
L 141.531429 0 
L 138.24 0 
L 134.948571 0 
L 131.657143 0 
L 128.365714 0 
L 125.074286 0 
L 121.782857 0 
L 118.491429 0 
L 115.2 0 
L 111.908571 0 
L 108.617143 0 
L 107.245252 0 
L 105.325714 1.414198 
L 102.769142 3.297726 
L 102.034286 3.839123 
L 98.742857 5.994477 
L 97.968043 6.595451 
L 95.451429 8.154989 
L 92.834956 9.893177 
L 92.16 10.32258 
L 90.522138 9.893177 
L 89.782404 6.595451 
L 88.896581 3.297726 
L 88.868571 3.097336 
L 85.577143 2.154986 
L 84.479749 3.297726 
L 82.285714 4.896049 
L 80.473727 6.595451 
L 78.994286 7.743127 
L 76.180602 9.893177 
L 75.702857 10.26252 
L 72.411429 12.44662 
L 71.69753 13.190902 
L 69.12 15.026954 
L 67.670596 16.488628 
L 65.828571 17.922451 
L 63.423424 19.786353 
L 62.537143 20.464343 
L 59.245714 22.443999 
L 57.128021 23.084079 
L 55.954286 23.394703 
L 55.374407 23.084079 
L 54.650361 19.786353 
L 54.0552 16.488628 
L 52.662857 15.846224 
L 51.432976 16.488628 
L 49.371429 17.545955 
L 46.08 19.099052 
L 45.433653 19.786353 
L 42.788571 21.565339 
L 41.329337 23.084079 
L 39.497143 24.478516 
L 37.218639 26.381804 
L 36.205714 27.169547 
L 32.978235 29.67953 
L 32.914286 29.729262 
L 29.622857 31.899568 
L 28.48165 32.977255 
L 26.331429 34.493393 
L 23.869171 36.274981 
L 23.04 36.847923 
L 19.748571 36.528602 
L 19.620966 36.274981 
L 16.457143 34.917944 
L 13.165714 35.098235 
L 12.021236 36.274981 
L 9.874286 37.637733 
L 6.582857 39.079358 
L 6.123845 39.572707 
L 3.291429 41.030816 
L 0.402256 42.870432 
L -0 43.098771 
L -0 46.168158 
L -0 49.465883 
L -0 52.763609 
L -0 56.061334 
L -0 59.35906 
L -0 62.656785 
L -0 65.954511 
L -0 69.252236 
L -0 72.549962 
L -0 75.847688 
L -0 79.145413 
L -0 82.443139 
L -0 85.740864 
L -0 89.03859 
L -0 92.336315 
L -0 95.634041 
L -0 98.931766 
L -0 102.229492 
L -0 105.527217 
L -0 108.824943 
L -0 112.122669 
L -0 115.420394 
L -0 118.71812 
L -0 122.015845 
L -0 125.313571 
L -0 128.611296 
L -0 131.909022 
L -0 135.206747 
L -0 138.504473 
L -0 141.802199 
L -0 145.099924 
L -0 148.39765 
L -0 151.695375 
L -0 154.993101 
L -0 158.290826 
L -0 159.018853 
z
M 52.662857 151.930301 
L 52.897335 151.695375 
L 52.662857 151.419898 
L 52.427691 151.695375 
z
M 88.868571 138.744557 
L 89.108197 138.504473 
L 88.868571 138.143416 
L 88.621863 138.504473 
z
M 125.074286 128.854447 
L 125.316972 128.611296 
L 125.074286 128.361186 
L 124.831942 128.611296 
z
M 128.365714 125.556721 
L 128.608401 125.313571 
L 128.365714 124.94392 
L 128.116082 125.313571 
z
M 161.28 115.668141 
L 161.527274 115.420394 
L 161.28 115.126798 
L 161.035468 115.420394 
z
M 167.862857 112.370415 
L 168.110131 112.122669 
L 167.862857 111.743316 
L 167.602265 112.122669 
z
M 197.485714 105.969605 
L 197.75423 105.527217 
L 200.777143 102.498522 
L 201.045659 102.229492 
L 200.777143 101.916505 
L 197.485714 101.83329 
L 197.236932 102.229492 
L 197.236932 105.527217 
z
M 204.068571 99.200796 
L 204.337087 98.931766 
L 204.068571 98.365393 
L 203.756182 98.931766 
z
M 233.691429 89.311428 
L 233.963746 89.03859 
L 233.691429 88.664054 
L 233.422297 89.03859 
z
M 240.274286 86.013702 
L 240.546603 85.740864 
L 240.274286 85.309395 
L 239.989881 85.740864 
z
" clip-path="url(#p90cd07a181)" style="fill: #eaf3fb; fill-opacity: 0.9"/>
    <path d="M 0.402256 42.870432 
L 3.291429 41.030816 
L 6.123845 39.572707 
L 6.582857 39.079358 
L 9.874286 37.637733 
L 12.021236 36.274981 
L 13.165714 35.098235 
L 16.457143 34.917944 
L 19.620966 36.274981 
L 19.748571 36.528602 
L 23.04 36.847923 
L 23.869171 36.274981 
L 26.331429 34.493393 
L 28.48165 32.977255 
L 29.622857 31.899568 
L 32.914286 29.729262 
L 32.978235 29.67953 
L 36.205714 27.169547 
L 37.218639 26.381804 
L 39.497143 24.478516 
L 41.329337 23.084079 
L 42.788571 21.565339 
L 45.433653 19.786353 
L 46.08 19.099052 
L 49.371429 17.545955 
L 51.432976 16.488628 
L 52.662857 15.846224 
L 54.0552 16.488628 
L 54.650361 19.786353 
L 55.374407 23.084079 
L 55.954286 23.394703 
L 57.128021 23.084079 
L 59.245714 22.443999 
L 62.537143 20.464343 
L 63.423424 19.786353 
L 65.828571 17.922451 
L 67.670596 16.488628 
L 69.12 15.026954 
L 71.69753 13.190902 
L 72.411429 12.44662 
L 75.702857 10.26252 
L 76.180602 9.893177 
L 78.994286 7.743127 
L 80.473727 6.595451 
L 82.285714 4.896049 
L 84.479749 3.297726 
L 85.577143 2.154986 
L 88.868571 3.097336 
L 88.896581 3.297726 
L 89.782404 6.595451 
L 90.522138 9.893177 
L 92.16 10.32258 
L 92.834956 9.893177 
L 95.451429 8.154989 
L 97.968043 6.595451 
L 98.742857 5.994477 
L 102.034286 3.839123 
L 102.769142 3.297726 
L 105.325714 1.414198 
L 107.245252 0 
L 105.325714 0 
L 102.034286 0 
L 98.742857 0 
L 95.451429 0 
L 92.16 0 
L 88.868571 0 
L 85.577143 0 
L 82.285714 0 
L 78.994286 0 
L 75.702857 0 
L 72.411429 0 
L 69.12 0 
L 65.828571 0 
L 62.537143 0 
L 59.245714 0 
L 55.954286 0 
L 52.662857 0 
L 49.371429 0 
L 46.08 0 
L 42.788571 0 
L 39.497143 0 
L 36.205714 0 
L 32.914286 0 
L 29.622857 0 
L 26.331429 0 
L 23.04 0 
L 19.748571 0 
L 16.457143 0 
L 13.165714 0 
L 9.874286 0 
L 6.582857 0 
L 3.291429 0 
L -0 0 
L -0 3.297726 
L -0 6.595451 
L -0 9.893177 
L -0 13.190902 
L -0 16.488628 
L -0 19.786353 
L -0 23.084079 
L -0 26.381804 
L -0 29.67953 
L -0 32.977255 
L -0 36.274981 
L -0 39.572707 
L -0 42.870432 
L -0 43.098771 
z
" clip-path="url(#p90cd07a181)" style="fill: #e5eff9; fill-opacity: 0.9"/>
    <path clip-path="url(#p90cd07a181)" style="fill: #dfecf7; fill-opacity: 0.9"/>
    <path clip-path="url(#p90cd07a181)" style="fill: #dae8f6; fill-opacity: 0.9"/>
    <path clip-path="url(#p90cd07a181)" style="fill: #d6e5f4; fill-opacity: 0.9"/>
    <path clip-path="url(#p90cd07a181)" style="fill: #d0e2f2; fill-opacity: 0.9"/>
    <path clip-path="url(#p90cd07a181)" style="fill: #cbdef1; fill-opacity: 0.9"/>
    <path clip-path="url(#p90cd07a181)" style="fill: #c6dbef; fill-opacity: 0.9"/>
    <path clip-path="url(#p90cd07a181)" style="fill: #bed8ec; fill-opacity: 0.9"/>
    <path clip-path="url(#p90cd07a181)" style="fill: #b5d4e9; fill-opacity: 0.9"/>
    <path clip-path="url(#p90cd07a181)" style="fill: #add0e6; fill-opacity: 0.9"/>
    <path clip-path="url(#p90cd07a181)" style="fill: #a5cde3; fill-opacity: 0.9"/>
    <path clip-path="url(#p90cd07a181)" style="fill: #9cc9e1; fill-opacity: 0.9"/>
    <path clip-path="url(#p90cd07a181)" style="fill: #91c3de; fill-opacity: 0.9"/>
    <path clip-path="url(#p90cd07a181)" style="fill: #85bcdc; fill-opacity: 0.9"/>
    <path clip-path="url(#p90cd07a181)" style="fill: #7cb7da; fill-opacity: 0.9"/>
    <path clip-path="url(#p90cd07a181)" style="fill: #71b1d7; fill-opacity: 0.9"/>
    <path clip-path="url(#p90cd07a181)" style="fill: #66abd4; fill-opacity: 0.9"/>
    <path clip-path="url(#p90cd07a181)" style="fill: #5da5d1; fill-opacity: 0.9"/>
    <path clip-path="url(#p90cd07a181)" style="fill: #56a0ce; fill-opacity: 0.9"/>
    <path clip-path="url(#p90cd07a181)" style="fill: #4d99ca; fill-opacity: 0.9"/>
    <path clip-path="url(#p90cd07a181)" style="fill: #4493c7; fill-opacity: 0.9"/>
    <path clip-path="url(#p90cd07a181)" style="fill: #3c8cc3; fill-opacity: 0.9"/>
    <path clip-path="url(#p90cd07a181)" style="fill: #3686c0; fill-opacity: 0.9"/>
    <path clip-path="url(#p90cd07a181)" style="fill: #2f7fbc; fill-opacity: 0.9"/>
    <path clip-path="url(#p90cd07a181)" style="fill: #2777b8; fill-opacity: 0.9"/>
    <path clip-path="url(#p90cd07a181)" style="fill: #2070b4; fill-opacity: 0.9"/>
    <path clip-path="url(#p90cd07a181)" style="fill: #1c6ab0; fill-opacity: 0.9"/>
    <path clip-path="url(#p90cd07a181)" style="fill: #1663aa; fill-opacity: 0.9"/>
    <path clip-path="url(#p90cd07a181)" style="fill: #115ca5; fill-opacity: 0.9"/>
    <path clip-path="url(#p90cd07a181)" style="fill: #0c56a0; fill-opacity: 0.9"/>
    <path clip-path="url(#p90cd07a181)" style="fill: #084f99; fill-opacity: 0.9"/>
    <path clip-path="url(#p90cd07a181)" style="fill: #08488e; fill-opacity: 0.9"/>
    <path clip-path="url(#p90cd07a181)" style="fill: #084184; fill-opacity: 0.9"/>
    <path clip-path="url(#p90cd07a181)" style="fill: #083a7a; fill-opacity: 0.9"/>
    <path clip-path="url(#p90cd07a181)" style="fill: #083370; fill-opacity: 0.9"/>
    <path clip-path="url(#p90cd07a181)" style="fill: #08306b; fill-opacity: 0.9"/>
   </g>
   <g id="QuadContourSet_2">
    <path d="M -0 163.370732 
L 2.402035 161.588552 
L 3.291429 160.974257 
L 6.582857 160.35953 
L 9.537748 161.588552 
L 9.874286 161.627722 
L 9.936272 161.588552 
L 13.165714 159.576393 
L 16.457143 159.31118 
L 17.773602 161.588552 
L 19.748571 163.405691 
L 21.562241 161.588552 
L 19.748571 158.547999 
L 19.02214 158.290826 
L 19.748571 157.846977 
L 23.04 156.83254 
L 26.331429 155.739524 
L 28.108008 154.993101 
L 29.622857 154.443284 
L 32.914286 152.640205 
L 34.295296 151.695375 
L 36.205714 150.388346 
L 39.115413 148.39765 
L 39.497143 148.136486 
L 42.788571 146.84212 
L 46.003828 145.099924 
L 46.08 145.066771 
L 46.201526 145.099924 
L 49.371429 146.465897 
L 52.662857 146.229944 
L 55.954286 145.65548 
L 57.37206 145.099924 
L 59.245714 144.306326 
L 62.537143 143.373417 
L 65.828571 142.35577 
L 66.835603 141.802199 
L 69.12 140.609531 
L 72.173084 138.504473 
L 72.411429 138.340138 
L 75.702857 136.459397 
L 77.506019 135.206747 
L 78.994286 134.304155 
L 82.258693 131.909022 
L 82.285714 131.89143 
L 82.386491 131.909022 
L 83.582379 135.206747 
L 85.577143 135.55593 
L 86.986048 138.504473 
L 88.868571 140.33645 
L 90.69705 138.504473 
L 88.868571 135.7494 
L 86.598597 135.206747 
L 88.868571 133.867442 
L 92.16 133.383192 
L 95.451429 132.463411 
L 96.918396 131.909022 
L 98.742857 131.266878 
L 102.034286 130.214378 
L 105.325714 128.677497 
L 105.409974 128.611296 
L 108.617143 126.420498 
L 110.146115 125.313571 
L 111.908571 124.087622 
L 114.887014 122.015845 
L 115.2 121.798135 
L 118.491429 121.464136 
L 119.49727 122.015845 
L 121.782857 122.547125 
L 125.074286 122.581328 
L 126.480902 125.313571 
L 125.074286 126.722878 
L 123.244504 128.611296 
L 125.074286 130.447169 
L 126.906653 128.611296 
L 128.365714 127.149444 
L 130.198082 125.313571 
L 128.365714 122.522576 
L 126.58726 122.015845 
L 128.365714 121.056712 
L 131.657143 120.330003 
L 134.948571 119.29799 
L 136.504605 118.71812 
L 138.24 118.141064 
L 141.531429 116.708488 
L 143.381101 115.420394 
L 144.822857 114.41637 
L 148.114286 112.125936 
L 148.120282 112.122669 
L 151.405714 110.597201 
L 154.299549 108.824943 
L 154.697143 108.612806 
L 155.563634 108.824943 
L 157.988571 110.095554 
L 161.28 109.924225 
L 164.571429 109.481086 
L 165.9092 112.122669 
L 167.862857 113.980022 
L 169.716664 112.122669 
L 167.862857 109.27867 
L 166.269804 108.824943 
L 167.862857 108.124318 
L 171.154286 107.208481 
L 174.445714 106.230492 
L 176.0415 105.527217 
L 177.737143 104.817528 
L 181.028571 102.607211 
L 181.556056 102.229492 
L 184.32 100.436185 
L 186.345007 98.931766 
L 187.611429 98.071693 
L 190.902857 95.810074 
L 192.706956 98.931766 
L 194.194286 99.182302 
L 195.631194 102.229492 
L 195.631194 105.527217 
L 197.485714 108.824943 
L 199.487335 105.527217 
L 200.777143 104.234943 
L 202.778764 102.229492 
L 204.068571 100.937217 
L 206.070193 98.931766 
L 206.495707 95.634041 
L 207.36 95.320186 
L 210.651429 94.303829 
L 213.942857 93.134613 
L 215.021226 92.336315 
L 217.234286 90.577772 
L 219.171288 89.03859 
L 220.525714 87.962334 
L 223.321349 85.740864 
L 223.817143 85.346896 
L 227.022642 85.740864 
L 227.108571 85.765283 
L 230.4 86.300693 
L 231.689545 89.03859 
L 233.691429 91.068042 
L 235.717006 89.03859 
L 233.691429 86.252678 
L 231.774411 85.740864 
L 233.691429 84.526934 
L 236.982857 83.705219 
L 238.158797 85.740864 
L 240.274286 87.770317 
L 242.299863 85.740864 
L 240.274286 82.531466 
L 240.030882 82.443139 
L 240.274286 82.304726 
L 243.565714 80.979488 
L 246.857143 79.708475 
L 247.904391 79.145413 
L 250.148571 77.966644 
L 252.58355 75.847688 
L 253.44 75.102391 
L 256.3731 72.549962 
L 256.731429 72.238139 
L 260.022857 69.601604 
L 263.314286 69.466 
L 263.569155 69.252236 
L 266.605714 67.116541 
L 268.436129 65.954511 
L 269.897143 64.897391 
L 273.188571 62.990194 
L 273.587616 62.656785 
L 276.48 60.752643 
L 278.596847 59.35906 
L 279.771429 58.585798 
L 283.062857 56.453042 
L 283.508653 56.061334 
L 286.354286 54.105982 
L 288.307806 52.763609 
L 289.645714 51.84427 
L 291.672124 50.481846 
M 307.386319 39.660083 
L 307.505181 39.572707 
L 309.394286 38.274684 
L 312.173355 36.274981 
L 312.685714 35.901106 
L 315.977143 33.62403 
L 316.65782 32.977255 
L 319.268571 31.049246 
L 321.126363 29.67953 
L 322.56 28.621262 
L 325.598767 26.381804 
L 325.851429 26.195377 
L 329.142857 23.893226 
L 330.04705 23.084079 
L 332.434286 21.311442 
L 334.488146 19.786353 
L 335.725714 18.8674 
L 338.968865 16.488628 
L 339.017143 16.453417 
L 342.308571 14.174318 
L 343.529743 13.190902 
L 345.6 11.69415 
L 348.091046 9.893177 
L 348.891429 9.321473 
L 352.182857 7.065551 
L 352.652349 6.595451 
L 355.474286 4.578224 
L 357.237767 3.297726 
L 358.765714 2.203037 
L 361.827939 0 
M 52.662857 153.508636 
L 54.472656 151.695375 
L 52.662857 149.569123 
L 50.847742 151.695375 
L 52.662857 153.508636 
z
M 161.28 117.277748 
L 163.133807 115.420394 
L 161.28 113.219305 
L 159.446749 115.420394 
L 161.28 117.277748 
z
M 197.485714 99.276051 
L 195.357388 98.931766 
L 197.485714 97.914804 
L 200.777143 97.260621 
L 201.739901 98.931766 
L 200.777143 99.896367 
L 197.485714 99.276051 
z
" clip-path="url(#p90cd07a181)" style="fill: none"/>
    <path d="M -0 161.562579 
L 3.291429 159.29808 
L 4.749758 158.290826 
L 6.582857 157.024723 
L 9.524296 154.993101 
L 9.874286 154.659929 
L 13.165714 153.587312 
L 16.457143 153.384326 
L 17.008579 154.993101 
L 19.748571 155.559042 
L 23.04 155.473441 
L 24.363429 154.993101 
L 26.331429 153.813501 
L 29.622857 153.084185 
L 32.040768 151.695375 
L 32.914286 150.962405 
L 36.205714 148.890595 
L 36.926227 148.39765 
L 39.497143 146.638735 
L 41.746344 145.099924 
L 42.788571 144.210439 
L 46.08 142.395732 
L 47.018583 141.802199 
L 49.371429 140.558942 
L 52.335487 138.504473 
L 52.662857 138.262894 
L 53.658241 138.504473 
L 54.825322 141.802199 
L 55.954286 142.297804 
L 59.245714 142.58109 
L 62.537143 142.011883 
L 63.164443 141.802199 
L 65.828571 140.665231 
L 69.12 139.089716 
L 69.968811 138.504473 
L 72.411429 136.820323 
L 74.751689 135.206747 
L 75.702857 134.382188 
L 78.994286 132.380517 
L 79.636902 131.909022 
L 82.285714 130.184559 
L 84.345136 128.611296 
L 85.577143 127.624674 
L 88.868571 126.397283 
L 90.96888 128.611296 
L 92.16 131.895693 
L 95.451429 129.97393 
L 98.742857 129.787457 
L 102.034286 128.82202 
L 102.480669 128.611296 
L 105.325714 127.104845 
L 107.900897 125.313571 
L 108.617143 124.663483 
L 111.908571 122.525869 
L 112.641796 122.015845 
L 115.2 120.236382 
L 117.382694 118.71812 
L 118.491429 117.808633 
L 121.782857 116.048485 
L 123.251362 115.420394 
L 125.074286 114.79015 
L 126.937524 115.420394 
L 128.162644 118.71812 
L 128.365714 118.765169 
L 131.657143 118.917104 
L 132.255555 118.71812 
L 134.948571 117.270466 
L 138.24 116.728166 
L 140.973816 115.420394 
L 141.531429 115.003267 
L 144.822857 112.828497 
L 145.83641 112.122669 
L 148.114286 110.536379 
L 150.571867 108.824943 
L 151.405714 108.101419 
L 154.697143 106.17862 
L 155.680261 105.527217 
L 157.988571 104.172264 
L 160.758801 102.229492 
L 161.28 101.848705 
L 162.965294 102.229492 
L 164.23576 105.527217 
L 164.571429 105.700844 
L 167.862857 106.221415 
L 171.154286 105.776597 
L 171.907838 105.527217 
L 174.445714 104.416339 
L 177.737143 103.202084 
L 179.133952 102.229492 
L 181.028571 100.910277 
L 183.870052 98.931766 
L 184.32 98.504971 
L 187.611429 96.36555 
L 188.606153 95.634041 
L 190.902857 94.034856 
L 193.342254 92.336315 
L 194.194286 91.610753 
L 197.485714 90.657155 
L 200.164445 92.336315 
L 200.777143 93.86105 
L 204.068571 93.782782 
L 207.36 93.577155 
L 210.651429 92.767405 
L 211.79838 92.336315 
L 213.942857 91.390718 
L 216.90292 89.03859 
L 217.234286 88.707246 
L 220.525714 86.159842 
L 221.052982 85.740864 
L 223.817143 83.544404 
L 225.203044 82.443139 
L 227.108571 80.928967 
L 229.380714 79.145413 
L 230.4 78.307982 
L 233.642842 75.847688 
L 233.691429 75.798948 
L 233.906921 75.847688 
L 235.2954 79.145413 
L 236.982857 80.560126 
L 240.274286 80.128151 
L 243.565714 79.394612 
L 244.16755 79.145413 
L 246.857143 77.910868 
L 250.148571 76.116513 
L 250.457489 75.847688 
L 253.44 73.25226 
L 254.247039 72.549962 
L 256.731429 70.388008 
L 258.03659 69.252236 
L 260.022857 67.523755 
L 261.851684 65.954511 
L 263.314286 64.684097 
L 265.998638 62.656785 
L 266.605714 62.136546 
L 269.247494 62.656785 
L 269.897143 62.784013 
L 270.115164 62.656785 
L 273.188571 60.571972 
L 275.540987 59.35906 
L 276.48 58.781012 
L 279.771429 56.850152 
L 280.940377 56.061334 
L 283.062857 54.615195 
L 285.757429 52.763609 
L 286.354286 52.263543 
L 289.645714 50.091774 
L 290.556549 49.465883 
L 292.937143 47.830057 
L 295.355641 46.168158 
L 296.228571 45.484861 
L 299.52 43.306675 
L 300.15489 42.870432 
L 302.811429 41.04511 
L 304.954289 39.572707 
L 306.102857 38.729147 
L 309.394286 36.521902 
L 309.737441 36.274981 
L 312.685714 34.123593 
L 314.252565 32.977255 
L 315.977143 31.715522 
L 318.760003 29.67953 
L 319.268571 29.225194 
L 319.956175 28.736694 
M 335.436701 17.378443 
L 335.725714 17.169536 
L 336.654045 16.488628 
L 339.017143 14.765119 
L 341.194546 13.190902 
L 342.308571 12.310977 
L 345.6 10.005852 
L 345.755849 9.893177 
L 348.891429 7.653468 
L 350.348087 6.595451 
L 352.182857 5.280544 
L 354.941069 3.297726 
L 355.474286 2.800275 
L 358.765714 0.555993 
L 359.538545 0 
M 19.748571 162.61343 
L 20.771492 161.588552 
L 19.748571 159.873661 
L 18.634676 161.588552 
L 19.748571 162.61343 
z
M 52.662857 152.719469 
L 53.684995 151.695375 
L 52.662857 150.49451 
L 51.637716 151.695375 
L 52.662857 152.719469 
z
M 88.868571 139.540503 
L 89.902624 138.504473 
L 88.868571 136.946408 
L 87.803956 138.504473 
L 88.868571 139.540503 
z
M 125.074286 129.650808 
L 126.111813 128.611296 
L 125.074286 127.542032 
L 124.038223 128.611296 
L 125.074286 129.650808 
z
M 128.365714 126.353083 
L 129.403241 125.313571 
L 128.365714 123.733248 
L 127.298492 125.313571 
L 128.365714 126.353083 
z
M 161.28 116.472944 
L 162.33054 115.420394 
L 161.28 114.173051 
L 160.241109 115.420394 
L 161.28 116.472944 
z
M 167.862857 113.175219 
L 168.913398 112.122669 
L 167.862857 110.510993 
L 166.755732 112.122669 
L 167.862857 113.175219 
z
M 197.485714 107.397274 
L 198.620783 105.527217 
L 200.777143 103.366732 
L 201.912211 102.229492 
L 200.777143 100.906436 
L 197.485714 100.55467 
L 196.434063 102.229492 
L 196.434063 105.527217 
L 197.485714 107.397274 
z
M 204.068571 100.069007 
L 205.20364 98.931766 
L 204.068571 96.537596 
L 202.748042 98.931766 
L 204.068571 100.069007 
z
M 233.691429 90.189735 
L 234.840376 89.03859 
L 233.691429 87.458366 
L 232.555921 89.03859 
L 233.691429 90.189735 
z
M 240.274286 86.89201 
L 241.423233 85.740864 
L 240.274286 83.92043 
L 239.074339 85.740864 
L 240.274286 86.89201 
z
" clip-path="url(#p90cd07a181)" style="fill: none"/>
    <path d="M -0 159.018853 
L 1.374652 158.290826 
L 3.291429 156.36368 
L 6.582857 155.348546 
L 7.097481 154.993101 
L 9.874286 152.349737 
L 11.016338 151.695375 
L 13.165714 149.53562 
L 16.457143 148.648567 
L 16.867136 148.39765 
L 19.748571 146.215151 
L 21.895935 145.099924 
L 23.04 143.947315 
L 24.694051 145.099924 
L 25.824326 148.39765 
L 26.331429 149.876789 
L 28.702133 151.695375 
L 29.622857 151.725086 
L 29.674584 151.695375 
L 32.914286 148.976937 
L 33.911874 148.39765 
L 36.205714 146.094002 
L 39.497143 145.140984 
L 39.557158 145.099924 
L 42.788571 142.342087 
L 43.680162 141.802199 
L 46.08 139.392713 
L 48.656941 138.504473 
L 49.371429 137.784216 
L 52.662857 135.886699 
L 53.672941 135.206747 
L 55.954286 132.915538 
L 57.941169 131.909022 
L 59.245714 130.595731 
L 61.095624 131.909022 
L 62.281956 135.206747 
L 62.537143 135.927736 
L 63.449192 138.504473 
L 65.828571 138.926909 
L 66.760879 138.504473 
L 69.12 136.275165 
L 72.411429 135.300509 
L 72.547416 135.206747 
L 75.702857 132.471324 
L 76.626029 131.909022 
L 78.994286 129.53147 
L 81.59021 128.611296 
L 82.285714 127.910485 
L 85.577143 125.835375 
L 86.386137 125.313571 
L 88.868571 122.821973 
L 90.745297 122.015845 
L 92.16 120.592543 
L 95.451429 120.344472 
L 98.355397 122.015845 
L 98.742857 123.084273 
L 99.55132 125.313571 
L 102.034286 126.073033 
L 105.325714 125.543092 
L 105.65568 125.313571 
L 108.617143 122.62565 
L 109.62975 122.015845 
L 111.908571 119.727993 
L 114.918065 118.71812 
L 115.2 118.433899 
L 118.491429 115.966899 
L 119.344442 115.420394 
L 121.782857 112.973069 
L 123.733256 112.122669 
L 125.074286 110.773688 
L 128.365714 109.770669 
L 130.066782 108.824943 
L 131.657143 107.225962 
L 134.377781 108.824943 
L 134.948571 110.361385 
L 135.602894 112.122669 
L 138.24 114.700917 
L 141.531429 112.793816 
L 142.695015 112.122669 
L 144.822857 109.985764 
L 148.114286 108.948506 
L 148.29172 108.824943 
L 151.405714 106.122951 
L 152.364663 105.527217 
L 154.697143 103.185777 
L 157.169545 102.229492 
L 157.988571 101.404787 
L 161.28 99.602173 
L 162.253371 98.931766 
L 164.571429 96.604695 
L 166.350959 95.634041 
L 167.862857 94.113744 
L 170.366946 95.634041 
L 171.154286 97.677599 
L 171.637476 98.931766 
L 172.907833 102.229492 
L 174.445714 102.522438 
L 175.366987 102.229492 
L 177.737143 100.363068 
L 181.028571 99.294833 
L 181.549997 98.931766 
L 184.32 96.304294 
L 185.4646 95.634041 
L 187.611429 93.478411 
L 190.902857 92.419412 
L 191.022198 92.336315 
L 194.194286 89.63507 
L 195.143878 89.03859 
L 197.485714 86.687989 
L 199.826328 85.740864 
L 200.777143 84.783904 
L 204.068571 83.959583 
L 207.36 85.089358 
L 207.621866 85.740864 
L 208.947083 89.03859 
L 210.651429 89.664754 
L 213.942857 89.588226 
L 214.634553 89.03859 
L 217.234286 86.439029 
L 218.1764 85.740864 
L 220.525714 83.383501 
L 221.975305 82.443139 
L 223.817143 80.593463 
L 226.998809 79.145413 
L 227.108571 79.034871 
L 230.4 76.421399 
L 231.156192 75.847688 
L 233.691429 73.304485 
L 234.80051 72.549962 
L 236.982857 70.359483 
L 239.082188 69.252236 
L 240.274286 68.053738 
L 242.158458 69.252236 
L 243.547046 72.549962 
L 243.565714 72.594318 
L 244.934794 75.847688 
L 246.857143 76.153969 
L 247.414752 75.847688 
L 250.148571 73.426313 
L 251.243666 72.549962 
L 253.44 70.347176 
L 254.901527 69.252236 
L 255.645204 68.506111 
M 270.570062 56.551915 
L 271.370158 56.061334 
L 273.188571 54.23683 
L 276.48 54.194687 
L 279.771429 53.954188 
L 283.062857 52.862744 
L 283.207126 52.763609 
L 286.354286 50.126815 
L 287.423523 49.465883 
L 289.645714 47.23788 
L 292.46506 46.168158 
L 292.937143 45.694295 
L 296.228571 43.48858 
L 297.189384 42.870432 
L 299.52 40.533888 
L 301.688821 39.572707 
L 302.811429 38.446349 
L 306.102857 36.855709 
L 306.975556 36.274981 
L 309.394286 33.850324 
L 310.92672 32.977255 
L 312.685714 31.213555 
L 315.977143 29.938009 
L 316.33044 29.67953 
L 319.268571 27.054713 
L 320.270128 26.381804 
L 322.56 24.086427 
L 324.527375 23.084079 
L 325.851429 21.756212 
L 329.142857 20.294362 
L 329.832785 19.786353 
L 332.434286 17.21302 
L 333.557168 16.488628 
L 335.725714 14.314739 
L 338.427541 13.190902 
L 339.017143 12.59945 
L 342.308571 10.466495 
L 343.130917 9.893177 
L 345.6 7.418455 
L 347.111028 6.595451 
L 348.891429 4.81043 
L 352.182857 3.634748 
L 352.651675 3.297726 
L 355.474286 0.664444 
L 356.526076 0 
M 19.748571 161.821168 
L 19.980744 161.588552 
L 19.748571 161.199323 
L 19.495751 161.588552 
L 19.748571 161.821168 
z
M 52.662857 151.930301 
L 52.897335 151.695375 
L 52.662857 151.419898 
L 52.427691 151.695375 
L 52.662857 151.930301 
z
M 88.868571 138.744557 
L 89.108197 138.504473 
L 88.868571 138.143416 
L 88.621863 138.504473 
L 88.868571 138.744557 
z
M 125.074286 128.854447 
L 125.316972 128.611296 
L 125.074286 128.361186 
L 124.831942 128.611296 
L 125.074286 128.854447 
z
M 128.365714 125.556721 
L 128.608401 125.313571 
L 128.365714 124.94392 
L 128.116082 125.313571 
L 128.365714 125.556721 
z
M 161.28 115.668141 
L 161.527274 115.420394 
L 161.28 115.126798 
L 161.035468 115.420394 
L 161.28 115.668141 
z
M 167.862857 112.370415 
L 168.110131 112.122669 
L 167.862857 111.743316 
L 167.602265 112.122669 
L 167.862857 112.370415 
z
M 197.485714 105.969605 
L 197.75423 105.527217 
L 200.777143 102.498522 
L 201.045659 102.229492 
L 200.777143 101.916505 
L 197.485714 101.83329 
L 197.236932 102.229492 
L 197.236932 105.527217 
L 197.485714 105.969605 
z
M 204.068571 99.200796 
L 204.337087 98.931766 
L 204.068571 98.365393 
L 203.756182 98.931766 
L 204.068571 99.200796 
z
M 233.691429 89.311428 
L 233.963746 89.03859 
L 233.691429 88.664054 
L 233.422297 89.03859 
L 233.691429 89.311428 
z
M 240.274286 86.013702 
L 240.546603 85.740864 
L 240.274286 85.309395 
L 239.989881 85.740864 
L 240.274286 86.013702 
z
" clip-path="url(#p90cd07a181)" style="fill: none"/>
    <path d="M -0 43.098771 
L 0.402256 42.870432 
L 3.291429 41.030816 
L 6.123845 39.572707 
L 6.582857 39.079358 
L 9.874286 37.637733 
L 12.021236 36.274981 
L 13.165714 35.098235 
L 16.457143 34.917944 
L 19.620966 36.274981 
L 19.748571 36.528602 
L 23.04 36.847923 
L 23.869171 36.274981 
L 26.331429 34.493393 
L 28.48165 32.977255 
L 29.622857 31.899568 
L 32.914286 29.729262 
L 32.978235 29.67953 
L 36.205714 27.169547 
L 37.218639 26.381804 
L 39.497143 24.478516 
L 41.329337 23.084079 
L 42.788571 21.565339 
L 45.433653 19.786353 
L 46.08 19.099052 
L 49.371429 17.545955 
L 51.432976 16.488628 
L 52.662857 15.846224 
L 54.0552 16.488628 
L 54.650361 19.786353 
L 55.255416 22.542125 
M 70.887 13.768267 
L 71.69753 13.190902 
L 72.411429 12.44662 
L 75.702857 10.26252 
L 76.180602 9.893177 
L 78.994286 7.743127 
L 80.473727 6.595451 
L 82.285714 4.896049 
L 84.479749 3.297726 
L 85.577143 2.154986 
L 88.868571 3.097336 
L 88.896581 3.297726 
L 89.782404 6.595451 
L 90.522138 9.893177 
L 92.16 10.32258 
L 92.834956 9.893177 
L 95.451429 8.154989 
L 97.968043 6.595451 
L 98.742857 5.994477 
L 102.034286 3.839123 
L 102.769142 3.297726 
L 105.325714 1.414198 
L 107.245252 0 
" clip-path="url(#p90cd07a181)" style="fill: none"/>
    <path clip-path="url(#p90cd07a181)" style="fill: none"/>
    <path clip-path="url(#p90cd07a181)" style="fill: none"/>
    <path clip-path="url(#p90cd07a181)" style="fill: none"/>
    <path clip-path="url(#p90cd07a181)" style="fill: none"/>
    <path clip-path="url(#p90cd07a181)" style="fill: none"/>
    <path clip-path="url(#p90cd07a181)" style="fill: none"/>
    <path clip-path="url(#p90cd07a181)" style="fill: none"/>
    <path clip-path="url(#p90cd07a181)" style="fill: none"/>
    <path clip-path="url(#p90cd07a181)" style="fill: none"/>
    <path clip-path="url(#p90cd07a181)" style="fill: none"/>
    <path clip-path="url(#p90cd07a181)" style="fill: none"/>
    <path clip-path="url(#p90cd07a181)" style="fill: none"/>
    <path clip-path="url(#p90cd07a181)" style="fill: none"/>
    <path clip-path="url(#p90cd07a181)" style="fill: none"/>
    <path clip-path="url(#p90cd07a181)" style="fill: none"/>
    <path clip-path="url(#p90cd07a181)" style="fill: none"/>
    <path clip-path="url(#p90cd07a181)" style="fill: none"/>
    <path clip-path="url(#p90cd07a181)" style="fill: none"/>
    <path clip-path="url(#p90cd07a181)" style="fill: none"/>
    <path clip-path="url(#p90cd07a181)" style="fill: none"/>
    <path clip-path="url(#p90cd07a181)" style="fill: none"/>
    <path clip-path="url(#p90cd07a181)" style="fill: none"/>
    <path clip-path="url(#p90cd07a181)" style="fill: none"/>
    <path clip-path="url(#p90cd07a181)" style="fill: none"/>
    <path clip-path="url(#p90cd07a181)" style="fill: none"/>
    <path clip-path="url(#p90cd07a181)" style="fill: none"/>
    <path clip-path="url(#p90cd07a181)" style="fill: none"/>
    <path clip-path="url(#p90cd07a181)" style="fill: none"/>
    <path clip-path="url(#p90cd07a181)" style="fill: none"/>
    <path clip-path="url(#p90cd07a181)" style="fill: none"/>
    <path clip-path="url(#p90cd07a181)" style="fill: none"/>
    <path clip-path="url(#p90cd07a181)" style="fill: none"/>
    <path clip-path="url(#p90cd07a181)" style="fill: none"/>
    <path clip-path="url(#p90cd07a181)" style="fill: none"/>
    <path clip-path="url(#p90cd07a181)" style="fill: none"/>
   </g>
   <g id="text_1">
    <g clip-path="url(#p90cd07a181)">
     <!-- 0 -->
     <g style="opacity: 0" transform="translate(298.22784 49.944913) rotate(-34.247168) scale(0.12 -0.12)">
      <defs>
       <path id="DejaVuSans-30" d="M 2034 4250 
Q 1547 4250 1301 3770 
Q 1056 3291 1056 2328 
Q 1056 1369 1301 889 
Q 1547 409 2034 409 
Q 2525 409 2770 889 
Q 3016 1369 3016 2328 
Q 3016 3291 2770 3770 
Q 2525 4250 2034 4250 
z
M 2034 4750 
Q 2819 4750 3233 4129 
Q 3647 3509 3647 2328 
Q 3647 1150 3233 529 
Q 2819 -91 2034 -91 
Q 1250 -91 836 529 
Q 422 1150 422 2328 
Q 422 3509 836 4129 
Q 1250 4750 2034 4750 
z
" transform="scale(0.015625)"/>
      </defs>
      <use xlink:href="#DejaVuSans-30"/>
     </g>
    </g>
   </g>
   <g id="text_2">
    <g clip-path="url(#p90cd07a181)">
     <!-- 1 -->
     <g style="opacity: 0" transform="translate(326.593982 28.011038) rotate(-36.214022) scale(0.12 -0.12)">
      <defs>
       <path id="DejaVuSans-31" d="M 794 531 
L 1825 531 
L 1825 4091 
L 703 3866 
L 703 4441 
L 1819 4666 
L 2450 4666 
L 2450 531 
L 3481 531 
L 3481 0 
L 794 0 
L 794 531 
z
" transform="scale(0.015625)"/>
      </defs>
      <use xlink:href="#DejaVuSans-31"/>
     </g>
    </g>
   </g>
   <g id="text_3">
    <g clip-path="url(#p90cd07a181)">
     <!-- 2 -->
     <g style="opacity: 0" transform="translate(262.267981 67.755225) rotate(-37.112748) scale(0.12 -0.12)">
      <defs>
       <path id="DejaVuSans-32" d="M 1228 531 
L 3431 531 
L 3431 0 
L 469 0 
L 469 531 
Q 828 903 1448 1529 
Q 2069 2156 2228 2338 
Q 2531 2678 2651 2914 
Q 2772 3150 2772 3378 
Q 2772 3750 2511 3984 
Q 2250 4219 1831 4219 
Q 1534 4219 1204 4116 
Q 875 4013 500 3803 
L 500 4441 
Q 881 4594 1212 4672 
Q 1544 4750 1819 4750 
Q 2544 4750 2975 4387 
Q 3406 4025 3406 3419 
Q 3406 3131 3298 2873 
Q 3191 2616 2906 2266 
Q 2828 2175 2409 1742 
Q 1991 1309 1228 531 
z
" transform="scale(0.015625)"/>
      </defs>
      <use xlink:href="#DejaVuSans-32"/>
     </g>
    </g>
   </g>
   <g id="text_4">
    <g clip-path="url(#p90cd07a181)">
     <!-- 3 -->
     <g style="opacity: 0" transform="translate(62.193138 24.68779) rotate(-34.971617) scale(0.12 -0.12)">
      <defs>
       <path id="DejaVuSans-33" d="M 2597 2516 
Q 3050 2419 3304 2112 
Q 3559 1806 3559 1356 
Q 3559 666 3084 287 
Q 2609 -91 1734 -91 
Q 1441 -91 1130 -33 
Q 819 25 488 141 
L 488 750 
Q 750 597 1062 519 
Q 1375 441 1716 441 
Q 2309 441 2620 675 
Q 2931 909 2931 1356 
Q 2931 1769 2642 2001 
Q 2353 2234 1838 2234 
L 1294 2234 
L 1294 2753 
L 1863 2753 
Q 2328 2753 2575 2939 
Q 2822 3125 2822 3475 
Q 2822 3834 2567 4026 
Q 2313 4219 1838 4219 
Q 1578 4219 1281 4162 
Q 984 4106 628 3988 
L 628 4550 
Q 988 4650 1302 4700 
Q 1616 4750 1894 4750 
Q 2613 4750 3031 4423 
Q 3450 4097 3450 3541 
Q 3450 3153 3228 2886 
Q 3006 2619 2597 2516 
z
" transform="scale(0.015625)"/>
      </defs>
      <use xlink:href="#DejaVuSans-33"/>
     </g>
    </g>
   </g>
  </g>
 </g>
 <defs>
  <clipPath id="p90cd07a181">
   <rect x="0" y="0" width="576" height="821.133661"/>
  </clipPath>
 </defs>
</svg>
