<?xml version="1.0" encoding="utf-8" standalone="no"?>
<!DOCTYPE svg PUBLIC "-//W3C//DTD SVG 1.1//EN"
  "http://www.w3.org/Graphics/SVG/1.1/DTD/svg11.dtd">
<svg xmlns:xlink="http://www.w3.org/1999/xlink" width="576pt" height="820.697178pt" viewBox="0 0 576 820.697178" xmlns="http://www.w3.org/2000/svg" version="1.1">
 <metadata>
  <rdf:RDF xmlns:dc="http://purl.org/dc/elements/1.1/" xmlns:cc="http://creativecommons.org/ns#" xmlns:rdf="http://www.w3.org/1999/02/22-rdf-syntax-ns#">
   <cc:Work>
    <dc:type rdf:resource="http://purl.org/dc/dcmitype/StillImage"/>
    <dc:date>2025-07-25T22:45:30.860143</dc:date>
    <dc:format>image/svg+xml</dc:format>
    <dc:creator>
     <cc:Agent>
      <dc:title>Matplotlib v3.10.3, https://matplotlib.org/</dc:title>
     </cc:Agent>
    </dc:creator>
   </cc:Work>
  </rdf:RDF>
 </metadata>
 <defs>
  <style type="text/css">*{stroke-linejoin: round; stroke-linecap: butt}</style>
 </defs>
 <g id="figure_1">
  <g id="patch_1">
   <path d="M 0 820.697178 
L 576 820.697178 
L 576 0 
L 0 0 
L 0 820.697178 
z
" style="fill: none; opacity: 0"/>
  </g>
  <g id="axes_1">
   <g id="QuadContourSet_1">
    <path d="M 3.291429 820.697178 
L 6.582857 820.697178 
L 9.874286 820.697178 
L 13.165714 820.697178 
L 16.457143 820.697178 
L 19.748571 820.697178 
L 23.04 820.697178 
L 26.331429 820.697178 
L 29.622857 820.697178 
L 32.914286 820.697178 
L 36.205714 820.697178 
L 39.497143 820.697178 
L 42.788571 820.697178 
L 46.08 820.697178 
L 49.371429 820.697178 
L 52.662857 820.697178 
L 55.954286 820.697178 
L 59.245714 820.697178 
L 62.537143 820.697178 
L 65.828571 820.697178 
L 69.12 820.697178 
L 72.411429 820.697178 
L 75.702857 820.697178 
L 78.994286 820.697178 
L 82.285714 820.697178 
L 85.577143 820.697178 
L 88.868571 820.697178 
L 92.16 820.697178 
L 95.451429 820.697178 
L 98.742857 820.697178 
L 102.034286 820.697178 
L 105.325714 820.697178 
L 108.617143 820.697178 
L 111.908571 820.697178 
L 115.2 820.697178 
L 118.491429 820.697178 
L 121.782857 820.697178 
L 125.074286 820.697178 
L 128.365714 820.697178 
L 131.657143 820.697178 
L 134.948571 820.697178 
L 138.24 820.697178 
L 141.531429 820.697178 
L 144.822857 820.697178 
L 148.114286 820.697178 
L 151.405714 820.697178 
L 154.697143 820.697178 
L 157.988571 820.697178 
L 161.28 820.697178 
L 164.571429 820.697178 
L 167.862857 820.697178 
L 171.154286 820.697178 
L 174.445714 820.697178 
L 177.737143 820.697178 
L 181.028571 820.697178 
L 184.32 820.697178 
L 187.611429 820.697178 
L 190.902857 820.697178 
L 194.194286 820.697178 
L 197.485714 820.697178 
L 200.777143 820.697178 
L 204.068571 820.697178 
L 207.36 820.697178 
L 210.651429 820.697178 
L 213.942857 820.697178 
L 217.234286 820.697178 
L 220.525714 820.697178 
L 223.817143 820.697178 
L 227.108571 820.697178 
L 230.4 820.697178 
L 233.691429 820.697178 
L 236.982857 820.697178 
L 240.274286 820.697178 
L 243.565714 820.697178 
L 246.857143 820.697178 
L 250.148571 820.697178 
L 253.44 820.697178 
L 256.731429 820.697178 
L 260.022857 820.697178 
L 263.314286 820.697178 
L 266.605714 820.697178 
L 269.897143 820.697178 
L 273.188571 820.697178 
L 276.48 820.697178 
L 279.771429 820.697178 
L 283.062857 820.697178 
L 286.354286 820.697178 
L 289.645714 820.697178 
L 292.937143 820.697178 
L 296.228571 820.697178 
L 299.52 820.697178 
L 302.811429 820.697178 
L 306.102857 820.697178 
L 309.394286 820.697178 
L 312.685714 820.697178 
L 315.977143 820.697178 
L 319.268571 820.697178 
L 322.56 820.697178 
L 325.851429 820.697178 
L 329.142857 820.697178 
L 332.434286 820.697178 
L 335.725714 820.697178 
L 339.017143 820.697178 
L 342.308571 820.697178 
L 345.6 820.697178 
L 348.891429 820.697178 
L 352.182857 820.697178 
L 355.474286 820.697178 
L 358.765714 820.697178 
L 362.057143 820.697178 
L 365.348571 820.697178 
L 368.64 820.697178 
L 371.931429 820.697178 
L 375.222857 820.697178 
L 378.514286 820.697178 
L 381.805714 820.697178 
L 385.097143 820.697178 
L 388.388571 820.697178 
L 391.68 820.697178 
L 394.971429 820.697178 
L 398.262857 820.697178 
L 401.554286 820.697178 
L 404.845714 820.697178 
L 408.137143 820.697178 
L 411.428571 820.697178 
L 414.72 820.697178 
L 418.011429 820.697178 
L 421.302857 820.697178 
L 424.594286 820.697178 
L 427.885714 820.697178 
L 431.177143 820.697178 
L 434.468571 820.697178 
L 437.76 820.697178 
L 441.051429 820.697178 
L 444.342857 820.697178 
L 447.634286 820.697178 
L 450.925714 820.697178 
L 454.217143 820.697178 
L 457.508571 820.697178 
L 460.8 820.697178 
L 464.091429 820.697178 
L 467.382857 820.697178 
L 470.674286 820.697178 
L 473.965714 820.697178 
L 477.257143 820.697178 
L 480.548571 820.697178 
L 483.84 820.697178 
L 487.131429 820.697178 
L 490.422857 820.697178 
L 493.714286 820.697178 
L 497.005714 820.697178 
L 500.297143 820.697178 
L 503.588571 820.697178 
L 506.88 820.697178 
L 510.171429 820.697178 
L 513.462857 820.697178 
L 516.754286 820.697178 
L 520.045714 820.697178 
L 523.337143 820.697178 
L 526.628571 820.697178 
L 529.92 820.697178 
L 533.211429 820.697178 
L 536.502857 820.697178 
L 539.794286 820.697178 
L 543.085714 820.697178 
L 546.377143 820.697178 
L 549.668571 820.697178 
L 552.96 820.697178 
L 556.251429 820.697178 
L 559.542857 820.697178 
L 562.834286 820.697178 
L 566.125714 820.697178 
L 569.417143 820.697178 
L 572.708571 820.697178 
L 576 820.697178 
L 576 817.401205 
L 576 814.105233 
L 576 810.80926 
L 576 807.513287 
L 576 804.217315 
L 576 800.921342 
L 576 797.62537 
L 576 794.329397 
L 576 791.033424 
L 576 787.737452 
L 576 784.441479 
L 576 781.145507 
L 576 777.849534 
L 576 774.553561 
L 576 771.257589 
L 576 767.961616 
L 576 764.665644 
L 576 761.369671 
L 576 758.073698 
L 576 754.777726 
L 576 751.481753 
L 576 748.185781 
L 576 744.889808 
L 576 741.593835 
L 576 738.297863 
L 576 735.00189 
L 576 731.705918 
L 576 728.409945 
L 576 725.113972 
L 576 721.818 
L 576 718.522027 
L 576 715.226055 
L 576 711.930082 
L 576 708.634109 
L 576 705.338137 
L 576 702.042164 
L 576 698.746192 
L 576 695.450219 
L 576 692.154246 
L 576 688.858274 
L 576 685.562301 
L 576 682.266329 
L 576 678.970356 
L 576 675.674383 
L 576 672.378411 
L 576 669.082438 
L 576 665.786466 
L 576 662.490493 
L 576 659.19452 
L 576 655.898548 
L 576 652.602575 
L 576 649.306603 
L 576 646.01063 
L 576 642.714657 
L 576 639.418685 
L 576 636.122712 
L 576 632.82674 
L 576 629.530767 
L 576 626.234794 
L 576 622.938822 
L 576 619.642849 
L 576 616.346877 
L 576 613.050904 
L 576 609.754931 
L 576 606.458959 
L 576 603.162986 
L 576 599.867014 
L 576 596.571041 
L 576 593.275068 
L 576 589.979096 
L 576 586.683123 
L 576 583.387151 
L 576 580.091178 
L 576 576.795205 
L 576 573.499233 
L 576 570.20326 
L 576 566.907288 
L 576 563.611315 
L 576 560.315342 
L 576 557.01937 
L 576 553.723397 
L 576 550.427425 
L 576 547.131452 
L 576 543.835479 
L 576 540.539507 
L 576 537.243534 
L 576 533.947562 
L 576 530.651589 
L 576 527.355616 
L 576 524.059644 
L 576 520.763671 
L 576 517.467698 
L 576 514.171726 
L 576 510.875753 
L 576 507.579781 
L 576 504.283808 
L 576 500.987835 
L 576 497.691863 
L 576 494.39589 
L 576 491.099918 
L 576 487.803945 
L 576 484.507972 
L 576 481.212 
L 576 477.916027 
L 576 474.620055 
L 576 471.324082 
L 576 468.028109 
L 576 464.732137 
L 576 461.436164 
L 576 458.140192 
L 576 454.844219 
L 576 451.548246 
L 576 448.252274 
L 576 444.956301 
L 576 441.660329 
L 576 438.364356 
L 576 435.068383 
L 576 431.772411 
L 576 428.476438 
L 576 425.180466 
L 576 421.884493 
L 576 418.58852 
L 576 415.292548 
L 576 411.996575 
L 576 408.700603 
L 576 405.40463 
L 576 402.108657 
L 576 398.812685 
L 576 395.516712 
L 576 392.22074 
L 576 388.924767 
L 576 385.628794 
L 576 382.332822 
L 576 379.036849 
L 576 375.740877 
L 576 372.444904 
L 576 369.148931 
L 576 365.852959 
L 576 362.556986 
L 576 359.261014 
L 576 355.965041 
L 576 352.669068 
L 576 349.373096 
L 576 346.077123 
L 576 342.781151 
L 576 339.485178 
L 576 336.189205 
L 576 332.893233 
L 576 329.59726 
L 576 326.301288 
L 576 323.005315 
L 576 319.709342 
L 576 316.41337 
L 576 313.117397 
L 576 309.821425 
L 576 306.525452 
L 576 303.229479 
L 576 299.933507 
L 576 296.637534 
L 576 293.341562 
L 576 290.045589 
L 576 286.749616 
L 576 283.453644 
L 576 280.157671 
L 576 276.861699 
L 576 273.565726 
L 576 270.269753 
L 576 266.973781 
L 576 263.677808 
L 576 260.381836 
L 576 257.085863 
L 576 253.78989 
L 576 250.493918 
L 576 247.197945 
L 576 243.901973 
L 576 240.606 
L 576 237.310027 
L 576 234.014055 
L 576 230.718082 
L 576 227.42211 
L 576 224.126137 
L 576 220.830164 
L 576 217.534192 
L 576 214.238219 
L 576 210.942247 
L 576 207.646274 
L 576 204.350301 
L 576 201.054329 
L 576 197.758356 
L 576 194.462384 
L 576 191.166411 
L 576 187.870438 
L 576 184.574466 
L 576 181.278493 
L 576 177.982521 
L 576 174.686548 
L 576 171.390575 
L 576 168.094603 
L 576 164.79863 
L 576 161.502657 
L 576 158.206685 
L 576 154.910712 
L 576 151.61474 
L 576 148.318767 
L 576 145.022794 
L 576 141.726822 
L 576 138.430849 
L 576 135.134877 
L 576 131.838904 
L 576 128.542931 
L 576 125.246959 
L 576 121.950986 
L 576 118.655014 
L 576 115.359041 
L 576 112.063068 
L 576 108.767096 
L 576 105.471123 
L 576 102.175151 
L 576 98.879178 
L 576 95.583205 
L 576 92.287233 
L 576 88.99126 
L 576 85.695288 
L 576 82.399315 
L 576 79.103342 
L 576 75.80737 
L 576 72.511397 
L 576 69.215425 
L 576 65.919452 
L 576 62.623479 
L 576 59.327507 
L 576 56.031534 
L 576 52.735562 
L 576 49.439589 
L 576 46.143616 
L 576 42.847644 
L 576 39.551671 
L 576 36.255699 
L 576 32.959726 
L 576 29.663753 
L 576 26.367781 
L 576 23.071808 
L 576 19.775836 
L 576 16.479863 
L 576 13.18389 
L 576 9.887918 
L 576 6.591945 
L 576 3.295973 
L 576 0 
L 572.708571 0 
L 569.417143 0 
L 566.125714 0 
L 562.834286 0 
L 559.542857 0 
L 556.251429 0 
L 552.96 0 
L 549.668571 0 
L 546.377143 0 
L 543.085714 0 
L 539.794286 0 
L 536.502857 0 
L 533.211429 0 
L 529.92 0 
L 526.628571 0 
L 523.337143 0 
L 520.045714 0 
L 516.754286 0 
L 513.462857 0 
L 510.171429 0 
L 506.88 0 
L 503.588571 0 
L 500.297143 0 
L 497.005714 0 
L 493.714286 0 
L 490.422857 0 
L 487.131429 0 
L 483.84 0 
L 480.548571 0 
L 477.257143 0 
L 473.965714 0 
L 470.674286 0 
L 467.382857 0 
L 464.091429 0 
L 460.8 0 
L 457.508571 0 
L 454.217143 0 
L 450.925714 0 
L 447.634286 0 
L 444.342857 0 
L 441.051429 0 
L 437.76 0 
L 434.468571 0 
L 431.177143 0 
L 427.885714 0 
L 424.594286 0 
L 421.302857 0 
L 418.011429 0 
L 414.72 0 
L 411.428571 0 
L 408.137143 0 
L 404.845714 0 
L 401.554286 0 
L 398.262857 0 
L 394.971429 0 
L 391.68 0 
L 388.388571 0 
L 385.097143 0 
L 381.805714 0 
L 378.514286 0 
L 375.222857 0 
L 371.931429 0 
L 368.64 0 
L 365.348571 0 
L 362.057143 0 
L 358.765714 0 
L 355.474286 0 
L 352.182857 0 
L 348.891429 0 
L 345.6 0 
L 342.308571 0 
L 339.017143 0 
L 335.725714 0 
L 332.434286 0 
L 329.142857 0 
L 325.851429 0 
L 322.56 0 
L 319.268571 0 
L 315.977143 0 
L 312.685714 0 
L 309.394286 0 
L 306.102857 0 
L 302.811429 0 
L 299.52 0 
L 296.228571 0 
L 292.937143 0 
L 289.645714 0 
L 286.354286 0 
L 283.062857 0 
L 279.771429 0 
L 276.48 0 
L 273.188571 0 
L 269.897143 0 
L 266.605714 0 
L 263.314286 0 
L 260.022857 0 
L 256.731429 0 
L 253.44 0 
L 250.148571 0 
L 246.857143 0 
L 243.565714 0 
L 240.274286 0 
L 236.982857 0 
L 233.691429 0 
L 230.4 0 
L 227.108571 0 
L 223.817143 0 
L 220.525714 0 
L 217.234286 0 
L 213.942857 0 
L 210.651429 0 
L 207.36 0 
L 204.068571 0 
L 200.777143 0 
L 197.485714 0 
L 194.194286 0 
L 190.902857 0 
L 187.611429 0 
L 184.32 0 
L 181.028571 0 
L 177.737143 0 
L 174.445714 0 
L 171.154286 0 
L 167.862857 0 
L 164.571429 0 
L 161.28 0 
L 157.988571 0 
L 154.697143 0 
L 151.405714 0 
L 148.114286 0 
L 144.822857 0 
L 141.531429 0 
L 138.24 0 
L 134.948571 0 
L 131.657143 0 
L 128.365714 0 
L 125.074286 0 
L 121.782857 0 
L 118.491429 0 
L 115.2 0 
L 111.908571 0 
L 108.617143 0 
L 105.325714 0 
L 102.034286 0 
L 98.742857 0 
L 95.451429 0 
L 92.16 0 
L 88.868571 0 
L 85.577143 0 
L 82.285714 0 
L 78.994286 0 
L 75.702857 0 
L 72.411429 0 
L 69.12 0 
L 65.828571 0 
L 62.537143 0 
L 59.245714 0 
L 55.954286 0 
L 52.662857 0 
L 49.371429 0 
L 46.08 0 
L 42.788571 0 
L 39.497143 0 
L 36.205714 0 
L 32.914286 0 
L 29.622857 0 
L 26.331429 0 
L 23.04 0 
L 19.748571 0 
L 16.457143 0 
L 13.165714 0 
L 9.874286 0 
L 6.582857 0 
L 3.291429 0 
L 0 0 
L 0 3.295973 
L 0 6.591945 
L 0 9.887918 
L 0 13.18389 
L 0 16.479863 
L 0 19.775836 
L 0 23.071808 
L 0 26.367781 
L 0 29.663753 
L 0 32.959726 
L 0 36.255699 
L 0 39.551671 
L 0 42.847644 
L 0 46.143616 
L 0 49.439589 
L 0 52.735562 
L 0 56.031534 
L 0 59.327507 
L 0 62.623479 
L 0 65.919452 
L 0 69.215425 
L 0 72.511397 
L 0 75.80737 
L 0 79.103342 
L 0 82.399315 
L 0 85.695288 
L 0 88.99126 
L 0 92.287233 
L 0 95.583205 
L 0 98.879178 
L 0 102.175151 
L 0 105.471123 
L 0 108.767096 
L 0 112.063068 
L 0 115.359041 
L 0 118.655014 
L 0 121.950986 
L 0 125.246959 
L 0 128.542931 
L 0 131.838904 
L 0 135.134877 
L 0 138.430849 
L 0 141.726822 
L 0 145.022794 
L 0 148.318767 
L 0 151.61474 
L 0 154.910712 
L 0 158.206685 
L 0 161.502657 
L 0 164.79863 
L 0 168.094603 
L 0 171.390575 
L 0 174.686548 
L 0 177.982521 
L 0 181.278493 
L 0 184.574466 
L 0 187.870438 
L 0 191.166411 
L 0 194.462384 
L 0 197.758356 
L 0 201.054329 
L 0 204.350301 
L 0 207.646274 
L 0 210.942247 
L 0 214.238219 
L 0 217.534192 
L 0 220.830164 
L 0 224.126137 
L 0 227.42211 
L 0 230.718082 
L 0 234.014055 
L 0 237.310027 
L 0 240.606 
L 0 243.901973 
L 0 247.197945 
L 0 250.493918 
L 0 253.78989 
L 0 257.085863 
L 0 260.381836 
L 0 263.677808 
L 0 266.973781 
L 0 270.269753 
L 0 273.565726 
L 0 276.861699 
L 0 280.157671 
L 0 283.453644 
L 0 286.749616 
L 0 290.045589 
L 0 293.341562 
L 0 296.637534 
L 0 299.933507 
L 0 303.229479 
L 0 306.525452 
L 0 309.821425 
L 0 313.117397 
L 0 316.41337 
L 0 319.709342 
L 0 323.005315 
L 0 326.301288 
L 0 329.59726 
L 0 332.893233 
L 0 336.189205 
L 0 339.485178 
L 0 342.781151 
L 0 346.077123 
L 0 349.373096 
L 0 352.669068 
L 0 355.965041 
L 0 359.261014 
L 0 362.556986 
L 0 365.852959 
L 0 369.148931 
L 0 372.444904 
L 0 375.740877 
L 0 379.036849 
L 0 382.332822 
L 0 385.628794 
L 0 388.924767 
L 0 392.22074 
L 0 395.516712 
L 0 398.812685 
L 0 402.108657 
L 0 405.40463 
L 0 408.700603 
L 0 411.996575 
L 0 415.292548 
L 0 418.58852 
L 0 421.884493 
L 0 425.180466 
L 0 428.476438 
L 0 431.772411 
L 0 435.068383 
L 0 438.364356 
L 0 441.660329 
L 0 444.956301 
L 0 448.252274 
L 0 451.548246 
L 0 454.844219 
L 0 458.140192 
L 0 461.436164 
L 0 464.732137 
L 0 468.028109 
L 0 471.324082 
L 0 474.620055 
L 0 477.916027 
L 0 481.212 
L 0 484.507972 
L 0 487.803945 
L 0 491.099918 
L 0 494.39589 
L 0 497.691863 
L 0 500.987835 
L 0 504.283808 
L 0 507.579781 
L 0 510.875753 
L 0 514.171726 
L 0 517.467698 
L 0 520.763671 
L 0 524.059644 
L 0 527.355616 
L 0 530.651589 
L 0 533.947562 
L 0 537.243534 
L 0 540.539507 
L 0 543.835479 
L 0 547.131452 
L 0 550.427425 
L 0 553.723397 
L 0 557.01937 
L 0 560.315342 
L 0 563.611315 
L 0 566.907288 
L 0 570.20326 
L 0 573.499233 
L 0 576.795205 
L 0 580.091178 
L 0 583.387151 
L 0 586.683123 
L 0 589.979096 
L 0 593.275068 
L 0 596.571041 
L 0 599.867014 
L 0 603.162986 
L 0 606.458959 
L 0 609.754931 
L 0 613.050904 
L 0 616.346877 
L 0 619.642849 
L 0 622.938822 
L 0 626.234794 
L 0 629.530767 
L 0 632.82674 
L 0 636.122712 
L 0 639.418685 
L 0 642.714657 
L 0 646.01063 
L 0 649.306603 
L 0 652.602575 
L 0 655.898548 
L 0 659.19452 
L 0 662.490493 
L 0 665.786466 
L 0 669.082438 
L 0 672.378411 
L 0 675.674383 
L 0 678.970356 
L 0 682.266329 
L 0 685.562301 
L 0 688.858274 
L 0 692.154246 
L 0 695.450219 
L 0 698.746192 
L 0 702.042164 
L 0 705.338137 
L 0 708.634109 
L 0 711.930082 
L 0 715.226055 
L 0 718.522027 
L 0 721.818 
L 0 725.113972 
L 0 728.409945 
L 0 731.705918 
L 0 735.00189 
L 0 738.297863 
L 0 741.593835 
L 0 744.889808 
L 0 748.185781 
L 0 751.481753 
L 0 754.777726 
L 0 758.073698 
L 0 761.369671 
L 0 764.665644 
L 0 767.961616 
L 0 771.257589 
L 0 774.553561 
L 0 777.849534 
L 0 781.145507 
L 0 784.441479 
L 0 787.737452 
L 0 791.033424 
L 0 794.329397 
L 0 797.62537 
L 0 800.921342 
L 0 804.217315 
L 0 807.513287 
L 0 810.80926 
L 0 814.105233 
L 0 817.401205 
L 0 820.697178 
z
" clip-path="url(#p5f70075fae)" style="fill: #f5f9fe; fill-opacity: 0.9"/>
    <path clip-path="url(#p5f70075fae)" style="fill: #eff6fc; fill-opacity: 0.9"/>
    <path clip-path="url(#p5f70075fae)" style="fill: #eaf3fb; fill-opacity: 0.9"/>
    <path clip-path="url(#p5f70075fae)" style="fill: #e5eff9; fill-opacity: 0.9"/>
    <path clip-path="url(#p5f70075fae)" style="fill: #dfecf7; fill-opacity: 0.9"/>
    <path clip-path="url(#p5f70075fae)" style="fill: #dae8f6; fill-opacity: 0.9"/>
    <path clip-path="url(#p5f70075fae)" style="fill: #d6e5f4; fill-opacity: 0.9"/>
    <path clip-path="url(#p5f70075fae)" style="fill: #d0e2f2; fill-opacity: 0.9"/>
    <path clip-path="url(#p5f70075fae)" style="fill: #cbdef1; fill-opacity: 0.9"/>
    <path clip-path="url(#p5f70075fae)" style="fill: #c6dbef; fill-opacity: 0.9"/>
    <path clip-path="url(#p5f70075fae)" style="fill: #bed8ec; fill-opacity: 0.9"/>
    <path clip-path="url(#p5f70075fae)" style="fill: #b5d4e9; fill-opacity: 0.9"/>
    <path clip-path="url(#p5f70075fae)" style="fill: #add0e6; fill-opacity: 0.9"/>
    <path clip-path="url(#p5f70075fae)" style="fill: #a5cde3; fill-opacity: 0.9"/>
    <path clip-path="url(#p5f70075fae)" style="fill: #9cc9e1; fill-opacity: 0.9"/>
    <path clip-path="url(#p5f70075fae)" style="fill: #91c3de; fill-opacity: 0.9"/>
    <path clip-path="url(#p5f70075fae)" style="fill: #85bcdc; fill-opacity: 0.9"/>
    <path clip-path="url(#p5f70075fae)" style="fill: #7cb7da; fill-opacity: 0.9"/>
    <path clip-path="url(#p5f70075fae)" style="fill: #71b1d7; fill-opacity: 0.9"/>
    <path clip-path="url(#p5f70075fae)" style="fill: #66abd4; fill-opacity: 0.9"/>
    <path clip-path="url(#p5f70075fae)" style="fill: #5da5d1; fill-opacity: 0.9"/>
    <path clip-path="url(#p5f70075fae)" style="fill: #56a0ce; fill-opacity: 0.9"/>
    <path clip-path="url(#p5f70075fae)" style="fill: #4d99ca; fill-opacity: 0.9"/>
    <path clip-path="url(#p5f70075fae)" style="fill: #4493c7; fill-opacity: 0.9"/>
    <path clip-path="url(#p5f70075fae)" style="fill: #3c8cc3; fill-opacity: 0.9"/>
    <path clip-path="url(#p5f70075fae)" style="fill: #3686c0; fill-opacity: 0.9"/>
    <path clip-path="url(#p5f70075fae)" style="fill: #2f7fbc; fill-opacity: 0.9"/>
    <path clip-path="url(#p5f70075fae)" style="fill: #2777b8; fill-opacity: 0.9"/>
    <path clip-path="url(#p5f70075fae)" style="fill: #2070b4; fill-opacity: 0.9"/>
    <path clip-path="url(#p5f70075fae)" style="fill: #1c6ab0; fill-opacity: 0.9"/>
    <path clip-path="url(#p5f70075fae)" style="fill: #1663aa; fill-opacity: 0.9"/>
    <path clip-path="url(#p5f70075fae)" style="fill: #115ca5; fill-opacity: 0.9"/>
    <path clip-path="url(#p5f70075fae)" style="fill: #0c56a0; fill-opacity: 0.9"/>
    <path clip-path="url(#p5f70075fae)" style="fill: #084f99; fill-opacity: 0.9"/>
    <path clip-path="url(#p5f70075fae)" style="fill: #08488e; fill-opacity: 0.9"/>
    <path clip-path="url(#p5f70075fae)" style="fill: #084184; fill-opacity: 0.9"/>
    <path clip-path="url(#p5f70075fae)" style="fill: #083a7a; fill-opacity: 0.9"/>
    <path clip-path="url(#p5f70075fae)" style="fill: #083370; fill-opacity: 0.9"/>
    <path clip-path="url(#p5f70075fae)" style="fill: #08306b; fill-opacity: 0.9"/>
   </g>
   <g id="QuadContourSet_2">
    <path clip-path="url(#p5f70075fae)" style="fill: none"/>
    <path clip-path="url(#p5f70075fae)" style="fill: none"/>
    <path clip-path="url(#p5f70075fae)" style="fill: none"/>
    <path clip-path="url(#p5f70075fae)" style="fill: none"/>
    <path clip-path="url(#p5f70075fae)" style="fill: none"/>
    <path clip-path="url(#p5f70075fae)" style="fill: none"/>
    <path clip-path="url(#p5f70075fae)" style="fill: none"/>
    <path clip-path="url(#p5f70075fae)" style="fill: none"/>
    <path clip-path="url(#p5f70075fae)" style="fill: none"/>
    <path clip-path="url(#p5f70075fae)" style="fill: none"/>
    <path clip-path="url(#p5f70075fae)" style="fill: none"/>
    <path clip-path="url(#p5f70075fae)" style="fill: none"/>
    <path clip-path="url(#p5f70075fae)" style="fill: none"/>
    <path clip-path="url(#p5f70075fae)" style="fill: none"/>
    <path clip-path="url(#p5f70075fae)" style="fill: none"/>
    <path clip-path="url(#p5f70075fae)" style="fill: none"/>
    <path clip-path="url(#p5f70075fae)" style="fill: none"/>
    <path clip-path="url(#p5f70075fae)" style="fill: none"/>
    <path clip-path="url(#p5f70075fae)" style="fill: none"/>
    <path clip-path="url(#p5f70075fae)" style="fill: none"/>
    <path clip-path="url(#p5f70075fae)" style="fill: none"/>
    <path clip-path="url(#p5f70075fae)" style="fill: none"/>
    <path clip-path="url(#p5f70075fae)" style="fill: none"/>
    <path clip-path="url(#p5f70075fae)" style="fill: none"/>
    <path clip-path="url(#p5f70075fae)" style="fill: none"/>
    <path clip-path="url(#p5f70075fae)" style="fill: none"/>
    <path clip-path="url(#p5f70075fae)" style="fill: none"/>
    <path clip-path="url(#p5f70075fae)" style="fill: none"/>
    <path clip-path="url(#p5f70075fae)" style="fill: none"/>
    <path clip-path="url(#p5f70075fae)" style="fill: none"/>
    <path clip-path="url(#p5f70075fae)" style="fill: none"/>
    <path clip-path="url(#p5f70075fae)" style="fill: none"/>
    <path clip-path="url(#p5f70075fae)" style="fill: none"/>
    <path clip-path="url(#p5f70075fae)" style="fill: none"/>
    <path clip-path="url(#p5f70075fae)" style="fill: none"/>
    <path clip-path="url(#p5f70075fae)" style="fill: none"/>
    <path clip-path="url(#p5f70075fae)" style="fill: none"/>
    <path clip-path="url(#p5f70075fae)" style="fill: none"/>
    <path clip-path="url(#p5f70075fae)" style="fill: none"/>
   </g>
  </g>
 </g>
 <defs>
  <clipPath id="p5f70075fae">
   <rect x="0" y="0" width="576" height="820.697178"/>
  </clipPath>
 </defs>
</svg>
