<?xml version="1.0" encoding="utf-8" standalone="no"?>
<!DOCTYPE svg PUBLIC "-//W3C//DTD SVG 1.1//EN"
  "http://www.w3.org/Graphics/SVG/1.1/DTD/svg11.dtd">
<svg xmlns:xlink="http://www.w3.org/1999/xlink" width="576pt" height="818.092691pt" viewBox="0 0 576 818.092691" xmlns="http://www.w3.org/2000/svg" version="1.1">
 <metadata>
  <rdf:RDF xmlns:dc="http://purl.org/dc/elements/1.1/" xmlns:cc="http://creativecommons.org/ns#" xmlns:rdf="http://www.w3.org/1999/02/22-rdf-syntax-ns#">
   <cc:Work>
    <dc:type rdf:resource="http://purl.org/dc/dcmitype/StillImage"/>
    <dc:date>2025-07-25T22:46:03.296561</dc:date>
    <dc:format>image/svg+xml</dc:format>
    <dc:creator>
     <cc:Agent>
      <dc:title>Matplotlib v3.10.3, https://matplotlib.org/</dc:title>
     </cc:Agent>
    </dc:creator>
   </cc:Work>
  </rdf:RDF>
 </metadata>
 <defs>
  <style type="text/css">*{stroke-linejoin: round; stroke-linecap: butt}</style>
 </defs>
 <g id="figure_1">
  <g id="patch_1">
   <path d="M 0 818.092691 
L 576 818.092691 
L 576 0 
L 0 0 
L 0 818.092691 
z
" style="fill: none; opacity: 0"/>
  </g>
  <g id="axes_1">
   <g id="QuadContourSet_1">
    <path d="M 189.818182 815.165788 
L 192.927231 818.092691 
L 193.090909 818.092691 
L 193.878007 818.092691 
L 196.029052 814.807178 
L 196.363636 814.725356 
L 197.661449 814.807178 
L 199.636364 815.072454 
L 202.909091 816.773883 
L 205.887878 818.092691 
L 206.181818 818.092691 
L 208.14778 818.092691 
L 206.181818 816.744805 
L 202.909091 815.506937 
L 201.69895 814.807178 
L 199.636364 813.411884 
L 196.363636 812.601201 
L 194.551586 811.521666 
L 193.090909 810.698776 
L 189.818182 811.302189 
L 186.545455 809.250924 
L 185.758235 808.236153 
L 183.272727 805.501568 
L 182.510286 804.95064 
L 180 803.220861 
L 177.2138 801.665127 
L 176.727273 801.193788 
L 173.454545 799.42939 
L 171.732743 798.379614 
L 170.181818 797.064795 
L 166.909091 795.720893 
L 165.844126 795.094102 
L 163.636364 793.968097 
L 160.363636 792.176929 
L 157.090909 792.380391 
L 156.698369 791.808589 
L 155.137191 788.523076 
L 153.818182 787.490767 
L 150.545455 785.426639 
L 150.238573 785.237563 
L 147.272727 783.338914 
L 144.96506 781.95205 
L 144 780.999822 
L 140.727273 779.489245 
L 139.573387 778.666537 
L 137.454545 777.047547 
L 134.267983 775.381025 
L 134.181818 775.295738 
L 130.909091 774.917084 
L 127.636364 773.674698 
L 126.814943 772.095512 
L 124.363636 769.756011 
L 123.412271 768.809999 
L 121.090909 767.019223 
L 118.529939 765.524486 
L 117.818182 764.81671 
L 114.545455 763.088291 
L 113.201776 762.238973 
L 111.272727 760.656889 
L 108.006086 758.953461 
L 108 758.947446 
L 104.727273 757.572769 
L 101.812114 755.667948 
L 101.454545 755.330847 
L 100.034686 755.667948 
L 98.181818 755.954451 
L 97.987763 755.667948 
L 96.85566 752.382435 
L 94.909091 751.055822 
L 92.752696 749.096922 
L 91.636364 747.993901 
L 88.363636 746.121349 
L 87.921902 745.811409 
L 85.090909 743.825066 
L 83.239295 742.525896 
L 81.818182 741.12037 
L 78.564682 739.240384 
L 78.545455 739.221424 
L 75.272727 737.766175 
L 72.131098 735.954871 
L 72 735.856251 
L 68.727273 734.3087 
L 67.880107 732.669358 
L 65.454545 730.169703 
L 64.558561 729.383845 
L 62.181818 727.525733 
L 60.113199 726.098332 
L 58.909091 724.903483 
L 55.636364 723.022307 
L 55.350957 722.81282 
L 52.363636 720.753314 
L 50.729814 719.527307 
L 49.090909 718.023535 
L 46.389704 716.241794 
L 45.818182 715.672746 
L 43.141598 716.241794 
L 42.545455 716.434535 
L 42.461317 716.241794 
L 39.90111 712.956281 
L 39.272727 712.608709 
L 37.274604 709.670768 
L 36 708.410538 
L 32.969248 706.385255 
L 32.727273 706.142693 
L 29.454545 703.738657 
L 28.630127 703.099743 
L 26.181818 701.196264 
L 24.396832 699.81423 
L 22.909091 698.337675 
L 20.359563 696.528717 
L 19.636364 695.80228 
L 16.363636 695.307085 
L 13.090909 693.802596 
L 12.77052 693.243204 
L 11.572351 689.957691 
L 9.818182 688.413579 
L 7.876084 686.672179 
L 6.545455 685.335783 
L 4.05395 683.386666 
L 3.272727 682.604489 
L 0 680.204898 
L 0 681.792717 
L 1.986496 683.386666 
L 3.272727 684.326702 
L 6.131807 686.672179 
L 6.545455 686.983738 
L 9.804382 689.957691 
L 9.818182 689.975588 
L 11.689696 693.243204 
L 13.090909 695.689685 
L 14.225097 696.528717 
L 15.715675 699.81423 
L 16.363636 701.046772 
L 19.636364 702.436256 
L 22.909091 700.513499 
L 26.181818 702.482451 
L 26.975796 703.099743 
L 29.454545 705.020742 
L 31.215237 706.385255 
L 32.727273 707.557064 
L 35.454678 709.670768 
L 36 710.140211 
L 38.268246 712.956281 
L 39.272727 714.587094 
L 40.772893 716.241794 
L 42.298924 719.527307 
L 42.545455 719.90049 
L 45.484002 722.81282 
L 45.818182 723.707945 
L 47.596637 722.81282 
L 49.090909 720.902149 
L 52.363636 722.131292 
L 53.352195 722.81282 
L 55.636364 724.489395 
L 58.04107 726.098332 
L 58.909091 726.71926 
L 62.181818 728.901039 
L 62.799384 729.383845 
L 65.454545 731.712657 
L 66.382889 732.669358 
L 68.224639 735.954871 
L 68.727273 736.76108 
L 70.857756 739.240384 
L 72 741.607848 
L 74.28822 742.525896 
L 75.272727 744.016558 
L 76.386123 742.525896 
L 78.545455 741.907587 
L 80.250581 742.525896 
L 81.818182 743.194233 
L 85.090909 745.090107 
L 86.118929 745.811409 
L 88.363636 747.38639 
L 90.801536 749.096922 
L 91.636364 749.682672 
L 94.508632 752.382435 
L 94.909091 752.916082 
L 96.77299 755.667948 
L 98.181818 757.747945 
L 99.863674 758.953461 
L 101.216397 762.238973 
L 101.454545 762.579808 
L 104.727273 762.708088 
L 105.047648 762.238973 
L 108 761.433038 
L 111.272727 762.235776 
L 111.276626 762.238973 
L 114.545455 764.305147 
L 116.474532 765.524486 
L 117.818182 766.41191 
L 121.090909 768.394554 
L 121.629446 768.809999 
L 124.363636 771.528805 
L 124.957426 772.095512 
L 127.002275 775.381025 
L 127.636364 776.306748 
L 129.900502 778.666537 
L 130.909091 780.466704 
L 134.181818 781.747393 
L 136.642907 778.666537 
L 137.454545 778.55504 
L 137.600466 778.666537 
L 140.727273 780.895915 
L 142.629708 781.95205 
L 144 782.887055 
L 147.272727 784.601921 
L 148.265653 785.237563 
L 150.545455 786.642193 
L 153.033647 788.523076 
L 153.818182 789.389988 
L 155.478543 791.808589 
L 157.090909 794.157275 
L 158.403782 795.094102 
L 159.989532 798.379614 
L 160.363636 798.924562 
L 163.636364 800.82858 
L 165.202089 798.379614 
L 166.909091 797.949956 
L 168.407328 798.379614 
L 170.181818 799.107217 
L 173.454545 800.654718 
L 175.111779 801.665127 
L 176.727273 802.687572 
L 180 804.605722 
L 180.500551 804.95064 
L 183.272727 806.953769 
L 184.438306 808.236153 
L 186.545455 810.95239 
L 187.386874 811.521666 
L 189.539081 814.807178 
z
M 202.909091 807.377798 
L 205.299396 804.95064 
L 202.909091 802.550996 
L 200.497895 804.95064 
z
M 201.162723 804.95064 
L 202.909091 803.21264 
L 204.640328 804.95064 
L 202.909091 806.708568 
z
" clip-path="url(#p76a3180e4c)" style="fill: #f5f9fe; fill-opacity: 0.9"/>
    <path d="M 189.818182 816.842294 
L 191.146393 818.092691 
L 192.927231 818.092691 
L 189.818182 815.165788 
L 189.539081 814.807178 
L 187.386874 811.521666 
L 186.545455 810.95239 
L 184.438306 808.236153 
L 183.272727 806.953769 
L 180.500551 804.95064 
L 180 804.605722 
L 176.727273 802.687572 
L 175.111779 801.665127 
L 173.454545 800.654718 
L 170.181818 799.107217 
L 168.407328 798.379614 
L 166.909091 797.949956 
L 165.202089 798.379614 
L 163.636364 800.82858 
L 160.363636 798.924562 
L 159.989532 798.379614 
L 158.403782 795.094102 
L 157.090909 794.157275 
L 155.478543 791.808589 
L 153.818182 789.389988 
L 153.033647 788.523076 
L 150.545455 786.642193 
L 148.265653 785.237563 
L 147.272727 784.601921 
L 144 782.887055 
L 142.629708 781.95205 
L 140.727273 780.895915 
L 137.600466 778.666537 
L 137.454545 778.55504 
L 136.642907 778.666537 
L 134.181818 781.747393 
L 130.909091 780.466704 
L 129.900502 778.666537 
L 127.636364 776.306748 
L 127.002275 775.381025 
L 124.957426 772.095512 
L 124.363636 771.528805 
L 121.629446 768.809999 
L 121.090909 768.394554 
L 117.818182 766.41191 
L 116.474532 765.524486 
L 114.545455 764.305147 
L 111.276626 762.238973 
L 111.272727 762.235776 
L 108 761.433038 
L 105.047648 762.238973 
L 104.727273 762.708088 
L 101.454545 762.579808 
L 101.216397 762.238973 
L 99.863674 758.953461 
L 98.181818 757.747945 
L 96.77299 755.667948 
L 94.909091 752.916082 
L 94.508632 752.382435 
L 91.636364 749.682672 
L 90.801536 749.096922 
L 88.363636 747.38639 
L 86.118929 745.811409 
L 85.090909 745.090107 
L 81.818182 743.194233 
L 80.250581 742.525896 
L 78.545455 741.907587 
L 76.386123 742.525896 
L 75.272727 744.016558 
L 74.28822 742.525896 
L 72 741.607848 
L 70.857756 739.240384 
L 68.727273 736.76108 
L 68.224639 735.954871 
L 66.382889 732.669358 
L 65.454545 731.712657 
L 62.799384 729.383845 
L 62.181818 728.901039 
L 58.909091 726.71926 
L 58.04107 726.098332 
L 55.636364 724.489395 
L 53.352195 722.81282 
L 52.363636 722.131292 
L 49.090909 720.902149 
L 47.596637 722.81282 
L 45.818182 723.707945 
L 45.484002 722.81282 
L 42.545455 719.90049 
L 42.298924 719.527307 
L 40.772893 716.241794 
L 39.272727 714.587094 
L 38.268246 712.956281 
L 36 710.140211 
L 35.454678 709.670768 
L 32.727273 707.557064 
L 31.215237 706.385255 
L 29.454545 705.020742 
L 26.975796 703.099743 
L 26.181818 702.482451 
L 22.909091 700.513499 
L 19.636364 702.436256 
L 16.363636 701.046772 
L 15.715675 699.81423 
L 14.225097 696.528717 
L 13.090909 695.689685 
L 11.689696 693.243204 
L 9.818182 689.975588 
L 9.804382 689.957691 
L 6.545455 686.983738 
L 6.131807 686.672179 
L 3.272727 684.326702 
L 1.986496 683.386666 
L 0 681.792717 
L 0 683.380536 
L 0.007639 683.386666 
L 3.272727 685.77294 
L 4.368878 686.672179 
L 6.545455 688.311576 
L 8.349306 689.957691 
L 9.818182 691.862678 
L 10.608873 693.243204 
L 12.20621 696.528717 
L 13.090909 697.576775 
L 14.514774 699.81423 
L 16.15815 703.099743 
L 16.363636 703.310374 
L 18.648912 706.385255 
L 19.636364 708.50187 
L 22.562538 709.670768 
L 22.909091 710.122965 
L 23.335098 709.670768 
L 26.172635 706.385255 
L 26.181818 706.379368 
L 29.454545 706.302827 
L 29.560906 706.385255 
L 32.727273 708.839149 
L 33.800348 709.670768 
L 36 711.56435 
L 37.121152 712.956281 
L 39.041529 716.241794 
L 39.272727 716.474945 
L 41.068623 719.527307 
L 42.545455 721.762841 
L 43.604886 722.81282 
L 44.950142 726.098332 
L 45.818182 727.076237 
L 48.443017 729.383845 
L 49.090909 731.587263 
L 52.216071 729.383845 
L 52.363636 729.203928 
L 54.721729 726.098332 
L 55.636364 725.956483 
L 55.848371 726.098332 
L 58.909091 728.287779 
L 60.605973 729.383845 
L 62.181818 730.477331 
L 64.714747 732.669358 
L 65.454545 733.378741 
L 67.060641 735.954871 
L 68.727273 738.628099 
L 69.253413 739.240384 
L 70.902984 742.525896 
L 72 743.877458 
L 73.791003 745.811409 
L 75.236179 749.096922 
L 75.272727 749.134386 
L 78.540799 752.382435 
L 78.545455 752.3918 
L 78.565055 752.382435 
L 81.084667 749.096922 
L 81.818182 748.073436 
L 85.090909 747.456924 
L 88.363636 748.65143 
L 88.998564 749.096922 
L 91.636364 750.947713 
L 93.16276 752.382435 
L 94.909091 754.709576 
L 95.558217 755.667948 
L 97.575932 758.953461 
L 98.181818 759.569172 
L 99.963244 762.238973 
L 101.454545 764.373303 
L 102.92298 765.524486 
L 104.279625 768.809999 
L 104.727273 769.266055 
L 108 771.327344 
L 109.749808 768.809999 
L 111.272727 766.540578 
L 114.458384 765.524486 
L 114.545455 765.522004 
L 114.549382 765.524486 
L 117.818182 767.683389 
L 119.648897 768.809999 
L 121.090909 769.859467 
L 123.336338 772.095512 
L 124.363636 773.301599 
L 125.787971 775.381025 
L 127.636364 778.079542 
L 128.199566 778.666537 
L 130.049132 781.95205 
L 130.909091 782.857485 
L 133.015518 785.237563 
L 134.181818 787.200733 
L 136.757513 788.523076 
L 137.454545 790.364601 
L 138.658471 788.523076 
L 140.727273 785.331335 
L 140.788385 785.237563 
L 144 784.616009 
L 145.374105 785.237563 
L 147.272727 786.351616 
L 150.545455 787.857747 
L 151.425608 788.523076 
L 153.818182 791.166872 
L 154.258718 791.808589 
L 156.305719 795.094102 
L 157.090909 795.934159 
L 158.769706 798.379614 
L 160.363636 800.701446 
L 161.561344 801.665127 
L 163.083329 804.95064 
L 163.636364 805.51027 
L 166.70965 808.236153 
L 166.909091 808.607377 
L 167.71573 808.236153 
L 169.79804 804.95064 
L 170.181818 804.355581 
L 173.454545 802.645524 
L 176.727273 803.959531 
L 178.393859 804.95064 
L 180 806.103567 
L 183.018598 808.236153 
L 183.272727 808.466071 
L 185.56428 811.521666 
L 186.545455 812.637248 
L 188.234281 814.807178 
z
M 196.363636 818.092691 
L 199.636364 818.092691 
L 202.55047 818.092691 
L 202.909091 818.040829 
L 203.026232 818.092691 
L 205.887878 818.092691 
L 202.909091 816.773883 
L 199.636364 815.072454 
L 197.661449 814.807178 
L 196.363636 814.725356 
L 196.029052 814.807178 
L 193.878007 818.092691 
z
M 202.909091 806.708568 
L 204.640328 804.95064 
L 202.909091 803.21264 
L 201.162723 804.95064 
z
M 201.827552 804.95064 
L 202.909091 803.874283 
L 203.981259 804.95064 
L 202.909091 806.039339 
z
" clip-path="url(#p76a3180e4c)" style="fill: #eff6fc; fill-opacity: 0.9"/>
    <path d="M 170.181818 816.144956 
L 172.32117 814.807178 
L 173.454545 813.014748 
L 174.404334 811.521666 
L 176.529873 808.236153 
L 176.727273 807.935805 
L 180 807.638885 
L 180.845411 808.236153 
L 183.272727 810.432217 
L 184.089763 811.521666 
L 186.545455 814.313754 
L 186.92948 814.807178 
L 188.714648 818.092691 
L 189.818182 818.092691 
L 191.146393 818.092691 
L 189.818182 816.842294 
L 188.234281 814.807178 
L 186.545455 812.637248 
L 185.56428 811.521666 
L 183.272727 808.466071 
L 183.018598 808.236153 
L 180 806.103567 
L 178.393859 804.95064 
L 176.727273 803.959531 
L 173.454545 802.645524 
L 170.181818 804.355581 
L 169.79804 804.95064 
L 167.71573 808.236153 
L 166.909091 808.607377 
L 166.70965 808.236153 
L 163.636364 805.51027 
L 163.083329 804.95064 
L 161.561344 801.665127 
L 160.363636 800.701446 
L 158.769706 798.379614 
L 157.090909 795.934159 
L 156.305719 795.094102 
L 154.258718 791.808589 
L 153.818182 791.166872 
L 151.425608 788.523076 
L 150.545455 787.857747 
L 147.272727 786.351616 
L 145.374105 785.237563 
L 144 784.616009 
L 140.788385 785.237563 
L 140.727273 785.331335 
L 138.658471 788.523076 
L 137.454545 790.364601 
L 136.757513 788.523076 
L 134.181818 787.200733 
L 133.015518 785.237563 
L 130.909091 782.857485 
L 130.049132 781.95205 
L 128.199566 778.666537 
L 127.636364 778.079542 
L 125.787971 775.381025 
L 124.363636 773.301599 
L 123.336338 772.095512 
L 121.090909 769.859467 
L 119.648897 768.809999 
L 117.818182 767.683389 
L 114.549382 765.524486 
L 114.545455 765.522004 
L 114.458384 765.524486 
L 111.272727 766.540578 
L 109.749808 768.809999 
L 108 771.327344 
L 104.727273 769.266055 
L 104.279625 768.809999 
L 102.92298 765.524486 
L 101.454545 764.373303 
L 99.963244 762.238973 
L 98.181818 759.569172 
L 97.575932 758.953461 
L 95.558217 755.667948 
L 94.909091 754.709576 
L 93.16276 752.382435 
L 91.636364 750.947713 
L 88.998564 749.096922 
L 88.363636 748.65143 
L 85.090909 747.456924 
L 81.818182 748.073436 
L 81.084667 749.096922 
L 78.565055 752.382435 
L 78.545455 752.3918 
L 78.540799 752.382435 
L 75.272727 749.134386 
L 75.236179 749.096922 
L 73.791003 745.811409 
L 72 743.877458 
L 70.902984 742.525896 
L 69.253413 739.240384 
L 68.727273 738.628099 
L 67.060641 735.954871 
L 65.454545 733.378741 
L 64.714747 732.669358 
L 62.181818 730.477331 
L 60.605973 729.383845 
L 58.909091 728.287779 
L 55.848371 726.098332 
L 55.636364 725.956483 
L 54.721729 726.098332 
L 52.363636 729.203928 
L 52.216071 729.383845 
L 49.090909 731.587263 
L 48.443017 729.383845 
L 45.818182 727.076237 
L 44.950142 726.098332 
L 43.604886 722.81282 
L 42.545455 721.762841 
L 41.068623 719.527307 
L 39.272727 716.474945 
L 39.041529 716.241794 
L 37.121152 712.956281 
L 36 711.56435 
L 33.800348 709.670768 
L 32.727273 708.839149 
L 29.560906 706.385255 
L 29.454545 706.302827 
L 26.181818 706.379368 
L 26.172635 706.385255 
L 23.335098 709.670768 
L 22.909091 710.122965 
L 22.562538 709.670768 
L 19.636364 708.50187 
L 18.648912 706.385255 
L 16.363636 703.310374 
L 16.15815 703.099743 
L 14.514774 699.81423 
L 13.090909 697.576775 
L 12.20621 696.528717 
L 10.608873 693.243204 
L 9.818182 691.862678 
L 8.349306 689.957691 
L 6.545455 688.311576 
L 4.368878 686.672179 
L 3.272727 685.77294 
L 0.007639 683.386666 
L 0 683.380536 
L 0 683.386666 
L 0 686.672179 
L 0 689.957691 
L 0 693.243204 
L 0 694.347542 
L 1.123086 693.243204 
L 3.272727 690.967661 
L 4.16469 689.957691 
L 6.545455 689.639415 
L 6.89423 689.957691 
L 8.646292 693.243204 
L 9.818182 694.39224 
L 10.613257 696.528717 
L 13.090909 699.463864 
L 13.313874 699.81423 
L 14.129302 703.099743 
L 16.363636 705.390018 
L 17.103305 706.385255 
L 17.815289 709.670768 
L 19.636364 711.552763 
L 20.930201 712.956281 
L 22.022905 716.241794 
L 22.909091 717.174958 
L 26.181818 717.768753 
L 27.643636 716.241794 
L 29.454545 714.22378 
L 30.510583 712.956281 
L 32.727273 711.654911 
L 35.707524 712.956281 
L 36 713.108094 
L 36.96799 716.241794 
L 39.272727 718.566003 
L 39.838322 719.527307 
L 40.965138 722.81282 
L 42.545455 724.421598 
L 43.297019 726.098332 
L 45.818182 728.938588 
L 46.324649 729.383845 
L 46.950475 732.669358 
L 49.090909 734.870836 
L 50.697707 735.954871 
L 51.5326 739.240384 
L 52.363636 740.12061 
L 53.97712 739.240384 
L 55.636364 737.389236 
L 56.813117 735.954871 
L 58.909091 733.239435 
L 59.335469 732.669358 
L 62.181818 732.162348 
L 62.767678 732.669358 
L 65.454545 735.24576 
L 65.896643 735.954871 
L 66.754005 739.240384 
L 68.727273 741.233571 
L 69.38759 742.525896 
L 72 745.744477 
L 72.061985 745.811409 
L 72.953587 749.096922 
L 75.272727 751.474136 
L 76.186625 752.382435 
L 77.12102 755.667948 
L 78.545455 757.160266 
L 80.888135 758.953461 
L 81.818182 759.943742 
L 83.300751 758.953461 
L 85.090909 756.632466 
L 85.785892 755.667948 
L 88.109205 752.382435 
L 88.363636 752.249209 
L 91.636364 752.212753 
L 91.816887 752.382435 
L 93.232231 755.667948 
L 94.909091 757.351627 
L 95.727815 758.953461 
L 98.181818 761.447256 
L 98.710092 762.238973 
L 99.929011 765.524486 
L 101.454545 767.096195 
L 102.247942 768.809999 
L 104.727273 771.335899 
L 105.645136 772.095512 
L 106.655564 775.381025 
L 108 776.784835 
L 110.554688 778.666537 
L 111.272727 779.429057 
L 112.162973 778.666537 
L 114.460607 775.381025 
L 114.545455 775.256309 
L 116.659605 772.095512 
L 117.818182 770.361639 
L 121.090909 771.363152 
L 121.826342 772.095512 
L 124.363636 775.074394 
L 124.573668 775.381025 
L 125.673153 778.666537 
L 127.636364 780.661025 
L 128.365376 781.95205 
L 130.909091 784.630279 
L 131.446552 785.237563 
L 132.342482 788.523076 
L 134.181818 790.409269 
L 135.140763 791.808589 
L 137.454545 794.166258 
L 139.259861 795.094102 
L 140.337525 798.379614 
L 140.727273 798.791654 
L 141.121901 798.379614 
L 143.2776 795.094102 
L 144 793.981634 
L 145.404016 791.808589 
L 147.272727 788.954326 
L 150.545455 790.06982 
L 151.996463 791.808589 
L 153.818182 793.655253 
L 154.644891 795.094102 
L 157.090909 797.711043 
L 157.549881 798.379614 
L 158.708458 801.665127 
L 160.363636 803.351678 
L 161.186603 804.95064 
L 163.636364 807.429612 
L 164.545695 808.236153 
L 165.538438 811.521666 
L 166.909091 812.926774 
L 168.878883 814.807178 
z
M 202.909091 818.092691 
L 203.026232 818.092691 
L 202.909091 818.040829 
L 202.55047 818.092691 
z
M 202.909091 806.039339 
L 203.981259 804.95064 
L 202.909091 803.874283 
L 201.827552 804.95064 
z
M 202.492381 804.95064 
L 202.909091 804.535926 
L 203.322191 804.95064 
L 202.909091 805.370109 
z
" clip-path="url(#p76a3180e4c)" style="fill: #eaf3fb; fill-opacity: 0.9"/>
    <path d="M 32.727273 815.450438 
L 34.180788 818.092691 
L 36 818.092691 
L 39.272727 818.092691 
L 42.545455 818.092691 
L 45.818182 818.092691 
L 49.090909 818.092691 
L 52.363636 818.092691 
L 55.636364 818.092691 
L 58.909091 818.092691 
L 62.181818 818.092691 
L 62.81899 818.092691 
L 62.181818 817.910292 
L 58.909091 814.819968 
L 58.894331 814.807178 
L 56.029942 811.521666 
L 55.636364 811.1398 
L 52.878891 808.236153 
L 52.363636 807.652095 
L 49.319772 804.95064 
L 49.090909 804.660982 
L 45.818182 801.70234 
L 45.757934 801.665127 
L 42.545455 798.84216 
L 41.684456 798.379614 
L 39.272727 797.554787 
L 36 795.674073 
L 32.727273 795.497889 
L 32.43628 795.094102 
L 29.454545 792.52627 
L 28.798298 791.808589 
L 26.248348 788.523076 
L 26.181818 788.461389 
L 23.586244 785.237563 
L 22.909091 784.396508 
L 20.419449 781.95205 
L 19.636364 780.643527 
L 17.339262 778.666537 
L 16.363636 777.717712 
L 13.588543 775.381025 
L 13.090909 774.962007 
L 9.818182 774.14463 
L 6.908346 772.095512 
L 6.545455 771.876807 
L 3.926747 768.809999 
L 3.272727 768.242814 
L 0.679366 765.524486 
L 0 764.751108 
L 0 765.524486 
L 0 768.809999 
L 0 772.095512 
L 0 775.381025 
L 0 778.666537 
L 0 781.95205 
L 0 784.598256 
L 3.272727 784.719159 
L 3.502093 785.237563 
L 3.713054 788.523076 
L 6.545455 790.854846 
L 7.01532 791.808589 
L 8.147219 795.094102 
L 9.818182 796.470464 
L 11.410021 798.379614 
L 13.090909 800.355195 
L 14.349821 801.665127 
L 16.363636 804.142852 
L 17.83512 804.95064 
L 19.636364 806.680429 
L 22.18288 804.95064 
L 22.909091 804.134431 
L 26.181818 803.963583 
L 26.630977 804.95064 
L 27.216119 808.236153 
L 29.454545 809.526394 
L 30.469196 811.521666 
L 31.981943 814.807178 
z
M 108 814.966082 
L 111.272727 817.501723 
L 112.349181 818.092691 
L 114.545455 818.092691 
L 117.818182 818.092691 
L 121.090909 818.092691 
L 124.363636 818.092691 
L 127.636364 818.092691 
L 130.909091 818.092691 
L 134.181818 818.092691 
L 137.454545 818.092691 
L 140.727273 818.092691 
L 144 818.092691 
L 147.272727 818.092691 
L 150.545455 818.092691 
L 153.818182 818.092691 
L 157.090909 818.092691 
L 160.363636 818.092691 
L 163.636364 818.092691 
L 166.909091 818.092691 
L 170.181818 818.092691 
L 173.454545 818.092691 
L 176.727273 818.092691 
L 180 818.092691 
L 183.272727 818.092691 
L 186.545455 818.092691 
L 188.714648 818.092691 
L 186.92948 814.807178 
L 186.545455 814.313754 
L 184.089763 811.521666 
L 183.272727 810.432217 
L 180.845411 808.236153 
L 180 807.638885 
L 176.727273 807.935805 
L 176.529873 808.236153 
L 174.404334 811.521666 
L 173.454545 813.014748 
L 172.32117 814.807178 
L 170.181818 816.144956 
L 168.878883 814.807178 
L 166.909091 812.926774 
L 165.538438 811.521666 
L 164.545695 808.236153 
L 163.636364 807.429612 
L 161.186603 804.95064 
L 160.363636 803.351678 
L 158.708458 801.665127 
L 157.549881 798.379614 
L 157.090909 797.711043 
L 154.644891 795.094102 
L 153.818182 793.655253 
L 151.996463 791.808589 
L 150.545455 790.06982 
L 147.272727 788.954326 
L 145.404016 791.808589 
L 144 793.981634 
L 143.2776 795.094102 
L 141.121901 798.379614 
L 140.727273 798.791654 
L 140.337525 798.379614 
L 139.259861 795.094102 
L 137.454545 794.166258 
L 135.140763 791.808589 
L 134.181818 790.409269 
L 132.342482 788.523076 
L 131.446552 785.237563 
L 130.909091 784.630279 
L 128.365376 781.95205 
L 127.636364 780.661025 
L 125.673153 778.666537 
L 124.573668 775.381025 
L 124.363636 775.074394 
L 121.826342 772.095512 
L 121.090909 771.363152 
L 117.818182 770.361639 
L 116.659605 772.095512 
L 114.545455 775.256309 
L 114.460607 775.381025 
L 112.162973 778.666537 
L 111.272727 779.429057 
L 110.554688 778.666537 
L 108 776.784835 
L 106.655564 775.381025 
L 105.645136 772.095512 
L 104.727273 771.335899 
L 102.247942 768.809999 
L 101.454545 767.096195 
L 99.929011 765.524486 
L 98.710092 762.238973 
L 98.181818 761.447256 
L 95.727815 758.953461 
L 94.909091 757.351627 
L 93.232231 755.667948 
L 91.816887 752.382435 
L 91.636364 752.212753 
L 88.363636 752.249209 
L 88.109205 752.382435 
L 85.785892 755.667948 
L 85.090909 756.632466 
L 83.300751 758.953461 
L 81.818182 759.943742 
L 80.888135 758.953461 
L 78.545455 757.160266 
L 77.12102 755.667948 
L 76.186625 752.382435 
L 75.272727 751.474136 
L 72.953587 749.096922 
L 72.061985 745.811409 
L 72 745.744477 
L 69.38759 742.525896 
L 68.727273 741.233571 
L 66.754005 739.240384 
L 65.896643 735.954871 
L 65.454545 735.24576 
L 62.767678 732.669358 
L 62.181818 732.162348 
L 59.335469 732.669358 
L 58.909091 733.239435 
L 56.813117 735.954871 
L 55.636364 737.389236 
L 53.97712 739.240384 
L 52.363636 740.12061 
L 51.5326 739.240384 
L 50.697707 735.954871 
L 49.090909 734.870836 
L 46.950475 732.669358 
L 46.324649 729.383845 
L 45.818182 728.938588 
L 43.297019 726.098332 
L 42.545455 724.421598 
L 40.965138 722.81282 
L 39.838322 719.527307 
L 39.272727 718.566003 
L 36.96799 716.241794 
L 36 713.108094 
L 35.707524 712.956281 
L 32.727273 711.654911 
L 30.510583 712.956281 
L 29.454545 714.22378 
L 27.643636 716.241794 
L 26.181818 717.768753 
L 22.909091 717.174958 
L 22.022905 716.241794 
L 20.930201 712.956281 
L 19.636364 711.552763 
L 17.815289 709.670768 
L 17.103305 706.385255 
L 16.363636 705.390018 
L 14.129302 703.099743 
L 13.313874 699.81423 
L 13.090909 699.463864 
L 10.613257 696.528717 
L 9.818182 694.39224 
L 8.646292 693.243204 
L 6.89423 689.957691 
L 6.545455 689.639415 
L 4.16469 689.957691 
L 3.272727 690.967661 
L 1.123086 693.243204 
L 0 694.347542 
L 0 696.528717 
L 0 699.81423 
L 0 703.099743 
L 0 706.385255 
L 0 709.670768 
L 0 712.956281 
L 0 716.241794 
L 0 719.527307 
L 0 722.796039 
L 0.014531 722.81282 
L 3.272727 725.566577 
L 3.973605 726.098332 
L 6.545455 728.776015 
L 7.4471 729.383845 
L 9.818182 730.951693 
L 11.769273 732.669358 
L 13.090909 733.624414 
L 15.30991 735.954871 
L 16.363636 737.183213 
L 18.000246 739.240384 
L 19.636364 741.322066 
L 21.201545 742.525896 
L 22.909091 744.720575 
L 23.785456 745.811409 
L 26.181818 747.391083 
L 28.004831 749.096922 
L 29.454545 750.524496 
L 32.727273 752.353567 
L 32.766684 752.382435 
L 36 754.458546 
L 37.809758 755.667948 
L 39.272727 756.718198 
L 41.948609 758.953461 
L 42.545455 759.636824 
L 44.894775 762.238973 
L 45.818182 763.503363 
L 47.332018 765.524486 
L 49.090909 766.837112 
L 50.88638 768.809999 
L 52.363636 770.566418 
L 54.996263 772.095512 
L 55.636364 772.777795 
L 58.909091 774.98478 
L 59.584364 775.381025 
L 62.181818 777.431058 
L 64.971469 778.666537 
L 65.454545 778.880482 
L 68.727273 781.407193 
L 69.243953 781.95205 
L 72 785.124164 
L 72.139417 785.237563 
L 74.932933 788.523076 
L 75.272727 788.890958 
L 78.545455 791.558688 
L 78.775805 791.808589 
L 81.818182 793.947468 
L 83.299309 795.094102 
L 85.090909 796.853245 
L 88.275375 798.379614 
L 88.363636 798.436208 
L 91.636364 800.238992 
L 94.290453 801.665127 
L 94.909091 802.091263 
L 97.782458 804.95064 
L 98.181818 805.412519 
L 101.43748 808.236153 
L 101.454545 808.256945 
L 104.727273 811.388618 
L 104.883552 811.521666 
L 107.770294 814.807178 
z
M 202.909091 805.370109 
L 203.322191 804.95064 
L 202.909091 804.535926 
L 202.492381 804.95064 
z
" clip-path="url(#p76a3180e4c)" style="fill: #e5eff9; fill-opacity: 0.9"/>
    <path d="M 3.272727 818.092691 
L 6.545455 818.092691 
L 9.818182 818.092691 
L 13.090909 818.092691 
L 16.363636 818.092691 
L 19.636364 818.092691 
L 22.909091 818.092691 
L 26.181818 818.092691 
L 29.454545 818.092691 
L 32.727273 818.092691 
L 34.180788 818.092691 
L 32.727273 815.450438 
L 31.981943 814.807178 
L 30.469196 811.521666 
L 29.454545 809.526394 
L 27.216119 808.236153 
L 26.630977 804.95064 
L 26.181818 803.963583 
L 22.909091 804.134431 
L 22.18288 804.95064 
L 19.636364 806.680429 
L 17.83512 804.95064 
L 16.363636 804.142852 
L 14.349821 801.665127 
L 13.090909 800.355195 
L 11.410021 798.379614 
L 9.818182 796.470464 
L 8.147219 795.094102 
L 7.01532 791.808589 
L 6.545455 790.854846 
L 3.713054 788.523076 
L 3.502093 785.237563 
L 3.272727 784.719159 
L 0 784.598256 
L 0 785.237563 
L 0 788.523076 
L 0 791.808589 
L 0 795.094102 
L 0 798.379614 
L 0 801.665127 
L 0 804.95064 
L 0 808.236153 
L 0 811.521666 
L 0 814.807178 
L 0 818.092691 
z
M 58.909091 814.819968 
L 62.181818 817.910292 
L 62.81899 818.092691 
L 65.454545 818.092691 
L 68.727273 818.092691 
L 72 818.092691 
L 75.272727 818.092691 
L 78.545455 818.092691 
L 81.818182 818.092691 
L 85.090909 818.092691 
L 88.363636 818.092691 
L 91.636364 818.092691 
L 94.909091 818.092691 
L 98.181818 818.092691 
L 101.454545 818.092691 
L 104.727273 818.092691 
L 108 818.092691 
L 111.272727 818.092691 
L 112.349181 818.092691 
L 111.272727 817.501723 
L 108 814.966082 
L 107.770294 814.807178 
L 104.883552 811.521666 
L 104.727273 811.388618 
L 101.454545 808.256945 
L 101.43748 808.236153 
L 98.181818 805.412519 
L 97.782458 804.95064 
L 94.909091 802.091263 
L 94.290453 801.665127 
L 91.636364 800.238992 
L 88.363636 798.436208 
L 88.275375 798.379614 
L 85.090909 796.853245 
L 83.299309 795.094102 
L 81.818182 793.947468 
L 78.775805 791.808589 
L 78.545455 791.558688 
L 75.272727 788.890958 
L 74.932933 788.523076 
L 72.139417 785.237563 
L 72 785.124164 
L 69.243953 781.95205 
L 68.727273 781.407193 
L 65.454545 778.880482 
L 64.971469 778.666537 
L 62.181818 777.431058 
L 59.584364 775.381025 
L 58.909091 774.98478 
L 55.636364 772.777795 
L 54.996263 772.095512 
L 52.363636 770.566418 
L 50.88638 768.809999 
L 49.090909 766.837112 
L 47.332018 765.524486 
L 45.818182 763.503363 
L 44.894775 762.238973 
L 42.545455 759.636824 
L 41.948609 758.953461 
L 39.272727 756.718198 
L 37.809758 755.667948 
L 36 754.458546 
L 32.766684 752.382435 
L 32.727273 752.353567 
L 29.454545 750.524496 
L 28.004831 749.096922 
L 26.181818 747.391083 
L 23.785456 745.811409 
L 22.909091 744.720575 
L 21.201545 742.525896 
L 19.636364 741.322066 
L 18.000246 739.240384 
L 16.363636 737.183213 
L 15.30991 735.954871 
L 13.090909 733.624414 
L 11.769273 732.669358 
L 9.818182 730.951693 
L 7.4471 729.383845 
L 6.545455 728.776015 
L 3.973605 726.098332 
L 3.272727 725.566577 
L 0.014531 722.81282 
L 0 722.796039 
L 0 722.81282 
L 0 726.098332 
L 0 729.383845 
L 0 732.669358 
L 0 735.954871 
L 0 739.240384 
L 0 742.525896 
L 0 745.811409 
L 0 749.096922 
L 0 752.382435 
L 0 755.667948 
L 0 758.953461 
L 0 762.238973 
L 0 764.751108 
L 0.679366 765.524486 
L 3.272727 768.242814 
L 3.926747 768.809999 
L 6.545455 771.876807 
L 6.908346 772.095512 
L 9.818182 774.14463 
L 13.090909 774.962007 
L 13.588543 775.381025 
L 16.363636 777.717712 
L 17.339262 778.666537 
L 19.636364 780.643527 
L 20.419449 781.95205 
L 22.909091 784.396508 
L 23.586244 785.237563 
L 26.181818 788.461389 
L 26.248348 788.523076 
L 28.798298 791.808589 
L 29.454545 792.52627 
L 32.43628 795.094102 
L 32.727273 795.497889 
L 36 795.674073 
L 39.272727 797.554787 
L 41.684456 798.379614 
L 42.545455 798.84216 
L 45.757934 801.665127 
L 45.818182 801.70234 
L 49.090909 804.660982 
L 49.319772 804.95064 
L 52.363636 807.652095 
L 52.878891 808.236153 
L 55.636364 811.1398 
L 56.029942 811.521666 
L 58.894331 814.807178 
z
" clip-path="url(#p76a3180e4c)" style="fill: #dfecf7; fill-opacity: 0.9"/>
    <path clip-path="url(#p76a3180e4c)" style="fill: #dae8f6; fill-opacity: 0.9"/>
    <path clip-path="url(#p76a3180e4c)" style="fill: #d6e5f4; fill-opacity: 0.9"/>
    <path clip-path="url(#p76a3180e4c)" style="fill: #d0e2f2; fill-opacity: 0.9"/>
    <path clip-path="url(#p76a3180e4c)" style="fill: #cbdef1; fill-opacity: 0.9"/>
    <path clip-path="url(#p76a3180e4c)" style="fill: #c6dbef; fill-opacity: 0.9"/>
    <path clip-path="url(#p76a3180e4c)" style="fill: #bed8ec; fill-opacity: 0.9"/>
    <path clip-path="url(#p76a3180e4c)" style="fill: #b5d4e9; fill-opacity: 0.9"/>
    <path clip-path="url(#p76a3180e4c)" style="fill: #add0e6; fill-opacity: 0.9"/>
    <path clip-path="url(#p76a3180e4c)" style="fill: #a5cde3; fill-opacity: 0.9"/>
    <path clip-path="url(#p76a3180e4c)" style="fill: #9cc9e1; fill-opacity: 0.9"/>
    <path clip-path="url(#p76a3180e4c)" style="fill: #91c3de; fill-opacity: 0.9"/>
    <path clip-path="url(#p76a3180e4c)" style="fill: #85bcdc; fill-opacity: 0.9"/>
    <path clip-path="url(#p76a3180e4c)" style="fill: #7cb7da; fill-opacity: 0.9"/>
    <path clip-path="url(#p76a3180e4c)" style="fill: #71b1d7; fill-opacity: 0.9"/>
    <path clip-path="url(#p76a3180e4c)" style="fill: #66abd4; fill-opacity: 0.9"/>
    <path clip-path="url(#p76a3180e4c)" style="fill: #5da5d1; fill-opacity: 0.9"/>
    <path clip-path="url(#p76a3180e4c)" style="fill: #56a0ce; fill-opacity: 0.9"/>
    <path clip-path="url(#p76a3180e4c)" style="fill: #4d99ca; fill-opacity: 0.9"/>
    <path clip-path="url(#p76a3180e4c)" style="fill: #4493c7; fill-opacity: 0.9"/>
    <path clip-path="url(#p76a3180e4c)" style="fill: #3c8cc3; fill-opacity: 0.9"/>
    <path clip-path="url(#p76a3180e4c)" style="fill: #3686c0; fill-opacity: 0.9"/>
    <path clip-path="url(#p76a3180e4c)" style="fill: #2f7fbc; fill-opacity: 0.9"/>
    <path clip-path="url(#p76a3180e4c)" style="fill: #2777b8; fill-opacity: 0.9"/>
    <path clip-path="url(#p76a3180e4c)" style="fill: #2070b4; fill-opacity: 0.9"/>
    <path clip-path="url(#p76a3180e4c)" style="fill: #1c6ab0; fill-opacity: 0.9"/>
    <path clip-path="url(#p76a3180e4c)" style="fill: #1663aa; fill-opacity: 0.9"/>
    <path clip-path="url(#p76a3180e4c)" style="fill: #115ca5; fill-opacity: 0.9"/>
    <path clip-path="url(#p76a3180e4c)" style="fill: #0c56a0; fill-opacity: 0.9"/>
    <path clip-path="url(#p76a3180e4c)" style="fill: #084f99; fill-opacity: 0.9"/>
    <path clip-path="url(#p76a3180e4c)" style="fill: #08488e; fill-opacity: 0.9"/>
    <path clip-path="url(#p76a3180e4c)" style="fill: #084184; fill-opacity: 0.9"/>
    <path clip-path="url(#p76a3180e4c)" style="fill: #083a7a; fill-opacity: 0.9"/>
    <path clip-path="url(#p76a3180e4c)" style="fill: #083370; fill-opacity: 0.9"/>
    <path clip-path="url(#p76a3180e4c)" style="fill: #08306b; fill-opacity: 0.9"/>
   </g>
   <g id="QuadContourSet_2">
    <path d="M 208.14778 818.092691 
L 206.181818 816.744805 
L 202.909091 815.506937 
L 201.69895 814.807178 
L 199.636364 813.411884 
L 196.363636 812.601201 
L 194.551586 811.521666 
L 193.090909 810.698776 
L 189.818182 811.302189 
L 186.545455 809.250924 
L 185.758235 808.236153 
L 183.272727 805.501568 
L 182.510286 804.95064 
L 180 803.220861 
L 177.2138 801.665127 
L 176.727273 801.193788 
L 173.454545 799.42939 
L 171.732743 798.379614 
L 170.181818 797.064795 
L 166.909091 795.720893 
L 165.844126 795.094102 
L 163.636364 793.968097 
L 160.363636 792.176929 
L 157.090909 792.380391 
L 156.698369 791.808589 
L 155.137191 788.523076 
L 153.818182 787.490767 
L 150.545455 785.426639 
L 150.238573 785.237563 
L 147.272727 783.338914 
L 144.96506 781.95205 
L 144 780.999822 
L 140.727273 779.489245 
L 139.573387 778.666537 
L 137.454545 777.047547 
L 134.267983 775.381025 
L 134.181818 775.295738 
L 130.909091 774.917084 
L 127.636364 773.674698 
L 126.814943 772.095512 
L 124.363636 769.756011 
L 123.412271 768.809999 
L 121.090909 767.019223 
L 118.529939 765.524486 
L 117.818182 764.81671 
L 114.545455 763.088291 
L 113.201776 762.238973 
L 111.272727 760.656889 
L 108.006086 758.953461 
L 108 758.947446 
L 104.727273 757.572769 
L 101.812114 755.667948 
L 101.454545 755.330847 
L 100.034686 755.667948 
L 98.181818 755.954451 
L 97.987763 755.667948 
L 96.85566 752.382435 
L 94.909091 751.055822 
L 92.752696 749.096922 
L 91.636364 747.993901 
L 88.363636 746.121349 
L 87.921902 745.811409 
L 85.090909 743.825066 
L 83.239295 742.525896 
L 81.818182 741.12037 
L 78.564682 739.240384 
L 78.545455 739.221424 
L 75.272727 737.766175 
L 72.131098 735.954871 
L 72 735.856251 
L 68.727273 734.3087 
L 67.880107 732.669358 
L 65.454545 730.169703 
L 64.558561 729.383845 
L 62.181818 727.525733 
L 60.113199 726.098332 
L 58.909091 724.903483 
L 55.636364 723.022307 
L 55.350957 722.81282 
L 52.363636 720.753314 
L 50.729814 719.527307 
L 49.090909 718.023535 
L 46.389704 716.241794 
L 45.818182 715.672746 
L 43.141598 716.241794 
L 42.545455 716.434535 
L 42.461317 716.241794 
L 39.90111 712.956281 
L 39.272727 712.608709 
L 37.274604 709.670768 
L 36 708.410538 
L 33.798393 706.939327 
M 18.607839 695.646655 
L 16.363636 695.307085 
L 13.090909 693.802596 
L 12.77052 693.243204 
L 11.572351 689.957691 
L 9.818182 688.413579 
L 7.876084 686.672179 
L 6.545455 685.335783 
L 4.05395 683.386666 
L 3.272727 682.604489 
L 0 680.204898 
M 202.909091 807.377798 
L 205.299396 804.95064 
L 202.909091 802.550996 
L 200.497895 804.95064 
L 202.909091 807.377798 
z
" clip-path="url(#p76a3180e4c)" style="fill: none"/>
    <path d="M 192.927231 818.092691 
L 190.38808 815.702298 
M 176.687136 802.662169 
L 175.111779 801.665127 
L 173.454545 800.654718 
L 170.181818 799.107217 
L 168.407328 798.379614 
L 166.909091 797.949956 
L 165.202089 798.379614 
L 163.636364 800.82858 
L 160.363636 798.924562 
L 159.989532 798.379614 
L 158.403782 795.094102 
L 157.090909 794.157275 
L 155.478543 791.808589 
L 153.818182 789.389988 
L 153.033647 788.523076 
L 150.545455 786.642193 
L 148.265653 785.237563 
L 147.272727 784.601921 
L 144 782.887055 
L 142.629708 781.95205 
L 140.727273 780.895915 
L 137.600466 778.666537 
L 137.454545 778.55504 
L 136.642907 778.666537 
L 134.181818 781.747393 
L 130.909091 780.466704 
L 129.900502 778.666537 
L 127.636364 776.306748 
L 127.002275 775.381025 
L 124.957426 772.095512 
L 124.363636 771.528805 
L 121.629446 768.809999 
L 121.090909 768.394554 
L 117.818182 766.41191 
L 116.474532 765.524486 
L 114.545455 764.305147 
L 111.276626 762.238973 
L 111.272727 762.235776 
L 108 761.433038 
L 105.047648 762.238973 
L 104.727273 762.708088 
L 101.454545 762.579808 
L 101.216397 762.238973 
L 99.863674 758.953461 
L 98.181818 757.747945 
L 96.77299 755.667948 
L 94.909091 752.916082 
L 94.508632 752.382435 
L 91.636364 749.682672 
L 90.801536 749.096922 
L 88.363636 747.38639 
L 86.118929 745.811409 
L 85.090909 745.090107 
L 81.818182 743.194233 
L 80.250581 742.525896 
L 78.545455 741.907587 
L 76.386123 742.525896 
L 75.272727 744.016558 
L 74.28822 742.525896 
L 72 741.607848 
L 70.857756 739.240384 
L 68.727273 736.76108 
L 68.224639 735.954871 
L 66.382889 732.669358 
L 65.454545 731.712657 
L 62.799384 729.383845 
L 62.181818 728.901039 
L 58.909091 726.71926 
L 58.04107 726.098332 
L 55.636364 724.489395 
L 53.352195 722.81282 
L 52.363636 722.131292 
L 49.090909 720.902149 
L 47.596637 722.81282 
L 45.818182 723.707945 
L 45.484002 722.81282 
L 42.545455 719.90049 
L 42.298924 719.527307 
L 40.772893 716.241794 
L 39.272727 714.587094 
L 38.268246 712.956281 
L 36 710.140211 
L 35.454678 709.670768 
L 32.727273 707.557064 
L 31.215237 706.385255 
L 29.454545 705.020742 
L 26.975796 703.099743 
L 26.181818 702.482451 
L 22.909091 700.513499 
L 19.636364 702.436256 
L 16.363636 701.046772 
L 15.715675 699.81423 
L 14.225097 696.528717 
L 13.090909 695.689685 
L 11.689696 693.243204 
L 9.818182 689.975588 
L 9.804382 689.957691 
L 6.545455 686.983738 
L 6.131807 686.672179 
L 3.272727 684.326702 
L 1.986496 683.386666 
L 0 681.792717 
M 202.909091 806.708568 
L 204.640328 804.95064 
L 202.909091 803.21264 
L 201.162723 804.95064 
L 202.909091 806.708568 
z
" clip-path="url(#p76a3180e4c)" style="fill: none"/>
    <path d="M 191.146393 818.092691 
L 189.818182 816.842294 
L 188.234281 814.807178 
L 186.545455 812.637248 
L 185.56428 811.521666 
L 183.272727 808.466071 
L 183.018598 808.236153 
L 180 806.103567 
L 178.393859 804.95064 
L 176.727273 803.959531 
L 173.454545 802.645524 
L 170.181818 804.355581 
L 169.79804 804.95064 
L 167.71573 808.236153 
L 166.909091 808.607377 
L 166.70965 808.236153 
L 163.636364 805.51027 
L 163.083329 804.95064 
L 161.561344 801.665127 
L 160.363636 800.701446 
L 158.769706 798.379614 
L 157.090909 795.934159 
L 156.305719 795.094102 
L 154.258718 791.808589 
L 153.818182 791.166872 
L 151.425608 788.523076 
L 150.545455 787.857747 
L 147.272727 786.351616 
L 145.374105 785.237563 
L 144 784.616009 
L 140.788385 785.237563 
L 140.727273 785.331335 
L 138.658471 788.523076 
L 137.454545 790.364601 
L 136.757513 788.523076 
L 134.181818 787.200733 
L 133.015518 785.237563 
L 130.909091 782.857485 
L 130.049132 781.95205 
L 128.199566 778.666537 
L 127.636364 778.079542 
L 125.787971 775.381025 
L 124.363636 773.301599 
L 123.336338 772.095512 
L 121.090909 769.859467 
L 119.648897 768.809999 
L 117.818182 767.683389 
L 114.549382 765.524486 
L 114.545455 765.522004 
L 114.458384 765.524486 
L 111.272727 766.540578 
L 109.749808 768.809999 
L 108 771.327344 
L 104.727273 769.266055 
L 104.279625 768.809999 
L 102.92298 765.524486 
L 101.454545 764.373303 
L 99.963244 762.238973 
L 98.181818 759.569172 
L 97.575932 758.953461 
L 95.558217 755.667948 
L 94.909091 754.709576 
L 93.16276 752.382435 
L 91.636364 750.947713 
L 88.998564 749.096922 
L 88.363636 748.65143 
L 85.090909 747.456924 
L 81.818182 748.073436 
L 81.084667 749.096922 
L 78.565055 752.382435 
L 78.545455 752.3918 
L 78.540799 752.382435 
L 75.272727 749.134386 
L 75.236179 749.096922 
L 73.791003 745.811409 
L 72 743.877458 
L 70.902984 742.525896 
L 69.253413 739.240384 
L 68.727273 738.628099 
L 67.060641 735.954871 
L 65.454545 733.378741 
L 64.714747 732.669358 
L 62.181818 730.477331 
L 60.605973 729.383845 
L 58.909091 728.287779 
L 55.848371 726.098332 
L 55.636364 725.956483 
L 54.721729 726.098332 
L 52.363636 729.203928 
L 52.216071 729.383845 
L 49.090909 731.587263 
L 48.443017 729.383845 
L 45.818182 727.076237 
L 44.950142 726.098332 
L 43.604886 722.81282 
L 42.545455 721.762841 
L 41.068623 719.527307 
L 39.272727 716.474945 
L 39.041529 716.241794 
L 37.121152 712.956281 
L 36 711.56435 
L 33.800348 709.670768 
L 32.727273 708.839149 
L 29.560906 706.385255 
L 29.454545 706.302827 
L 26.181818 706.379368 
L 26.172635 706.385255 
L 23.335098 709.670768 
L 22.909091 710.122965 
L 22.562538 709.670768 
L 19.636364 708.50187 
L 18.648912 706.385255 
L 18.156288 705.72242 
M 7.904007 689.551332 
L 6.545455 688.311576 
L 4.368878 686.672179 
L 3.272727 685.77294 
L 0.007639 683.386666 
L 0 683.380536 
M 203.026232 818.092691 
L 202.909091 818.040829 
L 202.55047 818.092691 
M 202.909091 806.039339 
L 203.981259 804.95064 
L 202.909091 803.874283 
L 201.827552 804.95064 
L 202.909091 806.039339 
z
" clip-path="url(#p76a3180e4c)" style="fill: none"/>
    <path d="M 188.714648 818.092691 
L 186.92948 814.807178 
L 186.545455 814.313754 
L 184.089763 811.521666 
L 183.272727 810.432217 
L 180.845411 808.236153 
L 180 807.638885 
L 176.727273 807.935805 
L 176.529873 808.236153 
L 174.404334 811.521666 
L 173.454545 813.014748 
L 172.32117 814.807178 
L 170.181818 816.144956 
L 168.878883 814.807178 
L 166.909091 812.926774 
L 165.538438 811.521666 
L 164.545695 808.236153 
L 163.636364 807.429612 
L 161.186603 804.95064 
L 160.363636 803.351678 
L 158.708458 801.665127 
L 157.549881 798.379614 
L 157.090909 797.711043 
L 154.644891 795.094102 
L 153.818182 793.655253 
L 151.996463 791.808589 
L 150.545455 790.06982 
L 147.272727 788.954326 
L 145.404016 791.808589 
L 144 793.981634 
L 143.2776 795.094102 
L 141.121901 798.379614 
L 140.727273 798.791654 
L 140.337525 798.379614 
L 139.259861 795.094102 
L 137.454545 794.166258 
L 135.140763 791.808589 
L 134.181818 790.409269 
L 132.342482 788.523076 
L 131.446552 785.237563 
L 130.909091 784.630279 
L 128.365376 781.95205 
L 127.636364 780.661025 
L 125.673153 778.666537 
L 124.573668 775.381025 
L 124.363636 775.074394 
L 121.826342 772.095512 
L 121.090909 771.363152 
L 117.818182 770.361639 
L 116.659605 772.095512 
L 114.545455 775.256309 
L 114.460607 775.381025 
L 112.162973 778.666537 
L 111.272727 779.429057 
L 110.554688 778.666537 
L 108 776.784835 
L 106.655564 775.381025 
L 105.645136 772.095512 
L 104.727273 771.335899 
L 102.247942 768.809999 
L 101.454545 767.096195 
L 99.929011 765.524486 
L 98.710092 762.238973 
L 98.181818 761.447256 
L 95.727815 758.953461 
L 94.909091 757.351627 
L 93.232231 755.667948 
L 91.816887 752.382435 
L 91.636364 752.212753 
L 88.363636 752.249209 
L 88.109205 752.382435 
L 85.785892 755.667948 
L 85.090909 756.632466 
L 83.300751 758.953461 
L 81.818182 759.943742 
L 80.888135 758.953461 
L 78.545455 757.160266 
L 77.12102 755.667948 
L 76.186625 752.382435 
L 75.272727 751.474136 
L 72.953587 749.096922 
L 72.061985 745.811409 
L 72 745.744477 
L 69.38759 742.525896 
L 68.727273 741.233571 
L 66.754005 739.240384 
L 65.896643 735.954871 
L 65.454545 735.24576 
L 62.767678 732.669358 
L 62.181818 732.162348 
L 59.335469 732.669358 
L 58.909091 733.239435 
L 56.813117 735.954871 
L 55.636364 737.389236 
L 53.97712 739.240384 
L 52.363636 740.12061 
L 51.5326 739.240384 
L 50.697707 735.954871 
L 49.090909 734.870836 
L 46.950475 732.669358 
L 46.324649 729.383845 
L 45.818182 728.938588 
L 44.664152 727.638498 
M 34.222727 712.307923 
L 32.727273 711.654911 
L 30.510583 712.956281 
L 29.454545 714.22378 
L 27.643636 716.241794 
L 26.181818 717.768753 
L 22.909091 717.174958 
L 22.022905 716.241794 
L 20.930201 712.956281 
L 19.636364 711.552763 
L 17.815289 709.670768 
L 17.103305 706.385255 
L 16.363636 705.390018 
L 14.129302 703.099743 
L 13.313874 699.81423 
L 13.090909 699.463864 
L 10.613257 696.528717 
L 9.818182 694.39224 
L 8.646292 693.243204 
L 6.89423 689.957691 
L 6.545455 689.639415 
L 4.16469 689.957691 
L 3.272727 690.967661 
L 1.123086 693.243204 
L 0 694.347542 
M 202.909091 805.370109 
L 203.322191 804.95064 
L 202.909091 804.535926 
L 202.492381 804.95064 
L 202.909091 805.370109 
z
" clip-path="url(#p76a3180e4c)" style="fill: none"/>
    <path d="M 34.180788 818.092691 
L 32.727273 815.450438 
L 31.981943 814.807178 
L 30.469196 811.521666 
L 29.454545 809.526394 
L 27.216119 808.236153 
L 26.630977 804.95064 
L 26.181818 803.963583 
L 22.909091 804.134431 
L 22.18288 804.95064 
L 19.636364 806.680429 
L 18.031209 805.13895 
M 6.255622 790.616242 
L 3.713054 788.523076 
L 3.502093 785.237563 
L 3.272727 784.719159 
L 0 784.598256 
M 112.349181 818.092691 
L 111.272727 817.501723 
L 108 814.966082 
L 107.770294 814.807178 
L 104.883552 811.521666 
L 104.727273 811.388618 
L 101.454545 808.256945 
L 101.43748 808.236153 
L 98.181818 805.412519 
L 97.782458 804.95064 
L 94.909091 802.091263 
L 94.290453 801.665127 
L 91.636364 800.238992 
L 88.363636 798.436208 
L 88.275375 798.379614 
L 85.090909 796.853245 
L 83.299309 795.094102 
L 81.818182 793.947468 
L 78.775805 791.808589 
L 78.545455 791.558688 
L 75.272727 788.890958 
L 74.932933 788.523076 
L 72.139417 785.237563 
L 72 785.124164 
L 69.243953 781.95205 
L 68.727273 781.407193 
L 65.454545 778.880482 
L 64.971469 778.666537 
L 62.181818 777.431058 
L 59.584364 775.381025 
L 58.909091 774.98478 
L 55.636364 772.777795 
L 54.996263 772.095512 
L 52.363636 770.566418 
L 50.88638 768.809999 
L 49.090909 766.837112 
L 47.332018 765.524486 
L 45.818182 763.503363 
L 44.894775 762.238973 
L 42.545455 759.636824 
L 41.948609 758.953461 
L 40.557235 757.791195 
M 25.126215 746.695233 
L 23.785456 745.811409 
L 22.909091 744.720575 
L 21.201545 742.525896 
L 19.636364 741.322066 
L 18.000246 739.240384 
L 16.363636 737.183213 
L 15.30991 735.954871 
L 13.090909 733.624414 
L 11.769273 732.669358 
L 9.818182 730.951693 
L 7.4471 729.383845 
L 6.545455 728.776015 
L 3.973605 726.098332 
L 3.272727 725.566577 
L 0.014531 722.81282 
L 0 722.796039 
M 0 764.751108 
L 0.679366 765.524486 
L 3.272727 768.242814 
L 3.926747 768.809999 
L 6.545455 771.876807 
L 6.908346 772.095512 
L 9.818182 774.14463 
L 13.090909 774.962007 
L 13.588543 775.381025 
L 16.363636 777.717712 
L 17.339262 778.666537 
L 19.636364 780.643527 
L 19.982781 781.222386 
M 32.669133 795.417213 
L 32.727273 795.497889 
L 36 795.674073 
L 39.272727 797.554787 
L 41.684456 798.379614 
L 42.545455 798.84216 
L 45.757934 801.665127 
L 45.818182 801.70234 
L 49.090909 804.660982 
L 49.319772 804.95064 
L 52.363636 807.652095 
L 52.878891 808.236153 
L 55.636364 811.1398 
L 56.029942 811.521666 
L 58.894331 814.807178 
L 58.909091 814.819968 
L 62.181818 817.910292 
L 62.81899 818.092691 
" clip-path="url(#p76a3180e4c)" style="fill: none"/>
    <path clip-path="url(#p76a3180e4c)" style="fill: none"/>
    <path clip-path="url(#p76a3180e4c)" style="fill: none"/>
    <path clip-path="url(#p76a3180e4c)" style="fill: none"/>
    <path clip-path="url(#p76a3180e4c)" style="fill: none"/>
    <path clip-path="url(#p76a3180e4c)" style="fill: none"/>
    <path clip-path="url(#p76a3180e4c)" style="fill: none"/>
    <path clip-path="url(#p76a3180e4c)" style="fill: none"/>
    <path clip-path="url(#p76a3180e4c)" style="fill: none"/>
    <path clip-path="url(#p76a3180e4c)" style="fill: none"/>
    <path clip-path="url(#p76a3180e4c)" style="fill: none"/>
    <path clip-path="url(#p76a3180e4c)" style="fill: none"/>
    <path clip-path="url(#p76a3180e4c)" style="fill: none"/>
    <path clip-path="url(#p76a3180e4c)" style="fill: none"/>
    <path clip-path="url(#p76a3180e4c)" style="fill: none"/>
    <path clip-path="url(#p76a3180e4c)" style="fill: none"/>
    <path clip-path="url(#p76a3180e4c)" style="fill: none"/>
    <path clip-path="url(#p76a3180e4c)" style="fill: none"/>
    <path clip-path="url(#p76a3180e4c)" style="fill: none"/>
    <path clip-path="url(#p76a3180e4c)" style="fill: none"/>
    <path clip-path="url(#p76a3180e4c)" style="fill: none"/>
    <path clip-path="url(#p76a3180e4c)" style="fill: none"/>
    <path clip-path="url(#p76a3180e4c)" style="fill: none"/>
    <path clip-path="url(#p76a3180e4c)" style="fill: none"/>
    <path clip-path="url(#p76a3180e4c)" style="fill: none"/>
    <path clip-path="url(#p76a3180e4c)" style="fill: none"/>
    <path clip-path="url(#p76a3180e4c)" style="fill: none"/>
    <path clip-path="url(#p76a3180e4c)" style="fill: none"/>
    <path clip-path="url(#p76a3180e4c)" style="fill: none"/>
    <path clip-path="url(#p76a3180e4c)" style="fill: none"/>
    <path clip-path="url(#p76a3180e4c)" style="fill: none"/>
    <path clip-path="url(#p76a3180e4c)" style="fill: none"/>
    <path clip-path="url(#p76a3180e4c)" style="fill: none"/>
    <path clip-path="url(#p76a3180e4c)" style="fill: none"/>
    <path clip-path="url(#p76a3180e4c)" style="fill: none"/>
   </g>
   <g id="text_1">
    <g clip-path="url(#p76a3180e4c)">
     <!-- 0 -->
     <g style="opacity: 0" transform="translate(21.131624 701.37852) rotate(-321.128897) scale(0.12 -0.12)">
      <defs>
       <path id="DejaVuSans-30" d="M 2034 4250 
Q 1547 4250 1301 3770 
Q 1056 3291 1056 2328 
Q 1056 1369 1301 889 
Q 1547 409 2034 409 
Q 2525 409 2770 889 
Q 3016 1369 3016 2328 
Q 3016 3291 2770 3770 
Q 2525 4250 2034 4250 
z
M 2034 4750 
Q 2819 4750 3233 4129 
Q 3647 3509 3647 2328 
Q 3647 1150 3233 529 
Q 2819 -91 2034 -91 
Q 1250 -91 836 529 
Q 422 1150 422 2328 
Q 422 3509 836 4129 
Q 1250 4750 2034 4750 
z
" transform="scale(0.015625)"/>
      </defs>
      <use xlink:href="#DejaVuSans-30"/>
     </g>
    </g>
   </g>
   <g id="text_2">
    <g clip-path="url(#p76a3180e4c)">
     <!-- 1 -->
     <g style="opacity: 0" transform="translate(179.39351 807.939987) rotate(-315.702239) scale(0.12 -0.12)">
      <defs>
       <path id="DejaVuSans-31" d="M 794 531 
L 1825 531 
L 1825 4091 
L 703 3866 
L 703 4441 
L 1819 4666 
L 2450 4666 
L 2450 531 
L 3481 531 
L 3481 0 
L 794 0 
L 794 531 
z
" transform="scale(0.015625)"/>
      </defs>
      <use xlink:href="#DejaVuSans-31"/>
     </g>
    </g>
   </g>
   <g id="text_3">
    <g clip-path="url(#p76a3180e4c)">
     <!-- 1 -->
     <g style="opacity: 0" transform="translate(194.344129 818.619405) rotate(-8.032941) scale(0.12 -0.12)">
      <use xlink:href="#DejaVuSans-31"/>
     </g>
    </g>
   </g>
   <g id="text_4">
    <g clip-path="url(#p76a3180e4c)">
     <!-- 2 -->
     <g style="opacity: 0" transform="translate(8.315961 695.92222) rotate(-299.950484) scale(0.12 -0.12)">
      <defs>
       <path id="DejaVuSans-32" d="M 1228 531 
L 3431 531 
L 3431 0 
L 469 0 
L 469 531 
Q 828 903 1448 1529 
Q 2069 2156 2228 2338 
Q 2531 2678 2651 2914 
Q 2772 3150 2772 3378 
Q 2772 3750 2511 3984 
Q 2250 4219 1831 4219 
Q 1534 4219 1204 4116 
Q 875 4013 500 3803 
L 500 4441 
Q 881 4594 1212 4672 
Q 1544 4750 1819 4750 
Q 2544 4750 2975 4387 
Q 3406 4025 3406 3419 
Q 3406 3131 3298 2873 
Q 3191 2616 2906 2266 
Q 2828 2175 2409 1742 
Q 1991 1309 1228 531 
z
" transform="scale(0.015625)"/>
      </defs>
      <use xlink:href="#DejaVuSans-32"/>
     </g>
    </g>
   </g>
   <g id="text_5">
    <g clip-path="url(#p76a3180e4c)">
     <!-- 3 -->
     <g style="opacity: 0" transform="translate(34.990337 718.10087) rotate(-302.666435) scale(0.12 -0.12)">
      <defs>
       <path id="DejaVuSans-33" d="M 2597 2516 
Q 3050 2419 3304 2112 
Q 3559 1806 3559 1356 
Q 3559 666 3084 287 
Q 2609 -91 1734 -91 
Q 1441 -91 1130 -33 
Q 819 25 488 141 
L 488 750 
Q 750 597 1062 519 
Q 1375 441 1716 441 
Q 2309 441 2620 675 
Q 2931 909 2931 1356 
Q 2931 1769 2642 2001 
Q 2353 2234 1838 2234 
L 1294 2234 
L 1294 2753 
L 1863 2753 
Q 2328 2753 2575 2939 
Q 2822 3125 2822 3475 
Q 2822 3834 2567 4026 
Q 2313 4219 1838 4219 
Q 1578 4219 1281 4162 
Q 984 4106 628 3988 
L 628 4550 
Q 988 4650 1302 4700 
Q 1616 4750 1894 4750 
Q 2613 4750 3031 4423 
Q 3450 4097 3450 3541 
Q 3450 3153 3228 2886 
Q 3006 2619 2597 2516 
z
" transform="scale(0.015625)"/>
      </defs>
      <use xlink:href="#DejaVuSans-33"/>
     </g>
    </g>
   </g>
   <g id="text_6">
    <g clip-path="url(#p76a3180e4c)">
     <!-- 4 -->
     <g style="opacity: 0" transform="translate(6.387349 797.822434) rotate(-312.731945) scale(0.12 -0.12)">
      <defs>
       <path id="DejaVuSans-34" d="M 2419 4116 
L 825 1625 
L 2419 1625 
L 2419 4116 
z
M 2253 4666 
L 3047 4666 
L 3047 1625 
L 3713 1625 
L 3713 1100 
L 3047 1100 
L 3047 0 
L 2419 0 
L 2419 1100 
L 313 1100 
L 313 1709 
L 2253 4666 
z
" transform="scale(0.015625)"/>
      </defs>
      <use xlink:href="#DejaVuSans-34"/>
     </g>
    </g>
   </g>
   <g id="text_7">
    <g clip-path="url(#p76a3180e4c)">
     <!-- 4 -->
     <g style="opacity: 0" transform="translate(27.726097 753.078774) rotate(-327.312853) scale(0.12 -0.12)">
      <use xlink:href="#DejaVuSans-34"/>
     </g>
    </g>
   </g>
   <g id="text_8">
    <g clip-path="url(#p76a3180e4c)">
     <!-- 4 -->
     <g style="opacity: 0" transform="translate(21.207615 787.569769) rotate(-308.899784) scale(0.12 -0.12)">
      <use xlink:href="#DejaVuSans-34"/>
     </g>
    </g>
   </g>
  </g>
 </g>
 <defs>
  <clipPath id="p76a3180e4c">
   <rect x="0" y="0" width="576" height="818.092691"/>
  </clipPath>
 </defs>
</svg>
