<?xml version="1.0" encoding="utf-8" standalone="no"?>
<!DOCTYPE svg PUBLIC "-//W3C//DTD SVG 1.1//EN"
  "http://www.w3.org/Graphics/SVG/1.1/DTD/svg11.dtd">
<svg xmlns:xlink="http://www.w3.org/1999/xlink" width="576pt" height="818.380863pt" viewBox="0 0 576 818.380863" xmlns="http://www.w3.org/2000/svg" version="1.1">
 <metadata>
  <rdf:RDF xmlns:dc="http://purl.org/dc/elements/1.1/" xmlns:cc="http://creativecommons.org/ns#" xmlns:rdf="http://www.w3.org/1999/02/22-rdf-syntax-ns#">
   <cc:Work>
    <dc:type rdf:resource="http://purl.org/dc/dcmitype/StillImage"/>
    <dc:date>2025-07-25T22:43:56.893333</dc:date>
    <dc:format>image/svg+xml</dc:format>
    <dc:creator>
     <cc:Agent>
      <dc:title>Matplotlib v3.10.3, https://matplotlib.org/</dc:title>
     </cc:Agent>
    </dc:creator>
   </cc:Work>
  </rdf:RDF>
 </metadata>
 <defs>
  <style type="text/css">*{stroke-linejoin: round; stroke-linecap: butt}</style>
 </defs>
 <g id="figure_1">
  <g id="patch_1">
   <path d="M 0 818.380863 
L 576 818.380863 
L 576 0 
L 0 0 
L 0 818.380863 
z
" style="fill: none; opacity: 0"/>
  </g>
  <g id="axes_1">
   <g id="QuadContourSet_1">
    <path d="M 26.331429 818.259868 
L 26.4526 818.380863 
L 26.874403 818.380863 
L 26.331429 817.838675 
L 25.132638 818.380863 
L 26.063904 818.380863 
z
M 29.622857 816.224618 
L 31.782225 818.380863 
L 32.113621 818.380863 
L 29.622857 815.893701 
L 28.822192 815.094193 
L 26.331429 812.607031 
L 25.530764 811.807523 
L 23.04 808.520853 
L 20.494387 811.807523 
L 19.748571 813.965035 
L 16.457143 812.949464 
L 14.449661 811.807523 
L 13.165714 811.101359 
L 9.874286 809.278313 
L 9.179251 808.520853 
L 6.582857 806.7162 
L 4.976812 805.234183 
L 3.291429 803.748369 
L 0 802.1477 
L 0 802.741154 
L 3.291429 804.566183 
L 4.049151 805.234183 
L 6.582857 807.572221 
L 7.947675 808.520853 
L 9.874286 810.620505 
L 12.145244 811.807523 
L 13.165714 813.042069 
L 16.457143 814.161495 
L 19.748571 814.944816 
L 20.833081 811.807523 
L 23.04 808.958145 
L 25.199368 811.807523 
L 26.331429 812.937948 
L 28.490796 815.094193 
z
" clip-path="url(#p1112293c86)" style="fill: #f5f9fe; fill-opacity: 0.9"/>
    <path d="M 13.165714 815.334673 
L 16.457143 816.660646 
L 19.748571 816.655608 
L 20.186949 815.094193 
L 21.171775 811.807523 
L 23.04 809.395436 
L 24.867971 811.807523 
L 26.331429 813.268865 
L 28.1594 815.094193 
L 29.622857 816.555535 
L 31.450829 818.380863 
L 31.782225 818.380863 
L 29.622857 816.224618 
L 28.490796 815.094193 
L 26.331429 812.937948 
L 25.199368 811.807523 
L 23.04 808.958145 
L 20.833081 811.807523 
L 19.748571 814.944816 
L 16.457143 814.161495 
L 13.165714 813.042069 
L 12.145244 811.807523 
L 9.874286 810.620505 
L 7.947675 808.520853 
L 6.582857 807.572221 
L 4.049151 805.234183 
L 3.291429 804.566183 
L 0 802.741154 
L -0 803.334608 
L 3.113254 805.234183 
L 3.291429 805.351002 
L 6.582857 808.428243 
L 6.716098 808.520853 
L 9.796029 811.807523 
L 9.874286 811.889437 
L 12.93597 815.094193 
z
M 26.331429 817.838675 
L 26.874403 818.380863 
L 27.296205 818.380863 
L 26.331429 817.417481 
L 24.201373 818.380863 
L 25.132638 818.380863 
z
" clip-path="url(#p1112293c86)" style="fill: #eff6fc; fill-opacity: 0.9"/>
    <path d="M 13.165714 816.043192 
L 15.849573 818.380863 
L 16.457143 818.380863 
L 19.748571 818.380863 
L 20.421727 818.380863 
L 20.704183 815.094193 
L 21.510469 811.807523 
L 23.04 809.832728 
L 24.536575 811.807523 
L 26.331429 813.599782 
L 27.828004 815.094193 
L 29.622857 816.886452 
L 31.119432 818.380863 
L 31.450829 818.380863 
L 29.622857 816.555535 
L 28.1594 815.094193 
L 26.331429 813.268865 
L 24.867971 811.807523 
L 23.04 809.395436 
L 21.171775 811.807523 
L 20.186949 815.094193 
L 19.748571 816.655608 
L 16.457143 816.660646 
L 13.165714 815.334673 
L 12.93597 815.094193 
L 9.874286 811.889437 
L 9.796029 811.807523 
L 6.716098 808.520853 
L 6.582857 808.428243 
L 3.291429 805.351002 
L 3.113254 805.234183 
L -0 803.334608 
L 0 803.928062 
L 2.14063 805.234183 
L 3.291429 805.9887 
L 5.9792 808.520853 
L 6.582857 809.152719 
L 9.119141 811.807523 
L 9.874286 812.597956 
L 12.259082 815.094193 
z
M 26.331429 817.417481 
L 27.296205 818.380863 
L 27.718008 818.380863 
L 26.331429 816.996288 
L 23.270107 818.380863 
L 24.201373 818.380863 
z
" clip-path="url(#p1112293c86)" style="fill: #eaf3fb; fill-opacity: 0.9"/>
    <path d="M 13.165714 816.751711 
L 15.036129 818.380863 
L 15.849573 818.380863 
L 13.165714 816.043192 
L 12.259082 815.094193 
L 9.874286 812.597956 
L 9.119141 811.807523 
L 6.582857 809.152719 
L 5.9792 808.520853 
L 3.291429 805.9887 
L 2.14063 805.234183 
L 0 803.928062 
L 0 804.521515 
L 1.168006 805.234183 
L 3.291429 806.626397 
L 5.302312 808.520853 
L 6.582857 809.861238 
L 8.442253 811.807523 
L 9.874286 813.306474 
L 11.582195 815.094193 
z
M 23.04 818.380863 
L 23.270107 818.380863 
L 26.331429 816.996288 
L 27.718008 818.380863 
L 28.139811 818.380863 
L 29.622857 817.217369 
L 30.788036 818.380863 
L 31.119432 818.380863 
L 29.622857 816.886452 
L 27.828004 815.094193 
L 26.331429 813.599782 
L 24.536575 811.807523 
L 23.04 809.832728 
L 21.510469 811.807523 
L 20.704183 815.094193 
L 20.421727 818.380863 
z
M 21.221418 815.094193 
L 21.849162 811.807523 
L 23.04 810.270019 
L 24.205179 811.807523 
L 26.331429 813.930699 
L 27.496608 815.094193 
L 26.331429 816.575095 
L 23.04 817.801188 
z
" clip-path="url(#p1112293c86)" style="fill: #e5eff9; fill-opacity: 0.9"/>
    <path d="M 13.165714 817.460229 
L 14.222686 818.380863 
L 15.036129 818.380863 
L 13.165714 816.751711 
L 11.582195 815.094193 
L 9.874286 813.306474 
L 8.442253 811.807523 
L 6.582857 809.861238 
L 5.302312 808.520853 
L 3.291429 806.626397 
L 1.168006 805.234183 
L 0 804.521515 
L 0 805.114969 
L 0.195382 805.234183 
L 3.291429 807.264094 
L 4.625424 808.520853 
L 6.582857 810.569757 
L 7.765365 811.807523 
L 9.874286 814.014993 
L 10.905307 815.094193 
z
M 23.04 817.801188 
L 26.331429 816.575095 
L 27.496608 815.094193 
L 26.331429 813.930699 
L 24.205179 811.807523 
L 23.04 810.270019 
L 21.849162 811.807523 
L 21.221418 815.094193 
z
M 21.738653 815.094193 
L 22.187856 811.807523 
L 23.04 810.707311 
L 23.873783 811.807523 
L 26.331429 814.261616 
L 27.165211 815.094193 
L 26.331429 816.153902 
L 23.04 817.031274 
z
M 29.622857 817.548286 
L 30.45664 818.380863 
L 30.788036 818.380863 
L 29.622857 817.217369 
L 28.139811 818.380863 
L 28.561614 818.380863 
z
" clip-path="url(#p1112293c86)" style="fill: #dfecf7; fill-opacity: 0.9"/>
    <path d="M 13.165714 818.168748 
L 13.409242 818.380863 
L 14.222686 818.380863 
L 13.165714 817.460229 
L 10.905307 815.094193 
L 9.874286 814.014993 
L 7.765365 811.807523 
L 6.582857 810.569757 
L 4.625424 808.520853 
L 3.291429 807.264094 
L 0.195382 805.234183 
L 0 805.114969 
L 0 805.234183 
L 0 806.688986 
L 3.291429 807.901791 
L 3.948536 808.520853 
L 6.582857 811.278275 
L 7.088478 811.807523 
L 9.874286 814.723512 
L 10.228419 815.094193 
z
M 23.04 817.031274 
L 26.331429 816.153902 
L 27.165211 815.094193 
L 26.331429 814.261616 
L 23.873783 811.807523 
L 23.04 810.707311 
L 22.187856 811.807523 
L 21.738653 815.094193 
z
M 22.255888 815.094193 
L 22.52655 811.807523 
L 23.04 811.144602 
L 23.542387 811.807523 
L 26.331429 814.592533 
L 26.833815 815.094193 
L 26.331429 815.732709 
L 23.04 816.26136 
z
M 29.622857 817.879203 
L 30.125244 818.380863 
L 30.45664 818.380863 
L 29.622857 817.548286 
L 28.561614 818.380863 
L 28.983417 818.380863 
z
" clip-path="url(#p1112293c86)" style="fill: #dae8f6; fill-opacity: 0.9"/>
    <path d="M 9.874286 816.558786 
L 11.383371 818.380863 
L 13.165714 818.380863 
L 13.409242 818.380863 
L 13.165714 818.168748 
L 10.228419 815.094193 
L 9.874286 814.723512 
L 7.088478 811.807523 
L 6.582857 811.278275 
L 3.948536 808.520853 
L 3.291429 807.901791 
L 0 806.688986 
L 0 808.509495 
L 0.579069 808.520853 
L 3.291429 808.685131 
L 5.552727 811.807523 
L 6.582857 812.812676 
L 8.381212 815.094193 
z
M 23.04 816.26136 
L 26.331429 815.732709 
L 26.833815 815.094193 
L 26.331429 814.592533 
L 23.542387 811.807523 
L 23.04 811.144602 
L 22.52655 811.807523 
L 22.255888 815.094193 
z
M 22.773122 815.094193 
L 22.865244 811.807523 
L 23.04 811.581894 
L 23.210991 811.807523 
L 26.331429 814.92345 
L 26.502419 815.094193 
L 26.331429 815.311516 
L 23.04 815.491446 
z
M 29.622857 818.21012 
L 29.793848 818.380863 
L 30.125244 818.380863 
L 29.622857 817.879203 
L 28.983417 818.380863 
L 29.405219 818.380863 
z
" clip-path="url(#p1112293c86)" style="fill: #d6e5f4; fill-opacity: 0.9"/>
    <path d="M 3.291429 818.380863 
L 6.582857 818.380863 
L 9.874286 818.380863 
L 11.383371 818.380863 
L 9.874286 816.558786 
L 8.381212 815.094193 
L 6.582857 812.812676 
L 5.552727 811.807523 
L 3.291429 808.685131 
L 0.579069 808.520853 
L 0 808.509495 
L 0 808.520853 
L 0 811.807523 
L 0 815.094193 
L 0 818.380863 
z
M 23.04 815.491446 
L 26.331429 815.311516 
L 26.502419 815.094193 
L 26.331429 814.92345 
L 23.210991 811.807523 
L 23.04 811.581894 
L 22.865244 811.807523 
L 22.773122 815.094193 
z
M 29.622857 818.380863 
L 29.793848 818.380863 
L 29.622857 818.21012 
L 29.405219 818.380863 
z
" clip-path="url(#p1112293c86)" style="fill: #d0e2f2; fill-opacity: 0.9"/>
    <path clip-path="url(#p1112293c86)" style="fill: #cbdef1; fill-opacity: 0.9"/>
    <path clip-path="url(#p1112293c86)" style="fill: #c6dbef; fill-opacity: 0.9"/>
    <path clip-path="url(#p1112293c86)" style="fill: #bed8ec; fill-opacity: 0.9"/>
    <path clip-path="url(#p1112293c86)" style="fill: #b5d4e9; fill-opacity: 0.9"/>
    <path clip-path="url(#p1112293c86)" style="fill: #add0e6; fill-opacity: 0.9"/>
    <path clip-path="url(#p1112293c86)" style="fill: #a5cde3; fill-opacity: 0.9"/>
    <path clip-path="url(#p1112293c86)" style="fill: #9cc9e1; fill-opacity: 0.9"/>
    <path clip-path="url(#p1112293c86)" style="fill: #91c3de; fill-opacity: 0.9"/>
    <path clip-path="url(#p1112293c86)" style="fill: #85bcdc; fill-opacity: 0.9"/>
    <path clip-path="url(#p1112293c86)" style="fill: #7cb7da; fill-opacity: 0.9"/>
    <path clip-path="url(#p1112293c86)" style="fill: #71b1d7; fill-opacity: 0.9"/>
    <path clip-path="url(#p1112293c86)" style="fill: #66abd4; fill-opacity: 0.9"/>
    <path clip-path="url(#p1112293c86)" style="fill: #5da5d1; fill-opacity: 0.9"/>
    <path clip-path="url(#p1112293c86)" style="fill: #56a0ce; fill-opacity: 0.9"/>
    <path clip-path="url(#p1112293c86)" style="fill: #4d99ca; fill-opacity: 0.9"/>
    <path clip-path="url(#p1112293c86)" style="fill: #4493c7; fill-opacity: 0.9"/>
    <path clip-path="url(#p1112293c86)" style="fill: #3c8cc3; fill-opacity: 0.9"/>
    <path clip-path="url(#p1112293c86)" style="fill: #3686c0; fill-opacity: 0.9"/>
    <path clip-path="url(#p1112293c86)" style="fill: #2f7fbc; fill-opacity: 0.9"/>
    <path clip-path="url(#p1112293c86)" style="fill: #2777b8; fill-opacity: 0.9"/>
    <path clip-path="url(#p1112293c86)" style="fill: #2070b4; fill-opacity: 0.9"/>
    <path clip-path="url(#p1112293c86)" style="fill: #1c6ab0; fill-opacity: 0.9"/>
    <path clip-path="url(#p1112293c86)" style="fill: #1663aa; fill-opacity: 0.9"/>
    <path clip-path="url(#p1112293c86)" style="fill: #115ca5; fill-opacity: 0.9"/>
    <path clip-path="url(#p1112293c86)" style="fill: #0c56a0; fill-opacity: 0.9"/>
    <path clip-path="url(#p1112293c86)" style="fill: #084f99; fill-opacity: 0.9"/>
    <path clip-path="url(#p1112293c86)" style="fill: #08488e; fill-opacity: 0.9"/>
    <path clip-path="url(#p1112293c86)" style="fill: #084184; fill-opacity: 0.9"/>
    <path clip-path="url(#p1112293c86)" style="fill: #083a7a; fill-opacity: 0.9"/>
    <path clip-path="url(#p1112293c86)" style="fill: #083370; fill-opacity: 0.9"/>
    <path clip-path="url(#p1112293c86)" style="fill: #08306b; fill-opacity: 0.9"/>
   </g>
   <g id="QuadContourSet_2">
    <path d="M 26.063904 818.380863 
L 26.331429 818.259868 
L 26.4526 818.380863 
M 32.113621 818.380863 
L 29.622857 815.893701 
L 29.375314 815.646516 
M 16.772775 813.046852 
L 16.457143 812.949464 
L 14.449661 811.807523 
L 13.165714 811.101359 
L 9.874286 809.278313 
L 9.179251 808.520853 
L 6.582857 806.7162 
L 4.976812 805.234183 
L 3.291429 803.748369 
L 0 802.1477 
" clip-path="url(#p1112293c86)" style="fill: none"/>
    <path d="M 25.132638 818.380863 
L 26.331429 817.838675 
L 26.874403 818.380863 
M 31.782225 818.380863 
L 29.622857 816.224618 
L 28.490796 815.094193 
L 26.331429 812.937948 
L 25.199368 811.807523 
L 23.04 808.958145 
L 20.833081 811.807523 
L 19.748571 814.944816 
L 16.457143 814.161495 
L 13.165714 813.042069 
L 12.145244 811.807523 
L 10.440184 810.916297 
" clip-path="url(#p1112293c86)" style="fill: none"/>
    <path d="M 24.201373 818.380863 
L 26.331429 817.417481 
L 27.296205 818.380863 
M 31.450829 818.380863 
L 29.622857 816.555535 
L 29.529567 816.46238 
M 18.229442 816.657933 
L 16.457143 816.660646 
L 13.165714 815.334673 
L 12.93597 815.094193 
L 9.874286 811.889437 
L 9.796029 811.807523 
L 6.716098 808.520853 
L 6.582857 808.428243 
L 3.291429 805.351002 
L 3.113254 805.234183 
L -0 803.334608 
" clip-path="url(#p1112293c86)" style="fill: none"/>
    <path d="M 15.849573 818.380863 
L 13.228607 816.097972 
M 23.270107 818.380863 
L 26.331429 816.996288 
L 27.718008 818.380863 
M 31.119432 818.380863 
L 29.622857 816.886452 
L 27.828004 815.094193 
L 26.331429 813.599782 
L 24.536575 811.807523 
L 23.04 809.832728 
L 21.510469 811.807523 
L 20.704183 815.094193 
L 20.421727 818.380863 
" clip-path="url(#p1112293c86)" style="fill: none"/>
    <path d="M 15.036129 818.380863 
L 13.184701 816.768248 
M 30.788036 818.380863 
L 29.622857 817.217369 
L 28.139811 818.380863 
M 23.04 817.801188 
L 26.331429 816.575095 
L 27.496608 815.094193 
L 26.331429 813.930699 
L 24.205179 811.807523 
L 23.04 810.270019 
L 21.849162 811.807523 
L 21.221418 815.094193 
L 23.04 817.801188 
z
" clip-path="url(#p1112293c86)" style="fill: none"/>
    <path d="M 14.222686 818.380863 
L 13.184701 817.476767 
M 30.45664 818.380863 
L 29.622857 817.548286 
L 28.561614 818.380863 
M 23.04 817.031274 
L 26.331429 816.153902 
L 27.165211 815.094193 
L 26.331429 814.261616 
L 23.873783 811.807523 
L 23.04 810.707311 
L 22.187856 811.807523 
L 21.738653 815.094193 
L 23.04 817.031274 
z
" clip-path="url(#p1112293c86)" style="fill: none"/>
    <path d="M 30.125244 818.380863 
L 29.622857 817.879203 
L 28.983417 818.380863 
M 23.04 816.26136 
L 26.331429 815.732709 
L 26.833815 815.094193 
L 26.331429 814.592533 
L 23.542387 811.807523 
L 23.04 811.144602 
L 22.52655 811.807523 
L 22.255888 815.094193 
L 23.04 816.26136 
z
" clip-path="url(#p1112293c86)" style="fill: none"/>
    <path d="M 11.383371 818.380863 
L 9.874286 816.558786 
L 8.381212 815.094193 
L 6.582857 812.812676 
L 5.552727 811.807523 
L 3.291429 808.685131 
L 0.579069 808.520853 
L 0 808.509495 
M 29.793848 818.380863 
L 29.622857 818.21012 
L 29.405219 818.380863 
M 23.04 815.491446 
L 26.331429 815.311516 
L 26.502419 815.094193 
L 26.331429 814.92345 
L 23.210991 811.807523 
L 23.04 811.581894 
L 22.865244 811.807523 
L 22.773122 815.094193 
L 23.04 815.491446 
z
" clip-path="url(#p1112293c86)" style="fill: none"/>
    <path clip-path="url(#p1112293c86)" style="fill: none"/>
    <path clip-path="url(#p1112293c86)" style="fill: none"/>
    <path clip-path="url(#p1112293c86)" style="fill: none"/>
    <path clip-path="url(#p1112293c86)" style="fill: none"/>
    <path clip-path="url(#p1112293c86)" style="fill: none"/>
    <path clip-path="url(#p1112293c86)" style="fill: none"/>
    <path clip-path="url(#p1112293c86)" style="fill: none"/>
    <path clip-path="url(#p1112293c86)" style="fill: none"/>
    <path clip-path="url(#p1112293c86)" style="fill: none"/>
    <path clip-path="url(#p1112293c86)" style="fill: none"/>
    <path clip-path="url(#p1112293c86)" style="fill: none"/>
    <path clip-path="url(#p1112293c86)" style="fill: none"/>
    <path clip-path="url(#p1112293c86)" style="fill: none"/>
    <path clip-path="url(#p1112293c86)" style="fill: none"/>
    <path clip-path="url(#p1112293c86)" style="fill: none"/>
    <path clip-path="url(#p1112293c86)" style="fill: none"/>
    <path clip-path="url(#p1112293c86)" style="fill: none"/>
    <path clip-path="url(#p1112293c86)" style="fill: none"/>
    <path clip-path="url(#p1112293c86)" style="fill: none"/>
    <path clip-path="url(#p1112293c86)" style="fill: none"/>
    <path clip-path="url(#p1112293c86)" style="fill: none"/>
    <path clip-path="url(#p1112293c86)" style="fill: none"/>
    <path clip-path="url(#p1112293c86)" style="fill: none"/>
    <path clip-path="url(#p1112293c86)" style="fill: none"/>
    <path clip-path="url(#p1112293c86)" style="fill: none"/>
    <path clip-path="url(#p1112293c86)" style="fill: none"/>
    <path clip-path="url(#p1112293c86)" style="fill: none"/>
    <path clip-path="url(#p1112293c86)" style="fill: none"/>
    <path clip-path="url(#p1112293c86)" style="fill: none"/>
    <path clip-path="url(#p1112293c86)" style="fill: none"/>
    <path clip-path="url(#p1112293c86)" style="fill: none"/>
   </g>
   <g id="text_1">
    <g clip-path="url(#p1112293c86)">
     <!-- 0 -->
     <g style="opacity: 0" transform="translate(19.310987 811.931447) rotate(-1.508415) scale(0.12 -0.12)">
      <defs>
       <path id="DejaVuSans-30" d="M 2034 4250 
Q 1547 4250 1301 3770 
Q 1056 3291 1056 2328 
Q 1056 1369 1301 889 
Q 1547 409 2034 409 
Q 2525 409 2770 889 
Q 3016 1369 3016 2328 
Q 3016 3291 2770 3770 
Q 2525 4250 2034 4250 
z
M 2034 4750 
Q 2819 4750 3233 4129 
Q 3647 3509 3647 2328 
Q 3647 1150 3233 529 
Q 2819 -91 2034 -91 
Q 1250 -91 836 529 
Q 422 1150 422 2328 
Q 422 3509 836 4129 
Q 1250 4750 2034 4750 
z
" transform="scale(0.015625)"/>
      </defs>
      <use xlink:href="#DejaVuSans-30"/>
     </g>
    </g>
   </g>
   <g id="text_2">
    <g clip-path="url(#p1112293c86)">
     <!-- 1 -->
     <g style="opacity: 0" transform="translate(-1.743405 804.999922) rotate(-323.985785) scale(0.12 -0.12)">
      <defs>
       <path id="DejaVuSans-31" d="M 794 531 
L 1825 531 
L 1825 4091 
L 703 3866 
L 703 4441 
L 1819 4666 
L 2450 4666 
L 2450 531 
L 3481 531 
L 3481 0 
L 794 0 
L 794 531 
z
" transform="scale(0.015625)"/>
      </defs>
      <use xlink:href="#DejaVuSans-31"/>
     </g>
    </g>
   </g>
   <g id="text_3">
    <g clip-path="url(#p1112293c86)">
     <!-- 2 -->
     <g style="opacity: 0" transform="translate(19.507761 813.009432) rotate(-4.717519) scale(0.12 -0.12)">
      <defs>
       <path id="DejaVuSans-32" d="M 1228 531 
L 3431 531 
L 3431 0 
L 469 0 
L 469 531 
Q 828 903 1448 1529 
Q 2069 2156 2228 2338 
Q 2531 2678 2651 2914 
Q 2772 3150 2772 3378 
Q 2772 3750 2511 3984 
Q 2250 4219 1831 4219 
Q 1534 4219 1204 4116 
Q 875 4013 500 3803 
L 500 4441 
Q 881 4594 1212 4672 
Q 1544 4750 1819 4750 
Q 2544 4750 2975 4387 
Q 3406 4025 3406 3419 
Q 3406 3131 3298 2873 
Q 3191 2616 2906 2266 
Q 2828 2175 2409 1742 
Q 1991 1309 1228 531 
z
" transform="scale(0.015625)"/>
      </defs>
      <use xlink:href="#DejaVuSans-32"/>
     </g>
    </g>
   </g>
   <g id="text_4">
    <g clip-path="url(#p1112293c86)">
     <!-- 3 -->
     <g style="opacity: 0" transform="translate(1.539109 808.839206) rotate(-315.505196) scale(0.12 -0.12)">
      <defs>
       <path id="DejaVuSans-33" d="M 2597 2516 
Q 3050 2419 3304 2112 
Q 3559 1806 3559 1356 
Q 3559 666 3084 287 
Q 2609 -91 1734 -91 
Q 1441 -91 1130 -33 
Q 819 25 488 141 
L 488 750 
Q 750 597 1062 519 
Q 1375 441 1716 441 
Q 2309 441 2620 675 
Q 2931 909 2931 1356 
Q 2931 1769 2642 2001 
Q 2353 2234 1838 2234 
L 1294 2234 
L 1294 2753 
L 1863 2753 
Q 2328 2753 2575 2939 
Q 2822 3125 2822 3475 
Q 2822 3834 2567 4026 
Q 2313 4219 1838 4219 
Q 1578 4219 1281 4162 
Q 984 4106 628 3988 
L 628 4550 
Q 988 4650 1302 4700 
Q 1616 4750 1894 4750 
Q 2613 4750 3031 4423 
Q 3450 4097 3450 3541 
Q 3450 3153 3228 2886 
Q 3006 2619 2597 2516 
z
" transform="scale(0.015625)"/>
      </defs>
      <use xlink:href="#DejaVuSans-33"/>
     </g>
    </g>
   </g>
   <g id="text_5">
    <g clip-path="url(#p1112293c86)">
     <!-- 4 -->
     <g style="opacity: 0" transform="translate(1.541485 809.511602) rotate(-315.094752) scale(0.12 -0.12)">
      <defs>
       <path id="DejaVuSans-34" d="M 2419 4116 
L 825 1625 
L 2419 1625 
L 2419 4116 
z
M 2253 4666 
L 3047 4666 
L 3047 1625 
L 3713 1625 
L 3713 1100 
L 3047 1100 
L 3047 0 
L 2419 0 
L 2419 1100 
L 313 1100 
L 313 1709 
L 2253 4666 
z
" transform="scale(0.015625)"/>
      </defs>
      <use xlink:href="#DejaVuSans-34"/>
     </g>
    </g>
   </g>
   <g id="text_6">
    <g clip-path="url(#p1112293c86)">
     <!-- 5 -->
     <g style="opacity: 0" transform="translate(1.543731 810.189112) rotate(-314.742262) scale(0.12 -0.12)">
      <defs>
       <path id="DejaVuSans-35" d="M 691 4666 
L 3169 4666 
L 3169 4134 
L 1269 4134 
L 1269 2991 
Q 1406 3038 1543 3061 
Q 1681 3084 1819 3084 
Q 2600 3084 3056 2656 
Q 3513 2228 3513 1497 
Q 3513 744 3044 326 
Q 2575 -91 1722 -91 
Q 1428 -91 1123 -41 
Q 819 9 494 109 
L 494 744 
Q 775 591 1075 516 
Q 1375 441 1709 441 
Q 2250 441 2565 725 
Q 2881 1009 2881 1497 
Q 2881 1984 2565 2268 
Q 2250 2553 1709 2553 
Q 1456 2553 1204 2497 
Q 953 2441 691 2322 
L 691 4666 
z
" transform="scale(0.015625)"/>
      </defs>
      <use xlink:href="#DejaVuSans-35"/>
     </g>
    </g>
   </g>
   <g id="text_7">
    <g clip-path="url(#p1112293c86)">
     <!-- 6 -->
     <g style="opacity: 0" transform="translate(2.054825 811.360281) rotate(-313.984632) scale(0.12 -0.12)">
      <defs>
       <path id="DejaVuSans-36" d="M 2113 2584 
Q 1688 2584 1439 2293 
Q 1191 2003 1191 1497 
Q 1191 994 1439 701 
Q 1688 409 2113 409 
Q 2538 409 2786 701 
Q 3034 994 3034 1497 
Q 3034 2003 2786 2293 
Q 2538 2584 2113 2584 
z
M 3366 4563 
L 3366 3988 
Q 3128 4100 2886 4159 
Q 2644 4219 2406 4219 
Q 1781 4219 1451 3797 
Q 1122 3375 1075 2522 
Q 1259 2794 1537 2939 
Q 1816 3084 2150 3084 
Q 2853 3084 3261 2657 
Q 3669 2231 3669 1497 
Q 3669 778 3244 343 
Q 2819 -91 2113 -91 
Q 1303 -91 875 529 
Q 447 1150 447 2328 
Q 447 3434 972 4092 
Q 1497 4750 2381 4750 
Q 2619 4750 2861 4703 
Q 3103 4656 3366 4563 
z
" transform="scale(0.015625)"/>
      </defs>
      <use xlink:href="#DejaVuSans-36"/>
     </g>
    </g>
   </g>
  </g>
 </g>
 <defs>
  <clipPath id="p1112293c86">
   <rect x="0" y="0" width="576" height="818.380863"/>
  </clipPath>
 </defs>
</svg>
