<?xml version="1.0" encoding="utf-8" standalone="no"?>
<!DOCTYPE svg PUBLIC "-//W3C//DTD SVG 1.1//EN"
  "http://www.w3.org/Graphics/SVG/1.1/DTD/svg11.dtd">
<svg xmlns:xlink="http://www.w3.org/1999/xlink" width="576pt" height="820.261383pt" viewBox="0 0 576 820.261383" xmlns="http://www.w3.org/2000/svg" version="1.1">
 <metadata>
  <rdf:RDF xmlns:dc="http://purl.org/dc/elements/1.1/" xmlns:cc="http://creativecommons.org/ns#" xmlns:rdf="http://www.w3.org/1999/02/22-rdf-syntax-ns#">
   <cc:Work>
    <dc:type rdf:resource="http://purl.org/dc/dcmitype/StillImage"/>
    <dc:date>2025-07-25T22:44:47.345993</dc:date>
    <dc:format>image/svg+xml</dc:format>
    <dc:creator>
     <cc:Agent>
      <dc:title>Matplotlib v3.10.3, https://matplotlib.org/</dc:title>
     </cc:Agent>
    </dc:creator>
   </cc:Work>
  </rdf:RDF>
 </metadata>
 <defs>
  <style type="text/css">*{stroke-linejoin: round; stroke-linecap: butt}</style>
 </defs>
 <g id="figure_1">
  <g id="patch_1">
   <path d="M 0 820.261383 
L 576 820.261383 
L 576 0 
L 0 0 
L 0 820.261383 
z
" style="fill: none; opacity: 0"/>
  </g>
  <g id="axes_1">
   <g id="QuadContourSet_1">
    <path d="M 3.291429 820.261383 
L 6.582857 820.261383 
L 9.874286 820.261383 
L 13.165714 820.261383 
L 16.457143 820.261383 
L 19.748571 820.261383 
L 23.04 820.261383 
L 26.331429 820.261383 
L 29.622857 820.261383 
L 32.914286 820.261383 
L 36.205714 820.261383 
L 39.497143 820.261383 
L 42.788571 820.261383 
L 46.08 820.261383 
L 49.371429 820.261383 
L 52.662857 820.261383 
L 55.954286 820.261383 
L 59.245714 820.261383 
L 62.537143 820.261383 
L 65.828571 820.261383 
L 69.12 820.261383 
L 72.411429 820.261383 
L 75.702857 820.261383 
L 78.994286 820.261383 
L 82.285714 820.261383 
L 85.577143 820.261383 
L 88.868571 820.261383 
L 92.16 820.261383 
L 95.451429 820.261383 
L 98.742857 820.261383 
L 102.034286 820.261383 
L 105.325714 820.261383 
L 108.617143 820.261383 
L 111.908571 820.261383 
L 115.2 820.261383 
L 118.491429 820.261383 
L 121.782857 820.261383 
L 125.074286 820.261383 
L 128.365714 820.261383 
L 131.657143 820.261383 
L 134.948571 820.261383 
L 138.24 820.261383 
L 141.531429 820.261383 
L 144.822857 820.261383 
L 148.114286 820.261383 
L 151.405714 820.261383 
L 154.697143 820.261383 
L 157.988571 820.261383 
L 161.28 820.261383 
L 164.571429 820.261383 
L 167.862857 820.261383 
L 171.154286 820.261383 
L 174.445714 820.261383 
L 177.737143 820.261383 
L 181.028571 820.261383 
L 184.32 820.261383 
L 187.611429 820.261383 
L 190.902857 820.261383 
L 194.194286 820.261383 
L 197.485714 820.261383 
L 200.777143 820.261383 
L 204.068571 820.261383 
L 207.36 820.261383 
L 210.651429 820.261383 
L 213.942857 820.261383 
L 217.234286 820.261383 
L 220.525714 820.261383 
L 223.817143 820.261383 
L 227.108571 820.261383 
L 230.4 820.261383 
L 233.691429 820.261383 
L 236.982857 820.261383 
L 240.274286 820.261383 
L 243.565714 820.261383 
L 246.857143 820.261383 
L 250.148571 820.261383 
L 253.44 820.261383 
L 256.731429 820.261383 
L 260.022857 820.261383 
L 263.314286 820.261383 
L 266.605714 820.261383 
L 269.897143 820.261383 
L 273.188571 820.261383 
L 276.48 820.261383 
L 279.771429 820.261383 
L 283.062857 820.261383 
L 286.354286 820.261383 
L 289.645714 820.261383 
L 292.937143 820.261383 
L 296.228571 820.261383 
L 299.52 820.261383 
L 302.811429 820.261383 
L 306.102857 820.261383 
L 309.394286 820.261383 
L 312.685714 820.261383 
L 315.977143 820.261383 
L 319.268571 820.261383 
L 322.56 820.261383 
L 325.851429 820.261383 
L 329.142857 820.261383 
L 332.434286 820.261383 
L 335.725714 820.261383 
L 339.017143 820.261383 
L 342.308571 820.261383 
L 345.6 820.261383 
L 348.891429 820.261383 
L 352.182857 820.261383 
L 355.474286 820.261383 
L 358.765714 820.261383 
L 362.057143 820.261383 
L 365.348571 820.261383 
L 368.64 820.261383 
L 371.931429 820.261383 
L 375.222857 820.261383 
L 378.514286 820.261383 
L 381.805714 820.261383 
L 385.097143 820.261383 
L 388.388571 820.261383 
L 391.68 820.261383 
L 394.971429 820.261383 
L 398.262857 820.261383 
L 401.554286 820.261383 
L 404.845714 820.261383 
L 408.137143 820.261383 
L 411.428571 820.261383 
L 414.72 820.261383 
L 418.011429 820.261383 
L 421.302857 820.261383 
L 424.594286 820.261383 
L 427.885714 820.261383 
L 431.177143 820.261383 
L 434.468571 820.261383 
L 437.76 820.261383 
L 441.051429 820.261383 
L 444.342857 820.261383 
L 447.634286 820.261383 
L 450.925714 820.261383 
L 454.217143 820.261383 
L 457.508571 820.261383 
L 460.8 820.261383 
L 464.091429 820.261383 
L 467.382857 820.261383 
L 470.674286 820.261383 
L 473.965714 820.261383 
L 477.257143 820.261383 
L 480.548571 820.261383 
L 483.84 820.261383 
L 487.131429 820.261383 
L 490.422857 820.261383 
L 493.714286 820.261383 
L 497.005714 820.261383 
L 500.297143 820.261383 
L 503.588571 820.261383 
L 506.88 820.261383 
L 510.171429 820.261383 
L 513.462857 820.261383 
L 516.754286 820.261383 
L 520.045714 820.261383 
L 523.337143 820.261383 
L 526.628571 820.261383 
L 529.92 820.261383 
L 533.211429 820.261383 
L 536.502857 820.261383 
L 539.794286 820.261383 
L 543.085714 820.261383 
L 546.377143 820.261383 
L 549.668571 820.261383 
L 552.96 820.261383 
L 556.251429 820.261383 
L 559.542857 820.261383 
L 562.834286 820.261383 
L 566.125714 820.261383 
L 569.417143 820.261383 
L 572.708571 820.261383 
L 576 820.261383 
L 576 816.967161 
L 576 813.672938 
L 576 810.378716 
L 576 807.084493 
L 576 803.790271 
L 576 800.496049 
L 576 797.201826 
L 576 793.907604 
L 576 790.613381 
L 576 787.319159 
L 576 784.024937 
L 576 780.730714 
L 576 777.436492 
L 576 774.142269 
L 576 770.848047 
L 576 767.553824 
L 576 764.259602 
L 576 760.96538 
L 576 757.671157 
L 576 754.376935 
L 576 751.082712 
L 576 747.78849 
L 576 744.494267 
L 576 741.200045 
L 576 737.905823 
L 576 734.6116 
L 576 731.317378 
L 576 728.023155 
L 576 724.728933 
L 576 721.43471 
L 576 718.140488 
L 576 714.846266 
L 576 711.552043 
L 576 708.257821 
L 576 704.963598 
L 576 701.669376 
L 576 698.375154 
L 576 695.080931 
L 576 691.786709 
L 576 688.492486 
L 576 685.198264 
L 576 681.904041 
L 576 678.609819 
L 576 675.315597 
L 576 672.021374 
L 576 668.727152 
L 576 665.432929 
L 576 662.138707 
L 576 658.844484 
L 576 655.550262 
L 576 652.25604 
L 576 648.961817 
L 576 645.667595 
L 576 642.373372 
L 576 639.07915 
L 576 635.784928 
L 576 632.490705 
L 576 629.196483 
L 576 625.90226 
L 576 622.608038 
L 576 619.313815 
L 576 616.019593 
L 576 612.725371 
L 576 609.431148 
L 576 606.136926 
L 576 602.842703 
L 576 599.548481 
L 576 596.254258 
L 576 592.960036 
L 576 589.665814 
L 576 586.371591 
L 576 583.077369 
L 576 579.783146 
L 576 576.488924 
L 576 573.194701 
L 576 569.900479 
L 576 566.606257 
L 576 563.312034 
L 576 560.017812 
L 576 556.723589 
L 576 553.429367 
L 576 550.135145 
L 576 546.840922 
L 576 543.5467 
L 576 540.252477 
L 576 536.958255 
L 576 533.664032 
L 576 530.36981 
L 576 527.075588 
L 576 523.781365 
L 576 520.487143 
L 576 517.19292 
L 576 513.898698 
L 576 510.604475 
L 576 507.310253 
L 576 504.016031 
L 576 500.721808 
L 576 497.427586 
L 576 494.133363 
L 576 490.839141 
L 576 487.544919 
L 576 484.250696 
L 576 480.956474 
L 576 477.662251 
L 576 474.368029 
L 576 471.073806 
L 576 467.779584 
L 576 464.485362 
L 576 461.191139 
L 576 457.896917 
L 576 454.602694 
L 576 451.308472 
L 576 448.014249 
L 576 444.720027 
L 576 441.425805 
L 576 438.131582 
L 576 434.83736 
L 576 431.543137 
L 576 428.248915 
L 576 424.954692 
L 576 421.66047 
L 576 418.366248 
L 576 415.072025 
L 576 411.777803 
L 576 408.48358 
L 576 405.189358 
L 576 401.895136 
L 576 398.600913 
L 576 395.306691 
L 576 392.012468 
L 576 388.718246 
L 576 385.424023 
L 576 382.129801 
L 576 378.835579 
L 576 375.541356 
L 576 372.247134 
L 576 368.952911 
L 576 365.658689 
L 576 362.364466 
L 576 359.070244 
L 576 355.776022 
L 576 352.481799 
L 576 349.187577 
L 576 345.893354 
L 576 342.599132 
L 576 339.304909 
L 576 336.010687 
L 576 332.716465 
L 576 329.422242 
L 576 326.12802 
L 576 322.833797 
L 576 319.539575 
L 576 316.245353 
L 576 312.95113 
L 576 309.656908 
L 576 306.362685 
L 576 303.068463 
L 576 299.77424 
L 576 296.480018 
L 576 293.185796 
L 576 289.891573 
L 576 286.597351 
L 576 283.303128 
L 576 280.008906 
L 576 276.714683 
L 576 273.420461 
L 576 270.126239 
L 576 266.832016 
L 576 263.537794 
L 576 260.243571 
L 576 256.949349 
L 576 253.655127 
L 576 250.360904 
L 576 247.066682 
L 576 243.772459 
L 576 240.478237 
L 576 237.184014 
L 576 233.889792 
L 576 230.59557 
L 576 227.301347 
L 576 224.007125 
L 576 220.712902 
L 576 217.41868 
L 576 214.124457 
L 576 210.830235 
L 576 207.536013 
L 576 204.24179 
L 576 200.947568 
L 576 197.653345 
L 576 194.359123 
L 576 191.0649 
L 576 187.770678 
L 576 184.476456 
L 576 181.182233 
L 576 177.888011 
L 576 174.593788 
L 576 171.299566 
L 576 168.005344 
L 576 164.711121 
L 576 161.416899 
L 576 158.122676 
L 576 154.828454 
L 576 151.534231 
L 576 148.240009 
L 576 144.945787 
L 576 141.651564 
L 576 138.357342 
L 576 135.063119 
L 576 131.768897 
L 576 128.474674 
L 576 125.180452 
L 576 121.88623 
L 576 118.592007 
L 576 115.297785 
L 576 112.003562 
L 576 108.70934 
L 576 105.415118 
L 576 102.120895 
L 576 98.826673 
L 576 95.53245 
L 576 92.238228 
L 576 88.944005 
L 576 85.649783 
L 576 82.355561 
L 576 79.061338 
L 576 75.767116 
L 576 72.472893 
L 576 69.178671 
L 576 65.884448 
L 576 62.590226 
L 576 59.296004 
L 576 56.001781 
L 576 52.707559 
L 576 49.413336 
L 576 46.119114 
L 576 42.824891 
L 576 39.530669 
L 576 36.236447 
L 576 32.942224 
L 576 29.648002 
L 576 26.353779 
L 576 23.059557 
L 576 19.765335 
L 576 16.471112 
L 576 13.17689 
L 576 9.882667 
L 576 6.588445 
L 576 3.294222 
L 576 0 
L 572.708571 0 
L 569.417143 0 
L 566.125714 0 
L 562.834286 0 
L 559.542857 0 
L 556.251429 0 
L 552.96 0 
L 549.668571 0 
L 546.377143 0 
L 543.085714 0 
L 539.794286 0 
L 536.502857 0 
L 533.211429 0 
L 529.92 0 
L 526.628571 0 
L 523.337143 0 
L 520.045714 0 
L 516.754286 0 
L 513.462857 0 
L 510.171429 0 
L 506.88 0 
L 503.588571 0 
L 500.297143 0 
L 497.005714 0 
L 493.714286 0 
L 490.422857 0 
L 487.131429 0 
L 483.84 0 
L 480.548571 0 
L 477.257143 0 
L 473.965714 0 
L 470.674286 0 
L 467.382857 0 
L 464.091429 0 
L 460.8 0 
L 457.508571 0 
L 454.217143 0 
L 450.925714 0 
L 447.634286 0 
L 444.342857 0 
L 441.051429 0 
L 437.76 0 
L 434.468571 0 
L 431.177143 0 
L 427.885714 0 
L 424.594286 0 
L 421.302857 0 
L 418.011429 0 
L 414.72 0 
L 411.428571 0 
L 408.137143 0 
L 404.845714 0 
L 401.554286 0 
L 398.262857 0 
L 394.971429 0 
L 391.68 0 
L 388.388571 0 
L 385.097143 0 
L 381.805714 0 
L 378.514286 0 
L 375.222857 0 
L 371.931429 0 
L 368.64 0 
L 365.348571 0 
L 362.057143 0 
L 358.765714 0 
L 355.474286 0 
L 352.182857 0 
L 348.891429 0 
L 345.6 0 
L 342.308571 0 
L 339.017143 0 
L 335.725714 0 
L 332.434286 0 
L 329.142857 0 
L 325.851429 0 
L 322.56 0 
L 319.268571 0 
L 315.977143 0 
L 312.685714 0 
L 309.394286 0 
L 306.102857 0 
L 302.811429 0 
L 299.52 0 
L 296.228571 0 
L 292.937143 0 
L 289.645714 0 
L 286.354286 0 
L 283.062857 0 
L 279.771429 0 
L 276.48 0 
L 273.188571 0 
L 269.897143 0 
L 266.605714 0 
L 263.314286 0 
L 260.022857 0 
L 256.731429 0 
L 253.44 0 
L 250.148571 0 
L 246.857143 0 
L 243.565714 0 
L 240.274286 0 
L 236.982857 0 
L 233.691429 0 
L 230.4 0 
L 227.108571 0 
L 223.817143 0 
L 220.525714 0 
L 217.234286 0 
L 213.942857 0 
L 210.651429 0 
L 207.36 0 
L 204.068571 0 
L 200.777143 0 
L 197.485714 0 
L 194.194286 0 
L 190.902857 0 
L 187.611429 0 
L 184.32 0 
L 181.028571 0 
L 177.737143 0 
L 174.445714 0 
L 171.154286 0 
L 167.862857 0 
L 164.571429 0 
L 161.28 0 
L 157.988571 0 
L 154.697143 0 
L 151.405714 0 
L 148.114286 0 
L 144.822857 0 
L 141.531429 0 
L 138.24 0 
L 134.948571 0 
L 131.657143 0 
L 128.365714 0 
L 125.074286 0 
L 121.782857 0 
L 118.491429 0 
L 115.2 0 
L 111.908571 0 
L 108.617143 0 
L 105.325714 0 
L 102.034286 0 
L 98.742857 0 
L 95.451429 0 
L 92.16 0 
L 88.868571 0 
L 85.577143 0 
L 82.285714 0 
L 78.994286 0 
L 75.702857 0 
L 72.411429 0 
L 69.12 0 
L 65.828571 0 
L 62.537143 0 
L 59.245714 0 
L 55.954286 0 
L 52.662857 0 
L 49.371429 0 
L 46.08 0 
L 42.788571 0 
L 39.497143 0 
L 36.205714 0 
L 32.914286 0 
L 29.622857 0 
L 26.331429 0 
L 23.04 0 
L 19.748571 0 
L 16.457143 0 
L 13.165714 0 
L 9.874286 0 
L 6.582857 0 
L 3.291429 0 
L 0 0 
L 0 3.294222 
L 0 6.588445 
L 0 9.882667 
L 0 13.17689 
L 0 16.471112 
L 0 19.765335 
L 0 23.059557 
L 0 26.353779 
L 0 29.648002 
L 0 32.942224 
L 0 36.236447 
L 0 39.530669 
L 0 42.824891 
L 0 46.119114 
L 0 49.413336 
L 0 52.707559 
L 0 56.001781 
L 0 59.296004 
L 0 62.590226 
L 0 65.884448 
L 0 69.178671 
L 0 72.472893 
L 0 75.767116 
L 0 79.061338 
L 0 82.355561 
L 0 85.649783 
L 0 88.944005 
L 0 92.238228 
L 0 95.53245 
L 0 98.826673 
L 0 102.120895 
L 0 105.415118 
L 0 108.70934 
L 0 112.003562 
L 0 115.297785 
L 0 118.592007 
L 0 121.88623 
L 0 125.180452 
L 0 128.474674 
L 0 131.768897 
L 0 135.063119 
L 0 138.357342 
L 0 141.651564 
L 0 144.945787 
L 0 148.240009 
L 0 151.534231 
L 0 154.828454 
L 0 158.122676 
L 0 161.416899 
L 0 164.711121 
L 0 168.005344 
L 0 171.299566 
L 0 174.593788 
L 0 177.888011 
L 0 181.182233 
L 0 184.476456 
L 0 187.770678 
L 0 191.0649 
L 0 194.359123 
L 0 197.653345 
L 0 200.947568 
L 0 204.24179 
L 0 207.536013 
L 0 210.830235 
L 0 214.124457 
L 0 217.41868 
L 0 220.712902 
L 0 224.007125 
L 0 227.301347 
L 0 230.59557 
L 0 233.889792 
L 0 237.184014 
L 0 240.478237 
L 0 243.772459 
L 0 247.066682 
L 0 250.360904 
L 0 253.655127 
L 0 256.949349 
L 0 260.243571 
L 0 263.537794 
L 0 266.832016 
L 0 270.126239 
L 0 273.420461 
L 0 276.714683 
L 0 280.008906 
L 0 283.303128 
L 0 286.597351 
L 0 289.891573 
L 0 293.185796 
L 0 296.480018 
L 0 299.77424 
L 0 303.068463 
L 0 306.362685 
L 0 309.656908 
L 0 312.95113 
L 0 316.245353 
L 0 319.539575 
L 0 322.833797 
L 0 326.12802 
L 0 329.422242 
L 0 332.716465 
L 0 336.010687 
L 0 339.304909 
L 0 342.599132 
L 0 345.893354 
L 0 349.187577 
L 0 352.481799 
L 0 355.776022 
L 0 359.070244 
L 0 362.364466 
L 0 365.658689 
L 0 368.952911 
L 0 372.247134 
L 0 375.541356 
L 0 378.835579 
L 0 382.129801 
L 0 385.424023 
L 0 388.718246 
L 0 392.012468 
L 0 395.306691 
L 0 398.600913 
L 0 401.895136 
L 0 405.189358 
L 0 408.48358 
L 0 411.777803 
L 0 415.072025 
L 0 418.366248 
L 0 421.66047 
L 0 424.954692 
L 0 428.248915 
L 0 431.543137 
L 0 434.83736 
L 0 438.131582 
L 0 441.425805 
L 0 444.720027 
L 0 448.014249 
L 0 451.308472 
L 0 454.602694 
L 0 457.896917 
L 0 461.191139 
L 0 464.485362 
L 0 467.779584 
L 0 471.073806 
L 0 474.368029 
L 0 477.662251 
L 0 480.956474 
L 0 484.250696 
L 0 487.544919 
L 0 490.839141 
L 0 494.133363 
L 0 497.427586 
L 0 500.721808 
L 0 504.016031 
L 0 507.310253 
L 0 510.604475 
L 0 513.898698 
L 0 517.19292 
L 0 520.487143 
L 0 523.781365 
L 0 527.075588 
L 0 530.36981 
L 0 533.664032 
L 0 536.958255 
L 0 540.252477 
L 0 543.5467 
L 0 546.840922 
L 0 550.135145 
L 0 553.429367 
L 0 556.723589 
L 0 560.017812 
L 0 563.312034 
L 0 566.606257 
L 0 569.900479 
L 0 573.194701 
L 0 576.488924 
L 0 579.783146 
L 0 583.077369 
L 0 586.371591 
L 0 589.665814 
L 0 592.960036 
L 0 596.254258 
L 0 599.548481 
L 0 602.842703 
L 0 606.136926 
L 0 609.431148 
L 0 612.725371 
L 0 616.019593 
L 0 619.313815 
L 0 622.608038 
L 0 625.90226 
L 0 629.196483 
L 0 632.490705 
L 0 635.784928 
L 0 639.07915 
L 0 642.373372 
L 0 645.667595 
L 0 648.961817 
L 0 652.25604 
L 0 655.550262 
L 0 658.844484 
L 0 662.138707 
L 0 665.432929 
L 0 668.727152 
L 0 672.021374 
L 0 675.315597 
L 0 678.609819 
L 0 681.904041 
L 0 685.198264 
L 0 688.492486 
L 0 691.786709 
L 0 695.080931 
L 0 698.375154 
L 0 701.669376 
L 0 704.963598 
L 0 708.257821 
L 0 711.552043 
L 0 714.846266 
L 0 718.140488 
L 0 721.43471 
L 0 724.728933 
L 0 728.023155 
L 0 731.317378 
L 0 734.6116 
L 0 737.905823 
L 0 741.200045 
L 0 744.494267 
L 0 747.78849 
L 0 751.082712 
L 0 754.376935 
L 0 757.671157 
L 0 760.96538 
L 0 764.259602 
L 0 767.553824 
L 0 770.848047 
L 0 774.142269 
L 0 777.436492 
L 0 780.730714 
L 0 784.024937 
L 0 787.319159 
L 0 790.613381 
L 0 793.907604 
L 0 797.201826 
L 0 800.496049 
L 0 803.790271 
L 0 807.084493 
L 0 810.378716 
L 0 813.672938 
L 0 816.967161 
L 0 820.261383 
z
" clip-path="url(#p6ffdf09aa9)" style="fill: #f5f9fe; fill-opacity: 0.9"/>
    <path clip-path="url(#p6ffdf09aa9)" style="fill: #eff6fc; fill-opacity: 0.9"/>
    <path clip-path="url(#p6ffdf09aa9)" style="fill: #eaf3fb; fill-opacity: 0.9"/>
    <path clip-path="url(#p6ffdf09aa9)" style="fill: #e5eff9; fill-opacity: 0.9"/>
    <path clip-path="url(#p6ffdf09aa9)" style="fill: #dfecf7; fill-opacity: 0.9"/>
    <path clip-path="url(#p6ffdf09aa9)" style="fill: #dae8f6; fill-opacity: 0.9"/>
    <path clip-path="url(#p6ffdf09aa9)" style="fill: #d6e5f4; fill-opacity: 0.9"/>
    <path clip-path="url(#p6ffdf09aa9)" style="fill: #d0e2f2; fill-opacity: 0.9"/>
    <path clip-path="url(#p6ffdf09aa9)" style="fill: #cbdef1; fill-opacity: 0.9"/>
    <path clip-path="url(#p6ffdf09aa9)" style="fill: #c6dbef; fill-opacity: 0.9"/>
    <path clip-path="url(#p6ffdf09aa9)" style="fill: #bed8ec; fill-opacity: 0.9"/>
    <path clip-path="url(#p6ffdf09aa9)" style="fill: #b5d4e9; fill-opacity: 0.9"/>
    <path clip-path="url(#p6ffdf09aa9)" style="fill: #add0e6; fill-opacity: 0.9"/>
    <path clip-path="url(#p6ffdf09aa9)" style="fill: #a5cde3; fill-opacity: 0.9"/>
    <path clip-path="url(#p6ffdf09aa9)" style="fill: #9cc9e1; fill-opacity: 0.9"/>
    <path clip-path="url(#p6ffdf09aa9)" style="fill: #91c3de; fill-opacity: 0.9"/>
    <path clip-path="url(#p6ffdf09aa9)" style="fill: #85bcdc; fill-opacity: 0.9"/>
    <path clip-path="url(#p6ffdf09aa9)" style="fill: #7cb7da; fill-opacity: 0.9"/>
    <path clip-path="url(#p6ffdf09aa9)" style="fill: #71b1d7; fill-opacity: 0.9"/>
    <path clip-path="url(#p6ffdf09aa9)" style="fill: #66abd4; fill-opacity: 0.9"/>
    <path clip-path="url(#p6ffdf09aa9)" style="fill: #5da5d1; fill-opacity: 0.9"/>
    <path clip-path="url(#p6ffdf09aa9)" style="fill: #56a0ce; fill-opacity: 0.9"/>
    <path clip-path="url(#p6ffdf09aa9)" style="fill: #4d99ca; fill-opacity: 0.9"/>
    <path clip-path="url(#p6ffdf09aa9)" style="fill: #4493c7; fill-opacity: 0.9"/>
    <path clip-path="url(#p6ffdf09aa9)" style="fill: #3c8cc3; fill-opacity: 0.9"/>
    <path clip-path="url(#p6ffdf09aa9)" style="fill: #3686c0; fill-opacity: 0.9"/>
    <path clip-path="url(#p6ffdf09aa9)" style="fill: #2f7fbc; fill-opacity: 0.9"/>
    <path clip-path="url(#p6ffdf09aa9)" style="fill: #2777b8; fill-opacity: 0.9"/>
    <path clip-path="url(#p6ffdf09aa9)" style="fill: #2070b4; fill-opacity: 0.9"/>
    <path clip-path="url(#p6ffdf09aa9)" style="fill: #1c6ab0; fill-opacity: 0.9"/>
    <path clip-path="url(#p6ffdf09aa9)" style="fill: #1663aa; fill-opacity: 0.9"/>
    <path clip-path="url(#p6ffdf09aa9)" style="fill: #115ca5; fill-opacity: 0.9"/>
    <path clip-path="url(#p6ffdf09aa9)" style="fill: #0c56a0; fill-opacity: 0.9"/>
    <path clip-path="url(#p6ffdf09aa9)" style="fill: #084f99; fill-opacity: 0.9"/>
    <path clip-path="url(#p6ffdf09aa9)" style="fill: #08488e; fill-opacity: 0.9"/>
    <path clip-path="url(#p6ffdf09aa9)" style="fill: #084184; fill-opacity: 0.9"/>
    <path clip-path="url(#p6ffdf09aa9)" style="fill: #083a7a; fill-opacity: 0.9"/>
    <path clip-path="url(#p6ffdf09aa9)" style="fill: #083370; fill-opacity: 0.9"/>
    <path clip-path="url(#p6ffdf09aa9)" style="fill: #08306b; fill-opacity: 0.9"/>
   </g>
   <g id="QuadContourSet_2">
    <path clip-path="url(#p6ffdf09aa9)" style="fill: none"/>
    <path clip-path="url(#p6ffdf09aa9)" style="fill: none"/>
    <path clip-path="url(#p6ffdf09aa9)" style="fill: none"/>
    <path clip-path="url(#p6ffdf09aa9)" style="fill: none"/>
    <path clip-path="url(#p6ffdf09aa9)" style="fill: none"/>
    <path clip-path="url(#p6ffdf09aa9)" style="fill: none"/>
    <path clip-path="url(#p6ffdf09aa9)" style="fill: none"/>
    <path clip-path="url(#p6ffdf09aa9)" style="fill: none"/>
    <path clip-path="url(#p6ffdf09aa9)" style="fill: none"/>
    <path clip-path="url(#p6ffdf09aa9)" style="fill: none"/>
    <path clip-path="url(#p6ffdf09aa9)" style="fill: none"/>
    <path clip-path="url(#p6ffdf09aa9)" style="fill: none"/>
    <path clip-path="url(#p6ffdf09aa9)" style="fill: none"/>
    <path clip-path="url(#p6ffdf09aa9)" style="fill: none"/>
    <path clip-path="url(#p6ffdf09aa9)" style="fill: none"/>
    <path clip-path="url(#p6ffdf09aa9)" style="fill: none"/>
    <path clip-path="url(#p6ffdf09aa9)" style="fill: none"/>
    <path clip-path="url(#p6ffdf09aa9)" style="fill: none"/>
    <path clip-path="url(#p6ffdf09aa9)" style="fill: none"/>
    <path clip-path="url(#p6ffdf09aa9)" style="fill: none"/>
    <path clip-path="url(#p6ffdf09aa9)" style="fill: none"/>
    <path clip-path="url(#p6ffdf09aa9)" style="fill: none"/>
    <path clip-path="url(#p6ffdf09aa9)" style="fill: none"/>
    <path clip-path="url(#p6ffdf09aa9)" style="fill: none"/>
    <path clip-path="url(#p6ffdf09aa9)" style="fill: none"/>
    <path clip-path="url(#p6ffdf09aa9)" style="fill: none"/>
    <path clip-path="url(#p6ffdf09aa9)" style="fill: none"/>
    <path clip-path="url(#p6ffdf09aa9)" style="fill: none"/>
    <path clip-path="url(#p6ffdf09aa9)" style="fill: none"/>
    <path clip-path="url(#p6ffdf09aa9)" style="fill: none"/>
    <path clip-path="url(#p6ffdf09aa9)" style="fill: none"/>
    <path clip-path="url(#p6ffdf09aa9)" style="fill: none"/>
    <path clip-path="url(#p6ffdf09aa9)" style="fill: none"/>
    <path clip-path="url(#p6ffdf09aa9)" style="fill: none"/>
    <path clip-path="url(#p6ffdf09aa9)" style="fill: none"/>
    <path clip-path="url(#p6ffdf09aa9)" style="fill: none"/>
    <path clip-path="url(#p6ffdf09aa9)" style="fill: none"/>
    <path clip-path="url(#p6ffdf09aa9)" style="fill: none"/>
    <path clip-path="url(#p6ffdf09aa9)" style="fill: none"/>
   </g>
  </g>
 </g>
 <defs>
  <clipPath id="p6ffdf09aa9">
   <rect x="0" y="0" width="576" height="820.261383"/>
  </clipPath>
 </defs>
</svg>
