<?xml version="1.0" encoding="utf-8" standalone="no"?>
<!DOCTYPE svg PUBLIC "-//W3C//DTD SVG 1.1//EN"
  "http://www.w3.org/Graphics/SVG/1.1/DTD/svg11.dtd">
<svg xmlns:xlink="http://www.w3.org/1999/xlink" width="576pt" height="819.247199pt" viewBox="0 0 576 819.247199" xmlns="http://www.w3.org/2000/svg" version="1.1">
 <metadata>
  <rdf:RDF xmlns:dc="http://purl.org/dc/elements/1.1/" xmlns:cc="http://creativecommons.org/ns#" xmlns:rdf="http://www.w3.org/1999/02/22-rdf-syntax-ns#">
   <cc:Work>
    <dc:type rdf:resource="http://purl.org/dc/dcmitype/StillImage"/>
    <dc:date>2025-07-25T22:44:33.573293</dc:date>
    <dc:format>image/svg+xml</dc:format>
    <dc:creator>
     <cc:Agent>
      <dc:title>Matplotlib v3.10.3, https://matplotlib.org/</dc:title>
     </cc:Agent>
    </dc:creator>
   </cc:Work>
  </rdf:RDF>
 </metadata>
 <defs>
  <style type="text/css">*{stroke-linejoin: round; stroke-linecap: butt}</style>
 </defs>
 <g id="figure_1">
  <g id="patch_1">
   <path d="M 0 819.247199 
L 576 819.247199 
L 576 0 
L 0 0 
L 0 819.247199 
z
" style="fill: none; opacity: 0"/>
  </g>
  <g id="axes_1">
   <g id="QuadContourSet_1">
    <path d="M 3.291429 819.247199 
L 6.582857 819.247199 
L 9.874286 819.247199 
L 13.165714 819.247199 
L 16.457143 819.247199 
L 19.748571 819.247199 
L 23.04 819.247199 
L 26.331429 819.247199 
L 29.622857 819.247199 
L 32.914286 819.247199 
L 36.205714 819.247199 
L 39.497143 819.247199 
L 42.788571 819.247199 
L 46.08 819.247199 
L 49.371429 819.247199 
L 52.662857 819.247199 
L 55.954286 819.247199 
L 59.245714 819.247199 
L 62.537143 819.247199 
L 65.828571 819.247199 
L 69.12 819.247199 
L 72.411429 819.247199 
L 75.702857 819.247199 
L 78.994286 819.247199 
L 82.285714 819.247199 
L 85.577143 819.247199 
L 88.868571 819.247199 
L 92.16 819.247199 
L 95.451429 819.247199 
L 98.742857 819.247199 
L 102.034286 819.247199 
L 105.325714 819.247199 
L 108.617143 819.247199 
L 111.908571 819.247199 
L 115.2 819.247199 
L 118.491429 819.247199 
L 121.782857 819.247199 
L 125.074286 819.247199 
L 128.365714 819.247199 
L 131.657143 819.247199 
L 134.948571 819.247199 
L 138.24 819.247199 
L 141.531429 819.247199 
L 144.822857 819.247199 
L 148.114286 819.247199 
L 151.405714 819.247199 
L 154.697143 819.247199 
L 157.988571 819.247199 
L 161.28 819.247199 
L 164.571429 819.247199 
L 167.862857 819.247199 
L 171.154286 819.247199 
L 174.445714 819.247199 
L 177.737143 819.247199 
L 181.028571 819.247199 
L 184.32 819.247199 
L 187.611429 819.247199 
L 190.902857 819.247199 
L 194.194286 819.247199 
L 197.485714 819.247199 
L 200.777143 819.247199 
L 204.068571 819.247199 
L 207.36 819.247199 
L 210.651429 819.247199 
L 213.942857 819.247199 
L 217.234286 819.247199 
L 220.525714 819.247199 
L 223.817143 819.247199 
L 227.108571 819.247199 
L 230.4 819.247199 
L 233.691429 819.247199 
L 236.982857 819.247199 
L 240.274286 819.247199 
L 243.565714 819.247199 
L 246.857143 819.247199 
L 250.148571 819.247199 
L 253.44 819.247199 
L 256.731429 819.247199 
L 260.022857 819.247199 
L 263.314286 819.247199 
L 266.605714 819.247199 
L 269.897143 819.247199 
L 273.188571 819.247199 
L 276.48 819.247199 
L 279.771429 819.247199 
L 283.062857 819.247199 
L 286.354286 819.247199 
L 289.645714 819.247199 
L 292.937143 819.247199 
L 296.228571 819.247199 
L 299.52 819.247199 
L 302.811429 819.247199 
L 306.102857 819.247199 
L 309.394286 819.247199 
L 312.685714 819.247199 
L 315.977143 819.247199 
L 319.268571 819.247199 
L 322.56 819.247199 
L 325.851429 819.247199 
L 329.142857 819.247199 
L 332.434286 819.247199 
L 335.725714 819.247199 
L 339.017143 819.247199 
L 342.308571 819.247199 
L 345.6 819.247199 
L 348.891429 819.247199 
L 352.182857 819.247199 
L 355.474286 819.247199 
L 358.765714 819.247199 
L 362.057143 819.247199 
L 365.348571 819.247199 
L 368.64 819.247199 
L 371.931429 819.247199 
L 375.222857 819.247199 
L 378.514286 819.247199 
L 381.805714 819.247199 
L 385.097143 819.247199 
L 388.388571 819.247199 
L 391.68 819.247199 
L 394.971429 819.247199 
L 398.262857 819.247199 
L 401.554286 819.247199 
L 404.845714 819.247199 
L 408.137143 819.247199 
L 411.428571 819.247199 
L 414.72 819.247199 
L 418.011429 819.247199 
L 421.302857 819.247199 
L 424.594286 819.247199 
L 427.885714 819.247199 
L 431.177143 819.247199 
L 434.468571 819.247199 
L 437.76 819.247199 
L 441.051429 819.247199 
L 444.342857 819.247199 
L 447.634286 819.247199 
L 450.925714 819.247199 
L 454.217143 819.247199 
L 457.508571 819.247199 
L 460.8 819.247199 
L 464.091429 819.247199 
L 467.382857 819.247199 
L 470.674286 819.247199 
L 473.965714 819.247199 
L 477.257143 819.247199 
L 480.548571 819.247199 
L 483.84 819.247199 
L 487.131429 819.247199 
L 490.422857 819.247199 
L 493.714286 819.247199 
L 497.005714 819.247199 
L 500.297143 819.247199 
L 503.588571 819.247199 
L 506.88 819.247199 
L 510.171429 819.247199 
L 513.462857 819.247199 
L 516.754286 819.247199 
L 520.045714 819.247199 
L 523.337143 819.247199 
L 526.628571 819.247199 
L 529.92 819.247199 
L 533.211429 819.247199 
L 536.502857 819.247199 
L 539.794286 819.247199 
L 543.085714 819.247199 
L 546.377143 819.247199 
L 549.668571 819.247199 
L 552.96 819.247199 
L 556.251429 819.247199 
L 559.542857 819.247199 
L 562.834286 819.247199 
L 566.125714 819.247199 
L 569.417143 819.247199 
L 572.708571 819.247199 
L 576 819.247199 
L 576 815.95705 
L 576 812.6669 
L 576 809.376751 
L 576 806.086601 
L 576 802.796452 
L 576 799.506303 
L 576 796.216153 
L 576 792.926004 
L 576 789.635854 
L 576 786.345705 
L 576 783.055556 
L 576 779.765406 
L 576 776.475257 
L 576 773.185108 
L 576 769.894958 
L 576 766.604809 
L 576 763.314659 
L 576 760.02451 
L 576 756.734361 
L 576 753.444211 
L 576 750.154062 
L 576 746.863912 
L 576 743.573763 
L 576 740.283614 
L 576 736.993464 
L 576 733.703315 
L 576 730.413165 
L 576 727.123016 
L 576 723.832867 
L 576 720.542717 
L 576 717.252568 
L 576 713.962418 
L 576 710.672269 
L 576 707.38212 
L 576 704.09197 
L 576 700.801821 
L 576 697.511671 
L 576 694.221522 
L 576 690.931373 
L 576 687.641223 
L 576 684.351074 
L 576 681.060924 
L 576 677.770775 
L 576 674.480626 
L 576 671.190476 
L 576 667.900327 
L 576 664.610178 
L 576 661.320028 
L 576 658.029879 
L 576 654.739729 
L 576 651.44958 
L 576 648.159431 
L 576 644.869281 
L 576 641.579132 
L 576 638.288982 
L 576 634.998833 
L 576 631.708684 
L 576 628.418534 
L 576 625.128385 
L 576 621.838235 
L 576 618.548086 
L 576 615.257937 
L 576 611.967787 
L 576 608.677638 
L 576 605.387488 
L 576 602.097339 
L 576 598.80719 
L 576 595.51704 
L 576 592.226891 
L 576 588.936741 
L 576 585.646592 
L 576 582.356443 
L 576 579.066293 
L 576 575.776144 
L 576 572.485995 
L 576 569.195845 
L 576 565.905696 
L 576 562.615546 
L 576 559.325397 
L 576 556.035248 
L 576 552.745098 
L 576 549.454949 
L 576 546.164799 
L 576 542.87465 
L 576 539.584501 
L 576 536.294351 
L 576 533.004202 
L 576 529.714052 
L 576 526.423903 
L 576 523.133754 
L 576 519.843604 
L 576 516.553455 
L 576 513.263305 
L 576 509.973156 
L 576 506.683007 
L 576 503.392857 
L 576 500.102708 
L 576 496.812558 
L 576 493.522409 
L 576 490.23226 
L 576 486.94211 
L 576 483.651961 
L 576 480.361811 
L 576 477.071662 
L 576 473.781513 
L 576 470.491363 
L 576 467.201214 
L 576 463.911065 
L 576 460.620915 
L 576 457.330766 
L 576 454.040616 
L 576 450.750467 
L 576 447.460318 
L 576 444.170168 
L 576 440.880019 
L 576 437.589869 
L 576 434.29972 
L 576 431.009571 
L 576 427.719421 
L 576 424.429272 
L 576 421.139122 
L 576 417.848973 
L 576 414.558824 
L 576 411.268674 
L 576 407.978525 
L 576 404.688375 
L 576 401.398226 
L 576 398.108077 
L 576 394.817927 
L 576 391.527778 
L 576 388.237628 
L 576 384.947479 
L 576 381.65733 
L 576 378.36718 
L 576 375.077031 
L 576 371.786881 
L 576 368.496732 
L 576 365.206583 
L 576 361.916433 
L 576 358.626284 
L 576 355.336135 
L 576 352.045985 
L 576 348.755836 
L 576 345.465686 
L 576 342.175537 
L 576 338.885388 
L 576 335.595238 
L 576 332.305089 
L 576 329.014939 
L 576 325.72479 
L 576 322.434641 
L 576 319.144491 
L 576 315.854342 
L 576 312.564192 
L 576 309.274043 
L 576 305.983894 
L 576 302.693744 
L 576 299.403595 
L 576 296.113445 
L 576 292.823296 
L 576 289.533147 
L 576 286.242997 
L 576 282.952848 
L 576 279.662698 
L 576 276.372549 
L 576 273.0824 
L 576 269.79225 
L 576 266.502101 
L 576 263.211951 
L 576 259.921802 
L 576 256.631653 
L 576 253.341503 
L 576 250.051354 
L 576 246.761205 
L 576 243.471055 
L 576 240.180906 
L 576 236.890756 
L 576 233.600607 
L 576 230.310458 
L 576 227.020308 
L 576 223.730159 
L 576 220.440009 
L 576 217.14986 
L 576 213.859711 
L 576 210.569561 
L 576 207.279412 
L 576 203.989262 
L 576 200.699113 
L 576 197.408964 
L 576 194.118814 
L 576 190.828665 
L 576 187.538515 
L 576 184.248366 
L 576 180.958217 
L 576 177.668067 
L 576 174.377918 
L 576 171.087768 
L 576 167.797619 
L 576 164.50747 
L 576 161.21732 
L 576 157.927171 
L 576 154.637022 
L 576 151.346872 
L 576 148.056723 
L 576 144.766573 
L 576 141.476424 
L 576 138.186275 
L 576 134.896125 
L 576 131.605976 
L 576 128.315826 
L 576 125.025677 
L 576 121.735528 
L 576 118.445378 
L 576 115.155229 
L 576 111.865079 
L 576 108.57493 
L 576 105.284781 
L 576 101.994631 
L 576 98.704482 
L 576 95.414332 
L 576 92.124183 
L 576 88.834034 
L 576 85.543884 
L 576 82.253735 
L 576 78.963585 
L 576 75.673436 
L 576 72.383287 
L 576 69.093137 
L 576 65.802988 
L 576 62.512838 
L 576 59.222689 
L 576 55.93254 
L 576 52.64239 
L 576 49.352241 
L 576 46.062092 
L 576 42.771942 
L 576 39.481793 
L 576 36.191643 
L 576 32.901494 
L 576 29.611345 
L 576 26.321195 
L 576 23.031046 
L 576 19.740896 
L 576 16.450747 
L 576 13.160598 
L 576 9.870448 
L 576 6.580299 
L 576 3.290149 
L 576 0 
L 572.708571 0 
L 569.417143 0 
L 566.125714 0 
L 562.834286 0 
L 559.542857 0 
L 556.251429 0 
L 552.96 0 
L 549.668571 0 
L 546.377143 0 
L 543.085714 0 
L 539.794286 0 
L 536.502857 0 
L 533.211429 0 
L 529.92 0 
L 526.628571 0 
L 523.337143 0 
L 520.045714 0 
L 516.754286 0 
L 513.462857 0 
L 510.171429 0 
L 506.88 0 
L 503.588571 0 
L 500.297143 0 
L 497.005714 0 
L 493.714286 0 
L 490.422857 0 
L 487.131429 0 
L 483.84 0 
L 480.548571 0 
L 477.257143 0 
L 473.965714 0 
L 470.674286 0 
L 467.382857 0 
L 464.091429 0 
L 460.8 0 
L 457.508571 0 
L 454.217143 0 
L 450.925714 0 
L 447.634286 0 
L 444.342857 0 
L 441.051429 0 
L 437.76 0 
L 434.468571 0 
L 431.177143 0 
L 427.885714 0 
L 424.594286 0 
L 421.302857 0 
L 418.011429 0 
L 414.72 0 
L 411.428571 0 
L 408.137143 0 
L 404.845714 0 
L 401.554286 0 
L 398.262857 0 
L 394.971429 0 
L 391.68 0 
L 388.388571 0 
L 385.097143 0 
L 381.805714 0 
L 378.514286 0 
L 375.222857 0 
L 371.931429 0 
L 368.64 0 
L 365.348571 0 
L 362.057143 0 
L 358.765714 0 
L 355.474286 0 
L 352.182857 0 
L 348.891429 0 
L 345.6 0 
L 342.308571 0 
L 339.017143 0 
L 335.725714 0 
L 332.434286 0 
L 329.142857 0 
L 325.851429 0 
L 322.56 0 
L 319.268571 0 
L 315.977143 0 
L 312.685714 0 
L 309.394286 0 
L 306.102857 0 
L 302.811429 0 
L 299.52 0 
L 296.228571 0 
L 292.937143 0 
L 289.645714 0 
L 286.354286 0 
L 283.062857 0 
L 279.771429 0 
L 276.48 0 
L 273.188571 0 
L 269.897143 0 
L 266.605714 0 
L 263.314286 0 
L 260.022857 0 
L 256.731429 0 
L 253.44 0 
L 250.148571 0 
L 246.857143 0 
L 243.565714 0 
L 240.274286 0 
L 236.982857 0 
L 233.691429 0 
L 230.4 0 
L 227.108571 0 
L 223.817143 0 
L 220.525714 0 
L 217.234286 0 
L 213.942857 0 
L 210.651429 0 
L 207.36 0 
L 204.068571 0 
L 200.777143 0 
L 197.485714 0 
L 194.194286 0 
L 190.902857 0 
L 187.611429 0 
L 184.32 0 
L 181.028571 0 
L 177.737143 0 
L 174.445714 0 
L 171.154286 0 
L 167.862857 0 
L 164.571429 0 
L 161.28 0 
L 157.988571 0 
L 154.697143 0 
L 151.405714 0 
L 148.114286 0 
L 144.822857 0 
L 141.531429 0 
L 138.24 0 
L 134.948571 0 
L 131.657143 0 
L 128.365714 0 
L 125.074286 0 
L 121.782857 0 
L 118.491429 0 
L 115.2 0 
L 111.908571 0 
L 108.617143 0 
L 105.325714 0 
L 102.034286 0 
L 98.742857 0 
L 95.451429 0 
L 92.16 0 
L 88.868571 0 
L 85.577143 0 
L 82.285714 0 
L 78.994286 0 
L 75.702857 0 
L 72.411429 0 
L 69.12 0 
L 65.828571 0 
L 62.537143 0 
L 59.245714 0 
L 55.954286 0 
L 52.662857 0 
L 49.371429 0 
L 46.08 0 
L 42.788571 0 
L 39.497143 0 
L 36.205714 0 
L 32.914286 0 
L 29.622857 0 
L 26.331429 0 
L 23.04 0 
L 19.748571 0 
L 16.457143 0 
L 13.165714 0 
L 9.874286 0 
L 6.582857 0 
L 3.291429 0 
L -0 0 
L -0 3.290149 
L -0 6.580299 
L -0 9.870448 
L -0 13.160598 
L -0 16.450747 
L -0 19.740896 
L -0 23.031046 
L -0 26.321195 
L -0 29.611345 
L -0 32.901494 
L -0 36.191643 
L -0 39.481793 
L -0 42.771942 
L -0 46.062092 
L -0 49.352241 
L -0 52.64239 
L -0 55.93254 
L -0 59.222689 
L -0 62.512838 
L -0 65.802988 
L -0 69.093137 
L -0 72.383287 
L -0 75.673436 
L -0 78.963585 
L -0 82.253735 
L -0 85.543884 
L -0 88.834034 
L -0 92.124183 
L -0 95.414332 
L -0 98.704482 
L -0 101.994631 
L -0 105.284781 
L -0 108.57493 
L -0 111.865079 
L -0 115.155229 
L -0 118.445378 
L -0 121.735528 
L -0 125.025677 
L -0 128.315826 
L -0 131.605976 
L -0 134.896125 
L -0 138.186275 
L -0 141.476424 
L -0 144.766573 
L -0 148.056723 
L -0 151.346872 
L -0 154.637022 
L -0 157.927171 
L -0 161.21732 
L -0 164.50747 
L -0 167.797619 
L -0 171.087768 
L -0 174.377918 
L -0 177.668067 
L -0 180.958217 
L -0 184.248366 
L -0 187.538515 
L -0 190.828665 
L -0 194.118814 
L -0 197.408964 
L -0 200.699113 
L -0 203.989262 
L -0 207.279412 
L -0 210.569561 
L -0 213.859711 
L -0 217.14986 
L -0 220.440009 
L -0 223.730159 
L -0 227.020308 
L -0 230.310458 
L -0 233.600607 
L -0 236.890756 
L -0 240.180906 
L -0 243.471055 
L -0 246.761205 
L -0 250.051354 
L -0 253.341503 
L -0 256.631653 
L -0 259.921802 
L -0 263.211951 
L -0 266.502101 
L -0 269.79225 
L -0 273.0824 
L -0 276.372549 
L -0 279.662698 
L -0 282.952848 
L -0 286.242997 
L -0 289.533147 
L -0 292.823296 
L -0 296.113445 
L -0 299.403595 
L -0 302.693744 
L -0 305.983894 
L -0 309.274043 
L -0 312.564192 
L -0 315.854342 
L -0 319.144491 
L -0 322.434641 
L -0 325.72479 
L -0 329.014939 
L -0 332.305089 
L -0 335.595238 
L -0 338.885388 
L -0 342.175537 
L -0 345.465686 
L -0 348.755836 
L -0 352.045985 
L -0 355.336135 
L -0 358.626284 
L -0 361.916433 
L -0 365.206583 
L -0 368.496732 
L -0 371.786881 
L -0 375.077031 
L -0 378.36718 
L -0 381.65733 
L -0 384.947479 
L -0 388.237628 
L -0 391.527778 
L -0 394.817927 
L -0 398.108077 
L -0 401.398226 
L -0 404.688375 
L -0 407.978525 
L -0 411.268674 
L -0 414.558824 
L -0 417.848973 
L -0 421.139122 
L -0 424.429272 
L -0 427.719421 
L -0 431.009571 
L -0 434.29972 
L -0 437.589869 
L -0 440.880019 
L -0 444.170168 
L -0 447.460318 
L -0 450.750467 
L -0 454.040616 
L -0 457.330766 
L -0 460.620915 
L -0 463.911065 
L -0 467.201214 
L -0 470.491363 
L -0 473.781513 
L -0 477.071662 
L -0 480.361811 
L -0 483.651961 
L -0 486.94211 
L -0 490.23226 
L -0 493.522409 
L -0 496.812558 
L -0 500.102708 
L -0 503.392857 
L -0 506.683007 
L -0 509.973156 
L -0 513.263305 
L -0 516.553455 
L -0 519.843604 
L -0 523.133754 
L -0 526.423903 
L -0 529.714052 
L -0 533.004202 
L -0 536.294351 
L -0 539.584501 
L -0 542.87465 
L -0 546.164799 
L -0 549.454949 
L -0 552.745098 
L -0 556.035248 
L -0 559.325397 
L -0 562.615546 
L -0 565.905696 
L -0 569.195845 
L -0 572.485995 
L -0 575.776144 
L -0 579.066293 
L -0 582.356443 
L -0 585.646592 
L -0 588.936741 
L -0 592.226891 
L -0 595.51704 
L -0 598.80719 
L -0 602.097339 
L -0 605.387488 
L -0 608.677638 
L -0 611.967787 
L -0 615.257937 
L -0 618.548086 
L -0 621.838235 
L -0 625.128385 
L -0 628.418534 
L -0 631.708684 
L -0 634.998833 
L -0 638.288982 
L -0 641.579132 
L -0 644.869281 
L -0 648.159431 
L -0 651.44958 
L -0 654.739729 
L -0 658.029879 
L -0 661.320028 
L -0 664.610178 
L -0 667.900327 
L -0 671.190476 
L -0 674.480626 
L -0 677.770775 
L -0 681.060924 
L -0 684.351074 
L -0 687.641223 
L -0 690.931373 
L -0 694.221522 
L -0 697.511671 
L -0 700.801821 
L -0 704.09197 
L -0 707.38212 
L -0 710.672269 
L -0 713.962418 
L -0 717.252568 
L -0 720.542717 
L -0 723.832867 
L -0 727.123016 
L -0 730.413165 
L -0 733.703315 
L -0 736.993464 
L -0 740.283614 
L -0 743.573763 
L -0 746.863912 
L -0 750.154062 
L -0 753.444211 
L -0 756.734361 
L -0 760.02451 
L -0 763.314659 
L -0 766.604809 
L -0 769.894958 
L -0 773.185108 
L -0 776.475257 
L -0 779.765406 
L -0 783.055556 
L -0 786.345705 
L -0 789.635854 
L -0 792.926004 
L -0 796.216153 
L -0 799.506303 
L -0 802.796452 
L -0 806.086601 
L -0 809.376751 
L -0 812.6669 
L -0 815.95705 
L -0 819.247199 
z
" clip-path="url(#pade5d7ee5a)" style="fill: #f5f9fe; fill-opacity: 0.9"/>
    <path clip-path="url(#pade5d7ee5a)" style="fill: #eff6fc; fill-opacity: 0.9"/>
    <path clip-path="url(#pade5d7ee5a)" style="fill: #eaf3fb; fill-opacity: 0.9"/>
    <path clip-path="url(#pade5d7ee5a)" style="fill: #e5eff9; fill-opacity: 0.9"/>
    <path clip-path="url(#pade5d7ee5a)" style="fill: #dfecf7; fill-opacity: 0.9"/>
    <path clip-path="url(#pade5d7ee5a)" style="fill: #dae8f6; fill-opacity: 0.9"/>
    <path clip-path="url(#pade5d7ee5a)" style="fill: #d6e5f4; fill-opacity: 0.9"/>
    <path clip-path="url(#pade5d7ee5a)" style="fill: #d0e2f2; fill-opacity: 0.9"/>
    <path clip-path="url(#pade5d7ee5a)" style="fill: #cbdef1; fill-opacity: 0.9"/>
    <path clip-path="url(#pade5d7ee5a)" style="fill: #c6dbef; fill-opacity: 0.9"/>
    <path clip-path="url(#pade5d7ee5a)" style="fill: #bed8ec; fill-opacity: 0.9"/>
    <path clip-path="url(#pade5d7ee5a)" style="fill: #b5d4e9; fill-opacity: 0.9"/>
    <path clip-path="url(#pade5d7ee5a)" style="fill: #add0e6; fill-opacity: 0.9"/>
    <path clip-path="url(#pade5d7ee5a)" style="fill: #a5cde3; fill-opacity: 0.9"/>
    <path clip-path="url(#pade5d7ee5a)" style="fill: #9cc9e1; fill-opacity: 0.9"/>
    <path clip-path="url(#pade5d7ee5a)" style="fill: #91c3de; fill-opacity: 0.9"/>
    <path clip-path="url(#pade5d7ee5a)" style="fill: #85bcdc; fill-opacity: 0.9"/>
    <path clip-path="url(#pade5d7ee5a)" style="fill: #7cb7da; fill-opacity: 0.9"/>
    <path clip-path="url(#pade5d7ee5a)" style="fill: #71b1d7; fill-opacity: 0.9"/>
    <path clip-path="url(#pade5d7ee5a)" style="fill: #66abd4; fill-opacity: 0.9"/>
    <path clip-path="url(#pade5d7ee5a)" style="fill: #5da5d1; fill-opacity: 0.9"/>
    <path clip-path="url(#pade5d7ee5a)" style="fill: #56a0ce; fill-opacity: 0.9"/>
    <path clip-path="url(#pade5d7ee5a)" style="fill: #4d99ca; fill-opacity: 0.9"/>
    <path clip-path="url(#pade5d7ee5a)" style="fill: #4493c7; fill-opacity: 0.9"/>
    <path clip-path="url(#pade5d7ee5a)" style="fill: #3c8cc3; fill-opacity: 0.9"/>
    <path clip-path="url(#pade5d7ee5a)" style="fill: #3686c0; fill-opacity: 0.9"/>
    <path clip-path="url(#pade5d7ee5a)" style="fill: #2f7fbc; fill-opacity: 0.9"/>
    <path clip-path="url(#pade5d7ee5a)" style="fill: #2777b8; fill-opacity: 0.9"/>
    <path clip-path="url(#pade5d7ee5a)" style="fill: #2070b4; fill-opacity: 0.9"/>
    <path clip-path="url(#pade5d7ee5a)" style="fill: #1c6ab0; fill-opacity: 0.9"/>
    <path clip-path="url(#pade5d7ee5a)" style="fill: #1663aa; fill-opacity: 0.9"/>
    <path clip-path="url(#pade5d7ee5a)" style="fill: #115ca5; fill-opacity: 0.9"/>
    <path clip-path="url(#pade5d7ee5a)" style="fill: #0c56a0; fill-opacity: 0.9"/>
    <path clip-path="url(#pade5d7ee5a)" style="fill: #084f99; fill-opacity: 0.9"/>
    <path clip-path="url(#pade5d7ee5a)" style="fill: #08488e; fill-opacity: 0.9"/>
    <path clip-path="url(#pade5d7ee5a)" style="fill: #084184; fill-opacity: 0.9"/>
    <path clip-path="url(#pade5d7ee5a)" style="fill: #083a7a; fill-opacity: 0.9"/>
    <path clip-path="url(#pade5d7ee5a)" style="fill: #083370; fill-opacity: 0.9"/>
    <path clip-path="url(#pade5d7ee5a)" style="fill: #08306b; fill-opacity: 0.9"/>
   </g>
   <g id="QuadContourSet_2">
    <path clip-path="url(#pade5d7ee5a)" style="fill: none"/>
    <path clip-path="url(#pade5d7ee5a)" style="fill: none"/>
    <path clip-path="url(#pade5d7ee5a)" style="fill: none"/>
    <path clip-path="url(#pade5d7ee5a)" style="fill: none"/>
    <path clip-path="url(#pade5d7ee5a)" style="fill: none"/>
    <path clip-path="url(#pade5d7ee5a)" style="fill: none"/>
    <path clip-path="url(#pade5d7ee5a)" style="fill: none"/>
    <path clip-path="url(#pade5d7ee5a)" style="fill: none"/>
    <path clip-path="url(#pade5d7ee5a)" style="fill: none"/>
    <path clip-path="url(#pade5d7ee5a)" style="fill: none"/>
    <path clip-path="url(#pade5d7ee5a)" style="fill: none"/>
    <path clip-path="url(#pade5d7ee5a)" style="fill: none"/>
    <path clip-path="url(#pade5d7ee5a)" style="fill: none"/>
    <path clip-path="url(#pade5d7ee5a)" style="fill: none"/>
    <path clip-path="url(#pade5d7ee5a)" style="fill: none"/>
    <path clip-path="url(#pade5d7ee5a)" style="fill: none"/>
    <path clip-path="url(#pade5d7ee5a)" style="fill: none"/>
    <path clip-path="url(#pade5d7ee5a)" style="fill: none"/>
    <path clip-path="url(#pade5d7ee5a)" style="fill: none"/>
    <path clip-path="url(#pade5d7ee5a)" style="fill: none"/>
    <path clip-path="url(#pade5d7ee5a)" style="fill: none"/>
    <path clip-path="url(#pade5d7ee5a)" style="fill: none"/>
    <path clip-path="url(#pade5d7ee5a)" style="fill: none"/>
    <path clip-path="url(#pade5d7ee5a)" style="fill: none"/>
    <path clip-path="url(#pade5d7ee5a)" style="fill: none"/>
    <path clip-path="url(#pade5d7ee5a)" style="fill: none"/>
    <path clip-path="url(#pade5d7ee5a)" style="fill: none"/>
    <path clip-path="url(#pade5d7ee5a)" style="fill: none"/>
    <path clip-path="url(#pade5d7ee5a)" style="fill: none"/>
    <path clip-path="url(#pade5d7ee5a)" style="fill: none"/>
    <path clip-path="url(#pade5d7ee5a)" style="fill: none"/>
    <path clip-path="url(#pade5d7ee5a)" style="fill: none"/>
    <path clip-path="url(#pade5d7ee5a)" style="fill: none"/>
    <path clip-path="url(#pade5d7ee5a)" style="fill: none"/>
    <path clip-path="url(#pade5d7ee5a)" style="fill: none"/>
    <path clip-path="url(#pade5d7ee5a)" style="fill: none"/>
    <path clip-path="url(#pade5d7ee5a)" style="fill: none"/>
    <path clip-path="url(#pade5d7ee5a)" style="fill: none"/>
    <path clip-path="url(#pade5d7ee5a)" style="fill: none"/>
   </g>
  </g>
 </g>
 <defs>
  <clipPath id="pade5d7ee5a">
   <rect x="0" y="0" width="576" height="819.247199"/>
  </clipPath>
 </defs>
</svg>
