<?xml version="1.0" encoding="utf-8" standalone="no"?>
<!DOCTYPE svg PUBLIC "-//W3C//DTD SVG 1.1//EN"
  "http://www.w3.org/Graphics/SVG/1.1/DTD/svg11.dtd">
<svg xmlns:xlink="http://www.w3.org/1999/xlink" width="576pt" height="814.231814pt" viewBox="0 0 576 814.231814" xmlns="http://www.w3.org/2000/svg" version="1.1">
 <metadata>
  <rdf:RDF xmlns:dc="http://purl.org/dc/elements/1.1/" xmlns:cc="http://creativecommons.org/ns#" xmlns:rdf="http://www.w3.org/1999/02/22-rdf-syntax-ns#">
   <cc:Work>
    <dc:type rdf:resource="http://purl.org/dc/dcmitype/StillImage"/>
    <dc:date>2025-07-25T22:45:28.136254</dc:date>
    <dc:format>image/svg+xml</dc:format>
    <dc:creator>
     <cc:Agent>
      <dc:title>Matplotlib v3.10.3, https://matplotlib.org/</dc:title>
     </cc:Agent>
    </dc:creator>
   </cc:Work>
  </rdf:RDF>
 </metadata>
 <defs>
  <style type="text/css">*{stroke-linejoin: round; stroke-linecap: butt}</style>
 </defs>
 <g id="figure_1">
  <g id="patch_1">
   <path d="M 0 814.231814 
L 576 814.231814 
L 576 0 
L 0 0 
L 0 814.231814 
z
" style="fill: none; opacity: 0"/>
  </g>
  <g id="axes_1">
   <g id="QuadContourSet_1">
    <path d="M 464.727273 814.231814 
L 466.814144 814.231814 
L 468 812.167799 
L 468.793828 810.961807 
L 470.965803 807.691799 
L 471.272727 807.195836 
L 473.098704 804.421792 
L 474.545455 802.238503 
L 475.294007 801.151785 
L 477.644292 797.881777 
L 477.818182 797.63984 
L 479.994576 794.61177 
L 481.090909 793.086415 
L 482.425232 791.341763 
L 484.363636 788.575219 
L 484.768456 788.071756 
L 487.238924 784.801748 
L 487.636364 784.232666 
L 489.803476 781.531741 
L 490.909091 780.047749 
L 492.320577 778.261734 
L 494.181818 775.906624 
L 494.904861 774.991726 
L 497.454545 771.7655 
L 497.489145 771.721719 
L 500.123116 768.451712 
L 500.727273 767.722356 
L 502.850633 765.181705 
L 504 763.806459 
L 505.618591 761.911697 
L 507.272727 759.923796 
L 508.381627 758.64169 
L 510.545455 756.067582 
L 511.144988 755.371683 
L 513.818182 752.268815 
L 513.964245 752.101675 
L 516.779364 748.831668 
L 517.090909 748.470047 
L 519.596552 745.561661 
L 520.363636 744.671279 
L 522.413739 742.291654 
L 523.636364 740.872511 
L 525.227404 739.021646 
L 526.909091 737.04566 
L 528.026147 735.751639 
L 530.181818 733.185541 
L 530.81829 732.481632 
L 533.454545 729.365238 
L 533.5936 729.211624 
L 536.425046 725.941617 
L 536.727273 725.584512 
L 539.253396 722.67161 
L 540 721.810693 
L 542.089209 719.401603 
L 543.272727 718.036874 
L 544.96438 716.131595 
L 546.545455 714.301725 
L 547.851416 712.861588 
L 549.818182 710.567344 
L 550.641408 709.591581 
L 553.090909 706.616894 
L 553.333111 706.321573 
L 555.951636 703.051566 
L 556.363636 702.507108 
L 558.611239 699.781559 
L 559.636364 698.454071 
L 561.205174 696.511552 
L 562.909091 694.429362 
L 563.870823 693.241544 
L 566.181818 690.424157 
L 566.549194 689.971537 
L 569.230205 686.70153 
L 569.454545 686.426612 
L 571.898616 683.431522 
L 572.727273 682.416044 
L 574.550736 680.161515 
L 576 678.389066 
L 576 676.891508 
L 576 673.621501 
L 576 672.715236 
L 575.257778 673.621501 
L 572.727273 676.722512 
L 572.59084 676.891508 
L 569.920957 680.161515 
L 569.454545 680.73308 
L 567.252546 683.431522 
L 566.181818 684.743648 
L 564.717178 686.70153 
L 562.909091 688.876241 
L 562.072699 689.971537 
L 559.636364 693.08372 
L 559.515141 693.241544 
L 557.02512 696.511552 
L 556.363636 697.344583 
L 554.491819 699.781559 
L 553.090909 701.605446 
L 551.980158 703.051566 
L 549.818182 705.761557 
L 549.342054 706.321573 
L 546.545455 709.546364 
L 546.506329 709.591581 
L 543.670429 712.861588 
L 543.272727 713.320183 
L 540.834617 716.131595 
L 540 717.094001 
L 538.059633 719.401603 
L 536.727273 720.930801 
L 535.261398 722.67161 
L 533.454545 724.791162 
L 532.483908 725.941617 
L 530.181818 728.670187 
L 529.725008 729.211624 
L 526.966108 732.481632 
L 526.909091 732.549211 
L 524.206736 735.751639 
L 523.636364 736.42083 
L 521.3957 739.021646 
L 520.363636 740.219598 
L 518.579508 742.291654 
L 517.090909 744.019366 
L 515.813642 745.561661 
L 513.818182 747.863216 
L 513.0099 748.831668 
L 510.545455 751.760168 
L 510.260038 752.101675 
L 507.530796 755.371683 
L 507.272727 755.676065 
L 504.794193 758.64169 
L 504 759.591962 
L 502.061271 761.911697 
L 500.727273 763.507858 
L 499.328348 765.181705 
L 497.454545 767.448036 
L 496.680144 768.451712 
L 494.181818 771.579133 
L 494.053575 771.721719 
L 491.611289 774.991726 
L 490.909091 775.868797 
L 489.243418 778.261734 
L 487.636364 780.331407 
L 486.722814 781.531741 
L 484.42766 784.801748 
L 484.363636 784.884832 
L 482.073067 788.071756 
L 481.090909 789.438256 
L 479.722783 791.341763 
L 477.818182 793.99168 
L 477.299018 794.61177 
L 475.022214 797.881777 
L 474.545455 798.545105 
L 472.735138 801.151785 
L 471.272727 803.363704 
L 470.505391 804.421792 
L 468.594305 807.691799 
L 468 808.567402 
L 466.586605 810.961807 
L 464.727273 814.05297 
L 464.54828 814.231814 
z
" clip-path="url(#p3dd3dfcd68)" style="fill: #f5f9fe; fill-opacity: 0.9"/>
    <path d="M 468 814.231814 
L 469.16384 814.231814 
L 471.272727 811.027969 
L 471.344532 810.961807 
L 473.468716 807.691799 
L 474.545455 806.056006 
L 475.818802 804.421792 
L 477.818182 801.324494 
L 477.988532 801.151785 
L 480.403853 797.881777 
L 481.090909 796.904316 
L 482.943036 794.61177 
L 484.363636 792.669932 
L 485.674792 791.341763 
L 487.636364 788.679816 
L 488.233868 788.071756 
L 490.578059 784.801748 
L 490.909091 784.38288 
L 493.324583 781.531741 
L 494.181818 780.425831 
L 496.315605 778.261734 
L 497.454545 776.666015 
L 498.782341 774.991726 
L 500.727273 772.139296 
L 501.056881 771.721719 
L 503.845635 768.451712 
L 504 768.264399 
L 506.872607 765.181705 
L 507.272727 764.69801 
L 509.846711 761.911697 
L 510.545455 761.067668 
L 512.76675 758.64169 
L 513.818182 757.342872 
L 515.603144 755.371683 
L 517.090909 753.531799 
L 518.357031 752.101675 
L 520.363636 749.863372 
L 521.197224 748.831668 
L 523.636364 746.141799 
L 524.115153 745.561661 
L 526.853413 742.291654 
L 526.909091 742.224293 
L 529.710658 739.021646 
L 530.181818 738.449622 
L 532.571883 735.751639 
L 533.454545 734.744604 
L 535.456787 732.481632 
L 536.727273 731.045704 
L 538.350036 729.211624 
L 540 727.346803 
L 541.221424 725.941617 
L 543.272727 723.628528 
L 544.041873 722.67161 
L 546.545455 719.882108 
L 546.93978 719.401603 
L 549.610267 716.131595 
L 549.818182 715.899425 
L 552.301645 712.861588 
L 553.090909 711.919216 
L 554.997159 709.591581 
L 556.363636 707.917974 
L 557.666112 706.321573 
L 559.636364 703.906703 
L 560.334055 703.051566 
L 562.909091 699.895433 
L 562.999998 699.781559 
L 565.669942 696.511552 
L 566.181818 695.884162 
L 568.331705 693.241544 
L 569.454545 691.866211 
L 570.857886 689.971537 
L 572.727273 687.728778 
L 573.510818 686.70153 
L 576 683.494792 
L 576 683.431522 
L 576 680.161515 
L 576 678.389066 
L 574.550736 680.161515 
L 572.727273 682.416044 
L 571.898616 683.431522 
L 569.454545 686.426612 
L 569.230205 686.70153 
L 566.549194 689.971537 
L 566.181818 690.424157 
L 563.870823 693.241544 
L 562.909091 694.429362 
L 561.205174 696.511552 
L 559.636364 698.454071 
L 558.611239 699.781559 
L 556.363636 702.507108 
L 555.951636 703.051566 
L 553.333111 706.321573 
L 553.090909 706.616894 
L 550.641408 709.591581 
L 549.818182 710.567344 
L 547.851416 712.861588 
L 546.545455 714.301725 
L 544.96438 716.131595 
L 543.272727 718.036874 
L 542.089209 719.401603 
L 540 721.810693 
L 539.253396 722.67161 
L 536.727273 725.584512 
L 536.425046 725.941617 
L 533.5936 729.211624 
L 533.454545 729.365238 
L 530.81829 732.481632 
L 530.181818 733.185541 
L 528.026147 735.751639 
L 526.909091 737.04566 
L 525.227404 739.021646 
L 523.636364 740.872511 
L 522.413739 742.291654 
L 520.363636 744.671279 
L 519.596552 745.561661 
L 517.090909 748.470047 
L 516.779364 748.831668 
L 513.964245 752.101675 
L 513.818182 752.268815 
L 511.144988 755.371683 
L 510.545455 756.067582 
L 508.381627 758.64169 
L 507.272727 759.923796 
L 505.618591 761.911697 
L 504 763.806459 
L 502.850633 765.181705 
L 500.727273 767.722356 
L 500.123116 768.451712 
L 497.489145 771.721719 
L 497.454545 771.7655 
L 494.904861 774.991726 
L 494.181818 775.906624 
L 492.320577 778.261734 
L 490.909091 780.047749 
L 489.803476 781.531741 
L 487.636364 784.232666 
L 487.238924 784.801748 
L 484.768456 788.071756 
L 484.363636 788.575219 
L 482.425232 791.341763 
L 481.090909 793.086415 
L 479.994576 794.61177 
L 477.818182 797.63984 
L 477.644292 797.881777 
L 475.294007 801.151785 
L 474.545455 802.238503 
L 473.098704 804.421792 
L 471.272727 807.195836 
L 470.965803 807.691799 
L 468.793828 810.961807 
L 468 812.167799 
L 466.814144 814.231814 
z
" clip-path="url(#p3dd3dfcd68)" style="fill: #eff6fc; fill-opacity: 0.9"/>
    <path d="M 471.272727 814.231814 
L 474.545455 814.231814 
L 474.976708 814.231814 
L 477.02293 810.961807 
L 477.818182 809.724376 
L 479.190849 807.691799 
L 481.090909 805.439362 
L 482.067756 804.421792 
L 484.363636 802.030202 
L 484.984886 801.151785 
L 487.636364 798.420374 
L 487.99417 797.881777 
L 490.412442 794.61177 
L 490.909091 794.100481 
L 492.755194 791.341763 
L 494.181818 789.49836 
L 495.1813 788.071756 
L 497.454545 784.827054 
L 497.472275 784.801748 
L 499.76325 781.531741 
L 500.727273 780.155749 
L 502.054224 778.261734 
L 504 775.496468 
L 504.4004 774.991726 
L 507.272727 771.783527 
L 507.323861 771.721719 
L 510.255728 768.451712 
L 510.545455 768.128106 
L 513.037469 765.181705 
L 513.818182 764.315349 
L 515.779008 761.911697 
L 517.090909 760.422094 
L 518.563383 758.64169 
L 520.363636 756.464961 
L 521.267827 755.371683 
L 523.636364 752.507829 
L 523.972271 752.101675 
L 526.676715 748.831668 
L 526.909091 748.550697 
L 529.381159 745.561661 
L 530.181818 744.610313 
L 532.203212 742.291654 
L 533.454545 740.877371 
L 535.003604 739.021646 
L 536.727273 737.087866 
L 537.810799 735.751639 
L 540 733.228927 
L 540.616726 732.481632 
L 543.272727 729.243364 
L 543.300398 729.211624 
L 545.983648 725.941617 
L 546.545455 725.257409 
L 548.668667 722.67161 
L 549.818182 721.27165 
L 551.353687 719.401603 
L 553.090909 717.285891 
L 554.038707 716.131595 
L 556.363636 713.299677 
L 556.723485 712.861588 
L 559.390037 709.591581 
L 559.636364 709.289666 
L 561.962275 706.321573 
L 562.909091 705.171398 
L 564.497655 703.051566 
L 566.181818 700.997355 
L 567.113025 699.781559 
L 569.454545 696.724441 
L 569.618394 696.511552 
L 572.122179 693.241544 
L 572.727273 692.451527 
L 574.626756 689.971537 
L 576 688.178613 
L 576 686.70153 
L 576 683.494792 
L 573.510818 686.70153 
L 572.727273 687.728778 
L 570.857886 689.971537 
L 569.454545 691.866211 
L 568.331705 693.241544 
L 566.181818 695.884162 
L 565.669942 696.511552 
L 562.999998 699.781559 
L 562.909091 699.895433 
L 560.334055 703.051566 
L 559.636364 703.906703 
L 557.666112 706.321573 
L 556.363636 707.917974 
L 554.997159 709.591581 
L 553.090909 711.919216 
L 552.301645 712.861588 
L 549.818182 715.899425 
L 549.610267 716.131595 
L 546.93978 719.401603 
L 546.545455 719.882108 
L 544.041873 722.67161 
L 543.272727 723.628528 
L 541.221424 725.941617 
L 540 727.346803 
L 538.350036 729.211624 
L 536.727273 731.045704 
L 535.456787 732.481632 
L 533.454545 734.744604 
L 532.571883 735.751639 
L 530.181818 738.449622 
L 529.710658 739.021646 
L 526.909091 742.224293 
L 526.853413 742.291654 
L 524.115153 745.561661 
L 523.636364 746.141799 
L 521.197224 748.831668 
L 520.363636 749.863372 
L 518.357031 752.101675 
L 517.090909 753.531799 
L 515.603144 755.371683 
L 513.818182 757.342872 
L 512.76675 758.64169 
L 510.545455 761.067668 
L 509.846711 761.911697 
L 507.272727 764.69801 
L 506.872607 765.181705 
L 504 768.264399 
L 503.845635 768.451712 
L 501.056881 771.721719 
L 500.727273 772.139296 
L 498.782341 774.991726 
L 497.454545 776.666015 
L 496.315605 778.261734 
L 494.181818 780.425831 
L 493.324583 781.531741 
L 490.909091 784.38288 
L 490.578059 784.801748 
L 488.233868 788.071756 
L 487.636364 788.679816 
L 485.674792 791.341763 
L 484.363636 792.669932 
L 482.943036 794.61177 
L 481.090909 796.904316 
L 480.403853 797.881777 
L 477.988532 801.151785 
L 477.818182 801.324494 
L 475.818802 804.421792 
L 474.545455 806.056006 
L 473.468716 807.691799 
L 471.344532 810.961807 
L 471.272727 811.027969 
L 469.16384 814.231814 
z
" clip-path="url(#p3dd3dfcd68)" style="fill: #eaf3fb; fill-opacity: 0.9"/>
    <path d="M 477.818182 814.231814 
L 481.090909 814.231814 
L 481.981129 814.231814 
L 484.062461 810.961807 
L 484.363636 810.585551 
L 486.416707 807.691799 
L 487.636364 805.972724 
L 488.736726 804.421792 
L 490.909091 801.359898 
L 491.056744 801.151785 
L 493.347882 797.881777 
L 494.181818 796.747071 
L 495.69678 794.61177 
L 497.454545 792.134244 
L 498.069365 791.341763 
L 500.299445 788.071756 
L 500.727273 787.50709 
L 502.822846 784.801748 
L 504 783.107091 
L 505.223505 781.531741 
L 507.272727 778.83307 
L 507.732932 778.261734 
L 510.439935 774.991726 
L 510.545455 774.865793 
L 513.155084 771.721719 
L 513.818182 770.909716 
L 515.852667 768.451712 
L 517.090909 766.955705 
L 518.559245 765.181705 
L 520.363636 763.001693 
L 521.281211 761.911697 
L 523.636364 759.056084 
L 524.005108 758.64169 
L 526.684898 755.371683 
L 526.909091 755.09701 
L 529.582473 752.101675 
L 530.181818 751.360721 
L 532.414058 748.831668 
L 533.454545 747.594514 
L 535.135645 745.561661 
L 536.727273 743.625156 
L 537.823288 742.291654 
L 540 739.643288 
L 540.510932 739.021646 
L 543.204054 735.751639 
L 543.272727 735.661419 
L 545.886218 732.481632 
L 546.545455 731.679551 
L 548.576832 729.211624 
L 549.818182 727.700815 
L 551.411563 725.941617 
L 553.090909 723.851072 
L 554.146411 722.67161 
L 556.363636 720.129723 
L 557.013448 719.401603 
L 559.636364 716.333504 
L 559.789752 716.131595 
L 562.113406 712.861588 
L 562.909091 711.741846 
L 564.437061 709.591581 
L 566.181818 707.136238 
L 566.760716 706.321573 
L 569.183433 703.051566 
L 569.454545 702.634948 
L 571.607158 699.781559 
L 572.727273 697.925023 
L 573.73168 696.511552 
L 576 693.319416 
L 576 693.241544 
L 576 689.971537 
L 576 688.178613 
L 574.626756 689.971537 
L 572.727273 692.451527 
L 572.122179 693.241544 
L 569.618394 696.511552 
L 569.454545 696.724441 
L 567.113025 699.781559 
L 566.181818 700.997355 
L 564.497655 703.051566 
L 562.909091 705.171398 
L 561.962275 706.321573 
L 559.636364 709.289666 
L 559.390037 709.591581 
L 556.723485 712.861588 
L 556.363636 713.299677 
L 554.038707 716.131595 
L 553.090909 717.285891 
L 551.353687 719.401603 
L 549.818182 721.27165 
L 548.668667 722.67161 
L 546.545455 725.257409 
L 545.983648 725.941617 
L 543.300398 729.211624 
L 543.272727 729.243364 
L 540.616726 732.481632 
L 540 733.228927 
L 537.810799 735.751639 
L 536.727273 737.087866 
L 535.003604 739.021646 
L 533.454545 740.877371 
L 532.203212 742.291654 
L 530.181818 744.610313 
L 529.381159 745.561661 
L 526.909091 748.550697 
L 526.676715 748.831668 
L 523.972271 752.101675 
L 523.636364 752.507829 
L 521.267827 755.371683 
L 520.363636 756.464961 
L 518.563383 758.64169 
L 517.090909 760.422094 
L 515.779008 761.911697 
L 513.818182 764.315349 
L 513.037469 765.181705 
L 510.545455 768.128106 
L 510.255728 768.451712 
L 507.323861 771.721719 
L 507.272727 771.783527 
L 504.4004 774.991726 
L 504 775.496468 
L 502.054224 778.261734 
L 500.727273 780.155749 
L 499.76325 781.531741 
L 497.472275 784.801748 
L 497.454545 784.827054 
L 495.1813 788.071756 
L 494.181818 789.49836 
L 492.755194 791.341763 
L 490.909091 794.100481 
L 490.412442 794.61177 
L 487.99417 797.881777 
L 487.636364 798.420374 
L 484.984886 801.151785 
L 484.363636 802.030202 
L 482.067756 804.421792 
L 481.090909 805.439362 
L 479.190849 807.691799 
L 477.818182 809.724376 
L 477.02293 810.961807 
L 474.976708 814.231814 
z
" clip-path="url(#p3dd3dfcd68)" style="fill: #e5eff9; fill-opacity: 0.9"/>
    <path d="M 484.363636 814.231814 
L 486.086371 814.231814 
L 487.636364 812.000686 
L 488.432357 810.961807 
L 490.69345 807.691799 
L 490.909091 807.387859 
L 493.191128 804.421792 
L 494.181818 802.975292 
L 495.603846 801.151785 
L 497.454545 798.657655 
L 498.052867 797.881777 
L 500.579621 794.61177 
L 500.727273 794.413723 
L 503.096229 791.341763 
L 504 790.169792 
L 505.617911 788.071756 
L 507.272727 785.925861 
L 508.153035 784.801748 
L 510.545455 781.736584 
L 510.744432 781.531741 
L 513.415042 778.261734 
L 513.818182 777.774672 
L 516.241793 774.991726 
L 517.090909 773.954531 
L 519.068495 771.721719 
L 520.363636 770.18272 
L 521.887582 768.451712 
L 523.636364 766.465318 
L 524.838598 765.181705 
L 526.909091 762.809159 
L 527.794285 761.911697 
L 530.181818 759.122527 
L 530.655038 758.64169 
L 533.402982 755.371683 
L 533.454545 755.313113 
L 536.27419 752.101675 
L 536.727273 751.56836 
L 539.122687 748.831668 
L 540 747.748947 
L 542.086128 745.561661 
L 543.272727 744.128869 
L 545.034889 742.291654 
L 546.545455 740.566845 
L 548.021677 739.021646 
L 549.818182 736.943381 
L 550.95131 735.751639 
L 553.090909 733.236809 
L 553.80475 732.481632 
L 556.363636 729.468422 
L 556.58417 729.211624 
L 559.636364 725.980549 
L 559.669755 725.941617 
L 562.653776 722.67161 
L 562.909091 722.352189 
L 565.624807 719.401603 
L 566.181818 718.653238 
L 568.475921 716.131595 
L 569.454545 715.141891 
L 571.544285 712.861588 
L 572.727273 711.627243 
L 574.599731 709.591581 
L 576 708.069263 
L 576 706.321573 
L 576 703.051566 
L 576 699.781559 
L 576 696.511552 
L 576 693.319416 
L 573.73168 696.511552 
L 572.727273 697.925023 
L 571.607158 699.781559 
L 569.454545 702.634948 
L 569.183433 703.051566 
L 566.760716 706.321573 
L 566.181818 707.136238 
L 564.437061 709.591581 
L 562.909091 711.741846 
L 562.113406 712.861588 
L 559.789752 716.131595 
L 559.636364 716.333504 
L 557.013448 719.401603 
L 556.363636 720.129723 
L 554.146411 722.67161 
L 553.090909 723.851072 
L 551.411563 725.941617 
L 549.818182 727.700815 
L 548.576832 729.211624 
L 546.545455 731.679551 
L 545.886218 732.481632 
L 543.272727 735.661419 
L 543.204054 735.751639 
L 540.510932 739.021646 
L 540 739.643288 
L 537.823288 742.291654 
L 536.727273 743.625156 
L 535.135645 745.561661 
L 533.454545 747.594514 
L 532.414058 748.831668 
L 530.181818 751.360721 
L 529.582473 752.101675 
L 526.909091 755.09701 
L 526.684898 755.371683 
L 524.005108 758.64169 
L 523.636364 759.056084 
L 521.281211 761.911697 
L 520.363636 763.001693 
L 518.559245 765.181705 
L 517.090909 766.955705 
L 515.852667 768.451712 
L 513.818182 770.909716 
L 513.155084 771.721719 
L 510.545455 774.865793 
L 510.439935 774.991726 
L 507.732932 778.261734 
L 507.272727 778.83307 
L 505.223505 781.531741 
L 504 783.107091 
L 502.822846 784.801748 
L 500.727273 787.50709 
L 500.299445 788.071756 
L 498.069365 791.341763 
L 497.454545 792.134244 
L 495.69678 794.61177 
L 494.181818 796.747071 
L 493.347882 797.881777 
L 491.056744 801.151785 
L 490.909091 801.359898 
L 488.736726 804.421792 
L 487.636364 805.972724 
L 486.416707 807.691799 
L 484.363636 810.585551 
L 484.062461 810.961807 
L 481.981129 814.231814 
z
" clip-path="url(#p3dd3dfcd68)" style="fill: #dfecf7; fill-opacity: 0.9"/>
    <path d="M 487.636364 814.231814 
L 490.909091 814.231814 
L 494.181818 814.231814 
L 497.320749 814.231814 
L 497.454545 814.080601 
L 499.964303 810.961807 
L 500.727273 809.954481 
L 503.330073 810.961807 
L 500.957891 814.231814 
L 504 814.231814 
L 507.272727 814.231814 
L 510.545455 814.231814 
L 513.818182 814.231814 
L 517.090909 814.231814 
L 520.363636 814.231814 
L 523.636364 814.231814 
L 526.909091 814.231814 
L 530.181818 814.231814 
L 533.454545 814.231814 
L 536.727273 814.231814 
L 540 814.231814 
L 543.272727 814.231814 
L 546.545455 814.231814 
L 549.818182 814.231814 
L 553.090909 814.231814 
L 556.363636 814.231814 
L 559.636364 814.231814 
L 562.909091 814.231814 
L 566.181818 814.231814 
L 569.454545 814.231814 
L 572.727273 814.231814 
L 576 814.231814 
L 576 810.961807 
L 576 807.691799 
L 576 804.421792 
L 576 801.151785 
L 576 797.881777 
L 576 794.61177 
L 576 791.341763 
L 576 788.071756 
L 576 784.801748 
L 576 781.531741 
L 576 778.261734 
L 576 774.991726 
L 576 771.721719 
L 576 768.451712 
L 576 765.181705 
L 576 761.911697 
L 576 758.64169 
L 576 755.371683 
L 576 752.101675 
L 576 748.831668 
L 576 745.561661 
L 576 742.291654 
L 576 739.021646 
L 576 735.751639 
L 576 732.481632 
L 576 729.211624 
L 576 725.941617 
L 576 722.67161 
L 576 719.401603 
L 576 716.131595 
L 576 712.861588 
L 576 709.591581 
L 576 708.069263 
L 574.599731 709.591581 
L 572.727273 711.627243 
L 571.544285 712.861588 
L 569.454545 715.141891 
L 568.475921 716.131595 
L 566.181818 718.653238 
L 565.624807 719.401603 
L 562.909091 722.352189 
L 562.653776 722.67161 
L 559.669755 725.941617 
L 559.636364 725.980549 
L 556.58417 729.211624 
L 556.363636 729.468422 
L 553.80475 732.481632 
L 553.090909 733.236809 
L 550.95131 735.751639 
L 549.818182 736.943381 
L 548.021677 739.021646 
L 546.545455 740.566845 
L 545.034889 742.291654 
L 543.272727 744.128869 
L 542.086128 745.561661 
L 540 747.748947 
L 539.122687 748.831668 
L 536.727273 751.56836 
L 536.27419 752.101675 
L 533.454545 755.313113 
L 533.402982 755.371683 
L 530.655038 758.64169 
L 530.181818 759.122527 
L 527.794285 761.911697 
L 526.909091 762.809159 
L 524.838598 765.181705 
L 523.636364 766.465318 
L 521.887582 768.451712 
L 520.363636 770.18272 
L 519.068495 771.721719 
L 517.090909 773.954531 
L 516.241793 774.991726 
L 513.818182 777.774672 
L 513.415042 778.261734 
L 510.744432 781.531741 
L 510.545455 781.736584 
L 508.153035 784.801748 
L 507.272727 785.925861 
L 505.617911 788.071756 
L 504 790.169792 
L 503.096229 791.341763 
L 500.727273 794.413723 
L 500.579621 794.61177 
L 498.052867 797.881777 
L 497.454545 798.657655 
L 495.603846 801.151785 
L 494.181818 802.975292 
L 493.191128 804.421792 
L 490.909091 807.387859 
L 490.69345 807.691799 
L 488.432357 810.961807 
L 487.636364 812.000686 
L 486.086371 814.231814 
z
M 503.261993 807.691799 
L 504 806.445518 
L 505.702256 807.691799 
L 504 810.038326 
z
M 506.53692 804.421792 
L 507.188923 801.151785 
L 507.272727 801.040428 
L 509.769841 801.151785 
L 508.149229 804.421792 
L 507.272727 805.526935 
z
M 509.88699 797.881777 
L 510.545455 796.977056 
L 513.032968 797.881777 
L 510.545455 801.015544 
z
M 513.204091 794.61177 
L 513.818182 793.55149 
L 515.489858 794.61177 
L 513.818182 796.759229 
z
M 516.406491 791.341763 
L 517.090909 789.805876 
L 517.952982 791.341763 
L 517.090909 792.536103 
z
M 520.136225 784.801748 
L 520.363636 784.567966 
L 521.693323 784.801748 
L 520.363636 787.370251 
z
M 523.459372 781.531741 
L 523.636364 781.332352 
L 524.352789 781.531741 
L 523.636364 782.633504 
z
" clip-path="url(#p3dd3dfcd68)" style="fill: #dae8f6; fill-opacity: 0.9"/>
    <path d="M 497.454545 814.231814 
L 500.727273 814.231814 
L 500.957891 814.231814 
L 503.330073 810.961807 
L 500.727273 809.954481 
L 499.964303 810.961807 
L 497.454545 814.080601 
L 497.320749 814.231814 
z
M 504 810.038326 
L 505.702256 807.691799 
L 504 806.445518 
L 503.261993 807.691799 
z
M 507.272727 805.526935 
L 508.149229 804.421792 
L 509.769841 801.151785 
L 507.272727 801.040428 
L 507.188923 801.151785 
L 506.53692 804.421792 
z
M 510.545455 801.015544 
L 513.032968 797.881777 
L 510.545455 796.977056 
L 509.88699 797.881777 
z
M 513.818182 796.759229 
L 515.489858 794.61177 
L 513.818182 793.55149 
L 513.204091 794.61177 
z
M 517.090909 792.536103 
L 517.952982 791.341763 
L 517.090909 789.805876 
L 516.406491 791.341763 
z
M 520.363636 787.370251 
L 521.693323 784.801748 
L 520.363636 784.567966 
L 520.136225 784.801748 
z
M 523.636364 782.633504 
L 524.352789 781.531741 
L 523.636364 781.332352 
L 523.459372 781.531741 
z
" clip-path="url(#p3dd3dfcd68)" style="fill: #d6e5f4; fill-opacity: 0.9"/>
    <path clip-path="url(#p3dd3dfcd68)" style="fill: #d0e2f2; fill-opacity: 0.9"/>
    <path clip-path="url(#p3dd3dfcd68)" style="fill: #cbdef1; fill-opacity: 0.9"/>
    <path clip-path="url(#p3dd3dfcd68)" style="fill: #c6dbef; fill-opacity: 0.9"/>
    <path clip-path="url(#p3dd3dfcd68)" style="fill: #bed8ec; fill-opacity: 0.9"/>
    <path clip-path="url(#p3dd3dfcd68)" style="fill: #b5d4e9; fill-opacity: 0.9"/>
    <path clip-path="url(#p3dd3dfcd68)" style="fill: #add0e6; fill-opacity: 0.9"/>
    <path clip-path="url(#p3dd3dfcd68)" style="fill: #a5cde3; fill-opacity: 0.9"/>
    <path clip-path="url(#p3dd3dfcd68)" style="fill: #9cc9e1; fill-opacity: 0.9"/>
    <path clip-path="url(#p3dd3dfcd68)" style="fill: #91c3de; fill-opacity: 0.9"/>
    <path clip-path="url(#p3dd3dfcd68)" style="fill: #85bcdc; fill-opacity: 0.9"/>
    <path clip-path="url(#p3dd3dfcd68)" style="fill: #7cb7da; fill-opacity: 0.9"/>
    <path clip-path="url(#p3dd3dfcd68)" style="fill: #71b1d7; fill-opacity: 0.9"/>
    <path clip-path="url(#p3dd3dfcd68)" style="fill: #66abd4; fill-opacity: 0.9"/>
    <path clip-path="url(#p3dd3dfcd68)" style="fill: #5da5d1; fill-opacity: 0.9"/>
    <path clip-path="url(#p3dd3dfcd68)" style="fill: #56a0ce; fill-opacity: 0.9"/>
    <path clip-path="url(#p3dd3dfcd68)" style="fill: #4d99ca; fill-opacity: 0.9"/>
    <path clip-path="url(#p3dd3dfcd68)" style="fill: #4493c7; fill-opacity: 0.9"/>
    <path clip-path="url(#p3dd3dfcd68)" style="fill: #3c8cc3; fill-opacity: 0.9"/>
    <path clip-path="url(#p3dd3dfcd68)" style="fill: #3686c0; fill-opacity: 0.9"/>
    <path clip-path="url(#p3dd3dfcd68)" style="fill: #2f7fbc; fill-opacity: 0.9"/>
    <path clip-path="url(#p3dd3dfcd68)" style="fill: #2777b8; fill-opacity: 0.9"/>
    <path clip-path="url(#p3dd3dfcd68)" style="fill: #2070b4; fill-opacity: 0.9"/>
    <path clip-path="url(#p3dd3dfcd68)" style="fill: #1c6ab0; fill-opacity: 0.9"/>
    <path clip-path="url(#p3dd3dfcd68)" style="fill: #1663aa; fill-opacity: 0.9"/>
    <path clip-path="url(#p3dd3dfcd68)" style="fill: #115ca5; fill-opacity: 0.9"/>
    <path clip-path="url(#p3dd3dfcd68)" style="fill: #0c56a0; fill-opacity: 0.9"/>
    <path clip-path="url(#p3dd3dfcd68)" style="fill: #084f99; fill-opacity: 0.9"/>
    <path clip-path="url(#p3dd3dfcd68)" style="fill: #08488e; fill-opacity: 0.9"/>
    <path clip-path="url(#p3dd3dfcd68)" style="fill: #084184; fill-opacity: 0.9"/>
    <path clip-path="url(#p3dd3dfcd68)" style="fill: #083a7a; fill-opacity: 0.9"/>
    <path clip-path="url(#p3dd3dfcd68)" style="fill: #083370; fill-opacity: 0.9"/>
    <path clip-path="url(#p3dd3dfcd68)" style="fill: #08306b; fill-opacity: 0.9"/>
   </g>
   <g id="QuadContourSet_2">
    <path d="M 576 672.715236 
L 575.257778 673.621501 
L 572.727273 676.722512 
L 572.59084 676.891508 
L 569.920957 680.161515 
L 569.454545 680.73308 
L 567.252546 683.431522 
L 566.181818 684.743648 
L 564.717178 686.70153 
L 562.909091 688.876241 
L 562.072699 689.971537 
L 559.636364 693.08372 
L 559.515141 693.241544 
L 557.02512 696.511552 
L 556.363636 697.344583 
L 554.491819 699.781559 
L 553.090909 701.605446 
L 551.980158 703.051566 
L 549.818182 705.761557 
L 549.342054 706.321573 
L 546.545455 709.546364 
L 546.506329 709.591581 
L 543.670429 712.861588 
L 543.272727 713.320183 
L 540.834617 716.131595 
L 540 717.094001 
L 538.059633 719.401603 
L 536.727273 720.930801 
L 535.261398 722.67161 
L 533.454545 724.791162 
L 532.483908 725.941617 
L 530.181818 728.670187 
L 529.725008 729.211624 
L 526.966108 732.481632 
L 526.909091 732.549211 
L 524.206736 735.751639 
L 523.636364 736.42083 
L 521.3957 739.021646 
L 520.363636 740.219598 
L 518.579508 742.291654 
L 517.090909 744.019366 
L 515.813642 745.561661 
L 513.818182 747.863216 
L 513.0099 748.831668 
L 510.545455 751.760168 
L 510.260038 752.101675 
L 507.530796 755.371683 
L 507.272727 755.676065 
L 504.794193 758.64169 
L 504 759.591962 
L 502.061271 761.911697 
L 500.727273 763.507858 
L 499.328348 765.181705 
L 497.454545 767.448036 
L 496.680144 768.451712 
L 494.181818 771.579133 
L 494.053575 771.721719 
L 491.611289 774.991726 
L 490.909091 775.868797 
L 489.243418 778.261734 
L 487.636364 780.331407 
L 486.722814 781.531741 
L 486.640062 781.649642 
M 475.500879 797.194306 
L 475.022214 797.881777 
L 474.545455 798.545105 
L 472.735138 801.151785 
L 471.272727 803.363704 
L 470.505391 804.421792 
L 468.594305 807.691799 
L 468 808.567402 
L 466.586605 810.961807 
L 464.727273 814.05297 
L 464.54828 814.231814 
" clip-path="url(#p3dd3dfcd68)" style="fill: none"/>
    <path d="M 576 678.389066 
L 575.302111 679.242584 
M 563.139432 694.144872 
L 562.909091 694.429362 
L 561.205174 696.511552 
L 559.636364 698.454071 
L 558.611239 699.781559 
L 556.363636 702.507108 
L 555.951636 703.051566 
L 553.333111 706.321573 
L 553.090909 706.616894 
L 550.641408 709.591581 
L 549.818182 710.567344 
L 547.851416 712.861588 
L 546.545455 714.301725 
L 544.96438 716.131595 
L 543.272727 718.036874 
L 542.089209 719.401603 
L 540 721.810693 
L 539.253396 722.67161 
L 536.727273 725.584512 
L 536.425046 725.941617 
L 533.5936 729.211624 
L 533.454545 729.365238 
L 530.81829 732.481632 
L 530.181818 733.185541 
L 528.026147 735.751639 
L 526.909091 737.04566 
L 525.227404 739.021646 
L 523.636364 740.872511 
L 522.413739 742.291654 
L 520.363636 744.671279 
L 519.596552 745.561661 
L 517.090909 748.470047 
L 516.779364 748.831668 
L 513.964245 752.101675 
L 513.818182 752.268815 
L 511.144988 755.371683 
L 510.545455 756.067582 
L 508.381627 758.64169 
L 507.272727 759.923796 
L 505.618591 761.911697 
L 504 763.806459 
L 502.850633 765.181705 
L 500.727273 767.722356 
L 500.123116 768.451712 
L 497.489145 771.721719 
L 497.454545 771.7655 
L 494.904861 774.991726 
L 494.181818 775.906624 
L 492.320577 778.261734 
L 490.909091 780.047749 
L 489.803476 781.531741 
L 487.636364 784.232666 
L 487.238924 784.801748 
L 484.768456 788.071756 
L 484.363636 788.575219 
L 482.425232 791.341763 
L 481.090909 793.086415 
L 479.994576 794.61177 
L 477.818182 797.63984 
L 477.644292 797.881777 
L 475.294007 801.151785 
L 474.545455 802.238503 
L 473.098704 804.421792 
L 471.272727 807.195836 
L 470.965803 807.691799 
L 468.793828 810.961807 
L 468 812.167799 
L 466.814144 814.231814 
" clip-path="url(#p3dd3dfcd68)" style="fill: none"/>
    <path d="M 576 683.494792 
L 573.510818 686.70153 
L 572.727273 687.728778 
L 570.857886 689.971537 
L 569.454545 691.866211 
L 568.331705 693.241544 
L 566.181818 695.884162 
L 565.669942 696.511552 
L 562.999998 699.781559 
L 562.909091 699.895433 
L 560.334055 703.051566 
L 559.636364 703.906703 
L 559.175911 704.471065 
M 546.983392 719.3482 
L 546.93978 719.401603 
L 546.545455 719.882108 
L 544.041873 722.67161 
L 543.272727 723.628528 
L 541.221424 725.941617 
L 540 727.346803 
L 538.350036 729.211624 
L 536.727273 731.045704 
L 535.456787 732.481632 
L 533.454545 734.744604 
L 532.571883 735.751639 
L 530.181818 738.449622 
L 529.710658 739.021646 
L 526.909091 742.224293 
L 526.853413 742.291654 
L 524.115153 745.561661 
L 523.636364 746.141799 
L 521.197224 748.831668 
L 520.363636 749.863372 
L 518.357031 752.101675 
L 517.090909 753.531799 
L 515.603144 755.371683 
L 513.818182 757.342872 
L 512.76675 758.64169 
L 510.545455 761.067668 
L 509.846711 761.911697 
L 507.272727 764.69801 
L 506.872607 765.181705 
L 504 768.264399 
L 503.845635 768.451712 
L 501.056881 771.721719 
L 500.727273 772.139296 
L 498.782341 774.991726 
L 497.454545 776.666015 
L 496.315605 778.261734 
L 494.181818 780.425831 
L 493.324583 781.531741 
L 490.909091 784.38288 
L 490.578059 784.801748 
L 488.233868 788.071756 
L 487.636364 788.679816 
L 485.674792 791.341763 
L 484.363636 792.669932 
L 482.943036 794.61177 
L 481.090909 796.904316 
L 480.403853 797.881777 
L 477.988532 801.151785 
L 477.818182 801.324494 
L 475.818802 804.421792 
L 474.545455 806.056006 
L 473.468716 807.691799 
L 471.344532 810.961807 
L 471.272727 811.027969 
L 469.16384 814.231814 
" clip-path="url(#p3dd3dfcd68)" style="fill: none"/>
    <path d="M 576 688.178613 
L 574.626756 689.971537 
L 572.727273 692.451527 
L 572.122179 693.241544 
L 569.618394 696.511552 
L 569.454545 696.724441 
L 567.113025 699.781559 
L 566.181818 700.997355 
L 564.497655 703.051566 
L 562.909091 705.171398 
L 561.962275 706.321573 
L 559.636364 709.289666 
L 559.390037 709.591581 
L 556.723485 712.861588 
L 556.363636 713.299677 
L 554.038707 716.131595 
L 553.090909 717.285891 
L 551.353687 719.401603 
L 549.818182 721.27165 
L 548.668667 722.67161 
L 546.545455 725.257409 
L 545.983648 725.941617 
L 543.300398 729.211624 
L 543.272727 729.243364 
L 540.616726 732.481632 
L 540 733.228927 
L 537.810799 735.751639 
L 536.727273 737.087866 
L 535.003604 739.021646 
L 533.454545 740.877371 
L 532.203212 742.291654 
L 530.181818 744.610313 
L 530.109074 744.696748 
M 517.84288 759.512867 
L 517.090909 760.422094 
L 515.779008 761.911697 
L 513.818182 764.315349 
L 513.037469 765.181705 
L 510.545455 768.128106 
L 510.255728 768.451712 
L 507.323861 771.721719 
L 507.272727 771.783527 
L 504.4004 774.991726 
L 504 775.496468 
L 502.054224 778.261734 
L 500.727273 780.155749 
L 499.76325 781.531741 
L 497.472275 784.801748 
L 497.454545 784.827054 
L 495.1813 788.071756 
L 494.181818 789.49836 
L 492.755194 791.341763 
L 490.909091 794.100481 
L 490.412442 794.61177 
L 487.99417 797.881777 
L 487.636364 798.420374 
L 484.984886 801.151785 
L 484.363636 802.030202 
L 482.067756 804.421792 
L 481.090909 805.439362 
L 479.190849 807.691799 
L 477.818182 809.724376 
L 477.02293 810.961807 
L 474.976708 814.231814 
" clip-path="url(#p3dd3dfcd68)" style="fill: none"/>
    <path d="M 576 693.319416 
L 573.73168 696.511552 
L 572.727273 697.925023 
L 571.607158 699.781559 
L 569.454545 702.634948 
L 569.183433 703.051566 
L 566.760716 706.321573 
L 566.181818 707.136238 
L 564.437061 709.591581 
L 562.909091 711.741846 
L 562.113406 712.861588 
L 559.789752 716.131595 
L 559.636364 716.333504 
L 557.013448 719.401603 
L 556.363636 720.129723 
L 554.146411 722.67161 
L 553.090909 723.851072 
L 551.411563 725.941617 
L 549.818182 727.700815 
L 548.576832 729.211624 
L 546.545455 731.679551 
L 546.06975 732.258332 
M 533.92581 747.024642 
L 533.454545 747.594514 
L 532.414058 748.831668 
L 530.181818 751.360721 
L 529.582473 752.101675 
L 526.909091 755.09701 
L 526.684898 755.371683 
L 524.005108 758.64169 
L 523.636364 759.056084 
L 521.281211 761.911697 
L 520.363636 763.001693 
L 518.559245 765.181705 
L 517.090909 766.955705 
L 515.852667 768.451712 
L 513.818182 770.909716 
L 513.155084 771.721719 
L 510.545455 774.865793 
L 510.439935 774.991726 
L 507.732932 778.261734 
L 507.272727 778.83307 
L 505.223505 781.531741 
L 504 783.107091 
L 502.822846 784.801748 
L 500.727273 787.50709 
L 500.299445 788.071756 
L 498.069365 791.341763 
L 497.454545 792.134244 
L 495.69678 794.61177 
L 494.181818 796.747071 
L 493.347882 797.881777 
L 491.056744 801.151785 
L 490.909091 801.359898 
L 488.736726 804.421792 
L 487.636364 805.972724 
L 486.416707 807.691799 
L 484.363636 810.585551 
L 484.062461 810.961807 
L 481.981129 814.231814 
" clip-path="url(#p3dd3dfcd68)" style="fill: none"/>
    <path d="M 576 708.069263 
L 574.599731 709.591581 
L 572.727273 711.627243 
L 571.544285 712.861588 
L 569.454545 715.141891 
L 568.475921 716.131595 
L 566.181818 718.653238 
L 565.624807 719.401603 
L 562.909091 722.352189 
L 562.653776 722.67161 
L 559.669755 725.941617 
L 559.636364 725.980549 
L 559.485983 726.139743 
M 546.734422 740.369048 
L 546.545455 740.566845 
L 545.034889 742.291654 
L 543.272727 744.128869 
L 542.086128 745.561661 
L 540 747.748947 
L 539.122687 748.831668 
L 536.727273 751.56836 
L 536.27419 752.101675 
L 533.454545 755.313113 
L 533.402982 755.371683 
L 530.655038 758.64169 
L 530.181818 759.122527 
L 527.794285 761.911697 
L 526.909091 762.809159 
L 524.838598 765.181705 
L 523.636364 766.465318 
L 521.887582 768.451712 
L 520.363636 770.18272 
L 519.068495 771.721719 
L 517.090909 773.954531 
L 516.241793 774.991726 
L 513.818182 777.774672 
L 513.415042 778.261734 
L 510.744432 781.531741 
L 510.545455 781.736584 
L 508.153035 784.801748 
L 507.272727 785.925861 
L 505.617911 788.071756 
L 504 790.169792 
L 503.096229 791.341763 
L 500.727273 794.413723 
L 500.579621 794.61177 
L 498.052867 797.881777 
L 497.454545 798.657655 
L 495.603846 801.151785 
L 494.181818 802.975292 
L 493.191128 804.421792 
L 490.909091 807.387859 
L 490.69345 807.691799 
L 488.432357 810.961807 
L 487.636364 812.000686 
L 486.086371 814.231814 
" clip-path="url(#p3dd3dfcd68)" style="fill: none"/>
    <path d="M 500.957891 814.231814 
L 503.330073 810.961807 
L 500.727273 809.954481 
L 499.964303 810.961807 
L 497.454545 814.080601 
L 497.320749 814.231814 
M 504 810.038326 
L 505.702256 807.691799 
L 504 806.445518 
L 503.261993 807.691799 
L 504 810.038326 
z
M 507.272727 805.526935 
L 508.149229 804.421792 
L 509.769841 801.151785 
L 507.272727 801.040428 
L 507.188923 801.151785 
L 506.53692 804.421792 
L 507.272727 805.526935 
z
M 510.545455 801.015544 
L 513.032968 797.881777 
L 510.545455 796.977056 
L 509.88699 797.881777 
L 510.545455 801.015544 
z
M 513.818182 796.759229 
L 515.489858 794.61177 
L 513.818182 793.55149 
L 513.204091 794.61177 
L 513.818182 796.759229 
z
M 517.090909 792.536103 
L 517.952982 791.341763 
L 517.090909 789.805876 
L 516.406491 791.341763 
L 517.090909 792.536103 
z
M 520.363636 787.370251 
L 521.693323 784.801748 
L 520.363636 784.567966 
L 520.136225 784.801748 
L 520.363636 787.370251 
z
M 523.636364 782.633504 
L 524.352789 781.531741 
L 523.636364 781.332352 
L 523.459372 781.531741 
L 523.636364 782.633504 
z
" clip-path="url(#p3dd3dfcd68)" style="fill: none"/>
    <path clip-path="url(#p3dd3dfcd68)" style="fill: none"/>
    <path clip-path="url(#p3dd3dfcd68)" style="fill: none"/>
    <path clip-path="url(#p3dd3dfcd68)" style="fill: none"/>
    <path clip-path="url(#p3dd3dfcd68)" style="fill: none"/>
    <path clip-path="url(#p3dd3dfcd68)" style="fill: none"/>
    <path clip-path="url(#p3dd3dfcd68)" style="fill: none"/>
    <path clip-path="url(#p3dd3dfcd68)" style="fill: none"/>
    <path clip-path="url(#p3dd3dfcd68)" style="fill: none"/>
    <path clip-path="url(#p3dd3dfcd68)" style="fill: none"/>
    <path clip-path="url(#p3dd3dfcd68)" style="fill: none"/>
    <path clip-path="url(#p3dd3dfcd68)" style="fill: none"/>
    <path clip-path="url(#p3dd3dfcd68)" style="fill: none"/>
    <path clip-path="url(#p3dd3dfcd68)" style="fill: none"/>
    <path clip-path="url(#p3dd3dfcd68)" style="fill: none"/>
    <path clip-path="url(#p3dd3dfcd68)" style="fill: none"/>
    <path clip-path="url(#p3dd3dfcd68)" style="fill: none"/>
    <path clip-path="url(#p3dd3dfcd68)" style="fill: none"/>
    <path clip-path="url(#p3dd3dfcd68)" style="fill: none"/>
    <path clip-path="url(#p3dd3dfcd68)" style="fill: none"/>
    <path clip-path="url(#p3dd3dfcd68)" style="fill: none"/>
    <path clip-path="url(#p3dd3dfcd68)" style="fill: none"/>
    <path clip-path="url(#p3dd3dfcd68)" style="fill: none"/>
    <path clip-path="url(#p3dd3dfcd68)" style="fill: none"/>
    <path clip-path="url(#p3dd3dfcd68)" style="fill: none"/>
    <path clip-path="url(#p3dd3dfcd68)" style="fill: none"/>
    <path clip-path="url(#p3dd3dfcd68)" style="fill: none"/>
    <path clip-path="url(#p3dd3dfcd68)" style="fill: none"/>
    <path clip-path="url(#p3dd3dfcd68)" style="fill: none"/>
    <path clip-path="url(#p3dd3dfcd68)" style="fill: none"/>
    <path clip-path="url(#p3dd3dfcd68)" style="fill: none"/>
    <path clip-path="url(#p3dd3dfcd68)" style="fill: none"/>
    <path clip-path="url(#p3dd3dfcd68)" style="fill: none"/>
   </g>
   <g id="text_1">
    <g clip-path="url(#p3dd3dfcd68)">
     <!-- 0 -->
     <g style="opacity: 0" transform="translate(481.536244 794.472078) rotate(-54.117762) scale(0.12 -0.12)">
      <defs>
       <path id="DejaVuSans-30" d="M 2034 4250 
Q 1547 4250 1301 3770 
Q 1056 3291 1056 2328 
Q 1056 1369 1301 889 
Q 1547 409 2034 409 
Q 2525 409 2770 889 
Q 3016 1369 3016 2328 
Q 3016 3291 2770 3770 
Q 2525 4250 2034 4250 
z
M 2034 4750 
Q 2819 4750 3233 4129 
Q 3647 3509 3647 2328 
Q 3647 1150 3233 529 
Q 2819 -91 2034 -91 
Q 1250 -91 836 529 
Q 422 1150 422 2328 
Q 422 3509 836 4129 
Q 1250 4750 2034 4750 
z
" transform="scale(0.015625)"/>
      </defs>
      <use xlink:href="#DejaVuSans-30"/>
     </g>
    </g>
   </g>
   <g id="text_2">
    <g clip-path="url(#p3dd3dfcd68)">
     <!-- 1 -->
     <g style="opacity: 0" transform="translate(569.361702 691.753301) rotate(-50.553123) scale(0.12 -0.12)">
      <defs>
       <path id="DejaVuSans-31" d="M 794 531 
L 1825 531 
L 1825 4091 
L 703 3866 
L 703 4441 
L 1819 4666 
L 2450 4666 
L 2450 531 
L 3481 531 
L 3481 0 
L 794 0 
L 794 531 
z
" transform="scale(0.015625)"/>
      </defs>
      <use xlink:href="#DejaVuSans-31"/>
     </g>
    </g>
   </g>
   <g id="text_3">
    <g clip-path="url(#p3dd3dfcd68)">
     <!-- 2 -->
     <g style="opacity: 0" transform="translate(553.214107 716.971196) rotate(-50.459002) scale(0.12 -0.12)">
      <defs>
       <path id="DejaVuSans-32" d="M 1228 531 
L 3431 531 
L 3431 0 
L 469 0 
L 469 531 
Q 828 903 1448 1529 
Q 2069 2156 2228 2338 
Q 2531 2678 2651 2914 
Q 2772 3150 2772 3378 
Q 2772 3750 2511 3984 
Q 2250 4219 1831 4219 
Q 1534 4219 1204 4116 
Q 875 4013 500 3803 
L 500 4441 
Q 881 4594 1212 4672 
Q 1544 4750 1819 4750 
Q 2544 4750 2975 4387 
Q 3406 4025 3406 3419 
Q 3406 3131 3298 2873 
Q 3191 2616 2906 2266 
Q 2828 2175 2409 1742 
Q 1991 1309 1228 531 
z
" transform="scale(0.015625)"/>
      </defs>
      <use xlink:href="#DejaVuSans-32"/>
     </g>
    </g>
   </g>
   <g id="text_4">
    <g clip-path="url(#p3dd3dfcd68)">
     <!-- 3 -->
     <g style="opacity: 0" transform="translate(524.074878 757.154116) rotate(-50.225473) scale(0.12 -0.12)">
      <defs>
       <path id="DejaVuSans-33" d="M 2597 2516 
Q 3050 2419 3304 2112 
Q 3559 1806 3559 1356 
Q 3559 666 3084 287 
Q 2609 -91 1734 -91 
Q 1441 -91 1130 -33 
Q 819 25 488 141 
L 488 750 
Q 750 597 1062 519 
Q 1375 441 1716 441 
Q 2309 441 2620 675 
Q 2931 909 2931 1356 
Q 2931 1769 2642 2001 
Q 2353 2234 1838 2234 
L 1294 2234 
L 1294 2753 
L 1863 2753 
Q 2328 2753 2575 2939 
Q 2822 3125 2822 3475 
Q 2822 3834 2567 4026 
Q 2313 4219 1838 4219 
Q 1578 4219 1281 4162 
Q 984 4106 628 3988 
L 628 4550 
Q 988 4650 1302 4700 
Q 1616 4750 1894 4750 
Q 2613 4750 3031 4423 
Q 3450 4097 3450 3541 
Q 3450 3153 3228 2886 
Q 3006 2619 2597 2516 
z
" transform="scale(0.015625)"/>
      </defs>
      <use xlink:href="#DejaVuSans-33"/>
     </g>
    </g>
   </g>
   <g id="text_5">
    <g clip-path="url(#p3dd3dfcd68)">
     <!-- 4 -->
     <g style="opacity: 0" transform="translate(540.115966 744.695439) rotate(-50.376983) scale(0.12 -0.12)">
      <defs>
       <path id="DejaVuSans-34" d="M 2419 4116 
L 825 1625 
L 2419 1625 
L 2419 4116 
z
M 2253 4666 
L 3047 4666 
L 3047 1625 
L 3713 1625 
L 3713 1100 
L 3047 1100 
L 3047 0 
L 2419 0 
L 2419 1100 
L 313 1100 
L 313 1709 
L 2253 4666 
z
" transform="scale(0.015625)"/>
      </defs>
      <use xlink:href="#DejaVuSans-34"/>
     </g>
    </g>
   </g>
   <g id="text_6">
    <g clip-path="url(#p3dd3dfcd68)">
     <!-- 5 -->
     <g style="opacity: 0" transform="translate(553.051282 738.290136) rotate(-48.61276) scale(0.12 -0.12)">
      <defs>
       <path id="DejaVuSans-35" d="M 691 4666 
L 3169 4666 
L 3169 4134 
L 1269 4134 
L 1269 2991 
Q 1406 3038 1543 3061 
Q 1681 3084 1819 3084 
Q 2600 3084 3056 2656 
Q 3513 2228 3513 1497 
Q 3513 744 3044 326 
Q 2575 -91 1722 -91 
Q 1428 -91 1123 -41 
Q 819 9 494 109 
L 494 744 
Q 775 591 1075 516 
Q 1375 441 1709 441 
Q 2250 441 2565 725 
Q 2881 1009 2881 1497 
Q 2881 1984 2565 2268 
Q 2250 2553 1709 2553 
Q 1456 2553 1204 2497 
Q 953 2441 691 2322 
L 691 4666 
z
" transform="scale(0.015625)"/>
      </defs>
      <use xlink:href="#DejaVuSans-35"/>
     </g>
    </g>
   </g>
  </g>
 </g>
 <defs>
  <clipPath id="p3dd3dfcd68">
   <rect x="0" y="0" width="576" height="814.231814"/>
  </clipPath>
 </defs>
</svg>
