<?xml version="1.0" encoding="utf-8" standalone="no"?>
<!DOCTYPE svg PUBLIC "-//W3C//DTD SVG 1.1//EN"
  "http://www.w3.org/Graphics/SVG/1.1/DTD/svg11.dtd">
<svg xmlns:xlink="http://www.w3.org/1999/xlink" width="576pt" height="818.958117pt" viewBox="0 0 576 818.958117" xmlns="http://www.w3.org/2000/svg" version="1.1">
 <metadata>
  <rdf:RDF xmlns:dc="http://purl.org/dc/elements/1.1/" xmlns:cc="http://creativecommons.org/ns#" xmlns:rdf="http://www.w3.org/1999/02/22-rdf-syntax-ns#">
   <cc:Work>
    <dc:type rdf:resource="http://purl.org/dc/dcmitype/StillImage"/>
    <dc:date>2025-07-25T22:44:25.076881</dc:date>
    <dc:format>image/svg+xml</dc:format>
    <dc:creator>
     <cc:Agent>
      <dc:title>Matplotlib v3.10.3, https://matplotlib.org/</dc:title>
     </cc:Agent>
    </dc:creator>
   </cc:Work>
  </rdf:RDF>
 </metadata>
 <defs>
  <style type="text/css">*{stroke-linejoin: round; stroke-linecap: butt}</style>
 </defs>
 <g id="figure_1">
  <g id="patch_1">
   <path d="M 0 818.958117 
L 576 818.958117 
L 576 0 
L 0 0 
L 0 818.958117 
z
" style="fill: none; opacity: 0"/>
  </g>
  <g id="axes_1">
   <g id="QuadContourSet_1">
    <path d="M 62.537143 817.570089 
L 63.333966 818.958117 
L 64.676168 818.958117 
L 62.913561 815.669129 
L 62.537143 815.291327 
L 60.763336 812.38014 
L 59.245714 810.461035 
L 57.688 809.091152 
L 55.954286 807.754897 
L 53.420725 805.802163 
L 52.662857 805.218039 
L 49.371429 803.324751 
L 46.08 804.524084 
L 45.004894 805.802163 
L 42.788571 806.321276 
L 42.429739 805.802163 
L 41.000663 802.513175 
L 39.497143 801.603559 
L 38.161007 799.224186 
L 36.205714 796.476158 
L 35.708412 795.935198 
L 33.919851 792.64621 
L 32.914286 791.157027 
L 31.61291 789.357221 
L 29.622857 787.483431 
L 27.782042 786.068233 
L 26.331429 784.953017 
L 23.503899 782.779244 
L 23.04 782.422604 
L 19.748571 781.948799 
L 18.526563 782.779244 
L 16.457143 785.027154 
L 13.197305 782.779244 
L 13.165714 782.771317 
L 11.841588 779.490256 
L 9.874286 777.537439 
L 8.833692 776.201268 
L 7.177788 772.912279 
L 6.582857 772.298809 
L 4.90183 769.623291 
L 3.291429 767.39513 
L 2.128263 766.334302 
L -0 764.718683 
L 0 766.133367 
L 0.264692 766.334302 
L 3.291429 769.094742 
L 3.673437 769.623291 
L 4.640639 772.912279 
L 6.582857 774.850442 
L 7.311078 776.201268 
L 9.866213 779.490256 
L 9.874286 779.498301 
L 10.93959 782.779244 
L 13.165714 785.007113 
L 14.285357 786.068233 
L 15.152694 789.357221 
L 16.457143 790.664422 
L 18.871861 792.64621 
L 19.748571 793.688556 
L 21.936692 792.64621 
L 23.04 791.463066 
L 24.923213 789.357221 
L 26.331429 788.099648 
L 29.622857 788.855092 
L 30.156141 789.357221 
L 31.787006 792.64621 
L 32.914286 793.761183 
L 33.856292 795.935198 
L 36.205714 798.490874 
L 36.727485 799.224186 
L 37.652141 802.513175 
L 39.497143 804.359774 
L 40.478293 805.802163 
L 42.669036 809.091152 
L 42.788571 809.211153 
L 44.54389 812.38014 
L 46.08 813.919067 
L 49.371429 814.667187 
L 51.309277 812.38014 
L 52.662857 810.678493 
L 55.954286 809.250907 
L 59.245714 812.018136 
L 59.531986 812.38014 
L 60.623362 815.669129 
z
M 75.702857 818.405666 
L 78.994286 817.535293 
L 79.603001 818.958117 
L 80.401388 818.958117 
L 78.994286 815.669129 
L 75.702857 817.582642 
L 73.716562 818.958117 
L 74.905075 818.958117 
z
M 55.954286 804.251846 
L 57.298378 802.513175 
L 55.954286 801.170079 
L 54.481683 802.513175 
z
M 55.399336 802.513175 
L 55.954286 802.00703 
L 56.460806 802.513175 
L 55.954286 803.168392 
z
M 49.371429 802.270464 
L 52.662857 800.695697 
L 54.006949 799.224186 
L 52.662857 797.881091 
L 50.715521 795.935198 
L 49.371429 792.64621 
L 48.024307 795.935198 
L 47.079927 799.224186 
z
M 48.562955 799.224186 
L 48.863767 795.935198 
L 49.371429 794.695745 
L 49.877949 795.935198 
L 52.662857 798.718042 
L 53.169377 799.224186 
L 52.662857 799.778724 
L 49.371429 800.298955 
z
M 26.331429 781.097412 
L 27.632695 779.490256 
L 26.331429 778.189954 
L 24.966623 779.490256 
z
M 25.867837 779.490256 
L 26.331429 779.048575 
L 26.773437 779.490256 
L 26.331429 780.036168 
z
M 19.748571 778.948578 
L 23.04 777.565061 
L 24.341266 776.201268 
L 26.331429 772.912279 
L 23.04 769.623291 
L 21.74922 772.912279 
L 19.748571 774.926157 
L 17.651159 776.201268 
z
M 19.062422 776.201268 
L 19.748571 775.784127 
L 22.601554 772.912279 
L 23.04 771.79509 
L 24.158018 772.912279 
L 23.482008 776.201268 
L 23.04 776.664515 
L 19.748571 777.100025 
z
M 1.272425 759.756325 
L -0 758.484843 
L -0 759.344359 
L 0.412272 759.756325 
L 0 760.348483 
L -0 761.583942 
z
" clip-path="url(#pb3d3882cb0)" style="fill: #f5f9fe; fill-opacity: 0.9"/>
    <path d="M 3.291429 816.066292 
L 6.507169 818.958117 
L 6.582857 818.958117 
L 9.874286 818.958117 
L 13.165714 818.958117 
L 16.457143 818.958117 
L 19.748571 818.958117 
L 23.04 818.958117 
L 26.331429 818.958117 
L 29.622857 818.958117 
L 32.914286 818.958117 
L 36.205714 818.958117 
L 39.497143 818.958117 
L 42.788571 818.958117 
L 46.08 818.958117 
L 49.371429 818.958117 
L 52.662857 818.958117 
L 55.954286 818.958117 
L 59.245714 818.958117 
L 62.537143 818.958117 
L 63.333966 818.958117 
L 62.537143 817.570089 
L 60.623362 815.669129 
L 59.531986 812.38014 
L 59.245714 812.018136 
L 55.954286 809.250907 
L 52.662857 810.678493 
L 51.309277 812.38014 
L 49.371429 814.667187 
L 46.08 813.919067 
L 44.54389 812.38014 
L 42.788571 809.211153 
L 42.669036 809.091152 
L 40.478293 805.802163 
L 39.497143 804.359774 
L 37.652141 802.513175 
L 36.727485 799.224186 
L 36.205714 798.490874 
L 33.856292 795.935198 
L 32.914286 793.761183 
L 31.787006 792.64621 
L 30.156141 789.357221 
L 29.622857 788.855092 
L 26.331429 788.099648 
L 24.923213 789.357221 
L 23.04 791.463066 
L 21.936692 792.64621 
L 19.748571 793.688556 
L 18.871861 792.64621 
L 16.457143 790.664422 
L 15.152694 789.357221 
L 14.285357 786.068233 
L 13.165714 785.007113 
L 10.93959 782.779244 
L 9.874286 779.498301 
L 9.866213 779.490256 
L 7.311078 776.201268 
L 6.582857 774.850442 
L 4.640639 772.912279 
L 3.673437 769.623291 
L 3.291429 769.094742 
L 0.264692 766.334302 
L 0 766.133367 
L 0 766.334302 
L 0 769.623291 
L 0 772.912279 
L 0 776.201268 
L 0 779.490256 
L 0 782.779244 
L 0 786.068233 
L 0 789.357221 
L 0 792.64621 
L 0 795.935198 
L 0 799.224186 
L 0 802.513175 
L 0 805.802163 
L 0 809.091152 
L 0 812.301312 
L 0.070491 812.38014 
L 2.939121 815.669129 
z
M 75.702857 818.958117 
L 78.994286 818.958117 
L 79.603001 818.958117 
L 78.994286 817.535293 
L 75.702857 818.405666 
L 74.905075 818.958117 
z
M 55.954286 803.168392 
L 56.460806 802.513175 
L 55.954286 802.00703 
L 55.399336 802.513175 
z
M 49.371429 800.298955 
L 52.662857 799.778724 
L 53.169377 799.224186 
L 52.662857 798.718042 
L 49.877949 795.935198 
L 49.371429 794.695745 
L 48.863767 795.935198 
L 48.562955 799.224186 
z
M 26.331429 780.036168 
L 26.773437 779.490256 
L 26.331429 779.048575 
L 25.867837 779.490256 
z
M 19.748571 777.100025 
L 23.04 776.664515 
L 23.482008 776.201268 
L 24.158018 772.912279 
L 23.04 771.79509 
L 22.601554 772.912279 
L 19.748571 775.784127 
L 19.062422 776.201268 
z
M 0.412272 759.756325 
L -0 759.344359 
L 0 759.756325 
L 0 760.348483 
z
" clip-path="url(#pb3d3882cb0)" style="fill: #eff6fc; fill-opacity: 0.9"/>
    <path d="M 3.291429 818.958117 
L 6.507169 818.958117 
L 3.291429 816.066292 
L 2.939121 815.669129 
L 0.070491 812.38014 
L 0 812.301312 
L 0 812.38014 
L 0 815.669129 
L 0 818.958117 
z
" clip-path="url(#pb3d3882cb0)" style="fill: #eaf3fb; fill-opacity: 0.9"/>
    <path clip-path="url(#pb3d3882cb0)" style="fill: #e5eff9; fill-opacity: 0.9"/>
    <path clip-path="url(#pb3d3882cb0)" style="fill: #dfecf7; fill-opacity: 0.9"/>
    <path clip-path="url(#pb3d3882cb0)" style="fill: #dae8f6; fill-opacity: 0.9"/>
    <path clip-path="url(#pb3d3882cb0)" style="fill: #d6e5f4; fill-opacity: 0.9"/>
    <path clip-path="url(#pb3d3882cb0)" style="fill: #d0e2f2; fill-opacity: 0.9"/>
    <path clip-path="url(#pb3d3882cb0)" style="fill: #cbdef1; fill-opacity: 0.9"/>
    <path clip-path="url(#pb3d3882cb0)" style="fill: #c6dbef; fill-opacity: 0.9"/>
    <path clip-path="url(#pb3d3882cb0)" style="fill: #bed8ec; fill-opacity: 0.9"/>
    <path clip-path="url(#pb3d3882cb0)" style="fill: #b5d4e9; fill-opacity: 0.9"/>
    <path clip-path="url(#pb3d3882cb0)" style="fill: #add0e6; fill-opacity: 0.9"/>
    <path clip-path="url(#pb3d3882cb0)" style="fill: #a5cde3; fill-opacity: 0.9"/>
    <path clip-path="url(#pb3d3882cb0)" style="fill: #9cc9e1; fill-opacity: 0.9"/>
    <path clip-path="url(#pb3d3882cb0)" style="fill: #91c3de; fill-opacity: 0.9"/>
    <path clip-path="url(#pb3d3882cb0)" style="fill: #85bcdc; fill-opacity: 0.9"/>
    <path clip-path="url(#pb3d3882cb0)" style="fill: #7cb7da; fill-opacity: 0.9"/>
    <path clip-path="url(#pb3d3882cb0)" style="fill: #71b1d7; fill-opacity: 0.9"/>
    <path clip-path="url(#pb3d3882cb0)" style="fill: #66abd4; fill-opacity: 0.9"/>
    <path clip-path="url(#pb3d3882cb0)" style="fill: #5da5d1; fill-opacity: 0.9"/>
    <path clip-path="url(#pb3d3882cb0)" style="fill: #56a0ce; fill-opacity: 0.9"/>
    <path clip-path="url(#pb3d3882cb0)" style="fill: #4d99ca; fill-opacity: 0.9"/>
    <path clip-path="url(#pb3d3882cb0)" style="fill: #4493c7; fill-opacity: 0.9"/>
    <path clip-path="url(#pb3d3882cb0)" style="fill: #3c8cc3; fill-opacity: 0.9"/>
    <path clip-path="url(#pb3d3882cb0)" style="fill: #3686c0; fill-opacity: 0.9"/>
    <path clip-path="url(#pb3d3882cb0)" style="fill: #2f7fbc; fill-opacity: 0.9"/>
    <path clip-path="url(#pb3d3882cb0)" style="fill: #2777b8; fill-opacity: 0.9"/>
    <path clip-path="url(#pb3d3882cb0)" style="fill: #2070b4; fill-opacity: 0.9"/>
    <path clip-path="url(#pb3d3882cb0)" style="fill: #1c6ab0; fill-opacity: 0.9"/>
    <path clip-path="url(#pb3d3882cb0)" style="fill: #1663aa; fill-opacity: 0.9"/>
    <path clip-path="url(#pb3d3882cb0)" style="fill: #115ca5; fill-opacity: 0.9"/>
    <path clip-path="url(#pb3d3882cb0)" style="fill: #0c56a0; fill-opacity: 0.9"/>
    <path clip-path="url(#pb3d3882cb0)" style="fill: #084f99; fill-opacity: 0.9"/>
    <path clip-path="url(#pb3d3882cb0)" style="fill: #08488e; fill-opacity: 0.9"/>
    <path clip-path="url(#pb3d3882cb0)" style="fill: #084184; fill-opacity: 0.9"/>
    <path clip-path="url(#pb3d3882cb0)" style="fill: #083a7a; fill-opacity: 0.9"/>
    <path clip-path="url(#pb3d3882cb0)" style="fill: #083370; fill-opacity: 0.9"/>
    <path clip-path="url(#pb3d3882cb0)" style="fill: #08306b; fill-opacity: 0.9"/>
   </g>
   <g id="QuadContourSet_2">
    <path d="M 64.676168 818.958117 
L 62.913561 815.669129 
L 62.537143 815.291327 
L 60.763336 812.38014 
L 59.245714 810.461035 
L 57.688 809.091152 
L 55.954286 807.754897 
L 53.420725 805.802163 
L 52.662857 805.218039 
L 49.371429 803.324751 
L 46.08 804.524084 
L 45.004894 805.802163 
L 42.788571 806.321276 
L 42.429739 805.802163 
L 41.000663 802.513175 
L 39.497143 801.603559 
L 38.161007 799.224186 
L 36.205714 796.476158 
L 35.708412 795.935198 
L 33.919851 792.64621 
L 32.914286 791.157027 
L 31.61291 789.357221 
L 29.622857 787.483431 
L 27.782042 786.068233 
L 26.331429 784.953017 
L 23.503899 782.779244 
L 23.04 782.422604 
L 19.748571 781.948799 
L 18.526563 782.779244 
L 16.457143 785.027154 
L 13.197305 782.779244 
L 13.165714 782.771317 
L 12.371954 780.804454 
M 1.155487 765.595843 
L -0 764.718683 
M 80.401388 818.958117 
L 78.994286 815.669129 
L 75.702857 817.582642 
L 73.716562 818.958117 
M -0 761.583942 
L 1.272425 759.756325 
L -0 758.484843 
M 55.954286 804.251846 
L 57.298378 802.513175 
L 55.954286 801.170079 
L 54.481683 802.513175 
L 55.954286 804.251846 
z
M 49.371429 802.270464 
L 52.662857 800.695697 
L 54.006949 799.224186 
L 52.662857 797.881091 
L 50.715521 795.935198 
L 49.371429 792.64621 
L 48.024307 795.935198 
L 47.079927 799.224186 
L 49.371429 802.270464 
z
M 26.331429 781.097412 
L 27.632695 779.490256 
L 26.331429 778.189954 
L 24.966623 779.490256 
L 26.331429 781.097412 
z
M 19.748571 778.948578 
L 23.04 777.565061 
L 24.341266 776.201268 
L 26.331429 772.912279 
L 23.04 769.623291 
L 21.74922 772.912279 
L 19.748571 774.926157 
L 17.651159 776.201268 
L 19.748571 778.948578 
z
" clip-path="url(#pb3d3882cb0)" style="fill: none"/>
    <path d="M 63.333966 818.958117 
L 62.537143 817.570089 
L 60.623362 815.669129 
L 59.531986 812.38014 
L 59.245714 812.018136 
L 55.954286 809.250907 
L 52.662857 810.678493 
L 51.309277 812.38014 
L 49.371429 814.667187 
L 46.08 813.919067 
L 44.54389 812.38014 
L 43.343164 810.212394 
M 33.12512 794.247758 
L 32.914286 793.761183 
L 31.787006 792.64621 
L 30.156141 789.357221 
L 29.622857 788.855092 
L 26.331429 788.099648 
L 24.923213 789.357221 
L 23.04 791.463066 
L 21.936692 792.64621 
L 19.748571 793.688556 
L 18.871861 792.64621 
L 16.457143 790.664422 
L 15.152694 789.357221 
L 14.285357 786.068233 
L 13.165714 785.007113 
L 10.93959 782.779244 
L 9.874286 779.498301 
L 9.866213 779.490256 
L 7.311078 776.201268 
L 6.582857 774.850442 
L 4.640639 772.912279 
L 3.673437 769.623291 
L 3.291429 769.094742 
L 0.264692 766.334302 
L 0 766.133367 
M 79.603001 818.958117 
L 78.994286 817.535293 
L 75.702857 818.405666 
L 74.905075 818.958117 
M 0 760.348483 
L 0.412272 759.756325 
L -0 759.344359 
M 55.954286 803.168392 
L 56.460806 802.513175 
L 55.954286 802.00703 
L 55.399336 802.513175 
L 55.954286 803.168392 
z
M 49.371429 800.298955 
L 52.662857 799.778724 
L 53.169377 799.224186 
L 52.662857 798.718042 
L 49.877949 795.935198 
L 49.371429 794.695745 
L 48.863767 795.935198 
L 48.562955 799.224186 
L 49.371429 800.298955 
z
M 26.331429 780.036168 
L 26.773437 779.490256 
L 26.331429 779.048575 
L 25.867837 779.490256 
L 26.331429 780.036168 
z
M 19.748571 777.100025 
L 23.04 776.664515 
L 23.482008 776.201268 
L 24.158018 772.912279 
L 23.04 771.79509 
L 22.601554 772.912279 
L 19.748571 775.784127 
L 19.062422 776.201268 
L 19.748571 777.100025 
z
" clip-path="url(#pb3d3882cb0)" style="fill: none"/>
    <path d="M 6.507169 818.958117 
L 3.291429 816.066292 
L 2.939121 815.669129 
L 0.070491 812.38014 
L 0 812.301312 
" clip-path="url(#pb3d3882cb0)" style="fill: none"/>
    <path clip-path="url(#pb3d3882cb0)" style="fill: none"/>
    <path clip-path="url(#pb3d3882cb0)" style="fill: none"/>
    <path clip-path="url(#pb3d3882cb0)" style="fill: none"/>
    <path clip-path="url(#pb3d3882cb0)" style="fill: none"/>
    <path clip-path="url(#pb3d3882cb0)" style="fill: none"/>
    <path clip-path="url(#pb3d3882cb0)" style="fill: none"/>
    <path clip-path="url(#pb3d3882cb0)" style="fill: none"/>
    <path clip-path="url(#pb3d3882cb0)" style="fill: none"/>
    <path clip-path="url(#pb3d3882cb0)" style="fill: none"/>
    <path clip-path="url(#pb3d3882cb0)" style="fill: none"/>
    <path clip-path="url(#pb3d3882cb0)" style="fill: none"/>
    <path clip-path="url(#pb3d3882cb0)" style="fill: none"/>
    <path clip-path="url(#pb3d3882cb0)" style="fill: none"/>
    <path clip-path="url(#pb3d3882cb0)" style="fill: none"/>
    <path clip-path="url(#pb3d3882cb0)" style="fill: none"/>
    <path clip-path="url(#pb3d3882cb0)" style="fill: none"/>
    <path clip-path="url(#pb3d3882cb0)" style="fill: none"/>
    <path clip-path="url(#pb3d3882cb0)" style="fill: none"/>
    <path clip-path="url(#pb3d3882cb0)" style="fill: none"/>
    <path clip-path="url(#pb3d3882cb0)" style="fill: none"/>
    <path clip-path="url(#pb3d3882cb0)" style="fill: none"/>
    <path clip-path="url(#pb3d3882cb0)" style="fill: none"/>
    <path clip-path="url(#pb3d3882cb0)" style="fill: none"/>
    <path clip-path="url(#pb3d3882cb0)" style="fill: none"/>
    <path clip-path="url(#pb3d3882cb0)" style="fill: none"/>
    <path clip-path="url(#pb3d3882cb0)" style="fill: none"/>
    <path clip-path="url(#pb3d3882cb0)" style="fill: none"/>
    <path clip-path="url(#pb3d3882cb0)" style="fill: none"/>
    <path clip-path="url(#pb3d3882cb0)" style="fill: none"/>
    <path clip-path="url(#pb3d3882cb0)" style="fill: none"/>
    <path clip-path="url(#pb3d3882cb0)" style="fill: none"/>
    <path clip-path="url(#pb3d3882cb0)" style="fill: none"/>
    <path clip-path="url(#pb3d3882cb0)" style="fill: none"/>
    <path clip-path="url(#pb3d3882cb0)" style="fill: none"/>
    <path clip-path="url(#pb3d3882cb0)" style="fill: none"/>
    <path clip-path="url(#pb3d3882cb0)" style="fill: none"/>
   </g>
   <g id="text_1">
    <g clip-path="url(#pb3d3882cb0)">
     <!-- 0 -->
     <g style="opacity: 0" transform="translate(2.337376 771.460351) rotate(-302.364933) scale(0.12 -0.12)">
      <defs>
       <path id="DejaVuSans-30" d="M 2034 4250 
Q 1547 4250 1301 3770 
Q 1056 3291 1056 2328 
Q 1056 1369 1301 889 
Q 1547 409 2034 409 
Q 2525 409 2770 889 
Q 3016 1369 3016 2328 
Q 3016 3291 2770 3770 
Q 2525 4250 2034 4250 
z
M 2034 4750 
Q 2819 4750 3233 4129 
Q 3647 3509 3647 2328 
Q 3647 1150 3233 529 
Q 2819 -91 2034 -91 
Q 1250 -91 836 529 
Q 422 1150 422 2328 
Q 422 3509 836 4129 
Q 1250 4750 2034 4750 
z
" transform="scale(0.015625)"/>
      </defs>
      <use xlink:href="#DejaVuSans-30"/>
     </g>
    </g>
   </g>
   <g id="text_2">
    <g clip-path="url(#pb3d3882cb0)">
     <!-- 1 -->
     <g style="opacity: 0" transform="translate(32.834574 800.987157) rotate(-301.485875) scale(0.12 -0.12)">
      <defs>
       <path id="DejaVuSans-31" d="M 794 531 
L 1825 531 
L 1825 4091 
L 703 3866 
L 703 4441 
L 1819 4666 
L 2450 4666 
L 2450 531 
L 3481 531 
L 3481 0 
L 794 0 
L 794 531 
z
" transform="scale(0.015625)"/>
      </defs>
      <use xlink:href="#DejaVuSans-31"/>
     </g>
    </g>
   </g>
  </g>
 </g>
 <defs>
  <clipPath id="pb3d3882cb0">
   <rect x="0" y="0" width="576" height="818.958117"/>
  </clipPath>
 </defs>
</svg>
