<?xml version="1.0" encoding="utf-8" standalone="no"?>
<!DOCTYPE svg PUBLIC "-//W3C//DTD SVG 1.1//EN"
  "http://www.w3.org/Graphics/SVG/1.1/DTD/svg11.dtd">
<svg xmlns:xlink="http://www.w3.org/1999/xlink" width="576pt" height="813.098298pt" viewBox="0 0 576 813.098298" xmlns="http://www.w3.org/2000/svg" version="1.1">
 <metadata>
  <rdf:RDF xmlns:dc="http://purl.org/dc/elements/1.1/" xmlns:cc="http://creativecommons.org/ns#" xmlns:rdf="http://www.w3.org/1999/02/22-rdf-syntax-ns#">
   <cc:Work>
    <dc:type rdf:resource="http://purl.org/dc/dcmitype/StillImage"/>
    <dc:date>2025-07-25T22:45:48.862985</dc:date>
    <dc:format>image/svg+xml</dc:format>
    <dc:creator>
     <cc:Agent>
      <dc:title>Matplotlib v3.10.3, https://matplotlib.org/</dc:title>
     </cc:Agent>
    </dc:creator>
   </cc:Work>
  </rdf:RDF>
 </metadata>
 <defs>
  <style type="text/css">*{stroke-linejoin: round; stroke-linecap: butt}</style>
 </defs>
 <g id="figure_1">
  <g id="patch_1">
   <path d="M 0 813.098298 
L 576 813.098298 
L 576 0 
L 0 0 
L 0 813.098298 
z
" style="fill: none; opacity: 0"/>
  </g>
  <g id="axes_1">
   <g id="QuadContourSet_1">
    <path d="M 195.254237 811.707708 
L 196.95998 813.098298 
L 198.508475 813.098298 
L 201.762712 813.098298 
L 205.016949 813.098298 
L 208.271186 813.098298 
L 211.525424 813.098298 
L 212.127848 813.098298 
L 211.525424 812.610066 
L 208.271186 812.418325 
L 205.163 809.832843 
L 205.016949 809.738807 
L 201.762712 807.194921 
L 198.815748 806.567388 
L 198.508475 806.481652 
L 195.254237 806.549712 
L 192 803.93727 
L 191.27217 803.301933 
L 188.745763 801.172218 
L 187.451319 800.036478 
L 185.491525 798.316962 
L 183.729564 796.771023 
L 182.237288 795.461705 
L 179.118036 793.505568 
L 178.983051 793.392787 
L 175.728814 792.741666 
L 172.735185 790.240113 
L 172.474576 790.02521 
L 169.220339 787.286258 
L 165.966102 787.803172 
L 162.711864 787.4986 
L 162.05195 786.974658 
L 159.457627 785.023434 
L 157.825032 783.709203 
L 156.20339 782.46914 
L 153.718032 780.443748 
L 152.949153 779.819494 
L 149.702644 777.178293 
L 149.694915 777.171992 
L 149.604934 777.178293 
L 146.440678 777.46193 
L 146.179628 777.178293 
L 143.186441 774.204955 
L 142.928344 773.912838 
L 139.932203 770.932906 
L 139.309561 770.647383 
L 136.677966 768.008666 
L 133.423729 767.814129 
L 131.032308 767.381928 
L 130.169492 767.225991 
L 126.915254 765.417338 
L 124.751422 764.116473 
L 123.661017 763.47513 
L 120.40678 762.163152 
L 117.152542 761.996662 
L 116.088052 760.851017 
L 113.898305 758.681781 
L 112.960189 757.585562 
L 110.644068 755.120093 
L 109.690349 754.320107 
L 107.389831 751.830506 
L 105.425497 751.054652 
L 104.135593 750.222847 
L 100.881356 749.539787 
L 97.627119 748.661301 
L 95.584833 747.789197 
L 94.372881 747.274138 
L 91.118644 746.313536 
L 87.864407 746.251817 
L 86.591466 744.523742 
L 84.610169 743.254008 
L 82.90531 741.258287 
L 81.355932 739.444575 
L 80.103917 737.992832 
L 78.101695 735.64528 
L 76.934324 734.727377 
L 74.847458 732.059904 
L 73.446714 731.461922 
L 71.59322 730.720986 
L 68.338983 730.435024 
L 65.084746 730.611575 
L 61.830508 730.34573 
L 60.059182 731.461922 
L 58.576271 731.857572 
L 58.235398 731.461922 
L 55.322034 728.571469 
L 54.992466 728.196467 
L 52.482526 724.931012 
L 52.067797 724.646494 
L 49.577162 721.665557 
L 48.813559 720.751633 
L 46.770803 718.400102 
L 45.559322 716.93895 
L 43.554927 715.134647 
L 42.305085 713.516153 
L 39.512512 711.869192 
L 39.050847 711.680527 
L 36.636024 711.869192 
L 35.79661 712.077406 
L 32.542373 712.030668 
L 31.843316 711.869192 
L 29.288136 711.27897 
L 26.033898 710.618049 
L 23.49064 708.603737 
L 22.779661 708.250515 
L 20.275569 705.338282 
L 19.525424 704.813962 
L 17.03197 702.072827 
L 16.271186 701.291824 
L 13.998102 698.807372 
L 13.016949 697.734985 
L 10.599682 695.541917 
L 9.762712 694.729677 
L 6.508475 692.61217 
L 3.254237 693.531633 
L 0 693.465274 
L 0 695.541917 
L 0 698.807372 
L 0 702.072827 
L 0 705.112619 
L 1.062088 705.338282 
L 3.254237 705.769928 
L 6.234431 705.338282 
L 6.508475 705.297231 
L 9.762712 705.136214 
L 9.99264 705.338282 
L 13.016949 707.065216 
L 14.822402 708.603737 
L 16.271186 710.114322 
L 18.41564 711.869192 
L 19.525424 713.358305 
L 21.89326 715.134647 
L 22.779661 716.75486 
L 25.087954 718.400102 
L 26.033898 718.944407 
L 29.288136 721.535067 
L 29.484312 721.665557 
L 32.542373 724.201924 
L 35.79661 724.271279 
L 39.050847 723.780011 
L 42.305085 723.874325 
L 43.330208 724.931012 
L 45.559322 726.202695 
L 48.005625 728.196467 
L 48.813559 729.032037 
L 51.992634 731.461922 
L 52.067797 731.557909 
L 55.322034 734.311678 
L 55.678295 734.727377 
L 58.383051 737.992832 
L 58.576271 738.119276 
L 61.233017 741.258287 
L 61.830508 741.906017 
L 64.298629 744.523742 
L 65.084746 745.19198 
L 68.338983 745.278272 
L 69.001568 744.523742 
L 71.59322 742.486652 
L 74.847458 742.499967 
L 77.339369 744.523742 
L 78.101695 744.892615 
L 81.355932 744.712093 
L 83.380803 747.789197 
L 84.610169 748.421327 
L 86.79103 751.054652 
L 87.864407 752.078661 
L 89.788004 754.320107 
L 91.118644 755.869703 
L 92.691994 757.585562 
L 94.372881 759.564588 
L 97.031127 760.851017 
L 97.627119 761.480169 
L 98.262905 760.851017 
L 100.881356 758.828159 
L 104.135593 759.433516 
L 107.144637 760.851017 
L 107.389831 760.946283 
L 110.644068 761.362312 
L 113.898305 763.527312 
L 114.456334 764.116473 
L 117.152542 767.252128 
L 117.274868 767.381928 
L 120.103133 770.647383 
L 120.40678 770.995369 
L 123.08582 773.912838 
L 123.661017 774.576971 
L 126.915254 775.252947 
L 130.169492 774.082272 
L 133.423729 775.947897 
L 135.699459 777.178293 
L 136.677966 777.731383 
L 139.932203 777.477123 
L 143.186441 778.973067 
L 144.569399 780.443748 
L 146.440678 782.407065 
L 147.748578 783.709203 
L 149.694915 786.040076 
L 150.951938 786.974658 
L 152.949153 789.420198 
L 156.20339 788.733514 
L 159.457627 789.601313 
L 160.240824 790.240113 
L 162.711864 792.211417 
L 164.429725 793.505568 
L 165.966102 794.650729 
L 168.810741 796.771023 
L 169.220339 797.076322 
L 170.937512 796.771023 
L 172.474576 796.310967 
L 172.834918 796.771023 
L 175.728814 798.80793 
L 177.06154 800.036478 
L 178.983051 802.381881 
L 180.010607 803.301933 
L 182.237288 806.251698 
L 183.49875 806.567388 
L 185.491525 807.90008 
L 186.850625 806.567388 
L 188.745763 806.129417 
L 189.244933 806.567388 
L 192 808.984674 
L 192.994031 809.832843 
z
M 68.338983 722.115626 
L 68.587009 721.665557 
L 68.338983 721.416676 
L 68.031411 721.665557 
z
M 61.830508 719.378172 
L 65.084746 718.708734 
L 65.332772 718.400102 
L 68.338983 715.134647 
L 65.084746 711.869192 
L 61.830508 711.869192 
L 61.581959 715.134647 
L 61.154602 718.400102 
z
M 39.050847 705.865343 
L 39.308692 705.338282 
L 39.050847 705.079549 
L 38.708308 705.338282 
z
M 32.542373 702.699357 
L 35.79661 702.416547 
L 36.054455 702.072827 
L 35.79661 701.814094 
L 32.800218 698.807372 
L 32.542373 695.541917 
L 32.542373 695.541917 
L 29.288136 692.276462 
L 29.029476 695.541917 
L 29.012853 698.807372 
L 29.288136 699.190789 
L 32.160273 702.072827 
z
M 3.254237 682.760535 
L 3.52434 682.480097 
L 3.254237 682.209064 
L 0.270102 679.214642 
L 0 675.949187 
L 0 679.214642 
L 0 682.480097 
L 0 682.919763 
z
" clip-path="url(#p08755b8abc)" style="fill: #f5f9fe; fill-opacity: 0.9"/>
    <path d="M 182.237288 810.373337 
L 184.575715 813.098298 
L 185.491525 813.098298 
L 188.745763 813.098298 
L 192 813.098298 
L 195.254237 813.098298 
L 196.95998 813.098298 
L 195.254237 811.707708 
L 192.994031 809.832843 
L 192 808.984674 
L 189.244933 806.567388 
L 188.745763 806.129417 
L 186.850625 806.567388 
L 185.491525 807.90008 
L 183.49875 806.567388 
L 182.237288 806.251698 
L 180.010607 803.301933 
L 178.983051 802.381881 
L 177.06154 800.036478 
L 175.728814 798.80793 
L 172.834918 796.771023 
L 172.474576 796.310967 
L 170.937512 796.771023 
L 169.220339 797.076322 
L 168.810741 796.771023 
L 165.966102 794.650729 
L 164.429725 793.505568 
L 162.711864 792.211417 
L 160.240824 790.240113 
L 159.457627 789.601313 
L 156.20339 788.733514 
L 152.949153 789.420198 
L 150.951938 786.974658 
L 149.694915 786.040076 
L 147.748578 783.709203 
L 146.440678 782.407065 
L 144.569399 780.443748 
L 143.186441 778.973067 
L 139.932203 777.477123 
L 136.677966 777.731383 
L 135.699459 777.178293 
L 133.423729 775.947897 
L 130.169492 774.082272 
L 126.915254 775.252947 
L 123.661017 774.576971 
L 123.08582 773.912838 
L 120.40678 770.995369 
L 120.103133 770.647383 
L 117.274868 767.381928 
L 117.152542 767.252128 
L 114.456334 764.116473 
L 113.898305 763.527312 
L 110.644068 761.362312 
L 107.389831 760.946283 
L 107.144637 760.851017 
L 104.135593 759.433516 
L 100.881356 758.828159 
L 98.262905 760.851017 
L 97.627119 761.480169 
L 97.031127 760.851017 
L 94.372881 759.564588 
L 92.691994 757.585562 
L 91.118644 755.869703 
L 89.788004 754.320107 
L 87.864407 752.078661 
L 86.79103 751.054652 
L 84.610169 748.421327 
L 83.380803 747.789197 
L 81.355932 744.712093 
L 78.101695 744.892615 
L 77.339369 744.523742 
L 74.847458 742.499967 
L 71.59322 742.486652 
L 69.001568 744.523742 
L 68.338983 745.278272 
L 65.084746 745.19198 
L 64.298629 744.523742 
L 61.830508 741.906017 
L 61.233017 741.258287 
L 58.576271 738.119276 
L 58.383051 737.992832 
L 55.678295 734.727377 
L 55.322034 734.311678 
L 52.067797 731.557909 
L 51.992634 731.461922 
L 48.813559 729.032037 
L 48.005625 728.196467 
L 45.559322 726.202695 
L 43.330208 724.931012 
L 42.305085 723.874325 
L 39.050847 723.780011 
L 35.79661 724.271279 
L 32.542373 724.201924 
L 29.484312 721.665557 
L 29.288136 721.535067 
L 26.033898 718.944407 
L 25.087954 718.400102 
L 22.779661 716.75486 
L 21.89326 715.134647 
L 19.525424 713.358305 
L 18.41564 711.869192 
L 16.271186 710.114322 
L 14.822402 708.603737 
L 13.016949 707.065216 
L 9.99264 705.338282 
L 9.762712 705.136214 
L 6.508475 705.297231 
L 6.234431 705.338282 
L 3.254237 705.769928 
L 1.062088 705.338282 
L 0 705.112619 
L 0 705.338282 
L 0 708.603737 
L 0 711.869192 
L 0 712.313354 
L 3.254237 714.263134 
L 6.508475 714.357073 
L 9.762712 714.357718 
L 13.016949 714.090958 
L 16.271186 714.593229 
L 16.721673 715.134647 
L 19.525424 717.202919 
L 20.589373 718.400102 
L 22.779661 720.864671 
L 23.645365 721.665557 
L 26.033898 724.425648 
L 26.586634 724.931012 
L 29.288136 728.182832 
L 29.305466 728.196467 
L 32.04321 731.461922 
L 32.542373 732.067616 
L 35.79661 733.13327 
L 39.050847 733.247283 
L 42.305085 732.968572 
L 45.559322 732.641177 
L 48.813559 733.610456 
L 49.779004 734.727377 
L 52.067797 736.555704 
L 53.363204 737.992832 
L 55.322034 740.165964 
L 56.607639 741.258287 
L 58.576271 743.515144 
L 59.531662 744.523742 
L 61.830508 747.201619 
L 62.508526 747.789197 
L 65.084746 750.347322 
L 66.169846 751.054652 
L 68.338983 752.438049 
L 71.401759 754.320107 
L 71.59322 754.443279 
L 72.056209 754.320107 
L 74.847458 752.18756 
L 78.101695 751.076041 
L 81.355932 752.489918 
L 83.235175 754.320107 
L 84.610169 755.480553 
L 87.045124 757.585562 
L 87.864407 758.384018 
L 90.967305 760.851017 
L 91.118644 760.997558 
L 93.77045 764.116473 
L 94.372881 764.784341 
L 97.206121 767.381928 
L 97.627119 767.727017 
L 100.808048 770.647383 
L 100.881356 770.714686 
L 101.528819 770.647383 
L 104.135593 769.65074 
L 107.389831 768.036484 
L 110.644068 769.008758 
L 113.140473 770.647383 
L 113.898305 771.060819 
L 117.152542 772.786712 
L 117.996405 773.912838 
L 120.40678 775.341702 
L 122.003121 777.178293 
L 123.661017 779.027678 
L 124.90961 780.443748 
L 126.915254 782.490544 
L 128.417497 783.709203 
L 130.169492 785.258709 
L 133.423729 786.17739 
L 136.677966 784.461241 
L 139.932203 786.077009 
L 143.186441 786.85766 
L 146.440678 786.695998 
L 146.677531 786.974658 
L 149.694915 789.979058 
L 149.931227 790.240113 
L 152.721376 793.505568 
L 152.949153 793.721144 
L 155.601424 796.771023 
L 156.20339 797.46323 
L 158.613351 800.036478 
L 159.457627 800.918715 
L 162.711864 801.751462 
L 164.307326 800.036478 
L 165.966102 799.607482 
L 166.604486 800.036478 
L 169.220339 801.656375 
L 171.577822 803.301933 
L 172.474576 803.882329 
L 175.728814 805.839741 
L 178.832691 806.567388 
L 178.983051 806.593253 
L 181.461936 809.832843 
z
" clip-path="url(#p08755b8abc)" style="fill: #eff6fc; fill-opacity: 0.9"/>
    <path d="M 165.966102 811.234393 
L 168.825878 813.098298 
L 169.220339 813.098298 
L 171.462157 813.098298 
L 172.474576 812.49534 
L 175.728814 811.938099 
L 178.983051 812.985549 
L 179.180273 813.098298 
L 182.237288 813.098298 
L 184.575715 813.098298 
L 182.237288 810.373337 
L 181.461936 809.832843 
L 178.983051 806.593253 
L 178.832691 806.567388 
L 175.728814 805.839741 
L 172.474576 803.882329 
L 171.577822 803.301933 
L 169.220339 801.656375 
L 166.604486 800.036478 
L 165.966102 799.607482 
L 164.307326 800.036478 
L 162.711864 801.751462 
L 159.457627 800.918715 
L 158.613351 800.036478 
L 156.20339 797.46323 
L 155.601424 796.771023 
L 152.949153 793.721144 
L 152.721376 793.505568 
L 149.931227 790.240113 
L 149.694915 789.979058 
L 146.677531 786.974658 
L 146.440678 786.695998 
L 143.186441 786.85766 
L 139.932203 786.077009 
L 136.677966 784.461241 
L 133.423729 786.17739 
L 130.169492 785.258709 
L 128.417497 783.709203 
L 126.915254 782.490544 
L 124.90961 780.443748 
L 123.661017 779.027678 
L 122.003121 777.178293 
L 120.40678 775.341702 
L 117.996405 773.912838 
L 117.152542 772.786712 
L 113.898305 771.060819 
L 113.140473 770.647383 
L 110.644068 769.008758 
L 107.389831 768.036484 
L 104.135593 769.65074 
L 101.528819 770.647383 
L 100.881356 770.714686 
L 100.808048 770.647383 
L 97.627119 767.727017 
L 97.206121 767.381928 
L 94.372881 764.784341 
L 93.77045 764.116473 
L 91.118644 760.997558 
L 90.967305 760.851017 
L 87.864407 758.384018 
L 87.045124 757.585562 
L 84.610169 755.480553 
L 83.235175 754.320107 
L 81.355932 752.489918 
L 78.101695 751.076041 
L 74.847458 752.18756 
L 72.056209 754.320107 
L 71.59322 754.443279 
L 71.401759 754.320107 
L 68.338983 752.438049 
L 66.169846 751.054652 
L 65.084746 750.347322 
L 62.508526 747.789197 
L 61.830508 747.201619 
L 59.531662 744.523742 
L 58.576271 743.515144 
L 56.607639 741.258287 
L 55.322034 740.165964 
L 53.363204 737.992832 
L 52.067797 736.555704 
L 49.779004 734.727377 
L 48.813559 733.610456 
L 45.559322 732.641177 
L 42.305085 732.968572 
L 39.050847 733.247283 
L 35.79661 733.13327 
L 32.542373 732.067616 
L 32.04321 731.461922 
L 29.305466 728.196467 
L 29.288136 728.182832 
L 26.586634 724.931012 
L 26.033898 724.425648 
L 23.645365 721.665557 
L 22.779661 720.864671 
L 20.589373 718.400102 
L 19.525424 717.202919 
L 16.721673 715.134647 
L 16.271186 714.593229 
L 13.016949 714.090958 
L 9.762712 714.357718 
L 6.508475 714.357073 
L 3.254237 714.263134 
L 0 712.313354 
L 0 715.009984 
L 0.160033 715.134647 
L 2.914002 718.400102 
L 3.254237 718.768389 
L 5.96953 721.665557 
L 6.508475 722.295841 
L 9.762712 722.768538 
L 13.016949 722.813903 
L 16.271186 722.881837 
L 19.525424 722.999312 
L 22.779661 724.179664 
L 23.425138 724.931012 
L 26.033898 727.234022 
L 26.889234 728.196467 
L 29.288136 730.93179 
L 29.734262 731.461922 
L 32.401902 734.727377 
L 32.542373 734.869335 
L 35.116505 737.992832 
L 35.79661 738.818084 
L 38.626034 741.258287 
L 39.050847 741.821746 
L 42.305085 741.846404 
L 45.559322 741.955536 
L 48.813559 741.708751 
L 52.067797 741.54135 
L 55.322034 743.377281 
L 56.347675 744.523742 
L 58.576271 746.831932 
L 59.437217 747.789197 
L 61.830508 750.610946 
L 62.275578 751.054652 
L 64.773651 754.320107 
L 65.084746 754.712172 
L 67.596974 757.585562 
L 68.338983 758.54573 
L 71.59322 760.119906 
L 72.836554 760.851017 
L 74.847458 761.830151 
L 78.101695 762.274006 
L 80.622957 760.851017 
L 81.355932 760.379735 
L 84.610169 760.203794 
L 85.278813 760.851017 
L 87.864407 762.657283 
L 89.356665 764.116473 
L 91.118644 765.839405 
L 92.540693 767.381928 
L 94.372881 769.629944 
L 95.607925 770.647383 
L 97.627119 773.732409 
L 97.839718 773.912838 
L 100.881356 775.656197 
L 102.574601 777.178293 
L 104.135593 778.324237 
L 107.389831 780.076318 
L 110.644068 778.060683 
L 113.898305 777.236931 
L 117.152542 778.861046 
L 119.366114 780.443748 
L 120.40678 781.187822 
L 123.661017 783.54486 
L 123.821535 783.709203 
L 126.915254 786.362362 
L 127.599938 786.974658 
L 130.169492 789.272545 
L 131.25145 790.240113 
L 133.423729 792.182727 
L 134.969964 793.505568 
L 136.677966 795.025501 
L 139.932203 796.231311 
L 143.186441 794.895409 
L 146.440678 796.005792 
L 149.694915 795.726153 
L 150.918901 796.771023 
L 152.949153 797.649281 
L 154.941062 800.036478 
L 156.20339 801.126018 
L 158.287353 803.301933 
L 159.457627 804.521642 
L 161.420458 806.567388 
L 162.711864 807.913347 
L 164.623326 809.832843 
z
" clip-path="url(#p08755b8abc)" style="fill: #eaf3fb; fill-opacity: 0.9"/>
    <path d="M 159.457627 810.492993 
L 162.711864 812.980799 
L 162.820829 813.098298 
L 165.966102 813.098298 
L 168.825878 813.098298 
L 165.966102 811.234393 
L 164.623326 809.832843 
L 162.711864 807.913347 
L 161.420458 806.567388 
L 159.457627 804.521642 
L 158.287353 803.301933 
L 156.20339 801.126018 
L 154.941062 800.036478 
L 152.949153 797.649281 
L 150.918901 796.771023 
L 149.694915 795.726153 
L 146.440678 796.005792 
L 143.186441 794.895409 
L 139.932203 796.231311 
L 136.677966 795.025501 
L 134.969964 793.505568 
L 133.423729 792.182727 
L 131.25145 790.240113 
L 130.169492 789.272545 
L 127.599938 786.974658 
L 126.915254 786.362362 
L 123.821535 783.709203 
L 123.661017 783.54486 
L 120.40678 781.187822 
L 119.366114 780.443748 
L 117.152542 778.861046 
L 113.898305 777.236931 
L 110.644068 778.060683 
L 107.389831 780.076318 
L 104.135593 778.324237 
L 102.574601 777.178293 
L 100.881356 775.656197 
L 97.839718 773.912838 
L 97.627119 773.732409 
L 95.607925 770.647383 
L 94.372881 769.629944 
L 92.540693 767.381928 
L 91.118644 765.839405 
L 89.356665 764.116473 
L 87.864407 762.657283 
L 85.278813 760.851017 
L 84.610169 760.203794 
L 81.355932 760.379735 
L 80.622957 760.851017 
L 78.101695 762.274006 
L 74.847458 761.830151 
L 72.836554 760.851017 
L 71.59322 760.119906 
L 68.338983 758.54573 
L 67.596974 757.585562 
L 65.084746 754.712172 
L 64.773651 754.320107 
L 62.275578 751.054652 
L 61.830508 750.610946 
L 59.437217 747.789197 
L 58.576271 746.831932 
L 56.347675 744.523742 
L 55.322034 743.377281 
L 52.067797 741.54135 
L 48.813559 741.708751 
L 45.559322 741.955536 
L 42.305085 741.846404 
L 39.050847 741.821746 
L 38.626034 741.258287 
L 35.79661 738.818084 
L 35.116505 737.992832 
L 32.542373 734.869335 
L 32.401902 734.727377 
L 29.734262 731.461922 
L 29.288136 730.93179 
L 26.889234 728.196467 
L 26.033898 727.234022 
L 23.425138 724.931012 
L 22.779661 724.179664 
L 19.525424 722.999312 
L 16.271186 722.881837 
L 13.016949 722.813903 
L 9.762712 722.768538 
L 6.508475 722.295841 
L 5.96953 721.665557 
L 3.254237 718.768389 
L 2.914002 718.400102 
L 0.160033 715.134647 
L 0 715.009984 
L 0 715.134647 
L 0 717.906852 
L 0.422767 718.400102 
L 3.254237 721.465019 
L 3.442186 721.665557 
L 5.904708 724.931012 
L 6.508475 725.434888 
L 8.692451 728.196467 
L 9.762712 729.141907 
L 12.620217 731.461922 
L 13.016949 731.849438 
L 14.959414 731.461922 
L 16.271186 730.935556 
L 19.525424 731.305595 
L 21.496106 731.461922 
L 22.779661 731.567727 
L 26.033898 731.847789 
L 29.288136 734.29498 
L 29.629516 734.727377 
L 32.542373 737.671054 
L 32.807557 737.992832 
L 35.018586 741.258287 
L 35.79661 741.948822 
L 37.629928 744.523742 
L 39.050847 745.793933 
L 40.860881 747.789197 
L 42.305085 749.291259 
L 45.312004 751.054652 
L 45.559322 751.475768 
L 46.826707 751.054652 
L 48.813559 750.46493 
L 52.067797 750.616037 
L 55.322034 750.542605 
L 58.576271 750.748686 
L 58.823624 751.054652 
L 61.830508 753.85119 
L 62.202584 754.320107 
L 64.300157 757.585562 
L 65.084746 758.312553 
L 66.763186 760.851017 
L 68.338983 762.264902 
L 69.75739 764.116473 
L 71.59322 766.15487 
L 73.46724 767.381928 
L 74.847458 769.660732 
L 78.101695 769.881939 
L 81.355932 770.496978 
L 84.610169 769.891021 
L 87.864407 768.971343 
L 91.118644 770.000924 
L 91.650929 770.647383 
L 93.915097 773.912838 
L 94.372881 774.347018 
L 96.229831 777.178293 
L 97.627119 778.418806 
L 99.176473 780.443748 
L 100.881356 782.519579 
L 102.531849 783.709203 
L 104.135593 786.357325 
L 107.389831 786.741519 
L 107.834149 786.974658 
L 110.644068 788.446173 
L 113.898305 788.58678 
L 117.152542 787.237824 
L 118.083717 786.974658 
L 120.40678 786.661272 
L 120.796068 786.974658 
L 123.661017 789.597179 
L 124.303677 790.240113 
L 126.915254 792.852803 
L 127.567741 793.505568 
L 130.169492 796.108427 
L 130.994353 796.771023 
L 133.423729 799.199639 
L 134.786535 800.036478 
L 136.677966 801.92288 
L 139.932203 803.210681 
L 140.044175 803.301933 
L 143.186441 805.534395 
L 146.440678 806.462569 
L 149.694915 805.426735 
L 152.949153 805.510773 
L 154.623407 806.567388 
L 156.20339 807.850405 
L 158.644679 809.832843 
z
M 172.474576 813.098298 
L 175.728814 813.098298 
L 178.983051 813.098298 
L 179.180273 813.098298 
L 178.983051 812.985549 
L 175.728814 811.938099 
L 172.474576 812.49534 
L 171.462157 813.098298 
z
" clip-path="url(#p08755b8abc)" style="fill: #e5eff9; fill-opacity: 0.9"/>
    <path d="M 117.152542 810.748997 
L 119.260667 813.098298 
L 120.40678 813.098298 
L 123.661017 813.098298 
L 126.915254 813.098298 
L 130.169492 813.098298 
L 133.423729 813.098298 
L 136.677966 813.098298 
L 139.932203 813.098298 
L 143.186441 813.098298 
L 146.440678 813.098298 
L 149.694915 813.098298 
L 152.949153 813.098298 
L 156.20339 813.098298 
L 159.457627 813.098298 
L 162.711864 813.098298 
L 162.820829 813.098298 
L 162.711864 812.980799 
L 159.457627 810.492993 
L 158.644679 809.832843 
L 156.20339 807.850405 
L 154.623407 806.567388 
L 152.949153 805.510773 
L 149.694915 805.426735 
L 146.440678 806.462569 
L 143.186441 805.534395 
L 140.044175 803.301933 
L 139.932203 803.210681 
L 136.677966 801.92288 
L 134.786535 800.036478 
L 133.423729 799.199639 
L 130.994353 796.771023 
L 130.169492 796.108427 
L 127.567741 793.505568 
L 126.915254 792.852803 
L 124.303677 790.240113 
L 123.661017 789.597179 
L 120.796068 786.974658 
L 120.40678 786.661272 
L 118.083717 786.974658 
L 117.152542 787.237824 
L 113.898305 788.58678 
L 110.644068 788.446173 
L 107.834149 786.974658 
L 107.389831 786.741519 
L 104.135593 786.357325 
L 102.531849 783.709203 
L 100.881356 782.519579 
L 99.176473 780.443748 
L 97.627119 778.418806 
L 96.229831 777.178293 
L 94.372881 774.347018 
L 93.915097 773.912838 
L 91.650929 770.647383 
L 91.118644 770.000924 
L 87.864407 768.971343 
L 84.610169 769.891021 
L 81.355932 770.496978 
L 78.101695 769.881939 
L 74.847458 769.660732 
L 73.46724 767.381928 
L 71.59322 766.15487 
L 69.75739 764.116473 
L 68.338983 762.264902 
L 66.763186 760.851017 
L 65.084746 758.312553 
L 64.300157 757.585562 
L 62.202584 754.320107 
L 61.830508 753.85119 
L 58.823624 751.054652 
L 58.576271 750.748686 
L 55.322034 750.542605 
L 52.067797 750.616037 
L 48.813559 750.46493 
L 46.826707 751.054652 
L 45.559322 751.475768 
L 45.312004 751.054652 
L 42.305085 749.291259 
L 40.860881 747.789197 
L 39.050847 745.793933 
L 37.629928 744.523742 
L 35.79661 741.948822 
L 35.018586 741.258287 
L 32.807557 737.992832 
L 32.542373 737.671054 
L 29.629516 734.727377 
L 29.288136 734.29498 
L 26.033898 731.847789 
L 22.779661 731.567727 
L 21.496106 731.461922 
L 19.525424 731.305595 
L 16.271186 730.935556 
L 14.959414 731.461922 
L 13.016949 731.849438 
L 12.620217 731.461922 
L 9.762712 729.141907 
L 8.692451 728.196467 
L 6.508475 725.434888 
L 5.904708 724.931012 
L 3.442186 721.665557 
L 3.254237 721.465019 
L 0.422767 718.400102 
L 0 717.906852 
L 0 718.400102 
L 0 721.665557 
L 0 724.931012 
L 0 728.196467 
L 0 729.409683 
L 2.714615 731.461922 
L 3.254237 732.124247 
L 6.508475 733.788603 
L 7.854854 734.727377 
L 9.762712 735.952254 
L 13.016949 737.773971 
L 13.157526 737.992832 
L 16.271186 740.443135 
L 19.525424 741.062778 
L 22.779661 740.099244 
L 24.059711 741.258287 
L 26.033898 743.147178 
L 27.201445 744.523742 
L 29.288136 746.983999 
L 30.157024 747.789197 
L 32.542373 750.74227 
L 33.158849 751.054652 
L 35.691092 754.320107 
L 35.79661 754.426778 
L 39.050847 754.771338 
L 42.305085 757.268905 
L 43.129835 757.585562 
L 45.559322 758.595786 
L 48.813559 760.431822 
L 52.067797 760.302433 
L 54.32444 760.851017 
L 55.322034 761.61522 
L 56.889984 764.116473 
L 58.576271 765.671429 
L 59.847518 767.381928 
L 61.830508 769.003179 
L 63.24067 770.647383 
L 65.084746 772.899258 
L 66.780863 773.912838 
L 68.338983 776.372263 
L 71.59322 776.710318 
L 72.44382 777.178293 
L 74.847458 778.633795 
L 78.101695 779.995546 
L 78.808971 780.443748 
L 81.355932 781.912392 
L 84.610169 782.512361 
L 86.053169 783.709203 
L 87.864407 785.211466 
L 90.29142 786.974658 
L 91.118644 787.644313 
L 94.372881 789.945993 
L 94.678186 790.240113 
L 97.627119 792.73767 
L 98.42408 793.505568 
L 100.881356 795.626759 
L 102.161068 796.771023 
L 104.135593 798.483768 
L 106.609815 800.036478 
L 107.389831 800.766578 
L 110.644068 802.013589 
L 112.259507 803.301933 
L 113.898305 805.895915 
L 114.525495 806.567388 
L 116.516624 809.832843 
z
" clip-path="url(#p08755b8abc)" style="fill: #dfecf7; fill-opacity: 0.9"/>
    <path d="M 55.322034 812.478127 
L 57.442589 813.098298 
L 58.576271 813.098298 
L 61.830508 813.098298 
L 65.084746 813.098298 
L 68.338983 813.098298 
L 71.59322 813.098298 
L 74.847458 813.098298 
L 78.101695 813.098298 
L 81.355932 813.098298 
L 84.610169 813.098298 
L 87.864407 813.098298 
L 91.118644 813.098298 
L 94.372881 813.098298 
L 97.627119 813.098298 
L 100.881356 813.098298 
L 104.135593 813.098298 
L 107.389831 813.098298 
L 110.644068 813.098298 
L 113.898305 813.098298 
L 117.152542 813.098298 
L 119.260667 813.098298 
L 117.152542 810.748997 
L 116.516624 809.832843 
L 114.525495 806.567388 
L 113.898305 805.895915 
L 112.259507 803.301933 
L 110.644068 802.013589 
L 107.389831 800.766578 
L 106.609815 800.036478 
L 104.135593 798.483768 
L 102.161068 796.771023 
L 100.881356 795.626759 
L 98.42408 793.505568 
L 97.627119 792.73767 
L 94.678186 790.240113 
L 94.372881 789.945993 
L 91.118644 787.644313 
L 90.29142 786.974658 
L 87.864407 785.211466 
L 86.053169 783.709203 
L 84.610169 782.512361 
L 81.355932 781.912392 
L 78.808971 780.443748 
L 78.101695 779.995546 
L 74.847458 778.633795 
L 72.44382 777.178293 
L 71.59322 776.710318 
L 68.338983 776.372263 
L 66.780863 773.912838 
L 65.084746 772.899258 
L 63.24067 770.647383 
L 61.830508 769.003179 
L 59.847518 767.381928 
L 58.576271 765.671429 
L 56.889984 764.116473 
L 55.322034 761.61522 
L 54.32444 760.851017 
L 52.067797 760.302433 
L 48.813559 760.431822 
L 45.559322 758.595786 
L 43.129835 757.585562 
L 42.305085 757.268905 
L 39.050847 754.771338 
L 35.79661 754.426778 
L 35.691092 754.320107 
L 33.158849 751.054652 
L 32.542373 750.74227 
L 30.157024 747.789197 
L 29.288136 746.983999 
L 27.201445 744.523742 
L 26.033898 743.147178 
L 24.059711 741.258287 
L 22.779661 740.099244 
L 19.525424 741.062778 
L 16.271186 740.443135 
L 13.157526 737.992832 
L 13.016949 737.773971 
L 9.762712 735.952254 
L 7.854854 734.727377 
L 6.508475 733.788603 
L 3.254237 732.124247 
L 2.714615 731.461922 
L 0 729.409683 
L 0 731.461922 
L 0 734.727377 
L 0 737.992832 
L 0 741.258287 
L 0 744.523742 
L 0 747.789197 
L 0 751.054652 
L 0 754.320107 
L 0 757.585562 
L 0 757.708983 
L 2.394427 760.851017 
L 3.254237 761.979285 
L 4.911312 764.116473 
L 6.508475 766.094745 
L 7.991938 767.381928 
L 9.762712 769.693868 
L 11.123721 770.647383 
L 13.000506 773.912838 
L 13.016949 773.932639 
L 16.271186 776.108505 
L 19.525424 775.096961 
L 22.779661 776.349742 
L 25.749158 777.178293 
L 26.033898 777.263311 
L 29.288136 779.02736 
L 30.167359 780.443748 
L 32.542373 782.818687 
L 33.187419 783.709203 
L 35.5682 786.974658 
L 35.79661 787.23691 
L 38.009184 790.240113 
L 39.050847 791.404097 
L 40.673873 793.505568 
L 42.305085 795.449667 
L 43.3442 796.771023 
L 45.559322 799.587807 
L 46.093849 800.036478 
L 47.962052 803.301933 
L 48.813559 804.384458 
L 50.106693 806.567388 
L 52.067797 808.906391 
L 53.407019 809.832843 
z
" clip-path="url(#p08755b8abc)" style="fill: #dae8f6; fill-opacity: 0.9"/>
    <path d="M 3.254237 813.098298 
L 6.508475 813.098298 
L 9.762712 813.098298 
L 13.016949 813.098298 
L 16.271186 813.098298 
L 19.525424 813.098298 
L 22.779661 813.098298 
L 26.033898 813.098298 
L 29.288136 813.098298 
L 32.542373 813.098298 
L 35.79661 813.098298 
L 39.050847 813.098298 
L 42.305085 813.098298 
L 45.559322 813.098298 
L 48.813559 813.098298 
L 52.067797 813.098298 
L 55.322034 813.098298 
L 57.442589 813.098298 
L 55.322034 812.478127 
L 53.407019 809.832843 
L 52.067797 808.906391 
L 50.106693 806.567388 
L 48.813559 804.384458 
L 47.962052 803.301933 
L 46.093849 800.036478 
L 45.559322 799.587807 
L 43.3442 796.771023 
L 42.305085 795.449667 
L 40.673873 793.505568 
L 39.050847 791.404097 
L 38.009184 790.240113 
L 35.79661 787.23691 
L 35.5682 786.974658 
L 33.187419 783.709203 
L 32.542373 782.818687 
L 30.167359 780.443748 
L 29.288136 779.02736 
L 26.033898 777.263311 
L 25.749158 777.178293 
L 22.779661 776.349742 
L 19.525424 775.096961 
L 16.271186 776.108505 
L 13.016949 773.932639 
L 13.000506 773.912838 
L 11.123721 770.647383 
L 9.762712 769.693868 
L 7.991938 767.381928 
L 6.508475 766.094745 
L 4.911312 764.116473 
L 3.254237 761.979285 
L 2.394427 760.851017 
L 0 757.708983 
L 0 760.851017 
L 0 764.116473 
L 0 767.381928 
L 0 770.647383 
L 0 773.912838 
L 0 777.178293 
L 0 780.443748 
L 0 783.709203 
L 0 786.974658 
L 0 790.240113 
L 0 793.505568 
L 0 796.771023 
L 0 800.036478 
L 0 803.301933 
L 0 806.567388 
L 0 809.832843 
L 0 813.098298 
z
" clip-path="url(#p08755b8abc)" style="fill: #d6e5f4; fill-opacity: 0.9"/>
    <path clip-path="url(#p08755b8abc)" style="fill: #d0e2f2; fill-opacity: 0.9"/>
    <path clip-path="url(#p08755b8abc)" style="fill: #cbdef1; fill-opacity: 0.9"/>
    <path clip-path="url(#p08755b8abc)" style="fill: #c6dbef; fill-opacity: 0.9"/>
    <path clip-path="url(#p08755b8abc)" style="fill: #bed8ec; fill-opacity: 0.9"/>
    <path clip-path="url(#p08755b8abc)" style="fill: #b5d4e9; fill-opacity: 0.9"/>
    <path clip-path="url(#p08755b8abc)" style="fill: #add0e6; fill-opacity: 0.9"/>
    <path clip-path="url(#p08755b8abc)" style="fill: #a5cde3; fill-opacity: 0.9"/>
    <path clip-path="url(#p08755b8abc)" style="fill: #9cc9e1; fill-opacity: 0.9"/>
    <path clip-path="url(#p08755b8abc)" style="fill: #91c3de; fill-opacity: 0.9"/>
    <path clip-path="url(#p08755b8abc)" style="fill: #85bcdc; fill-opacity: 0.9"/>
    <path clip-path="url(#p08755b8abc)" style="fill: #7cb7da; fill-opacity: 0.9"/>
    <path clip-path="url(#p08755b8abc)" style="fill: #71b1d7; fill-opacity: 0.9"/>
    <path clip-path="url(#p08755b8abc)" style="fill: #66abd4; fill-opacity: 0.9"/>
    <path clip-path="url(#p08755b8abc)" style="fill: #5da5d1; fill-opacity: 0.9"/>
    <path clip-path="url(#p08755b8abc)" style="fill: #56a0ce; fill-opacity: 0.9"/>
    <path clip-path="url(#p08755b8abc)" style="fill: #4d99ca; fill-opacity: 0.9"/>
    <path clip-path="url(#p08755b8abc)" style="fill: #4493c7; fill-opacity: 0.9"/>
    <path clip-path="url(#p08755b8abc)" style="fill: #3c8cc3; fill-opacity: 0.9"/>
    <path clip-path="url(#p08755b8abc)" style="fill: #3686c0; fill-opacity: 0.9"/>
    <path clip-path="url(#p08755b8abc)" style="fill: #2f7fbc; fill-opacity: 0.9"/>
    <path clip-path="url(#p08755b8abc)" style="fill: #2777b8; fill-opacity: 0.9"/>
    <path clip-path="url(#p08755b8abc)" style="fill: #2070b4; fill-opacity: 0.9"/>
    <path clip-path="url(#p08755b8abc)" style="fill: #1c6ab0; fill-opacity: 0.9"/>
    <path clip-path="url(#p08755b8abc)" style="fill: #1663aa; fill-opacity: 0.9"/>
    <path clip-path="url(#p08755b8abc)" style="fill: #115ca5; fill-opacity: 0.9"/>
    <path clip-path="url(#p08755b8abc)" style="fill: #0c56a0; fill-opacity: 0.9"/>
    <path clip-path="url(#p08755b8abc)" style="fill: #084f99; fill-opacity: 0.9"/>
    <path clip-path="url(#p08755b8abc)" style="fill: #08488e; fill-opacity: 0.9"/>
    <path clip-path="url(#p08755b8abc)" style="fill: #084184; fill-opacity: 0.9"/>
    <path clip-path="url(#p08755b8abc)" style="fill: #083a7a; fill-opacity: 0.9"/>
    <path clip-path="url(#p08755b8abc)" style="fill: #083370; fill-opacity: 0.9"/>
    <path clip-path="url(#p08755b8abc)" style="fill: #08306b; fill-opacity: 0.9"/>
   </g>
   <g id="QuadContourSet_2">
    <path d="M 212.127848 813.098298 
L 211.525424 812.610066 
L 208.271186 812.418325 
L 205.163 809.832843 
L 205.016949 809.738807 
L 201.762712 807.194921 
L 198.815748 806.567388 
L 198.508475 806.481652 
L 195.254237 806.549712 
L 192 803.93727 
L 191.27217 803.301933 
L 188.745763 801.172218 
L 187.451319 800.036478 
L 185.491525 798.316962 
L 183.729564 796.771023 
L 182.237288 795.461705 
L 179.118036 793.505568 
L 178.983051 793.392787 
L 175.728814 792.741666 
L 172.735185 790.240113 
L 172.474576 790.02521 
L 169.220339 787.286258 
L 165.966102 787.803172 
L 162.711864 787.4986 
L 162.05195 786.974658 
L 159.457627 785.023434 
L 157.825032 783.709203 
L 156.20339 782.46914 
L 153.718032 780.443748 
L 152.949153 779.819494 
L 149.702644 777.178293 
L 149.694915 777.171992 
L 149.604934 777.178293 
L 146.440678 777.46193 
L 146.179628 777.178293 
L 143.186441 774.204955 
L 142.928344 773.912838 
L 139.932203 770.932906 
L 139.309561 770.647383 
L 136.677966 768.008666 
L 133.423729 767.814129 
L 131.032308 767.381928 
L 130.169492 767.225991 
L 126.915254 765.417338 
L 124.751422 764.116473 
L 123.661017 763.47513 
L 120.40678 762.163152 
L 117.152542 761.996662 
L 116.088052 760.851017 
L 113.898305 758.681781 
L 112.960189 757.585562 
L 110.644068 755.120093 
L 109.690349 754.320107 
L 107.389831 751.830506 
L 105.425497 751.054652 
L 104.135593 750.222847 
L 100.881356 749.539787 
L 97.627119 748.661301 
L 95.584833 747.789197 
L 94.372881 747.274138 
L 91.118644 746.313536 
L 87.864407 746.251817 
L 86.591466 744.523742 
L 84.610169 743.254008 
L 82.90531 741.258287 
L 81.355932 739.444575 
L 80.103917 737.992832 
L 78.101695 735.64528 
L 76.934324 734.727377 
L 74.847458 732.059904 
L 73.446714 731.461922 
L 71.59322 730.720986 
L 68.338983 730.435024 
L 65.084746 730.611575 
L 61.830508 730.34573 
L 60.059182 731.461922 
L 58.576271 731.857572 
L 58.235398 731.461922 
L 55.322034 728.571469 
L 54.992466 728.196467 
L 52.482526 724.931012 
L 52.067797 724.646494 
L 51.728053 724.23987 
M 37.992137 711.763242 
L 36.636024 711.869192 
L 35.79661 712.077406 
L 32.542373 712.030668 
L 31.843316 711.869192 
L 29.288136 711.27897 
L 26.033898 710.618049 
L 23.49064 708.603737 
L 22.779661 708.250515 
L 20.275569 705.338282 
L 19.525424 704.813962 
L 17.03197 702.072827 
L 16.271186 701.291824 
L 13.998102 698.807372 
L 13.016949 697.734985 
L 10.599682 695.541917 
L 9.762712 694.729677 
L 6.508475 692.61217 
L 3.254237 693.531633 
L 0 693.465274 
M 0 682.919763 
L 3.254237 682.760535 
L 3.52434 682.480097 
L 3.254237 682.209064 
L 0.270102 679.214642 
L 0 675.949187 
M 68.338983 722.115626 
L 68.587009 721.665557 
L 68.338983 721.416676 
L 68.031411 721.665557 
L 68.338983 722.115626 
z
M 61.830508 719.378172 
L 65.084746 718.708734 
L 65.332772 718.400102 
L 68.338983 715.134647 
L 65.084746 711.869192 
L 61.830508 711.869192 
L 61.581959 715.134647 
L 61.154602 718.400102 
L 61.830508 719.378172 
z
M 39.050847 705.865343 
L 39.308692 705.338282 
L 39.050847 705.079549 
L 38.708308 705.338282 
L 39.050847 705.865343 
z
M 32.542373 702.699357 
L 35.79661 702.416547 
L 36.054455 702.072827 
L 35.79661 701.814094 
L 32.800218 698.807372 
L 32.542373 695.541917 
L 32.542373 695.541917 
L 29.288136 692.276462 
L 29.029476 695.541917 
L 29.012853 698.807372 
L 29.288136 699.190789 
L 32.160273 702.072827 
L 32.542373 702.699357 
z
" clip-path="url(#p08755b8abc)" style="fill: none"/>
    <path d="M 196.95998 813.098298 
L 195.254237 811.707708 
L 192.994031 809.832843 
L 192 808.984674 
L 189.244933 806.567388 
L 188.745763 806.129417 
L 186.850625 806.567388 
L 185.491525 807.90008 
L 183.49875 806.567388 
L 182.237288 806.251698 
L 180.010607 803.301933 
L 178.983051 802.381881 
L 177.06154 800.036478 
L 175.728814 798.80793 
L 172.834918 796.771023 
L 172.474576 796.310967 
L 170.937512 796.771023 
L 169.220339 797.076322 
L 168.810741 796.771023 
L 165.966102 794.650729 
L 164.429725 793.505568 
L 162.711864 792.211417 
L 160.240824 790.240113 
L 159.457627 789.601313 
L 156.20339 788.733514 
L 152.949153 789.420198 
L 150.951938 786.974658 
L 149.694915 786.040076 
L 147.748578 783.709203 
L 146.440678 782.407065 
L 144.569399 780.443748 
L 143.186441 778.973067 
L 139.932203 777.477123 
L 136.677966 777.731383 
L 135.699459 777.178293 
L 133.423729 775.947897 
L 130.169492 774.082272 
L 126.915254 775.252947 
L 123.661017 774.576971 
L 123.08582 773.912838 
L 120.40678 770.995369 
L 120.103133 770.647383 
L 117.274868 767.381928 
L 117.152542 767.252128 
L 114.456334 764.116473 
L 113.898305 763.527312 
L 110.644068 761.362312 
L 107.389831 760.946283 
L 107.144637 760.851017 
L 104.135593 759.433516 
L 100.881356 758.828159 
L 98.262905 760.851017 
L 97.627119 761.480169 
L 97.031127 760.851017 
L 94.372881 759.564588 
L 92.691994 757.585562 
L 91.118644 755.869703 
L 89.788004 754.320107 
L 87.864407 752.078661 
L 86.79103 751.054652 
L 84.610169 748.421327 
L 83.380803 747.789197 
L 81.355932 744.712093 
L 78.101695 744.892615 
L 77.339369 744.523742 
L 74.847458 742.499967 
L 71.59322 742.486652 
L 69.001568 744.523742 
L 68.338983 745.278272 
L 65.084746 745.19198 
L 64.298629 744.523742 
L 61.830508 741.906017 
L 61.233017 741.258287 
L 58.576271 738.119276 
L 58.383051 737.992832 
L 55.678295 734.727377 
L 55.322034 734.311678 
L 52.067797 731.557909 
L 51.992634 731.461922 
L 48.813559 729.032037 
L 48.005625 728.196467 
L 45.559322 726.202695 
L 43.330208 724.931012 
L 42.305085 723.874325 
L 39.050847 723.780011 
L 35.79661 724.271279 
L 32.542373 724.201924 
L 29.484312 721.665557 
L 29.288136 721.535067 
L 26.033898 718.944407 
L 25.087954 718.400102 
L 22.923685 716.857513 
M 8.417723 705.202763 
L 6.508475 705.297231 
L 6.234431 705.338282 
L 3.254237 705.769928 
L 1.062088 705.338282 
L 0 705.112619 
" clip-path="url(#p08755b8abc)" style="fill: none"/>
    <path d="M 184.575715 813.098298 
L 182.237288 810.373337 
L 181.461936 809.832843 
L 178.983051 806.593253 
L 178.832691 806.567388 
L 175.728814 805.839741 
L 172.474576 803.882329 
L 171.577822 803.301933 
L 169.220339 801.656375 
L 166.604486 800.036478 
L 165.966102 799.607482 
L 164.307326 800.036478 
L 162.711864 801.751462 
L 159.457627 800.918715 
L 158.613351 800.036478 
L 156.20339 797.46323 
L 155.601424 796.771023 
L 152.949153 793.721144 
L 152.721376 793.505568 
L 149.931227 790.240113 
L 149.694915 789.979058 
L 146.677531 786.974658 
L 146.440678 786.695998 
L 143.186441 786.85766 
L 139.932203 786.077009 
L 136.677966 784.461241 
L 133.423729 786.17739 
L 130.169492 785.258709 
L 128.417497 783.709203 
L 126.915254 782.490544 
L 124.90961 780.443748 
L 123.661017 779.027678 
L 122.003121 777.178293 
L 120.40678 775.341702 
L 117.996405 773.912838 
L 117.152542 772.786712 
L 113.898305 771.060819 
L 113.140473 770.647383 
L 110.644068 769.008758 
L 107.389831 768.036484 
L 104.135593 769.65074 
L 101.528819 770.647383 
L 100.881356 770.714686 
L 100.808048 770.647383 
L 97.627119 767.727017 
L 97.206121 767.381928 
L 94.372881 764.784341 
L 93.77045 764.116473 
L 91.118644 760.997558 
L 90.967305 760.851017 
L 87.864407 758.384018 
L 87.045124 757.585562 
L 84.610169 755.480553 
L 83.235175 754.320107 
L 81.355932 752.489918 
L 78.101695 751.076041 
L 74.847458 752.18756 
L 72.056209 754.320107 
L 71.59322 754.443279 
L 71.401759 754.320107 
L 68.338983 752.438049 
L 66.387791 751.19365 
M 52.950282 737.534736 
L 52.067797 736.555704 
L 49.779004 734.727377 
L 48.813559 733.610456 
L 45.559322 732.641177 
L 42.305085 732.968572 
L 39.050847 733.247283 
L 35.79661 733.13327 
L 32.542373 732.067616 
L 32.04321 731.461922 
L 29.305466 728.196467 
L 29.288136 728.182832 
L 26.586634 724.931012 
L 26.033898 724.425648 
L 23.645365 721.665557 
L 22.779661 720.864671 
L 20.589373 718.400102 
L 19.525424 717.202919 
L 16.721673 715.134647 
L 16.271186 714.593229 
L 13.016949 714.090958 
L 9.762712 714.357718 
L 6.508475 714.357073 
L 3.254237 714.263134 
L 0 712.313354 
" clip-path="url(#p08755b8abc)" style="fill: none"/>
    <path d="M 168.825878 813.098298 
L 166.185528 811.377408 
M 152.826945 797.596416 
L 150.918901 796.771023 
L 149.694915 795.726153 
L 146.440678 796.005792 
L 143.186441 794.895409 
L 139.932203 796.231311 
L 136.677966 795.025501 
L 134.969964 793.505568 
L 133.423729 792.182727 
L 131.25145 790.240113 
L 130.169492 789.272545 
L 127.599938 786.974658 
L 126.915254 786.362362 
L 123.821535 783.709203 
L 123.661017 783.54486 
L 120.40678 781.187822 
L 119.366114 780.443748 
L 117.152542 778.861046 
L 113.898305 777.236931 
L 110.644068 778.060683 
L 107.389831 780.076318 
L 104.135593 778.324237 
L 102.574601 777.178293 
L 100.881356 775.656197 
L 97.839718 773.912838 
L 97.627119 773.732409 
L 95.607925 770.647383 
L 94.372881 769.629944 
L 92.540693 767.381928 
L 91.118644 765.839405 
L 89.356665 764.116473 
L 87.864407 762.657283 
L 85.278813 760.851017 
L 84.610169 760.203794 
L 81.355932 760.379735 
L 80.622957 760.851017 
L 78.101695 762.274006 
L 74.847458 761.830151 
L 72.836554 760.851017 
L 71.59322 760.119906 
L 68.338983 758.54573 
L 67.596974 757.585562 
L 65.084746 754.712172 
L 64.773651 754.320107 
L 62.275578 751.054652 
L 61.830508 750.610946 
L 59.437217 747.789197 
L 58.576271 746.831932 
L 56.347675 744.523742 
L 55.322034 743.377281 
L 52.067797 741.54135 
L 48.813559 741.708751 
L 45.559322 741.955536 
L 42.305085 741.846404 
L 39.050847 741.821746 
L 38.626034 741.258287 
L 35.79661 738.818084 
L 35.116505 737.992832 
L 32.542373 734.869335 
L 32.401902 734.727377 
L 29.734262 731.461922 
L 29.288136 730.93179 
L 26.889234 728.196467 
L 26.033898 727.234022 
L 23.425138 724.931012 
L 22.779661 724.179664 
L 19.525424 722.999312 
L 16.271186 722.881837 
L 13.016949 722.813903 
L 9.762712 722.768538 
L 6.508475 722.295841 
L 5.96953 721.665557 
L 3.254237 718.768389 
L 2.914002 718.400102 
L 0.160033 715.134647 
L 0 715.009984 
M 179.180273 813.098298 
L 178.983051 812.985549 
L 175.728814 811.938099 
L 172.474576 812.49534 
L 171.462157 813.098298 
" clip-path="url(#p08755b8abc)" style="fill: none"/>
    <path d="M 162.820829 813.098298 
L 162.711864 812.980799 
L 159.457627 810.492993 
L 158.644679 809.832843 
L 156.20339 807.850405 
L 154.623407 806.567388 
L 152.949153 805.510773 
L 149.694915 805.426735 
L 146.440678 806.462569 
L 143.186441 805.534395 
L 140.044175 803.301933 
L 139.932203 803.210681 
L 136.677966 801.92288 
L 134.786535 800.036478 
L 133.423729 799.199639 
L 130.994353 796.771023 
L 130.169492 796.108427 
L 127.567741 793.505568 
L 126.915254 792.852803 
L 124.303677 790.240113 
L 123.661017 789.597179 
L 120.796068 786.974658 
L 120.40678 786.661272 
L 118.083717 786.974658 
L 117.152542 787.237824 
L 113.898305 788.58678 
L 110.644068 788.446173 
L 107.834149 786.974658 
L 107.389831 786.741519 
L 104.135593 786.357325 
L 102.531849 783.709203 
L 100.881356 782.519579 
L 99.176473 780.443748 
L 97.627119 778.418806 
L 96.229831 777.178293 
L 94.372881 774.347018 
L 93.915097 773.912838 
L 91.650929 770.647383 
L 91.118644 770.000924 
L 87.864407 768.971343 
L 84.610169 769.891021 
L 81.355932 770.496978 
L 78.101695 769.881939 
L 74.847458 769.660732 
L 73.46724 767.381928 
L 71.59322 766.15487 
L 69.75739 764.116473 
L 68.338983 762.264902 
L 66.763186 760.851017 
L 65.084746 758.312553 
L 64.300157 757.585562 
L 62.202584 754.320107 
L 61.830508 753.85119 
L 58.823624 751.054652 
L 58.576271 750.748686 
L 55.322034 750.542605 
L 52.067797 750.616037 
L 48.813559 750.46493 
L 46.826707 751.054652 
L 45.559322 751.475768 
L 45.312004 751.054652 
L 42.305085 749.291259 
L 42.105918 749.084113 
M 29.619585 734.714798 
L 29.288136 734.29498 
L 26.033898 731.847789 
L 22.779661 731.567727 
L 21.496106 731.461922 
L 19.525424 731.305595 
L 16.271186 730.935556 
L 14.959414 731.461922 
L 13.016949 731.849438 
L 12.620217 731.461922 
L 9.762712 729.141907 
L 8.692451 728.196467 
L 6.508475 725.434888 
L 5.904708 724.931012 
L 3.442186 721.665557 
L 3.254237 721.465019 
L 0.422767 718.400102 
L 0 717.906852 
" clip-path="url(#p08755b8abc)" style="fill: none"/>
    <path d="M 119.260667 813.098298 
L 117.152542 810.748997 
L 116.516624 809.832843 
L 114.525495 806.567388 
L 113.898305 805.895915 
L 112.259507 803.301933 
L 110.644068 802.013589 
L 107.389831 800.766578 
L 106.609815 800.036478 
L 104.135593 798.483768 
L 102.161068 796.771023 
L 101.558209 796.231972 
M 86.714224 784.25749 
L 86.053169 783.709203 
L 84.610169 782.512361 
L 81.355932 781.912392 
L 78.808971 780.443748 
L 78.101695 779.995546 
L 74.847458 778.633795 
L 72.44382 777.178293 
L 71.59322 776.710318 
L 68.338983 776.372263 
L 66.780863 773.912838 
L 65.084746 772.899258 
L 63.24067 770.647383 
L 61.830508 769.003179 
L 59.847518 767.381928 
L 58.576271 765.671429 
L 56.889984 764.116473 
L 55.322034 761.61522 
L 54.32444 760.851017 
L 52.067797 760.302433 
L 48.813559 760.431822 
L 45.559322 758.595786 
L 43.129835 757.585562 
L 42.305085 757.268905 
L 39.050847 754.771338 
L 35.79661 754.426778 
L 35.691092 754.320107 
L 33.158849 751.054652 
L 32.542373 750.74227 
L 30.157024 747.789197 
L 29.288136 746.983999 
L 27.201445 744.523742 
L 26.033898 743.147178 
L 24.059711 741.258287 
L 22.779661 740.099244 
L 19.525424 741.062778 
L 16.271186 740.443135 
L 13.157526 737.992832 
L 13.016949 737.773971 
L 9.762712 735.952254 
L 7.854854 734.727377 
L 6.508475 733.788603 
L 3.254237 732.124247 
L 2.714615 731.461922 
L 0 729.409683 
" clip-path="url(#p08755b8abc)" style="fill: none"/>
    <path d="M 57.442589 813.098298 
L 55.322034 812.478127 
L 53.407019 809.832843 
L 52.067797 808.906391 
L 50.106693 806.567388 
L 48.813559 804.384458 
L 47.962052 803.301933 
L 46.093849 800.036478 
L 45.559322 799.587807 
L 43.3442 796.771023 
L 42.305085 795.449667 
L 41.48712 794.474806 
M 29.608069 779.542758 
L 29.288136 779.02736 
L 26.033898 777.263311 
L 25.749158 777.178293 
L 22.779661 776.349742 
L 19.525424 775.096961 
L 16.271186 776.108505 
L 13.016949 773.932639 
L 13.000506 773.912838 
L 11.123721 770.647383 
L 9.762712 769.693868 
L 7.991938 767.381928 
L 6.508475 766.094745 
L 4.911312 764.116473 
L 3.254237 761.979285 
L 2.394427 760.851017 
L 0 757.708983 
" clip-path="url(#p08755b8abc)" style="fill: none"/>
    <path clip-path="url(#p08755b8abc)" style="fill: none"/>
    <path clip-path="url(#p08755b8abc)" style="fill: none"/>
    <path clip-path="url(#p08755b8abc)" style="fill: none"/>
    <path clip-path="url(#p08755b8abc)" style="fill: none"/>
    <path clip-path="url(#p08755b8abc)" style="fill: none"/>
    <path clip-path="url(#p08755b8abc)" style="fill: none"/>
    <path clip-path="url(#p08755b8abc)" style="fill: none"/>
    <path clip-path="url(#p08755b8abc)" style="fill: none"/>
    <path clip-path="url(#p08755b8abc)" style="fill: none"/>
    <path clip-path="url(#p08755b8abc)" style="fill: none"/>
    <path clip-path="url(#p08755b8abc)" style="fill: none"/>
    <path clip-path="url(#p08755b8abc)" style="fill: none"/>
    <path clip-path="url(#p08755b8abc)" style="fill: none"/>
    <path clip-path="url(#p08755b8abc)" style="fill: none"/>
    <path clip-path="url(#p08755b8abc)" style="fill: none"/>
    <path clip-path="url(#p08755b8abc)" style="fill: none"/>
    <path clip-path="url(#p08755b8abc)" style="fill: none"/>
    <path clip-path="url(#p08755b8abc)" style="fill: none"/>
    <path clip-path="url(#p08755b8abc)" style="fill: none"/>
    <path clip-path="url(#p08755b8abc)" style="fill: none"/>
    <path clip-path="url(#p08755b8abc)" style="fill: none"/>
    <path clip-path="url(#p08755b8abc)" style="fill: none"/>
    <path clip-path="url(#p08755b8abc)" style="fill: none"/>
    <path clip-path="url(#p08755b8abc)" style="fill: none"/>
    <path clip-path="url(#p08755b8abc)" style="fill: none"/>
    <path clip-path="url(#p08755b8abc)" style="fill: none"/>
    <path clip-path="url(#p08755b8abc)" style="fill: none"/>
    <path clip-path="url(#p08755b8abc)" style="fill: none"/>
    <path clip-path="url(#p08755b8abc)" style="fill: none"/>
    <path clip-path="url(#p08755b8abc)" style="fill: none"/>
    <path clip-path="url(#p08755b8abc)" style="fill: none"/>
    <path clip-path="url(#p08755b8abc)" style="fill: none"/>
   </g>
   <g id="text_1">
    <g clip-path="url(#p08755b8abc)">
     <!-- 0 -->
     <g style="opacity: 0" transform="translate(40.539587 716.355903) rotate(-312.436787) scale(0.12 -0.12)">
      <defs>
       <path id="DejaVuSans-30" d="M 2034 4250 
Q 1547 4250 1301 3770 
Q 1056 3291 1056 2328 
Q 1056 1369 1301 889 
Q 1547 409 2034 409 
Q 2525 409 2770 889 
Q 3016 1369 3016 2328 
Q 3016 3291 2770 3770 
Q 2525 4250 2034 4250 
z
M 2034 4750 
Q 2819 4750 3233 4129 
Q 3647 3509 3647 2328 
Q 3647 1150 3233 529 
Q 2819 -91 2034 -91 
Q 1250 -91 836 529 
Q 422 1150 422 2328 
Q 422 3509 836 4129 
Q 1250 4750 2034 4750 
z
" transform="scale(0.015625)"/>
      </defs>
      <use xlink:href="#DejaVuSans-30"/>
     </g>
    </g>
   </g>
   <g id="text_2">
    <g clip-path="url(#p08755b8abc)">
     <!-- 1 -->
     <g style="opacity: 0" transform="translate(11.220727 709.939558) rotate(-317.080196) scale(0.12 -0.12)">
      <defs>
       <path id="DejaVuSans-31" d="M 794 531 
L 1825 531 
L 1825 4091 
L 703 3866 
L 703 4441 
L 1819 4666 
L 2450 4666 
L 2450 531 
L 3481 531 
L 3481 0 
L 794 0 
L 794 531 
z
" transform="scale(0.015625)"/>
      </defs>
      <use xlink:href="#DejaVuSans-31"/>
     </g>
    </g>
   </g>
   <g id="text_3">
    <g clip-path="url(#p08755b8abc)">
     <!-- 2 -->
     <g style="opacity: 0" transform="translate(54.507554 743.979663) rotate(-312.881369) scale(0.12 -0.12)">
      <defs>
       <path id="DejaVuSans-32" d="M 1228 531 
L 3431 531 
L 3431 0 
L 469 0 
L 469 531 
Q 828 903 1448 1529 
Q 2069 2156 2228 2338 
Q 2531 2678 2651 2914 
Q 2772 3150 2772 3378 
Q 2772 3750 2511 3984 
Q 2250 4219 1831 4219 
Q 1534 4219 1204 4116 
Q 875 4013 500 3803 
L 500 4441 
Q 881 4594 1212 4672 
Q 1544 4750 1819 4750 
Q 2544 4750 2975 4387 
Q 3406 4025 3406 3419 
Q 3406 3131 3298 2873 
Q 3191 2616 2906 2266 
Q 2828 2175 2409 1742 
Q 1991 1309 1228 531 
z
" transform="scale(0.015625)"/>
      </defs>
      <use xlink:href="#DejaVuSans-32"/>
     </g>
    </g>
   </g>
   <g id="text_4">
    <g clip-path="url(#p08755b8abc)">
     <!-- 3 -->
     <g style="opacity: 0" transform="translate(154.422729 804.088651) rotate(-314.146826) scale(0.12 -0.12)">
      <defs>
       <path id="DejaVuSans-33" d="M 2597 2516 
Q 3050 2419 3304 2112 
Q 3559 1806 3559 1356 
Q 3559 666 3084 287 
Q 2609 -91 1734 -91 
Q 1441 -91 1130 -33 
Q 819 25 488 141 
L 488 750 
Q 750 597 1062 519 
Q 1375 441 1716 441 
Q 2309 441 2620 675 
Q 2931 909 2931 1356 
Q 2931 1769 2642 2001 
Q 2353 2234 1838 2234 
L 1294 2234 
L 1294 2753 
L 1863 2753 
Q 2328 2753 2575 2939 
Q 2822 3125 2822 3475 
Q 2822 3834 2567 4026 
Q 2313 4219 1838 4219 
Q 1578 4219 1281 4162 
Q 984 4106 628 3988 
L 628 4550 
Q 988 4650 1302 4700 
Q 1616 4750 1894 4750 
Q 2613 4750 3031 4423 
Q 3450 4097 3450 3541 
Q 3450 3153 3228 2886 
Q 3006 2619 2597 2516 
z
" transform="scale(0.015625)"/>
      </defs>
      <use xlink:href="#DejaVuSans-33"/>
     </g>
    </g>
   </g>
   <g id="text_5">
    <g clip-path="url(#p08755b8abc)">
     <!-- 4 -->
     <g style="opacity: 0" transform="translate(30.825143 741.042069) rotate(-308.725415) scale(0.12 -0.12)">
      <defs>
       <path id="DejaVuSans-34" d="M 2419 4116 
L 825 1625 
L 2419 1625 
L 2419 4116 
z
M 2253 4666 
L 3047 4666 
L 3047 1625 
L 3713 1625 
L 3713 1100 
L 3047 1100 
L 3047 0 
L 2419 0 
L 2419 1100 
L 313 1100 
L 313 1709 
L 2253 4666 
z
" transform="scale(0.015625)"/>
      </defs>
      <use xlink:href="#DejaVuSans-34"/>
     </g>
    </g>
   </g>
   <g id="text_6">
    <g clip-path="url(#p08755b8abc)">
     <!-- 5 -->
     <g style="opacity: 0" transform="translate(89.324692 790.177224) rotate(-321.684635) scale(0.12 -0.12)">
      <defs>
       <path id="DejaVuSans-35" d="M 691 4666 
L 3169 4666 
L 3169 4134 
L 1269 4134 
L 1269 2991 
Q 1406 3038 1543 3061 
Q 1681 3084 1819 3084 
Q 2600 3084 3056 2656 
Q 3513 2228 3513 1497 
Q 3513 744 3044 326 
Q 2575 -91 1722 -91 
Q 1428 -91 1123 -41 
Q 819 9 494 109 
L 494 744 
Q 775 591 1075 516 
Q 1375 441 1709 441 
Q 2250 441 2565 725 
Q 2881 1009 2881 1497 
Q 2881 1984 2565 2268 
Q 2250 2553 1709 2553 
Q 1456 2553 1204 2497 
Q 953 2441 691 2322 
L 691 4666 
z
" transform="scale(0.015625)"/>
      </defs>
      <use xlink:href="#DejaVuSans-35"/>
     </g>
    </g>
   </g>
   <g id="text_7">
    <g clip-path="url(#p08755b8abc)">
     <!-- 6 -->
     <g style="opacity: 0" transform="translate(30.625901 785.920444) rotate(-307.02107) scale(0.12 -0.12)">
      <defs>
       <path id="DejaVuSans-36" d="M 2113 2584 
Q 1688 2584 1439 2293 
Q 1191 2003 1191 1497 
Q 1191 994 1439 701 
Q 1688 409 2113 409 
Q 2538 409 2786 701 
Q 3034 994 3034 1497 
Q 3034 2003 2786 2293 
Q 2538 2584 2113 2584 
z
M 3366 4563 
L 3366 3988 
Q 3128 4100 2886 4159 
Q 2644 4219 2406 4219 
Q 1781 4219 1451 3797 
Q 1122 3375 1075 2522 
Q 1259 2794 1537 2939 
Q 1816 3084 2150 3084 
Q 2853 3084 3261 2657 
Q 3669 2231 3669 1497 
Q 3669 778 3244 343 
Q 2819 -91 2113 -91 
Q 1303 -91 875 529 
Q 447 1150 447 2328 
Q 447 3434 972 4092 
Q 1497 4750 2381 4750 
Q 2619 4750 2861 4703 
Q 3103 4656 3366 4563 
z
" transform="scale(0.015625)"/>
      </defs>
      <use xlink:href="#DejaVuSans-36"/>
     </g>
    </g>
   </g>
  </g>
 </g>
 <defs>
  <clipPath id="p08755b8abc">
   <rect x="0" y="0" width="576" height="813.098298"/>
  </clipPath>
 </defs>
</svg>
