<?xml version="1.0" encoding="utf-8" standalone="no"?>
<!DOCTYPE svg PUBLIC "-//W3C//DTD SVG 1.1//EN"
  "http://www.w3.org/Graphics/SVG/1.1/DTD/svg11.dtd">
<svg xmlns:xlink="http://www.w3.org/1999/xlink" width="576pt" height="819.681392pt" viewBox="0 0 576 819.681392" xmlns="http://www.w3.org/2000/svg" version="1.1">
 <metadata>
  <rdf:RDF xmlns:dc="http://purl.org/dc/elements/1.1/" xmlns:cc="http://creativecommons.org/ns#" xmlns:rdf="http://www.w3.org/1999/02/22-rdf-syntax-ns#">
   <cc:Work>
    <dc:type rdf:resource="http://purl.org/dc/dcmitype/StillImage"/>
    <dc:date>2025-07-25T22:45:54.723200</dc:date>
    <dc:format>image/svg+xml</dc:format>
    <dc:creator>
     <cc:Agent>
      <dc:title>Matplotlib v3.10.3, https://matplotlib.org/</dc:title>
     </cc:Agent>
    </dc:creator>
   </cc:Work>
  </rdf:RDF>
 </metadata>
 <defs>
  <style type="text/css">*{stroke-linejoin: round; stroke-linecap: butt}</style>
 </defs>
 <g id="figure_1">
  <g id="patch_1">
   <path d="M 0 819.681392 
L 576 819.681392 
L 576 0 
L 0 0 
L 0 819.681392 
z
" style="fill: none; opacity: 0"/>
  </g>
  <g id="axes_1">
   <g id="QuadContourSet_1">
    <path d="M 3.291429 819.681392 
L 6.582857 819.681392 
L 9.874286 819.681392 
L 13.165714 819.681392 
L 16.457143 819.681392 
L 19.748571 819.681392 
L 23.04 819.681392 
L 26.331429 819.681392 
L 29.622857 819.681392 
L 32.914286 819.681392 
L 36.205714 819.681392 
L 39.497143 819.681392 
L 42.788571 819.681392 
L 46.08 819.681392 
L 49.371429 819.681392 
L 52.662857 819.681392 
L 55.954286 819.681392 
L 59.245714 819.681392 
L 62.537143 819.681392 
L 65.828571 819.681392 
L 69.12 819.681392 
L 72.411429 819.681392 
L 75.702857 819.681392 
L 78.994286 819.681392 
L 82.285714 819.681392 
L 85.577143 819.681392 
L 88.868571 819.681392 
L 92.16 819.681392 
L 95.451429 819.681392 
L 98.742857 819.681392 
L 102.034286 819.681392 
L 105.325714 819.681392 
L 108.617143 819.681392 
L 111.908571 819.681392 
L 115.2 819.681392 
L 118.491429 819.681392 
L 121.782857 819.681392 
L 125.074286 819.681392 
L 128.365714 819.681392 
L 131.657143 819.681392 
L 134.948571 819.681392 
L 138.24 819.681392 
L 141.531429 819.681392 
L 144.822857 819.681392 
L 148.114286 819.681392 
L 151.405714 819.681392 
L 154.697143 819.681392 
L 157.988571 819.681392 
L 161.28 819.681392 
L 164.571429 819.681392 
L 167.862857 819.681392 
L 171.154286 819.681392 
L 174.445714 819.681392 
L 177.737143 819.681392 
L 181.028571 819.681392 
L 184.32 819.681392 
L 187.611429 819.681392 
L 190.902857 819.681392 
L 194.194286 819.681392 
L 197.485714 819.681392 
L 200.777143 819.681392 
L 204.068571 819.681392 
L 207.36 819.681392 
L 210.651429 819.681392 
L 213.942857 819.681392 
L 217.234286 819.681392 
L 220.525714 819.681392 
L 223.817143 819.681392 
L 227.108571 819.681392 
L 230.4 819.681392 
L 233.691429 819.681392 
L 236.982857 819.681392 
L 240.274286 819.681392 
L 243.565714 819.681392 
L 246.857143 819.681392 
L 250.148571 819.681392 
L 253.44 819.681392 
L 256.731429 819.681392 
L 260.022857 819.681392 
L 263.314286 819.681392 
L 266.605714 819.681392 
L 269.897143 819.681392 
L 273.188571 819.681392 
L 276.48 819.681392 
L 279.771429 819.681392 
L 283.062857 819.681392 
L 286.354286 819.681392 
L 289.645714 819.681392 
L 292.937143 819.681392 
L 296.228571 819.681392 
L 299.52 819.681392 
L 302.811429 819.681392 
L 306.102857 819.681392 
L 309.394286 819.681392 
L 312.685714 819.681392 
L 315.977143 819.681392 
L 319.268571 819.681392 
L 322.56 819.681392 
L 325.851429 819.681392 
L 329.142857 819.681392 
L 332.434286 819.681392 
L 335.725714 819.681392 
L 339.017143 819.681392 
L 342.308571 819.681392 
L 345.6 819.681392 
L 348.891429 819.681392 
L 352.182857 819.681392 
L 355.474286 819.681392 
L 358.765714 819.681392 
L 362.057143 819.681392 
L 365.348571 819.681392 
L 368.64 819.681392 
L 371.931429 819.681392 
L 375.222857 819.681392 
L 378.514286 819.681392 
L 381.805714 819.681392 
L 385.097143 819.681392 
L 388.388571 819.681392 
L 391.68 819.681392 
L 394.971429 819.681392 
L 398.262857 819.681392 
L 401.554286 819.681392 
L 404.845714 819.681392 
L 408.137143 819.681392 
L 411.428571 819.681392 
L 414.72 819.681392 
L 418.011429 819.681392 
L 421.302857 819.681392 
L 424.594286 819.681392 
L 427.885714 819.681392 
L 431.177143 819.681392 
L 434.468571 819.681392 
L 437.76 819.681392 
L 441.051429 819.681392 
L 444.342857 819.681392 
L 447.634286 819.681392 
L 450.925714 819.681392 
L 454.217143 819.681392 
L 457.508571 819.681392 
L 460.8 819.681392 
L 464.091429 819.681392 
L 467.382857 819.681392 
L 470.674286 819.681392 
L 473.965714 819.681392 
L 477.257143 819.681392 
L 480.548571 819.681392 
L 483.84 819.681392 
L 487.131429 819.681392 
L 490.422857 819.681392 
L 493.714286 819.681392 
L 497.005714 819.681392 
L 500.297143 819.681392 
L 503.588571 819.681392 
L 506.88 819.681392 
L 510.171429 819.681392 
L 513.462857 819.681392 
L 516.754286 819.681392 
L 520.045714 819.681392 
L 523.337143 819.681392 
L 526.628571 819.681392 
L 529.92 819.681392 
L 533.211429 819.681392 
L 536.502857 819.681392 
L 539.794286 819.681392 
L 543.085714 819.681392 
L 546.377143 819.681392 
L 549.668571 819.681392 
L 552.96 819.681392 
L 556.251429 819.681392 
L 559.542857 819.681392 
L 562.834286 819.681392 
L 566.125714 819.681392 
L 569.417143 819.681392 
L 572.708571 819.681392 
L 576 819.681392 
L 576 816.389499 
L 576 813.097606 
L 576 809.805713 
L 576 806.51382 
L 576 803.221927 
L 576 799.930033 
L 576 796.63814 
L 576 793.346247 
L 576 790.054354 
L 576 786.762461 
L 576 783.470568 
L 576 780.178675 
L 576 776.886781 
L 576 773.594888 
L 576 770.302995 
L 576 767.011102 
L 576 763.719209 
L 576 760.427316 
L 576 757.135423 
L 576 753.843529 
L 576 750.551636 
L 576 747.259743 
L 576 743.96785 
L 576 740.675957 
L 576 737.384064 
L 576 734.092171 
L 576 730.800277 
L 576 727.508384 
L 576 724.216491 
L 576 720.924598 
L 576 717.632705 
L 576 714.340812 
L 576 711.048919 
L 576 707.757025 
L 576 704.465132 
L 576 701.173239 
L 576 697.881346 
L 576 694.589453 
L 576 691.29756 
L 576 688.005667 
L 576 684.713773 
L 576 681.42188 
L 576 678.129987 
L 576 674.838094 
L 576 671.546201 
L 576 668.254308 
L 576 664.962415 
L 576 661.670522 
L 576 658.378628 
L 576 655.086735 
L 576 651.794842 
L 576 648.502949 
L 576 645.211056 
L 576 641.919163 
L 576 638.62727 
L 576 635.335376 
L 576 632.043483 
L 576 628.75159 
L 576 625.459697 
L 576 622.167804 
L 576 618.875911 
L 576 615.584018 
L 576 612.292124 
L 576 609.000231 
L 576 605.708338 
L 576 602.416445 
L 576 599.124552 
L 576 595.832659 
L 576 592.540766 
L 576 589.248872 
L 576 585.956979 
L 576 582.665086 
L 576 579.373193 
L 576 576.0813 
L 576 572.789407 
L 576 569.497514 
L 576 566.20562 
L 576 562.913727 
L 576 559.621834 
L 576 556.329941 
L 576 553.038048 
L 576 549.746155 
L 576 546.454262 
L 576 543.162368 
L 576 539.870475 
L 576 536.578582 
L 576 533.286689 
L 576 529.994796 
L 576 526.702903 
L 576 523.41101 
L 576 520.119116 
L 576 516.827223 
L 576 513.53533 
L 576 510.243437 
L 576 506.951544 
L 576 503.659651 
L 576 500.367758 
L 576 497.075864 
L 576 493.783971 
L 576 490.492078 
L 576 487.200185 
L 576 483.908292 
L 576 480.616399 
L 576 477.324506 
L 576 474.032612 
L 576 470.740719 
L 576 467.448826 
L 576 464.156933 
L 576 460.86504 
L 576 457.573147 
L 576 454.281254 
L 576 450.98936 
L 576 447.697467 
L 576 444.405574 
L 576 441.113681 
L 576 437.821788 
L 576 434.529895 
L 576 431.238002 
L 576 427.946108 
L 576 424.654215 
L 576 421.362322 
L 576 418.070429 
L 576 414.778536 
L 576 411.486643 
L 576 408.19475 
L 576 404.902856 
L 576 401.610963 
L 576 398.31907 
L 576 395.027177 
L 576 391.735284 
L 576 388.443391 
L 576 385.151498 
L 576 381.859604 
L 576 378.567711 
L 576 375.275818 
L 576 371.983925 
L 576 368.692032 
L 576 365.400139 
L 576 362.108246 
L 576 358.816352 
L 576 355.524459 
L 576 352.232566 
L 576 348.940673 
L 576 345.64878 
L 576 342.356887 
L 576 339.064994 
L 576 335.7731 
L 576 332.481207 
L 576 329.189314 
L 576 325.897421 
L 576 322.605528 
L 576 319.313635 
L 576 316.021742 
L 576 312.729848 
L 576 309.437955 
L 576 306.146062 
L 576 302.854169 
L 576 299.562276 
L 576 296.270383 
L 576 292.97849 
L 576 289.686596 
L 576 286.394703 
L 576 283.10281 
L 576 279.810917 
L 576 276.519024 
L 576 273.227131 
L 576 269.935238 
L 576 266.643344 
L 576 263.351451 
L 576 260.059558 
L 576 256.767665 
L 576 253.475772 
L 576 250.183879 
L 576 246.891986 
L 576 243.600092 
L 576 240.308199 
L 576 237.016306 
L 576 233.724413 
L 576 230.43252 
L 576 227.140627 
L 576 223.848734 
L 576 220.556841 
L 576 217.264947 
L 576 213.973054 
L 576 210.681161 
L 576 207.389268 
L 576 204.097375 
L 576 200.805482 
L 576 197.513589 
L 576 194.221695 
L 576 190.929802 
L 576 187.637909 
L 576 184.346016 
L 576 181.054123 
L 576 177.76223 
L 576 174.470337 
L 576 171.178443 
L 576 167.88655 
L 576 164.594657 
L 576 161.302764 
L 576 158.010871 
L 576 154.718978 
L 576 151.427085 
L 576 148.135191 
L 576 144.843298 
L 576 141.551405 
L 576 138.259512 
L 576 134.967619 
L 576 131.675726 
L 576 128.383833 
L 576 125.091939 
L 576 121.800046 
L 576 118.508153 
L 576 115.21626 
L 576 111.924367 
L 576 108.632474 
L 576 105.340581 
L 576 102.048687 
L 576 98.756794 
L 576 95.464901 
L 576 92.173008 
L 576 88.881115 
L 576 85.589222 
L 576 82.297329 
L 576 79.005435 
L 576 75.713542 
L 576 72.421649 
L 576 69.129756 
L 576 65.837863 
L 576 62.54597 
L 576 59.254077 
L 576 55.962183 
L 576 52.67029 
L 576 49.378397 
L 576 46.086504 
L 576 42.794611 
L 576 39.502718 
L 576 36.210825 
L 576 32.918931 
L 576 29.627038 
L 576 26.335145 
L 576 23.043252 
L 576 19.751359 
L 576 16.459466 
L 576 13.167573 
L 576 9.875679 
L 576 6.583786 
L 576 3.291893 
L 576 0 
L 572.708571 0 
L 569.417143 0 
L 566.125714 0 
L 562.834286 0 
L 559.542857 0 
L 556.251429 0 
L 552.96 0 
L 549.668571 0 
L 546.377143 0 
L 543.085714 0 
L 539.794286 0 
L 536.502857 0 
L 533.211429 0 
L 529.92 0 
L 526.628571 0 
L 523.337143 0 
L 520.045714 0 
L 516.754286 0 
L 513.462857 0 
L 510.171429 0 
L 506.88 0 
L 503.588571 0 
L 500.297143 0 
L 497.005714 0 
L 493.714286 0 
L 490.422857 0 
L 487.131429 0 
L 483.84 0 
L 480.548571 0 
L 477.257143 0 
L 473.965714 0 
L 470.674286 0 
L 467.382857 0 
L 464.091429 0 
L 460.8 0 
L 457.508571 0 
L 454.217143 0 
L 450.925714 0 
L 447.634286 0 
L 444.342857 0 
L 441.051429 0 
L 437.76 0 
L 434.468571 0 
L 431.177143 0 
L 427.885714 0 
L 424.594286 0 
L 421.302857 0 
L 418.011429 0 
L 414.72 0 
L 411.428571 0 
L 408.137143 0 
L 404.845714 0 
L 401.554286 0 
L 398.262857 0 
L 394.971429 0 
L 391.68 0 
L 388.388571 0 
L 385.097143 0 
L 381.805714 0 
L 378.514286 0 
L 375.222857 0 
L 371.931429 0 
L 368.64 0 
L 365.348571 0 
L 362.057143 0 
L 358.765714 0 
L 355.474286 0 
L 352.182857 0 
L 348.891429 0 
L 345.6 0 
L 342.308571 0 
L 339.017143 0 
L 335.725714 0 
L 332.434286 0 
L 329.142857 0 
L 325.851429 0 
L 322.56 0 
L 319.268571 0 
L 315.977143 0 
L 312.685714 0 
L 309.394286 0 
L 306.102857 0 
L 302.811429 0 
L 299.52 0 
L 296.228571 0 
L 292.937143 0 
L 289.645714 0 
L 286.354286 0 
L 283.062857 0 
L 279.771429 0 
L 276.48 0 
L 273.188571 0 
L 269.897143 0 
L 266.605714 0 
L 263.314286 0 
L 260.022857 0 
L 256.731429 0 
L 253.44 0 
L 250.148571 0 
L 246.857143 0 
L 243.565714 0 
L 240.274286 0 
L 236.982857 0 
L 233.691429 0 
L 230.4 0 
L 227.108571 0 
L 223.817143 0 
L 220.525714 0 
L 217.234286 0 
L 213.942857 0 
L 210.651429 0 
L 207.36 0 
L 204.068571 0 
L 200.777143 0 
L 197.485714 0 
L 194.194286 0 
L 190.902857 0 
L 187.611429 0 
L 184.32 0 
L 181.028571 0 
L 177.737143 0 
L 174.445714 0 
L 171.154286 0 
L 167.862857 0 
L 164.571429 0 
L 161.28 0 
L 157.988571 0 
L 154.697143 0 
L 151.405714 0 
L 148.114286 0 
L 144.822857 0 
L 141.531429 0 
L 138.24 0 
L 134.948571 0 
L 131.657143 0 
L 128.365714 0 
L 125.074286 0 
L 121.782857 0 
L 118.491429 0 
L 115.2 0 
L 111.908571 0 
L 108.617143 0 
L 105.325714 0 
L 102.034286 0 
L 98.742857 0 
L 95.451429 0 
L 92.16 0 
L 88.868571 0 
L 85.577143 0 
L 82.285714 0 
L 78.994286 0 
L 75.702857 0 
L 72.411429 0 
L 69.12 0 
L 65.828571 0 
L 62.537143 0 
L 59.245714 0 
L 55.954286 0 
L 52.662857 0 
L 49.371429 0 
L 46.08 0 
L 42.788571 0 
L 39.497143 0 
L 36.205714 0 
L 32.914286 0 
L 29.622857 0 
L 26.331429 0 
L 23.04 0 
L 19.748571 0 
L 16.457143 0 
L 13.165714 0 
L 9.874286 0 
L 6.582857 0 
L 3.291429 0 
L -0 0 
L -0 3.291893 
L -0 6.583786 
L -0 9.875679 
L -0 13.167573 
L -0 16.459466 
L -0 19.751359 
L -0 23.043252 
L -0 26.335145 
L -0 29.627038 
L -0 32.918931 
L -0 36.210825 
L -0 39.502718 
L -0 42.794611 
L -0 46.086504 
L -0 49.378397 
L -0 52.67029 
L -0 55.962183 
L -0 59.254077 
L -0 62.54597 
L -0 65.837863 
L -0 69.129756 
L -0 72.421649 
L -0 75.713542 
L -0 79.005435 
L -0 82.297329 
L -0 85.589222 
L -0 88.881115 
L -0 92.173008 
L -0 95.464901 
L -0 98.756794 
L -0 102.048687 
L -0 105.340581 
L -0 108.632474 
L -0 111.924367 
L -0 115.21626 
L -0 118.508153 
L -0 121.800046 
L -0 125.091939 
L -0 128.383833 
L -0 131.675726 
L -0 134.967619 
L -0 138.259512 
L -0 141.551405 
L -0 144.843298 
L -0 148.135191 
L -0 151.427085 
L -0 154.718978 
L -0 158.010871 
L -0 161.302764 
L -0 164.594657 
L -0 167.88655 
L -0 171.178443 
L -0 174.470337 
L -0 177.76223 
L -0 181.054123 
L -0 184.346016 
L -0 187.637909 
L -0 190.929802 
L -0 194.221695 
L -0 197.513589 
L -0 200.805482 
L -0 204.097375 
L -0 207.389268 
L -0 210.681161 
L -0 213.973054 
L -0 217.264947 
L -0 220.556841 
L -0 223.848734 
L -0 227.140627 
L -0 230.43252 
L -0 233.724413 
L -0 237.016306 
L -0 240.308199 
L -0 243.600092 
L -0 246.891986 
L -0 250.183879 
L -0 253.475772 
L -0 256.767665 
L -0 260.059558 
L -0 263.351451 
L -0 266.643344 
L -0 269.935238 
L -0 273.227131 
L -0 276.519024 
L -0 279.810917 
L -0 283.10281 
L -0 286.394703 
L -0 289.686596 
L -0 292.97849 
L -0 296.270383 
L -0 299.562276 
L -0 302.854169 
L -0 306.146062 
L -0 309.437955 
L -0 312.729848 
L -0 316.021742 
L -0 319.313635 
L -0 322.605528 
L -0 325.897421 
L -0 329.189314 
L -0 332.481207 
L -0 335.7731 
L -0 339.064994 
L -0 342.356887 
L -0 345.64878 
L -0 348.940673 
L -0 352.232566 
L -0 355.524459 
L -0 358.816352 
L -0 362.108246 
L -0 365.400139 
L -0 368.692032 
L -0 371.983925 
L -0 375.275818 
L -0 378.567711 
L -0 381.859604 
L -0 385.151498 
L -0 388.443391 
L -0 391.735284 
L -0 395.027177 
L -0 398.31907 
L -0 401.610963 
L -0 404.902856 
L -0 408.19475 
L -0 411.486643 
L -0 414.778536 
L -0 418.070429 
L -0 421.362322 
L -0 424.654215 
L -0 427.946108 
L -0 431.238002 
L -0 434.529895 
L -0 437.821788 
L -0 441.113681 
L -0 444.405574 
L -0 447.697467 
L -0 450.98936 
L -0 454.281254 
L -0 457.573147 
L -0 460.86504 
L -0 464.156933 
L -0 467.448826 
L -0 470.740719 
L -0 474.032612 
L -0 477.324506 
L -0 480.616399 
L -0 483.908292 
L -0 487.200185 
L -0 490.492078 
L -0 493.783971 
L -0 497.075864 
L -0 500.367758 
L -0 503.659651 
L -0 506.951544 
L -0 510.243437 
L -0 513.53533 
L -0 516.827223 
L -0 520.119116 
L -0 523.41101 
L -0 526.702903 
L -0 529.994796 
L -0 533.286689 
L -0 536.578582 
L -0 539.870475 
L -0 543.162368 
L -0 546.454262 
L -0 549.746155 
L -0 553.038048 
L -0 556.329941 
L -0 559.621834 
L -0 562.913727 
L -0 566.20562 
L -0 569.497514 
L -0 572.789407 
L -0 576.0813 
L -0 579.373193 
L -0 582.665086 
L -0 585.956979 
L -0 589.248872 
L -0 592.540766 
L -0 595.832659 
L -0 599.124552 
L -0 602.416445 
L -0 605.708338 
L -0 609.000231 
L -0 612.292124 
L -0 615.584018 
L -0 618.875911 
L -0 622.167804 
L -0 625.459697 
L -0 628.75159 
L -0 632.043483 
L -0 635.335376 
L -0 638.62727 
L -0 641.919163 
L -0 645.211056 
L -0 648.502949 
L -0 651.794842 
L -0 655.086735 
L -0 658.378628 
L -0 661.670522 
L -0 664.962415 
L -0 668.254308 
L -0 671.546201 
L -0 674.838094 
L -0 678.129987 
L -0 681.42188 
L -0 684.713773 
L -0 688.005667 
L -0 691.29756 
L -0 694.589453 
L -0 697.881346 
L -0 701.173239 
L -0 704.465132 
L -0 707.757025 
L -0 711.048919 
L -0 714.340812 
L -0 717.632705 
L -0 720.924598 
L -0 724.216491 
L -0 727.508384 
L -0 730.800277 
L -0 734.092171 
L -0 737.384064 
L -0 740.675957 
L -0 743.96785 
L -0 747.259743 
L -0 750.551636 
L -0 753.843529 
L -0 757.135423 
L -0 760.427316 
L -0 763.719209 
L -0 767.011102 
L -0 770.302995 
L -0 773.594888 
L -0 776.886781 
L -0 780.178675 
L -0 783.470568 
L -0 786.762461 
L -0 790.054354 
L -0 793.346247 
L -0 796.63814 
L -0 799.930033 
L -0 803.221927 
L -0 806.51382 
L -0 809.805713 
L -0 813.097606 
L -0 816.389499 
L -0 819.681392 
z
" clip-path="url(#pcf06cc427b)" style="fill: #f5f9fe; fill-opacity: 0.9"/>
    <path clip-path="url(#pcf06cc427b)" style="fill: #eff6fc; fill-opacity: 0.9"/>
    <path clip-path="url(#pcf06cc427b)" style="fill: #eaf3fb; fill-opacity: 0.9"/>
    <path clip-path="url(#pcf06cc427b)" style="fill: #e5eff9; fill-opacity: 0.9"/>
    <path clip-path="url(#pcf06cc427b)" style="fill: #dfecf7; fill-opacity: 0.9"/>
    <path clip-path="url(#pcf06cc427b)" style="fill: #dae8f6; fill-opacity: 0.9"/>
    <path clip-path="url(#pcf06cc427b)" style="fill: #d6e5f4; fill-opacity: 0.9"/>
    <path clip-path="url(#pcf06cc427b)" style="fill: #d0e2f2; fill-opacity: 0.9"/>
    <path clip-path="url(#pcf06cc427b)" style="fill: #cbdef1; fill-opacity: 0.9"/>
    <path clip-path="url(#pcf06cc427b)" style="fill: #c6dbef; fill-opacity: 0.9"/>
    <path clip-path="url(#pcf06cc427b)" style="fill: #bed8ec; fill-opacity: 0.9"/>
    <path clip-path="url(#pcf06cc427b)" style="fill: #b5d4e9; fill-opacity: 0.9"/>
    <path clip-path="url(#pcf06cc427b)" style="fill: #add0e6; fill-opacity: 0.9"/>
    <path clip-path="url(#pcf06cc427b)" style="fill: #a5cde3; fill-opacity: 0.9"/>
    <path clip-path="url(#pcf06cc427b)" style="fill: #9cc9e1; fill-opacity: 0.9"/>
    <path clip-path="url(#pcf06cc427b)" style="fill: #91c3de; fill-opacity: 0.9"/>
    <path clip-path="url(#pcf06cc427b)" style="fill: #85bcdc; fill-opacity: 0.9"/>
    <path clip-path="url(#pcf06cc427b)" style="fill: #7cb7da; fill-opacity: 0.9"/>
    <path clip-path="url(#pcf06cc427b)" style="fill: #71b1d7; fill-opacity: 0.9"/>
    <path clip-path="url(#pcf06cc427b)" style="fill: #66abd4; fill-opacity: 0.9"/>
    <path clip-path="url(#pcf06cc427b)" style="fill: #5da5d1; fill-opacity: 0.9"/>
    <path clip-path="url(#pcf06cc427b)" style="fill: #56a0ce; fill-opacity: 0.9"/>
    <path clip-path="url(#pcf06cc427b)" style="fill: #4d99ca; fill-opacity: 0.9"/>
    <path clip-path="url(#pcf06cc427b)" style="fill: #4493c7; fill-opacity: 0.9"/>
    <path clip-path="url(#pcf06cc427b)" style="fill: #3c8cc3; fill-opacity: 0.9"/>
    <path clip-path="url(#pcf06cc427b)" style="fill: #3686c0; fill-opacity: 0.9"/>
    <path clip-path="url(#pcf06cc427b)" style="fill: #2f7fbc; fill-opacity: 0.9"/>
    <path clip-path="url(#pcf06cc427b)" style="fill: #2777b8; fill-opacity: 0.9"/>
    <path clip-path="url(#pcf06cc427b)" style="fill: #2070b4; fill-opacity: 0.9"/>
    <path clip-path="url(#pcf06cc427b)" style="fill: #1c6ab0; fill-opacity: 0.9"/>
    <path clip-path="url(#pcf06cc427b)" style="fill: #1663aa; fill-opacity: 0.9"/>
    <path clip-path="url(#pcf06cc427b)" style="fill: #115ca5; fill-opacity: 0.9"/>
    <path clip-path="url(#pcf06cc427b)" style="fill: #0c56a0; fill-opacity: 0.9"/>
    <path clip-path="url(#pcf06cc427b)" style="fill: #084f99; fill-opacity: 0.9"/>
    <path clip-path="url(#pcf06cc427b)" style="fill: #08488e; fill-opacity: 0.9"/>
    <path clip-path="url(#pcf06cc427b)" style="fill: #084184; fill-opacity: 0.9"/>
    <path clip-path="url(#pcf06cc427b)" style="fill: #083a7a; fill-opacity: 0.9"/>
    <path clip-path="url(#pcf06cc427b)" style="fill: #083370; fill-opacity: 0.9"/>
    <path clip-path="url(#pcf06cc427b)" style="fill: #08306b; fill-opacity: 0.9"/>
   </g>
   <g id="QuadContourSet_2">
    <path clip-path="url(#pcf06cc427b)" style="fill: none"/>
    <path clip-path="url(#pcf06cc427b)" style="fill: none"/>
    <path clip-path="url(#pcf06cc427b)" style="fill: none"/>
    <path clip-path="url(#pcf06cc427b)" style="fill: none"/>
    <path clip-path="url(#pcf06cc427b)" style="fill: none"/>
    <path clip-path="url(#pcf06cc427b)" style="fill: none"/>
    <path clip-path="url(#pcf06cc427b)" style="fill: none"/>
    <path clip-path="url(#pcf06cc427b)" style="fill: none"/>
    <path clip-path="url(#pcf06cc427b)" style="fill: none"/>
    <path clip-path="url(#pcf06cc427b)" style="fill: none"/>
    <path clip-path="url(#pcf06cc427b)" style="fill: none"/>
    <path clip-path="url(#pcf06cc427b)" style="fill: none"/>
    <path clip-path="url(#pcf06cc427b)" style="fill: none"/>
    <path clip-path="url(#pcf06cc427b)" style="fill: none"/>
    <path clip-path="url(#pcf06cc427b)" style="fill: none"/>
    <path clip-path="url(#pcf06cc427b)" style="fill: none"/>
    <path clip-path="url(#pcf06cc427b)" style="fill: none"/>
    <path clip-path="url(#pcf06cc427b)" style="fill: none"/>
    <path clip-path="url(#pcf06cc427b)" style="fill: none"/>
    <path clip-path="url(#pcf06cc427b)" style="fill: none"/>
    <path clip-path="url(#pcf06cc427b)" style="fill: none"/>
    <path clip-path="url(#pcf06cc427b)" style="fill: none"/>
    <path clip-path="url(#pcf06cc427b)" style="fill: none"/>
    <path clip-path="url(#pcf06cc427b)" style="fill: none"/>
    <path clip-path="url(#pcf06cc427b)" style="fill: none"/>
    <path clip-path="url(#pcf06cc427b)" style="fill: none"/>
    <path clip-path="url(#pcf06cc427b)" style="fill: none"/>
    <path clip-path="url(#pcf06cc427b)" style="fill: none"/>
    <path clip-path="url(#pcf06cc427b)" style="fill: none"/>
    <path clip-path="url(#pcf06cc427b)" style="fill: none"/>
    <path clip-path="url(#pcf06cc427b)" style="fill: none"/>
    <path clip-path="url(#pcf06cc427b)" style="fill: none"/>
    <path clip-path="url(#pcf06cc427b)" style="fill: none"/>
    <path clip-path="url(#pcf06cc427b)" style="fill: none"/>
    <path clip-path="url(#pcf06cc427b)" style="fill: none"/>
    <path clip-path="url(#pcf06cc427b)" style="fill: none"/>
    <path clip-path="url(#pcf06cc427b)" style="fill: none"/>
    <path clip-path="url(#pcf06cc427b)" style="fill: none"/>
    <path clip-path="url(#pcf06cc427b)" style="fill: none"/>
   </g>
  </g>
 </g>
 <defs>
  <clipPath id="pcf06cc427b">
   <rect x="0" y="0" width="576" height="819.681392"/>
  </clipPath>
 </defs>
</svg>
