<?xml version="1.0" encoding="utf-8" standalone="no"?>
<!DOCTYPE svg PUBLIC "-//W3C//DTD SVG 1.1//EN"
  "http://www.w3.org/Graphics/SVG/1.1/DTD/svg11.dtd">
<svg xmlns:xlink="http://www.w3.org/1999/xlink" width="576pt" height="814.231814pt" viewBox="0 0 576 814.231814" xmlns="http://www.w3.org/2000/svg" version="1.1">
 <metadata>
  <rdf:RDF xmlns:dc="http://purl.org/dc/elements/1.1/" xmlns:cc="http://creativecommons.org/ns#" xmlns:rdf="http://www.w3.org/1999/02/22-rdf-syntax-ns#">
   <cc:Work>
    <dc:type rdf:resource="http://purl.org/dc/dcmitype/StillImage"/>
    <dc:date>2025-07-25T22:45:14.320910</dc:date>
    <dc:format>image/svg+xml</dc:format>
    <dc:creator>
     <cc:Agent>
      <dc:title>Matplotlib v3.10.3, https://matplotlib.org/</dc:title>
     </cc:Agent>
    </dc:creator>
   </cc:Work>
  </rdf:RDF>
 </metadata>
 <defs>
  <style type="text/css">*{stroke-linejoin: round; stroke-linecap: butt}</style>
 </defs>
 <g id="figure_1">
  <g id="patch_1">
   <path d="M 0 814.231814 
L 576 814.231814 
L 576 0 
L 0 0 
L 0 814.231814 
z
" style="fill: none; opacity: 0"/>
  </g>
  <g id="axes_1">
   <g id="QuadContourSet_1">
    <path d="M 3.272727 814.231814 
L 6.545455 814.231814 
L 9.818182 814.231814 
L 13.090909 814.231814 
L 16.363636 814.231814 
L 19.636364 814.231814 
L 22.909091 814.231814 
L 26.181818 814.231814 
L 29.454545 814.231814 
L 32.727273 814.231814 
L 36 814.231814 
L 39.272727 814.231814 
L 42.545455 814.231814 
L 45.818182 814.231814 
L 49.090909 814.231814 
L 52.363636 814.231814 
L 55.636364 814.231814 
L 58.909091 814.231814 
L 62.181818 814.231814 
L 65.454545 814.231814 
L 68.727273 814.231814 
L 72 814.231814 
L 75.272727 814.231814 
L 78.545455 814.231814 
L 81.818182 814.231814 
L 85.090909 814.231814 
L 88.363636 814.231814 
L 91.636364 814.231814 
L 94.909091 814.231814 
L 98.181818 814.231814 
L 101.454545 814.231814 
L 104.727273 814.231814 
L 108 814.231814 
L 111.272727 814.231814 
L 114.545455 814.231814 
L 117.818182 814.231814 
L 121.090909 814.231814 
L 124.363636 814.231814 
L 127.636364 814.231814 
L 130.909091 814.231814 
L 134.181818 814.231814 
L 137.454545 814.231814 
L 140.727273 814.231814 
L 144 814.231814 
L 147.272727 814.231814 
L 150.545455 814.231814 
L 153.818182 814.231814 
L 157.090909 814.231814 
L 160.363636 814.231814 
L 163.636364 814.231814 
L 166.909091 814.231814 
L 170.181818 814.231814 
L 173.454545 814.231814 
L 176.727273 814.231814 
L 180 814.231814 
L 183.272727 814.231814 
L 186.545455 814.231814 
L 189.818182 814.231814 
L 193.090909 814.231814 
L 196.363636 814.231814 
L 199.636364 814.231814 
L 202.909091 814.231814 
L 206.181818 814.231814 
L 209.454545 814.231814 
L 212.727273 814.231814 
L 216 814.231814 
L 219.272727 814.231814 
L 222.545455 814.231814 
L 225.818182 814.231814 
L 229.090909 814.231814 
L 232.363636 814.231814 
L 235.636364 814.231814 
L 238.909091 814.231814 
L 242.181818 814.231814 
L 245.454545 814.231814 
L 248.727273 814.231814 
L 252 814.231814 
L 255.272727 814.231814 
L 258.545455 814.231814 
L 261.818182 814.231814 
L 265.090909 814.231814 
L 268.363636 814.231814 
L 271.636364 814.231814 
L 274.909091 814.231814 
L 278.181818 814.231814 
L 281.454545 814.231814 
L 284.727273 814.231814 
L 288 814.231814 
L 291.272727 814.231814 
L 294.545455 814.231814 
L 297.818182 814.231814 
L 301.090909 814.231814 
L 304.363636 814.231814 
L 307.636364 814.231814 
L 310.909091 814.231814 
L 314.181818 814.231814 
L 317.454545 814.231814 
L 320.727273 814.231814 
L 324 814.231814 
L 327.272727 814.231814 
L 330.545455 814.231814 
L 333.818182 814.231814 
L 337.090909 814.231814 
L 340.363636 814.231814 
L 343.636364 814.231814 
L 346.909091 814.231814 
L 350.181818 814.231814 
L 353.454545 814.231814 
L 356.727273 814.231814 
L 360 814.231814 
L 363.272727 814.231814 
L 366.545455 814.231814 
L 369.818182 814.231814 
L 373.090909 814.231814 
L 376.363636 814.231814 
L 379.636364 814.231814 
L 382.909091 814.231814 
L 386.181818 814.231814 
L 389.454545 814.231814 
L 392.727273 814.231814 
L 396 814.231814 
L 399.272727 814.231814 
L 402.545455 814.231814 
L 405.818182 814.231814 
L 409.090909 814.231814 
L 412.363636 814.231814 
L 415.636364 814.231814 
L 418.909091 814.231814 
L 422.181818 814.231814 
L 425.454545 814.231814 
L 428.727273 814.231814 
L 432 814.231814 
L 435.272727 814.231814 
L 438.545455 814.231814 
L 441.818182 814.231814 
L 445.090909 814.231814 
L 448.363636 814.231814 
L 451.636364 814.231814 
L 454.909091 814.231814 
L 458.181818 814.231814 
L 461.454545 814.231814 
L 464.727273 814.231814 
L 468 814.231814 
L 471.272727 814.231814 
L 474.545455 814.231814 
L 477.818182 814.231814 
L 481.090909 814.231814 
L 484.363636 814.231814 
L 487.636364 814.231814 
L 490.909091 814.231814 
L 494.181818 814.231814 
L 497.454545 814.231814 
L 500.727273 814.231814 
L 504 814.231814 
L 507.272727 814.231814 
L 510.545455 814.231814 
L 513.818182 814.231814 
L 517.090909 814.231814 
L 520.363636 814.231814 
L 523.636364 814.231814 
L 526.909091 814.231814 
L 530.181818 814.231814 
L 533.454545 814.231814 
L 536.727273 814.231814 
L 540 814.231814 
L 543.272727 814.231814 
L 546.545455 814.231814 
L 549.818182 814.231814 
L 553.090909 814.231814 
L 556.363636 814.231814 
L 559.636364 814.231814 
L 562.909091 814.231814 
L 566.181818 814.231814 
L 569.454545 814.231814 
L 572.727273 814.231814 
L 576 814.231814 
L 576 810.961807 
L 576 807.691799 
L 576 804.421792 
L 576 801.151785 
L 576 797.881777 
L 576 794.61177 
L 576 791.341763 
L 576 788.071756 
L 576 784.801748 
L 576 781.531741 
L 576 778.261734 
L 576 774.991726 
L 576 771.721719 
L 576 768.451712 
L 576 765.181705 
L 576 761.911697 
L 576 758.64169 
L 576 755.371683 
L 576 752.101675 
L 576 748.831668 
L 576 745.561661 
L 576 742.291654 
L 576 739.021646 
L 576 735.751639 
L 576 732.481632 
L 576 729.211624 
L 576 725.941617 
L 576 722.67161 
L 576 719.401603 
L 576 716.131595 
L 576 712.861588 
L 576 709.591581 
L 576 706.321573 
L 576 703.051566 
L 576 699.781559 
L 576 696.511552 
L 576 693.241544 
L 576 689.971537 
L 576 686.70153 
L 576 683.431522 
L 576 680.161515 
L 576 676.891508 
L 576 673.621501 
L 576 670.351493 
L 576 667.081486 
L 576 663.811479 
L 576 660.541471 
L 576 657.271464 
L 576 654.001457 
L 576 650.73145 
L 576 647.461442 
L 576 644.191435 
L 576 640.921428 
L 576 637.65142 
L 576 634.381413 
L 576 631.111406 
L 576 627.841399 
L 576 624.571391 
L 576 621.301384 
L 576 618.031377 
L 576 614.761369 
L 576 611.491362 
L 576 608.221355 
L 576 604.951348 
L 576 601.68134 
L 576 598.411333 
L 576 595.141326 
L 576 591.871318 
L 576 588.601311 
L 576 585.331304 
L 576 582.061297 
L 576 578.791289 
L 576 575.521282 
L 576 572.251275 
L 576 568.981267 
L 576 565.71126 
L 576 562.441253 
L 576 559.171246 
L 576 555.901238 
L 576 552.631231 
L 576 549.361224 
L 576 546.091216 
L 576 542.821209 
L 576 539.551202 
L 576 536.281195 
L 576 533.011187 
L 576 529.74118 
L 576 526.471173 
L 576 523.201165 
L 576 519.931158 
L 576 516.661151 
L 576 513.391144 
L 576 510.121136 
L 576 506.851129 
L 576 503.581122 
L 576 500.311115 
L 576 497.041107 
L 576 493.7711 
L 576 490.501093 
L 576 487.231085 
L 576 483.961078 
L 576 480.691071 
L 576 477.421064 
L 576 474.151056 
L 576 470.881049 
L 576 467.611042 
L 576 464.341034 
L 576 461.071027 
L 576 457.80102 
L 576 454.531013 
L 576 451.261005 
L 576 447.990998 
L 576 444.720991 
L 576 441.450983 
L 576 438.180976 
L 576 434.910969 
L 576 431.640962 
L 576 428.370954 
L 576 425.100947 
L 576 421.83094 
L 576 418.560932 
L 576 415.290925 
L 576 412.020918 
L 576 408.750911 
L 576 405.480903 
L 576 402.210896 
L 576 398.940889 
L 576 395.670881 
L 576 392.400874 
L 576 389.130867 
L 576 385.86086 
L 576 382.590852 
L 576 379.320845 
L 576 376.050838 
L 576 372.78083 
L 576 369.510823 
L 576 366.240816 
L 576 362.970809 
L 576 359.700801 
L 576 356.430794 
L 576 353.160787 
L 576 349.890779 
L 576 346.620772 
L 576 343.350765 
L 576 340.080758 
L 576 336.81075 
L 576 333.540743 
L 576 330.270736 
L 576 327.000728 
L 576 323.730721 
L 576 320.460714 
L 576 317.190707 
L 576 313.920699 
L 576 310.650692 
L 576 307.380685 
L 576 304.110677 
L 576 300.84067 
L 576 297.570663 
L 576 294.300656 
L 576 291.030648 
L 576 287.760641 
L 576 284.490634 
L 576 281.220626 
L 576 277.950619 
L 576 274.680612 
L 576 271.410605 
L 576 268.140597 
L 576 264.87059 
L 576 261.600583 
L 576 258.330575 
L 576 255.060568 
L 576 251.790561 
L 576 248.520554 
L 576 245.250546 
L 576 241.980539 
L 576 238.710532 
L 576 235.440524 
L 576 232.170517 
L 576 228.90051 
L 576 225.630503 
L 576 222.360495 
L 576 219.090488 
L 576 215.820481 
L 576 212.550473 
L 576 209.280466 
L 576 206.010459 
L 576 202.740452 
L 576 199.470444 
L 576 196.200437 
L 576 192.93043 
L 576 189.660422 
L 576 186.390415 
L 576 183.120408 
L 576 179.850401 
L 576 176.580393 
L 576 173.310386 
L 576 170.040379 
L 576 166.770372 
L 576 163.500364 
L 576 160.230357 
L 576 156.96035 
L 576 153.690342 
L 576 150.420335 
L 576 147.150328 
L 576 143.880321 
L 576 140.610313 
L 576 137.340306 
L 576 134.070299 
L 576 130.800291 
L 576 127.530284 
L 576 124.260277 
L 576 120.99027 
L 576 117.720262 
L 576 114.450255 
L 576 111.180248 
L 576 107.91024 
L 576 104.640233 
L 576 101.370226 
L 576 98.100219 
L 576 94.830211 
L 576 91.560204 
L 576 88.290197 
L 576 85.020189 
L 576 81.750182 
L 576 78.480175 
L 576 75.210168 
L 576 71.94016 
L 576 68.670153 
L 576 65.400146 
L 576 62.130138 
L 576 58.860131 
L 576 55.590124 
L 576 52.320117 
L 576 49.050109 
L 576 45.780102 
L 576 42.510095 
L 576 39.240087 
L 576 35.97008 
L 576 32.700073 
L 576 29.430066 
L 576 26.160058 
L 576 22.890051 
L 576 19.620044 
L 576 16.350036 
L 576 13.080029 
L 576 9.810022 
L 576 6.540015 
L 576 3.270007 
L 576 0 
L 572.727273 0 
L 569.454545 0 
L 566.181818 0 
L 562.909091 0 
L 559.636364 0 
L 556.363636 0 
L 553.090909 0 
L 549.818182 0 
L 546.545455 0 
L 543.272727 0 
L 540 0 
L 536.727273 0 
L 533.454545 0 
L 530.181818 0 
L 526.909091 0 
L 523.636364 0 
L 520.363636 0 
L 517.090909 0 
L 513.818182 0 
L 510.545455 0 
L 507.272727 0 
L 504 0 
L 500.727273 0 
L 497.454545 0 
L 494.181818 0 
L 490.909091 0 
L 487.636364 0 
L 484.363636 0 
L 481.090909 0 
L 477.818182 0 
L 474.545455 0 
L 471.272727 0 
L 468 0 
L 464.727273 0 
L 461.454545 0 
L 458.181818 0 
L 454.909091 0 
L 451.636364 0 
L 448.363636 0 
L 445.090909 0 
L 441.818182 0 
L 438.545455 0 
L 435.272727 0 
L 432 0 
L 428.727273 0 
L 425.454545 0 
L 422.181818 0 
L 418.909091 0 
L 415.636364 0 
L 412.363636 0 
L 409.090909 0 
L 405.818182 0 
L 402.545455 0 
L 399.272727 0 
L 396 0 
L 392.727273 0 
L 389.454545 0 
L 386.181818 0 
L 382.909091 0 
L 379.636364 0 
L 376.363636 0 
L 373.090909 0 
L 369.818182 0 
L 366.545455 0 
L 363.272727 0 
L 360 0 
L 356.727273 0 
L 353.454545 0 
L 350.181818 0 
L 346.909091 0 
L 343.636364 0 
L 340.363636 0 
L 337.090909 0 
L 333.818182 0 
L 330.545455 0 
L 327.272727 0 
L 324 0 
L 320.727273 0 
L 317.454545 0 
L 314.181818 0 
L 310.909091 0 
L 307.636364 0 
L 304.363636 0 
L 301.090909 0 
L 297.818182 0 
L 294.545455 0 
L 291.272727 0 
L 288 0 
L 284.727273 0 
L 281.454545 0 
L 278.181818 0 
L 274.909091 0 
L 271.636364 0 
L 268.363636 0 
L 265.090909 0 
L 261.818182 0 
L 258.545455 0 
L 255.272727 0 
L 252 0 
L 248.727273 0 
L 245.454545 0 
L 242.181818 0 
L 238.909091 0 
L 235.636364 0 
L 232.363636 0 
L 229.090909 0 
L 225.818182 0 
L 222.545455 0 
L 219.272727 0 
L 216 0 
L 212.727273 0 
L 209.454545 0 
L 206.181818 0 
L 202.909091 0 
L 199.636364 0 
L 196.363636 0 
L 193.090909 0 
L 189.818182 0 
L 186.545455 0 
L 183.272727 0 
L 180 0 
L 176.727273 0 
L 173.454545 0 
L 170.181818 0 
L 166.909091 0 
L 163.636364 0 
L 160.363636 0 
L 157.090909 0 
L 153.818182 0 
L 150.545455 0 
L 147.272727 0 
L 144 0 
L 140.727273 0 
L 137.454545 0 
L 134.181818 0 
L 130.909091 0 
L 127.636364 0 
L 124.363636 0 
L 121.090909 0 
L 117.818182 0 
L 114.545455 0 
L 111.272727 0 
L 108 0 
L 104.727273 0 
L 101.454545 0 
L 98.181818 0 
L 94.909091 0 
L 91.636364 0 
L 88.363636 0 
L 85.090909 0 
L 81.818182 0 
L 78.545455 0 
L 75.272727 0 
L 72 0 
L 68.727273 0 
L 65.454545 0 
L 62.181818 0 
L 58.909091 0 
L 55.636364 0 
L 52.363636 0 
L 49.090909 0 
L 45.818182 0 
L 42.545455 0 
L 39.272727 0 
L 36 0 
L 32.727273 0 
L 29.454545 0 
L 26.181818 0 
L 22.909091 0 
L 19.636364 0 
L 16.363636 0 
L 13.090909 0 
L 9.818182 0 
L 6.545455 0 
L 3.272727 0 
L 0 0 
L 0 3.270007 
L 0 6.540015 
L 0 9.810022 
L 0 13.080029 
L 0 16.350036 
L 0 19.620044 
L 0 22.890051 
L 0 26.160058 
L 0 29.430066 
L 0 32.700073 
L 0 35.97008 
L 0 39.240087 
L 0 42.510095 
L 0 45.780102 
L 0 49.050109 
L 0 52.320117 
L 0 55.590124 
L 0 58.860131 
L 0 62.130138 
L 0 65.400146 
L 0 68.670153 
L 0 71.94016 
L 0 75.210168 
L 0 78.480175 
L 0 81.750182 
L 0 85.020189 
L 0 88.290197 
L 0 91.560204 
L 0 94.830211 
L 0 98.100219 
L 0 101.370226 
L 0 104.640233 
L 0 107.91024 
L 0 111.180248 
L 0 114.450255 
L 0 117.720262 
L 0 120.99027 
L 0 124.260277 
L 0 127.530284 
L 0 130.800291 
L 0 134.070299 
L 0 137.340306 
L 0 140.610313 
L 0 143.880321 
L 0 147.150328 
L 0 150.420335 
L 0 153.690342 
L 0 156.96035 
L 0 160.230357 
L 0 163.500364 
L 0 166.770372 
L 0 170.040379 
L 0 173.310386 
L 0 176.580393 
L 0 179.850401 
L 0 183.120408 
L 0 186.390415 
L 0 189.660422 
L 0 192.93043 
L 0 196.200437 
L 0 199.470444 
L 0 202.740452 
L 0 206.010459 
L 0 209.280466 
L 0 212.550473 
L 0 215.820481 
L 0 219.090488 
L 0 222.360495 
L 0 225.630503 
L 0 228.90051 
L 0 232.170517 
L 0 235.440524 
L 0 238.710532 
L 0 241.980539 
L 0 245.250546 
L 0 248.520554 
L 0 251.790561 
L 0 255.060568 
L 0 258.330575 
L 0 261.600583 
L 0 264.87059 
L 0 268.140597 
L 0 271.410605 
L 0 274.680612 
L 0 277.950619 
L 0 281.220626 
L 0 284.490634 
L 0 287.760641 
L 0 291.030648 
L 0 294.300656 
L 0 297.570663 
L 0 300.84067 
L 0 304.110677 
L 0 307.380685 
L 0 310.650692 
L 0 313.920699 
L 0 317.190707 
L 0 320.460714 
L 0 323.730721 
L 0 327.000728 
L 0 330.270736 
L 0 333.540743 
L 0 336.81075 
L 0 340.080758 
L 0 343.350765 
L 0 346.620772 
L 0 349.890779 
L 0 353.160787 
L 0 356.430794 
L 0 359.700801 
L 0 362.970809 
L 0 366.240816 
L 0 369.510823 
L 0 372.78083 
L 0 376.050838 
L 0 379.320845 
L 0 382.590852 
L 0 385.86086 
L 0 389.130867 
L 0 392.400874 
L 0 395.670881 
L 0 398.940889 
L 0 402.210896 
L 0 405.480903 
L 0 408.750911 
L 0 412.020918 
L 0 415.290925 
L 0 418.560932 
L 0 421.83094 
L 0 425.100947 
L 0 428.370954 
L 0 431.640962 
L 0 434.910969 
L 0 438.180976 
L 0 441.450983 
L 0 444.720991 
L 0 447.990998 
L 0 451.261005 
L 0 454.531013 
L 0 457.80102 
L 0 461.071027 
L 0 464.341034 
L 0 467.611042 
L 0 470.881049 
L 0 474.151056 
L 0 477.421064 
L 0 480.691071 
L 0 483.961078 
L 0 487.231085 
L 0 490.501093 
L 0 493.7711 
L 0 497.041107 
L 0 500.311115 
L 0 503.581122 
L 0 506.851129 
L 0 510.121136 
L 0 513.391144 
L 0 516.661151 
L 0 519.931158 
L 0 523.201165 
L 0 526.471173 
L 0 529.74118 
L 0 533.011187 
L 0 536.281195 
L 0 539.551202 
L 0 542.821209 
L 0 546.091216 
L 0 549.361224 
L 0 552.631231 
L 0 555.901238 
L 0 559.171246 
L 0 562.441253 
L 0 565.71126 
L 0 568.981267 
L 0 572.251275 
L 0 575.521282 
L 0 578.791289 
L 0 582.061297 
L 0 585.331304 
L 0 588.601311 
L 0 591.871318 
L 0 595.141326 
L 0 598.411333 
L 0 601.68134 
L 0 604.951348 
L 0 608.221355 
L 0 611.491362 
L 0 614.761369 
L 0 618.031377 
L 0 621.301384 
L 0 624.571391 
L 0 627.841399 
L 0 631.111406 
L 0 634.381413 
L 0 637.65142 
L 0 640.921428 
L 0 644.191435 
L 0 647.461442 
L 0 650.73145 
L 0 654.001457 
L 0 657.271464 
L 0 660.541471 
L 0 663.811479 
L 0 667.081486 
L 0 670.351493 
L 0 673.621501 
L 0 676.891508 
L 0 680.161515 
L 0 683.431522 
L 0 686.70153 
L 0 689.971537 
L 0 693.241544 
L 0 696.511552 
L 0 699.781559 
L 0 703.051566 
L 0 706.321573 
L 0 709.591581 
L 0 712.861588 
L 0 716.131595 
L 0 719.401603 
L 0 722.67161 
L 0 725.941617 
L 0 729.211624 
L 0 732.481632 
L 0 735.751639 
L 0 739.021646 
L 0 742.291654 
L 0 745.561661 
L 0 748.831668 
L 0 752.101675 
L 0 755.371683 
L 0 758.64169 
L 0 761.911697 
L 0 765.181705 
L 0 768.451712 
L 0 771.721719 
L 0 774.991726 
L 0 778.261734 
L 0 781.531741 
L 0 784.801748 
L 0 788.071756 
L 0 791.341763 
L 0 794.61177 
L 0 797.881777 
L 0 801.151785 
L 0 804.421792 
L 0 807.691799 
L 0 810.961807 
L 0 814.231814 
z
" clip-path="url(#p80c27c4a3f)" style="fill: #f5f9fe; fill-opacity: 0.9"/>
    <path clip-path="url(#p80c27c4a3f)" style="fill: #eff6fc; fill-opacity: 0.9"/>
    <path clip-path="url(#p80c27c4a3f)" style="fill: #eaf3fb; fill-opacity: 0.9"/>
    <path clip-path="url(#p80c27c4a3f)" style="fill: #e5eff9; fill-opacity: 0.9"/>
    <path clip-path="url(#p80c27c4a3f)" style="fill: #dfecf7; fill-opacity: 0.9"/>
    <path clip-path="url(#p80c27c4a3f)" style="fill: #dae8f6; fill-opacity: 0.9"/>
    <path clip-path="url(#p80c27c4a3f)" style="fill: #d6e5f4; fill-opacity: 0.9"/>
    <path clip-path="url(#p80c27c4a3f)" style="fill: #d0e2f2; fill-opacity: 0.9"/>
    <path clip-path="url(#p80c27c4a3f)" style="fill: #cbdef1; fill-opacity: 0.9"/>
    <path clip-path="url(#p80c27c4a3f)" style="fill: #c6dbef; fill-opacity: 0.9"/>
    <path clip-path="url(#p80c27c4a3f)" style="fill: #bed8ec; fill-opacity: 0.9"/>
    <path clip-path="url(#p80c27c4a3f)" style="fill: #b5d4e9; fill-opacity: 0.9"/>
    <path clip-path="url(#p80c27c4a3f)" style="fill: #add0e6; fill-opacity: 0.9"/>
    <path clip-path="url(#p80c27c4a3f)" style="fill: #a5cde3; fill-opacity: 0.9"/>
    <path clip-path="url(#p80c27c4a3f)" style="fill: #9cc9e1; fill-opacity: 0.9"/>
    <path clip-path="url(#p80c27c4a3f)" style="fill: #91c3de; fill-opacity: 0.9"/>
    <path clip-path="url(#p80c27c4a3f)" style="fill: #85bcdc; fill-opacity: 0.9"/>
    <path clip-path="url(#p80c27c4a3f)" style="fill: #7cb7da; fill-opacity: 0.9"/>
    <path clip-path="url(#p80c27c4a3f)" style="fill: #71b1d7; fill-opacity: 0.9"/>
    <path clip-path="url(#p80c27c4a3f)" style="fill: #66abd4; fill-opacity: 0.9"/>
    <path clip-path="url(#p80c27c4a3f)" style="fill: #5da5d1; fill-opacity: 0.9"/>
    <path clip-path="url(#p80c27c4a3f)" style="fill: #56a0ce; fill-opacity: 0.9"/>
    <path clip-path="url(#p80c27c4a3f)" style="fill: #4d99ca; fill-opacity: 0.9"/>
    <path clip-path="url(#p80c27c4a3f)" style="fill: #4493c7; fill-opacity: 0.9"/>
    <path clip-path="url(#p80c27c4a3f)" style="fill: #3c8cc3; fill-opacity: 0.9"/>
    <path clip-path="url(#p80c27c4a3f)" style="fill: #3686c0; fill-opacity: 0.9"/>
    <path clip-path="url(#p80c27c4a3f)" style="fill: #2f7fbc; fill-opacity: 0.9"/>
    <path clip-path="url(#p80c27c4a3f)" style="fill: #2777b8; fill-opacity: 0.9"/>
    <path clip-path="url(#p80c27c4a3f)" style="fill: #2070b4; fill-opacity: 0.9"/>
    <path clip-path="url(#p80c27c4a3f)" style="fill: #1c6ab0; fill-opacity: 0.9"/>
    <path clip-path="url(#p80c27c4a3f)" style="fill: #1663aa; fill-opacity: 0.9"/>
    <path clip-path="url(#p80c27c4a3f)" style="fill: #115ca5; fill-opacity: 0.9"/>
    <path clip-path="url(#p80c27c4a3f)" style="fill: #0c56a0; fill-opacity: 0.9"/>
    <path clip-path="url(#p80c27c4a3f)" style="fill: #084f99; fill-opacity: 0.9"/>
    <path clip-path="url(#p80c27c4a3f)" style="fill: #08488e; fill-opacity: 0.9"/>
    <path clip-path="url(#p80c27c4a3f)" style="fill: #084184; fill-opacity: 0.9"/>
    <path clip-path="url(#p80c27c4a3f)" style="fill: #083a7a; fill-opacity: 0.9"/>
    <path clip-path="url(#p80c27c4a3f)" style="fill: #083370; fill-opacity: 0.9"/>
    <path clip-path="url(#p80c27c4a3f)" style="fill: #08306b; fill-opacity: 0.9"/>
   </g>
   <g id="QuadContourSet_2">
    <path clip-path="url(#p80c27c4a3f)" style="fill: none"/>
    <path clip-path="url(#p80c27c4a3f)" style="fill: none"/>
    <path clip-path="url(#p80c27c4a3f)" style="fill: none"/>
    <path clip-path="url(#p80c27c4a3f)" style="fill: none"/>
    <path clip-path="url(#p80c27c4a3f)" style="fill: none"/>
    <path clip-path="url(#p80c27c4a3f)" style="fill: none"/>
    <path clip-path="url(#p80c27c4a3f)" style="fill: none"/>
    <path clip-path="url(#p80c27c4a3f)" style="fill: none"/>
    <path clip-path="url(#p80c27c4a3f)" style="fill: none"/>
    <path clip-path="url(#p80c27c4a3f)" style="fill: none"/>
    <path clip-path="url(#p80c27c4a3f)" style="fill: none"/>
    <path clip-path="url(#p80c27c4a3f)" style="fill: none"/>
    <path clip-path="url(#p80c27c4a3f)" style="fill: none"/>
    <path clip-path="url(#p80c27c4a3f)" style="fill: none"/>
    <path clip-path="url(#p80c27c4a3f)" style="fill: none"/>
    <path clip-path="url(#p80c27c4a3f)" style="fill: none"/>
    <path clip-path="url(#p80c27c4a3f)" style="fill: none"/>
    <path clip-path="url(#p80c27c4a3f)" style="fill: none"/>
    <path clip-path="url(#p80c27c4a3f)" style="fill: none"/>
    <path clip-path="url(#p80c27c4a3f)" style="fill: none"/>
    <path clip-path="url(#p80c27c4a3f)" style="fill: none"/>
    <path clip-path="url(#p80c27c4a3f)" style="fill: none"/>
    <path clip-path="url(#p80c27c4a3f)" style="fill: none"/>
    <path clip-path="url(#p80c27c4a3f)" style="fill: none"/>
    <path clip-path="url(#p80c27c4a3f)" style="fill: none"/>
    <path clip-path="url(#p80c27c4a3f)" style="fill: none"/>
    <path clip-path="url(#p80c27c4a3f)" style="fill: none"/>
    <path clip-path="url(#p80c27c4a3f)" style="fill: none"/>
    <path clip-path="url(#p80c27c4a3f)" style="fill: none"/>
    <path clip-path="url(#p80c27c4a3f)" style="fill: none"/>
    <path clip-path="url(#p80c27c4a3f)" style="fill: none"/>
    <path clip-path="url(#p80c27c4a3f)" style="fill: none"/>
    <path clip-path="url(#p80c27c4a3f)" style="fill: none"/>
    <path clip-path="url(#p80c27c4a3f)" style="fill: none"/>
    <path clip-path="url(#p80c27c4a3f)" style="fill: none"/>
    <path clip-path="url(#p80c27c4a3f)" style="fill: none"/>
    <path clip-path="url(#p80c27c4a3f)" style="fill: none"/>
    <path clip-path="url(#p80c27c4a3f)" style="fill: none"/>
    <path clip-path="url(#p80c27c4a3f)" style="fill: none"/>
   </g>
  </g>
 </g>
 <defs>
  <clipPath id="p80c27c4a3f">
   <rect x="0" y="0" width="576" height="814.231814"/>
  </clipPath>
 </defs>
</svg>
