<?xml version="1.0" encoding="utf-8" standalone="no"?>
<!DOCTYPE svg PUBLIC "-//W3C//DTD SVG 1.1//EN"
  "http://www.w3.org/Graphics/SVG/1.1/DTD/svg11.dtd">
<svg xmlns:xlink="http://www.w3.org/1999/xlink" width="576pt" height="816.226927pt" viewBox="0 0 576 816.226927" xmlns="http://www.w3.org/2000/svg" version="1.1">
 <metadata>
  <rdf:RDF xmlns:dc="http://purl.org/dc/elements/1.1/" xmlns:cc="http://creativecommons.org/ns#" xmlns:rdf="http://www.w3.org/1999/02/22-rdf-syntax-ns#">
   <cc:Work>
    <dc:type rdf:resource="http://purl.org/dc/dcmitype/StillImage"/>
    <dc:date>2025-07-25T22:44:56.013381</dc:date>
    <dc:format>image/svg+xml</dc:format>
    <dc:creator>
     <cc:Agent>
      <dc:title>Matplotlib v3.10.3, https://matplotlib.org/</dc:title>
     </cc:Agent>
    </dc:creator>
   </cc:Work>
  </rdf:RDF>
 </metadata>
 <defs>
  <style type="text/css">*{stroke-linejoin: round; stroke-linecap: butt}</style>
 </defs>
 <g id="figure_1">
  <g id="patch_1">
   <path d="M 0 816.226927 
L 576 816.226927 
L 576 0 
L 0 0 
L 0 816.226927 
z
" style="fill: none; opacity: 0"/>
  </g>
  <g id="axes_1">
   <g id="QuadContourSet_1">
    <path d="M 464.727273 813.38081 
L 466.140859 816.226927 
L 468 816.226927 
L 471.272727 816.226927 
L 474.545455 816.226927 
L 477.818182 816.226927 
L 481.090909 816.226927 
L 484.363636 816.226927 
L 487.636364 816.226927 
L 490.909091 816.226927 
L 494.181818 816.226927 
L 497.454545 816.226927 
L 500.727273 816.226927 
L 504 816.226927 
L 507.272727 816.226927 
L 510.545455 816.226927 
L 513.818182 816.226927 
L 517.090909 816.226927 
L 520.363636 816.226927 
L 523.636364 816.226927 
L 526.909091 816.226927 
L 530.181818 816.226927 
L 533.454545 816.226927 
L 536.727273 816.226927 
L 540 816.226927 
L 543.272727 816.226927 
L 546.545455 816.226927 
L 549.818182 816.226927 
L 553.090909 816.226927 
L 556.363636 816.226927 
L 559.636364 816.226927 
L 562.909091 816.226927 
L 566.181818 816.226927 
L 569.454545 816.226927 
L 572.727273 816.226927 
L 576 816.226927 
L 576 812.948908 
L 576 809.670888 
L 576 806.392868 
L 576 803.114848 
L 576 799.836828 
L 576 796.558809 
L 576 793.280789 
L 576 790.002769 
L 576 786.724749 
L 576 783.446729 
L 576 780.16871 
L 576 776.89069 
L 576 773.61267 
L 576 770.33465 
L 576 767.056631 
L 576 763.778611 
L 576 760.500591 
L 576 757.222571 
L 576 753.944551 
L 576 750.666532 
L 576 747.388512 
L 576 744.110492 
L 576 740.832472 
L 576 737.554452 
L 576 734.276433 
L 576 730.998413 
L 576 727.720393 
L 576 724.442373 
L 576 721.164354 
L 576 717.886334 
L 576 714.608314 
L 576 711.330294 
L 576 708.052274 
L 576 704.774255 
L 576 701.496235 
L 576 698.218215 
L 576 694.940195 
L 576 691.662175 
L 576 688.384156 
L 576 685.106136 
L 576 681.828116 
L 576 678.550096 
L 576 675.272076 
L 576 671.994057 
L 576 668.716037 
L 576 665.438017 
L 576 664.240976 
L 573.341871 665.438017 
L 572.727273 668.206224 
L 572.626393 668.716037 
L 569.454545 671.267551 
L 567.041318 668.716037 
L 566.181818 668.265691 
L 562.909091 668.257543 
L 560.216031 665.438017 
L 559.636364 665.164973 
L 556.363636 665.049603 
L 553.626583 662.159997 
L 553.090909 661.930044 
L 549.818182 661.875302 
L 547.017344 658.881978 
L 546.545455 658.702476 
L 543.272727 658.680511 
L 540.371083 655.603958 
L 540 655.484333 
L 536.727273 655.266432 
L 536.401662 655.603958 
L 536.660782 658.881978 
L 536.727273 659.391503 
L 540 660.367496 
L 543.272727 661.343489 
L 546.010666 662.159997 
L 546.545455 662.319482 
L 549.818182 664.373064 
L 552.037006 665.438017 
L 553.090909 666.048745 
L 556.363636 667.919691 
L 557.577875 668.716037 
L 559.636364 670.077179 
L 562.571881 671.994057 
L 562.909091 672.242805 
L 566.181818 674.35884 
L 567.574289 675.272076 
L 569.454545 676.505222 
L 570.726524 678.550096 
L 571.451422 681.828116 
L 570.456114 685.106136 
L 569.454545 687.30024 
L 567.969323 688.384156 
L 566.613577 691.662175 
L 566.181818 693.324122 
L 562.909091 693.624677 
L 559.636364 693.673436 
L 556.363636 692.964599 
L 553.090909 692.42733 
L 550.319581 691.662175 
L 549.818182 691.47065 
L 546.545455 690.421736 
L 543.272727 689.491805 
L 540.074453 688.384156 
L 540 688.359573 
L 539.472073 688.384156 
L 536.727273 688.617732 
L 533.454545 688.986234 
L 530.181818 688.938584 
L 526.909091 689.011643 
L 524.051254 688.384156 
L 523.636364 688.251463 
L 520.363636 687.377618 
L 517.090909 686.605081 
L 513.818182 685.761091 
L 511.278472 685.106136 
L 510.545455 684.917101 
L 507.272727 684.24581 
L 504 684.09414 
L 500.727273 684.3395 
L 497.454545 684.632928 
L 494.181818 683.631964 
L 490.909091 683.497747 
L 487.636364 683.166648 
L 484.363636 682.836292 
L 481.090909 682.501319 
L 477.818182 682.166346 
L 474.545455 681.832149 
L 474.490764 681.828116 
L 471.272727 681.627945 
L 469.501127 681.828116 
L 468 682.034284 
L 464.727273 682.326774 
L 461.454545 682.506252 
L 458.181818 682.537533 
L 454.909091 682.257914 
L 451.636364 682.280317 
L 448.363636 682.396073 
L 445.090909 682.183828 
L 441.818182 681.930274 
L 440.513386 681.828116 
L 438.545455 681.675191 
L 435.272727 681.554027 
L 432.741704 681.828116 
L 432 681.91314 
L 428.727273 682.226409 
L 425.454545 682.432383 
L 422.181818 682.334251 
L 418.909091 682.2397 
L 415.636364 682.190675 
L 412.363636 682.166975 
L 409.090909 682.143276 
L 405.818182 682.038779 
L 402.545455 681.928896 
L 400.051878 681.828116 
L 399.272727 681.799651 
L 398.744278 681.828116 
L 396 681.988827 
L 392.727273 682.245953 
L 389.454545 682.461666 
L 386.181818 682.567794 
L 382.909091 682.556183 
L 379.636364 682.546123 
L 376.363636 682.54389 
L 373.090909 682.547891 
L 369.818182 682.551892 
L 366.545455 682.086573 
L 364.832184 681.828116 
L 363.272727 681.592862 
L 360 681.099152 
L 356.727273 680.605441 
L 353.454545 680.201171 
L 350.181818 679.765544 
L 346.909091 679.336322 
L 343.636364 679.009661 
L 340.363636 678.683 
L 339.032116 678.550096 
L 337.090909 678.356338 
L 333.818182 678.029677 
L 330.545455 677.849188 
L 327.272727 677.768066 
L 324 677.625747 
L 320.727273 677.319695 
L 317.454545 677.069184 
L 314.181818 676.757942 
L 310.909091 676.405364 
L 307.636364 676.052625 
L 304.363636 675.700537 
L 301.090909 675.3491 
L 300.372832 675.272076 
L 297.818182 674.997193 
L 294.545455 674.641829 
L 291.272727 674.484013 
L 288 674.539946 
L 284.727273 674.458652 
L 281.454545 674.559363 
L 278.181818 674.683762 
L 274.909091 674.788065 
L 271.636364 674.876778 
L 268.363636 674.920468 
L 265.090909 674.668489 
L 261.818182 674.447712 
L 258.545455 674.221193 
L 255.272727 673.902993 
L 252 673.540252 
L 248.727273 673.177511 
L 245.454545 672.81477 
L 242.181818 672.534848 
L 238.909091 672.143985 
L 238.044883 671.994057 
L 235.636364 671.728478 
L 233.013225 671.994057 
L 232.363636 672.149015 
L 229.090909 672.929716 
L 225.818182 673.710418 
L 222.545455 674.396728 
L 219.272727 674.533253 
L 216 673.86906 
L 212.727273 673.228874 
L 209.454545 672.890799 
L 206.181818 672.788687 
L 202.909091 672.716113 
L 199.636364 672.66188 
L 196.363636 672.535932 
L 193.090909 672.237563 
L 191.23047 671.994057 
L 189.818182 671.540112 
L 186.545455 670.968721 
L 183.272727 671.823021 
L 182.457689 671.994057 
L 180 672.444424 
L 176.727273 672.171974 
L 174.59008 671.994057 
L 173.454545 671.969602 
L 170.181818 671.646565 
L 166.909091 671.354627 
L 163.636364 671.082178 
L 160.363636 671.102634 
L 157.090909 671.619347 
L 155.684473 671.994057 
L 153.818182 672.85115 
L 150.545455 673.189081 
L 147.272727 673.303639 
L 144 674.568076 
L 141.474787 675.272076 
L 140.727273 675.424301 
L 137.454545 675.419569 
L 134.181818 675.414837 
L 130.909091 675.415748 
L 127.636364 675.437666 
L 124.363636 675.470099 
L 121.090909 675.75584 
L 117.818182 676.701905 
L 114.545455 677.64797 
L 111.272727 678.219146 
L 108 677.795232 
L 106.110438 678.550096 
L 104.727273 679.01749 
L 101.454545 679.448509 
L 98.181818 679.771358 
L 94.909091 680.083724 
L 91.636364 680.377323 
L 88.363636 680.684119 
L 85.090909 681.005022 
L 81.818182 681.341027 
L 78.545455 681.693226 
L 77.332454 681.828116 
L 75.272727 682.025663 
L 72 682.337533 
L 68.727273 682.645356 
L 65.454545 682.949456 
L 62.181818 683.271366 
L 58.909091 683.597174 
L 55.636364 683.920432 
L 52.363636 684.241171 
L 49.090909 684.559419 
L 45.818182 684.875205 
L 43.408748 685.106136 
L 42.545455 685.189108 
L 39.272727 685.502018 
L 36 685.812361 
L 32.727273 686.12017 
L 29.454545 686.426396 
L 26.181818 686.789932 
L 22.909091 687.129262 
L 19.636364 687.451045 
L 16.363636 687.756608 
L 13.090909 688.047146 
L 9.818182 688.323742 
L 9.081827 688.384156 
L 6.545455 688.625272 
L 3.272727 688.933893 
L -0 689.239735 
L -0 691.662175 
L -0 694.940195 
L -0 698.218215 
L -0 701.496235 
L -0 704.774255 
L -0 708.052274 
L -0 711.330294 
L -0 714.608314 
L -0 717.886334 
L -0 721.164354 
L -0 724.442373 
L -0 727.720393 
L -0 730.998413 
L 0 733.693013 
L 3.272727 733.425816 
L 6.545455 733.183228 
L 9.818182 732.961999 
L 13.090909 732.759427 
L 16.363636 732.573246 
L 19.636364 732.401546 
L 22.909091 732.238525 
L 26.181818 732.086607 
L 29.454545 731.977181 
L 32.727273 731.873345 
L 36 731.76709 
L 39.272727 731.658331 
L 42.545455 731.48922 
L 45.818182 731.291757 
L 49.090909 731.088625 
L 50.544337 730.998413 
L 52.363636 730.851582 
L 55.636364 730.599548 
L 58.909091 730.361437 
L 62.181818 730.136228 
L 65.454545 729.974193 
L 68.727273 729.896646 
L 72 729.813421 
L 75.272727 729.723872 
L 78.545455 729.601476 
L 81.818182 729.413236 
L 85.090909 729.216038 
L 88.363636 729.016 
L 91.636364 728.815962 
L 94.909091 728.615924 
L 98.181818 728.415886 
L 101.454545 728.215848 
L 104.727273 728.236922 
L 108 728.275181 
L 111.272727 728.31344 
L 114.545455 728.269021 
L 117.818182 728.171588 
L 121.090909 728.063708 
L 124.363636 727.943604 
L 127.636364 727.809073 
L 129.598196 727.720393 
L 130.909091 727.651287 
L 134.181818 727.478761 
L 137.454545 727.306234 
L 138.512834 727.720393 
L 140.727273 728.643229 
L 143.479443 730.998413 
L 144 731.216069 
L 147.272727 732.082125 
L 150.545455 733.580014 
L 151.625764 734.276433 
L 153.818182 734.965433 
L 157.090909 735.825698 
L 160.363636 736.648494 
L 163.189212 737.554452 
L 163.636364 737.681211 
L 166.909091 738.608968 
L 170.181818 739.536725 
L 173.454545 740.464481 
L 174.956597 740.832472 
L 176.727273 741.263279 
L 180 741.922814 
L 183.272727 742.582349 
L 186.545455 743.028572 
L 189.818182 743.595771 
L 190.882742 744.110492 
L 193.090909 744.546395 
L 195.306131 744.110492 
L 195.551578 740.832472 
L 193.090909 739.122229 
L 191.415424 737.554452 
L 189.818182 736.525932 
L 186.545455 734.418506 
L 186.324821 734.276433 
L 186.545455 734.084139 
L 189.818182 733.164282 
L 193.090909 733.866914 
L 194.407366 734.276433 
L 196.363636 735.203162 
L 199.636364 735.778257 
L 202.909091 736.71822 
L 205.820656 737.554452 
L 206.181818 737.672057 
L 209.454545 738.598145 
L 212.727273 739.52028 
L 216 740.318498 
L 218.107319 740.832472 
L 219.272727 741.117353 
L 222.545455 741.914932 
L 225.818182 742.71315 
L 229.090909 743.459413 
L 231.547349 744.110492 
L 232.363636 744.355921 
L 235.636364 745.209121 
L 238.909091 745.149064 
L 242.181818 744.261531 
L 242.347095 744.110492 
L 242.181818 743.646742 
L 241.178835 740.832472 
L 238.909091 738.098077 
L 238.544925 737.554452 
L 238.909091 737.286792 
L 242.181818 736.490267 
L 245.454545 737.357889 
L 246.118479 737.554452 
L 248.727273 738.578111 
L 252 739.269275 
L 255.272727 740.182222 
L 257.578207 740.832472 
L 258.545455 741.243931 
L 261.818182 742.425755 
L 265.090909 743.360694 
L 268.324098 744.110492 
L 268.363636 744.126053 
L 271.636364 745.465479 
L 274.909091 746.818456 
L 276.652938 747.388512 
L 278.181818 747.99024 
L 281.454545 749.278302 
L 284.727273 750.561204 
L 285.057621 750.666532 
L 288 751.596808 
L 291.272727 752.631529 
L 294.545455 753.659235 
L 295.425699 753.944551 
L 297.818182 754.70097 
L 301.090909 755.73569 
L 304.363636 756.542664 
L 305.793778 757.222571 
L 307.636364 757.8895 
L 310.909091 758.31728 
L 314.181818 758.735402 
L 317.454545 759.510607 
L 320.727273 758.34709 
L 322.132218 760.500591 
L 324 761.108606 
L 326.889078 763.778611 
L 327.272727 763.927371 
L 330.545455 764.505431 
L 333.818182 765.18326 
L 337.090909 766.36281 
L 338.303314 767.056631 
L 340.363636 767.648328 
L 343.636364 768.588213 
L 346.909091 769.416714 
L 349.71755 770.33465 
L 350.181818 770.467982 
L 353.454545 771.407867 
L 356.727273 772.370223 
L 360 773.174865 
L 361.010147 773.61267 
L 363.272727 774.241052 
L 366.545455 773.997421 
L 368.310209 773.61267 
L 369.818182 772.750024 
L 373.090909 770.785242 
L 376.363636 770.359679 
L 379.636364 771.611722 
L 382.909091 772.230015 
L 386.181818 773.173652 
L 387.704423 773.61267 
L 389.454545 774.117289 
L 392.727273 775.134258 
L 396 776.182608 
L 398.21048 776.89069 
L 399.272727 777.230959 
L 402.545455 778.279309 
L 405.818182 779.223193 
L 408.443764 780.16871 
L 409.090909 780.376009 
L 412.363636 780.715692 
L 415.195128 780.16871 
L 415.636364 779.886596 
L 418.909091 777.780948 
L 420.219589 776.89069 
L 422.181818 776.530857 
L 423.582038 776.89069 
L 425.454545 777.588119 
L 428.727273 778.48973 
L 432 779.547274 
L 433.781239 780.16871 
L 435.272727 781.19176 
L 438.545455 782.043363 
L 441.818182 782.972626 
L 443.177116 783.446729 
L 445.090909 784.937288 
L 448.363636 785.637497 
L 451.636364 786.289531 
L 452.572994 786.724749 
L 454.909091 788.829334 
L 458.181818 788.345223 
L 461.454545 787.412249 
L 463.590634 790.002769 
L 464.727273 792.208414 
L 465.408495 793.280789 
L 464.727273 793.860058 
L 461.454545 793.343386 
L 461.050851 793.280789 
L 458.181818 792.83646 
L 454.909091 792.336544 
L 451.636364 791.836628 
L 448.363636 791.646048 
L 447.111211 793.280789 
L 448.363636 794.759179 
L 449.960608 796.558809 
L 451.636364 799.056433 
L 452.189485 799.836828 
L 454.328318 803.114848 
L 454.909091 804.004953 
L 456.910953 806.392868 
L 458.181818 807.95272 
L 461.401593 809.670888 
L 461.454545 809.735269 
L 464.300597 812.948908 
z
M 114.545455 741.007179 
L 117.818182 741.271947 
L 121.090909 741.490501 
L 124.363636 741.556618 
L 127.636364 741.528497 
L 130.909091 741.500376 
L 134.181818 741.472256 
L 137.454545 741.444135 
L 140.727273 741.940141 
L 144 741.784381 
L 146.99698 740.832472 
L 144 738.614437 
L 142.718502 737.554452 
L 140.727273 736.039121 
L 137.454545 734.566254 
L 134.181818 735.099772 
L 130.909091 735.63329 
L 127.636364 736.166809 
L 124.363636 736.700327 
L 121.090909 737.389889 
L 120.412641 737.554452 
L 117.818182 738.65834 
L 114.545455 740.050816 
L 112.708332 740.832472 
z
M 559.636364 649.311533 
L 559.832446 649.047918 
L 559.636364 648.851519 
L 559.440408 649.047918 
z
M 520.363636 639.263312 
L 520.399633 639.213859 
L 520.363636 639.177804 
L 520.327648 639.213859 
z
" clip-path="url(#p2a0ef0af1b)" style="fill: #f5f9fe; fill-opacity: 0.9"/>
    <path d="M 19.636364 814.179901 
L 22.909091 816.116155 
L 23.10246 816.226927 
L 26.181818 816.226927 
L 29.454545 816.226927 
L 32.727273 816.226927 
L 36 816.226927 
L 39.272727 816.226927 
L 42.545455 816.226927 
L 45.818182 816.226927 
L 49.090909 816.226927 
L 52.363636 816.226927 
L 55.636364 816.226927 
L 58.909091 816.226927 
L 62.181818 816.226927 
L 65.454545 816.226927 
L 68.727273 816.226927 
L 72 816.226927 
L 75.272727 816.226927 
L 78.545455 816.226927 
L 81.818182 816.226927 
L 85.090909 816.226927 
L 88.363636 816.226927 
L 91.636364 816.226927 
L 94.909091 816.226927 
L 98.181818 816.226927 
L 101.454545 816.226927 
L 104.727273 816.226927 
L 108 816.226927 
L 111.272727 816.226927 
L 114.545455 816.226927 
L 117.818182 816.226927 
L 121.090909 816.226927 
L 124.363636 816.226927 
L 127.636364 816.226927 
L 130.909091 816.226927 
L 134.181818 816.226927 
L 137.454545 816.226927 
L 140.727273 816.226927 
L 144 816.226927 
L 147.272727 816.226927 
L 150.545455 816.226927 
L 153.818182 816.226927 
L 157.090909 816.226927 
L 160.363636 816.226927 
L 163.636364 816.226927 
L 166.909091 816.226927 
L 170.181818 816.226927 
L 173.454545 816.226927 
L 176.727273 816.226927 
L 180 816.226927 
L 183.272727 816.226927 
L 186.545455 816.226927 
L 189.818182 816.226927 
L 193.090909 816.226927 
L 196.363636 816.226927 
L 199.636364 816.226927 
L 202.909091 816.226927 
L 206.181818 816.226927 
L 209.454545 816.226927 
L 212.727273 816.226927 
L 216 816.226927 
L 219.272727 816.226927 
L 222.545455 816.226927 
L 225.818182 816.226927 
L 229.090909 816.226927 
L 232.363636 816.226927 
L 235.636364 816.226927 
L 238.909091 816.226927 
L 242.181818 816.226927 
L 245.454545 816.226927 
L 248.727273 816.226927 
L 252 816.226927 
L 255.272727 816.226927 
L 258.545455 816.226927 
L 261.818182 816.226927 
L 265.090909 816.226927 
L 268.363636 816.226927 
L 271.636364 816.226927 
L 274.909091 816.226927 
L 278.181818 816.226927 
L 281.454545 816.226927 
L 284.727273 816.226927 
L 288 816.226927 
L 291.272727 816.226927 
L 294.545455 816.226927 
L 297.818182 816.226927 
L 301.090909 816.226927 
L 304.363636 816.226927 
L 307.636364 816.226927 
L 310.909091 816.226927 
L 314.181818 816.226927 
L 317.454545 816.226927 
L 320.727273 816.226927 
L 324 816.226927 
L 327.272727 816.226927 
L 330.545455 816.226927 
L 333.818182 816.226927 
L 337.090909 816.226927 
L 340.363636 816.226927 
L 343.636364 816.226927 
L 346.909091 816.226927 
L 350.181818 816.226927 
L 353.454545 816.226927 
L 356.727273 816.226927 
L 360 816.226927 
L 363.272727 816.226927 
L 366.545455 816.226927 
L 369.818182 816.226927 
L 373.090909 816.226927 
L 376.363636 816.226927 
L 379.636364 816.226927 
L 382.909091 816.226927 
L 386.181818 816.226927 
L 389.454545 816.226927 
L 392.727273 816.226927 
L 396 816.226927 
L 399.272727 816.226927 
L 402.545455 816.226927 
L 405.818182 816.226927 
L 409.090909 816.226927 
L 412.363636 816.226927 
L 415.636364 816.226927 
L 418.909091 816.226927 
L 422.181818 816.226927 
L 425.454545 816.226927 
L 428.727273 816.226927 
L 432 816.226927 
L 435.272727 816.226927 
L 438.545455 816.226927 
L 441.818182 816.226927 
L 445.090909 816.226927 
L 448.363636 816.226927 
L 451.636364 816.226927 
L 454.909091 816.226927 
L 458.181818 816.226927 
L 461.454545 816.226927 
L 464.727273 816.226927 
L 466.140859 816.226927 
L 464.727273 813.38081 
L 464.300597 812.948908 
L 461.454545 809.735269 
L 461.401593 809.670888 
L 458.181818 807.95272 
L 456.910953 806.392868 
L 454.909091 804.004953 
L 454.328318 803.114848 
L 452.189485 799.836828 
L 451.636364 799.056433 
L 449.960608 796.558809 
L 448.363636 794.759179 
L 447.111211 793.280789 
L 448.363636 791.646048 
L 451.636364 791.836628 
L 454.909091 792.336544 
L 458.181818 792.83646 
L 461.050851 793.280789 
L 461.454545 793.343386 
L 464.727273 793.860058 
L 465.408495 793.280789 
L 464.727273 792.208414 
L 463.590634 790.002769 
L 461.454545 787.412249 
L 458.181818 788.345223 
L 454.909091 788.829334 
L 452.572994 786.724749 
L 451.636364 786.289531 
L 448.363636 785.637497 
L 445.090909 784.937288 
L 443.177116 783.446729 
L 441.818182 782.972626 
L 438.545455 782.043363 
L 435.272727 781.19176 
L 433.781239 780.16871 
L 432 779.547274 
L 428.727273 778.48973 
L 425.454545 777.588119 
L 423.582038 776.89069 
L 422.181818 776.530857 
L 420.219589 776.89069 
L 418.909091 777.780948 
L 415.636364 779.886596 
L 415.195128 780.16871 
L 412.363636 780.715692 
L 409.090909 780.376009 
L 408.443764 780.16871 
L 405.818182 779.223193 
L 402.545455 778.279309 
L 399.272727 777.230959 
L 398.21048 776.89069 
L 396 776.182608 
L 392.727273 775.134258 
L 389.454545 774.117289 
L 387.704423 773.61267 
L 386.181818 773.173652 
L 382.909091 772.230015 
L 379.636364 771.611722 
L 376.363636 770.359679 
L 373.090909 770.785242 
L 369.818182 772.750024 
L 368.310209 773.61267 
L 366.545455 773.997421 
L 363.272727 774.241052 
L 361.010147 773.61267 
L 360 773.174865 
L 356.727273 772.370223 
L 353.454545 771.407867 
L 350.181818 770.467982 
L 349.71755 770.33465 
L 346.909091 769.416714 
L 343.636364 768.588213 
L 340.363636 767.648328 
L 338.303314 767.056631 
L 337.090909 766.36281 
L 333.818182 765.18326 
L 330.545455 764.505431 
L 327.272727 763.927371 
L 326.889078 763.778611 
L 324 761.108606 
L 322.132218 760.500591 
L 320.727273 758.34709 
L 317.454545 759.510607 
L 314.181818 758.735402 
L 310.909091 758.31728 
L 307.636364 757.8895 
L 305.793778 757.222571 
L 304.363636 756.542664 
L 301.090909 755.73569 
L 297.818182 754.70097 
L 295.425699 753.944551 
L 294.545455 753.659235 
L 291.272727 752.631529 
L 288 751.596808 
L 285.057621 750.666532 
L 284.727273 750.561204 
L 281.454545 749.278302 
L 278.181818 747.99024 
L 276.652938 747.388512 
L 274.909091 746.818456 
L 271.636364 745.465479 
L 268.363636 744.126053 
L 268.324098 744.110492 
L 265.090909 743.360694 
L 261.818182 742.425755 
L 258.545455 741.243931 
L 257.578207 740.832472 
L 255.272727 740.182222 
L 252 739.269275 
L 248.727273 738.578111 
L 246.118479 737.554452 
L 245.454545 737.357889 
L 242.181818 736.490267 
L 238.909091 737.286792 
L 238.544925 737.554452 
L 238.909091 738.098077 
L 241.178835 740.832472 
L 242.181818 743.646742 
L 242.347095 744.110492 
L 242.181818 744.261531 
L 238.909091 745.149064 
L 235.636364 745.209121 
L 232.363636 744.355921 
L 231.547349 744.110492 
L 229.090909 743.459413 
L 225.818182 742.71315 
L 222.545455 741.914932 
L 219.272727 741.117353 
L 218.107319 740.832472 
L 216 740.318498 
L 212.727273 739.52028 
L 209.454545 738.598145 
L 206.181818 737.672057 
L 205.820656 737.554452 
L 202.909091 736.71822 
L 199.636364 735.778257 
L 196.363636 735.203162 
L 194.407366 734.276433 
L 193.090909 733.866914 
L 189.818182 733.164282 
L 186.545455 734.084139 
L 186.324821 734.276433 
L 186.545455 734.418506 
L 189.818182 736.525932 
L 191.415424 737.554452 
L 193.090909 739.122229 
L 195.551578 740.832472 
L 195.306131 744.110492 
L 193.090909 744.546395 
L 190.882742 744.110492 
L 189.818182 743.595771 
L 186.545455 743.028572 
L 183.272727 742.582349 
L 180 741.922814 
L 176.727273 741.263279 
L 174.956597 740.832472 
L 173.454545 740.464481 
L 170.181818 739.536725 
L 166.909091 738.608968 
L 163.636364 737.681211 
L 163.189212 737.554452 
L 160.363636 736.648494 
L 157.090909 735.825698 
L 153.818182 734.965433 
L 151.625764 734.276433 
L 150.545455 733.580014 
L 147.272727 732.082125 
L 144 731.216069 
L 143.479443 730.998413 
L 140.727273 728.643229 
L 138.512834 727.720393 
L 137.454545 727.306234 
L 134.181818 727.478761 
L 130.909091 727.651287 
L 129.598196 727.720393 
L 127.636364 727.809073 
L 124.363636 727.943604 
L 121.090909 728.063708 
L 117.818182 728.171588 
L 114.545455 728.269021 
L 111.272727 728.31344 
L 108 728.275181 
L 104.727273 728.236922 
L 101.454545 728.215848 
L 98.181818 728.415886 
L 94.909091 728.615924 
L 91.636364 728.815962 
L 88.363636 729.016 
L 85.090909 729.216038 
L 81.818182 729.413236 
L 78.545455 729.601476 
L 75.272727 729.723872 
L 72 729.813421 
L 68.727273 729.896646 
L 65.454545 729.974193 
L 62.181818 730.136228 
L 58.909091 730.361437 
L 55.636364 730.599548 
L 52.363636 730.851582 
L 50.544337 730.998413 
L 49.090909 731.088625 
L 45.818182 731.291757 
L 42.545455 731.48922 
L 39.272727 731.658331 
L 36 731.76709 
L 32.727273 731.873345 
L 29.454545 731.977181 
L 26.181818 732.086607 
L 22.909091 732.238525 
L 19.636364 732.401546 
L 16.363636 732.573246 
L 13.090909 732.759427 
L 9.818182 732.961999 
L 6.545455 733.183228 
L 3.272727 733.425816 
L 0 733.693013 
L -0 734.276433 
L -0 737.554452 
L -0 740.832472 
L -0 744.110492 
L -0 747.388512 
L -0 750.666532 
L -0 753.944551 
L -0 757.222571 
L -0 760.500591 
L -0 763.778611 
L -0 767.056631 
L -0 770.33465 
L -0 773.61267 
L -0 776.89069 
L -0 780.16871 
L -0 783.446729 
L -0 786.724749 
L -0 790.002769 
L -0 793.280789 
L -0 796.558809 
L -0 799.836828 
L -0 803.114848 
L -0 806.392868 
L 0 807.656076 
L 3.272727 808.265016 
L 6.545455 808.873956 
L 9.818182 809.479015 
L 10.828542 809.670888 
L 13.090909 810.729118 
L 16.363636 812.338306 
L 17.555695 812.948908 
z
M 112.708332 740.832472 
L 114.545455 740.050816 
L 117.818182 738.65834 
L 120.412641 737.554452 
L 121.090909 737.389889 
L 124.363636 736.700327 
L 127.636364 736.166809 
L 130.909091 735.63329 
L 134.181818 735.099772 
L 137.454545 734.566254 
L 140.727273 736.039121 
L 142.718502 737.554452 
L 144 738.614437 
L 146.99698 740.832472 
L 144 741.784381 
L 140.727273 741.940141 
L 137.454545 741.444135 
L 134.181818 741.472256 
L 130.909091 741.500376 
L 127.636364 741.528497 
L 124.363636 741.556618 
L 121.090909 741.490501 
L 117.818182 741.271947 
L 114.545455 741.007179 
z
" clip-path="url(#p2a0ef0af1b)" style="fill: #eff6fc; fill-opacity: 0.9"/>
    <path d="M 3.272727 816.226927 
L 6.545455 816.226927 
L 9.818182 816.226927 
L 13.090909 816.226927 
L 16.363636 816.226927 
L 19.636364 816.226927 
L 22.909091 816.226927 
L 23.10246 816.226927 
L 22.909091 816.116155 
L 19.636364 814.179901 
L 17.555695 812.948908 
L 16.363636 812.338306 
L 13.090909 810.729118 
L 10.828542 809.670888 
L 9.818182 809.479015 
L 6.545455 808.873956 
L 3.272727 808.265016 
L 0 807.656076 
L -0 809.670888 
L -0 812.948908 
L -0 816.226927 
z
" clip-path="url(#p2a0ef0af1b)" style="fill: #eaf3fb; fill-opacity: 0.9"/>
    <path clip-path="url(#p2a0ef0af1b)" style="fill: #e5eff9; fill-opacity: 0.9"/>
    <path clip-path="url(#p2a0ef0af1b)" style="fill: #dfecf7; fill-opacity: 0.9"/>
    <path clip-path="url(#p2a0ef0af1b)" style="fill: #dae8f6; fill-opacity: 0.9"/>
    <path clip-path="url(#p2a0ef0af1b)" style="fill: #d6e5f4; fill-opacity: 0.9"/>
    <path clip-path="url(#p2a0ef0af1b)" style="fill: #d0e2f2; fill-opacity: 0.9"/>
    <path clip-path="url(#p2a0ef0af1b)" style="fill: #cbdef1; fill-opacity: 0.9"/>
    <path clip-path="url(#p2a0ef0af1b)" style="fill: #c6dbef; fill-opacity: 0.9"/>
    <path clip-path="url(#p2a0ef0af1b)" style="fill: #bed8ec; fill-opacity: 0.9"/>
    <path clip-path="url(#p2a0ef0af1b)" style="fill: #b5d4e9; fill-opacity: 0.9"/>
    <path clip-path="url(#p2a0ef0af1b)" style="fill: #add0e6; fill-opacity: 0.9"/>
    <path clip-path="url(#p2a0ef0af1b)" style="fill: #a5cde3; fill-opacity: 0.9"/>
    <path clip-path="url(#p2a0ef0af1b)" style="fill: #9cc9e1; fill-opacity: 0.9"/>
    <path clip-path="url(#p2a0ef0af1b)" style="fill: #91c3de; fill-opacity: 0.9"/>
    <path clip-path="url(#p2a0ef0af1b)" style="fill: #85bcdc; fill-opacity: 0.9"/>
    <path clip-path="url(#p2a0ef0af1b)" style="fill: #7cb7da; fill-opacity: 0.9"/>
    <path clip-path="url(#p2a0ef0af1b)" style="fill: #71b1d7; fill-opacity: 0.9"/>
    <path clip-path="url(#p2a0ef0af1b)" style="fill: #66abd4; fill-opacity: 0.9"/>
    <path clip-path="url(#p2a0ef0af1b)" style="fill: #5da5d1; fill-opacity: 0.9"/>
    <path clip-path="url(#p2a0ef0af1b)" style="fill: #56a0ce; fill-opacity: 0.9"/>
    <path clip-path="url(#p2a0ef0af1b)" style="fill: #4d99ca; fill-opacity: 0.9"/>
    <path clip-path="url(#p2a0ef0af1b)" style="fill: #4493c7; fill-opacity: 0.9"/>
    <path clip-path="url(#p2a0ef0af1b)" style="fill: #3c8cc3; fill-opacity: 0.9"/>
    <path clip-path="url(#p2a0ef0af1b)" style="fill: #3686c0; fill-opacity: 0.9"/>
    <path clip-path="url(#p2a0ef0af1b)" style="fill: #2f7fbc; fill-opacity: 0.9"/>
    <path clip-path="url(#p2a0ef0af1b)" style="fill: #2777b8; fill-opacity: 0.9"/>
    <path clip-path="url(#p2a0ef0af1b)" style="fill: #2070b4; fill-opacity: 0.9"/>
    <path clip-path="url(#p2a0ef0af1b)" style="fill: #1c6ab0; fill-opacity: 0.9"/>
    <path clip-path="url(#p2a0ef0af1b)" style="fill: #1663aa; fill-opacity: 0.9"/>
    <path clip-path="url(#p2a0ef0af1b)" style="fill: #115ca5; fill-opacity: 0.9"/>
    <path clip-path="url(#p2a0ef0af1b)" style="fill: #0c56a0; fill-opacity: 0.9"/>
    <path clip-path="url(#p2a0ef0af1b)" style="fill: #084f99; fill-opacity: 0.9"/>
    <path clip-path="url(#p2a0ef0af1b)" style="fill: #08488e; fill-opacity: 0.9"/>
    <path clip-path="url(#p2a0ef0af1b)" style="fill: #084184; fill-opacity: 0.9"/>
    <path clip-path="url(#p2a0ef0af1b)" style="fill: #083a7a; fill-opacity: 0.9"/>
    <path clip-path="url(#p2a0ef0af1b)" style="fill: #083370; fill-opacity: 0.9"/>
    <path clip-path="url(#p2a0ef0af1b)" style="fill: #08306b; fill-opacity: 0.9"/>
   </g>
   <g id="QuadContourSet_2">
    <path d="M 576 664.240976 
L 573.341871 665.438017 
L 572.727273 668.206224 
L 572.626393 668.716037 
L 569.454545 671.267551 
L 567.041318 668.716037 
L 566.181818 668.265691 
L 562.909091 668.257543 
L 560.216031 665.438017 
L 559.636364 665.164973 
L 556.363636 665.049603 
L 553.626583 662.159997 
L 553.090909 661.930044 
L 549.818182 661.875302 
L 547.017344 658.881978 
L 546.545455 658.702476 
L 543.272727 658.680511 
L 540.371083 655.603958 
L 540 655.484333 
L 536.727273 655.266432 
L 536.401662 655.603958 
L 536.660782 658.881978 
L 536.727273 659.391503 
L 540 660.367496 
L 543.272727 661.343489 
L 546.010666 662.159997 
L 546.545455 662.319482 
L 549.818182 664.373064 
L 552.037006 665.438017 
L 553.090909 666.048745 
L 556.363636 667.919691 
L 557.577875 668.716037 
L 559.636364 670.077179 
L 562.571881 671.994057 
L 562.909091 672.242805 
L 566.181818 674.35884 
L 567.574289 675.272076 
L 569.454545 676.505222 
L 570.726524 678.550096 
L 571.451422 681.828116 
L 570.456114 685.106136 
L 569.454545 687.30024 
L 567.969323 688.384156 
L 566.613577 691.662175 
L 566.181818 693.324122 
L 562.909091 693.624677 
L 559.636364 693.673436 
L 556.363636 692.964599 
L 553.090909 692.42733 
L 550.319581 691.662175 
L 549.818182 691.47065 
L 546.545455 690.421736 
L 543.272727 689.491805 
L 540.074453 688.384156 
L 540 688.359573 
L 539.472073 688.384156 
L 536.727273 688.617732 
L 533.454545 688.986234 
L 530.181818 688.938584 
L 526.909091 689.011643 
L 524.051254 688.384156 
L 523.636364 688.251463 
L 520.363636 687.377618 
L 517.090909 686.605081 
L 513.818182 685.761091 
L 511.278472 685.106136 
L 510.545455 684.917101 
L 507.272727 684.24581 
L 504 684.09414 
L 500.727273 684.3395 
L 497.454545 684.632928 
L 494.181818 683.631964 
L 490.909091 683.497747 
L 487.636364 683.166648 
L 484.363636 682.836292 
L 481.090909 682.501319 
L 477.818182 682.166346 
L 474.545455 681.832149 
L 474.490764 681.828116 
L 471.272727 681.627945 
L 469.501127 681.828116 
L 468 682.034284 
L 464.727273 682.326774 
L 461.454545 682.506252 
L 458.181818 682.537533 
L 454.909091 682.257914 
L 451.636364 682.280317 
L 448.363636 682.396073 
L 445.090909 682.183828 
L 441.818182 681.930274 
L 440.513386 681.828116 
L 438.545455 681.675191 
L 435.272727 681.554027 
L 432.741704 681.828116 
L 432 681.91314 
L 428.727273 682.226409 
L 425.454545 682.432383 
L 422.181818 682.334251 
L 418.909091 682.2397 
L 415.636364 682.190675 
L 412.363636 682.166975 
L 409.090909 682.143276 
L 405.818182 682.038779 
L 402.545455 681.928896 
L 400.051878 681.828116 
L 399.272727 681.799651 
L 398.744278 681.828116 
L 396 681.988827 
L 392.727273 682.245953 
L 389.454545 682.461666 
L 386.181818 682.567794 
L 382.909091 682.556183 
L 379.636364 682.546123 
L 376.363636 682.54389 
L 373.090909 682.547891 
L 369.818182 682.551892 
L 366.545455 682.086573 
L 364.832184 681.828116 
L 363.272727 681.592862 
L 360 681.099152 
L 356.727273 680.605441 
L 353.454545 680.201171 
L 350.181818 679.765544 
L 346.909091 679.336322 
L 343.636364 679.009661 
L 340.363636 678.683 
L 339.032116 678.550096 
L 337.090909 678.356338 
L 333.818182 678.029677 
L 330.545455 677.849188 
L 327.272727 677.768066 
L 324 677.625747 
L 320.727273 677.319695 
L 317.454545 677.069184 
L 314.181818 676.757942 
L 310.909091 676.405364 
L 307.636364 676.052625 
L 304.363636 675.700537 
L 301.090909 675.3491 
L 300.372832 675.272076 
L 297.818182 674.997193 
L 294.545455 674.641829 
L 291.272727 674.484013 
L 288 674.539946 
L 284.727273 674.458652 
L 281.454545 674.559363 
L 278.181818 674.683762 
L 274.909091 674.788065 
L 271.636364 674.876778 
L 268.363636 674.920468 
L 265.090909 674.668489 
L 261.818182 674.447712 
L 258.545455 674.221193 
L 255.272727 673.902993 
L 252 673.540252 
L 248.727273 673.177511 
L 245.454545 672.81477 
L 242.181818 672.534848 
L 238.909091 672.143985 
L 238.044883 671.994057 
L 235.636364 671.728478 
L 233.013225 671.994057 
L 232.363636 672.149015 
L 229.090909 672.929716 
L 225.818182 673.710418 
L 222.545455 674.396728 
L 219.272727 674.533253 
L 216 673.86906 
L 212.727273 673.228874 
L 209.454545 672.890799 
L 206.181818 672.788687 
L 202.909091 672.716113 
L 199.636364 672.66188 
L 196.363636 672.535932 
L 193.090909 672.237563 
L 191.23047 671.994057 
L 189.818182 671.540112 
L 186.545455 670.968721 
L 183.272727 671.823021 
L 182.457689 671.994057 
L 180 672.444424 
L 176.727273 672.171974 
L 174.59008 671.994057 
L 173.454545 671.969602 
L 170.181818 671.646565 
L 166.909091 671.354627 
L 163.636364 671.082178 
L 160.363636 671.102634 
L 157.090909 671.619347 
L 155.684473 671.994057 
L 153.818182 672.85115 
L 150.545455 673.189081 
L 147.272727 673.303639 
L 144 674.568076 
L 141.474787 675.272076 
L 140.727273 675.424301 
L 137.454545 675.419569 
L 134.181818 675.414837 
L 130.909091 675.415748 
L 127.636364 675.437666 
L 124.363636 675.470099 
L 121.090909 675.75584 
L 117.818182 676.701905 
L 114.545455 677.64797 
L 111.272727 678.219146 
L 108 677.795232 
L 106.110438 678.550096 
L 104.727273 679.01749 
L 101.454545 679.448509 
L 98.181818 679.771358 
L 94.909091 680.083724 
L 91.636364 680.377323 
L 88.363636 680.684119 
L 85.090909 681.005022 
L 81.818182 681.341027 
L 78.545455 681.693226 
L 77.332454 681.828116 
L 75.272727 682.025663 
L 72 682.337533 
L 68.727273 682.645356 
L 65.454545 682.949456 
L 62.181818 683.271366 
L 58.909091 683.597174 
L 58.568686 683.630797 
M 39.611369 685.46964 
L 39.272727 685.502018 
L 36 685.812361 
L 32.727273 686.12017 
L 29.454545 686.426396 
L 26.181818 686.789932 
L 22.909091 687.129262 
L 19.636364 687.451045 
L 16.363636 687.756608 
L 13.090909 688.047146 
L 9.818182 688.323742 
L 9.081827 688.384156 
L 6.545455 688.625272 
L 3.272727 688.933893 
L -0 689.239735 
M 559.636364 649.311533 
L 559.832446 649.047918 
L 559.636364 648.851519 
L 559.440408 649.047918 
L 559.636364 649.311533 
z
M 520.363636 639.263312 
L 520.399633 639.213859 
L 520.363636 639.177804 
L 520.327648 639.213859 
L 520.363636 639.263312 
z
" clip-path="url(#p2a0ef0af1b)" style="fill: none"/>
    <path d="M 466.140859 816.226927 
L 464.727273 813.38081 
L 464.300597 812.948908 
L 461.401593 809.670888 
L 458.181818 807.95272 
L 454.328318 803.114848 
L 449.960608 796.558809 
L 447.111211 793.280789 
L 448.363636 791.646048 
L 451.636364 791.836628 
L 464.727273 793.860058 
L 465.408495 793.280789 
L 464.727273 792.208414 
L 463.590634 790.002769 
L 461.454545 787.412249 
L 458.181818 788.345223 
L 454.909091 788.829334 
L 452.572994 786.724749 
L 451.636364 786.289531 
L 445.090909 784.937288 
L 443.177116 783.446729 
L 441.818182 782.972626 
L 435.272727 781.19176 
L 433.781239 780.16871 
L 428.727273 778.48973 
L 425.454545 777.588119 
L 423.582038 776.89069 
L 422.181818 776.530857 
L 420.219589 776.89069 
L 415.636364 779.886596 
L 415.195128 780.16871 
L 412.363636 780.715692 
L 409.090909 780.376009 
L 387.704423 773.61267 
L 382.909091 772.230015 
L 379.636364 771.611722 
L 376.363636 770.359679 
L 373.090909 770.785242 
L 368.310209 773.61267 
L 366.545455 773.997421 
L 363.272727 774.241052 
L 361.010147 773.61267 
L 360 773.174865 
L 356.727273 772.370223 
L 338.303314 767.056631 
L 337.090909 766.36281 
L 333.818182 765.18326 
L 326.889078 763.778611 
L 324 761.108606 
L 322.132218 760.500591 
L 320.727273 758.34709 
L 317.454545 759.510607 
L 314.181818 758.735402 
L 307.636364 757.8895 
L 305.793778 757.222571 
L 304.363636 756.542664 
L 301.090909 755.73569 
L 284.727273 750.561204 
L 268.324098 744.110492 
L 265.090909 743.360694 
L 261.818182 742.425755 
L 257.578207 740.832472 
L 252 739.269275 
L 248.727273 738.578111 
L 245.454545 737.357889 
L 242.181818 736.490267 
L 238.909091 737.286792 
L 238.544925 737.554452 
L 238.909091 738.098077 
L 241.178835 740.832472 
L 242.347095 744.110492 
L 242.181818 744.261531 
L 238.909091 745.149064 
L 235.636364 745.209121 
L 225.818182 742.71315 
L 212.727273 739.52028 
L 199.636364 735.778257 
L 196.363636 735.203162 
L 194.407366 734.276433 
L 193.090909 733.866914 
L 189.818182 733.164282 
L 186.545455 734.084139 
L 186.324821 734.276433 
L 191.415424 737.554452 
L 193.090909 739.122229 
L 195.551578 740.832472 
L 195.306131 744.110492 
L 193.090909 744.546395 
L 190.882742 744.110492 
L 189.818182 743.595771 
L 186.545455 743.028572 
L 183.272727 742.582349 
L 174.956597 740.832472 
L 173.454545 740.464481 
L 151.625764 734.276433 
L 150.545455 733.580014 
L 147.272727 732.082125 
L 143.479443 730.998413 
L 140.727273 728.643229 
L 137.454545 727.306234 
L 121.090909 728.063708 
L 111.272727 728.31344 
L 101.454545 728.215848 
L 75.272727 729.723872 
L 62.181818 730.136228 
L 45.569124 731.306784 
M 26.424354 732.078498 
L 19.636364 732.401546 
L 6.545455 733.183228 
L 0 733.693013 
M 130.520378 735.696658 
L 137.454545 734.566254 
L 140.727273 736.039121 
L 146.99698 740.832472 
L 144 741.784381 
L 140.727273 741.940141 
L 137.454545 741.444135 
L 121.090909 741.490501 
L 113.224557 740.881564 
L 113.224557 740.881564 
" clip-path="url(#p2a0ef0af1b)" style="fill: none"/>
    <path d="M 23.10246 816.226927 
L 22.909091 816.116155 
L 21.521935 815.295467 
M 3.860713 808.37442 
L 3.272727 808.265016 
L 0 807.656076 
" clip-path="url(#p2a0ef0af1b)" style="fill: none"/>
    <path clip-path="url(#p2a0ef0af1b)" style="fill: none"/>
    <path clip-path="url(#p2a0ef0af1b)" style="fill: none"/>
    <path clip-path="url(#p2a0ef0af1b)" style="fill: none"/>
    <path clip-path="url(#p2a0ef0af1b)" style="fill: none"/>
    <path clip-path="url(#p2a0ef0af1b)" style="fill: none"/>
    <path clip-path="url(#p2a0ef0af1b)" style="fill: none"/>
    <path clip-path="url(#p2a0ef0af1b)" style="fill: none"/>
    <path clip-path="url(#p2a0ef0af1b)" style="fill: none"/>
    <path clip-path="url(#p2a0ef0af1b)" style="fill: none"/>
    <path clip-path="url(#p2a0ef0af1b)" style="fill: none"/>
    <path clip-path="url(#p2a0ef0af1b)" style="fill: none"/>
    <path clip-path="url(#p2a0ef0af1b)" style="fill: none"/>
    <path clip-path="url(#p2a0ef0af1b)" style="fill: none"/>
    <path clip-path="url(#p2a0ef0af1b)" style="fill: none"/>
    <path clip-path="url(#p2a0ef0af1b)" style="fill: none"/>
    <path clip-path="url(#p2a0ef0af1b)" style="fill: none"/>
    <path clip-path="url(#p2a0ef0af1b)" style="fill: none"/>
    <path clip-path="url(#p2a0ef0af1b)" style="fill: none"/>
    <path clip-path="url(#p2a0ef0af1b)" style="fill: none"/>
    <path clip-path="url(#p2a0ef0af1b)" style="fill: none"/>
    <path clip-path="url(#p2a0ef0af1b)" style="fill: none"/>
    <path clip-path="url(#p2a0ef0af1b)" style="fill: none"/>
    <path clip-path="url(#p2a0ef0af1b)" style="fill: none"/>
    <path clip-path="url(#p2a0ef0af1b)" style="fill: none"/>
    <path clip-path="url(#p2a0ef0af1b)" style="fill: none"/>
    <path clip-path="url(#p2a0ef0af1b)" style="fill: none"/>
    <path clip-path="url(#p2a0ef0af1b)" style="fill: none"/>
    <path clip-path="url(#p2a0ef0af1b)" style="fill: none"/>
    <path clip-path="url(#p2a0ef0af1b)" style="fill: none"/>
    <path clip-path="url(#p2a0ef0af1b)" style="fill: none"/>
    <path clip-path="url(#p2a0ef0af1b)" style="fill: none"/>
    <path clip-path="url(#p2a0ef0af1b)" style="fill: none"/>
    <path clip-path="url(#p2a0ef0af1b)" style="fill: none"/>
    <path clip-path="url(#p2a0ef0af1b)" style="fill: none"/>
    <path clip-path="url(#p2a0ef0af1b)" style="fill: none"/>
    <path clip-path="url(#p2a0ef0af1b)" style="fill: none"/>
   </g>
   <g id="text_1">
    <g clip-path="url(#p2a0ef0af1b)">
     <!-- 0 -->
     <g style="opacity: 0" transform="translate(45.608248 688.221215) rotate(-5.498351) scale(0.12 -0.12)">
      <defs>
       <path id="DejaVuSans-30" d="M 2034 4250 
Q 1547 4250 1301 3770 
Q 1056 3291 1056 2328 
Q 1056 1369 1301 889 
Q 1547 409 2034 409 
Q 2525 409 2770 889 
Q 3016 1369 3016 2328 
Q 3016 3291 2770 3770 
Q 2525 4250 2034 4250 
z
M 2034 4750 
Q 2819 4750 3233 4129 
Q 3647 3509 3647 2328 
Q 3647 1150 3233 529 
Q 2819 -91 2034 -91 
Q 1250 -91 836 529 
Q 422 1150 422 2328 
Q 422 3509 836 4129 
Q 1250 4750 2034 4750 
z
" transform="scale(0.015625)"/>
      </defs>
      <use xlink:href="#DejaVuSans-30"/>
     </g>
    </g>
   </g>
   <g id="text_2">
    <g clip-path="url(#p2a0ef0af1b)">
     <!-- 1 -->
     <g style="opacity: 0" transform="translate(32.302704 735.212041) rotate(-2.038566) scale(0.12 -0.12)">
      <defs>
       <path id="DejaVuSans-31" d="M 794 531 
L 1825 531 
L 1825 4091 
L 703 3866 
L 703 4441 
L 1819 4666 
L 2450 4666 
L 2450 531 
L 3481 531 
L 3481 0 
L 794 0 
L 794 531 
z
" transform="scale(0.015625)"/>
      </defs>
      <use xlink:href="#DejaVuSans-31"/>
     </g>
    </g>
   </g>
   <g id="text_3">
    <g clip-path="url(#p2a0ef0af1b)">
     <!-- 1 -->
     <g style="opacity: 0" transform="translate(118.354937 741.63867) rotate(-16.282838) scale(0.12 -0.12)">
      <use xlink:href="#DejaVuSans-31"/>
     </g>
    </g>
   </g>
   <g id="text_4">
    <g clip-path="url(#p2a0ef0af1b)">
     <!-- 2 -->
     <g style="opacity: 0" transform="translate(8.309254 812.364189) rotate(-337.940006) scale(0.12 -0.12)">
      <defs>
       <path id="DejaVuSans-32" d="M 1228 531 
L 3431 531 
L 3431 0 
L 469 0 
L 469 531 
Q 828 903 1448 1529 
Q 2069 2156 2228 2338 
Q 2531 2678 2651 2914 
Q 2772 3150 2772 3378 
Q 2772 3750 2511 3984 
Q 2250 4219 1831 4219 
Q 1534 4219 1204 4116 
Q 875 4013 500 3803 
L 500 4441 
Q 881 4594 1212 4672 
Q 1544 4750 1819 4750 
Q 2544 4750 2975 4387 
Q 3406 4025 3406 3419 
Q 3406 3131 3298 2873 
Q 3191 2616 2906 2266 
Q 2828 2175 2409 1742 
Q 1991 1309 1228 531 
z
" transform="scale(0.015625)"/>
      </defs>
      <use xlink:href="#DejaVuSans-32"/>
     </g>
    </g>
   </g>
  </g>
 </g>
 <defs>
  <clipPath id="p2a0ef0af1b">
   <rect x="0" y="0" width="576" height="816.226927"/>
  </clipPath>
 </defs>
</svg>
