<?xml version="1.0" encoding="utf-8" standalone="no"?>
<!DOCTYPE svg PUBLIC "-//W3C//DTD SVG 1.1//EN"
  "http://www.w3.org/Graphics/SVG/1.1/DTD/svg11.dtd">
<svg xmlns:xlink="http://www.w3.org/1999/xlink" width="576pt" height="817.804821pt" viewBox="0 0 576 817.804821" xmlns="http://www.w3.org/2000/svg" version="1.1">
 <metadata>
  <rdf:RDF xmlns:dc="http://purl.org/dc/elements/1.1/" xmlns:cc="http://creativecommons.org/ns#" xmlns:rdf="http://www.w3.org/1999/02/22-rdf-syntax-ns#">
   <cc:Work>
    <dc:type rdf:resource="http://purl.org/dc/dcmitype/StillImage"/>
    <dc:date>2025-07-25T22:46:03.277391</dc:date>
    <dc:format>image/svg+xml</dc:format>
    <dc:creator>
     <cc:Agent>
      <dc:title>Matplotlib v3.10.3, https://matplotlib.org/</dc:title>
     </cc:Agent>
    </dc:creator>
   </cc:Work>
  </rdf:RDF>
 </metadata>
 <defs>
  <style type="text/css">*{stroke-linejoin: round; stroke-linecap: butt}</style>
 </defs>
 <g id="figure_1">
  <g id="patch_1">
   <path d="M 0 817.804821 
L 576 817.804821 
L 576 0 
L 0 0 
L 0 817.804821 
z
" style="fill: none; opacity: 0"/>
  </g>
  <g id="axes_1">
   <g id="QuadContourSet_1">
    <path d="M 572.727273 19.70614 
L 575.344628 16.421784 
L 576 13.934507 
L 576 13.137427 
L 576 12.149816 
L 575.654087 13.137427 
L 574.88016 16.421784 
L 572.727273 19.123309 
L 570.035313 16.421784 
L 570.589087 13.137427 
L 569.454545 11.998854 
L 567.31636 9.85307 
L 566.181818 8.714497 
L 564.043633 6.568713 
L 565.518685 3.284357 
L 562.909091 0.960077 
L 561.917072 0 
L 560.940598 0 
L 562.909091 1.90511 
L 564.457645 3.284357 
L 563.582337 6.568713 
L 566.181818 9.177431 
L 566.855065 9.85307 
L 569.454545 12.461788 
L 570.127792 13.137427 
L 569.454545 16.421784 
z
M 572.727273 9.960595 
L 573.086105 9.85307 
L 572.727273 9.627193 
L 572.620128 9.85307 
z
" clip-path="url(#pb073409bfe)" style="fill: #f5f9fe; fill-opacity: 0.9"/>
    <path d="M 572.727273 19.123309 
L 574.88016 16.421784 
L 575.654087 13.137427 
L 576 12.149816 
L 576 10.347017 
L 575.022651 13.137427 
L 574.415693 16.421784 
L 572.727273 18.540478 
L 570.616081 16.421784 
L 571.050383 13.137427 
L 569.454545 11.535919 
L 567.777655 9.85307 
L 566.181818 8.251562 
L 564.504928 6.568713 
L 566.181818 3.591495 
L 566.704166 3.284357 
L 566.181818 2.899448 
L 562.909091 0.015044 
L 562.893546 0 
L 561.917072 0 
L 562.909091 0.960077 
L 565.518685 3.284357 
L 564.043633 6.568713 
L 566.181818 8.714497 
L 567.31636 9.85307 
L 569.454545 11.998854 
L 570.589087 13.137427 
L 570.035313 16.421784 
z
M 572.727273 10.64597 
L 575.373327 9.85307 
L 572.727273 8.187436 
L 571.93718 9.85307 
z
M 572.620128 9.85307 
L 572.727273 9.627193 
L 573.086105 9.85307 
L 572.727273 9.960595 
z
M 569.454545 7.140307 
L 570.78069 6.568713 
L 569.454545 5.650781 
L 568.884976 6.568713 
z
" clip-path="url(#pb073409bfe)" style="fill: #eff6fc; fill-opacity: 0.9"/>
    <path d="M 572.727273 18.540478 
L 574.415693 16.421784 
L 575.022651 13.137427 
L 576 10.347017 
L 576 9.85307 
L 576 6.568713 
L 576 3.560968 
L 573.612793 6.568713 
L 572.727273 6.747678 
L 572.51206 6.568713 
L 569.454545 4.452358 
L 568.141365 6.568713 
L 566.181818 7.788628 
L 564.966224 6.568713 
L 566.181818 4.410498 
L 568.097034 3.284357 
L 566.181818 1.873069 
L 564.055626 0 
L 562.909091 0 
L 562.893546 0 
L 562.909091 0.015044 
L 566.181818 2.899448 
L 566.704166 3.284357 
L 566.181818 3.591495 
L 564.504928 6.568713 
L 566.181818 8.251562 
L 567.777655 9.85307 
L 569.454545 11.535919 
L 571.050383 13.137427 
L 570.616081 16.421784 
z
M 571.196848 16.421784 
L 571.511678 13.137427 
L 572.727273 11.331344 
L 574.391216 13.137427 
L 573.951226 16.421784 
L 572.727273 17.957647 
z
M 568.238951 9.85307 
L 569.454545 7.88656 
L 571.254233 9.85307 
L 569.454545 11.072984 
z
M 571.93718 9.85307 
L 572.727273 8.187436 
L 575.373327 9.85307 
L 572.727273 10.64597 
z
M 568.884976 6.568713 
L 569.454545 5.650781 
L 570.78069 6.568713 
L 569.454545 7.140307 
z
" clip-path="url(#pb073409bfe)" style="fill: #eaf3fb; fill-opacity: 0.9"/>
    <path d="M 572.727273 17.957647 
L 573.951226 16.421784 
L 574.391216 13.137427 
L 572.727273 11.331344 
L 571.511678 13.137427 
L 571.196848 16.421784 
z
M 571.777616 16.421784 
L 571.972973 13.137427 
L 572.727273 12.016719 
L 573.759781 13.137427 
L 573.486759 16.421784 
L 572.727273 17.374815 
z
M 569.454545 11.072984 
L 571.254233 9.85307 
L 569.454545 7.88656 
L 568.238951 9.85307 
z
M 568.700246 9.85307 
L 569.454545 8.632814 
L 570.571285 9.85307 
L 569.454545 10.61005 
z
M 566.181818 7.788628 
L 568.141365 6.568713 
L 569.454545 4.452358 
L 572.51206 6.568713 
L 572.727273 6.747678 
L 573.612793 6.568713 
L 576 3.560968 
L 576 3.284357 
L 576 1.392937 
L 573.137872 0 
L 572.727273 0 
L 572.02493 0 
L 569.454545 3.075989 
L 566.181818 0.84669 
L 565.220709 0 
L 564.055626 0 
L 566.181818 1.873069 
L 568.097034 3.284357 
L 566.181818 4.410498 
L 564.966224 6.568713 
z
M 565.427519 6.568713 
L 566.181818 5.2295 
L 567.397753 6.568713 
L 566.181818 7.325693 
z
" clip-path="url(#pb073409bfe)" style="fill: #e5eff9; fill-opacity: 0.9"/>
    <path d="M 572.727273 17.374815 
L 573.486759 16.421784 
L 573.759781 13.137427 
L 572.727273 12.016719 
L 571.972973 13.137427 
L 571.777616 16.421784 
z
M 572.358383 16.421784 
L 572.434269 13.137427 
L 572.727273 12.702093 
L 573.128345 13.137427 
L 573.022291 16.421784 
L 572.727273 16.791984 
z
M 569.454545 10.61005 
L 570.571285 9.85307 
L 569.454545 8.632814 
L 568.700246 9.85307 
z
M 569.161542 9.85307 
L 569.454545 9.379068 
L 569.888337 9.85307 
L 569.454545 10.147115 
z
M 566.181818 7.325693 
L 567.397753 6.568713 
L 566.181818 5.2295 
L 565.427519 6.568713 
z
M 565.888814 6.568713 
L 566.181818 6.048503 
L 566.654142 6.568713 
L 566.181818 6.862758 
z
M 566.181818 0.84669 
L 569.454545 3.075989 
L 572.02493 0 
L 569.454545 0 
L 566.181818 0 
L 565.220709 0 
z
M 576 1.392937 
L 576 0 
L 573.137872 0 
z
" clip-path="url(#pb073409bfe)" style="fill: #dfecf7; fill-opacity: 0.9"/>
    <path d="M 572.727273 16.791984 
L 573.022291 16.421784 
L 573.128345 13.137427 
L 572.727273 12.702093 
L 572.434269 13.137427 
L 572.358383 16.421784 
z
M 569.454545 10.147115 
L 569.888337 9.85307 
L 569.454545 9.379068 
L 569.161542 9.85307 
z
M 566.181818 6.862758 
L 566.654142 6.568713 
L 566.181818 6.048503 
L 565.888814 6.568713 
z
" clip-path="url(#pb073409bfe)" style="fill: #dae8f6; fill-opacity: 0.9"/>
    <path clip-path="url(#pb073409bfe)" style="fill: #d6e5f4; fill-opacity: 0.9"/>
    <path clip-path="url(#pb073409bfe)" style="fill: #d0e2f2; fill-opacity: 0.9"/>
    <path clip-path="url(#pb073409bfe)" style="fill: #cbdef1; fill-opacity: 0.9"/>
    <path clip-path="url(#pb073409bfe)" style="fill: #c6dbef; fill-opacity: 0.9"/>
    <path clip-path="url(#pb073409bfe)" style="fill: #bed8ec; fill-opacity: 0.9"/>
    <path clip-path="url(#pb073409bfe)" style="fill: #b5d4e9; fill-opacity: 0.9"/>
    <path clip-path="url(#pb073409bfe)" style="fill: #add0e6; fill-opacity: 0.9"/>
    <path clip-path="url(#pb073409bfe)" style="fill: #a5cde3; fill-opacity: 0.9"/>
    <path clip-path="url(#pb073409bfe)" style="fill: #9cc9e1; fill-opacity: 0.9"/>
    <path clip-path="url(#pb073409bfe)" style="fill: #91c3de; fill-opacity: 0.9"/>
    <path clip-path="url(#pb073409bfe)" style="fill: #85bcdc; fill-opacity: 0.9"/>
    <path clip-path="url(#pb073409bfe)" style="fill: #7cb7da; fill-opacity: 0.9"/>
    <path clip-path="url(#pb073409bfe)" style="fill: #71b1d7; fill-opacity: 0.9"/>
    <path clip-path="url(#pb073409bfe)" style="fill: #66abd4; fill-opacity: 0.9"/>
    <path clip-path="url(#pb073409bfe)" style="fill: #5da5d1; fill-opacity: 0.9"/>
    <path clip-path="url(#pb073409bfe)" style="fill: #56a0ce; fill-opacity: 0.9"/>
    <path clip-path="url(#pb073409bfe)" style="fill: #4d99ca; fill-opacity: 0.9"/>
    <path clip-path="url(#pb073409bfe)" style="fill: #4493c7; fill-opacity: 0.9"/>
    <path clip-path="url(#pb073409bfe)" style="fill: #3c8cc3; fill-opacity: 0.9"/>
    <path clip-path="url(#pb073409bfe)" style="fill: #3686c0; fill-opacity: 0.9"/>
    <path clip-path="url(#pb073409bfe)" style="fill: #2f7fbc; fill-opacity: 0.9"/>
    <path clip-path="url(#pb073409bfe)" style="fill: #2777b8; fill-opacity: 0.9"/>
    <path clip-path="url(#pb073409bfe)" style="fill: #2070b4; fill-opacity: 0.9"/>
    <path clip-path="url(#pb073409bfe)" style="fill: #1c6ab0; fill-opacity: 0.9"/>
    <path clip-path="url(#pb073409bfe)" style="fill: #1663aa; fill-opacity: 0.9"/>
    <path clip-path="url(#pb073409bfe)" style="fill: #115ca5; fill-opacity: 0.9"/>
    <path clip-path="url(#pb073409bfe)" style="fill: #0c56a0; fill-opacity: 0.9"/>
    <path clip-path="url(#pb073409bfe)" style="fill: #084f99; fill-opacity: 0.9"/>
    <path clip-path="url(#pb073409bfe)" style="fill: #08488e; fill-opacity: 0.9"/>
    <path clip-path="url(#pb073409bfe)" style="fill: #084184; fill-opacity: 0.9"/>
    <path clip-path="url(#pb073409bfe)" style="fill: #083a7a; fill-opacity: 0.9"/>
    <path clip-path="url(#pb073409bfe)" style="fill: #083370; fill-opacity: 0.9"/>
    <path clip-path="url(#pb073409bfe)" style="fill: #08306b; fill-opacity: 0.9"/>
   </g>
   <g id="QuadContourSet_2">
    <path d="M 560.940598 0 
L 562.909091 1.90511 
L 563.317489 2.268857 
M 570.565692 17.536879 
L 572.727273 19.70614 
L 575.344628 16.421784 
L 576 13.934507 
" clip-path="url(#pb073409bfe)" style="fill: none"/>
    <path d="M 561.917072 0 
L 562.909091 0.960077 
L 564.486726 2.365225 
M 571.203208 17.593828 
L 572.727273 19.123309 
L 574.88016 16.421784 
L 575.654087 13.137427 
L 576 12.149816 
M 572.727273 9.960595 
L 572.620128 9.85307 
L 572.727273 9.627193 
L 573.086105 9.85307 
L 572.727273 9.960595 
" clip-path="url(#pb073409bfe)" style="fill: none"/>
    <path d="M 571.005859 13.474134 
L 570.616081 16.421784 
L 572.727273 18.540478 
L 574.415693 16.421784 
L 575.022651 13.137427 
L 576 10.347017 
M 572.727273 10.64597 
L 571.93718 9.85307 
L 572.727273 8.187436 
L 575.373327 9.85307 
L 572.727273 10.64597 
M 569.454545 7.140307 
L 568.884976 6.568713 
L 569.454545 5.650781 
L 570.78069 6.568713 
L 569.454545 7.140307 
z
" clip-path="url(#pb073409bfe)" style="fill: none"/>
    <path d="M 564.055626 0 
L 565.574249 1.337831 
M 573.519017 6.587666 
L 573.612793 6.568713 
L 576 3.560968 
M 572.727273 17.957647 
L 573.951226 16.421784 
L 574.391216 13.137427 
L 572.727273 11.331344 
L 571.511678 13.137427 
L 571.196848 16.421784 
L 572.727273 17.957647 
z
M 569.454545 11.072984 
L 571.254233 9.85307 
L 569.454545 7.88656 
L 568.238951 9.85307 
L 569.454545 11.072984 
z
" clip-path="url(#pb073409bfe)" style="fill: none"/>
    <path d="M 565.220709 0 
L 566.181818 0.84669 
L 569.454545 3.075989 
L 572.02493 0 
M 573.137872 0 
L 576 1.392937 
M 572.727273 17.374815 
L 573.486759 16.421784 
L 573.759781 13.137427 
L 572.727273 12.016719 
L 571.972973 13.137427 
L 571.777616 16.421784 
L 572.727273 17.374815 
z
M 569.454545 10.61005 
L 570.571285 9.85307 
L 569.454545 8.632814 
L 568.700246 9.85307 
L 569.454545 10.61005 
z
M 566.181818 7.325693 
L 567.397753 6.568713 
L 566.181818 5.2295 
L 565.427519 6.568713 
L 566.181818 7.325693 
z
" clip-path="url(#pb073409bfe)" style="fill: none"/>
    <path d="M 572.727273 16.791984 
L 573.022291 16.421784 
L 573.128345 13.137427 
L 572.727273 12.702093 
L 572.434269 13.137427 
L 572.358383 16.421784 
L 572.727273 16.791984 
z
M 569.454545 10.147115 
L 569.888337 9.85307 
L 569.454545 9.379068 
L 569.161542 9.85307 
L 569.454545 10.147115 
z
M 566.181818 6.862758 
L 566.654142 6.568713 
L 566.181818 6.048503 
L 565.888814 6.568713 
L 566.181818 6.862758 
z
" clip-path="url(#pb073409bfe)" style="fill: none"/>
    <path clip-path="url(#pb073409bfe)" style="fill: none"/>
    <path clip-path="url(#pb073409bfe)" style="fill: none"/>
    <path clip-path="url(#pb073409bfe)" style="fill: none"/>
    <path clip-path="url(#pb073409bfe)" style="fill: none"/>
    <path clip-path="url(#pb073409bfe)" style="fill: none"/>
    <path clip-path="url(#pb073409bfe)" style="fill: none"/>
    <path clip-path="url(#pb073409bfe)" style="fill: none"/>
    <path clip-path="url(#pb073409bfe)" style="fill: none"/>
    <path clip-path="url(#pb073409bfe)" style="fill: none"/>
    <path clip-path="url(#pb073409bfe)" style="fill: none"/>
    <path clip-path="url(#pb073409bfe)" style="fill: none"/>
    <path clip-path="url(#pb073409bfe)" style="fill: none"/>
    <path clip-path="url(#pb073409bfe)" style="fill: none"/>
    <path clip-path="url(#pb073409bfe)" style="fill: none"/>
    <path clip-path="url(#pb073409bfe)" style="fill: none"/>
    <path clip-path="url(#pb073409bfe)" style="fill: none"/>
    <path clip-path="url(#pb073409bfe)" style="fill: none"/>
    <path clip-path="url(#pb073409bfe)" style="fill: none"/>
    <path clip-path="url(#pb073409bfe)" style="fill: none"/>
    <path clip-path="url(#pb073409bfe)" style="fill: none"/>
    <path clip-path="url(#pb073409bfe)" style="fill: none"/>
    <path clip-path="url(#pb073409bfe)" style="fill: none"/>
    <path clip-path="url(#pb073409bfe)" style="fill: none"/>
    <path clip-path="url(#pb073409bfe)" style="fill: none"/>
    <path clip-path="url(#pb073409bfe)" style="fill: none"/>
    <path clip-path="url(#pb073409bfe)" style="fill: none"/>
    <path clip-path="url(#pb073409bfe)" style="fill: none"/>
    <path clip-path="url(#pb073409bfe)" style="fill: none"/>
    <path clip-path="url(#pb073409bfe)" style="fill: none"/>
    <path clip-path="url(#pb073409bfe)" style="fill: none"/>
    <path clip-path="url(#pb073409bfe)" style="fill: none"/>
    <path clip-path="url(#pb073409bfe)" style="fill: none"/>
    <path clip-path="url(#pb073409bfe)" style="fill: none"/>
   </g>
   <g id="text_1">
    <g clip-path="url(#pb073409bfe)">
     <!-- 0 -->
     <g style="opacity: 0" transform="translate(561.835086 9.272128) rotate(-312.460807) scale(0.12 -0.12)">
      <defs>
       <path id="DejaVuSans-30" d="M 2034 4250 
Q 1547 4250 1301 3770 
Q 1056 3291 1056 2328 
Q 1056 1369 1301 889 
Q 1547 409 2034 409 
Q 2525 409 2770 889 
Q 3016 1369 3016 2328 
Q 3016 3291 2770 3770 
Q 2525 4250 2034 4250 
z
M 2034 4750 
Q 2819 4750 3233 4129 
Q 3647 3509 3647 2328 
Q 3647 1150 3233 529 
Q 2819 -91 2034 -91 
Q 1250 -91 836 529 
Q 422 1150 422 2328 
Q 422 3509 836 4129 
Q 1250 4750 2034 4750 
z
" transform="scale(0.015625)"/>
      </defs>
      <use xlink:href="#DejaVuSans-30"/>
     </g>
    </g>
   </g>
   <g id="text_2">
    <g clip-path="url(#pb073409bfe)">
     <!-- 1 -->
     <g style="opacity: 0" transform="translate(562.303616 9.212693) rotate(-311.781964) scale(0.12 -0.12)">
      <defs>
       <path id="DejaVuSans-31" d="M 794 531 
L 1825 531 
L 1825 4091 
L 703 3866 
L 703 4441 
L 1819 4666 
L 2450 4666 
L 2450 531 
L 3481 531 
L 3481 0 
L 794 0 
L 794 531 
z
" transform="scale(0.015625)"/>
      </defs>
      <use xlink:href="#DejaVuSans-31"/>
     </g>
    </g>
   </g>
   <g id="text_3">
    <g clip-path="url(#pb073409bfe)">
     <!-- 2 -->
     <g style="opacity: 0" transform="translate(560.293274 3.775928) rotate(-285.513345) scale(0.12 -0.12)">
      <defs>
       <path id="DejaVuSans-32" d="M 1228 531 
L 3431 531 
L 3431 0 
L 469 0 
L 469 531 
Q 828 903 1448 1529 
Q 2069 2156 2228 2338 
Q 2531 2678 2651 2914 
Q 2772 3150 2772 3378 
Q 2772 3750 2511 3984 
Q 2250 4219 1831 4219 
Q 1534 4219 1204 4116 
Q 875 4013 500 3803 
L 500 4441 
Q 881 4594 1212 4672 
Q 1544 4750 1819 4750 
Q 2544 4750 2975 4387 
Q 3406 4025 3406 3419 
Q 3406 3131 3298 2873 
Q 3191 2616 2906 2266 
Q 2828 2175 2409 1742 
Q 1991 1309 1228 531 
z
" transform="scale(0.015625)"/>
      </defs>
      <use xlink:href="#DejaVuSans-32"/>
     </g>
    </g>
   </g>
   <g id="text_4">
    <g clip-path="url(#pb073409bfe)">
     <!-- 3 -->
     <g style="opacity: 0" transform="translate(561.825647 10.350161) rotate(-349.518609) scale(0.12 -0.12)">
      <defs>
       <path id="DejaVuSans-33" d="M 2597 2516 
Q 3050 2419 3304 2112 
Q 3559 1806 3559 1356 
Q 3559 666 3084 287 
Q 2609 -91 1734 -91 
Q 1441 -91 1130 -33 
Q 819 25 488 141 
L 488 750 
Q 750 597 1062 519 
Q 1375 441 1716 441 
Q 2309 441 2620 675 
Q 2931 909 2931 1356 
Q 2931 1769 2642 2001 
Q 2353 2234 1838 2234 
L 1294 2234 
L 1294 2753 
L 1863 2753 
Q 2328 2753 2575 2939 
Q 2822 3125 2822 3475 
Q 2822 3834 2567 4026 
Q 2313 4219 1838 4219 
Q 1578 4219 1281 4162 
Q 984 4106 628 3988 
L 628 4550 
Q 988 4650 1302 4700 
Q 1616 4750 1894 4750 
Q 2613 4750 3031 4423 
Q 3450 4097 3450 3541 
Q 3450 3153 3228 2886 
Q 3006 2619 2597 2516 
z
" transform="scale(0.015625)"/>
      </defs>
      <use xlink:href="#DejaVuSans-33"/>
     </g>
    </g>
   </g>
  </g>
 </g>
 <defs>
  <clipPath id="pb073409bfe">
   <rect x="0" y="0" width="576" height="817.804821"/>
  </clipPath>
 </defs>
</svg>
