<?xml version="1.0" encoding="utf-8" standalone="no"?>
<!DOCTYPE svg PUBLIC "-//W3C//DTD SVG 1.1//EN"
  "http://www.w3.org/Graphics/SVG/1.1/DTD/svg11.dtd">
<svg xmlns:xlink="http://www.w3.org/1999/xlink" width="576pt" height="814.089865pt" viewBox="0 0 576 814.089865" xmlns="http://www.w3.org/2000/svg" version="1.1">
 <metadata>
  <rdf:RDF xmlns:dc="http://purl.org/dc/elements/1.1/" xmlns:cc="http://creativecommons.org/ns#" xmlns:rdf="http://www.w3.org/1999/02/22-rdf-syntax-ns#">
   <cc:Work>
    <dc:type rdf:resource="http://purl.org/dc/dcmitype/StillImage"/>
    <dc:date>2025-07-25T22:45:20.700859</dc:date>
    <dc:format>image/svg+xml</dc:format>
    <dc:creator>
     <cc:Agent>
      <dc:title>Matplotlib v3.10.3, https://matplotlib.org/</dc:title>
     </cc:Agent>
    </dc:creator>
   </cc:Work>
  </rdf:RDF>
 </metadata>
 <defs>
  <style type="text/css">*{stroke-linejoin: round; stroke-linecap: butt}</style>
 </defs>
 <g id="figure_1">
  <g id="patch_1">
   <path d="M 0 814.089865 
L 576 814.089865 
L 576 0 
L 0 0 
L 0 814.089865 
z
" style="fill: none; opacity: 0"/>
  </g>
  <g id="axes_1">
   <g id="QuadContourSet_1">
    <path d="M 3.272727 814.089865 
L 6.545455 814.089865 
L 7.38595 814.089865 
L 8.400119 810.820427 
L 8.842428 807.55099 
L 9.090185 804.281553 
L 9.24861 801.012116 
L 9.150888 797.742679 
L 8.759127 794.473241 
L 7.18606 791.203804 
L 6.545455 791.060096 
L 5.532827 791.203804 
L 3.272727 791.45664 
L 3.111513 791.203804 
L 2.109705 787.934367 
L 2.256386 784.66493 
L 2.388982 781.395493 
L 2.499075 778.126055 
L 2.628247 774.856618 
L 2.920626 771.587181 
L 3.213006 768.317744 
L 3.272727 767.649934 
L 4.42372 765.048307 
L 5.138203 761.778869 
L 5.538532 758.509432 
L 5.225577 755.239995 
L 3.272727 753.064805 
L 0 753.504307 
L 0 755.239995 
L 0 758.509432 
L 0 761.778869 
L 0 765.048307 
L 0 768.317744 
L 0 771.587181 
L 0 774.856618 
L 0 778.126055 
L 0 781.395493 
L 0 784.66493 
L 0 787.934367 
L 0 791.203804 
L 0 794.473241 
L 0 797.742679 
L 0 801.012116 
L 0 804.281553 
L 0 807.55099 
L 0 810.820427 
L 0 814.089865 
z
M 19.636364 814.089865 
L 22.909091 814.089865 
L 26.181818 814.089865 
L 29.454545 814.089865 
L 32.727273 814.089865 
L 36 814.089865 
L 39.272727 814.089865 
L 42.545455 814.089865 
L 44.374365 814.089865 
L 44.220934 810.820427 
L 44.074934 807.55099 
L 43.890602 804.281553 
L 43.705958 801.012116 
L 43.521313 797.742679 
L 43.286198 794.473241 
L 42.983487 791.203804 
L 42.668641 787.934367 
L 42.545455 786.709179 
L 42.268911 784.66493 
L 41.864707 781.395493 
L 41.501175 778.126055 
L 41.172472 774.856618 
L 40.87382 771.587181 
L 40.561172 768.317744 
L 40.208427 765.048307 
L 39.855682 761.778869 
L 39.502937 758.509432 
L 39.272727 756.373029 
L 39.110987 755.239995 
L 38.674948 751.970558 
L 38.276753 748.701121 
L 37.911681 745.431683 
L 37.575764 742.162246 
L 37.229985 738.892809 
L 36.824714 735.623372 
L 36.419443 732.353934 
L 36.014171 729.084497 
L 36 728.970172 
L 35.510261 725.81506 
L 35.057861 722.545623 
L 34.65247 719.276186 
L 34.284852 716.006748 
L 33.833953 712.737311 
L 33.291497 709.467874 
L 32.744086 706.198437 
L 32.727273 706.098487 
L 32.03832 702.929 
L 31.417818 699.659562 
L 30.872434 696.390125 
L 30.375338 693.120688 
L 29.782825 689.851251 
L 29.454545 688.039827 
L 29.114835 686.581814 
L 28.429124 683.312376 
L 27.832158 680.042939 
L 27.30773 676.773502 
L 26.81653 673.504065 
L 26.262006 670.234628 
L 26.181818 669.765883 
L 25.546688 666.96519 
L 24.857113 663.695753 
L 24.217604 660.426316 
L 23.622901 657.156879 
L 23.037921 653.887441 
L 22.909091 653.236777 
L 22.294575 650.618004 
L 21.581163 647.348567 
L 20.921214 644.07913 
L 20.310379 640.809693 
L 19.744035 637.540255 
L 19.636364 637.049877 
L 18.908266 634.270818 
L 18.016356 631.001381 
L 17.124446 627.731944 
L 16.363636 624.943073 
L 16.245637 624.462507 
L 15.502073 621.193069 
L 14.848372 617.923632 
L 14.269171 614.654195 
L 13.782735 611.384758 
L 13.308739 608.115321 
L 13.090909 606.612818 
L 12.786173 604.845883 
L 12.237282 601.576446 
L 11.706997 598.307009 
L 10.63293 595.037572 
L 9.818182 592.753836 
L 9.414873 591.768135 
L 8.077155 588.498697 
L 6.739436 585.22926 
L 6.545455 584.755163 
L 5.790273 581.959823 
L 5.024674 578.690386 
L 4.361671 575.420949 
L 3.801936 572.151511 
L 3.272727 568.895811 
L 3.270132 568.882074 
L 2.67718 565.612637 
L 2.130314 562.3432 
L 1.458293 559.073762 
L 0.510142 555.804325 
L 0 554.228616 
L 0 555.804325 
L 0 559.073762 
L 0 562.3432 
L 0 565.612637 
L 0 568.882074 
L 0 572.151511 
L 0 575.420949 
L 0 578.690386 
L 0 581.959823 
L 0 585.22926 
L 0 588.498697 
L 0 591.768135 
L 0 595.037572 
L 0 598.307009 
L 0 601.576446 
L 0 604.845883 
L 0 608.115321 
L 0 611.384758 
L 0 614.654195 
L 0 617.923632 
L 0 621.193069 
L 0 624.462507 
L 0 627.731944 
L 0 631.001381 
L 0 634.270818 
L 0 637.540255 
L 0 640.809693 
L 0 644.07913 
L 0 647.348567 
L 0 650.618004 
L 0 653.887441 
L 0 657.156879 
L 0 660.426316 
L 0 662.487565 
L 0.225152 663.695753 
L 0.846299 666.96519 
L 1.127249 670.234628 
L 1.565158 673.504065 
L 2.168497 676.773502 
L 2.934569 680.042939 
L 3.272727 681.110666 
L 3.623204 683.312376 
L 4.041573 686.581814 
L 4.296313 689.851251 
L 4.638677 693.120688 
L 5.123264 696.390125 
L 5.861931 699.659562 
L 6.545455 701.670106 
L 6.76769 702.929 
L 7.124334 706.198437 
L 7.413723 709.467874 
L 7.84599 712.737311 
L 8.274285 716.006748 
L 8.726491 719.276186 
L 9.31351 722.545623 
L 9.818182 724.746351 
L 9.940931 725.81506 
L 10.099875 729.084497 
L 10.275715 732.353934 
L 10.485719 735.623372 
L 10.740915 738.892809 
L 11.05765 742.162246 
L 11.461234 745.431683 
L 11.993066 748.701121 
L 12.552681 751.970558 
L 12.907626 755.239995 
L 13.090909 757.22604 
L 13.175979 758.509432 
L 13.411403 761.778869 
L 13.677945 765.048307 
L 13.982209 768.317744 
L 14.332814 771.587181 
L 14.741219 774.856618 
L 15.139834 778.126055 
L 15.460353 781.395493 
L 15.780871 784.66493 
L 16.101389 787.934367 
L 16.363636 790.808688 
L 16.396005 791.203804 
L 16.586794 794.473241 
L 16.782002 797.742679 
L 16.981785 801.012116 
L 17.186306 804.281553 
L 17.388737 807.55099 
L 17.585234 810.820427 
L 17.770801 814.089865 
z
M 75.272727 814.089865 
L 77.952421 814.089865 
L 77.880381 810.820427 
L 77.80834 807.55099 
L 77.7363 804.281553 
L 77.592712 801.012116 
L 77.374871 797.742679 
L 77.157029 794.473241 
L 76.939188 791.203804 
L 76.719897 787.934367 
L 76.491882 784.66493 
L 76.261625 781.395493 
L 76.029091 778.126055 
L 75.794248 774.856618 
L 75.557061 771.587181 
L 75.317494 768.317744 
L 75.272727 767.710416 
L 75.074811 765.048307 
L 74.831742 761.778869 
L 74.525786 758.509432 
L 74.193051 755.239995 
L 73.860316 751.970558 
L 73.52758 748.701121 
L 73.196302 745.431683 
L 72.86808 742.162246 
L 72.541023 738.892809 
L 72.215124 735.623372 
L 72 733.458879 
L 71.891316 732.353934 
L 71.569728 729.084497 
L 71.248141 725.81506 
L 70.926554 722.545623 
L 70.597136 719.276186 
L 70.05149 716.006748 
L 69.502512 712.737311 
L 68.953533 709.467874 
L 68.727273 708.120382 
L 68.410405 706.198437 
L 67.872811 702.929 
L 67.337014 699.659562 
L 66.803005 696.390125 
L 66.270774 693.120688 
L 65.740312 689.851251 
L 65.454545 688.085442 
L 65.213009 686.581814 
L 64.68782 683.312376 
L 64.162631 680.042939 
L 63.638925 676.773502 
L 63.116459 673.504065 
L 62.593993 670.234628 
L 62.181818 667.655364 
L 62.069692 666.96519 
L 61.537613 663.695753 
L 61.003999 660.426316 
L 60.468846 657.156879 
L 59.932145 653.887441 
L 59.393891 650.618004 
L 58.909091 647.681332 
L 58.853786 647.348567 
L 58.310415 644.07913 
L 57.767045 640.809693 
L 57.202019 637.540255 
L 56.487839 634.270818 
L 55.773659 631.001381 
L 55.636364 630.372857 
L 54.841042 627.731944 
L 53.867622 624.462507 
L 52.906358 621.193069 
L 52.363636 619.328959 
L 51.326067 617.923632 
L 50.104657 614.654195 
L 49.510512 611.384758 
L 49.159153 608.115321 
L 49.090909 607.275354 
L 48.94176 604.845883 
L 48.741044 601.576446 
L 48.540328 598.307009 
L 47.599229 595.037572 
L 46.594116 591.768135 
L 45.818182 589.24417 
L 45.462866 588.498697 
L 44.082753 585.22926 
L 42.937788 581.959823 
L 42.545455 580.694824 
L 40.703772 578.690386 
L 39.272727 576.691865 
L 39.048087 575.420949 
L 38.622301 572.151511 
L 38.196516 568.882074 
L 37.77073 565.612637 
L 37.344945 562.3432 
L 36.806217 559.073762 
L 36 556.483663 
L 35.779432 555.804325 
L 34.77087 552.534888 
L 33.753196 549.265451 
L 32.735523 545.996014 
L 32.727273 545.969508 
L 30.581414 542.726576 
L 29.454545 540.470727 
L 29.016149 539.457139 
L 27.892574 536.187702 
L 27.073636 532.918265 
L 26.450231 529.648828 
L 26.181818 527.951223 
L 25.984242 526.37939 
L 25.573279 523.109953 
L 24.82874 519.840516 
L 23.803389 516.571079 
L 22.909091 513.719516 
L 22.73009 513.301642 
L 21.490836 510.032204 
L 20.481163 506.762767 
L 19.642681 503.49333 
L 19.636364 503.472334 
L 16.363636 501.256333 
L 16.110795 500.223893 
L 15.413818 496.954456 
L 14.951117 493.685018 
L 14.564484 490.415581 
L 14.177852 487.146144 
L 13.79122 483.876707 
L 13.090909 481.572481 
L 12.794145 480.607269 
L 11.772795 477.337832 
L 10.751445 474.068395 
L 9.818182 471.080934 
L 9.631091 470.798958 
L 7.838819 467.529521 
L 6.545455 464.273258 
L 6.536641 464.260083 
L 4.869024 460.990646 
L 3.83958 457.721209 
L 3.272727 455.161433 
L 3.194035 454.451772 
L 2.831494 451.182335 
L 2.468954 447.912897 
L 1.79967 444.64346 
L 0.779704 441.374023 
L 0 438.874734 
L 0 441.374023 
L 0 444.64346 
L 0 446.339012 
L 0.33276 447.912897 
L 0.6953 451.182335 
L 1.057841 454.451772 
L 1.420381 457.721209 
L 1.782922 460.990646 
L 2.145462 464.260083 
L 2.446985 467.529521 
L 2.788743 470.798958 
L 3.272727 472.933788 
L 5.429617 474.068395 
L 6.545455 474.603125 
L 8.634205 477.337832 
L 9.818182 478.442533 
L 10.494431 480.607269 
L 11.507456 483.876707 
L 11.787669 487.146144 
L 12.109247 490.415581 
L 12.516397 493.685018 
L 13.048513 496.954456 
L 13.090909 497.17792 
L 13.503969 500.223893 
L 14.052295 503.49333 
L 14.753801 506.762767 
L 15.683095 510.032204 
L 16.363636 511.900901 
L 18.437896 513.301642 
L 19.636364 514.110963 
L 20.509469 516.571079 
L 21.969027 519.840516 
L 22.909091 522.107788 
L 23.142187 523.109953 
L 23.55315 526.37939 
L 23.964112 529.648828 
L 24.375075 532.918265 
L 24.786038 536.187702 
L 25.120766 539.457139 
L 25.495123 542.726576 
L 25.962641 545.996014 
L 26.181818 547.291914 
L 27.28168 549.265451 
L 29.454545 551.48602 
L 30.47394 552.534888 
L 32.727273 554.55329 
L 33.0795 555.804325 
L 33.980486 559.073762 
L 34.417982 562.3432 
L 34.813833 565.612637 
L 35.360125 568.882074 
L 36 571.798231 
L 36.046008 572.151511 
L 36.471794 575.420949 
L 36.941329 578.690386 
L 37.544092 581.959823 
L 38.299767 585.22926 
L 39.272727 588.492064 
L 39.278822 588.498697 
L 42.282788 591.768135 
L 42.545455 592.054014 
L 43.949107 595.037572 
L 45.788012 598.307009 
L 45.818182 598.526916 
L 46.005397 601.576446 
L 46.206113 604.845883 
L 46.406829 608.115321 
L 46.607545 611.384758 
L 46.808261 614.654195 
L 47.008977 617.923632 
L 47.388876 621.193069 
L 47.994739 624.462507 
L 48.924737 627.731944 
L 49.090909 628.17609 
L 51.510292 631.001381 
L 52.363636 631.997895 
L 53.042333 634.270818 
L 54.029256 637.540255 
L 54.661872 640.809693 
L 55.554702 644.07913 
L 55.636364 644.311089 
L 56.141184 647.348567 
L 56.660172 650.618004 
L 56.965212 653.887441 
L 57.372659 657.156879 
L 57.944487 660.426316 
L 58.805309 663.695753 
L 58.909091 664.002937 
L 59.394601 666.96519 
L 59.928992 670.234628 
L 60.252446 673.504065 
L 60.637253 676.773502 
L 61.162693 680.042939 
L 61.938082 683.312376 
L 62.181818 684.091836 
L 62.581798 686.581814 
L 63.106987 689.851251 
L 63.485906 693.120688 
L 63.836425 696.390125 
L 64.315273 699.659562 
L 65.008713 702.929 
L 65.454545 704.465409 
L 65.737358 706.198437 
L 66.272269 709.467874 
L 66.745137 712.737311 
L 67.086806 716.006748 
L 67.541464 719.276186 
L 67.897158 722.545623 
L 68.346336 725.81506 
L 68.727273 728.046005 
L 68.829421 729.084497 
L 69.151008 732.353934 
L 69.472595 735.623372 
L 69.794183 738.892809 
L 70.080587 742.162246 
L 70.275823 745.431683 
L 70.508747 748.701121 
L 70.79081 751.970558 
L 71.137252 755.239995 
L 71.572955 758.509432 
L 72 761.387741 
L 72.035444 761.778869 
L 72.278513 765.048307 
L 72.521582 768.317744 
L 72.764651 771.587181 
L 73.007719 774.856618 
L 73.250788 778.126055 
L 73.456051 781.395493 
L 73.608057 784.66493 
L 73.779934 787.934367 
L 73.965569 791.203804 
L 74.174387 794.473241 
L 74.413503 797.742679 
L 74.690025 801.012116 
L 74.863326 804.281553 
L 74.973769 807.55099 
L 75.09022 810.820427 
L 75.213121 814.089865 
z
" clip-path="url(#p69b5fc483d)" style="fill: #f5f9fe; fill-opacity: 0.9"/>
    <path d="M 45.818182 814.089865 
L 49.090909 814.089865 
L 52.363636 814.089865 
L 55.636364 814.089865 
L 56.439684 814.089865 
L 56.318452 810.820427 
L 56.176984 807.55099 
L 56.019664 804.281553 
L 55.843671 801.012116 
L 55.636364 798.131366 
L 55.617428 797.742679 
L 55.331552 794.473241 
L 55.045646 791.203804 
L 54.75974 787.934367 
L 54.473834 784.66493 
L 54.187929 781.395493 
L 53.902023 778.126055 
L 53.616117 774.856618 
L 53.408712 771.587181 
L 53.168085 768.317744 
L 52.870863 765.048307 
L 52.494417 761.778869 
L 52.363636 760.81595 
L 52.154302 758.509432 
L 51.820521 755.239995 
L 51.474118 751.970558 
L 51.127715 748.701121 
L 50.781312 745.431683 
L 50.434909 742.162246 
L 50.152848 738.892809 
L 49.871252 735.623372 
L 49.50867 732.353934 
L 49.090909 729.477244 
L 49.04948 729.084497 
L 48.704786 725.81506 
L 48.36154 722.545623 
L 48.018427 719.276186 
L 47.605455 716.006748 
L 47.073684 712.737311 
L 46.671489 709.467874 
L 46.098459 706.198437 
L 45.818182 705.018225 
L 45.478371 702.929 
L 44.9466 699.659562 
L 44.414829 696.390125 
L 43.88486 693.120688 
L 43.474162 689.851251 
L 42.94656 686.581814 
L 42.545455 684.80495 
L 42.311981 683.312376 
L 41.800564 680.042939 
L 41.284278 676.773502 
L 40.740616 673.504065 
L 40.31215 670.234628 
L 39.802108 666.96519 
L 39.272727 664.676564 
L 39.109632 663.695753 
L 38.565971 660.426316 
L 38.022309 657.156879 
L 37.479166 653.887441 
L 37.053159 650.618004 
L 36.56072 647.348567 
L 36 644.854272 
L 35.879744 644.07913 
L 35.372522 640.809693 
L 34.865299 637.540255 
L 34.857057 634.270818 
L 34.866809 631.001381 
L 34.87656 627.731944 
L 34.886311 624.462507 
L 34.896063 621.193069 
L 34.905814 617.923632 
L 34.77643 614.654195 
L 34.392608 611.384758 
L 33.638153 608.115321 
L 32.727273 606.204486 
L 29.454545 606.695394 
L 28.814384 604.845883 
L 27.623022 601.576446 
L 26.348534 598.307009 
L 26.181818 597.218636 
L 25.981787 595.037572 
L 25.705418 591.768135 
L 25.429049 588.498697 
L 25.15268 585.22926 
L 24.876311 581.959823 
L 24.599942 578.690386 
L 24.317967 575.420949 
L 23.802209 572.151511 
L 22.909091 569.088468 
L 19.636364 569.038902 
L 19.552152 568.882074 
L 17.254355 565.612637 
L 16.363636 564.748306 
L 15.479467 562.3432 
L 14.527301 559.073762 
L 14.196669 555.804325 
L 14.016176 552.534888 
L 13.78153 549.265451 
L 13.344221 545.996014 
L 13.090909 544.87008 
L 12.785738 542.726576 
L 12.162357 539.457139 
L 11.217667 536.187702 
L 9.818182 533.233502 
L 8.398181 532.918265 
L 6.545455 532.506964 
L 5.985668 529.648828 
L 4.990613 526.37939 
L 3.272727 523.25372 
L 3.192977 523.109953 
L 2.595197 519.840516 
L 2.211643 516.571079 
L 1.828088 513.301642 
L 1.444534 510.032204 
L 1.06098 506.762767 
L 0.677425 503.49333 
L 0.293871 500.223893 
L 0 499.072872 
L 0 500.223893 
L 0 503.49333 
L 0 506.762767 
L 0 510.032204 
L 0 513.301642 
L 0 516.571079 
L 0 519.840516 
L 0 523.109953 
L 0 526.37939 
L 0 529.648828 
L 0 532.918265 
L 0 536.187702 
L 0 539.457139 
L 0 542.726576 
L 0 545.996014 
L 0 549.265451 
L 0 552.534888 
L 0 554.228616 
L 0.510142 555.804325 
L 1.458293 559.073762 
L 2.130314 562.3432 
L 2.67718 565.612637 
L 3.270132 568.882074 
L 3.272727 568.895811 
L 3.801936 572.151511 
L 4.361671 575.420949 
L 5.024674 578.690386 
L 5.790273 581.959823 
L 6.545455 584.755163 
L 6.739436 585.22926 
L 8.077155 588.498697 
L 9.414873 591.768135 
L 9.818182 592.753836 
L 10.63293 595.037572 
L 11.706997 598.307009 
L 12.237282 601.576446 
L 12.786173 604.845883 
L 13.090909 606.612818 
L 13.308739 608.115321 
L 13.782735 611.384758 
L 14.269171 614.654195 
L 14.848372 617.923632 
L 15.502073 621.193069 
L 16.245637 624.462507 
L 16.363636 624.943073 
L 17.124446 627.731944 
L 18.016356 631.001381 
L 18.908266 634.270818 
L 19.636364 637.049877 
L 19.744035 637.540255 
L 20.310379 640.809693 
L 20.921214 644.07913 
L 21.581163 647.348567 
L 22.294575 650.618004 
L 22.909091 653.236777 
L 23.037921 653.887441 
L 23.622901 657.156879 
L 24.217604 660.426316 
L 24.857113 663.695753 
L 25.546688 666.96519 
L 26.181818 669.765883 
L 26.262006 670.234628 
L 26.81653 673.504065 
L 27.30773 676.773502 
L 27.832158 680.042939 
L 28.429124 683.312376 
L 29.114835 686.581814 
L 29.454545 688.039827 
L 29.782825 689.851251 
L 30.375338 693.120688 
L 30.872434 696.390125 
L 31.417818 699.659562 
L 32.03832 702.929 
L 32.727273 706.098487 
L 32.744086 706.198437 
L 33.291497 709.467874 
L 33.833953 712.737311 
L 34.284852 716.006748 
L 34.65247 719.276186 
L 35.057861 722.545623 
L 35.510261 725.81506 
L 36 728.970172 
L 36.014171 729.084497 
L 36.419443 732.353934 
L 36.824714 735.623372 
L 37.229985 738.892809 
L 37.575764 742.162246 
L 37.911681 745.431683 
L 38.276753 748.701121 
L 38.674948 751.970558 
L 39.110987 755.239995 
L 39.272727 756.373029 
L 39.502937 758.509432 
L 39.855682 761.778869 
L 40.208427 765.048307 
L 40.561172 768.317744 
L 40.87382 771.587181 
L 41.172472 774.856618 
L 41.501175 778.126055 
L 41.864707 781.395493 
L 42.268911 784.66493 
L 42.545455 786.709179 
L 42.668641 787.934367 
L 42.983487 791.203804 
L 43.286198 794.473241 
L 43.521313 797.742679 
L 43.705958 801.012116 
L 43.890602 804.281553 
L 44.074934 807.55099 
L 44.220934 810.820427 
L 44.374365 814.089865 
z
M 68.727273 814.089865 
L 72 814.089865 
L 75.213121 814.089865 
L 75.09022 810.820427 
L 74.973769 807.55099 
L 74.863326 804.281553 
L 74.690025 801.012116 
L 74.413503 797.742679 
L 74.174387 794.473241 
L 73.965569 791.203804 
L 73.779934 787.934367 
L 73.608057 784.66493 
L 73.456051 781.395493 
L 73.250788 778.126055 
L 73.007719 774.856618 
L 72.764651 771.587181 
L 72.521582 768.317744 
L 72.278513 765.048307 
L 72.035444 761.778869 
L 72 761.387741 
L 71.572955 758.509432 
L 71.137252 755.239995 
L 70.79081 751.970558 
L 70.508747 748.701121 
L 70.275823 745.431683 
L 70.080587 742.162246 
L 69.794183 738.892809 
L 69.472595 735.623372 
L 69.151008 732.353934 
L 68.829421 729.084497 
L 68.727273 728.046005 
L 68.346336 725.81506 
L 67.897158 722.545623 
L 67.541464 719.276186 
L 67.086806 716.006748 
L 66.745137 712.737311 
L 66.272269 709.467874 
L 65.737358 706.198437 
L 65.454545 704.465409 
L 65.008713 702.929 
L 64.315273 699.659562 
L 63.836425 696.390125 
L 63.485906 693.120688 
L 63.106987 689.851251 
L 62.581798 686.581814 
L 62.181818 684.091836 
L 61.938082 683.312376 
L 61.162693 680.042939 
L 60.637253 676.773502 
L 60.252446 673.504065 
L 59.928992 670.234628 
L 59.394601 666.96519 
L 58.909091 664.002937 
L 58.805309 663.695753 
L 57.944487 660.426316 
L 57.372659 657.156879 
L 56.965212 653.887441 
L 56.660172 650.618004 
L 56.141184 647.348567 
L 55.636364 644.311089 
L 55.554702 644.07913 
L 54.661872 640.809693 
L 54.029256 637.540255 
L 53.042333 634.270818 
L 52.363636 631.997895 
L 51.510292 631.001381 
L 49.090909 628.17609 
L 48.924737 627.731944 
L 47.994739 624.462507 
L 47.388876 621.193069 
L 47.008977 617.923632 
L 46.808261 614.654195 
L 46.607545 611.384758 
L 46.406829 608.115321 
L 46.206113 604.845883 
L 46.005397 601.576446 
L 45.818182 598.526916 
L 45.788012 598.307009 
L 43.949107 595.037572 
L 42.545455 592.054014 
L 42.282788 591.768135 
L 39.278822 588.498697 
L 39.272727 588.492064 
L 38.299767 585.22926 
L 37.544092 581.959823 
L 36.941329 578.690386 
L 36.471794 575.420949 
L 36.046008 572.151511 
L 36 571.798231 
L 35.360125 568.882074 
L 34.813833 565.612637 
L 34.417982 562.3432 
L 33.980486 559.073762 
L 33.0795 555.804325 
L 32.727273 554.55329 
L 30.47394 552.534888 
L 29.454545 551.48602 
L 27.28168 549.265451 
L 26.181818 547.291914 
L 25.962641 545.996014 
L 25.495123 542.726576 
L 25.120766 539.457139 
L 24.786038 536.187702 
L 24.375075 532.918265 
L 23.964112 529.648828 
L 23.55315 526.37939 
L 23.142187 523.109953 
L 22.909091 522.107788 
L 21.969027 519.840516 
L 20.509469 516.571079 
L 19.636364 514.110963 
L 18.437896 513.301642 
L 16.363636 511.900901 
L 15.683095 510.032204 
L 14.753801 506.762767 
L 14.052295 503.49333 
L 13.503969 500.223893 
L 13.090909 497.17792 
L 13.048513 496.954456 
L 12.516397 493.685018 
L 12.109247 490.415581 
L 11.787669 487.146144 
L 11.507456 483.876707 
L 10.494431 480.607269 
L 9.818182 478.442533 
L 8.634205 477.337832 
L 6.545455 474.603125 
L 5.429617 474.068395 
L 3.272727 472.933788 
L 2.788743 470.798958 
L 2.446985 467.529521 
L 2.145462 464.260083 
L 1.782922 460.990646 
L 1.420381 457.721209 
L 1.057841 454.451772 
L 0.6953 451.182335 
L 0.33276 447.912897 
L 0 446.339012 
L 0 447.912897 
L 0 451.182335 
L 0 454.451772 
L 0 457.721209 
L 0 460.990646 
L 0 464.176501 
L 0.009268 464.260083 
L 0.140346 467.529521 
L 0.218074 470.798958 
L 0.353043 474.068395 
L 0.606834 477.337832 
L 1.211028 480.607269 
L 3.272727 483.364642 
L 4.34127 483.876707 
L 5.355141 487.146144 
L 5.571443 490.415581 
L 5.787744 493.685018 
L 6.004045 496.954456 
L 6.210727 500.223893 
L 6.408229 503.49333 
L 6.545455 505.137963 
L 7.349437 506.762767 
L 9.818182 508.497603 
L 9.961659 510.032204 
L 10.563588 513.301642 
L 13.090909 516.401096 
L 13.141671 516.571079 
L 14.168005 519.840516 
L 15.566788 523.109953 
L 15.705451 526.37939 
L 16.044925 529.648828 
L 16.363636 531.431055 
L 16.479564 532.918265 
L 16.734416 536.187702 
L 17.050894 539.457139 
L 17.483506 542.726576 
L 18.078271 545.996014 
L 18.947382 549.265451 
L 19.636364 551.099112 
L 22.909091 550.876581 
L 23.020172 552.534888 
L 23.440514 555.804325 
L 25.175598 559.073762 
L 26.181818 560.730381 
L 26.769778 562.3432 
L 27.033464 565.612637 
L 27.297151 568.882074 
L 27.560837 572.151511 
L 27.702961 575.420949 
L 27.715538 578.690386 
L 27.733802 581.959823 
L 27.762741 585.22926 
L 27.815572 588.498697 
L 29.454545 591.272527 
L 32.727273 591.644208 
L 33.840353 591.768135 
L 36 592.008582 
L 36.359885 595.037572 
L 37.306429 598.307009 
L 37.007241 601.576446 
L 37.027184 604.845883 
L 37.047545 608.115321 
L 37.068337 611.384758 
L 37.089574 614.654195 
L 37.111271 617.923632 
L 37.133443 621.193069 
L 37.156106 624.462507 
L 37.529119 627.731944 
L 38.701206 631.001381 
L 39.272727 631.754198 
L 42.545455 632.085977 
L 43.150733 634.270818 
L 45.818182 636.9812 
L 46.260934 637.540255 
L 46.914834 640.809693 
L 47.221725 644.07913 
L 47.560186 647.348567 
L 48.100574 650.618004 
L 49.090909 653.865585 
L 49.094552 653.887441 
L 49.639481 657.156879 
L 50.184411 660.426316 
L 50.52928 663.695753 
L 50.871543 666.96519 
L 51.420255 670.234628 
L 52.363636 673.345283 
L 52.392547 673.504065 
L 52.987831 676.773502 
L 53.541158 680.042939 
L 53.924612 683.312376 
L 54.262344 686.581814 
L 54.783557 689.851251 
L 55.636364 692.968476 
L 55.661037 693.120688 
L 56.191007 696.390125 
L 56.720976 699.659562 
L 57.172022 702.929 
L 57.490481 706.198437 
L 57.975635 709.467874 
L 58.799749 712.737311 
L 58.909091 713.048116 
L 59.415548 716.006748 
L 59.910575 719.276186 
L 60.245558 722.545623 
L 60.534469 725.81506 
L 60.725798 729.084497 
L 60.968159 732.353934 
L 61.285113 735.623372 
L 61.717357 738.892809 
L 62.181818 741.44353 
L 62.255897 742.162246 
L 62.59352 745.431683 
L 62.932195 748.701121 
L 63.271927 751.970558 
L 63.612721 755.239995 
L 63.89423 758.509432 
L 64.066144 761.778869 
L 64.257203 765.048307 
L 64.491951 768.317744 
L 64.787307 771.587181 
L 65.170221 774.856618 
L 65.454545 776.785939 
L 65.563086 778.126055 
L 65.827515 781.395493 
L 66.091416 784.66493 
L 66.354792 787.934367 
L 66.617644 791.203804 
L 66.879973 794.473241 
L 67.139336 797.742679 
L 67.279119 801.012116 
L 67.338596 804.281553 
L 67.402278 807.55099 
L 67.4704 810.820427 
L 67.543445 814.089865 
z
" clip-path="url(#p69b5fc483d)" style="fill: #eff6fc; fill-opacity: 0.9"/>
    <path d="M 58.909091 814.089865 
L 62.181818 814.089865 
L 65.454545 814.089865 
L 67.543445 814.089865 
L 67.4704 810.820427 
L 67.402278 807.55099 
L 67.338596 804.281553 
L 67.279119 801.012116 
L 67.139336 797.742679 
L 66.879973 794.473241 
L 66.617644 791.203804 
L 66.354792 787.934367 
L 66.091416 784.66493 
L 65.827515 781.395493 
L 65.563086 778.126055 
L 65.454545 776.785939 
L 65.170221 774.856618 
L 64.787307 771.587181 
L 64.491951 768.317744 
L 64.257203 765.048307 
L 64.066144 761.778869 
L 63.89423 758.509432 
L 63.612721 755.239995 
L 63.271927 751.970558 
L 62.932195 748.701121 
L 62.59352 745.431683 
L 62.255897 742.162246 
L 62.181818 741.44353 
L 61.717357 738.892809 
L 61.285113 735.623372 
L 60.968159 732.353934 
L 60.725798 729.084497 
L 60.534469 725.81506 
L 60.245558 722.545623 
L 59.910575 719.276186 
L 59.415548 716.006748 
L 58.909091 713.048116 
L 58.799749 712.737311 
L 57.975635 709.467874 
L 57.490481 706.198437 
L 57.172022 702.929 
L 56.720976 699.659562 
L 56.191007 696.390125 
L 55.661037 693.120688 
L 55.636364 692.968476 
L 54.783557 689.851251 
L 54.262344 686.581814 
L 53.924612 683.312376 
L 53.541158 680.042939 
L 52.987831 676.773502 
L 52.392547 673.504065 
L 52.363636 673.345283 
L 51.420255 670.234628 
L 50.871543 666.96519 
L 50.52928 663.695753 
L 50.184411 660.426316 
L 49.639481 657.156879 
L 49.094552 653.887441 
L 49.090909 653.865585 
L 48.100574 650.618004 
L 47.560186 647.348567 
L 47.221725 644.07913 
L 46.914834 640.809693 
L 46.260934 637.540255 
L 45.818182 636.9812 
L 43.150733 634.270818 
L 42.545455 632.085977 
L 39.272727 631.754198 
L 38.701206 631.001381 
L 37.529119 627.731944 
L 37.156106 624.462507 
L 37.133443 621.193069 
L 37.111271 617.923632 
L 37.089574 614.654195 
L 37.068337 611.384758 
L 37.047545 608.115321 
L 37.027184 604.845883 
L 37.007241 601.576446 
L 37.306429 598.307009 
L 36.359885 595.037572 
L 36 592.008582 
L 33.840353 591.768135 
L 32.727273 591.644208 
L 29.454545 591.272527 
L 27.815572 588.498697 
L 27.762741 585.22926 
L 27.733802 581.959823 
L 27.715538 578.690386 
L 27.702961 575.420949 
L 27.560837 572.151511 
L 27.297151 568.882074 
L 27.033464 565.612637 
L 26.769778 562.3432 
L 26.181818 560.730381 
L 25.175598 559.073762 
L 23.440514 555.804325 
L 23.020172 552.534888 
L 22.909091 550.876581 
L 19.636364 551.099112 
L 18.947382 549.265451 
L 18.078271 545.996014 
L 17.483506 542.726576 
L 17.050894 539.457139 
L 16.734416 536.187702 
L 16.479564 532.918265 
L 16.363636 531.431055 
L 16.044925 529.648828 
L 15.705451 526.37939 
L 15.566788 523.109953 
L 14.168005 519.840516 
L 13.141671 516.571079 
L 13.090909 516.401096 
L 10.563588 513.301642 
L 9.961659 510.032204 
L 9.818182 508.497603 
L 7.349437 506.762767 
L 6.545455 505.137963 
L 6.408229 503.49333 
L 6.210727 500.223893 
L 6.004045 496.954456 
L 5.787744 493.685018 
L 5.571443 490.415581 
L 5.355141 487.146144 
L 4.34127 483.876707 
L 3.272727 483.364642 
L 1.211028 480.607269 
L 0.606834 477.337832 
L 0.353043 474.068395 
L 0.218074 470.798958 
L 0.140346 467.529521 
L 0.009268 464.260083 
L 0 464.176501 
L 0 464.260083 
L 0 467.529521 
L 0 470.798958 
L 0 474.068395 
L 0 477.337832 
L 0 480.607269 
L 0 483.876707 
L 0 487.146144 
L 0 490.415581 
L 0 493.685018 
L 0 496.954456 
L 0 499.072872 
L 0.293871 500.223893 
L 0.677425 503.49333 
L 1.06098 506.762767 
L 1.444534 510.032204 
L 1.828088 513.301642 
L 2.211643 516.571079 
L 2.595197 519.840516 
L 3.192977 523.109953 
L 3.272727 523.25372 
L 4.990613 526.37939 
L 5.985668 529.648828 
L 6.545455 532.506964 
L 8.398181 532.918265 
L 9.818182 533.233502 
L 11.217667 536.187702 
L 12.162357 539.457139 
L 12.785738 542.726576 
L 13.090909 544.87008 
L 13.344221 545.996014 
L 13.78153 549.265451 
L 14.016176 552.534888 
L 14.196669 555.804325 
L 14.527301 559.073762 
L 15.479467 562.3432 
L 16.363636 564.748306 
L 17.254355 565.612637 
L 19.552152 568.882074 
L 19.636364 569.038902 
L 22.909091 569.088468 
L 23.802209 572.151511 
L 24.317967 575.420949 
L 24.599942 578.690386 
L 24.876311 581.959823 
L 25.15268 585.22926 
L 25.429049 588.498697 
L 25.705418 591.768135 
L 25.981787 595.037572 
L 26.181818 597.218636 
L 26.348534 598.307009 
L 27.623022 601.576446 
L 28.814384 604.845883 
L 29.454545 606.695394 
L 32.727273 606.204486 
L 33.638153 608.115321 
L 34.392608 611.384758 
L 34.77643 614.654195 
L 34.905814 617.923632 
L 34.896063 621.193069 
L 34.886311 624.462507 
L 34.87656 627.731944 
L 34.866809 631.001381 
L 34.857057 634.270818 
L 34.865299 637.540255 
L 35.372522 640.809693 
L 35.879744 644.07913 
L 36 644.854272 
L 36.56072 647.348567 
L 37.053159 650.618004 
L 37.479166 653.887441 
L 38.022309 657.156879 
L 38.565971 660.426316 
L 39.109632 663.695753 
L 39.272727 664.676564 
L 39.802108 666.96519 
L 40.31215 670.234628 
L 40.740616 673.504065 
L 41.284278 676.773502 
L 41.800564 680.042939 
L 42.311981 683.312376 
L 42.545455 684.80495 
L 42.94656 686.581814 
L 43.474162 689.851251 
L 43.88486 693.120688 
L 44.414829 696.390125 
L 44.9466 699.659562 
L 45.478371 702.929 
L 45.818182 705.018225 
L 46.098459 706.198437 
L 46.671489 709.467874 
L 47.073684 712.737311 
L 47.605455 716.006748 
L 48.018427 719.276186 
L 48.36154 722.545623 
L 48.704786 725.81506 
L 49.04948 729.084497 
L 49.090909 729.477244 
L 49.50867 732.353934 
L 49.871252 735.623372 
L 50.152848 738.892809 
L 50.434909 742.162246 
L 50.781312 745.431683 
L 51.127715 748.701121 
L 51.474118 751.970558 
L 51.820521 755.239995 
L 52.154302 758.509432 
L 52.363636 760.81595 
L 52.494417 761.778869 
L 52.870863 765.048307 
L 53.168085 768.317744 
L 53.408712 771.587181 
L 53.616117 774.856618 
L 53.902023 778.126055 
L 54.187929 781.395493 
L 54.473834 784.66493 
L 54.75974 787.934367 
L 55.045646 791.203804 
L 55.331552 794.473241 
L 55.617428 797.742679 
L 55.636364 798.131366 
L 55.843671 801.012116 
L 56.019664 804.281553 
L 56.176984 807.55099 
L 56.318452 810.820427 
L 56.439684 814.089865 
z
" clip-path="url(#p69b5fc483d)" style="fill: #eaf3fb; fill-opacity: 0.9"/>
    <path clip-path="url(#p69b5fc483d)" style="fill: #e5eff9; fill-opacity: 0.9"/>
    <path clip-path="url(#p69b5fc483d)" style="fill: #dfecf7; fill-opacity: 0.9"/>
    <path clip-path="url(#p69b5fc483d)" style="fill: #dae8f6; fill-opacity: 0.9"/>
    <path clip-path="url(#p69b5fc483d)" style="fill: #d6e5f4; fill-opacity: 0.9"/>
    <path clip-path="url(#p69b5fc483d)" style="fill: #d0e2f2; fill-opacity: 0.9"/>
    <path clip-path="url(#p69b5fc483d)" style="fill: #cbdef1; fill-opacity: 0.9"/>
    <path clip-path="url(#p69b5fc483d)" style="fill: #c6dbef; fill-opacity: 0.9"/>
    <path clip-path="url(#p69b5fc483d)" style="fill: #bed8ec; fill-opacity: 0.9"/>
    <path clip-path="url(#p69b5fc483d)" style="fill: #b5d4e9; fill-opacity: 0.9"/>
    <path clip-path="url(#p69b5fc483d)" style="fill: #add0e6; fill-opacity: 0.9"/>
    <path clip-path="url(#p69b5fc483d)" style="fill: #a5cde3; fill-opacity: 0.9"/>
    <path clip-path="url(#p69b5fc483d)" style="fill: #9cc9e1; fill-opacity: 0.9"/>
    <path clip-path="url(#p69b5fc483d)" style="fill: #91c3de; fill-opacity: 0.9"/>
    <path clip-path="url(#p69b5fc483d)" style="fill: #85bcdc; fill-opacity: 0.9"/>
    <path clip-path="url(#p69b5fc483d)" style="fill: #7cb7da; fill-opacity: 0.9"/>
    <path clip-path="url(#p69b5fc483d)" style="fill: #71b1d7; fill-opacity: 0.9"/>
    <path clip-path="url(#p69b5fc483d)" style="fill: #66abd4; fill-opacity: 0.9"/>
    <path clip-path="url(#p69b5fc483d)" style="fill: #5da5d1; fill-opacity: 0.9"/>
    <path clip-path="url(#p69b5fc483d)" style="fill: #56a0ce; fill-opacity: 0.9"/>
    <path clip-path="url(#p69b5fc483d)" style="fill: #4d99ca; fill-opacity: 0.9"/>
    <path clip-path="url(#p69b5fc483d)" style="fill: #4493c7; fill-opacity: 0.9"/>
    <path clip-path="url(#p69b5fc483d)" style="fill: #3c8cc3; fill-opacity: 0.9"/>
    <path clip-path="url(#p69b5fc483d)" style="fill: #3686c0; fill-opacity: 0.9"/>
    <path clip-path="url(#p69b5fc483d)" style="fill: #2f7fbc; fill-opacity: 0.9"/>
    <path clip-path="url(#p69b5fc483d)" style="fill: #2777b8; fill-opacity: 0.9"/>
    <path clip-path="url(#p69b5fc483d)" style="fill: #2070b4; fill-opacity: 0.9"/>
    <path clip-path="url(#p69b5fc483d)" style="fill: #1c6ab0; fill-opacity: 0.9"/>
    <path clip-path="url(#p69b5fc483d)" style="fill: #1663aa; fill-opacity: 0.9"/>
    <path clip-path="url(#p69b5fc483d)" style="fill: #115ca5; fill-opacity: 0.9"/>
    <path clip-path="url(#p69b5fc483d)" style="fill: #0c56a0; fill-opacity: 0.9"/>
    <path clip-path="url(#p69b5fc483d)" style="fill: #084f99; fill-opacity: 0.9"/>
    <path clip-path="url(#p69b5fc483d)" style="fill: #08488e; fill-opacity: 0.9"/>
    <path clip-path="url(#p69b5fc483d)" style="fill: #084184; fill-opacity: 0.9"/>
    <path clip-path="url(#p69b5fc483d)" style="fill: #083a7a; fill-opacity: 0.9"/>
    <path clip-path="url(#p69b5fc483d)" style="fill: #083370; fill-opacity: 0.9"/>
    <path clip-path="url(#p69b5fc483d)" style="fill: #08306b; fill-opacity: 0.9"/>
   </g>
   <g id="QuadContourSet_2">
    <path d="M 7.38595 814.089865 
L 8.400119 810.820427 
L 8.842428 807.55099 
L 9.24861 801.012116 
L 9.150888 797.742679 
L 8.759127 794.473241 
L 7.18606 791.203804 
L 6.545455 791.060096 
L 3.272727 791.45664 
L 3.111513 791.203804 
L 2.120095 787.702775 
M 3.19048 768.56964 
L 3.272727 767.649934 
L 4.42372 765.048307 
L 5.138203 761.778869 
L 5.538532 758.509432 
L 5.225577 755.239995 
L 3.272727 753.064805 
L 0 753.504307 
M 77.952421 814.089865 
L 77.592712 801.012116 
L 75.272727 767.710416 
L 74.525786 758.509432 
L 70.597136 719.276186 
L 65.684151 689.504219 
M 62.649238 670.580338 
L 58.310415 644.07913 
L 57.202019 637.540255 
L 55.636364 630.372857 
L 52.363636 619.328959 
L 51.326067 617.923632 
L 50.104657 614.654195 
L 49.510512 611.384758 
L 49.090909 607.275354 
L 48.540328 598.307009 
L 45.818182 589.24417 
L 45.462866 588.498697 
L 44.082753 585.22926 
L 42.545455 580.694824 
L 40.703772 578.690386 
L 39.272727 576.691865 
L 39.048087 575.420949 
L 37.344945 562.3432 
L 36.806217 559.073762 
L 32.727273 545.969508 
L 30.581414 542.726576 
L 29.016149 539.457139 
L 27.892574 536.187702 
L 27.073636 532.918265 
L 26.181818 527.951223 
L 25.573279 523.109953 
L 24.82874 519.840516 
L 22.73009 513.301642 
L 21.490836 510.032204 
L 20.481163 506.762767 
L 19.636364 503.472334 
L 16.363636 501.256333 
L 15.413818 496.954456 
L 14.564484 490.415581 
L 13.79122 483.876707 
L 9.818182 471.080934 
L 9.631091 470.798958 
L 7.838819 467.529521 
L 6.536641 464.260083 
L 4.869024 460.990646 
L 3.83958 457.721209 
L 3.194035 454.451772 
L 2.468954 447.912897 
L 1.79967 444.64346 
L 0 438.874734 
M 0 662.487565 
L 0.846299 666.96519 
L 1.127249 670.234628 
L 1.565158 673.504065 
L 2.168497 676.773502 
L 3.623204 683.312376 
L 4.041573 686.581814 
L 4.638677 693.120688 
L 5.123264 696.390125 
L 5.861931 699.659562 
L 6.545455 701.670106 
L 6.76769 702.929 
L 8.274285 716.006748 
L 8.726491 719.276186 
L 9.940931 725.81506 
L 10.485719 735.623372 
L 11.05765 742.162246 
L 11.461234 745.431683 
L 12.581101 752.232333 
M 14.30422 771.320546 
L 16.396005 791.203804 
L 17.770801 814.089865 
L 17.770801 814.089865 
" clip-path="url(#p69b5fc483d)" style="fill: none"/>
    <path d="M 75.213121 814.089865 
L 74.967563 807.367278 
M 73.790499 788.120447 
L 72.764651 771.587181 
L 72 761.387741 
L 71.137252 755.239995 
L 70.508747 748.701121 
L 69.472595 735.623372 
L 68.727273 728.046005 
L 67.897158 722.545623 
L 66.745137 712.737311 
L 65.454545 704.465409 
L 65.008713 702.929 
L 64.315273 699.659562 
L 63.836425 696.390125 
L 63.106987 689.851251 
L 62.181818 684.091836 
L 61.938082 683.312376 
L 61.162693 680.042939 
L 60.637253 676.773502 
L 59.394601 666.96519 
L 58.805309 663.695753 
L 57.944487 660.426316 
L 57.372659 657.156879 
L 56.141184 647.348567 
L 55.554702 644.07913 
L 54.661872 640.809693 
L 54.029256 637.540255 
L 52.363636 631.997895 
L 49.090909 628.17609 
L 48.924737 627.731944 
L 47.994739 624.462507 
L 47.388876 621.193069 
L 47.008977 617.923632 
L 45.788012 598.307009 
L 43.949107 595.037572 
L 42.545455 592.054014 
L 39.272727 588.492064 
L 38.299767 585.22926 
L 37.544092 581.959823 
L 36.941329 578.690386 
L 36 571.798231 
L 35.360125 568.882074 
L 34.813833 565.612637 
L 33.980486 559.073762 
L 32.727273 554.55329 
L 29.454545 551.48602 
L 27.28168 549.265451 
L 26.181818 547.291914 
L 25.495123 542.726576 
L 23.142187 523.109953 
L 22.909091 522.107788 
L 19.636364 514.110963 
L 16.363636 511.900901 
L 15.683095 510.032204 
L 14.753801 506.762767 
L 14.052295 503.49333 
L 12.516397 493.685018 
L 11.787669 487.146144 
L 11.507456 483.876707 
L 9.818182 478.442533 
L 8.634205 477.337832 
L 6.545455 474.603125 
L 3.272727 472.933788 
L 2.788743 470.798958 
L 0.33276 447.912897 
L 0 446.339012 
M 0 554.228616 
L 1.458293 559.073762 
L 2.130314 562.3432 
L 4.361671 575.420949 
L 5.790273 581.959823 
L 6.739436 585.22926 
L 10.63293 595.037572 
L 11.706997 598.307009 
L 15.502073 621.193069 
L 16.363636 624.943073 
L 19.744035 637.540255 
L 20.921214 644.07913 
L 22.294575 650.618004 
L 23.037921 653.887441 
L 24.857113 663.695753 
L 26.81653 673.504065 
L 27.832158 680.042939 
L 29.114835 686.581814 
L 29.782825 689.851251 
L 30.421687 693.42553 
M 33.779422 712.408644 
L 34.284852 716.006748 
L 35.057861 722.545623 
L 37.229985 738.892809 
L 38.674948 751.970558 
L 39.502937 758.509432 
L 41.172472 774.856618 
L 42.268911 784.66493 
L 42.668641 787.934367 
L 43.521313 797.742679 
L 44.374365 814.089865 
L 44.374365 814.089865 
" clip-path="url(#p69b5fc483d)" style="fill: none"/>
    <path d="M 67.543445 814.089865 
L 67.139336 797.742679 
L 65.54475 777.899674 
M 63.903903 758.693381 
L 63.612721 755.239995 
L 62.181818 741.44353 
L 61.717357 738.892809 
L 61.285113 735.623372 
L 60.725798 729.084497 
L 60.245558 722.545623 
L 59.910575 719.276186 
L 58.909091 713.048116 
L 58.799749 712.737311 
L 57.975635 709.467874 
L 57.490481 706.198437 
L 57.172022 702.929 
L 56.191007 696.390125 
L 55.636364 692.968476 
L 54.783557 689.851251 
L 54.262344 686.581814 
L 53.541158 680.042939 
L 52.363636 673.345283 
L 51.420255 670.234628 
L 50.871543 666.96519 
L 50.184411 660.426316 
L 49.090909 653.865585 
L 48.100574 650.618004 
L 47.560186 647.348567 
L 46.914834 640.809693 
L 46.260934 637.540255 
L 45.818182 636.9812 
L 43.150733 634.270818 
L 42.545455 632.085977 
L 39.272727 631.754198 
L 38.701206 631.001381 
L 37.529119 627.731944 
L 37.156106 624.462507 
L 37.007241 601.576446 
L 37.306429 598.307009 
L 36.359885 595.037572 
L 36 592.008582 
L 29.454545 591.272527 
L 27.815572 588.498697 
L 27.560837 572.151511 
L 26.769778 562.3432 
L 26.181818 560.730381 
L 25.175598 559.073762 
L 23.440514 555.804325 
L 22.909091 550.876581 
L 19.636364 551.099112 
L 18.947382 549.265451 
L 18.078271 545.996014 
L 17.483506 542.726576 
L 17.050894 539.457139 
L 15.566788 523.109953 
L 14.168005 519.840516 
L 13.090909 516.401096 
L 10.563588 513.301642 
L 9.961659 510.032204 
L 9.818182 508.497603 
L 7.349437 506.762767 
L 6.545455 505.137963 
L 6.210727 500.223893 
L 5.355141 487.146144 
L 4.34127 483.876707 
L 3.272727 483.364642 
L 1.211028 480.607269 
L 0.606834 477.337832 
L 0.353043 474.068395 
L 0 464.176501 
M 0 499.072872 
L 0.293871 500.223893 
L 2.595197 519.840516 
L 3.272727 523.25372 
L 4.990613 526.37939 
L 5.985668 529.648828 
L 6.545455 532.506964 
L 9.818182 533.233502 
L 11.217667 536.187702 
L 12.162357 539.457139 
L 13.344221 545.996014 
L 13.78153 549.265451 
L 14.527301 559.073762 
L 15.479467 562.3432 
L 16.363636 564.748306 
L 17.254355 565.612637 
L 19.636364 569.038902 
L 22.909091 569.088468 
L 23.802209 572.151511 
L 24.317967 575.420949 
L 26.348534 598.307009 
L 28.814384 604.845883 
L 29.454545 606.695394 
L 32.727273 606.204486 
L 33.638153 608.115321 
L 34.392608 611.384758 
L 34.77643 614.654195 
L 34.905814 617.923632 
L 34.865299 637.540255 
L 36 644.854272 
L 36.56072 647.348567 
L 39.272727 664.676564 
L 39.802108 666.96519 
L 45.818182 705.018225 
L 46.098459 706.198437 
L 46.671489 709.467874 
L 47.073684 712.737311 
L 47.605455 716.006748 
L 48.36154 722.545623 
L 49.090909 729.477244 
L 49.871252 735.623372 
L 50.781312 745.431683 
L 51.150866 748.919626 
M 53.148209 768.099105 
L 53.408712 771.587181 
L 53.902023 778.126055 
L 55.843671 801.012116 
L 56.439684 814.089865 
L 56.439684 814.089865 
" clip-path="url(#p69b5fc483d)" style="fill: none"/>
    <path clip-path="url(#p69b5fc483d)" style="fill: none"/>
    <path clip-path="url(#p69b5fc483d)" style="fill: none"/>
    <path clip-path="url(#p69b5fc483d)" style="fill: none"/>
    <path clip-path="url(#p69b5fc483d)" style="fill: none"/>
    <path clip-path="url(#p69b5fc483d)" style="fill: none"/>
    <path clip-path="url(#p69b5fc483d)" style="fill: none"/>
    <path clip-path="url(#p69b5fc483d)" style="fill: none"/>
    <path clip-path="url(#p69b5fc483d)" style="fill: none"/>
    <path clip-path="url(#p69b5fc483d)" style="fill: none"/>
    <path clip-path="url(#p69b5fc483d)" style="fill: none"/>
    <path clip-path="url(#p69b5fc483d)" style="fill: none"/>
    <path clip-path="url(#p69b5fc483d)" style="fill: none"/>
    <path clip-path="url(#p69b5fc483d)" style="fill: none"/>
    <path clip-path="url(#p69b5fc483d)" style="fill: none"/>
    <path clip-path="url(#p69b5fc483d)" style="fill: none"/>
    <path clip-path="url(#p69b5fc483d)" style="fill: none"/>
    <path clip-path="url(#p69b5fc483d)" style="fill: none"/>
    <path clip-path="url(#p69b5fc483d)" style="fill: none"/>
    <path clip-path="url(#p69b5fc483d)" style="fill: none"/>
    <path clip-path="url(#p69b5fc483d)" style="fill: none"/>
    <path clip-path="url(#p69b5fc483d)" style="fill: none"/>
    <path clip-path="url(#p69b5fc483d)" style="fill: none"/>
    <path clip-path="url(#p69b5fc483d)" style="fill: none"/>
    <path clip-path="url(#p69b5fc483d)" style="fill: none"/>
    <path clip-path="url(#p69b5fc483d)" style="fill: none"/>
    <path clip-path="url(#p69b5fc483d)" style="fill: none"/>
    <path clip-path="url(#p69b5fc483d)" style="fill: none"/>
    <path clip-path="url(#p69b5fc483d)" style="fill: none"/>
    <path clip-path="url(#p69b5fc483d)" style="fill: none"/>
    <path clip-path="url(#p69b5fc483d)" style="fill: none"/>
    <path clip-path="url(#p69b5fc483d)" style="fill: none"/>
    <path clip-path="url(#p69b5fc483d)" style="fill: none"/>
    <path clip-path="url(#p69b5fc483d)" style="fill: none"/>
    <path clip-path="url(#p69b5fc483d)" style="fill: none"/>
    <path clip-path="url(#p69b5fc483d)" style="fill: none"/>
    <path clip-path="url(#p69b5fc483d)" style="fill: none"/>
   </g>
   <g id="text_1">
    <g clip-path="url(#p69b5fc483d)">
     <!-- 0 -->
     <g style="opacity: 0" transform="translate(5.630073 782.092734) rotate(-87.346963) scale(0.12 -0.12)">
      <defs>
       <path id="DejaVuSans-30" d="M 2034 4250 
Q 1547 4250 1301 3770 
Q 1056 3291 1056 2328 
Q 1056 1369 1301 889 
Q 1547 409 2034 409 
Q 2525 409 2770 889 
Q 3016 1369 3016 2328 
Q 3016 3291 2770 3770 
Q 2525 4250 2034 4250 
z
M 2034 4750 
Q 2819 4750 3233 4129 
Q 3647 3509 3647 2328 
Q 3647 1150 3233 529 
Q 2819 -91 2034 -91 
Q 1250 -91 836 529 
Q 422 1150 422 2328 
Q 422 3509 836 4129 
Q 1250 4750 2034 4750 
z
" transform="scale(0.015625)"/>
      </defs>
      <use xlink:href="#DejaVuSans-30"/>
     </g>
    </g>
   </g>
   <g id="text_2">
    <g clip-path="url(#p69b5fc483d)">
     <!-- 0 -->
     <g style="opacity: 0" transform="translate(60.285448 676.801776) rotate(-279.167833) scale(0.12 -0.12)">
      <use xlink:href="#DejaVuSans-30"/>
     </g>
    </g>
   </g>
   <g id="text_3">
    <g clip-path="url(#p69b5fc483d)">
     <!-- 0 -->
     <g style="opacity: 0" transform="translate(9.809274 758.234529) rotate(-274.525364) scale(0.12 -0.12)">
      <use xlink:href="#DejaVuSans-30"/>
     </g>
    </g>
   </g>
   <g id="text_4">
    <g clip-path="url(#p69b5fc483d)">
     <!-- 1 -->
     <g style="opacity: 0" transform="translate(70.835299 794.174186) rotate(-274.139919) scale(0.12 -0.12)">
      <defs>
       <path id="DejaVuSans-31" d="M 794 531 
L 1825 531 
L 1825 4091 
L 703 3866 
L 703 4441 
L 1819 4666 
L 2450 4666 
L 2450 531 
L 3481 531 
L 3481 0 
L 794 0 
L 794 531 
z
" transform="scale(0.015625)"/>
      </defs>
      <use xlink:href="#DejaVuSans-31"/>
     </g>
    </g>
   </g>
   <g id="text_5">
    <g clip-path="url(#p69b5fc483d)">
     <!-- 1 -->
     <g style="opacity: 0" transform="translate(28.065755 699.805474) rotate(-280.884995) scale(0.12 -0.12)">
      <use xlink:href="#DejaVuSans-31"/>
     </g>
    </g>
   </g>
   <g id="text_6">
    <g clip-path="url(#p69b5fc483d)">
     <!-- 2 -->
     <g style="opacity: 0" transform="translate(60.873312 764.790261) rotate(-274.792883) scale(0.12 -0.12)">
      <defs>
       <path id="DejaVuSans-32" d="M 1228 531 
L 3431 531 
L 3431 0 
L 469 0 
L 469 531 
Q 828 903 1448 1529 
Q 2069 2156 2228 2338 
Q 2531 2678 2651 2914 
Q 2772 3150 2772 3378 
Q 2772 3750 2511 3984 
Q 2250 4219 1831 4219 
Q 1534 4219 1204 4116 
Q 875 4013 500 3803 
L 500 4441 
Q 881 4594 1212 4672 
Q 1544 4750 1819 4750 
Q 2544 4750 2975 4387 
Q 3406 4025 3406 3419 
Q 3406 3131 3298 2873 
Q 3191 2616 2906 2266 
Q 2828 2175 2409 1742 
Q 1991 1309 1228 531 
z
" transform="scale(0.015625)"/>
      </defs>
      <use xlink:href="#DejaVuSans-32"/>
     </g>
    </g>
   </g>
   <g id="text_7">
    <g clip-path="url(#p69b5fc483d)">
     <!-- 2 -->
     <g style="opacity: 0" transform="translate(48.458161 755.063243) rotate(-276.066352) scale(0.12 -0.12)">
      <use xlink:href="#DejaVuSans-32"/>
     </g>
    </g>
   </g>
  </g>
 </g>
 <defs>
  <clipPath id="p69b5fc483d">
   <rect x="0" y="0" width="576" height="814.089865"/>
  </clipPath>
 </defs>
</svg>
