<?xml version="1.0" encoding="utf-8" standalone="no"?>
<!DOCTYPE svg PUBLIC "-//W3C//DTD SVG 1.1//EN"
  "http://www.w3.org/Graphics/SVG/1.1/DTD/svg11.dtd">
<svg xmlns:xlink="http://www.w3.org/1999/xlink" width="576pt" height="820.551837pt" viewBox="0 0 576 820.551837" xmlns="http://www.w3.org/2000/svg" version="1.1">
 <metadata>
  <rdf:RDF xmlns:dc="http://purl.org/dc/elements/1.1/" xmlns:cc="http://creativecommons.org/ns#" xmlns:rdf="http://www.w3.org/1999/02/22-rdf-syntax-ns#">
   <cc:Work>
    <dc:type rdf:resource="http://purl.org/dc/dcmitype/StillImage"/>
    <dc:date>2025-07-25T22:45:34.696148</dc:date>
    <dc:format>image/svg+xml</dc:format>
    <dc:creator>
     <cc:Agent>
      <dc:title>Matplotlib v3.10.3, https://matplotlib.org/</dc:title>
     </cc:Agent>
    </dc:creator>
   </cc:Work>
  </rdf:RDF>
 </metadata>
 <defs>
  <style type="text/css">*{stroke-linejoin: round; stroke-linecap: butt}</style>
 </defs>
 <g id="figure_1">
  <g id="patch_1">
   <path d="M 0 820.551837 
L 576 820.551837 
L 576 0 
L 0 0 
L 0 820.551837 
z
" style="fill: none; opacity: 0"/>
  </g>
  <g id="axes_1">
   <g id="QuadContourSet_1">
    <path d="M 3.291429 820.551837 
L 6.582857 820.551837 
L 9.874286 820.551837 
L 13.165714 820.551837 
L 16.457143 820.551837 
L 19.748571 820.551837 
L 23.04 820.551837 
L 26.331429 820.551837 
L 29.622857 820.551837 
L 32.914286 820.551837 
L 36.205714 820.551837 
L 39.497143 820.551837 
L 42.788571 820.551837 
L 46.08 820.551837 
L 49.371429 820.551837 
L 52.662857 820.551837 
L 55.954286 820.551837 
L 59.245714 820.551837 
L 62.537143 820.551837 
L 65.828571 820.551837 
L 69.12 820.551837 
L 72.411429 820.551837 
L 75.702857 820.551837 
L 78.994286 820.551837 
L 82.285714 820.551837 
L 85.577143 820.551837 
L 88.868571 820.551837 
L 92.16 820.551837 
L 95.451429 820.551837 
L 98.742857 820.551837 
L 102.034286 820.551837 
L 105.325714 820.551837 
L 108.617143 820.551837 
L 111.908571 820.551837 
L 115.2 820.551837 
L 118.491429 820.551837 
L 121.782857 820.551837 
L 125.074286 820.551837 
L 128.365714 820.551837 
L 131.657143 820.551837 
L 134.948571 820.551837 
L 138.24 820.551837 
L 141.531429 820.551837 
L 144.822857 820.551837 
L 148.114286 820.551837 
L 151.405714 820.551837 
L 154.697143 820.551837 
L 157.988571 820.551837 
L 161.28 820.551837 
L 164.571429 820.551837 
L 167.862857 820.551837 
L 171.154286 820.551837 
L 174.445714 820.551837 
L 177.737143 820.551837 
L 181.028571 820.551837 
L 184.32 820.551837 
L 187.611429 820.551837 
L 190.902857 820.551837 
L 194.194286 820.551837 
L 197.485714 820.551837 
L 200.777143 820.551837 
L 204.068571 820.551837 
L 207.36 820.551837 
L 210.651429 820.551837 
L 213.942857 820.551837 
L 217.234286 820.551837 
L 220.525714 820.551837 
L 223.817143 820.551837 
L 227.108571 820.551837 
L 230.4 820.551837 
L 233.691429 820.551837 
L 236.982857 820.551837 
L 240.274286 820.551837 
L 243.565714 820.551837 
L 246.857143 820.551837 
L 250.148571 820.551837 
L 253.44 820.551837 
L 256.731429 820.551837 
L 260.022857 820.551837 
L 263.314286 820.551837 
L 266.605714 820.551837 
L 269.897143 820.551837 
L 273.188571 820.551837 
L 276.48 820.551837 
L 279.771429 820.551837 
L 283.062857 820.551837 
L 286.354286 820.551837 
L 289.645714 820.551837 
L 292.937143 820.551837 
L 296.228571 820.551837 
L 299.52 820.551837 
L 302.811429 820.551837 
L 306.102857 820.551837 
L 309.394286 820.551837 
L 312.685714 820.551837 
L 315.977143 820.551837 
L 319.268571 820.551837 
L 322.56 820.551837 
L 325.851429 820.551837 
L 329.142857 820.551837 
L 332.434286 820.551837 
L 335.725714 820.551837 
L 339.017143 820.551837 
L 342.308571 820.551837 
L 345.6 820.551837 
L 348.891429 820.551837 
L 352.182857 820.551837 
L 355.474286 820.551837 
L 358.765714 820.551837 
L 362.057143 820.551837 
L 365.348571 820.551837 
L 368.64 820.551837 
L 371.931429 820.551837 
L 375.222857 820.551837 
L 378.514286 820.551837 
L 381.805714 820.551837 
L 385.097143 820.551837 
L 388.388571 820.551837 
L 391.68 820.551837 
L 394.971429 820.551837 
L 398.262857 820.551837 
L 401.554286 820.551837 
L 404.845714 820.551837 
L 408.137143 820.551837 
L 411.428571 820.551837 
L 414.72 820.551837 
L 418.011429 820.551837 
L 421.302857 820.551837 
L 424.594286 820.551837 
L 427.885714 820.551837 
L 431.177143 820.551837 
L 434.468571 820.551837 
L 437.76 820.551837 
L 441.051429 820.551837 
L 444.342857 820.551837 
L 447.634286 820.551837 
L 450.925714 820.551837 
L 454.217143 820.551837 
L 457.508571 820.551837 
L 460.8 820.551837 
L 464.091429 820.551837 
L 467.382857 820.551837 
L 470.674286 820.551837 
L 473.965714 820.551837 
L 477.257143 820.551837 
L 480.548571 820.551837 
L 483.84 820.551837 
L 487.131429 820.551837 
L 490.422857 820.551837 
L 493.714286 820.551837 
L 497.005714 820.551837 
L 500.297143 820.551837 
L 503.588571 820.551837 
L 506.88 820.551837 
L 510.171429 820.551837 
L 513.462857 820.551837 
L 516.754286 820.551837 
L 520.045714 820.551837 
L 523.337143 820.551837 
L 526.628571 820.551837 
L 529.92 820.551837 
L 533.211429 820.551837 
L 536.502857 820.551837 
L 539.794286 820.551837 
L 543.085714 820.551837 
L 546.377143 820.551837 
L 549.668571 820.551837 
L 552.96 820.551837 
L 556.251429 820.551837 
L 559.542857 820.551837 
L 562.834286 820.551837 
L 566.125714 820.551837 
L 569.417143 820.551837 
L 572.708571 820.551837 
L 576 820.551837 
L 576 817.256448 
L 576 813.961059 
L 576 810.66567 
L 576 807.370281 
L 576 804.074892 
L 576 800.779503 
L 576 797.484114 
L 576 794.188725 
L 576 790.893336 
L 576 787.597948 
L 576 784.302559 
L 576 781.00717 
L 576 777.711781 
L 576 774.416392 
L 576 771.121003 
L 576 767.825614 
L 576 764.530225 
L 576 761.234836 
L 576 757.939447 
L 576 754.644058 
L 576 751.34867 
L 576 748.053281 
L 576 744.757892 
L 576 741.462503 
L 576 738.167114 
L 576 734.871725 
L 576 731.576336 
L 576 728.280947 
L 576 724.985558 
L 576 721.690169 
L 576 718.394781 
L 576 715.099392 
L 576 711.804003 
L 576 708.508614 
L 576 705.213225 
L 576 701.917836 
L 576 698.622447 
L 576 695.327058 
L 576 692.031669 
L 576 688.73628 
L 576 685.440892 
L 576 682.145503 
L 576 678.850114 
L 576 675.554725 
L 576 672.259336 
L 576 668.963947 
L 576 665.668558 
L 576 662.373169 
L 576 659.07778 
L 576 655.782391 
L 576 652.487003 
L 576 649.191614 
L 576 645.896225 
L 576 642.600836 
L 576 639.305447 
L 576 636.010058 
L 576 632.714669 
L 576 629.41928 
L 576 626.123891 
L 576 622.828502 
L 576 619.533114 
L 576 616.237725 
L 576 612.942336 
L 576 609.646947 
L 576 606.351558 
L 576 603.056169 
L 576 599.76078 
L 576 596.465391 
L 576 593.170002 
L 576 589.874613 
L 576 586.579225 
L 576 583.283836 
L 576 579.988447 
L 576 576.693058 
L 576 573.397669 
L 576 570.10228 
L 576 566.806891 
L 576 563.511502 
L 576 560.216113 
L 576 556.920724 
L 576 553.625335 
L 576 550.329947 
L 576 547.034558 
L 576 543.739169 
L 576 540.44378 
L 576 537.148391 
L 576 533.853002 
L 576 530.557613 
L 576 527.262224 
L 576 523.966835 
L 576 520.671446 
L 576 517.376058 
L 576 514.080669 
L 576 510.78528 
L 576 507.489891 
L 576 504.194502 
L 576 500.899113 
L 576 497.603724 
L 576 494.308335 
L 576 491.012946 
L 576 487.717557 
L 576 484.422169 
L 576 481.12678 
L 576 477.831391 
L 576 474.536002 
L 576 471.240613 
L 576 467.945224 
L 576 464.649835 
L 576 461.354446 
L 576 458.059057 
L 576 454.763668 
L 576 451.46828 
L 576 448.172891 
L 576 444.877502 
L 576 441.582113 
L 576 438.286724 
L 576 434.991335 
L 576 431.695946 
L 576 428.400557 
L 576 425.105168 
L 576 421.809779 
L 576 418.514391 
L 576 415.219002 
L 576 411.923613 
L 576 408.628224 
L 576 405.332835 
L 576 402.037446 
L 576 398.742057 
L 576 395.446668 
L 576 392.151279 
L 576 388.85589 
L 576 385.560501 
L 576 382.265113 
L 576 378.969724 
L 576 375.674335 
L 576 372.378946 
L 576 369.083557 
L 576 365.788168 
L 576 362.492779 
L 576 359.19739 
L 576 355.902001 
L 576 352.606612 
L 576 349.311224 
L 576 346.015835 
L 576 342.720446 
L 576 339.425057 
L 576 336.129668 
L 576 332.834279 
L 576 329.53889 
L 576 326.243501 
L 576 322.948112 
L 576 319.652723 
L 576 316.357335 
L 576 313.061946 
L 576 309.766557 
L 576 306.471168 
L 576 303.175779 
L 576 299.88039 
L 576 296.585001 
L 576 293.289612 
L 576 289.994223 
L 576 286.698834 
L 576 283.403446 
L 576 280.108057 
L 576 276.812668 
L 576 273.517279 
L 576 270.22189 
L 576 266.926501 
L 576 263.631112 
L 576 260.335723 
L 576 257.040334 
L 576 253.744945 
L 576 250.449557 
L 576 247.154168 
L 576 243.858779 
L 576 240.56339 
L 576 237.268001 
L 576 233.972612 
L 576 230.677223 
L 576 227.381834 
L 576 224.086445 
L 576 220.791056 
L 576 217.495668 
L 576 214.200279 
L 576 210.90489 
L 576 207.609501 
L 576 204.314112 
L 576 201.018723 
L 576 197.723334 
L 576 194.427945 
L 576 191.132556 
L 576 187.837167 
L 576 184.541778 
L 576 181.24639 
L 576 177.951001 
L 576 174.655612 
L 576 171.360223 
L 576 168.064834 
L 576 164.769445 
L 576 161.474056 
L 576 158.178667 
L 576 154.883278 
L 576 151.587889 
L 576 148.292501 
L 576 144.997112 
L 576 141.701723 
L 576 138.406334 
L 576 135.110945 
L 576 131.815556 
L 576 128.520167 
L 576 125.224778 
L 576 121.929389 
L 576 118.634 
L 576 115.338612 
L 576 112.043223 
L 576 108.747834 
L 576 105.452445 
L 576 102.157056 
L 576 98.861667 
L 576 95.566278 
L 576 92.270889 
L 576 88.9755 
L 576 85.680111 
L 576 82.384723 
L 576 79.089334 
L 576 75.793945 
L 576 72.498556 
L 576 69.203167 
L 576 65.907778 
L 576 62.612389 
L 576 59.317 
L 576 56.021611 
L 576 52.726222 
L 576 49.430834 
L 576 46.135445 
L 576 42.840056 
L 576 39.544667 
L 576 36.249278 
L 576 32.953889 
L 576 29.6585 
L 576 26.363111 
L 576 23.067722 
L 576 19.772333 
L 576 16.476945 
L 576 13.181556 
L 576 9.886167 
L 576 6.590778 
L 576 3.295389 
L 576 0 
L 572.708571 0 
L 569.417143 0 
L 566.125714 0 
L 562.834286 0 
L 559.542857 0 
L 556.251429 0 
L 552.96 0 
L 549.668571 0 
L 546.377143 0 
L 543.085714 0 
L 539.794286 0 
L 536.502857 0 
L 533.211429 0 
L 529.92 0 
L 526.628571 0 
L 523.337143 0 
L 520.045714 0 
L 516.754286 0 
L 513.462857 0 
L 510.171429 0 
L 506.88 0 
L 503.588571 0 
L 500.297143 0 
L 497.005714 0 
L 493.714286 0 
L 490.422857 0 
L 487.131429 0 
L 483.84 0 
L 480.548571 0 
L 477.257143 0 
L 473.965714 0 
L 470.674286 0 
L 467.382857 0 
L 464.091429 0 
L 460.8 0 
L 457.508571 0 
L 454.217143 0 
L 450.925714 0 
L 447.634286 0 
L 444.342857 0 
L 441.051429 0 
L 437.76 0 
L 434.468571 0 
L 431.177143 0 
L 427.885714 0 
L 424.594286 0 
L 421.302857 0 
L 418.011429 0 
L 414.72 0 
L 411.428571 0 
L 408.137143 0 
L 404.845714 0 
L 401.554286 0 
L 398.262857 0 
L 394.971429 0 
L 391.68 0 
L 388.388571 0 
L 385.097143 0 
L 381.805714 0 
L 378.514286 0 
L 375.222857 0 
L 371.931429 0 
L 368.64 0 
L 365.348571 0 
L 362.057143 0 
L 358.765714 0 
L 355.474286 0 
L 352.182857 0 
L 348.891429 0 
L 345.6 0 
L 342.308571 0 
L 339.017143 0 
L 335.725714 0 
L 332.434286 0 
L 329.142857 0 
L 325.851429 0 
L 322.56 0 
L 319.268571 0 
L 315.977143 0 
L 312.685714 0 
L 309.394286 0 
L 306.102857 0 
L 302.811429 0 
L 299.52 0 
L 296.228571 0 
L 292.937143 0 
L 289.645714 0 
L 286.354286 0 
L 283.062857 0 
L 279.771429 0 
L 276.48 0 
L 273.188571 0 
L 269.897143 0 
L 266.605714 0 
L 263.314286 0 
L 260.022857 0 
L 256.731429 0 
L 253.44 0 
L 250.148571 0 
L 246.857143 0 
L 243.565714 0 
L 240.274286 0 
L 236.982857 0 
L 233.691429 0 
L 230.4 0 
L 227.108571 0 
L 223.817143 0 
L 220.525714 0 
L 217.234286 0 
L 213.942857 0 
L 210.651429 0 
L 207.36 0 
L 204.068571 0 
L 200.777143 0 
L 197.485714 0 
L 194.194286 0 
L 190.902857 0 
L 187.611429 0 
L 184.32 0 
L 181.028571 0 
L 177.737143 0 
L 174.445714 0 
L 171.154286 0 
L 167.862857 0 
L 164.571429 0 
L 161.28 0 
L 157.988571 0 
L 154.697143 0 
L 151.405714 0 
L 148.114286 0 
L 144.822857 0 
L 141.531429 0 
L 138.24 0 
L 134.948571 0 
L 131.657143 0 
L 128.365714 0 
L 125.074286 0 
L 121.782857 0 
L 118.491429 0 
L 115.2 0 
L 111.908571 0 
L 108.617143 0 
L 105.325714 0 
L 102.034286 0 
L 98.742857 0 
L 95.451429 0 
L 92.16 0 
L 88.868571 0 
L 85.577143 0 
L 82.285714 0 
L 78.994286 0 
L 75.702857 0 
L 72.411429 0 
L 69.12 0 
L 65.828571 0 
L 62.537143 0 
L 59.245714 0 
L 55.954286 0 
L 52.662857 0 
L 49.371429 0 
L 46.08 0 
L 42.788571 0 
L 39.497143 0 
L 36.205714 0 
L 32.914286 0 
L 29.622857 0 
L 26.331429 0 
L 23.04 0 
L 19.748571 0 
L 16.457143 0 
L 13.165714 0 
L 9.874286 0 
L 6.582857 0 
L 3.291429 0 
L 0 0 
L 0 3.295389 
L 0 6.590778 
L 0 9.886167 
L 0 13.181556 
L 0 16.476945 
L 0 19.772333 
L 0 23.067722 
L 0 26.363111 
L 0 29.6585 
L 0 32.953889 
L 0 36.249278 
L 0 39.544667 
L 0 42.840056 
L 0 46.135445 
L 0 49.430834 
L 0 52.726222 
L 0 56.021611 
L 0 59.317 
L 0 62.612389 
L 0 65.907778 
L 0 69.203167 
L 0 72.498556 
L 0 75.793945 
L 0 79.089334 
L 0 82.384723 
L 0 85.680111 
L 0 88.9755 
L 0 92.270889 
L 0 95.566278 
L 0 98.861667 
L 0 102.157056 
L 0 105.452445 
L 0 108.747834 
L 0 112.043223 
L 0 115.338612 
L 0 118.634 
L 0 121.929389 
L 0 125.224778 
L 0 128.520167 
L 0 131.815556 
L 0 135.110945 
L 0 138.406334 
L 0 141.701723 
L 0 144.997112 
L 0 148.292501 
L 0 151.587889 
L 0 154.883278 
L 0 158.178667 
L 0 161.474056 
L 0 164.769445 
L 0 168.064834 
L 0 171.360223 
L 0 174.655612 
L 0 177.951001 
L 0 181.24639 
L 0 184.541778 
L 0 187.837167 
L 0 191.132556 
L 0 194.427945 
L 0 197.723334 
L 0 201.018723 
L 0 204.314112 
L 0 207.609501 
L 0 210.90489 
L 0 214.200279 
L 0 217.495668 
L 0 220.791056 
L 0 224.086445 
L 0 227.381834 
L 0 230.677223 
L 0 233.972612 
L 0 237.268001 
L 0 240.56339 
L 0 243.858779 
L 0 247.154168 
L 0 250.449557 
L 0 253.744945 
L 0 257.040334 
L 0 260.335723 
L 0 263.631112 
L 0 266.926501 
L 0 270.22189 
L 0 273.517279 
L 0 276.812668 
L 0 280.108057 
L 0 283.403446 
L 0 286.698834 
L 0 289.994223 
L 0 293.289612 
L 0 296.585001 
L 0 299.88039 
L 0 303.175779 
L 0 306.471168 
L 0 309.766557 
L 0 313.061946 
L 0 316.357335 
L 0 319.652723 
L 0 322.948112 
L 0 326.243501 
L 0 329.53889 
L 0 332.834279 
L 0 336.129668 
L 0 339.425057 
L 0 342.720446 
L 0 346.015835 
L 0 349.311224 
L 0 352.606612 
L 0 355.902001 
L 0 359.19739 
L 0 362.492779 
L 0 365.788168 
L 0 369.083557 
L 0 372.378946 
L 0 375.674335 
L 0 378.969724 
L 0 382.265113 
L 0 385.560501 
L 0 388.85589 
L 0 392.151279 
L 0 395.446668 
L 0 398.742057 
L 0 402.037446 
L 0 405.332835 
L 0 408.628224 
L 0 411.923613 
L 0 415.219002 
L 0 418.514391 
L 0 421.809779 
L 0 425.105168 
L 0 428.400557 
L 0 431.695946 
L 0 434.991335 
L 0 438.286724 
L 0 441.582113 
L 0 444.877502 
L 0 448.172891 
L 0 451.46828 
L 0 454.763668 
L 0 458.059057 
L 0 461.354446 
L 0 464.649835 
L 0 467.945224 
L 0 471.240613 
L 0 474.536002 
L 0 477.831391 
L 0 481.12678 
L 0 484.422169 
L 0 487.717557 
L 0 491.012946 
L 0 494.308335 
L 0 497.603724 
L 0 500.899113 
L 0 504.194502 
L 0 507.489891 
L 0 510.78528 
L 0 514.080669 
L 0 517.376058 
L 0 520.671446 
L 0 523.966835 
L 0 527.262224 
L 0 530.557613 
L 0 533.853002 
L 0 537.148391 
L 0 540.44378 
L 0 543.739169 
L 0 547.034558 
L 0 550.329947 
L 0 553.625335 
L 0 556.920724 
L 0 560.216113 
L 0 563.511502 
L 0 566.806891 
L 0 570.10228 
L 0 573.397669 
L 0 576.693058 
L 0 579.988447 
L 0 583.283836 
L 0 586.579225 
L 0 589.874613 
L 0 593.170002 
L 0 596.465391 
L 0 599.76078 
L 0 603.056169 
L 0 606.351558 
L 0 609.646947 
L 0 612.942336 
L 0 616.237725 
L 0 619.533114 
L 0 622.828502 
L 0 626.123891 
L 0 629.41928 
L 0 632.714669 
L 0 636.010058 
L 0 639.305447 
L 0 642.600836 
L 0 645.896225 
L 0 649.191614 
L 0 652.487003 
L 0 655.782391 
L 0 659.07778 
L 0 662.373169 
L 0 665.668558 
L 0 668.963947 
L 0 672.259336 
L 0 675.554725 
L 0 678.850114 
L 0 682.145503 
L 0 685.440892 
L 0 688.73628 
L 0 692.031669 
L 0 695.327058 
L 0 698.622447 
L 0 701.917836 
L 0 705.213225 
L 0 708.508614 
L 0 711.804003 
L 0 715.099392 
L 0 718.394781 
L 0 721.690169 
L 0 724.985558 
L 0 728.280947 
L 0 731.576336 
L 0 734.871725 
L 0 738.167114 
L 0 741.462503 
L 0 744.757892 
L 0 748.053281 
L 0 751.34867 
L 0 754.644058 
L 0 757.939447 
L 0 761.234836 
L 0 764.530225 
L 0 767.825614 
L 0 771.121003 
L 0 774.416392 
L 0 777.711781 
L 0 781.00717 
L 0 784.302559 
L 0 787.597948 
L 0 790.893336 
L 0 794.188725 
L 0 797.484114 
L 0 800.779503 
L 0 804.074892 
L 0 807.370281 
L 0 810.66567 
L 0 813.961059 
L 0 817.256448 
L 0 820.551837 
z
" clip-path="url(#p7213367986)" style="fill: #f5f9fe; fill-opacity: 0.9"/>
    <path clip-path="url(#p7213367986)" style="fill: #eff6fc; fill-opacity: 0.9"/>
    <path clip-path="url(#p7213367986)" style="fill: #eaf3fb; fill-opacity: 0.9"/>
    <path clip-path="url(#p7213367986)" style="fill: #e5eff9; fill-opacity: 0.9"/>
    <path clip-path="url(#p7213367986)" style="fill: #dfecf7; fill-opacity: 0.9"/>
    <path clip-path="url(#p7213367986)" style="fill: #dae8f6; fill-opacity: 0.9"/>
    <path clip-path="url(#p7213367986)" style="fill: #d6e5f4; fill-opacity: 0.9"/>
    <path clip-path="url(#p7213367986)" style="fill: #d0e2f2; fill-opacity: 0.9"/>
    <path clip-path="url(#p7213367986)" style="fill: #cbdef1; fill-opacity: 0.9"/>
    <path clip-path="url(#p7213367986)" style="fill: #c6dbef; fill-opacity: 0.9"/>
    <path clip-path="url(#p7213367986)" style="fill: #bed8ec; fill-opacity: 0.9"/>
    <path clip-path="url(#p7213367986)" style="fill: #b5d4e9; fill-opacity: 0.9"/>
    <path clip-path="url(#p7213367986)" style="fill: #add0e6; fill-opacity: 0.9"/>
    <path clip-path="url(#p7213367986)" style="fill: #a5cde3; fill-opacity: 0.9"/>
    <path clip-path="url(#p7213367986)" style="fill: #9cc9e1; fill-opacity: 0.9"/>
    <path clip-path="url(#p7213367986)" style="fill: #91c3de; fill-opacity: 0.9"/>
    <path clip-path="url(#p7213367986)" style="fill: #85bcdc; fill-opacity: 0.9"/>
    <path clip-path="url(#p7213367986)" style="fill: #7cb7da; fill-opacity: 0.9"/>
    <path clip-path="url(#p7213367986)" style="fill: #71b1d7; fill-opacity: 0.9"/>
    <path clip-path="url(#p7213367986)" style="fill: #66abd4; fill-opacity: 0.9"/>
    <path clip-path="url(#p7213367986)" style="fill: #5da5d1; fill-opacity: 0.9"/>
    <path clip-path="url(#p7213367986)" style="fill: #56a0ce; fill-opacity: 0.9"/>
    <path clip-path="url(#p7213367986)" style="fill: #4d99ca; fill-opacity: 0.9"/>
    <path clip-path="url(#p7213367986)" style="fill: #4493c7; fill-opacity: 0.9"/>
    <path clip-path="url(#p7213367986)" style="fill: #3c8cc3; fill-opacity: 0.9"/>
    <path clip-path="url(#p7213367986)" style="fill: #3686c0; fill-opacity: 0.9"/>
    <path clip-path="url(#p7213367986)" style="fill: #2f7fbc; fill-opacity: 0.9"/>
    <path clip-path="url(#p7213367986)" style="fill: #2777b8; fill-opacity: 0.9"/>
    <path clip-path="url(#p7213367986)" style="fill: #2070b4; fill-opacity: 0.9"/>
    <path clip-path="url(#p7213367986)" style="fill: #1c6ab0; fill-opacity: 0.9"/>
    <path clip-path="url(#p7213367986)" style="fill: #1663aa; fill-opacity: 0.9"/>
    <path clip-path="url(#p7213367986)" style="fill: #115ca5; fill-opacity: 0.9"/>
    <path clip-path="url(#p7213367986)" style="fill: #0c56a0; fill-opacity: 0.9"/>
    <path clip-path="url(#p7213367986)" style="fill: #084f99; fill-opacity: 0.9"/>
    <path clip-path="url(#p7213367986)" style="fill: #08488e; fill-opacity: 0.9"/>
    <path clip-path="url(#p7213367986)" style="fill: #084184; fill-opacity: 0.9"/>
    <path clip-path="url(#p7213367986)" style="fill: #083a7a; fill-opacity: 0.9"/>
    <path clip-path="url(#p7213367986)" style="fill: #083370; fill-opacity: 0.9"/>
    <path clip-path="url(#p7213367986)" style="fill: #08306b; fill-opacity: 0.9"/>
   </g>
   <g id="QuadContourSet_2">
    <path clip-path="url(#p7213367986)" style="fill: none"/>
    <path clip-path="url(#p7213367986)" style="fill: none"/>
    <path clip-path="url(#p7213367986)" style="fill: none"/>
    <path clip-path="url(#p7213367986)" style="fill: none"/>
    <path clip-path="url(#p7213367986)" style="fill: none"/>
    <path clip-path="url(#p7213367986)" style="fill: none"/>
    <path clip-path="url(#p7213367986)" style="fill: none"/>
    <path clip-path="url(#p7213367986)" style="fill: none"/>
    <path clip-path="url(#p7213367986)" style="fill: none"/>
    <path clip-path="url(#p7213367986)" style="fill: none"/>
    <path clip-path="url(#p7213367986)" style="fill: none"/>
    <path clip-path="url(#p7213367986)" style="fill: none"/>
    <path clip-path="url(#p7213367986)" style="fill: none"/>
    <path clip-path="url(#p7213367986)" style="fill: none"/>
    <path clip-path="url(#p7213367986)" style="fill: none"/>
    <path clip-path="url(#p7213367986)" style="fill: none"/>
    <path clip-path="url(#p7213367986)" style="fill: none"/>
    <path clip-path="url(#p7213367986)" style="fill: none"/>
    <path clip-path="url(#p7213367986)" style="fill: none"/>
    <path clip-path="url(#p7213367986)" style="fill: none"/>
    <path clip-path="url(#p7213367986)" style="fill: none"/>
    <path clip-path="url(#p7213367986)" style="fill: none"/>
    <path clip-path="url(#p7213367986)" style="fill: none"/>
    <path clip-path="url(#p7213367986)" style="fill: none"/>
    <path clip-path="url(#p7213367986)" style="fill: none"/>
    <path clip-path="url(#p7213367986)" style="fill: none"/>
    <path clip-path="url(#p7213367986)" style="fill: none"/>
    <path clip-path="url(#p7213367986)" style="fill: none"/>
    <path clip-path="url(#p7213367986)" style="fill: none"/>
    <path clip-path="url(#p7213367986)" style="fill: none"/>
    <path clip-path="url(#p7213367986)" style="fill: none"/>
    <path clip-path="url(#p7213367986)" style="fill: none"/>
    <path clip-path="url(#p7213367986)" style="fill: none"/>
    <path clip-path="url(#p7213367986)" style="fill: none"/>
    <path clip-path="url(#p7213367986)" style="fill: none"/>
    <path clip-path="url(#p7213367986)" style="fill: none"/>
    <path clip-path="url(#p7213367986)" style="fill: none"/>
    <path clip-path="url(#p7213367986)" style="fill: none"/>
    <path clip-path="url(#p7213367986)" style="fill: none"/>
   </g>
  </g>
 </g>
 <defs>
  <clipPath id="p7213367986">
   <rect x="0" y="0" width="576" height="820.551837"/>
  </clipPath>
 </defs>
</svg>
