<?xml version="1.0" encoding="utf-8" standalone="no"?>
<!DOCTYPE svg PUBLIC "-//W3C//DTD SVG 1.1//EN"
  "http://www.w3.org/Graphics/SVG/1.1/DTD/svg11.dtd">
<svg xmlns:xlink="http://www.w3.org/1999/xlink" width="576pt" height="818.23674pt" viewBox="0 0 576 818.23674" xmlns="http://www.w3.org/2000/svg" version="1.1">
 <metadata>
  <rdf:RDF xmlns:dc="http://purl.org/dc/elements/1.1/" xmlns:cc="http://creativecommons.org/ns#" xmlns:rdf="http://www.w3.org/1999/02/22-rdf-syntax-ns#">
   <cc:Work>
    <dc:type rdf:resource="http://purl.org/dc/dcmitype/StillImage"/>
    <dc:date>2025-07-25T22:43:55.332115</dc:date>
    <dc:format>image/svg+xml</dc:format>
    <dc:creator>
     <cc:Agent>
      <dc:title>Matplotlib v3.10.3, https://matplotlib.org/</dc:title>
     </cc:Agent>
    </dc:creator>
   </cc:Work>
  </rdf:RDF>
 </metadata>
 <defs>
  <style type="text/css">*{stroke-linejoin: round; stroke-linecap: butt}</style>
 </defs>
 <g id="figure_1">
  <g id="patch_1">
   <path d="M 0 818.23674 
L 576 818.23674 
L 576 0 
L 0 0 
L 0 818.23674 
z
" style="fill: none; opacity: 0"/>
  </g>
  <g id="axes_1">
   <g id="QuadContourSet_1">
    <path d="M 569.417143 98.632727 
L 569.847395 98.58274 
L 572.708571 96.698732 
L 576 97.942026 
L 576 96.914671 
L 573.817815 95.296648 
L 572.708571 94.233378 
L 569.417143 92.129069 
L 566.125714 93.16295 
L 562.834286 94.068461 
L 559.542857 93.171183 
L 556.251429 92.276864 
L 555.738848 92.010557 
L 552.96 90.322095 
L 551.132734 88.724466 
L 549.668571 87.377703 
L 547.433996 85.438374 
L 546.377143 84.37442 
L 543.753588 82.152283 
L 543.085714 81.478861 
L 539.89238 78.866192 
L 539.794286 78.767054 
L 536.502857 77.207213 
L 534.12245 78.866192 
L 533.211429 81.348323 
L 532.913822 82.152283 
L 529.92 82.549058 
L 528.719461 82.152283 
L 526.628571 80.806588 
L 523.337143 80.2676 
L 520.432427 78.866192 
L 520.045714 78.518835 
L 516.754286 76.415896 
L 515.529379 75.5801 
L 513.462857 74.099406 
L 510.75409 72.294009 
L 510.171429 71.706787 
L 506.88 70.2765 
L 504.876677 69.007918 
L 503.588571 68.340033 
L 500.549661 69.007918 
L 500.297143 69.334346 
L 497.005714 69.773983 
L 493.714286 69.63298 
L 491.97799 69.007918 
L 490.422857 68.086126 
L 487.131429 66.753509 
L 485.617691 65.721826 
L 483.84 64.357717 
L 480.844671 62.435735 
L 480.548571 62.137173 
L 477.257143 60.294313 
L 475.722737 59.149644 
L 473.965714 57.922406 
L 471.209903 55.863552 
L 470.674286 55.323826 
L 468.16188 55.863552 
L 467.382857 57.833069 
L 464.091429 58.314674 
L 460.8 57.202377 
L 457.508571 56.61418 
L 456.092969 55.863552 
L 454.217143 54.56599 
L 451.549949 52.577461 
L 450.925714 51.94851 
L 447.634286 49.703201 
L 447.081443 49.29137 
L 444.342857 47.311683 
L 442.606621 46.005279 
L 441.051429 44.831206 
L 438.24146 42.719187 
L 437.76 42.23371 
L 435.785218 42.719187 
L 434.628961 46.005279 
L 434.468571 46.451699 
L 431.177143 47.872764 
L 427.885714 47.320986 
L 424.594286 47.086363 
L 421.923677 46.005279 
L 421.302857 45.529464 
L 418.011429 43.566036 
L 416.717378 42.719187 
L 414.72 41.276676 
L 411.740661 39.433096 
L 411.428571 39.118209 
L 408.137143 37.67806 
L 405.898653 36.147005 
L 404.845714 35.438648 
L 401.762332 36.147005 
L 401.554286 36.7385 
L 400.601051 39.433096 
L 398.262857 40.377968 
L 394.971429 40.569571 
L 391.68 40.633399 
L 388.388571 40.025047 
L 387.380663 39.433096 
L 385.097143 37.899851 
L 382.342728 36.147005 
L 381.805714 35.606149 
L 378.514286 33.854851 
L 377.20636 32.860913 
L 375.222857 31.454556 
L 372.225095 29.574822 
L 371.931429 29.278774 
L 368.64 29.233316 
L 367.85676 29.574822 
L 366.706729 32.860913 
L 365.348571 35.072257 
L 362.057143 34.393379 
L 358.765714 34.316797 
L 355.474286 34.28728 
L 352.602536 32.860913 
L 352.182857 32.452546 
L 348.891429 30.480291 
L 347.498367 29.574822 
L 345.6 28.187227 
L 342.470229 26.288731 
L 342.308571 26.125868 
L 339.017143 24.741325 
L 336.44007 23.002639 
L 335.725714 22.509068 
L 333.72605 23.002639 
L 332.583638 26.288731 
L 332.434286 26.711367 
L 329.872908 29.574822 
L 329.142857 29.613147 
L 328.935222 29.574822 
L 325.851429 28.295664 
L 322.56 28.031857 
L 319.268571 27.416167 
L 317.537564 26.288731 
L 315.977143 25.069229 
L 312.685714 23.163358 
L 312.470293 23.002639 
L 309.394286 21.075287 
L 307.44697 19.716548 
L 306.102857 18.5987 
L 302.811429 17.372768 
L 299.670158 16.430457 
L 299.52 16.400975 
L 299.433252 16.430457 
L 298.289269 19.716548 
L 297.12568 23.002639 
L 296.228571 23.143033 
L 292.937143 23.167663 
L 292.006526 23.002639 
L 289.645714 22.091923 
L 286.354286 21.681325 
L 283.062857 20.185022 
L 282.34399 19.716548 
L 279.771429 18.04005 
L 277.30153 16.430457 
L 276.48 15.650189 
L 273.188571 14.054956 
L 271.889267 13.144365 
L 269.897143 11.988168 
L 267.064713 9.858274 
L 266.605714 9.396607 
L 264.725187 9.858274 
L 263.582549 13.144365 
L 263.314286 13.900022 
L 262.414019 16.430457 
L 260.022857 16.798452 
L 256.731429 16.722502 
L 255.073691 16.430457 
L 253.44 15.831918 
L 250.148571 15.135402 
L 246.857143 13.162118 
L 246.830237 13.144365 
L 243.565714 11.041353 
L 241.729211 9.858274 
L 240.274286 8.708732 
L 236.982857 7.024316 
L 236.245233 6.572183 
L 233.691429 5.382653 
L 230.719682 3.286091 
L 230.4 3.022355 
L 229.36481 3.286091 
L 228.223904 6.572183 
L 227.108571 9.715114 
L 227.057582 9.858274 
L 223.817143 10.354421 
L 220.525714 10.283471 
L 218.117855 9.858274 
L 217.234286 9.523794 
L 213.942857 8.533982 
L 210.655274 6.572183 
L 210.651429 6.568316 
L 207.36 4.484437 
L 205.468864 3.286091 
L 204.068571 2.183991 
L 200.777143 0.586299 
L 199.863187 0 
L 197.485714 0 
L 194.194286 0 
L 191.710861 0 
L 190.902857 2.258363 
L 190.534412 3.286091 
L 187.611429 3.754581 
L 184.32 3.839855 
L 181.188139 3.286091 
L 181.028571 3.216694 
L 177.737143 2.323719 
L 174.445714 0.449757 
L 173.737476 0 
L 172.060745 0 
L 174.445714 1.514541 
L 177.2354 3.286091 
L 177.737143 3.631941 
L 181.028571 4.191822 
L 184.32 4.752828 
L 187.611429 4.95085 
L 190.902857 5.158348 
L 194.194286 6.12433 
L 197.485714 4.696451 
L 197.990204 3.286091 
L 200.777143 2.550406 
L 203.109247 3.286091 
L 204.068571 3.735374 
L 207.36 5.533372 
L 208.999369 6.572183 
L 210.651429 7.661077 
L 213.942857 9.689143 
L 214.438039 9.858274 
L 217.234286 10.661739 
L 220.525714 11.184234 
L 223.817143 11.456807 
L 227.108571 11.595218 
L 230.4 12.126847 
L 233.691429 11.417005 
L 234.244743 9.858274 
L 236.982857 9.074828 
L 239.616221 9.858274 
L 240.274286 10.144402 
L 243.565714 12.077554 
L 245.221734 13.144365 
L 246.857143 14.223398 
L 250.148571 16.303916 
L 250.603279 16.430457 
L 253.44 17.114159 
L 256.731429 17.609674 
L 260.022857 17.8708 
L 263.314286 17.906671 
L 266.605714 18.041965 
L 269.376778 16.430457 
L 269.897143 14.933438 
L 273.188571 15.588191 
L 274.953571 16.430457 
L 276.48 17.369054 
L 279.771429 19.059985 
L 280.778915 19.716548 
L 283.062857 21.204957 
L 286.354286 22.830014 
L 287.092734 23.002639 
L 289.645714 23.549151 
L 292.937143 24.03901 
L 296.228571 24.223267 
L 299.52 24.135015 
L 302.811429 23.775937 
L 304.024654 23.002639 
L 306.102857 20.724499 
L 309.394286 22.157636 
L 310.742891 23.002639 
L 312.685714 24.452114 
L 315.977143 26.281523 
L 315.986365 26.288731 
L 319.268571 28.42649 
L 322.56 29.214837 
L 324.047385 29.574822 
L 325.851429 29.984109 
L 329.142857 30.515329 
L 332.434286 30.523892 
L 335.725714 30.249397 
L 338.223142 29.574822 
L 339.017143 27.292868 
L 342.308571 28.268742 
L 345.6 29.305066 
L 345.969053 29.574822 
L 348.891429 31.474323 
L 351.024693 32.860913 
L 352.182857 33.650514 
L 355.474286 35.146193 
L 358.765714 35.556721 
L 361.039456 36.147005 
L 362.057143 36.394336 
L 365.348571 36.989706 
L 368.64 36.775339 
L 371.931429 36.255151 
L 372.298829 36.147005 
L 373.449487 32.860913 
L 375.222857 32.567459 
L 375.63674 32.860913 
L 378.514286 35.047659 
L 380.426338 36.147005 
L 381.805714 37.12043 
L 385.097143 38.919632 
L 385.861865 39.433096 
L 388.388571 40.917048 
L 391.68 41.540159 
L 394.971429 41.929921 
L 397.623482 42.719187 
L 398.262857 42.886493 
L 401.554286 43.401766 
L 404.845714 42.972344 
L 406.157995 42.719187 
L 407.31905 39.433096 
L 408.137143 39.242297 
L 408.562872 39.433096 
L 411.428571 41.11454 
L 414.72 42.355844 
L 415.223104 42.719187 
L 418.011429 44.543913 
L 420.244509 46.005279 
L 421.302857 46.708729 
L 424.594286 47.947817 
L 427.885714 48.660527 
L 429.309495 49.29137 
L 431.177143 49.921376 
L 434.468571 50.236356 
L 437.76 50.169792 
L 440.308634 49.29137 
L 441.051429 47.174667 
L 444.342857 48.556405 
L 445.359565 49.29137 
L 447.634286 50.985886 
L 449.861871 52.577461 
L 450.925714 53.361461 
L 454.217143 55.708311 
L 454.441569 55.863552 
L 457.508571 57.48984 
L 460.8 58.460867 
L 462.136177 59.149644 
L 464.091429 59.921101 
L 467.382857 60.35613 
L 470.674286 61.247572 
L 473.757143 59.149644 
L 473.965714 59.113303 
L 474.017744 59.149644 
L 477.257143 61.566241 
L 478.747369 62.435735 
L 480.548571 63.691037 
L 483.84 65.451246 
L 484.192617 65.721826 
L 487.131429 67.724764 
L 489.724729 69.007918 
L 490.422857 69.401807 
L 493.714286 70.501838 
L 497.005714 71.257291 
L 498.69257 72.294009 
L 500.297143 72.961586 
L 503.588571 72.879595 
L 506.192727 72.294009 
L 506.88 72.110017 
L 507.339575 72.294009 
L 510.171429 73.772495 
L 513.462857 75.116925 
L 514.109285 75.5801 
L 516.754286 77.384873 
L 518.925245 78.866192 
L 520.045714 79.642943 
L 523.337143 81.151878 
L 526.061328 82.152283 
L 526.628571 82.425322 
L 529.92 83.453044 
L 533.211429 83.912243 
L 535.643495 85.438374 
L 536.502857 85.770849 
L 538.501603 85.438374 
L 539.703986 82.152283 
L 539.794286 82.106595 
L 539.872667 82.152283 
L 543.085714 83.623217 
L 545.786611 85.438374 
L 546.377143 85.76501 
L 549.668571 88.453638 
L 549.963008 88.724466 
L 552.96 91.344819 
L 554.055663 92.010557 
L 556.251429 93.151346 
L 559.542857 94.295526 
L 561.418126 95.296648 
L 562.834286 95.969662 
L 566.125714 96.502141 
L 569.332273 98.58274 
z
M 115.2 1.673329 
L 118.491429 1.673329 
L 120.160273 0 
L 119.537999 0 
L 118.491429 1.049383 
L 115.2 1.049383 
L 114.148913 0 
L 113.523954 0 
z
M 157.988571 0.089902 
L 158.830426 0 
L 157.988571 0 
L 157.614396 0 
z
" clip-path="url(#pa2801590dc)" style="fill: #f5f9fe; fill-opacity: 0.9"/>
    <path d="M 576 96.914671 
L 576 95.887316 
L 575.203382 95.296648 
L 572.708571 92.905235 
L 571.365717 92.010557 
L 569.417143 90.078566 
L 566.73107 88.724466 
L 566.125714 88.128239 
L 562.834286 87.776985 
L 561.001595 88.724466 
L 559.76259 92.010557 
L 559.542857 92.04684 
L 559.396906 92.010557 
L 556.251429 90.371689 
L 552.96 89.299371 
L 552.30246 88.724466 
L 549.668571 86.301769 
L 548.673733 85.438374 
L 546.377143 83.126353 
L 545.227112 82.152283 
L 543.085714 79.993095 
L 541.708357 78.866192 
L 539.794286 76.931748 
L 538.051946 75.5801 
L 536.502857 74.008678 
L 534.078553 72.294009 
L 533.211429 71.408204 
L 529.92 71.738156 
L 529.722588 72.294009 
L 528.541383 75.5801 
L 527.326041 78.866192 
L 526.628571 79.046199 
L 523.337143 79.383321 
L 522.265282 78.866192 
L 520.045714 76.872508 
L 517.244702 75.5801 
L 516.754286 75.078923 
L 513.462857 73.081887 
L 512.280747 72.294009 
L 510.171429 70.16818 
L 507.834742 69.007918 
L 506.88 68.036232 
L 503.588571 66.838732 
L 501.99162 65.721826 
L 500.297143 64.007496 
L 497.519635 62.435735 
L 497.005714 61.910263 
L 496.091557 62.435735 
L 494.900822 65.721826 
L 493.714286 66.975989 
L 490.422857 66.655541 
L 487.131429 65.782255 
L 487.042765 65.721826 
L 483.84 63.264188 
L 482.54889 62.435735 
L 480.548571 60.418775 
L 477.649834 59.149644 
L 477.257143 58.748639 
L 473.965714 56.73151 
L 472.803938 55.863552 
L 470.674286 53.717564 
L 468.271041 52.577461 
L 467.382857 51.673002 
L 464.091429 51.731439 
L 462.43199 52.577461 
L 461.238355 55.863552 
L 460.8 55.943887 
L 459.783137 55.863552 
L 457.508571 55.318467 
L 454.217143 53.42367 
L 453.082132 52.577461 
L 450.925714 50.404752 
L 449.230299 49.29137 
L 447.634286 47.675526 
L 444.342857 46.06696 
L 444.260881 46.005279 
L 441.051429 43.582344 
L 439.903028 42.719187 
L 437.76 40.558281 
L 436.073904 39.433096 
L 434.468571 37.806072 
L 431.177143 36.361755 
L 430.108372 39.433096 
L 428.948475 42.719187 
L 427.885714 45.66743 
L 427.671001 46.005279 
L 424.594286 46.224909 
L 424.051731 46.005279 
L 421.302857 43.89846 
L 418.526033 42.719187 
L 418.011429 42.193781 
L 414.72 40.197508 
L 413.484663 39.433096 
L 411.428571 37.358575 
L 408.235517 36.147005 
L 408.137143 36.045972 
L 404.845714 33.900084 
L 403.337765 32.860913 
L 401.554286 31.056087 
L 398.262857 30.329093 
L 396.201922 32.860913 
L 395.043422 36.147005 
L 394.971429 36.347816 
L 393.862115 39.433096 
L 391.68 39.726638 
L 390.065825 39.433096 
L 388.388571 38.382948 
L 385.097143 36.88007 
L 383.945207 36.147005 
L 381.805714 33.992206 
L 379.146736 32.860913 
L 378.514286 32.216646 
L 375.222857 30.341653 
L 373.99993 29.574822 
L 371.931429 27.489551 
L 368.64 26.297329 
L 368.619103 26.288731 
L 365.348571 24.941002 
L 362.265959 26.288731 
L 362.057143 26.886108 
L 361.114024 29.574822 
L 359.944096 32.860913 
L 358.765714 33.076873 
L 355.474286 33.428367 
L 354.331812 32.860913 
L 352.182857 30.769878 
L 349.258305 29.574822 
L 348.891429 29.201398 
L 345.6 27.069387 
L 344.313046 26.288731 
L 342.308571 24.269313 
L 339.017143 23.110093 
L 338.857876 23.002639 
L 335.725714 20.838527 
L 334.043269 19.716548 
L 332.434286 18.090258 
L 329.142857 18.356298 
L 328.086387 19.716548 
L 326.943016 23.002639 
L 325.851429 26.093938 
L 325.78248 26.288731 
L 322.56 26.848877 
L 319.268571 26.405844 
L 319.088762 26.288731 
L 315.977143 23.856934 
L 314.509125 23.002639 
L 312.685714 21.165337 
L 309.394286 19.992939 
L 308.998168 19.716548 
L 306.102857 17.308627 
L 304.521194 16.430457 
L 302.811429 14.705566 
L 299.52 14.066166 
L 297.816968 13.144365 
L 296.228571 11.963796 
L 293.699843 13.144365 
L 292.937143 15.333607 
L 292.553884 16.430457 
L 291.392929 19.716548 
L 289.645714 20.196358 
L 286.354286 20.532637 
L 284.485259 19.716548 
L 283.062857 18.281198 
L 279.771429 17.020116 
L 278.866605 16.430457 
L 276.48 14.163722 
L 274.412765 13.144365 
L 273.188571 11.905811 
L 269.897143 10.718436 
L 268.75326 9.858274 
L 266.605714 7.698242 
L 264.270553 6.572183 
L 263.314286 5.602514 
L 260.022857 5.935607 
L 258.934653 6.572183 
L 257.788337 9.858274 
L 256.731429 12.836711 
L 256.622038 13.144365 
L 253.44 13.986921 
L 250.148571 13.966889 
L 248.775358 13.144365 
L 246.857143 11.214771 
L 243.565714 10.005152 
L 243.337714 9.858274 
L 240.274286 7.437849 
L 238.73938 6.572183 
L 236.982857 4.801776 
L 233.691429 3.824471 
L 232.928309 3.286091 
L 230.4 1.200252 
L 228.570044 0 
L 227.108571 0 
L 223.817143 0 
L 223.346101 0 
L 222.20251 3.286091 
L 221.039772 6.572183 
L 220.525714 6.963635 
L 217.234286 7.592801 
L 213.942857 7.37882 
L 212.591094 6.572183 
L 210.651429 4.621831 
L 207.36 3.435502 
L 207.124211 3.286091 
L 204.068571 0.881149 
L 202.452915 0 
L 200.777143 0 
L 199.863187 0 
L 200.777143 0.586299 
L 204.068571 2.183991 
L 205.468864 3.286091 
L 207.36 4.484437 
L 210.651429 6.568316 
L 210.655274 6.572183 
L 213.942857 8.533982 
L 217.234286 9.523794 
L 218.117855 9.858274 
L 220.525714 10.283471 
L 223.817143 10.354421 
L 227.057582 9.858274 
L 227.108571 9.715114 
L 228.223904 6.572183 
L 229.36481 3.286091 
L 230.4 3.022355 
L 230.719682 3.286091 
L 233.691429 5.382653 
L 236.245233 6.572183 
L 236.982857 7.024316 
L 240.274286 8.708732 
L 241.729211 9.858274 
L 243.565714 11.041353 
L 246.830237 13.144365 
L 246.857143 13.162118 
L 250.148571 15.135402 
L 253.44 15.831918 
L 255.073691 16.430457 
L 256.731429 16.722502 
L 260.022857 16.798452 
L 262.414019 16.430457 
L 263.314286 13.900022 
L 263.582549 13.144365 
L 264.725187 9.858274 
L 266.605714 9.396607 
L 267.064713 9.858274 
L 269.897143 11.988168 
L 271.889267 13.144365 
L 273.188571 14.054956 
L 276.48 15.650189 
L 277.30153 16.430457 
L 279.771429 18.04005 
L 282.34399 19.716548 
L 283.062857 20.185022 
L 286.354286 21.681325 
L 289.645714 22.091923 
L 292.006526 23.002639 
L 292.937143 23.167663 
L 296.228571 23.143033 
L 297.12568 23.002639 
L 298.289269 19.716548 
L 299.433252 16.430457 
L 299.52 16.400975 
L 299.670158 16.430457 
L 302.811429 17.372768 
L 306.102857 18.5987 
L 307.44697 19.716548 
L 309.394286 21.075287 
L 312.470293 23.002639 
L 312.685714 23.163358 
L 315.977143 25.069229 
L 317.537564 26.288731 
L 319.268571 27.416167 
L 322.56 28.031857 
L 325.851429 28.295664 
L 328.935222 29.574822 
L 329.142857 29.613147 
L 329.872908 29.574822 
L 332.434286 26.711367 
L 332.583638 26.288731 
L 333.72605 23.002639 
L 335.725714 22.509068 
L 336.44007 23.002639 
L 339.017143 24.741325 
L 342.308571 26.125868 
L 342.470229 26.288731 
L 345.6 28.187227 
L 347.498367 29.574822 
L 348.891429 30.480291 
L 352.182857 32.452546 
L 352.602536 32.860913 
L 355.474286 34.28728 
L 358.765714 34.316797 
L 362.057143 34.393379 
L 365.348571 35.072257 
L 366.706729 32.860913 
L 367.85676 29.574822 
L 368.64 29.233316 
L 371.931429 29.278774 
L 372.225095 29.574822 
L 375.222857 31.454556 
L 377.20636 32.860913 
L 378.514286 33.854851 
L 381.805714 35.606149 
L 382.342728 36.147005 
L 385.097143 37.899851 
L 387.380663 39.433096 
L 388.388571 40.025047 
L 391.68 40.633399 
L 394.971429 40.569571 
L 398.262857 40.377968 
L 400.601051 39.433096 
L 401.554286 36.7385 
L 401.762332 36.147005 
L 404.845714 35.438648 
L 405.898653 36.147005 
L 408.137143 37.67806 
L 411.428571 39.118209 
L 411.740661 39.433096 
L 414.72 41.276676 
L 416.717378 42.719187 
L 418.011429 43.566036 
L 421.302857 45.529464 
L 421.923677 46.005279 
L 424.594286 47.086363 
L 427.885714 47.320986 
L 431.177143 47.872764 
L 434.468571 46.451699 
L 434.628961 46.005279 
L 435.785218 42.719187 
L 437.76 42.23371 
L 438.24146 42.719187 
L 441.051429 44.831206 
L 442.606621 46.005279 
L 444.342857 47.311683 
L 447.081443 49.29137 
L 447.634286 49.703201 
L 450.925714 51.94851 
L 451.549949 52.577461 
L 454.217143 54.56599 
L 456.092969 55.863552 
L 457.508571 56.61418 
L 460.8 57.202377 
L 464.091429 58.314674 
L 467.382857 57.833069 
L 468.16188 55.863552 
L 470.674286 55.323826 
L 471.209903 55.863552 
L 473.965714 57.922406 
L 475.722737 59.149644 
L 477.257143 60.294313 
L 480.548571 62.137173 
L 480.844671 62.435735 
L 483.84 64.357717 
L 485.617691 65.721826 
L 487.131429 66.753509 
L 490.422857 68.086126 
L 491.97799 69.007918 
L 493.714286 69.63298 
L 497.005714 69.773983 
L 500.297143 69.334346 
L 500.549661 69.007918 
L 503.588571 68.340033 
L 504.876677 69.007918 
L 506.88 70.2765 
L 510.171429 71.706787 
L 510.75409 72.294009 
L 513.462857 74.099406 
L 515.529379 75.5801 
L 516.754286 76.415896 
L 520.045714 78.518835 
L 520.432427 78.866192 
L 523.337143 80.2676 
L 526.628571 80.806588 
L 528.719461 82.152283 
L 529.92 82.549058 
L 532.913822 82.152283 
L 533.211429 81.348323 
L 534.12245 78.866192 
L 536.502857 77.207213 
L 539.794286 78.767054 
L 539.89238 78.866192 
L 543.085714 81.478861 
L 543.753588 82.152283 
L 546.377143 84.37442 
L 547.433996 85.438374 
L 549.668571 87.377703 
L 551.132734 88.724466 
L 552.96 90.322095 
L 555.738848 92.010557 
L 556.251429 92.276864 
L 559.542857 93.171183 
L 562.834286 94.068461 
L 566.125714 93.16295 
L 569.417143 92.129069 
L 572.708571 94.233378 
L 573.817815 95.296648 
z
M 184.32 3.839855 
L 187.611429 3.754581 
L 190.534412 3.286091 
L 190.902857 2.258363 
L 191.710861 0 
L 190.902857 0 
L 187.611429 0 
L 184.32 0 
L 184.25616 0 
L 181.028571 0.971086 
L 177.737143 0.950395 
L 175.943102 0 
L 174.445714 0 
L 173.737476 0 
L 174.445714 0.449757 
L 177.737143 2.323719 
L 181.028571 3.216694 
L 181.188139 3.286091 
z
M 115.2 1.049383 
L 118.491429 1.049383 
L 119.537999 0 
L 118.915725 0 
L 118.491429 0.425436 
L 115.2 0.425436 
L 114.773873 0 
L 114.148913 0 
z
" clip-path="url(#pa2801590dc)" style="fill: #eff6fc; fill-opacity: 0.9"/>
    <path d="M 576 95.887316 
L 576 95.296648 
L 576 92.010557 
L 576 88.724466 
L 576 85.438374 
L 576 82.152283 
L 576 78.866192 
L 576 75.5801 
L 576 72.294009 
L 576 69.007918 
L 576 65.721826 
L 576 62.435735 
L 576 59.149644 
L 576 55.863552 
L 576 52.577461 
L 576 49.29137 
L 576 46.005279 
L 576 42.719187 
L 576 39.433096 
L 576 36.147005 
L 576 32.860913 
L 576 29.574822 
L 576 26.288731 
L 576 24.765661 
L 572.708571 23.08303 
L 572.270544 23.002639 
L 569.417143 22.517447 
L 566.125714 20.451573 
L 564.93771 19.716548 
L 562.834286 18.269798 
L 559.642654 16.430457 
L 559.542857 16.365712 
L 556.251429 14.187979 
L 554.096544 13.144365 
L 552.96 12.453948 
L 549.668571 11.561484 
L 546.377143 10.9832 
L 543.085714 10.473405 
L 541.747556 9.858274 
L 539.794286 9.038764 
L 536.502857 7.188906 
L 535.463335 6.572183 
L 533.211429 5.201167 
L 530.359695 3.286091 
L 529.92 3.00827 
L 526.628571 0.815808 
L 525.004776 0 
L 523.337143 0 
L 520.045714 0 
L 516.754286 0 
L 513.462857 0 
L 510.171429 0 
L 506.88 0 
L 503.588571 0 
L 500.297143 0 
L 497.005714 0 
L 493.714286 0 
L 490.422857 0 
L 487.131429 0 
L 483.84 0 
L 480.548571 0 
L 477.257143 0 
L 473.965714 0 
L 470.674286 0 
L 467.382857 0 
L 464.091429 0 
L 460.8 0 
L 457.508571 0 
L 454.217143 0 
L 450.925714 0 
L 447.634286 0 
L 444.342857 0 
L 441.051429 0 
L 437.76 0 
L 434.468571 0 
L 431.177143 0 
L 427.885714 0 
L 424.594286 0 
L 421.302857 0 
L 418.011429 0 
L 414.72 0 
L 411.428571 0 
L 408.137143 0 
L 404.845714 0 
L 401.554286 0 
L 398.262857 0 
L 394.971429 0 
L 391.68 0 
L 388.388571 0 
L 385.097143 0 
L 381.805714 0 
L 378.514286 0 
L 375.222857 0 
L 371.931429 0 
L 368.64 0 
L 365.348571 0 
L 362.057143 0 
L 358.765714 0 
L 355.474286 0 
L 352.182857 0 
L 348.891429 0 
L 345.6 0 
L 342.308571 0 
L 339.017143 0 
L 335.725714 0 
L 332.434286 0 
L 329.142857 0 
L 325.851429 0 
L 322.56 0 
L 319.268571 0 
L 315.977143 0 
L 312.685714 0 
L 309.394286 0 
L 306.102857 0 
L 302.811429 0 
L 299.52 0 
L 296.228571 0 
L 292.937143 0 
L 289.645714 0 
L 286.354286 0 
L 283.062857 0 
L 279.771429 0 
L 276.48 0 
L 273.188571 0 
L 269.897143 0 
L 266.605714 0 
L 263.314286 0 
L 260.022857 0 
L 256.731429 0 
L 253.44 0 
L 250.148571 0 
L 246.857143 0 
L 243.565714 0 
L 240.274286 0 
L 236.982857 0 
L 233.691429 0 
L 230.4 0 
L 228.570044 0 
L 230.4 1.200252 
L 232.928309 3.286091 
L 233.691429 3.824471 
L 236.982857 4.801776 
L 238.73938 6.572183 
L 240.274286 7.437849 
L 243.337714 9.858274 
L 243.565714 10.005152 
L 246.857143 11.214771 
L 248.775358 13.144365 
L 250.148571 13.966889 
L 253.44 13.986921 
L 256.622038 13.144365 
L 256.731429 12.836711 
L 257.788337 9.858274 
L 258.934653 6.572183 
L 260.022857 5.935607 
L 263.314286 5.602514 
L 264.270553 6.572183 
L 266.605714 7.698242 
L 268.75326 9.858274 
L 269.897143 10.718436 
L 273.188571 11.905811 
L 274.412765 13.144365 
L 276.48 14.163722 
L 278.866605 16.430457 
L 279.771429 17.020116 
L 283.062857 18.281198 
L 284.485259 19.716548 
L 286.354286 20.532637 
L 289.645714 20.196358 
L 291.392929 19.716548 
L 292.553884 16.430457 
L 292.937143 15.333607 
L 293.699843 13.144365 
L 296.228571 11.963796 
L 297.816968 13.144365 
L 299.52 14.066166 
L 302.811429 14.705566 
L 304.521194 16.430457 
L 306.102857 17.308627 
L 308.998168 19.716548 
L 309.394286 19.992939 
L 312.685714 21.165337 
L 314.509125 23.002639 
L 315.977143 23.856934 
L 319.088762 26.288731 
L 319.268571 26.405844 
L 322.56 26.848877 
L 325.78248 26.288731 
L 325.851429 26.093938 
L 326.943016 23.002639 
L 328.086387 19.716548 
L 329.142857 18.356298 
L 332.434286 18.090258 
L 334.043269 19.716548 
L 335.725714 20.838527 
L 338.857876 23.002639 
L 339.017143 23.110093 
L 342.308571 24.269313 
L 344.313046 26.288731 
L 345.6 27.069387 
L 348.891429 29.201398 
L 349.258305 29.574822 
L 352.182857 30.769878 
L 354.331812 32.860913 
L 355.474286 33.428367 
L 358.765714 33.076873 
L 359.944096 32.860913 
L 361.114024 29.574822 
L 362.057143 26.886108 
L 362.265959 26.288731 
L 365.348571 24.941002 
L 368.619103 26.288731 
L 368.64 26.297329 
L 371.931429 27.489551 
L 373.99993 29.574822 
L 375.222857 30.341653 
L 378.514286 32.216646 
L 379.146736 32.860913 
L 381.805714 33.992206 
L 383.945207 36.147005 
L 385.097143 36.88007 
L 388.388571 38.382948 
L 390.065825 39.433096 
L 391.68 39.726638 
L 393.862115 39.433096 
L 394.971429 36.347816 
L 395.043422 36.147005 
L 396.201922 32.860913 
L 398.262857 30.329093 
L 401.554286 31.056087 
L 403.337765 32.860913 
L 404.845714 33.900084 
L 408.137143 36.045972 
L 408.235517 36.147005 
L 411.428571 37.358575 
L 413.484663 39.433096 
L 414.72 40.197508 
L 418.011429 42.193781 
L 418.526033 42.719187 
L 421.302857 43.89846 
L 424.051731 46.005279 
L 424.594286 46.224909 
L 427.671001 46.005279 
L 427.885714 45.66743 
L 428.948475 42.719187 
L 430.108372 39.433096 
L 431.177143 36.361755 
L 434.468571 37.806072 
L 436.073904 39.433096 
L 437.76 40.558281 
L 439.903028 42.719187 
L 441.051429 43.582344 
L 444.260881 46.005279 
L 444.342857 46.06696 
L 447.634286 47.675526 
L 449.230299 49.29137 
L 450.925714 50.404752 
L 453.082132 52.577461 
L 454.217143 53.42367 
L 457.508571 55.318467 
L 459.783137 55.863552 
L 460.8 55.943887 
L 461.238355 55.863552 
L 462.43199 52.577461 
L 464.091429 51.731439 
L 467.382857 51.673002 
L 468.271041 52.577461 
L 470.674286 53.717564 
L 472.803938 55.863552 
L 473.965714 56.73151 
L 477.257143 58.748639 
L 477.649834 59.149644 
L 480.548571 60.418775 
L 482.54889 62.435735 
L 483.84 63.264188 
L 487.042765 65.721826 
L 487.131429 65.782255 
L 490.422857 66.655541 
L 493.714286 66.975989 
L 494.900822 65.721826 
L 496.091557 62.435735 
L 497.005714 61.910263 
L 497.519635 62.435735 
L 500.297143 64.007496 
L 501.99162 65.721826 
L 503.588571 66.838732 
L 506.88 68.036232 
L 507.834742 69.007918 
L 510.171429 70.16818 
L 512.280747 72.294009 
L 513.462857 73.081887 
L 516.754286 75.078923 
L 517.244702 75.5801 
L 520.045714 76.872508 
L 522.265282 78.866192 
L 523.337143 79.383321 
L 526.628571 79.046199 
L 527.326041 78.866192 
L 528.541383 75.5801 
L 529.722588 72.294009 
L 529.92 71.738156 
L 533.211429 71.408204 
L 534.078553 72.294009 
L 536.502857 74.008678 
L 538.051946 75.5801 
L 539.794286 76.931748 
L 541.708357 78.866192 
L 543.085714 79.993095 
L 545.227112 82.152283 
L 546.377143 83.126353 
L 548.673733 85.438374 
L 549.668571 86.301769 
L 552.30246 88.724466 
L 552.96 89.299371 
L 556.251429 90.371689 
L 559.396906 92.010557 
L 559.542857 92.04684 
L 559.76259 92.010557 
L 561.001595 88.724466 
L 562.834286 87.776985 
L 566.125714 88.128239 
L 566.73107 88.724466 
L 569.417143 90.078566 
L 571.365717 92.010557 
L 572.708571 92.905235 
L 575.203382 95.296648 
z
M 213.942857 7.37882 
L 217.234286 7.592801 
L 220.525714 6.963635 
L 221.039772 6.572183 
L 222.20251 3.286091 
L 223.346101 0 
L 220.525714 0 
L 217.234286 0 
L 213.942857 0 
L 210.651429 0 
L 207.36 0 
L 204.068571 0 
L 202.452915 0 
L 204.068571 0.881149 
L 207.124211 3.286091 
L 207.36 3.435502 
L 210.651429 4.621831 
L 212.591094 6.572183 
z
M 115.2 0.425436 
L 118.491429 0.425436 
L 118.915725 0 
L 118.491429 0 
L 115.2 0 
L 114.773873 0 
z
M 177.737143 0.950395 
L 181.028571 0.971086 
L 184.25616 0 
L 181.028571 0 
L 177.737143 0 
L 175.943102 0 
z
" clip-path="url(#pa2801590dc)" style="fill: #eaf3fb; fill-opacity: 0.9"/>
    <path d="M 572.708571 23.08303 
L 576 24.765661 
L 576 23.002639 
L 576 19.716548 
L 576 16.430457 
L 576 13.144365 
L 576 9.858274 
L 576 8.620968 
L 572.708571 7.684227 
L 569.52604 6.572183 
L 569.417143 6.534982 
L 566.125714 5.427331 
L 562.834286 3.973587 
L 561.556724 3.286091 
L 559.542857 2.247248 
L 556.251429 0.434468 
L 555.352041 0 
L 552.96 0 
L 549.668571 0 
L 546.377143 0 
L 543.085714 0 
L 539.794286 0 
L 536.502857 0 
L 533.211429 0 
L 529.92 0 
L 526.628571 0 
L 525.004776 0 
L 526.628571 0.815808 
L 529.92 3.00827 
L 530.359695 3.286091 
L 533.211429 5.201167 
L 535.463335 6.572183 
L 536.502857 7.188906 
L 539.794286 9.038764 
L 541.747556 9.858274 
L 543.085714 10.473405 
L 546.377143 10.9832 
L 549.668571 11.561484 
L 552.96 12.453948 
L 554.096544 13.144365 
L 556.251429 14.187979 
L 559.542857 16.365712 
L 559.642654 16.430457 
L 562.834286 18.269798 
L 564.93771 19.716548 
L 566.125714 20.451573 
L 569.417143 22.517447 
L 572.270544 23.002639 
z
" clip-path="url(#pa2801590dc)" style="fill: #e5eff9; fill-opacity: 0.9"/>
    <path d="M 572.708571 7.684227 
L 576 8.620968 
L 576 6.572183 
L 576 3.286091 
L 576 0 
L 572.708571 0 
L 569.417143 0 
L 566.125714 0 
L 562.834286 0 
L 559.542857 0 
L 556.251429 0 
L 555.352041 0 
L 556.251429 0.434468 
L 559.542857 2.247248 
L 561.556724 3.286091 
L 562.834286 3.973587 
L 566.125714 5.427331 
L 569.417143 6.534982 
L 569.52604 6.572183 
z
" clip-path="url(#pa2801590dc)" style="fill: #dfecf7; fill-opacity: 0.9"/>
    <path clip-path="url(#pa2801590dc)" style="fill: #dae8f6; fill-opacity: 0.9"/>
    <path clip-path="url(#pa2801590dc)" style="fill: #d6e5f4; fill-opacity: 0.9"/>
    <path clip-path="url(#pa2801590dc)" style="fill: #d0e2f2; fill-opacity: 0.9"/>
    <path clip-path="url(#pa2801590dc)" style="fill: #cbdef1; fill-opacity: 0.9"/>
    <path clip-path="url(#pa2801590dc)" style="fill: #c6dbef; fill-opacity: 0.9"/>
    <path clip-path="url(#pa2801590dc)" style="fill: #bed8ec; fill-opacity: 0.9"/>
    <path clip-path="url(#pa2801590dc)" style="fill: #b5d4e9; fill-opacity: 0.9"/>
    <path clip-path="url(#pa2801590dc)" style="fill: #add0e6; fill-opacity: 0.9"/>
    <path clip-path="url(#pa2801590dc)" style="fill: #a5cde3; fill-opacity: 0.9"/>
    <path clip-path="url(#pa2801590dc)" style="fill: #9cc9e1; fill-opacity: 0.9"/>
    <path clip-path="url(#pa2801590dc)" style="fill: #91c3de; fill-opacity: 0.9"/>
    <path clip-path="url(#pa2801590dc)" style="fill: #85bcdc; fill-opacity: 0.9"/>
    <path clip-path="url(#pa2801590dc)" style="fill: #7cb7da; fill-opacity: 0.9"/>
    <path clip-path="url(#pa2801590dc)" style="fill: #71b1d7; fill-opacity: 0.9"/>
    <path clip-path="url(#pa2801590dc)" style="fill: #66abd4; fill-opacity: 0.9"/>
    <path clip-path="url(#pa2801590dc)" style="fill: #5da5d1; fill-opacity: 0.9"/>
    <path clip-path="url(#pa2801590dc)" style="fill: #56a0ce; fill-opacity: 0.9"/>
    <path clip-path="url(#pa2801590dc)" style="fill: #4d99ca; fill-opacity: 0.9"/>
    <path clip-path="url(#pa2801590dc)" style="fill: #4493c7; fill-opacity: 0.9"/>
    <path clip-path="url(#pa2801590dc)" style="fill: #3c8cc3; fill-opacity: 0.9"/>
    <path clip-path="url(#pa2801590dc)" style="fill: #3686c0; fill-opacity: 0.9"/>
    <path clip-path="url(#pa2801590dc)" style="fill: #2f7fbc; fill-opacity: 0.9"/>
    <path clip-path="url(#pa2801590dc)" style="fill: #2777b8; fill-opacity: 0.9"/>
    <path clip-path="url(#pa2801590dc)" style="fill: #2070b4; fill-opacity: 0.9"/>
    <path clip-path="url(#pa2801590dc)" style="fill: #1c6ab0; fill-opacity: 0.9"/>
    <path clip-path="url(#pa2801590dc)" style="fill: #1663aa; fill-opacity: 0.9"/>
    <path clip-path="url(#pa2801590dc)" style="fill: #115ca5; fill-opacity: 0.9"/>
    <path clip-path="url(#pa2801590dc)" style="fill: #0c56a0; fill-opacity: 0.9"/>
    <path clip-path="url(#pa2801590dc)" style="fill: #084f99; fill-opacity: 0.9"/>
    <path clip-path="url(#pa2801590dc)" style="fill: #08488e; fill-opacity: 0.9"/>
    <path clip-path="url(#pa2801590dc)" style="fill: #084184; fill-opacity: 0.9"/>
    <path clip-path="url(#pa2801590dc)" style="fill: #083a7a; fill-opacity: 0.9"/>
    <path clip-path="url(#pa2801590dc)" style="fill: #083370; fill-opacity: 0.9"/>
    <path clip-path="url(#pa2801590dc)" style="fill: #08306b; fill-opacity: 0.9"/>
   </g>
   <g id="QuadContourSet_2">
    <path d="M 113.523954 0 
L 115.2 1.673329 
L 118.491429 1.673329 
L 120.160273 0 
M 157.614396 0 
L 157.988571 0.089902 
L 158.830426 0 
M 172.060745 0 
L 177.737143 3.631941 
L 184.32 4.752828 
L 190.902857 5.158348 
L 194.194286 6.12433 
L 197.485714 4.696451 
L 197.990204 3.286091 
L 200.777143 2.550406 
L 203.109247 3.286091 
L 204.068571 3.735374 
L 207.36 5.533372 
L 213.942857 9.689143 
L 214.438039 9.858274 
L 217.234286 10.661739 
L 220.525714 11.184234 
L 223.817143 11.456807 
L 227.108571 11.595218 
L 230.4 12.126847 
L 233.691429 11.417005 
L 234.244743 9.858274 
L 236.982857 9.074828 
L 240.274286 10.144402 
L 245.221734 13.144365 
L 250.148571 16.303916 
L 253.44 17.114159 
L 256.731429 17.609674 
L 260.022857 17.8708 
L 266.605714 18.041965 
L 269.376778 16.430457 
L 269.897143 14.933438 
L 273.188571 15.588191 
L 274.953571 16.430457 
L 276.48 17.369054 
L 279.771429 19.059985 
L 283.062857 21.204957 
L 286.354286 22.830014 
L 289.645714 23.549151 
L 292.937143 24.03901 
L 296.228571 24.223267 
L 299.52 24.135015 
L 302.811429 23.775937 
L 304.024654 23.002639 
L 306.102857 20.724499 
L 309.394286 22.157636 
L 310.742891 23.002639 
L 312.685714 24.452114 
L 315.986365 26.288731 
L 319.268571 28.42649 
L 325.851429 29.984109 
L 329.142857 30.515329 
L 332.434286 30.523892 
L 335.725714 30.249397 
L 338.223142 29.574822 
L 339.017143 27.292868 
L 345.6 29.305066 
L 345.969053 29.574822 
L 352.182857 33.650514 
L 355.474286 35.146193 
L 358.765714 35.556721 
L 362.057143 36.394336 
L 365.348571 36.989706 
L 368.64 36.775339 
L 372.298829 36.147005 
L 373.449487 32.860913 
L 375.222857 32.567459 
L 375.63674 32.860913 
L 378.514286 35.047659 
L 380.426338 36.147005 
L 381.805714 37.12043 
L 385.861865 39.433096 
L 388.388571 40.917048 
L 391.68 41.540159 
L 394.971429 41.929921 
L 398.262857 42.886493 
L 401.554286 43.401766 
L 406.157995 42.719187 
L 407.31905 39.433096 
L 408.137143 39.242297 
L 408.562872 39.433096 
L 411.428571 41.11454 
L 414.72 42.355844 
L 415.223104 42.719187 
L 421.302857 46.708729 
L 424.594286 47.947817 
L 427.885714 48.660527 
L 429.309495 49.29137 
L 431.177143 49.921376 
L 434.468571 50.236356 
L 437.76 50.169792 
L 440.308634 49.29137 
L 441.051429 47.174667 
L 444.342857 48.556405 
L 454.441569 55.863552 
L 457.508571 57.48984 
L 460.8 58.460867 
L 462.136177 59.149644 
L 464.091429 59.921101 
L 467.382857 60.35613 
L 470.674286 61.247572 
L 472.678532 59.883654 
M 488.749284 68.525272 
L 490.422857 69.401807 
L 493.714286 70.501838 
L 497.005714 71.257291 
L 498.69257 72.294009 
L 500.297143 72.961586 
L 503.588571 72.879595 
L 506.88 72.110017 
L 507.339575 72.294009 
L 510.171429 73.772495 
L 513.462857 75.116925 
L 516.754286 77.384873 
L 520.045714 79.642943 
L 523.337143 81.151878 
L 529.92 83.453044 
L 533.211429 83.912243 
L 535.643495 85.438374 
L 536.502857 85.770849 
L 538.501603 85.438374 
L 539.794286 82.106595 
L 539.872667 82.152283 
L 543.085714 83.623217 
L 546.377143 85.76501 
L 549.963008 88.724466 
L 552.96 91.344819 
L 554.055663 92.010557 
L 556.251429 93.151346 
L 559.542857 94.295526 
L 562.834286 95.969662 
L 566.125714 96.502141 
L 569.417143 98.632727 
L 569.847395 98.58274 
L 572.708571 96.698732 
L 576 97.942026 
L 576 97.942026 
" clip-path="url(#pa2801590dc)" style="fill: none"/>
    <path d="M 114.148913 0 
L 115.2 1.049383 
L 118.491429 1.049383 
L 119.537999 0 
M 173.737476 0 
L 175.284298 0.927201 
M 191.662727 0.134533 
L 191.710861 0 
M 199.863187 0 
L 200.777143 0.586299 
L 202.555478 1.44952 
M 219.471233 10.097263 
L 220.525714 10.283471 
L 223.817143 10.354421 
L 227.057582 9.858274 
L 229.36481 3.286091 
L 230.4 3.022355 
L 230.719682 3.286091 
L 233.691429 5.382653 
L 236.982857 7.024316 
L 240.274286 8.708732 
L 241.729211 9.858274 
L 246.857143 13.162118 
L 250.148571 15.135402 
L 253.44 15.831918 
L 255.073691 16.430457 
L 256.731429 16.722502 
L 260.022857 16.798452 
L 262.414019 16.430457 
L 264.725187 9.858274 
L 266.605714 9.396607 
L 267.064713 9.858274 
L 269.897143 11.988168 
L 271.889267 13.144365 
L 273.188571 14.054956 
L 276.48 15.650189 
L 277.30153 16.430457 
L 283.062857 20.185022 
L 286.354286 21.681325 
L 289.645714 22.091923 
L 292.006526 23.002639 
L 292.937143 23.167663 
L 296.228571 23.143033 
L 297.12568 23.002639 
L 299.52 16.400975 
L 299.670158 16.430457 
L 302.811429 17.372768 
L 306.102857 18.5987 
L 307.44697 19.716548 
L 309.394286 21.075287 
L 317.537564 26.288731 
L 319.268571 27.416167 
L 322.56 28.031857 
L 325.851429 28.295664 
L 329.142857 29.613147 
L 329.872908 29.574822 
L 332.434286 26.711367 
L 333.72605 23.002639 
L 335.725714 22.509068 
L 339.017143 24.741325 
L 342.470229 26.288731 
L 345.6 28.187227 
L 348.891429 30.480291 
L 352.182857 32.452546 
L 352.602536 32.860913 
L 355.474286 34.28728 
L 362.057143 34.393379 
L 365.348571 35.072257 
L 366.706729 32.860913 
L 367.85676 29.574822 
L 368.64 29.233316 
L 371.931429 29.278774 
L 372.225095 29.574822 
L 375.222857 31.454556 
L 378.514286 33.854851 
L 381.805714 35.606149 
L 382.342728 36.147005 
L 388.388571 40.025047 
L 391.68 40.633399 
L 394.971429 40.569571 
L 398.262857 40.377968 
L 400.601051 39.433096 
L 401.762332 36.147005 
L 404.845714 35.438648 
L 408.137143 37.67806 
L 411.428571 39.118209 
L 411.740661 39.433096 
L 414.72 41.276676 
L 418.011429 43.566036 
L 421.923677 46.005279 
L 424.594286 47.086363 
L 427.885714 47.320986 
L 431.177143 47.872764 
L 434.468571 46.451699 
L 435.785218 42.719187 
L 437.76 42.23371 
L 438.24146 42.719187 
L 447.634286 49.703201 
L 450.925714 51.94851 
L 451.549949 52.577461 
L 456.092969 55.863552 
L 457.508571 56.61418 
L 460.8 57.202377 
L 464.091429 58.314674 
L 467.382857 57.833069 
L 468.16188 55.863552 
L 470.674286 55.323826 
L 471.209903 55.863552 
L 477.257143 60.294313 
L 480.548571 62.137173 
L 480.844671 62.435735 
L 483.84 64.357717 
L 487.131429 66.753509 
L 490.422857 68.086126 
L 491.97799 69.007918 
L 493.714286 69.63298 
L 497.005714 69.773983 
L 500.297143 69.334346 
L 500.549661 69.007918 
L 503.588571 68.340033 
L 504.876677 69.007918 
L 506.88 70.2765 
L 510.171429 71.706787 
L 510.75409 72.294009 
L 520.432427 78.866192 
L 523.337143 80.2676 
L 526.628571 80.806588 
L 528.719461 82.152283 
L 529.92 82.549058 
L 532.913822 82.152283 
L 534.12245 78.866192 
L 536.502857 77.207213 
L 539.89238 78.866192 
L 543.753588 82.152283 
L 546.377143 84.37442 
L 547.433996 85.438374 
L 552.96 90.322095 
L 556.251429 92.276864 
L 562.834286 94.068461 
L 566.125714 93.16295 
L 569.417143 92.129069 
L 572.708571 94.233378 
L 573.817815 95.296648 
L 576 96.914671 
L 576 96.914671 
" clip-path="url(#pa2801590dc)" style="fill: none"/>
    <path d="M 114.773873 0 
L 115.2 0.425436 
L 118.491429 0.425436 
L 118.915725 0 
M 175.943102 0 
L 177.737143 0.950395 
L 181.028571 0.971086 
L 184.25616 0 
M 202.452915 0 
L 204.068571 0.881149 
L 204.710433 1.386327 
M 221.279987 5.893297 
L 223.346101 0 
M 228.570044 0 
L 230.4 1.200252 
L 233.691429 3.824471 
L 236.982857 4.801776 
L 238.73938 6.572183 
L 240.274286 7.437849 
L 243.565714 10.005152 
L 246.857143 11.214771 
L 248.775358 13.144365 
L 250.148571 13.966889 
L 253.44 13.986921 
L 256.622038 13.144365 
L 258.934653 6.572183 
L 260.022857 5.935607 
L 263.314286 5.602514 
L 264.270553 6.572183 
L 266.605714 7.698242 
L 268.315744 9.418214 
M 284.262977 19.492243 
L 284.485259 19.716548 
L 286.354286 20.532637 
L 289.645714 20.196358 
L 291.392929 19.716548 
L 293.699843 13.144365 
L 296.228571 11.963796 
L 297.816968 13.144365 
L 299.52 14.066166 
L 302.811429 14.705566 
L 304.521194 16.430457 
L 306.102857 17.308627 
L 309.394286 19.992939 
L 312.685714 21.165337 
L 314.509125 23.002639 
L 315.977143 23.856934 
L 319.268571 26.405844 
L 322.56 26.848877 
L 325.78248 26.288731 
L 328.086387 19.716548 
L 329.142857 18.356298 
L 332.434286 18.090258 
L 334.043269 19.716548 
L 339.017143 23.110093 
L 342.308571 24.269313 
L 344.313046 26.288731 
L 345.6 27.069387 
L 348.891429 29.201398 
L 349.258305 29.574822 
L 352.182857 30.769878 
L 354.331812 32.860913 
L 355.474286 33.428367 
L 359.944096 32.860913 
L 362.265959 26.288731 
L 365.348571 24.941002 
L 368.64 26.297329 
L 371.931429 27.489551 
L 373.99993 29.574822 
L 375.222857 30.341653 
L 378.514286 32.216646 
L 379.146736 32.860913 
L 381.805714 33.992206 
L 383.945207 36.147005 
L 385.097143 36.88007 
L 388.388571 38.382948 
L 390.065825 39.433096 
L 391.68 39.726638 
L 393.862115 39.433096 
L 396.201922 32.860913 
L 398.262857 30.329093 
L 401.554286 31.056087 
L 403.337765 32.860913 
L 408.235517 36.147005 
L 411.428571 37.358575 
L 413.484663 39.433096 
L 418.011429 42.193781 
L 418.526033 42.719187 
L 421.302857 43.89846 
L 424.051731 46.005279 
L 424.594286 46.224909 
L 427.671001 46.005279 
L 427.885714 45.66743 
L 431.177143 36.361755 
L 434.468571 37.806072 
L 436.073904 39.433096 
L 437.76 40.558281 
L 439.903028 42.719187 
L 444.342857 46.06696 
L 447.634286 47.675526 
L 449.230299 49.29137 
L 450.925714 50.404752 
L 453.082132 52.577461 
L 454.217143 53.42367 
L 457.508571 55.318467 
L 459.783137 55.863552 
L 460.8 55.943887 
L 461.238355 55.863552 
L 462.43199 52.577461 
L 464.091429 51.731439 
L 467.382857 51.673002 
L 468.271041 52.577461 
L 470.674286 53.717564 
L 472.803938 55.863552 
L 473.965714 56.73151 
L 477.257143 58.748639 
L 477.649834 59.149644 
L 480.548571 60.418775 
L 482.54889 62.435735 
L 483.84 63.264188 
L 487.131429 65.782255 
L 490.422857 66.655541 
L 493.714286 66.975989 
L 494.900822 65.721826 
L 496.091557 62.435735 
L 497.005714 61.910263 
L 497.519635 62.435735 
L 500.297143 64.007496 
L 501.99162 65.721826 
L 503.588571 66.838732 
L 506.88 68.036232 
L 507.834742 69.007918 
L 510.171429 70.16818 
L 512.280747 72.294009 
L 513.462857 73.081887 
L 516.754286 75.078923 
L 517.244702 75.5801 
L 520.045714 76.872508 
L 522.265282 78.866192 
L 523.337143 79.383321 
L 527.326041 78.866192 
L 529.92 71.738156 
L 533.211429 71.408204 
L 534.078553 72.294009 
L 536.502857 74.008678 
L 538.051946 75.5801 
L 539.794286 76.931748 
L 541.708357 78.866192 
L 543.085714 79.993095 
L 545.227112 82.152283 
L 546.377143 83.126353 
L 549.668571 86.301769 
L 552.96 89.299371 
L 556.251429 90.371689 
L 559.542857 92.04684 
L 559.76259 92.010557 
L 561.001595 88.724466 
L 562.834286 87.776985 
L 566.125714 88.128239 
L 566.73107 88.724466 
L 569.417143 90.078566 
L 571.365717 92.010557 
L 572.708571 92.905235 
L 575.203382 95.296648 
L 576 95.887316 
L 576 95.887316 
" clip-path="url(#pa2801590dc)" style="fill: none"/>
    <path d="M 525.004776 0 
L 526.628571 0.815808 
L 527.417076 1.341041 
M 544.090747 10.62907 
L 546.377143 10.9832 
L 549.668571 11.561484 
L 552.96 12.453948 
L 554.096544 13.144365 
L 556.251429 14.187979 
L 559.542857 16.365712 
L 559.642654 16.430457 
L 562.834286 18.269798 
L 564.93771 19.716548 
L 566.125714 20.451573 
L 569.417143 22.517447 
L 572.270544 23.002639 
L 572.708571 23.08303 
L 576 24.765661 
" clip-path="url(#pa2801590dc)" style="fill: none"/>
    <path d="M 555.352041 0 
L 556.251429 0.434468 
L 557.598412 1.17633 
M 575.179858 8.387555 
L 576 8.620968 
" clip-path="url(#pa2801590dc)" style="fill: none"/>
    <path clip-path="url(#pa2801590dc)" style="fill: none"/>
    <path clip-path="url(#pa2801590dc)" style="fill: none"/>
    <path clip-path="url(#pa2801590dc)" style="fill: none"/>
    <path clip-path="url(#pa2801590dc)" style="fill: none"/>
    <path clip-path="url(#pa2801590dc)" style="fill: none"/>
    <path clip-path="url(#pa2801590dc)" style="fill: none"/>
    <path clip-path="url(#pa2801590dc)" style="fill: none"/>
    <path clip-path="url(#pa2801590dc)" style="fill: none"/>
    <path clip-path="url(#pa2801590dc)" style="fill: none"/>
    <path clip-path="url(#pa2801590dc)" style="fill: none"/>
    <path clip-path="url(#pa2801590dc)" style="fill: none"/>
    <path clip-path="url(#pa2801590dc)" style="fill: none"/>
    <path clip-path="url(#pa2801590dc)" style="fill: none"/>
    <path clip-path="url(#pa2801590dc)" style="fill: none"/>
    <path clip-path="url(#pa2801590dc)" style="fill: none"/>
    <path clip-path="url(#pa2801590dc)" style="fill: none"/>
    <path clip-path="url(#pa2801590dc)" style="fill: none"/>
    <path clip-path="url(#pa2801590dc)" style="fill: none"/>
    <path clip-path="url(#pa2801590dc)" style="fill: none"/>
    <path clip-path="url(#pa2801590dc)" style="fill: none"/>
    <path clip-path="url(#pa2801590dc)" style="fill: none"/>
    <path clip-path="url(#pa2801590dc)" style="fill: none"/>
    <path clip-path="url(#pa2801590dc)" style="fill: none"/>
    <path clip-path="url(#pa2801590dc)" style="fill: none"/>
    <path clip-path="url(#pa2801590dc)" style="fill: none"/>
    <path clip-path="url(#pa2801590dc)" style="fill: none"/>
    <path clip-path="url(#pa2801590dc)" style="fill: none"/>
    <path clip-path="url(#pa2801590dc)" style="fill: none"/>
    <path clip-path="url(#pa2801590dc)" style="fill: none"/>
    <path clip-path="url(#pa2801590dc)" style="fill: none"/>
    <path clip-path="url(#pa2801590dc)" style="fill: none"/>
    <path clip-path="url(#pa2801590dc)" style="fill: none"/>
    <path clip-path="url(#pa2801590dc)" style="fill: none"/>
    <path clip-path="url(#pa2801590dc)" style="fill: none"/>
   </g>
   <g id="text_1">
    <g clip-path="url(#pa2801590dc)">
     <!-- 0 -->
     <g style="opacity: 0" transform="translate(475.562352 64.512802) rotate(-328.420687) scale(0.12 -0.12)">
      <defs>
       <path id="DejaVuSans-30" d="M 2034 4250 
Q 1547 4250 1301 3770 
Q 1056 3291 1056 2328 
Q 1056 1369 1301 889 
Q 1547 409 2034 409 
Q 2525 409 2770 889 
Q 3016 1369 3016 2328 
Q 3016 3291 2770 3770 
Q 2525 4250 2034 4250 
z
M 2034 4750 
Q 2819 4750 3233 4129 
Q 3647 3509 3647 2328 
Q 3647 1150 3233 529 
Q 2819 -91 2034 -91 
Q 1250 -91 836 529 
Q 422 1150 422 2328 
Q 422 3509 836 4129 
Q 1250 4750 2034 4750 
z
" transform="scale(0.015625)"/>
      </defs>
      <use xlink:href="#DejaVuSans-30"/>
     </g>
    </g>
   </g>
   <g id="text_2">
    <g clip-path="url(#pa2801590dc)">
     <!-- 1 -->
     <g style="opacity: 0" transform="translate(180.278597 6.873787) rotate(-355.95807) scale(0.12 -0.12)">
      <defs>
       <path id="DejaVuSans-31" d="M 794 531 
L 1825 531 
L 1825 4091 
L 703 3866 
L 703 4441 
L 1819 4666 
L 2450 4666 
L 2450 531 
L 3481 531 
L 3481 0 
L 794 0 
L 794 531 
z
" transform="scale(0.015625)"/>
      </defs>
      <use xlink:href="#DejaVuSans-31"/>
     </g>
    </g>
   </g>
   <g id="text_3">
    <g clip-path="url(#pa2801590dc)">
     <!-- 1 -->
     <g style="opacity: 0" transform="translate(205.692017 7.538844) rotate(-330.134574) scale(0.12 -0.12)">
      <use xlink:href="#DejaVuSans-31"/>
     </g>
    </g>
   </g>
   <g id="text_4">
    <g clip-path="url(#pa2801590dc)">
     <!-- 2 -->
     <g style="opacity: 0" transform="translate(207.786174 8.137567) rotate(-337.107035) scale(0.12 -0.12)">
      <defs>
       <path id="DejaVuSans-32" d="M 1228 531 
L 3431 531 
L 3431 0 
L 469 0 
L 469 531 
Q 828 903 1448 1529 
Q 2069 2156 2228 2338 
Q 2531 2678 2651 2914 
Q 2772 3150 2772 3378 
Q 2772 3750 2511 3984 
Q 2250 4219 1831 4219 
Q 1534 4219 1204 4116 
Q 875 4013 500 3803 
L 500 4441 
Q 881 4594 1212 4672 
Q 1544 4750 1819 4750 
Q 2544 4750 2975 4387 
Q 3406 4025 3406 3419 
Q 3406 3131 3298 2873 
Q 3191 2616 2906 2266 
Q 2828 2175 2409 1742 
Q 1991 1309 1228 531 
z
" transform="scale(0.015625)"/>
      </defs>
      <use xlink:href="#DejaVuSans-32"/>
     </g>
    </g>
   </g>
   <g id="text_5">
    <g clip-path="url(#pa2801590dc)">
     <!-- 2 -->
     <g style="opacity: 0" transform="translate(271.453147 14.681829) rotate(-324.946632) scale(0.12 -0.12)">
      <use xlink:href="#DejaVuSans-32"/>
     </g>
    </g>
   </g>
   <g id="text_6">
    <g clip-path="url(#pa2801590dc)">
     <!-- 3 -->
     <g style="opacity: 0" transform="translate(530.486734 7.450317) rotate(-329.069035) scale(0.12 -0.12)">
      <defs>
       <path id="DejaVuSans-33" d="M 2597 2516 
Q 3050 2419 3304 2112 
Q 3559 1806 3559 1356 
Q 3559 666 3084 287 
Q 2609 -91 1734 -91 
Q 1441 -91 1130 -33 
Q 819 25 488 141 
L 488 750 
Q 750 597 1062 519 
Q 1375 441 1716 441 
Q 2309 441 2620 675 
Q 2931 909 2931 1356 
Q 2931 1769 2642 2001 
Q 2353 2234 1838 2234 
L 1294 2234 
L 1294 2753 
L 1863 2753 
Q 2328 2753 2575 2939 
Q 2822 3125 2822 3475 
Q 2822 3834 2567 4026 
Q 2313 4219 1838 4219 
Q 1578 4219 1281 4162 
Q 984 4106 628 3988 
L 628 4550 
Q 988 4650 1302 4700 
Q 1616 4750 1894 4750 
Q 2613 4750 3031 4423 
Q 3450 4097 3450 3541 
Q 3450 3153 3228 2886 
Q 3006 2619 2597 2516 
z
" transform="scale(0.015625)"/>
      </defs>
      <use xlink:href="#DejaVuSans-33"/>
     </g>
    </g>
   </g>
   <g id="text_7">
    <g clip-path="url(#pa2801590dc)">
     <!-- 4 -->
     <g style="opacity: 0" transform="translate(561.352592 7.087147) rotate(-338.236775) scale(0.12 -0.12)">
      <defs>
       <path id="DejaVuSans-34" d="M 2419 4116 
L 825 1625 
L 2419 1625 
L 2419 4116 
z
M 2253 4666 
L 3047 4666 
L 3047 1625 
L 3713 1625 
L 3713 1100 
L 3047 1100 
L 3047 0 
L 2419 0 
L 2419 1100 
L 313 1100 
L 313 1709 
L 2253 4666 
z
" transform="scale(0.015625)"/>
      </defs>
      <use xlink:href="#DejaVuSans-34"/>
     </g>
    </g>
   </g>
  </g>
 </g>
 <defs>
  <clipPath id="pa2801590dc">
   <rect x="0" y="0" width="576" height="818.23674"/>
  </clipPath>
 </defs>
</svg>
