<?xml version="1.0" encoding="utf-8" standalone="no"?>
<!DOCTYPE svg PUBLIC "-//W3C//DTD SVG 1.1//EN"
  "http://www.w3.org/Graphics/SVG/1.1/DTD/svg11.dtd">
<svg xmlns:xlink="http://www.w3.org/1999/xlink" width="576pt" height="818.958117pt" viewBox="0 0 576 818.958117" xmlns="http://www.w3.org/2000/svg" version="1.1">
 <metadata>
  <rdf:RDF xmlns:dc="http://purl.org/dc/elements/1.1/" xmlns:cc="http://creativecommons.org/ns#" xmlns:rdf="http://www.w3.org/1999/02/22-rdf-syntax-ns#">
   <cc:Work>
    <dc:type rdf:resource="http://purl.org/dc/dcmitype/StillImage"/>
    <dc:date>2025-07-25T22:44:15.219987</dc:date>
    <dc:format>image/svg+xml</dc:format>
    <dc:creator>
     <cc:Agent>
      <dc:title>Matplotlib v3.10.3, https://matplotlib.org/</dc:title>
     </cc:Agent>
    </dc:creator>
   </cc:Work>
  </rdf:RDF>
 </metadata>
 <defs>
  <style type="text/css">*{stroke-linejoin: round; stroke-linecap: butt}</style>
 </defs>
 <g id="figure_1">
  <g id="patch_1">
   <path d="M 0 818.958117 
L 576 818.958117 
L 576 0 
L 0 0 
L 0 818.958117 
z
" style="fill: none; opacity: 0"/>
  </g>
  <g id="axes_1">
   <g id="QuadContourSet_1">
    <path d="M 497.005714 817.540763 
L 497.975571 815.669129 
L 498.360873 812.38014 
L 500.297143 810.183016 
L 501.513792 809.091152 
L 502.796884 805.802163 
L 503.588571 804.998528 
L 505.567676 802.513175 
L 506.88 801.022544 
L 509.178771 799.224186 
L 509.871916 795.935198 
L 510.171429 795.641431 
L 513.462857 795.488127 
L 513.876276 792.64621 
L 515.626577 789.357221 
L 516.754286 788.137551 
L 517.911878 786.068233 
L 518.298305 782.779244 
L 520.045714 780.380499 
L 521.031655 779.490256 
L 521.90356 776.201268 
L 523.337143 774.14425 
L 524.925474 772.912279 
L 525.901359 769.623291 
L 526.628571 768.43927 
L 528.211891 766.334302 
L 529.92 763.937095 
L 530.387838 763.045314 
L 530.961215 759.756325 
L 532.588227 756.467337 
L 533.211429 755.736878 
L 534.600766 753.178349 
L 534.973547 749.88936 
L 536.502857 747.423092 
L 537.368052 746.600372 
L 538.706795 743.311383 
L 539.293467 740.022395 
L 539.794286 739.521995 
L 541.743741 736.733406 
L 543.085714 733.981211 
L 543.457566 733.444418 
L 544.19073 730.15543 
L 545.211024 726.866441 
L 546.377143 724.845344 
L 547.221376 723.577453 
L 548.074815 720.288464 
L 549.023714 716.999476 
L 549.668571 716.219251 
L 551.653842 713.710487 
L 552.100225 710.421499 
L 552.96 708.79926 
L 553.905102 707.132511 
L 555.853017 703.843522 
L 556.251429 702.660301 
L 556.958375 700.554534 
L 558.036665 697.265545 
L 559.370413 693.976557 
L 559.542857 693.741056 
L 561.046493 690.687569 
L 561.534248 687.39858 
L 562.834286 685.023665 
L 563.956303 684.109592 
L 565.308888 680.820603 
L 565.809136 677.531615 
L 566.125714 677.138597 
L 568.276996 674.242626 
L 569.417143 672.136897 
L 570.153113 670.953638 
L 570.557037 667.66465 
L 571.744427 664.375661 
L 572.708571 662.472069 
L 573.604931 661.086673 
L 574.539705 657.797684 
L 575.400019 654.508696 
L 576 653.641893 
L 576 652.533131 
L 574.632559 654.508696 
L 573.988172 657.797684 
L 572.735523 661.086673 
L 572.708571 661.128328 
L 571.06384 664.375661 
L 569.785445 667.66465 
L 569.417143 669.989 
L 569.168732 670.953638 
L 567.478051 674.242626 
L 566.125714 676.063088 
L 564.942806 677.531615 
L 564.57574 680.820603 
L 562.834286 683.914105 
L 562.643616 684.109592 
L 560.94551 687.39858 
L 560.427693 690.687569 
L 559.542857 692.484437 
L 558.450261 693.976557 
L 557.499648 697.265545 
L 556.251429 700.335336 
L 556.038269 700.554534 
L 555.002867 703.843522 
L 553.144781 707.132511 
L 552.96 707.458385 
L 551.38957 710.421499 
L 550.917326 713.710487 
L 549.668571 715.288524 
L 548.254467 716.999476 
L 547.584986 720.288464 
L 546.51148 723.577453 
L 546.377143 723.779203 
L 544.595888 726.866441 
L 543.58132 730.15543 
L 543.085714 732.13676 
L 542.494681 733.444418 
L 541.178744 736.733406 
L 539.794286 738.713797 
L 538.484593 740.022395 
L 538.080399 743.311383 
L 536.51813 746.600372 
L 536.502857 746.614895 
L 534.472391 749.88936 
L 534.117447 753.178349 
L 533.211429 754.846824 
L 531.828864 756.467337 
L 530.41834 759.756325 
L 529.92 762.255541 
L 529.579188 763.045314 
L 527.316812 766.334302 
L 526.628571 767.249294 
L 525.170489 769.623291 
L 523.944943 772.912279 
L 523.337143 773.383712 
L 521.373524 776.201268 
L 520.361321 779.490256 
L 520.045714 779.775229 
L 517.857385 782.779244 
L 517.469412 786.068233 
L 516.754286 787.346597 
L 514.895259 789.357221 
L 513.462857 792.248425 
L 513.134287 792.64621 
L 510.171429 794.768196 
L 508.981604 795.935198 
L 508.323089 799.224186 
L 506.88 800.353133 
L 504.978339 802.513175 
L 503.588571 804.258441 
L 502.067801 805.802163 
L 501.009857 809.091152 
L 500.297143 809.730766 
L 497.962316 812.38014 
L 497.561455 815.669129 
L 497.005714 816.741599 
L 494.425555 818.958117 
L 495.355829 818.958117 
z
" clip-path="url(#pe30d7813d5)" style="fill: #f5f9fe; fill-opacity: 0.9"/>
    <path d="M 497.005714 818.339926 
L 498.389687 815.669129 
L 498.759429 812.38014 
L 500.297143 810.635266 
L 502.017728 809.091152 
L 503.525968 805.802163 
L 503.588571 805.738615 
L 506.157013 802.513175 
L 506.88 801.691954 
L 510.034453 799.224186 
L 510.171429 798.58498 
L 513.462857 796.970348 
L 514.025754 795.935198 
L 514.442201 792.64621 
L 516.357894 789.357221 
L 516.754286 788.928505 
L 518.354343 786.068233 
L 518.739224 782.779244 
L 520.045714 780.985769 
L 521.70199 779.490256 
L 522.433597 776.201268 
L 523.337143 774.904788 
L 525.906006 772.912279 
L 526.628571 769.645476 
L 526.633315 769.623291 
L 529.10697 766.334302 
L 529.92 765.193274 
L 531.046842 763.045314 
L 531.50409 759.756325 
L 533.211429 756.644742 
L 533.393695 756.467337 
L 535.084085 753.178349 
L 535.474703 749.88936 
L 536.502857 748.23129 
L 538.217973 746.600372 
L 539.333191 743.311383 
L 539.794286 741.143832 
L 540.194132 740.022395 
L 542.308738 736.733406 
L 543.085714 735.13994 
L 544.26025 733.444418 
L 544.800141 730.15543 
L 545.826159 726.866441 
L 546.377143 725.911486 
L 547.931271 723.577453 
L 548.564644 720.288464 
L 549.668571 717.219663 
L 549.883036 716.999476 
L 552.390359 713.710487 
L 552.810879 710.421499 
L 552.96 710.140135 
L 554.665423 707.132511 
L 556.251429 704.511243 
L 556.920518 703.843522 
L 557.806003 700.554534 
L 558.573682 697.265545 
L 559.542857 694.997676 
L 560.520699 693.976557 
L 561.665293 690.687569 
L 562.122985 687.39858 
L 562.834286 686.099173 
L 565.276481 684.109592 
L 566.042037 680.820603 
L 566.125714 680.319226 
L 566.978014 677.531615 
L 569.075941 674.242626 
L 569.417143 673.612464 
L 571.070894 670.953638 
L 571.328628 667.66465 
L 572.425014 664.375661 
L 572.708571 663.81581 
L 574.474339 661.086673 
L 575.091237 657.797684 
L 576 654.893351 
L 576 654.508696 
L 576 653.641893 
L 575.400019 654.508696 
L 574.539705 657.797684 
L 573.604931 661.086673 
L 572.708571 662.472069 
L 571.744427 664.375661 
L 570.557037 667.66465 
L 570.153113 670.953638 
L 569.417143 672.136897 
L 568.276996 674.242626 
L 566.125714 677.138597 
L 565.809136 677.531615 
L 565.308888 680.820603 
L 563.956303 684.109592 
L 562.834286 685.023665 
L 561.534248 687.39858 
L 561.046493 690.687569 
L 559.542857 693.741056 
L 559.370413 693.976557 
L 558.036665 697.265545 
L 556.958375 700.554534 
L 556.251429 702.660301 
L 555.853017 703.843522 
L 553.905102 707.132511 
L 552.96 708.79926 
L 552.100225 710.421499 
L 551.653842 713.710487 
L 549.668571 716.219251 
L 549.023714 716.999476 
L 548.074815 720.288464 
L 547.221376 723.577453 
L 546.377143 724.845344 
L 545.211024 726.866441 
L 544.19073 730.15543 
L 543.457566 733.444418 
L 543.085714 733.981211 
L 541.743741 736.733406 
L 539.794286 739.521995 
L 539.293467 740.022395 
L 538.706795 743.311383 
L 537.368052 746.600372 
L 536.502857 747.423092 
L 534.973547 749.88936 
L 534.600766 753.178349 
L 533.211429 755.736878 
L 532.588227 756.467337 
L 530.961215 759.756325 
L 530.387838 763.045314 
L 529.92 763.937095 
L 528.211891 766.334302 
L 526.628571 768.43927 
L 525.901359 769.623291 
L 524.925474 772.912279 
L 523.337143 774.14425 
L 521.90356 776.201268 
L 521.031655 779.490256 
L 520.045714 780.380499 
L 518.298305 782.779244 
L 517.911878 786.068233 
L 516.754286 788.137551 
L 515.626577 789.357221 
L 513.876276 792.64621 
L 513.462857 795.488127 
L 510.171429 795.641431 
L 509.871916 795.935198 
L 509.178771 799.224186 
L 506.88 801.022544 
L 505.567676 802.513175 
L 503.588571 804.998528 
L 502.796884 805.802163 
L 501.513792 809.091152 
L 500.297143 810.183016 
L 498.360873 812.38014 
L 497.975571 815.669129 
L 497.005714 817.540763 
L 495.355829 818.958117 
L 496.286103 818.958117 
z
" clip-path="url(#pe30d7813d5)" style="fill: #eff6fc; fill-opacity: 0.9"/>
    <path d="M 497.005714 818.958117 
L 497.191026 818.958117 
L 498.803803 815.669129 
L 499.157985 812.38014 
L 500.297143 811.087515 
L 502.521664 809.091152 
L 503.588571 806.794012 
L 505.119921 805.802163 
L 506.746349 802.513175 
L 506.88 802.361365 
L 510.145193 802.513175 
L 510.171429 802.520243 
L 510.173124 802.513175 
L 511.735959 799.224186 
L 513.462857 798.139903 
L 514.661739 795.935198 
L 515.008127 792.64621 
L 516.754286 789.782306 
L 517.188847 789.357221 
L 518.796809 786.068233 
L 519.180144 782.779244 
L 520.045714 781.591038 
L 522.372324 779.490256 
L 522.963633 776.201268 
L 523.337143 775.665327 
L 526.628571 773.599531 
L 526.927846 772.912279 
L 527.581098 769.623291 
L 529.92 766.452099 
L 530.04063 766.334302 
L 531.705847 763.045314 
L 532.046965 759.756325 
L 533.211429 757.634118 
L 534.410183 756.467337 
L 535.567404 753.178349 
L 535.975859 749.88936 
L 536.502857 749.039487 
L 539.067894 746.600372 
L 539.794286 744.087333 
L 540.209643 743.311383 
L 541.244029 740.022395 
L 542.873736 736.733406 
L 543.085714 736.298669 
L 545.062934 733.444418 
L 545.409551 730.15543 
L 546.377143 727.069156 
L 546.591404 726.866441 
L 548.641167 723.577453 
L 549.054472 720.288464 
L 549.668571 718.581334 
L 551.20932 716.999476 
L 552.96 714.192328 
L 553.467633 713.710487 
L 554.263397 710.421499 
L 555.425744 707.132511 
L 556.251429 705.767862 
L 558.179713 703.843522 
L 558.653631 700.554534 
L 559.110699 697.265545 
L 559.542857 696.254295 
L 561.724061 693.976557 
L 562.284093 690.687569 
L 562.711723 687.39858 
L 562.834286 687.174682 
L 566.125714 685.087022 
L 567.132755 684.109592 
L 567.841659 680.820603 
L 568.321117 677.531615 
L 569.417143 675.599294 
L 570.811344 674.242626 
L 571.988676 670.953638 
L 572.100219 667.66465 
L 572.708571 665.774314 
L 574.148516 664.375661 
L 575.343747 661.086673 
L 575.64277 657.797684 
L 576 656.656005 
L 576 654.893351 
L 575.091237 657.797684 
L 574.474339 661.086673 
L 572.708571 663.81581 
L 572.425014 664.375661 
L 571.328628 667.66465 
L 571.070894 670.953638 
L 569.417143 673.612464 
L 569.075941 674.242626 
L 566.978014 677.531615 
L 566.125714 680.319226 
L 566.042037 680.820603 
L 565.276481 684.109592 
L 562.834286 686.099173 
L 562.122985 687.39858 
L 561.665293 690.687569 
L 560.520699 693.976557 
L 559.542857 694.997676 
L 558.573682 697.265545 
L 557.806003 700.554534 
L 556.920518 703.843522 
L 556.251429 704.511243 
L 554.665423 707.132511 
L 552.96 710.140135 
L 552.810879 710.421499 
L 552.390359 713.710487 
L 549.883036 716.999476 
L 549.668571 717.219663 
L 548.564644 720.288464 
L 547.931271 723.577453 
L 546.377143 725.911486 
L 545.826159 726.866441 
L 544.800141 730.15543 
L 544.26025 733.444418 
L 543.085714 735.13994 
L 542.308738 736.733406 
L 540.194132 740.022395 
L 539.794286 741.143832 
L 539.333191 743.311383 
L 538.217973 746.600372 
L 536.502857 748.23129 
L 535.474703 749.88936 
L 535.084085 753.178349 
L 533.393695 756.467337 
L 533.211429 756.644742 
L 531.50409 759.756325 
L 531.046842 763.045314 
L 529.92 765.193274 
L 529.10697 766.334302 
L 526.633315 769.623291 
L 526.628571 769.645476 
L 525.906006 772.912279 
L 523.337143 774.904788 
L 522.433597 776.201268 
L 521.70199 779.490256 
L 520.045714 780.985769 
L 518.739224 782.779244 
L 518.354343 786.068233 
L 516.754286 788.928505 
L 516.357894 789.357221 
L 514.442201 792.64621 
L 514.025754 795.935198 
L 513.462857 796.970348 
L 510.171429 798.58498 
L 510.034453 799.224186 
L 506.88 801.691954 
L 506.157013 802.513175 
L 503.588571 805.738615 
L 503.525968 805.802163 
L 502.017728 809.091152 
L 500.297143 810.635266 
L 498.759429 812.38014 
L 498.389687 815.669129 
L 497.005714 818.339926 
L 496.286103 818.958117 
z
" clip-path="url(#pe30d7813d5)" style="fill: #eaf3fb; fill-opacity: 0.9"/>
    <path d="M 499.217918 815.669129 
L 499.556541 812.38014 
L 500.297143 811.539765 
L 503.025599 809.091152 
L 503.588571 807.879027 
L 506.795113 805.802163 
L 506.88 805.599875 
L 507.695181 805.802163 
L 510.171429 806.147483 
L 510.345424 805.802163 
L 511.103478 802.513175 
L 513.462857 799.316102 
L 513.556424 799.224186 
L 515.297724 795.935198 
L 515.574052 792.64621 
L 516.754286 790.710489 
L 518.137722 789.357221 
L 519.239274 786.068233 
L 519.621064 782.779244 
L 520.045714 782.196308 
L 523.042658 779.490256 
L 523.337143 777.523418 
L 526.628571 776.208642 
L 526.636019 776.201268 
L 528.065389 772.912279 
L 528.528882 769.623291 
L 529.92 767.737148 
L 531.356592 766.334302 
L 532.364852 763.045314 
L 532.58984 759.756325 
L 533.211429 758.623495 
L 535.426672 756.467337 
L 536.050723 753.178349 
L 536.477015 749.88936 
L 536.502857 749.847685 
L 539.794286 747.048843 
L 540.254589 746.600372 
L 541.783608 743.311383 
L 542.293925 740.022395 
L 543.085714 738.223651 
L 544.642916 736.733406 
L 545.865618 733.444418 
L 546.018962 730.15543 
L 546.377143 729.012959 
L 548.645928 726.866441 
L 549.351063 723.577453 
L 549.544301 720.288464 
L 549.668571 719.943006 
L 552.535604 716.999476 
L 552.96 716.318973 
L 555.708113 713.710487 
L 555.912926 710.421499 
L 556.186065 707.132511 
L 556.251429 707.024482 
L 559.438909 703.843522 
L 559.501258 700.554534 
L 559.542857 699.893922 
L 562.834286 700.518446 
L 562.888391 700.554534 
L 566.125714 702.178651 
L 569.417143 702.561685 
L 572.708571 701.858077 
L 573.960113 700.554534 
L 576 697.433621 
L 576 697.265545 
L 576 693.976557 
L 576 690.687569 
L 576 687.39858 
L 576 684.109592 
L 576 680.820603 
L 576 677.531615 
L 576 674.242626 
L 576 670.953638 
L 576 667.66465 
L 576 664.375661 
L 576 661.086673 
L 576 657.797684 
L 576 656.656005 
L 575.64277 657.797684 
L 575.343747 661.086673 
L 574.148516 664.375661 
L 572.708571 665.774314 
L 572.100219 667.66465 
L 571.988676 670.953638 
L 570.811344 674.242626 
L 569.417143 675.599294 
L 568.321117 677.531615 
L 567.841659 680.820603 
L 567.132755 684.109592 
L 566.125714 685.087022 
L 562.834286 687.174682 
L 562.711723 687.39858 
L 562.284093 690.687569 
L 561.724061 693.976557 
L 559.542857 696.254295 
L 559.110699 697.265545 
L 558.653631 700.554534 
L 558.179713 703.843522 
L 556.251429 705.767862 
L 555.425744 707.132511 
L 554.263397 710.421499 
L 553.467633 713.710487 
L 552.96 714.192328 
L 551.20932 716.999476 
L 549.668571 718.581334 
L 549.054472 720.288464 
L 548.641167 723.577453 
L 546.591404 726.866441 
L 546.377143 727.069156 
L 545.409551 730.15543 
L 545.062934 733.444418 
L 543.085714 736.298669 
L 542.873736 736.733406 
L 541.244029 740.022395 
L 540.209643 743.311383 
L 539.794286 744.087333 
L 539.067894 746.600372 
L 536.502857 749.039487 
L 535.975859 749.88936 
L 535.567404 753.178349 
L 534.410183 756.467337 
L 533.211429 757.634118 
L 532.046965 759.756325 
L 531.705847 763.045314 
L 530.04063 766.334302 
L 529.92 766.452099 
L 527.581098 769.623291 
L 526.927846 772.912279 
L 526.628571 773.599531 
L 523.337143 775.665327 
L 522.963633 776.201268 
L 522.372324 779.490256 
L 520.045714 781.591038 
L 519.180144 782.779244 
L 518.796809 786.068233 
L 517.188847 789.357221 
L 516.754286 789.782306 
L 515.008127 792.64621 
L 514.661739 795.935198 
L 513.462857 798.139903 
L 511.735959 799.224186 
L 510.173124 802.513175 
L 510.171429 802.520243 
L 510.145193 802.513175 
L 506.88 802.361365 
L 506.746349 802.513175 
L 505.119921 805.802163 
L 503.588571 806.794012 
L 502.521664 809.091152 
L 500.297143 811.087515 
L 499.157985 812.38014 
L 498.803803 815.669129 
L 497.191026 818.958117 
L 498.009351 818.958117 
z
" clip-path="url(#pe30d7813d5)" style="fill: #e5eff9; fill-opacity: 0.9"/>
    <path d="M 499.632034 815.669129 
L 499.955097 812.38014 
L 500.297143 811.992014 
L 503.529535 809.091152 
L 503.588571 808.964042 
L 505.249876 809.091152 
L 506.88 809.540079 
L 507.765855 809.091152 
L 510.171429 808.390866 
L 511.475794 805.802163 
L 512.033833 802.513175 
L 513.462857 800.576778 
L 514.839753 799.224186 
L 515.933709 795.935198 
L 516.139977 792.64621 
L 516.754286 791.638672 
L 519.086597 789.357221 
L 519.68174 786.068233 
L 520.045714 782.920441 
L 520.59616 782.779244 
L 523.337143 781.967459 
L 524.70293 779.490256 
L 526.628571 778.04141 
L 528.486972 776.201268 
L 529.202932 772.912279 
L 529.476666 769.623291 
L 529.92 769.022197 
L 532.672554 766.334302 
L 533.023856 763.045314 
L 533.132715 759.756325 
L 533.211429 759.612871 
L 536.44316 756.467337 
L 536.502857 754.900159 
L 539.735413 753.178349 
L 539.794286 753.1304 
L 543.085714 750.030548 
L 543.195992 749.88936 
L 546.377143 747.038944 
L 546.813401 746.600372 
L 549.668571 743.650187 
L 550.055011 743.311383 
L 552.96 741.092535 
L 554.402236 740.022395 
L 556.251429 738.788683 
L 559.542857 736.767259 
L 559.589982 736.733406 
L 562.834286 734.532557 
L 564.456906 733.444418 
L 566.125714 732.285792 
L 568.355669 730.15543 
L 569.417143 728.517807 
L 570.534371 726.866441 
L 572.708571 723.730649 
L 572.825315 723.577453 
L 575.50843 720.288464 
L 576 719.773528 
L 576 716.999476 
L 576 713.710487 
L 576 710.421499 
L 576 707.132511 
L 576 703.843522 
L 576 700.554534 
L 576 697.433621 
L 573.960113 700.554534 
L 572.708571 701.858077 
L 569.417143 702.561685 
L 566.125714 702.178651 
L 562.888391 700.554534 
L 562.834286 700.518446 
L 559.542857 699.893922 
L 559.501258 700.554534 
L 559.438909 703.843522 
L 556.251429 707.024482 
L 556.186065 707.132511 
L 555.912926 710.421499 
L 555.708113 713.710487 
L 552.96 716.318973 
L 552.535604 716.999476 
L 549.668571 719.943006 
L 549.544301 720.288464 
L 549.351063 723.577453 
L 548.645928 726.866441 
L 546.377143 729.012959 
L 546.018962 730.15543 
L 545.865618 733.444418 
L 544.642916 736.733406 
L 543.085714 738.223651 
L 542.293925 740.022395 
L 541.783608 743.311383 
L 540.254589 746.600372 
L 539.794286 747.048843 
L 536.502857 749.847685 
L 536.477015 749.88936 
L 536.050723 753.178349 
L 535.426672 756.467337 
L 533.211429 758.623495 
L 532.58984 759.756325 
L 532.364852 763.045314 
L 531.356592 766.334302 
L 529.92 767.737148 
L 528.528882 769.623291 
L 528.065389 772.912279 
L 526.636019 776.201268 
L 526.628571 776.208642 
L 523.337143 777.523418 
L 523.042658 779.490256 
L 520.045714 782.196308 
L 519.621064 782.779244 
L 519.239274 786.068233 
L 518.137722 789.357221 
L 516.754286 790.710489 
L 515.574052 792.64621 
L 515.297724 795.935198 
L 513.556424 799.224186 
L 513.462857 799.316102 
L 511.103478 802.513175 
L 510.345424 805.802163 
L 510.171429 806.147483 
L 507.695181 805.802163 
L 506.88 805.599875 
L 506.795113 805.802163 
L 503.588571 807.879027 
L 503.025599 809.091152 
L 500.297143 811.539765 
L 499.556541 812.38014 
L 499.217918 815.669129 
L 498.009351 818.958117 
L 498.827675 818.958117 
z
" clip-path="url(#pe30d7813d5)" style="fill: #dfecf7; fill-opacity: 0.9"/>
    <path d="M 500.04615 815.669129 
L 500.297143 813.003691 
L 503.588571 812.612636 
L 506.88 813.435624 
L 507.592968 812.38014 
L 510.171429 810.442311 
L 511.533379 809.091152 
L 512.606164 805.802163 
L 512.964188 802.513175 
L 513.462857 801.837453 
L 516.123081 799.224186 
L 516.569693 795.935198 
L 516.705902 792.64621 
L 516.754286 792.566855 
L 520.035472 789.357221 
L 520.045714 789.168575 
L 523.337143 787.024023 
L 524.426068 786.068233 
L 526.628571 783.454578 
L 527.17006 782.779244 
L 529.92 779.912248 
L 530.304559 779.490256 
L 533.211429 776.494932 
L 533.500722 776.201268 
L 536.502857 773.443124 
L 537.065452 772.912279 
L 539.794286 770.528398 
L 540.807995 769.623291 
L 543.085714 767.698654 
L 544.691838 766.334302 
L 546.377143 764.922424 
L 548.45923 763.045314 
L 549.668571 761.870536 
L 551.452268 759.756325 
L 552.96 757.680542 
L 553.899922 756.467337 
L 556.251429 753.526316 
L 556.549592 753.178349 
L 559.542857 749.94456 
L 559.594894 749.88936 
L 562.834286 746.685946 
L 562.915715 746.600372 
L 566.125714 743.5926 
L 566.399642 743.311383 
L 569.417143 740.484625 
L 569.854128 740.022395 
L 572.708571 737.189604 
L 573.107622 736.733406 
L 575.751548 733.444418 
L 576 733.071378 
L 576 730.15543 
L 576 726.866441 
L 576 723.577453 
L 576 720.288464 
L 576 719.773528 
L 575.50843 720.288464 
L 572.825315 723.577453 
L 572.708571 723.730649 
L 570.534371 726.866441 
L 569.417143 728.517807 
L 568.355669 730.15543 
L 566.125714 732.285792 
L 564.456906 733.444418 
L 562.834286 734.532557 
L 559.589982 736.733406 
L 559.542857 736.767259 
L 556.251429 738.788683 
L 554.402236 740.022395 
L 552.96 741.092535 
L 550.055011 743.311383 
L 549.668571 743.650187 
L 546.813401 746.600372 
L 546.377143 747.038944 
L 543.195992 749.88936 
L 543.085714 750.030548 
L 539.794286 753.1304 
L 539.735413 753.178349 
L 536.502857 754.900159 
L 536.44316 756.467337 
L 533.211429 759.612871 
L 533.132715 759.756325 
L 533.023856 763.045314 
L 532.672554 766.334302 
L 529.92 769.022197 
L 529.476666 769.623291 
L 529.202932 772.912279 
L 528.486972 776.201268 
L 526.628571 778.04141 
L 524.70293 779.490256 
L 523.337143 781.967459 
L 520.59616 782.779244 
L 520.045714 782.920441 
L 519.68174 786.068233 
L 519.086597 789.357221 
L 516.754286 791.638672 
L 516.139977 792.64621 
L 515.933709 795.935198 
L 514.839753 799.224186 
L 513.462857 800.576778 
L 512.033833 802.513175 
L 511.475794 805.802163 
L 510.171429 808.390866 
L 507.765855 809.091152 
L 506.88 809.540079 
L 505.249876 809.091152 
L 503.588571 808.964042 
L 503.529535 809.091152 
L 500.297143 811.992014 
L 499.955097 812.38014 
L 499.632034 815.669129 
L 498.827675 818.958117 
L 499.646 818.958117 
z
" clip-path="url(#pe30d7813d5)" style="fill: #dae8f6; fill-opacity: 0.9"/>
    <path d="M 500.297143 818.958117 
L 503.588571 818.958117 
L 503.80286 818.958117 
L 506.88 817.839961 
L 509.044369 815.669129 
L 510.171429 812.570111 
L 510.358129 812.38014 
L 513.462857 809.427079 
L 513.812577 809.091152 
L 516.754286 806.404401 
L 517.404135 805.802163 
L 520.045714 803.44017 
L 521.052012 802.513175 
L 523.337143 800.422511 
L 524.609154 799.224186 
L 526.628571 797.33215 
L 528.027733 795.935198 
L 529.92 794.082994 
L 531.232707 792.64621 
L 533.211429 790.360474 
L 534.045942 789.357221 
L 536.502857 786.409937 
L 536.803985 786.068233 
L 539.751016 782.779244 
L 539.794286 782.734018 
L 542.962348 779.490256 
L 543.085714 779.36666 
L 546.249252 776.201268 
L 546.377143 776.074856 
L 549.430127 772.912279 
L 549.668571 772.669645 
L 552.393302 769.623291 
L 552.96 769.001342 
L 555.103599 766.334302 
L 556.251429 764.900836 
L 557.695432 763.045314 
L 559.542857 760.760714 
L 560.406753 759.756325 
L 562.834286 756.976565 
L 563.301072 756.467337 
L 566.125714 753.424201 
L 566.353959 753.178349 
L 569.417143 749.958861 
L 569.479038 749.88936 
L 572.526417 746.600372 
L 572.708571 746.406399 
L 575.366221 743.311383 
L 576 742.559152 
L 576 740.022395 
L 576 736.733406 
L 576 733.444418 
L 576 733.071378 
L 575.751548 733.444418 
L 573.107622 736.733406 
L 572.708571 737.189604 
L 569.854128 740.022395 
L 569.417143 740.484625 
L 566.399642 743.311383 
L 566.125714 743.5926 
L 562.915715 746.600372 
L 562.834286 746.685946 
L 559.594894 749.88936 
L 559.542857 749.94456 
L 556.549592 753.178349 
L 556.251429 753.526316 
L 553.899922 756.467337 
L 552.96 757.680542 
L 551.452268 759.756325 
L 549.668571 761.870536 
L 548.45923 763.045314 
L 546.377143 764.922424 
L 544.691838 766.334302 
L 543.085714 767.698654 
L 540.807995 769.623291 
L 539.794286 770.528398 
L 537.065452 772.912279 
L 536.502857 773.443124 
L 533.500722 776.201268 
L 533.211429 776.494932 
L 530.304559 779.490256 
L 529.92 779.912248 
L 527.17006 782.779244 
L 526.628571 783.454578 
L 524.426068 786.068233 
L 523.337143 787.024023 
L 520.045714 789.168575 
L 520.035472 789.357221 
L 516.754286 792.566855 
L 516.705902 792.64621 
L 516.569693 795.935198 
L 516.123081 799.224186 
L 513.462857 801.837453 
L 512.964188 802.513175 
L 512.606164 805.802163 
L 511.533379 809.091152 
L 510.171429 810.442311 
L 507.592968 812.38014 
L 506.88 813.435624 
L 503.588571 812.612636 
L 500.297143 813.003691 
L 500.04615 815.669129 
L 499.646 818.958117 
z
" clip-path="url(#pe30d7813d5)" style="fill: #d6e5f4; fill-opacity: 0.9"/>
    <path d="M 506.88 818.958117 
L 510.171429 818.958117 
L 513.462857 818.958117 
L 516.736495 818.958117 
L 516.754286 818.939932 
L 520.027737 815.669129 
L 520.045714 815.651438 
L 523.313983 812.38014 
L 523.337143 812.357687 
L 526.557434 809.091152 
L 526.628571 809.021104 
L 529.703491 805.802163 
L 529.92 805.578049 
L 533.019563 802.513175 
L 533.211429 802.293146 
L 535.557666 799.224186 
L 536.502857 798.030732 
L 537.939285 795.935198 
L 539.794286 793.683176 
L 540.74985 792.64621 
L 543.085714 790.097967 
L 543.799438 789.357221 
L 546.377143 786.617774 
L 546.90652 786.068233 
L 549.668571 783.09881 
L 549.960484 782.779244 
L 552.864553 779.490256 
L 552.96 779.384086 
L 555.590561 776.201268 
L 556.251429 775.374734 
L 558.08842 772.912279 
L 559.542857 770.826692 
L 560.341651 769.623291 
L 562.812345 766.334302 
L 562.834286 766.308411 
L 565.844395 763.045314 
L 566.125714 762.741906 
L 568.954679 759.756325 
L 569.417143 759.280076 
L 572.10868 756.467337 
L 572.708571 755.837791 
L 575.137022 753.178349 
L 576 752.194159 
L 576 749.88936 
L 576 746.600372 
L 576 743.311383 
L 576 742.559152 
L 575.366221 743.311383 
L 572.708571 746.406399 
L 572.526417 746.600372 
L 569.479038 749.88936 
L 569.417143 749.958861 
L 566.353959 753.178349 
L 566.125714 753.424201 
L 563.301072 756.467337 
L 562.834286 756.976565 
L 560.406753 759.756325 
L 559.542857 760.760714 
L 557.695432 763.045314 
L 556.251429 764.900836 
L 555.103599 766.334302 
L 552.96 769.001342 
L 552.393302 769.623291 
L 549.668571 772.669645 
L 549.430127 772.912279 
L 546.377143 776.074856 
L 546.249252 776.201268 
L 543.085714 779.36666 
L 542.962348 779.490256 
L 539.794286 782.734018 
L 539.751016 782.779244 
L 536.803985 786.068233 
L 536.502857 786.409937 
L 534.045942 789.357221 
L 533.211429 790.360474 
L 531.232707 792.64621 
L 529.92 794.082994 
L 528.027733 795.935198 
L 526.628571 797.33215 
L 524.609154 799.224186 
L 523.337143 800.422511 
L 521.052012 802.513175 
L 520.045714 803.44017 
L 517.404135 805.802163 
L 516.754286 806.404401 
L 513.812577 809.091152 
L 513.462857 809.427079 
L 510.358129 812.38014 
L 510.171429 812.570111 
L 509.044369 815.669129 
L 506.88 817.839961 
L 503.80286 818.958117 
z
" clip-path="url(#pe30d7813d5)" style="fill: #d0e2f2; fill-opacity: 0.9"/>
    <path d="M 516.754286 818.958117 
L 520.045714 818.958117 
L 523.337143 818.958117 
L 526.628571 818.958117 
L 529.747335 818.958117 
L 529.92 818.815325 
L 533.211429 815.700148 
L 533.235159 815.669129 
L 536.103724 812.38014 
L 536.502857 811.897575 
L 538.712114 809.091152 
L 539.794286 807.376481 
L 540.855319 805.802163 
L 542.819544 802.513175 
L 543.085714 802.05154 
L 544.927845 799.224186 
L 546.377143 797.667525 
L 548.41038 795.935198 
L 549.668571 794.728385 
L 552.053039 792.64621 
L 552.96 791.716373 
L 555.377407 789.357221 
L 556.251429 788.309053 
L 558.081088 786.068233 
L 559.542857 783.877026 
L 560.242086 782.779244 
L 562.455876 779.490256 
L 562.834286 778.920237 
L 564.695649 776.201268 
L 566.125714 773.670215 
L 566.586796 772.912279 
L 569.417143 769.640862 
L 569.440251 769.623291 
L 572.708571 766.776509 
L 573.258731 766.334302 
L 576 763.623138 
L 576 763.045314 
L 576 759.756325 
L 576 756.467337 
L 576 753.178349 
L 576 752.194159 
L 575.137022 753.178349 
L 572.708571 755.837791 
L 572.10868 756.467337 
L 569.417143 759.280076 
L 568.954679 759.756325 
L 566.125714 762.741906 
L 565.844395 763.045314 
L 562.834286 766.308411 
L 562.812345 766.334302 
L 560.341651 769.623291 
L 559.542857 770.826692 
L 558.08842 772.912279 
L 556.251429 775.374734 
L 555.590561 776.201268 
L 552.96 779.384086 
L 552.864553 779.490256 
L 549.960484 782.779244 
L 549.668571 783.09881 
L 546.90652 786.068233 
L 546.377143 786.617774 
L 543.799438 789.357221 
L 543.085714 790.097967 
L 540.74985 792.64621 
L 539.794286 793.683176 
L 537.939285 795.935198 
L 536.502857 798.030732 
L 535.557666 799.224186 
L 533.211429 802.293146 
L 533.019563 802.513175 
L 529.92 805.578049 
L 529.703491 805.802163 
L 526.628571 809.021104 
L 526.557434 809.091152 
L 523.337143 812.357687 
L 523.313983 812.38014 
L 520.045714 815.651438 
L 520.027737 815.669129 
L 516.754286 818.939932 
L 516.736495 818.958117 
z
" clip-path="url(#pe30d7813d5)" style="fill: #cbdef1; fill-opacity: 0.9"/>
    <path d="M 529.92 818.958117 
L 533.211429 818.958117 
L 536.502857 818.958117 
L 539.794286 818.958117 
L 543.085714 818.958117 
L 546.377143 818.958117 
L 549.668571 818.958117 
L 552.96 818.958117 
L 556.251429 818.958117 
L 559.542857 818.958117 
L 562.834286 818.958117 
L 565.09679 818.958117 
L 566.125714 818.492738 
L 569.417143 816.600097 
L 570.609813 815.669129 
L 572.708571 813.352075 
L 573.134704 812.38014 
L 573.924869 809.091152 
L 576 806.011939 
L 576 805.802163 
L 576 802.513175 
L 576 799.224186 
L 576 795.935198 
L 576 792.64621 
L 576 789.357221 
L 576 786.068233 
L 576 782.779244 
L 576 779.490256 
L 576 776.201268 
L 576 772.912279 
L 576 769.623291 
L 576 766.334302 
L 576 763.623138 
L 573.258731 766.334302 
L 572.708571 766.776509 
L 569.440251 769.623291 
L 569.417143 769.640862 
L 566.586796 772.912279 
L 566.125714 773.670215 
L 564.695649 776.201268 
L 562.834286 778.920237 
L 562.455876 779.490256 
L 560.242086 782.779244 
L 559.542857 783.877026 
L 558.081088 786.068233 
L 556.251429 788.309053 
L 555.377407 789.357221 
L 552.96 791.716373 
L 552.053039 792.64621 
L 549.668571 794.728385 
L 548.41038 795.935198 
L 546.377143 797.667525 
L 544.927845 799.224186 
L 543.085714 802.05154 
L 542.819544 802.513175 
L 540.855319 805.802163 
L 539.794286 807.376481 
L 538.712114 809.091152 
L 536.502857 811.897575 
L 536.103724 812.38014 
L 533.235159 815.669129 
L 533.211429 815.700148 
L 529.92 818.815325 
L 529.747335 818.958117 
z
" clip-path="url(#pe30d7813d5)" style="fill: #c6dbef; fill-opacity: 0.9"/>
    <path d="M 566.125714 818.958117 
L 569.417143 818.958117 
L 572.708571 818.958117 
L 576 818.958117 
L 576 815.669129 
L 576 812.38014 
L 576 809.091152 
L 576 806.011939 
L 573.924869 809.091152 
L 573.134704 812.38014 
L 572.708571 813.352075 
L 570.609813 815.669129 
L 569.417143 816.600097 
L 566.125714 818.492738 
L 565.09679 818.958117 
z
" clip-path="url(#pe30d7813d5)" style="fill: #bed8ec; fill-opacity: 0.9"/>
    <path clip-path="url(#pe30d7813d5)" style="fill: #b5d4e9; fill-opacity: 0.9"/>
    <path clip-path="url(#pe30d7813d5)" style="fill: #add0e6; fill-opacity: 0.9"/>
    <path clip-path="url(#pe30d7813d5)" style="fill: #a5cde3; fill-opacity: 0.9"/>
    <path clip-path="url(#pe30d7813d5)" style="fill: #9cc9e1; fill-opacity: 0.9"/>
    <path clip-path="url(#pe30d7813d5)" style="fill: #91c3de; fill-opacity: 0.9"/>
    <path clip-path="url(#pe30d7813d5)" style="fill: #85bcdc; fill-opacity: 0.9"/>
    <path clip-path="url(#pe30d7813d5)" style="fill: #7cb7da; fill-opacity: 0.9"/>
    <path clip-path="url(#pe30d7813d5)" style="fill: #71b1d7; fill-opacity: 0.9"/>
    <path clip-path="url(#pe30d7813d5)" style="fill: #66abd4; fill-opacity: 0.9"/>
    <path clip-path="url(#pe30d7813d5)" style="fill: #5da5d1; fill-opacity: 0.9"/>
    <path clip-path="url(#pe30d7813d5)" style="fill: #56a0ce; fill-opacity: 0.9"/>
    <path clip-path="url(#pe30d7813d5)" style="fill: #4d99ca; fill-opacity: 0.9"/>
    <path clip-path="url(#pe30d7813d5)" style="fill: #4493c7; fill-opacity: 0.9"/>
    <path clip-path="url(#pe30d7813d5)" style="fill: #3c8cc3; fill-opacity: 0.9"/>
    <path clip-path="url(#pe30d7813d5)" style="fill: #3686c0; fill-opacity: 0.9"/>
    <path clip-path="url(#pe30d7813d5)" style="fill: #2f7fbc; fill-opacity: 0.9"/>
    <path clip-path="url(#pe30d7813d5)" style="fill: #2777b8; fill-opacity: 0.9"/>
    <path clip-path="url(#pe30d7813d5)" style="fill: #2070b4; fill-opacity: 0.9"/>
    <path clip-path="url(#pe30d7813d5)" style="fill: #1c6ab0; fill-opacity: 0.9"/>
    <path clip-path="url(#pe30d7813d5)" style="fill: #1663aa; fill-opacity: 0.9"/>
    <path clip-path="url(#pe30d7813d5)" style="fill: #115ca5; fill-opacity: 0.9"/>
    <path clip-path="url(#pe30d7813d5)" style="fill: #0c56a0; fill-opacity: 0.9"/>
    <path clip-path="url(#pe30d7813d5)" style="fill: #084f99; fill-opacity: 0.9"/>
    <path clip-path="url(#pe30d7813d5)" style="fill: #08488e; fill-opacity: 0.9"/>
    <path clip-path="url(#pe30d7813d5)" style="fill: #084184; fill-opacity: 0.9"/>
    <path clip-path="url(#pe30d7813d5)" style="fill: #083a7a; fill-opacity: 0.9"/>
    <path clip-path="url(#pe30d7813d5)" style="fill: #083370; fill-opacity: 0.9"/>
    <path clip-path="url(#pe30d7813d5)" style="fill: #08306b; fill-opacity: 0.9"/>
   </g>
   <g id="QuadContourSet_2">
    <path d="M 576 652.533131 
L 574.632559 654.508696 
L 574.443238 655.475003 
M 567.934907 673.353874 
L 567.478051 674.242626 
L 566.125714 676.063088 
L 564.942806 677.531615 
L 564.57574 680.820603 
L 562.834286 683.914105 
L 562.643616 684.109592 
L 560.94551 687.39858 
L 560.427693 690.687569 
L 559.542857 692.484437 
L 558.450261 693.976557 
L 557.499648 697.265545 
L 556.251429 700.335336 
L 556.038269 700.554534 
L 555.002867 703.843522 
L 553.144781 707.132511 
L 552.96 707.458385 
L 551.38957 710.421499 
L 550.917326 713.710487 
L 549.668571 715.288524 
L 548.254467 716.999476 
L 547.584986 720.288464 
L 546.51148 723.577453 
L 546.377143 723.779203 
L 544.595888 726.866441 
L 543.58132 730.15543 
L 543.085714 732.13676 
L 542.494681 733.444418 
L 541.178744 736.733406 
L 539.794286 738.713797 
L 538.484593 740.022395 
L 538.080399 743.311383 
L 536.51813 746.600372 
L 536.502857 746.614895 
L 534.472391 749.88936 
L 534.117447 753.178349 
L 533.211429 754.846824 
L 531.828864 756.467337 
L 530.41834 759.756325 
L 529.92 762.255541 
L 529.579188 763.045314 
L 527.316812 766.334302 
L 526.628571 767.249294 
L 525.170489 769.623291 
L 523.944943 772.912279 
L 523.337143 773.383712 
L 521.373524 776.201268 
L 520.361321 779.490256 
L 520.045714 779.775229 
L 517.857385 782.779244 
L 517.469412 786.068233 
L 516.754286 787.346597 
L 514.895259 789.357221 
L 513.462857 792.248425 
L 513.134287 792.64621 
L 510.171429 794.768196 
L 508.981604 795.935198 
L 508.323089 799.224186 
L 506.88 800.353133 
L 504.978339 802.513175 
L 503.588571 804.258441 
L 502.067801 805.802163 
L 501.009857 809.091152 
L 500.297143 809.730766 
L 497.962316 812.38014 
L 497.561455 815.669129 
L 497.005714 816.741599 
L 494.425555 818.958117 
" clip-path="url(#pe30d7813d5)" style="fill: none"/>
    <path d="M 576 653.641893 
L 575.400019 654.508696 
L 574.539705 657.797684 
L 573.604931 661.086673 
L 572.708571 662.472069 
L 571.744427 664.375661 
L 570.557037 667.66465 
L 570.153113 670.953638 
L 569.417143 672.136897 
L 568.276996 674.242626 
L 566.125714 677.138597 
L 565.809136 677.531615 
L 565.597381 678.923844 
M 558.387887 696.399442 
L 558.036665 697.265545 
L 556.958375 700.554534 
L 556.251429 702.660301 
L 555.853017 703.843522 
L 553.905102 707.132511 
L 552.96 708.79926 
L 552.100225 710.421499 
L 551.653842 713.710487 
L 549.668571 716.219251 
L 549.023714 716.999476 
L 548.074815 720.288464 
L 547.221376 723.577453 
L 546.377143 724.845344 
L 545.211024 726.866441 
L 544.19073 730.15543 
L 543.457566 733.444418 
L 543.085714 733.981211 
L 541.743741 736.733406 
L 539.794286 739.521995 
L 539.293467 740.022395 
L 538.706795 743.311383 
L 537.368052 746.600372 
L 536.502857 747.423092 
L 534.973547 749.88936 
L 534.600766 753.178349 
L 533.211429 755.736878 
L 532.588227 756.467337 
L 530.961215 759.756325 
L 530.387838 763.045314 
L 529.92 763.937095 
L 528.211891 766.334302 
L 526.628571 768.43927 
L 525.901359 769.623291 
L 524.925474 772.912279 
L 523.337143 774.14425 
L 521.90356 776.201268 
L 521.031655 779.490256 
L 520.045714 780.380499 
L 518.298305 782.779244 
L 517.911878 786.068233 
L 516.754286 788.137551 
L 515.626577 789.357221 
L 513.876276 792.64621 
L 513.462857 795.488127 
L 510.171429 795.641431 
L 509.871916 795.935198 
L 509.178771 799.224186 
L 506.88 801.022544 
L 505.567676 802.513175 
L 503.588571 804.998528 
L 502.796884 805.802163 
L 501.513792 809.091152 
L 500.297143 810.183016 
L 498.360873 812.38014 
L 497.975571 815.669129 
L 497.005714 817.540763 
L 495.355829 818.958117 
" clip-path="url(#pe30d7813d5)" style="fill: none"/>
    <path d="M 576 654.893351 
L 575.091237 657.797684 
L 574.474339 661.086673 
L 572.708571 663.81581 
L 572.425014 664.375661 
L 571.328628 667.66465 
L 571.070894 670.953638 
L 569.417143 673.612464 
L 569.075941 674.242626 
L 566.978014 677.531615 
L 566.125714 680.319226 
L 566.042037 680.820603 
L 565.276481 684.109592 
L 562.834286 686.099173 
L 562.122985 687.39858 
L 561.665293 690.687569 
L 560.520699 693.976557 
L 559.542857 694.997676 
L 558.573682 697.265545 
L 557.806003 700.554534 
L 556.920518 703.843522 
L 556.251429 704.511243 
L 554.665423 707.132511 
L 552.96 710.140135 
L 552.810879 710.421499 
L 552.390359 713.710487 
L 549.883036 716.999476 
L 549.668571 717.219663 
L 548.564644 720.288464 
L 547.931271 723.577453 
L 546.377143 725.911486 
L 545.826159 726.866441 
L 545.534484 727.801428 
M 538.589607 745.504351 
L 538.217973 746.600372 
L 536.502857 748.23129 
L 535.474703 749.88936 
L 535.084085 753.178349 
L 533.393695 756.467337 
L 533.211429 756.644742 
L 531.50409 759.756325 
L 531.046842 763.045314 
L 529.92 765.193274 
L 529.10697 766.334302 
L 526.633315 769.623291 
L 526.628571 769.645476 
L 525.906006 772.912279 
L 523.337143 774.904788 
L 522.433597 776.201268 
L 521.70199 779.490256 
L 520.045714 780.985769 
L 518.739224 782.779244 
L 518.354343 786.068233 
L 516.754286 788.928505 
L 516.357894 789.357221 
L 514.442201 792.64621 
L 514.025754 795.935198 
L 513.462857 796.970348 
L 510.171429 798.58498 
L 510.034453 799.224186 
L 506.88 801.691954 
L 506.157013 802.513175 
L 503.588571 805.738615 
L 503.525968 805.802163 
L 502.017728 809.091152 
L 500.297143 810.635266 
L 498.759429 812.38014 
L 498.389687 815.669129 
L 497.005714 818.339926 
L 496.286103 818.958117 
" clip-path="url(#pe30d7813d5)" style="fill: none"/>
    <path d="M 576 656.656005 
L 575.64277 657.797684 
L 575.343747 661.086673 
L 574.148516 664.375661 
L 572.708571 665.774314 
L 572.100219 667.66465 
L 571.988676 670.953638 
L 570.811344 674.242626 
L 569.417143 675.599294 
L 568.321117 677.531615 
L 567.841659 680.820603 
L 567.132755 684.109592 
L 566.125714 685.087022 
L 562.834286 687.174682 
L 562.711723 687.39858 
L 562.284093 690.687569 
L 561.724061 693.976557 
L 559.542857 696.254295 
L 559.110699 697.265545 
L 558.653631 700.554534 
L 558.179713 703.843522 
L 556.251429 705.767862 
L 555.425744 707.132511 
L 554.263397 710.421499 
L 553.467633 713.710487 
L 552.96 714.192328 
L 551.20932 716.999476 
L 549.668571 718.581334 
L 549.054472 720.288464 
L 548.641167 723.577453 
L 546.591404 726.866441 
L 546.377143 727.069156 
L 545.409551 730.15543 
L 545.062934 733.444418 
L 543.085714 736.298669 
L 542.873736 736.733406 
L 541.244029 740.022395 
L 540.209643 743.311383 
L 539.794286 744.087333 
L 539.067894 746.600372 
L 536.502857 749.039487 
L 535.975859 749.88936 
L 535.820143 751.143224 
M 528.454035 768.439722 
L 527.581098 769.623291 
L 526.927846 772.912279 
L 526.628571 773.599531 
L 523.337143 775.665327 
L 522.963633 776.201268 
L 522.372324 779.490256 
L 520.045714 781.591038 
L 519.180144 782.779244 
L 518.796809 786.068233 
L 517.188847 789.357221 
L 516.754286 789.782306 
L 515.008127 792.64621 
L 514.661739 795.935198 
L 513.462857 798.139903 
L 511.735959 799.224186 
L 510.173124 802.513175 
L 510.171429 802.520243 
L 510.145193 802.513175 
L 506.88 802.361365 
L 506.746349 802.513175 
L 505.119921 805.802163 
L 503.588571 806.794012 
L 502.521664 809.091152 
L 500.297143 811.087515 
L 499.157985 812.38014 
L 498.803803 815.669129 
L 497.191026 818.958117 
" clip-path="url(#pe30d7813d5)" style="fill: none"/>
    <path d="M 576 697.433621 
L 573.960113 700.554534 
L 572.708571 701.858077 
L 569.417143 702.561685 
L 566.125714 702.178651 
L 562.888391 700.554534 
L 562.834286 700.518446 
L 559.542857 699.893922 
L 559.501258 700.554534 
L 559.438909 703.843522 
L 556.251429 707.024482 
L 556.186065 707.132511 
L 556.052256 708.743769 
M 548.973792 725.337172 
L 548.645928 726.866441 
L 546.377143 729.012959 
L 546.018962 730.15543 
L 545.865618 733.444418 
L 544.642916 736.733406 
L 543.085714 738.223651 
L 542.293925 740.022395 
L 541.783608 743.311383 
L 540.254589 746.600372 
L 539.794286 747.048843 
L 536.502857 749.847685 
L 536.477015 749.88936 
L 536.050723 753.178349 
L 535.426672 756.467337 
L 533.211429 758.623495 
L 532.58984 759.756325 
L 532.364852 763.045314 
L 531.356592 766.334302 
L 529.92 767.737148 
L 528.528882 769.623291 
L 528.065389 772.912279 
L 526.636019 776.201268 
L 526.628571 776.208642 
L 523.337143 777.523418 
L 523.042658 779.490256 
L 520.045714 782.196308 
L 519.621064 782.779244 
L 519.239274 786.068233 
L 518.137722 789.357221 
L 516.754286 790.710489 
L 515.574052 792.64621 
L 515.297724 795.935198 
L 513.556424 799.224186 
L 513.462857 799.316102 
L 511.103478 802.513175 
L 510.345424 805.802163 
L 510.171429 806.147483 
L 507.695181 805.802163 
L 506.88 805.599875 
L 506.795113 805.802163 
L 503.588571 807.879027 
L 503.025599 809.091152 
L 500.297143 811.539765 
L 499.556541 812.38014 
L 499.217918 815.669129 
L 498.009351 818.958117 
" clip-path="url(#pe30d7813d5)" style="fill: none"/>
    <path d="M 576 719.773528 
L 575.50843 720.288464 
L 575.07591 720.818651 
M 562.396263 734.8297 
L 559.589982 736.733406 
L 559.542857 736.767259 
L 556.251429 738.788683 
L 554.402236 740.022395 
L 552.96 741.092535 
L 550.055011 743.311383 
L 549.668571 743.650187 
L 546.813401 746.600372 
L 546.377143 747.038944 
L 543.195992 749.88936 
L 543.085714 750.030548 
L 539.794286 753.1304 
L 539.735413 753.178349 
L 536.502857 754.900159 
L 536.44316 756.467337 
L 533.211429 759.612871 
L 533.132715 759.756325 
L 533.023856 763.045314 
L 532.672554 766.334302 
L 529.92 769.022197 
L 529.476666 769.623291 
L 529.202932 772.912279 
L 528.486972 776.201268 
L 526.628571 778.04141 
L 524.70293 779.490256 
L 523.337143 781.967459 
L 520.59616 782.779244 
L 520.045714 782.920441 
L 519.68174 786.068233 
L 519.086597 789.357221 
L 516.754286 791.638672 
L 516.139977 792.64621 
L 515.933709 795.935198 
L 514.839753 799.224186 
L 513.462857 800.576778 
L 512.033833 802.513175 
L 511.475794 805.802163 
L 510.171429 808.390866 
L 507.765855 809.091152 
L 506.88 809.540079 
L 505.249876 809.091152 
L 503.588571 808.964042 
L 503.529535 809.091152 
L 500.297143 811.992014 
L 499.955097 812.38014 
L 499.632034 815.669129 
L 498.827675 818.958117 
" clip-path="url(#pe30d7813d5)" style="fill: none"/>
    <path d="M 576 733.071378 
L 575.751548 733.444418 
L 573.107622 736.733406 
L 572.708571 737.189604 
L 569.854128 740.022395 
L 569.417143 740.484625 
L 566.399642 743.311383 
L 566.125714 743.5926 
L 562.915715 746.600372 
L 562.834286 746.685946 
L 559.594894 749.88936 
L 559.542857 749.94456 
L 559.130871 750.389652 
M 546.57367 764.745244 
L 546.377143 764.922424 
L 544.691838 766.334302 
L 543.085714 767.698654 
L 540.807995 769.623291 
L 539.794286 770.528398 
L 537.065452 772.912279 
L 536.502857 773.443124 
L 533.500722 776.201268 
L 533.211429 776.494932 
L 530.304559 779.490256 
L 529.92 779.912248 
L 527.17006 782.779244 
L 526.628571 783.454578 
L 524.426068 786.068233 
L 523.337143 787.024023 
L 520.045714 789.168575 
L 520.035472 789.357221 
L 516.754286 792.566855 
L 516.705902 792.64621 
L 516.569693 795.935198 
L 516.123081 799.224186 
L 513.462857 801.837453 
L 512.964188 802.513175 
L 512.606164 805.802163 
L 511.533379 809.091152 
L 510.171429 810.442311 
L 507.592968 812.38014 
L 506.88 813.435624 
L 503.588571 812.612636 
L 500.297143 813.003691 
L 500.04615 815.669129 
L 499.646 818.958117 
" clip-path="url(#pe30d7813d5)" style="fill: none"/>
    <path d="M 576 742.559152 
L 575.775043 742.826153 
M 562.879467 756.927276 
L 562.834286 756.976565 
L 560.406753 759.756325 
L 559.542857 760.760714 
L 557.695432 763.045314 
L 556.251429 764.900836 
L 555.103599 766.334302 
L 552.96 769.001342 
L 552.393302 769.623291 
L 549.668571 772.669645 
L 549.430127 772.912279 
L 546.377143 776.074856 
L 546.249252 776.201268 
L 543.085714 779.36666 
L 542.962348 779.490256 
L 539.794286 782.734018 
L 539.751016 782.779244 
L 536.803985 786.068233 
L 536.502857 786.409937 
L 534.045942 789.357221 
L 533.211429 790.360474 
L 531.232707 792.64621 
L 529.92 794.082994 
L 528.027733 795.935198 
L 526.628571 797.33215 
L 524.609154 799.224186 
L 523.337143 800.422511 
L 521.052012 802.513175 
L 520.045714 803.44017 
L 517.404135 805.802163 
L 516.754286 806.404401 
L 513.812577 809.091152 
L 513.462857 809.427079 
L 510.358129 812.38014 
L 510.171429 812.570111 
L 509.044369 815.669129 
L 506.88 817.839961 
L 503.80286 818.958117 
" clip-path="url(#pe30d7813d5)" style="fill: none"/>
    <path d="M 576 752.194159 
L 575.137022 753.178349 
L 572.708571 755.837791 
L 572.10868 756.467337 
L 569.417143 759.280076 
L 568.954679 759.756325 
L 566.125714 762.741906 
L 565.844395 763.045314 
L 562.834286 766.308411 
L 562.812345 766.334302 
L 560.341651 769.623291 
L 559.542857 770.826692 
L 558.08842 772.912279 
L 556.251429 775.374734 
L 555.590561 776.201268 
L 552.96 779.384086 
L 552.864553 779.490256 
L 549.960484 782.779244 
L 549.668571 783.09881 
L 546.90652 786.068233 
L 546.377143 786.617774 
L 543.799438 789.357221 
L 543.085714 790.097967 
L 540.74985 792.64621 
L 539.794286 793.683176 
L 537.939285 795.935198 
L 536.502857 798.030732 
L 535.557666 799.224186 
L 533.211429 802.293146 
L 533.019563 802.513175 
L 529.971157 805.527464 
" clip-path="url(#pe30d7813d5)" style="fill: none"/>
    <path d="M 576 763.623138 
L 573.258731 766.334302 
L 572.708571 766.776509 
L 569.440251 769.623291 
L 569.417143 769.640862 
L 566.586796 772.912279 
L 566.125714 773.670215 
L 564.695649 776.201268 
L 562.834286 778.920237 
L 562.455876 779.490256 
L 560.242086 782.779244 
L 559.542857 783.877026 
L 558.081088 786.068233 
L 556.251429 788.309053 
L 555.377407 789.357221 
L 552.96 791.716373 
L 552.053039 792.64621 
L 549.668571 794.728385 
L 548.41038 795.935198 
L 546.377143 797.667525 
L 544.927845 799.224186 
L 543.782849 800.981558 
M 532.516319 816.358036 
L 529.92 818.815325 
L 529.747335 818.958117 
" clip-path="url(#pe30d7813d5)" style="fill: none"/>
    <path d="M 576 806.011939 
L 573.924869 809.091152 
L 573.134704 812.38014 
L 572.708571 813.352075 
L 570.609813 815.669129 
L 569.417143 816.600097 
L 566.125714 818.492738 
L 565.09679 818.958117 
" clip-path="url(#pe30d7813d5)" style="fill: none"/>
    <path clip-path="url(#pe30d7813d5)" style="fill: none"/>
    <path clip-path="url(#pe30d7813d5)" style="fill: none"/>
    <path clip-path="url(#pe30d7813d5)" style="fill: none"/>
    <path clip-path="url(#pe30d7813d5)" style="fill: none"/>
    <path clip-path="url(#pe30d7813d5)" style="fill: none"/>
    <path clip-path="url(#pe30d7813d5)" style="fill: none"/>
    <path clip-path="url(#pe30d7813d5)" style="fill: none"/>
    <path clip-path="url(#pe30d7813d5)" style="fill: none"/>
    <path clip-path="url(#pe30d7813d5)" style="fill: none"/>
    <path clip-path="url(#pe30d7813d5)" style="fill: none"/>
    <path clip-path="url(#pe30d7813d5)" style="fill: none"/>
    <path clip-path="url(#pe30d7813d5)" style="fill: none"/>
    <path clip-path="url(#pe30d7813d5)" style="fill: none"/>
    <path clip-path="url(#pe30d7813d5)" style="fill: none"/>
    <path clip-path="url(#pe30d7813d5)" style="fill: none"/>
    <path clip-path="url(#pe30d7813d5)" style="fill: none"/>
    <path clip-path="url(#pe30d7813d5)" style="fill: none"/>
    <path clip-path="url(#pe30d7813d5)" style="fill: none"/>
    <path clip-path="url(#pe30d7813d5)" style="fill: none"/>
    <path clip-path="url(#pe30d7813d5)" style="fill: none"/>
    <path clip-path="url(#pe30d7813d5)" style="fill: none"/>
    <path clip-path="url(#pe30d7813d5)" style="fill: none"/>
    <path clip-path="url(#pe30d7813d5)" style="fill: none"/>
    <path clip-path="url(#pe30d7813d5)" style="fill: none"/>
    <path clip-path="url(#pe30d7813d5)" style="fill: none"/>
    <path clip-path="url(#pe30d7813d5)" style="fill: none"/>
    <path clip-path="url(#pe30d7813d5)" style="fill: none"/>
    <path clip-path="url(#pe30d7813d5)" style="fill: none"/>
   </g>
   <g id="text_1">
    <g clip-path="url(#pe30d7813d5)">
     <!-- 0 -->
     <g style="opacity: 0" transform="translate(572.724105 669.148627) rotate(-68.242174) scale(0.12 -0.12)">
      <defs>
       <path id="DejaVuSans-30" d="M 2034 4250 
Q 1547 4250 1301 3770 
Q 1056 3291 1056 2328 
Q 1056 1369 1301 889 
Q 1547 409 2034 409 
Q 2525 409 2770 889 
Q 3016 1369 3016 2328 
Q 3016 3291 2770 3770 
Q 2525 4250 2034 4250 
z
M 2034 4750 
Q 2819 4750 3233 4129 
Q 3647 3509 3647 2328 
Q 3647 1150 3233 529 
Q 2819 -91 2034 -91 
Q 1250 -91 836 529 
Q 422 1150 422 2328 
Q 422 3509 836 4129 
Q 1250 4750 2034 4750 
z
" transform="scale(0.015625)"/>
      </defs>
      <use xlink:href="#DejaVuSans-30"/>
     </g>
    </g>
   </g>
   <g id="text_2">
    <g clip-path="url(#pe30d7813d5)">
     <!-- 1 -->
     <g style="opacity: 0" transform="translate(562.983173 692.239892) rotate(-65.723633) scale(0.12 -0.12)">
      <defs>
       <path id="DejaVuSans-31" d="M 794 531 
L 1825 531 
L 1825 4091 
L 703 3866 
L 703 4441 
L 1819 4666 
L 2450 4666 
L 2450 531 
L 3481 531 
L 3481 0 
L 794 0 
L 794 531 
z
" transform="scale(0.015625)"/>
      </defs>
      <use xlink:href="#DejaVuSans-31"/>
     </g>
    </g>
   </g>
   <g id="text_3">
    <g clip-path="url(#pe30d7813d5)">
     <!-- 2 -->
     <g style="opacity: 0" transform="translate(543.432611 741.660332) rotate(-61.911838) scale(0.12 -0.12)">
      <defs>
       <path id="DejaVuSans-32" d="M 1228 531 
L 3431 531 
L 3431 0 
L 469 0 
L 469 531 
Q 828 903 1448 1529 
Q 2069 2156 2228 2338 
Q 2531 2678 2651 2914 
Q 2772 3150 2772 3378 
Q 2772 3750 2511 3984 
Q 2250 4219 1831 4219 
Q 1534 4219 1204 4116 
Q 875 4013 500 3803 
L 500 4441 
Q 881 4594 1212 4672 
Q 1544 4750 1819 4750 
Q 2544 4750 2975 4387 
Q 3406 4025 3406 3419 
Q 3406 3131 3298 2873 
Q 3191 2616 2906 2266 
Q 2828 2175 2409 1742 
Q 1991 1309 1228 531 
z
" transform="scale(0.015625)"/>
      </defs>
      <use xlink:href="#DejaVuSans-32"/>
     </g>
    </g>
   </g>
   <g id="text_4">
    <g clip-path="url(#pe30d7813d5)">
     <!-- 3 -->
     <g style="opacity: 0" transform="translate(533.604148 764.563909) rotate(-67.009265) scale(0.12 -0.12)">
      <defs>
       <path id="DejaVuSans-33" d="M 2597 2516 
Q 3050 2419 3304 2112 
Q 3559 1806 3559 1356 
Q 3559 666 3084 287 
Q 2609 -91 1734 -91 
Q 1441 -91 1130 -33 
Q 819 25 488 141 
L 488 750 
Q 750 597 1062 519 
Q 1375 441 1716 441 
Q 2309 441 2620 675 
Q 2931 909 2931 1356 
Q 2931 1769 2642 2001 
Q 2353 2234 1838 2234 
L 1294 2234 
L 1294 2753 
L 1863 2753 
Q 2328 2753 2575 2939 
Q 2822 3125 2822 3475 
Q 2822 3834 2567 4026 
Q 2313 4219 1838 4219 
Q 1578 4219 1281 4162 
Q 984 4106 628 3988 
L 628 4550 
Q 988 4650 1302 4700 
Q 1616 4750 1894 4750 
Q 2613 4750 3031 4423 
Q 3450 4097 3450 3541 
Q 3450 3153 3228 2886 
Q 3006 2619 2597 2516 
z
" transform="scale(0.015625)"/>
      </defs>
      <use xlink:href="#DejaVuSans-33"/>
     </g>
    </g>
   </g>
   <g id="text_5">
    <g clip-path="url(#pe30d7813d5)">
     <!-- 4 -->
     <g style="opacity: 0" transform="translate(552.569097 722.052847) rotate(-49.441807) scale(0.12 -0.12)">
      <defs>
       <path id="DejaVuSans-34" d="M 2419 4116 
L 825 1625 
L 2419 1625 
L 2419 4116 
z
M 2253 4666 
L 3047 4666 
L 3047 1625 
L 3713 1625 
L 3713 1100 
L 3047 1100 
L 3047 0 
L 2419 0 
L 2419 1100 
L 313 1100 
L 313 1709 
L 2253 4666 
z
" transform="scale(0.015625)"/>
      </defs>
      <use xlink:href="#DejaVuSans-34"/>
     </g>
    </g>
   </g>
   <g id="text_6">
    <g clip-path="url(#pe30d7813d5)">
     <!-- 5 -->
     <g style="opacity: 0" transform="translate(569.685248 733.564172) rotate(-52.103232) scale(0.12 -0.12)">
      <defs>
       <path id="DejaVuSans-35" d="M 691 4666 
L 3169 4666 
L 3169 4134 
L 1269 4134 
L 1269 2991 
Q 1406 3038 1543 3061 
Q 1681 3084 1819 3084 
Q 2600 3084 3056 2656 
Q 3513 2228 3513 1497 
Q 3513 744 3044 326 
Q 2575 -91 1722 -91 
Q 1428 -91 1123 -41 
Q 819 9 494 109 
L 494 744 
Q 775 591 1075 516 
Q 1375 441 1709 441 
Q 2250 441 2565 725 
Q 2881 1009 2881 1497 
Q 2881 1984 2565 2268 
Q 2250 2553 1709 2553 
Q 1456 2553 1204 2497 
Q 953 2441 691 2322 
L 691 4666 
z
" transform="scale(0.015625)"/>
      </defs>
      <use xlink:href="#DejaVuSans-35"/>
     </g>
    </g>
   </g>
   <g id="text_7">
    <g clip-path="url(#pe30d7813d5)">
     <!-- 6 -->
     <g style="opacity: 0" transform="translate(553.188032 762.728877) rotate(-51.648336) scale(0.12 -0.12)">
      <defs>
       <path id="DejaVuSans-36" d="M 2113 2584 
Q 1688 2584 1439 2293 
Q 1191 2003 1191 1497 
Q 1191 994 1439 701 
Q 1688 409 2113 409 
Q 2538 409 2786 701 
Q 3034 994 3034 1497 
Q 3034 2003 2786 2293 
Q 2538 2584 2113 2584 
z
M 3366 4563 
L 3366 3988 
Q 3128 4100 2886 4159 
Q 2644 4219 2406 4219 
Q 1781 4219 1451 3797 
Q 1122 3375 1075 2522 
Q 1259 2794 1537 2939 
Q 1816 3084 2150 3084 
Q 2853 3084 3261 2657 
Q 3669 2231 3669 1497 
Q 3669 778 3244 343 
Q 2819 -91 2113 -91 
Q 1303 -91 875 529 
Q 447 1150 447 2328 
Q 447 3434 972 4092 
Q 1497 4750 2381 4750 
Q 2619 4750 2861 4703 
Q 3103 4656 3366 4563 
z
" transform="scale(0.015625)"/>
      </defs>
      <use xlink:href="#DejaVuSans-36"/>
     </g>
    </g>
   </g>
   <g id="text_8">
    <g clip-path="url(#pe30d7813d5)">
     <!-- 7 -->
     <g style="opacity: 0" transform="translate(569.20564 755.007915) rotate(-46.663355) scale(0.12 -0.12)">
      <defs>
       <path id="DejaVuSans-37" d="M 525 4666 
L 3525 4666 
L 3525 4397 
L 1831 0 
L 1172 0 
L 2766 4134 
L 525 4134 
L 525 4666 
z
" transform="scale(0.015625)"/>
      </defs>
      <use xlink:href="#DejaVuSans-37"/>
     </g>
    </g>
   </g>
   <g id="text_9">
    <g clip-path="url(#pe30d7813d5)">
     <!-- 8 -->
     <g style="opacity: 0" transform="translate(522.958888 817.421131) rotate(-45.032705) scale(0.12 -0.12)">
      <defs>
       <path id="DejaVuSans-38" d="M 2034 2216 
Q 1584 2216 1326 1975 
Q 1069 1734 1069 1313 
Q 1069 891 1326 650 
Q 1584 409 2034 409 
Q 2484 409 2743 651 
Q 3003 894 3003 1313 
Q 3003 1734 2745 1975 
Q 2488 2216 2034 2216 
z
M 1403 2484 
Q 997 2584 770 2862 
Q 544 3141 544 3541 
Q 544 4100 942 4425 
Q 1341 4750 2034 4750 
Q 2731 4750 3128 4425 
Q 3525 4100 3525 3541 
Q 3525 3141 3298 2862 
Q 3072 2584 2669 2484 
Q 3125 2378 3379 2068 
Q 3634 1759 3634 1313 
Q 3634 634 3220 271 
Q 2806 -91 2034 -91 
Q 1263 -91 848 271 
Q 434 634 434 1313 
Q 434 1759 690 2068 
Q 947 2378 1403 2484 
z
M 1172 3481 
Q 1172 3119 1398 2916 
Q 1625 2713 2034 2713 
Q 2441 2713 2670 2916 
Q 2900 3119 2900 3481 
Q 2900 3844 2670 4047 
Q 2441 4250 2034 4250 
Q 1625 4250 1398 4047 
Q 1172 3844 1172 3481 
z
" transform="scale(0.015625)"/>
      </defs>
      <use xlink:href="#DejaVuSans-38"/>
     </g>
    </g>
   </g>
   <g id="text_10">
    <g clip-path="url(#pe30d7813d5)">
     <!-- 9 -->
     <g style="opacity: 0" transform="translate(539.156219 814.125082) rotate(-54.103766) scale(0.12 -0.12)">
      <defs>
       <path id="DejaVuSans-39" d="M 703 97 
L 703 672 
Q 941 559 1184 500 
Q 1428 441 1663 441 
Q 2288 441 2617 861 
Q 2947 1281 2994 2138 
Q 2813 1869 2534 1725 
Q 2256 1581 1919 1581 
Q 1219 1581 811 2004 
Q 403 2428 403 3163 
Q 403 3881 828 4315 
Q 1253 4750 1959 4750 
Q 2769 4750 3195 4129 
Q 3622 3509 3622 2328 
Q 3622 1225 3098 567 
Q 2575 -91 1691 -91 
Q 1453 -91 1209 -44 
Q 966 3 703 97 
z
M 1959 2075 
Q 2384 2075 2632 2365 
Q 2881 2656 2881 3163 
Q 2881 3666 2632 3958 
Q 2384 4250 1959 4250 
Q 1534 4250 1286 3958 
Q 1038 3666 1038 3163 
Q 1038 2656 1286 2365 
Q 1534 2075 1959 2075 
z
" transform="scale(0.015625)"/>
      </defs>
      <use xlink:href="#DejaVuSans-39"/>
     </g>
    </g>
   </g>
  </g>
 </g>
 <defs>
  <clipPath id="pe30d7813d5">
   <rect x="0" y="0" width="576" height="818.958117"/>
  </clipPath>
 </defs>
</svg>
