<?xml version="1.0" encoding="utf-8" standalone="no"?>
<!DOCTYPE svg PUBLIC "-//W3C//DTD SVG 1.1//EN"
  "http://www.w3.org/Graphics/SVG/1.1/DTD/svg11.dtd">
<svg xmlns:xlink="http://www.w3.org/1999/xlink" width="576pt" height="815.79817pt" viewBox="0 0 576 815.79817" xmlns="http://www.w3.org/2000/svg" version="1.1">
 <metadata>
  <rdf:RDF xmlns:dc="http://purl.org/dc/elements/1.1/" xmlns:cc="http://creativecommons.org/ns#" xmlns:rdf="http://www.w3.org/1999/02/22-rdf-syntax-ns#">
   <cc:Work>
    <dc:type rdf:resource="http://purl.org/dc/dcmitype/StillImage"/>
    <dc:date>2025-07-25T22:44:49.894638</dc:date>
    <dc:format>image/svg+xml</dc:format>
    <dc:creator>
     <cc:Agent>
      <dc:title>Matplotlib v3.10.3, https://matplotlib.org/</dc:title>
     </cc:Agent>
    </dc:creator>
   </cc:Work>
  </rdf:RDF>
 </metadata>
 <defs>
  <style type="text/css">*{stroke-linejoin: round; stroke-linecap: butt}</style>
 </defs>
 <g id="figure_1">
  <g id="patch_1">
   <path d="M 0 815.79817 
L 576 815.79817 
L 576 0 
L 0 0 
L 0 815.79817 
z
" style="fill: none; opacity: 0"/>
  </g>
  <g id="axes_1">
   <g id="QuadContourSet_1">
    <path d="M 3.272727 815.79817 
L 6.545455 815.79817 
L 9.818182 815.79817 
L 13.090909 815.79817 
L 16.363636 815.79817 
L 19.636364 815.79817 
L 22.909091 815.79817 
L 26.181818 815.79817 
L 29.454545 815.79817 
L 32.727273 815.79817 
L 36 815.79817 
L 39.272727 815.79817 
L 42.545455 815.79817 
L 45.818182 815.79817 
L 49.090909 815.79817 
L 52.363636 815.79817 
L 55.636364 815.79817 
L 58.909091 815.79817 
L 62.181818 815.79817 
L 65.454545 815.79817 
L 68.727273 815.79817 
L 72 815.79817 
L 75.272727 815.79817 
L 78.545455 815.79817 
L 81.818182 815.79817 
L 85.090909 815.79817 
L 88.363636 815.79817 
L 91.636364 815.79817 
L 94.909091 815.79817 
L 98.181818 815.79817 
L 101.454545 815.79817 
L 104.727273 815.79817 
L 108 815.79817 
L 111.272727 815.79817 
L 114.545455 815.79817 
L 117.818182 815.79817 
L 121.090909 815.79817 
L 124.363636 815.79817 
L 127.636364 815.79817 
L 130.909091 815.79817 
L 134.181818 815.79817 
L 137.454545 815.79817 
L 140.727273 815.79817 
L 144 815.79817 
L 147.272727 815.79817 
L 150.545455 815.79817 
L 153.818182 815.79817 
L 157.090909 815.79817 
L 160.363636 815.79817 
L 163.636364 815.79817 
L 166.909091 815.79817 
L 170.181818 815.79817 
L 173.454545 815.79817 
L 176.727273 815.79817 
L 180 815.79817 
L 183.272727 815.79817 
L 186.545455 815.79817 
L 189.818182 815.79817 
L 193.090909 815.79817 
L 196.363636 815.79817 
L 199.636364 815.79817 
L 202.909091 815.79817 
L 206.181818 815.79817 
L 209.454545 815.79817 
L 212.727273 815.79817 
L 216 815.79817 
L 219.272727 815.79817 
L 222.545455 815.79817 
L 225.818182 815.79817 
L 229.090909 815.79817 
L 232.363636 815.79817 
L 235.636364 815.79817 
L 238.909091 815.79817 
L 242.181818 815.79817 
L 245.454545 815.79817 
L 248.727273 815.79817 
L 252 815.79817 
L 255.272727 815.79817 
L 258.545455 815.79817 
L 261.818182 815.79817 
L 265.090909 815.79817 
L 268.363636 815.79817 
L 271.636364 815.79817 
L 274.909091 815.79817 
L 278.181818 815.79817 
L 281.454545 815.79817 
L 284.727273 815.79817 
L 288 815.79817 
L 291.272727 815.79817 
L 294.545455 815.79817 
L 297.818182 815.79817 
L 301.090909 815.79817 
L 304.363636 815.79817 
L 307.636364 815.79817 
L 310.909091 815.79817 
L 314.181818 815.79817 
L 317.454545 815.79817 
L 320.727273 815.79817 
L 324 815.79817 
L 327.272727 815.79817 
L 330.545455 815.79817 
L 333.818182 815.79817 
L 337.090909 815.79817 
L 340.363636 815.79817 
L 343.636364 815.79817 
L 346.909091 815.79817 
L 350.181818 815.79817 
L 353.454545 815.79817 
L 356.727273 815.79817 
L 360 815.79817 
L 363.272727 815.79817 
L 366.545455 815.79817 
L 369.818182 815.79817 
L 373.090909 815.79817 
L 376.363636 815.79817 
L 379.636364 815.79817 
L 382.909091 815.79817 
L 386.181818 815.79817 
L 389.454545 815.79817 
L 392.727273 815.79817 
L 396 815.79817 
L 399.272727 815.79817 
L 402.545455 815.79817 
L 405.818182 815.79817 
L 409.090909 815.79817 
L 412.363636 815.79817 
L 415.636364 815.79817 
L 418.909091 815.79817 
L 422.181818 815.79817 
L 425.454545 815.79817 
L 428.727273 815.79817 
L 432 815.79817 
L 435.272727 815.79817 
L 438.545455 815.79817 
L 441.818182 815.79817 
L 445.090909 815.79817 
L 448.363636 815.79817 
L 451.636364 815.79817 
L 454.909091 815.79817 
L 458.181818 815.79817 
L 461.454545 815.79817 
L 464.727273 815.79817 
L 468 815.79817 
L 471.272727 815.79817 
L 474.545455 815.79817 
L 477.818182 815.79817 
L 481.090909 815.79817 
L 484.363636 815.79817 
L 487.636364 815.79817 
L 490.909091 815.79817 
L 494.181818 815.79817 
L 497.454545 815.79817 
L 500.727273 815.79817 
L 504 815.79817 
L 507.272727 815.79817 
L 510.545455 815.79817 
L 513.818182 815.79817 
L 517.090909 815.79817 
L 520.363636 815.79817 
L 523.636364 815.79817 
L 526.909091 815.79817 
L 530.181818 815.79817 
L 533.454545 815.79817 
L 536.727273 815.79817 
L 540 815.79817 
L 543.272727 815.79817 
L 546.545455 815.79817 
L 549.818182 815.79817 
L 553.090909 815.79817 
L 556.363636 815.79817 
L 559.636364 815.79817 
L 562.909091 815.79817 
L 566.181818 815.79817 
L 569.454545 815.79817 
L 572.727273 815.79817 
L 576 815.79817 
L 576 812.521872 
L 576 809.245574 
L 576 805.969277 
L 576 802.692979 
L 576 799.416681 
L 576 796.140383 
L 576 792.864085 
L 576 789.587787 
L 576 786.311489 
L 576 783.035191 
L 576 779.758894 
L 576 776.482596 
L 576 773.206298 
L 576 769.93 
L 576 766.653702 
L 576 763.377404 
L 576 760.101106 
L 576 756.824808 
L 576 753.548511 
L 576 750.272213 
L 576 746.995915 
L 576 743.719617 
L 576 740.443319 
L 576 737.167021 
L 576 733.890723 
L 576 730.614425 
L 576 727.338128 
L 576 724.06183 
L 576 720.785532 
L 576 717.509234 
L 576 714.232936 
L 576 710.956638 
L 576 707.68034 
L 576 704.404043 
L 576 701.127745 
L 576 697.851447 
L 576 694.575149 
L 576 691.298851 
L 576 688.022553 
L 576 684.746255 
L 576 681.469957 
L 576 678.19366 
L 576 674.917362 
L 576 671.641064 
L 576 668.364766 
L 576 665.088468 
L 576 661.81217 
L 576 658.535872 
L 576 655.259574 
L 576 651.983277 
L 576 648.706979 
L 576 645.430681 
L 576 642.154383 
L 576 638.878085 
L 576 635.601787 
L 576 632.325489 
L 576 629.049191 
L 576 625.772894 
L 576 622.496596 
L 576 619.220298 
L 576 615.944 
L 576 612.667702 
L 576 609.391404 
L 576 606.115106 
L 576 602.838808 
L 576 599.562511 
L 576 596.286213 
L 576 593.009915 
L 576 589.733617 
L 576 586.457319 
L 576 583.181021 
L 576 579.904723 
L 576 576.628425 
L 576 573.352128 
L 576 570.07583 
L 576 566.799532 
L 576 563.523234 
L 576 560.246936 
L 576 556.970638 
L 576 553.69434 
L 576 550.418043 
L 576 547.141745 
L 576 543.865447 
L 576 540.589149 
L 576 537.312851 
L 576 534.036553 
L 576 530.760255 
L 576 527.483957 
L 576 524.20766 
L 576 520.931362 
L 576 517.655064 
L 576 514.378766 
L 576 511.102468 
L 576 507.82617 
L 576 504.549872 
L 576 501.273574 
L 576 497.997277 
L 576 494.720979 
L 576 491.444681 
L 576 488.168383 
L 576 484.892085 
L 576 481.615787 
L 576 478.339489 
L 576 475.063191 
L 576 471.786894 
L 576 468.510596 
L 576 465.234298 
L 576 461.958 
L 576 458.681702 
L 576 455.405404 
L 576 452.129106 
L 576 448.852808 
L 576 445.576511 
L 576 442.300213 
L 576 439.023915 
L 576 435.747617 
L 576 432.471319 
L 576 429.195021 
L 576 425.918723 
L 576 422.642426 
L 576 419.366128 
L 576 416.08983 
L 576 412.813532 
L 576 409.537234 
L 576 406.260936 
L 576 402.984638 
L 576 399.70834 
L 576 396.432043 
L 576 393.155745 
L 576 389.879447 
L 576 386.603149 
L 576 383.326851 
L 576 380.050553 
L 576 376.774255 
L 576 373.497957 
L 576 370.22166 
L 576 366.945362 
L 576 363.669064 
L 576 360.392766 
L 576 357.116468 
L 576 353.84017 
L 576 350.563872 
L 576 347.287574 
L 576 344.011277 
L 576 340.734979 
L 576 337.458681 
L 576 334.182383 
L 576 330.906085 
L 576 327.629787 
L 576 324.353489 
L 576 321.077191 
L 576 317.800894 
L 576 314.524596 
L 576 311.248298 
L 576 307.972 
L 576 304.695702 
L 576 301.419404 
L 576 298.143106 
L 576 294.866808 
L 576 291.590511 
L 576 288.314213 
L 576 285.037915 
L 576 281.761617 
L 576 278.485319 
L 576 275.209021 
L 576 271.932723 
L 576 268.656426 
L 576 265.380128 
L 576 262.10383 
L 576 258.827532 
L 576 255.551234 
L 576 252.274936 
L 576 248.998638 
L 576 245.72234 
L 576 242.446043 
L 576 239.169745 
L 576 235.893447 
L 576 232.617149 
L 576 229.340851 
L 576 226.064553 
L 576 222.788255 
L 576 219.511957 
L 576 216.23566 
L 576 212.959362 
L 576 209.683064 
L 576 206.406766 
L 576 203.130468 
L 576 199.85417 
L 576 196.577872 
L 576 193.301574 
L 576 190.025277 
L 576 186.748979 
L 576 183.472681 
L 576 180.196383 
L 576 176.920085 
L 576 173.643787 
L 576 170.367489 
L 576 167.091191 
L 576 163.814894 
L 576 160.538596 
L 576 157.262298 
L 576 153.986 
L 576 150.709702 
L 576 147.433404 
L 576 144.157106 
L 576 140.880809 
L 576 137.604511 
L 576 134.328213 
L 576 131.051915 
L 576 127.775617 
L 576 124.499319 
L 576 121.223021 
L 576 117.946723 
L 576 114.670426 
L 576 111.394128 
L 576 108.11783 
L 576 104.841532 
L 576 101.565234 
L 576 98.288936 
L 576 95.012638 
L 576 91.73634 
L 576 88.460043 
L 576 85.183745 
L 576 81.907447 
L 576 78.631149 
L 576 75.354851 
L 576 72.078553 
L 576 68.802255 
L 576 65.525957 
L 576 62.24966 
L 576 58.973362 
L 576 55.697064 
L 576 52.420766 
L 576 49.144468 
L 576 45.86817 
L 576 42.591872 
L 576 39.315574 
L 576 36.039277 
L 576 32.762979 
L 576 29.486681 
L 576 26.210383 
L 576 22.934085 
L 576 19.657787 
L 576 16.381489 
L 576 13.105191 
L 576 9.828894 
L 576 6.552596 
L 576 3.276298 
L 576 -0 
L 572.727273 -0 
L 569.454545 -0 
L 566.181818 -0 
L 562.909091 -0 
L 559.636364 -0 
L 556.363636 -0 
L 553.090909 -0 
L 549.818182 -0 
L 546.545455 -0 
L 543.272727 -0 
L 540 -0 
L 536.727273 -0 
L 533.454545 -0 
L 530.181818 -0 
L 526.909091 -0 
L 523.636364 -0 
L 520.363636 -0 
L 517.090909 -0 
L 513.818182 -0 
L 510.545455 -0 
L 507.272727 -0 
L 504 -0 
L 500.727273 -0 
L 497.454545 -0 
L 494.181818 -0 
L 490.909091 -0 
L 487.636364 -0 
L 484.363636 -0 
L 481.090909 -0 
L 477.818182 -0 
L 474.545455 -0 
L 471.272727 -0 
L 468 -0 
L 464.727273 -0 
L 461.454545 -0 
L 458.181818 -0 
L 454.909091 -0 
L 451.636364 -0 
L 448.363636 -0 
L 445.090909 -0 
L 441.818182 -0 
L 438.545455 -0 
L 435.272727 -0 
L 432 -0 
L 428.727273 -0 
L 425.454545 -0 
L 422.181818 -0 
L 418.909091 -0 
L 415.636364 -0 
L 412.363636 -0 
L 409.090909 -0 
L 405.818182 -0 
L 402.545455 -0 
L 399.272727 -0 
L 396 -0 
L 392.727273 -0 
L 389.454545 -0 
L 386.181818 -0 
L 382.909091 -0 
L 379.636364 -0 
L 376.363636 -0 
L 373.090909 -0 
L 369.818182 -0 
L 366.545455 -0 
L 363.272727 -0 
L 360 -0 
L 356.727273 -0 
L 353.454545 -0 
L 350.181818 -0 
L 346.909091 -0 
L 343.636364 -0 
L 340.363636 -0 
L 337.090909 -0 
L 333.818182 -0 
L 330.545455 -0 
L 327.272727 -0 
L 324 -0 
L 320.727273 -0 
L 317.454545 -0 
L 314.181818 -0 
L 310.909091 -0 
L 307.636364 -0 
L 304.363636 -0 
L 301.090909 -0 
L 297.818182 -0 
L 294.545455 -0 
L 291.272727 -0 
L 288 -0 
L 284.727273 -0 
L 281.454545 -0 
L 278.181818 -0 
L 274.909091 -0 
L 271.636364 -0 
L 268.363636 -0 
L 265.090909 -0 
L 261.818182 -0 
L 258.545455 -0 
L 255.272727 -0 
L 252 -0 
L 248.727273 -0 
L 245.454545 -0 
L 242.181818 -0 
L 238.909091 -0 
L 235.636364 -0 
L 232.363636 -0 
L 229.090909 -0 
L 225.818182 -0 
L 222.545455 -0 
L 219.272727 -0 
L 216 -0 
L 212.727273 -0 
L 209.454545 -0 
L 206.181818 -0 
L 202.909091 -0 
L 199.636364 -0 
L 196.363636 -0 
L 193.090909 -0 
L 189.818182 -0 
L 186.545455 -0 
L 183.272727 -0 
L 180 -0 
L 176.727273 -0 
L 173.454545 -0 
L 170.181818 -0 
L 166.909091 -0 
L 163.636364 -0 
L 160.363636 -0 
L 157.090909 -0 
L 153.818182 -0 
L 150.545455 -0 
L 147.272727 -0 
L 144 -0 
L 140.727273 -0 
L 137.454545 -0 
L 134.181818 -0 
L 130.909091 -0 
L 127.636364 -0 
L 124.363636 -0 
L 121.090909 -0 
L 117.818182 -0 
L 114.545455 -0 
L 111.272727 -0 
L 108 -0 
L 104.727273 -0 
L 101.454545 -0 
L 98.181818 -0 
L 94.909091 -0 
L 91.636364 -0 
L 88.363636 -0 
L 85.090909 -0 
L 81.818182 -0 
L 78.545455 -0 
L 75.272727 -0 
L 72 -0 
L 68.727273 -0 
L 65.454545 -0 
L 62.181818 -0 
L 58.909091 -0 
L 55.636364 -0 
L 52.363636 -0 
L 49.090909 -0 
L 45.818182 -0 
L 42.545455 -0 
L 39.272727 -0 
L 36 -0 
L 32.727273 -0 
L 29.454545 -0 
L 26.181818 -0 
L 22.909091 -0 
L 19.636364 -0 
L 16.363636 -0 
L 13.090909 -0 
L 9.818182 -0 
L 6.545455 -0 
L 3.272727 -0 
L 0 -0 
L 0 3.276298 
L 0 6.552596 
L 0 9.828894 
L 0 13.105191 
L 0 16.381489 
L 0 19.657787 
L 0 22.934085 
L 0 26.210383 
L 0 29.486681 
L 0 32.762979 
L 0 36.039277 
L 0 39.315574 
L 0 42.591872 
L 0 45.86817 
L 0 49.144468 
L 0 52.420766 
L 0 55.697064 
L 0 58.973362 
L 0 62.24966 
L 0 65.525957 
L 0 68.802255 
L 0 72.078553 
L 0 75.354851 
L 0 78.631149 
L 0 81.907447 
L 0 85.183745 
L 0 88.460043 
L 0 91.73634 
L 0 95.012638 
L 0 98.288936 
L 0 101.565234 
L 0 104.841532 
L 0 108.11783 
L 0 111.394128 
L 0 114.670426 
L 0 117.946723 
L 0 121.223021 
L 0 124.499319 
L 0 127.775617 
L 0 131.051915 
L 0 134.328213 
L 0 137.604511 
L 0 140.880809 
L 0 144.157106 
L 0 147.433404 
L 0 150.709702 
L 0 153.986 
L 0 157.262298 
L 0 160.538596 
L 0 163.814894 
L 0 167.091191 
L 0 170.367489 
L 0 173.643787 
L 0 176.920085 
L 0 180.196383 
L 0 183.472681 
L 0 186.748979 
L 0 190.025277 
L 0 193.301574 
L 0 196.577872 
L 0 199.85417 
L 0 203.130468 
L 0 206.406766 
L 0 209.683064 
L 0 212.959362 
L 0 216.23566 
L 0 219.511957 
L 0 222.788255 
L 0 226.064553 
L 0 229.340851 
L 0 232.617149 
L 0 235.893447 
L 0 239.169745 
L 0 242.446043 
L 0 245.72234 
L 0 248.998638 
L 0 252.274936 
L 0 255.551234 
L 0 258.827532 
L 0 262.10383 
L 0 265.380128 
L 0 268.656426 
L 0 271.932723 
L 0 275.209021 
L 0 278.485319 
L 0 281.761617 
L 0 285.037915 
L 0 288.314213 
L 0 291.590511 
L 0 294.866808 
L 0 298.143106 
L 0 301.419404 
L 0 304.695702 
L 0 307.972 
L 0 311.248298 
L 0 314.524596 
L 0 317.800894 
L 0 321.077191 
L 0 324.353489 
L 0 327.629787 
L 0 330.906085 
L 0 334.182383 
L 0 337.458681 
L 0 340.734979 
L 0 344.011277 
L 0 347.287574 
L 0 350.563872 
L 0 353.84017 
L 0 357.116468 
L 0 360.392766 
L 0 363.669064 
L 0 366.945362 
L 0 370.22166 
L 0 373.497957 
L 0 376.774255 
L 0 380.050553 
L 0 383.326851 
L 0 386.603149 
L 0 389.879447 
L 0 393.155745 
L 0 396.432043 
L 0 399.70834 
L 0 402.984638 
L 0 406.260936 
L 0 409.537234 
L 0 412.813532 
L 0 416.08983 
L 0 419.366128 
L 0 422.642426 
L 0 425.918723 
L 0 429.195021 
L 0 432.471319 
L 0 435.747617 
L 0 439.023915 
L 0 442.300213 
L 0 445.576511 
L 0 448.852808 
L 0 452.129106 
L 0 455.405404 
L 0 458.681702 
L 0 461.958 
L 0 465.234298 
L 0 468.510596 
L 0 471.786894 
L 0 475.063191 
L 0 478.339489 
L 0 481.615787 
L 0 484.892085 
L 0 488.168383 
L 0 491.444681 
L 0 494.720979 
L 0 497.997277 
L 0 501.273574 
L 0 504.549872 
L 0 507.82617 
L 0 511.102468 
L 0 514.378766 
L 0 517.655064 
L 0 520.931362 
L 0 524.20766 
L 0 527.483957 
L 0 530.760255 
L 0 534.036553 
L 0 537.312851 
L 0 540.589149 
L 0 543.865447 
L 0 547.141745 
L 0 550.418043 
L 0 553.69434 
L 0 556.970638 
L 0 560.246936 
L 0 563.523234 
L 0 566.799532 
L 0 570.07583 
L 0 573.352128 
L 0 576.628425 
L 0 579.904723 
L 0 583.181021 
L 0 586.457319 
L 0 589.733617 
L 0 593.009915 
L 0 596.286213 
L 0 599.562511 
L 0 602.838808 
L 0 606.115106 
L 0 609.391404 
L 0 612.667702 
L 0 615.944 
L 0 619.220298 
L 0 622.496596 
L 0 625.772894 
L 0 629.049191 
L 0 632.325489 
L 0 635.601787 
L 0 638.878085 
L 0 642.154383 
L 0 645.430681 
L 0 648.706979 
L 0 651.983277 
L 0 655.259574 
L 0 658.535872 
L 0 661.81217 
L 0 665.088468 
L 0 668.364766 
L 0 671.641064 
L 0 674.917362 
L 0 678.19366 
L 0 681.469957 
L 0 684.746255 
L 0 688.022553 
L 0 691.298851 
L 0 694.575149 
L 0 697.851447 
L 0 701.127745 
L 0 704.404043 
L 0 707.68034 
L 0 710.956638 
L 0 714.232936 
L 0 717.509234 
L 0 720.785532 
L 0 724.06183 
L 0 727.338128 
L 0 730.614425 
L 0 733.890723 
L 0 737.167021 
L 0 740.443319 
L 0 743.719617 
L 0 746.995915 
L 0 750.272213 
L 0 753.548511 
L 0 756.824808 
L 0 760.101106 
L 0 763.377404 
L 0 766.653702 
L 0 769.93 
L 0 773.206298 
L 0 776.482596 
L 0 779.758894 
L 0 783.035191 
L 0 786.311489 
L 0 789.587787 
L 0 792.864085 
L 0 796.140383 
L 0 799.416681 
L 0 802.692979 
L 0 805.969277 
L 0 809.245574 
L 0 812.521872 
L 0 815.79817 
z
" clip-path="url(#p23c7e88517)" style="fill: #f5f9fe; fill-opacity: 0.9"/>
    <path clip-path="url(#p23c7e88517)" style="fill: #eff6fc; fill-opacity: 0.9"/>
    <path clip-path="url(#p23c7e88517)" style="fill: #eaf3fb; fill-opacity: 0.9"/>
    <path clip-path="url(#p23c7e88517)" style="fill: #e5eff9; fill-opacity: 0.9"/>
    <path clip-path="url(#p23c7e88517)" style="fill: #dfecf7; fill-opacity: 0.9"/>
    <path clip-path="url(#p23c7e88517)" style="fill: #dae8f6; fill-opacity: 0.9"/>
    <path clip-path="url(#p23c7e88517)" style="fill: #d6e5f4; fill-opacity: 0.9"/>
    <path clip-path="url(#p23c7e88517)" style="fill: #d0e2f2; fill-opacity: 0.9"/>
    <path clip-path="url(#p23c7e88517)" style="fill: #cbdef1; fill-opacity: 0.9"/>
    <path clip-path="url(#p23c7e88517)" style="fill: #c6dbef; fill-opacity: 0.9"/>
    <path clip-path="url(#p23c7e88517)" style="fill: #bed8ec; fill-opacity: 0.9"/>
    <path clip-path="url(#p23c7e88517)" style="fill: #b5d4e9; fill-opacity: 0.9"/>
    <path clip-path="url(#p23c7e88517)" style="fill: #add0e6; fill-opacity: 0.9"/>
    <path clip-path="url(#p23c7e88517)" style="fill: #a5cde3; fill-opacity: 0.9"/>
    <path clip-path="url(#p23c7e88517)" style="fill: #9cc9e1; fill-opacity: 0.9"/>
    <path clip-path="url(#p23c7e88517)" style="fill: #91c3de; fill-opacity: 0.9"/>
    <path clip-path="url(#p23c7e88517)" style="fill: #85bcdc; fill-opacity: 0.9"/>
    <path clip-path="url(#p23c7e88517)" style="fill: #7cb7da; fill-opacity: 0.9"/>
    <path clip-path="url(#p23c7e88517)" style="fill: #71b1d7; fill-opacity: 0.9"/>
    <path clip-path="url(#p23c7e88517)" style="fill: #66abd4; fill-opacity: 0.9"/>
    <path clip-path="url(#p23c7e88517)" style="fill: #5da5d1; fill-opacity: 0.9"/>
    <path clip-path="url(#p23c7e88517)" style="fill: #56a0ce; fill-opacity: 0.9"/>
    <path clip-path="url(#p23c7e88517)" style="fill: #4d99ca; fill-opacity: 0.9"/>
    <path clip-path="url(#p23c7e88517)" style="fill: #4493c7; fill-opacity: 0.9"/>
    <path clip-path="url(#p23c7e88517)" style="fill: #3c8cc3; fill-opacity: 0.9"/>
    <path clip-path="url(#p23c7e88517)" style="fill: #3686c0; fill-opacity: 0.9"/>
    <path clip-path="url(#p23c7e88517)" style="fill: #2f7fbc; fill-opacity: 0.9"/>
    <path clip-path="url(#p23c7e88517)" style="fill: #2777b8; fill-opacity: 0.9"/>
    <path clip-path="url(#p23c7e88517)" style="fill: #2070b4; fill-opacity: 0.9"/>
    <path clip-path="url(#p23c7e88517)" style="fill: #1c6ab0; fill-opacity: 0.9"/>
    <path clip-path="url(#p23c7e88517)" style="fill: #1663aa; fill-opacity: 0.9"/>
    <path clip-path="url(#p23c7e88517)" style="fill: #115ca5; fill-opacity: 0.9"/>
    <path clip-path="url(#p23c7e88517)" style="fill: #0c56a0; fill-opacity: 0.9"/>
    <path clip-path="url(#p23c7e88517)" style="fill: #084f99; fill-opacity: 0.9"/>
    <path clip-path="url(#p23c7e88517)" style="fill: #08488e; fill-opacity: 0.9"/>
    <path clip-path="url(#p23c7e88517)" style="fill: #084184; fill-opacity: 0.9"/>
    <path clip-path="url(#p23c7e88517)" style="fill: #083a7a; fill-opacity: 0.9"/>
    <path clip-path="url(#p23c7e88517)" style="fill: #083370; fill-opacity: 0.9"/>
    <path clip-path="url(#p23c7e88517)" style="fill: #08306b; fill-opacity: 0.9"/>
   </g>
   <g id="QuadContourSet_2">
    <path clip-path="url(#p23c7e88517)" style="fill: none"/>
    <path clip-path="url(#p23c7e88517)" style="fill: none"/>
    <path clip-path="url(#p23c7e88517)" style="fill: none"/>
    <path clip-path="url(#p23c7e88517)" style="fill: none"/>
    <path clip-path="url(#p23c7e88517)" style="fill: none"/>
    <path clip-path="url(#p23c7e88517)" style="fill: none"/>
    <path clip-path="url(#p23c7e88517)" style="fill: none"/>
    <path clip-path="url(#p23c7e88517)" style="fill: none"/>
    <path clip-path="url(#p23c7e88517)" style="fill: none"/>
    <path clip-path="url(#p23c7e88517)" style="fill: none"/>
    <path clip-path="url(#p23c7e88517)" style="fill: none"/>
    <path clip-path="url(#p23c7e88517)" style="fill: none"/>
    <path clip-path="url(#p23c7e88517)" style="fill: none"/>
    <path clip-path="url(#p23c7e88517)" style="fill: none"/>
    <path clip-path="url(#p23c7e88517)" style="fill: none"/>
    <path clip-path="url(#p23c7e88517)" style="fill: none"/>
    <path clip-path="url(#p23c7e88517)" style="fill: none"/>
    <path clip-path="url(#p23c7e88517)" style="fill: none"/>
    <path clip-path="url(#p23c7e88517)" style="fill: none"/>
    <path clip-path="url(#p23c7e88517)" style="fill: none"/>
    <path clip-path="url(#p23c7e88517)" style="fill: none"/>
    <path clip-path="url(#p23c7e88517)" style="fill: none"/>
    <path clip-path="url(#p23c7e88517)" style="fill: none"/>
    <path clip-path="url(#p23c7e88517)" style="fill: none"/>
    <path clip-path="url(#p23c7e88517)" style="fill: none"/>
    <path clip-path="url(#p23c7e88517)" style="fill: none"/>
    <path clip-path="url(#p23c7e88517)" style="fill: none"/>
    <path clip-path="url(#p23c7e88517)" style="fill: none"/>
    <path clip-path="url(#p23c7e88517)" style="fill: none"/>
    <path clip-path="url(#p23c7e88517)" style="fill: none"/>
    <path clip-path="url(#p23c7e88517)" style="fill: none"/>
    <path clip-path="url(#p23c7e88517)" style="fill: none"/>
    <path clip-path="url(#p23c7e88517)" style="fill: none"/>
    <path clip-path="url(#p23c7e88517)" style="fill: none"/>
    <path clip-path="url(#p23c7e88517)" style="fill: none"/>
    <path clip-path="url(#p23c7e88517)" style="fill: none"/>
    <path clip-path="url(#p23c7e88517)" style="fill: none"/>
    <path clip-path="url(#p23c7e88517)" style="fill: none"/>
    <path clip-path="url(#p23c7e88517)" style="fill: none"/>
   </g>
  </g>
 </g>
 <defs>
  <clipPath id="p23c7e88517">
   <rect x="0" y="0" width="576" height="815.79817"/>
  </clipPath>
 </defs>
</svg>
