<?xml version="1.0" encoding="utf-8" standalone="no"?>
<!DOCTYPE svg PUBLIC "-//W3C//DTD SVG 1.1//EN"
  "http://www.w3.org/Graphics/SVG/1.1/DTD/svg11.dtd">
<svg xmlns:xlink="http://www.w3.org/1999/xlink" width="576pt" height="814.658107pt" viewBox="0 0 576 814.658107" xmlns="http://www.w3.org/2000/svg" version="1.1">
 <metadata>
  <rdf:RDF xmlns:dc="http://purl.org/dc/elements/1.1/" xmlns:cc="http://creativecommons.org/ns#" xmlns:rdf="http://www.w3.org/1999/02/22-rdf-syntax-ns#">
   <cc:Work>
    <dc:type rdf:resource="http://purl.org/dc/dcmitype/StillImage"/>
    <dc:date>2025-07-25T22:45:13.156123</dc:date>
    <dc:format>image/svg+xml</dc:format>
    <dc:creator>
     <cc:Agent>
      <dc:title>Matplotlib v3.10.3, https://matplotlib.org/</dc:title>
     </cc:Agent>
    </dc:creator>
   </cc:Work>
  </rdf:RDF>
 </metadata>
 <defs>
  <style type="text/css">*{stroke-linejoin: round; stroke-linecap: butt}</style>
 </defs>
 <g id="figure_1">
  <g id="patch_1">
   <path d="M 0 814.658107 
L 576 814.658107 
L 576 0 
L 0 0 
L 0 814.658107 
z
" style="fill: none; opacity: 0"/>
  </g>
  <g id="axes_1">
   <g id="QuadContourSet_1">
    <path d="M 3.272727 59.43792 
L 3.730955 58.890948 
L 6.451829 55.619228 
L 6.545455 55.531371 
L 9.340711 52.347509 
L 9.818182 51.789588 
L 12.276196 49.07579 
L 13.090909 48.176296 
L 15.475642 45.80407 
L 16.363636 44.812292 
L 18.016289 42.532351 
L 19.636364 40.633213 
L 20.795573 39.260632 
L 22.909091 36.758086 
L 23.558694 35.988912 
L 26.181818 32.882959 
L 26.322675 32.717193 
L 29.090979 29.445474 
L 29.454545 29.014822 
L 31.868423 26.173754 
L 32.727273 25.160563 
L 34.645532 22.902035 
L 36 21.307306 
L 37.421093 19.630316 
L 39.272727 17.451113 
L 40.23677 16.358597 
L 42.545455 13.744458 
L 43.197013 13.086877 
L 45.818182 10.596452 
L 46.592751 9.815158 
L 49.090909 7.29531 
L 49.833568 6.543439 
L 52.363636 3.991487 
L 52.970584 3.271719 
L 55.636364 0.425352 
L 56.000743 0 
L 55.636364 0 
L 52.363636 0 
L 49.090909 0 
L 45.818182 0 
L 42.545455 0 
L 39.272727 0 
L 36 0 
L 32.727273 0 
L 29.454545 0 
L 26.181818 0 
L 22.909091 0 
L 19.636364 0 
L 16.363636 0 
L 13.090909 0 
L 9.818182 0 
L 6.545455 0 
L 3.272727 0 
L 0 0 
L 0 3.271719 
L 0 6.543439 
L 0 9.815158 
L 0 13.086877 
L 0 16.358597 
L 0 19.630316 
L 0 22.902035 
L 0 26.173754 
L 0 29.445474 
L 0 32.717193 
L 0 35.988912 
L 0 39.260632 
L 0 42.532351 
L 0 45.80407 
L 0 49.07579 
L 0 52.347509 
L 0 55.619228 
L 0 58.890948 
L 0 61.936933 
z
" clip-path="url(#pa4a3eb101e)" style="fill: #f5f9fe; fill-opacity: 0.9"/>
    <path clip-path="url(#pa4a3eb101e)" style="fill: #eff6fc; fill-opacity: 0.9"/>
    <path clip-path="url(#pa4a3eb101e)" style="fill: #eaf3fb; fill-opacity: 0.9"/>
    <path clip-path="url(#pa4a3eb101e)" style="fill: #e5eff9; fill-opacity: 0.9"/>
    <path clip-path="url(#pa4a3eb101e)" style="fill: #dfecf7; fill-opacity: 0.9"/>
    <path clip-path="url(#pa4a3eb101e)" style="fill: #dae8f6; fill-opacity: 0.9"/>
    <path clip-path="url(#pa4a3eb101e)" style="fill: #d6e5f4; fill-opacity: 0.9"/>
    <path clip-path="url(#pa4a3eb101e)" style="fill: #d0e2f2; fill-opacity: 0.9"/>
    <path clip-path="url(#pa4a3eb101e)" style="fill: #cbdef1; fill-opacity: 0.9"/>
    <path clip-path="url(#pa4a3eb101e)" style="fill: #c6dbef; fill-opacity: 0.9"/>
    <path clip-path="url(#pa4a3eb101e)" style="fill: #bed8ec; fill-opacity: 0.9"/>
    <path clip-path="url(#pa4a3eb101e)" style="fill: #b5d4e9; fill-opacity: 0.9"/>
    <path clip-path="url(#pa4a3eb101e)" style="fill: #add0e6; fill-opacity: 0.9"/>
    <path clip-path="url(#pa4a3eb101e)" style="fill: #a5cde3; fill-opacity: 0.9"/>
    <path clip-path="url(#pa4a3eb101e)" style="fill: #9cc9e1; fill-opacity: 0.9"/>
    <path clip-path="url(#pa4a3eb101e)" style="fill: #91c3de; fill-opacity: 0.9"/>
    <path clip-path="url(#pa4a3eb101e)" style="fill: #85bcdc; fill-opacity: 0.9"/>
    <path clip-path="url(#pa4a3eb101e)" style="fill: #7cb7da; fill-opacity: 0.9"/>
    <path clip-path="url(#pa4a3eb101e)" style="fill: #71b1d7; fill-opacity: 0.9"/>
    <path clip-path="url(#pa4a3eb101e)" style="fill: #66abd4; fill-opacity: 0.9"/>
    <path clip-path="url(#pa4a3eb101e)" style="fill: #5da5d1; fill-opacity: 0.9"/>
    <path clip-path="url(#pa4a3eb101e)" style="fill: #56a0ce; fill-opacity: 0.9"/>
    <path clip-path="url(#pa4a3eb101e)" style="fill: #4d99ca; fill-opacity: 0.9"/>
    <path clip-path="url(#pa4a3eb101e)" style="fill: #4493c7; fill-opacity: 0.9"/>
    <path clip-path="url(#pa4a3eb101e)" style="fill: #3c8cc3; fill-opacity: 0.9"/>
    <path clip-path="url(#pa4a3eb101e)" style="fill: #3686c0; fill-opacity: 0.9"/>
    <path clip-path="url(#pa4a3eb101e)" style="fill: #2f7fbc; fill-opacity: 0.9"/>
    <path clip-path="url(#pa4a3eb101e)" style="fill: #2777b8; fill-opacity: 0.9"/>
    <path clip-path="url(#pa4a3eb101e)" style="fill: #2070b4; fill-opacity: 0.9"/>
    <path clip-path="url(#pa4a3eb101e)" style="fill: #1c6ab0; fill-opacity: 0.9"/>
    <path clip-path="url(#pa4a3eb101e)" style="fill: #1663aa; fill-opacity: 0.9"/>
    <path clip-path="url(#pa4a3eb101e)" style="fill: #115ca5; fill-opacity: 0.9"/>
    <path clip-path="url(#pa4a3eb101e)" style="fill: #0c56a0; fill-opacity: 0.9"/>
    <path clip-path="url(#pa4a3eb101e)" style="fill: #084f99; fill-opacity: 0.9"/>
    <path clip-path="url(#pa4a3eb101e)" style="fill: #08488e; fill-opacity: 0.9"/>
    <path clip-path="url(#pa4a3eb101e)" style="fill: #084184; fill-opacity: 0.9"/>
    <path clip-path="url(#pa4a3eb101e)" style="fill: #083a7a; fill-opacity: 0.9"/>
    <path clip-path="url(#pa4a3eb101e)" style="fill: #083370; fill-opacity: 0.9"/>
    <path clip-path="url(#pa4a3eb101e)" style="fill: #08306b; fill-opacity: 0.9"/>
   </g>
   <g id="QuadContourSet_2">
    <path d="M 0 61.936933 
L 3.272727 59.43792 
L 3.730955 58.890948 
L 6.451829 55.619228 
L 6.545455 55.531371 
L 9.340711 52.347509 
L 9.818182 51.789588 
L 12.276196 49.07579 
L 13.090909 48.176296 
L 15.475642 45.80407 
L 16.363636 44.812292 
L 17.438995 43.328765 
M 29.730493 28.690038 
L 31.868423 26.173754 
L 32.727273 25.160563 
L 34.645532 22.902035 
L 36 21.307306 
L 37.421093 19.630316 
L 39.272727 17.451113 
L 40.23677 16.358597 
L 42.545455 13.744458 
L 43.197013 13.086877 
L 45.818182 10.596452 
L 46.592751 9.815158 
L 49.090909 7.29531 
L 49.833568 6.543439 
L 52.363636 3.991487 
L 52.970584 3.271719 
L 55.636364 0.425352 
L 56.000743 0 
" clip-path="url(#pa4a3eb101e)" style="fill: none"/>
    <path clip-path="url(#pa4a3eb101e)" style="fill: none"/>
    <path clip-path="url(#pa4a3eb101e)" style="fill: none"/>
    <path clip-path="url(#pa4a3eb101e)" style="fill: none"/>
    <path clip-path="url(#pa4a3eb101e)" style="fill: none"/>
    <path clip-path="url(#pa4a3eb101e)" style="fill: none"/>
    <path clip-path="url(#pa4a3eb101e)" style="fill: none"/>
    <path clip-path="url(#pa4a3eb101e)" style="fill: none"/>
    <path clip-path="url(#pa4a3eb101e)" style="fill: none"/>
    <path clip-path="url(#pa4a3eb101e)" style="fill: none"/>
    <path clip-path="url(#pa4a3eb101e)" style="fill: none"/>
    <path clip-path="url(#pa4a3eb101e)" style="fill: none"/>
    <path clip-path="url(#pa4a3eb101e)" style="fill: none"/>
    <path clip-path="url(#pa4a3eb101e)" style="fill: none"/>
    <path clip-path="url(#pa4a3eb101e)" style="fill: none"/>
    <path clip-path="url(#pa4a3eb101e)" style="fill: none"/>
    <path clip-path="url(#pa4a3eb101e)" style="fill: none"/>
    <path clip-path="url(#pa4a3eb101e)" style="fill: none"/>
    <path clip-path="url(#pa4a3eb101e)" style="fill: none"/>
    <path clip-path="url(#pa4a3eb101e)" style="fill: none"/>
    <path clip-path="url(#pa4a3eb101e)" style="fill: none"/>
    <path clip-path="url(#pa4a3eb101e)" style="fill: none"/>
    <path clip-path="url(#pa4a3eb101e)" style="fill: none"/>
    <path clip-path="url(#pa4a3eb101e)" style="fill: none"/>
    <path clip-path="url(#pa4a3eb101e)" style="fill: none"/>
    <path clip-path="url(#pa4a3eb101e)" style="fill: none"/>
    <path clip-path="url(#pa4a3eb101e)" style="fill: none"/>
    <path clip-path="url(#pa4a3eb101e)" style="fill: none"/>
    <path clip-path="url(#pa4a3eb101e)" style="fill: none"/>
    <path clip-path="url(#pa4a3eb101e)" style="fill: none"/>
    <path clip-path="url(#pa4a3eb101e)" style="fill: none"/>
    <path clip-path="url(#pa4a3eb101e)" style="fill: none"/>
    <path clip-path="url(#pa4a3eb101e)" style="fill: none"/>
    <path clip-path="url(#pa4a3eb101e)" style="fill: none"/>
    <path clip-path="url(#pa4a3eb101e)" style="fill: none"/>
    <path clip-path="url(#pa4a3eb101e)" style="fill: none"/>
    <path clip-path="url(#pa4a3eb101e)" style="fill: none"/>
    <path clip-path="url(#pa4a3eb101e)" style="fill: none"/>
    <path clip-path="url(#pa4a3eb101e)" style="fill: none"/>
   </g>
   <g id="text_1">
    <g clip-path="url(#pa4a3eb101e)">
     <!-- 0 -->
     <g style="opacity: 0" transform="translate(23.608544 41.042149) rotate(-49.62726) scale(0.12 -0.12)">
      <defs>
       <path id="DejaVuSans-30" d="M 2034 4250 
Q 1547 4250 1301 3770 
Q 1056 3291 1056 2328 
Q 1056 1369 1301 889 
Q 1547 409 2034 409 
Q 2525 409 2770 889 
Q 3016 1369 3016 2328 
Q 3016 3291 2770 3770 
Q 2525 4250 2034 4250 
z
M 2034 4750 
Q 2819 4750 3233 4129 
Q 3647 3509 3647 2328 
Q 3647 1150 3233 529 
Q 2819 -91 2034 -91 
Q 1250 -91 836 529 
Q 422 1150 422 2328 
Q 422 3509 836 4129 
Q 1250 4750 2034 4750 
z
" transform="scale(0.015625)"/>
      </defs>
      <use xlink:href="#DejaVuSans-30"/>
     </g>
    </g>
   </g>
  </g>
 </g>
 <defs>
  <clipPath id="pa4a3eb101e">
   <rect x="0" y="0" width="576" height="814.658107"/>
  </clipPath>
 </defs>
</svg>
