<?xml version="1.0" encoding="utf-8" standalone="no"?>
<!DOCTYPE svg PUBLIC "-//W3C//DTD SVG 1.1//EN"
  "http://www.w3.org/Graphics/SVG/1.1/DTD/svg11.dtd">
<svg xmlns:xlink="http://www.w3.org/1999/xlink" width="576pt" height="819.391854pt" viewBox="0 0 576 819.391854" xmlns="http://www.w3.org/2000/svg" version="1.1">
 <metadata>
  <rdf:RDF xmlns:dc="http://purl.org/dc/elements/1.1/" xmlns:cc="http://creativecommons.org/ns#" xmlns:rdf="http://www.w3.org/1999/02/22-rdf-syntax-ns#">
   <cc:Work>
    <dc:type rdf:resource="http://purl.org/dc/dcmitype/StillImage"/>
    <dc:date>2025-07-25T22:44:10.092405</dc:date>
    <dc:format>image/svg+xml</dc:format>
    <dc:creator>
     <cc:Agent>
      <dc:title>Matplotlib v3.10.3, https://matplotlib.org/</dc:title>
     </cc:Agent>
    </dc:creator>
   </cc:Work>
  </rdf:RDF>
 </metadata>
 <defs>
  <style type="text/css">*{stroke-linejoin: round; stroke-linecap: butt}</style>
 </defs>
 <g id="figure_1">
  <g id="patch_1">
   <path d="M 0 819.391854 
L 576 819.391854 
L 576 0 
L 0 0 
L 0 819.391854 
z
" style="fill: none; opacity: 0"/>
  </g>
  <g id="axes_1">
   <g id="QuadContourSet_1">
    <path d="M 3.291429 819.391854 
L 6.582857 819.391854 
L 9.874286 819.391854 
L 13.165714 819.391854 
L 16.457143 819.391854 
L 19.748571 819.391854 
L 23.04 819.391854 
L 26.331429 819.391854 
L 29.622857 819.391854 
L 32.914286 819.391854 
L 36.205714 819.391854 
L 39.497143 819.391854 
L 42.788571 819.391854 
L 46.08 819.391854 
L 49.371429 819.391854 
L 52.662857 819.391854 
L 55.954286 819.391854 
L 59.245714 819.391854 
L 62.537143 819.391854 
L 65.828571 819.391854 
L 69.12 819.391854 
L 72.411429 819.391854 
L 75.702857 819.391854 
L 78.994286 819.391854 
L 82.285714 819.391854 
L 85.577143 819.391854 
L 88.868571 819.391854 
L 92.16 819.391854 
L 95.451429 819.391854 
L 98.742857 819.391854 
L 102.034286 819.391854 
L 105.325714 819.391854 
L 108.617143 819.391854 
L 111.908571 819.391854 
L 115.2 819.391854 
L 118.491429 819.391854 
L 121.782857 819.391854 
L 125.074286 819.391854 
L 128.365714 819.391854 
L 131.657143 819.391854 
L 134.948571 819.391854 
L 138.24 819.391854 
L 141.531429 819.391854 
L 144.822857 819.391854 
L 148.114286 819.391854 
L 151.405714 819.391854 
L 154.697143 819.391854 
L 157.988571 819.391854 
L 161.28 819.391854 
L 164.571429 819.391854 
L 167.862857 819.391854 
L 171.154286 819.391854 
L 174.445714 819.391854 
L 177.737143 819.391854 
L 181.028571 819.391854 
L 184.32 819.391854 
L 187.611429 819.391854 
L 190.902857 819.391854 
L 194.194286 819.391854 
L 197.485714 819.391854 
L 200.777143 819.391854 
L 204.068571 819.391854 
L 207.36 819.391854 
L 210.651429 819.391854 
L 213.942857 819.391854 
L 217.234286 819.391854 
L 220.525714 819.391854 
L 223.817143 819.391854 
L 227.108571 819.391854 
L 230.4 819.391854 
L 233.691429 819.391854 
L 236.982857 819.391854 
L 240.274286 819.391854 
L 243.565714 819.391854 
L 246.857143 819.391854 
L 250.148571 819.391854 
L 253.44 819.391854 
L 256.731429 819.391854 
L 260.022857 819.391854 
L 263.314286 819.391854 
L 266.605714 819.391854 
L 269.897143 819.391854 
L 273.188571 819.391854 
L 276.48 819.391854 
L 279.771429 819.391854 
L 283.062857 819.391854 
L 286.354286 819.391854 
L 289.645714 819.391854 
L 292.937143 819.391854 
L 296.228571 819.391854 
L 299.52 819.391854 
L 302.811429 819.391854 
L 306.102857 819.391854 
L 309.394286 819.391854 
L 312.685714 819.391854 
L 315.977143 819.391854 
L 319.268571 819.391854 
L 322.56 819.391854 
L 325.851429 819.391854 
L 329.142857 819.391854 
L 332.434286 819.391854 
L 335.725714 819.391854 
L 339.017143 819.391854 
L 342.308571 819.391854 
L 345.6 819.391854 
L 348.891429 819.391854 
L 352.182857 819.391854 
L 355.474286 819.391854 
L 358.765714 819.391854 
L 362.057143 819.391854 
L 365.348571 819.391854 
L 368.64 819.391854 
L 371.931429 819.391854 
L 375.222857 819.391854 
L 378.514286 819.391854 
L 381.805714 819.391854 
L 385.097143 819.391854 
L 388.388571 819.391854 
L 391.68 819.391854 
L 394.971429 819.391854 
L 398.262857 819.391854 
L 401.554286 819.391854 
L 404.845714 819.391854 
L 408.137143 819.391854 
L 411.428571 819.391854 
L 414.72 819.391854 
L 418.011429 819.391854 
L 421.302857 819.391854 
L 424.594286 819.391854 
L 427.885714 819.391854 
L 431.177143 819.391854 
L 434.468571 819.391854 
L 437.76 819.391854 
L 441.051429 819.391854 
L 444.342857 819.391854 
L 447.634286 819.391854 
L 450.925714 819.391854 
L 454.217143 819.391854 
L 457.508571 819.391854 
L 460.8 819.391854 
L 464.091429 819.391854 
L 467.382857 819.391854 
L 470.674286 819.391854 
L 473.965714 819.391854 
L 477.257143 819.391854 
L 480.548571 819.391854 
L 483.84 819.391854 
L 487.131429 819.391854 
L 490.422857 819.391854 
L 493.714286 819.391854 
L 497.005714 819.391854 
L 500.297143 819.391854 
L 503.588571 819.391854 
L 506.88 819.391854 
L 510.171429 819.391854 
L 513.462857 819.391854 
L 516.754286 819.391854 
L 520.045714 819.391854 
L 523.337143 819.391854 
L 526.628571 819.391854 
L 529.92 819.391854 
L 533.211429 819.391854 
L 536.502857 819.391854 
L 539.794286 819.391854 
L 543.085714 819.391854 
L 546.377143 819.391854 
L 549.668571 819.391854 
L 552.96 819.391854 
L 556.251429 819.391854 
L 559.542857 819.391854 
L 562.834286 819.391854 
L 566.125714 819.391854 
L 569.417143 819.391854 
L 572.708571 819.391854 
L 576 819.391854 
L 576 816.101124 
L 576 812.810393 
L 576 809.519663 
L 576 806.228933 
L 576 802.938202 
L 576 799.647472 
L 576 796.356742 
L 576 793.066011 
L 576 789.775281 
L 576 786.484551 
L 576 783.19382 
L 576 779.90309 
L 576 776.61236 
L 576 773.321629 
L 576 770.030899 
L 576 766.740169 
L 576 763.449438 
L 576 760.158708 
L 576 756.867978 
L 576 753.577247 
L 576 750.286517 
L 576 746.995787 
L 576 743.705056 
L 576 740.414326 
L 576 737.123596 
L 576 733.832865 
L 576 730.542135 
L 576 727.251405 
L 576 723.960674 
L 576 720.669944 
L 576 717.379214 
L 576 714.088483 
L 576 710.797753 
L 576 707.507023 
L 576 704.216292 
L 576 700.925562 
L 576 697.634832 
L 576 694.344101 
L 576 691.053371 
L 576 687.762641 
L 576 684.47191 
L 576 681.18118 
L 576 677.89045 
L 576 674.599719 
L 576 671.308989 
L 576 668.018259 
L 576 664.727528 
L 576 661.436798 
L 576 658.146068 
L 576 654.855337 
L 576 651.564607 
L 576 648.273876 
L 576 644.983146 
L 576 641.692416 
L 576 638.401685 
L 576 635.110955 
L 576 631.820225 
L 576 628.529494 
L 576 625.238764 
L 576 621.948034 
L 576 618.657303 
L 576 615.366573 
L 576 612.075843 
L 576 608.785112 
L 576 605.494382 
L 576 602.203652 
L 576 598.912921 
L 576 595.622191 
L 576 592.331461 
L 576 589.04073 
L 576 585.75 
L 576 582.45927 
L 576 579.168539 
L 576 575.877809 
L 576 572.587079 
L 576 569.296348 
L 576 566.005618 
L 576 562.714888 
L 576 559.424157 
L 576 556.133427 
L 576 552.842697 
L 576 549.551966 
L 576 546.261236 
L 576 542.970506 
L 576 539.679775 
L 576 536.389045 
L 576 533.098315 
L 576 529.807584 
L 576 526.516854 
L 576 523.226124 
L 576 519.935393 
L 576 516.644663 
L 576 513.353933 
L 576 510.063202 
L 576 506.772472 
L 576 503.481742 
L 576 500.191011 
L 576 496.900281 
L 576 493.609551 
L 576 490.31882 
L 576 487.02809 
L 576 483.73736 
L 576 480.446629 
L 576 477.155899 
L 576 473.865169 
L 576 470.574438 
L 576 467.283708 
L 576 463.992978 
L 576 460.702247 
L 576 457.411517 
L 576 454.120787 
L 576 450.830056 
L 576 447.539326 
L 576 444.248596 
L 576 440.957865 
L 576 437.667135 
L 576 434.376405 
L 576 431.085674 
L 576 427.794944 
L 576 424.504214 
L 576 421.213483 
L 576 417.922753 
L 576 414.632023 
L 576 411.341292 
L 576 408.050562 
L 576 404.759832 
L 576 401.469101 
L 576 398.178371 
L 576 394.887641 
L 576 391.59691 
L 576 388.30618 
L 576 385.015449 
L 576 381.724719 
L 576 378.433989 
L 576 375.143258 
L 576 371.852528 
L 576 368.561798 
L 576 365.271067 
L 576 361.980337 
L 576 358.689607 
L 576 355.398876 
L 576 352.108146 
L 576 348.817416 
L 576 345.526685 
L 576 342.235955 
L 576 338.945225 
L 576 335.654494 
L 576 332.363764 
L 576 329.073034 
L 576 325.782303 
L 576 322.491573 
L 576 319.200843 
L 576 315.910112 
L 576 312.619382 
L 576 309.328652 
L 576 306.037921 
L 576 302.747191 
L 576 299.456461 
L 576 296.16573 
L 576 292.875 
L 576 289.58427 
L 576 286.293539 
L 576 283.002809 
L 576 279.712079 
L 576 276.421348 
L 576 273.130618 
L 576 269.839888 
L 576 266.549157 
L 576 263.258427 
L 576 259.967697 
L 576 256.676966 
L 576 253.386236 
L 576 250.095506 
L 576 246.804775 
L 576 243.514045 
L 576 240.223315 
L 576 236.932584 
L 576 233.641854 
L 576 230.351124 
L 576 227.060393 
L 576 223.769663 
L 576 220.478933 
L 576 217.188202 
L 576 213.897472 
L 576 210.606742 
L 576 207.316011 
L 576 204.025281 
L 576 200.734551 
L 576 197.44382 
L 576 194.15309 
L 576 190.86236 
L 576 187.571629 
L 576 184.280899 
L 576 180.990169 
L 576 177.699438 
L 576 174.408708 
L 576 171.117978 
L 576 167.827247 
L 576 164.536517 
L 576 161.245787 
L 576 157.955056 
L 576 154.664326 
L 576 151.373596 
L 576 148.082865 
L 576 144.792135 
L 576 141.501405 
L 576 138.210674 
L 576 134.919944 
L 576 131.629214 
L 576 128.338483 
L 576 125.047753 
L 576 121.757022 
L 576 118.466292 
L 576 115.175562 
L 576 111.884831 
L 576 108.594101 
L 576 105.303371 
L 576 102.01264 
L 576 98.72191 
L 576 95.43118 
L 576 92.140449 
L 576 88.849719 
L 576 85.558989 
L 576 82.268258 
L 576 78.977528 
L 576 75.686798 
L 576 72.396067 
L 576 69.105337 
L 576 65.814607 
L 576 62.523876 
L 576 59.233146 
L 576 55.942416 
L 576 52.651685 
L 576 49.360955 
L 576 46.070225 
L 576 42.779494 
L 576 39.488764 
L 576 36.198034 
L 576 32.907303 
L 576 29.616573 
L 576 26.325843 
L 576 23.035112 
L 576 19.744382 
L 576 16.453652 
L 576 13.162921 
L 576 9.872191 
L 576 6.581461 
L 576 3.29073 
L 576 -0 
L 572.708571 -0 
L 569.417143 -0 
L 566.125714 -0 
L 562.834286 -0 
L 559.542857 -0 
L 556.251429 -0 
L 552.96 -0 
L 549.668571 -0 
L 546.377143 -0 
L 543.085714 -0 
L 539.794286 -0 
L 536.502857 -0 
L 533.211429 -0 
L 529.92 -0 
L 526.628571 -0 
L 523.337143 -0 
L 520.045714 -0 
L 516.754286 -0 
L 513.462857 -0 
L 510.171429 -0 
L 506.88 -0 
L 503.588571 -0 
L 500.297143 -0 
L 497.005714 -0 
L 493.714286 -0 
L 490.422857 -0 
L 487.131429 -0 
L 483.84 -0 
L 480.548571 -0 
L 477.257143 -0 
L 473.965714 -0 
L 470.674286 -0 
L 467.382857 -0 
L 464.091429 -0 
L 460.8 -0 
L 457.508571 -0 
L 454.217143 -0 
L 450.925714 -0 
L 447.634286 -0 
L 444.342857 -0 
L 441.051429 -0 
L 437.76 -0 
L 434.468571 -0 
L 431.177143 -0 
L 427.885714 -0 
L 424.594286 -0 
L 421.302857 -0 
L 418.011429 -0 
L 414.72 -0 
L 411.428571 -0 
L 408.137143 -0 
L 404.845714 -0 
L 401.554286 -0 
L 398.262857 -0 
L 394.971429 -0 
L 391.68 -0 
L 388.388571 -0 
L 385.097143 -0 
L 381.805714 -0 
L 378.514286 -0 
L 375.222857 -0 
L 371.931429 -0 
L 368.64 -0 
L 365.348571 -0 
L 362.057143 -0 
L 358.765714 -0 
L 355.474286 -0 
L 352.182857 -0 
L 348.891429 -0 
L 345.6 -0 
L 342.308571 -0 
L 339.017143 -0 
L 335.725714 -0 
L 332.434286 -0 
L 329.142857 -0 
L 325.851429 -0 
L 322.56 -0 
L 319.268571 -0 
L 315.977143 -0 
L 312.685714 -0 
L 309.394286 -0 
L 306.102857 -0 
L 302.811429 -0 
L 299.52 -0 
L 296.228571 -0 
L 292.937143 -0 
L 289.645714 -0 
L 286.354286 -0 
L 283.062857 -0 
L 279.771429 -0 
L 276.48 -0 
L 273.188571 -0 
L 269.897143 -0 
L 266.605714 -0 
L 263.314286 -0 
L 260.022857 -0 
L 256.731429 -0 
L 253.44 -0 
L 250.148571 -0 
L 246.857143 -0 
L 243.565714 -0 
L 240.274286 -0 
L 236.982857 -0 
L 233.691429 -0 
L 230.4 -0 
L 227.108571 -0 
L 223.817143 -0 
L 220.525714 -0 
L 217.234286 -0 
L 213.942857 -0 
L 210.651429 -0 
L 207.36 -0 
L 204.068571 -0 
L 200.777143 -0 
L 197.485714 -0 
L 194.194286 -0 
L 190.902857 -0 
L 187.611429 -0 
L 184.32 -0 
L 181.028571 -0 
L 177.737143 -0 
L 174.445714 -0 
L 171.154286 -0 
L 167.862857 -0 
L 164.571429 -0 
L 161.28 -0 
L 157.988571 -0 
L 154.697143 -0 
L 151.405714 -0 
L 148.114286 -0 
L 144.822857 -0 
L 141.531429 -0 
L 138.24 -0 
L 134.948571 -0 
L 131.657143 -0 
L 128.365714 -0 
L 125.074286 -0 
L 121.782857 -0 
L 118.491429 -0 
L 115.2 -0 
L 111.908571 -0 
L 108.617143 -0 
L 105.325714 -0 
L 102.034286 -0 
L 98.742857 -0 
L 95.451429 -0 
L 92.16 -0 
L 88.868571 -0 
L 85.577143 -0 
L 82.285714 -0 
L 78.994286 -0 
L 75.702857 -0 
L 72.411429 -0 
L 69.12 -0 
L 65.828571 -0 
L 62.537143 -0 
L 59.245714 -0 
L 55.954286 -0 
L 52.662857 -0 
L 49.371429 -0 
L 46.08 -0 
L 42.788571 -0 
L 39.497143 -0 
L 36.205714 -0 
L 32.914286 -0 
L 29.622857 -0 
L 26.331429 -0 
L 23.04 -0 
L 19.748571 -0 
L 16.457143 -0 
L 13.165714 -0 
L 9.874286 -0 
L 6.582857 -0 
L 3.291429 -0 
L 0 -0 
L 0 3.29073 
L 0 6.581461 
L 0 9.872191 
L 0 13.162921 
L 0 16.453652 
L 0 19.744382 
L 0 23.035112 
L 0 26.325843 
L 0 29.616573 
L 0 32.907303 
L 0 36.198034 
L 0 39.488764 
L 0 42.779494 
L 0 46.070225 
L 0 49.360955 
L 0 52.651685 
L 0 55.942416 
L 0 59.233146 
L 0 62.523876 
L 0 65.814607 
L 0 69.105337 
L 0 72.396067 
L 0 75.686798 
L 0 78.977528 
L 0 82.268258 
L 0 85.558989 
L 0 88.849719 
L 0 92.140449 
L 0 95.43118 
L 0 98.72191 
L 0 102.01264 
L 0 105.303371 
L 0 108.594101 
L 0 111.884831 
L 0 115.175562 
L 0 118.466292 
L 0 121.757022 
L 0 125.047753 
L 0 128.338483 
L 0 131.629214 
L 0 134.919944 
L 0 138.210674 
L 0 141.501405 
L 0 144.792135 
L 0 148.082865 
L 0 151.373596 
L 0 154.664326 
L 0 157.955056 
L 0 161.245787 
L 0 164.536517 
L 0 167.827247 
L 0 171.117978 
L 0 174.408708 
L 0 177.699438 
L 0 180.990169 
L 0 184.280899 
L 0 187.571629 
L 0 190.86236 
L 0 194.15309 
L 0 197.44382 
L 0 200.734551 
L 0 204.025281 
L 0 207.316011 
L 0 210.606742 
L 0 213.897472 
L 0 217.188202 
L 0 220.478933 
L 0 223.769663 
L 0 227.060393 
L 0 230.351124 
L 0 233.641854 
L 0 236.932584 
L 0 240.223315 
L 0 243.514045 
L 0 246.804775 
L 0 250.095506 
L 0 253.386236 
L 0 256.676966 
L 0 259.967697 
L 0 263.258427 
L 0 266.549157 
L 0 269.839888 
L 0 273.130618 
L 0 276.421348 
L 0 279.712079 
L 0 283.002809 
L 0 286.293539 
L 0 289.58427 
L 0 292.875 
L 0 296.16573 
L 0 299.456461 
L 0 302.747191 
L 0 306.037921 
L 0 309.328652 
L 0 312.619382 
L 0 315.910112 
L 0 319.200843 
L 0 322.491573 
L 0 325.782303 
L 0 329.073034 
L 0 332.363764 
L 0 335.654494 
L 0 338.945225 
L 0 342.235955 
L 0 345.526685 
L 0 348.817416 
L 0 352.108146 
L 0 355.398876 
L 0 358.689607 
L 0 361.980337 
L 0 365.271067 
L 0 368.561798 
L 0 371.852528 
L 0 375.143258 
L 0 378.433989 
L 0 381.724719 
L 0 385.015449 
L 0 388.30618 
L 0 391.59691 
L 0 394.887641 
L 0 398.178371 
L 0 401.469101 
L 0 404.759832 
L 0 408.050562 
L 0 411.341292 
L 0 414.632023 
L 0 417.922753 
L 0 421.213483 
L 0 424.504214 
L 0 427.794944 
L 0 431.085674 
L 0 434.376405 
L 0 437.667135 
L 0 440.957865 
L 0 444.248596 
L 0 447.539326 
L 0 450.830056 
L 0 454.120787 
L 0 457.411517 
L 0 460.702247 
L 0 463.992978 
L 0 467.283708 
L 0 470.574438 
L 0 473.865169 
L 0 477.155899 
L 0 480.446629 
L 0 483.73736 
L 0 487.02809 
L 0 490.31882 
L 0 493.609551 
L 0 496.900281 
L 0 500.191011 
L 0 503.481742 
L 0 506.772472 
L 0 510.063202 
L 0 513.353933 
L 0 516.644663 
L 0 519.935393 
L 0 523.226124 
L 0 526.516854 
L 0 529.807584 
L 0 533.098315 
L 0 536.389045 
L 0 539.679775 
L 0 542.970506 
L 0 546.261236 
L 0 549.551966 
L 0 552.842697 
L 0 556.133427 
L 0 559.424157 
L 0 562.714888 
L 0 566.005618 
L 0 569.296348 
L 0 572.587079 
L 0 575.877809 
L 0 579.168539 
L 0 582.45927 
L 0 585.75 
L 0 589.04073 
L 0 592.331461 
L 0 595.622191 
L 0 598.912921 
L 0 602.203652 
L 0 605.494382 
L 0 608.785112 
L 0 612.075843 
L 0 615.366573 
L 0 618.657303 
L 0 621.948034 
L 0 625.238764 
L 0 628.529494 
L 0 631.820225 
L 0 635.110955 
L 0 638.401685 
L 0 641.692416 
L 0 644.983146 
L 0 648.273876 
L 0 651.564607 
L 0 654.855337 
L 0 658.146068 
L 0 661.436798 
L 0 664.727528 
L 0 668.018259 
L 0 671.308989 
L 0 674.599719 
L 0 677.89045 
L 0 681.18118 
L 0 684.47191 
L 0 687.762641 
L 0 691.053371 
L 0 694.344101 
L 0 697.634832 
L 0 700.925562 
L 0 704.216292 
L 0 707.507023 
L 0 710.797753 
L 0 714.088483 
L 0 717.379214 
L 0 720.669944 
L 0 723.960674 
L 0 727.251405 
L 0 730.542135 
L 0 733.832865 
L 0 737.123596 
L 0 740.414326 
L 0 743.705056 
L 0 746.995787 
L 0 750.286517 
L 0 753.577247 
L 0 756.867978 
L 0 760.158708 
L 0 763.449438 
L 0 766.740169 
L 0 770.030899 
L 0 773.321629 
L 0 776.61236 
L 0 779.90309 
L 0 783.19382 
L 0 786.484551 
L 0 789.775281 
L 0 793.066011 
L 0 796.356742 
L 0 799.647472 
L 0 802.938202 
L 0 806.228933 
L 0 809.519663 
L 0 812.810393 
L 0 816.101124 
L 0 819.391854 
z
" clip-path="url(#p6a4a02cbaa)" style="fill: #f5f9fe; fill-opacity: 0.9"/>
    <path clip-path="url(#p6a4a02cbaa)" style="fill: #eff6fc; fill-opacity: 0.9"/>
    <path clip-path="url(#p6a4a02cbaa)" style="fill: #eaf3fb; fill-opacity: 0.9"/>
    <path clip-path="url(#p6a4a02cbaa)" style="fill: #e5eff9; fill-opacity: 0.9"/>
    <path clip-path="url(#p6a4a02cbaa)" style="fill: #dfecf7; fill-opacity: 0.9"/>
    <path clip-path="url(#p6a4a02cbaa)" style="fill: #dae8f6; fill-opacity: 0.9"/>
    <path clip-path="url(#p6a4a02cbaa)" style="fill: #d6e5f4; fill-opacity: 0.9"/>
    <path clip-path="url(#p6a4a02cbaa)" style="fill: #d0e2f2; fill-opacity: 0.9"/>
    <path clip-path="url(#p6a4a02cbaa)" style="fill: #cbdef1; fill-opacity: 0.9"/>
    <path clip-path="url(#p6a4a02cbaa)" style="fill: #c6dbef; fill-opacity: 0.9"/>
    <path clip-path="url(#p6a4a02cbaa)" style="fill: #bed8ec; fill-opacity: 0.9"/>
    <path clip-path="url(#p6a4a02cbaa)" style="fill: #b5d4e9; fill-opacity: 0.9"/>
    <path clip-path="url(#p6a4a02cbaa)" style="fill: #add0e6; fill-opacity: 0.9"/>
    <path clip-path="url(#p6a4a02cbaa)" style="fill: #a5cde3; fill-opacity: 0.9"/>
    <path clip-path="url(#p6a4a02cbaa)" style="fill: #9cc9e1; fill-opacity: 0.9"/>
    <path clip-path="url(#p6a4a02cbaa)" style="fill: #91c3de; fill-opacity: 0.9"/>
    <path clip-path="url(#p6a4a02cbaa)" style="fill: #85bcdc; fill-opacity: 0.9"/>
    <path clip-path="url(#p6a4a02cbaa)" style="fill: #7cb7da; fill-opacity: 0.9"/>
    <path clip-path="url(#p6a4a02cbaa)" style="fill: #71b1d7; fill-opacity: 0.9"/>
    <path clip-path="url(#p6a4a02cbaa)" style="fill: #66abd4; fill-opacity: 0.9"/>
    <path clip-path="url(#p6a4a02cbaa)" style="fill: #5da5d1; fill-opacity: 0.9"/>
    <path clip-path="url(#p6a4a02cbaa)" style="fill: #56a0ce; fill-opacity: 0.9"/>
    <path clip-path="url(#p6a4a02cbaa)" style="fill: #4d99ca; fill-opacity: 0.9"/>
    <path clip-path="url(#p6a4a02cbaa)" style="fill: #4493c7; fill-opacity: 0.9"/>
    <path clip-path="url(#p6a4a02cbaa)" style="fill: #3c8cc3; fill-opacity: 0.9"/>
    <path clip-path="url(#p6a4a02cbaa)" style="fill: #3686c0; fill-opacity: 0.9"/>
    <path clip-path="url(#p6a4a02cbaa)" style="fill: #2f7fbc; fill-opacity: 0.9"/>
    <path clip-path="url(#p6a4a02cbaa)" style="fill: #2777b8; fill-opacity: 0.9"/>
    <path clip-path="url(#p6a4a02cbaa)" style="fill: #2070b4; fill-opacity: 0.9"/>
    <path clip-path="url(#p6a4a02cbaa)" style="fill: #1c6ab0; fill-opacity: 0.9"/>
    <path clip-path="url(#p6a4a02cbaa)" style="fill: #1663aa; fill-opacity: 0.9"/>
    <path clip-path="url(#p6a4a02cbaa)" style="fill: #115ca5; fill-opacity: 0.9"/>
    <path clip-path="url(#p6a4a02cbaa)" style="fill: #0c56a0; fill-opacity: 0.9"/>
    <path clip-path="url(#p6a4a02cbaa)" style="fill: #084f99; fill-opacity: 0.9"/>
    <path clip-path="url(#p6a4a02cbaa)" style="fill: #08488e; fill-opacity: 0.9"/>
    <path clip-path="url(#p6a4a02cbaa)" style="fill: #084184; fill-opacity: 0.9"/>
    <path clip-path="url(#p6a4a02cbaa)" style="fill: #083a7a; fill-opacity: 0.9"/>
    <path clip-path="url(#p6a4a02cbaa)" style="fill: #083370; fill-opacity: 0.9"/>
    <path clip-path="url(#p6a4a02cbaa)" style="fill: #08306b; fill-opacity: 0.9"/>
   </g>
   <g id="QuadContourSet_2">
    <path clip-path="url(#p6a4a02cbaa)" style="fill: none"/>
    <path clip-path="url(#p6a4a02cbaa)" style="fill: none"/>
    <path clip-path="url(#p6a4a02cbaa)" style="fill: none"/>
    <path clip-path="url(#p6a4a02cbaa)" style="fill: none"/>
    <path clip-path="url(#p6a4a02cbaa)" style="fill: none"/>
    <path clip-path="url(#p6a4a02cbaa)" style="fill: none"/>
    <path clip-path="url(#p6a4a02cbaa)" style="fill: none"/>
    <path clip-path="url(#p6a4a02cbaa)" style="fill: none"/>
    <path clip-path="url(#p6a4a02cbaa)" style="fill: none"/>
    <path clip-path="url(#p6a4a02cbaa)" style="fill: none"/>
    <path clip-path="url(#p6a4a02cbaa)" style="fill: none"/>
    <path clip-path="url(#p6a4a02cbaa)" style="fill: none"/>
    <path clip-path="url(#p6a4a02cbaa)" style="fill: none"/>
    <path clip-path="url(#p6a4a02cbaa)" style="fill: none"/>
    <path clip-path="url(#p6a4a02cbaa)" style="fill: none"/>
    <path clip-path="url(#p6a4a02cbaa)" style="fill: none"/>
    <path clip-path="url(#p6a4a02cbaa)" style="fill: none"/>
    <path clip-path="url(#p6a4a02cbaa)" style="fill: none"/>
    <path clip-path="url(#p6a4a02cbaa)" style="fill: none"/>
    <path clip-path="url(#p6a4a02cbaa)" style="fill: none"/>
    <path clip-path="url(#p6a4a02cbaa)" style="fill: none"/>
    <path clip-path="url(#p6a4a02cbaa)" style="fill: none"/>
    <path clip-path="url(#p6a4a02cbaa)" style="fill: none"/>
    <path clip-path="url(#p6a4a02cbaa)" style="fill: none"/>
    <path clip-path="url(#p6a4a02cbaa)" style="fill: none"/>
    <path clip-path="url(#p6a4a02cbaa)" style="fill: none"/>
    <path clip-path="url(#p6a4a02cbaa)" style="fill: none"/>
    <path clip-path="url(#p6a4a02cbaa)" style="fill: none"/>
    <path clip-path="url(#p6a4a02cbaa)" style="fill: none"/>
    <path clip-path="url(#p6a4a02cbaa)" style="fill: none"/>
    <path clip-path="url(#p6a4a02cbaa)" style="fill: none"/>
    <path clip-path="url(#p6a4a02cbaa)" style="fill: none"/>
    <path clip-path="url(#p6a4a02cbaa)" style="fill: none"/>
    <path clip-path="url(#p6a4a02cbaa)" style="fill: none"/>
    <path clip-path="url(#p6a4a02cbaa)" style="fill: none"/>
    <path clip-path="url(#p6a4a02cbaa)" style="fill: none"/>
    <path clip-path="url(#p6a4a02cbaa)" style="fill: none"/>
    <path clip-path="url(#p6a4a02cbaa)" style="fill: none"/>
    <path clip-path="url(#p6a4a02cbaa)" style="fill: none"/>
   </g>
  </g>
 </g>
 <defs>
  <clipPath id="p6a4a02cbaa">
   <rect x="0" y="0" width="576" height="819.391854"/>
  </clipPath>
 </defs>
</svg>
