<?xml version="1.0" encoding="utf-8" standalone="no"?>
<!DOCTYPE svg PUBLIC "-//W3C//DTD SVG 1.1//EN"
  "http://www.w3.org/Graphics/SVG/1.1/DTD/svg11.dtd">
<svg xmlns:xlink="http://www.w3.org/1999/xlink" width="576pt" height="815.941014pt" viewBox="0 0 576 815.941014" xmlns="http://www.w3.org/2000/svg" version="1.1">
 <metadata>
  <rdf:RDF xmlns:dc="http://purl.org/dc/elements/1.1/" xmlns:cc="http://creativecommons.org/ns#" xmlns:rdf="http://www.w3.org/1999/02/22-rdf-syntax-ns#">
   <cc:Work>
    <dc:type rdf:resource="http://purl.org/dc/dcmitype/StillImage"/>
    <dc:date>2025-07-25T22:45:00.214063</dc:date>
    <dc:format>image/svg+xml</dc:format>
    <dc:creator>
     <cc:Agent>
      <dc:title>Matplotlib v3.10.3, https://matplotlib.org/</dc:title>
     </cc:Agent>
    </dc:creator>
   </cc:Work>
  </rdf:RDF>
 </metadata>
 <defs>
  <style type="text/css">*{stroke-linejoin: round; stroke-linecap: butt}</style>
 </defs>
 <g id="figure_1">
  <g id="patch_1">
   <path d="M 0 815.941014 
L 576 815.941014 
L 576 0 
L 0 0 
L 0 815.941014 
z
" style="fill: none; opacity: 0"/>
  </g>
  <g id="axes_1">
   <g id="QuadContourSet_1">
    <path d="M 576 323.526866 
L 576 321.133411 
L 576 317.85654 
L 576 314.579668 
L 576 311.302797 
L 576 308.025925 
L 576 304.749054 
L 576 301.472182 
L 576 298.19531 
L 576 294.918439 
L 576 291.641567 
L 576 288.364696 
L 576 285.087824 
L 576 281.810953 
L 576 278.534081 
L 576 275.25721 
L 576 271.980338 
L 576 268.703467 
L 576 265.426595 
L 576 262.149723 
L 576 258.872852 
L 576 255.59598 
L 576 252.36401 
L 575.944889 252.319109 
L 572.727273 249.472087 
L 572.375935 249.042237 
L 569.454545 246.133209 
L 569.153735 245.765366 
L 566.292801 242.488494 
L 566.181818 242.369823 
L 563.286955 239.211623 
L 562.909091 238.799385 
L 560.283316 235.934751 
L 559.636364 235.228948 
L 557.068468 232.65788 
L 556.363636 231.917773 
L 553.807848 229.381008 
L 553.090909 228.669406 
L 550.236277 226.104136 
L 549.818182 225.689531 
L 547.017774 222.827265 
L 546.545455 222.389508 
L 544.179564 219.550393 
L 543.272727 218.5131 
L 541.179286 216.273522 
L 540 215.060786 
L 537.992799 212.99665 
L 536.727273 211.695228 
L 534.889522 209.719779 
L 533.454545 208.211231 
L 531.657174 206.442907 
L 530.181818 204.847825 
L 528.348547 203.166036 
L 526.909091 201.693259 
L 525.204882 199.889164 
L 523.636364 198.424329 
L 522.084744 196.612293 
L 520.363636 194.602323 
L 519.278807 193.335421 
L 517.090909 190.830347 
L 516.402286 190.05855 
L 513.818182 187.172044 
L 513.470585 186.781678 
L 510.545455 183.516261 
L 510.535288 183.504806 
L 507.614901 180.227935 
L 507.272727 179.845919 
L 504.703654 176.951063 
L 504 176.163093 
L 501.78967 173.674192 
L 500.727273 172.477899 
L 498.879563 170.39732 
L 497.454545 168.792706 
L 495.969456 167.120449 
L 494.181818 165.224091 
L 492.606658 163.843577 
L 490.909091 162.505972 
L 488.289476 160.566706 
L 487.636364 160.059047 
L 484.363636 157.699102 
L 483.791902 157.289834 
L 481.090909 155.356366 
L 479.214219 154.012963 
L 477.818182 153.013629 
L 474.545455 150.758293 
L 474.512176 150.736091 
L 471.272727 148.574913 
L 469.600384 147.459219 
L 468 146.391533 
L 464.727273 144.18974 
L 464.717607 144.182348 
L 461.454545 141.782706 
L 460.319123 140.905476 
L 458.181818 139.31387 
L 456.023618 137.628605 
L 454.909091 136.758308 
L 451.82716 134.351733 
L 451.636364 134.202747 
L 448.363636 131.604748 
L 447.71205 131.074862 
L 445.090909 128.943287 
L 443.682568 127.79799 
L 441.818182 126.281826 
L 439.653087 124.521119 
L 438.545455 123.634156 
L 435.408609 121.244247 
L 435.272727 121.143123 
L 432 118.687326 
L 431.016808 117.967376 
L 428.727273 116.269618 
L 426.560699 114.690504 
L 425.454545 113.884281 
L 422.181818 111.492759 
L 422.086788 111.413632 
L 418.909091 108.847914 
L 418.060212 108.136761 
L 415.636364 106.106168 
L 414.148724 104.859889 
L 412.363636 103.364422 
L 410.040874 101.583018 
L 409.090909 100.913785 
L 405.818182 98.775938 
L 404.980574 98.306146 
L 402.545455 96.92544 
L 399.272727 95.102066 
L 399.184555 95.029275 
L 396 92.700858 
L 394.878428 91.752403 
L 392.727273 89.933286 
L 390.934045 88.475532 
L 389.454545 87.232177 
L 386.924465 85.19866 
L 386.181818 84.580552 
L 382.909091 81.972683 
L 382.836499 81.921789 
L 379.636364 79.84869 
L 377.909897 78.644917 
L 376.363636 77.625097 
L 373.608101 75.368045 
L 373.090909 74.970526 
L 369.818182 72.224663 
L 369.657816 72.091174 
L 366.545455 69.477879 
L 365.719054 68.814302 
L 363.272727 66.813432 
L 361.676297 65.537431 
L 360 64.197595 
L 357.576535 62.260559 
L 356.727273 61.581248 
L 353.711244 58.983688 
L 353.454545 58.769482 
L 350.233125 55.706816 
L 350.181818 55.66182 
L 346.909091 52.531423 
L 346.801022 52.429945 
L 343.636364 49.403026 
L 343.347142 49.153073 
L 340.363636 46.414628 
L 339.73443 45.876202 
L 337.090909 43.61408 
L 335.905069 42.59933 
L 333.818182 40.813533 
L 332.129112 39.322459 
L 330.545455 37.966197 
L 328.482204 36.045587 
L 327.272727 35.026747 
L 324.68018 32.768715 
L 324 32.199687 
L 320.909259 29.491844 
L 320.727273 29.336772 
L 317.454545 26.467703 
L 317.138954 26.214972 
L 314.181818 23.713091 
L 313.20019 22.938101 
L 310.909091 21.12929 
L 309.049596 19.661229 
L 307.636364 18.54549 
L 304.899002 16.384358 
L 304.363636 15.961514 
L 301.090909 13.400682 
L 300.725942 13.107486 
L 297.818182 10.783901 
L 296.633088 9.830615 
L 294.545455 8.151327 
L 292.559392 6.553743 
L 291.272727 5.518753 
L 288.476607 3.276872 
L 288 2.893735 
L 284.727273 0.402189 
L 284.194209 0 
L 281.454545 0 
L 278.181818 0 
L 274.909091 0 
L 271.636364 0 
L 268.363636 0 
L 265.090909 0 
L 263.31443 0 
L 265.090909 2.018084 
L 266.682238 3.276872 
L 268.363636 4.963761 
L 271.636364 5.179731 
L 274.909091 5.764023 
L 275.741387 6.553743 
L 278.181818 8.65101 
L 279.418577 9.830615 
L 281.454545 12.060497 
L 282.560428 13.107486 
L 284.727273 15.516169 
L 285.653586 16.384358 
L 288 19.047244 
L 288.698481 19.661229 
L 291.272727 22.700725 
L 291.581437 22.938101 
L 294.545455 26.174536 
L 294.682999 26.214972 
L 297.818182 26.850839 
L 301.090909 26.831344 
L 304.363636 29.290994 
L 304.569155 29.491844 
L 307.1947 32.768715 
L 307.636364 33.124911 
L 310.172318 36.045587 
L 310.909091 36.894133 
L 313.315779 39.322459 
L 314.181818 40.341539 
L 316.480276 42.59933 
L 317.454545 43.786952 
L 319.711483 45.876202 
L 320.727273 47.206053 
L 323.870633 49.153073 
L 324 49.257869 
L 327.272727 49.415224 
L 330.545455 52.036296 
L 330.923842 52.429945 
L 333.025935 55.706816 
L 333.818182 56.529006 
L 335.912521 58.983688 
L 337.090909 60.657714 
L 338.634236 62.260559 
L 340.363636 65.164786 
L 340.747451 65.537431 
L 343.230283 68.814302 
L 343.636364 69.383812 
L 346.448908 72.091174 
L 346.909091 72.697106 
L 350.181818 73.070018 
L 353.454545 74.040671 
L 354.517841 75.368045 
L 356.727273 77.91701 
L 357.42621 78.644917 
L 359.47245 81.921789 
L 360 82.637907 
L 362.244122 85.19866 
L 363.272727 86.771002 
L 364.906074 88.475532 
L 366.534033 91.752403 
L 366.545455 91.768335 
L 369.566965 95.029275 
L 369.818182 95.421265 
L 373.090909 96.581349 
L 376.363636 96.175744 
L 377.567721 98.306146 
L 379.636364 99.804678 
L 381.358776 101.583018 
L 382.909091 104.343791 
L 383.398243 104.859889 
L 385.5816 108.136761 
L 386.181818 109.036825 
L 388.476763 111.413632 
L 389.454545 113.300476 
L 390.916516 114.690504 
L 392.62137 117.967376 
L 392.727273 118.132213 
L 396 121.192023 
L 396.054204 121.244247 
L 399.131053 124.521119 
L 399.272727 124.77406 
L 402.048357 127.79799 
L 402.545455 128.749062 
L 404.557143 131.074862 
L 405.818182 132.532803 
L 407.391456 134.351733 
L 409.090909 136.316544 
L 410.414426 137.628605 
L 412.363636 139.941648 
L 413.369691 140.905476 
L 415.636364 143.216158 
L 416.647808 144.182348 
L 418.909091 146.498818 
L 419.730525 147.459219 
L 422.181818 150.481476 
L 422.388332 150.736091 
L 425.046138 154.012963 
L 425.454545 154.516498 
L 427.703944 157.289834 
L 428.727273 158.55152 
L 430.793583 160.566706 
L 432 162.150966 
L 433.865369 163.843577 
L 435.272727 165.154761 
L 437.445057 167.120449 
L 438.545455 168.116171 
L 441.066409 170.39732 
L 441.818182 171.146631 
L 444.0729 173.674192 
L 445.090909 174.847793 
L 448.264067 176.951063 
L 448.363636 177.065969 
L 451.636364 179.761994 
L 452.114162 180.227935 
L 454.909091 182.953504 
L 455.497846 183.504806 
L 458.181818 186.11935 
L 459.394757 186.781678 
L 461.454545 188.509025 
L 464.727273 189.49794 
L 466.582562 190.05855 
L 468 190.48747 
L 471.272727 192.680558 
L 471.773097 193.335421 
L 474.254709 196.612293 
L 474.545455 196.985196 
L 476.781205 199.889164 
L 477.818182 201.248052 
L 479.293881 203.166036 
L 481.090909 205.526932 
L 481.793915 206.442907 
L 484.283561 209.719779 
L 484.363636 209.824494 
L 486.789377 212.99665 
L 487.636364 214.10426 
L 489.296308 216.273522 
L 490.909091 218.383002 
L 491.844111 219.550393 
L 494.181818 222.289022 
L 494.637356 222.827265 
L 497.104851 226.104136 
L 497.454545 226.551465 
L 499.864249 229.381008 
L 500.727273 230.590287 
L 502.439334 232.65788 
L 504 234.542639 
L 505.054334 235.934751 
L 507.272727 238.653541 
L 507.686318 239.211623 
L 510.101914 242.488494 
L 510.545455 243.069615 
L 512.54326 245.765366 
L 513.818182 247.399803 
L 515.336493 249.042237 
L 517.090909 250.700263 
L 518.265965 252.319109 
L 520.363636 254.703266 
L 521.193427 255.59598 
L 523.197319 258.872852 
L 523.636364 259.48535 
L 526.077971 262.149723 
L 526.909091 263.553772 
L 528.59608 265.426595 
L 530.181818 267.493903 
L 531.007482 268.703467 
L 533.454545 271.785505 
L 533.591971 271.980338 
L 535.90331 275.25721 
L 536.727273 276.18816 
L 539.480832 278.534081 
L 540 278.946258 
L 543.272727 281.769286 
L 543.310892 281.810953 
L 545.253976 285.087824 
L 546.545455 286.715498 
L 547.931967 288.364696 
L 549.804854 291.641567 
L 549.818182 291.66171 
L 552.348378 294.918439 
L 553.090909 296.149933 
L 554.979898 298.19531 
L 556.363636 300.744237 
L 556.830047 301.472182 
L 559.482092 304.749054 
L 559.636364 304.953175 
L 562.909091 307.150775 
L 564.212389 308.025925 
L 566.181818 309.348375 
L 567.415441 311.302797 
L 569.454545 313.417374 
L 570.315338 314.579668 
L 572.277707 317.85654 
L 572.727273 318.514309 
L 574.519015 321.133411 
z
" clip-path="url(#p68559d307e)" style="fill: #f5f9fe; fill-opacity: 0.9"/>
    <path d="M 576 252.36401 
L 576 252.319109 
L 576 249.042237 
L 576 245.765366 
L 576 242.488494 
L 576 239.211623 
L 576 235.934751 
L 576 232.65788 
L 576 229.381008 
L 576 226.104136 
L 576 222.827265 
L 576 219.550393 
L 576 216.273522 
L 576 212.99665 
L 576 209.719779 
L 576 206.442907 
L 576 203.166036 
L 576 200.847221 
L 574.518006 199.889164 
L 572.727273 198.727886 
L 569.495779 196.612293 
L 569.454545 196.585464 
L 566.566113 193.335421 
L 566.181818 192.967853 
L 563.4471 190.05855 
L 562.909091 189.486193 
L 560.366872 186.781678 
L 559.636364 186.004534 
L 556.734338 183.504806 
L 556.363636 183.130515 
L 553.090909 180.795263 
L 552.209206 180.227935 
L 549.818182 178.662729 
L 547.898899 176.951063 
L 546.545455 175.933944 
L 544.324532 173.674192 
L 543.272727 172.603998 
L 541.103966 170.39732 
L 540 169.266194 
L 537.858613 167.120449 
L 536.727273 165.933179 
L 534.244347 163.843577 
L 533.454545 163.134727 
L 530.350645 160.566706 
L 530.181818 160.426151 
L 526.909091 157.702027 
L 526.488408 157.289834 
L 523.636364 154.546867 
L 523.113829 154.012963 
L 520.363636 151.314878 
L 519.878748 150.736091 
L 517.090909 147.963362 
L 516.490596 147.459219 
L 513.818182 144.852742 
L 512.952667 144.182348 
L 510.545455 142.393083 
L 508.527421 140.905476 
L 507.272727 139.98057 
L 504.082136 137.628605 
L 504 137.568057 
L 500.727273 135.196041 
L 499.550855 134.351733 
L 497.454545 132.847225 
L 495.085988 131.074862 
L 494.181818 130.418342 
L 490.909091 127.809478 
L 490.893401 127.79799 
L 487.636364 125.179878 
L 486.70306 124.521119 
L 484.363636 122.840445 
L 482.241614 121.244247 
L 481.090909 120.367887 
L 477.938919 117.967376 
L 477.818182 117.875424 
L 474.545455 115.440844 
L 473.371306 114.690504 
L 471.272727 113.293331 
L 468.259931 111.413632 
L 468 111.25146 
L 464.727273 108.837303 
L 463.863493 108.136761 
L 461.454545 106.247996 
L 459.72296 104.859889 
L 458.181818 103.599959 
L 455.801768 101.583018 
L 454.909091 100.758186 
L 452.394565 98.306146 
L 451.636364 97.566787 
L 448.958173 95.029275 
L 448.363636 94.449954 
L 445.090909 93.184789 
L 442.961757 91.752403 
L 441.818182 91.123964 
L 438.545455 88.734564 
L 438.18062 88.475532 
L 435.272727 86.383775 
L 433.594498 85.19866 
L 432 84.057668 
L 428.81417 81.921789 
L 428.727273 81.858102 
L 425.454545 80.072478 
L 422.694527 78.644917 
L 422.181818 78.37973 
L 418.909091 76.492376 
L 417.034522 75.368045 
L 415.636364 74.47411 
L 412.363636 72.629551 
L 411.299663 72.091174 
L 409.090909 70.93084 
L 405.818182 69.360184 
L 405.031071 68.814302 
L 402.545455 67.388321 
L 399.272727 65.745241 
L 398.627661 65.537431 
L 396 64.603551 
L 392.727273 62.945562 
L 391.750464 62.260559 
L 389.454545 60.939816 
L 386.86424 58.983688 
L 386.181818 58.558437 
L 382.909091 55.95038 
L 382.35327 55.706816 
L 379.636364 54.120044 
L 376.363636 53.097712 
L 375.34883 52.429945 
L 373.090909 51.224925 
L 369.908779 49.153073 
L 369.818182 49.091317 
L 366.545455 47.000899 
L 365.213791 45.876202 
L 363.272727 43.968106 
L 361.454205 42.59933 
L 360 41.177753 
L 357.517337 39.322459 
L 356.727273 38.784451 
L 353.578286 36.045587 
L 353.454545 35.960446 
L 350.181818 32.991632 
L 349.883526 32.768715 
L 346.909091 30.330854 
L 345.748216 29.491844 
L 343.636364 27.965524 
L 341.214258 26.214972 
L 340.363636 25.591577 
L 337.25105 22.938101 
L 337.090909 22.786865 
L 333.818182 20.098696 
L 333.336036 19.661229 
L 330.545455 17.182215 
L 329.668012 16.384358 
L 327.272727 14.206329 
L 326.064276 13.107486 
L 324 11.230444 
L 322.182374 9.830615 
L 320.727273 8.529095 
L 317.985203 6.553743 
L 317.454545 6.140733 
L 314.181818 3.857 
L 313.383868 3.276872 
L 310.909091 1.357774 
L 309.152233 0 
L 307.636364 0 
L 304.363636 0 
L 301.090909 0 
L 297.818182 0 
L 294.545455 0 
L 291.272727 0 
L 288 0 
L 284.727273 0 
L 284.194209 0 
L 284.727273 0.402189 
L 288 2.893735 
L 288.476607 3.276872 
L 291.272727 5.518753 
L 292.559392 6.553743 
L 294.545455 8.151327 
L 296.633088 9.830615 
L 297.818182 10.783901 
L 300.725942 13.107486 
L 301.090909 13.400682 
L 304.363636 15.961514 
L 304.899002 16.384358 
L 307.636364 18.54549 
L 309.049596 19.661229 
L 310.909091 21.12929 
L 313.20019 22.938101 
L 314.181818 23.713091 
L 317.138954 26.214972 
L 317.454545 26.467703 
L 320.727273 29.336772 
L 320.909259 29.491844 
L 324 32.199687 
L 324.68018 32.768715 
L 327.272727 35.026747 
L 328.482204 36.045587 
L 330.545455 37.966197 
L 332.129112 39.322459 
L 333.818182 40.813533 
L 335.905069 42.59933 
L 337.090909 43.61408 
L 339.73443 45.876202 
L 340.363636 46.414628 
L 343.347142 49.153073 
L 343.636364 49.403026 
L 346.801022 52.429945 
L 346.909091 52.531423 
L 350.181818 55.66182 
L 350.233125 55.706816 
L 353.454545 58.769482 
L 353.711244 58.983688 
L 356.727273 61.581248 
L 357.576535 62.260559 
L 360 64.197595 
L 361.676297 65.537431 
L 363.272727 66.813432 
L 365.719054 68.814302 
L 366.545455 69.477879 
L 369.657816 72.091174 
L 369.818182 72.224663 
L 373.090909 74.970526 
L 373.608101 75.368046 
L 376.363636 77.625097 
L 377.909897 78.644917 
L 379.636364 79.84869 
L 382.836499 81.921789 
L 382.909091 81.972683 
L 386.181818 84.580552 
L 386.924465 85.19866 
L 389.454545 87.232177 
L 390.934045 88.475532 
L 392.727273 89.933286 
L 394.878428 91.752403 
L 396 92.700858 
L 399.184555 95.029275 
L 399.272727 95.102066 
L 402.545455 96.92544 
L 404.980574 98.306146 
L 405.818182 98.775938 
L 409.090909 100.913785 
L 410.040874 101.583018 
L 412.363636 103.364422 
L 414.148724 104.859889 
L 415.636364 106.106168 
L 418.060212 108.136761 
L 418.909091 108.847914 
L 422.086788 111.413632 
L 422.181818 111.492759 
L 425.454545 113.884281 
L 426.560699 114.690504 
L 428.727273 116.269618 
L 431.016808 117.967376 
L 432 118.687326 
L 435.272727 121.143123 
L 435.408609 121.244247 
L 438.545455 123.634156 
L 439.653087 124.521119 
L 441.818182 126.281826 
L 443.682568 127.79799 
L 445.090909 128.943287 
L 447.71205 131.074862 
L 448.363636 131.604748 
L 451.636364 134.202747 
L 451.82716 134.351733 
L 454.909091 136.758308 
L 456.023618 137.628605 
L 458.181818 139.31387 
L 460.319123 140.905476 
L 461.454545 141.782706 
L 464.717607 144.182348 
L 464.727273 144.18974 
L 468 146.391533 
L 469.600384 147.459219 
L 471.272727 148.574913 
L 474.512176 150.736091 
L 474.545455 150.758293 
L 477.818182 153.013629 
L 479.214219 154.012963 
L 481.090909 155.356366 
L 483.791902 157.289834 
L 484.363636 157.699102 
L 487.636364 160.059047 
L 488.289476 160.566706 
L 490.909091 162.505972 
L 492.606658 163.843577 
L 494.181818 165.224091 
L 495.969456 167.120449 
L 497.454545 168.792706 
L 498.879563 170.39732 
L 500.727273 172.477899 
L 501.78967 173.674192 
L 504 176.163093 
L 504.703654 176.951063 
L 507.272727 179.845919 
L 507.614901 180.227935 
L 510.535288 183.504806 
L 510.545455 183.516261 
L 513.470585 186.781678 
L 513.818182 187.172044 
L 516.402286 190.05855 
L 517.090909 190.830347 
L 519.278807 193.335421 
L 520.363636 194.602323 
L 522.084744 196.612293 
L 523.636364 198.424329 
L 525.204882 199.889164 
L 526.909091 201.693259 
L 528.348547 203.166036 
L 530.181818 204.847825 
L 531.657174 206.442907 
L 533.454545 208.211231 
L 534.889522 209.719779 
L 536.727273 211.695228 
L 537.992799 212.99665 
L 540 215.060786 
L 541.179286 216.273522 
L 543.272727 218.5131 
L 544.179564 219.550393 
L 546.545455 222.389508 
L 547.017774 222.827265 
L 549.818182 225.689531 
L 550.236277 226.104136 
L 553.090909 228.669406 
L 553.807848 229.381008 
L 556.363636 231.917773 
L 557.068468 232.65788 
L 559.636364 235.228948 
L 560.283316 235.934751 
L 562.909091 238.799385 
L 563.286955 239.211623 
L 566.181818 242.369823 
L 566.292801 242.488494 
L 569.153735 245.765366 
L 569.454545 246.133209 
L 572.375935 249.042237 
L 572.727273 249.472087 
L 575.944889 252.319109 
z
M 576 4.910616 
L 576 3.276872 
L 576 0 
L 572.727273 0 
L 569.454545 0 
L 567.998262 0 
L 569.454545 0.790348 
L 572.727273 2.829703 
L 573.430551 3.276872 
z
" clip-path="url(#p68559d307e)" style="fill: #eff6fc; fill-opacity: 0.9"/>
    <path d="M 576 200.847221 
L 576 199.889164 
L 576 196.612293 
L 576 193.335421 
L 576 190.05855 
L 576 186.781678 
L 576 183.504806 
L 576 180.227935 
L 576 176.951063 
L 576 173.674192 
L 576 170.39732 
L 576 167.120449 
L 576 163.843577 
L 576 160.566706 
L 576 157.289834 
L 576 154.012963 
L 576 150.736091 
L 576 147.459219 
L 576 144.182348 
L 576 140.905476 
L 576 137.628605 
L 576 134.351733 
L 576 131.074862 
L 576 127.79799 
L 576 124.521119 
L 576 121.244247 
L 576 117.967376 
L 576 114.690504 
L 576 111.413632 
L 576 108.136761 
L 576 104.859889 
L 576 101.583018 
L 576 98.306146 
L 576 95.029275 
L 576 91.752403 
L 576 88.475532 
L 576 85.19866 
L 576 81.921789 
L 576 78.644917 
L 576 75.368045 
L 576 72.091174 
L 576 68.814302 
L 576 65.537431 
L 576 62.260559 
L 576 58.983688 
L 576 55.706816 
L 576 52.429945 
L 576 49.153073 
L 576 45.876202 
L 576 42.59933 
L 576 39.322459 
L 576 36.045587 
L 576 32.768715 
L 576 29.491844 
L 576 26.214972 
L 576 22.938101 
L 576 19.661229 
L 576 16.384358 
L 576 13.107486 
L 576 9.830615 
L 576 6.553743 
L 576 4.910616 
L 573.430551 3.276872 
L 572.727273 2.829703 
L 569.454545 0.790348 
L 567.998262 0 
L 566.181818 0 
L 562.909091 0 
L 559.636364 0 
L 556.363636 0 
L 553.090909 0 
L 549.818182 0 
L 546.545455 0 
L 543.272727 0 
L 540 0 
L 536.727273 0 
L 533.454545 0 
L 530.181818 0 
L 526.909091 0 
L 523.636364 0 
L 520.363636 0 
L 517.090909 0 
L 513.818182 0 
L 510.545455 0 
L 507.272727 0 
L 504 0 
L 500.727273 0 
L 497.454545 0 
L 494.181818 0 
L 490.909091 0 
L 487.636364 0 
L 484.363636 0 
L 481.090909 0 
L 477.818182 0 
L 474.545455 0 
L 471.272727 0 
L 469.079394 0 
L 471.272727 2.570421 
L 471.85811 3.276872 
L 474.545455 6.520008 
L 474.567375 6.553743 
L 477.288707 9.830615 
L 477.818182 10.469595 
L 480.004005 13.107486 
L 481.090909 14.419182 
L 482.889118 16.384358 
L 484.363636 19.256182 
L 484.993524 19.661229 
L 487.549239 22.938101 
L 487.636364 23.142994 
L 490.909091 24.319631 
L 494.181818 24.99892 
L 494.792753 26.214972 
L 497.454545 28.916399 
L 497.836739 29.491844 
L 499.85262 32.768715 
L 500.727273 33.843943 
L 502.189539 36.045587 
L 504 38.771487 
L 504.365939 39.322459 
L 506.531508 42.59933 
L 507.272727 43.919657 
L 508.260183 45.876202 
L 509.913999 49.153073 
L 510.545455 50.404238 
L 511.60923 52.429945 
L 513.221632 55.706816 
L 513.818182 56.88882 
L 515.196317 58.983688 
L 516.529265 62.260559 
L 517.090909 63.373401 
L 518.996055 65.537431 
L 519.936115 68.814302 
L 520.363636 69.353198 
L 523.334492 72.091174 
L 523.636364 72.758732 
L 526.857198 75.368045 
L 525.103579 78.644917 
L 523.636364 79.659534 
L 522.798963 78.644917 
L 520.848861 75.368045 
L 520.363636 75.156145 
L 518.670916 72.091174 
L 517.090909 70.727697 
L 515.711415 68.814302 
L 513.818182 66.188338 
L 513.128815 65.537431 
L 511.030644 62.260559 
L 510.545455 61.64898 
L 509.389999 62.260559 
L 508.082883 65.537431 
L 507.272727 68.465494 
L 507.007398 68.814302 
L 504 70.447398 
L 500.727273 68.920587 
L 500.654149 68.814302 
L 497.454545 65.612848 
L 497.082055 65.537431 
L 494.181818 63.881091 
L 492.886627 65.537431 
L 490.909091 67.445624 
L 487.636364 66.023304 
L 487.038093 65.537431 
L 484.363636 62.535703 
L 484.122744 62.260559 
L 481.253786 58.983688 
L 481.090909 58.797652 
L 478.384829 55.706816 
L 477.818182 55.059602 
L 475.36348 55.706816 
L 474.545455 55.881608 
L 474.344052 55.706816 
L 471.272727 53.434681 
L 469.898525 52.429945 
L 468 50.784859 
L 464.727273 49.541064 
L 463.47328 49.153073 
L 461.454545 48.528468 
L 458.181818 46.917685 
L 456.472147 45.876202 
L 454.909091 44.794292 
L 451.982636 42.59933 
L 451.636364 42.339612 
L 448.363636 40.267706 
L 445.090909 39.803187 
L 443.931967 39.322459 
L 441.818182 38.445663 
L 438.545455 37.413354 
L 435.272727 36.449131 
L 434.762494 36.045587 
L 432 34.231484 
L 428.727273 33.473616 
L 425.454545 34.176928 
L 422.181818 33.109 
L 421.714232 32.768715 
L 418.909091 30.439405 
L 417.82115 29.491844 
L 415.636364 27.588965 
L 413.95451 26.214972 
L 412.363636 24.841193 
L 409.090909 24.894561 
L 405.818182 23.685323 
L 404.494066 22.938101 
L 402.545455 21.869094 
L 399.272727 19.914541 
L 398.808596 19.661229 
L 396 18.03843 
L 392.727273 16.405904 
L 392.694615 16.384358 
L 389.454545 14.262419 
L 387.659709 13.107486 
L 386.181818 12.157703 
L 382.909091 10.048205 
L 382.555503 9.830615 
L 379.636364 7.918067 
L 376.921792 6.553743 
L 376.363636 6.216619 
L 373.090909 6.144585 
L 369.818182 3.425567 
L 369.654358 3.276872 
L 366.545455 0.455055 
L 366.047355 0 
L 363.272727 0 
L 360 0 
L 356.727273 0 
L 353.454545 0 
L 350.181818 0 
L 346.909091 0 
L 343.636364 0 
L 340.363636 0 
L 337.090909 0 
L 333.818182 0 
L 330.545455 0 
L 327.272727 0 
L 324 0 
L 320.727273 0 
L 317.454545 0 
L 314.181818 0 
L 310.909091 0 
L 309.152233 0 
L 310.909091 1.357774 
L 313.383868 3.276872 
L 314.181818 3.857 
L 317.454545 6.140733 
L 317.985203 6.553743 
L 320.727273 8.529095 
L 322.182374 9.830615 
L 324 11.230444 
L 326.064276 13.107486 
L 327.272727 14.206329 
L 329.668012 16.384358 
L 330.545455 17.182215 
L 333.336036 19.661229 
L 333.818182 20.098696 
L 337.090909 22.786865 
L 337.25105 22.938101 
L 340.363636 25.591577 
L 341.214258 26.214972 
L 343.636364 27.965524 
L 345.748216 29.491844 
L 346.909091 30.330854 
L 349.883526 32.768715 
L 350.181818 32.991632 
L 353.454545 35.960446 
L 353.578286 36.045587 
L 356.727273 38.784451 
L 357.517337 39.322459 
L 360 41.177753 
L 361.454205 42.59933 
L 363.272727 43.968106 
L 365.213791 45.876202 
L 366.545455 47.000899 
L 369.818182 49.091317 
L 369.908779 49.153073 
L 373.090909 51.224925 
L 375.34883 52.429945 
L 376.363636 53.097712 
L 379.636364 54.120044 
L 382.35327 55.706816 
L 382.909091 55.95038 
L 386.181818 58.558437 
L 386.86424 58.983688 
L 389.454545 60.939816 
L 391.750464 62.260559 
L 392.727273 62.945562 
L 396 64.603551 
L 398.627661 65.537431 
L 399.272727 65.745241 
L 402.545455 67.388321 
L 405.031071 68.814302 
L 405.818182 69.360184 
L 409.090909 70.93084 
L 411.299663 72.091174 
L 412.363636 72.629551 
L 415.636364 74.47411 
L 417.034522 75.368045 
L 418.909091 76.492376 
L 422.181818 78.37973 
L 422.694527 78.644917 
L 425.454545 80.072478 
L 428.727273 81.858102 
L 428.81417 81.921789 
L 432 84.057668 
L 433.594498 85.19866 
L 435.272727 86.383775 
L 438.18062 88.475532 
L 438.545455 88.734564 
L 441.818182 91.123964 
L 442.961757 91.752403 
L 445.090909 93.184789 
L 448.363636 94.449954 
L 448.958173 95.029275 
L 451.636364 97.566787 
L 452.394565 98.306146 
L 454.909091 100.758186 
L 455.801768 101.583018 
L 458.181818 103.599959 
L 459.72296 104.859889 
L 461.454545 106.247996 
L 463.863493 108.136761 
L 464.727273 108.837303 
L 468 111.25146 
L 468.259931 111.413632 
L 471.272727 113.293331 
L 473.371306 114.690504 
L 474.545455 115.440844 
L 477.818182 117.875424 
L 477.938919 117.967376 
L 481.090909 120.367887 
L 482.241614 121.244247 
L 484.363636 122.840445 
L 486.70306 124.521119 
L 487.636364 125.179878 
L 490.893401 127.79799 
L 490.909091 127.809478 
L 494.181818 130.418342 
L 495.085988 131.074862 
L 497.454545 132.847225 
L 499.550855 134.351733 
L 500.727273 135.196041 
L 504 137.568057 
L 504.082136 137.628605 
L 507.272727 139.98057 
L 508.527421 140.905476 
L 510.545455 142.393083 
L 512.952667 144.182348 
L 513.818182 144.852742 
L 516.490596 147.459219 
L 517.090909 147.963362 
L 519.878748 150.736091 
L 520.363636 151.314878 
L 523.113829 154.012963 
L 523.636364 154.546867 
L 526.488408 157.289834 
L 526.909091 157.702027 
L 530.181818 160.426151 
L 530.350645 160.566706 
L 533.454545 163.134727 
L 534.244347 163.843577 
L 536.727273 165.933179 
L 537.858613 167.120449 
L 540 169.266194 
L 541.103966 170.39732 
L 543.272727 172.603998 
L 544.324532 173.674192 
L 546.545455 175.933944 
L 547.898899 176.951063 
L 549.818182 178.662729 
L 552.209206 180.227935 
L 553.090909 180.795263 
L 556.363636 183.130515 
L 556.734338 183.504806 
L 559.636364 186.004534 
L 560.366872 186.781678 
L 562.909091 189.486193 
L 563.4471 190.05855 
L 566.181818 192.967853 
L 566.566113 193.335421 
L 569.454545 196.585464 
L 569.495779 196.612293 
L 572.727273 198.727886 
L 574.518006 199.889164 
z
M 564.732982 91.752403 
L 562.909091 88.943071 
L 562.728038 88.475532 
L 561.888846 85.19866 
L 562.909091 82.44057 
L 565.126303 85.19866 
L 566.181818 86.414486 
L 566.973674 88.475532 
L 567.206832 91.752403 
L 566.181818 93.272725 
z
M 539.221844 62.260559 
L 540 60.40527 
L 540.612691 62.260559 
L 540 63.812341 
z
" clip-path="url(#p68559d307e)" style="fill: #eaf3fb; fill-opacity: 0.9"/>
    <path d="M 566.181818 93.272725 
L 567.206832 91.752403 
L 566.973674 88.475532 
L 566.181818 86.414486 
L 565.126303 85.19866 
L 562.909091 82.44057 
L 561.888846 85.19866 
L 562.728038 88.475532 
L 562.909091 88.943071 
L 564.732982 91.752403 
z
M 523.636364 79.659534 
L 525.103579 78.644917 
L 526.857198 75.368045 
L 523.636364 72.758732 
L 523.334492 72.091174 
L 520.363636 69.353198 
L 519.936115 68.814302 
L 518.996055 65.537431 
L 517.090909 63.373401 
L 516.529265 62.260559 
L 515.196317 58.983688 
L 513.818182 56.88882 
L 513.221632 55.706816 
L 511.60923 52.429945 
L 510.545455 50.404238 
L 509.913999 49.153073 
L 508.260183 45.876202 
L 507.272727 43.919657 
L 506.531508 42.59933 
L 504.365939 39.322459 
L 504 38.771487 
L 502.189539 36.045587 
L 500.727273 33.843943 
L 499.85262 32.768715 
L 497.836739 29.491844 
L 497.454545 28.916399 
L 494.792753 26.214972 
L 494.181818 24.99892 
L 490.909091 24.319631 
L 487.636364 23.142994 
L 487.549239 22.938101 
L 484.993524 19.661229 
L 484.363636 19.256182 
L 482.889118 16.384358 
L 481.090909 14.419182 
L 480.004005 13.107486 
L 477.818182 10.469595 
L 477.288707 9.830615 
L 474.567375 6.553743 
L 474.545455 6.520008 
L 471.85811 3.276872 
L 471.272727 2.570421 
L 469.079394 0 
L 468 0 
L 464.727273 0 
L 461.454545 0 
L 458.181818 0 
L 454.909091 0 
L 451.636364 0 
L 448.363636 0 
L 445.090909 0 
L 441.818182 0 
L 438.545455 0 
L 435.272727 0 
L 432 0 
L 428.727273 0 
L 425.454545 0 
L 422.181818 0 
L 418.909091 0 
L 415.636364 0 
L 412.363636 0 
L 409.090909 0 
L 405.818182 0 
L 402.545455 0 
L 399.272727 0 
L 396 0 
L 392.727273 0 
L 389.454545 0 
L 386.181818 0 
L 382.909091 0 
L 379.636364 0 
L 376.363636 0 
L 373.090909 0 
L 369.818182 0 
L 366.545455 0 
L 366.047355 0 
L 366.545455 0.455055 
L 369.654358 3.276872 
L 369.818182 3.425567 
L 373.090909 6.144585 
L 376.363636 6.216619 
L 376.921792 6.553743 
L 379.636364 7.918067 
L 382.555503 9.830615 
L 382.909091 10.048205 
L 386.181818 12.157703 
L 387.659709 13.107486 
L 389.454545 14.262419 
L 392.694615 16.384358 
L 392.727273 16.405904 
L 396 18.03843 
L 398.808596 19.661229 
L 399.272727 19.914541 
L 402.545455 21.869094 
L 404.494066 22.938101 
L 405.818182 23.685323 
L 409.090909 24.894561 
L 412.363636 24.841193 
L 413.95451 26.214972 
L 415.636364 27.588965 
L 417.82115 29.491844 
L 418.909091 30.439405 
L 421.714232 32.768715 
L 422.181818 33.109 
L 425.454545 34.176928 
L 428.727273 33.473616 
L 432 34.231484 
L 434.762494 36.045587 
L 435.272727 36.449131 
L 438.545455 37.413354 
L 441.818182 38.445663 
L 443.931967 39.322459 
L 445.090909 39.803187 
L 448.363636 40.267706 
L 451.636364 42.339612 
L 451.982636 42.59933 
L 454.909091 44.794292 
L 456.472147 45.876202 
L 458.181818 46.917685 
L 461.454545 48.528468 
L 463.47328 49.153073 
L 464.727273 49.541064 
L 468 50.784859 
L 469.898525 52.429945 
L 471.272727 53.434681 
L 474.344052 55.706816 
L 474.545455 55.881608 
L 475.36348 55.706816 
L 477.818182 55.059602 
L 478.384829 55.706816 
L 481.090909 58.797652 
L 481.253786 58.983688 
L 484.122744 62.260559 
L 484.363636 62.535703 
L 487.038093 65.537431 
L 487.636364 66.023304 
L 490.909091 67.445624 
L 492.886627 65.537431 
L 494.181818 63.881091 
L 497.082055 65.537431 
L 497.454545 65.612848 
L 500.654149 68.814302 
L 500.727273 68.920587 
L 504 70.447398 
L 507.007398 68.814302 
L 507.272727 68.465494 
L 508.082883 65.537431 
L 509.389999 62.260559 
L 510.545455 61.64898 
L 511.030644 62.260559 
L 513.128815 65.537431 
L 513.818182 66.188338 
L 515.711415 68.814302 
L 517.090909 70.727697 
L 518.670916 72.091174 
L 520.363636 75.156145 
L 520.848861 75.368045 
L 522.798963 78.644917 
z
M 540 63.812341 
L 540.612691 62.260559 
L 540 60.40527 
L 539.221844 62.260559 
z
" clip-path="url(#p68559d307e)" style="fill: #e5eff9; fill-opacity: 0.9"/>
    <path clip-path="url(#p68559d307e)" style="fill: #dfecf7; fill-opacity: 0.9"/>
    <path clip-path="url(#p68559d307e)" style="fill: #dae8f6; fill-opacity: 0.9"/>
    <path clip-path="url(#p68559d307e)" style="fill: #d6e5f4; fill-opacity: 0.9"/>
    <path clip-path="url(#p68559d307e)" style="fill: #d0e2f2; fill-opacity: 0.9"/>
    <path clip-path="url(#p68559d307e)" style="fill: #cbdef1; fill-opacity: 0.9"/>
    <path clip-path="url(#p68559d307e)" style="fill: #c6dbef; fill-opacity: 0.9"/>
    <path clip-path="url(#p68559d307e)" style="fill: #bed8ec; fill-opacity: 0.9"/>
    <path clip-path="url(#p68559d307e)" style="fill: #b5d4e9; fill-opacity: 0.9"/>
    <path clip-path="url(#p68559d307e)" style="fill: #add0e6; fill-opacity: 0.9"/>
    <path clip-path="url(#p68559d307e)" style="fill: #a5cde3; fill-opacity: 0.9"/>
    <path clip-path="url(#p68559d307e)" style="fill: #9cc9e1; fill-opacity: 0.9"/>
    <path clip-path="url(#p68559d307e)" style="fill: #91c3de; fill-opacity: 0.9"/>
    <path clip-path="url(#p68559d307e)" style="fill: #85bcdc; fill-opacity: 0.9"/>
    <path clip-path="url(#p68559d307e)" style="fill: #7cb7da; fill-opacity: 0.9"/>
    <path clip-path="url(#p68559d307e)" style="fill: #71b1d7; fill-opacity: 0.9"/>
    <path clip-path="url(#p68559d307e)" style="fill: #66abd4; fill-opacity: 0.9"/>
    <path clip-path="url(#p68559d307e)" style="fill: #5da5d1; fill-opacity: 0.9"/>
    <path clip-path="url(#p68559d307e)" style="fill: #56a0ce; fill-opacity: 0.9"/>
    <path clip-path="url(#p68559d307e)" style="fill: #4d99ca; fill-opacity: 0.9"/>
    <path clip-path="url(#p68559d307e)" style="fill: #4493c7; fill-opacity: 0.9"/>
    <path clip-path="url(#p68559d307e)" style="fill: #3c8cc3; fill-opacity: 0.9"/>
    <path clip-path="url(#p68559d307e)" style="fill: #3686c0; fill-opacity: 0.9"/>
    <path clip-path="url(#p68559d307e)" style="fill: #2f7fbc; fill-opacity: 0.9"/>
    <path clip-path="url(#p68559d307e)" style="fill: #2777b8; fill-opacity: 0.9"/>
    <path clip-path="url(#p68559d307e)" style="fill: #2070b4; fill-opacity: 0.9"/>
    <path clip-path="url(#p68559d307e)" style="fill: #1c6ab0; fill-opacity: 0.9"/>
    <path clip-path="url(#p68559d307e)" style="fill: #1663aa; fill-opacity: 0.9"/>
    <path clip-path="url(#p68559d307e)" style="fill: #115ca5; fill-opacity: 0.9"/>
    <path clip-path="url(#p68559d307e)" style="fill: #0c56a0; fill-opacity: 0.9"/>
    <path clip-path="url(#p68559d307e)" style="fill: #084f99; fill-opacity: 0.9"/>
    <path clip-path="url(#p68559d307e)" style="fill: #08488e; fill-opacity: 0.9"/>
    <path clip-path="url(#p68559d307e)" style="fill: #084184; fill-opacity: 0.9"/>
    <path clip-path="url(#p68559d307e)" style="fill: #083a7a; fill-opacity: 0.9"/>
    <path clip-path="url(#p68559d307e)" style="fill: #083370; fill-opacity: 0.9"/>
    <path clip-path="url(#p68559d307e)" style="fill: #08306b; fill-opacity: 0.9"/>
   </g>
   <g id="QuadContourSet_2">
    <path d="M 263.31443 0 
L 265.090909 2.018084 
L 266.682238 3.276872 
L 268.363636 4.963761 
L 271.636364 5.179731 
L 274.909091 5.764023 
L 275.741387 6.553743 
L 279.418577 9.830615 
L 284.727273 15.516169 
L 285.653586 16.384358 
L 288 19.047244 
L 288.698481 19.661229 
L 291.581437 22.938101 
L 294.682999 26.214972 
L 297.818182 26.850839 
L 301.090909 26.831344 
L 304.569155 29.491844 
L 307.1947 32.768715 
L 307.636364 33.124911 
L 310.909091 36.894133 
L 316.480276 42.59933 
L 317.454545 43.786952 
L 319.711483 45.876202 
L 320.727273 47.206053 
L 324 49.257869 
L 327.272727 49.415224 
L 330.923842 52.429945 
L 333.025935 55.706816 
L 333.818182 56.529006 
L 335.912521 58.983688 
L 337.090909 60.657714 
L 338.634236 62.260559 
L 340.363636 65.164786 
L 340.747451 65.537431 
L 343.636364 69.383812 
L 346.448908 72.091174 
L 346.909091 72.697106 
L 350.181818 73.070018 
L 353.454545 74.040671 
L 354.517841 75.368045 
L 357.42621 78.644917 
L 360 82.637907 
L 362.244122 85.19866 
L 363.272727 86.771002 
L 364.906074 88.475532 
L 366.545455 91.768335 
L 369.818182 95.421265 
L 373.090909 96.581349 
L 376.363636 96.175744 
L 377.567721 98.306146 
L 379.636364 99.804678 
L 381.358776 101.583018 
L 382.909091 104.343791 
L 383.398243 104.859889 
L 386.181818 109.036825 
L 388.476763 111.413632 
L 389.454545 113.300476 
L 390.916516 114.690504 
L 392.727273 118.132213 
L 396.054204 121.244247 
L 399.272727 124.77406 
L 402.048357 127.79799 
L 402.545455 128.749062 
L 409.090909 136.316544 
L 410.414426 137.628605 
L 412.363636 139.941648 
L 416.647808 144.182348 
L 419.730525 147.459219 
L 428.727273 158.55152 
L 430.793583 160.566706 
L 432 162.150966 
L 441.818182 171.146631 
L 445.090909 174.847793 
L 448.363636 177.065969 
L 452.114162 180.227935 
L 458.181818 186.11935 
L 459.394757 186.781678 
L 461.454545 188.509025 
L 468 190.48747 
L 471.272727 192.680558 
L 491.844111 219.550393 
L 494.637356 222.827265 
L 497.956487 227.140859 
M 509.829165 242.118497 
L 513.818182 247.399803 
L 515.336493 249.042237 
L 517.090909 250.700263 
L 518.265965 252.319109 
L 521.193427 255.59598 
L 523.636364 259.48535 
L 526.077971 262.149723 
L 526.909091 263.553772 
L 528.59608 265.426595 
L 533.591971 271.980338 
L 535.90331 275.25721 
L 536.727273 276.18816 
L 543.310892 281.810953 
L 545.253976 285.087824 
L 547.931967 288.364696 
L 549.818182 291.66171 
L 552.348378 294.918439 
L 553.090909 296.149933 
L 554.979898 298.19531 
L 556.830047 301.472182 
L 559.636364 304.953175 
L 566.181818 309.348375 
L 567.415441 311.302797 
L 569.454545 313.417374 
L 570.315338 314.579668 
L 572.727273 318.514309 
L 574.519015 321.133411 
L 576 323.526866 
L 576 323.526866 
" clip-path="url(#p68559d307e)" style="fill: none"/>
    <path d="M 284.194209 0 
L 288.476607 3.276872 
L 310.909091 21.12929 
L 314.181818 23.713091 
L 320.909259 29.491844 
L 343.636364 49.403026 
L 353.711244 58.983688 
L 357.576535 62.260559 
L 366.545455 69.477879 
L 376.363636 77.625097 
L 382.909091 81.972683 
L 392.727273 89.933286 
L 396 92.700858 
L 399.272727 95.102066 
L 405.818182 98.775938 
L 410.040874 101.583018 
L 414.148724 104.859889 
L 422.181818 111.492759 
L 435.408609 121.244247 
L 439.653087 124.521119 
L 451.82716 134.351733 
L 461.454545 141.782706 
L 464.727273 144.18974 
L 479.214219 154.012963 
L 490.909091 162.505972 
L 494.181818 165.224091 
L 497.454545 168.792706 
L 504.142458 176.322622 
M 516.947429 190.669537 
L 520.363636 194.602323 
L 523.636364 198.424329 
L 525.204882 199.889164 
L 528.348547 203.166036 
L 530.181818 204.847825 
L 531.657174 206.442907 
L 534.889522 209.719779 
L 540 215.060786 
L 543.272727 218.5131 
L 547.017774 222.827265 
L 550.236277 226.104136 
L 553.807848 229.381008 
L 560.283316 235.934751 
L 569.153735 245.765366 
L 569.454545 246.133209 
L 572.727273 249.472087 
L 576 252.36401 
L 576 252.36401 
" clip-path="url(#p68559d307e)" style="fill: none"/>
    <path d="M 576 4.910616 
L 569.454545 0.790348 
L 567.998262 0 
M 309.152233 0 
L 314.181818 3.857 
L 320.727273 8.529095 
L 322.182374 9.830615 
L 324 11.230444 
L 333.818182 20.098696 
L 341.214258 26.214972 
L 346.909091 30.330854 
L 350.181818 32.991632 
L 356.727273 38.784451 
L 357.517337 39.322459 
L 360 41.177753 
L 361.454205 42.59933 
L 363.272727 43.968106 
L 365.213791 45.876202 
L 366.545455 47.000899 
L 373.090909 51.224925 
L 375.34883 52.429945 
L 376.363636 53.097712 
L 379.636364 54.120044 
L 382.909091 55.95038 
L 386.86424 58.983688 
L 389.454545 60.939816 
L 396 64.603551 
L 399.272727 65.745241 
L 402.545455 67.388321 
L 405.818182 69.360184 
L 411.299663 72.091174 
L 412.363636 72.629551 
L 417.034522 75.368045 
L 422.694527 78.644917 
L 428.81417 81.921789 
L 435.272727 86.383775 
L 441.818182 91.123964 
L 442.961757 91.752403 
L 445.090909 93.184789 
L 448.363636 94.449954 
L 455.801768 101.583018 
L 461.454545 106.247996 
L 468 111.25146 
L 474.545455 115.440844 
L 483.259205 122.009685 
M 498.545145 133.629942 
L 508.527421 140.905476 
L 513.818182 144.852742 
L 526.909091 157.702027 
L 536.727273 165.933179 
L 541.103966 170.39732 
L 546.545455 175.933944 
L 547.898899 176.951063 
L 549.818182 178.662729 
L 553.090909 180.795263 
L 556.734338 183.504806 
L 559.636364 186.004534 
L 569.495779 196.612293 
L 576 200.847221 
L 576 200.847221 
" clip-path="url(#p68559d307e)" style="fill: none"/>
    <path d="M 366.047355 0 
L 366.545455 0.455055 
L 369.654358 3.276872 
L 369.818182 3.425567 
L 373.090909 6.144585 
L 376.363636 6.216619 
L 376.921792 6.553743 
L 379.636364 7.918067 
L 382.555503 9.830615 
L 382.909091 10.048205 
L 386.181818 12.157703 
L 387.659709 13.107486 
L 387.749776 13.165442 
M 404.309151 22.836656 
L 404.494066 22.938101 
L 405.818182 23.685323 
L 409.090909 24.894561 
L 412.363636 24.841193 
L 413.95451 26.214972 
L 415.636364 27.588965 
L 417.82115 29.491844 
L 418.909091 30.439405 
L 421.714232 32.768715 
L 422.181818 33.109 
L 425.454545 34.176928 
L 428.727273 33.473616 
L 432 34.231484 
L 434.762494 36.045587 
L 435.272727 36.449131 
L 438.545455 37.413354 
L 441.818182 38.445663 
L 443.931967 39.322459 
L 445.090909 39.803187 
L 448.363636 40.267706 
L 451.636364 42.339612 
L 451.982636 42.59933 
L 454.909091 44.794292 
L 456.472147 45.876202 
L 458.181818 46.917685 
L 461.454545 48.528468 
L 463.47328 49.153073 
L 464.727273 49.541064 
L 468 50.784859 
L 469.898525 52.429945 
L 471.272727 53.434681 
L 474.344052 55.706816 
L 474.545455 55.881608 
L 475.36348 55.706816 
L 477.818182 55.059602 
L 478.384829 55.706816 
L 481.090909 58.797652 
L 481.253786 58.983688 
L 484.122744 62.260559 
L 484.363636 62.535703 
L 487.038093 65.537431 
L 487.636364 66.023304 
L 490.909091 67.445624 
L 492.886627 65.537431 
L 494.181818 63.881091 
L 497.082055 65.537431 
L 497.454545 65.612848 
L 500.654149 68.814302 
L 500.727273 68.920587 
L 504 70.447398 
L 507.007398 68.814302 
L 507.272727 68.465494 
L 508.082883 65.537431 
L 509.389999 62.260559 
L 510.545455 61.64898 
L 511.030644 62.260559 
L 513.128815 65.537431 
L 513.818182 66.188338 
L 515.711415 68.814302 
L 517.090909 70.727697 
L 518.670916 72.091174 
L 520.363636 75.156145 
L 520.848861 75.368045 
L 522.798963 78.644917 
L 523.636364 79.659534 
L 525.103579 78.644917 
L 526.857198 75.368045 
L 523.636364 72.758732 
L 523.334492 72.091174 
L 520.363636 69.353198 
L 519.936115 68.814302 
L 518.996055 65.537431 
L 517.090909 63.373401 
L 516.529265 62.260559 
L 515.196317 58.983688 
L 513.818182 56.88882 
L 513.221632 55.706816 
L 511.60923 52.429945 
L 510.545455 50.404238 
L 509.913999 49.153073 
L 508.260183 45.876202 
L 507.272727 43.919657 
L 506.531508 42.59933 
L 504.365939 39.322459 
L 504 38.771487 
L 502.189539 36.045587 
L 500.727273 33.843943 
L 499.85262 32.768715 
L 497.836739 29.491844 
L 497.454545 28.916399 
L 494.792753 26.214972 
L 494.181818 24.99892 
L 490.909091 24.319631 
L 487.636364 23.142994 
L 487.549239 22.938101 
L 484.993524 19.661229 
L 484.363636 19.256182 
L 482.889118 16.384358 
L 481.090909 14.419182 
L 480.004005 13.107486 
L 477.818182 10.469595 
L 477.288707 9.830615 
L 474.567375 6.553743 
L 474.545455 6.520008 
L 471.85811 3.276872 
L 471.272727 2.570421 
L 469.079394 0 
M 566.181818 93.272725 
L 567.206832 91.752403 
L 566.973674 88.475532 
L 566.181818 86.414486 
L 565.126303 85.19866 
L 562.909091 82.44057 
L 561.888846 85.19866 
L 562.728038 88.475532 
L 562.909091 88.943071 
L 564.732982 91.752403 
L 566.181818 93.272725 
z
M 540 63.812341 
L 540.612691 62.260559 
L 540 60.40527 
L 539.221844 62.260559 
L 540 63.812341 
z
" clip-path="url(#p68559d307e)" style="fill: none"/>
    <path clip-path="url(#p68559d307e)" style="fill: none"/>
    <path clip-path="url(#p68559d307e)" style="fill: none"/>
    <path clip-path="url(#p68559d307e)" style="fill: none"/>
    <path clip-path="url(#p68559d307e)" style="fill: none"/>
    <path clip-path="url(#p68559d307e)" style="fill: none"/>
    <path clip-path="url(#p68559d307e)" style="fill: none"/>
    <path clip-path="url(#p68559d307e)" style="fill: none"/>
    <path clip-path="url(#p68559d307e)" style="fill: none"/>
    <path clip-path="url(#p68559d307e)" style="fill: none"/>
    <path clip-path="url(#p68559d307e)" style="fill: none"/>
    <path clip-path="url(#p68559d307e)" style="fill: none"/>
    <path clip-path="url(#p68559d307e)" style="fill: none"/>
    <path clip-path="url(#p68559d307e)" style="fill: none"/>
    <path clip-path="url(#p68559d307e)" style="fill: none"/>
    <path clip-path="url(#p68559d307e)" style="fill: none"/>
    <path clip-path="url(#p68559d307e)" style="fill: none"/>
    <path clip-path="url(#p68559d307e)" style="fill: none"/>
    <path clip-path="url(#p68559d307e)" style="fill: none"/>
    <path clip-path="url(#p68559d307e)" style="fill: none"/>
    <path clip-path="url(#p68559d307e)" style="fill: none"/>
    <path clip-path="url(#p68559d307e)" style="fill: none"/>
    <path clip-path="url(#p68559d307e)" style="fill: none"/>
    <path clip-path="url(#p68559d307e)" style="fill: none"/>
    <path clip-path="url(#p68559d307e)" style="fill: none"/>
    <path clip-path="url(#p68559d307e)" style="fill: none"/>
    <path clip-path="url(#p68559d307e)" style="fill: none"/>
    <path clip-path="url(#p68559d307e)" style="fill: none"/>
    <path clip-path="url(#p68559d307e)" style="fill: none"/>
    <path clip-path="url(#p68559d307e)" style="fill: none"/>
    <path clip-path="url(#p68559d307e)" style="fill: none"/>
    <path clip-path="url(#p68559d307e)" style="fill: none"/>
    <path clip-path="url(#p68559d307e)" style="fill: none"/>
    <path clip-path="url(#p68559d307e)" style="fill: none"/>
    <path clip-path="url(#p68559d307e)" style="fill: none"/>
    <path clip-path="url(#p68559d307e)" style="fill: none"/>
   </g>
   <g id="text_1">
    <g clip-path="url(#p68559d307e)">
     <!-- 0 -->
     <g style="opacity: 0" transform="translate(499.020721 233.679815) rotate(-309.231295) scale(0.12 -0.12)">
      <defs>
       <path id="DejaVuSans-30" d="M 2034 4250 
Q 1547 4250 1301 3770 
Q 1056 3291 1056 2328 
Q 1056 1369 1301 889 
Q 1547 409 2034 409 
Q 2525 409 2770 889 
Q 3016 1369 3016 2328 
Q 3016 3291 2770 3770 
Q 2525 4250 2034 4250 
z
M 2034 4750 
Q 2819 4750 3233 4129 
Q 3647 3509 3647 2328 
Q 3647 1150 3233 529 
Q 2819 -91 2034 -91 
Q 1250 -91 836 529 
Q 422 1150 422 2328 
Q 422 3509 836 4129 
Q 1250 4750 2034 4750 
z
" transform="scale(0.015625)"/>
      </defs>
      <use xlink:href="#DejaVuSans-30"/>
     </g>
    </g>
   </g>
   <g id="text_2">
    <g clip-path="url(#p68559d307e)">
     <!-- 1 -->
     <g style="opacity: 0" transform="translate(505.520552 182.880218) rotate(-311.962396) scale(0.12 -0.12)">
      <defs>
       <path id="DejaVuSans-31" d="M 794 531 
L 1825 531 
L 1825 4091 
L 703 3866 
L 703 4441 
L 1819 4666 
L 2450 4666 
L 2450 531 
L 3481 531 
L 3481 0 
L 794 0 
L 794 531 
z
" transform="scale(0.015625)"/>
      </defs>
      <use xlink:href="#DejaVuSans-31"/>
     </g>
    </g>
   </g>
   <g id="text_3">
    <g clip-path="url(#p68559d307e)">
     <!-- 2 -->
     <g style="opacity: 0" transform="translate(485.86215 128.066523) rotate(-321.977651) scale(0.12 -0.12)">
      <defs>
       <path id="DejaVuSans-32" d="M 1228 531 
L 3431 531 
L 3431 0 
L 469 0 
L 469 531 
Q 828 903 1448 1529 
Q 2069 2156 2228 2338 
Q 2531 2678 2651 2914 
Q 2772 3150 2772 3378 
Q 2772 3750 2511 3984 
Q 2250 4219 1831 4219 
Q 1534 4219 1204 4116 
Q 875 4013 500 3803 
L 500 4441 
Q 881 4594 1212 4672 
Q 1544 4750 1819 4750 
Q 2544 4750 2975 4387 
Q 3406 4025 3406 3419 
Q 3406 3131 3298 2873 
Q 3191 2616 2906 2266 
Q 2828 2175 2409 1742 
Q 1991 1309 1228 531 
z
" transform="scale(0.015625)"/>
      </defs>
      <use xlink:href="#DejaVuSans-32"/>
     </g>
    </g>
   </g>
   <g id="text_4">
    <g clip-path="url(#p68559d307e)">
     <!-- 3 -->
     <g style="opacity: 0" transform="translate(391.055735 19.083384) rotate(-330.995715) scale(0.12 -0.12)">
      <defs>
       <path id="DejaVuSans-33" d="M 2597 2516 
Q 3050 2419 3304 2112 
Q 3559 1806 3559 1356 
Q 3559 666 3084 287 
Q 2609 -91 1734 -91 
Q 1441 -91 1130 -33 
Q 819 25 488 141 
L 488 750 
Q 750 597 1062 519 
Q 1375 441 1716 441 
Q 2309 441 2620 675 
Q 2931 909 2931 1356 
Q 2931 1769 2642 2001 
Q 2353 2234 1838 2234 
L 1294 2234 
L 1294 2753 
L 1863 2753 
Q 2328 2753 2575 2939 
Q 2822 3125 2822 3475 
Q 2822 3834 2567 4026 
Q 2313 4219 1838 4219 
Q 1578 4219 1281 4162 
Q 984 4106 628 3988 
L 628 4550 
Q 988 4650 1302 4700 
Q 1616 4750 1894 4750 
Q 2613 4750 3031 4423 
Q 3450 4097 3450 3541 
Q 3450 3153 3228 2886 
Q 3006 2619 2597 2516 
z
" transform="scale(0.015625)"/>
      </defs>
      <use xlink:href="#DejaVuSans-33"/>
     </g>
    </g>
   </g>
  </g>
 </g>
 <defs>
  <clipPath id="p68559d307e">
   <rect x="0" y="0" width="576" height="815.941014"/>
  </clipPath>
 </defs>
</svg>
