<?xml version="1.0" encoding="utf-8" standalone="no"?>
<!DOCTYPE svg PUBLIC "-//W3C//DTD SVG 1.1//EN"
  "http://www.w3.org/Graphics/SVG/1.1/DTD/svg11.dtd">
<svg xmlns:xlink="http://www.w3.org/1999/xlink" width="576pt" height="817.373583pt" viewBox="0 0 576 817.373583" xmlns="http://www.w3.org/2000/svg" version="1.1">
 <metadata>
  <rdf:RDF xmlns:dc="http://purl.org/dc/elements/1.1/" xmlns:cc="http://creativecommons.org/ns#" xmlns:rdf="http://www.w3.org/1999/02/22-rdf-syntax-ns#">
   <cc:Work>
    <dc:type rdf:resource="http://purl.org/dc/dcmitype/StillImage"/>
    <dc:date>2025-07-25T22:44:20.669960</dc:date>
    <dc:format>image/svg+xml</dc:format>
    <dc:creator>
     <cc:Agent>
      <dc:title>Matplotlib v3.10.3, https://matplotlib.org/</dc:title>
     </cc:Agent>
    </dc:creator>
   </cc:Work>
  </rdf:RDF>
 </metadata>
 <defs>
  <style type="text/css">*{stroke-linejoin: round; stroke-linecap: butt}</style>
 </defs>
 <g id="figure_1">
  <g id="patch_1">
   <path d="M 0 817.373583 
L 576 817.373583 
L 576 0 
L 0 0 
L 0 817.373583 
z
" style="fill: none; opacity: 0"/>
  </g>
  <g id="axes_1">
   <g id="QuadContourSet_1">
    <path d="M 556.363636 68.24867 
L 558.951982 65.652497 
L 559.636364 64.010418 
L 562.909091 63.754446 
L 566.181818 65.233135 
L 569.454545 65.463839 
L 569.867749 65.652497 
L 572.727273 67.291158 
L 576 68.170013 
L 576 67.700837 
L 572.727273 66.671419 
L 570.949217 65.652497 
L 569.454545 64.970071 
L 566.181818 64.349369 
L 562.909091 62.979974 
L 559.636364 63.391389 
L 558.693985 65.652497 
L 556.363636 67.989892 
L 554.022965 65.652497 
L 556.363636 62.484242 
L 556.903601 62.369872 
L 556.363636 62.078601 
L 553.090909 61.252599 
L 552.426154 62.369872 
L 549.818182 64.717622 
L 547.47751 62.369872 
L 546.545455 59.698142 
L 545.183544 59.087247 
L 543.272727 58.552054 
L 540 57.591699 
L 536.727273 56.314593 
L 535.584698 55.804622 
L 533.454545 55.075018 
L 530.181818 53.773101 
L 526.909091 53.376659 
L 523.636364 53.279056 
L 521.837208 52.521997 
L 520.363636 51.898426 
L 517.090909 51.189935 
L 513.818182 50.489325 
L 510.545455 49.447409 
L 510.140821 49.239372 
L 507.272727 48.434434 
L 504 47.36433 
L 501.076105 45.956748 
L 500.727273 45.799391 
L 497.454545 45.314462 
L 494.181818 43.254807 
L 490.909091 43.694974 
L 487.636364 43.112231 
L 486.718758 42.674123 
L 484.363636 41.823945 
L 481.090909 41.095104 
L 477.818182 40.444578 
L 475.019018 39.391498 
L 474.545455 39.258629 
L 471.272727 38.340392 
L 468 37.294999 
L 465.809285 36.108873 
L 464.727273 35.623483 
L 461.454545 35.159766 
L 458.181818 33.446066 
L 454.909091 33.920013 
L 451.636364 32.851297 
L 451.591048 32.826248 
L 448.363636 31.784846 
L 445.090909 31.085257 
L 441.818182 30.354227 
L 439.893502 29.543623 
L 438.545455 29.165328 
L 435.272727 28.246918 
L 432 27.196648 
L 430.436336 26.260999 
L 428.727273 25.508109 
L 425.454545 24.865465 
L 422.181818 23.646098 
L 418.909091 23.984443 
L 416.386831 22.978374 
L 415.636364 22.577947 
L 412.363636 21.795381 
L 409.090909 21.112705 
L 405.818182 20.223373 
L 404.714653 19.695749 
L 402.545455 19.085695 
L 399.272727 18.165289 
L 396 17.050272 
L 394.767481 16.413124 
L 392.727273 15.65661 
L 389.454545 14.573449 
L 386.181818 13.896705 
L 382.909091 13.91609 
L 381.128228 13.130499 
L 379.636364 12.449917 
L 376.363636 11.798793 
L 373.090909 11.170292 
L 369.818182 10.088438 
L 369.38362 9.847874 
L 366.545455 9.054606 
L 363.272727 8.223689 
L 360 6.887106 
L 359.243178 6.56525 
L 356.727273 5.829805 
L 353.454545 4.287635 
L 350.181818 4.142955 
L 346.909091 3.773326 
L 345.952655 3.282625 
L 343.636364 2.349491 
L 343.19313 3.282625 
L 340.363636 5.6802 
L 337.973291 3.282625 
L 337.090909 1.119168 
L 334.267249 0 
L 333.818182 0 
L 332.703338 0 
L 333.818182 0.730559 
L 337.090909 1.739029 
L 337.720476 3.282625 
L 340.363636 5.933779 
L 343.492392 3.282625 
L 343.636364 2.979523 
L 344.388745 3.282625 
L 346.909091 4.575692 
L 350.181818 4.839094 
L 353.454545 5.139068 
L 356.727273 6.414676 
L 357.242374 6.56525 
L 360 7.737997 
L 363.272727 8.690461 
L 366.545455 9.496015 
L 367.804341 9.847874 
L 369.818182 10.962691 
L 373.090909 11.733633 
L 376.363636 12.240203 
L 379.548949 13.130499 
L 379.636364 13.202176 
L 382.909091 14.612756 
L 386.181818 14.59878 
L 389.454545 15.423395 
L 392.727273 16.186029 
L 393.339715 16.413124 
L 396 17.788354 
L 399.272727 18.617406 
L 402.545455 19.537811 
L 403.107041 19.695749 
L 405.818182 20.992012 
L 409.090909 21.633222 
L 412.363636 22.268088 
L 414.779219 22.978374 
L 415.636364 23.539804 
L 418.909091 24.62568 
L 422.181818 24.382637 
L 425.454545 25.726861 
L 428.727273 25.9948 
L 429.331545 26.260999 
L 432 27.85772 
L 435.272727 28.710866 
L 438.240236 29.543623 
L 438.545455 29.765215 
L 441.818182 31.050522 
L 445.090909 31.575642 
L 448.363636 32.318312 
L 449.937782 32.826248 
L 451.636364 33.76515 
L 454.909091 34.534057 
L 458.181818 34.308122 
L 461.454545 36.015319 
L 464.614443 36.108873 
L 464.727273 36.113863 
L 468 37.883133 
L 471.272727 38.806847 
L 473.356506 39.391498 
L 474.545455 40.107263 
L 477.818182 41.070036 
L 481.090909 41.561559 
L 484.363636 42.424097 
L 485.056246 42.674123 
L 487.636364 43.905992 
L 490.909091 44.326121 
L 494.181818 44.315073 
L 497.110569 45.956748 
L 497.454545 46.172609 
L 500.727273 46.639957 
L 504 47.88756 
L 507.272727 48.902773 
L 508.47207 49.239372 
L 510.545455 50.305372 
L 513.818182 51.056542 
L 517.090909 51.658274 
L 520.168457 52.521997 
L 520.363636 52.664168 
L 523.636364 53.981242 
L 526.909091 54.051708 
L 530.181818 54.784535 
L 533.454545 55.666587 
L 533.857554 55.804622 
L 536.727273 57.085477 
L 540 58.069493 
L 543.272727 59.015884 
L 543.527516 59.087247 
L 546.545455 60.440966 
L 547.21837 62.369872 
L 549.818182 64.977547 
L 552.714888 62.369872 
L 553.090909 61.737882 
L 555.247574 62.369872 
L 553.763824 65.652497 
z
" clip-path="url(#p6086b9dcc0)" style="fill: #f5f9fe; fill-opacity: 0.9"/>
    <path d="M 556.363636 67.989892 
L 558.693985 65.652497 
L 559.636364 63.391389 
L 562.909091 62.979974 
L 566.181818 64.349369 
L 569.454545 64.970071 
L 570.949217 65.652497 
L 572.727273 66.671419 
L 576 67.700837 
L 576 67.23166 
L 572.727273 66.051679 
L 572.030685 65.652497 
L 569.454545 64.476303 
L 566.181818 63.465602 
L 563.38743 62.369872 
L 562.909091 62.232567 
L 562.103706 62.369872 
L 559.636364 62.772359 
L 558.435987 65.652497 
L 556.363636 67.731115 
L 554.282105 65.652497 
L 556.363636 62.835006 
L 558.559629 62.369872 
L 556.363636 61.185299 
L 553.090909 60.767317 
L 552.13742 62.369872 
L 549.818182 64.457698 
L 547.73665 62.369872 
L 546.839572 59.087247 
L 546.545455 58.993222 
L 543.272727 58.088224 
L 540 57.113904 
L 537.087061 55.804622 
L 536.727273 55.639605 
L 533.454545 54.48345 
L 530.181818 52.761667 
L 526.909091 52.70161 
L 523.636364 52.57687 
L 523.505959 52.521997 
L 520.363636 51.192261 
L 517.090909 50.721595 
L 513.818182 49.922109 
L 511.809572 49.239372 
L 510.545455 48.884594 
L 507.272727 47.966094 
L 504 46.841101 
L 502.162982 45.956748 
L 500.727273 45.309108 
L 497.454545 44.529413 
L 494.707578 42.674123 
L 494.181818 42.445685 
L 492.798043 42.674123 
L 490.909091 43.063827 
L 489.012582 42.674123 
L 487.636364 42.069183 
L 484.363636 41.223794 
L 481.090909 40.628649 
L 477.818182 39.819121 
L 476.681529 39.391498 
L 474.545455 38.792174 
L 471.272727 37.873937 
L 468 36.706865 
L 466.895539 36.108873 
L 464.727273 35.13619 
L 461.454545 34.304213 
L 458.639692 32.826248 
L 458.181818 32.665326 
L 457.316071 32.826248 
L 454.909091 33.305969 
L 453.451254 32.826248 
L 451.636364 31.800198 
L 448.363636 31.25138 
L 445.090909 30.594872 
L 441.818182 29.657933 
L 441.546768 29.543623 
L 438.545455 28.70138 
L 435.272727 27.78297 
L 432 26.535575 
L 431.541126 26.260999 
L 428.727273 25.021418 
L 425.454545 24.004068 
L 422.419926 22.978374 
L 422.181818 22.917842 
L 421.720194 22.978374 
L 418.909091 23.343205 
L 417.994442 22.978374 
L 415.636364 21.720175 
L 412.363636 21.322674 
L 409.090909 20.592189 
L 406.322264 19.695749 
L 405.818182 19.529968 
L 402.545455 18.633578 
L 399.272727 17.713173 
L 396.148577 16.413124 
L 396 16.34883 
L 392.727273 15.12719 
L 389.454545 13.723504 
L 386.181818 13.19463 
L 382.909091 13.219424 
L 382.707508 13.130499 
L 379.636364 11.729457 
L 376.363636 11.357384 
L 373.090909 10.606951 
L 370.9629 9.847874 
L 369.818182 9.506631 
L 366.545455 8.613196 
L 363.272727 7.756917 
L 360.640931 6.56525 
L 360 6.279867 
L 356.727273 5.244934 
L 353.454545 3.436201 
L 350.181818 3.446815 
L 348.945377 3.282625 
L 346.909091 2.647894 
L 343.636364 1.71946 
L 342.893869 3.282625 
L 340.363636 5.42662 
L 338.226106 3.282625 
L 337.090909 0.499306 
L 335.83116 0 
L 334.267249 0 
L 337.090909 1.119168 
L 337.973291 3.282625 
L 340.363636 5.6802 
L 343.19313 3.282625 
L 343.636364 2.349491 
L 345.952655 3.282625 
L 346.909091 3.773326 
L 350.181818 4.142955 
L 353.454545 4.287635 
L 356.727273 5.829805 
L 359.243178 6.56525 
L 360 6.887106 
L 363.272727 8.223689 
L 366.545455 9.054606 
L 369.38362 9.847874 
L 369.818182 10.088438 
L 373.090909 11.170292 
L 376.363636 11.798793 
L 379.636364 12.449917 
L 381.128228 13.130499 
L 382.909091 13.91609 
L 386.181818 13.896705 
L 389.454545 14.573449 
L 392.727273 15.65661 
L 394.767481 16.413124 
L 396 17.050272 
L 399.272727 18.165289 
L 402.545455 19.085695 
L 404.714653 19.695749 
L 405.818182 20.223373 
L 409.090909 21.112705 
L 412.363636 21.795381 
L 415.636364 22.577947 
L 416.386831 22.978374 
L 418.909091 23.984443 
L 422.181818 23.646098 
L 425.454545 24.865465 
L 428.727273 25.508109 
L 430.436336 26.260999 
L 432 27.196648 
L 435.272727 28.246918 
L 438.545455 29.165328 
L 439.893502 29.543623 
L 441.818182 30.354227 
L 445.090909 31.085257 
L 448.363636 31.784846 
L 451.591048 32.826248 
L 451.636364 32.851297 
L 454.909091 33.920013 
L 458.181818 33.446066 
L 461.454545 35.159766 
L 464.727273 35.623483 
L 465.809285 36.108873 
L 468 37.294999 
L 471.272727 38.340392 
L 474.545455 39.258629 
L 475.019018 39.391498 
L 477.818182 40.444578 
L 481.090909 41.095104 
L 484.363636 41.823945 
L 486.718758 42.674123 
L 487.636364 43.112231 
L 490.909091 43.694974 
L 494.181818 43.254807 
L 497.454545 45.314462 
L 500.727273 45.799391 
L 501.076105 45.956748 
L 504 47.36433 
L 507.272727 48.434434 
L 510.140821 49.239372 
L 510.545455 49.447409 
L 513.818182 50.489325 
L 517.090909 51.189935 
L 520.363636 51.898426 
L 521.837208 52.521997 
L 523.636364 53.279056 
L 526.909091 53.376659 
L 530.181818 53.773101 
L 533.454545 55.075018 
L 535.584698 55.804622 
L 536.727273 56.314593 
L 540 57.591699 
L 543.272727 58.552054 
L 545.183544 59.087247 
L 546.545455 59.698142 
L 547.47751 62.369872 
L 549.818182 64.717622 
L 552.426154 62.369872 
L 553.090909 61.252599 
L 556.363636 62.078601 
L 556.903601 62.369872 
L 556.363636 62.484242 
L 554.022965 65.652497 
z
" clip-path="url(#p6086b9dcc0)" style="fill: #eff6fc; fill-opacity: 0.9"/>
    <path d="M 556.363636 67.731115 
L 558.435987 65.652497 
L 559.636364 62.772359 
L 562.103706 62.369872 
L 562.909091 62.232567 
L 563.38743 62.369872 
L 566.181818 63.465602 
L 569.454545 64.476303 
L 572.030685 65.652497 
L 572.727273 66.051679 
L 576 67.23166 
L 576 66.762484 
L 573.15521 65.652497 
L 572.727273 65.476771 
L 569.454545 63.982535 
L 566.181818 62.581836 
L 565.641257 62.369872 
L 562.909091 61.585616 
L 559.636364 61.40116 
L 556.363636 60.291996 
L 553.090909 60.282034 
L 551.848686 62.369872 
L 549.818182 64.197774 
L 547.995791 62.369872 
L 548.495599 59.087247 
L 546.545455 58.463811 
L 543.272727 57.624393 
L 540 56.63611 
L 538.150076 55.804622 
L 536.727273 55.152052 
L 533.454545 53.891881 
L 530.992941 52.521997 
L 530.181818 52.149975 
L 526.909091 51.857394 
L 523.636364 50.630767 
L 520.363636 50.486096 
L 517.090909 50.253255 
L 513.818182 49.354892 
L 513.478322 49.239372 
L 510.545455 48.416255 
L 507.272727 47.497754 
L 504 46.317871 
L 503.249859 45.956748 
L 500.727273 44.818824 
L 497.454545 43.744364 
L 495.869932 42.674123 
L 494.181818 41.940653 
L 490.909091 42.154984 
L 487.636364 40.719052 
L 484.363636 40.623642 
L 481.090909 40.162194 
L 478.344041 39.391498 
L 477.818182 39.175407 
L 474.545455 38.325719 
L 471.272727 37.407482 
L 468 36.118731 
L 467.981793 36.108873 
L 464.727273 34.648897 
L 461.454545 33.44866 
L 460.269133 32.826248 
L 458.181818 32.092651 
L 454.909091 32.392881 
L 451.636364 30.745231 
L 448.363636 30.717914 
L 445.090909 30.104487 
L 443.200034 29.543623 
L 441.818182 29.040842 
L 438.545455 28.237432 
L 435.272727 27.319023 
L 432.667824 26.260999 
L 432 25.978331 
L 428.727273 24.534727 
L 425.454545 23.142671 
L 424.968455 22.978374 
L 422.181818 22.269952 
L 418.909091 21.965627 
L 415.636364 20.862403 
L 412.363636 20.849967 
L 409.090909 20.071672 
L 407.929875 19.695749 
L 405.818182 19.001264 
L 402.545455 18.181461 
L 399.272727 17.261056 
L 397.23506 16.413124 
L 396 15.878675 
L 392.727273 14.597771 
L 389.776415 13.130499 
L 389.454545 12.98837 
L 386.181818 12.469801 
L 382.909091 11.091613 
L 379.636364 11.008997 
L 376.363636 10.915974 
L 373.090909 10.043611 
L 372.542179 9.847874 
L 369.818182 9.035844 
L 366.545455 8.171787 
L 363.272727 7.290145 
L 361.671797 6.56525 
L 360 5.82086 
L 356.727273 4.660062 
L 354.29947 3.282625 
L 353.454545 2.906411 
L 350.181818 2.642953 
L 346.909091 1.013814 
L 343.636364 1.089428 
L 342.594607 3.282625 
L 340.363636 5.17304 
L 338.478921 3.282625 
L 337.39507 0 
L 337.090909 0 
L 335.83116 0 
L 337.090909 0.499306 
L 338.226106 3.282625 
L 340.363636 5.42662 
L 342.893869 3.282625 
L 343.636364 1.71946 
L 346.909091 2.647894 
L 348.945377 3.282625 
L 350.181818 3.446815 
L 353.454545 3.436201 
L 356.727273 5.244934 
L 360 6.279867 
L 360.640931 6.56525 
L 363.272727 7.756917 
L 366.545455 8.613196 
L 369.818182 9.506631 
L 370.9629 9.847874 
L 373.090909 10.606951 
L 376.363636 11.357384 
L 379.636364 11.729457 
L 382.707508 13.130499 
L 382.909091 13.219424 
L 386.181818 13.19463 
L 389.454545 13.723504 
L 392.727273 15.12719 
L 396 16.34883 
L 396.148577 16.413124 
L 399.272727 17.713173 
L 402.545455 18.633578 
L 405.818182 19.529968 
L 406.322264 19.695749 
L 409.090909 20.592189 
L 412.363636 21.322674 
L 415.636364 21.720175 
L 417.994442 22.978374 
L 418.909091 23.343205 
L 421.720194 22.978374 
L 422.181818 22.917842 
L 422.419926 22.978374 
L 425.454545 24.004068 
L 428.727273 25.021418 
L 431.541126 26.260999 
L 432 26.535575 
L 435.272727 27.78297 
L 438.545455 28.70138 
L 441.546768 29.543623 
L 441.818182 29.657933 
L 445.090909 30.594872 
L 448.363636 31.25138 
L 451.636364 31.800198 
L 453.451254 32.826248 
L 454.909091 33.305969 
L 457.316071 32.826248 
L 458.181818 32.665326 
L 458.639692 32.826248 
L 461.454545 34.304213 
L 464.727273 35.13619 
L 466.895539 36.108873 
L 468 36.706865 
L 471.272727 37.873937 
L 474.545455 38.792174 
L 476.681529 39.391498 
L 477.818182 39.819121 
L 481.090909 40.628649 
L 484.363636 41.223794 
L 487.636364 42.069183 
L 489.012582 42.674123 
L 490.909091 43.063827 
L 492.798043 42.674123 
L 494.181818 42.445685 
L 494.707578 42.674123 
L 497.454545 44.529413 
L 500.727273 45.309108 
L 502.162982 45.956748 
L 504 46.841101 
L 507.272727 47.966094 
L 510.545455 48.884594 
L 511.809572 49.239372 
L 513.818182 49.922109 
L 517.090909 50.721595 
L 520.363636 51.192261 
L 523.505959 52.521997 
L 523.636364 52.57687 
L 526.909091 52.70161 
L 530.181818 52.761667 
L 533.454545 54.48345 
L 536.727273 55.639605 
L 537.087061 55.804622 
L 540 57.113904 
L 543.272727 58.088224 
L 546.545455 58.993222 
L 546.839572 59.087247 
L 547.73665 62.369872 
L 549.818182 64.457698 
L 552.13742 62.369872 
L 553.090909 60.767317 
L 556.363636 61.185299 
L 558.559629 62.369872 
L 556.363636 62.835006 
L 554.282105 65.652497 
z
M 554.541245 65.652497 
L 556.363636 63.185769 
L 558.17799 65.652497 
L 556.363636 67.472337 
z
" clip-path="url(#p6086b9dcc0)" style="fill: #eaf3fb; fill-opacity: 0.9"/>
    <path d="M 556.363636 67.472337 
L 558.17799 65.652497 
L 556.363636 63.185769 
L 554.541245 65.652497 
z
M 554.800386 65.652497 
L 556.363636 63.536533 
L 557.919992 65.652497 
L 556.363636 67.213559 
z
M 576 66.762484 
L 576 66.293308 
L 574.357663 65.652497 
L 572.727273 64.983003 
L 569.454545 63.488766 
L 567.003905 62.369872 
L 566.181818 61.993323 
L 562.909091 60.938665 
L 559.814189 59.087247 
L 559.636364 58.998352 
L 558.587527 59.087247 
L 556.363636 59.398694 
L 553.090909 59.796751 
L 551.559953 62.369872 
L 549.818182 63.93785 
L 548.254931 62.369872 
L 549.818182 59.193276 
L 550.214342 59.087247 
L 549.818182 58.874778 
L 546.545455 57.9344 
L 543.272727 57.160563 
L 540 56.158315 
L 539.213091 55.804622 
L 536.727273 54.6645 
L 533.454545 53.300313 
L 532.055956 52.521997 
L 530.181818 51.662423 
L 526.909091 50.95185 
L 524.112263 49.239372 
L 523.636364 49.059333 
L 522.66778 49.239372 
L 520.363636 49.779931 
L 517.090909 49.784916 
L 515.147073 49.239372 
L 513.818182 48.595706 
L 510.545455 47.947915 
L 507.272727 47.029415 
L 504.389955 45.956748 
L 504 45.791975 
L 500.727273 44.32854 
L 497.454545 42.959315 
L 497.032287 42.674123 
L 494.181818 41.43562 
L 490.909091 40.797924 
L 487.68833 39.391498 
L 487.636364 39.379911 
L 487.585208 39.391498 
L 484.363636 40.02349 
L 481.090909 39.695739 
L 480.006553 39.391498 
L 477.818182 38.492233 
L 474.545455 37.859264 
L 471.272727 36.941027 
L 469.162847 36.108873 
L 468 35.629748 
L 464.727273 34.161603 
L 461.750554 32.826248 
L 461.454545 32.680813 
L 458.181818 31.519976 
L 454.909091 30.411796 
L 451.636364 29.690264 
L 448.363636 30.184448 
L 445.090909 29.614102 
L 444.8533 29.543623 
L 441.818182 28.439307 
L 438.545455 27.773484 
L 435.272727 26.855075 
L 433.810085 26.260999 
L 432 25.494851 
L 428.727273 24.048036 
L 426.335299 22.978374 
L 425.454545 22.585895 
L 422.181818 21.622062 
L 418.945966 19.695749 
L 418.909091 19.677328 
L 418.627639 19.695749 
L 415.636364 20.00463 
L 412.363636 20.377259 
L 409.619624 19.695749 
L 409.090909 19.400777 
L 405.818182 18.472559 
L 402.545455 17.729345 
L 399.272727 16.808939 
L 398.321542 16.413124 
L 396 15.408519 
L 392.727273 14.068351 
L 390.84114 13.130499 
L 389.454545 12.518215 
L 386.181818 11.742684 
L 383.407227 9.847874 
L 382.909091 9.620641 
L 381.490688 9.847874 
L 379.636364 10.288537 
L 376.363636 10.474565 
L 374.121458 9.847874 
L 373.090909 9.281864 
L 369.818182 8.565057 
L 366.545455 7.730377 
L 363.272727 6.823373 
L 362.702662 6.56525 
L 360 5.361854 
L 356.727273 4.075191 
L 355.330335 3.282625 
L 353.454545 2.447405 
L 350.181818 1.805841 
L 347.398787 0 
L 346.909091 0 
L 345.788665 0 
L 343.636364 0.459396 
L 342.295346 3.282625 
L 340.363636 4.919461 
L 338.731736 3.282625 
L 338.958981 0 
L 337.39507 0 
L 338.478921 3.282625 
L 340.363636 5.17304 
L 342.594607 3.282625 
L 343.636364 1.089428 
L 346.909091 1.013814 
L 350.181818 2.642953 
L 353.454545 2.906411 
L 354.29947 3.282625 
L 356.727273 4.660062 
L 360 5.82086 
L 361.671797 6.56525 
L 363.272727 7.290145 
L 366.545455 8.171787 
L 369.818182 9.035844 
L 372.542179 9.847874 
L 373.090909 10.043611 
L 376.363636 10.915974 
L 379.636364 11.008997 
L 382.909091 11.091613 
L 386.181818 12.469801 
L 389.454545 12.98837 
L 389.776415 13.130499 
L 392.727273 14.597771 
L 396 15.878675 
L 397.23506 16.413124 
L 399.272727 17.261056 
L 402.545455 18.181461 
L 405.818182 19.001264 
L 407.929875 19.695749 
L 409.090909 20.071672 
L 412.363636 20.849967 
L 415.636364 20.862403 
L 418.909091 21.965627 
L 422.181818 22.269952 
L 424.968455 22.978374 
L 425.454545 23.142671 
L 428.727273 24.534727 
L 432 25.978331 
L 432.667824 26.260999 
L 435.272727 27.319023 
L 438.545455 28.237432 
L 441.818182 29.040842 
L 443.200034 29.543623 
L 445.090909 30.104487 
L 448.363636 30.717914 
L 451.636364 30.745231 
L 454.909091 32.392881 
L 458.181818 32.092651 
L 460.269133 32.826248 
L 461.454545 33.44866 
L 464.727273 34.648897 
L 467.981793 36.108873 
L 468 36.118731 
L 471.272727 37.407482 
L 474.545455 38.325719 
L 477.818182 39.175407 
L 478.344041 39.391498 
L 481.090909 40.162194 
L 484.363636 40.623642 
L 487.636364 40.719052 
L 490.909091 42.154984 
L 494.181818 41.940653 
L 495.869932 42.674123 
L 497.454545 43.744364 
L 500.727273 44.818824 
L 503.249859 45.956748 
L 504 46.317871 
L 507.272727 47.497754 
L 510.545455 48.416255 
L 513.478322 49.239372 
L 513.818182 49.354892 
L 517.090909 50.253255 
L 520.363636 50.486096 
L 523.636364 50.630767 
L 526.909091 51.857394 
L 530.181818 52.149975 
L 530.992941 52.521997 
L 533.454545 53.891881 
L 536.727273 55.152052 
L 538.150076 55.804622 
L 540 56.63611 
L 543.272727 57.624393 
L 546.545455 58.463811 
L 548.495599 59.087247 
L 547.995791 62.369872 
L 549.818182 64.197774 
L 551.848686 62.369872 
L 553.090909 60.282034 
L 556.363636 60.291996 
L 559.636364 61.40116 
L 562.909091 61.585616 
L 565.641257 62.369872 
L 566.181818 62.581836 
L 569.454545 63.982535 
L 572.727273 65.476771 
L 573.15521 65.652497 
z
" clip-path="url(#p6086b9dcc0)" style="fill: #e5eff9; fill-opacity: 0.9"/>
    <path d="M 556.363636 67.213559 
L 557.919992 65.652497 
L 556.363636 63.536533 
L 554.800386 65.652497 
z
M 555.059526 65.652497 
L 556.363636 63.887297 
L 557.661995 65.652497 
L 556.363636 66.954782 
z
M 576 66.293308 
L 576 65.824132 
L 575.560116 65.652497 
L 572.727273 64.489234 
L 569.454545 62.994998 
L 568.085373 62.369872 
L 566.181818 61.497968 
L 562.909091 60.291714 
L 560.895657 59.087247 
L 559.636364 58.457724 
L 556.363636 58.399483 
L 554.449042 59.087247 
L 553.090909 59.311468 
L 552.181841 59.087247 
L 549.818182 57.819571 
L 546.545455 57.40499 
L 543.272727 56.696733 
L 540.38938 55.804622 
L 540 55.643242 
L 536.727273 54.176947 
L 533.454545 52.708745 
L 533.118971 52.521997 
L 530.181818 51.17487 
L 526.909091 50.046305 
L 525.591203 49.239372 
L 523.636364 48.499829 
L 520.363636 48.78681 
L 518.441802 49.239372 
L 517.090909 49.316576 
L 516.815823 49.239372 
L 513.818182 47.787423 
L 510.545455 47.479575 
L 507.272727 46.561075 
L 505.648609 45.956748 
L 504 45.260141 
L 500.727273 43.838257 
L 498.146583 42.674123 
L 497.454545 42.293734 
L 494.181818 40.930588 
L 490.909091 39.440864 
L 490.796041 39.391498 
L 487.636364 38.686984 
L 484.525943 39.391498 
L 484.363636 39.423339 
L 483.930439 39.391498 
L 481.090909 38.745319 
L 477.818182 37.809059 
L 474.545455 37.392809 
L 471.272727 36.474572 
L 470.345518 36.108873 
L 468 35.142455 
L 464.727273 33.67431 
L 462.836808 32.826248 
L 461.454545 32.147111 
L 458.181818 30.947301 
L 455.519315 29.543623 
L 454.909091 29.204876 
L 451.636364 28.841047 
L 448.983671 29.543623 
L 448.363636 29.650983 
L 447.740834 29.543623 
L 445.090909 28.379848 
L 441.818182 27.837772 
L 438.545455 27.309536 
L 435.272727 26.391127 
L 434.952346 26.260999 
L 432 25.01137 
L 428.727273 23.561345 
L 427.423636 22.978374 
L 425.454545 22.100913 
L 422.181818 20.974172 
L 420.034302 19.695749 
L 418.909091 19.133637 
L 415.636364 19.07584 
L 413.70017 19.695749 
L 412.363636 19.904552 
L 411.522918 19.695749 
L 409.090909 18.338925 
L 405.818182 17.943854 
L 402.545455 17.277228 
L 399.47292 16.413124 
L 399.272727 16.335321 
L 396 14.938363 
L 392.727273 13.538932 
L 391.905866 13.130499 
L 389.454545 12.048059 
L 386.181818 11.015567 
L 384.471953 9.847874 
L 382.909091 9.134949 
L 379.636364 9.397199 
L 378.063559 9.847874 
L 376.363636 10.033155 
L 375.700738 9.847874 
L 373.090909 8.414473 
L 369.818182 8.09427 
L 366.545455 7.288968 
L 363.973841 6.56525 
L 363.272727 6.316944 
L 360 4.902848 
L 356.727273 3.49032 
L 356.3612 3.282625 
L 353.454545 1.988399 
L 350.181818 0.968729 
L 348.688884 0 
L 347.398787 0 
L 350.181818 1.805841 
L 353.454545 2.447405 
L 355.330335 3.282625 
L 356.727273 4.075191 
L 360 5.361854 
L 362.702662 6.56525 
L 363.272727 6.823373 
L 366.545455 7.730377 
L 369.818182 8.565057 
L 373.090909 9.281864 
L 374.121458 9.847874 
L 376.363636 10.474565 
L 379.636364 10.288537 
L 381.490688 9.847874 
L 382.909091 9.620641 
L 383.407227 9.847874 
L 386.181818 11.742684 
L 389.454545 12.518215 
L 390.84114 13.130499 
L 392.727273 14.068351 
L 396 15.408519 
L 398.321542 16.413124 
L 399.272727 16.808939 
L 402.545455 17.729345 
L 405.818182 18.472559 
L 409.090909 19.400777 
L 409.619624 19.695749 
L 412.363636 20.377259 
L 415.636364 20.00463 
L 418.627639 19.695749 
L 418.909091 19.677328 
L 418.945966 19.695749 
L 422.181818 21.622062 
L 425.454545 22.585895 
L 426.335299 22.978374 
L 428.727273 24.048036 
L 432 25.494851 
L 433.810085 26.260999 
L 435.272727 26.855075 
L 438.545455 27.773484 
L 441.818182 28.439307 
L 444.8533 29.543623 
L 445.090909 29.614102 
L 448.363636 30.184448 
L 451.636364 29.690264 
L 454.909091 30.411796 
L 458.181818 31.519976 
L 461.454545 32.680813 
L 461.750554 32.826248 
L 464.727273 34.161603 
L 468 35.629748 
L 469.162847 36.108873 
L 471.272727 36.941027 
L 474.545455 37.859264 
L 477.818182 38.492233 
L 480.006553 39.391498 
L 481.090909 39.695739 
L 484.363636 40.02349 
L 487.585208 39.391498 
L 487.636364 39.379911 
L 487.68833 39.391498 
L 490.909091 40.797924 
L 494.181818 41.43562 
L 497.032287 42.674123 
L 497.454545 42.959315 
L 500.727273 44.32854 
L 504 45.791975 
L 504.389955 45.956748 
L 507.272727 47.029415 
L 510.545455 47.947915 
L 513.818182 48.595706 
L 515.147073 49.239372 
L 517.090909 49.784916 
L 520.363636 49.779931 
L 522.66778 49.239372 
L 523.636364 49.059333 
L 524.112263 49.239372 
L 526.909091 50.95185 
L 530.181818 51.662423 
L 532.055956 52.521997 
L 533.454545 53.300313 
L 536.727273 54.6645 
L 539.213091 55.804622 
L 540 56.158315 
L 543.272727 57.160563 
L 546.545455 57.9344 
L 549.818182 58.874778 
L 550.214342 59.087247 
L 549.818182 59.193276 
L 548.254931 62.369872 
L 549.818182 63.93785 
L 551.559953 62.369872 
L 553.090909 59.796751 
L 556.363636 59.398694 
L 558.587527 59.087247 
L 559.636364 58.998352 
L 559.814189 59.087247 
L 562.909091 60.938665 
L 566.181818 61.993323 
L 567.003905 62.369872 
L 569.454545 63.488766 
L 572.727273 64.983003 
L 574.357663 65.652497 
z
M 548.514072 62.369872 
L 549.818182 59.719861 
L 551.271219 62.369872 
L 549.818182 63.677926 
z
M 340.363636 4.919461 
L 342.295346 3.282625 
L 343.636364 0.459396 
L 345.788665 0 
L 343.636364 0 
L 340.363636 0 
L 338.958981 0 
L 338.731736 3.282625 
z
M 338.984551 3.282625 
L 340.363636 0.060156 
L 341.996084 3.282625 
L 340.363636 4.665881 
z
" clip-path="url(#p6086b9dcc0)" style="fill: #dfecf7; fill-opacity: 0.9"/>
    <path d="M 556.363636 66.954782 
L 557.661995 65.652497 
L 556.363636 63.887297 
L 555.059526 65.652497 
z
M 555.318667 65.652497 
L 556.363636 64.238061 
L 557.403997 65.652497 
L 556.363636 66.696004 
z
M 576 65.824132 
L 576 65.652497 
L 576 65.18389 
L 572.727273 63.995466 
L 569.454545 62.50123 
L 569.166841 62.369872 
L 566.181818 61.002612 
L 562.909091 59.644763 
L 561.977125 59.087247 
L 559.636364 57.917097 
L 556.363636 57.343584 
L 553.492511 55.804622 
L 553.090909 55.643446 
L 552.491658 55.804622 
L 549.818182 56.764363 
L 546.545455 56.875579 
L 543.272727 56.232902 
L 541.888503 55.804622 
L 540 55.021926 
L 536.727273 53.689395 
L 534.181986 52.521997 
L 533.454545 52.0416 
L 530.181818 50.687318 
L 527.024851 49.239372 
L 526.909091 49.151479 
L 523.636364 47.940326 
L 520.363636 46.857032 
L 517.090909 46.532473 
L 513.818182 46.979141 
L 510.545455 47.011236 
L 507.272727 46.092735 
L 506.907263 45.956748 
L 504 44.728307 
L 500.727273 43.347973 
L 499.233459 42.674123 
L 497.454545 41.696316 
L 494.181818 40.425556 
L 491.95643 39.391498 
L 490.909091 38.734835 
L 487.636364 37.994056 
L 484.679401 36.108873 
L 484.363636 35.878488 
L 483.023346 36.108873 
L 481.090909 36.8872 
L 477.818182 37.125884 
L 474.545455 36.926354 
L 471.631836 36.108873 
L 471.272727 35.935256 
L 468 34.655162 
L 464.727273 33.187017 
L 463.923061 32.826248 
L 461.454545 31.613409 
L 458.181818 30.374626 
L 456.605568 29.543623 
L 454.909091 28.601876 
L 451.636364 28.025047 
L 448.981628 26.260999 
L 448.363636 25.884625 
L 446.81316 26.260999 
L 445.090909 27.020741 
L 441.818182 27.236237 
L 438.545455 26.845588 
L 436.462285 26.260999 
L 435.272727 25.749181 
L 432 24.52789 
L 428.727273 23.074654 
L 428.511972 22.978374 
L 425.454545 21.615931 
L 422.181818 20.326282 
L 421.122638 19.695749 
L 418.909091 18.589945 
L 415.636364 18.107084 
L 412.798568 16.413124 
L 412.363636 16.209307 
L 411.552743 16.413124 
L 409.090909 17.277073 
L 405.818182 17.415149 
L 402.545455 16.825112 
L 401.080531 16.413124 
L 399.272727 15.71054 
L 396 14.468208 
L 392.970592 13.130499 
L 392.727273 12.96125 
L 389.454545 11.577904 
L 386.181818 10.28845 
L 385.536679 9.847874 
L 382.909091 8.649257 
L 379.636364 8.23674 
L 376.363636 6.653744 
L 373.090909 7.547082 
L 369.818182 7.623484 
L 366.545455 6.847558 
L 365.542318 6.56525 
L 363.272727 5.761455 
L 360 4.443842 
L 357.392065 3.282625 
L 356.727273 2.86682 
L 353.454545 1.529393 
L 350.181818 0.131617 
L 349.97898 0 
L 348.688884 0 
L 350.181818 0.968729 
L 353.454545 1.988399 
L 356.3612 3.282625 
L 356.727273 3.49032 
L 360 4.902848 
L 363.272727 6.316944 
L 363.973841 6.56525 
L 366.545455 7.288968 
L 369.818182 8.09427 
L 373.090909 8.414473 
L 375.700738 9.847874 
L 376.363636 10.033155 
L 378.063559 9.847874 
L 379.636364 9.397199 
L 382.909091 9.134949 
L 384.471953 9.847874 
L 386.181818 11.015567 
L 389.454545 12.048059 
L 391.905866 13.130499 
L 392.727273 13.538932 
L 396 14.938363 
L 399.272727 16.335321 
L 399.47292 16.413124 
L 402.545455 17.277228 
L 405.818182 17.943854 
L 409.090909 18.338925 
L 411.522918 19.695749 
L 412.363636 19.904552 
L 413.70017 19.695749 
L 415.636364 19.07584 
L 418.909091 19.133637 
L 420.034302 19.695749 
L 422.181818 20.974172 
L 425.454545 22.100913 
L 427.423636 22.978374 
L 428.727273 23.561345 
L 432 25.01137 
L 434.952346 26.260999 
L 435.272727 26.391127 
L 438.545455 27.309536 
L 441.818182 27.837772 
L 445.090909 28.379848 
L 447.740834 29.543623 
L 448.363636 29.650983 
L 448.983671 29.543623 
L 451.636364 28.841047 
L 454.909091 29.204876 
L 455.519315 29.543623 
L 458.181818 30.947301 
L 461.454545 32.147111 
L 462.836808 32.826248 
L 464.727273 33.67431 
L 468 35.142455 
L 470.345518 36.108873 
L 471.272727 36.474572 
L 474.545455 37.392809 
L 477.818182 37.809059 
L 481.090909 38.745319 
L 483.930439 39.391498 
L 484.363636 39.423339 
L 484.525943 39.391498 
L 487.636364 38.686984 
L 490.796041 39.391498 
L 490.909091 39.440864 
L 494.181818 40.930588 
L 497.454545 42.293734 
L 498.146583 42.674123 
L 500.727273 43.838257 
L 504 45.260141 
L 505.648609 45.956748 
L 507.272727 46.561075 
L 510.545455 47.479575 
L 513.818182 47.787423 
L 516.815823 49.239372 
L 517.090909 49.316576 
L 518.441802 49.239372 
L 520.363636 48.78681 
L 523.636364 48.499829 
L 525.591203 49.239372 
L 526.909091 50.046305 
L 530.181818 51.17487 
L 533.118971 52.521997 
L 533.454545 52.708745 
L 536.727273 54.176947 
L 540 55.643242 
L 540.38938 55.804622 
L 543.272727 56.696733 
L 546.545455 57.40499 
L 549.818182 57.819571 
L 552.181841 59.087247 
L 553.090909 59.311468 
L 554.449042 59.087247 
L 556.363636 58.399483 
L 559.636364 58.457724 
L 560.895657 59.087247 
L 562.909091 60.291714 
L 566.181818 61.497968 
L 568.085373 62.369872 
L 569.454545 62.994998 
L 572.727273 64.489234 
L 575.560116 65.652497 
z
M 549.818182 63.677926 
L 551.271219 62.369872 
L 549.818182 59.719861 
L 548.514072 62.369872 
z
M 548.773212 62.369872 
L 549.818182 60.246446 
L 550.982485 62.369872 
L 549.818182 63.418002 
z
M 340.363636 4.665881 
L 341.996084 3.282625 
L 340.363636 0.060156 
L 338.984551 3.282625 
z
M 339.237366 3.282625 
L 340.363636 0.650902 
L 341.696822 3.282625 
L 340.363636 4.412301 
z
" clip-path="url(#p6086b9dcc0)" style="fill: #dae8f6; fill-opacity: 0.9"/>
    <path d="M 556.363636 66.696004 
L 557.403997 65.652497 
L 556.363636 64.238061 
L 555.318667 65.652497 
z
M 555.577807 65.652497 
L 556.363636 64.588824 
L 557.146 65.652497 
L 556.363636 66.437226 
z
M 549.818182 63.418002 
L 550.982485 62.369872 
L 549.818182 60.246446 
L 548.773212 62.369872 
z
M 549.032352 62.369872 
L 549.818182 60.773031 
L 550.693751 62.369872 
L 549.818182 63.158078 
z
M 569.454545 62.50123 
L 572.727273 63.995466 
L 576 65.18389 
L 576 64.44497 
L 572.727273 63.501698 
L 570.248309 62.369872 
L 569.454545 61.697432 
L 566.181818 60.507257 
L 563.059653 59.087247 
L 562.909091 58.937384 
L 559.636364 57.376469 
L 556.363636 56.287684 
L 555.462424 55.804622 
L 553.090909 54.852856 
L 549.818182 55.544949 
L 549.552247 55.804622 
L 546.545455 56.346169 
L 543.500849 55.804622 
L 543.272727 55.705844 
L 540 54.40061 
L 536.727273 53.201842 
L 535.245001 52.521997 
L 533.454545 51.33959 
L 530.181818 50.199765 
L 528.087866 49.239372 
L 526.909091 48.344364 
L 523.636364 47.380822 
L 520.930731 45.956748 
L 520.363636 45.450351 
L 517.090909 45.233492 
L 514.61553 45.956748 
L 513.818182 46.170858 
L 510.545455 46.542896 
L 508.456938 45.956748 
L 507.272727 45.286191 
L 504 44.196473 
L 500.727273 42.85769 
L 500.320336 42.674123 
L 497.454545 41.098898 
L 494.181818 39.920523 
L 493.043307 39.391498 
L 490.909091 38.053382 
L 487.636364 37.301128 
L 485.766277 36.108873 
L 484.363636 35.085489 
L 481.090909 35.467625 
L 479.313107 36.108873 
L 477.818182 36.44271 
L 474.545455 36.459899 
L 473.294348 36.108873 
L 471.272727 35.131484 
L 468 34.167869 
L 465.009315 32.826248 
L 464.727273 32.554311 
L 461.454545 31.079707 
L 458.181818 29.80195 
L 457.691822 29.543623 
L 454.909091 27.998875 
L 451.636364 27.209046 
L 450.209636 26.260999 
L 448.363636 25.136734 
L 445.090909 25.63528 
L 443.732215 26.260999 
L 441.818182 26.634702 
L 438.545455 26.38164 
L 438.115551 26.260999 
L 435.272727 25.037848 
L 432 24.044409 
L 429.600308 22.978374 
L 428.727273 22.27465 
L 425.454545 21.13095 
L 422.21118 19.695749 
L 422.181818 19.666542 
L 418.909091 18.046254 
L 415.636364 17.138329 
L 414.421469 16.413124 
L 412.363636 15.448784 
L 409.090909 16.055419 
L 408.52698 16.413124 
L 405.818182 16.886444 
L 402.840658 16.413124 
L 402.545455 16.289453 
L 399.272727 15.085758 
L 396 13.998052 
L 394.035318 13.130499 
L 392.727273 12.22064 
L 389.454545 11.107748 
L 386.601405 9.847874 
L 386.181818 9.49507 
L 382.909091 8.163565 
L 379.636364 7.07628 
L 378.624488 6.56525 
L 376.363636 5.821645 
L 373.477869 6.56525 
L 373.090909 6.67969 
L 369.818182 7.152697 
L 367.27894 6.56525 
L 366.545455 6.172513 
L 363.272727 5.205966 
L 360 3.984836 
L 358.42293 3.282625 
L 356.727273 2.222048 
L 353.454545 1.070387 
L 351.050603 -0 
L 350.181818 0 
L 349.97898 0 
L 350.181818 0.131617 
L 353.454545 1.529393 
L 356.727273 2.86682 
L 357.392065 3.282625 
L 360 4.443842 
L 363.272727 5.761455 
L 365.542318 6.56525 
L 366.545455 6.847558 
L 369.818182 7.623484 
L 373.090909 7.547082 
L 376.363636 6.653744 
L 379.636364 8.23674 
L 382.909091 8.649257 
L 385.536679 9.847874 
L 386.181818 10.28845 
L 389.454545 11.577904 
L 392.727273 12.96125 
L 392.970592 13.130499 
L 396 14.468208 
L 399.272727 15.71054 
L 401.080531 16.413124 
L 402.545455 16.825112 
L 405.818182 17.415149 
L 409.090909 17.277073 
L 411.552743 16.413124 
L 412.363636 16.209307 
L 412.798568 16.413124 
L 415.636364 18.107084 
L 418.909091 18.589945 
L 421.122638 19.695749 
L 422.181818 20.326282 
L 425.454545 21.615931 
L 428.511972 22.978374 
L 428.727273 23.074654 
L 432 24.52789 
L 435.272727 25.749181 
L 436.462285 26.260999 
L 438.545455 26.845588 
L 441.818182 27.236237 
L 445.090909 27.020741 
L 446.81316 26.260999 
L 448.363636 25.884625 
L 448.981628 26.260999 
L 451.636364 28.025047 
L 454.909091 28.601876 
L 456.605568 29.543623 
L 458.181818 30.374626 
L 461.454545 31.613409 
L 463.923061 32.826248 
L 464.727273 33.187017 
L 468 34.655162 
L 471.272727 35.935256 
L 471.631836 36.108873 
L 474.545455 36.926354 
L 477.818182 37.125884 
L 481.090909 36.8872 
L 483.023346 36.108873 
L 484.363636 35.878488 
L 484.679401 36.108873 
L 487.636364 37.994056 
L 490.909091 38.734835 
L 491.95643 39.391498 
L 494.181818 40.425556 
L 497.454545 41.696316 
L 499.233459 42.674123 
L 500.727273 43.347973 
L 504 44.728307 
L 506.907263 45.956748 
L 507.272727 46.092735 
L 510.545455 47.011236 
L 513.818182 46.979141 
L 517.090909 46.532473 
L 520.363636 46.857032 
L 523.636364 47.940326 
L 526.909091 49.151479 
L 527.024851 49.239372 
L 530.181818 50.687318 
L 533.454545 52.0416 
L 534.181986 52.521997 
L 536.727273 53.689395 
L 540 55.021926 
L 541.888503 55.804622 
L 543.272727 56.232902 
L 546.545455 56.875579 
L 549.818182 56.764363 
L 552.491658 55.804622 
L 553.090909 55.643446 
L 553.492511 55.804622 
L 556.363636 57.343584 
L 559.636364 57.917097 
L 561.977125 59.087247 
L 562.909091 59.644763 
L 566.181818 61.002612 
L 569.166841 62.369872 
z
M 340.363636 4.412301 
L 341.696822 3.282625 
L 340.363636 0.650902 
L 339.237366 3.282625 
z
M 339.490181 3.282625 
L 340.363636 1.241647 
L 341.397561 3.282625 
L 340.363636 4.158722 
z
" clip-path="url(#p6086b9dcc0)" style="fill: #d6e5f4; fill-opacity: 0.9"/>
    <path d="M 556.363636 66.437226 
L 557.146 65.652497 
L 556.363636 64.588824 
L 555.577807 65.652497 
z
M 555.836947 65.652497 
L 556.363636 64.939588 
L 556.888002 65.652497 
L 556.363636 66.178448 
z
M 549.818182 63.158078 
L 550.693751 62.369872 
L 549.818182 60.773031 
L 549.032352 62.369872 
z
M 549.291493 62.369872 
L 549.818182 61.299616 
L 550.405018 62.369872 
L 549.818182 62.898154 
z
M 572.727273 63.501698 
L 576 64.44497 
L 576 63.70605 
L 572.727273 63.00793 
L 571.329777 62.369872 
L 569.454545 60.781262 
L 566.181818 60.011902 
L 564.148787 59.087247 
L 562.909091 57.853309 
L 559.636364 56.835842 
L 557.088339 55.804622 
L 556.363636 55.084533 
L 553.090909 54.062265 
L 549.818182 52.674741 
L 546.612836 55.804622 
L 546.545455 55.816758 
L 546.477226 55.804622 
L 543.272727 54.41705 
L 540 53.779294 
L 536.727273 52.71429 
L 536.308016 52.521997 
L 533.454545 50.637581 
L 530.181818 49.712213 
L 529.150881 49.239372 
L 526.909091 47.537249 
L 523.636364 46.821318 
L 521.993746 45.956748 
L 520.363636 44.501115 
L 517.090909 44.354017 
L 514.396791 42.674123 
L 513.818182 42.088991 
L 512.583373 42.674123 
L 511.379833 45.956748 
L 510.545455 46.074556 
L 510.125688 45.956748 
L 507.272727 44.341264 
L 504 43.664639 
L 501.550163 42.674123 
L 500.727273 41.846477 
L 497.454545 40.50148 
L 494.181818 39.415491 
L 494.130183 39.391498 
L 490.909091 37.371929 
L 487.636364 36.608201 
L 486.853154 36.108873 
L 484.363636 34.292491 
L 481.090909 34.364157 
L 478.256096 32.826248 
L 477.818182 32.483139 
L 477.159536 32.826248 
L 474.545455 35.371703 
L 471.272727 34.327713 
L 468 33.680575 
L 466.095569 32.826248 
L 464.727273 31.506976 
L 461.454545 30.546005 
L 458.921983 29.543623 
L 458.181818 28.801885 
L 454.909091 27.395874 
L 451.636364 26.393046 
L 451.437644 26.260999 
L 448.363636 24.388843 
L 445.090909 24.216415 
L 442.103222 22.978374 
L 441.818182 22.839875 
L 441.561705 22.978374 
L 438.545455 24.847922 
L 435.272727 24.326516 
L 432 23.560928 
L 430.688644 22.978374 
L 428.727273 21.39738 
L 425.454545 20.645968 
L 423.307175 19.695749 
L 422.181818 18.576317 
L 418.909091 17.502563 
L 416.001203 16.413124 
L 415.636364 16.051175 
L 412.363636 14.688261 
L 409.090909 14.136154 
L 405.818182 15.228524 
L 402.545455 14.896094 
L 399.272727 14.460977 
L 396 13.527897 
L 395.100044 13.130499 
L 392.727273 11.480031 
L 389.454545 10.637592 
L 387.666131 9.847874 
L 386.181818 8.599809 
L 382.909091 7.677873 
L 380.278905 6.56525 
L 379.636364 5.932 
L 376.363636 5.065891 
L 373.090909 4.071965 
L 370.544952 6.56525 
L 369.818182 6.68191 
L 369.313919 6.56525 
L 366.545455 5.082907 
L 363.272727 4.650476 
L 360 3.52583 
L 359.453795 3.282625 
L 356.727273 1.577277 
L 353.454545 0.611381 
L 352.081468 0 
L 351.050603 -0 
L 353.454545 1.070387 
L 356.727273 2.222048 
L 358.42293 3.282625 
L 360 3.984836 
L 363.272727 5.205966 
L 366.545455 6.172513 
L 367.27894 6.56525 
L 369.818182 7.152697 
L 373.090909 6.67969 
L 373.477869 6.56525 
L 376.363636 5.821645 
L 378.624488 6.56525 
L 379.636364 7.07628 
L 382.909091 8.163565 
L 386.181818 9.49507 
L 386.601405 9.847874 
L 389.454545 11.107748 
L 392.727273 12.22064 
L 394.035318 13.130499 
L 396 13.998052 
L 399.272727 15.085758 
L 402.545455 16.289453 
L 402.840658 16.413124 
L 405.818182 16.886444 
L 408.52698 16.413124 
L 409.090909 16.055419 
L 412.363636 15.448784 
L 414.421469 16.413124 
L 415.636364 17.138329 
L 418.909091 18.046254 
L 422.181818 19.666542 
L 422.21118 19.695749 
L 425.454545 21.13095 
L 428.727273 22.27465 
L 429.600308 22.978374 
L 432 24.044409 
L 435.272727 25.037848 
L 438.115551 26.260999 
L 438.545455 26.38164 
L 441.818182 26.634702 
L 443.732215 26.260999 
L 445.090909 25.63528 
L 448.363636 25.136734 
L 450.209636 26.260999 
L 451.636364 27.209046 
L 454.909091 27.998875 
L 457.691822 29.543623 
L 458.181818 29.80195 
L 461.454545 31.079707 
L 464.727273 32.554311 
L 465.009315 32.826248 
L 468 34.167869 
L 471.272727 35.131484 
L 473.294348 36.108873 
L 474.545455 36.459899 
L 477.818182 36.44271 
L 479.313107 36.108873 
L 481.090909 35.467625 
L 484.363636 35.085489 
L 485.766277 36.108873 
L 487.636364 37.301128 
L 490.909091 38.053382 
L 493.043307 39.391498 
L 494.181818 39.920523 
L 497.454545 41.098898 
L 500.320336 42.674123 
L 500.727273 42.85769 
L 504 44.196473 
L 507.272727 45.286191 
L 508.456938 45.956748 
L 510.545455 46.542896 
L 513.818182 46.170858 
L 514.61553 45.956748 
L 517.090909 45.233492 
L 520.363636 45.450351 
L 520.930731 45.956748 
L 523.636364 47.380822 
L 526.909091 48.344364 
L 528.087866 49.239372 
L 530.181818 50.199765 
L 533.454545 51.33959 
L 535.245001 52.521997 
L 536.727273 53.201842 
L 540 54.40061 
L 543.272727 55.705844 
L 543.500849 55.804622 
L 546.545455 56.346169 
L 549.552247 55.804622 
L 549.818182 55.544949 
L 553.090909 54.852856 
L 555.462424 55.804622 
L 556.363636 56.287684 
L 559.636364 57.376469 
L 562.909091 58.937384 
L 563.059653 59.087247 
L 566.181818 60.507257 
L 569.454545 61.697432 
L 570.248309 62.369872 
z
M 340.363636 4.158722 
L 341.397561 3.282625 
L 340.363636 1.241647 
L 339.490181 3.282625 
z
M 339.742996 3.282625 
L 340.363636 1.832393 
L 341.098299 3.282625 
L 340.363636 3.905142 
z
" clip-path="url(#p6086b9dcc0)" style="fill: #d0e2f2; fill-opacity: 0.9"/>
    <path d="M 556.363636 66.178448 
L 556.888002 65.652497 
L 556.363636 64.939588 
L 555.836947 65.652497 
z
M 556.096088 65.652497 
L 556.363636 65.290352 
L 556.630005 65.652497 
L 556.363636 65.919671 
z
M 549.818182 62.898154 
L 550.405018 62.369872 
L 549.818182 61.299616 
L 549.291493 62.369872 
z
M 549.550633 62.369872 
L 549.818182 61.826201 
L 550.116284 62.369872 
L 549.818182 62.638229 
z
M 572.727273 63.00793 
L 576 63.70605 
L 576 62.96713 
L 572.727273 62.514161 
L 572.411245 62.369872 
L 569.454545 59.865093 
L 566.181818 59.516546 
L 565.237921 59.087247 
L 562.909091 56.769234 
L 559.636364 56.295214 
L 558.424167 55.804622 
L 556.363636 53.757209 
L 553.090909 53.271675 
L 551.453279 52.521997 
L 549.818182 50.901751 
L 546.545455 51.228715 
L 544.655453 52.521997 
L 543.272727 53.128257 
L 540 53.157978 
L 537.943792 52.521997 
L 536.727273 51.284335 
L 533.454545 49.935571 
L 530.27846 49.239372 
L 530.181818 49.140385 
L 526.909091 46.730133 
L 523.636364 46.261814 
L 523.056761 45.956748 
L 520.363636 43.551878 
L 517.090909 43.474541 
L 515.807243 42.674123 
L 513.818182 40.662638 
L 510.545455 41.79033 
L 509.573327 42.674123 
L 507.272727 43.396337 
L 504 43.132805 
L 502.865545 42.674123 
L 500.727273 40.523494 
L 497.454545 39.904061 
L 495.90362 39.391498 
L 494.181818 37.652884 
L 490.909091 36.690476 
L 488.443501 36.108873 
L 487.636364 35.290228 
L 484.363636 33.499493 
L 481.090909 33.260688 
L 480.290109 32.826248 
L 477.818182 30.889471 
L 474.545455 32.347641 
L 474.075573 32.826248 
L 471.272727 33.523942 
L 468 33.193282 
L 467.181823 32.826248 
L 464.727273 30.459641 
L 461.454545 30.012303 
L 460.270406 29.543623 
L 458.181818 27.450597 
L 454.909091 26.792874 
L 453.230996 26.260999 
L 451.636364 24.663566 
L 448.363636 23.640952 
L 445.50249 22.978374 
L 445.090909 22.566433 
L 441.818182 21.176148 
L 438.545455 22.864307 
L 438.47045 22.978374 
L 435.272727 23.615183 
L 432 23.077448 
L 431.77698 22.978374 
L 428.727273 20.52011 
L 425.454545 20.160986 
L 424.40317 19.695749 
L 422.181818 17.486092 
L 418.909091 16.958872 
L 417.452402 16.413124 
L 415.636364 14.611472 
L 412.363636 13.927738 
L 410.112944 13.130499 
L 409.090909 12.121838 
L 405.818182 11.728686 
L 403.35379 13.130499 
L 402.545455 13.502736 
L 399.272727 13.836195 
L 396.394363 13.130499 
L 396 12.747394 
L 392.727273 10.739422 
L 389.454545 10.167437 
L 388.730857 9.847874 
L 386.181818 7.704549 
L 382.909091 7.192181 
L 381.427057 6.56525 
L 379.636364 4.800453 
L 376.363636 4.310137 
L 374.229322 3.282625 
L 373.090909 2.167813 
L 369.818182 2.478228 
L 368.458399 3.282625 
L 366.545455 3.993301 
L 363.272727 4.094987 
L 360.796176 3.282625 
L 360 2.478925 
L 356.727273 0.932505 
L 353.454545 0.152374 
L 353.112334 0 
L 352.081468 0 
L 353.454545 0.611381 
L 356.727273 1.577277 
L 359.453795 3.282625 
L 360 3.52583 
L 363.272727 4.650476 
L 366.545455 5.082907 
L 369.313919 6.56525 
L 369.818182 6.68191 
L 370.544952 6.56525 
L 373.090909 4.071965 
L 376.363636 5.065891 
L 379.636364 5.932 
L 380.278905 6.56525 
L 382.909091 7.677873 
L 386.181818 8.599809 
L 387.666131 9.847874 
L 389.454545 10.637592 
L 392.727273 11.480031 
L 395.100044 13.130499 
L 396 13.527897 
L 399.272727 14.460977 
L 402.545455 14.896094 
L 405.818182 15.228524 
L 409.090909 14.136154 
L 412.363636 14.688261 
L 415.636364 16.051175 
L 416.001203 16.413124 
L 418.909091 17.502563 
L 422.181818 18.576317 
L 423.307175 19.695749 
L 425.454545 20.645968 
L 428.727273 21.39738 
L 430.688644 22.978374 
L 432 23.560928 
L 435.272727 24.326516 
L 438.545455 24.847922 
L 441.561705 22.978374 
L 441.818182 22.839875 
L 442.103222 22.978374 
L 445.090909 24.216415 
L 448.363636 24.388843 
L 451.437644 26.260999 
L 451.636364 26.393046 
L 454.909091 27.395874 
L 458.181818 28.801885 
L 458.921983 29.543623 
L 461.454545 30.546005 
L 464.727273 31.506976 
L 466.095569 32.826248 
L 468 33.680575 
L 471.272727 34.327713 
L 474.545455 35.371703 
L 477.159536 32.826248 
L 477.818182 32.483139 
L 478.256096 32.826248 
L 481.090909 34.364157 
L 484.363636 34.292491 
L 486.853154 36.108873 
L 487.636364 36.608201 
L 490.909091 37.371929 
L 494.130183 39.391498 
L 494.181818 39.415491 
L 497.454545 40.50148 
L 500.727273 41.846477 
L 501.550163 42.674123 
L 504 43.664639 
L 507.272727 44.341264 
L 510.125688 45.956748 
L 510.545455 46.074556 
L 511.379833 45.956748 
L 512.583373 42.674123 
L 513.818182 42.088991 
L 514.396791 42.674123 
L 517.090909 44.354017 
L 520.363636 44.501115 
L 521.993746 45.956748 
L 523.636364 46.821318 
L 526.909091 47.537249 
L 529.150881 49.239372 
L 530.181818 49.712213 
L 533.454545 50.637581 
L 536.308016 52.521997 
L 536.727273 52.71429 
L 540 53.779294 
L 543.272727 54.41705 
L 546.477226 55.804622 
L 546.545455 55.816758 
L 546.612836 55.804622 
L 549.818182 52.674741 
L 553.090909 54.062265 
L 556.363636 55.084533 
L 557.088339 55.804622 
L 559.636364 56.835842 
L 562.909091 57.853309 
L 564.148787 59.087247 
L 566.181818 60.011902 
L 569.454545 60.781262 
L 571.329777 62.369872 
z
M 340.363636 3.905142 
L 341.098299 3.282625 
L 340.363636 1.832393 
L 339.742996 3.282625 
z
M 339.995811 3.282625 
L 340.363636 2.423138 
L 340.799038 3.282625 
L 340.363636 3.651563 
z
" clip-path="url(#p6086b9dcc0)" style="fill: #cbdef1; fill-opacity: 0.9"/>
    <path d="M 556.363636 65.919671 
L 556.630005 65.652497 
L 556.363636 65.290352 
L 556.096088 65.652497 
z
M 556.355228 65.652497 
L 556.363636 65.641116 
L 556.372007 65.652497 
L 556.363636 65.660893 
z
M 549.818182 62.638229 
L 550.116284 62.369872 
L 549.818182 61.826201 
L 549.550633 62.369872 
z
M 549.809774 62.369872 
L 549.818182 62.352786 
L 549.82755 62.369872 
L 549.818182 62.378305 
z
M 572.727273 62.514161 
L 576 62.96713 
L 576 62.369872 
L 576 59.087247 
L 576 55.804622 
L 576 52.521997 
L 576 49.239372 
L 576 45.956748 
L 576 42.674123 
L 576 39.391498 
L 576 36.108873 
L 576 32.826248 
L 576 29.543623 
L 576 26.260999 
L 576 22.978374 
L 576 19.695749 
L 576 16.413124 
L 576 13.130499 
L 576 9.847874 
L 576 6.56525 
L 576 3.282625 
L 576 0 
L 572.727273 0 
L 569.454545 0 
L 566.181818 0 
L 562.909091 0 
L 559.636364 0 
L 556.363636 0 
L 553.090909 0 
L 549.818182 0 
L 546.545455 0 
L 543.272727 0 
L 540 0 
L 536.727273 0 
L 533.454545 0 
L 530.181818 0 
L 526.909091 0 
L 523.636364 0 
L 520.363636 0 
L 517.090909 0 
L 513.818182 0 
L 510.545455 0 
L 507.272727 0 
L 504 0 
L 500.727273 0 
L 497.454545 0 
L 494.181818 0 
L 490.909091 0 
L 487.636364 0 
L 484.363636 0 
L 481.090909 0 
L 477.818182 0 
L 474.545455 0 
L 471.272727 0 
L 468 0 
L 464.727273 0 
L 461.454545 0 
L 458.181818 0 
L 454.909091 0 
L 451.636364 0 
L 448.363636 0 
L 445.090909 0 
L 441.818182 0 
L 438.545455 0 
L 435.272727 0 
L 432 0 
L 428.727273 0 
L 425.454545 0 
L 424.260942 0 
L 423.116826 3.282625 
L 422.229772 6.56525 
L 422.181818 6.739078 
L 421.326067 9.847874 
L 420.432597 13.130499 
L 419.540389 16.413124 
L 418.909091 16.415181 
L 418.903601 16.413124 
L 415.636364 13.171768 
L 412.363636 13.167216 
L 412.259982 13.130499 
L 409.090909 10.002895 
L 405.818182 10.007548 
L 405.251026 9.847874 
L 402.545455 7.25465 
L 400.052132 9.847874 
L 399.764225 13.130499 
L 399.272727 13.211414 
L 398.942696 13.130499 
L 396 10.271811 
L 392.727273 9.998813 
L 391.454648 9.847874 
L 389.454545 7.990843 
L 386.181818 6.809288 
L 382.909091 6.706489 
L 382.575208 6.56525 
L 379.636364 3.668905 
L 376.363636 3.554383 
L 375.79915 3.282625 
L 373.090909 0.630529 
L 369.818182 0.743224 
L 366.942782 0 
L 366.545455 0 
L 366.172265 0 
L 365.14067 3.282625 
L 363.272727 3.539498 
L 362.48963 3.282625 
L 360 0.769468 
L 356.727273 0.287734 
L 355.416594 0 
L 353.454545 0 
L 353.112334 0 
L 353.454545 0.152374 
L 356.727273 0.932505 
L 360 2.478925 
L 360.796176 3.282625 
L 363.272727 4.094987 
L 366.545455 3.993301 
L 368.458399 3.282625 
L 369.818182 2.478228 
L 373.090909 2.167813 
L 374.229322 3.282625 
L 376.363636 4.310137 
L 379.636364 4.800453 
L 381.427057 6.56525 
L 382.909091 7.192181 
L 386.181818 7.704549 
L 388.730857 9.847874 
L 389.454545 10.167437 
L 392.727273 10.739422 
L 396 12.747394 
L 396.394363 13.130499 
L 399.272727 13.836195 
L 402.545455 13.502736 
L 403.35379 13.130499 
L 405.818182 11.728686 
L 409.090909 12.121838 
L 410.112944 13.130499 
L 412.363636 13.927738 
L 415.636364 14.611472 
L 417.452402 16.413124 
L 418.909091 16.958872 
L 422.181818 17.486092 
L 424.40317 19.695749 
L 425.454545 20.160986 
L 428.727273 20.52011 
L 431.77698 22.978374 
L 432 23.077448 
L 435.272727 23.615183 
L 438.47045 22.978374 
L 438.545455 22.864307 
L 441.818182 21.176148 
L 445.090909 22.566433 
L 445.50249 22.978374 
L 448.363636 23.640952 
L 451.636364 24.663566 
L 453.230996 26.260999 
L 454.909091 26.792874 
L 458.181818 27.450597 
L 460.270406 29.543623 
L 461.454545 30.012303 
L 464.727273 30.459641 
L 467.181823 32.826248 
L 468 33.193282 
L 471.272727 33.523942 
L 474.075573 32.826248 
L 474.545455 32.347641 
L 477.818182 30.889471 
L 480.290109 32.826248 
L 481.090909 33.260688 
L 484.363636 33.499493 
L 487.636364 35.290228 
L 488.443501 36.108873 
L 490.909091 36.690476 
L 494.181818 37.652884 
L 495.90362 39.391498 
L 497.454545 39.904061 
L 500.727273 40.523494 
L 502.865545 42.674123 
L 504 43.132805 
L 507.272727 43.396337 
L 509.573327 42.674123 
L 510.545455 41.79033 
L 513.818182 40.662638 
L 515.807243 42.674123 
L 517.090909 43.474541 
L 520.363636 43.551878 
L 523.056761 45.956748 
L 523.636364 46.261814 
L 526.909091 46.730133 
L 530.181818 49.140385 
L 530.27846 49.239372 
L 533.454545 49.935571 
L 536.727273 51.284335 
L 537.943792 52.521997 
L 540 53.157978 
L 543.272727 53.128257 
L 544.655453 52.521997 
L 546.545455 51.228715 
L 549.818182 50.901751 
L 551.453279 52.521997 
L 553.090909 53.271675 
L 556.363636 53.757209 
L 558.424167 55.804622 
L 559.636364 56.295214 
L 562.909091 56.769234 
L 565.237921 59.087247 
L 566.181818 59.516546 
L 569.454545 59.865093 
L 572.411245 62.369872 
z
M 539.952588 52.521997 
L 536.727273 49.240627 
L 536.50123 49.239372 
L 536.727273 49.112498 
L 540 47.087776 
L 540.124232 49.239372 
L 540.139632 52.521997 
L 540 52.536662 
z
M 541.061594 45.956748 
L 542.085252 42.674123 
L 542.685467 39.391498 
L 543.272727 37.505571 
L 543.707907 36.108873 
L 544.728245 32.826248 
L 545.747792 29.543623 
L 546.545455 26.987527 
L 546.932697 26.260999 
L 549.818182 25.489101 
L 550.48347 26.260999 
L 550.651137 29.543623 
L 549.818182 32.223966 
L 549.346768 32.826248 
L 548.472852 36.108873 
L 547.584097 39.391498 
L 546.560976 42.674123 
L 546.545455 42.723728 
L 545.262846 45.956748 
L 543.272727 46.092689 
z
M 340.363636 3.651563 
L 340.799038 3.282625 
L 340.363636 2.423138 
L 339.995811 3.282625 
z
M 340.248626 3.282625 
L 340.363636 3.013884 
L 340.499776 3.282625 
L 340.363636 3.397983 
z
" clip-path="url(#p6086b9dcc0)" style="fill: #c6dbef; fill-opacity: 0.9"/>
    <path d="M 556.363636 65.660893 
L 556.372007 65.652497 
L 556.363636 65.641116 
L 556.355228 65.652497 
z
M 549.818182 62.378305 
L 549.82755 62.369872 
L 549.818182 62.352786 
L 549.809774 62.369872 
z
M 540 52.536662 
L 540.139632 52.521997 
L 540.124232 49.239372 
L 540 47.087776 
L 536.727273 49.112498 
L 536.50123 49.239372 
L 536.727273 49.240627 
L 539.952588 52.521997 
z
M 543.272727 46.092689 
L 545.262846 45.956748 
L 546.545455 42.723728 
L 546.560976 42.674123 
L 547.584097 39.391498 
L 548.472852 36.108873 
L 549.346768 32.826248 
L 549.818182 32.223966 
L 550.651137 29.543623 
L 550.48347 26.260999 
L 549.818182 25.489101 
L 546.932697 26.260999 
L 546.545455 26.987527 
L 545.747792 29.543623 
L 544.728245 32.826248 
L 543.707907 36.108873 
L 543.272727 37.505571 
L 542.685467 39.391498 
L 542.085252 42.674123 
L 541.061594 45.956748 
z
M 418.909091 16.415181 
L 419.540389 16.413124 
L 420.432597 13.130499 
L 421.326067 9.847874 
L 422.181818 6.739078 
L 422.229772 6.56525 
L 423.116826 3.282625 
L 424.260942 0 
L 422.181818 0 
L 418.909091 0 
L 415.636364 0 
L 412.363636 0 
L 409.090909 0 
L 405.818182 0 
L 402.545455 0 
L 399.272727 0 
L 396 0 
L 392.727273 0 
L 389.454545 0 
L 386.181818 0 
L 382.909091 0 
L 379.636364 0 
L 376.363636 0 
L 373.090909 0 
L 369.818182 0 
L 366.942782 0 
L 369.818182 0.743224 
L 373.090909 0.630529 
L 375.79915 3.282625 
L 376.363636 3.554383 
L 379.636364 3.668905 
L 382.575208 6.56525 
L 382.909091 6.706489 
L 386.181818 6.809288 
L 389.454545 7.990843 
L 391.454648 9.847874 
L 392.727273 9.998813 
L 396 10.271811 
L 398.942696 13.130499 
L 399.272727 13.211414 
L 399.764225 13.130499 
L 400.052132 9.847874 
L 402.545455 7.25465 
L 405.251026 9.847874 
L 405.818182 10.007548 
L 409.090909 10.002895 
L 412.259982 13.130499 
L 412.363636 13.167216 
L 415.636364 13.171768 
L 418.903601 16.413124 
z
M 340.363636 3.397983 
L 340.499776 3.282625 
L 340.363636 3.013884 
L 340.248626 3.282625 
z
M 363.272727 3.539498 
L 365.14067 3.282625 
L 366.172265 0 
L 363.272727 0 
L 360 0 
L 356.727273 0 
L 355.416594 0 
L 356.727273 0.287734 
L 360 0.769468 
L 362.48963 3.282625 
z
" clip-path="url(#p6086b9dcc0)" style="fill: #bed8ec; fill-opacity: 0.9"/>
    <path clip-path="url(#p6086b9dcc0)" style="fill: #b5d4e9; fill-opacity: 0.9"/>
    <path clip-path="url(#p6086b9dcc0)" style="fill: #add0e6; fill-opacity: 0.9"/>
    <path clip-path="url(#p6086b9dcc0)" style="fill: #a5cde3; fill-opacity: 0.9"/>
    <path clip-path="url(#p6086b9dcc0)" style="fill: #9cc9e1; fill-opacity: 0.9"/>
    <path clip-path="url(#p6086b9dcc0)" style="fill: #91c3de; fill-opacity: 0.9"/>
    <path clip-path="url(#p6086b9dcc0)" style="fill: #85bcdc; fill-opacity: 0.9"/>
    <path clip-path="url(#p6086b9dcc0)" style="fill: #7cb7da; fill-opacity: 0.9"/>
    <path clip-path="url(#p6086b9dcc0)" style="fill: #71b1d7; fill-opacity: 0.9"/>
    <path clip-path="url(#p6086b9dcc0)" style="fill: #66abd4; fill-opacity: 0.9"/>
    <path clip-path="url(#p6086b9dcc0)" style="fill: #5da5d1; fill-opacity: 0.9"/>
    <path clip-path="url(#p6086b9dcc0)" style="fill: #56a0ce; fill-opacity: 0.9"/>
    <path clip-path="url(#p6086b9dcc0)" style="fill: #4d99ca; fill-opacity: 0.9"/>
    <path clip-path="url(#p6086b9dcc0)" style="fill: #4493c7; fill-opacity: 0.9"/>
    <path clip-path="url(#p6086b9dcc0)" style="fill: #3c8cc3; fill-opacity: 0.9"/>
    <path clip-path="url(#p6086b9dcc0)" style="fill: #3686c0; fill-opacity: 0.9"/>
    <path clip-path="url(#p6086b9dcc0)" style="fill: #2f7fbc; fill-opacity: 0.9"/>
    <path clip-path="url(#p6086b9dcc0)" style="fill: #2777b8; fill-opacity: 0.9"/>
    <path clip-path="url(#p6086b9dcc0)" style="fill: #2070b4; fill-opacity: 0.9"/>
    <path clip-path="url(#p6086b9dcc0)" style="fill: #1c6ab0; fill-opacity: 0.9"/>
    <path clip-path="url(#p6086b9dcc0)" style="fill: #1663aa; fill-opacity: 0.9"/>
    <path clip-path="url(#p6086b9dcc0)" style="fill: #115ca5; fill-opacity: 0.9"/>
    <path clip-path="url(#p6086b9dcc0)" style="fill: #0c56a0; fill-opacity: 0.9"/>
    <path clip-path="url(#p6086b9dcc0)" style="fill: #084f99; fill-opacity: 0.9"/>
    <path clip-path="url(#p6086b9dcc0)" style="fill: #08488e; fill-opacity: 0.9"/>
    <path clip-path="url(#p6086b9dcc0)" style="fill: #084184; fill-opacity: 0.9"/>
    <path clip-path="url(#p6086b9dcc0)" style="fill: #083a7a; fill-opacity: 0.9"/>
    <path clip-path="url(#p6086b9dcc0)" style="fill: #083370; fill-opacity: 0.9"/>
    <path clip-path="url(#p6086b9dcc0)" style="fill: #08306b; fill-opacity: 0.9"/>
   </g>
   <g id="QuadContourSet_2">
    <path d="M 332.703338 0 
L 333.818182 0.730559 
L 337.090909 1.739029 
L 337.720476 3.282625 
L 340.363636 5.933779 
L 343.492392 3.282625 
L 343.636364 2.979523 
L 344.388745 3.282625 
L 346.909091 4.575692 
L 350.181818 4.839094 
L 353.454545 5.139068 
L 356.727273 6.414676 
L 357.242374 6.56525 
L 360 7.737997 
L 363.272727 8.690461 
L 366.545455 9.496015 
L 367.804341 9.847874 
L 369.818182 10.962691 
L 373.090909 11.733633 
L 376.363636 12.240203 
L 379.548949 13.130499 
L 379.636364 13.202176 
L 382.909091 14.612756 
L 386.181818 14.59878 
L 389.454545 15.423395 
L 392.727273 16.186029 
L 393.339715 16.413124 
L 396 17.788354 
L 399.272727 18.617406 
L 402.545455 19.537811 
L 403.107041 19.695749 
L 405.818182 20.992012 
L 409.090909 21.633222 
L 412.363636 22.268088 
L 414.779219 22.978374 
L 415.636364 23.539804 
L 418.909091 24.62568 
L 422.181818 24.382637 
L 425.454545 25.726861 
L 428.727273 25.9948 
L 429.331545 26.260999 
L 432 27.85772 
L 435.272727 28.710866 
L 438.240236 29.543623 
L 438.545455 29.765215 
L 441.818182 31.050522 
L 445.090909 31.575642 
L 448.363636 32.318312 
L 449.937782 32.826248 
L 451.636364 33.76515 
L 454.909091 34.534057 
L 458.181818 34.308122 
L 461.454545 36.015319 
L 464.614443 36.108873 
L 464.727273 36.113863 
L 468 37.883133 
L 471.272727 38.806847 
L 473.356506 39.391498 
L 474.545455 40.107263 
L 477.818182 41.070036 
L 481.090909 41.561559 
L 484.363636 42.424097 
L 484.966917 42.641876 
M 503.027234 47.51673 
L 504 47.88756 
L 507.272727 48.902773 
L 508.47207 49.239372 
L 510.545455 50.305372 
L 513.818182 51.056542 
L 517.090909 51.658274 
L 520.168457 52.521997 
L 520.363636 52.664168 
L 523.636364 53.981242 
L 526.909091 54.051708 
L 530.181818 54.784535 
L 533.454545 55.666587 
L 533.857554 55.804622 
L 536.727273 57.085477 
L 540 58.069493 
L 543.272727 59.015884 
L 543.527516 59.087247 
L 546.545455 60.440966 
L 547.21837 62.369872 
L 549.818182 64.977547 
L 552.714888 62.369872 
L 553.090909 61.737882 
L 555.247574 62.369872 
L 553.763824 65.652497 
L 556.363636 68.24867 
L 558.951982 65.652497 
L 559.636364 64.010418 
L 562.909091 63.754446 
L 566.181818 65.233135 
L 569.454545 65.463839 
L 569.867749 65.652497 
L 572.727273 67.291158 
L 576 68.170013 
" clip-path="url(#p6086b9dcc0)" style="fill: none"/>
    <path d="M 334.267249 0 
L 337.090909 1.119168 
L 337.973291 3.282625 
L 340.363636 5.6802 
L 343.19313 3.282625 
L 343.636364 2.349491 
L 345.952655 3.282625 
L 346.909091 3.773326 
L 350.181818 4.142955 
L 353.454545 4.287635 
L 356.727273 5.829805 
L 359.243178 6.56525 
L 360 6.887106 
L 363.272727 8.223689 
L 366.545455 9.054606 
L 369.38362 9.847874 
L 369.818182 10.088438 
L 373.090909 11.170292 
L 376.363636 11.798793 
L 379.636364 12.449917 
L 381.128228 13.130499 
L 382.909091 13.91609 
L 386.181818 13.896705 
L 389.454545 14.573449 
L 392.727273 15.65661 
L 394.767481 16.413124 
L 396 17.050272 
L 399.272727 18.165289 
L 402.545455 19.085695 
L 404.714653 19.695749 
L 405.818182 20.223373 
L 409.090909 21.112705 
L 412.363636 21.795381 
L 415.636364 22.577947 
L 416.386831 22.978374 
L 418.909091 23.984443 
L 422.181818 23.646098 
L 425.454545 24.865465 
L 428.727273 25.508109 
L 430.436336 26.260999 
L 432 27.196648 
L 435.272727 28.246918 
L 435.903774 28.424006 
M 454.293994 33.719152 
L 454.909091 33.920013 
L 458.181818 33.446066 
L 461.454545 35.159766 
L 464.727273 35.623483 
L 465.809285 36.108873 
L 468 37.294999 
L 471.272727 38.340392 
L 474.545455 39.258629 
L 475.019018 39.391498 
L 477.818182 40.444578 
L 481.090909 41.095104 
L 484.363636 41.823945 
L 486.718758 42.674123 
L 487.636364 43.112231 
L 490.909091 43.694974 
L 494.181818 43.254807 
L 497.454545 45.314462 
L 500.727273 45.799391 
L 501.076105 45.956748 
L 504 47.36433 
L 507.272727 48.434434 
L 510.140821 49.239372 
L 510.545455 49.447409 
L 513.818182 50.489325 
L 517.090909 51.189935 
L 520.363636 51.898426 
L 521.837208 52.521997 
L 523.636364 53.279056 
L 526.909091 53.376659 
L 530.181818 53.773101 
L 533.454545 55.075018 
L 535.584698 55.804622 
L 536.727273 56.314593 
L 540 57.591699 
L 543.272727 58.552054 
L 545.183544 59.087247 
L 546.545455 59.698142 
L 547.47751 62.369872 
L 549.818182 64.717622 
L 552.426154 62.369872 
L 553.090909 61.252599 
L 556.363636 62.078601 
L 556.903601 62.369872 
L 556.363636 62.484242 
L 554.022965 65.652497 
L 556.363636 67.989892 
L 558.693985 65.652497 
L 559.636364 63.391389 
L 562.909091 62.979974 
L 566.181818 64.349369 
L 569.454545 64.970071 
L 570.949217 65.652497 
L 572.727273 66.671419 
L 576 67.700837 
" clip-path="url(#p6086b9dcc0)" style="fill: none"/>
    <path d="M 335.83116 0 
L 337.090909 0.499306 
L 338.226106 3.282625 
L 340.363636 5.42662 
L 342.893869 3.282625 
L 343.636364 1.71946 
L 346.909091 2.647894 
L 348.945377 3.282625 
L 350.181818 3.446815 
L 353.454545 3.436201 
L 356.727273 5.244934 
L 360 6.279867 
L 360.640931 6.56525 
L 363.272727 7.756917 
L 366.545455 8.613196 
L 369.818182 9.506631 
L 370.9629 9.847874 
L 373.090909 10.606951 
L 376.363636 11.357384 
L 379.636364 11.729457 
L 382.707508 13.130499 
L 382.909091 13.219424 
L 386.181818 13.19463 
L 389.454545 13.723504 
L 392.727273 15.12719 
L 396 16.34883 
L 396.148577 16.413124 
L 399.272727 17.713173 
L 402.545455 18.633578 
L 405.818182 19.529968 
L 406.322264 19.695749 
L 409.090909 20.592189 
L 409.794669 20.74927 
M 428.162336 24.845803 
L 428.727273 25.021418 
L 431.541126 26.260999 
L 432 26.535575 
L 435.272727 27.78297 
L 438.545455 28.70138 
L 441.546768 29.543623 
L 441.818182 29.657933 
L 445.090909 30.594872 
L 448.363636 31.25138 
L 451.636364 31.800198 
L 453.451254 32.826248 
L 454.909091 33.305969 
L 457.316071 32.826248 
L 458.181818 32.665326 
L 458.639692 32.826248 
L 461.454545 34.304213 
L 464.727273 35.13619 
L 466.895539 36.108873 
L 468 36.706865 
L 471.272727 37.873937 
L 474.545455 38.792174 
L 476.681529 39.391498 
L 477.818182 39.819121 
L 481.090909 40.628649 
L 484.363636 41.223794 
L 487.636364 42.069183 
L 489.012582 42.674123 
L 490.909091 43.063827 
L 492.798043 42.674123 
L 494.181818 42.445685 
L 494.707578 42.674123 
L 497.454545 44.529413 
L 500.727273 45.309108 
L 502.162982 45.956748 
L 504 46.841101 
L 507.272727 47.966094 
L 510.545455 48.884594 
L 511.809572 49.239372 
L 513.818182 49.922109 
L 517.090909 50.721595 
L 520.363636 51.192261 
L 523.505959 52.521997 
L 523.636364 52.57687 
L 526.909091 52.70161 
L 530.181818 52.761667 
L 533.454545 54.48345 
L 536.727273 55.639605 
L 537.087061 55.804622 
L 540 57.113904 
L 543.272727 58.088224 
L 546.545455 58.993222 
L 546.839572 59.087247 
L 547.73665 62.369872 
L 549.818182 64.457698 
L 552.13742 62.369872 
L 553.090909 60.767317 
L 556.363636 61.185299 
L 558.559629 62.369872 
L 556.363636 62.835006 
L 554.282105 65.652497 
L 556.363636 67.731115 
L 558.435987 65.652497 
L 559.636364 62.772359 
L 562.103706 62.369872 
L 562.909091 62.232567 
L 563.38743 62.369872 
L 566.181818 63.465602 
L 569.454545 64.476303 
L 572.030685 65.652497 
L 572.727273 66.051679 
L 576 67.23166 
" clip-path="url(#p6086b9dcc0)" style="fill: none"/>
    <path d="M 337.39507 0 
L 338.478921 3.282625 
L 340.363636 5.17304 
L 342.594607 3.282625 
L 343.636364 1.089428 
L 346.909091 1.013814 
L 350.181818 2.642953 
L 353.454545 2.906411 
L 354.29947 3.282625 
L 356.727273 4.660062 
L 360 5.82086 
L 361.671797 6.56525 
L 363.272727 7.290145 
L 366.545455 8.171787 
L 369.818182 9.035844 
L 372.542179 9.847874 
L 373.090909 10.043611 
L 376.363636 10.915974 
L 379.636364 11.008997 
L 382.909091 11.091613 
L 386.181818 12.469801 
L 388.385696 12.819009 
M 406.393299 19.190406 
L 407.929875 19.695749 
L 409.090909 20.071672 
L 412.363636 20.849967 
L 415.636364 20.862403 
L 418.909091 21.965627 
L 422.181818 22.269952 
L 424.968455 22.978374 
L 425.454545 23.142671 
L 428.727273 24.534727 
L 432 25.978331 
L 432.667824 26.260999 
L 435.272727 27.319023 
L 438.545455 28.237432 
L 441.818182 29.040842 
L 443.200034 29.543623 
L 445.090909 30.104487 
L 448.363636 30.717914 
L 451.636364 30.745231 
L 454.909091 32.392881 
L 458.181818 32.092651 
L 460.269133 32.826248 
L 461.454545 33.44866 
L 464.727273 34.648897 
L 467.981793 36.108873 
L 468 36.118731 
L 471.272727 37.407482 
L 474.545455 38.325719 
L 477.818182 39.175407 
L 478.344041 39.391498 
L 481.090909 40.162194 
L 484.363636 40.623642 
L 487.636364 40.719052 
L 490.909091 42.154984 
L 494.181818 41.940653 
L 495.869932 42.674123 
L 497.454545 43.744364 
L 500.727273 44.818824 
L 503.249859 45.956748 
L 504 46.317871 
L 507.272727 47.497754 
L 510.545455 48.416255 
L 513.478322 49.239372 
L 513.818182 49.354892 
L 517.090909 50.253255 
L 520.363636 50.486096 
L 523.636364 50.630767 
L 526.909091 51.857394 
L 530.181818 52.149975 
L 530.992941 52.521997 
L 533.454545 53.891881 
L 536.727273 55.152052 
L 538.150076 55.804622 
L 540 56.63611 
L 543.272727 57.624393 
L 546.545455 58.463811 
L 548.495599 59.087247 
L 547.995791 62.369872 
L 549.818182 64.197774 
L 551.848686 62.369872 
L 553.090909 60.282034 
L 556.363636 60.291996 
L 559.636364 61.40116 
L 562.909091 61.585616 
L 565.641257 62.369872 
L 566.181818 62.581836 
L 569.454545 63.982535 
L 572.727273 65.476771 
L 573.15521 65.652497 
L 576 66.762484 
M 556.363636 67.472337 
L 558.17799 65.652497 
L 556.363636 63.185769 
L 554.541245 65.652497 
L 556.363636 67.472337 
z
" clip-path="url(#p6086b9dcc0)" style="fill: none"/>
    <path d="M 338.958981 0 
L 338.731736 3.282625 
L 340.363636 4.919461 
L 342.295346 3.282625 
L 343.636364 0.459396 
L 345.788665 0 
M 347.398787 0 
L 350.181818 1.805841 
L 353.454545 2.447405 
L 355.330335 3.282625 
L 356.727273 4.075191 
L 360 5.361854 
L 362.702662 6.56525 
L 363.272727 6.823373 
L 366.545455 7.730377 
L 369.818182 8.565057 
L 373.090909 9.281864 
L 374.121458 9.847874 
L 376.363636 10.474565 
L 379.636364 10.288537 
L 381.490688 9.847874 
L 382.909091 9.620641 
L 383.407227 9.847874 
L 386.181818 11.742684 
L 389.454545 12.518215 
L 390.84114 13.130499 
L 392.727273 14.068351 
L 396 15.408519 
L 398.321542 16.413124 
L 399.272727 16.808939 
L 402.545455 17.729345 
L 405.818182 18.472559 
L 409.090909 19.400777 
L 409.619624 19.695749 
L 412.363636 20.377259 
L 415.636364 20.00463 
L 418.627639 19.695749 
L 418.909091 19.677328 
L 418.945966 19.695749 
L 422.181818 21.622062 
L 425.454545 22.585895 
L 426.335299 22.978374 
L 428.727273 24.048036 
L 432 25.494851 
L 433.810085 26.260999 
L 435.272727 26.855075 
L 438.545455 27.773484 
L 441.818182 28.439307 
L 444.8533 29.543623 
L 445.090909 29.614102 
L 448.363636 30.184448 
L 451.636364 29.690264 
L 454.909091 30.411796 
L 458.181818 31.519976 
L 461.454545 32.680813 
L 461.750554 32.826248 
L 464.727273 34.161603 
L 468 35.629748 
L 469.162847 36.108873 
L 471.272727 36.941027 
L 474.545455 37.859264 
L 477.818182 38.492233 
L 480.006553 39.391498 
L 481.090909 39.695739 
L 484.363636 40.02349 
L 487.585208 39.391498 
L 487.636364 39.379911 
L 487.68833 39.391498 
L 490.909091 40.797924 
L 494.181818 41.43562 
L 497.032287 42.674123 
L 497.454545 42.959315 
L 500.727273 44.32854 
L 504 45.791975 
L 504.389955 45.956748 
L 507.272727 47.029415 
L 510.545455 47.947915 
L 513.818182 48.595706 
L 515.147073 49.239372 
L 517.090909 49.784916 
L 520.363636 49.779931 
L 522.66778 49.239372 
L 523.636364 49.059333 
L 524.112263 49.239372 
L 526.909091 50.95185 
L 530.181818 51.662423 
L 532.055956 52.521997 
L 533.454545 53.300313 
L 534.409983 53.698573 
M 548.975555 60.905531 
L 548.254931 62.369872 
L 549.818182 63.93785 
L 551.559953 62.369872 
L 553.090909 59.796751 
L 556.363636 59.398694 
L 558.587527 59.087247 
L 559.636364 58.998352 
L 559.814189 59.087247 
L 562.909091 60.938665 
L 566.181818 61.993323 
L 567.003905 62.369872 
L 569.454545 63.488766 
L 572.727273 64.983003 
L 574.357663 65.652497 
L 576 66.293308 
M 556.363636 67.213559 
L 557.919992 65.652497 
L 556.363636 63.536533 
L 554.800386 65.652497 
L 556.363636 67.213559 
z
" clip-path="url(#p6086b9dcc0)" style="fill: none"/>
    <path d="M 348.688884 0 
L 350.181818 0.968729 
L 351.1972 1.285087 
M 369.020097 7.89789 
L 369.818182 8.09427 
L 373.090909 8.414473 
L 375.700738 9.847874 
L 376.363636 10.033155 
L 378.063559 9.847874 
L 379.636364 9.397199 
L 382.909091 9.134949 
L 384.471953 9.847874 
L 386.181818 11.015567 
L 389.454545 12.048059 
L 391.905866 13.130499 
L 392.727273 13.538932 
L 396 14.938363 
L 399.272727 16.335321 
L 399.47292 16.413124 
L 402.545455 17.277228 
L 405.818182 17.943854 
L 409.090909 18.338925 
L 411.522918 19.695749 
L 412.363636 19.904552 
L 413.70017 19.695749 
L 415.636364 19.07584 
L 418.909091 19.133637 
L 420.034302 19.695749 
L 422.181818 20.974172 
L 425.454545 22.100913 
L 427.423636 22.978374 
L 428.727273 23.561345 
L 432 25.01137 
L 434.952346 26.260999 
L 435.272727 26.391127 
L 438.545455 27.309536 
L 441.818182 27.837772 
L 445.090909 28.379848 
L 447.740834 29.543623 
L 448.363636 29.650983 
L 448.983671 29.543623 
L 451.636364 28.841047 
L 454.909091 29.204876 
L 455.519315 29.543623 
L 458.181818 30.947301 
L 461.454545 32.147111 
L 462.836808 32.826248 
L 464.727273 33.67431 
L 468 35.142455 
L 470.345518 36.108873 
L 471.272727 36.474572 
L 474.545455 37.392809 
L 477.818182 37.809059 
L 481.090909 38.745319 
L 483.930439 39.391498 
L 484.363636 39.423339 
L 484.525943 39.391498 
L 487.636364 38.686984 
L 490.796041 39.391498 
L 490.909091 39.440864 
L 494.181818 40.930588 
L 497.454545 42.293734 
L 498.146583 42.674123 
L 500.727273 43.838257 
L 504 45.260141 
L 505.648609 45.956748 
L 507.272727 46.561075 
L 510.545455 47.479575 
L 513.818182 47.787423 
L 516.815823 49.239372 
L 517.090909 49.316576 
L 518.441802 49.239372 
L 520.363636 48.78681 
L 523.636364 48.499829 
L 525.591203 49.239372 
L 526.909091 50.046305 
L 530.181818 51.17487 
L 533.118971 52.521997 
L 533.454545 52.708745 
L 536.727273 54.176947 
L 540 55.643242 
L 540.38938 55.804622 
L 543.272727 56.696733 
L 546.545455 57.40499 
L 549.818182 57.819571 
L 552.181841 59.087247 
L 553.090909 59.311468 
L 554.449042 59.087247 
L 556.363636 58.399483 
L 559.636364 58.457724 
L 560.895657 59.087247 
L 562.909091 60.291714 
L 566.181818 61.497968 
L 568.085373 62.369872 
L 569.454545 62.994998 
L 572.727273 64.489234 
L 575.560116 65.652497 
L 576 65.824132 
M 556.363636 66.954782 
L 557.661995 65.652497 
L 556.363636 63.887297 
L 555.059526 65.652497 
L 556.363636 66.954782 
z
M 549.818182 63.677926 
L 551.271219 62.369872 
L 549.818182 59.719861 
L 548.514072 62.369872 
L 549.818182 63.677926 
z
M 340.363636 4.665881 
L 341.996084 3.282625 
L 340.363636 0.060156 
L 338.984551 3.282625 
L 340.363636 4.665881 
z
" clip-path="url(#p6086b9dcc0)" style="fill: none"/>
    <path d="M 349.97898 0 
L 350.181818 0.131617 
L 353.454545 1.529393 
L 356.727273 2.86682 
L 357.392065 3.282625 
L 360 4.443842 
L 363.272727 5.761455 
L 365.542318 6.56525 
L 366.545455 6.847558 
L 369.818182 7.623484 
L 373.090909 7.547082 
L 376.363636 6.653744 
L 379.636364 8.23674 
L 382.909091 8.649257 
L 385.536679 9.847874 
L 386.181818 10.28845 
L 389.454545 11.577904 
L 392.727273 12.96125 
L 392.970592 13.130499 
L 396 14.468208 
L 399.272727 15.71054 
L 401.080531 16.413124 
L 402.545455 16.825112 
L 405.818182 17.415149 
L 409.090909 17.277073 
L 411.552743 16.413124 
L 412.363636 16.209307 
L 412.798568 16.413124 
L 415.636364 18.107084 
L 418.909091 18.589945 
L 421.122638 19.695749 
L 422.181818 20.326282 
L 423.251176 20.747673 
M 441.103363 27.150912 
L 441.818182 27.236237 
L 445.090909 27.020741 
L 446.81316 26.260999 
L 448.363636 25.884625 
L 448.981628 26.260999 
L 451.636364 28.025047 
L 454.909091 28.601876 
L 456.605568 29.543623 
L 458.181818 30.374626 
L 461.454545 31.613409 
L 463.923061 32.826248 
L 464.727273 33.187017 
L 468 34.655162 
L 471.272727 35.935256 
L 471.631836 36.108873 
L 474.545455 36.926354 
L 477.818182 37.125884 
L 481.090909 36.8872 
L 483.023346 36.108873 
L 484.363636 35.878488 
L 484.679401 36.108873 
L 487.636364 37.994056 
L 490.909091 38.734835 
L 491.95643 39.391498 
L 494.181818 40.425556 
L 497.454545 41.696316 
L 499.233459 42.674123 
L 500.727273 43.347973 
L 504 44.728307 
L 506.907263 45.956748 
L 507.272727 46.092735 
L 510.545455 47.011236 
L 513.818182 46.979141 
L 517.090909 46.532473 
L 520.363636 46.857032 
L 523.636364 47.940326 
L 526.909091 49.151479 
L 527.024851 49.239372 
L 530.181818 50.687318 
L 533.454545 52.0416 
L 534.181986 52.521997 
L 536.727273 53.689395 
L 540 55.021926 
L 541.888503 55.804622 
L 543.272727 56.232902 
L 546.545455 56.875579 
L 549.818182 56.764363 
L 552.491658 55.804622 
L 553.090909 55.643446 
L 553.492511 55.804622 
L 556.363636 57.343584 
L 559.636364 57.917097 
L 561.977125 59.087247 
L 562.909091 59.644763 
L 566.181818 61.002612 
L 569.166841 62.369872 
L 569.454545 62.50123 
L 572.727273 63.995466 
L 576 65.18389 
M 556.363636 66.696004 
L 557.403997 65.652497 
L 556.363636 64.238061 
L 555.318667 65.652497 
L 556.363636 66.696004 
z
M 549.818182 63.418002 
L 550.982485 62.369872 
L 549.818182 60.246446 
L 548.773212 62.369872 
L 549.818182 63.418002 
z
M 340.363636 4.412301 
L 341.696822 3.282625 
L 340.363636 0.650902 
L 339.237366 3.282625 
L 340.363636 4.412301 
z
" clip-path="url(#p6086b9dcc0)" style="fill: none"/>
    <path d="M 351.050603 -0 
L 353.454545 1.070387 
L 356.727273 2.222048 
L 358.42293 3.282625 
L 360 3.984836 
L 363.272727 5.205966 
L 366.545455 6.172513 
L 367.27894 6.56525 
L 369.818182 7.152697 
L 373.090909 6.67969 
L 373.477869 6.56525 
L 376.363636 5.821645 
L 378.624488 6.56525 
L 379.636364 7.07628 
L 382.909091 8.163565 
L 386.181818 9.49507 
L 386.601405 9.847874 
L 389.454545 11.107748 
L 392.727273 12.22064 
L 394.035318 13.130499 
L 396 13.998052 
L 399.272727 15.085758 
L 402.545455 16.289453 
L 402.840658 16.413124 
L 405.818182 16.886444 
L 408.52698 16.413124 
L 409.090909 16.055419 
L 412.363636 15.448784 
L 414.421469 16.413124 
L 415.636364 17.138329 
L 418.909091 18.046254 
L 422.181818 19.666542 
L 422.21118 19.695749 
L 425.454545 21.13095 
L 428.727273 22.27465 
L 429.600308 22.978374 
L 432 24.044409 
L 435.272727 25.037848 
L 438.115551 26.260999 
L 438.545455 26.38164 
L 441.818182 26.634702 
L 443.732215 26.260999 
L 445.090909 25.63528 
L 448.363636 25.136734 
L 450.209636 26.260999 
L 451.636364 27.209046 
L 454.909091 27.998875 
L 457.691822 29.543623 
L 458.181818 29.80195 
L 461.454545 31.079707 
L 464.727273 32.554311 
L 465.009315 32.826248 
L 468 34.167869 
L 471.272727 35.131484 
L 473.294348 36.108873 
L 474.545455 36.459899 
L 477.818182 36.44271 
L 479.313107 36.108873 
L 481.090909 35.467625 
L 484.363636 35.085489 
L 485.766277 36.108873 
L 487.636364 37.301128 
L 490.909091 38.053382 
L 493.043307 39.391498 
L 494.181818 39.920523 
L 497.454545 41.098898 
L 500.320336 42.674123 
L 500.727273 42.85769 
L 504 44.196473 
L 507.272727 45.286191 
L 508.456938 45.956748 
L 510.545455 46.542896 
L 513.818182 46.170858 
L 514.61553 45.956748 
L 517.090909 45.233492 
L 520.363636 45.450351 
L 520.930731 45.956748 
L 523.636364 47.380822 
L 526.909091 48.344364 
L 528.087866 49.239372 
L 530.181818 50.199765 
L 533.454545 51.33959 
L 535.245001 52.521997 
L 536.727273 53.201842 
L 540 54.40061 
L 543.272727 55.705844 
L 543.500849 55.804622 
L 546.545455 56.346169 
L 549.552247 55.804622 
L 549.818182 55.544949 
L 553.090909 54.852856 
L 554.32796 55.349325 
M 571.686396 63.026462 
L 572.727273 63.501698 
L 576 64.44497 
M 556.363636 66.437226 
L 557.146 65.652497 
L 556.363636 64.588824 
L 555.577807 65.652497 
L 556.363636 66.437226 
z
M 549.818182 63.158078 
L 550.693751 62.369872 
L 549.818182 60.773031 
L 549.032352 62.369872 
L 549.818182 63.158078 
z
M 340.363636 4.158722 
L 341.397561 3.282625 
L 340.363636 1.241647 
L 339.490181 3.282625 
L 340.363636 4.158722 
z
" clip-path="url(#p6086b9dcc0)" style="fill: none"/>
    <path d="M 352.081468 0 
L 353.454545 0.611381 
L 356.727273 1.577277 
L 359.453795 3.282625 
L 360 3.52583 
L 363.272727 4.650476 
L 366.545455 5.082907 
L 369.313919 6.56525 
L 369.818182 6.68191 
L 370.544952 6.56525 
L 373.090909 4.071965 
L 376.363636 5.065891 
L 377.342576 5.324962 
M 394.584368 12.771802 
L 395.100044 13.130499 
L 396 13.527897 
L 399.272727 14.460977 
L 402.545455 14.896094 
L 405.818182 15.228524 
L 409.090909 14.136154 
L 412.363636 14.688261 
L 415.636364 16.051175 
L 416.001203 16.413124 
L 418.909091 17.502563 
L 422.181818 18.576317 
L 423.307175 19.695749 
L 425.454545 20.645968 
L 428.727273 21.39738 
L 430.688644 22.978374 
L 432 23.560928 
L 435.272727 24.326516 
L 438.545455 24.847922 
L 441.561705 22.978374 
L 441.818182 22.839875 
L 442.103222 22.978374 
L 445.090909 24.216415 
L 448.363636 24.388843 
L 451.437644 26.260999 
L 451.636364 26.393046 
L 454.909091 27.395874 
L 458.181818 28.801885 
L 458.921983 29.543623 
L 461.454545 30.546005 
L 464.727273 31.506976 
L 466.095569 32.826248 
L 468 33.680575 
L 471.272727 34.327713 
L 474.545455 35.371703 
L 477.159536 32.826248 
L 477.818182 32.483139 
L 478.256096 32.826248 
L 481.090909 34.364157 
L 484.363636 34.292491 
L 486.853154 36.108873 
L 487.636364 36.608201 
L 490.909091 37.371929 
L 494.130183 39.391498 
L 494.181818 39.415491 
L 497.454545 40.50148 
L 500.727273 41.846477 
L 501.550163 42.674123 
L 504 43.664639 
L 507.272727 44.341264 
L 510.125688 45.956748 
L 510.545455 46.074556 
L 511.379833 45.956748 
L 512.583373 42.674123 
L 513.818182 42.088991 
L 514.396791 42.674123 
L 517.090909 44.354017 
L 520.363636 44.501115 
L 521.993746 45.956748 
L 523.636364 46.821318 
L 526.909091 47.537249 
L 529.150881 49.239372 
L 530.181818 49.712213 
L 533.454545 50.637581 
L 536.308016 52.521997 
L 536.727273 52.71429 
L 540 53.779294 
L 543.272727 54.41705 
L 546.477226 55.804622 
L 546.545455 55.816758 
L 546.612836 55.804622 
L 549.818182 52.674741 
L 553.090909 54.062265 
L 556.363636 55.084533 
L 557.088339 55.804622 
L 559.636364 56.835842 
L 562.909091 57.853309 
L 564.148787 59.087247 
L 566.181818 60.011902 
L 569.454545 60.781262 
L 571.329777 62.369872 
L 572.727273 63.00793 
L 576 63.70605 
M 556.363636 66.178448 
L 556.888002 65.652497 
L 556.363636 64.939588 
L 555.836947 65.652497 
L 556.363636 66.178448 
z
M 549.818182 62.898154 
L 550.405018 62.369872 
L 549.818182 61.299616 
L 549.291493 62.369872 
L 549.818182 62.898154 
z
M 340.363636 3.905142 
L 341.098299 3.282625 
L 340.363636 1.832393 
L 339.742996 3.282625 
L 340.363636 3.905142 
z
" clip-path="url(#p6086b9dcc0)" style="fill: none"/>
    <path d="M 353.112334 0 
L 353.454545 0.152374 
L 356.727273 0.932505 
L 360 2.478925 
L 360.796176 3.282625 
L 363.272727 4.094987 
L 366.545455 3.993301 
L 368.458399 3.282625 
L 369.818182 2.478228 
L 373.090909 2.167813 
L 374.229322 3.282625 
L 376.363636 4.310137 
L 379.636364 4.800453 
L 381.427057 6.56525 
L 382.909091 7.192181 
L 386.181818 7.704549 
L 388.730857 9.847874 
L 389.454545 10.167437 
L 392.727273 10.739422 
L 396 12.747394 
L 396.394363 13.130499 
L 399.272727 13.836195 
L 402.545455 13.502736 
L 403.35379 13.130499 
L 405.818182 11.728686 
L 409.090909 12.121838 
L 410.112944 13.130499 
L 412.363636 13.927738 
L 415.636364 14.611472 
L 417.452402 16.413124 
L 418.909091 16.958872 
L 422.181818 17.486092 
L 424.40317 19.695749 
L 425.454545 20.160986 
L 428.727273 20.52011 
L 431.77698 22.978374 
L 432 23.077448 
L 435.272727 23.615183 
L 438.47045 22.978374 
L 438.545455 22.864307 
L 441.818182 21.176148 
L 445.090909 22.566433 
L 445.50249 22.978374 
L 448.363636 23.640952 
L 451.636364 24.663566 
L 453.230996 26.260999 
L 454.909091 26.792874 
L 458.181818 27.450597 
L 460.270406 29.543623 
L 461.454545 30.012303 
L 464.727273 30.459641 
L 465.895113 31.585639 
M 482.987118 33.399051 
L 484.363636 33.499493 
L 487.636364 35.290228 
L 488.443501 36.108873 
L 490.909091 36.690476 
L 494.181818 37.652884 
L 495.90362 39.391498 
L 497.454545 39.904061 
L 500.727273 40.523494 
L 502.865545 42.674123 
L 504 43.132805 
L 507.272727 43.396337 
L 509.573327 42.674123 
L 510.545455 41.79033 
L 513.818182 40.662638 
L 515.807243 42.674123 
L 517.090909 43.474541 
L 520.363636 43.551878 
L 523.056761 45.956748 
L 523.636364 46.261814 
L 526.909091 46.730133 
L 530.181818 49.140385 
L 530.27846 49.239372 
L 533.454545 49.935571 
L 536.727273 51.284335 
L 537.943792 52.521997 
L 540 53.157978 
L 543.272727 53.128257 
L 544.655453 52.521997 
L 546.545455 51.228715 
L 549.818182 50.901751 
L 551.453279 52.521997 
L 553.090909 53.271675 
L 556.363636 53.757209 
L 558.424167 55.804622 
L 559.636364 56.295214 
L 562.909091 56.769234 
L 565.237921 59.087247 
L 566.181818 59.516546 
L 569.454545 59.865093 
L 572.411245 62.369872 
L 572.727273 62.514161 
L 576 62.96713 
M 556.363636 65.919671 
L 556.630005 65.652497 
L 556.363636 65.290352 
L 556.096088 65.652497 
L 556.363636 65.919671 
z
M 549.818182 62.638229 
L 550.116284 62.369872 
L 549.818182 61.826201 
L 549.550633 62.369872 
L 549.818182 62.638229 
z
M 340.363636 3.651563 
L 340.799038 3.282625 
L 340.363636 2.423138 
L 339.995811 3.282625 
L 340.363636 3.651563 
z
" clip-path="url(#p6086b9dcc0)" style="fill: none"/>
    <path d="M 355.416594 0 
L 356.727273 0.287734 
L 360 0.769468 
L 362.48963 3.282625 
L 363.272727 3.539498 
L 365.14067 3.282625 
L 366.172265 0 
M 366.942782 0 
L 369.818182 0.743224 
L 373.090909 0.630529 
L 375.79915 3.282625 
L 376.363636 3.554383 
L 379.126265 3.651055 
M 401.228109 8.624779 
L 402.545455 7.25465 
L 405.251026 9.847874 
L 405.818182 10.007548 
L 409.090909 10.002895 
L 412.259982 13.130499 
L 412.363636 13.167216 
L 415.636364 13.171768 
L 418.903601 16.413124 
L 418.909091 16.415181 
L 419.540389 16.413124 
L 420.432597 13.130499 
L 421.326067 9.847874 
L 422.181818 6.739078 
L 422.229772 6.56525 
L 423.116826 3.282625 
L 424.260942 0 
M 556.363636 65.660893 
L 556.372007 65.652497 
L 556.363636 65.641116 
L 556.355228 65.652497 
L 556.363636 65.660893 
z
M 549.818182 62.378305 
L 549.82755 62.369872 
L 549.818182 62.352786 
L 549.809774 62.369872 
L 549.818182 62.378305 
z
M 540 52.536662 
L 540.139632 52.521997 
L 540.124232 49.239372 
L 540 47.087776 
L 536.727273 49.112498 
L 536.50123 49.239372 
L 536.727273 49.240627 
L 539.952588 52.521997 
L 540 52.536662 
z
M 543.272727 46.092689 
L 545.262846 45.956748 
L 546.545455 42.723728 
L 546.560976 42.674123 
L 547.584097 39.391498 
L 548.472852 36.108873 
L 549.346768 32.826248 
L 549.818182 32.223966 
L 550.651137 29.543623 
L 550.48347 26.260999 
L 549.818182 25.489101 
L 546.932697 26.260999 
L 546.545455 26.987527 
L 545.747792 29.543623 
L 544.728245 32.826248 
L 543.707907 36.108873 
L 543.272727 37.505571 
L 542.685467 39.391498 
L 542.085252 42.674123 
L 541.061594 45.956748 
L 543.272727 46.092689 
z
M 340.363636 3.397983 
L 340.499776 3.282625 
L 340.363636 3.013884 
L 340.248626 3.282625 
L 340.363636 3.397983 
z
" clip-path="url(#p6086b9dcc0)" style="fill: none"/>
    <path clip-path="url(#p6086b9dcc0)" style="fill: none"/>
    <path clip-path="url(#p6086b9dcc0)" style="fill: none"/>
    <path clip-path="url(#p6086b9dcc0)" style="fill: none"/>
    <path clip-path="url(#p6086b9dcc0)" style="fill: none"/>
    <path clip-path="url(#p6086b9dcc0)" style="fill: none"/>
    <path clip-path="url(#p6086b9dcc0)" style="fill: none"/>
    <path clip-path="url(#p6086b9dcc0)" style="fill: none"/>
    <path clip-path="url(#p6086b9dcc0)" style="fill: none"/>
    <path clip-path="url(#p6086b9dcc0)" style="fill: none"/>
    <path clip-path="url(#p6086b9dcc0)" style="fill: none"/>
    <path clip-path="url(#p6086b9dcc0)" style="fill: none"/>
    <path clip-path="url(#p6086b9dcc0)" style="fill: none"/>
    <path clip-path="url(#p6086b9dcc0)" style="fill: none"/>
    <path clip-path="url(#p6086b9dcc0)" style="fill: none"/>
    <path clip-path="url(#p6086b9dcc0)" style="fill: none"/>
    <path clip-path="url(#p6086b9dcc0)" style="fill: none"/>
    <path clip-path="url(#p6086b9dcc0)" style="fill: none"/>
    <path clip-path="url(#p6086b9dcc0)" style="fill: none"/>
    <path clip-path="url(#p6086b9dcc0)" style="fill: none"/>
    <path clip-path="url(#p6086b9dcc0)" style="fill: none"/>
    <path clip-path="url(#p6086b9dcc0)" style="fill: none"/>
    <path clip-path="url(#p6086b9dcc0)" style="fill: none"/>
    <path clip-path="url(#p6086b9dcc0)" style="fill: none"/>
    <path clip-path="url(#p6086b9dcc0)" style="fill: none"/>
    <path clip-path="url(#p6086b9dcc0)" style="fill: none"/>
    <path clip-path="url(#p6086b9dcc0)" style="fill: none"/>
    <path clip-path="url(#p6086b9dcc0)" style="fill: none"/>
    <path clip-path="url(#p6086b9dcc0)" style="fill: none"/>
   </g>
   <g id="text_1">
    <g clip-path="url(#p6086b9dcc0)">
     <!-- 0 -->
     <g style="opacity: 0" transform="translate(489.702735 46.655051) rotate(-346.645673) scale(0.12 -0.12)">
      <defs>
       <path id="DejaVuSans-30" d="M 2034 4250 
Q 1547 4250 1301 3770 
Q 1056 3291 1056 2328 
Q 1056 1369 1301 889 
Q 1547 409 2034 409 
Q 2525 409 2770 889 
Q 3016 1369 3016 2328 
Q 3016 3291 2770 3770 
Q 2525 4250 2034 4250 
z
M 2034 4750 
Q 2819 4750 3233 4129 
Q 3647 3509 3647 2328 
Q 3647 1150 3233 529 
Q 2819 -91 2034 -91 
Q 1250 -91 836 529 
Q 422 1150 422 2328 
Q 422 3509 836 4129 
Q 1250 4750 2034 4750 
z
" transform="scale(0.015625)"/>
      </defs>
      <use xlink:href="#DejaVuSans-30"/>
     </g>
    </g>
   </g>
   <g id="text_2">
    <g clip-path="url(#p6086b9dcc0)">
     <!-- 1 -->
     <g style="opacity: 0" transform="translate(440.553646 33.310326) rotate(-345.185337) scale(0.12 -0.12)">
      <defs>
       <path id="DejaVuSans-31" d="M 794 531 
L 1825 531 
L 1825 4091 
L 703 3866 
L 703 4441 
L 1819 4666 
L 2450 4666 
L 2450 531 
L 3481 531 
L 3481 0 
L 794 0 
L 794 531 
z
" transform="scale(0.015625)"/>
      </defs>
      <use xlink:href="#DejaVuSans-31"/>
     </g>
    </g>
   </g>
   <g id="text_3">
    <g clip-path="url(#p6086b9dcc0)">
     <!-- 2 -->
     <g style="opacity: 0" transform="translate(414.523708 25.8544) rotate(-348.858733) scale(0.12 -0.12)">
      <defs>
       <path id="DejaVuSans-32" d="M 1228 531 
L 3431 531 
L 3431 0 
L 469 0 
L 469 531 
Q 828 903 1448 1529 
Q 2069 2156 2228 2338 
Q 2531 2678 2651 2914 
Q 2772 3150 2772 3378 
Q 2772 3750 2511 3984 
Q 2250 4219 1831 4219 
Q 1534 4219 1204 4116 
Q 875 4013 500 3803 
L 500 4441 
Q 881 4594 1212 4672 
Q 1544 4750 1819 4750 
Q 2544 4750 2975 4387 
Q 3406 4025 3406 3419 
Q 3406 3131 3298 2873 
Q 3191 2616 2906 2266 
Q 2828 2175 2409 1742 
Q 1991 1309 1228 531 
z
" transform="scale(0.015625)"/>
      </defs>
      <use xlink:href="#DejaVuSans-32"/>
     </g>
    </g>
   </g>
   <g id="text_4">
    <g clip-path="url(#p6086b9dcc0)">
     <!-- 3 -->
     <g style="opacity: 0" transform="translate(392.506597 18.196191) rotate(-339.723129) scale(0.12 -0.12)">
      <defs>
       <path id="DejaVuSans-33" d="M 2597 2516 
Q 3050 2419 3304 2112 
Q 3559 1806 3559 1356 
Q 3559 666 3084 287 
Q 2609 -91 1734 -91 
Q 1441 -91 1130 -33 
Q 819 25 488 141 
L 488 750 
Q 750 597 1062 519 
Q 1375 441 1716 441 
Q 2309 441 2620 675 
Q 2931 909 2931 1356 
Q 2931 1769 2642 2001 
Q 2353 2234 1838 2234 
L 1294 2234 
L 1294 2753 
L 1863 2753 
Q 2328 2753 2575 2939 
Q 2822 3125 2822 3475 
Q 2822 3834 2567 4026 
Q 2313 4219 1838 4219 
Q 1578 4219 1281 4162 
Q 984 4106 628 3988 
L 628 4550 
Q 988 4650 1302 4700 
Q 1616 4750 1894 4750 
Q 2613 4750 3031 4423 
Q 3450 4097 3450 3541 
Q 3450 3153 3228 2886 
Q 3006 2619 2597 2516 
z
" transform="scale(0.015625)"/>
      </defs>
      <use xlink:href="#DejaVuSans-33"/>
     </g>
    </g>
   </g>
   <g id="text_5">
    <g clip-path="url(#p6086b9dcc0)">
     <!-- 4 -->
     <g style="opacity: 0" transform="translate(538.668952 59.244534) rotate(-343.416683) scale(0.12 -0.12)">
      <defs>
       <path id="DejaVuSans-34" d="M 2419 4116 
L 825 1625 
L 2419 1625 
L 2419 4116 
z
M 2253 4666 
L 3047 4666 
L 3047 1625 
L 3713 1625 
L 3713 1100 
L 3047 1100 
L 3047 0 
L 2419 0 
L 2419 1100 
L 313 1100 
L 313 1709 
L 2253 4666 
z
" transform="scale(0.015625)"/>
      </defs>
      <use xlink:href="#DejaVuSans-34"/>
     </g>
    </g>
   </g>
   <g id="text_6">
    <g clip-path="url(#p6086b9dcc0)">
     <!-- 5 -->
     <g style="opacity: 0" transform="translate(355.197355 6.475198) rotate(-337.190115) scale(0.12 -0.12)">
      <defs>
       <path id="DejaVuSans-35" d="M 691 4666 
L 3169 4666 
L 3169 4134 
L 1269 4134 
L 1269 2991 
Q 1406 3038 1543 3061 
Q 1681 3084 1819 3084 
Q 2600 3084 3056 2656 
Q 3513 2228 3513 1497 
Q 3513 744 3044 326 
Q 2575 -91 1722 -91 
Q 1428 -91 1123 -41 
Q 819 9 494 109 
L 494 744 
Q 775 591 1075 516 
Q 1375 441 1709 441 
Q 2250 441 2565 725 
Q 2881 1009 2881 1497 
Q 2881 1984 2565 2268 
Q 2250 2553 1709 2553 
Q 1456 2553 1204 2497 
Q 953 2441 691 2322 
L 691 4666 
z
" transform="scale(0.015625)"/>
      </defs>
      <use xlink:href="#DejaVuSans-35"/>
     </g>
    </g>
   </g>
   <g id="text_7">
    <g clip-path="url(#p6086b9dcc0)">
     <!-- 6 -->
     <g style="opacity: 0" transform="translate(427.208369 26.133491) rotate(-337.587264) scale(0.12 -0.12)">
      <defs>
       <path id="DejaVuSans-36" d="M 2113 2584 
Q 1688 2584 1439 2293 
Q 1191 2003 1191 1497 
Q 1191 994 1439 701 
Q 1688 409 2113 409 
Q 2538 409 2786 701 
Q 3034 994 3034 1497 
Q 3034 2003 2786 2293 
Q 2538 2584 2113 2584 
z
M 3366 4563 
L 3366 3988 
Q 3128 4100 2886 4159 
Q 2644 4219 2406 4219 
Q 1781 4219 1451 3797 
Q 1122 3375 1075 2522 
Q 1259 2794 1537 2939 
Q 1816 3084 2150 3084 
Q 2853 3084 3261 2657 
Q 3669 2231 3669 1497 
Q 3669 778 3244 343 
Q 2819 -91 2113 -91 
Q 1303 -91 875 529 
Q 447 1150 447 2328 
Q 447 3434 972 4092 
Q 1497 4750 2381 4750 
Q 2619 4750 2861 4703 
Q 3103 4656 3366 4563 
z
" transform="scale(0.015625)"/>
      </defs>
      <use xlink:href="#DejaVuSans-36"/>
     </g>
    </g>
   </g>
   <g id="text_8">
    <g clip-path="url(#p6086b9dcc0)">
     <!-- 7 -->
     <g style="opacity: 0" transform="translate(558.229812 60.573961) rotate(-336.171382) scale(0.12 -0.12)">
      <defs>
       <path id="DejaVuSans-37" d="M 525 4666 
L 3525 4666 
L 3525 4397 
L 1831 0 
L 1172 0 
L 2766 4134 
L 525 4134 
L 525 4666 
z
" transform="scale(0.015625)"/>
      </defs>
      <use xlink:href="#DejaVuSans-37"/>
     </g>
    </g>
   </g>
   <g id="text_9">
    <g clip-path="url(#p6086b9dcc0)">
     <!-- 8 -->
     <g style="opacity: 0" transform="translate(381.374778 10.15867) rotate(-337.029254) scale(0.12 -0.12)">
      <defs>
       <path id="DejaVuSans-38" d="M 2034 2216 
Q 1584 2216 1326 1975 
Q 1069 1734 1069 1313 
Q 1069 891 1326 650 
Q 1584 409 2034 409 
Q 2484 409 2743 651 
Q 3003 894 3003 1313 
Q 3003 1734 2745 1975 
Q 2488 2216 2034 2216 
z
M 1403 2484 
Q 997 2584 770 2862 
Q 544 3141 544 3541 
Q 544 4100 942 4425 
Q 1341 4750 2034 4750 
Q 2731 4750 3128 4425 
Q 3525 4100 3525 3541 
Q 3525 3141 3298 2862 
Q 3072 2584 2669 2484 
Q 3125 2378 3379 2068 
Q 3634 1759 3634 1313 
Q 3634 634 3220 271 
Q 2806 -91 2034 -91 
Q 1263 -91 848 271 
Q 434 634 434 1313 
Q 434 1759 690 2068 
Q 947 2378 1403 2484 
z
M 1172 3481 
Q 1172 3119 1398 2916 
Q 1625 2713 2034 2713 
Q 2441 2713 2670 2916 
Q 2900 3119 2900 3481 
Q 2900 3844 2670 4047 
Q 2441 4250 2034 4250 
Q 1625 4250 1398 4047 
Q 1172 3844 1172 3481 
z
" transform="scale(0.015625)"/>
      </defs>
      <use xlink:href="#DejaVuSans-38"/>
     </g>
    </g>
   </g>
   <g id="text_10">
    <g clip-path="url(#p6086b9dcc0)">
     <!-- 9 -->
     <g style="opacity: 0" transform="translate(471.413032 36.313194) rotate(-10.756561) scale(0.12 -0.12)">
      <defs>
       <path id="DejaVuSans-39" d="M 703 97 
L 703 672 
Q 941 559 1184 500 
Q 1428 441 1663 441 
Q 2288 441 2617 861 
Q 2947 1281 2994 2138 
Q 2813 1869 2534 1725 
Q 2256 1581 1919 1581 
Q 1219 1581 811 2004 
Q 403 2428 403 3163 
Q 403 3881 828 4315 
Q 1253 4750 1959 4750 
Q 2769 4750 3195 4129 
Q 3622 3509 3622 2328 
Q 3622 1225 3098 567 
Q 2575 -91 1691 -91 
Q 1453 -91 1209 -44 
Q 966 3 703 97 
z
M 1959 2075 
Q 2384 2075 2632 2365 
Q 2881 2656 2881 3163 
Q 2881 3666 2632 3958 
Q 2384 4250 1959 4250 
Q 1534 4250 1286 3958 
Q 1038 3666 1038 3163 
Q 1038 2656 1286 2365 
Q 1534 2075 1959 2075 
z
" transform="scale(0.015625)"/>
      </defs>
      <use xlink:href="#DejaVuSans-39"/>
     </g>
    </g>
   </g>
   <g id="text_11">
    <g clip-path="url(#p6086b9dcc0)">
     <!-- 10 -->
     <g style="opacity: 0" transform="translate(383.149259 10.37524) rotate(-340.187153) scale(0.12 -0.12)">
      <use xlink:href="#DejaVuSans-31"/>
      <use xlink:href="#DejaVuSans-30" transform="translate(63.623047 0)"/>
     </g>
    </g>
   </g>
  </g>
 </g>
 <defs>
  <clipPath id="p6086b9dcc0">
   <rect x="0" y="0" width="576" height="817.373583"/>
  </clipPath>
 </defs>
</svg>
