<?xml version="1.0" encoding="utf-8" standalone="no"?>
<!DOCTYPE svg PUBLIC "-//W3C//DTD SVG 1.1//EN"
  "http://www.w3.org/Graphics/SVG/1.1/DTD/svg11.dtd">
<svg xmlns:xlink="http://www.w3.org/1999/xlink" width="576pt" height="815.227542pt" viewBox="0 0 576 815.227542" xmlns="http://www.w3.org/2000/svg" version="1.1">
 <metadata>
  <rdf:RDF xmlns:dc="http://purl.org/dc/elements/1.1/" xmlns:cc="http://creativecommons.org/ns#" xmlns:rdf="http://www.w3.org/1999/02/22-rdf-syntax-ns#">
   <cc:Work>
    <dc:type rdf:resource="http://purl.org/dc/dcmitype/StillImage"/>
    <dc:date>2025-07-25T22:45:11.043118</dc:date>
    <dc:format>image/svg+xml</dc:format>
    <dc:creator>
     <cc:Agent>
      <dc:title>Matplotlib v3.10.3, https://matplotlib.org/</dc:title>
     </cc:Agent>
    </dc:creator>
   </cc:Work>
  </rdf:RDF>
 </metadata>
 <defs>
  <style type="text/css">*{stroke-linejoin: round; stroke-linecap: butt}</style>
 </defs>
 <g id="figure_1">
  <g id="patch_1">
   <path d="M 0 815.227542 
L 576 815.227542 
L 576 0 
L 0 0 
L 0 815.227542 
z
" style="fill: none; opacity: 0"/>
  </g>
  <g id="axes_1">
   <g id="QuadContourSet_1">
    <path d="M 160.363636 815.227542 
L 163.636364 815.227542 
L 164.305409 815.227542 
L 166.909091 814.810017 
L 170.181818 814.476576 
L 173.454545 814.24198 
L 176.727273 813.987808 
L 180 813.658802 
L 183.272727 813.722999 
L 186.545455 813.560024 
L 189.818182 813.4517 
L 193.090909 813.293242 
L 196.363636 813.036305 
L 199.636364 812.54769 
L 201.627103 811.953535 
L 201.352092 808.679529 
L 202.909091 807.063749 
L 206.181818 807.063749 
L 209.454545 807.063749 
L 211.188864 808.679529 
L 212.727273 810.690207 
L 216 810.285349 
L 219.272727 809.864137 
L 222.545455 809.556111 
L 225.818182 810.128014 
L 229.090909 810.237467 
L 232.363636 810.764576 
L 234.359479 811.953535 
L 235.636364 812.394184 
L 238.909091 812.182412 
L 240.504352 811.953535 
L 241.397062 808.679529 
L 242.181818 808.554107 
L 243.668261 805.405523 
L 243.713539 802.131517 
L 245.454545 799.632657 
L 248.727273 799.632657 
L 252 800.397316 
L 253.733524 802.131517 
L 252 803.964469 
L 250.604252 805.405523 
L 252 807.448863 
L 255.272727 807.064484 
L 258.545455 806.677943 
L 261.818182 806.289221 
L 265.090909 806.073226 
L 268.363636 806.810157 
L 271.636364 807.481996 
L 273.378515 808.679529 
L 274.909091 809.341108 
L 278.181818 809.233092 
L 281.454545 808.989907 
L 282.202096 808.679529 
L 284.727273 808.25491 
L 288 807.919597 
L 291.272727 807.728081 
L 294.545455 807.521465 
L 297.818182 807.3484 
L 301.090909 807.201327 
L 304.363636 807.20783 
L 307.636364 807.407302 
L 309.662 808.679529 
L 310.909091 809.459699 
L 314.181818 810.297931 
L 316.653688 811.953535 
L 317.454545 812.343288 
L 320.727273 812.274826 
L 322.579554 811.953535 
L 324 811.272399 
L 327.272727 810.301519 
L 330.545455 810.362909 
L 333.818182 810.390316 
L 337.090909 810.438511 
L 340.363636 810.475443 
L 343.636364 810.460315 
L 346.909091 810.358121 
L 350.181818 810.420367 
L 352.725562 811.953535 
L 353.454545 812.418586 
L 356.727273 813.396055 
L 359.871162 815.227542 
L 360 815.227542 
L 360.340482 815.227542 
L 363.272727 813.39942 
L 366.227185 811.953535 
L 366.545455 811.897196 
L 369.818182 811.443004 
L 373.090909 811.100009 
L 376.363636 810.86386 
L 379.636364 810.650649 
L 382.909091 810.44039 
L 386.181818 810.250522 
L 389.454545 810.078217 
L 392.727273 809.926997 
L 396 810.863588 
L 397.980484 811.953535 
L 399.272727 812.573353 
L 402.545455 812.329435 
L 403.740359 811.953535 
L 405.818182 811.399826 
L 409.090909 810.331441 
L 412.363636 809.122028 
L 414.1875 808.679529 
L 413.285506 805.405523 
L 413.46326 802.131517 
L 415.636364 799.34831 
L 418.909091 799.363115 
L 422.181818 799.433658 
L 425.454545 799.433658 
L 428.727273 799.629728 
L 430.471766 802.131517 
L 432 803.660348 
L 433.744493 805.405523 
L 435.272727 807.252859 
L 437.11223 808.679529 
L 438.545455 809.837019 
L 441.435659 811.953535 
L 441.818182 812.264075 
L 445.090909 812.396459 
L 448.363636 812.260607 
L 449.748634 811.953535 
L 451.636364 811.745616 
L 454.909091 811.598451 
L 455.814421 808.679529 
L 455.982458 805.405523 
L 458.181818 802.6119 
L 461.454545 802.635321 
L 464.727273 802.717861 
L 468 802.910754 
L 470.493794 805.405523 
L 471.272727 806.18476 
L 472.994523 808.679529 
L 474.545455 810.231067 
L 476.26725 811.953535 
L 477.818182 814.831825 
L 478.306446 815.227542 
L 479.537942 815.227542 
L 477.818182 813.833751 
L 476.80505 811.953535 
L 474.545455 809.693057 
L 473.532323 808.679529 
L 471.272727 805.405523 
L 471.272727 805.405523 
L 468 802.131517 
L 464.727273 802.131517 
L 461.454545 802.131517 
L 458.181818 802.131517 
L 455.604262 805.405523 
L 455.495432 808.679529 
L 454.909091 810.569983 
L 451.636364 810.665295 
L 448.363636 810.59701 
L 445.090909 809.858821 
L 441.818182 810.414874 
L 438.545455 809.159231 
L 437.951479 808.679529 
L 435.272727 806.601959 
L 434.282959 805.405523 
L 432 803.121672 
L 431.010232 802.131517 
L 428.727273 798.857511 
L 425.454545 798.857511 
L 422.181818 798.857511 
L 418.909091 798.857511 
L 415.636364 798.857511 
L 413.080049 802.131517 
L 412.96424 805.405523 
L 412.363636 807.689465 
L 409.090909 808.104528 
L 406.180953 808.679529 
L 405.818182 808.808208 
L 402.545455 809.864569 
L 399.272727 811.363191 
L 396 809.965644 
L 392.727273 809.352495 
L 389.454545 809.479965 
L 386.181818 809.623261 
L 382.909091 809.781163 
L 379.636364 809.956022 
L 376.363636 810.115455 
L 373.090909 810.272308 
L 369.818182 810.499849 
L 366.545455 810.801158 
L 363.272727 811.258897 
L 360.066596 811.953535 
L 360 811.991328 
L 356.727273 812.324666 
L 354.832332 811.953535 
L 353.454545 811.580471 
L 350.181818 809.833077 
L 346.909091 809.792915 
L 343.636364 809.861846 
L 340.363636 809.793484 
L 337.090909 809.615028 
L 333.818182 809.346255 
L 330.545455 808.88775 
L 329.616796 808.679529 
L 327.272727 808.155446 
L 324 807.992429 
L 320.727273 808.408009 
L 319.280037 808.679529 
L 317.454545 809.738561 
L 314.181818 809.328118 
L 310.909091 808.767566 
L 310.768365 808.679529 
L 307.636364 806.712435 
L 304.363636 806.582615 
L 301.090909 806.578776 
L 297.818182 806.675304 
L 294.545455 806.788892 
L 291.272727 806.924499 
L 288 806.95424 
L 284.727273 807.023707 
L 281.454545 807.150193 
L 278.181818 807.526562 
L 274.909091 808.206591 
L 271.636364 806.344558 
L 268.363636 806.193333 
L 265.44098 805.405523 
L 265.090909 805.156999 
L 263.003776 805.405523 
L 261.818182 805.476177 
L 258.545455 805.867187 
L 255.272727 806.256003 
L 252 806.642643 
L 251.154958 805.405523 
L 252 804.533051 
L 254.271263 802.131517 
L 252 799.859366 
L 248.727273 798.857511 
L 245.454545 798.857511 
L 243.173479 802.131517 
L 243.144165 805.405523 
L 242.181818 807.443967 
L 238.909091 807.831549 
L 235.636364 808.407011 
L 234.497477 808.679529 
L 232.363636 809.175805 
L 229.090909 809.368782 
L 225.818182 809.48682 
L 222.545455 808.70664 
L 219.272727 809.010798 
L 216 809.448904 
L 212.727273 809.869999 
L 211.816421 808.679529 
L 209.454545 806.479085 
L 206.181818 806.479085 
L 202.909091 806.479085 
L 200.788697 808.679529 
L 199.636364 811.097803 
L 196.363636 811.572187 
L 194.420388 811.953535 
L 193.090909 812.162189 
L 189.818182 812.537404 
L 186.545455 812.79315 
L 183.272727 813.019585 
L 180 812.911994 
L 176.727273 813.265622 
L 173.454545 813.490522 
L 170.181818 813.648084 
L 166.909091 813.872033 
L 163.636364 814.238268 
L 160.363636 814.777319 
L 158.456144 815.227542 
z
M 461.454545 812.426094 
L 464.727273 813.281301 
L 468 813.724623 
L 469.189678 811.953535 
L 468 810.763392 
L 464.727273 811.259765 
L 461.454545 811.773196 
L 459.952556 811.953535 
z
M 463.353076 811.953535 
L 464.727273 811.729021 
L 468 811.21801 
L 468.735238 811.953535 
L 468 813.048092 
L 464.727273 812.38322 
z
M 373.090909 807.897665 
L 376.363636 807.886827 
L 379.636364 807.847696 
L 382.909091 807.905264 
L 386.181818 807.821474 
L 388.452468 805.405523 
L 386.181818 803.133986 
L 385.17974 802.131517 
L 382.909091 798.857511 
L 379.636364 798.857511 
L 376.363636 798.857511 
L 373.090909 798.857511 
L 370.633975 802.131517 
L 370.621129 805.405523 
z
M 371.023786 805.405523 
L 371.043074 802.131517 
L 373.090909 799.402658 
L 376.363636 799.464348 
L 379.636364 799.464348 
L 382.909091 799.63038 
L 384.643725 802.131517 
L 386.181818 803.670211 
L 387.916453 805.405523 
L 386.181818 807.251159 
L 382.909091 807.441937 
L 379.636364 807.395039 
L 376.363636 807.473671 
L 373.090909 807.491362 
z
M 288 804.577212 
L 291.272727 804.393981 
L 294.545455 804.39468 
L 296.800483 802.131517 
L 294.545455 799.875607 
L 291.272727 799.875607 
L 290.255029 798.857511 
L 288 795.583504 
L 285.72806 798.857511 
L 285.650863 802.131517 
z
M 286.146788 802.131517 
L 286.265436 798.857511 
L 288 796.357896 
L 289.721653 798.857511 
L 291.272727 800.409191 
L 294.545455 800.409191 
L 296.267108 802.131517 
L 294.545455 803.85938 
L 291.272727 803.858847 
L 288 804.060903 
z
M 330.545455 804.523812 
L 333.818182 804.403788 
L 337.090909 804.404492 
L 339.31544 802.131517 
L 337.090909 799.906117 
L 333.818182 799.906117 
L 332.769985 798.857511 
L 330.545455 795.583504 
L 328.289734 798.857511 
L 328.167961 802.131517 
z
M 328.637154 802.131517 
L 328.822747 798.857511 
L 330.545455 796.357132 
L 332.244342 798.857511 
L 333.818182 800.431966 
L 337.090909 800.431966 
L 338.789796 802.131517 
L 337.090909 803.867402 
L 333.818182 803.866864 
L 330.545455 804.051699 
z
" clip-path="url(#pdeb7507d5a)" style="fill: #f5f9fe; fill-opacity: 0.9"/>
    <path d="M 166.909091 815.227542 
L 170.181818 815.227542 
L 170.93778 815.227542 
L 173.454545 814.993438 
L 176.727273 814.709994 
L 180 814.405611 
L 183.272727 814.426414 
L 186.545455 814.326897 
L 189.818182 814.365995 
L 193.090909 814.424295 
L 196.363636 814.518828 
L 199.636364 814.6986 
L 202.909091 815.173549 
L 203.10344 815.227542 
L 206.181818 815.227542 
L 207.750007 815.227542 
L 208.833819 811.953535 
L 206.181818 811.388323 
L 202.909091 810.912586 
L 201.915486 808.679529 
L 202.909091 807.648413 
L 206.181818 807.648413 
L 209.454545 807.648413 
L 210.561307 808.679529 
L 212.727273 811.510415 
L 216 811.121795 
L 219.272727 810.717476 
L 222.545455 810.405581 
L 225.818182 810.769208 
L 229.090909 811.106152 
L 231.692494 811.953535 
L 232.363636 812.310752 
L 235.636364 813.314551 
L 238.909091 813.160482 
L 242.181818 813.034949 
L 245.454545 813.476571 
L 247.20008 811.953535 
L 248.343138 808.679529 
L 245.454545 808.197432 
L 244.192357 805.405523 
L 244.2536 802.131517 
L 245.454545 800.407804 
L 248.727273 800.407804 
L 252 800.935265 
L 253.195785 802.131517 
L 252 803.395887 
L 250.053546 805.405523 
L 252 808.255083 
L 255.272727 807.872966 
L 258.545455 807.488699 
L 261.818182 807.102265 
L 265.090909 806.861524 
L 268.363636 807.426981 
L 271.636364 808.619434 
L 271.723789 808.679529 
L 274.909091 810.05635 
L 278.181818 810.154437 
L 281.412979 811.953535 
L 281.454545 811.981071 
L 284.727273 812.297947 
L 287.413029 811.953535 
L 288 811.095599 
L 289.755084 808.679529 
L 291.272727 808.531663 
L 294.545455 808.254039 
L 297.818182 808.021496 
L 301.090909 807.823878 
L 304.363636 807.833046 
L 307.636364 808.102169 
L 308.555635 808.679529 
L 310.909091 810.151832 
L 314.181818 811.267743 
L 315.205727 811.953535 
L 317.454545 813.047966 
L 320.727273 814.139639 
L 323.874902 815.227542 
L 324 815.227542 
L 324.220135 815.227542 
L 327.272727 813.646727 
L 329.939342 811.953535 
L 330.545455 811.838069 
L 333.818182 811.434378 
L 337.090909 811.261995 
L 340.363636 811.157403 
L 343.636364 811.058784 
L 346.909091 810.923327 
L 350.181818 811.007658 
L 351.751163 811.953535 
L 353.454545 813.040199 
L 356.727273 814.467444 
L 358.03204 815.227542 
L 359.871162 815.227542 
L 356.727273 813.396055 
L 353.454545 812.418586 
L 352.725562 811.953535 
L 350.181818 810.420367 
L 346.909091 810.358121 
L 343.636364 810.460315 
L 340.363636 810.475443 
L 337.090909 810.438511 
L 333.818182 810.390316 
L 330.545455 810.362909 
L 327.272727 810.301519 
L 324 811.272399 
L 322.579554 811.953535 
L 320.727273 812.274826 
L 317.454545 812.343288 
L 316.653688 811.953535 
L 314.181818 810.297931 
L 310.909091 809.459699 
L 309.662 808.679529 
L 307.636364 807.407302 
L 304.363636 807.20783 
L 301.090909 807.201327 
L 297.818182 807.3484 
L 294.545455 807.521465 
L 291.272727 807.728081 
L 288 807.919597 
L 284.727273 808.25491 
L 282.202096 808.679529 
L 281.454545 808.989907 
L 278.181818 809.233092 
L 274.909091 809.341108 
L 273.378515 808.679529 
L 271.636364 807.481996 
L 268.363636 806.810157 
L 265.090909 806.073226 
L 261.818182 806.289221 
L 258.545455 806.677943 
L 255.272727 807.064484 
L 252 807.448863 
L 250.604252 805.405523 
L 252 803.964469 
L 253.733524 802.131517 
L 252 800.397316 
L 248.727273 799.632657 
L 245.454545 799.632657 
L 243.713539 802.131517 
L 243.668261 805.405523 
L 242.181818 808.554107 
L 241.397062 808.679529 
L 240.504352 811.953535 
L 238.909091 812.182412 
L 235.636364 812.394184 
L 234.359479 811.953535 
L 232.363636 810.764576 
L 229.090909 810.237467 
L 225.818182 810.128014 
L 222.545455 809.556111 
L 219.272727 809.864137 
L 216 810.285349 
L 212.727273 810.690207 
L 211.188864 808.679529 
L 209.454545 807.063749 
L 206.181818 807.063749 
L 202.909091 807.063749 
L 201.352092 808.679529 
L 201.627103 811.953535 
L 199.636364 812.54769 
L 196.363636 813.036305 
L 193.090909 813.293242 
L 189.818182 813.4517 
L 186.545455 813.560024 
L 183.272727 813.722999 
L 180 813.658802 
L 176.727273 813.987808 
L 173.454545 814.24198 
L 170.181818 814.476576 
L 166.909091 814.810017 
L 164.305409 815.227542 
z
M 363.272727 815.227542 
L 366.28883 815.227542 
L 366.545455 815.115051 
L 369.818182 813.859191 
L 372.882476 811.953535 
L 373.090909 811.92771 
L 376.363636 811.612265 
L 379.636364 811.345276 
L 382.909091 811.099618 
L 386.181818 810.877784 
L 389.454545 810.676468 
L 392.727273 810.501499 
L 396 811.761532 
L 396.348879 811.953535 
L 399.272727 813.355943 
L 402.474862 815.227542 
L 402.545455 815.227542 
L 402.80387 815.227542 
L 405.818182 813.790708 
L 409.090909 812.78474 
L 411.242512 811.953535 
L 412.363636 811.455965 
L 415.636364 810.35692 
L 418.909091 809.589534 
L 422.181818 808.95532 
L 423.807366 808.679529 
L 422.181818 808.56041 
L 418.909091 808.357698 
L 415.636364 808.291508 
L 413.606771 805.405523 
L 413.846472 802.131517 
L 415.636364 799.839109 
L 418.909091 799.86872 
L 422.181818 800.009805 
L 425.454545 800.009805 
L 428.727273 800.401945 
L 429.9333 802.131517 
L 432 804.199024 
L 433.206028 805.405523 
L 435.272727 807.903759 
L 436.27298 808.679529 
L 438.545455 810.514807 
L 440.510107 811.953535 
L 441.818182 813.015455 
L 445.069698 815.227542 
L 445.090909 815.227542 
L 445.254785 815.227542 
L 448.363636 814.435248 
L 451.636364 814.192535 
L 454.909091 814.026607 
L 458.181818 813.351889 
L 461.454545 813.820078 
L 464.727273 814.179383 
L 468 814.401154 
L 469.644119 811.953535 
L 468 810.308774 
L 464.727273 810.790509 
L 461.454545 811.241218 
L 458.181818 811.673622 
L 456.133409 808.679529 
L 456.360653 805.405523 
L 458.181818 803.092283 
L 461.454545 803.139126 
L 464.727273 803.304204 
L 468 803.689991 
L 469.714862 805.405523 
L 471.272727 806.963997 
L 472.456723 808.679529 
L 474.545455 810.769077 
L 475.72945 811.953535 
L 476.084751 815.227542 
L 477.818182 815.227542 
L 478.306446 815.227542 
L 477.818182 814.831825 
L 476.26725 811.953535 
L 474.545455 810.231067 
L 472.994523 808.679529 
L 471.272727 806.18476 
L 470.493794 805.405523 
L 468 802.910754 
L 464.727273 802.717861 
L 461.454545 802.635321 
L 458.181818 802.6119 
L 455.982458 805.405523 
L 455.814421 808.679529 
L 454.909091 811.598451 
L 451.636364 811.745616 
L 449.748634 811.953535 
L 448.363636 812.260607 
L 445.090909 812.396459 
L 441.818182 812.264075 
L 441.435659 811.953535 
L 438.545455 809.837019 
L 437.11223 808.679529 
L 435.272727 807.252859 
L 433.744493 805.405523 
L 432 803.660348 
L 430.471766 802.131517 
L 428.727273 799.629728 
L 425.454545 799.433658 
L 422.181818 799.433658 
L 418.909091 799.363115 
L 415.636364 799.34831 
L 413.46326 802.131517 
L 413.285506 805.405523 
L 414.1875 808.679529 
L 412.363636 809.122028 
L 409.090909 810.331441 
L 405.818182 811.399826 
L 403.740359 811.953535 
L 402.545455 812.329435 
L 399.272727 812.573353 
L 397.980484 811.953535 
L 396 810.863588 
L 392.727273 809.926997 
L 389.454545 810.078217 
L 386.181818 810.250522 
L 382.909091 810.44039 
L 379.636364 810.650649 
L 376.363636 810.86386 
L 373.090909 811.100009 
L 369.818182 811.443004 
L 366.545455 811.897196 
L 366.227185 811.953535 
L 363.272727 813.39942 
L 360.340482 815.227542 
z
M 459.952556 811.953535 
L 461.454545 811.773196 
L 464.727273 811.259765 
L 468 810.763392 
L 469.189678 811.953535 
L 468 813.724623 
L 464.727273 813.281301 
L 461.454545 812.426094 
z
M 373.090909 807.491362 
L 376.363636 807.473671 
L 379.636364 807.395039 
L 382.909091 807.441937 
L 386.181818 807.251159 
L 387.916453 805.405523 
L 386.181818 803.670211 
L 384.643725 802.131517 
L 382.909091 799.63038 
L 379.636364 799.464348 
L 376.363636 799.464348 
L 373.090909 799.402658 
L 371.043074 802.131517 
L 371.023786 805.405523 
z
M 371.426443 805.405523 
L 371.452172 802.131517 
L 373.090909 799.947806 
L 376.363636 800.071185 
L 379.636364 800.071185 
L 382.909091 800.40325 
L 384.10771 802.131517 
L 386.181818 804.206435 
L 387.380438 805.405523 
L 386.181818 806.680843 
L 382.909091 806.97861 
L 379.636364 806.942382 
L 376.363636 807.060514 
L 373.090909 807.085059 
z
M 288 804.060903 
L 291.272727 803.858847 
L 294.545455 803.85938 
L 296.267108 802.131517 
L 294.545455 800.409191 
L 291.272727 800.409191 
L 289.721653 798.857511 
L 288 796.357896 
L 286.265436 798.857511 
L 286.146788 802.131517 
z
M 286.642713 802.131517 
L 286.802812 798.857511 
L 288 797.132288 
L 289.188277 798.857511 
L 291.272727 800.942775 
L 294.545455 800.942775 
L 295.733732 802.131517 
L 294.545455 803.32408 
L 291.272727 803.323712 
L 288 803.544593 
z
M 330.545455 804.051699 
L 333.818182 803.866864 
L 337.090909 803.867402 
L 338.789796 802.131517 
L 337.090909 800.431966 
L 333.818182 800.431966 
L 332.244342 798.857511 
L 330.545455 796.357132 
L 328.822747 798.857511 
L 328.637154 802.131517 
z
M 329.106346 802.131517 
L 329.35576 798.857511 
L 330.545455 797.13076 
L 331.718699 798.857511 
L 333.818182 800.957814 
L 337.090909 800.957814 
L 338.264153 802.131517 
L 337.090909 803.330311 
L 333.818182 803.32994 
L 330.545455 803.579585 
z
" clip-path="url(#pdeb7507d5a)" style="fill: #eff6fc; fill-opacity: 0.9"/>
    <path d="M 173.454545 815.227542 
L 176.727273 815.227542 
L 179.142577 815.227542 
L 180 815.152419 
L 183.272727 815.129828 
L 186.545455 815.093771 
L 189.004773 815.227542 
L 189.818182 815.227542 
L 193.090909 815.227542 
L 196.363636 815.227542 
L 199.636364 815.227542 
L 202.909091 815.227542 
L 203.10344 815.227542 
L 202.909091 815.173549 
L 199.636364 814.6986 
L 196.363636 814.518828 
L 193.090909 814.424295 
L 189.818182 814.365995 
L 186.545455 814.326897 
L 183.272727 814.426414 
L 180 814.405611 
L 176.727273 814.709994 
L 173.454545 814.993438 
L 170.93778 815.227542 
z
M 209.454545 815.227542 
L 212.727273 815.227542 
L 214.887314 815.227542 
L 216 812.067329 
L 216.040535 811.953535 
L 219.272727 811.570815 
L 222.545455 811.255052 
L 225.818182 811.410403 
L 228.998831 811.953535 
L 229.090909 812.029592 
L 232.363636 813.730259 
L 235.636364 814.234919 
L 238.909091 814.138553 
L 242.181818 814.469311 
L 243.591637 815.227542 
L 245.454545 815.227542 
L 248.727273 815.227542 
L 252 815.227542 
L 253.30863 815.227542 
L 253.939637 811.953535 
L 255.272727 808.718871 
L 255.289214 808.679529 
L 258.545455 808.299456 
L 261.818182 807.915308 
L 265.090909 807.649823 
L 268.363636 808.043805 
L 270.069063 808.679529 
L 271.636364 809.893463 
L 274.909091 810.771592 
L 278.181818 811.075782 
L 279.758253 811.953535 
L 281.454545 813.077247 
L 284.727273 813.294078 
L 288 813.635762 
L 291.07742 815.227542 
L 291.272727 815.227542 
L 291.782116 815.227542 
L 294.148705 811.953535 
L 294.545455 811.555973 
L 297.818182 808.818481 
L 298.002755 808.679529 
L 301.090909 808.446429 
L 304.363636 808.458261 
L 306.57819 808.679529 
L 307.636364 808.98317 
L 310.909091 810.843965 
L 313.676298 811.953535 
L 314.181818 812.358074 
L 317.454545 813.752644 
L 320.183977 815.227542 
L 320.727273 815.227542 
L 323.874902 815.227542 
L 320.727273 814.139639 
L 317.454545 813.047966 
L 315.205727 811.953535 
L 314.181818 811.267743 
L 310.909091 810.151832 
L 308.555635 808.679529 
L 307.636364 808.102169 
L 304.363636 807.833046 
L 301.090909 807.823878 
L 297.818182 808.021496 
L 294.545455 808.254039 
L 291.272727 808.531663 
L 289.755084 808.679529 
L 288 811.095599 
L 287.413029 811.953535 
L 284.727273 812.297947 
L 281.454545 811.981071 
L 281.412979 811.953535 
L 278.181818 810.154437 
L 274.909091 810.05635 
L 271.723789 808.679529 
L 271.636364 808.619434 
L 268.363636 807.426981 
L 265.090909 806.861524 
L 261.818182 807.102265 
L 258.545455 807.488699 
L 255.272727 807.872966 
L 252 808.255083 
L 250.053546 805.405523 
L 252 803.395887 
L 253.195785 802.131517 
L 252 800.935265 
L 248.727273 800.407804 
L 245.454545 800.407804 
L 244.2536 802.131517 
L 244.192357 805.405523 
L 245.454545 808.197432 
L 248.343138 808.679529 
L 247.20008 811.953535 
L 245.454545 813.476571 
L 242.181818 813.034949 
L 238.909091 813.160482 
L 235.636364 813.314551 
L 232.363636 812.310752 
L 231.692494 811.953535 
L 229.090909 811.106152 
L 225.818182 810.769208 
L 222.545455 810.405581 
L 219.272727 810.717476 
L 216 811.121795 
L 212.727273 811.510415 
L 210.561307 808.679529 
L 209.454545 807.648413 
L 206.181818 807.648413 
L 202.909091 807.648413 
L 201.915486 808.679529 
L 202.909091 810.912586 
L 206.181818 811.388323 
L 208.833819 811.953535 
L 207.750007 815.227542 
z
M 202.478881 808.679529 
L 202.909091 808.233077 
L 206.181818 808.233077 
L 209.454545 808.233077 
L 209.93375 808.679529 
L 209.454545 810.169893 
L 206.181818 809.852381 
L 202.909091 809.646396 
z
M 244.716453 805.405523 
L 244.79366 802.131517 
L 245.454545 801.18295 
L 248.727273 801.18295 
L 252 801.473214 
L 252.658045 802.131517 
L 252 802.827305 
L 249.502841 805.405523 
L 248.727273 807.365067 
L 245.454545 807.038153 
z
M 327.272727 815.227542 
L 330.545455 815.227542 
L 333.818182 815.227542 
L 334.0183 815.227542 
L 337.090909 812.758452 
L 338.691347 811.953535 
L 340.363636 811.839362 
L 343.636364 811.657254 
L 346.909091 811.488534 
L 350.181818 811.594949 
L 350.776764 811.953535 
L 353.454545 813.661812 
L 356.388802 815.227542 
L 356.727273 815.227542 
L 358.03204 815.227542 
L 356.727273 814.467444 
L 353.454545 813.040199 
L 351.751163 811.953535 
L 350.181818 811.007658 
L 346.909091 810.923327 
L 343.636364 811.058784 
L 340.363636 811.157403 
L 337.090909 811.261995 
L 333.818182 811.434378 
L 330.545455 811.838069 
L 329.939342 811.953535 
L 327.272727 813.646727 
L 324.220135 815.227542 
z
M 366.545455 815.227542 
L 369.818182 815.227542 
L 373.090909 815.227542 
L 374.884729 815.227542 
L 376.363636 814.152205 
L 379.636364 812.369268 
L 380.605988 811.953535 
L 382.909091 811.758845 
L 386.181818 811.505045 
L 389.454545 811.27472 
L 392.727273 811.076002 
L 394.887929 811.953535 
L 396 812.657748 
L 399.272727 814.138534 
L 401.13592 815.227542 
L 402.474862 815.227542 
L 399.272727 813.355943 
L 396.348879 811.953535 
L 396 811.761532 
L 392.727273 810.501499 
L 389.454545 810.676468 
L 386.181818 810.877784 
L 382.909091 811.099618 
L 379.636364 811.345276 
L 376.363636 811.612265 
L 373.090909 811.92771 
L 372.882476 811.953535 
L 369.818182 813.859191 
L 366.545455 815.115051 
L 366.28883 815.227542 
z
M 405.818182 815.227542 
L 407.963186 815.227542 
L 409.090909 814.81632 
L 412.363636 813.78036 
L 415.636364 812.512681 
L 416.855137 811.953535 
L 418.909091 811.376719 
L 422.181818 810.587432 
L 425.454545 809.924181 
L 428.727273 809.35901 
L 432 808.87166 
L 433.427233 808.679529 
L 435.272727 808.554659 
L 435.433731 808.679529 
L 438.545455 811.192595 
L 439.584555 811.953535 
L 441.818182 813.766836 
L 443.965254 815.227542 
L 445.069698 815.227542 
L 441.818182 813.015455 
L 440.510107 811.953535 
L 438.545455 810.514807 
L 436.27298 808.679529 
L 435.272727 807.903759 
L 433.206028 805.405523 
L 432 804.199024 
L 429.9333 802.131517 
L 428.727273 800.401945 
L 425.454545 800.009805 
L 422.181818 800.009805 
L 418.909091 799.86872 
L 415.636364 799.839109 
L 413.846472 802.131517 
L 413.606771 805.405523 
L 415.636364 808.291508 
L 418.909091 808.357698 
L 422.181818 808.56041 
L 423.807366 808.679529 
L 422.181818 808.95532 
L 418.909091 809.589534 
L 415.636364 810.35692 
L 412.363636 811.455965 
L 411.242512 811.953535 
L 409.090909 812.78474 
L 405.818182 813.790708 
L 402.80387 815.227542 
z
M 413.928036 805.405523 
L 414.229684 802.131517 
L 415.636364 800.329908 
L 418.909091 800.374324 
L 422.181818 800.585953 
L 425.454545 800.585953 
L 428.727273 801.174162 
L 429.394835 802.131517 
L 432 804.7377 
L 432.667562 805.405523 
L 432 808.329599 
L 428.727273 808.175115 
L 425.454545 807.906777 
L 422.181818 807.855475 
L 418.909091 807.725644 
L 415.636364 807.834684 
z
M 448.363636 815.227542 
L 451.636364 815.227542 
L 454.909091 815.227542 
L 458.181818 815.227542 
L 461.299736 815.227542 
L 461.454545 815.214063 
L 464.727273 815.077465 
L 468 815.077685 
L 470.098559 811.953535 
L 468 809.854156 
L 464.727273 810.321253 
L 461.454545 810.70924 
L 458.181818 811.207367 
L 456.452398 808.679529 
L 456.738849 805.405523 
L 458.181818 803.572666 
L 461.454545 803.64293 
L 464.727273 803.890548 
L 468 804.469228 
L 468.935929 805.405523 
L 471.272727 807.743235 
L 471.918922 808.679529 
L 474.545455 811.307088 
L 475.19165 811.953535 
L 474.545455 814.315348 
L 472.492992 815.227542 
L 474.545455 815.227542 
L 476.084751 815.227542 
L 475.72945 811.953535 
L 474.545455 810.769077 
L 472.456723 808.679529 
L 471.272727 806.963997 
L 469.714862 805.405523 
L 468 803.689991 
L 464.727273 803.304204 
L 461.454545 803.139126 
L 458.181818 803.092283 
L 456.360653 805.405523 
L 456.133409 808.679529 
L 458.181818 811.673622 
L 461.454545 811.241218 
L 464.727273 810.790509 
L 468 810.308774 
L 469.644119 811.953535 
L 468 814.401154 
L 464.727273 814.179383 
L 461.454545 813.820078 
L 458.181818 813.351889 
L 454.909091 814.026607 
L 451.636364 814.192535 
L 448.363636 814.435248 
L 445.254785 815.227542 
z
M 373.090909 807.085059 
L 376.363636 807.060514 
L 379.636364 806.942382 
L 382.909091 806.97861 
L 386.181818 806.680843 
L 387.380438 805.405523 
L 386.181818 804.206435 
L 384.10771 802.131517 
L 382.909091 800.40325 
L 379.636364 800.071185 
L 376.363636 800.071185 
L 373.090909 799.947806 
L 371.452172 802.131517 
L 371.426443 805.405523 
z
M 371.8291 805.405523 
L 371.861271 802.131517 
L 373.090909 800.492953 
L 376.363636 800.678022 
L 379.636364 800.678022 
L 382.909091 801.17612 
L 383.571695 802.131517 
L 386.181818 804.74266 
L 386.844423 805.405523 
L 386.181818 806.110528 
L 382.909091 806.515283 
L 379.636364 806.489725 
L 376.363636 806.647358 
L 373.090909 806.678757 
z
M 288 803.544593 
L 291.272727 803.323712 
L 294.545455 803.32408 
L 295.733732 802.131517 
L 294.545455 800.942775 
L 291.272727 800.942775 
L 289.188277 798.857511 
L 288 797.132288 
L 286.802812 798.857511 
L 286.642713 802.131517 
z
M 287.138638 802.131517 
L 287.340187 798.857511 
L 288 797.90668 
L 288.654901 798.857511 
L 291.272727 801.47636 
L 294.545455 801.47636 
L 295.200356 802.131517 
L 294.545455 802.78878 
L 291.272727 802.788577 
L 288 803.028284 
z
M 330.545455 803.579585 
L 333.818182 803.32994 
L 337.090909 803.330311 
L 338.264153 802.131517 
L 337.090909 800.957814 
L 333.818182 800.957814 
L 331.718699 798.857511 
L 330.545455 797.13076 
L 329.35576 798.857511 
L 329.106346 802.131517 
z
M 329.575538 802.131517 
L 329.888773 798.857511 
L 330.545455 797.904388 
L 331.193056 798.857511 
L 333.818182 801.483663 
L 337.090909 801.483663 
L 337.73851 802.131517 
L 337.090909 802.793221 
L 333.818182 802.793016 
L 330.545455 803.107472 
z
" clip-path="url(#pdeb7507d5a)" style="fill: #eaf3fb; fill-opacity: 0.9"/>
    <path d="M 180 815.227542 
L 183.272727 815.227542 
L 186.545455 815.227542 
L 189.004773 815.227542 
L 186.545455 815.093771 
L 183.272727 815.129828 
L 180 815.152419 
L 179.142577 815.227542 
z
M 216 815.227542 
L 219.272727 815.227542 
L 222.545455 815.227542 
L 225.818182 815.227542 
L 227.029653 815.227542 
L 229.090909 815.131161 
L 232.363636 815.149766 
L 235.636364 815.155286 
L 238.909091 815.116623 
L 239.543757 815.227542 
L 242.181818 815.227542 
L 243.591637 815.227542 
L 242.181818 814.469311 
L 238.909091 814.138553 
L 235.636364 814.234919 
L 232.363636 813.730259 
L 229.090909 812.029592 
L 228.998831 811.953535 
L 225.818182 811.410403 
L 222.545455 811.255052 
L 219.272727 811.570815 
L 216.040535 811.953535 
L 216 812.067329 
L 214.887314 815.227542 
z
M 255.272727 815.227542 
L 258.545455 815.227542 
L 260.028002 815.227542 
L 260.770891 811.953535 
L 261.818182 809.600994 
L 262.354712 808.679529 
L 265.090909 808.438121 
L 268.363636 808.660629 
L 268.414338 808.679529 
L 271.636364 811.175111 
L 274.909091 811.486834 
L 277.960556 811.953535 
L 278.181818 812.115604 
L 281.454545 814.173422 
L 284.727273 814.290208 
L 287.615504 815.227542 
L 288 815.227542 
L 291.07742 815.227542 
L 288 813.635762 
L 284.727273 813.294078 
L 281.454545 813.077247 
L 279.758253 811.953535 
L 278.181818 811.075782 
L 274.909091 810.771592 
L 271.636364 809.893463 
L 270.069063 808.679529 
L 268.363636 808.043805 
L 265.090909 807.649823 
L 261.818182 807.915308 
L 258.545455 808.299456 
L 255.289214 808.679529 
L 255.272727 808.718871 
L 253.939637 811.953535 
L 253.30863 815.227542 
z
M 294.545455 815.227542 
L 297.818182 815.227542 
L 299.427444 815.227542 
L 301.090909 812.470733 
L 301.443121 811.953535 
L 304.363636 810.703813 
L 307.636364 810.77873 
L 310.909091 811.536098 
L 311.950156 811.953535 
L 314.181818 813.739406 
L 317.454545 814.457321 
L 318.879907 815.227542 
L 320.183977 815.227542 
L 317.454545 813.752644 
L 314.181818 812.358074 
L 313.676298 811.953535 
L 310.909091 810.843965 
L 307.636364 808.98317 
L 306.57819 808.679529 
L 304.363636 808.458261 
L 301.090909 808.446429 
L 298.002755 808.679529 
L 297.818182 808.818481 
L 294.545455 811.555973 
L 294.148705 811.953535 
L 291.782116 815.227542 
z
M 337.090909 815.227542 
L 340.363636 815.227542 
L 340.74443 815.227542 
L 343.636364 813.842515 
L 346.909091 812.554105 
L 350.181818 812.763529 
L 353.454545 814.283425 
L 355.223868 815.227542 
L 356.388802 815.227542 
L 353.454545 813.661812 
L 350.776764 811.953535 
L 350.181818 811.594949 
L 346.909091 811.488534 
L 343.636364 811.657254 
L 340.363636 811.839362 
L 338.691347 811.953535 
L 337.090909 812.758452 
L 334.0183 815.227542 
z
M 376.363636 815.227542 
L 379.636364 815.227542 
L 380.521758 815.227542 
L 382.909091 814.058442 
L 386.181818 812.753595 
L 388.404376 811.953535 
L 389.454545 811.872972 
L 392.727273 811.650504 
L 393.473394 811.953535 
L 396 813.553494 
L 399.272727 814.921124 
L 399.796979 815.227542 
L 401.13592 815.227542 
L 399.272727 814.138534 
L 396 812.657748 
L 394.887929 811.953535 
L 392.727273 811.076002 
L 389.454545 811.27472 
L 386.181818 811.505045 
L 382.909091 811.758845 
L 380.605988 811.953535 
L 379.636364 812.369268 
L 376.363636 814.152205 
L 374.884729 815.227542 
z
M 409.090909 815.227542 
L 412.363636 815.227542 
L 415.636364 815.227542 
L 416.571458 815.227542 
L 418.909091 814.554293 
L 422.181818 812.640302 
L 423.219028 811.953535 
L 425.454545 811.425981 
L 428.727273 810.749769 
L 432 810.166668 
L 435.272727 809.845949 
L 438.545455 811.870383 
L 438.659004 811.953535 
L 441.818182 814.518216 
L 442.860809 815.227542 
L 443.965254 815.227542 
L 441.818182 813.766836 
L 439.584555 811.953535 
L 438.545455 811.192595 
L 435.433731 808.679529 
L 435.272727 808.554659 
L 433.427233 808.679529 
L 432 808.87166 
L 428.727273 809.35901 
L 425.454545 809.924181 
L 422.181818 810.587432 
L 418.909091 811.376719 
L 416.855137 811.953535 
L 415.636364 812.512681 
L 412.363636 813.78036 
L 409.090909 814.81632 
L 407.963186 815.227542 
z
M 461.454545 815.227542 
L 464.727273 815.227542 
L 468 815.227542 
L 471.272727 815.227542 
L 472.492992 815.227542 
L 474.545455 814.315348 
L 475.19165 811.953535 
L 474.545455 811.307088 
L 471.918922 808.679529 
L 471.272727 807.743235 
L 468.935929 805.405523 
L 468 804.469228 
L 464.727273 803.890548 
L 461.454545 803.64293 
L 458.181818 803.572666 
L 456.738849 805.405523 
L 456.452398 808.679529 
L 458.181818 811.207367 
L 461.454545 810.70924 
L 464.727273 810.321253 
L 468 809.854156 
L 470.098559 811.953535 
L 468 815.077685 
L 464.727273 815.077465 
L 461.454545 815.214063 
L 461.299736 815.227542 
z
M 470.553 811.953535 
L 468 809.399538 
L 464.727273 809.851997 
L 461.454545 810.177262 
L 458.181818 810.741112 
L 456.771386 808.679529 
L 457.117044 805.405523 
L 458.181818 804.05305 
L 461.454545 804.146734 
L 464.727273 804.476892 
L 468 805.248466 
L 468.156996 805.405523 
L 471.272727 808.522472 
L 471.381122 808.679529 
L 474.545455 811.845098 
L 474.65385 811.953535 
L 474.545455 812.349714 
L 471.272727 814.200319 
z
M 202.909091 809.646396 
L 206.181818 809.852381 
L 209.454545 810.169893 
L 209.93375 808.679529 
L 209.454545 808.233077 
L 206.181818 808.233077 
L 202.909091 808.233077 
L 202.478881 808.679529 
z
M 245.454545 807.038153 
L 248.727273 807.365067 
L 249.502841 805.405523 
L 252 802.827305 
L 252.658045 802.131517 
L 252 801.473214 
L 248.727273 801.18295 
L 245.454545 801.18295 
L 244.79366 802.131517 
L 244.716453 805.405523 
z
M 245.240549 805.405523 
L 245.33372 802.131517 
L 245.454545 801.958097 
L 248.727273 801.958097 
L 252 802.011164 
L 252.120306 802.131517 
L 252 802.258723 
L 248.952135 805.405523 
L 248.727273 805.973657 
L 245.454545 805.878874 
z
M 373.090909 806.678757 
L 376.363636 806.647358 
L 379.636364 806.489725 
L 382.909091 806.515283 
L 386.181818 806.110528 
L 386.844423 805.405523 
L 386.181818 804.74266 
L 383.571695 802.131517 
L 382.909091 801.17612 
L 379.636364 800.678022 
L 376.363636 800.678022 
L 373.090909 800.492953 
L 371.861271 802.131517 
L 371.8291 805.405523 
z
M 372.231757 805.405523 
L 372.27037 802.131517 
L 373.090909 801.038101 
L 376.363636 801.28486 
L 379.636364 801.28486 
L 382.909091 801.94899 
L 383.03568 802.131517 
L 386.181818 805.278884 
L 386.308408 805.405523 
L 386.181818 805.540213 
L 382.909091 806.051955 
L 379.636364 806.037068 
L 376.363636 806.234201 
L 373.090909 806.272454 
z
M 415.636364 807.834684 
L 418.909091 807.725644 
L 422.181818 807.855475 
L 425.454545 807.906777 
L 428.727273 808.175115 
L 432 808.329599 
L 432.667562 805.405523 
L 432 804.7377 
L 429.394835 802.131517 
L 428.727273 801.174162 
L 425.454545 800.585953 
L 422.181818 800.585953 
L 418.909091 800.374324 
L 415.636364 800.329908 
L 414.229684 802.131517 
L 413.928036 805.405523 
z
M 414.249301 805.405523 
L 414.612895 802.131517 
L 415.636364 800.820707 
L 418.909091 800.879929 
L 422.181818 801.1621 
L 425.454545 801.1621 
L 428.727273 801.946379 
L 428.856369 802.131517 
L 432 805.276376 
L 432.129096 805.405523 
L 432 805.970994 
L 428.727273 807.14268 
L 425.454545 806.974372 
L 422.181818 807.15054 
L 418.909091 807.09359 
L 415.636364 807.37786 
z
M 288 803.028284 
L 291.272727 802.788577 
L 294.545455 802.78878 
L 295.200356 802.131517 
L 294.545455 801.47636 
L 291.272727 801.47636 
L 288.654901 798.857511 
L 288 797.90668 
L 287.340187 798.857511 
L 287.138638 802.131517 
z
M 287.634562 802.131517 
L 287.877563 798.857511 
L 288 798.681072 
L 288.121525 798.857511 
L 291.272727 802.009944 
L 294.545455 802.009944 
L 294.66698 802.131517 
L 294.545455 802.25348 
L 291.272727 802.253443 
L 288 802.511975 
z
M 330.545455 803.107472 
L 333.818182 802.793016 
L 337.090909 802.793221 
L 337.73851 802.131517 
L 337.090909 801.483663 
L 333.818182 801.483663 
L 331.193056 798.857511 
L 330.545455 797.904388 
L 329.888773 798.857511 
L 329.575538 802.131517 
z
M 330.04473 802.131517 
L 330.421787 798.857511 
L 330.545455 798.678016 
L 330.667413 798.857511 
L 333.818182 802.009511 
L 337.090909 802.009511 
L 337.212867 802.131517 
L 337.090909 802.256131 
L 333.818182 802.256092 
L 330.545455 802.635358 
z
" clip-path="url(#pdeb7507d5a)" style="fill: #e5eff9; fill-opacity: 0.9"/>
    <path d="M 229.090909 815.227542 
L 232.363636 815.227542 
L 235.636364 815.227542 
L 238.909091 815.227542 
L 239.543757 815.227542 
L 238.909091 815.116623 
L 235.636364 815.155286 
L 232.363636 815.149766 
L 229.090909 815.131161 
L 227.029653 815.227542 
z
M 261.818182 815.227542 
L 265.090909 815.227542 
L 268.363636 815.227542 
L 271.636364 815.227542 
L 274.909091 815.227542 
L 278.181818 815.227542 
L 281.454545 815.227542 
L 284.727273 815.227542 
L 287.615504 815.227542 
L 284.727273 814.290208 
L 281.454545 814.173422 
L 278.181818 812.115604 
L 277.960556 811.953535 
L 274.909091 811.486834 
L 271.636364 811.175111 
L 268.414338 808.679529 
L 268.363636 808.660629 
L 265.090909 808.438121 
L 262.354712 808.679529 
L 261.818182 809.600994 
L 260.770891 811.953535 
L 260.028002 815.227542 
z
M 301.090909 815.227542 
L 304.363636 815.227542 
L 307.239092 815.227542 
L 307.636364 814.941954 
L 310.909091 814.366138 
L 314.181818 815.120738 
L 317.454545 815.161999 
L 317.575837 815.227542 
L 318.879907 815.227542 
L 317.454545 814.457321 
L 314.181818 813.739406 
L 311.950156 811.953535 
L 310.909091 811.536098 
L 307.636364 810.77873 
L 304.363636 810.703813 
L 301.443121 811.953535 
L 301.090909 812.470733 
L 299.427444 815.227542 
z
M 343.636364 815.227542 
L 346.909091 815.227542 
L 348.65375 815.227542 
L 350.181818 814.843511 
L 353.454545 814.905038 
L 354.058933 815.227542 
L 355.223868 815.227542 
L 353.454545 814.283425 
L 350.181818 812.763529 
L 346.909091 812.554105 
L 343.636364 813.842515 
L 340.74443 815.227542 
z
M 382.909091 815.227542 
L 386.181818 815.227542 
L 386.974889 815.227542 
L 389.454545 814.244737 
L 392.727273 813.128652 
L 396 814.449241 
L 397.924823 815.227542 
L 399.272727 815.227542 
L 399.796979 815.227542 
L 399.272727 814.921124 
L 396 813.553494 
L 393.473394 811.953535 
L 392.727273 811.650504 
L 389.454545 811.872972 
L 388.404376 811.953535 
L 386.181818 812.753595 
L 382.909091 814.058442 
L 380.521758 815.227542 
z
M 418.909091 815.227542 
L 422.181818 815.227542 
L 424.2117 815.227542 
L 425.454545 814.353286 
L 428.727273 812.396786 
L 429.582919 811.953535 
L 432 811.461676 
L 435.272727 811.289257 
L 436.398852 811.953535 
L 438.545455 813.11921 
L 441.706676 815.227542 
L 441.818182 815.227542 
L 442.860809 815.227542 
L 441.818182 814.518216 
L 438.659004 811.953535 
L 438.545455 811.870383 
L 435.272727 809.845949 
L 432 810.166668 
L 428.727273 810.749769 
L 425.454545 811.425981 
L 423.219028 811.953535 
L 422.181818 812.640302 
L 418.909091 814.554293 
L 416.571458 815.227542 
z
M 471.272727 814.200319 
L 474.545455 812.349714 
L 474.65385 811.953535 
L 474.545455 811.845098 
L 471.381122 808.679529 
L 471.272727 808.522472 
L 468.156996 805.405523 
L 468 805.248466 
L 464.727273 804.476892 
L 461.454545 804.146734 
L 458.181818 804.05305 
L 457.117044 805.405523 
L 456.771386 808.679529 
L 458.181818 810.741112 
L 461.454545 810.177262 
L 464.727273 809.851997 
L 468 809.399538 
L 470.553 811.953535 
z
M 471.007441 811.953535 
L 471.272727 810.570788 
L 472.654934 811.953535 
L 471.272727 812.781684 
z
M 457.090375 808.679529 
L 457.49524 805.405523 
L 458.181818 804.533433 
L 461.454545 804.650539 
L 464.727273 805.063236 
L 466.10948 805.405523 
L 468 807.296782 
L 469.382207 808.679529 
L 468 808.944919 
L 464.727273 809.38274 
L 461.454545 809.645284 
L 458.181818 810.274857 
z
M 245.454545 805.878874 
L 248.727273 805.973657 
L 248.952135 805.405523 
L 252 802.258723 
L 252.120306 802.131517 
L 252 802.011164 
L 248.727273 801.958097 
L 245.454545 801.958097 
L 245.33372 802.131517 
L 245.240549 805.405523 
z
M 373.090909 806.272454 
L 376.363636 806.234201 
L 379.636364 806.037068 
L 382.909091 806.051955 
L 386.181818 805.540213 
L 386.308408 805.405523 
L 386.181818 805.278884 
L 383.03568 802.131517 
L 382.909091 801.94899 
L 379.636364 801.28486 
L 376.363636 801.28486 
L 373.090909 801.038101 
L 372.27037 802.131517 
L 372.231757 805.405523 
z
M 372.634414 805.405523 
L 372.679468 802.131517 
L 373.090909 801.583248 
L 376.363636 801.891697 
L 379.636364 801.891697 
L 380.752272 802.131517 
L 382.909091 804.289178 
L 384.025 805.405523 
L 382.909091 805.588628 
L 379.636364 805.584411 
L 376.363636 805.821045 
L 373.090909 805.866152 
z
M 415.636364 807.37786 
L 418.909091 807.09359 
L 422.181818 807.15054 
L 425.454545 806.974372 
L 428.727273 807.14268 
L 432 805.970994 
L 432.129096 805.405523 
L 432 805.276376 
L 428.856369 802.131517 
L 428.727273 801.946379 
L 425.454545 801.1621 
L 422.181818 801.1621 
L 418.909091 800.879929 
L 415.636364 800.820707 
L 414.612895 802.131517 
L 414.249301 805.405523 
z
M 414.570567 805.405523 
L 414.996107 802.131517 
L 415.636364 801.311506 
L 418.909091 801.385533 
L 422.181818 801.738248 
L 425.454545 801.738248 
L 427.002824 802.131517 
L 428.727273 803.85664 
L 430.275551 805.405523 
L 428.727273 806.110246 
L 425.454545 806.041967 
L 422.181818 806.445605 
L 418.909091 806.461537 
L 415.636364 806.921036 
z
M 288 802.511975 
L 291.272727 802.253443 
L 294.545455 802.25348 
L 294.66698 802.131517 
L 294.545455 802.009944 
L 291.272727 802.009944 
L 288.121525 798.857511 
L 288 798.681072 
L 287.877563 798.857511 
L 287.634562 802.131517 
z
M 330.545455 802.635358 
L 333.818182 802.256092 
L 337.090909 802.256131 
L 337.212867 802.131517 
L 337.090909 802.009511 
L 333.818182 802.009511 
L 330.667413 798.857511 
L 330.545455 798.678016 
L 330.421787 798.857511 
L 330.04473 802.131517 
z
M 330.513923 802.131517 
L 330.545455 801.868069 
L 330.8088 802.131517 
L 330.545455 802.163245 
z
" clip-path="url(#pdeb7507d5a)" style="fill: #dfecf7; fill-opacity: 0.9"/>
    <path d="M 307.636364 815.227542 
L 310.909091 815.227542 
L 314.181818 815.227542 
L 317.454545 815.227542 
L 317.575837 815.227542 
L 317.454545 815.161999 
L 314.181818 815.120738 
L 310.909091 814.366138 
L 307.636364 814.941954 
L 307.239092 815.227542 
z
M 350.181818 815.227542 
L 353.454545 815.227542 
L 354.058933 815.227542 
L 353.454545 814.905038 
L 350.181818 814.843511 
L 348.65375 815.227542 
z
M 389.454545 815.227542 
L 392.727273 815.227542 
L 396 815.227542 
L 397.924823 815.227542 
L 396 814.449241 
L 392.727273 813.128652 
L 389.454545 814.244737 
L 386.974889 815.227542 
z
M 425.454545 815.227542 
L 428.727273 815.227542 
L 429.470521 815.227542 
L 432 813.797457 
L 435.272727 813.433197 
L 438.545455 814.447891 
L 439.714458 815.227542 
L 441.706676 815.227542 
L 438.545455 813.11921 
L 436.398852 811.953535 
L 435.272727 811.289257 
L 432 811.461676 
L 429.582919 811.953535 
L 428.727273 812.396786 
L 425.454545 814.353286 
L 424.2117 815.227542 
z
M 471.272727 812.781684 
L 472.654934 811.953535 
L 471.272727 810.570788 
L 471.007441 811.953535 
z
M 458.181818 810.274857 
L 461.454545 809.645284 
L 464.727273 809.38274 
L 468 808.944919 
L 469.382207 808.679529 
L 468 807.296782 
L 466.10948 805.405523 
L 464.727273 805.063236 
L 461.454545 804.650539 
L 458.181818 804.533433 
L 457.49524 805.405523 
L 457.090375 808.679529 
z
M 457.409363 808.679529 
L 457.873436 805.405523 
L 458.181818 805.013816 
L 461.454545 805.154343 
L 463.23818 805.405523 
L 464.727273 806.895198 
L 466.510907 808.679529 
L 464.727273 808.913484 
L 461.454545 809.113307 
L 458.181818 809.808602 
z
M 373.090909 805.866152 
L 376.363636 805.821045 
L 379.636364 805.584411 
L 382.909091 805.588628 
L 384.025 805.405523 
L 382.909091 804.289178 
L 380.752272 802.131517 
L 379.636364 801.891697 
L 376.363636 801.891697 
L 373.090909 801.583248 
L 372.679468 802.131517 
L 372.634414 805.405523 
z
M 373.037071 805.405523 
L 373.088567 802.131517 
L 373.090909 802.128396 
L 373.121596 802.131517 
L 376.363636 805.374824 
L 376.394323 805.405523 
L 376.363636 805.407888 
L 373.090909 805.459849 
z
M 415.636364 806.921036 
L 418.909091 806.461537 
L 422.181818 806.445605 
L 425.454545 806.041967 
L 428.727273 806.110246 
L 430.275551 805.405523 
L 428.727273 803.85664 
L 427.002824 802.131517 
L 425.454545 801.738248 
L 422.181818 801.738248 
L 418.909091 801.385533 
L 415.636364 801.311506 
L 414.996107 802.131517 
L 414.570567 805.405523 
z
M 414.891832 805.405523 
L 415.379318 802.131517 
L 415.636364 801.802305 
L 418.909091 801.891138 
L 420.871578 802.131517 
L 422.181818 803.442269 
L 424.144306 805.405523 
L 422.181818 805.740669 
L 418.909091 805.829483 
L 415.636364 806.464212 
z
M 330.545455 802.163245 
L 330.8088 802.131517 
L 330.545455 801.868069 
L 330.513923 802.131517 
z
" clip-path="url(#pdeb7507d5a)" style="fill: #dae8f6; fill-opacity: 0.9"/>
    <path d="M 432 815.227542 
L 435.272727 815.227542 
L 438.545455 815.227542 
L 439.714458 815.227542 
L 438.545455 814.447891 
L 435.272727 813.433197 
L 432 813.797457 
L 429.470521 815.227542 
z
M 458.181818 809.808602 
L 461.454545 809.113307 
L 464.727273 808.913484 
L 466.510907 808.679529 
L 464.727273 806.895198 
L 463.23818 805.405523 
L 461.454545 805.154343 
L 458.181818 805.013816 
L 457.873436 805.405523 
L 457.409363 808.679529 
z
M 457.728351 808.679529 
L 458.181818 805.7818 
L 461.078416 808.679529 
L 458.181818 809.342347 
z
M 373.090909 805.459849 
L 376.363636 805.407888 
L 376.394323 805.405523 
L 376.363636 805.374824 
L 373.121596 802.131517 
L 373.090909 802.128396 
L 373.088567 802.131517 
L 373.037071 805.405523 
z
M 415.636364 806.464212 
L 418.909091 805.829483 
L 422.181818 805.740669 
L 424.144306 805.405523 
L 422.181818 803.442269 
L 420.871578 802.131517 
L 418.909091 801.891138 
L 415.636364 801.802305 
L 415.379318 802.131517 
L 414.891832 805.405523 
z
M 415.213097 805.405523 
L 415.636364 802.786095 
L 418.254769 805.405523 
L 415.636364 806.007388 
z
" clip-path="url(#pdeb7507d5a)" style="fill: #d6e5f4; fill-opacity: 0.9"/>
    <path d="M 458.181818 809.342347 
L 461.078416 808.679529 
L 458.181818 805.7818 
L 457.728351 808.679529 
z
M 458.04734 808.679529 
L 458.181818 807.82019 
L 459.040821 808.679529 
L 458.181818 808.876092 
z
M 415.636364 806.007388 
L 418.254769 805.405523 
L 415.636364 802.786095 
L 415.213097 805.405523 
z
M 415.534363 805.405523 
L 415.636364 804.774278 
L 416.267362 805.405523 
L 415.636364 805.550564 
z
" clip-path="url(#pdeb7507d5a)" style="fill: #d0e2f2; fill-opacity: 0.9"/>
    <path d="M 458.181818 808.876092 
L 459.040821 808.679529 
L 458.181818 807.82019 
L 458.04734 808.679529 
z
M 415.636364 805.550564 
L 416.267362 805.405523 
L 415.636364 804.774278 
L 415.534363 805.405523 
z
" clip-path="url(#pdeb7507d5a)" style="fill: #cbdef1; fill-opacity: 0.9"/>
    <path clip-path="url(#pdeb7507d5a)" style="fill: #c6dbef; fill-opacity: 0.9"/>
    <path clip-path="url(#pdeb7507d5a)" style="fill: #bed8ec; fill-opacity: 0.9"/>
    <path clip-path="url(#pdeb7507d5a)" style="fill: #b5d4e9; fill-opacity: 0.9"/>
    <path clip-path="url(#pdeb7507d5a)" style="fill: #add0e6; fill-opacity: 0.9"/>
    <path clip-path="url(#pdeb7507d5a)" style="fill: #a5cde3; fill-opacity: 0.9"/>
    <path clip-path="url(#pdeb7507d5a)" style="fill: #9cc9e1; fill-opacity: 0.9"/>
    <path clip-path="url(#pdeb7507d5a)" style="fill: #91c3de; fill-opacity: 0.9"/>
    <path clip-path="url(#pdeb7507d5a)" style="fill: #85bcdc; fill-opacity: 0.9"/>
    <path clip-path="url(#pdeb7507d5a)" style="fill: #7cb7da; fill-opacity: 0.9"/>
    <path clip-path="url(#pdeb7507d5a)" style="fill: #71b1d7; fill-opacity: 0.9"/>
    <path clip-path="url(#pdeb7507d5a)" style="fill: #66abd4; fill-opacity: 0.9"/>
    <path clip-path="url(#pdeb7507d5a)" style="fill: #5da5d1; fill-opacity: 0.9"/>
    <path clip-path="url(#pdeb7507d5a)" style="fill: #56a0ce; fill-opacity: 0.9"/>
    <path clip-path="url(#pdeb7507d5a)" style="fill: #4d99ca; fill-opacity: 0.9"/>
    <path clip-path="url(#pdeb7507d5a)" style="fill: #4493c7; fill-opacity: 0.9"/>
    <path clip-path="url(#pdeb7507d5a)" style="fill: #3c8cc3; fill-opacity: 0.9"/>
    <path clip-path="url(#pdeb7507d5a)" style="fill: #3686c0; fill-opacity: 0.9"/>
    <path clip-path="url(#pdeb7507d5a)" style="fill: #2f7fbc; fill-opacity: 0.9"/>
    <path clip-path="url(#pdeb7507d5a)" style="fill: #2777b8; fill-opacity: 0.9"/>
    <path clip-path="url(#pdeb7507d5a)" style="fill: #2070b4; fill-opacity: 0.9"/>
    <path clip-path="url(#pdeb7507d5a)" style="fill: #1c6ab0; fill-opacity: 0.9"/>
    <path clip-path="url(#pdeb7507d5a)" style="fill: #1663aa; fill-opacity: 0.9"/>
    <path clip-path="url(#pdeb7507d5a)" style="fill: #115ca5; fill-opacity: 0.9"/>
    <path clip-path="url(#pdeb7507d5a)" style="fill: #0c56a0; fill-opacity: 0.9"/>
    <path clip-path="url(#pdeb7507d5a)" style="fill: #084f99; fill-opacity: 0.9"/>
    <path clip-path="url(#pdeb7507d5a)" style="fill: #08488e; fill-opacity: 0.9"/>
    <path clip-path="url(#pdeb7507d5a)" style="fill: #084184; fill-opacity: 0.9"/>
    <path clip-path="url(#pdeb7507d5a)" style="fill: #083a7a; fill-opacity: 0.9"/>
    <path clip-path="url(#pdeb7507d5a)" style="fill: #083370; fill-opacity: 0.9"/>
    <path clip-path="url(#pdeb7507d5a)" style="fill: #08306b; fill-opacity: 0.9"/>
   </g>
   <g id="QuadContourSet_2">
    <path d="M 479.537942 815.227542 
L 477.818182 813.833751 
L 476.80505 811.953535 
L 474.545455 809.693057 
L 473.532323 808.679529 
L 471.272727 805.405523 
L 471.272727 805.405523 
L 468 802.131517 
L 464.727273 802.131517 
L 461.454545 802.131517 
L 458.181818 802.131517 
L 455.604262 805.405523 
L 455.495432 808.679529 
L 454.909091 810.569983 
L 451.636364 810.665295 
L 448.363636 810.59701 
L 445.090909 809.858821 
L 441.818182 810.414874 
L 438.545455 809.159231 
L 437.951479 808.679529 
L 435.272727 806.601959 
L 434.282959 805.405523 
L 432 803.121672 
L 431.010232 802.131517 
L 428.727273 798.857511 
L 425.454545 798.857511 
L 422.181818 798.857511 
L 418.909091 798.857511 
L 415.636364 798.857511 
L 413.080049 802.131517 
L 412.96424 805.405523 
L 412.363636 807.689465 
L 409.090909 808.104528 
L 406.180953 808.679529 
L 405.818182 808.808208 
L 402.545455 809.864569 
L 399.272727 811.363191 
L 396 809.965644 
L 392.727273 809.352495 
L 389.454545 809.479965 
L 386.181818 809.623261 
L 382.909091 809.781163 
L 379.636364 809.956022 
L 379.325787 809.971152 
M 360.40637 811.87992 
L 360.066596 811.953535 
L 360 811.991328 
L 356.727273 812.324666 
L 354.832332 811.953535 
L 353.454545 811.580471 
L 350.181818 809.833077 
L 346.909091 809.792915 
L 343.636364 809.861846 
L 340.363636 809.793484 
L 337.090909 809.615028 
L 333.818182 809.346255 
L 330.545455 808.88775 
L 329.616796 808.679529 
L 327.272727 808.155446 
L 324 807.992429 
L 320.727273 808.408009 
L 319.280037 808.679529 
L 317.454545 809.738561 
L 314.181818 809.328118 
L 310.909091 808.767566 
L 310.768365 808.679529 
L 307.636364 806.712435 
L 304.363636 806.582615 
L 301.090909 806.578776 
L 297.818182 806.675304 
L 294.545455 806.788892 
L 291.272727 806.924499 
L 288 806.95424 
L 284.727273 807.023707 
L 281.454545 807.150193 
L 278.181818 807.526562 
L 274.909091 808.206591 
L 271.636364 806.344558 
L 268.363636 806.193333 
L 265.44098 805.405523 
L 265.090909 805.156999 
L 263.003776 805.405523 
L 261.818182 805.476177 
L 258.545455 805.867187 
L 255.272727 806.256003 
L 252 806.642643 
L 251.154958 805.405523 
L 252 804.533051 
L 254.271263 802.131517 
L 252 799.859366 
L 248.727273 798.857511 
L 245.454545 798.857511 
L 243.173479 802.131517 
L 243.144165 805.405523 
L 242.181818 807.443967 
L 238.909091 807.831549 
L 235.636364 808.407011 
L 234.497477 808.679529 
L 232.363636 809.175805 
L 229.090909 809.368782 
L 225.818182 809.48682 
L 222.545455 808.70664 
L 219.272727 809.010798 
L 216 809.448904 
L 212.727273 809.869999 
L 211.816421 808.679529 
L 209.454545 806.479085 
L 206.181818 806.479085 
L 202.909091 806.479085 
L 200.788697 808.679529 
L 199.636364 811.097803 
L 196.363636 811.572187 
L 194.420388 811.953535 
L 193.090909 812.162189 
L 189.818182 812.537404 
L 186.545455 812.79315 
L 183.272727 813.019585 
L 180 812.911994 
L 176.727273 813.265622 
L 173.454545 813.490522 
L 170.181818 813.648084 
L 166.909091 813.872033 
L 163.636364 814.238268 
L 160.363636 814.777319 
L 158.456144 815.227542 
M 464.727273 812.38322 
L 463.353076 811.953535 
L 464.727273 811.729021 
L 468 811.21801 
L 468.735238 811.953535 
L 468 813.048092 
L 464.727273 812.38322 
M 381.967837 798.857511 
L 379.636364 798.857511 
L 376.363636 798.857511 
L 373.090909 798.857511 
L 370.633975 802.131517 
L 370.621129 805.405523 
L 373.090909 807.897665 
L 376.363636 807.886827 
L 379.636364 807.847696 
L 379.964925 807.853476 
M 288 804.577212 
L 291.272727 804.393981 
L 294.545455 804.39468 
L 296.800483 802.131517 
L 294.545455 799.875607 
L 291.272727 799.875607 
L 290.255029 798.857511 
L 288 795.583504 
L 285.72806 798.857511 
L 285.650863 802.131517 
L 288 804.577212 
z
M 330.545455 804.523812 
L 333.818182 804.403788 
L 337.090909 804.404492 
L 339.31544 802.131517 
L 337.090909 799.906117 
L 333.818182 799.906117 
L 332.769985 798.857511 
L 330.545455 795.583504 
L 328.289734 798.857511 
L 328.167961 802.131517 
L 330.545455 804.523812 
z
" clip-path="url(#pdeb7507d5a)" style="fill: none"/>
    <path d="M 359.871162 815.227542 
L 356.727273 813.396055 
L 353.454545 812.418586 
L 352.725562 811.953535 
L 350.181818 810.420367 
L 346.909091 810.358121 
L 343.636364 810.460315 
L 340.363636 810.475443 
L 337.090909 810.438511 
L 333.818182 810.390316 
L 330.545455 810.362909 
L 327.272727 810.301519 
L 324 811.272399 
L 322.579554 811.953535 
L 320.727273 812.274826 
L 317.454545 812.343288 
L 316.653688 811.953535 
L 314.181818 810.297931 
L 310.909091 809.459699 
L 309.662 808.679529 
L 307.636364 807.407302 
L 304.363636 807.20783 
L 301.090909 807.201327 
L 300.839417 807.212629 
M 281.78372 808.853236 
L 281.454545 808.989907 
L 278.181818 809.233092 
L 274.909091 809.341108 
L 273.378515 808.679529 
L 271.636364 807.481996 
L 268.363636 806.810157 
L 265.090909 806.073226 
L 261.818182 806.289221 
L 258.545455 806.677943 
L 255.272727 807.064484 
L 252 807.448863 
L 250.604252 805.405523 
L 252 803.964469 
L 253.733524 802.131517 
L 252 800.397316 
L 248.727273 799.632657 
L 245.454545 799.632657 
L 243.713539 802.131517 
L 243.668261 805.405523 
L 242.181818 808.554107 
L 241.397062 808.679529 
L 240.504352 811.953535 
L 238.909091 812.182412 
L 235.636364 812.394184 
L 234.359479 811.953535 
L 232.363636 810.764576 
L 229.090909 810.237467 
L 225.818182 810.128014 
L 222.545455 809.556111 
L 219.272727 809.864137 
L 216 810.285349 
L 212.727273 810.690207 
L 211.188864 808.679529 
L 209.454545 807.063749 
L 206.181818 807.063749 
L 202.909091 807.063749 
L 201.352092 808.679529 
L 201.627103 811.953535 
L 199.636364 812.54769 
L 196.363636 813.036305 
L 193.090909 813.293242 
L 189.818182 813.4517 
L 186.545455 813.560024 
L 183.272727 813.722999 
L 180 813.658802 
L 176.727273 813.987808 
L 173.454545 814.24198 
L 170.181818 814.476576 
L 166.909091 814.810017 
L 164.305409 815.227542 
M 478.306446 815.227542 
L 477.818182 814.831825 
L 476.26725 811.953535 
L 474.545455 810.231067 
L 472.994523 808.679529 
L 471.272727 806.18476 
L 470.493794 805.405523 
L 468 802.910754 
L 464.727273 802.717861 
L 461.454545 802.635321 
L 458.181818 802.6119 
L 455.982458 805.405523 
L 455.814421 808.679529 
L 454.909091 811.598451 
L 451.636364 811.745616 
L 449.748634 811.953535 
L 448.363636 812.260607 
L 445.090909 812.396459 
L 441.818182 812.264075 
L 441.435659 811.953535 
L 438.545455 809.837019 
L 437.31165 808.840584 
M 422.189146 799.433658 
L 422.181818 799.433658 
L 418.909091 799.363115 
L 415.636364 799.34831 
L 413.46326 802.131517 
L 413.285506 805.405523 
L 414.1875 808.679529 
L 412.363636 809.122028 
L 409.090909 810.331441 
L 405.818182 811.399826 
L 403.740359 811.953535 
L 402.545455 812.329435 
L 399.272727 812.573353 
L 397.980484 811.953535 
L 396 810.863588 
L 392.727273 809.926997 
L 389.454545 810.078217 
L 386.181818 810.250522 
L 382.909091 810.44039 
L 379.636364 810.650649 
L 376.363636 810.86386 
L 373.090909 811.100009 
L 369.818182 811.443004 
L 366.545455 811.897196 
L 366.227185 811.953535 
L 363.272727 813.39942 
L 360.340482 815.227542 
M 461.454545 812.426094 
L 459.952556 811.953535 
L 461.454545 811.773196 
L 464.727273 811.259765 
L 468 810.763392 
L 469.189678 811.953535 
L 468 813.724623 
L 464.727273 813.281301 
L 461.454545 812.426094 
M 382.670267 807.438515 
L 382.909091 807.441937 
L 386.181818 807.251159 
L 387.916453 805.405523 
L 386.181818 803.670211 
L 384.643725 802.131517 
L 382.909091 799.63038 
L 379.636364 799.464348 
L 376.363636 799.464348 
L 373.093815 799.402713 
M 288 804.060903 
L 291.272727 803.858847 
L 294.545455 803.85938 
L 296.267108 802.131517 
L 294.545455 800.409191 
L 291.272727 800.409191 
L 289.721653 798.857511 
L 288 796.357896 
L 286.265436 798.857511 
L 286.146788 802.131517 
L 288 804.060903 
z
M 330.545455 804.051699 
L 333.818182 803.866864 
L 337.090909 803.867402 
L 338.789796 802.131517 
L 337.090909 800.431966 
L 333.818182 800.431966 
L 332.244342 798.857511 
L 330.545455 796.357132 
L 328.822747 798.857511 
L 328.637154 802.131517 
L 330.545455 804.051699 
z
" clip-path="url(#pdeb7507d5a)" style="fill: none"/>
    <path d="M 203.10344 815.227542 
L 202.909091 815.173549 
L 199.636364 814.6986 
L 199.39246 814.685202 
M 180.239321 814.407132 
L 180 814.405611 
L 176.727273 814.709994 
L 173.454545 814.993438 
L 170.93778 815.227542 
M 323.874902 815.227542 
L 320.727273 814.139639 
L 317.454545 813.047966 
L 315.205727 811.953535 
L 314.181818 811.267743 
L 310.909091 810.151832 
L 308.555635 808.679529 
L 307.636364 808.102169 
L 304.363636 807.833046 
L 301.090909 807.823878 
L 297.818182 808.021496 
L 294.545455 808.254039 
L 291.272727 808.531663 
L 289.755084 808.679529 
L 288 811.095599 
L 287.413029 811.953535 
L 284.727273 812.297947 
L 281.454545 811.981071 
L 281.412979 811.953535 
L 278.181818 810.154437 
L 274.909091 810.05635 
L 271.723789 808.679529 
L 271.636364 808.619434 
L 268.363636 807.426981 
L 265.090909 806.861524 
L 261.818182 807.102265 
L 258.545455 807.488699 
L 255.272727 807.872966 
L 252 808.255083 
L 250.053546 805.405523 
L 252 803.395887 
L 253.195785 802.131517 
L 252 800.935265 
L 248.727273 800.407804 
L 245.454545 800.407804 
L 244.2536 802.131517 
L 244.192357 805.405523 
L 245.454545 808.197432 
L 248.343138 808.679529 
L 247.20008 811.953535 
L 245.454545 813.476571 
L 242.181818 813.034949 
L 241.031369 813.079077 
M 222.28282 810.430611 
L 219.272727 810.717476 
L 216 811.121795 
L 212.727273 811.510415 
L 210.561307 808.679529 
L 209.454545 807.648413 
L 206.181818 807.648413 
L 202.909091 807.648413 
L 201.915486 808.679529 
L 202.909091 810.912586 
L 206.181818 811.388323 
L 208.833819 811.953535 
L 207.750007 815.227542 
M 358.03204 815.227542 
L 356.727273 814.467444 
L 355.712606 814.024945 
M 337.334205 811.25422 
L 337.090909 811.261995 
L 333.818182 811.434378 
L 330.545455 811.838069 
L 329.939342 811.953535 
L 327.272727 813.646727 
L 324.220135 815.227542 
M 393.906691 810.955587 
L 392.727273 810.501499 
L 389.454545 810.676468 
L 386.181818 810.877784 
L 382.909091 811.099618 
L 379.636364 811.345276 
L 376.363636 811.612265 
L 373.090909 811.92771 
L 372.882476 811.953535 
L 369.818182 813.859191 
L 366.545455 815.115051 
L 366.28883 815.227542 
M 445.069698 815.227542 
L 441.818182 813.015455 
L 440.510107 811.953535 
L 438.545455 810.514807 
L 436.27298 808.679529 
L 435.272727 807.903759 
L 433.206028 805.405523 
L 432 804.199024 
L 429.9333 802.131517 
L 428.727273 800.401945 
L 425.454545 800.009805 
L 422.181818 800.009805 
L 419.05827 799.875151 
M 421.698091 808.530448 
L 422.181818 808.56041 
L 423.807366 808.679529 
L 422.181818 808.95532 
L 418.909091 809.589534 
L 415.636364 810.35692 
L 412.363636 811.455965 
L 411.242512 811.953535 
L 409.090909 812.78474 
L 405.818182 813.790708 
L 402.80387 815.227542 
M 476.084751 815.227542 
L 475.804858 812.648405 
M 460.86373 803.130669 
L 458.181818 803.092283 
L 456.360653 805.405523 
L 456.133409 808.679529 
L 458.181818 811.673622 
L 461.454545 811.241218 
L 464.727273 810.790509 
L 468 810.308774 
L 469.644119 811.953535 
L 468 814.401154 
L 464.727273 814.179383 
L 461.454545 813.820078 
L 458.181818 813.351889 
L 454.909091 814.026607 
L 451.636364 814.192535 
L 448.363636 814.435248 
L 445.254785 815.227542 
M 382.669176 806.975954 
L 382.909091 806.97861 
L 386.181818 806.680843 
L 387.380438 805.405523 
L 386.181818 804.206435 
L 384.10771 802.131517 
L 382.909091 800.40325 
L 379.636364 800.071185 
L 376.363636 800.071185 
L 374.341829 799.994964 
M 288 803.544593 
L 291.272727 803.323712 
L 294.545455 803.32408 
L 295.733732 802.131517 
L 294.545455 800.942775 
L 291.272727 800.942775 
L 289.188277 798.857511 
L 288 797.132288 
L 286.802812 798.857511 
L 286.642713 802.131517 
L 288 803.544593 
z
M 330.545455 803.579585 
L 333.818182 803.32994 
L 337.090909 803.330311 
L 338.264153 802.131517 
L 337.090909 800.957814 
L 333.818182 800.957814 
L 331.718699 798.857511 
L 330.545455 797.13076 
L 329.35576 798.857511 
L 329.106346 802.131517 
L 330.545455 803.579585 
z
" clip-path="url(#pdeb7507d5a)" style="fill: none"/>
    <path d="M 189.004773 815.227542 
L 186.545455 815.093771 
L 183.272727 815.129828 
L 180 815.152419 
L 179.142577 815.227542 
M 243.591637 815.227542 
L 242.181818 814.469311 
L 238.909091 814.138553 
L 238.221809 814.15879 
M 219.599894 811.539249 
L 219.272727 811.570815 
L 216.040535 811.953535 
L 216 812.067329 
L 214.887314 815.227542 
M 291.07742 815.227542 
L 288 813.635762 
L 287.182617 813.550425 
M 269.197597 808.354677 
L 268.363636 808.043805 
L 265.090909 807.649823 
L 261.818182 807.915308 
L 258.545455 808.299456 
L 255.289214 808.679529 
L 255.272727 808.718871 
L 253.939637 811.953535 
L 253.30863 815.227542 
M 320.183977 815.227542 
L 317.454545 813.752644 
L 316.205223 813.220284 
M 298.11714 808.670895 
L 298.002755 808.679529 
L 297.818182 808.818481 
L 294.545455 811.555973 
L 294.148705 811.953535 
L 291.782116 815.227542 
M 356.388802 815.227542 
L 353.454545 813.661812 
L 352.749591 813.21209 
M 334.873331 814.540455 
L 334.0183 815.227542 
M 401.13592 815.227542 
L 399.272727 814.138534 
L 398.424455 813.754723 
M 379.956201 812.232136 
L 379.636364 812.369268 
L 376.363636 814.152205 
L 374.884729 815.227542 
M 443.965254 815.227542 
L 442.839779 814.461853 
M 425.787539 809.866676 
L 425.454545 809.924181 
L 422.181818 810.587432 
L 418.909091 811.376719 
L 416.855137 811.953535 
L 415.636364 812.512681 
L 412.363636 813.78036 
L 409.090909 814.81632 
L 407.963186 815.227542 
M 472.492992 815.227542 
L 474.545455 814.315348 
L 475.19165 811.953535 
L 474.545455 811.307088 
L 471.918922 808.679529 
L 471.272727 807.743235 
L 468.935929 805.405523 
L 468 804.469228 
L 464.727273 803.890548 
L 461.454545 803.64293 
L 458.181818 803.572666 
L 456.738849 805.405523 
L 456.452398 808.679529 
L 456.494375 808.740886 
M 468.241107 814.718746 
L 468 815.077685 
L 464.727273 815.077465 
L 461.454545 815.214063 
L 461.299736 815.227542 
M 202.909091 809.646396 
L 206.181818 809.852381 
L 209.454545 810.169893 
L 209.93375 808.679529 
L 209.454545 808.233077 
L 206.181818 808.233077 
L 202.909091 808.233077 
L 202.478881 808.679529 
L 202.909091 809.646396 
z
M 245.454545 807.038153 
L 248.727273 807.365067 
L 249.502841 805.405523 
L 252 802.827305 
L 252.658045 802.131517 
L 252 801.473214 
L 248.727273 801.18295 
L 245.454545 801.18295 
L 244.79366 802.131517 
L 244.716453 805.405523 
L 245.454545 807.038153 
z
M 382.667569 806.513397 
L 382.909091 806.515283 
L 386.181818 806.110528 
L 386.844423 805.405523 
L 386.181818 804.74266 
L 383.571695 802.131517 
L 382.909091 801.17612 
L 379.636364 800.678022 
L 376.363636 800.678022 
L 375.587647 800.634141 
M 427.916753 801.028487 
L 425.454545 800.585953 
L 422.181818 800.585953 
L 418.909091 800.374324 
L 415.636364 800.329908 
L 414.229684 802.131517 
L 413.928036 805.405523 
L 415.636364 807.834684 
L 418.909091 807.725644 
L 422.181818 807.855475 
L 422.43416 807.859431 
M 288 803.028284 
L 291.272727 802.788577 
L 294.545455 802.78878 
L 295.200356 802.131517 
L 294.545455 801.47636 
L 291.272727 801.47636 
L 288.654901 798.857511 
L 288 797.90668 
L 287.340187 798.857511 
L 287.138638 802.131517 
L 288 803.028284 
z
M 330.545455 803.107472 
L 333.818182 802.793016 
L 337.090909 802.793221 
L 337.73851 802.131517 
L 337.090909 801.483663 
L 333.818182 801.483663 
L 331.193056 798.857511 
L 330.545455 797.904388 
L 329.888773 798.857511 
L 329.575538 802.131517 
L 330.545455 803.107472 
z
" clip-path="url(#pdeb7507d5a)" style="fill: none"/>
    <path d="M 287.615504 815.227542 
L 284.727273 814.290208 
L 283.756661 814.255572 
M 266.252904 808.517123 
L 265.090909 808.438121 
L 262.354712 808.679529 
L 261.818182 809.600994 
L 260.770891 811.953535 
L 260.028002 815.227542 
M 318.879907 815.227542 
L 317.454545 814.457321 
L 316.324271 814.209381 
M 299.817832 814.580564 
L 299.427444 815.227542 
M 399.796979 815.227542 
L 399.272727 814.921124 
L 398.265257 814.500116 
M 380.581224 815.19842 
L 380.521758 815.227542 
M 442.860809 815.227542 
L 441.818182 814.518216 
L 440.412308 813.376902 
M 422.749639 812.264331 
L 422.181818 812.640302 
L 418.909091 814.554293 
L 416.571458 815.227542 
M 471.511713 814.065181 
L 474.545455 812.349714 
L 474.65385 811.953535 
L 474.545455 811.845098 
L 471.381122 808.679529 
L 471.272727 808.522472 
L 468.156996 805.405523 
L 468 805.248466 
L 464.727273 804.476892 
L 461.454545 804.146734 
L 458.181818 804.05305 
L 457.117044 805.405523 
L 456.816473 808.252476 
M 245.454545 805.878874 
L 248.727273 805.973657 
L 248.952135 805.405523 
L 252 802.258723 
L 252.120306 802.131517 
L 252 802.011164 
L 248.727273 801.958097 
L 245.454545 801.958097 
L 245.33372 802.131517 
L 245.240549 805.405523 
L 245.454545 805.878874 
z
M 382.607383 806.050583 
L 382.909091 806.051955 
L 386.181818 805.540213 
L 386.308408 805.405523 
L 386.181818 805.278884 
L 383.03568 802.131517 
L 382.909091 801.94899 
L 379.636364 801.28486 
L 376.773215 801.28486 
M 424.711691 801.1621 
L 422.181818 801.1621 
L 418.909091 800.879929 
L 415.636364 800.820707 
L 414.612895 802.131517 
L 414.249301 805.405523 
L 415.636364 807.37786 
L 418.909091 807.09359 
L 422.181818 807.15054 
L 422.686523 807.123372 
M 288 802.511975 
L 291.272727 802.253443 
L 294.545455 802.25348 
L 294.66698 802.131517 
L 294.545455 802.009944 
L 291.272727 802.009944 
L 288.121525 798.857511 
L 288 798.681072 
L 287.877563 798.857511 
L 287.634562 802.131517 
L 288 802.511975 
z
M 330.545455 802.635358 
L 333.818182 802.256092 
L 337.090909 802.256131 
L 337.212867 802.131517 
L 337.090909 802.009511 
L 333.818182 802.009511 
L 330.667413 798.857511 
L 330.545455 798.678016 
L 330.421787 798.857511 
L 330.04473 802.131517 
L 330.545455 802.635358 
z
" clip-path="url(#pdeb7507d5a)" style="fill: none"/>
    <path d="M 317.575837 815.227542 
L 317.454545 815.161999 
L 314.181818 815.120738 
L 310.909091 814.366138 
L 307.636364 814.941954 
L 307.239092 815.227542 
M 354.058933 815.227542 
L 353.454545 814.905038 
L 350.181818 814.843511 
L 348.65375 815.227542 
M 397.924823 815.227542 
L 396 814.449241 
L 392.727273 813.128652 
L 389.454545 814.244737 
L 386.974889 815.227542 
M 441.706676 815.227542 
L 440.63028 814.509655 
M 471.272727 812.781684 
L 472.654934 811.953535 
L 471.272727 810.570788 
L 471.007441 811.953535 
L 471.272727 812.781684 
z
M 465.915647 805.357523 
L 464.727273 805.063236 
L 461.454545 804.650539 
L 458.181818 804.533433 
L 457.49524 805.405523 
L 457.21179 807.697685 
M 373.090909 805.866152 
L 376.363636 805.821045 
L 379.636364 805.584411 
L 382.909091 805.588628 
L 384.025 805.405523 
L 382.909091 804.289178 
L 380.752272 802.131517 
L 379.636364 801.891697 
L 376.363636 801.891697 
L 373.090909 801.583248 
L 372.679468 802.131517 
L 372.634414 805.405523 
L 373.090909 805.866152 
z
M 425.105349 806.085035 
L 425.454545 806.041967 
L 428.727273 806.110246 
L 430.275551 805.405523 
L 428.727273 803.85664 
L 427.002824 802.131517 
L 425.454545 801.738248 
L 422.181818 801.738248 
L 418.996061 801.394906 
M 330.545455 802.163245 
L 330.8088 802.131517 
L 330.545455 801.868069 
L 330.513923 802.131517 
L 330.545455 802.163245 
z
" clip-path="url(#pdeb7507d5a)" style="fill: none"/>
    <path d="M 439.714458 815.227542 
L 438.545455 814.447891 
L 435.272727 813.433197 
L 432 813.797457 
L 429.470521 815.227542 
M 458.181818 809.808602 
L 461.454545 809.113307 
L 464.727273 808.913484 
L 466.510907 808.679529 
L 464.727273 806.895198 
L 463.23818 805.405523 
L 461.454545 805.154343 
L 458.181818 805.013816 
L 457.873436 805.405523 
L 457.409363 808.679529 
L 458.181818 809.808602 
z
M 373.090909 805.459849 
L 376.363636 805.407888 
L 376.394323 805.405523 
L 376.363636 805.374824 
L 373.121596 802.131517 
L 373.090909 802.128396 
L 373.088567 802.131517 
L 373.037071 805.405523 
L 373.090909 805.459849 
z
M 415.636364 806.464212 
L 418.909091 805.829483 
L 422.181818 805.740669 
L 424.144306 805.405523 
L 422.181818 803.442269 
L 420.871578 802.131517 
L 418.909091 801.891138 
L 415.636364 801.802305 
L 415.379318 802.131517 
L 414.891832 805.405523 
L 415.636364 806.464212 
z
" clip-path="url(#pdeb7507d5a)" style="fill: none"/>
    <path d="M 458.181818 809.342347 
L 461.078416 808.679529 
L 458.181818 805.7818 
L 457.728351 808.679529 
L 458.181818 809.342347 
z
M 415.636364 806.007388 
L 418.254769 805.405523 
L 415.636364 802.786095 
L 415.213097 805.405523 
L 415.636364 806.007388 
z
" clip-path="url(#pdeb7507d5a)" style="fill: none"/>
    <path d="M 458.181818 808.876092 
L 459.040821 808.679529 
L 458.181818 807.82019 
L 458.04734 808.679529 
L 458.181818 808.876092 
z
M 415.636364 805.550564 
L 416.267362 805.405523 
L 415.636364 804.774278 
L 415.534363 805.405523 
L 415.636364 805.550564 
z
" clip-path="url(#pdeb7507d5a)" style="fill: none"/>
    <path clip-path="url(#pdeb7507d5a)" style="fill: none"/>
    <path clip-path="url(#pdeb7507d5a)" style="fill: none"/>
    <path clip-path="url(#pdeb7507d5a)" style="fill: none"/>
    <path clip-path="url(#pdeb7507d5a)" style="fill: none"/>
    <path clip-path="url(#pdeb7507d5a)" style="fill: none"/>
    <path clip-path="url(#pdeb7507d5a)" style="fill: none"/>
    <path clip-path="url(#pdeb7507d5a)" style="fill: none"/>
    <path clip-path="url(#pdeb7507d5a)" style="fill: none"/>
    <path clip-path="url(#pdeb7507d5a)" style="fill: none"/>
    <path clip-path="url(#pdeb7507d5a)" style="fill: none"/>
    <path clip-path="url(#pdeb7507d5a)" style="fill: none"/>
    <path clip-path="url(#pdeb7507d5a)" style="fill: none"/>
    <path clip-path="url(#pdeb7507d5a)" style="fill: none"/>
    <path clip-path="url(#pdeb7507d5a)" style="fill: none"/>
    <path clip-path="url(#pdeb7507d5a)" style="fill: none"/>
    <path clip-path="url(#pdeb7507d5a)" style="fill: none"/>
    <path clip-path="url(#pdeb7507d5a)" style="fill: none"/>
    <path clip-path="url(#pdeb7507d5a)" style="fill: none"/>
    <path clip-path="url(#pdeb7507d5a)" style="fill: none"/>
    <path clip-path="url(#pdeb7507d5a)" style="fill: none"/>
    <path clip-path="url(#pdeb7507d5a)" style="fill: none"/>
    <path clip-path="url(#pdeb7507d5a)" style="fill: none"/>
    <path clip-path="url(#pdeb7507d5a)" style="fill: none"/>
    <path clip-path="url(#pdeb7507d5a)" style="fill: none"/>
    <path clip-path="url(#pdeb7507d5a)" style="fill: none"/>
    <path clip-path="url(#pdeb7507d5a)" style="fill: none"/>
    <path clip-path="url(#pdeb7507d5a)" style="fill: none"/>
    <path clip-path="url(#pdeb7507d5a)" style="fill: none"/>
    <path clip-path="url(#pdeb7507d5a)" style="fill: none"/>
    <path clip-path="url(#pdeb7507d5a)" style="fill: none"/>
   </g>
   <g id="text_1">
    <g clip-path="url(#pdeb7507d5a)">
     <!-- 0 -->
     <g style="opacity: 0" transform="translate(366.292802 814.120537) rotate(-4.826174) scale(0.12 -0.12)">
      <defs>
       <path id="DejaVuSans-30" d="M 2034 4250 
Q 1547 4250 1301 3770 
Q 1056 3291 1056 2328 
Q 1056 1369 1301 889 
Q 1547 409 2034 409 
Q 2525 409 2770 889 
Q 3016 1369 3016 2328 
Q 3016 3291 2770 3770 
Q 2525 4250 2034 4250 
z
M 2034 4750 
Q 2819 4750 3233 4129 
Q 3647 3509 3647 2328 
Q 3647 1150 3233 529 
Q 2819 -91 2034 -91 
Q 1250 -91 836 529 
Q 422 1150 422 2328 
Q 422 3509 836 4129 
Q 1250 4750 2034 4750 
z
" transform="scale(0.015625)"/>
      </defs>
      <use xlink:href="#DejaVuSans-30"/>
     </g>
    </g>
   </g>
   <g id="text_2">
    <g clip-path="url(#pdeb7507d5a)">
     <!-- 0 -->
     <g style="opacity: 0" transform="translate(391.484684 809.448214) rotate(-85.933751) scale(0.12 -0.12)">
      <use xlink:href="#DejaVuSans-30"/>
     </g>
    </g>
   </g>
   <g id="text_3">
    <g clip-path="url(#pdeb7507d5a)">
     <!-- 1 -->
     <g style="opacity: 0" transform="translate(287.681697 811.283666) rotate(-3.777878) scale(0.12 -0.12)">
      <defs>
       <path id="DejaVuSans-31" d="M 794 531 
L 1825 531 
L 1825 4091 
L 703 3866 
L 703 4441 
L 1819 4666 
L 2450 4666 
L 2450 531 
L 3481 531 
L 3481 0 
L 794 0 
L 794 531 
z
" transform="scale(0.015625)"/>
      </defs>
      <use xlink:href="#DejaVuSans-31"/>
     </g>
    </g>
   </g>
   <g id="text_4">
    <g clip-path="url(#pdeb7507d5a)">
     <!-- 1 -->
     <g style="opacity: 0" transform="translate(425.418379 802.162474) rotate(-319.413042) scale(0.12 -0.12)">
      <use xlink:href="#DejaVuSans-31"/>
     </g>
    </g>
   </g>
   <g id="text_5">
    <g clip-path="url(#pdeb7507d5a)">
     <!-- 1 -->
     <g style="opacity: 0" transform="translate(368.130501 808.456781) rotate(-330.075559) scale(0.12 -0.12)">
      <use xlink:href="#DejaVuSans-31"/>
     </g>
    </g>
   </g>
   <g id="text_6">
    <g clip-path="url(#pdeb7507d5a)">
     <!-- 2 -->
     <g style="opacity: 0" transform="translate(185.969234 817.640638) rotate(-359.452827) scale(0.12 -0.12)">
      <defs>
       <path id="DejaVuSans-32" d="M 1228 531 
L 3431 531 
L 3431 0 
L 469 0 
L 469 531 
Q 828 903 1448 1529 
Q 2069 2156 2228 2338 
Q 2531 2678 2651 2914 
Q 2772 3150 2772 3378 
Q 2772 3750 2511 3984 
Q 2250 4219 1831 4219 
Q 1534 4219 1204 4116 
Q 875 4013 500 3803 
L 500 4441 
Q 881 4594 1212 4672 
Q 1544 4750 1819 4750 
Q 2544 4750 2975 4387 
Q 3406 4025 3406 3419 
Q 3406 3131 3298 2873 
Q 3191 2616 2906 2266 
Q 2828 2175 2409 1742 
Q 1991 1309 1228 531 
z
" transform="scale(0.015625)"/>
      </defs>
      <use xlink:href="#DejaVuSans-32"/>
     </g>
    </g>
   </g>
   <g id="text_7">
    <g clip-path="url(#pdeb7507d5a)">
     <!-- 2 -->
     <g style="opacity: 0" transform="translate(227.18349 814.235324) rotate(-345.903814) scale(0.12 -0.12)">
      <use xlink:href="#DejaVuSans-32"/>
     </g>
    </g>
   </g>
   <g id="text_8">
    <g clip-path="url(#pdeb7507d5a)">
     <!-- 2 -->
     <g style="opacity: 0" transform="translate(342.845014 813.92682) rotate(-355.52773) scale(0.12 -0.12)">
      <use xlink:href="#DejaVuSans-32"/>
     </g>
    </g>
   </g>
   <g id="text_9">
    <g clip-path="url(#pdeb7507d5a)">
     <!-- 2 -->
     <g style="opacity: 0" transform="translate(397.531041 816.274593) rotate(-331.02002) scale(0.12 -0.12)">
      <use xlink:href="#DejaVuSans-32"/>
     </g>
    </g>
   </g>
   <g id="text_10">
    <g clip-path="url(#pdeb7507d5a)">
     <!-- 2 -->
     <g style="opacity: 0" transform="translate(409.358855 802.668209) rotate(-286.264733) scale(0.12 -0.12)">
      <use xlink:href="#DejaVuSans-32"/>
     </g>
    </g>
   </g>
   <g id="text_11">
    <g clip-path="url(#pdeb7507d5a)">
     <!-- 2 -->
     <g style="opacity: 0" transform="translate(464.670009 805.700725) rotate(-322.410925) scale(0.12 -0.12)">
      <use xlink:href="#DejaVuSans-32"/>
     </g>
    </g>
   </g>
   <g id="text_12">
    <g clip-path="url(#pdeb7507d5a)">
     <!-- 2 -->
     <g style="opacity: 0" transform="translate(368.094375 807.841584) rotate(-327.671812) scale(0.12 -0.12)">
      <use xlink:href="#DejaVuSans-32"/>
     </g>
    </g>
   </g>
   <g id="text_13">
    <g clip-path="url(#pdeb7507d5a)">
     <!-- 3 -->
     <g style="opacity: 0" transform="translate(224.533743 814.213607) rotate(-344.668062) scale(0.12 -0.12)">
      <defs>
       <path id="DejaVuSans-33" d="M 2597 2516 
Q 3050 2419 3304 2112 
Q 3559 1806 3559 1356 
Q 3559 666 3084 287 
Q 2609 -91 1734 -91 
Q 1441 -91 1130 -33 
Q 819 25 488 141 
L 488 750 
Q 750 597 1062 519 
Q 1375 441 1716 441 
Q 2309 441 2620 675 
Q 2931 909 2931 1356 
Q 2931 1769 2642 2001 
Q 2353 2234 1838 2234 
L 1294 2234 
L 1294 2753 
L 1863 2753 
Q 2328 2753 2575 2939 
Q 2822 3125 2822 3475 
Q 2822 3834 2567 4026 
Q 2313 4219 1838 4219 
Q 1578 4219 1281 4162 
Q 984 4106 628 3988 
L 628 4550 
Q 988 4650 1302 4700 
Q 1616 4750 1894 4750 
Q 2613 4750 3031 4423 
Q 3450 4097 3450 3541 
Q 3450 3153 3228 2886 
Q 3006 2619 2597 2516 
z
" transform="scale(0.015625)"/>
      </defs>
      <use xlink:href="#DejaVuSans-33"/>
     </g>
    </g>
   </g>
   <g id="text_14">
    <g clip-path="url(#pdeb7507d5a)">
     <!-- 3 -->
     <g style="opacity: 0" transform="translate(273.57052 813.143053) rotate(-343.209012) scale(0.12 -0.12)">
      <use xlink:href="#DejaVuSans-33"/>
     </g>
    </g>
   </g>
   <g id="text_15">
    <g clip-path="url(#pdeb7507d5a)">
     <!-- 3 -->
     <g style="opacity: 0" transform="translate(303.020787 811.04087) rotate(-343.090158) scale(0.12 -0.12)">
      <use xlink:href="#DejaVuSans-33"/>
     </g>
    </g>
   </g>
   <g id="text_16">
    <g clip-path="url(#pdeb7507d5a)">
     <!-- 3 -->
     <g style="opacity: 0" transform="translate(339.958793 815.123254) rotate(-2.365627) scale(0.12 -0.12)">
      <use xlink:href="#DejaVuSans-33"/>
     </g>
    </g>
   </g>
   <g id="text_17">
    <g clip-path="url(#pdeb7507d5a)">
     <!-- 3 -->
     <g style="opacity: 0" transform="translate(385.614479 814.559773) rotate(-359.607977) scale(0.12 -0.12)">
      <use xlink:href="#DejaVuSans-33"/>
     </g>
    </g>
   </g>
   <g id="text_18">
    <g clip-path="url(#pdeb7507d5a)">
     <!-- 3 -->
     <g style="opacity: 0" transform="translate(430.693545 810.692129) rotate(-344.08427) scale(0.12 -0.12)">
      <use xlink:href="#DejaVuSans-33"/>
     </g>
    </g>
   </g>
   <g id="text_19">
    <g clip-path="url(#pdeb7507d5a)">
     <!-- 3 -->
     <g style="opacity: 0" transform="translate(460.89056 813.610222) rotate(-359.66643) scale(0.12 -0.12)">
      <use xlink:href="#DejaVuSans-33"/>
     </g>
    </g>
   </g>
   <g id="text_20">
    <g clip-path="url(#pdeb7507d5a)">
     <!-- 3 -->
     <g style="opacity: 0" transform="translate(368.065299 807.208781) rotate(-325.082483) scale(0.12 -0.12)">
      <use xlink:href="#DejaVuSans-33"/>
     </g>
    </g>
   </g>
   <g id="text_21">
    <g clip-path="url(#pdeb7507d5a)">
     <!-- 3 -->
     <g style="opacity: 0" transform="translate(431.511415 813.359407) rotate(-43.51387) scale(0.12 -0.12)">
      <use xlink:href="#DejaVuSans-33"/>
     </g>
    </g>
   </g>
   <g id="text_22">
    <g clip-path="url(#pdeb7507d5a)">
     <!-- 4 -->
     <g style="opacity: 0" transform="translate(228.569771 818.488068) rotate(-0.407285) scale(0.12 -0.12)">
      <defs>
       <path id="DejaVuSans-34" d="M 2419 4116 
L 825 1625 
L 2419 1625 
L 2419 4116 
z
M 2253 4666 
L 3047 4666 
L 3047 1625 
L 3713 1625 
L 3713 1100 
L 3047 1100 
L 3047 0 
L 2419 0 
L 2419 1100 
L 313 1100 
L 313 1709 
L 2253 4666 
z
" transform="scale(0.015625)"/>
      </defs>
      <use xlink:href="#DejaVuSans-34"/>
     </g>
    </g>
   </g>
   <g id="text_23">
    <g clip-path="url(#pdeb7507d5a)">
     <!-- 4 -->
     <g style="opacity: 0" transform="translate(270.305238 813.570633) rotate(-343.414545) scale(0.12 -0.12)">
      <use xlink:href="#DejaVuSans-34"/>
     </g>
    </g>
   </g>
   <g id="text_24">
    <g clip-path="url(#pdeb7507d5a)">
     <!-- 4 -->
     <g style="opacity: 0" transform="translate(303.53163 813.726415) rotate(-354.744876) scale(0.12 -0.12)">
      <use xlink:href="#DejaVuSans-34"/>
     </g>
    </g>
   </g>
   <g id="text_25">
    <g clip-path="url(#pdeb7507d5a)">
     <!-- 4 -->
     <g style="opacity: 0" transform="translate(343.465904 816.253044) rotate(-6.112871) scale(0.12 -0.12)">
      <use xlink:href="#DejaVuSans-34"/>
     </g>
    </g>
   </g>
   <g id="text_26">
    <g clip-path="url(#pdeb7507d5a)">
     <!-- 4 -->
     <g style="opacity: 0" transform="translate(385.977494 815.540095) rotate(-5.586057) scale(0.12 -0.12)">
      <use xlink:href="#DejaVuSans-34"/>
     </g>
    </g>
   </g>
   <g id="text_27">
    <g clip-path="url(#pdeb7507d5a)">
     <!-- 4 -->
     <g style="opacity: 0" transform="translate(428.318434 813.628424) rotate(-2.299542) scale(0.12 -0.12)">
      <use xlink:href="#DejaVuSans-34"/>
     </g>
    </g>
   </g>
   <g id="text_28">
    <g clip-path="url(#pdeb7507d5a)">
     <!-- 4 -->
     <g style="opacity: 0" transform="translate(460.885191 813.134692) rotate(-359.572815) scale(0.12 -0.12)">
      <use xlink:href="#DejaVuSans-34"/>
     </g>
    </g>
   </g>
   <g id="text_29">
    <g clip-path="url(#pdeb7507d5a)">
     <!-- 4 -->
     <g style="opacity: 0" transform="translate(368.042723 806.503749) rotate(-321.685362) scale(0.12 -0.12)">
      <use xlink:href="#DejaVuSans-34"/>
     </g>
    </g>
   </g>
   <g id="text_30">
    <g clip-path="url(#pdeb7507d5a)">
     <!-- 4 -->
     <g style="opacity: 0" transform="translate(433.763567 810.706764) rotate(-69.487031) scale(0.12 -0.12)">
      <use xlink:href="#DejaVuSans-34"/>
     </g>
    </g>
   </g>
   <g id="text_31">
    <g clip-path="url(#pdeb7507d5a)">
     <!-- 5 -->
     <g style="opacity: 0" transform="translate(428.579792 815.181872) rotate(-6.467793) scale(0.12 -0.12)">
      <defs>
       <path id="DejaVuSans-35" d="M 691 4666 
L 3169 4666 
L 3169 4134 
L 1269 4134 
L 1269 2991 
Q 1406 3038 1543 3061 
Q 1681 3084 1819 3084 
Q 2600 3084 3056 2656 
Q 3513 2228 3513 1497 
Q 3513 744 3044 326 
Q 2575 -91 1722 -91 
Q 1428 -91 1123 -41 
Q 819 9 494 109 
L 494 744 
Q 775 591 1075 516 
Q 1375 441 1709 441 
Q 2250 441 2565 725 
Q 2881 1009 2881 1497 
Q 2881 1984 2565 2268 
Q 2250 2553 1709 2553 
Q 1456 2553 1204 2497 
Q 953 2441 691 2322 
L 691 4666 
z
" transform="scale(0.015625)"/>
      </defs>
      <use xlink:href="#DejaVuSans-35"/>
     </g>
    </g>
   </g>
   <g id="text_32">
    <g clip-path="url(#pdeb7507d5a)">
     <!-- 5 -->
     <g style="opacity: 0" transform="translate(461.431876 813.213934) rotate(-8.361619) scale(0.12 -0.12)">
      <use xlink:href="#DejaVuSans-35"/>
     </g>
    </g>
   </g>
   <g id="text_33">
    <g clip-path="url(#pdeb7507d5a)">
     <!-- 5 -->
     <g style="opacity: 0" transform="translate(410.599663 807.33253) rotate(-323.732695) scale(0.12 -0.12)">
      <use xlink:href="#DejaVuSans-35"/>
     </g>
    </g>
   </g>
  </g>
 </g>
 <defs>
  <clipPath id="pdeb7507d5a">
   <rect x="0" y="0" width="576" height="815.227542"/>
  </clipPath>
 </defs>
</svg>
