<?xml version="1.0" encoding="utf-8" standalone="no"?>
<!DOCTYPE svg PUBLIC "-//W3C//DTD SVG 1.1//EN"
  "http://www.w3.org/Graphics/SVG/1.1/DTD/svg11.dtd">
<svg xmlns:xlink="http://www.w3.org/1999/xlink" width="576pt" height="815.79817pt" viewBox="0 0 576 815.79817" xmlns="http://www.w3.org/2000/svg" version="1.1">
 <metadata>
  <rdf:RDF xmlns:dc="http://purl.org/dc/elements/1.1/" xmlns:cc="http://creativecommons.org/ns#" xmlns:rdf="http://www.w3.org/1999/02/22-rdf-syntax-ns#">
   <cc:Work>
    <dc:type rdf:resource="http://purl.org/dc/dcmitype/StillImage"/>
    <dc:date>2025-07-25T22:44:52.277733</dc:date>
    <dc:format>image/svg+xml</dc:format>
    <dc:creator>
     <cc:Agent>
      <dc:title>Matplotlib v3.10.3, https://matplotlib.org/</dc:title>
     </cc:Agent>
    </dc:creator>
   </cc:Work>
  </rdf:RDF>
 </metadata>
 <defs>
  <style type="text/css">*{stroke-linejoin: round; stroke-linecap: butt}</style>
 </defs>
 <g id="figure_1">
  <g id="patch_1">
   <path d="M 0 815.79817 
L 576 815.79817 
L 576 0 
L 0 0 
L 0 815.79817 
z
" style="fill: none; opacity: 0"/>
  </g>
  <g id="axes_1">
   <g id="QuadContourSet_1">
    <path d="M 520.363636 815.79817 
L 523.636364 815.79817 
L 525.177755 815.79817 
L 526.876618 812.521872 
L 526.909091 812.460506 
L 529.029676 809.245574 
L 530.181818 807.163605 
L 530.921387 805.969277 
L 532.969816 802.692979 
L 533.454545 802.039422 
L 535.809159 799.416681 
L 536.727273 798.371324 
L 540 797.123387 
L 540.656923 796.140383 
L 543.272727 793.549211 
L 544.597976 792.864085 
L 546.348401 789.587787 
L 546.545455 789.102605 
L 548.552618 786.311489 
L 549.818182 785.006502 
L 550.730206 783.035191 
L 551.870473 779.758894 
L 553.090909 777.778516 
L 553.813715 776.482596 
L 556.363636 773.403745 
L 556.753323 773.206298 
L 559.636364 770.680394 
L 562.909091 770.220376 
L 566.181818 769.996713 
L 566.305251 769.93 
L 567.971971 766.653702 
L 569.454545 764.932186 
L 571.897835 763.377404 
L 572.727273 762.04213 
L 573.261947 760.101106 
L 575.077481 756.824808 
L 576 755.543477 
L 576 753.548511 
L 576 750.272213 
L 576 748.5653 
L 574.874109 750.272213 
L 573.037756 753.548511 
L 572.727273 753.938735 
L 570.339592 756.824808 
L 569.454545 758.958378 
L 566.181818 759.683616 
L 565.739795 760.101106 
L 562.909091 762.262757 
L 561.830407 763.377404 
L 559.636364 765.451372 
L 558.469724 766.653702 
L 556.363636 768.65376 
L 555.12249 769.93 
L 553.090909 771.866911 
L 551.906935 773.206298 
L 549.822045 776.482596 
L 549.818182 776.487945 
L 547.964396 779.758894 
L 546.545455 782.262571 
L 545.586454 783.035191 
L 543.272727 785.884187 
L 542.913437 786.311489 
L 540 788.787992 
L 539.407458 789.587787 
L 536.727273 792.567887 
L 536.498106 792.864085 
L 533.789327 796.140383 
L 533.454545 796.516401 
L 531.260935 799.416681 
L 530.181818 800.835009 
L 529.103301 802.692979 
L 527.333427 805.969277 
L 526.909091 806.653645 
L 524.980103 809.245574 
L 523.659305 812.521872 
L 523.636364 812.561093 
L 520.363636 814.249935 
L 519.052736 815.79817 
z
M 553.090909 815.79817 
L 556.363636 815.79817 
L 559.636364 815.79817 
L 562.346018 815.79817 
L 562.909091 815.159179 
L 564.560225 812.521872 
L 566.181818 810.268796 
L 566.976474 809.245574 
L 568.960956 805.969277 
L 569.454545 805.191719 
L 571.345901 802.692979 
L 572.727273 800.235742 
L 573.239417 799.416681 
L 575.539277 796.140383 
L 576 795.318142 
L 576 792.864085 
L 576 789.587787 
L 576 786.311489 
L 576 783.767284 
L 572.727273 784.937972 
L 571.552369 786.311489 
L 569.454545 788.851641 
L 569.171852 789.587787 
L 566.740973 792.864085 
L 566.181818 793.466388 
L 564.768845 796.140383 
L 562.909091 798.729033 
L 562.457279 799.416681 
L 560.57956 802.692979 
L 559.636364 804.104625 
L 558.14892 805.969277 
L 556.462116 809.245574 
L 556.363636 809.394737 
L 553.34856 812.521872 
L 553.090909 812.980079 
L 550.26002 815.79817 
z
" clip-path="url(#p0807e978e1)" style="fill: #f5f9fe; fill-opacity: 0.9"/>
    <path d="M 526.909091 815.79817 
L 530.181818 815.79817 
L 533.454545 815.79817 
L 536.727273 815.79817 
L 540 815.79817 
L 543.272727 815.79817 
L 546.545455 815.79817 
L 549.818182 815.79817 
L 550.26002 815.79817 
L 553.090909 812.980079 
L 553.34856 812.521872 
L 556.363636 809.394737 
L 556.462116 809.245574 
L 558.14892 805.969277 
L 559.636364 804.104625 
L 560.57956 802.692979 
L 562.457279 799.416681 
L 562.909091 798.729033 
L 564.768845 796.140383 
L 566.181818 793.466388 
L 566.740973 792.864085 
L 569.171852 789.587787 
L 569.454545 788.851641 
L 571.552369 786.311489 
L 572.727273 784.937972 
L 576 783.767284 
L 576 783.035191 
L 576 779.758894 
L 576 776.482596 
L 576 773.206298 
L 576 769.93 
L 576 766.653702 
L 576 763.377404 
L 576 760.101106 
L 576 756.824808 
L 576 755.543477 
L 575.077481 756.824808 
L 573.261947 760.101106 
L 572.727273 762.04213 
L 571.897835 763.377404 
L 569.454545 764.932186 
L 567.971971 766.653702 
L 566.305251 769.93 
L 566.181818 769.996713 
L 562.909091 770.220376 
L 559.636364 770.680394 
L 556.753323 773.206298 
L 556.363636 773.403745 
L 553.813715 776.482596 
L 553.090909 777.778516 
L 551.870473 779.758894 
L 550.730206 783.035191 
L 549.818182 785.006502 
L 548.552618 786.311489 
L 546.545455 789.102605 
L 546.348401 789.587787 
L 544.597976 792.864085 
L 543.272727 793.549211 
L 540.656923 796.140383 
L 540 797.123387 
L 536.727273 798.371324 
L 535.809159 799.416681 
L 533.454545 802.039422 
L 532.969816 802.692979 
L 530.921387 805.969277 
L 530.181818 807.163605 
L 529.029676 809.245574 
L 526.909091 812.460506 
L 526.876618 812.521872 
L 525.177755 815.79817 
z
M 562.089495 783.035191 
L 562.909091 782.205289 
L 563.490992 783.035191 
L 562.909091 783.913067 
z
" clip-path="url(#p0807e978e1)" style="fill: #eff6fc; fill-opacity: 0.9"/>
    <path d="M 562.909091 783.913067 
L 563.490992 783.035191 
L 562.909091 782.205289 
L 562.089495 783.035191 
z
" clip-path="url(#p0807e978e1)" style="fill: #eaf3fb; fill-opacity: 0.9"/>
    <path clip-path="url(#p0807e978e1)" style="fill: #e5eff9; fill-opacity: 0.9"/>
    <path clip-path="url(#p0807e978e1)" style="fill: #dfecf7; fill-opacity: 0.9"/>
    <path clip-path="url(#p0807e978e1)" style="fill: #dae8f6; fill-opacity: 0.9"/>
    <path clip-path="url(#p0807e978e1)" style="fill: #d6e5f4; fill-opacity: 0.9"/>
    <path clip-path="url(#p0807e978e1)" style="fill: #d0e2f2; fill-opacity: 0.9"/>
    <path clip-path="url(#p0807e978e1)" style="fill: #cbdef1; fill-opacity: 0.9"/>
    <path clip-path="url(#p0807e978e1)" style="fill: #c6dbef; fill-opacity: 0.9"/>
    <path clip-path="url(#p0807e978e1)" style="fill: #bed8ec; fill-opacity: 0.9"/>
    <path clip-path="url(#p0807e978e1)" style="fill: #b5d4e9; fill-opacity: 0.9"/>
    <path clip-path="url(#p0807e978e1)" style="fill: #add0e6; fill-opacity: 0.9"/>
    <path clip-path="url(#p0807e978e1)" style="fill: #a5cde3; fill-opacity: 0.9"/>
    <path clip-path="url(#p0807e978e1)" style="fill: #9cc9e1; fill-opacity: 0.9"/>
    <path clip-path="url(#p0807e978e1)" style="fill: #91c3de; fill-opacity: 0.9"/>
    <path clip-path="url(#p0807e978e1)" style="fill: #85bcdc; fill-opacity: 0.9"/>
    <path clip-path="url(#p0807e978e1)" style="fill: #7cb7da; fill-opacity: 0.9"/>
    <path clip-path="url(#p0807e978e1)" style="fill: #71b1d7; fill-opacity: 0.9"/>
    <path clip-path="url(#p0807e978e1)" style="fill: #66abd4; fill-opacity: 0.9"/>
    <path clip-path="url(#p0807e978e1)" style="fill: #5da5d1; fill-opacity: 0.9"/>
    <path clip-path="url(#p0807e978e1)" style="fill: #56a0ce; fill-opacity: 0.9"/>
    <path clip-path="url(#p0807e978e1)" style="fill: #4d99ca; fill-opacity: 0.9"/>
    <path clip-path="url(#p0807e978e1)" style="fill: #4493c7; fill-opacity: 0.9"/>
    <path clip-path="url(#p0807e978e1)" style="fill: #3c8cc3; fill-opacity: 0.9"/>
    <path clip-path="url(#p0807e978e1)" style="fill: #3686c0; fill-opacity: 0.9"/>
    <path clip-path="url(#p0807e978e1)" style="fill: #2f7fbc; fill-opacity: 0.9"/>
    <path clip-path="url(#p0807e978e1)" style="fill: #2777b8; fill-opacity: 0.9"/>
    <path clip-path="url(#p0807e978e1)" style="fill: #2070b4; fill-opacity: 0.9"/>
    <path clip-path="url(#p0807e978e1)" style="fill: #1c6ab0; fill-opacity: 0.9"/>
    <path clip-path="url(#p0807e978e1)" style="fill: #1663aa; fill-opacity: 0.9"/>
    <path clip-path="url(#p0807e978e1)" style="fill: #115ca5; fill-opacity: 0.9"/>
    <path clip-path="url(#p0807e978e1)" style="fill: #0c56a0; fill-opacity: 0.9"/>
    <path clip-path="url(#p0807e978e1)" style="fill: #084f99; fill-opacity: 0.9"/>
    <path clip-path="url(#p0807e978e1)" style="fill: #08488e; fill-opacity: 0.9"/>
    <path clip-path="url(#p0807e978e1)" style="fill: #084184; fill-opacity: 0.9"/>
    <path clip-path="url(#p0807e978e1)" style="fill: #083a7a; fill-opacity: 0.9"/>
    <path clip-path="url(#p0807e978e1)" style="fill: #083370; fill-opacity: 0.9"/>
    <path clip-path="url(#p0807e978e1)" style="fill: #08306b; fill-opacity: 0.9"/>
   </g>
   <g id="QuadContourSet_2">
    <path d="M 562.346018 815.79817 
L 562.909091 815.159179 
L 563.677548 813.931746 
M 574.230883 798.004274 
L 575.539277 796.140383 
L 576 795.318142 
M 576 748.5653 
L 574.874109 750.272213 
L 573.037756 753.548511 
L 572.727273 753.938735 
L 570.339592 756.824808 
L 569.454545 758.958378 
L 566.181818 759.683616 
L 565.739795 760.101106 
L 562.909091 762.262757 
L 561.830407 763.377404 
L 559.636364 765.451372 
L 558.469724 766.653702 
L 556.363636 768.65376 
L 555.12249 769.93 
L 553.090909 771.866911 
L 551.906935 773.206298 
L 549.822045 776.482596 
L 549.818182 776.487945 
L 547.964396 779.758894 
L 546.545455 782.262571 
L 545.586454 783.035191 
L 543.37903 785.753292 
M 530.779637 800.049271 
L 530.181818 800.835009 
L 529.103301 802.692979 
L 527.333427 805.969277 
L 526.909091 806.653645 
L 524.980103 809.245574 
L 523.659305 812.521872 
L 523.636364 812.561093 
L 520.363636 814.249935 
L 519.052736 815.79817 
" clip-path="url(#p0807e978e1)" style="fill: none"/>
    <path d="M 550.26002 815.79817 
L 553.090909 812.980079 
L 553.34856 812.521872 
L 556.363636 809.394737 
L 556.462116 809.245574 
L 558.14892 805.969277 
L 559.636364 804.104625 
L 560.57956 802.692979 
L 562.457279 799.416681 
L 562.909091 798.729033 
L 564.768845 796.140383 
L 565.884561 794.028936 
M 576 755.543477 
L 575.077481 756.824808 
L 573.261947 760.101106 
L 572.727273 762.04213 
L 571.897835 763.377404 
L 569.454545 764.932186 
L 567.971971 766.653702 
L 566.305251 769.93 
L 566.181818 769.996713 
L 562.909091 770.220376 
L 559.636364 770.680394 
L 557.786692 772.300938 
M 547.286626 788.071949 
L 546.545455 789.102605 
L 546.348401 789.587787 
L 544.597976 792.864085 
L 543.272727 793.549211 
L 540.656923 796.140383 
L 540 797.123387 
L 536.727273 798.371324 
L 535.809159 799.416681 
L 533.454545 802.039422 
L 532.969816 802.692979 
L 530.921387 805.969277 
L 530.181818 807.163605 
L 529.029676 809.245574 
L 526.909091 812.460506 
L 526.876618 812.521872 
L 525.177755 815.79817 
" clip-path="url(#p0807e978e1)" style="fill: none"/>
    <path d="M 562.909091 783.913067 
L 563.490992 783.035191 
L 562.909091 782.205289 
L 562.089495 783.035191 
L 562.909091 783.913067 
z
" clip-path="url(#p0807e978e1)" style="fill: none"/>
    <path clip-path="url(#p0807e978e1)" style="fill: none"/>
    <path clip-path="url(#p0807e978e1)" style="fill: none"/>
    <path clip-path="url(#p0807e978e1)" style="fill: none"/>
    <path clip-path="url(#p0807e978e1)" style="fill: none"/>
    <path clip-path="url(#p0807e978e1)" style="fill: none"/>
    <path clip-path="url(#p0807e978e1)" style="fill: none"/>
    <path clip-path="url(#p0807e978e1)" style="fill: none"/>
    <path clip-path="url(#p0807e978e1)" style="fill: none"/>
    <path clip-path="url(#p0807e978e1)" style="fill: none"/>
    <path clip-path="url(#p0807e978e1)" style="fill: none"/>
    <path clip-path="url(#p0807e978e1)" style="fill: none"/>
    <path clip-path="url(#p0807e978e1)" style="fill: none"/>
    <path clip-path="url(#p0807e978e1)" style="fill: none"/>
    <path clip-path="url(#p0807e978e1)" style="fill: none"/>
    <path clip-path="url(#p0807e978e1)" style="fill: none"/>
    <path clip-path="url(#p0807e978e1)" style="fill: none"/>
    <path clip-path="url(#p0807e978e1)" style="fill: none"/>
    <path clip-path="url(#p0807e978e1)" style="fill: none"/>
    <path clip-path="url(#p0807e978e1)" style="fill: none"/>
    <path clip-path="url(#p0807e978e1)" style="fill: none"/>
    <path clip-path="url(#p0807e978e1)" style="fill: none"/>
    <path clip-path="url(#p0807e978e1)" style="fill: none"/>
    <path clip-path="url(#p0807e978e1)" style="fill: none"/>
    <path clip-path="url(#p0807e978e1)" style="fill: none"/>
    <path clip-path="url(#p0807e978e1)" style="fill: none"/>
    <path clip-path="url(#p0807e978e1)" style="fill: none"/>
    <path clip-path="url(#p0807e978e1)" style="fill: none"/>
    <path clip-path="url(#p0807e978e1)" style="fill: none"/>
    <path clip-path="url(#p0807e978e1)" style="fill: none"/>
    <path clip-path="url(#p0807e978e1)" style="fill: none"/>
    <path clip-path="url(#p0807e978e1)" style="fill: none"/>
    <path clip-path="url(#p0807e978e1)" style="fill: none"/>
    <path clip-path="url(#p0807e978e1)" style="fill: none"/>
    <path clip-path="url(#p0807e978e1)" style="fill: none"/>
    <path clip-path="url(#p0807e978e1)" style="fill: none"/>
    <path clip-path="url(#p0807e978e1)" style="fill: none"/>
   </g>
   <g id="text_1">
    <g clip-path="url(#p0807e978e1)">
     <!-- 0 -->
     <g style="opacity: 0" transform="translate(569.576236 810.985163) rotate(-56.055384) scale(0.12 -0.12)">
      <defs>
       <path id="DejaVuSans-30" d="M 2034 4250 
Q 1547 4250 1301 3770 
Q 1056 3291 1056 2328 
Q 1056 1369 1301 889 
Q 1547 409 2034 409 
Q 2525 409 2770 889 
Q 3016 1369 3016 2328 
Q 3016 3291 2770 3770 
Q 2525 4250 2034 4250 
z
M 2034 4750 
Q 2819 4750 3233 4129 
Q 3647 3509 3647 2328 
Q 3647 1150 3233 529 
Q 2819 -91 2034 -91 
Q 1250 -91 836 529 
Q 422 1150 422 2328 
Q 422 3509 836 4129 
Q 1250 4750 2034 4750 
z
" transform="scale(0.015625)"/>
      </defs>
      <use xlink:href="#DejaVuSans-30"/>
     </g>
    </g>
   </g>
   <g id="text_2">
    <g clip-path="url(#p0807e978e1)">
     <!-- 0 -->
     <g style="opacity: 0" transform="translate(536.77006 797.621188) rotate(-49.547182) scale(0.12 -0.12)">
      <use xlink:href="#DejaVuSans-30"/>
     </g>
    </g>
   </g>
   <g id="text_3">
    <g clip-path="url(#p0807e978e1)">
     <!-- 1 -->
     <g style="opacity: 0" transform="translate(570.945596 791.328412) rotate(-42.165904) scale(0.12 -0.12)">
      <defs>
       <path id="DejaVuSans-31" d="M 794 531 
L 1825 531 
L 1825 4091 
L 703 3866 
L 703 4441 
L 1819 4666 
L 2450 4666 
L 2450 531 
L 3481 531 
L 3481 0 
L 794 0 
L 794 531 
z
" transform="scale(0.015625)"/>
      </defs>
      <use xlink:href="#DejaVuSans-31"/>
     </g>
    </g>
   </g>
   <g id="text_4">
    <g clip-path="url(#p0807e978e1)">
     <!-- 1 -->
     <g style="opacity: 0" transform="translate(553.091335 784.662686) rotate(-63.042361) scale(0.12 -0.12)">
      <use xlink:href="#DejaVuSans-31"/>
     </g>
    </g>
   </g>
  </g>
 </g>
 <defs>
  <clipPath id="p0807e978e1">
   <rect x="0" y="0" width="576" height="815.79817"/>
  </clipPath>
 </defs>
</svg>
