<?xml version="1.0" encoding="utf-8" standalone="no"?>
<!DOCTYPE svg PUBLIC "-//W3C//DTD SVG 1.1//EN"
  "http://www.w3.org/Graphics/SVG/1.1/DTD/svg11.dtd">
<svg xmlns:xlink="http://www.w3.org/1999/xlink" width="576pt" height="816.083933pt" viewBox="0 0 576 816.083933" xmlns="http://www.w3.org/2000/svg" version="1.1">
 <metadata>
  <rdf:RDF xmlns:dc="http://purl.org/dc/elements/1.1/" xmlns:cc="http://creativecommons.org/ns#" xmlns:rdf="http://www.w3.org/1999/02/22-rdf-syntax-ns#">
   <cc:Work>
    <dc:type rdf:resource="http://purl.org/dc/dcmitype/StillImage"/>
    <dc:date>2025-07-25T22:44:54.436395</dc:date>
    <dc:format>image/svg+xml</dc:format>
    <dc:creator>
     <cc:Agent>
      <dc:title>Matplotlib v3.10.3, https://matplotlib.org/</dc:title>
     </cc:Agent>
    </dc:creator>
   </cc:Work>
  </rdf:RDF>
 </metadata>
 <defs>
  <style type="text/css">*{stroke-linejoin: round; stroke-linecap: butt}</style>
 </defs>
 <g id="figure_1">
  <g id="patch_1">
   <path d="M 0 816.083933 
L 576 816.083933 
L 576 0 
L 0 0 
L 0 816.083933 
z
" style="fill: none; opacity: 0"/>
  </g>
  <g id="axes_1">
   <g id="QuadContourSet_1">
    <path d="M 576 121.610409 
L 576 121.265484 
L 576 117.988039 
L 576 115.459809 
L 572.727273 116.962258 
L 571.14911 117.988039 
L 572.727273 120.500274 
L 573.198366 121.265484 
z
M 569.454545 75.695279 
L 572.727273 76.037729 
L 576 76.357148 
L 576 75.381247 
L 576 72.103801 
L 576 68.826356 
L 576 65.54891 
L 576 62.271465 
L 576 58.994019 
L 576 55.716574 
L 576 52.439128 
L 576 49.161683 
L 576 48.481422 
L 572.727273 48.382228 
L 569.454545 48.280644 
L 566.181818 48.177206 
L 562.909091 48.070903 
L 559.636364 47.948698 
L 556.363636 47.739466 
L 553.090909 47.53236 
L 549.818182 47.327349 
L 546.545455 47.128398 
L 543.272727 46.946111 
L 540 46.758876 
L 536.727273 46.566488 
L 533.454545 46.368733 
L 530.181818 46.165382 
L 526.909091 45.956195 
L 525.752949 45.884237 
L 523.636364 45.80889 
L 520.363636 45.684454 
L 517.090909 45.57853 
L 513.818182 45.471367 
L 510.545455 45.362835 
L 507.272727 45.25291 
L 504 45.141563 
L 500.727273 45.037509 
L 497.454545 44.938217 
L 494.181818 44.840487 
L 490.909091 44.744285 
L 487.636364 44.63945 
L 484.363636 44.532483 
L 481.090909 44.448476 
L 477.818182 44.364108 
L 474.545455 44.279376 
L 471.272727 44.194279 
L 468 44.108814 
L 464.727273 44.031748 
L 461.454545 43.977211 
L 458.181818 43.92418 
L 454.909091 43.872593 
L 451.636364 43.799549 
L 448.363636 43.698963 
L 445.090909 43.619288 
L 441.818182 43.539355 
L 438.545455 43.459161 
L 435.272727 43.378707 
L 432 43.297989 
L 428.727273 43.222654 
L 425.454545 43.184883 
L 422.181818 43.148169 
L 418.909091 43.112467 
L 415.636364 43.065601 
L 412.363636 43.00748 
L 409.090909 42.956463 
L 405.818182 42.907226 
L 402.545455 42.85803 
L 399.272727 42.808874 
L 396 42.75976 
L 392.727273 42.723475 
L 389.454545 42.723384 
L 386.181818 42.723295 
L 382.909091 42.72321 
L 379.636364 42.761504 
L 376.363636 42.83649 
L 373.090909 42.91267 
L 369.818182 42.987814 
L 366.545455 43.061943 
L 363.272727 43.135077 
L 360 43.226691 
L 356.727273 43.330367 
L 353.454545 43.43012 
L 350.181818 43.531874 
L 346.909091 43.631199 
L 343.636364 43.771471 
L 340.363636 43.953146 
L 337.090909 44.134822 
L 333.818182 44.316498 
L 330.545455 44.507808 
L 327.272727 44.702933 
L 324 44.893315 
L 320.727273 45.079127 
L 317.454545 45.260529 
L 314.181818 45.467735 
L 310.909091 45.678208 
L 307.636364 45.880574 
L 307.568475 45.884237 
L 304.363636 46.070411 
L 301.090909 46.253763 
L 297.818182 46.43664 
L 294.545455 46.617022 
L 291.272727 46.794959 
L 288 46.970501 
L 284.727273 47.164281 
L 281.454545 47.353234 
L 278.181818 47.535723 
L 274.909091 47.712075 
L 271.636364 47.893332 
L 268.363636 48.07083 
L 265.090909 48.244968 
L 261.818182 48.419105 
L 258.545455 48.5933 
L 255.272727 48.771629 
L 252 48.946191 
L 248.727273 49.117103 
L 247.862232 49.161683 
L 245.454545 49.302473 
L 242.181818 49.49302 
L 238.909091 49.711698 
L 235.636364 49.922707 
L 232.363636 50.111489 
L 229.090909 50.279021 
L 225.818182 50.440732 
L 222.545455 50.612853 
L 219.272727 50.784014 
L 216 50.953327 
L 212.727273 51.122486 
L 209.454545 51.300363 
L 206.181818 51.472627 
L 202.909091 51.639539 
L 199.636364 51.801345 
L 196.363636 51.95548 
L 193.090909 52.121267 
L 189.818182 52.291892 
L 186.994091 52.439128 
L 186.545455 52.465857 
L 183.272727 52.656914 
L 180 52.841328 
L 176.727273 53.024099 
L 173.454545 53.206702 
L 170.181818 53.387484 
L 166.909091 53.56907 
L 163.636364 53.767982 
L 160.363636 53.960629 
L 157.090909 54.093647 
L 153.818182 54.205251 
L 150.545455 54.314005 
L 147.272727 54.431279 
L 144 54.550616 
L 140.727273 54.668717 
L 137.454545 54.78855 
L 134.181818 54.91054 
L 130.909091 55.029331 
L 127.636364 55.145046 
L 124.363636 55.257804 
L 121.090909 55.32822 
L 117.818182 55.347152 
L 114.545455 55.388776 
L 111.272727 55.430464 
L 108 55.47234 
L 104.727273 55.514127 
L 101.454545 55.555824 
L 98.181818 55.597433 
L 94.909091 55.640256 
L 91.636364 55.685159 
L 89.346695 55.716574 
L 88.363636 55.731171 
L 85.090909 55.810655 
L 81.818182 56.01358 
L 78.545455 56.205666 
L 75.272727 56.388654 
L 72 56.579991 
L 68.727273 56.769706 
L 65.454545 56.960309 
L 62.181818 57.151808 
L 58.909091 57.340697 
L 55.636364 57.526082 
L 52.363636 57.726782 
L 49.090909 57.941932 
L 45.818182 58.099032 
L 42.545455 58.243787 
L 39.272727 58.38392 
L 36 58.511311 
L 32.727273 58.636018 
L 29.454545 58.762652 
L 26.181818 58.900473 
L 24.083159 58.994019 
L 22.909091 59.053952 
L 19.636364 59.218451 
L 16.363636 59.419046 
L 13.090909 59.633511 
L 9.818182 59.850091 
L 6.545455 60.068895 
L 3.272727 60.191498 
L -0 60.329076 
L -0 62.271465 
L -0 65.54891 
L -0 68.736523 
L 0.941913 68.826356 
L 3.272727 69.07937 
L 5.263893 68.826356 
L 6.545455 68.655762 
L 9.818182 68.236094 
L 13.090909 67.922295 
L 16.363636 67.842267 
L 19.636364 67.759567 
L 22.909091 67.642603 
L 26.181818 67.529636 
L 29.454545 67.430603 
L 32.727273 67.447722 
L 36 67.446987 
L 39.272727 67.439436 
L 42.545455 67.401131 
L 45.818182 67.319525 
L 49.090909 67.228717 
L 52.363636 67.135639 
L 55.636364 67.019259 
L 58.909091 66.836256 
L 62.181818 66.656291 
L 65.454545 66.655313 
L 68.727273 66.654436 
L 72 66.653646 
L 75.272727 66.652931 
L 78.545455 66.562391 
L 81.818182 66.488049 
L 85.090909 66.371656 
L 88.363636 66.363827 
L 91.636364 66.483447 
L 94.909091 66.597997 
L 98.181818 66.707794 
L 101.454545 66.753133 
L 104.727273 66.794916 
L 108 66.836565 
L 111.272727 66.8252 
L 114.545455 66.814506 
L 117.818182 66.804426 
L 121.090909 66.794907 
L 124.363636 66.763772 
L 127.636364 66.651744 
L 130.909091 66.53705 
L 134.181818 66.424654 
L 137.454545 66.360656 
L 140.727273 66.361629 
L 144 66.363011 
L 147.272727 66.350034 
L 150.545455 66.056785 
L 153.818182 65.83509 
L 157.090909 65.999243 
L 160.363636 65.628411 
L 161.774857 65.54891 
L 163.636364 65.453805 
L 166.909091 65.295032 
L 170.181818 65.136234 
L 173.454545 64.977134 
L 176.727273 64.814775 
L 180 64.650857 
L 183.272727 64.485357 
L 186.545455 64.336606 
L 189.818182 64.221177 
L 193.090909 64.097637 
L 196.363636 63.965101 
L 199.636364 63.804843 
L 202.909091 63.625889 
L 206.181818 63.435778 
L 209.454545 63.238509 
L 212.727273 63.036237 
L 216 62.828769 
L 219.272727 62.625476 
L 222.545455 62.405517 
L 224.39382 62.271465 
L 225.818182 62.200756 
L 229.090909 62.03829 
L 232.363636 61.875824 
L 235.636364 61.742846 
L 238.909091 61.617675 
L 242.181818 61.489787 
L 245.454545 61.359092 
L 248.727273 61.225496 
L 252 61.088438 
L 255.272727 60.942952 
L 258.545455 60.792815 
L 261.818182 60.637799 
L 265.090909 60.477664 
L 268.363636 60.343693 
L 271.636364 60.202635 
L 274.909091 60.034477 
L 278.181818 59.855103 
L 281.454545 59.668461 
L 284.727273 59.464127 
L 288 59.244468 
L 291.272727 59.012772 
L 291.52999 58.994019 
L 294.545455 58.845285 
L 297.818182 58.685013 
L 301.090909 58.52489 
L 304.363636 58.364305 
L 307.636364 58.203721 
L 310.909091 58.050743 
L 314.181818 57.903295 
L 317.454545 57.750561 
L 320.727273 57.59887 
L 324 57.448212 
L 327.272727 57.298577 
L 330.545455 57.147879 
L 333.818182 56.993349 
L 337.090909 56.851793 
L 340.363636 56.71851 
L 343.636364 56.578803 
L 346.909091 56.494503 
L 350.181818 56.504599 
L 353.454545 56.515426 
L 356.727273 56.527069 
L 360 56.539624 
L 363.272727 56.591008 
L 366.545455 56.648844 
L 369.818182 56.709468 
L 373.090909 56.773087 
L 376.363636 56.837596 
L 379.636364 56.888967 
L 382.909091 56.980388 
L 386.181818 57.166312 
L 389.454545 57.356112 
L 392.727273 57.549909 
L 396 57.765967 
L 399.272727 57.986785 
L 402.545455 58.20304 
L 405.818182 58.414873 
L 409.090909 58.622416 
L 412.363636 58.825801 
L 415.636364 58.986525 
L 415.781198 58.994019 
L 418.909091 59.358768 
L 422.181818 59.835693 
L 425.454545 60.312617 
L 428.727273 60.789541 
L 432 61.266466 
L 435.272727 61.698237 
L 438.545455 62.074053 
L 440.345269 62.271465 
L 441.818182 62.414641 
L 445.090909 62.732245 
L 448.363636 63.050012 
L 451.636364 63.367779 
L 454.909091 63.728938 
L 458.181818 64.104119 
L 461.454545 64.45694 
L 464.727273 64.793164 
L 468 65.113935 
L 471.272727 65.420296 
L 472.691924 65.54891 
L 474.545455 65.795777 
L 477.818182 66.215901 
L 481.090909 66.596024 
L 484.363636 66.94563 
L 487.636364 67.268252 
L 490.909091 67.63593 
L 494.181818 68.016027 
L 497.454545 68.359772 
L 500.727273 68.676369 
L 502.323287 68.826356 
L 504 69.04067 
L 507.272727 69.443634 
L 510.545455 69.827509 
L 513.818182 70.193618 
L 517.090909 70.543168 
L 520.363636 70.876207 
L 523.636364 71.176038 
L 526.909091 71.528711 
L 530.181818 71.896307 
L 532.029149 72.103801 
L 533.454545 72.258502 
L 536.727273 72.606944 
L 540 72.946279 
L 543.272727 73.27686 
L 546.545455 73.585281 
L 549.818182 73.882918 
L 553.090909 74.180556 
L 556.363636 74.478193 
L 559.636364 74.775822 
L 562.909091 75.058454 
L 566.181818 75.341045 
L 566.647409 75.381247 
z
" clip-path="url(#p7692122720)" style="fill: #f5f9fe; fill-opacity: 0.9"/>
    <path d="M 3.272727 60.191498 
L 6.545455 60.068895 
L 9.818182 59.850091 
L 13.090909 59.633511 
L 16.363636 59.419046 
L 19.636364 59.218451 
L 22.909091 59.053952 
L 24.083159 58.994019 
L 26.181818 58.900473 
L 29.454545 58.762652 
L 32.727273 58.636018 
L 36 58.511311 
L 39.272727 58.38392 
L 42.545455 58.243787 
L 45.818182 58.099032 
L 49.090909 57.941932 
L 52.363636 57.726782 
L 55.636364 57.526082 
L 58.909091 57.340697 
L 62.181818 57.151808 
L 65.454545 56.960309 
L 68.727273 56.769706 
L 72 56.579991 
L 75.272727 56.388654 
L 78.545455 56.205666 
L 81.818182 56.01358 
L 85.090909 55.810655 
L 88.363636 55.731171 
L 89.346695 55.716574 
L 91.636364 55.685159 
L 94.909091 55.640256 
L 98.181818 55.597433 
L 101.454545 55.555824 
L 104.727273 55.514127 
L 108 55.47234 
L 111.272727 55.430464 
L 114.545455 55.388776 
L 117.818182 55.347152 
L 121.090909 55.32822 
L 124.363636 55.257804 
L 127.636364 55.145046 
L 130.909091 55.029331 
L 134.181818 54.91054 
L 137.454545 54.78855 
L 140.727273 54.668717 
L 144 54.550616 
L 147.272727 54.431279 
L 150.545455 54.314005 
L 153.818182 54.205251 
L 157.090909 54.093647 
L 160.363636 53.960629 
L 163.636364 53.767982 
L 166.909091 53.56907 
L 170.181818 53.387484 
L 173.454545 53.206702 
L 176.727273 53.024099 
L 180 52.841328 
L 183.272727 52.656914 
L 186.545455 52.465857 
L 186.994091 52.439128 
L 189.818182 52.291892 
L 193.090909 52.121267 
L 196.363636 51.95548 
L 199.636364 51.801345 
L 202.909091 51.639539 
L 206.181818 51.472627 
L 209.454545 51.300363 
L 212.727273 51.122486 
L 216 50.953327 
L 219.272727 50.784014 
L 222.545455 50.612853 
L 225.818182 50.440732 
L 229.090909 50.279021 
L 232.363636 50.111489 
L 235.636364 49.922707 
L 238.909091 49.711698 
L 242.181818 49.49302 
L 245.454545 49.302473 
L 247.862232 49.161683 
L 248.727273 49.117103 
L 252 48.946191 
L 255.272727 48.771629 
L 258.545455 48.5933 
L 261.818182 48.419105 
L 265.090909 48.244968 
L 268.363636 48.07083 
L 271.636364 47.893332 
L 274.909091 47.712075 
L 278.181818 47.535723 
L 281.454545 47.353234 
L 284.727273 47.164281 
L 288 46.970501 
L 291.272727 46.794959 
L 294.545455 46.617022 
L 297.818182 46.43664 
L 301.090909 46.253763 
L 304.363636 46.070411 
L 307.568475 45.884237 
L 307.636364 45.880574 
L 310.909091 45.678208 
L 314.181818 45.467735 
L 317.454545 45.260529 
L 320.727273 45.079127 
L 324 44.893315 
L 327.272727 44.702933 
L 330.545455 44.507808 
L 333.818182 44.316498 
L 337.090909 44.134822 
L 340.363636 43.953146 
L 343.636364 43.771471 
L 346.909091 43.631199 
L 350.181818 43.531874 
L 353.454545 43.43012 
L 356.727273 43.330367 
L 360 43.226691 
L 363.272727 43.135077 
L 366.545455 43.061943 
L 369.818182 42.987814 
L 373.090909 42.91267 
L 376.363636 42.83649 
L 379.636364 42.761504 
L 382.909091 42.72321 
L 386.181818 42.723295 
L 389.454545 42.723384 
L 392.727273 42.723475 
L 396 42.75976 
L 399.272727 42.808874 
L 402.545455 42.85803 
L 405.818182 42.907226 
L 409.090909 42.956463 
L 412.363636 43.00748 
L 415.636364 43.065601 
L 418.909091 43.112467 
L 422.181818 43.148169 
L 425.454545 43.184883 
L 428.727273 43.222654 
L 432 43.297989 
L 435.272727 43.378707 
L 438.545455 43.459161 
L 441.818182 43.539355 
L 445.090909 43.619288 
L 448.363636 43.698963 
L 451.636364 43.799549 
L 454.909091 43.872593 
L 458.181818 43.92418 
L 461.454545 43.977211 
L 464.727273 44.031748 
L 468 44.108814 
L 471.272727 44.194279 
L 474.545455 44.279376 
L 477.818182 44.364108 
L 481.090909 44.448476 
L 484.363636 44.532483 
L 487.636364 44.63945 
L 490.909091 44.744285 
L 494.181818 44.840487 
L 497.454545 44.938217 
L 500.727273 45.037509 
L 504 45.141563 
L 507.272727 45.25291 
L 510.545455 45.362835 
L 513.818182 45.471367 
L 517.090909 45.57853 
L 520.363636 45.684454 
L 523.636364 45.80889 
L 525.752949 45.884237 
L 526.909091 45.956195 
L 530.181818 46.165382 
L 533.454545 46.368733 
L 536.727273 46.566488 
L 540 46.758876 
L 543.272727 46.946111 
L 546.545455 47.128398 
L 549.818182 47.327349 
L 553.090909 47.53236 
L 556.363636 47.739466 
L 559.636364 47.948698 
L 562.909091 48.070903 
L 566.181818 48.177206 
L 569.454545 48.280644 
L 572.727273 48.382228 
L 576 48.481422 
L 576 45.884237 
L 576 42.606792 
L 576 39.329346 
L 576 36.051901 
L 576 32.774455 
L 576 29.49701 
L 576 26.219564 
L 576 22.942119 
L 576 21.352757 
L 572.727273 22.229174 
L 570.049044 22.942119 
L 569.454545 23.003383 
L 566.181818 23.32046 
L 562.909091 23.606967 
L 559.636364 23.851472 
L 556.363636 24.030279 
L 553.090909 24.144861 
L 549.818182 24.236718 
L 546.545455 24.327713 
L 543.272727 24.417859 
L 540 24.507167 
L 536.727273 24.595649 
L 533.454545 24.661255 
L 530.181818 24.714093 
L 526.909091 24.764581 
L 523.636364 24.802538 
L 520.363636 24.809379 
L 517.090909 24.816122 
L 513.818182 24.822769 
L 510.545455 24.836066 
L 507.272727 24.85554 
L 504 24.875007 
L 500.727273 24.894467 
L 497.454545 24.91392 
L 494.181818 24.933366 
L 490.909091 24.977806 
L 487.636364 25.039394 
L 484.363636 25.085184 
L 481.090909 25.130953 
L 477.818182 25.1767 
L 474.545455 25.235172 
L 471.272727 25.301152 
L 468 25.36824 
L 464.727273 25.436465 
L 461.454545 25.505855 
L 458.181818 25.581662 
L 454.909091 25.677821 
L 451.636364 25.756866 
L 448.363636 25.806854 
L 445.090909 25.856595 
L 441.818182 25.914716 
L 438.545455 25.990513 
L 435.272727 26.067266 
L 432 26.144994 
L 428.898802 26.219564 
L 428.727273 26.222985 
L 425.454545 26.287938 
L 422.181818 26.352906 
L 418.909091 26.417875 
L 415.636364 26.483037 
L 412.363636 26.548655 
L 409.090909 26.61765 
L 405.818182 26.704065 
L 402.545455 26.789208 
L 399.272727 26.873105 
L 396 26.955785 
L 392.727273 27.038443 
L 389.454545 27.12536 
L 386.181818 27.212277 
L 382.909091 27.299193 
L 379.636364 27.406258 
L 376.363636 27.571627 
L 373.090909 27.742918 
L 369.818182 27.911927 
L 366.545455 28.077142 
L 363.272727 28.239424 
L 360 28.414036 
L 356.727273 28.589886 
L 353.454545 28.766436 
L 350.181818 28.943692 
L 346.909091 29.131633 
L 343.636364 29.345568 
L 342.227117 29.49701 
L 340.363636 29.706628 
L 337.090909 30.074769 
L 333.818182 30.471031 
L 330.545455 30.898815 
L 327.272727 31.299237 
L 324 31.674842 
L 320.727273 32.027866 
L 317.454545 32.436638 
L 314.80395 32.774455 
L 314.181818 32.841914 
L 310.909091 33.206043 
L 307.636364 33.585693 
L 304.363636 33.911626 
L 301.090909 34.280963 
L 297.818182 34.651852 
L 294.545455 34.973072 
L 291.272727 35.301869 
L 288 35.631693 
L 284.727273 35.943953 
L 283.553848 36.051901 
L 281.454545 36.169766 
L 278.181818 36.362947 
L 274.909091 36.602987 
L 271.636364 36.86418 
L 268.363636 37.105979 
L 265.090909 37.340713 
L 261.818182 37.583772 
L 258.545455 37.864117 
L 255.272727 38.165233 
L 252 38.488811 
L 248.727273 38.839082 
L 245.454545 39.217156 
L 244.504467 39.329346 
L 242.181818 39.498792 
L 238.909091 39.737549 
L 235.636364 39.976307 
L 232.363636 40.168625 
L 229.090909 40.354007 
L 225.818182 40.544043 
L 222.545455 40.738911 
L 219.272727 40.938797 
L 216 41.154311 
L 212.727273 41.393266 
L 209.454545 41.645363 
L 206.181818 41.911715 
L 202.909091 42.199538 
L 199.636364 42.495961 
L 198.43217 42.606792 
L 196.363636 42.755147 
L 193.090909 42.964687 
L 189.818182 43.171443 
L 186.545455 43.404364 
L 183.272727 43.634997 
L 180 43.860411 
L 176.727273 44.080782 
L 173.454545 44.296277 
L 170.181818 44.514333 
L 166.909091 44.722647 
L 163.636364 44.940203 
L 160.363636 45.172347 
L 157.090909 45.364616 
L 153.818182 45.51506 
L 150.545455 45.667653 
L 147.272727 45.822438 
L 146.117102 45.884237 
L 144 45.986625 
L 140.727273 46.174211 
L 137.454545 46.35617 
L 134.181818 46.532751 
L 130.909091 46.704189 
L 127.636364 46.872971 
L 124.363636 47.051667 
L 121.090909 47.191984 
L 117.818182 47.213783 
L 114.545455 47.282692 
L 111.272727 47.336437 
L 108 47.342249 
L 104.727273 47.348101 
L 101.454545 47.371943 
L 98.181818 47.422965 
L 94.909091 47.477538 
L 91.636364 47.558951 
L 88.363636 47.652129 
L 85.090909 47.74842 
L 81.818182 47.941543 
L 78.545455 48.180242 
L 75.272727 48.510792 
L 72 48.794164 
L 68.727273 48.965655 
L 65.454545 49.128683 
L 64.771841 49.161683 
L 62.181818 49.255527 
L 58.909091 49.397681 
L 55.636364 49.603671 
L 52.363636 49.826875 
L 49.090909 50.069546 
L 45.818182 50.271593 
L 42.545455 50.431077 
L 39.272727 50.559624 
L 36 50.717079 
L 32.727273 50.872734 
L 29.454545 51.022788 
L 26.181818 51.147188 
L 22.909091 51.229999 
L 19.636364 51.342729 
L 16.363636 51.477124 
L 13.090909 51.641758 
L 9.818182 51.738648 
L 6.545455 51.37244 
L 3.272727 51.647208 
L -0 51.14394 
L -0 52.439128 
L -0 55.716574 
L -0 58.994019 
L -0 60.329076 
z
" clip-path="url(#p7692122720)" style="fill: #eff6fc; fill-opacity: 0.9"/>
    <path d="M 3.272727 51.647208 
L 6.545455 51.37244 
L 9.818182 51.738648 
L 13.090909 51.641758 
L 16.363636 51.477124 
L 19.636364 51.342729 
L 22.909091 51.229999 
L 26.181818 51.147188 
L 29.454545 51.022788 
L 32.727273 50.872734 
L 36 50.717079 
L 39.272727 50.559624 
L 42.545455 50.431077 
L 45.818182 50.271593 
L 49.090909 50.069546 
L 52.363636 49.826875 
L 55.636364 49.603671 
L 58.909091 49.397681 
L 62.181818 49.255527 
L 64.771841 49.161683 
L 65.454545 49.128683 
L 68.727273 48.965655 
L 72 48.794164 
L 75.272727 48.510792 
L 78.545455 48.180242 
L 81.818182 47.941543 
L 85.090909 47.74842 
L 88.363636 47.652129 
L 91.636364 47.558951 
L 94.909091 47.477538 
L 98.181818 47.422965 
L 101.454545 47.371943 
L 104.727273 47.348101 
L 108 47.342249 
L 111.272727 47.336437 
L 114.545455 47.282692 
L 117.818182 47.213783 
L 121.090909 47.191984 
L 124.363636 47.051667 
L 127.636364 46.872971 
L 130.909091 46.704189 
L 134.181818 46.532751 
L 137.454545 46.35617 
L 140.727273 46.174211 
L 144 45.986625 
L 146.117102 45.884237 
L 147.272727 45.822438 
L 150.545455 45.667653 
L 153.818182 45.51506 
L 157.090909 45.364616 
L 160.363636 45.172347 
L 163.636364 44.940203 
L 166.909091 44.722647 
L 170.181818 44.514333 
L 173.454545 44.296277 
L 176.727273 44.080782 
L 180 43.860411 
L 183.272727 43.634997 
L 186.545455 43.404364 
L 189.818182 43.171443 
L 193.090909 42.964687 
L 196.363636 42.755147 
L 198.43217 42.606792 
L 199.636364 42.495961 
L 202.909091 42.199538 
L 206.181818 41.911715 
L 209.454545 41.645363 
L 212.727273 41.393266 
L 216 41.154311 
L 219.272727 40.938797 
L 222.545455 40.738911 
L 225.818182 40.544043 
L 229.090909 40.354007 
L 232.363636 40.168625 
L 235.636364 39.976307 
L 238.909091 39.737549 
L 242.181818 39.498792 
L 244.504467 39.329346 
L 245.454545 39.217156 
L 248.727273 38.839082 
L 252 38.488811 
L 255.272727 38.165233 
L 258.545455 37.864117 
L 261.818182 37.583772 
L 265.090909 37.340713 
L 268.363636 37.105979 
L 271.636364 36.86418 
L 274.909091 36.602987 
L 278.181818 36.362947 
L 281.454545 36.169766 
L 283.553848 36.051901 
L 284.727273 35.943953 
L 288 35.631693 
L 291.272727 35.301869 
L 294.545455 34.973072 
L 297.818182 34.651852 
L 301.090909 34.280963 
L 304.363636 33.911626 
L 307.636364 33.585693 
L 310.909091 33.206043 
L 314.181818 32.841914 
L 314.80395 32.774455 
L 317.454545 32.436638 
L 320.727273 32.027866 
L 324 31.674842 
L 327.272727 31.299237 
L 330.545455 30.898815 
L 333.818182 30.471031 
L 337.090909 30.074769 
L 340.363636 29.706628 
L 342.227117 29.49701 
L 343.636364 29.345568 
L 346.909091 29.131633 
L 350.181818 28.943692 
L 353.454545 28.766436 
L 356.727273 28.589886 
L 360 28.414036 
L 363.272727 28.239424 
L 366.545455 28.077142 
L 369.818182 27.911927 
L 373.090909 27.742918 
L 376.363636 27.571627 
L 379.636364 27.406258 
L 382.909091 27.299193 
L 386.181818 27.212277 
L 389.454545 27.12536 
L 392.727273 27.038443 
L 396 26.955785 
L 399.272727 26.873105 
L 402.545455 26.789208 
L 405.818182 26.704065 
L 409.090909 26.61765 
L 412.363636 26.548655 
L 415.636364 26.483037 
L 418.909091 26.417875 
L 422.181818 26.352906 
L 425.454545 26.287938 
L 428.727273 26.222985 
L 428.898802 26.219564 
L 432 26.144994 
L 435.272727 26.067266 
L 438.545455 25.990513 
L 441.818182 25.914716 
L 445.090909 25.856595 
L 448.363636 25.806854 
L 451.636364 25.756866 
L 454.909091 25.677821 
L 458.181818 25.581662 
L 461.454545 25.505855 
L 464.727273 25.436465 
L 468 25.36824 
L 471.272727 25.301152 
L 474.545455 25.235172 
L 477.818182 25.1767 
L 481.090909 25.130953 
L 484.363636 25.085184 
L 487.636364 25.039394 
L 490.909091 24.977806 
L 494.181818 24.933366 
L 497.454545 24.91392 
L 500.727273 24.894467 
L 504 24.875007 
L 507.272727 24.85554 
L 510.545455 24.836066 
L 513.818182 24.822769 
L 517.090909 24.816122 
L 520.363636 24.809379 
L 523.636364 24.802538 
L 526.909091 24.764581 
L 530.181818 24.714093 
L 533.454545 24.661255 
L 536.727273 24.595649 
L 540 24.507167 
L 543.272727 24.417859 
L 546.545455 24.327713 
L 549.818182 24.236718 
L 553.090909 24.144861 
L 556.363636 24.030279 
L 559.636364 23.851472 
L 562.909091 23.606967 
L 566.181818 23.32046 
L 569.454545 23.003383 
L 570.049044 22.942119 
L 572.727273 22.229174 
L 576 21.352757 
L 576 19.664673 
L 576 16.387228 
L 576 13.109782 
L 576 9.832337 
L 576 6.554891 
L 576 3.277446 
L 576 -0 
L 572.727273 -0 
L 569.454545 -0 
L 566.181818 -0 
L 562.909091 -0 
L 559.636364 -0 
L 556.363636 -0 
L 553.090909 -0 
L 549.818182 -0 
L 546.545455 -0 
L 543.272727 -0 
L 540 -0 
L 536.727273 -0 
L 533.454545 -0 
L 530.181818 -0 
L 526.909091 -0 
L 523.636364 -0 
L 520.363636 -0 
L 517.090909 -0 
L 513.818182 -0 
L 510.545455 -0 
L 507.272727 -0 
L 504 -0 
L 500.727273 -0 
L 497.454545 -0 
L 494.181818 -0 
L 490.909091 -0 
L 487.636364 -0 
L 484.363636 -0 
L 481.090909 -0 
L 477.818182 -0 
L 474.545455 -0 
L 471.272727 -0 
L 468 -0 
L 464.727273 -0 
L 461.454545 -0 
L 458.181818 -0 
L 454.909091 -0 
L 451.636364 -0 
L 448.363636 -0 
L 445.090909 -0 
L 441.818182 -0 
L 438.545455 -0 
L 435.272727 -0 
L 432 -0 
L 428.727273 -0 
L 425.454545 -0 
L 422.181818 -0 
L 418.909091 -0 
L 415.636364 -0 
L 412.363636 -0 
L 409.090909 -0 
L 405.818182 -0 
L 402.545455 -0 
L 399.272727 -0 
L 396 -0 
L 392.727273 -0 
L 389.454545 -0 
L 386.181818 -0 
L 382.909091 -0 
L 379.636364 -0 
L 376.363636 -0 
L 373.090909 -0 
L 369.818182 -0 
L 366.545455 -0 
L 363.272727 -0 
L 360 -0 
L 356.727273 -0 
L 353.454545 -0 
L 350.181818 -0 
L 346.909091 -0 
L 343.636364 -0 
L 340.363636 -0 
L 337.090909 -0 
L 333.818182 -0 
L 330.545455 -0 
L 327.272727 -0 
L 324 -0 
L 320.727273 -0 
L 317.454545 -0 
L 314.181818 -0 
L 310.909091 -0 
L 307.636364 -0 
L 304.363636 -0 
L 301.090909 -0 
L 297.818182 -0 
L 294.545455 -0 
L 291.272727 -0 
L 288 -0 
L 284.727273 -0 
L 281.454545 -0 
L 278.181818 -0 
L 274.909091 -0 
L 271.636364 -0 
L 268.363636 -0 
L 265.090909 -0 
L 261.818182 -0 
L 258.545455 -0 
L 255.272727 -0 
L 252 -0 
L 248.727273 -0 
L 245.454545 -0 
L 242.181818 -0 
L 238.909091 -0 
L 235.636364 -0 
L 232.363636 -0 
L 229.090909 -0 
L 225.818182 -0 
L 222.545455 -0 
L 219.272727 -0 
L 216 -0 
L 212.727273 -0 
L 209.454545 -0 
L 206.181818 -0 
L 202.909091 -0 
L 199.636364 -0 
L 196.363636 -0 
L 193.090909 -0 
L 189.818182 -0 
L 186.545455 -0 
L 183.272727 -0 
L 180 -0 
L 176.727273 -0 
L 173.454545 -0 
L 170.181818 -0 
L 166.909091 -0 
L 163.636364 -0 
L 160.363636 -0 
L 157.090909 -0 
L 153.818182 -0 
L 150.545455 -0 
L 147.272727 -0 
L 144 -0 
L 140.727273 -0 
L 137.454545 -0 
L 134.181818 -0 
L 130.909091 -0 
L 127.636364 -0 
L 124.363636 -0 
L 121.090909 -0 
L 117.818182 -0 
L 114.545455 -0 
L 111.272727 -0 
L 108 -0 
L 104.727273 -0 
L 101.454545 -0 
L 98.181818 -0 
L 94.909091 -0 
L 91.636364 -0 
L 88.363636 -0 
L 85.090909 -0 
L 81.818182 -0 
L 78.545455 -0 
L 75.272727 -0 
L 72 -0 
L 68.727273 -0 
L 65.454545 -0 
L 62.181818 -0 
L 58.909091 -0 
L 55.636364 -0 
L 52.363636 -0 
L 49.090909 -0 
L 45.818182 -0 
L 42.545455 -0 
L 39.272727 -0 
L 36 -0 
L 32.727273 -0 
L 29.454545 -0 
L 26.181818 -0 
L 22.909091 -0 
L 19.636364 -0 
L 16.363636 -0 
L 13.090909 -0 
L 9.818182 -0 
L 6.545455 -0 
L 3.272727 -0 
L -0 -0 
L -0 3.277446 
L -0 6.554891 
L -0 9.832337 
L -0 10.969524 
L 3.272727 10.615554 
L 6.545455 10.106543 
L 8.578295 9.832337 
L 9.818182 9.7427 
L 13.090909 9.517638 
L 16.363636 9.48225 
L 19.636364 9.441191 
L 22.909091 9.419928 
L 26.181818 9.611353 
L 28.851492 9.832337 
L 29.454545 10.008958 
L 32.727273 10.841115 
L 36 11.429104 
L 39.272727 11.888496 
L 42.545455 12.57711 
L 44.619061 13.109782 
L 45.142148 16.387228 
L 45.818182 18.511757 
L 46.196078 19.664673 
L 46.203054 22.942119 
L 45.818182 23.133594 
L 42.545455 24.566504 
L 39.272727 25.871082 
L 38.366662 26.219564 
L 36 26.83937 
L 32.727273 27.863839 
L 29.454545 29.150186 
L 28.695353 29.49701 
L 26.181818 30.13022 
L 22.909091 30.687189 
L 19.636364 31.312114 
L 16.363636 32.0414 
L 13.48524 32.774455 
L 13.090909 32.865839 
L 9.818182 33.579202 
L 6.545455 33.940092 
L 3.272727 34.076934 
L -0 34.477326 
L -0 36.051901 
L -0 39.329346 
L -0 42.606792 
L -0 45.884237 
L -0 49.161683 
L -0 51.14394 
z
" clip-path="url(#p7692122720)" style="fill: #eaf3fb; fill-opacity: 0.9"/>
    <path d="M 3.272727 34.076934 
L 6.545455 33.940092 
L 9.818182 33.579202 
L 13.090909 32.865839 
L 13.48524 32.774455 
L 16.363636 32.0414 
L 19.636364 31.312114 
L 22.909091 30.687189 
L 26.181818 30.13022 
L 28.695353 29.49701 
L 29.454545 29.150186 
L 32.727273 27.863839 
L 36 26.83937 
L 38.366662 26.219564 
L 39.272727 25.871082 
L 42.545455 24.566504 
L 45.818182 23.133594 
L 46.203054 22.942119 
L 46.196078 19.664673 
L 45.818182 18.511757 
L 45.142148 16.387228 
L 44.619061 13.109782 
L 42.545455 12.57711 
L 39.272727 11.888496 
L 36 11.429104 
L 32.727273 10.841115 
L 29.454545 10.008958 
L 28.851492 9.832337 
L 26.181818 9.611353 
L 22.909091 9.419928 
L 19.636364 9.441191 
L 16.363636 9.48225 
L 13.090909 9.517638 
L 9.818182 9.7427 
L 8.578295 9.832337 
L 6.545455 10.106543 
L 3.272727 10.615554 
L -0 10.969524 
L -0 13.109782 
L -0 16.387228 
L -0 19.664673 
L -0 22.942119 
L -0 26.219564 
L -0 29.49701 
L -0 32.774455 
L -0 34.477326 
z
" clip-path="url(#p7692122720)" style="fill: #e5eff9; fill-opacity: 0.9"/>
    <path clip-path="url(#p7692122720)" style="fill: #dfecf7; fill-opacity: 0.9"/>
    <path clip-path="url(#p7692122720)" style="fill: #dae8f6; fill-opacity: 0.9"/>
    <path clip-path="url(#p7692122720)" style="fill: #d6e5f4; fill-opacity: 0.9"/>
    <path clip-path="url(#p7692122720)" style="fill: #d0e2f2; fill-opacity: 0.9"/>
    <path clip-path="url(#p7692122720)" style="fill: #cbdef1; fill-opacity: 0.9"/>
    <path clip-path="url(#p7692122720)" style="fill: #c6dbef; fill-opacity: 0.9"/>
    <path clip-path="url(#p7692122720)" style="fill: #bed8ec; fill-opacity: 0.9"/>
    <path clip-path="url(#p7692122720)" style="fill: #b5d4e9; fill-opacity: 0.9"/>
    <path clip-path="url(#p7692122720)" style="fill: #add0e6; fill-opacity: 0.9"/>
    <path clip-path="url(#p7692122720)" style="fill: #a5cde3; fill-opacity: 0.9"/>
    <path clip-path="url(#p7692122720)" style="fill: #9cc9e1; fill-opacity: 0.9"/>
    <path clip-path="url(#p7692122720)" style="fill: #91c3de; fill-opacity: 0.9"/>
    <path clip-path="url(#p7692122720)" style="fill: #85bcdc; fill-opacity: 0.9"/>
    <path clip-path="url(#p7692122720)" style="fill: #7cb7da; fill-opacity: 0.9"/>
    <path clip-path="url(#p7692122720)" style="fill: #71b1d7; fill-opacity: 0.9"/>
    <path clip-path="url(#p7692122720)" style="fill: #66abd4; fill-opacity: 0.9"/>
    <path clip-path="url(#p7692122720)" style="fill: #5da5d1; fill-opacity: 0.9"/>
    <path clip-path="url(#p7692122720)" style="fill: #56a0ce; fill-opacity: 0.9"/>
    <path clip-path="url(#p7692122720)" style="fill: #4d99ca; fill-opacity: 0.9"/>
    <path clip-path="url(#p7692122720)" style="fill: #4493c7; fill-opacity: 0.9"/>
    <path clip-path="url(#p7692122720)" style="fill: #3c8cc3; fill-opacity: 0.9"/>
    <path clip-path="url(#p7692122720)" style="fill: #3686c0; fill-opacity: 0.9"/>
    <path clip-path="url(#p7692122720)" style="fill: #2f7fbc; fill-opacity: 0.9"/>
    <path clip-path="url(#p7692122720)" style="fill: #2777b8; fill-opacity: 0.9"/>
    <path clip-path="url(#p7692122720)" style="fill: #2070b4; fill-opacity: 0.9"/>
    <path clip-path="url(#p7692122720)" style="fill: #1c6ab0; fill-opacity: 0.9"/>
    <path clip-path="url(#p7692122720)" style="fill: #1663aa; fill-opacity: 0.9"/>
    <path clip-path="url(#p7692122720)" style="fill: #115ca5; fill-opacity: 0.9"/>
    <path clip-path="url(#p7692122720)" style="fill: #0c56a0; fill-opacity: 0.9"/>
    <path clip-path="url(#p7692122720)" style="fill: #084f99; fill-opacity: 0.9"/>
    <path clip-path="url(#p7692122720)" style="fill: #08488e; fill-opacity: 0.9"/>
    <path clip-path="url(#p7692122720)" style="fill: #084184; fill-opacity: 0.9"/>
    <path clip-path="url(#p7692122720)" style="fill: #083a7a; fill-opacity: 0.9"/>
    <path clip-path="url(#p7692122720)" style="fill: #083370; fill-opacity: 0.9"/>
    <path clip-path="url(#p7692122720)" style="fill: #08306b; fill-opacity: 0.9"/>
   </g>
   <g id="QuadContourSet_2">
    <path d="M 576 115.459809 
L 572.727273 116.962258 
L 571.14911 117.988039 
L 573.198366 121.265484 
L 576 121.610409 
M -0 68.736523 
L 3.272727 69.07937 
L 13.090909 67.922295 
L 36 67.446987 
L 45.818182 67.319525 
L 55.636364 67.019259 
L 62.181818 66.656291 
L 78.545455 66.562391 
L 88.363636 66.363827 
L 101.454545 66.753133 
L 114.545455 66.814506 
L 124.363636 66.763772 
L 137.454545 66.360656 
L 147.272727 66.350034 
L 153.818182 65.83509 
L 157.090909 65.999243 
L 161.774857 65.54891 
L 189.818182 64.221177 
L 202.909091 63.625889 
L 238.909091 61.617675 
L 261.818182 60.637799 
L 284.727273 59.464127 
L 297.818182 58.685013 
L 317.760088 57.736399 
M 336.785547 56.865001 
L 346.909091 56.494503 
L 366.545455 56.648844 
L 382.909091 56.980388 
L 402.545455 58.20304 
L 418.909091 59.358768 
L 435.272727 61.698237 
L 445.090909 62.732245 
L 458.181818 64.104119 
L 471.272727 65.420296 
L 474.545455 65.795777 
L 484.363636 66.94563 
L 494.181818 68.016027 
L 510.545455 69.827509 
L 520.363636 70.876207 
L 526.909091 71.528711 
L 543.272727 73.27686 
L 576 76.357148 
L 576 76.357148 
" clip-path="url(#p7692122720)" style="fill: none"/>
    <path d="M -0 60.329076 
L 9.818182 59.850091 
L 24.083159 58.994019 
L 58.909091 57.340697 
L 88.363636 55.731171 
L 130.909091 55.029331 
L 163.636364 53.767982 
L 186.994091 52.439128 
L 255.523832 48.757947 
M 274.657666 47.726 
L 327.272727 44.702933 
L 346.909091 43.631199 
L 376.363636 42.83649 
L 382.909091 42.72321 
L 399.272727 42.808874 
L 441.818182 43.539355 
L 504 45.141563 
L 526.909091 45.956195 
L 559.636364 47.948698 
L 576 48.481422 
L 576 48.481422 
" clip-path="url(#p7692122720)" style="fill: none"/>
    <path d="M -0 51.14394 
L 3.272727 51.647208 
L 6.545455 51.37244 
L 9.818182 51.738648 
L 19.636364 51.342729 
L 39.272727 50.559624 
L 49.090909 50.069546 
L 58.909091 49.397681 
L 72 48.794164 
L 85.090909 47.74842 
L 101.454545 47.371943 
L 121.090909 47.191984 
L 134.181818 46.532751 
L 170.181818 44.514333 
L 199.636364 42.495961 
L 212.727273 41.393266 
L 225.818182 40.544043 
L 242.181818 39.498792 
L 245.454545 39.217156 
L 255.272727 38.165233 
L 265.090909 37.340713 
L 288 35.631693 
L 307.636364 33.585693 
L 346.909091 29.131633 
L 369.818182 27.911927 
L 382.909091 27.299193 
L 422.181818 26.352906 
L 500.727273 24.894467 
L 504.237674 24.873593 
M 523.398807 24.803035 
L 530.181818 24.714093 
L 543.272727 24.417859 
L 556.363636 24.030279 
L 562.909091 23.606967 
L 570.049044 22.942119 
L 576 21.352757 
L 576 21.352757 
" clip-path="url(#p7692122720)" style="fill: none"/>
    <path d="M -0 34.477326 
L 3.272727 34.076934 
L 4.012548 34.046 
M 22.838796 30.700612 
L 22.909091 30.687189 
L 26.181818 30.13022 
L 28.695353 29.49701 
L 29.454545 29.150186 
L 32.727273 27.863839 
L 36 26.83937 
L 38.366662 26.219564 
L 39.272727 25.871082 
L 42.545455 24.566504 
L 45.818182 23.133594 
L 46.203054 22.942119 
L 46.196078 19.664673 
L 45.818182 18.511757 
L 45.142148 16.387228 
L 44.619061 13.109782 
L 42.545455 12.57711 
L 39.272727 11.888496 
L 36 11.429104 
L 32.727273 10.841115 
L 29.454545 10.008958 
L 28.851492 9.832337 
L 26.181818 9.611353 
L 22.909091 9.419928 
L 19.636364 9.441191 
L 16.363636 9.48225 
L 13.090909 9.517638 
L 9.818182 9.7427 
L 8.578295 9.832337 
L 6.545455 10.106543 
L 3.272727 10.615554 
L -0 10.969524 
" clip-path="url(#p7692122720)" style="fill: none"/>
    <path clip-path="url(#p7692122720)" style="fill: none"/>
    <path clip-path="url(#p7692122720)" style="fill: none"/>
    <path clip-path="url(#p7692122720)" style="fill: none"/>
    <path clip-path="url(#p7692122720)" style="fill: none"/>
    <path clip-path="url(#p7692122720)" style="fill: none"/>
    <path clip-path="url(#p7692122720)" style="fill: none"/>
    <path clip-path="url(#p7692122720)" style="fill: none"/>
    <path clip-path="url(#p7692122720)" style="fill: none"/>
    <path clip-path="url(#p7692122720)" style="fill: none"/>
    <path clip-path="url(#p7692122720)" style="fill: none"/>
    <path clip-path="url(#p7692122720)" style="fill: none"/>
    <path clip-path="url(#p7692122720)" style="fill: none"/>
    <path clip-path="url(#p7692122720)" style="fill: none"/>
    <path clip-path="url(#p7692122720)" style="fill: none"/>
    <path clip-path="url(#p7692122720)" style="fill: none"/>
    <path clip-path="url(#p7692122720)" style="fill: none"/>
    <path clip-path="url(#p7692122720)" style="fill: none"/>
    <path clip-path="url(#p7692122720)" style="fill: none"/>
    <path clip-path="url(#p7692122720)" style="fill: none"/>
    <path clip-path="url(#p7692122720)" style="fill: none"/>
    <path clip-path="url(#p7692122720)" style="fill: none"/>
    <path clip-path="url(#p7692122720)" style="fill: none"/>
    <path clip-path="url(#p7692122720)" style="fill: none"/>
    <path clip-path="url(#p7692122720)" style="fill: none"/>
    <path clip-path="url(#p7692122720)" style="fill: none"/>
    <path clip-path="url(#p7692122720)" style="fill: none"/>
    <path clip-path="url(#p7692122720)" style="fill: none"/>
    <path clip-path="url(#p7692122720)" style="fill: none"/>
    <path clip-path="url(#p7692122720)" style="fill: none"/>
    <path clip-path="url(#p7692122720)" style="fill: none"/>
    <path clip-path="url(#p7692122720)" style="fill: none"/>
    <path clip-path="url(#p7692122720)" style="fill: none"/>
    <path clip-path="url(#p7692122720)" style="fill: none"/>
    <path clip-path="url(#p7692122720)" style="fill: none"/>
    <path clip-path="url(#p7692122720)" style="fill: none"/>
   </g>
   <g id="text_1">
    <g clip-path="url(#p7692122720)">
     <!-- 0 -->
     <g style="opacity: 0" transform="translate(323.610826 60.781128) rotate(-2.624038) scale(0.12 -0.12)">
      <defs>
       <path id="DejaVuSans-30" d="M 2034 4250 
Q 1547 4250 1301 3770 
Q 1056 3291 1056 2328 
Q 1056 1369 1301 889 
Q 1547 409 2034 409 
Q 2525 409 2770 889 
Q 3016 1369 3016 2328 
Q 3016 3291 2770 3770 
Q 2525 4250 2034 4250 
z
M 2034 4750 
Q 2819 4750 3233 4129 
Q 3647 3509 3647 2328 
Q 3647 1150 3233 529 
Q 2819 -91 2034 -91 
Q 1250 -91 836 529 
Q 422 1150 422 2328 
Q 422 3509 836 4129 
Q 1250 4750 2034 4750 
z
" transform="scale(0.015625)"/>
      </defs>
      <use xlink:href="#DejaVuSans-30"/>
     </g>
    </g>
   </g>
   <g id="text_2">
    <g clip-path="url(#p7692122720)">
     <!-- 1 -->
     <g style="opacity: 0" transform="translate(261.454149 51.753765) rotate(-3.036107) scale(0.12 -0.12)">
      <defs>
       <path id="DejaVuSans-31" d="M 794 531 
L 1825 531 
L 1825 4091 
L 703 3866 
L 703 4441 
L 1819 4666 
L 2450 4666 
L 2450 531 
L 3481 531 
L 3481 0 
L 794 0 
L 794 531 
z
" transform="scale(0.015625)"/>
      </defs>
      <use xlink:href="#DejaVuSans-31"/>
     </g>
    </g>
   </g>
   <g id="text_3">
    <g clip-path="url(#p7692122720)">
     <!-- 2 -->
     <g style="opacity: 0" transform="translate(510.01179 28.146782) rotate(-0.191834) scale(0.12 -0.12)">
      <defs>
       <path id="DejaVuSans-32" d="M 1228 531 
L 3431 531 
L 3431 0 
L 469 0 
L 469 531 
Q 828 903 1448 1529 
Q 2069 2156 2228 2338 
Q 2531 2678 2651 2914 
Q 2772 3150 2772 3378 
Q 2772 3750 2511 3984 
Q 2250 4219 1831 4219 
Q 1534 4219 1204 4116 
Q 875 4013 500 3803 
L 500 4441 
Q 881 4594 1212 4672 
Q 1544 4750 1819 4750 
Q 2544 4750 2975 4387 
Q 3406 4025 3406 3419 
Q 3406 3131 3298 2873 
Q 3191 2616 2906 2266 
Q 2828 2175 2409 1742 
Q 1991 1309 1228 531 
z
" transform="scale(0.015625)"/>
      </defs>
      <use xlink:href="#DejaVuSans-32"/>
     </g>
    </g>
   </g>
   <g id="text_4">
    <g clip-path="url(#p7692122720)">
     <!-- 3 -->
     <g style="opacity: 0" transform="translate(10.452638 36.816856) rotate(-12.18489) scale(0.12 -0.12)">
      <defs>
       <path id="DejaVuSans-33" d="M 2597 2516 
Q 3050 2419 3304 2112 
Q 3559 1806 3559 1356 
Q 3559 666 3084 287 
Q 2609 -91 1734 -91 
Q 1441 -91 1130 -33 
Q 819 25 488 141 
L 488 750 
Q 750 597 1062 519 
Q 1375 441 1716 441 
Q 2309 441 2620 675 
Q 2931 909 2931 1356 
Q 2931 1769 2642 2001 
Q 2353 2234 1838 2234 
L 1294 2234 
L 1294 2753 
L 1863 2753 
Q 2328 2753 2575 2939 
Q 2822 3125 2822 3475 
Q 2822 3834 2567 4026 
Q 2313 4219 1838 4219 
Q 1578 4219 1281 4162 
Q 984 4106 628 3988 
L 628 4550 
Q 988 4650 1302 4700 
Q 1616 4750 1894 4750 
Q 2613 4750 3031 4423 
Q 3450 4097 3450 3541 
Q 3450 3153 3228 2886 
Q 3006 2619 2597 2516 
z
" transform="scale(0.015625)"/>
      </defs>
      <use xlink:href="#DejaVuSans-33"/>
     </g>
    </g>
   </g>
  </g>
 </g>
 <defs>
  <clipPath id="p7692122720">
   <rect x="0" y="0" width="576" height="816.083933"/>
  </clipPath>
 </defs>
</svg>
