<?xml version="1.0" encoding="utf-8" standalone="no"?>
<!DOCTYPE svg PUBLIC "-//W3C//DTD SVG 1.1//EN"
  "http://www.w3.org/Graphics/SVG/1.1/DTD/svg11.dtd">
<svg xmlns:xlink="http://www.w3.org/1999/xlink" width="576pt" height="814.373837pt" viewBox="0 0 576 814.373837" xmlns="http://www.w3.org/2000/svg" version="1.1">
 <metadata>
  <rdf:RDF xmlns:dc="http://purl.org/dc/elements/1.1/" xmlns:cc="http://creativecommons.org/ns#" xmlns:rdf="http://www.w3.org/1999/02/22-rdf-syntax-ns#">
   <cc:Work>
    <dc:type rdf:resource="http://purl.org/dc/dcmitype/StillImage"/>
    <dc:date>2025-07-25T22:45:18.231008</dc:date>
    <dc:format>image/svg+xml</dc:format>
    <dc:creator>
     <cc:Agent>
      <dc:title>Matplotlib v3.10.3, https://matplotlib.org/</dc:title>
     </cc:Agent>
    </dc:creator>
   </cc:Work>
  </rdf:RDF>
 </metadata>
 <defs>
  <style type="text/css">*{stroke-linejoin: round; stroke-linecap: butt}</style>
 </defs>
 <g id="figure_1">
  <g id="patch_1">
   <path d="M 0 814.373837 
L 576 814.373837 
L 576 0 
L 0 0 
L 0 814.373837 
z
" style="fill: none; opacity: 0"/>
  </g>
  <g id="axes_1">
   <g id="QuadContourSet_1">
    <path d="M 422.181818 814.373837 
L 425.421982 814.373837 
L 425.454545 814.259819 
L 427.188485 811.10326 
L 428.727273 809.26622 
L 429.925249 807.832682 
L 432 805.710856 
L 432.623289 804.562104 
L 435.272727 801.609711 
L 435.586215 801.291527 
L 436.704286 798.020949 
L 438.442009 794.750371 
L 438.545455 794.636468 
L 440.686937 791.479794 
L 441.222259 788.209216 
L 441.818182 787.135312 
L 443.804281 784.938638 
L 444.642269 781.668061 
L 445.090909 780.318732 
L 446.557419 778.397483 
L 447.953117 775.126905 
L 448.363636 774.197867 
L 451.219367 771.856328 
L 451.636364 771.267451 
L 454.909091 768.639148 
L 454.929904 768.58575 
L 457.218311 765.315172 
L 458.181818 764.422408 
L 459.271912 762.044595 
L 460.187245 758.774017 
L 461.454545 757.043429 
L 462.718616 755.503439 
L 463.53408 752.232862 
L 464.727273 749.378097 
L 465.120365 748.962284 
L 466.795531 745.691706 
L 467.640723 742.421129 
L 468 741.695979 
L 470.231572 739.150551 
L 471.272727 736.70923 
L 472.500381 735.879973 
L 474.545455 733.465862 
L 476.059723 732.609396 
L 477.818182 731.725529 
L 478.722575 729.338818 
L 481.090909 727.2418 
L 481.91832 726.06824 
L 482.390703 722.797663 
L 484.263397 719.527085 
L 484.363636 719.424737 
L 486.007147 716.256507 
L 486.879842 712.98593 
L 487.636364 711.562634 
L 488.843451 709.715352 
L 489.904825 706.444774 
L 490.909091 704.781651 
L 492.70566 703.174197 
L 494.058014 699.903619 
L 494.181818 699.711833 
L 497.417814 696.633042 
L 497.454545 696.54609 
L 500.727273 695.841976 
L 501.271922 693.362464 
L 504 690.118784 
L 504.0236 690.091886 
L 505.185454 686.821309 
L 506.231625 683.550731 
L 507.272727 682.178035 
L 508.389527 680.280153 
L 509.283883 677.009576 
L 510.545455 674.237287 
L 510.944733 673.738998 
L 512.573131 670.46842 
L 513.818182 668.5516 
L 515.394719 667.197843 
L 516.799614 663.927265 
L 517.090909 663.513066 
L 520.049487 660.656687 
L 520.363636 659.94393 
L 522.50123 657.38611 
L 520.363636 656.424998 
L 519.114948 654.115532 
L 520.363636 652.794519 
L 522.833686 654.115532 
L 523.636364 656.062232 
L 524.345389 654.115532 
L 526.585887 650.844954 
L 526.909091 650.43893 
L 528.223976 647.574377 
L 530.181818 644.314886 
L 530.192023 644.303799 
L 531.908564 641.033221 
L 533.454545 638.253858 
L 533.941209 637.762644 
L 536.300413 634.492066 
L 536.727273 634.001119 
L 539.06811 631.221488 
L 540 630.012013 
L 542.717296 627.950911 
L 540 626.608806 
L 538.517763 624.680333 
L 540 623.19907 
L 541.79049 621.409755 
L 543.272727 620.098915 
L 545.788902 621.409755 
L 543.272727 623.803942 
L 542.39576 624.680333 
L 543.272727 627.035603 
L 546.545455 627.01796 
L 546.972643 624.680333 
L 549.818182 622.275975 
L 550.522865 621.409755 
L 551.211953 618.139178 
L 553.090909 615.919819 
L 553.906646 614.8686 
L 555.022927 611.598022 
L 556.363636 609.563663 
L 557.276048 608.327445 
L 558.929925 605.056867 
L 559.636364 604.151414 
L 561.589595 601.786289 
L 562.909091 600.074445 
L 564.810018 598.515712 
L 566.181818 596.362152 
L 567.884695 595.245134 
L 566.181818 594.644022 
L 564.813775 591.974556 
L 566.181818 590.607412 
L 569.454545 591.892563 
L 570.944355 591.974556 
L 572.727273 592.160077 
L 572.833528 591.974556 
L 573.766301 588.703979 
L 576 587.097518 
L 576 585.433401 
L 576 584.548606 
L 575.628635 585.433401 
L 572.727273 587.226451 
L 571.802239 588.703979 
L 569.454545 590.618731 
L 566.181818 589.951359 
L 564.157291 591.974556 
L 565.46762 595.245134 
L 563.293708 598.515712 
L 562.909091 598.831093 
L 560.631215 601.786289 
L 559.636364 602.990933 
L 558.024511 605.056867 
L 556.363636 608.044645 
L 556.089782 608.327445 
L 554.03704 611.598022 
L 553.090909 614.095053 
L 552.181321 614.8686 
L 549.945442 618.139178 
L 549.818182 618.769414 
L 546.545455 620.665032 
L 543.272727 619.423456 
L 541.026712 621.409755 
L 540 622.435793 
L 537.753985 624.680333 
L 540 627.602523 
L 540.705364 627.950911 
L 540 628.485938 
L 537.892283 631.221488 
L 536.727273 632.604881 
L 535.086438 634.492066 
L 533.454545 636.630784 
L 532.321942 637.762644 
L 530.96178 641.033221 
L 530.181818 642.515532 
L 528.790701 644.303799 
L 527.143178 647.574377 
L 526.909091 648.084349 
L 524.711591 650.844954 
L 523.636364 652.619201 
L 520.363636 651.962884 
L 518.328843 654.115532 
L 517.090909 655.352653 
L 515.056116 657.38611 
L 517.090909 659.933519 
L 518.344077 660.656687 
L 517.090909 661.866567 
L 515.641673 663.927265 
L 513.818182 666.866045 
L 513.486166 667.197843 
L 511.503665 670.46842 
L 510.545455 672.217118 
L 509.461614 673.738998 
L 508.25432 677.009576 
L 507.272727 679.8073 
L 506.874966 680.280153 
L 504.5157 683.550731 
L 504 686.210942 
L 503.529165 686.821309 
L 500.727273 688.56645 
L 500.19169 686.821309 
L 497.454545 684.953384 
L 495.544983 686.821309 
L 497.454545 688.821008 
L 500.033273 690.091886 
L 497.454545 692.691516 
L 496.84306 693.362464 
L 495.367721 696.633042 
L 494.181818 697.761333 
L 492.798905 699.903619 
L 490.909091 702.83115 
L 490.56503 703.174197 
L 488.727029 706.444774 
L 487.636364 708.905417 
L 487.082747 709.715352 
L 485.467457 712.98593 
L 484.628723 716.256507 
L 484.363636 716.767519 
L 481.660934 719.527085 
L 481.090909 721.398602 
L 480.173012 722.797663 
L 477.818182 724.597017 
L 477.138194 722.797663 
L 474.545455 721.186922 
L 472.933655 722.797663 
L 474.545455 724.625002 
L 477.119345 726.06824 
L 474.545455 728.872409 
L 474.175419 729.338818 
L 472.620781 732.609396 
L 471.272727 734.015988 
L 470.086721 735.879973 
L 468.009039 739.150551 
L 468 739.160862 
L 466.384692 742.421129 
L 465.103203 745.691706 
L 464.727273 746.349185 
L 463.039669 748.962284 
L 462.050317 752.232862 
L 461.454545 753.723095 
L 459.503157 755.503439 
L 458.181818 758.16219 
L 457.8037 758.774017 
L 454.909091 761.263192 
L 454.505018 762.044595 
L 451.767898 765.315172 
L 451.636364 765.424494 
L 450.049429 768.58575 
L 448.363636 770.484697 
L 447.484773 771.856328 
L 445.775375 775.126905 
L 445.090909 776.204765 
L 443.990635 778.397483 
L 442.870831 781.668061 
L 441.818182 783.705921 
L 440.839325 784.938638 
L 439.319249 788.209216 
L 438.545455 790.944788 
L 438.026788 791.479794 
L 435.327461 794.750371 
L 435.272727 794.873217 
L 432.015641 798.020949 
L 432 798.038425 
L 430.159474 801.291527 
L 428.727273 802.69262 
L 427.692642 804.562104 
L 425.454545 807.437933 
L 425.216164 807.832682 
L 423.827555 811.10326 
L 422.181818 814.06166 
L 421.966797 814.373837 
z
M 473.939974 722.797663 
L 474.545455 722.19258 
L 475.51943 722.797663 
L 474.545455 723.484112 
z
M 496.455541 686.821309 
L 497.454545 685.844087 
L 498.886507 686.821309 
L 497.454545 687.867469 
z
M 515.84222 657.38611 
L 517.090909 656.138241 
L 519.401893 657.38611 
L 517.090909 658.949375 
z
M 576 814.373837 
L 576 813.335034 
L 575.603884 814.373837 
z
M 432 792.944181 
L 433.93204 791.479794 
L 433.108616 788.209216 
L 432 787.342827 
L 431.134917 788.209216 
L 431.134917 791.479794 
z
M 451.636364 760.292403 
L 453.792596 758.774017 
L 451.636364 757.480299 
L 450.341795 758.774017 
z
M 451.513281 758.774017 
L 451.636364 758.651016 
L 451.841369 758.774017 
L 451.636364 758.918379 
z
" clip-path="url(#pff58e4848c)" style="fill: #f5f9fe; fill-opacity: 0.9"/>
    <path d="M 425.454545 814.373837 
L 428.727273 814.373837 
L 431.178292 814.373837 
L 432 813.013253 
L 434.665824 814.373837 
L 435.272727 814.373837 
L 435.752584 814.373837 
L 436.623938 811.10326 
L 438.545455 809.504264 
L 439.269408 807.832682 
L 441.130162 804.562104 
L 441.818182 802.955539 
L 442.356667 801.291527 
L 443.818655 798.020949 
L 445.090909 795.821429 
L 445.622202 794.750371 
L 446.532752 791.479794 
L 448.067001 788.209216 
L 448.363636 787.646592 
L 449.481539 784.938638 
L 450.6324 781.668061 
L 451.636364 779.566177 
L 452.404339 778.397483 
L 454.909091 776.063112 
L 456.414375 775.126905 
L 457.562614 771.856328 
L 457.815513 768.58575 
L 458.181818 768.146605 
L 461.454545 766.080477 
L 461.806307 765.315172 
L 462.15628 762.044595 
L 464.727273 759.384925 
L 465.020032 758.774017 
L 466.612126 755.503439 
L 467.928206 752.232862 
L 468 752.134693 
L 469.350922 748.962284 
L 470.951203 745.691706 
L 471.272727 745.187784 
L 473.757576 742.421129 
L 474.545455 741.978627 
L 475.936029 739.150551 
L 477.818182 737.538694 
L 479.672072 735.879973 
L 480.121197 732.609396 
L 481.090909 730.57452 
L 482.441416 729.338818 
L 483.832893 726.06824 
L 483.944995 722.797663 
L 484.363636 722.081954 
L 486.946243 719.527085 
L 487.385572 716.256507 
L 487.636364 715.335812 
L 489.655595 712.98593 
L 490.579782 709.715352 
L 490.909091 707.874685 
L 493.75929 706.444774 
L 494.181818 706.237535 
L 497.454545 705.459982 
L 498.344066 703.174197 
L 500.727273 700.581723 
L 501.443898 699.903619 
L 502.612689 696.633042 
L 503.174743 693.362464 
L 504 692.381235 
L 506.008708 690.091886 
L 506.458706 686.821309 
L 507.272727 684.796352 
L 508.4845 683.550731 
L 509.720856 680.280153 
L 510.313445 677.009576 
L 510.545455 676.499738 
L 512.757631 673.738998 
L 513.642597 670.46842 
L 513.818182 670.198099 
L 517.090909 668.422438 
L 517.496333 667.197843 
L 520.363636 665.123049 
L 521.474073 663.927265 
L 521.974833 660.656687 
L 523.636364 658.81036 
L 524.972108 657.38611 
L 525.718965 654.115532 
L 526.909091 652.442708 
L 528.427431 650.844954 
L 529.304774 647.574377 
L 530.181818 646.11424 
L 531.848342 644.303799 
L 532.855348 641.033221 
L 533.454545 639.955985 
L 535.627566 637.762644 
L 536.727273 636.122651 
L 539.43377 634.492066 
L 540 633.19904 
L 542.464193 634.492066 
L 543.272727 634.653973 
L 543.396167 634.492066 
L 544.396262 631.221488 
L 546.545455 629.759073 
L 548.004869 627.950911 
L 548.7431 624.680333 
L 549.818182 623.771934 
L 551.739852 621.409755 
L 552.478464 618.139178 
L 553.090909 617.415779 
L 555.067499 614.8686 
L 556.008814 611.598022 
L 556.363636 611.059623 
L 558.380166 608.327445 
L 559.636364 605.58633 
L 560.381832 605.056867 
L 562.547975 601.786289 
L 562.909091 601.317797 
L 566.181818 599.369379 
L 569.454545 599.379677 
L 569.968434 598.515712 
L 571.643371 595.245134 
L 572.727273 594.568438 
L 574.212889 591.974556 
L 576 588.988512 
L 576 588.703979 
L 576 587.097518 
L 573.766301 588.703979 
L 572.833528 591.974556 
L 572.727273 592.160077 
L 570.944355 591.974556 
L 569.454545 591.892563 
L 566.181818 590.607412 
L 564.813775 591.974556 
L 566.181818 594.644022 
L 567.884695 595.245134 
L 566.181818 596.362152 
L 564.810018 598.515712 
L 562.909091 600.074445 
L 561.589595 601.786289 
L 559.636364 604.151414 
L 558.929925 605.056867 
L 557.276048 608.327445 
L 556.363636 609.563663 
L 555.022927 611.598022 
L 553.906646 614.8686 
L 553.090909 615.919819 
L 551.211953 618.139178 
L 550.522865 621.409755 
L 549.818182 622.275975 
L 546.972643 624.680333 
L 546.545455 627.01796 
L 543.272727 627.035603 
L 542.39576 624.680333 
L 543.272727 623.803942 
L 545.788902 621.409755 
L 543.272727 620.098915 
L 541.79049 621.409755 
L 540 623.19907 
L 538.517763 624.680333 
L 540 626.608806 
L 542.717296 627.950911 
L 540 630.012013 
L 539.06811 631.221488 
L 536.727273 634.001119 
L 536.300413 634.492066 
L 533.941209 637.762644 
L 533.454545 638.253858 
L 531.908564 641.033221 
L 530.192023 644.303799 
L 530.181818 644.314886 
L 528.223976 647.574377 
L 526.909091 650.43893 
L 526.585887 650.844954 
L 524.345389 654.115532 
L 523.636364 656.062232 
L 522.833686 654.115532 
L 520.363636 652.794519 
L 519.114948 654.115532 
L 520.363636 656.424998 
L 522.50123 657.38611 
L 520.363636 659.94393 
L 520.049487 660.656687 
L 517.090909 663.513066 
L 516.799614 663.927265 
L 515.394719 667.197843 
L 513.818182 668.5516 
L 512.573131 670.46842 
L 510.944733 673.738998 
L 510.545455 674.237287 
L 509.283883 677.009576 
L 508.389527 680.280153 
L 507.272727 682.178035 
L 506.231625 683.550731 
L 505.185454 686.821309 
L 504.0236 690.091886 
L 504 690.118784 
L 501.271922 693.362464 
L 500.727273 695.841976 
L 497.454545 696.54609 
L 497.417814 696.633042 
L 494.181818 699.711833 
L 494.058014 699.903619 
L 492.70566 703.174197 
L 490.909091 704.781651 
L 489.904825 706.444774 
L 488.843451 709.715352 
L 487.636364 711.562634 
L 486.879842 712.98593 
L 486.007147 716.256507 
L 484.363636 719.424737 
L 484.263397 719.527085 
L 482.390703 722.797663 
L 481.91832 726.06824 
L 481.090909 727.2418 
L 478.722575 729.338818 
L 477.818182 731.725529 
L 476.059723 732.609396 
L 474.545455 733.465862 
L 472.500381 735.879973 
L 471.272727 736.70923 
L 470.231572 739.150551 
L 468 741.695979 
L 467.640723 742.421129 
L 466.795531 745.691706 
L 465.120365 748.962284 
L 464.727273 749.378097 
L 463.53408 752.232862 
L 462.718616 755.503439 
L 461.454545 757.043429 
L 460.187245 758.774017 
L 459.271912 762.044595 
L 458.181818 764.422408 
L 457.218311 765.315172 
L 454.929904 768.58575 
L 454.909091 768.639148 
L 451.636364 771.267451 
L 451.219367 771.856328 
L 448.363636 774.197867 
L 447.953117 775.126905 
L 446.557419 778.397483 
L 445.090909 780.318732 
L 444.642269 781.668061 
L 443.804281 784.938638 
L 441.818182 787.135312 
L 441.222259 788.209216 
L 440.686937 791.479794 
L 438.545455 794.636468 
L 438.442009 794.750371 
L 436.704286 798.020949 
L 435.586215 801.291527 
L 435.272727 801.609711 
L 432.623289 804.562104 
L 432 805.710856 
L 429.925249 807.832682 
L 428.727273 809.26622 
L 427.188485 811.10326 
L 425.454545 814.259819 
L 425.421982 814.373837 
z
M 519.901052 654.115532 
L 520.363636 653.626155 
L 521.278682 654.115532 
L 520.363636 654.971088 
z
M 539.281541 624.680333 
L 540 623.962346 
L 541.161255 624.680333 
L 540 625.615088 
z
M 542.554268 621.409755 
L 543.272727 620.774375 
L 544.492349 621.409755 
L 543.272727 622.570248 
z
M 565.470259 591.974556 
L 566.181818 591.263465 
L 567.938314 591.974556 
L 566.181818 593.363023 
z
M 576 813.335034 
L 576 811.419285 
L 574.87337 814.373837 
L 575.603884 814.373837 
z
M 451.636364 758.918379 
L 451.841369 758.774017 
L 451.636364 758.651016 
L 451.513281 758.774017 
z
M 474.545455 723.484112 
L 475.51943 722.797663 
L 474.545455 722.19258 
L 473.939974 722.797663 
z
M 497.454545 687.867469 
L 498.886507 686.821309 
L 497.454545 685.844087 
L 496.455541 686.821309 
z
M 497.366098 686.821309 
L 497.454545 686.73479 
L 497.581325 686.821309 
L 497.454545 686.913931 
z
M 517.090909 658.949375 
L 519.401893 657.38611 
L 517.090909 656.138241 
L 515.84222 657.38611 
z
M 516.628325 657.38611 
L 517.090909 656.923829 
L 517.947027 657.38611 
L 517.090909 657.965231 
z
" clip-path="url(#pff58e4848c)" style="fill: #eff6fc; fill-opacity: 0.9"/>
    <path d="M 432 814.373837 
L 434.665824 814.373837 
L 432 813.013253 
L 431.178292 814.373837 
z
M 438.545455 814.373837 
L 441.818182 814.373837 
L 445.090909 814.373837 
L 448.363636 814.373837 
L 451.636364 814.373837 
L 454.909091 814.373837 
L 458.181818 814.373837 
L 461.454545 814.373837 
L 464.727273 814.373837 
L 468 814.373837 
L 471.236187 814.373837 
L 471.272727 814.341181 
L 473.085158 811.10326 
L 474.410389 807.832682 
L 474.545455 807.627897 
L 476.308612 804.562104 
L 477.71496 801.291527 
L 477.818182 801.079746 
L 479.620901 798.020949 
L 481.090909 795.191972 
L 481.349932 794.750371 
L 483.330823 791.479794 
L 484.363636 789.608081 
L 485.187929 788.209216 
L 487.11638 784.938638 
L 487.636364 784.024191 
L 489.031159 781.668061 
L 490.909091 778.455537 
L 490.957236 778.397483 
L 492.879696 775.126905 
L 494.181818 772.909713 
L 494.96941 771.856328 
L 496.733613 768.58575 
L 497.454545 767.363888 
L 498.777891 765.315172 
L 500.308482 762.044595 
L 500.727273 761.190468 
L 502.217978 758.774017 
L 503.853083 755.503439 
L 504 755.163109 
L 505.634363 752.232862 
L 507.272727 749.355051 
L 507.498927 748.962284 
L 509.181697 745.691706 
L 510.545455 743.533166 
L 511.215635 742.421129 
L 512.952038 739.150551 
L 513.818182 737.765387 
L 514.969315 735.879973 
L 516.81662 732.609396 
L 517.090909 732.158693 
L 518.619098 729.338818 
L 519.931251 726.06824 
L 520.363636 725.036121 
L 521.233085 722.797663 
L 522.28139 719.527085 
L 523.636364 716.836337 
L 523.915856 716.256507 
L 524.191597 712.98593 
L 526.145961 709.715352 
L 526.423818 706.444774 
L 526.909091 704.534498 
L 527.480402 703.174197 
L 528.24648 699.903619 
L 528.215047 696.633042 
L 528.82483 693.362464 
L 527.817748 690.091886 
L 526.909091 688.518764 
L 526.157096 686.821309 
L 524.780521 683.550731 
L 525.410921 680.280153 
L 525.544398 677.009576 
L 525.98151 673.738998 
L 526.461518 670.46842 
L 526.909091 669.794638 
L 527.752053 667.197843 
L 527.6289 663.927265 
L 528.45682 660.656687 
L 529.807967 657.38611 
L 530.181818 654.625216 
L 530.266927 654.115532 
L 532.20102 650.844954 
L 533.256792 647.574377 
L 533.454545 646.63877 
L 534.561733 644.303799 
L 536.727273 641.277275 
L 540 642.828571 
L 541.818448 641.033221 
L 543.272727 639.382509 
L 544.944305 637.762644 
L 546.169591 634.492066 
L 546.545455 633.396627 
L 548.610766 631.221488 
L 549.619797 627.950911 
L 549.818182 627.171695 
L 552.068222 624.680333 
L 552.95684 621.409755 
L 553.090909 620.83474 
L 555.450942 618.139178 
L 556.228352 614.8686 
L 556.363636 614.364858 
L 558.79665 611.598022 
L 559.484284 608.327445 
L 559.636364 607.995596 
L 562.909091 607.400835 
L 566.181818 607.745497 
L 567.965862 605.056867 
L 569.454545 603.342952 
L 571.052732 601.786289 
L 572.056901 598.515712 
L 572.727273 597.506284 
L 574.959487 595.245134 
L 575.592251 591.974556 
L 576 591.293258 
L 576 588.988512 
L 574.212889 591.974556 
L 572.727273 594.568438 
L 571.643371 595.245134 
L 569.968434 598.515712 
L 569.454545 599.379677 
L 566.181818 599.369379 
L 562.909091 601.317797 
L 562.547975 601.786289 
L 560.381832 605.056867 
L 559.636364 605.58633 
L 558.380166 608.327445 
L 556.363636 611.059623 
L 556.008814 611.598022 
L 555.067499 614.8686 
L 553.090909 617.415779 
L 552.478464 618.139178 
L 551.739852 621.409755 
L 549.818182 623.771934 
L 548.7431 624.680333 
L 548.004869 627.950911 
L 546.545455 629.759073 
L 544.396262 631.221488 
L 543.396167 634.492066 
L 543.272727 634.653973 
L 542.464193 634.492066 
L 540 633.19904 
L 539.43377 634.492066 
L 536.727273 636.122651 
L 535.627566 637.762644 
L 533.454545 639.955985 
L 532.855348 641.033221 
L 531.848342 644.303799 
L 530.181818 646.11424 
L 529.304774 647.574377 
L 528.427431 650.844954 
L 526.909091 652.442708 
L 525.718965 654.115532 
L 524.972108 657.38611 
L 523.636364 658.81036 
L 521.974833 660.656687 
L 521.474073 663.927265 
L 520.363636 665.123049 
L 517.496333 667.197843 
L 517.090909 668.422438 
L 513.818182 670.198099 
L 513.642597 670.46842 
L 512.757631 673.738998 
L 510.545455 676.499738 
L 510.313445 677.009576 
L 509.720856 680.280153 
L 508.4845 683.550731 
L 507.272727 684.796352 
L 506.458706 686.821309 
L 506.008708 690.091886 
L 504 692.381235 
L 503.174743 693.362464 
L 502.612689 696.633042 
L 501.443898 699.903619 
L 500.727273 700.581723 
L 498.344066 703.174197 
L 497.454545 705.459982 
L 494.181818 706.237535 
L 493.75929 706.444774 
L 490.909091 707.874685 
L 490.579782 709.715352 
L 489.655595 712.98593 
L 487.636364 715.335812 
L 487.385572 716.256507 
L 486.946243 719.527085 
L 484.363636 722.081954 
L 483.944995 722.797663 
L 483.832893 726.06824 
L 482.441416 729.338818 
L 481.090909 730.57452 
L 480.121197 732.609396 
L 479.672072 735.879973 
L 477.818182 737.538694 
L 475.936029 739.150551 
L 474.545455 741.978627 
L 473.757576 742.421129 
L 471.272727 745.187784 
L 470.951203 745.691706 
L 469.350922 748.962284 
L 468 752.134693 
L 467.928206 752.232862 
L 466.612126 755.503439 
L 465.020032 758.774017 
L 464.727273 759.384925 
L 462.15628 762.044595 
L 461.806307 765.315172 
L 461.454545 766.080477 
L 458.181818 768.146605 
L 457.815513 768.58575 
L 457.562614 771.856328 
L 456.414375 775.126905 
L 454.909091 776.063112 
L 452.404339 778.397483 
L 451.636364 779.566177 
L 450.6324 781.668061 
L 449.481539 784.938638 
L 448.363636 787.646592 
L 448.067001 788.209216 
L 446.532752 791.479794 
L 445.622202 794.750371 
L 445.090909 795.821429 
L 443.818655 798.020949 
L 442.356667 801.291527 
L 441.818182 802.955539 
L 441.130162 804.562104 
L 439.269408 807.832682 
L 438.545455 809.504264 
L 436.623938 811.10326 
L 435.752584 814.373837 
z
M 576 811.419285 
L 576 811.10326 
L 576 809.872764 
L 575.185322 811.10326 
L 574.142857 814.373837 
L 574.87337 814.373837 
z
M 497.454545 686.913931 
L 497.581325 686.821309 
L 497.454545 686.73479 
L 497.366098 686.821309 
z
M 517.090909 657.965231 
L 517.947027 657.38611 
L 517.090909 656.923829 
L 516.628325 657.38611 
z
M 520.363636 654.971088 
L 521.278682 654.115532 
L 520.363636 653.626155 
L 519.901052 654.115532 
z
M 540 625.615088 
L 541.161255 624.680333 
L 540 623.962346 
L 539.281541 624.680333 
z
M 543.272727 622.570248 
L 544.492349 621.409755 
L 543.272727 620.774375 
L 542.554268 621.409755 
z
M 566.181818 593.363023 
L 567.938314 591.974556 
L 566.181818 591.263465 
L 565.470259 591.974556 
z
M 566.126743 591.974556 
L 566.181818 591.919518 
L 566.317771 591.974556 
L 566.181818 592.082024 
z
" clip-path="url(#pff58e4848c)" style="fill: #eaf3fb; fill-opacity: 0.9"/>
    <path d="M 471.272727 814.373837 
L 474.545455 814.373837 
L 477.818182 814.373837 
L 481.090909 814.373837 
L 484.363636 814.373837 
L 487.636364 814.373837 
L 490.909091 814.373837 
L 494.181818 814.373837 
L 497.454545 814.373837 
L 500.727273 814.373837 
L 504 814.373837 
L 507.272727 814.373837 
L 510.545455 814.373837 
L 513.818182 814.373837 
L 517.090909 814.373837 
L 520.363636 814.373837 
L 523.636364 814.373837 
L 526.909091 814.373837 
L 528.147283 814.373837 
L 530.087841 811.10326 
L 530.181818 810.987086 
L 531.396054 807.832682 
L 532.938225 804.562104 
L 533.454545 803.914613 
L 534.650345 801.291527 
L 535.96479 798.020949 
L 536.727273 796.832808 
L 537.711976 794.750371 
L 538.862564 791.479794 
L 540 789.204193 
L 540.571425 788.209216 
L 541.647565 784.938638 
L 543.101055 781.668061 
L 543.272727 781.419512 
L 544.825999 778.397483 
L 545.566316 775.126905 
L 546.545455 773.688131 
L 547.969507 771.856328 
L 548.62905 768.58575 
L 549.818182 766.292663 
L 550.662243 765.315172 
L 552.007446 762.044595 
L 553.090909 759.129034 
L 553.327685 758.774017 
L 555.117588 755.503439 
L 556.363636 752.399429 
L 556.419178 752.232862 
L 558.138558 748.962284 
L 559.456599 745.691706 
L 559.636364 745.27083 
L 560.874867 742.421129 
L 562.499756 739.150551 
L 562.909091 738.118022 
L 563.594641 735.879973 
L 565.485238 732.609396 
L 566.181818 730.814179 
L 566.537862 729.338818 
L 567.894489 726.06824 
L 569.454545 723.169817 
L 569.594264 722.797663 
L 570.786755 719.527085 
L 572.727273 716.539682 
L 572.870487 716.256507 
L 573.889342 712.98593 
L 576 710.008647 
L 576 709.715352 
L 576 706.444774 
L 576 703.174197 
L 576 699.903619 
L 576 696.633042 
L 576 693.362464 
L 576 690.091886 
L 576 686.821309 
L 576 683.550731 
L 576 680.280153 
L 576 677.009576 
L 576 673.738998 
L 576 670.46842 
L 576 667.197843 
L 576 663.927265 
L 576 660.656687 
L 576 657.38611 
L 576 654.115532 
L 576 650.844954 
L 576 647.574377 
L 576 644.303799 
L 576 641.033221 
L 576 637.762644 
L 576 634.492066 
L 576 631.221488 
L 576 627.950911 
L 576 624.680333 
L 576 621.409755 
L 576 618.139178 
L 576 614.8686 
L 576 611.598022 
L 576 608.327445 
L 576 605.056867 
L 576 601.786289 
L 576 598.515712 
L 576 595.245134 
L 576 591.974556 
L 576 591.293258 
L 575.592251 591.974556 
L 574.959487 595.245134 
L 572.727273 597.506284 
L 572.056901 598.515712 
L 571.052732 601.786289 
L 569.454545 603.342952 
L 567.965862 605.056867 
L 566.181818 607.745497 
L 562.909091 607.400835 
L 559.636364 607.995596 
L 559.484284 608.327445 
L 558.79665 611.598022 
L 556.363636 614.364858 
L 556.228352 614.8686 
L 555.450942 618.139178 
L 553.090909 620.83474 
L 552.95684 621.409755 
L 552.068222 624.680333 
L 549.818182 627.171695 
L 549.619797 627.950911 
L 548.610766 631.221488 
L 546.545455 633.396627 
L 546.169591 634.492066 
L 544.944305 637.762644 
L 543.272727 639.382509 
L 541.818448 641.033221 
L 540 642.828571 
L 536.727273 641.277275 
L 534.561733 644.303799 
L 533.454545 646.63877 
L 533.256792 647.574377 
L 532.20102 650.844954 
L 530.266927 654.115532 
L 530.181818 654.625216 
L 529.807967 657.38611 
L 528.45682 660.656687 
L 527.6289 663.927265 
L 527.752053 667.197843 
L 526.909091 669.794638 
L 526.461518 670.46842 
L 525.98151 673.738998 
L 525.544398 677.009576 
L 525.410921 680.280153 
L 524.780521 683.550731 
L 526.157096 686.821309 
L 526.909091 688.518764 
L 527.817748 690.091886 
L 528.82483 693.362464 
L 528.215047 696.633042 
L 528.24648 699.903619 
L 527.480402 703.174197 
L 526.909091 704.534498 
L 526.423818 706.444774 
L 526.145961 709.715352 
L 524.191597 712.98593 
L 523.915856 716.256507 
L 523.636364 716.836337 
L 522.28139 719.527085 
L 521.233085 722.797663 
L 520.363636 725.036121 
L 519.931251 726.06824 
L 518.619098 729.338818 
L 517.090909 732.158693 
L 516.81662 732.609396 
L 514.969315 735.879973 
L 513.818182 737.765387 
L 512.952038 739.150551 
L 511.215635 742.421129 
L 510.545455 743.533166 
L 509.181697 745.691706 
L 507.498927 748.962284 
L 507.272727 749.355051 
L 505.634363 752.232862 
L 504 755.163109 
L 503.853083 755.503439 
L 502.217978 758.774017 
L 500.727273 761.190468 
L 500.308482 762.044595 
L 498.777891 765.315172 
L 497.454545 767.363888 
L 496.733613 768.58575 
L 494.96941 771.856328 
L 494.181818 772.909713 
L 492.879696 775.126905 
L 490.957236 778.397483 
L 490.909091 778.455537 
L 489.031159 781.668061 
L 487.636364 784.024191 
L 487.11638 784.938638 
L 485.187929 788.209216 
L 484.363636 789.608081 
L 483.330823 791.479794 
L 481.349932 794.750371 
L 481.090909 795.191972 
L 479.620901 798.020949 
L 477.818182 801.079746 
L 477.71496 801.291527 
L 476.308612 804.562104 
L 474.545455 807.627897 
L 474.410389 807.832682 
L 473.085158 811.10326 
L 471.272727 814.341181 
L 471.236187 814.373837 
z
M 575.185322 811.10326 
L 576 809.872764 
L 576 808.399183 
L 574.209704 811.10326 
L 573.412343 814.373837 
L 574.142857 814.373837 
z
M 566.181818 592.082024 
L 566.317771 591.974556 
L 566.181818 591.919518 
L 566.126743 591.974556 
z
" clip-path="url(#pff58e4848c)" style="fill: #e5eff9; fill-opacity: 0.9"/>
    <path d="M 530.181818 814.373837 
L 533.454545 814.373837 
L 536.727273 814.373837 
L 540 814.373837 
L 543.272727 814.373837 
L 545.81029 814.373837 
L 545.294969 811.10326 
L 546.545455 807.848942 
L 547.911036 811.10326 
L 549.818182 812.24628 
L 550.343769 811.10326 
L 551.018171 807.832682 
L 553.090909 804.850067 
L 553.236689 804.562104 
L 554.246303 801.291527 
L 554.768649 798.020949 
L 556.363636 796.572118 
L 557.154127 794.750371 
L 557.540745 791.479794 
L 559.636364 788.737287 
L 560.078265 788.209216 
L 560.252026 784.938638 
L 560.889287 781.668061 
L 559.636364 779.225656 
L 558.967742 778.397483 
L 559.636364 776.939133 
L 562.909091 776.945362 
L 563.056615 775.126905 
L 562.909091 774.17812 
L 562.036284 771.856328 
L 562.909091 770.007804 
L 563.567665 768.58575 
L 565.005069 765.315172 
L 566.181818 762.414271 
L 566.326891 762.044595 
L 567.641678 758.774017 
L 569.037375 755.503439 
L 569.454545 754.307839 
L 570.28221 752.232862 
L 571.621878 748.962284 
L 572.727273 746.196259 
L 572.926629 745.691706 
L 574.257315 742.421129 
L 575.765912 739.150551 
L 576 738.093039 
L 576 735.879973 
L 576 732.609396 
L 576 729.338818 
L 576 726.06824 
L 576 722.797663 
L 576 719.527085 
L 576 716.256507 
L 576 712.98593 
L 576 710.008647 
L 573.889342 712.98593 
L 572.870487 716.256507 
L 572.727273 716.539682 
L 570.786755 719.527085 
L 569.594264 722.797663 
L 569.454545 723.169817 
L 567.894489 726.06824 
L 566.537862 729.338818 
L 566.181818 730.814179 
L 565.485238 732.609396 
L 563.594641 735.879973 
L 562.909091 738.118022 
L 562.499756 739.150551 
L 560.874867 742.421129 
L 559.636364 745.27083 
L 559.456599 745.691706 
L 558.138558 748.962284 
L 556.419178 752.232862 
L 556.363636 752.399429 
L 555.117588 755.503439 
L 553.327685 758.774017 
L 553.090909 759.129034 
L 552.007446 762.044595 
L 550.662243 765.315172 
L 549.818182 766.292663 
L 548.62905 768.58575 
L 547.969507 771.856328 
L 546.545455 773.688131 
L 545.566316 775.126905 
L 544.825999 778.397483 
L 543.272727 781.419512 
L 543.101055 781.668061 
L 541.647565 784.938638 
L 540.571425 788.209216 
L 540 789.204193 
L 538.862564 791.479794 
L 537.711976 794.750371 
L 536.727273 796.832808 
L 535.96479 798.020949 
L 534.650345 801.291527 
L 533.454545 803.914613 
L 532.938225 804.562104 
L 531.396054 807.832682 
L 530.181818 810.987086 
L 530.087841 811.10326 
L 528.147283 814.373837 
z
M 549.182619 801.291527 
L 549.746553 798.020949 
L 549.818182 797.863813 
L 549.878306 798.020949 
L 549.990246 801.291527 
L 549.818182 801.669792 
z
M 552.798101 791.479794 
L 553.090909 790.833887 
L 553.283901 791.479794 
L 553.090909 792.984286 
z
M 555.888344 784.938638 
L 556.363636 783.870461 
L 556.872859 784.938638 
L 556.363636 785.904625 
z
M 572.727273 814.373837 
L 573.412343 814.373837 
L 574.209704 811.10326 
L 576 808.399183 
L 576 807.832682 
L 576 806.019839 
L 574.444147 807.832682 
L 573.234087 811.10326 
L 572.727273 814.024074 
L 572.426258 814.373837 
z
" clip-path="url(#pff58e4848c)" style="fill: #dfecf7; fill-opacity: 0.9"/>
    <path d="M 546.545455 814.373837 
L 549.818182 814.373837 
L 552.686728 814.373837 
L 553.090909 811.577466 
L 553.502798 811.10326 
L 556.233124 807.832682 
L 556.363636 807.042677 
L 559.636364 805.732546 
L 560.570299 804.562104 
L 561.515936 801.291527 
L 562.909091 798.720875 
L 563.446206 798.020949 
L 565.390748 794.750371 
L 566.019361 791.479794 
L 566.181818 791.273958 
L 568.725813 788.209216 
L 569.260738 784.938638 
L 569.454545 784.542966 
L 572.059359 781.668061 
L 572.593814 778.397483 
L 572.727273 778.046207 
L 575.53228 775.126905 
L 576 773.431331 
L 576 771.856328 
L 576 768.58575 
L 576 765.315172 
L 576 762.044595 
L 576 758.774017 
L 576 755.503439 
L 576 752.232862 
L 576 748.962284 
L 576 745.691706 
L 576 742.421129 
L 576 739.150551 
L 576 738.093039 
L 575.765912 739.150551 
L 574.257315 742.421129 
L 572.926629 745.691706 
L 572.727273 746.196259 
L 571.621878 748.962284 
L 570.28221 752.232862 
L 569.454545 754.307839 
L 569.037375 755.503439 
L 567.641678 758.774017 
L 566.326891 762.044595 
L 566.181818 762.414271 
L 565.005069 765.315172 
L 563.567665 768.58575 
L 562.909091 770.007804 
L 562.036284 771.856328 
L 562.909091 774.17812 
L 563.056615 775.126905 
L 562.909091 776.945362 
L 559.636364 776.939133 
L 558.967742 778.397483 
L 559.636364 779.225656 
L 560.889287 781.668061 
L 560.252026 784.938638 
L 560.078265 788.209216 
L 559.636364 788.737287 
L 557.540745 791.479794 
L 557.154127 794.750371 
L 556.363636 796.572118 
L 554.768649 798.020949 
L 554.246303 801.291527 
L 553.236689 804.562104 
L 553.090909 804.850067 
L 551.018171 807.832682 
L 550.343769 811.10326 
L 549.818182 812.24628 
L 547.911036 811.10326 
L 546.545455 807.848942 
L 545.294969 811.10326 
L 545.81029 814.373837 
z
M 566.181818 814.373837 
L 569.454545 814.373837 
L 572.426258 814.373837 
L 572.727273 814.024074 
L 573.234087 811.10326 
L 574.444147 807.832682 
L 576 806.019839 
L 576 804.562104 
L 576 801.291527 
L 576 798.020949 
L 576 795.241498 
L 574.375118 798.020949 
L 572.727273 799.994573 
L 571.84176 801.291527 
L 570.704968 804.562104 
L 569.454545 806.307129 
L 568.115273 807.832682 
L 567.154283 811.10326 
L 566.181818 812.893746 
L 565.105332 814.373837 
z
M 549.818182 801.669792 
L 549.990246 801.291527 
L 549.878306 798.020949 
L 549.818182 797.863813 
L 549.746553 798.020949 
L 549.182619 801.291527 
z
M 553.090909 792.984286 
L 553.283901 791.479794 
L 553.090909 790.833887 
L 552.798101 791.479794 
z
M 556.363636 785.904625 
L 556.872859 784.938638 
L 556.363636 783.870461 
L 555.888344 784.938638 
z
" clip-path="url(#pff58e4848c)" style="fill: #dae8f6; fill-opacity: 0.9"/>
    <path d="M 553.090909 814.373837 
L 556.363636 814.373837 
L 559.636364 814.373837 
L 562.909091 814.373837 
L 565.105332 814.373837 
L 566.181818 812.893746 
L 567.154283 811.10326 
L 568.115273 807.832682 
L 569.454545 806.307129 
L 570.704968 804.562104 
L 571.84176 801.291527 
L 572.727273 799.994573 
L 574.375118 798.020949 
L 576 795.241498 
L 576 794.750371 
L 576 791.479794 
L 576 788.209216 
L 576 784.938638 
L 576 781.668061 
L 576 778.397483 
L 576 775.126905 
L 576 773.431331 
L 575.53228 775.126905 
L 572.727273 778.046207 
L 572.593814 778.397483 
L 572.059359 781.668061 
L 569.454545 784.542966 
L 569.260738 784.938638 
L 568.725813 788.209216 
L 566.181818 791.273958 
L 566.019361 791.479794 
L 565.390748 794.750371 
L 563.446206 798.020949 
L 562.909091 798.720875 
L 561.515936 801.291527 
L 560.570299 804.562104 
L 559.636364 805.732546 
L 556.363636 807.042677 
L 556.233124 807.832682 
L 553.502798 811.10326 
L 553.090909 811.577466 
L 552.686728 814.373837 
z
" clip-path="url(#pff58e4848c)" style="fill: #d6e5f4; fill-opacity: 0.9"/>
    <path clip-path="url(#pff58e4848c)" style="fill: #d0e2f2; fill-opacity: 0.9"/>
    <path clip-path="url(#pff58e4848c)" style="fill: #cbdef1; fill-opacity: 0.9"/>
    <path clip-path="url(#pff58e4848c)" style="fill: #c6dbef; fill-opacity: 0.9"/>
    <path clip-path="url(#pff58e4848c)" style="fill: #bed8ec; fill-opacity: 0.9"/>
    <path clip-path="url(#pff58e4848c)" style="fill: #b5d4e9; fill-opacity: 0.9"/>
    <path clip-path="url(#pff58e4848c)" style="fill: #add0e6; fill-opacity: 0.9"/>
    <path clip-path="url(#pff58e4848c)" style="fill: #a5cde3; fill-opacity: 0.9"/>
    <path clip-path="url(#pff58e4848c)" style="fill: #9cc9e1; fill-opacity: 0.9"/>
    <path clip-path="url(#pff58e4848c)" style="fill: #91c3de; fill-opacity: 0.9"/>
    <path clip-path="url(#pff58e4848c)" style="fill: #85bcdc; fill-opacity: 0.9"/>
    <path clip-path="url(#pff58e4848c)" style="fill: #7cb7da; fill-opacity: 0.9"/>
    <path clip-path="url(#pff58e4848c)" style="fill: #71b1d7; fill-opacity: 0.9"/>
    <path clip-path="url(#pff58e4848c)" style="fill: #66abd4; fill-opacity: 0.9"/>
    <path clip-path="url(#pff58e4848c)" style="fill: #5da5d1; fill-opacity: 0.9"/>
    <path clip-path="url(#pff58e4848c)" style="fill: #56a0ce; fill-opacity: 0.9"/>
    <path clip-path="url(#pff58e4848c)" style="fill: #4d99ca; fill-opacity: 0.9"/>
    <path clip-path="url(#pff58e4848c)" style="fill: #4493c7; fill-opacity: 0.9"/>
    <path clip-path="url(#pff58e4848c)" style="fill: #3c8cc3; fill-opacity: 0.9"/>
    <path clip-path="url(#pff58e4848c)" style="fill: #3686c0; fill-opacity: 0.9"/>
    <path clip-path="url(#pff58e4848c)" style="fill: #2f7fbc; fill-opacity: 0.9"/>
    <path clip-path="url(#pff58e4848c)" style="fill: #2777b8; fill-opacity: 0.9"/>
    <path clip-path="url(#pff58e4848c)" style="fill: #2070b4; fill-opacity: 0.9"/>
    <path clip-path="url(#pff58e4848c)" style="fill: #1c6ab0; fill-opacity: 0.9"/>
    <path clip-path="url(#pff58e4848c)" style="fill: #1663aa; fill-opacity: 0.9"/>
    <path clip-path="url(#pff58e4848c)" style="fill: #115ca5; fill-opacity: 0.9"/>
    <path clip-path="url(#pff58e4848c)" style="fill: #0c56a0; fill-opacity: 0.9"/>
    <path clip-path="url(#pff58e4848c)" style="fill: #084f99; fill-opacity: 0.9"/>
    <path clip-path="url(#pff58e4848c)" style="fill: #08488e; fill-opacity: 0.9"/>
    <path clip-path="url(#pff58e4848c)" style="fill: #084184; fill-opacity: 0.9"/>
    <path clip-path="url(#pff58e4848c)" style="fill: #083a7a; fill-opacity: 0.9"/>
    <path clip-path="url(#pff58e4848c)" style="fill: #083370; fill-opacity: 0.9"/>
    <path clip-path="url(#pff58e4848c)" style="fill: #08306b; fill-opacity: 0.9"/>
   </g>
   <g id="QuadContourSet_2">
    <path d="M 576 584.548606 
L 575.628635 585.433401 
L 572.727273 587.226451 
L 571.802239 588.703979 
L 569.454545 590.618731 
L 566.181818 589.951359 
L 564.157291 591.974556 
L 565.46762 595.245134 
L 563.293708 598.515712 
L 562.909091 598.831093 
L 560.631215 601.786289 
L 559.636364 602.990933 
L 558.024511 605.056867 
L 556.363636 608.044645 
L 556.089782 608.327445 
L 554.03704 611.598022 
L 553.090909 614.095053 
L 552.181321 614.8686 
L 549.945442 618.139178 
L 549.818182 618.769414 
L 546.545455 620.665032 
L 543.272727 619.423456 
L 541.026712 621.409755 
L 540 622.435793 
L 537.753985 624.680333 
L 540 627.602523 
L 540.705364 627.950911 
L 540 628.485938 
L 537.892283 631.221488 
L 536.727273 632.604881 
L 535.086438 634.492066 
L 533.747384 636.246996 
M 523.770821 652.397331 
L 523.636364 652.619201 
L 520.363636 651.962884 
L 518.328843 654.115532 
L 517.090909 655.352653 
L 515.056116 657.38611 
L 517.090909 659.933519 
L 518.344077 660.656687 
L 517.090909 661.866567 
L 515.641673 663.927265 
L 513.818182 666.866045 
L 513.486166 667.197843 
L 511.503665 670.46842 
L 510.545455 672.217118 
L 509.461614 673.738998 
L 508.25432 677.009576 
L 507.272727 679.8073 
L 506.874966 680.280153 
L 504.5157 683.550731 
L 504 686.210942 
L 503.529165 686.821309 
L 500.727273 688.56645 
L 500.19169 686.821309 
L 497.454545 684.953384 
L 495.544983 686.821309 
L 497.454545 688.821008 
L 500.033273 690.091886 
L 497.454545 692.691516 
L 496.84306 693.362464 
L 495.367721 696.633042 
L 494.181818 697.761333 
L 492.798905 699.903619 
L 490.909091 702.83115 
L 490.56503 703.174197 
L 488.727029 706.444774 
L 487.636364 708.905417 
L 487.082747 709.715352 
L 485.467457 712.98593 
L 484.628723 716.256507 
L 484.363636 716.767519 
L 481.660934 719.527085 
L 481.090909 721.398602 
L 480.173012 722.797663 
L 477.818182 724.597017 
L 477.138194 722.797663 
L 474.545455 721.186922 
L 472.933655 722.797663 
L 474.545455 724.625002 
L 477.119345 726.06824 
L 474.545455 728.872409 
L 474.175419 729.338818 
L 472.620781 732.609396 
L 471.272727 734.015988 
L 470.086721 735.879973 
L 468.009039 739.150551 
L 468 739.160862 
L 466.384692 742.421129 
L 465.103203 745.691706 
L 464.727273 746.349185 
L 463.039669 748.962284 
L 462.050317 752.232862 
L 461.454545 753.723095 
L 459.503157 755.503439 
L 458.181818 758.16219 
L 457.8037 758.774017 
L 454.909091 761.263192 
L 454.505018 762.044595 
L 451.767898 765.315172 
L 451.636364 765.424494 
L 450.049429 768.58575 
L 448.363636 770.484697 
L 447.484773 771.856328 
L 445.775375 775.126905 
L 445.090909 776.204765 
L 443.990635 778.397483 
L 442.870831 781.668061 
L 441.818182 783.705921 
L 440.839325 784.938638 
L 439.319249 788.209216 
L 438.545455 790.944788 
L 438.026788 791.479794 
L 435.327461 794.750371 
L 435.272727 794.873217 
L 432.015641 798.020949 
L 432 798.038425 
L 430.159474 801.291527 
L 428.727273 802.69262 
L 427.692642 804.562104 
L 425.454545 807.437933 
L 425.216164 807.832682 
L 423.827555 811.10326 
L 422.181818 814.06166 
L 421.966797 814.373837 
M 432 792.944181 
L 433.93204 791.479794 
L 433.108616 788.209216 
L 432 787.342827 
L 431.134917 788.209216 
L 431.134917 791.479794 
L 432 792.944181 
z
M 451.636364 760.292403 
L 453.792596 758.774017 
L 451.636364 757.480299 
L 450.341795 758.774017 
L 451.636364 760.292403 
z
" clip-path="url(#pff58e4848c)" style="fill: none"/>
    <path d="M 575.603884 814.373837 
L 576 813.335034 
M 576 587.097518 
L 573.766301 588.703979 
L 572.833528 591.974556 
L 572.727273 592.160077 
L 570.944355 591.974556 
L 569.454545 591.892563 
L 566.181818 590.607412 
L 564.813775 591.974556 
L 566.181818 594.644022 
L 567.884695 595.245134 
L 566.181818 596.362152 
L 564.810018 598.515712 
L 562.909091 600.074445 
L 561.589595 601.786289 
L 559.636364 604.151414 
L 558.929925 605.056867 
L 557.276048 608.327445 
L 556.363636 609.563663 
L 555.022927 611.598022 
L 553.906646 614.8686 
L 553.090909 615.919819 
L 551.211953 618.139178 
L 550.522865 621.409755 
L 549.818182 622.275975 
L 546.972643 624.680333 
L 546.545455 627.01796 
L 543.272727 627.035603 
L 542.39576 624.680333 
L 543.272727 623.803942 
L 545.788902 621.409755 
L 543.272727 620.098915 
L 541.79049 621.409755 
L 540 623.19907 
L 538.517763 624.680333 
L 540 626.608806 
L 542.717296 627.950911 
L 540 630.012013 
L 539.06811 631.221488 
L 536.727273 634.001119 
L 536.300413 634.492066 
L 533.941209 637.762644 
L 533.454545 638.253858 
L 531.908564 641.033221 
L 530.192023 644.303799 
L 530.181818 644.314886 
L 528.223976 647.574377 
L 526.909091 650.43893 
L 526.585887 650.844954 
L 524.345389 654.115532 
L 523.636364 656.062232 
L 522.833686 654.115532 
L 520.363636 652.794519 
L 519.114948 654.115532 
L 520.363636 656.424998 
L 522.50123 657.38611 
L 520.363636 659.94393 
L 520.049487 660.656687 
L 517.090909 663.513066 
L 516.799614 663.927265 
L 515.394719 667.197843 
L 513.818182 668.5516 
L 512.573131 670.46842 
L 512.084827 671.44916 
M 504.424708 688.962783 
L 504.0236 690.091886 
L 504 690.118784 
L 501.271922 693.362464 
L 500.727273 695.841976 
L 497.454545 696.54609 
L 497.417814 696.633042 
L 494.181818 699.711833 
L 494.058014 699.903619 
L 492.70566 703.174197 
L 490.909091 704.781651 
L 489.904825 706.444774 
L 488.843451 709.715352 
L 487.636364 711.562634 
L 486.879842 712.98593 
L 486.007147 716.256507 
L 484.363636 719.424737 
L 484.263397 719.527085 
L 482.390703 722.797663 
L 481.91832 726.06824 
L 481.090909 727.2418 
L 478.722575 729.338818 
L 477.818182 731.725529 
L 476.059723 732.609396 
L 474.545455 733.465862 
L 472.500381 735.879973 
L 471.272727 736.70923 
L 470.231572 739.150551 
L 468 741.695979 
L 467.640723 742.421129 
L 466.795531 745.691706 
L 465.120365 748.962284 
L 464.727273 749.378097 
L 463.53408 752.232862 
L 462.718616 755.503439 
L 461.454545 757.043429 
L 460.187245 758.774017 
L 459.271912 762.044595 
L 458.181818 764.422408 
L 457.218311 765.315172 
L 454.929904 768.58575 
L 454.909091 768.639148 
L 451.636364 771.267451 
L 451.219367 771.856328 
L 448.363636 774.197867 
L 447.953117 775.126905 
L 446.557419 778.397483 
L 445.090909 780.318732 
L 444.642269 781.668061 
L 443.804281 784.938638 
L 441.818182 787.135312 
L 441.222259 788.209216 
L 440.686937 791.479794 
L 438.545455 794.636468 
L 438.442009 794.750371 
L 436.704286 798.020949 
L 435.586215 801.291527 
L 435.272727 801.609711 
L 432.623289 804.562104 
L 432 805.710856 
L 429.925249 807.832682 
L 428.727273 809.26622 
L 427.188485 811.10326 
L 425.454545 814.259819 
L 425.421982 814.373837 
M 451.636364 758.918379 
L 451.841369 758.774017 
L 451.636364 758.651016 
L 451.513281 758.774017 
L 451.636364 758.918379 
z
M 474.545455 723.484112 
L 475.51943 722.797663 
L 474.545455 722.19258 
L 473.939974 722.797663 
L 474.545455 723.484112 
z
M 497.454545 687.867469 
L 498.886507 686.821309 
L 497.454545 685.844087 
L 496.455541 686.821309 
L 497.454545 687.867469 
z
M 517.090909 658.949375 
L 519.401893 657.38611 
L 517.090909 656.138241 
L 515.84222 657.38611 
L 517.090909 658.949375 
z
" clip-path="url(#pff58e4848c)" style="fill: none"/>
    <path d="M 434.665824 814.373837 
L 432 813.013253 
L 431.178292 814.373837 
M 574.87337 814.373837 
L 576 811.419285 
M 576 588.988512 
L 574.212889 591.974556 
L 572.727273 594.568438 
L 571.643371 595.245134 
L 569.968434 598.515712 
L 569.454545 599.379677 
L 566.181818 599.369379 
L 562.909091 601.317797 
L 562.547975 601.786289 
L 560.381832 605.056867 
L 559.636364 605.58633 
L 558.380166 608.327445 
L 556.363636 611.059623 
L 556.008814 611.598022 
L 555.067499 614.8686 
L 553.090909 617.415779 
L 552.478464 618.139178 
L 551.739852 621.409755 
L 549.818182 623.771934 
L 548.7431 624.680333 
L 548.004869 627.950911 
L 546.545455 629.759073 
L 544.396262 631.221488 
L 543.396167 634.492066 
L 543.272727 634.653973 
L 542.464193 634.492066 
L 540 633.19904 
L 539.43377 634.492066 
L 536.727273 636.122651 
L 535.627566 637.762644 
L 533.454545 639.955985 
L 532.855348 641.033221 
L 531.848342 644.303799 
L 530.181818 646.11424 
L 529.304774 647.574377 
L 528.427431 650.844954 
L 526.909091 652.442708 
L 525.718965 654.115532 
L 524.972108 657.38611 
L 523.636364 658.81036 
L 521.974833 660.656687 
L 521.474073 663.927265 
L 520.363636 665.123049 
L 517.496333 667.197843 
L 517.090909 668.422438 
L 513.818182 670.198099 
L 513.642597 670.46842 
L 512.757631 673.738998 
L 510.545455 676.499738 
L 510.313445 677.009576 
L 509.720856 680.280153 
L 508.4845 683.550731 
L 507.272727 684.796352 
L 506.458706 686.821309 
L 506.008708 690.091886 
L 504 692.381235 
L 503.174743 693.362464 
L 502.612689 696.633042 
L 501.443898 699.903619 
L 500.727273 700.581723 
L 498.344066 703.174197 
L 497.454545 705.459982 
L 494.181818 706.237535 
L 493.75929 706.444774 
L 490.909091 707.874685 
L 490.579782 709.715352 
L 489.655595 712.98593 
L 487.636364 715.335812 
L 487.385572 716.256507 
L 486.946243 719.527085 
L 484.363636 722.081954 
L 483.944995 722.797663 
L 483.832893 726.06824 
L 482.441416 729.338818 
L 481.090909 730.57452 
L 480.121197 732.609396 
L 479.672072 735.879973 
L 477.818182 737.538694 
L 475.936029 739.150551 
L 474.545455 741.978627 
L 473.757576 742.421129 
L 471.272727 745.187784 
L 470.951203 745.691706 
L 469.350922 748.962284 
L 468 752.134693 
L 467.928206 752.232862 
L 466.612126 755.503439 
L 465.020032 758.774017 
L 464.727273 759.384925 
L 462.15628 762.044595 
L 461.806307 765.315172 
L 461.454545 766.080477 
L 458.181818 768.146605 
L 457.815513 768.58575 
L 457.562614 771.856328 
L 456.414375 775.126905 
L 454.909091 776.063112 
L 452.404339 778.397483 
L 451.636364 779.566177 
L 450.6324 781.668061 
L 449.481539 784.938638 
L 448.666876 786.912039 
M 441.124295 804.572416 
L 439.269408 807.832682 
L 438.545455 809.504264 
L 436.623938 811.10326 
L 435.752584 814.373837 
M 497.454545 686.913931 
L 497.581325 686.821309 
L 497.454545 686.73479 
L 497.366098 686.821309 
L 497.454545 686.913931 
z
M 517.090909 657.965231 
L 517.947027 657.38611 
L 517.090909 656.923829 
L 516.628325 657.38611 
L 517.090909 657.965231 
z
M 520.363636 654.971088 
L 521.278682 654.115532 
L 520.363636 653.626155 
L 519.901052 654.115532 
L 520.363636 654.971088 
z
M 540 625.615088 
L 541.161255 624.680333 
L 540 623.962346 
L 539.281541 624.680333 
L 540 625.615088 
z
M 543.272727 622.570248 
L 544.492349 621.409755 
L 543.272727 620.774375 
L 542.554268 621.409755 
L 543.272727 622.570248 
z
M 566.181818 593.363023 
L 567.938314 591.974556 
L 566.181818 591.263465 
L 565.470259 591.974556 
L 566.181818 593.363023 
z
" clip-path="url(#pff58e4848c)" style="fill: none"/>
    <path d="M 574.142857 814.373837 
L 575.185322 811.10326 
L 576 809.872764 
M 576 591.293258 
L 575.592251 591.974556 
L 574.959487 595.245134 
L 572.727273 597.506284 
L 572.056901 598.515712 
L 571.052732 601.786289 
L 569.454545 603.342952 
L 567.965862 605.056867 
L 566.181818 607.745497 
L 562.909091 607.400835 
L 559.636364 607.995596 
L 559.484284 608.327445 
L 558.79665 611.598022 
L 556.363636 614.364858 
L 556.228352 614.8686 
L 555.450942 618.139178 
L 553.090909 620.83474 
L 552.95684 621.409755 
L 552.068222 624.680333 
L 549.818182 627.171695 
L 549.619797 627.950911 
L 548.610766 631.221488 
L 546.545455 633.396627 
L 546.169591 634.492066 
L 544.944305 637.762644 
L 543.272727 639.382509 
L 541.818448 641.033221 
L 540 642.828571 
L 536.727273 641.277275 
L 534.561733 644.303799 
L 533.454545 646.63877 
L 533.256792 647.574377 
L 532.20102 650.844954 
L 530.266927 654.115532 
L 530.181818 654.625216 
L 529.807967 657.38611 
L 528.45682 660.656687 
L 527.6289 663.927265 
L 527.752053 667.197843 
L 526.909091 669.794638 
L 526.461518 670.46842 
L 525.98151 673.738998 
L 525.544398 677.009576 
L 525.410921 680.280153 
L 524.780521 683.550731 
L 526.157096 686.821309 
L 526.909091 688.518764 
L 527.817748 690.091886 
L 528.82483 693.362464 
L 528.215047 696.633042 
L 528.24648 699.903619 
L 527.480402 703.174197 
L 526.909091 704.534498 
L 526.423818 706.444774 
L 526.145961 709.715352 
L 524.191597 712.98593 
L 523.915856 716.256507 
L 523.636364 716.836337 
L 522.28139 719.527085 
L 521.233085 722.797663 
L 520.363636 725.036121 
L 519.931251 726.06824 
L 518.619098 729.338818 
L 517.090909 732.158693 
L 516.81662 732.609396 
L 514.969315 735.879973 
L 513.818182 737.765387 
L 512.952038 739.150551 
L 511.215635 742.421129 
L 510.545455 743.533166 
L 509.181697 745.691706 
L 507.498927 748.962284 
L 507.272727 749.355051 
L 505.634363 752.232862 
L 504 755.163109 
L 503.853083 755.503439 
L 502.217978 758.774017 
L 500.727273 761.190468 
L 500.308482 762.044595 
L 498.777891 765.315172 
L 497.454545 767.363888 
L 496.733613 768.58575 
L 495.89328 770.143606 
M 486.08012 786.696095 
L 485.187929 788.209216 
L 484.363636 789.608081 
L 483.330823 791.479794 
L 481.349932 794.750371 
L 481.090909 795.191972 
L 479.620901 798.020949 
L 477.818182 801.079746 
L 477.71496 801.291527 
L 476.308612 804.562104 
L 474.545455 807.627897 
L 474.410389 807.832682 
L 473.085158 811.10326 
L 471.272727 814.341181 
L 471.236187 814.373837 
M 566.181818 592.082024 
L 566.317771 591.974556 
L 566.181818 591.919518 
L 566.126743 591.974556 
L 566.181818 592.082024 
z
" clip-path="url(#pff58e4848c)" style="fill: none"/>
    <path d="M 573.412343 814.373837 
L 574.209704 811.10326 
L 576 808.399183 
M 576 710.008647 
L 573.889342 712.98593 
L 572.870487 716.256507 
L 572.727273 716.539682 
L 570.786755 719.527085 
L 569.594264 722.797663 
L 569.454545 723.169817 
L 567.894489 726.06824 
L 566.537862 729.338818 
L 566.181818 730.814179 
L 565.485238 732.609396 
L 563.594641 735.879973 
L 563.408362 736.4881 
M 555.723075 753.995122 
L 555.117588 755.503439 
L 553.327685 758.774017 
L 553.090909 759.129034 
L 552.007446 762.044595 
L 550.662243 765.315172 
L 549.818182 766.292663 
L 548.62905 768.58575 
L 547.969507 771.856328 
L 546.545455 773.688131 
L 545.566316 775.126905 
L 544.825999 778.397483 
L 543.272727 781.419512 
L 543.101055 781.668061 
L 541.647565 784.938638 
L 540.571425 788.209216 
L 540 789.204193 
L 538.862564 791.479794 
L 537.711976 794.750371 
L 536.727273 796.832808 
L 535.96479 798.020949 
L 534.650345 801.291527 
L 533.454545 803.914613 
L 532.938225 804.562104 
L 531.396054 807.832682 
L 530.181818 810.987086 
L 530.087841 811.10326 
L 528.147283 814.373837 
" clip-path="url(#pff58e4848c)" style="fill: none"/>
    <path d="M 572.426258 814.373837 
L 572.727273 814.024074 
L 573.234087 811.10326 
L 574.444147 807.832682 
L 576 806.019839 
M 576 738.093039 
L 575.765912 739.150551 
L 575.314065 740.130138 
M 568.039995 757.840629 
L 567.641678 758.774017 
L 566.326891 762.044595 
L 566.181818 762.414271 
L 565.005069 765.315172 
L 563.567665 768.58575 
L 562.909091 770.007804 
L 562.036284 771.856328 
L 562.909091 774.17812 
L 563.056615 775.126905 
L 562.909091 776.945362 
L 559.636364 776.939133 
L 558.967742 778.397483 
L 559.636364 779.225656 
L 560.889287 781.668061 
L 560.252026 784.938638 
L 560.078265 788.209216 
L 559.636364 788.737287 
L 557.540745 791.479794 
L 557.154127 794.750371 
L 556.363636 796.572118 
L 554.768649 798.020949 
L 554.246303 801.291527 
L 553.236689 804.562104 
L 553.090909 804.850067 
L 551.018171 807.832682 
L 550.343769 811.10326 
L 549.818182 812.24628 
L 547.911036 811.10326 
L 546.545455 807.848942 
L 545.294969 811.10326 
L 545.81029 814.373837 
M 549.818182 801.669792 
L 549.990246 801.291527 
L 549.878306 798.020949 
L 549.818182 797.863813 
L 549.746553 798.020949 
L 549.182619 801.291527 
L 549.818182 801.669792 
z
M 553.090909 792.984286 
L 553.283901 791.479794 
L 553.090909 790.833887 
L 552.798101 791.479794 
L 553.090909 792.984286 
z
M 556.363636 785.904625 
L 556.872859 784.938638 
L 556.363636 783.870461 
L 555.888344 784.938638 
L 556.363636 785.904625 
z
" clip-path="url(#pff58e4848c)" style="fill: none"/>
    <path d="M 565.105332 814.373837 
L 566.181818 812.893746 
L 566.207563 812.846344 
M 575.366618 796.324934 
L 576 795.241498 
M 576 773.431331 
L 575.53228 775.126905 
L 574.110722 776.606387 
M 565.722682 793.02337 
L 565.390748 794.750371 
L 563.446206 798.020949 
L 562.909091 798.720875 
L 561.515936 801.291527 
L 560.570299 804.562104 
L 559.636364 805.732546 
L 556.363636 807.042677 
L 556.233124 807.832682 
L 553.502798 811.10326 
L 553.090909 811.577466 
L 552.686728 814.373837 
" clip-path="url(#pff58e4848c)" style="fill: none"/>
    <path clip-path="url(#pff58e4848c)" style="fill: none"/>
    <path clip-path="url(#pff58e4848c)" style="fill: none"/>
    <path clip-path="url(#pff58e4848c)" style="fill: none"/>
    <path clip-path="url(#pff58e4848c)" style="fill: none"/>
    <path clip-path="url(#pff58e4848c)" style="fill: none"/>
    <path clip-path="url(#pff58e4848c)" style="fill: none"/>
    <path clip-path="url(#pff58e4848c)" style="fill: none"/>
    <path clip-path="url(#pff58e4848c)" style="fill: none"/>
    <path clip-path="url(#pff58e4848c)" style="fill: none"/>
    <path clip-path="url(#pff58e4848c)" style="fill: none"/>
    <path clip-path="url(#pff58e4848c)" style="fill: none"/>
    <path clip-path="url(#pff58e4848c)" style="fill: none"/>
    <path clip-path="url(#pff58e4848c)" style="fill: none"/>
    <path clip-path="url(#pff58e4848c)" style="fill: none"/>
    <path clip-path="url(#pff58e4848c)" style="fill: none"/>
    <path clip-path="url(#pff58e4848c)" style="fill: none"/>
    <path clip-path="url(#pff58e4848c)" style="fill: none"/>
    <path clip-path="url(#pff58e4848c)" style="fill: none"/>
    <path clip-path="url(#pff58e4848c)" style="fill: none"/>
    <path clip-path="url(#pff58e4848c)" style="fill: none"/>
    <path clip-path="url(#pff58e4848c)" style="fill: none"/>
    <path clip-path="url(#pff58e4848c)" style="fill: none"/>
    <path clip-path="url(#pff58e4848c)" style="fill: none"/>
    <path clip-path="url(#pff58e4848c)" style="fill: none"/>
    <path clip-path="url(#pff58e4848c)" style="fill: none"/>
    <path clip-path="url(#pff58e4848c)" style="fill: none"/>
    <path clip-path="url(#pff58e4848c)" style="fill: none"/>
    <path clip-path="url(#pff58e4848c)" style="fill: none"/>
    <path clip-path="url(#pff58e4848c)" style="fill: none"/>
    <path clip-path="url(#pff58e4848c)" style="fill: none"/>
    <path clip-path="url(#pff58e4848c)" style="fill: none"/>
    <path clip-path="url(#pff58e4848c)" style="fill: none"/>
   </g>
   <g id="text_1">
    <g clip-path="url(#pff58e4848c)">
     <!-- 0 -->
     <g style="opacity: 0" transform="translate(529.75564 649.2643) rotate(-60.07002) scale(0.12 -0.12)">
      <defs>
       <path id="DejaVuSans-30" d="M 2034 4250 
Q 1547 4250 1301 3770 
Q 1056 3291 1056 2328 
Q 1056 1369 1301 889 
Q 1547 409 2034 409 
Q 2525 409 2770 889 
Q 3016 1369 3016 2328 
Q 3016 3291 2770 3770 
Q 2525 4250 2034 4250 
z
M 2034 4750 
Q 2819 4750 3233 4129 
Q 3647 3509 3647 2328 
Q 3647 1150 3233 529 
Q 2819 -91 2034 -91 
Q 1250 -91 836 529 
Q 422 1150 422 2328 
Q 422 3509 836 4129 
Q 1250 4750 2034 4750 
z
" transform="scale(0.015625)"/>
      </defs>
      <use xlink:href="#DejaVuSans-30"/>
     </g>
    </g>
   </g>
   <g id="text_2">
    <g clip-path="url(#pff58e4848c)">
     <!-- 1 -->
     <g style="opacity: 0" transform="translate(509.836312 685.122105) rotate(-65.698303) scale(0.12 -0.12)">
      <defs>
       <path id="DejaVuSans-31" d="M 794 531 
L 1825 531 
L 1825 4091 
L 703 3866 
L 703 4441 
L 1819 4666 
L 2450 4666 
L 2450 531 
L 3481 531 
L 3481 0 
L 794 0 
L 794 531 
z
" transform="scale(0.015625)"/>
      </defs>
      <use xlink:href="#DejaVuSans-31"/>
     </g>
    </g>
   </g>
   <g id="text_3">
    <g clip-path="url(#pff58e4848c)">
     <!-- 2 -->
     <g style="opacity: 0" transform="translate(446.635004 800.633233) rotate(-66.85335) scale(0.12 -0.12)">
      <defs>
       <path id="DejaVuSans-32" d="M 1228 531 
L 3431 531 
L 3431 0 
L 469 0 
L 469 531 
Q 828 903 1448 1529 
Q 2069 2156 2228 2338 
Q 2531 2678 2651 2914 
Q 2772 3150 2772 3378 
Q 2772 3750 2511 3984 
Q 2250 4219 1831 4219 
Q 1534 4219 1204 4116 
Q 875 4013 500 3803 
L 500 4441 
Q 881 4594 1212 4672 
Q 1544 4750 1819 4750 
Q 2544 4750 2975 4387 
Q 3406 4025 3406 3419 
Q 3406 3131 3298 2873 
Q 3191 2616 2906 2266 
Q 2828 2175 2409 1742 
Q 1991 1309 1228 531 
z
" transform="scale(0.015625)"/>
      </defs>
      <use xlink:href="#DejaVuSans-32"/>
     </g>
    </g>
   </g>
   <g id="text_4">
    <g clip-path="url(#pff58e4848c)">
     <!-- 3 -->
     <g style="opacity: 0" transform="translate(491.860126 783.369653) rotate(-59.354178) scale(0.12 -0.12)">
      <defs>
       <path id="DejaVuSans-33" d="M 2597 2516 
Q 3050 2419 3304 2112 
Q 3559 1806 3559 1356 
Q 3559 666 3084 287 
Q 2609 -91 1734 -91 
Q 1441 -91 1130 -33 
Q 819 25 488 141 
L 488 750 
Q 750 597 1062 519 
Q 1375 441 1716 441 
Q 2309 441 2620 675 
Q 2931 909 2931 1356 
Q 2931 1769 2642 2001 
Q 2353 2234 1838 2234 
L 1294 2234 
L 1294 2753 
L 1863 2753 
Q 2328 2753 2575 2939 
Q 2822 3125 2822 3475 
Q 2822 3834 2567 4026 
Q 2313 4219 1838 4219 
Q 1578 4219 1281 4162 
Q 984 4106 628 3988 
L 628 4550 
Q 988 4650 1302 4700 
Q 1616 4750 1894 4750 
Q 2613 4750 3031 4423 
Q 3450 4097 3450 3541 
Q 3450 3153 3228 2886 
Q 3006 2619 2597 2516 
z
" transform="scale(0.015625)"/>
      </defs>
      <use xlink:href="#DejaVuSans-33"/>
     </g>
    </g>
   </g>
   <g id="text_5">
    <g clip-path="url(#pff58e4848c)">
     <!-- 4 -->
     <g style="opacity: 0" transform="translate(561.109391 750.104862) rotate(-66.009088) scale(0.12 -0.12)">
      <defs>
       <path id="DejaVuSans-34" d="M 2419 4116 
L 825 1625 
L 2419 1625 
L 2419 4116 
z
M 2253 4666 
L 3047 4666 
L 3047 1625 
L 3713 1625 
L 3713 1100 
L 3047 1100 
L 3047 0 
L 2419 0 
L 2419 1100 
L 313 1100 
L 313 1709 
L 2253 4666 
z
" transform="scale(0.015625)"/>
      </defs>
      <use xlink:href="#DejaVuSans-34"/>
     </g>
    </g>
   </g>
   <g id="text_6">
    <g clip-path="url(#pff58e4848c)">
     <!-- 5 -->
     <g style="opacity: 0" transform="translate(573.251767 753.745708) rotate(-67.877923) scale(0.12 -0.12)">
      <defs>
       <path id="DejaVuSans-35" d="M 691 4666 
L 3169 4666 
L 3169 4134 
L 1269 4134 
L 1269 2991 
Q 1406 3038 1543 3061 
Q 1681 3084 1819 3084 
Q 2600 3084 3056 2656 
Q 3513 2228 3513 1497 
Q 3513 744 3044 326 
Q 2575 -91 1722 -91 
Q 1428 -91 1123 -41 
Q 819 9 494 109 
L 494 744 
Q 775 591 1075 516 
Q 1375 441 1709 441 
Q 2250 441 2565 725 
Q 2881 1009 2881 1497 
Q 2881 1984 2565 2268 
Q 2250 2553 1709 2553 
Q 1456 2553 1204 2497 
Q 953 2441 691 2322 
L 691 4666 
z
" transform="scale(0.015625)"/>
      </defs>
      <use xlink:href="#DejaVuSans-35"/>
     </g>
    </g>
   </g>
   <g id="text_7">
    <g clip-path="url(#pff58e4848c)">
     <!-- 6 -->
     <g style="opacity: 0" transform="translate(571.703773 809.515898) rotate(-60.461443) scale(0.12 -0.12)">
      <defs>
       <path id="DejaVuSans-36" d="M 2113 2584 
Q 1688 2584 1439 2293 
Q 1191 2003 1191 1497 
Q 1191 994 1439 701 
Q 1688 409 2113 409 
Q 2538 409 2786 701 
Q 3034 994 3034 1497 
Q 3034 2003 2786 2293 
Q 2538 2584 2113 2584 
z
M 3366 4563 
L 3366 3988 
Q 3128 4100 2886 4159 
Q 2644 4219 2406 4219 
Q 1781 4219 1451 3797 
Q 1122 3375 1075 2522 
Q 1259 2794 1537 2939 
Q 1816 3084 2150 3084 
Q 2853 3084 3261 2657 
Q 3669 2231 3669 1497 
Q 3669 778 3244 343 
Q 2819 -91 2113 -91 
Q 1303 -91 875 529 
Q 447 1150 447 2328 
Q 447 3434 972 4092 
Q 1497 4750 2381 4750 
Q 2619 4750 2861 4703 
Q 3103 4656 3366 4563 
z
" transform="scale(0.015625)"/>
      </defs>
      <use xlink:href="#DejaVuSans-36"/>
     </g>
    </g>
   </g>
   <g id="text_8">
    <g clip-path="url(#pff58e4848c)">
     <!-- 6 -->
     <g style="opacity: 0" transform="translate(570.68838 789.44351) rotate(-63.193972) scale(0.12 -0.12)">
      <use xlink:href="#DejaVuSans-36"/>
     </g>
    </g>
   </g>
  </g>
 </g>
 <defs>
  <clipPath id="pff58e4848c">
   <rect x="0" y="0" width="576" height="814.373837"/>
  </clipPath>
 </defs>
</svg>
