<?xml version="1.0" encoding="utf-8" standalone="no"?>
<!DOCTYPE svg PUBLIC "-//W3C//DTD SVG 1.1//EN"
  "http://www.w3.org/Graphics/SVG/1.1/DTD/svg11.dtd">
<svg xmlns:xlink="http://www.w3.org/1999/xlink" width="576pt" height="821.133661pt" viewBox="0 0 576 821.133661" xmlns="http://www.w3.org/2000/svg" version="1.1">
 <metadata>
  <rdf:RDF xmlns:dc="http://purl.org/dc/elements/1.1/" xmlns:cc="http://creativecommons.org/ns#" xmlns:rdf="http://www.w3.org/1999/02/22-rdf-syntax-ns#">
   <cc:Work>
    <dc:type rdf:resource="http://purl.org/dc/dcmitype/StillImage"/>
    <dc:date>2025-07-25T22:45:40.026740</dc:date>
    <dc:format>image/svg+xml</dc:format>
    <dc:creator>
     <cc:Agent>
      <dc:title>Matplotlib v3.10.3, https://matplotlib.org/</dc:title>
     </cc:Agent>
    </dc:creator>
   </cc:Work>
  </rdf:RDF>
 </metadata>
 <defs>
  <style type="text/css">*{stroke-linejoin: round; stroke-linecap: butt}</style>
 </defs>
 <g id="figure_1">
  <g id="patch_1">
   <path d="M 0 821.133661 
L 576 821.133661 
L 576 0 
L 0 0 
L 0 821.133661 
z
" style="fill: none; opacity: 0"/>
  </g>
  <g id="axes_1">
   <g id="QuadContourSet_1">
    <path d="M 65.828571 818.25421 
L 65.964681 817.835936 
L 69.12 815.530457 
L 72.411429 815.085515 
L 74.710823 817.835936 
L 74.710823 821.133661 
L 75.168378 821.133661 
L 75.168378 817.835936 
L 72.411429 814.53821 
L 69.12 815.071691 
L 65.828571 816.50873 
L 62.537143 815.746268 
L 60.692373 814.53821 
L 59.245714 813.265826 
L 55.954286 811.412751 
L 55.81938 811.240484 
L 52.662857 808.682142 
L 51.767907 807.942759 
L 49.371429 805.632046 
L 46.635945 804.645033 
L 46.08 804.088024 
L 45.551104 801.347308 
L 42.788571 798.57949 
L 42.259676 798.049582 
L 42.788571 794.751857 
L 39.497143 791.454131 
L 36.205714 791.454131 
L 33.451725 794.751857 
L 32.914286 796.055854 
L 29.622857 795.736564 
L 27.998143 794.751857 
L 26.331429 793.537145 
L 23.04 791.715779 
L 22.783216 791.454131 
L 19.748571 789.337042 
L 17.705252 788.156406 
L 16.457143 786.905909 
L 15.925928 784.85868 
L 13.165714 782.093186 
L 12.634499 781.560955 
L 9.874286 778.79546 
L 9.343071 778.263229 
L 6.582857 774.965503 
L 6.582857 774.965503 
L 3.291429 771.667778 
L 0.528396 774.965503 
L 0.524253 778.263229 
L -0 779.338522 
L 0 780.251478 
L 0.969359 778.263229 
L 0.977019 774.965503 
L 3.291429 772.203217 
L 6.04844 774.965503 
L 6.582857 775.500943 
L 8.894905 778.263229 
L 9.874286 779.244483 
L 12.186334 781.560955 
L 13.165714 782.542209 
L 15.477762 784.85868 
L 16.158046 788.156406 
L 16.457143 788.326021 
L 19.748571 790.333098 
L 21.355464 791.454131 
L 23.04 793.170575 
L 25.603247 794.751857 
L 26.331429 795.502142 
L 29.622857 797.197995 
L 32.914286 797.155985 
L 33.905142 794.751857 
L 36.205714 791.997069 
L 39.497143 791.997069 
L 42.246671 794.751857 
L 41.804852 798.049582 
L 42.788571 799.035183 
L 45.096281 801.347308 
L 45.312274 804.645033 
L 46.08 805.15856 
L 49.371429 806.480826 
L 50.887623 807.942759 
L 52.662857 809.409409 
L 54.922068 811.240484 
L 55.954286 812.558569 
L 58.801641 814.53821 
L 59.245714 815.274327 
L 62.537143 817.043041 
L 64.967068 817.835936 
z
M 9.874286 785.164914 
L 10.099375 784.85868 
L 9.874286 784.63316 
L 9.463873 784.85868 
z
M 3.291429 782.129901 
L 3.572357 781.560955 
L 3.291429 781.282352 
L 2.464317 781.560955 
z
" clip-path="url(#p52a8ec136f)" style="fill: #f5f9fe; fill-opacity: 0.9"/>
    <path d="M 59.245714 817.883589 
L 62.537143 820.833318 
L 65.828571 820.183715 
L 66.592556 817.835936 
L 69.12 815.989223 
L 72.411429 815.632819 
L 74.253268 817.835936 
L 74.253268 821.133661 
L 74.710823 821.133661 
L 74.710823 817.835936 
L 72.411429 815.085515 
L 69.12 815.530457 
L 65.964681 817.835936 
L 65.828571 818.25421 
L 64.967068 817.835936 
L 62.537143 817.043041 
L 59.245714 815.274327 
L 58.801641 814.53821 
L 55.954286 812.558569 
L 54.922068 811.240484 
L 52.662857 809.409409 
L 50.887623 807.942759 
L 49.371429 806.480826 
L 46.08 805.15856 
L 45.312274 804.645033 
L 45.096281 801.347308 
L 42.788571 799.035183 
L 41.804852 798.049582 
L 42.246671 794.751857 
L 39.497143 791.997069 
L 36.205714 791.997069 
L 33.905142 794.751857 
L 32.914286 797.155985 
L 29.622857 797.197995 
L 26.331429 795.502142 
L 25.603247 794.751857 
L 23.04 793.170575 
L 21.355464 791.454131 
L 19.748571 790.333098 
L 16.457143 788.326021 
L 16.158046 788.156406 
L 15.477762 784.85868 
L 13.165714 782.542209 
L 12.186334 781.560955 
L 9.874286 779.244483 
L 8.894905 778.263229 
L 6.582857 775.500943 
L 6.04844 774.965503 
L 3.291429 772.203217 
L 0.977019 774.965503 
L 0.969359 778.263229 
L 0 780.251478 
L 0 781.164433 
L 0.746217 781.560955 
L 3.291429 783.311732 
L 4.15591 781.560955 
L 3.291429 780.703631 
L 1.414465 778.263229 
L 1.425642 774.965503 
L 3.291429 772.738657 
L 5.514023 774.965503 
L 6.582857 776.036382 
L 8.44674 778.263229 
L 9.874286 779.693506 
L 11.738168 781.560955 
L 13.165714 782.991232 
L 15.029597 784.85868 
L 15.074299 788.156406 
L 16.457143 788.940607 
L 19.748571 791.329155 
L 19.927713 791.454131 
L 23.04 794.62537 
L 23.245034 794.751857 
L 26.331429 797.931936 
L 26.673627 798.049582 
L 29.622857 801.120503 
L 32.914286 798.984872 
L 33.056543 798.049582 
L 34.358558 794.751857 
L 36.205714 792.540006 
L 39.497143 792.540006 
L 41.70477 794.751857 
L 41.350029 798.049582 
L 42.788571 799.490877 
L 44.641458 801.347308 
L 44.306959 804.645033 
L 46.08 805.831009 
L 49.371429 807.329606 
L 50.00734 807.942759 
L 52.662857 810.136675 
L 54.024755 811.240484 
L 55.954286 813.704386 
L 57.15359 814.53821 
L 59.197722 817.835936 
z
M 2.464317 781.560955 
L 3.291429 781.282352 
L 3.572357 781.560955 
L 3.291429 782.129901 
z
M 39.497143 802.513626 
L 40.133129 801.347308 
L 39.497143 800.710105 
L 37.798171 801.347308 
z
M 9.874286 785.973564 
L 10.693752 784.85868 
L 9.874286 784.037647 
L 8.380126 784.85868 
z
M 9.463873 784.85868 
L 9.874286 784.63316 
L 10.099375 784.85868 
L 9.874286 785.164914 
z
" clip-path="url(#p52a8ec136f)" style="fill: #eff6fc; fill-opacity: 0.9"/>
    <path d="M 59.245714 818.648118 
L 61.786152 821.133661 
L 62.537143 821.133661 
L 65.828571 821.133661 
L 69.12 821.133661 
L 69.588393 821.133661 
L 69.12 820.664372 
L 67.220431 817.835936 
L 69.12 816.447988 
L 72.411429 816.180124 
L 73.795713 817.835936 
L 73.795713 821.133661 
L 74.253268 821.133661 
L 74.253268 817.835936 
L 72.411429 815.632819 
L 69.12 815.989223 
L 66.592556 817.835936 
L 65.828571 820.183715 
L 62.537143 820.833318 
L 59.245714 817.883589 
L 59.197722 817.835936 
L 57.15359 814.53821 
L 55.954286 813.704386 
L 54.024755 811.240484 
L 52.662857 810.136675 
L 50.00734 807.942759 
L 49.371429 807.329606 
L 46.08 805.831009 
L 44.306959 804.645033 
L 44.641458 801.347308 
L 42.788571 799.490877 
L 41.350029 798.049582 
L 41.70477 794.751857 
L 39.497143 792.540006 
L 36.205714 792.540006 
L 34.358558 794.751857 
L 33.056543 798.049582 
L 32.914286 798.984872 
L 29.622857 801.120503 
L 26.673627 798.049582 
L 26.331429 797.931936 
L 23.245034 794.751857 
L 23.04 794.62537 
L 19.927713 791.454131 
L 19.748571 791.329155 
L 16.457143 788.940607 
L 15.074299 788.156406 
L 15.029597 784.85868 
L 13.165714 782.991232 
L 11.738168 781.560955 
L 9.874286 779.693506 
L 8.44674 778.263229 
L 6.582857 776.036382 
L 5.514023 774.965503 
L 3.291429 772.738657 
L 1.425642 774.965503 
L 1.414465 778.263229 
L 3.291429 780.703631 
L 4.15591 781.560955 
L 3.291429 783.311732 
L 0.746217 781.560955 
L 0 781.164433 
L 0 781.560955 
L 0 784.85868 
L -0 785.930105 
L 1.047306 784.85868 
L 3.291429 784.493564 
L 4.739463 781.560955 
L 3.291429 780.124911 
L 1.859571 778.263229 
L 1.874266 774.965503 
L 3.291429 773.274096 
L 4.979606 774.965503 
L 6.582857 776.571822 
L 7.998574 778.263229 
L 9.874286 780.142529 
L 11.290003 781.560955 
L 9.874286 783.442133 
L 7.296379 784.85868 
L 9.874286 786.782214 
L 11.288128 784.85868 
L 13.165714 783.440255 
L 14.581431 784.85868 
L 13.990552 788.156406 
L 16.457143 789.555192 
L 19.022482 791.454131 
L 19.748571 792.157923 
L 22.313438 794.751857 
L 23.04 795.471853 
L 25.589321 798.049582 
L 26.331429 798.785589 
L 28.877745 801.347308 
L 29.622857 802.086401 
L 32.841283 804.645033 
L 32.914286 804.717268 
L 33.481267 804.645033 
L 36.205714 801.972033 
L 39.497143 803.708991 
L 40.784953 801.347308 
L 39.497143 800.057033 
L 36.205714 801.260355 
L 33.814291 798.049582 
L 34.811975 794.751857 
L 36.205714 793.082943 
L 39.497143 793.082943 
L 41.16287 794.751857 
L 40.895206 798.049582 
L 42.788571 799.94657 
L 44.186635 801.347308 
L 43.301643 804.645033 
L 46.08 806.503458 
L 48.993544 807.942759 
L 49.371429 808.221312 
L 52.662857 810.863941 
L 53.127442 811.240484 
L 55.693066 814.53821 
L 55.954286 814.795892 
L 58.427742 817.835936 
z
M 37.798171 801.347308 
L 39.497143 800.710105 
L 40.133129 801.347308 
L 39.497143 802.513626 
z
M 8.380126 784.85868 
L 9.874286 784.037647 
L 10.693752 784.85868 
L 9.874286 785.973564 
z
" clip-path="url(#p52a8ec136f)" style="fill: #eaf3fb; fill-opacity: 0.9"/>
    <path d="M 59.245714 819.412647 
L 61.004738 821.133661 
L 61.786152 821.133661 
L 59.245714 818.648118 
L 58.427742 817.835936 
L 55.954286 814.795892 
L 55.693066 814.53821 
L 53.127442 811.240484 
L 52.662857 810.863941 
L 49.371429 808.221312 
L 48.993544 807.942759 
L 46.08 806.503458 
L 43.301643 804.645033 
L 44.186635 801.347308 
L 42.788571 799.94657 
L 40.895206 798.049582 
L 41.16287 794.751857 
L 39.497143 793.082943 
L 36.205714 793.082943 
L 34.811975 794.751857 
L 33.814291 798.049582 
L 36.205714 801.260355 
L 39.497143 800.057033 
L 40.784953 801.347308 
L 39.497143 803.708991 
L 36.205714 801.972033 
L 33.481267 804.645033 
L 32.914286 804.717268 
L 32.841283 804.645033 
L 29.622857 802.086401 
L 28.877745 801.347308 
L 26.331429 798.785589 
L 25.589321 798.049582 
L 23.04 795.471853 
L 22.313438 794.751857 
L 19.748571 792.157923 
L 19.022482 791.454131 
L 16.457143 789.555192 
L 13.990552 788.156406 
L 14.581431 784.85868 
L 13.165714 783.440255 
L 11.288128 784.85868 
L 9.874286 786.782214 
L 7.296379 784.85868 
L 9.874286 783.442133 
L 11.290003 781.560955 
L 9.874286 780.142529 
L 7.998574 778.263229 
L 6.582857 776.571822 
L 4.979606 774.965503 
L 3.291429 773.274096 
L 1.874266 774.965503 
L 1.859571 778.263229 
L 3.291429 780.124911 
L 4.739463 781.560955 
L 3.291429 784.493564 
L 1.047306 784.85868 
L -0 785.930105 
L 0 788.156406 
L 0 790.348893 
L 3.291429 789.970276 
L 5.125087 788.156406 
L 6.582857 786.973032 
L 9.874286 787.590864 
L 12.327649 788.156406 
L 13.165714 788.590981 
L 16.457143 790.169777 
L 18.192219 791.454131 
L 19.748571 792.96269 
L 21.517689 794.751857 
L 23.04 796.26041 
L 24.809455 798.049582 
L 26.331429 799.559045 
L 28.10894 801.347308 
L 29.622857 802.848996 
L 31.882038 804.645033 
L 32.914286 805.66642 
L 35.972337 807.942759 
L 36.205714 808.172741 
L 37.57419 807.942759 
L 39.497143 806.153931 
L 42.788571 806.059912 
L 46.08 807.175908 
L 47.63232 807.942759 
L 49.371429 809.224721 
L 52.025691 811.240484 
L 52.662857 811.842682 
L 54.73372 814.53821 
L 55.954286 815.742248 
L 57.657763 817.835936 
z
M 41.436778 801.347308 
L 42.788571 800.402263 
L 43.731811 801.347308 
L 42.788571 804.015152 
z
M 34.57204 798.049582 
L 35.265391 794.751857 
L 36.205714 793.62588 
L 39.497143 793.62588 
L 40.620969 794.751857 
L 40.440383 798.049582 
L 39.497143 799.403962 
L 36.205714 800.242986 
z
M 11.882505 784.85868 
L 13.165714 783.889278 
L 14.133266 784.85868 
L 13.165714 787.827843 
z
M 5.323016 781.560955 
L 3.291429 779.54619 
L 2.304677 778.263229 
L 2.322889 774.965503 
L 3.291429 773.809535 
L 4.445189 774.965503 
L 6.582857 777.107261 
L 7.550408 778.263229 
L 9.874286 780.591552 
L 10.841837 781.560955 
L 9.874286 782.846619 
L 6.582857 784.408154 
z
M 69.12 820.664372 
L 69.588393 821.133661 
L 70.521507 821.133661 
L 69.12 819.729473 
L 67.848306 817.835936 
L 69.12 816.906754 
L 72.411429 816.727429 
L 73.338158 817.835936 
L 73.338158 821.133661 
L 73.795713 821.133661 
L 73.795713 817.835936 
L 72.411429 816.180124 
L 69.12 816.447988 
L 67.220431 817.835936 
z
" clip-path="url(#p52a8ec136f)" style="fill: #e5eff9; fill-opacity: 0.9"/>
    <path d="M 59.245714 820.177177 
L 60.223323 821.133661 
L 61.004738 821.133661 
L 59.245714 819.412647 
L 57.657763 817.835936 
L 55.954286 815.742248 
L 54.73372 814.53821 
L 52.662857 811.842682 
L 52.025691 811.240484 
L 49.371429 809.224721 
L 47.63232 807.942759 
L 46.08 807.175908 
L 42.788571 806.059912 
L 39.497143 806.153931 
L 37.57419 807.942759 
L 36.205714 808.172741 
L 35.972337 807.942759 
L 32.914286 805.66642 
L 31.882038 804.645033 
L 29.622857 802.848996 
L 28.10894 801.347308 
L 26.331429 799.559045 
L 24.809455 798.049582 
L 23.04 796.26041 
L 21.517689 794.751857 
L 19.748571 792.96269 
L 18.192219 791.454131 
L 16.457143 790.169777 
L 13.165714 788.590981 
L 12.327649 788.156406 
L 9.874286 787.590864 
L 6.582857 786.973032 
L 5.125087 788.156406 
L 3.291429 789.970276 
L 0 790.348893 
L 0 791.454131 
L 0 792.337568 
L 2.824653 794.751857 
L 3.291429 795.206516 
L 5.76597 794.751857 
L 6.582857 794.021227 
L 9.154296 791.454131 
L 9.874286 790.663047 
L 13.165714 790.410033 
L 16.457143 790.784363 
L 17.361955 791.454131 
L 19.748571 793.767456 
L 20.721941 794.751857 
L 23.04 797.048968 
L 24.029588 798.049582 
L 26.331429 800.332501 
L 27.340134 801.347308 
L 29.622857 803.611591 
L 30.922792 804.645033 
L 32.914286 806.615572 
L 34.697239 807.942759 
L 36.205714 809.429287 
L 38.945928 811.240484 
L 39.497143 811.779333 
L 41.6729 811.240484 
L 42.788571 810.254138 
L 45.134679 807.942759 
L 46.08 807.848357 
L 46.271096 807.942759 
L 49.371429 810.22813 
L 50.704449 811.240484 
L 52.662857 813.09141 
L 53.774374 814.53821 
L 55.954286 816.688604 
L 56.887784 817.835936 
z
M 69.12 819.729473 
L 70.521507 821.133661 
L 71.454621 821.133661 
L 69.12 818.794574 
L 68.476181 817.835936 
L 69.12 817.36552 
L 72.411429 817.274733 
L 72.880602 817.835936 
L 72.880602 821.133661 
L 73.338158 821.133661 
L 73.338158 817.835936 
L 72.411429 816.727429 
L 69.12 816.906754 
L 67.848306 817.835936 
z
M 42.788571 804.015152 
L 43.731811 801.347308 
L 42.788571 800.402263 
L 41.436778 801.347308 
z
M 42.088603 801.347308 
L 42.788571 800.857957 
L 43.276988 801.347308 
L 42.788571 802.728738 
z
M 36.205714 800.242986 
L 39.497143 799.403962 
L 40.440383 798.049582 
L 40.620969 794.751857 
L 39.497143 793.62588 
L 36.205714 793.62588 
L 35.265391 794.751857 
L 34.57204 798.049582 
z
M 35.329788 798.049582 
L 35.718808 794.751857 
L 36.205714 794.168818 
L 39.497143 794.168818 
L 40.079069 794.751857 
L 39.98556 798.049582 
L 39.497143 798.75089 
L 36.205714 799.225618 
z
M 13.165714 787.827843 
L 14.133266 784.85868 
L 13.165714 783.889278 
L 11.882505 784.85868 
z
M 12.476882 784.85868 
L 13.165714 784.338301 
L 13.6851 784.85868 
L 13.165714 786.45254 
z
M 6.582857 784.408154 
L 9.874286 782.846619 
L 10.841837 781.560955 
L 9.874286 780.591552 
L 7.550408 778.263229 
L 6.582857 777.107261 
L 4.445189 774.965503 
L 3.291429 773.809535 
L 2.322889 774.965503 
L 2.304677 778.263229 
L 3.291429 779.54619 
L 5.323016 781.560955 
z
M 5.906569 781.560955 
L 3.291429 778.967469 
L 2.749783 778.263229 
L 2.771512 774.965503 
L 3.291429 774.344975 
L 3.910772 774.965503 
L 6.582857 777.6427 
L 7.102243 778.263229 
L 9.874286 781.040575 
L 10.393672 781.560955 
L 9.874286 782.251105 
L 6.582857 783.089344 
z
" clip-path="url(#p52a8ec136f)" style="fill: #dfecf7; fill-opacity: 0.9"/>
    <path d="M 59.245714 820.941706 
L 59.441909 821.133661 
L 60.223323 821.133661 
L 59.245714 820.177177 
L 56.887784 817.835936 
L 55.954286 816.688604 
L 53.774374 814.53821 
L 52.662857 813.09141 
L 50.704449 811.240484 
L 49.371429 810.22813 
L 46.271096 807.942759 
L 46.08 807.848357 
L 45.134679 807.942759 
L 42.788571 810.254138 
L 41.6729 811.240484 
L 39.497143 811.779333 
L 38.945928 811.240484 
L 36.205714 809.429287 
L 34.697239 807.942759 
L 32.914286 806.615572 
L 30.922792 804.645033 
L 29.622857 803.611591 
L 27.340134 801.347308 
L 26.331429 800.332501 
L 24.029588 798.049582 
L 23.04 797.048968 
L 20.721941 794.751857 
L 19.748571 793.767456 
L 17.361955 791.454131 
L 16.457143 790.784363 
L 13.165714 790.410033 
L 9.874286 790.663047 
L 9.154296 791.454131 
L 6.582857 794.021227 
L 5.76597 794.751857 
L 3.291429 795.206516 
L 2.824653 794.751857 
L 0 792.337568 
L 0 793.703172 
L 1.226934 794.751857 
L 3.291429 796.762764 
L 5.51515 798.049582 
L 6.582857 799.070179 
L 9.874286 798.074901 
L 9.9019 798.049582 
L 13.165714 794.762248 
L 13.18676 794.751857 
L 15.884188 791.454131 
L 16.457143 791.398948 
L 16.531692 791.454131 
L 19.748571 794.572223 
L 19.926192 794.751857 
L 23.04 797.837525 
L 23.249721 798.049582 
L 26.331429 801.105957 
L 26.571328 801.347308 
L 29.622857 804.374187 
L 29.963547 804.645033 
L 32.914286 807.564724 
L 33.422141 807.942759 
L 36.205714 810.685832 
L 37.044864 811.240484 
L 39.497143 813.637746 
L 41.30653 814.53821 
L 42.788571 815.953828 
L 45.777461 814.53821 
L 46.08 814.283474 
L 49.311399 811.240484 
L 49.371429 811.231539 
L 49.383207 811.240484 
L 52.662857 814.340138 
L 52.815027 814.53821 
L 55.954286 817.634959 
L 56.117805 817.835936 
z
M 69.12 818.794574 
L 71.454621 821.133661 
L 72.387734 821.133661 
L 69.12 817.859675 
L 69.104057 817.835936 
L 69.12 817.824286 
L 72.411429 817.822038 
L 72.423047 817.835936 
L 72.423047 821.133661 
L 72.880602 821.133661 
L 72.880602 817.835936 
L 72.411429 817.274733 
L 69.12 817.36552 
L 68.476181 817.835936 
z
M 42.788571 802.728738 
L 43.276988 801.347308 
L 42.788571 800.857957 
L 42.088603 801.347308 
z
M 42.740427 801.347308 
L 42.788571 801.31365 
L 42.822165 801.347308 
L 42.788571 801.442323 
z
M 36.205714 799.225618 
L 39.497143 798.75089 
L 39.98556 798.049582 
L 40.079069 794.751857 
L 39.497143 794.168818 
L 36.205714 794.168818 
L 35.718808 794.751857 
L 35.329788 798.049582 
z
M 36.087537 798.049582 
L 36.172225 794.751857 
L 36.205714 794.711755 
L 39.497143 794.711755 
L 39.537168 794.751857 
L 39.530736 798.049582 
L 39.497143 798.097819 
L 36.205714 798.208249 
z
M 13.165714 786.45254 
L 13.6851 784.85868 
L 13.165714 784.338301 
L 12.476882 784.85868 
z
M 13.071259 784.85868 
L 13.165714 784.787324 
L 13.236935 784.85868 
L 13.165714 785.077237 
z
M 6.582857 783.089344 
L 9.874286 782.251105 
L 10.393672 781.560955 
L 9.874286 781.040575 
L 7.102243 778.263229 
L 6.582857 777.6427 
L 3.910772 774.965503 
L 3.291429 774.344975 
L 2.771512 774.965503 
L 2.749783 778.263229 
L 3.291429 778.967469 
L 5.906569 781.560955 
z
M 6.490122 781.560955 
L 3.291429 778.388749 
L 3.194889 778.263229 
L 3.220136 774.965503 
L 3.291429 774.880414 
L 3.376356 774.965503 
L 6.582857 778.17814 
L 6.654077 778.263229 
L 9.874286 781.489598 
L 9.945506 781.560955 
L 9.874286 781.655591 
L 6.582857 781.770533 
z
" clip-path="url(#p52a8ec136f)" style="fill: #dae8f6; fill-opacity: 0.9"/>
    <path d="M 32.914286 819.187125 
L 35.534891 821.133661 
L 36.205714 821.133661 
L 39.497143 821.133661 
L 42.788571 821.133661 
L 46.08 821.133661 
L 49.371429 821.133661 
L 52.662857 821.133661 
L 55.954286 821.133661 
L 59.245714 821.133661 
L 59.441909 821.133661 
L 59.245714 820.941706 
L 56.117805 817.835936 
L 55.954286 817.634959 
L 52.815027 814.53821 
L 52.662857 814.340138 
L 49.383207 811.240484 
L 49.371429 811.231539 
L 49.311399 811.240484 
L 46.08 814.283474 
L 45.777461 814.53821 
L 42.788571 815.953828 
L 41.30653 814.53821 
L 39.497143 813.637746 
L 37.044864 811.240484 
L 36.205714 810.685832 
L 33.422141 807.942759 
L 32.914286 807.564724 
L 29.963547 804.645033 
L 29.622857 804.374187 
L 26.571328 801.347308 
L 26.331429 801.105957 
L 23.249721 798.049582 
L 23.04 797.837525 
L 19.926192 794.751857 
L 19.748571 794.572223 
L 16.531692 791.454131 
L 16.457143 791.398948 
L 15.884188 791.454131 
L 13.18676 794.751857 
L 13.165714 794.762248 
L 9.9019 798.049582 
L 9.874286 798.074901 
L 6.582857 799.070179 
L 5.51515 798.049582 
L 3.291429 796.762764 
L 1.226934 794.751857 
L 0 793.703172 
L 0 794.751857 
L 0 798.049582 
L 0 798.827145 
L 3.291429 800.884164 
L 3.944938 801.347308 
L 6.582857 802.849304 
L 8.980211 804.645033 
L 9.874286 805.261043 
L 13.165714 807.247845 
L 14.358323 807.942759 
L 16.457143 809.167944 
L 19.748571 811.074864 
L 20.026512 811.240484 
L 23.04 812.973107 
L 25.60514 814.53821 
L 26.331429 814.983785 
L 29.622857 816.977484 
L 30.823267 817.835936 
z
M 69.12 817.859675 
L 72.387734 821.133661 
L 72.411429 821.133661 
L 72.423047 821.133661 
L 72.423047 817.835936 
L 72.411429 817.822038 
L 69.12 817.824286 
L 69.104057 817.835936 
z
M 42.788571 801.442323 
L 42.822165 801.347308 
L 42.788571 801.31365 
L 42.740427 801.347308 
z
M 36.205714 798.208249 
L 39.497143 798.097819 
L 39.530736 798.049582 
L 39.537168 794.751857 
L 39.497143 794.711755 
L 36.205714 794.711755 
L 36.172225 794.751857 
L 36.087537 798.049582 
z
M 13.165714 785.077237 
L 13.236935 784.85868 
L 13.165714 784.787324 
L 13.071259 784.85868 
z
M 6.582857 781.770533 
L 9.874286 781.655591 
L 9.945506 781.560955 
L 9.874286 781.489598 
L 6.654077 778.263229 
L 6.582857 778.17814 
L 3.376356 774.965503 
L 3.291429 774.880414 
L 3.220136 774.965503 
L 3.194889 778.263229 
L 3.291429 778.388749 
L 6.490122 781.560955 
z
" clip-path="url(#p52a8ec136f)" style="fill: #d6e5f4; fill-opacity: 0.9"/>
    <path d="M 13.165714 819.423509 
L 15.92645 821.133661 
L 16.457143 821.133661 
L 19.748571 821.133661 
L 23.04 821.133661 
L 26.331429 821.133661 
L 29.622857 821.133661 
L 32.914286 821.133661 
L 35.534891 821.133661 
L 32.914286 819.187125 
L 30.823267 817.835936 
L 29.622857 816.977484 
L 26.331429 814.983785 
L 25.60514 814.53821 
L 23.04 812.973107 
L 20.026512 811.240484 
L 19.748571 811.074864 
L 16.457143 809.167944 
L 14.358323 807.942759 
L 13.165714 807.247845 
L 9.874286 805.261043 
L 8.980211 804.645033 
L 6.582857 802.849304 
L 3.944938 801.347308 
L 3.291429 800.884164 
L 0 798.827145 
L 0 801.347308 
L 0 804.645033 
L 0 807.942759 
L 0 811.240484 
L 0 811.470343 
L 3.291429 813.189298 
L 5.55417 814.53821 
L 6.582857 815.220575 
L 9.874286 817.292268 
L 10.717423 817.835936 
z
" clip-path="url(#p52a8ec136f)" style="fill: #d0e2f2; fill-opacity: 0.9"/>
    <path d="M 3.291429 821.133661 
L 6.582857 821.133661 
L 9.874286 821.133661 
L 13.165714 821.133661 
L 15.92645 821.133661 
L 13.165714 819.423509 
L 10.717423 817.835936 
L 9.874286 817.292268 
L 6.582857 815.220575 
L 5.55417 814.53821 
L 3.291429 813.189298 
L 0 811.470343 
L 0 814.53821 
L 0 817.835936 
L 0 821.133661 
z
" clip-path="url(#p52a8ec136f)" style="fill: #cbdef1; fill-opacity: 0.9"/>
    <path clip-path="url(#p52a8ec136f)" style="fill: #c6dbef; fill-opacity: 0.9"/>
    <path clip-path="url(#p52a8ec136f)" style="fill: #bed8ec; fill-opacity: 0.9"/>
    <path clip-path="url(#p52a8ec136f)" style="fill: #b5d4e9; fill-opacity: 0.9"/>
    <path clip-path="url(#p52a8ec136f)" style="fill: #add0e6; fill-opacity: 0.9"/>
    <path clip-path="url(#p52a8ec136f)" style="fill: #a5cde3; fill-opacity: 0.9"/>
    <path clip-path="url(#p52a8ec136f)" style="fill: #9cc9e1; fill-opacity: 0.9"/>
    <path clip-path="url(#p52a8ec136f)" style="fill: #91c3de; fill-opacity: 0.9"/>
    <path clip-path="url(#p52a8ec136f)" style="fill: #85bcdc; fill-opacity: 0.9"/>
    <path clip-path="url(#p52a8ec136f)" style="fill: #7cb7da; fill-opacity: 0.9"/>
    <path clip-path="url(#p52a8ec136f)" style="fill: #71b1d7; fill-opacity: 0.9"/>
    <path clip-path="url(#p52a8ec136f)" style="fill: #66abd4; fill-opacity: 0.9"/>
    <path clip-path="url(#p52a8ec136f)" style="fill: #5da5d1; fill-opacity: 0.9"/>
    <path clip-path="url(#p52a8ec136f)" style="fill: #56a0ce; fill-opacity: 0.9"/>
    <path clip-path="url(#p52a8ec136f)" style="fill: #4d99ca; fill-opacity: 0.9"/>
    <path clip-path="url(#p52a8ec136f)" style="fill: #4493c7; fill-opacity: 0.9"/>
    <path clip-path="url(#p52a8ec136f)" style="fill: #3c8cc3; fill-opacity: 0.9"/>
    <path clip-path="url(#p52a8ec136f)" style="fill: #3686c0; fill-opacity: 0.9"/>
    <path clip-path="url(#p52a8ec136f)" style="fill: #2f7fbc; fill-opacity: 0.9"/>
    <path clip-path="url(#p52a8ec136f)" style="fill: #2777b8; fill-opacity: 0.9"/>
    <path clip-path="url(#p52a8ec136f)" style="fill: #2070b4; fill-opacity: 0.9"/>
    <path clip-path="url(#p52a8ec136f)" style="fill: #1c6ab0; fill-opacity: 0.9"/>
    <path clip-path="url(#p52a8ec136f)" style="fill: #1663aa; fill-opacity: 0.9"/>
    <path clip-path="url(#p52a8ec136f)" style="fill: #115ca5; fill-opacity: 0.9"/>
    <path clip-path="url(#p52a8ec136f)" style="fill: #0c56a0; fill-opacity: 0.9"/>
    <path clip-path="url(#p52a8ec136f)" style="fill: #084f99; fill-opacity: 0.9"/>
    <path clip-path="url(#p52a8ec136f)" style="fill: #08488e; fill-opacity: 0.9"/>
    <path clip-path="url(#p52a8ec136f)" style="fill: #084184; fill-opacity: 0.9"/>
    <path clip-path="url(#p52a8ec136f)" style="fill: #083a7a; fill-opacity: 0.9"/>
    <path clip-path="url(#p52a8ec136f)" style="fill: #083370; fill-opacity: 0.9"/>
    <path clip-path="url(#p52a8ec136f)" style="fill: #08306b; fill-opacity: 0.9"/>
   </g>
   <g id="QuadContourSet_2">
    <path d="M 75.168378 821.133661 
L 75.168378 817.835936 
L 72.411429 814.53821 
L 69.12 815.071691 
L 65.828571 816.50873 
L 62.537143 815.746268 
L 60.692373 814.53821 
L 59.245714 813.265826 
L 55.954286 811.412751 
L 55.81938 811.240484 
L 52.662857 808.682142 
L 51.767907 807.942759 
L 51.579842 807.761424 
M 41.683317 793.644488 
L 39.497143 791.454131 
L 36.205714 791.454131 
L 33.451725 794.751857 
L 32.914286 796.055854 
L 29.622857 795.736564 
L 27.998143 794.751857 
L 26.331429 793.537145 
L 23.04 791.715779 
L 22.783216 791.454131 
L 19.748571 789.337042 
L 17.705252 788.156406 
L 16.457143 786.905909 
L 15.925928 784.85868 
L 13.165714 782.093186 
L 12.634499 781.560955 
L 9.874286 778.79546 
L 9.343071 778.263229 
L 6.582857 774.965503 
L 6.582857 774.965503 
L 3.291429 771.667778 
L 0.528396 774.965503 
L 0.524253 778.263229 
L -0 779.338522 
" clip-path="url(#p52a8ec136f)" style="fill: none"/>
    <path d="M 74.710823 821.133661 
L 74.710823 817.835936 
L 72.411429 815.085515 
L 69.12 815.530457 
L 65.964681 817.835936 
L 65.828571 818.25421 
L 64.967068 817.835936 
L 62.537143 817.043041 
L 59.245714 815.274327 
L 58.801641 814.53821 
L 55.954286 812.558569 
L 54.922068 811.240484 
L 52.662857 809.409409 
L 50.887623 807.942759 
L 49.371429 806.480826 
L 46.08 805.15856 
L 45.312274 804.645033 
L 45.096281 801.347308 
L 42.788571 799.035183 
L 41.804852 798.049582 
L 42.246671 794.751857 
L 39.497143 791.997069 
L 36.205714 791.997069 
L 33.905142 794.751857 
L 32.914286 797.155985 
L 29.622857 797.197995 
L 26.331429 795.502142 
L 25.603247 794.751857 
L 23.04 793.170575 
L 21.355464 791.454131 
L 19.748571 790.333098 
L 17.523508 788.976279 
M 5.627579 774.543837 
L 3.291429 772.203217 
L 0.977019 774.965503 
L 0.969359 778.263229 
L 0 780.251478 
M 9.874286 785.164914 
L 9.463873 784.85868 
L 9.874286 784.63316 
L 10.099375 784.85868 
L 9.874286 785.164914 
M 3.291429 782.129901 
L 2.464317 781.560955 
L 3.291429 781.282352 
L 3.572357 781.560955 
L 3.291429 782.129901 
z
" clip-path="url(#p52a8ec136f)" style="fill: none"/>
    <path d="M 74.253268 821.133661 
L 74.253268 817.835936 
L 72.857258 816.166099 
M 58.270343 816.339828 
L 57.15359 814.53821 
L 55.954286 813.704386 
L 54.024755 811.240484 
L 52.662857 810.136675 
L 50.00734 807.942759 
L 49.371429 807.329606 
L 46.08 805.831009 
L 44.306959 804.645033 
L 44.641458 801.347308 
L 42.788571 799.490877 
L 41.350029 798.049582 
L 41.70477 794.751857 
L 39.497143 792.540006 
L 36.205714 792.540006 
L 34.358558 794.751857 
L 33.056543 798.049582 
L 32.914286 798.984872 
L 29.622857 801.120503 
L 26.673627 798.049582 
L 26.331429 797.931936 
L 23.245034 794.751857 
L 23.04 794.62537 
L 19.927713 791.454131 
L 19.748571 791.329155 
L 16.457143 788.940607 
L 15.074299 788.156406 
L 15.029597 784.85868 
L 13.165714 782.991232 
L 11.738168 781.560955 
L 9.874286 779.693506 
L 8.44674 778.263229 
L 6.582857 776.036382 
L 5.514023 774.965503 
L 3.291429 772.738657 
L 1.425642 774.965503 
L 1.414465 778.263229 
L 3.291429 780.703631 
L 4.15591 781.560955 
L 3.291429 783.311732 
L 0.746217 781.560955 
L 0 781.164433 
M 39.497143 802.513626 
L 37.798171 801.347308 
L 39.497143 800.710105 
L 40.133129 801.347308 
L 39.497143 802.513626 
M 9.874286 785.973564 
L 8.380126 784.85868 
L 9.874286 784.037647 
L 10.693752 784.85868 
L 9.874286 785.973564 
" clip-path="url(#p52a8ec136f)" style="fill: none"/>
    <path d="M 61.786152 821.133661 
L 59.246046 818.648442 
M 45.197314 805.913035 
L 43.301643 804.645033 
L 44.186635 801.347308 
L 42.788571 799.94657 
L 40.895206 798.049582 
L 41.16287 794.751857 
L 39.497143 793.082943 
L 36.205714 793.082943 
L 34.811975 794.751857 
L 33.814291 798.049582 
L 36.205714 801.260355 
L 39.497143 800.057033 
L 40.784953 801.347308 
L 39.497143 803.708991 
L 36.205714 801.972033 
L 33.481267 804.645033 
L 32.914286 804.717268 
L 32.841283 804.645033 
L 29.622857 802.086401 
L 28.877745 801.347308 
L 26.331429 798.785589 
L 25.589321 798.049582 
L 23.04 795.471853 
L 22.313438 794.751857 
L 19.748571 792.157923 
L 19.022482 791.454131 
L 16.457143 789.555192 
L 13.990552 788.156406 
L 14.581431 784.85868 
L 13.165714 783.440255 
L 11.288128 784.85868 
L 9.874286 786.782214 
L 7.296379 784.85868 
L 9.874286 783.442133 
L 11.290003 781.560955 
L 9.874286 780.142529 
L 7.998574 778.263229 
L 6.582857 776.571822 
L 4.979606 774.965503 
L 3.291429 773.274096 
L 1.874266 774.965503 
L 1.859571 778.263229 
L 3.291429 780.124911 
L 4.739463 781.560955 
L 3.291429 784.493564 
L 1.047306 784.85868 
L -0 785.930105 
M 73.795713 821.133661 
L 73.795713 817.835936 
L 72.411429 816.180124 
L 69.12 816.447988 
L 67.220431 817.835936 
L 69.12 820.664372 
L 69.588393 821.133661 
" clip-path="url(#p52a8ec136f)" style="fill: none"/>
    <path d="M 61.004738 821.133661 
L 59.245714 819.412647 
L 57.657763 817.835936 
L 55.954286 815.742248 
L 54.73372 814.53821 
L 52.662857 811.842682 
L 52.025691 811.240484 
L 49.371429 809.224721 
L 47.63232 807.942759 
L 46.08 807.175908 
L 42.788571 806.059912 
L 40.883121 806.114341 
M 25.934434 799.165314 
L 24.809455 798.049582 
L 23.04 796.26041 
L 21.517689 794.751857 
L 19.748571 792.96269 
L 18.192219 791.454131 
L 16.457143 790.169777 
L 13.165714 788.590981 
L 12.327649 788.156406 
L 9.874286 787.590864 
L 6.582857 786.973032 
L 5.125087 788.156406 
L 3.291429 789.970276 
L 0 790.348893 
M 73.338158 821.133661 
L 73.338158 817.835936 
L 72.411429 816.727429 
L 69.12 816.906754 
L 67.848306 817.835936 
L 69.12 819.729473 
L 70.521507 821.133661 
M 42.788571 804.015152 
L 43.731811 801.347308 
L 42.788571 800.402263 
L 41.436778 801.347308 
L 42.788571 804.015152 
z
M 36.205714 800.242986 
L 39.497143 799.403962 
L 40.440383 798.049582 
L 40.620969 794.751857 
L 39.497143 793.62588 
L 36.205714 793.62588 
L 35.265391 794.751857 
L 34.57204 798.049582 
L 36.205714 800.242986 
z
M 13.165714 787.827843 
L 14.133266 784.85868 
L 13.165714 783.889278 
L 11.882505 784.85868 
L 13.165714 787.827843 
z
M 6.582857 784.408154 
L 9.874286 782.846619 
L 10.841837 781.560955 
L 9.874286 780.591552 
L 7.550408 778.263229 
L 6.582857 777.107261 
L 4.445189 774.965503 
L 3.291429 773.809535 
L 2.322889 774.965503 
L 2.304677 778.263229 
L 3.291429 779.54619 
L 5.323016 781.560955 
L 6.582857 784.408154 
z
" clip-path="url(#p52a8ec136f)" style="fill: none"/>
    <path d="M 60.223323 821.133661 
L 59.245714 820.177177 
L 56.887784 817.835936 
L 55.954286 816.688604 
L 53.774374 814.53821 
L 52.662857 813.09141 
L 50.704449 811.240484 
L 49.371429 810.22813 
L 46.271096 807.942759 
L 46.08 807.848357 
L 45.134679 807.942759 
L 42.788571 810.254138 
L 41.6729 811.240484 
L 39.497143 811.779333 
L 38.945928 811.240484 
L 36.205714 809.429287 
L 34.697239 807.942759 
L 32.914286 806.615572 
L 30.922792 804.645033 
L 29.622857 803.611591 
L 27.340134 801.347308 
L 26.512039 800.514205 
M 11.39722 790.545978 
L 9.874286 790.663047 
L 9.154296 791.454131 
L 6.582857 794.021227 
L 5.76597 794.751857 
L 3.291429 795.206516 
L 2.824653 794.751857 
L 0 792.337568 
M 72.880602 821.133661 
L 72.880602 817.835936 
L 72.411429 817.274733 
L 69.12 817.36552 
L 68.476181 817.835936 
L 69.12 818.794574 
L 71.454621 821.133661 
M 42.788571 802.728738 
L 43.276988 801.347308 
L 42.788571 800.857957 
L 42.088603 801.347308 
L 42.788571 802.728738 
z
M 36.205714 799.225618 
L 39.497143 798.75089 
L 39.98556 798.049582 
L 40.079069 794.751857 
L 39.497143 794.168818 
L 36.205714 794.168818 
L 35.718808 794.751857 
L 35.329788 798.049582 
L 36.205714 799.225618 
z
M 13.165714 786.45254 
L 13.6851 784.85868 
L 13.165714 784.338301 
L 12.476882 784.85868 
L 13.165714 786.45254 
z
M 6.582857 783.089344 
L 9.874286 782.251105 
L 10.393672 781.560955 
L 9.874286 781.040575 
L 7.102243 778.263229 
L 6.582857 777.6427 
L 3.910772 774.965503 
L 3.291429 774.344975 
L 2.771512 774.965503 
L 2.749783 778.263229 
L 3.291429 778.967469 
L 5.906569 781.560955 
L 6.582857 783.089344 
z
" clip-path="url(#p52a8ec136f)" style="fill: none"/>
    <path d="M 59.441909 821.133661 
L 59.245714 820.941706 
L 56.117805 817.835936 
L 55.954286 817.634959 
L 52.815027 814.53821 
L 52.662857 814.340138 
L 49.383207 811.240484 
L 49.371429 811.231539 
L 49.311399 811.240484 
L 46.08 814.283474 
L 45.777461 814.53821 
L 42.788571 815.953828 
L 41.30653 814.53821 
L 39.497143 813.637746 
L 37.044864 811.240484 
L 36.205714 810.685832 
L 33.422141 807.942759 
L 32.914286 807.564724 
L 29.963547 804.645033 
L 29.622857 804.374187 
L 26.571328 801.347308 
L 26.331429 801.105957 
L 23.249721 798.049582 
L 23.04 797.837525 
L 19.926192 794.751857 
L 19.748571 794.572223 
L 16.531692 791.454131 
L 16.457143 791.398948 
L 15.884188 791.454131 
L 13.18676 794.751857 
L 13.165714 794.762248 
L 11.323328 796.617911 
M 72.423047 821.133661 
L 72.423047 817.835936 
L 72.411429 817.822038 
L 69.12 817.824286 
L 69.104057 817.835936 
L 69.12 817.859675 
L 72.387734 821.133661 
M 42.788571 801.442323 
L 42.822165 801.347308 
L 42.788571 801.31365 
L 42.740427 801.347308 
L 42.788571 801.442323 
z
M 36.205714 798.208249 
L 39.497143 798.097819 
L 39.530736 798.049582 
L 39.537168 794.751857 
L 39.497143 794.711755 
L 36.205714 794.711755 
L 36.172225 794.751857 
L 36.087537 798.049582 
L 36.205714 798.208249 
z
M 13.165714 785.077237 
L 13.236935 784.85868 
L 13.165714 784.787324 
L 13.071259 784.85868 
L 13.165714 785.077237 
z
M 6.582857 781.770533 
L 9.874286 781.655591 
L 9.945506 781.560955 
L 9.874286 781.489598 
L 6.654077 778.263229 
L 6.582857 778.17814 
L 3.376356 774.965503 
L 3.291429 774.880414 
L 3.220136 774.965503 
L 3.194889 778.263229 
L 3.291429 778.388749 
L 6.490122 781.560955 
L 6.582857 781.770533 
z
" clip-path="url(#p52a8ec136f)" style="fill: none"/>
    <path d="M 35.534891 821.133661 
L 32.914286 819.187125 
L 30.823267 817.835936 
L 29.622857 816.977484 
L 26.331429 814.983785 
L 25.60514 814.53821 
L 23.04 812.973107 
L 20.026512 811.240484 
L 19.748571 811.074864 
L 16.457143 809.167944 
L 14.358323 807.942759 
L 13.165714 807.247845 
L 11.949595 806.51376 
" clip-path="url(#p52a8ec136f)" style="fill: none"/>
    <path d="M 15.92645 821.133661 
L 14.63632 820.334483 
" clip-path="url(#p52a8ec136f)" style="fill: none"/>
    <path clip-path="url(#p52a8ec136f)" style="fill: none"/>
    <path clip-path="url(#p52a8ec136f)" style="fill: none"/>
    <path clip-path="url(#p52a8ec136f)" style="fill: none"/>
    <path clip-path="url(#p52a8ec136f)" style="fill: none"/>
    <path clip-path="url(#p52a8ec136f)" style="fill: none"/>
    <path clip-path="url(#p52a8ec136f)" style="fill: none"/>
    <path clip-path="url(#p52a8ec136f)" style="fill: none"/>
    <path clip-path="url(#p52a8ec136f)" style="fill: none"/>
    <path clip-path="url(#p52a8ec136f)" style="fill: none"/>
    <path clip-path="url(#p52a8ec136f)" style="fill: none"/>
    <path clip-path="url(#p52a8ec136f)" style="fill: none"/>
    <path clip-path="url(#p52a8ec136f)" style="fill: none"/>
    <path clip-path="url(#p52a8ec136f)" style="fill: none"/>
    <path clip-path="url(#p52a8ec136f)" style="fill: none"/>
    <path clip-path="url(#p52a8ec136f)" style="fill: none"/>
    <path clip-path="url(#p52a8ec136f)" style="fill: none"/>
    <path clip-path="url(#p52a8ec136f)" style="fill: none"/>
    <path clip-path="url(#p52a8ec136f)" style="fill: none"/>
    <path clip-path="url(#p52a8ec136f)" style="fill: none"/>
    <path clip-path="url(#p52a8ec136f)" style="fill: none"/>
    <path clip-path="url(#p52a8ec136f)" style="fill: none"/>
    <path clip-path="url(#p52a8ec136f)" style="fill: none"/>
    <path clip-path="url(#p52a8ec136f)" style="fill: none"/>
    <path clip-path="url(#p52a8ec136f)" style="fill: none"/>
    <path clip-path="url(#p52a8ec136f)" style="fill: none"/>
    <path clip-path="url(#p52a8ec136f)" style="fill: none"/>
    <path clip-path="url(#p52a8ec136f)" style="fill: none"/>
    <path clip-path="url(#p52a8ec136f)" style="fill: none"/>
    <path clip-path="url(#p52a8ec136f)" style="fill: none"/>
    <path clip-path="url(#p52a8ec136f)" style="fill: none"/>
   </g>
   <g id="text_1">
    <g clip-path="url(#p52a8ec136f)">
     <!-- 0 -->
     <g style="opacity: 0" transform="translate(40.597166 800.349218) rotate(-307.670943) scale(0.12 -0.12)">
      <defs>
       <path id="DejaVuSans-30" d="M 2034 4250 
Q 1547 4250 1301 3770 
Q 1056 3291 1056 2328 
Q 1056 1369 1301 889 
Q 1547 409 2034 409 
Q 2525 409 2770 889 
Q 3016 1369 3016 2328 
Q 3016 3291 2770 3770 
Q 2525 4250 2034 4250 
z
M 2034 4750 
Q 2819 4750 3233 4129 
Q 3647 3509 3647 2328 
Q 3647 1150 3233 529 
Q 2819 -91 2034 -91 
Q 1250 -91 836 529 
Q 422 1150 422 2328 
Q 422 3509 836 4129 
Q 1250 4750 2034 4750 
z
" transform="scale(0.015625)"/>
      </defs>
      <use xlink:href="#DejaVuSans-30"/>
     </g>
    </g>
   </g>
   <g id="text_2">
    <g clip-path="url(#p52a8ec136f)">
     <!-- 1 -->
     <g style="opacity: 0" transform="translate(7.152199 781.11917) rotate(-314.046749) scale(0.12 -0.12)">
      <defs>
       <path id="DejaVuSans-31" d="M 794 531 
L 1825 531 
L 1825 4091 
L 703 3866 
L 703 4441 
L 1819 4666 
L 2450 4666 
L 2450 531 
L 3481 531 
L 3481 0 
L 794 0 
L 794 531 
z
" transform="scale(0.015625)"/>
      </defs>
      <use xlink:href="#DejaVuSans-31"/>
     </g>
    </g>
   </g>
   <g id="text_3">
    <g clip-path="url(#p52a8ec136f)">
     <!-- 2 -->
     <g style="opacity: 0" transform="translate(63.771232 824.799452) rotate(-25.038429) scale(0.12 -0.12)">
      <defs>
       <path id="DejaVuSans-32" d="M 1228 531 
L 3431 531 
L 3431 0 
L 469 0 
L 469 531 
Q 828 903 1448 1529 
Q 2069 2156 2228 2338 
Q 2531 2678 2651 2914 
Q 2772 3150 2772 3378 
Q 2772 3750 2511 3984 
Q 2250 4219 1831 4219 
Q 1534 4219 1204 4116 
Q 875 4013 500 3803 
L 500 4441 
Q 881 4594 1212 4672 
Q 1544 4750 1819 4750 
Q 2544 4750 2975 4387 
Q 3406 4025 3406 3419 
Q 3406 3131 3298 2873 
Q 3191 2616 2906 2266 
Q 2828 2175 2409 1742 
Q 1991 1309 1228 531 
z
" transform="scale(0.015625)"/>
      </defs>
      <use xlink:href="#DejaVuSans-32"/>
     </g>
    </g>
   </g>
   <g id="text_4">
    <g clip-path="url(#p52a8ec136f)">
     <!-- 3 -->
     <g style="opacity: 0" transform="translate(48.086112 810.890239) rotate(-315.087832) scale(0.12 -0.12)">
      <defs>
       <path id="DejaVuSans-33" d="M 2597 2516 
Q 3050 2419 3304 2112 
Q 3559 1806 3559 1356 
Q 3559 666 3084 287 
Q 2609 -91 1734 -91 
Q 1441 -91 1130 -33 
Q 819 25 488 141 
L 488 750 
Q 750 597 1062 519 
Q 1375 441 1716 441 
Q 2309 441 2620 675 
Q 2931 909 2931 1356 
Q 2931 1769 2642 2001 
Q 2353 2234 1838 2234 
L 1294 2234 
L 1294 2753 
L 1863 2753 
Q 2328 2753 2575 2939 
Q 2822 3125 2822 3475 
Q 2822 3834 2567 4026 
Q 2313 4219 1838 4219 
Q 1578 4219 1281 4162 
Q 984 4106 628 3988 
L 628 4550 
Q 988 4650 1302 4700 
Q 1616 4750 1894 4750 
Q 2613 4750 3031 4423 
Q 3450 4097 3450 3541 
Q 3450 3153 3228 2886 
Q 3006 2619 2597 2516 
z
" transform="scale(0.015625)"/>
      </defs>
      <use xlink:href="#DejaVuSans-33"/>
     </g>
    </g>
   </g>
   <g id="text_5">
    <g clip-path="url(#p52a8ec136f)">
     <!-- 4 -->
     <g style="opacity: 0" transform="translate(27.881468 806.122958) rotate(-324.245298) scale(0.12 -0.12)">
      <defs>
       <path id="DejaVuSans-34" d="M 2419 4116 
L 825 1625 
L 2419 1625 
L 2419 4116 
z
M 2253 4666 
L 3047 4666 
L 3047 1625 
L 3713 1625 
L 3713 1100 
L 3047 1100 
L 3047 0 
L 2419 0 
L 2419 1100 
L 313 1100 
L 313 1709 
L 2253 4666 
z
" transform="scale(0.015625)"/>
      </defs>
      <use xlink:href="#DejaVuSans-34"/>
     </g>
    </g>
   </g>
   <g id="text_6">
    <g clip-path="url(#p52a8ec136f)">
     <!-- 5 -->
     <g style="opacity: 0" transform="translate(14.695755 793.685452) rotate(-318.132263) scale(0.12 -0.12)">
      <defs>
       <path id="DejaVuSans-35" d="M 691 4666 
L 3169 4666 
L 3169 4134 
L 1269 4134 
L 1269 2991 
Q 1406 3038 1543 3061 
Q 1681 3084 1819 3084 
Q 2600 3084 3056 2656 
Q 3513 2228 3513 1497 
Q 3513 744 3044 326 
Q 2575 -91 1722 -91 
Q 1428 -91 1123 -41 
Q 819 9 494 109 
L 494 744 
Q 775 591 1075 516 
Q 1375 441 1709 441 
Q 2250 441 2565 725 
Q 2881 1009 2881 1497 
Q 2881 1984 2565 2268 
Q 2250 2553 1709 2553 
Q 1456 2553 1204 2497 
Q 953 2441 691 2322 
L 691 4666 
z
" transform="scale(0.015625)"/>
      </defs>
      <use xlink:href="#DejaVuSans-35"/>
     </g>
    </g>
   </g>
   <g id="text_7">
    <g clip-path="url(#p52a8ec136f)">
     <!-- 6 -->
     <g style="opacity: 0" transform="translate(-1.730892 797.323105) rotate(-325.428229) scale(0.12 -0.12)">
      <defs>
       <path id="DejaVuSans-36" d="M 2113 2584 
Q 1688 2584 1439 2293 
Q 1191 2003 1191 1497 
Q 1191 994 1439 701 
Q 1688 409 2113 409 
Q 2538 409 2786 701 
Q 3034 994 3034 1497 
Q 3034 2003 2786 2293 
Q 2538 2584 2113 2584 
z
M 3366 4563 
L 3366 3988 
Q 3128 4100 2886 4159 
Q 2644 4219 2406 4219 
Q 1781 4219 1451 3797 
Q 1122 3375 1075 2522 
Q 1259 2794 1537 2939 
Q 1816 3084 2150 3084 
Q 2853 3084 3261 2657 
Q 3669 2231 3669 1497 
Q 3669 778 3244 343 
Q 2819 -91 2113 -91 
Q 1303 -91 875 529 
Q 447 1150 447 2328 
Q 447 3434 972 4092 
Q 1497 4750 2381 4750 
Q 2619 4750 2861 4703 
Q 3103 4656 3366 4563 
z
" transform="scale(0.015625)"/>
      </defs>
      <use xlink:href="#DejaVuSans-36"/>
     </g>
    </g>
   </g>
   <g id="text_8">
    <g clip-path="url(#p52a8ec136f)">
     <!-- 7 -->
     <g style="opacity: 0" transform="translate(-1.051269 802.105991) rotate(-327.696559) scale(0.12 -0.12)">
      <defs>
       <path id="DejaVuSans-37" d="M 525 4666 
L 3525 4666 
L 3525 4397 
L 1831 0 
L 1172 0 
L 2766 4134 
L 525 4134 
L 525 4666 
z
" transform="scale(0.015625)"/>
      </defs>
      <use xlink:href="#DejaVuSans-37"/>
     </g>
    </g>
   </g>
   <g id="text_9">
    <g clip-path="url(#p52a8ec136f)">
     <!-- 8 -->
     <g style="opacity: 0" transform="translate(1.599149 816.057434) rotate(-328.594171) scale(0.12 -0.12)">
      <defs>
       <path id="DejaVuSans-38" d="M 2034 2216 
Q 1584 2216 1326 1975 
Q 1069 1734 1069 1313 
Q 1069 891 1326 650 
Q 1584 409 2034 409 
Q 2484 409 2743 651 
Q 3003 894 3003 1313 
Q 3003 1734 2745 1975 
Q 2488 2216 2034 2216 
z
M 1403 2484 
Q 997 2584 770 2862 
Q 544 3141 544 3541 
Q 544 4100 942 4425 
Q 1341 4750 2034 4750 
Q 2731 4750 3128 4425 
Q 3525 4100 3525 3541 
Q 3525 3141 3298 2862 
Q 3072 2584 2669 2484 
Q 3125 2378 3379 2068 
Q 3634 1759 3634 1313 
Q 3634 634 3220 271 
Q 2806 -91 2034 -91 
Q 1263 -91 848 271 
Q 434 634 434 1313 
Q 434 1759 690 2068 
Q 947 2378 1403 2484 
z
M 1172 3481 
Q 1172 3119 1398 2916 
Q 1625 2713 2034 2713 
Q 2441 2713 2670 2916 
Q 2900 3119 2900 3481 
Q 2900 3844 2670 4047 
Q 2441 4250 2034 4250 
Q 1625 4250 1398 4047 
Q 1172 3844 1172 3481 
z
" transform="scale(0.015625)"/>
      </defs>
      <use xlink:href="#DejaVuSans-38"/>
     </g>
    </g>
   </g>
  </g>
 </g>
 <defs>
  <clipPath id="p52a8ec136f">
   <rect x="0" y="0" width="576" height="821.133661"/>
  </clipPath>
 </defs>
</svg>
