<?xml version="1.0" encoding="utf-8" standalone="no"?>
<!DOCTYPE svg PUBLIC "-//W3C//DTD SVG 1.1//EN"
  "http://www.w3.org/Graphics/SVG/1.1/DTD/svg11.dtd">
<svg xmlns:xlink="http://www.w3.org/1999/xlink" width="576pt" height="817.229988pt" viewBox="0 0 576 817.229988" xmlns="http://www.w3.org/2000/svg" version="1.1">
 <metadata>
  <rdf:RDF xmlns:dc="http://purl.org/dc/elements/1.1/" xmlns:cc="http://creativecommons.org/ns#" xmlns:rdf="http://www.w3.org/1999/02/22-rdf-syntax-ns#">
   <cc:Work>
    <dc:type rdf:resource="http://purl.org/dc/dcmitype/StillImage"/>
    <dc:date>2025-07-25T22:44:28.359687</dc:date>
    <dc:format>image/svg+xml</dc:format>
    <dc:creator>
     <cc:Agent>
      <dc:title>Matplotlib v3.10.3, https://matplotlib.org/</dc:title>
     </cc:Agent>
    </dc:creator>
   </cc:Work>
  </rdf:RDF>
 </metadata>
 <defs>
  <style type="text/css">*{stroke-linejoin: round; stroke-linecap: butt}</style>
 </defs>
 <g id="figure_1">
  <g id="patch_1">
   <path d="M 0 817.229988 
L 576 817.229988 
L 576 0 
L 0 0 
L 0 817.229988 
z
" style="fill: none; opacity: 0"/>
  </g>
  <g id="axes_1">
   <g id="QuadContourSet_1">
    <path d="M 2.718812 13.128193 
L 3.272727 12.953539 
L 6.545455 12.223608 
L 9.818182 11.571024 
L 13.090909 10.01135 
L 13.489922 9.846144 
L 16.363636 9.21723 
L 19.636364 8.16062 
L 22.909091 7.103227 
L 26.181818 7.424821 
L 27.414133 9.846144 
L 29.454545 11.896429 
L 31.499007 9.846144 
L 30.260113 6.564096 
L 32.727273 5.547609 
L 36 5.027622 
L 39.272727 4.800668 
L 42.545455 4.058492 
L 43.956262 3.282048 
L 45.818182 2.673774 
L 49.090909 1.717039 
L 52.242888 0 
L 50.898427 0 
L 49.090909 0.984644 
L 45.818182 2.091395 
L 42.545455 3.084581 
L 42.060588 3.282048 
L 39.272727 4.110182 
L 36 4.405397 
L 32.727273 4.589908 
L 29.454545 5.425561 
L 26.181818 6.418979 
L 22.909091 6.233679 
L 21.150862 6.564096 
L 19.636364 7.041586 
L 16.363636 8.575529 
L 13.090909 9.379424 
L 12.046765 9.846144 
L 9.818182 10.964508 
L 6.545455 11.739812 
L 3.272727 12.308231 
L 0.672216 13.128193 
L 0 13.404899 
L 0 14.247346 
z
M 27.894118 9.846144 
L 29.454545 7.113377 
L 31.018069 9.846144 
L 29.454545 11.414121 
z
M 65.454545 1.752633 
L 68.727273 1.752633 
L 70.474928 0 
L 69.875282 0 
L 68.727273 1.151279 
L 65.454545 1.151279 
L 64.123253 0 
L 63.42787 0 
z
" clip-path="url(#p523b357921)" style="fill: #f5f9fe; fill-opacity: 0.9"/>
    <path d="M 0.672216 13.128193 
L 3.272727 12.308231 
L 6.545455 11.739812 
L 9.818182 10.964508 
L 12.046765 9.846144 
L 13.090909 9.379424 
L 16.363636 8.575529 
L 19.636364 7.041586 
L 21.150862 6.564096 
L 22.909091 6.233679 
L 26.181818 6.418979 
L 29.454545 5.425561 
L 32.727273 4.589908 
L 36 4.405397 
L 39.272727 4.110182 
L 42.060588 3.282048 
L 42.545455 3.084581 
L 45.818182 2.091395 
L 49.090909 0.984644 
L 50.898427 0 
L 49.553966 0 
L 49.090909 0.25225 
L 45.818182 1.509017 
L 42.545455 2.13791 
L 39.736109 3.282048 
L 39.272727 3.419696 
L 36 3.783172 
L 32.727273 3.632206 
L 29.454545 3.683193 
L 26.181818 4.757647 
L 22.909091 5.566666 
L 19.636364 6.234779 
L 18.943463 6.564096 
L 16.363636 7.933827 
L 13.090909 8.839186 
L 10.838149 9.846144 
L 9.818182 10.357992 
L 6.545455 11.256015 
L 3.272727 11.662924 
L 0 12.47767 
L 0 13.128193 
L 0 13.404899 
z
M 29.454545 11.414121 
L 31.018069 9.846144 
L 29.454545 7.113377 
L 27.894118 9.846144 
z
M 28.374104 9.846144 
L 29.454545 7.953974 
L 30.537131 9.846144 
L 29.454545 10.931813 
z
M 65.454545 1.151279 
L 68.727273 1.151279 
L 69.875282 0 
L 69.275635 0 
L 68.727273 0.549924 
L 65.454545 0.549924 
L 64.818635 0 
L 64.123253 0 
z
" clip-path="url(#p523b357921)" style="fill: #eff6fc; fill-opacity: 0.9"/>
    <path d="M 3.272727 11.662924 
L 6.545455 11.256015 
L 9.818182 10.357992 
L 10.838149 9.846144 
L 13.090909 8.839186 
L 16.363636 7.933827 
L 18.943463 6.564096 
L 19.636364 6.234779 
L 22.909091 5.566666 
L 26.181818 4.757647 
L 29.454545 3.683193 
L 32.727273 3.632206 
L 36 3.783172 
L 39.272727 3.419696 
L 39.736109 3.282048 
L 42.545455 2.13791 
L 45.818182 1.509017 
L 49.090909 0.25225 
L 49.553966 0 
L 49.090909 0 
L 48.135939 0 
L 45.818182 0.926638 
L 42.545455 1.19124 
L 39.272727 1.659211 
L 36 2.726814 
L 32.727273 2.35594 
L 29.454545 2.71881 
L 26.181818 3.211197 
L 26.037595 3.282048 
L 22.909091 4.899653 
L 19.636364 5.660356 
L 17.734847 6.564096 
L 16.363636 7.292126 
L 13.090909 8.298949 
L 9.818182 9.707714 
L 9.571437 9.846144 
L 6.545455 10.772218 
L 3.272727 11.017617 
L 0 11.508974 
L 0 12.47767 
z
M 29.454545 10.931813 
L 30.537131 9.846144 
L 29.454545 7.953974 
L 28.374104 9.846144 
z
M 28.85409 9.846144 
L 29.454545 8.79457 
L 30.056192 9.846144 
L 29.454545 10.449505 
z
M 65.454545 0.549924 
L 68.727273 0.549924 
L 69.275635 0 
L 68.727273 0 
L 65.454545 0 
L 64.818635 0 
z
" clip-path="url(#p523b357921)" style="fill: #eaf3fb; fill-opacity: 0.9"/>
    <path d="M 3.272727 11.017617 
L 6.545455 10.772218 
L 9.571437 9.846144 
L 9.818182 9.707714 
L 13.090909 8.298949 
L 16.363636 7.292126 
L 17.734847 6.564096 
L 19.636364 5.660356 
L 22.909091 4.899653 
L 26.037595 3.282048 
L 26.181818 3.211197 
L 29.454545 2.71881 
L 32.727273 2.35594 
L 36 2.726814 
L 39.272727 1.659211 
L 42.545455 1.19124 
L 45.818182 0.926638 
L 48.135939 0 
L 46.679261 0 
L 45.818182 0.344259 
L 42.545455 0.24457 
L 40.622773 0 
L 39.272727 0 
L 36 0 
L 35.78029 0 
L 32.727273 0.896069 
L 29.454545 1.987114 
L 26.181818 2.577452 
L 24.747568 3.282048 
L 22.909091 4.23264 
L 19.636364 5.085933 
L 16.526231 6.564096 
L 16.363636 6.650424 
L 13.090909 7.758711 
L 9.818182 8.820826 
L 7.990611 9.846144 
L 6.545455 10.288421 
L 3.272727 10.372309 
L 0 10.540278 
L 0 11.508974 
z
M 29.454545 10.449505 
L 30.056192 9.846144 
L 29.454545 8.79457 
L 28.85409 9.846144 
z
M 29.334076 9.846144 
L 29.454545 9.635167 
L 29.575254 9.846144 
L 29.454545 9.967197 
z
" clip-path="url(#p523b357921)" style="fill: #e5eff9; fill-opacity: 0.9"/>
    <path d="M 3.272727 10.372309 
L 6.545455 10.288421 
L 7.990611 9.846144 
L 9.818182 8.820826 
L 13.090909 7.758711 
L 16.363636 6.650424 
L 16.526231 6.564096 
L 19.636364 5.085933 
L 22.909091 4.23264 
L 24.747568 3.282048 
L 26.181818 2.577452 
L 29.454545 1.987114 
L 32.727273 0.896069 
L 35.78029 0 
L 32.727273 0 
L 32.125964 0 
L 29.454545 1.255417 
L 26.181818 1.943707 
L 23.457541 3.282048 
L 22.909091 3.565626 
L 19.636364 4.51151 
L 16.363636 5.758202 
L 14.99975 6.564096 
L 13.090909 7.218474 
L 9.818182 7.933939 
L 6.545455 9.696117 
L 3.272727 9.585279 
L 0 9.504637 
L 0 9.846144 
L 0 10.540278 
z
M 29.454545 9.967197 
L 29.575254 9.846144 
L 29.454545 9.635167 
L 29.334076 9.846144 
z
M 42.545455 0.24457 
L 45.818182 0.344259 
L 46.679261 0 
L 45.818182 0 
L 42.545455 0 
L 40.622773 0 
z
" clip-path="url(#p523b357921)" style="fill: #dfecf7; fill-opacity: 0.9"/>
    <path d="M 3.272727 9.585279 
L 6.545455 9.696117 
L 9.818182 7.933939 
L 13.090909 7.218474 
L 14.99975 6.564096 
L 16.363636 5.758202 
L 19.636364 4.51151 
L 22.909091 3.565626 
L 23.457541 3.282048 
L 26.181818 1.943707 
L 29.454545 1.255417 
L 32.125964 0 
L 30.568978 0 
L 29.454545 0.523721 
L 26.181818 1.309963 
L 22.909091 2.718638 
L 21.812226 3.282048 
L 19.636364 3.937087 
L 16.363636 4.827039 
L 13.42386 6.564096 
L 13.090909 6.678237 
L 9.818182 7.047052 
L 6.545455 7.948006 
L 3.272727 8.172357 
L 0 8.299749 
L 0 9.504637 
z
" clip-path="url(#p523b357921)" style="fill: #dae8f6; fill-opacity: 0.9"/>
    <path d="M 3.272727 8.172357 
L 6.545455 7.948006 
L 9.818182 7.047052 
L 13.090909 6.678237 
L 13.42386 6.564096 
L 16.363636 4.827039 
L 19.636364 3.937087 
L 21.812226 3.282048 
L 22.909091 2.718638 
L 26.181818 1.309963 
L 29.454545 0.523721 
L 30.568978 0 
L 29.454545 0 
L 28.766126 0 
L 26.181818 0.676218 
L 22.909091 1.738545 
L 19.904148 3.282048 
L 19.636364 3.362664 
L 16.363636 3.895875 
L 13.090909 5.121321 
L 9.818182 5.78435 
L 6.545455 6.232196 
L 4.578185 6.564096 
L 3.272727 6.759436 
L 0 7.094861 
L 0 8.299749 
z
" clip-path="url(#p523b357921)" style="fill: #d6e5f4; fill-opacity: 0.9"/>
    <path d="M 3.272727 6.759436 
L 4.578185 6.564096 
L 6.545455 6.232196 
L 9.818182 5.78435 
L 13.090909 5.121321 
L 16.363636 3.895875 
L 19.636364 3.362664 
L 19.904148 3.282048 
L 22.909091 1.738545 
L 26.181818 0.676218 
L 28.766126 0 
L 26.344138 0 
L 26.181818 0.042473 
L 22.909091 0.758452 
L 19.636364 1.898178 
L 16.363636 2.728374 
L 13.142665 3.282048 
L 13.090909 3.292065 
L 9.818182 4.072311 
L 6.545455 4.639128 
L 3.272727 5.090154 
L 0 5.464968 
L 0 6.564096 
L 0 7.094861 
z
" clip-path="url(#p523b357921)" style="fill: #d0e2f2; fill-opacity: 0.9"/>
    <path d="M 3.272727 5.090154 
L 6.545455 4.639128 
L 9.818182 4.072311 
L 13.090909 3.292065 
L 13.142665 3.282048 
L 16.363636 2.728374 
L 19.636364 1.898178 
L 22.909091 0.758452 
L 26.181818 0.042473 
L 26.344138 0 
L 26.181818 0 
L 22.909091 0 
L 21.082971 0 
L 19.636364 0.288386 
L 16.363636 1.103726 
L 13.090909 1.700739 
L 9.818182 2.212656 
L 6.545455 2.957236 
L 4.183468 3.282048 
L 3.272727 3.379744 
L 0 3.500451 
L 0 5.464968 
z
" clip-path="url(#p523b357921)" style="fill: #cbdef1; fill-opacity: 0.9"/>
    <path d="M 3.272727 3.379744 
L 4.183468 3.282048 
L 6.545455 2.957236 
L 9.818182 2.212656 
L 13.090909 1.700739 
L 16.363636 1.103726 
L 19.636364 0.288386 
L 21.082971 0 
L 19.636364 0 
L 16.363636 0 
L 13.67486 0 
L 13.090909 0.110723 
L 9.818182 0.226447 
L 6.545455 0.764556 
L 3.272727 1.146441 
L 0 1.800625 
L 0 3.282048 
L 0 3.500451 
z
" clip-path="url(#p523b357921)" style="fill: #c6dbef; fill-opacity: 0.9"/>
    <path d="M 3.272727 1.146441 
L 6.545455 0.764556 
L 9.818182 0.226447 
L 13.090909 0.110723 
L 13.67486 0 
L 13.090909 0 
L 9.818182 0 
L 6.545455 0 
L 3.272727 0 
L 0.457933 0 
L 0 0.133907 
L 0 1.800625 
z
" clip-path="url(#p523b357921)" style="fill: #bed8ec; fill-opacity: 0.9"/>
    <path d="M 0.457933 0 
L 0 0 
L 0 0.133907 
z
" clip-path="url(#p523b357921)" style="fill: #b5d4e9; fill-opacity: 0.9"/>
    <path clip-path="url(#p523b357921)" style="fill: #add0e6; fill-opacity: 0.9"/>
    <path clip-path="url(#p523b357921)" style="fill: #a5cde3; fill-opacity: 0.9"/>
    <path clip-path="url(#p523b357921)" style="fill: #9cc9e1; fill-opacity: 0.9"/>
    <path clip-path="url(#p523b357921)" style="fill: #91c3de; fill-opacity: 0.9"/>
    <path clip-path="url(#p523b357921)" style="fill: #85bcdc; fill-opacity: 0.9"/>
    <path clip-path="url(#p523b357921)" style="fill: #7cb7da; fill-opacity: 0.9"/>
    <path clip-path="url(#p523b357921)" style="fill: #71b1d7; fill-opacity: 0.9"/>
    <path clip-path="url(#p523b357921)" style="fill: #66abd4; fill-opacity: 0.9"/>
    <path clip-path="url(#p523b357921)" style="fill: #5da5d1; fill-opacity: 0.9"/>
    <path clip-path="url(#p523b357921)" style="fill: #56a0ce; fill-opacity: 0.9"/>
    <path clip-path="url(#p523b357921)" style="fill: #4d99ca; fill-opacity: 0.9"/>
    <path clip-path="url(#p523b357921)" style="fill: #4493c7; fill-opacity: 0.9"/>
    <path clip-path="url(#p523b357921)" style="fill: #3c8cc3; fill-opacity: 0.9"/>
    <path clip-path="url(#p523b357921)" style="fill: #3686c0; fill-opacity: 0.9"/>
    <path clip-path="url(#p523b357921)" style="fill: #2f7fbc; fill-opacity: 0.9"/>
    <path clip-path="url(#p523b357921)" style="fill: #2777b8; fill-opacity: 0.9"/>
    <path clip-path="url(#p523b357921)" style="fill: #2070b4; fill-opacity: 0.9"/>
    <path clip-path="url(#p523b357921)" style="fill: #1c6ab0; fill-opacity: 0.9"/>
    <path clip-path="url(#p523b357921)" style="fill: #1663aa; fill-opacity: 0.9"/>
    <path clip-path="url(#p523b357921)" style="fill: #115ca5; fill-opacity: 0.9"/>
    <path clip-path="url(#p523b357921)" style="fill: #0c56a0; fill-opacity: 0.9"/>
    <path clip-path="url(#p523b357921)" style="fill: #084f99; fill-opacity: 0.9"/>
    <path clip-path="url(#p523b357921)" style="fill: #08488e; fill-opacity: 0.9"/>
    <path clip-path="url(#p523b357921)" style="fill: #084184; fill-opacity: 0.9"/>
    <path clip-path="url(#p523b357921)" style="fill: #083a7a; fill-opacity: 0.9"/>
    <path clip-path="url(#p523b357921)" style="fill: #083370; fill-opacity: 0.9"/>
    <path clip-path="url(#p523b357921)" style="fill: #08306b; fill-opacity: 0.9"/>
   </g>
   <g id="QuadContourSet_2">
    <path d="M 0 14.247346 
L 2.718812 13.128193 
L 3.272727 12.953539 
L 4.041017 12.782184 
M 22.219805 7.32593 
L 22.909091 7.103227 
L 26.181818 7.424821 
L 27.414133 9.846144 
L 29.454545 11.896429 
L 31.499007 9.846144 
L 30.260113 6.564096 
L 32.727273 5.547609 
L 36 5.027622 
L 39.272727 4.800668 
L 42.545455 4.058492 
L 43.956262 3.282048 
L 45.818182 2.673774 
L 49.090909 1.717039 
L 52.242888 0 
M 63.42787 0 
L 65.454545 1.752633 
L 68.727273 1.752633 
L 70.474928 0 
" clip-path="url(#p523b357921)" style="fill: none"/>
    <path d="M 0 13.404899 
L 0.672216 13.128193 
L 3.272727 12.308231 
L 6.545455 11.739812 
L 9.818182 10.964508 
L 12.046765 9.846144 
L 13.090909 9.379424 
L 16.363636 8.575529 
L 19.636364 7.041586 
L 21.150862 6.564096 
L 22.909091 6.233679 
L 26.181818 6.418979 
L 29.454545 5.425561 
L 29.802965 5.336596 
M 48.408472 1.215427 
L 49.090909 0.984644 
L 50.898427 0 
M 64.123253 0 
L 65.454545 1.151279 
L 68.727273 1.151279 
L 69.875282 0 
M 29.454545 11.414121 
L 31.018069 9.846144 
L 29.454545 7.113377 
L 27.894118 9.846144 
L 29.454545 11.414121 
z
" clip-path="url(#p523b357921)" style="fill: none"/>
    <path d="M 0 12.47767 
L 3.272727 11.662924 
L 3.981111 11.574848 
M 22.089918 5.733897 
L 22.909091 5.566666 
L 26.181818 4.757647 
L 29.454545 3.683193 
L 32.727273 3.632206 
L 36 3.783172 
L 39.272727 3.419696 
L 39.736109 3.282048 
L 42.545455 2.13791 
L 45.818182 1.509017 
L 49.090909 0.25225 
L 49.553966 0 
M 64.818635 0 
L 65.454545 0.549924 
L 68.727273 0.549924 
L 69.275635 0 
M 29.454545 10.931813 
L 30.537131 9.846144 
L 29.454545 7.953974 
L 28.374104 9.846144 
L 29.454545 10.931813 
z
" clip-path="url(#p523b357921)" style="fill: none"/>
    <path d="M 0 11.508974 
L 3.272727 11.017617 
L 3.976664 10.964834 
M 22.077413 5.092966 
L 22.909091 4.899653 
L 26.037595 3.282048 
L 26.181818 3.211197 
L 29.454545 2.71881 
L 32.727273 2.35594 
L 36 2.726814 
L 39.272727 1.659211 
L 42.545455 1.19124 
L 45.818182 0.926638 
L 48.135939 0 
M 29.454545 10.449505 
L 30.056192 9.846144 
L 29.454545 8.79457 
L 28.85409 9.846144 
L 29.454545 10.449505 
z
" clip-path="url(#p523b357921)" style="fill: none"/>
    <path d="M 9.267035 9.130035 
L 9.818182 8.820826 
L 13.090909 7.758711 
L 16.363636 6.650424 
L 16.526231 6.564096 
L 19.636364 5.085933 
L 22.909091 4.23264 
L 24.747568 3.282048 
L 26.181818 2.577452 
L 29.454545 1.987114 
L 32.727273 0.896069 
L 35.78029 0 
M 40.622773 0 
L 42.545455 0.24457 
L 45.818182 0.344259 
L 46.679261 0 
M 29.454545 9.967197 
L 29.575254 9.846144 
L 29.454545 9.635167 
L 29.334076 9.846144 
L 29.454545 9.967197 
z
" clip-path="url(#p523b357921)" style="fill: none"/>
    <path d="M 15.383854 6.337137 
L 16.363636 5.758202 
L 19.636364 4.51151 
L 22.909091 3.565626 
L 23.457541 3.282048 
L 26.181818 1.943707 
L 29.454545 1.255417 
L 32.125964 0 
" clip-path="url(#p523b357921)" style="fill: none"/>
    <path d="M 15.566627 5.297976 
L 16.363636 4.827039 
L 19.636364 3.937087 
L 21.812226 3.282048 
L 22.909091 2.718638 
L 26.181818 1.309963 
L 29.454545 0.523721 
L 30.568978 0 
" clip-path="url(#p523b357921)" style="fill: none"/>
    <path d="M 0 7.094861 
L 3.272727 6.759436 
L 3.701163 6.695328 
M 22.073814 2.167589 
L 22.909091 1.738545 
L 26.181818 0.676218 
L 28.766126 0 
" clip-path="url(#p523b357921)" style="fill: none"/>
    <path d="M 0 5.464968 
L 3.272727 5.090154 
L 3.733228 5.026691 
M 22.30815 0.96773 
L 22.909091 0.758452 
L 26.181818 0.042473 
L 26.344138 0 
" clip-path="url(#p523b357921)" style="fill: none"/>
    <path d="M 0 3.500451 
L 0.407196 3.485433 
M 19.163656 0.406153 
L 19.636364 0.288386 
L 21.082971 0 
" clip-path="url(#p523b357921)" style="fill: none"/>
    <path d="M 0 1.800625 
L 3.272727 1.146441 
L 6.545455 0.764556 
L 9.818182 0.226447 
L 13.090909 0.110723 
L 13.67486 0 
" clip-path="url(#p523b357921)" style="fill: none"/>
    <path d="M 0 0.133907 
L 0.457933 0 
" clip-path="url(#p523b357921)" style="fill: none"/>
    <path clip-path="url(#p523b357921)" style="fill: none"/>
    <path clip-path="url(#p523b357921)" style="fill: none"/>
    <path clip-path="url(#p523b357921)" style="fill: none"/>
    <path clip-path="url(#p523b357921)" style="fill: none"/>
    <path clip-path="url(#p523b357921)" style="fill: none"/>
    <path clip-path="url(#p523b357921)" style="fill: none"/>
    <path clip-path="url(#p523b357921)" style="fill: none"/>
    <path clip-path="url(#p523b357921)" style="fill: none"/>
    <path clip-path="url(#p523b357921)" style="fill: none"/>
    <path clip-path="url(#p523b357921)" style="fill: none"/>
    <path clip-path="url(#p523b357921)" style="fill: none"/>
    <path clip-path="url(#p523b357921)" style="fill: none"/>
    <path clip-path="url(#p523b357921)" style="fill: none"/>
    <path clip-path="url(#p523b357921)" style="fill: none"/>
    <path clip-path="url(#p523b357921)" style="fill: none"/>
    <path clip-path="url(#p523b357921)" style="fill: none"/>
    <path clip-path="url(#p523b357921)" style="fill: none"/>
    <path clip-path="url(#p523b357921)" style="fill: none"/>
    <path clip-path="url(#p523b357921)" style="fill: none"/>
    <path clip-path="url(#p523b357921)" style="fill: none"/>
    <path clip-path="url(#p523b357921)" style="fill: none"/>
    <path clip-path="url(#p523b357921)" style="fill: none"/>
    <path clip-path="url(#p523b357921)" style="fill: none"/>
    <path clip-path="url(#p523b357921)" style="fill: none"/>
    <path clip-path="url(#p523b357921)" style="fill: none"/>
    <path clip-path="url(#p523b357921)" style="fill: none"/>
    <path clip-path="url(#p523b357921)" style="fill: none"/>
   </g>
   <g id="text_1">
    <g clip-path="url(#p523b357921)">
     <!-- 0 -->
     <g style="opacity: 0" transform="translate(10.504581 14.352846) rotate(-18.278837) scale(0.12 -0.12)">
      <defs>
       <path id="DejaVuSans-30" d="M 2034 4250 
Q 1547 4250 1301 3770 
Q 1056 3291 1056 2328 
Q 1056 1369 1301 889 
Q 1547 409 2034 409 
Q 2525 409 2770 889 
Q 3016 1369 3016 2328 
Q 3016 3291 2770 3770 
Q 2525 4250 2034 4250 
z
M 2034 4750 
Q 2819 4750 3233 4129 
Q 3647 3509 3647 2328 
Q 3647 1150 3233 529 
Q 2819 -91 2034 -91 
Q 1250 -91 836 529 
Q 422 1150 422 2328 
Q 422 3509 836 4129 
Q 1250 4750 2034 4750 
z
" transform="scale(0.015625)"/>
      </defs>
      <use xlink:href="#DejaVuSans-30"/>
     </g>
    </g>
   </g>
   <g id="text_2">
    <g clip-path="url(#p523b357921)">
     <!-- 1 -->
     <g style="opacity: 0" transform="translate(36.143873 8.078551) rotate(-10.808101) scale(0.12 -0.12)">
      <defs>
       <path id="DejaVuSans-31" d="M 794 531 
L 1825 531 
L 1825 4091 
L 703 3866 
L 703 4441 
L 1819 4666 
L 2450 4666 
L 2450 531 
L 3481 531 
L 3481 0 
L 794 0 
L 794 531 
z
" transform="scale(0.015625)"/>
      </defs>
      <use xlink:href="#DejaVuSans-31"/>
     </g>
    </g>
   </g>
   <g id="text_3">
    <g clip-path="url(#p523b357921)">
     <!-- 2 -->
     <g style="opacity: 0" transform="translate(10.692026 13.287) rotate(-20.7223) scale(0.12 -0.12)">
      <defs>
       <path id="DejaVuSans-32" d="M 1228 531 
L 3431 531 
L 3431 0 
L 469 0 
L 469 531 
Q 828 903 1448 1529 
Q 2069 2156 2228 2338 
Q 2531 2678 2651 2914 
Q 2772 3150 2772 3378 
Q 2772 3750 2511 3984 
Q 2250 4219 1831 4219 
Q 1534 4219 1204 4116 
Q 875 4013 500 3803 
L 500 4441 
Q 881 4594 1212 4672 
Q 1544 4750 1819 4750 
Q 2544 4750 2975 4387 
Q 3406 4025 3406 3419 
Q 3406 3131 3298 2873 
Q 3191 2616 2906 2266 
Q 2828 2175 2409 1742 
Q 1991 1309 1228 531 
z
" transform="scale(0.015625)"/>
      </defs>
      <use xlink:href="#DejaVuSans-32"/>
     </g>
    </g>
   </g>
   <g id="text_4">
    <g clip-path="url(#p523b357921)">
     <!-- 3 -->
     <g style="opacity: 0" transform="translate(10.730141 12.767109) rotate(-21.212167) scale(0.12 -0.12)">
      <defs>
       <path id="DejaVuSans-33" d="M 2597 2516 
Q 3050 2419 3304 2112 
Q 3559 1806 3559 1356 
Q 3559 666 3084 287 
Q 2609 -91 1734 -91 
Q 1441 -91 1130 -33 
Q 819 25 488 141 
L 488 750 
Q 750 597 1062 519 
Q 1375 441 1716 441 
Q 2309 441 2620 675 
Q 2931 909 2931 1356 
Q 2931 1769 2642 2001 
Q 2353 2234 1838 2234 
L 1294 2234 
L 1294 2753 
L 1863 2753 
Q 2328 2753 2575 2939 
Q 2822 3125 2822 3475 
Q 2822 3834 2567 4026 
Q 2313 4219 1838 4219 
Q 1578 4219 1281 4162 
Q 984 4106 628 3988 
L 628 4550 
Q 988 4650 1302 4700 
Q 1616 4750 1894 4750 
Q 2613 4750 3031 4423 
Q 3450 4097 3450 3541 
Q 3450 3153 3228 2886 
Q 3006 2619 2597 2516 
z
" transform="scale(0.015625)"/>
      </defs>
      <use xlink:href="#DejaVuSans-33"/>
     </g>
    </g>
   </g>
   <g id="text_5">
    <g clip-path="url(#p523b357921)">
     <!-- 4 -->
     <g style="opacity: 0" transform="translate(-3.67307 14.011048) rotate(-2.439979) scale(0.12 -0.12)">
      <defs>
       <path id="DejaVuSans-34" d="M 2419 4116 
L 825 1625 
L 2419 1625 
L 2419 4116 
z
M 2253 4666 
L 3047 4666 
L 3047 1625 
L 3713 1625 
L 3713 1100 
L 3047 1100 
L 3047 0 
L 2419 0 
L 2419 1100 
L 313 1100 
L 313 1709 
L 2253 4666 
z
" transform="scale(0.015625)"/>
      </defs>
      <use xlink:href="#DejaVuSans-34"/>
     </g>
    </g>
   </g>
   <g id="text_6">
    <g clip-path="url(#p523b357921)">
     <!-- 5 -->
     <g style="opacity: 0" transform="translate(3.447959 13.689012) rotate(-11.259465) scale(0.12 -0.12)">
      <defs>
       <path id="DejaVuSans-35" d="M 691 4666 
L 3169 4666 
L 3169 4134 
L 1269 4134 
L 1269 2991 
Q 1406 3038 1543 3061 
Q 1681 3084 1819 3084 
Q 2600 3084 3056 2656 
Q 3513 2228 3513 1497 
Q 3513 744 3044 326 
Q 2575 -91 1722 -91 
Q 1428 -91 1123 -41 
Q 819 9 494 109 
L 494 744 
Q 775 591 1075 516 
Q 1375 441 1709 441 
Q 2250 441 2565 725 
Q 2881 1009 2881 1497 
Q 2881 1984 2565 2268 
Q 2250 2553 1709 2553 
Q 1456 2553 1204 2497 
Q 953 2441 691 2322 
L 691 4666 
z
" transform="scale(0.015625)"/>
      </defs>
      <use xlink:href="#DejaVuSans-35"/>
     </g>
    </g>
   </g>
   <g id="text_7">
    <g clip-path="url(#p523b357921)">
     <!-- 6 -->
     <g style="opacity: 0" transform="translate(3.223386 11.756095) rotate(-7.961531) scale(0.12 -0.12)">
      <defs>
       <path id="DejaVuSans-36" d="M 2113 2584 
Q 1688 2584 1439 2293 
Q 1191 2003 1191 1497 
Q 1191 994 1439 701 
Q 1688 409 2113 409 
Q 2538 409 2786 701 
Q 3034 994 3034 1497 
Q 3034 2003 2786 2293 
Q 2538 2584 2113 2584 
z
M 3366 4563 
L 3366 3988 
Q 3128 4100 2886 4159 
Q 2644 4219 2406 4219 
Q 1781 4219 1451 3797 
Q 1122 3375 1075 2522 
Q 1259 2794 1537 2939 
Q 1816 3084 2150 3084 
Q 2853 3084 3261 2657 
Q 3669 2231 3669 1497 
Q 3669 778 3244 343 
Q 2819 -91 2113 -91 
Q 1303 -91 875 529 
Q 447 1150 447 2328 
Q 447 3434 972 4092 
Q 1497 4750 2381 4750 
Q 2619 4750 2861 4703 
Q 3103 4656 3366 4563 
z
" transform="scale(0.015625)"/>
      </defs>
      <use xlink:href="#DejaVuSans-36"/>
     </g>
    </g>
   </g>
   <g id="text_8">
    <g clip-path="url(#p523b357921)">
     <!-- 7 -->
     <g style="opacity: 0" transform="translate(10.168 9.243734) rotate(-13.724316) scale(0.12 -0.12)">
      <defs>
       <path id="DejaVuSans-37" d="M 525 4666 
L 3525 4666 
L 3525 4397 
L 1831 0 
L 1172 0 
L 2766 4134 
L 525 4134 
L 525 4666 
z
" transform="scale(0.015625)"/>
      </defs>
      <use xlink:href="#DejaVuSans-37"/>
     </g>
    </g>
   </g>
   <g id="text_9">
    <g clip-path="url(#p523b357921)">
     <!-- 8 -->
     <g style="opacity: 0" transform="translate(10.022342 7.307234) rotate(-11.67342) scale(0.12 -0.12)">
      <defs>
       <path id="DejaVuSans-38" d="M 2034 2216 
Q 1584 2216 1326 1975 
Q 1069 1734 1069 1313 
Q 1069 891 1326 650 
Q 1584 409 2034 409 
Q 2484 409 2743 651 
Q 3003 894 3003 1313 
Q 3003 1734 2745 1975 
Q 2488 2216 2034 2216 
z
M 1403 2484 
Q 997 2584 770 2862 
Q 544 3141 544 3541 
Q 544 4100 942 4425 
Q 1341 4750 2034 4750 
Q 2731 4750 3128 4425 
Q 3525 4100 3525 3541 
Q 3525 3141 3298 2862 
Q 3072 2584 2669 2484 
Q 3125 2378 3379 2068 
Q 3634 1759 3634 1313 
Q 3634 634 3220 271 
Q 2806 -91 2034 -91 
Q 1263 -91 848 271 
Q 434 634 434 1313 
Q 434 1759 690 2068 
Q 947 2378 1403 2484 
z
M 1172 3481 
Q 1172 3119 1398 2916 
Q 1625 2713 2034 2713 
Q 2441 2713 2670 2916 
Q 2900 3119 2900 3481 
Q 2900 3844 2670 4047 
Q 2441 4250 2034 4250 
Q 1625 4250 1398 4047 
Q 1172 3844 1172 3481 
z
" transform="scale(0.015625)"/>
      </defs>
      <use xlink:href="#DejaVuSans-38"/>
     </g>
    </g>
   </g>
   <g id="text_10">
    <g clip-path="url(#p523b357921)">
     <!-- 9 -->
     <g style="opacity: 0" transform="translate(6.650329 6.149963) rotate(-10.242823) scale(0.12 -0.12)">
      <defs>
       <path id="DejaVuSans-39" d="M 703 97 
L 703 672 
Q 941 559 1184 500 
Q 1428 441 1663 441 
Q 2288 441 2617 861 
Q 2947 1281 2994 2138 
Q 2813 1869 2534 1725 
Q 2256 1581 1919 1581 
Q 1219 1581 811 2004 
Q 403 2428 403 3163 
Q 403 3881 828 4315 
Q 1253 4750 1959 4750 
Q 2769 4750 3195 4129 
Q 3622 3509 3622 2328 
Q 3622 1225 3098 567 
Q 2575 -91 1691 -91 
Q 1453 -91 1209 -44 
Q 966 3 703 97 
z
M 1959 2075 
Q 2384 2075 2632 2365 
Q 2881 2656 2881 3163 
Q 2881 3666 2632 3958 
Q 2384 4250 1959 4250 
Q 1534 4250 1286 3958 
Q 1038 3666 1038 3163 
Q 1038 2656 1286 2365 
Q 1534 2075 1959 2075 
z
" transform="scale(0.015625)"/>
      </defs>
      <use xlink:href="#DejaVuSans-39"/>
     </g>
    </g>
   </g>
  </g>
 </g>
 <defs>
  <clipPath id="p523b357921">
   <rect x="0" y="0" width="576" height="817.229988"/>
  </clipPath>
 </defs>
</svg>
