<?xml version="1.0" encoding="utf-8" standalone="no"?>
<!DOCTYPE svg PUBLIC "-//W3C//DTD SVG 1.1//EN"
  "http://www.w3.org/Graphics/SVG/1.1/DTD/svg11.dtd">
<svg xmlns:xlink="http://www.w3.org/1999/xlink" width="576pt" height="815.370087pt" viewBox="0 0 576 815.370087" xmlns="http://www.w3.org/2000/svg" version="1.1">
 <metadata>
  <rdf:RDF xmlns:dc="http://purl.org/dc/elements/1.1/" xmlns:cc="http://creativecommons.org/ns#" xmlns:rdf="http://www.w3.org/1999/02/22-rdf-syntax-ns#">
   <cc:Work>
    <dc:type rdf:resource="http://purl.org/dc/dcmitype/StillImage"/>
    <dc:date>2025-07-25T22:44:54.135285</dc:date>
    <dc:format>image/svg+xml</dc:format>
    <dc:creator>
     <cc:Agent>
      <dc:title>Matplotlib v3.10.3, https://matplotlib.org/</dc:title>
     </cc:Agent>
    </dc:creator>
   </cc:Work>
  </rdf:RDF>
 </metadata>
 <defs>
  <style type="text/css">*{stroke-linejoin: round; stroke-linecap: butt}</style>
 </defs>
 <g id="figure_1">
  <g id="patch_1">
   <path d="M 0 815.370087 
L 576 815.370087 
L 576 0 
L 0 0 
L 0 815.370087 
z
" style="fill: none; opacity: 0"/>
  </g>
  <g id="axes_1">
   <g id="QuadContourSet_1">
    <path d="M 3.272727 815.370087 
L 6.545455 815.370087 
L 9.818182 815.370087 
L 13.090909 815.370087 
L 16.363636 815.370087 
L 19.636364 815.370087 
L 22.909091 815.370087 
L 26.181818 815.370087 
L 29.454545 815.370087 
L 32.727273 815.370087 
L 36 815.370087 
L 39.272727 815.370087 
L 42.545455 815.370087 
L 45.818182 815.370087 
L 49.090909 815.370087 
L 52.363636 815.370087 
L 55.636364 815.370087 
L 58.909091 815.370087 
L 62.181818 815.370087 
L 65.454545 815.370087 
L 68.727273 815.370087 
L 72 815.370087 
L 75.272727 815.370087 
L 78.545455 815.370087 
L 81.818182 815.370087 
L 85.090909 815.370087 
L 88.363636 815.370087 
L 91.636364 815.370087 
L 94.909091 815.370087 
L 98.181818 815.370087 
L 101.454545 815.370087 
L 104.727273 815.370087 
L 108 815.370087 
L 111.272727 815.370087 
L 114.545455 815.370087 
L 117.818182 815.370087 
L 121.090909 815.370087 
L 124.363636 815.370087 
L 127.636364 815.370087 
L 130.909091 815.370087 
L 134.181818 815.370087 
L 137.454545 815.370087 
L 140.727273 815.370087 
L 144 815.370087 
L 147.272727 815.370087 
L 150.545455 815.370087 
L 153.818182 815.370087 
L 157.090909 815.370087 
L 160.363636 815.370087 
L 163.636364 815.370087 
L 166.909091 815.370087 
L 170.181818 815.370087 
L 173.454545 815.370087 
L 176.727273 815.370087 
L 180 815.370087 
L 183.272727 815.370087 
L 186.545455 815.370087 
L 189.818182 815.370087 
L 193.090909 815.370087 
L 196.363636 815.370087 
L 199.636364 815.370087 
L 202.909091 815.370087 
L 206.181818 815.370087 
L 209.454545 815.370087 
L 212.727273 815.370087 
L 216 815.370087 
L 219.272727 815.370087 
L 222.545455 815.370087 
L 225.818182 815.370087 
L 229.090909 815.370087 
L 232.363636 815.370087 
L 235.636364 815.370087 
L 238.909091 815.370087 
L 242.181818 815.370087 
L 245.454545 815.370087 
L 248.727273 815.370087 
L 252 815.370087 
L 255.272727 815.370087 
L 258.545455 815.370087 
L 261.818182 815.370087 
L 265.090909 815.370087 
L 268.363636 815.370087 
L 271.636364 815.370087 
L 274.909091 815.370087 
L 278.181818 815.370087 
L 281.454545 815.370087 
L 284.727273 815.370087 
L 288 815.370087 
L 291.272727 815.370087 
L 294.545455 815.370087 
L 297.818182 815.370087 
L 301.090909 815.370087 
L 304.363636 815.370087 
L 307.636364 815.370087 
L 310.909091 815.370087 
L 314.181818 815.370087 
L 317.454545 815.370087 
L 320.727273 815.370087 
L 324 815.370087 
L 327.272727 815.370087 
L 330.545455 815.370087 
L 333.818182 815.370087 
L 337.090909 815.370087 
L 340.363636 815.370087 
L 343.636364 815.370087 
L 346.909091 815.370087 
L 350.181818 815.370087 
L 353.454545 815.370087 
L 356.727273 815.370087 
L 360 815.370087 
L 363.272727 815.370087 
L 366.545455 815.370087 
L 369.818182 815.370087 
L 373.090909 815.370087 
L 376.363636 815.370087 
L 379.636364 815.370087 
L 382.909091 815.370087 
L 386.181818 815.370087 
L 389.454545 815.370087 
L 392.727273 815.370087 
L 396 815.370087 
L 399.272727 815.370087 
L 402.545455 815.370087 
L 405.818182 815.370087 
L 409.090909 815.370087 
L 412.363636 815.370087 
L 415.636364 815.370087 
L 418.909091 815.370087 
L 422.181818 815.370087 
L 425.454545 815.370087 
L 428.727273 815.370087 
L 432 815.370087 
L 435.272727 815.370087 
L 438.545455 815.370087 
L 441.818182 815.370087 
L 445.090909 815.370087 
L 448.363636 815.370087 
L 451.636364 815.370087 
L 454.909091 815.370087 
L 458.181818 815.370087 
L 461.454545 815.370087 
L 464.727273 815.370087 
L 468 815.370087 
L 471.272727 815.370087 
L 474.545455 815.370087 
L 477.818182 815.370087 
L 481.090909 815.370087 
L 484.363636 815.370087 
L 487.636364 815.370087 
L 490.909091 815.370087 
L 494.181818 815.370087 
L 497.454545 815.370087 
L 500.727273 815.370087 
L 504 815.370087 
L 507.272727 815.370087 
L 510.545455 815.370087 
L 513.818182 815.370087 
L 517.090909 815.370087 
L 520.363636 815.370087 
L 523.636364 815.370087 
L 526.909091 815.370087 
L 530.181818 815.370087 
L 533.454545 815.370087 
L 536.727273 815.370087 
L 540 815.370087 
L 543.272727 815.370087 
L 546.545455 815.370087 
L 549.818182 815.370087 
L 553.090909 815.370087 
L 556.363636 815.370087 
L 559.636364 815.370087 
L 562.909091 815.370087 
L 566.181818 815.370087 
L 569.454545 815.370087 
L 572.727273 815.370087 
L 576 815.370087 
L 576 812.095508 
L 576 808.820929 
L 576 805.546351 
L 576 802.271772 
L 576 798.997193 
L 576 795.722615 
L 576 792.448036 
L 576 789.173457 
L 576 785.898879 
L 576 782.6243 
L 576 779.349721 
L 576 776.075143 
L 576 772.800564 
L 576 769.525985 
L 576 766.251407 
L 576 762.976828 
L 576 759.702249 
L 576 756.427671 
L 576 753.153092 
L 576 749.878513 
L 576 746.603935 
L 576 743.329356 
L 576 740.054777 
L 576 736.780199 
L 576 733.50562 
L 576 730.231041 
L 576 726.956463 
L 576 723.681884 
L 576 720.407305 
L 576 717.132727 
L 576 713.858148 
L 576 710.583569 
L 576 707.308991 
L 576 704.034412 
L 576 700.759833 
L 576 697.485255 
L 576 694.210676 
L 576 690.936097 
L 576 687.661519 
L 576 684.38694 
L 576 681.112361 
L 576 677.837783 
L 576 674.563204 
L 576 671.288625 
L 576 668.014047 
L 576 664.739468 
L 576 661.46489 
L 576 658.190311 
L 576 654.915732 
L 576 651.641154 
L 576 648.366575 
L 576 645.091996 
L 576 641.817418 
L 576 638.542839 
L 576 635.26826 
L 576 631.993682 
L 576 628.719103 
L 576 625.444524 
L 576 622.169946 
L 576 618.895367 
L 576 615.620788 
L 576 612.34621 
L 576 609.071631 
L 576 605.797052 
L 576 602.522474 
L 576 599.247895 
L 576 595.973316 
L 576 592.698738 
L 576 589.424159 
L 576 586.14958 
L 576 582.875002 
L 576 579.600423 
L 576 576.325844 
L 576 573.051266 
L 576 569.776687 
L 576 566.502108 
L 576 563.22753 
L 576 559.952951 
L 576 556.678372 
L 576 553.403794 
L 576 550.129215 
L 576 546.854636 
L 576 543.580058 
L 576 540.305479 
L 576 537.0309 
L 576 533.756322 
L 576 530.481743 
L 576 527.207164 
L 576 523.932586 
L 576 520.658007 
L 576 517.383428 
L 576 514.10885 
L 576 510.834271 
L 576 507.559692 
L 576 504.285114 
L 576 501.010535 
L 576 497.735956 
L 576 494.461378 
L 576 491.186799 
L 576 487.91222 
L 576 484.637642 
L 576 481.363063 
L 576 478.088484 
L 576 474.813906 
L 576 471.539327 
L 576 468.264749 
L 576 464.99017 
L 576 461.715591 
L 576 458.441013 
L 576 455.166434 
L 576 451.891855 
L 576 448.617277 
L 576 445.342698 
L 576 442.068119 
L 576 438.793541 
L 576 435.518962 
L 576 432.244383 
L 576 428.969805 
L 576 425.695226 
L 576 422.420647 
L 576 419.146069 
L 576 415.87149 
L 576 412.596911 
L 576 409.322333 
L 576 406.047754 
L 576 402.773175 
L 576 399.498597 
L 576 396.224018 
L 576 392.949439 
L 576 389.674861 
L 576 386.400282 
L 576 383.125703 
L 576 379.851125 
L 576 376.576546 
L 576 373.301967 
L 576 370.027389 
L 576 366.75281 
L 576 363.478231 
L 576 360.203653 
L 576 356.929074 
L 576 353.654495 
L 576 350.379917 
L 576 347.105338 
L 576 343.830759 
L 576 340.556181 
L 576 337.281602 
L 576 334.007023 
L 576 330.732445 
L 576 327.457866 
L 576 324.183287 
L 576 320.908709 
L 576 317.63413 
L 576 314.359551 
L 576 311.084973 
L 576 307.810394 
L 576 304.535815 
L 576 301.261237 
L 576 297.986658 
L 576 294.712079 
L 576 291.437501 
L 576 288.162922 
L 576 284.888344 
L 576 281.613765 
L 576 278.339186 
L 576 275.064608 
L 576 271.790029 
L 576 268.51545 
L 576 265.240872 
L 576 261.966293 
L 576 258.691714 
L 576 255.417136 
L 576 252.142557 
L 576 248.867978 
L 576 245.5934 
L 576 242.318821 
L 576 239.044242 
L 576 235.769664 
L 576 232.495085 
L 576 229.220506 
L 576 225.945928 
L 576 222.671349 
L 576 219.39677 
L 576 216.122192 
L 576 212.847613 
L 576 209.573034 
L 576 206.298456 
L 576 203.023877 
L 576 199.749298 
L 576 196.47472 
L 576 193.200141 
L 576 189.925562 
L 576 186.650984 
L 576 183.376405 
L 576 180.101826 
L 576 176.827248 
L 576 173.552669 
L 576 170.27809 
L 576 167.003512 
L 576 163.728933 
L 576 160.454354 
L 576 157.179776 
L 576 153.905197 
L 576 150.630618 
L 576 147.35604 
L 576 144.081461 
L 576 140.806882 
L 576 137.532304 
L 576 134.257725 
L 576 130.983146 
L 576 127.708568 
L 576 124.433989 
L 576 121.15941 
L 576 117.884832 
L 576 114.610253 
L 576 111.335674 
L 576 108.061096 
L 576 104.786517 
L 576 101.511938 
L 576 98.23736 
L 576 94.962781 
L 576 91.688203 
L 576 88.413624 
L 576 85.139045 
L 576 81.864467 
L 576 78.589888 
L 576 75.315309 
L 576 72.040731 
L 576 68.766152 
L 576 65.491573 
L 576 62.216995 
L 576 58.942416 
L 576 55.667837 
L 576 52.393259 
L 576 49.11868 
L 576 45.844101 
L 576 42.569523 
L 576 39.294944 
L 576 36.020365 
L 576 32.745787 
L 576 29.471208 
L 576 26.196629 
L 576 22.922051 
L 576 19.647472 
L 576 16.372893 
L 576 13.098315 
L 576 9.823736 
L 576 6.549157 
L 576 3.274579 
L 576 0 
L 572.727273 0 
L 569.454545 0 
L 566.181818 0 
L 562.909091 0 
L 559.636364 0 
L 556.363636 0 
L 553.090909 0 
L 549.818182 0 
L 546.545455 0 
L 543.272727 0 
L 540 0 
L 536.727273 0 
L 533.454545 0 
L 530.181818 0 
L 526.909091 0 
L 523.636364 0 
L 520.363636 0 
L 517.090909 0 
L 513.818182 0 
L 510.545455 0 
L 507.272727 0 
L 504 0 
L 500.727273 0 
L 497.454545 0 
L 494.181818 0 
L 490.909091 0 
L 487.636364 0 
L 484.363636 0 
L 481.090909 0 
L 477.818182 0 
L 474.545455 0 
L 471.272727 0 
L 468 0 
L 464.727273 0 
L 461.454545 0 
L 458.181818 0 
L 454.909091 0 
L 451.636364 0 
L 448.363636 0 
L 445.090909 0 
L 441.818182 0 
L 438.545455 0 
L 435.272727 0 
L 432 0 
L 428.727273 0 
L 425.454545 0 
L 422.181818 0 
L 418.909091 0 
L 415.636364 0 
L 412.363636 0 
L 409.090909 0 
L 405.818182 0 
L 402.545455 0 
L 399.272727 0 
L 396 0 
L 392.727273 0 
L 389.454545 0 
L 386.181818 0 
L 382.909091 0 
L 379.636364 0 
L 376.363636 0 
L 373.090909 0 
L 369.818182 0 
L 366.545455 0 
L 363.272727 0 
L 360 0 
L 356.727273 0 
L 353.454545 0 
L 350.181818 0 
L 346.909091 0 
L 343.636364 0 
L 340.363636 0 
L 337.090909 0 
L 333.818182 0 
L 330.545455 0 
L 327.272727 0 
L 324 0 
L 320.727273 0 
L 317.454545 0 
L 314.181818 0 
L 310.909091 0 
L 307.636364 0 
L 304.363636 0 
L 301.090909 0 
L 297.818182 0 
L 294.545455 0 
L 291.272727 0 
L 288 0 
L 284.727273 0 
L 281.454545 0 
L 278.181818 0 
L 274.909091 0 
L 271.636364 0 
L 268.363636 0 
L 265.090909 0 
L 261.818182 0 
L 258.545455 0 
L 255.272727 0 
L 252 0 
L 248.727273 0 
L 245.454545 0 
L 242.181818 0 
L 238.909091 0 
L 235.636364 0 
L 232.363636 0 
L 229.090909 0 
L 225.818182 0 
L 222.545455 0 
L 219.272727 0 
L 216 0 
L 212.727273 0 
L 209.454545 0 
L 206.181818 0 
L 202.909091 0 
L 199.636364 0 
L 196.363636 0 
L 193.090909 0 
L 189.818182 0 
L 186.545455 0 
L 183.272727 0 
L 180 0 
L 176.727273 0 
L 173.454545 0 
L 170.181818 0 
L 166.909091 0 
L 163.636364 0 
L 160.363636 0 
L 157.090909 0 
L 153.818182 0 
L 150.545455 0 
L 147.272727 0 
L 144 0 
L 140.727273 0 
L 137.454545 0 
L 134.181818 0 
L 130.909091 0 
L 127.636364 0 
L 124.363636 0 
L 121.090909 0 
L 117.818182 0 
L 114.545455 0 
L 111.272727 0 
L 108 0 
L 104.727273 0 
L 101.454545 0 
L 98.181818 0 
L 94.909091 0 
L 91.636364 0 
L 88.363636 0 
L 85.090909 0 
L 81.818182 0 
L 78.545455 0 
L 75.272727 0 
L 72 0 
L 68.727273 0 
L 65.454545 0 
L 62.181818 0 
L 58.909091 0 
L 55.636364 0 
L 52.363636 0 
L 49.090909 0 
L 45.818182 0 
L 42.545455 0 
L 39.272727 0 
L 36 0 
L 32.727273 0 
L 29.454545 0 
L 26.181818 0 
L 22.909091 0 
L 19.636364 0 
L 16.363636 0 
L 13.090909 0 
L 9.818182 0 
L 6.545455 0 
L 3.272727 0 
L -0 0 
L -0 3.274579 
L -0 6.549157 
L -0 9.823736 
L -0 13.098315 
L -0 16.372893 
L -0 19.647472 
L -0 22.922051 
L -0 26.196629 
L -0 29.471208 
L -0 32.745787 
L -0 36.020365 
L -0 39.294944 
L -0 42.569523 
L -0 45.844101 
L -0 49.11868 
L -0 52.393259 
L -0 55.667837 
L -0 58.942416 
L -0 62.216995 
L -0 65.491573 
L -0 68.766152 
L -0 72.040731 
L -0 75.315309 
L -0 78.589888 
L -0 81.864467 
L -0 85.139045 
L -0 88.413624 
L -0 91.688203 
L -0 94.962781 
L -0 98.23736 
L -0 101.511938 
L -0 104.786517 
L -0 108.061096 
L -0 111.335674 
L -0 114.610253 
L -0 117.884832 
L -0 121.15941 
L -0 124.433989 
L -0 127.708568 
L -0 130.983146 
L -0 134.257725 
L -0 137.532304 
L -0 140.806882 
L -0 144.081461 
L -0 147.35604 
L -0 150.630618 
L -0 153.905197 
L -0 157.179776 
L -0 160.454354 
L -0 163.728933 
L -0 167.003512 
L -0 170.27809 
L -0 173.552669 
L -0 176.827248 
L -0 180.101826 
L -0 183.376405 
L -0 186.650984 
L -0 189.925562 
L -0 193.200141 
L -0 196.47472 
L -0 199.749298 
L -0 203.023877 
L -0 206.298456 
L -0 209.573034 
L -0 212.847613 
L -0 216.122192 
L -0 219.39677 
L -0 222.671349 
L -0 225.945928 
L -0 229.220506 
L -0 232.495085 
L -0 235.769664 
L -0 239.044242 
L -0 242.318821 
L -0 245.5934 
L -0 248.867978 
L -0 252.142557 
L -0 255.417136 
L -0 258.691714 
L -0 261.966293 
L -0 265.240872 
L -0 268.51545 
L -0 271.790029 
L -0 275.064608 
L -0 278.339186 
L -0 281.613765 
L -0 284.888344 
L -0 288.162922 
L -0 291.437501 
L -0 294.712079 
L -0 297.986658 
L -0 301.261237 
L -0 304.535815 
L -0 307.810394 
L -0 311.084973 
L -0 314.359551 
L -0 317.63413 
L -0 320.908709 
L -0 324.183287 
L -0 327.457866 
L -0 330.732445 
L -0 334.007023 
L -0 337.281602 
L -0 340.556181 
L -0 343.830759 
L -0 347.105338 
L -0 350.379917 
L -0 353.654495 
L -0 356.929074 
L -0 360.203653 
L -0 363.478231 
L -0 366.75281 
L -0 370.027389 
L -0 373.301967 
L -0 376.576546 
L -0 379.851125 
L -0 383.125703 
L -0 386.400282 
L -0 389.674861 
L -0 392.949439 
L -0 396.224018 
L -0 399.498597 
L -0 402.773175 
L -0 406.047754 
L -0 409.322333 
L -0 412.596911 
L -0 415.87149 
L -0 419.146069 
L -0 422.420647 
L -0 425.695226 
L -0 428.969805 
L -0 432.244383 
L -0 435.518962 
L -0 438.793541 
L -0 442.068119 
L -0 445.342698 
L -0 448.617277 
L -0 451.891855 
L -0 455.166434 
L -0 458.441013 
L -0 461.715591 
L -0 464.99017 
L -0 468.264749 
L -0 471.539327 
L -0 474.813906 
L -0 478.088484 
L -0 481.363063 
L -0 484.637642 
L -0 487.91222 
L -0 491.186799 
L -0 494.461378 
L -0 497.735956 
L -0 501.010535 
L -0 504.285114 
L -0 507.559692 
L -0 510.834271 
L -0 514.10885 
L -0 517.383428 
L -0 520.658007 
L -0 523.932586 
L -0 527.207164 
L -0 530.481743 
L -0 533.756322 
L -0 537.0309 
L -0 540.305479 
L -0 543.580058 
L -0 546.854636 
L -0 550.129215 
L -0 553.403794 
L -0 556.678372 
L -0 559.952951 
L -0 563.22753 
L -0 566.502108 
L -0 569.776687 
L -0 573.051266 
L -0 576.325844 
L -0 579.600423 
L -0 582.875002 
L -0 586.14958 
L -0 589.424159 
L -0 592.698738 
L -0 595.973316 
L -0 599.247895 
L -0 602.522474 
L -0 605.797052 
L -0 609.071631 
L -0 612.34621 
L -0 615.620788 
L -0 618.895367 
L -0 622.169946 
L -0 625.444524 
L -0 628.719103 
L -0 631.993682 
L -0 635.26826 
L -0 638.542839 
L -0 641.817418 
L -0 645.091996 
L -0 648.366575 
L -0 651.641154 
L -0 654.915732 
L -0 658.190311 
L -0 661.46489 
L -0 664.739468 
L -0 668.014047 
L -0 671.288625 
L -0 674.563204 
L -0 677.837783 
L -0 681.112361 
L -0 684.38694 
L -0 687.661519 
L -0 690.936097 
L -0 694.210676 
L -0 697.485255 
L -0 700.759833 
L -0 704.034412 
L -0 707.308991 
L -0 710.583569 
L -0 713.858148 
L -0 717.132727 
L -0 720.407305 
L -0 723.681884 
L -0 726.956463 
L -0 730.231041 
L -0 733.50562 
L -0 736.780199 
L -0 740.054777 
L -0 743.329356 
L -0 746.603935 
L -0 749.878513 
L -0 753.153092 
L -0 756.427671 
L -0 759.702249 
L -0 762.976828 
L -0 766.251407 
L -0 769.525985 
L -0 772.800564 
L -0 776.075143 
L -0 779.349721 
L -0 782.6243 
L -0 785.898879 
L -0 789.173457 
L -0 792.448036 
L -0 795.722615 
L -0 798.997193 
L -0 802.271772 
L -0 805.546351 
L -0 808.820929 
L -0 812.095508 
L -0 815.370087 
z
" clip-path="url(#p1f6790f831)" style="fill: #f5f9fe; fill-opacity: 0.9"/>
    <path clip-path="url(#p1f6790f831)" style="fill: #eff6fc; fill-opacity: 0.9"/>
    <path clip-path="url(#p1f6790f831)" style="fill: #eaf3fb; fill-opacity: 0.9"/>
    <path clip-path="url(#p1f6790f831)" style="fill: #e5eff9; fill-opacity: 0.9"/>
    <path clip-path="url(#p1f6790f831)" style="fill: #dfecf7; fill-opacity: 0.9"/>
    <path clip-path="url(#p1f6790f831)" style="fill: #dae8f6; fill-opacity: 0.9"/>
    <path clip-path="url(#p1f6790f831)" style="fill: #d6e5f4; fill-opacity: 0.9"/>
    <path clip-path="url(#p1f6790f831)" style="fill: #d0e2f2; fill-opacity: 0.9"/>
    <path clip-path="url(#p1f6790f831)" style="fill: #cbdef1; fill-opacity: 0.9"/>
    <path clip-path="url(#p1f6790f831)" style="fill: #c6dbef; fill-opacity: 0.9"/>
    <path clip-path="url(#p1f6790f831)" style="fill: #bed8ec; fill-opacity: 0.9"/>
    <path clip-path="url(#p1f6790f831)" style="fill: #b5d4e9; fill-opacity: 0.9"/>
    <path clip-path="url(#p1f6790f831)" style="fill: #add0e6; fill-opacity: 0.9"/>
    <path clip-path="url(#p1f6790f831)" style="fill: #a5cde3; fill-opacity: 0.9"/>
    <path clip-path="url(#p1f6790f831)" style="fill: #9cc9e1; fill-opacity: 0.9"/>
    <path clip-path="url(#p1f6790f831)" style="fill: #91c3de; fill-opacity: 0.9"/>
    <path clip-path="url(#p1f6790f831)" style="fill: #85bcdc; fill-opacity: 0.9"/>
    <path clip-path="url(#p1f6790f831)" style="fill: #7cb7da; fill-opacity: 0.9"/>
    <path clip-path="url(#p1f6790f831)" style="fill: #71b1d7; fill-opacity: 0.9"/>
    <path clip-path="url(#p1f6790f831)" style="fill: #66abd4; fill-opacity: 0.9"/>
    <path clip-path="url(#p1f6790f831)" style="fill: #5da5d1; fill-opacity: 0.9"/>
    <path clip-path="url(#p1f6790f831)" style="fill: #56a0ce; fill-opacity: 0.9"/>
    <path clip-path="url(#p1f6790f831)" style="fill: #4d99ca; fill-opacity: 0.9"/>
    <path clip-path="url(#p1f6790f831)" style="fill: #4493c7; fill-opacity: 0.9"/>
    <path clip-path="url(#p1f6790f831)" style="fill: #3c8cc3; fill-opacity: 0.9"/>
    <path clip-path="url(#p1f6790f831)" style="fill: #3686c0; fill-opacity: 0.9"/>
    <path clip-path="url(#p1f6790f831)" style="fill: #2f7fbc; fill-opacity: 0.9"/>
    <path clip-path="url(#p1f6790f831)" style="fill: #2777b8; fill-opacity: 0.9"/>
    <path clip-path="url(#p1f6790f831)" style="fill: #2070b4; fill-opacity: 0.9"/>
    <path clip-path="url(#p1f6790f831)" style="fill: #1c6ab0; fill-opacity: 0.9"/>
    <path clip-path="url(#p1f6790f831)" style="fill: #1663aa; fill-opacity: 0.9"/>
    <path clip-path="url(#p1f6790f831)" style="fill: #115ca5; fill-opacity: 0.9"/>
    <path clip-path="url(#p1f6790f831)" style="fill: #0c56a0; fill-opacity: 0.9"/>
    <path clip-path="url(#p1f6790f831)" style="fill: #084f99; fill-opacity: 0.9"/>
    <path clip-path="url(#p1f6790f831)" style="fill: #08488e; fill-opacity: 0.9"/>
    <path clip-path="url(#p1f6790f831)" style="fill: #084184; fill-opacity: 0.9"/>
    <path clip-path="url(#p1f6790f831)" style="fill: #083a7a; fill-opacity: 0.9"/>
    <path clip-path="url(#p1f6790f831)" style="fill: #083370; fill-opacity: 0.9"/>
    <path clip-path="url(#p1f6790f831)" style="fill: #08306b; fill-opacity: 0.9"/>
   </g>
   <g id="QuadContourSet_2">
    <path clip-path="url(#p1f6790f831)" style="fill: none"/>
    <path clip-path="url(#p1f6790f831)" style="fill: none"/>
    <path clip-path="url(#p1f6790f831)" style="fill: none"/>
    <path clip-path="url(#p1f6790f831)" style="fill: none"/>
    <path clip-path="url(#p1f6790f831)" style="fill: none"/>
    <path clip-path="url(#p1f6790f831)" style="fill: none"/>
    <path clip-path="url(#p1f6790f831)" style="fill: none"/>
    <path clip-path="url(#p1f6790f831)" style="fill: none"/>
    <path clip-path="url(#p1f6790f831)" style="fill: none"/>
    <path clip-path="url(#p1f6790f831)" style="fill: none"/>
    <path clip-path="url(#p1f6790f831)" style="fill: none"/>
    <path clip-path="url(#p1f6790f831)" style="fill: none"/>
    <path clip-path="url(#p1f6790f831)" style="fill: none"/>
    <path clip-path="url(#p1f6790f831)" style="fill: none"/>
    <path clip-path="url(#p1f6790f831)" style="fill: none"/>
    <path clip-path="url(#p1f6790f831)" style="fill: none"/>
    <path clip-path="url(#p1f6790f831)" style="fill: none"/>
    <path clip-path="url(#p1f6790f831)" style="fill: none"/>
    <path clip-path="url(#p1f6790f831)" style="fill: none"/>
    <path clip-path="url(#p1f6790f831)" style="fill: none"/>
    <path clip-path="url(#p1f6790f831)" style="fill: none"/>
    <path clip-path="url(#p1f6790f831)" style="fill: none"/>
    <path clip-path="url(#p1f6790f831)" style="fill: none"/>
    <path clip-path="url(#p1f6790f831)" style="fill: none"/>
    <path clip-path="url(#p1f6790f831)" style="fill: none"/>
    <path clip-path="url(#p1f6790f831)" style="fill: none"/>
    <path clip-path="url(#p1f6790f831)" style="fill: none"/>
    <path clip-path="url(#p1f6790f831)" style="fill: none"/>
    <path clip-path="url(#p1f6790f831)" style="fill: none"/>
    <path clip-path="url(#p1f6790f831)" style="fill: none"/>
    <path clip-path="url(#p1f6790f831)" style="fill: none"/>
    <path clip-path="url(#p1f6790f831)" style="fill: none"/>
    <path clip-path="url(#p1f6790f831)" style="fill: none"/>
    <path clip-path="url(#p1f6790f831)" style="fill: none"/>
    <path clip-path="url(#p1f6790f831)" style="fill: none"/>
    <path clip-path="url(#p1f6790f831)" style="fill: none"/>
    <path clip-path="url(#p1f6790f831)" style="fill: none"/>
    <path clip-path="url(#p1f6790f831)" style="fill: none"/>
    <path clip-path="url(#p1f6790f831)" style="fill: none"/>
   </g>
  </g>
 </g>
 <defs>
  <clipPath id="p1f6790f831">
   <rect x="0" y="0" width="576" height="815.370087"/>
  </clipPath>
 </defs>
</svg>
