<?xml version="1.0" encoding="utf-8" standalone="no"?>
<!DOCTYPE svg PUBLIC "-//W3C//DTD SVG 1.1//EN"
  "http://www.w3.org/Graphics/SVG/1.1/DTD/svg11.dtd">
<svg xmlns:xlink="http://www.w3.org/1999/xlink" width="576pt" height="818.525063pt" viewBox="0 0 576 818.525063" xmlns="http://www.w3.org/2000/svg" version="1.1">
 <metadata>
  <rdf:RDF xmlns:dc="http://purl.org/dc/elements/1.1/" xmlns:cc="http://creativecommons.org/ns#" xmlns:rdf="http://www.w3.org/1999/02/22-rdf-syntax-ns#">
   <cc:Work>
    <dc:type rdf:resource="http://purl.org/dc/dcmitype/StillImage"/>
    <dc:date>2025-07-25T22:44:05.746013</dc:date>
    <dc:format>image/svg+xml</dc:format>
    <dc:creator>
     <cc:Agent>
      <dc:title>Matplotlib v3.10.3, https://matplotlib.org/</dc:title>
     </cc:Agent>
    </dc:creator>
   </cc:Work>
  </rdf:RDF>
 </metadata>
 <defs>
  <style type="text/css">*{stroke-linejoin: round; stroke-linecap: butt}</style>
 </defs>
 <g id="figure_1">
  <g id="patch_1">
   <path d="M 0 818.525063 
L 576 818.525063 
L 576 0 
L 0 0 
L 0 818.525063 
z
" style="fill: none; opacity: 0"/>
  </g>
  <g id="axes_1">
   <g id="QuadContourSet_1">
    <path d="M 576 157.787964 
L 576 157.51693 
L 572.97995 154.500715 
L 572.97995 151.213465 
L 572.97995 147.926216 
L 573.384972 144.638967 
L 573.384972 141.351718 
L 574.735633 138.064468 
L 573.538244 134.777219 
L 573.23267 131.48997 
L 572.914429 128.202721 
L 572.708571 126.414906 
L 572.123191 124.915471 
L 571.041506 121.628222 
L 569.417143 120.080093 
L 568.000213 118.340973 
L 567.657523 115.053724 
L 566.125714 114.378377 
L 565.449546 115.053724 
L 562.834286 117.665663 
L 559.814128 115.053724 
L 559.814128 111.766474 
L 560.233999 108.479225 
L 560.233999 105.191976 
L 560.233999 101.904727 
L 562.279156 98.617477 
L 560.711623 95.330228 
L 560.338874 92.042979 
L 560.256451 88.75573 
L 559.818644 85.46848 
L 559.542857 83.599698 
L 558.861239 82.181231 
L 558.260052 78.893982 
L 557.883982 75.606733 
L 556.251429 74.916668 
L 553.648497 72.319483 
L 553.648497 69.032234 
L 556.251429 66.131854 
L 556.874831 65.744985 
L 556.251429 63.813698 
L 555.390793 62.457736 
L 554.447726 59.170486 
L 554.031874 55.883237 
L 553.797715 52.595988 
L 553.695925 49.308739 
L 553.478738 46.021489 
L 552.96 43.051005 
L 552.729177 42.73424 
L 551.929625 39.446991 
L 551.461295 36.159742 
L 551.153684 32.872492 
L 549.668571 32.184415 
L 547.061757 29.585243 
L 547.061757 26.297994 
L 549.668571 23.157932 
L 549.898542 23.010745 
L 549.668571 22.312224 
L 548.35819 19.723495 
L 547.692977 16.436246 
L 547.362205 13.148997 
L 547.208544 9.861748 
L 547.194105 6.574498 
L 546.822095 3.287249 
L 546.377143 1.178147 
L 545.676194 0 
L 544.789811 0 
L 546.377143 2.66797 
L 546.507791 3.287249 
L 546.914565 6.574498 
L 546.924064 9.861748 
L 547.025146 13.148997 
L 547.242739 16.436246 
L 547.680336 19.723495 
L 549.012756 23.010745 
L 546.827503 26.297994 
L 546.827503 29.585243 
L 549.668571 32.417982 
L 550.649564 32.872492 
L 550.852756 36.159742 
L 551.162112 39.446991 
L 551.690257 42.73424 
L 552.96 44.476748 
L 553.22976 46.021489 
L 553.446116 49.308739 
L 553.513353 52.595988 
L 553.668027 55.883237 
L 553.942718 59.170486 
L 554.565662 62.457736 
L 556.251429 65.113722 
L 556.455195 65.744985 
L 556.251429 65.871438 
L 553.414787 69.032234 
L 553.414787 72.319483 
L 556.251429 75.149862 
L 557.332293 75.606733 
L 557.581277 78.893982 
L 557.979304 82.181231 
L 559.542857 85.435028 
L 559.547794 85.46848 
L 560.015306 88.75573 
L 560.069876 92.042979 
L 560.316661 95.330228 
L 561.354478 98.617477 
L 560.000441 101.904727 
L 560.000441 105.191976 
L 560.000441 108.479225 
L 559.542857 111.766474 
L 559.542857 115.053724 
L 562.834286 117.900268 
L 565.684449 115.053724 
L 566.125714 114.612994 
L 567.125368 115.053724 
L 567.349007 118.340973 
L 569.417143 120.879375 
L 570.202865 121.628222 
L 571.183102 124.915471 
L 572.311708 128.202721 
L 572.708571 128.822915 
L 572.983996 131.48997 
L 573.250014 134.777219 
L 574.031426 138.064468 
L 573.149989 141.351718 
L 573.149989 144.638967 
L 572.708571 147.926216 
L 572.708571 151.213465 
L 572.708571 154.500715 
z
" clip-path="url(#p20f813d335)" style="fill: #f5f9fe; fill-opacity: 0.9"/>
    <path d="M 576 157.51693 
L 576 157.245896 
L 573.251329 154.500715 
L 573.251329 151.213465 
L 573.251329 147.926216 
L 573.619956 144.638967 
L 573.619956 141.351718 
L 575.43984 138.064468 
L 573.826475 134.777219 
L 573.481343 131.48997 
L 573.191698 128.202721 
L 572.826782 124.915471 
L 572.708571 124.006897 
L 571.880147 121.628222 
L 569.417143 119.280811 
L 568.65142 118.340973 
L 568.189678 115.053724 
L 566.125714 114.143759 
L 565.214643 115.053724 
L 562.834286 117.431058 
L 560.085399 115.053724 
L 560.085399 111.766474 
L 560.467557 108.479225 
L 560.467557 105.191976 
L 560.467557 101.904727 
L 562.834286 98.742205 
L 562.989729 98.617477 
L 562.834286 98.342288 
L 561.106585 95.330228 
L 560.607872 92.042979 
L 560.497596 88.75573 
L 560.089495 85.46848 
L 559.615009 82.181231 
L 559.542857 81.512807 
L 558.938827 78.893982 
L 558.435672 75.606733 
L 556.251429 74.683475 
L 553.882207 72.319483 
L 553.882207 69.032234 
L 556.251429 66.392271 
L 557.294468 65.744985 
L 556.251429 62.513675 
L 556.215924 62.457736 
L 554.952733 59.170486 
L 554.395721 55.883237 
L 554.082076 52.595988 
L 553.945734 49.308739 
L 553.727717 46.021489 
L 553.194586 42.73424 
L 552.96 40.451922 
L 552.697138 39.446991 
L 552.069833 36.159742 
L 551.657805 32.872492 
L 549.668571 31.950848 
L 547.296011 29.585243 
L 547.296011 26.297994 
L 549.668571 23.440105 
L 550.339418 23.010745 
L 549.668571 20.973087 
L 549.036044 19.723495 
L 548.143215 16.436246 
L 547.699263 13.148997 
L 547.493025 9.861748 
L 547.473644 6.574498 
L 547.1364 3.287249 
L 546.458438 -0 
L 546.377143 0 
L 545.676194 0 
L 546.377143 1.178147 
L 546.822095 3.287249 
L 547.194105 6.574498 
L 547.208544 9.861748 
L 547.362205 13.148997 
L 547.692977 16.436246 
L 548.35819 19.723495 
L 549.668571 22.312224 
L 549.898542 23.010745 
L 549.668571 23.157932 
L 547.061757 26.297994 
L 547.061757 29.585243 
L 549.668571 32.184415 
L 551.153684 32.872492 
L 551.461295 36.159742 
L 551.929625 39.446991 
L 552.729177 42.73424 
L 552.96 43.051005 
L 553.478738 46.021489 
L 553.695925 49.308739 
L 553.797715 52.595988 
L 554.031874 55.883237 
L 554.447726 59.170486 
L 555.390793 62.457736 
L 556.251429 63.813698 
L 556.874831 65.744985 
L 556.251429 66.131854 
L 553.648497 69.032234 
L 553.648497 72.319483 
L 556.251429 74.916668 
L 557.883982 75.606733 
L 558.260052 78.893982 
L 558.861239 82.181231 
L 559.542857 83.599698 
L 559.818644 85.46848 
L 560.256451 88.75573 
L 560.338874 92.042979 
L 560.711623 95.330228 
L 562.279156 98.617477 
L 560.233999 101.904727 
L 560.233999 105.191976 
L 560.233999 108.479225 
L 559.814128 111.766474 
L 559.814128 115.053724 
L 562.834286 117.665663 
L 565.449546 115.053724 
L 566.125714 114.378377 
L 567.657523 115.053724 
L 568.000213 118.340973 
L 569.417143 120.080093 
L 571.041506 121.628222 
L 572.123191 124.915471 
L 572.708571 126.414906 
L 572.914429 128.202721 
L 573.23267 131.48997 
L 573.538244 134.777219 
L 574.735633 138.064468 
L 573.384972 141.351718 
L 573.384972 144.638967 
L 572.97995 147.926216 
L 572.97995 151.213465 
L 572.97995 154.500715 
z
" clip-path="url(#p20f813d335)" style="fill: #eff6fc; fill-opacity: 0.9"/>
    <path d="M 576 157.245896 
L 576 156.974862 
L 573.522707 154.500715 
L 573.522707 151.213465 
L 573.522707 147.926216 
L 573.85494 144.638967 
L 573.85494 141.351718 
L 576 138.136515 
L 576 138.064468 
L 576 137.964785 
L 574.114706 134.777219 
L 573.730017 131.48997 
L 573.468967 128.202721 
L 573.140079 124.915471 
L 572.712958 121.628222 
L 572.708571 121.598889 
L 569.417143 118.481529 
L 569.302627 118.340973 
L 568.721833 115.053724 
L 566.125714 113.909142 
L 564.97974 115.053724 
L 562.834286 117.196454 
L 560.35667 115.053724 
L 560.35667 111.766474 
L 560.701115 108.479225 
L 560.701115 105.191976 
L 560.701115 101.904727 
L 562.834286 99.054295 
L 563.378674 98.617477 
L 562.834286 97.653715 
L 561.501546 95.330228 
L 560.876871 92.042979 
L 560.738741 88.75573 
L 560.360346 85.46848 
L 559.932674 82.181231 
L 559.582063 78.893982 
L 559.542857 78.569921 
L 558.987361 75.606733 
L 556.251429 74.450281 
L 554.115917 72.319483 
L 554.115917 69.032234 
L 556.251429 66.652688 
L 557.714104 65.744985 
L 556.741142 62.457736 
L 556.251429 61.213651 
L 555.457741 59.170486 
L 554.759568 55.883237 
L 554.366438 52.595988 
L 554.195543 49.308739 
L 553.976695 46.021489 
L 553.496179 42.73424 
L 553.181001 39.446991 
L 552.96 37.517688 
L 552.678372 36.159742 
L 552.161925 32.872492 
L 549.668571 31.71728 
L 547.530265 29.585243 
L 547.530265 26.297994 
L 549.668571 23.722278 
L 550.780294 23.010745 
L 549.704468 19.723495 
L 549.668571 19.63395 
L 548.593454 16.436246 
L 548.036321 13.148997 
L 547.777505 9.861748 
L 547.753184 6.574498 
L 547.450704 3.287249 
L 546.84703 0 
L 546.458438 -0 
L 547.1364 3.287249 
L 547.473644 6.574498 
L 547.493025 9.861748 
L 547.699263 13.148997 
L 548.143215 16.436246 
L 549.036044 19.723495 
L 549.668571 20.973087 
L 550.339418 23.010745 
L 549.668571 23.440105 
L 547.296011 26.297994 
L 547.296011 29.585243 
L 549.668571 31.950848 
L 551.657805 32.872492 
L 552.069833 36.159742 
L 552.697138 39.446991 
L 552.96 40.451922 
L 553.194586 42.73424 
L 553.727717 46.021489 
L 553.945734 49.308739 
L 554.082076 52.595988 
L 554.395721 55.883237 
L 554.952733 59.170486 
L 556.215924 62.457736 
L 556.251429 62.513675 
L 557.294468 65.744985 
L 556.251429 66.392271 
L 553.882207 69.032234 
L 553.882207 72.319483 
L 556.251429 74.683475 
L 558.435672 75.606733 
L 558.938827 78.893982 
L 559.542857 81.512807 
L 559.615009 82.181231 
L 560.089495 85.46848 
L 560.497596 88.75573 
L 560.607872 92.042979 
L 561.106585 95.330228 
L 562.834286 98.342288 
L 562.989729 98.617477 
L 562.834286 98.742205 
L 560.467557 101.904727 
L 560.467557 105.191976 
L 560.467557 108.479225 
L 560.085399 111.766474 
L 560.085399 115.053724 
L 562.834286 117.431058 
L 565.214643 115.053724 
L 566.125714 114.143759 
L 568.189678 115.053724 
L 568.65142 118.340973 
L 569.417143 119.280811 
L 571.880147 121.628222 
L 572.708571 124.006897 
L 572.826782 124.915471 
L 573.191698 128.202721 
L 573.481343 131.48997 
L 573.826475 134.777219 
L 575.43984 138.064468 
L 573.619956 141.351718 
L 573.619956 144.638967 
L 573.251329 147.926216 
L 573.251329 151.213465 
L 573.251329 154.500715 
z
M 566.125714 108.577444 
L 566.366223 108.479225 
L 566.125714 108.285548 
L 566.027379 108.479225 
z
" clip-path="url(#p20f813d335)" style="fill: #eaf3fb; fill-opacity: 0.9"/>
    <path d="M 576 156.974862 
L 576 156.703828 
L 573.794086 154.500715 
L 573.794086 151.213465 
L 573.794086 147.926216 
L 574.089923 144.638967 
L 574.089923 141.351718 
L 576 138.488729 
L 576 138.136515 
L 573.85494 141.351718 
L 573.85494 144.638967 
L 573.522707 147.926216 
L 573.522707 151.213465 
L 573.522707 154.500715 
z
M 576 137.964785 
L 576 137.477458 
L 574.402937 134.777219 
L 573.97869 131.48997 
L 573.746237 128.202721 
L 573.453376 124.915471 
L 573.073042 121.628222 
L 572.708571 119.19088 
L 571.721644 118.340973 
L 569.417143 115.945039 
L 569.253988 115.053724 
L 566.125714 113.674524 
L 564.744837 115.053724 
L 562.834286 116.961849 
L 560.627941 115.053724 
L 560.627941 111.766474 
L 560.934674 108.479225 
L 560.934674 105.191976 
L 560.934674 101.904727 
L 562.834286 99.366385 
L 563.76762 98.617477 
L 562.834286 96.965142 
L 561.896508 95.330228 
L 561.145869 92.042979 
L 560.979886 88.75573 
L 560.631196 85.46848 
L 560.250339 82.181231 
L 559.938104 78.893982 
L 559.542857 75.627036 
L 559.539051 75.606733 
L 556.251429 74.217087 
L 554.349626 72.319483 
L 554.349626 69.032234 
L 556.251429 66.913105 
L 558.133741 65.744985 
L 557.252874 62.457736 
L 556.251429 59.913627 
L 555.962748 59.170486 
L 555.123415 55.883237 
L 554.6508 52.595988 
L 554.445352 49.308739 
L 554.225674 46.021489 
L 553.797773 42.73424 
L 553.517116 39.446991 
L 553.163903 36.159742 
L 552.96 34.583455 
L 552.666046 32.872492 
L 549.668571 31.483713 
L 547.764519 29.585243 
L 547.764519 26.297994 
L 549.668571 24.004451 
L 551.22117 23.010745 
L 550.2413 19.723495 
L 549.668571 18.294814 
L 549.043692 16.436246 
L 548.373379 13.148997 
L 548.061985 9.861748 
L 548.032724 6.574498 
L 547.765008 3.287249 
L 547.235623 0 
L 546.84703 0 
L 547.450704 3.287249 
L 547.753184 6.574498 
L 547.777505 9.861748 
L 548.036321 13.148997 
L 548.593454 16.436246 
L 549.668571 19.63395 
L 549.704468 19.723495 
L 550.780294 23.010745 
L 549.668571 23.722278 
L 547.530265 26.297994 
L 547.530265 29.585243 
L 549.668571 31.71728 
L 552.161925 32.872492 
L 552.678372 36.159742 
L 552.96 37.517688 
L 553.181001 39.446991 
L 553.496179 42.73424 
L 553.976695 46.021489 
L 554.195543 49.308739 
L 554.366438 52.595988 
L 554.759568 55.883237 
L 555.457741 59.170486 
L 556.251429 61.213651 
L 556.741142 62.457736 
L 557.714104 65.744985 
L 556.251429 66.652688 
L 554.115917 69.032234 
L 554.115917 72.319483 
L 556.251429 74.450281 
L 558.987361 75.606733 
L 559.542857 78.569921 
L 559.582063 78.893982 
L 559.932674 82.181231 
L 560.360346 85.46848 
L 560.738741 88.75573 
L 560.876871 92.042979 
L 561.501546 95.330228 
L 562.834286 97.653715 
L 563.378674 98.617477 
L 562.834286 99.054295 
L 560.701115 101.904727 
L 560.701115 105.191976 
L 560.701115 108.479225 
L 560.35667 111.766474 
L 560.35667 115.053724 
L 562.834286 117.196454 
L 564.97974 115.053724 
L 566.125714 113.909142 
L 568.721833 115.053724 
L 569.302627 118.340973 
L 569.417143 118.481529 
L 572.708571 121.598889 
L 572.712958 121.628222 
L 573.140079 124.915471 
L 573.468967 128.202721 
L 573.730017 131.48997 
L 574.114706 134.777219 
z
M 566.125714 108.926636 
L 567.221291 108.479225 
L 566.125714 107.596975 
L 565.677771 108.479225 
z
M 566.027379 108.479225 
L 566.125714 108.285548 
L 566.366223 108.479225 
L 566.125714 108.577444 
z
" clip-path="url(#p20f813d335)" style="fill: #e5eff9; fill-opacity: 0.9"/>
    <path d="M 576 156.703828 
L 576 156.432794 
L 574.065464 154.500715 
L 574.065464 151.213465 
L 574.065464 147.926216 
L 574.324907 144.638967 
L 574.324907 141.351718 
L 576 138.840943 
L 576 138.488729 
L 574.089923 141.351718 
L 574.089923 144.638967 
L 573.794086 147.926216 
L 573.794086 151.213465 
L 573.794086 154.500715 
z
M 576 137.477458 
L 576 136.99013 
L 574.691168 134.777219 
L 574.227363 131.48997 
L 574.023506 128.202721 
L 573.766672 124.915471 
L 573.433127 121.628222 
L 572.982468 118.340973 
L 572.708571 116.782871 
L 571.034088 115.053724 
L 569.417143 113.037864 
L 566.125714 113.439907 
L 564.509934 115.053724 
L 562.834286 116.727244 
L 560.899212 115.053724 
L 560.899212 111.766474 
L 561.168232 108.479225 
L 561.168232 105.191976 
L 561.168232 101.904727 
L 562.834286 99.678475 
L 564.156565 98.617477 
L 562.834286 96.276569 
L 562.29147 95.330228 
L 561.414867 92.042979 
L 561.22103 88.75573 
L 560.902047 85.46848 
L 560.568004 82.181231 
L 560.294144 78.893982 
L 559.945025 75.606733 
L 559.542857 72.684151 
L 556.251429 73.983893 
L 554.583336 72.319483 
L 554.583336 69.032234 
L 556.251429 67.173522 
L 558.553377 65.744985 
L 557.764606 62.457736 
L 556.532272 59.170486 
L 556.251429 58.613603 
L 555.487262 55.883237 
L 554.935161 52.595988 
L 554.695161 49.308739 
L 554.474652 46.021489 
L 554.099366 42.73424 
L 553.853232 39.446991 
L 553.543466 36.159742 
L 553.141729 32.872492 
L 552.96 31.649221 
L 549.668571 31.250146 
L 547.998773 29.585243 
L 547.998773 26.297994 
L 549.668571 24.286624 
L 551.662046 23.010745 
L 550.778132 19.723495 
L 549.668571 16.955677 
L 549.493931 16.436246 
L 548.710437 13.148997 
L 548.346466 9.861748 
L 548.312263 6.574498 
L 548.079313 3.287249 
L 547.624215 0 
L 547.235623 0 
L 547.765008 3.287249 
L 548.032724 6.574498 
L 548.061985 9.861748 
L 548.373379 13.148997 
L 549.043692 16.436246 
L 549.668571 18.294814 
L 550.2413 19.723495 
L 551.22117 23.010745 
L 549.668571 24.004451 
L 547.764519 26.297994 
L 547.764519 29.585243 
L 549.668571 31.483713 
L 552.666046 32.872492 
L 552.96 34.583455 
L 553.163903 36.159742 
L 553.517116 39.446991 
L 553.797773 42.73424 
L 554.225674 46.021489 
L 554.445352 49.308739 
L 554.6508 52.595988 
L 555.123415 55.883237 
L 555.962748 59.170486 
L 556.251429 59.913627 
L 557.252874 62.457736 
L 558.133741 65.744985 
L 556.251429 66.913105 
L 554.349626 69.032234 
L 554.349626 72.319483 
L 556.251429 74.217087 
L 559.539051 75.606733 
L 559.542857 75.627036 
L 559.938104 78.893982 
L 560.250339 82.181231 
L 560.631196 85.46848 
L 560.979886 88.75573 
L 561.145869 92.042979 
L 561.896508 95.330228 
L 562.834286 96.965142 
L 563.76762 98.617477 
L 562.834286 99.366385 
L 560.934674 101.904727 
L 560.934674 105.191976 
L 560.934674 108.479225 
L 560.627941 111.766474 
L 560.627941 115.053724 
L 562.834286 116.961849 
L 564.744837 115.053724 
L 566.125714 113.674524 
L 569.253988 115.053724 
L 569.417143 115.945039 
L 571.721644 118.340973 
L 572.708571 119.19088 
L 573.073042 121.628222 
L 573.453376 124.915471 
L 573.746237 128.202721 
L 573.97869 131.48997 
L 574.402937 134.777219 
z
M 566.125714 109.275828 
L 568.076359 108.479225 
L 566.125714 106.908402 
L 565.328164 108.479225 
z
M 565.677771 108.479225 
L 566.125714 107.596975 
L 567.221291 108.479225 
L 566.125714 108.926636 
z
" clip-path="url(#p20f813d335)" style="fill: #dfecf7; fill-opacity: 0.9"/>
    <path d="M 576 156.432794 
L 576 156.16176 
L 574.336843 154.500715 
L 574.336843 151.213465 
L 574.336843 147.926216 
L 574.559891 144.638967 
L 574.559891 141.351718 
L 576 139.193157 
L 576 138.840943 
L 574.324907 141.351718 
L 574.324907 144.638967 
L 574.065464 147.926216 
L 574.065464 151.213465 
L 574.065464 154.500715 
z
M 576 136.99013 
L 576 136.502803 
L 574.979399 134.777219 
L 574.476037 131.48997 
L 574.300775 128.202721 
L 574.079969 124.915471 
L 573.793211 121.628222 
L 573.405768 118.340973 
L 572.853319 115.053724 
L 572.708571 114.374862 
L 570.542371 111.766474 
L 569.417143 110.130658 
L 569.14053 111.766474 
L 566.125714 113.205289 
L 564.275031 115.053724 
L 562.834286 116.492639 
L 561.170483 115.053724 
L 561.170483 111.766474 
L 561.40179 108.479225 
L 561.40179 105.191976 
L 561.40179 101.904727 
L 562.834286 99.990565 
L 564.545511 98.617477 
L 562.834286 95.587996 
L 562.686431 95.330228 
L 561.683866 92.042979 
L 561.462175 88.75573 
L 561.172897 85.46848 
L 560.885668 82.181231 
L 560.650184 78.893982 
L 560.349987 75.606733 
L 559.954152 72.319483 
L 559.542857 69.741265 
L 559.131713 72.319483 
L 556.251429 73.750699 
L 554.817046 72.319483 
L 554.817046 69.032234 
L 556.251429 67.433938 
L 558.973013 65.744985 
L 558.276339 62.457736 
L 557.18789 59.170486 
L 556.251429 57.31358 
L 555.851108 55.883237 
L 555.219523 52.595988 
L 554.94497 49.308739 
L 554.723631 46.021489 
L 554.400959 42.73424 
L 554.189347 39.446991 
L 553.923029 36.159742 
L 553.577639 32.872492 
L 553.111824 29.585243 
L 552.96 28.714988 
L 552.808057 29.585243 
L 549.668571 31.016578 
L 548.233028 29.585243 
L 548.233028 26.297994 
L 549.668571 24.568797 
L 552.102923 23.010745 
L 551.314964 19.723495 
L 550.088591 16.436246 
L 549.668571 15.61654 
L 549.047495 13.148997 
L 548.630946 9.861748 
L 548.591803 6.574498 
L 548.393617 3.287249 
L 548.012807 0 
L 547.624215 0 
L 548.079313 3.287249 
L 548.312263 6.574498 
L 548.346466 9.861748 
L 548.710437 13.148997 
L 549.493931 16.436246 
L 549.668571 16.955677 
L 550.778132 19.723495 
L 551.662046 23.010745 
L 549.668571 24.286624 
L 547.998773 26.297994 
L 547.998773 29.585243 
L 549.668571 31.250146 
L 552.96 31.649221 
L 553.141729 32.872492 
L 553.543466 36.159742 
L 553.853232 39.446991 
L 554.099366 42.73424 
L 554.474652 46.021489 
L 554.695161 49.308739 
L 554.935161 52.595988 
L 555.487262 55.883237 
L 556.251429 58.613603 
L 556.532272 59.170486 
L 557.764606 62.457736 
L 558.553377 65.744985 
L 556.251429 67.173522 
L 554.583336 69.032234 
L 554.583336 72.319483 
L 556.251429 73.983893 
L 559.542857 72.684151 
L 559.945025 75.606733 
L 560.294144 78.893982 
L 560.568004 82.181231 
L 560.902047 85.46848 
L 561.22103 88.75573 
L 561.414867 92.042979 
L 562.29147 95.330228 
L 562.834286 96.276569 
L 564.156565 98.617477 
L 562.834286 99.678475 
L 561.168232 101.904727 
L 561.168232 105.191976 
L 561.168232 108.479225 
L 560.899212 111.766474 
L 560.899212 115.053724 
L 562.834286 116.727244 
L 564.509934 115.053724 
L 566.125714 113.439907 
L 569.417143 113.037864 
L 571.034088 115.053724 
L 572.708571 116.782871 
L 572.982468 118.340973 
L 573.433127 121.628222 
L 573.766672 124.915471 
L 574.023506 128.202721 
L 574.227363 131.48997 
L 574.691168 134.777219 
z
M 566.125714 109.62502 
L 568.931427 108.479225 
L 566.125714 106.219829 
L 564.978556 108.479225 
z
M 565.328164 108.479225 
L 566.125714 106.908402 
L 568.076359 108.479225 
L 566.125714 109.275828 
z
" clip-path="url(#p20f813d335)" style="fill: #dae8f6; fill-opacity: 0.9"/>
    <path d="M 576 156.16176 
L 576 155.890726 
L 574.608221 154.500715 
L 574.608221 151.213465 
L 574.608221 147.926216 
L 574.794874 144.638967 
L 574.794874 141.351718 
L 576 139.545371 
L 576 139.193157 
L 574.559891 141.351718 
L 574.559891 144.638967 
L 574.336843 147.926216 
L 574.336843 151.213465 
L 574.336843 154.500715 
z
M 576 136.502803 
L 576 136.015476 
L 575.26763 134.777219 
L 574.72471 131.48997 
L 574.578045 128.202721 
L 574.393265 124.915471 
L 574.153296 121.628222 
L 573.829069 118.340973 
L 573.366758 115.053724 
L 572.708571 111.966853 
L 572.542162 111.766474 
L 570.173273 108.479225 
L 569.417143 107.223431 
L 566.125714 105.531256 
L 564.628948 108.479225 
L 566.125714 109.974212 
L 568.648925 111.766474 
L 566.125714 112.970672 
L 564.040128 115.053724 
L 562.834286 116.258035 
L 561.441754 115.053724 
L 561.441754 111.766474 
L 561.635348 108.479225 
L 561.635348 105.191976 
L 561.635348 101.904727 
L 562.834286 100.302655 
L 564.934456 98.617477 
L 563.261595 95.330228 
L 562.834286 94.803194 
L 561.952864 92.042979 
L 561.70332 88.75573 
L 561.443748 85.46848 
L 561.203333 82.181231 
L 561.006225 78.893982 
L 560.754949 75.606733 
L 560.423621 72.319483 
L 559.966738 69.032234 
L 559.542857 66.79838 
L 559.39265 65.744985 
L 558.788071 62.457736 
L 557.843509 59.170486 
L 556.251429 56.013556 
L 556.214955 55.883237 
L 555.503884 52.595988 
L 555.194779 49.308739 
L 554.972609 46.021489 
L 554.702552 42.73424 
L 554.525463 39.446991 
L 554.302591 36.159742 
L 554.013549 32.872492 
L 553.623727 29.585243 
L 553.06929 26.297994 
L 552.96 25.780754 
L 552.543799 23.010745 
L 551.851796 19.723495 
L 550.774767 16.436246 
L 549.668571 14.277404 
L 549.384554 13.148997 
L 548.915426 9.861748 
L 548.871342 6.574498 
L 548.707921 3.287249 
L 548.4014 0 
L 548.012807 0 
L 548.393617 3.287249 
L 548.591803 6.574498 
L 548.630946 9.861748 
L 549.047495 13.148997 
L 549.668571 15.61654 
L 550.088591 16.436246 
L 551.314964 19.723495 
L 552.102923 23.010745 
L 549.668571 24.568797 
L 548.233028 26.297994 
L 548.233028 29.585243 
L 549.668571 31.016578 
L 552.808057 29.585243 
L 552.96 28.714988 
L 553.111824 29.585243 
L 553.577639 32.872492 
L 553.923029 36.159742 
L 554.189347 39.446991 
L 554.400959 42.73424 
L 554.723631 46.021489 
L 554.94497 49.308739 
L 555.219523 52.595988 
L 555.851108 55.883237 
L 556.251429 57.31358 
L 557.18789 59.170486 
L 558.276339 62.457736 
L 558.973013 65.744985 
L 556.251429 67.433938 
L 554.817046 69.032234 
L 554.817046 72.319483 
L 556.251429 73.750699 
L 559.131713 72.319483 
L 559.542857 69.741265 
L 559.954152 72.319483 
L 560.349987 75.606733 
L 560.650184 78.893982 
L 560.885668 82.181231 
L 561.172897 85.46848 
L 561.462175 88.75573 
L 561.683866 92.042979 
L 562.686431 95.330228 
L 562.834286 95.587996 
L 564.545511 98.617477 
L 562.834286 99.990565 
L 561.40179 101.904727 
L 561.40179 105.191976 
L 561.40179 108.479225 
L 561.170483 111.766474 
L 561.170483 115.053724 
L 562.834286 116.492639 
L 564.275031 115.053724 
L 566.125714 113.205289 
L 569.14053 111.766474 
L 569.417143 110.130658 
L 570.542371 111.766474 
L 572.708571 114.374862 
L 572.853319 115.053724 
L 573.405768 118.340973 
L 573.793211 121.628222 
L 574.079969 124.915471 
L 574.300775 128.202721 
L 574.476037 131.48997 
L 574.979399 134.777219 
z
M 564.978556 108.479225 
L 566.125714 106.219829 
L 568.931427 108.479225 
L 566.125714 109.62502 
z
M 555.050756 72.319483 
L 555.050756 69.032234 
L 556.251429 67.694355 
L 559.119146 69.032234 
L 558.662417 72.319483 
L 556.251429 73.517506 
z
M 548.467282 29.585243 
L 548.467282 26.297994 
L 549.668571 24.85097 
L 552.850619 26.297994 
L 552.295751 29.585243 
L 549.668571 30.783011 
z
" clip-path="url(#p20f813d335)" style="fill: #d6e5f4; fill-opacity: 0.9"/>
    <path d="M 576 155.890726 
L 576 155.619692 
L 574.8796 154.500715 
L 574.8796 151.213465 
L 574.8796 147.926216 
L 575.029858 144.638967 
L 575.029858 141.351718 
L 576 139.897585 
L 576 139.545371 
L 574.794874 141.351718 
L 574.794874 144.638967 
L 574.608221 147.926216 
L 574.608221 151.213465 
L 574.608221 154.500715 
z
M 576 136.015476 
L 576 135.528149 
L 575.55586 134.777219 
L 574.973384 131.48997 
L 574.855314 128.202721 
L 574.706562 124.915471 
L 574.51338 121.628222 
L 574.252369 118.340973 
L 573.880197 115.053724 
L 573.306639 111.766474 
L 572.708571 109.558844 
L 571.923753 108.479225 
L 569.886004 105.191976 
L 569.417143 104.316205 
L 566.125714 104.033425 
L 565.765926 105.191976 
L 564.279341 108.479225 
L 566.125714 110.323404 
L 568.15732 111.766474 
L 566.125714 112.736054 
L 563.805225 115.053724 
L 562.834286 116.02343 
L 561.713025 115.053724 
L 561.713025 111.766474 
L 561.868906 108.479225 
L 561.868906 105.191976 
L 561.868906 101.904727 
L 562.834286 100.614745 
L 565.323402 98.617477 
L 563.94458 95.330228 
L 562.834286 93.960812 
L 562.221862 92.042979 
L 561.944465 88.75573 
L 561.714598 85.46848 
L 561.520998 82.181231 
L 561.362265 78.893982 
L 561.159911 75.606733 
L 560.89309 72.319483 
L 560.525159 69.032234 
L 559.985207 65.744985 
L 559.542857 63.855495 
L 559.299804 62.457736 
L 558.499127 59.170486 
L 557.072069 55.883237 
L 556.251429 54.713532 
L 555.788246 52.595988 
L 555.444589 49.308739 
L 555.221588 46.021489 
L 555.004145 42.73424 
L 554.861578 39.446991 
L 554.682154 36.159742 
L 554.449458 32.872492 
L 554.13563 29.585243 
L 553.689277 26.297994 
L 553.003987 23.010745 
L 552.96 22.846521 
L 552.388628 19.723495 
L 551.460944 16.436246 
L 549.818167 13.148997 
L 549.668571 12.862379 
L 549.199907 9.861748 
L 549.150882 6.574498 
L 549.022226 3.287249 
L 548.789992 0 
L 548.4014 0 
L 548.707921 3.287249 
L 548.871342 6.574498 
L 548.915426 9.861748 
L 549.384554 13.148997 
L 549.668571 14.277404 
L 550.774767 16.436246 
L 551.851796 19.723495 
L 552.543799 23.010745 
L 552.96 25.780754 
L 553.06929 26.297994 
L 553.623727 29.585243 
L 554.013549 32.872492 
L 554.302591 36.159742 
L 554.525463 39.446991 
L 554.702552 42.73424 
L 554.972609 46.021489 
L 555.194779 49.308739 
L 555.503884 52.595988 
L 556.214955 55.883237 
L 556.251429 56.013556 
L 557.843509 59.170486 
L 558.788071 62.457736 
L 559.39265 65.744985 
L 559.542857 66.79838 
L 559.966738 69.032234 
L 560.423621 72.319483 
L 560.754949 75.606733 
L 561.006225 78.893982 
L 561.203333 82.181231 
L 561.443748 85.46848 
L 561.70332 88.75573 
L 561.952864 92.042979 
L 562.834286 94.803194 
L 563.261595 95.330228 
L 564.934456 98.617477 
L 562.834286 100.302655 
L 561.635348 101.904727 
L 561.635348 105.191976 
L 561.635348 108.479225 
L 561.441754 111.766474 
L 561.441754 115.053724 
L 562.834286 116.258035 
L 564.040128 115.053724 
L 566.125714 112.970672 
L 568.648925 111.766474 
L 566.125714 109.974212 
L 564.628948 108.479225 
L 566.125714 105.531256 
L 569.417143 107.223431 
L 570.173273 108.479225 
L 572.542162 111.766474 
L 572.708571 111.966853 
L 573.366758 115.053724 
L 573.829069 118.340973 
L 574.153296 121.628222 
L 574.393265 124.915471 
L 574.578045 128.202721 
L 574.72471 131.48997 
L 575.26763 134.777219 
z
M 556.251429 73.517506 
L 558.662417 72.319483 
L 559.119146 69.032234 
L 556.251429 67.694355 
L 555.050756 69.032234 
L 555.050756 72.319483 
z
M 555.284465 72.319483 
L 555.284465 69.032234 
L 556.251429 67.954772 
L 558.560948 69.032234 
L 558.193121 72.319483 
L 556.251429 73.284312 
z
M 549.668571 30.783011 
L 552.295751 29.585243 
L 552.850619 26.297994 
L 549.668571 24.85097 
L 548.467282 26.297994 
L 548.467282 29.585243 
z
M 548.701536 29.585243 
L 548.701536 26.297994 
L 549.668571 25.133142 
L 552.230112 26.297994 
L 551.783445 29.585243 
L 549.668571 30.549444 
z
" clip-path="url(#p20f813d335)" style="fill: #d0e2f2; fill-opacity: 0.9"/>
    <path d="M 576 155.619692 
L 576 155.348658 
L 575.150979 154.500715 
L 575.150979 151.213465 
L 575.150979 147.926216 
L 575.264842 144.638967 
L 575.264842 141.351718 
L 576 140.249799 
L 576 139.897585 
L 575.029858 141.351718 
L 575.029858 144.638967 
L 574.8796 147.926216 
L 574.8796 151.213465 
L 574.8796 154.500715 
z
M 576 135.528149 
L 576 135.040822 
L 575.844091 134.777219 
L 575.222057 131.48997 
L 575.132584 128.202721 
L 575.019858 124.915471 
L 574.873465 121.628222 
L 574.675669 118.340973 
L 574.393636 115.053724 
L 573.958992 111.766474 
L 573.201924 108.479225 
L 572.708571 107.150835 
L 571.442444 105.191976 
L 569.656067 101.904727 
L 569.417143 101.408978 
L 566.125714 101.707183 
L 565.712347 98.617477 
L 564.627565 95.330228 
L 562.834286 93.118431 
L 562.490861 92.042979 
L 562.18561 88.75573 
L 561.985449 85.46848 
L 561.838663 82.181231 
L 561.718305 78.893982 
L 561.564873 75.606733 
L 561.362559 72.319483 
L 561.08358 69.032234 
L 560.674169 65.744985 
L 560.014947 62.457736 
L 559.542857 60.912609 
L 559.154746 59.170486 
L 557.984137 55.883237 
L 556.251429 53.413509 
L 556.072608 52.595988 
L 555.694398 49.308739 
L 555.470566 46.021489 
L 555.305738 42.73424 
L 555.197693 39.446991 
L 555.061717 36.159742 
L 554.885368 32.872492 
L 554.647533 29.585243 
L 554.309264 26.297994 
L 553.789916 23.010745 
L 552.96 19.912287 
L 552.92546 19.723495 
L 552.147121 16.436246 
L 550.768809 13.148997 
L 549.668571 11.04099 
L 549.484387 9.861748 
L 549.430421 6.574498 
L 549.33653 3.287249 
L 549.178585 0 
L 548.789992 0 
L 549.022226 3.287249 
L 549.150882 6.574498 
L 549.199907 9.861748 
L 549.668571 12.862379 
L 549.818167 13.148997 
L 551.460944 16.436246 
L 552.388628 19.723495 
L 552.96 22.846521 
L 553.003987 23.010745 
L 553.689277 26.297994 
L 554.13563 29.585243 
L 554.449458 32.872492 
L 554.682154 36.159742 
L 554.861578 39.446991 
L 555.004145 42.73424 
L 555.221588 46.021489 
L 555.444589 49.308739 
L 555.788246 52.595988 
L 556.251429 54.713532 
L 557.072069 55.883237 
L 558.499127 59.170486 
L 559.299804 62.457736 
L 559.542857 63.855495 
L 559.985207 65.744985 
L 560.525159 69.032234 
L 560.89309 72.319483 
L 561.159911 75.606733 
L 561.362265 78.893982 
L 561.520998 82.181231 
L 561.714598 85.46848 
L 561.944465 88.75573 
L 562.221862 92.042979 
L 562.834286 93.960812 
L 563.94458 95.330228 
L 565.323402 98.617477 
L 562.834286 100.614745 
L 561.868906 101.904727 
L 561.868906 105.191976 
L 561.868906 108.479225 
L 561.713025 111.766474 
L 561.713025 115.053724 
L 562.834286 116.02343 
L 563.805225 115.053724 
L 566.125714 112.736054 
L 568.15732 111.766474 
L 566.125714 110.323404 
L 564.279341 108.479225 
L 565.765926 105.191976 
L 566.125714 104.033425 
L 569.417143 104.316205 
L 569.886004 105.191976 
L 571.923753 108.479225 
L 572.708571 109.558844 
L 573.306639 111.766474 
L 573.880197 115.053724 
L 574.252369 118.340973 
L 574.51338 121.628222 
L 574.706562 124.915471 
L 574.855314 128.202721 
L 574.973384 131.48997 
L 575.55586 134.777219 
z
M 561.984296 115.053724 
L 561.984296 111.766474 
L 562.102464 108.479225 
L 562.102464 105.191976 
L 562.102464 101.904727 
L 562.834286 100.926835 
L 566.055851 101.904727 
L 565.056663 105.191976 
L 563.929733 108.479225 
L 566.125714 110.672596 
L 567.665715 111.766474 
L 566.125714 112.501437 
L 563.570322 115.053724 
L 562.834286 115.788825 
z
M 556.251429 73.284312 
L 558.193121 72.319483 
L 558.560948 69.032234 
L 556.251429 67.954772 
L 555.284465 69.032234 
L 555.284465 72.319483 
z
M 555.518175 72.319483 
L 555.518175 69.032234 
L 556.251429 68.215189 
L 558.002749 69.032234 
L 557.723824 72.319483 
L 556.251429 73.051118 
z
M 549.668571 30.549444 
L 551.783445 29.585243 
L 552.230112 26.297994 
L 549.668571 25.133142 
L 548.701536 26.297994 
L 548.701536 29.585243 
z
M 548.93579 29.585243 
L 548.93579 26.297994 
L 549.668571 25.415315 
L 551.609606 26.297994 
L 551.271139 29.585243 
L 549.668571 30.315876 
z
" clip-path="url(#p20f813d335)" style="fill: #cbdef1; fill-opacity: 0.9"/>
    <path d="M 576 155.348658 
L 576 155.077624 
L 575.422357 154.500715 
L 575.422357 151.213465 
L 575.422357 147.926216 
L 575.499825 144.638967 
L 575.499825 141.351718 
L 576 140.602013 
L 576 140.249799 
L 575.264842 141.351718 
L 575.264842 144.638967 
L 575.150979 147.926216 
L 575.150979 151.213465 
L 575.150979 154.500715 
z
M 576 135.040822 
L 576 134.777219 
L 576 134.193973 
L 575.47073 131.48997 
L 575.409853 128.202721 
L 575.333155 124.915471 
L 575.233549 121.628222 
L 575.09897 118.340973 
L 574.907075 115.053724 
L 574.611344 111.766474 
L 574.096237 108.479225 
L 572.973731 105.191976 
L 572.708571 104.742826 
L 571.057193 101.904727 
L 569.477518 98.617477 
L 569.417143 98.501752 
L 568.1401 98.617477 
L 566.125714 98.800017 
L 566.101293 98.617477 
L 565.310551 95.330228 
L 562.834286 92.276049 
L 562.759859 92.042979 
L 562.426755 88.75573 
L 562.2563 85.46848 
L 562.156328 82.181231 
L 562.074346 78.893982 
L 561.969835 75.606733 
L 561.832028 72.319483 
L 561.642001 69.032234 
L 561.36313 65.744985 
L 560.9141 62.457736 
L 560.070799 59.170486 
L 559.542857 57.969724 
L 558.896206 55.883237 
L 556.807425 52.595988 
L 556.251429 51.833915 
L 555.944207 49.308739 
L 555.719545 46.021489 
L 555.607331 42.73424 
L 555.533809 39.446991 
L 555.44128 36.159742 
L 555.321278 32.872492 
L 555.159436 29.585243 
L 554.92925 26.297994 
L 554.575845 23.010745 
L 553.964122 19.723495 
L 552.96 16.978054 
L 552.833297 16.436246 
L 551.719451 13.148997 
L 550.136207 9.861748 
L 549.882581 6.574498 
L 549.668571 4.194395 
L 549.650835 3.287249 
L 549.567177 0 
L 549.178585 0 
L 549.33653 3.287249 
L 549.430421 6.574498 
L 549.484387 9.861748 
L 549.668571 11.04099 
L 550.768809 13.148997 
L 552.147121 16.436246 
L 552.92546 19.723495 
L 552.96 19.912287 
L 553.789916 23.010745 
L 554.309264 26.297994 
L 554.647533 29.585243 
L 554.885368 32.872492 
L 555.061717 36.159742 
L 555.197693 39.446991 
L 555.305738 42.73424 
L 555.470566 46.021489 
L 555.694398 49.308739 
L 556.072608 52.595988 
L 556.251429 53.413509 
L 557.984137 55.883237 
L 559.154746 59.170486 
L 559.542857 60.912609 
L 560.014947 62.457736 
L 560.674169 65.744985 
L 561.08358 69.032234 
L 561.362559 72.319483 
L 561.564873 75.606733 
L 561.718305 78.893982 
L 561.838663 82.181231 
L 561.985449 85.46848 
L 562.18561 88.75573 
L 562.490861 92.042979 
L 562.834286 93.118431 
L 564.627565 95.330228 
L 565.712347 98.617477 
L 566.125714 101.707183 
L 569.417143 101.408978 
L 569.656067 101.904727 
L 571.442444 105.191976 
L 572.708571 107.150835 
L 573.201924 108.479225 
L 573.958992 111.766474 
L 574.393636 115.053724 
L 574.675669 118.340973 
L 574.873465 121.628222 
L 575.019858 124.915471 
L 575.132584 128.202721 
L 575.222057 131.48997 
L 575.844091 134.777219 
z
M 562.834286 115.788825 
L 563.570322 115.053724 
L 566.125714 112.501437 
L 567.665715 111.766474 
L 566.125714 110.672596 
L 563.929733 108.479225 
L 565.056663 105.191976 
L 566.055851 101.904727 
L 562.834286 100.926835 
L 562.102464 101.904727 
L 562.102464 105.191976 
L 562.102464 108.479225 
L 561.984296 111.766474 
L 561.984296 115.053724 
z
M 562.255567 115.053724 
L 562.255567 111.766474 
L 562.336022 108.479225 
L 562.336022 105.191976 
L 562.336022 101.904727 
L 562.834286 101.238926 
L 565.027701 101.904727 
L 564.3474 105.191976 
L 563.580125 108.479225 
L 566.125714 111.021788 
L 567.17411 111.766474 
L 566.125714 112.266819 
L 563.335419 115.053724 
L 562.834286 115.554221 
z
M 556.251429 73.051118 
L 557.723824 72.319483 
L 558.002749 69.032234 
L 556.251429 68.215189 
L 555.518175 69.032234 
L 555.518175 72.319483 
z
M 555.751885 72.319483 
L 555.751885 69.032234 
L 556.251429 68.475606 
L 557.444551 69.032234 
L 557.254528 72.319483 
L 556.251429 72.817924 
z
M 549.668571 30.315876 
L 551.271139 29.585243 
L 551.609606 26.297994 
L 549.668571 25.415315 
L 548.93579 26.297994 
L 548.93579 29.585243 
z
M 549.170044 29.585243 
L 549.170044 26.297994 
L 549.668571 25.697488 
L 550.9891 26.297994 
L 550.758834 29.585243 
L 549.668571 30.082309 
z
" clip-path="url(#p20f813d335)" style="fill: #c6dbef; fill-opacity: 0.9"/>
    <path d="M 576 155.077624 
L 576 154.80659 
L 575.693736 154.500715 
L 575.693736 151.213465 
L 575.693736 147.926216 
L 575.734809 144.638967 
L 575.734809 141.351718 
L 576 140.954227 
L 576 140.602013 
L 575.499825 141.351718 
L 575.499825 144.638967 
L 575.422357 147.926216 
L 575.422357 151.213465 
L 575.422357 154.500715 
z
M 576 134.193973 
L 576 132.923517 
L 575.719404 131.48997 
L 575.687122 128.202721 
L 575.646452 124.915471 
L 575.593633 121.628222 
L 575.52227 118.340973 
L 575.420514 115.053724 
L 575.263696 111.766474 
L 574.99055 108.479225 
L 574.395318 105.191976 
L 572.708571 102.334817 
L 572.458319 101.904727 
L 570.994253 98.617477 
L 569.417143 95.594524 
L 566.125714 95.892851 
L 565.993536 95.330228 
L 564.117034 92.042979 
L 562.834286 90.360582 
L 562.6679 88.75573 
L 562.52715 85.46848 
L 562.473992 82.181231 
L 562.430386 78.893982 
L 562.374797 75.606733 
L 562.301498 72.319483 
L 562.200422 69.032234 
L 562.052091 65.744985 
L 561.813254 62.457736 
L 561.364705 59.170486 
L 560.214074 55.883237 
L 559.542857 55.026839 
L 558.305463 52.595988 
L 556.251429 49.780636 
L 556.194016 49.308739 
L 555.968523 46.021489 
L 555.908924 42.73424 
L 555.869924 39.446991 
L 555.820842 36.159742 
L 555.757188 32.872492 
L 555.671339 29.585243 
L 555.549237 26.297994 
L 555.361774 23.010745 
L 555.037292 19.723495 
L 554.339015 16.436246 
L 552.96 14.04382 
L 552.670092 13.148997 
L 551.462613 9.861748 
L 551.327973 6.574498 
L 551.166797 3.287249 
L 550.970381 0 
L 549.668571 0 
L 549.567177 0 
L 549.650835 3.287249 
L 549.668571 4.194395 
L 549.882581 6.574498 
L 550.136207 9.861748 
L 551.719451 13.148997 
L 552.833297 16.436246 
L 552.96 16.978054 
L 553.964122 19.723495 
L 554.575845 23.010745 
L 554.92925 26.297994 
L 555.159436 29.585243 
L 555.321278 32.872492 
L 555.44128 36.159742 
L 555.533809 39.446991 
L 555.607331 42.73424 
L 555.719545 46.021489 
L 555.944207 49.308739 
L 556.251429 51.833915 
L 556.807425 52.595988 
L 558.896206 55.883237 
L 559.542857 57.969724 
L 560.070799 59.170486 
L 560.9141 62.457736 
L 561.36313 65.744985 
L 561.642001 69.032234 
L 561.832028 72.319483 
L 561.969835 75.606733 
L 562.074346 78.893982 
L 562.156328 82.181231 
L 562.2563 85.46848 
L 562.426755 88.75573 
L 562.759859 92.042979 
L 562.834286 92.276049 
L 565.310551 95.330228 
L 566.101293 98.617477 
L 566.125714 98.800017 
L 568.1401 98.617477 
L 569.417143 98.501752 
L 569.477518 98.617477 
L 571.057193 101.904727 
L 572.708571 104.742826 
L 572.973731 105.191976 
L 574.096237 108.479225 
L 574.611344 111.766474 
L 574.907075 115.053724 
L 575.09897 118.340973 
L 575.233549 121.628222 
L 575.333155 124.915471 
L 575.409853 128.202721 
L 575.47073 131.48997 
z
M 562.834286 115.554221 
L 563.335419 115.053724 
L 566.125714 112.266819 
L 567.17411 111.766474 
L 566.125714 111.021788 
L 563.580125 108.479225 
L 564.3474 105.191976 
L 565.027701 101.904727 
L 562.834286 101.238926 
L 562.336022 101.904727 
L 562.336022 105.191976 
L 562.336022 108.479225 
L 562.255567 111.766474 
L 562.255567 115.053724 
z
M 562.526837 115.053724 
L 562.526837 111.766474 
L 562.56958 108.479225 
L 562.56958 105.191976 
L 562.56958 101.904727 
L 562.834286 101.551016 
L 563.999552 101.904727 
L 563.638137 105.191976 
L 563.230518 108.479225 
L 566.125714 111.37098 
L 566.682505 111.766474 
L 566.125714 112.032202 
L 563.100516 115.053724 
L 562.834286 115.319616 
z
M 556.251429 72.817924 
L 557.254528 72.319483 
L 557.444551 69.032234 
L 556.251429 68.475606 
L 555.751885 69.032234 
L 555.751885 72.319483 
z
M 555.985595 72.319483 
L 555.985595 69.032234 
L 556.251429 68.736022 
L 556.886353 69.032234 
L 556.785231 72.319483 
L 556.251429 72.58473 
z
M 549.668571 30.082309 
L 550.758834 29.585243 
L 550.9891 26.297994 
L 549.668571 25.697488 
L 549.170044 26.297994 
L 549.170044 29.585243 
z
M 549.404298 29.585243 
L 549.404298 26.297994 
L 549.668571 25.979661 
L 550.368594 26.297994 
L 550.246528 29.585243 
L 549.668571 29.848742 
z
" clip-path="url(#p20f813d335)" style="fill: #bed8ec; fill-opacity: 0.9"/>
    <path d="M 576 154.80659 
L 576 154.535556 
L 575.965114 154.500715 
L 575.965114 151.213465 
L 575.965114 147.926216 
L 575.969793 144.638967 
L 575.969793 141.351718 
L 576 141.306441 
L 576 140.954227 
L 575.734809 141.351718 
L 575.734809 144.638967 
L 575.693736 147.926216 
L 575.693736 151.213465 
L 575.693736 154.500715 
z
M 576 132.923517 
L 576 131.653061 
L 575.968077 131.48997 
L 575.964392 128.202721 
L 575.959748 124.915471 
L 575.953718 121.628222 
L 575.94557 118.340973 
L 575.933953 115.053724 
L 575.916049 111.766474 
L 575.884863 108.479225 
L 575.816905 105.191976 
L 575.553746 101.904727 
L 572.708571 99.067457 
L 572.510987 98.617477 
L 572.295893 95.330228 
L 569.417143 92.458715 
L 566.125714 92.507328 
L 565.890454 92.042979 
L 565.138178 88.75573 
L 562.834286 86.460364 
L 562.798001 85.46848 
L 562.791657 82.181231 
L 562.786427 78.893982 
L 562.779759 75.606733 
L 562.770967 72.319483 
L 562.758843 69.032234 
L 562.741052 65.744985 
L 562.712408 62.457736 
L 562.658611 59.170486 
L 562.520612 55.883237 
L 561.388953 52.595988 
L 559.542857 50.757548 
L 559.045434 49.308739 
L 556.251429 46.515659 
L 556.217502 46.021489 
L 556.210517 42.73424 
L 556.20604 39.446991 
L 556.200405 36.159742 
L 556.193097 32.872492 
L 556.183242 29.585243 
L 556.169224 26.297994 
L 556.147703 23.010745 
L 556.110463 19.723495 
L 556.030333 16.436246 
L 555.732492 13.148997 
L 552.96 10.376037 
L 552.789018 9.861748 
L 552.773365 6.574498 
L 552.754627 3.287249 
L 552.731792 0 
L 550.970381 0 
L 551.166797 3.287249 
L 551.327973 6.574498 
L 551.462613 9.861748 
L 552.670092 13.148997 
L 552.96 14.04382 
L 554.339015 16.436246 
L 555.037292 19.723495 
L 555.361774 23.010745 
L 555.549237 26.297994 
L 555.671339 29.585243 
L 555.757188 32.872492 
L 555.820842 36.159742 
L 555.869924 39.446991 
L 555.908924 42.73424 
L 555.968523 46.021489 
L 556.194016 49.308739 
L 556.251429 49.780636 
L 558.305463 52.595988 
L 559.542857 55.026839 
L 560.214074 55.883237 
L 561.364705 59.170486 
L 561.813254 62.457736 
L 562.052091 65.744985 
L 562.200422 69.032234 
L 562.301498 72.319483 
L 562.374797 75.606733 
L 562.430386 78.893982 
L 562.473992 82.181231 
L 562.52715 85.46848 
L 562.6679 88.75573 
L 562.834286 90.360582 
L 564.117034 92.042979 
L 565.993536 95.330228 
L 566.125714 95.892851 
L 569.417143 95.594524 
L 570.994253 98.617477 
L 572.458319 101.904727 
L 572.708571 102.334817 
L 574.395318 105.191976 
L 574.99055 108.479225 
L 575.263696 111.766474 
L 575.420514 115.053724 
L 575.52227 118.340973 
L 575.593633 121.628222 
L 575.646452 124.915471 
L 575.687122 128.202721 
L 575.719404 131.48997 
z
M 562.834286 115.319616 
L 563.100516 115.053724 
L 566.125714 112.032202 
L 566.682505 111.766474 
L 566.125714 111.37098 
L 563.230518 108.479225 
L 563.638137 105.191976 
L 563.999552 101.904727 
L 562.834286 101.551016 
L 562.56958 101.904727 
L 562.56958 105.191976 
L 562.56958 108.479225 
L 562.526837 111.766474 
L 562.526837 115.053724 
z
M 562.798108 115.053724 
L 562.798108 111.766474 
L 562.803138 108.479225 
L 562.803138 105.191976 
L 562.803138 101.904727 
L 562.834286 101.863106 
L 562.971402 101.904727 
L 562.928875 105.191976 
L 562.88091 108.479225 
L 566.125714 111.720173 
L 566.1909 111.766474 
L 566.125714 111.797584 
L 562.865613 115.053724 
L 562.834286 115.085011 
z
M 556.251429 72.58473 
L 556.785231 72.319483 
L 556.886353 69.032234 
L 556.251429 68.736022 
L 555.985595 69.032234 
L 555.985595 72.319483 
z
M 556.219305 72.319483 
L 556.219305 69.032234 
L 556.251429 68.996439 
L 556.328154 69.032234 
L 556.315935 72.319483 
L 556.251429 72.351537 
z
M 549.668571 29.848742 
L 550.246528 29.585243 
L 550.368594 26.297994 
L 549.668571 25.979661 
L 549.404298 26.297994 
L 549.404298 29.585243 
z
M 549.638552 29.585243 
L 549.638552 26.297994 
L 549.668571 26.261834 
L 549.748088 26.297994 
L 549.734222 29.585243 
L 549.668571 29.615174 
z
" clip-path="url(#p20f813d335)" style="fill: #b5d4e9; fill-opacity: 0.9"/>
    <path d="M 576 154.535556 
L 576 154.500715 
L 576 151.213465 
L 576 147.926216 
L 576 144.638967 
L 576 141.351718 
L 576 141.306441 
L 575.969793 141.351718 
L 575.969793 144.638967 
L 575.965114 147.926216 
L 575.965114 151.213465 
L 575.965114 154.500715 
z
M 576 131.653061 
L 576 131.48997 
L 576 128.202721 
L 576 124.915471 
L 576 121.628222 
L 576 118.340973 
L 576 115.053724 
L 576 111.766474 
L 576 108.479225 
L 576 105.191976 
L 576 101.904727 
L 576 98.617477 
L 576 95.330228 
L 576 92.042979 
L 576 88.75573 
L 576 85.46848 
L 576 82.181231 
L 576 78.893982 
L 576 75.606733 
L 576 72.319483 
L 576 69.032234 
L 576 65.744985 
L 576 62.457736 
L 576 59.170486 
L 576 55.883237 
L 576 52.595988 
L 576 49.308739 
L 576 46.021489 
L 576 42.73424 
L 576 39.446991 
L 576 36.159742 
L 576 32.872492 
L 576 29.585243 
L 576 26.297994 
L 576 23.010745 
L 576 19.723495 
L 576 16.436246 
L 576 13.148997 
L 576 9.861748 
L 576 6.574498 
L 576 3.287249 
L 576 0 
L 572.708571 0 
L 569.417143 0 
L 566.125714 0 
L 562.834286 0 
L 559.542857 0 
L 556.251429 0 
L 552.96 0 
L 552.731792 0 
L 552.754627 3.287249 
L 552.773365 6.574498 
L 552.789018 9.861748 
L 552.96 10.376037 
L 555.732492 13.148997 
L 556.030333 16.436246 
L 556.110463 19.723495 
L 556.147703 23.010745 
L 556.169224 26.297994 
L 556.183242 29.585243 
L 556.193097 32.872492 
L 556.200405 36.159742 
L 556.20604 39.446991 
L 556.210517 42.73424 
L 556.217502 46.021489 
L 556.251429 46.515659 
L 559.045434 49.308739 
L 559.542857 50.757548 
L 561.388953 52.595988 
L 562.520612 55.883237 
L 562.658611 59.170486 
L 562.712408 62.457736 
L 562.741052 65.744985 
L 562.758843 69.032234 
L 562.770967 72.319483 
L 562.779759 75.606733 
L 562.786427 78.893982 
L 562.791657 82.181231 
L 562.798001 85.46848 
L 562.834286 86.460364 
L 565.138178 88.75573 
L 565.890454 92.042979 
L 566.125714 92.507328 
L 569.417143 92.458715 
L 572.295893 95.330228 
L 572.510987 98.617477 
L 572.708571 99.067457 
L 575.553746 101.904727 
L 575.816905 105.191976 
L 575.884863 108.479225 
L 575.916049 111.766474 
L 575.933953 115.053724 
L 575.94557 118.340973 
L 575.953718 121.628222 
L 575.959748 124.915471 
L 575.964392 128.202721 
L 575.968077 131.48997 
z
M 562.834286 115.085011 
L 562.865613 115.053724 
L 566.125714 111.797584 
L 566.1909 111.766474 
L 566.125714 111.720173 
L 562.88091 108.479225 
L 562.928875 105.191976 
L 562.971402 101.904727 
L 562.834286 101.863106 
L 562.803138 101.904727 
L 562.803138 105.191976 
L 562.803138 108.479225 
L 562.798108 111.766474 
L 562.798108 115.053724 
z
M 556.251429 72.351537 
L 556.315935 72.319483 
L 556.328154 69.032234 
L 556.251429 68.996439 
L 556.219305 69.032234 
L 556.219305 72.319483 
z
M 549.668571 29.615174 
L 549.734222 29.585243 
L 549.748088 26.297994 
L 549.668571 26.261834 
L 549.638552 26.297994 
L 549.638552 29.585243 
z
" clip-path="url(#p20f813d335)" style="fill: #add0e6; fill-opacity: 0.9"/>
    <path clip-path="url(#p20f813d335)" style="fill: #a5cde3; fill-opacity: 0.9"/>
    <path clip-path="url(#p20f813d335)" style="fill: #9cc9e1; fill-opacity: 0.9"/>
    <path clip-path="url(#p20f813d335)" style="fill: #91c3de; fill-opacity: 0.9"/>
    <path clip-path="url(#p20f813d335)" style="fill: #85bcdc; fill-opacity: 0.9"/>
    <path clip-path="url(#p20f813d335)" style="fill: #7cb7da; fill-opacity: 0.9"/>
    <path clip-path="url(#p20f813d335)" style="fill: #71b1d7; fill-opacity: 0.9"/>
    <path clip-path="url(#p20f813d335)" style="fill: #66abd4; fill-opacity: 0.9"/>
    <path clip-path="url(#p20f813d335)" style="fill: #5da5d1; fill-opacity: 0.9"/>
    <path clip-path="url(#p20f813d335)" style="fill: #56a0ce; fill-opacity: 0.9"/>
    <path clip-path="url(#p20f813d335)" style="fill: #4d99ca; fill-opacity: 0.9"/>
    <path clip-path="url(#p20f813d335)" style="fill: #4493c7; fill-opacity: 0.9"/>
    <path clip-path="url(#p20f813d335)" style="fill: #3c8cc3; fill-opacity: 0.9"/>
    <path clip-path="url(#p20f813d335)" style="fill: #3686c0; fill-opacity: 0.9"/>
    <path clip-path="url(#p20f813d335)" style="fill: #2f7fbc; fill-opacity: 0.9"/>
    <path clip-path="url(#p20f813d335)" style="fill: #2777b8; fill-opacity: 0.9"/>
    <path clip-path="url(#p20f813d335)" style="fill: #2070b4; fill-opacity: 0.9"/>
    <path clip-path="url(#p20f813d335)" style="fill: #1c6ab0; fill-opacity: 0.9"/>
    <path clip-path="url(#p20f813d335)" style="fill: #1663aa; fill-opacity: 0.9"/>
    <path clip-path="url(#p20f813d335)" style="fill: #115ca5; fill-opacity: 0.9"/>
    <path clip-path="url(#p20f813d335)" style="fill: #0c56a0; fill-opacity: 0.9"/>
    <path clip-path="url(#p20f813d335)" style="fill: #084f99; fill-opacity: 0.9"/>
    <path clip-path="url(#p20f813d335)" style="fill: #08488e; fill-opacity: 0.9"/>
    <path clip-path="url(#p20f813d335)" style="fill: #084184; fill-opacity: 0.9"/>
    <path clip-path="url(#p20f813d335)" style="fill: #083a7a; fill-opacity: 0.9"/>
    <path clip-path="url(#p20f813d335)" style="fill: #083370; fill-opacity: 0.9"/>
    <path clip-path="url(#p20f813d335)" style="fill: #08306b; fill-opacity: 0.9"/>
   </g>
   <g id="QuadContourSet_2">
    <path d="M 544.789811 0 
L 546.377143 2.66797 
L 546.507791 3.287249 
L 546.914565 6.574498 
L 546.924064 9.861748 
L 547.025146 13.148997 
L 547.242739 16.436246 
L 547.680336 19.723495 
L 549.012756 23.010745 
L 546.827503 26.297994 
L 546.827503 29.585243 
L 549.668571 32.417982 
L 550.649564 32.872492 
L 550.852756 36.159742 
L 551.162112 39.446991 
L 551.690257 42.73424 
L 552.96 44.476748 
L 553.22976 46.021489 
L 553.446116 49.308739 
L 553.513353 52.595988 
L 553.668027 55.883237 
L 553.942718 59.170486 
L 554.565662 62.457736 
L 556.251429 65.113722 
L 556.455195 65.744985 
L 556.251429 65.871438 
L 553.414787 69.032234 
L 553.414787 72.319483 
L 556.251429 75.149862 
L 557.332293 75.606733 
L 557.581277 78.893982 
L 557.979304 82.181231 
L 558.270114 82.786414 
M 560.274394 101.239641 
L 560.000441 101.904727 
L 560.000441 105.191976 
L 560.000441 108.479225 
L 559.542857 111.766474 
L 559.542857 115.053724 
L 562.834286 117.900268 
L 565.684449 115.053724 
L 566.125714 114.612994 
L 567.125368 115.053724 
L 567.349007 118.340973 
L 569.417143 120.879375 
L 570.202865 121.628222 
L 571.183102 124.915471 
L 572.311708 128.202721 
L 572.708571 128.822915 
L 572.983996 131.48997 
L 573.250014 134.777219 
L 574.031426 138.064468 
L 573.149989 141.351718 
L 573.149989 144.638967 
L 572.708571 147.926216 
L 572.708571 151.213465 
L 572.708571 154.500715 
L 576 157.787964 
" clip-path="url(#p20f813d335)" style="fill: none"/>
    <path d="M 545.676194 0 
L 546.377143 1.178147 
L 546.822095 3.287249 
L 546.84951 3.529497 
M 549.693171 22.386943 
L 549.898542 23.010745 
L 549.668571 23.157932 
L 547.061757 26.297994 
L 547.061757 29.585243 
L 549.668571 32.184415 
L 551.153684 32.872492 
L 551.461295 36.159742 
L 551.929625 39.446991 
L 552.729177 42.73424 
L 552.96 43.051005 
L 553.478738 46.021489 
L 553.695925 49.308739 
L 553.797715 52.595988 
L 554.031874 55.883237 
L 554.447726 59.170486 
L 555.390793 62.457736 
L 556.251429 63.813698 
L 556.874831 65.744985 
L 556.251429 66.131854 
L 553.648497 69.032234 
L 553.648497 72.319483 
L 556.251429 74.916668 
L 557.883982 75.606733 
L 558.260052 78.893982 
L 558.861239 82.181231 
L 559.542857 83.599698 
L 559.818644 85.46848 
L 560.256451 88.75573 
L 560.338874 92.042979 
L 560.711623 95.330228 
L 562.279156 98.617477 
L 560.233999 101.904727 
L 560.233999 105.191976 
L 560.233999 108.479225 
L 559.814128 111.766474 
L 559.814128 115.053724 
L 562.834286 117.665663 
L 565.449546 115.053724 
L 566.125714 114.378377 
L 567.657523 115.053724 
L 568.000213 118.340973 
L 569.417143 120.080093 
L 571.041506 121.628222 
L 572.123191 124.915471 
L 572.708571 126.414906 
L 572.914429 128.202721 
L 573.23267 131.48997 
L 573.538244 134.777219 
L 574.735633 138.064468 
L 573.384972 141.351718 
L 573.384972 144.638967 
L 572.97995 147.926216 
L 572.97995 151.213465 
L 572.97995 154.500715 
L 576 157.51693 
" clip-path="url(#p20f813d335)" style="fill: none"/>
    <path d="M 547.491218 9.555251 
L 547.493025 9.861748 
L 547.699263 13.148997 
L 548.143215 16.436246 
L 549.036044 19.723495 
L 549.668571 20.973087 
L 550.339418 23.010745 
L 549.668571 23.440105 
L 547.296011 26.297994 
L 547.296011 29.585243 
L 549.668571 31.950848 
L 551.657805 32.872492 
L 552.069833 36.159742 
L 552.697138 39.446991 
L 552.96 40.451922 
L 553.194586 42.73424 
L 553.727717 46.021489 
L 553.945734 49.308739 
L 554.082076 52.595988 
L 554.395721 55.883237 
L 554.952733 59.170486 
L 556.215924 62.457736 
L 556.251429 62.513675 
L 557.294468 65.744985 
L 556.251429 66.392271 
L 553.882207 69.032234 
L 553.882207 72.319483 
L 556.251429 74.683475 
L 558.435672 75.606733 
L 558.938827 78.893982 
L 559.542857 81.512807 
L 559.615009 82.181231 
L 560.089495 85.46848 
L 560.497596 88.75573 
L 560.607872 92.042979 
L 561.106585 95.330228 
L 562.834286 98.342288 
L 562.989729 98.617477 
L 562.834286 98.742205 
L 560.467557 101.904727 
L 560.467557 105.191976 
L 560.467557 108.479225 
L 560.085399 111.766474 
L 560.085399 115.053724 
L 562.834286 117.431058 
L 565.214643 115.053724 
L 566.125714 114.143759 
L 568.189678 115.053724 
L 568.65142 118.340973 
L 569.417143 119.280811 
L 571.880147 121.628222 
L 572.708571 124.006897 
L 572.826782 124.915471 
L 573.191698 128.202721 
L 573.481343 131.48997 
L 573.826475 134.777219 
L 575.43984 138.064468 
L 573.619956 141.351718 
L 573.619956 144.638967 
L 573.251329 147.926216 
L 573.251329 151.213465 
L 573.251329 154.500715 
L 576 157.245896 
" clip-path="url(#p20f813d335)" style="fill: none"/>
    <path d="M 576 138.136515 
L 575.545031 138.818462 
M 575.686696 156.661956 
L 576 156.974862 
M 546.84703 0 
L 547.450704 3.287249 
L 547.753184 6.574498 
L 547.777505 9.861748 
L 548.036321 13.148997 
L 548.593454 16.436246 
L 549.668571 19.63395 
L 549.704468 19.723495 
L 550.780294 23.010745 
L 549.668571 23.722278 
L 547.530265 26.297994 
L 547.530265 29.585243 
L 549.668571 31.71728 
L 552.161925 32.872492 
L 552.678372 36.159742 
L 552.96 37.517688 
L 553.181001 39.446991 
L 553.496179 42.73424 
L 553.976695 46.021489 
L 554.195543 49.308739 
L 554.366438 52.595988 
L 554.759568 55.883237 
L 554.90093 56.548821 
M 555.117518 73.318874 
L 556.251429 74.450281 
L 558.987361 75.606733 
L 559.542857 78.569921 
L 559.582063 78.893982 
L 559.932674 82.181231 
L 560.360346 85.46848 
L 560.738741 88.75573 
L 560.876871 92.042979 
L 561.501546 95.330228 
L 562.834286 97.653715 
L 563.378674 98.617477 
L 562.834286 99.054295 
L 560.701115 101.904727 
L 560.701115 105.191976 
L 560.701115 108.479225 
L 560.35667 111.766474 
L 560.35667 115.053724 
L 562.834286 117.196454 
L 564.97974 115.053724 
L 566.125714 113.909142 
L 568.721833 115.053724 
L 569.302627 118.340973 
L 569.417143 118.481529 
L 572.708571 121.598889 
L 572.712958 121.628222 
L 573.140079 124.915471 
L 573.468967 128.202721 
L 573.730017 131.48997 
L 574.114706 134.777219 
L 576 137.964785 
M 566.125714 108.577444 
L 566.027379 108.479225 
L 566.125714 108.285548 
L 566.366223 108.479225 
L 566.125714 108.577444 
z
" clip-path="url(#p20f813d335)" style="fill: none"/>
    <path d="M 576 138.488729 
L 575.749587 138.864069 
M 575.916858 156.620792 
L 576 156.703828 
M 547.235623 0 
L 547.765008 3.287249 
L 548.032724 6.574498 
L 548.061985 9.861748 
L 548.373379 13.148997 
L 549.043692 16.436246 
L 549.668571 18.294814 
L 550.2413 19.723495 
L 551.22117 23.010745 
L 549.668571 24.004451 
L 547.764519 26.297994 
L 547.764519 29.345573 
M 554.182216 45.687635 
L 554.225674 46.021489 
L 554.445352 49.308739 
L 554.6508 52.595988 
L 555.123415 55.883237 
L 555.962748 59.170486 
L 556.251429 59.913627 
L 557.252874 62.457736 
L 558.133741 65.744985 
L 556.251429 66.913105 
L 554.349626 69.032234 
L 554.349626 72.319483 
L 556.251429 74.217087 
L 559.539051 75.606733 
L 559.542857 75.627036 
L 559.938104 78.893982 
L 560.250339 82.181231 
L 560.631196 85.46848 
L 560.979886 88.75573 
L 561.145869 92.042979 
L 561.896508 95.330228 
L 562.834286 96.965142 
L 563.76762 98.617477 
L 562.834286 99.366385 
L 560.934674 101.904727 
L 560.934674 105.191976 
L 560.934674 108.479225 
L 560.627941 111.766474 
L 560.627941 115.053724 
L 562.834286 116.961849 
L 564.744837 115.053724 
L 566.125714 113.674524 
L 569.253988 115.053724 
L 569.417143 115.945039 
L 571.721644 118.340973 
L 572.708571 119.19088 
L 573.073042 121.628222 
L 573.453376 124.915471 
L 573.746237 128.202721 
L 573.97869 131.48997 
L 574.402937 134.777219 
L 576 137.477458 
M 566.125714 108.926636 
L 565.677771 108.479225 
L 566.125714 107.596975 
L 567.221291 108.479225 
L 566.125714 108.926636 
z
" clip-path="url(#p20f813d335)" style="fill: none"/>
    <path d="M 576 138.840943 
L 575.986289 138.861493 
M 547.624215 0 
L 548.079313 3.287249 
L 548.312263 6.574498 
L 548.346466 9.861748 
L 548.710437 13.148997 
L 549.493931 16.436246 
L 549.668571 16.955677 
L 550.778132 19.723495 
L 551.662046 23.010745 
L 549.668571 24.286624 
L 547.998773 26.297994 
L 547.998773 29.585243 
L 549.668571 31.250146 
L 552.96 31.649221 
L 553.141729 32.872492 
L 553.543466 36.159742 
L 553.853232 39.446991 
L 554.099366 42.73424 
L 554.474652 46.021489 
L 554.695161 49.308739 
L 554.935161 52.595988 
L 555.487262 55.883237 
L 556.251429 58.613603 
L 556.532272 59.170486 
L 557.764606 62.457736 
L 558.553377 65.744985 
L 556.251429 67.173522 
L 554.583336 69.032234 
L 554.583336 72.319483 
L 556.251429 73.983893 
L 559.542857 72.684151 
L 559.945025 75.606733 
L 560.294144 78.893982 
L 560.568004 82.181231 
L 560.902047 85.46848 
L 561.22103 88.75573 
L 561.414867 92.042979 
L 562.29147 95.330228 
L 562.834286 96.276569 
L 564.156565 98.617477 
L 562.834286 99.678475 
L 561.168232 101.904727 
L 561.168232 105.191976 
L 561.168232 108.479225 
L 560.899212 111.766474 
L 560.899212 115.053724 
L 562.834286 116.727244 
L 564.509934 115.053724 
L 566.125714 113.439907 
L 569.417143 113.037864 
L 571.034088 115.053724 
L 572.708571 116.782871 
L 572.982468 118.340973 
L 573.028061 118.673546 
M 566.125714 109.275828 
L 565.328164 108.479225 
L 566.125714 106.908402 
L 568.076359 108.479225 
L 566.125714 109.275828 
z
" clip-path="url(#p20f813d335)" style="fill: none"/>
    <path d="M 548.012807 0 
L 548.393617 3.287249 
L 548.591803 6.574498 
L 548.630946 9.861748 
L 549.047495 13.148997 
L 549.668571 15.61654 
L 550.088591 16.436246 
L 551.314964 19.723495 
L 552.102923 23.010745 
L 549.668571 24.568797 
L 548.233028 26.297994 
L 548.233028 29.585243 
L 549.668571 31.016578 
L 552.808057 29.585243 
L 552.96 28.714988 
L 553.111824 29.585243 
L 553.577639 32.872492 
L 553.923029 36.159742 
L 554.189347 39.446991 
L 554.400959 42.73424 
L 554.723631 46.021489 
L 554.94497 49.308739 
L 555.219523 52.595988 
L 555.851108 55.883237 
L 556.251429 57.31358 
L 557.18789 59.170486 
L 558.276339 62.457736 
L 558.973013 65.744985 
L 556.251429 67.433938 
L 554.817046 69.032234 
L 554.817046 72.319483 
L 556.251429 73.750699 
L 559.131713 72.319483 
L 559.542857 69.741265 
L 559.954152 72.319483 
L 560.349987 75.606733 
L 560.650184 78.893982 
L 560.885668 82.181231 
L 561.172897 85.46848 
L 561.462175 88.75573 
L 561.683866 92.042979 
L 562.686431 95.330228 
L 562.834286 95.587996 
L 564.545511 98.617477 
L 562.834286 99.990565 
L 561.40179 101.904727 
L 561.40179 105.191976 
L 561.40179 108.479225 
L 561.170483 111.766474 
L 561.170483 115.053724 
L 562.834286 116.492639 
L 564.275031 115.053724 
L 564.308143 115.020652 
M 573.658175 120.482515 
L 573.793211 121.628222 
L 574.079969 124.915471 
L 574.300775 128.202721 
L 574.476037 131.48997 
L 574.979399 134.777219 
L 576 136.502803 
M 566.125714 109.62502 
L 564.978556 108.479225 
L 566.125714 106.219829 
L 568.931427 108.479225 
L 566.125714 109.62502 
z
" clip-path="url(#p20f813d335)" style="fill: none"/>
    <path d="M 548.4014 0 
L 548.707921 3.287249 
L 548.871342 6.574498 
L 548.915426 9.861748 
L 549.384554 13.148997 
L 549.668571 14.277404 
L 550.774767 16.436246 
L 551.851796 19.723495 
L 552.543799 23.010745 
L 552.96 25.780754 
L 553.06929 26.297994 
L 553.623727 29.585243 
L 554.013549 32.872492 
L 554.040057 33.173968 
M 555.474786 52.286534 
L 555.503884 52.595988 
L 556.214955 55.883237 
L 556.251429 56.013556 
L 557.843509 59.170486 
L 558.788071 62.457736 
L 559.39265 65.744985 
L 559.542857 66.79838 
L 559.966738 69.032234 
L 560.423621 72.319483 
L 560.754949 75.606733 
L 561.006225 78.893982 
L 561.203333 82.181231 
L 561.443748 85.46848 
L 561.70332 88.75573 
L 561.952864 92.042979 
L 562.834286 94.803194 
L 563.261595 95.330228 
L 564.934456 98.617477 
L 562.834286 100.302655 
L 561.635348 101.904727 
L 561.635348 105.191976 
L 561.635348 108.479225 
L 561.441754 111.766474 
L 561.441754 115.053724 
L 562.834286 116.258035 
L 564.040128 115.053724 
L 566.125714 112.970672 
L 568.648925 111.766474 
L 566.125714 109.974212 
L 564.628948 108.479225 
L 566.125714 105.531256 
L 569.417143 107.223431 
L 570.173273 108.479225 
L 572.542162 111.766474 
L 572.708571 111.966853 
L 573.366758 115.053724 
L 573.829069 118.340973 
L 574.153296 121.628222 
L 574.393265 124.915471 
L 574.578045 128.202721 
L 574.72471 131.48997 
L 575.26763 134.777219 
L 576 136.015476 
M 556.251429 73.517506 
L 558.662417 72.319483 
L 559.119146 69.032234 
L 556.251429 67.694355 
L 555.050756 69.032234 
L 555.050756 72.319483 
L 556.251429 73.517506 
z
M 549.668571 30.783011 
L 552.295751 29.585243 
L 552.850619 26.297994 
L 549.668571 24.85097 
L 548.467282 26.297994 
L 548.467282 29.585243 
L 549.668571 30.783011 
z
" clip-path="url(#p20f813d335)" style="fill: none"/>
    <path d="M 548.789992 0 
L 549.022226 3.287249 
L 549.150882 6.574498 
L 549.199907 9.861748 
L 549.668571 12.862379 
L 549.818167 13.148997 
L 551.460944 16.436246 
L 552.388628 19.723495 
L 552.96 22.846521 
L 553.003987 23.010745 
L 553.689277 26.297994 
L 554.13563 29.585243 
L 554.449458 32.872492 
L 554.4702 33.165502 
M 555.755973 52.287282 
L 555.788246 52.595988 
L 556.251429 54.713532 
L 557.072069 55.883237 
L 558.499127 59.170486 
L 559.299804 62.457736 
L 559.542857 63.855495 
L 559.985207 65.744985 
L 560.525159 69.032234 
L 560.89309 72.319483 
L 561.159911 75.606733 
L 561.362265 78.893982 
L 561.520998 82.181231 
L 561.714598 85.46848 
L 561.944465 88.75573 
L 562.221862 92.042979 
L 562.834286 93.960812 
L 563.94458 95.330228 
L 565.323402 98.617477 
L 562.834286 100.614745 
L 561.868906 101.904727 
L 561.868906 105.191976 
L 561.868906 108.479225 
L 561.713025 111.766474 
L 561.713025 115.053724 
L 562.834286 116.02343 
L 563.805225 115.053724 
L 566.125714 112.736054 
L 568.15732 111.766474 
L 566.125714 110.323404 
L 564.279341 108.479225 
L 565.765926 105.191976 
L 566.125714 104.033425 
L 569.417143 104.316205 
L 569.886004 105.191976 
L 571.923753 108.479225 
L 572.708571 109.558844 
L 573.306639 111.766474 
L 573.880197 115.053724 
L 574.252369 118.340973 
L 574.51338 121.628222 
L 574.706562 124.915471 
L 574.855314 128.202721 
L 574.973384 131.48997 
L 575.55586 134.777219 
L 576 135.528149 
M 556.251429 73.284312 
L 558.193121 72.319483 
L 558.560948 69.032234 
L 556.251429 67.954772 
L 555.284465 69.032234 
L 555.284465 72.319483 
L 556.251429 73.284312 
z
M 549.668571 30.549444 
L 551.783445 29.585243 
L 552.230112 26.297994 
L 549.668571 25.133142 
L 548.701536 26.297994 
L 548.701536 29.585243 
L 549.668571 30.549444 
z
" clip-path="url(#p20f813d335)" style="fill: none"/>
    <path d="M 549.178585 0 
L 549.33653 3.287249 
L 549.430421 6.574498 
L 549.484387 9.861748 
L 549.668571 11.04099 
L 550.768809 13.148997 
L 552.147121 16.436246 
L 552.92546 19.723495 
L 552.96 19.912287 
L 553.789916 23.010745 
L 554.309264 26.297994 
L 554.647533 29.585243 
L 554.885368 32.872492 
L 554.90073 33.158842 
M 556.037041 52.28686 
L 556.072608 52.595988 
L 556.251429 53.413509 
L 557.984137 55.883237 
L 559.154746 59.170486 
L 559.542857 60.912609 
L 560.014947 62.457736 
L 560.674169 65.744985 
L 561.08358 69.032234 
L 561.362559 72.319483 
L 561.564873 75.606733 
L 561.718305 78.893982 
L 561.838663 82.181231 
L 561.985449 85.46848 
L 562.18561 88.75573 
L 562.490861 92.042979 
L 562.834286 93.118431 
L 564.627565 95.330228 
L 565.712347 98.617477 
L 566.125714 101.707183 
L 569.417143 101.408978 
L 569.656067 101.904727 
L 571.442444 105.191976 
L 572.708571 107.150835 
L 573.201924 108.479225 
L 573.958992 111.766474 
L 574.393636 115.053724 
L 574.675669 118.340973 
L 574.873465 121.628222 
L 575.019858 124.915471 
L 575.132584 128.202721 
L 575.222057 131.48997 
L 575.844091 134.777219 
L 576 135.040822 
M 563.516693 101.133977 
L 562.834286 100.926835 
L 562.102464 101.904727 
L 562.102464 105.191976 
L 562.102464 108.479225 
L 561.984296 111.766474 
L 561.984296 115.053724 
L 562.834286 115.788825 
L 563.570322 115.053724 
L 564.11012 114.514582 
M 556.251429 73.051118 
L 557.723824 72.319483 
L 558.002749 69.032234 
L 556.251429 68.215189 
L 555.518175 69.032234 
L 555.518175 72.319483 
L 556.251429 73.051118 
z
M 549.668571 30.315876 
L 551.271139 29.585243 
L 551.609606 26.297994 
L 549.668571 25.415315 
L 548.93579 26.297994 
L 548.93579 29.585243 
L 549.668571 30.315876 
z
" clip-path="url(#p20f813d335)" style="fill: none"/>
    <path d="M 576 140.602013 
L 575.499825 141.351718 
L 575.499825 144.638967 
L 575.422357 147.926216 
L 575.422357 151.213465 
L 575.422357 154.500715 
L 576 155.077624 
M 549.567177 0 
L 549.650835 3.287249 
L 549.668571 4.194395 
L 549.882581 6.574498 
L 550.136207 9.861748 
L 551.309556 12.297944 
M 555.564827 40.833866 
L 555.607331 42.73424 
L 555.719545 46.021489 
L 555.944207 49.308739 
L 556.251429 51.833915 
L 556.807425 52.595988 
L 558.896206 55.883237 
L 559.542857 57.969724 
L 560.070799 59.170486 
L 560.9141 62.457736 
L 561.36313 65.744985 
L 561.642001 69.032234 
L 561.832028 72.319483 
L 561.969835 75.606733 
L 562.074346 78.893982 
L 562.156328 82.181231 
L 562.2563 85.46848 
L 562.426755 88.75573 
L 562.759859 92.042979 
L 562.834286 92.276049 
L 565.310551 95.330228 
L 566.101293 98.617477 
L 566.125714 98.800017 
L 568.1401 98.617477 
L 569.417143 98.501752 
L 569.477518 98.617477 
L 571.057193 101.904727 
L 572.708571 104.742826 
L 572.973731 105.191976 
L 574.096237 108.479225 
L 574.611344 111.766474 
L 574.907075 115.053724 
L 575.09897 118.340973 
L 575.233549 121.628222 
L 575.333155 124.915471 
L 575.409853 128.202721 
L 575.47073 131.48997 
L 576 134.193973 
M 562.834286 115.554221 
L 563.335419 115.053724 
L 566.125714 112.266819 
L 567.17411 111.766474 
L 566.125714 111.021788 
L 563.580125 108.479225 
L 564.3474 105.191976 
L 565.027701 101.904727 
L 562.834286 101.238926 
L 562.336022 101.904727 
L 562.336022 105.191976 
L 562.336022 108.479225 
L 562.255567 111.766474 
L 562.255567 115.053724 
L 562.834286 115.554221 
z
M 556.251429 72.817924 
L 557.254528 72.319483 
L 557.444551 69.032234 
L 556.251429 68.475606 
L 555.751885 69.032234 
L 555.751885 72.319483 
L 556.251429 72.817924 
z
M 549.668571 30.082309 
L 550.758834 29.585243 
L 550.9891 26.297994 
L 549.668571 25.697488 
L 549.170044 26.297994 
L 549.170044 29.585243 
L 549.668571 30.082309 
z
" clip-path="url(#p20f813d335)" style="fill: none"/>
    <path d="M 576 140.954227 
L 575.734809 141.351718 
L 575.734809 144.638967 
L 575.693736 147.926216 
L 575.693736 151.213465 
L 575.693736 154.500715 
L 576 154.80659 
M 550.970381 0 
L 551.166797 3.287249 
L 551.327973 6.574498 
L 551.462613 9.861748 
L 552.670092 13.148997 
L 552.96 14.04382 
L 553.659347 15.257103 
M 555.935372 44.193025 
L 555.968523 46.021489 
L 556.194016 49.308739 
L 556.251429 49.780636 
L 558.305463 52.595988 
L 559.542857 55.026839 
L 560.214074 55.883237 
L 561.364705 59.170486 
L 561.813254 62.457736 
L 562.052091 65.744985 
L 562.200422 69.032234 
L 562.301498 72.319483 
L 562.374797 75.606733 
L 562.430386 78.893982 
L 562.473992 82.181231 
L 562.52715 85.46848 
L 562.6679 88.75573 
L 562.834286 90.360582 
L 564.117034 92.042979 
L 565.993536 95.330228 
L 566.125714 95.892851 
L 569.417143 95.594524 
L 570.994253 98.617477 
L 572.458319 101.904727 
L 572.708571 102.334817 
L 574.395318 105.191976 
L 574.99055 108.479225 
L 575.263696 111.766474 
L 575.420514 115.053724 
L 575.52227 118.340973 
L 575.593633 121.628222 
L 575.646452 124.915471 
L 575.687122 128.202721 
L 575.719404 131.48997 
L 576 132.923517 
M 562.834286 115.319616 
L 563.100516 115.053724 
L 566.125714 112.032202 
L 566.682505 111.766474 
L 566.125714 111.37098 
L 563.230518 108.479225 
L 563.638137 105.191976 
L 563.999552 101.904727 
L 562.834286 101.551016 
L 562.56958 101.904727 
L 562.56958 105.191976 
L 562.56958 108.479225 
L 562.526837 111.766474 
L 562.526837 115.053724 
L 562.834286 115.319616 
z
M 556.251429 72.58473 
L 556.785231 72.319483 
L 556.886353 69.032234 
L 556.251429 68.736022 
L 555.985595 69.032234 
L 555.985595 72.319483 
L 556.251429 72.58473 
z
M 549.668571 29.848742 
L 550.246528 29.585243 
L 550.368594 26.297994 
L 549.668571 25.979661 
L 549.404298 26.297994 
L 549.404298 29.585243 
L 549.668571 29.848742 
z
" clip-path="url(#p20f813d335)" style="fill: none"/>
    <path d="M 576 141.306441 
L 575.969793 141.351718 
L 575.969793 144.638967 
L 575.965114 147.926216 
L 575.965114 151.213465 
L 575.965114 154.500715 
L 576 154.535556 
M 552.731792 0 
L 552.754627 3.287249 
L 552.773365 6.574498 
L 552.789018 9.861748 
L 552.96 10.376037 
L 555.732492 13.148997 
L 555.898589 14.982192 
M 556.213622 44.195598 
L 556.217502 46.021489 
L 556.251429 46.515659 
L 559.045434 49.308739 
L 559.542857 50.757548 
L 561.388953 52.595988 
L 562.520612 55.883237 
L 562.658611 59.170486 
L 562.712408 62.457736 
L 562.741052 65.744985 
L 562.758843 69.032234 
L 562.770967 72.319483 
L 562.779759 75.606733 
L 562.786427 78.893982 
L 562.791657 82.181231 
L 562.798001 85.46848 
L 562.834286 86.460364 
L 565.138178 88.75573 
L 565.890454 92.042979 
L 566.125714 92.507328 
L 569.417143 92.458715 
L 572.295893 95.330228 
L 572.510987 98.617477 
L 572.708571 99.067457 
L 575.553746 101.904727 
L 575.816905 105.191976 
L 575.884863 108.479225 
L 575.916049 111.766474 
L 575.933953 115.053724 
L 575.94557 118.340973 
L 575.953718 121.628222 
L 575.959748 124.915471 
L 575.964392 128.202721 
L 575.968077 131.48997 
L 576 131.653061 
M 562.834286 115.085011 
L 562.865613 115.053724 
L 566.125714 111.797584 
L 566.1909 111.766474 
L 566.125714 111.720173 
L 562.88091 108.479225 
L 562.928875 105.191976 
L 562.971402 101.904727 
L 562.834286 101.863106 
L 562.803138 101.904727 
L 562.803138 105.191976 
L 562.803138 108.479225 
L 562.798108 111.766474 
L 562.798108 115.053724 
L 562.834286 115.085011 
z
M 556.251429 72.351537 
L 556.315935 72.319483 
L 556.328154 69.032234 
L 556.251429 68.996439 
L 556.219305 69.032234 
L 556.219305 72.319483 
L 556.251429 72.351537 
z
M 549.668571 29.615174 
L 549.734222 29.585243 
L 549.748088 26.297994 
L 549.668571 26.261834 
L 549.638552 26.297994 
L 549.638552 29.585243 
L 549.668571 29.615174 
z
" clip-path="url(#p20f813d335)" style="fill: none"/>
    <path clip-path="url(#p20f813d335)" style="fill: none"/>
    <path clip-path="url(#p20f813d335)" style="fill: none"/>
    <path clip-path="url(#p20f813d335)" style="fill: none"/>
    <path clip-path="url(#p20f813d335)" style="fill: none"/>
    <path clip-path="url(#p20f813d335)" style="fill: none"/>
    <path clip-path="url(#p20f813d335)" style="fill: none"/>
    <path clip-path="url(#p20f813d335)" style="fill: none"/>
    <path clip-path="url(#p20f813d335)" style="fill: none"/>
    <path clip-path="url(#p20f813d335)" style="fill: none"/>
    <path clip-path="url(#p20f813d335)" style="fill: none"/>
    <path clip-path="url(#p20f813d335)" style="fill: none"/>
    <path clip-path="url(#p20f813d335)" style="fill: none"/>
    <path clip-path="url(#p20f813d335)" style="fill: none"/>
    <path clip-path="url(#p20f813d335)" style="fill: none"/>
    <path clip-path="url(#p20f813d335)" style="fill: none"/>
    <path clip-path="url(#p20f813d335)" style="fill: none"/>
    <path clip-path="url(#p20f813d335)" style="fill: none"/>
    <path clip-path="url(#p20f813d335)" style="fill: none"/>
    <path clip-path="url(#p20f813d335)" style="fill: none"/>
    <path clip-path="url(#p20f813d335)" style="fill: none"/>
    <path clip-path="url(#p20f813d335)" style="fill: none"/>
    <path clip-path="url(#p20f813d335)" style="fill: none"/>
    <path clip-path="url(#p20f813d335)" style="fill: none"/>
    <path clip-path="url(#p20f813d335)" style="fill: none"/>
    <path clip-path="url(#p20f813d335)" style="fill: none"/>
    <path clip-path="url(#p20f813d335)" style="fill: none"/>
   </g>
   <g id="text_1">
    <g clip-path="url(#p20f813d335)">
     <!-- 0 -->
     <g style="opacity: 0" transform="translate(556.377672 88.592571) rotate(-276.000917) scale(0.12 -0.12)">
      <defs>
       <path id="DejaVuSans-30" d="M 2034 4250 
Q 1547 4250 1301 3770 
Q 1056 3291 1056 2328 
Q 1056 1369 1301 889 
Q 1547 409 2034 409 
Q 2525 409 2770 889 
Q 3016 1369 3016 2328 
Q 3016 3291 2770 3770 
Q 2525 4250 2034 4250 
z
M 2034 4750 
Q 2819 4750 3233 4129 
Q 3647 3509 3647 2328 
Q 3647 1150 3233 529 
Q 2819 -91 2034 -91 
Q 1250 -91 836 529 
Q 422 1150 422 2328 
Q 422 3509 836 4129 
Q 1250 4750 2034 4750 
z
" transform="scale(0.015625)"/>
      </defs>
      <use xlink:href="#DejaVuSans-30"/>
     </g>
    </g>
   </g>
   <g id="text_2">
    <g clip-path="url(#p20f813d335)">
     <!-- 1 -->
     <g style="opacity: 0" transform="translate(543.744106 9.62096) rotate(-274.784112) scale(0.12 -0.12)">
      <defs>
       <path id="DejaVuSans-31" d="M 794 531 
L 1825 531 
L 1825 4091 
L 703 3866 
L 703 4441 
L 1819 4666 
L 2450 4666 
L 2450 531 
L 3481 531 
L 3481 0 
L 794 0 
L 794 531 
z
" transform="scale(0.015625)"/>
      </defs>
      <use xlink:href="#DejaVuSans-31"/>
     </g>
    </g>
   </g>
   <g id="text_3">
    <g clip-path="url(#p20f813d335)">
     <!-- 2 -->
     <g style="opacity: 0" transform="translate(542.543646 -3.195635) rotate(-279.837378) scale(0.12 -0.12)">
      <defs>
       <path id="DejaVuSans-32" d="M 1228 531 
L 3431 531 
L 3431 0 
L 469 0 
L 469 531 
Q 828 903 1448 1529 
Q 2069 2156 2228 2338 
Q 2531 2678 2651 2914 
Q 2772 3150 2772 3378 
Q 2772 3750 2511 3984 
Q 2250 4219 1831 4219 
Q 1534 4219 1204 4116 
Q 875 4013 500 3803 
L 500 4441 
Q 881 4594 1212 4672 
Q 1544 4750 1819 4750 
Q 2544 4750 2975 4387 
Q 3406 4025 3406 3419 
Q 3406 3131 3298 2873 
Q 3191 2616 2906 2266 
Q 2828 2175 2409 1742 
Q 1991 1309 1228 531 
z
" transform="scale(0.015625)"/>
      </defs>
      <use xlink:href="#DejaVuSans-32"/>
     </g>
    </g>
   </g>
   <g id="text_4">
    <g clip-path="url(#p20f813d335)">
     <!-- 3 -->
     <g style="opacity: 0" transform="translate(576.703442 151.853124) rotate(-88.068998) scale(0.12 -0.12)">
      <defs>
       <path id="DejaVuSans-33" d="M 2597 2516 
Q 3050 2419 3304 2112 
Q 3559 1806 3559 1356 
Q 3559 666 3084 287 
Q 2609 -91 1734 -91 
Q 1441 -91 1130 -33 
Q 819 25 488 141 
L 488 750 
Q 750 597 1062 519 
Q 1375 441 1716 441 
Q 2309 441 2620 675 
Q 2931 909 2931 1356 
Q 2931 1769 2642 2001 
Q 2353 2234 1838 2234 
L 1294 2234 
L 1294 2753 
L 1863 2753 
Q 2328 2753 2575 2939 
Q 2822 3125 2822 3475 
Q 2822 3834 2567 4026 
Q 2313 4219 1838 4219 
Q 1578 4219 1281 4162 
Q 984 4106 628 3988 
L 628 4550 
Q 988 4650 1302 4700 
Q 1616 4750 1894 4750 
Q 2613 4750 3031 4423 
Q 3450 4097 3450 3541 
Q 3450 3153 3228 2886 
Q 3006 2619 2597 2516 
z
" transform="scale(0.015625)"/>
      </defs>
      <use xlink:href="#DejaVuSans-33"/>
     </g>
    </g>
   </g>
   <g id="text_5">
    <g clip-path="url(#p20f813d335)">
     <!-- 3 -->
     <g style="opacity: 0" transform="translate(559.964789 70.269596) rotate(-75.509263) scale(0.12 -0.12)">
      <use xlink:href="#DejaVuSans-33"/>
     </g>
    </g>
   </g>
   <g id="text_6">
    <g clip-path="url(#p20f813d335)">
     <!-- 4 -->
     <g style="opacity: 0" transform="translate(576.98793 151.84247) rotate(-88.260525) scale(0.12 -0.12)">
      <defs>
       <path id="DejaVuSans-34" d="M 2419 4116 
L 825 1625 
L 2419 1625 
L 2419 4116 
z
M 2253 4666 
L 3047 4666 
L 3047 1625 
L 3713 1625 
L 3713 1100 
L 3047 1100 
L 3047 0 
L 2419 0 
L 2419 1100 
L 313 1100 
L 313 1709 
L 2253 4666 
z
" transform="scale(0.015625)"/>
      </defs>
      <use xlink:href="#DejaVuSans-34"/>
     </g>
    </g>
   </g>
   <g id="text_7">
    <g clip-path="url(#p20f813d335)">
     <!-- 4 -->
     <g style="opacity: 0" transform="translate(548.958131 33.358106) rotate(-285.392853) scale(0.12 -0.12)">
      <use xlink:href="#DejaVuSans-34"/>
     </g>
    </g>
   </g>
   <g id="text_8">
    <g clip-path="url(#p20f813d335)">
     <!-- 5 -->
     <g style="opacity: 0" transform="translate(577.273939 151.830493) rotate(-88.474895) scale(0.12 -0.12)">
      <defs>
       <path id="DejaVuSans-35" d="M 691 4666 
L 3169 4666 
L 3169 4134 
L 1269 4134 
L 1269 2991 
Q 1406 3038 1543 3061 
Q 1681 3084 1819 3084 
Q 2600 3084 3056 2656 
Q 3513 2228 3513 1497 
Q 3513 744 3044 326 
Q 2575 -91 1722 -91 
Q 1428 -91 1123 -41 
Q 819 9 494 109 
L 494 744 
Q 775 591 1075 516 
Q 1375 441 1709 441 
Q 2250 441 2565 725 
Q 2881 1009 2881 1497 
Q 2881 1984 2565 2268 
Q 2250 2553 1709 2553 
Q 1456 2553 1204 2497 
Q 953 2441 691 2322 
L 691 4666 
z
" transform="scale(0.015625)"/>
      </defs>
      <use xlink:href="#DejaVuSans-35"/>
     </g>
    </g>
   </g>
   <g id="text_9">
    <g clip-path="url(#p20f813d335)">
     <!-- 5 -->
     <g style="opacity: 0" transform="translate(570.392441 124.68803) rotate(-274.995084) scale(0.12 -0.12)">
      <use xlink:href="#DejaVuSans-35"/>
     </g>
    </g>
   </g>
   <g id="text_10">
    <g clip-path="url(#p20f813d335)">
     <!-- 6 -->
     <g style="opacity: 0" transform="translate(577.559892 151.818469) rotate(-88.689118) scale(0.12 -0.12)">
      <defs>
       <path id="DejaVuSans-36" d="M 2113 2584 
Q 1688 2584 1439 2293 
Q 1191 2003 1191 1497 
Q 1191 994 1439 701 
Q 1688 409 2113 409 
Q 2538 409 2786 701 
Q 3034 994 3034 1497 
Q 3034 2003 2786 2293 
Q 2538 2584 2113 2584 
z
M 3366 4563 
L 3366 3988 
Q 3128 4100 2886 4159 
Q 2644 4219 2406 4219 
Q 1781 4219 1451 3797 
Q 1122 3375 1075 2522 
Q 1259 2794 1537 2939 
Q 1816 3084 2150 3084 
Q 2853 3084 3261 2657 
Q 3669 2231 3669 1497 
Q 3669 778 3244 343 
Q 2819 -91 2113 -91 
Q 1303 -91 875 529 
Q 447 1150 447 2328 
Q 447 3434 972 4092 
Q 1497 4750 2381 4750 
Q 2619 4750 2861 4703 
Q 3103 4656 3366 4563 
z
" transform="scale(0.015625)"/>
      </defs>
      <use xlink:href="#DejaVuSans-36"/>
     </g>
    </g>
   </g>
   <g id="text_11">
    <g clip-path="url(#p20f813d335)">
     <!-- 6 -->
     <g style="opacity: 0" transform="translate(565.513151 112.26108) rotate(-324.678828) scale(0.12 -0.12)">
      <use xlink:href="#DejaVuSans-36"/>
     </g>
    </g>
   </g>
   <g id="text_12">
    <g clip-path="url(#p20f813d335)">
     <!-- 7 -->
     <g style="opacity: 0" transform="translate(577.845793 151.806399) rotate(-88.903214) scale(0.12 -0.12)">
      <defs>
       <path id="DejaVuSans-37" d="M 525 4666 
L 3525 4666 
L 3525 4397 
L 1831 0 
L 1172 0 
L 2766 4134 
L 525 4134 
L 525 4666 
z
" transform="scale(0.015625)"/>
      </defs>
      <use xlink:href="#DejaVuSans-37"/>
     </g>
    </g>
   </g>
   <g id="text_13">
    <g clip-path="url(#p20f813d335)">
     <!-- 7 -->
     <g style="opacity: 0" transform="translate(551.138698 39.151416) rotate(-273.909972) scale(0.12 -0.12)">
      <use xlink:href="#DejaVuSans-37"/>
     </g>
    </g>
   </g>
   <g id="text_14">
    <g clip-path="url(#p20f813d335)">
     <!-- 8 -->
     <g style="opacity: 0" transform="translate(578.13164 151.79428) rotate(-89.117205) scale(0.12 -0.12)">
      <defs>
       <path id="DejaVuSans-38" d="M 2034 2216 
Q 1584 2216 1326 1975 
Q 1069 1734 1069 1313 
Q 1069 891 1326 650 
Q 1584 409 2034 409 
Q 2484 409 2743 651 
Q 3003 894 3003 1313 
Q 3003 1734 2745 1975 
Q 2488 2216 2034 2216 
z
M 1403 2484 
Q 997 2584 770 2862 
Q 544 3141 544 3541 
Q 544 4100 942 4425 
Q 1341 4750 2034 4750 
Q 2731 4750 3128 4425 
Q 3525 4100 3525 3541 
Q 3525 3141 3298 2862 
Q 3072 2584 2669 2484 
Q 3125 2378 3379 2068 
Q 3634 1759 3634 1313 
Q 3634 634 3220 271 
Q 2806 -91 2034 -91 
Q 1263 -91 848 271 
Q 434 634 434 1313 
Q 434 1759 690 2068 
Q 947 2378 1403 2484 
z
M 1172 3481 
Q 1172 3119 1398 2916 
Q 1625 2713 2034 2713 
Q 2441 2713 2670 2916 
Q 2900 3119 2900 3481 
Q 2900 3844 2670 4047 
Q 2441 4250 2034 4250 
Q 1625 4250 1398 4047 
Q 1172 3844 1172 3481 
z
" transform="scale(0.015625)"/>
      </defs>
      <use xlink:href="#DejaVuSans-38"/>
     </g>
    </g>
   </g>
   <g id="text_15">
    <g clip-path="url(#p20f813d335)">
     <!-- 8 -->
     <g style="opacity: 0" transform="translate(551.48012 39.112234) rotate(-273.276506) scale(0.12 -0.12)">
      <use xlink:href="#DejaVuSans-38"/>
     </g>
    </g>
   </g>
   <g id="text_16">
    <g clip-path="url(#p20f813d335)">
     <!-- 9 -->
     <g style="opacity: 0" transform="translate(578.417437 151.782112) rotate(-89.33111) scale(0.12 -0.12)">
      <defs>
       <path id="DejaVuSans-39" d="M 703 97 
L 703 672 
Q 941 559 1184 500 
Q 1428 441 1663 441 
Q 2288 441 2617 861 
Q 2947 1281 2994 2138 
Q 2813 1869 2534 1725 
Q 2256 1581 1919 1581 
Q 1219 1581 811 2004 
Q 403 2428 403 3163 
Q 403 3881 828 4315 
Q 1253 4750 1959 4750 
Q 2769 4750 3195 4129 
Q 3622 3509 3622 2328 
Q 3622 1225 3098 567 
Q 2575 -91 1691 -91 
Q 1453 -91 1209 -44 
Q 966 3 703 97 
z
M 1959 2075 
Q 2384 2075 2632 2365 
Q 2881 2656 2881 3163 
Q 2881 3666 2632 3958 
Q 2384 4250 1959 4250 
Q 1534 4250 1286 3958 
Q 1038 3666 1038 3163 
Q 1038 2656 1286 2365 
Q 1534 2075 1959 2075 
z
" transform="scale(0.015625)"/>
      </defs>
      <use xlink:href="#DejaVuSans-39"/>
     </g>
    </g>
   </g>
   <g id="text_17">
    <g clip-path="url(#p20f813d335)">
     <!-- 9 -->
     <g style="opacity: 0" transform="translate(551.822002 39.073466) rotate(-272.642583) scale(0.12 -0.12)">
      <use xlink:href="#DejaVuSans-39"/>
     </g>
    </g>
   </g>
   <g id="text_18">
    <g clip-path="url(#p20f813d335)">
     <!-- 9 -->
     <g style="opacity: 0" transform="translate(559.739521 105.65437) rotate(-285.075951) scale(0.12 -0.12)">
      <use xlink:href="#DejaVuSans-39"/>
     </g>
    </g>
   </g>
   <g id="text_19">
    <g clip-path="url(#p20f813d335)">
     <!-- 10 -->
     <g style="opacity: 0" transform="translate(550.64892 19.161022) rotate(-277.506757) scale(0.12 -0.12)">
      <use xlink:href="#DejaVuSans-31"/>
      <use xlink:href="#DejaVuSans-30" transform="translate(63.623047 0)"/>
     </g>
    </g>
   </g>
   <g id="text_20">
    <g clip-path="url(#p20f813d335)">
     <!-- 11 -->
     <g style="opacity: 0" transform="translate(552.03666 22.098808) rotate(-272.450595) scale(0.12 -0.12)">
      <use xlink:href="#DejaVuSans-31"/>
      <use xlink:href="#DejaVuSans-31" transform="translate(63.623047 0)"/>
     </g>
    </g>
   </g>
   <g id="text_21">
    <g clip-path="url(#p20f813d335)">
     <!-- 12 -->
     <g style="opacity: 0" transform="translate(552.834342 21.966682) rotate(-270.282841) scale(0.12 -0.12)">
      <use xlink:href="#DejaVuSans-31"/>
      <use xlink:href="#DejaVuSans-32" transform="translate(63.623047 0)"/>
     </g>
    </g>
   </g>
  </g>
 </g>
 <defs>
  <clipPath id="p20f813d335">
   <rect x="0" y="0" width="576" height="818.525063"/>
  </clipPath>
 </defs>
</svg>
