<?xml version="1.0" encoding="utf-8" standalone="no"?>
<!DOCTYPE svg PUBLIC "-//W3C//DTD SVG 1.1//EN"
  "http://www.w3.org/Graphics/SVG/1.1/DTD/svg11.dtd">
<svg xmlns:xlink="http://www.w3.org/1999/xlink" width="576pt" height="820.551837pt" viewBox="0 0 576 820.551837" xmlns="http://www.w3.org/2000/svg" version="1.1">
 <metadata>
  <rdf:RDF xmlns:dc="http://purl.org/dc/elements/1.1/" xmlns:cc="http://creativecommons.org/ns#" xmlns:rdf="http://www.w3.org/1999/02/22-rdf-syntax-ns#">
   <cc:Work>
    <dc:type rdf:resource="http://purl.org/dc/dcmitype/StillImage"/>
    <dc:date>2025-07-25T22:45:05.610394</dc:date>
    <dc:format>image/svg+xml</dc:format>
    <dc:creator>
     <cc:Agent>
      <dc:title>Matplotlib v3.10.3, https://matplotlib.org/</dc:title>
     </cc:Agent>
    </dc:creator>
   </cc:Work>
  </rdf:RDF>
 </metadata>
 <defs>
  <style type="text/css">*{stroke-linejoin: round; stroke-linecap: butt}</style>
 </defs>
 <g id="figure_1">
  <g id="patch_1">
   <path d="M 0 820.551837 
L 576 820.551837 
L 576 0 
L 0 0 
L 0 820.551837 
z
" style="fill: none; opacity: 0"/>
  </g>
  <g id="axes_1">
   <g id="QuadContourSet_1">
    <path d="M 3.291429 115.465681 
L 4.260828 115.338612 
L 6.582857 114.687002 
L 9.874286 113.255762 
L 10.969048 115.338612 
L 13.165714 117.529632 
L 15.354102 115.338612 
L 16.457143 114.234243 
L 18.64553 112.043223 
L 19.748571 110.938854 
L 21.936959 108.747834 
L 21.528502 105.452445 
L 23.04 104.464934 
L 26.331429 102.417779 
L 26.591839 102.157056 
L 29.365093 98.861667 
L 29.622857 98.592337 
L 32.495588 95.566278 
L 32.914286 95.091565 
L 36.205714 93.183465 
L 39.497143 92.889426 
L 40.114937 92.270889 
L 42.788571 90.166712 
L 43.886482 92.270889 
L 46.08 94.475889 
L 48.28235 92.270889 
L 49.371429 91.1805 
L 51.573779 88.9755 
L 52.662857 87.885111 
L 54.865207 85.680111 
L 54.795937 82.384723 
L 55.954286 81.559416 
L 59.245714 79.458293 
L 59.614231 79.089334 
L 62.323057 75.793945 
L 62.537143 75.569979 
L 65.418078 72.498556 
L 65.828571 72.031212 
L 69.12 70.322244 
L 72.411429 69.842796 
L 73.050289 69.203167 
L 75.702857 67.119353 
L 76.78708 69.203167 
L 78.994286 71.350996 
L 81.139533 69.203167 
L 82.285714 68.055607 
L 84.430962 65.907778 
L 85.577143 64.760218 
L 87.722391 62.612389 
L 87.646757 59.317 
L 88.868571 58.440404 
L 92.16 56.275592 
L 92.413675 56.021611 
L 95.176244 52.726222 
L 95.451429 52.437491 
L 98.242746 49.430834 
L 98.742857 48.85888 
L 102.027342 46.135445 
L 102.034286 46.12705 
L 102.094229 46.135445 
L 105.325714 46.624065 
L 105.813747 46.135445 
L 108.617143 43.936613 
L 109.758651 46.135445 
L 109.758651 49.430834 
L 111.908571 52.726222 
L 115.2 49.430834 
L 114.064787 46.135445 
L 115.2 44.998866 
L 117.356216 42.840056 
L 118.491429 41.703477 
L 120.647644 39.544667 
L 120.566829 36.249278 
L 121.782857 35.38062 
L 125.074286 33.251787 
L 125.371826 32.953889 
L 128.123483 29.6585 
L 128.365714 29.403527 
L 131.162124 26.363111 
L 131.657143 25.79461 
L 134.948571 23.104895 
L 138.24 23.572721 
L 138.744392 23.067722 
L 141.531429 20.884852 
L 142.662331 23.067722 
L 142.662331 26.363111 
L 144.822857 29.6585 
L 148.114286 26.363111 
L 146.949637 23.067722 
L 148.114286 21.901672 
L 150.241066 19.772333 
L 151.405714 18.606284 
L 153.532494 16.476945 
L 153.456569 13.181556 
L 154.697143 12.291384 
L 157.988571 10.123038 
L 158.225158 9.886167 
L 160.619904 6.590778 
L 161.28 5.731924 
L 163.886499 3.295389 
L 164.571429 2.234351 
L 167.738822 0 
L 166.061224 0 
L 164.571429 1.050935 
L 163.12257 3.295389 
L 161.28 5.01781 
L 160.071052 6.590778 
L 157.988571 9.313471 
L 157.337549 9.886167 
L 154.697143 11.723697 
L 152.665421 13.181556 
L 153.085778 16.476945 
L 151.405714 18.15903 
L 149.79435 19.772333 
L 148.114286 21.454419 
L 146.502921 23.067722 
L 147.422943 26.363111 
L 144.822857 28.966325 
L 143.116135 26.363111 
L 143.116135 23.067722 
L 144.822857 20.896676 
L 145.945849 19.772333 
L 144.822857 17.658837 
L 141.932273 19.772333 
L 141.531429 20.008918 
L 139.605076 19.772333 
L 138.24 19.392496 
L 137.970935 19.772333 
L 134.948571 22.024548 
L 134.092027 23.067722 
L 131.657143 25.082767 
L 130.542291 26.363111 
L 128.365714 28.729609 
L 127.483244 29.6585 
L 125.074286 32.40477 
L 124.450138 32.953889 
L 121.782857 34.804894 
L 119.760874 36.249278 
L 120.192111 39.544667 
L 118.491429 41.247395 
L 116.900682 42.840056 
L 115.2 44.542784 
L 113.609254 46.135445 
L 114.504635 49.430834 
L 111.908571 52.030021 
L 110.212855 49.430834 
L 110.212855 46.135445 
L 111.908571 43.966087 
L 113.033249 42.840056 
L 111.908571 40.716358 
L 108.997684 42.840056 
L 108.617143 43.061703 
L 106.811294 42.840056 
L 105.325714 42.442032 
L 105.038267 42.840056 
L 102.034286 45.092744 
L 101.171754 46.135445 
L 98.742857 48.149442 
L 97.62242 49.430834 
L 95.451429 51.769309 
L 94.539411 52.726222 
L 92.16 55.446374 
L 91.509498 56.021611 
L 88.868571 57.865566 
L 86.84554 59.317 
L 87.266328 62.612389 
L 85.577143 64.303607 
L 83.974899 65.907778 
L 82.285714 67.598995 
L 80.683471 69.203167 
L 78.994286 70.894384 
L 77.256314 69.203167 
L 78.994286 67.01985 
L 80.105021 65.907778 
L 78.994286 63.847105 
L 76.209774 65.907778 
L 75.702857 66.21751 
L 73.170879 65.907778 
L 72.411429 65.712513 
L 72.267599 65.907778 
L 69.12 68.283725 
L 68.353397 69.203167 
L 65.828571 71.301067 
L 64.77675 72.498556 
L 62.537143 74.886247 
L 61.669484 75.793945 
L 59.245714 78.560629 
L 58.646455 79.089334 
L 55.954286 80.969016 
L 53.967288 82.384723 
L 54.393871 85.680111 
L 52.662857 87.413208 
L 51.102442 88.9755 
L 49.371429 90.708597 
L 47.811014 92.270889 
L 46.08 94.003986 
L 44.355928 92.270889 
L 46.08 90.077291 
L 47.180466 88.9755 
L 46.08 86.916444 
L 43.280318 88.9755 
L 42.788571 89.267005 
L 40.406254 88.9755 
L 39.497143 88.748572 
L 39.327156 88.9755 
L 36.205714 91.344075 
L 35.427481 92.270889 
L 32.914286 94.362511 
L 31.852561 95.566278 
L 29.622857 97.914989 
L 28.716833 98.861667 
L 26.331429 101.569118 
L 25.650866 102.157056 
L 23.04 103.897258 
L 20.65961 105.452445 
L 21.465319 108.747834 
L 19.748571 110.466647 
L 18.173891 112.043223 
L 16.457143 113.762036 
L 14.882462 115.338612 
L 13.165714 117.057425 
L 11.442472 115.338612 
L 13.165714 113.528147 
L 14.648854 112.043223 
L 13.165714 109.644903 
L 10.2163 112.043223 
L 9.874286 112.355045 
L 7.482789 112.043223 
L 6.582857 111.19925 
L 5.947235 112.043223 
L 3.291429 113.276187 
L 1.543914 115.338612 
L 0 116.401024 
L 0 117.721731 
z
M 11.204227 112.043223 
L 13.165714 110.448237 
L 14.152066 112.043223 
L 13.165714 113.030761 
z
M 44.798057 88.9755 
L 46.08 88.032681 
L 46.583891 88.9755 
L 46.08 89.479998 
z
M 77.685754 65.907778 
L 78.994286 64.939402 
L 79.516256 65.907778 
L 78.994286 66.430376 
z
M 110.499801 42.840056 
L 111.908571 41.812258 
L 112.452877 42.840056 
L 111.908571 43.385016 
z
M 143.416368 19.772333 
L 144.822857 18.743957 
L 145.369278 19.772333 
L 144.822857 20.319412 
z
M 16.457143 109.440369 
L 17.148846 108.747834 
L 16.457143 107.630223 
L 14.928402 108.747834 
z
M 49.371429 85.797149 
L 49.488326 85.680111 
L 49.371429 85.460188 
L 49.013276 85.680111 
z
M 82.285714 62.742076 
L 82.415245 62.612389 
L 82.285714 62.370725 
L 81.89619 62.612389 
z
M 115.2 39.697356 
L 115.352505 39.544667 
L 115.2 39.255395 
L 114.72259 39.544667 
z
M 148.114286 16.625647 
L 148.262809 16.476945 
L 148.114286 16.196174 
L 147.652546 16.476945 
z
M 177.737143 6.590778 
L 181.028571 3.295389 
L 181.028571 3.295389 
L 184.32 0 
L 183.632325 0 
L 181.028571 2.606887 
L 180.340897 3.295389 
L 177.737143 5.902276 
L 176.051544 3.295389 
L 176.051544 0 
L 175.606362 0 
L 175.606362 3.295389 
z
M 171.154286 0.422058 
L 171.575836 0 
L 171.154286 0 
L 168.39549 0 
z
" clip-path="url(#p79f5117cbd)" style="fill: #f5f9fe; fill-opacity: 0.9"/>
    <path d="M 1.543914 115.338612 
L 3.291429 113.276187 
L 5.947235 112.043223 
L 6.582857 111.19925 
L 7.482789 112.043223 
L 9.874286 112.355045 
L 10.2163 112.043223 
L 13.165714 109.644903 
L 14.648854 112.043223 
L 13.165714 113.528147 
L 11.442472 115.338612 
L 13.165714 117.057425 
L 14.882462 115.338612 
L 16.457143 113.762036 
L 18.173891 112.043223 
L 19.748571 110.466647 
L 21.465319 108.747834 
L 20.65961 105.452445 
L 23.04 103.897258 
L 25.650866 102.157056 
L 26.331429 101.569118 
L 28.716833 98.861667 
L 29.622857 97.914989 
L 31.852561 95.566278 
L 32.914286 94.362511 
L 35.427481 92.270889 
L 36.205714 91.344075 
L 39.327156 88.9755 
L 39.497143 88.748572 
L 40.406254 88.9755 
L 42.788571 89.267005 
L 43.280318 88.9755 
L 46.08 86.916444 
L 47.180466 88.9755 
L 46.08 90.077291 
L 44.355928 92.270889 
L 46.08 94.003986 
L 47.811014 92.270889 
L 49.371429 90.708597 
L 51.102442 88.9755 
L 52.662857 87.413208 
L 54.393871 85.680111 
L 53.967288 82.384723 
L 55.954286 80.969016 
L 58.646455 79.089334 
L 59.245714 78.560629 
L 61.669484 75.793945 
L 62.537143 74.886247 
L 64.77675 72.498556 
L 65.828571 71.301067 
L 68.353397 69.203167 
L 69.12 68.283725 
L 72.267599 65.907778 
L 72.411429 65.712513 
L 73.170879 65.907778 
L 75.702857 66.21751 
L 76.209774 65.907778 
L 78.994286 63.847105 
L 80.105021 65.907778 
L 78.994286 67.01985 
L 77.256314 69.203167 
L 78.994286 70.894384 
L 80.683471 69.203167 
L 82.285714 67.598995 
L 83.974899 65.907778 
L 85.577143 64.303607 
L 87.266328 62.612389 
L 86.84554 59.317 
L 88.868571 57.865566 
L 91.509498 56.021611 
L 92.16 55.446374 
L 94.539411 52.726222 
L 95.451429 51.769309 
L 97.62242 49.430834 
L 98.742857 48.149442 
L 101.171754 46.135445 
L 102.034286 45.092744 
L 105.038267 42.840056 
L 105.325714 42.442032 
L 106.811294 42.840056 
L 108.617143 43.061703 
L 108.997684 42.840056 
L 111.908571 40.716358 
L 113.033249 42.840056 
L 111.908571 43.966087 
L 110.212855 46.135445 
L 110.212855 49.430834 
L 111.908571 52.030021 
L 114.504635 49.430834 
L 113.609254 46.135445 
L 115.2 44.542784 
L 116.900682 42.840056 
L 118.491429 41.247395 
L 120.192111 39.544667 
L 119.760874 36.249278 
L 121.782857 34.804894 
L 124.450138 32.953889 
L 125.074286 32.40477 
L 127.483244 29.6585 
L 128.365714 28.729609 
L 130.542291 26.363111 
L 131.657143 25.082767 
L 134.092027 23.067722 
L 134.948571 22.024548 
L 137.970935 19.772333 
L 138.24 19.392496 
L 139.605076 19.772333 
L 141.531429 20.008918 
L 141.932273 19.772333 
L 144.822857 17.658837 
L 145.945849 19.772333 
L 144.822857 20.896676 
L 143.116135 23.067722 
L 143.116135 26.363111 
L 144.822857 28.966325 
L 147.422943 26.363111 
L 146.502921 23.067722 
L 148.114286 21.454419 
L 149.79435 19.772333 
L 151.405714 18.15903 
L 153.085778 16.476945 
L 152.665421 13.181556 
L 154.697143 11.723697 
L 157.337549 9.886167 
L 157.988571 9.313471 
L 160.071052 6.590778 
L 161.28 5.01781 
L 163.12257 3.295389 
L 164.571429 1.050935 
L 166.061224 0 
L 164.571429 0 
L 164.451197 0 
L 162.358642 3.295389 
L 161.28 4.303696 
L 159.522199 6.590778 
L 157.988571 8.595886 
L 156.521821 9.886167 
L 154.697143 11.156009 
L 151.874272 13.181556 
L 152.639062 16.476945 
L 151.405714 17.711776 
L 149.098484 16.476945 
L 148.114286 14.616409 
L 145.054552 16.476945 
L 144.822857 16.573718 
L 144.184508 16.476945 
L 141.531429 13.983463 
L 140.078687 16.476945 
L 138.24 17.407948 
L 136.565142 19.772333 
L 134.948571 20.976975 
L 133.23187 23.067722 
L 131.657143 24.370924 
L 129.922457 26.363111 
L 128.365714 28.055691 
L 126.843005 29.6585 
L 125.074286 31.674882 
L 123.620522 32.953889 
L 121.782857 34.229168 
L 118.954919 36.249278 
L 119.736577 39.544667 
L 118.491429 40.791313 
L 116.193277 39.544667 
L 115.2 37.660621 
L 112.090596 39.544667 
L 111.908571 39.620458 
L 111.413463 39.544667 
L 108.617143 36.990522 
L 107.200744 39.544667 
L 105.325714 40.532198 
L 103.659009 42.840056 
L 102.034286 44.058437 
L 100.316166 46.135445 
L 98.742857 47.440004 
L 97.002093 49.430834 
L 95.451429 51.101126 
L 93.902577 52.726222 
L 92.16 54.718344 
L 90.686211 56.021611 
L 88.868571 57.290729 
L 86.044322 59.317 
L 86.810265 62.612389 
L 85.577143 63.846995 
L 83.268925 62.612389 
L 82.285714 60.778025 
L 79.329008 62.612389 
L 78.994286 62.754808 
L 78.027951 62.612389 
L 75.702857 60.584123 
L 74.615029 62.612389 
L 72.411429 63.816987 
L 70.871383 65.907778 
L 69.12 67.229799 
L 67.474665 69.203167 
L 65.828571 70.570921 
L 64.135423 72.498556 
L 62.537143 74.202515 
L 61.015911 75.793945 
L 59.245714 77.814589 
L 57.800857 79.089334 
L 55.954286 80.378617 
L 53.13864 82.384723 
L 53.922535 85.680111 
L 52.662857 86.941305 
L 50.352716 85.680111 
L 49.371429 83.833973 
L 46.364935 85.680111 
L 46.08 85.800207 
L 45.283999 85.680111 
L 42.788571 83.567989 
L 41.688448 85.680111 
L 39.497143 86.913192 
L 37.952311 88.9755 
L 36.205714 90.300832 
L 34.551484 92.270889 
L 32.914286 93.633457 
L 31.209533 95.566278 
L 29.622857 97.237641 
L 28.068573 98.861667 
L 26.331429 100.833338 
L 24.79917 102.157056 
L 23.04 103.329583 
L 19.790719 105.452445 
L 20.99368 108.747834 
L 19.748571 109.99444 
L 17.863064 108.747834 
L 16.457143 106.476232 
L 13.349898 108.747834 
L 13.165714 108.841569 
L 12.342843 108.747834 
L 9.874286 106.421699 
L 6.582857 108.178836 
L 6.007724 108.747834 
L 3.291429 111.600451 
L 2.843552 112.043223 
L 0 115.129948 
L 0 115.338612 
L 0 116.401024 
z
M 11.915896 115.338612 
L 13.165714 114.025533 
L 14.410823 115.338612 
L 13.165714 116.585218 
z
M 15.145643 112.043223 
L 16.457143 110.155447 
L 17.702251 112.043223 
L 16.457143 113.289829 
z
M 14.928402 108.747834 
L 16.457143 107.630223 
L 17.148846 108.747834 
L 16.457143 109.440369 
z
M 44.825374 92.270889 
L 46.08 90.674584 
L 47.339678 92.270889 
L 46.08 93.532083 
z
M 47.777041 88.9755 
L 49.371429 86.66258 
L 50.631106 88.9755 
L 49.371429 90.236694 
z
M 49.013276 85.680111 
L 49.371429 85.460188 
L 49.488326 85.680111 
L 49.371429 85.797149 
z
M 77.725549 69.203167 
L 78.994286 67.609323 
L 80.227408 69.203167 
L 78.994286 70.437773 
z
M 80.693786 65.907778 
L 82.285714 63.596783 
L 83.518836 65.907778 
L 82.285714 67.142384 
z
M 81.89619 62.612389 
L 82.285714 62.370725 
L 82.415245 62.612389 
L 82.285714 62.742076 
z
M 110.667059 49.430834 
L 110.667059 46.135445 
L 111.908571 44.547157 
L 113.15372 46.135445 
L 113.80927 49.430834 
L 111.908571 51.333819 
z
M 113.613621 42.840056 
L 115.2 40.539139 
L 116.445148 42.840056 
L 115.2 44.086702 
z
M 114.72259 39.544667 
L 115.2 39.255395 
L 115.352505 39.544667 
L 115.2 39.697356 
z
M 143.56994 26.363111 
L 143.56994 23.067722 
L 144.822857 21.473941 
L 146.056205 23.067722 
L 146.7316 26.363111 
L 144.822857 28.274151 
z
M 146.522419 19.772333 
L 148.114286 17.462327 
L 149.347634 19.772333 
L 148.114286 21.007165 
z
M 147.652546 16.476945 
L 148.114286 16.196174 
L 148.262809 16.476945 
L 148.114286 16.625647 
z
M 177.737143 5.902276 
L 180.340897 3.295389 
L 181.028571 2.606887 
L 183.632325 0 
L 182.944651 0 
L 181.028571 1.918385 
L 179.653222 3.295389 
L 177.737143 5.213774 
L 176.496726 3.295389 
L 176.496726 0 
L 176.051544 0 
L 176.051544 3.295389 
z
" clip-path="url(#p79f5117cbd)" style="fill: #eff6fc; fill-opacity: 0.9"/>
    <path d="M 13.165714 116.585218 
L 14.410823 115.338612 
L 13.165714 114.025533 
L 11.915896 115.338612 
z
M 12.389319 115.338612 
L 13.165714 114.52292 
L 13.939183 115.338612 
L 13.165714 116.113011 
z
M 2.843552 112.043223 
L 3.291429 111.600451 
L 6.007724 108.747834 
L 6.582857 108.178836 
L 9.874286 106.421699 
L 12.342843 108.747834 
L 13.165714 108.841569 
L 13.349898 108.747834 
L 16.457143 106.476232 
L 17.863064 108.747834 
L 19.748571 109.99444 
L 20.99368 108.747834 
L 19.790719 105.452445 
L 23.04 103.329583 
L 24.79917 102.157056 
L 26.331429 100.833338 
L 28.068573 98.861667 
L 29.622857 97.237641 
L 31.209533 95.566278 
L 32.914286 93.633457 
L 34.551484 92.270889 
L 36.205714 90.300832 
L 37.952311 88.9755 
L 39.497143 86.913192 
L 41.688448 85.680111 
L 42.788571 83.567989 
L 45.283999 85.680111 
L 46.08 85.800207 
L 46.364935 85.680111 
L 49.371429 83.833973 
L 50.352716 85.680111 
L 52.662857 86.941305 
L 53.922535 85.680111 
L 53.13864 82.384723 
L 55.954286 80.378617 
L 57.800857 79.089334 
L 59.245714 77.814589 
L 61.015911 75.793945 
L 62.537143 74.202515 
L 64.135423 72.498556 
L 65.828571 70.570921 
L 67.474665 69.203167 
L 69.12 67.229799 
L 70.871383 65.907778 
L 72.411429 63.816987 
L 74.615029 62.612389 
L 75.702857 60.584123 
L 78.027951 62.612389 
L 78.994286 62.754808 
L 79.329008 62.612389 
L 82.285714 60.778025 
L 83.268925 62.612389 
L 85.577143 63.846995 
L 86.810265 62.612389 
L 86.044322 59.317 
L 88.868571 57.290729 
L 90.686211 56.021611 
L 92.16 54.718344 
L 93.902577 52.726222 
L 95.451429 51.101126 
L 97.002093 49.430834 
L 98.742857 47.440004 
L 100.316166 46.135445 
L 102.034286 44.058437 
L 103.659009 42.840056 
L 105.325714 40.532198 
L 107.200744 39.544667 
L 108.617143 36.990522 
L 111.413463 39.544667 
L 111.908571 39.620458 
L 112.090596 39.544667 
L 115.2 37.660621 
L 116.193277 39.544667 
L 118.491429 40.791313 
L 119.736577 39.544667 
L 118.954919 36.249278 
L 121.782857 34.229168 
L 123.620522 32.953889 
L 125.074286 31.674882 
L 126.843005 29.6585 
L 128.365714 28.055691 
L 129.922457 26.363111 
L 131.657143 24.370924 
L 133.23187 23.067722 
L 134.948571 20.976975 
L 136.565142 19.772333 
L 138.24 17.407948 
L 140.078687 16.476945 
L 141.531429 13.983463 
L 144.184508 16.476945 
L 144.822857 16.573718 
L 145.054552 16.476945 
L 148.114286 14.616409 
L 149.098484 16.476945 
L 151.405714 17.711776 
L 152.639062 16.476945 
L 151.874272 13.181556 
L 154.697143 11.156009 
L 156.521821 9.886167 
L 157.988571 8.595886 
L 159.522199 6.590778 
L 161.28 4.303696 
L 162.358642 3.295389 
L 164.451197 0 
L 163.3772 0 
L 161.594714 3.295389 
L 161.28 3.589581 
L 158.973347 6.590778 
L 157.988571 7.878301 
L 155.706092 9.886167 
L 154.697143 10.588322 
L 151.405714 11.997797 
L 148.114286 12.347802 
L 145.558575 9.886167 
L 144.822857 9.765593 
L 144.702159 9.886167 
L 141.531429 12.190547 
L 140.540003 13.181556 
L 138.24 15.797349 
L 137.559406 16.476945 
L 135.159349 19.772333 
L 134.948571 19.929401 
L 132.371713 23.067722 
L 131.657143 23.659081 
L 129.302624 26.363111 
L 128.365714 27.381773 
L 126.202766 29.6585 
L 125.074286 30.944994 
L 122.790906 32.953889 
L 121.782857 33.653442 
L 118.491429 35.00539 
L 115.2 35.196502 
L 112.782356 32.953889 
L 111.908571 32.818628 
L 111.772916 32.953889 
L 108.617143 35.257704 
L 107.623775 36.249278 
L 105.325714 38.916661 
L 104.694379 39.544667 
L 102.279752 42.840056 
L 102.034286 43.024131 
L 99.460578 46.135445 
L 98.742857 46.730566 
L 96.381767 49.430834 
L 95.451429 50.432944 
L 93.265744 52.726222 
L 92.16 53.990314 
L 89.862925 56.021611 
L 88.868571 56.715892 
L 85.577143 58.091602 
L 82.285714 58.533094 
L 79.391369 56.021611 
L 78.994286 55.965139 
L 78.937526 56.021611 
L 75.702857 58.395393 
L 74.778089 59.317 
L 72.411429 62.116467 
L 71.910592 62.612389 
L 69.475167 65.907778 
L 69.12 66.175874 
L 66.595933 69.203167 
L 65.828571 69.840775 
L 63.494095 72.498556 
L 62.537143 73.518782 
L 60.362338 75.793945 
L 59.245714 77.068549 
L 56.955259 79.089334 
L 55.954286 79.788217 
L 52.662857 81.109709 
L 49.371429 81.342972 
L 46.640375 79.089334 
L 46.08 79.015165 
L 46.005302 79.089334 
L 42.788571 81.460274 
L 41.859521 82.384723 
L 39.497143 85.227724 
L 39.038169 85.680111 
L 36.577467 88.9755 
L 36.205714 89.257589 
L 33.675486 92.270889 
L 32.914286 92.904403 
L 30.566506 95.566278 
L 29.622857 96.560293 
L 27.420313 98.861667 
L 26.331429 100.097558 
L 23.947473 102.157056 
L 23.04 102.761908 
L 19.748571 103.50388 
L 16.457143 104.302235 
L 14.126032 102.157056 
L 13.165714 102.024218 
L 13.030349 102.157056 
L 9.874286 104.4735 
L 8.881783 105.452445 
L 6.582857 107.263464 
L 5.082481 108.747834 
L 3.291429 110.628774 
L 1.860672 112.043223 
L 0 114.063014 
L 0 115.129948 
z
M 18.577283 108.747834 
L 19.748571 106.6624 
L 20.52204 108.747834 
L 19.748571 109.522233 
z
M 51.217106 85.680111 
L 52.662857 83.053463 
L 53.451199 85.680111 
L 52.662857 86.469402 
z
M 84.122606 62.612389 
L 85.577143 59.964832 
L 86.354202 62.612389 
L 85.577143 63.390384 
z
M 117.034049 39.544667 
L 118.491429 36.898061 
L 119.281043 39.544667 
L 118.491429 40.335232 
z
M 149.934158 16.476945 
L 151.405714 13.801149 
L 152.192346 16.476945 
L 151.405714 17.264523 
z
M 16.457143 113.289829 
L 17.702251 112.043223 
L 16.457143 110.155447 
L 15.145643 112.043223 
z
M 15.642431 112.043223 
L 16.457143 110.870525 
L 17.230612 112.043223 
L 16.457143 112.817622 
z
M 46.08 93.532083 
L 47.339678 92.270889 
L 46.08 90.674584 
L 44.825374 92.270889 
z
M 45.29482 92.270889 
L 46.08 91.271877 
L 46.868342 92.270889 
L 46.08 93.060179 
z
M 49.371429 90.236694 
L 50.631106 88.9755 
L 49.371429 86.66258 
L 47.777041 88.9755 
z
M 48.373616 88.9755 
L 49.371429 87.52801 
L 50.15977 88.9755 
L 49.371429 89.764791 
z
M 78.994286 70.437773 
L 80.227408 69.203167 
L 78.994286 67.609323 
L 77.725549 69.203167 
z
M 78.194784 69.203167 
L 78.994286 68.198797 
L 79.771345 69.203167 
L 78.994286 69.981161 
z
M 82.285714 67.142384 
L 83.518836 65.907778 
L 82.285714 63.596783 
L 80.693786 65.907778 
z
M 81.282551 65.907778 
L 82.285714 64.451491 
L 83.062774 65.907778 
L 82.285714 66.685772 
z
M 111.908571 51.333819 
L 113.80927 49.430834 
L 113.15372 46.135445 
L 111.908571 44.547157 
L 110.667059 46.135445 
L 110.667059 49.430834 
z
M 111.121262 49.430834 
L 111.121262 46.135445 
L 111.908571 45.128227 
L 112.698186 46.135445 
L 113.113905 49.430834 
L 111.908571 50.637618 
z
M 115.2 44.086702 
L 116.445148 42.840056 
L 115.2 40.539139 
L 113.613621 42.840056 
z
M 114.193993 42.840056 
L 115.2 41.380922 
L 115.989615 42.840056 
L 115.2 43.63062 
z
M 144.822857 28.274151 
L 146.7316 26.363111 
L 146.056205 23.067722 
L 144.822857 21.473941 
L 143.56994 23.067722 
L 143.56994 26.363111 
z
M 144.023744 26.363111 
L 144.023744 23.067722 
L 144.822857 22.051205 
L 145.609489 23.067722 
L 146.040257 26.363111 
L 144.822857 27.581976 
z
M 148.114286 21.007165 
L 149.347634 19.772333 
L 148.114286 17.462327 
L 146.522419 19.772333 
z
M 147.09899 19.772333 
L 148.114286 18.299006 
L 148.900917 19.772333 
L 148.114286 20.559912 
z
M 177.737143 5.213774 
L 179.653222 3.295389 
L 181.028571 1.918385 
L 182.944651 0 
L 182.256976 0 
L 181.028571 1.229883 
L 178.965548 3.295389 
L 177.737143 4.525272 
L 176.941907 3.295389 
L 176.941907 0 
L 176.496726 0 
L 176.496726 3.295389 
z
" clip-path="url(#p79f5117cbd)" style="fill: #eaf3fb; fill-opacity: 0.9"/>
    <path d="M 13.165714 116.113011 
L 13.939183 115.338612 
L 13.165714 114.52292 
L 12.389319 115.338612 
z
M 12.862743 115.338612 
L 13.165714 115.020306 
L 13.467543 115.338612 
L 13.165714 115.640804 
z
M 1.860672 112.043223 
L 3.291429 110.628774 
L 5.082481 108.747834 
L 6.582857 107.263464 
L 8.881783 105.452445 
L 9.874286 104.4735 
L 13.030349 102.157056 
L 13.165714 102.024218 
L 14.126032 102.157056 
L 16.457143 104.302235 
L 19.748571 103.50388 
L 23.04 102.761908 
L 23.947473 102.157056 
L 26.331429 100.097558 
L 27.420313 98.861667 
L 29.622857 96.560293 
L 30.566506 95.566278 
L 32.914286 92.904403 
L 33.675486 92.270889 
L 36.205714 89.257589 
L 36.577467 88.9755 
L 39.038169 85.680111 
L 39.497143 85.227724 
L 41.859521 82.384723 
L 42.788571 81.460274 
L 46.005302 79.089334 
L 46.08 79.015165 
L 46.640375 79.089334 
L 49.371429 81.342972 
L 52.662857 81.109709 
L 55.954286 79.788217 
L 56.955259 79.089334 
L 59.245714 77.068549 
L 60.362338 75.793945 
L 62.537143 73.518782 
L 63.494095 72.498556 
L 65.828571 69.840775 
L 66.595933 69.203167 
L 69.12 66.175874 
L 69.475167 65.907778 
L 71.910592 62.612389 
L 72.411429 62.116467 
L 74.778089 59.317 
L 75.702857 58.395393 
L 78.937526 56.021611 
L 78.994286 55.965139 
L 79.391369 56.021611 
L 82.285714 58.533094 
L 85.577143 58.091602 
L 88.868571 56.715892 
L 89.862925 56.021611 
L 92.16 53.990314 
L 93.265744 52.726222 
L 95.451429 50.432944 
L 96.381767 49.430834 
L 98.742857 46.730566 
L 99.460578 46.135445 
L 102.034286 43.024131 
L 102.279752 42.840056 
L 104.694379 39.544667 
L 105.325714 38.916661 
L 107.623775 36.249278 
L 108.617143 35.257704 
L 111.772916 32.953889 
L 111.908571 32.818628 
L 112.782356 32.953889 
L 115.2 35.196502 
L 118.491429 35.00539 
L 121.782857 33.653442 
L 122.790906 32.953889 
L 125.074286 30.944994 
L 126.202766 29.6585 
L 128.365714 27.381773 
L 129.302624 26.363111 
L 131.657143 23.659081 
L 132.371713 23.067722 
L 134.948571 19.929401 
L 135.159349 19.772333 
L 137.559406 16.476945 
L 138.24 15.797349 
L 140.540003 13.181556 
L 141.531429 12.190547 
L 144.702159 9.886167 
L 144.822857 9.765593 
L 145.558575 9.886167 
L 148.114286 12.347802 
L 151.405714 11.997797 
L 154.697143 10.588322 
L 155.706092 9.886167 
L 157.988571 7.878301 
L 158.973347 6.590778 
L 161.28 3.589581 
L 161.594714 3.295389 
L 163.3772 0 
L 162.303202 0 
L 161.28 2.037682 
L 159.917538 3.295389 
L 158.424494 6.590778 
L 157.988571 7.160716 
L 154.890364 9.886167 
L 154.697143 10.020634 
L 153.166971 9.886167 
L 151.405714 7.419307 
L 150.583801 6.590778 
L 148.114286 5.910479 
L 147.432372 6.590778 
L 144.822857 8.21906 
L 143.154032 9.886167 
L 141.531429 11.06542 
L 139.414401 13.181556 
L 138.24 14.517202 
L 136.27738 16.476945 
L 134.948571 18.287462 
L 133.394911 19.772333 
L 131.657143 22.569741 
L 131.118554 23.067722 
L 128.682791 26.363111 
L 128.365714 26.707855 
L 125.562526 29.6585 
L 125.074286 30.215106 
L 121.961291 32.953889 
L 121.782857 33.077716 
L 120.406326 32.953889 
L 118.491429 30.230347 
L 117.906146 29.6585 
L 115.2 28.958902 
L 114.49669 29.6585 
L 111.908571 31.291167 
L 110.241002 32.953889 
L 108.617143 34.139358 
L 106.503405 36.249278 
L 105.325714 37.616236 
L 103.387058 39.544667 
L 102.034286 41.38114 
L 100.500317 42.840056 
L 98.742857 45.653991 
L 98.217716 46.135445 
L 95.76144 49.430834 
L 95.451429 49.764761 
L 92.628911 52.726222 
L 92.16 53.262284 
L 89.039638 56.021611 
L 88.868571 56.141054 
L 87.510309 56.021611 
L 85.577143 53.236371 
L 85.024888 52.726222 
L 82.285714 52.078124 
L 81.632045 52.726222 
L 78.994286 54.411072 
L 77.375553 56.021611 
L 75.702857 57.249129 
L 73.627894 59.317 
L 72.411429 60.755928 
L 70.536572 62.612389 
L 69.12 64.524728 
L 67.655993 65.907778 
L 65.828571 68.808202 
L 65.392761 69.203167 
L 62.852768 72.498556 
L 62.537143 72.83505 
L 59.708765 75.793945 
L 59.245714 76.322508 
L 56.109661 79.089334 
L 55.954286 79.197817 
L 54.76604 79.089334 
L 52.662857 76.000619 
L 52.42979 75.793945 
L 49.371429 75.122344 
L 48.692015 75.793945 
L 46.08 77.479686 
L 44.458859 79.089334 
L 42.788571 80.320444 
L 40.714018 82.384723 
L 39.497143 83.849169 
L 37.639546 85.680111 
L 36.205714 87.605339 
L 34.747908 88.9755 
L 32.914286 91.85911 
L 32.456037 92.270889 
L 29.923479 95.566278 
L 29.622857 95.882945 
L 26.772053 98.861667 
L 26.331429 99.361778 
L 23.095777 102.157056 
L 23.04 102.194233 
L 22.51146 102.157056 
L 19.818813 98.861667 
L 19.748571 98.794427 
L 16.457143 98.123811 
L 15.697429 98.861667 
L 13.165714 100.491842 
L 11.46882 102.157056 
L 9.874286 103.32739 
L 7.719801 105.452445 
L 6.582857 106.348092 
L 4.157239 108.747834 
L 3.291429 109.657096 
L 0.877791 112.043223 
L 0 112.996081 
L 0 114.063014 
z
M 16.457143 112.817622 
L 17.230612 112.043223 
L 16.457143 110.870525 
L 15.642431 112.043223 
z
M 16.13922 112.043223 
L 16.457143 111.585603 
L 16.758972 112.043223 
L 16.457143 112.345415 
z
M 19.748571 109.522233 
L 20.52204 108.747834 
L 19.748571 106.6624 
L 18.577283 108.747834 
z
M 19.291502 108.747834 
L 19.748571 107.934039 
L 20.050401 108.747834 
L 19.748571 109.050026 
z
M 46.08 93.060179 
L 46.868342 92.270889 
L 46.08 91.271877 
L 45.29482 92.270889 
z
M 45.764266 92.270889 
L 46.08 91.869169 
L 46.397006 92.270889 
L 46.08 92.588276 
z
M 49.371429 89.764791 
L 50.15977 88.9755 
L 49.371429 87.52801 
L 48.373616 88.9755 
z
M 48.970191 88.9755 
L 49.371429 88.39344 
L 49.688434 88.9755 
L 49.371429 89.292887 
z
M 52.662857 86.469402 
L 53.451199 85.680111 
L 52.662857 83.053463 
L 51.217106 85.680111 
z
M 52.081496 85.680111 
L 52.662857 84.623892 
L 52.979863 85.680111 
L 52.662857 85.997498 
z
M 78.994286 69.981161 
L 79.771345 69.203167 
L 78.994286 68.198797 
L 78.194784 69.203167 
z
M 78.664018 69.203167 
L 78.994286 68.78827 
L 79.315282 69.203167 
L 78.994286 69.52455 
z
M 82.285714 66.685772 
L 83.062774 65.907778 
L 82.285714 64.451491 
L 81.282551 65.907778 
z
M 81.871316 65.907778 
L 82.285714 65.306198 
L 82.606711 65.907778 
L 82.285714 66.229161 
z
M 85.577143 63.390384 
L 86.354202 62.612389 
L 85.577143 59.964832 
L 84.122606 62.612389 
z
M 84.976286 62.612389 
L 85.577143 61.518706 
L 85.898139 62.612389 
L 85.577143 62.933772 
z
M 111.908571 50.637618 
L 113.113905 49.430834 
L 112.698186 46.135445 
L 111.908571 45.128227 
L 111.121262 46.135445 
L 111.121262 49.430834 
z
M 111.575466 49.430834 
L 111.575466 46.135445 
L 111.908571 45.709297 
L 112.242652 46.135445 
L 112.41854 49.430834 
L 111.908571 49.941416 
z
M 115.2 43.63062 
L 115.989615 42.840056 
L 115.2 41.380922 
L 114.193993 42.840056 
z
M 114.774365 42.840056 
L 115.2 42.222706 
L 115.534081 42.840056 
L 115.2 43.174539 
z
M 118.491429 40.335232 
L 119.281043 39.544667 
L 118.491429 36.898061 
L 117.034049 39.544667 
z
M 117.874821 39.544667 
L 118.491429 38.424905 
L 118.825509 39.544667 
L 118.491429 39.87915 
z
M 144.822857 27.581976 
L 146.040257 26.363111 
L 145.609489 23.067722 
L 144.822857 22.051205 
L 144.023744 23.067722 
L 144.023744 26.363111 
z
M 144.477548 26.363111 
L 144.477548 23.067722 
L 144.822857 22.62847 
L 145.162773 23.067722 
L 145.348914 26.363111 
L 144.822857 26.889801 
z
M 148.114286 20.559912 
L 148.900917 19.772333 
L 148.114286 18.299006 
L 147.09899 19.772333 
z
M 147.675561 19.772333 
L 148.114286 19.135686 
L 148.454201 19.772333 
L 148.114286 20.112658 
z
M 151.405714 17.264523 
L 152.192346 16.476945 
L 151.405714 13.801149 
L 149.934158 16.476945 
z
M 150.769832 16.476945 
L 151.405714 15.320692 
L 151.74563 16.476945 
L 151.405714 16.817269 
z
M 177.737143 4.525272 
L 178.965548 3.295389 
L 181.028571 1.229883 
L 182.256976 0 
L 181.569301 0 
L 181.028571 0.541381 
L 178.277873 3.295389 
L 177.737143 3.83677 
L 177.387089 3.295389 
L 177.387089 0 
L 176.941907 0 
L 176.941907 3.295389 
z
" clip-path="url(#p79f5117cbd)" style="fill: #e5eff9; fill-opacity: 0.9"/>
    <path d="M 13.165714 115.640804 
L 13.467543 115.338612 
L 13.165714 115.020306 
L 12.862743 115.338612 
z
M 0.877791 112.043223 
L 3.291429 109.657096 
L 4.157239 108.747834 
L 6.582857 106.348092 
L 7.719801 105.452445 
L 9.874286 103.32739 
L 11.46882 102.157056 
L 13.165714 100.491842 
L 15.697429 98.861667 
L 16.457143 98.123811 
L 19.748571 98.794427 
L 19.818813 98.861667 
L 22.51146 102.157056 
L 23.04 102.194233 
L 23.095777 102.157056 
L 26.331429 99.361778 
L 26.772053 98.861667 
L 29.622857 95.882945 
L 29.923479 95.566278 
L 32.456037 92.270889 
L 32.914286 91.85911 
L 34.747908 88.9755 
L 36.205714 87.605339 
L 37.639546 85.680111 
L 39.497143 83.849169 
L 40.714018 82.384723 
L 42.788571 80.320444 
L 44.458859 79.089334 
L 46.08 77.479686 
L 48.692015 75.793945 
L 49.371429 75.122344 
L 52.42979 75.793945 
L 52.662857 76.000619 
L 54.76604 79.089334 
L 55.954286 79.197817 
L 56.109661 79.089334 
L 59.245714 76.322508 
L 59.708765 75.793945 
L 62.537143 72.83505 
L 62.852768 72.498556 
L 65.392761 69.203167 
L 65.828571 68.808202 
L 67.655993 65.907778 
L 69.12 64.524728 
L 70.536572 62.612389 
L 72.411429 60.755928 
L 73.627894 59.317 
L 75.702857 57.249129 
L 77.375553 56.021611 
L 78.994286 54.411072 
L 81.632045 52.726222 
L 82.285714 52.078124 
L 85.024888 52.726222 
L 85.577143 53.236371 
L 87.510309 56.021611 
L 88.868571 56.141054 
L 89.039638 56.021611 
L 92.16 53.262284 
L 92.628911 52.726222 
L 95.451429 49.764761 
L 95.76144 49.430834 
L 98.217716 46.135445 
L 98.742857 45.653991 
L 100.500317 42.840056 
L 102.034286 41.38114 
L 103.387058 39.544667 
L 105.325714 37.616236 
L 106.503405 36.249278 
L 108.617143 34.139358 
L 110.241002 32.953889 
L 111.908571 31.291167 
L 114.49669 29.6585 
L 115.2 28.958902 
L 117.906146 29.6585 
L 118.491429 30.230347 
L 120.406326 32.953889 
L 121.782857 33.077716 
L 121.961291 32.953889 
L 125.074286 30.215106 
L 125.562526 29.6585 
L 128.365714 26.707855 
L 128.682791 26.363111 
L 131.118554 23.067722 
L 131.657143 22.569741 
L 133.394911 19.772333 
L 134.948571 18.287462 
L 136.27738 16.476945 
L 138.24 14.517202 
L 139.414401 13.181556 
L 141.531429 11.06542 
L 143.154032 9.886167 
L 144.822857 8.21906 
L 147.432372 6.590778 
L 148.114286 5.910479 
L 150.583801 6.590778 
L 151.405714 7.419307 
L 153.166971 9.886167 
L 154.697143 10.020634 
L 154.890364 9.886167 
L 157.988571 7.160716 
L 158.424494 6.590778 
L 159.917538 3.295389 
L 161.28 2.037682 
L 162.303202 0 
L 161.28 0 
L 157.988571 0 
L 154.697143 0 
L 152.412567 0 
L 151.405714 0.239646 
L 148.472136 3.295389 
L 148.114286 3.437845 
L 144.953871 6.590778 
L 144.822857 6.672528 
L 141.605905 9.886167 
L 141.531429 9.940293 
L 138.2888 13.181556 
L 138.24 13.237056 
L 134.995355 16.476945 
L 134.948571 16.540687 
L 131.657143 18.041779 
L 128.365714 19.172024 
L 125.074286 19.637437 
L 124.884797 19.772333 
L 121.782857 21.856135 
L 119.38701 23.067722 
L 118.491429 23.274244 
L 115.648787 26.363111 
L 115.2 26.550339 
L 112.075346 29.6585 
L 111.908571 29.763707 
L 108.709088 32.953889 
L 108.617143 33.021012 
L 105.383035 36.249278 
L 105.325714 36.315811 
L 102.079737 39.544667 
L 102.034286 39.60637 
L 98.742857 40.929639 
L 95.451429 41.898917 
L 92.16 42.61712 
L 91.861058 42.840056 
L 88.868571 44.969113 
L 86.413684 46.135445 
L 85.577143 46.333576 
L 82.821571 49.430834 
L 82.285714 49.66585 
L 79.199037 52.726222 
L 78.994286 52.857006 
L 75.813579 56.021611 
L 75.702857 56.102866 
L 72.477699 59.317 
L 72.411429 59.39539 
L 69.162552 62.612389 
L 69.12 62.669833 
L 65.828571 63.764218 
L 62.537143 64.628474 
L 59.245714 65.589742 
L 58.834532 65.907778 
L 55.954286 68.06219 
L 54.531275 69.203167 
L 52.662857 69.873116 
L 49.96756 72.498556 
L 49.371429 72.770513 
L 46.312826 75.793945 
L 46.08 75.944206 
L 42.912415 79.089334 
L 42.788571 79.180615 
L 39.568515 82.384723 
L 39.497143 82.470615 
L 36.240923 85.680111 
L 36.205714 85.727387 
L 32.914286 86.552981 
L 29.622857 87.343116 
L 26.331429 88.543992 
L 25.789559 88.9755 
L 23.04 91.122137 
L 21.626359 92.270889 
L 19.748571 92.972273 
L 16.989681 95.566278 
L 16.457143 95.812453 
L 13.317599 98.861667 
L 13.165714 98.959466 
L 9.907291 102.157056 
L 9.874286 102.18128 
L 6.582857 105.064501 
L 5.591551 105.452445 
L 3.291429 106.894827 
L 0 107.896584 
L 0 108.747834 
L 0 112.043223 
L 0 112.996081 
z
M 16.457143 112.345415 
L 16.758972 112.043223 
L 16.457143 111.585603 
L 16.13922 112.043223 
z
M 19.748571 109.050026 
L 20.050401 108.747834 
L 19.748571 107.934039 
L 19.291502 108.747834 
z
M 46.08 92.588276 
L 46.397006 92.270889 
L 46.08 91.869169 
L 45.764266 92.270889 
z
M 49.371429 89.292887 
L 49.688434 88.9755 
L 49.371429 88.39344 
L 48.970191 88.9755 
z
M 52.662857 85.997498 
L 52.979863 85.680111 
L 52.662857 84.623892 
L 52.081496 85.680111 
z
M 78.994286 69.52455 
L 79.315282 69.203167 
L 78.994286 68.78827 
L 78.664018 69.203167 
z
M 82.285714 66.229161 
L 82.606711 65.907778 
L 82.285714 65.306198 
L 81.871316 65.907778 
z
M 85.577143 62.933772 
L 85.898139 62.612389 
L 85.577143 61.518706 
L 84.976286 62.612389 
z
M 111.908571 49.941416 
L 112.41854 49.430834 
L 112.242652 46.135445 
L 111.908571 45.709297 
L 111.575466 46.135445 
L 111.575466 49.430834 
z
M 115.2 43.174539 
L 115.534081 42.840056 
L 115.2 42.222706 
L 114.774365 42.840056 
z
M 118.491429 39.87915 
L 118.825509 39.544667 
L 118.491429 38.424905 
L 117.874821 39.544667 
z
M 144.822857 26.889801 
L 145.348914 26.363111 
L 145.162773 23.067722 
L 144.822857 22.62847 
L 144.477548 23.067722 
L 144.477548 26.363111 
z
M 148.114286 20.112658 
L 148.454201 19.772333 
L 148.114286 19.135686 
L 147.675561 19.772333 
z
M 151.405714 16.817269 
L 151.74563 16.476945 
L 151.405714 15.320692 
L 150.769832 16.476945 
z
M 177.737143 3.83677 
L 178.277873 3.295389 
L 181.028571 0.541381 
L 181.569301 0 
L 181.028571 0 
L 177.737143 0 
L 177.387089 0 
L 177.387089 3.295389 
z
" clip-path="url(#p79f5117cbd)" style="fill: #dfecf7; fill-opacity: 0.9"/>
    <path d="M 3.291429 106.894827 
L 5.591551 105.452445 
L 6.582857 105.064501 
L 9.874286 102.18128 
L 9.907291 102.157056 
L 13.165714 98.959466 
L 13.317599 98.861667 
L 16.457143 95.812453 
L 16.989681 95.566278 
L 19.748571 92.972273 
L 21.626359 92.270889 
L 23.04 91.122137 
L 25.789559 88.9755 
L 26.331429 88.543992 
L 29.622857 87.343116 
L 32.914286 86.552981 
L 36.205714 85.727387 
L 36.240923 85.680111 
L 39.497143 82.470615 
L 39.568515 82.384723 
L 42.788571 79.180615 
L 42.912415 79.089334 
L 46.08 75.944206 
L 46.312826 75.793945 
L 49.371429 72.770513 
L 49.96756 72.498556 
L 52.662857 69.873116 
L 54.531275 69.203167 
L 55.954286 68.06219 
L 58.834532 65.907778 
L 59.245714 65.589742 
L 62.537143 64.628474 
L 65.828571 63.764218 
L 69.12 62.669833 
L 69.162552 62.612389 
L 72.411429 59.39539 
L 72.477699 59.317 
L 75.702857 56.102866 
L 75.813579 56.021611 
L 78.994286 52.857006 
L 79.199037 52.726222 
L 82.285714 49.66585 
L 82.821571 49.430834 
L 85.577143 46.333576 
L 86.413684 46.135445 
L 88.868571 44.969113 
L 91.861058 42.840056 
L 92.16 42.61712 
L 95.451429 41.898917 
L 98.742857 40.929639 
L 102.034286 39.60637 
L 102.079737 39.544667 
L 105.325714 36.315811 
L 105.383035 36.249278 
L 108.617143 33.021012 
L 108.709088 32.953889 
L 111.908571 29.763707 
L 112.075346 29.6585 
L 115.2 26.550339 
L 115.648787 26.363111 
L 118.491429 23.274244 
L 119.38701 23.067722 
L 121.782857 21.856135 
L 124.884797 19.772333 
L 125.074286 19.637437 
L 128.365714 19.172024 
L 131.657143 18.041779 
L 134.948571 16.540687 
L 134.995355 16.476945 
L 138.24 13.237056 
L 138.2888 13.181556 
L 141.531429 9.940293 
L 141.605905 9.886167 
L 144.822857 6.672528 
L 144.953871 6.590778 
L 148.114286 3.437845 
L 148.472136 3.295389 
L 151.405714 0.239646 
L 152.412567 0 
L 151.405714 0 
L 148.114286 0 
L 144.822857 0 
L 141.531429 0 
L 138.24 0 
L 134.948571 0 
L 131.657143 0 
L 128.856196 0 
L 128.365714 0.402179 
L 125.074286 2.243693 
L 123.671009 3.295389 
L 121.782857 5.098522 
L 120.521023 6.590778 
L 118.491429 8.546365 
L 117.654903 9.886167 
L 115.2 12.287547 
L 114.496731 13.181556 
L 111.908571 15.218499 
L 110.209649 16.476945 
L 108.617143 17.593307 
L 105.729864 19.772333 
L 105.325714 20.077489 
L 102.034286 21.40388 
L 98.742857 21.60641 
L 96.385111 23.067722 
L 95.451429 23.902822 
L 92.16 26.260688 
L 92.031351 26.363111 
L 88.868571 29.635515 
L 88.853766 29.6585 
L 85.648265 32.953889 
L 85.577143 33.013644 
L 82.417796 36.249278 
L 82.285714 36.359478 
L 78.994286 38.822899 
L 78.004873 39.544667 
L 75.702857 41.214302 
L 73.508072 42.840056 
L 72.411429 43.644913 
L 69.33351 46.135445 
L 69.12 46.296076 
L 68.139524 46.135445 
L 65.828571 45.164118 
L 64.178048 46.135445 
L 62.537143 47.617171 
L 60.574976 49.430834 
L 59.245714 50.63387 
L 57.363079 52.726222 
L 55.954286 54.024389 
L 54.126273 56.021611 
L 52.662857 57.140384 
L 50.619338 59.317 
L 49.371429 60.493322 
L 46.08 62.403317 
L 45.775638 62.612389 
L 42.788571 64.725004 
L 41.163154 65.907778 
L 39.497143 67.062366 
L 36.871591 69.203167 
L 36.205714 69.686982 
L 33.460502 69.203167 
L 32.914286 68.904625 
L 32.395559 69.203167 
L 29.622857 71.76877 
L 29.025402 72.498556 
L 26.331429 75.037987 
L 25.685974 75.793945 
L 23.04 78.291121 
L 22.338699 79.089334 
L 19.748571 80.946021 
L 18.425599 82.384723 
L 16.457143 84.34632 
L 13.957611 85.680111 
L 13.165714 86.009254 
L 9.874286 88.125929 
L 8.538562 88.9755 
L 6.582857 90.172539 
L 3.957457 92.270889 
L 3.291429 92.719369 
L 0 94.56979 
L 0 95.566278 
L 0 98.861667 
L 0 102.157056 
L 0 105.452445 
L 0 107.896584 
z
" clip-path="url(#p79f5117cbd)" style="fill: #dae8f6; fill-opacity: 0.9"/>
    <path d="M 3.291429 92.719369 
L 3.957457 92.270889 
L 6.582857 90.172539 
L 8.538562 88.9755 
L 9.874286 88.125929 
L 13.165714 86.009254 
L 13.957611 85.680111 
L 16.457143 84.34632 
L 18.425599 82.384723 
L 19.748571 80.946021 
L 22.338699 79.089334 
L 23.04 78.291121 
L 25.685974 75.793945 
L 26.331429 75.037987 
L 29.025402 72.498556 
L 29.622857 71.76877 
L 32.395559 69.203167 
L 32.914286 68.904625 
L 33.460502 69.203167 
L 36.205714 69.686982 
L 36.871591 69.203167 
L 39.497143 67.062366 
L 41.163154 65.907778 
L 42.788571 64.725004 
L 45.775638 62.612389 
L 46.08 62.403317 
L 49.371429 60.493322 
L 50.619338 59.317 
L 52.662857 57.140384 
L 54.126273 56.021611 
L 55.954286 54.024389 
L 57.363079 52.726222 
L 59.245714 50.63387 
L 60.574976 49.430834 
L 62.537143 47.617171 
L 64.178048 46.135445 
L 65.828571 45.164118 
L 68.139524 46.135445 
L 69.12 46.296076 
L 69.33351 46.135445 
L 72.411429 43.644913 
L 73.508072 42.840056 
L 75.702857 41.214302 
L 78.004873 39.544667 
L 78.994286 38.822899 
L 82.285714 36.359478 
L 82.417796 36.249278 
L 85.577143 33.013644 
L 85.648265 32.953889 
L 88.853766 29.6585 
L 88.868571 29.635515 
L 92.031351 26.363111 
L 92.16 26.260688 
L 95.451429 23.902822 
L 96.385111 23.067722 
L 98.742857 21.60641 
L 102.034286 21.40388 
L 105.325714 20.077489 
L 105.729864 19.772333 
L 108.617143 17.593307 
L 110.209649 16.476945 
L 111.908571 15.218499 
L 114.496731 13.181556 
L 115.2 12.287547 
L 117.654903 9.886167 
L 118.491429 8.546365 
L 120.521023 6.590778 
L 121.782857 5.098522 
L 123.671009 3.295389 
L 125.074286 2.243693 
L 128.365714 0.402179 
L 128.856196 0 
L 128.365714 0 
L 125.074286 0 
L 121.782857 0 
L 118.491429 0 
L 115.2 0 
L 111.908571 0 
L 108.617143 0 
L 105.325714 0 
L 102.034286 0 
L 98.742857 0 
L 95.451429 0 
L 92.16 0 
L 88.868571 0 
L 85.577143 0 
L 82.285714 0 
L 78.994286 0 
L 75.702857 0 
L 72.411429 0 
L 69.12 0 
L 65.828571 0 
L 62.537143 0 
L 59.245714 0 
L 58.868655 0 
L 55.954286 2.64796 
L 55.291585 3.295389 
L 52.662857 5.562333 
L 51.587025 6.590778 
L 49.371429 8.642755 
L 47.672528 9.886167 
L 46.08 11.436678 
L 43.36612 13.181556 
L 42.788571 13.736009 
L 39.497143 15.437221 
L 37.484521 16.476945 
L 36.205714 17.149623 
L 32.914286 18.877355 
L 31.389163 19.772333 
L 29.622857 20.759732 
L 26.331429 22.88447 
L 26.143576 23.067722 
L 23.04 25.861073 
L 22.526657 26.363111 
L 19.748571 29.08002 
L 18.986471 29.6585 
L 16.457143 32.11569 
L 15.206252 32.953889 
L 13.165714 34.910107 
L 10.842387 36.249278 
L 9.874286 37.119459 
L 6.582857 38.604426 
L 4.717443 39.544667 
L 3.291429 40.273805 
L 0 41.958916 
L 0 42.840056 
L 0 46.135445 
L 0 49.430834 
L 0 52.726222 
L 0 56.021611 
L 0 59.317 
L 0 62.612389 
L 0 65.907778 
L 0 69.203167 
L 0 72.498556 
L 0 75.793945 
L 0 79.089334 
L 0 82.384723 
L 0 85.680111 
L 0 88.9755 
L 0 92.270889 
L 0 94.56979 
z
" clip-path="url(#p79f5117cbd)" style="fill: #d6e5f4; fill-opacity: 0.9"/>
    <path d="M 3.291429 40.273805 
L 4.717443 39.544667 
L 6.582857 38.604426 
L 9.874286 37.119459 
L 10.842387 36.249278 
L 13.165714 34.910107 
L 15.206252 32.953889 
L 16.457143 32.11569 
L 18.986471 29.6585 
L 19.748571 29.08002 
L 22.526657 26.363111 
L 23.04 25.861073 
L 26.143576 23.067722 
L 26.331429 22.88447 
L 29.622857 20.759732 
L 31.389163 19.772333 
L 32.914286 18.877355 
L 36.205714 17.149623 
L 37.484521 16.476945 
L 39.497143 15.437221 
L 42.788571 13.736009 
L 43.36612 13.181556 
L 46.08 11.436678 
L 47.672528 9.886167 
L 49.371429 8.642755 
L 51.587025 6.590778 
L 52.662857 5.562333 
L 55.291585 3.295389 
L 55.954286 2.64796 
L 58.868655 0 
L 55.954286 0 
L 52.662857 0 
L 49.371429 0 
L 46.08 0 
L 45.11275 0 
L 42.788571 1.179963 
L 40.549908 3.295389 
L 39.497143 3.967954 
L 36.774034 6.590778 
L 36.205714 7.004237 
L 33.132559 9.886167 
L 32.914286 10.066061 
L 29.622857 12.365264 
L 28.641704 13.181556 
L 26.331429 14.999727 
L 24.529253 16.476945 
L 23.04 17.616601 
L 19.748571 19.269854 
L 18.657509 19.772333 
L 16.457143 20.727908 
L 13.165714 22.44133 
L 12.499566 23.067722 
L 9.874286 24.801083 
L 8.251843 26.363111 
L 6.582857 27.597107 
L 4.161544 29.6585 
L 3.291429 30.349769 
L 0.144813 32.953889 
L 0 33.094206 
L 0 36.249278 
L 0 39.544667 
L 0 41.958916 
z
" clip-path="url(#p79f5117cbd)" style="fill: #d0e2f2; fill-opacity: 0.9"/>
    <path d="M 0.144813 32.953889 
L 3.291429 30.349769 
L 4.161544 29.6585 
L 6.582857 27.597107 
L 8.251843 26.363111 
L 9.874286 24.801083 
L 12.499566 23.067722 
L 13.165714 22.44133 
L 16.457143 20.727908 
L 18.657509 19.772333 
L 19.748571 19.269854 
L 23.04 17.616601 
L 24.529253 16.476945 
L 26.331429 14.999727 
L 28.641704 13.181556 
L 29.622857 12.365264 
L 32.914286 10.066061 
L 33.132559 9.886167 
L 36.205714 7.004237 
L 36.774034 6.590778 
L 39.497143 3.967954 
L 40.549908 3.295389 
L 42.788571 1.179963 
L 45.11275 0 
L 42.788571 0 
L 39.497143 0 
L 36.205714 0 
L 32.914286 0 
L 29.622857 0 
L 26.331429 0 
L 23.04 0 
L 19.748571 0 
L 16.457143 0 
L 13.165714 0 
L 9.874286 0 
L 6.582857 0 
L 3.291429 0 
L 0 0 
L 0 3.295389 
L 0 6.590778 
L 0 9.886167 
L 0 13.181556 
L 0 16.476945 
L 0 19.772333 
L 0 23.067722 
L 0 26.363111 
L 0 29.6585 
L 0 32.953889 
L 0 33.094206 
z
" clip-path="url(#p79f5117cbd)" style="fill: #cbdef1; fill-opacity: 0.9"/>
    <path clip-path="url(#p79f5117cbd)" style="fill: #c6dbef; fill-opacity: 0.9"/>
    <path clip-path="url(#p79f5117cbd)" style="fill: #bed8ec; fill-opacity: 0.9"/>
    <path clip-path="url(#p79f5117cbd)" style="fill: #b5d4e9; fill-opacity: 0.9"/>
    <path clip-path="url(#p79f5117cbd)" style="fill: #add0e6; fill-opacity: 0.9"/>
    <path clip-path="url(#p79f5117cbd)" style="fill: #a5cde3; fill-opacity: 0.9"/>
    <path clip-path="url(#p79f5117cbd)" style="fill: #9cc9e1; fill-opacity: 0.9"/>
    <path clip-path="url(#p79f5117cbd)" style="fill: #91c3de; fill-opacity: 0.9"/>
    <path clip-path="url(#p79f5117cbd)" style="fill: #85bcdc; fill-opacity: 0.9"/>
    <path clip-path="url(#p79f5117cbd)" style="fill: #7cb7da; fill-opacity: 0.9"/>
    <path clip-path="url(#p79f5117cbd)" style="fill: #71b1d7; fill-opacity: 0.9"/>
    <path clip-path="url(#p79f5117cbd)" style="fill: #66abd4; fill-opacity: 0.9"/>
    <path clip-path="url(#p79f5117cbd)" style="fill: #5da5d1; fill-opacity: 0.9"/>
    <path clip-path="url(#p79f5117cbd)" style="fill: #56a0ce; fill-opacity: 0.9"/>
    <path clip-path="url(#p79f5117cbd)" style="fill: #4d99ca; fill-opacity: 0.9"/>
    <path clip-path="url(#p79f5117cbd)" style="fill: #4493c7; fill-opacity: 0.9"/>
    <path clip-path="url(#p79f5117cbd)" style="fill: #3c8cc3; fill-opacity: 0.9"/>
    <path clip-path="url(#p79f5117cbd)" style="fill: #3686c0; fill-opacity: 0.9"/>
    <path clip-path="url(#p79f5117cbd)" style="fill: #2f7fbc; fill-opacity: 0.9"/>
    <path clip-path="url(#p79f5117cbd)" style="fill: #2777b8; fill-opacity: 0.9"/>
    <path clip-path="url(#p79f5117cbd)" style="fill: #2070b4; fill-opacity: 0.9"/>
    <path clip-path="url(#p79f5117cbd)" style="fill: #1c6ab0; fill-opacity: 0.9"/>
    <path clip-path="url(#p79f5117cbd)" style="fill: #1663aa; fill-opacity: 0.9"/>
    <path clip-path="url(#p79f5117cbd)" style="fill: #115ca5; fill-opacity: 0.9"/>
    <path clip-path="url(#p79f5117cbd)" style="fill: #0c56a0; fill-opacity: 0.9"/>
    <path clip-path="url(#p79f5117cbd)" style="fill: #084f99; fill-opacity: 0.9"/>
    <path clip-path="url(#p79f5117cbd)" style="fill: #08488e; fill-opacity: 0.9"/>
    <path clip-path="url(#p79f5117cbd)" style="fill: #084184; fill-opacity: 0.9"/>
    <path clip-path="url(#p79f5117cbd)" style="fill: #083a7a; fill-opacity: 0.9"/>
    <path clip-path="url(#p79f5117cbd)" style="fill: #083370; fill-opacity: 0.9"/>
    <path clip-path="url(#p79f5117cbd)" style="fill: #08306b; fill-opacity: 0.9"/>
   </g>
   <g id="QuadContourSet_2">
    <path d="M 0 117.721731 
L 3.291429 115.465681 
L 4.260828 115.338612 
L 6.582857 114.687002 
L 9.874286 113.255762 
L 10.969048 115.338612 
L 13.165714 117.529632 
L 15.354102 115.338612 
L 16.457143 114.234243 
L 18.64553 112.043223 
L 19.748571 110.938854 
L 21.936959 108.747834 
L 21.528502 105.452445 
L 23.04 104.464934 
L 26.331429 102.417779 
L 26.591839 102.157056 
L 29.365093 98.861667 
L 29.622857 98.592337 
L 32.495588 95.566278 
L 32.914286 95.091565 
L 36.205714 93.183465 
L 39.497143 92.889426 
L 40.114937 92.270889 
L 42.788571 90.166712 
L 43.886482 92.270889 
L 46.08 94.475889 
L 48.28235 92.270889 
L 49.371429 91.1805 
L 51.573779 88.9755 
L 52.662857 87.885111 
L 54.865207 85.680111 
L 54.795937 82.384723 
L 55.954286 81.559416 
L 59.245714 79.458293 
L 59.614231 79.089334 
L 62.323057 75.793945 
L 62.537143 75.569979 
L 65.418078 72.498556 
L 65.828571 72.031212 
L 69.12 70.322244 
L 72.411429 69.842796 
L 73.050289 69.203167 
L 75.702857 67.119353 
L 76.78708 69.203167 
L 78.994286 71.350996 
L 81.139533 69.203167 
L 82.285714 68.055607 
L 84.430962 65.907778 
L 85.577143 64.760218 
L 87.722391 62.612389 
L 87.646757 59.317 
L 88.419495 58.762596 
M 102.440609 46.187819 
L 105.325714 46.624065 
L 105.813747 46.135445 
L 108.617143 43.936613 
L 109.758651 46.135445 
L 109.758651 49.430834 
L 111.908571 52.726222 
L 115.2 49.430834 
L 114.064787 46.135445 
L 115.2 44.998866 
L 117.356216 42.840056 
L 118.491429 41.703477 
L 120.647644 39.544667 
L 120.566829 36.249278 
L 121.782857 35.38062 
L 125.074286 33.251787 
L 125.371826 32.953889 
L 128.123483 29.6585 
L 128.365714 29.403527 
L 131.162124 26.363111 
L 131.657143 25.79461 
L 134.948571 23.104895 
L 138.24 23.572721 
L 138.744392 23.067722 
L 141.531429 20.884852 
L 142.662331 23.067722 
L 142.662331 26.363111 
L 144.822857 29.6585 
L 148.114286 26.363111 
L 146.949637 23.067722 
L 148.114286 21.901672 
L 150.241066 19.772333 
L 151.405714 18.606284 
L 153.532494 16.476945 
L 153.456569 13.181556 
L 154.697143 12.291384 
L 157.988571 10.123038 
L 158.225158 9.886167 
L 160.619904 6.590778 
L 161.28 5.731924 
L 163.886499 3.295389 
L 164.571429 2.234351 
L 167.738822 0 
M 168.39549 0 
L 171.154286 0.422058 
L 171.575836 0 
M 175.606362 0 
L 175.606362 3.295389 
L 177.737143 6.590778 
L 181.028571 3.295389 
L 181.028571 3.295389 
L 184.32 0 
M 13.165714 113.030761 
L 11.204227 112.043223 
L 13.165714 110.448237 
L 14.152066 112.043223 
L 13.165714 113.030761 
z
M 46.08 89.479998 
L 44.798057 88.9755 
L 46.08 88.032681 
L 46.583891 88.9755 
L 46.08 89.479998 
M 78.994286 66.430376 
L 77.685754 65.907778 
L 78.994286 64.939402 
L 79.516256 65.907778 
L 78.994286 66.430376 
z
M 111.908571 43.385016 
L 110.499801 42.840056 
L 111.908571 41.812258 
L 112.452877 42.840056 
L 111.908571 43.385016 
M 144.822857 20.319412 
L 143.416368 19.772333 
L 144.822857 18.743957 
L 145.369278 19.772333 
L 144.822857 20.319412 
z
" clip-path="url(#p79f5117cbd)" style="fill: none"/>
    <path d="M 0 116.401024 
L 1.543914 115.338612 
L 3.291429 113.276187 
L 5.947235 112.043223 
L 6.582857 111.19925 
L 7.482789 112.043223 
L 9.874286 112.355045 
L 10.2163 112.043223 
L 13.165714 109.644903 
L 14.648854 112.043223 
L 13.165714 113.528147 
L 11.442472 115.338612 
L 13.165714 117.057425 
L 14.882462 115.338612 
L 16.457143 113.762036 
L 18.173891 112.043223 
L 19.748571 110.466647 
L 21.465319 108.747834 
L 20.65961 105.452445 
L 23.04 103.897258 
L 25.650866 102.157056 
L 26.331429 101.569118 
L 26.429254 101.458085 
M 40.392415 88.972046 
L 40.406254 88.9755 
L 42.788571 89.267005 
L 43.280318 88.9755 
L 46.08 86.916444 
L 47.180466 88.9755 
L 46.08 90.077291 
L 44.355928 92.270889 
L 46.08 94.003986 
L 47.811014 92.270889 
L 49.371429 90.708597 
L 51.102442 88.9755 
L 52.662857 87.413208 
L 54.393871 85.680111 
L 53.967288 82.384723 
L 55.954286 80.969016 
L 58.646455 79.089334 
L 59.245714 78.560629 
L 61.669484 75.793945 
L 62.537143 74.886247 
L 64.77675 72.498556 
L 65.828571 71.301067 
L 68.353397 69.203167 
L 69.12 68.283725 
L 72.267599 65.907778 
L 72.411429 65.712513 
L 73.170879 65.907778 
L 75.702857 66.21751 
L 76.209774 65.907778 
L 78.994286 63.847105 
L 80.105021 65.907778 
L 78.994286 67.01985 
L 77.256314 69.203167 
L 78.994286 70.894384 
L 80.683471 69.203167 
L 82.285714 67.598995 
L 83.974899 65.907778 
L 85.577143 64.303607 
L 87.266328 62.612389 
L 86.84554 59.317 
L 88.868571 57.865566 
L 91.509498 56.021611 
L 92.16 55.446374 
L 94.539411 52.726222 
L 95.451429 51.769309 
L 97.62242 49.430834 
L 98.742857 48.149442 
L 101.171754 46.135445 
L 102.034286 45.092744 
L 105.038267 42.840056 
L 105.325714 42.442032 
L 106.811294 42.840056 
L 108.617143 43.061703 
L 108.997684 42.840056 
L 111.908571 40.716358 
L 113.033249 42.840056 
L 111.908571 43.966087 
L 110.212855 46.135445 
L 110.212855 49.430834 
L 111.908571 52.030021 
L 114.504635 49.430834 
L 113.609254 46.135445 
L 115.2 44.542784 
L 116.900682 42.840056 
L 118.491429 41.247395 
L 120.192111 39.544667 
L 119.760874 36.249278 
L 121.782857 34.804894 
L 124.450138 32.953889 
L 125.074286 32.40477 
L 127.483244 29.6585 
L 128.365714 28.729609 
L 130.542291 26.363111 
L 131.657143 25.082767 
L 134.092027 23.067722 
L 134.948571 22.024548 
L 137.970935 19.772333 
L 138.24 19.392496 
L 139.605076 19.772333 
L 141.531429 20.008918 
L 141.932273 19.772333 
L 144.822857 17.658837 
L 145.945849 19.772333 
L 144.822857 20.896676 
L 143.116135 23.067722 
L 143.116135 26.363111 
L 144.822857 28.966325 
L 147.422943 26.363111 
L 146.502921 23.067722 
L 148.114286 21.454419 
L 149.79435 19.772333 
L 151.405714 18.15903 
L 153.085778 16.476945 
L 152.665421 13.181556 
L 154.697143 11.723697 
L 157.337549 9.886167 
L 157.988571 9.313471 
L 160.071052 6.590778 
L 161.28 5.01781 
L 163.12257 3.295389 
L 164.571429 1.050935 
L 166.061224 0 
M 176.051544 0 
L 176.051544 3.295389 
L 177.737143 5.902276 
L 180.340897 3.295389 
L 181.028571 2.606887 
L 183.632325 0 
M 16.457143 109.440369 
L 14.928402 108.747834 
L 16.457143 107.630223 
L 17.148846 108.747834 
L 16.457143 109.440369 
z
M 49.371429 85.797149 
L 49.013276 85.680111 
L 49.371429 85.460188 
L 49.488326 85.680111 
L 49.371429 85.797149 
z
M 82.285714 62.742076 
L 81.89619 62.612389 
L 82.285714 62.370725 
L 82.415245 62.612389 
L 82.285714 62.742076 
M 115.2 39.697356 
L 114.72259 39.544667 
L 115.2 39.255395 
L 115.352505 39.544667 
L 115.2 39.697356 
z
M 148.114286 16.625647 
L 147.652546 16.476945 
L 148.114286 16.196174 
L 148.262809 16.476945 
L 148.114286 16.625647 
z
" clip-path="url(#p79f5117cbd)" style="fill: none"/>
    <path d="M 0 115.129948 
L 2.843552 112.043223 
L 3.291429 111.600451 
L 6.007724 108.747834 
L 6.582857 108.178836 
L 9.874286 106.421699 
L 12.342843 108.747834 
L 13.165714 108.841569 
L 13.349898 108.747834 
L 16.457143 106.476232 
L 17.863064 108.747834 
L 19.748571 109.99444 
L 20.99368 108.747834 
L 19.790719 105.452445 
L 23.04 103.329583 
L 24.79917 102.157056 
L 26.331429 100.833338 
L 28.068573 98.861667 
L 29.622857 97.237641 
L 31.209533 95.566278 
L 32.914286 93.633457 
L 34.551484 92.270889 
L 36.205714 90.300832 
L 37.952311 88.9755 
L 39.497143 86.913192 
L 41.688448 85.680111 
L 42.788571 83.567989 
L 45.283999 85.680111 
L 46.08 85.800207 
L 46.364935 85.680111 
L 49.371429 83.833973 
L 50.352716 85.680111 
L 52.662857 86.941305 
L 53.922535 85.680111 
L 53.13864 82.384723 
L 55.954286 80.378617 
L 57.800857 79.089334 
L 59.245714 77.814589 
L 61.015911 75.793945 
L 62.537143 74.202515 
L 64.135423 72.498556 
L 65.828571 70.570921 
L 67.474665 69.203167 
L 69.12 67.229799 
L 70.871383 65.907778 
L 72.411429 63.816987 
L 74.615029 62.612389 
L 75.702857 60.584123 
L 78.027951 62.612389 
L 78.994286 62.754808 
L 79.329008 62.612389 
L 82.285714 60.778025 
L 83.268925 62.612389 
L 85.577143 63.846995 
L 86.810265 62.612389 
L 86.044322 59.317 
L 88.868571 57.290729 
L 90.686211 56.021611 
L 92.16 54.718344 
L 93.902577 52.726222 
L 95.451429 51.101126 
L 97.002093 49.430834 
L 98.742857 47.440004 
L 100.316166 46.135445 
L 102.034286 44.058437 
L 103.659009 42.840056 
L 105.325714 40.532198 
L 107.200744 39.544667 
L 108.617143 36.990522 
L 111.413463 39.544667 
L 111.908571 39.620458 
L 112.090596 39.544667 
L 115.2 37.660621 
L 116.193277 39.544667 
L 118.491429 40.791313 
L 119.736577 39.544667 
L 118.954919 36.249278 
L 121.782857 34.229168 
L 123.620522 32.953889 
L 125.074286 31.674882 
L 126.843005 29.6585 
L 128.365714 28.055691 
L 128.417592 27.999286 
M 141.40699 14.197049 
L 141.531429 13.983463 
L 144.184508 16.476945 
L 144.822857 16.573718 
L 145.054552 16.476945 
L 148.114286 14.616409 
L 149.098484 16.476945 
L 151.405714 17.711776 
L 152.639062 16.476945 
L 151.874272 13.181556 
L 154.697143 11.156009 
L 156.521821 9.886167 
L 157.988571 8.595886 
L 159.522199 6.590778 
L 161.28 4.303696 
L 162.358642 3.295389 
L 164.451197 0 
M 176.496726 0 
L 176.496726 3.295389 
L 177.737143 5.213774 
L 179.653222 3.295389 
L 181.028571 1.918385 
L 182.944651 0 
M 13.165714 116.585218 
L 14.410823 115.338612 
L 13.165714 114.025533 
L 11.915896 115.338612 
L 13.165714 116.585218 
z
M 16.457143 113.289829 
L 17.702251 112.043223 
L 16.457143 110.155447 
L 15.145643 112.043223 
L 16.457143 113.289829 
z
M 46.08 93.532083 
L 47.339678 92.270889 
L 46.08 90.674584 
L 44.825374 92.270889 
L 46.08 93.532083 
z
M 49.371429 90.236694 
L 50.631106 88.9755 
L 49.371429 86.66258 
L 47.777041 88.9755 
L 49.371429 90.236694 
z
M 78.994286 70.437773 
L 80.227408 69.203167 
L 78.994286 67.609323 
L 77.725549 69.203167 
L 78.994286 70.437773 
z
M 82.285714 67.142384 
L 83.518836 65.907778 
L 82.285714 63.596783 
L 80.693786 65.907778 
L 82.285714 67.142384 
z
M 111.908571 51.333819 
L 113.80927 49.430834 
L 113.15372 46.135445 
L 111.908571 44.547157 
L 110.667059 46.135445 
L 110.667059 49.430834 
L 111.908571 51.333819 
z
M 115.2 44.086702 
L 116.445148 42.840056 
L 115.2 40.539139 
L 113.613621 42.840056 
L 115.2 44.086702 
z
M 144.822857 28.274151 
L 146.7316 26.363111 
L 146.056205 23.067722 
L 144.822857 21.473941 
L 143.56994 23.067722 
L 143.56994 26.363111 
L 144.822857 28.274151 
z
M 148.114286 21.007165 
L 149.347634 19.772333 
L 148.114286 17.462327 
L 146.522419 19.772333 
L 148.114286 21.007165 
z
" clip-path="url(#p79f5117cbd)" style="fill: none"/>
    <path d="M 0 114.063014 
L 1.860672 112.043223 
L 1.886742 112.01745 
M 16.433469 104.280449 
L 16.457143 104.302235 
L 19.748571 103.50388 
L 23.04 102.761908 
L 23.947473 102.157056 
L 26.331429 100.097558 
L 27.420313 98.861667 
L 29.622857 96.560293 
L 30.566506 95.566278 
L 32.914286 92.904403 
L 33.675486 92.270889 
L 36.205714 89.257589 
L 36.577467 88.9755 
L 39.038169 85.680111 
L 39.497143 85.227724 
L 41.859521 82.384723 
L 42.788571 81.460274 
L 46.005302 79.089334 
L 46.08 79.015165 
L 46.640375 79.089334 
L 49.371429 81.342972 
L 52.662857 81.109709 
L 55.954286 79.788217 
L 56.955259 79.089334 
L 59.245714 77.068549 
L 60.362338 75.793945 
L 62.537143 73.518782 
L 63.494095 72.498556 
L 65.828571 69.840775 
L 66.595933 69.203167 
L 69.12 66.175874 
L 69.475167 65.907778 
L 71.910592 62.612389 
L 72.411429 62.116467 
L 74.778089 59.317 
L 75.702857 58.395393 
L 78.937526 56.021611 
L 78.994286 55.965139 
L 79.391369 56.021611 
L 82.285714 58.533094 
L 85.577143 58.091602 
L 88.868571 56.715892 
L 89.862925 56.021611 
L 92.16 53.990314 
L 93.265744 52.726222 
L 95.451429 50.432944 
L 96.381767 49.430834 
L 98.742857 46.730566 
L 99.460578 46.135445 
L 102.034286 43.024131 
L 102.279752 42.840056 
L 104.694379 39.544667 
L 105.325714 38.916661 
L 107.623775 36.249278 
L 108.617143 35.257704 
L 111.772916 32.953889 
L 111.908571 32.818628 
L 112.782356 32.953889 
L 115.2 35.196502 
L 118.491429 35.00539 
L 121.782857 33.653442 
L 122.790906 32.953889 
L 125.074286 30.944994 
L 126.202766 29.6585 
L 128.365714 27.381773 
L 129.302624 26.363111 
L 131.657143 23.659081 
L 132.371713 23.067722 
L 134.948571 19.929401 
L 135.159349 19.772333 
L 137.559406 16.476945 
L 138.24 15.797349 
L 140.540003 13.181556 
L 141.531429 12.190547 
L 144.702159 9.886167 
L 144.822857 9.765593 
L 145.558575 9.886167 
L 148.114286 12.347802 
L 151.405714 11.997797 
L 154.697143 10.588322 
L 155.706092 9.886167 
L 157.988571 7.878301 
L 158.973347 6.590778 
L 161.28 3.589581 
L 161.594714 3.295389 
L 163.3772 0 
M 176.941907 0 
L 176.941907 3.295389 
L 177.737143 4.525272 
L 178.965548 3.295389 
L 181.028571 1.229883 
L 182.256976 0 
M 13.165714 116.113011 
L 13.939183 115.338612 
L 13.165714 114.52292 
L 12.389319 115.338612 
L 13.165714 116.113011 
z
M 16.457143 112.817622 
L 17.230612 112.043223 
L 16.457143 110.870525 
L 15.642431 112.043223 
L 16.457143 112.817622 
z
M 19.748571 109.522233 
L 20.52204 108.747834 
L 19.748571 106.6624 
L 18.577283 108.747834 
L 19.748571 109.522233 
z
M 46.08 93.060179 
L 46.868342 92.270889 
L 46.08 91.271877 
L 45.29482 92.270889 
L 46.08 93.060179 
z
M 49.371429 89.764791 
L 50.15977 88.9755 
L 49.371429 87.52801 
L 48.373616 88.9755 
L 49.371429 89.764791 
z
M 52.662857 86.469402 
L 53.451199 85.680111 
L 52.662857 83.053463 
L 51.217106 85.680111 
L 52.662857 86.469402 
z
M 78.994286 69.981161 
L 79.771345 69.203167 
L 78.994286 68.198797 
L 78.194784 69.203167 
L 78.994286 69.981161 
z
M 82.285714 66.685772 
L 83.062774 65.907778 
L 82.285714 64.451491 
L 81.282551 65.907778 
L 82.285714 66.685772 
z
M 85.577143 63.390384 
L 86.354202 62.612389 
L 85.577143 59.964832 
L 84.122606 62.612389 
L 85.577143 63.390384 
z
M 111.908571 50.637618 
L 113.113905 49.430834 
L 112.698186 46.135445 
L 111.908571 45.128227 
L 111.121262 46.135445 
L 111.121262 49.430834 
L 111.908571 50.637618 
z
M 115.2 43.63062 
L 115.989615 42.840056 
L 115.2 41.380922 
L 114.193993 42.840056 
L 115.2 43.63062 
z
M 118.491429 40.335232 
L 119.281043 39.544667 
L 118.491429 36.898061 
L 117.034049 39.544667 
L 118.491429 40.335232 
z
M 144.822857 27.581976 
L 146.040257 26.363111 
L 145.609489 23.067722 
L 144.822857 22.051205 
L 144.023744 23.067722 
L 144.023744 26.363111 
L 144.822857 27.581976 
z
M 148.114286 20.559912 
L 148.900917 19.772333 
L 148.114286 18.299006 
L 147.09899 19.772333 
L 148.114286 20.559912 
z
M 151.405714 17.264523 
L 152.192346 16.476945 
L 151.405714 13.801149 
L 149.934158 16.476945 
L 151.405714 17.264523 
z
" clip-path="url(#p79f5117cbd)" style="fill: none"/>
    <path d="M 0 112.996081 
L 0.877791 112.043223 
L 3.291429 109.657096 
L 4.157239 108.747834 
L 6.582857 106.348092 
L 7.719801 105.452445 
L 9.874286 103.32739 
L 11.46882 102.157056 
L 13.165714 100.491842 
L 15.697429 98.861667 
L 16.457143 98.123811 
L 19.748571 98.794427 
L 19.818813 98.861667 
L 22.51146 102.157056 
L 23.04 102.194233 
L 23.095777 102.157056 
L 26.331429 99.361778 
L 26.772053 98.861667 
L 29.622857 95.882945 
L 29.923479 95.566278 
L 32.456037 92.270889 
L 32.914286 91.85911 
L 34.747908 88.9755 
L 36.205714 87.605339 
L 37.639546 85.680111 
L 39.497143 83.849169 
L 40.714018 82.384723 
L 42.788571 80.320444 
L 44.458859 79.089334 
L 46.08 77.479686 
L 48.692015 75.793945 
L 49.371429 75.122344 
L 52.42979 75.793945 
L 52.662857 76.000619 
L 54.76604 79.089334 
L 55.954286 79.197817 
L 56.109661 79.089334 
L 59.245714 76.322508 
L 59.708765 75.793945 
L 62.537143 72.83505 
L 62.852768 72.498556 
L 65.392761 69.203167 
L 65.828571 68.808202 
L 67.655993 65.907778 
L 69.12 64.524728 
L 70.536572 62.612389 
L 72.411429 60.755928 
L 73.627894 59.317 
L 75.702857 57.249129 
L 77.375553 56.021611 
L 78.994286 54.411072 
L 81.632045 52.726222 
L 82.285714 52.078124 
L 85.024888 52.726222 
L 85.577143 53.236371 
L 87.510309 56.021611 
L 88.868571 56.141054 
L 89.039638 56.021611 
L 92.16 53.262284 
L 92.628911 52.726222 
L 95.451429 49.764761 
L 95.76144 49.430834 
L 96.177668 48.872413 
M 108.440257 34.315924 
L 108.617143 34.139358 
L 110.241002 32.953889 
L 111.908571 31.291167 
L 114.49669 29.6585 
L 115.2 28.958902 
L 117.906146 29.6585 
L 118.491429 30.230347 
L 120.406326 32.953889 
L 121.782857 33.077716 
L 121.961291 32.953889 
L 125.074286 30.215106 
L 125.562526 29.6585 
L 128.365714 26.707855 
L 128.682791 26.363111 
L 131.118554 23.067722 
L 131.657143 22.569741 
L 133.394911 19.772333 
L 134.948571 18.287462 
L 136.27738 16.476945 
L 138.24 14.517202 
L 139.414401 13.181556 
L 141.531429 11.06542 
L 143.154032 9.886167 
L 144.822857 8.21906 
L 147.432372 6.590778 
L 148.114286 5.910479 
L 150.583801 6.590778 
L 151.405714 7.419307 
L 153.166971 9.886167 
L 154.697143 10.020634 
L 154.890364 9.886167 
L 157.988571 7.160716 
L 158.424494 6.590778 
L 159.917538 3.295389 
L 161.28 2.037682 
L 162.303202 0 
M 177.387089 0 
L 177.387089 3.295389 
L 177.737143 3.83677 
L 178.277873 3.295389 
L 181.028571 0.541381 
L 181.569301 0 
M 13.165714 115.640804 
L 13.467543 115.338612 
L 13.165714 115.020306 
L 12.862743 115.338612 
L 13.165714 115.640804 
z
M 16.457143 112.345415 
L 16.758972 112.043223 
L 16.457143 111.585603 
L 16.13922 112.043223 
L 16.457143 112.345415 
z
M 19.748571 109.050026 
L 20.050401 108.747834 
L 19.748571 107.934039 
L 19.291502 108.747834 
L 19.748571 109.050026 
z
M 46.08 92.588276 
L 46.397006 92.270889 
L 46.08 91.869169 
L 45.764266 92.270889 
L 46.08 92.588276 
z
M 49.371429 89.292887 
L 49.688434 88.9755 
L 49.371429 88.39344 
L 48.970191 88.9755 
L 49.371429 89.292887 
z
M 52.662857 85.997498 
L 52.979863 85.680111 
L 52.662857 84.623892 
L 52.081496 85.680111 
L 52.662857 85.997498 
z
M 78.994286 69.52455 
L 79.315282 69.203167 
L 78.994286 68.78827 
L 78.664018 69.203167 
L 78.994286 69.52455 
z
M 82.285714 66.229161 
L 82.606711 65.907778 
L 82.285714 65.306198 
L 81.871316 65.907778 
L 82.285714 66.229161 
z
M 85.577143 62.933772 
L 85.898139 62.612389 
L 85.577143 61.518706 
L 84.976286 62.612389 
L 85.577143 62.933772 
z
M 111.908571 49.941416 
L 112.41854 49.430834 
L 112.242652 46.135445 
L 111.908571 45.709297 
L 111.575466 46.135445 
L 111.575466 49.430834 
L 111.908571 49.941416 
z
M 115.2 43.174539 
L 115.534081 42.840056 
L 115.2 42.222706 
L 114.774365 42.840056 
L 115.2 43.174539 
z
M 118.491429 39.87915 
L 118.825509 39.544667 
L 118.491429 38.424905 
L 117.874821 39.544667 
L 118.491429 39.87915 
z
M 144.822857 26.889801 
L 145.348914 26.363111 
L 145.162773 23.067722 
L 144.822857 22.62847 
L 144.477548 23.067722 
L 144.477548 26.363111 
L 144.822857 26.889801 
z
M 148.114286 20.112658 
L 148.454201 19.772333 
L 148.114286 19.135686 
L 147.675561 19.772333 
L 148.114286 20.112658 
z
M 151.405714 16.817269 
L 151.74563 16.476945 
L 151.405714 15.320692 
L 150.769832 16.476945 
L 151.405714 16.817269 
z
" clip-path="url(#p79f5117cbd)" style="fill: none"/>
    <path d="M 0 107.896584 
L 3.291429 106.894827 
L 5.591551 105.452445 
L 6.582857 105.064501 
L 9.874286 102.18128 
L 9.907291 102.157056 
L 13.165714 98.959466 
L 13.317599 98.861667 
L 16.457143 95.812453 
L 16.989681 95.566278 
L 19.748571 92.972273 
L 21.626359 92.270889 
L 23.04 91.122137 
L 25.789559 88.9755 
L 26.331429 88.543992 
L 29.622857 87.343116 
L 32.914286 86.552981 
L 36.205714 85.727387 
L 36.240923 85.680111 
L 39.497143 82.470615 
L 39.568515 82.384723 
L 42.788571 79.180615 
L 42.912415 79.089334 
L 46.08 75.944206 
L 46.312826 75.793945 
L 49.371429 72.770513 
L 49.96756 72.498556 
L 52.662857 69.873116 
L 54.531275 69.203167 
L 55.954286 68.06219 
L 58.834532 65.907778 
L 59.245714 65.589742 
L 62.537143 64.628474 
L 65.828571 63.764218 
L 69.12 62.669833 
L 69.162552 62.612389 
L 72.411429 59.39539 
L 72.477699 59.317 
L 75.702857 56.102866 
L 75.813579 56.021611 
L 78.994286 52.857006 
L 79.199037 52.726222 
L 82.285714 49.66585 
L 82.821571 49.430834 
L 85.577143 46.333576 
L 86.413684 46.135445 
L 88.868571 44.969113 
L 91.861058 42.840056 
L 92.16 42.61712 
L 95.451429 41.898917 
L 98.742857 40.929639 
L 102.034286 39.60637 
L 102.079737 39.544667 
L 105.325714 36.315811 
L 105.383035 36.249278 
L 108.617143 33.021012 
L 108.709088 32.953889 
L 111.908571 29.763707 
L 112.075346 29.6585 
L 115.2 26.550339 
L 115.648787 26.363111 
L 118.491429 23.274244 
L 119.38701 23.067722 
L 121.782857 21.856135 
L 124.884797 19.772333 
L 125.074286 19.637437 
L 128.365714 19.172024 
L 131.657143 18.041779 
L 134.948571 16.540687 
L 134.995355 16.476945 
L 138.168722 13.308229 
M 151.859318 0.131681 
L 152.412567 0 
" clip-path="url(#p79f5117cbd)" style="fill: none"/>
    <path d="M 0 94.56979 
L 1.9821 93.455466 
M 17.829213 82.979031 
L 18.425599 82.384723 
L 19.748571 80.946021 
L 22.338699 79.089334 
L 23.04 78.291121 
L 25.685974 75.793945 
L 26.331429 75.037987 
L 29.025402 72.498556 
L 29.622857 71.76877 
L 32.395559 69.203167 
L 32.914286 68.904625 
L 33.460502 69.203167 
L 36.205714 69.686982 
L 36.871591 69.203167 
L 39.497143 67.062366 
L 41.163154 65.907778 
L 42.788571 64.725004 
L 45.775638 62.612389 
L 46.08 62.403317 
L 49.371429 60.493322 
L 50.619338 59.317 
L 52.662857 57.140384 
L 54.126273 56.021611 
L 55.954286 54.024389 
L 57.363079 52.726222 
L 59.245714 50.63387 
L 60.574976 49.430834 
L 62.537143 47.617171 
L 64.178048 46.135445 
L 65.828571 45.164118 
L 68.139524 46.135445 
L 69.12 46.296076 
L 69.33351 46.135445 
L 72.411429 43.644913 
L 73.508072 42.840056 
L 75.702857 41.214302 
L 78.004873 39.544667 
L 78.994286 38.822899 
L 82.285714 36.359478 
L 82.417796 36.249278 
L 85.577143 33.013644 
L 85.648265 32.953889 
L 88.853766 29.6585 
L 88.868571 29.635515 
L 92.031351 26.363111 
L 92.16 26.260688 
L 95.451429 23.902822 
L 96.385111 23.067722 
L 98.742857 21.60641 
L 102.034286 21.40388 
L 105.325714 20.077489 
L 105.729864 19.772333 
L 108.617143 17.593307 
L 110.209649 16.476945 
L 111.908571 15.218499 
L 114.496731 13.181556 
L 115.2 12.287547 
L 117.654903 9.886167 
L 118.491429 8.546365 
L 120.521023 6.590778 
L 121.782857 5.098522 
L 123.671009 3.295389 
L 125.074286 2.243693 
L 128.365714 0.402179 
L 128.856196 0 
" clip-path="url(#p79f5117cbd)" style="fill: none"/>
    <path d="M 0 41.958916 
L 3.291429 40.273805 
L 4.717443 39.544667 
L 6.582857 38.604426 
L 9.874286 37.119459 
L 10.842387 36.249278 
L 13.165714 34.910107 
L 15.206252 32.953889 
L 16.457143 32.11569 
L 18.986471 29.6585 
L 19.748571 29.08002 
L 22.526657 26.363111 
L 23.04 25.861073 
L 26.143576 23.067722 
L 26.331429 22.88447 
L 29.622857 20.759732 
L 31.389163 19.772333 
L 32.914286 18.877355 
L 36.205714 17.149623 
L 37.484521 16.476945 
L 39.497143 15.437221 
L 41.73193 14.282146 
M 56.431388 2.214471 
L 58.868655 0 
" clip-path="url(#p79f5117cbd)" style="fill: none"/>
    <path d="M 0 33.094206 
L 0.144813 32.953889 
L 0.841484 32.377328 
M 16.031152 20.949667 
L 16.457143 20.727908 
L 18.657509 19.772333 
L 19.748571 19.269854 
L 23.04 17.616601 
L 24.529253 16.476945 
L 26.331429 14.999727 
L 28.641704 13.181556 
L 29.622857 12.365264 
L 32.914286 10.066061 
L 33.132559 9.886167 
L 36.205714 7.004237 
L 36.774034 6.590778 
L 39.497143 3.967954 
L 40.549908 3.295389 
L 42.788571 1.179963 
L 45.11275 0 
" clip-path="url(#p79f5117cbd)" style="fill: none"/>
    <path clip-path="url(#p79f5117cbd)" style="fill: none"/>
    <path clip-path="url(#p79f5117cbd)" style="fill: none"/>
    <path clip-path="url(#p79f5117cbd)" style="fill: none"/>
    <path clip-path="url(#p79f5117cbd)" style="fill: none"/>
    <path clip-path="url(#p79f5117cbd)" style="fill: none"/>
    <path clip-path="url(#p79f5117cbd)" style="fill: none"/>
    <path clip-path="url(#p79f5117cbd)" style="fill: none"/>
    <path clip-path="url(#p79f5117cbd)" style="fill: none"/>
    <path clip-path="url(#p79f5117cbd)" style="fill: none"/>
    <path clip-path="url(#p79f5117cbd)" style="fill: none"/>
    <path clip-path="url(#p79f5117cbd)" style="fill: none"/>
    <path clip-path="url(#p79f5117cbd)" style="fill: none"/>
    <path clip-path="url(#p79f5117cbd)" style="fill: none"/>
    <path clip-path="url(#p79f5117cbd)" style="fill: none"/>
    <path clip-path="url(#p79f5117cbd)" style="fill: none"/>
    <path clip-path="url(#p79f5117cbd)" style="fill: none"/>
    <path clip-path="url(#p79f5117cbd)" style="fill: none"/>
    <path clip-path="url(#p79f5117cbd)" style="fill: none"/>
    <path clip-path="url(#p79f5117cbd)" style="fill: none"/>
    <path clip-path="url(#p79f5117cbd)" style="fill: none"/>
    <path clip-path="url(#p79f5117cbd)" style="fill: none"/>
    <path clip-path="url(#p79f5117cbd)" style="fill: none"/>
    <path clip-path="url(#p79f5117cbd)" style="fill: none"/>
    <path clip-path="url(#p79f5117cbd)" style="fill: none"/>
    <path clip-path="url(#p79f5117cbd)" style="fill: none"/>
    <path clip-path="url(#p79f5117cbd)" style="fill: none"/>
    <path clip-path="url(#p79f5117cbd)" style="fill: none"/>
    <path clip-path="url(#p79f5117cbd)" style="fill: none"/>
    <path clip-path="url(#p79f5117cbd)" style="fill: none"/>
    <path clip-path="url(#p79f5117cbd)" style="fill: none"/>
   </g>
   <g id="text_1">
    <g clip-path="url(#p79f5117cbd)">
     <!-- 0 -->
     <g style="opacity: 0" transform="translate(95.379974 57.490468) rotate(-48.251883) scale(0.12 -0.12)">
      <defs>
       <path id="DejaVuSans-30" d="M 2034 4250 
Q 1547 4250 1301 3770 
Q 1056 3291 1056 2328 
Q 1056 1369 1301 889 
Q 1547 409 2034 409 
Q 2525 409 2770 889 
Q 3016 1369 3016 2328 
Q 3016 3291 2770 3770 
Q 2525 4250 2034 4250 
z
M 2034 4750 
Q 2819 4750 3233 4129 
Q 3647 3509 3647 2328 
Q 3647 1150 3233 529 
Q 2819 -91 2034 -91 
Q 1250 -91 836 529 
Q 422 1150 422 2328 
Q 422 3509 836 4129 
Q 1250 4750 2034 4750 
z
" transform="scale(0.015625)"/>
      </defs>
      <use xlink:href="#DejaVuSans-30"/>
     </g>
    </g>
   </g>
   <g id="text_2">
    <g clip-path="url(#p79f5117cbd)">
     <!-- 1 -->
     <g style="opacity: 0" transform="translate(32.50435 99.399339) rotate(-44.409143) scale(0.12 -0.12)">
      <defs>
       <path id="DejaVuSans-31" d="M 794 531 
L 1825 531 
L 1825 4091 
L 703 3866 
L 703 4441 
L 1819 4666 
L 2450 4666 
L 2450 531 
L 3481 531 
L 3481 0 
L 794 0 
L 794 531 
z
" transform="scale(0.015625)"/>
      </defs>
      <use xlink:href="#DejaVuSans-31"/>
     </g>
    </g>
   </g>
   <g id="text_3">
    <g clip-path="url(#p79f5117cbd)">
     <!-- 2 -->
     <g style="opacity: 0" transform="translate(134.713299 26.024977) rotate(-46.3936) scale(0.12 -0.12)">
      <defs>
       <path id="DejaVuSans-32" d="M 1228 531 
L 3431 531 
L 3431 0 
L 469 0 
L 469 531 
Q 828 903 1448 1529 
Q 2069 2156 2228 2338 
Q 2531 2678 2651 2914 
Q 2772 3150 2772 3378 
Q 2772 3750 2511 3984 
Q 2250 4219 1831 4219 
Q 1534 4219 1204 4116 
Q 875 4013 500 3803 
L 500 4441 
Q 881 4594 1212 4672 
Q 1544 4750 1819 4750 
Q 2544 4750 2975 4387 
Q 3406 4025 3406 3419 
Q 3406 3131 3298 2873 
Q 3191 2616 2906 2266 
Q 2828 2175 2409 1742 
Q 1991 1309 1228 531 
z
" transform="scale(0.015625)"/>
      </defs>
      <use xlink:href="#DejaVuSans-32"/>
     </g>
    </g>
   </g>
   <g id="text_4">
    <g clip-path="url(#p79f5117cbd)">
     <!-- 3 -->
     <g style="opacity: 0" transform="translate(8.047903 110.436653) rotate(-39.564181) scale(0.12 -0.12)">
      <defs>
       <path id="DejaVuSans-33" d="M 2597 2516 
Q 3050 2419 3304 2112 
Q 3559 1806 3559 1356 
Q 3559 666 3084 287 
Q 2609 -91 1734 -91 
Q 1441 -91 1130 -33 
Q 819 25 488 141 
L 488 750 
Q 750 597 1062 519 
Q 1375 441 1716 441 
Q 2309 441 2620 675 
Q 2931 909 2931 1356 
Q 2931 1769 2642 2001 
Q 2353 2234 1838 2234 
L 1294 2234 
L 1294 2753 
L 1863 2753 
Q 2328 2753 2575 2939 
Q 2822 3125 2822 3475 
Q 2822 3834 2567 4026 
Q 2313 4219 1838 4219 
Q 1578 4219 1281 4162 
Q 984 4106 628 3988 
L 628 4550 
Q 988 4650 1302 4700 
Q 1616 4750 1894 4750 
Q 2613 4750 3031 4423 
Q 3450 4097 3450 3541 
Q 3450 3153 3228 2886 
Q 3006 2619 2597 2516 
z
" transform="scale(0.015625)"/>
      </defs>
      <use xlink:href="#DejaVuSans-33"/>
     </g>
    </g>
   </g>
   <g id="text_5">
    <g clip-path="url(#p79f5117cbd)">
     <!-- 4 -->
     <g style="opacity: 0" transform="translate(102.131869 46.43368) rotate(-50.168508) scale(0.12 -0.12)">
      <defs>
       <path id="DejaVuSans-34" d="M 2419 4116 
L 825 1625 
L 2419 1625 
L 2419 4116 
z
M 2253 4666 
L 3047 4666 
L 3047 1625 
L 3713 1625 
L 3713 1100 
L 3047 1100 
L 3047 0 
L 2419 0 
L 2419 1100 
L 313 1100 
L 313 1709 
L 2253 4666 
z
" transform="scale(0.015625)"/>
      </defs>
      <use xlink:href="#DejaVuSans-34"/>
     </g>
    </g>
   </g>
   <g id="text_6">
    <g clip-path="url(#p79f5117cbd)">
     <!-- 5 -->
     <g style="opacity: 0" transform="translate(144.472026 11.621236) rotate(-43.590641) scale(0.12 -0.12)">
      <defs>
       <path id="DejaVuSans-35" d="M 691 4666 
L 3169 4666 
L 3169 4134 
L 1269 4134 
L 1269 2991 
Q 1406 3038 1543 3061 
Q 1681 3084 1819 3084 
Q 2600 3084 3056 2656 
Q 3513 2228 3513 1497 
Q 3513 744 3044 326 
Q 2575 -91 1722 -91 
Q 1428 -91 1123 -41 
Q 819 9 494 109 
L 494 744 
Q 775 591 1075 516 
Q 1375 441 1709 441 
Q 2250 441 2565 725 
Q 2881 1009 2881 1497 
Q 2881 1984 2565 2268 
Q 2250 2553 1709 2553 
Q 1456 2553 1204 2497 
Q 953 2441 691 2322 
L 691 4666 
z
" transform="scale(0.015625)"/>
      </defs>
      <use xlink:href="#DejaVuSans-35"/>
     </g>
    </g>
   </g>
   <g id="text_7">
    <g clip-path="url(#p79f5117cbd)">
     <!-- 6 -->
     <g style="opacity: 0" transform="translate(8.382816 92.954304) rotate(-31.896305) scale(0.12 -0.12)">
      <defs>
       <path id="DejaVuSans-36" d="M 2113 2584 
Q 1688 2584 1439 2293 
Q 1191 2003 1191 1497 
Q 1191 994 1439 701 
Q 1688 409 2113 409 
Q 2538 409 2786 701 
Q 3034 994 3034 1497 
Q 3034 2003 2786 2293 
Q 2538 2584 2113 2584 
z
M 3366 4563 
L 3366 3988 
Q 3128 4100 2886 4159 
Q 2644 4219 2406 4219 
Q 1781 4219 1451 3797 
Q 1122 3375 1075 2522 
Q 1259 2794 1537 2939 
Q 1816 3084 2150 3084 
Q 2853 3084 3261 2657 
Q 3669 2231 3669 1497 
Q 3669 778 3244 343 
Q 2819 -91 2113 -91 
Q 1303 -91 875 529 
Q 447 1150 447 2328 
Q 447 3434 972 4092 
Q 1497 4750 2381 4750 
Q 2619 4750 2861 4703 
Q 3103 4656 3366 4563 
z
" transform="scale(0.015625)"/>
      </defs>
      <use xlink:href="#DejaVuSans-36"/>
     </g>
    </g>
   </g>
   <g id="text_8">
    <g clip-path="url(#p79f5117cbd)">
     <!-- 7 -->
     <g style="opacity: 0" transform="translate(48.663256 13.646371) rotate(-41.006364) scale(0.12 -0.12)">
      <defs>
       <path id="DejaVuSans-37" d="M 525 4666 
L 3525 4666 
L 3525 4397 
L 1831 0 
L 1172 0 
L 2766 4134 
L 525 4134 
L 525 4666 
z
" transform="scale(0.015625)"/>
      </defs>
      <use xlink:href="#DejaVuSans-37"/>
     </g>
    </g>
   </g>
   <g id="text_9">
    <g clip-path="url(#p79f5117cbd)">
     <!-- 8 -->
     <g style="opacity: 0" transform="translate(7.309969 31.328044) rotate(-38.320393) scale(0.12 -0.12)">
      <defs>
       <path id="DejaVuSans-38" d="M 2034 2216 
Q 1584 2216 1326 1975 
Q 1069 1734 1069 1313 
Q 1069 891 1326 650 
Q 1584 409 2034 409 
Q 2484 409 2743 651 
Q 3003 894 3003 1313 
Q 3003 1734 2745 1975 
Q 2488 2216 2034 2216 
z
M 1403 2484 
Q 997 2584 770 2862 
Q 544 3141 544 3541 
Q 544 4100 942 4425 
Q 1341 4750 2034 4750 
Q 2731 4750 3128 4425 
Q 3525 4100 3525 3541 
Q 3525 3141 3298 2862 
Q 3072 2584 2669 2484 
Q 3125 2378 3379 2068 
Q 3634 1759 3634 1313 
Q 3634 634 3220 271 
Q 2806 -91 2034 -91 
Q 1263 -91 848 271 
Q 434 634 434 1313 
Q 434 1759 690 2068 
Q 947 2378 1403 2484 
z
M 1172 3481 
Q 1172 3119 1398 2916 
Q 1625 2713 2034 2713 
Q 2441 2713 2670 2916 
Q 2900 3119 2900 3481 
Q 2900 3844 2670 4047 
Q 2441 4250 2034 4250 
Q 1625 4250 1398 4047 
Q 1172 3844 1172 3481 
z
" transform="scale(0.015625)"/>
      </defs>
      <use xlink:href="#DejaVuSans-38"/>
     </g>
    </g>
   </g>
  </g>
 </g>
 <defs>
  <clipPath id="p79f5117cbd">
   <rect x="0" y="0" width="576" height="820.551837"/>
  </clipPath>
 </defs>
</svg>
