<?xml version="1.0" encoding="utf-8" standalone="no"?>
<!DOCTYPE svg PUBLIC "-//W3C//DTD SVG 1.1//EN"
  "http://www.w3.org/Graphics/SVG/1.1/DTD/svg11.dtd">
<svg xmlns:xlink="http://www.w3.org/1999/xlink" width="576pt" height="818.669339pt" viewBox="0 0 576 818.669339" xmlns="http://www.w3.org/2000/svg" version="1.1">
 <metadata>
  <rdf:RDF xmlns:dc="http://purl.org/dc/elements/1.1/" xmlns:cc="http://creativecommons.org/ns#" xmlns:rdf="http://www.w3.org/1999/02/22-rdf-syntax-ns#">
   <cc:Work>
    <dc:type rdf:resource="http://purl.org/dc/dcmitype/StillImage"/>
    <dc:date>2025-07-25T22:44:09.583416</dc:date>
    <dc:format>image/svg+xml</dc:format>
    <dc:creator>
     <cc:Agent>
      <dc:title>Matplotlib v3.10.3, https://matplotlib.org/</dc:title>
     </cc:Agent>
    </dc:creator>
   </cc:Work>
  </rdf:RDF>
 </metadata>
 <defs>
  <style type="text/css">*{stroke-linejoin: round; stroke-linecap: butt}</style>
 </defs>
 <g id="figure_1">
  <g id="patch_1">
   <path d="M 0 818.669339 
L 576 818.669339 
L 576 0 
L 0 0 
L 0 818.669339 
z
" style="fill: none; opacity: 0"/>
  </g>
  <g id="axes_1">
   <g id="QuadContourSet_1">
    <path d="M 556.251429 20.437686 
L 559.542857 21.160607 
L 562.834286 21.630873 
L 566.125714 21.886624 
L 569.417143 22.062593 
L 572.708571 22.191075 
L 576 22.289007 
L 576 21.958727 
L 572.708571 21.81623 
L 569.417143 21.629282 
L 566.125714 21.373237 
L 562.834286 21.001103 
L 559.542857 20.381318 
L 557.207648 19.726972 
L 556.251429 19.60531 
L 552.96 19.247006 
L 549.668571 18.960819 
L 546.377143 18.822842 
L 543.085714 18.821914 
L 539.794286 18.775128 
L 536.502857 18.673137 
L 533.211429 18.472679 
L 529.92 18.178047 
L 526.628571 17.702499 
L 523.337143 16.805581 
L 522.509136 16.439143 
L 520.045714 15.500696 
L 516.754286 14.943954 
L 513.462857 14.880228 
L 510.171429 14.955132 
L 506.88 15.023169 
L 503.588571 15.08524 
L 500.297143 14.8891 
L 497.005714 14.390032 
L 493.714286 13.416987 
L 493.1542 13.151315 
L 490.422857 12.434939 
L 487.131429 11.774046 
L 486.216906 13.151315 
L 483.84 15.488054 
L 481.42426 13.151315 
L 480.548571 11.475165 
L 477.257143 11.224219 
L 473.965714 10.884901 
L 470.674286 10.400555 
L 468.158416 9.863486 
L 467.382857 9.791744 
L 464.091429 9.518575 
L 460.8 9.039993 
L 457.508571 8.814007 
L 454.217143 8.697824 
L 450.925714 8.552714 
L 447.634286 8.366338 
L 444.342857 8.118177 
L 441.051429 7.637045 
L 438.257403 6.575657 
L 437.76 6.472785 
L 434.468571 5.925309 
L 431.177143 5.666373 
L 427.885714 5.641257 
L 424.594286 5.569132 
L 421.302857 5.370782 
L 418.011429 5.064412 
L 414.72 4.549113 
L 411.428571 3.500587 
L 411.016912 3.287829 
L 408.137143 2.64647 
L 404.845714 2.093468 
L 401.554286 1.97433 
L 398.262857 1.828791 
L 394.971429 1.64698 
L 391.68 1.413408 
L 388.388571 1.102303 
L 385.097143 0.583698 
L 383.792025 0 
L 381.871337 0 
L 385.097143 1.442702 
L 388.388571 1.796565 
L 391.68 2.008844 
L 394.971429 2.168218 
L 398.262857 2.292274 
L 401.554286 2.391581 
L 404.845714 2.472873 
L 408.137143 3.066293 
L 409.13186 3.287829 
L 411.428571 4.474839 
L 414.72 5.191168 
L 418.011429 5.543209 
L 421.302857 5.752514 
L 424.594286 5.888022 
L 427.885714 5.937296 
L 431.177143 5.954455 
L 434.468571 6.24404 
L 436.400523 6.575657 
L 437.76 7.409011 
L 441.051429 8.342432 
L 444.342857 8.674428 
L 447.634286 8.843497 
L 450.925714 8.970473 
L 454.217143 9.069335 
L 457.508571 9.148489 
L 460.8 9.361216 
L 464.07112 9.863486 
L 464.091429 9.87835 
L 467.382857 10.767906 
L 470.674286 11.277255 
L 473.965714 11.607235 
L 477.257143 11.838408 
L 480.548571 12.009374 
L 481.145167 13.151315 
L 483.84 15.75802 
L 486.491512 13.151315 
L 487.131429 12.187602 
L 490.422857 12.909264 
L 491.345728 13.151315 
L 493.714286 14.274822 
L 497.005714 14.97167 
L 500.297143 15.329078 
L 503.588571 15.469544 
L 506.88 15.425091 
L 510.171429 15.376367 
L 513.462857 15.322724 
L 516.754286 15.451475 
L 520.045714 16.244851 
L 520.555732 16.439143 
L 523.337143 17.670066 
L 526.628571 18.301572 
L 529.92 18.636398 
L 533.211429 18.843844 
L 536.502857 18.984983 
L 539.794286 19.056793 
L 543.085714 19.089735 
L 546.377143 19.090388 
L 549.668571 19.243446 
L 552.96 19.561258 
L 554.426548 19.726972 
z
" clip-path="url(#p62c55f3473)" style="fill: #f5f9fe; fill-opacity: 0.9"/>
    <path d="M 559.542857 20.381318 
L 562.834286 21.001103 
L 566.125714 21.373237 
L 569.417143 21.629282 
L 572.708571 21.81623 
L 576 21.958727 
L 576 21.628447 
L 572.708571 21.441386 
L 569.417143 21.19597 
L 566.125714 20.859849 
L 562.834286 20.371334 
L 559.988747 19.726972 
L 559.542857 19.662062 
L 556.251429 19.251463 
L 552.96 18.932754 
L 549.668571 18.678192 
L 546.377143 18.555296 
L 543.085714 18.554093 
L 539.794286 18.493462 
L 536.502857 18.361291 
L 533.211429 18.101514 
L 529.92 17.719695 
L 526.628571 17.103426 
L 524.46254 16.439143 
L 523.337143 15.727088 
L 520.045714 14.756542 
L 516.754286 14.436433 
L 513.462857 14.437732 
L 510.171429 14.533898 
L 506.88 14.621246 
L 503.588571 14.700936 
L 500.297143 14.449123 
L 497.005714 13.808395 
L 494.962671 13.151315 
L 493.714286 12.767487 
L 490.422857 11.960614 
L 487.131429 11.360491 
L 485.9423 13.151315 
L 483.84 15.218089 
L 481.703352 13.151315 
L 480.548571 10.940956 
L 477.257143 10.610031 
L 473.965714 10.162568 
L 472.265271 9.863486 
L 470.674286 9.701623 
L 467.382857 9.411842 
L 464.091429 9.170283 
L 460.8 8.71877 
L 457.508571 8.479526 
L 454.217143 8.326313 
L 450.925714 8.134955 
L 447.634286 7.889179 
L 444.342857 7.561926 
L 441.051429 6.931658 
L 440.114284 6.575657 
L 437.76 6.088749 
L 434.468571 5.606577 
L 431.177143 5.378292 
L 427.885714 5.345217 
L 424.594286 5.250242 
L 421.302857 4.98905 
L 418.011429 4.585615 
L 414.72 3.907058 
L 412.901964 3.287829 
L 411.428571 2.913839 
L 408.137143 2.226647 
L 404.845714 1.714063 
L 401.554286 1.55708 
L 398.262857 1.365307 
L 394.971429 1.125742 
L 391.68 0.817973 
L 388.388571 0.40804 
L 386.258622 0 
L 385.097143 0 
L 383.792025 0 
L 385.097143 0.583698 
L 388.388571 1.102303 
L 391.68 1.413408 
L 394.971429 1.64698 
L 398.262857 1.828791 
L 401.554286 1.97433 
L 404.845714 2.093468 
L 408.137143 2.64647 
L 411.016912 3.287829 
L 411.428571 3.500587 
L 414.72 4.549113 
L 418.011429 5.064412 
L 421.302857 5.370782 
L 424.594286 5.569132 
L 427.885714 5.641257 
L 431.177143 5.666373 
L 434.468571 5.925308 
L 437.76 6.472785 
L 438.257403 6.575657 
L 441.051429 7.637045 
L 444.342857 8.118177 
L 447.634286 8.366338 
L 450.925714 8.552714 
L 454.217143 8.697824 
L 457.508571 8.814007 
L 460.8 9.039993 
L 464.091429 9.518575 
L 467.382857 9.791744 
L 468.158416 9.863486 
L 470.674286 10.400555 
L 473.965714 10.884901 
L 477.257143 11.224219 
L 480.548571 11.475165 
L 481.42426 13.151315 
L 483.84 15.488054 
L 486.216906 13.151315 
L 487.131429 11.774046 
L 490.422857 12.434939 
L 493.1542 13.151315 
L 493.714286 13.416987 
L 497.005714 14.390032 
L 500.297143 14.8891 
L 503.588571 15.08524 
L 506.88 15.023169 
L 510.171429 14.955132 
L 513.462857 14.880228 
L 516.754286 14.943954 
L 520.045714 15.500696 
L 522.509136 16.439143 
L 523.337143 16.805581 
L 526.628571 17.702499 
L 529.92 18.178047 
L 533.211429 18.472679 
L 536.502857 18.673137 
L 539.794286 18.775128 
L 543.085714 18.821914 
L 546.377143 18.822842 
L 549.668571 18.960819 
L 552.96 19.247006 
L 556.251429 19.60531 
L 557.207648 19.726972 
z
" clip-path="url(#p62c55f3473)" style="fill: #eff6fc; fill-opacity: 0.9"/>
    <path d="M 562.834286 20.371334 
L 566.125714 20.859849 
L 569.417143 21.19597 
L 572.708571 21.441386 
L 576 21.628447 
L 576 21.298168 
L 572.708571 21.066542 
L 569.417143 20.762659 
L 566.125714 20.346461 
L 562.834286 19.741564 
L 562.769846 19.726972 
L 559.542857 19.257205 
L 556.251429 18.897616 
L 552.96 18.618501 
L 549.668571 18.395565 
L 546.377143 18.28775 
L 543.085714 18.286272 
L 539.794286 18.211796 
L 536.502857 18.049444 
L 533.211429 17.730349 
L 529.92 17.261344 
L 526.628571 16.504353 
L 526.415943 16.439143 
L 523.337143 14.491139 
L 520.045714 14.012387 
L 516.754286 13.928912 
L 513.462857 13.995236 
L 510.171429 14.112663 
L 506.88 14.219323 
L 503.588571 14.316632 
L 500.297143 14.009145 
L 497.005714 13.226757 
L 496.771143 13.151315 
L 493.714286 12.211457 
L 490.422857 11.486289 
L 487.131429 10.946935 
L 485.667694 13.151315 
L 483.84 14.948124 
L 481.982444 13.151315 
L 480.548571 10.406747 
L 477.257143 9.995842 
L 476.372126 9.863486 
L 473.965714 9.591518 
L 470.674286 9.283803 
L 467.382857 9.031941 
L 464.091429 8.821991 
L 460.8 8.397547 
L 457.508571 8.145044 
L 454.217143 7.954803 
L 450.925714 7.717196 
L 447.634286 7.41202 
L 444.342857 7.005675 
L 442.336761 6.575657 
L 441.051429 6.336422 
L 437.76 5.704712 
L 434.468571 5.287846 
L 431.177143 5.09021 
L 427.885714 5.049178 
L 424.594286 4.931351 
L 421.302857 4.607318 
L 418.011429 4.106819 
L 414.787016 3.287829 
L 414.72 3.268055 
L 411.428571 2.435359 
L 408.137143 1.806824 
L 404.845714 1.334658 
L 401.554286 1.139829 
L 398.262857 0.901824 
L 394.971429 0.604504 
L 391.68 0.222537 
L 390.114957 0 
L 388.388571 0 
L 386.258622 0 
L 388.388571 0.40804 
L 391.68 0.817973 
L 394.971429 1.125742 
L 398.262857 1.365307 
L 401.554286 1.55708 
L 404.845714 1.714063 
L 408.137143 2.226647 
L 411.428571 2.913839 
L 412.901964 3.287829 
L 414.72 3.907058 
L 418.011429 4.585615 
L 421.302857 4.98905 
L 424.594286 5.250242 
L 427.885714 5.345217 
L 431.177143 5.378292 
L 434.468571 5.606577 
L 437.76 6.088749 
L 440.114284 6.575657 
L 441.051429 6.931658 
L 444.342857 7.561926 
L 447.634286 7.889179 
L 450.925714 8.134955 
L 454.217143 8.326313 
L 457.508571 8.479526 
L 460.8 8.71877 
L 464.091429 9.170283 
L 467.382857 9.411842 
L 470.674286 9.701623 
L 472.265271 9.863486 
L 473.965714 10.162568 
L 477.257143 10.610031 
L 480.548571 10.940956 
L 481.703352 13.151315 
L 483.84 15.218089 
L 485.9423 13.151315 
L 487.131429 11.360491 
L 490.422857 11.960614 
L 493.714286 12.767487 
L 494.962671 13.151315 
L 497.005714 13.808395 
L 500.297143 14.449123 
L 503.588571 14.700936 
L 506.88 14.621246 
L 510.171429 14.533898 
L 513.462857 14.437732 
L 516.754286 14.436433 
L 520.045714 14.756542 
L 523.337143 15.727088 
L 524.46254 16.439143 
L 526.628571 17.103426 
L 529.92 17.719695 
L 533.211429 18.101514 
L 536.502857 18.361291 
L 539.794286 18.493462 
L 543.085714 18.554093 
L 546.377143 18.555296 
L 549.668571 18.678192 
L 552.96 18.932754 
L 556.251429 19.251463 
L 559.542857 19.662062 
L 559.988747 19.726972 
z
" clip-path="url(#p62c55f3473)" style="fill: #eaf3fb; fill-opacity: 0.9"/>
    <path d="M 562.834286 19.741564 
L 566.125714 20.346461 
L 569.417143 20.762659 
L 572.708571 21.066542 
L 576 21.298168 
L 576 20.967888 
L 572.708571 20.691697 
L 569.417143 20.329348 
L 566.125714 19.833074 
L 565.550946 19.726972 
L 562.834286 19.264881 
L 559.542857 18.852348 
L 556.251429 18.543769 
L 552.96 18.304249 
L 549.668571 18.112938 
L 546.377143 18.020204 
L 543.085714 18.018451 
L 539.794286 17.930131 
L 536.502857 17.737598 
L 533.211429 17.359184 
L 529.92 16.802992 
L 528.369347 16.439143 
L 526.628571 14.9876 
L 523.337143 13.25519 
L 520.045714 13.268233 
L 516.754286 13.421391 
L 513.462857 13.552739 
L 510.171429 13.691428 
L 506.88 13.817401 
L 503.588571 13.932329 
L 500.297143 13.569167 
L 498.579614 13.151315 
L 497.005714 12.566702 
L 493.714286 11.655426 
L 490.422857 11.011964 
L 487.131429 10.53338 
L 485.393089 13.151315 
L 483.84 14.678158 
L 482.261537 13.151315 
L 480.548571 9.872538 
L 480.478981 9.863486 
L 477.257143 9.45395 
L 473.965714 9.127369 
L 470.674286 8.865982 
L 467.382857 8.65204 
L 464.091429 8.4737 
L 460.8 8.076324 
L 457.508571 7.810562 
L 454.217143 7.583292 
L 450.925714 7.299437 
L 447.634286 6.934861 
L 445.105251 6.575657 
L 444.342857 6.441394 
L 441.051429 5.853423 
L 437.76 5.320675 
L 434.468571 4.969114 
L 431.177143 4.802128 
L 427.885714 4.753139 
L 424.594286 4.612461 
L 421.302857 4.225586 
L 418.011429 3.628022 
L 416.672068 3.287829 
L 414.72 2.711865 
L 411.428571 1.956879 
L 408.137143 1.387001 
L 404.845714 0.955253 
L 401.554286 0.722578 
L 398.262857 0.438341 
L 394.971429 0.083266 
L 394.302488 0 
L 391.68 0 
L 390.114957 0 
L 391.68 0.222537 
L 394.971429 0.604504 
L 398.262857 0.901824 
L 401.554286 1.139829 
L 404.845714 1.334658 
L 408.137143 1.806824 
L 411.428571 2.435359 
L 414.72 3.268055 
L 414.787016 3.287829 
L 418.011429 4.106819 
L 421.302857 4.607318 
L 424.594286 4.931351 
L 427.885714 5.049178 
L 431.177143 5.09021 
L 434.468571 5.287846 
L 437.76 5.704712 
L 441.051429 6.336422 
L 442.336761 6.575657 
L 444.342857 7.005675 
L 447.634286 7.41202 
L 450.925714 7.717196 
L 454.217143 7.954803 
L 457.508571 8.145044 
L 460.8 8.397547 
L 464.091429 8.821991 
L 467.382857 9.031941 
L 470.674286 9.283803 
L 473.965714 9.591518 
L 476.372126 9.863486 
L 477.257143 9.995842 
L 480.548571 10.406747 
L 481.982444 13.151315 
L 483.84 14.948124 
L 485.667694 13.151315 
L 487.131429 10.946935 
L 490.422857 11.486289 
L 493.714286 12.211457 
L 496.771143 13.151315 
L 497.005714 13.226757 
L 500.297143 14.009145 
L 503.588571 14.316632 
L 506.88 14.219323 
L 510.171429 14.112663 
L 513.462857 13.995236 
L 516.754286 13.928912 
L 520.045714 14.012387 
L 523.337143 14.491139 
L 526.415943 16.439143 
L 526.628571 16.504353 
L 529.92 17.261344 
L 533.211429 17.730349 
L 536.502857 18.049444 
L 539.794286 18.211796 
L 543.085714 18.286272 
L 546.377143 18.28775 
L 549.668571 18.395565 
L 552.96 18.618501 
L 556.251429 18.897616 
L 559.542857 19.257205 
L 562.769846 19.726972 
z
" clip-path="url(#p62c55f3473)" style="fill: #e5eff9; fill-opacity: 0.9"/>
    <path d="M 566.125714 19.833074 
L 569.417143 20.329348 
L 572.708571 20.691697 
L 576 20.967888 
L 576 20.637608 
L 572.708571 20.316853 
L 569.417143 19.896037 
L 568.332045 19.726972 
L 566.125714 19.275667 
L 562.834286 18.791829 
L 559.542857 18.447491 
L 556.251429 18.189923 
L 552.96 17.989997 
L 549.668571 17.830311 
L 546.377143 17.752657 
L 543.085714 17.75063 
L 539.794286 17.648465 
L 536.502857 17.425751 
L 533.211429 16.988019 
L 530.32275 16.439143 
L 529.92 15.9468 
L 526.628571 13.358756 
L 526.226792 13.151315 
L 523.337143 12.620804 
L 520.045714 12.655211 
L 516.754286 12.855136 
L 513.462857 13.087751 
L 512.648256 13.151315 
L 510.171429 13.270194 
L 506.88 13.415478 
L 503.588571 13.548025 
L 500.450035 13.151315 
L 500.297143 13.110484 
L 497.005714 11.894959 
L 493.714286 11.099395 
L 490.422857 10.537638 
L 487.131429 10.119824 
L 484.585835 9.863486 
L 483.84 9.737196 
L 480.548571 9.277216 
L 477.257143 8.931917 
L 473.965714 8.66322 
L 470.674286 8.448162 
L 467.382857 8.272139 
L 464.091429 8.125408 
L 460.8 7.755101 
L 457.508571 7.476081 
L 454.217143 7.211781 
L 450.925714 6.881678 
L 448.464767 6.575657 
L 447.634286 6.398812 
L 444.342857 5.849757 
L 441.051429 5.370424 
L 437.76 4.936638 
L 434.468571 4.650383 
L 431.177143 4.514046 
L 427.885714 4.457099 
L 424.594286 4.293571 
L 421.302857 3.843854 
L 418.557119 3.287829 
L 418.011429 3.074208 
L 414.72 2.155675 
L 411.428571 1.478399 
L 408.137143 0.967178 
L 404.845714 0.575848 
L 401.554286 0.305327 
L 398.490019 0 
L 398.262857 0 
L 394.971429 0 
L 394.302488 0 
L 394.971429 0.083266 
L 398.262857 0.438341 
L 401.554286 0.722578 
L 404.845714 0.955253 
L 408.137143 1.387001 
L 411.428571 1.956879 
L 414.72 2.711865 
L 416.672068 3.287829 
L 418.011429 3.628022 
L 421.302857 4.225586 
L 424.594286 4.612461 
L 427.885714 4.753139 
L 431.177143 4.802128 
L 434.468571 4.969114 
L 437.76 5.320675 
L 441.051429 5.853423 
L 444.342857 6.441394 
L 445.105251 6.575657 
L 447.634286 6.934861 
L 450.925714 7.299437 
L 454.217143 7.583292 
L 457.508571 7.810562 
L 460.8 8.076324 
L 464.091429 8.4737 
L 467.382857 8.65204 
L 470.674286 8.865982 
L 473.965714 9.127369 
L 477.257143 9.45395 
L 480.478981 9.863486 
L 480.548571 9.872538 
L 482.261537 13.151315 
L 483.84 14.678158 
L 485.393089 13.151315 
L 487.131429 10.53338 
L 490.422857 11.011964 
L 493.714286 11.655426 
L 497.005714 12.566702 
L 498.579614 13.151315 
L 500.297143 13.569167 
L 503.588571 13.932329 
L 506.88 13.817401 
L 510.171429 13.691428 
L 513.462857 13.552739 
L 516.754286 13.421391 
L 520.045714 13.268233 
L 523.337143 13.25519 
L 526.628571 14.9876 
L 528.369347 16.439143 
L 529.92 16.802992 
L 533.211429 17.359184 
L 536.502857 17.737598 
L 539.794286 17.930131 
L 543.085714 18.018451 
L 546.377143 18.020204 
L 549.668571 18.112938 
L 552.96 18.304249 
L 556.251429 18.543769 
L 559.542857 18.852348 
L 562.834286 19.264881 
L 565.550946 19.726972 
z
M 482.540629 13.151315 
L 483.84 9.986921 
L 485.118483 13.151315 
L 483.84 14.408193 
z
" clip-path="url(#p62c55f3473)" style="fill: #dfecf7; fill-opacity: 0.9"/>
    <path d="M 569.417143 19.896037 
L 572.708571 20.316853 
L 576 20.637608 
L 576 20.307329 
L 572.708571 19.942008 
L 571.113144 19.726972 
L 569.417143 19.291932 
L 566.125714 18.706793 
L 562.834286 18.318777 
L 559.542857 18.042633 
L 556.251429 17.836076 
L 552.96 17.675745 
L 549.668571 17.547684 
L 546.377143 17.485111 
L 543.085714 17.482809 
L 539.794286 17.3668 
L 536.502857 17.113905 
L 533.211429 16.616854 
L 532.276154 16.439143 
L 529.92 13.558853 
L 529.381587 13.151315 
L 526.628571 12.534406 
L 523.337143 12.041614 
L 520.045714 12.066632 
L 516.754286 12.222073 
L 513.462857 12.402931 
L 510.171429 12.615995 
L 506.88 12.870708 
L 503.871897 13.151315 
L 503.588571 13.163721 
L 503.490419 13.151315 
L 500.297143 12.298531 
L 497.005714 11.223216 
L 493.714286 10.543364 
L 490.422857 10.063313 
L 488.69269 9.863486 
L 487.131429 9.546484 
L 483.84 9.041792 
L 480.548571 8.680841 
L 477.257143 8.409884 
L 473.965714 8.199071 
L 470.674286 8.030341 
L 467.382857 7.892238 
L 464.091429 7.777116 
L 460.8 7.433878 
L 457.508571 7.141599 
L 454.217143 6.840271 
L 451.824282 6.575657 
L 450.925714 6.333705 
L 447.634286 5.683426 
L 444.342857 5.25812 
L 441.051429 4.887425 
L 437.76 4.552602 
L 434.468571 4.331651 
L 431.177143 4.225964 
L 427.885714 4.16106 
L 424.594286 3.974681 
L 421.302857 3.462122 
L 420.442171 3.287829 
L 418.011429 2.336272 
L 414.72 1.599485 
L 411.428571 0.999919 
L 408.137143 0.547354 
L 404.845714 0.196443 
L 402.677551 0 
L 401.554286 0 
L 398.490019 0 
L 401.554286 0.305327 
L 404.845714 0.575848 
L 408.137143 0.967178 
L 411.428571 1.478399 
L 414.72 2.155675 
L 418.011429 3.074208 
L 418.557119 3.287829 
L 421.302857 3.843854 
L 424.594286 4.293571 
L 427.885714 4.457099 
L 431.177143 4.514046 
L 434.468571 4.650383 
L 437.76 4.936638 
L 441.051429 5.370424 
L 444.342857 5.849757 
L 447.634286 6.398812 
L 448.464767 6.575657 
L 450.925714 6.881678 
L 454.217143 7.211781 
L 457.508571 7.476081 
L 460.8 7.755101 
L 464.091429 8.125408 
L 467.382857 8.272139 
L 470.674286 8.448162 
L 473.965714 8.66322 
L 477.257143 8.931917 
L 480.548571 9.277216 
L 483.84 9.737196 
L 484.585835 9.863486 
L 487.131429 10.119824 
L 490.422857 10.537638 
L 493.714286 11.099395 
L 497.005714 11.894959 
L 500.297143 13.110484 
L 500.450035 13.151315 
L 503.588571 13.548025 
L 506.88 13.415478 
L 510.171429 13.270194 
L 512.648256 13.151315 
L 513.462857 13.087751 
L 516.754286 12.855136 
L 520.045714 12.655211 
L 523.337143 12.620804 
L 526.226792 13.151315 
L 526.628571 13.358756 
L 529.92 15.9468 
L 530.32275 16.439143 
L 533.211429 16.988019 
L 536.502857 17.425751 
L 539.794286 17.648465 
L 543.085714 17.75063 
L 546.377143 17.752657 
L 549.668571 17.830311 
L 552.96 17.989997 
L 556.251429 18.189923 
L 559.542857 18.447491 
L 562.834286 18.791829 
L 566.125714 19.275667 
L 568.332045 19.726972 
z
M 483.84 14.408193 
L 485.118483 13.151315 
L 483.84 9.986921 
L 482.540629 13.151315 
z
M 482.819721 13.151315 
L 483.84 10.666602 
L 484.843877 13.151315 
L 483.84 14.138228 
z
" clip-path="url(#p62c55f3473)" style="fill: #dae8f6; fill-opacity: 0.9"/>
    <path d="M 572.708571 19.942008 
L 576 20.307329 
L 576 19.977049 
L 573.894243 19.726972 
L 572.708571 19.319275 
L 569.417143 18.578556 
L 566.125714 18.137919 
L 562.834286 17.845725 
L 559.542857 17.637776 
L 556.251429 17.482229 
L 552.96 17.361492 
L 549.668571 17.265057 
L 546.377143 17.217565 
L 543.085714 17.214988 
L 539.794286 17.085134 
L 536.502857 16.802059 
L 534.229557 16.439143 
L 533.211429 14.108237 
L 532.536382 13.151315 
L 529.92 12.399111 
L 526.628571 11.827465 
L 523.337143 11.462425 
L 520.045714 11.478054 
L 516.754286 11.58901 
L 513.462857 11.71811 
L 510.171429 11.870199 
L 506.88 12.052019 
L 503.588571 12.273231 
L 500.297143 11.486578 
L 497.005714 10.551473 
L 493.714286 9.987334 
L 492.799545 9.863486 
L 490.422857 9.260944 
L 487.131429 8.712617 
L 483.84 8.346389 
L 480.548571 8.084465 
L 477.257143 7.887852 
L 473.965714 7.734921 
L 470.674286 7.61252 
L 467.382857 7.512337 
L 464.091429 7.428824 
L 460.8 7.112655 
L 457.508571 6.807118 
L 455.183797 6.575657 
L 454.217143 6.221775 
L 450.925714 5.429109 
L 447.634286 4.968039 
L 444.342857 4.666483 
L 441.051429 4.404426 
L 437.76 4.168565 
L 434.468571 4.01292 
L 431.177143 3.937883 
L 427.885714 3.865021 
L 424.594286 3.655791 
L 422.356656 3.287829 
L 421.302857 2.633373 
L 418.011429 1.598335 
L 414.72 1.043295 
L 411.428571 0.521438 
L 408.137143 0.127531 
L 406.865082 0 
L 404.845714 0 
L 402.677551 0 
L 404.845714 0.196443 
L 408.137143 0.547354 
L 411.428571 0.999919 
L 414.72 1.599485 
L 418.011429 2.336272 
L 420.442171 3.287829 
L 421.302857 3.462122 
L 424.594286 3.974681 
L 427.885714 4.16106 
L 431.177143 4.225964 
L 434.468571 4.331651 
L 437.76 4.552602 
L 441.051429 4.887425 
L 444.342857 5.25812 
L 447.634286 5.683426 
L 450.925714 6.333705 
L 451.824282 6.575657 
L 454.217143 6.840271 
L 457.508571 7.141599 
L 460.8 7.433878 
L 464.091429 7.777116 
L 467.382857 7.892238 
L 470.674286 8.030341 
L 473.965714 8.199071 
L 477.257143 8.409884 
L 480.548571 8.680841 
L 483.84 9.041792 
L 487.131429 9.546484 
L 488.69269 9.863486 
L 490.422857 10.063313 
L 493.714286 10.543364 
L 497.005714 11.223216 
L 500.297143 12.298531 
L 503.490419 13.151315 
L 503.588571 13.163721 
L 503.871897 13.151315 
L 506.88 12.870708 
L 510.171429 12.615995 
L 513.462857 12.402931 
L 516.754286 12.222073 
L 520.045714 12.066632 
L 523.337143 12.041614 
L 526.628571 12.534406 
L 529.381587 13.151315 
L 529.92 13.558853 
L 532.276154 16.439143 
L 533.211429 16.616854 
L 536.502857 17.113905 
L 539.794286 17.3668 
L 543.085714 17.482809 
L 546.377143 17.485111 
L 549.668571 17.547684 
L 552.96 17.675745 
L 556.251429 17.836076 
L 559.542857 18.042633 
L 562.834286 18.318777 
L 566.125714 18.706793 
L 569.417143 19.291932 
L 571.113144 19.726972 
z
M 483.84 14.138228 
L 484.843877 13.151315 
L 483.84 10.666602 
L 482.819721 13.151315 
z
M 483.098814 13.151315 
L 483.84 11.346284 
L 484.569271 13.151315 
L 483.84 13.868262 
z
" clip-path="url(#p62c55f3473)" style="fill: #d6e5f4; fill-opacity: 0.9"/>
    <path d="M 576 19.977049 
L 576 19.726972 
L 576 19.374854 
L 572.708571 18.362986 
L 569.417143 17.865179 
L 566.125714 17.569045 
L 562.834286 17.372673 
L 559.542857 17.232919 
L 556.251429 17.128382 
L 552.96 17.04724 
L 549.668571 16.982429 
L 546.377143 16.950019 
L 543.085714 16.947167 
L 539.794286 16.803468 
L 536.502857 16.490212 
L 536.182961 16.439143 
L 535.691177 13.151315 
L 533.211429 12.157468 
L 529.92 11.492116 
L 526.628571 11.120525 
L 523.337143 10.883236 
L 520.045714 10.889475 
L 516.754286 10.955947 
L 513.462857 11.033289 
L 510.171429 11.124404 
L 506.88 11.233329 
L 503.588571 11.365854 
L 500.297143 10.674625 
L 497.005714 9.87973 
L 496.9064 9.863486 
L 493.714286 8.786451 
L 490.422857 8.219768 
L 487.131429 7.878751 
L 483.84 7.650986 
L 480.548571 7.488089 
L 477.257143 7.365819 
L 473.965714 7.270772 
L 470.674286 7.1947 
L 467.382857 7.132435 
L 464.091429 7.080532 
L 460.8 6.791432 
L 458.543313 6.575657 
L 457.508571 5.984146 
L 454.217143 4.991892 
L 450.925714 4.524513 
L 447.634286 4.252653 
L 444.342857 4.074847 
L 441.051429 3.921427 
L 437.76 3.784528 
L 434.468571 3.694188 
L 431.177143 3.649801 
L 427.885714 3.568981 
L 424.594286 3.336901 
L 424.295872 3.287829 
L 421.302857 1.429035 
L 418.011429 0.860399 
L 414.72 0.487104 
L 411.428571 0.042958 
L 411.052613 0 
L 408.137143 0 
L 406.865082 0 
L 408.137143 0.127531 
L 411.428571 0.521438 
L 414.72 1.043295 
L 418.011429 1.598335 
L 421.302857 2.633373 
L 422.356656 3.287829 
L 424.594286 3.655791 
L 427.885714 3.865021 
L 431.177143 3.937883 
L 434.468571 4.01292 
L 437.76 4.168565 
L 441.051429 4.404426 
L 444.342857 4.666483 
L 447.634286 4.968039 
L 450.925714 5.429109 
L 454.217143 6.221775 
L 455.183797 6.575657 
L 457.508571 6.807118 
L 460.8 7.112655 
L 464.091429 7.428824 
L 467.382857 7.512337 
L 470.674286 7.61252 
L 473.965714 7.734921 
L 477.257143 7.887852 
L 480.548571 8.084465 
L 483.84 8.346389 
L 487.131429 8.712617 
L 490.422857 9.260944 
L 492.799545 9.863486 
L 493.714286 9.987334 
L 497.005714 10.551473 
L 500.297143 11.486578 
L 503.588571 12.273231 
L 506.88 12.052019 
L 510.171429 11.870199 
L 513.462857 11.71811 
L 516.754286 11.58901 
L 520.045714 11.478054 
L 523.337143 11.462425 
L 526.628571 11.827465 
L 529.92 12.399111 
L 532.536382 13.151315 
L 533.211429 14.108237 
L 534.229557 16.439143 
L 536.502857 16.802059 
L 539.794286 17.085134 
L 543.085714 17.214988 
L 546.377143 17.217565 
L 549.668571 17.265057 
L 552.96 17.361492 
L 556.251429 17.482229 
L 559.542857 17.637776 
L 562.834286 17.845725 
L 566.125714 18.137919 
L 569.417143 18.578556 
L 572.708571 19.319275 
L 573.894243 19.726972 
z
M 483.84 13.868262 
L 484.569271 13.151315 
L 483.84 11.346284 
L 483.098814 13.151315 
z
M 483.377906 13.151315 
L 483.84 12.025965 
L 484.294665 13.151315 
L 483.84 13.598297 
z
" clip-path="url(#p62c55f3473)" style="fill: #d0e2f2; fill-opacity: 0.9"/>
    <path d="M 536.502857 16.490212 
L 539.794286 16.803468 
L 543.085714 16.947167 
L 546.377143 16.950019 
L 549.668571 16.982429 
L 552.96 17.04724 
L 556.251429 17.128382 
L 559.542857 17.232919 
L 562.834286 17.372673 
L 566.125714 17.569045 
L 569.417143 17.865179 
L 572.708571 18.362986 
L 576 19.374854 
L 576 17.92481 
L 572.708571 17.406697 
L 569.417143 17.151802 
L 566.125714 17.00017 
L 562.834286 16.899621 
L 559.542857 16.828062 
L 556.251429 16.774535 
L 552.96 16.732988 
L 549.668571 16.699802 
L 546.377143 16.682473 
L 543.085714 16.679346 
L 539.794286 16.521803 
L 538.939263 16.439143 
L 538.845972 13.151315 
L 536.502857 11.601548 
L 533.211429 10.893074 
L 529.92 10.58512 
L 526.628571 10.413584 
L 523.337143 10.304047 
L 520.045714 10.300896 
L 516.754286 10.322885 
L 513.462857 10.348469 
L 510.171429 10.378608 
L 506.88 10.41464 
L 503.588571 10.458478 
L 500.302167 9.863486 
L 500.297143 9.858248 
L 497.005714 7.842698 
L 493.714286 7.400778 
L 490.422857 7.178592 
L 487.131429 7.044885 
L 483.84 6.955583 
L 480.548571 6.891714 
L 477.257143 6.843786 
L 473.965714 6.806623 
L 470.674286 6.776879 
L 467.382857 6.752534 
L 464.091429 6.73224 
L 462.189067 6.575657 
L 460.8 5.137925 
L 457.508571 4.063673 
L 454.217143 3.762009 
L 450.925714 3.619917 
L 447.634286 3.537266 
L 444.342857 3.48321 
L 441.051429 3.438428 
L 437.76 3.400491 
L 434.468571 3.375457 
L 431.177143 3.361719 
L 428.425233 3.287829 
L 427.885714 2.68881 
L 424.594286 0.646477 
L 421.302857 0.224696 
L 418.011429 0.122462 
L 416.128984 0 
L 414.72 0 
L 411.428571 0 
L 411.052613 0 
L 411.428571 0.042958 
L 414.72 0.487104 
L 418.011429 0.860399 
L 421.302857 1.429035 
L 424.295872 3.287829 
L 424.594286 3.336901 
L 427.885714 3.568981 
L 431.177143 3.649801 
L 434.468571 3.694188 
L 437.76 3.784528 
L 441.051429 3.921427 
L 444.342857 4.074847 
L 447.634286 4.252653 
L 450.925714 4.524513 
L 454.217143 4.991892 
L 457.508571 5.984146 
L 458.543313 6.575657 
L 460.8 6.791432 
L 464.091429 7.080532 
L 467.382857 7.132435 
L 470.674286 7.1947 
L 473.965714 7.270772 
L 477.257143 7.365819 
L 480.548571 7.488089 
L 483.84 7.650986 
L 487.131429 7.878751 
L 490.422857 8.219768 
L 493.714286 8.786451 
L 496.9064 9.863486 
L 497.005714 9.87973 
L 500.297143 10.674625 
L 503.588571 11.365854 
L 506.88 11.233329 
L 510.171429 11.124404 
L 513.462857 11.033289 
L 516.754286 10.955947 
L 520.045714 10.889475 
L 523.337143 10.883236 
L 526.628571 11.120525 
L 529.92 11.492116 
L 533.211429 12.157468 
L 535.691177 13.151315 
L 536.182961 16.439143 
z
M 483.84 13.598297 
L 484.294665 13.151315 
L 483.84 12.025965 
L 483.377906 13.151315 
z
M 483.656999 13.151315 
L 483.84 12.705646 
L 484.02006 13.151315 
L 483.84 13.328332 
z
" clip-path="url(#p62c55f3473)" style="fill: #cbdef1; fill-opacity: 0.9"/>
    <path d="M 539.794286 16.521803 
L 543.085714 16.679346 
L 546.377143 16.682473 
L 549.668571 16.699802 
L 552.96 16.732988 
L 556.251429 16.774535 
L 559.542857 16.828062 
L 562.834286 16.899621 
L 566.125714 17.00017 
L 569.417143 17.151802 
L 572.708571 17.406697 
L 576 17.92481 
L 576 16.474766 
L 572.708571 16.450408 
L 569.676354 16.439143 
L 572.708571 14.199999 
L 574.175112 13.151315 
L 576 12.295774 
L 576 9.863486 
L 576 6.575657 
L 576 3.287829 
L 576 0 
L 572.708571 0 
L 569.417143 0 
L 566.125714 0 
L 562.834286 0 
L 559.542857 0 
L 556.251429 0 
L 552.96 0 
L 549.668571 0 
L 546.377143 0 
L 543.085714 0 
L 539.794286 0 
L 536.502857 0 
L 533.211429 0 
L 529.92 0 
L 526.628571 0 
L 523.337143 0 
L 520.045714 0 
L 516.754286 0 
L 513.462857 0 
L 510.171429 0 
L 506.88 0 
L 503.588571 0 
L 500.297143 0 
L 497.005714 0 
L 493.714286 0 
L 490.422857 0 
L 487.131429 0 
L 483.84 0 
L 480.548571 0 
L 477.257143 0 
L 473.965714 0 
L 470.674286 0 
L 467.382857 0 
L 464.091429 0 
L 460.8 0 
L 457.508571 0 
L 454.217143 0 
L 450.925714 0 
L 447.634286 0 
L 444.342857 0 
L 441.051429 0 
L 437.76 0 
L 434.468571 0 
L 431.177143 0 
L 427.885714 0 
L 424.594286 0 
L 421.302857 0 
L 418.011429 0 
L 416.128984 0 
L 418.011429 0.122462 
L 421.302857 0.224696 
L 424.594286 0.646477 
L 427.885714 2.68881 
L 428.425233 3.287829 
L 431.177143 3.361719 
L 434.468571 3.375457 
L 437.76 3.400491 
L 441.051429 3.438428 
L 444.342857 3.48321 
L 447.634286 3.537266 
L 450.925714 3.619917 
L 454.217143 3.762009 
L 457.508571 4.063673 
L 460.8 5.137925 
L 462.189067 6.575657 
L 464.091429 6.73224 
L 467.382857 6.752534 
L 470.674286 6.776879 
L 473.965714 6.806623 
L 477.257143 6.843786 
L 480.548571 6.891714 
L 483.84 6.955583 
L 487.131429 7.044885 
L 490.422857 7.178592 
L 493.714286 7.400778 
L 497.005714 7.842698 
L 500.297143 9.858248 
L 500.302167 9.863486 
L 503.588571 10.458478 
L 506.88 10.41464 
L 510.171429 10.378608 
L 513.462857 10.348469 
L 516.754286 10.322885 
L 520.045714 10.300896 
L 523.337143 10.304047 
L 526.628571 10.413584 
L 529.92 10.58512 
L 533.211429 10.893074 
L 536.502857 11.601548 
L 538.845972 13.151315 
L 538.939263 16.439143 
z
M 483.84 13.328332 
L 484.02006 13.151315 
L 483.84 12.705646 
L 483.656999 13.151315 
z
" clip-path="url(#p62c55f3473)" style="fill: #c6dbef; fill-opacity: 0.9"/>
    <path d="M 572.708571 16.450408 
L 576 16.474766 
L 576 16.439143 
L 576 13.151315 
L 576 12.295774 
L 574.175112 13.151315 
L 572.708571 14.199999 
L 569.676354 16.439143 
z
" clip-path="url(#p62c55f3473)" style="fill: #bed8ec; fill-opacity: 0.9"/>
    <path clip-path="url(#p62c55f3473)" style="fill: #b5d4e9; fill-opacity: 0.9"/>
    <path clip-path="url(#p62c55f3473)" style="fill: #add0e6; fill-opacity: 0.9"/>
    <path clip-path="url(#p62c55f3473)" style="fill: #a5cde3; fill-opacity: 0.9"/>
    <path clip-path="url(#p62c55f3473)" style="fill: #9cc9e1; fill-opacity: 0.9"/>
    <path clip-path="url(#p62c55f3473)" style="fill: #91c3de; fill-opacity: 0.9"/>
    <path clip-path="url(#p62c55f3473)" style="fill: #85bcdc; fill-opacity: 0.9"/>
    <path clip-path="url(#p62c55f3473)" style="fill: #7cb7da; fill-opacity: 0.9"/>
    <path clip-path="url(#p62c55f3473)" style="fill: #71b1d7; fill-opacity: 0.9"/>
    <path clip-path="url(#p62c55f3473)" style="fill: #66abd4; fill-opacity: 0.9"/>
    <path clip-path="url(#p62c55f3473)" style="fill: #5da5d1; fill-opacity: 0.9"/>
    <path clip-path="url(#p62c55f3473)" style="fill: #56a0ce; fill-opacity: 0.9"/>
    <path clip-path="url(#p62c55f3473)" style="fill: #4d99ca; fill-opacity: 0.9"/>
    <path clip-path="url(#p62c55f3473)" style="fill: #4493c7; fill-opacity: 0.9"/>
    <path clip-path="url(#p62c55f3473)" style="fill: #3c8cc3; fill-opacity: 0.9"/>
    <path clip-path="url(#p62c55f3473)" style="fill: #3686c0; fill-opacity: 0.9"/>
    <path clip-path="url(#p62c55f3473)" style="fill: #2f7fbc; fill-opacity: 0.9"/>
    <path clip-path="url(#p62c55f3473)" style="fill: #2777b8; fill-opacity: 0.9"/>
    <path clip-path="url(#p62c55f3473)" style="fill: #2070b4; fill-opacity: 0.9"/>
    <path clip-path="url(#p62c55f3473)" style="fill: #1c6ab0; fill-opacity: 0.9"/>
    <path clip-path="url(#p62c55f3473)" style="fill: #1663aa; fill-opacity: 0.9"/>
    <path clip-path="url(#p62c55f3473)" style="fill: #115ca5; fill-opacity: 0.9"/>
    <path clip-path="url(#p62c55f3473)" style="fill: #0c56a0; fill-opacity: 0.9"/>
    <path clip-path="url(#p62c55f3473)" style="fill: #084f99; fill-opacity: 0.9"/>
    <path clip-path="url(#p62c55f3473)" style="fill: #08488e; fill-opacity: 0.9"/>
    <path clip-path="url(#p62c55f3473)" style="fill: #084184; fill-opacity: 0.9"/>
    <path clip-path="url(#p62c55f3473)" style="fill: #083a7a; fill-opacity: 0.9"/>
    <path clip-path="url(#p62c55f3473)" style="fill: #083370; fill-opacity: 0.9"/>
    <path clip-path="url(#p62c55f3473)" style="fill: #08306b; fill-opacity: 0.9"/>
   </g>
   <g id="QuadContourSet_2">
    <path d="M 381.871337 0 
L 385.097143 1.442702 
L 388.388571 1.796565 
L 391.68 2.008844 
L 394.971429 2.168218 
L 398.262857 2.292274 
L 401.554286 2.391581 
L 404.845714 2.472873 
L 408.137143 3.066293 
L 409.13186 3.287829 
L 411.428571 4.474839 
L 414.72 5.191168 
L 418.011429 5.543209 
L 421.302857 5.752514 
L 424.594286 5.888022 
L 427.885714 5.937296 
L 431.177143 5.954455 
L 434.468571 6.24404 
L 436.400523 6.575657 
L 437.76 7.409011 
L 441.051429 8.342432 
L 444.342857 8.674428 
L 447.634286 8.843497 
L 450.925714 8.970473 
L 454.217143 9.069335 
L 457.508571 9.148489 
L 460.8 9.361216 
L 464.07112 9.863486 
L 464.091429 9.87835 
L 467.382857 10.767906 
L 470.674286 11.277255 
L 473.965714 11.607235 
L 477.257143 11.838408 
L 480.548571 12.009374 
L 481.145167 13.151315 
L 483.84 15.75802 
L 486.491512 13.151315 
L 487.131429 12.187602 
L 490.422857 12.909264 
L 491.345728 13.151315 
L 493.714286 14.274822 
L 497.005714 14.97167 
L 500.297143 15.329078 
L 503.588571 15.469544 
L 506.88 15.425091 
L 510.171429 15.376367 
L 513.462857 15.322724 
L 516.754286 15.451475 
L 520.045714 16.244851 
L 520.555732 16.439143 
L 523.337143 17.670066 
L 526.628571 18.301572 
L 529.92 18.636398 
L 530.281203 18.659163 
M 549.313571 19.226938 
L 549.668571 19.243446 
L 552.96 19.561258 
L 554.426548 19.726972 
L 556.251429 20.437686 
L 559.542857 21.160607 
L 562.834286 21.630873 
L 566.125714 21.886624 
L 569.417143 22.062593 
L 572.708571 22.191075 
L 576 22.289007 
" clip-path="url(#p62c55f3473)" style="fill: none"/>
    <path d="M 383.792025 0 
L 385.097143 0.583698 
L 388.388571 1.102303 
L 391.68 1.413408 
L 394.971429 1.64698 
L 398.262857 1.828791 
L 401.554286 1.97433 
L 404.845714 2.093468 
L 408.137143 2.64647 
L 411.016912 3.287829 
L 411.428571 3.500587 
L 414.72 4.549113 
L 418.011429 5.064412 
L 421.302857 5.370782 
L 424.594286 5.569132 
L 427.885714 5.641257 
L 431.177143 5.666373 
L 434.468571 5.925308 
L 437.76 6.472785 
L 438.257403 6.575657 
L 441.051429 7.637045 
L 444.342857 8.118177 
L 447.634286 8.366338 
L 447.937831 8.383527 
M 467.0374 9.763073 
L 467.382857 9.791744 
L 468.158416 9.863486 
L 470.674286 10.400555 
L 473.965714 10.884901 
L 477.257143 11.224219 
L 480.548571 11.475165 
L 481.42426 13.151315 
L 483.84 15.488054 
L 486.216906 13.151315 
L 487.131429 11.774046 
L 490.422857 12.434939 
L 493.1542 13.151315 
L 493.714286 13.416987 
L 497.005714 14.390032 
L 500.297143 14.8891 
L 503.588571 15.08524 
L 506.88 15.023169 
L 510.171429 14.955132 
L 513.462857 14.880228 
L 516.754286 14.943954 
L 520.045714 15.500696 
L 522.509136 16.439143 
L 523.337143 16.805581 
L 526.628571 17.702499 
L 529.92 18.178047 
L 533.211429 18.472679 
L 536.502857 18.673137 
L 539.794286 18.775128 
L 543.085714 18.821914 
L 546.377143 18.822842 
L 549.668571 18.960819 
L 552.96 19.247006 
L 556.251429 19.60531 
L 557.207648 19.726972 
L 559.542857 20.381318 
L 562.834286 21.001103 
L 566.125714 21.373237 
L 569.417143 21.629282 
L 572.708571 21.81623 
L 576 21.958727 
" clip-path="url(#p62c55f3473)" style="fill: none"/>
    <path d="M 386.258622 0 
L 388.388571 0.40804 
L 391.68 0.817973 
L 394.971429 1.125742 
L 398.262857 1.365307 
L 401.554286 1.55708 
L 404.845714 1.714063 
L 408.137143 2.226647 
L 411.428571 2.913839 
L 412.901964 3.287829 
L 414.72 3.907058 
L 418.011429 4.585615 
L 421.302857 4.98905 
L 424.594286 5.250242 
L 427.885714 5.345217 
L 431.177143 5.378292 
L 434.468571 5.606577 
L 437.76 6.088749 
L 440.114284 6.575657 
L 441.051429 6.931658 
L 444.342857 7.561926 
L 447.634286 7.889179 
L 450.925714 8.134955 
L 454.217143 8.326313 
L 457.508571 8.479526 
L 460.8 8.71877 
L 464.091429 9.170283 
L 467.382857 9.411842 
L 470.674286 9.701623 
L 472.265271 9.863486 
L 473.965714 10.162568 
L 477.257143 10.610031 
L 480.548571 10.940956 
L 481.703352 13.151315 
L 483.84 15.218089 
L 485.9423 13.151315 
L 487.131429 11.360491 
L 490.422857 11.960614 
L 493.714286 12.767487 
L 494.962671 13.151315 
L 497.005714 13.808395 
L 500.297143 14.449123 
L 503.588571 14.700936 
L 506.88 14.621246 
L 510.171429 14.533898 
L 513.462857 14.437732 
L 516.754286 14.436433 
L 520.045714 14.756542 
L 523.337143 15.727088 
L 524.46254 16.439143 
L 526.628571 17.103426 
L 529.92 17.719695 
L 533.211429 18.101514 
L 536.502857 18.361291 
L 539.794286 18.493462 
L 543.085714 18.554093 
L 546.377143 18.555296 
L 549.668571 18.678192 
L 552.96 18.932754 
L 556.251429 19.251463 
L 559.542857 19.662062 
L 559.988747 19.726972 
L 562.834286 20.371334 
L 563.185638 20.423482 
" clip-path="url(#p62c55f3473)" style="fill: none"/>
    <path d="M 390.114957 0 
L 391.68 0.222537 
L 394.971429 0.604504 
L 395.291184 0.633388 
M 414.246717 3.14832 
L 414.72 3.268055 
L 414.787016 3.287829 
L 418.011429 4.106819 
L 421.302857 4.607318 
L 424.594286 4.931351 
L 427.885714 5.049178 
L 431.177143 5.09021 
L 434.468571 5.287846 
L 437.76 5.704712 
L 441.051429 6.336422 
L 442.336761 6.575657 
L 444.342857 7.005675 
L 447.634286 7.41202 
L 450.925714 7.717196 
L 454.217143 7.954803 
L 457.508571 8.145044 
L 460.8 8.397547 
L 464.091429 8.821991 
L 467.382857 9.031941 
L 470.674286 9.283803 
L 473.965714 9.591518 
L 476.372126 9.863486 
L 477.257143 9.995842 
L 480.548571 10.406747 
L 481.982444 13.151315 
L 483.84 14.948124 
L 485.667694 13.151315 
L 487.131429 10.946935 
L 490.422857 11.486289 
L 493.714286 12.211457 
L 496.771143 13.151315 
L 497.005714 13.226757 
L 500.297143 14.009145 
L 503.588571 14.316632 
L 506.88 14.219323 
L 510.171429 14.112663 
L 513.462857 13.995236 
L 516.754286 13.928912 
L 520.045714 14.012387 
L 523.337143 14.491139 
L 526.415943 16.439143 
L 526.628571 16.504353 
L 529.92 17.261344 
L 533.211429 17.730349 
L 536.502857 18.049444 
L 539.794286 18.211796 
L 543.085714 18.286272 
L 546.377143 18.28775 
L 549.668571 18.395565 
L 552.96 18.618501 
L 556.251429 18.897616 
L 559.542857 19.257205 
L 562.769846 19.726972 
L 562.834286 19.741564 
L 566.125714 20.346461 
L 569.417143 20.762659 
L 572.708571 21.066542 
L 576 21.298168 
" clip-path="url(#p62c55f3473)" style="fill: none"/>
    <path d="M 394.302488 0 
L 394.971429 0.083266 
L 398.262857 0.438341 
L 401.554286 0.722578 
L 404.845714 0.955253 
L 408.137143 1.387001 
L 411.428571 1.956879 
L 414.72 2.711865 
L 416.672068 3.287829 
L 418.011429 3.628022 
L 421.302857 4.225586 
L 424.594286 4.612461 
L 427.885714 4.753139 
L 428.260399 4.758716 
M 447.156942 6.867063 
L 447.634286 6.934861 
L 450.925714 7.299437 
L 454.217143 7.583292 
L 457.508571 7.810562 
L 460.8 8.076324 
L 464.091429 8.4737 
L 467.382857 8.65204 
L 470.674286 8.865982 
L 473.965714 9.127369 
L 477.257143 9.45395 
L 480.478981 9.863486 
L 480.548571 9.872538 
L 482.261537 13.151315 
L 483.84 14.678158 
L 485.393089 13.151315 
L 487.131429 10.53338 
L 490.422857 11.011964 
L 493.714286 11.655426 
L 497.005714 12.566702 
L 498.579614 13.151315 
L 500.297143 13.569167 
L 503.588571 13.932329 
L 506.88 13.817401 
L 510.171429 13.691428 
L 513.462857 13.552739 
L 516.754286 13.421391 
L 520.045714 13.268233 
L 523.337143 13.25519 
L 526.628571 14.9876 
L 528.369347 16.439143 
L 529.92 16.802992 
L 533.211429 17.359184 
L 536.502857 17.737598 
L 539.794286 17.930131 
L 543.085714 18.018451 
L 546.377143 18.020204 
L 549.668571 18.112938 
L 552.96 18.304249 
L 556.251429 18.543769 
L 559.542857 18.852348 
L 562.834286 19.264881 
L 565.550946 19.726972 
L 566.125714 19.833074 
L 569.417143 20.329348 
L 572.708571 20.691697 
L 576 20.967888 
" clip-path="url(#p62c55f3473)" style="fill: none"/>
    <path d="M 398.490019 0 
L 401.554286 0.305327 
L 404.845714 0.575848 
L 408.137143 0.967178 
L 411.428571 1.478399 
L 414.72 2.155675 
L 418.011429 3.074208 
L 418.557119 3.287829 
L 421.302857 3.843854 
L 424.594286 4.293571 
L 427.885714 4.457099 
L 431.177143 4.514046 
L 434.468571 4.650383 
L 437.76 4.936638 
L 441.051429 5.370424 
L 444.342857 5.849757 
L 447.634286 6.398812 
L 448.464767 6.575657 
L 450.925714 6.881678 
L 454.217143 7.211781 
L 457.508571 7.476081 
L 460.8 7.755101 
L 464.091429 8.125408 
L 464.457573 8.14173 
M 483.431993 9.680176 
L 483.84 9.737196 
L 484.585835 9.863486 
L 487.131429 10.119824 
L 490.422857 10.537638 
L 493.714286 11.099395 
L 497.005714 11.894959 
L 500.297143 13.110484 
L 500.450035 13.151315 
L 503.588571 13.548025 
L 506.88 13.415478 
L 510.171429 13.270194 
L 512.648256 13.151315 
L 513.462857 13.087751 
L 516.754286 12.855136 
L 520.045714 12.655211 
L 523.337143 12.620804 
L 526.226792 13.151315 
L 526.628571 13.358756 
L 529.92 15.9468 
L 530.32275 16.439143 
L 533.211429 16.988019 
L 536.502857 17.425751 
L 539.794286 17.648465 
L 543.085714 17.75063 
L 546.377143 17.752657 
L 549.668571 17.830311 
L 552.96 17.989997 
L 556.251429 18.189923 
L 559.542857 18.447491 
L 562.834286 18.791829 
L 566.125714 19.275667 
L 568.332045 19.726972 
L 569.417143 19.896037 
L 572.708571 20.316853 
L 576 20.637608 
M 483.84 14.408193 
L 485.118483 13.151315 
L 483.84 9.986921 
L 482.540629 13.151315 
L 483.84 14.408193 
z
" clip-path="url(#p62c55f3473)" style="fill: none"/>
    <path d="M 402.677551 0 
L 404.845714 0.196443 
L 408.137143 0.547354 
L 408.648563 0.617673 
M 427.295942 4.127664 
L 427.885714 4.16106 
L 431.177143 4.225964 
L 434.468571 4.331651 
L 437.76 4.552602 
L 441.051429 4.887425 
L 444.342857 5.25812 
L 447.634286 5.683426 
L 450.925714 6.333705 
L 451.824282 6.575657 
L 454.217143 6.840271 
L 457.508571 7.141599 
L 460.8 7.433878 
L 464.091429 7.777116 
L 467.382857 7.892238 
L 470.674286 8.030341 
L 473.965714 8.199071 
L 477.257143 8.409884 
L 480.548571 8.680841 
L 483.84 9.041792 
L 487.131429 9.546484 
L 488.69269 9.863486 
L 490.422857 10.063313 
L 493.714286 10.543364 
L 497.005714 11.223216 
L 500.297143 12.298531 
L 503.490419 13.151315 
L 503.588571 13.163721 
L 503.871897 13.151315 
L 506.88 12.870708 
L 510.171429 12.615995 
L 513.462857 12.402931 
L 516.754286 12.222073 
L 520.045714 12.066632 
L 523.337143 12.041614 
L 526.628571 12.534406 
L 529.381587 13.151315 
L 529.92 13.558853 
L 532.276154 16.439143 
L 533.211429 16.616854 
L 536.502857 17.113905 
L 539.794286 17.3668 
L 543.085714 17.482809 
L 546.377143 17.485111 
L 549.668571 17.547684 
L 552.96 17.675745 
L 556.251429 17.836076 
L 559.542857 18.042633 
L 562.834286 18.318777 
L 566.125714 18.706793 
L 569.417143 19.291932 
L 571.113144 19.726972 
L 572.708571 19.942008 
L 576 20.307329 
M 483.84 14.138228 
L 484.843877 13.151315 
L 483.84 10.666602 
L 482.819721 13.151315 
L 483.84 14.138228 
z
" clip-path="url(#p62c55f3473)" style="fill: none"/>
    <path d="M 406.865082 0 
L 408.137143 0.127531 
L 411.428571 0.521438 
L 414.72 1.043295 
L 418.011429 1.598335 
L 421.302857 2.633373 
L 422.356656 3.287829 
L 424.594286 3.655791 
L 427.885714 3.865021 
L 431.177143 3.937883 
L 434.468571 4.01292 
L 437.76 4.168565 
L 441.051429 4.404426 
L 444.342857 4.666483 
L 447.634286 4.968039 
L 450.925714 5.429109 
L 454.217143 6.221775 
L 455.183797 6.575657 
L 457.508571 6.807118 
L 460.8 7.112655 
L 464.091429 7.428824 
L 467.382857 7.512337 
L 470.674286 7.61252 
L 473.965714 7.734921 
L 477.257143 7.887852 
L 480.548571 8.084465 
L 483.84 8.346389 
L 487.131429 8.712617 
L 490.422857 9.260944 
L 492.799545 9.863486 
L 493.714286 9.987334 
L 497.005714 10.551473 
L 500.297143 11.486578 
L 500.740331 11.5925 
M 519.6864 11.490166 
L 520.045714 11.478054 
L 523.337143 11.462425 
L 526.628571 11.827465 
L 529.92 12.399111 
L 532.536382 13.151315 
L 533.211429 14.108237 
L 534.229557 16.439143 
L 536.502857 16.802059 
L 539.794286 17.085134 
L 543.085714 17.214988 
L 546.377143 17.217565 
L 549.668571 17.265057 
L 552.96 17.361492 
L 556.251429 17.482229 
L 559.542857 17.637776 
L 562.834286 17.845725 
L 566.125714 18.137919 
L 569.417143 18.578556 
L 572.708571 19.319275 
L 573.894243 19.726972 
L 576 19.977049 
M 483.84 13.868262 
L 484.569271 13.151315 
L 483.84 11.346284 
L 483.098814 13.151315 
L 483.84 13.868262 
z
" clip-path="url(#p62c55f3473)" style="fill: none"/>
    <path d="M 411.052613 0 
L 411.428571 0.042958 
L 414.72 0.487104 
L 418.011429 0.860399 
L 421.302857 1.429035 
L 424.295872 3.287829 
L 424.594286 3.336901 
L 427.885714 3.568981 
L 431.177143 3.649801 
L 434.468571 3.694188 
L 437.76 3.784528 
L 441.051429 3.921427 
L 444.342857 4.074847 
L 447.634286 4.252653 
L 450.925714 4.524513 
L 454.217143 4.991892 
L 457.508571 5.984146 
L 458.543313 6.575657 
L 460.8 6.791432 
L 464.091429 7.080532 
L 467.382857 7.132435 
L 470.674286 7.1947 
L 473.965714 7.270772 
L 477.257143 7.365819 
L 480.548571 7.488089 
L 483.84 7.650986 
L 487.131429 7.878751 
L 490.422857 8.219768 
L 493.714286 8.786451 
L 496.9064 9.863486 
L 497.005714 9.87973 
L 500.297143 10.674625 
L 503.588571 11.365854 
L 506.88 11.233329 
L 510.171429 11.124404 
L 513.462857 11.033289 
L 516.754286 10.955947 
L 520.045714 10.889475 
L 523.337143 10.883236 
L 526.628571 11.120525 
L 529.92 11.492116 
L 533.211429 12.157468 
L 535.691177 13.151315 
L 536.182961 16.439143 
L 536.502857 16.490212 
L 539.794286 16.803468 
L 543.085714 16.947167 
L 546.377143 16.950019 
L 549.668571 16.982429 
L 552.96 17.04724 
L 556.251429 17.128382 
L 559.542857 17.232919 
L 562.834286 17.372673 
L 563.241132 17.396946 
M 483.84 13.598297 
L 484.294665 13.151315 
L 483.84 12.025965 
L 483.377906 13.151315 
L 483.84 13.598297 
z
" clip-path="url(#p62c55f3473)" style="fill: none"/>
    <path d="M 416.128984 0 
L 418.011429 0.122462 
L 421.302857 0.224696 
L 424.594286 0.646477 
L 427.885714 2.68881 
L 428.425233 3.287829 
L 431.177143 3.361719 
L 434.468571 3.375457 
L 437.76 3.400491 
L 441.051429 3.438428 
L 444.342857 3.48321 
L 447.634286 3.537266 
L 450.925714 3.619917 
L 454.217143 3.762009 
L 457.508571 4.063673 
L 460.8 5.137925 
L 462.189067 6.575657 
L 464.091429 6.73224 
L 467.382857 6.752534 
L 470.674286 6.776879 
L 473.965714 6.806623 
L 477.257143 6.843786 
L 480.548571 6.891714 
L 480.904697 6.898624 
M 499.485912 9.36148 
L 500.297143 9.858248 
L 500.302167 9.863486 
L 503.588571 10.458478 
L 506.88 10.41464 
L 510.171429 10.378608 
L 513.462857 10.348469 
L 516.754286 10.322885 
L 520.045714 10.300896 
L 523.337143 10.304047 
L 526.628571 10.413584 
L 529.92 10.58512 
L 533.211429 10.893074 
L 536.502857 11.601548 
L 538.845972 13.151315 
L 538.939263 16.439143 
L 539.794286 16.521803 
L 543.085714 16.679346 
L 546.377143 16.682473 
L 549.668571 16.699802 
L 552.96 16.732988 
L 556.251429 16.774535 
L 559.542857 16.828062 
L 562.834286 16.899621 
L 566.125714 17.00017 
L 569.417143 17.151802 
L 572.708571 17.406697 
L 576 17.92481 
M 483.84 13.328332 
L 484.02006 13.151315 
L 483.84 12.705646 
L 483.656999 13.151315 
L 483.84 13.328332 
z
" clip-path="url(#p62c55f3473)" style="fill: none"/>
    <path d="M 576 12.295774 
L 574.175112 13.151315 
L 572.708571 14.199999 
L 569.676354 16.439143 
L 572.708571 16.450408 
L 576 16.474766 
" clip-path="url(#p62c55f3473)" style="fill: none"/>
    <path clip-path="url(#p62c55f3473)" style="fill: none"/>
    <path clip-path="url(#p62c55f3473)" style="fill: none"/>
    <path clip-path="url(#p62c55f3473)" style="fill: none"/>
    <path clip-path="url(#p62c55f3473)" style="fill: none"/>
    <path clip-path="url(#p62c55f3473)" style="fill: none"/>
    <path clip-path="url(#p62c55f3473)" style="fill: none"/>
    <path clip-path="url(#p62c55f3473)" style="fill: none"/>
    <path clip-path="url(#p62c55f3473)" style="fill: none"/>
    <path clip-path="url(#p62c55f3473)" style="fill: none"/>
    <path clip-path="url(#p62c55f3473)" style="fill: none"/>
    <path clip-path="url(#p62c55f3473)" style="fill: none"/>
    <path clip-path="url(#p62c55f3473)" style="fill: none"/>
    <path clip-path="url(#p62c55f3473)" style="fill: none"/>
    <path clip-path="url(#p62c55f3473)" style="fill: none"/>
    <path clip-path="url(#p62c55f3473)" style="fill: none"/>
    <path clip-path="url(#p62c55f3473)" style="fill: none"/>
    <path clip-path="url(#p62c55f3473)" style="fill: none"/>
    <path clip-path="url(#p62c55f3473)" style="fill: none"/>
    <path clip-path="url(#p62c55f3473)" style="fill: none"/>
    <path clip-path="url(#p62c55f3473)" style="fill: none"/>
    <path clip-path="url(#p62c55f3473)" style="fill: none"/>
    <path clip-path="url(#p62c55f3473)" style="fill: none"/>
    <path clip-path="url(#p62c55f3473)" style="fill: none"/>
    <path clip-path="url(#p62c55f3473)" style="fill: none"/>
    <path clip-path="url(#p62c55f3473)" style="fill: none"/>
    <path clip-path="url(#p62c55f3473)" style="fill: none"/>
    <path clip-path="url(#p62c55f3473)" style="fill: none"/>
    <path clip-path="url(#p62c55f3473)" style="fill: none"/>
   </g>
   <g id="text_1">
    <g clip-path="url(#p62c55f3473)">
     <!-- 0 -->
     <g style="opacity: 0" transform="translate(535.919034 22.300265) rotate(-358.990402) scale(0.12 -0.12)">
      <defs>
       <path id="DejaVuSans-30" d="M 2034 4250 
Q 1547 4250 1301 3770 
Q 1056 3291 1056 2328 
Q 1056 1369 1301 889 
Q 1547 409 2034 409 
Q 2525 409 2770 889 
Q 3016 1369 3016 2328 
Q 3016 3291 2770 3770 
Q 2525 4250 2034 4250 
z
M 2034 4750 
Q 2819 4750 3233 4129 
Q 3647 3509 3647 2328 
Q 3647 1150 3233 529 
Q 2819 -91 2034 -91 
Q 1250 -91 836 529 
Q 422 1150 422 2328 
Q 422 3509 836 4129 
Q 1250 4750 2034 4750 
z
" transform="scale(0.015625)"/>
      </defs>
      <use xlink:href="#DejaVuSans-30"/>
     </g>
    </g>
   </g>
   <g id="text_2">
    <g clip-path="url(#p62c55f3473)">
     <!-- 1 -->
     <g style="opacity: 0" transform="translate(453.482477 11.868225) rotate(-356.246211) scale(0.12 -0.12)">
      <defs>
       <path id="DejaVuSans-31" d="M 794 531 
L 1825 531 
L 1825 4091 
L 703 3866 
L 703 4441 
L 1819 4666 
L 2450 4666 
L 2450 531 
L 3481 531 
L 3481 0 
L 794 0 
L 794 531 
z
" transform="scale(0.015625)"/>
      </defs>
      <use xlink:href="#DejaVuSans-31"/>
     </g>
    </g>
   </g>
   <g id="text_3">
    <g clip-path="url(#p62c55f3473)">
     <!-- 2 -->
     <g style="opacity: 0" transform="translate(568.661796 24.468149) rotate(-355.856501) scale(0.12 -0.12)">
      <defs>
       <path id="DejaVuSans-32" d="M 1228 531 
L 3431 531 
L 3431 0 
L 469 0 
L 469 531 
Q 828 903 1448 1529 
Q 2069 2156 2228 2338 
Q 2531 2678 2651 2914 
Q 2772 3150 2772 3378 
Q 2772 3750 2511 3984 
Q 2250 4219 1831 4219 
Q 1534 4219 1204 4116 
Q 875 4013 500 3803 
L 500 4441 
Q 881 4594 1212 4672 
Q 1544 4750 1819 4750 
Q 2544 4750 2975 4387 
Q 3406 4025 3406 3419 
Q 3406 3131 3298 2873 
Q 3191 2616 2906 2266 
Q 2828 2175 2409 1742 
Q 1991 1309 1228 531 
z
" transform="scale(0.015625)"/>
      </defs>
      <use xlink:href="#DejaVuSans-32"/>
     </g>
    </g>
   </g>
   <g id="text_4">
    <g clip-path="url(#p62c55f3473)">
     <!-- 3 -->
     <g style="opacity: 0" transform="translate(400.688353 4.207642) rotate(-353.708832) scale(0.12 -0.12)">
      <defs>
       <path id="DejaVuSans-33" d="M 2597 2516 
Q 3050 2419 3304 2112 
Q 3559 1806 3559 1356 
Q 3559 666 3084 287 
Q 2609 -91 1734 -91 
Q 1441 -91 1130 -33 
Q 819 25 488 141 
L 488 750 
Q 750 597 1062 519 
Q 1375 441 1716 441 
Q 2309 441 2620 675 
Q 2931 909 2931 1356 
Q 2931 1769 2642 2001 
Q 2353 2234 1838 2234 
L 1294 2234 
L 1294 2753 
L 1863 2753 
Q 2328 2753 2575 2939 
Q 2822 3125 2822 3475 
Q 2822 3834 2567 4026 
Q 2313 4219 1838 4219 
Q 1578 4219 1281 4162 
Q 984 4106 628 3988 
L 628 4550 
Q 988 4650 1302 4700 
Q 1616 4750 1894 4750 
Q 2613 4750 3031 4423 
Q 3450 4097 3450 3541 
Q 3450 3153 3228 2886 
Q 3006 2619 2597 2516 
z
" transform="scale(0.015625)"/>
      </defs>
      <use xlink:href="#DejaVuSans-33"/>
     </g>
    </g>
   </g>
   <g id="text_5">
    <g clip-path="url(#p62c55f3473)">
     <!-- 4 -->
     <g style="opacity: 0" transform="translate(433.555911 8.124835) rotate(-352.76565) scale(0.12 -0.12)">
      <defs>
       <path id="DejaVuSans-34" d="M 2419 4116 
L 825 1625 
L 2419 1625 
L 2419 4116 
z
M 2253 4666 
L 3047 4666 
L 3047 1625 
L 3713 1625 
L 3713 1100 
L 3047 1100 
L 3047 0 
L 2419 0 
L 2419 1100 
L 313 1100 
L 313 1709 
L 2253 4666 
z
" transform="scale(0.015625)"/>
      </defs>
      <use xlink:href="#DejaVuSans-34"/>
     </g>
    </g>
   </g>
   <g id="text_6">
    <g clip-path="url(#p62c55f3473)">
     <!-- 5 -->
     <g style="opacity: 0" transform="translate(469.911801 11.680415) rotate(-355.721166) scale(0.12 -0.12)">
      <defs>
       <path id="DejaVuSans-35" d="M 691 4666 
L 3169 4666 
L 3169 4134 
L 1269 4134 
L 1269 2991 
Q 1406 3038 1543 3061 
Q 1681 3084 1819 3084 
Q 2600 3084 3056 2656 
Q 3513 2228 3513 1497 
Q 3513 744 3044 326 
Q 2575 -91 1722 -91 
Q 1428 -91 1123 -41 
Q 819 9 494 109 
L 494 744 
Q 775 591 1075 516 
Q 1375 441 1709 441 
Q 2250 441 2565 725 
Q 2881 1009 2881 1497 
Q 2881 1984 2565 2268 
Q 2250 2553 1709 2553 
Q 1456 2553 1204 2497 
Q 953 2441 691 2322 
L 691 4666 
z
" transform="scale(0.015625)"/>
      </defs>
      <use xlink:href="#DejaVuSans-35"/>
     </g>
    </g>
   </g>
   <g id="text_7">
    <g clip-path="url(#p62c55f3473)">
     <!-- 6 -->
     <g style="opacity: 0" transform="translate(413.511299 4.635515) rotate(-346.125826) scale(0.12 -0.12)">
      <defs>
       <path id="DejaVuSans-36" d="M 2113 2584 
Q 1688 2584 1439 2293 
Q 1191 2003 1191 1497 
Q 1191 994 1439 701 
Q 1688 409 2113 409 
Q 2538 409 2786 701 
Q 3034 994 3034 1497 
Q 3034 2003 2786 2293 
Q 2538 2584 2113 2584 
z
M 3366 4563 
L 3366 3988 
Q 3128 4100 2886 4159 
Q 2644 4219 2406 4219 
Q 1781 4219 1451 3797 
Q 1122 3375 1075 2522 
Q 1259 2794 1537 2939 
Q 1816 3084 2150 3084 
Q 2853 3084 3261 2657 
Q 3669 2231 3669 1497 
Q 3669 778 3244 343 
Q 2819 -91 2113 -91 
Q 1303 -91 875 529 
Q 447 1150 447 2328 
Q 447 3434 972 4092 
Q 1497 4750 2381 4750 
Q 2619 4750 2861 4703 
Q 3103 4656 3366 4563 
z
" transform="scale(0.015625)"/>
      </defs>
      <use xlink:href="#DejaVuSans-36"/>
     </g>
    </g>
   </g>
   <g id="text_8">
    <g clip-path="url(#p62c55f3473)">
     <!-- 7 -->
     <g style="opacity: 0" transform="translate(506.528216 15.372296) rotate(-2.930647) scale(0.12 -0.12)">
      <defs>
       <path id="DejaVuSans-37" d="M 525 4666 
L 3525 4666 
L 3525 4397 
L 1831 0 
L 1172 0 
L 2766 4134 
L 525 4134 
L 525 4666 
z
" transform="scale(0.015625)"/>
      </defs>
      <use xlink:href="#DejaVuSans-37"/>
     </g>
    </g>
   </g>
   <g id="text_9">
    <g clip-path="url(#p62c55f3473)">
     <!-- 8 -->
     <g style="opacity: 0" transform="translate(568.312065 20.854655) rotate(-348.603945) scale(0.12 -0.12)">
      <defs>
       <path id="DejaVuSans-38" d="M 2034 2216 
Q 1584 2216 1326 1975 
Q 1069 1734 1069 1313 
Q 1069 891 1326 650 
Q 1584 409 2034 409 
Q 2484 409 2743 651 
Q 3003 894 3003 1313 
Q 3003 1734 2745 1975 
Q 2488 2216 2034 2216 
z
M 1403 2484 
Q 997 2584 770 2862 
Q 544 3141 544 3541 
Q 544 4100 942 4425 
Q 1341 4750 2034 4750 
Q 2731 4750 3128 4425 
Q 3525 4100 3525 3541 
Q 3525 3141 3298 2862 
Q 3072 2584 2669 2484 
Q 3125 2378 3379 2068 
Q 3634 1759 3634 1313 
Q 3634 634 3220 271 
Q 2806 -91 2034 -91 
Q 1263 -91 848 271 
Q 434 634 434 1313 
Q 434 1759 690 2068 
Q 947 2378 1403 2484 
z
M 1172 3481 
Q 1172 3119 1398 2916 
Q 1625 2713 2034 2713 
Q 2441 2713 2670 2916 
Q 2900 3119 2900 3481 
Q 2900 3844 2670 4047 
Q 2441 4250 2034 4250 
Q 1625 4250 1398 4047 
Q 1172 3844 1172 3481 
z
" transform="scale(0.015625)"/>
      </defs>
      <use xlink:href="#DejaVuSans-38"/>
     </g>
    </g>
   </g>
   <g id="text_10">
    <g clip-path="url(#p62c55f3473)">
     <!-- 9 -->
     <g style="opacity: 0" transform="translate(486.407231 10.24656) rotate(-356.44215) scale(0.12 -0.12)">
      <defs>
       <path id="DejaVuSans-39" d="M 703 97 
L 703 672 
Q 941 559 1184 500 
Q 1428 441 1663 441 
Q 2288 441 2617 861 
Q 2947 1281 2994 2138 
Q 2813 1869 2534 1725 
Q 2256 1581 1919 1581 
Q 1219 1581 811 2004 
Q 403 2428 403 3163 
Q 403 3881 828 4315 
Q 1253 4750 1959 4750 
Q 2769 4750 3195 4129 
Q 3622 3509 3622 2328 
Q 3622 1225 3098 567 
Q 2575 -91 1691 -91 
Q 1453 -91 1209 -44 
Q 966 3 703 97 
z
M 1959 2075 
Q 2384 2075 2632 2365 
Q 2881 2656 2881 3163 
Q 2881 3666 2632 3958 
Q 2384 4250 1959 4250 
Q 1534 4250 1286 3958 
Q 1038 3666 1038 3163 
Q 1038 2656 1286 2365 
Q 1534 2075 1959 2075 
z
" transform="scale(0.015625)"/>
      </defs>
      <use xlink:href="#DejaVuSans-39"/>
     </g>
    </g>
   </g>
  </g>
 </g>
 <defs>
  <clipPath id="p62c55f3473">
   <rect x="0" y="0" width="576" height="818.669339"/>
  </clipPath>
 </defs>
</svg>
