<?xml version="1.0" encoding="utf-8" standalone="no"?>
<!DOCTYPE svg PUBLIC "-//W3C//DTD SVG 1.1//EN"
  "http://www.w3.org/Graphics/SVG/1.1/DTD/svg11.dtd">
<svg xmlns:xlink="http://www.w3.org/1999/xlink" width="576pt" height="815.370087pt" viewBox="0 0 576 815.370087" xmlns="http://www.w3.org/2000/svg" version="1.1">
 <metadata>
  <rdf:RDF xmlns:dc="http://purl.org/dc/elements/1.1/" xmlns:cc="http://creativecommons.org/ns#" xmlns:rdf="http://www.w3.org/1999/02/22-rdf-syntax-ns#">
   <cc:Work>
    <dc:type rdf:resource="http://purl.org/dc/dcmitype/StillImage"/>
    <dc:date>2025-07-25T22:45:01.537039</dc:date>
    <dc:format>image/svg+xml</dc:format>
    <dc:creator>
     <cc:Agent>
      <dc:title>Matplotlib v3.10.3, https://matplotlib.org/</dc:title>
     </cc:Agent>
    </dc:creator>
   </cc:Work>
  </rdf:RDF>
 </metadata>
 <defs>
  <style type="text/css">*{stroke-linejoin: round; stroke-linecap: butt}</style>
 </defs>
 <g id="figure_1">
  <g id="patch_1">
   <path d="M 0 815.370087 
L 576 815.370087 
L 576 0 
L 0 0 
L 0 815.370087 
z
" style="fill: none; opacity: 0"/>
  </g>
  <g id="axes_1">
   <g id="QuadContourSet_1">
    <path d="M 1.20411 137.532304 
L 0 135.901386 
L -0 137.240769 
L 0.215241 137.532304 
L 0 137.749201 
L 0 138.745677 
z
M 3.060135 127.708568 
L 3.272727 127.608968 
L 6.545455 124.984639 
L 7.224302 124.433989 
L 9.818182 122.272585 
L 10.92696 121.15941 
L 13.090909 118.708121 
L 13.817692 117.884832 
L 16.363636 115.000824 
L 16.786192 114.610253 
L 19.599157 111.335674 
L 19.636364 111.293527 
L 22.909091 108.760311 
L 26.181818 108.503823 
L 26.799004 108.061096 
L 29.454545 106.565331 
L 31.740453 104.786517 
L 32.727273 104.131065 
L 35.957832 101.511938 
L 36 101.477752 
L 39.267315 98.23736 
L 39.272727 98.231047 
L 42.060342 94.962781 
L 42.545455 94.394024 
L 44.853342 91.688203 
L 45.818182 90.557001 
L 48.060579 88.413624 
L 49.090909 87.156724 
L 52.363636 85.975036 
L 55.636364 85.321493 
L 55.8629 85.139045 
L 58.909091 82.685709 
L 59.928788 81.864467 
L 62.181818 80.049925 
L 63.994677 78.589888 
L 65.454545 77.224538 
L 67.120468 75.315309 
L 68.727273 73.46665 
L 69.966644 72.040731 
L 72 69.701317 
L 72.973024 68.766152 
L 75.272727 66.039768 
L 76.335279 65.491573 
L 78.545455 63.481787 
L 81.818182 62.769416 
L 82.648156 62.216995 
L 85.090909 60.932124 
L 87.794889 58.942416 
L 88.363636 58.596464 
L 91.636364 56.007194 
L 91.999298 55.667837 
L 94.909091 52.533707 
L 95.034408 52.393259 
L 97.956203 49.11868 
L 98.181818 48.865824 
L 100.877998 45.844101 
L 101.454545 45.19794 
L 104.153438 42.569523 
L 104.727273 41.914539 
L 108 40.620592 
L 111.272727 39.545541 
L 111.589815 39.294944 
L 114.545455 37.171518 
L 115.967632 36.020365 
L 117.818182 34.522477 
L 119.800848 32.745787 
L 121.090909 31.440423 
L 122.900868 29.471208 
L 124.363636 27.879732 
L 125.910621 26.196629 
L 127.636364 24.31904 
L 129.046849 22.922051 
L 130.909091 20.878364 
L 132.915413 19.647472 
L 134.181818 18.318762 
L 137.454545 17.156246 
L 138.71614 16.372893 
L 140.727273 15.365236 
L 143.992688 13.098315 
L 144 13.09406 
L 147.272727 10.363978 
L 147.820886 9.823736 
L 150.545455 6.952288 
L 150.927964 6.549157 
L 153.818182 3.50313 
L 154.046854 3.274579 
L 157.090909 0.057079 
L 157.177283 0 
L 157.090909 0 
L 153.818182 0 
L 151.376467 0 
L 150.545455 1.007773 
L 148.493604 3.274579 
L 147.272727 4.190062 
L 145.070618 6.549157 
L 144 7.320729 
L 140.727273 8.448186 
L 137.454545 9.653255 
L 137.259523 9.823736 
L 134.283753 13.098315 
L 134.181818 13.162357 
L 131.246444 16.372893 
L 130.909091 16.719095 
L 128.217541 19.647472 
L 127.636364 20.279786 
L 124.911135 22.922051 
L 124.363636 23.52415 
L 121.33337 26.196629 
L 121.090909 26.469959 
L 118.037566 29.471208 
L 117.818182 29.694436 
L 114.545455 31.032494 
L 111.272727 31.851909 
L 110.382334 32.745787 
L 108 34.110023 
L 106.32296 36.020365 
L 104.727273 37.596992 
L 103.09573 39.294944 
L 101.454545 41.151438 
L 99.890117 42.569523 
L 98.181818 44.566575 
L 96.728754 45.844101 
L 94.909091 48.096351 
L 93.843273 49.11868 
L 91.636364 52.052143 
L 91.168281 52.393259 
L 88.363636 53.934416 
L 85.090909 54.413426 
L 81.818182 55.225187 
L 81.427596 55.667837 
L 78.545455 58.417743 
L 77.981142 58.942416 
L 75.272727 62.201625 
L 75.255817 62.216995 
L 72.416673 65.491573 
L 72 65.970964 
L 69.570497 68.766152 
L 68.727273 69.736297 
L 66.523581 72.040731 
L 65.454545 73.289431 
L 63.224965 75.315309 
L 62.181818 76.281195 
L 58.909091 77.364438 
L 55.636364 77.530363 
L 54.346233 78.589888 
L 52.363636 79.509722 
L 50.440788 81.864467 
L 49.090909 83.132479 
L 47.37944 85.139045 
L 45.818182 86.969501 
L 44.486189 88.413624 
L 42.545455 90.721246 
L 41.520908 91.688203 
L 39.272727 94.498985 
L 38.790256 94.962781 
L 36.191679 98.23736 
L 36 98.427459 
L 32.727273 100.423142 
L 29.454545 100.520585 
L 26.181818 100.836758 
L 25.610437 101.511938 
L 22.909091 103.842479 
L 22.031046 104.786517 
L 19.636364 107.518527 
L 19.038721 108.061096 
L 16.363636 111.226948 
L 16.240042 111.335674 
L 13.403516 114.610253 
L 13.090909 114.964369 
L 10.512783 117.884832 
L 9.818182 118.671666 
L 6.809051 121.15941 
L 6.545455 121.374131 
L 3.272727 121.76442 
L -0 121.878602 
L 0 124.433989 
L 0 127.708568 
L 0 129.64459 
z
M 29.454545 115.897529 
L 30.741093 114.610253 
L 29.454545 113.043606 
L 27.992851 114.610253 
z
M 29.060829 114.610253 
L 29.454545 114.188266 
L 29.801086 114.610253 
L 29.454545 114.956989 
z
" clip-path="url(#p0b1b942d33)" style="fill: #f5f9fe; fill-opacity: 0.9"/>
    <path d="M 0.215241 137.532304 
L -0 137.240769 
L 0 137.532304 
L 0 137.749201 
z
M 3.272727 121.76442 
L 6.545455 121.374131 
L 6.809051 121.15941 
L 9.818182 118.671666 
L 10.512783 117.884832 
L 13.090909 114.964369 
L 13.403516 114.610253 
L 16.240042 111.335674 
L 16.363636 111.226948 
L 19.038721 108.061096 
L 19.636364 107.518527 
L 22.031046 104.786517 
L 22.909091 103.842479 
L 25.610437 101.511938 
L 26.181818 100.836758 
L 29.454545 100.520585 
L 32.727273 100.423142 
L 36 98.427459 
L 36.191679 98.23736 
L 38.790256 94.962781 
L 39.272727 94.498985 
L 41.520908 91.688203 
L 42.545455 90.721246 
L 44.486189 88.413624 
L 45.818182 86.969501 
L 47.37944 85.139045 
L 49.090909 83.132479 
L 50.440788 81.864467 
L 52.363636 79.509722 
L 54.346233 78.589888 
L 55.636364 77.530363 
L 58.909091 77.364438 
L 62.181818 76.281195 
L 63.224965 75.315309 
L 65.454545 73.289431 
L 66.523581 72.040731 
L 68.727273 69.736297 
L 69.570497 68.766152 
L 72 65.970964 
L 72.416673 65.491573 
L 75.255817 62.216995 
L 75.272727 62.201625 
L 77.981142 58.942416 
L 78.545455 58.417743 
L 81.427596 55.667837 
L 81.818182 55.225187 
L 85.090909 54.413426 
L 88.363636 53.934416 
L 91.168281 52.393259 
L 91.636364 52.052143 
L 93.843273 49.11868 
L 94.909091 48.096351 
L 96.728754 45.844101 
L 98.181818 44.566575 
L 99.890117 42.569523 
L 101.454545 41.151438 
L 103.09573 39.294944 
L 104.727273 37.596992 
L 106.32296 36.020365 
L 108 34.110023 
L 110.382334 32.745787 
L 111.272727 31.851909 
L 114.545455 31.032494 
L 117.818182 29.694436 
L 118.037566 29.471208 
L 121.090909 26.469959 
L 121.33337 26.196629 
L 124.363636 23.52415 
L 124.911135 22.922051 
L 127.636364 20.279786 
L 128.217541 19.647472 
L 130.909091 16.719095 
L 131.246444 16.372893 
L 134.181818 13.162357 
L 134.283753 13.098315 
L 137.259523 9.823736 
L 137.454545 9.653255 
L 140.727273 8.448186 
L 144 7.320729 
L 145.070618 6.549157 
L 147.272727 4.190062 
L 148.493604 3.274579 
L 150.545455 1.007773 
L 151.376467 0 
L 150.545455 0 
L 147.272727 0 
L 144 0 
L 140.727273 0 
L 137.454545 0 
L 136.359427 0 
L 134.181818 1.174326 
L 132.228727 3.274579 
L 130.909091 4.22503 
L 128.808424 6.549157 
L 127.636364 7.777489 
L 125.816517 9.823736 
L 124.363636 11.34148 
L 122.788878 13.098315 
L 121.090909 14.867131 
L 119.731919 16.372893 
L 117.818182 18.361588 
L 115.923321 19.647472 
L 114.545455 21.159017 
L 111.272727 22.620484 
L 110.689564 22.922051 
L 108 24.447953 
L 104.917775 26.196629 
L 104.727273 26.304709 
L 101.454545 29.459272 
L 101.443578 29.471208 
L 98.286991 32.745787 
L 98.181818 32.846772 
L 95.116404 36.020365 
L 94.909091 36.234995 
L 91.960722 39.294944 
L 91.636364 39.63072 
L 88.948685 42.569523 
L 88.363636 43.174051 
L 85.090909 45.733375 
L 84.901425 45.844101 
L 81.818182 47.811305 
L 79.795849 49.11868 
L 78.545455 49.927021 
L 75.272727 52.108233 
L 74.990383 52.393259 
L 72 55.108112 
L 71.445045 55.667837 
L 68.727273 58.40897 
L 68.209537 58.942416 
L 65.454545 61.720618 
L 64.975009 62.216995 
L 62.181818 65.033147 
L 61.651486 65.491573 
L 58.909091 68.260036 
L 58.201627 68.766152 
L 55.636364 70.992227 
L 54.185722 72.040731 
L 52.363636 73.357709 
L 49.655228 75.315309 
L 49.090909 75.723191 
L 45.818182 78.142635 
L 45.354807 78.589888 
L 42.545455 81.052386 
L 41.706923 81.864467 
L 39.272727 84.221877 
L 38.325685 85.139045 
L 36 87.391367 
L 34.944447 88.413624 
L 32.727273 90.560858 
L 31.410127 91.688203 
L 29.454545 92.463895 
L 26.450496 94.962781 
L 26.181818 95.155986 
L 22.909091 97.455479 
L 21.604246 98.23736 
L 19.636364 99.416542 
L 16.633331 101.511938 
L 16.363636 101.683248 
L 13.090909 104.493188 
L 12.751399 104.786517 
L 9.818182 107.320746 
L 8.903075 108.061096 
L 6.545455 110.079311 
L 4.989342 111.335674 
L 3.272727 112.583159 
L 0.528476 114.610253 
L 0 114.868015 
L 0 117.884832 
L 0 121.15941 
L -0 121.878602 
z
M 29.454545 114.956989 
L 29.801086 114.610253 
L 29.454545 114.188266 
L 29.060829 114.610253 
z
" clip-path="url(#p0b1b942d33)" style="fill: #eff6fc; fill-opacity: 0.9"/>
    <path d="M 0.528476 114.610253 
L 3.272727 112.583159 
L 4.989342 111.335674 
L 6.545455 110.079311 
L 8.903075 108.061096 
L 9.818182 107.320746 
L 12.751399 104.786517 
L 13.090909 104.493188 
L 16.363636 101.683248 
L 16.633331 101.511938 
L 19.636364 99.416542 
L 21.604246 98.23736 
L 22.909091 97.455479 
L 26.181818 95.155986 
L 26.450496 94.962781 
L 29.454545 92.463895 
L 31.410127 91.688203 
L 32.727273 90.560858 
L 34.944447 88.413624 
L 36 87.391367 
L 38.325685 85.139045 
L 39.272727 84.221877 
L 41.706923 81.864467 
L 42.545455 81.052386 
L 45.354807 78.589888 
L 45.818182 78.142635 
L 49.090909 75.723191 
L 49.655228 75.315309 
L 52.363636 73.357709 
L 54.185722 72.040731 
L 55.636364 70.992227 
L 58.201627 68.766152 
L 58.909091 68.260036 
L 61.651486 65.491573 
L 62.181818 65.033147 
L 64.975009 62.216995 
L 65.454545 61.720618 
L 68.209537 58.942416 
L 68.727273 58.40897 
L 71.445045 55.667837 
L 72 55.108112 
L 74.990383 52.393259 
L 75.272727 52.108233 
L 78.545455 49.927021 
L 79.795849 49.11868 
L 81.818182 47.811305 
L 84.901425 45.844101 
L 85.090909 45.733375 
L 88.363636 43.174051 
L 88.948685 42.569523 
L 91.636364 39.63072 
L 91.960722 39.294944 
L 94.909091 36.234995 
L 95.116404 36.020365 
L 98.181818 32.846772 
L 98.286991 32.745787 
L 101.443578 29.471208 
L 101.454545 29.459272 
L 104.727273 26.304709 
L 104.917775 26.196629 
L 108 24.447953 
L 110.689564 22.922051 
L 111.272727 22.620484 
L 114.545455 21.159017 
L 115.923321 19.647472 
L 117.818182 18.361588 
L 119.731919 16.372893 
L 121.090909 14.867131 
L 122.788878 13.098315 
L 124.363636 11.34148 
L 125.816517 9.823736 
L 127.636364 7.777489 
L 128.808424 6.549157 
L 130.909091 4.22503 
L 132.228727 3.274579 
L 134.181818 1.174326 
L 136.359427 0 
L 134.181818 0 
L 130.909091 0 
L 127.636364 0 
L 125.091369 0 
L 124.363636 0.74293 
L 121.090909 0.512627 
L 117.818182 0.192476 
L 115.422742 3.274579 
L 114.545455 3.800319 
L 112.121042 6.549157 
L 111.272727 7.51099 
L 109.232938 9.823736 
L 108 11.221661 
L 106.344834 13.098315 
L 104.727273 14.890718 
L 103.35071 16.372893 
L 101.454545 18.41332 
L 99.755414 19.647472 
L 98.181818 21.404644 
L 95.304964 22.922051 
L 94.909091 23.151021 
L 92.460396 22.922051 
L 91.636364 22.770593 
L 91.495222 22.922051 
L 88.363636 24.366708 
L 86.721887 26.196629 
L 85.090909 27.798998 
L 83.572229 29.471208 
L 81.818182 31.402579 
L 80.598297 32.745787 
L 78.545455 35.006159 
L 77.603343 36.020365 
L 75.272727 38.458057 
L 74.287077 39.294944 
L 72 41.672931 
L 70.65094 42.569523 
L 68.727273 44.086295 
L 65.454545 45.685933 
L 64.41179 45.844101 
L 62.181818 46.18235 
L 58.909091 48.693903 
L 58.495914 49.11868 
L 55.636364 52.058513 
L 55.31076 52.393259 
L 52.363636 55.423124 
L 52.125606 55.667837 
L 49.090909 58.747424 
L 48.877485 58.942416 
L 45.818182 61.856584 
L 45.324913 62.216995 
L 42.545455 64.629893 
L 41.236489 65.491573 
L 39.272727 66.939843 
L 36.313264 68.766152 
L 36 68.985911 
L 32.727273 70.792304 
L 31.275893 72.040731 
L 29.454545 73.33881 
L 27.219281 75.315309 
L 26.181818 76.232671 
L 23.515992 78.589888 
L 22.909091 79.12636 
L 19.636364 81.613975 
L 19.295341 81.864467 
L 16.363636 83.978086 
L 14.793603 85.139045 
L 13.090909 86.545571 
L 10.455634 88.413624 
L 9.818182 88.925439 
L 6.545455 91.093964 
L 5.675691 91.688203 
L 3.272727 93.292161 
L 0.853375 94.962781 
L 0 95.552056 
L 0 98.23736 
L 0 101.511938 
L 0 104.786517 
L 0 108.061096 
L 0 111.335674 
L 0 114.610253 
L 0 114.868015 
z
" clip-path="url(#p0b1b942d33)" style="fill: #eaf3fb; fill-opacity: 0.9"/>
    <path d="M 0.853375 94.962781 
L 3.272727 93.292161 
L 5.675691 91.688203 
L 6.545455 91.093964 
L 9.818182 88.925439 
L 10.455634 88.413624 
L 13.090909 86.545571 
L 14.793603 85.139045 
L 16.363636 83.978086 
L 19.295341 81.864467 
L 19.636364 81.613975 
L 22.909091 79.12636 
L 23.515992 78.589888 
L 26.181818 76.232671 
L 27.219281 75.315309 
L 29.454545 73.33881 
L 31.275893 72.040731 
L 32.727273 70.792304 
L 36 68.985911 
L 36.313264 68.766152 
L 39.272727 66.939843 
L 41.236489 65.491573 
L 42.545455 64.629893 
L 45.324913 62.216995 
L 45.818182 61.856584 
L 48.877485 58.942416 
L 49.090909 58.747424 
L 52.125606 55.667837 
L 52.363636 55.423124 
L 55.31076 52.393259 
L 55.636364 52.058513 
L 58.495914 49.11868 
L 58.909091 48.693903 
L 62.181818 46.18235 
L 64.41179 45.844101 
L 65.454545 45.685933 
L 68.727273 44.086295 
L 70.65094 42.569523 
L 72 41.672931 
L 74.287077 39.294944 
L 75.272727 38.458057 
L 77.603343 36.020365 
L 78.545455 35.006159 
L 80.598297 32.745787 
L 81.818182 31.402579 
L 83.572229 29.471208 
L 85.090909 27.798998 
L 86.721887 26.196629 
L 88.363636 24.366708 
L 91.495222 22.922051 
L 91.636364 22.770593 
L 92.460396 22.922051 
L 94.909091 23.151021 
L 95.304964 22.922051 
L 98.181818 21.404644 
L 99.755414 19.647472 
L 101.454545 18.41332 
L 103.35071 16.372893 
L 104.727273 14.890718 
L 106.344834 13.098315 
L 108 11.221661 
L 109.232938 9.823736 
L 111.272727 7.51099 
L 112.121042 6.549157 
L 114.545455 3.800319 
L 115.422742 3.274579 
L 117.818182 0.192476 
L 121.090909 0.512627 
L 124.363636 0.74293 
L 125.091369 0 
L 124.363636 0 
L 121.090909 0 
L 117.818182 0 
L 114.545455 0 
L 111.272727 0 
L 108 0 
L 104.727273 0 
L 101.454545 0 
L 98.181818 0 
L 96.162334 0 
L 94.909091 1.310492 
L 92.983449 3.274579 
L 91.636364 4.69377 
L 88.555481 6.549157 
L 88.363636 6.75962 
L 85.774422 6.549157 
L 85.090909 6.463432 
L 81.818182 6.200555 
L 81.482598 6.549157 
L 78.545455 9.57492 
L 78.305858 9.823736 
L 75.272727 12.973572 
L 75.14651 13.098315 
L 72 16.372189 
L 71.999242 16.372893 
L 68.846105 19.647472 
L 68.727273 19.770876 
L 65.630029 22.922051 
L 65.454545 23.095847 
L 62.181818 24.972042 
L 58.909091 25.027801 
L 55.636364 25.324904 
L 54.780421 26.196629 
L 52.363636 28.07426 
L 50.986248 29.471208 
L 49.090909 31.393461 
L 47.674398 32.745787 
L 45.818182 34.629961 
L 44.296275 36.020365 
L 42.545455 37.800422 
L 40.721045 39.294944 
L 39.272727 40.773193 
L 36 42.507737 
L 35.23295 42.569523 
L 32.727273 42.759444 
L 29.454545 43.439231 
L 26.870745 45.844101 
L 26.181818 46.249138 
L 23.181664 49.11868 
L 22.909091 49.379386 
L 19.636364 52.277279 
L 19.497594 52.393259 
L 16.363636 55.043558 
L 15.182838 55.667837 
L 13.090909 57.28667 
L 9.818182 58.299408 
L 7.732832 58.942416 
L 6.545455 59.300158 
L 3.272727 60.637614 
L 1.363647 62.216995 
L 0 63.325646 
L 0 65.491573 
L 0 68.766152 
L 0 72.040731 
L 0 75.315309 
L 0 78.589888 
L 0 81.864467 
L 0 85.139045 
L 0 88.413624 
L 0 91.688203 
L 0 94.962781 
L 0 95.552056 
z
" clip-path="url(#p0b1b942d33)" style="fill: #e5eff9; fill-opacity: 0.9"/>
    <path d="M 1.363647 62.216995 
L 3.272727 60.637614 
L 6.545455 59.300158 
L 7.732832 58.942416 
L 9.818182 58.299408 
L 13.090909 57.28667 
L 15.182838 55.667837 
L 16.363636 55.043558 
L 19.497594 52.393259 
L 19.636364 52.277279 
L 22.909091 49.379386 
L 23.181664 49.11868 
L 26.181818 46.249138 
L 26.870745 45.844101 
L 29.454545 43.439231 
L 32.727273 42.759444 
L 35.23295 42.569523 
L 36 42.507737 
L 39.272727 40.773193 
L 40.721045 39.294944 
L 42.545455 37.800422 
L 44.296275 36.020365 
L 45.818182 34.629961 
L 47.674398 32.745787 
L 49.090909 31.393461 
L 50.986248 29.471208 
L 52.363636 28.07426 
L 54.780421 26.196629 
L 55.636364 25.324904 
L 58.909091 25.027801 
L 62.181818 24.972042 
L 65.454545 23.095847 
L 65.630029 22.922051 
L 68.727273 19.770876 
L 68.846105 19.647472 
L 71.999242 16.372893 
L 72 16.372189 
L 75.14651 13.098315 
L 75.272727 12.973572 
L 78.305858 9.823736 
L 78.545455 9.57492 
L 81.482598 6.549157 
L 81.818182 6.200555 
L 85.090909 6.463432 
L 85.774422 6.549157 
L 88.363636 6.75962 
L 88.555481 6.549157 
L 91.636364 4.69377 
L 92.983449 3.274579 
L 94.909091 1.310492 
L 96.162334 0 
L 94.909091 0 
L 91.636364 0 
L 88.363636 0 
L 85.090909 0 
L 81.818182 0 
L 78.545455 0 
L 75.272727 0 
L 72 0 
L 68.727273 0 
L 65.454545 0 
L 62.181818 0 
L 58.909091 0 
L 55.636364 0 
L 52.363636 0 
L 49.090909 0 
L 45.818182 0 
L 42.545455 0 
L 39.272727 0 
L 36 0 
L 32.727273 0 
L 29.454545 0 
L 26.181818 0 
L 22.909091 0 
L 19.636364 0 
L 16.363636 0 
L 13.090909 0 
L 9.818182 0 
L 6.545455 0 
L 3.272727 0 
L 0 0 
L 0 3.274579 
L 0 6.549157 
L 0 9.823736 
L 0 13.098315 
L 0 16.372893 
L 0 19.647472 
L 0 22.922051 
L 0 26.196629 
L 0 29.471208 
L 0 32.745787 
L 0 36.020365 
L 0 39.294944 
L 0 42.569523 
L 0 45.844101 
L 0 49.11868 
L 0 52.393259 
L 0 55.667837 
L 0 58.942416 
L 0 62.216995 
L 0 63.325646 
z
" clip-path="url(#p0b1b942d33)" style="fill: #dfecf7; fill-opacity: 0.9"/>
    <path clip-path="url(#p0b1b942d33)" style="fill: #dae8f6; fill-opacity: 0.9"/>
    <path clip-path="url(#p0b1b942d33)" style="fill: #d6e5f4; fill-opacity: 0.9"/>
    <path clip-path="url(#p0b1b942d33)" style="fill: #d0e2f2; fill-opacity: 0.9"/>
    <path clip-path="url(#p0b1b942d33)" style="fill: #cbdef1; fill-opacity: 0.9"/>
    <path clip-path="url(#p0b1b942d33)" style="fill: #c6dbef; fill-opacity: 0.9"/>
    <path clip-path="url(#p0b1b942d33)" style="fill: #bed8ec; fill-opacity: 0.9"/>
    <path clip-path="url(#p0b1b942d33)" style="fill: #b5d4e9; fill-opacity: 0.9"/>
    <path clip-path="url(#p0b1b942d33)" style="fill: #add0e6; fill-opacity: 0.9"/>
    <path clip-path="url(#p0b1b942d33)" style="fill: #a5cde3; fill-opacity: 0.9"/>
    <path clip-path="url(#p0b1b942d33)" style="fill: #9cc9e1; fill-opacity: 0.9"/>
    <path clip-path="url(#p0b1b942d33)" style="fill: #91c3de; fill-opacity: 0.9"/>
    <path clip-path="url(#p0b1b942d33)" style="fill: #85bcdc; fill-opacity: 0.9"/>
    <path clip-path="url(#p0b1b942d33)" style="fill: #7cb7da; fill-opacity: 0.9"/>
    <path clip-path="url(#p0b1b942d33)" style="fill: #71b1d7; fill-opacity: 0.9"/>
    <path clip-path="url(#p0b1b942d33)" style="fill: #66abd4; fill-opacity: 0.9"/>
    <path clip-path="url(#p0b1b942d33)" style="fill: #5da5d1; fill-opacity: 0.9"/>
    <path clip-path="url(#p0b1b942d33)" style="fill: #56a0ce; fill-opacity: 0.9"/>
    <path clip-path="url(#p0b1b942d33)" style="fill: #4d99ca; fill-opacity: 0.9"/>
    <path clip-path="url(#p0b1b942d33)" style="fill: #4493c7; fill-opacity: 0.9"/>
    <path clip-path="url(#p0b1b942d33)" style="fill: #3c8cc3; fill-opacity: 0.9"/>
    <path clip-path="url(#p0b1b942d33)" style="fill: #3686c0; fill-opacity: 0.9"/>
    <path clip-path="url(#p0b1b942d33)" style="fill: #2f7fbc; fill-opacity: 0.9"/>
    <path clip-path="url(#p0b1b942d33)" style="fill: #2777b8; fill-opacity: 0.9"/>
    <path clip-path="url(#p0b1b942d33)" style="fill: #2070b4; fill-opacity: 0.9"/>
    <path clip-path="url(#p0b1b942d33)" style="fill: #1c6ab0; fill-opacity: 0.9"/>
    <path clip-path="url(#p0b1b942d33)" style="fill: #1663aa; fill-opacity: 0.9"/>
    <path clip-path="url(#p0b1b942d33)" style="fill: #115ca5; fill-opacity: 0.9"/>
    <path clip-path="url(#p0b1b942d33)" style="fill: #0c56a0; fill-opacity: 0.9"/>
    <path clip-path="url(#p0b1b942d33)" style="fill: #084f99; fill-opacity: 0.9"/>
    <path clip-path="url(#p0b1b942d33)" style="fill: #08488e; fill-opacity: 0.9"/>
    <path clip-path="url(#p0b1b942d33)" style="fill: #084184; fill-opacity: 0.9"/>
    <path clip-path="url(#p0b1b942d33)" style="fill: #083a7a; fill-opacity: 0.9"/>
    <path clip-path="url(#p0b1b942d33)" style="fill: #083370; fill-opacity: 0.9"/>
    <path clip-path="url(#p0b1b942d33)" style="fill: #08306b; fill-opacity: 0.9"/>
   </g>
   <g id="QuadContourSet_2">
    <path d="M 0 138.745677 
L 1.20411 137.532304 
L 0 135.901386 
M 0 129.64459 
L 3.060135 127.708568 
L 3.272727 127.608968 
L 6.545455 124.984639 
L 7.224302 124.433989 
L 9.818182 122.272585 
L 10.92696 121.15941 
L 13.090909 118.708121 
L 13.817692 117.884832 
L 16.363636 115.000824 
L 16.786192 114.610253 
L 19.599157 111.335674 
L 19.636364 111.293527 
L 22.909091 108.760311 
L 26.181818 108.503823 
L 26.799004 108.061096 
L 29.454545 106.565331 
L 31.740453 104.786517 
L 32.727273 104.131065 
L 35.957832 101.511938 
L 36 101.477752 
L 39.267315 98.23736 
L 39.272727 98.231047 
L 42.060342 94.962781 
L 42.545455 94.394024 
L 44.853342 91.688203 
L 45.818182 90.557001 
L 48.060579 88.413624 
L 49.090909 87.156724 
L 52.363636 85.975036 
L 55.636364 85.321493 
L 55.8629 85.139045 
L 58.909091 82.685709 
L 59.928788 81.864467 
L 62.181818 80.049925 
L 63.994677 78.589888 
L 65.454545 77.224538 
L 67.120468 75.315309 
L 68.727273 73.46665 
L 69.966644 72.040731 
L 72 69.701317 
L 72.973024 68.766152 
L 75.272727 66.039768 
L 76.335279 65.491573 
L 78.545455 63.481787 
L 81.818182 62.769416 
L 82.648156 62.216995 
L 85.090909 60.932124 
L 87.794889 58.942416 
L 88.363636 58.596464 
L 91.636364 56.007194 
L 91.733596 55.916278 
M 104.728568 41.914027 
L 108 40.620592 
L 111.272727 39.545541 
L 111.589815 39.294944 
L 114.545455 37.171518 
L 115.967632 36.020365 
L 117.818182 34.522477 
L 119.800848 32.745787 
L 121.090909 31.440423 
L 122.900868 29.471208 
L 124.363636 27.879732 
L 125.910621 26.196629 
L 127.636364 24.31904 
L 129.046849 22.922051 
L 130.909091 20.878364 
L 132.915413 19.647472 
L 134.181818 18.318762 
L 137.454545 17.156246 
L 138.71614 16.372893 
L 140.727273 15.365236 
L 143.992688 13.098315 
L 144 13.09406 
L 147.272727 10.363978 
L 147.820886 9.823736 
L 150.545455 6.952288 
L 150.927964 6.549157 
L 153.818182 3.50313 
L 154.046854 3.274579 
L 157.090909 0.057079 
L 157.177283 0 
M 29.454545 115.897529 
L 30.741093 114.610253 
L 29.454545 113.043606 
L 27.992851 114.610253 
L 29.454545 115.897529 
z
" clip-path="url(#p0b1b942d33)" style="fill: none"/>
    <path d="M 0 137.749201 
L 0.215241 137.532304 
L -0 137.240769 
M -0 121.878602 
L 3.272727 121.76442 
L 6.545455 121.374131 
L 6.809051 121.15941 
L 9.818182 118.671666 
L 10.512783 117.884832 
L 13.090909 114.964369 
L 13.403516 114.610253 
L 16.240042 111.335674 
L 16.363636 111.226948 
L 19.038721 108.061096 
L 19.636364 107.518527 
L 22.031046 104.786517 
L 22.909091 103.842479 
L 25.610437 101.511938 
L 26.181818 100.836758 
L 29.454545 100.520585 
L 32.727273 100.423142 
L 36 98.427459 
L 36.191679 98.23736 
L 38.790256 94.962781 
L 39.272727 94.498985 
L 39.505141 94.20841 
M 52.161409 79.757371 
L 52.363636 79.509722 
L 54.346233 78.589888 
L 55.636364 77.530363 
L 58.909091 77.364438 
L 62.181818 76.281195 
L 63.224965 75.315309 
L 65.454545 73.289431 
L 66.523581 72.040731 
L 68.727273 69.736297 
L 69.570497 68.766152 
L 72 65.970964 
L 72.416673 65.491573 
L 75.255817 62.216995 
L 75.272727 62.201625 
L 77.981142 58.942416 
L 78.545455 58.417743 
L 81.427596 55.667837 
L 81.818182 55.225187 
L 85.090909 54.413426 
L 88.363636 53.934416 
L 91.168281 52.393259 
L 91.636364 52.052143 
L 93.843273 49.11868 
L 94.909091 48.096351 
L 96.728754 45.844101 
L 98.181818 44.566575 
L 99.890117 42.569523 
L 101.454545 41.151438 
L 103.09573 39.294944 
L 104.727273 37.596992 
L 106.32296 36.020365 
L 108 34.110023 
L 110.382334 32.745787 
L 111.272727 31.851909 
L 114.545455 31.032494 
L 117.818182 29.694436 
L 118.037566 29.471208 
L 121.090909 26.469959 
L 121.33337 26.196629 
L 124.363636 23.52415 
L 124.911135 22.922051 
L 127.636364 20.279786 
L 128.217541 19.647472 
L 130.909091 16.719095 
L 131.246444 16.372893 
L 134.181818 13.162357 
L 134.283753 13.098315 
L 137.259523 9.823736 
L 137.454545 9.653255 
L 140.727273 8.448186 
L 144 7.320729 
L 145.070618 6.549157 
L 147.272727 4.190062 
L 148.493604 3.274579 
L 150.545455 1.007773 
L 151.376467 0 
M 29.454545 114.956989 
L 29.801086 114.610253 
L 29.454545 114.188266 
L 29.060829 114.610253 
L 29.454545 114.956989 
z
" clip-path="url(#p0b1b942d33)" style="fill: none"/>
    <path d="M 0 114.868015 
L 0.528476 114.610253 
L 3.272727 112.583159 
L 4.989342 111.335674 
L 6.545455 110.079311 
L 8.903075 108.061096 
L 9.818182 107.320746 
L 12.751399 104.786517 
L 13.090909 104.493188 
L 16.363636 101.683248 
L 16.633331 101.511938 
L 19.636364 99.416542 
L 21.604246 98.23736 
L 22.909091 97.455479 
L 26.181818 95.155986 
L 26.450496 94.962781 
L 29.454545 92.463895 
L 31.410127 91.688203 
L 32.727273 90.560858 
L 34.944447 88.413624 
L 36 87.391367 
L 38.325685 85.139045 
L 39.272727 84.221877 
L 41.706923 81.864467 
L 42.545455 81.052386 
L 45.354807 78.589888 
L 45.818182 78.142635 
L 49.090909 75.723191 
L 49.655228 75.315309 
L 52.363636 73.357709 
L 54.185722 72.040731 
L 55.636364 70.992227 
L 58.201627 68.766152 
L 58.909091 68.260036 
L 61.651486 65.491573 
L 62.181818 65.033147 
L 64.975009 62.216995 
L 65.454545 61.720618 
L 68.209537 58.942416 
L 68.727273 58.40897 
L 71.445045 55.667837 
L 72 55.108112 
L 74.990383 52.393259 
L 75.272727 52.108233 
L 78.545455 49.927021 
L 79.795849 49.11868 
L 81.818182 47.811305 
L 84.901425 45.844101 
L 85.090909 45.733375 
L 88.363636 43.174051 
L 88.948685 42.569523 
L 91.510888 39.76792 
M 105.036167 26.12946 
L 108 24.447953 
L 110.689564 22.922051 
L 111.272727 22.620484 
L 114.545455 21.159017 
L 115.923321 19.647472 
L 117.818182 18.361588 
L 119.731919 16.372893 
L 121.090909 14.867131 
L 122.788878 13.098315 
L 124.363636 11.34148 
L 125.816517 9.823736 
L 127.636364 7.777489 
L 128.808424 6.549157 
L 130.909091 4.22503 
L 132.228727 3.274579 
L 134.181818 1.174326 
L 136.359427 0 
" clip-path="url(#p0b1b942d33)" style="fill: none"/>
    <path d="M 0 95.552056 
L 0.853375 94.962781 
L 3.272727 93.292161 
L 5.675691 91.688203 
L 6.545455 91.093964 
L 9.818182 88.925439 
L 10.455634 88.413624 
L 13.090909 86.545571 
L 14.793603 85.139045 
L 16.363636 83.978086 
L 19.295341 81.864467 
L 19.636364 81.613975 
L 22.909091 79.12636 
L 23.515992 78.589888 
L 26.181818 76.232671 
L 27.219281 75.315309 
L 29.454545 73.33881 
L 31.275893 72.040731 
L 32.727273 70.792304 
L 36 68.985911 
L 36.313264 68.766152 
L 39.272727 66.939843 
L 41.236489 65.491573 
L 42.545455 64.629893 
L 45.324913 62.216995 
L 45.818182 61.856584 
L 48.877485 58.942416 
L 49.090909 58.747424 
L 52.125606 55.667837 
L 52.363636 55.423124 
L 55.31076 52.393259 
L 55.636364 52.058513 
L 58.495914 49.11868 
L 58.909091 48.693903 
L 62.181818 46.18235 
L 64.41179 45.844101 
L 65.454545 45.685933 
L 68.727273 44.086295 
L 70.65094 42.569523 
L 72 41.672931 
L 74.287077 39.294944 
L 75.272727 38.458057 
L 75.280187 38.450255 
M 88.364612 24.366258 
L 91.495222 22.922051 
L 91.636364 22.770593 
L 92.460396 22.922051 
L 94.909091 23.151021 
L 95.304964 22.922051 
L 98.181818 21.404644 
L 99.755414 19.647472 
L 101.454545 18.41332 
L 103.35071 16.372893 
L 104.727273 14.890718 
L 106.344834 13.098315 
L 108 11.221661 
L 109.232938 9.823736 
L 111.272727 7.51099 
L 112.121042 6.549157 
L 114.545455 3.800319 
L 115.422742 3.274579 
L 117.818182 0.192476 
L 121.090909 0.512627 
L 124.363636 0.74293 
L 125.091369 0 
" clip-path="url(#p0b1b942d33)" style="fill: none"/>
    <path d="M 0 63.325646 
L 1.363647 62.216995 
L 3.272727 60.637614 
L 6.545455 59.300158 
L 7.732832 58.942416 
L 9.818182 58.299408 
L 13.090909 57.28667 
L 15.182838 55.667837 
L 16.363636 55.043558 
L 19.497594 52.393259 
L 19.636364 52.277279 
L 22.909091 49.379386 
L 23.181664 49.11868 
L 26.181818 46.249138 
L 26.870745 45.844101 
L 29.454545 43.439231 
L 32.727273 42.759444 
L 35.23295 42.569523 
L 36 42.507737 
L 39.272727 40.773193 
L 40.721045 39.294944 
L 42.243031 38.048162 
M 56.239685 25.270134 
L 58.909091 25.027801 
L 62.181818 24.972042 
L 65.454545 23.095847 
L 65.630029 22.922051 
L 68.727273 19.770876 
L 68.846105 19.647472 
L 71.999242 16.372893 
L 72 16.372189 
L 75.14651 13.098315 
L 75.272727 12.973572 
L 78.305858 9.823736 
L 78.545455 9.57492 
L 81.482598 6.549157 
L 81.818182 6.200555 
L 85.090909 6.463432 
L 85.774422 6.549157 
L 88.363636 6.75962 
L 88.555481 6.549157 
L 91.636364 4.69377 
L 92.983449 3.274579 
L 94.909091 1.310492 
L 96.162334 0 
" clip-path="url(#p0b1b942d33)" style="fill: none"/>
    <path clip-path="url(#p0b1b942d33)" style="fill: none"/>
    <path clip-path="url(#p0b1b942d33)" style="fill: none"/>
    <path clip-path="url(#p0b1b942d33)" style="fill: none"/>
    <path clip-path="url(#p0b1b942d33)" style="fill: none"/>
    <path clip-path="url(#p0b1b942d33)" style="fill: none"/>
    <path clip-path="url(#p0b1b942d33)" style="fill: none"/>
    <path clip-path="url(#p0b1b942d33)" style="fill: none"/>
    <path clip-path="url(#p0b1b942d33)" style="fill: none"/>
    <path clip-path="url(#p0b1b942d33)" style="fill: none"/>
    <path clip-path="url(#p0b1b942d33)" style="fill: none"/>
    <path clip-path="url(#p0b1b942d33)" style="fill: none"/>
    <path clip-path="url(#p0b1b942d33)" style="fill: none"/>
    <path clip-path="url(#p0b1b942d33)" style="fill: none"/>
    <path clip-path="url(#p0b1b942d33)" style="fill: none"/>
    <path clip-path="url(#p0b1b942d33)" style="fill: none"/>
    <path clip-path="url(#p0b1b942d33)" style="fill: none"/>
    <path clip-path="url(#p0b1b942d33)" style="fill: none"/>
    <path clip-path="url(#p0b1b942d33)" style="fill: none"/>
    <path clip-path="url(#p0b1b942d33)" style="fill: none"/>
    <path clip-path="url(#p0b1b942d33)" style="fill: none"/>
    <path clip-path="url(#p0b1b942d33)" style="fill: none"/>
    <path clip-path="url(#p0b1b942d33)" style="fill: none"/>
    <path clip-path="url(#p0b1b942d33)" style="fill: none"/>
    <path clip-path="url(#p0b1b942d33)" style="fill: none"/>
    <path clip-path="url(#p0b1b942d33)" style="fill: none"/>
    <path clip-path="url(#p0b1b942d33)" style="fill: none"/>
    <path clip-path="url(#p0b1b942d33)" style="fill: none"/>
    <path clip-path="url(#p0b1b942d33)" style="fill: none"/>
    <path clip-path="url(#p0b1b942d33)" style="fill: none"/>
    <path clip-path="url(#p0b1b942d33)" style="fill: none"/>
    <path clip-path="url(#p0b1b942d33)" style="fill: none"/>
    <path clip-path="url(#p0b1b942d33)" style="fill: none"/>
    <path clip-path="url(#p0b1b942d33)" style="fill: none"/>
    <path clip-path="url(#p0b1b942d33)" style="fill: none"/>
   </g>
   <g id="text_1">
    <g clip-path="url(#p0b1b942d33)">
     <!-- 0 -->
     <g style="opacity: 0" transform="translate(98.094699 53.918555) rotate(-48.074262) scale(0.12 -0.12)">
      <defs>
       <path id="DejaVuSans-30" d="M 2034 4250 
Q 1547 4250 1301 3770 
Q 1056 3291 1056 2328 
Q 1056 1369 1301 889 
Q 1547 409 2034 409 
Q 2525 409 2770 889 
Q 3016 1369 3016 2328 
Q 3016 3291 2770 3770 
Q 2525 4250 2034 4250 
z
M 2034 4750 
Q 2819 4750 3233 4129 
Q 3647 3509 3647 2328 
Q 3647 1150 3233 529 
Q 2819 -91 2034 -91 
Q 1250 -91 836 529 
Q 422 1150 422 2328 
Q 422 3509 836 4129 
Q 1250 4750 2034 4750 
z
" transform="scale(0.015625)"/>
      </defs>
      <use xlink:href="#DejaVuSans-30"/>
     </g>
    </g>
   </g>
   <g id="text_2">
    <g clip-path="url(#p0b1b942d33)">
     <!-- 1 -->
     <g style="opacity: 0" transform="translate(45.815652 92.022983) rotate(-49.033369) scale(0.12 -0.12)">
      <defs>
       <path id="DejaVuSans-31" d="M 794 531 
L 1825 531 
L 1825 4091 
L 703 3866 
L 703 4441 
L 1819 4666 
L 2450 4666 
L 2450 531 
L 3481 531 
L 3481 0 
L 794 0 
L 794 531 
z
" transform="scale(0.015625)"/>
      </defs>
      <use xlink:href="#DejaVuSans-31"/>
     </g>
    </g>
   </g>
   <g id="text_3">
    <g clip-path="url(#p0b1b942d33)">
     <!-- 2 -->
     <g style="opacity: 0" transform="translate(97.890467 37.891849) rotate(-45.756915) scale(0.12 -0.12)">
      <defs>
       <path id="DejaVuSans-32" d="M 1228 531 
L 3431 531 
L 3431 0 
L 469 0 
L 469 531 
Q 828 903 1448 1529 
Q 2069 2156 2228 2338 
Q 2531 2678 2651 2914 
Q 2772 3150 2772 3378 
Q 2772 3750 2511 3984 
Q 2250 4219 1831 4219 
Q 1534 4219 1204 4116 
Q 875 4013 500 3803 
L 500 4441 
Q 881 4594 1212 4672 
Q 1544 4750 1819 4750 
Q 2544 4750 2975 4387 
Q 3406 4025 3406 3419 
Q 3406 3131 3298 2873 
Q 3191 2616 2906 2266 
Q 2828 2175 2409 1742 
Q 1991 1309 1228 531 
z
" transform="scale(0.015625)"/>
      </defs>
      <use xlink:href="#DejaVuSans-32"/>
     </g>
    </g>
   </g>
   <g id="text_4">
    <g clip-path="url(#p0b1b942d33)">
     <!-- 3 -->
     <g style="opacity: 0" transform="translate(81.683644 36.45427) rotate(-47.536501) scale(0.12 -0.12)">
      <defs>
       <path id="DejaVuSans-33" d="M 2597 2516 
Q 3050 2419 3304 2112 
Q 3559 1806 3559 1356 
Q 3559 666 3084 287 
Q 2609 -91 1734 -91 
Q 1441 -91 1130 -33 
Q 819 25 488 141 
L 488 750 
Q 750 597 1062 519 
Q 1375 441 1716 441 
Q 2309 441 2620 675 
Q 2931 909 2931 1356 
Q 2931 1769 2642 2001 
Q 2353 2234 1838 2234 
L 1294 2234 
L 1294 2753 
L 1863 2753 
Q 2328 2753 2575 2939 
Q 2822 3125 2822 3475 
Q 2822 3834 2567 4026 
Q 2313 4219 1838 4219 
Q 1578 4219 1281 4162 
Q 984 4106 628 3988 
L 628 4550 
Q 988 4650 1302 4700 
Q 1616 4750 1894 4750 
Q 2613 4750 3031 4423 
Q 3450 4097 3450 3541 
Q 3450 3153 3228 2886 
Q 3006 2619 2597 2516 
z
" transform="scale(0.015625)"/>
      </defs>
      <use xlink:href="#DejaVuSans-33"/>
     </g>
    </g>
   </g>
   <g id="text_5">
    <g clip-path="url(#p0b1b942d33)">
     <!-- 4 -->
     <g style="opacity: 0" transform="translate(48.698751 36.431704) rotate(-44.611337) scale(0.12 -0.12)">
      <defs>
       <path id="DejaVuSans-34" d="M 2419 4116 
L 825 1625 
L 2419 1625 
L 2419 4116 
z
M 2253 4666 
L 3047 4666 
L 3047 1625 
L 3713 1625 
L 3713 1100 
L 3047 1100 
L 3047 0 
L 2419 0 
L 2419 1100 
L 313 1100 
L 313 1709 
L 2253 4666 
z
" transform="scale(0.015625)"/>
      </defs>
      <use xlink:href="#DejaVuSans-34"/>
     </g>
    </g>
   </g>
  </g>
 </g>
 <defs>
  <clipPath id="p0b1b942d33">
   <rect x="0" y="0" width="576" height="815.370087"/>
  </clipPath>
 </defs>
</svg>
