<?xml version="1.0" encoding="utf-8" standalone="no"?>
<!DOCTYPE svg PUBLIC "-//W3C//DTD SVG 1.1//EN"
  "http://www.w3.org/Graphics/SVG/1.1/DTD/svg11.dtd">
<svg xmlns:xlink="http://www.w3.org/1999/xlink" width="576pt" height="816.226927pt" viewBox="0 0 576 816.226927" xmlns="http://www.w3.org/2000/svg" version="1.1">
 <metadata>
  <rdf:RDF xmlns:dc="http://purl.org/dc/elements/1.1/" xmlns:cc="http://creativecommons.org/ns#" xmlns:rdf="http://www.w3.org/1999/02/22-rdf-syntax-ns#">
   <cc:Work>
    <dc:type rdf:resource="http://purl.org/dc/dcmitype/StillImage"/>
    <dc:date>2025-07-25T22:44:39.310331</dc:date>
    <dc:format>image/svg+xml</dc:format>
    <dc:creator>
     <cc:Agent>
      <dc:title>Matplotlib v3.10.3, https://matplotlib.org/</dc:title>
     </cc:Agent>
    </dc:creator>
   </cc:Work>
  </rdf:RDF>
 </metadata>
 <defs>
  <style type="text/css">*{stroke-linejoin: round; stroke-linecap: butt}</style>
 </defs>
 <g id="figure_1">
  <g id="patch_1">
   <path d="M 0 816.226927 
L 576 816.226927 
L 576 0 
L 0 0 
L 0 816.226927 
z
" style="fill: none; opacity: 0"/>
  </g>
  <g id="axes_1">
   <g id="QuadContourSet_1">
    <path d="M 3.272727 816.226927 
L 6.545455 816.226927 
L 9.818182 816.226927 
L 13.090909 816.226927 
L 16.363636 816.226927 
L 19.636364 816.226927 
L 22.909091 816.226927 
L 26.181818 816.226927 
L 29.454545 816.226927 
L 32.727273 816.226927 
L 36 816.226927 
L 39.272727 816.226927 
L 42.545455 816.226927 
L 45.818182 816.226927 
L 49.090909 816.226927 
L 52.363636 816.226927 
L 55.636364 816.226927 
L 58.909091 816.226927 
L 62.181818 816.226927 
L 65.454545 816.226927 
L 68.727273 816.226927 
L 72 816.226927 
L 75.272727 816.226927 
L 78.545455 816.226927 
L 81.818182 816.226927 
L 85.090909 816.226927 
L 88.363636 816.226927 
L 91.636364 816.226927 
L 94.909091 816.226927 
L 98.181818 816.226927 
L 101.454545 816.226927 
L 104.727273 816.226927 
L 108 816.226927 
L 111.272727 816.226927 
L 114.545455 816.226927 
L 117.818182 816.226927 
L 121.090909 816.226927 
L 124.363636 816.226927 
L 127.636364 816.226927 
L 130.909091 816.226927 
L 134.181818 816.226927 
L 137.454545 816.226927 
L 140.727273 816.226927 
L 144 816.226927 
L 147.272727 816.226927 
L 150.545455 816.226927 
L 153.818182 816.226927 
L 157.090909 816.226927 
L 160.363636 816.226927 
L 163.636364 816.226927 
L 166.909091 816.226927 
L 170.181818 816.226927 
L 173.454545 816.226927 
L 176.727273 816.226927 
L 180 816.226927 
L 183.272727 816.226927 
L 186.545455 816.226927 
L 189.818182 816.226927 
L 193.090909 816.226927 
L 196.363636 816.226927 
L 199.636364 816.226927 
L 202.909091 816.226927 
L 206.181818 816.226927 
L 209.454545 816.226927 
L 212.727273 816.226927 
L 216 816.226927 
L 219.272727 816.226927 
L 222.545455 816.226927 
L 225.818182 816.226927 
L 229.090909 816.226927 
L 232.363636 816.226927 
L 235.636364 816.226927 
L 238.909091 816.226927 
L 242.181818 816.226927 
L 245.454545 816.226927 
L 248.727273 816.226927 
L 252 816.226927 
L 255.272727 816.226927 
L 258.545455 816.226927 
L 261.818182 816.226927 
L 265.090909 816.226927 
L 268.363636 816.226927 
L 271.636364 816.226927 
L 274.909091 816.226927 
L 278.181818 816.226927 
L 281.454545 816.226927 
L 284.727273 816.226927 
L 288 816.226927 
L 291.272727 816.226927 
L 294.545455 816.226927 
L 297.818182 816.226927 
L 301.090909 816.226927 
L 304.363636 816.226927 
L 307.636364 816.226927 
L 310.909091 816.226927 
L 314.181818 816.226927 
L 317.454545 816.226927 
L 320.727273 816.226927 
L 324 816.226927 
L 327.272727 816.226927 
L 330.545455 816.226927 
L 333.818182 816.226927 
L 337.090909 816.226927 
L 340.363636 816.226927 
L 343.636364 816.226927 
L 346.909091 816.226927 
L 350.181818 816.226927 
L 353.454545 816.226927 
L 356.727273 816.226927 
L 360 816.226927 
L 363.272727 816.226927 
L 366.545455 816.226927 
L 369.818182 816.226927 
L 373.090909 816.226927 
L 376.363636 816.226927 
L 379.636364 816.226927 
L 382.909091 816.226927 
L 386.181818 816.226927 
L 389.454545 816.226927 
L 392.727273 816.226927 
L 396 816.226927 
L 399.272727 816.226927 
L 402.545455 816.226927 
L 405.818182 816.226927 
L 409.090909 816.226927 
L 412.363636 816.226927 
L 415.636364 816.226927 
L 418.909091 816.226927 
L 422.181818 816.226927 
L 425.454545 816.226927 
L 428.727273 816.226927 
L 432 816.226927 
L 435.272727 816.226927 
L 438.545455 816.226927 
L 441.818182 816.226927 
L 445.090909 816.226927 
L 448.363636 816.226927 
L 451.636364 816.226927 
L 454.909091 816.226927 
L 458.181818 816.226927 
L 461.454545 816.226927 
L 464.727273 816.226927 
L 468 816.226927 
L 471.272727 816.226927 
L 474.545455 816.226927 
L 477.818182 816.226927 
L 481.090909 816.226927 
L 484.363636 816.226927 
L 487.636364 816.226927 
L 490.909091 816.226927 
L 494.181818 816.226927 
L 497.454545 816.226927 
L 500.727273 816.226927 
L 504 816.226927 
L 507.272727 816.226927 
L 510.545455 816.226927 
L 513.818182 816.226927 
L 517.090909 816.226927 
L 520.363636 816.226927 
L 523.636364 816.226927 
L 526.909091 816.226927 
L 530.181818 816.226927 
L 533.454545 816.226927 
L 536.727273 816.226927 
L 540 816.226927 
L 543.272727 816.226927 
L 546.545455 816.226927 
L 549.818182 816.226927 
L 553.090909 816.226927 
L 556.363636 816.226927 
L 559.636364 816.226927 
L 562.909091 816.226927 
L 566.181818 816.226927 
L 569.454545 816.226927 
L 572.727273 816.226927 
L 576 816.226927 
L 576 812.948908 
L 576 809.670888 
L 576 806.392868 
L 576 803.114848 
L 576 799.836828 
L 576 796.558809 
L 576 793.280789 
L 576 790.002769 
L 576 786.724749 
L 576 783.446729 
L 576 780.16871 
L 576 776.89069 
L 576 773.61267 
L 576 770.33465 
L 576 767.056631 
L 576 763.778611 
L 576 760.500591 
L 576 757.222571 
L 576 753.944551 
L 576 750.666532 
L 576 747.388512 
L 576 744.110492 
L 576 740.832472 
L 576 737.554452 
L 576 734.276433 
L 576 730.998413 
L 576 727.720393 
L 576 724.442373 
L 576 721.164354 
L 576 717.886334 
L 576 714.608314 
L 576 711.330294 
L 576 708.052274 
L 576 704.774255 
L 576 701.496235 
L 576 698.218215 
L 576 694.940195 
L 576 691.662175 
L 576 688.384156 
L 576 685.106136 
L 576 681.828116 
L 576 678.550096 
L 576 675.272076 
L 576 671.994057 
L 576 668.716037 
L 576 665.438017 
L 576 662.159997 
L 576 658.881978 
L 576 655.603958 
L 576 652.325938 
L 576 649.047918 
L 576 645.769898 
L 576 642.491879 
L 576 639.213859 
L 576 635.935839 
L 576 632.657819 
L 576 629.379799 
L 576 626.10178 
L 576 622.82376 
L 576 619.54574 
L 576 616.26772 
L 576 612.9897 
L 576 609.711681 
L 576 606.433661 
L 576 603.155641 
L 576 599.877621 
L 576 596.599602 
L 576 593.321582 
L 576 590.043562 
L 576 586.765542 
L 576 583.487522 
L 576 580.209503 
L 576 576.931483 
L 576 573.653463 
L 576 570.375443 
L 576 567.097423 
L 576 563.819404 
L 576 560.541384 
L 576 557.263364 
L 576 553.985344 
L 576 550.707324 
L 576 547.429305 
L 576 544.151285 
L 576 540.873265 
L 576 537.595245 
L 576 534.317226 
L 576 531.039206 
L 576 527.761186 
L 576 524.483166 
L 576 521.205146 
L 576 517.927127 
L 576 514.649107 
L 576 511.371087 
L 576 508.093067 
L 576 504.815047 
L 576 501.537028 
L 576 498.259008 
L 576 494.980988 
L 576 491.702968 
L 576 488.424949 
L 576 485.146929 
L 576 481.868909 
L 576 478.590889 
L 576 475.312869 
L 576 472.03485 
L 576 468.75683 
L 576 465.47881 
L 576 462.20079 
L 576 458.92277 
L 576 455.644751 
L 576 452.366731 
L 576 449.088711 
L 576 445.810691 
L 576 442.532671 
L 576 439.254652 
L 576 435.976632 
L 576 432.698612 
L 576 429.420592 
L 576 426.142573 
L 576 422.864553 
L 576 419.586533 
L 576 416.308513 
L 576 413.030493 
L 576 409.752474 
L 576 406.474454 
L 576 403.196434 
L 576 399.918414 
L 576 396.640394 
L 576 393.362375 
L 576 390.084355 
L 576 386.806335 
L 576 383.528315 
L 576 380.250295 
L 576 376.972276 
L 576 373.694256 
L 576 370.416236 
L 576 367.138216 
L 576 363.860197 
L 576 360.582177 
L 576 357.304157 
L 576 354.026137 
L 576 350.748117 
L 576 347.470098 
L 576 344.192078 
L 576 340.914058 
L 576 337.636038 
L 576 334.358018 
L 576 331.079999 
L 576 327.801979 
L 576 324.523959 
L 576 321.245939 
L 576 317.96792 
L 576 314.6899 
L 576 311.41188 
L 576 308.13386 
L 576 304.85584 
L 576 301.577821 
L 576 298.299801 
L 576 295.021781 
L 576 291.743761 
L 576 288.465741 
L 576 285.187722 
L 576 281.909702 
L 576 278.631682 
L 576 275.353662 
L 576 272.075642 
L 576 268.797623 
L 576 265.519603 
L 576 262.241583 
L 576 258.963563 
L 576 255.685544 
L 576 252.407524 
L 576 249.129504 
L 576 245.851484 
L 576 242.573464 
L 576 239.295445 
L 576 236.017425 
L 576 232.739405 
L 576 229.461385 
L 576 226.183365 
L 576 222.905346 
L 576 219.627326 
L 576 216.349306 
L 576 213.071286 
L 576 209.793266 
L 576 206.515247 
L 576 203.237227 
L 576 199.959207 
L 576 196.681187 
L 576 193.403168 
L 576 190.125148 
L 576 186.847128 
L 576 183.569108 
L 576 180.291088 
L 576 177.013069 
L 576 173.735049 
L 576 170.457029 
L 576 167.179009 
L 576 163.900989 
L 576 160.62297 
L 576 157.34495 
L 576 154.06693 
L 576 150.78891 
L 576 147.51089 
L 576 144.232871 
L 576 140.954851 
L 576 137.676831 
L 576 134.398811 
L 576 131.120792 
L 576 127.842772 
L 576 124.564752 
L 576 121.286732 
L 576 118.008712 
L 576 114.730693 
L 576 111.452673 
L 576 108.174653 
L 576 104.896633 
L 576 101.618613 
L 576 98.340594 
L 576 95.062574 
L 576 91.784554 
L 576 88.506534 
L 576 85.228515 
L 576 81.950495 
L 576 78.672475 
L 576 75.394455 
L 576 72.116435 
L 576 68.838416 
L 576 65.560396 
L 576 62.282376 
L 576 59.004356 
L 576 55.726336 
L 576 52.448317 
L 576 49.170297 
L 576 45.892277 
L 576 42.614257 
L 576 39.336237 
L 576 36.058218 
L 576 32.780198 
L 576 29.502178 
L 576 26.224158 
L 576 22.946139 
L 576 19.668119 
L 576 16.390099 
L 576 13.112079 
L 576 9.834059 
L 576 6.55604 
L 576 3.27802 
L 576 0 
L 572.727273 0 
L 569.454545 0 
L 566.181818 0 
L 562.909091 0 
L 559.636364 0 
L 556.363636 0 
L 553.090909 0 
L 549.818182 0 
L 546.545455 0 
L 543.272727 0 
L 540 0 
L 536.727273 0 
L 533.454545 0 
L 530.181818 0 
L 526.909091 0 
L 523.636364 0 
L 520.363636 0 
L 517.090909 0 
L 513.818182 0 
L 510.545455 0 
L 507.272727 0 
L 504 0 
L 500.727273 0 
L 497.454545 0 
L 494.181818 0 
L 490.909091 0 
L 487.636364 0 
L 484.363636 0 
L 481.090909 0 
L 477.818182 0 
L 474.545455 0 
L 471.272727 0 
L 468 0 
L 464.727273 0 
L 461.454545 0 
L 458.181818 0 
L 454.909091 0 
L 451.636364 0 
L 448.363636 0 
L 445.090909 0 
L 441.818182 0 
L 438.545455 0 
L 435.272727 0 
L 432 0 
L 428.727273 0 
L 425.454545 0 
L 422.181818 0 
L 418.909091 0 
L 415.636364 0 
L 412.363636 0 
L 409.090909 0 
L 405.818182 0 
L 402.545455 0 
L 399.272727 0 
L 396 0 
L 392.727273 0 
L 389.454545 0 
L 386.181818 0 
L 382.909091 0 
L 379.636364 0 
L 376.363636 0 
L 373.090909 0 
L 369.818182 0 
L 366.545455 0 
L 363.272727 0 
L 360 0 
L 356.727273 0 
L 353.454545 0 
L 350.181818 0 
L 346.909091 0 
L 343.636364 0 
L 340.363636 0 
L 337.090909 0 
L 333.818182 0 
L 330.545455 0 
L 327.272727 0 
L 324 0 
L 320.727273 0 
L 317.454545 0 
L 314.181818 0 
L 310.909091 0 
L 307.636364 0 
L 304.363636 0 
L 301.090909 0 
L 297.818182 0 
L 294.545455 0 
L 291.272727 0 
L 288 0 
L 284.727273 0 
L 281.454545 0 
L 278.181818 0 
L 274.909091 0 
L 271.636364 0 
L 268.363636 0 
L 265.090909 0 
L 261.818182 0 
L 258.545455 0 
L 255.272727 0 
L 252 0 
L 248.727273 0 
L 245.454545 0 
L 242.181818 0 
L 238.909091 0 
L 235.636364 0 
L 232.363636 0 
L 229.090909 0 
L 225.818182 0 
L 222.545455 0 
L 219.272727 0 
L 216 0 
L 212.727273 0 
L 209.454545 0 
L 206.181818 0 
L 202.909091 0 
L 199.636364 0 
L 196.363636 0 
L 193.090909 0 
L 189.818182 0 
L 186.545455 0 
L 183.272727 0 
L 180 0 
L 176.727273 0 
L 173.454545 0 
L 170.181818 0 
L 166.909091 0 
L 163.636364 0 
L 160.363636 0 
L 157.090909 0 
L 153.818182 0 
L 150.545455 0 
L 147.272727 0 
L 144 0 
L 140.727273 0 
L 137.454545 0 
L 134.181818 0 
L 130.909091 0 
L 127.636364 0 
L 124.363636 0 
L 121.090909 0 
L 117.818182 0 
L 114.545455 0 
L 111.272727 0 
L 108 0 
L 104.727273 0 
L 101.454545 0 
L 98.181818 0 
L 94.909091 0 
L 91.636364 0 
L 88.363636 0 
L 85.090909 0 
L 81.818182 0 
L 78.545455 0 
L 75.272727 0 
L 72 0 
L 68.727273 0 
L 65.454545 0 
L 62.181818 0 
L 58.909091 0 
L 55.636364 0 
L 52.363636 0 
L 49.090909 0 
L 45.818182 0 
L 42.545455 0 
L 39.272727 0 
L 36 0 
L 32.727273 0 
L 29.454545 0 
L 26.181818 0 
L 22.909091 0 
L 19.636364 0 
L 16.363636 0 
L 13.090909 0 
L 9.818182 0 
L 6.545455 0 
L 3.272727 0 
L 0 0 
L 0 3.27802 
L 0 6.55604 
L 0 9.834059 
L 0 13.112079 
L 0 16.390099 
L 0 19.668119 
L 0 22.946139 
L 0 26.224158 
L 0 29.502178 
L 0 32.780198 
L 0 36.058218 
L 0 39.336237 
L 0 42.614257 
L 0 45.892277 
L 0 49.170297 
L 0 52.448317 
L 0 55.726336 
L 0 59.004356 
L 0 62.282376 
L 0 65.560396 
L 0 68.838416 
L 0 72.116435 
L 0 75.394455 
L 0 78.672475 
L 0 81.950495 
L 0 85.228515 
L 0 88.506534 
L 0 91.784554 
L 0 95.062574 
L 0 98.340594 
L 0 101.618613 
L 0 104.896633 
L 0 108.174653 
L 0 111.452673 
L 0 114.730693 
L 0 118.008712 
L 0 121.286732 
L 0 124.564752 
L 0 127.842772 
L 0 131.120792 
L 0 134.398811 
L 0 137.676831 
L 0 140.954851 
L 0 144.232871 
L 0 147.51089 
L 0 150.78891 
L 0 154.06693 
L 0 157.34495 
L 0 160.62297 
L 0 163.900989 
L 0 167.179009 
L 0 170.457029 
L 0 173.735049 
L 0 177.013069 
L 0 180.291088 
L 0 183.569108 
L 0 186.847128 
L 0 190.125148 
L 0 193.403168 
L 0 196.681187 
L 0 199.959207 
L 0 203.237227 
L 0 206.515247 
L 0 209.793266 
L 0 213.071286 
L 0 216.349306 
L 0 219.627326 
L 0 222.905346 
L 0 226.183365 
L 0 229.461385 
L 0 232.739405 
L 0 236.017425 
L 0 239.295445 
L 0 242.573464 
L 0 245.851484 
L 0 249.129504 
L 0 252.407524 
L 0 255.685544 
L 0 258.963563 
L 0 262.241583 
L 0 265.519603 
L 0 268.797623 
L 0 272.075642 
L 0 275.353662 
L 0 278.631682 
L 0 281.909702 
L 0 285.187722 
L 0 288.465741 
L 0 291.743761 
L 0 295.021781 
L 0 298.299801 
L 0 301.577821 
L 0 304.85584 
L 0 308.13386 
L 0 311.41188 
L 0 314.6899 
L 0 317.96792 
L 0 321.245939 
L 0 324.523959 
L 0 327.801979 
L 0 331.079999 
L 0 334.358018 
L 0 337.636038 
L 0 340.914058 
L 0 344.192078 
L 0 347.470098 
L 0 350.748117 
L 0 354.026137 
L 0 357.304157 
L 0 360.582177 
L 0 363.860197 
L 0 367.138216 
L 0 370.416236 
L 0 373.694256 
L 0 376.972276 
L 0 380.250295 
L 0 383.528315 
L 0 386.806335 
L 0 390.084355 
L 0 393.362375 
L 0 396.640394 
L 0 399.918414 
L 0 403.196434 
L 0 406.474454 
L 0 409.752474 
L 0 413.030493 
L 0 416.308513 
L 0 419.586533 
L 0 422.864553 
L 0 426.142573 
L 0 429.420592 
L 0 432.698612 
L 0 435.976632 
L 0 439.254652 
L 0 442.532671 
L 0 445.810691 
L 0 449.088711 
L 0 452.366731 
L 0 455.644751 
L 0 458.92277 
L 0 462.20079 
L 0 465.47881 
L 0 468.75683 
L 0 472.03485 
L 0 475.312869 
L 0 478.590889 
L 0 481.868909 
L 0 485.146929 
L 0 488.424949 
L 0 491.702968 
L 0 494.980988 
L 0 498.259008 
L 0 501.537028 
L 0 504.815047 
L 0 508.093067 
L 0 511.371087 
L 0 514.649107 
L 0 517.927127 
L 0 521.205146 
L 0 524.483166 
L 0 527.761186 
L 0 531.039206 
L 0 534.317226 
L 0 537.595245 
L 0 540.873265 
L 0 544.151285 
L 0 547.429305 
L 0 550.707324 
L 0 553.985344 
L 0 557.263364 
L 0 560.541384 
L 0 563.819404 
L 0 567.097423 
L 0 570.375443 
L 0 573.653463 
L 0 576.931483 
L 0 580.209503 
L 0 583.487522 
L 0 586.765542 
L 0 590.043562 
L 0 593.321582 
L 0 596.599602 
L 0 599.877621 
L 0 603.155641 
L 0 606.433661 
L 0 609.711681 
L 0 612.9897 
L 0 616.26772 
L 0 619.54574 
L 0 622.82376 
L 0 626.10178 
L 0 629.379799 
L 0 632.657819 
L 0 635.935839 
L 0 639.213859 
L 0 642.491879 
L 0 645.769898 
L 0 649.047918 
L 0 652.325938 
L 0 655.603958 
L 0 658.881978 
L 0 662.159997 
L 0 665.438017 
L 0 668.716037 
L 0 671.994057 
L 0 675.272076 
L 0 678.550096 
L 0 681.828116 
L 0 685.106136 
L 0 688.384156 
L 0 691.662175 
L 0 694.940195 
L 0 698.218215 
L 0 701.496235 
L 0 704.774255 
L 0 708.052274 
L 0 711.330294 
L 0 714.608314 
L 0 717.886334 
L 0 721.164354 
L 0 724.442373 
L 0 727.720393 
L 0 730.998413 
L 0 734.276433 
L 0 737.554452 
L 0 740.832472 
L 0 744.110492 
L 0 747.388512 
L 0 750.666532 
L 0 753.944551 
L 0 757.222571 
L 0 760.500591 
L 0 763.778611 
L 0 767.056631 
L 0 770.33465 
L 0 773.61267 
L 0 776.89069 
L 0 780.16871 
L 0 783.446729 
L 0 786.724749 
L 0 790.002769 
L 0 793.280789 
L 0 796.558809 
L 0 799.836828 
L 0 803.114848 
L 0 806.392868 
L 0 809.670888 
L 0 812.948908 
L 0 816.226927 
z
" clip-path="url(#p1dc23e671b)" style="fill: #f5f9fe; fill-opacity: 0.9"/>
    <path clip-path="url(#p1dc23e671b)" style="fill: #eff6fc; fill-opacity: 0.9"/>
    <path clip-path="url(#p1dc23e671b)" style="fill: #eaf3fb; fill-opacity: 0.9"/>
    <path clip-path="url(#p1dc23e671b)" style="fill: #e5eff9; fill-opacity: 0.9"/>
    <path clip-path="url(#p1dc23e671b)" style="fill: #dfecf7; fill-opacity: 0.9"/>
    <path clip-path="url(#p1dc23e671b)" style="fill: #dae8f6; fill-opacity: 0.9"/>
    <path clip-path="url(#p1dc23e671b)" style="fill: #d6e5f4; fill-opacity: 0.9"/>
    <path clip-path="url(#p1dc23e671b)" style="fill: #d0e2f2; fill-opacity: 0.9"/>
    <path clip-path="url(#p1dc23e671b)" style="fill: #cbdef1; fill-opacity: 0.9"/>
    <path clip-path="url(#p1dc23e671b)" style="fill: #c6dbef; fill-opacity: 0.9"/>
    <path clip-path="url(#p1dc23e671b)" style="fill: #bed8ec; fill-opacity: 0.9"/>
    <path clip-path="url(#p1dc23e671b)" style="fill: #b5d4e9; fill-opacity: 0.9"/>
    <path clip-path="url(#p1dc23e671b)" style="fill: #add0e6; fill-opacity: 0.9"/>
    <path clip-path="url(#p1dc23e671b)" style="fill: #a5cde3; fill-opacity: 0.9"/>
    <path clip-path="url(#p1dc23e671b)" style="fill: #9cc9e1; fill-opacity: 0.9"/>
    <path clip-path="url(#p1dc23e671b)" style="fill: #91c3de; fill-opacity: 0.9"/>
    <path clip-path="url(#p1dc23e671b)" style="fill: #85bcdc; fill-opacity: 0.9"/>
    <path clip-path="url(#p1dc23e671b)" style="fill: #7cb7da; fill-opacity: 0.9"/>
    <path clip-path="url(#p1dc23e671b)" style="fill: #71b1d7; fill-opacity: 0.9"/>
    <path clip-path="url(#p1dc23e671b)" style="fill: #66abd4; fill-opacity: 0.9"/>
    <path clip-path="url(#p1dc23e671b)" style="fill: #5da5d1; fill-opacity: 0.9"/>
    <path clip-path="url(#p1dc23e671b)" style="fill: #56a0ce; fill-opacity: 0.9"/>
    <path clip-path="url(#p1dc23e671b)" style="fill: #4d99ca; fill-opacity: 0.9"/>
    <path clip-path="url(#p1dc23e671b)" style="fill: #4493c7; fill-opacity: 0.9"/>
    <path clip-path="url(#p1dc23e671b)" style="fill: #3c8cc3; fill-opacity: 0.9"/>
    <path clip-path="url(#p1dc23e671b)" style="fill: #3686c0; fill-opacity: 0.9"/>
    <path clip-path="url(#p1dc23e671b)" style="fill: #2f7fbc; fill-opacity: 0.9"/>
    <path clip-path="url(#p1dc23e671b)" style="fill: #2777b8; fill-opacity: 0.9"/>
    <path clip-path="url(#p1dc23e671b)" style="fill: #2070b4; fill-opacity: 0.9"/>
    <path clip-path="url(#p1dc23e671b)" style="fill: #1c6ab0; fill-opacity: 0.9"/>
    <path clip-path="url(#p1dc23e671b)" style="fill: #1663aa; fill-opacity: 0.9"/>
    <path clip-path="url(#p1dc23e671b)" style="fill: #115ca5; fill-opacity: 0.9"/>
    <path clip-path="url(#p1dc23e671b)" style="fill: #0c56a0; fill-opacity: 0.9"/>
    <path clip-path="url(#p1dc23e671b)" style="fill: #084f99; fill-opacity: 0.9"/>
    <path clip-path="url(#p1dc23e671b)" style="fill: #08488e; fill-opacity: 0.9"/>
    <path clip-path="url(#p1dc23e671b)" style="fill: #084184; fill-opacity: 0.9"/>
    <path clip-path="url(#p1dc23e671b)" style="fill: #083a7a; fill-opacity: 0.9"/>
    <path clip-path="url(#p1dc23e671b)" style="fill: #083370; fill-opacity: 0.9"/>
    <path clip-path="url(#p1dc23e671b)" style="fill: #08306b; fill-opacity: 0.9"/>
   </g>
   <g id="QuadContourSet_2">
    <path clip-path="url(#p1dc23e671b)" style="fill: none"/>
    <path clip-path="url(#p1dc23e671b)" style="fill: none"/>
    <path clip-path="url(#p1dc23e671b)" style="fill: none"/>
    <path clip-path="url(#p1dc23e671b)" style="fill: none"/>
    <path clip-path="url(#p1dc23e671b)" style="fill: none"/>
    <path clip-path="url(#p1dc23e671b)" style="fill: none"/>
    <path clip-path="url(#p1dc23e671b)" style="fill: none"/>
    <path clip-path="url(#p1dc23e671b)" style="fill: none"/>
    <path clip-path="url(#p1dc23e671b)" style="fill: none"/>
    <path clip-path="url(#p1dc23e671b)" style="fill: none"/>
    <path clip-path="url(#p1dc23e671b)" style="fill: none"/>
    <path clip-path="url(#p1dc23e671b)" style="fill: none"/>
    <path clip-path="url(#p1dc23e671b)" style="fill: none"/>
    <path clip-path="url(#p1dc23e671b)" style="fill: none"/>
    <path clip-path="url(#p1dc23e671b)" style="fill: none"/>
    <path clip-path="url(#p1dc23e671b)" style="fill: none"/>
    <path clip-path="url(#p1dc23e671b)" style="fill: none"/>
    <path clip-path="url(#p1dc23e671b)" style="fill: none"/>
    <path clip-path="url(#p1dc23e671b)" style="fill: none"/>
    <path clip-path="url(#p1dc23e671b)" style="fill: none"/>
    <path clip-path="url(#p1dc23e671b)" style="fill: none"/>
    <path clip-path="url(#p1dc23e671b)" style="fill: none"/>
    <path clip-path="url(#p1dc23e671b)" style="fill: none"/>
    <path clip-path="url(#p1dc23e671b)" style="fill: none"/>
    <path clip-path="url(#p1dc23e671b)" style="fill: none"/>
    <path clip-path="url(#p1dc23e671b)" style="fill: none"/>
    <path clip-path="url(#p1dc23e671b)" style="fill: none"/>
    <path clip-path="url(#p1dc23e671b)" style="fill: none"/>
    <path clip-path="url(#p1dc23e671b)" style="fill: none"/>
    <path clip-path="url(#p1dc23e671b)" style="fill: none"/>
    <path clip-path="url(#p1dc23e671b)" style="fill: none"/>
    <path clip-path="url(#p1dc23e671b)" style="fill: none"/>
    <path clip-path="url(#p1dc23e671b)" style="fill: none"/>
    <path clip-path="url(#p1dc23e671b)" style="fill: none"/>
    <path clip-path="url(#p1dc23e671b)" style="fill: none"/>
    <path clip-path="url(#p1dc23e671b)" style="fill: none"/>
    <path clip-path="url(#p1dc23e671b)" style="fill: none"/>
    <path clip-path="url(#p1dc23e671b)" style="fill: none"/>
    <path clip-path="url(#p1dc23e671b)" style="fill: none"/>
   </g>
  </g>
 </g>
 <defs>
  <clipPath id="p1dc23e671b">
   <rect x="0" y="0" width="576" height="816.226927"/>
  </clipPath>
 </defs>
</svg>
