<?xml version="1.0" encoding="utf-8" standalone="no"?>
<!DOCTYPE svg PUBLIC "-//W3C//DTD SVG 1.1//EN"
  "http://www.w3.org/Graphics/SVG/1.1/DTD/svg11.dtd">
<svg xmlns:xlink="http://www.w3.org/1999/xlink" width="576pt" height="819.971235pt" viewBox="0 0 576 819.971235" xmlns="http://www.w3.org/2000/svg" version="1.1">
 <metadata>
  <rdf:RDF xmlns:dc="http://purl.org/dc/elements/1.1/" xmlns:cc="http://creativecommons.org/ns#" xmlns:rdf="http://www.w3.org/1999/02/22-rdf-syntax-ns#">
   <cc:Work>
    <dc:type rdf:resource="http://purl.org/dc/dcmitype/StillImage"/>
    <dc:date>2025-07-25T22:44:51.162595</dc:date>
    <dc:format>image/svg+xml</dc:format>
    <dc:creator>
     <cc:Agent>
      <dc:title>Matplotlib v3.10.3, https://matplotlib.org/</dc:title>
     </cc:Agent>
    </dc:creator>
   </cc:Work>
  </rdf:RDF>
 </metadata>
 <defs>
  <style type="text/css">*{stroke-linejoin: round; stroke-linecap: butt}</style>
 </defs>
 <g id="figure_1">
  <g id="patch_1">
   <path d="M 0 819.971235 
L 576 819.971235 
L 576 0 
L 0 0 
L 0 819.971235 
z
" style="fill: none; opacity: 0"/>
  </g>
  <g id="axes_1">
   <g id="QuadContourSet_1">
    <path d="M 3.291429 819.971235 
L 6.582857 819.971235 
L 9.874286 819.971235 
L 13.165714 819.971235 
L 16.457143 819.971235 
L 19.748571 819.971235 
L 23.04 819.971235 
L 26.331429 819.971235 
L 29.622857 819.971235 
L 32.914286 819.971235 
L 36.205714 819.971235 
L 39.497143 819.971235 
L 42.788571 819.971235 
L 46.08 819.971235 
L 49.371429 819.971235 
L 52.662857 819.971235 
L 55.954286 819.971235 
L 59.245714 819.971235 
L 62.537143 819.971235 
L 65.828571 819.971235 
L 69.12 819.971235 
L 72.411429 819.971235 
L 75.702857 819.971235 
L 78.994286 819.971235 
L 82.285714 819.971235 
L 85.577143 819.971235 
L 88.868571 819.971235 
L 92.16 819.971235 
L 95.451429 819.971235 
L 98.742857 819.971235 
L 102.034286 819.971235 
L 105.325714 819.971235 
L 108.617143 819.971235 
L 111.908571 819.971235 
L 115.2 819.971235 
L 118.491429 819.971235 
L 121.782857 819.971235 
L 125.074286 819.971235 
L 128.365714 819.971235 
L 131.657143 819.971235 
L 134.948571 819.971235 
L 138.24 819.971235 
L 141.531429 819.971235 
L 144.822857 819.971235 
L 148.114286 819.971235 
L 151.405714 819.971235 
L 154.697143 819.971235 
L 157.988571 819.971235 
L 161.28 819.971235 
L 164.571429 819.971235 
L 167.862857 819.971235 
L 171.154286 819.971235 
L 174.445714 819.971235 
L 177.737143 819.971235 
L 181.028571 819.971235 
L 184.32 819.971235 
L 187.611429 819.971235 
L 190.902857 819.971235 
L 194.194286 819.971235 
L 197.485714 819.971235 
L 200.777143 819.971235 
L 204.068571 819.971235 
L 207.36 819.971235 
L 210.651429 819.971235 
L 213.942857 819.971235 
L 217.234286 819.971235 
L 220.525714 819.971235 
L 223.817143 819.971235 
L 227.108571 819.971235 
L 230.4 819.971235 
L 233.691429 819.971235 
L 236.982857 819.971235 
L 240.274286 819.971235 
L 243.565714 819.971235 
L 246.857143 819.971235 
L 250.148571 819.971235 
L 253.44 819.971235 
L 256.731429 819.971235 
L 260.022857 819.971235 
L 263.314286 819.971235 
L 266.605714 819.971235 
L 269.897143 819.971235 
L 273.188571 819.971235 
L 276.48 819.971235 
L 279.771429 819.971235 
L 283.062857 819.971235 
L 286.354286 819.971235 
L 289.645714 819.971235 
L 292.937143 819.971235 
L 296.228571 819.971235 
L 299.52 819.971235 
L 302.811429 819.971235 
L 306.102857 819.971235 
L 309.394286 819.971235 
L 312.685714 819.971235 
L 315.977143 819.971235 
L 319.268571 819.971235 
L 322.56 819.971235 
L 325.851429 819.971235 
L 329.142857 819.971235 
L 332.434286 819.971235 
L 335.725714 819.971235 
L 339.017143 819.971235 
L 342.308571 819.971235 
L 345.6 819.971235 
L 348.891429 819.971235 
L 352.182857 819.971235 
L 355.474286 819.971235 
L 358.765714 819.971235 
L 362.057143 819.971235 
L 365.348571 819.971235 
L 368.64 819.971235 
L 371.931429 819.971235 
L 375.222857 819.971235 
L 378.514286 819.971235 
L 381.805714 819.971235 
L 385.097143 819.971235 
L 388.388571 819.971235 
L 391.68 819.971235 
L 394.971429 819.971235 
L 398.262857 819.971235 
L 401.554286 819.971235 
L 404.845714 819.971235 
L 408.137143 819.971235 
L 411.428571 819.971235 
L 414.72 819.971235 
L 418.011429 819.971235 
L 421.302857 819.971235 
L 424.594286 819.971235 
L 427.885714 819.971235 
L 431.177143 819.971235 
L 434.468571 819.971235 
L 437.76 819.971235 
L 441.051429 819.971235 
L 444.342857 819.971235 
L 447.634286 819.971235 
L 450.925714 819.971235 
L 454.217143 819.971235 
L 457.508571 819.971235 
L 460.8 819.971235 
L 464.091429 819.971235 
L 467.382857 819.971235 
L 470.674286 819.971235 
L 473.965714 819.971235 
L 477.257143 819.971235 
L 480.548571 819.971235 
L 483.84 819.971235 
L 487.131429 819.971235 
L 490.422857 819.971235 
L 493.714286 819.971235 
L 497.005714 819.971235 
L 500.297143 819.971235 
L 503.588571 819.971235 
L 506.88 819.971235 
L 510.171429 819.971235 
L 513.462857 819.971235 
L 516.754286 819.971235 
L 520.045714 819.971235 
L 523.337143 819.971235 
L 526.628571 819.971235 
L 529.92 819.971235 
L 533.211429 819.971235 
L 536.502857 819.971235 
L 539.794286 819.971235 
L 543.085714 819.971235 
L 546.377143 819.971235 
L 549.668571 819.971235 
L 552.96 819.971235 
L 556.251429 819.971235 
L 559.542857 819.971235 
L 562.834286 819.971235 
L 566.125714 819.971235 
L 569.417143 819.971235 
L 572.708571 819.971235 
L 576 819.971235 
L 576 816.678178 
L 576 813.385121 
L 576 810.092064 
L 576 806.799007 
L 576 803.505949 
L 576 800.212892 
L 576 796.919835 
L 576 793.626778 
L 576 790.333721 
L 576 787.040664 
L 576 783.747606 
L 576 780.454549 
L 576 777.161492 
L 576 773.868435 
L 576 770.575378 
L 576 767.282321 
L 576 763.989263 
L 576 760.696206 
L 576 757.403149 
L 576 754.110092 
L 576 750.817035 
L 576 747.523977 
L 576 744.23092 
L 576 740.937863 
L 576 737.644806 
L 576 734.351749 
L 576 731.058692 
L 576 727.765634 
L 576 724.472577 
L 576 721.17952 
L 576 717.886463 
L 576 714.593406 
L 576 711.300349 
L 576 708.007291 
L 576 704.714234 
L 576 701.421177 
L 576 698.12812 
L 576 694.835063 
L 576 691.542006 
L 576 688.248948 
L 576 684.955891 
L 576 681.662834 
L 576 678.369777 
L 576 675.07672 
L 576 671.783663 
L 576 668.490605 
L 576 665.197548 
L 576 661.904491 
L 576 658.611434 
L 576 655.318377 
L 576 652.02532 
L 576 648.732262 
L 576 645.439205 
L 576 642.146148 
L 576 638.853091 
L 576 635.560034 
L 576 632.266977 
L 576 628.973919 
L 576 625.680862 
L 576 622.387805 
L 576 619.094748 
L 576 615.801691 
L 576 612.508634 
L 576 609.215576 
L 576 605.922519 
L 576 602.629462 
L 576 599.336405 
L 576 596.043348 
L 576 592.750291 
L 576 589.457233 
L 576 586.164176 
L 576 582.871119 
L 576 579.578062 
L 576 576.285005 
L 576 572.991948 
L 576 569.69889 
L 576 566.405833 
L 576 563.112776 
L 576 559.819719 
L 576 556.526662 
L 576 553.233604 
L 576 549.940547 
L 576 546.64749 
L 576 543.354433 
L 576 540.061376 
L 576 536.768319 
L 576 533.475261 
L 576 530.182204 
L 576 526.889147 
L 576 523.59609 
L 576 520.303033 
L 576 517.009976 
L 576 513.716918 
L 576 510.423861 
L 576 507.130804 
L 576 503.837747 
L 576 500.54469 
L 576 497.251633 
L 576 493.958575 
L 576 490.665518 
L 576 487.372461 
L 576 484.079404 
L 576 480.786347 
L 576 477.49329 
L 576 474.200232 
L 576 470.907175 
L 576 467.614118 
L 576 464.321061 
L 576 461.028004 
L 576 457.734947 
L 576 454.441889 
L 576 451.148832 
L 576 447.855775 
L 576 444.562718 
L 576 441.269661 
L 576 437.976604 
L 576 434.683546 
L 576 431.390489 
L 576 428.097432 
L 576 424.804375 
L 576 421.511318 
L 576 418.218261 
L 576 414.925203 
L 576 411.632146 
L 576 408.339089 
L 576 405.046032 
L 576 401.752975 
L 576 398.459918 
L 576 395.16686 
L 576 391.873803 
L 576 388.580746 
L 576 385.287689 
L 576 381.994632 
L 576 378.701574 
L 576 375.408517 
L 576 372.11546 
L 576 368.822403 
L 576 365.529346 
L 576 362.236289 
L 576 358.943231 
L 576 355.650174 
L 576 352.357117 
L 576 349.06406 
L 576 345.771003 
L 576 342.477946 
L 576 339.184888 
L 576 335.891831 
L 576 332.598774 
L 576 329.305717 
L 576 326.01266 
L 576 322.719603 
L 576 319.426545 
L 576 316.133488 
L 576 312.840431 
L 576 309.547374 
L 576 306.254317 
L 576 302.96126 
L 576 299.668202 
L 576 296.375145 
L 576 293.082088 
L 576 289.789031 
L 576 286.495974 
L 576 283.202917 
L 576 279.909859 
L 576 276.616802 
L 576 273.323745 
L 576 270.030688 
L 576 266.737631 
L 576 263.444574 
L 576 260.151516 
L 576 256.858459 
L 576 253.565402 
L 576 250.272345 
L 576 246.979288 
L 576 243.686231 
L 576 240.393173 
L 576 237.100116 
L 576 233.807059 
L 576 230.514002 
L 576 227.220945 
L 576 223.927888 
L 576 220.63483 
L 576 217.341773 
L 576 214.048716 
L 576 210.755659 
L 576 207.462602 
L 576 204.169545 
L 576 200.876487 
L 576 197.58343 
L 576 194.290373 
L 576 190.997316 
L 576 187.704259 
L 576 184.411201 
L 576 181.118144 
L 576 177.825087 
L 576 174.53203 
L 576 171.238973 
L 576 167.945916 
L 576 164.652858 
L 576 161.359801 
L 576 158.066744 
L 576 154.773687 
L 576 151.48063 
L 576 148.187573 
L 576 144.894515 
L 576 141.601458 
L 576 138.308401 
L 576 135.015344 
L 576 131.722287 
L 576 128.42923 
L 576 125.136172 
L 576 121.843115 
L 576 118.550058 
L 576 115.257001 
L 576 111.963944 
L 576 108.670887 
L 576 105.377829 
L 576 102.084772 
L 576 98.791715 
L 576 95.498658 
L 576 92.205601 
L 576 88.912544 
L 576 85.619486 
L 576 82.326429 
L 576 79.033372 
L 576 75.740315 
L 576 72.447258 
L 576 69.154201 
L 576 65.861143 
L 576 62.568086 
L 576 59.275029 
L 576 55.981972 
L 576 52.688915 
L 576 49.395858 
L 576 46.1028 
L 576 42.809743 
L 576 39.516686 
L 576 36.223629 
L 576 32.930572 
L 576 29.637515 
L 576 26.344457 
L 576 23.0514 
L 576 19.758343 
L 576 16.465286 
L 576 13.172229 
L 576 9.879172 
L 576 6.586114 
L 576 3.293057 
L 576 0 
L 572.708571 0 
L 569.417143 0 
L 566.125714 0 
L 562.834286 0 
L 559.542857 0 
L 556.251429 0 
L 552.96 0 
L 549.668571 0 
L 546.377143 0 
L 543.085714 0 
L 539.794286 0 
L 536.502857 0 
L 533.211429 0 
L 529.92 0 
L 526.628571 0 
L 523.337143 0 
L 520.045714 0 
L 516.754286 0 
L 513.462857 0 
L 510.171429 0 
L 506.88 0 
L 503.588571 0 
L 500.297143 0 
L 497.005714 0 
L 493.714286 0 
L 490.422857 0 
L 487.131429 0 
L 483.84 0 
L 480.548571 0 
L 477.257143 0 
L 473.965714 0 
L 470.674286 0 
L 467.382857 0 
L 464.091429 0 
L 460.8 0 
L 457.508571 0 
L 454.217143 0 
L 450.925714 0 
L 447.634286 0 
L 444.342857 0 
L 441.051429 0 
L 437.76 0 
L 434.468571 0 
L 431.177143 0 
L 427.885714 0 
L 424.594286 0 
L 421.302857 0 
L 418.011429 0 
L 414.72 0 
L 411.428571 0 
L 408.137143 0 
L 404.845714 0 
L 401.554286 0 
L 398.262857 0 
L 394.971429 0 
L 391.68 0 
L 388.388571 0 
L 385.097143 0 
L 381.805714 0 
L 378.514286 0 
L 375.222857 0 
L 371.931429 0 
L 368.64 0 
L 365.348571 0 
L 362.057143 0 
L 358.765714 0 
L 355.474286 0 
L 352.182857 0 
L 348.891429 0 
L 345.6 0 
L 342.308571 0 
L 339.017143 0 
L 335.725714 0 
L 332.434286 0 
L 329.142857 0 
L 325.851429 0 
L 322.56 0 
L 319.268571 0 
L 315.977143 0 
L 312.685714 0 
L 309.394286 0 
L 306.102857 0 
L 302.811429 0 
L 299.52 0 
L 296.228571 0 
L 292.937143 0 
L 289.645714 0 
L 286.354286 0 
L 283.062857 0 
L 279.771429 0 
L 276.48 0 
L 273.188571 0 
L 269.897143 0 
L 266.605714 0 
L 263.314286 0 
L 260.022857 0 
L 256.731429 0 
L 253.44 0 
L 250.148571 0 
L 246.857143 0 
L 243.565714 0 
L 240.274286 0 
L 236.982857 0 
L 233.691429 0 
L 230.4 0 
L 227.108571 0 
L 223.817143 0 
L 220.525714 0 
L 217.234286 0 
L 213.942857 0 
L 210.651429 0 
L 207.36 0 
L 204.068571 0 
L 200.777143 0 
L 197.485714 0 
L 194.194286 0 
L 190.902857 0 
L 187.611429 0 
L 184.32 0 
L 181.028571 0 
L 177.737143 0 
L 174.445714 0 
L 171.154286 0 
L 167.862857 0 
L 164.571429 0 
L 161.28 0 
L 157.988571 0 
L 154.697143 0 
L 151.405714 0 
L 148.114286 0 
L 144.822857 0 
L 141.531429 0 
L 138.24 0 
L 134.948571 0 
L 131.657143 0 
L 128.365714 0 
L 125.074286 0 
L 121.782857 0 
L 118.491429 0 
L 115.2 0 
L 111.908571 0 
L 108.617143 0 
L 105.325714 0 
L 102.034286 0 
L 98.742857 0 
L 95.451429 0 
L 92.16 0 
L 88.868571 0 
L 85.577143 0 
L 82.285714 0 
L 78.994286 0 
L 75.702857 0 
L 72.411429 0 
L 69.12 0 
L 65.828571 0 
L 62.537143 0 
L 59.245714 0 
L 55.954286 0 
L 52.662857 0 
L 49.371429 0 
L 46.08 0 
L 42.788571 0 
L 39.497143 0 
L 36.205714 0 
L 32.914286 0 
L 29.622857 0 
L 26.331429 0 
L 23.04 0 
L 19.748571 0 
L 16.457143 0 
L 13.165714 0 
L 9.874286 0 
L 6.582857 0 
L 3.291429 0 
L 0 0 
L 0 3.293057 
L 0 6.586114 
L 0 9.879172 
L 0 13.172229 
L 0 16.465286 
L 0 19.758343 
L 0 23.0514 
L 0 26.344457 
L 0 29.637515 
L 0 32.930572 
L 0 36.223629 
L 0 39.516686 
L 0 42.809743 
L 0 46.1028 
L 0 49.395858 
L 0 52.688915 
L 0 55.981972 
L 0 59.275029 
L 0 62.568086 
L 0 65.861143 
L 0 69.154201 
L 0 72.447258 
L 0 75.740315 
L 0 79.033372 
L 0 82.326429 
L 0 85.619486 
L 0 88.912544 
L 0 92.205601 
L 0 95.498658 
L 0 98.791715 
L 0 102.084772 
L 0 105.377829 
L 0 108.670887 
L 0 111.963944 
L 0 115.257001 
L 0 118.550058 
L 0 121.843115 
L 0 125.136172 
L 0 128.42923 
L 0 131.722287 
L 0 135.015344 
L 0 138.308401 
L 0 141.601458 
L 0 144.894515 
L 0 148.187573 
L 0 151.48063 
L 0 154.773687 
L 0 158.066744 
L 0 161.359801 
L 0 164.652858 
L 0 167.945916 
L 0 171.238973 
L 0 174.53203 
L 0 177.825087 
L 0 181.118144 
L 0 184.411201 
L 0 187.704259 
L 0 190.997316 
L 0 194.290373 
L 0 197.58343 
L 0 200.876487 
L 0 204.169545 
L 0 207.462602 
L 0 210.755659 
L 0 214.048716 
L 0 217.341773 
L 0 220.63483 
L 0 223.927888 
L 0 227.220945 
L 0 230.514002 
L 0 233.807059 
L 0 237.100116 
L 0 240.393173 
L 0 243.686231 
L 0 246.979288 
L 0 250.272345 
L 0 253.565402 
L 0 256.858459 
L 0 260.151516 
L 0 263.444574 
L 0 266.737631 
L 0 270.030688 
L 0 273.323745 
L 0 276.616802 
L 0 279.909859 
L 0 283.202917 
L 0 286.495974 
L 0 289.789031 
L 0 293.082088 
L 0 296.375145 
L 0 299.668202 
L 0 302.96126 
L 0 306.254317 
L 0 309.547374 
L 0 312.840431 
L 0 316.133488 
L 0 319.426545 
L 0 322.719603 
L 0 326.01266 
L 0 329.305717 
L 0 332.598774 
L 0 335.891831 
L 0 339.184888 
L 0 342.477946 
L 0 345.771003 
L 0 349.06406 
L 0 352.357117 
L 0 355.650174 
L 0 358.943231 
L 0 362.236289 
L 0 365.529346 
L 0 368.822403 
L 0 372.11546 
L 0 375.408517 
L 0 378.701574 
L 0 381.994632 
L 0 385.287689 
L 0 388.580746 
L 0 391.873803 
L 0 395.16686 
L 0 398.459918 
L 0 401.752975 
L 0 405.046032 
L 0 408.339089 
L 0 411.632146 
L 0 414.925203 
L 0 418.218261 
L 0 421.511318 
L 0 424.804375 
L 0 428.097432 
L 0 431.390489 
L 0 434.683546 
L 0 437.976604 
L 0 441.269661 
L 0 444.562718 
L 0 447.855775 
L 0 451.148832 
L 0 454.441889 
L 0 457.734947 
L 0 461.028004 
L 0 464.321061 
L 0 467.614118 
L 0 470.907175 
L 0 474.200232 
L 0 477.49329 
L 0 480.786347 
L 0 484.079404 
L 0 487.372461 
L 0 490.665518 
L 0 493.958575 
L 0 497.251633 
L 0 500.54469 
L 0 503.837747 
L 0 507.130804 
L 0 510.423861 
L 0 513.716918 
L 0 517.009976 
L 0 520.303033 
L 0 523.59609 
L 0 526.889147 
L 0 530.182204 
L 0 533.475261 
L 0 536.768319 
L 0 540.061376 
L 0 543.354433 
L 0 546.64749 
L 0 549.940547 
L 0 553.233604 
L 0 556.526662 
L 0 559.819719 
L 0 563.112776 
L 0 566.405833 
L 0 569.69889 
L 0 572.991948 
L 0 576.285005 
L 0 579.578062 
L 0 582.871119 
L 0 586.164176 
L 0 589.457233 
L 0 592.750291 
L 0 596.043348 
L 0 599.336405 
L 0 602.629462 
L 0 605.922519 
L 0 609.215576 
L 0 612.508634 
L 0 615.801691 
L 0 619.094748 
L 0 622.387805 
L 0 625.680862 
L 0 628.973919 
L 0 632.266977 
L 0 635.560034 
L 0 638.853091 
L 0 642.146148 
L 0 645.439205 
L 0 648.732262 
L 0 652.02532 
L 0 655.318377 
L 0 658.611434 
L 0 661.904491 
L 0 665.197548 
L 0 668.490605 
L 0 671.783663 
L 0 675.07672 
L 0 678.369777 
L 0 681.662834 
L 0 684.955891 
L 0 688.248948 
L 0 691.542006 
L 0 694.835063 
L 0 698.12812 
L 0 701.421177 
L 0 704.714234 
L 0 708.007291 
L 0 711.300349 
L 0 714.593406 
L 0 717.886463 
L 0 721.17952 
L 0 724.472577 
L 0 727.765634 
L 0 731.058692 
L 0 734.351749 
L 0 737.644806 
L 0 740.937863 
L 0 744.23092 
L 0 747.523977 
L 0 750.817035 
L 0 754.110092 
L 0 757.403149 
L 0 760.696206 
L 0 763.989263 
L 0 767.282321 
L 0 770.575378 
L 0 773.868435 
L 0 777.161492 
L 0 780.454549 
L 0 783.747606 
L 0 787.040664 
L 0 790.333721 
L 0 793.626778 
L 0 796.919835 
L 0 800.212892 
L 0 803.505949 
L 0 806.799007 
L 0 810.092064 
L 0 813.385121 
L 0 816.678178 
L 0 819.971235 
z
" clip-path="url(#pdf18053bc1)" style="fill: #f5f9fe; fill-opacity: 0.9"/>
    <path clip-path="url(#pdf18053bc1)" style="fill: #eff6fc; fill-opacity: 0.9"/>
    <path clip-path="url(#pdf18053bc1)" style="fill: #eaf3fb; fill-opacity: 0.9"/>
    <path clip-path="url(#pdf18053bc1)" style="fill: #e5eff9; fill-opacity: 0.9"/>
    <path clip-path="url(#pdf18053bc1)" style="fill: #dfecf7; fill-opacity: 0.9"/>
    <path clip-path="url(#pdf18053bc1)" style="fill: #dae8f6; fill-opacity: 0.9"/>
    <path clip-path="url(#pdf18053bc1)" style="fill: #d6e5f4; fill-opacity: 0.9"/>
    <path clip-path="url(#pdf18053bc1)" style="fill: #d0e2f2; fill-opacity: 0.9"/>
    <path clip-path="url(#pdf18053bc1)" style="fill: #cbdef1; fill-opacity: 0.9"/>
    <path clip-path="url(#pdf18053bc1)" style="fill: #c6dbef; fill-opacity: 0.9"/>
    <path clip-path="url(#pdf18053bc1)" style="fill: #bed8ec; fill-opacity: 0.9"/>
    <path clip-path="url(#pdf18053bc1)" style="fill: #b5d4e9; fill-opacity: 0.9"/>
    <path clip-path="url(#pdf18053bc1)" style="fill: #add0e6; fill-opacity: 0.9"/>
    <path clip-path="url(#pdf18053bc1)" style="fill: #a5cde3; fill-opacity: 0.9"/>
    <path clip-path="url(#pdf18053bc1)" style="fill: #9cc9e1; fill-opacity: 0.9"/>
    <path clip-path="url(#pdf18053bc1)" style="fill: #91c3de; fill-opacity: 0.9"/>
    <path clip-path="url(#pdf18053bc1)" style="fill: #85bcdc; fill-opacity: 0.9"/>
    <path clip-path="url(#pdf18053bc1)" style="fill: #7cb7da; fill-opacity: 0.9"/>
    <path clip-path="url(#pdf18053bc1)" style="fill: #71b1d7; fill-opacity: 0.9"/>
    <path clip-path="url(#pdf18053bc1)" style="fill: #66abd4; fill-opacity: 0.9"/>
    <path clip-path="url(#pdf18053bc1)" style="fill: #5da5d1; fill-opacity: 0.9"/>
    <path clip-path="url(#pdf18053bc1)" style="fill: #56a0ce; fill-opacity: 0.9"/>
    <path clip-path="url(#pdf18053bc1)" style="fill: #4d99ca; fill-opacity: 0.9"/>
    <path clip-path="url(#pdf18053bc1)" style="fill: #4493c7; fill-opacity: 0.9"/>
    <path clip-path="url(#pdf18053bc1)" style="fill: #3c8cc3; fill-opacity: 0.9"/>
    <path clip-path="url(#pdf18053bc1)" style="fill: #3686c0; fill-opacity: 0.9"/>
    <path clip-path="url(#pdf18053bc1)" style="fill: #2f7fbc; fill-opacity: 0.9"/>
    <path clip-path="url(#pdf18053bc1)" style="fill: #2777b8; fill-opacity: 0.9"/>
    <path clip-path="url(#pdf18053bc1)" style="fill: #2070b4; fill-opacity: 0.9"/>
    <path clip-path="url(#pdf18053bc1)" style="fill: #1c6ab0; fill-opacity: 0.9"/>
    <path clip-path="url(#pdf18053bc1)" style="fill: #1663aa; fill-opacity: 0.9"/>
    <path clip-path="url(#pdf18053bc1)" style="fill: #115ca5; fill-opacity: 0.9"/>
    <path clip-path="url(#pdf18053bc1)" style="fill: #0c56a0; fill-opacity: 0.9"/>
    <path clip-path="url(#pdf18053bc1)" style="fill: #084f99; fill-opacity: 0.9"/>
    <path clip-path="url(#pdf18053bc1)" style="fill: #08488e; fill-opacity: 0.9"/>
    <path clip-path="url(#pdf18053bc1)" style="fill: #084184; fill-opacity: 0.9"/>
    <path clip-path="url(#pdf18053bc1)" style="fill: #083a7a; fill-opacity: 0.9"/>
    <path clip-path="url(#pdf18053bc1)" style="fill: #083370; fill-opacity: 0.9"/>
    <path clip-path="url(#pdf18053bc1)" style="fill: #08306b; fill-opacity: 0.9"/>
   </g>
   <g id="QuadContourSet_2">
    <path clip-path="url(#pdf18053bc1)" style="fill: none"/>
    <path clip-path="url(#pdf18053bc1)" style="fill: none"/>
    <path clip-path="url(#pdf18053bc1)" style="fill: none"/>
    <path clip-path="url(#pdf18053bc1)" style="fill: none"/>
    <path clip-path="url(#pdf18053bc1)" style="fill: none"/>
    <path clip-path="url(#pdf18053bc1)" style="fill: none"/>
    <path clip-path="url(#pdf18053bc1)" style="fill: none"/>
    <path clip-path="url(#pdf18053bc1)" style="fill: none"/>
    <path clip-path="url(#pdf18053bc1)" style="fill: none"/>
    <path clip-path="url(#pdf18053bc1)" style="fill: none"/>
    <path clip-path="url(#pdf18053bc1)" style="fill: none"/>
    <path clip-path="url(#pdf18053bc1)" style="fill: none"/>
    <path clip-path="url(#pdf18053bc1)" style="fill: none"/>
    <path clip-path="url(#pdf18053bc1)" style="fill: none"/>
    <path clip-path="url(#pdf18053bc1)" style="fill: none"/>
    <path clip-path="url(#pdf18053bc1)" style="fill: none"/>
    <path clip-path="url(#pdf18053bc1)" style="fill: none"/>
    <path clip-path="url(#pdf18053bc1)" style="fill: none"/>
    <path clip-path="url(#pdf18053bc1)" style="fill: none"/>
    <path clip-path="url(#pdf18053bc1)" style="fill: none"/>
    <path clip-path="url(#pdf18053bc1)" style="fill: none"/>
    <path clip-path="url(#pdf18053bc1)" style="fill: none"/>
    <path clip-path="url(#pdf18053bc1)" style="fill: none"/>
    <path clip-path="url(#pdf18053bc1)" style="fill: none"/>
    <path clip-path="url(#pdf18053bc1)" style="fill: none"/>
    <path clip-path="url(#pdf18053bc1)" style="fill: none"/>
    <path clip-path="url(#pdf18053bc1)" style="fill: none"/>
    <path clip-path="url(#pdf18053bc1)" style="fill: none"/>
    <path clip-path="url(#pdf18053bc1)" style="fill: none"/>
    <path clip-path="url(#pdf18053bc1)" style="fill: none"/>
    <path clip-path="url(#pdf18053bc1)" style="fill: none"/>
    <path clip-path="url(#pdf18053bc1)" style="fill: none"/>
    <path clip-path="url(#pdf18053bc1)" style="fill: none"/>
    <path clip-path="url(#pdf18053bc1)" style="fill: none"/>
    <path clip-path="url(#pdf18053bc1)" style="fill: none"/>
    <path clip-path="url(#pdf18053bc1)" style="fill: none"/>
    <path clip-path="url(#pdf18053bc1)" style="fill: none"/>
    <path clip-path="url(#pdf18053bc1)" style="fill: none"/>
    <path clip-path="url(#pdf18053bc1)" style="fill: none"/>
   </g>
  </g>
 </g>
 <defs>
  <clipPath id="pdf18053bc1">
   <rect x="0" y="0" width="576" height="819.971235"/>
  </clipPath>
 </defs>
</svg>
