<?xml version="1.0" encoding="utf-8" standalone="no"?>
<!DOCTYPE svg PUBLIC "-//W3C//DTD SVG 1.1//EN"
  "http://www.w3.org/Graphics/SVG/1.1/DTD/svg11.dtd">
<svg xmlns:xlink="http://www.w3.org/1999/xlink" width="576pt" height="815.655401pt" viewBox="0 0 576 815.655401" xmlns="http://www.w3.org/2000/svg" version="1.1">
 <metadata>
  <rdf:RDF xmlns:dc="http://purl.org/dc/elements/1.1/" xmlns:cc="http://creativecommons.org/ns#" xmlns:rdf="http://www.w3.org/1999/02/22-rdf-syntax-ns#">
   <cc:Work>
    <dc:type rdf:resource="http://purl.org/dc/dcmitype/StillImage"/>
    <dc:date>2025-07-25T22:44:54.240564</dc:date>
    <dc:format>image/svg+xml</dc:format>
    <dc:creator>
     <cc:Agent>
      <dc:title>Matplotlib v3.10.3, https://matplotlib.org/</dc:title>
     </cc:Agent>
    </dc:creator>
   </cc:Work>
  </rdf:RDF>
 </metadata>
 <defs>
  <style type="text/css">*{stroke-linejoin: round; stroke-linecap: butt}</style>
 </defs>
 <g id="figure_1">
  <g id="patch_1">
   <path d="M 0 815.655401 
L 576 815.655401 
L 576 0 
L 0 0 
L 0 815.655401 
z
" style="fill: none; opacity: 0"/>
  </g>
  <g id="axes_1">
   <g id="QuadContourSet_1">
    <path d="M 16.363636 160.510501 
L 19.636364 160.510501 
L 22.909091 157.234776 
L 22.909091 157.234776 
L 26.181818 153.959052 
L 23.442337 150.683327 
L 22.909091 149.971904 
L 22.331191 150.683327 
L 19.636364 153.380622 
L 16.363636 152.93 
L 15.612523 153.959052 
L 15.879748 157.234776 
z
M 0.401955 153.959052 
L -0 150.900678 
L -0 153.959052 
L -0 156.80558 
z
M 3.272727 151.144957 
L 3.730125 150.683327 
L 3.928337 147.407603 
L 3.272727 145.798619 
L 1.11077 147.407603 
L 0.187166 150.683327 
z
M 26.181818 147.941337 
L 26.715065 147.407603 
L 26.181818 146.483771 
L 25.471046 147.407603 
z
M 6.545455 145.114549 
L 8.354245 144.131878 
L 8.461319 140.856154 
L 9.818182 139.997013 
L 11.526914 140.856154 
L 13.090909 141.803589 
L 14.481021 140.856154 
L 16.363636 139.54735 
L 19.636364 140.344724 
L 20.056977 140.856154 
L 22.750847 144.131878 
L 22.909091 144.149954 
L 22.934601 144.131878 
L 26.181818 141.61995 
L 27.064674 140.856154 
L 29.454545 137.596971 
L 29.463364 137.580429 
L 30.260615 134.304705 
L 32.727273 131.036761 
L 32.73467 131.02898 
L 34.012609 127.753256 
L 32.727273 124.498907 
L 29.454545 124.871025 
L 28.538861 124.477531 
L 26.698262 121.201807 
L 27.903792 117.926082 
L 27.69911 114.650358 
L 28.037954 111.374633 
L 26.181818 110.012516 
L 22.909091 110.720875 
L 22.774853 111.374633 
L 19.636364 114.198963 
L 19.308359 114.650358 
L 18.039506 117.926082 
L 16.363636 119.919136 
L 15.574794 121.201807 
L 13.876622 124.477531 
L 13.090909 125.67643 
L 11.917601 127.753256 
L 10.624073 131.02898 
L 9.818182 132.386002 
L 8.523679 134.304705 
L 7.7201 137.580429 
L 6.545455 139.307571 
L 5.017713 140.856154 
L 4.507062 144.131878 
z
M 15.911854 131.02898 
L 16.363636 129.777008 
L 17.140872 131.02898 
L 16.363636 131.973317 
z
M 19.100448 127.753256 
L 19.636364 127.463096 
L 19.719908 127.753256 
L 19.636364 128.047213 
z
M 49.090909 137.580429 
L 52.363636 134.304705 
L 52.363636 134.304705 
L 55.636364 131.02898 
L 55.636364 131.02898 
L 56.296937 127.753256 
L 56.296937 124.477531 
L 55.636364 123.146048 
L 54.590285 124.477531 
L 52.363636 126.706219 
L 51.501695 127.753256 
L 49.090909 130.190162 
L 48.379353 131.02898 
L 48.432971 134.304705 
z
M 36 124.47642 
L 38.90098 121.201807 
L 39.272727 117.992312 
L 42.545455 120.668346 
L 45.573907 117.926082 
L 45.818182 117.704892 
L 48.150503 117.926082 
L 49.090909 118.254219 
L 52.068934 121.201807 
L 52.363636 121.242578 
L 52.422678 121.201807 
L 55.636364 118.909647 
L 57.082059 117.926082 
L 58.909091 116.486843 
L 59.959516 114.650358 
L 60.969703 111.374633 
L 62.181818 110.103543 
L 63.135765 108.098909 
L 64.100585 104.823184 
L 65.454545 103.2262 
L 66.564736 101.54746 
L 67.255722 98.271735 
L 68.727273 96.348856 
L 70.415665 94.996011 
L 71.398819 91.720286 
L 72 90.577818 
L 75.272727 89.618884 
L 75.787541 88.444562 
L 78.545455 85.338576 
L 78.649267 85.168837 
L 80.003843 81.893113 
L 81.818182 78.708212 
L 81.858617 78.617388 
L 83.088437 75.341664 
L 84.387551 72.065939 
L 85.090909 71.358026 
L 86.208319 68.790215 
L 87.141923 65.51449 
L 88.363636 64.061533 
L 89.166235 62.238766 
L 90.045445 58.963041 
L 91.636364 56.723903 
L 92.094591 55.687317 
L 93.047185 52.411592 
L 94.909091 49.35663 
L 95.00699 49.135868 
L 96.1016 45.860143 
L 97.460413 42.584419 
L 98.181818 41.835197 
L 99.174195 39.308694 
L 100.079202 36.03297 
L 101.454545 34.596679 
L 102.27837 32.757245 
L 102.909316 29.481521 
L 104.727273 27.219733 
L 105.184409 26.205796 
L 105.874151 22.930072 
L 108 19.857631 
L 108.090828 19.654347 
L 108.902442 16.378623 
L 110.254601 13.102898 
L 111.272727 12.040996 
L 111.993307 9.827174 
L 112.775841 6.551449 
L 114.545455 4.725974 
L 115.365691 3.275725 
L 115.611283 0 
L 114.545455 0 
L 111.272727 0 
L 108 0 
L 105.836006 0 
L 104.727273 1.334231 
L 103.2147 0 
L 101.454545 0 
L 98.181818 0 
L 97.280236 0 
L 95.947909 3.275725 
L 94.909091 5.017246 
L 93.952648 6.551449 
L 92.373476 9.827174 
L 91.636364 11.212525 
L 90.505662 13.102898 
L 88.92094 16.378623 
L 88.363636 17.411825 
L 87.080964 19.654347 
L 85.502231 22.930072 
L 85.090909 23.673908 
L 83.675591 26.205796 
L 82.087414 29.481521 
L 81.818182 29.97498 
L 80.320504 32.757245 
L 78.676336 36.03297 
L 78.545455 36.283854 
L 77.008418 39.308694 
L 75.427603 42.584419 
L 75.272727 42.893881 
L 73.763398 45.860143 
L 72.20865 49.135868 
L 72 49.55508 
L 70.518663 52.411592 
L 69.01292 55.687317 
L 68.727273 56.257787 
L 67.282104 58.963041 
L 65.815051 62.238766 
L 65.454545 62.968874 
L 64.06658 65.51449 
L 62.615712 68.790215 
L 62.181818 69.688666 
L 60.604889 72.065939 
L 59.465699 75.341664 
L 58.909091 76.500752 
L 56.678114 78.617388 
L 55.651644 81.893113 
L 55.636364 81.937227 
L 52.363636 82.065351 
L 51.544458 85.168837 
L 49.090909 87.380543 
L 48.427784 88.444562 
L 47.315158 91.720286 
L 45.818182 94.020509 
L 45.184107 94.996011 
L 43.722825 98.271735 
L 42.545455 100.660476 
L 41.926523 101.54746 
L 40.728261 104.823184 
L 39.448172 108.098909 
L 39.272727 108.402576 
L 37.52217 111.374633 
L 36.821127 114.650358 
L 36 116.450741 
L 34.274486 117.926082 
L 33.201436 121.201807 
z
M 44.016355 111.374633 
L 42.849153 108.098909 
L 43.530164 104.823184 
L 45.234012 101.54746 
L 45.818182 99.670543 
L 47.824632 98.271735 
L 49.090909 97.359538 
L 50.588499 94.996011 
L 52.363636 93.513993 
L 53.490958 91.720286 
L 54.500376 88.444562 
L 55.636364 87.185981 
L 57.232606 85.168837 
L 57.98949 81.893113 
L 58.909091 80.370811 
L 60.416823 78.617388 
L 61.324148 75.341664 
L 62.181818 73.555641 
L 63.174269 72.065939 
L 64.482278 68.790215 
L 65.454545 66.796474 
L 66.367394 65.51449 
L 67.705002 62.238766 
L 68.727273 60.114577 
L 69.575484 58.963041 
L 70.92948 55.687317 
L 72 53.475363 
L 72.814719 52.411592 
L 74.152581 49.135868 
L 75.272727 46.853961 
L 76.067404 45.860143 
L 77.40949 42.584419 
L 78.545455 40.256293 
L 79.318341 39.308694 
L 80.734484 36.03297 
L 81.818182 33.873421 
L 82.76327 32.757245 
L 84.173002 29.481521 
L 85.090909 27.627863 
L 86.290083 26.205796 
L 87.616001 22.930072 
L 88.363636 21.461947 
L 89.891361 19.654347 
L 91.063664 16.378623 
L 91.636364 15.286222 
L 93.501538 13.102898 
L 94.532779 9.827174 
L 94.909091 9.119921 
L 97.322459 6.551449 
L 98.181818 4.30938 
L 99.546814 3.275725 
L 101.454545 1.838719 
L 102.713275 3.275725 
L 102.856379 6.551449 
L 101.454545 9.615439 
L 101.304375 9.827174 
L 99.956909 13.102898 
L 98.597614 16.378623 
L 98.181818 16.994124 
L 97.004981 19.654347 
L 95.701282 22.930072 
L 94.909091 24.168361 
L 94.036538 26.205796 
L 92.831856 29.481521 
L 91.636364 31.414205 
L 91.049269 32.757245 
L 89.920985 36.03297 
L 88.363636 38.697132 
L 88.091217 39.308694 
L 86.948049 42.584419 
L 85.217019 45.860143 
L 85.090909 45.988178 
L 83.851145 49.135868 
L 82.570402 52.411592 
L 81.818182 53.177397 
L 80.729597 55.687317 
L 79.749658 58.963041 
L 78.545455 60.27263 
L 77.665325 62.238766 
L 76.838809 65.51449 
L 75.272727 67.445877 
L 74.672558 68.790215 
L 73.866441 72.065939 
L 72 74.645234 
L 71.683395 75.341664 
L 70.757268 78.617388 
L 68.727273 81.523535 
L 68.543252 81.893113 
L 67.469807 85.168837 
L 65.454545 88.276431 
L 65.326272 88.444562 
L 64.178421 91.720286 
L 62.232163 94.996011 
L 62.181818 95.042966 
L 60.128862 98.271735 
L 59.211208 101.54746 
L 58.909091 101.832116 
L 56.132415 101.54746 
L 56.027752 98.271735 
L 55.636364 97.855424 
L 55.490253 98.271735 
L 55.550012 101.54746 
L 52.363636 103.651951 
L 51.810439 104.823184 
L 50.603622 108.098909 
L 49.090909 109.641364 
L 47.258546 111.374633 
L 45.818182 112.678883 
z
M 0.230503 108.098909 
L -0 105.431401 
L -0 108.098909 
L -0 108.904304 
z
M 0.560217 42.584419 
L 3.272727 39.432724 
L 3.365674 39.308694 
L 4.81206 36.03297 
L 6.545455 33.306428 
L 6.928497 32.757245 
L 8.588758 29.481521 
L 9.818182 27.169977 
L 10.505387 26.205796 
L 11.907584 22.930072 
L 13.090909 20.493335 
L 14.207324 19.654347 
L 16.048293 16.378623 
L 16.363636 15.059945 
L 19.636364 14.49518 
L 20.002272 13.102898 
L 21.895396 9.827174 
L 22.909091 9.070441 
L 24.035647 6.551449 
L 25.384709 3.275725 
L 26.181818 2.171496 
L 27.299676 0 
L 26.181818 0 
L 22.909091 0 
L 19.636364 0 
L 16.363636 0 
L 13.090909 0 
L 11.718032 0 
L 9.835643 3.275725 
L 9.818182 3.361308 
L 6.545455 4.664871 
L 5.886888 6.551449 
L 3.629946 9.827174 
L 3.272727 10.081468 
L 1.713093 13.102898 
L -0 16.201839 
L -0 16.378623 
L -0 19.654347 
L -0 22.930072 
L -0 26.205796 
L -0 29.481521 
L -0 32.757245 
L -0 36.03297 
L -0 39.308694 
L -0 42.584419 
L -0 44.533686 
z
" clip-path="url(#p15593cd192)" style="fill: #f5f9fe; fill-opacity: 0.9"/>
    <path d="M 16.363636 131.973317 
L 17.140872 131.02898 
L 16.363636 129.777008 
L 15.911854 131.02898 
z
M 19.636364 128.047213 
L 19.719908 127.753256 
L 19.636364 127.463096 
L 19.100448 127.753256 
z
M 45.818182 112.678883 
L 47.258546 111.374633 
L 49.090909 109.641364 
L 50.603622 108.098909 
L 51.810439 104.823184 
L 52.363636 103.651951 
L 55.550012 101.54746 
L 55.490253 98.271735 
L 55.636364 97.855424 
L 56.027752 98.271735 
L 56.132415 101.54746 
L 58.909091 101.832116 
L 59.211208 101.54746 
L 60.128862 98.271735 
L 62.181818 95.042966 
L 62.232163 94.996011 
L 64.178421 91.720286 
L 65.326272 88.444562 
L 65.454545 88.276431 
L 67.469807 85.168837 
L 68.543252 81.893113 
L 68.727273 81.523535 
L 70.757268 78.617388 
L 71.683395 75.341664 
L 72 74.645234 
L 73.866441 72.065939 
L 74.672558 68.790215 
L 75.272727 67.445877 
L 76.838809 65.51449 
L 77.665325 62.238766 
L 78.545455 60.27263 
L 79.749658 58.963041 
L 80.729597 55.687317 
L 81.818182 53.177397 
L 82.570402 52.411592 
L 83.851145 49.135868 
L 85.090909 45.988178 
L 85.217019 45.860143 
L 86.948049 42.584419 
L 88.091217 39.308694 
L 88.363636 38.697132 
L 89.920985 36.03297 
L 91.049269 32.757245 
L 91.636364 31.414205 
L 92.831856 29.481521 
L 94.036538 26.205796 
L 94.909091 24.168361 
L 95.701282 22.930072 
L 97.004981 19.654347 
L 98.181818 16.994124 
L 98.597614 16.378623 
L 99.956909 13.102898 
L 101.304375 9.827174 
L 101.454545 9.615439 
L 102.856379 6.551449 
L 102.713275 3.275725 
L 101.454545 1.838719 
L 99.546814 3.275725 
L 98.181818 4.30938 
L 97.322459 6.551449 
L 94.909091 9.119921 
L 94.532779 9.827174 
L 93.501538 13.102898 
L 91.636364 15.286222 
L 91.063664 16.378623 
L 89.891361 19.654347 
L 88.363636 21.461947 
L 87.616001 22.930072 
L 86.290083 26.205796 
L 85.090909 27.627863 
L 84.173002 29.481521 
L 82.76327 32.757245 
L 81.818182 33.873421 
L 80.734484 36.03297 
L 79.318341 39.308694 
L 78.545455 40.256293 
L 77.40949 42.584419 
L 76.067404 45.860143 
L 75.272727 46.853961 
L 74.152581 49.135868 
L 72.814719 52.411592 
L 72 53.475363 
L 70.92948 55.687317 
L 69.575484 58.963041 
L 68.727273 60.114577 
L 67.705002 62.238766 
L 66.367394 65.51449 
L 65.454545 66.796474 
L 64.482278 68.790215 
L 63.174269 72.065939 
L 62.181818 73.555641 
L 61.324148 75.341664 
L 60.416823 78.617388 
L 58.909091 80.370811 
L 57.98949 81.893113 
L 57.232606 85.168837 
L 55.636364 87.185981 
L 54.500376 88.444562 
L 53.490958 91.720286 
L 52.363636 93.513993 
L 50.588499 94.996011 
L 49.090909 97.359538 
L 47.824632 98.271735 
L 45.818182 99.670543 
L 45.234012 101.54746 
L 43.530164 104.823184 
L 42.849153 108.098909 
L 44.016355 111.374633 
z
M 65.243532 78.617388 
L 65.454545 77.184095 
L 65.642153 78.617388 
L 65.454545 81.740988 
z
M 66.398884 72.065939 
L 68.282194 68.790215 
L 68.727273 67.611362 
L 69.849556 65.51449 
L 71.691949 62.238766 
L 72 61.493068 
L 72.606498 62.238766 
L 72.869022 65.51449 
L 72 67.846034 
L 70.102239 68.790215 
L 69.77482 72.065939 
L 68.727273 75.285052 
z
M 73.355107 58.963041 
L 75.132228 55.687317 
L 75.272727 55.377505 
L 75.466092 55.687317 
L 75.996674 58.963041 
L 75.272727 60.673045 
z
M 76.925034 52.411592 
L 78.545455 49.274173 
L 79.107867 52.411592 
L 78.545455 53.626518 
z
M 80.93567 45.860143 
L 81.818182 43.602291 
L 82.064722 45.860143 
L 81.818182 46.394842 
z
M 104.727273 1.334231 
L 105.836006 0 
L 104.727273 0 
L 103.2147 0 
z
" clip-path="url(#p15593cd192)" style="fill: #eff6fc; fill-opacity: 0.9"/>
    <path d="M 65.454545 81.740988 
L 65.642153 78.617388 
L 65.454545 77.184095 
L 65.243532 78.617388 
z
M 68.727273 75.285052 
L 69.77482 72.065939 
L 70.102239 68.790215 
L 72 67.846034 
L 72.869022 65.51449 
L 72.606498 62.238766 
L 72 61.493068 
L 71.691949 62.238766 
L 69.849556 65.51449 
L 68.727273 67.611362 
L 68.282194 68.790215 
L 66.398884 72.065939 
z
M 75.272727 60.673045 
L 75.996674 58.963041 
L 75.466092 55.687317 
L 75.272727 55.377505 
L 75.132228 55.687317 
L 73.355107 58.963041 
z
M 78.545455 53.626518 
L 79.107867 52.411592 
L 78.545455 49.274173 
L 76.925034 52.411592 
z
M 81.818182 46.394842 
L 82.064722 45.860143 
L 81.818182 43.602291 
L 80.93567 45.860143 
z
" clip-path="url(#p15593cd192)" style="fill: #eaf3fb; fill-opacity: 0.9"/>
    <path clip-path="url(#p15593cd192)" style="fill: #e5eff9; fill-opacity: 0.9"/>
    <path clip-path="url(#p15593cd192)" style="fill: #dfecf7; fill-opacity: 0.9"/>
    <path clip-path="url(#p15593cd192)" style="fill: #dae8f6; fill-opacity: 0.9"/>
    <path clip-path="url(#p15593cd192)" style="fill: #d6e5f4; fill-opacity: 0.9"/>
    <path clip-path="url(#p15593cd192)" style="fill: #d0e2f2; fill-opacity: 0.9"/>
    <path clip-path="url(#p15593cd192)" style="fill: #cbdef1; fill-opacity: 0.9"/>
    <path clip-path="url(#p15593cd192)" style="fill: #c6dbef; fill-opacity: 0.9"/>
    <path clip-path="url(#p15593cd192)" style="fill: #bed8ec; fill-opacity: 0.9"/>
    <path clip-path="url(#p15593cd192)" style="fill: #b5d4e9; fill-opacity: 0.9"/>
    <path clip-path="url(#p15593cd192)" style="fill: #add0e6; fill-opacity: 0.9"/>
    <path clip-path="url(#p15593cd192)" style="fill: #a5cde3; fill-opacity: 0.9"/>
    <path clip-path="url(#p15593cd192)" style="fill: #9cc9e1; fill-opacity: 0.9"/>
    <path clip-path="url(#p15593cd192)" style="fill: #91c3de; fill-opacity: 0.9"/>
    <path clip-path="url(#p15593cd192)" style="fill: #85bcdc; fill-opacity: 0.9"/>
    <path clip-path="url(#p15593cd192)" style="fill: #7cb7da; fill-opacity: 0.9"/>
    <path clip-path="url(#p15593cd192)" style="fill: #71b1d7; fill-opacity: 0.9"/>
    <path clip-path="url(#p15593cd192)" style="fill: #66abd4; fill-opacity: 0.9"/>
    <path clip-path="url(#p15593cd192)" style="fill: #5da5d1; fill-opacity: 0.9"/>
    <path clip-path="url(#p15593cd192)" style="fill: #56a0ce; fill-opacity: 0.9"/>
    <path clip-path="url(#p15593cd192)" style="fill: #4d99ca; fill-opacity: 0.9"/>
    <path clip-path="url(#p15593cd192)" style="fill: #4493c7; fill-opacity: 0.9"/>
    <path clip-path="url(#p15593cd192)" style="fill: #3c8cc3; fill-opacity: 0.9"/>
    <path clip-path="url(#p15593cd192)" style="fill: #3686c0; fill-opacity: 0.9"/>
    <path clip-path="url(#p15593cd192)" style="fill: #2f7fbc; fill-opacity: 0.9"/>
    <path clip-path="url(#p15593cd192)" style="fill: #2777b8; fill-opacity: 0.9"/>
    <path clip-path="url(#p15593cd192)" style="fill: #2070b4; fill-opacity: 0.9"/>
    <path clip-path="url(#p15593cd192)" style="fill: #1c6ab0; fill-opacity: 0.9"/>
    <path clip-path="url(#p15593cd192)" style="fill: #1663aa; fill-opacity: 0.9"/>
    <path clip-path="url(#p15593cd192)" style="fill: #115ca5; fill-opacity: 0.9"/>
    <path clip-path="url(#p15593cd192)" style="fill: #0c56a0; fill-opacity: 0.9"/>
    <path clip-path="url(#p15593cd192)" style="fill: #084f99; fill-opacity: 0.9"/>
    <path clip-path="url(#p15593cd192)" style="fill: #08488e; fill-opacity: 0.9"/>
    <path clip-path="url(#p15593cd192)" style="fill: #084184; fill-opacity: 0.9"/>
    <path clip-path="url(#p15593cd192)" style="fill: #083a7a; fill-opacity: 0.9"/>
    <path clip-path="url(#p15593cd192)" style="fill: #083370; fill-opacity: 0.9"/>
    <path clip-path="url(#p15593cd192)" style="fill: #08306b; fill-opacity: 0.9"/>
   </g>
   <g id="QuadContourSet_2">
    <path d="M -0 156.80558 
L 0.401955 153.959052 
L -0 150.900678 
M -0 108.904304 
L 0.230503 108.098909 
L -0 105.431401 
M -0 44.533686 
L 0.560217 42.584419 
L 1.57651 41.403577 
M 11.066597 24.894731 
L 11.907584 22.930072 
L 13.090909 20.493335 
L 14.207324 19.654347 
L 16.048293 16.378623 
L 16.363636 15.059945 
L 19.636364 14.49518 
L 20.002272 13.102898 
L 21.895396 9.827174 
L 22.909091 9.070441 
L 24.035647 6.551449 
L 25.384709 3.275725 
L 26.181818 2.171496 
L 27.299676 0 
M 0.866349 14.634637 
L -0 16.201839 
M 97.280236 0 
L 95.947909 3.275725 
L 94.909091 5.017246 
L 93.952648 6.551449 
L 92.373476 9.827174 
L 91.636364 11.212525 
L 90.505662 13.102898 
L 88.92094 16.378623 
L 88.363636 17.411825 
L 87.080964 19.654347 
L 85.502231 22.930072 
L 85.090909 23.673908 
L 83.675591 26.205796 
L 82.087414 29.481521 
L 81.818182 29.97498 
L 80.320504 32.757245 
L 78.676336 36.03297 
L 78.545455 36.283854 
L 77.008418 39.308694 
L 75.427603 42.584419 
L 75.272727 42.893881 
L 73.763398 45.860143 
L 73.186826 47.074933 
M 64.753976 64.253762 
L 64.06658 65.51449 
L 62.615712 68.790215 
L 62.181818 69.688666 
L 60.604889 72.065939 
L 59.465699 75.341664 
L 58.909091 76.500752 
L 56.678114 78.617388 
L 55.651644 81.893113 
L 55.636364 81.937227 
L 52.363636 82.065351 
L 51.544458 85.168837 
L 49.090909 87.380543 
L 48.427784 88.444562 
L 47.315158 91.720286 
L 45.818182 94.020509 
L 45.184107 94.996011 
L 43.722825 98.271735 
L 42.545455 100.660476 
L 41.926523 101.54746 
L 40.728261 104.823184 
L 39.448172 108.098909 
L 39.272727 108.402576 
L 37.52217 111.374633 
L 36.821127 114.650358 
L 36 116.450741 
L 34.274486 117.926082 
L 33.201436 121.201807 
L 36 124.47642 
L 38.90098 121.201807 
L 39.272727 117.992312 
L 42.545455 120.668346 
L 45.573907 117.926082 
L 45.818182 117.704892 
L 48.150503 117.926082 
L 49.090909 118.254219 
L 52.068934 121.201807 
L 52.363636 121.242578 
L 52.422678 121.201807 
L 55.636364 118.909647 
L 57.082059 117.926082 
L 58.909091 116.486843 
L 59.959516 114.650358 
L 60.969703 111.374633 
L 62.181818 110.103543 
L 63.135765 108.098909 
L 64.100585 104.823184 
L 65.454545 103.2262 
L 66.564736 101.54746 
L 67.255722 98.271735 
L 68.727273 96.348856 
L 70.415665 94.996011 
L 71.398819 91.720286 
L 72 90.577818 
L 75.272727 89.618884 
L 75.787541 88.444562 
L 78.545455 85.338576 
L 78.649267 85.168837 
L 80.003843 81.893113 
L 81.818182 78.708212 
L 81.858617 78.617388 
L 83.088437 75.341664 
L 84.387551 72.065939 
L 85.090909 71.358026 
L 86.208319 68.790215 
L 87.141923 65.51449 
L 88.363636 64.061533 
L 89.166235 62.238766 
L 90.045445 58.963041 
L 91.636364 56.723903 
L 92.094591 55.687317 
L 93.047185 52.411592 
L 94.909091 49.35663 
L 95.00699 49.135868 
L 96.1016 45.860143 
L 97.460413 42.584419 
L 98.181818 41.835197 
L 99.174195 39.308694 
L 100.079202 36.03297 
L 101.454545 34.596679 
L 102.27837 32.757245 
L 102.909316 29.481521 
L 104.727273 27.219733 
L 105.184409 26.205796 
L 105.874151 22.930072 
L 108 19.857631 
L 108.090828 19.654347 
L 108.902442 16.378623 
L 110.254601 13.102898 
L 111.272727 12.040996 
L 111.993307 9.827174 
L 112.775841 6.551449 
L 114.545455 4.725974 
L 115.365691 3.275725 
L 115.611283 0 
M 16.363636 160.510501 
L 19.636364 160.510501 
L 22.909091 157.234776 
L 22.909091 157.234776 
L 26.181818 153.959052 
L 23.442337 150.683327 
L 22.909091 149.971904 
L 22.331191 150.683327 
L 19.636364 153.380622 
L 16.363636 152.93 
L 15.612523 153.959052 
L 15.879748 157.234776 
L 16.363636 160.510501 
z
M 3.272727 151.144957 
L 3.730125 150.683327 
L 3.928337 147.407603 
L 3.272727 145.798619 
L 1.11077 147.407603 
L 0.187166 150.683327 
L 3.272727 151.144957 
z
M 26.181818 147.941337 
L 26.715065 147.407603 
L 26.181818 146.483771 
L 25.471046 147.407603 
L 26.181818 147.941337 
z
M 33.489355 129.094505 
L 34.012609 127.753256 
L 32.727273 124.498907 
L 29.454545 124.871025 
L 28.538861 124.477531 
L 26.698262 121.201807 
L 27.903792 117.926082 
L 27.69911 114.650358 
L 28.037954 111.374633 
L 26.181818 110.012516 
L 22.909091 110.720875 
L 22.774853 111.374633 
L 19.636364 114.198963 
L 19.308359 114.650358 
L 18.039506 117.926082 
L 16.363636 119.919136 
L 15.574794 121.201807 
L 13.876622 124.477531 
L 13.090909 125.67643 
L 11.917601 127.753256 
L 10.624073 131.02898 
L 9.818182 132.386002 
L 8.523679 134.304705 
L 7.7201 137.580429 
L 6.545455 139.307571 
L 5.017713 140.856154 
L 4.507062 144.131878 
L 6.545455 145.114549 
L 8.354245 144.131878 
L 8.461319 140.856154 
L 9.818182 139.997013 
L 11.526914 140.856154 
L 13.090909 141.803589 
L 14.481021 140.856154 
L 16.363636 139.54735 
L 19.636364 140.344724 
L 20.056977 140.856154 
L 22.720314 144.094751 
M 52.390166 126.679664 
L 52.363636 126.706219 
L 51.501695 127.753256 
L 49.090909 130.190162 
L 48.379353 131.02898 
L 48.432971 134.304705 
L 49.090909 137.580429 
L 51.238982 135.430389 
" clip-path="url(#p15593cd192)" style="fill: none"/>
    <path d="M 103.2147 0 
L 104.727273 1.334231 
L 105.836006 0 
M 16.363636 131.973317 
L 17.140872 131.02898 
L 16.363636 129.777008 
L 15.911854 131.02898 
L 16.363636 131.973317 
z
M 19.636364 128.047213 
L 19.719908 127.753256 
L 19.636364 127.463096 
L 19.100448 127.753256 
L 19.636364 128.047213 
z
M 97.984057 17.44116 
L 98.181818 16.994124 
L 98.597614 16.378623 
L 99.956909 13.102898 
L 101.304375 9.827174 
L 101.454545 9.615439 
L 102.856379 6.551449 
L 102.713275 3.275725 
L 101.454545 1.838719 
L 99.546814 3.275725 
L 98.181818 4.30938 
L 97.322459 6.551449 
L 94.909091 9.119921 
L 94.532779 9.827174 
L 93.501538 13.102898 
L 91.636364 15.286222 
L 91.063664 16.378623 
L 89.891361 19.654347 
L 88.363636 21.461947 
L 87.616001 22.930072 
L 86.290083 26.205796 
L 85.090909 27.627863 
L 84.173002 29.481521 
L 82.76327 32.757245 
L 81.818182 33.873421 
L 80.734484 36.03297 
L 79.318341 39.308694 
L 78.545455 40.256293 
L 77.40949 42.584419 
L 76.067404 45.860143 
L 75.272727 46.853961 
L 74.152581 49.135868 
L 72.814719 52.411592 
L 72 53.475363 
L 70.92948 55.687317 
L 69.575484 58.963041 
L 68.727273 60.114577 
L 67.705002 62.238766 
L 66.367394 65.51449 
L 65.454545 66.796474 
L 64.482278 68.790215 
L 63.174269 72.065939 
L 62.181818 73.555641 
L 61.324148 75.341664 
L 60.416823 78.617388 
L 58.909091 80.370811 
L 57.98949 81.893113 
L 57.232606 85.168837 
L 55.636364 87.185981 
L 54.500376 88.444562 
L 53.490958 91.720286 
L 52.363636 93.513993 
L 50.588499 94.996011 
L 49.090909 97.359538 
L 47.824632 98.271735 
L 45.818182 99.670543 
L 45.234012 101.54746 
L 43.530164 104.823184 
L 42.849153 108.098909 
L 44.016355 111.374633 
L 45.818182 112.678883 
L 47.258546 111.374633 
L 49.090909 109.641364 
L 50.603622 108.098909 
L 51.810439 104.823184 
L 52.363636 103.651951 
L 55.550012 101.54746 
L 55.490253 98.271735 
L 55.636364 97.855424 
L 56.027752 98.271735 
L 56.132415 101.54746 
L 58.909091 101.832116 
L 59.211208 101.54746 
L 60.128862 98.271735 
L 62.181818 95.042966 
L 62.232163 94.996011 
L 64.178421 91.720286 
L 65.326272 88.444562 
L 65.454545 88.276431 
L 67.469807 85.168837 
L 68.543252 81.893113 
L 68.727273 81.523535 
L 70.757268 78.617388 
L 71.683395 75.341664 
L 72 74.645234 
L 73.866441 72.065939 
L 74.672558 68.790215 
L 75.272727 67.445877 
L 76.838809 65.51449 
L 77.665325 62.238766 
L 78.545455 60.27263 
L 79.749658 58.963041 
L 80.729597 55.687317 
L 81.818182 53.177397 
L 82.570402 52.411592 
L 83.851145 49.135868 
L 85.090909 45.988178 
L 85.217019 45.860143 
L 86.948049 42.584419 
L 88.091217 39.308694 
L 88.363636 38.697132 
L 89.920985 36.03297 
L 90.266267 35.030519 
" clip-path="url(#p15593cd192)" style="fill: none"/>
    <path d="M 65.454545 81.740988 
L 65.642153 78.617388 
L 65.454545 77.184095 
L 65.243532 78.617388 
L 65.454545 81.740988 
z
M 71.705565 62.205807 
L 71.691949 62.238766 
L 69.849556 65.51449 
L 68.727273 67.611362 
L 68.282194 68.790215 
L 66.398884 72.065939 
L 66.994507 72.889417 
M 75.272727 60.673045 
L 75.996674 58.963041 
L 75.466092 55.687317 
L 75.272727 55.377505 
L 75.132228 55.687317 
L 73.355107 58.963041 
L 75.272727 60.673045 
z
M 78.545455 53.626518 
L 79.107867 52.411592 
L 78.545455 49.274173 
L 76.925034 52.411592 
L 78.545455 53.626518 
z
M 81.818182 46.394842 
L 82.064722 45.860143 
L 81.818182 43.602291 
L 80.93567 45.860143 
L 81.818182 46.394842 
z
" clip-path="url(#p15593cd192)" style="fill: none"/>
    <path clip-path="url(#p15593cd192)" style="fill: none"/>
    <path clip-path="url(#p15593cd192)" style="fill: none"/>
    <path clip-path="url(#p15593cd192)" style="fill: none"/>
    <path clip-path="url(#p15593cd192)" style="fill: none"/>
    <path clip-path="url(#p15593cd192)" style="fill: none"/>
    <path clip-path="url(#p15593cd192)" style="fill: none"/>
    <path clip-path="url(#p15593cd192)" style="fill: none"/>
    <path clip-path="url(#p15593cd192)" style="fill: none"/>
    <path clip-path="url(#p15593cd192)" style="fill: none"/>
    <path clip-path="url(#p15593cd192)" style="fill: none"/>
    <path clip-path="url(#p15593cd192)" style="fill: none"/>
    <path clip-path="url(#p15593cd192)" style="fill: none"/>
    <path clip-path="url(#p15593cd192)" style="fill: none"/>
    <path clip-path="url(#p15593cd192)" style="fill: none"/>
    <path clip-path="url(#p15593cd192)" style="fill: none"/>
    <path clip-path="url(#p15593cd192)" style="fill: none"/>
    <path clip-path="url(#p15593cd192)" style="fill: none"/>
    <path clip-path="url(#p15593cd192)" style="fill: none"/>
    <path clip-path="url(#p15593cd192)" style="fill: none"/>
    <path clip-path="url(#p15593cd192)" style="fill: none"/>
    <path clip-path="url(#p15593cd192)" style="fill: none"/>
    <path clip-path="url(#p15593cd192)" style="fill: none"/>
    <path clip-path="url(#p15593cd192)" style="fill: none"/>
    <path clip-path="url(#p15593cd192)" style="fill: none"/>
    <path clip-path="url(#p15593cd192)" style="fill: none"/>
    <path clip-path="url(#p15593cd192)" style="fill: none"/>
    <path clip-path="url(#p15593cd192)" style="fill: none"/>
    <path clip-path="url(#p15593cd192)" style="fill: none"/>
    <path clip-path="url(#p15593cd192)" style="fill: none"/>
    <path clip-path="url(#p15593cd192)" style="fill: none"/>
    <path clip-path="url(#p15593cd192)" style="fill: none"/>
    <path clip-path="url(#p15593cd192)" style="fill: none"/>
    <path clip-path="url(#p15593cd192)" style="fill: none"/>
    <path clip-path="url(#p15593cd192)" style="fill: none"/>
    <path clip-path="url(#p15593cd192)" style="fill: none"/>
    <path clip-path="url(#p15593cd192)" style="fill: none"/>
   </g>
   <g id="text_1">
    <g clip-path="url(#p15593cd192)">
     <!-- 0 -->
     <g style="opacity: 0" transform="translate(7.59414 38.249903) rotate(-61.038962) scale(0.12 -0.12)">
      <defs>
       <path id="DejaVuSans-30" d="M 2034 4250 
Q 1547 4250 1301 3770 
Q 1056 3291 1056 2328 
Q 1056 1369 1301 889 
Q 1547 409 2034 409 
Q 2525 409 2770 889 
Q 3016 1369 3016 2328 
Q 3016 3291 2770 3770 
Q 2525 4250 2034 4250 
z
M 2034 4750 
Q 2819 4750 3233 4129 
Q 3647 3509 3647 2328 
Q 3647 1150 3233 529 
Q 2819 -91 2034 -91 
Q 1250 -91 836 529 
Q 422 1150 422 2328 
Q 422 3509 836 4129 
Q 1250 4750 2034 4750 
z
" transform="scale(0.015625)"/>
      </defs>
      <use xlink:href="#DejaVuSans-30"/>
     </g>
    </g>
   </g>
   <g id="text_2">
    <g clip-path="url(#p15593cd192)">
     <!-- 0 -->
     <g style="opacity: 0" transform="translate(5.795178 11.604099) rotate(-48.022199) scale(0.12 -0.12)">
      <use xlink:href="#DejaVuSans-30"/>
     </g>
    </g>
   </g>
   <g id="text_3">
    <g clip-path="url(#p15593cd192)">
     <!-- 0 -->
     <g style="opacity: 0" transform="translate(70.288162 60.577249) rotate(-63.678626) scale(0.12 -0.12)">
      <use xlink:href="#DejaVuSans-30"/>
     </g>
    </g>
   </g>
   <g id="text_4">
    <g clip-path="url(#p15593cd192)">
     <!-- 0 -->
     <g style="opacity: 0" transform="translate(30.421253 142.557128) rotate(-60.090439) scale(0.12 -0.12)">
      <use xlink:href="#DejaVuSans-30"/>
     </g>
    </g>
   </g>
   <g id="text_5">
    <g clip-path="url(#p15593cd192)">
     <!-- 0 -->
     <g style="opacity: 0" transform="translate(59.150221 131.924161) rotate(-83.437781) scale(0.12 -0.12)">
      <use xlink:href="#DejaVuSans-30"/>
     </g>
    </g>
   </g>
   <g id="text_6">
    <g clip-path="url(#p15593cd192)">
     <!-- 1 -->
     <g style="opacity: 0" transform="translate(95.446073 31.058722) rotate(-65.258023) scale(0.12 -0.12)">
      <defs>
       <path id="DejaVuSans-31" d="M 794 531 
L 1825 531 
L 1825 4091 
L 703 3866 
L 703 4441 
L 1819 4666 
L 2450 4666 
L 2450 531 
L 3481 531 
L 3481 0 
L 794 0 
L 794 531 
z
" transform="scale(0.015625)"/>
      </defs>
      <use xlink:href="#DejaVuSans-31"/>
     </g>
    </g>
   </g>
   <g id="text_7">
    <g clip-path="url(#p15593cd192)">
     <!-- 2 -->
     <g style="opacity: 0" transform="translate(71.656485 73.598749) rotate(-66.974266) scale(0.12 -0.12)">
      <defs>
       <path id="DejaVuSans-32" d="M 1228 531 
L 3431 531 
L 3431 0 
L 469 0 
L 469 531 
Q 828 903 1448 1529 
Q 2069 2156 2228 2338 
Q 2531 2678 2651 2914 
Q 2772 3150 2772 3378 
Q 2772 3750 2511 3984 
Q 2250 4219 1831 4219 
Q 1534 4219 1204 4116 
Q 875 4013 500 3803 
L 500 4441 
Q 881 4594 1212 4672 
Q 1544 4750 1819 4750 
Q 2544 4750 2975 4387 
Q 3406 4025 3406 3419 
Q 3406 3131 3298 2873 
Q 3191 2616 2906 2266 
Q 2828 2175 2409 1742 
Q 1991 1309 1228 531 
z
" transform="scale(0.015625)"/>
      </defs>
      <use xlink:href="#DejaVuSans-32"/>
     </g>
    </g>
   </g>
  </g>
 </g>
 <defs>
  <clipPath id="p15593cd192">
   <rect x="0" y="0" width="576" height="815.655401"/>
  </clipPath>
 </defs>
</svg>
