<?xml version="1.0" encoding="utf-8" standalone="no"?>
<!DOCTYPE svg PUBLIC "-//W3C//DTD SVG 1.1//EN"
  "http://www.w3.org/Graphics/SVG/1.1/DTD/svg11.dtd">
<svg xmlns:xlink="http://www.w3.org/1999/xlink" width="576pt" height="816.65636pt" viewBox="0 0 576 816.65636" xmlns="http://www.w3.org/2000/svg" version="1.1">
 <metadata>
  <rdf:RDF xmlns:dc="http://purl.org/dc/elements/1.1/" xmlns:cc="http://creativecommons.org/ns#" xmlns:rdf="http://www.w3.org/1999/02/22-rdf-syntax-ns#">
   <cc:Work>
    <dc:type rdf:resource="http://purl.org/dc/dcmitype/StillImage"/>
    <dc:date>2025-07-25T22:44:27.176842</dc:date>
    <dc:format>image/svg+xml</dc:format>
    <dc:creator>
     <cc:Agent>
      <dc:title>Matplotlib v3.10.3, https://matplotlib.org/</dc:title>
     </cc:Agent>
    </dc:creator>
   </cc:Work>
  </rdf:RDF>
 </metadata>
 <defs>
  <style type="text/css">*{stroke-linejoin: round; stroke-linecap: butt}</style>
 </defs>
 <g id="figure_1">
  <g id="patch_1">
   <path d="M 0 816.65636 
L 576 816.65636 
L 576 0 
L 0 0 
L 0 816.65636 
z
" style="fill: none; opacity: 0"/>
  </g>
  <g id="axes_1">
   <g id="QuadContourSet_1">
    <path d="M 3.272727 816.65636 
L 6.545455 816.65636 
L 9.818182 816.65636 
L 13.090909 816.65636 
L 16.363636 816.65636 
L 19.636364 816.65636 
L 22.909091 816.65636 
L 26.181818 816.65636 
L 29.454545 816.65636 
L 32.727273 816.65636 
L 36 816.65636 
L 39.272727 816.65636 
L 42.545455 816.65636 
L 45.818182 816.65636 
L 49.090909 816.65636 
L 52.363636 816.65636 
L 55.636364 816.65636 
L 58.909091 816.65636 
L 62.181818 816.65636 
L 65.454545 816.65636 
L 68.727273 816.65636 
L 72 816.65636 
L 75.272727 816.65636 
L 78.545455 816.65636 
L 81.818182 816.65636 
L 85.090909 816.65636 
L 88.363636 816.65636 
L 91.636364 816.65636 
L 94.909091 816.65636 
L 98.181818 816.65636 
L 101.454545 816.65636 
L 104.727273 816.65636 
L 108 816.65636 
L 111.272727 816.65636 
L 114.545455 816.65636 
L 117.818182 816.65636 
L 121.090909 816.65636 
L 124.363636 816.65636 
L 127.636364 816.65636 
L 130.909091 816.65636 
L 134.181818 816.65636 
L 137.454545 816.65636 
L 140.727273 816.65636 
L 144 816.65636 
L 147.272727 816.65636 
L 150.545455 816.65636 
L 153.818182 816.65636 
L 157.090909 816.65636 
L 160.363636 816.65636 
L 163.636364 816.65636 
L 166.909091 816.65636 
L 170.181818 816.65636 
L 173.454545 816.65636 
L 176.727273 816.65636 
L 180 816.65636 
L 183.272727 816.65636 
L 186.545455 816.65636 
L 189.818182 816.65636 
L 193.090909 816.65636 
L 196.363636 816.65636 
L 199.636364 816.65636 
L 202.909091 816.65636 
L 206.181818 816.65636 
L 209.454545 816.65636 
L 212.727273 816.65636 
L 216 816.65636 
L 219.272727 816.65636 
L 222.545455 816.65636 
L 225.818182 816.65636 
L 229.090909 816.65636 
L 232.363636 816.65636 
L 235.636364 816.65636 
L 238.909091 816.65636 
L 242.181818 816.65636 
L 245.454545 816.65636 
L 248.727273 816.65636 
L 252 816.65636 
L 255.272727 816.65636 
L 258.545455 816.65636 
L 261.818182 816.65636 
L 265.090909 816.65636 
L 268.363636 816.65636 
L 271.636364 816.65636 
L 274.909091 816.65636 
L 278.181818 816.65636 
L 281.454545 816.65636 
L 284.727273 816.65636 
L 288 816.65636 
L 291.272727 816.65636 
L 294.545455 816.65636 
L 297.818182 816.65636 
L 301.090909 816.65636 
L 304.363636 816.65636 
L 307.636364 816.65636 
L 310.909091 816.65636 
L 314.181818 816.65636 
L 317.454545 816.65636 
L 320.727273 816.65636 
L 324 816.65636 
L 327.272727 816.65636 
L 330.545455 816.65636 
L 333.818182 816.65636 
L 337.090909 816.65636 
L 340.363636 816.65636 
L 343.636364 816.65636 
L 346.909091 816.65636 
L 350.181818 816.65636 
L 353.454545 816.65636 
L 356.727273 816.65636 
L 360 816.65636 
L 363.272727 816.65636 
L 366.545455 816.65636 
L 369.818182 816.65636 
L 373.090909 816.65636 
L 376.363636 816.65636 
L 379.636364 816.65636 
L 382.909091 816.65636 
L 386.181818 816.65636 
L 389.454545 816.65636 
L 392.727273 816.65636 
L 396 816.65636 
L 399.272727 816.65636 
L 402.545455 816.65636 
L 405.818182 816.65636 
L 409.090909 816.65636 
L 412.363636 816.65636 
L 415.636364 816.65636 
L 418.909091 816.65636 
L 422.181818 816.65636 
L 425.454545 816.65636 
L 428.727273 816.65636 
L 432 816.65636 
L 435.272727 816.65636 
L 438.545455 816.65636 
L 441.818182 816.65636 
L 445.090909 816.65636 
L 448.363636 816.65636 
L 451.636364 816.65636 
L 454.909091 816.65636 
L 458.181818 816.65636 
L 461.454545 816.65636 
L 464.727273 816.65636 
L 468 816.65636 
L 471.272727 816.65636 
L 474.545455 816.65636 
L 477.818182 816.65636 
L 481.090909 816.65636 
L 484.363636 816.65636 
L 487.636364 816.65636 
L 490.909091 816.65636 
L 494.181818 816.65636 
L 497.454545 816.65636 
L 500.727273 816.65636 
L 504 816.65636 
L 507.272727 816.65636 
L 510.545455 816.65636 
L 513.818182 816.65636 
L 517.090909 816.65636 
L 520.363636 816.65636 
L 523.636364 816.65636 
L 526.909091 816.65636 
L 530.181818 816.65636 
L 533.454545 816.65636 
L 536.727273 816.65636 
L 540 816.65636 
L 543.272727 816.65636 
L 546.545455 816.65636 
L 549.818182 816.65636 
L 553.090909 816.65636 
L 556.363636 816.65636 
L 559.636364 816.65636 
L 562.909091 816.65636 
L 566.181818 816.65636 
L 569.454545 816.65636 
L 572.727273 816.65636 
L 576 816.65636 
L 576 813.376615 
L 576 810.096871 
L 576 806.817126 
L 576 803.537382 
L 576 800.257637 
L 576 796.977893 
L 576 793.698149 
L 576 790.418404 
L 576 787.13866 
L 576 783.858915 
L 576 780.579171 
L 576 777.299427 
L 576 774.019682 
L 576 770.739938 
L 576 767.460193 
L 576 764.180449 
L 576 760.900704 
L 576 757.62096 
L 576 754.341216 
L 576 751.061471 
L 576 747.781727 
L 576 744.501982 
L 576 741.222238 
L 576 737.942494 
L 576 734.662749 
L 576 731.383005 
L 576 728.10326 
L 576 724.823516 
L 576 721.543771 
L 576 718.264027 
L 576 714.984283 
L 576 711.704538 
L 576 708.424794 
L 576 705.145049 
L 576 701.865305 
L 576 698.585561 
L 576 695.305816 
L 576 692.026072 
L 576 688.746327 
L 576 685.466583 
L 576 682.186838 
L 576 678.907094 
L 576 675.62735 
L 576 672.347605 
L 576 669.067861 
L 576 665.788116 
L 576 662.508372 
L 576 659.228628 
L 576 655.948883 
L 576 652.669139 
L 576 649.389394 
L 576 646.10965 
L 576 642.829905 
L 576 639.550161 
L 576 636.270417 
L 576 632.990672 
L 576 629.710928 
L 576 626.431183 
L 576 623.151439 
L 576 619.871695 
L 576 616.59195 
L 576 613.312206 
L 576 610.032461 
L 576 606.752717 
L 576 603.472973 
L 576 600.193228 
L 576 596.913484 
L 576 593.633739 
L 576 590.353995 
L 576 587.07425 
L 576 583.794506 
L 576 580.514762 
L 576 577.235017 
L 576 573.955273 
L 576 570.675528 
L 576 567.395784 
L 576 564.11604 
L 576 560.836295 
L 576 557.556551 
L 576 554.276806 
L 576 550.997062 
L 576 547.717317 
L 576 544.437573 
L 576 541.157829 
L 576 537.878084 
L 576 534.59834 
L 576 531.318595 
L 576 528.038851 
L 576 524.759107 
L 576 521.479362 
L 576 518.199618 
L 576 514.919873 
L 576 511.640129 
L 576 508.360384 
L 576 505.08064 
L 576 501.800896 
L 576 498.521151 
L 576 495.241407 
L 576 491.961662 
L 576 488.681918 
L 576 485.402174 
L 576 482.122429 
L 576 478.842685 
L 576 475.56294 
L 576 472.283196 
L 576 469.003451 
L 576 465.723707 
L 576 462.443963 
L 576 459.164218 
L 576 455.884474 
L 576 452.604729 
L 576 449.324985 
L 576 446.045241 
L 576 442.765496 
L 576 439.485752 
L 576 436.206007 
L 576 432.926263 
L 576 429.646518 
L 576 426.366774 
L 576 423.08703 
L 576 419.807285 
L 576 416.527541 
L 576 413.247796 
L 576 409.968052 
L 576 406.688308 
L 576 403.408563 
L 576 400.128819 
L 576 396.849074 
L 576 393.56933 
L 576 390.289585 
L 576 387.009841 
L 576 383.730097 
L 576 380.450352 
L 576 377.170608 
L 576 373.890863 
L 576 370.611119 
L 576 367.331375 
L 576 364.05163 
L 576 360.771886 
L 576 357.492141 
L 576 354.212397 
L 576 350.932652 
L 576 347.652908 
L 576 344.373164 
L 576 341.093419 
L 576 337.813675 
L 576 334.53393 
L 576 331.254186 
L 576 327.974442 
L 576 324.694697 
L 576 321.414953 
L 576 318.135208 
L 576 314.855464 
L 576 311.575719 
L 576 308.295975 
L 576 305.016231 
L 576 301.736486 
L 576 298.456742 
L 576 295.176997 
L 576 291.897253 
L 576 288.617509 
L 576 285.337764 
L 576 282.05802 
L 576 278.778275 
L 576 275.498531 
L 576 272.218787 
L 576 268.939042 
L 576 265.659298 
L 576 262.379553 
L 576 259.099809 
L 576 255.820064 
L 576 252.54032 
L 576 249.260576 
L 576 245.980831 
L 576 242.701087 
L 576 239.421342 
L 576 236.141598 
L 576 232.861854 
L 576 229.582109 
L 576 226.302365 
L 576 223.02262 
L 576 219.742876 
L 576 216.463131 
L 576 213.183387 
L 576 209.903643 
L 576 206.623898 
L 576 203.344154 
L 576 200.064409 
L 576 196.784665 
L 576 193.504921 
L 576 190.225176 
L 576 186.945432 
L 576 183.665687 
L 576 180.385943 
L 576 177.106198 
L 576 173.826454 
L 576 170.54671 
L 576 167.266965 
L 576 163.987221 
L 576 160.707476 
L 576 157.427732 
L 576 154.147988 
L 576 150.868243 
L 576 147.588499 
L 576 144.308754 
L 576 141.02901 
L 576 137.749265 
L 576 134.469521 
L 576 131.189777 
L 576 127.910032 
L 576 124.630288 
L 576 121.350543 
L 576 118.070799 
L 576 114.791055 
L 576 111.51131 
L 576 108.231566 
L 576 104.951821 
L 576 101.672077 
L 576 98.392332 
L 576 95.112588 
L 576 91.832844 
L 576 88.553099 
L 576 85.273355 
L 576 81.99361 
L 576 78.713866 
L 576 75.434122 
L 576 72.154377 
L 576 68.874633 
L 576 65.594888 
L 576 62.315144 
L 576 59.035399 
L 576 55.755655 
L 576 52.475911 
L 576 49.196166 
L 576 45.916422 
L 576 42.636677 
L 576 39.356933 
L 576 36.077189 
L 576 32.797444 
L 576 29.5177 
L 576 26.237955 
L 576 22.958211 
L 576 19.678466 
L 576 16.398722 
L 576 13.118978 
L 576 9.839233 
L 576 6.559489 
L 576 3.279744 
L 576 0 
L 572.727273 0 
L 569.454545 0 
L 566.181818 0 
L 562.909091 0 
L 559.636364 0 
L 556.363636 0 
L 553.090909 0 
L 549.818182 0 
L 546.545455 0 
L 543.272727 0 
L 540 0 
L 536.727273 0 
L 533.454545 0 
L 530.181818 0 
L 526.909091 0 
L 523.636364 0 
L 520.363636 0 
L 517.090909 0 
L 513.818182 0 
L 510.545455 0 
L 507.272727 0 
L 504 0 
L 500.727273 0 
L 497.454545 0 
L 494.181818 0 
L 490.909091 0 
L 487.636364 0 
L 484.363636 0 
L 481.090909 0 
L 477.818182 0 
L 474.545455 0 
L 471.272727 0 
L 468 0 
L 464.727273 0 
L 461.454545 0 
L 458.181818 0 
L 454.909091 0 
L 451.636364 0 
L 448.363636 0 
L 445.090909 0 
L 441.818182 0 
L 438.545455 0 
L 435.272727 0 
L 432 0 
L 428.727273 0 
L 425.454545 0 
L 422.181818 0 
L 418.909091 0 
L 415.636364 0 
L 412.363636 0 
L 409.090909 0 
L 405.818182 0 
L 402.545455 0 
L 399.272727 0 
L 396 0 
L 392.727273 0 
L 389.454545 0 
L 386.181818 0 
L 382.909091 0 
L 379.636364 0 
L 376.363636 0 
L 373.090909 0 
L 369.818182 0 
L 366.545455 0 
L 363.272727 0 
L 360 0 
L 356.727273 0 
L 353.454545 0 
L 350.181818 0 
L 346.909091 0 
L 343.636364 0 
L 340.363636 0 
L 337.090909 0 
L 333.818182 0 
L 330.545455 0 
L 327.272727 0 
L 324 0 
L 320.727273 0 
L 317.454545 0 
L 314.181818 0 
L 310.909091 0 
L 307.636364 0 
L 304.363636 0 
L 301.090909 0 
L 297.818182 0 
L 294.545455 0 
L 291.272727 0 
L 288 0 
L 284.727273 0 
L 281.454545 0 
L 278.181818 0 
L 274.909091 0 
L 271.636364 0 
L 268.363636 0 
L 265.090909 0 
L 261.818182 0 
L 258.545455 0 
L 255.272727 0 
L 252 0 
L 248.727273 0 
L 245.454545 0 
L 242.181818 0 
L 238.909091 0 
L 235.636364 0 
L 232.363636 0 
L 229.090909 0 
L 225.818182 0 
L 222.545455 0 
L 219.272727 0 
L 216 0 
L 212.727273 0 
L 209.454545 0 
L 206.181818 0 
L 202.909091 0 
L 199.636364 0 
L 196.363636 0 
L 193.090909 0 
L 189.818182 0 
L 186.545455 0 
L 183.272727 0 
L 180 0 
L 176.727273 0 
L 173.454545 0 
L 170.181818 0 
L 166.909091 0 
L 163.636364 0 
L 160.363636 0 
L 157.090909 0 
L 153.818182 0 
L 150.545455 0 
L 147.272727 0 
L 144 0 
L 140.727273 0 
L 137.454545 0 
L 134.181818 0 
L 130.909091 0 
L 127.636364 0 
L 124.363636 0 
L 121.090909 0 
L 117.818182 0 
L 114.545455 0 
L 111.272727 0 
L 108 0 
L 104.727273 0 
L 101.454545 0 
L 98.181818 0 
L 94.909091 0 
L 91.636364 0 
L 88.363636 0 
L 85.090909 0 
L 81.818182 0 
L 78.545455 0 
L 75.272727 0 
L 72 0 
L 68.727273 0 
L 65.454545 0 
L 62.181818 0 
L 58.909091 0 
L 55.636364 0 
L 52.363636 0 
L 49.090909 0 
L 45.818182 0 
L 42.545455 0 
L 39.272727 0 
L 36 0 
L 32.727273 0 
L 29.454545 0 
L 26.181818 0 
L 22.909091 0 
L 19.636364 0 
L 16.363636 0 
L 13.090909 0 
L 9.818182 0 
L 6.545455 0 
L 3.272727 0 
L 0 0 
L 0 3.279744 
L 0 6.559489 
L 0 9.839233 
L 0 13.118978 
L 0 16.398722 
L 0 19.678466 
L 0 22.958211 
L 0 26.237955 
L 0 29.5177 
L 0 32.797444 
L 0 36.077189 
L 0 39.356933 
L 0 42.636677 
L 0 45.916422 
L 0 49.196166 
L 0 52.475911 
L 0 55.755655 
L 0 59.035399 
L 0 62.315144 
L 0 65.594888 
L 0 68.874633 
L 0 72.154377 
L 0 75.434122 
L 0 78.713866 
L 0 81.99361 
L 0 85.273355 
L 0 88.553099 
L 0 91.832844 
L 0 95.112588 
L 0 98.392332 
L 0 101.672077 
L 0 104.951821 
L 0 108.231566 
L 0 111.51131 
L 0 114.791055 
L 0 118.070799 
L 0 121.350543 
L 0 124.630288 
L 0 127.910032 
L 0 131.189777 
L 0 134.469521 
L 0 137.749265 
L 0 141.02901 
L 0 144.308754 
L 0 147.588499 
L 0 150.868243 
L 0 154.147988 
L 0 157.427732 
L 0 160.707476 
L 0 163.987221 
L 0 167.266965 
L 0 170.54671 
L 0 173.826454 
L 0 177.106198 
L 0 180.385943 
L 0 183.665687 
L 0 186.945432 
L 0 190.225176 
L 0 193.504921 
L 0 196.784665 
L 0 200.064409 
L 0 203.344154 
L 0 206.623898 
L 0 209.903643 
L 0 213.183387 
L 0 216.463131 
L 0 219.742876 
L 0 223.02262 
L 0 226.302365 
L 0 229.582109 
L 0 232.861854 
L 0 236.141598 
L 0 239.421342 
L 0 242.701087 
L 0 245.980831 
L 0 249.260576 
L 0 252.54032 
L 0 255.820064 
L 0 259.099809 
L 0 262.379553 
L 0 265.659298 
L 0 268.939042 
L 0 272.218787 
L 0 275.498531 
L 0 278.778275 
L 0 282.05802 
L 0 285.337764 
L 0 288.617509 
L 0 291.897253 
L 0 295.176997 
L 0 298.456742 
L 0 301.736486 
L 0 305.016231 
L 0 308.295975 
L 0 311.575719 
L 0 314.855464 
L 0 318.135208 
L 0 321.414953 
L 0 324.694697 
L 0 327.974442 
L 0 331.254186 
L 0 334.53393 
L 0 337.813675 
L 0 341.093419 
L 0 344.373164 
L 0 347.652908 
L 0 350.932652 
L 0 354.212397 
L 0 357.492141 
L 0 360.771886 
L 0 364.05163 
L 0 367.331375 
L 0 370.611119 
L 0 373.890863 
L 0 377.170608 
L 0 380.450352 
L 0 383.730097 
L 0 387.009841 
L 0 390.289585 
L 0 393.56933 
L 0 396.849074 
L 0 400.128819 
L 0 403.408563 
L 0 406.688308 
L 0 409.968052 
L 0 413.247796 
L 0 416.527541 
L 0 419.807285 
L 0 423.08703 
L 0 426.366774 
L 0 429.646518 
L 0 432.926263 
L 0 436.206007 
L 0 439.485752 
L 0 442.765496 
L 0 446.045241 
L 0 449.324985 
L 0 452.604729 
L 0 455.884474 
L 0 459.164218 
L 0 462.443963 
L 0 465.723707 
L 0 469.003451 
L 0 472.283196 
L 0 475.56294 
L 0 478.842685 
L 0 482.122429 
L 0 485.402174 
L 0 488.681918 
L 0 491.961662 
L 0 495.241407 
L 0 498.521151 
L 0 501.800896 
L 0 505.08064 
L 0 508.360384 
L 0 511.640129 
L 0 514.919873 
L 0 518.199618 
L 0 521.479362 
L 0 524.759107 
L 0 528.038851 
L 0 531.318595 
L 0 534.59834 
L 0 537.878084 
L 0 541.157829 
L 0 544.437573 
L 0 547.717317 
L 0 550.997062 
L 0 554.276806 
L 0 557.556551 
L 0 560.836295 
L 0 564.11604 
L 0 567.395784 
L 0 570.675528 
L 0 573.955273 
L 0 577.235017 
L 0 580.514762 
L 0 583.794506 
L 0 587.07425 
L 0 590.353995 
L 0 593.633739 
L 0 596.913484 
L 0 600.193228 
L 0 603.472973 
L 0 606.752717 
L 0 610.032461 
L 0 613.312206 
L 0 616.59195 
L 0 619.871695 
L 0 623.151439 
L 0 626.431183 
L 0 629.710928 
L 0 632.990672 
L 0 636.270417 
L 0 639.550161 
L 0 642.829905 
L 0 646.10965 
L 0 649.389394 
L 0 652.669139 
L 0 655.948883 
L 0 659.228628 
L 0 662.508372 
L 0 665.788116 
L 0 669.067861 
L 0 672.347605 
L 0 675.62735 
L 0 678.907094 
L 0 682.186838 
L 0 685.466583 
L 0 688.746327 
L 0 692.026072 
L 0 695.305816 
L 0 698.585561 
L 0 701.865305 
L 0 705.145049 
L 0 708.424794 
L 0 711.704538 
L 0 714.984283 
L 0 718.264027 
L 0 721.543771 
L 0 724.823516 
L 0 728.10326 
L 0 731.383005 
L 0 734.662749 
L 0 737.942494 
L 0 741.222238 
L 0 744.501982 
L 0 747.781727 
L 0 751.061471 
L 0 754.341216 
L 0 757.62096 
L 0 760.900704 
L 0 764.180449 
L 0 767.460193 
L 0 770.739938 
L 0 774.019682 
L 0 777.299427 
L 0 780.579171 
L 0 783.858915 
L 0 787.13866 
L 0 790.418404 
L 0 793.698149 
L 0 796.977893 
L 0 800.257637 
L 0 803.537382 
L 0 806.817126 
L 0 810.096871 
L 0 813.376615 
L 0 816.65636 
z
" clip-path="url(#pd7bb0169c6)" style="fill: #f5f9fe; fill-opacity: 0.9"/>
    <path clip-path="url(#pd7bb0169c6)" style="fill: #eff6fc; fill-opacity: 0.9"/>
    <path clip-path="url(#pd7bb0169c6)" style="fill: #eaf3fb; fill-opacity: 0.9"/>
    <path clip-path="url(#pd7bb0169c6)" style="fill: #e5eff9; fill-opacity: 0.9"/>
    <path clip-path="url(#pd7bb0169c6)" style="fill: #dfecf7; fill-opacity: 0.9"/>
    <path clip-path="url(#pd7bb0169c6)" style="fill: #dae8f6; fill-opacity: 0.9"/>
    <path clip-path="url(#pd7bb0169c6)" style="fill: #d6e5f4; fill-opacity: 0.9"/>
    <path clip-path="url(#pd7bb0169c6)" style="fill: #d0e2f2; fill-opacity: 0.9"/>
    <path clip-path="url(#pd7bb0169c6)" style="fill: #cbdef1; fill-opacity: 0.9"/>
    <path clip-path="url(#pd7bb0169c6)" style="fill: #c6dbef; fill-opacity: 0.9"/>
    <path clip-path="url(#pd7bb0169c6)" style="fill: #bed8ec; fill-opacity: 0.9"/>
    <path clip-path="url(#pd7bb0169c6)" style="fill: #b5d4e9; fill-opacity: 0.9"/>
    <path clip-path="url(#pd7bb0169c6)" style="fill: #add0e6; fill-opacity: 0.9"/>
    <path clip-path="url(#pd7bb0169c6)" style="fill: #a5cde3; fill-opacity: 0.9"/>
    <path clip-path="url(#pd7bb0169c6)" style="fill: #9cc9e1; fill-opacity: 0.9"/>
    <path clip-path="url(#pd7bb0169c6)" style="fill: #91c3de; fill-opacity: 0.9"/>
    <path clip-path="url(#pd7bb0169c6)" style="fill: #85bcdc; fill-opacity: 0.9"/>
    <path clip-path="url(#pd7bb0169c6)" style="fill: #7cb7da; fill-opacity: 0.9"/>
    <path clip-path="url(#pd7bb0169c6)" style="fill: #71b1d7; fill-opacity: 0.9"/>
    <path clip-path="url(#pd7bb0169c6)" style="fill: #66abd4; fill-opacity: 0.9"/>
    <path clip-path="url(#pd7bb0169c6)" style="fill: #5da5d1; fill-opacity: 0.9"/>
    <path clip-path="url(#pd7bb0169c6)" style="fill: #56a0ce; fill-opacity: 0.9"/>
    <path clip-path="url(#pd7bb0169c6)" style="fill: #4d99ca; fill-opacity: 0.9"/>
    <path clip-path="url(#pd7bb0169c6)" style="fill: #4493c7; fill-opacity: 0.9"/>
    <path clip-path="url(#pd7bb0169c6)" style="fill: #3c8cc3; fill-opacity: 0.9"/>
    <path clip-path="url(#pd7bb0169c6)" style="fill: #3686c0; fill-opacity: 0.9"/>
    <path clip-path="url(#pd7bb0169c6)" style="fill: #2f7fbc; fill-opacity: 0.9"/>
    <path clip-path="url(#pd7bb0169c6)" style="fill: #2777b8; fill-opacity: 0.9"/>
    <path clip-path="url(#pd7bb0169c6)" style="fill: #2070b4; fill-opacity: 0.9"/>
    <path clip-path="url(#pd7bb0169c6)" style="fill: #1c6ab0; fill-opacity: 0.9"/>
    <path clip-path="url(#pd7bb0169c6)" style="fill: #1663aa; fill-opacity: 0.9"/>
    <path clip-path="url(#pd7bb0169c6)" style="fill: #115ca5; fill-opacity: 0.9"/>
    <path clip-path="url(#pd7bb0169c6)" style="fill: #0c56a0; fill-opacity: 0.9"/>
    <path clip-path="url(#pd7bb0169c6)" style="fill: #084f99; fill-opacity: 0.9"/>
    <path clip-path="url(#pd7bb0169c6)" style="fill: #08488e; fill-opacity: 0.9"/>
    <path clip-path="url(#pd7bb0169c6)" style="fill: #084184; fill-opacity: 0.9"/>
    <path clip-path="url(#pd7bb0169c6)" style="fill: #083a7a; fill-opacity: 0.9"/>
    <path clip-path="url(#pd7bb0169c6)" style="fill: #083370; fill-opacity: 0.9"/>
    <path clip-path="url(#pd7bb0169c6)" style="fill: #08306b; fill-opacity: 0.9"/>
   </g>
   <g id="QuadContourSet_2">
    <path clip-path="url(#pd7bb0169c6)" style="fill: none"/>
    <path clip-path="url(#pd7bb0169c6)" style="fill: none"/>
    <path clip-path="url(#pd7bb0169c6)" style="fill: none"/>
    <path clip-path="url(#pd7bb0169c6)" style="fill: none"/>
    <path clip-path="url(#pd7bb0169c6)" style="fill: none"/>
    <path clip-path="url(#pd7bb0169c6)" style="fill: none"/>
    <path clip-path="url(#pd7bb0169c6)" style="fill: none"/>
    <path clip-path="url(#pd7bb0169c6)" style="fill: none"/>
    <path clip-path="url(#pd7bb0169c6)" style="fill: none"/>
    <path clip-path="url(#pd7bb0169c6)" style="fill: none"/>
    <path clip-path="url(#pd7bb0169c6)" style="fill: none"/>
    <path clip-path="url(#pd7bb0169c6)" style="fill: none"/>
    <path clip-path="url(#pd7bb0169c6)" style="fill: none"/>
    <path clip-path="url(#pd7bb0169c6)" style="fill: none"/>
    <path clip-path="url(#pd7bb0169c6)" style="fill: none"/>
    <path clip-path="url(#pd7bb0169c6)" style="fill: none"/>
    <path clip-path="url(#pd7bb0169c6)" style="fill: none"/>
    <path clip-path="url(#pd7bb0169c6)" style="fill: none"/>
    <path clip-path="url(#pd7bb0169c6)" style="fill: none"/>
    <path clip-path="url(#pd7bb0169c6)" style="fill: none"/>
    <path clip-path="url(#pd7bb0169c6)" style="fill: none"/>
    <path clip-path="url(#pd7bb0169c6)" style="fill: none"/>
    <path clip-path="url(#pd7bb0169c6)" style="fill: none"/>
    <path clip-path="url(#pd7bb0169c6)" style="fill: none"/>
    <path clip-path="url(#pd7bb0169c6)" style="fill: none"/>
    <path clip-path="url(#pd7bb0169c6)" style="fill: none"/>
    <path clip-path="url(#pd7bb0169c6)" style="fill: none"/>
    <path clip-path="url(#pd7bb0169c6)" style="fill: none"/>
    <path clip-path="url(#pd7bb0169c6)" style="fill: none"/>
    <path clip-path="url(#pd7bb0169c6)" style="fill: none"/>
    <path clip-path="url(#pd7bb0169c6)" style="fill: none"/>
    <path clip-path="url(#pd7bb0169c6)" style="fill: none"/>
    <path clip-path="url(#pd7bb0169c6)" style="fill: none"/>
    <path clip-path="url(#pd7bb0169c6)" style="fill: none"/>
    <path clip-path="url(#pd7bb0169c6)" style="fill: none"/>
    <path clip-path="url(#pd7bb0169c6)" style="fill: none"/>
    <path clip-path="url(#pd7bb0169c6)" style="fill: none"/>
    <path clip-path="url(#pd7bb0169c6)" style="fill: none"/>
    <path clip-path="url(#pd7bb0169c6)" style="fill: none"/>
   </g>
  </g>
 </g>
 <defs>
  <clipPath id="pd7bb0169c6">
   <rect x="0" y="0" width="576" height="816.65636"/>
  </clipPath>
 </defs>
</svg>
