<?xml version="1.0" encoding="utf-8" standalone="no"?>
<!DOCTYPE svg PUBLIC "-//W3C//DTD SVG 1.1//EN"
  "http://www.w3.org/Graphics/SVG/1.1/DTD/svg11.dtd">
<svg xmlns:xlink="http://www.w3.org/1999/xlink" width="576pt" height="817.804821pt" viewBox="0 0 576 817.804821" xmlns="http://www.w3.org/2000/svg" version="1.1">
 <metadata>
  <rdf:RDF xmlns:dc="http://purl.org/dc/elements/1.1/" xmlns:cc="http://creativecommons.org/ns#" xmlns:rdf="http://www.w3.org/1999/02/22-rdf-syntax-ns#">
   <cc:Work>
    <dc:type rdf:resource="http://purl.org/dc/dcmitype/StillImage"/>
    <dc:date>2025-07-25T22:44:06.447615</dc:date>
    <dc:format>image/svg+xml</dc:format>
    <dc:creator>
     <cc:Agent>
      <dc:title>Matplotlib v3.10.3, https://matplotlib.org/</dc:title>
     </cc:Agent>
    </dc:creator>
   </cc:Work>
  </rdf:RDF>
 </metadata>
 <defs>
  <style type="text/css">*{stroke-linejoin: round; stroke-linecap: butt}</style>
 </defs>
 <g id="figure_1">
  <g id="patch_1">
   <path d="M 0 817.804821 
L 576 817.804821 
L 576 0 
L 0 0 
L 0 817.804821 
z
" style="fill: none; opacity: 0"/>
  </g>
  <g id="axes_1">
   <g id="QuadContourSet_1">
    <path d="M 3.272727 817.804821 
L 6.545455 817.804821 
L 9.818182 817.804821 
L 13.090909 817.804821 
L 16.363636 817.804821 
L 19.636364 817.804821 
L 22.909091 817.804821 
L 26.181818 817.804821 
L 29.454545 817.804821 
L 32.727273 817.804821 
L 36 817.804821 
L 39.272727 817.804821 
L 42.545455 817.804821 
L 45.818182 817.804821 
L 49.090909 817.804821 
L 52.363636 817.804821 
L 55.636364 817.804821 
L 58.909091 817.804821 
L 62.181818 817.804821 
L 65.454545 817.804821 
L 68.727273 817.804821 
L 72 817.804821 
L 75.272727 817.804821 
L 78.545455 817.804821 
L 81.818182 817.804821 
L 85.090909 817.804821 
L 88.363636 817.804821 
L 91.636364 817.804821 
L 94.909091 817.804821 
L 98.181818 817.804821 
L 101.454545 817.804821 
L 104.727273 817.804821 
L 108 817.804821 
L 111.272727 817.804821 
L 114.545455 817.804821 
L 117.818182 817.804821 
L 121.090909 817.804821 
L 124.363636 817.804821 
L 127.636364 817.804821 
L 130.909091 817.804821 
L 134.181818 817.804821 
L 137.454545 817.804821 
L 140.727273 817.804821 
L 144 817.804821 
L 147.272727 817.804821 
L 150.545455 817.804821 
L 153.818182 817.804821 
L 157.090909 817.804821 
L 160.363636 817.804821 
L 163.636364 817.804821 
L 166.909091 817.804821 
L 170.181818 817.804821 
L 173.454545 817.804821 
L 176.727273 817.804821 
L 180 817.804821 
L 183.272727 817.804821 
L 186.545455 817.804821 
L 189.818182 817.804821 
L 193.090909 817.804821 
L 196.363636 817.804821 
L 199.636364 817.804821 
L 202.909091 817.804821 
L 206.181818 817.804821 
L 209.454545 817.804821 
L 212.727273 817.804821 
L 216 817.804821 
L 219.272727 817.804821 
L 222.545455 817.804821 
L 225.818182 817.804821 
L 229.090909 817.804821 
L 232.363636 817.804821 
L 235.636364 817.804821 
L 238.909091 817.804821 
L 242.181818 817.804821 
L 245.454545 817.804821 
L 248.727273 817.804821 
L 252 817.804821 
L 255.272727 817.804821 
L 258.545455 817.804821 
L 261.818182 817.804821 
L 265.090909 817.804821 
L 268.363636 817.804821 
L 271.636364 817.804821 
L 274.909091 817.804821 
L 278.181818 817.804821 
L 281.454545 817.804821 
L 284.727273 817.804821 
L 288 817.804821 
L 291.272727 817.804821 
L 294.545455 817.804821 
L 297.818182 817.804821 
L 301.090909 817.804821 
L 304.363636 817.804821 
L 307.636364 817.804821 
L 310.909091 817.804821 
L 314.181818 817.804821 
L 317.454545 817.804821 
L 320.727273 817.804821 
L 324 817.804821 
L 327.272727 817.804821 
L 330.545455 817.804821 
L 333.818182 817.804821 
L 337.090909 817.804821 
L 340.363636 817.804821 
L 343.636364 817.804821 
L 346.909091 817.804821 
L 350.181818 817.804821 
L 353.454545 817.804821 
L 356.727273 817.804821 
L 360 817.804821 
L 363.272727 817.804821 
L 366.545455 817.804821 
L 369.818182 817.804821 
L 373.090909 817.804821 
L 376.363636 817.804821 
L 379.636364 817.804821 
L 382.909091 817.804821 
L 386.181818 817.804821 
L 389.454545 817.804821 
L 392.727273 817.804821 
L 396 817.804821 
L 399.272727 817.804821 
L 402.545455 817.804821 
L 405.818182 817.804821 
L 409.090909 817.804821 
L 412.363636 817.804821 
L 415.636364 817.804821 
L 418.909091 817.804821 
L 422.181818 817.804821 
L 425.454545 817.804821 
L 428.727273 817.804821 
L 432 817.804821 
L 435.272727 817.804821 
L 438.545455 817.804821 
L 441.818182 817.804821 
L 445.090909 817.804821 
L 448.363636 817.804821 
L 451.636364 817.804821 
L 454.909091 817.804821 
L 458.181818 817.804821 
L 461.454545 817.804821 
L 464.727273 817.804821 
L 468 817.804821 
L 471.272727 817.804821 
L 474.545455 817.804821 
L 477.818182 817.804821 
L 481.090909 817.804821 
L 484.363636 817.804821 
L 487.636364 817.804821 
L 490.909091 817.804821 
L 494.181818 817.804821 
L 497.454545 817.804821 
L 500.727273 817.804821 
L 504 817.804821 
L 507.272727 817.804821 
L 510.545455 817.804821 
L 513.818182 817.804821 
L 517.090909 817.804821 
L 520.363636 817.804821 
L 523.636364 817.804821 
L 526.909091 817.804821 
L 530.181818 817.804821 
L 533.454545 817.804821 
L 536.727273 817.804821 
L 540 817.804821 
L 543.272727 817.804821 
L 546.545455 817.804821 
L 549.818182 817.804821 
L 553.090909 817.804821 
L 556.363636 817.804821 
L 559.636364 817.804821 
L 562.909091 817.804821 
L 566.181818 817.804821 
L 569.454545 817.804821 
L 572.727273 817.804821 
L 576 817.804821 
L 576 814.520465 
L 576 811.236108 
L 576 807.951751 
L 576 804.667395 
L 576 801.383038 
L 576 798.098681 
L 576 794.814324 
L 576 791.529968 
L 576 788.245611 
L 576 784.961254 
L 576 781.676898 
L 576 778.392541 
L 576 775.108184 
L 576 771.823827 
L 576 768.539471 
L 576 765.255114 
L 576 761.970757 
L 576 758.686401 
L 576 755.402044 
L 576 752.117687 
L 576 748.833331 
L 576 745.548974 
L 576 742.264617 
L 576 738.98026 
L 576 735.695904 
L 576 732.411547 
L 576 729.12719 
L 576 725.842834 
L 576 722.558477 
L 576 719.27412 
L 576 715.989763 
L 576 712.705407 
L 576 709.42105 
L 576 706.136693 
L 576 702.852337 
L 576 699.56798 
L 576 696.283623 
L 576 692.999266 
L 576 689.71491 
L 576 686.430553 
L 576 683.146196 
L 576 679.86184 
L 576 676.577483 
L 576 673.293126 
L 576 670.008769 
L 576 666.724413 
L 576 663.440056 
L 576 660.155699 
L 576 656.871343 
L 576 653.586986 
L 576 650.302629 
L 576 647.018272 
L 576 643.733916 
L 576 640.449559 
L 576 637.165202 
L 576 633.880846 
L 576 630.596489 
L 576 627.312132 
L 576 624.027775 
L 576 620.743419 
L 576 617.459062 
L 576 614.174705 
L 576 610.890349 
L 576 607.605992 
L 576 604.321635 
L 576 601.037278 
L 576 597.752922 
L 576 594.468565 
L 576 591.184208 
L 576 587.899852 
L 576 584.615495 
L 576 581.331138 
L 576 578.046781 
L 576 574.762425 
L 576 571.478068 
L 576 568.193711 
L 576 564.909355 
L 576 561.624998 
L 576 558.340641 
L 576 555.056284 
L 576 551.771928 
L 576 548.487571 
L 576 545.203214 
L 576 541.918858 
L 576 538.634501 
L 576 535.350144 
L 576 532.065787 
L 576 528.781431 
L 576 525.497074 
L 576 522.212717 
L 576 518.928361 
L 576 515.644004 
L 576 512.359647 
L 576 509.07529 
L 576 505.790934 
L 576 502.506577 
L 576 499.22222 
L 576 495.937864 
L 576 492.653507 
L 576 489.36915 
L 576 486.084793 
L 576 482.800437 
L 576 479.51608 
L 576 476.231723 
L 576 472.947367 
L 576 469.66301 
L 576 466.378653 
L 576 463.094296 
L 576 459.80994 
L 576 456.525583 
L 576 453.241226 
L 576 449.95687 
L 576 446.672513 
L 576 443.388156 
L 576 440.1038 
L 576 436.819443 
L 576 433.535086 
L 576 430.250729 
L 576 426.966373 
L 576 423.682016 
L 576 420.397659 
L 576 417.113303 
L 576 413.828946 
L 576 410.544589 
L 576 407.260232 
L 576 403.975876 
L 576 400.691519 
L 576 397.407162 
L 576 394.122806 
L 576 390.838449 
L 576 387.554092 
L 576 384.269735 
L 576 380.985379 
L 576 377.701022 
L 576 374.416665 
L 576 371.132309 
L 576 367.847952 
L 576 364.563595 
L 576 361.279238 
L 576 357.994882 
L 576 354.710525 
L 576 351.426168 
L 576 348.141812 
L 576 344.857455 
L 576 341.573098 
L 576 338.288741 
L 576 335.004385 
L 576 331.720028 
L 576 328.435671 
L 576 325.151315 
L 576 321.866958 
L 576 318.582601 
L 576 315.298244 
L 576 312.013888 
L 576 308.729531 
L 576 305.445174 
L 576 302.160818 
L 576 298.876461 
L 576 295.592104 
L 576 292.307747 
L 576 289.023391 
L 576 285.739034 
L 576 282.454677 
L 576 279.170321 
L 576 275.885964 
L 576 272.601607 
L 576 269.31725 
L 576 266.032894 
L 576 262.748537 
L 576 259.46418 
L 576 256.179824 
L 576 252.895467 
L 576 249.61111 
L 576 246.326753 
L 576 243.042397 
L 576 239.75804 
L 576 236.473683 
L 576 233.189327 
L 576 229.90497 
L 576 226.620613 
L 576 223.336256 
L 576 220.0519 
L 576 216.767543 
L 576 213.483186 
L 576 210.19883 
L 576 206.914473 
L 576 203.630116 
L 576 200.345759 
L 576 197.061403 
L 576 193.777046 
L 576 190.492689 
L 576 187.208333 
L 576 183.923976 
L 576 180.639619 
L 576 177.355262 
L 576 174.070906 
L 576 170.786549 
L 576 167.502192 
L 576 164.217836 
L 576 160.933479 
L 576 157.649122 
L 576 154.364765 
L 576 151.080409 
L 576 147.796052 
L 576 144.511695 
L 576 141.227339 
L 576 137.942982 
L 576 134.658625 
L 576 131.374269 
L 576 128.089912 
L 576 124.805555 
L 576 121.521198 
L 576 118.236842 
L 576 114.952485 
L 576 111.668128 
L 576 108.383772 
L 576 105.099415 
L 576 101.815058 
L 576 98.530701 
L 576 95.246345 
L 576 91.961988 
L 576 88.677631 
L 576 85.393275 
L 576 82.108918 
L 576 78.824561 
L 576 75.540204 
L 576 72.255848 
L 576 68.971491 
L 576 65.687134 
L 576 62.402778 
L 576 59.118421 
L 576 55.834064 
L 576 52.549707 
L 576 49.265351 
L 576 45.980994 
L 576 42.696637 
L 576 39.412281 
L 576 36.127924 
L 576 32.843567 
L 576 29.55921 
L 576 26.274854 
L 576 22.990497 
L 576 19.70614 
L 576 16.421784 
L 576 13.137427 
L 576 9.85307 
L 576 6.568713 
L 576 3.284357 
L 576 0 
L 572.727273 0 
L 569.454545 0 
L 566.181818 0 
L 562.909091 0 
L 559.636364 0 
L 556.363636 0 
L 553.090909 0 
L 549.818182 0 
L 546.545455 0 
L 543.272727 0 
L 540 0 
L 536.727273 0 
L 533.454545 0 
L 530.181818 0 
L 526.909091 0 
L 523.636364 0 
L 520.363636 0 
L 517.090909 0 
L 513.818182 0 
L 510.545455 0 
L 507.272727 0 
L 504 0 
L 500.727273 0 
L 497.454545 0 
L 494.181818 0 
L 490.909091 0 
L 487.636364 0 
L 484.363636 0 
L 481.090909 0 
L 477.818182 0 
L 474.545455 0 
L 471.272727 0 
L 468 0 
L 464.727273 0 
L 461.454545 0 
L 458.181818 0 
L 454.909091 0 
L 451.636364 0 
L 448.363636 0 
L 445.090909 0 
L 441.818182 0 
L 438.545455 0 
L 435.272727 0 
L 432 0 
L 428.727273 0 
L 425.454545 0 
L 422.181818 0 
L 418.909091 0 
L 415.636364 0 
L 412.363636 0 
L 409.090909 0 
L 405.818182 0 
L 402.545455 0 
L 399.272727 0 
L 396 0 
L 392.727273 0 
L 389.454545 0 
L 386.181818 0 
L 382.909091 0 
L 379.636364 0 
L 376.363636 0 
L 373.090909 0 
L 369.818182 0 
L 366.545455 0 
L 363.272727 0 
L 360 0 
L 356.727273 0 
L 353.454545 0 
L 350.181818 0 
L 346.909091 0 
L 343.636364 0 
L 340.363636 0 
L 337.090909 0 
L 333.818182 0 
L 330.545455 0 
L 327.272727 0 
L 324 0 
L 320.727273 0 
L 317.454545 0 
L 314.181818 0 
L 310.909091 0 
L 307.636364 0 
L 304.363636 0 
L 301.090909 0 
L 297.818182 0 
L 294.545455 0 
L 291.272727 0 
L 288 0 
L 284.727273 0 
L 281.454545 0 
L 278.181818 0 
L 274.909091 0 
L 271.636364 0 
L 268.363636 0 
L 265.090909 0 
L 261.818182 0 
L 258.545455 0 
L 255.272727 0 
L 252 0 
L 248.727273 0 
L 245.454545 0 
L 242.181818 0 
L 238.909091 0 
L 235.636364 0 
L 232.363636 0 
L 229.090909 0 
L 225.818182 0 
L 222.545455 0 
L 219.272727 0 
L 216 0 
L 212.727273 0 
L 209.454545 0 
L 206.181818 0 
L 202.909091 0 
L 199.636364 0 
L 196.363636 0 
L 193.090909 0 
L 189.818182 0 
L 186.545455 0 
L 183.272727 0 
L 180 0 
L 176.727273 0 
L 173.454545 0 
L 170.181818 0 
L 166.909091 0 
L 163.636364 0 
L 160.363636 0 
L 157.090909 0 
L 153.818182 0 
L 150.545455 0 
L 147.272727 0 
L 144 0 
L 140.727273 0 
L 137.454545 0 
L 134.181818 0 
L 130.909091 0 
L 127.636364 0 
L 124.363636 0 
L 121.090909 0 
L 117.818182 0 
L 114.545455 0 
L 111.272727 0 
L 108 0 
L 104.727273 0 
L 101.454545 0 
L 98.181818 0 
L 94.909091 0 
L 91.636364 0 
L 88.363636 0 
L 85.090909 0 
L 81.818182 0 
L 78.545455 0 
L 75.272727 0 
L 72 0 
L 68.727273 0 
L 65.454545 0 
L 62.181818 0 
L 58.909091 0 
L 55.636364 0 
L 52.363636 0 
L 49.090909 0 
L 45.818182 0 
L 42.545455 0 
L 39.272727 0 
L 36 0 
L 32.727273 0 
L 29.454545 0 
L 26.181818 0 
L 22.909091 0 
L 19.636364 0 
L 16.363636 0 
L 13.090909 0 
L 9.818182 0 
L 6.545455 0 
L 3.272727 0 
L -0 0 
L -0 3.284357 
L -0 6.568713 
L -0 9.85307 
L -0 13.137427 
L -0 16.421784 
L -0 19.70614 
L -0 22.990497 
L -0 26.274854 
L -0 29.55921 
L -0 32.843567 
L -0 36.127924 
L -0 39.412281 
L -0 42.696637 
L -0 45.980994 
L -0 49.265351 
L -0 52.549707 
L -0 55.834064 
L -0 59.118421 
L -0 62.402778 
L -0 65.687134 
L -0 68.971491 
L -0 72.255848 
L -0 75.540204 
L -0 78.824561 
L -0 82.108918 
L -0 85.393275 
L -0 88.677631 
L -0 91.961988 
L -0 95.246345 
L -0 98.530701 
L -0 101.815058 
L -0 105.099415 
L -0 108.383772 
L -0 111.668128 
L -0 114.952485 
L -0 118.236842 
L -0 121.521198 
L -0 124.805555 
L -0 128.089912 
L -0 131.374269 
L -0 134.658625 
L -0 137.942982 
L -0 141.227339 
L -0 144.511695 
L -0 147.796052 
L -0 151.080409 
L -0 154.364765 
L -0 157.649122 
L -0 160.933479 
L -0 164.217836 
L -0 167.502192 
L -0 170.786549 
L -0 174.070906 
L -0 177.355262 
L -0 180.639619 
L -0 183.923976 
L -0 187.208333 
L -0 190.492689 
L -0 193.777046 
L -0 197.061403 
L -0 200.345759 
L -0 203.630116 
L -0 206.914473 
L -0 210.19883 
L -0 213.483186 
L -0 216.767543 
L -0 220.0519 
L -0 223.336256 
L -0 226.620613 
L -0 229.90497 
L -0 233.189327 
L -0 236.473683 
L -0 239.75804 
L -0 243.042397 
L -0 246.326753 
L -0 249.61111 
L -0 252.895467 
L -0 256.179824 
L -0 259.46418 
L -0 262.748537 
L -0 266.032894 
L -0 269.31725 
L -0 272.601607 
L -0 275.885964 
L -0 279.170321 
L -0 282.454677 
L -0 285.739034 
L -0 289.023391 
L -0 292.307747 
L -0 295.592104 
L -0 298.876461 
L -0 302.160818 
L -0 305.445174 
L -0 308.729531 
L -0 312.013888 
L -0 315.298244 
L -0 318.582601 
L -0 321.866958 
L -0 325.151315 
L -0 328.435671 
L -0 331.720028 
L -0 335.004385 
L -0 338.288741 
L -0 341.573098 
L -0 344.857455 
L -0 348.141812 
L -0 351.426168 
L -0 354.710525 
L -0 357.994882 
L -0 361.279238 
L -0 364.563595 
L -0 367.847952 
L -0 371.132309 
L -0 374.416665 
L -0 377.701022 
L -0 380.985379 
L -0 384.269735 
L -0 387.554092 
L -0 390.838449 
L -0 394.122806 
L -0 397.407162 
L -0 400.691519 
L -0 403.975876 
L -0 407.260232 
L -0 410.544589 
L -0 413.828946 
L -0 417.113303 
L -0 420.397659 
L -0 423.682016 
L -0 426.966373 
L -0 430.250729 
L -0 433.535086 
L -0 436.819443 
L -0 440.1038 
L -0 443.388156 
L -0 446.672513 
L -0 449.95687 
L -0 453.241226 
L -0 456.525583 
L -0 459.80994 
L -0 463.094296 
L -0 466.378653 
L -0 469.66301 
L -0 472.947367 
L -0 476.231723 
L -0 479.51608 
L -0 482.800437 
L -0 486.084793 
L -0 489.36915 
L -0 492.653507 
L -0 495.937864 
L -0 499.22222 
L -0 502.506577 
L -0 505.790934 
L -0 509.07529 
L -0 512.359647 
L -0 515.644004 
L -0 518.928361 
L -0 522.212717 
L -0 525.497074 
L -0 528.781431 
L -0 532.065787 
L -0 535.350144 
L -0 538.634501 
L -0 541.918858 
L -0 545.203214 
L -0 548.487571 
L -0 551.771928 
L -0 555.056284 
L -0 558.340641 
L -0 561.624998 
L -0 564.909355 
L -0 568.193711 
L -0 571.478068 
L -0 574.762425 
L -0 578.046781 
L -0 581.331138 
L -0 584.615495 
L -0 587.899852 
L -0 591.184208 
L -0 594.468565 
L -0 597.752922 
L -0 601.037278 
L -0 604.321635 
L -0 607.605992 
L -0 610.890349 
L -0 614.174705 
L -0 617.459062 
L -0 620.743419 
L -0 624.027775 
L -0 627.312132 
L -0 630.596489 
L -0 633.880846 
L -0 637.165202 
L -0 640.449559 
L -0 643.733916 
L -0 647.018272 
L -0 650.302629 
L -0 653.586986 
L -0 656.871343 
L -0 660.155699 
L -0 663.440056 
L -0 666.724413 
L -0 670.008769 
L -0 673.293126 
L -0 676.577483 
L -0 679.86184 
L -0 683.146196 
L -0 686.430553 
L -0 689.71491 
L -0 692.999266 
L -0 696.283623 
L -0 699.56798 
L -0 702.852337 
L -0 706.136693 
L -0 709.42105 
L -0 712.705407 
L -0 715.989763 
L -0 719.27412 
L -0 722.558477 
L -0 725.842834 
L -0 729.12719 
L -0 732.411547 
L -0 735.695904 
L -0 738.98026 
L -0 742.264617 
L -0 745.548974 
L -0 748.833331 
L -0 752.117687 
L -0 755.402044 
L -0 758.686401 
L -0 761.970757 
L -0 765.255114 
L -0 768.539471 
L -0 771.823827 
L -0 775.108184 
L -0 778.392541 
L -0 781.676898 
L -0 784.961254 
L -0 788.245611 
L -0 791.529968 
L -0 794.814324 
L -0 798.098681 
L -0 801.383038 
L -0 804.667395 
L -0 807.951751 
L -0 811.236108 
L -0 814.520465 
L -0 817.804821 
z
" clip-path="url(#p663569221d)" style="fill: #f5f9fe; fill-opacity: 0.9"/>
    <path clip-path="url(#p663569221d)" style="fill: #eff6fc; fill-opacity: 0.9"/>
    <path clip-path="url(#p663569221d)" style="fill: #eaf3fb; fill-opacity: 0.9"/>
    <path clip-path="url(#p663569221d)" style="fill: #e5eff9; fill-opacity: 0.9"/>
    <path clip-path="url(#p663569221d)" style="fill: #dfecf7; fill-opacity: 0.9"/>
    <path clip-path="url(#p663569221d)" style="fill: #dae8f6; fill-opacity: 0.9"/>
    <path clip-path="url(#p663569221d)" style="fill: #d6e5f4; fill-opacity: 0.9"/>
    <path clip-path="url(#p663569221d)" style="fill: #d0e2f2; fill-opacity: 0.9"/>
    <path clip-path="url(#p663569221d)" style="fill: #cbdef1; fill-opacity: 0.9"/>
    <path clip-path="url(#p663569221d)" style="fill: #c6dbef; fill-opacity: 0.9"/>
    <path clip-path="url(#p663569221d)" style="fill: #bed8ec; fill-opacity: 0.9"/>
    <path clip-path="url(#p663569221d)" style="fill: #b5d4e9; fill-opacity: 0.9"/>
    <path clip-path="url(#p663569221d)" style="fill: #add0e6; fill-opacity: 0.9"/>
    <path clip-path="url(#p663569221d)" style="fill: #a5cde3; fill-opacity: 0.9"/>
    <path clip-path="url(#p663569221d)" style="fill: #9cc9e1; fill-opacity: 0.9"/>
    <path clip-path="url(#p663569221d)" style="fill: #91c3de; fill-opacity: 0.9"/>
    <path clip-path="url(#p663569221d)" style="fill: #85bcdc; fill-opacity: 0.9"/>
    <path clip-path="url(#p663569221d)" style="fill: #7cb7da; fill-opacity: 0.9"/>
    <path clip-path="url(#p663569221d)" style="fill: #71b1d7; fill-opacity: 0.9"/>
    <path clip-path="url(#p663569221d)" style="fill: #66abd4; fill-opacity: 0.9"/>
    <path clip-path="url(#p663569221d)" style="fill: #5da5d1; fill-opacity: 0.9"/>
    <path clip-path="url(#p663569221d)" style="fill: #56a0ce; fill-opacity: 0.9"/>
    <path clip-path="url(#p663569221d)" style="fill: #4d99ca; fill-opacity: 0.9"/>
    <path clip-path="url(#p663569221d)" style="fill: #4493c7; fill-opacity: 0.9"/>
    <path clip-path="url(#p663569221d)" style="fill: #3c8cc3; fill-opacity: 0.9"/>
    <path clip-path="url(#p663569221d)" style="fill: #3686c0; fill-opacity: 0.9"/>
    <path clip-path="url(#p663569221d)" style="fill: #2f7fbc; fill-opacity: 0.9"/>
    <path clip-path="url(#p663569221d)" style="fill: #2777b8; fill-opacity: 0.9"/>
    <path clip-path="url(#p663569221d)" style="fill: #2070b4; fill-opacity: 0.9"/>
    <path clip-path="url(#p663569221d)" style="fill: #1c6ab0; fill-opacity: 0.9"/>
    <path clip-path="url(#p663569221d)" style="fill: #1663aa; fill-opacity: 0.9"/>
    <path clip-path="url(#p663569221d)" style="fill: #115ca5; fill-opacity: 0.9"/>
    <path clip-path="url(#p663569221d)" style="fill: #0c56a0; fill-opacity: 0.9"/>
    <path clip-path="url(#p663569221d)" style="fill: #084f99; fill-opacity: 0.9"/>
    <path clip-path="url(#p663569221d)" style="fill: #08488e; fill-opacity: 0.9"/>
    <path clip-path="url(#p663569221d)" style="fill: #084184; fill-opacity: 0.9"/>
    <path clip-path="url(#p663569221d)" style="fill: #083a7a; fill-opacity: 0.9"/>
    <path clip-path="url(#p663569221d)" style="fill: #083370; fill-opacity: 0.9"/>
    <path clip-path="url(#p663569221d)" style="fill: #08306b; fill-opacity: 0.9"/>
   </g>
   <g id="QuadContourSet_2">
    <path clip-path="url(#p663569221d)" style="fill: none"/>
    <path clip-path="url(#p663569221d)" style="fill: none"/>
    <path clip-path="url(#p663569221d)" style="fill: none"/>
    <path clip-path="url(#p663569221d)" style="fill: none"/>
    <path clip-path="url(#p663569221d)" style="fill: none"/>
    <path clip-path="url(#p663569221d)" style="fill: none"/>
    <path clip-path="url(#p663569221d)" style="fill: none"/>
    <path clip-path="url(#p663569221d)" style="fill: none"/>
    <path clip-path="url(#p663569221d)" style="fill: none"/>
    <path clip-path="url(#p663569221d)" style="fill: none"/>
    <path clip-path="url(#p663569221d)" style="fill: none"/>
    <path clip-path="url(#p663569221d)" style="fill: none"/>
    <path clip-path="url(#p663569221d)" style="fill: none"/>
    <path clip-path="url(#p663569221d)" style="fill: none"/>
    <path clip-path="url(#p663569221d)" style="fill: none"/>
    <path clip-path="url(#p663569221d)" style="fill: none"/>
    <path clip-path="url(#p663569221d)" style="fill: none"/>
    <path clip-path="url(#p663569221d)" style="fill: none"/>
    <path clip-path="url(#p663569221d)" style="fill: none"/>
    <path clip-path="url(#p663569221d)" style="fill: none"/>
    <path clip-path="url(#p663569221d)" style="fill: none"/>
    <path clip-path="url(#p663569221d)" style="fill: none"/>
    <path clip-path="url(#p663569221d)" style="fill: none"/>
    <path clip-path="url(#p663569221d)" style="fill: none"/>
    <path clip-path="url(#p663569221d)" style="fill: none"/>
    <path clip-path="url(#p663569221d)" style="fill: none"/>
    <path clip-path="url(#p663569221d)" style="fill: none"/>
    <path clip-path="url(#p663569221d)" style="fill: none"/>
    <path clip-path="url(#p663569221d)" style="fill: none"/>
    <path clip-path="url(#p663569221d)" style="fill: none"/>
    <path clip-path="url(#p663569221d)" style="fill: none"/>
    <path clip-path="url(#p663569221d)" style="fill: none"/>
    <path clip-path="url(#p663569221d)" style="fill: none"/>
    <path clip-path="url(#p663569221d)" style="fill: none"/>
    <path clip-path="url(#p663569221d)" style="fill: none"/>
    <path clip-path="url(#p663569221d)" style="fill: none"/>
    <path clip-path="url(#p663569221d)" style="fill: none"/>
    <path clip-path="url(#p663569221d)" style="fill: none"/>
    <path clip-path="url(#p663569221d)" style="fill: none"/>
   </g>
  </g>
 </g>
 <defs>
  <clipPath id="p663569221d">
   <rect x="0" y="0" width="576" height="817.804821"/>
  </clipPath>
 </defs>
</svg>
