<?xml version="1.0" encoding="utf-8" standalone="no"?>
<!DOCTYPE svg PUBLIC "-//W3C//DTD SVG 1.1//EN"
  "http://www.w3.org/Graphics/SVG/1.1/DTD/svg11.dtd">
<svg xmlns:xlink="http://www.w3.org/1999/xlink" width="576pt" height="821.133661pt" viewBox="0 0 576 821.133661" xmlns="http://www.w3.org/2000/svg" version="1.1">
 <metadata>
  <rdf:RDF xmlns:dc="http://purl.org/dc/elements/1.1/" xmlns:cc="http://creativecommons.org/ns#" xmlns:rdf="http://www.w3.org/1999/02/22-rdf-syntax-ns#">
   <cc:Work>
    <dc:type rdf:resource="http://purl.org/dc/dcmitype/StillImage"/>
    <dc:date>2025-07-25T22:45:32.609440</dc:date>
    <dc:format>image/svg+xml</dc:format>
    <dc:creator>
     <cc:Agent>
      <dc:title>Matplotlib v3.10.3, https://matplotlib.org/</dc:title>
     </cc:Agent>
    </dc:creator>
   </cc:Work>
  </rdf:RDF>
 </metadata>
 <defs>
  <style type="text/css">*{stroke-linejoin: round; stroke-linecap: butt}</style>
 </defs>
 <g id="figure_1">
  <g id="patch_1">
   <path d="M 0 821.133661 
L 576 821.133661 
L 576 0 
L 0 0 
L 0 821.133661 
z
" style="fill: none; opacity: 0"/>
  </g>
  <g id="axes_1">
   <g id="QuadContourSet_1">
    <path d="M 332.434286 821.133661 
L 333.206892 821.133661 
L 335.725714 819.777336 
L 339.017143 819.107526 
L 341.480761 817.835936 
L 342.308571 817.230413 
L 345.6 816.619186 
L 348.891429 815.781259 
L 351.514604 814.53821 
L 352.182857 814.352698 
L 355.474286 814.444349 
L 358.765714 812.097397 
L 360.375736 811.240484 
L 362.057143 810.198441 
L 365.348571 808.557316 
L 366.54488 807.942759 
L 368.64 806.727631 
L 371.931429 805.952893 
L 374.615926 804.645033 
L 375.222857 804.196576 
L 378.514286 803.421688 
L 381.805714 802.617488 
L 384.119758 801.347308 
L 385.097143 801.018299 
L 387.340432 801.347308 
L 388.388571 801.460791 
L 388.561613 801.347308 
L 391.68 798.972507 
L 393.813824 798.049582 
L 394.971429 797.508164 
L 398.262857 795.684131 
L 399.884998 794.751857 
L 401.554286 793.573463 
L 404.845714 792.703172 
L 407.525941 791.454131 
L 408.137143 791.011933 
L 411.428571 790.156857 
L 414.72 789.271154 
L 416.575337 788.156406 
L 418.011429 787.62463 
L 421.302857 788.002207 
L 424.594286 785.772445 
L 427.885714 784.891507 
L 427.924489 784.85868 
L 431.177143 782.825311 
L 433.201695 781.560955 
L 434.468571 780.520778 
L 437.76 779.405078 
L 440.294968 778.263229 
L 441.051429 777.721834 
L 444.342857 776.842029 
L 447.634286 775.795418 
L 448.925128 774.965503 
L 450.925714 774.168298 
L 454.217143 774.292823 
L 457.508571 772.360527 
L 460.8 772.047428 
L 461.307389 771.667778 
L 464.091429 769.602903 
L 466.304935 768.370052 
L 467.382857 767.615688 
L 470.674286 766.066335 
L 472.972702 765.072327 
L 473.965714 764.399844 
L 477.257143 763.496955 
L 480.548571 762.321804 
L 481.362776 761.774601 
L 483.84 760.752355 
L 487.131429 760.663304 
L 490.422857 758.597141 
L 493.714286 758.834854 
L 494.281422 758.476876 
L 497.005714 756.372516 
L 499.620831 755.17915 
L 500.297143 754.812908 
L 503.588571 752.900461 
L 505.7479 751.881425 
L 506.88 751.0837 
L 510.171429 750.139929 
L 513.462857 748.886871 
L 513.897296 748.583699 
L 516.754286 747.364811 
L 520.045714 747.089775 
L 522.706752 745.285974 
L 523.337143 744.932035 
L 525.636787 745.285974 
L 526.628571 745.621332 
L 529.92 745.311798 
L 529.947426 745.285974 
L 533.211429 742.821476 
L 534.314963 741.988248 
L 536.502857 740.225465 
L 538.759648 738.690522 
L 539.794286 737.760201 
L 543.085714 736.789947 
L 546.377143 735.463454 
L 546.47376 735.392797 
L 549.668571 733.971615 
L 552.96 733.530467 
L 554.969576 732.095071 
L 556.251429 731.363325 
L 559.542857 731.76425 
L 561.535661 732.095071 
L 562.834286 732.221502 
L 563.004691 732.095071 
L 566.125714 729.605443 
L 567.291823 728.797346 
L 569.417143 727.155562 
L 571.935511 725.49962 
L 572.708571 724.921947 
L 576 723.449121 
L 576 722.77631 
L 572.708571 723.712979 
L 570.317633 725.49962 
L 569.417143 726.091734 
L 566.125714 728.434181 
L 562.834286 727.806159 
L 561.645804 728.797346 
L 559.542857 730.250705 
L 556.251429 730.223507 
L 552.972874 732.095071 
L 552.96 732.104267 
L 549.668571 733.155449 
L 546.377143 733.980149 
L 544.845296 735.392797 
L 543.085714 736.120871 
L 539.794286 736.727803 
L 537.611488 738.690522 
L 536.502857 739.444551 
L 533.345724 741.988248 
L 533.211429 742.089649 
L 531.662029 741.988248 
L 529.92 741.632178 
L 529.536993 741.988248 
L 526.628571 743.881547 
L 523.337143 743.685798 
L 520.487109 745.285974 
L 520.045714 745.585176 
L 516.754286 746.501714 
L 513.462857 747.374356 
L 512.20541 748.583699 
L 510.171429 749.454421 
L 506.88 750.046843 
L 504.276432 751.881425 
L 503.588571 752.206041 
L 500.297143 753.610327 
L 497.400113 755.17915 
L 497.005714 755.359127 
L 493.714286 757.507727 
L 490.422857 757.152143 
L 488.032809 758.476876 
L 487.131429 759.061169 
L 483.84 759.832749 
L 480.548571 760.76716 
L 479.554518 761.774601 
L 477.257143 762.79872 
L 473.965714 763.339101 
L 471.406372 765.072327 
L 470.674286 765.388936 
L 467.382857 766.605184 
L 464.861012 768.370052 
L 464.091429 768.798685 
L 460.8 770.832497 
L 457.508571 770.689329 
L 455.742632 771.667778 
L 454.217143 772.602518 
L 450.925714 773.190873 
L 447.634286 774.181108 
L 446.892732 774.965503 
L 444.342857 776.128242 
L 441.051429 776.640071 
L 438.78348 778.263229 
L 437.76 778.724245 
L 434.468571 779.658689 
L 432.151719 781.560955 
L 431.177143 782.169589 
L 427.885714 783.652969 
L 424.594286 784.357786 
L 423.667554 784.85868 
L 421.302857 786.1904 
L 418.011429 786.586387 
L 414.72 787.580307 
L 414.16763 788.156406 
L 411.428571 789.409716 
L 408.137143 789.937584 
L 406.040989 791.454131 
L 404.845714 792.011154 
L 401.554286 792.779882 
L 398.760827 794.751857 
L 398.262857 795.038049 
L 394.971429 796.478934 
L 391.68 797.990517 
L 391.563026 798.049582 
L 388.388571 799.661137 
L 385.097143 799.907997 
L 381.805714 800.843981 
L 381.301365 801.347308 
L 378.514286 802.638649 
L 375.222857 803.12953 
L 373.17181 804.645033 
L 371.931429 805.249335 
L 368.64 805.939676 
L 365.348571 807.721812 
L 365.122582 807.942759 
L 362.057143 809.337577 
L 358.986674 811.240484 
L 358.765714 811.358087 
L 355.474286 812.674206 
L 352.182857 813.162175 
L 348.891429 813.903995 
L 348.218818 814.53821 
L 345.6 815.790755 
L 342.308571 816.198149 
L 340.069552 817.835936 
L 339.017143 818.379134 
L 335.725714 819.017434 
L 332.434286 820.407302 
L 331.624643 821.133661 
z
" clip-path="url(#p8b6e8ae136)" style="fill: #f5f9fe; fill-opacity: 0.9"/>
    <path d="M 335.725714 820.537238 
L 339.017143 819.835918 
L 342.308571 818.618252 
L 343.851051 817.835936 
L 345.6 817.447617 
L 348.891429 817.813464 
L 352.182857 815.938391 
L 355.474286 815.311253 
L 356.43379 814.53821 
L 358.765714 812.836707 
L 361.764798 811.240484 
L 362.057143 811.059306 
L 365.348571 809.255239 
L 367.903469 807.942759 
L 368.64 807.515585 
L 371.931429 806.656452 
L 375.222857 805.618627 
L 376.893669 804.645033 
L 378.514286 804.204727 
L 381.805714 804.427965 
L 385.097143 803.718477 
L 388.388571 802.280447 
L 389.811442 801.347308 
L 391.68 799.924312 
L 394.971429 798.527619 
L 395.469007 798.049582 
L 398.262857 796.330213 
L 401.009168 794.751857 
L 401.554286 794.367044 
L 404.845714 793.395191 
L 408.137143 792.37447 
L 409.599102 791.454131 
L 411.428571 790.903998 
L 414.72 790.955794 
L 417.119854 791.454131 
L 418.011429 791.575898 
L 418.13859 791.454131 
L 421.302857 788.983094 
L 423.001941 788.156406 
L 424.594286 787.055926 
L 427.885714 785.779549 
L 428.973407 784.85868 
L 431.177143 783.481034 
L 434.25167 781.560955 
L 434.468571 781.382866 
L 437.76 780.085912 
L 441.051429 778.998676 
L 442.154445 778.263229 
L 444.342857 777.555816 
L 447.634286 777.372412 
L 450.925714 776.674166 
L 454.217143 775.680643 
L 456.29178 774.965503 
L 457.508571 774.28572 
L 460.8 772.858756 
L 462.391703 771.667778 
L 464.091429 770.40712 
L 467.382857 768.67011 
L 467.697177 768.370052 
L 470.674286 766.743734 
L 473.965714 765.586596 
L 474.708357 765.072327 
L 477.257143 764.19519 
L 480.548571 763.819506 
L 483.591269 761.774601 
L 483.84 761.67196 
L 484.718918 761.774601 
L 487.131429 762.292692 
L 490.422857 761.926133 
L 490.580545 761.774601 
L 493.714286 759.662944 
L 495.593349 758.476876 
L 497.005714 757.385904 
L 500.297143 755.894666 
L 501.066079 755.17915 
L 503.588571 753.59488 
L 506.88 752.188105 
L 507.308614 751.881425 
L 510.171429 750.825436 
L 513.462857 750.298647 
L 515.920334 748.583699 
L 516.754286 748.227907 
L 519.990021 748.583699 
L 520.045714 748.650363 
L 523.337143 749.395799 
L 526.056379 748.583699 
L 526.628571 748.359283 
L 529.92 746.224428 
L 530.916664 745.285974 
L 533.211429 743.553303 
L 535.284201 741.988248 
L 536.502857 741.006379 
L 539.794286 738.819989 
L 539.96208 738.690522 
L 543.085714 737.459022 
L 546.377143 736.805211 
L 548.308497 735.392797 
L 549.668571 734.78778 
L 552.96 734.956667 
L 555.647495 735.392797 
L 556.251429 735.852906 
L 559.542857 735.860726 
L 560.021795 735.392797 
L 562.834286 733.109136 
L 564.201065 732.095071 
L 566.125714 730.559786 
L 568.668968 728.797346 
L 569.417143 728.21939 
L 572.708571 726.079822 
L 573.377372 725.49962 
L 576 724.121932 
L 576 723.449121 
L 572.708571 724.921947 
L 571.935511 725.49962 
L 569.417143 727.155562 
L 567.291823 728.797346 
L 566.125714 729.605443 
L 563.004691 732.095071 
L 562.834286 732.221502 
L 561.535661 732.095071 
L 559.542857 731.76425 
L 556.251429 731.363325 
L 554.969576 732.095071 
L 552.96 733.530467 
L 549.668571 733.971615 
L 546.47376 735.392797 
L 546.377143 735.463454 
L 543.085714 736.789947 
L 539.794286 737.760201 
L 538.759648 738.690522 
L 536.502857 740.225465 
L 534.314963 741.988248 
L 533.211429 742.821476 
L 529.947426 745.285974 
L 529.92 745.311798 
L 526.628571 745.621332 
L 525.636787 745.285974 
L 523.337143 744.932035 
L 522.706752 745.285974 
L 520.045714 747.089775 
L 516.754286 747.364811 
L 513.897296 748.583699 
L 513.462857 748.886871 
L 510.171429 750.139929 
L 506.88 751.0837 
L 505.7479 751.881425 
L 503.588571 752.900461 
L 500.297143 754.812908 
L 499.620831 755.17915 
L 497.005714 756.372516 
L 494.281422 758.476876 
L 493.714286 758.834854 
L 490.422857 758.597141 
L 487.131429 760.663304 
L 483.84 760.752355 
L 481.362776 761.774601 
L 480.548571 762.321804 
L 477.257143 763.496955 
L 473.965714 764.399844 
L 472.972702 765.072327 
L 470.674286 766.066335 
L 467.382857 767.615688 
L 466.304935 768.370052 
L 464.091429 769.602903 
L 461.307389 771.667778 
L 460.8 772.047428 
L 457.508571 772.360527 
L 454.217143 774.292823 
L 450.925714 774.168298 
L 448.925128 774.965503 
L 447.634286 775.795418 
L 444.342857 776.842029 
L 441.051429 777.721834 
L 440.294968 778.263229 
L 437.76 779.405078 
L 434.468571 780.520778 
L 433.201695 781.560955 
L 431.177143 782.825311 
L 427.924489 784.85868 
L 427.885714 784.891507 
L 424.594286 785.772445 
L 421.302857 788.002207 
L 418.011429 787.62463 
L 416.575337 788.156406 
L 414.72 789.271154 
L 411.428571 790.156857 
L 408.137143 791.011933 
L 407.525941 791.454131 
L 404.845714 792.703172 
L 401.554286 793.573463 
L 399.884998 794.751857 
L 398.262857 795.684131 
L 394.971429 797.508164 
L 393.813824 798.049582 
L 391.68 798.972507 
L 388.561613 801.347308 
L 388.388571 801.460791 
L 387.340432 801.347308 
L 385.097143 801.018299 
L 384.119758 801.347308 
L 381.805714 802.617488 
L 378.514286 803.421688 
L 375.222857 804.196576 
L 374.615926 804.645033 
L 371.931429 805.952893 
L 368.64 806.727631 
L 366.54488 807.942759 
L 365.348571 808.557316 
L 362.057143 810.198441 
L 360.375736 811.240484 
L 358.765714 812.097397 
L 355.474286 814.444349 
L 352.182857 814.352698 
L 351.514604 814.53821 
L 348.891429 815.781259 
L 345.6 816.619186 
L 342.308571 817.230413 
L 341.480761 817.835936 
L 339.017143 819.107526 
L 335.725714 819.777336 
L 333.206892 821.133661 
L 334.618101 821.133661 
z
" clip-path="url(#p8b6e8ae136)" style="fill: #eff6fc; fill-opacity: 0.9"/>
    <path d="M 335.725714 821.133661 
L 336.436086 821.133661 
L 339.017143 820.56431 
L 342.308571 820.510634 
L 344.625302 821.133661 
L 345.6 821.133661 
L 345.793459 821.133661 
L 348.891429 818.852842 
L 351.76441 817.835936 
L 352.182857 817.597028 
L 355.474286 816.127582 
L 357.44702 814.53821 
L 358.765714 813.576016 
L 362.057143 812.177066 
L 363.043727 811.240484 
L 365.348571 809.953161 
L 368.64 808.659132 
L 369.811744 807.942759 
L 371.931429 807.360011 
L 375.222857 807.298044 
L 378.148736 807.942759 
L 378.514286 808.016105 
L 378.636477 807.942759 
L 381.805714 806.011433 
L 385.097143 805.515681 
L 386.01151 804.645033 
L 388.388571 803.100104 
L 391.061272 801.347308 
L 391.68 800.876117 
L 394.971429 799.536226 
L 396.518843 798.049582 
L 398.262857 796.976295 
L 401.554286 795.518288 
L 402.703283 794.751857 
L 404.845714 794.087209 
L 408.137143 793.9386 
L 411.428571 793.855623 
L 414.72 793.36945 
L 418.011429 792.683895 
L 419.295677 791.454131 
L 421.302857 789.886686 
L 424.594286 788.398661 
L 424.852271 788.156406 
L 427.885714 786.667591 
L 430.022325 784.85868 
L 431.177143 784.136756 
L 434.468571 782.657016 
L 435.801002 781.560955 
L 437.76 780.766746 
L 441.051429 780.470966 
L 444.342857 778.350386 
L 447.274819 781.560955 
L 447.634286 781.629896 
L 447.707845 781.560955 
L 450.925714 779.317112 
L 452.287419 778.263229 
L 454.217143 776.868512 
L 457.508571 775.866959 
L 458.457609 774.965503 
L 460.8 773.670084 
L 463.476017 771.667778 
L 464.091429 771.211338 
L 467.382857 769.853876 
L 468.937212 768.370052 
L 470.674286 767.421133 
L 473.965714 766.9916 
L 476.737289 765.072327 
L 477.257143 764.893425 
L 479.266388 765.072327 
L 480.548571 766.582853 
L 483.84 765.888011 
L 485.366086 765.072327 
L 487.131429 763.98378 
L 490.422857 763.107058 
L 491.809448 761.774601 
L 493.714286 760.491035 
L 496.905275 758.476876 
L 497.005714 758.399292 
L 500.297143 756.923514 
L 502.17174 755.17915 
L 503.588571 754.289299 
L 506.88 753.517844 
L 509.167043 751.881425 
L 510.171429 751.510943 
L 513.462857 751.710422 
L 514.458375 751.881425 
L 516.754286 754.463426 
L 520.045714 752.986122 
L 522.591326 751.881425 
L 523.337143 751.480659 
L 526.628571 749.75502 
L 527.8357 748.583699 
L 529.92 747.137059 
L 531.885903 745.285974 
L 533.211429 744.28513 
L 536.253439 741.988248 
L 536.502857 741.787292 
L 539.794286 740.129417 
L 541.659155 738.690522 
L 543.085714 738.128098 
L 546.377143 738.146969 
L 549.618446 738.690522 
L 549.668571 738.748824 
L 552.96 740.079944 
L 556.251429 739.515798 
L 557.103526 738.690522 
L 559.542857 736.928782 
L 561.114979 735.392797 
L 562.834286 733.99677 
L 565.397439 732.095071 
L 566.125714 731.514129 
L 569.417143 729.560535 
L 570.207307 728.797346 
L 572.708571 727.190944 
L 574.658165 725.49962 
L 576 724.794743 
L 576 724.121932 
L 573.377372 725.49962 
L 572.708571 726.079822 
L 569.417143 728.21939 
L 568.668968 728.797346 
L 566.125714 730.559786 
L 564.201065 732.095071 
L 562.834286 733.109136 
L 560.021795 735.392797 
L 559.542857 735.860726 
L 556.251429 735.852906 
L 555.647495 735.392797 
L 552.96 734.956667 
L 549.668571 734.78778 
L 548.308497 735.392797 
L 546.377143 736.805211 
L 543.085714 737.459022 
L 539.96208 738.690522 
L 539.794286 738.819989 
L 536.502857 741.006379 
L 535.284201 741.988248 
L 533.211429 743.553303 
L 530.916664 745.285974 
L 529.92 746.224428 
L 526.628571 748.359283 
L 526.056379 748.583699 
L 523.337143 749.395799 
L 520.045714 748.650363 
L 519.990021 748.583699 
L 516.754286 748.227907 
L 515.920334 748.583699 
L 513.462857 750.298647 
L 510.171429 750.825436 
L 507.308614 751.881425 
L 506.88 752.188105 
L 503.588571 753.59488 
L 501.066079 755.17915 
L 500.297143 755.894666 
L 497.005714 757.385904 
L 495.593349 758.476876 
L 493.714286 759.662944 
L 490.580545 761.774601 
L 490.422857 761.926133 
L 487.131429 762.292692 
L 484.718918 761.774601 
L 483.84 761.67196 
L 483.591269 761.774601 
L 480.548571 763.819506 
L 477.257143 764.19519 
L 474.708357 765.072327 
L 473.965714 765.586596 
L 470.674286 766.743734 
L 467.697177 768.370052 
L 467.382857 768.67011 
L 464.091429 770.40712 
L 462.391703 771.667778 
L 460.8 772.858756 
L 457.508571 774.28572 
L 456.29178 774.965503 
L 454.217143 775.680643 
L 450.925714 776.674166 
L 447.634286 777.372412 
L 444.342857 777.555816 
L 442.154445 778.263229 
L 441.051429 778.998676 
L 437.76 780.085912 
L 434.468571 781.382866 
L 434.25167 781.560955 
L 431.177143 783.481034 
L 428.973407 784.85868 
L 427.885714 785.779549 
L 424.594286 787.055926 
L 423.001941 788.156406 
L 421.302857 788.983094 
L 418.13859 791.454131 
L 418.011429 791.575898 
L 417.119854 791.454131 
L 414.72 790.955794 
L 411.428571 790.903998 
L 409.599102 791.454131 
L 408.137143 792.37447 
L 404.845714 793.395191 
L 401.554286 794.367044 
L 401.009168 794.751857 
L 398.262857 796.330213 
L 395.469007 798.049582 
L 394.971429 798.527619 
L 391.68 799.924312 
L 389.811442 801.347308 
L 388.388571 802.280447 
L 385.097143 803.718477 
L 381.805714 804.427965 
L 378.514286 804.204727 
L 376.893669 804.645033 
L 375.222857 805.618627 
L 371.931429 806.656452 
L 368.64 807.515585 
L 367.903469 807.942759 
L 365.348571 809.255239 
L 362.057143 811.059306 
L 361.764798 811.240484 
L 358.765714 812.836707 
L 356.43379 814.53821 
L 355.474286 815.311253 
L 352.182857 815.938391 
L 348.891429 817.813464 
L 345.6 817.447617 
L 343.851051 817.835936 
L 342.308571 818.618252 
L 339.017143 819.835918 
L 335.725714 820.537238 
L 334.618101 821.133661 
z
" clip-path="url(#p8b6e8ae136)" style="fill: #eaf3fb; fill-opacity: 0.9"/>
    <path d="M 339.017143 821.133661 
L 342.308571 821.133661 
L 344.625302 821.133661 
L 342.308571 820.510634 
L 339.017143 820.56431 
L 336.436086 821.133661 
z
M 348.891429 819.881119 
L 352.182857 819.191201 
L 353.628617 817.835936 
L 355.474286 816.943911 
L 358.46025 814.53821 
L 358.765714 814.315326 
L 362.057143 813.363305 
L 364.293299 811.240484 
L 365.348571 810.651084 
L 368.64 810.223708 
L 371.931429 809.424742 
L 373.556159 811.240484 
L 375.222857 811.727762 
L 375.75926 811.240484 
L 378.514286 809.545353 
L 381.184143 807.942759 
L 381.805714 807.563975 
L 385.097143 806.716522 
L 387.272651 804.645033 
L 388.388571 803.91976 
L 391.68 802.508865 
L 392.957897 801.347308 
L 394.971429 800.544832 
L 397.568679 798.049582 
L 398.262857 797.622376 
L 401.554286 797.006234 
L 404.845714 795.128543 
L 407.348787 798.049582 
L 408.137143 798.3259 
L 408.448504 798.049582 
L 411.428571 796.379979 
L 414.72 795.840311 
L 415.911732 794.751857 
L 418.011429 793.791893 
L 420.452764 791.454131 
L 421.302857 790.790277 
L 424.594286 790.097714 
L 426.661646 788.156406 
L 427.885714 787.555633 
L 431.071243 784.85868 
L 431.177143 784.792478 
L 434.468571 784.03845 
L 437.480349 781.560955 
L 437.76 781.44758 
L 439.046053 781.560955 
L 441.051429 783.925877 
L 444.342857 783.085319 
L 447.634286 783.339549 
L 449.532005 781.560955 
L 450.925714 780.589111 
L 453.930949 778.263229 
L 454.217143 778.056381 
L 457.508571 777.260457 
L 459.924661 774.965503 
L 460.8 774.481412 
L 464.091429 772.996281 
L 465.566778 771.667778 
L 467.382857 771.037642 
L 470.177246 768.370052 
L 470.674286 768.098532 
L 473.817516 768.370052 
L 473.965714 768.554283 
L 477.257143 770.583723 
L 480.548571 770.018059 
L 482.318619 768.370052 
L 483.84 767.353866 
L 487.131429 766.11362 
L 488.28064 765.072327 
L 490.422857 764.287983 
L 493.038351 761.774601 
L 493.714286 761.319125 
L 497.005714 760.468039 
L 499.126381 758.476876 
L 500.297143 757.952362 
L 503.277402 755.17915 
L 503.588571 754.983718 
L 506.88 754.847583 
L 508.840985 755.17915 
L 510.171429 756.74733 
L 511.806416 758.476876 
L 513.462857 759.048405 
L 514.079338 758.476876 
L 516.754286 756.924862 
L 519.233001 755.17915 
L 520.045714 754.669845 
L 523.337143 753.59358 
L 525.140446 751.881425 
L 526.628571 751.030919 
L 529.150606 748.583699 
L 529.92 748.049689 
L 532.855141 745.285974 
L 533.211429 745.016957 
L 536.502857 743.960905 
L 538.606064 741.988248 
L 539.794286 741.438845 
L 543.085714 740.992811 
L 543.711534 741.988248 
L 546.377143 744.786368 
L 549.668571 743.769916 
L 552.96 743.270341 
L 554.319026 741.988248 
L 556.251429 740.948093 
L 558.582372 738.690522 
L 559.542857 737.996838 
L 562.208164 735.392797 
L 562.834286 734.884404 
L 566.125714 733.412984 
L 567.54398 732.095071 
L 569.417143 731.231555 
L 571.93739 728.797346 
L 572.708571 728.302065 
L 575.938958 725.49962 
L 576 725.467555 
L 576 724.794743 
L 574.658165 725.49962 
L 572.708571 727.190944 
L 570.207307 728.797346 
L 569.417143 729.560535 
L 566.125714 731.514129 
L 565.397439 732.095071 
L 562.834286 733.99677 
L 561.114979 735.392797 
L 559.542857 736.928782 
L 557.103526 738.690522 
L 556.251429 739.515798 
L 552.96 740.079944 
L 549.668571 738.748824 
L 549.618446 738.690522 
L 546.377143 738.146969 
L 543.085714 738.128098 
L 541.659155 738.690522 
L 539.794286 740.129417 
L 536.502857 741.787292 
L 536.253439 741.988248 
L 533.211429 744.28513 
L 531.885903 745.285974 
L 529.92 747.137059 
L 527.8357 748.583699 
L 526.628571 749.75502 
L 523.337143 751.480659 
L 522.591326 751.881425 
L 520.045714 752.986122 
L 516.754286 754.463426 
L 514.458375 751.881425 
L 513.462857 751.710422 
L 510.171429 751.510943 
L 509.167043 751.881425 
L 506.88 753.517844 
L 503.588571 754.289299 
L 502.17174 755.17915 
L 500.297143 756.923514 
L 497.005714 758.399292 
L 496.905275 758.476876 
L 493.714286 760.491035 
L 491.809448 761.774601 
L 490.422857 763.107058 
L 487.131429 763.98378 
L 485.366086 765.072327 
L 483.84 765.888011 
L 480.548571 766.582853 
L 479.266388 765.072327 
L 477.257143 764.893425 
L 476.737289 765.072327 
L 473.965714 766.9916 
L 470.674286 767.421133 
L 468.937212 768.370052 
L 467.382857 769.853876 
L 464.091429 771.211338 
L 463.476017 771.667778 
L 460.8 773.670084 
L 458.457609 774.965503 
L 457.508571 775.866959 
L 454.217143 776.868512 
L 452.287419 778.263229 
L 450.925714 779.317112 
L 447.707845 781.560955 
L 447.634286 781.629896 
L 447.274819 781.560955 
L 444.342857 778.350386 
L 441.051429 780.470966 
L 437.76 780.766746 
L 435.801002 781.560955 
L 434.468571 782.657016 
L 431.177143 784.136756 
L 430.022325 784.85868 
L 427.885714 786.667591 
L 424.852271 788.156406 
L 424.594286 788.398661 
L 421.302857 789.886686 
L 419.295677 791.454131 
L 418.011429 792.683895 
L 414.72 793.36945 
L 411.428571 793.855623 
L 408.137143 793.9386 
L 404.845714 794.087209 
L 402.703283 794.751857 
L 401.554286 795.518288 
L 398.262857 796.976295 
L 396.518843 798.049582 
L 394.971429 799.536226 
L 391.68 800.876117 
L 391.061272 801.347308 
L 388.388571 803.100104 
L 386.01151 804.645033 
L 385.097143 805.515681 
L 381.805714 806.011433 
L 378.636477 807.942759 
L 378.514286 808.016105 
L 378.148736 807.942759 
L 375.222857 807.298044 
L 371.931429 807.360011 
L 369.811744 807.942759 
L 368.64 808.659132 
L 365.348571 809.953161 
L 363.043727 811.240484 
L 362.057143 812.177066 
L 358.765714 813.576016 
L 357.44702 814.53821 
L 355.474286 816.127582 
L 352.182857 817.597028 
L 351.76441 817.835936 
L 348.891429 818.852842 
L 345.793459 821.133661 
L 347.190137 821.133661 
z
" clip-path="url(#p8b6e8ae136)" style="fill: #e5eff9; fill-opacity: 0.9"/>
    <path d="M 348.891429 820.909396 
L 352.182857 820.774526 
L 355.317665 817.835936 
L 355.474286 817.76024 
L 358.765714 817.297251 
L 362.057143 814.721305 
L 362.623842 814.53821 
L 365.348571 813.786093 
L 368.64 814.181038 
L 371.460713 814.53821 
L 371.931429 814.598503 
L 372.024171 814.53821 
L 375.222857 813.985561 
L 378.244682 811.240484 
L 378.514286 811.074601 
L 381.805714 810.676235 
L 385.007573 807.942759 
L 385.097143 807.917362 
L 388.388571 806.793074 
L 391.68 806.183053 
L 394.971429 805.305734 
L 396.883055 804.645033 
L 398.262857 804.131506 
L 401.554286 803.053992 
L 404.845714 803.352412 
L 407.604691 801.347308 
L 408.137143 801.186332 
L 411.428571 799.304389 
L 414.72 798.090601 
L 414.884663 798.049582 
L 418.011429 797.350372 
L 421.302857 796.480863 
L 424.594286 795.696173 
L 426.773581 794.751857 
L 427.885714 794.294036 
L 431.177143 793.462667 
L 434.468571 792.028013 
L 435.778454 791.454131 
L 437.76 790.627771 
L 441.051429 789.32223 
L 443.815326 788.156406 
L 444.342857 787.970579 
L 447.634286 787.145343 
L 450.925714 786.148406 
L 454.217143 785.460237 
L 455.505252 784.85868 
L 457.508571 784.0949 
L 460.8 783.265092 
L 464.091429 782.311981 
L 465.483509 781.560955 
L 467.382857 780.558612 
L 470.674286 779.485508 
L 472.730212 778.263229 
L 473.965714 777.70953 
L 477.257143 776.625219 
L 480.548571 775.591844 
L 482.654453 774.965503 
L 483.84 774.612178 
L 487.131429 774.116951 
L 490.422857 772.911323 
L 493.714286 772.973327 
L 495.45679 771.667778 
L 497.005714 770.745873 
L 500.297143 770.029422 
L 503.485634 768.370052 
L 503.588571 768.333848 
L 506.88 766.944529 
L 510.171429 765.744874 
L 513.462857 765.617772 
L 516.754286 765.905254 
L 519.698491 765.072327 
L 520.045714 765.001551 
L 523.337143 764.543383 
L 526.628571 764.897262 
L 529.92 762.882444 
L 531.774796 761.774601 
L 533.211429 760.893917 
L 536.502857 759.759811 
L 538.339072 758.476876 
L 539.794286 757.783705 
L 543.069698 755.17915 
L 543.085714 755.169489 
L 546.377143 753.904469 
L 549.668571 754.075046 
L 552.96 754.067018 
L 556.251429 755.159818 
L 559.542857 753.755846 
L 562.834286 753.13898 
L 566.125714 752.208998 
L 566.693793 751.881425 
L 569.417143 749.662978 
L 571.273578 748.583699 
L 572.708571 747.384739 
L 575.755272 745.285974 
L 576 745.119224 
L 576 741.988248 
L 576 738.690522 
L 576 735.392797 
L 576 732.095071 
L 576 728.797346 
L 576 725.49962 
L 576 725.467555 
L 575.938958 725.49962 
L 572.708571 728.302065 
L 571.93739 728.797346 
L 569.417143 731.231555 
L 567.54398 732.095071 
L 566.125714 733.412984 
L 562.834286 734.884404 
L 562.208164 735.392797 
L 559.542857 737.996838 
L 558.582372 738.690522 
L 556.251429 740.948093 
L 554.319026 741.988248 
L 552.96 743.270341 
L 549.668571 743.769916 
L 546.377143 744.786368 
L 543.711534 741.988248 
L 543.085714 740.992811 
L 539.794286 741.438845 
L 538.606064 741.988248 
L 536.502857 743.960905 
L 533.211429 745.016957 
L 532.855141 745.285974 
L 529.92 748.049689 
L 529.150606 748.583699 
L 526.628571 751.030919 
L 525.140446 751.881425 
L 523.337143 753.59358 
L 520.045714 754.669845 
L 519.233001 755.17915 
L 516.754286 756.924862 
L 514.079338 758.476876 
L 513.462857 759.048405 
L 511.806416 758.476876 
L 510.171429 756.74733 
L 508.840985 755.17915 
L 506.88 754.847583 
L 503.588571 754.983718 
L 503.277402 755.17915 
L 500.297143 757.952362 
L 499.126381 758.476876 
L 497.005714 760.468039 
L 493.714286 761.319125 
L 493.038351 761.774601 
L 490.422857 764.287983 
L 488.28064 765.072327 
L 487.131429 766.11362 
L 483.84 767.353866 
L 482.318619 768.370052 
L 480.548571 770.018059 
L 477.257143 770.583723 
L 473.965714 768.554283 
L 473.817516 768.370052 
L 470.674286 768.098532 
L 470.177246 768.370052 
L 467.382857 771.037642 
L 465.566778 771.667778 
L 464.091429 772.996281 
L 460.8 774.481412 
L 459.924661 774.965503 
L 457.508571 777.260457 
L 454.217143 778.056381 
L 453.930949 778.263229 
L 450.925714 780.589111 
L 449.532005 781.560955 
L 447.634286 783.339549 
L 444.342857 783.085319 
L 441.051429 783.925877 
L 439.046053 781.560955 
L 437.76 781.44758 
L 437.480349 781.560955 
L 434.468571 784.03845 
L 431.177143 784.792478 
L 431.071243 784.85868 
L 427.885714 787.555633 
L 426.661646 788.156406 
L 424.594286 790.097714 
L 421.302857 790.790277 
L 420.452764 791.454131 
L 418.011429 793.791893 
L 415.911732 794.751857 
L 414.72 795.840311 
L 411.428571 796.379979 
L 408.448504 798.049582 
L 408.137143 798.3259 
L 407.348787 798.049582 
L 404.845714 795.128543 
L 401.554286 797.006234 
L 398.262857 797.622376 
L 397.568679 798.049582 
L 394.971429 800.544832 
L 392.957897 801.347308 
L 391.68 802.508865 
L 388.388571 803.91976 
L 387.272651 804.645033 
L 385.097143 806.716522 
L 381.805714 807.563975 
L 381.184143 807.942759 
L 378.514286 809.545353 
L 375.75926 811.240484 
L 375.222857 811.727762 
L 373.556159 811.240484 
L 371.931429 809.424742 
L 368.64 810.223708 
L 365.348571 810.651084 
L 364.293299 811.240484 
L 362.057143 813.363305 
L 358.765714 814.315326 
L 358.46025 814.53821 
L 355.474286 816.943911 
L 353.628617 817.835936 
L 352.182857 819.191201 
L 348.891429 819.881119 
L 347.190137 821.133661 
L 348.586815 821.133661 
z
" clip-path="url(#p8b6e8ae136)" style="fill: #dfecf7; fill-opacity: 0.9"/>
    <path d="M 348.891429 821.133661 
L 352.182857 821.133661 
L 355.474286 821.133661 
L 358.765714 821.133661 
L 362.057143 821.133661 
L 365.348571 821.133661 
L 368.64 821.133661 
L 371.931429 821.133661 
L 375.222857 821.133661 
L 378.514286 821.133661 
L 381.805714 821.133661 
L 385.097143 821.133661 
L 388.388571 821.133661 
L 391.68 821.133661 
L 394.971429 821.133661 
L 398.262857 821.133661 
L 401.554286 821.133661 
L 404.845714 821.133661 
L 408.137143 821.133661 
L 411.428571 821.133661 
L 414.72 821.133661 
L 418.011429 821.133661 
L 421.302857 821.133661 
L 424.594286 821.133661 
L 427.885714 821.133661 
L 431.177143 821.133661 
L 434.468571 821.133661 
L 437.76 821.133661 
L 441.051429 821.133661 
L 444.342857 821.133661 
L 447.634286 821.133661 
L 450.925714 821.133661 
L 454.217143 821.133661 
L 457.508571 821.133661 
L 458.454377 821.133661 
L 460.8 820.203426 
L 464.091429 819.132115 
L 467.382857 817.956817 
L 467.752931 817.835936 
L 470.674286 816.914369 
L 473.965714 815.694639 
L 477.257143 814.588443 
L 477.364315 814.53821 
L 480.548571 813.275784 
L 483.84 812.009574 
L 485.672321 811.240484 
L 487.131429 810.658262 
L 490.422857 809.320989 
L 493.714286 807.997175 
L 493.907046 807.942759 
L 497.005714 807.058026 
L 500.297143 806.079986 
L 503.588571 805.149825 
L 505.383937 804.645033 
L 506.88 804.260216 
L 510.171429 802.97181 
L 513.462857 801.847792 
L 514.694479 801.347308 
L 516.754286 800.59922 
L 520.045714 798.948155 
L 521.937378 798.049582 
L 523.337143 797.362463 
L 526.628571 796.180884 
L 529.92 795.114159 
L 531.07704 794.751857 
L 533.211429 794.05798 
L 536.502857 793.201081 
L 539.794286 792.143824 
L 542.149635 791.454131 
L 543.085714 791.177923 
L 546.377143 790.240459 
L 549.668571 788.665164 
L 550.770029 788.156406 
L 552.96 787.163043 
L 556.251429 785.603569 
L 557.965199 784.85868 
L 559.542857 784.201863 
L 562.834286 782.980472 
L 566.125714 781.987527 
L 567.518683 781.560955 
L 569.417143 781.003085 
L 572.708571 780.112669 
L 576 779.178895 
L 576 778.263229 
L 576 774.965503 
L 576 771.667778 
L 576 768.370052 
L 576 765.072327 
L 576 761.774601 
L 576 758.476876 
L 576 755.17915 
L 576 751.881425 
L 576 748.583699 
L 576 745.285974 
L 576 745.119224 
L 575.755272 745.285974 
L 572.708571 747.384739 
L 571.273578 748.583699 
L 569.417143 749.662978 
L 566.693793 751.881425 
L 566.125714 752.208998 
L 562.834286 753.13898 
L 559.542857 753.755846 
L 556.251429 755.159818 
L 552.96 754.067018 
L 549.668571 754.075046 
L 546.377143 753.904469 
L 543.085714 755.169489 
L 543.069698 755.17915 
L 539.794286 757.783705 
L 538.339072 758.476876 
L 536.502857 759.759811 
L 533.211429 760.893917 
L 531.774796 761.774601 
L 529.92 762.882444 
L 526.628571 764.897262 
L 523.337143 764.543383 
L 520.045714 765.001551 
L 519.698491 765.072327 
L 516.754286 765.905254 
L 513.462857 765.617772 
L 510.171429 765.744874 
L 506.88 766.944529 
L 503.588571 768.333848 
L 503.485634 768.370052 
L 500.297143 770.029422 
L 497.005714 770.745873 
L 495.45679 771.667778 
L 493.714286 772.973327 
L 490.422857 772.911323 
L 487.131429 774.116951 
L 483.84 774.612178 
L 482.654453 774.965503 
L 480.548571 775.591844 
L 477.257143 776.625219 
L 473.965714 777.70953 
L 472.730212 778.263229 
L 470.674286 779.485508 
L 467.382857 780.558612 
L 465.483509 781.560955 
L 464.091429 782.311981 
L 460.8 783.265092 
L 457.508571 784.0949 
L 455.505252 784.85868 
L 454.217143 785.460237 
L 450.925714 786.148406 
L 447.634286 787.145343 
L 444.342857 787.970579 
L 443.815326 788.156406 
L 441.051429 789.32223 
L 437.76 790.627771 
L 435.778454 791.454131 
L 434.468571 792.028013 
L 431.177143 793.462667 
L 427.885714 794.294036 
L 426.773581 794.751857 
L 424.594286 795.696173 
L 421.302857 796.480863 
L 418.011429 797.350372 
L 414.884663 798.049582 
L 414.72 798.090601 
L 411.428571 799.304389 
L 408.137143 801.186332 
L 407.604691 801.347308 
L 404.845714 803.352412 
L 401.554286 803.053992 
L 398.262857 804.131506 
L 396.883055 804.645033 
L 394.971429 805.305734 
L 391.68 806.183053 
L 388.388571 806.793074 
L 385.097143 807.917362 
L 385.007573 807.942759 
L 381.805714 810.676235 
L 378.514286 811.074601 
L 378.244682 811.240484 
L 375.222857 813.985561 
L 372.024171 814.53821 
L 371.931429 814.598503 
L 371.460713 814.53821 
L 368.64 814.181038 
L 365.348571 813.786093 
L 362.623842 814.53821 
L 362.057143 814.721305 
L 358.765714 817.297251 
L 355.474286 817.76024 
L 355.317665 817.835936 
L 352.182857 820.774526 
L 348.891429 820.909396 
L 348.586815 821.133661 
z
" clip-path="url(#p8b6e8ae136)" style="fill: #dae8f6; fill-opacity: 0.9"/>
    <path d="M 460.8 821.133661 
L 464.091429 821.133661 
L 467.382857 821.133661 
L 470.674286 821.133661 
L 473.965714 821.133661 
L 477.257143 821.133661 
L 480.548571 821.133661 
L 483.84 821.133661 
L 487.131429 821.133661 
L 490.422857 821.133661 
L 493.714286 821.133661 
L 497.005714 821.133661 
L 500.297143 821.133661 
L 503.588571 821.133661 
L 506.88 821.133661 
L 510.171429 821.133661 
L 513.462857 821.133661 
L 516.754286 821.133661 
L 520.045714 821.133661 
L 523.337143 821.133661 
L 526.628571 821.133661 
L 529.92 821.133661 
L 533.211429 821.133661 
L 536.502857 821.133661 
L 539.794286 821.133661 
L 543.085714 821.133661 
L 546.377143 821.133661 
L 549.668571 821.133661 
L 552.96 821.133661 
L 556.251429 821.133661 
L 559.542857 821.133661 
L 562.834286 821.133661 
L 566.125714 821.133661 
L 569.417143 821.133661 
L 572.708571 821.133661 
L 576 821.133661 
L 576 817.835936 
L 576 814.53821 
L 576 811.240484 
L 576 807.942759 
L 576 804.645033 
L 576 801.347308 
L 576 798.049582 
L 576 794.751857 
L 576 791.454131 
L 576 788.156406 
L 576 784.85868 
L 576 781.560955 
L 576 779.178895 
L 572.708571 780.112669 
L 569.417143 781.003085 
L 567.518683 781.560955 
L 566.125714 781.987527 
L 562.834286 782.980472 
L 559.542857 784.201863 
L 557.965199 784.85868 
L 556.251429 785.603569 
L 552.96 787.163043 
L 550.770029 788.156406 
L 549.668571 788.665164 
L 546.377143 790.240459 
L 543.085714 791.177923 
L 542.149635 791.454131 
L 539.794286 792.143824 
L 536.502857 793.201081 
L 533.211429 794.05798 
L 531.07704 794.751857 
L 529.92 795.114159 
L 526.628571 796.180884 
L 523.337143 797.362463 
L 521.937378 798.049582 
L 520.045714 798.948155 
L 516.754286 800.59922 
L 514.694479 801.347308 
L 513.462857 801.847792 
L 510.171429 802.97181 
L 506.88 804.260216 
L 505.383937 804.645033 
L 503.588571 805.149825 
L 500.297143 806.079986 
L 497.005714 807.058026 
L 493.907046 807.942759 
L 493.714286 807.997175 
L 490.422857 809.320989 
L 487.131429 810.658262 
L 485.672321 811.240484 
L 483.84 812.009574 
L 480.548571 813.275784 
L 477.364315 814.53821 
L 477.257143 814.588443 
L 473.965714 815.694639 
L 470.674286 816.914369 
L 467.752931 817.835936 
L 467.382857 817.956817 
L 464.091429 819.132115 
L 460.8 820.203426 
L 458.454377 821.133661 
z
" clip-path="url(#p8b6e8ae136)" style="fill: #d6e5f4; fill-opacity: 0.9"/>
    <path clip-path="url(#p8b6e8ae136)" style="fill: #d0e2f2; fill-opacity: 0.9"/>
    <path clip-path="url(#p8b6e8ae136)" style="fill: #cbdef1; fill-opacity: 0.9"/>
    <path clip-path="url(#p8b6e8ae136)" style="fill: #c6dbef; fill-opacity: 0.9"/>
    <path clip-path="url(#p8b6e8ae136)" style="fill: #bed8ec; fill-opacity: 0.9"/>
    <path clip-path="url(#p8b6e8ae136)" style="fill: #b5d4e9; fill-opacity: 0.9"/>
    <path clip-path="url(#p8b6e8ae136)" style="fill: #add0e6; fill-opacity: 0.9"/>
    <path clip-path="url(#p8b6e8ae136)" style="fill: #a5cde3; fill-opacity: 0.9"/>
    <path clip-path="url(#p8b6e8ae136)" style="fill: #9cc9e1; fill-opacity: 0.9"/>
    <path clip-path="url(#p8b6e8ae136)" style="fill: #91c3de; fill-opacity: 0.9"/>
    <path clip-path="url(#p8b6e8ae136)" style="fill: #85bcdc; fill-opacity: 0.9"/>
    <path clip-path="url(#p8b6e8ae136)" style="fill: #7cb7da; fill-opacity: 0.9"/>
    <path clip-path="url(#p8b6e8ae136)" style="fill: #71b1d7; fill-opacity: 0.9"/>
    <path clip-path="url(#p8b6e8ae136)" style="fill: #66abd4; fill-opacity: 0.9"/>
    <path clip-path="url(#p8b6e8ae136)" style="fill: #5da5d1; fill-opacity: 0.9"/>
    <path clip-path="url(#p8b6e8ae136)" style="fill: #56a0ce; fill-opacity: 0.9"/>
    <path clip-path="url(#p8b6e8ae136)" style="fill: #4d99ca; fill-opacity: 0.9"/>
    <path clip-path="url(#p8b6e8ae136)" style="fill: #4493c7; fill-opacity: 0.9"/>
    <path clip-path="url(#p8b6e8ae136)" style="fill: #3c8cc3; fill-opacity: 0.9"/>
    <path clip-path="url(#p8b6e8ae136)" style="fill: #3686c0; fill-opacity: 0.9"/>
    <path clip-path="url(#p8b6e8ae136)" style="fill: #2f7fbc; fill-opacity: 0.9"/>
    <path clip-path="url(#p8b6e8ae136)" style="fill: #2777b8; fill-opacity: 0.9"/>
    <path clip-path="url(#p8b6e8ae136)" style="fill: #2070b4; fill-opacity: 0.9"/>
    <path clip-path="url(#p8b6e8ae136)" style="fill: #1c6ab0; fill-opacity: 0.9"/>
    <path clip-path="url(#p8b6e8ae136)" style="fill: #1663aa; fill-opacity: 0.9"/>
    <path clip-path="url(#p8b6e8ae136)" style="fill: #115ca5; fill-opacity: 0.9"/>
    <path clip-path="url(#p8b6e8ae136)" style="fill: #0c56a0; fill-opacity: 0.9"/>
    <path clip-path="url(#p8b6e8ae136)" style="fill: #084f99; fill-opacity: 0.9"/>
    <path clip-path="url(#p8b6e8ae136)" style="fill: #08488e; fill-opacity: 0.9"/>
    <path clip-path="url(#p8b6e8ae136)" style="fill: #084184; fill-opacity: 0.9"/>
    <path clip-path="url(#p8b6e8ae136)" style="fill: #083a7a; fill-opacity: 0.9"/>
    <path clip-path="url(#p8b6e8ae136)" style="fill: #083370; fill-opacity: 0.9"/>
    <path clip-path="url(#p8b6e8ae136)" style="fill: #08306b; fill-opacity: 0.9"/>
   </g>
   <g id="QuadContourSet_2">
    <path d="M 576 722.77631 
L 572.708571 723.712979 
L 570.317633 725.49962 
L 569.417143 726.091734 
L 566.125714 728.434181 
L 562.834286 727.806159 
L 561.645804 728.797346 
L 559.542857 730.250705 
L 556.251429 730.223507 
L 552.972874 732.095071 
L 552.96 732.104267 
L 549.668571 733.155449 
L 546.377143 733.980149 
L 544.845296 735.392797 
L 543.085714 736.120871 
L 539.794286 736.727803 
L 537.611488 738.690522 
L 536.502857 739.444551 
L 533.345724 741.988248 
L 533.211429 742.089649 
L 531.662029 741.988248 
L 529.92 741.632178 
L 529.536993 741.988248 
L 526.628571 743.881547 
L 523.337143 743.685798 
L 520.487109 745.285974 
L 520.045714 745.585176 
L 516.754286 746.501714 
L 513.462857 747.374356 
L 512.20541 748.583699 
L 510.171429 749.454421 
L 506.88 750.046843 
L 504.276432 751.881425 
L 503.588571 752.206041 
L 500.297143 753.610327 
L 497.400113 755.17915 
L 497.005714 755.359127 
L 493.714286 757.507727 
L 490.422857 757.152143 
L 488.032809 758.476876 
L 487.131429 759.061169 
L 483.84 759.832749 
L 480.548571 760.76716 
L 479.554518 761.774601 
L 477.257143 762.79872 
L 473.965714 763.339101 
L 471.406372 765.072327 
L 470.674286 765.388936 
L 467.382857 766.605184 
L 464.861012 768.370052 
L 464.091429 768.798685 
L 460.8 770.832497 
L 457.508571 770.689329 
L 455.742632 771.667778 
L 454.217143 772.602518 
L 450.925714 773.190873 
L 447.634286 774.181108 
L 446.892732 774.965503 
L 444.342857 776.128242 
L 441.051429 776.640071 
L 438.78348 778.263229 
L 437.76 778.724245 
L 434.468571 779.658689 
L 432.151719 781.560955 
L 431.177143 782.169589 
L 427.885714 783.652969 
L 424.594286 784.357786 
L 423.667554 784.85868 
L 421.302857 786.1904 
L 418.011429 786.586387 
L 414.72 787.580307 
L 414.16763 788.156406 
L 413.514108 788.455437 
M 396.28374 795.904445 
L 394.971429 796.478934 
L 391.68 797.990517 
L 391.563026 798.049582 
L 388.388571 799.661137 
L 385.097143 799.907997 
L 381.805714 800.843981 
L 381.301365 801.347308 
L 378.514286 802.638649 
L 375.222857 803.12953 
L 373.17181 804.645033 
L 371.931429 805.249335 
L 368.64 805.939676 
L 365.348571 807.721812 
L 365.122582 807.942759 
L 362.057143 809.337577 
L 358.986674 811.240484 
L 358.765714 811.358087 
L 355.474286 812.674206 
L 352.182857 813.162175 
L 348.891429 813.903995 
L 348.218818 814.53821 
L 345.6 815.790755 
L 342.308571 816.198149 
L 340.069552 817.835936 
L 339.017143 818.379134 
L 335.725714 819.017434 
L 332.434286 820.407302 
L 331.624643 821.133661 
" clip-path="url(#p8b6e8ae136)" style="fill: none"/>
    <path d="M 576 723.449121 
L 572.708571 724.921947 
L 571.935511 725.49962 
L 569.417143 727.155562 
L 567.291823 728.797346 
L 566.125714 729.605443 
L 563.004691 732.095071 
L 562.834286 732.221502 
L 561.535661 732.095071 
L 559.542857 731.76425 
L 556.251429 731.363325 
L 554.969576 732.095071 
L 552.96 733.530467 
L 549.668571 733.971615 
L 546.47376 735.392797 
L 546.377143 735.463454 
L 543.085714 736.789947 
L 539.794286 737.760201 
L 538.759648 738.690522 
L 536.502857 740.225465 
L 534.314963 741.988248 
L 533.211429 742.821476 
L 529.947426 745.285974 
L 529.92 745.311798 
L 526.628571 745.621332 
L 525.636787 745.285974 
L 523.337143 744.932035 
L 522.706752 745.285974 
L 520.045714 747.089775 
L 516.754286 747.364811 
L 513.897296 748.583699 
L 513.462857 748.886871 
L 510.171429 750.139929 
L 506.88 751.0837 
L 505.7479 751.881425 
L 503.588571 752.900461 
L 500.297143 754.812908 
L 499.620831 755.17915 
L 497.005714 756.372516 
L 494.281422 758.476876 
L 493.714286 758.834854 
L 490.422857 758.597141 
L 487.131429 760.663304 
L 483.84 760.752355 
L 481.362776 761.774601 
L 480.548571 762.321804 
L 477.257143 763.496955 
L 473.965714 764.399844 
L 472.972702 765.072327 
L 470.674286 766.066335 
L 467.382857 767.615688 
L 466.304935 768.370052 
L 464.091429 769.602903 
L 461.307389 771.667778 
L 460.8 772.047428 
L 457.508571 772.360527 
L 454.217143 774.292823 
L 450.925714 774.168298 
L 448.925128 774.965503 
L 447.634286 775.795418 
L 444.342857 776.842029 
L 441.792894 777.523639 
M 424.67879 785.749828 
L 424.594286 785.772445 
L 421.302857 788.002207 
L 418.011429 787.62463 
L 416.575337 788.156406 
L 414.72 789.271154 
L 411.428571 790.156857 
L 408.137143 791.011933 
L 407.525941 791.454131 
L 404.845714 792.703172 
L 401.554286 793.573463 
L 399.884998 794.751857 
L 398.262857 795.684131 
L 394.971429 797.508164 
L 393.813824 798.049582 
L 391.68 798.972507 
L 388.561613 801.347308 
L 388.388571 801.460791 
L 387.340432 801.347308 
L 385.097143 801.018299 
L 384.119758 801.347308 
L 381.805714 802.617488 
L 378.514286 803.421688 
L 375.222857 804.196576 
L 374.615926 804.645033 
L 371.931429 805.952893 
L 368.64 806.727631 
L 366.54488 807.942759 
L 365.348571 808.557316 
L 362.057143 810.198441 
L 360.375736 811.240484 
L 358.765714 812.097397 
L 355.474286 814.444349 
L 352.182857 814.352698 
L 351.514604 814.53821 
L 348.891429 815.781259 
L 345.6 816.619186 
L 342.308571 817.230413 
L 341.480761 817.835936 
L 339.017143 819.107526 
L 335.725714 819.777336 
L 333.206892 821.133661 
" clip-path="url(#p8b6e8ae136)" style="fill: none"/>
    <path d="M 576 724.121932 
L 573.377372 725.49962 
L 572.708571 726.079822 
L 569.417143 728.21939 
L 568.668968 728.797346 
L 566.125714 730.559786 
L 564.201065 732.095071 
L 562.834286 733.109136 
L 560.021795 735.392797 
L 559.542857 735.860726 
L 556.251429 735.852906 
L 555.647495 735.392797 
L 552.96 734.956667 
L 549.668571 734.78778 
L 548.308497 735.392797 
L 546.377143 736.805211 
L 543.085714 737.459022 
L 539.96208 738.690522 
L 539.794286 738.819989 
L 536.502857 741.006379 
L 535.284201 741.988248 
L 533.211429 743.553303 
L 530.916664 745.285974 
L 529.92 746.224428 
L 526.628571 748.359283 
L 526.056379 748.583699 
L 523.337143 749.395799 
L 520.045714 748.650363 
L 519.990021 748.583699 
L 516.754286 748.227907 
L 515.920334 748.583699 
L 513.462857 750.298647 
L 510.171429 750.825436 
L 507.308614 751.881425 
L 506.88 752.188105 
L 503.588571 753.59488 
L 501.066079 755.17915 
L 500.297143 755.894666 
L 497.005714 757.385904 
L 495.593349 758.476876 
L 493.714286 759.662944 
L 490.580545 761.774601 
L 490.422857 761.926133 
L 487.131429 762.292692 
L 484.718918 761.774601 
L 483.84 761.67196 
L 483.591269 761.774601 
L 480.548571 763.819506 
L 477.257143 764.19519 
L 474.708357 765.072327 
L 473.965714 765.586596 
L 470.674286 766.743734 
L 470.614773 766.776245 
M 453.806325 775.804649 
L 450.925714 776.674166 
L 447.634286 777.372412 
L 444.342857 777.555816 
L 442.154445 778.263229 
L 441.051429 778.998676 
L 437.76 780.085912 
L 434.468571 781.382866 
L 434.25167 781.560955 
L 431.177143 783.481034 
L 428.973407 784.85868 
L 427.885714 785.779549 
L 424.594286 787.055926 
L 423.001941 788.156406 
L 421.302857 788.983094 
L 418.13859 791.454131 
L 418.011429 791.575898 
L 417.119854 791.454131 
L 414.72 790.955794 
L 411.428571 790.903998 
L 409.599102 791.454131 
L 408.137143 792.37447 
L 404.845714 793.395191 
L 401.554286 794.367044 
L 401.009168 794.751857 
L 398.262857 796.330213 
L 395.469007 798.049582 
L 394.971429 798.527619 
L 391.68 799.924312 
L 389.811442 801.347308 
L 388.388571 802.280447 
L 385.097143 803.718477 
L 381.805714 804.427965 
L 378.514286 804.204727 
L 376.893669 804.645033 
L 375.222857 805.618627 
L 371.931429 806.656452 
L 368.64 807.515585 
L 367.903469 807.942759 
L 365.348571 809.255239 
L 362.057143 811.059306 
L 361.764798 811.240484 
L 358.765714 812.836707 
L 356.43379 814.53821 
L 355.474286 815.311253 
L 352.182857 815.938391 
L 348.891429 817.813464 
L 345.6 817.447617 
L 343.851051 817.835936 
L 342.308571 818.618252 
L 339.017143 819.835918 
L 335.725714 820.537238 
L 334.618101 821.133661 
" clip-path="url(#p8b6e8ae136)" style="fill: none"/>
    <path d="M 344.625302 821.133661 
L 342.308571 820.510634 
L 339.017143 820.56431 
L 336.436086 821.133661 
M 576 724.794743 
L 574.658165 725.49962 
L 572.708571 727.190944 
L 570.207307 728.797346 
L 569.417143 729.560535 
L 566.125714 731.514129 
L 565.397439 732.095071 
L 562.834286 733.99677 
L 561.114979 735.392797 
L 559.542857 736.928782 
L 557.103526 738.690522 
L 556.251429 739.515798 
L 552.96 740.079944 
L 549.668571 738.748824 
L 549.618446 738.690522 
L 546.377143 738.146969 
L 543.085714 738.128098 
L 541.659155 738.690522 
L 539.794286 740.129417 
L 536.502857 741.787292 
L 536.253439 741.988248 
L 533.211429 744.28513 
L 531.885903 745.285974 
L 529.92 747.137059 
L 527.8357 748.583699 
L 526.628571 749.75502 
L 523.337143 751.480659 
L 522.591326 751.881425 
L 520.045714 752.986122 
L 516.754286 754.463426 
L 514.458375 751.881425 
L 513.462857 751.710422 
L 510.171429 751.510943 
L 509.167043 751.881425 
L 506.88 753.517844 
L 503.588571 754.289299 
L 502.17174 755.17915 
L 500.297143 756.923514 
L 497.005714 758.399292 
L 496.905275 758.476876 
L 493.714286 760.491035 
L 491.809448 761.774601 
L 490.422857 763.107058 
L 487.131429 763.98378 
L 485.366086 765.072327 
L 483.84 765.888011 
L 480.548571 766.582853 
L 479.266388 765.072327 
L 477.257143 764.893425 
L 476.737289 765.072327 
L 473.965714 766.9916 
L 470.674286 767.421133 
L 468.937212 768.370052 
L 467.382857 769.853876 
L 464.091429 771.211338 
L 463.476017 771.667778 
L 460.8 773.670084 
L 458.457609 774.965503 
L 457.508571 775.866959 
L 454.217143 776.868512 
L 452.287419 778.263229 
L 450.925714 779.317112 
L 447.707845 781.560955 
L 447.634286 781.629896 
L 447.274819 781.560955 
L 444.342857 778.350386 
L 441.051429 780.470966 
L 437.76 780.766746 
L 435.801002 781.560955 
L 434.468571 782.657016 
L 431.177143 784.136756 
L 430.022325 784.85868 
L 427.885714 786.667591 
L 424.852271 788.156406 
L 424.594286 788.398661 
L 421.302857 789.886686 
L 419.295677 791.454131 
L 418.011429 792.683895 
L 414.72 793.36945 
L 411.428571 793.855623 
L 408.137143 793.9386 
L 404.845714 794.087209 
L 402.703283 794.751857 
L 401.554286 795.518288 
L 398.262857 796.976295 
L 396.518843 798.049582 
L 394.971429 799.536226 
L 391.68 800.876117 
L 391.061272 801.347308 
L 388.388571 803.100104 
L 386.01151 804.645033 
L 385.097143 805.515681 
L 381.805714 806.011433 
L 378.636477 807.942759 
L 378.514286 808.016105 
L 378.148736 807.942759 
L 375.222857 807.298044 
L 371.931429 807.360011 
L 369.811744 807.942759 
L 368.64 808.659132 
L 365.348571 809.953161 
L 363.477347 810.998295 
M 346.911239 820.310717 
L 345.793459 821.133661 
" clip-path="url(#p8b6e8ae136)" style="fill: none"/>
    <path d="M 576 725.467555 
L 575.938958 725.49962 
L 572.708571 728.302065 
L 571.93739 728.797346 
L 569.417143 731.231555 
L 567.54398 732.095071 
L 566.125714 733.412984 
L 562.834286 734.884404 
L 562.208164 735.392797 
L 559.542857 737.996838 
L 558.582372 738.690522 
L 556.251429 740.948093 
L 554.319026 741.988248 
L 552.96 743.270341 
L 549.668571 743.769916 
L 546.377143 744.786368 
L 543.711534 741.988248 
L 543.085714 740.992811 
L 539.794286 741.438845 
L 538.606064 741.988248 
L 536.502857 743.960905 
L 533.211429 745.016957 
L 532.855141 745.285974 
L 529.92 748.049689 
L 529.150606 748.583699 
L 526.628571 751.030919 
L 525.140446 751.881425 
L 523.337143 753.59358 
L 520.045714 754.669845 
L 519.233001 755.17915 
L 516.754286 756.924862 
L 514.079338 758.476876 
L 513.462857 759.048405 
L 511.806416 758.476876 
L 510.171429 756.74733 
L 508.840985 755.17915 
L 506.88 754.847583 
L 503.588571 754.983718 
L 503.277402 755.17915 
L 500.297143 757.952362 
L 499.126381 758.476876 
L 497.005714 760.468039 
L 493.714286 761.319125 
L 493.038351 761.774601 
L 490.422857 764.287983 
L 488.28064 765.072327 
L 487.131429 766.11362 
L 483.84 767.353866 
L 482.318619 768.370052 
L 480.548571 770.018059 
L 477.257143 770.583723 
L 473.965714 768.554283 
L 473.817516 768.370052 
L 470.674286 768.098532 
L 470.177246 768.370052 
L 467.382857 771.037642 
L 465.566778 771.667778 
L 464.091429 772.996281 
L 460.8 774.481412 
L 459.924661 774.965503 
L 457.508571 777.260457 
L 454.217143 778.056381 
L 453.930949 778.263229 
L 450.925714 780.589111 
L 449.532005 781.560955 
L 447.634286 783.339549 
L 444.342857 783.085319 
L 441.051429 783.925877 
L 439.046053 781.560955 
L 437.76 781.44758 
L 437.480349 781.560955 
L 434.468571 784.03845 
L 431.177143 784.792478 
L 431.071243 784.85868 
L 427.885714 787.555633 
L 426.661646 788.156406 
L 424.594286 790.097714 
L 421.302857 790.790277 
L 420.452764 791.454131 
L 418.011429 793.791893 
L 415.911732 794.751857 
L 414.72 795.840311 
L 411.428571 796.379979 
L 408.448504 798.049582 
L 408.137143 798.3259 
L 407.348787 798.049582 
L 404.845714 795.128543 
L 401.554286 797.006234 
L 398.262857 797.622376 
L 397.568679 798.049582 
L 394.971429 800.544832 
L 392.957897 801.347308 
L 392.883724 801.414728 
M 376.560504 810.74749 
L 375.75926 811.240484 
L 375.222857 811.727762 
L 373.556159 811.240484 
L 371.931429 809.424742 
L 368.64 810.223708 
L 365.348571 810.651084 
L 364.293299 811.240484 
L 362.057143 813.363305 
L 358.765714 814.315326 
L 358.46025 814.53821 
L 355.474286 816.943911 
L 353.628617 817.835936 
L 352.182857 819.191201 
L 348.891429 819.881119 
L 347.190137 821.133661 
" clip-path="url(#p8b6e8ae136)" style="fill: none"/>
    <path d="M 576 745.119224 
L 575.755272 745.285974 
L 572.708571 747.384739 
L 571.273578 748.583699 
L 569.417143 749.662978 
L 566.693793 751.881425 
L 566.125714 752.208998 
L 562.834286 753.13898 
L 559.542857 753.755846 
L 556.251429 755.159818 
L 552.96 754.067018 
L 549.668571 754.075046 
L 546.377143 753.904469 
L 543.085714 755.169489 
L 543.069698 755.17915 
L 539.794286 757.783705 
L 538.339072 758.476876 
L 536.502857 759.759811 
L 533.211429 760.893917 
L 531.774796 761.774601 
L 529.92 762.882444 
L 526.628571 764.897262 
L 523.337143 764.543383 
L 520.045714 765.001551 
L 519.698491 765.072327 
L 516.754286 765.905254 
L 513.462857 765.617772 
L 510.171429 765.744874 
L 506.88 766.944529 
L 503.588571 768.333848 
L 503.485634 768.370052 
L 500.297143 770.029422 
L 499.213473 770.265307 
M 481.258593 775.380666 
L 480.548571 775.591844 
L 477.257143 776.625219 
L 473.965714 777.70953 
L 472.730212 778.263229 
L 470.674286 779.485508 
L 467.382857 780.558612 
L 465.483509 781.560955 
L 464.091429 782.311981 
L 460.8 783.265092 
L 457.508571 784.0949 
L 455.505252 784.85868 
L 454.217143 785.460237 
L 450.925714 786.148406 
L 447.634286 787.145343 
L 444.342857 787.970579 
L 443.815326 788.156406 
L 441.051429 789.32223 
L 437.76 790.627771 
L 435.778454 791.454131 
L 434.468571 792.028013 
L 431.177143 793.462667 
L 427.885714 794.294036 
L 426.773581 794.751857 
L 424.594286 795.696173 
L 421.302857 796.480863 
L 418.011429 797.350372 
L 414.884663 798.049582 
L 414.72 798.090601 
L 411.428571 799.304389 
L 408.137143 801.186332 
L 407.604691 801.347308 
L 404.845714 803.352412 
L 401.554286 803.053992 
L 398.262857 804.131506 
L 396.883055 804.645033 
L 394.971429 805.305734 
L 391.68 806.183053 
L 388.388571 806.793074 
L 385.097143 807.917362 
L 385.007573 807.942759 
L 381.805714 810.676235 
L 378.514286 811.074601 
L 378.244682 811.240484 
L 375.222857 813.985561 
L 372.024171 814.53821 
L 371.931429 814.598503 
L 371.460713 814.53821 
L 368.64 814.181038 
L 365.348571 813.786093 
L 362.623842 814.53821 
L 362.057143 814.721305 
L 358.765714 817.297251 
L 355.474286 817.76024 
L 355.317665 817.835936 
L 352.182857 820.774526 
L 348.891429 820.909396 
L 348.586815 821.133661 
" clip-path="url(#p8b6e8ae136)" style="fill: none"/>
    <path d="M 576 779.178895 
L 572.708571 780.112669 
L 569.417143 781.003085 
L 567.518683 781.560955 
L 566.125714 781.987527 
L 562.834286 782.980472 
L 559.542857 784.201863 
L 557.965199 784.85868 
L 556.251429 785.603569 
L 552.96 787.163043 
L 550.770029 788.156406 
L 549.668571 788.665164 
L 546.377143 790.240459 
L 543.085714 791.177923 
L 542.149635 791.454131 
L 539.794286 792.143824 
L 536.502857 793.201081 
L 533.211429 794.05798 
L 531.07704 794.751857 
L 529.92 795.114159 
L 526.628571 796.180884 
L 523.337143 797.362463 
L 521.937378 798.049582 
L 520.045714 798.948155 
L 516.754286 800.59922 
L 514.694479 801.347308 
L 513.462857 801.847792 
L 510.171429 802.97181 
L 506.88 804.260216 
L 505.383937 804.645033 
L 503.588571 805.149825 
L 500.297143 806.079986 
L 497.005714 807.058026 
L 493.907046 807.942759 
L 493.714286 807.997175 
L 490.422857 809.320989 
L 487.131429 810.658262 
L 485.672321 811.240484 
L 483.84 812.009574 
L 480.548571 813.275784 
L 477.364315 814.53821 
L 477.257143 814.588443 
L 476.39827 814.877096 
" clip-path="url(#p8b6e8ae136)" style="fill: none"/>
    <path clip-path="url(#p8b6e8ae136)" style="fill: none"/>
    <path clip-path="url(#p8b6e8ae136)" style="fill: none"/>
    <path clip-path="url(#p8b6e8ae136)" style="fill: none"/>
    <path clip-path="url(#p8b6e8ae136)" style="fill: none"/>
    <path clip-path="url(#p8b6e8ae136)" style="fill: none"/>
    <path clip-path="url(#p8b6e8ae136)" style="fill: none"/>
    <path clip-path="url(#p8b6e8ae136)" style="fill: none"/>
    <path clip-path="url(#p8b6e8ae136)" style="fill: none"/>
    <path clip-path="url(#p8b6e8ae136)" style="fill: none"/>
    <path clip-path="url(#p8b6e8ae136)" style="fill: none"/>
    <path clip-path="url(#p8b6e8ae136)" style="fill: none"/>
    <path clip-path="url(#p8b6e8ae136)" style="fill: none"/>
    <path clip-path="url(#p8b6e8ae136)" style="fill: none"/>
    <path clip-path="url(#p8b6e8ae136)" style="fill: none"/>
    <path clip-path="url(#p8b6e8ae136)" style="fill: none"/>
    <path clip-path="url(#p8b6e8ae136)" style="fill: none"/>
    <path clip-path="url(#p8b6e8ae136)" style="fill: none"/>
    <path clip-path="url(#p8b6e8ae136)" style="fill: none"/>
    <path clip-path="url(#p8b6e8ae136)" style="fill: none"/>
    <path clip-path="url(#p8b6e8ae136)" style="fill: none"/>
    <path clip-path="url(#p8b6e8ae136)" style="fill: none"/>
    <path clip-path="url(#p8b6e8ae136)" style="fill: none"/>
    <path clip-path="url(#p8b6e8ae136)" style="fill: none"/>
    <path clip-path="url(#p8b6e8ae136)" style="fill: none"/>
    <path clip-path="url(#p8b6e8ae136)" style="fill: none"/>
    <path clip-path="url(#p8b6e8ae136)" style="fill: none"/>
    <path clip-path="url(#p8b6e8ae136)" style="fill: none"/>
    <path clip-path="url(#p8b6e8ae136)" style="fill: none"/>
    <path clip-path="url(#p8b6e8ae136)" style="fill: none"/>
    <path clip-path="url(#p8b6e8ae136)" style="fill: none"/>
    <path clip-path="url(#p8b6e8ae136)" style="fill: none"/>
    <path clip-path="url(#p8b6e8ae136)" style="fill: none"/>
   </g>
   <g id="text_1">
    <g clip-path="url(#p8b6e8ae136)">
     <!-- 0 -->
     <g style="opacity: 0" transform="translate(402.67499 796.574665) rotate(-23.623043) scale(0.12 -0.12)">
      <defs>
       <path id="DejaVuSans-30" d="M 2034 4250 
Q 1547 4250 1301 3770 
Q 1056 3291 1056 2328 
Q 1056 1369 1301 889 
Q 1547 409 2034 409 
Q 2525 409 2770 889 
Q 3016 1369 3016 2328 
Q 3016 3291 2770 3770 
Q 2525 4250 2034 4250 
z
M 2034 4750 
Q 2819 4750 3233 4129 
Q 3647 3509 3647 2328 
Q 3647 1150 3233 529 
Q 2819 -91 2034 -91 
Q 1250 -91 836 529 
Q 422 1150 422 2328 
Q 422 3509 836 4129 
Q 1250 4750 2034 4750 
z
" transform="scale(0.015625)"/>
      </defs>
      <use xlink:href="#DejaVuSans-30"/>
     </g>
    </g>
   </g>
   <g id="text_2">
    <g clip-path="url(#p8b6e8ae136)">
     <!-- 1 -->
     <g style="opacity: 0" transform="translate(431.43835 786.296807) rotate(-28.639766) scale(0.12 -0.12)">
      <defs>
       <path id="DejaVuSans-31" d="M 794 531 
L 1825 531 
L 1825 4091 
L 703 3866 
L 703 4441 
L 1819 4666 
L 2450 4666 
L 2450 531 
L 3481 531 
L 3481 0 
L 794 0 
L 794 531 
z
" transform="scale(0.015625)"/>
      </defs>
      <use xlink:href="#DejaVuSans-31"/>
     </g>
    </g>
   </g>
   <g id="text_3">
    <g clip-path="url(#p8b6e8ae136)">
     <!-- 2 -->
     <g style="opacity: 0" transform="translate(460.743555 776.444941) rotate(-30.027326) scale(0.12 -0.12)">
      <defs>
       <path id="DejaVuSans-32" d="M 1228 531 
L 3431 531 
L 3431 0 
L 469 0 
L 469 531 
Q 828 903 1448 1529 
Q 2069 2156 2228 2338 
Q 2531 2678 2651 2914 
Q 2772 3150 2772 3378 
Q 2772 3750 2511 3984 
Q 2250 4219 1831 4219 
Q 1534 4219 1204 4116 
Q 875 4013 500 3803 
L 500 4441 
Q 881 4594 1212 4672 
Q 1544 4750 1819 4750 
Q 2544 4750 2975 4387 
Q 3406 4025 3406 3419 
Q 3406 3131 3298 2873 
Q 3191 2616 2906 2266 
Q 2828 2175 2409 1742 
Q 1991 1309 1228 531 
z
" transform="scale(0.015625)"/>
      </defs>
      <use xlink:href="#DejaVuSans-32"/>
     </g>
    </g>
   </g>
   <g id="text_4">
    <g clip-path="url(#p8b6e8ae136)">
     <!-- 3 -->
     <g style="opacity: 0" transform="translate(353.780455 820.88874) rotate(-29.478522) scale(0.12 -0.12)">
      <defs>
       <path id="DejaVuSans-33" d="M 2597 2516 
Q 3050 2419 3304 2112 
Q 3559 1806 3559 1356 
Q 3559 666 3084 287 
Q 2609 -91 1734 -91 
Q 1441 -91 1130 -33 
Q 819 25 488 141 
L 488 750 
Q 750 597 1062 519 
Q 1375 441 1716 441 
Q 2309 441 2620 675 
Q 2931 909 2931 1356 
Q 2931 1769 2642 2001 
Q 2353 2234 1838 2234 
L 1294 2234 
L 1294 2753 
L 1863 2753 
Q 2328 2753 2575 2939 
Q 2822 3125 2822 3475 
Q 2822 3834 2567 4026 
Q 2313 4219 1838 4219 
Q 1578 4219 1281 4162 
Q 984 4106 628 3988 
L 628 4550 
Q 988 4650 1302 4700 
Q 1616 4750 1894 4750 
Q 2613 4750 3031 4423 
Q 3450 4097 3450 3541 
Q 3450 3153 3228 2886 
Q 3006 2619 2597 2516 
z
" transform="scale(0.015625)"/>
      </defs>
      <use xlink:href="#DejaVuSans-33"/>
     </g>
    </g>
   </g>
   <g id="text_5">
    <g clip-path="url(#p8b6e8ae136)">
     <!-- 4 -->
     <g style="opacity: 0" transform="translate(383.348521 811.45783) rotate(-28.817787) scale(0.12 -0.12)">
      <defs>
       <path id="DejaVuSans-34" d="M 2419 4116 
L 825 1625 
L 2419 1625 
L 2419 4116 
z
M 2253 4666 
L 3047 4666 
L 3047 1625 
L 3713 1625 
L 3713 1100 
L 3047 1100 
L 3047 0 
L 2419 0 
L 2419 1100 
L 313 1100 
L 313 1709 
L 2253 4666 
z
" transform="scale(0.015625)"/>
      </defs>
      <use xlink:href="#DejaVuSans-34"/>
     </g>
    </g>
   </g>
   <g id="text_6">
    <g clip-path="url(#p8b6e8ae136)">
     <!-- 5 -->
     <g style="opacity: 0" transform="translate(487.515089 777.044429) rotate(-13.934484) scale(0.12 -0.12)">
      <defs>
       <path id="DejaVuSans-35" d="M 691 4666 
L 3169 4666 
L 3169 4134 
L 1269 4134 
L 1269 2991 
Q 1406 3038 1543 3061 
Q 1681 3084 1819 3084 
Q 2600 3084 3056 2656 
Q 3513 2228 3513 1497 
Q 3513 744 3044 326 
Q 2575 -91 1722 -91 
Q 1428 -91 1123 -41 
Q 819 9 494 109 
L 494 744 
Q 775 591 1075 516 
Q 1375 441 1709 441 
Q 2250 441 2565 725 
Q 2881 1009 2881 1497 
Q 2881 1984 2565 2268 
Q 2250 2553 1709 2553 
Q 1456 2553 1204 2497 
Q 953 2441 691 2322 
L 691 4666 
z
" transform="scale(0.015625)"/>
      </defs>
      <use xlink:href="#DejaVuSans-35"/>
     </g>
    </g>
   </g>
   <g id="text_7">
    <g clip-path="url(#p8b6e8ae136)">
     <!-- 6 -->
     <g style="opacity: 0" transform="translate(464.826456 822.316003) rotate(-18.672988) scale(0.12 -0.12)">
      <defs>
       <path id="DejaVuSans-36" d="M 2113 2584 
Q 1688 2584 1439 2293 
Q 1191 2003 1191 1497 
Q 1191 994 1439 701 
Q 1688 409 2113 409 
Q 2538 409 2786 701 
Q 3034 994 3034 1497 
Q 3034 2003 2786 2293 
Q 2538 2584 2113 2584 
z
M 3366 4563 
L 3366 3988 
Q 3128 4100 2886 4159 
Q 2644 4219 2406 4219 
Q 1781 4219 1451 3797 
Q 1122 3375 1075 2522 
Q 1259 2794 1537 2939 
Q 1816 3084 2150 3084 
Q 2853 3084 3261 2657 
Q 3669 2231 3669 1497 
Q 3669 778 3244 343 
Q 2819 -91 2113 -91 
Q 1303 -91 875 529 
Q 447 1150 447 2328 
Q 447 3434 972 4092 
Q 1497 4750 2381 4750 
Q 2619 4750 2861 4703 
Q 3103 4656 3366 4563 
z
" transform="scale(0.015625)"/>
      </defs>
      <use xlink:href="#DejaVuSans-36"/>
     </g>
    </g>
   </g>
  </g>
 </g>
 <defs>
  <clipPath id="p8b6e8ae136">
   <rect x="0" y="0" width="576" height="821.133661"/>
  </clipPath>
 </defs>
</svg>
