<?xml version="1.0" encoding="utf-8" standalone="no"?>
<!DOCTYPE svg PUBLIC "-//W3C//DTD SVG 1.1//EN"
  "http://www.w3.org/Graphics/SVG/1.1/DTD/svg11.dtd">
<svg xmlns:xlink="http://www.w3.org/1999/xlink" width="576pt" height="820.98809pt" viewBox="0 0 576 820.98809" xmlns="http://www.w3.org/2000/svg" version="1.1">
 <metadata>
  <rdf:RDF xmlns:dc="http://purl.org/dc/elements/1.1/" xmlns:cc="http://creativecommons.org/ns#" xmlns:rdf="http://www.w3.org/1999/02/22-rdf-syntax-ns#">
   <cc:Work>
    <dc:type rdf:resource="http://purl.org/dc/dcmitype/StillImage"/>
    <dc:date>2025-07-25T22:45:22.462313</dc:date>
    <dc:format>image/svg+xml</dc:format>
    <dc:creator>
     <cc:Agent>
      <dc:title>Matplotlib v3.10.3, https://matplotlib.org/</dc:title>
     </cc:Agent>
    </dc:creator>
   </cc:Work>
  </rdf:RDF>
 </metadata>
 <defs>
  <style type="text/css">*{stroke-linejoin: round; stroke-linecap: butt}</style>
 </defs>
 <g id="figure_1">
  <g id="patch_1">
   <path d="M 0 820.98809 
L 576 820.98809 
L 576 0 
L 0 0 
L 0 820.98809 
z
" style="fill: none; opacity: 0"/>
  </g>
  <g id="axes_1">
   <g id="QuadContourSet_1">
    <path d="M 3.291429 820.98809 
L 6.582857 820.98809 
L 9.874286 820.98809 
L 13.165714 820.98809 
L 16.457143 820.98809 
L 19.748571 820.98809 
L 23.04 820.98809 
L 26.331429 820.98809 
L 29.622857 820.98809 
L 32.914286 820.98809 
L 36.205714 820.98809 
L 39.497143 820.98809 
L 42.788571 820.98809 
L 46.08 820.98809 
L 49.371429 820.98809 
L 52.662857 820.98809 
L 55.954286 820.98809 
L 59.245714 820.98809 
L 62.537143 820.98809 
L 65.828571 820.98809 
L 69.12 820.98809 
L 72.411429 820.98809 
L 75.702857 820.98809 
L 78.994286 820.98809 
L 82.285714 820.98809 
L 85.577143 820.98809 
L 88.868571 820.98809 
L 92.16 820.98809 
L 95.451429 820.98809 
L 98.742857 820.98809 
L 102.034286 820.98809 
L 105.325714 820.98809 
L 108.617143 820.98809 
L 111.908571 820.98809 
L 115.2 820.98809 
L 118.491429 820.98809 
L 121.782857 820.98809 
L 125.074286 820.98809 
L 128.365714 820.98809 
L 131.657143 820.98809 
L 134.948571 820.98809 
L 138.24 820.98809 
L 141.531429 820.98809 
L 144.822857 820.98809 
L 148.114286 820.98809 
L 151.405714 820.98809 
L 154.697143 820.98809 
L 157.988571 820.98809 
L 161.28 820.98809 
L 164.571429 820.98809 
L 167.862857 820.98809 
L 171.154286 820.98809 
L 174.445714 820.98809 
L 177.737143 820.98809 
L 181.028571 820.98809 
L 184.32 820.98809 
L 187.611429 820.98809 
L 190.902857 820.98809 
L 194.194286 820.98809 
L 197.485714 820.98809 
L 200.777143 820.98809 
L 204.068571 820.98809 
L 207.36 820.98809 
L 210.651429 820.98809 
L 213.942857 820.98809 
L 217.234286 820.98809 
L 220.525714 820.98809 
L 223.817143 820.98809 
L 227.108571 820.98809 
L 230.4 820.98809 
L 233.691429 820.98809 
L 236.982857 820.98809 
L 240.274286 820.98809 
L 243.565714 820.98809 
L 246.857143 820.98809 
L 250.148571 820.98809 
L 253.44 820.98809 
L 256.731429 820.98809 
L 260.022857 820.98809 
L 263.314286 820.98809 
L 266.605714 820.98809 
L 269.897143 820.98809 
L 273.188571 820.98809 
L 276.48 820.98809 
L 279.771429 820.98809 
L 283.062857 820.98809 
L 286.354286 820.98809 
L 289.645714 820.98809 
L 292.937143 820.98809 
L 296.228571 820.98809 
L 299.52 820.98809 
L 302.811429 820.98809 
L 306.102857 820.98809 
L 309.394286 820.98809 
L 312.685714 820.98809 
L 315.977143 820.98809 
L 319.268571 820.98809 
L 322.56 820.98809 
L 325.851429 820.98809 
L 329.142857 820.98809 
L 332.434286 820.98809 
L 335.725714 820.98809 
L 339.017143 820.98809 
L 342.308571 820.98809 
L 345.6 820.98809 
L 348.891429 820.98809 
L 352.182857 820.98809 
L 355.474286 820.98809 
L 358.765714 820.98809 
L 362.057143 820.98809 
L 365.348571 820.98809 
L 368.64 820.98809 
L 371.931429 820.98809 
L 375.222857 820.98809 
L 378.514286 820.98809 
L 381.805714 820.98809 
L 385.097143 820.98809 
L 388.388571 820.98809 
L 391.68 820.98809 
L 394.971429 820.98809 
L 398.262857 820.98809 
L 401.554286 820.98809 
L 404.845714 820.98809 
L 408.137143 820.98809 
L 411.428571 820.98809 
L 414.72 820.98809 
L 418.011429 820.98809 
L 421.302857 820.98809 
L 424.594286 820.98809 
L 427.885714 820.98809 
L 431.177143 820.98809 
L 434.468571 820.98809 
L 437.76 820.98809 
L 441.051429 820.98809 
L 444.342857 820.98809 
L 447.634286 820.98809 
L 450.925714 820.98809 
L 454.217143 820.98809 
L 457.508571 820.98809 
L 460.8 820.98809 
L 464.091429 820.98809 
L 467.382857 820.98809 
L 470.674286 820.98809 
L 473.965714 820.98809 
L 477.257143 820.98809 
L 480.548571 820.98809 
L 483.84 820.98809 
L 487.131429 820.98809 
L 490.422857 820.98809 
L 493.714286 820.98809 
L 497.005714 820.98809 
L 500.297143 820.98809 
L 503.588571 820.98809 
L 506.88 820.98809 
L 510.171429 820.98809 
L 513.462857 820.98809 
L 516.754286 820.98809 
L 520.045714 820.98809 
L 523.337143 820.98809 
L 526.628571 820.98809 
L 529.92 820.98809 
L 533.211429 820.98809 
L 536.502857 820.98809 
L 539.794286 820.98809 
L 543.085714 820.98809 
L 546.377143 820.98809 
L 549.668571 820.98809 
L 552.96 820.98809 
L 556.251429 820.98809 
L 559.542857 820.98809 
L 562.834286 820.98809 
L 566.125714 820.98809 
L 569.417143 820.98809 
L 572.708571 820.98809 
L 576 820.98809 
L 576 817.690949 
L 576 814.393808 
L 576 811.096667 
L 576 807.799526 
L 576 804.502385 
L 576 801.205245 
L 576 797.908104 
L 576 794.610963 
L 576 791.313822 
L 576 788.016681 
L 576 784.71954 
L 576 781.422399 
L 576 778.125258 
L 576 774.828117 
L 576 771.530976 
L 576 768.233835 
L 576 764.936694 
L 576 761.639553 
L 576 758.342413 
L 576 755.045272 
L 576 751.748131 
L 576 748.45099 
L 576 745.153849 
L 576 741.856708 
L 576 738.559567 
L 576 735.262426 
L 576 731.965285 
L 576 728.668144 
L 576 725.371003 
L 576 722.073862 
L 576 718.776721 
L 576 715.479581 
L 576 712.18244 
L 576 708.885299 
L 576 705.588158 
L 576 702.291017 
L 576 698.993876 
L 576 695.696735 
L 576 692.399594 
L 576 689.102453 
L 576 685.805312 
L 576 682.508171 
L 576 679.21103 
L 576 675.913889 
L 576 672.616749 
L 576 669.319608 
L 576 666.022467 
L 576 662.725326 
L 576 659.428185 
L 576 656.131044 
L 576 652.833903 
L 576 649.536762 
L 576 646.239621 
L 576 642.94248 
L 576 639.645339 
L 576 636.348198 
L 576 633.051057 
L 576 629.753917 
L 576 626.456776 
L 576 623.159635 
L 576 619.862494 
L 576 616.565353 
L 576 613.268212 
L 576 609.971071 
L 576 606.67393 
L 576 603.376789 
L 576 600.079648 
L 576 596.782507 
L 576 593.485366 
L 576 590.188225 
L 576 586.891085 
L 576 583.593944 
L 576 580.296803 
L 576 576.999662 
L 576 573.702521 
L 576 570.40538 
L 576 567.108239 
L 576 563.811098 
L 576 560.513957 
L 576 557.216816 
L 576 553.919675 
L 576 550.622534 
L 576 547.325393 
L 576 544.028252 
L 576 540.731112 
L 576 537.433971 
L 576 534.13683 
L 576 530.839689 
L 576 527.542548 
L 576 524.245407 
L 576 520.948266 
L 576 517.651125 
L 576 514.353984 
L 576 511.056843 
L 576 507.759702 
L 576 504.462561 
L 576 501.16542 
L 576 497.86828 
L 576 494.571139 
L 576 491.273998 
L 576 487.976857 
L 576 484.679716 
L 576 481.382575 
L 576 478.085434 
L 576 474.788293 
L 576 471.491152 
L 576 468.194011 
L 576 464.89687 
L 576 461.599729 
L 576 458.302588 
L 576 455.005448 
L 576 451.708307 
L 576 448.411166 
L 576 445.114025 
L 576 441.816884 
L 576 438.519743 
L 576 435.222602 
L 576 431.925461 
L 576 428.62832 
L 576 425.331179 
L 576 422.034038 
L 576 418.736897 
L 576 415.439756 
L 576 412.142616 
L 576 408.845475 
L 576 405.548334 
L 576 402.251193 
L 576 398.954052 
L 576 395.656911 
L 576 392.35977 
L 576 389.062629 
L 576 385.765488 
L 576 382.468347 
L 576 379.171206 
L 576 375.874065 
L 576 372.576924 
L 576 369.279784 
L 576 365.982643 
L 576 362.685502 
L 576 359.388361 
L 576 356.09122 
L 576 352.794079 
L 576 349.496938 
L 576 346.199797 
L 576 342.902656 
L 576 339.605515 
L 576 336.308374 
L 576 333.011233 
L 576 329.714092 
L 576 326.416951 
L 576 323.119811 
L 576 319.82267 
L 576 316.525529 
L 576 313.228388 
L 576 309.931247 
L 576 306.634106 
L 576 303.336965 
L 576 300.039824 
L 576 296.742683 
L 576 293.445542 
L 576 290.148401 
L 576 286.85126 
L 576 283.554119 
L 576 280.256979 
L 576 276.959838 
L 576 273.662697 
L 576 270.365556 
L 576 267.068415 
L 576 263.771274 
L 576 260.474133 
L 576 257.176992 
L 576 253.879851 
L 576 250.58271 
L 576 247.285569 
L 576 243.988428 
L 576 240.691287 
L 576 237.394147 
L 576 234.097006 
L 576 230.799865 
L 576 227.502724 
L 576 224.205583 
L 576 220.908442 
L 576 217.611301 
L 576 214.31416 
L 576 211.017019 
L 576 207.719878 
L 576 204.422737 
L 576 201.125596 
L 576 197.828455 
L 576 194.531315 
L 576 191.234174 
L 576 187.937033 
L 576 184.639892 
L 576 181.342751 
L 576 178.04561 
L 576 174.748469 
L 576 171.451328 
L 576 168.154187 
L 576 164.857046 
L 576 161.559905 
L 576 158.262764 
L 576 154.965623 
L 576 151.668483 
L 576 148.371342 
L 576 145.074201 
L 576 141.77706 
L 576 138.479919 
L 576 135.182778 
L 576 131.885637 
L 576 128.588496 
L 576 125.291355 
L 576 121.994214 
L 576 118.697073 
L 576 115.399932 
L 576 112.102791 
L 576 108.80565 
L 576 105.50851 
L 576 102.211369 
L 576 98.914228 
L 576 95.617087 
L 576 92.319946 
L 576 89.022805 
L 576 85.725664 
L 576 82.428523 
L 576 79.131382 
L 576 75.834241 
L 576 72.5371 
L 576 69.239959 
L 576 65.942818 
L 576 62.645678 
L 576 59.348537 
L 576 56.051396 
L 576 52.754255 
L 576 49.457114 
L 576 46.159973 
L 576 42.862832 
L 576 39.565691 
L 576 36.26855 
L 576 32.971409 
L 576 29.674268 
L 576 26.377127 
L 576 23.079986 
L 576 19.782846 
L 576 16.485705 
L 576 13.188564 
L 576 9.891423 
L 576 6.594282 
L 576 3.297141 
L 576 0 
L 572.708571 0 
L 569.417143 0 
L 566.125714 0 
L 562.834286 0 
L 559.542857 0 
L 556.251429 0 
L 552.96 0 
L 549.668571 0 
L 546.377143 0 
L 543.085714 0 
L 539.794286 0 
L 536.502857 0 
L 533.211429 0 
L 529.92 0 
L 526.628571 0 
L 523.337143 0 
L 520.045714 0 
L 516.754286 0 
L 513.462857 0 
L 510.171429 0 
L 506.88 0 
L 503.588571 0 
L 500.297143 0 
L 497.005714 0 
L 493.714286 0 
L 490.422857 0 
L 487.131429 0 
L 483.84 0 
L 480.548571 0 
L 477.257143 0 
L 473.965714 0 
L 470.674286 0 
L 467.382857 0 
L 464.091429 0 
L 460.8 0 
L 457.508571 0 
L 454.217143 0 
L 450.925714 0 
L 447.634286 0 
L 444.342857 0 
L 441.051429 0 
L 437.76 0 
L 434.468571 0 
L 431.177143 0 
L 427.885714 0 
L 424.594286 0 
L 421.302857 0 
L 418.011429 0 
L 414.72 0 
L 411.428571 0 
L 408.137143 0 
L 404.845714 0 
L 401.554286 0 
L 398.262857 0 
L 394.971429 0 
L 391.68 0 
L 388.388571 0 
L 385.097143 0 
L 381.805714 0 
L 378.514286 0 
L 375.222857 0 
L 371.931429 0 
L 368.64 0 
L 365.348571 0 
L 362.057143 0 
L 358.765714 0 
L 355.474286 0 
L 352.182857 0 
L 348.891429 0 
L 345.6 0 
L 342.308571 0 
L 339.017143 0 
L 335.725714 0 
L 332.434286 0 
L 329.142857 0 
L 325.851429 0 
L 322.56 0 
L 319.268571 0 
L 315.977143 0 
L 312.685714 0 
L 309.394286 0 
L 306.102857 0 
L 302.811429 0 
L 299.52 0 
L 296.228571 0 
L 292.937143 0 
L 289.645714 0 
L 286.354286 0 
L 283.062857 0 
L 279.771429 0 
L 276.48 0 
L 273.188571 0 
L 269.897143 0 
L 266.605714 0 
L 263.314286 0 
L 260.022857 0 
L 256.731429 0 
L 253.44 0 
L 250.148571 0 
L 246.857143 0 
L 243.565714 0 
L 240.274286 0 
L 236.982857 0 
L 233.691429 0 
L 230.4 0 
L 227.108571 0 
L 223.817143 0 
L 220.525714 0 
L 217.234286 0 
L 213.942857 0 
L 210.651429 0 
L 207.36 0 
L 204.068571 0 
L 200.777143 0 
L 197.485714 0 
L 194.194286 0 
L 190.902857 0 
L 187.611429 0 
L 184.32 0 
L 181.028571 0 
L 177.737143 0 
L 174.445714 0 
L 171.154286 0 
L 167.862857 0 
L 164.571429 0 
L 161.28 0 
L 157.988571 0 
L 154.697143 0 
L 151.405714 0 
L 148.114286 0 
L 144.822857 0 
L 141.531429 0 
L 138.24 0 
L 134.948571 0 
L 131.657143 0 
L 128.365714 0 
L 125.074286 0 
L 121.782857 0 
L 118.491429 0 
L 115.2 0 
L 111.908571 0 
L 108.617143 0 
L 105.325714 0 
L 102.034286 0 
L 98.742857 0 
L 95.451429 0 
L 92.16 0 
L 88.868571 0 
L 85.577143 0 
L 82.285714 0 
L 78.994286 0 
L 75.702857 0 
L 72.411429 0 
L 69.12 0 
L 65.828571 0 
L 62.537143 0 
L 59.245714 0 
L 55.954286 0 
L 52.662857 0 
L 49.371429 0 
L 46.08 0 
L 42.788571 0 
L 39.497143 0 
L 36.205714 0 
L 32.914286 0 
L 29.622857 0 
L 26.331429 0 
L 23.04 0 
L 19.748571 0 
L 16.457143 0 
L 13.165714 0 
L 9.874286 0 
L 6.582857 0 
L 3.291429 0 
L 0 0 
L 0 3.297141 
L 0 6.594282 
L 0 9.891423 
L 0 13.188564 
L 0 16.485705 
L 0 19.782846 
L 0 23.079986 
L 0 26.377127 
L 0 29.674268 
L 0 32.971409 
L 0 36.26855 
L 0 39.565691 
L 0 42.862832 
L 0 46.159973 
L 0 49.457114 
L 0 52.754255 
L 0 56.051396 
L 0 59.348537 
L 0 62.645678 
L 0 65.942818 
L 0 69.239959 
L 0 72.5371 
L 0 75.834241 
L 0 79.131382 
L 0 82.428523 
L 0 85.725664 
L 0 89.022805 
L 0 92.319946 
L 0 95.617087 
L 0 98.914228 
L 0 102.211369 
L 0 105.50851 
L 0 108.80565 
L 0 112.102791 
L 0 115.399932 
L 0 118.697073 
L 0 121.994214 
L 0 125.291355 
L 0 128.588496 
L 0 131.885637 
L 0 135.182778 
L 0 138.479919 
L 0 141.77706 
L 0 145.074201 
L 0 148.371342 
L 0 151.668483 
L 0 154.965623 
L 0 158.262764 
L 0 161.559905 
L 0 164.857046 
L 0 168.154187 
L 0 171.451328 
L 0 174.748469 
L 0 178.04561 
L 0 181.342751 
L 0 184.639892 
L 0 187.937033 
L 0 191.234174 
L 0 194.531315 
L 0 197.828455 
L 0 201.125596 
L 0 204.422737 
L 0 207.719878 
L 0 211.017019 
L 0 214.31416 
L 0 217.611301 
L 0 220.908442 
L 0 224.205583 
L 0 227.502724 
L 0 230.799865 
L 0 234.097006 
L 0 237.394147 
L 0 240.691287 
L 0 243.988428 
L 0 247.285569 
L 0 250.58271 
L 0 253.879851 
L 0 257.176992 
L 0 260.474133 
L 0 263.771274 
L 0 267.068415 
L 0 270.365556 
L 0 273.662697 
L 0 276.959838 
L 0 280.256979 
L 0 283.554119 
L 0 286.85126 
L 0 290.148401 
L 0 293.445542 
L 0 296.742683 
L 0 300.039824 
L 0 303.336965 
L 0 306.634106 
L 0 309.931247 
L 0 313.228388 
L 0 316.525529 
L 0 319.82267 
L 0 323.119811 
L 0 326.416951 
L 0 329.714092 
L 0 333.011233 
L 0 336.308374 
L 0 339.605515 
L 0 342.902656 
L 0 346.199797 
L 0 349.496938 
L 0 352.794079 
L 0 356.09122 
L 0 359.388361 
L 0 362.685502 
L 0 365.982643 
L 0 369.279784 
L 0 372.576924 
L 0 375.874065 
L 0 379.171206 
L 0 382.468347 
L 0 385.765488 
L 0 389.062629 
L 0 392.35977 
L 0 395.656911 
L 0 398.954052 
L 0 402.251193 
L 0 405.548334 
L 0 408.845475 
L 0 412.142616 
L 0 415.439756 
L 0 418.736897 
L 0 422.034038 
L 0 425.331179 
L 0 428.62832 
L 0 431.925461 
L 0 435.222602 
L 0 438.519743 
L 0 441.816884 
L 0 445.114025 
L 0 448.411166 
L 0 451.708307 
L 0 455.005448 
L 0 458.302588 
L 0 461.599729 
L 0 464.89687 
L 0 468.194011 
L 0 471.491152 
L 0 474.788293 
L 0 478.085434 
L 0 481.382575 
L 0 484.679716 
L 0 487.976857 
L 0 491.273998 
L 0 494.571139 
L 0 497.86828 
L 0 501.16542 
L 0 504.462561 
L 0 507.759702 
L 0 511.056843 
L 0 514.353984 
L 0 517.651125 
L 0 520.948266 
L 0 524.245407 
L 0 527.542548 
L 0 530.839689 
L 0 534.13683 
L 0 537.433971 
L 0 540.731112 
L 0 544.028252 
L 0 547.325393 
L 0 550.622534 
L 0 553.919675 
L 0 557.216816 
L 0 560.513957 
L 0 563.811098 
L 0 567.108239 
L 0 570.40538 
L 0 573.702521 
L 0 576.999662 
L 0 580.296803 
L 0 583.593944 
L 0 586.891085 
L 0 590.188225 
L 0 593.485366 
L 0 596.782507 
L 0 600.079648 
L 0 603.376789 
L 0 606.67393 
L 0 609.971071 
L 0 613.268212 
L 0 616.565353 
L 0 619.862494 
L 0 623.159635 
L 0 626.456776 
L 0 629.753917 
L 0 633.051057 
L 0 636.348198 
L 0 639.645339 
L 0 642.94248 
L 0 646.239621 
L 0 649.536762 
L 0 652.833903 
L 0 656.131044 
L 0 659.428185 
L 0 662.725326 
L 0 666.022467 
L 0 669.319608 
L 0 672.616749 
L 0 675.913889 
L 0 679.21103 
L 0 682.508171 
L 0 685.805312 
L 0 689.102453 
L 0 692.399594 
L 0 695.696735 
L 0 698.993876 
L 0 702.291017 
L 0 705.588158 
L 0 708.885299 
L 0 712.18244 
L 0 715.479581 
L 0 718.776721 
L 0 722.073862 
L 0 725.371003 
L 0 728.668144 
L 0 731.965285 
L 0 735.262426 
L 0 738.559567 
L 0 741.856708 
L 0 745.153849 
L 0 748.45099 
L 0 751.748131 
L 0 755.045272 
L 0 758.342413 
L 0 761.639553 
L 0 764.936694 
L 0 768.233835 
L 0 771.530976 
L 0 774.828117 
L 0 778.125258 
L 0 781.422399 
L 0 784.71954 
L 0 788.016681 
L 0 791.313822 
L 0 794.610963 
L 0 797.908104 
L 0 801.205245 
L 0 804.502385 
L 0 807.799526 
L 0 811.096667 
L 0 814.393808 
L 0 817.690949 
L 0 820.98809 
z
" clip-path="url(#p7304766c50)" style="fill: #f5f9fe; fill-opacity: 0.9"/>
    <path clip-path="url(#p7304766c50)" style="fill: #eff6fc; fill-opacity: 0.9"/>
    <path clip-path="url(#p7304766c50)" style="fill: #eaf3fb; fill-opacity: 0.9"/>
    <path clip-path="url(#p7304766c50)" style="fill: #e5eff9; fill-opacity: 0.9"/>
    <path clip-path="url(#p7304766c50)" style="fill: #dfecf7; fill-opacity: 0.9"/>
    <path clip-path="url(#p7304766c50)" style="fill: #dae8f6; fill-opacity: 0.9"/>
    <path clip-path="url(#p7304766c50)" style="fill: #d6e5f4; fill-opacity: 0.9"/>
    <path clip-path="url(#p7304766c50)" style="fill: #d0e2f2; fill-opacity: 0.9"/>
    <path clip-path="url(#p7304766c50)" style="fill: #cbdef1; fill-opacity: 0.9"/>
    <path clip-path="url(#p7304766c50)" style="fill: #c6dbef; fill-opacity: 0.9"/>
    <path clip-path="url(#p7304766c50)" style="fill: #bed8ec; fill-opacity: 0.9"/>
    <path clip-path="url(#p7304766c50)" style="fill: #b5d4e9; fill-opacity: 0.9"/>
    <path clip-path="url(#p7304766c50)" style="fill: #add0e6; fill-opacity: 0.9"/>
    <path clip-path="url(#p7304766c50)" style="fill: #a5cde3; fill-opacity: 0.9"/>
    <path clip-path="url(#p7304766c50)" style="fill: #9cc9e1; fill-opacity: 0.9"/>
    <path clip-path="url(#p7304766c50)" style="fill: #91c3de; fill-opacity: 0.9"/>
    <path clip-path="url(#p7304766c50)" style="fill: #85bcdc; fill-opacity: 0.9"/>
    <path clip-path="url(#p7304766c50)" style="fill: #7cb7da; fill-opacity: 0.9"/>
    <path clip-path="url(#p7304766c50)" style="fill: #71b1d7; fill-opacity: 0.9"/>
    <path clip-path="url(#p7304766c50)" style="fill: #66abd4; fill-opacity: 0.9"/>
    <path clip-path="url(#p7304766c50)" style="fill: #5da5d1; fill-opacity: 0.9"/>
    <path clip-path="url(#p7304766c50)" style="fill: #56a0ce; fill-opacity: 0.9"/>
    <path clip-path="url(#p7304766c50)" style="fill: #4d99ca; fill-opacity: 0.9"/>
    <path clip-path="url(#p7304766c50)" style="fill: #4493c7; fill-opacity: 0.9"/>
    <path clip-path="url(#p7304766c50)" style="fill: #3c8cc3; fill-opacity: 0.9"/>
    <path clip-path="url(#p7304766c50)" style="fill: #3686c0; fill-opacity: 0.9"/>
    <path clip-path="url(#p7304766c50)" style="fill: #2f7fbc; fill-opacity: 0.9"/>
    <path clip-path="url(#p7304766c50)" style="fill: #2777b8; fill-opacity: 0.9"/>
    <path clip-path="url(#p7304766c50)" style="fill: #2070b4; fill-opacity: 0.9"/>
    <path clip-path="url(#p7304766c50)" style="fill: #1c6ab0; fill-opacity: 0.9"/>
    <path clip-path="url(#p7304766c50)" style="fill: #1663aa; fill-opacity: 0.9"/>
    <path clip-path="url(#p7304766c50)" style="fill: #115ca5; fill-opacity: 0.9"/>
    <path clip-path="url(#p7304766c50)" style="fill: #0c56a0; fill-opacity: 0.9"/>
    <path clip-path="url(#p7304766c50)" style="fill: #084f99; fill-opacity: 0.9"/>
    <path clip-path="url(#p7304766c50)" style="fill: #08488e; fill-opacity: 0.9"/>
    <path clip-path="url(#p7304766c50)" style="fill: #084184; fill-opacity: 0.9"/>
    <path clip-path="url(#p7304766c50)" style="fill: #083a7a; fill-opacity: 0.9"/>
    <path clip-path="url(#p7304766c50)" style="fill: #083370; fill-opacity: 0.9"/>
    <path clip-path="url(#p7304766c50)" style="fill: #08306b; fill-opacity: 0.9"/>
   </g>
   <g id="QuadContourSet_2">
    <path clip-path="url(#p7304766c50)" style="fill: none"/>
    <path clip-path="url(#p7304766c50)" style="fill: none"/>
    <path clip-path="url(#p7304766c50)" style="fill: none"/>
    <path clip-path="url(#p7304766c50)" style="fill: none"/>
    <path clip-path="url(#p7304766c50)" style="fill: none"/>
    <path clip-path="url(#p7304766c50)" style="fill: none"/>
    <path clip-path="url(#p7304766c50)" style="fill: none"/>
    <path clip-path="url(#p7304766c50)" style="fill: none"/>
    <path clip-path="url(#p7304766c50)" style="fill: none"/>
    <path clip-path="url(#p7304766c50)" style="fill: none"/>
    <path clip-path="url(#p7304766c50)" style="fill: none"/>
    <path clip-path="url(#p7304766c50)" style="fill: none"/>
    <path clip-path="url(#p7304766c50)" style="fill: none"/>
    <path clip-path="url(#p7304766c50)" style="fill: none"/>
    <path clip-path="url(#p7304766c50)" style="fill: none"/>
    <path clip-path="url(#p7304766c50)" style="fill: none"/>
    <path clip-path="url(#p7304766c50)" style="fill: none"/>
    <path clip-path="url(#p7304766c50)" style="fill: none"/>
    <path clip-path="url(#p7304766c50)" style="fill: none"/>
    <path clip-path="url(#p7304766c50)" style="fill: none"/>
    <path clip-path="url(#p7304766c50)" style="fill: none"/>
    <path clip-path="url(#p7304766c50)" style="fill: none"/>
    <path clip-path="url(#p7304766c50)" style="fill: none"/>
    <path clip-path="url(#p7304766c50)" style="fill: none"/>
    <path clip-path="url(#p7304766c50)" style="fill: none"/>
    <path clip-path="url(#p7304766c50)" style="fill: none"/>
    <path clip-path="url(#p7304766c50)" style="fill: none"/>
    <path clip-path="url(#p7304766c50)" style="fill: none"/>
    <path clip-path="url(#p7304766c50)" style="fill: none"/>
    <path clip-path="url(#p7304766c50)" style="fill: none"/>
    <path clip-path="url(#p7304766c50)" style="fill: none"/>
    <path clip-path="url(#p7304766c50)" style="fill: none"/>
    <path clip-path="url(#p7304766c50)" style="fill: none"/>
    <path clip-path="url(#p7304766c50)" style="fill: none"/>
    <path clip-path="url(#p7304766c50)" style="fill: none"/>
    <path clip-path="url(#p7304766c50)" style="fill: none"/>
    <path clip-path="url(#p7304766c50)" style="fill: none"/>
    <path clip-path="url(#p7304766c50)" style="fill: none"/>
    <path clip-path="url(#p7304766c50)" style="fill: none"/>
   </g>
  </g>
 </g>
 <defs>
  <clipPath id="p7304766c50">
   <rect x="0" y="0" width="576" height="820.98809"/>
  </clipPath>
 </defs>
</svg>
