<?xml version="1.0" encoding="utf-8" standalone="no"?>
<!DOCTYPE svg PUBLIC "-//W3C//DTD SVG 1.1//EN"
  "http://www.w3.org/Graphics/SVG/1.1/DTD/svg11.dtd">
<svg xmlns:xlink="http://www.w3.org/1999/xlink" width="576pt" height="819.391854pt" viewBox="0 0 576 819.391854" xmlns="http://www.w3.org/2000/svg" version="1.1">
 <metadata>
  <rdf:RDF xmlns:dc="http://purl.org/dc/elements/1.1/" xmlns:cc="http://creativecommons.org/ns#" xmlns:rdf="http://www.w3.org/1999/02/22-rdf-syntax-ns#">
   <cc:Work>
    <dc:type rdf:resource="http://purl.org/dc/dcmitype/StillImage"/>
    <dc:date>2025-07-25T22:45:56.954282</dc:date>
    <dc:format>image/svg+xml</dc:format>
    <dc:creator>
     <cc:Agent>
      <dc:title>Matplotlib v3.10.3, https://matplotlib.org/</dc:title>
     </cc:Agent>
    </dc:creator>
   </cc:Work>
  </rdf:RDF>
 </metadata>
 <defs>
  <style type="text/css">*{stroke-linejoin: round; stroke-linecap: butt}</style>
 </defs>
 <g id="figure_1">
  <g id="patch_1">
   <path d="M 0 819.391854 
L 576 819.391854 
L 576 0 
L 0 0 
L 0 819.391854 
z
" style="fill: none; opacity: 0"/>
  </g>
  <g id="axes_1">
   <g id="QuadContourSet_1">
    <path d="M 31.095672 816.101124 
L 29.622857 814.628333 
L 28.851401 812.810393 
L 28.724977 809.519663 
L 28.541626 806.228933 
L 27.488673 802.938202 
L 26.331429 801.777141 
L 25.689461 799.647472 
L 25.489957 796.356742 
L 25.108202 793.066011 
L 23.694376 789.775281 
L 23.04 789.116967 
L 22.529946 786.484551 
L 22.328648 783.19382 
L 21.865447 779.90309 
L 19.748571 776.650403 
L 19.728667 776.61236 
L 18.89906 773.321629 
L 18.736358 770.030899 
L 18.45488 766.740169 
L 16.457143 763.97652 
L 16.268252 763.449438 
L 15.752422 760.158708 
L 15.505295 756.867978 
L 14.956438 753.577247 
L 13.165714 751.394517 
L 12.871232 750.286517 
L 12.564344 746.995787 
L 12.267582 743.705056 
L 11.397091 740.414326 
L 9.874286 738.84046 
L 9.396753 737.123596 
L 9.198424 733.832865 
L 8.856434 730.542135 
L 7.713965 727.251405 
L 6.582857 726.12374 
L 6.019168 723.960674 
L 5.80157 720.669944 
L 5.312405 717.379214 
L 3.291429 714.617145 
L 3.09869 714.088483 
L 2.549638 710.797753 
L 1.962539 707.507023 
L 0 705.023411 
L -0 706.316874 
L 0.94045 707.507023 
L 1.978515 710.797753 
L 2.609277 714.088483 
L 3.291429 715.959553 
L 4.330179 717.379214 
L 5.196754 720.669944 
L 5.582238 723.960674 
L 6.420295 727.251405 
L 6.582857 727.742729 
L 8.063027 730.542135 
L 8.670911 733.832865 
L 8.997676 737.123596 
L 9.874286 740.275257 
L 10.008843 740.414326 
L 11.561687 743.705056 
L 12.091072 746.995787 
L 12.489895 750.286517 
L 13.165714 752.829314 
L 13.779323 753.577247 
L 14.758406 756.867978 
L 15.199235 760.158708 
L 15.769418 763.449438 
L 16.457143 765.368468 
L 17.448693 766.740169 
L 17.948795 770.030899 
L 18.237839 773.321629 
L 19.000378 776.61236 
L 19.748571 778.042352 
L 20.959555 779.90309 
L 21.779801 783.19382 
L 22.136264 786.484551 
L 22.746642 789.775281 
L 23.04 790.956959 
L 24.170887 793.066011 
L 24.844842 796.356742 
L 25.197809 799.647472 
L 26.18013 802.938202 
L 26.331429 803.419413 
L 27.717619 806.228933 
L 28.040359 809.519663 
L 28.266735 812.810393 
L 29.622857 816.0061 
L 29.717883 816.101124 
L 31.322884 819.391854 
L 32.009042 819.391854 
z
" clip-path="url(#p9e01884a62)" style="fill: #f5f9fe; fill-opacity: 0.9"/>
    <path d="M 29.622857 817.37312 
L 30.636725 819.391854 
L 31.322884 819.391854 
L 29.717883 816.101124 
L 29.622857 816.0061 
L 28.266735 812.810393 
L 28.040359 809.519663 
L 27.717619 806.228933 
L 26.331429 803.419413 
L 26.18013 802.938202 
L 25.197809 799.647472 
L 24.844842 796.356742 
L 24.170887 793.066011 
L 23.04 790.956959 
L 22.746642 789.775281 
L 22.136264 786.484551 
L 21.779801 783.19382 
L 20.959555 779.90309 
L 19.748571 778.042352 
L 19.000378 776.61236 
L 18.237839 773.321629 
L 17.948795 770.030899 
L 17.448693 766.740169 
L 16.457143 765.368468 
L 15.769418 763.449438 
L 15.199235 760.158708 
L 14.758406 756.867978 
L 13.779323 753.577247 
L 13.165714 752.829314 
L 12.489895 750.286517 
L 12.091072 746.995787 
L 11.561687 743.705056 
L 10.008843 740.414326 
L 9.874286 740.275257 
L 8.997676 737.123596 
L 8.670911 733.832865 
L 8.063027 730.542135 
L 6.582857 727.742729 
L 6.420295 727.251405 
L 5.582238 723.960674 
L 5.196754 720.669944 
L 4.330179 717.379214 
L 3.291429 715.959553 
L 2.609277 714.088483 
L 1.978515 710.797753 
L 0.94045 707.507023 
L -0 706.316874 
L 0 707.507023 
L 0 707.610336 
L 1.407392 710.797753 
L 2.119863 714.088483 
L 3.291429 717.301962 
L 3.347953 717.379214 
L 4.591938 720.669944 
L 5.145308 723.960674 
L 5.923816 727.251405 
L 6.582857 729.243279 
L 7.26962 730.542135 
L 8.143398 733.832865 
L 8.598599 737.123596 
L 9.425657 740.414326 
L 9.874286 741.710053 
L 10.855793 743.705056 
L 11.6178 746.995787 
L 12.108558 750.286517 
L 12.927753 753.577247 
L 13.165714 754.555016 
L 14.011516 756.867978 
L 14.646047 760.158708 
L 15.270584 763.449438 
L 16.448856 766.740169 
L 16.457143 766.792856 
L 17.161233 770.030899 
L 17.576618 773.321629 
L 18.27209 776.61236 
L 19.748571 779.4343 
L 20.053664 779.90309 
L 21.230954 783.19382 
L 21.742581 786.484551 
L 22.312679 789.775281 
L 23.04 792.70501 
L 23.233571 793.066011 
L 24.199727 796.356742 
L 24.706157 799.647472 
L 25.655032 802.938202 
L 26.331429 805.089505 
L 26.893612 806.228933 
L 27.355741 809.519663 
L 27.68207 812.810393 
L 28.867156 816.101124 
z
" clip-path="url(#p9e01884a62)" style="fill: #eff6fc; fill-opacity: 0.9"/>
    <path d="M 29.622857 818.739344 
L 29.950567 819.391854 
L 30.636725 819.391854 
L 29.622857 817.37312 
L 28.867156 816.101124 
L 27.68207 812.810393 
L 27.355741 809.519663 
L 26.893612 806.228933 
L 26.331429 805.089505 
L 25.655032 802.938202 
L 24.706157 799.647472 
L 24.199727 796.356742 
L 23.233571 793.066011 
L 23.04 792.70501 
L 22.312679 789.775281 
L 21.742581 786.484551 
L 21.230954 783.19382 
L 20.053664 779.90309 
L 19.748571 779.4343 
L 18.27209 776.61236 
L 17.576618 773.321629 
L 17.161233 770.030899 
L 16.457143 766.792856 
L 16.448856 766.740169 
L 15.270584 763.449438 
L 14.646047 760.158708 
L 14.011516 756.867978 
L 13.165714 754.555016 
L 12.927753 753.577247 
L 12.108558 750.286517 
L 11.6178 746.995787 
L 10.855793 743.705056 
L 9.874286 741.710053 
L 9.425657 740.414326 
L 8.598599 737.123596 
L 8.143398 733.832865 
L 7.26962 730.542135 
L 6.582857 729.243279 
L 5.923816 727.251405 
L 5.145308 723.960674 
L 4.591938 720.669944 
L 3.347953 717.379214 
L 3.291429 717.301962 
L 2.119863 714.088483 
L 1.407392 710.797753 
L 0 707.610336 
L -0 708.903798 
L 0.836268 710.797753 
L 1.63045 714.088483 
L 2.695349 717.379214 
L 3.291429 718.861196 
L 3.987122 720.669944 
L 4.708378 723.960674 
L 5.427337 727.251405 
L 6.486081 730.542135 
L 6.582857 730.753495 
L 7.615884 733.832865 
L 8.199521 737.123596 
L 8.928877 740.414326 
L 9.874286 743.144849 
L 10.149898 743.705056 
L 11.144529 746.995787 
L 11.727221 750.286517 
L 12.430672 753.577247 
L 13.165714 756.59749 
L 13.264626 756.867978 
L 14.09286 760.158708 
L 14.77175 763.449438 
L 15.879178 766.740169 
L 16.392783 770.030899 
L 16.457143 770.4674 
L 16.915397 773.321629 
L 17.543802 776.61236 
L 19.00968 779.90309 
L 19.748571 780.826249 
L 20.682107 783.19382 
L 21.348899 786.484551 
L 21.878716 789.775281 
L 22.626119 793.066011 
L 23.04 794.707012 
L 23.554611 796.356742 
L 24.214505 799.647472 
L 25.129933 802.938202 
L 26.152415 806.228933 
L 26.331429 807.513586 
L 26.671123 809.519663 
L 27.097404 812.810393 
L 28.055472 816.101124 
z
" clip-path="url(#p9e01884a62)" style="fill: #eaf3fb; fill-opacity: 0.9"/>
    <path d="M 29.622857 819.391854 
L 29.950567 819.391854 
L 29.622857 818.739344 
L 28.055472 816.101124 
L 27.097404 812.810393 
L 26.671123 809.519663 
L 26.331429 807.513586 
L 26.152415 806.228933 
L 25.129933 802.938202 
L 24.214505 799.647472 
L 23.554611 796.356742 
L 23.04 794.707012 
L 22.626119 793.066011 
L 21.878716 789.775281 
L 21.348899 786.484551 
L 20.682107 783.19382 
L 19.748571 780.826249 
L 19.00968 779.90309 
L 17.543802 776.61236 
L 16.915397 773.321629 
L 16.457143 770.4674 
L 16.392783 770.030899 
L 15.879178 766.740169 
L 14.77175 763.449438 
L 14.09286 760.158708 
L 13.264626 756.867978 
L 13.165714 756.59749 
L 12.430672 753.577247 
L 11.727221 750.286517 
L 11.144529 746.995787 
L 10.149898 743.705056 
L 9.874286 743.144849 
L 8.928877 740.414326 
L 8.199521 737.123596 
L 7.615884 733.832865 
L 6.582857 730.753495 
L 6.486081 730.542135 
L 5.427337 727.251405 
L 4.708378 723.960674 
L 3.987122 720.669944 
L 3.291429 718.861196 
L 2.695349 717.379214 
L 1.63045 714.088483 
L 0.836268 710.797753 
L -0 708.903798 
L 0 710.197261 
L 0.265145 710.797753 
L 1.141037 714.088483 
L 2.062873 717.379214 
L 3.291429 720.43367 
L 3.382306 720.669944 
L 4.271448 723.960674 
L 4.930858 727.251405 
L 5.766092 730.542135 
L 6.582857 732.325969 
L 7.088371 733.832865 
L 7.800444 737.123596 
L 8.432097 740.414326 
L 9.421857 743.705056 
L 9.874286 744.579645 
L 10.671257 746.995787 
L 11.345883 750.286517 
L 11.933591 753.577247 
L 12.602866 756.867978 
L 13.165714 758.717538 
L 13.539672 760.158708 
L 14.272917 763.449438 
L 15.3095 766.740169 
L 15.785546 770.030899 
L 16.240188 773.321629 
L 16.457143 774.585807 
L 16.815513 776.61236 
L 17.895571 779.90309 
L 19.748571 782.218198 
L 20.13326 783.19382 
L 20.955217 786.484551 
L 21.444753 789.775281 
L 22.104519 793.066011 
L 22.903291 796.356742 
L 23.04 796.775108 
L 23.722852 799.647472 
L 24.604835 802.938202 
L 25.589028 806.228933 
L 26.019218 809.519663 
L 26.331429 811.556615 
L 26.512738 812.810393 
L 27.243789 816.101124 
L 28.924001 819.391854 
z
" clip-path="url(#p9e01884a62)" style="fill: #e5eff9; fill-opacity: 0.9"/>
    <path d="M 27.243789 816.101124 
L 26.512738 812.810393 
L 26.331429 811.556615 
L 26.019218 809.519663 
L 25.589028 806.228933 
L 24.604835 802.938202 
L 23.722852 799.647472 
L 23.04 796.775108 
L 22.903291 796.356742 
L 22.104519 793.066011 
L 21.444753 789.775281 
L 20.955217 786.484551 
L 20.13326 783.19382 
L 19.748571 782.218198 
L 17.895571 779.90309 
L 16.815513 776.61236 
L 16.457143 774.585807 
L 16.240188 773.321629 
L 15.785546 770.030899 
L 15.3095 766.740169 
L 14.272917 763.449438 
L 13.539672 760.158708 
L 13.165714 758.717538 
L 12.602866 756.867978 
L 11.933591 753.577247 
L 11.345883 750.286517 
L 10.671257 746.995787 
L 9.874286 744.579645 
L 9.421857 743.705056 
L 8.432097 740.414326 
L 7.800444 737.123596 
L 7.088371 733.832865 
L 6.582857 732.325969 
L 5.766092 730.542135 
L 4.930858 727.251405 
L 4.271448 723.960674 
L 3.382306 720.669944 
L 3.291429 720.43367 
L 2.062873 717.379214 
L 1.141037 714.088483 
L 0.265145 710.797753 
L 0 710.197261 
L 0 710.797753 
L 0 711.741956 
L 0.651623 714.088483 
L 1.430396 717.379214 
L 2.49063 720.669944 
L 3.291429 722.006143 
L 3.834518 723.960674 
L 4.434378 727.251405 
L 5.046103 730.542135 
L 6.533177 733.832865 
L 6.582857 733.898443 
L 7.401367 737.123596 
L 7.935318 740.414326 
L 8.679632 743.705056 
L 9.874286 746.014441 
L 10.197985 746.995787 
L 10.964546 750.286517 
L 11.436511 753.577247 
L 11.954101 756.867978 
L 12.866393 760.158708 
L 13.165714 760.849427 
L 13.774083 763.449438 
L 14.739823 766.740169 
L 15.178309 770.030899 
L 15.533397 773.321629 
L 16.027746 776.61236 
L 16.457143 778.704214 
L 16.781462 779.90309 
L 19.193613 783.19382 
L 19.748571 783.610147 
L 20.561534 786.484551 
L 21.01079 789.775281 
L 21.582919 793.066011 
L 22.227502 796.356742 
L 23.04 798.843204 
L 23.2312 799.647472 
L 24.079737 802.938202 
L 25.025641 806.228933 
L 25.39953 809.519663 
L 25.856444 812.810393 
L 26.331429 815.599645 
L 26.432106 816.101124 
L 27.586218 819.391854 
L 28.924001 819.391854 
z
" clip-path="url(#p9e01884a62)" style="fill: #dfecf7; fill-opacity: 0.9"/>
    <path d="M 26.331429 819.391854 
L 27.586218 819.391854 
L 26.432106 816.101124 
L 26.331429 815.599645 
L 25.856444 812.810393 
L 25.39953 809.519663 
L 25.025641 806.228933 
L 24.079737 802.938202 
L 23.2312 799.647472 
L 23.04 798.843204 
L 22.227502 796.356742 
L 21.582919 793.066011 
L 21.01079 789.775281 
L 20.561534 786.484551 
L 19.748571 783.610147 
L 19.193613 783.19382 
L 16.781462 779.90309 
L 16.457143 778.704214 
L 16.027746 776.61236 
L 15.533397 773.321629 
L 15.178309 770.030899 
L 14.739823 766.740169 
L 13.774083 763.449438 
L 13.165714 760.849427 
L 12.866393 760.158708 
L 11.954101 756.867978 
L 11.436511 753.577247 
L 10.964546 750.286517 
L 10.197985 746.995787 
L 9.874286 746.014441 
L 8.679632 743.705056 
L 7.935318 740.414326 
L 7.401367 737.123596 
L 6.582857 733.898443 
L 6.533177 733.832865 
L 5.046103 730.542135 
L 4.434378 727.251405 
L 3.834518 723.960674 
L 3.291429 722.006143 
L 2.49063 720.669944 
L 1.430396 717.379214 
L 0.651623 714.088483 
L 0 711.741956 
L 0 713.504357 
L 0.16221 714.088483 
L 0.79792 717.379214 
L 1.548229 720.669944 
L 3.291429 723.578617 
L 3.397588 723.960674 
L 3.937899 727.251405 
L 4.326114 730.542135 
L 5.341921 733.832865 
L 6.582857 735.470917 
L 7.00229 737.123596 
L 7.438538 740.414326 
L 7.937406 743.705056 
L 9.410637 746.995787 
L 9.874286 747.473928 
L 10.583209 750.286517 
L 10.93943 753.577247 
L 11.305336 756.867978 
L 11.942544 760.158708 
L 13.165714 762.981316 
L 13.275249 763.449438 
L 14.170145 766.740169 
L 14.571071 770.030899 
L 14.826606 773.321629 
L 15.182358 776.61236 
L 15.711665 779.90309 
L 16.457143 781.873814 
L 17.338159 783.19382 
L 19.748571 785.002095 
L 20.167852 786.484551 
L 20.576827 789.775281 
L 21.061319 793.066011 
L 21.551712 796.356742 
L 22.453707 799.647472 
L 23.04 800.911301 
L 23.554639 802.938202 
L 24.462254 806.228933 
L 24.779842 809.519663 
L 25.167952 812.810393 
L 25.65301 816.101124 
L 26.276524 819.391854 
z
" clip-path="url(#p9e01884a62)" style="fill: #dae8f6; fill-opacity: 0.9"/>
    <path d="M 25.65301 816.101124 
L 25.167952 812.810393 
L 24.779842 809.519663 
L 24.462254 806.228933 
L 23.554639 802.938202 
L 23.04 800.911301 
L 22.453707 799.647472 
L 21.551712 796.356742 
L 21.061319 793.066011 
L 20.576827 789.775281 
L 20.167852 786.484551 
L 19.748571 785.002095 
L 17.338159 783.19382 
L 16.457143 781.873814 
L 15.711665 779.90309 
L 15.182358 776.61236 
L 14.826606 773.321629 
L 14.571071 770.030899 
L 14.170145 766.740169 
L 13.275249 763.449438 
L 13.165714 762.981316 
L 11.942544 760.158708 
L 11.305336 756.867978 
L 10.93943 753.577247 
L 10.583209 750.286517 
L 9.874286 747.473928 
L 9.410637 746.995787 
L 7.937406 743.705056 
L 7.438538 740.414326 
L 7.00229 737.123596 
L 6.582857 735.470917 
L 5.341921 733.832865 
L 4.326114 730.542135 
L 3.937899 727.251405 
L 3.397588 723.960674 
L 3.291429 723.578617 
L 1.548229 720.669944 
L 0.79792 717.379214 
L 0.16221 714.088483 
L 0 713.504357 
L 0 714.088483 
L -0 716.453775 
L 0.165443 717.379214 
L 0.605828 720.669944 
L 1.811862 723.960674 
L 3.291429 726.312758 
L 3.44142 727.251405 
L 3.606125 730.542135 
L 4.150664 733.832865 
L 6.582857 737.043391 
L 6.603212 737.123596 
L 6.941758 740.414326 
L 7.19518 743.705056 
L 7.943574 746.995787 
L 9.874286 748.986849 
L 10.201872 750.286517 
L 10.442349 753.577247 
L 10.656571 756.867978 
L 11.018695 760.158708 
L 11.913972 763.449438 
L 13.165714 765.113205 
L 13.600467 766.740169 
L 13.963834 770.030899 
L 14.119815 773.321629 
L 14.33697 776.61236 
L 14.660064 779.90309 
L 15.584518 783.19382 
L 16.457143 784.313435 
L 19.748571 786.394044 
L 19.774169 786.484551 
L 20.142864 789.775281 
L 20.539719 793.066011 
L 20.875923 796.356742 
L 21.494313 799.647472 
L 23.00707 802.938202 
L 23.04 802.980645 
L 23.898867 806.228933 
L 24.160153 809.519663 
L 24.479461 812.810393 
L 24.878528 816.101124 
L 25.391507 819.391854 
L 26.276524 819.391854 
z
" clip-path="url(#p9e01884a62)" style="fill: #d6e5f4; fill-opacity: 0.9"/>
    <path d="M 24.878528 816.101124 
L 24.479461 812.810393 
L 24.160153 809.519663 
L 23.898867 806.228933 
L 23.04 802.980645 
L 23.00707 802.938202 
L 21.494313 799.647472 
L 20.875923 796.356742 
L 20.539719 793.066011 
L 20.142864 789.775281 
L 19.774169 786.484551 
L 19.748571 786.394044 
L 16.457143 784.313435 
L 15.584518 783.19382 
L 14.660064 779.90309 
L 14.33697 776.61236 
L 14.119815 773.321629 
L 13.963834 770.030899 
L 13.600467 766.740169 
L 13.165714 765.113205 
L 11.913972 763.449438 
L 11.018695 760.158708 
L 10.656571 756.867978 
L 10.442349 753.577247 
L 10.201872 750.286517 
L 9.874286 748.986849 
L 7.943574 746.995787 
L 7.19518 743.705056 
L 6.941758 740.414326 
L 6.603212 737.123596 
L 6.582857 737.043391 
L 4.150664 733.832865 
L 3.606125 730.542135 
L 3.44142 727.251405 
L 3.291429 726.312758 
L 1.811862 723.960674 
L 0.605828 720.669944 
L 0.165443 717.379214 
L -0 716.453775 
L 0 717.379214 
L 0 720.669944 
L 0 723.960674 
L 0 724.983681 
L 0.619145 727.251405 
L 0.780324 730.542135 
L 1.335063 733.832865 
L 3.291429 737.060084 
L 3.310343 737.123596 
L 4.601419 740.414326 
L 5.033239 743.705056 
L 5.738108 746.995787 
L 6.582857 748.520972 
L 7.811112 750.286517 
L 9.874286 751.921184 
L 9.945269 753.577247 
L 10.007806 756.867978 
L 10.094847 760.158708 
L 10.310037 763.449438 
L 11.725972 766.740169 
L 13.165714 768.154183 
L 13.356597 770.030899 
L 13.413024 773.321629 
L 13.491581 776.61236 
L 13.608463 779.90309 
L 13.922928 783.19382 
L 16.457143 786.445324 
L 16.520667 786.484551 
L 19.223622 789.775281 
L 19.748571 790.269899 
L 20.018119 793.066011 
L 20.200134 796.356742 
L 20.534918 799.647472 
L 21.353897 802.938202 
L 23.04 805.111409 
L 23.33548 806.228933 
L 23.540465 809.519663 
L 23.790969 812.810393 
L 24.104047 816.101124 
L 24.50649 819.391854 
L 25.391507 819.391854 
z
" clip-path="url(#p9e01884a62)" style="fill: #d0e2f2; fill-opacity: 0.9"/>
    <path d="M 24.104047 816.101124 
L 23.790969 812.810393 
L 23.540465 809.519663 
L 23.33548 806.228933 
L 23.04 805.111409 
L 21.353897 802.938202 
L 20.534918 799.647472 
L 20.200134 796.356742 
L 20.018119 793.066011 
L 19.748571 790.269899 
L 19.223622 789.775281 
L 16.520667 786.484551 
L 16.457143 786.445324 
L 13.922928 783.19382 
L 13.608463 779.90309 
L 13.491581 776.61236 
L 13.413024 773.321629 
L 13.356597 770.030899 
L 13.165714 768.154183 
L 11.725972 766.740169 
L 10.310037 763.449438 
L 10.094847 760.158708 
L 10.007806 756.867978 
L 9.945269 753.577247 
L 9.874286 751.921184 
L 7.811112 750.286517 
L 6.582857 748.520972 
L 5.738108 746.995787 
L 5.033239 743.705056 
L 4.601419 740.414326 
L 3.310343 737.123596 
L 3.291429 737.060084 
L 1.335063 733.832865 
L 0.780324 730.542135 
L 0.619145 727.251405 
L 0 724.983681 
L 0 727.251405 
L 0 730.542135 
L 0 733.832865 
L 0 737.123596 
L 0 740.414326 
L 0 743.705056 
L 0 746.995787 
L 0 750.286517 
L 0 753.577247 
L 0 756.867978 
L 0 760.158708 
L 0 763.449438 
L 0 766.527861 
L 3.291429 766.022792 
L 3.568621 766.740169 
L 4.521738 770.030899 
L 6.313842 773.321629 
L 6.582857 773.670308 
L 8.044805 776.61236 
L 8.709073 779.90309 
L 9.055644 783.19382 
L 9.204124 786.484551 
L 9.432332 789.775281 
L 9.874286 791.816629 
L 10.898168 793.066011 
L 12.291039 796.356742 
L 13.165714 799.609658 
L 16.457143 799.287665 
L 16.904216 799.647472 
L 19.447659 802.938202 
L 19.748571 803.567171 
L 20.422723 806.228933 
L 22.043517 809.519663 
L 23.04 811.755718 
L 23.102477 812.810393 
L 23.329565 816.101124 
L 23.621473 819.391854 
L 24.50649 819.391854 
z
" clip-path="url(#p9e01884a62)" style="fill: #cbdef1; fill-opacity: 0.9"/>
    <path d="M 23.04 819.391854 
L 23.621473 819.391854 
L 23.329565 816.101124 
L 23.102477 812.810393 
L 23.04 811.755718 
L 22.043517 809.519663 
L 20.422723 806.228933 
L 19.748571 803.567171 
L 19.447659 802.938202 
L 16.904216 799.647472 
L 16.457143 799.287665 
L 13.165714 799.609658 
L 12.291039 796.356742 
L 10.898168 793.066011 
L 9.874286 791.816629 
L 9.432332 789.775281 
L 9.204124 786.484551 
L 9.055644 783.19382 
L 8.709073 779.90309 
L 8.044805 776.61236 
L 6.582857 773.670308 
L 6.313842 773.321629 
L 4.521738 770.030899 
L 3.568621 766.740169 
L 3.291429 766.022792 
L 0 766.527861 
L 0 766.740169 
L 0 770.030899 
L 0 773.321629 
L 0 776.61236 
L 0 778.67678 
L 3.291429 778.009568 
L 6.128486 779.90309 
L 6.582857 780.063227 
L 7.395718 783.19382 
L 7.731311 786.484551 
L 8.048261 789.775281 
L 8.634222 793.066011 
L 9.357585 796.356742 
L 9.874286 798.374175 
L 10.397319 799.647472 
L 11.444436 802.938202 
L 12.198836 806.228933 
L 12.754635 809.519663 
L 13.165714 812.605391 
L 16.457143 812.1194 
L 17.163225 812.810393 
L 19.748571 814.556163 
L 20.454121 816.101124 
L 21.753785 819.391854 
z
" clip-path="url(#p9e01884a62)" style="fill: #c6dbef; fill-opacity: 0.9"/>
    <path d="M 13.165714 819.391854 
L 16.457143 819.391854 
L 19.748571 819.391854 
L 21.753785 819.391854 
L 20.454121 816.101124 
L 19.748571 814.556163 
L 17.163225 812.810393 
L 16.457143 812.1194 
L 13.165714 812.605391 
L 12.754635 809.519663 
L 12.198836 806.228933 
L 11.444436 802.938202 
L 10.397319 799.647472 
L 9.874286 798.374175 
L 9.357585 796.356742 
L 8.634222 793.066011 
L 8.048261 789.775281 
L 7.731311 786.484551 
L 7.395718 783.19382 
L 6.582857 780.063227 
L 6.128486 779.90309 
L 3.291429 778.009568 
L 0 778.67678 
L 0 779.90309 
L 0 783.19382 
L 0 786.484551 
L -0 787.978462 
L 3.079888 789.775281 
L 3.291429 790.007068 
L 4.095888 789.775281 
L 6.582857 789.082171 
L 6.66419 789.775281 
L 7.092942 793.066011 
L 7.626369 796.356742 
L 7.994691 799.647472 
L 8.73242 802.938202 
L 9.874286 805.133633 
L 10.198431 806.228933 
L 10.968182 809.519663 
L 11.138914 812.810393 
L 11.370923 816.101124 
L 11.704417 819.391854 
z
" clip-path="url(#p9e01884a62)" style="fill: #bed8ec; fill-opacity: 0.9"/>
    <path d="M 3.291429 819.391854 
L 6.582857 819.391854 
L 9.874286 819.391854 
L 11.704417 819.391854 
L 11.370923 816.101124 
L 11.138914 812.810393 
L 10.968182 809.519663 
L 10.198431 806.228933 
L 9.874286 805.133633 
L 8.73242 802.938202 
L 7.994691 799.647472 
L 7.626369 796.356742 
L 7.092942 793.066011 
L 6.66419 789.775281 
L 6.582857 789.082171 
L 4.095888 789.775281 
L 3.291429 790.007068 
L 3.079888 789.775281 
L -0 787.978462 
L 0 789.775281 
L 0 793.066011 
L 0 796.356742 
L 0 799.647472 
L 0 802.938202 
L 0 806.228933 
L 0 809.519663 
L 0 812.810393 
L 0 816.101124 
L 0 819.391854 
z
" clip-path="url(#p9e01884a62)" style="fill: #b5d4e9; fill-opacity: 0.9"/>
    <path clip-path="url(#p9e01884a62)" style="fill: #add0e6; fill-opacity: 0.9"/>
    <path clip-path="url(#p9e01884a62)" style="fill: #a5cde3; fill-opacity: 0.9"/>
    <path clip-path="url(#p9e01884a62)" style="fill: #9cc9e1; fill-opacity: 0.9"/>
    <path clip-path="url(#p9e01884a62)" style="fill: #91c3de; fill-opacity: 0.9"/>
    <path clip-path="url(#p9e01884a62)" style="fill: #85bcdc; fill-opacity: 0.9"/>
    <path clip-path="url(#p9e01884a62)" style="fill: #7cb7da; fill-opacity: 0.9"/>
    <path clip-path="url(#p9e01884a62)" style="fill: #71b1d7; fill-opacity: 0.9"/>
    <path clip-path="url(#p9e01884a62)" style="fill: #66abd4; fill-opacity: 0.9"/>
    <path clip-path="url(#p9e01884a62)" style="fill: #5da5d1; fill-opacity: 0.9"/>
    <path clip-path="url(#p9e01884a62)" style="fill: #56a0ce; fill-opacity: 0.9"/>
    <path clip-path="url(#p9e01884a62)" style="fill: #4d99ca; fill-opacity: 0.9"/>
    <path clip-path="url(#p9e01884a62)" style="fill: #4493c7; fill-opacity: 0.9"/>
    <path clip-path="url(#p9e01884a62)" style="fill: #3c8cc3; fill-opacity: 0.9"/>
    <path clip-path="url(#p9e01884a62)" style="fill: #3686c0; fill-opacity: 0.9"/>
    <path clip-path="url(#p9e01884a62)" style="fill: #2f7fbc; fill-opacity: 0.9"/>
    <path clip-path="url(#p9e01884a62)" style="fill: #2777b8; fill-opacity: 0.9"/>
    <path clip-path="url(#p9e01884a62)" style="fill: #2070b4; fill-opacity: 0.9"/>
    <path clip-path="url(#p9e01884a62)" style="fill: #1c6ab0; fill-opacity: 0.9"/>
    <path clip-path="url(#p9e01884a62)" style="fill: #1663aa; fill-opacity: 0.9"/>
    <path clip-path="url(#p9e01884a62)" style="fill: #115ca5; fill-opacity: 0.9"/>
    <path clip-path="url(#p9e01884a62)" style="fill: #0c56a0; fill-opacity: 0.9"/>
    <path clip-path="url(#p9e01884a62)" style="fill: #084f99; fill-opacity: 0.9"/>
    <path clip-path="url(#p9e01884a62)" style="fill: #08488e; fill-opacity: 0.9"/>
    <path clip-path="url(#p9e01884a62)" style="fill: #084184; fill-opacity: 0.9"/>
    <path clip-path="url(#p9e01884a62)" style="fill: #083a7a; fill-opacity: 0.9"/>
    <path clip-path="url(#p9e01884a62)" style="fill: #083370; fill-opacity: 0.9"/>
    <path clip-path="url(#p9e01884a62)" style="fill: #08306b; fill-opacity: 0.9"/>
   </g>
   <g id="QuadContourSet_2">
    <path d="M 28.770735 810.710721 
L 28.724977 809.519663 
L 28.541626 806.228933 
L 27.488673 802.938202 
L 26.331429 801.777141 
L 25.689461 799.647472 
L 25.489957 796.356742 
L 25.108202 793.066011 
L 23.694376 789.775281 
L 23.04 789.116967 
L 22.529946 786.484551 
L 22.328648 783.19382 
L 21.865447 779.90309 
L 19.748571 776.650403 
L 19.728667 776.61236 
L 18.89906 773.321629 
L 18.736358 770.030899 
L 18.45488 766.740169 
L 16.457143 763.97652 
L 16.268252 763.449438 
L 15.752422 760.158708 
L 15.505295 756.867978 
L 14.956438 753.577247 
L 13.165714 751.394517 
L 12.871232 750.286517 
L 12.564344 746.995787 
L 12.267582 743.705056 
L 11.397091 740.414326 
L 9.874286 738.84046 
L 9.396753 737.123596 
L 9.198424 733.832865 
L 8.856434 730.542135 
L 7.713965 727.251405 
L 6.582857 726.12374 
L 6.019168 723.960674 
L 5.80157 720.669944 
L 5.312405 717.379214 
L 3.291429 714.617145 
L 3.09869 714.088483 
L 2.549638 710.797753 
L 1.962539 707.507023 
L 0 705.023411 
" clip-path="url(#p9e01884a62)" style="fill: none"/>
    <path d="M 31.322884 819.391854 
L 29.717883 816.101124 
L 29.622857 816.0061 
L 28.266735 812.810393 
L 28.040359 809.519663 
L 27.717619 806.228933 
L 26.331429 803.419413 
L 26.18013 802.938202 
L 25.197809 799.647472 
L 24.844842 796.356742 
L 24.170887 793.066011 
L 23.04 790.956959 
L 22.746642 789.775281 
L 22.136264 786.484551 
L 21.779801 783.19382 
L 20.959555 779.90309 
L 19.748571 778.042352 
L 19.000378 776.61236 
L 18.237839 773.321629 
L 17.948795 770.030899 
L 17.448693 766.740169 
L 16.457143 765.368468 
L 15.769418 763.449438 
L 15.199235 760.158708 
L 14.758406 756.867978 
L 13.779323 753.577247 
L 13.165714 752.829314 
L 12.489895 750.286517 
L 12.091072 746.995787 
L 11.561687 743.705056 
L 10.008843 740.414326 
L 9.874286 740.275257 
L 8.997676 737.123596 
L 8.979641 736.94197 
M 4.58218 718.336162 
L 4.330179 717.379214 
L 3.291429 715.959553 
L 2.609277 714.088483 
L 1.978515 710.797753 
L 0.94045 707.507023 
L -0 706.316874 
" clip-path="url(#p9e01884a62)" style="fill: none"/>
    <path d="M 30.636725 819.391854 
L 29.622857 817.37312 
L 28.867156 816.101124 
L 27.68207 812.810393 
L 27.355741 809.519663 
L 26.893612 806.228933 
L 26.331429 805.089505 
L 25.655032 802.938202 
L 24.706157 799.647472 
L 24.199727 796.356742 
L 23.233571 793.066011 
L 23.04 792.70501 
L 22.312679 789.775281 
L 21.742581 786.484551 
L 21.230954 783.19382 
L 20.053664 779.90309 
L 19.748571 779.4343 
L 18.27209 776.61236 
L 17.576618 773.321629 
L 17.161233 770.030899 
L 16.457143 766.792856 
L 16.448856 766.740169 
L 15.430874 763.897104 
M 11.185678 745.129665 
L 10.855793 743.705056 
L 9.874286 741.710053 
L 9.425657 740.414326 
L 8.598599 737.123596 
L 8.143398 733.832865 
L 7.26962 730.542135 
L 6.582857 729.243279 
L 5.923816 727.251405 
L 5.145308 723.960674 
L 4.591938 720.669944 
L 3.347953 717.379214 
L 3.291429 717.301962 
L 2.119863 714.088483 
L 1.407392 710.797753 
L 0 707.610336 
" clip-path="url(#p9e01884a62)" style="fill: none"/>
    <path d="M 29.950567 819.391854 
L 29.622857 818.739344 
L 28.055472 816.101124 
L 27.097404 812.810393 
L 26.671123 809.519663 
L 26.331429 807.513586 
L 26.152415 806.228933 
L 25.129933 802.938202 
L 24.214505 799.647472 
L 23.554611 796.356742 
L 23.04 794.707012 
L 22.626119 793.066011 
L 21.968062 790.168663 
M 16.677636 771.840739 
L 16.457143 770.4674 
L 16.392783 770.030899 
L 15.879178 766.740169 
L 14.77175 763.449438 
L 14.09286 760.158708 
L 13.264626 756.867978 
L 13.165714 756.59749 
L 12.430672 753.577247 
L 11.727221 750.286517 
L 11.144529 746.995787 
L 10.149898 743.705056 
L 9.874286 743.144849 
L 8.928877 740.414326 
L 8.199521 737.123596 
L 7.615884 733.832865 
L 6.582857 730.753495 
L 6.486081 730.542135 
L 5.427337 727.251405 
L 4.708378 723.960674 
L 3.987122 720.669944 
L 3.291429 718.861196 
L 2.695349 717.379214 
L 1.63045 714.088483 
L 0.836268 710.797753 
L -0 708.903798 
" clip-path="url(#p9e01884a62)" style="fill: none"/>
    <path d="M 28.924001 819.391854 
L 27.243789 816.101124 
L 27.149545 815.676896 
M 23.089474 796.983217 
L 23.04 796.775108 
L 22.903291 796.356742 
L 22.104519 793.066011 
L 21.444753 789.775281 
L 20.955217 786.484551 
L 20.13326 783.19382 
L 19.748571 782.218198 
L 17.895571 779.90309 
L 16.815513 776.61236 
L 16.457143 774.585807 
L 16.240188 773.321629 
L 15.785546 770.030899 
L 15.3095 766.740169 
L 14.272917 763.449438 
L 13.539672 760.158708 
L 13.165714 758.717538 
L 12.602866 756.867978 
L 11.933591 753.577247 
L 11.345883 750.286517 
L 10.671257 746.995787 
L 9.874286 744.579645 
L 9.421857 743.705056 
L 8.432097 740.414326 
L 7.800444 737.123596 
L 7.088371 733.832865 
L 6.582857 732.325969 
L 5.766092 730.542135 
L 4.930858 727.251405 
L 4.271448 723.960674 
L 3.382306 720.669944 
L 3.291429 720.43367 
L 2.062873 717.379214 
L 1.141037 714.088483 
L 0.265145 710.797753 
L 0 710.197261 
" clip-path="url(#p9e01884a62)" style="fill: none"/>
    <path d="M 27.586218 819.391854 
L 26.432106 816.101124 
L 26.354965 815.71688 
M 22.440281 797.007905 
L 22.227502 796.356742 
L 21.582919 793.066011 
L 21.01079 789.775281 
L 20.561534 786.484551 
L 19.748571 783.610147 
L 19.193613 783.19382 
L 16.781462 779.90309 
L 16.457143 778.704214 
L 16.027746 776.61236 
L 15.533397 773.321629 
L 15.178309 770.030899 
L 14.739823 766.740169 
L 13.774083 763.449438 
L 13.165714 760.849427 
L 12.866393 760.158708 
L 11.954101 756.867978 
L 11.436511 753.577247 
L 10.964546 750.286517 
L 10.197985 746.995787 
L 9.874286 746.014441 
L 8.679632 743.705056 
L 7.935318 740.414326 
L 7.401367 737.123596 
L 6.582857 733.898443 
L 6.533177 733.832865 
L 5.046103 730.542135 
L 4.434378 727.251405 
L 3.834518 723.960674 
L 3.291429 722.006143 
L 2.49063 720.669944 
L 1.430396 717.379214 
L 0.651623 714.088483 
L 0 711.741956 
" clip-path="url(#p9e01884a62)" style="fill: none"/>
    <path d="M 26.276524 819.391854 
L 25.65301 816.101124 
L 25.167952 812.810393 
L 25.115154 812.362726 
M 21.156174 793.702526 
L 21.061319 793.066011 
L 20.576827 789.775281 
L 20.167852 786.484551 
L 19.748571 785.002095 
L 17.338159 783.19382 
L 16.457143 781.873814 
L 15.711665 779.90309 
L 15.182358 776.61236 
L 14.826606 773.321629 
L 14.571071 770.030899 
L 14.170145 766.740169 
L 13.275249 763.449438 
L 13.165714 762.981316 
L 11.942544 760.158708 
L 11.305336 756.867978 
L 10.93943 753.577247 
L 10.583209 750.286517 
L 9.874286 747.473928 
L 9.410637 746.995787 
L 7.937406 743.705056 
L 7.438538 740.414326 
L 7.00229 737.123596 
L 6.582857 735.470917 
L 5.341921 733.832865 
L 4.326114 730.542135 
L 3.937899 727.251405 
L 3.397588 723.960674 
L 3.291429 723.578617 
L 1.548229 720.669944 
L 0.79792 717.379214 
L 0.16221 714.088483 
L 0 713.504357 
" clip-path="url(#p9e01884a62)" style="fill: none"/>
    <path d="M 25.391507 819.391854 
L 24.878528 816.101124 
L 24.479461 812.810393 
L 24.442325 812.427677 
M 20.616196 793.814557 
L 20.539719 793.066011 
L 20.142864 789.775281 
L 19.774169 786.484551 
L 19.748571 786.394044 
L 16.457143 784.313435 
L 15.584518 783.19382 
L 14.660064 779.90309 
L 14.33697 776.61236 
L 14.119815 773.321629 
L 13.963834 770.030899 
L 13.600467 766.740169 
L 13.165714 765.113205 
L 11.913972 763.449438 
L 11.018695 760.158708 
L 10.656571 756.867978 
L 10.442349 753.577247 
L 10.201872 750.286517 
L 9.874286 748.986849 
L 7.943574 746.995787 
L 7.19518 743.705056 
L 6.941758 740.414326 
L 6.603212 737.123596 
L 6.582857 737.043391 
L 4.150664 733.832865 
L 3.606125 730.542135 
L 3.44142 727.251405 
L 3.291429 726.312758 
L 1.811862 723.960674 
L 0.605828 720.669944 
L 0.165443 717.379214 
L -0 716.453775 
" clip-path="url(#p9e01884a62)" style="fill: none"/>
    <path d="M 24.50649 819.391854 
L 24.104047 816.101124 
L 23.964322 814.632488 
M 20.193133 796.230178 
L 20.018119 793.066011 
L 19.748571 790.269899 
L 19.223622 789.775281 
L 16.520667 786.484551 
L 16.457143 786.445324 
L 13.922928 783.19382 
L 13.608463 779.90309 
L 13.491581 776.61236 
L 13.413024 773.321629 
L 13.356597 770.030899 
L 13.165714 768.154183 
L 11.725972 766.740169 
L 10.310037 763.449438 
L 10.094847 760.158708 
L 10.007806 756.867978 
L 9.945269 753.577247 
L 9.874286 751.921184 
L 7.811112 750.286517 
L 6.582857 748.520972 
L 5.738108 746.995787 
L 5.033239 743.705056 
L 4.601419 740.414326 
L 3.310343 737.123596 
L 3.291429 737.060084 
L 1.335063 733.832865 
L 0.780324 730.542135 
L 0.619145 727.251405 
L 0 724.983681 
" clip-path="url(#p9e01884a62)" style="fill: none"/>
    <path d="M 23.621473 819.391854 
L 23.329565 816.101124 
L 23.102477 812.810393 
L 23.04 811.755718 
L 22.043517 809.519663 
L 20.422723 806.228933 
L 19.748571 803.567171 
L 19.447659 802.938202 
L 16.904216 799.647472 
L 16.457143 799.287665 
L 13.165714 799.609658 
L 12.291039 796.356742 
L 11.90162 795.436719 
M 8.11935 776.981649 
L 8.044805 776.61236 
L 6.582857 773.670308 
L 6.313842 773.321629 
L 4.521738 770.030899 
L 3.568621 766.740169 
L 3.291429 766.022792 
L 0 766.527861 
" clip-path="url(#p9e01884a62)" style="fill: none"/>
    <path d="M 21.753785 819.391854 
L 20.454121 816.101124 
L 19.748571 814.556163 
L 17.163225 812.810393 
L 16.457143 812.1194 
L 13.165714 812.605391 
L 13.151225 812.496627 
M 7.482871 784.048415 
L 7.395718 783.19382 
L 6.582857 780.063227 
L 6.128486 779.90309 
L 3.291429 778.009568 
L 0 778.67678 
" clip-path="url(#p9e01884a62)" style="fill: none"/>
    <path d="M 11.704417 819.391854 
L 11.370923 816.101124 
L 11.138914 812.810393 
L 11.016045 810.442175 
M 0.066984 788.017541 
L -0 787.978462 
" clip-path="url(#p9e01884a62)" style="fill: none"/>
    <path clip-path="url(#p9e01884a62)" style="fill: none"/>
    <path clip-path="url(#p9e01884a62)" style="fill: none"/>
    <path clip-path="url(#p9e01884a62)" style="fill: none"/>
    <path clip-path="url(#p9e01884a62)" style="fill: none"/>
    <path clip-path="url(#p9e01884a62)" style="fill: none"/>
    <path clip-path="url(#p9e01884a62)" style="fill: none"/>
    <path clip-path="url(#p9e01884a62)" style="fill: none"/>
    <path clip-path="url(#p9e01884a62)" style="fill: none"/>
    <path clip-path="url(#p9e01884a62)" style="fill: none"/>
    <path clip-path="url(#p9e01884a62)" style="fill: none"/>
    <path clip-path="url(#p9e01884a62)" style="fill: none"/>
    <path clip-path="url(#p9e01884a62)" style="fill: none"/>
    <path clip-path="url(#p9e01884a62)" style="fill: none"/>
    <path clip-path="url(#p9e01884a62)" style="fill: none"/>
    <path clip-path="url(#p9e01884a62)" style="fill: none"/>
    <path clip-path="url(#p9e01884a62)" style="fill: none"/>
    <path clip-path="url(#p9e01884a62)" style="fill: none"/>
    <path clip-path="url(#p9e01884a62)" style="fill: none"/>
    <path clip-path="url(#p9e01884a62)" style="fill: none"/>
    <path clip-path="url(#p9e01884a62)" style="fill: none"/>
    <path clip-path="url(#p9e01884a62)" style="fill: none"/>
    <path clip-path="url(#p9e01884a62)" style="fill: none"/>
    <path clip-path="url(#p9e01884a62)" style="fill: none"/>
    <path clip-path="url(#p9e01884a62)" style="fill: none"/>
    <path clip-path="url(#p9e01884a62)" style="fill: none"/>
    <path clip-path="url(#p9e01884a62)" style="fill: none"/>
    <path clip-path="url(#p9e01884a62)" style="fill: none"/>
   </g>
   <g id="text_1">
    <g clip-path="url(#p9e01884a62)">
     <!-- 0 -->
     <g style="opacity: 0" transform="translate(27.413258 817.290319) rotate(-294.488642) scale(0.12 -0.12)">
      <defs>
       <path id="DejaVuSans-30" d="M 2034 4250 
Q 1547 4250 1301 3770 
Q 1056 3291 1056 2328 
Q 1056 1369 1301 889 
Q 1547 409 2034 409 
Q 2525 409 2770 889 
Q 3016 1369 3016 2328 
Q 3016 3291 2770 3770 
Q 2525 4250 2034 4250 
z
M 2034 4750 
Q 2819 4750 3233 4129 
Q 3647 3509 3647 2328 
Q 3647 1150 3233 529 
Q 2819 -91 2034 -91 
Q 1250 -91 836 529 
Q 422 1150 422 2328 
Q 422 3509 836 4129 
Q 1250 4750 2034 4750 
z
" transform="scale(0.015625)"/>
      </defs>
      <use xlink:href="#DejaVuSans-30"/>
     </g>
    </g>
   </g>
   <g id="text_2">
    <g clip-path="url(#p9e01884a62)">
     <!-- 1 -->
     <g style="opacity: 0" transform="translate(2.280268 725.092181) rotate(-287.427508) scale(0.12 -0.12)">
      <defs>
       <path id="DejaVuSans-31" d="M 794 531 
L 1825 531 
L 1825 4091 
L 703 3866 
L 703 4441 
L 1819 4666 
L 2450 4666 
L 2450 531 
L 3481 531 
L 3481 0 
L 794 0 
L 794 531 
z
" transform="scale(0.015625)"/>
      </defs>
      <use xlink:href="#DejaVuSans-31"/>
     </g>
    </g>
   </g>
   <g id="text_3">
    <g clip-path="url(#p9e01884a62)">
     <!-- 2 -->
     <g style="opacity: 0" transform="translate(9.005887 751.685605) rotate(-284.464499) scale(0.12 -0.12)">
      <defs>
       <path id="DejaVuSans-32" d="M 1228 531 
L 3431 531 
L 3431 0 
L 469 0 
L 469 531 
Q 828 903 1448 1529 
Q 2069 2156 2228 2338 
Q 2531 2678 2651 2914 
Q 2772 3150 2772 3378 
Q 2772 3750 2511 3984 
Q 2250 4219 1831 4219 
Q 1534 4219 1204 4116 
Q 875 4013 500 3803 
L 500 4441 
Q 881 4594 1212 4672 
Q 1544 4750 1819 4750 
Q 2544 4750 2975 4387 
Q 3406 4025 3406 3419 
Q 3406 3131 3298 2873 
Q 3191 2616 2906 2266 
Q 2828 2175 2409 1742 
Q 1991 1309 1228 531 
z
" transform="scale(0.015625)"/>
      </defs>
      <use xlink:href="#DejaVuSans-32"/>
     </g>
    </g>
   </g>
   <g id="text_4">
    <g clip-path="url(#p9e01884a62)">
     <!-- 3 -->
     <g style="opacity: 0" transform="translate(15.250858 778.522284) rotate(-291.938145) scale(0.12 -0.12)">
      <defs>
       <path id="DejaVuSans-33" d="M 2597 2516 
Q 3050 2419 3304 2112 
Q 3559 1806 3559 1356 
Q 3559 666 3084 287 
Q 2609 -91 1734 -91 
Q 1441 -91 1130 -33 
Q 819 25 488 141 
L 488 750 
Q 750 597 1062 519 
Q 1375 441 1716 441 
Q 2309 441 2620 675 
Q 2931 909 2931 1356 
Q 2931 1769 2642 2001 
Q 2353 2234 1838 2234 
L 1294 2234 
L 1294 2753 
L 1863 2753 
Q 2328 2753 2575 2939 
Q 2822 3125 2822 3475 
Q 2822 3834 2567 4026 
Q 2313 4219 1838 4219 
Q 1578 4219 1281 4162 
Q 984 4106 628 3988 
L 628 4550 
Q 988 4650 1302 4700 
Q 1616 4750 1894 4750 
Q 2613 4750 3031 4423 
Q 3450 4097 3450 3541 
Q 3450 3153 3228 2886 
Q 3006 2619 2597 2516 
z
" transform="scale(0.015625)"/>
      </defs>
      <use xlink:href="#DejaVuSans-33"/>
     </g>
    </g>
   </g>
   <g id="text_5">
    <g clip-path="url(#p9e01884a62)">
     <!-- 4 -->
     <g style="opacity: 0" transform="translate(21.552067 803.189092) rotate(-282.08223) scale(0.12 -0.12)">
      <defs>
       <path id="DejaVuSans-34" d="M 2419 4116 
L 825 1625 
L 2419 1625 
L 2419 4116 
z
M 2253 4666 
L 3047 4666 
L 3047 1625 
L 3713 1625 
L 3713 1100 
L 3047 1100 
L 3047 0 
L 2419 0 
L 2419 1100 
L 313 1100 
L 313 1709 
L 2253 4666 
z
" transform="scale(0.015625)"/>
      </defs>
      <use xlink:href="#DejaVuSans-34"/>
     </g>
    </g>
   </g>
   <g id="text_6">
    <g clip-path="url(#p9e01884a62)">
     <!-- 5 -->
     <g style="opacity: 0" transform="translate(21.029319 803.13586) rotate(-281.322908) scale(0.12 -0.12)">
      <defs>
       <path id="DejaVuSans-35" d="M 691 4666 
L 3169 4666 
L 3169 4134 
L 1269 4134 
L 1269 2991 
Q 1406 3038 1543 3061 
Q 1681 3084 1819 3084 
Q 2600 3084 3056 2656 
Q 3513 2228 3513 1497 
Q 3513 744 3044 326 
Q 2575 -91 1722 -91 
Q 1428 -91 1123 -41 
Q 819 9 494 109 
L 494 744 
Q 775 591 1075 516 
Q 1375 441 1709 441 
Q 2250 441 2565 725 
Q 2881 1009 2881 1497 
Q 2881 1984 2565 2268 
Q 2250 2553 1709 2553 
Q 1456 2553 1204 2497 
Q 953 2441 691 2322 
L 691 4666 
z
" transform="scale(0.015625)"/>
      </defs>
      <use xlink:href="#DejaVuSans-35"/>
     </g>
    </g>
   </g>
   <g id="text_7">
    <g clip-path="url(#p9e01884a62)">
     <!-- 6 -->
     <g style="opacity: 0" transform="translate(19.36399 800.113996) rotate(-285.08482) scale(0.12 -0.12)">
      <defs>
       <path id="DejaVuSans-36" d="M 2113 2584 
Q 1688 2584 1439 2293 
Q 1191 2003 1191 1497 
Q 1191 994 1439 701 
Q 1688 409 2113 409 
Q 2538 409 2786 701 
Q 3034 994 3034 1497 
Q 3034 2003 2786 2293 
Q 2538 2584 2113 2584 
z
M 3366 4563 
L 3366 3988 
Q 3128 4100 2886 4159 
Q 2644 4219 2406 4219 
Q 1781 4219 1451 3797 
Q 1122 3375 1075 2522 
Q 1259 2794 1537 2939 
Q 1816 3084 2150 3084 
Q 2853 3084 3261 2657 
Q 3669 2231 3669 1497 
Q 3669 778 3244 343 
Q 2819 -91 2113 -91 
Q 1303 -91 875 529 
Q 447 1150 447 2328 
Q 447 3434 972 4092 
Q 1497 4750 2381 4750 
Q 2619 4750 2861 4703 
Q 3103 4656 3366 4563 
z
" transform="scale(0.015625)"/>
      </defs>
      <use xlink:href="#DejaVuSans-36"/>
     </g>
    </g>
   </g>
   <g id="text_8">
    <g clip-path="url(#p9e01884a62)">
     <!-- 7 -->
     <g style="opacity: 0" transform="translate(18.778844 800.263987) rotate(-286.542909) scale(0.12 -0.12)">
      <defs>
       <path id="DejaVuSans-37" d="M 525 4666 
L 3525 4666 
L 3525 4397 
L 1831 0 
L 1172 0 
L 2766 4134 
L 525 4134 
L 525 4666 
z
" transform="scale(0.015625)"/>
      </defs>
      <use xlink:href="#DejaVuSans-37"/>
     </g>
    </g>
   </g>
   <g id="text_9">
    <g clip-path="url(#p9e01884a62)">
     <!-- 8 -->
     <g style="opacity: 0" transform="translate(18.765602 802.415634) rotate(-286.823272) scale(0.12 -0.12)">
      <defs>
       <path id="DejaVuSans-38" d="M 2034 2216 
Q 1584 2216 1326 1975 
Q 1069 1734 1069 1313 
Q 1069 891 1326 650 
Q 1584 409 2034 409 
Q 2484 409 2743 651 
Q 3003 894 3003 1313 
Q 3003 1734 2745 1975 
Q 2488 2216 2034 2216 
z
M 1403 2484 
Q 997 2584 770 2862 
Q 544 3141 544 3541 
Q 544 4100 942 4425 
Q 1341 4750 2034 4750 
Q 2731 4750 3128 4425 
Q 3525 4100 3525 3541 
Q 3525 3141 3298 2862 
Q 3072 2584 2669 2484 
Q 3125 2378 3379 2068 
Q 3634 1759 3634 1313 
Q 3634 634 3220 271 
Q 2806 -91 2034 -91 
Q 1263 -91 848 271 
Q 434 634 434 1313 
Q 434 1759 690 2068 
Q 947 2378 1403 2484 
z
M 1172 3481 
Q 1172 3119 1398 2916 
Q 1625 2713 2034 2713 
Q 2441 2713 2670 2916 
Q 2900 3119 2900 3481 
Q 2900 3844 2670 4047 
Q 2441 4250 2034 4250 
Q 1625 4250 1398 4047 
Q 1172 3844 1172 3481 
z
" transform="scale(0.015625)"/>
      </defs>
      <use xlink:href="#DejaVuSans-38"/>
     </g>
    </g>
   </g>
   <g id="text_10">
    <g clip-path="url(#p9e01884a62)">
     <!-- 9 -->
     <g style="opacity: 0" transform="translate(5.559117 782.984322) rotate(-275.222835) scale(0.12 -0.12)">
      <defs>
       <path id="DejaVuSans-39" d="M 703 97 
L 703 672 
Q 941 559 1184 500 
Q 1428 441 1663 441 
Q 2288 441 2617 861 
Q 2947 1281 2994 2138 
Q 2813 1869 2534 1725 
Q 2256 1581 1919 1581 
Q 1219 1581 811 2004 
Q 403 2428 403 3163 
Q 403 3881 828 4315 
Q 1253 4750 1959 4750 
Q 2769 4750 3195 4129 
Q 3622 3509 3622 2328 
Q 3622 1225 3098 567 
Q 2575 -91 1691 -91 
Q 1453 -91 1209 -44 
Q 966 3 703 97 
z
M 1959 2075 
Q 2384 2075 2632 2365 
Q 2881 2656 2881 3163 
Q 2881 3666 2632 3958 
Q 2384 4250 1959 4250 
Q 1534 4250 1286 3958 
Q 1038 3666 1038 3163 
Q 1038 2656 1286 2365 
Q 1534 2075 1959 2075 
z
" transform="scale(0.015625)"/>
      </defs>
      <use xlink:href="#DejaVuSans-39"/>
     </g>
    </g>
   </g>
   <g id="text_11">
    <g clip-path="url(#p9e01884a62)">
     <!-- 10 -->
     <g style="opacity: 0" transform="translate(4.885834 791.712872) rotate(-283.382382) scale(0.12 -0.12)">
      <use xlink:href="#DejaVuSans-31"/>
      <use xlink:href="#DejaVuSans-30" transform="translate(63.623047 0)"/>
     </g>
    </g>
   </g>
   <g id="text_12">
    <g clip-path="url(#p9e01884a62)">
     <!-- 11 -->
     <g style="opacity: 0" transform="translate(1.849916 790.3659) rotate(-290.510178) scale(0.12 -0.12)">
      <use xlink:href="#DejaVuSans-31"/>
      <use xlink:href="#DejaVuSans-31" transform="translate(63.623047 0)"/>
     </g>
    </g>
   </g>
  </g>
 </g>
 <defs>
  <clipPath id="p9e01884a62">
   <rect x="0" y="0" width="576" height="819.391854"/>
  </clipPath>
 </defs>
</svg>
