<?xml version="1.0" encoding="utf-8" standalone="no"?>
<!DOCTYPE svg PUBLIC "-//W3C//DTD SVG 1.1//EN"
  "http://www.w3.org/Graphics/SVG/1.1/DTD/svg11.dtd">
<svg xmlns:xlink="http://www.w3.org/1999/xlink" width="576pt" height="819.681392pt" viewBox="0 0 576 819.681392" xmlns="http://www.w3.org/2000/svg" version="1.1">
 <metadata>
  <rdf:RDF xmlns:dc="http://purl.org/dc/elements/1.1/" xmlns:cc="http://creativecommons.org/ns#" xmlns:rdf="http://www.w3.org/1999/02/22-rdf-syntax-ns#">
   <cc:Work>
    <dc:type rdf:resource="http://purl.org/dc/dcmitype/StillImage"/>
    <dc:date>2025-07-25T22:46:04.266255</dc:date>
    <dc:format>image/svg+xml</dc:format>
    <dc:creator>
     <cc:Agent>
      <dc:title>Matplotlib v3.10.3, https://matplotlib.org/</dc:title>
     </cc:Agent>
    </dc:creator>
   </cc:Work>
  </rdf:RDF>
 </metadata>
 <defs>
  <style type="text/css">*{stroke-linejoin: round; stroke-linecap: butt}</style>
 </defs>
 <g id="figure_1">
  <g id="patch_1">
   <path d="M 0 819.681392 
L 576 819.681392 
L 576 0 
L 0 0 
L 0 819.681392 
z
" style="fill: none; opacity: 0"/>
  </g>
  <g id="axes_1">
   <g id="QuadContourSet_1">
    <path d="M 167.862857 816.489572 
L 171.154286 817.218515 
L 174.445714 817.963464 
L 176.400401 819.681392 
L 177.164893 819.681392 
L 174.445714 817.291571 
L 171.154286 816.864625 
L 169.068943 816.389499 
L 167.862857 815.183243 
L 164.571429 813.794351 
L 164.175744 813.097606 
L 161.28 810.201454 
L 160.884315 809.805713 
L 157.988571 806.90956 
L 155.072195 809.805713 
L 154.697143 810.595297 
L 151.405714 810.549601 
L 150.350284 809.805713 
L 148.114286 807.811253 
L 144.822857 807.52663 
L 141.531429 806.558483 
L 141.434645 806.51382 
L 138.24 804.019918 
L 134.948571 803.7488 
L 134.572454 803.221927 
L 131.657143 800.306204 
L 128.365714 800.306204 
L 127.989597 799.930033 
L 125.074286 797.01431 
L 121.782857 797.01431 
L 118.491429 796.957369 
L 115.519184 799.930033 
L 115.2 800.684307 
L 111.908571 800.861864 
L 108.617143 801.148309 
L 105.325714 801.687324 
L 102.034286 800.495684 
L 98.742857 800.159394 
L 95.475009 799.930033 
L 95.451429 799.913592 
L 92.16 798.568098 
L 91.839859 796.63814 
L 88.868571 793.666434 
L 85.577143 793.666434 
L 85.257001 793.346247 
L 82.285714 790.054354 
L 79.332795 793.346247 
L 79.338758 796.63814 
L 78.994286 797.419094 
L 75.702857 797.446413 
L 72.411429 797.667854 
L 69.12 798.058541 
L 65.828571 798.895959 
L 62.537143 797.2963 
L 59.245714 797.003877 
L 55.954286 797.015126 
L 53.248167 796.63814 
L 52.662857 796.025518 
L 49.371429 794.418881 
L 46.08 794.022846 
L 42.788571 793.949134 
L 39.497143 794.064299 
L 36.205714 794.229004 
L 32.914286 794.048024 
L 31.497057 793.346247 
L 29.622857 791.841082 
L 26.335829 793.346247 
L 26.331429 793.346648 
L 26.330576 793.346247 
L 23.04 790.662597 
L 19.748571 790.475438 
L 16.457143 790.438317 
L 13.165714 790.318363 
L 12.233832 790.054354 
L 9.874286 788.102579 
L 6.582857 787.479289 
L 3.291429 787.41026 
L 0 787.532432 
L 0 788.278492 
L 3.291429 788.030641 
L 6.582857 788.157884 
L 9.874286 789.334399 
L 10.744657 790.054354 
L 13.165714 790.740256 
L 16.457143 790.799123 
L 19.748571 790.875343 
L 23.04 791.246468 
L 25.614658 793.346247 
L 26.331429 793.683647 
L 29.622857 793.404995 
L 32.914286 795.091579 
L 36.205714 795.03949 
L 39.497143 794.730601 
L 42.788571 794.514457 
L 46.08 794.664032 
L 49.371429 795.446298 
L 51.361305 796.63814 
L 52.662857 796.97167 
L 55.954286 797.353131 
L 59.245714 797.335259 
L 62.537143 797.899001 
L 65.399464 799.930033 
L 65.828571 800.107649 
L 67.649208 799.930033 
L 69.12 799.387611 
L 72.411429 798.64158 
L 75.702857 798.213004 
L 78.994286 798.096379 
L 79.637503 796.63814 
L 79.633877 793.346247 
L 82.285714 790.389998 
L 84.954047 793.346247 
L 85.577143 793.969431 
L 88.868571 793.969431 
L 91.536904 796.63814 
L 91.0296 799.930033 
L 92.16 800.043453 
L 95.451429 800.292355 
L 98.742857 800.471404 
L 102.034286 800.984563 
L 105.271126 803.221927 
L 105.325714 803.250372 
L 105.615764 803.221927 
L 108.617143 802.301182 
L 111.908571 801.743669 
L 115.2 801.398086 
L 115.821232 799.930033 
L 118.491429 797.25946 
L 121.782857 797.312014 
L 125.074286 797.312014 
L 127.691936 799.930033 
L 128.365714 800.603907 
L 131.657143 800.603907 
L 134.274793 803.221927 
L 134.948571 804.165771 
L 138.24 804.651454 
L 140.625658 806.51382 
L 141.531429 806.93181 
L 144.822857 808.328175 
L 148.114286 808.838052 
L 149.199135 809.805713 
L 151.405714 811.360954 
L 154.697143 811.22018 
L 155.369015 809.805713 
L 157.988571 807.204321 
L 160.589596 809.805713 
L 161.28 810.496215 
L 163.881024 813.097606 
L 164.571429 814.31331 
L 167.688708 816.389499 
z
M 121.782857 803.396992 
L 125.074286 804.018751 
L 125.622263 803.221927 
L 125.074286 802.673872 
L 121.782857 803.127544 
L 121.212107 803.221927 
z
M 123.410872 803.221927 
L 125.074286 802.985883 
L 125.310296 803.221927 
L 125.074286 803.565114 
z
" clip-path="url(#p4f9d92588d)" style="fill: #f5f9fe; fill-opacity: 0.9"/>
    <path d="M 167.862857 816.937325 
L 171.154286 817.572405 
L 174.445714 818.635358 
L 175.635909 819.681392 
L 176.400401 819.681392 
L 174.445714 817.963464 
L 171.154286 817.218515 
L 167.862857 816.489572 
L 167.688708 816.389499 
L 164.571429 814.31331 
L 163.881024 813.097606 
L 161.28 810.496215 
L 160.589596 809.805713 
L 157.988571 807.204321 
L 155.369015 809.805713 
L 154.697143 811.22018 
L 151.405714 811.360954 
L 149.199135 809.805713 
L 148.114286 808.838052 
L 144.822857 808.328175 
L 141.531429 806.93181 
L 140.625658 806.51382 
L 138.24 804.651454 
L 134.948571 804.165771 
L 134.274793 803.221927 
L 131.657143 800.603907 
L 128.365714 800.603907 
L 127.691936 799.930033 
L 125.074286 797.312014 
L 121.782857 797.312014 
L 118.491429 797.25946 
L 115.821232 799.930033 
L 115.2 801.398086 
L 111.908571 801.743669 
L 108.617143 802.301182 
L 105.615764 803.221927 
L 105.325714 803.250372 
L 105.271126 803.221927 
L 102.034286 800.984563 
L 98.742857 800.471404 
L 95.451429 800.292355 
L 92.16 800.043453 
L 91.0296 799.930033 
L 91.536904 796.63814 
L 88.868571 793.969431 
L 85.577143 793.969431 
L 84.954047 793.346247 
L 82.285714 790.389998 
L 79.633877 793.346247 
L 79.637503 796.63814 
L 78.994286 798.096379 
L 75.702857 798.213004 
L 72.411429 798.64158 
L 69.12 799.387611 
L 67.649208 799.930033 
L 65.828571 800.107649 
L 65.399464 799.930033 
L 62.537143 797.899001 
L 59.245714 797.335259 
L 55.954286 797.353131 
L 52.662857 796.97167 
L 51.361305 796.63814 
L 49.371429 795.446298 
L 46.08 794.664032 
L 42.788571 794.514457 
L 39.497143 794.730601 
L 36.205714 795.03949 
L 32.914286 795.091579 
L 29.622857 793.404995 
L 26.331429 793.683647 
L 25.614658 793.346247 
L 23.04 791.246468 
L 19.748571 790.875343 
L 16.457143 790.799123 
L 13.165714 790.740256 
L 10.744657 790.054354 
L 9.874286 789.334399 
L 6.582857 788.157884 
L 3.291429 788.030641 
L 0 788.278492 
L 0 789.024551 
L 3.291429 788.651021 
L 6.582857 788.836479 
L 9.255481 790.054354 
L 9.874286 790.344761 
L 13.165714 791.162149 
L 16.457143 791.159929 
L 19.748571 791.275248 
L 23.04 791.83034 
L 24.898741 793.346247 
L 26.331429 794.020646 
L 29.622857 793.935806 
L 32.914286 796.135133 
L 36.205714 795.849975 
L 39.497143 795.396903 
L 42.788571 795.079779 
L 46.08 795.305218 
L 49.371429 796.473716 
L 49.645949 796.63814 
L 52.662857 797.411239 
L 55.954286 797.691137 
L 59.245714 797.666641 
L 62.537143 798.501703 
L 64.550081 799.930033 
L 65.828571 800.459226 
L 69.12 800.512508 
L 71.248871 799.930033 
L 72.411429 799.615306 
L 75.702857 798.979594 
L 78.994286 798.773665 
L 79.936247 796.63814 
L 79.934958 793.346247 
L 82.285714 790.725642 
L 84.651092 793.346247 
L 85.577143 794.272428 
L 88.868571 794.272428 
L 91.23395 796.63814 
L 88.868571 799.726752 
L 86.584191 799.930033 
L 88.868571 800.225599 
L 92.16 800.489488 
L 95.451429 800.656608 
L 98.742857 800.783413 
L 102.034286 801.473442 
L 104.563855 803.221927 
L 105.325714 803.618932 
L 108.617143 803.373973 
L 109.372166 803.221927 
L 111.908571 802.625474 
L 115.2 802.111866 
L 116.12328 799.930033 
L 118.491429 797.56155 
L 121.782857 797.609718 
L 125.074286 797.609718 
L 127.394274 799.930033 
L 128.365714 800.901611 
L 131.657143 800.901611 
L 133.977131 803.221927 
L 134.948571 804.582742 
L 138.24 805.28299 
L 139.816671 806.51382 
L 141.531429 807.305137 
L 144.822857 809.12972 
L 147.903879 809.805713 
L 148.114286 809.839269 
L 151.405714 812.172306 
L 154.697143 811.845062 
L 155.665834 809.805713 
L 157.988571 807.499082 
L 160.294876 809.805713 
L 161.28 810.790976 
L 163.586305 813.097606 
L 164.571429 814.832269 
L 166.909521 816.389499 
z
M 121.782857 804.071415 
L 125.074286 804.472389 
L 125.93423 803.221927 
L 125.074286 802.361861 
L 121.782857 802.763945 
L 119.013342 803.221927 
z
M 121.212107 803.221927 
L 121.782857 803.127544 
L 125.074286 802.673872 
L 125.622263 803.221927 
L 125.074286 804.018751 
L 121.782857 803.396992 
z
" clip-path="url(#p4f9d92588d)" style="fill: #eff6fc; fill-opacity: 0.9"/>
    <path d="M 167.862857 817.385078 
L 171.154286 817.926295 
L 174.445714 819.307252 
L 174.871418 819.681392 
L 175.635909 819.681392 
L 174.445714 818.635358 
L 171.154286 817.572405 
L 167.862857 816.937325 
L 166.909521 816.389499 
L 164.571429 814.832269 
L 163.586305 813.097606 
L 161.28 810.790976 
L 160.294876 809.805713 
L 157.988571 807.499082 
L 155.665834 809.805713 
L 154.697143 811.845062 
L 151.405714 812.172306 
L 148.114286 809.839269 
L 147.903879 809.805713 
L 144.822857 809.12972 
L 141.531429 807.305137 
L 139.816671 806.51382 
L 138.24 805.28299 
L 134.948571 804.582742 
L 133.977131 803.221927 
L 131.657143 800.901611 
L 128.365714 800.901611 
L 127.394274 799.930033 
L 125.074286 797.609718 
L 121.782857 797.609718 
L 118.491429 797.56155 
L 116.12328 799.930033 
L 115.2 802.111866 
L 111.908571 802.625474 
L 109.372166 803.221927 
L 108.617143 803.373973 
L 105.325714 803.618932 
L 104.563855 803.221927 
L 102.034286 801.473442 
L 98.742857 800.783413 
L 95.451429 800.656608 
L 92.16 800.489488 
L 88.868571 800.225599 
L 86.584191 799.930033 
L 88.868571 799.726752 
L 91.23395 796.63814 
L 88.868571 794.272428 
L 85.577143 794.272428 
L 84.651092 793.346247 
L 82.285714 790.725642 
L 79.934958 793.346247 
L 79.936247 796.63814 
L 78.994286 798.773665 
L 75.702857 798.979594 
L 72.411429 799.615306 
L 71.248871 799.930033 
L 69.12 800.512508 
L 65.828571 800.459226 
L 64.550081 799.930033 
L 62.537143 798.501703 
L 59.245714 797.666641 
L 55.954286 797.691137 
L 52.662857 797.411239 
L 49.645949 796.63814 
L 49.371429 796.473716 
L 46.08 795.305218 
L 42.788571 795.079779 
L 39.497143 795.396903 
L 36.205714 795.849975 
L 32.914286 796.135133 
L 29.622857 793.935806 
L 26.331429 794.020646 
L 24.898741 793.346247 
L 23.04 791.83034 
L 19.748571 791.275248 
L 16.457143 791.159929 
L 13.165714 791.162149 
L 9.874286 790.344761 
L 9.255481 790.054354 
L 6.582857 788.836479 
L 3.291429 788.651021 
L 0 789.024551 
L 0 789.77061 
L 3.291429 789.271402 
L 6.582857 789.515074 
L 7.766306 790.054354 
L 9.874286 791.043637 
L 13.165714 791.584043 
L 16.457143 791.520734 
L 19.748571 791.675153 
L 23.04 792.414211 
L 24.182823 793.346247 
L 26.331429 794.357645 
L 29.622857 794.466618 
L 32.544371 796.63814 
L 32.914286 796.869669 
L 36.205714 796.651849 
L 36.307512 796.63814 
L 39.497143 796.063205 
L 42.788571 795.645101 
L 46.08 795.946404 
L 47.930593 796.63814 
L 49.371429 797.229423 
L 52.662857 797.850809 
L 55.954286 798.029142 
L 59.245714 797.998022 
L 62.537143 799.104404 
L 63.700697 799.930033 
L 65.828571 800.810803 
L 69.12 801.49662 
L 71.84797 803.221927 
L 72.411429 803.385574 
L 73.716203 803.221927 
L 74.841669 799.930033 
L 75.702857 799.746185 
L 78.994286 799.45095 
L 80.234992 796.63814 
L 80.23604 793.346247 
L 82.285714 791.061285 
L 84.348138 793.346247 
L 85.577143 794.575426 
L 88.868571 794.575426 
L 90.930995 796.63814 
L 88.868571 799.331167 
L 85.577143 799.59418 
L 82.285714 799.914259 
L 82.138781 799.930033 
L 82.285714 799.975146 
L 85.577143 800.556088 
L 88.868571 800.800769 
L 92.16 800.935523 
L 95.451429 801.020862 
L 98.742857 801.095423 
L 102.034286 801.962321 
L 103.856583 803.221927 
L 105.325714 803.987492 
L 108.617143 804.129122 
L 111.90065 806.51382 
L 111.908571 806.517453 
L 111.937211 806.51382 
L 113.120591 803.221927 
L 115.2 802.825646 
L 116.425328 799.930033 
L 118.491429 797.863641 
L 121.782857 797.907422 
L 125.074286 797.907422 
L 127.096612 799.930033 
L 128.365714 801.199315 
L 131.657143 801.199315 
L 133.679469 803.221927 
L 134.948571 804.999713 
L 138.24 805.914527 
L 139.007684 806.51382 
L 141.531429 807.678464 
L 144.734798 809.805713 
L 144.822857 809.879456 
L 148.114286 810.421895 
L 151.405714 812.983659 
L 154.697143 812.469945 
L 155.962653 809.805713 
L 157.988571 807.793843 
L 160.000157 809.805713 
L 161.28 811.085737 
L 163.291586 813.097606 
L 164.571429 815.351228 
L 166.130333 816.389499 
z
M 157.988571 814.095582 
L 158.393719 813.097606 
L 157.988571 812.692401 
L 156.381734 813.097606 
z
M 118.491429 804.223335 
L 121.782857 804.745838 
L 125.074286 804.926027 
L 126.246197 803.221927 
L 125.074286 802.04985 
L 121.782857 802.400345 
L 118.491429 802.891724 
L 116.586651 803.221927 
z
M 119.013342 803.221927 
L 121.782857 802.763945 
L 125.074286 802.361861 
L 125.93423 803.221927 
L 125.074286 804.472389 
L 121.782857 804.071415 
z
" clip-path="url(#p4f9d92588d)" style="fill: #eaf3fb; fill-opacity: 0.9"/>
    <path d="M 167.862857 817.832831 
L 171.154286 818.280185 
L 174.114407 819.681392 
L 174.445714 819.681392 
L 174.871418 819.681392 
L 174.445714 819.307252 
L 171.154286 817.926295 
L 167.862857 817.385078 
L 166.130333 816.389499 
L 164.571429 815.351228 
L 163.291586 813.097606 
L 161.28 811.085737 
L 160.000157 809.805713 
L 157.988571 807.793843 
L 155.962653 809.805713 
L 154.697143 812.469945 
L 151.405714 812.983659 
L 148.114286 810.421895 
L 144.822857 809.879456 
L 144.734798 809.805713 
L 141.531429 807.678464 
L 139.007684 806.51382 
L 138.24 805.914527 
L 134.948571 804.999713 
L 133.679469 803.221927 
L 131.657143 801.199315 
L 128.365714 801.199315 
L 127.096612 799.930033 
L 125.074286 797.907422 
L 121.782857 797.907422 
L 118.491429 797.863641 
L 116.425328 799.930033 
L 115.2 802.825646 
L 113.120591 803.221927 
L 111.937211 806.51382 
L 111.908571 806.517453 
L 111.90065 806.51382 
L 108.617143 804.129122 
L 105.325714 803.987492 
L 103.856583 803.221927 
L 102.034286 801.962321 
L 98.742857 801.095423 
L 95.451429 801.020862 
L 92.16 800.935523 
L 88.868571 800.800769 
L 85.577143 800.556088 
L 82.285714 799.975146 
L 82.138781 799.930033 
L 82.285714 799.914259 
L 85.577143 799.59418 
L 88.868571 799.331167 
L 90.930995 796.63814 
L 88.868571 794.575426 
L 85.577143 794.575426 
L 84.348138 793.346247 
L 82.285714 791.061285 
L 80.23604 793.346247 
L 80.234992 796.63814 
L 78.994286 799.45095 
L 75.702857 799.746185 
L 74.841669 799.930033 
L 73.716203 803.221927 
L 72.411429 803.385574 
L 71.84797 803.221927 
L 69.12 801.49662 
L 65.828571 800.810803 
L 63.700697 799.930033 
L 62.537143 799.104404 
L 59.245714 797.998022 
L 55.954286 798.029142 
L 52.662857 797.850809 
L 49.371429 797.229423 
L 47.930593 796.63814 
L 46.08 795.946404 
L 42.788571 795.645101 
L 39.497143 796.063205 
L 36.307512 796.63814 
L 36.205714 796.651849 
L 32.914286 796.869669 
L 32.544371 796.63814 
L 29.622857 794.466618 
L 26.331429 794.357645 
L 24.182823 793.346247 
L 23.04 792.414211 
L 19.748571 791.675153 
L 16.457143 791.520734 
L 13.165714 791.584043 
L 9.874286 791.043637 
L 7.766306 790.054354 
L 6.582857 789.515074 
L 3.291429 789.271402 
L 0 789.77061 
L 0 790.054354 
L 0 790.376442 
L 2.313211 790.054354 
L 3.291429 789.891783 
L 5.136988 790.054354 
L 6.582857 790.470162 
L 9.874286 791.742512 
L 13.165714 792.005936 
L 16.457143 791.88154 
L 19.748571 792.075058 
L 23.04 792.998082 
L 23.466905 793.346247 
L 26.331429 794.694644 
L 29.622857 794.997429 
L 31.83023 796.63814 
L 32.914286 797.316647 
L 36.205714 797.14963 
L 39.497143 797.043423 
L 40.002153 796.63814 
L 42.788571 796.210424 
L 46.08 796.58759 
L 46.215236 796.63814 
L 49.371429 797.933362 
L 52.662857 798.290378 
L 55.954286 798.367147 
L 59.245714 798.329404 
L 62.537143 799.707106 
L 62.851313 799.930033 
L 65.828571 801.162379 
L 69.12 802.480733 
L 70.29194 803.221927 
L 72.411429 803.837499 
L 75.702857 804.15367 
L 77.320183 803.221927 
L 78.994286 801.202555 
L 82.285714 801.340017 
L 85.577143 801.365506 
L 88.868571 801.37594 
L 92.16 801.381558 
L 95.451429 801.385115 
L 98.742857 801.407433 
L 102.034286 802.451201 
L 103.149311 803.221927 
L 105.325714 804.356052 
L 108.617143 804.884271 
L 110.860881 806.51382 
L 111.908571 806.994417 
L 115.2 806.665285 
L 115.696155 806.51382 
L 118.491429 805.536427 
L 121.782857 805.420261 
L 125.074286 805.379665 
L 126.558164 803.221927 
L 125.074286 801.737839 
L 121.782857 802.036745 
L 118.491429 802.458748 
L 116.727376 799.930033 
L 118.491429 798.165732 
L 121.782857 798.205125 
L 125.074286 798.205125 
L 126.79895 799.930033 
L 128.365714 801.497019 
L 131.657143 801.497019 
L 133.381807 803.221927 
L 134.948571 805.416684 
L 138.177349 806.51382 
L 138.24 806.542451 
L 141.531429 808.051791 
L 144.172614 809.805713 
L 144.822857 810.350247 
L 148.114286 811.004521 
L 150.770238 813.097606 
L 151.405714 813.519177 
L 154.680204 813.097606 
L 154.697143 813.094827 
L 154.7046 813.097606 
L 157.988571 815.137217 
L 158.816591 813.097606 
L 157.988571 812.26947 
L 156.259472 809.805713 
L 157.988571 808.088604 
L 159.705438 809.805713 
L 161.28 811.380498 
L 162.996866 813.097606 
L 164.571429 815.870188 
L 165.351145 816.389499 
z
M 156.381734 813.097606 
L 157.988571 812.692401 
L 158.393719 813.097606 
L 157.988571 814.095582 
z
M 116.586651 803.221927 
L 118.491429 802.891724 
L 121.782857 802.400345 
L 125.074286 802.04985 
L 126.246197 803.221927 
L 125.074286 804.926027 
L 121.782857 804.745838 
L 118.491429 804.223335 
z
M 80.533737 796.63814 
L 80.537122 793.346247 
L 82.285714 791.396929 
L 84.045183 793.346247 
L 85.577143 794.878423 
L 88.868571 794.878423 
L 90.62804 796.63814 
L 88.868571 798.935582 
L 85.577143 799.15996 
L 82.285714 799.437001 
z
" clip-path="url(#p4f9d92588d)" style="fill: #e5eff9; fill-opacity: 0.9"/>
    <path d="M 167.862857 818.280584 
L 171.154286 818.634075 
L 173.366797 819.681392 
L 174.114407 819.681392 
L 171.154286 818.280185 
L 167.862857 817.832831 
L 165.351145 816.389499 
L 164.571429 815.870188 
L 162.996866 813.097606 
L 161.28 811.380498 
L 159.705438 809.805713 
L 157.988571 808.088604 
L 156.259472 809.805713 
L 157.988571 812.26947 
L 158.816591 813.097606 
L 157.988571 815.137217 
L 154.7046 813.097606 
L 154.697143 813.094827 
L 154.680204 813.097606 
L 151.405714 813.519177 
L 150.770238 813.097606 
L 148.114286 811.004521 
L 144.822857 810.350247 
L 144.172614 809.805713 
L 141.531429 808.051791 
L 138.24 806.542451 
L 138.177349 806.51382 
L 134.948571 805.416684 
L 133.381807 803.221927 
L 131.657143 801.497019 
L 128.365714 801.497019 
L 126.79895 799.930033 
L 125.074286 798.205125 
L 121.782857 798.205125 
L 118.491429 798.165732 
L 116.727376 799.930033 
L 118.491429 802.458748 
L 121.782857 802.036745 
L 125.074286 801.737839 
L 126.558164 803.221927 
L 125.074286 805.379665 
L 121.782857 805.420261 
L 118.491429 805.536427 
L 115.696155 806.51382 
L 115.2 806.665285 
L 111.908571 806.994417 
L 110.860881 806.51382 
L 108.617143 804.884271 
L 105.325714 804.356052 
L 103.149311 803.221927 
L 102.034286 802.451201 
L 98.742857 801.407433 
L 95.451429 801.385115 
L 92.16 801.381558 
L 88.868571 801.37594 
L 85.577143 801.365506 
L 82.285714 801.340017 
L 78.994286 801.202555 
L 77.320183 803.221927 
L 75.702857 804.15367 
L 72.411429 803.837499 
L 70.29194 803.221927 
L 69.12 802.480733 
L 65.828571 801.162379 
L 62.851313 799.930033 
L 62.537143 799.707106 
L 59.245714 798.329404 
L 55.954286 798.367147 
L 52.662857 798.290378 
L 49.371429 797.933362 
L 46.215236 796.63814 
L 46.08 796.58759 
L 42.788571 796.210424 
L 40.002153 796.63814 
L 39.497143 797.043423 
L 36.205714 797.14963 
L 32.914286 797.316647 
L 31.83023 796.63814 
L 29.622857 794.997429 
L 26.331429 794.694644 
L 23.466905 793.346247 
L 23.04 792.998082 
L 19.748571 792.075058 
L 16.457143 791.88154 
L 13.165714 792.005936 
L 9.874286 791.742512 
L 6.582857 790.470162 
L 5.136988 790.054354 
L 3.291429 789.891783 
L 2.313211 790.054354 
L 0 790.376442 
L 0 790.89621 
L 3.291429 790.868702 
L 6.582857 792.495544 
L 9.874286 792.441387 
L 13.165714 792.427829 
L 16.457143 792.242346 
L 19.748571 792.474963 
L 22.525469 793.346247 
L 23.04 793.603285 
L 26.331429 795.031643 
L 29.622857 795.52824 
L 31.116089 796.63814 
L 32.914286 797.763625 
L 36.205714 797.647411 
L 39.480474 799.930033 
L 39.497143 799.945556 
L 40.436857 799.930033 
L 42.788571 799.292951 
L 46.08 798.261424 
L 49.371429 798.637301 
L 52.662857 798.729947 
L 55.954286 798.705152 
L 59.245714 798.660786 
L 62.072151 799.930033 
L 62.537143 800.307559 
L 65.828571 801.513956 
L 68.960847 803.221927 
L 69.12 803.379067 
L 72.411429 804.289424 
L 75.702857 806.230463 
L 76.966001 806.51382 
L 78.994286 806.652377 
L 79.783429 806.51382 
L 80.922172 803.221927 
L 82.285714 802.704888 
L 85.577143 802.174924 
L 88.868571 801.95111 
L 92.16 801.827592 
L 95.451429 801.749369 
L 98.742857 801.719443 
L 102.034286 802.94008 
L 102.442039 803.221927 
L 105.325714 804.724612 
L 108.617143 805.63942 
L 109.821111 806.51382 
L 111.908571 807.47138 
L 115.2 807.811711 
L 118.491429 809.163662 
L 119.450778 806.51382 
L 121.782857 806.094684 
L 125.074286 805.833303 
L 126.870131 803.221927 
L 128.365714 801.794722 
L 131.657143 801.794722 
L 133.084146 803.221927 
L 134.948571 805.833655 
L 136.950238 806.51382 
L 138.24 807.10323 
L 141.531429 808.425119 
L 143.61043 809.805713 
L 144.822857 810.821037 
L 148.114286 811.587148 
L 150.030933 813.097606 
L 151.405714 814.009627 
L 154.697143 814.417765 
L 157.988571 816.178853 
L 159.239463 813.097606 
L 157.988571 811.846538 
L 156.556292 809.805713 
L 157.988571 808.383365 
L 159.410718 809.805713 
L 161.28 811.675259 
L 162.702147 813.097606 
L 164.571429 816.389147 
L 164.571958 816.389499 
z
M 117.029424 799.930033 
L 118.491429 798.467822 
L 121.782857 798.502829 
L 125.074286 798.502829 
L 126.501289 799.930033 
L 125.074286 801.425828 
L 121.782857 801.673145 
L 118.491429 802.025771 
z
M 82.285714 799.437001 
L 85.577143 799.15996 
L 88.868571 798.935582 
L 90.62804 796.63814 
L 88.868571 794.878423 
L 85.577143 794.878423 
L 84.045183 793.346247 
L 82.285714 791.396929 
L 80.537122 793.346247 
L 80.533737 796.63814 
z
M 80.832482 796.63814 
L 80.838204 793.346247 
L 82.285714 791.732573 
L 83.742229 793.346247 
L 85.577143 795.18142 
L 88.868571 795.18142 
L 90.325086 796.63814 
L 88.868571 798.539996 
L 85.577143 798.72574 
L 82.285714 798.959743 
z
" clip-path="url(#p4f9d92588d)" style="fill: #dfecf7; fill-opacity: 0.9"/>
    <path d="M 157.988571 816.952195 
L 161.026791 816.389499 
L 159.662335 813.097606 
L 161.28 811.97002 
L 162.407427 813.097606 
L 161.485326 816.389499 
L 164.571429 817.842956 
L 167.862857 818.728337 
L 171.154286 818.987965 
L 172.619186 819.681392 
L 173.366797 819.681392 
L 171.154286 818.634075 
L 167.862857 818.280584 
L 164.571958 816.389499 
L 164.571429 816.389147 
L 162.702147 813.097606 
L 161.28 811.675259 
L 159.410718 809.805713 
L 157.988571 808.383365 
L 156.556292 809.805713 
L 157.988571 811.846538 
L 159.239463 813.097606 
L 157.988571 816.178853 
L 154.697143 814.417765 
L 151.405714 814.009627 
L 150.030933 813.097606 
L 148.114286 811.587148 
L 144.822857 810.821037 
L 143.61043 809.805713 
L 141.531429 808.425119 
L 138.24 807.10323 
L 136.950238 806.51382 
L 134.948571 805.833655 
L 133.084146 803.221927 
L 131.657143 801.794722 
L 128.365714 801.794722 
L 126.870131 803.221927 
L 125.074286 805.833303 
L 121.782857 806.094684 
L 119.450778 806.51382 
L 118.491429 809.163662 
L 115.2 807.811711 
L 111.908571 807.47138 
L 109.821111 806.51382 
L 108.617143 805.63942 
L 105.325714 804.724612 
L 102.442039 803.221927 
L 102.034286 802.94008 
L 98.742857 801.719443 
L 95.451429 801.749369 
L 92.16 801.827592 
L 88.868571 801.95111 
L 85.577143 802.174924 
L 82.285714 802.704888 
L 80.922172 803.221927 
L 79.783429 806.51382 
L 78.994286 806.652377 
L 76.966001 806.51382 
L 75.702857 806.230463 
L 72.411429 804.289424 
L 69.12 803.379067 
L 68.960847 803.221927 
L 65.828571 801.513956 
L 62.537143 800.307559 
L 62.072151 799.930033 
L 59.245714 798.660786 
L 55.954286 798.705152 
L 52.662857 798.729947 
L 49.371429 798.637301 
L 46.08 798.261424 
L 42.788571 799.292951 
L 40.436857 799.930033 
L 39.497143 799.945556 
L 39.480474 799.930033 
L 36.205714 797.647411 
L 32.914286 797.763625 
L 31.116089 796.63814 
L 29.622857 795.52824 
L 26.331429 795.031643 
L 23.04 793.603285 
L 22.525469 793.346247 
L 19.748571 792.474963 
L 16.457143 792.242346 
L 13.165714 792.427829 
L 9.874286 792.441387 
L 6.582857 792.495544 
L 3.291429 790.868702 
L 0 790.89621 
L 0 791.415978 
L 3.291429 791.972231 
L 5.536904 793.346247 
L 6.582857 793.781389 
L 8.765233 793.346247 
L 9.874286 793.140263 
L 13.165714 792.849722 
L 16.457143 792.603152 
L 19.748571 792.874868 
L 21.250918 793.346247 
L 23.04 794.239997 
L 26.331429 795.368641 
L 29.622857 796.059052 
L 30.401949 796.63814 
L 32.914286 798.210603 
L 36.205714 798.145192 
L 38.766334 799.930033 
L 39.497143 800.610606 
L 42.788571 800.567648 
L 46.08 800.044739 
L 46.276544 799.930033 
L 49.371429 799.34124 
L 52.662857 799.169517 
L 55.954286 799.043157 
L 59.245714 798.992168 
L 61.33421 799.930033 
L 62.537143 800.906691 
L 65.828571 801.865532 
L 68.316085 803.221927 
L 69.12 804.015676 
L 72.411429 804.741348 
L 75.108921 806.51382 
L 75.702857 807.100252 
L 78.994286 807.284806 
L 82.285714 809.736691 
L 83.386178 806.51382 
L 84.520936 803.221927 
L 85.577143 802.984341 
L 88.868571 802.526281 
L 92.16 802.273627 
L 95.451429 802.113622 
L 98.742857 802.031453 
L 101.705465 803.221927 
L 102.034286 803.546931 
L 105.325714 805.093171 
L 108.617143 806.394568 
L 108.781341 806.51382 
L 111.908571 807.948344 
L 115.2 808.958138 
L 116.65073 809.805713 
L 118.491429 810.439564 
L 121.782857 809.954681 
L 122.018161 809.805713 
L 123.200809 806.51382 
L 125.074286 806.286941 
L 127.182098 803.221927 
L 128.365714 802.092426 
L 131.657143 802.092426 
L 132.786484 803.221927 
L 134.948571 806.250626 
L 135.723127 806.51382 
L 138.24 807.66401 
L 141.531429 808.798446 
L 143.048246 809.805713 
L 144.822857 811.291827 
L 148.114286 812.169774 
L 149.291628 813.097606 
L 151.405714 814.500077 
L 154.697143 815.74382 
L 155.944644 816.389499 
z
M 156.853111 809.805713 
L 157.988571 808.678126 
L 159.115999 809.805713 
L 157.988571 811.423607 
z
M 118.491429 802.025771 
L 121.782857 801.673145 
L 125.074286 801.425828 
L 126.501289 799.930033 
L 125.074286 798.502829 
L 121.782857 798.502829 
L 118.491429 798.467822 
L 117.029424 799.930033 
z
M 117.331472 799.930033 
L 118.491429 798.769913 
L 121.782857 798.800533 
L 125.074286 798.800533 
L 126.203627 799.930033 
L 125.074286 801.113817 
L 121.782857 801.309546 
L 118.491429 801.592795 
z
M 82.285714 798.959743 
L 85.577143 798.72574 
L 88.868571 798.539996 
L 90.325086 796.63814 
L 88.868571 795.18142 
L 85.577143 795.18142 
L 83.742229 793.346247 
L 82.285714 791.732573 
L 80.838204 793.346247 
L 80.832482 796.63814 
z
M 81.131227 796.63814 
L 81.139285 793.346247 
L 82.285714 792.068217 
L 83.439274 793.346247 
L 85.577143 795.484418 
L 88.868571 795.484418 
L 90.022131 796.63814 
L 88.868571 798.144411 
L 85.577143 798.29152 
L 82.285714 798.482485 
z
" clip-path="url(#p4f9d92588d)" style="fill: #dae8f6; fill-opacity: 0.9"/>
    <path d="M 154.697143 816.886711 
L 157.988571 817.657527 
L 160.711296 819.681392 
L 161.28 819.681392 
L 163.564907 819.681392 
L 164.571429 819.297401 
L 167.862857 819.17609 
L 171.154286 819.341855 
L 171.871576 819.681392 
L 172.619186 819.681392 
L 171.154286 818.987965 
L 167.862857 818.728337 
L 164.571429 817.842956 
L 161.485326 816.389499 
L 162.407427 813.097606 
L 161.28 811.97002 
L 159.662335 813.097606 
L 161.026791 816.389499 
L 157.988571 816.952195 
L 155.944644 816.389499 
L 154.697143 815.74382 
L 151.405714 814.500077 
L 149.291628 813.097606 
L 148.114286 812.169774 
L 144.822857 811.291827 
L 143.048246 809.805713 
L 141.531429 808.798446 
L 138.24 807.66401 
L 135.723127 806.51382 
L 134.948571 806.250626 
L 132.786484 803.221927 
L 131.657143 802.092426 
L 128.365714 802.092426 
L 127.182098 803.221927 
L 125.074286 806.286941 
L 123.200809 806.51382 
L 122.018161 809.805713 
L 121.782857 809.954681 
L 118.491429 810.439564 
L 116.65073 809.805713 
L 115.2 808.958138 
L 111.908571 807.948344 
L 108.781341 806.51382 
L 108.617143 806.394568 
L 105.325714 805.093171 
L 102.034286 803.546931 
L 101.705465 803.221927 
L 98.742857 802.031453 
L 95.451429 802.113622 
L 92.16 802.273627 
L 88.868571 802.526281 
L 85.577143 802.984341 
L 84.520936 803.221927 
L 83.386178 806.51382 
L 82.285714 809.736691 
L 78.994286 807.284806 
L 75.702857 807.100252 
L 75.108921 806.51382 
L 72.411429 804.741348 
L 69.12 804.015676 
L 68.316085 803.221927 
L 65.828571 801.865532 
L 62.537143 800.906691 
L 61.33421 799.930033 
L 59.245714 798.992168 
L 55.954286 799.043157 
L 52.662857 799.169517 
L 49.371429 799.34124 
L 46.276544 799.930033 
L 46.08 800.044739 
L 42.788571 800.567648 
L 39.497143 800.610606 
L 38.766334 799.930033 
L 36.205714 798.145192 
L 32.914286 798.210603 
L 30.401949 796.63814 
L 29.622857 796.059052 
L 26.331429 795.368641 
L 23.04 794.239997 
L 21.250918 793.346247 
L 19.748571 792.874868 
L 16.457143 792.603152 
L 13.165714 792.849722 
L 9.874286 793.140263 
L 8.765233 793.346247 
L 6.582857 793.781389 
L 5.536904 793.346247 
L 3.291429 791.972231 
L 0 791.415978 
L 0 791.935746 
L 3.291429 793.07576 
L 3.733471 793.346247 
L 6.582857 794.531661 
L 9.874286 794.010121 
L 12.505696 793.346247 
L 13.165714 793.271616 
L 16.457143 792.963958 
L 19.748571 793.274774 
L 19.976368 793.346247 
L 23.04 794.876708 
L 26.331429 795.70564 
L 29.622857 796.589863 
L 29.687808 796.63814 
L 32.914286 798.657581 
L 36.205714 798.642973 
L 38.052193 799.930033 
L 39.497143 801.275656 
L 42.788571 801.244818 
L 46.08 802.204174 
L 49.371429 801.673934 
L 49.973845 799.930033 
L 52.662857 799.609086 
L 55.954286 799.381162 
L 59.245714 799.32355 
L 60.596268 799.930033 
L 62.537143 801.505823 
L 65.828571 802.217109 
L 67.671323 803.221927 
L 69.12 804.652285 
L 72.411429 805.193273 
L 74.421145 806.51382 
L 75.702857 807.779338 
L 78.994286 807.917235 
L 81.464032 809.805713 
L 82.285714 810.615591 
L 85.577143 809.885807 
L 85.851023 809.805713 
L 86.990859 806.51382 
L 88.115873 803.221927 
L 88.868571 803.101451 
L 92.16 802.719662 
L 95.451429 802.477876 
L 98.742857 802.343462 
L 100.928999 803.221927 
L 102.034286 804.314384 
L 105.325714 805.461731 
L 107.867374 806.51382 
L 108.617143 807.253687 
L 111.908571 808.425307 
L 114.928033 809.805713 
L 115.2 810.073546 
L 118.491429 811.115273 
L 121.782857 812.334384 
L 125.074286 811.738264 
L 125.775965 809.805713 
L 126.946503 806.51382 
L 127.494065 803.221927 
L 128.365714 802.39013 
L 131.657143 802.39013 
L 132.488822 803.221927 
L 134.137673 806.51382 
L 134.948571 806.945268 
L 138.24 808.22479 
L 141.531429 809.171773 
L 142.486063 809.805713 
L 144.822857 811.762617 
L 148.114286 812.7524 
L 148.552323 813.097606 
L 151.405714 814.990527 
L 154.195354 816.389499 
z
M 160.085207 813.097606 
L 161.28 812.264781 
L 162.112708 813.097606 
L 161.28 815.571975 
z
M 157.988571 811.423607 
L 159.115999 809.805713 
L 157.988571 808.678126 
L 156.853111 809.805713 
z
M 157.14993 809.805713 
L 157.988571 808.972887 
L 158.821279 809.805713 
L 157.988571 811.000675 
z
M 118.491429 801.592795 
L 121.782857 801.309546 
L 125.074286 801.113817 
L 126.203627 799.930033 
L 125.074286 798.800533 
L 121.782857 798.800533 
L 118.491429 798.769913 
L 117.331472 799.930033 
z
M 117.63352 799.930033 
L 118.491429 799.072004 
L 121.782857 799.098237 
L 125.074286 799.098237 
L 125.905965 799.930033 
L 125.074286 800.801805 
L 121.782857 800.945946 
L 118.491429 801.159819 
z
M 82.285714 798.482485 
L 85.577143 798.29152 
L 88.868571 798.144411 
L 90.022131 796.63814 
L 88.868571 795.484418 
L 85.577143 795.484418 
L 83.439274 793.346247 
L 82.285714 792.068217 
L 81.139285 793.346247 
L 81.131227 796.63814 
z
M 81.429972 796.63814 
L 81.440367 793.346247 
L 82.285714 792.40386 
L 83.13632 793.346247 
L 85.577143 795.787415 
L 88.868571 795.787415 
L 89.719177 796.63814 
L 88.868571 797.748825 
L 85.577143 797.8573 
L 82.285714 798.005227 
z
" clip-path="url(#p4f9d92588d)" style="fill: #d6e5f4; fill-opacity: 0.9"/>
    <path d="M 154.697143 817.855777 
L 157.988571 818.362859 
L 159.762406 819.681392 
L 160.711296 819.681392 
L 157.988571 817.657527 
L 154.697143 816.886711 
L 154.195354 816.389499 
L 151.405714 814.990527 
L 148.552323 813.097606 
L 148.114286 812.7524 
L 144.822857 811.762617 
L 142.486063 809.805713 
L 141.531429 809.171773 
L 138.24 808.22479 
L 134.948571 806.945268 
L 134.137673 806.51382 
L 132.488822 803.221927 
L 131.657143 802.39013 
L 128.365714 802.39013 
L 127.494065 803.221927 
L 126.946503 806.51382 
L 125.775965 809.805713 
L 125.074286 811.738264 
L 121.782857 812.334384 
L 118.491429 811.115273 
L 115.2 810.073546 
L 114.928033 809.805713 
L 111.908571 808.425307 
L 108.617143 807.253687 
L 107.867374 806.51382 
L 105.325714 805.461731 
L 102.034286 804.314384 
L 100.928999 803.221927 
L 98.742857 802.343462 
L 95.451429 802.477876 
L 92.16 802.719662 
L 88.868571 803.101451 
L 88.115873 803.221927 
L 86.990859 806.51382 
L 85.851023 809.805713 
L 85.577143 809.885807 
L 82.285714 810.615591 
L 81.464032 809.805713 
L 78.994286 807.917235 
L 75.702857 807.779338 
L 74.421145 806.51382 
L 72.411429 805.193273 
L 69.12 804.652285 
L 67.671323 803.221927 
L 65.828571 802.217109 
L 62.537143 801.505823 
L 60.596268 799.930033 
L 59.245714 799.32355 
L 55.954286 799.381162 
L 52.662857 799.609086 
L 49.973845 799.930033 
L 49.371429 801.673934 
L 46.08 802.204174 
L 42.788571 801.244818 
L 39.497143 801.275656 
L 38.052193 799.930033 
L 36.205714 798.642973 
L 32.914286 798.657581 
L 29.687808 796.63814 
L 29.622857 796.589863 
L 26.331429 795.70564 
L 23.04 794.876708 
L 19.976368 793.346247 
L 19.748571 793.274774 
L 16.457143 792.963958 
L 13.165714 793.271616 
L 12.505696 793.346247 
L 9.874286 794.010121 
L 6.582857 794.531661 
L 3.733471 793.346247 
L 3.291429 793.07576 
L 0 791.935746 
L 0 792.455514 
L 2.284923 793.346247 
L 3.291429 794.319098 
L 6.582857 795.281932 
L 9.874286 794.951434 
L 12.403199 796.63814 
L 13.165714 797.367476 
L 15.198714 796.63814 
L 16.23511 793.346247 
L 16.457143 793.324764 
L 16.679637 793.346247 
L 19.748571 794.677764 
L 23.04 795.51342 
L 26.331429 796.042639 
L 28.504794 796.63814 
L 29.622857 797.72426 
L 32.914286 799.10456 
L 36.205714 799.140754 
L 37.338053 799.930033 
L 39.497143 801.940705 
L 42.788571 801.921988 
L 45.369254 803.221927 
L 46.08 803.908501 
L 49.371429 804.207568 
L 52.544535 803.221927 
L 52.662857 802.874176 
L 53.656714 799.930033 
L 55.954286 799.719168 
L 59.245714 799.654932 
L 59.858327 799.930033 
L 62.537143 802.104955 
L 65.828571 802.568685 
L 67.026561 803.221927 
L 69.12 805.288893 
L 72.411429 805.645197 
L 73.733369 806.51382 
L 75.702857 808.458425 
L 78.994286 808.549665 
L 80.636943 809.805713 
L 82.285714 811.430798 
L 85.577143 810.938826 
L 88.868571 811.517236 
L 89.452346 809.805713 
L 90.594084 806.51382 
L 91.707309 803.221927 
L 92.16 803.165696 
L 95.451429 802.842129 
L 98.742857 802.655472 
L 100.152533 803.221927 
L 102.034286 805.081838 
L 105.325714 805.830291 
L 106.976999 806.51382 
L 108.617143 808.132303 
L 111.908571 808.902271 
L 113.884736 809.805713 
L 115.2 811.100982 
L 118.491429 811.790981 
L 120.92721 813.097606 
L 121.782857 813.937841 
L 125.074286 814.103666 
L 128.339693 813.097606 
L 128.365714 813.025711 
L 129.528858 809.805713 
L 131.094181 806.51382 
L 128.365714 805.667265 
L 127.806032 803.221927 
L 128.365714 802.687834 
L 131.657143 802.687834 
L 132.19116 803.221927 
L 131.938908 806.51382 
L 134.948571 808.115147 
L 138.24 808.78557 
L 141.531429 809.5451 
L 141.923879 809.805713 
L 144.822857 812.233407 
L 147.516346 813.097606 
L 148.114286 813.687278 
L 151.405714 815.480977 
L 153.217366 816.389499 
z
M 164.571429 819.681392 
L 167.373518 819.681392 
L 167.862857 819.623843 
L 170.364812 819.681392 
L 171.154286 819.681392 
L 171.871576 819.681392 
L 171.154286 819.341855 
L 167.862857 819.17609 
L 164.571429 819.297401 
L 163.564907 819.681392 
z
M 161.28 815.571975 
L 162.112708 813.097606 
L 161.28 812.264781 
L 160.085207 813.097606 
z
M 160.508078 813.097606 
L 161.28 812.559542 
L 161.817989 813.097606 
L 161.28 814.696224 
z
M 157.988571 811.000675 
L 158.821279 809.805713 
L 157.988571 808.972887 
L 157.14993 809.805713 
z
M 157.44675 809.805713 
L 157.988571 809.267648 
L 158.52656 809.805713 
L 157.988571 810.577743 
z
M 118.491429 801.159819 
L 121.782857 800.945946 
L 125.074286 800.801805 
L 125.905965 799.930033 
L 125.074286 799.098237 
L 121.782857 799.098237 
L 118.491429 799.072004 
L 117.63352 799.930033 
z
M 117.935568 799.930033 
L 118.491429 799.374094 
L 121.782857 799.395941 
L 125.074286 799.395941 
L 125.608303 799.930033 
L 125.074286 800.489794 
L 121.782857 800.582346 
L 118.491429 800.726842 
z
M 82.285714 798.005227 
L 85.577143 797.8573 
L 88.868571 797.748825 
L 89.719177 796.63814 
L 88.868571 795.787415 
L 85.577143 795.787415 
L 83.13632 793.346247 
L 82.285714 792.40386 
L 81.440367 793.346247 
L 81.429972 796.63814 
z
M 81.728716 796.63814 
L 81.741449 793.346247 
L 82.285714 792.739504 
L 82.833365 793.346247 
L 85.577143 796.090412 
L 88.868571 796.090412 
L 89.416222 796.63814 
L 88.868571 797.35324 
L 85.577143 797.42308 
L 82.285714 797.527969 
z
" clip-path="url(#p4f9d92588d)" style="fill: #d0e2f2; fill-opacity: 0.9"/>
    <path d="M 128.365714 817.698591 
L 130.901036 816.389499 
L 131.657143 814.311392 
L 132.09839 813.097606 
L 133.27991 809.805713 
L 134.948571 809.285026 
L 138.24 809.34635 
L 140.645004 809.805713 
L 141.531429 810.66783 
L 144.822857 812.704198 
L 146.049012 813.097606 
L 148.114286 815.134324 
L 151.405714 815.971426 
L 152.239378 816.389499 
L 154.697143 818.824844 
L 157.988571 819.068192 
L 158.813516 819.681392 
L 159.762406 819.681392 
L 157.988571 818.362859 
L 154.697143 817.855777 
L 153.217366 816.389499 
L 151.405714 815.480977 
L 148.114286 813.687278 
L 147.516346 813.097606 
L 144.822857 812.233407 
L 141.923879 809.805713 
L 141.531429 809.5451 
L 138.24 808.78557 
L 134.948571 808.115147 
L 131.938908 806.51382 
L 132.19116 803.221927 
L 131.657143 802.687834 
L 128.365714 802.687834 
L 127.806032 803.221927 
L 128.365714 805.667265 
L 131.094181 806.51382 
L 129.528858 809.805713 
L 128.365714 813.025711 
L 128.339693 813.097606 
L 125.074286 814.103666 
L 121.782857 813.937841 
L 120.92721 813.097606 
L 118.491429 811.790981 
L 115.2 811.100982 
L 113.884736 809.805713 
L 111.908571 808.902271 
L 108.617143 808.132303 
L 106.976999 806.51382 
L 105.325714 805.830291 
L 102.034286 805.081838 
L 100.152533 803.221927 
L 98.742857 802.655472 
L 95.451429 802.842129 
L 92.16 803.165696 
L 91.707309 803.221927 
L 90.594084 806.51382 
L 89.452346 809.805713 
L 88.868571 811.517236 
L 85.577143 810.938826 
L 82.285714 811.430798 
L 80.636943 809.805713 
L 78.994286 808.549665 
L 75.702857 808.458425 
L 73.733369 806.51382 
L 72.411429 805.645197 
L 69.12 805.288893 
L 67.026561 803.221927 
L 65.828571 802.568685 
L 62.537143 802.104955 
L 59.858327 799.930033 
L 59.245714 799.654932 
L 55.954286 799.719168 
L 53.656714 799.930033 
L 52.662857 802.874176 
L 52.544535 803.221927 
L 49.371429 804.207568 
L 46.08 803.908501 
L 45.369254 803.221927 
L 42.788571 801.921988 
L 39.497143 801.940705 
L 37.338053 799.930033 
L 36.205714 799.140754 
L 32.914286 799.10456 
L 29.622857 797.72426 
L 28.504794 796.63814 
L 26.331429 796.042639 
L 23.04 795.51342 
L 19.748571 794.677764 
L 16.679637 793.346247 
L 16.457143 793.324764 
L 16.23511 793.346247 
L 15.198714 796.63814 
L 13.165714 797.367476 
L 12.403199 796.63814 
L 9.874286 794.951434 
L 6.582857 795.281932 
L 3.291429 794.319098 
L 2.284923 793.346247 
L 0 792.455514 
L 0 792.975282 
L 0.951606 793.346247 
L 3.291429 795.607833 
L 6.582857 796.032204 
L 9.874286 795.892747 
L 10.991868 796.63814 
L 13.165714 798.717394 
L 16.457143 798.050448 
L 18.961567 796.63814 
L 19.748571 796.299047 
L 23.04 796.150131 
L 26.331429 796.379638 
L 27.274869 796.63814 
L 29.622857 798.919044 
L 32.914286 799.551538 
L 36.205714 799.638535 
L 36.623912 799.930033 
L 39.497143 802.605755 
L 42.788571 802.599157 
L 44.024914 803.221927 
L 46.08 805.207121 
L 49.371429 805.360631 
L 52.662857 804.869724 
L 55.954286 804.055785 
L 56.245514 803.221927 
L 59.245714 800.500194 
L 62.537143 802.704088 
L 65.828571 802.920262 
L 66.381799 803.221927 
L 69.12 805.925502 
L 72.411429 806.097122 
L 73.045593 806.51382 
L 75.702857 809.137511 
L 78.994286 809.182094 
L 79.809853 809.805713 
L 82.285714 812.246006 
L 85.577143 811.991845 
L 87.39574 813.097606 
L 88.868571 814.526605 
L 91.919746 813.097606 
L 92.16 812.399325 
L 93.056629 809.805713 
L 94.193753 806.51382 
L 95.298193 803.221927 
L 95.451429 803.206383 
L 98.742857 802.967482 
L 99.376067 803.221927 
L 102.034286 805.849291 
L 105.325714 806.198851 
L 106.086623 806.51382 
L 108.617143 809.010919 
L 111.908571 809.379235 
L 112.841439 809.805713 
L 115.2 812.128419 
L 118.491429 812.466689 
L 119.66757 813.097606 
L 121.782857 815.174793 
L 125.074286 815.262064 
L 127.018735 816.389499 
z
M 128.117999 803.221927 
L 128.365714 802.985537 
L 131.657143 802.985537 
L 131.893499 803.221927 
L 131.657143 804.790993 
L 128.365714 804.304232 
z
M 167.862857 819.681392 
L 170.364812 819.681392 
L 167.862857 819.623843 
L 167.373518 819.681392 
z
M 161.28 814.696224 
L 161.817989 813.097606 
L 161.28 812.559542 
L 160.508078 813.097606 
z
M 160.93095 813.097606 
L 161.28 812.854303 
L 161.523269 813.097606 
L 161.28 813.820474 
z
M 157.988571 810.577743 
L 158.52656 809.805713 
L 157.988571 809.267648 
L 157.44675 809.805713 
z
M 157.743569 809.805713 
L 157.988571 809.562409 
L 158.231841 809.805713 
L 157.988571 810.154812 
z
M 118.491429 800.726842 
L 121.782857 800.582346 
L 125.074286 800.489794 
L 125.608303 799.930033 
L 125.074286 799.395941 
L 121.782857 799.395941 
L 118.491429 799.374094 
L 117.935568 799.930033 
z
M 118.237616 799.930033 
L 118.491429 799.676185 
L 121.782857 799.693644 
L 125.074286 799.693644 
L 125.310642 799.930033 
L 125.074286 800.177783 
L 121.782857 800.218747 
L 118.491429 800.293866 
z
M 82.285714 797.527969 
L 85.577143 797.42308 
L 88.868571 797.35324 
L 89.416222 796.63814 
L 88.868571 796.090412 
L 85.577143 796.090412 
L 82.833365 793.346247 
L 82.285714 792.739504 
L 81.741449 793.346247 
L 81.728716 796.63814 
z
M 82.027461 796.63814 
L 82.042531 793.346247 
L 82.285714 793.075148 
L 82.530411 793.346247 
L 85.577143 796.393409 
L 88.868571 796.393409 
L 89.113268 796.63814 
L 88.868571 796.957655 
L 85.577143 796.98886 
L 82.285714 797.050711 
z
" clip-path="url(#p4f9d92588d)" style="fill: #cbdef1; fill-opacity: 0.9"/>
    <path d="M 115.2 816.446632 
L 118.491429 816.994121 
L 121.782857 817.533643 
L 125.074286 817.986053 
L 128.365714 819.640246 
L 131.657143 819.629361 
L 134.390123 819.681392 
L 134.948571 819.681392 
L 138.24 819.681392 
L 141.531429 819.681392 
L 144.822857 819.681392 
L 148.114286 819.681392 
L 151.405714 819.681392 
L 154.697143 819.681392 
L 157.988571 819.681392 
L 158.813516 819.681392 
L 157.988571 819.068192 
L 154.697143 818.824844 
L 152.239378 816.389499 
L 151.405714 815.971426 
L 148.114286 815.134324 
L 146.049012 813.097606 
L 144.822857 812.704198 
L 141.531429 810.66783 
L 140.645004 809.805713 
L 138.24 809.34635 
L 134.948571 809.285026 
L 133.27991 809.805713 
L 132.09839 813.097606 
L 131.657143 814.311392 
L 130.901036 816.389499 
L 128.365714 817.698591 
L 127.018735 816.389499 
L 125.074286 815.262064 
L 121.782857 815.174793 
L 119.66757 813.097606 
L 118.491429 812.466689 
L 115.2 812.128419 
L 112.841439 809.805713 
L 111.908571 809.379235 
L 108.617143 809.010919 
L 106.086623 806.51382 
L 105.325714 806.198851 
L 102.034286 805.849291 
L 99.376067 803.221927 
L 98.742857 802.967482 
L 95.451429 803.206383 
L 95.298193 803.221927 
L 94.193753 806.51382 
L 93.056629 809.805713 
L 92.16 812.399325 
L 91.919746 813.097606 
L 88.868571 814.526605 
L 87.39574 813.097606 
L 85.577143 811.991845 
L 82.285714 812.246006 
L 79.809853 809.805713 
L 78.994286 809.182094 
L 75.702857 809.137511 
L 73.045593 806.51382 
L 72.411429 806.097122 
L 69.12 805.925502 
L 66.381799 803.221927 
L 65.828571 802.920262 
L 62.537143 802.704088 
L 59.245714 800.500194 
L 56.245514 803.221927 
L 55.954286 804.055785 
L 52.662857 804.869724 
L 49.371429 805.360631 
L 46.08 805.207121 
L 44.024914 803.221927 
L 42.788571 802.599157 
L 39.497143 802.605755 
L 36.623912 799.930033 
L 36.205714 799.638535 
L 32.914286 799.551538 
L 29.622857 798.919044 
L 27.274869 796.63814 
L 26.331429 796.379638 
L 23.04 796.150131 
L 19.748571 796.299047 
L 18.961567 796.63814 
L 16.457143 798.050448 
L 13.165714 798.717394 
L 10.991868 796.63814 
L 9.874286 795.892747 
L 6.582857 796.032204 
L 3.291429 795.607833 
L 0.951606 793.346247 
L 0 792.975282 
L 0 793.346247 
L 0 796.63814 
L 0 799.930033 
L 0 803.221927 
L 0 803.414725 
L 1.026563 803.221927 
L 3.291429 802.884102 
L 6.582857 802.691801 
L 9.874286 802.790861 
L 13.165714 802.774015 
L 16.457143 802.959299 
L 18.845782 803.221927 
L 19.748571 803.314673 
L 23.04 803.966239 
L 26.331429 804.815197 
L 29.622857 805.108251 
L 32.914286 805.795448 
L 36.205714 805.986366 
L 39.497143 806.10401 
L 42.788571 806.275336 
L 46.08 806.505742 
L 49.371429 806.513693 
L 49.382003 806.51382 
L 52.662857 807.446556 
L 55.954286 809.493216 
L 59.245714 807.729914 
L 62.537143 808.634917 
L 65.828571 809.630298 
L 67.105606 809.805713 
L 69.12 810.103336 
L 72.411429 810.411008 
L 75.702857 810.704754 
L 78.994286 810.555901 
L 82.285714 813.061214 
L 85.577143 813.044864 
L 85.663886 813.097606 
L 88.868571 816.206918 
L 92.16 816.03079 
L 95.451429 813.5787 
L 97.26388 813.097606 
L 98.742857 812.377147 
L 101.370321 813.097606 
L 102.034286 813.297624 
L 105.325714 814.377347 
L 108.617143 815.093763 
L 111.908571 815.831676 
L 114.927071 816.389499 
z
M 161.28 813.820474 
L 161.523269 813.097606 
L 161.28 812.854303 
L 160.93095 813.097606 
z
M 157.988571 810.154812 
L 158.231841 809.805713 
L 157.988571 809.562409 
L 157.743569 809.805713 
z
M 128.365714 804.304232 
L 131.657143 804.790993 
L 131.893499 803.221927 
L 131.657143 802.985537 
L 128.365714 802.985537 
L 128.117999 803.221927 
z
M 118.491429 800.293866 
L 121.782857 800.218747 
L 125.074286 800.177783 
L 125.310642 799.930033 
L 125.074286 799.693644 
L 121.782857 799.693644 
L 118.491429 799.676185 
L 118.237616 799.930033 
z
M 82.285714 797.050711 
L 85.577143 796.98886 
L 88.868571 796.957655 
L 89.113268 796.63814 
L 88.868571 796.393409 
L 85.577143 796.393409 
L 82.530411 793.346247 
L 82.285714 793.075148 
L 82.042531 793.346247 
L 82.027461 796.63814 
z
" clip-path="url(#p4f9d92588d)" style="fill: #c6dbef; fill-opacity: 0.9"/>
    <path d="M 3.291429 819.681392 
L 6.582857 819.681392 
L 9.874286 819.681392 
L 13.165714 819.681392 
L 16.457143 819.681392 
L 19.748571 819.681392 
L 23.04 819.681392 
L 26.331429 819.681392 
L 29.622857 819.681392 
L 32.914286 819.681392 
L 36.205714 819.681392 
L 39.497143 819.681392 
L 42.788571 819.681392 
L 46.08 819.681392 
L 49.371429 819.681392 
L 52.662857 819.681392 
L 55.954286 819.681392 
L 59.245714 819.681392 
L 62.537143 819.681392 
L 65.828571 819.681392 
L 69.12 819.681392 
L 72.411429 819.681392 
L 75.702857 819.681392 
L 78.994286 819.681392 
L 82.285714 819.681392 
L 85.577143 819.681392 
L 88.868571 819.681392 
L 92.16 819.681392 
L 95.451429 819.681392 
L 98.742857 819.681392 
L 102.034286 819.681392 
L 105.325714 819.681392 
L 108.617143 819.681392 
L 111.908571 819.681392 
L 115.2 819.681392 
L 118.491429 819.681392 
L 121.782857 819.681392 
L 125.074286 819.681392 
L 128.365714 819.681392 
L 131.657143 819.681392 
L 134.390123 819.681392 
L 131.657143 819.629361 
L 128.365714 819.640246 
L 125.074286 817.986053 
L 121.782857 817.533643 
L 118.491429 816.994121 
L 115.2 816.446632 
L 114.927071 816.389499 
L 111.908571 815.831676 
L 108.617143 815.093763 
L 105.325714 814.377347 
L 102.034286 813.297624 
L 101.370321 813.097606 
L 98.742857 812.377147 
L 97.26388 813.097606 
L 95.451429 813.5787 
L 92.16 816.03079 
L 88.868571 816.206918 
L 85.663886 813.097606 
L 85.577143 813.044864 
L 82.285714 813.061214 
L 78.994286 810.555901 
L 75.702857 810.704754 
L 72.411429 810.411008 
L 69.12 810.103336 
L 67.105606 809.805713 
L 65.828571 809.630298 
L 62.537143 808.634917 
L 59.245714 807.729914 
L 55.954286 809.493216 
L 52.662857 807.446556 
L 49.382003 806.51382 
L 49.371429 806.513693 
L 46.08 806.505742 
L 42.788571 806.275336 
L 39.497143 806.10401 
L 36.205714 805.986366 
L 32.914286 805.795448 
L 29.622857 805.108251 
L 26.331429 804.815197 
L 23.04 803.966239 
L 19.748571 803.314673 
L 18.845782 803.221927 
L 16.457143 802.959299 
L 13.165714 802.774015 
L 9.874286 802.790861 
L 6.582857 802.691801 
L 3.291429 802.884102 
L 1.026563 803.221927 
L 0 803.414725 
L 0 806.51382 
L 0 809.805713 
L 0 813.097606 
L 0 816.389499 
L 0 819.681392 
z
" clip-path="url(#p4f9d92588d)" style="fill: #bed8ec; fill-opacity: 0.9"/>
    <path clip-path="url(#p4f9d92588d)" style="fill: #b5d4e9; fill-opacity: 0.9"/>
    <path clip-path="url(#p4f9d92588d)" style="fill: #add0e6; fill-opacity: 0.9"/>
    <path clip-path="url(#p4f9d92588d)" style="fill: #a5cde3; fill-opacity: 0.9"/>
    <path clip-path="url(#p4f9d92588d)" style="fill: #9cc9e1; fill-opacity: 0.9"/>
    <path clip-path="url(#p4f9d92588d)" style="fill: #91c3de; fill-opacity: 0.9"/>
    <path clip-path="url(#p4f9d92588d)" style="fill: #85bcdc; fill-opacity: 0.9"/>
    <path clip-path="url(#p4f9d92588d)" style="fill: #7cb7da; fill-opacity: 0.9"/>
    <path clip-path="url(#p4f9d92588d)" style="fill: #71b1d7; fill-opacity: 0.9"/>
    <path clip-path="url(#p4f9d92588d)" style="fill: #66abd4; fill-opacity: 0.9"/>
    <path clip-path="url(#p4f9d92588d)" style="fill: #5da5d1; fill-opacity: 0.9"/>
    <path clip-path="url(#p4f9d92588d)" style="fill: #56a0ce; fill-opacity: 0.9"/>
    <path clip-path="url(#p4f9d92588d)" style="fill: #4d99ca; fill-opacity: 0.9"/>
    <path clip-path="url(#p4f9d92588d)" style="fill: #4493c7; fill-opacity: 0.9"/>
    <path clip-path="url(#p4f9d92588d)" style="fill: #3c8cc3; fill-opacity: 0.9"/>
    <path clip-path="url(#p4f9d92588d)" style="fill: #3686c0; fill-opacity: 0.9"/>
    <path clip-path="url(#p4f9d92588d)" style="fill: #2f7fbc; fill-opacity: 0.9"/>
    <path clip-path="url(#p4f9d92588d)" style="fill: #2777b8; fill-opacity: 0.9"/>
    <path clip-path="url(#p4f9d92588d)" style="fill: #2070b4; fill-opacity: 0.9"/>
    <path clip-path="url(#p4f9d92588d)" style="fill: #1c6ab0; fill-opacity: 0.9"/>
    <path clip-path="url(#p4f9d92588d)" style="fill: #1663aa; fill-opacity: 0.9"/>
    <path clip-path="url(#p4f9d92588d)" style="fill: #115ca5; fill-opacity: 0.9"/>
    <path clip-path="url(#p4f9d92588d)" style="fill: #0c56a0; fill-opacity: 0.9"/>
    <path clip-path="url(#p4f9d92588d)" style="fill: #084f99; fill-opacity: 0.9"/>
    <path clip-path="url(#p4f9d92588d)" style="fill: #08488e; fill-opacity: 0.9"/>
    <path clip-path="url(#p4f9d92588d)" style="fill: #084184; fill-opacity: 0.9"/>
    <path clip-path="url(#p4f9d92588d)" style="fill: #083a7a; fill-opacity: 0.9"/>
    <path clip-path="url(#p4f9d92588d)" style="fill: #083370; fill-opacity: 0.9"/>
    <path clip-path="url(#p4f9d92588d)" style="fill: #08306b; fill-opacity: 0.9"/>
   </g>
   <g id="QuadContourSet_2">
    <path d="M 177.164893 819.681392 
L 174.445714 817.291571 
L 171.154286 816.864625 
L 169.068943 816.389499 
L 167.862857 815.183243 
L 164.571429 813.794351 
L 164.175744 813.097606 
L 161.28 810.201454 
L 160.884315 809.805713 
L 157.988571 806.90956 
L 155.072195 809.805713 
L 154.697143 810.595297 
L 151.405714 810.549601 
L 150.350284 809.805713 
L 148.114286 807.811253 
L 144.822857 807.52663 
L 141.531429 806.558483 
L 141.434645 806.51382 
L 138.24 804.019918 
L 134.948571 803.7488 
L 134.572454 803.221927 
L 131.657143 800.306204 
L 128.365714 800.306204 
L 127.989597 799.930033 
L 125.074286 797.01431 
L 121.782857 797.01431 
L 118.491429 796.957369 
L 115.519184 799.930033 
L 115.2 800.684307 
L 111.908571 800.861864 
L 108.617143 801.148309 
L 105.325714 801.687324 
L 102.034286 800.495684 
L 98.742857 800.159394 
L 95.475009 799.930033 
L 95.451429 799.913592 
L 92.16 798.568098 
L 91.839859 796.63814 
L 88.868571 793.666434 
L 85.577143 793.666434 
L 85.257001 793.346247 
L 82.285714 790.054354 
L 79.332795 793.346247 
L 79.338758 796.63814 
L 78.994286 797.419094 
L 75.702857 797.446413 
L 72.411429 797.667854 
L 69.12 798.058541 
L 65.828571 798.895959 
L 62.537143 797.2963 
L 59.245714 797.003877 
L 55.954286 797.015126 
L 54.937263 796.873446 
M 36.563845 794.211083 
L 36.205714 794.229004 
L 32.914286 794.048024 
L 31.497057 793.346247 
L 29.622857 791.841082 
L 26.335829 793.346247 
L 26.331429 793.346648 
L 26.330576 793.346247 
L 23.04 790.662597 
L 19.748571 790.475438 
L 16.457143 790.438317 
L 13.165714 790.318363 
L 12.233832 790.054354 
L 9.874286 788.102579 
L 6.582857 787.479289 
L 3.291429 787.41026 
L 0 787.532432 
M 125.074286 803.565114 
L 123.410872 803.221927 
L 125.074286 802.985883 
L 125.310296 803.221927 
L 125.074286 803.565114 
" clip-path="url(#p4f9d92588d)" style="fill: none"/>
    <path d="M 176.400401 819.681392 
L 174.445714 817.963464 
L 171.154286 817.218515 
L 167.862857 816.489572 
L 167.688708 816.389499 
L 164.571429 814.31331 
L 163.881024 813.097606 
L 161.28 810.496215 
L 160.589596 809.805713 
L 157.988571 807.204321 
L 155.369015 809.805713 
L 154.697143 811.22018 
L 151.405714 811.360954 
L 149.199135 809.805713 
L 148.114286 808.838052 
L 144.822857 808.328175 
L 141.531429 806.93181 
L 140.625658 806.51382 
L 138.24 804.651454 
L 134.948571 804.165771 
L 134.274793 803.221927 
L 131.657143 800.603907 
L 128.365714 800.603907 
L 127.691936 799.930033 
L 125.074286 797.312014 
L 121.782857 797.312014 
L 118.491429 797.25946 
L 115.821232 799.930033 
L 115.2 801.398086 
L 111.908571 801.743669 
L 108.617143 802.301182 
L 105.615764 803.221927 
L 105.325714 803.250372 
L 105.271126 803.221927 
L 102.034286 800.984563 
L 98.742857 800.471404 
L 95.451429 800.292355 
L 92.16 800.043453 
L 91.0296 799.930033 
L 91.536904 796.63814 
L 88.868571 793.969431 
L 85.577143 793.969431 
L 84.954047 793.346247 
L 82.285714 790.389998 
L 79.633877 793.346247 
L 79.637503 796.63814 
L 78.994286 798.096379 
L 75.702857 798.213004 
L 72.411429 798.64158 
L 69.12 799.387611 
L 67.649208 799.930033 
L 65.828571 800.107649 
L 65.399464 799.930033 
L 62.537143 797.899001 
L 59.245714 797.335259 
L 55.954286 797.353131 
L 52.662857 796.97167 
L 51.361305 796.63814 
L 49.371429 795.446298 
L 46.08 794.664032 
L 42.788571 794.514457 
L 39.497143 794.730601 
L 36.205714 795.03949 
L 32.914286 795.091579 
L 29.622857 793.404995 
L 26.331429 793.683647 
L 25.614658 793.346247 
L 23.04 791.246468 
L 19.748571 790.875343 
L 16.457143 790.799123 
L 13.165714 790.740256 
L 10.744657 790.054354 
L 9.874286 789.334399 
L 9.39683 789.163733 
M 121.782857 803.396992 
L 121.212107 803.221927 
L 121.782857 803.127544 
L 125.074286 802.673872 
L 125.622263 803.221927 
L 125.074286 804.018751 
L 121.782857 803.396992 
z
" clip-path="url(#p4f9d92588d)" style="fill: none"/>
    <path d="M 175.635909 819.681392 
L 174.445714 818.635358 
L 171.154286 817.572405 
L 167.862857 816.937325 
L 166.909521 816.389499 
L 164.571429 814.832269 
L 163.586305 813.097606 
L 161.28 810.790976 
L 160.294876 809.805713 
L 157.988571 807.499082 
L 155.665834 809.805713 
L 154.697143 811.845062 
L 151.405714 812.172306 
L 148.114286 809.839269 
L 147.903879 809.805713 
L 144.822857 809.12972 
L 141.531429 807.305137 
L 139.816671 806.51382 
L 138.24 805.28299 
L 134.948571 804.582742 
L 133.977131 803.221927 
L 131.657143 800.901611 
L 128.365714 800.901611 
L 127.394274 799.930033 
L 125.074286 797.609718 
L 121.782857 797.609718 
L 118.491429 797.56155 
L 116.12328 799.930033 
L 115.2 802.111866 
L 111.908571 802.625474 
L 109.372166 803.221927 
L 108.617143 803.373973 
L 107.611487 803.448818 
M 89.178253 800.250427 
L 88.868571 800.225599 
L 86.584191 799.930033 
L 88.868571 799.726752 
L 91.23395 796.63814 
L 88.868571 794.272428 
L 85.577143 794.272428 
L 84.651092 793.346247 
L 82.285714 790.725642 
L 79.934958 793.346247 
L 79.936247 796.63814 
L 78.994286 798.773665 
L 75.702857 798.979594 
L 72.411429 799.615306 
L 71.248871 799.930033 
L 69.12 800.512508 
L 65.828571 800.459226 
L 64.550081 799.930033 
L 62.537143 798.501703 
L 59.245714 797.666641 
L 55.954286 797.691137 
L 52.662857 797.411239 
L 49.645949 796.63814 
L 49.371429 796.473716 
L 46.08 795.305218 
L 42.788571 795.079779 
L 39.497143 795.396903 
L 36.205714 795.849975 
L 32.914286 796.135133 
L 29.622857 793.935806 
L 26.331429 794.020646 
L 24.898741 793.346247 
L 23.04 791.83034 
L 19.748571 791.275248 
L 16.457143 791.159929 
L 13.165714 791.162149 
L 9.874286 790.344761 
L 9.255481 790.054354 
L 6.582857 788.836479 
L 3.291429 788.651021 
L 0 789.024551 
M 121.782857 804.071415 
L 119.013342 803.221927 
L 121.782857 802.763945 
L 125.074286 802.361861 
L 125.93423 803.221927 
L 125.074286 804.472389 
L 121.782857 804.071415 
z
" clip-path="url(#p4f9d92588d)" style="fill: none"/>
    <path d="M 174.871418 819.681392 
L 174.445714 819.307252 
L 171.154286 817.926295 
L 167.862857 817.385078 
L 166.130333 816.389499 
L 164.571429 815.351228 
L 163.291586 813.097606 
L 161.28 811.085737 
L 160.000157 809.805713 
L 157.988571 807.793843 
L 155.962653 809.805713 
L 154.697143 812.469945 
L 151.405714 812.983659 
L 148.114286 810.421895 
L 144.822857 809.879456 
L 144.734798 809.805713 
L 141.531429 807.678464 
L 139.007684 806.51382 
L 138.24 805.914527 
L 134.948571 804.999713 
L 133.679469 803.221927 
L 131.657143 801.199315 
L 128.365714 801.199315 
L 127.096612 799.930033 
L 125.074286 797.907422 
L 121.782857 797.907422 
L 118.491429 797.863641 
L 116.425328 799.930033 
L 115.2 802.825646 
L 113.120591 803.221927 
L 111.937211 806.51382 
L 111.908571 806.517453 
L 111.90065 806.51382 
L 108.617143 804.129122 
L 105.325714 803.987492 
L 103.856583 803.221927 
L 102.034286 801.962321 
L 98.742857 801.095423 
L 95.451429 801.020862 
L 92.16 800.935523 
L 88.868571 800.800769 
L 85.577143 800.556088 
L 82.285714 799.975146 
L 82.138781 799.930033 
L 82.285714 799.914259 
L 85.577143 799.59418 
L 88.868571 799.331167 
L 90.930995 796.63814 
L 88.868571 794.575426 
L 85.577143 794.575426 
L 84.348138 793.346247 
L 82.285714 791.061285 
L 80.23604 793.346247 
L 80.236023 793.398764 
M 69.004187 801.472489 
L 65.828571 800.810803 
L 63.700697 799.930033 
L 62.537143 799.104404 
L 59.245714 797.998022 
L 55.954286 798.029142 
L 52.662857 797.850809 
L 49.371429 797.229423 
L 47.930593 796.63814 
L 46.08 795.946404 
L 42.788571 795.645101 
L 39.497143 796.063205 
L 36.307512 796.63814 
L 36.205714 796.651849 
L 32.914286 796.869669 
L 32.544371 796.63814 
L 29.622857 794.466618 
L 26.331429 794.357645 
L 24.182823 793.346247 
L 23.04 792.414211 
L 19.748571 791.675153 
L 16.457143 791.520734 
L 13.165714 791.584043 
L 9.874286 791.043637 
L 7.766306 790.054354 
L 6.582857 789.515074 
L 3.291429 789.271402 
L 0 789.77061 
M 157.988571 814.095582 
L 156.381734 813.097606 
L 157.988571 812.692401 
L 158.393719 813.097606 
L 157.988571 814.095582 
M 118.491429 804.223335 
L 116.586651 803.221927 
L 118.491429 802.891724 
L 121.782857 802.400345 
L 125.074286 802.04985 
L 126.246197 803.221927 
L 125.074286 804.926027 
L 121.782857 804.745838 
L 118.491429 804.223335 
z
" clip-path="url(#p4f9d92588d)" style="fill: none"/>
    <path d="M 174.114407 819.681392 
L 171.154286 818.280185 
L 167.862857 817.832831 
L 165.351145 816.389499 
L 164.571429 815.870188 
L 162.996866 813.097606 
L 161.28 811.380498 
L 159.705438 809.805713 
L 157.988571 808.088604 
L 156.259472 809.805713 
L 157.988571 812.26947 
L 158.816591 813.097606 
L 157.988571 815.137217 
L 154.7046 813.097606 
L 154.697143 813.094827 
L 154.680204 813.097606 
L 151.405714 813.519177 
L 150.770238 813.097606 
L 148.114286 811.004521 
L 144.822857 810.350247 
L 144.172614 809.805713 
L 141.531429 808.051791 
L 141.298385 807.944925 
M 125.670363 798.801287 
L 125.074286 798.205125 
L 121.782857 798.205125 
L 118.491429 798.165732 
L 116.727376 799.930033 
L 118.491429 802.458748 
L 121.782857 802.036745 
L 125.074286 801.737839 
L 126.558164 803.221927 
L 125.074286 805.379665 
L 121.782857 805.420261 
L 118.491429 805.536427 
L 115.696155 806.51382 
L 115.2 806.665285 
L 111.908571 806.994417 
L 110.860881 806.51382 
L 108.617143 804.884271 
L 105.325714 804.356052 
L 103.149311 803.221927 
L 102.034286 802.451201 
L 98.742857 801.407433 
L 95.451429 801.385115 
L 92.16 801.381558 
L 88.868571 801.37594 
L 85.577143 801.365506 
L 82.285714 801.340017 
L 78.994286 801.202555 
L 77.320183 803.221927 
L 75.702857 804.15367 
L 72.411429 803.837499 
L 70.29194 803.221927 
L 69.12 802.480733 
L 65.828571 801.162379 
L 62.851313 799.930033 
L 62.537143 799.707106 
L 59.245714 798.329404 
L 55.954286 798.367147 
L 52.662857 798.290378 
L 49.371429 797.933362 
L 46.215236 796.63814 
L 46.08 796.58759 
L 42.788571 796.210424 
L 40.002153 796.63814 
L 39.497143 797.043423 
L 36.205714 797.14963 
L 32.914286 797.316647 
L 31.83023 796.63814 
L 29.622857 794.997429 
L 26.331429 794.694644 
L 23.466905 793.346247 
L 23.04 792.998082 
L 19.748571 792.075058 
L 16.457143 791.88154 
L 13.165714 792.005936 
L 9.874286 791.742512 
L 6.582857 790.470162 
L 5.136988 790.054354 
L 3.291429 789.891783 
L 2.313211 790.054354 
L 0 790.376442 
M 82.285714 799.437001 
L 85.577143 799.15996 
L 88.868571 798.935582 
L 90.62804 796.63814 
L 88.868571 794.878423 
L 85.577143 794.878423 
L 84.045183 793.346247 
L 82.285714 791.396929 
L 80.537122 793.346247 
L 80.533737 796.63814 
L 82.285714 799.437001 
z
" clip-path="url(#p4f9d92588d)" style="fill: none"/>
    <path d="M 173.366797 819.681392 
L 171.154286 818.634075 
L 167.862857 818.280584 
L 164.571958 816.389499 
L 164.571429 816.389147 
L 162.702147 813.097606 
L 161.28 811.675259 
L 159.410718 809.805713 
L 157.988571 808.383365 
L 156.556292 809.805713 
L 157.988571 811.846538 
L 159.239463 813.097606 
L 157.988571 816.178853 
L 154.697143 814.417765 
L 151.405714 814.009627 
L 150.030933 813.097606 
L 148.114286 811.587148 
L 144.822857 810.821037 
L 143.61043 809.805713 
L 141.531429 808.425119 
L 138.24 807.10323 
L 136.950238 806.51382 
L 134.948571 805.833655 
L 133.084146 803.221927 
L 131.657143 801.794722 
L 128.365714 801.794722 
L 126.870131 803.221927 
L 125.074286 805.833303 
L 121.782857 806.094684 
L 119.450778 806.51382 
L 118.491429 809.163662 
L 115.2 807.811711 
L 111.908571 807.47138 
L 109.821111 806.51382 
L 108.617143 805.63942 
L 105.325714 804.724612 
L 102.442039 803.221927 
L 102.034286 802.94008 
L 98.742857 801.719443 
L 95.451429 801.749369 
L 92.16 801.827592 
L 88.868571 801.95111 
L 85.577143 802.174924 
L 82.285714 802.704888 
L 80.922172 803.221927 
L 79.783429 806.51382 
L 78.994286 806.652377 
L 76.966001 806.51382 
L 75.702857 806.230463 
L 72.411429 804.289424 
L 69.12 803.379067 
L 68.960847 803.221927 
L 65.828571 801.513956 
L 62.537143 800.307559 
L 62.072151 799.930033 
L 59.245714 798.660786 
L 55.954286 798.705152 
L 52.662857 798.729947 
L 49.371429 798.637301 
L 46.08 798.261424 
L 42.788571 799.292951 
L 41.675946 799.594363 
M 24.292324 794.146747 
L 23.04 793.603285 
L 22.525469 793.346247 
L 19.748571 792.474963 
L 16.457143 792.242346 
L 13.165714 792.427829 
L 9.874286 792.441387 
L 6.582857 792.495544 
L 3.291429 790.868702 
L 0 790.89621 
M 118.491429 802.025771 
L 121.782857 801.673145 
L 125.074286 801.425828 
L 126.501289 799.930033 
L 125.074286 798.502829 
L 121.782857 798.502829 
L 118.491429 798.467822 
L 117.029424 799.930033 
L 118.491429 802.025771 
z
M 82.285714 798.959743 
L 85.577143 798.72574 
L 88.868571 798.539996 
L 90.325086 796.63814 
L 88.868571 795.18142 
L 85.577143 795.18142 
L 83.742229 793.346247 
L 82.285714 791.732573 
L 80.838204 793.346247 
L 80.832482 796.63814 
L 82.285714 798.959743 
z
" clip-path="url(#p4f9d92588d)" style="fill: none"/>
    <path d="M 172.619186 819.681392 
L 171.154286 818.987965 
L 167.862857 818.728337 
L 164.571429 817.842956 
L 161.485326 816.389499 
L 162.407427 813.097606 
L 161.28 811.97002 
L 159.662335 813.097606 
L 161.026791 816.389499 
L 157.988571 816.952195 
L 155.944644 816.389499 
L 154.697143 815.74382 
L 153.362579 815.239524 
M 136.493809 806.866015 
L 135.723127 806.51382 
L 134.948571 806.250626 
L 132.786484 803.221927 
L 131.657143 802.092426 
L 128.365714 802.092426 
L 127.182098 803.221927 
L 125.074286 806.286941 
L 123.200809 806.51382 
L 122.018161 809.805713 
L 121.782857 809.954681 
L 118.491429 810.439564 
L 116.65073 809.805713 
L 115.2 808.958138 
L 111.908571 807.948344 
L 108.781341 806.51382 
L 108.617143 806.394568 
L 105.325714 805.093171 
L 102.034286 803.546931 
L 101.705465 803.221927 
L 98.742857 802.031453 
L 95.451429 802.113622 
L 92.16 802.273627 
L 88.868571 802.526281 
L 85.577143 802.984341 
L 84.520936 803.221927 
L 83.386178 806.51382 
L 82.285714 809.736691 
L 78.994286 807.284806 
L 75.702857 807.100252 
L 75.108921 806.51382 
L 72.411429 804.741348 
L 69.12 804.015676 
L 68.316085 803.221927 
L 65.828571 801.865532 
L 62.537143 800.906691 
L 61.33421 799.930033 
L 59.245714 798.992168 
L 55.954286 799.043157 
L 52.662857 799.169517 
L 49.371429 799.34124 
L 46.276544 799.930033 
L 46.08 800.044739 
L 42.788571 800.567648 
L 39.497143 800.610606 
L 38.766334 799.930033 
L 36.205714 798.145192 
L 32.914286 798.210603 
L 30.401949 796.63814 
L 29.622857 796.059052 
L 26.331429 795.368641 
L 23.04 794.239997 
L 21.250918 793.346247 
L 19.748571 792.874868 
L 16.457143 792.603152 
L 13.165714 792.849722 
L 9.874286 793.140263 
L 8.765233 793.346247 
L 6.582857 793.781389 
L 5.536904 793.346247 
L 3.291429 791.972231 
L 0 791.415978 
M 157.988571 811.423607 
L 159.115999 809.805713 
L 157.988571 808.678126 
L 156.853111 809.805713 
L 157.988571 811.423607 
z
M 118.491429 801.592795 
L 121.782857 801.309546 
L 125.074286 801.113817 
L 126.203627 799.930033 
L 125.074286 798.800533 
L 121.782857 798.800533 
L 118.491429 798.769913 
L 117.331472 799.930033 
L 118.491429 801.592795 
z
M 82.285714 798.482485 
L 85.577143 798.29152 
L 88.868571 798.144411 
L 90.022131 796.63814 
L 88.868571 795.484418 
L 85.577143 795.484418 
L 83.439274 793.346247 
L 82.285714 792.068217 
L 81.139285 793.346247 
L 81.131227 796.63814 
L 82.285714 798.482485 
z
" clip-path="url(#p4f9d92588d)" style="fill: none"/>
    <path d="M 160.711296 819.681392 
L 157.988571 817.657527 
L 154.697143 816.886711 
L 154.195354 816.389499 
L 151.405714 814.990527 
L 148.552323 813.097606 
L 148.114286 812.7524 
L 144.822857 811.762617 
L 142.486063 809.805713 
L 141.531429 809.171773 
L 138.24 808.22479 
L 134.948571 806.945268 
L 134.137673 806.51382 
L 132.488822 803.221927 
L 131.657143 802.39013 
L 128.365714 802.39013 
L 127.494065 803.221927 
L 126.946503 806.51382 
L 125.775965 809.805713 
L 125.074286 811.738264 
L 121.782857 812.334384 
L 118.491429 811.115273 
L 117.427017 810.77839 
M 100.286329 802.963681 
L 98.742857 802.343462 
L 95.451429 802.477876 
L 92.16 802.719662 
L 88.868571 803.101451 
L 88.115873 803.221927 
L 86.990859 806.51382 
L 85.851023 809.805713 
L 85.577143 809.885807 
L 82.285714 810.615591 
L 81.464032 809.805713 
L 78.994286 807.917235 
L 75.702857 807.779338 
L 74.421145 806.51382 
L 72.411429 805.193273 
L 69.12 804.652285 
L 67.671323 803.221927 
L 65.828571 802.217109 
L 62.537143 801.505823 
L 60.596268 799.930033 
L 59.245714 799.32355 
L 55.954286 799.381162 
L 52.662857 799.609086 
L 49.973845 799.930033 
L 49.371429 801.673934 
L 46.08 802.204174 
L 42.788571 801.244818 
L 39.497143 801.275656 
L 38.052193 799.930033 
L 36.205714 798.642973 
L 32.914286 798.657581 
L 29.687808 796.63814 
L 29.622857 796.589863 
L 26.331429 795.70564 
L 23.04 794.876708 
L 19.976368 793.346247 
L 19.748571 793.274774 
L 16.457143 792.963958 
L 13.165714 793.271616 
L 12.505696 793.346247 
L 9.874286 794.010121 
L 6.582857 794.531661 
L 3.733471 793.346247 
L 3.291429 793.07576 
L 0 791.935746 
M 171.871576 819.681392 
L 171.154286 819.341855 
L 167.862857 819.17609 
L 164.571429 819.297401 
L 163.564907 819.681392 
M 161.28 815.571975 
L 162.112708 813.097606 
L 161.28 812.264781 
L 160.085207 813.097606 
L 161.28 815.571975 
z
M 157.988571 811.000675 
L 158.821279 809.805713 
L 157.988571 808.972887 
L 157.14993 809.805713 
L 157.988571 811.000675 
z
M 118.491429 801.159819 
L 121.782857 800.945946 
L 125.074286 800.801805 
L 125.905965 799.930033 
L 125.074286 799.098237 
L 121.782857 799.098237 
L 118.491429 799.072004 
L 117.63352 799.930033 
L 118.491429 801.159819 
z
M 82.285714 798.005227 
L 85.577143 797.8573 
L 88.868571 797.748825 
L 89.719177 796.63814 
L 88.868571 795.787415 
L 85.577143 795.787415 
L 83.13632 793.346247 
L 82.285714 792.40386 
L 81.440367 793.346247 
L 81.429972 796.63814 
L 82.285714 798.005227 
z
" clip-path="url(#p4f9d92588d)" style="fill: none"/>
    <path d="M 159.762406 819.681392 
L 157.988571 818.362859 
L 154.697143 817.855777 
L 153.217366 816.389499 
L 151.405714 815.480977 
L 148.114286 813.687278 
L 147.516346 813.097606 
L 144.822857 812.233407 
L 141.923879 809.805713 
L 141.531429 809.5451 
L 138.24 808.78557 
L 134.948571 808.115147 
L 131.938908 806.51382 
L 132.19116 803.221927 
L 131.657143 802.687834 
L 128.365714 802.687834 
L 127.806032 803.221927 
L 128.365714 805.667265 
L 131.094181 806.51382 
L 129.528858 809.805713 
L 128.365714 813.025711 
L 128.339693 813.097606 
L 125.074286 814.103666 
L 121.782857 813.937841 
L 120.92721 813.097606 
L 118.491429 811.790981 
L 115.2 811.100982 
L 113.884736 809.805713 
L 111.908571 808.902271 
L 108.617143 808.132303 
L 106.976999 806.51382 
L 105.325714 805.830291 
L 102.034286 805.081838 
L 100.152533 803.221927 
L 98.742857 802.655472 
L 95.451429 802.842129 
L 92.16 803.165696 
L 91.707309 803.221927 
L 90.594084 806.51382 
L 89.452346 809.805713 
L 88.868571 811.517236 
L 85.577143 810.938826 
L 82.285714 811.430798 
L 80.636943 809.805713 
L 78.994286 808.549665 
L 75.702857 808.458425 
L 73.733369 806.51382 
L 72.411429 805.645197 
L 69.12 805.288893 
L 67.026561 803.221927 
L 65.828571 802.568685 
L 62.537143 802.104955 
L 59.858327 799.930033 
L 59.245714 799.654932 
L 55.954286 799.719168 
L 53.656714 799.930033 
L 52.662857 802.874176 
L 52.544535 803.221927 
L 49.371429 804.207568 
L 46.08 803.908501 
L 45.369254 803.221927 
L 42.788571 801.921988 
L 39.497143 801.940705 
L 37.338053 799.930033 
L 36.205714 799.140754 
L 32.914286 799.10456 
L 29.622857 797.72426 
L 28.504794 796.63814 
L 26.331429 796.042639 
L 23.04 795.51342 
L 19.889037 794.713427 
M 4.538332 794.683852 
L 3.291429 794.319098 
L 2.284923 793.346247 
L 0 792.455514 
M 170.364812 819.681392 
L 167.862857 819.623843 
L 167.373518 819.681392 
M 161.28 814.696224 
L 161.817989 813.097606 
L 161.28 812.559542 
L 160.508078 813.097606 
L 161.28 814.696224 
z
M 157.988571 810.577743 
L 158.52656 809.805713 
L 157.988571 809.267648 
L 157.44675 809.805713 
L 157.988571 810.577743 
z
M 118.491429 800.726842 
L 121.782857 800.582346 
L 125.074286 800.489794 
L 125.608303 799.930033 
L 125.074286 799.395941 
L 121.782857 799.395941 
L 118.491429 799.374094 
L 117.935568 799.930033 
L 118.491429 800.726842 
z
M 82.285714 797.527969 
L 85.577143 797.42308 
L 88.868571 797.35324 
L 89.416222 796.63814 
L 88.868571 796.090412 
L 85.577143 796.090412 
L 82.833365 793.346247 
L 82.285714 792.739504 
L 81.741449 793.346247 
L 81.728716 796.63814 
L 82.285714 797.527969 
z
" clip-path="url(#p4f9d92588d)" style="fill: none"/>
    <path d="M 158.813516 819.681392 
L 157.988571 819.068192 
L 154.697143 818.824844 
L 152.239378 816.389499 
L 151.405714 815.971426 
L 148.114286 815.134324 
L 146.049012 813.097606 
L 144.822857 812.704198 
L 141.531429 810.66783 
L 140.645004 809.805713 
L 138.24 809.34635 
L 135.763538 809.30021 
M 122.518537 815.194299 
L 121.782857 815.174793 
L 119.66757 813.097606 
L 118.491429 812.466689 
L 115.2 812.128419 
L 112.841439 809.805713 
L 111.908571 809.379235 
L 108.617143 809.010919 
L 106.086623 806.51382 
L 105.325714 806.198851 
L 102.034286 805.849291 
L 99.376067 803.221927 
L 98.742857 802.967482 
L 95.451429 803.206383 
L 95.298193 803.221927 
L 94.193753 806.51382 
L 93.056629 809.805713 
L 92.16 812.399325 
L 91.919746 813.097606 
L 88.868571 814.526605 
L 87.39574 813.097606 
L 85.577143 811.991845 
L 82.285714 812.246006 
L 79.809853 809.805713 
L 78.994286 809.182094 
L 75.702857 809.137511 
L 73.045593 806.51382 
L 72.411429 806.097122 
L 69.12 805.925502 
L 66.381799 803.221927 
L 65.828571 802.920262 
L 62.537143 802.704088 
L 59.245714 800.500194 
L 56.245514 803.221927 
L 55.954286 804.055785 
L 52.662857 804.869724 
L 49.371429 805.360631 
L 46.08 805.207121 
L 44.024914 803.221927 
L 42.788571 802.599157 
L 39.497143 802.605755 
L 36.623912 799.930033 
L 36.205714 799.638535 
L 32.914286 799.551538 
L 29.622857 798.919044 
L 27.274869 796.63814 
L 26.331429 796.379638 
L 23.04 796.150131 
L 19.748571 796.299047 
L 18.961567 796.63814 
L 16.457143 798.050448 
L 13.165714 798.717394 
L 10.991868 796.63814 
L 9.874286 795.892747 
L 6.582857 796.032204 
L 3.291429 795.607833 
L 0.951606 793.346247 
L 0 792.975282 
M 161.28 813.820474 
L 161.523269 813.097606 
L 161.28 812.854303 
L 160.93095 813.097606 
L 161.28 813.820474 
z
M 157.988571 810.154812 
L 158.231841 809.805713 
L 157.988571 809.562409 
L 157.743569 809.805713 
L 157.988571 810.154812 
z
M 128.365714 804.304232 
L 131.657143 804.790993 
L 131.893499 803.221927 
L 131.657143 802.985537 
L 128.365714 802.985537 
L 128.117999 803.221927 
L 128.365714 804.304232 
z
M 118.491429 800.293866 
L 121.782857 800.218747 
L 125.074286 800.177783 
L 125.310642 799.930033 
L 125.074286 799.693644 
L 121.782857 799.693644 
L 118.491429 799.676185 
L 118.237616 799.930033 
L 118.491429 800.293866 
z
M 82.285714 797.050711 
L 85.577143 796.98886 
L 88.868571 796.957655 
L 89.113268 796.63814 
L 88.868571 796.393409 
L 85.577143 796.393409 
L 82.530411 793.346247 
L 82.285714 793.075148 
L 82.042531 793.346247 
L 82.027461 796.63814 
L 82.285714 797.050711 
z
" clip-path="url(#p4f9d92588d)" style="fill: none"/>
    <path d="M 134.390123 819.681392 
L 131.657143 819.629361 
L 128.365714 819.640246 
L 125.074286 817.986053 
L 121.782857 817.533643 
L 118.491429 816.994121 
L 115.2 816.446632 
L 114.927071 816.389499 
L 111.908571 815.831676 
L 108.617143 815.093763 
L 105.325714 814.377347 
L 102.034286 813.297624 
L 101.370321 813.097606 
L 98.742857 812.377147 
L 97.26388 813.097606 
L 95.451429 813.5787 
L 92.16 816.03079 
L 88.868571 816.206918 
L 85.663886 813.097606 
L 85.577143 813.044864 
L 82.285714 813.061214 
L 78.994286 810.555901 
L 75.702857 810.704754 
L 72.411429 810.411008 
L 69.12 810.103336 
L 67.105606 809.805713 
L 65.828571 809.630298 
L 62.574739 808.646287 
M 34.940472 805.912976 
L 32.914286 805.795448 
L 29.622857 805.108251 
L 26.331429 804.815197 
L 23.04 803.966239 
L 19.748571 803.314673 
L 18.845782 803.221927 
L 16.457143 802.959299 
L 13.165714 802.774015 
L 9.874286 802.790861 
L 6.582857 802.691801 
L 3.291429 802.884102 
L 1.026563 803.221927 
L 0 803.414725 
" clip-path="url(#p4f9d92588d)" style="fill: none"/>
    <path clip-path="url(#p4f9d92588d)" style="fill: none"/>
    <path clip-path="url(#p4f9d92588d)" style="fill: none"/>
    <path clip-path="url(#p4f9d92588d)" style="fill: none"/>
    <path clip-path="url(#p4f9d92588d)" style="fill: none"/>
    <path clip-path="url(#p4f9d92588d)" style="fill: none"/>
    <path clip-path="url(#p4f9d92588d)" style="fill: none"/>
    <path clip-path="url(#p4f9d92588d)" style="fill: none"/>
    <path clip-path="url(#p4f9d92588d)" style="fill: none"/>
    <path clip-path="url(#p4f9d92588d)" style="fill: none"/>
    <path clip-path="url(#p4f9d92588d)" style="fill: none"/>
    <path clip-path="url(#p4f9d92588d)" style="fill: none"/>
    <path clip-path="url(#p4f9d92588d)" style="fill: none"/>
    <path clip-path="url(#p4f9d92588d)" style="fill: none"/>
    <path clip-path="url(#p4f9d92588d)" style="fill: none"/>
    <path clip-path="url(#p4f9d92588d)" style="fill: none"/>
    <path clip-path="url(#p4f9d92588d)" style="fill: none"/>
    <path clip-path="url(#p4f9d92588d)" style="fill: none"/>
    <path clip-path="url(#p4f9d92588d)" style="fill: none"/>
    <path clip-path="url(#p4f9d92588d)" style="fill: none"/>
    <path clip-path="url(#p4f9d92588d)" style="fill: none"/>
    <path clip-path="url(#p4f9d92588d)" style="fill: none"/>
    <path clip-path="url(#p4f9d92588d)" style="fill: none"/>
    <path clip-path="url(#p4f9d92588d)" style="fill: none"/>
    <path clip-path="url(#p4f9d92588d)" style="fill: none"/>
    <path clip-path="url(#p4f9d92588d)" style="fill: none"/>
    <path clip-path="url(#p4f9d92588d)" style="fill: none"/>
    <path clip-path="url(#p4f9d92588d)" style="fill: none"/>
    <path clip-path="url(#p4f9d92588d)" style="fill: none"/>
   </g>
   <g id="text_1">
    <g clip-path="url(#p4f9d92588d)">
     <!-- 0 -->
     <g style="opacity: 0" transform="translate(41.911375 796.87946) rotate(-353.483548) scale(0.12 -0.12)">
      <defs>
       <path id="DejaVuSans-30" d="M 2034 4250 
Q 1547 4250 1301 3770 
Q 1056 3291 1056 2328 
Q 1056 1369 1301 889 
Q 1547 409 2034 409 
Q 2525 409 2770 889 
Q 3016 1369 3016 2328 
Q 3016 3291 2770 3770 
Q 2525 4250 2034 4250 
z
M 2034 4750 
Q 2819 4750 3233 4129 
Q 3647 3509 3647 2328 
Q 3647 1150 3233 529 
Q 2819 -91 2034 -91 
Q 1250 -91 836 529 
Q 422 1150 422 2328 
Q 422 3509 836 4129 
Q 1250 4750 2034 4750 
z
" transform="scale(0.015625)"/>
      </defs>
      <use xlink:href="#DejaVuSans-30"/>
     </g>
    </g>
   </g>
   <g id="text_2">
    <g clip-path="url(#p4f9d92588d)">
     <!-- 1 -->
     <g style="opacity: 0" transform="translate(-3.691564 791.729584) rotate(-2.133803) scale(0.12 -0.12)">
      <defs>
       <path id="DejaVuSans-31" d="M 794 531 
L 1825 531 
L 1825 4091 
L 703 3866 
L 703 4441 
L 1819 4666 
L 2450 4666 
L 2450 531 
L 3481 531 
L 3481 0 
L 794 0 
L 794 531 
z
" transform="scale(0.015625)"/>
      </defs>
      <use xlink:href="#DejaVuSans-31"/>
     </g>
    </g>
   </g>
   <g id="text_3">
    <g clip-path="url(#p4f9d92588d)">
     <!-- 2 -->
     <g style="opacity: 0" transform="translate(94.380488 803.334377) rotate(-349.379684) scale(0.12 -0.12)">
      <defs>
       <path id="DejaVuSans-32" d="M 1228 531 
L 3431 531 
L 3431 0 
L 469 0 
L 469 531 
Q 828 903 1448 1529 
Q 2069 2156 2228 2338 
Q 2531 2678 2651 2914 
Q 2772 3150 2772 3378 
Q 2772 3750 2511 3984 
Q 2250 4219 1831 4219 
Q 1534 4219 1204 4116 
Q 875 4013 500 3803 
L 500 4441 
Q 881 4594 1212 4672 
Q 1544 4750 1819 4750 
Q 2544 4750 2975 4387 
Q 3406 4025 3406 3419 
Q 3406 3131 3298 2873 
Q 3191 2616 2906 2266 
Q 2828 2175 2409 1742 
Q 1991 1309 1228 531 
z
" transform="scale(0.015625)"/>
      </defs>
      <use xlink:href="#DejaVuSans-32"/>
     </g>
    </g>
   </g>
   <g id="text_4">
    <g clip-path="url(#p4f9d92588d)">
     <!-- 3 -->
     <g style="opacity: 0" transform="translate(74.830012 804.723717) rotate(-39.115961) scale(0.12 -0.12)">
      <defs>
       <path id="DejaVuSans-33" d="M 2597 2516 
Q 3050 2419 3304 2112 
Q 3559 1806 3559 1356 
Q 3559 666 3084 287 
Q 2609 -91 1734 -91 
Q 1441 -91 1130 -33 
Q 819 25 488 141 
L 488 750 
Q 750 597 1062 519 
Q 1375 441 1716 441 
Q 2309 441 2620 675 
Q 2931 909 2931 1356 
Q 2931 1769 2642 2001 
Q 2353 2234 1838 2234 
L 1294 2234 
L 1294 2753 
L 1863 2753 
Q 2328 2753 2575 2939 
Q 2822 3125 2822 3475 
Q 2822 3834 2567 4026 
Q 2313 4219 1838 4219 
Q 1578 4219 1281 4162 
Q 984 4106 628 3988 
L 628 4550 
Q 988 4650 1302 4700 
Q 1616 4750 1894 4750 
Q 2613 4750 3031 4423 
Q 3450 4097 3450 3541 
Q 3450 3153 3228 2886 
Q 3006 2619 2597 2516 
z
" transform="scale(0.015625)"/>
      </defs>
      <use xlink:href="#DejaVuSans-33"/>
     </g>
    </g>
   </g>
   <g id="text_5">
    <g clip-path="url(#p4f9d92588d)">
     <!-- 4 -->
     <g style="opacity: 0" transform="translate(128.412609 804.141027) rotate(-329.541026) scale(0.12 -0.12)">
      <defs>
       <path id="DejaVuSans-34" d="M 2419 4116 
L 825 1625 
L 2419 1625 
L 2419 4116 
z
M 2253 4666 
L 3047 4666 
L 3047 1625 
L 3713 1625 
L 3713 1100 
L 3047 1100 
L 3047 0 
L 2419 0 
L 2419 1100 
L 313 1100 
L 313 1709 
L 2253 4666 
z
" transform="scale(0.015625)"/>
      </defs>
      <use xlink:href="#DejaVuSans-34"/>
     </g>
    </g>
   </g>
   <g id="text_6">
    <g clip-path="url(#p4f9d92588d)">
     <!-- 5 -->
     <g style="opacity: 0" transform="translate(28.204376 799.595136) rotate(-340.311283) scale(0.12 -0.12)">
      <defs>
       <path id="DejaVuSans-35" d="M 691 4666 
L 3169 4666 
L 3169 4134 
L 1269 4134 
L 1269 2991 
Q 1406 3038 1543 3061 
Q 1681 3084 1819 3084 
Q 2600 3084 3056 2656 
Q 3513 2228 3513 1497 
Q 3513 744 3044 326 
Q 2575 -91 1722 -91 
Q 1428 -91 1123 -41 
Q 819 9 494 109 
L 494 744 
Q 775 591 1075 516 
Q 1375 441 1709 441 
Q 2250 441 2565 725 
Q 2881 1009 2881 1497 
Q 2881 1984 2565 2268 
Q 2250 2553 1709 2553 
Q 1456 2553 1204 2497 
Q 953 2441 691 2322 
L 691 4666 
z
" transform="scale(0.015625)"/>
      </defs>
      <use xlink:href="#DejaVuSans-35"/>
     </g>
    </g>
   </g>
   <g id="text_7">
    <g clip-path="url(#p4f9d92588d)">
     <!-- 6 -->
     <g style="opacity: 0" transform="translate(139.897029 812.4205) rotate(-331.967666) scale(0.12 -0.12)">
      <defs>
       <path id="DejaVuSans-36" d="M 2113 2584 
Q 1688 2584 1439 2293 
Q 1191 2003 1191 1497 
Q 1191 994 1439 701 
Q 1688 409 2113 409 
Q 2538 409 2786 701 
Q 3034 994 3034 1497 
Q 3034 2003 2786 2293 
Q 2538 2584 2113 2584 
z
M 3366 4563 
L 3366 3988 
Q 3128 4100 2886 4159 
Q 2644 4219 2406 4219 
Q 1781 4219 1451 3797 
Q 1122 3375 1075 2522 
Q 1259 2794 1537 2939 
Q 1816 3084 2150 3084 
Q 2853 3084 3261 2657 
Q 3669 2231 3669 1497 
Q 3669 778 3244 343 
Q 2819 -91 2113 -91 
Q 1303 -91 875 529 
Q 447 1150 447 2328 
Q 447 3434 972 4092 
Q 1497 4750 2381 4750 
Q 2619 4750 2861 4703 
Q 3103 4656 3366 4563 
z
" transform="scale(0.015625)"/>
      </defs>
      <use xlink:href="#DejaVuSans-36"/>
     </g>
    </g>
   </g>
   <g id="text_8">
    <g clip-path="url(#p4f9d92588d)">
     <!-- 7 -->
     <g style="opacity: 0" transform="translate(103.793557 808.760571) rotate(-336.410811) scale(0.12 -0.12)">
      <defs>
       <path id="DejaVuSans-37" d="M 525 4666 
L 3525 4666 
L 3525 4397 
L 1831 0 
L 1172 0 
L 2766 4134 
L 525 4134 
L 525 4666 
z
" transform="scale(0.015625)"/>
      </defs>
      <use xlink:href="#DejaVuSans-37"/>
     </g>
    </g>
   </g>
   <g id="text_9">
    <g clip-path="url(#p4f9d92588d)">
     <!-- 8 -->
     <g style="opacity: 0" transform="translate(9.85722 801.187364) rotate(-8.165455) scale(0.12 -0.12)">
      <defs>
       <path id="DejaVuSans-38" d="M 2034 2216 
Q 1584 2216 1326 1975 
Q 1069 1734 1069 1313 
Q 1069 891 1326 650 
Q 1584 409 2034 409 
Q 2484 409 2743 651 
Q 3003 894 3003 1313 
Q 3003 1734 2745 1975 
Q 2488 2216 2034 2216 
z
M 1403 2484 
Q 997 2584 770 2862 
Q 544 3141 544 3541 
Q 544 4100 942 4425 
Q 1341 4750 2034 4750 
Q 2731 4750 3128 4425 
Q 3525 4100 3525 3541 
Q 3525 3141 3298 2862 
Q 3072 2584 2669 2484 
Q 3125 2378 3379 2068 
Q 3634 1759 3634 1313 
Q 3634 634 3220 271 
Q 2806 -91 2034 -91 
Q 1263 -91 848 271 
Q 434 634 434 1313 
Q 434 1759 690 2068 
Q 947 2378 1403 2484 
z
M 1172 3481 
Q 1172 3119 1398 2916 
Q 1625 2713 2034 2713 
Q 2441 2713 2670 2916 
Q 2900 3119 2900 3481 
Q 2900 3844 2670 4047 
Q 2441 4250 2034 4250 
Q 1625 4250 1398 4047 
Q 1172 3844 1172 3481 
z
" transform="scale(0.015625)"/>
      </defs>
      <use xlink:href="#DejaVuSans-38"/>
     </g>
    </g>
   </g>
   <g id="text_10">
    <g clip-path="url(#p4f9d92588d)">
     <!-- 9 -->
     <g style="opacity: 0" transform="translate(129.964005 821.355348) rotate(-38.376265) scale(0.12 -0.12)">
      <defs>
       <path id="DejaVuSans-39" d="M 703 97 
L 703 672 
Q 941 559 1184 500 
Q 1428 441 1663 441 
Q 2288 441 2617 861 
Q 2947 1281 2994 2138 
Q 2813 1869 2534 1725 
Q 2256 1581 1919 1581 
Q 1219 1581 811 2004 
Q 403 2428 403 3163 
Q 403 3881 828 4315 
Q 1253 4750 1959 4750 
Q 2769 4750 3195 4129 
Q 3622 3509 3622 2328 
Q 3622 1225 3098 567 
Q 2575 -91 1691 -91 
Q 1453 -91 1209 -44 
Q 966 3 703 97 
z
M 1959 2075 
Q 2384 2075 2632 2365 
Q 2881 2656 2881 3163 
Q 2881 3666 2632 3958 
Q 2384 4250 1959 4250 
Q 1534 4250 1286 3958 
Q 1038 3666 1038 3163 
Q 1038 2656 1286 2365 
Q 1534 2075 1959 2075 
z
" transform="scale(0.015625)"/>
      </defs>
      <use xlink:href="#DejaVuSans-39"/>
     </g>
    </g>
   </g>
   <g id="text_11">
    <g clip-path="url(#p4f9d92588d)">
     <!-- 10 -->
     <g style="opacity: 0" transform="translate(41.414629 808.917683) rotate(-353.343198) scale(0.12 -0.12)">
      <use xlink:href="#DejaVuSans-31"/>
      <use xlink:href="#DejaVuSans-30" transform="translate(63.623047 0)"/>
     </g>
    </g>
   </g>
  </g>
 </g>
 <defs>
  <clipPath id="p4f9d92588d">
   <rect x="0" y="0" width="576" height="819.681392"/>
  </clipPath>
 </defs>
</svg>
