<?xml version="1.0" encoding="utf-8" standalone="no"?>
<!DOCTYPE svg PUBLIC "-//W3C//DTD SVG 1.1//EN"
  "http://www.w3.org/Graphics/SVG/1.1/DTD/svg11.dtd">
<svg xmlns:xlink="http://www.w3.org/1999/xlink" width="576pt" height="815.655401pt" viewBox="0 0 576 815.655401" xmlns="http://www.w3.org/2000/svg" version="1.1">
 <metadata>
  <rdf:RDF xmlns:dc="http://purl.org/dc/elements/1.1/" xmlns:cc="http://creativecommons.org/ns#" xmlns:rdf="http://www.w3.org/1999/02/22-rdf-syntax-ns#">
   <cc:Work>
    <dc:type rdf:resource="http://purl.org/dc/dcmitype/StillImage"/>
    <dc:date>2025-07-25T22:44:48.140585</dc:date>
    <dc:format>image/svg+xml</dc:format>
    <dc:creator>
     <cc:Agent>
      <dc:title>Matplotlib v3.10.3, https://matplotlib.org/</dc:title>
     </cc:Agent>
    </dc:creator>
   </cc:Work>
  </rdf:RDF>
 </metadata>
 <defs>
  <style type="text/css">*{stroke-linejoin: round; stroke-linecap: butt}</style>
 </defs>
 <g id="figure_1">
  <g id="patch_1">
   <path d="M 0 815.655401 
L 576 815.655401 
L 576 0 
L 0 0 
L 0 815.655401 
z
" style="fill: none; opacity: 0"/>
  </g>
  <g id="axes_1">
   <g id="QuadContourSet_1">
    <path d="M 576 152.984382 
L 576 150.683327 
L 576 147.407603 
L 576 144.131878 
L 576 141.645754 
L 575.167394 140.856154 
L 572.727273 138.093108 
L 571.914488 137.580429 
L 569.454545 135.487883 
L 568.100602 134.304705 
L 566.181818 133.082382 
L 563.663662 131.02898 
L 562.909091 130.477337 
L 559.636364 127.979941 
L 559.323264 127.753256 
L 556.363636 125.171898 
L 555.74024 124.477531 
L 553.090909 121.682359 
L 552.638898 121.201807 
L 549.818182 118.062663 
L 549.655388 117.926082 
L 546.545455 114.683532 
L 546.518585 114.650358 
L 543.272727 112.059027 
L 542.566133 111.374633 
L 540 108.759341 
L 539.032565 108.098909 
L 536.727273 106.025736 
L 535.247952 104.823184 
L 533.454545 103.638914 
L 530.817978 101.54746 
L 530.181818 101.079366 
L 527.07782 98.271735 
L 526.909091 98.097962 
L 524.097193 94.996011 
L 523.636364 94.487646 
L 520.543882 91.720286 
L 520.363636 91.519374 
L 518.232403 88.444562 
L 517.090909 87.449297 
L 515.049526 85.168837 
L 513.818182 83.854285 
L 510.820698 81.893113 
L 510.545455 81.5874 
L 507.272727 79.053127 
L 506.575046 78.617388 
L 504 76.027579 
L 502.262848 75.341664 
L 500.727273 74.482779 
L 498.891267 72.065939 
L 497.454545 70.514505 
L 496.24577 68.790215 
L 494.181818 66.78669 
L 493.189883 65.51449 
L 490.909091 62.565801 
L 490.421211 62.238766 
L 488.091312 58.963041 
L 487.636364 58.470881 
L 484.363636 56.339718 
L 483.836044 55.687317 
L 481.090909 53.551231 
L 479.294364 52.411592 
L 477.818182 50.728165 
L 474.545455 49.446789 
L 474.219253 49.135868 
L 471.272727 46.067995 
L 471.117634 45.860143 
L 468.92218 42.584419 
L 468 41.654573 
L 466.262921 39.308694 
L 464.727273 37.295926 
L 463.03378 36.03297 
L 461.454545 33.133094 
L 461.134431 32.757245 
L 458.181818 30.916865 
L 457.165953 29.481521 
L 454.909091 27.769542 
L 452.434689 26.205796 
L 451.636364 25.236944 
L 448.363636 23.772857 
L 447.419623 22.930072 
L 445.090909 20.803099 
L 444.244234 19.654347 
L 441.994789 16.378623 
L 441.818182 16.190232 
L 439.684652 13.102898 
L 438.545455 11.540191 
L 436.679661 9.827174 
L 435.272727 7.216242 
L 434.750012 6.551449 
L 432 4.226435 
L 431.401897 3.275725 
L 428.727273 1.059932 
L 427.207185 0 
L 425.454545 0 
L 422.181818 0 
L 421.53272 0 
L 422.181818 0.637957 
L 425.060107 3.275725 
L 425.454545 3.637202 
L 428.727273 5.427053 
L 429.418141 6.551449 
L 432 8.422658 
L 433.292959 9.827174 
L 435.272727 12.605576 
L 435.805887 13.102898 
L 438.044752 16.378623 
L 438.545455 17.039156 
L 441.077097 19.654347 
L 441.818182 20.72646 
L 443.474064 22.930072 
L 445.090909 24.859093 
L 446.57248 26.205796 
L 448.363636 27.846236 
L 450.164068 29.481521 
L 451.636364 30.818768 
L 454.583214 32.757245 
L 454.909091 33.043154 
L 458.181818 35.13348 
L 459.042266 36.03297 
L 461.454545 39.141043 
L 461.663544 39.308694 
L 464.100923 42.584419 
L 464.727273 43.368867 
L 467.374804 45.860143 
L 468 46.749368 
L 469.827606 49.135868 
L 471.272727 50.994751 
L 472.756744 52.411592 
L 474.545455 53.97934 
L 476.494158 55.687317 
L 477.818182 56.847781 
L 481.016017 58.963041 
L 481.090909 59.026132 
L 484.363636 61.162376 
L 485.330719 62.238766 
L 487.636364 65.007293 
L 488.289605 65.51449 
L 490.439597 68.790215 
L 490.909091 69.354209 
L 493.818811 72.065939 
L 494.181818 72.598733 
L 496.374675 75.341664 
L 497.454545 76.906779 
L 499.089146 78.617388 
L 500.727273 80.012031 
L 502.976488 81.893113 
L 504 82.749104 
L 507.272727 84.776624 
L 507.625619 85.168837 
L 510.545455 87.060056 
L 511.699587 88.444562 
L 513.818182 90.813961 
L 514.921855 91.720286 
L 516.854887 94.996011 
L 517.090909 95.266935 
L 520.196407 98.271735 
L 520.363636 98.520102 
L 523.025732 101.54746 
L 523.636364 102.459113 
L 525.711737 104.823184 
L 526.909091 105.952134 
L 529.519335 108.098909 
L 530.181818 108.643763 
L 533.454545 110.725593 
L 534.140344 111.374633 
L 536.727273 113.063197 
L 537.976597 114.650358 
L 540 116.733731 
L 541.39642 117.926082 
L 543.272727 121.097616 
L 543.375965 121.201807 
L 546.545455 124.421491 
L 546.594298 124.477531 
L 549.755791 127.753256 
L 549.818182 127.850603 
L 552.601928 131.02898 
L 553.090909 131.496211 
L 556.363636 134.189065 
L 556.548571 134.304705 
L 559.636364 136.33551 
L 561.114796 137.580429 
L 562.909091 138.802839 
L 564.442302 140.856154 
L 566.181818 142.535802 
L 567.97122 144.131878 
L 569.454545 146.457873 
L 570.494328 147.407603 
L 572.727273 149.895803 
L 573.511204 150.683327 
z
" clip-path="url(#p931565053a)" style="fill: #f5f9fe; fill-opacity: 0.9"/>
    <path d="M 576 141.645754 
L 576 140.856154 
L 576 137.580429 
L 576 134.304705 
L 576 131.02898 
L 576 127.753256 
L 576 125.935308 
L 573.945572 124.477531 
L 572.727273 123.651299 
L 569.454545 121.257815 
L 569.392448 121.201807 
L 566.181818 118.06439 
L 566.024085 117.926082 
L 562.909091 115.259141 
L 562.251699 114.650358 
L 559.636364 112.410186 
L 558.401196 111.374633 
L 556.363636 109.015251 
L 555.181149 108.098909 
L 553.090909 106.385706 
L 550.761709 104.823184 
L 549.818182 104.13247 
L 546.545455 101.559679 
L 546.531901 101.54746 
L 543.272727 98.369588 
L 543.163213 98.271735 
L 540 95.445345 
L 539.498538 94.996011 
L 536.727273 92.532047 
L 535.710745 91.720286 
L 533.454545 89.599326 
L 532.133144 88.444562 
L 530.181818 86.73931 
L 527.964147 85.168837 
L 526.909091 84.273424 
L 523.997756 81.893113 
L 523.636364 81.643695 
L 520.363636 78.706748 
L 520.27239 78.617388 
L 517.090909 75.751307 
L 516.707249 75.341664 
L 513.818182 72.698238 
L 513.038204 72.065939 
L 510.545455 69.627164 
L 509.460354 68.790215 
L 507.272727 66.996843 
L 505.482896 65.51449 
L 504 64.0919 
L 501.62288 62.238766 
L 500.727273 61.548692 
L 497.454545 58.985936 
L 497.433691 58.963041 
L 494.181818 56.065041 
L 493.843543 55.687317 
L 490.909091 52.883188 
L 490.39418 52.411592 
L 487.636364 49.316649 
L 487.430364 49.135868 
L 484.363636 46.431688 
L 483.880255 45.860143 
L 481.090909 43.333097 
L 479.464862 42.584419 
L 477.818182 41.223397 
L 474.901249 39.308694 
L 474.545455 39.075147 
L 471.272727 36.386704 
L 470.951881 36.03297 
L 468 32.957413 
L 467.801907 32.757245 
L 464.850248 29.481521 
L 464.727273 29.367495 
L 461.581032 26.205796 
L 461.454545 26.065821 
L 458.217064 22.930072 
L 458.181818 22.894856 
L 455.968056 19.654347 
L 454.909091 18.61803 
L 451.636364 17.757104 
L 448.363636 16.489425 
L 448.250831 16.378623 
L 445.663508 13.102898 
L 445.090909 12.618818 
L 442.749893 9.827174 
L 441.818182 8.792874 
L 439.868718 6.551449 
L 438.545455 4.983817 
L 437.264571 3.275725 
L 435.272727 1.027605 
L 434.730441 0 
L 432 0 
L 428.727273 0 
L 427.207185 0 
L 428.727273 1.059932 
L 431.401897 3.275725 
L 432 4.226435 
L 434.750012 6.551449 
L 435.272727 7.216242 
L 436.679661 9.827174 
L 438.545455 11.540191 
L 439.684652 13.102898 
L 441.818182 16.190232 
L 441.994789 16.378623 
L 444.244234 19.654347 
L 445.090909 20.803099 
L 447.419623 22.930072 
L 448.363636 23.772857 
L 451.636364 25.236944 
L 452.434689 26.205796 
L 454.909091 27.769542 
L 457.165953 29.481521 
L 458.181818 30.916865 
L 461.134431 32.757245 
L 461.454545 33.133094 
L 463.03378 36.03297 
L 464.727273 37.295926 
L 466.262921 39.308694 
L 468 41.654573 
L 468.92218 42.584419 
L 471.117634 45.860143 
L 471.272727 46.067995 
L 474.219253 49.135868 
L 474.545455 49.446789 
L 477.818182 50.728165 
L 479.294364 52.411592 
L 481.090909 53.551231 
L 483.836044 55.687317 
L 484.363636 56.339718 
L 487.636364 58.470881 
L 488.091312 58.963041 
L 490.421211 62.238766 
L 490.909091 62.565801 
L 493.189883 65.51449 
L 494.181818 66.78669 
L 496.24577 68.790215 
L 497.454545 70.514505 
L 498.891267 72.065939 
L 500.727273 74.482779 
L 502.262848 75.341664 
L 504 76.027579 
L 506.575046 78.617388 
L 507.272727 79.053127 
L 510.545455 81.5874 
L 510.820698 81.893113 
L 513.818182 83.854285 
L 515.049526 85.168837 
L 517.090909 87.449297 
L 518.232403 88.444562 
L 520.363636 91.519374 
L 520.543882 91.720286 
L 523.636364 94.487646 
L 524.097193 94.996011 
L 526.909091 98.097962 
L 527.07782 98.271735 
L 530.181818 101.079366 
L 530.817978 101.54746 
L 533.454545 103.638914 
L 535.247952 104.823184 
L 536.727273 106.025736 
L 539.032565 108.098909 
L 540 108.759341 
L 542.566133 111.374633 
L 543.272727 112.059027 
L 546.518585 114.650358 
L 546.545455 114.683532 
L 549.655388 117.926082 
L 549.818182 118.062663 
L 552.638898 121.201807 
L 553.090909 121.682359 
L 555.74024 124.477531 
L 556.363636 125.171898 
L 559.323264 127.753256 
L 559.636364 127.979941 
L 562.909091 130.477337 
L 563.663662 131.02898 
L 566.181818 133.082382 
L 568.100602 134.304705 
L 569.454545 135.487883 
L 571.914488 137.580429 
L 572.727273 138.093108 
L 575.167394 140.856154 
z
" clip-path="url(#p931565053a)" style="fill: #eff6fc; fill-opacity: 0.9"/>
    <path d="M 576 125.935308 
L 576 124.477531 
L 576 121.201807 
L 576 117.926082 
L 576 114.650358 
L 576 111.374633 
L 576 108.098909 
L 576 107.614599 
L 572.727273 106.408262 
L 569.454545 105.002698 
L 569.271555 104.823184 
L 566.181818 101.792147 
L 565.942445 101.54746 
L 562.909091 98.569345 
L 562.567901 98.271735 
L 559.636364 95.25239 
L 559.293443 94.996011 
L 556.363636 91.904257 
L 555.961137 91.720286 
L 553.090909 90.108284 
L 549.818182 88.881087 
L 549.452793 88.444562 
L 546.545455 86.040829 
L 545.77719 85.168837 
L 543.272727 82.339562 
L 542.838859 81.893113 
L 540 78.673611 
L 539.920259 78.617388 
L 536.728906 75.341664 
L 536.727273 75.339809 
L 533.454545 73.244338 
L 530.904084 72.065939 
L 530.181818 71.71273 
L 526.909091 69.946882 
L 525.913247 68.790215 
L 523.636364 66.893662 
L 522.499795 65.51449 
L 520.363636 63.105578 
L 519.570469 62.238766 
L 517.090909 59.209434 
L 516.767868 58.963041 
L 514.177488 55.687317 
L 513.818182 55.241873 
L 510.545455 53.557263 
L 507.625382 52.411592 
L 507.272727 52.27344 
L 504 50.2684 
L 502.892395 49.135868 
L 500.727273 47.381374 
L 499.572047 45.860143 
L 497.454545 43.675083 
L 496.405363 42.584419 
L 494.181818 39.663168 
L 493.749629 39.308694 
L 491.25888 36.03297 
L 490.909091 35.593424 
L 487.636364 32.947965 
L 487.062939 32.757245 
L 484.363636 31.968559 
L 481.090909 30.036748 
L 480.409825 29.481521 
L 477.818182 27.549173 
L 476.839083 26.205796 
L 474.545455 24.134763 
L 473.366547 22.930072 
L 471.272727 19.947532 
L 470.949037 19.654347 
L 468.24382 16.378623 
L 468 16.053229 
L 464.78161 13.102898 
L 464.727273 13.017389 
L 461.454545 11.771173 
L 458.785772 9.827174 
L 458.181818 9.506985 
L 454.909091 6.8081 
L 454.689176 6.551449 
L 451.636364 3.921608 
L 451.058042 3.275725 
L 448.708833 0 
L 448.363636 0 
L 445.090909 0 
L 441.818182 0 
L 438.545455 0 
L 435.272727 0 
L 434.730441 0 
L 435.272727 1.027605 
L 437.264571 3.275725 
L 438.545455 4.983817 
L 439.868718 6.551449 
L 441.818182 8.792874 
L 442.749893 9.827174 
L 445.090909 12.618818 
L 445.663508 13.102898 
L 448.250831 16.378623 
L 448.363636 16.489425 
L 451.636364 17.757104 
L 454.909091 18.61803 
L 455.968056 19.654347 
L 458.181818 22.894856 
L 458.217064 22.930072 
L 461.454545 26.065821 
L 461.581032 26.205796 
L 464.727273 29.367495 
L 464.850248 29.481521 
L 467.801907 32.757245 
L 468 32.957413 
L 470.951881 36.03297 
L 471.272727 36.386704 
L 474.545455 39.075147 
L 474.901249 39.308694 
L 477.818182 41.223397 
L 479.464862 42.584419 
L 481.090909 43.333097 
L 483.880255 45.860143 
L 484.363636 46.431688 
L 487.430364 49.135868 
L 487.636364 49.316649 
L 490.39418 52.411592 
L 490.909091 52.883188 
L 493.843543 55.687317 
L 494.181818 56.065041 
L 497.433691 58.963041 
L 497.454545 58.985936 
L 500.727273 61.548692 
L 501.62288 62.238766 
L 504 64.0919 
L 505.482896 65.51449 
L 507.272727 66.996843 
L 509.460354 68.790215 
L 510.545455 69.627164 
L 513.038204 72.065939 
L 513.818182 72.698238 
L 516.707249 75.341664 
L 517.090909 75.751307 
L 520.27239 78.617388 
L 520.363636 78.706748 
L 523.636364 81.643695 
L 523.997756 81.893113 
L 526.909091 84.273424 
L 527.964147 85.168837 
L 530.181818 86.73931 
L 532.133144 88.444562 
L 533.454545 89.599326 
L 535.710745 91.720286 
L 536.727273 92.532047 
L 539.498538 94.996011 
L 540 95.445345 
L 543.163213 98.271735 
L 543.272727 98.369588 
L 546.531901 101.54746 
L 546.545455 101.559679 
L 549.818182 104.13247 
L 550.761709 104.823184 
L 553.090909 106.385706 
L 555.181149 108.098909 
L 556.363636 109.015251 
L 558.401196 111.374633 
L 559.636364 112.410186 
L 562.251699 114.650358 
L 562.909091 115.259141 
L 566.024085 117.926082 
L 566.181818 118.06439 
L 569.392448 121.201807 
L 569.454545 121.257815 
L 572.727273 123.651299 
L 573.945572 124.477531 
z
" clip-path="url(#p931565053a)" style="fill: #eaf3fb; fill-opacity: 0.9"/>
    <path d="M 569.454545 105.002698 
L 572.727273 106.408262 
L 576 107.614599 
L 576 104.823184 
L 576 101.54746 
L 576 98.271735 
L 576 94.996011 
L 576 91.723552 
L 575.996178 91.720286 
L 572.794526 88.444562 
L 572.727273 88.337693 
L 569.454545 85.610834 
L 569.235994 85.168837 
L 566.181818 82.657355 
L 565.397261 81.893113 
L 562.909091 78.656578 
L 562.836401 78.617388 
L 559.636364 75.904789 
L 557.546555 75.341664 
L 556.363636 75.021179 
L 553.090909 73.872677 
L 550.645896 72.065939 
L 549.818182 71.281855 
L 547.784105 68.790215 
L 546.545455 67.608878 
L 545.224936 65.51449 
L 543.272727 64.029031 
L 541.770924 62.238766 
L 540 60.023457 
L 538.589557 58.963041 
L 536.727273 56.518289 
L 535.199206 55.687317 
L 533.454545 54.717053 
L 530.181818 53.380779 
L 526.909091 52.444768 
L 526.867756 52.411592 
L 523.636364 49.555827 
L 523.194322 49.135868 
L 520.363636 45.948763 
L 520.26772 45.860143 
L 517.410997 42.584419 
L 517.090909 42.219699 
L 513.989469 39.308694 
L 513.818182 39.107567 
L 510.545455 36.586674 
L 509.296103 36.03297 
L 507.272727 34.78273 
L 504 32.884038 
L 503.806293 32.757245 
L 501.444834 29.481521 
L 500.727273 28.983463 
L 497.454545 27.734931 
L 494.181818 26.584467 
L 493.52729 26.205796 
L 490.909091 24.101461 
L 489.770208 22.930072 
L 487.636364 20.795693 
L 487.059688 19.654347 
L 484.363636 17.292766 
L 483.726102 16.378623 
L 481.090909 13.539542 
L 480.485333 13.102898 
L 478.680967 9.827174 
L 477.818182 9.119299 
L 474.545455 7.919178 
L 471.272727 7.770195 
L 468.509097 6.551449 
L 468 6.32694 
L 464.727273 3.466416 
L 464.580518 3.275725 
L 462.52356 0 
L 461.454545 0 
L 458.181818 0 
L 454.909091 0 
L 451.636364 0 
L 448.708833 0 
L 451.058042 3.275725 
L 451.636364 3.921608 
L 454.689176 6.551449 
L 454.909091 6.8081 
L 458.181818 9.506985 
L 458.785772 9.827174 
L 461.454545 11.771173 
L 464.727273 13.017389 
L 464.78161 13.102898 
L 468 16.053229 
L 468.24382 16.378623 
L 470.949037 19.654347 
L 471.272727 19.947532 
L 473.366547 22.930072 
L 474.545455 24.134763 
L 476.839083 26.205796 
L 477.818182 27.549173 
L 480.409825 29.481521 
L 481.090909 30.036748 
L 484.363636 31.968559 
L 487.062939 32.757245 
L 487.636364 32.947965 
L 490.909091 35.593424 
L 491.25888 36.03297 
L 493.749629 39.308694 
L 494.181818 39.663168 
L 496.405363 42.584419 
L 497.454545 43.675083 
L 499.572047 45.860143 
L 500.727273 47.381374 
L 502.892395 49.135868 
L 504 50.2684 
L 507.272727 52.27344 
L 507.625382 52.411592 
L 510.545455 53.557263 
L 513.818182 55.241873 
L 514.177488 55.687317 
L 516.767868 58.963041 
L 517.090909 59.209434 
L 519.570469 62.238766 
L 520.363636 63.105578 
L 522.499795 65.51449 
L 523.636364 66.893662 
L 525.913247 68.790215 
L 526.909091 69.946882 
L 530.181818 71.71273 
L 530.904084 72.065939 
L 533.454545 73.244338 
L 536.727273 75.339809 
L 536.728906 75.341664 
L 539.920259 78.617388 
L 540 78.673611 
L 542.838859 81.893113 
L 543.272727 82.339562 
L 545.77719 85.168837 
L 546.545455 86.040829 
L 549.452793 88.444562 
L 549.818182 88.881087 
L 553.090909 90.108284 
L 555.961137 91.720286 
L 556.363636 91.904257 
L 559.293443 94.996011 
L 559.636364 95.25239 
L 562.567901 98.271735 
L 562.909091 98.569345 
L 565.942445 101.54746 
L 566.181818 101.792147 
L 569.271555 104.823184 
z
" clip-path="url(#p931565053a)" style="fill: #e5eff9; fill-opacity: 0.9"/>
    <path d="M 576 91.723552 
L 576 91.720286 
L 576 88.444562 
L 576 85.168837 
L 576 81.893113 
L 576 78.617388 
L 576 75.341664 
L 576 72.065939 
L 576 68.790215 
L 576 65.51449 
L 576 63.751157 
L 574.907311 62.238766 
L 573.001272 58.963041 
L 572.727273 58.52647 
L 570.640328 55.687317 
L 569.454545 54.013494 
L 566.181818 53.733222 
L 562.909091 53.600595 
L 559.636364 52.977661 
L 559.269378 52.411592 
L 557.279971 49.135868 
L 556.363636 48.575986 
L 554.89385 45.860143 
L 553.090909 43.62012 
L 552.323315 42.584419 
L 550.662645 39.308694 
L 549.818182 38.265709 
L 548.273086 36.03297 
L 546.545455 33.050064 
L 546.245205 32.757245 
L 544.356257 29.481521 
L 543.272727 27.769446 
L 541.11387 26.205796 
L 540 25.106105 
L 538.014069 26.205796 
L 536.727273 27.234645 
L 533.882758 26.205796 
L 533.454545 25.707823 
L 530.181818 23.824813 
L 529.448409 22.930072 
L 528.598434 19.654347 
L 526.909091 18.37443 
L 525.408676 16.378623 
L 523.655095 13.102898 
L 523.636364 13.088725 
L 521.616923 9.827174 
L 520.363636 7.803019 
L 519.303897 6.551449 
L 517.560491 3.275725 
L 517.090909 2.517313 
L 515.200879 0 
L 513.818182 0 
L 510.545455 0 
L 507.272727 0 
L 504 0 
L 500.727273 0 
L 497.454545 0 
L 494.181818 0 
L 490.909091 0 
L 487.636364 0 
L 484.363636 0 
L 481.090909 0 
L 477.818182 0 
L 474.545455 0 
L 471.272727 0 
L 468 0 
L 464.727273 0 
L 462.52356 0 
L 464.580518 3.275725 
L 464.727273 3.466416 
L 468 6.32694 
L 468.509097 6.551449 
L 471.272727 7.770195 
L 474.545455 7.919178 
L 477.818182 9.119299 
L 478.680967 9.827174 
L 480.485333 13.102898 
L 481.090909 13.539542 
L 483.726102 16.378623 
L 484.363636 17.292766 
L 487.059688 19.654347 
L 487.636364 20.795693 
L 489.770208 22.930072 
L 490.909091 24.101461 
L 493.52729 26.205796 
L 494.181818 26.584467 
L 497.454545 27.734931 
L 500.727273 28.983463 
L 501.444834 29.481521 
L 503.806293 32.757245 
L 504 32.884038 
L 507.272727 34.78273 
L 509.296103 36.03297 
L 510.545455 36.586674 
L 513.818182 39.107567 
L 513.989469 39.308694 
L 517.090909 42.219699 
L 517.410997 42.584419 
L 520.26772 45.860143 
L 520.363636 45.948763 
L 523.194322 49.135868 
L 523.636364 49.555827 
L 526.867756 52.411592 
L 526.909091 52.444768 
L 530.181818 53.380779 
L 533.454545 54.717053 
L 535.199206 55.687317 
L 536.727273 56.518289 
L 538.589557 58.963041 
L 540 60.023457 
L 541.770924 62.238766 
L 543.272727 64.029031 
L 545.224936 65.51449 
L 546.545455 67.608878 
L 547.784105 68.790215 
L 549.818182 71.281855 
L 550.645896 72.065939 
L 553.090909 73.872677 
L 556.363636 75.021179 
L 557.546555 75.341664 
L 559.636364 75.904789 
L 562.836401 78.617388 
L 562.909091 78.656578 
L 565.397261 81.893113 
L 566.181818 82.657355 
L 569.235994 85.168837 
L 569.454545 85.610834 
L 572.727273 88.337693 
L 572.794526 88.444562 
L 575.996178 91.720286 
z
" clip-path="url(#p931565053a)" style="fill: #dfecf7; fill-opacity: 0.9"/>
    <path d="M 576 63.751157 
L 576 62.238766 
L 576 58.963041 
L 576 55.687317 
L 576 52.411592 
L 576 51.210507 
L 574.259628 49.135868 
L 572.727273 47.53424 
L 570.826768 45.860143 
L 569.454545 44.559168 
L 566.603544 42.584419 
L 566.181818 42.228983 
L 562.909091 39.491485 
L 562.711391 39.308694 
L 559.636364 36.561751 
L 558.576468 36.03297 
L 556.363636 34.103344 
L 554.340122 32.757245 
L 553.090909 31.895384 
L 551.386423 29.481521 
L 549.818182 28.210568 
L 548.199548 26.205796 
L 546.545455 24.157104 
L 545.456615 22.930072 
L 543.272727 20.477986 
L 542.441452 19.654347 
L 540 17.646511 
L 538.72257 16.378623 
L 536.727273 14.509921 
L 535.049131 13.102898 
L 533.454545 11.521772 
L 530.831177 9.827174 
L 530.181818 9.324434 
L 526.909091 8.156135 
L 525.637463 6.551449 
L 523.636364 4.31147 
L 522.509596 3.275725 
L 520.363636 0.404692 
L 520.150047 0 
L 517.090909 0 
L 515.200879 0 
L 517.090909 2.517313 
L 517.560491 3.275725 
L 519.303897 6.551449 
L 520.363636 7.803019 
L 521.616923 9.827174 
L 523.636364 13.088725 
L 523.655095 13.102898 
L 525.408676 16.378623 
L 526.909091 18.37443 
L 528.598434 19.654347 
L 529.448409 22.930072 
L 530.181818 23.824813 
L 533.454545 25.707823 
L 533.882758 26.205796 
L 536.727273 27.234645 
L 538.014069 26.205796 
L 540 25.106105 
L 541.11387 26.205796 
L 543.272727 27.769446 
L 544.356257 29.481521 
L 546.245205 32.757245 
L 546.545455 33.050064 
L 548.273086 36.03297 
L 549.818182 38.265709 
L 550.662645 39.308694 
L 552.323315 42.584419 
L 553.090909 43.62012 
L 554.89385 45.860143 
L 556.363636 48.575986 
L 557.279971 49.135868 
L 559.269378 52.411592 
L 559.636364 52.977661 
L 562.909091 53.600595 
L 566.181818 53.733222 
L 569.454545 54.013494 
L 570.640328 55.687317 
L 572.727273 58.52647 
L 573.001272 58.963041 
L 574.907311 62.238766 
z
" clip-path="url(#p931565053a)" style="fill: #dae8f6; fill-opacity: 0.9"/>
    <path d="M 576 51.210507 
L 576 49.135868 
L 576 45.860143 
L 576 42.584419 
L 576 42.355482 
L 573.576074 39.308694 
L 572.727273 38.345734 
L 570.828708 36.03297 
L 569.454545 34.335522 
L 567.570014 32.757245 
L 566.181818 30.867507 
L 564.587773 29.481521 
L 562.909091 28.194503 
L 560.582997 26.205796 
L 559.636364 25.462058 
L 556.363636 24.620228 
L 554.16697 22.930072 
L 553.090909 22.427614 
L 550.023404 19.654347 
L 549.818182 19.497356 
L 547.207447 16.378623 
L 546.545455 15.561252 
L 544.188643 13.102898 
L 543.272727 11.921301 
L 541.198544 9.827174 
L 540 8.545579 
L 538.298012 6.551449 
L 536.727273 5.282581 
L 534.233584 3.275725 
L 533.454545 2.430854 
L 530.181818 0.942914 
L 528.980038 0 
L 526.909091 0 
L 523.636364 0 
L 520.363636 0 
L 520.150047 0 
L 520.363636 0.404692 
L 522.509596 3.275725 
L 523.636364 4.31147 
L 525.637463 6.551449 
L 526.909091 8.156135 
L 530.181818 9.324434 
L 530.831177 9.827174 
L 533.454545 11.521772 
L 535.049131 13.102898 
L 536.727273 14.509921 
L 538.72257 16.378623 
L 540 17.646511 
L 542.441452 19.654347 
L 543.272727 20.477986 
L 545.456615 22.930072 
L 546.545455 24.157104 
L 548.199548 26.205796 
L 549.818182 28.210568 
L 551.386423 29.481521 
L 553.090909 31.895384 
L 554.340122 32.757245 
L 556.363636 34.103344 
L 558.576468 36.03297 
L 559.636364 36.561751 
L 562.711391 39.308694 
L 562.909091 39.491485 
L 566.181818 42.228983 
L 566.603544 42.584419 
L 569.454545 44.559168 
L 570.826768 45.860143 
L 572.727273 47.53424 
L 574.259628 49.135868 
z
" clip-path="url(#p931565053a)" style="fill: #d6e5f4; fill-opacity: 0.9"/>
    <path d="M 576 42.355482 
L 576 39.308694 
L 576 36.03297 
L 576 32.757245 
L 576 29.481521 
L 576 27.058702 
L 574.428483 26.205796 
L 572.727273 24.293021 
L 569.454545 24.295331 
L 568.353245 22.930072 
L 566.181818 21.54497 
L 564.574081 19.654347 
L 562.909091 17.801591 
L 561.756653 16.378623 
L 559.636364 13.927604 
L 558.630095 13.102898 
L 556.363636 10.179073 
L 555.939085 9.827174 
L 553.090909 7.478262 
L 551.918029 6.551449 
L 549.818182 4.757398 
L 546.545455 4.068568 
L 545.211726 3.275725 
L 543.272727 2.429362 
L 541.650649 0 
L 540 0 
L 536.727273 0 
L 533.454545 0 
L 530.181818 0 
L 528.980038 0 
L 530.181818 0.942914 
L 533.454545 2.430854 
L 534.233584 3.275725 
L 536.727273 5.282581 
L 538.298012 6.551449 
L 540 8.545579 
L 541.198544 9.827174 
L 543.272727 11.921301 
L 544.188643 13.102898 
L 546.545455 15.561252 
L 547.207447 16.378623 
L 549.818182 19.497356 
L 550.023404 19.654347 
L 553.090909 22.427614 
L 554.16697 22.930072 
L 556.363636 24.620228 
L 559.636364 25.462058 
L 560.582997 26.205796 
L 562.909091 28.194503 
L 564.587773 29.481521 
L 566.181818 30.867507 
L 567.570014 32.757245 
L 569.454545 34.335522 
L 570.828708 36.03297 
L 572.727273 38.345734 
L 573.576074 39.308694 
z
M 576 2.915059 
L 576 0 
L 574.378156 0 
z
" clip-path="url(#p931565053a)" style="fill: #d0e2f2; fill-opacity: 0.9"/>
    <path d="M 576 27.058702 
L 576 26.205796 
L 576 22.930072 
L 576 19.654347 
L 576 16.378623 
L 576 13.102898 
L 576 9.827174 
L 576 6.551449 
L 576 3.275725 
L 576 2.915059 
L 574.378156 0 
L 572.727273 0 
L 569.454545 0 
L 566.181818 0 
L 562.909091 0 
L 559.636364 0 
L 556.363636 0 
L 553.090909 0 
L 549.818182 0 
L 546.545455 0 
L 543.272727 0 
L 541.650649 0 
L 543.272727 2.429362 
L 545.211726 3.275725 
L 546.545455 4.068568 
L 549.818182 4.757398 
L 551.918029 6.551449 
L 553.090909 7.478262 
L 555.939085 9.827174 
L 556.363636 10.179073 
L 558.630095 13.102898 
L 559.636364 13.927604 
L 561.756653 16.378623 
L 562.909091 17.801591 
L 564.574081 19.654347 
L 566.181818 21.54497 
L 568.353245 22.930072 
L 569.454545 24.295331 
L 572.727273 24.293021 
L 574.428483 26.205796 
z
" clip-path="url(#p931565053a)" style="fill: #cbdef1; fill-opacity: 0.9"/>
    <path clip-path="url(#p931565053a)" style="fill: #c6dbef; fill-opacity: 0.9"/>
    <path clip-path="url(#p931565053a)" style="fill: #bed8ec; fill-opacity: 0.9"/>
    <path clip-path="url(#p931565053a)" style="fill: #b5d4e9; fill-opacity: 0.9"/>
    <path clip-path="url(#p931565053a)" style="fill: #add0e6; fill-opacity: 0.9"/>
    <path clip-path="url(#p931565053a)" style="fill: #a5cde3; fill-opacity: 0.9"/>
    <path clip-path="url(#p931565053a)" style="fill: #9cc9e1; fill-opacity: 0.9"/>
    <path clip-path="url(#p931565053a)" style="fill: #91c3de; fill-opacity: 0.9"/>
    <path clip-path="url(#p931565053a)" style="fill: #85bcdc; fill-opacity: 0.9"/>
    <path clip-path="url(#p931565053a)" style="fill: #7cb7da; fill-opacity: 0.9"/>
    <path clip-path="url(#p931565053a)" style="fill: #71b1d7; fill-opacity: 0.9"/>
    <path clip-path="url(#p931565053a)" style="fill: #66abd4; fill-opacity: 0.9"/>
    <path clip-path="url(#p931565053a)" style="fill: #5da5d1; fill-opacity: 0.9"/>
    <path clip-path="url(#p931565053a)" style="fill: #56a0ce; fill-opacity: 0.9"/>
    <path clip-path="url(#p931565053a)" style="fill: #4d99ca; fill-opacity: 0.9"/>
    <path clip-path="url(#p931565053a)" style="fill: #4493c7; fill-opacity: 0.9"/>
    <path clip-path="url(#p931565053a)" style="fill: #3c8cc3; fill-opacity: 0.9"/>
    <path clip-path="url(#p931565053a)" style="fill: #3686c0; fill-opacity: 0.9"/>
    <path clip-path="url(#p931565053a)" style="fill: #2f7fbc; fill-opacity: 0.9"/>
    <path clip-path="url(#p931565053a)" style="fill: #2777b8; fill-opacity: 0.9"/>
    <path clip-path="url(#p931565053a)" style="fill: #2070b4; fill-opacity: 0.9"/>
    <path clip-path="url(#p931565053a)" style="fill: #1c6ab0; fill-opacity: 0.9"/>
    <path clip-path="url(#p931565053a)" style="fill: #1663aa; fill-opacity: 0.9"/>
    <path clip-path="url(#p931565053a)" style="fill: #115ca5; fill-opacity: 0.9"/>
    <path clip-path="url(#p931565053a)" style="fill: #0c56a0; fill-opacity: 0.9"/>
    <path clip-path="url(#p931565053a)" style="fill: #084f99; fill-opacity: 0.9"/>
    <path clip-path="url(#p931565053a)" style="fill: #08488e; fill-opacity: 0.9"/>
    <path clip-path="url(#p931565053a)" style="fill: #084184; fill-opacity: 0.9"/>
    <path clip-path="url(#p931565053a)" style="fill: #083a7a; fill-opacity: 0.9"/>
    <path clip-path="url(#p931565053a)" style="fill: #083370; fill-opacity: 0.9"/>
    <path clip-path="url(#p931565053a)" style="fill: #08306b; fill-opacity: 0.9"/>
   </g>
   <g id="QuadContourSet_2">
    <path d="M 421.53272 0 
L 422.181818 0.637957 
L 425.060107 3.275725 
L 425.454545 3.637202 
L 428.727273 5.427053 
L 429.418141 6.551449 
L 432 8.422658 
L 433.292959 9.827174 
L 435.272727 12.605576 
L 435.805887 13.102898 
L 438.044752 16.378623 
L 438.545455 17.039156 
L 441.077097 19.654347 
L 441.818182 20.72646 
L 443.474064 22.930072 
L 445.090909 24.859093 
L 446.57248 26.205796 
L 448.363636 27.846236 
L 450.164068 29.481521 
L 451.636364 30.818768 
L 454.583214 32.757245 
L 454.909091 33.043154 
L 458.181818 35.13348 
L 459.042266 36.03297 
L 461.454545 39.141043 
L 461.663544 39.308694 
L 464.100923 42.584419 
L 464.727273 43.368867 
L 467.374804 45.860143 
L 468 46.749368 
L 469.827606 49.135868 
L 471.272727 50.994751 
L 472.756744 52.411592 
L 474.545455 53.97934 
L 476.494158 55.687317 
L 477.818182 56.847781 
L 481.016017 58.963041 
L 481.090909 59.026132 
L 484.363636 61.162376 
L 485.330719 62.238766 
L 487.636364 65.007293 
L 488.289605 65.51449 
L 490.439597 68.790215 
L 490.909091 69.354209 
L 493.818811 72.065939 
L 494.181818 72.598733 
L 496.374675 75.341664 
L 497.454545 76.906779 
L 499.089146 78.617388 
L 500.727273 80.012031 
L 502.976488 81.893113 
L 504 82.749104 
L 507.272727 84.776624 
L 507.625619 85.168837 
L 510.545455 87.060056 
L 511.699587 88.444562 
L 513.818182 90.813961 
L 514.921855 91.720286 
L 516.854887 94.996011 
L 517.090909 95.266935 
L 520.196407 98.271735 
L 520.363636 98.520102 
L 523.025732 101.54746 
L 523.636364 102.459113 
L 525.711737 104.823184 
L 526.909091 105.952134 
L 529.519335 108.098909 
L 530.181818 108.643763 
L 533.454545 110.725593 
L 534.140344 111.374633 
L 536.727273 113.063197 
L 537.366078 113.874745 
M 550.011866 128.071745 
L 552.601928 131.02898 
L 553.090909 131.496211 
L 556.363636 134.189065 
L 556.548571 134.304705 
L 559.636364 136.33551 
L 561.114796 137.580429 
L 562.909091 138.802839 
L 564.442302 140.856154 
L 566.181818 142.535802 
L 567.97122 144.131878 
L 569.454545 146.457873 
L 570.494328 147.407603 
L 572.727273 149.895803 
L 573.511204 150.683327 
L 576 152.984382 
" clip-path="url(#p931565053a)" style="fill: none"/>
    <path d="M 427.207185 0 
L 428.727273 1.059932 
L 431.401897 3.275725 
L 432 4.226435 
L 434.750012 6.551449 
L 435.272727 7.216242 
L 436.679661 9.827174 
L 438.545455 11.540191 
L 439.684652 13.102898 
L 441.818182 16.190232 
L 441.994789 16.378623 
L 444.244234 19.654347 
L 445.090909 20.803099 
L 447.419623 22.930072 
L 448.363636 23.772857 
L 451.636364 25.236944 
L 452.434689 26.205796 
L 454.909091 27.769542 
L 457.165953 29.481521 
L 458.181818 30.916865 
L 461.134431 32.757245 
L 461.454545 33.133094 
L 463.03378 36.03297 
L 464.727273 37.295926 
L 466.262921 39.308694 
L 468 41.654573 
L 468.92218 42.584419 
L 471.117634 45.860143 
L 471.272727 46.067995 
L 474.219253 49.135868 
L 474.545455 49.446789 
L 477.818182 50.728165 
L 479.294364 52.411592 
L 481.090909 53.551231 
L 483.836044 55.687317 
L 484.363636 56.339718 
L 487.636364 58.470881 
L 488.091312 58.963041 
L 490.421211 62.238766 
L 490.909091 62.565801 
L 493.189883 65.51449 
L 494.181818 66.78669 
L 496.24577 68.790215 
L 497.454545 70.514505 
L 498.891267 72.065939 
L 500.727273 74.482779 
L 502.262848 75.341664 
L 504 76.027579 
L 506.575046 78.617388 
L 507.272727 79.053127 
L 510.545455 81.5874 
L 510.820698 81.893113 
L 513.818182 83.854285 
L 515.049526 85.168837 
L 517.090909 87.449297 
L 518.232403 88.444562 
L 520.363636 91.519374 
L 520.543882 91.720286 
L 523.636364 94.487646 
L 524.097193 94.996011 
L 526.909091 98.097962 
L 527.07782 98.271735 
L 527.734275 98.865512 
M 542.402195 111.207555 
L 542.566133 111.374633 
L 543.272727 112.059027 
L 546.518585 114.650358 
L 546.545455 114.683532 
L 549.655388 117.926082 
L 549.818182 118.062663 
L 552.638898 121.201807 
L 553.090909 121.682359 
L 555.74024 124.477531 
L 556.363636 125.171898 
L 559.323264 127.753256 
L 559.636364 127.979941 
L 562.909091 130.477337 
L 563.663662 131.02898 
L 566.181818 133.082382 
L 568.100602 134.304705 
L 569.454545 135.487883 
L 571.914488 137.580429 
L 572.727273 138.093108 
L 575.167394 140.856154 
L 576 141.645754 
" clip-path="url(#p931565053a)" style="fill: none"/>
    <path d="M 434.730441 0 
L 435.272727 1.027605 
L 437.264571 3.275725 
L 438.545455 4.983817 
L 439.868718 6.551449 
L 441.818182 8.792874 
L 442.749893 9.827174 
L 445.090909 12.618818 
L 445.663508 13.102898 
L 448.250831 16.378623 
L 448.363636 16.489425 
L 451.636364 17.757104 
L 454.909091 18.61803 
L 455.968056 19.654347 
L 458.181818 22.894856 
L 458.217064 22.930072 
L 461.454545 26.065821 
L 461.581032 26.205796 
L 464.727273 29.367495 
L 464.850248 29.481521 
L 467.801907 32.757245 
L 468 32.957413 
L 470.951881 36.03297 
L 471.272727 36.386704 
L 474.545455 39.075147 
L 474.901249 39.308694 
L 477.818182 41.223397 
L 479.464862 42.584419 
L 481.090909 43.333097 
L 483.880255 45.860143 
L 484.363636 46.431688 
L 487.430364 49.135868 
L 487.636364 49.316649 
L 490.39418 52.411592 
L 490.909091 52.883188 
L 493.843543 55.687317 
L 494.181818 56.065041 
L 497.433691 58.963041 
L 497.454545 58.985936 
L 500.727273 61.548692 
L 501.62288 62.238766 
L 504 64.0919 
L 505.482896 65.51449 
L 507.272727 66.996843 
L 509.460354 68.790215 
L 510.545455 69.627164 
L 513.038204 72.065939 
L 513.818182 72.698238 
L 516.707249 75.341664 
L 517.090909 75.751307 
L 520.27239 78.617388 
L 520.363636 78.706748 
L 523.636364 81.643695 
L 523.997756 81.893113 
L 526.909091 84.273424 
L 527.964147 85.168837 
L 530.181818 86.73931 
L 532.133144 88.444562 
L 533.454545 89.599326 
L 535.710745 91.720286 
L 536.727273 92.532047 
L 539.498538 94.996011 
L 540 95.445345 
L 543.163213 98.271735 
L 543.272727 98.369588 
L 546.531901 101.54746 
L 546.545455 101.559679 
L 549.818182 104.13247 
L 550.761709 104.823184 
L 553.090909 106.385706 
L 555.181149 108.098909 
L 555.936043 108.683896 
M 570.039937 121.685936 
L 572.727273 123.651299 
L 573.945572 124.477531 
L 576 125.935308 
" clip-path="url(#p931565053a)" style="fill: none"/>
    <path d="M 448.708833 0 
L 451.058042 3.275725 
L 451.636364 3.921608 
L 454.689176 6.551449 
L 454.909091 6.8081 
L 458.181818 9.506985 
L 458.785772 9.827174 
L 461.454545 11.771173 
L 464.727273 13.017389 
L 464.78161 13.102898 
L 468 16.053229 
L 468.24382 16.378623 
L 470.949037 19.654347 
L 471.272727 19.947532 
L 473.366547 22.930072 
L 474.545455 24.134763 
L 476.839083 26.205796 
L 477.818182 27.549173 
L 480.409825 29.481521 
L 481.090909 30.036748 
L 484.363636 31.968559 
L 487.062939 32.757245 
L 487.636364 32.947965 
L 490.909091 35.593424 
L 491.25888 36.03297 
L 493.749629 39.308694 
L 494.181818 39.663168 
L 496.405363 42.584419 
L 497.454545 43.675083 
L 499.572047 45.860143 
L 500.727273 47.381374 
L 502.892395 49.135868 
L 504 50.2684 
L 507.272727 52.27344 
L 507.625382 52.411592 
L 510.545455 53.557263 
L 513.818182 55.241873 
L 514.177488 55.687317 
L 516.767868 58.963041 
L 517.090909 59.209434 
L 519.570469 62.238766 
L 520.363636 63.105578 
L 522.499795 65.51449 
L 523.636364 66.893662 
L 525.913247 68.790215 
L 526.909091 69.946882 
L 530.181818 71.71273 
L 530.904084 72.065939 
L 533.454545 73.244338 
L 536.727273 75.339809 
L 536.728906 75.341664 
L 539.920259 78.617388 
L 540 78.673611 
L 542.838859 81.893113 
L 543.272727 82.339562 
L 545.77719 85.168837 
L 546.545455 86.040829 
L 549.452793 88.444562 
L 549.818182 88.881087 
L 553.090909 90.108284 
L 555.961137 91.720286 
L 556.12454 91.794973 
M 569.851772 105.173298 
L 572.727273 106.408262 
L 576 107.614599 
" clip-path="url(#p931565053a)" style="fill: none"/>
    <path d="M 462.52356 0 
L 464.580518 3.275725 
L 464.727273 3.466416 
L 468 6.32694 
L 468.509097 6.551449 
L 471.272727 7.770195 
L 474.545455 7.919178 
L 477.818182 9.119299 
L 478.680967 9.827174 
L 480.485333 13.102898 
L 481.090909 13.539542 
L 483.726102 16.378623 
L 484.363636 17.292766 
L 487.059688 19.654347 
L 487.636364 20.795693 
L 489.770208 22.930072 
L 490.909091 24.101461 
L 493.52729 26.205796 
L 494.181818 26.584467 
L 497.454545 27.734931 
L 500.727273 28.983463 
L 501.444834 29.481521 
L 503.806293 32.757245 
L 504 32.884038 
L 507.272727 34.78273 
L 509.296103 36.03297 
L 510.545455 36.586674 
L 513.818182 39.107567 
L 513.989469 39.308694 
L 517.090909 42.219699 
L 517.410997 42.584419 
L 520.26772 45.860143 
L 520.363636 45.948763 
L 523.194322 49.135868 
L 523.636364 49.555827 
L 526.867756 52.411592 
L 526.909091 52.444768 
L 530.181818 53.380779 
L 533.454545 54.717053 
L 535.199206 55.687317 
L 536.727273 56.518289 
L 538.491088 58.833773 
M 551.460803 72.668113 
L 553.090909 73.872677 
L 556.363636 75.021179 
L 557.546555 75.341664 
L 559.636364 75.904789 
L 562.836401 78.617388 
L 562.909091 78.656578 
L 565.397261 81.893113 
L 566.181818 82.657355 
L 569.235994 85.168837 
L 569.454545 85.610834 
L 572.727273 88.337693 
L 572.794526 88.444562 
L 575.996178 91.720286 
L 576 91.723552 
" clip-path="url(#p931565053a)" style="fill: none"/>
    <path d="M 515.200879 0 
L 517.090909 2.517313 
L 517.560491 3.275725 
L 519.303897 6.551449 
L 520.363636 7.803019 
L 521.616923 9.827174 
L 523.636364 13.088725 
L 523.655095 13.102898 
L 525.408676 16.378623 
L 526.909091 18.37443 
L 528.598434 19.654347 
L 529.448409 22.930072 
L 530.181818 23.824813 
L 533.454545 25.707823 
L 533.882758 26.205796 
L 536.727273 27.234645 
L 538.014069 26.205796 
L 540 25.106105 
L 541.11387 26.205796 
L 543.272727 27.769446 
L 544.356257 29.481521 
L 545.425034 31.334944 
M 555.716981 47.381108 
L 556.363636 48.575986 
L 557.279971 49.135868 
L 559.269378 52.411592 
L 559.636364 52.977661 
L 562.909091 53.600595 
L 566.181818 53.733222 
L 569.454545 54.013494 
L 570.640328 55.687317 
L 572.727273 58.52647 
L 573.001272 58.963041 
L 574.907311 62.238766 
L 576 63.751157 
" clip-path="url(#p931565053a)" style="fill: none"/>
    <path d="M 520.150047 0 
L 520.363636 0.404692 
L 522.509596 3.275725 
L 523.636364 4.31147 
L 525.637463 6.551449 
L 526.909091 8.156135 
L 530.181818 9.324434 
L 530.831177 9.827174 
L 533.454545 11.521772 
L 535.049131 13.102898 
L 536.727273 14.509921 
L 538.72257 16.378623 
L 540 17.646511 
L 542.441452 19.654347 
L 543.272727 20.477986 
L 545.456615 22.930072 
L 546.545455 24.157104 
L 548.199548 26.205796 
L 549.818182 28.210568 
L 551.386423 29.481521 
L 553.090909 31.895384 
L 554.340122 32.757245 
L 555.278869 33.381726 
M 570.173586 45.240876 
L 570.826768 45.860143 
L 572.727273 47.53424 
L 574.259628 49.135868 
L 576 51.210507 
" clip-path="url(#p931565053a)" style="fill: none"/>
    <path d="M 528.980038 0 
L 530.181818 0.942914 
L 530.565204 1.11722 
M 544.699067 13.635313 
L 546.545455 15.561252 
L 547.207447 16.378623 
L 549.818182 19.497356 
L 550.023404 19.654347 
L 553.090909 22.427614 
L 554.16697 22.930072 
L 556.363636 24.620228 
L 559.636364 25.462058 
L 560.582997 26.205796 
L 562.909091 28.194503 
L 564.587773 29.481521 
L 566.181818 30.867507 
L 567.570014 32.757245 
L 569.454545 34.335522 
L 570.828708 36.03297 
L 572.727273 38.345734 
L 573.576074 39.308694 
L 576 42.355482 
" clip-path="url(#p931565053a)" style="fill: none"/>
    <path d="M 541.650649 0 
L 543.272727 2.429362 
L 543.490881 2.524585 
M 558.719055 13.175807 
L 559.636364 13.927604 
L 561.756653 16.378623 
L 562.909091 17.801591 
L 564.574081 19.654347 
L 566.181818 21.54497 
L 568.353245 22.930072 
L 569.454545 24.295331 
L 572.727273 24.293021 
L 574.428483 26.205796 
L 576 27.058702 
M 576 2.915059 
L 574.378156 0 
" clip-path="url(#p931565053a)" style="fill: none"/>
    <path clip-path="url(#p931565053a)" style="fill: none"/>
    <path clip-path="url(#p931565053a)" style="fill: none"/>
    <path clip-path="url(#p931565053a)" style="fill: none"/>
    <path clip-path="url(#p931565053a)" style="fill: none"/>
    <path clip-path="url(#p931565053a)" style="fill: none"/>
    <path clip-path="url(#p931565053a)" style="fill: none"/>
    <path clip-path="url(#p931565053a)" style="fill: none"/>
    <path clip-path="url(#p931565053a)" style="fill: none"/>
    <path clip-path="url(#p931565053a)" style="fill: none"/>
    <path clip-path="url(#p931565053a)" style="fill: none"/>
    <path clip-path="url(#p931565053a)" style="fill: none"/>
    <path clip-path="url(#p931565053a)" style="fill: none"/>
    <path clip-path="url(#p931565053a)" style="fill: none"/>
    <path clip-path="url(#p931565053a)" style="fill: none"/>
    <path clip-path="url(#p931565053a)" style="fill: none"/>
    <path clip-path="url(#p931565053a)" style="fill: none"/>
    <path clip-path="url(#p931565053a)" style="fill: none"/>
    <path clip-path="url(#p931565053a)" style="fill: none"/>
    <path clip-path="url(#p931565053a)" style="fill: none"/>
    <path clip-path="url(#p931565053a)" style="fill: none"/>
    <path clip-path="url(#p931565053a)" style="fill: none"/>
    <path clip-path="url(#p931565053a)" style="fill: none"/>
    <path clip-path="url(#p931565053a)" style="fill: none"/>
    <path clip-path="url(#p931565053a)" style="fill: none"/>
    <path clip-path="url(#p931565053a)" style="fill: none"/>
    <path clip-path="url(#p931565053a)" style="fill: none"/>
    <path clip-path="url(#p931565053a)" style="fill: none"/>
    <path clip-path="url(#p931565053a)" style="fill: none"/>
    <path clip-path="url(#p931565053a)" style="fill: none"/>
    <path clip-path="url(#p931565053a)" style="fill: none"/>
   </g>
   <g id="text_1">
    <g clip-path="url(#p931565053a)">
     <!-- 0 -->
     <g style="opacity: 0" transform="translate(538.385669 120.405176) rotate(-309.99212) scale(0.12 -0.12)">
      <defs>
       <path id="DejaVuSans-30" d="M 2034 4250 
Q 1547 4250 1301 3770 
Q 1056 3291 1056 2328 
Q 1056 1369 1301 889 
Q 1547 409 2034 409 
Q 2525 409 2770 889 
Q 3016 1369 3016 2328 
Q 3016 3291 2770 3770 
Q 2525 4250 2034 4250 
z
M 2034 4750 
Q 2819 4750 3233 4129 
Q 3647 3509 3647 2328 
Q 3647 1150 3233 529 
Q 2819 -91 2034 -91 
Q 1250 -91 836 529 
Q 422 1150 422 2328 
Q 422 3509 836 4129 
Q 1250 4750 2034 4750 
z
" transform="scale(0.015625)"/>
      </defs>
      <use xlink:href="#DejaVuSans-30"/>
     </g>
    </g>
   </g>
   <g id="text_2">
    <g clip-path="url(#p931565053a)">
     <!-- 1 -->
     <g style="opacity: 0" transform="translate(530.199498 105.048549) rotate(-321.618065) scale(0.12 -0.12)">
      <defs>
       <path id="DejaVuSans-31" d="M 794 531 
L 1825 531 
L 1825 4091 
L 703 3866 
L 703 4441 
L 1819 4666 
L 2450 4666 
L 2450 531 
L 3481 531 
L 3481 0 
L 794 0 
L 794 531 
z
" transform="scale(0.015625)"/>
      </defs>
      <use xlink:href="#DejaVuSans-31"/>
     </g>
    </g>
   </g>
   <g id="text_3">
    <g clip-path="url(#p931565053a)">
     <!-- 2 -->
     <g style="opacity: 0" transform="translate(557.855621 115.270166) rotate(-319.187054) scale(0.12 -0.12)">
      <defs>
       <path id="DejaVuSans-32" d="M 1228 531 
L 3431 531 
L 3431 0 
L 469 0 
L 469 531 
Q 828 903 1448 1529 
Q 2069 2156 2228 2338 
Q 2531 2678 2651 2914 
Q 2772 3150 2772 3378 
Q 2772 3750 2511 3984 
Q 2250 4219 1831 4219 
Q 1534 4219 1204 4116 
Q 875 4013 500 3803 
L 500 4441 
Q 881 4594 1212 4672 
Q 1544 4750 1819 4750 
Q 2544 4750 2975 4387 
Q 3406 4025 3406 3419 
Q 3406 3131 3298 2873 
Q 3191 2616 2906 2266 
Q 2828 2175 2409 1742 
Q 1991 1309 1228 531 
z
" transform="scale(0.015625)"/>
      </defs>
      <use xlink:href="#DejaVuSans-32"/>
     </g>
    </g>
   </g>
   <g id="text_4">
    <g clip-path="url(#p931565053a)">
     <!-- 3 -->
     <g style="opacity: 0" transform="translate(557.865544 98.252622) rotate(-315.468732) scale(0.12 -0.12)">
      <defs>
       <path id="DejaVuSans-33" d="M 2597 2516 
Q 3050 2419 3304 2112 
Q 3559 1806 3559 1356 
Q 3559 666 3084 287 
Q 2609 -91 1734 -91 
Q 1441 -91 1130 -33 
Q 819 25 488 141 
L 488 750 
Q 750 597 1062 519 
Q 1375 441 1716 441 
Q 2309 441 2620 675 
Q 2931 909 2931 1356 
Q 2931 1769 2642 2001 
Q 2353 2234 1838 2234 
L 1294 2234 
L 1294 2753 
L 1863 2753 
Q 2328 2753 2575 2939 
Q 2822 3125 2822 3475 
Q 2822 3834 2567 4026 
Q 2313 4219 1838 4219 
Q 1578 4219 1281 4162 
Q 984 4106 628 3988 
L 628 4550 
Q 988 4650 1302 4700 
Q 1616 4750 1894 4750 
Q 2613 4750 3031 4423 
Q 3450 4097 3450 3541 
Q 3450 3153 3228 2886 
Q 3006 2619 2597 2516 
z
" transform="scale(0.015625)"/>
      </defs>
      <use xlink:href="#DejaVuSans-33"/>
     </g>
    </g>
   </g>
   <g id="text_5">
    <g clip-path="url(#p931565053a)">
     <!-- 4 -->
     <g style="opacity: 0" transform="translate(540.20509 64.932405) rotate(-312.447763) scale(0.12 -0.12)">
      <defs>
       <path id="DejaVuSans-34" d="M 2419 4116 
L 825 1625 
L 2419 1625 
L 2419 4116 
z
M 2253 4666 
L 3047 4666 
L 3047 1625 
L 3713 1625 
L 3713 1100 
L 3047 1100 
L 3047 0 
L 2419 0 
L 2419 1100 
L 313 1100 
L 313 1709 
L 2253 4666 
z
" transform="scale(0.015625)"/>
      </defs>
      <use xlink:href="#DejaVuSans-34"/>
     </g>
    </g>
   </g>
   <g id="text_6">
    <g clip-path="url(#p931565053a)">
     <!-- 5 -->
     <g style="opacity: 0" transform="translate(545.822456 37.856023) rotate(-302.356144) scale(0.12 -0.12)">
      <defs>
       <path id="DejaVuSans-35" d="M 691 4666 
L 3169 4666 
L 3169 4134 
L 1269 4134 
L 1269 2991 
Q 1406 3038 1543 3061 
Q 1681 3084 1819 3084 
Q 2600 3084 3056 2656 
Q 3513 2228 3513 1497 
Q 3513 744 3044 326 
Q 2575 -91 1722 -91 
Q 1428 -91 1123 -41 
Q 819 9 494 109 
L 494 744 
Q 775 591 1075 516 
Q 1375 441 1709 441 
Q 2250 441 2565 725 
Q 2881 1009 2881 1497 
Q 2881 1984 2565 2268 
Q 2250 2553 1709 2553 
Q 1456 2553 1204 2497 
Q 953 2441 691 2322 
L 691 4666 
z
" transform="scale(0.015625)"/>
      </defs>
      <use xlink:href="#DejaVuSans-35"/>
     </g>
    </g>
   </g>
   <g id="text_7">
    <g clip-path="url(#p931565053a)">
     <!-- 6 -->
     <g style="opacity: 0" transform="translate(557.659372 39.430296) rotate(-320.440892) scale(0.12 -0.12)">
      <defs>
       <path id="DejaVuSans-36" d="M 2113 2584 
Q 1688 2584 1439 2293 
Q 1191 2003 1191 1497 
Q 1191 994 1439 701 
Q 1688 409 2113 409 
Q 2538 409 2786 701 
Q 3034 994 3034 1497 
Q 3034 2003 2786 2293 
Q 2538 2584 2113 2584 
z
M 3366 4563 
L 3366 3988 
Q 3128 4100 2886 4159 
Q 2644 4219 2406 4219 
Q 1781 4219 1451 3797 
Q 1122 3375 1075 2522 
Q 1259 2794 1537 2939 
Q 1816 3084 2150 3084 
Q 2853 3084 3261 2657 
Q 3669 2231 3669 1497 
Q 3669 778 3244 343 
Q 2819 -91 2113 -91 
Q 1303 -91 875 529 
Q 447 1150 447 2328 
Q 447 3434 972 4092 
Q 1497 4750 2381 4750 
Q 2619 4750 2861 4703 
Q 3103 4656 3366 4563 
z
" transform="scale(0.015625)"/>
      </defs>
      <use xlink:href="#DejaVuSans-36"/>
     </g>
    </g>
   </g>
   <g id="text_8">
    <g clip-path="url(#p931565053a)">
     <!-- 7 -->
     <g style="opacity: 0" transform="translate(533.248896 6.34142) rotate(-316.680086) scale(0.12 -0.12)">
      <defs>
       <path id="DejaVuSans-37" d="M 525 4666 
L 3525 4666 
L 3525 4397 
L 1831 0 
L 1172 0 
L 2766 4134 
L 525 4134 
L 525 4666 
z
" transform="scale(0.015625)"/>
      </defs>
      <use xlink:href="#DejaVuSans-37"/>
     </g>
    </g>
   </g>
   <g id="text_9">
    <g clip-path="url(#p931565053a)">
     <!-- 8 -->
     <g style="opacity: 0" transform="translate(546.906569 7.201796) rotate(-326.456113) scale(0.12 -0.12)">
      <defs>
       <path id="DejaVuSans-38" d="M 2034 2216 
Q 1584 2216 1326 1975 
Q 1069 1734 1069 1313 
Q 1069 891 1326 650 
Q 1584 409 2034 409 
Q 2484 409 2743 651 
Q 3003 894 3003 1313 
Q 3003 1734 2745 1975 
Q 2488 2216 2034 2216 
z
M 1403 2484 
Q 997 2584 770 2862 
Q 544 3141 544 3541 
Q 544 4100 942 4425 
Q 1341 4750 2034 4750 
Q 2731 4750 3128 4425 
Q 3525 4100 3525 3541 
Q 3525 3141 3298 2862 
Q 3072 2584 2669 2484 
Q 3125 2378 3379 2068 
Q 3634 1759 3634 1313 
Q 3634 634 3220 271 
Q 2806 -91 2034 -91 
Q 1263 -91 848 271 
Q 434 634 434 1313 
Q 434 1759 690 2068 
Q 947 2378 1403 2484 
z
M 1172 3481 
Q 1172 3119 1398 2916 
Q 1625 2713 2034 2713 
Q 2441 2713 2670 2916 
Q 2900 3119 2900 3481 
Q 2900 3844 2670 4047 
Q 2441 4250 2034 4250 
Q 1625 4250 1398 4047 
Q 1172 3844 1172 3481 
z
" transform="scale(0.015625)"/>
      </defs>
      <use xlink:href="#DejaVuSans-38"/>
     </g>
    </g>
   </g>
  </g>
 </g>
 <defs>
  <clipPath id="p931565053a">
   <rect x="0" y="0" width="576" height="815.655401"/>
  </clipPath>
 </defs>
</svg>
