<?xml version="1.0" encoding="utf-8" standalone="no"?>
<!DOCTYPE svg PUBLIC "-//W3C//DTD SVG 1.1//EN"
  "http://www.w3.org/Graphics/SVG/1.1/DTD/svg11.dtd">
<svg xmlns:xlink="http://www.w3.org/1999/xlink" width="576pt" height="820.842596pt" viewBox="0 0 576 820.842596" xmlns="http://www.w3.org/2000/svg" version="1.1">
 <metadata>
  <rdf:RDF xmlns:dc="http://purl.org/dc/elements/1.1/" xmlns:cc="http://creativecommons.org/ns#" xmlns:rdf="http://www.w3.org/1999/02/22-rdf-syntax-ns#">
   <cc:Work>
    <dc:type rdf:resource="http://purl.org/dc/dcmitype/StillImage"/>
    <dc:date>2025-07-25T22:45:11.034312</dc:date>
    <dc:format>image/svg+xml</dc:format>
    <dc:creator>
     <cc:Agent>
      <dc:title>Matplotlib v3.10.3, https://matplotlib.org/</dc:title>
     </cc:Agent>
    </dc:creator>
   </cc:Work>
  </rdf:RDF>
 </metadata>
 <defs>
  <style type="text/css">*{stroke-linejoin: round; stroke-linecap: butt}</style>
 </defs>
 <g id="figure_1">
  <g id="patch_1">
   <path d="M 0 820.842596 
L 576 820.842596 
L 576 0 
L 0 0 
L 0 820.842596 
z
" style="fill: none; opacity: 0"/>
  </g>
  <g id="axes_1">
   <g id="QuadContourSet_1">
    <path d="M 95.451429 817.679907 
L 96.621419 817.546039 
L 98.742857 816.932935 
L 102.034286 817.400553 
L 102.176121 817.546039 
L 105.325714 819.182595 
L 108.617143 818.965043 
L 111.908571 820.262495 
L 112.474847 820.842596 
L 113.218251 820.842596 
L 111.908571 819.500943 
L 108.617143 818.572536 
L 105.325714 818.735623 
L 103.036329 817.546039 
L 102.034286 816.5182 
L 98.742857 816.182025 
L 95.451429 816.980948 
L 92.16 814.527941 
L 91.646049 814.249482 
L 88.868571 811.959937 
L 85.577143 811.596485 
L 84.59959 810.952926 
L 82.285714 808.590127 
L 78.994286 808.45382 
L 77.963071 807.656369 
L 75.702857 805.35416 
L 72.411429 805.431656 
L 71.049982 804.359813 
L 69.12 802.400018 
L 65.828571 802.762229 
L 63.210224 801.063256 
L 62.537143 800.38301 
L 59.245714 798.509447 
L 57.765891 797.766699 
L 55.954286 795.950451 
L 52.662857 795.079656 
L 51.539512 794.470143 
L 49.371429 792.297005 
L 46.08 791.910807 
L 45.128173 791.173586 
L 42.788571 788.826336 
L 39.497143 788.88428 
L 38.169193 787.87703 
L 36.205714 785.90023 
L 32.914286 785.103469 
L 31.770143 784.580473 
L 29.622857 783.013728 
L 26.331429 781.660797 
L 25.907404 781.283916 
L 23.04 778.616449 
L 21.097728 777.98736 
L 19.748571 776.662705 
L 16.457143 775.442517 
L 15.016691 774.690803 
L 13.165714 772.849933 
L 9.874286 772.433404 
L 8.533652 771.394247 
L 6.582857 769.453402 
L 3.291429 769.611288 
L 0.656068 768.09769 
L -0 767.458583 
L 0 768.09769 
L 0 768.222025 
L 3.291429 770.289479 
L 6.582857 770.052363 
L 7.93162 771.394247 
L 9.874286 772.900053 
L 13.165714 773.494696 
L 14.368389 774.690803 
L 16.457143 775.78084 
L 19.748571 777.522908 
L 20.221614 777.98736 
L 23.04 778.900217 
L 25.602367 781.283916 
L 26.331429 781.931919 
L 29.622857 783.795758 
L 30.69834 784.580473 
L 32.914286 785.593399 
L 36.205714 786.49822 
L 37.575232 787.87703 
L 39.497143 789.3348 
L 42.788571 789.247259 
L 44.708622 791.173586 
L 46.08 792.235764 
L 49.371429 792.786213 
L 51.051441 794.470143 
L 52.662857 795.344477 
L 55.954286 796.585961 
L 57.132006 797.766699 
L 59.245714 798.827604 
L 62.365832 801.063256 
L 62.537143 801.184976 
L 65.828571 803.473318 
L 69.12 802.958125 
L 70.500365 804.359813 
L 72.411429 805.86436 
L 75.702857 805.763677 
L 77.561024 807.656369 
L 78.994286 808.764728 
L 82.285714 808.966425 
L 84.231083 810.952926 
L 85.577143 811.839087 
L 88.868571 812.351884 
L 91.170573 814.249482 
L 92.16 814.785554 
L 95.318693 817.546039 
z
" clip-path="url(#p0f38aeeaa6)" style="fill: #f5f9fe; fill-opacity: 0.9"/>
    <path d="M 95.451429 817.977196 
L 98.742857 817.764782 
L 102.034286 818.753768 
L 105.325714 819.629566 
L 108.617143 819.357549 
L 111.713574 820.842596 
L 111.908571 820.842596 
L 112.474847 820.842596 
L 111.908571 820.262495 
L 108.617143 818.965043 
L 105.325714 819.182595 
L 102.176121 817.546039 
L 102.034286 817.400553 
L 98.742857 816.932935 
L 96.621419 817.546039 
L 95.451429 817.679907 
L 95.318693 817.546039 
L 92.16 814.785554 
L 91.170573 814.249482 
L 88.868571 812.351884 
L 85.577143 811.839087 
L 84.231083 810.952926 
L 82.285714 808.966425 
L 78.994286 808.764728 
L 77.561024 807.656369 
L 75.702857 805.763677 
L 72.411429 805.86436 
L 70.500365 804.359813 
L 69.12 802.958125 
L 65.828571 803.473318 
L 62.537143 801.184976 
L 62.365832 801.063256 
L 59.245714 798.827604 
L 57.132006 797.766699 
L 55.954286 796.585961 
L 52.662857 795.344477 
L 51.051441 794.470143 
L 49.371429 792.786213 
L 46.08 792.235764 
L 44.708622 791.173586 
L 42.788571 789.247259 
L 39.497143 789.3348 
L 37.575232 787.87703 
L 36.205714 786.49822 
L 32.914286 785.593399 
L 30.69834 784.580473 
L 29.622857 783.795758 
L 26.331429 781.931919 
L 25.602367 781.283916 
L 23.04 778.900217 
L 20.221614 777.98736 
L 19.748571 777.522908 
L 16.457143 775.78084 
L 14.368389 774.690803 
L 13.165714 773.494696 
L 9.874286 772.900053 
L 7.93162 771.394247 
L 6.582857 770.052363 
L 3.291429 770.289479 
L 0 768.222025 
L 0 768.501811 
L 3.291429 770.96767 
L 6.582857 770.651324 
L 7.329588 771.394247 
L 9.874286 773.366703 
L 13.165714 774.139458 
L 13.720087 774.690803 
L 16.457143 776.119163 
L 19.495433 777.98736 
L 19.748571 778.187466 
L 23.04 779.183984 
L 25.29733 781.283916 
L 26.331429 782.203042 
L 29.622857 784.577788 
L 29.626537 784.580473 
L 32.914286 786.083328 
L 36.205714 787.096211 
L 36.981271 787.87703 
L 39.497143 789.785319 
L 42.788571 789.668182 
L 44.289071 791.173586 
L 46.08 792.56072 
L 49.371429 793.275422 
L 50.56337 794.470143 
L 52.662857 795.609298 
L 55.954286 797.221471 
L 56.49812 797.766699 
L 59.245714 799.145762 
L 61.921806 801.063256 
L 62.537143 801.500468 
L 65.828571 804.184408 
L 69.12 803.516232 
L 69.950748 804.359813 
L 72.411429 806.297064 
L 75.702857 806.173194 
L 77.158977 807.656369 
L 78.994286 809.075636 
L 82.285714 809.342724 
L 83.862576 810.952926 
L 85.577143 812.081689 
L 88.868571 812.74383 
L 90.695098 814.249482 
L 92.16 815.043167 
L 95.023919 817.546039 
z
" clip-path="url(#p0f38aeeaa6)" style="fill: #eff6fc; fill-opacity: 0.9"/>
    <path d="M 95.451429 818.274485 
L 98.742857 818.956725 
L 102.034286 820.19995 
L 105.325714 820.076538 
L 108.617143 819.750056 
L 110.895168 820.842596 
L 111.713574 820.842596 
L 108.617143 819.357549 
L 105.325714 819.629566 
L 102.034286 818.753768 
L 98.742857 817.764782 
L 95.451429 817.977196 
L 95.023919 817.546039 
L 92.16 815.043167 
L 90.695098 814.249482 
L 88.868571 812.74383 
L 85.577143 812.081689 
L 83.862576 810.952926 
L 82.285714 809.342724 
L 78.994286 809.075636 
L 77.158977 807.656369 
L 75.702857 806.173194 
L 72.411429 806.297064 
L 69.950748 804.359813 
L 69.12 803.516232 
L 65.828571 804.184408 
L 62.537143 801.500468 
L 61.921806 801.063256 
L 59.245714 799.145762 
L 56.49812 797.766699 
L 55.954286 797.221471 
L 52.662857 795.609298 
L 50.56337 794.470143 
L 49.371429 793.275422 
L 46.08 792.56072 
L 44.289071 791.173586 
L 42.788571 789.668182 
L 39.497143 789.785319 
L 36.981271 787.87703 
L 36.205714 787.096211 
L 32.914286 786.083328 
L 29.626537 784.580473 
L 29.622857 784.577788 
L 26.331429 782.203042 
L 25.29733 781.283916 
L 23.04 779.183984 
L 19.748571 778.187466 
L 19.495433 777.98736 
L 16.457143 776.119163 
L 13.720087 774.690803 
L 13.165714 774.139458 
L 9.874286 773.366703 
L 7.329588 771.394247 
L 6.582857 770.651324 
L 3.291429 770.96767 
L 0 768.501811 
L 0 768.781597 
L 3.165654 771.394247 
L 3.291429 771.517801 
L 5.288857 771.394247 
L 6.582857 771.250285 
L 6.727557 771.394247 
L 9.874286 773.833352 
L 12.92515 774.690803 
L 13.165714 774.824261 
L 16.457143 776.457486 
L 18.945211 777.98736 
L 19.748571 778.622417 
L 23.04 779.467752 
L 24.992293 781.283916 
L 26.331429 782.474164 
L 29.248645 784.580473 
L 29.622857 784.947399 
L 32.914286 786.573258 
L 36.205714 787.694202 
L 36.38731 787.87703 
L 39.497143 790.235839 
L 42.788571 790.089105 
L 43.869519 791.173586 
L 46.08 792.885676 
L 49.371429 793.764631 
L 50.075299 794.470143 
L 52.662857 795.874119 
L 55.890133 797.766699 
L 55.954286 797.818713 
L 59.245714 799.46392 
L 61.477779 801.063256 
L 62.537143 801.815961 
L 65.547333 804.359813 
L 65.828571 804.630948 
L 67.788932 804.359813 
L 69.12 804.074339 
L 69.401131 804.359813 
L 72.411429 806.729768 
L 75.702857 806.582711 
L 76.75693 807.656369 
L 78.994286 809.386543 
L 82.285714 809.719022 
L 83.494069 810.952926 
L 85.577143 812.324291 
L 88.868571 813.135777 
L 90.219623 814.249482 
L 92.16 815.300779 
L 94.729145 817.546039 
z
" clip-path="url(#p0f38aeeaa6)" style="fill: #eaf3fb; fill-opacity: 0.9"/>
    <path d="M 95.451429 818.571773 
L 98.742857 820.148669 
L 100.42698 820.842596 
L 102.034286 820.842596 
L 103.474843 820.842596 
L 105.325714 820.523509 
L 108.617143 820.142563 
L 110.076763 820.842596 
L 110.895168 820.842596 
L 108.617143 819.750056 
L 105.325714 820.076538 
L 102.034286 820.19995 
L 98.742857 818.956725 
L 95.451429 818.274485 
L 94.729145 817.546039 
L 92.16 815.300779 
L 90.219623 814.249482 
L 88.868571 813.135777 
L 85.577143 812.324291 
L 83.494069 810.952926 
L 82.285714 809.719022 
L 78.994286 809.386543 
L 76.75693 807.656369 
L 75.702857 806.582711 
L 72.411429 806.729768 
L 69.401131 804.359813 
L 69.12 804.074339 
L 67.788932 804.359813 
L 65.828571 804.630948 
L 65.547333 804.359813 
L 62.537143 801.815961 
L 61.477779 801.063256 
L 59.245714 799.46392 
L 55.954286 797.818713 
L 55.890133 797.766699 
L 52.662857 795.874119 
L 50.075299 794.470143 
L 49.371429 793.764631 
L 46.08 792.885676 
L 43.869519 791.173586 
L 42.788571 790.089105 
L 39.497143 790.235839 
L 36.38731 787.87703 
L 36.205714 787.694202 
L 32.914286 786.573258 
L 29.622857 784.947399 
L 29.248645 784.580473 
L 26.331429 782.474164 
L 24.992293 781.283916 
L 23.04 779.467752 
L 19.748571 778.622417 
L 18.945211 777.98736 
L 16.457143 776.457486 
L 13.165714 774.824261 
L 12.92515 774.690803 
L 9.874286 773.833352 
L 6.727557 771.394247 
L 6.582857 771.250285 
L 5.288857 771.394247 
L 3.291429 771.517801 
L 3.165654 771.394247 
L 0 768.781597 
L 0 769.061383 
L 2.826648 771.394247 
L 3.291429 771.850823 
L 6.582857 772.989053 
L 9.874286 774.300001 
L 11.264783 774.690803 
L 13.165714 775.745386 
L 16.457143 776.795808 
L 18.394989 777.98736 
L 19.748571 779.057368 
L 23.04 779.75152 
L 24.687256 781.283916 
L 26.331429 782.745287 
L 28.873143 784.580473 
L 29.622857 785.31559 
L 32.914286 787.063187 
L 35.235555 787.87703 
L 36.205714 788.257644 
L 39.497143 790.686358 
L 42.788571 790.510027 
L 43.449968 791.173586 
L 46.08 793.210633 
L 49.371429 794.25384 
L 49.587228 794.470143 
L 52.662857 796.13894 
L 55.438554 797.766699 
L 55.954286 798.184841 
L 59.245714 799.782077 
L 61.033752 801.063256 
L 62.537143 802.131453 
L 65.174005 804.359813 
L 65.828571 804.990863 
L 69.12 804.979761 
L 72.411429 807.162473 
L 75.702857 806.992228 
L 76.354883 807.656369 
L 78.994286 809.697451 
L 82.285714 810.09532 
L 83.125562 810.952926 
L 85.577143 812.566893 
L 88.868571 813.527723 
L 89.744147 814.249482 
L 92.16 815.558392 
L 94.434371 817.546039 
z
" clip-path="url(#p0f38aeeaa6)" style="fill: #e5eff9; fill-opacity: 0.9"/>
    <path d="M 95.451429 818.869062 
L 98.547963 820.842596 
L 98.742857 820.842596 
L 100.42698 820.842596 
L 98.742857 820.148669 
L 95.451429 818.571773 
L 94.434371 817.546039 
L 92.16 815.558392 
L 89.744147 814.249482 
L 88.868571 813.527723 
L 85.577143 812.566893 
L 83.125562 810.952926 
L 82.285714 810.09532 
L 78.994286 809.697451 
L 76.354883 807.656369 
L 75.702857 806.992228 
L 72.411429 807.162473 
L 69.12 804.979761 
L 65.828571 804.990863 
L 65.174005 804.359813 
L 62.537143 802.131453 
L 61.033752 801.063256 
L 59.245714 799.782077 
L 55.954286 798.184841 
L 55.438554 797.766699 
L 52.662857 796.13894 
L 49.587228 794.470143 
L 49.371429 794.25384 
L 46.08 793.210633 
L 43.449968 791.173586 
L 42.788571 790.510027 
L 39.497143 790.686358 
L 36.205714 788.257644 
L 35.235555 787.87703 
L 32.914286 787.063187 
L 29.622857 785.31559 
L 28.873143 784.580473 
L 26.331429 782.745287 
L 24.687256 781.283916 
L 23.04 779.75152 
L 19.748571 779.057368 
L 18.394989 777.98736 
L 16.457143 776.795808 
L 13.165714 775.745386 
L 11.264783 774.690803 
L 9.874286 774.300001 
L 6.582857 772.989053 
L 3.291429 771.850823 
L 2.826648 771.394247 
L 0 769.061383 
L 0 769.341169 
L 2.487641 771.394247 
L 3.291429 772.183846 
L 6.502073 774.690803 
L 6.582857 774.766999 
L 9.874286 774.848268 
L 13.165714 776.666511 
L 16.457143 777.134131 
L 17.844767 777.98736 
L 19.748571 779.49232 
L 23.04 780.035287 
L 24.382219 781.283916 
L 26.331429 783.016409 
L 28.497641 784.580473 
L 29.622857 785.683781 
L 32.914286 787.553117 
L 33.838161 787.87703 
L 36.205714 788.805872 
L 39.497143 791.136878 
L 42.788571 790.93095 
L 43.030417 791.173586 
L 46.08 793.535589 
L 48.836705 794.470143 
L 49.371429 794.811272 
L 52.662857 796.403761 
L 54.986974 797.766699 
L 55.954286 798.550969 
L 59.245714 800.100235 
L 60.589725 801.063256 
L 62.537143 802.446945 
L 64.800677 804.359813 
L 65.828571 805.350779 
L 69.12 806.248858 
L 72.411429 807.595177 
L 75.702857 807.401745 
L 75.952836 807.656369 
L 78.994286 810.008359 
L 82.285714 810.471619 
L 82.757056 810.952926 
L 85.577143 812.809495 
L 88.868571 813.91967 
L 89.268672 814.249482 
L 92.16 815.816005 
L 94.139597 817.546039 
z
M 105.325714 820.842596 
L 106.206153 820.842596 
L 108.617143 820.535069 
L 109.258358 820.842596 
L 110.076763 820.842596 
L 108.617143 820.142563 
L 105.325714 820.523509 
L 103.474843 820.842596 
z
" clip-path="url(#p0f38aeeaa6)" style="fill: #dfecf7; fill-opacity: 0.9"/>
    <path d="M 95.451429 819.166351 
L 98.081508 820.842596 
L 98.547963 820.842596 
L 95.451429 818.869062 
L 94.139597 817.546039 
L 92.16 815.816005 
L 89.268672 814.249482 
L 88.868571 813.91967 
L 85.577143 812.809495 
L 82.757056 810.952926 
L 82.285714 810.471619 
L 78.994286 810.008359 
L 75.952836 807.656369 
L 75.702857 807.401745 
L 72.411429 807.595177 
L 69.12 806.248858 
L 65.828571 805.350779 
L 64.800677 804.359813 
L 62.537143 802.446945 
L 60.589725 801.063256 
L 59.245714 800.100235 
L 55.954286 798.550969 
L 54.986974 797.766699 
L 52.662857 796.403761 
L 49.371429 794.811272 
L 48.836705 794.470143 
L 46.08 793.535589 
L 43.030417 791.173586 
L 42.788571 790.93095 
L 39.497143 791.136878 
L 36.205714 788.805872 
L 33.838161 787.87703 
L 32.914286 787.553117 
L 29.622857 785.683781 
L 28.497641 784.580473 
L 26.331429 783.016409 
L 24.382219 781.283916 
L 23.04 780.035287 
L 19.748571 779.49232 
L 17.844767 777.98736 
L 16.457143 777.134131 
L 13.165714 776.666511 
L 9.874286 774.848268 
L 6.582857 774.766999 
L 6.502073 774.690803 
L 3.291429 772.183846 
L 2.487641 771.394247 
L 0 769.341169 
L 0 769.620954 
L 2.148634 771.394247 
L 3.291429 772.516868 
L 6.075573 774.690803 
L 6.582857 775.169273 
L 9.874286 775.817071 
L 13.165714 777.587636 
L 16.457143 777.472454 
L 17.294545 777.98736 
L 19.748571 779.927271 
L 23.04 780.319055 
L 24.077182 781.283916 
L 26.331429 783.287532 
L 28.122139 784.580473 
L 29.622857 786.051971 
L 32.703675 787.87703 
L 32.914286 788.080737 
L 36.205714 789.3541 
L 38.783672 791.173586 
L 39.497143 791.648692 
L 42.788571 792.31284 
L 46.08 793.860545 
L 47.878163 794.470143 
L 49.371429 795.422777 
L 52.662857 796.668582 
L 54.535394 797.766699 
L 55.954286 798.917098 
L 59.245714 800.418392 
L 60.145698 801.063256 
L 62.537143 802.762437 
L 64.427349 804.359813 
L 65.828571 805.710695 
L 69.12 807.517954 
L 69.490985 807.656369 
L 72.411429 808.117597 
L 75.702857 808.739477 
L 78.994286 810.319267 
L 82.285714 810.847917 
L 82.388549 810.952926 
L 85.577143 813.052097 
L 88.766144 814.249482 
L 88.868571 814.338721 
L 92.16 816.073617 
L 93.844823 817.546039 
z
M 108.617143 820.842596 
L 109.258358 820.842596 
L 108.617143 820.535069 
L 106.206153 820.842596 
z
" clip-path="url(#p0f38aeeaa6)" style="fill: #dae8f6; fill-opacity: 0.9"/>
    <path d="M 95.451429 819.46364 
L 97.615053 820.842596 
L 98.081508 820.842596 
L 95.451429 819.166351 
L 93.844823 817.546039 
L 92.16 816.073617 
L 88.868571 814.338721 
L 88.766144 814.249482 
L 85.577143 813.052097 
L 82.388549 810.952926 
L 82.285714 810.847917 
L 78.994286 810.319267 
L 75.702857 808.739477 
L 72.411429 808.117597 
L 69.490985 807.656369 
L 69.12 807.517954 
L 65.828571 805.710695 
L 64.427349 804.359813 
L 62.537143 802.762437 
L 60.145698 801.063256 
L 59.245714 800.418392 
L 55.954286 798.917098 
L 54.535394 797.766699 
L 52.662857 796.668582 
L 49.371429 795.422777 
L 47.878163 794.470143 
L 46.08 793.860545 
L 42.788571 792.31284 
L 39.497143 791.648692 
L 38.783672 791.173586 
L 36.205714 789.3541 
L 32.914286 788.080737 
L 32.703675 787.87703 
L 29.622857 786.051971 
L 28.122139 784.580473 
L 26.331429 783.287532 
L 24.077182 781.283916 
L 23.04 780.319055 
L 19.748571 779.927271 
L 17.294545 777.98736 
L 16.457143 777.472454 
L 13.165714 777.587636 
L 9.874286 775.817071 
L 6.582857 775.169273 
L 6.075573 774.690803 
L 3.291429 772.516868 
L 2.148634 771.394247 
L 0 769.620954 
L 0 769.90074 
L 1.809628 771.394247 
L 3.291429 772.84989 
L 5.649074 774.690803 
L 6.582857 775.571546 
L 9.874286 776.785874 
L 12.134222 777.98736 
L 13.165714 778.333608 
L 14.878153 777.98736 
L 16.457143 777.810777 
L 16.744323 777.98736 
L 19.748571 780.362222 
L 23.04 780.602823 
L 23.772145 781.283916 
L 26.331429 783.558654 
L 27.746637 784.580473 
L 29.622857 786.420162 
L 32.082145 787.87703 
L 32.914286 788.681896 
L 36.205714 789.902328 
L 38.006909 791.173586 
L 39.497143 792.165944 
L 42.648543 794.470143 
L 42.788571 794.605374 
L 43.395254 794.470143 
L 46.08 794.185502 
L 46.919622 794.470143 
L 49.371429 796.034282 
L 52.662857 796.933403 
L 54.083815 797.766699 
L 55.954286 799.283226 
L 59.245714 800.73655 
L 59.701671 801.063256 
L 62.537143 803.077929 
L 64.054021 804.359813 
L 65.828571 806.070611 
L 68.566379 807.656369 
L 69.12 808.167251 
L 72.411429 808.654795 
L 75.536981 810.952926 
L 75.702857 811.116032 
L 76.293531 810.952926 
L 78.994286 810.630174 
L 80.936719 810.952926 
L 82.285714 811.654081 
L 85.577143 813.294699 
L 88.120022 814.249482 
L 88.868571 814.901648 
L 92.16 816.33123 
L 93.550049 817.546039 
z
" clip-path="url(#p0f38aeeaa6)" style="fill: #d6e5f4; fill-opacity: 0.9"/>
    <path d="M 95.451429 819.760928 
L 97.148598 820.842596 
L 97.615053 820.842596 
L 95.451429 819.46364 
L 93.550049 817.546039 
L 92.16 816.33123 
L 88.868571 814.901648 
L 88.120022 814.249482 
L 85.577143 813.294699 
L 82.285714 811.654081 
L 80.936719 810.952926 
L 78.994286 810.630174 
L 76.293531 810.952926 
L 75.702857 811.116032 
L 75.536981 810.952926 
L 72.411429 808.654795 
L 69.12 808.167251 
L 68.566379 807.656369 
L 65.828571 806.070611 
L 64.054021 804.359813 
L 62.537143 803.077929 
L 59.701671 801.063256 
L 59.245714 800.73655 
L 55.954286 799.283226 
L 54.083815 797.766699 
L 52.662857 796.933403 
L 49.371429 796.034282 
L 46.919622 794.470143 
L 46.08 794.185502 
L 43.395254 794.470143 
L 42.788571 794.605374 
L 42.648543 794.470143 
L 39.497143 792.165944 
L 38.006909 791.173586 
L 36.205714 789.902328 
L 32.914286 788.681896 
L 32.082145 787.87703 
L 29.622857 786.420162 
L 27.746637 784.580473 
L 26.331429 783.558654 
L 23.772145 781.283916 
L 23.04 780.602823 
L 19.748571 780.362222 
L 16.744323 777.98736 
L 16.457143 777.810777 
L 14.878153 777.98736 
L 13.165714 778.333608 
L 12.134222 777.98736 
L 9.874286 776.785874 
L 6.582857 775.571546 
L 5.649074 774.690803 
L 3.291429 772.84989 
L 1.809628 771.394247 
L 0 769.90074 
L 0 770.180526 
L 1.470621 771.394247 
L 3.291429 773.182913 
L 5.222574 774.690803 
L 6.582857 775.97382 
L 9.874286 777.754677 
L 10.311951 777.98736 
L 13.165714 778.945303 
L 16.457143 781.08658 
L 19.748571 780.797173 
L 23.04 780.88659 
L 23.467107 781.283916 
L 26.331429 783.829777 
L 27.371135 784.580473 
L 29.622857 786.788353 
L 31.460615 787.87703 
L 32.914286 789.283054 
L 36.205714 790.450556 
L 37.230147 791.173586 
L 39.497143 792.683196 
L 41.941109 794.470143 
L 42.788571 795.288574 
L 46.08 795.102066 
L 49.371429 796.645787 
L 52.662857 797.198224 
L 53.632235 797.766699 
L 55.954286 799.649355 
L 59.245714 801.054708 
L 59.257645 801.063256 
L 62.537143 803.393421 
L 63.680693 804.359813 
L 65.828571 806.430526 
L 67.944986 807.656369 
L 69.12 808.740673 
L 72.411429 809.191993 
L 74.806369 810.952926 
L 75.702857 811.834441 
L 78.895179 810.952926 
L 78.994286 810.941082 
L 79.065565 810.952926 
L 82.285714 812.626634 
L 85.577143 813.5373 
L 87.4739 814.249482 
L 88.868571 815.464574 
L 92.16 816.588843 
L 93.255275 817.546039 
z
" clip-path="url(#p0f38aeeaa6)" style="fill: #d0e2f2; fill-opacity: 0.9"/>
    <path d="M 95.451429 820.058217 
L 96.682143 820.842596 
L 97.148598 820.842596 
L 95.451429 819.760928 
L 93.255275 817.546039 
L 92.16 816.588843 
L 88.868571 815.464574 
L 87.4739 814.249482 
L 85.577143 813.5373 
L 82.285714 812.626634 
L 79.065565 810.952926 
L 78.994286 810.941082 
L 78.895179 810.952926 
L 75.702857 811.834441 
L 74.806369 810.952926 
L 72.411429 809.191993 
L 69.12 808.740673 
L 67.944986 807.656369 
L 65.828571 806.430526 
L 63.680693 804.359813 
L 62.537143 803.393421 
L 59.257645 801.063256 
L 59.245714 801.054708 
L 55.954286 799.649355 
L 53.632235 797.766699 
L 52.662857 797.198224 
L 49.371429 796.645787 
L 46.08 795.102066 
L 42.788571 795.288574 
L 41.941109 794.470143 
L 39.497143 792.683196 
L 37.230147 791.173586 
L 36.205714 790.450556 
L 32.914286 789.283054 
L 31.460615 787.87703 
L 29.622857 786.788353 
L 27.371135 784.580473 
L 26.331429 783.829777 
L 23.467107 781.283916 
L 23.04 780.88659 
L 19.748571 780.797173 
L 16.457143 781.08658 
L 13.165714 778.945303 
L 10.311951 777.98736 
L 9.874286 777.754677 
L 6.582857 775.97382 
L 5.222574 774.690803 
L 3.291429 773.182913 
L 1.470621 771.394247 
L 0 770.180526 
L 0 770.460312 
L 1.131615 771.394247 
L 3.291429 773.515935 
L 4.796075 774.690803 
L 6.582857 776.376094 
L 9.349461 777.98736 
L 9.874286 778.465128 
L 13.165714 779.556997 
L 15.615734 781.283916 
L 16.457143 781.934264 
L 19.38855 781.283916 
L 19.748571 781.232124 
L 23.04 781.170358 
L 23.16207 781.283916 
L 26.331429 784.100899 
L 26.995634 784.580473 
L 29.622857 787.156543 
L 30.839086 787.87703 
L 32.914286 789.884213 
L 36.205714 790.998784 
L 36.453385 791.173586 
L 39.497143 793.200448 
L 41.233676 794.470143 
L 42.788571 795.971774 
L 45.574359 797.766699 
L 46.08 798.246461 
L 47.278226 797.766699 
L 49.371429 797.257291 
L 52.662857 797.463046 
L 53.180655 797.766699 
L 55.954286 800.015483 
L 58.410491 801.063256 
L 59.245714 801.836426 
L 62.537143 803.708913 
L 63.307365 804.359813 
L 65.828571 806.790442 
L 67.323592 807.656369 
L 69.12 809.314096 
L 72.411429 809.729191 
L 74.075758 810.952926 
L 75.702857 812.55285 
L 78.333101 814.249482 
L 78.994286 814.897734 
L 80.542243 814.249482 
L 82.285714 813.599186 
L 85.577143 813.779902 
L 86.827777 814.249482 
L 88.868571 816.027501 
L 92.16 816.846455 
L 92.960501 817.546039 
z
" clip-path="url(#p0f38aeeaa6)" style="fill: #cbdef1; fill-opacity: 0.9"/>
    <path d="M 95.451429 820.355506 
L 96.215688 820.842596 
L 96.682143 820.842596 
L 95.451429 820.058217 
L 92.960501 817.546039 
L 92.16 816.846455 
L 88.868571 816.027501 
L 86.827777 814.249482 
L 85.577143 813.779902 
L 82.285714 813.599186 
L 80.542243 814.249482 
L 78.994286 814.897734 
L 78.333101 814.249482 
L 75.702857 812.55285 
L 74.075758 810.952926 
L 72.411429 809.729191 
L 69.12 809.314096 
L 67.323592 807.656369 
L 65.828571 806.790442 
L 63.307365 804.359813 
L 62.537143 803.708913 
L 59.245714 801.836426 
L 58.410491 801.063256 
L 55.954286 800.015483 
L 53.180655 797.766699 
L 52.662857 797.463046 
L 49.371429 797.257291 
L 47.278226 797.766699 
L 46.08 798.246461 
L 45.574359 797.766699 
L 42.788571 795.971774 
L 41.233676 794.470143 
L 39.497143 793.200448 
L 36.453385 791.173586 
L 36.205714 790.998784 
L 32.914286 789.884213 
L 30.839086 787.87703 
L 29.622857 787.156543 
L 26.995634 784.580473 
L 26.331429 784.100899 
L 23.16207 781.283916 
L 23.04 781.170358 
L 19.748571 781.232124 
L 19.38855 781.283916 
L 16.457143 781.934264 
L 15.615734 781.283916 
L 13.165714 779.556997 
L 9.874286 778.465128 
L 9.349461 777.98736 
L 6.582857 776.376094 
L 4.796075 774.690803 
L 3.291429 773.515935 
L 1.131615 771.394247 
L 0 770.460312 
L 0 770.740098 
L 0.792608 771.394247 
L 3.291429 773.848957 
L 4.369575 774.690803 
L 6.582857 776.778368 
L 8.658742 777.98736 
L 9.874286 779.093915 
L 13.165714 780.168691 
L 14.74791 781.283916 
L 16.457143 782.60503 
L 19.748571 784.188417 
L 23.04 782.822369 
L 26.331429 784.372021 
L 26.620132 784.580473 
L 29.622857 787.524734 
L 30.217556 787.87703 
L 32.914286 790.485372 
L 34.977893 791.173586 
L 36.205714 792.293663 
L 39.497143 793.7177 
L 40.526242 794.470143 
L 42.788571 796.654973 
L 44.514009 797.766699 
L 46.08 799.252539 
L 49.371429 799.105292 
L 51.12379 797.766699 
L 52.662857 797.727867 
L 52.729076 797.766699 
L 55.954286 800.381612 
L 57.552207 801.063256 
L 59.245714 802.630943 
L 62.537143 804.024405 
L 62.934037 804.359813 
L 65.828571 807.150358 
L 66.702199 807.656369 
L 69.12 809.887518 
L 72.411429 810.266389 
L 73.345147 810.952926 
L 75.702857 813.271259 
L 77.219371 814.249482 
L 78.994286 815.989679 
L 82.285714 817.193287 
L 83.146535 814.249482 
L 85.577143 814.022504 
L 86.181655 814.249482 
L 88.868571 816.590427 
L 92.16 817.104068 
L 92.665727 817.546039 
z
" clip-path="url(#p0f38aeeaa6)" style="fill: #c6dbef; fill-opacity: 0.9"/>
    <path d="M 82.285714 819.566658 
L 84.793853 817.546039 
L 85.577143 814.832237 
L 88.868571 817.153354 
L 92.16 817.361681 
L 92.370953 817.546039 
L 95.451429 820.652794 
L 95.749233 820.842596 
L 96.215688 820.842596 
L 95.451429 820.355506 
L 92.665727 817.546039 
L 92.16 817.104068 
L 88.868571 816.590427 
L 86.181655 814.249482 
L 85.577143 814.022504 
L 83.146535 814.249482 
L 82.285714 817.193287 
L 78.994286 815.989679 
L 77.219371 814.249482 
L 75.702857 813.271259 
L 73.345147 810.952926 
L 72.411429 810.266389 
L 69.12 809.887518 
L 66.702199 807.656369 
L 65.828571 807.150358 
L 62.934037 804.359813 
L 62.537143 804.024405 
L 59.245714 802.630943 
L 57.552207 801.063256 
L 55.954286 800.381612 
L 52.729076 797.766699 
L 52.662857 797.727867 
L 51.12379 797.766699 
L 49.371429 799.105292 
L 46.08 799.252539 
L 44.514009 797.766699 
L 42.788571 796.654973 
L 40.526242 794.470143 
L 39.497143 793.7177 
L 36.205714 792.293663 
L 34.977893 791.173586 
L 32.914286 790.485372 
L 30.217556 787.87703 
L 29.622857 787.524734 
L 26.620132 784.580473 
L 26.331429 784.372021 
L 23.04 782.822369 
L 19.748571 784.188417 
L 16.457143 782.60503 
L 14.74791 781.283916 
L 13.165714 780.168691 
L 9.874286 779.093915 
L 8.658742 777.98736 
L 6.582857 776.778368 
L 4.369575 774.690803 
L 3.291429 773.848957 
L 0.792608 771.394247 
L 0 770.740098 
L 0 771.019884 
L 0.453602 771.394247 
L 3.291429 774.18198 
L 3.943075 774.690803 
L 6.582857 777.180642 
L 7.968022 777.98736 
L 9.874286 779.722703 
L 13.165714 780.780386 
L 13.880085 781.283916 
L 16.457143 783.275796 
L 18.722422 784.580473 
L 19.748571 785.565815 
L 23.04 785.510027 
L 25.849102 787.87703 
L 26.331429 788.179096 
L 29.622857 789.598567 
L 32.914286 791.08653 
L 33.175323 791.173586 
L 36.205714 793.938055 
L 39.497143 794.234952 
L 39.818808 794.470143 
L 42.788571 797.338173 
L 43.45366 797.766699 
L 46.08 800.258618 
L 47.772253 801.063256 
L 49.371429 802.49903 
L 51.271919 801.063256 
L 52.662857 799.766796 
L 55.954286 800.74774 
L 56.693923 801.063256 
L 59.245714 803.42546 
L 62.537143 804.339897 
L 62.560709 804.359813 
L 65.828571 807.510273 
L 66.080806 807.656369 
L 69.12 810.460941 
L 72.411429 810.803587 
L 72.614536 810.952926 
L 75.702857 813.989668 
L 76.10564 814.249482 
L 78.994286 817.081625 
L 80.004585 817.546039 
z
" clip-path="url(#p0f38aeeaa6)" style="fill: #bed8ec; fill-opacity: 0.9"/>
    <path d="M 49.371429 820.842596 
L 52.662857 820.842596 
L 55.954286 820.842596 
L 59.245714 820.842596 
L 62.537143 820.842596 
L 65.828571 820.842596 
L 69.12 820.842596 
L 72.411429 820.842596 
L 75.702857 820.842596 
L 78.994286 820.842596 
L 82.285714 820.842596 
L 85.577143 820.842596 
L 88.868571 820.842596 
L 92.16 820.842596 
L 95.451429 820.842596 
L 95.749233 820.842596 
L 95.451429 820.652794 
L 92.370953 817.546039 
L 92.16 817.361681 
L 88.868571 817.153354 
L 85.577143 814.832237 
L 84.793853 817.546039 
L 82.285714 819.566658 
L 80.004585 817.546039 
L 78.994286 817.081625 
L 76.10564 814.249482 
L 75.702857 813.989668 
L 72.614536 810.952926 
L 72.411429 810.803587 
L 69.12 810.460941 
L 66.080806 807.656369 
L 65.828571 807.510273 
L 62.560709 804.359813 
L 62.537143 804.339897 
L 59.245714 803.42546 
L 56.693923 801.063256 
L 55.954286 800.74774 
L 52.662857 799.766796 
L 51.271919 801.063256 
L 49.371429 802.49903 
L 47.772253 801.063256 
L 46.08 800.258618 
L 43.45366 797.766699 
L 42.788571 797.338173 
L 39.818808 794.470143 
L 39.497143 794.234952 
L 36.205714 793.938055 
L 33.175323 791.173586 
L 32.914286 791.08653 
L 29.622857 789.598567 
L 26.331429 788.179096 
L 25.849102 787.87703 
L 23.04 785.510027 
L 19.748571 785.565815 
L 18.722422 784.580473 
L 16.457143 783.275796 
L 13.880085 781.283916 
L 13.165714 780.780386 
L 9.874286 779.722703 
L 7.968022 777.98736 
L 6.582857 777.180642 
L 3.943075 774.690803 
L 3.291429 774.18198 
L 0.453602 771.394247 
L 0 771.019884 
L 0 771.29967 
L 0.114595 771.394247 
L 3.291429 774.515002 
L 3.516576 774.690803 
L 6.582857 777.582916 
L 7.277303 777.98736 
L 9.874286 780.35149 
L 12.815047 781.283916 
L 13.165714 781.618125 
L 16.457143 783.946562 
L 17.557787 784.580473 
L 19.748571 786.684135 
L 22.522386 787.87703 
L 23.04 788.409601 
L 26.331429 790.375563 
L 27.234755 791.173586 
L 29.622857 792.943296 
L 31.308364 794.470143 
L 32.914286 796.22972 
L 34.626786 797.766699 
L 36.205714 799.533377 
L 38.239924 801.063256 
L 39.497143 802.555248 
L 42.788571 803.083869 
L 44.627275 804.359813 
L 46.08 805.871153 
L 49.098326 807.656369 
L 49.371429 808.367135 
L 49.870048 807.656369 
L 52.662857 805.178716 
L 53.184501 804.359813 
L 55.954286 802.47611 
L 59.245714 804.219977 
L 59.766252 804.359813 
L 62.537143 807.433123 
L 62.875438 807.656369 
L 62.537143 810.078715 
L 59.245714 810.688478 
L 57.996638 810.952926 
L 55.954286 811.515512 
L 52.662857 812.821509 
L 49.73042 814.249482 
L 49.371429 814.582324 
L 48.271185 817.546039 
L 47.922029 820.842596 
z
" clip-path="url(#p0f38aeeaa6)" style="fill: #b5d4e9; fill-opacity: 0.9"/>
    <path d="M 16.457143 817.973111 
L 17.757183 820.842596 
L 19.748571 820.842596 
L 23.04 820.842596 
L 26.331429 820.842596 
L 29.622857 820.842596 
L 32.914286 820.842596 
L 36.205714 820.842596 
L 39.497143 820.842596 
L 42.788571 820.842596 
L 46.08 820.842596 
L 47.922029 820.842596 
L 48.271185 817.546039 
L 49.371429 814.582324 
L 49.73042 814.249482 
L 52.662857 812.821509 
L 55.954286 811.515512 
L 57.996638 810.952926 
L 59.245714 810.688478 
L 62.537143 810.078715 
L 62.875438 807.656369 
L 62.537143 807.433123 
L 59.766252 804.359813 
L 59.245714 804.219977 
L 55.954286 802.47611 
L 53.184501 804.359813 
L 52.662857 805.178716 
L 49.870048 807.656369 
L 49.371429 808.367135 
L 49.098326 807.656369 
L 46.08 805.871153 
L 44.627275 804.359813 
L 42.788571 803.083869 
L 39.497143 802.555248 
L 38.239924 801.063256 
L 36.205714 799.533377 
L 34.626786 797.766699 
L 32.914286 796.22972 
L 31.308364 794.470143 
L 29.622857 792.943296 
L 27.234755 791.173586 
L 26.331429 790.375563 
L 23.04 788.409601 
L 22.522386 787.87703 
L 19.748571 786.684135 
L 17.557787 784.580473 
L 16.457143 783.946562 
L 13.165714 781.618125 
L 12.815047 781.283916 
L 9.874286 780.35149 
L 7.277303 777.98736 
L 6.582857 777.582916 
L 3.516576 774.690803 
L 3.291429 774.515002 
L 0.114595 771.394247 
L 0 771.29967 
L 0 771.394247 
L 0 772.451314 
L 2.46248 774.690803 
L 3.291429 775.611761 
L 6.582857 777.985189 
L 6.586584 777.98736 
L 9.874286 780.980278 
L 10.831925 781.283916 
L 13.165714 783.508167 
L 16.166528 784.580473 
L 16.457143 785.040421 
L 19.748571 787.802455 
L 19.921978 787.87703 
L 23.04 791.085153 
L 23.202437 791.173586 
L 23.04 792.712581 
L 21.260883 794.470143 
L 19.748571 796.289007 
L 19.13175 797.766699 
L 16.591333 801.063256 
L 16.457143 801.411133 
L 16.078684 804.359813 
L 15.363375 807.656369 
L 14.396992 810.952926 
L 15.085469 814.249482 
L 16.224286 817.546039 
z
" clip-path="url(#p0f38aeeaa6)" style="fill: #add0e6; fill-opacity: 0.9"/>
    <path d="M 3.291429 820.842596 
L 6.582857 820.842596 
L 9.874286 820.842596 
L 13.165714 820.842596 
L 16.457143 820.842596 
L 17.757183 820.842596 
L 16.457143 817.973111 
L 16.224286 817.546039 
L 15.085469 814.249482 
L 14.396992 810.952926 
L 15.363375 807.656369 
L 16.078684 804.359813 
L 16.457143 801.411133 
L 16.591333 801.063256 
L 19.13175 797.766699 
L 19.748571 796.289007 
L 21.260883 794.470143 
L 23.04 792.712581 
L 23.202437 791.173586 
L 23.04 791.085153 
L 19.921978 787.87703 
L 19.748571 787.802455 
L 16.457143 785.040421 
L 16.166528 784.580473 
L 13.165714 783.508167 
L 10.831925 781.283916 
L 9.874286 780.980278 
L 6.586584 777.98736 
L 6.582857 777.985189 
L 3.291429 775.611761 
L 2.46248 774.690803 
L 0 772.451314 
L 0 774.048171 
L 0.70662 774.690803 
L 3.291429 777.562511 
L 3.882683 777.98736 
L 6.582857 781.177618 
L 6.781091 781.283916 
L 7.922524 784.580473 
L 8.035357 787.87703 
L 7.934879 791.173586 
L 7.747156 794.470143 
L 8.062779 797.766699 
L 6.921939 801.063256 
L 6.582857 802.096129 
L 5.85116 804.359813 
L 4.908899 807.656369 
L 3.976559 810.952926 
L 3.291429 813.635267 
L 3.130563 814.249482 
L 0 815.430612 
L 0 817.546039 
L 0 820.842596 
z
" clip-path="url(#p0f38aeeaa6)" style="fill: #a5cde3; fill-opacity: 0.9"/>
    <path d="M 3.130563 814.249482 
L 3.291429 813.635267 
L 3.976559 810.952926 
L 4.908899 807.656369 
L 5.85116 804.359813 
L 6.582857 802.096129 
L 6.921939 801.063256 
L 8.062779 797.766699 
L 7.747156 794.470143 
L 7.934879 791.173586 
L 8.035357 787.87703 
L 7.922524 784.580473 
L 6.781091 781.283916 
L 6.582857 781.177618 
L 3.882683 777.98736 
L 3.291429 777.562511 
L 0.70662 774.690803 
L 0 774.048171 
L 0 774.690803 
L 0 777.98736 
L 0 781.283916 
L 0 784.580473 
L 0 787.87703 
L 0 788.862233 
L 0.678416 791.173586 
L 0 794.285844 
L 0 794.470143 
L 0 797.766699 
L 0 801.063256 
L 0 804.359813 
L 0 807.656369 
L 0 810.952926 
L 0 814.249482 
L 0 815.430612 
z
" clip-path="url(#p0f38aeeaa6)" style="fill: #9cc9e1; fill-opacity: 0.9"/>
    <path d="M 0.678416 791.173586 
L 0 788.862233 
L 0 791.173586 
L 0 794.285844 
z
" clip-path="url(#p0f38aeeaa6)" style="fill: #91c3de; fill-opacity: 0.9"/>
    <path clip-path="url(#p0f38aeeaa6)" style="fill: #85bcdc; fill-opacity: 0.9"/>
    <path clip-path="url(#p0f38aeeaa6)" style="fill: #7cb7da; fill-opacity: 0.9"/>
    <path clip-path="url(#p0f38aeeaa6)" style="fill: #71b1d7; fill-opacity: 0.9"/>
    <path clip-path="url(#p0f38aeeaa6)" style="fill: #66abd4; fill-opacity: 0.9"/>
    <path clip-path="url(#p0f38aeeaa6)" style="fill: #5da5d1; fill-opacity: 0.9"/>
    <path clip-path="url(#p0f38aeeaa6)" style="fill: #56a0ce; fill-opacity: 0.9"/>
    <path clip-path="url(#p0f38aeeaa6)" style="fill: #4d99ca; fill-opacity: 0.9"/>
    <path clip-path="url(#p0f38aeeaa6)" style="fill: #4493c7; fill-opacity: 0.9"/>
    <path clip-path="url(#p0f38aeeaa6)" style="fill: #3c8cc3; fill-opacity: 0.9"/>
    <path clip-path="url(#p0f38aeeaa6)" style="fill: #3686c0; fill-opacity: 0.9"/>
    <path clip-path="url(#p0f38aeeaa6)" style="fill: #2f7fbc; fill-opacity: 0.9"/>
    <path clip-path="url(#p0f38aeeaa6)" style="fill: #2777b8; fill-opacity: 0.9"/>
    <path clip-path="url(#p0f38aeeaa6)" style="fill: #2070b4; fill-opacity: 0.9"/>
    <path clip-path="url(#p0f38aeeaa6)" style="fill: #1c6ab0; fill-opacity: 0.9"/>
    <path clip-path="url(#p0f38aeeaa6)" style="fill: #1663aa; fill-opacity: 0.9"/>
    <path clip-path="url(#p0f38aeeaa6)" style="fill: #115ca5; fill-opacity: 0.9"/>
    <path clip-path="url(#p0f38aeeaa6)" style="fill: #0c56a0; fill-opacity: 0.9"/>
    <path clip-path="url(#p0f38aeeaa6)" style="fill: #084f99; fill-opacity: 0.9"/>
    <path clip-path="url(#p0f38aeeaa6)" style="fill: #08488e; fill-opacity: 0.9"/>
    <path clip-path="url(#p0f38aeeaa6)" style="fill: #084184; fill-opacity: 0.9"/>
    <path clip-path="url(#p0f38aeeaa6)" style="fill: #083a7a; fill-opacity: 0.9"/>
    <path clip-path="url(#p0f38aeeaa6)" style="fill: #083370; fill-opacity: 0.9"/>
    <path clip-path="url(#p0f38aeeaa6)" style="fill: #08306b; fill-opacity: 0.9"/>
   </g>
   <g id="QuadContourSet_2">
    <path d="M 113.218251 820.842596 
L 111.908571 819.500943 
L 108.617143 818.572536 
L 105.325714 818.735623 
L 103.036329 817.546039 
L 102.034286 816.5182 
L 98.742857 816.182025 
L 95.451429 816.980948 
L 92.16 814.527941 
L 91.646049 814.249482 
L 88.868571 811.959937 
L 85.577143 811.596485 
L 84.59959 810.952926 
L 82.285714 808.590127 
L 78.994286 808.45382 
L 77.963071 807.656369 
L 75.702857 805.35416 
L 72.411429 805.431656 
L 71.049982 804.359813 
L 69.12 802.400018 
L 65.828571 802.762229 
L 63.210224 801.063256 
L 62.537143 800.38301 
L 59.245714 798.509447 
L 57.765891 797.766699 
L 55.954286 795.950451 
L 52.662857 795.079656 
L 51.539512 794.470143 
L 49.371429 792.297005 
L 46.08 791.910807 
L 45.128173 791.173586 
L 42.788571 788.826336 
L 41.194182 788.854404 
M 24.811153 780.264104 
L 23.04 778.616449 
L 21.097728 777.98736 
L 19.748571 776.662705 
L 16.457143 775.442517 
L 15.016691 774.690803 
L 13.165714 772.849933 
L 9.874286 772.433404 
L 8.533652 771.394247 
L 6.582857 769.453402 
L 3.291429 769.611288 
L 0.656068 768.09769 
L -0 767.458583 
" clip-path="url(#p0f38aeeaa6)" style="fill: none"/>
    <path d="M 112.474847 820.842596 
L 111.908571 820.262495 
L 108.617143 818.965043 
L 105.325714 819.182595 
L 102.176121 817.546039 
L 102.034286 817.400553 
L 98.742857 816.932935 
L 96.621419 817.546039 
L 95.451429 817.679907 
L 95.318693 817.546039 
L 92.16 814.785554 
L 91.170573 814.249482 
L 88.868571 812.351884 
L 85.577143 811.839087 
L 84.231083 810.952926 
L 82.285714 808.966425 
L 78.994286 808.764728 
L 77.561024 807.656369 
L 75.702857 805.763677 
L 72.411429 805.86436 
L 70.500365 804.359813 
L 69.12 802.958125 
L 65.828571 803.473318 
L 62.537143 801.184976 
L 62.365832 801.063256 
L 59.245714 798.827604 
L 57.132006 797.766699 
L 55.954286 796.585961 
L 52.662857 795.344477 
L 51.051441 794.470143 
L 49.371429 792.786213 
L 46.08 792.235764 
L 44.708622 791.173586 
L 42.788571 789.247259 
L 39.497143 789.3348 
L 37.575232 787.87703 
L 36.205714 786.49822 
L 32.914286 785.593399 
L 30.69834 784.580473 
L 29.622857 783.795758 
L 26.331429 781.931919 
L 25.602367 781.283916 
L 24.685206 780.430707 
M 8.136797 771.553284 
L 7.93162 771.394247 
L 6.582857 770.052363 
L 3.291429 770.289479 
L 0 768.222025 
" clip-path="url(#p0f38aeeaa6)" style="fill: none"/>
    <path d="M 111.713574 820.842596 
L 108.617143 819.357549 
L 105.325714 819.629566 
L 102.034286 818.753768 
L 98.742857 817.764782 
L 95.451429 817.977196 
L 95.023919 817.546039 
L 92.16 815.043167 
L 90.695098 814.249482 
L 88.868571 812.74383 
L 85.577143 812.081689 
L 83.862576 810.952926 
L 82.285714 809.342724 
L 78.994286 809.075636 
L 77.158977 807.656369 
L 75.702857 806.173194 
L 72.411429 806.297064 
L 69.950748 804.359813 
L 69.12 803.516232 
L 65.828571 804.184408 
L 62.537143 801.500468 
L 61.921806 801.063256 
L 60.942041 800.361228 
M 44.379133 791.243342 
L 44.289071 791.173586 
L 42.788571 789.668182 
L 39.497143 789.785319 
L 36.981271 787.87703 
L 36.205714 787.096211 
L 32.914286 786.083328 
L 29.626537 784.580473 
L 29.622857 784.577788 
L 26.331429 782.203042 
L 25.29733 781.283916 
L 23.04 779.183984 
L 19.748571 778.187466 
L 19.495433 777.98736 
L 16.457143 776.119163 
L 13.720087 774.690803 
L 13.165714 774.139458 
L 9.874286 773.366703 
L 7.329588 771.394247 
L 6.582857 770.651324 
L 3.291429 770.96767 
L 0 768.501811 
" clip-path="url(#p0f38aeeaa6)" style="fill: none"/>
    <path d="M 110.895168 820.842596 
L 108.617143 819.750056 
L 105.325714 820.076538 
L 102.034286 820.19995 
L 98.742857 818.956725 
L 95.451429 818.274485 
L 94.729145 817.546039 
L 92.16 815.300779 
L 90.219623 814.249482 
L 88.868571 813.135777 
L 85.577143 812.324291 
L 83.686705 811.079745 
M 67.091637 804.456255 
L 65.828571 804.630948 
L 65.547333 804.359813 
L 62.537143 801.815961 
L 61.477779 801.063256 
L 59.245714 799.46392 
L 55.954286 797.818713 
L 55.890133 797.766699 
L 52.662857 795.874119 
L 50.075299 794.470143 
L 49.371429 793.764631 
L 46.08 792.885676 
L 43.869519 791.173586 
L 42.788571 790.089105 
L 39.497143 790.235839 
L 36.38731 787.87703 
L 36.205714 787.694202 
L 32.914286 786.573258 
L 29.622857 784.947399 
L 29.248645 784.580473 
L 26.331429 782.474164 
L 24.992293 781.283916 
L 23.04 779.467752 
L 19.748571 778.622417 
L 18.945211 777.98736 
L 16.457143 776.457486 
L 13.165714 774.824261 
L 12.92515 774.690803 
L 9.874286 773.833352 
L 6.727557 771.394247 
L 6.582857 771.250285 
L 5.288857 771.394247 
L 3.291429 771.517801 
L 3.165654 771.394247 
L 0 768.781597 
" clip-path="url(#p0f38aeeaa6)" style="fill: none"/>
    <path d="M 100.42698 820.842596 
L 98.742857 820.148669 
L 97.552592 819.578423 
M 81.453781 809.994756 
L 78.994286 809.697451 
L 76.354883 807.656369 
L 75.702857 806.992228 
L 72.411429 807.162473 
L 69.12 804.979761 
L 65.828571 804.990863 
L 65.174005 804.359813 
L 62.537143 802.131453 
L 61.033752 801.063256 
L 59.245714 799.782077 
L 55.954286 798.184841 
L 55.438554 797.766699 
L 52.662857 796.13894 
L 49.587228 794.470143 
L 49.371429 794.25384 
L 46.08 793.210633 
L 43.449968 791.173586 
L 42.788571 790.510027 
L 39.497143 790.686358 
L 36.205714 788.257644 
L 35.235555 787.87703 
L 32.914286 787.063187 
L 29.622857 785.31559 
L 28.873143 784.580473 
L 26.331429 782.745287 
L 24.687256 781.283916 
L 23.04 779.75152 
L 19.748571 779.057368 
L 18.394989 777.98736 
L 16.457143 776.795808 
L 13.165714 775.745386 
L 11.264783 774.690803 
L 9.874286 774.300001 
L 6.582857 772.989053 
L 3.291429 771.850823 
L 2.826648 771.394247 
L 0 769.061383 
M 110.076763 820.842596 
L 108.617143 820.142563 
L 105.325714 820.523509 
L 103.474843 820.842596 
" clip-path="url(#p0f38aeeaa6)" style="fill: none"/>
    <path d="M 98.547963 820.842596 
L 95.451429 818.869062 
L 94.139597 817.546039 
L 92.16 815.816005 
L 89.268672 814.249482 
L 88.868571 813.91967 
L 85.577143 812.809495 
L 82.757056 810.952926 
L 82.285714 810.471619 
L 78.994286 810.008359 
L 75.952836 807.656369 
L 75.702857 807.401745 
L 72.411429 807.595177 
L 69.12 806.248858 
L 65.828571 805.350779 
L 64.800677 804.359813 
L 62.537143 802.446945 
L 60.589725 801.063256 
L 59.245714 800.100235 
L 55.954286 798.550969 
L 54.986974 797.766699 
L 52.662857 796.403761 
L 49.371429 794.811272 
L 48.836705 794.470143 
L 46.08 793.535589 
L 43.030417 791.173586 
L 42.788571 790.93095 
L 39.497143 791.136878 
L 36.205714 788.805872 
L 33.838161 787.87703 
L 32.914286 787.553117 
L 29.622857 785.683781 
L 28.497641 784.580473 
L 26.331429 783.016409 
L 24.382219 781.283916 
L 23.04 780.035287 
L 19.748571 779.49232 
L 17.844767 777.98736 
L 16.457143 777.134131 
L 13.165714 776.666511 
L 9.874286 774.848268 
L 7.590693 774.791883 
M 109.258358 820.842596 
L 108.617143 820.535069 
L 106.206153 820.842596 
" clip-path="url(#p0f38aeeaa6)" style="fill: none"/>
    <path d="M 98.081508 820.842596 
L 95.451429 819.166351 
L 93.844823 817.546039 
L 92.16 816.073617 
L 88.868571 814.338721 
L 88.766144 814.249482 
L 85.577143 813.052097 
L 82.388549 810.952926 
L 82.285714 810.847917 
L 78.994286 810.319267 
L 75.702857 808.739477 
L 72.411429 808.117597 
L 69.490985 807.656369 
L 69.12 807.517954 
L 65.828571 805.710695 
L 64.427349 804.359813 
L 62.537143 802.762437 
L 60.145698 801.063256 
L 59.245714 800.418392 
L 55.954286 798.917098 
L 54.535394 797.766699 
L 52.662857 796.668582 
L 51.453361 796.210788 
M 34.188082 788.573534 
L 32.914286 788.080737 
L 32.703675 787.87703 
L 29.622857 786.051971 
L 28.122139 784.580473 
L 26.331429 783.287532 
L 24.077182 781.283916 
L 23.04 780.319055 
L 19.748571 779.927271 
L 17.294545 777.98736 
L 16.457143 777.472454 
L 13.165714 777.587636 
L 9.874286 775.817071 
L 6.582857 775.169273 
L 6.075573 774.690803 
L 3.291429 772.516868 
L 2.148634 771.394247 
L 0 769.620954 
" clip-path="url(#p0f38aeeaa6)" style="fill: none"/>
    <path d="M 97.615053 820.842596 
L 95.451429 819.46364 
L 93.550049 817.546039 
L 92.16 816.33123 
L 88.868571 814.901648 
L 88.120022 814.249482 
L 85.577143 813.294699 
L 82.285714 811.654081 
L 80.936719 810.952926 
L 78.994286 810.630174 
L 76.293531 810.952926 
L 75.702857 811.116032 
L 75.536981 810.952926 
L 72.411429 808.654795 
L 69.12 808.167251 
L 68.566379 807.656369 
L 65.828571 806.070611 
L 64.054021 804.359813 
L 62.537143 803.077929 
L 59.701671 801.063256 
L 59.245714 800.73655 
L 55.954286 799.283226 
L 54.083815 797.766699 
L 52.662857 796.933403 
L 49.371429 796.034282 
L 46.919622 794.470143 
L 46.08 794.185502 
L 43.395254 794.470143 
L 42.788571 794.605374 
L 42.648543 794.470143 
L 39.497143 792.165944 
L 38.006909 791.173586 
L 37.849098 791.062205 
M 22.291789 780.548129 
L 19.748571 780.362222 
L 16.744323 777.98736 
L 16.457143 777.810777 
L 14.878153 777.98736 
L 13.165714 778.333608 
L 12.134222 777.98736 
L 9.874286 776.785874 
L 6.582857 775.571546 
L 5.649074 774.690803 
L 3.291429 772.84989 
L 1.809628 771.394247 
L 0 769.90074 
" clip-path="url(#p0f38aeeaa6)" style="fill: none"/>
    <path d="M 97.148598 820.842596 
L 95.451429 819.760928 
L 93.255275 817.546039 
L 92.16 816.588843 
L 88.868571 815.464574 
L 87.4739 814.249482 
L 85.577143 813.5373 
L 82.285714 812.626634 
L 79.065565 810.952926 
L 78.994286 810.941082 
L 78.895179 810.952926 
L 75.702857 811.834441 
L 74.806369 810.952926 
L 72.411429 809.191993 
L 69.12 808.740673 
L 67.944986 807.656369 
L 65.828571 806.430526 
L 63.680693 804.359813 
L 62.537143 803.393421 
L 59.257645 801.063256 
L 59.245714 801.054708 
L 55.954286 799.649355 
L 54.747839 798.6712 
M 37.803571 791.555434 
L 37.230147 791.173586 
L 36.205714 790.450556 
L 32.914286 789.283054 
L 31.460615 787.87703 
L 29.622857 786.788353 
L 27.371135 784.580473 
L 26.331429 783.829777 
L 23.467107 781.283916 
L 23.04 780.88659 
L 19.748571 780.797173 
L 16.457143 781.08658 
L 13.165714 778.945303 
L 10.311951 777.98736 
L 9.874286 777.754677 
L 6.582857 775.97382 
L 5.222574 774.690803 
L 3.291429 773.182913 
L 1.470621 771.394247 
L 0 770.180526 
" clip-path="url(#p0f38aeeaa6)" style="fill: none"/>
    <path d="M 96.682143 820.842596 
L 95.451429 820.058217 
L 92.960501 817.546039 
L 92.16 816.846455 
L 88.868571 816.027501 
L 86.827777 814.249482 
L 85.577143 813.779902 
L 82.285714 813.599186 
L 80.542243 814.249482 
L 78.994286 814.897734 
L 78.333101 814.249482 
L 75.702857 812.55285 
L 75.296859 812.153633 
M 59.663628 802.074176 
L 59.245714 801.836426 
L 58.410491 801.063256 
L 55.954286 800.015483 
L 53.180655 797.766699 
L 52.662857 797.463046 
L 49.371429 797.257291 
L 47.278226 797.766699 
L 46.08 798.246461 
L 45.574359 797.766699 
L 42.788571 795.971774 
L 41.233676 794.470143 
L 39.497143 793.200448 
L 36.453385 791.173586 
L 36.205714 790.998784 
L 32.914286 789.884213 
L 30.839086 787.87703 
L 29.622857 787.156543 
L 26.995634 784.580473 
L 26.331429 784.100899 
L 23.16207 781.283916 
L 23.04 781.170358 
L 19.748571 781.232124 
L 19.38855 781.283916 
L 16.457143 781.934264 
L 15.615734 781.283916 
L 13.165714 779.556997 
L 9.874286 778.465128 
L 9.349461 777.98736 
L 6.582857 776.376094 
L 4.796075 774.690803 
L 3.291429 773.515935 
L 1.131615 771.394247 
L 0 770.460312 
" clip-path="url(#p0f38aeeaa6)" style="fill: none"/>
    <path d="M 96.215688 820.842596 
L 95.451429 820.355506 
L 92.665727 817.546039 
L 92.16 817.104068 
L 88.868571 816.590427 
L 86.181655 814.249482 
L 85.577143 814.022504 
L 83.146535 814.249482 
L 82.285714 817.193287 
L 78.994286 815.989679 
L 77.219371 814.249482 
L 75.702857 813.271259 
L 73.345147 810.952926 
L 72.411429 810.266389 
L 69.12 809.887518 
L 66.702199 807.656369 
L 65.828571 807.150358 
L 62.934037 804.359813 
L 62.537143 804.024405 
L 59.245714 802.630943 
L 57.552207 801.063256 
L 55.954286 800.381612 
L 52.729076 797.766699 
L 52.662857 797.727867 
L 51.12379 797.766699 
L 49.371429 799.105292 
L 48.345062 799.151208 
M 24.837332 783.668579 
L 23.04 782.822369 
L 19.748571 784.188417 
L 16.457143 782.60503 
L 14.74791 781.283916 
L 13.165714 780.168691 
L 9.874286 779.093915 
L 8.658742 777.98736 
L 6.582857 776.778368 
L 4.369575 774.690803 
L 3.291429 773.848957 
L 0.792608 771.394247 
L 0 770.740098 
" clip-path="url(#p0f38aeeaa6)" style="fill: none"/>
    <path d="M 95.749233 820.842596 
L 95.451429 820.652794 
L 92.370953 817.546039 
L 92.16 817.361681 
L 88.868571 817.153354 
L 85.577143 814.832237 
L 84.793853 817.546039 
L 82.285714 819.566658 
L 80.004585 817.546039 
L 78.994286 817.081625 
L 76.10564 814.249482 
L 75.702857 813.989668 
L 72.614536 810.952926 
L 72.411429 810.803587 
L 69.12 810.460941 
L 66.080806 807.656369 
L 65.828571 807.510273 
L 62.560709 804.359813 
L 62.537143 804.339897 
L 59.245714 803.42546 
L 56.693923 801.063256 
L 55.954286 800.74774 
L 52.662857 799.766796 
L 51.271919 801.063256 
L 49.371429 802.49903 
L 48.091312 801.349713 
M 24.013369 786.330206 
L 23.04 785.510027 
L 19.748571 785.565815 
L 18.722422 784.580473 
L 16.457143 783.275796 
L 13.880085 781.283916 
L 13.165714 780.780386 
L 9.874286 779.722703 
L 7.968022 777.98736 
L 6.582857 777.180642 
L 3.943075 774.690803 
L 3.291429 774.18198 
L 0.453602 771.394247 
L 0 771.019884 
" clip-path="url(#p0f38aeeaa6)" style="fill: none"/>
    <path d="M 47.922029 820.842596 
L 48.271185 817.546039 
L 49.371429 814.582324 
L 49.73042 814.249482 
L 52.662857 812.821509 
L 55.954286 811.515512 
L 57.996638 810.952926 
L 59.245714 810.688478 
L 62.537143 810.078715 
L 62.875438 807.656369 
L 62.537143 807.433123 
L 59.766252 804.359813 
L 59.245714 804.219977 
L 55.954286 802.47611 
L 53.184501 804.359813 
L 52.662857 805.178716 
L 49.870048 807.656369 
L 49.371429 808.367135 
L 49.098326 807.656369 
L 46.08 805.871153 
L 44.627275 804.359813 
L 42.788571 803.083869 
L 39.497143 802.555248 
L 38.239924 801.063256 
L 36.205714 799.533377 
L 34.626786 797.766699 
L 34.317241 797.488881 
M 10.948011 780.691936 
L 9.874286 780.35149 
L 7.277303 777.98736 
L 6.582857 777.582916 
L 3.516576 774.690803 
L 3.291429 774.515002 
L 0.114595 771.394247 
L 0 771.29967 
" clip-path="url(#p0f38aeeaa6)" style="fill: none"/>
    <path d="M 19.239804 797.507839 
L 19.748571 796.289007 
L 21.260883 794.470143 
L 23.04 792.712581 
L 23.202437 791.173586 
L 23.04 791.085153 
L 19.921978 787.87703 
L 19.748571 787.802455 
L 16.457143 785.040421 
L 16.166528 784.580473 
L 13.165714 783.508167 
L 10.831925 781.283916 
L 9.874286 780.980278 
L 6.586584 777.98736 
L 6.582857 777.985189 
L 3.291429 775.611761 
L 2.46248 774.690803 
L 0 772.451314 
" clip-path="url(#p0f38aeeaa6)" style="fill: none"/>
    <path d="M 0 815.430612 
L 3.130563 814.249482 
L 3.291429 813.635267 
L 3.976559 810.952926 
L 4.677472 808.474645 
M 5.979615 780.464888 
L 3.882683 777.98736 
L 3.291429 777.562511 
L 0.70662 774.690803 
L 0 774.048171 
" clip-path="url(#p0f38aeeaa6)" style="fill: none"/>
    <path d="M 0 794.285844 
L 0.678416 791.173586 
L 0 788.862233 
" clip-path="url(#p0f38aeeaa6)" style="fill: none"/>
    <path clip-path="url(#p0f38aeeaa6)" style="fill: none"/>
    <path clip-path="url(#p0f38aeeaa6)" style="fill: none"/>
    <path clip-path="url(#p0f38aeeaa6)" style="fill: none"/>
    <path clip-path="url(#p0f38aeeaa6)" style="fill: none"/>
    <path clip-path="url(#p0f38aeeaa6)" style="fill: none"/>
    <path clip-path="url(#p0f38aeeaa6)" style="fill: none"/>
    <path clip-path="url(#p0f38aeeaa6)" style="fill: none"/>
    <path clip-path="url(#p0f38aeeaa6)" style="fill: none"/>
    <path clip-path="url(#p0f38aeeaa6)" style="fill: none"/>
    <path clip-path="url(#p0f38aeeaa6)" style="fill: none"/>
    <path clip-path="url(#p0f38aeeaa6)" style="fill: none"/>
    <path clip-path="url(#p0f38aeeaa6)" style="fill: none"/>
    <path clip-path="url(#p0f38aeeaa6)" style="fill: none"/>
    <path clip-path="url(#p0f38aeeaa6)" style="fill: none"/>
    <path clip-path="url(#p0f38aeeaa6)" style="fill: none"/>
    <path clip-path="url(#p0f38aeeaa6)" style="fill: none"/>
    <path clip-path="url(#p0f38aeeaa6)" style="fill: none"/>
    <path clip-path="url(#p0f38aeeaa6)" style="fill: none"/>
    <path clip-path="url(#p0f38aeeaa6)" style="fill: none"/>
    <path clip-path="url(#p0f38aeeaa6)" style="fill: none"/>
    <path clip-path="url(#p0f38aeeaa6)" style="fill: none"/>
    <path clip-path="url(#p0f38aeeaa6)" style="fill: none"/>
    <path clip-path="url(#p0f38aeeaa6)" style="fill: none"/>
   </g>
   <g id="text_1">
    <g clip-path="url(#p0f38aeeaa6)">
     <!-- 0 -->
     <g style="opacity: 0" transform="translate(28.016391 786.347779) rotate(-333.316481) scale(0.12 -0.12)">
      <defs>
       <path id="DejaVuSans-30" d="M 2034 4250 
Q 1547 4250 1301 3770 
Q 1056 3291 1056 2328 
Q 1056 1369 1301 889 
Q 1547 409 2034 409 
Q 2525 409 2770 889 
Q 3016 1369 3016 2328 
Q 3016 3291 2770 3770 
Q 2525 4250 2034 4250 
z
M 2034 4750 
Q 2819 4750 3233 4129 
Q 3647 3509 3647 2328 
Q 3647 1150 3233 529 
Q 2819 -91 2034 -91 
Q 1250 -91 836 529 
Q 422 1150 422 2328 
Q 422 3509 836 4129 
Q 1250 4750 2034 4750 
z
" transform="scale(0.015625)"/>
      </defs>
      <use xlink:href="#DejaVuSans-30"/>
     </g>
    </g>
   </g>
   <g id="text_2">
    <g clip-path="url(#p0f38aeeaa6)">
     <!-- 1 -->
     <g style="opacity: 0" transform="translate(11.503713 776.781447) rotate(-330.482293) scale(0.12 -0.12)">
      <defs>
       <path id="DejaVuSans-31" d="M 794 531 
L 1825 531 
L 1825 4091 
L 703 3866 
L 703 4441 
L 1819 4666 
L 2450 4666 
L 2450 531 
L 3481 531 
L 3481 0 
L 794 0 
L 794 531 
z
" transform="scale(0.015625)"/>
      </defs>
      <use xlink:href="#DejaVuSans-31"/>
     </g>
    </g>
   </g>
   <g id="text_3">
    <g clip-path="url(#p0f38aeeaa6)">
     <!-- 2 -->
     <g style="opacity: 0" transform="translate(47.700746 796.565924) rotate(-329.974013) scale(0.12 -0.12)">
      <defs>
       <path id="DejaVuSans-32" d="M 1228 531 
L 3431 531 
L 3431 0 
L 469 0 
L 469 531 
Q 828 903 1448 1529 
Q 2069 2156 2228 2338 
Q 2531 2678 2651 2914 
Q 2772 3150 2772 3378 
Q 2772 3750 2511 3984 
Q 2250 4219 1831 4219 
Q 1534 4219 1204 4116 
Q 875 4013 500 3803 
L 500 4441 
Q 881 4594 1212 4672 
Q 1544 4750 1819 4750 
Q 2544 4750 2975 4387 
Q 3406 4025 3406 3419 
Q 3406 3131 3298 2873 
Q 3191 2616 2906 2266 
Q 2828 2175 2409 1742 
Q 1991 1309 1228 531 
z
" transform="scale(0.015625)"/>
      </defs>
      <use xlink:href="#DejaVuSans-32"/>
     </g>
    </g>
   </g>
   <g id="text_4">
    <g clip-path="url(#p0f38aeeaa6)">
     <!-- 3 -->
     <g style="opacity: 0" transform="translate(70.878357 808.086665) rotate(-336.376015) scale(0.12 -0.12)">
      <defs>
       <path id="DejaVuSans-33" d="M 2597 2516 
Q 3050 2419 3304 2112 
Q 3559 1806 3559 1356 
Q 3559 666 3084 287 
Q 2609 -91 1734 -91 
Q 1441 -91 1130 -33 
Q 819 25 488 141 
L 488 750 
Q 750 597 1062 519 
Q 1375 441 1716 441 
Q 2309 441 2620 675 
Q 2931 909 2931 1356 
Q 2931 1769 2642 2001 
Q 2353 2234 1838 2234 
L 1294 2234 
L 1294 2753 
L 1863 2753 
Q 2328 2753 2575 2939 
Q 2822 3125 2822 3475 
Q 2822 3834 2567 4026 
Q 2313 4219 1838 4219 
Q 1578 4219 1281 4162 
Q 984 4106 628 3988 
L 628 4550 
Q 988 4650 1302 4700 
Q 1616 4750 1894 4750 
Q 2613 4750 3031 4423 
Q 3450 4097 3450 3541 
Q 3450 3153 3228 2886 
Q 3006 2619 2597 2516 
z
" transform="scale(0.015625)"/>
      </defs>
      <use xlink:href="#DejaVuSans-33"/>
     </g>
    </g>
   </g>
   <g id="text_5">
    <g clip-path="url(#p0f38aeeaa6)">
     <!-- 4 -->
     <g style="opacity: 0" transform="translate(84.814118 815.359662) rotate(-331.752653) scale(0.12 -0.12)">
      <defs>
       <path id="DejaVuSans-34" d="M 2419 4116 
L 825 1625 
L 2419 1625 
L 2419 4116 
z
M 2253 4666 
L 3047 4666 
L 3047 1625 
L 3713 1625 
L 3713 1100 
L 3047 1100 
L 3047 0 
L 2419 0 
L 2419 1100 
L 313 1100 
L 313 1709 
L 2253 4666 
z
" transform="scale(0.015625)"/>
      </defs>
      <use xlink:href="#DejaVuSans-34"/>
     </g>
    </g>
   </g>
   <g id="text_6">
    <g clip-path="url(#p0f38aeeaa6)">
     <!-- 5 -->
     <g style="opacity: 0" transform="translate(-5.053189 769.395595) rotate(-319.679145) scale(0.12 -0.12)">
      <defs>
       <path id="DejaVuSans-35" d="M 691 4666 
L 3169 4666 
L 3169 4134 
L 1269 4134 
L 1269 2991 
Q 1406 3038 1543 3061 
Q 1681 3084 1819 3084 
Q 2600 3084 3056 2656 
Q 3513 2228 3513 1497 
Q 3513 744 3044 326 
Q 2575 -91 1722 -91 
Q 1428 -91 1123 -41 
Q 819 9 494 109 
L 494 744 
Q 775 591 1075 516 
Q 1375 441 1709 441 
Q 2250 441 2565 725 
Q 2881 1009 2881 1497 
Q 2881 1984 2565 2268 
Q 2250 2553 1709 2553 
Q 1456 2553 1204 2497 
Q 953 2441 691 2322 
L 691 4666 
z
" transform="scale(0.015625)"/>
      </defs>
      <use xlink:href="#DejaVuSans-35"/>
     </g>
    </g>
   </g>
   <g id="text_7">
    <g clip-path="url(#p0f38aeeaa6)">
     <!-- 6 -->
     <g style="opacity: 0" transform="translate(38.040294 794.042449) rotate(-339.076727) scale(0.12 -0.12)">
      <defs>
       <path id="DejaVuSans-36" d="M 2113 2584 
Q 1688 2584 1439 2293 
Q 1191 2003 1191 1497 
Q 1191 994 1439 701 
Q 1688 409 2113 409 
Q 2538 409 2786 701 
Q 3034 994 3034 1497 
Q 3034 2003 2786 2293 
Q 2538 2584 2113 2584 
z
M 3366 4563 
L 3366 3988 
Q 3128 4100 2886 4159 
Q 2644 4219 2406 4219 
Q 1781 4219 1451 3797 
Q 1122 3375 1075 2522 
Q 1259 2794 1537 2939 
Q 1816 3084 2150 3084 
Q 2853 3084 3261 2657 
Q 3669 2231 3669 1497 
Q 3669 778 3244 343 
Q 2819 -91 2113 -91 
Q 1303 -91 875 529 
Q 447 1150 447 2328 
Q 447 3434 972 4092 
Q 1497 4750 2381 4750 
Q 2619 4750 2861 4703 
Q 3103 4656 3366 4563 
z
" transform="scale(0.015625)"/>
      </defs>
      <use xlink:href="#DejaVuSans-36"/>
     </g>
    </g>
   </g>
   <g id="text_8">
    <g clip-path="url(#p0f38aeeaa6)">
     <!-- 7 -->
     <g style="opacity: 0" transform="translate(24.585474 786.823216) rotate(-323.636694) scale(0.12 -0.12)">
      <defs>
       <path id="DejaVuSans-37" d="M 525 4666 
L 3525 4666 
L 3525 4397 
L 1831 0 
L 1172 0 
L 2766 4134 
L 525 4134 
L 525 4666 
z
" transform="scale(0.015625)"/>
      </defs>
      <use xlink:href="#DejaVuSans-37"/>
     </g>
    </g>
   </g>
   <g id="text_9">
    <g clip-path="url(#p0f38aeeaa6)">
     <!-- 8 -->
     <g style="opacity: 0" transform="translate(41.49156 797.219588) rotate(-343.834934) scale(0.12 -0.12)">
      <defs>
       <path id="DejaVuSans-38" d="M 2034 2216 
Q 1584 2216 1326 1975 
Q 1069 1734 1069 1313 
Q 1069 891 1326 650 
Q 1584 409 2034 409 
Q 2484 409 2743 651 
Q 3003 894 3003 1313 
Q 3003 1734 2745 1975 
Q 2488 2216 2034 2216 
z
M 1403 2484 
Q 997 2584 770 2862 
Q 544 3141 544 3541 
Q 544 4100 942 4425 
Q 1341 4750 2034 4750 
Q 2731 4750 3128 4425 
Q 3525 4100 3525 3541 
Q 3525 3141 3298 2862 
Q 3072 2584 2669 2484 
Q 3125 2378 3379 2068 
Q 3634 1759 3634 1313 
Q 3634 634 3220 271 
Q 2806 -91 2034 -91 
Q 1263 -91 848 271 
Q 434 634 434 1313 
Q 434 1759 690 2068 
Q 947 2378 1403 2484 
z
M 1172 3481 
Q 1172 3119 1398 2916 
Q 1625 2713 2034 2713 
Q 2441 2713 2670 2916 
Q 2900 3119 2900 3481 
Q 2900 3844 2670 4047 
Q 2441 4250 2034 4250 
Q 1625 4250 1398 4047 
Q 1172 3844 1172 3481 
z
" transform="scale(0.015625)"/>
      </defs>
      <use xlink:href="#DejaVuSans-38"/>
     </g>
    </g>
   </g>
   <g id="text_10">
    <g clip-path="url(#p0f38aeeaa6)">
     <!-- 9 -->
     <g style="opacity: 0" transform="translate(62.331535 808.441894) rotate(-328.004503) scale(0.12 -0.12)">
      <defs>
       <path id="DejaVuSans-39" d="M 703 97 
L 703 672 
Q 941 559 1184 500 
Q 1428 441 1663 441 
Q 2288 441 2617 861 
Q 2947 1281 2994 2138 
Q 2813 1869 2534 1725 
Q 2256 1581 1919 1581 
Q 1219 1581 811 2004 
Q 403 2428 403 3163 
Q 403 3881 828 4315 
Q 1253 4750 1959 4750 
Q 2769 4750 3195 4129 
Q 3622 3509 3622 2328 
Q 3622 1225 3098 567 
Q 2575 -91 1691 -91 
Q 1453 -91 1209 -44 
Q 966 3 703 97 
z
M 1959 2075 
Q 2384 2075 2632 2365 
Q 2881 2656 2881 3163 
Q 2881 3666 2632 3958 
Q 2384 4250 1959 4250 
Q 1534 4250 1286 3958 
Q 1038 3666 1038 3163 
Q 1038 2656 1286 2365 
Q 1534 2075 1959 2075 
z
" transform="scale(0.015625)"/>
      </defs>
      <use xlink:href="#DejaVuSans-39"/>
     </g>
    </g>
   </g>
   <g id="text_11">
    <g clip-path="url(#p0f38aeeaa6)">
     <!-- 10 -->
     <g style="opacity: 0" transform="translate(28.056849 790.604404) rotate(-324.8424) scale(0.12 -0.12)">
      <use xlink:href="#DejaVuSans-31"/>
      <use xlink:href="#DejaVuSans-30" transform="translate(63.623047 0)"/>
     </g>
    </g>
   </g>
   <g id="text_12">
    <g clip-path="url(#p0f38aeeaa6)">
     <!-- 11 -->
     <g style="opacity: 0" transform="translate(27.94721 792.911065) rotate(-329.465288) scale(0.12 -0.12)">
      <use xlink:href="#DejaVuSans-31"/>
      <use xlink:href="#DejaVuSans-31" transform="translate(63.623047 0)"/>
     </g>
    </g>
   </g>
   <g id="text_13">
    <g clip-path="url(#p0f38aeeaa6)">
     <!-- 12 -->
     <g style="opacity: 0" transform="translate(14.886696 786.741896) rotate(-324.993912) scale(0.12 -0.12)">
      <use xlink:href="#DejaVuSans-31"/>
      <use xlink:href="#DejaVuSans-32" transform="translate(63.623047 0)"/>
     </g>
    </g>
   </g>
   <g id="text_14">
    <g clip-path="url(#p0f38aeeaa6)">
     <!-- 13 -->
     <g style="opacity: 0" transform="translate(10.682528 803.505755) rotate(-273.062818) scale(0.12 -0.12)">
      <use xlink:href="#DejaVuSans-31"/>
      <use xlink:href="#DejaVuSans-33" transform="translate(63.623047 0)"/>
     </g>
    </g>
   </g>
   <g id="text_15">
    <g clip-path="url(#p0f38aeeaa6)">
     <!-- 14 -->
     <g style="opacity: 0" transform="translate(10.271997 802.400009) rotate(-84.21523) scale(0.12 -0.12)">
      <use xlink:href="#DejaVuSans-31"/>
      <use xlink:href="#DejaVuSans-34" transform="translate(63.623047 0)"/>
     </g>
    </g>
   </g>
  </g>
 </g>
 <defs>
  <clipPath id="p0f38aeeaa6">
   <rect x="0" y="0" width="576" height="820.842596"/>
  </clipPath>
 </defs>
</svg>
