<?xml version="1.0" encoding="utf-8" standalone="no"?>
<!DOCTYPE svg PUBLIC "-//W3C//DTD SVG 1.1//EN"
  "http://www.w3.org/Graphics/SVG/1.1/DTD/svg11.dtd">
<svg xmlns:xlink="http://www.w3.org/1999/xlink" width="576pt" height="820.697178pt" viewBox="0 0 576 820.697178" xmlns="http://www.w3.org/2000/svg" version="1.1">
 <metadata>
  <rdf:RDF xmlns:dc="http://purl.org/dc/elements/1.1/" xmlns:cc="http://creativecommons.org/ns#" xmlns:rdf="http://www.w3.org/1999/02/22-rdf-syntax-ns#">
   <cc:Work>
    <dc:type rdf:resource="http://purl.org/dc/dcmitype/StillImage"/>
    <dc:date>2025-07-25T22:45:04.361131</dc:date>
    <dc:format>image/svg+xml</dc:format>
    <dc:creator>
     <cc:Agent>
      <dc:title>Matplotlib v3.10.3, https://matplotlib.org/</dc:title>
     </cc:Agent>
    </dc:creator>
   </cc:Work>
  </rdf:RDF>
 </metadata>
 <defs>
  <style type="text/css">*{stroke-linejoin: round; stroke-linecap: butt}</style>
 </defs>
 <g id="figure_1">
  <g id="patch_1">
   <path d="M 0 820.697178 
L 576 820.697178 
L 576 0 
L 0 0 
L 0 820.697178 
z
" style="fill: none; opacity: 0"/>
  </g>
  <g id="axes_1">
   <g id="QuadContourSet_1">
    <path d="M 289.645714 820.697178 
L 290.46162 820.697178 
L 292.937143 819.303036 
L 296.228571 817.842004 
L 296.701703 817.401205 
L 299.52 815.658222 
L 302.157975 814.105233 
L 302.811429 813.529516 
L 306.102857 812.39101 
L 308.672207 810.80926 
L 309.394286 810.246582 
L 312.685714 809.733173 
L 315.594547 807.513287 
L 315.977143 807.221788 
L 317.815963 807.513287 
L 319.268571 807.736835 
L 319.624402 807.513287 
L 322.56 805.366589 
L 324.675685 804.217315 
L 325.851429 803.555862 
L 329.142857 801.568632 
L 329.795636 800.921342 
L 332.434286 799.008822 
L 334.969767 797.62537 
L 335.725714 797.028068 
L 339.017143 796.042361 
L 341.383691 794.329397 
L 342.308571 793.628418 
L 345.6 793.526289 
L 348.891429 791.799569 
L 352.182857 791.608933 
L 352.763472 791.033424 
L 355.474286 788.785306 
L 356.844173 787.737452 
L 358.765714 786.16634 
L 361.183021 784.441479 
L 362.057143 783.744146 
L 365.348571 781.920726 
L 366.335973 781.145507 
L 368.64 779.748484 
L 371.17628 777.849534 
L 371.931429 777.151543 
L 375.222857 776.541005 
L 378.514286 774.650779 
L 378.611889 774.553561 
L 381.805714 771.989438 
L 382.66384 771.257589 
L 385.097143 769.281062 
L 386.875979 767.961616 
L 388.388571 766.907419 
L 391.348293 764.665644 
L 391.68 764.333355 
L 394.971429 762.309526 
L 396.175189 761.369671 
L 398.262857 759.96734 
L 400.596141 758.073698 
L 401.554286 757.263271 
L 404.823162 754.777726 
L 404.845714 754.755131 
L 408.137143 753.299551 
L 410.53127 751.481753 
L 411.428571 750.96493 
L 414.72 748.275881 
L 414.810293 748.185781 
L 418.011429 745.490081 
L 418.647915 744.889808 
L 421.302857 742.836856 
L 422.831657 741.593835 
L 424.594286 740.289573 
L 427.30523 738.297863 
L 427.885714 737.716863 
L 431.177143 736.555553 
L 434.468571 735.040743 
L 434.503053 735.00189 
L 437.76 732.756235 
L 438.734226 731.705918 
L 441.051429 729.906164 
L 442.467425 728.409945 
L 444.342857 726.817992 
L 445.972275 725.113972 
L 447.634286 723.478067 
L 449.774136 721.818 
L 450.925714 720.847268 
L 454.217143 718.572779 
L 454.302048 718.522027 
L 457.508571 717.01041 
L 460.120876 715.226055 
L 460.8 714.843108 
L 464.091429 713.933009 
L 465.606645 711.930082 
L 467.382857 710.956063 
L 469.429831 708.634109 
L 470.674286 707.743581 
L 472.890764 705.338137 
L 473.965714 704.512903 
L 476.64789 702.042164 
L 477.257143 701.447957 
L 480.548571 699.452041 
L 481.51047 698.746192 
L 483.84 697.290334 
L 486.218948 695.450219 
L 487.131429 694.8036 
L 490.422857 692.633797 
L 493.714286 692.623772 
L 494.184336 692.154246 
L 497.005714 689.44302 
L 497.591059 688.858274 
L 500.297143 685.958619 
L 500.69304 685.562301 
L 503.588571 682.444272 
L 503.788112 682.266329 
L 506.88 679.979878 
L 508.138384 678.970356 
L 510.171429 677.526251 
L 512.462675 675.674383 
L 513.462857 674.797923 
L 516.754286 673.100847 
L 520.045714 672.490664 
L 520.145212 672.378411 
L 523.337143 670.018564 
L 524.200341 669.082438 
L 526.628571 667.124088 
L 527.886701 665.786466 
L 529.92 663.747958 
L 531.10667 662.490493 
L 533.211429 660.450922 
L 534.853048 659.19452 
L 536.502857 657.960913 
L 539.318989 655.898548 
L 539.794286 655.422381 
L 543.085714 653.913995 
L 545.26014 652.602575 
L 546.377143 652.067 
L 549.095872 652.602575 
L 549.668571 652.760018 
L 549.768013 652.602575 
L 552.96 650.108157 
L 553.680064 649.306603 
L 556.251429 646.212746 
L 556.45271 646.01063 
L 558.561322 642.714657 
L 559.542857 641.948455 
L 561.823107 639.418685 
L 562.834286 638.469521 
L 566.125714 636.226897 
L 566.277031 636.122712 
L 569.417143 634.319995 
L 571.433662 632.82674 
L 572.708571 632.017192 
L 575.905779 629.530767 
L 576 629.44692 
L 576 628.470022 
L 574.808003 629.530767 
L 572.708571 631.163467 
L 570.089179 632.82674 
L 569.417143 633.32439 
L 566.125714 635.181608 
L 565.183843 636.122712 
L 562.834286 637.753354 
L 561.060148 639.418685 
L 559.542857 641.102009 
L 557.47699 642.714657 
L 556.251429 644.668087 
L 553.816822 646.01063 
L 552.96 648.856854 
L 549.668571 648.63511 
L 548.632203 649.306603 
L 546.377143 650.850766 
L 543.085714 652.408819 
L 542.892362 652.602575 
L 539.794286 654.564702 
L 538.462876 655.898548 
L 536.502857 657.333948 
L 534.014553 659.19452 
L 533.211429 659.809186 
L 530.444422 662.490493 
L 529.92 663.046202 
L 527.186738 665.786466 
L 526.628571 666.379899 
L 523.337143 668.982105 
L 523.034959 669.082438 
L 520.045714 670.427018 
L 516.754286 671.545122 
L 515.922036 672.378411 
L 513.462857 674.064927 
L 511.626209 675.674383 
L 510.171429 676.850189 
L 507.186608 678.970356 
L 506.88 679.216329 
L 503.588571 681.412112 
L 502.735729 682.266329 
L 500.297143 684.939914 
L 499.395042 685.562301 
L 497.005714 688.336926 
L 493.718465 688.858274 
L 493.714286 688.860852 
L 490.422857 691.196157 
L 489.466891 692.154246 
L 487.131429 694.005354 
L 485.092498 695.450219 
L 483.84 696.419026 
L 480.548571 698.358458 
L 480.161774 698.746192 
L 477.257143 700.636231 
L 475.815612 702.042164 
L 473.965714 703.746234 
L 471.8921 705.338137 
L 470.674286 706.659776 
L 467.915284 708.634109 
L 467.382857 709.23806 
L 464.091429 711.336787 
L 463.39471 711.930082 
L 460.8 713.846526 
L 458.35352 715.226055 
L 457.508571 715.803204 
L 454.217143 717.567526 
L 453.266788 718.522027 
L 450.925714 720.159671 
L 448.95844 721.818 
L 447.634286 722.845262 
L 445.329371 725.113972 
L 444.342857 726.145653 
L 441.675363 728.409945 
L 441.051429 729.069229 
L 437.76 731.578937 
L 437.52802 731.705918 
L 434.468571 733.563351 
L 431.177143 734.712308 
L 430.887737 735.00189 
L 427.885714 736.917375 
L 426.506452 738.297863 
L 424.594286 739.702717 
L 422.038558 741.593835 
L 421.302857 742.192012 
L 418.011429 744.593675 
L 417.715086 744.889808 
L 414.72 747.282543 
L 413.718161 748.185781 
L 411.428571 750.058027 
L 408.956718 751.481753 
L 408.137143 752.104035 
L 404.845714 753.790042 
L 403.85988 754.777726 
L 401.554286 756.530824 
L 399.73019 758.073698 
L 398.262857 759.264553 
L 395.128941 761.369671 
L 394.971429 761.492651 
L 391.68 763.459698 
L 390.476164 764.665644 
L 388.388571 766.246844 
L 385.928168 767.961616 
L 385.097143 768.578026 
L 381.805714 771.245873 
L 381.793432 771.257589 
L 378.514286 773.624539 
L 375.783245 774.553561 
L 375.222857 774.861583 
L 371.931429 776.384941 
L 370.346902 777.849534 
L 368.64 779.127517 
L 365.348571 781.096725 
L 365.299838 781.145507 
L 362.057143 782.976685 
L 360.220991 784.441479 
L 358.765714 785.479887 
L 356.00461 787.737452 
L 355.474286 788.143108 
L 352.182857 790.375188 
L 348.891429 790.18709 
L 347.531744 791.033424 
L 345.6 792.377207 
L 342.308571 792.860662 
L 340.370704 794.329397 
L 339.017143 795.309137 
L 335.725714 796.227671 
L 333.95678 797.62537 
L 332.434286 798.456099 
L 329.142857 800.731978 
L 328.855438 800.921342 
L 325.851429 802.504098 
L 322.806158 804.217315 
L 322.56 804.351032 
L 319.268571 806.413565 
L 315.977143 806.32305 
L 314.414942 807.513287 
L 312.685714 808.832954 
L 309.394286 809.428197 
L 307.621983 810.80926 
L 306.102857 811.744469 
L 302.811429 812.715216 
L 301.233723 814.105233 
L 299.52 815.11411 
L 296.228571 816.857913 
L 295.42299 817.401205 
L 292.937143 818.519204 
L 289.645714 820.204404 
L 288.906416 820.697178 
z
" clip-path="url(#pe46b7d94fa)" style="fill: #f5f9fe; fill-opacity: 0.9"/>
    <path d="M 292.937143 820.086868 
L 296.228571 818.661675 
L 297.581498 817.401205 
L 299.52 816.202334 
L 302.811429 814.454449 
L 303.307407 814.105233 
L 306.102857 813.037552 
L 309.394286 811.556149 
L 311.419467 810.80926 
L 312.685714 810.633392 
L 313.805296 810.80926 
L 315.977143 811.232397 
L 316.407205 810.80926 
L 319.268571 808.609317 
L 321.01317 807.513287 
L 322.56 806.382146 
L 325.851429 804.636924 
L 326.276446 804.217315 
L 329.142857 802.324797 
L 330.558213 800.921342 
L 332.434286 799.561546 
L 335.725714 797.990821 
L 336.316905 797.62537 
L 339.017143 796.775586 
L 342.308571 794.76034 
L 345.6 795.11373 
L 348.891429 794.785801 
L 349.353922 794.329397 
L 352.182857 792.376495 
L 353.537844 791.033424 
L 355.474286 789.427505 
L 357.683736 787.737452 
L 358.765714 786.852793 
L 362.057143 784.557772 
L 362.192229 784.441479 
L 365.348571 782.724777 
L 367.360098 781.145507 
L 368.64 780.369451 
L 371.931429 778.127223 
L 375.222857 778.115874 
L 375.490711 777.849534 
L 378.514286 775.566559 
L 379.53131 774.553561 
L 381.805714 772.727584 
L 383.529348 771.257589 
L 385.097143 769.984099 
L 387.823791 767.961616 
L 388.388571 767.567994 
L 391.68 765.328867 
L 392.494532 764.665644 
L 394.971429 763.1264 
L 397.221436 761.369671 
L 398.262857 760.670127 
L 401.462093 758.073698 
L 401.554286 757.995719 
L 404.845714 756.490244 
L 407.495605 754.777726 
L 408.137143 754.495068 
L 411.428571 751.973586 
L 411.921847 751.481753 
L 414.72 749.207844 
L 415.744243 748.185781 
L 418.011429 746.276568 
L 419.481848 744.889808 
L 421.302857 743.481701 
L 423.624756 741.593835 
L 424.594286 740.876429 
L 427.885714 739.182433 
L 431.177143 739.011073 
L 431.707922 738.297863 
L 434.468571 736.939212 
L 436.187943 735.00189 
L 437.76 733.917962 
L 439.81179 731.705918 
L 441.051429 730.7431 
L 443.259487 728.409945 
L 444.342857 727.49033 
L 446.615179 725.113972 
L 447.634286 724.110873 
L 450.589831 721.818 
L 450.925714 721.534865 
L 454.217143 720.103499 
L 456.86284 718.522027 
L 457.508571 718.217617 
L 459.040053 718.522027 
L 460.8 718.874439 
L 461.153486 718.522027 
L 464.091429 715.958198 
L 464.825397 715.226055 
L 467.382857 712.434519 
L 467.887705 711.930082 
L 470.674286 708.862939 
L 470.902779 708.634109 
L 473.889429 705.338137 
L 473.965714 705.279573 
L 477.257143 702.374361 
L 477.747229 702.042164 
L 480.548571 700.475109 
L 482.904658 698.746192 
L 483.84 698.161643 
L 487.131429 697.226267 
L 490.422857 696.191765 
L 491.165742 695.450219 
L 493.714286 693.45328 
L 495.014772 692.154246 
L 497.005714 690.241034 
L 498.38989 688.858274 
L 500.297143 686.814592 
L 501.548104 685.562301 
L 503.588571 683.36504 
L 504.820633 682.266329 
L 506.88 680.743427 
L 509.090159 678.970356 
L 510.171429 678.202312 
L 513.299141 675.674383 
L 513.462857 675.530919 
L 515.044615 675.674383 
L 516.754286 676.355942 
L 517.291398 675.674383 
L 520.045714 674.017746 
L 521.498768 672.378411 
L 523.337143 671.019271 
L 525.123088 669.082438 
L 526.628571 667.868277 
L 528.586664 665.786466 
L 529.92 664.449715 
L 531.768917 662.490493 
L 533.211429 661.092659 
L 535.691543 659.19452 
L 536.502857 658.587879 
L 539.794286 656.815493 
L 541.767343 655.898548 
L 543.085714 655.443843 
L 544.941696 655.898548 
L 546.377143 658.386873 
L 547.078362 655.898548 
L 549.668571 654.457316 
L 550.840034 652.602575 
L 552.96 650.945901 
L 554.432638 649.306603 
L 556.251429 647.11824 
L 557.354469 646.01063 
L 559.542857 642.838572 
L 559.666039 642.714657 
L 562.586065 639.418685 
L 562.834286 639.185687 
L 566.125714 637.420937 
L 568.011253 636.122712 
L 569.417143 635.3156 
L 572.708571 633.30643 
L 574.503912 636.122712 
L 576 636.435779 
L 576 636.122712 
L 576 632.82674 
L 576 629.530767 
L 576 629.44692 
L 575.905779 629.530767 
L 572.708571 632.017192 
L 571.433662 632.82674 
L 569.417143 634.319995 
L 566.277031 636.122712 
L 566.125714 636.226897 
L 562.834286 638.469521 
L 561.823107 639.418685 
L 559.542857 641.948455 
L 558.561322 642.714657 
L 556.45271 646.01063 
L 556.251429 646.212746 
L 553.680064 649.306603 
L 552.96 650.108157 
L 549.768013 652.602575 
L 549.668571 652.760018 
L 549.095872 652.602575 
L 546.377143 652.067 
L 545.26014 652.602575 
L 543.085714 653.913995 
L 539.794286 655.422381 
L 539.318989 655.898548 
L 536.502857 657.960913 
L 534.853048 659.19452 
L 533.211429 660.450922 
L 531.10667 662.490493 
L 529.92 663.747958 
L 527.886701 665.786466 
L 526.628571 667.124088 
L 524.200341 669.082438 
L 523.337143 670.018564 
L 520.145212 672.378411 
L 520.045714 672.490664 
L 516.754286 673.100847 
L 513.462857 674.797923 
L 512.462675 675.674383 
L 510.171429 677.526251 
L 508.138384 678.970356 
L 506.88 679.979878 
L 503.788112 682.266329 
L 503.588571 682.444272 
L 500.69304 685.562301 
L 500.297143 685.958619 
L 497.591059 688.858274 
L 497.005714 689.44302 
L 494.184336 692.154246 
L 493.714286 692.623772 
L 490.422857 692.633797 
L 487.131429 694.8036 
L 486.218948 695.450219 
L 483.84 697.290334 
L 481.51047 698.746192 
L 480.548571 699.452041 
L 477.257143 701.447957 
L 476.64789 702.042164 
L 473.965714 704.512903 
L 472.890764 705.338137 
L 470.674286 707.743581 
L 469.429831 708.634109 
L 467.382857 710.956063 
L 465.606645 711.930082 
L 464.091429 713.933009 
L 460.8 714.843108 
L 460.120876 715.226055 
L 457.508571 717.01041 
L 454.302048 718.522027 
L 454.217143 718.572779 
L 450.925714 720.847268 
L 449.774136 721.818 
L 447.634286 723.478067 
L 445.972275 725.113972 
L 444.342857 726.817992 
L 442.467425 728.409945 
L 441.051429 729.906164 
L 438.734226 731.705918 
L 437.76 732.756235 
L 434.503053 735.00189 
L 434.468571 735.040743 
L 431.177143 736.555553 
L 427.885714 737.716863 
L 427.30523 738.297863 
L 424.594286 740.289573 
L 422.831657 741.593835 
L 421.302857 742.836856 
L 418.647915 744.889808 
L 418.011429 745.490081 
L 414.810293 748.185781 
L 414.72 748.275881 
L 411.428571 750.96493 
L 410.53127 751.481753 
L 408.137143 753.299551 
L 404.845714 754.755131 
L 404.823162 754.777726 
L 401.554286 757.263271 
L 400.596141 758.073698 
L 398.262857 759.96734 
L 396.175189 761.369671 
L 394.971429 762.309526 
L 391.68 764.333355 
L 391.348293 764.665644 
L 388.388571 766.907419 
L 386.875979 767.961616 
L 385.097143 769.281062 
L 382.66384 771.257589 
L 381.805714 771.989438 
L 378.611889 774.553561 
L 378.514286 774.650779 
L 375.222857 776.541005 
L 371.931429 777.151543 
L 371.17628 777.849534 
L 368.64 779.748484 
L 366.335973 781.145507 
L 365.348571 781.920726 
L 362.057143 783.744146 
L 361.183021 784.441479 
L 358.765714 786.16634 
L 356.844173 787.737452 
L 355.474286 788.785306 
L 352.763472 791.033424 
L 352.182857 791.608933 
L 348.891429 791.799569 
L 345.6 793.526289 
L 342.308571 793.628418 
L 341.383691 794.329397 
L 339.017143 796.042361 
L 335.725714 797.028068 
L 334.969767 797.62537 
L 332.434286 799.008822 
L 329.795636 800.921342 
L 329.142857 801.568632 
L 325.851429 803.555862 
L 324.675685 804.217315 
L 322.56 805.366589 
L 319.624402 807.513287 
L 319.268571 807.736835 
L 317.815963 807.513287 
L 315.977143 807.221788 
L 315.594547 807.513287 
L 312.685714 809.733173 
L 309.394286 810.246582 
L 308.672207 810.80926 
L 306.102857 812.39101 
L 302.811429 813.529516 
L 302.157975 814.105233 
L 299.52 815.658222 
L 296.701703 817.401205 
L 296.228571 817.842004 
L 292.937143 819.303036 
L 290.46162 820.697178 
L 291.85344 820.697178 
z
" clip-path="url(#pe46b7d94fa)" style="fill: #eff6fc; fill-opacity: 0.9"/>
    <path d="M 292.937143 820.697178 
L 293.364579 820.697178 
L 296.228571 819.481346 
L 298.461294 817.401205 
L 299.52 816.746445 
L 302.811429 815.646344 
L 305.000211 814.105233 
L 306.102857 813.684093 
L 309.394286 813.946558 
L 309.778866 814.105233 
L 312.685714 814.882975 
L 313.481676 814.105233 
L 315.977143 812.348924 
L 317.542003 810.80926 
L 319.268571 809.4818 
L 322.401938 807.513287 
L 322.56 807.397703 
L 325.851429 805.767636 
L 327.421734 804.217315 
L 329.142857 803.080961 
L 331.32079 800.921342 
L 332.434286 800.114269 
L 335.725714 799.431054 
L 338.64677 797.62537 
L 339.017143 797.508811 
L 339.918153 797.62537 
L 342.308571 798.412488 
L 345.6 797.696215 
L 345.672649 797.62537 
L 348.891429 795.883039 
L 350.465797 794.329397 
L 352.182857 793.144057 
L 354.312217 791.033424 
L 355.474286 790.069704 
L 358.523299 787.737452 
L 358.765714 787.539245 
L 362.057143 785.830442 
L 363.670565 784.441479 
L 365.348571 783.528829 
L 368.384223 781.145507 
L 368.64 780.990419 
L 371.608152 781.145507 
L 371.931429 781.203033 
L 371.989592 781.145507 
L 375.222857 779.32188 
L 376.703571 777.849534 
L 378.514286 776.482339 
L 380.45073 774.553561 
L 381.805714 773.465729 
L 384.394857 771.257589 
L 385.097143 770.687135 
L 388.388571 768.669856 
L 389.10219 767.961616 
L 391.68 766.399172 
L 393.809018 764.665644 
L 394.971429 763.943275 
L 398.262857 761.381927 
L 398.289306 761.369671 
L 401.554286 760.086625 
L 404.845714 758.276879 
L 405.050184 758.073698 
L 408.137143 755.907197 
L 409.271334 754.777726 
L 411.428571 753.117054 
L 413.06867 751.481753 
L 414.72 750.139806 
L 416.678194 748.185781 
L 418.011429 747.063054 
L 420.315781 744.889808 
L 421.302857 744.126545 
L 424.417855 741.593835 
L 424.594286 741.463285 
L 426.127812 741.593835 
L 427.885714 744.321126 
L 431.177143 742.425772 
L 432.012231 741.593835 
L 434.468571 738.830323 
L 435.003973 738.297863 
L 437.76 735.146093 
L 437.905391 735.00189 
L 440.889354 731.705918 
L 441.051429 731.580035 
L 444.051549 728.409945 
L 444.342857 728.162669 
L 447.258083 725.113972 
L 447.634286 724.743679 
L 450.925714 723.048039 
L 453.659211 721.818 
L 454.217143 721.634218 
L 454.950348 721.818 
L 457.508571 722.563818 
L 458.258203 721.818 
L 460.8 720.090584 
L 462.373335 718.522027 
L 464.091429 717.022713 
L 465.892565 715.226055 
L 467.382857 713.599362 
L 469.053496 711.930082 
L 470.674286 710.146106 
L 472.18406 708.634109 
L 473.965714 706.653616 
L 475.279247 705.338137 
L 477.257143 703.61404 
L 479.576113 702.042164 
L 480.548571 701.498177 
L 483.84 701.793554 
L 487.131429 700.110551 
L 488.353916 698.746192 
L 490.422857 697.248497 
L 492.224381 695.450219 
L 493.714286 694.282788 
L 495.845208 692.154246 
L 497.005714 691.039048 
L 499.188721 688.858274 
L 500.297143 687.670565 
L 502.403167 685.562301 
L 503.588571 684.285808 
L 505.853153 682.266329 
L 506.88 681.506976 
L 510.041934 678.970356 
L 510.171429 678.878374 
L 511.093529 678.970356 
L 513.259609 682.266329 
L 513.462857 682.341928 
L 513.538756 682.266329 
L 516.754286 679.356413 
L 517.141685 678.970356 
L 519.830315 675.674383 
L 520.045714 675.544827 
L 522.852325 672.378411 
L 523.337143 672.019977 
L 526.045835 669.082438 
L 526.628571 668.612466 
L 529.286628 665.786466 
L 529.92 665.151471 
L 532.431164 662.490493 
L 533.211429 661.734395 
L 536.502857 659.296921 
L 537.074929 659.19452 
L 539.794286 658.876882 
L 540.763153 659.19452 
L 542.720224 662.490493 
L 543.085714 662.62745 
L 543.221667 662.490493 
L 546.377143 660.49283 
L 547.668798 659.19452 
L 549.668571 656.212554 
L 549.980153 655.898548 
L 551.912055 652.602575 
L 552.96 651.783645 
L 555.185212 649.306603 
L 556.251429 648.023734 
L 558.256228 646.01063 
L 559.542857 644.145667 
L 560.965411 642.714657 
L 562.834286 640.471081 
L 564.481908 639.418685 
L 566.125714 638.614978 
L 569.417143 637.859132 
L 570.430459 639.418685 
L 572.708571 640.574 
L 573.409736 639.418685 
L 576 637.672352 
L 576 636.435779 
L 574.503912 636.122712 
L 572.708571 633.30643 
L 569.417143 635.3156 
L 568.011253 636.122712 
L 566.125714 637.420937 
L 562.834286 639.185687 
L 562.586065 639.418685 
L 559.666039 642.714657 
L 559.542857 642.838572 
L 557.354469 646.01063 
L 556.251429 647.11824 
L 554.432638 649.306603 
L 552.96 650.945901 
L 550.840034 652.602575 
L 549.668571 654.457316 
L 547.078362 655.898548 
L 546.377143 658.386873 
L 544.941696 655.898548 
L 543.085714 655.443843 
L 541.767343 655.898548 
L 539.794286 656.815493 
L 536.502857 658.587879 
L 535.691543 659.19452 
L 533.211429 661.092659 
L 531.768917 662.490493 
L 529.92 664.449715 
L 528.586664 665.786466 
L 526.628571 667.868277 
L 525.123088 669.082438 
L 523.337143 671.019271 
L 521.498768 672.378411 
L 520.045714 674.017746 
L 517.291398 675.674383 
L 516.754286 676.355942 
L 515.044615 675.674383 
L 513.462857 675.530919 
L 513.299141 675.674383 
L 510.171429 678.202312 
L 509.090159 678.970356 
L 506.88 680.743427 
L 504.820633 682.266329 
L 503.588571 683.36504 
L 501.548104 685.562301 
L 500.297143 686.814592 
L 498.38989 688.858274 
L 497.005714 690.241034 
L 495.014772 692.154246 
L 493.714286 693.45328 
L 491.165742 695.450219 
L 490.422857 696.191765 
L 487.131429 697.226267 
L 483.84 698.161643 
L 482.904658 698.746192 
L 480.548571 700.475109 
L 477.747229 702.042164 
L 477.257143 702.374361 
L 473.965714 705.279573 
L 473.889429 705.338137 
L 470.902779 708.634109 
L 470.674286 708.862939 
L 467.887705 711.930082 
L 467.382857 712.434519 
L 464.825397 715.226055 
L 464.091429 715.958198 
L 461.153486 718.522027 
L 460.8 718.874439 
L 459.040053 718.522027 
L 457.508571 718.217617 
L 456.86284 718.522027 
L 454.217143 720.103499 
L 450.925714 721.534865 
L 450.589831 721.818 
L 447.634286 724.110873 
L 446.615179 725.113972 
L 444.342857 727.49033 
L 443.259487 728.409945 
L 441.051429 730.7431 
L 439.81179 731.705918 
L 437.76 733.917962 
L 436.187943 735.00189 
L 434.468571 736.939212 
L 431.707922 738.297863 
L 431.177143 739.011073 
L 427.885714 739.182433 
L 424.594286 740.876429 
L 423.624756 741.593835 
L 421.302857 743.481701 
L 419.481848 744.889808 
L 418.011429 746.276568 
L 415.744243 748.185781 
L 414.72 749.207844 
L 411.921847 751.481753 
L 411.428571 751.973586 
L 408.137143 754.495068 
L 407.495605 754.777726 
L 404.845714 756.490244 
L 401.554286 757.995719 
L 401.462093 758.073698 
L 398.262857 760.670127 
L 397.221436 761.369671 
L 394.971429 763.1264 
L 392.494532 764.665644 
L 391.68 765.328867 
L 388.388571 767.567994 
L 387.823791 767.961616 
L 385.097143 769.984099 
L 383.529348 771.257589 
L 381.805714 772.727584 
L 379.53131 774.553561 
L 378.514286 775.566559 
L 375.490711 777.849534 
L 375.222857 778.115874 
L 371.931429 778.127223 
L 368.64 780.369451 
L 367.360098 781.145507 
L 365.348571 782.724777 
L 362.192229 784.441479 
L 362.057143 784.557772 
L 358.765714 786.852793 
L 357.683736 787.737452 
L 355.474286 789.427505 
L 353.537844 791.033424 
L 352.182857 792.376495 
L 349.353922 794.329397 
L 348.891429 794.785801 
L 345.6 795.11373 
L 342.308571 794.76034 
L 339.017143 796.775586 
L 336.316905 797.62537 
L 335.725714 797.990821 
L 332.434286 799.561546 
L 330.558213 800.921342 
L 329.142857 802.324797 
L 326.276446 804.217315 
L 325.851429 804.636924 
L 322.56 806.382146 
L 321.01317 807.513287 
L 319.268571 808.609317 
L 316.407205 810.80926 
L 315.977143 811.232397 
L 313.805296 810.80926 
L 312.685714 810.633392 
L 311.419467 810.80926 
L 309.394286 811.556149 
L 306.102857 813.037552 
L 303.307407 814.105233 
L 302.811429 814.454449 
L 299.52 816.202334 
L 297.581498 817.401205 
L 296.228571 818.661675 
L 292.937143 820.086868 
L 291.85344 820.697178 
z
" clip-path="url(#pe46b7d94fa)" style="fill: #eaf3fb; fill-opacity: 0.9"/>
    <path d="M 296.228571 820.301017 
L 299.341089 817.401205 
L 299.52 817.290557 
L 302.811429 816.83824 
L 305.742066 817.401205 
L 306.102857 817.700235 
L 309.394286 818.983816 
L 311.039924 817.401205 
L 312.685714 816.433088 
L 315.068103 814.105233 
L 315.977143 813.465451 
L 318.676802 810.80926 
L 319.268571 810.354282 
L 322.56 809.49877 
L 324.599681 807.513287 
L 325.851429 806.898349 
L 328.567022 804.217315 
L 329.142857 803.837126 
L 332.083367 800.921342 
L 332.434286 800.666993 
L 335.725714 800.871288 
L 335.924788 800.921342 
L 339.017143 802.494641 
L 341.026921 800.921342 
L 342.308571 800.278809 
L 345.6 799.672931 
L 347.699685 797.62537 
L 348.891429 796.980277 
L 351.577673 794.329397 
L 352.182857 793.91162 
L 355.08659 791.033424 
L 355.474286 790.711903 
L 358.765714 789.619673 
L 360.700966 787.737452 
L 362.057143 787.103111 
L 365.148901 784.441479 
L 365.348571 784.332881 
L 368.64 783.780114 
L 371.931429 783.317849 
L 374.127823 781.145507 
L 375.222857 780.527885 
L 377.916431 777.849534 
L 378.514286 777.398119 
L 381.370151 774.553561 
L 381.805714 774.203874 
L 385.097143 772.169128 
L 386.030345 771.257589 
L 388.388571 770.422398 
L 390.868041 767.961616 
L 391.68 767.469477 
L 394.971429 765.317435 
L 396.05387 764.665644 
L 398.262857 764.038447 
L 401.554286 762.913063 
L 403.116072 761.369671 
L 404.845714 760.371242 
L 407.157837 758.073698 
L 408.137143 757.386398 
L 410.756717 754.777726 
L 411.428571 754.260523 
L 414.215494 751.481753 
L 414.72 751.071768 
L 417.612145 748.185781 
L 418.011429 747.849541 
L 421.149715 744.889808 
L 421.302857 744.77139 
L 422.389858 744.889808 
L 424.189537 748.185781 
L 424.594286 748.551407 
L 424.966086 748.185781 
L 427.885714 747.052383 
L 430.060728 744.889808 
L 431.177143 744.083941 
L 433.676681 741.593835 
L 434.468571 740.702917 
L 436.88691 738.297863 
L 437.76 737.299404 
L 440.076446 735.00189 
L 441.051429 733.86214 
L 443.229166 731.705918 
L 444.342857 730.363422 
L 446.320717 728.409945 
L 447.634286 726.752012 
L 450.925714 725.232446 
L 454.217143 726.934209 
L 456.057037 725.113972 
L 457.508571 724.344205 
L 460.047692 721.818 
L 460.8 721.306728 
L 463.593184 718.522027 
L 464.091429 718.087228 
L 466.959733 715.226055 
L 467.382857 714.764204 
L 470.219287 711.930082 
L 470.674286 711.429272 
L 473.465341 708.634109 
L 473.965714 708.077892 
L 476.701416 705.338137 
L 477.257143 704.85372 
L 479.831431 705.338137 
L 480.548571 706.474638 
L 483.84 705.870761 
L 484.382214 705.338137 
L 486.604176 702.042164 
L 487.131429 701.739747 
L 489.813703 698.746192 
L 490.422857 698.305228 
L 493.283019 695.450219 
L 493.714286 695.112295 
L 496.675644 692.154246 
L 497.005714 691.837063 
L 499.987552 688.858274 
L 500.297143 688.526538 
L 503.258231 685.562301 
L 503.588571 685.206577 
L 506.88 682.31482 
L 509.124835 685.562301 
L 510.171429 686.492448 
L 511.112341 685.562301 
L 513.462857 684.596098 
L 515.801868 682.266329 
L 516.754286 681.404432 
L 519.196822 678.970356 
L 520.045714 677.945352 
L 522.311361 675.674383 
L 523.337143 674.381339 
L 525.323839 672.378411 
L 526.628571 670.619803 
L 528.150024 669.082438 
L 529.92 666.385095 
L 530.509741 665.786466 
L 533.093412 662.490493 
L 533.211429 662.376131 
L 536.502857 662.455882 
L 536.572229 662.490493 
L 538.61119 665.786466 
L 539.794286 667.930369 
L 540.854873 665.786466 
L 543.085714 664.859949 
L 545.437807 662.490493 
L 546.377143 661.89582 
L 549.064597 659.19452 
L 549.668571 658.293903 
L 552.04543 655.898548 
L 552.96 652.761661 
L 553.115037 652.602575 
L 555.937786 649.306603 
L 556.251429 648.929228 
L 559.157986 646.01063 
L 559.542857 645.452762 
L 562.264783 642.714657 
L 562.834286 642.030971 
L 566.125714 642.385504 
L 566.343685 642.714657 
L 568.204776 646.01063 
L 569.417143 647.113428 
L 570.498582 646.01063 
L 572.708571 644.055365 
L 574.026197 642.714657 
L 575.243894 639.418685 
L 576 638.908925 
L 576 637.672352 
L 573.409736 639.418685 
L 572.708571 640.574 
L 570.430459 639.418685 
L 569.417143 637.859132 
L 566.125714 638.614978 
L 564.481908 639.418685 
L 562.834286 640.471081 
L 560.965411 642.714657 
L 559.542857 644.145667 
L 558.256228 646.01063 
L 556.251429 648.023734 
L 555.185212 649.306603 
L 552.96 651.783645 
L 551.912055 652.602575 
L 549.980153 655.898548 
L 549.668571 656.212554 
L 547.668798 659.19452 
L 546.377143 660.49283 
L 543.221667 662.490493 
L 543.085714 662.62745 
L 542.720224 662.490493 
L 540.763153 659.19452 
L 539.794286 658.876882 
L 537.074929 659.19452 
L 536.502857 659.296921 
L 533.211429 661.734395 
L 532.431164 662.490493 
L 529.92 665.151471 
L 529.286628 665.786466 
L 526.628571 668.612466 
L 526.045835 669.082438 
L 523.337143 672.019977 
L 522.852325 672.378411 
L 520.045714 675.544827 
L 519.830315 675.674383 
L 517.141685 678.970356 
L 516.754286 679.356413 
L 513.538756 682.266329 
L 513.462857 682.341928 
L 513.259609 682.266329 
L 511.093529 678.970356 
L 510.171429 678.878374 
L 510.041934 678.970356 
L 506.88 681.506976 
L 505.853153 682.266329 
L 503.588571 684.285808 
L 502.403167 685.562301 
L 500.297143 687.670565 
L 499.188721 688.858274 
L 497.005714 691.039048 
L 495.845208 692.154246 
L 493.714286 694.282788 
L 492.224381 695.450219 
L 490.422857 697.248497 
L 488.353916 698.746192 
L 487.131429 700.110551 
L 483.84 701.793554 
L 480.548571 701.498177 
L 479.576113 702.042164 
L 477.257143 703.61404 
L 475.279247 705.338137 
L 473.965714 706.653616 
L 472.18406 708.634109 
L 470.674286 710.146106 
L 469.053496 711.930082 
L 467.382857 713.599362 
L 465.892565 715.226055 
L 464.091429 717.022713 
L 462.373335 718.522027 
L 460.8 720.090584 
L 458.258203 721.818 
L 457.508571 722.563818 
L 454.950348 721.818 
L 454.217143 721.634218 
L 453.659211 721.818 
L 450.925714 723.048039 
L 447.634286 724.743679 
L 447.258083 725.113972 
L 444.342857 728.162669 
L 444.051549 728.409945 
L 441.051429 731.580035 
L 440.889354 731.705918 
L 437.905391 735.00189 
L 437.76 735.146093 
L 435.003973 738.297863 
L 434.468571 738.830323 
L 432.012231 741.593835 
L 431.177143 742.425772 
L 427.885714 744.321126 
L 426.127812 741.593835 
L 424.594286 741.463285 
L 424.417855 741.593835 
L 421.302857 744.126545 
L 420.315781 744.889808 
L 418.011429 747.063054 
L 416.678194 748.185781 
L 414.72 750.139806 
L 413.06867 751.481753 
L 411.428571 753.117054 
L 409.271334 754.777726 
L 408.137143 755.907197 
L 405.050184 758.073698 
L 404.845714 758.276879 
L 401.554286 760.086625 
L 398.289306 761.369671 
L 398.262857 761.381927 
L 394.971429 763.943275 
L 393.809018 764.665644 
L 391.68 766.399172 
L 389.10219 767.961616 
L 388.388571 768.669856 
L 385.097143 770.687135 
L 384.394857 771.257589 
L 381.805714 773.465729 
L 380.45073 774.553561 
L 378.514286 776.482339 
L 376.703571 777.849534 
L 375.222857 779.32188 
L 371.989592 781.145507 
L 371.931429 781.203033 
L 371.608152 781.145507 
L 368.64 780.990419 
L 368.384223 781.145507 
L 365.348571 783.528829 
L 363.670565 784.441479 
L 362.057143 785.830442 
L 358.765714 787.539245 
L 358.523299 787.737452 
L 355.474286 790.069704 
L 354.312217 791.033424 
L 352.182857 793.144057 
L 350.465797 794.329397 
L 348.891429 795.883039 
L 345.672649 797.62537 
L 345.6 797.696215 
L 342.308571 798.412488 
L 339.918153 797.62537 
L 339.017143 797.508811 
L 338.64677 797.62537 
L 335.725714 799.431054 
L 332.434286 800.114269 
L 331.32079 800.921342 
L 329.142857 803.080961 
L 327.421734 804.217315 
L 325.851429 805.767636 
L 322.56 807.397703 
L 322.401938 807.513287 
L 319.268571 809.4818 
L 317.542003 810.80926 
L 315.977143 812.348924 
L 313.481676 814.105233 
L 312.685714 814.882975 
L 309.778866 814.105233 
L 309.394286 813.946558 
L 306.102857 813.684093 
L 305.000211 814.105233 
L 302.811429 815.646344 
L 299.52 816.746445 
L 298.461294 817.401205 
L 296.228571 819.481346 
L 293.364579 820.697178 
L 295.295382 820.697178 
z
" clip-path="url(#pe46b7d94fa)" style="fill: #e5eff9; fill-opacity: 0.9"/>
    <path d="M 296.228571 820.697178 
L 299.52 820.697178 
L 302.811429 820.697178 
L 306.102857 820.697178 
L 309.394286 820.697178 
L 312.685714 820.697178 
L 315.977143 820.697178 
L 319.268571 820.697178 
L 322.56 820.697178 
L 325.851429 820.697178 
L 329.142857 820.697178 
L 332.434286 820.697178 
L 335.725714 820.697178 
L 339.017143 820.697178 
L 342.308571 820.697178 
L 345.6 820.697178 
L 348.891429 820.697178 
L 352.182857 820.697178 
L 355.474286 820.697178 
L 358.765714 820.697178 
L 362.057143 820.697178 
L 365.348571 820.697178 
L 366.575616 820.697178 
L 368.64 819.472405 
L 371.931429 817.725633 
L 372.697005 817.401205 
L 375.222857 816.36025 
L 378.514286 814.531417 
L 379.23119 814.105233 
L 381.805714 812.372215 
L 384.696669 810.80926 
L 385.097143 810.559731 
L 388.388571 808.881622 
L 391.68 807.519043 
L 391.689283 807.513287 
L 394.971429 805.318113 
L 396.837288 804.217315 
L 398.262857 803.304385 
L 401.554286 801.375066 
L 402.312496 800.921342 
L 404.845714 799.343738 
L 407.687616 797.62537 
L 408.137143 797.32248 
L 411.428571 795.213543 
L 412.85054 794.329397 
L 414.72 793.071605 
L 418.011429 791.101875 
L 418.112022 791.033424 
L 421.302857 788.8124 
L 422.899836 787.737452 
L 424.594286 786.570142 
L 427.79329 784.441479 
L 427.885714 784.378501 
L 431.177143 782.224993 
L 433.085748 781.145507 
L 434.468571 780.287567 
L 437.76 778.426038 
L 438.677568 777.849534 
L 441.051429 776.163876 
L 443.666299 774.553561 
L 444.342857 774.093622 
L 447.634286 772.076741 
L 449.324965 771.257589 
L 450.925714 770.349264 
L 454.217143 768.549783 
L 455.11199 767.961616 
L 457.508571 766.361332 
L 460.110084 764.665644 
L 460.8 764.208682 
L 464.091429 762.099195 
L 465.374114 761.369671 
L 467.382857 760.026515 
L 469.958762 758.073698 
L 470.674286 757.427494 
L 473.965714 755.007755 
L 474.332357 754.777726 
L 477.257143 752.728381 
L 479.392858 751.481753 
L 480.548571 750.724603 
L 483.84 748.635076 
L 484.464218 748.185781 
L 487.131429 746.239599 
L 489.000347 744.889808 
L 490.422857 743.867861 
L 493.565045 741.593835 
L 493.714286 741.486587 
L 497.005714 739.384841 
L 498.459695 738.297863 
L 500.297143 736.885285 
L 502.983289 735.00189 
L 503.588571 734.546762 
L 506.88 732.332213 
L 507.737631 731.705918 
L 510.171429 729.974304 
L 512.315565 728.409945 
L 513.462857 727.587754 
L 516.754286 725.16363 
L 516.826385 725.113972 
L 520.045714 722.70969 
L 521.391921 721.818 
L 523.337143 720.410863 
L 526.195963 718.522027 
L 526.628571 718.179339 
L 529.92 715.637835 
L 530.513562 715.226055 
L 533.211429 713.191852 
L 535.103073 711.930082 
L 536.502857 710.907578 
L 539.794286 708.754857 
L 539.954201 708.634109 
L 543.085714 706.259391 
L 544.307522 705.338137 
L 546.377143 703.79075 
L 548.689813 702.042164 
L 549.668571 701.311066 
L 552.96 699.062028 
L 553.494644 698.746192 
L 556.251429 696.935775 
L 558.137072 695.450219 
L 559.542857 694.295719 
L 562.13422 692.154246 
L 562.834286 691.578675 
L 566.122645 688.858274 
L 566.125714 688.855951 
L 569.417143 686.382877 
L 570.56311 685.562301 
L 572.708571 684.364099 
L 575.839564 682.266329 
L 576 682.169608 
L 576 678.970356 
L 576 675.674383 
L 576 672.378411 
L 576 669.082438 
L 576 665.786466 
L 576 662.490493 
L 576 659.19452 
L 576 655.898548 
L 576 652.602575 
L 576 649.306603 
L 576 646.01063 
L 576 642.714657 
L 576 639.418685 
L 576 638.908925 
L 575.243894 639.418685 
L 574.026197 642.714657 
L 572.708571 644.055365 
L 570.498582 646.01063 
L 569.417143 647.113428 
L 568.204776 646.01063 
L 566.343685 642.714657 
L 566.125714 642.385504 
L 562.834286 642.030971 
L 562.264783 642.714657 
L 559.542857 645.452762 
L 559.157986 646.01063 
L 556.251429 648.929228 
L 555.937786 649.306603 
L 553.115037 652.602575 
L 552.96 652.761661 
L 552.04543 655.898548 
L 549.668571 658.293903 
L 549.064597 659.19452 
L 546.377143 661.89582 
L 545.437807 662.490493 
L 543.085714 664.859949 
L 540.854873 665.786466 
L 539.794286 667.930369 
L 538.61119 665.786466 
L 536.572229 662.490493 
L 536.502857 662.455882 
L 533.211429 662.376131 
L 533.093412 662.490493 
L 530.509741 665.786466 
L 529.92 666.385095 
L 528.150024 669.082438 
L 526.628571 670.619803 
L 525.323839 672.378411 
L 523.337143 674.381339 
L 522.311361 675.674383 
L 520.045714 677.945352 
L 519.196822 678.970356 
L 516.754286 681.404432 
L 515.801868 682.266329 
L 513.462857 684.596098 
L 511.112341 685.562301 
L 510.171429 686.492448 
L 509.124835 685.562301 
L 506.88 682.31482 
L 503.588571 685.206577 
L 503.258231 685.562301 
L 500.297143 688.526538 
L 499.987552 688.858274 
L 497.005714 691.837063 
L 496.675644 692.154246 
L 493.714286 695.112295 
L 493.283019 695.450219 
L 490.422857 698.305228 
L 489.813703 698.746192 
L 487.131429 701.739747 
L 486.604176 702.042164 
L 484.382214 705.338137 
L 483.84 705.870761 
L 480.548571 706.474638 
L 479.831431 705.338137 
L 477.257143 704.85372 
L 476.701416 705.338137 
L 473.965714 708.077892 
L 473.465341 708.634109 
L 470.674286 711.429272 
L 470.219287 711.930082 
L 467.382857 714.764204 
L 466.959733 715.226055 
L 464.091429 718.087228 
L 463.593184 718.522027 
L 460.8 721.306728 
L 460.047692 721.818 
L 457.508571 724.344205 
L 456.057037 725.113972 
L 454.217143 726.934209 
L 450.925714 725.232446 
L 447.634286 726.752012 
L 446.320717 728.409945 
L 444.342857 730.363422 
L 443.229166 731.705918 
L 441.051429 733.86214 
L 440.076446 735.00189 
L 437.76 737.299404 
L 436.88691 738.297863 
L 434.468571 740.702917 
L 433.676681 741.593835 
L 431.177143 744.083941 
L 430.060728 744.889808 
L 427.885714 747.052383 
L 424.966086 748.185781 
L 424.594286 748.551407 
L 424.189537 748.185781 
L 422.389858 744.889808 
L 421.302857 744.77139 
L 421.149715 744.889808 
L 418.011429 747.849541 
L 417.612145 748.185781 
L 414.72 751.071768 
L 414.215494 751.481753 
L 411.428571 754.260523 
L 410.756717 754.777726 
L 408.137143 757.386398 
L 407.157837 758.073698 
L 404.845714 760.371242 
L 403.116072 761.369671 
L 401.554286 762.913063 
L 398.262857 764.038447 
L 396.05387 764.665644 
L 394.971429 765.317435 
L 391.68 767.469477 
L 390.868041 767.961616 
L 388.388571 770.422398 
L 386.030345 771.257589 
L 385.097143 772.169128 
L 381.805714 774.203874 
L 381.370151 774.553561 
L 378.514286 777.398119 
L 377.916431 777.849534 
L 375.222857 780.527885 
L 374.127823 781.145507 
L 371.931429 783.317849 
L 368.64 783.780114 
L 365.348571 784.332881 
L 365.148901 784.441479 
L 362.057143 787.103111 
L 360.700966 787.737452 
L 358.765714 789.619673 
L 355.474286 790.711903 
L 355.08659 791.033424 
L 352.182857 793.91162 
L 351.577673 794.329397 
L 348.891429 796.980277 
L 347.699685 797.62537 
L 345.6 799.672931 
L 342.308571 800.278809 
L 341.026921 800.921342 
L 339.017143 802.494641 
L 335.924788 800.921342 
L 335.725714 800.871288 
L 332.434286 800.666993 
L 332.083367 800.921342 
L 329.142857 803.837126 
L 328.567022 804.217315 
L 325.851429 806.898349 
L 324.599681 807.513287 
L 322.56 809.49877 
L 319.268571 810.354282 
L 318.676802 810.80926 
L 315.977143 813.465451 
L 315.068103 814.105233 
L 312.685714 816.433088 
L 311.039924 817.401205 
L 309.394286 818.983816 
L 306.102857 817.700235 
L 305.742066 817.401205 
L 302.811429 816.83824 
L 299.52 817.290557 
L 299.341089 817.401205 
L 296.228571 820.301017 
L 295.295382 820.697178 
z
" clip-path="url(#pe46b7d94fa)" style="fill: #dfecf7; fill-opacity: 0.9"/>
    <path d="M 368.64 820.697178 
L 371.931429 820.697178 
L 375.222857 820.697178 
L 378.514286 820.697178 
L 381.805714 820.697178 
L 385.097143 820.697178 
L 388.388571 820.697178 
L 390.011929 820.697178 
L 391.68 819.752842 
L 394.971429 818.009088 
L 396.236831 817.401205 
L 398.262857 816.457452 
L 401.554286 814.833025 
L 402.662738 814.105233 
L 404.845714 812.876308 
L 407.77458 810.80926 
L 408.137143 810.585315 
L 411.428571 808.023264 
L 412.104313 807.513287 
L 414.72 805.559826 
L 416.723734 804.217315 
L 418.011429 803.288837 
L 421.302857 801.348534 
L 422.253879 800.921342 
L 424.594286 799.937689 
L 427.885714 798.589541 
L 429.747992 797.62537 
L 431.177143 797.014332 
L 434.468571 794.934843 
L 435.230756 794.329397 
L 437.76 792.561571 
L 439.564439 791.033424 
L 441.051429 789.936205 
L 444.030771 787.737452 
L 444.342857 787.514026 
L 447.634286 785.265328 
L 448.904996 784.441479 
L 450.925714 783.074363 
L 453.973006 781.145507 
L 454.217143 780.983944 
L 457.508571 779.748369 
L 460.8 778.109737 
L 461.143012 777.849534 
L 464.091429 776.129036 
L 465.995266 774.553561 
L 467.382857 773.630262 
L 470.136695 771.257589 
L 470.674286 770.870288 
L 473.965714 768.179947 
L 474.285141 767.961616 
L 477.257143 765.740929 
L 478.901589 764.665644 
L 480.548571 763.478033 
L 483.84 761.472099 
L 484.009596 761.369671 
L 487.131429 759.70881 
L 489.64201 758.073698 
L 490.422857 757.619269 
L 493.714286 755.402066 
L 494.401187 754.777726 
L 497.005714 752.878921 
L 498.512548 751.481753 
L 500.297143 750.100416 
L 502.472754 748.185781 
L 503.588571 747.281847 
L 506.494869 744.889808 
L 506.88 744.574012 
L 510.171429 742.397399 
L 511.883629 741.593835 
L 513.462857 740.840173 
L 516.754286 739.104136 
L 518.137918 738.297863 
L 520.045714 737.135602 
L 523.337143 735.032503 
L 523.370192 735.00189 
L 526.628571 731.883214 
L 526.8205 731.705918 
L 529.92 728.744037 
L 530.299431 728.409945 
L 533.211429 725.93069 
L 534.380407 725.113972 
L 536.502857 723.458592 
L 538.975705 721.818 
L 539.794286 721.203421 
L 543.085714 719.321373 
L 544.323093 718.522027 
L 546.377143 717.336241 
L 549.463126 715.226055 
L 549.668571 715.099077 
L 552.96 713.952291 
L 554.439246 711.930082 
L 556.251429 710.772795 
L 558.075928 708.634109 
L 559.542857 707.478635 
L 561.657158 705.338137 
L 562.834286 704.23126 
L 565.702661 702.042164 
L 566.125714 701.659104 
L 569.417143 700.128884 
L 572.039768 698.746192 
L 572.708571 698.436687 
L 576 697.573381 
L 576 695.450219 
L 576 692.154246 
L 576 688.858274 
L 576 685.562301 
L 576 682.266329 
L 576 682.169608 
L 575.839564 682.266329 
L 572.708571 684.364099 
L 570.56311 685.562301 
L 569.417143 686.382877 
L 566.125714 688.855951 
L 566.122645 688.858274 
L 562.834286 691.578675 
L 562.13422 692.154246 
L 559.542857 694.295719 
L 558.137072 695.450219 
L 556.251429 696.935775 
L 553.494644 698.746192 
L 552.96 699.062028 
L 549.668571 701.311066 
L 548.689813 702.042164 
L 546.377143 703.79075 
L 544.307522 705.338137 
L 543.085714 706.259391 
L 539.954201 708.634109 
L 539.794286 708.754857 
L 536.502857 710.907578 
L 535.103073 711.930082 
L 533.211429 713.191852 
L 530.513562 715.226055 
L 529.92 715.637835 
L 526.628571 718.179339 
L 526.195963 718.522027 
L 523.337143 720.410863 
L 521.391921 721.818 
L 520.045714 722.70969 
L 516.826385 725.113972 
L 516.754286 725.16363 
L 513.462857 727.587754 
L 512.315565 728.409945 
L 510.171429 729.974304 
L 507.737631 731.705918 
L 506.88 732.332213 
L 503.588571 734.546762 
L 502.983289 735.00189 
L 500.297143 736.885285 
L 498.459695 738.297863 
L 497.005714 739.384841 
L 493.714286 741.486587 
L 493.565045 741.593835 
L 490.422857 743.867861 
L 489.000347 744.889808 
L 487.131429 746.239599 
L 484.464218 748.185781 
L 483.84 748.635076 
L 480.548571 750.724603 
L 479.392858 751.481753 
L 477.257143 752.728381 
L 474.332357 754.777726 
L 473.965714 755.007755 
L 470.674286 757.427494 
L 469.958762 758.073698 
L 467.382857 760.026515 
L 465.374114 761.369671 
L 464.091429 762.099195 
L 460.8 764.208682 
L 460.110084 764.665644 
L 457.508571 766.361332 
L 455.11199 767.961616 
L 454.217143 768.549783 
L 450.925714 770.349264 
L 449.324965 771.257589 
L 447.634286 772.076741 
L 444.342857 774.093622 
L 443.666299 774.553561 
L 441.051429 776.163876 
L 438.677568 777.849534 
L 437.76 778.426038 
L 434.468571 780.287567 
L 433.085748 781.145507 
L 431.177143 782.224993 
L 427.885714 784.378501 
L 427.79329 784.441479 
L 424.594286 786.570142 
L 422.899836 787.737452 
L 421.302857 788.8124 
L 418.112022 791.033424 
L 418.011429 791.101875 
L 414.72 793.071605 
L 412.85054 794.329397 
L 411.428571 795.213543 
L 408.137143 797.32248 
L 407.687616 797.62537 
L 404.845714 799.343738 
L 402.312496 800.921342 
L 401.554286 801.375066 
L 398.262857 803.304385 
L 396.837288 804.217315 
L 394.971429 805.318113 
L 391.689283 807.513287 
L 391.68 807.519043 
L 388.388571 808.881622 
L 385.097143 810.559731 
L 384.696669 810.80926 
L 381.805714 812.372215 
L 379.23119 814.105233 
L 378.514286 814.531417 
L 375.222857 816.36025 
L 372.697005 817.401205 
L 371.931429 817.725633 
L 368.64 819.472405 
L 366.575616 820.697178 
z
" clip-path="url(#pe46b7d94fa)" style="fill: #dae8f6; fill-opacity: 0.9"/>
    <path d="M 391.68 820.697178 
L 394.971429 820.697178 
L 398.262857 820.697178 
L 401.554286 820.697178 
L 404.845714 820.697178 
L 408.137143 820.697178 
L 411.428571 820.697178 
L 414.72 820.697178 
L 417.824435 820.697178 
L 418.011429 820.543619 
L 421.302857 818.023877 
L 422.25126 817.401205 
L 424.594286 815.830987 
L 427.25177 814.105233 
L 427.885714 813.684832 
L 429.484483 814.105233 
L 431.177143 814.853766 
L 432.494059 814.105233 
L 434.468571 813.258151 
L 437.76 811.023315 
L 437.994855 810.80926 
L 441.051429 808.517912 
L 442.134696 807.513287 
L 444.342857 805.77415 
L 446.001615 804.217315 
L 447.634286 802.885706 
L 449.883553 800.921342 
L 450.925714 800.048667 
L 453.859553 797.62537 
L 454.217143 797.325615 
L 457.508571 795.874905 
L 460.8 796.43956 
L 464.091429 795.287523 
L 465.269404 794.329397 
L 467.382857 792.978968 
L 469.661864 791.033424 
L 470.674286 790.321737 
L 473.611781 787.737452 
L 473.965714 787.472802 
L 477.257143 784.585312 
L 477.404472 784.441479 
L 480.548571 781.721715 
L 481.482333 781.145507 
L 483.84 779.085992 
L 486.543401 777.849534 
L 487.131429 777.573652 
L 490.422857 777.521512 
L 493.714286 775.810052 
L 495.197313 774.553561 
L 497.005714 773.337592 
L 499.371892 771.257589 
L 500.297143 770.553647 
L 503.191616 767.961616 
L 503.588571 767.601388 
L 506.872052 764.665644 
L 506.88 764.658441 
L 510.171429 761.74082 
L 510.703463 761.369671 
L 513.462857 759.487971 
L 515.789686 758.073698 
L 516.754286 757.440543 
L 518.893869 758.073698 
L 520.045714 758.507829 
L 520.625701 758.073698 
L 523.337143 756.414907 
L 525.397235 754.777726 
L 526.628571 753.734806 
L 529.413597 751.481753 
L 529.92 751.055923 
L 532.695798 748.185781 
L 533.211429 747.738813 
L 535.980903 744.889808 
L 536.502857 744.427586 
L 539.308428 741.593835 
L 539.794286 741.111338 
L 543.025237 738.297863 
L 543.085714 738.237719 
L 546.377143 736.83332 
L 547.992275 738.297863 
L 549.668571 739.199031 
L 550.570377 738.297863 
L 552.96 737.141416 
L 555.77108 735.00189 
L 556.251429 734.674614 
L 559.542857 732.154372 
L 559.988344 731.705918 
L 562.784566 728.409945 
L 562.834286 728.352983 
L 565.375836 725.113972 
L 566.125714 724.267183 
L 568.095592 721.818 
L 569.417143 720.491889 
L 571.598073 718.522027 
L 572.708571 717.523786 
L 576 716.602069 
L 576 715.226055 
L 576 711.930082 
L 576 708.634109 
L 576 705.338137 
L 576 702.042164 
L 576 698.746192 
L 576 697.573381 
L 572.708571 698.436687 
L 572.039768 698.746192 
L 569.417143 700.128884 
L 566.125714 701.659104 
L 565.702661 702.042164 
L 562.834286 704.23126 
L 561.657158 705.338137 
L 559.542857 707.478635 
L 558.075928 708.634109 
L 556.251429 710.772795 
L 554.439246 711.930082 
L 552.96 713.952291 
L 549.668571 715.099077 
L 549.463126 715.226055 
L 546.377143 717.336241 
L 544.323093 718.522027 
L 543.085714 719.321373 
L 539.794286 721.203421 
L 538.975705 721.818 
L 536.502857 723.458592 
L 534.380407 725.113972 
L 533.211429 725.93069 
L 530.299431 728.409945 
L 529.92 728.744037 
L 526.8205 731.705918 
L 526.628571 731.883214 
L 523.370192 735.00189 
L 523.337143 735.032503 
L 520.045714 737.135602 
L 518.137918 738.297863 
L 516.754286 739.104136 
L 513.462857 740.840173 
L 511.883629 741.593835 
L 510.171429 742.397399 
L 506.88 744.574012 
L 506.494869 744.889808 
L 503.588571 747.281847 
L 502.472754 748.185781 
L 500.297143 750.100416 
L 498.512548 751.481753 
L 497.005714 752.878921 
L 494.401187 754.777726 
L 493.714286 755.402066 
L 490.422857 757.619269 
L 489.64201 758.073698 
L 487.131429 759.70881 
L 484.009596 761.369671 
L 483.84 761.472099 
L 480.548571 763.478033 
L 478.901589 764.665644 
L 477.257143 765.740929 
L 474.285141 767.961616 
L 473.965714 768.179947 
L 470.674286 770.870288 
L 470.136695 771.257589 
L 467.382857 773.630262 
L 465.995266 774.553561 
L 464.091429 776.129036 
L 461.143012 777.849534 
L 460.8 778.109737 
L 457.508571 779.748369 
L 454.217143 780.983944 
L 453.973006 781.145507 
L 450.925714 783.074363 
L 448.904996 784.441479 
L 447.634286 785.265328 
L 444.342857 787.514026 
L 444.030771 787.737452 
L 441.051429 789.936205 
L 439.564439 791.033424 
L 437.76 792.561571 
L 435.230756 794.329397 
L 434.468571 794.934843 
L 431.177143 797.014332 
L 429.747992 797.62537 
L 427.885714 798.589541 
L 424.594286 799.937689 
L 422.253879 800.921342 
L 421.302857 801.348534 
L 418.011429 803.288837 
L 416.723734 804.217315 
L 414.72 805.559826 
L 412.104313 807.513287 
L 411.428571 808.023264 
L 408.137143 810.585315 
L 407.77458 810.80926 
L 404.845714 812.876308 
L 402.662738 814.105233 
L 401.554286 814.833025 
L 398.262857 816.457452 
L 396.236831 817.401205 
L 394.971429 818.009088 
L 391.68 819.752842 
L 390.011929 820.697178 
z
M 460.8 820.697178 
L 464.091429 820.697178 
L 467.382857 820.697178 
L 470.674286 820.697178 
L 473.965714 820.697178 
L 477.257143 820.697178 
L 480.548571 820.697178 
L 482.114997 820.697178 
L 483.84 819.755201 
L 487.131429 817.459936 
L 487.202905 817.401205 
L 490.422857 815.037854 
L 491.490248 814.105233 
L 493.714286 812.400011 
L 495.817015 810.80926 
L 497.005714 809.800882 
L 500.297143 807.793752 
L 500.747552 807.513287 
L 503.588571 805.846187 
L 506.095186 804.217315 
L 506.88 803.737521 
L 510.171429 801.81404 
L 511.407555 800.921342 
L 513.462857 799.69006 
L 516.145087 797.62537 
L 516.754286 797.224722 
L 520.045714 794.594707 
L 520.333815 794.329397 
L 523.337143 791.879174 
L 524.325555 791.033424 
L 526.628571 789.032274 
L 528.645611 787.737452 
L 529.92 786.631122 
L 533.211429 784.812695 
L 533.753779 784.441479 
L 536.502857 782.647036 
L 538.650533 781.145507 
L 539.794286 780.381272 
L 543.085714 778.088007 
L 543.375154 777.849534 
L 546.377143 775.773854 
L 547.808661 774.553561 
L 549.668571 773.187703 
L 551.879275 771.257589 
L 552.96 770.375355 
L 555.357795 767.961616 
L 556.251429 766.886375 
L 559.107403 764.665644 
L 559.542857 763.802124 
L 562.834286 761.657612 
L 564.150071 761.369671 
L 566.125714 760.418112 
L 569.417143 759.856933 
L 571.781642 758.073698 
L 572.708571 757.569098 
L 576 755.192824 
L 576 754.777726 
L 576 751.481753 
L 576 748.185781 
L 576 744.889808 
L 576 741.593835 
L 576 739.887016 
L 573.975871 741.593835 
L 573.177569 744.889808 
L 572.708571 745.530338 
L 569.417143 746.17069 
L 569.01948 744.889808 
L 569.417143 743.945184 
L 571.262891 741.593835 
L 569.862437 738.297863 
L 569.417143 737.873904 
L 566.125714 738.087589 
L 565.894899 738.297863 
L 564.199382 741.593835 
L 562.834286 742.45864 
L 560.987495 744.889808 
L 559.542857 746.020479 
L 557.300427 748.185781 
L 556.251429 749.354948 
L 554.102413 751.481753 
L 552.96 752.945517 
L 551.255944 754.777726 
L 549.668571 756.926751 
L 548.299112 758.073698 
L 546.377143 760.695299 
L 544.196527 761.369671 
L 543.085714 762.654263 
L 539.794286 761.523603 
L 536.502857 763.469315 
L 535.259475 764.665644 
L 533.211429 766.138221 
L 531.335641 767.961616 
L 529.92 769.06012 
L 527.673057 771.257589 
L 526.628571 772.223862 
L 524.249499 774.553561 
L 523.337143 775.473326 
L 520.933771 777.849534 
L 520.045714 778.74492 
L 517.313386 781.145507 
L 516.754286 781.756503 
L 513.462857 783.66486 
L 510.171429 783.43065 
L 506.88 783.405083 
L 505.805192 784.441479 
L 503.588571 786.172725 
L 501.977636 787.737452 
L 500.297143 789.376728 
L 498.591296 791.033424 
L 497.005714 792.57994 
L 495.255788 794.329397 
L 493.714286 795.833873 
L 491.933232 797.62537 
L 490.422857 799.100577 
L 488.433555 800.921342 
L 487.131429 802.243129 
L 484.315708 804.217315 
L 483.84 804.717482 
L 480.548571 804.955276 
L 479.983865 804.217315 
L 477.257143 803.133335 
L 476.087009 804.217315 
L 473.965714 805.959229 
L 472.303427 807.513287 
L 470.674286 808.896929 
L 468.642006 810.80926 
L 467.382857 811.894723 
L 465.095276 814.105233 
L 464.091429 814.983797 
L 461.647491 817.401205 
L 460.8 818.153853 
L 458.182798 820.697178 
z
M 562.462212 758.073698 
L 562.834286 757.560541 
L 563.815639 758.073698 
L 562.834286 760.087952 
z
M 565.222884 754.777726 
L 566.125714 753.75522 
L 567.227848 754.777726 
L 566.125714 756.311857 
z
" clip-path="url(#pe46b7d94fa)" style="fill: #d6e5f4; fill-opacity: 0.9"/>
    <path d="M 418.011429 820.697178 
L 421.302857 820.697178 
L 424.594286 820.697178 
L 427.885714 820.697178 
L 431.177143 820.697178 
L 434.468571 820.697178 
L 437.76 820.697178 
L 441.051429 820.697178 
L 444.342857 820.697178 
L 447.634286 820.697178 
L 450.925714 820.697178 
L 454.217143 820.697178 
L 457.508571 820.697178 
L 458.182798 820.697178 
L 460.8 818.153853 
L 461.647491 817.401205 
L 464.091429 814.983797 
L 465.095276 814.105233 
L 467.382857 811.894723 
L 468.642006 810.80926 
L 470.674286 808.896929 
L 472.303427 807.513287 
L 473.965714 805.959229 
L 476.087009 804.217315 
L 477.257143 803.133335 
L 479.983865 804.217315 
L 480.548571 804.955276 
L 483.84 804.717482 
L 484.315708 804.217315 
L 487.131429 802.243129 
L 488.433555 800.921342 
L 490.422857 799.100577 
L 491.933232 797.62537 
L 493.714286 795.833873 
L 495.255788 794.329397 
L 497.005714 792.57994 
L 498.591296 791.033424 
L 500.297143 789.376728 
L 501.977636 787.737452 
L 503.588571 786.172725 
L 505.805192 784.441479 
L 506.88 783.405083 
L 510.171429 783.43065 
L 513.462857 783.66486 
L 516.754286 781.756503 
L 517.313386 781.145507 
L 520.045714 778.74492 
L 520.933771 777.849534 
L 523.337143 775.473326 
L 524.249499 774.553561 
L 526.628571 772.223862 
L 527.673057 771.257589 
L 529.92 769.06012 
L 531.335641 767.961616 
L 533.211429 766.138221 
L 535.259475 764.665644 
L 536.502857 763.469315 
L 539.794286 761.523603 
L 543.085714 762.654263 
L 544.196527 761.369671 
L 546.377143 760.695299 
L 548.299112 758.073698 
L 549.668571 756.926751 
L 551.255944 754.777726 
L 552.96 752.945517 
L 554.102413 751.481753 
L 556.251429 749.354948 
L 557.300427 748.185781 
L 559.542857 746.020479 
L 560.987495 744.889808 
L 562.834286 742.45864 
L 564.199382 741.593835 
L 565.894899 738.297863 
L 566.125714 738.087589 
L 569.417143 737.873904 
L 569.862437 738.297863 
L 571.262891 741.593835 
L 569.417143 743.945184 
L 569.01948 744.889808 
L 569.417143 746.17069 
L 572.708571 745.530338 
L 573.177569 744.889808 
L 573.975871 741.593835 
L 576 739.887016 
L 576 738.297863 
L 576 735.00189 
L 576 731.705918 
L 576 728.409945 
L 576 725.113972 
L 576 721.818 
L 576 718.522027 
L 576 716.602069 
L 572.708571 717.523786 
L 571.598073 718.522027 
L 569.417143 720.491889 
L 568.095592 721.818 
L 566.125714 724.267183 
L 565.375836 725.113972 
L 562.834286 728.352983 
L 562.784566 728.409945 
L 559.988344 731.705918 
L 559.542857 732.154372 
L 556.251429 734.674614 
L 555.77108 735.00189 
L 552.96 737.141416 
L 550.570377 738.297863 
L 549.668571 739.199031 
L 547.992275 738.297863 
L 546.377143 736.83332 
L 543.085714 738.237719 
L 543.025237 738.297863 
L 539.794286 741.111338 
L 539.308428 741.593835 
L 536.502857 744.427586 
L 535.980903 744.889808 
L 533.211429 747.738813 
L 532.695798 748.185781 
L 529.92 751.055923 
L 529.413597 751.481753 
L 526.628571 753.734806 
L 525.397235 754.777726 
L 523.337143 756.414907 
L 520.625701 758.073698 
L 520.045714 758.507829 
L 518.893869 758.073698 
L 516.754286 757.440543 
L 515.789686 758.073698 
L 513.462857 759.487971 
L 510.703463 761.369671 
L 510.171429 761.74082 
L 506.88 764.658441 
L 506.872052 764.665644 
L 503.588571 767.601388 
L 503.191616 767.961616 
L 500.297143 770.553647 
L 499.371892 771.257589 
L 497.005714 773.337592 
L 495.197313 774.553561 
L 493.714286 775.810052 
L 490.422857 777.521512 
L 487.131429 777.573652 
L 486.543401 777.849534 
L 483.84 779.085992 
L 481.482333 781.145507 
L 480.548571 781.721715 
L 477.404472 784.441479 
L 477.257143 784.585312 
L 473.965714 787.472802 
L 473.611781 787.737452 
L 470.674286 790.321737 
L 469.661864 791.033424 
L 467.382857 792.978968 
L 465.269404 794.329397 
L 464.091429 795.287523 
L 460.8 796.43956 
L 457.508571 795.874905 
L 454.217143 797.325615 
L 453.859553 797.62537 
L 450.925714 800.048667 
L 449.883553 800.921342 
L 447.634286 802.885706 
L 446.001615 804.217315 
L 444.342857 805.77415 
L 442.134696 807.513287 
L 441.051429 808.517912 
L 437.994855 810.80926 
L 437.76 811.023315 
L 434.468571 813.258151 
L 432.494059 814.105233 
L 431.177143 814.853766 
L 429.484483 814.105233 
L 427.885714 813.684832 
L 427.25177 814.105233 
L 424.594286 815.830987 
L 422.25126 817.401205 
L 421.302857 818.023877 
L 418.011429 820.543619 
L 417.824435 820.697178 
z
M 483.84 820.697178 
L 487.131429 820.697178 
L 490.422857 820.697178 
L 493.714286 820.697178 
L 497.005714 820.697178 
L 500.297143 820.697178 
L 503.588571 820.697178 
L 506.88 820.697178 
L 510.171429 820.697178 
L 513.462857 820.697178 
L 516.754286 820.697178 
L 520.045714 820.697178 
L 523.337143 820.697178 
L 526.628571 820.697178 
L 529.92 820.697178 
L 533.211429 820.697178 
L 536.502857 820.697178 
L 539.794286 820.697178 
L 543.085714 820.697178 
L 546.377143 820.697178 
L 549.668571 820.697178 
L 552.96 820.697178 
L 556.251429 820.697178 
L 559.542857 820.697178 
L 562.834286 820.697178 
L 566.125714 820.697178 
L 566.131635 820.697178 
L 569.417143 818.276688 
L 570.612514 817.401205 
L 572.708571 815.859409 
L 575.146379 814.105233 
L 576 813.481019 
L 576 810.80926 
L 576 807.513287 
L 576 804.217315 
L 576 800.921342 
L 576 797.62537 
L 576 794.329397 
L 576 791.033424 
L 576 787.737452 
L 576 784.441479 
L 576 781.145507 
L 576 777.849534 
L 576 774.553561 
L 576 771.257589 
L 576 767.961616 
L 576 764.665644 
L 576 761.369671 
L 576 758.073698 
L 576 755.192824 
L 572.708571 757.569098 
L 571.781642 758.073698 
L 569.417143 759.856933 
L 566.125714 760.418112 
L 564.150071 761.369671 
L 562.834286 761.657612 
L 559.542857 763.802124 
L 559.107403 764.665644 
L 556.251429 766.886375 
L 555.357795 767.961616 
L 552.96 770.375355 
L 551.879275 771.257589 
L 549.668571 773.187703 
L 547.808661 774.553561 
L 546.377143 775.773854 
L 543.375154 777.849534 
L 543.085714 778.088007 
L 539.794286 780.381272 
L 538.650533 781.145507 
L 536.502857 782.647036 
L 533.753779 784.441479 
L 533.211429 784.812695 
L 529.92 786.631122 
L 528.645611 787.737452 
L 526.628571 789.032274 
L 524.325555 791.033424 
L 523.337143 791.879174 
L 520.333815 794.329397 
L 520.045714 794.594707 
L 516.754286 797.224722 
L 516.145087 797.62537 
L 513.462857 799.69006 
L 511.407555 800.921342 
L 510.171429 801.81404 
L 506.88 803.737521 
L 506.095186 804.217315 
L 503.588571 805.846187 
L 500.747552 807.513287 
L 500.297143 807.793752 
L 497.005714 809.800882 
L 495.817015 810.80926 
L 493.714286 812.400011 
L 491.490248 814.105233 
L 490.422857 815.037854 
L 487.202905 817.401205 
L 487.131429 817.459936 
L 483.84 819.755201 
L 482.114997 820.697178 
z
M 562.834286 760.087952 
L 563.815639 758.073698 
L 562.834286 757.560541 
L 562.462212 758.073698 
z
M 566.125714 756.311857 
L 567.227848 754.777726 
L 566.125714 753.75522 
L 565.222884 754.777726 
z
" clip-path="url(#pe46b7d94fa)" style="fill: #d0e2f2; fill-opacity: 0.9"/>
    <path d="M 569.417143 820.697178 
L 572.708571 820.697178 
L 576 820.697178 
L 576 817.401205 
L 576 814.105233 
L 576 813.481019 
L 575.146379 814.105233 
L 572.708571 815.859409 
L 570.612514 817.401205 
L 569.417143 818.276688 
L 566.131635 820.697178 
z
" clip-path="url(#pe46b7d94fa)" style="fill: #cbdef1; fill-opacity: 0.9"/>
    <path clip-path="url(#pe46b7d94fa)" style="fill: #c6dbef; fill-opacity: 0.9"/>
    <path clip-path="url(#pe46b7d94fa)" style="fill: #bed8ec; fill-opacity: 0.9"/>
    <path clip-path="url(#pe46b7d94fa)" style="fill: #b5d4e9; fill-opacity: 0.9"/>
    <path clip-path="url(#pe46b7d94fa)" style="fill: #add0e6; fill-opacity: 0.9"/>
    <path clip-path="url(#pe46b7d94fa)" style="fill: #a5cde3; fill-opacity: 0.9"/>
    <path clip-path="url(#pe46b7d94fa)" style="fill: #9cc9e1; fill-opacity: 0.9"/>
    <path clip-path="url(#pe46b7d94fa)" style="fill: #91c3de; fill-opacity: 0.9"/>
    <path clip-path="url(#pe46b7d94fa)" style="fill: #85bcdc; fill-opacity: 0.9"/>
    <path clip-path="url(#pe46b7d94fa)" style="fill: #7cb7da; fill-opacity: 0.9"/>
    <path clip-path="url(#pe46b7d94fa)" style="fill: #71b1d7; fill-opacity: 0.9"/>
    <path clip-path="url(#pe46b7d94fa)" style="fill: #66abd4; fill-opacity: 0.9"/>
    <path clip-path="url(#pe46b7d94fa)" style="fill: #5da5d1; fill-opacity: 0.9"/>
    <path clip-path="url(#pe46b7d94fa)" style="fill: #56a0ce; fill-opacity: 0.9"/>
    <path clip-path="url(#pe46b7d94fa)" style="fill: #4d99ca; fill-opacity: 0.9"/>
    <path clip-path="url(#pe46b7d94fa)" style="fill: #4493c7; fill-opacity: 0.9"/>
    <path clip-path="url(#pe46b7d94fa)" style="fill: #3c8cc3; fill-opacity: 0.9"/>
    <path clip-path="url(#pe46b7d94fa)" style="fill: #3686c0; fill-opacity: 0.9"/>
    <path clip-path="url(#pe46b7d94fa)" style="fill: #2f7fbc; fill-opacity: 0.9"/>
    <path clip-path="url(#pe46b7d94fa)" style="fill: #2777b8; fill-opacity: 0.9"/>
    <path clip-path="url(#pe46b7d94fa)" style="fill: #2070b4; fill-opacity: 0.9"/>
    <path clip-path="url(#pe46b7d94fa)" style="fill: #1c6ab0; fill-opacity: 0.9"/>
    <path clip-path="url(#pe46b7d94fa)" style="fill: #1663aa; fill-opacity: 0.9"/>
    <path clip-path="url(#pe46b7d94fa)" style="fill: #115ca5; fill-opacity: 0.9"/>
    <path clip-path="url(#pe46b7d94fa)" style="fill: #0c56a0; fill-opacity: 0.9"/>
    <path clip-path="url(#pe46b7d94fa)" style="fill: #084f99; fill-opacity: 0.9"/>
    <path clip-path="url(#pe46b7d94fa)" style="fill: #08488e; fill-opacity: 0.9"/>
    <path clip-path="url(#pe46b7d94fa)" style="fill: #084184; fill-opacity: 0.9"/>
    <path clip-path="url(#pe46b7d94fa)" style="fill: #083a7a; fill-opacity: 0.9"/>
    <path clip-path="url(#pe46b7d94fa)" style="fill: #083370; fill-opacity: 0.9"/>
    <path clip-path="url(#pe46b7d94fa)" style="fill: #08306b; fill-opacity: 0.9"/>
   </g>
   <g id="QuadContourSet_2">
    <path d="M 576 628.470022 
L 574.808003 629.530767 
L 572.708571 631.163467 
L 569.417143 633.32439 
L 566.125714 635.181608 
L 565.183843 636.122712 
L 562.834286 637.753354 
L 561.060148 639.418685 
L 559.542857 641.102009 
L 557.47699 642.714657 
L 556.251429 644.668087 
L 553.816822 646.01063 
L 552.96 648.856854 
L 549.668571 648.63511 
L 546.377143 650.850766 
L 542.892362 652.602575 
L 539.794286 654.564702 
L 538.462876 655.898548 
L 533.211429 659.809186 
L 527.186738 665.786466 
L 526.628571 666.379899 
L 523.034959 669.082438 
L 520.045714 670.427018 
L 516.754286 671.545122 
L 515.922036 672.378411 
L 513.462857 674.064927 
L 510.171429 676.850189 
L 502.735729 682.266329 
L 500.297143 684.939914 
L 499.395042 685.562301 
L 497.005714 688.336926 
L 493.714286 688.860852 
L 490.422857 691.196157 
L 489.466891 692.154246 
L 487.131429 694.005354 
L 483.84 696.419026 
L 480.548571 698.358458 
L 480.161774 698.746192 
L 477.257143 700.636231 
L 473.965714 703.746234 
L 471.8921 705.338137 
L 470.674286 706.659776 
L 467.915284 708.634109 
L 467.382857 709.23806 
L 464.091429 711.336787 
L 463.39471 711.930082 
L 460.8 713.846526 
L 454.217143 717.567526 
L 453.266788 718.522027 
L 450.925714 720.159671 
L 447.634286 722.845262 
L 444.342857 726.145653 
L 441.051429 729.069229 
L 437.52802 731.705918 
L 434.468571 733.563351 
L 431.177143 734.712308 
L 430.887737 735.00189 
L 427.885714 736.917375 
L 426.506452 738.297863 
L 422.256064 741.432892 
M 406.931337 752.721699 
L 404.845714 753.790042 
L 403.85988 754.777726 
L 401.554286 756.530824 
L 398.262857 759.264553 
L 394.971429 761.492651 
L 391.68 763.459698 
L 390.476164 764.665644 
L 388.388571 766.246844 
L 385.097143 768.578026 
L 381.793432 771.257589 
L 378.514286 773.624539 
L 375.783245 774.553561 
L 375.222857 774.861583 
L 371.931429 776.384941 
L 370.346902 777.849534 
L 368.64 779.127517 
L 362.057143 782.976685 
L 355.474286 788.143108 
L 352.182857 790.375188 
L 348.891429 790.18709 
L 347.531744 791.033424 
L 345.6 792.377207 
L 342.308571 792.860662 
L 339.017143 795.309137 
L 335.725714 796.227671 
L 333.95678 797.62537 
L 332.434286 798.456099 
L 328.855438 800.921342 
L 322.56 804.351032 
L 319.268571 806.413565 
L 315.977143 806.32305 
L 312.685714 808.832954 
L 309.394286 809.428197 
L 307.621983 810.80926 
L 306.102857 811.744469 
L 302.811429 812.715216 
L 301.233723 814.105233 
L 299.52 815.11411 
L 292.937143 818.519204 
L 288.906416 820.697178 
L 288.906416 820.697178 
" clip-path="url(#pe46b7d94fa)" style="fill: none"/>
    <path d="M 576 629.44692 
L 575.905779 629.530767 
L 572.708571 632.017192 
L 571.433662 632.82674 
L 569.417143 634.319995 
L 566.125714 636.226897 
L 562.834286 638.469521 
L 561.823107 639.418685 
L 559.542857 641.948455 
L 558.561322 642.714657 
L 556.251429 646.212746 
L 552.96 650.108157 
L 549.668571 652.760018 
L 549.095872 652.602575 
L 546.377143 652.067 
L 545.26014 652.602575 
L 543.085714 653.913995 
L 539.794286 655.422381 
L 539.318989 655.898548 
L 533.211429 660.450922 
L 529.92 663.747958 
L 526.628571 667.124088 
L 524.200341 669.082438 
L 523.337143 670.018564 
L 520.045714 672.490664 
L 516.754286 673.100847 
L 513.462857 674.797923 
L 512.462675 675.674383 
L 510.171429 677.526251 
L 506.88 679.979878 
L 503.588571 682.444272 
L 497.005714 689.44302 
L 493.714286 692.623772 
L 490.422857 692.633797 
L 486.218948 695.450219 
L 483.84 697.290334 
L 477.257143 701.447957 
L 473.965714 704.512903 
L 472.890764 705.338137 
L 470.674286 707.743581 
L 469.429831 708.634109 
L 467.382857 710.956063 
L 465.606645 711.930082 
L 464.091429 713.933009 
L 460.8 714.843108 
L 460.120876 715.226055 
L 457.508571 717.01041 
L 454.217143 718.572779 
L 450.925714 720.847268 
L 445.972275 725.113972 
L 444.342857 726.817992 
L 442.467425 728.409945 
L 441.051429 729.906164 
L 438.734226 731.705918 
L 437.76 732.756235 
L 434.468571 735.040743 
L 431.177143 736.555553 
L 427.885714 737.716863 
L 427.30523 738.297863 
L 421.302857 742.836856 
L 418.011429 745.490081 
L 411.428571 750.96493 
L 410.53127 751.481753 
L 408.137143 753.299551 
L 404.823162 754.777726 
L 400.596141 758.073698 
L 398.262857 759.96734 
L 391.348293 764.665644 
L 381.805714 771.989438 
L 378.514286 774.650779 
L 375.222857 776.541005 
L 371.931429 777.151543 
L 371.17628 777.849534 
L 368.64 779.748484 
L 366.335973 781.145507 
L 365.348571 781.920726 
L 362.057143 783.744146 
L 361.183021 784.441479 
L 358.765714 786.16634 
L 352.182857 791.608933 
L 348.891429 791.799569 
L 345.6 793.526289 
L 342.308571 793.628418 
L 339.017143 796.042361 
L 335.725714 797.028068 
L 334.969767 797.62537 
L 332.434286 799.008822 
L 329.795636 800.921342 
L 329.142857 801.568632 
L 324.675685 804.217315 
L 322.56 805.366589 
L 319.268571 807.736835 
L 315.977143 807.221788 
L 312.685714 809.733173 
L 309.394286 810.246582 
L 307.958931 811.248369 
M 291.164917 820.301102 
L 290.46162 820.697178 
L 290.46162 820.697178 
" clip-path="url(#pe46b7d94fa)" style="fill: none"/>
    <path d="M 576 636.435779 
L 574.503912 636.122712 
L 572.708571 633.30643 
L 566.125714 637.420937 
L 562.586065 639.418685 
L 559.542857 642.838572 
L 557.354469 646.01063 
L 556.251429 647.11824 
L 552.96 650.945901 
L 550.840034 652.602575 
L 549.668571 654.457316 
L 547.078362 655.898548 
L 546.377143 658.386873 
L 544.941696 655.898548 
L 543.085714 655.443843 
L 541.767343 655.898548 
L 539.794286 656.815493 
L 536.502857 658.587879 
L 533.211429 661.092659 
L 531.768917 662.490493 
L 526.628571 667.868277 
L 525.123088 669.082438 
L 523.337143 671.019271 
L 521.498768 672.378411 
L 520.045714 674.017746 
L 517.291398 675.674383 
L 516.754286 676.355942 
L 515.044615 675.674383 
L 513.462857 675.530919 
L 513.299141 675.674383 
L 506.88 680.743427 
L 505.139931 682.030208 
M 491.311136 695.336294 
L 491.165742 695.450219 
L 490.422857 696.191765 
L 483.84 698.161643 
L 482.904658 698.746192 
L 480.548571 700.475109 
L 477.257143 702.374361 
L 473.889429 705.338137 
L 464.825397 715.226055 
L 464.091429 715.958198 
L 460.8 718.874439 
L 457.508571 718.217617 
L 456.86284 718.522027 
L 454.217143 720.103499 
L 450.925714 721.534865 
L 450.589831 721.818 
L 447.634286 724.110873 
L 437.76 733.917962 
L 436.187943 735.00189 
L 434.468571 736.939212 
L 431.707922 738.297863 
L 431.177143 739.011073 
L 427.885714 739.182433 
L 424.594286 740.876429 
L 423.624756 741.593835 
L 418.011429 746.276568 
L 415.744243 748.185781 
L 414.72 749.207844 
L 408.137143 754.495068 
L 407.495605 754.777726 
L 404.845714 756.490244 
L 401.462093 758.073698 
L 398.262857 760.670127 
L 397.221436 761.369671 
L 394.971429 763.1264 
L 392.494532 764.665644 
L 391.68 765.328867 
L 387.823791 767.961616 
L 383.529348 771.257589 
L 378.514286 775.566559 
L 375.222857 778.115874 
L 371.931429 778.127223 
L 365.348571 782.724777 
L 362.057143 784.557772 
L 357.683736 787.737452 
L 353.537844 791.033424 
L 352.182857 792.376495 
L 349.353922 794.329397 
L 348.891429 794.785801 
L 345.6 795.11373 
L 342.308571 794.76034 
L 339.017143 796.775586 
L 336.316905 797.62537 
L 335.725714 797.990821 
L 332.434286 799.561546 
L 330.558213 800.921342 
L 329.142857 802.324797 
L 326.276446 804.217315 
L 325.851429 804.636924 
L 322.56 806.382146 
L 321.01317 807.513287 
L 319.268571 808.609317 
L 315.977143 811.232397 
L 312.685714 810.633392 
L 311.419467 810.80926 
L 309.394286 811.556149 
L 306.102857 813.037552 
L 303.307407 814.105233 
L 302.811429 814.454449 
L 299.52 816.202334 
L 297.581498 817.401205 
L 296.228571 818.661675 
L 292.937143 820.086868 
L 291.85344 820.697178 
L 291.85344 820.697178 
" clip-path="url(#pe46b7d94fa)" style="fill: none"/>
    <path d="M 576 637.672352 
L 573.409736 639.418685 
L 572.708571 640.574 
L 570.430459 639.418685 
L 569.417143 637.859132 
L 566.125714 638.614978 
L 564.481908 639.418685 
L 562.834286 640.471081 
L 560.965411 642.714657 
L 559.542857 644.145667 
L 558.256228 646.01063 
L 556.251429 648.023734 
L 555.185212 649.306603 
L 552.96 651.783645 
L 551.912055 652.602575 
L 549.668571 656.212554 
L 547.668798 659.19452 
L 546.377143 660.49283 
L 543.085714 662.62745 
L 542.720224 662.490493 
L 540.763153 659.19452 
L 539.794286 658.876882 
L 536.502857 659.296921 
L 533.211429 661.734395 
L 532.431164 662.490493 
L 526.628571 668.612466 
L 526.045835 669.082438 
L 523.337143 672.019977 
L 522.852325 672.378411 
L 516.754286 679.356413 
L 513.462857 682.341928 
L 513.259609 682.266329 
L 511.093529 678.970356 
L 510.041934 678.970356 
L 503.588571 684.285808 
L 500.297143 687.670565 
L 497.005714 691.039048 
L 493.714286 694.282788 
L 492.224381 695.450219 
L 490.422857 697.248497 
L 488.353916 698.746192 
L 487.131429 700.110551 
L 483.84 701.793554 
L 480.548571 701.498177 
L 479.576113 702.042164 
L 477.257143 703.61404 
L 475.688626 704.981288 
M 462.218218 718.676672 
L 460.8 720.090584 
L 458.258203 721.818 
L 457.508571 722.563818 
L 454.217143 721.634218 
L 453.659211 721.818 
L 450.925714 723.048039 
L 447.634286 724.743679 
L 447.258083 725.113972 
L 437.76 735.146093 
L 432.012231 741.593835 
L 431.177143 742.425772 
L 427.885714 744.321126 
L 426.127812 741.593835 
L 424.594286 741.463285 
L 424.417855 741.593835 
L 420.315781 744.889808 
L 414.72 750.139806 
L 413.06867 751.481753 
L 411.428571 753.117054 
L 409.271334 754.777726 
L 408.137143 755.907197 
L 404.845714 758.276879 
L 401.554286 760.086625 
L 398.262857 761.381927 
L 394.971429 763.943275 
L 393.809018 764.665644 
L 391.68 766.399172 
L 389.10219 767.961616 
L 388.388571 768.669856 
L 385.097143 770.687135 
L 380.45073 774.553561 
L 378.514286 776.482339 
L 376.703571 777.849534 
L 375.222857 779.32188 
L 371.931429 781.203033 
L 371.608152 781.145507 
L 368.64 780.990419 
L 368.384223 781.145507 
L 365.348571 783.528829 
L 363.670565 784.441479 
L 362.057143 785.830442 
L 358.523299 787.737452 
L 354.312217 791.033424 
L 352.182857 793.144057 
L 350.465797 794.329397 
L 348.891429 795.883039 
L 345.6 797.696215 
L 342.308571 798.412488 
L 339.918153 797.62537 
L 339.017143 797.508811 
L 338.64677 797.62537 
L 335.725714 799.431054 
L 332.434286 800.114269 
L 331.32079 800.921342 
L 329.142857 803.080961 
L 327.421734 804.217315 
L 325.851429 805.767636 
L 322.401938 807.513287 
L 319.268571 809.4818 
L 317.542003 810.80926 
L 315.977143 812.348924 
L 313.481676 814.105233 
L 312.685714 814.882975 
L 309.394286 813.946558 
L 306.102857 813.684093 
L 305.000211 814.105233 
L 302.811429 815.646344 
L 299.52 816.746445 
L 298.461294 817.401205 
L 296.228571 819.481346 
L 293.364579 820.697178 
L 293.364579 820.697178 
" clip-path="url(#pe46b7d94fa)" style="fill: none"/>
    <path d="M 576 638.908925 
L 575.243894 639.418685 
L 574.026197 642.714657 
L 572.708571 644.055365 
L 569.417143 647.113428 
L 568.204776 646.01063 
L 566.125714 642.385504 
L 562.834286 642.030971 
L 562.264783 642.714657 
L 559.542857 645.452762 
L 559.157986 646.01063 
L 555.937786 649.306603 
L 552.96 652.761661 
L 552.04543 655.898548 
L 549.668571 658.293903 
L 549.064597 659.19452 
L 546.377143 661.89582 
L 545.437807 662.490493 
L 543.085714 664.859949 
L 540.854873 665.786466 
L 539.794286 667.930369 
L 538.61119 665.786466 
L 536.502857 662.455882 
L 533.211429 662.376131 
L 533.093412 662.490493 
L 529.92 666.385095 
L 528.150024 669.082438 
L 526.628571 670.619803 
L 525.323839 672.378411 
L 523.337143 674.381339 
L 522.311361 675.674383 
L 520.045714 677.945352 
L 519.196822 678.970356 
L 513.462857 684.596098 
L 511.112341 685.562301 
L 510.171429 686.492448 
L 509.124835 685.562301 
L 506.88 682.31482 
L 503.258231 685.562301 
L 490.422857 698.305228 
L 489.813703 698.746192 
L 487.131429 701.739747 
L 486.604176 702.042164 
L 484.382214 705.338137 
L 483.84 705.870761 
L 480.548571 706.474638 
L 479.831431 705.338137 
L 477.257143 704.85372 
L 476.701416 705.338137 
L 460.8 721.306728 
L 460.047692 721.818 
L 457.508571 724.344205 
L 456.057037 725.113972 
L 454.217143 726.934209 
L 450.925714 725.232446 
L 447.634286 726.752012 
L 446.320717 728.409945 
L 444.342857 730.363422 
L 443.485387 731.397057 
M 430.029141 744.921215 
L 427.885714 747.052383 
L 424.966086 748.185781 
L 424.594286 748.551407 
L 424.189537 748.185781 
L 422.389858 744.889808 
L 421.302857 744.77139 
L 421.149715 744.889808 
L 414.215494 751.481753 
L 408.137143 757.386398 
L 407.157837 758.073698 
L 404.845714 760.371242 
L 403.116072 761.369671 
L 401.554286 762.913063 
L 398.262857 764.038447 
L 396.05387 764.665644 
L 394.971429 765.317435 
L 390.868041 767.961616 
L 388.388571 770.422398 
L 386.030345 771.257589 
L 385.097143 772.169128 
L 381.370151 774.553561 
L 375.222857 780.527885 
L 374.127823 781.145507 
L 371.931429 783.317849 
L 365.348571 784.332881 
L 365.148901 784.441479 
L 362.057143 787.103111 
L 360.700966 787.737452 
L 358.765714 789.619673 
L 355.474286 790.711903 
L 355.08659 791.033424 
L 352.182857 793.91162 
L 351.577673 794.329397 
L 348.891429 796.980277 
L 347.699685 797.62537 
L 345.6 799.672931 
L 342.308571 800.278809 
L 341.026921 800.921342 
L 339.017143 802.494641 
L 335.725714 800.871288 
L 332.434286 800.666993 
L 332.083367 800.921342 
L 329.142857 803.837126 
L 328.567022 804.217315 
L 325.851429 806.898349 
L 324.599681 807.513287 
L 322.56 809.49877 
L 319.268571 810.354282 
L 318.676802 810.80926 
L 315.977143 813.465451 
L 315.068103 814.105233 
L 312.685714 816.433088 
L 311.039924 817.401205 
L 309.394286 818.983816 
L 306.102857 817.700235 
L 305.742066 817.401205 
L 302.811429 816.83824 
L 299.341089 817.401205 
L 296.228571 820.301017 
L 295.295382 820.697178 
L 295.295382 820.697178 
" clip-path="url(#pe46b7d94fa)" style="fill: none"/>
    <path d="M 576 682.169608 
L 575.839564 682.266329 
L 572.708571 684.364099 
L 570.56311 685.562301 
L 569.417143 686.382877 
L 566.125714 688.855951 
L 566.122645 688.858274 
L 562.834286 691.578675 
L 562.13422 692.154246 
L 559.542857 694.295719 
L 558.137072 695.450219 
L 556.251429 696.935775 
L 553.494644 698.746192 
L 552.96 699.062028 
L 549.668571 701.311066 
L 548.689813 702.042164 
L 546.377143 703.79075 
L 544.307522 705.338137 
L 543.085714 706.259391 
L 539.954201 708.634109 
L 539.794286 708.754857 
L 536.502857 710.907578 
L 535.103073 711.930082 
L 533.211429 713.191852 
L 530.513562 715.226055 
L 529.92 715.637835 
L 526.628571 718.179339 
L 526.195963 718.522027 
L 523.337143 720.410863 
L 521.391921 721.818 
L 520.045714 722.70969 
L 516.826385 725.113972 
L 516.754286 725.16363 
L 513.462857 727.587754 
L 512.315565 728.409945 
L 510.171429 729.974304 
L 507.737631 731.705918 
L 506.88 732.332213 
L 503.588571 734.546762 
L 502.983289 735.00189 
L 500.297143 736.885285 
L 498.459695 738.297863 
L 498.266966 738.441944 
M 482.64505 749.393677 
L 480.548571 750.724603 
L 479.392858 751.481753 
L 477.257143 752.728381 
L 474.332357 754.777726 
L 473.965714 755.007755 
L 470.674286 757.427494 
L 469.958762 758.073698 
L 467.382857 760.026515 
L 465.374114 761.369671 
L 464.091429 762.099195 
L 460.8 764.208682 
L 460.110084 764.665644 
L 457.508571 766.361332 
L 455.11199 767.961616 
L 454.217143 768.549783 
L 450.925714 770.349264 
L 449.324965 771.257589 
L 447.634286 772.076741 
L 444.342857 774.093622 
L 443.666299 774.553561 
L 441.051429 776.163876 
L 438.677568 777.849534 
L 437.76 778.426038 
L 434.468571 780.287567 
L 433.085748 781.145507 
L 431.177143 782.224993 
L 427.885714 784.378501 
L 427.79329 784.441479 
L 424.594286 786.570142 
L 422.899836 787.737452 
L 421.302857 788.8124 
L 418.112022 791.033424 
L 418.011429 791.101875 
L 414.72 793.071605 
L 412.85054 794.329397 
L 411.428571 795.213543 
L 408.137143 797.32248 
L 407.687616 797.62537 
L 404.845714 799.343738 
L 402.312496 800.921342 
L 401.554286 801.375066 
L 398.262857 803.304385 
L 396.837288 804.217315 
L 394.971429 805.318113 
L 391.689283 807.513287 
L 391.68 807.519043 
L 388.388571 808.881622 
L 385.097143 810.559731 
L 384.696669 810.80926 
L 381.805714 812.372215 
L 379.23119 814.105233 
L 378.514286 814.531417 
L 375.222857 816.36025 
L 372.697005 817.401205 
L 371.931429 817.725633 
L 368.64 819.472405 
L 366.575616 820.697178 
" clip-path="url(#pe46b7d94fa)" style="fill: none"/>
    <path d="M 576 697.573381 
L 572.708571 698.436687 
L 572.039768 698.746192 
L 569.417143 700.128884 
L 566.125714 701.659104 
L 565.702661 702.042164 
L 562.834286 704.23126 
L 561.657158 705.338137 
L 559.542857 707.478635 
L 558.075928 708.634109 
L 556.251429 710.772795 
L 554.439246 711.930082 
L 552.96 713.952291 
L 549.668571 715.099077 
L 549.463126 715.226055 
L 546.377143 717.336241 
L 544.323093 718.522027 
L 543.085714 719.321373 
L 539.794286 721.203421 
L 538.975705 721.818 
L 536.502857 723.458592 
L 534.380407 725.113972 
L 533.211429 725.93069 
L 530.299431 728.409945 
L 529.92 728.744037 
L 526.8205 731.705918 
L 526.628571 731.883214 
L 523.370192 735.00189 
L 523.337143 735.032503 
L 520.045714 737.135602 
L 518.137918 738.297863 
L 516.754286 739.104136 
L 513.462857 740.840173 
L 511.883629 741.593835 
L 510.171429 742.397399 
L 506.88 744.574012 
L 506.494869 744.889808 
L 503.588571 747.281847 
L 502.472754 748.185781 
L 500.297143 750.100416 
L 498.512548 751.481753 
L 497.005714 752.878921 
L 494.401187 754.777726 
L 493.714286 755.402066 
L 490.422857 757.619269 
L 489.64201 758.073698 
L 487.131429 759.70881 
L 484.009596 761.369671 
L 483.84 761.472099 
L 480.548571 763.478033 
L 478.901589 764.665644 
L 477.257143 765.740929 
L 474.285141 767.961616 
L 473.965714 768.179947 
L 470.674286 770.870288 
L 470.136695 771.257589 
L 467.382857 773.630262 
L 465.995266 774.553561 
L 464.091429 776.129036 
L 461.143012 777.849534 
L 460.8 778.109737 
L 457.508571 779.748369 
L 454.217143 780.983944 
L 453.973006 781.145507 
L 450.925714 783.074363 
L 448.904996 784.441479 
L 447.634286 785.265328 
L 444.342857 787.514026 
L 444.030771 787.737452 
L 441.051429 789.936205 
L 439.564439 791.033424 
L 437.76 792.561571 
L 435.230756 794.329397 
L 434.468571 794.934843 
L 431.177143 797.014332 
L 429.747992 797.62537 
L 427.885714 798.589541 
L 424.594286 799.937689 
L 422.253879 800.921342 
L 421.302857 801.348534 
L 418.011429 803.288837 
L 416.723734 804.217315 
L 415.768824 804.857109 
M 400.032095 815.584275 
L 398.262857 816.457452 
L 396.236831 817.401205 
L 394.971429 818.009088 
L 391.68 819.752842 
L 390.011929 820.697178 
" clip-path="url(#pe46b7d94fa)" style="fill: none"/>
    <path d="M 458.182798 820.697178 
L 460.466005 818.47842 
M 474.494307 805.525172 
L 476.087009 804.217315 
L 477.257143 803.133335 
L 479.983865 804.217315 
L 480.548571 804.955276 
L 483.84 804.717482 
L 484.315708 804.217315 
L 487.131429 802.243129 
L 488.433555 800.921342 
L 490.422857 799.100577 
L 491.933232 797.62537 
L 493.714286 795.833873 
L 495.255788 794.329397 
L 497.005714 792.57994 
L 498.591296 791.033424 
L 500.297143 789.376728 
L 501.977636 787.737452 
L 503.588571 786.172725 
L 505.805192 784.441479 
L 506.88 783.405083 
L 510.171429 783.43065 
L 513.462857 783.66486 
L 516.754286 781.756503 
L 517.313386 781.145507 
L 520.045714 778.74492 
L 520.933771 777.849534 
L 523.337143 775.473326 
L 524.249499 774.553561 
L 526.628571 772.223862 
L 527.673057 771.257589 
L 529.92 769.06012 
L 531.335641 767.961616 
L 533.211429 766.138221 
L 535.259475 764.665644 
L 536.502857 763.469315 
L 539.794286 761.523603 
L 543.085714 762.654263 
L 544.196527 761.369671 
L 546.377143 760.695299 
L 548.299112 758.073698 
L 549.668571 756.926751 
L 551.255944 754.777726 
L 552.96 752.945517 
L 554.102413 751.481753 
L 556.251429 749.354948 
L 557.300427 748.185781 
L 559.542857 746.020479 
L 560.987495 744.889808 
L 562.834286 742.45864 
L 564.199382 741.593835 
L 565.894899 738.297863 
L 566.125714 738.087589 
L 569.417143 737.873904 
L 569.862437 738.297863 
L 571.262891 741.593835 
L 569.417143 743.945184 
L 569.01948 744.889808 
L 569.417143 746.17069 
L 572.708571 745.530338 
L 573.177569 744.889808 
L 573.975871 741.593835 
L 576 739.887016 
M 576 755.192824 
L 572.708571 757.569098 
L 571.781642 758.073698 
L 569.417143 759.856933 
L 566.125714 760.418112 
L 564.150071 761.369671 
L 562.834286 761.657612 
L 559.542857 763.802124 
L 559.107403 764.665644 
L 556.251429 766.886375 
L 555.357795 767.961616 
L 552.96 770.375355 
L 551.879275 771.257589 
L 549.668571 773.187703 
L 547.808661 774.553561 
L 546.377143 775.773854 
L 543.375154 777.849534 
L 543.085714 778.088007 
L 539.794286 780.381272 
L 538.650533 781.145507 
L 536.502857 782.647036 
L 533.753779 784.441479 
L 533.211429 784.812695 
L 529.92 786.631122 
L 528.645611 787.737452 
L 526.628571 789.032274 
L 524.325555 791.033424 
L 523.337143 791.879174 
L 520.333815 794.329397 
L 520.045714 794.594707 
L 516.754286 797.224722 
L 516.145087 797.62537 
L 514.895293 798.587419 
M 498.755569 808.733812 
L 497.005714 809.800882 
L 495.817015 810.80926 
L 493.714286 812.400011 
L 491.490248 814.105233 
L 490.422857 815.037854 
L 487.202905 817.401205 
L 487.131429 817.459936 
L 483.84 819.755201 
L 482.114997 820.697178 
M 576 716.602069 
L 572.708571 717.523786 
L 571.598073 718.522027 
L 569.417143 720.491889 
L 568.095592 721.818 
L 566.125714 724.267183 
L 565.375836 725.113972 
L 562.834286 728.352983 
L 562.784566 728.409945 
L 559.988344 731.705918 
L 559.542857 732.154372 
L 556.251429 734.674614 
L 555.77108 735.00189 
L 552.96 737.141416 
L 550.570377 738.297863 
L 549.668571 739.199031 
L 547.992275 738.297863 
L 546.377143 736.83332 
L 543.085714 738.237719 
L 543.025237 738.297863 
L 539.794286 741.111338 
L 539.308428 741.593835 
L 536.502857 744.427586 
L 535.980903 744.889808 
L 533.211429 747.738813 
L 532.695798 748.185781 
L 529.92 751.055923 
L 529.413597 751.481753 
L 526.628571 753.734806 
L 525.397235 754.777726 
L 523.337143 756.414907 
L 520.625701 758.073698 
L 520.045714 758.507829 
L 518.893869 758.073698 
L 516.754286 757.440543 
L 515.789686 758.073698 
L 513.462857 759.487971 
L 510.703463 761.369671 
L 510.171429 761.74082 
L 506.88 764.658441 
L 506.872052 764.665644 
L 503.588571 767.601388 
L 503.191616 767.961616 
L 500.297143 770.553647 
L 499.371892 771.257589 
L 497.005714 773.337592 
L 495.197313 774.553561 
L 493.714286 775.810052 
L 490.422857 777.521512 
L 487.131429 777.573652 
L 486.543401 777.849534 
L 483.84 779.085992 
L 481.482333 781.145507 
L 480.548571 781.721715 
L 477.404472 784.441479 
L 477.257143 784.585312 
L 473.965714 787.472802 
L 473.611781 787.737452 
L 470.674286 790.321737 
L 469.661864 791.033424 
L 467.382857 792.978968 
L 465.269404 794.329397 
L 464.091429 795.287523 
L 460.8 796.43956 
L 457.508571 795.874905 
L 454.217143 797.325615 
L 453.859553 797.62537 
L 450.925714 800.048667 
L 449.883553 800.921342 
L 447.634286 802.885706 
L 446.001615 804.217315 
L 444.342857 805.77415 
L 442.134696 807.513287 
L 441.051429 808.517912 
L 437.994855 810.80926 
L 437.76 811.023315 
L 434.468571 813.258151 
L 432.494059 814.105233 
L 431.177143 814.853766 
L 429.484483 814.105233 
L 427.885714 813.684832 
L 427.25177 814.105233 
L 425.804299 815.045212 
M 562.834286 760.087952 
L 563.815639 758.073698 
L 562.834286 757.560541 
L 562.462212 758.073698 
L 562.834286 760.087952 
z
M 566.125714 756.311857 
L 567.227848 754.777726 
L 566.125714 753.75522 
L 565.222884 754.777726 
L 566.125714 756.311857 
z
" clip-path="url(#pe46b7d94fa)" style="fill: none"/>
    <path d="M 576 813.481019 
L 575.146379 814.105233 
L 572.708571 815.859409 
L 570.612514 817.401205 
L 569.417143 818.276688 
L 566.131635 820.697178 
" clip-path="url(#pe46b7d94fa)" style="fill: none"/>
    <path clip-path="url(#pe46b7d94fa)" style="fill: none"/>
    <path clip-path="url(#pe46b7d94fa)" style="fill: none"/>
    <path clip-path="url(#pe46b7d94fa)" style="fill: none"/>
    <path clip-path="url(#pe46b7d94fa)" style="fill: none"/>
    <path clip-path="url(#pe46b7d94fa)" style="fill: none"/>
    <path clip-path="url(#pe46b7d94fa)" style="fill: none"/>
    <path clip-path="url(#pe46b7d94fa)" style="fill: none"/>
    <path clip-path="url(#pe46b7d94fa)" style="fill: none"/>
    <path clip-path="url(#pe46b7d94fa)" style="fill: none"/>
    <path clip-path="url(#pe46b7d94fa)" style="fill: none"/>
    <path clip-path="url(#pe46b7d94fa)" style="fill: none"/>
    <path clip-path="url(#pe46b7d94fa)" style="fill: none"/>
    <path clip-path="url(#pe46b7d94fa)" style="fill: none"/>
    <path clip-path="url(#pe46b7d94fa)" style="fill: none"/>
    <path clip-path="url(#pe46b7d94fa)" style="fill: none"/>
    <path clip-path="url(#pe46b7d94fa)" style="fill: none"/>
    <path clip-path="url(#pe46b7d94fa)" style="fill: none"/>
    <path clip-path="url(#pe46b7d94fa)" style="fill: none"/>
    <path clip-path="url(#pe46b7d94fa)" style="fill: none"/>
    <path clip-path="url(#pe46b7d94fa)" style="fill: none"/>
    <path clip-path="url(#pe46b7d94fa)" style="fill: none"/>
    <path clip-path="url(#pe46b7d94fa)" style="fill: none"/>
    <path clip-path="url(#pe46b7d94fa)" style="fill: none"/>
    <path clip-path="url(#pe46b7d94fa)" style="fill: none"/>
    <path clip-path="url(#pe46b7d94fa)" style="fill: none"/>
    <path clip-path="url(#pe46b7d94fa)" style="fill: none"/>
    <path clip-path="url(#pe46b7d94fa)" style="fill: none"/>
    <path clip-path="url(#pe46b7d94fa)" style="fill: none"/>
    <path clip-path="url(#pe46b7d94fa)" style="fill: none"/>
    <path clip-path="url(#pe46b7d94fa)" style="fill: none"/>
   </g>
   <g id="text_1">
    <g clip-path="url(#pe46b7d94fa)">
     <!-- 0 -->
     <g style="opacity: 0" transform="translate(413.811162 752.253629) rotate(-38.701385) scale(0.12 -0.12)">
      <defs>
       <path id="DejaVuSans-30" d="M 2034 4250 
Q 1547 4250 1301 3770 
Q 1056 3291 1056 2328 
Q 1056 1369 1301 889 
Q 1547 409 2034 409 
Q 2525 409 2770 889 
Q 3016 1369 3016 2328 
Q 3016 3291 2770 3770 
Q 2525 4250 2034 4250 
z
M 2034 4750 
Q 2819 4750 3233 4129 
Q 3647 3509 3647 2328 
Q 3647 1150 3233 529 
Q 2819 -91 2034 -91 
Q 1250 -91 836 529 
Q 422 1150 422 2328 
Q 422 3509 836 4129 
Q 1250 4750 2034 4750 
z
" transform="scale(0.015625)"/>
      </defs>
      <use xlink:href="#DejaVuSans-30"/>
     </g>
    </g>
   </g>
   <g id="text_2">
    <g clip-path="url(#pe46b7d94fa)">
     <!-- 1 -->
     <g style="opacity: 0" transform="translate(297.927876 820.454348) rotate(-30.697936) scale(0.12 -0.12)">
      <defs>
       <path id="DejaVuSans-31" d="M 794 531 
L 1825 531 
L 1825 4091 
L 703 3866 
L 703 4441 
L 1819 4666 
L 2450 4666 
L 2450 531 
L 3481 531 
L 3481 0 
L 794 0 
L 794 531 
z
" transform="scale(0.015625)"/>
      </defs>
      <use xlink:href="#DejaVuSans-31"/>
     </g>
    </g>
   </g>
   <g id="text_3">
    <g clip-path="url(#pe46b7d94fa)">
     <!-- 2 -->
     <g style="opacity: 0" transform="translate(498.04392 693.899899) rotate(-45.136413) scale(0.12 -0.12)">
      <defs>
       <path id="DejaVuSans-32" d="M 1228 531 
L 3431 531 
L 3431 0 
L 469 0 
L 469 531 
Q 828 903 1448 1529 
Q 2069 2156 2228 2338 
Q 2531 2678 2651 2914 
Q 2772 3150 2772 3378 
Q 2772 3750 2511 3984 
Q 2250 4219 1831 4219 
Q 1534 4219 1204 4116 
Q 875 4013 500 3803 
L 500 4441 
Q 881 4594 1212 4672 
Q 1544 4750 1819 4750 
Q 2544 4750 2975 4387 
Q 3406 4025 3406 3419 
Q 3406 3131 3298 2873 
Q 3191 2616 2906 2266 
Q 2828 2175 2409 1742 
Q 1991 1309 1228 531 
z
" transform="scale(0.015625)"/>
      </defs>
      <use xlink:href="#DejaVuSans-32"/>
     </g>
    </g>
   </g>
   <g id="text_4">
    <g clip-path="url(#pe46b7d94fa)">
     <!-- 3 -->
     <g style="opacity: 0" transform="translate(468.798106 716.977107) rotate(-46.165236) scale(0.12 -0.12)">
      <defs>
       <path id="DejaVuSans-33" d="M 2597 2516 
Q 3050 2419 3304 2112 
Q 3559 1806 3559 1356 
Q 3559 666 3084 287 
Q 2609 -91 1734 -91 
Q 1441 -91 1130 -33 
Q 819 25 488 141 
L 488 750 
Q 750 597 1062 519 
Q 1375 441 1716 441 
Q 2309 441 2620 675 
Q 2931 909 2931 1356 
Q 2931 1769 2642 2001 
Q 2353 2234 1838 2234 
L 1294 2234 
L 1294 2753 
L 1863 2753 
Q 2328 2753 2575 2939 
Q 2822 3125 2822 3475 
Q 2822 3834 2567 4026 
Q 2313 4219 1838 4219 
Q 1578 4219 1281 4162 
Q 984 4106 628 3988 
L 628 4550 
Q 988 4650 1302 4700 
Q 1616 4750 1894 4750 
Q 2613 4750 3031 4423 
Q 3450 4097 3450 3541 
Q 3450 3153 3228 2886 
Q 3006 2619 2597 2516 
z
" transform="scale(0.015625)"/>
      </defs>
      <use xlink:href="#DejaVuSans-33"/>
     </g>
    </g>
   </g>
   <g id="text_5">
    <g clip-path="url(#pe46b7d94fa)">
     <!-- 4 -->
     <g style="opacity: 0" transform="translate(436.594604 743.342884) rotate(-45.746081) scale(0.12 -0.12)">
      <defs>
       <path id="DejaVuSans-34" d="M 2419 4116 
L 825 1625 
L 2419 1625 
L 2419 4116 
z
M 2253 4666 
L 3047 4666 
L 3047 1625 
L 3713 1625 
L 3713 1100 
L 3047 1100 
L 3047 0 
L 2419 0 
L 2419 1100 
L 313 1100 
L 313 1709 
L 2253 4666 
z
" transform="scale(0.015625)"/>
      </defs>
      <use xlink:href="#DejaVuSans-34"/>
     </g>
    </g>
   </g>
   <g id="text_6">
    <g clip-path="url(#pe46b7d94fa)">
     <!-- 5 -->
     <g style="opacity: 0" transform="translate(489.229548 748.778431) rotate(-35.403459) scale(0.12 -0.12)">
      <defs>
       <path id="DejaVuSans-35" d="M 691 4666 
L 3169 4666 
L 3169 4134 
L 1269 4134 
L 1269 2991 
Q 1406 3038 1543 3061 
Q 1681 3084 1819 3084 
Q 2600 3084 3056 2656 
Q 3513 2228 3513 1497 
Q 3513 744 3044 326 
Q 2575 -91 1722 -91 
Q 1428 -91 1123 -41 
Q 819 9 494 109 
L 494 744 
Q 775 591 1075 516 
Q 1375 441 1709 441 
Q 2250 441 2565 725 
Q 2881 1009 2881 1497 
Q 2881 1984 2565 2268 
Q 2250 2553 1709 2553 
Q 1456 2553 1204 2497 
Q 953 2441 691 2322 
L 691 4666 
z
" transform="scale(0.015625)"/>
      </defs>
      <use xlink:href="#DejaVuSans-35"/>
     </g>
    </g>
   </g>
   <g id="text_7">
    <g clip-path="url(#pe46b7d94fa)">
     <!-- 6 -->
     <g style="opacity: 0" transform="translate(406.964264 815.500804) rotate(-35.641711) scale(0.12 -0.12)">
      <defs>
       <path id="DejaVuSans-36" d="M 2113 2584 
Q 1688 2584 1439 2293 
Q 1191 2003 1191 1497 
Q 1191 994 1439 701 
Q 1688 409 2113 409 
Q 2538 409 2786 701 
Q 3034 994 3034 1497 
Q 3034 2003 2786 2293 
Q 2538 2584 2113 2584 
z
M 3366 4563 
L 3366 3988 
Q 3128 4100 2886 4159 
Q 2644 4219 2406 4219 
Q 1781 4219 1451 3797 
Q 1122 3375 1075 2522 
Q 1259 2794 1537 2939 
Q 1816 3084 2150 3084 
Q 2853 3084 3261 2657 
Q 3669 2231 3669 1497 
Q 3669 778 3244 343 
Q 2819 -91 2113 -91 
Q 1303 -91 875 529 
Q 447 1150 447 2328 
Q 447 3434 972 4092 
Q 1497 4750 2381 4750 
Q 2619 4750 2861 4703 
Q 3103 4656 3366 4563 
z
" transform="scale(0.015625)"/>
      </defs>
      <use xlink:href="#DejaVuSans-36"/>
     </g>
    </g>
   </g>
   <g id="text_8">
    <g clip-path="url(#pe46b7d94fa)">
     <!-- 7 -->
     <g style="opacity: 0" transform="translate(466.808801 816.915494) rotate(-42.539393) scale(0.12 -0.12)">
      <defs>
       <path id="DejaVuSans-37" d="M 525 4666 
L 3525 4666 
L 3525 4397 
L 1831 0 
L 1172 0 
L 2766 4134 
L 525 4134 
L 525 4666 
z
" transform="scale(0.015625)"/>
      </defs>
      <use xlink:href="#DejaVuSans-37"/>
     </g>
    </g>
   </g>
   <g id="text_9">
    <g clip-path="url(#pe46b7d94fa)">
     <!-- 7 -->
     <g style="opacity: 0" transform="translate(505.371274 808.560531) rotate(-31.691416) scale(0.12 -0.12)">
      <use xlink:href="#DejaVuSans-37"/>
     </g>
    </g>
   </g>
   <g id="text_10">
    <g clip-path="url(#pe46b7d94fa)">
     <!-- 7 -->
     <g style="opacity: 0" transform="translate(416.93377 825.480859) rotate(-36.749139) scale(0.12 -0.12)">
      <use xlink:href="#DejaVuSans-37"/>
     </g>
    </g>
   </g>
  </g>
 </g>
 <defs>
  <clipPath id="pe46b7d94fa">
   <rect x="0" y="0" width="576" height="820.697178"/>
  </clipPath>
 </defs>
</svg>
