<?xml version="1.0" encoding="utf-8" standalone="no"?>
<!DOCTYPE svg PUBLIC "-//W3C//DTD SVG 1.1//EN"
  "http://www.w3.org/Graphics/SVG/1.1/DTD/svg11.dtd">
<svg xmlns:xlink="http://www.w3.org/1999/xlink" width="576pt" height="819.10262pt" viewBox="0 0 576 819.10262" xmlns="http://www.w3.org/2000/svg" version="1.1">
 <metadata>
  <rdf:RDF xmlns:dc="http://purl.org/dc/elements/1.1/" xmlns:cc="http://creativecommons.org/ns#" xmlns:rdf="http://www.w3.org/1999/02/22-rdf-syntax-ns#">
   <cc:Work>
    <dc:type rdf:resource="http://purl.org/dc/dcmitype/StillImage"/>
    <dc:date>2025-07-25T22:45:55.704817</dc:date>
    <dc:format>image/svg+xml</dc:format>
    <dc:creator>
     <cc:Agent>
      <dc:title>Matplotlib v3.10.3, https://matplotlib.org/</dc:title>
     </cc:Agent>
    </dc:creator>
   </cc:Work>
  </rdf:RDF>
 </metadata>
 <defs>
  <style type="text/css">*{stroke-linejoin: round; stroke-linecap: butt}</style>
 </defs>
 <g id="figure_1">
  <g id="patch_1">
   <path d="M 0 819.10262 
L 576 819.10262 
L 576 0 
L 0 0 
L 0 819.10262 
z
" style="fill: none; opacity: 0"/>
  </g>
  <g id="axes_1">
   <g id="QuadContourSet_1">
    <path d="M 3.291429 819.10262 
L 6.582857 819.10262 
L 9.874286 819.10262 
L 13.165714 819.10262 
L 16.457143 819.10262 
L 19.748571 819.10262 
L 23.04 819.10262 
L 26.331429 819.10262 
L 29.622857 819.10262 
L 32.914286 819.10262 
L 36.205714 819.10262 
L 39.497143 819.10262 
L 42.788571 819.10262 
L 46.08 819.10262 
L 49.371429 819.10262 
L 52.662857 819.10262 
L 55.954286 819.10262 
L 59.245714 819.10262 
L 62.537143 819.10262 
L 65.828571 819.10262 
L 69.12 819.10262 
L 72.411429 819.10262 
L 75.702857 819.10262 
L 78.994286 819.10262 
L 82.285714 819.10262 
L 85.577143 819.10262 
L 88.868571 819.10262 
L 92.16 819.10262 
L 95.451429 819.10262 
L 98.742857 819.10262 
L 102.034286 819.10262 
L 105.325714 819.10262 
L 108.617143 819.10262 
L 111.908571 819.10262 
L 115.2 819.10262 
L 118.491429 819.10262 
L 121.782857 819.10262 
L 125.074286 819.10262 
L 128.365714 819.10262 
L 131.657143 819.10262 
L 134.948571 819.10262 
L 138.24 819.10262 
L 141.531429 819.10262 
L 144.822857 819.10262 
L 148.114286 819.10262 
L 151.405714 819.10262 
L 154.697143 819.10262 
L 157.988571 819.10262 
L 161.28 819.10262 
L 164.571429 819.10262 
L 167.862857 819.10262 
L 171.154286 819.10262 
L 174.445714 819.10262 
L 177.737143 819.10262 
L 181.028571 819.10262 
L 184.32 819.10262 
L 187.611429 819.10262 
L 190.902857 819.10262 
L 194.194286 819.10262 
L 197.485714 819.10262 
L 200.777143 819.10262 
L 204.068571 819.10262 
L 207.36 819.10262 
L 210.651429 819.10262 
L 213.942857 819.10262 
L 217.234286 819.10262 
L 220.525714 819.10262 
L 223.817143 819.10262 
L 227.108571 819.10262 
L 230.4 819.10262 
L 233.691429 819.10262 
L 236.982857 819.10262 
L 240.274286 819.10262 
L 243.565714 819.10262 
L 246.857143 819.10262 
L 250.148571 819.10262 
L 253.44 819.10262 
L 256.731429 819.10262 
L 260.022857 819.10262 
L 263.314286 819.10262 
L 266.605714 819.10262 
L 269.897143 819.10262 
L 273.188571 819.10262 
L 276.48 819.10262 
L 279.771429 819.10262 
L 283.062857 819.10262 
L 286.354286 819.10262 
L 289.645714 819.10262 
L 292.937143 819.10262 
L 296.228571 819.10262 
L 299.52 819.10262 
L 302.811429 819.10262 
L 306.102857 819.10262 
L 309.394286 819.10262 
L 312.685714 819.10262 
L 315.977143 819.10262 
L 319.268571 819.10262 
L 322.56 819.10262 
L 325.851429 819.10262 
L 329.142857 819.10262 
L 332.434286 819.10262 
L 335.725714 819.10262 
L 339.017143 819.10262 
L 342.308571 819.10262 
L 345.6 819.10262 
L 348.891429 819.10262 
L 352.182857 819.10262 
L 355.474286 819.10262 
L 358.765714 819.10262 
L 362.057143 819.10262 
L 365.348571 819.10262 
L 368.64 819.10262 
L 371.931429 819.10262 
L 375.222857 819.10262 
L 378.514286 819.10262 
L 381.805714 819.10262 
L 385.097143 819.10262 
L 388.388571 819.10262 
L 391.68 819.10262 
L 394.971429 819.10262 
L 398.262857 819.10262 
L 401.554286 819.10262 
L 404.845714 819.10262 
L 408.137143 819.10262 
L 411.428571 819.10262 
L 414.72 819.10262 
L 418.011429 819.10262 
L 421.302857 819.10262 
L 424.594286 819.10262 
L 427.885714 819.10262 
L 431.177143 819.10262 
L 434.468571 819.10262 
L 437.76 819.10262 
L 441.051429 819.10262 
L 444.342857 819.10262 
L 447.634286 819.10262 
L 450.925714 819.10262 
L 454.217143 819.10262 
L 457.508571 819.10262 
L 460.8 819.10262 
L 464.091429 819.10262 
L 467.382857 819.10262 
L 470.674286 819.10262 
L 473.965714 819.10262 
L 477.257143 819.10262 
L 480.548571 819.10262 
L 483.84 819.10262 
L 487.131429 819.10262 
L 490.422857 819.10262 
L 493.714286 819.10262 
L 497.005714 819.10262 
L 500.297143 819.10262 
L 503.588571 819.10262 
L 506.88 819.10262 
L 510.171429 819.10262 
L 513.462857 819.10262 
L 516.754286 819.10262 
L 520.045714 819.10262 
L 523.337143 819.10262 
L 526.628571 819.10262 
L 529.92 819.10262 
L 533.211429 819.10262 
L 536.502857 819.10262 
L 539.794286 819.10262 
L 543.085714 819.10262 
L 546.377143 819.10262 
L 549.668571 819.10262 
L 552.96 819.10262 
L 556.251429 819.10262 
L 559.542857 819.10262 
L 562.834286 819.10262 
L 566.125714 819.10262 
L 569.417143 819.10262 
L 572.708571 819.10262 
L 576 819.10262 
L 576 815.813051 
L 576 812.523483 
L 576 809.233914 
L 576 805.944345 
L 576 802.654776 
L 576 799.365207 
L 576 796.075639 
L 576 792.78607 
L 576 789.496501 
L 576 786.206932 
L 576 782.917364 
L 576 779.627795 
L 576 776.338226 
L 576 773.048657 
L 576 769.759089 
L 576 766.46952 
L 576 763.179951 
L 576 759.890382 
L 576 756.600814 
L 576 753.311245 
L 576 750.021676 
L 576 746.732107 
L 576 743.442539 
L 576 740.15297 
L 576 736.863401 
L 576 733.573832 
L 576 730.284264 
L 576 726.994695 
L 576 723.705126 
L 576 720.415557 
L 576 717.125989 
L 576 713.83642 
L 576 710.546851 
L 576 707.257282 
L 576 703.967714 
L 576 700.678145 
L 576 697.388576 
L 576 694.099007 
L 576 690.809439 
L 576 687.51987 
L 576 684.230301 
L 576 680.940732 
L 576 677.651164 
L 576 674.361595 
L 576 671.072026 
L 576 667.782457 
L 576 664.492889 
L 576 661.20332 
L 576 657.913751 
L 576 654.624182 
L 576 651.334614 
L 576 648.045045 
L 576 644.755476 
L 576 641.465907 
L 576 638.176338 
L 576 634.88677 
L 576 631.597201 
L 576 628.307632 
L 576 625.018063 
L 576 621.728495 
L 576 618.438926 
L 576 615.149357 
L 576 611.859788 
L 576 608.57022 
L 576 605.280651 
L 576 601.991082 
L 576 598.701513 
L 576 595.411945 
L 576 592.122376 
L 576 588.832807 
L 576 585.543238 
L 576 582.25367 
L 576 578.964101 
L 576 575.674532 
L 576 572.384963 
L 576 569.095395 
L 576 565.805826 
L 576 562.516257 
L 576 559.226688 
L 576 555.93712 
L 576 552.647551 
L 576 549.357982 
L 576 546.068413 
L 576 542.778845 
L 576 539.489276 
L 576 536.199707 
L 576 532.910138 
L 576 529.62057 
L 576 526.331001 
L 576 523.041432 
L 576 519.751863 
L 576 516.462295 
L 576 513.172726 
L 576 509.883157 
L 576 506.593588 
L 576 503.30402 
L 576 500.014451 
L 576 496.724882 
L 576 493.435313 
L 576 490.145745 
L 576 486.856176 
L 576 483.566607 
L 576 480.277038 
L 576 476.987469 
L 576 473.697901 
L 576 470.408332 
L 576 467.118763 
L 576 463.829194 
L 576 460.539626 
L 576 457.250057 
L 576 453.960488 
L 576 450.670919 
L 576 447.381351 
L 576 444.091782 
L 576 440.802213 
L 576 437.512644 
L 576 434.223076 
L 576 430.933507 
L 576 427.643938 
L 576 424.354369 
L 576 421.064801 
L 576 417.775232 
L 576 414.485663 
L 576 411.196094 
L 576 407.906526 
L 576 404.616957 
L 576 401.327388 
L 576 398.037819 
L 576 394.748251 
L 576 391.458682 
L 576 388.169113 
L 576 384.879544 
L 576 381.589976 
L 576 378.300407 
L 576 375.010838 
L 576 371.721269 
L 576 368.431701 
L 576 365.142132 
L 576 361.852563 
L 576 358.562994 
L 576 355.273426 
L 576 351.983857 
L 576 348.694288 
L 576 345.404719 
L 576 342.115151 
L 576 338.825582 
L 576 335.536013 
L 576 332.246444 
L 576 328.956876 
L 576 325.667307 
L 576 322.377738 
L 576 319.088169 
L 576 315.7986 
L 576 312.509032 
L 576 309.219463 
L 576 305.929894 
L 576 302.640325 
L 576 299.350757 
L 576 296.061188 
L 576 292.771619 
L 576 289.48205 
L 576 286.192482 
L 576 282.902913 
L 576 279.613344 
L 576 276.323775 
L 576 273.034207 
L 576 269.744638 
L 576 266.455069 
L 576 263.1655 
L 576 259.875932 
L 576 256.586363 
L 576 253.296794 
L 576 250.007225 
L 576 246.717657 
L 576 243.428088 
L 576 240.138519 
L 576 236.84895 
L 576 233.559382 
L 576 230.269813 
L 576 226.980244 
L 576 223.690675 
L 576 220.401107 
L 576 217.111538 
L 576 213.821969 
L 576 210.5324 
L 576 207.242832 
L 576 203.953263 
L 576 200.663694 
L 576 197.374125 
L 576 194.084557 
L 576 190.794988 
L 576 187.505419 
L 576 184.21585 
L 576 180.926282 
L 576 177.636713 
L 576 174.347144 
L 576 171.057575 
L 576 167.768007 
L 576 164.478438 
L 576 161.188869 
L 576 157.8993 
L 576 154.609731 
L 576 151.320163 
L 576 148.030594 
L 576 144.741025 
L 576 141.451456 
L 576 138.161888 
L 576 134.872319 
L 576 131.58275 
L 576 128.293181 
L 576 125.003613 
L 576 121.714044 
L 576 118.424475 
L 576 115.134906 
L 576 111.845338 
L 576 108.555769 
L 576 105.2662 
L 576 101.976631 
L 576 98.687063 
L 576 95.397494 
L 576 92.107925 
L 576 88.818356 
L 576 85.528788 
L 576 82.239219 
L 576 78.94965 
L 576 75.660081 
L 576 72.370513 
L 576 69.080944 
L 576 65.791375 
L 576 62.501806 
L 576 59.212238 
L 576 55.922669 
L 576 52.6331 
L 576 49.343531 
L 576 46.053963 
L 576 42.764394 
L 576 39.474825 
L 576 36.185256 
L 576 32.895688 
L 576 29.606119 
L 576 26.31655 
L 576 23.026981 
L 576 19.737413 
L 576 16.447844 
L 576 13.158275 
L 576 9.868706 
L 576 6.579138 
L 576 3.289569 
L 576 0 
L 572.708571 0 
L 569.417143 0 
L 566.125714 0 
L 562.834286 0 
L 559.542857 0 
L 556.251429 0 
L 552.96 0 
L 549.668571 0 
L 546.377143 0 
L 543.085714 0 
L 539.794286 0 
L 536.502857 0 
L 533.211429 0 
L 529.92 0 
L 526.628571 0 
L 523.337143 0 
L 520.045714 0 
L 516.754286 0 
L 513.462857 0 
L 510.171429 0 
L 506.88 0 
L 503.588571 0 
L 500.297143 0 
L 497.005714 0 
L 493.714286 0 
L 490.422857 0 
L 487.131429 0 
L 483.84 0 
L 480.548571 0 
L 477.257143 0 
L 473.965714 0 
L 470.674286 0 
L 467.382857 0 
L 464.091429 0 
L 460.8 0 
L 457.508571 0 
L 454.217143 0 
L 450.925714 0 
L 447.634286 0 
L 444.342857 0 
L 441.051429 0 
L 437.76 0 
L 434.468571 0 
L 431.177143 0 
L 427.885714 0 
L 424.594286 0 
L 421.302857 0 
L 418.011429 0 
L 414.72 0 
L 411.428571 0 
L 408.137143 0 
L 404.845714 0 
L 401.554286 0 
L 398.262857 0 
L 394.971429 0 
L 391.68 0 
L 388.388571 0 
L 385.097143 0 
L 381.805714 0 
L 378.514286 0 
L 375.222857 0 
L 371.931429 0 
L 368.64 0 
L 365.348571 0 
L 362.057143 0 
L 358.765714 0 
L 355.474286 0 
L 352.182857 0 
L 348.891429 0 
L 345.6 0 
L 342.308571 0 
L 339.017143 0 
L 335.725714 0 
L 332.434286 0 
L 329.142857 0 
L 325.851429 0 
L 322.56 0 
L 319.268571 0 
L 315.977143 0 
L 312.685714 0 
L 309.394286 0 
L 306.102857 0 
L 302.811429 0 
L 299.52 0 
L 296.228571 0 
L 292.937143 0 
L 289.645714 0 
L 286.354286 0 
L 283.062857 0 
L 279.771429 0 
L 276.48 0 
L 273.188571 0 
L 269.897143 0 
L 266.605714 0 
L 263.314286 0 
L 260.022857 0 
L 256.731429 0 
L 253.44 0 
L 250.148571 0 
L 246.857143 0 
L 243.565714 0 
L 240.274286 0 
L 236.982857 0 
L 233.691429 0 
L 230.4 0 
L 227.108571 0 
L 223.817143 0 
L 220.525714 0 
L 217.234286 0 
L 213.942857 0 
L 210.651429 0 
L 207.36 0 
L 204.068571 0 
L 200.777143 0 
L 197.485714 0 
L 194.194286 0 
L 190.902857 0 
L 187.611429 0 
L 184.32 0 
L 181.028571 0 
L 177.737143 0 
L 174.445714 0 
L 171.154286 0 
L 167.862857 0 
L 164.571429 0 
L 161.28 0 
L 157.988571 0 
L 154.697143 0 
L 151.405714 0 
L 148.114286 0 
L 144.822857 0 
L 141.531429 0 
L 138.24 0 
L 134.948571 0 
L 131.657143 0 
L 128.365714 0 
L 125.074286 0 
L 121.782857 0 
L 118.491429 0 
L 115.2 0 
L 111.908571 0 
L 108.617143 0 
L 105.325714 0 
L 102.034286 0 
L 98.742857 0 
L 95.451429 0 
L 92.16 0 
L 88.868571 0 
L 85.577143 0 
L 82.285714 0 
L 78.994286 0 
L 75.702857 0 
L 72.411429 0 
L 69.12 0 
L 65.828571 0 
L 62.537143 0 
L 59.245714 0 
L 55.954286 0 
L 52.662857 0 
L 49.371429 0 
L 46.08 0 
L 42.788571 0 
L 39.497143 0 
L 36.205714 0 
L 32.914286 0 
L 29.622857 0 
L 26.331429 0 
L 23.04 0 
L 19.748571 0 
L 16.457143 0 
L 13.165714 0 
L 9.874286 0 
L 6.582857 0 
L 3.291429 0 
L 0 0 
L 0 3.289569 
L 0 6.579138 
L 0 9.868706 
L 0 13.158275 
L 0 16.447844 
L 0 19.737413 
L 0 23.026981 
L 0 26.31655 
L 0 29.606119 
L 0 32.895688 
L 0 36.185256 
L 0 39.474825 
L 0 42.764394 
L 0 46.053963 
L 0 49.343531 
L 0 52.6331 
L 0 55.922669 
L 0 59.212238 
L 0 62.501806 
L 0 65.791375 
L 0 69.080944 
L 0 72.370513 
L 0 75.660081 
L 0 78.94965 
L 0 82.239219 
L 0 85.528788 
L 0 88.818356 
L 0 92.107925 
L 0 95.397494 
L 0 98.687063 
L 0 101.976631 
L 0 105.2662 
L 0 108.555769 
L 0 111.845338 
L 0 115.134906 
L 0 118.424475 
L 0 121.714044 
L 0 125.003613 
L 0 128.293181 
L 0 131.58275 
L 0 134.872319 
L 0 138.161888 
L 0 141.451456 
L 0 144.741025 
L 0 148.030594 
L 0 151.320163 
L 0 154.609731 
L 0 157.8993 
L 0 161.188869 
L 0 164.478438 
L 0 167.768007 
L 0 171.057575 
L 0 174.347144 
L 0 177.636713 
L 0 180.926282 
L 0 184.21585 
L 0 187.505419 
L 0 190.794988 
L 0 194.084557 
L 0 197.374125 
L 0 200.663694 
L 0 203.953263 
L 0 207.242832 
L 0 210.5324 
L 0 213.821969 
L 0 217.111538 
L 0 220.401107 
L 0 223.690675 
L 0 226.980244 
L 0 230.269813 
L 0 233.559382 
L 0 236.84895 
L 0 240.138519 
L 0 243.428088 
L 0 246.717657 
L 0 250.007225 
L 0 253.296794 
L 0 256.586363 
L 0 259.875932 
L 0 263.1655 
L 0 266.455069 
L 0 269.744638 
L 0 273.034207 
L 0 276.323775 
L 0 279.613344 
L 0 282.902913 
L 0 286.192482 
L 0 289.48205 
L 0 292.771619 
L 0 296.061188 
L 0 299.350757 
L 0 302.640325 
L 0 305.929894 
L 0 309.219463 
L 0 312.509032 
L 0 315.7986 
L 0 319.088169 
L 0 322.377738 
L 0 325.667307 
L 0 328.956876 
L 0 332.246444 
L 0 335.536013 
L 0 338.825582 
L 0 342.115151 
L 0 345.404719 
L 0 348.694288 
L 0 351.983857 
L 0 355.273426 
L 0 358.562994 
L 0 361.852563 
L 0 365.142132 
L 0 368.431701 
L 0 371.721269 
L 0 375.010838 
L 0 378.300407 
L 0 381.589976 
L 0 384.879544 
L 0 388.169113 
L 0 391.458682 
L 0 394.748251 
L 0 398.037819 
L 0 401.327388 
L 0 404.616957 
L 0 407.906526 
L 0 411.196094 
L 0 414.485663 
L 0 417.775232 
L 0 421.064801 
L 0 424.354369 
L 0 427.643938 
L 0 430.933507 
L 0 434.223076 
L 0 437.512644 
L 0 440.802213 
L 0 444.091782 
L 0 447.381351 
L 0 450.670919 
L 0 453.960488 
L 0 457.250057 
L 0 460.539626 
L 0 463.829194 
L 0 467.118763 
L 0 470.408332 
L 0 473.697901 
L 0 476.987469 
L 0 480.277038 
L 0 483.566607 
L 0 486.856176 
L 0 490.145745 
L 0 493.435313 
L 0 496.724882 
L 0 500.014451 
L 0 503.30402 
L 0 506.593588 
L 0 509.883157 
L 0 513.172726 
L 0 516.462295 
L 0 519.751863 
L 0 523.041432 
L 0 526.331001 
L 0 529.62057 
L 0 532.910138 
L 0 536.199707 
L 0 539.489276 
L 0 542.778845 
L 0 546.068413 
L 0 549.357982 
L 0 552.647551 
L 0 555.93712 
L 0 559.226688 
L 0 562.516257 
L 0 565.805826 
L 0 569.095395 
L 0 572.384963 
L 0 575.674532 
L 0 578.964101 
L 0 582.25367 
L 0 585.543238 
L 0 588.832807 
L 0 592.122376 
L 0 595.411945 
L 0 598.701513 
L 0 601.991082 
L 0 605.280651 
L 0 608.57022 
L 0 611.859788 
L 0 615.149357 
L 0 618.438926 
L 0 621.728495 
L 0 625.018063 
L 0 628.307632 
L 0 631.597201 
L 0 634.88677 
L 0 638.176338 
L 0 641.465907 
L 0 644.755476 
L 0 648.045045 
L 0 651.334614 
L 0 654.624182 
L 0 657.913751 
L 0 661.20332 
L 0 664.492889 
L 0 667.782457 
L 0 671.072026 
L 0 674.361595 
L 0 677.651164 
L 0 680.940732 
L 0 684.230301 
L 0 687.51987 
L 0 690.809439 
L 0 694.099007 
L 0 697.388576 
L 0 700.678145 
L 0 703.967714 
L 0 707.257282 
L 0 710.546851 
L 0 713.83642 
L 0 717.125989 
L 0 720.415557 
L 0 723.705126 
L 0 726.994695 
L 0 730.284264 
L 0 733.573832 
L 0 736.863401 
L 0 740.15297 
L 0 743.442539 
L 0 746.732107 
L 0 750.021676 
L 0 753.311245 
L 0 756.600814 
L 0 759.890382 
L 0 763.179951 
L 0 766.46952 
L 0 769.759089 
L 0 773.048657 
L 0 776.338226 
L 0 779.627795 
L 0 782.917364 
L 0 786.206932 
L 0 789.496501 
L 0 792.78607 
L 0 796.075639 
L 0 799.365207 
L 0 802.654776 
L 0 805.944345 
L 0 809.233914 
L 0 812.523483 
L 0 815.813051 
L 0 819.10262 
z
" clip-path="url(#p69d18ceefa)" style="fill: #f5f9fe; fill-opacity: 0.9"/>
    <path clip-path="url(#p69d18ceefa)" style="fill: #eff6fc; fill-opacity: 0.9"/>
    <path clip-path="url(#p69d18ceefa)" style="fill: #eaf3fb; fill-opacity: 0.9"/>
    <path clip-path="url(#p69d18ceefa)" style="fill: #e5eff9; fill-opacity: 0.9"/>
    <path clip-path="url(#p69d18ceefa)" style="fill: #dfecf7; fill-opacity: 0.9"/>
    <path clip-path="url(#p69d18ceefa)" style="fill: #dae8f6; fill-opacity: 0.9"/>
    <path clip-path="url(#p69d18ceefa)" style="fill: #d6e5f4; fill-opacity: 0.9"/>
    <path clip-path="url(#p69d18ceefa)" style="fill: #d0e2f2; fill-opacity: 0.9"/>
    <path clip-path="url(#p69d18ceefa)" style="fill: #cbdef1; fill-opacity: 0.9"/>
    <path clip-path="url(#p69d18ceefa)" style="fill: #c6dbef; fill-opacity: 0.9"/>
    <path clip-path="url(#p69d18ceefa)" style="fill: #bed8ec; fill-opacity: 0.9"/>
    <path clip-path="url(#p69d18ceefa)" style="fill: #b5d4e9; fill-opacity: 0.9"/>
    <path clip-path="url(#p69d18ceefa)" style="fill: #add0e6; fill-opacity: 0.9"/>
    <path clip-path="url(#p69d18ceefa)" style="fill: #a5cde3; fill-opacity: 0.9"/>
    <path clip-path="url(#p69d18ceefa)" style="fill: #9cc9e1; fill-opacity: 0.9"/>
    <path clip-path="url(#p69d18ceefa)" style="fill: #91c3de; fill-opacity: 0.9"/>
    <path clip-path="url(#p69d18ceefa)" style="fill: #85bcdc; fill-opacity: 0.9"/>
    <path clip-path="url(#p69d18ceefa)" style="fill: #7cb7da; fill-opacity: 0.9"/>
    <path clip-path="url(#p69d18ceefa)" style="fill: #71b1d7; fill-opacity: 0.9"/>
    <path clip-path="url(#p69d18ceefa)" style="fill: #66abd4; fill-opacity: 0.9"/>
    <path clip-path="url(#p69d18ceefa)" style="fill: #5da5d1; fill-opacity: 0.9"/>
    <path clip-path="url(#p69d18ceefa)" style="fill: #56a0ce; fill-opacity: 0.9"/>
    <path clip-path="url(#p69d18ceefa)" style="fill: #4d99ca; fill-opacity: 0.9"/>
    <path clip-path="url(#p69d18ceefa)" style="fill: #4493c7; fill-opacity: 0.9"/>
    <path clip-path="url(#p69d18ceefa)" style="fill: #3c8cc3; fill-opacity: 0.9"/>
    <path clip-path="url(#p69d18ceefa)" style="fill: #3686c0; fill-opacity: 0.9"/>
    <path clip-path="url(#p69d18ceefa)" style="fill: #2f7fbc; fill-opacity: 0.9"/>
    <path clip-path="url(#p69d18ceefa)" style="fill: #2777b8; fill-opacity: 0.9"/>
    <path clip-path="url(#p69d18ceefa)" style="fill: #2070b4; fill-opacity: 0.9"/>
    <path clip-path="url(#p69d18ceefa)" style="fill: #1c6ab0; fill-opacity: 0.9"/>
    <path clip-path="url(#p69d18ceefa)" style="fill: #1663aa; fill-opacity: 0.9"/>
    <path clip-path="url(#p69d18ceefa)" style="fill: #115ca5; fill-opacity: 0.9"/>
    <path clip-path="url(#p69d18ceefa)" style="fill: #0c56a0; fill-opacity: 0.9"/>
    <path clip-path="url(#p69d18ceefa)" style="fill: #084f99; fill-opacity: 0.9"/>
    <path clip-path="url(#p69d18ceefa)" style="fill: #08488e; fill-opacity: 0.9"/>
    <path clip-path="url(#p69d18ceefa)" style="fill: #084184; fill-opacity: 0.9"/>
    <path clip-path="url(#p69d18ceefa)" style="fill: #083a7a; fill-opacity: 0.9"/>
    <path clip-path="url(#p69d18ceefa)" style="fill: #083370; fill-opacity: 0.9"/>
    <path clip-path="url(#p69d18ceefa)" style="fill: #08306b; fill-opacity: 0.9"/>
   </g>
   <g id="QuadContourSet_2">
    <path clip-path="url(#p69d18ceefa)" style="fill: none"/>
    <path clip-path="url(#p69d18ceefa)" style="fill: none"/>
    <path clip-path="url(#p69d18ceefa)" style="fill: none"/>
    <path clip-path="url(#p69d18ceefa)" style="fill: none"/>
    <path clip-path="url(#p69d18ceefa)" style="fill: none"/>
    <path clip-path="url(#p69d18ceefa)" style="fill: none"/>
    <path clip-path="url(#p69d18ceefa)" style="fill: none"/>
    <path clip-path="url(#p69d18ceefa)" style="fill: none"/>
    <path clip-path="url(#p69d18ceefa)" style="fill: none"/>
    <path clip-path="url(#p69d18ceefa)" style="fill: none"/>
    <path clip-path="url(#p69d18ceefa)" style="fill: none"/>
    <path clip-path="url(#p69d18ceefa)" style="fill: none"/>
    <path clip-path="url(#p69d18ceefa)" style="fill: none"/>
    <path clip-path="url(#p69d18ceefa)" style="fill: none"/>
    <path clip-path="url(#p69d18ceefa)" style="fill: none"/>
    <path clip-path="url(#p69d18ceefa)" style="fill: none"/>
    <path clip-path="url(#p69d18ceefa)" style="fill: none"/>
    <path clip-path="url(#p69d18ceefa)" style="fill: none"/>
    <path clip-path="url(#p69d18ceefa)" style="fill: none"/>
    <path clip-path="url(#p69d18ceefa)" style="fill: none"/>
    <path clip-path="url(#p69d18ceefa)" style="fill: none"/>
    <path clip-path="url(#p69d18ceefa)" style="fill: none"/>
    <path clip-path="url(#p69d18ceefa)" style="fill: none"/>
    <path clip-path="url(#p69d18ceefa)" style="fill: none"/>
    <path clip-path="url(#p69d18ceefa)" style="fill: none"/>
    <path clip-path="url(#p69d18ceefa)" style="fill: none"/>
    <path clip-path="url(#p69d18ceefa)" style="fill: none"/>
    <path clip-path="url(#p69d18ceefa)" style="fill: none"/>
    <path clip-path="url(#p69d18ceefa)" style="fill: none"/>
    <path clip-path="url(#p69d18ceefa)" style="fill: none"/>
    <path clip-path="url(#p69d18ceefa)" style="fill: none"/>
    <path clip-path="url(#p69d18ceefa)" style="fill: none"/>
    <path clip-path="url(#p69d18ceefa)" style="fill: none"/>
    <path clip-path="url(#p69d18ceefa)" style="fill: none"/>
    <path clip-path="url(#p69d18ceefa)" style="fill: none"/>
    <path clip-path="url(#p69d18ceefa)" style="fill: none"/>
    <path clip-path="url(#p69d18ceefa)" style="fill: none"/>
    <path clip-path="url(#p69d18ceefa)" style="fill: none"/>
    <path clip-path="url(#p69d18ceefa)" style="fill: none"/>
   </g>
  </g>
 </g>
 <defs>
  <clipPath id="p69d18ceefa">
   <rect x="0" y="0" width="576" height="819.10262"/>
  </clipPath>
 </defs>
</svg>
