<?xml version="1.0" encoding="utf-8" standalone="no"?>
<!DOCTYPE svg PUBLIC "-//W3C//DTD SVG 1.1//EN"
  "http://www.w3.org/Graphics/SVG/1.1/DTD/svg11.dtd">
<svg xmlns:xlink="http://www.w3.org/1999/xlink" width="576pt" height="820.697178pt" viewBox="0 0 576 820.697178" xmlns="http://www.w3.org/2000/svg" version="1.1">
 <metadata>
  <rdf:RDF xmlns:dc="http://purl.org/dc/elements/1.1/" xmlns:cc="http://creativecommons.org/ns#" xmlns:rdf="http://www.w3.org/1999/02/22-rdf-syntax-ns#">
   <cc:Work>
    <dc:type rdf:resource="http://purl.org/dc/dcmitype/StillImage"/>
    <dc:date>2025-07-25T22:45:58.084898</dc:date>
    <dc:format>image/svg+xml</dc:format>
    <dc:creator>
     <cc:Agent>
      <dc:title>Matplotlib v3.10.3, https://matplotlib.org/</dc:title>
     </cc:Agent>
    </dc:creator>
   </cc:Work>
  </rdf:RDF>
 </metadata>
 <defs>
  <style type="text/css">*{stroke-linejoin: round; stroke-linecap: butt}</style>
 </defs>
 <g id="figure_1">
  <g id="patch_1">
   <path d="M 0 820.697178 
L 576 820.697178 
L 576 0 
L 0 0 
L 0 820.697178 
z
" style="fill: none; opacity: 0"/>
  </g>
  <g id="axes_1">
   <g id="QuadContourSet_1">
    <path d="M 2.727721 42.847644 
L 3.291429 42.421941 
L 6.582857 40.804163 
L 9.874286 41.049263 
L 13.165714 39.723922 
L 13.345411 39.551671 
L 16.457143 38.41949 
L 19.748571 37.766993 
L 21.746639 36.255699 
L 23.04 35.731965 
L 26.331429 35.024003 
L 29.622857 33.602513 
L 30.28953 32.959726 
L 32.914286 31.261901 
L 35.990938 29.663753 
L 36.205714 29.500848 
L 39.497143 28.205351 
L 42.788571 27.97315 
L 46.08 27.103716 
L 46.800023 26.367781 
L 49.371429 25.226099 
L 52.662857 24.741027 
L 55.093259 23.071808 
L 55.954286 22.709901 
L 59.245714 21.848781 
L 62.537143 20.666355 
L 63.425443 19.775836 
L 65.828571 17.838236 
L 68.76446 16.479863 
L 69.12 16.21019 
L 72.411429 15.289284 
L 75.702857 14.688603 
L 78.994286 14.105502 
L 80.03495 13.18389 
L 82.285714 12.12851 
L 85.577143 11.570829 
L 88.415651 9.887918 
L 88.868571 9.694788 
L 92.16 8.666642 
L 95.451429 7.473192 
L 96.545398 6.591945 
L 98.742857 5.27379 
L 101.920372 3.295973 
L 102.034286 3.226632 
L 105.325714 2.679233 
L 108.617143 1.48466 
L 111.908571 1.094754 
L 113.316401 0 
L 111.908571 0 
L 108.617143 0 
L 105.325714 0 
L 104.285388 0 
L 102.034286 1.599112 
L 99.246659 3.295973 
L 98.742857 3.60956 
L 95.451429 5.912604 
L 94.06952 6.591945 
L 92.16 7.537212 
L 88.868571 8.618553 
L 85.891699 9.887918 
L 85.577143 10.074414 
L 82.285714 10.945033 
L 78.994286 11.430476 
L 75.702857 11.876689 
L 72.411429 10.937173 
L 69.12 13.142735 
L 69.076078 13.18389 
L 65.828571 16.151833 
L 65.469642 16.479863 
L 62.537143 19.087757 
L 61.054774 19.775836 
L 59.245714 20.673458 
L 55.954286 21.714273 
L 52.724524 23.071808 
L 52.662857 23.114161 
L 49.371429 24.117406 
L 46.08 24.534168 
L 42.788571 25.58987 
L 39.497143 24.919791 
L 37.371147 26.367781 
L 36.205714 26.969725 
L 32.914286 29.579249 
L 32.820126 29.663753 
L 29.622857 32.231698 
L 27.896875 32.959726 
L 26.331429 33.796252 
L 23.04 34.801587 
L 19.748571 36.00518 
L 19.339099 36.255699 
L 16.457143 37.291033 
L 13.165714 37.431551 
L 9.874286 37.820596 
L 6.582857 38.214743 
L 4.684127 39.551671 
L 3.291429 40.363836 
L 0.002411 42.847644 
L 0 42.849073 
L 0 44.46467 
z
" clip-path="url(#pbcc4df0b7d)" style="fill: #f5f9fe; fill-opacity: 0.9"/>
    <path d="M 0.002411 42.847644 
L 3.291429 40.363836 
L 4.684127 39.551671 
L 6.582857 38.214743 
L 9.874286 37.820596 
L 13.165714 37.431551 
L 16.457143 37.291033 
L 19.339099 36.255699 
L 19.748571 36.00518 
L 23.04 34.801587 
L 26.331429 33.796252 
L 27.896875 32.959726 
L 29.622857 32.231698 
L 32.820126 29.663753 
L 32.914286 29.579249 
L 36.205714 26.969725 
L 37.371147 26.367781 
L 39.497143 24.919791 
L 42.788571 25.58987 
L 46.08 24.534168 
L 49.371429 24.117406 
L 52.662857 23.114161 
L 52.724524 23.071808 
L 55.954286 21.714273 
L 59.245714 20.673458 
L 61.054774 19.775836 
L 62.537143 19.087757 
L 65.469642 16.479863 
L 65.828571 16.151833 
L 69.076078 13.18389 
L 69.12 13.142735 
L 72.411429 10.937173 
L 75.702857 11.876689 
L 78.994286 11.430476 
L 82.285714 10.945033 
L 85.577143 10.074414 
L 85.891699 9.887918 
L 88.868571 8.618553 
L 92.16 7.537212 
L 94.06952 6.591945 
L 95.451429 5.912604 
L 98.742857 3.60956 
L 99.246659 3.295973 
L 102.034286 1.599112 
L 104.285388 0 
L 102.034286 0 
L 101.999363 0 
L 98.742857 2.199325 
L 97.497248 3.295973 
L 95.451429 4.791004 
L 92.16 6.268134 
L 91.646961 6.591945 
L 88.868571 7.542317 
L 85.577143 7.800534 
L 82.285714 8.416744 
L 81.104463 6.591945 
L 79.077808 3.295973 
L 78.994286 3.278693 
L 78.976841 3.295973 
L 75.702857 5.862442 
L 74.968048 6.591945 
L 72.411429 8.902242 
L 71.419355 9.887918 
L 69.12 11.984248 
L 67.839714 13.18389 
L 65.828571 15.021902 
L 64.233279 16.479863 
L 62.537143 17.988249 
L 59.245714 19.345952 
L 58.588455 19.775836 
L 55.954286 20.718646 
L 52.662857 20.994558 
L 49.371429 22.334352 
L 47.614976 19.775836 
L 46.08 18.186924 
L 42.788571 19.57888 
L 42.589406 19.775836 
L 39.497143 22.476743 
L 38.896287 23.071808 
L 36.205714 25.457854 
L 35.286041 26.367781 
L 32.914286 28.496342 
L 31.613495 29.663753 
L 29.622857 31.26257 
L 26.331429 32.425391 
L 25.523614 32.959726 
L 23.04 33.871208 
L 19.748571 34.083387 
L 16.457143 35.260926 
L 14.831496 32.959726 
L 13.165714 32.123965 
L 11.461056 32.959726 
L 9.874286 33.530614 
L 6.582857 35.967057 
L 6.290577 36.255699 
L 3.291429 38.833196 
L 2.565217 39.551671 
L 0 41.798072 
L 0 42.847644 
L 0 42.849073 
z
" clip-path="url(#pbcc4df0b7d)" style="fill: #eff6fc; fill-opacity: 0.9"/>
    <path d="M 2.565217 39.551671 
L 3.291429 38.833196 
L 6.290577 36.255699 
L 6.582857 35.967057 
L 9.874286 33.530614 
L 11.461056 32.959726 
L 13.165714 32.123965 
L 14.831496 32.959726 
L 16.457143 35.260926 
L 19.748571 34.083387 
L 23.04 33.871208 
L 25.523614 32.959726 
L 26.331429 32.425391 
L 29.622857 31.26257 
L 31.613495 29.663753 
L 32.914286 28.496342 
L 35.286041 26.367781 
L 36.205714 25.457854 
L 38.896287 23.071808 
L 39.497143 22.476743 
L 42.589406 19.775836 
L 42.788571 19.57888 
L 46.08 18.186924 
L 47.614976 19.775836 
L 49.371429 22.334352 
L 52.662857 20.994558 
L 55.954286 20.718646 
L 58.588455 19.775836 
L 59.245714 19.345952 
L 62.537143 17.988249 
L 64.233279 16.479863 
L 65.828571 15.021902 
L 67.839714 13.18389 
L 69.12 11.984248 
L 71.419355 9.887918 
L 72.411429 8.902242 
L 74.968048 6.591945 
L 75.702857 5.862442 
L 78.976841 3.295973 
L 78.994286 3.278693 
L 79.077808 3.295973 
L 81.104463 6.591945 
L 82.285714 8.416744 
L 85.577143 7.800534 
L 88.868571 7.542317 
L 91.646961 6.591945 
L 92.16 6.268134 
L 95.451429 4.791004 
L 97.497248 3.295973 
L 98.742857 2.199325 
L 101.999363 0 
L 99.998568 0 
L 98.742857 0.848061 
L 95.962438 3.295973 
L 95.451429 3.669405 
L 92.16 4.282274 
L 88.868571 4.968255 
L 87.801591 3.295973 
L 85.636978 0 
L 85.577143 0 
L 82.285714 0 
L 81.258035 0 
L 78.994286 1.526105 
L 77.207466 3.295973 
L 75.702857 4.475433 
L 73.570951 6.591945 
L 72.411429 7.639751 
L 70.148671 9.887918 
L 69.12 10.825761 
L 66.60335 13.18389 
L 65.828571 13.891972 
L 62.996915 16.479863 
L 62.537143 16.888742 
L 59.245714 17.526543 
L 55.954286 19.08421 
L 54.185816 16.479863 
L 52.662857 14.314327 
L 51.852239 13.18389 
L 49.371429 12.528569 
L 48.703875 13.18389 
L 46.08 15.062874 
L 44.644356 16.479863 
L 42.788571 18.069393 
L 41.062985 19.775836 
L 39.497143 21.143506 
L 37.550076 23.071808 
L 36.205714 24.264011 
L 34.07941 26.367781 
L 32.914286 27.413436 
L 30.406864 29.663753 
L 29.622857 30.293443 
L 26.331429 30.748527 
L 23.04 32.713818 
L 20.925758 29.663753 
L 19.748571 28.090499 
L 17.001747 26.367781 
L 16.457143 26.292642 
L 16.380185 26.367781 
L 13.165714 28.839449 
L 12.326023 29.663753 
L 9.874286 31.648812 
L 8.543582 32.959726 
L 6.582857 34.603286 
L 4.909616 36.255699 
L 3.291429 37.646385 
L 1.365624 39.551671 
L 0 40.74757 
L 0 41.798072 
z
" clip-path="url(#pbcc4df0b7d)" style="fill: #eaf3fb; fill-opacity: 0.9"/>
    <path d="M 1.365624 39.551671 
L 3.291429 37.646385 
L 4.909616 36.255699 
L 6.582857 34.603286 
L 8.543582 32.959726 
L 9.874286 31.648812 
L 12.326023 29.663753 
L 13.165714 28.839449 
L 16.380185 26.367781 
L 16.457143 26.292642 
L 17.001747 26.367781 
L 19.748571 28.090499 
L 20.925758 29.663753 
L 23.04 32.713818 
L 26.331429 30.748527 
L 29.622857 30.293443 
L 30.406864 29.663753 
L 32.914286 27.413436 
L 34.07941 26.367781 
L 36.205714 24.264011 
L 37.550076 23.071808 
L 39.497143 21.143506 
L 41.062985 19.775836 
L 42.788571 18.069393 
L 44.644356 16.479863 
L 46.08 15.062874 
L 48.703875 13.18389 
L 49.371429 12.528569 
L 51.852239 13.18389 
L 52.662857 14.314327 
L 54.185816 16.479863 
L 55.954286 19.08421 
L 59.245714 17.526543 
L 62.537143 16.888742 
L 62.996915 16.479863 
L 65.828571 13.891972 
L 66.60335 13.18389 
L 69.12 10.825761 
L 70.148671 9.887918 
L 72.411429 7.639751 
L 73.570951 6.591945 
L 75.702857 4.475433 
L 77.207466 3.295973 
L 78.994286 1.526105 
L 81.258035 0 
L 78.994286 0 
L 75.702857 0 
L 73.327898 0 
L 72.411429 0.52347 
L 69.12 2.346531 
L 67.320338 3.295973 
L 65.828571 4.10875 
L 62.537143 5.850444 
L 61.055251 6.591945 
L 59.245714 7.541202 
L 57.169179 6.591945 
L 55.954286 6.358371 
L 55.675013 6.591945 
L 52.662857 7.162089 
L 49.842206 9.887918 
L 49.371429 10.14408 
L 46.274873 13.18389 
L 46.08 13.323441 
L 42.882023 16.479863 
L 42.788571 16.559907 
L 39.536565 19.775836 
L 39.497143 19.810268 
L 36.205714 23.017045 
L 36.11458 23.071808 
L 32.914286 24.996206 
L 30.630773 26.367781 
L 29.622857 26.504725 
L 29.098935 26.367781 
L 26.331429 25.023743 
L 25.001605 23.071808 
L 23.04 21.340755 
L 19.748571 21.076893 
L 17.675769 23.071808 
L 16.457143 23.825112 
L 13.852908 26.367781 
L 13.165714 26.896177 
L 10.346476 29.663753 
L 9.874286 30.046065 
L 6.916639 32.959726 
L 6.582857 33.239516 
L 3.528654 36.255699 
L 3.291429 36.459573 
L 0.166032 39.551671 
L 0 39.697068 
L 0 40.74757 
z
M 88.868571 4.968255 
L 92.16 4.282274 
L 95.451429 3.669405 
L 95.962438 3.295973 
L 98.742857 0.848061 
L 99.998568 0 
L 98.742857 0 
L 95.451429 0 
L 92.16 0 
L 88.868571 0 
L 85.636978 0 
L 87.801591 3.295973 
z
" clip-path="url(#pbcc4df0b7d)" style="fill: #e5eff9; fill-opacity: 0.9"/>
    <path d="M 0.166032 39.551671 
L 3.291429 36.459573 
L 3.528654 36.255699 
L 6.582857 33.239516 
L 6.916639 32.959726 
L 9.874286 30.046065 
L 10.346476 29.663753 
L 13.165714 26.896177 
L 13.852908 26.367781 
L 16.457143 23.825112 
L 17.675769 23.071808 
L 19.748571 21.076893 
L 23.04 21.340755 
L 25.001605 23.071808 
L 26.331429 25.023743 
L 29.098935 26.367781 
L 29.622857 26.504725 
L 30.630773 26.367781 
L 32.914286 24.996206 
L 36.11458 23.071808 
L 36.205714 23.017045 
L 39.497143 19.810268 
L 39.536565 19.775836 
L 42.788571 16.559907 
L 42.882023 16.479863 
L 46.08 13.323441 
L 46.274873 13.18389 
L 49.371429 10.14408 
L 49.842206 9.887918 
L 52.662857 7.162089 
L 55.675013 6.591945 
L 55.954286 6.358371 
L 57.169179 6.591945 
L 59.245714 7.541202 
L 61.055251 6.591945 
L 62.537143 5.850444 
L 65.828571 4.10875 
L 67.320338 3.295973 
L 69.12 2.346531 
L 72.411429 0.52347 
L 73.327898 0 
L 72.411429 0 
L 69.12 0 
L 65.828571 0 
L 62.537143 0 
L 59.245714 0 
L 55.954286 0 
L 52.662857 0 
L 49.371429 0 
L 46.08 0 
L 42.788571 0 
L 39.497143 0 
L 36.205714 0 
L 32.914286 0 
L 29.622857 0 
L 26.331429 0 
L 23.04 0 
L 19.748571 0 
L 16.457143 0 
L 13.165714 0 
L 9.874286 0 
L 9.590892 0 
L 6.582857 1.402288 
L 3.291429 3.020677 
L 2.770855 3.295973 
L 0 4.717276 
L 0 6.591945 
L 0 9.887918 
L 0 13.18389 
L 0 16.479863 
L 0 19.775836 
L 0 23.071808 
L 0 26.367781 
L 0 29.663753 
L 0 32.959726 
L 0 36.255699 
L 0 39.551671 
L 0 39.697068 
z
" clip-path="url(#pbcc4df0b7d)" style="fill: #dfecf7; fill-opacity: 0.9"/>
    <path d="M 2.770855 3.295973 
L 3.291429 3.020677 
L 6.582857 1.402288 
L 9.590892 0 
L 6.582857 0 
L 3.291429 0 
L 0 0 
L 0 3.295973 
L 0 4.717276 
z
" clip-path="url(#pbcc4df0b7d)" style="fill: #dae8f6; fill-opacity: 0.9"/>
    <path clip-path="url(#pbcc4df0b7d)" style="fill: #d6e5f4; fill-opacity: 0.9"/>
    <path clip-path="url(#pbcc4df0b7d)" style="fill: #d0e2f2; fill-opacity: 0.9"/>
    <path clip-path="url(#pbcc4df0b7d)" style="fill: #cbdef1; fill-opacity: 0.9"/>
    <path clip-path="url(#pbcc4df0b7d)" style="fill: #c6dbef; fill-opacity: 0.9"/>
    <path clip-path="url(#pbcc4df0b7d)" style="fill: #bed8ec; fill-opacity: 0.9"/>
    <path clip-path="url(#pbcc4df0b7d)" style="fill: #b5d4e9; fill-opacity: 0.9"/>
    <path clip-path="url(#pbcc4df0b7d)" style="fill: #add0e6; fill-opacity: 0.9"/>
    <path clip-path="url(#pbcc4df0b7d)" style="fill: #a5cde3; fill-opacity: 0.9"/>
    <path clip-path="url(#pbcc4df0b7d)" style="fill: #9cc9e1; fill-opacity: 0.9"/>
    <path clip-path="url(#pbcc4df0b7d)" style="fill: #91c3de; fill-opacity: 0.9"/>
    <path clip-path="url(#pbcc4df0b7d)" style="fill: #85bcdc; fill-opacity: 0.9"/>
    <path clip-path="url(#pbcc4df0b7d)" style="fill: #7cb7da; fill-opacity: 0.9"/>
    <path clip-path="url(#pbcc4df0b7d)" style="fill: #71b1d7; fill-opacity: 0.9"/>
    <path clip-path="url(#pbcc4df0b7d)" style="fill: #66abd4; fill-opacity: 0.9"/>
    <path clip-path="url(#pbcc4df0b7d)" style="fill: #5da5d1; fill-opacity: 0.9"/>
    <path clip-path="url(#pbcc4df0b7d)" style="fill: #56a0ce; fill-opacity: 0.9"/>
    <path clip-path="url(#pbcc4df0b7d)" style="fill: #4d99ca; fill-opacity: 0.9"/>
    <path clip-path="url(#pbcc4df0b7d)" style="fill: #4493c7; fill-opacity: 0.9"/>
    <path clip-path="url(#pbcc4df0b7d)" style="fill: #3c8cc3; fill-opacity: 0.9"/>
    <path clip-path="url(#pbcc4df0b7d)" style="fill: #3686c0; fill-opacity: 0.9"/>
    <path clip-path="url(#pbcc4df0b7d)" style="fill: #2f7fbc; fill-opacity: 0.9"/>
    <path clip-path="url(#pbcc4df0b7d)" style="fill: #2777b8; fill-opacity: 0.9"/>
    <path clip-path="url(#pbcc4df0b7d)" style="fill: #2070b4; fill-opacity: 0.9"/>
    <path clip-path="url(#pbcc4df0b7d)" style="fill: #1c6ab0; fill-opacity: 0.9"/>
    <path clip-path="url(#pbcc4df0b7d)" style="fill: #1663aa; fill-opacity: 0.9"/>
    <path clip-path="url(#pbcc4df0b7d)" style="fill: #115ca5; fill-opacity: 0.9"/>
    <path clip-path="url(#pbcc4df0b7d)" style="fill: #0c56a0; fill-opacity: 0.9"/>
    <path clip-path="url(#pbcc4df0b7d)" style="fill: #084f99; fill-opacity: 0.9"/>
    <path clip-path="url(#pbcc4df0b7d)" style="fill: #08488e; fill-opacity: 0.9"/>
    <path clip-path="url(#pbcc4df0b7d)" style="fill: #084184; fill-opacity: 0.9"/>
    <path clip-path="url(#pbcc4df0b7d)" style="fill: #083a7a; fill-opacity: 0.9"/>
    <path clip-path="url(#pbcc4df0b7d)" style="fill: #083370; fill-opacity: 0.9"/>
    <path clip-path="url(#pbcc4df0b7d)" style="fill: #08306b; fill-opacity: 0.9"/>
   </g>
   <g id="QuadContourSet_2">
    <path d="M 0 44.46467 
L 2.727721 42.847644 
L 3.291429 42.421941 
L 6.582857 40.804163 
L 9.874286 41.049263 
L 13.165714 39.723922 
L 13.345411 39.551671 
L 16.457143 38.41949 
L 19.748571 37.766993 
L 21.746639 36.255699 
L 23.04 35.731965 
L 26.331429 35.024003 
L 29.622857 33.602513 
L 30.28953 32.959726 
L 32.914286 31.261901 
L 35.990938 29.663753 
L 36.205714 29.500848 
L 39.497143 28.205351 
L 42.788571 27.97315 
L 46.08 27.103716 
L 46.800023 26.367781 
L 49.371429 25.226099 
L 52.662857 24.741027 
L 55.093259 23.071808 
L 55.954286 22.709901 
L 59.245714 21.848781 
L 62.537143 20.666355 
L 63.425443 19.775836 
L 65.828571 17.838236 
L 68.76446 16.479863 
L 69.12 16.21019 
L 72.411429 15.289284 
L 73.428572 15.103657 
M 91.159359 8.979213 
L 92.16 8.666642 
L 95.451429 7.473192 
L 96.545398 6.591945 
L 98.742857 5.27379 
L 101.920372 3.295973 
L 102.034286 3.226632 
L 105.325714 2.679233 
L 108.617143 1.48466 
L 111.908571 1.094754 
L 113.316401 0 
" clip-path="url(#pbcc4df0b7d)" style="fill: none"/>
    <path d="M 0 42.849073 
L 0.002411 42.847644 
L 3.291429 40.363836 
L 4.684127 39.551671 
L 6.582857 38.214743 
L 9.874286 37.820596 
L 13.165714 37.431551 
L 16.457143 37.291033 
L 19.339099 36.255699 
L 19.748571 36.00518 
L 23.04 34.801587 
L 24.685371 34.299024 
M 40.980865 25.221851 
L 42.788571 25.58987 
L 46.08 24.534168 
L 49.371429 24.117406 
L 52.662857 23.114161 
L 52.724524 23.071808 
L 55.954286 21.714273 
L 59.245714 20.673458 
L 61.054774 19.775836 
L 62.537143 19.087757 
L 65.469642 16.479863 
L 65.828571 16.151833 
L 69.076078 13.18389 
L 69.12 13.142735 
L 72.411429 10.937173 
L 75.702857 11.876689 
L 78.994286 11.430476 
L 82.285714 10.945033 
L 85.577143 10.074414 
L 85.891699 9.887918 
L 88.868571 8.618553 
L 92.16 7.537212 
L 94.06952 6.591945 
L 95.451429 5.912604 
L 98.742857 3.60956 
L 99.246659 3.295973 
L 102.034286 1.599112 
L 104.285388 0 
" clip-path="url(#pbcc4df0b7d)" style="fill: none"/>
    <path d="M 0 41.798072 
L 2.565217 39.551671 
L 3.291429 38.833196 
L 6.290577 36.255699 
L 6.582857 35.967057 
L 9.874286 33.530614 
L 11.461056 32.959726 
L 13.165714 32.123965 
L 14.831496 32.959726 
L 16.457143 35.260926 
L 19.748571 34.083387 
L 23.04 33.871208 
L 25.523614 32.959726 
L 26.331429 32.425391 
L 29.622857 31.26257 
L 31.613495 29.663753 
L 32.914286 28.496342 
L 35.286041 26.367781 
L 36.205714 25.457854 
L 38.896287 23.071808 
L 39.497143 22.476743 
L 42.257423 20.065803 
M 58.524044 19.798889 
L 58.588455 19.775836 
L 59.245714 19.345952 
L 62.537143 17.988249 
L 64.233279 16.479863 
L 65.828571 15.021902 
L 67.839714 13.18389 
L 69.12 11.984248 
L 71.419355 9.887918 
L 72.411429 8.902242 
L 74.968048 6.591945 
L 75.702857 5.862442 
L 78.976841 3.295973 
L 78.994286 3.278693 
L 79.077808 3.295973 
L 81.104463 6.591945 
L 82.285714 8.416744 
L 85.577143 7.800534 
L 88.868571 7.542317 
L 91.646961 6.591945 
L 92.16 6.268134 
L 95.451429 4.791004 
L 97.497248 3.295973 
L 98.742857 2.199325 
L 101.999363 0 
" clip-path="url(#pbcc4df0b7d)" style="fill: none"/>
    <path d="M 0 40.74757 
L 1.365624 39.551671 
L 1.467896 39.450489 
M 15.866795 26.762536 
L 16.380185 26.367781 
L 16.457143 26.292642 
L 17.001747 26.367781 
L 19.748571 28.090499 
L 20.925758 29.663753 
L 23.04 32.713818 
L 26.331429 30.748527 
L 29.622857 30.293443 
L 30.406864 29.663753 
L 32.914286 27.413436 
L 34.07941 26.367781 
L 36.205714 24.264011 
L 37.550076 23.071808 
L 39.497143 21.143506 
L 41.062985 19.775836 
L 42.788571 18.069393 
L 44.644356 16.479863 
L 46.08 15.062874 
L 48.703875 13.18389 
L 49.371429 12.528569 
L 51.852239 13.18389 
L 52.662857 14.314327 
L 54.185816 16.479863 
L 55.954286 19.08421 
L 59.245714 17.526543 
L 62.537143 16.888742 
L 62.996915 16.479863 
L 65.828571 13.891972 
L 66.60335 13.18389 
L 69.12 10.825761 
L 70.148671 9.887918 
L 72.411429 7.639751 
L 73.570951 6.591945 
L 75.702857 4.475433 
L 77.207466 3.295973 
L 78.994286 1.526105 
L 81.258035 0 
M 85.636978 0 
L 87.306671 2.542377 
" clip-path="url(#pbcc4df0b7d)" style="fill: none"/>
    <path d="M 0 39.697068 
L 0.166032 39.551671 
L 3.291429 36.459573 
L 3.528654 36.255699 
L 6.582857 33.239516 
L 6.916639 32.959726 
L 9.874286 30.046065 
L 10.346476 29.663753 
L 13.165714 26.896177 
L 13.852908 26.367781 
L 16.457143 23.825112 
L 17.675769 23.071808 
L 19.748571 21.076893 
L 23.04 21.340755 
L 25.001605 23.071808 
L 26.331429 25.023743 
L 29.098935 26.367781 
L 29.622857 26.504725 
L 30.630773 26.367781 
L 32.914286 24.996206 
L 36.11458 23.071808 
L 36.205714 23.017045 
L 39.497143 19.810268 
L 39.536565 19.775836 
L 42.788571 16.559907 
L 42.882023 16.479863 
L 46.08 13.323441 
L 46.274873 13.18389 
L 49.371429 10.14408 
L 49.842206 9.887918 
L 52.27593 7.536009 
M 69.488705 2.142312 
L 72.411429 0.52347 
L 73.327898 0 
" clip-path="url(#pbcc4df0b7d)" style="fill: none"/>
    <path d="M 0 4.717276 
L 2.770855 3.295973 
L 3.291429 3.020677 
L 6.582857 1.402288 
L 9.590892 0 
" clip-path="url(#pbcc4df0b7d)" style="fill: none"/>
    <path clip-path="url(#pbcc4df0b7d)" style="fill: none"/>
    <path clip-path="url(#pbcc4df0b7d)" style="fill: none"/>
    <path clip-path="url(#pbcc4df0b7d)" style="fill: none"/>
    <path clip-path="url(#pbcc4df0b7d)" style="fill: none"/>
    <path clip-path="url(#pbcc4df0b7d)" style="fill: none"/>
    <path clip-path="url(#pbcc4df0b7d)" style="fill: none"/>
    <path clip-path="url(#pbcc4df0b7d)" style="fill: none"/>
    <path clip-path="url(#pbcc4df0b7d)" style="fill: none"/>
    <path clip-path="url(#pbcc4df0b7d)" style="fill: none"/>
    <path clip-path="url(#pbcc4df0b7d)" style="fill: none"/>
    <path clip-path="url(#pbcc4df0b7d)" style="fill: none"/>
    <path clip-path="url(#pbcc4df0b7d)" style="fill: none"/>
    <path clip-path="url(#pbcc4df0b7d)" style="fill: none"/>
    <path clip-path="url(#pbcc4df0b7d)" style="fill: none"/>
    <path clip-path="url(#pbcc4df0b7d)" style="fill: none"/>
    <path clip-path="url(#pbcc4df0b7d)" style="fill: none"/>
    <path clip-path="url(#pbcc4df0b7d)" style="fill: none"/>
    <path clip-path="url(#pbcc4df0b7d)" style="fill: none"/>
    <path clip-path="url(#pbcc4df0b7d)" style="fill: none"/>
    <path clip-path="url(#pbcc4df0b7d)" style="fill: none"/>
    <path clip-path="url(#pbcc4df0b7d)" style="fill: none"/>
    <path clip-path="url(#pbcc4df0b7d)" style="fill: none"/>
    <path clip-path="url(#pbcc4df0b7d)" style="fill: none"/>
    <path clip-path="url(#pbcc4df0b7d)" style="fill: none"/>
    <path clip-path="url(#pbcc4df0b7d)" style="fill: none"/>
    <path clip-path="url(#pbcc4df0b7d)" style="fill: none"/>
    <path clip-path="url(#pbcc4df0b7d)" style="fill: none"/>
    <path clip-path="url(#pbcc4df0b7d)" style="fill: none"/>
    <path clip-path="url(#pbcc4df0b7d)" style="fill: none"/>
    <path clip-path="url(#pbcc4df0b7d)" style="fill: none"/>
    <path clip-path="url(#pbcc4df0b7d)" style="fill: none"/>
    <path clip-path="url(#pbcc4df0b7d)" style="fill: none"/>
    <path clip-path="url(#pbcc4df0b7d)" style="fill: none"/>
   </g>
   <g id="text_1">
    <g clip-path="url(#pbcc4df0b7d)">
     <!-- 0 -->
     <g style="opacity: 0" transform="translate(79.933385 16.601119) rotate(-21.320326) scale(0.12 -0.12)">
      <defs>
       <path id="DejaVuSans-30" d="M 2034 4250 
Q 1547 4250 1301 3770 
Q 1056 3291 1056 2328 
Q 1056 1369 1301 889 
Q 1547 409 2034 409 
Q 2525 409 2770 889 
Q 3016 1369 3016 2328 
Q 3016 3291 2770 3770 
Q 2525 4250 2034 4250 
z
M 2034 4750 
Q 2819 4750 3233 4129 
Q 3647 3509 3647 2328 
Q 3647 1150 3233 529 
Q 2819 -91 2034 -91 
Q 1250 -91 836 529 
Q 422 1150 422 2328 
Q 422 3509 836 4129 
Q 1250 4750 2034 4750 
z
" transform="scale(0.015625)"/>
      </defs>
      <use xlink:href="#DejaVuSans-30"/>
     </g>
    </g>
   </g>
   <g id="text_2">
    <g clip-path="url(#pbcc4df0b7d)">
     <!-- 1 -->
     <g style="opacity: 0" transform="translate(31.812668 34.511198) rotate(-36.470947) scale(0.12 -0.12)">
      <defs>
       <path id="DejaVuSans-31" d="M 794 531 
L 1825 531 
L 1825 4091 
L 703 3866 
L 703 4441 
L 1819 4666 
L 2450 4666 
L 2450 531 
L 3481 531 
L 3481 0 
L 794 0 
L 794 531 
z
" transform="scale(0.015625)"/>
      </defs>
      <use xlink:href="#DejaVuSans-31"/>
     </g>
    </g>
   </g>
   <g id="text_3">
    <g clip-path="url(#pbcc4df0b7d)">
     <!-- 2 -->
     <g style="opacity: 0" transform="translate(44.738063 24.351678) rotate(-342.589927) scale(0.12 -0.12)">
      <defs>
       <path id="DejaVuSans-32" d="M 1228 531 
L 3431 531 
L 3431 0 
L 469 0 
L 469 531 
Q 828 903 1448 1529 
Q 2069 2156 2228 2338 
Q 2531 2678 2651 2914 
Q 2772 3150 2772 3378 
Q 2772 3750 2511 3984 
Q 2250 4219 1831 4219 
Q 1534 4219 1204 4116 
Q 875 4013 500 3803 
L 500 4441 
Q 881 4594 1212 4672 
Q 1544 4750 1819 4750 
Q 2544 4750 2975 4387 
Q 3406 4025 3406 3419 
Q 3406 3131 3298 2873 
Q 3191 2616 2906 2266 
Q 2828 2175 2409 1742 
Q 1991 1309 1228 531 
z
" transform="scale(0.015625)"/>
      </defs>
      <use xlink:href="#DejaVuSans-32"/>
     </g>
    </g>
   </g>
   <g id="text_4">
    <g clip-path="url(#pbcc4df0b7d)">
     <!-- 3 -->
     <g style="opacity: 0" transform="translate(7.875339 37.968831) rotate(-41.463344) scale(0.12 -0.12)">
      <defs>
       <path id="DejaVuSans-33" d="M 2597 2516 
Q 3050 2419 3304 2112 
Q 3559 1806 3559 1356 
Q 3559 666 3084 287 
Q 2609 -91 1734 -91 
Q 1441 -91 1130 -33 
Q 819 25 488 141 
L 488 750 
Q 750 597 1062 519 
Q 1375 441 1716 441 
Q 2309 441 2620 675 
Q 2931 909 2931 1356 
Q 2931 1769 2642 2001 
Q 2353 2234 1838 2234 
L 1294 2234 
L 1294 2753 
L 1863 2753 
Q 2328 2753 2575 2939 
Q 2822 3125 2822 3475 
Q 2822 3834 2567 4026 
Q 2313 4219 1838 4219 
Q 1578 4219 1281 4162 
Q 984 4106 628 3988 
L 628 4550 
Q 988 4650 1302 4700 
Q 1616 4750 1894 4750 
Q 2613 4750 3031 4423 
Q 3450 4097 3450 3541 
Q 3450 3153 3228 2886 
Q 3006 2619 2597 2516 
z
" transform="scale(0.015625)"/>
      </defs>
      <use xlink:href="#DejaVuSans-33"/>
     </g>
    </g>
   </g>
   <g id="text_5">
    <g clip-path="url(#pbcc4df0b7d)">
     <!-- 3 -->
     <g style="opacity: 0" transform="translate(93.409796 8.292112) rotate(-25.23326) scale(0.12 -0.12)">
      <use xlink:href="#DejaVuSans-33"/>
     </g>
    </g>
   </g>
   <g id="text_6">
    <g clip-path="url(#pbcc4df0b7d)">
     <!-- 4 -->
     <g style="opacity: 0" transform="translate(58.128331 10.71151) rotate(-13.66854) scale(0.12 -0.12)">
      <defs>
       <path id="DejaVuSans-34" d="M 2419 4116 
L 825 1625 
L 2419 1625 
L 2419 4116 
z
M 2253 4666 
L 3047 4666 
L 3047 1625 
L 3713 1625 
L 3713 1100 
L 3047 1100 
L 3047 0 
L 2419 0 
L 2419 1100 
L 313 1100 
L 313 1709 
L 2253 4666 
z
" transform="scale(0.015625)"/>
      </defs>
      <use xlink:href="#DejaVuSans-34"/>
     </g>
    </g>
   </g>
  </g>
 </g>
 <defs>
  <clipPath id="pbcc4df0b7d">
   <rect x="0" y="0" width="576" height="820.697178"/>
  </clipPath>
 </defs>
</svg>
