<?xml version="1.0" encoding="utf-8" standalone="no"?>
<!DOCTYPE svg PUBLIC "-//W3C//DTD SVG 1.1//EN"
  "http://www.w3.org/Graphics/SVG/1.1/DTD/svg11.dtd">
<svg xmlns:xlink="http://www.w3.org/1999/xlink" width="576pt" height="816.799654pt" viewBox="0 0 576 816.799654" xmlns="http://www.w3.org/2000/svg" version="1.1">
 <metadata>
  <rdf:RDF xmlns:dc="http://purl.org/dc/elements/1.1/" xmlns:cc="http://creativecommons.org/ns#" xmlns:rdf="http://www.w3.org/1999/02/22-rdf-syntax-ns#">
   <cc:Work>
    <dc:type rdf:resource="http://purl.org/dc/dcmitype/StillImage"/>
    <dc:date>2025-07-25T22:45:50.043307</dc:date>
    <dc:format>image/svg+xml</dc:format>
    <dc:creator>
     <cc:Agent>
      <dc:title>Matplotlib v3.10.3, https://matplotlib.org/</dc:title>
     </cc:Agent>
    </dc:creator>
   </cc:Work>
  </rdf:RDF>
 </metadata>
 <defs>
  <style type="text/css">*{stroke-linejoin: round; stroke-linecap: butt}</style>
 </defs>
 <g id="figure_1">
  <g id="patch_1">
   <path d="M 0 816.799654 
L 576 816.799654 
L 576 0 
L 0 0 
L 0 816.799654 
z
" style="fill: none; opacity: 0"/>
  </g>
  <g id="axes_1">
   <g id="QuadContourSet_1">
    <path d="M 566.181818 52.236794 
L 569.359738 49.204798 
L 569.454545 49.037899 
L 569.886541 49.204798 
L 572.727273 51.411315 
L 576 51.774537 
L 576 50.619937 
L 572.727273 49.666529 
L 572.132828 49.204798 
L 569.454545 48.170059 
L 568.86676 49.204798 
L 566.181818 51.766452 
L 563.626094 49.204798 
L 562.909091 46.950259 
L 561.347469 45.924479 
L 559.636364 45.404053 
L 556.363636 44.705164 
L 553.090909 43.762183 
L 551.406444 42.644159 
L 549.818182 42.031783 
L 546.545455 40.734676 
L 543.272727 40.12243 
L 540.970879 39.363839 
L 540 38.965796 
L 536.727273 37.768189 
L 535.902833 39.363839 
L 533.454545 41.708445 
L 531.115366 39.363839 
L 530.181818 36.229402 
L 529.975979 36.083519 
L 526.909091 35.123834 
L 523.636364 34.389886 
L 520.363636 33.342752 
L 519.720336 32.803199 
L 517.090909 31.571991 
L 513.818182 29.658702 
L 510.869505 29.522879 
L 510.545455 29.50652 
L 507.272727 28.321112 
L 504 27.694027 
L 503.19716 29.522879 
L 500.727273 31.998497 
L 497.454545 31.930933 
L 495.052065 29.522879 
L 497.454545 26.292861 
L 497.636316 26.242559 
L 497.454545 26.146726 
L 494.181818 25.173014 
L 490.909091 24.529444 
L 487.636364 23.366973 
L 487.041295 22.962239 
L 484.363636 22.127361 
L 481.090909 20.673221 
L 479.250557 19.681919 
L 477.818182 19.009141 
L 474.545455 16.9947 
L 471.272727 17.360294 
L 468 17.524802 
L 467.129933 19.681919 
L 464.727273 22.036278 
L 462.378364 19.681919 
L 464.727273 16.678492 
L 465.801964 16.401599 
L 464.727273 15.812356 
L 461.454545 15.045902 
L 460.565551 16.401599 
L 458.181818 18.755958 
L 455.832909 16.401599 
L 455.186091 13.12128 
L 454.909091 13.026764 
L 451.636364 12.024409 
L 448.363636 11.145273 
L 446.652191 9.84096 
L 445.090909 8.856435 
L 441.818182 6.806871 
L 438.545455 6.928555 
L 435.272727 7.14774 
L 434.23954 6.56064 
L 432 5.391323 
L 431.49485 6.56064 
L 428.727273 8.995904 
L 425.454545 8.995904 
L 423.024918 6.56064 
L 423.696588 3.28032 
L 422.181818 2.802953 
L 418.909091 1.885489 
L 415.636364 1.208249 
L 413.942648 -0 
L 412.512598 -0 
L 415.636364 2.228406 
L 418.909091 2.572216 
L 421.48805 3.28032 
L 422.181818 3.975697 
L 422.609829 6.56064 
L 425.454545 9.411956 
L 428.727273 9.411956 
L 431.967676 6.56064 
L 432 6.485816 
L 432.143306 6.56064 
L 435.272727 8.338907 
L 438.545455 8.216664 
L 441.818182 8.95245 
L 445.090909 9.579565 
L 445.505436 9.84096 
L 448.363636 12.019229 
L 451.636364 12.650982 
L 453.158355 13.12128 
L 454.909091 14.454469 
L 455.424319 16.401599 
L 458.181818 19.165496 
L 460.980199 16.401599 
L 461.454545 15.67823 
L 463.774228 16.401599 
L 461.969774 19.681919 
L 464.727273 22.445816 
L 467.547873 19.681919 
L 468 18.560981 
L 471.272727 18.475495 
L 474.329005 19.681919 
L 474.545455 19.898871 
L 477.818182 20.390942 
L 481.090909 21.772759 
L 484.363636 22.760579 
L 485.010409 22.962239 
L 487.636364 24.748271 
L 490.909091 25.352345 
L 494.181818 25.801795 
L 495.60543 26.242559 
L 494.634039 29.522879 
L 497.454545 32.349929 
L 500.727273 32.429249 
L 503.626915 29.522879 
L 504 28.673 
L 506.035046 29.522879 
L 507.272727 30.763432 
L 510.545455 31.271543 
L 513.818182 31.341931 
L 517.090909 32.391049 
L 517.971116 32.803199 
L 520.363636 34.809867 
L 523.636364 35.296477 
L 526.909091 35.864642 
L 527.608561 36.083519 
L 530.181818 37.907247 
L 530.615643 39.363839 
L 533.454545 42.209327 
L 536.425864 39.363839 
L 536.727273 38.780481 
L 538.091555 39.363839 
L 540 41.345977 
L 543.272727 41.772812 
L 546.545455 41.984365 
L 548.752084 42.644159 
L 549.818182 43.712729 
L 553.090909 45.177329 
L 556.363636 45.503162 
L 558.618725 45.924479 
L 559.636364 46.944478 
L 562.909091 48.425775 
L 563.156841 49.204798 
z
" clip-path="url(#p237021a2b8)" style="fill: #f5f9fe; fill-opacity: 0.9"/>
    <path d="M 566.181818 51.766452 
L 568.86676 49.204798 
L 569.454545 48.170059 
L 572.132828 49.204798 
L 572.727273 49.666529 
L 576 50.619937 
L 576 49.465337 
L 575.231546 49.204798 
L 572.727273 47.80921 
L 569.454545 47.302218 
L 568.373782 49.204798 
L 566.181818 51.296111 
L 564.095346 49.204798 
L 563.593756 45.924479 
L 562.909091 45.617238 
L 559.636364 44.720855 
L 556.363636 43.907165 
L 553.47421 42.644159 
L 553.090909 42.494499 
L 549.818182 41.209717 
L 546.545455 39.484987 
L 546.047623 39.363839 
L 543.272727 38.790697 
L 540 36.912662 
L 536.727273 36.755897 
L 535.379802 39.363839 
L 533.454545 41.207564 
L 531.615088 39.363839 
L 532.343397 36.083519 
L 530.181818 35.006853 
L 526.909091 34.383026 
L 523.636364 33.483295 
L 521.860402 32.803199 
L 520.363636 32.314916 
L 517.090909 30.752933 
L 515.06086 29.522879 
L 513.818182 28.789098 
L 510.545455 27.661748 
L 507.903329 26.242559 
L 507.272727 26.014546 
L 506.370805 26.242559 
L 504 26.715054 
L 502.767406 29.522879 
L 500.727273 31.567745 
L 497.454545 31.511937 
L 495.470091 29.522879 
L 497.454545 26.854877 
L 499.667202 26.242559 
L 497.454545 25.076006 
L 494.181818 24.544232 
L 490.909091 23.706543 
L 489.072181 22.962239 
L 487.636364 22.481783 
L 484.363636 21.494143 
L 481.199734 19.681919 
L 481.090909 19.614343 
L 477.818182 18.050356 
L 475.581192 16.401599 
L 474.545455 15.798959 
L 471.272727 15.760144 
L 469.225281 16.401599 
L 468 16.488623 
L 466.711993 19.681919 
L 464.727273 21.62674 
L 462.786953 19.681919 
L 464.727273 17.200934 
L 467.829701 16.401599 
L 464.727273 14.700567 
L 461.454545 14.413573 
L 460.150904 16.401599 
L 458.181818 18.34642 
L 456.241499 16.401599 
L 457.213828 13.12128 
L 454.909091 12.33488 
L 451.636364 11.397835 
L 448.363636 10.271317 
L 447.798946 9.84096 
L 445.090909 8.133306 
L 442.764947 6.56064 
L 441.818182 5.948324 
L 438.545455 5.010292 
L 435.272727 4.369157 
L 432 4.296829 
L 431.022024 6.56064 
L 428.727273 8.579851 
L 425.454545 8.579851 
L 423.440007 6.56064 
L 425.454545 3.385882 
L 425.792822 3.28032 
L 425.454545 3.086647 
L 422.181818 2.142343 
L 418.909091 1.198762 
L 415.636364 0.188091 
L 415.372698 -0 
L 413.942648 -0 
L 415.636364 1.208249 
L 418.909091 1.885489 
L 422.181818 2.802953 
L 423.696588 3.28032 
L 423.024918 6.56064 
L 425.454545 8.995904 
L 428.727273 8.995904 
L 431.49485 6.56064 
L 432 5.391323 
L 434.23954 6.56064 
L 435.272727 7.14774 
L 438.545455 6.928555 
L 441.818182 6.806871 
L 445.090909 8.856435 
L 446.652191 9.84096 
L 448.363636 11.145273 
L 451.636364 12.024409 
L 454.909091 13.026764 
L 455.186091 13.12128 
L 455.832909 16.401599 
L 458.181818 18.755958 
L 460.565551 16.401599 
L 461.454545 15.045902 
L 464.727273 15.812356 
L 465.801964 16.401599 
L 464.727273 16.678492 
L 462.378364 19.681919 
L 464.727273 22.036278 
L 467.129933 19.681919 
L 468 17.524802 
L 471.272727 17.360294 
L 474.545455 16.9947 
L 477.818182 19.009141 
L 479.250557 19.681919 
L 481.090909 20.673221 
L 484.363636 22.127361 
L 487.041295 22.962239 
L 487.636364 23.366973 
L 490.909091 24.529444 
L 494.181818 25.173014 
L 497.454545 26.146726 
L 497.636316 26.242559 
L 497.454545 26.292861 
L 495.052065 29.522879 
L 497.454545 31.930933 
L 500.727273 31.998497 
L 503.19716 29.522879 
L 504 27.694027 
L 507.272727 28.321112 
L 510.545455 29.50652 
L 510.869505 29.522879 
L 513.818182 29.658702 
L 517.090909 31.571991 
L 519.720336 32.803199 
L 520.363636 33.342752 
L 523.636364 34.389886 
L 526.909091 35.123834 
L 529.975979 36.083519 
L 530.181818 36.229402 
L 531.115366 39.363839 
L 533.454545 41.708445 
L 535.902833 39.363839 
L 536.727273 37.768189 
L 540 38.965796 
L 540.970879 39.363839 
L 543.272727 40.12243 
L 546.545455 40.734676 
L 549.818182 42.031783 
L 551.406444 42.644159 
L 553.090909 43.762183 
L 556.363636 44.705164 
L 559.636364 45.404053 
L 561.347469 45.924479 
L 562.909091 46.950259 
L 563.626094 49.204798 
z
" clip-path="url(#p237021a2b8)" style="fill: #eff6fc; fill-opacity: 0.9"/>
    <path d="M 566.181818 51.296111 
L 568.373782 49.204798 
L 569.454545 47.302218 
L 572.727273 47.80921 
L 575.231546 49.204798 
L 576 49.465337 
L 576 49.204798 
L 576 48.06116 
L 572.742795 45.924479 
L 572.727273 45.917447 
L 572.689316 45.924479 
L 569.454545 46.434377 
L 567.880803 49.204798 
L 566.181818 50.825769 
L 564.564599 49.204798 
L 565.840043 45.924479 
L 562.909091 44.609224 
L 559.636364 44.037657 
L 556.363636 43.109167 
L 555.29982 42.644159 
L 553.090909 41.781692 
L 549.818182 40.38765 
L 547.921067 39.363839 
L 546.545455 38.647567 
L 543.272727 37.73002 
L 540.908117 36.083519 
L 540 35.550591 
L 536.727273 35.581702 
L 533.454545 34.053806 
L 530.181818 33.827659 
L 526.909091 33.642217 
L 524.22782 32.803199 
L 523.636364 32.450437 
L 520.363636 31.542605 
L 517.090909 29.933874 
L 516.412613 29.522879 
L 513.818182 27.990911 
L 510.857299 26.242559 
L 510.545455 26.007569 
L 507.272727 24.772718 
L 504.657781 22.962239 
L 504 22.61794 
L 502.249983 22.962239 
L 500.727273 24.275395 
L 497.454545 24.005286 
L 494.181818 23.91545 
L 491.103067 22.962239 
L 490.909091 22.839908 
L 487.636364 21.802203 
L 484.363636 20.860924 
L 482.30525 19.681919 
L 481.090909 18.927858 
L 477.818182 17.091571 
L 476.882046 16.401599 
L 474.545455 15.042061 
L 471.739987 13.12128 
L 471.272727 12.795643 
L 468 12.682659 
L 466.891462 13.12128 
L 464.727273 13.588777 
L 461.454545 13.781244 
L 459.736257 16.401599 
L 458.181818 17.936883 
L 456.650089 16.401599 
L 458.181818 13.522637 
L 459.273803 13.12128 
L 458.181818 12.43661 
L 454.909091 11.642996 
L 451.636364 10.771262 
L 449.197415 9.84096 
L 448.363636 9.450823 
L 445.090909 7.410177 
L 443.83445 6.56064 
L 441.818182 5.256627 
L 438.76241 3.28032 
L 438.545455 3.115525 
L 435.272727 2.178758 
L 432 2.461826 
L 431.505035 3.28032 
L 430.549197 6.56064 
L 428.727273 8.163799 
L 425.454545 8.163799 
L 423.855097 6.56064 
L 425.454545 4.040031 
L 427.889056 3.28032 
L 425.454545 1.886491 
L 422.181818 1.481733 
L 418.909091 0.512035 
L 417.346104 -0 
L 415.636364 -0 
L 415.372698 -0 
L 415.636364 0.188091 
L 418.909091 1.198762 
L 422.181818 2.142343 
L 425.454545 3.086647 
L 425.792822 3.28032 
L 425.454545 3.385882 
L 423.440007 6.56064 
L 425.454545 8.579851 
L 428.727273 8.579851 
L 431.022024 6.56064 
L 432 4.296829 
L 435.272727 4.369157 
L 438.545455 5.010292 
L 441.818182 5.948324 
L 442.764947 6.56064 
L 445.090909 8.133306 
L 447.798946 9.84096 
L 448.363636 10.271317 
L 451.636364 11.397835 
L 454.909091 12.33488 
L 457.213828 13.12128 
L 456.241499 16.401599 
L 458.181818 18.34642 
L 460.150904 16.401599 
L 461.454545 14.413573 
L 464.727273 14.700567 
L 467.829701 16.401599 
L 464.727273 17.200934 
L 462.786953 19.681919 
L 464.727273 21.62674 
L 466.711993 19.681919 
L 468 16.488623 
L 469.225281 16.401599 
L 471.272727 15.760144 
L 474.545455 15.798959 
L 475.581192 16.401599 
L 477.818182 18.050356 
L 481.090909 19.614343 
L 481.199734 19.681919 
L 484.363636 21.494143 
L 487.636364 22.481783 
L 489.072181 22.962239 
L 490.909091 23.706543 
L 494.181818 24.544232 
L 497.454545 25.076006 
L 499.667202 26.242559 
L 497.454545 26.854877 
L 495.470091 29.522879 
L 497.454545 31.511937 
L 500.727273 31.567745 
L 502.767406 29.522879 
L 504 26.715054 
L 506.370805 26.242559 
L 507.272727 26.014546 
L 507.903329 26.242559 
L 510.545455 27.661748 
L 513.818182 28.789098 
L 515.06086 29.522879 
L 517.090909 30.752933 
L 520.363636 32.314916 
L 521.860402 32.803199 
L 523.636364 33.483295 
L 526.909091 34.383026 
L 530.181818 35.006853 
L 532.343397 36.083519 
L 531.615088 39.363839 
L 533.454545 41.207564 
L 535.379802 39.363839 
L 536.727273 36.755897 
L 540 36.912662 
L 543.272727 38.790697 
L 546.047623 39.363839 
L 546.545455 39.484987 
L 549.818182 41.209717 
L 553.090909 42.494499 
L 553.47421 42.644159 
L 556.363636 43.907165 
L 559.636364 44.720855 
L 562.909091 45.617238 
L 563.593756 45.924479 
L 564.095346 49.204798 
z
M 532.11481 39.363839 
L 533.454545 36.625521 
L 534.856771 39.363839 
L 533.454545 40.706683 
z
M 495.888118 29.522879 
L 497.454545 27.416893 
L 500.727273 26.613682 
L 502.337651 29.522879 
L 500.727273 31.136993 
L 497.454545 31.092941 
z
M 463.195543 19.681919 
L 464.727273 17.723377 
L 466.294054 19.681919 
L 464.727273 21.217202 
z
" clip-path="url(#p237021a2b8)" style="fill: #eaf3fb; fill-opacity: 0.9"/>
    <path d="M 566.181818 50.825769 
L 567.880803 49.204798 
L 569.454545 46.434377 
L 572.689316 45.924479 
L 572.727273 45.917447 
L 572.742795 45.924479 
L 576 48.06116 
L 576 46.584255 
L 574.994222 45.924479 
L 572.727273 44.897489 
L 569.454545 44.986533 
L 566.181818 43.612291 
L 562.909091 43.601211 
L 559.636364 43.354458 
L 557.300971 42.644159 
L 556.363636 42.142507 
L 553.090909 41.068884 
L 549.818182 39.565583 
L 549.44435 39.363839 
L 546.545455 37.854404 
L 543.272727 36.669343 
L 542.4314 36.083519 
L 540 34.656653 
L 536.727273 34.08725 
L 534.892088 32.803199 
L 533.454545 31.949806 
L 530.181818 32.471409 
L 528.553844 32.803199 
L 526.909091 32.901409 
L 526.595238 32.803199 
L 523.636364 31.038442 
L 520.363636 30.770293 
L 517.862425 29.522879 
L 517.090909 28.808848 
L 513.818182 27.192723 
L 512.209052 26.242559 
L 510.545455 24.988959 
L 507.272727 23.530891 
L 506.451401 22.962239 
L 504 21.679116 
L 501.101391 19.681919 
L 500.727273 19.331658 
L 498.5385 19.681919 
L 497.454545 22.438315 
L 497.298427 22.962239 
L 494.181818 23.286668 
L 493.133953 22.962239 
L 490.909091 21.559122 
L 487.636364 21.122623 
L 484.363636 20.227706 
L 483.410765 19.681919 
L 481.090909 18.241374 
L 478.128134 16.401599 
L 477.818182 16.109092 
L 474.545455 14.285163 
L 472.845503 13.12128 
L 471.272727 12.025202 
L 468 10.646193 
L 466.165207 9.84096 
L 464.727273 9.438119 
L 463.209047 9.84096 
L 461.684056 13.12128 
L 461.454545 13.148915 
L 461.363227 13.12128 
L 458.181818 11.12655 
L 454.909091 10.951112 
L 451.636364 10.144688 
L 450.840086 9.84096 
L 448.363636 8.682194 
L 445.090909 6.687048 
L 444.903953 6.56064 
L 441.818182 4.564931 
L 439.831913 3.28032 
L 438.545455 2.303149 
L 435.272727 0.706153 
L 434.032342 -0 
L 432 -0 
L 428.727273 -0 
L 428.243357 -0 
L 425.454545 0.686336 
L 422.181818 0.821123 
L 419.465088 -0 
L 418.909091 -0 
L 417.346104 -0 
L 418.909091 0.512035 
L 422.181818 1.481733 
L 425.454545 1.886491 
L 427.889056 3.28032 
L 425.454545 4.040031 
L 423.855097 6.56064 
L 425.454545 8.163799 
L 428.727273 8.163799 
L 430.549197 6.56064 
L 431.505035 3.28032 
L 432 2.461826 
L 435.272727 2.178758 
L 438.545455 3.115525 
L 438.76241 3.28032 
L 441.818182 5.256627 
L 443.83445 6.56064 
L 445.090909 7.410177 
L 448.363636 9.450823 
L 449.197415 9.84096 
L 451.636364 10.771262 
L 454.909091 11.642996 
L 458.181818 12.43661 
L 459.273803 13.12128 
L 458.181818 13.522637 
L 456.650089 16.401599 
L 458.181818 17.936883 
L 459.736257 16.401599 
L 461.454545 13.781244 
L 464.727273 13.588777 
L 466.891462 13.12128 
L 468 12.682659 
L 471.272727 12.795643 
L 471.739987 13.12128 
L 474.545455 15.042061 
L 476.882046 16.401599 
L 477.818182 17.091571 
L 481.090909 18.927858 
L 482.30525 19.681919 
L 484.363636 20.860924 
L 487.636364 21.802203 
L 490.909091 22.839908 
L 491.103067 22.962239 
L 494.181818 23.91545 
L 497.454545 24.005286 
L 500.727273 24.275395 
L 502.249983 22.962239 
L 504 22.61794 
L 504.657781 22.962239 
L 507.272727 24.772718 
L 510.545455 26.007569 
L 510.857299 26.242559 
L 513.818182 27.990911 
L 516.412613 29.522879 
L 517.090909 29.933874 
L 520.363636 31.542605 
L 523.636364 32.450437 
L 524.22782 32.803199 
L 526.909091 33.642217 
L 530.181818 33.827659 
L 533.454545 34.053806 
L 536.727273 35.581702 
L 540 35.550591 
L 540.908117 36.083519 
L 543.272727 37.73002 
L 546.545455 38.647567 
L 547.921067 39.363839 
L 549.818182 40.38765 
L 553.090909 41.781692 
L 555.29982 42.644159 
L 556.363636 43.109167 
L 559.636364 44.037657 
L 562.909091 44.609224 
L 565.840043 45.924479 
L 564.564599 49.204798 
z
M 565.033852 49.204798 
L 566.181818 46.76875 
L 567.387825 49.204798 
L 566.181818 50.355428 
z
M 457.058678 16.401599 
L 458.181818 14.290602 
L 459.321609 16.401599 
L 458.181818 17.527345 
z
M 424.270186 6.56064 
L 425.454545 4.69418 
L 428.727273 3.850375 
L 430.076371 6.56064 
L 428.727273 7.747747 
L 425.454545 7.747747 
z
M 533.454545 40.706683 
L 534.856771 39.363839 
L 533.454545 36.625521 
L 532.11481 39.363839 
z
M 532.614532 39.363839 
L 533.454545 37.646915 
L 534.33374 39.363839 
L 533.454545 40.205801 
z
M 497.454545 31.092941 
L 500.727273 31.136993 
L 502.337651 29.522879 
L 500.727273 26.613682 
L 497.454545 27.416893 
L 495.888118 29.522879 
z
M 496.306144 29.522879 
L 497.454545 27.978909 
L 500.727273 27.390047 
L 501.907896 29.522879 
L 500.727273 30.706241 
L 497.454545 30.673945 
z
M 464.727273 21.217202 
L 466.294054 19.681919 
L 464.727273 17.723377 
L 463.195543 19.681919 
z
M 463.604133 19.681919 
L 464.727273 18.245819 
L 465.876114 19.681919 
L 464.727273 20.807665 
z
" clip-path="url(#p237021a2b8)" style="fill: #e5eff9; fill-opacity: 0.9"/>
    <path d="M 566.181818 50.355428 
L 567.387825 49.204798 
L 566.181818 46.76875 
L 565.033852 49.204798 
z
M 565.503105 49.204798 
L 566.181818 47.764531 
L 566.894847 49.204798 
L 566.181818 49.885086 
z
M 576 46.584255 
L 576 45.924479 
L 576 44.890974 
L 572.727273 43.877532 
L 569.454545 42.712461 
L 569.308927 42.644159 
L 566.181818 41.570368 
L 562.909091 42.39436 
L 561.075249 42.644159 
L 559.636364 42.67126 
L 559.547258 42.644159 
L 556.363636 40.940317 
L 553.090909 40.356077 
L 550.968633 39.363839 
L 549.818182 38.163138 
L 546.545455 37.061241 
L 544.144653 36.083519 
L 543.272727 35.164678 
L 540 33.762716 
L 537.106766 32.803199 
L 536.727273 32.395678 
L 533.454545 30.68184 
L 530.181818 29.942895 
L 529.325134 29.522879 
L 526.909091 28.266527 
L 524.079403 29.522879 
L 523.636364 29.626446 
L 520.363636 29.997981 
L 519.411 29.522879 
L 517.090909 27.375654 
L 513.818182 26.394536 
L 513.560806 26.242559 
L 510.545455 23.970349 
L 508.430922 22.962239 
L 507.272727 21.917046 
L 504 20.740292 
L 502.463943 19.681919 
L 500.727273 18.055991 
L 497.454545 17.464289 
L 494.516378 16.401599 
L 494.181818 16.297223 
L 493.956845 16.401599 
L 493.238192 19.681919 
L 490.909091 20.278336 
L 487.636364 20.443043 
L 484.722823 19.681919 
L 484.363636 19.441972 
L 481.090909 17.55489 
L 479.233649 16.401599 
L 477.818182 15.065796 
L 474.545455 13.528264 
L 473.951018 13.12128 
L 471.272727 11.254761 
L 468.811047 9.84096 
L 468 9.061327 
L 464.727273 8.138137 
L 462.272558 6.56064 
L 461.454545 5.987603 
L 459.494821 6.56064 
L 458.181818 9.629396 
L 458.083731 9.84096 
L 454.909091 10.259228 
L 453.14226 9.84096 
L 451.636364 9.01944 
L 448.363636 7.913565 
L 446.135491 6.56064 
L 445.090909 5.527962 
L 441.818182 3.873234 
L 440.901416 3.28032 
L 438.545455 1.490774 
L 435.995856 -0 
L 435.272727 -0 
L 434.032342 -0 
L 435.272727 0.706153 
L 438.545455 2.303149 
L 439.831913 3.28032 
L 441.818182 4.564931 
L 444.903953 6.56064 
L 445.090909 6.687048 
L 448.363636 8.682194 
L 450.840086 9.84096 
L 451.636364 10.144688 
L 454.909091 10.951112 
L 458.181818 11.12655 
L 461.363227 13.12128 
L 461.454545 13.148915 
L 461.684056 13.12128 
L 463.209047 9.84096 
L 464.727273 9.438119 
L 466.165207 9.84096 
L 468 10.646193 
L 471.272727 12.025202 
L 472.845503 13.12128 
L 474.545455 14.285163 
L 477.818182 16.109092 
L 478.128134 16.401599 
L 481.090909 18.241374 
L 483.410765 19.681919 
L 484.363636 20.227706 
L 487.636364 21.122623 
L 490.909091 21.559122 
L 493.133953 22.962239 
L 494.181818 23.286668 
L 497.298427 22.962239 
L 497.454545 22.438315 
L 498.5385 19.681919 
L 500.727273 19.331658 
L 501.101391 19.681919 
L 504 21.679116 
L 506.451401 22.962239 
L 507.272727 23.530891 
L 510.545455 24.988959 
L 512.209052 26.242559 
L 513.818182 27.192723 
L 517.090909 28.808848 
L 517.862425 29.522879 
L 520.363636 30.770293 
L 523.636364 31.038442 
L 526.595238 32.803199 
L 526.909091 32.901409 
L 528.553844 32.803199 
L 530.181818 32.471409 
L 533.454545 31.949806 
L 534.892088 32.803199 
L 536.727273 34.08725 
L 540 34.656653 
L 542.4314 36.083519 
L 543.272727 36.669343 
L 546.545455 37.854404 
L 549.44435 39.363839 
L 549.818182 39.565583 
L 553.090909 41.068884 
L 556.363636 42.142507 
L 557.300971 42.644159 
L 559.636364 43.354458 
L 562.909091 43.601211 
L 566.181818 43.612291 
L 569.454545 44.986533 
L 572.727273 44.897489 
L 574.994222 45.924479 
z
M 533.454545 40.205801 
L 534.33374 39.363839 
L 533.454545 37.646915 
L 532.614532 39.363839 
z
M 533.114254 39.363839 
L 533.454545 38.668308 
L 533.81071 39.363839 
L 533.454545 39.70492 
z
M 497.454545 30.673945 
L 500.727273 30.706241 
L 501.907896 29.522879 
L 500.727273 27.390047 
L 497.454545 27.978909 
L 496.306144 29.522879 
z
M 496.72417 29.522879 
L 497.454545 28.540925 
L 500.727273 28.166413 
L 501.478141 29.522879 
L 500.727273 30.275489 
L 497.454545 30.254949 
z
M 464.727273 20.807665 
L 465.876114 19.681919 
L 464.727273 18.245819 
L 463.604133 19.681919 
z
M 464.012723 19.681919 
L 464.727273 18.768262 
L 465.458174 19.681919 
L 464.727273 20.398127 
z
M 458.181818 17.527345 
L 459.321609 16.401599 
L 458.181818 14.290602 
L 457.058678 16.401599 
z
M 457.467268 16.401599 
L 458.181818 15.058567 
L 458.906962 16.401599 
L 458.181818 17.117807 
z
M 425.454545 7.747747 
L 428.727273 7.747747 
L 430.076371 6.56064 
L 428.727273 3.850375 
L 425.454545 4.69418 
L 424.270186 6.56064 
z
M 424.685275 6.56064 
L 425.454545 5.348329 
L 428.727273 4.800257 
L 429.603545 6.56064 
L 428.727273 7.331695 
L 425.454545 7.331695 
z
M 422.181818 0.821123 
L 425.454545 0.686336 
L 428.243357 -0 
L 425.454545 -0 
L 423.366723 0 
L 422.181818 0.160512 
L 421.650754 -0 
L 419.465088 -0 
z
" clip-path="url(#p237021a2b8)" style="fill: #dfecf7; fill-opacity: 0.9"/>
    <path d="M 566.181818 49.885086 
L 566.894847 49.204798 
L 566.181818 47.764531 
L 565.503105 49.204798 
z
M 565.972358 49.204798 
L 566.181818 48.760312 
L 566.401869 49.204798 
L 566.181818 49.414745 
z
M 559.636364 42.67126 
L 561.075249 42.644159 
L 562.909091 42.39436 
L 566.181818 41.570368 
L 569.308927 42.644159 
L 569.454545 42.712461 
L 572.727273 43.877532 
L 576 44.890974 
L 576 43.022985 
L 572.727273 42.857574 
L 572.146555 42.644159 
L 569.454545 40.175604 
L 566.181818 39.905574 
L 564.686215 39.363839 
L 562.909091 37.820424 
L 559.636364 38.082344 
L 558.077728 39.363839 
L 556.363636 39.738128 
L 553.090909 39.64327 
L 552.493241 39.363839 
L 549.818182 36.571937 
L 546.545455 36.268078 
L 546.092269 36.083519 
L 543.272727 33.112264 
L 540 32.868778 
L 539.80226 32.803199 
L 537.071312 29.522879 
L 536.727273 29.443362 
L 534.219534 26.242559 
L 533.454545 25.96378 
L 530.181818 25.024676 
L 528.441215 22.962239 
L 526.909091 22.295042 
L 523.636364 21.144303 
L 520.483425 19.681919 
L 520.363636 19.653308 
L 520.285916 19.681919 
L 517.090909 21.834863 
L 513.818182 22.445955 
L 510.545455 22.300296 
L 507.272727 19.988946 
L 504 19.801467 
L 503.826496 19.681919 
L 500.727273 16.780324 
L 499.626716 16.401599 
L 497.454545 14.575151 
L 494.181818 14.083296 
L 492.042676 13.12128 
L 490.909091 12.215954 
L 489.810276 13.12128 
L 489.128685 16.401599 
L 488.236525 19.681919 
L 487.636364 19.763464 
L 487.324216 19.681919 
L 484.363636 17.704169 
L 481.090909 16.868405 
L 480.339164 16.401599 
L 477.818182 14.0225 
L 475.686362 13.12128 
L 474.545455 12.029218 
L 471.272727 10.48432 
L 470.152522 9.84096 
L 468 7.771809 
L 464.727273 6.838156 
L 464.295435 6.56064 
L 461.454545 4.570532 
L 459.340287 3.28032 
L 458.181818 2.199094 
L 455.76413 3.28032 
L 454.909091 5.527968 
L 454.483406 6.56064 
L 451.636364 7.425045 
L 448.363636 7.144936 
L 447.401354 6.56064 
L 445.090909 4.276524 
L 442.316001 3.28032 
L 441.818182 2.799708 
L 438.545455 0.678399 
L 437.385222 -0 
L 435.995856 -0 
L 438.545455 1.490774 
L 440.901416 3.28032 
L 441.818182 3.873234 
L 445.090909 5.527962 
L 446.135491 6.56064 
L 448.363636 7.913565 
L 451.636364 9.01944 
L 453.14226 9.84096 
L 454.909091 10.259228 
L 458.083731 9.84096 
L 458.181818 9.629396 
L 459.494821 6.56064 
L 461.454545 5.987603 
L 462.272558 6.56064 
L 464.727273 8.138137 
L 468 9.061327 
L 468.811047 9.84096 
L 471.272727 11.254761 
L 473.951018 13.12128 
L 474.545455 13.528264 
L 477.818182 15.065796 
L 479.233649 16.401599 
L 481.090909 17.55489 
L 484.363636 19.441972 
L 484.722823 19.681919 
L 487.636364 20.443043 
L 490.909091 20.278336 
L 493.238192 19.681919 
L 493.956845 16.401599 
L 494.181818 16.297223 
L 494.516378 16.401599 
L 497.454545 17.464289 
L 500.727273 18.055991 
L 502.463943 19.681919 
L 504 20.740292 
L 507.272727 21.917046 
L 508.430922 22.962239 
L 510.545455 23.970349 
L 513.560806 26.242559 
L 513.818182 26.394536 
L 517.090909 27.375654 
L 519.411 29.522879 
L 520.363636 29.997981 
L 523.636364 29.626446 
L 524.079403 29.522879 
L 526.909091 28.266527 
L 529.325134 29.522879 
L 530.181818 29.942895 
L 533.454545 30.68184 
L 536.727273 32.395678 
L 537.106766 32.803199 
L 540 33.762716 
L 543.272727 35.164678 
L 544.144653 36.083519 
L 546.545455 37.061241 
L 549.818182 38.163138 
L 550.968633 39.363839 
L 553.090909 40.356077 
L 556.363636 40.940317 
L 559.547258 42.644159 
z
M 533.454545 39.70492 
L 533.81071 39.363839 
L 533.454545 38.668308 
L 533.114254 39.363839 
z
M 497.454545 30.254949 
L 500.727273 30.275489 
L 501.478141 29.522879 
L 500.727273 28.166413 
L 497.454545 28.540925 
L 496.72417 29.522879 
z
M 497.142196 29.522879 
L 497.454545 29.102941 
L 500.727273 28.942779 
L 501.048386 29.522879 
L 500.727273 29.844737 
L 497.454545 29.835953 
z
M 464.727273 20.398127 
L 465.458174 19.681919 
L 464.727273 18.768262 
L 464.012723 19.681919 
z
M 464.421313 19.681919 
L 464.727273 19.290704 
L 465.040234 19.681919 
L 464.727273 19.988589 
z
M 458.181818 17.117807 
L 458.906962 16.401599 
L 458.181818 15.058567 
L 457.467268 16.401599 
z
M 457.875858 16.401599 
L 458.181818 15.826532 
L 458.492314 16.401599 
L 458.181818 16.708269 
z
M 425.454545 7.331695 
L 428.727273 7.331695 
L 429.603545 6.56064 
L 428.727273 4.800257 
L 425.454545 5.348329 
L 424.685275 6.56064 
z
M 425.100364 6.56064 
L 425.454545 6.002478 
L 428.727273 5.750139 
L 429.130719 6.56064 
L 428.727273 6.915643 
L 425.454545 6.915643 
z
M 422.181818 0.160512 
L 423.366723 0 
L 422.181818 -0 
L 421.650754 -0 
z
" clip-path="url(#p237021a2b8)" style="fill: #dae8f6; fill-opacity: 0.9"/>
    <path d="M 566.181818 49.414745 
L 566.401869 49.204798 
L 566.181818 48.760312 
L 565.972358 49.204798 
z
M 572.727273 42.857574 
L 576 43.022985 
L 576 42.644159 
L 576 39.363839 
L 576 36.711541 
L 572.949402 36.083519 
L 572.727273 36.039025 
L 569.454545 34.625256 
L 566.181818 33.734115 
L 564.297298 32.803199 
L 562.909091 32.268849 
L 559.636364 31.200782 
L 556.363636 30.197259 
L 555.333636 29.522879 
L 553.090909 28.788821 
L 549.818182 28.665065 
L 546.545455 27.682163 
L 543.272727 26.583577 
L 540 26.292328 
L 539.933693 26.242559 
L 536.727273 24.020122 
L 533.510269 22.962239 
L 533.454545 22.938501 
L 530.181818 21.155641 
L 527.047876 19.681919 
L 526.909091 19.609043 
L 523.636364 17.977985 
L 520.363636 16.783161 
L 519.472258 16.401599 
L 517.090909 15.564405 
L 513.818182 16.271032 
L 513.660797 16.401599 
L 510.545455 17.366232 
L 509.485481 16.401599 
L 507.272727 14.884608 
L 504 13.851308 
L 503.154903 13.12128 
L 500.727273 12.076421 
L 497.665252 9.84096 
L 497.454545 9.722535 
L 494.181818 8.933319 
L 491.473559 6.56064 
L 490.909091 6.263116 
L 487.636364 5.831955 
L 484.619685 6.56064 
L 484.363636 6.88475 
L 482.976329 9.84096 
L 481.090909 11.359654 
L 479.298513 9.84096 
L 477.818182 9.083712 
L 474.545455 7.396467 
L 472.621327 6.56064 
L 471.272727 6.461043 
L 468 4.549662 
L 464.727273 3.451974 
L 463.658206 3.28032 
L 461.454545 2.041971 
L 458.181818 0.031784 
L 457.820825 -0 
L 454.909091 -0 
L 451.636364 -0 
L 449.56876 -0 
L 448.363636 0.729405 
L 447.475787 -0 
L 445.090909 -0 
L 441.818182 -0 
L 438.545455 -0 
L 437.385222 -0 
L 438.545455 0.678399 
L 441.818182 2.799708 
L 442.316001 3.28032 
L 445.090909 4.276524 
L 447.401354 6.56064 
L 448.363636 7.144936 
L 451.636364 7.425045 
L 454.483406 6.56064 
L 454.909091 5.527968 
L 455.76413 3.28032 
L 458.181818 2.199094 
L 459.340287 3.28032 
L 461.454545 4.570532 
L 464.295435 6.56064 
L 464.727273 6.838156 
L 468 7.771809 
L 470.152522 9.84096 
L 471.272727 10.48432 
L 474.545455 12.029218 
L 475.686362 13.12128 
L 477.818182 14.0225 
L 480.339164 16.401599 
L 481.090909 16.868405 
L 484.363636 17.704169 
L 487.324216 19.681919 
L 487.636364 19.763464 
L 488.236525 19.681919 
L 489.128685 16.401599 
L 489.810276 13.12128 
L 490.909091 12.215954 
L 492.042676 13.12128 
L 494.181818 14.083296 
L 497.454545 14.575151 
L 499.626716 16.401599 
L 500.727273 16.780324 
L 503.826496 19.681919 
L 504 19.801467 
L 507.272727 19.988946 
L 510.545455 22.300296 
L 513.818182 22.445955 
L 517.090909 21.834863 
L 520.285916 19.681919 
L 520.363636 19.653308 
L 520.483425 19.681919 
L 523.636364 21.144303 
L 526.909091 22.295042 
L 528.441215 22.962239 
L 530.181818 25.024676 
L 533.454545 25.96378 
L 534.219534 26.242559 
L 536.727273 29.443362 
L 537.071312 29.522879 
L 539.80226 32.803199 
L 540 32.868778 
L 543.272727 33.112264 
L 546.092269 36.083519 
L 546.545455 36.268078 
L 549.818182 36.571937 
L 552.493241 39.363839 
L 553.090909 39.64327 
L 556.363636 39.738128 
L 558.077728 39.363839 
L 559.636364 38.082344 
L 562.909091 37.820424 
L 564.686215 39.363839 
L 566.181818 39.905574 
L 569.454545 40.175604 
L 572.146555 42.644159 
z
M 497.454545 29.835953 
L 500.727273 29.844737 
L 501.048386 29.522879 
L 500.727273 28.942779 
L 497.454545 29.102941 
L 497.142196 29.522879 
z
M 464.727273 19.988589 
L 465.040234 19.681919 
L 464.727273 19.290704 
L 464.421313 19.681919 
z
M 458.181818 16.708269 
L 458.492314 16.401599 
L 458.181818 15.826532 
L 457.875858 16.401599 
z
M 425.454545 6.915643 
L 428.727273 6.915643 
L 429.130719 6.56064 
L 428.727273 5.750139 
L 425.454545 6.002478 
L 425.100364 6.56064 
z
" clip-path="url(#p237021a2b8)" style="fill: #d6e5f4; fill-opacity: 0.9"/>
    <path d="M 576 36.711541 
L 576 36.083519 
L 576 34.079052 
L 573.525612 32.803199 
L 572.727273 32.466768 
L 569.454545 31.768852 
L 566.181818 30.517935 
L 563.771 29.522879 
L 562.909091 29.288435 
L 559.636364 28.265022 
L 556.363636 26.794897 
L 554.646868 26.242559 
L 553.090909 25.800209 
L 549.818182 24.688959 
L 546.545455 23.597087 
L 544.515818 22.962239 
L 543.272727 22.553313 
L 540 21.377199 
L 536.727273 20.487465 
L 535.067349 19.681919 
L 533.454545 19.102673 
L 530.181818 18.299585 
L 526.909091 16.797218 
L 525.904353 16.401599 
L 523.636364 15.519799 
L 520.363636 13.953311 
L 517.090909 13.207159 
L 516.873911 13.12128 
L 513.818182 11.963016 
L 510.545455 11.36462 
L 507.272727 12.775241 
L 504 11.163777 
L 500.727273 10.271149 
L 500.138022 9.84096 
L 497.454545 8.332758 
L 494.301496 6.56064 
L 494.181818 6.486722 
L 490.909091 4.763029 
L 488.647767 3.28032 
L 487.636364 2.651733 
L 484.363636 1.129859 
L 482.473356 -0 
L 481.090909 -0 
L 477.818182 -0 
L 474.545455 -0 
L 473.77371 -0 
L 471.272727 0.328898 
L 468 0.315126 
L 467.550929 -0 
L 464.727273 -0 
L 461.454545 -0 
L 458.181818 -0 
L 457.820825 -0 
L 458.181818 0.031784 
L 461.454545 2.041971 
L 463.658206 3.28032 
L 464.727273 3.451974 
L 468 4.549662 
L 471.272727 6.461043 
L 472.621327 6.56064 
L 474.545455 7.396467 
L 477.818182 9.083712 
L 479.298513 9.84096 
L 481.090909 11.359654 
L 482.976329 9.84096 
L 484.363636 6.88475 
L 484.619685 6.56064 
L 487.636364 5.831955 
L 490.909091 6.263116 
L 491.473559 6.56064 
L 494.181818 8.933319 
L 497.454545 9.722535 
L 497.665252 9.84096 
L 500.727273 12.076421 
L 503.154903 13.12128 
L 504 13.851308 
L 507.272727 14.884608 
L 509.485481 16.401599 
L 510.545455 17.366232 
L 513.660797 16.401599 
L 513.818182 16.271032 
L 517.090909 15.564405 
L 519.472258 16.401599 
L 520.363636 16.783161 
L 523.636364 17.977985 
L 526.909091 19.609043 
L 527.047876 19.681919 
L 530.181818 21.155641 
L 533.454545 22.938501 
L 533.510269 22.962239 
L 536.727273 24.020122 
L 539.933693 26.242559 
L 540 26.292328 
L 543.272727 26.583577 
L 546.545455 27.682163 
L 549.818182 28.665065 
L 553.090909 28.788821 
L 555.333636 29.522879 
L 556.363636 30.197259 
L 559.636364 31.200782 
L 562.909091 32.268849 
L 564.297298 32.803199 
L 566.181818 33.734115 
L 569.454545 34.625256 
L 572.727273 36.039025 
L 572.949402 36.083519 
z
M 448.363636 0.729405 
L 449.56876 -0 
L 448.363636 -0 
L 447.475787 -0 
z
" clip-path="url(#p237021a2b8)" style="fill: #d0e2f2; fill-opacity: 0.9"/>
    <path d="M 576 34.079052 
L 576 32.803199 
L 576 31.317478 
L 572.727273 30.525482 
L 569.454545 29.618736 
L 569.249172 29.522879 
L 566.181818 28.368164 
L 562.909091 27.325919 
L 560.366128 26.242559 
L 559.636364 25.969182 
L 556.363636 24.673862 
L 553.090909 23.089299 
L 552.77402 22.962239 
L 549.818182 22.022048 
L 546.545455 20.553371 
L 543.809568 19.681919 
L 543.272727 19.546011 
L 540 18.453576 
L 536.727273 17.36711 
L 533.595791 16.401599 
L 533.454545 16.356066 
L 530.181818 15.161342 
L 526.909091 14.07108 
L 524.55242 13.12128 
L 523.636364 12.70187 
L 520.363636 11.137742 
L 517.712319 9.84096 
L 517.090909 9.535835 
L 513.818182 9.482161 
L 510.545455 7.662989 
L 507.272727 7.491267 
L 504.33398 6.56064 
L 504 6.455075 
L 503.440545 6.56064 
L 500.727273 7.135997 
L 497.454545 6.94298 
L 496.774265 6.56064 
L 494.181818 4.959435 
L 490.943219 3.28032 
L 490.909091 3.259048 
L 487.636364 1.229847 
L 485.733305 -0 
L 484.363636 -0 
L 482.473356 -0 
L 484.363636 1.129859 
L 487.636364 2.651733 
L 488.647767 3.28032 
L 490.909091 4.763029 
L 494.181818 6.486722 
L 494.301496 6.56064 
L 497.454545 8.332758 
L 500.138022 9.84096 
L 500.727273 10.271149 
L 504 11.163777 
L 507.272727 12.775241 
L 510.545455 11.36462 
L 513.818182 11.963016 
L 516.873911 13.12128 
L 517.090909 13.207159 
L 520.363636 13.953311 
L 523.636364 15.519799 
L 525.904353 16.401599 
L 526.909091 16.797218 
L 530.181818 18.299585 
L 533.454545 19.102673 
L 535.067349 19.681919 
L 536.727273 20.487465 
L 540 21.377199 
L 543.272727 22.553313 
L 544.515818 22.962239 
L 546.545455 23.597087 
L 549.818182 24.688959 
L 553.090909 25.800209 
L 554.646868 26.242559 
L 556.363636 26.794897 
L 559.636364 28.265022 
L 562.909091 29.288435 
L 563.771 29.522879 
L 566.181818 30.517935 
L 569.454545 31.768852 
L 572.727273 32.466768 
L 573.525612 32.803199 
z
M 468 0.315126 
L 471.272727 0.328898 
L 473.77371 -0 
L 471.272727 -0 
L 468 -0 
L 467.550929 -0 
z
" clip-path="url(#p237021a2b8)" style="fill: #cbdef1; fill-opacity: 0.9"/>
    <path d="M 569.454545 29.618736 
L 572.727273 30.525482 
L 576 31.317478 
L 576 29.522879 
L 576 27.700663 
L 572.727273 26.787899 
L 569.454545 26.857135 
L 566.181818 26.633993 
L 565.085303 26.242559 
L 562.909091 25.137191 
L 559.636364 24.243503 
L 556.77024 22.962239 
L 556.363636 22.68144 
L 553.090909 21.307165 
L 549.818182 19.871497 
L 549.460171 19.681919 
L 546.545455 18.379096 
L 543.272727 17.092577 
L 541.780154 16.401599 
L 540 15.657946 
L 536.727273 14.478043 
L 533.454545 13.263211 
L 533.009817 13.12128 
L 530.181818 12.215829 
L 526.909091 11.143016 
L 524.10473 9.84096 
L 523.636364 9.603842 
L 520.363636 7.860581 
L 517.090909 6.71266 
L 516.778819 6.56064 
L 513.818182 4.636926 
L 510.545455 3.644807 
L 509.854513 3.28032 
L 507.272727 2.108393 
L 504.046702 3.28032 
L 504 3.295095 
L 503.953531 3.28032 
L 500.727273 1.754269 
L 497.454545 2.657647 
L 495.604911 3.28032 
L 494.181818 3.432148 
L 493.888978 3.28032 
L 490.909091 1.422957 
L 488.122063 -0 
L 487.636364 -0 
L 485.733305 -0 
L 487.636364 1.229847 
L 490.909091 3.259048 
L 490.943219 3.28032 
L 494.181818 4.959435 
L 496.774265 6.56064 
L 497.454545 6.94298 
L 500.727273 7.135997 
L 503.440545 6.56064 
L 504 6.455075 
L 504.33398 6.56064 
L 507.272727 7.491267 
L 510.545455 7.662989 
L 513.818182 9.482161 
L 517.090909 9.535835 
L 517.712319 9.84096 
L 520.363636 11.137742 
L 523.636364 12.70187 
L 524.55242 13.12128 
L 526.909091 14.07108 
L 530.181818 15.161342 
L 533.454545 16.356066 
L 533.595791 16.401599 
L 536.727273 17.36711 
L 540 18.453576 
L 543.272727 19.546011 
L 543.809568 19.681919 
L 546.545455 20.553371 
L 549.818182 22.022048 
L 552.77402 22.962239 
L 553.090909 23.089299 
L 556.363636 24.673862 
L 559.636364 25.969182 
L 560.366128 26.242559 
L 562.909091 27.325919 
L 566.181818 28.368164 
L 569.249172 29.522879 
z
" clip-path="url(#p237021a2b8)" style="fill: #c6dbef; fill-opacity: 0.9"/>
    <path d="M 566.181818 26.633993 
L 569.454545 26.857135 
L 572.727273 26.787899 
L 576 27.700663 
L 576 26.242559 
L 576 23.751575 
L 572.727273 23.460616 
L 571.474968 22.962239 
L 569.454545 21.793683 
L 566.181818 21.777473 
L 562.909091 22.021689 
L 559.636364 21.397422 
L 556.363636 20.015555 
L 554.198795 19.681919 
L 553.090909 19.106623 
L 549.818182 16.856997 
L 546.545455 16.563799 
L 546.183417 16.401599 
L 543.272727 13.845217 
L 540 13.444039 
L 539.288586 13.12128 
L 536.727273 10.927232 
L 533.454545 10.414632 
L 531.939522 9.84096 
L 530.181818 8.443995 
L 526.909091 7.583418 
L 524.431959 6.56064 
L 523.636364 6.006129 
L 520.363636 4.392471 
L 518.400453 3.28032 
L 517.090909 2.288002 
L 513.818182 0.79314 
L 512.575738 -0 
L 510.545455 -0 
L 507.272727 -0 
L 504 -0 
L 500.727273 -0 
L 497.454545 -0 
L 494.181818 -0 
L 490.909091 -0 
L 488.122063 -0 
L 490.909091 1.422957 
L 493.888978 3.28032 
L 494.181818 3.432148 
L 495.604911 3.28032 
L 497.454545 2.657647 
L 500.727273 1.754269 
L 503.953531 3.28032 
L 504 3.295095 
L 504.046702 3.28032 
L 507.272727 2.108393 
L 509.854513 3.28032 
L 510.545455 3.644807 
L 513.818182 4.636926 
L 516.778819 6.56064 
L 517.090909 6.71266 
L 520.363636 7.860581 
L 523.636364 9.603842 
L 524.10473 9.84096 
L 526.909091 11.143016 
L 530.181818 12.215829 
L 533.009817 13.12128 
L 533.454545 13.263211 
L 536.727273 14.478043 
L 540 15.657946 
L 541.780154 16.401599 
L 543.272727 17.092577 
L 546.545455 18.379096 
L 549.460171 19.681919 
L 549.818182 19.871497 
L 553.090909 21.307165 
L 556.363636 22.68144 
L 556.77024 22.962239 
L 559.636364 24.243503 
L 562.909091 25.137191 
L 565.085303 26.242559 
z
" clip-path="url(#p237021a2b8)" style="fill: #bed8ec; fill-opacity: 0.9"/>
    <path d="M 572.727273 23.460616 
L 576 23.751575 
L 576 22.962239 
L 576 19.681919 
L 576 17.504106 
L 572.727273 16.6996 
L 571.151782 16.401599 
L 569.454545 15.901693 
L 566.181818 14.541589 
L 562.909091 13.878149 
L 560.82918 13.12128 
L 559.636364 12.688483 
L 556.363636 11.625679 
L 553.090909 10.031034 
L 552.619806 9.84096 
L 549.818182 8.946496 
L 546.545455 7.315853 
L 544.489474 6.56064 
L 543.272727 6.184548 
L 540 4.540929 
L 536.727273 3.300689 
L 536.683953 3.28032 
L 533.454545 1.689319 
L 530.181818 0.222966 
L 529.721001 -0 
L 526.909091 -0 
L 523.636364 -0 
L 520.363636 -0 
L 517.090909 -0 
L 513.818182 -0 
L 512.575738 -0 
L 513.818182 0.79314 
L 517.090909 2.288002 
L 518.400453 3.28032 
L 520.363636 4.392471 
L 523.636364 6.006129 
L 524.431959 6.56064 
L 526.909091 7.583418 
L 530.181818 8.443995 
L 531.939522 9.84096 
L 533.454545 10.414632 
L 536.727273 10.927232 
L 539.288586 13.12128 
L 540 13.444039 
L 543.272727 13.845217 
L 546.183417 16.401599 
L 546.545455 16.563799 
L 549.818182 16.856997 
L 553.090909 19.106623 
L 554.198795 19.681919 
L 556.363636 20.015555 
L 559.636364 21.397422 
L 562.909091 22.021689 
L 566.181818 21.777473 
L 569.454545 21.793683 
L 571.474968 22.962239 
z
" clip-path="url(#p237021a2b8)" style="fill: #b5d4e9; fill-opacity: 0.9"/>
    <path d="M 572.727273 16.6996 
L 576 17.504106 
L 576 16.401599 
L 576 13.12128 
L 576 9.84096 
L 576 7.544335 
L 573.052667 6.56064 
L 572.727273 6.465018 
L 569.454545 5.423225 
L 566.181818 4.379924 
L 562.909091 3.28414 
L 562.894504 3.28032 
L 559.636364 2.407572 
L 556.363636 1.347991 
L 553.090909 0.610355 
L 550.893086 -0 
L 549.818182 -0 
L 546.545455 -0 
L 543.272727 -0 
L 540 -0 
L 536.727273 -0 
L 533.454545 -0 
L 530.181818 -0 
L 529.721001 -0 
L 530.181818 0.222966 
L 533.454545 1.689319 
L 536.683953 3.28032 
L 536.727273 3.300689 
L 540 4.540929 
L 543.272727 6.184548 
L 544.489474 6.56064 
L 546.545455 7.315853 
L 549.818182 8.946496 
L 552.619806 9.84096 
L 553.090909 10.031034 
L 556.363636 11.625679 
L 559.636364 12.688483 
L 560.82918 13.12128 
L 562.909091 13.878149 
L 566.181818 14.541589 
L 569.454545 15.901693 
L 571.151782 16.401599 
z
" clip-path="url(#p237021a2b8)" style="fill: #add0e6; fill-opacity: 0.9"/>
    <path d="M 576 7.544335 
L 576 6.56064 
L 576 3.28032 
L 576 -0 
L 572.727273 -0 
L 569.454545 -0 
L 566.181818 -0 
L 562.909091 -0 
L 559.636364 -0 
L 556.363636 -0 
L 553.090909 -0 
L 550.893086 -0 
L 553.090909 0.610355 
L 556.363636 1.347991 
L 559.636364 2.407572 
L 562.894504 3.28032 
L 562.909091 3.28414 
L 566.181818 4.379924 
L 569.454545 5.423225 
L 572.727273 6.465018 
L 573.052667 6.56064 
z
" clip-path="url(#p237021a2b8)" style="fill: #a5cde3; fill-opacity: 0.9"/>
    <path clip-path="url(#p237021a2b8)" style="fill: #9cc9e1; fill-opacity: 0.9"/>
    <path clip-path="url(#p237021a2b8)" style="fill: #91c3de; fill-opacity: 0.9"/>
    <path clip-path="url(#p237021a2b8)" style="fill: #85bcdc; fill-opacity: 0.9"/>
    <path clip-path="url(#p237021a2b8)" style="fill: #7cb7da; fill-opacity: 0.9"/>
    <path clip-path="url(#p237021a2b8)" style="fill: #71b1d7; fill-opacity: 0.9"/>
    <path clip-path="url(#p237021a2b8)" style="fill: #66abd4; fill-opacity: 0.9"/>
    <path clip-path="url(#p237021a2b8)" style="fill: #5da5d1; fill-opacity: 0.9"/>
    <path clip-path="url(#p237021a2b8)" style="fill: #56a0ce; fill-opacity: 0.9"/>
    <path clip-path="url(#p237021a2b8)" style="fill: #4d99ca; fill-opacity: 0.9"/>
    <path clip-path="url(#p237021a2b8)" style="fill: #4493c7; fill-opacity: 0.9"/>
    <path clip-path="url(#p237021a2b8)" style="fill: #3c8cc3; fill-opacity: 0.9"/>
    <path clip-path="url(#p237021a2b8)" style="fill: #3686c0; fill-opacity: 0.9"/>
    <path clip-path="url(#p237021a2b8)" style="fill: #2f7fbc; fill-opacity: 0.9"/>
    <path clip-path="url(#p237021a2b8)" style="fill: #2777b8; fill-opacity: 0.9"/>
    <path clip-path="url(#p237021a2b8)" style="fill: #2070b4; fill-opacity: 0.9"/>
    <path clip-path="url(#p237021a2b8)" style="fill: #1c6ab0; fill-opacity: 0.9"/>
    <path clip-path="url(#p237021a2b8)" style="fill: #1663aa; fill-opacity: 0.9"/>
    <path clip-path="url(#p237021a2b8)" style="fill: #115ca5; fill-opacity: 0.9"/>
    <path clip-path="url(#p237021a2b8)" style="fill: #0c56a0; fill-opacity: 0.9"/>
    <path clip-path="url(#p237021a2b8)" style="fill: #084f99; fill-opacity: 0.9"/>
    <path clip-path="url(#p237021a2b8)" style="fill: #08488e; fill-opacity: 0.9"/>
    <path clip-path="url(#p237021a2b8)" style="fill: #084184; fill-opacity: 0.9"/>
    <path clip-path="url(#p237021a2b8)" style="fill: #083a7a; fill-opacity: 0.9"/>
    <path clip-path="url(#p237021a2b8)" style="fill: #083370; fill-opacity: 0.9"/>
    <path clip-path="url(#p237021a2b8)" style="fill: #08306b; fill-opacity: 0.9"/>
   </g>
   <g id="QuadContourSet_2">
    <path d="M 412.512598 -0 
L 415.636364 2.228406 
L 418.909091 2.572216 
L 421.48805 3.28032 
L 422.181818 3.975697 
L 422.609829 6.56064 
L 425.454545 9.411956 
L 428.727273 9.411956 
L 431.967676 6.56064 
L 432 6.485816 
L 432.143306 6.56064 
L 435.272727 8.338907 
L 438.545455 8.216664 
L 441.818182 8.95245 
L 445.090909 9.579565 
L 445.505436 9.84096 
L 448.363636 12.019229 
L 451.636364 12.650982 
L 453.158355 13.12128 
L 454.909091 14.454469 
L 455.424319 16.401599 
L 458.181818 19.165496 
L 460.980199 16.401599 
L 461.454545 15.67823 
L 463.774228 16.401599 
L 461.969774 19.681919 
L 464.727273 22.445816 
L 467.547873 19.681919 
L 468 18.560981 
L 471.272727 18.475495 
L 474.329005 19.681919 
L 474.545455 19.898871 
L 475.959076 20.111416 
M 493.907277 25.764092 
L 494.181818 25.801795 
L 495.60543 26.242559 
L 494.634039 29.522879 
L 497.454545 32.349929 
L 500.727273 32.429249 
L 503.626915 29.522879 
L 504 28.673 
L 506.035046 29.522879 
L 507.272727 30.763432 
L 510.545455 31.271543 
L 513.818182 31.341931 
L 517.090909 32.391049 
L 517.971116 32.803199 
L 520.363636 34.809867 
L 523.636364 35.296477 
L 526.909091 35.864642 
L 527.608561 36.083519 
L 530.181818 37.907247 
L 530.615643 39.363839 
L 533.454545 42.209327 
L 536.425864 39.363839 
L 536.727273 38.780481 
L 538.091555 39.363839 
L 540 41.345977 
L 543.272727 41.772812 
L 546.545455 41.984365 
L 548.752084 42.644159 
L 549.818182 43.712729 
L 553.090909 45.177329 
L 556.363636 45.503162 
L 558.618725 45.924479 
L 559.636364 46.944478 
L 562.909091 48.425775 
L 563.156841 49.204798 
L 566.181818 52.236794 
L 569.359738 49.204798 
L 569.454545 49.037899 
L 569.886541 49.204798 
L 572.727273 51.411315 
L 576 51.774537 
" clip-path="url(#p237021a2b8)" style="fill: none"/>
    <path d="M 413.942648 -0 
L 415.636364 1.208249 
L 418.909091 1.885489 
L 422.181818 2.802953 
L 423.696588 3.28032 
L 423.024918 6.56064 
L 425.454545 8.995904 
L 428.727273 8.995904 
L 431.49485 6.56064 
L 432 5.391323 
L 434.23954 6.56064 
L 435.272727 7.14774 
L 438.545455 6.928555 
L 441.818182 6.806871 
L 445.090909 8.856435 
L 446.652191 9.84096 
L 448.363636 11.145273 
L 451.636364 12.024409 
L 454.909091 13.026764 
L 455.186091 13.12128 
L 455.832909 16.401599 
L 458.181818 18.755958 
L 460.565551 16.401599 
L 461.454545 15.045902 
L 464.727273 15.812356 
L 465.801964 16.401599 
L 464.727273 16.678492 
L 462.378364 19.681919 
L 464.727273 22.036278 
L 467.129933 19.681919 
L 468 17.524802 
L 471.272727 17.360294 
L 474.545455 16.9947 
L 477.818182 19.009141 
L 479.250557 19.681919 
L 481.090909 20.673221 
L 484.363636 22.127361 
L 487.041295 22.962239 
L 487.636364 23.366973 
L 490.909091 24.529444 
L 494.181818 25.173014 
L 497.454545 26.146726 
L 497.636316 26.242559 
L 497.454545 26.292861 
L 495.052065 29.522879 
L 497.454545 31.930933 
L 500.727273 31.998497 
L 503.19716 29.522879 
L 504 27.694027 
L 507.272727 28.321112 
L 510.545455 29.50652 
L 510.869505 29.522879 
L 511.761867 29.563983 
M 529.576691 35.958574 
L 529.975979 36.083519 
L 530.181818 36.229402 
L 531.115366 39.363839 
L 533.454545 41.708445 
L 535.902833 39.363839 
L 536.727273 37.768189 
L 540 38.965796 
L 540.970879 39.363839 
L 543.272727 40.12243 
L 546.545455 40.734676 
L 549.818182 42.031783 
L 551.406444 42.644159 
L 553.090909 43.762183 
L 556.363636 44.705164 
L 559.636364 45.404053 
L 561.347469 45.924479 
L 562.909091 46.950259 
L 563.626094 49.204798 
L 566.181818 51.766452 
L 568.86676 49.204798 
L 569.454545 48.170059 
L 572.132828 49.204798 
L 572.727273 49.666529 
L 576 50.619937 
" clip-path="url(#p237021a2b8)" style="fill: none"/>
    <path d="M 415.372698 -0 
L 415.636364 0.188091 
L 418.909091 1.198762 
L 422.181818 2.142343 
L 425.454545 3.086647 
L 425.792822 3.28032 
L 425.454545 3.385882 
L 423.440007 6.56064 
L 425.454545 8.579851 
L 428.727273 8.579851 
L 431.022024 6.56064 
L 432 4.296829 
L 435.272727 4.369157 
L 438.545455 5.010292 
L 441.818182 5.948324 
L 442.764947 6.56064 
L 445.090909 8.133306 
L 447.798946 9.84096 
L 448.363636 10.271317 
L 451.636364 11.397835 
L 454.909091 12.33488 
L 457.213828 13.12128 
L 456.241499 16.401599 
L 458.181818 18.34642 
L 460.150904 16.401599 
L 461.454545 14.413573 
L 464.727273 14.700567 
L 467.829701 16.401599 
L 464.727273 17.200934 
L 462.786953 19.681919 
L 464.727273 21.62674 
L 466.711993 19.681919 
L 468 16.488623 
L 469.225281 16.401599 
L 471.272727 15.760144 
L 474.545455 15.798959 
L 475.581192 16.401599 
L 477.818182 18.050356 
L 481.090909 19.614343 
L 481.199734 19.681919 
L 484.363636 21.494143 
L 487.636364 22.481783 
L 489.072181 22.962239 
L 490.909091 23.706543 
L 494.181818 24.544232 
L 497.454545 25.076006 
L 499.667202 26.242559 
L 497.454545 26.854877 
L 495.470091 29.522879 
L 497.454545 31.511937 
L 500.727273 31.567745 
L 502.767406 29.522879 
L 504 26.715054 
L 506.370805 26.242559 
L 507.272727 26.014546 
L 507.903329 26.242559 
L 510.545455 27.661748 
L 513.818182 28.789098 
L 515.06086 29.522879 
L 517.090909 30.752933 
L 520.363636 32.314916 
L 521.860402 32.803199 
L 523.636364 33.483295 
L 526.909091 34.383026 
L 530.181818 35.006853 
L 532.343397 36.083519 
L 531.615088 39.363839 
L 533.454545 41.207564 
L 535.379802 39.363839 
L 536.727273 36.755897 
L 540 36.912662 
L 543.272727 38.790697 
L 544.22422 38.987224 
M 562.191699 45.420748 
L 562.909091 45.617238 
L 563.593756 45.924479 
L 564.095346 49.204798 
L 566.181818 51.296111 
L 568.373782 49.204798 
L 569.454545 47.302218 
L 572.727273 47.80921 
L 575.231546 49.204798 
L 576 49.465337 
" clip-path="url(#p237021a2b8)" style="fill: none"/>
    <path d="M 417.346104 -0 
L 418.909091 0.512035 
L 422.181818 1.481733 
L 425.454545 1.886491 
L 427.889056 3.28032 
L 425.454545 4.040031 
L 423.855097 6.56064 
L 425.454545 8.163799 
L 428.727273 8.163799 
L 430.549197 6.56064 
L 431.505035 3.28032 
L 432 2.461826 
L 435.272727 2.178758 
L 438.545455 3.115525 
L 438.76241 3.28032 
L 441.818182 5.256627 
L 443.83445 6.56064 
L 445.090909 7.410177 
L 448.363636 9.450823 
L 449.197415 9.84096 
L 451.636364 10.771262 
L 454.909091 11.642996 
L 458.181818 12.43661 
L 459.273803 13.12128 
L 458.181818 13.522637 
L 456.650089 16.401599 
L 458.181818 17.936883 
L 459.736257 16.401599 
L 461.454545 13.781244 
L 464.727273 13.588777 
L 466.891462 13.12128 
L 468 12.682659 
L 471.272727 12.795643 
L 471.739987 13.12128 
L 474.545455 15.042061 
L 476.882046 16.401599 
L 477.818182 17.091571 
L 481.090909 18.927858 
L 482.30525 19.681919 
L 484.363636 20.860924 
L 487.636364 21.802203 
L 490.909091 22.839908 
L 491.103067 22.962239 
L 491.292444 23.020872 
M 509.030281 25.435871 
L 510.545455 26.007569 
L 510.857299 26.242559 
L 513.818182 27.990911 
L 516.412613 29.522879 
L 517.090909 29.933874 
L 520.363636 31.542605 
L 523.636364 32.450437 
L 524.22782 32.803199 
L 526.909091 33.642217 
L 530.181818 33.827659 
L 533.454545 34.053806 
L 536.727273 35.581702 
L 540 35.550591 
L 540.908117 36.083519 
L 543.272727 37.73002 
L 546.545455 38.647567 
L 547.921067 39.363839 
L 549.818182 40.38765 
L 553.090909 41.781692 
L 555.29982 42.644159 
L 556.363636 43.109167 
L 559.636364 44.037657 
L 562.909091 44.609224 
L 565.840043 45.924479 
L 564.564599 49.204798 
L 566.181818 50.825769 
L 567.880803 49.204798 
L 569.454545 46.434377 
L 572.689316 45.924479 
L 572.727273 45.917447 
L 572.742795 45.924479 
L 576 48.06116 
M 533.454545 40.706683 
L 534.856771 39.363839 
L 533.454545 36.625521 
L 532.11481 39.363839 
L 533.454545 40.706683 
z
M 497.454545 31.092941 
L 500.727273 31.136993 
L 502.337651 29.522879 
L 500.727273 26.613682 
L 497.454545 27.416893 
L 495.888118 29.522879 
L 497.454545 31.092941 
z
M 464.727273 21.217202 
L 466.294054 19.681919 
L 464.727273 17.723377 
L 463.195543 19.681919 
L 464.727273 21.217202 
z
" clip-path="url(#p237021a2b8)" style="fill: none"/>
    <path d="M 419.465088 -0 
L 422.181818 0.821123 
L 425.454545 0.686336 
L 428.243357 -0 
M 434.032342 -0 
L 435.272727 0.706153 
L 436.852003 1.476794 
M 453.470776 10.596701 
L 454.909091 10.951112 
L 458.181818 11.12655 
L 461.363227 13.12128 
L 461.454545 13.148915 
L 461.684056 13.12128 
L 463.209047 9.84096 
L 464.727273 9.438119 
L 466.165207 9.84096 
L 468 10.646193 
L 471.272727 12.025202 
L 472.845503 13.12128 
L 474.545455 14.285163 
L 477.818182 16.109092 
L 478.128134 16.401599 
L 481.090909 18.241374 
L 483.410765 19.681919 
L 484.363636 20.227706 
L 487.636364 21.122623 
L 490.909091 21.559122 
L 493.133953 22.962239 
L 494.181818 23.286668 
L 497.298427 22.962239 
L 497.454545 22.438315 
L 498.5385 19.681919 
L 500.727273 19.331658 
L 501.101391 19.681919 
L 504 21.679116 
L 506.451401 22.962239 
L 507.272727 23.530891 
L 510.545455 24.988959 
L 512.209052 26.242559 
L 513.818182 27.192723 
L 517.090909 28.808848 
L 517.862425 29.522879 
L 520.363636 30.770293 
L 523.636364 31.038442 
L 526.595238 32.803199 
L 526.909091 32.901409 
L 528.553844 32.803199 
L 530.181818 32.471409 
L 533.454545 31.949806 
L 534.892088 32.803199 
L 536.727273 34.08725 
L 540 34.656653 
L 542.4314 36.083519 
L 543.272727 36.669343 
L 546.545455 37.854404 
L 549.44435 39.363839 
L 549.818182 39.565583 
L 553.090909 41.068884 
L 556.363636 42.142507 
L 557.300971 42.644159 
L 559.636364 43.354458 
L 562.909091 43.601211 
L 566.181818 43.612291 
L 569.454545 44.986533 
L 572.727273 44.897489 
L 574.994222 45.924479 
L 576 46.584255 
M 566.181818 50.355428 
L 567.387825 49.204798 
L 566.181818 46.76875 
L 565.033852 49.204798 
L 566.181818 50.355428 
z
M 533.454545 40.205801 
L 534.33374 39.363839 
L 533.454545 37.646915 
L 532.614532 39.363839 
L 533.454545 40.205801 
z
M 497.454545 30.673945 
L 500.727273 30.706241 
L 501.907896 29.522879 
L 500.727273 27.390047 
L 497.454545 27.978909 
L 496.306144 29.522879 
L 497.454545 30.673945 
z
M 464.727273 20.807665 
L 465.876114 19.681919 
L 464.727273 18.245819 
L 463.604133 19.681919 
L 464.727273 20.807665 
z
M 458.181818 17.527345 
L 459.321609 16.401599 
L 458.181818 14.290602 
L 457.058678 16.401599 
L 458.181818 17.527345 
z
M 425.454545 7.747747 
L 428.727273 7.747747 
L 430.076371 6.56064 
L 428.727273 3.850375 
L 425.454545 4.69418 
L 424.270186 6.56064 
L 425.454545 7.747747 
z
" clip-path="url(#p237021a2b8)" style="fill: none"/>
    <path d="M 421.650754 -0 
L 422.181818 0.160512 
L 423.366723 0 
M 435.995856 -0 
L 438.545455 1.490774 
L 440.901416 3.28032 
L 441.818182 3.873234 
L 445.090909 5.527962 
L 446.135491 6.56064 
L 448.363636 7.913565 
L 451.636364 9.01944 
L 453.14226 9.84096 
L 454.909091 10.259228 
L 458.083731 9.84096 
L 458.181818 9.629396 
L 459.494821 6.56064 
L 461.454545 5.987603 
L 462.272558 6.56064 
L 464.727273 8.138137 
L 468 9.061327 
L 468.811047 9.84096 
L 471.272727 11.254761 
L 473.951018 13.12128 
L 474.545455 13.528264 
L 477.818182 15.065796 
L 479.233649 16.401599 
L 481.090909 17.55489 
L 484.363636 19.441972 
L 484.722823 19.681919 
L 487.636364 20.443043 
L 490.909091 20.278336 
L 493.238192 19.681919 
L 493.956845 16.401599 
L 494.181818 16.297223 
L 494.516378 16.401599 
L 497.454545 17.464289 
L 500.727273 18.055991 
L 502.463943 19.681919 
L 504 20.740292 
L 507.272727 21.917046 
L 508.430922 22.962239 
L 510.545455 23.970349 
L 513.560806 26.242559 
L 513.818182 26.394536 
L 517.090909 27.375654 
L 519.411 29.522879 
L 520.363636 29.997981 
L 523.636364 29.626446 
L 524.079403 29.522879 
L 526.909091 28.266527 
L 529.325134 29.522879 
L 530.181818 29.942895 
L 533.454545 30.68184 
L 536.727273 32.395678 
L 537.106766 32.803199 
L 540 33.762716 
L 543.272727 35.164678 
L 544.144653 36.083519 
L 546.545455 37.061241 
L 549.818182 38.163138 
L 550.968633 39.363839 
L 553.090909 40.356077 
L 556.363636 40.940317 
L 559.547258 42.644159 
L 559.636364 42.67126 
L 560.081062 42.662884 
M 566.181818 49.885086 
L 566.894847 49.204798 
L 566.181818 47.764531 
L 565.503105 49.204798 
L 566.181818 49.885086 
z
M 533.454545 39.70492 
L 533.81071 39.363839 
L 533.454545 38.668308 
L 533.114254 39.363839 
L 533.454545 39.70492 
z
M 497.454545 30.254949 
L 500.727273 30.275489 
L 501.478141 29.522879 
L 500.727273 28.166413 
L 497.454545 28.540925 
L 496.72417 29.522879 
L 497.454545 30.254949 
z
M 464.727273 20.398127 
L 465.458174 19.681919 
L 464.727273 18.768262 
L 464.012723 19.681919 
L 464.727273 20.398127 
z
M 458.181818 17.117807 
L 458.906962 16.401599 
L 458.181818 15.058567 
L 457.467268 16.401599 
L 458.181818 17.117807 
z
M 425.454545 7.331695 
L 428.727273 7.331695 
L 429.603545 6.56064 
L 428.727273 4.800257 
L 425.454545 5.348329 
L 424.685275 6.56064 
L 425.454545 7.331695 
z
" clip-path="url(#p237021a2b8)" style="fill: none"/>
    <path d="M 437.385222 -0 
L 438.545455 0.678399 
L 441.818182 2.799708 
L 442.316001 3.28032 
L 445.090909 4.276524 
L 447.401354 6.56064 
L 448.363636 7.144936 
L 451.636364 7.425045 
L 454.483406 6.56064 
L 454.909091 5.527968 
L 455.76413 3.28032 
L 456.814179 2.810722 
M 472.951881 11.276968 
L 474.545455 12.029218 
L 475.686362 13.12128 
L 477.818182 14.0225 
L 480.339164 16.401599 
L 481.090909 16.868405 
L 484.363636 17.704169 
L 487.324216 19.681919 
L 487.636364 19.763464 
L 488.236525 19.681919 
L 489.128685 16.401599 
L 489.810276 13.12128 
L 490.909091 12.215954 
L 492.042676 13.12128 
L 494.181818 14.083296 
L 497.454545 14.575151 
L 499.626716 16.401599 
L 500.727273 16.780324 
L 503.826496 19.681919 
L 504 19.801467 
L 507.272727 19.988946 
L 510.545455 22.300296 
L 513.818182 22.445955 
L 517.090909 21.834863 
L 520.285916 19.681919 
L 520.363636 19.653308 
L 520.483425 19.681919 
L 523.636364 21.144303 
L 526.909091 22.295042 
L 528.441215 22.962239 
L 530.181818 25.024676 
L 533.454545 25.96378 
L 534.219534 26.242559 
L 536.727273 29.443362 
L 537.071312 29.522879 
L 539.80226 32.803199 
L 540 32.868778 
L 543.272727 33.112264 
L 546.092269 36.083519 
L 546.545455 36.268078 
L 549.818182 36.571937 
L 552.493241 39.363839 
L 553.090909 39.64327 
L 556.363636 39.738128 
L 558.077728 39.363839 
L 559.636364 38.082344 
L 562.909091 37.820424 
L 564.686215 39.363839 
L 566.181818 39.905574 
L 569.454545 40.175604 
L 572.146555 42.644159 
L 572.727273 42.857574 
L 576 43.022985 
M 566.181818 49.414745 
L 566.401869 49.204798 
L 566.181818 48.760312 
L 565.972358 49.204798 
L 566.181818 49.414745 
z
M 497.454545 29.835953 
L 500.727273 29.844737 
L 501.048386 29.522879 
L 500.727273 28.942779 
L 497.454545 29.102941 
L 497.142196 29.522879 
L 497.454545 29.835953 
z
M 464.727273 19.988589 
L 465.040234 19.681919 
L 464.727273 19.290704 
L 464.421313 19.681919 
L 464.727273 19.988589 
z
M 458.181818 16.708269 
L 458.492314 16.401599 
L 458.181818 15.826532 
L 457.875858 16.401599 
L 458.181818 16.708269 
z
M 425.454545 6.915643 
L 428.727273 6.915643 
L 429.130719 6.56064 
L 428.727273 5.750139 
L 425.454545 6.002478 
L 425.100364 6.56064 
L 425.454545 6.915643 
z
" clip-path="url(#p237021a2b8)" style="fill: none"/>
    <path d="M 447.475787 -0 
L 448.363636 0.729405 
L 449.56876 -0 
M 457.820825 -0 
L 458.181818 0.031784 
L 461.454545 2.041971 
L 463.658206 3.28032 
L 464.727273 3.451974 
L 468 4.549662 
L 471.272727 6.461043 
L 472.621327 6.56064 
L 474.545455 7.396467 
L 477.818182 9.083712 
L 479.298513 9.84096 
L 481.090909 11.359654 
L 482.976329 9.84096 
L 484.363636 6.88475 
L 484.619685 6.56064 
L 487.636364 5.831955 
L 490.909091 6.263116 
L 491.473559 6.56064 
L 494.181818 8.933319 
L 497.454545 9.722535 
L 497.665252 9.84096 
L 500.727273 12.076421 
L 503.154903 13.12128 
L 504 13.851308 
L 507.272727 14.884608 
L 509.485481 16.401599 
L 510.545455 17.366232 
L 513.660797 16.401599 
L 513.818182 16.271032 
L 517.090909 15.564405 
L 519.472258 16.401599 
L 520.363636 16.783161 
L 521.516556 17.204075 
M 538.667978 25.365266 
L 539.933693 26.242559 
L 540 26.292328 
L 543.272727 26.583577 
L 546.545455 27.682163 
L 549.818182 28.665065 
L 553.090909 28.788821 
L 555.333636 29.522879 
L 556.363636 30.197259 
L 559.636364 31.200782 
L 562.909091 32.268849 
L 564.297298 32.803199 
L 566.181818 33.734115 
L 569.454545 34.625256 
L 572.727273 36.039025 
L 572.949402 36.083519 
L 576 36.711541 
" clip-path="url(#p237021a2b8)" style="fill: none"/>
    <path d="M 467.550929 -0 
L 468 0.315126 
L 471.272727 0.328898 
L 473.77371 -0 
M 482.473356 -0 
L 484.363636 1.129859 
L 487.636364 2.651733 
L 488.647767 3.28032 
L 490.909091 4.763029 
L 494.181818 6.486722 
L 494.301496 6.56064 
L 497.454545 8.332758 
L 500.138022 9.84096 
L 500.727273 10.271149 
L 504 11.163777 
L 507.272727 12.775241 
L 510.545455 11.36462 
L 513.818182 11.963016 
L 516.873911 13.12128 
L 517.090909 13.207159 
L 520.363636 13.953311 
L 523.636364 15.519799 
L 525.904353 16.401599 
L 526.909091 16.797218 
L 530.181818 18.299585 
L 533.454545 19.102673 
L 534.30005 19.40634 
M 552.32114 25.538835 
L 553.090909 25.800209 
L 554.646868 26.242559 
L 556.363636 26.794897 
L 559.636364 28.265022 
L 562.909091 29.288435 
L 563.771 29.522879 
L 566.181818 30.517935 
L 569.454545 31.768852 
L 572.727273 32.466768 
L 573.525612 32.803199 
L 576 34.079052 
" clip-path="url(#p237021a2b8)" style="fill: none"/>
    <path d="M 485.733305 -0 
L 487.636364 1.229847 
L 490.909091 3.259048 
L 490.943219 3.28032 
L 494.181818 4.959435 
L 496.774265 6.56064 
L 497.454545 6.94298 
L 500.727273 7.135997 
L 503.440545 6.56064 
L 504 6.455075 
L 504.33398 6.56064 
L 507.272727 7.491267 
L 510.545455 7.662989 
L 513.818182 9.482161 
L 517.090909 9.535835 
L 517.712319 9.84096 
L 520.363636 11.137742 
L 523.636364 12.70187 
L 524.55242 13.12128 
L 526.909091 14.07108 
L 530.181818 15.161342 
L 533.454545 16.356066 
L 533.595791 16.401599 
L 536.727273 17.36711 
L 540 18.453576 
L 543.272727 19.546011 
L 543.809568 19.681919 
L 546.545455 20.553371 
L 549.818182 22.022048 
L 552.77402 22.962239 
L 553.090909 23.089299 
L 556.363636 24.673862 
L 557.263365 25.029968 
M 575.281338 31.143563 
L 576 31.317478 
" clip-path="url(#p237021a2b8)" style="fill: none"/>
    <path d="M 488.122063 -0 
L 490.909091 1.422957 
L 493.666675 3.141759 
M 520.444383 7.903592 
L 523.636364 9.603842 
L 524.10473 9.84096 
L 526.909091 11.143016 
L 530.181818 12.215829 
L 533.009817 13.12128 
L 533.454545 13.263211 
L 536.727273 14.478043 
L 540 15.657946 
L 541.780154 16.401599 
L 543.272727 17.092577 
L 546.545455 18.379096 
L 549.460171 19.681919 
L 549.818182 19.871497 
L 553.090909 21.307165 
L 556.363636 22.68144 
L 556.77024 22.962239 
L 559.636364 24.243503 
L 562.909091 25.137191 
L 565.085303 26.242559 
L 566.181818 26.633993 
L 569.454545 26.857135 
L 572.727273 26.787899 
L 576 27.700663 
" clip-path="url(#p237021a2b8)" style="fill: none"/>
    <path d="M 512.575738 -0 
L 513.818182 0.79314 
L 517.090909 2.288002 
L 518.400453 3.28032 
L 520.363636 4.392471 
L 520.376466 4.398798 
M 546.108321 16.335645 
L 546.183417 16.401599 
L 546.545455 16.563799 
L 549.818182 16.856997 
L 553.090909 19.106623 
L 554.198795 19.681919 
L 556.363636 20.015555 
L 559.636364 21.397422 
L 562.909091 22.021689 
L 566.181818 21.777473 
L 569.454545 21.793683 
L 571.474968 22.962239 
L 572.727273 23.460616 
L 576 23.751575 
" clip-path="url(#p237021a2b8)" style="fill: none"/>
    <path d="M 529.721001 -0 
L 530.181818 0.222966 
L 533.454545 1.689319 
L 536.683953 3.28032 
L 536.727273 3.300689 
L 539.245536 4.255016 
M 566.288651 14.585987 
L 569.454545 15.901693 
L 571.151782 16.401599 
L 572.727273 16.6996 
L 576 17.504106 
" clip-path="url(#p237021a2b8)" style="fill: none"/>
    <path clip-path="url(#p237021a2b8)" style="fill: none"/>
    <path clip-path="url(#p237021a2b8)" style="fill: none"/>
    <path clip-path="url(#p237021a2b8)" style="fill: none"/>
    <path clip-path="url(#p237021a2b8)" style="fill: none"/>
    <path clip-path="url(#p237021a2b8)" style="fill: none"/>
    <path clip-path="url(#p237021a2b8)" style="fill: none"/>
    <path clip-path="url(#p237021a2b8)" style="fill: none"/>
    <path clip-path="url(#p237021a2b8)" style="fill: none"/>
    <path clip-path="url(#p237021a2b8)" style="fill: none"/>
    <path clip-path="url(#p237021a2b8)" style="fill: none"/>
    <path clip-path="url(#p237021a2b8)" style="fill: none"/>
    <path clip-path="url(#p237021a2b8)" style="fill: none"/>
    <path clip-path="url(#p237021a2b8)" style="fill: none"/>
    <path clip-path="url(#p237021a2b8)" style="fill: none"/>
    <path clip-path="url(#p237021a2b8)" style="fill: none"/>
    <path clip-path="url(#p237021a2b8)" style="fill: none"/>
    <path clip-path="url(#p237021a2b8)" style="fill: none"/>
    <path clip-path="url(#p237021a2b8)" style="fill: none"/>
    <path clip-path="url(#p237021a2b8)" style="fill: none"/>
    <path clip-path="url(#p237021a2b8)" style="fill: none"/>
    <path clip-path="url(#p237021a2b8)" style="fill: none"/>
    <path clip-path="url(#p237021a2b8)" style="fill: none"/>
    <path clip-path="url(#p237021a2b8)" style="fill: none"/>
    <path clip-path="url(#p237021a2b8)" style="fill: none"/>
    <path clip-path="url(#p237021a2b8)" style="fill: none"/>
    <path clip-path="url(#p237021a2b8)" style="fill: none"/>
   </g>
   <g id="text_1">
    <g clip-path="url(#p237021a2b8)">
     <!-- 0 -->
     <g style="opacity: 0" transform="translate(480.238054 24.62426) rotate(-338.263241) scale(0.12 -0.12)">
      <defs>
       <path id="DejaVuSans-30" d="M 2034 4250 
Q 1547 4250 1301 3770 
Q 1056 3291 1056 2328 
Q 1056 1369 1301 889 
Q 1547 409 2034 409 
Q 2525 409 2770 889 
Q 3016 1369 3016 2328 
Q 3016 3291 2770 3770 
Q 2525 4250 2034 4250 
z
M 2034 4750 
Q 2819 4750 3233 4129 
Q 3647 3509 3647 2328 
Q 3647 1150 3233 529 
Q 2819 -91 2034 -91 
Q 1250 -91 836 529 
Q 422 1150 422 2328 
Q 422 3509 836 4129 
Q 1250 4750 2034 4750 
z
" transform="scale(0.015625)"/>
      </defs>
      <use xlink:href="#DejaVuSans-30"/>
     </g>
    </g>
   </g>
   <g id="text_2">
    <g clip-path="url(#p237021a2b8)">
     <!-- 1 -->
     <g style="opacity: 0" transform="translate(515.572495 34.949813) rotate(-337.604719) scale(0.12 -0.12)">
      <defs>
       <path id="DejaVuSans-31" d="M 794 531 
L 1825 531 
L 1825 4091 
L 703 3866 
L 703 4441 
L 1819 4666 
L 2450 4666 
L 2450 531 
L 3481 531 
L 3481 0 
L 794 0 
L 794 531 
z
" transform="scale(0.015625)"/>
      </defs>
      <use xlink:href="#DejaVuSans-31"/>
     </g>
    </g>
   </g>
   <g id="text_3">
    <g clip-path="url(#p237021a2b8)">
     <!-- 2 -->
     <g style="opacity: 0" transform="translate(548.314569 44.145032) rotate(-338.125382) scale(0.12 -0.12)">
      <defs>
       <path id="DejaVuSans-32" d="M 1228 531 
L 3431 531 
L 3431 0 
L 469 0 
L 469 531 
Q 828 903 1448 1529 
Q 2069 2156 2228 2338 
Q 2531 2678 2651 2914 
Q 2772 3150 2772 3378 
Q 2772 3750 2511 3984 
Q 2250 4219 1831 4219 
Q 1534 4219 1204 4116 
Q 875 4013 500 3803 
L 500 4441 
Q 881 4594 1212 4672 
Q 1544 4750 1819 4750 
Q 2544 4750 2975 4387 
Q 3406 4025 3406 3419 
Q 3406 3131 3298 2873 
Q 3191 2616 2906 2266 
Q 2828 2175 2409 1742 
Q 1991 1309 1228 531 
z
" transform="scale(0.015625)"/>
      </defs>
      <use xlink:href="#DejaVuSans-32"/>
     </g>
    </g>
   </g>
   <g id="text_4">
    <g clip-path="url(#p237021a2b8)">
     <!-- 3 -->
     <g style="opacity: 0" transform="translate(497.196231 27.89056) rotate(-4.736498) scale(0.12 -0.12)">
      <defs>
       <path id="DejaVuSans-33" d="M 2597 2516 
Q 3050 2419 3304 2112 
Q 3559 1806 3559 1356 
Q 3559 666 3084 287 
Q 2609 -91 1734 -91 
Q 1441 -91 1130 -33 
Q 819 25 488 141 
L 488 750 
Q 750 597 1062 519 
Q 1375 441 1716 441 
Q 2309 441 2620 675 
Q 2931 909 2931 1356 
Q 2931 1769 2642 2001 
Q 2353 2234 1838 2234 
L 1294 2234 
L 1294 2753 
L 1863 2753 
Q 2328 2753 2575 2939 
Q 2822 3125 2822 3475 
Q 2822 3834 2567 4026 
Q 2313 4219 1838 4219 
Q 1578 4219 1281 4162 
Q 984 4106 628 3988 
L 628 4550 
Q 988 4650 1302 4700 
Q 1616 4750 1894 4750 
Q 2613 4750 3031 4423 
Q 3450 4097 3450 3541 
Q 3450 3153 3228 2886 
Q 3006 2619 2597 2516 
z
" transform="scale(0.015625)"/>
      </defs>
      <use xlink:href="#DejaVuSans-33"/>
     </g>
    </g>
   </g>
   <g id="text_5">
    <g clip-path="url(#p237021a2b8)">
     <!-- 4 -->
     <g style="opacity: 0" transform="translate(439.918936 7.389673) rotate(-328.50422) scale(0.12 -0.12)">
      <defs>
       <path id="DejaVuSans-34" d="M 2419 4116 
L 825 1625 
L 2419 1625 
L 2419 4116 
z
M 2253 4666 
L 3047 4666 
L 3047 1625 
L 3713 1625 
L 3713 1100 
L 3047 1100 
L 3047 0 
L 2419 0 
L 2419 1100 
L 313 1100 
L 313 1709 
L 2253 4666 
z
" transform="scale(0.015625)"/>
      </defs>
      <use xlink:href="#DejaVuSans-34"/>
     </g>
    </g>
   </g>
   <g id="text_6">
    <g clip-path="url(#p237021a2b8)">
     <!-- 5 -->
     <g style="opacity: 0" transform="translate(564.811377 44.948443) rotate(-346.190036) scale(0.12 -0.12)">
      <defs>
       <path id="DejaVuSans-35" d="M 691 4666 
L 3169 4666 
L 3169 4134 
L 1269 4134 
L 1269 2991 
Q 1406 3038 1543 3061 
Q 1681 3084 1819 3084 
Q 2600 3084 3056 2656 
Q 3513 2228 3513 1497 
Q 3513 744 3044 326 
Q 2575 -91 1722 -91 
Q 1428 -91 1123 -41 
Q 819 9 494 109 
L 494 744 
Q 775 591 1075 516 
Q 1375 441 1709 441 
Q 2250 441 2565 725 
Q 2881 1009 2881 1497 
Q 2881 1984 2565 2268 
Q 2250 2553 1709 2553 
Q 1456 2553 1204 2497 
Q 953 2441 691 2322 
L 691 4666 
z
" transform="scale(0.015625)"/>
      </defs>
      <use xlink:href="#DejaVuSans-35"/>
     </g>
    </g>
   </g>
   <g id="text_7">
    <g clip-path="url(#p237021a2b8)">
     <!-- 6 -->
     <g style="opacity: 0" transform="translate(459.78116 7.874329) rotate(-330.893983) scale(0.12 -0.12)">
      <defs>
       <path id="DejaVuSans-36" d="M 2113 2584 
Q 1688 2584 1439 2293 
Q 1191 2003 1191 1497 
Q 1191 994 1439 701 
Q 1688 409 2113 409 
Q 2538 409 2786 701 
Q 3034 994 3034 1497 
Q 3034 2003 2786 2293 
Q 2538 2584 2113 2584 
z
M 3366 4563 
L 3366 3988 
Q 3128 4100 2886 4159 
Q 2644 4219 2406 4219 
Q 1781 4219 1451 3797 
Q 1122 3375 1075 2522 
Q 1259 2794 1537 2939 
Q 1816 3084 2150 3084 
Q 2853 3084 3261 2657 
Q 3669 2231 3669 1497 
Q 3669 778 3244 343 
Q 2819 -91 2113 -91 
Q 1303 -91 875 529 
Q 447 1150 447 2328 
Q 447 3434 972 4092 
Q 1497 4750 2381 4750 
Q 2619 4750 2861 4703 
Q 3103 4656 3366 4563 
z
" transform="scale(0.015625)"/>
      </defs>
      <use xlink:href="#DejaVuSans-36"/>
     </g>
    </g>
   </g>
   <g id="text_8">
    <g clip-path="url(#p237021a2b8)">
     <!-- 7 -->
     <g style="opacity: 0" transform="translate(525.30485 22.479599) rotate(-334.250184) scale(0.12 -0.12)">
      <defs>
       <path id="DejaVuSans-37" d="M 525 4666 
L 3525 4666 
L 3525 4397 
L 1831 0 
L 1172 0 
L 2766 4134 
L 525 4134 
L 525 4666 
z
" transform="scale(0.015625)"/>
      </defs>
      <use xlink:href="#DejaVuSans-37"/>
     </g>
    </g>
   </g>
   <g id="text_9">
    <g clip-path="url(#p237021a2b8)">
     <!-- 8 -->
     <g style="opacity: 0" transform="translate(538.616228 24.516651) rotate(-341.923993) scale(0.12 -0.12)">
      <defs>
       <path id="DejaVuSans-38" d="M 2034 2216 
Q 1584 2216 1326 1975 
Q 1069 1734 1069 1313 
Q 1069 891 1326 650 
Q 1584 409 2034 409 
Q 2484 409 2743 651 
Q 3003 894 3003 1313 
Q 3003 1734 2745 1975 
Q 2488 2216 2034 2216 
z
M 1403 2484 
Q 997 2584 770 2862 
Q 544 3141 544 3541 
Q 544 4100 942 4425 
Q 1341 4750 2034 4750 
Q 2731 4750 3128 4425 
Q 3525 4100 3525 3541 
Q 3525 3141 3298 2862 
Q 3072 2584 2669 2484 
Q 3125 2378 3379 2068 
Q 3634 1759 3634 1313 
Q 3634 634 3220 271 
Q 2806 -91 2034 -91 
Q 1263 -91 848 271 
Q 434 634 434 1313 
Q 434 1759 690 2068 
Q 947 2378 1403 2484 
z
M 1172 3481 
Q 1172 3119 1398 2916 
Q 1625 2713 2034 2713 
Q 2441 2713 2670 2916 
Q 2900 3119 2900 3481 
Q 2900 3844 2670 4047 
Q 2441 4250 2034 4250 
Q 1625 4250 1398 4047 
Q 1172 3844 1172 3481 
z
" transform="scale(0.015625)"/>
      </defs>
      <use xlink:href="#DejaVuSans-38"/>
     </g>
    </g>
   </g>
   <g id="text_10">
    <g clip-path="url(#p237021a2b8)">
     <!-- 9 -->
     <g style="opacity: 0" transform="translate(561.487396 30.239015) rotate(-340.790637) scale(0.12 -0.12)">
      <defs>
       <path id="DejaVuSans-39" d="M 703 97 
L 703 672 
Q 941 559 1184 500 
Q 1428 441 1663 441 
Q 2288 441 2617 861 
Q 2947 1281 2994 2138 
Q 2813 1869 2534 1725 
Q 2256 1581 1919 1581 
Q 1219 1581 811 2004 
Q 403 2428 403 3163 
Q 403 3881 828 4315 
Q 1253 4750 1959 4750 
Q 2769 4750 3195 4129 
Q 3622 3509 3622 2328 
Q 3622 1225 3098 567 
Q 2575 -91 1691 -91 
Q 1453 -91 1209 -44 
Q 966 3 703 97 
z
M 1959 2075 
Q 2384 2075 2632 2365 
Q 2881 2656 2881 3163 
Q 2881 3666 2632 3958 
Q 2384 4250 1959 4250 
Q 1534 4250 1286 3958 
Q 1038 3666 1038 3163 
Q 1038 2656 1286 2365 
Q 1534 2075 1959 2075 
z
" transform="scale(0.015625)"/>
      </defs>
      <use xlink:href="#DejaVuSans-39"/>
     </g>
    </g>
   </g>
   <g id="text_11">
    <g clip-path="url(#p237021a2b8)">
     <!-- 10 -->
     <g style="opacity: 0" transform="translate(499.132603 3.839282) rotate(-348.558329) scale(0.12 -0.12)">
      <use xlink:href="#DejaVuSans-31"/>
      <use xlink:href="#DejaVuSans-30" transform="translate(63.623047 0)"/>
     </g>
    </g>
   </g>
   <g id="text_12">
    <g clip-path="url(#p237021a2b8)">
     <!-- 11 -->
     <g style="opacity: 0" transform="translate(525.136529 10.675776) rotate(-338.352148) scale(0.12 -0.12)">
      <use xlink:href="#DejaVuSans-31"/>
      <use xlink:href="#DejaVuSans-31" transform="translate(63.623047 0)"/>
     </g>
    </g>
   </g>
   <g id="text_13">
    <g clip-path="url(#p237021a2b8)">
     <!-- 12 -->
     <g style="opacity: 0" transform="translate(544.303035 10.13916) rotate(-338.607412) scale(0.12 -0.12)">
      <use xlink:href="#DejaVuSans-31"/>
      <use xlink:href="#DejaVuSans-32" transform="translate(63.623047 0)"/>
     </g>
    </g>
   </g>
   <g id="text_14">
    <g clip-path="url(#p237021a2b8)">
     <!-- 13 -->
     <g style="opacity: 0" transform="translate(554.647397 4.285143) rotate(-343.462332) scale(0.12 -0.12)">
      <use xlink:href="#DejaVuSans-31"/>
      <use xlink:href="#DejaVuSans-33" transform="translate(63.623047 0)"/>
     </g>
    </g>
   </g>
  </g>
 </g>
 <defs>
  <clipPath id="p237021a2b8">
   <rect x="0" y="0" width="576" height="816.799654"/>
  </clipPath>
 </defs>
</svg>
