<?xml version="1.0" encoding="utf-8" standalone="no"?>
<!DOCTYPE svg PUBLIC "-//W3C//DTD SVG 1.1//EN"
  "http://www.w3.org/Graphics/SVG/1.1/DTD/svg11.dtd">
<svg xmlns:xlink="http://www.w3.org/1999/xlink" width="576pt" height="815.085071pt" viewBox="0 0 576 815.085071" xmlns="http://www.w3.org/2000/svg" version="1.1">
 <metadata>
  <rdf:RDF xmlns:dc="http://purl.org/dc/elements/1.1/" xmlns:cc="http://creativecommons.org/ns#" xmlns:rdf="http://www.w3.org/1999/02/22-rdf-syntax-ns#">
   <cc:Work>
    <dc:type rdf:resource="http://purl.org/dc/dcmitype/StillImage"/>
    <dc:date>2025-07-25T22:45:02.661474</dc:date>
    <dc:format>image/svg+xml</dc:format>
    <dc:creator>
     <cc:Agent>
      <dc:title>Matplotlib v3.10.3, https://matplotlib.org/</dc:title>
     </cc:Agent>
    </dc:creator>
   </cc:Work>
  </rdf:RDF>
 </metadata>
 <defs>
  <style type="text/css">*{stroke-linejoin: round; stroke-linecap: butt}</style>
 </defs>
 <g id="figure_1">
  <g id="patch_1">
   <path d="M 0 815.085071 
L 576 815.085071 
L 576 0 
L 0 0 
L 0 815.085071 
z
" style="fill: none; opacity: 0"/>
  </g>
  <g id="axes_1">
   <g id="QuadContourSet_1">
    <path d="M 510.545455 41.417525 
L 512.706702 39.281208 
L 513.818182 36.990862 
L 517.090909 36.651502 
L 520.363636 36.088196 
L 523.636364 36.064956 
L 526.909091 36.839604 
L 530.181818 37.36561 
L 533.454545 37.664947 
L 536.727273 37.784093 
L 540 37.903239 
L 543.272727 38.022385 
L 546.545455 37.932498 
L 549.818182 37.765316 
L 553.090909 37.483581 
L 556.363636 37.732501 
L 559.636364 38.266991 
L 562.909091 38.146839 
L 566.181818 38.699759 
L 569.454545 39.024777 
L 572.727273 39.138196 
L 576 39.257086 
L 576 38.317224 
L 572.727273 38.378421 
L 569.454545 38.293771 
L 566.181818 37.951073 
L 562.909091 37.378553 
L 559.636364 37.121803 
L 556.363636 36.247435 
L 553.342482 36.007774 
L 553.090909 35.995999 
L 553.016476 36.007774 
L 549.818182 36.65113 
L 546.545455 37.044825 
L 543.272727 37.27229 
L 540 37.153144 
L 536.727273 37.033998 
L 533.454545 36.914852 
L 530.181818 36.541471 
L 527.534772 36.007774 
L 526.909091 35.890312 
L 523.636364 35.275908 
L 520.363636 35.120078 
L 517.090909 35.435064 
L 514.618164 36.007774 
L 513.818182 36.111033 
L 512.279731 39.281208 
L 510.545455 40.995479 
L 508.831554 39.281208 
L 510.545455 36.043016 
L 511.440873 36.007774 
L 510.545455 35.908769 
L 507.272727 35.700875 
L 504 35.597102 
L 500.727273 35.534893 
L 497.454545 35.475903 
L 494.181818 35.167629 
L 490.909091 34.567115 
L 487.636364 34.168763 
L 484.363636 33.905387 
L 481.090909 32.818405 
L 477.818182 33.221706 
L 474.545455 33.785469 
L 471.272727 34.109898 
L 468 34.320713 
L 464.727273 34.231474 
L 461.454545 34.112143 
L 458.181818 33.982522 
L 454.909091 33.432404 
L 451.636364 32.828221 
L 451.263915 32.73434 
L 448.363636 32.202764 
L 445.090909 31.954561 
L 441.818182 32.322911 
L 440.199089 32.73434 
L 438.545455 32.978883 
L 435.272727 33.112568 
L 432 32.994023 
L 428.727273 32.876063 
L 425.454545 32.748493 
L 425.107196 32.73434 
L 422.181818 32.615346 
L 418.909091 32.272222 
L 415.636364 31.66991 
L 412.363636 31.094811 
L 409.090909 30.979231 
L 405.818182 30.599162 
L 402.545455 29.992725 
L 399.272727 30.721038 
L 396 31.068923 
L 392.727273 31.272723 
L 389.454545 31.392774 
L 386.181818 31.274678 
L 382.909091 31.156581 
L 379.636364 30.593516 
L 376.363636 30.116909 
L 373.487671 29.460906 
L 373.090909 29.387821 
L 369.818182 28.784974 
L 366.545455 28.979738 
L 363.911266 29.460906 
L 363.272727 29.572388 
L 360 30.019691 
L 356.727273 30.094005 
L 353.454545 29.975783 
L 350.181818 29.857561 
L 346.909091 29.739339 
L 343.636364 29.466827 
L 343.605812 29.460906 
L 340.363636 28.84776 
L 337.090909 28.228836 
L 333.818182 27.862847 
L 330.545455 27.666496 
L 327.272727 26.834397 
L 324 27.241097 
L 320.727273 27.617893 
L 317.454545 27.827356 
L 314.181818 27.960701 
L 310.909091 27.936166 
L 307.636364 27.786346 
L 304.363636 27.286318 
L 301.090909 26.61106 
L 299.049716 26.187472 
L 297.818182 25.913078 
L 294.545455 25.256053 
L 291.272727 24.593877 
L 288 23.930375 
L 284.727273 23.240851 
L 283.111658 22.914038 
L 281.454545 22.560558 
L 278.181818 21.947311 
L 274.909091 21.279939 
L 271.636364 20.631355 
L 268.363636 19.90684 
L 267.515927 19.640604 
L 265.090909 18.878992 
L 261.818182 17.851144 
L 258.545455 16.826941 
L 257.09312 16.36717 
L 255.272727 15.767387 
L 252 14.778802 
L 248.727273 13.753567 
L 246.634542 13.093736 
L 245.454545 12.682188 
L 242.181818 11.721425 
L 238.909091 10.695728 
L 236.075986 9.820302 
L 235.636364 9.65747 
L 232.363636 8.671516 
L 229.090909 7.639175 
L 225.818182 6.607139 
L 225.628078 6.546868 
L 222.545455 5.558394 
L 219.272727 4.546465 
L 216 3.514384 
L 215.246553 3.273434 
L 212.727273 2.420838 
L 209.454545 1.470569 
L 206.181818 0.426917 
L 204.804805 0 
L 202.909091 0 
L 201.468674 0 
L 202.909091 0.451715 
L 206.181818 1.461223 
L 209.454545 2.488499 
L 212.027066 3.273434 
L 212.727273 3.509779 
L 216 4.534056 
L 219.272727 5.550187 
L 222.455898 6.546868 
L 222.545455 6.580427 
L 225.818182 7.612554 
L 229.090909 8.639496 
L 232.363636 9.671837 
L 232.843379 9.820302 
L 235.636364 10.683759 
L 238.909091 11.695028 
L 242.181818 12.710328 
L 243.435673 13.093736 
L 245.454545 13.717565 
L 248.727273 14.743762 
L 252 15.754754 
L 253.978897 16.36717 
L 255.272727 16.799503 
L 258.545455 17.804152 
L 261.818182 18.82061 
L 264.429091 19.640604 
L 265.090909 19.881737 
L 268.363636 20.876305 
L 271.636364 21.583859 
L 274.909091 22.232443 
L 278.181818 22.881656 
L 278.348394 22.914038 
L 281.454545 23.546971 
L 284.727273 24.188479 
L 288 24.859778 
L 291.272727 25.505744 
L 294.545455 26.160005 
L 294.678281 26.187472 
L 297.818182 26.85922 
L 301.090909 27.51822 
L 304.363636 28.19027 
L 307.636364 28.669374 
L 310.909091 28.819194 
L 314.181818 28.924192 
L 317.454545 29.004787 
L 320.727273 29.131389 
L 324 29.35913 
L 324.926892 29.460906 
L 324 29.49886 
L 322.050921 32.73434 
L 324 34.683841 
L 325.953622 32.73434 
L 327.272727 29.598774 
L 328.779174 29.460906 
L 330.545455 29.236972 
L 333.818182 28.867761 
L 337.090909 29.082035 
L 339.094294 29.460906 
L 340.363636 29.763145 
L 343.636364 30.341169 
L 346.909091 30.574208 
L 350.181818 30.692431 
L 353.454545 30.810653 
L 356.727273 30.928875 
L 360 30.918294 
L 363.272727 30.670532 
L 366.545455 30.281328 
L 369.818182 29.786719 
L 373.090909 30.721505 
L 376.363636 31.13322 
L 379.636364 31.414249 
L 382.909091 31.960413 
L 386.181818 32.078509 
L 389.454545 32.196606 
L 392.727273 32.23302 
L 396 32.280021 
L 399.272727 32.360251 
L 402.545455 32.528216 
L 404.356399 32.73434 
L 405.818182 32.81025 
L 406.244315 32.73434 
L 409.090909 32.199451 
L 412.363636 31.915665 
L 415.636364 32.477093 
L 417.034145 32.73434 
L 418.909091 33.17279 
L 422.181818 33.512735 
L 425.454545 33.614371 
L 428.727273 33.70805 
L 432 33.794672 
L 435.272727 33.903282 
L 438.545455 33.842427 
L 441.818182 33.503397 
L 445.090909 32.959252 
L 448.363636 33.1952 
L 451.636364 33.927833 
L 454.909091 34.26783 
L 458.181818 34.769629 
L 461.454545 34.895251 
L 464.727273 35.014582 
L 468 35.118043 
L 471.272727 35.076473 
L 474.545455 35.012499 
L 477.818182 34.901331 
L 481.090909 34.93567 
L 484.363636 35.363644 
L 487.636364 35.084517 
L 490.909091 35.353807 
L 494.181818 35.95432 
L 494.770931 36.007774 
L 497.454545 36.345082 
L 500.727273 36.494947 
L 504 36.630257 
L 507.272727 36.753032 
L 508.409599 39.281208 
z
M 322.526729 32.73434 
L 324 30.288704 
L 325.476705 32.73434 
L 324 34.20793 
z
" clip-path="url(#pd105d5ed65)" style="fill: #f5f9fe; fill-opacity: 0.9"/>
    <path d="M 510.545455 40.995479 
L 512.279731 39.281208 
L 513.818182 36.111033 
L 514.618164 36.007774 
L 517.090909 35.435064 
L 520.363636 35.120078 
L 523.636364 35.275908 
L 526.909091 35.890312 
L 527.534772 36.007774 
L 530.181818 36.541471 
L 533.454545 36.914852 
L 536.727273 37.033998 
L 540 37.153144 
L 543.272727 37.27229 
L 546.545455 37.044825 
L 549.818182 36.65113 
L 553.016476 36.007774 
L 553.090909 35.995999 
L 553.342482 36.007774 
L 556.363636 36.247435 
L 559.636364 37.121803 
L 562.909091 37.378553 
L 566.181818 37.951073 
L 569.454545 38.293771 
L 572.727273 38.378421 
L 576 38.317224 
L 576 37.377363 
L 572.727273 37.618645 
L 569.454545 37.562764 
L 566.181818 37.202388 
L 562.909091 36.610267 
L 559.746104 36.007774 
L 559.636364 35.982032 
L 556.363636 35.37539 
L 553.090909 35.11973 
L 549.818182 35.41495 
L 547.477551 36.007774 
L 546.545455 36.157153 
L 543.272727 36.522195 
L 540 36.403049 
L 536.727273 36.283903 
L 533.454545 36.164757 
L 532.235164 36.007774 
L 530.181818 35.688565 
L 526.909091 35.122931 
L 523.636364 34.508527 
L 520.363636 34.170096 
L 517.090909 33.85634 
L 514.185856 32.73434 
L 513.818182 32.655693 
L 513.237903 32.73434 
L 510.545455 33.669086 
L 507.272727 34.209422 
L 504 34.479137 
L 500.727273 34.640821 
L 497.454545 34.705603 
L 494.181818 34.380937 
L 490.909091 33.780424 
L 487.636364 33.253009 
L 485.208058 32.73434 
L 484.363636 32.552412 
L 481.090909 31.978884 
L 477.818182 31.996036 
L 474.545455 32.476133 
L 473.717248 32.73434 
L 471.272727 33.143323 
L 468 33.523383 
L 464.727273 33.448365 
L 461.454545 33.329034 
L 458.181818 33.195414 
L 455.62637 32.73434 
L 454.909091 32.567945 
L 451.636364 31.98982 
L 448.363636 31.403194 
L 445.090909 31.023732 
L 441.818182 30.839051 
L 438.545455 30.113693 
L 435.272727 30.896039 
L 432 31.38849 
L 428.727273 31.582502 
L 425.454545 31.686279 
L 422.181818 31.750896 
L 418.909091 31.46504 
L 415.636364 30.862728 
L 412.363636 30.273957 
L 409.090909 29.759011 
L 408.019411 29.460906 
L 405.818182 29.011999 
L 402.545455 28.741854 
L 399.272727 29.130677 
L 397.918781 29.460906 
L 396 29.857824 
L 392.727273 30.312426 
L 389.454545 30.588942 
L 386.181818 30.470846 
L 382.909091 30.352749 
L 379.636364 29.772782 
L 377.943256 29.460906 
L 376.363636 29.104066 
L 373.090909 28.567088 
L 369.818182 27.964241 
L 366.545455 27.830814 
L 363.272727 27.616124 
L 360 27.382753 
L 356.727273 28.653231 
L 353.454545 28.696537 
L 350.181818 28.714952 
L 346.909091 28.725146 
L 343.636364 28.540269 
L 340.363636 27.994561 
L 337.090909 27.375637 
L 333.818182 26.857934 
L 330.808171 26.187472 
L 330.545455 26.122268 
L 327.272727 25.492056 
L 324 25.606211 
L 320.727273 26.07904 
L 320.325979 26.187472 
L 317.454545 26.649926 
L 314.181818 26.99721 
L 310.909091 27.053138 
L 307.636364 26.903318 
L 304.363636 26.382365 
L 303.42115 26.187472 
L 301.090909 25.565922 
L 297.818182 24.939093 
L 294.545455 24.3521 
L 291.272727 23.68201 
L 288 23.000971 
L 287.591113 22.914038 
L 284.727273 22.140506 
L 281.454545 21.561272 
L 278.181818 21.012966 
L 274.909091 20.327435 
L 271.636364 19.678851 
L 271.464702 19.640604 
L 268.363636 18.749392 
L 265.090909 17.909527 
L 261.818182 16.881679 
L 260.179955 16.36717 
L 258.545455 15.671721 
L 255.272727 14.750337 
L 252 13.802849 
L 249.757149 13.093736 
L 248.727273 12.614833 
L 245.454545 11.586868 
L 242.181818 10.732523 
L 239.296783 9.820302 
L 238.909091 9.622826 
L 235.636364 8.459626 
L 232.363636 7.671195 
L 229.090909 6.638854 
L 228.799296 6.546868 
L 225.818182 5.355285 
L 222.545455 4.541511 
L 219.272727 3.542743 
L 218.421855 3.273434 
L 216 2.232885 
L 212.727273 1.341758 
L 209.454545 0.452638 
L 208.044275 0 
L 206.181818 0 
L 204.804805 0 
L 206.181818 0.426917 
L 209.454545 1.470569 
L 212.727273 2.420838 
L 215.246553 3.273434 
L 216 3.514384 
L 219.272727 4.546465 
L 222.545455 5.558394 
L 225.628078 6.546868 
L 225.818182 6.607139 
L 229.090909 7.639175 
L 232.363636 8.671516 
L 235.636364 9.65747 
L 236.075986 9.820302 
L 238.909091 10.695728 
L 242.181818 11.721425 
L 245.454545 12.682188 
L 246.634542 13.093736 
L 248.727273 13.753567 
L 252 14.778802 
L 255.272727 15.767387 
L 257.09312 16.36717 
L 258.545455 16.826941 
L 261.818182 17.851144 
L 265.090909 18.878992 
L 267.515927 19.640604 
L 268.363636 19.90684 
L 271.636364 20.631355 
L 274.909091 21.279939 
L 278.181818 21.947311 
L 281.454545 22.560558 
L 283.111658 22.914038 
L 284.727273 23.240851 
L 288 23.930375 
L 291.272727 24.593877 
L 294.545455 25.256053 
L 297.818182 25.913078 
L 299.049716 26.187472 
L 301.090909 26.61106 
L 304.363636 27.286318 
L 307.636364 27.786346 
L 310.909091 27.936166 
L 314.181818 27.960701 
L 317.454545 27.827356 
L 320.727273 27.617893 
L 324 27.241097 
L 327.272727 26.834397 
L 330.545455 27.666496 
L 333.818182 27.862847 
L 337.090909 28.228836 
L 340.363636 28.84776 
L 343.605812 29.460906 
L 343.636364 29.466827 
L 346.909091 29.739339 
L 350.181818 29.857561 
L 353.454545 29.975783 
L 356.727273 30.094005 
L 360 30.019691 
L 363.272727 29.572388 
L 363.911266 29.460906 
L 366.545455 28.979738 
L 369.818182 28.784974 
L 373.090909 29.387821 
L 373.487671 29.460906 
L 376.363636 30.116909 
L 379.636364 30.593516 
L 382.909091 31.156581 
L 386.181818 31.274678 
L 389.454545 31.392774 
L 392.727273 31.272723 
L 396 31.068923 
L 399.272727 30.721038 
L 402.545455 29.992725 
L 405.818182 30.599162 
L 409.090909 30.979231 
L 412.363636 31.094811 
L 415.636364 31.66991 
L 418.909091 32.272222 
L 422.181818 32.615346 
L 425.107196 32.73434 
L 425.454545 32.748493 
L 428.727273 32.876063 
L 432 32.994023 
L 435.272727 33.112568 
L 438.545455 32.978883 
L 440.199089 32.73434 
L 441.818182 32.322911 
L 445.090909 31.954561 
L 448.363636 32.202764 
L 451.263915 32.73434 
L 451.636364 32.828221 
L 454.909091 33.432404 
L 458.181818 33.982522 
L 461.454545 34.112143 
L 464.727273 34.231474 
L 468 34.320713 
L 471.272727 34.109898 
L 474.545455 33.785469 
L 477.818182 33.221706 
L 481.090909 32.818405 
L 484.363636 33.905387 
L 487.636364 34.168763 
L 490.909091 34.567115 
L 494.181818 35.167629 
L 497.454545 35.475903 
L 500.727273 35.534893 
L 504 35.597102 
L 507.272727 35.700875 
L 510.545455 35.908769 
L 511.440873 36.007774 
L 510.545455 36.043016 
L 508.831554 39.281208 
z
M 509.253509 39.281208 
L 510.545455 36.840245 
L 511.852759 39.281208 
L 510.545455 40.573433 
z
M 324 34.20793 
L 325.476705 32.73434 
L 324 30.288704 
L 322.526729 32.73434 
z
M 323.002537 32.73434 
L 324 31.078547 
L 324.999788 32.73434 
L 324 33.732019 
z
" clip-path="url(#pd105d5ed65)" style="fill: #eff6fc; fill-opacity: 0.9"/>
    <path d="M 510.545455 40.573433 
L 511.852759 39.281208 
L 510.545455 36.840245 
L 509.253509 39.281208 
z
M 509.675464 39.281208 
L 510.545455 37.637474 
L 511.425788 39.281208 
L 510.545455 40.151387 
z
M 533.454545 36.164757 
L 536.727273 36.283903 
L 540 36.403049 
L 543.272727 36.522195 
L 546.545455 36.157153 
L 547.477551 36.007774 
L 549.818182 35.41495 
L 553.090909 35.11973 
L 556.363636 35.37539 
L 559.636364 35.982032 
L 559.746104 36.007774 
L 562.909091 36.610267 
L 566.181818 37.202388 
L 569.454545 37.562764 
L 572.727273 37.618645 
L 576 37.377363 
L 576 36.437501 
L 572.727273 36.85887 
L 569.454545 36.831758 
L 566.181818 36.453702 
L 563.779479 36.007774 
L 562.909091 35.735198 
L 559.636364 35.03592 
L 556.363636 34.621313 
L 553.090909 34.243461 
L 549.818182 34.012077 
L 546.545455 33.083753 
L 543.272727 34.661252 
L 540 34.984694 
L 536.727273 35.093852 
L 533.454545 35.148687 
L 530.181818 34.782799 
L 526.909091 34.355549 
L 523.636364 33.741145 
L 520.363636 33.220114 
L 518.273446 32.73434 
L 517.090909 32.406675 
L 513.818182 31.781343 
L 510.545455 32.089513 
L 507.272727 32.711677 
L 507.209887 32.73434 
L 504 33.361172 
L 500.727273 33.74675 
L 497.454545 33.935304 
L 494.181818 33.594245 
L 490.909091 32.993732 
L 489.495435 32.73434 
L 487.636364 32.214515 
L 484.363636 31.628707 
L 481.090909 31.192192 
L 477.818182 30.95593 
L 474.545455 30.674962 
L 471.272727 29.581363 
L 468 32.677533 
L 464.727273 32.502062 
L 461.454545 32.332938 
L 458.181818 32.209369 
L 454.909091 31.55594 
L 451.636364 31.175803 
L 448.363636 30.603623 
L 445.090909 30.092902 
L 442.128975 29.460906 
L 441.818182 29.36497 
L 438.545455 28.62796 
L 435.272727 28.824047 
L 432 29.402326 
L 431.811437 29.460906 
L 428.727273 30.194172 
L 425.454545 30.620803 
L 422.181818 30.886447 
L 418.909091 30.657857 
L 415.636364 30.055546 
L 412.405325 29.460906 
L 412.363636 29.446076 
L 409.090909 28.598708 
L 405.818182 28.117558 
L 402.545455 27.831949 
L 399.272727 27.702711 
L 396 27.231736 
L 392.727273 28.76145 
L 392.009663 29.460906 
L 389.454545 29.785111 
L 386.181818 29.667014 
L 382.909091 29.548918 
L 382.417886 29.460906 
L 379.636364 28.664192 
L 376.363636 28.097539 
L 373.090909 27.746354 
L 369.818182 27.143507 
L 366.545455 26.681891 
L 364.628073 26.187472 
L 363.272727 25.784626 
L 360 25.330102 
L 356.727273 25.84105 
L 355.078225 26.187472 
L 353.454545 26.702276 
L 350.181818 27.293791 
L 346.909091 27.621224 
L 343.636364 27.613356 
L 340.363636 27.141362 
L 337.090909 26.522438 
L 335.319689 26.187472 
L 333.818182 25.682663 
L 330.545455 25.002553 
L 327.272727 24.604648 
L 324 24.449579 
L 320.727273 24.103605 
L 317.454545 23.518406 
L 314.181818 25.486048 
L 310.909091 26.12632 
L 307.636364 25.816317 
L 304.363636 25.018552 
L 301.090909 24.399921 
L 297.818182 23.965108 
L 294.545455 23.448148 
L 291.962548 22.914038 
L 291.272727 22.603876 
L 288 21.576774 
L 284.727273 20.959767 
L 281.454545 20.561986 
L 278.181818 20.078621 
L 276.129917 19.640604 
L 274.909091 19.080273 
L 271.636364 18.15515 
L 268.363636 17.520777 
L 265.090909 16.940061 
L 263.266791 16.36717 
L 261.818182 15.47243 
L 258.545455 14.358332 
L 255.272727 13.733287 
L 252.991761 13.093736 
L 252 12.517907 
L 248.727273 11.179423 
L 245.454545 10.491549 
L 242.549407 9.820302 
L 242.181818 9.631219 
L 238.909091 8.029771 
L 235.636364 7.261783 
L 232.363636 6.670873 
L 231.970515 6.546868 
L 229.090909 4.950239 
L 225.818182 4.087715 
L 222.545455 3.524628 
L 221.719431 3.273434 
L 219.272727 1.91234 
L 216 0.870372 
L 212.727273 0.262678 
L 211.72989 0 
L 209.454545 0 
L 208.044275 0 
L 209.454545 0.452638 
L 212.727273 1.341758 
L 216 2.232885 
L 218.421855 3.273434 
L 219.272727 3.542743 
L 222.545455 4.541511 
L 225.818182 5.355285 
L 228.799296 6.546868 
L 229.090909 6.638854 
L 232.363636 7.671195 
L 235.636364 8.459626 
L 238.909091 9.622826 
L 239.296783 9.820302 
L 242.181818 10.732523 
L 245.454545 11.586868 
L 248.727273 12.614833 
L 249.757149 13.093736 
L 252 13.802849 
L 255.272727 14.750337 
L 258.545455 15.671721 
L 260.179955 16.36717 
L 261.818182 16.881679 
L 265.090909 17.909527 
L 268.363636 18.749392 
L 271.464702 19.640604 
L 271.636364 19.678851 
L 274.909091 20.327435 
L 278.181818 21.012966 
L 281.454545 21.561272 
L 284.727273 22.140506 
L 287.591113 22.914038 
L 288 23.000971 
L 291.272727 23.68201 
L 294.545455 24.3521 
L 297.818182 24.939093 
L 301.090909 25.565922 
L 303.42115 26.187472 
L 304.363636 26.382365 
L 307.636364 26.903318 
L 310.909091 27.053138 
L 314.181818 26.99721 
L 317.454545 26.649926 
L 320.325979 26.187472 
L 320.727273 26.07904 
L 324 25.606211 
L 327.272727 25.492056 
L 330.545455 26.122268 
L 330.808171 26.187472 
L 333.818182 26.857934 
L 337.090909 27.375637 
L 340.363636 27.994561 
L 343.636364 28.540269 
L 346.909091 28.725146 
L 350.181818 28.714952 
L 353.454545 28.696537 
L 356.727273 28.653231 
L 360 27.382753 
L 363.272727 27.616124 
L 366.545455 27.830814 
L 369.818182 27.964241 
L 373.090909 28.567088 
L 376.363636 29.104066 
L 377.943256 29.460906 
L 379.636364 29.772782 
L 382.909091 30.352749 
L 386.181818 30.470846 
L 389.454545 30.588942 
L 392.727273 30.312426 
L 396 29.857824 
L 397.918781 29.460906 
L 399.272727 29.130677 
L 402.545455 28.741854 
L 405.818182 29.011999 
L 408.019411 29.460906 
L 409.090909 29.759011 
L 412.363636 30.273957 
L 415.636364 30.862728 
L 418.909091 31.46504 
L 422.181818 31.750896 
L 425.454545 31.686279 
L 428.727273 31.582502 
L 432 31.38849 
L 435.272727 30.896039 
L 438.545455 30.113693 
L 441.818182 30.839051 
L 445.090909 31.023732 
L 448.363636 31.403194 
L 451.636364 31.98982 
L 454.909091 32.567945 
L 455.62637 32.73434 
L 458.181818 33.195414 
L 461.454545 33.329034 
L 464.727273 33.448365 
L 468 33.523383 
L 471.272727 33.143323 
L 473.717248 32.73434 
L 474.545455 32.476133 
L 477.818182 31.996036 
L 481.090909 31.978884 
L 484.363636 32.552412 
L 485.208058 32.73434 
L 487.636364 33.253009 
L 490.909091 33.780424 
L 494.181818 34.380937 
L 497.454545 34.705603 
L 500.727273 34.640821 
L 504 34.479137 
L 507.272727 34.209422 
L 510.545455 33.669086 
L 513.237903 32.73434 
L 513.818182 32.655693 
L 514.185856 32.73434 
L 517.090909 33.85634 
L 520.363636 34.170096 
L 523.636364 34.508527 
L 526.909091 35.122931 
L 530.181818 35.688565 
L 532.235164 36.007774 
z
M 324 33.732019 
L 324.999788 32.73434 
L 324 31.078547 
L 323.002537 32.73434 
z
M 323.478345 32.73434 
L 324 31.868391 
L 324.522871 32.73434 
L 324 33.256108 
z
" clip-path="url(#pd105d5ed65)" style="fill: #eaf3fb; fill-opacity: 0.9"/>
    <path d="M 510.545455 40.151387 
L 511.425788 39.281208 
L 510.545455 37.637474 
L 509.675464 39.281208 
z
M 510.097419 39.281208 
L 510.545455 38.434703 
L 510.998817 39.281208 
L 510.545455 39.729341 
z
M 566.181818 36.453702 
L 569.454545 36.831758 
L 572.727273 36.85887 
L 576 36.437501 
L 576 36.007774 
L 576 32.73434 
L 576 32.383756 
L 575.06949 32.73434 
L 573.320605 36.007774 
L 572.727273 36.099095 
L 569.454545 36.100752 
L 568.671473 36.007774 
L 566.181818 35.249298 
L 562.909091 34.472084 
L 559.636364 34.089808 
L 556.363636 33.867236 
L 553.090909 33.367192 
L 550.17796 32.73434 
L 549.818182 32.580072 
L 546.545455 31.671522 
L 543.272727 32.011749 
L 540.224201 32.73434 
L 540 32.821885 
L 536.727273 33.647485 
L 533.454545 34.062218 
L 530.181818 33.877033 
L 526.909091 33.588167 
L 523.636364 32.973763 
L 522.361036 32.73434 
L 520.363636 31.948873 
L 517.090909 31.274056 
L 513.818182 30.906993 
L 510.545455 30.982787 
L 507.272727 30.647 
L 504 30.476056 
L 501.485005 32.73434 
L 500.727273 32.852678 
L 497.454545 33.165005 
L 494.181818 32.807554 
L 493.782812 32.73434 
L 490.909091 31.657575 
L 487.636364 31.015698 
L 484.363636 30.705002 
L 481.090909 30.405501 
L 477.818182 29.915825 
L 475.942979 29.460906 
L 474.545455 28.913386 
L 471.272727 28.253205 
L 468 28.829768 
L 465.622759 29.460906 
L 464.727273 29.869029 
L 461.454545 30.66459 
L 458.181818 30.941991 
L 454.909091 30.543934 
L 451.636364 30.361786 
L 448.363636 29.804053 
L 446.49143 29.460906 
L 445.090909 28.817569 
L 441.818182 28.018365 
L 438.545455 27.613961 
L 435.272727 27.749628 
L 432 27.588216 
L 428.727273 26.720506 
L 425.972027 29.460906 
L 425.454545 29.555327 
L 422.181818 30.021998 
L 418.909091 29.850675 
L 416.79124 29.460906 
L 415.636364 28.864682 
L 412.363636 27.885832 
L 409.090909 27.457774 
L 405.818182 27.223117 
L 402.545455 26.922044 
L 399.272727 26.274744 
L 399.004677 26.187472 
L 396 25.105991 
L 392.727273 25.240658 
L 389.454545 26.134801 
L 389.313085 26.187472 
L 386.181818 27.556918 
L 382.909091 27.925487 
L 379.636364 27.379176 
L 376.363636 27.091012 
L 373.090909 26.925621 
L 369.818182 26.322774 
L 369.083658 26.187472 
L 366.545455 25.090409 
L 363.272727 24.460303 
L 360 24.234412 
L 356.727273 24.519713 
L 353.454545 24.201074 
L 350.181818 24.970027 
L 348.788368 26.187472 
L 346.909091 26.517301 
L 343.636364 26.686442 
L 340.363636 26.288163 
L 339.831207 26.187472 
L 337.090909 24.84137 
L 333.818182 24.165882 
L 330.545455 23.882838 
L 327.272727 23.71724 
L 324 23.292946 
L 322.522047 22.914038 
L 320.727273 22.075641 
L 317.454545 21.542033 
L 314.181818 22.091053 
L 311.148954 22.914038 
L 310.909091 23.016083 
L 307.636364 23.855933 
L 304.363636 23.52834 
L 301.090909 23.233919 
L 297.818182 22.991123 
L 297.287718 22.914038 
L 294.545455 21.661871 
L 291.272727 20.638356 
L 288 20.10152 
L 284.727273 19.779029 
L 282.76166 19.640604 
L 281.454545 19.328959 
L 278.181818 18.025946 
L 274.909091 17.071345 
L 271.636364 16.607553 
L 269.28704 16.36717 
L 268.363636 16.120468 
L 265.090909 14.891445 
L 261.818182 13.565832 
L 258.97242 13.093736 
L 258.545455 12.949671 
L 255.272727 11.783683 
L 252 10.411839 
L 249.248015 9.820302 
L 248.727273 9.630804 
L 245.454545 8.535021 
L 242.181818 7.192756 
L 239.586574 6.546868 
L 238.909091 6.317327 
L 235.636364 5.20848 
L 232.363636 4.020666 
L 229.587552 3.273434 
L 229.090909 3.120281 
L 225.818182 2.098838 
L 222.545455 1.004814 
L 219.272727 0.052133 
L 219.037083 0 
L 216 0 
L 212.727273 0 
L 211.72989 0 
L 212.727273 0.262678 
L 216 0.870372 
L 219.272727 1.91234 
L 221.719431 3.273434 
L 222.545455 3.524628 
L 225.818182 4.087715 
L 229.090909 4.950239 
L 231.970515 6.546868 
L 232.363636 6.670873 
L 235.636364 7.261783 
L 238.909091 8.029771 
L 242.181818 9.631219 
L 242.549407 9.820302 
L 245.454545 10.491549 
L 248.727273 11.179423 
L 252 12.517907 
L 252.991761 13.093736 
L 255.272727 13.733287 
L 258.545455 14.358332 
L 261.818182 15.47243 
L 263.266791 16.36717 
L 265.090909 16.940061 
L 268.363636 17.520777 
L 271.636364 18.15515 
L 274.909091 19.080273 
L 276.129917 19.640604 
L 278.181818 20.078621 
L 281.454545 20.561986 
L 284.727273 20.959767 
L 288 21.576774 
L 291.272727 22.603876 
L 291.962548 22.914038 
L 294.545455 23.448148 
L 297.818182 23.965108 
L 301.090909 24.399921 
L 304.363636 25.018552 
L 307.636364 25.816317 
L 310.909091 26.12632 
L 314.181818 25.486048 
L 317.454545 23.518406 
L 320.727273 24.103605 
L 324 24.449579 
L 327.272727 24.604648 
L 330.545455 25.002553 
L 333.818182 25.682663 
L 335.319689 26.187472 
L 337.090909 26.522438 
L 340.363636 27.141362 
L 343.636364 27.613356 
L 346.909091 27.621224 
L 350.181818 27.293791 
L 353.454545 26.702276 
L 355.078225 26.187472 
L 356.727273 25.84105 
L 360 25.330102 
L 363.272727 25.784626 
L 364.628073 26.187472 
L 366.545455 26.681891 
L 369.818182 27.143507 
L 373.090909 27.746354 
L 376.363636 28.097539 
L 379.636364 28.664192 
L 382.417886 29.460906 
L 382.909091 29.548918 
L 386.181818 29.667014 
L 389.454545 29.785111 
L 392.009663 29.460906 
L 392.727273 28.76145 
L 396 27.231736 
L 399.272727 27.702711 
L 402.545455 27.831949 
L 405.818182 28.117558 
L 409.090909 28.598708 
L 412.363636 29.446076 
L 412.405325 29.460906 
L 415.636364 30.055546 
L 418.909091 30.657857 
L 422.181818 30.886447 
L 425.454545 30.620803 
L 428.727273 30.194172 
L 431.811437 29.460906 
L 432 29.402326 
L 435.272727 28.824047 
L 438.545455 28.62796 
L 441.818182 29.36497 
L 442.128975 29.460906 
L 445.090909 30.092902 
L 448.363636 30.603623 
L 451.636364 31.175803 
L 454.909091 31.55594 
L 458.181818 32.209369 
L 461.454545 32.332938 
L 464.727273 32.502062 
L 468 32.677533 
L 471.272727 29.581363 
L 474.545455 30.674962 
L 477.818182 30.95593 
L 481.090909 31.192192 
L 484.363636 31.628707 
L 487.636364 32.214515 
L 489.495435 32.73434 
L 490.909091 32.993732 
L 494.181818 33.594245 
L 497.454545 33.935304 
L 500.727273 33.74675 
L 504 33.361172 
L 507.209887 32.73434 
L 507.272727 32.711677 
L 510.545455 32.089513 
L 513.818182 31.781343 
L 517.090909 32.406675 
L 518.273446 32.73434 
L 520.363636 33.220114 
L 523.636364 33.741145 
L 526.909091 34.355549 
L 530.181818 34.782799 
L 533.454545 35.148687 
L 536.727273 35.093852 
L 540 34.984694 
L 543.272727 34.661252 
L 546.545455 33.083753 
L 549.818182 34.012077 
L 553.090909 34.243461 
L 556.363636 34.621313 
L 559.636364 35.03592 
L 562.909091 35.735198 
L 563.779479 36.007774 
z
M 324 33.256108 
L 324.522871 32.73434 
L 324 31.868391 
L 323.478345 32.73434 
z
M 323.954153 32.73434 
L 324 32.658234 
L 324.045954 32.73434 
L 324 32.780197 
z
" clip-path="url(#pd105d5ed65)" style="fill: #e5eff9; fill-opacity: 0.9"/>
    <path d="M 510.545455 39.729341 
L 510.998817 39.281208 
L 510.545455 38.434703 
L 510.097419 39.281208 
z
M 510.519374 39.281208 
L 510.545455 39.231932 
L 510.571845 39.281208 
L 510.545455 39.307295 
z
M 569.454545 36.100752 
L 572.727273 36.099095 
L 573.320605 36.007774 
L 575.06949 32.73434 
L 576 32.383756 
L 576 30.523867 
L 572.727273 31.159243 
L 570.133028 32.73434 
L 569.454545 33.179685 
L 566.181818 33.373669 
L 562.909091 33.208969 
L 559.636364 33.143696 
L 556.363636 33.113158 
L 554.256235 32.73434 
L 553.090909 31.835485 
L 549.818182 30.850608 
L 546.545455 30.491415 
L 543.272727 30.698858 
L 540 30.997415 
L 536.727273 30.986572 
L 534.685276 32.73434 
L 533.454545 32.97575 
L 530.181818 32.971267 
L 526.909091 32.820785 
L 526.448625 32.73434 
L 523.636364 31.003433 
L 520.363636 30.341451 
L 517.090909 30.141438 
L 513.818182 30.032643 
L 510.545455 29.876061 
L 509.01212 29.460906 
L 507.272727 28.411373 
L 504 27.965954 
L 500.727273 28.850809 
L 499.405665 29.460906 
L 497.454545 30.888045 
L 494.181818 30.580273 
L 490.909091 30.051121 
L 487.636364 29.816881 
L 484.363636 29.781296 
L 481.090909 29.618809 
L 480.230357 29.460906 
L 477.818182 27.839059 
L 474.545455 27.233682 
L 471.272727 27.018287 
L 468 27.295943 
L 464.727273 27.470985 
L 461.454545 27.938632 
L 459.415997 29.460906 
L 458.181818 29.674612 
L 454.909091 29.531928 
L 451.636364 29.547769 
L 451.120931 29.460906 
L 448.363636 27.488413 
L 445.090909 26.813651 
L 441.818182 26.671759 
L 438.545455 26.599961 
L 435.272727 26.675208 
L 433.093741 26.187472 
L 432 25.299957 
L 428.727273 24.291353 
L 425.454545 25.108063 
L 423.423784 26.187472 
L 422.181818 27.422747 
L 418.909091 27.327105 
L 415.636364 26.60038 
L 412.363636 26.325588 
L 409.090909 26.316841 
L 405.818182 26.328676 
L 404.344379 26.187472 
L 402.545455 24.906068 
L 399.272727 23.79186 
L 396 23.527358 
L 392.727273 23.617049 
L 389.454545 23.954886 
L 386.181818 23.636486 
L 382.9645 26.187472 
L 382.909091 26.201285 
L 382.583909 26.187472 
L 379.636364 25.645804 
L 376.363636 25.324043 
L 373.090909 25.109609 
L 369.818182 23.338238 
L 366.545455 23.164614 
L 363.272727 23.13598 
L 360 23.138723 
L 356.727273 23.198377 
L 355.768476 22.914038 
L 353.454545 21.064917 
L 350.181818 20.98738 
L 346.909091 22.318854 
L 344.632368 22.914038 
L 343.636364 23.211667 
L 341.924012 22.914038 
L 340.363636 22.642825 
L 337.090909 22.073983 
L 333.818182 21.681631 
L 330.545455 21.600191 
L 327.272727 21.418238 
L 324 20.120598 
L 320.727273 19.968166 
L 317.454545 19.951304 
L 314.181818 20.10722 
L 310.909091 20.33957 
L 307.636364 20.573257 
L 304.363636 19.990566 
L 302.678387 19.640604 
L 301.090909 19.185246 
L 297.818182 18.467971 
L 294.545455 17.940172 
L 291.272727 17.25038 
L 288 16.569489 
L 286.915107 16.36717 
L 284.727273 15.727334 
L 281.454545 14.919023 
L 278.181818 14.334051 
L 274.909091 13.730565 
L 272.098563 13.093736 
L 271.636364 12.889867 
L 268.363636 11.68064 
L 265.090909 10.934256 
L 261.818182 10.053411 
L 261.06513 9.820302 
L 258.545455 8.650234 
L 255.272727 7.755714 
L 252 7.000349 
L 250.490379 6.546868 
L 248.727273 5.631624 
L 245.454545 4.56329 
L 242.181818 3.898783 
L 239.968392 3.273434 
L 238.909091 2.644031 
L 235.636364 1.262438 
L 232.363636 0.638044 
L 229.864557 0 
L 229.090909 0 
L 225.818182 0 
L 222.545455 0 
L 219.272727 0 
L 219.037083 0 
L 219.272727 0.052133 
L 222.545455 1.004814 
L 225.818182 2.098838 
L 229.090909 3.120281 
L 229.587552 3.273434 
L 232.363636 4.020666 
L 235.636364 5.20848 
L 238.909091 6.317327 
L 239.586574 6.546868 
L 242.181818 7.192756 
L 245.454545 8.535021 
L 248.727273 9.630804 
L 249.248015 9.820302 
L 252 10.411839 
L 255.272727 11.783683 
L 258.545455 12.949671 
L 258.97242 13.093736 
L 261.818182 13.565832 
L 265.090909 14.891445 
L 268.363636 16.120468 
L 269.28704 16.36717 
L 271.636364 16.607553 
L 274.909091 17.071345 
L 278.181818 18.025946 
L 281.454545 19.328959 
L 282.76166 19.640604 
L 284.727273 19.779029 
L 288 20.10152 
L 291.272727 20.638356 
L 294.545455 21.661871 
L 297.287718 22.914038 
L 297.818182 22.991123 
L 301.090909 23.233919 
L 304.363636 23.52834 
L 307.636364 23.855933 
L 310.909091 23.016083 
L 311.148954 22.914038 
L 314.181818 22.091053 
L 317.454545 21.542033 
L 320.727273 22.075641 
L 322.522047 22.914038 
L 324 23.292946 
L 327.272727 23.71724 
L 330.545455 23.882838 
L 333.818182 24.165882 
L 337.090909 24.84137 
L 339.831207 26.187472 
L 340.363636 26.288163 
L 343.636364 26.686442 
L 346.909091 26.517301 
L 348.788368 26.187472 
L 350.181818 24.970027 
L 353.454545 24.201074 
L 356.727273 24.519713 
L 360 24.234412 
L 363.272727 24.460303 
L 366.545455 25.090409 
L 369.083658 26.187472 
L 369.818182 26.322774 
L 373.090909 26.925621 
L 376.363636 27.091012 
L 379.636364 27.379176 
L 382.909091 27.925487 
L 386.181818 27.556918 
L 389.313085 26.187472 
L 389.454545 26.134801 
L 392.727273 25.240658 
L 396 25.105991 
L 399.004677 26.187472 
L 399.272727 26.274744 
L 402.545455 26.922044 
L 405.818182 27.223117 
L 409.090909 27.457774 
L 412.363636 27.885832 
L 415.636364 28.864682 
L 416.79124 29.460906 
L 418.909091 29.850675 
L 422.181818 30.021998 
L 425.454545 29.555327 
L 425.972027 29.460906 
L 428.727273 26.720506 
L 432 27.588216 
L 435.272727 27.749628 
L 438.545455 27.613961 
L 441.818182 28.018365 
L 445.090909 28.817569 
L 446.49143 29.460906 
L 448.363636 29.804053 
L 451.636364 30.361786 
L 454.909091 30.543934 
L 458.181818 30.941991 
L 461.454545 30.66459 
L 464.727273 29.869029 
L 465.622759 29.460906 
L 468 28.829768 
L 471.272727 28.253205 
L 474.545455 28.913386 
L 475.942979 29.460906 
L 477.818182 29.915825 
L 481.090909 30.405501 
L 484.363636 30.705002 
L 487.636364 31.015698 
L 490.909091 31.657575 
L 493.782812 32.73434 
L 494.181818 32.807554 
L 497.454545 33.165005 
L 500.727273 32.852678 
L 501.485005 32.73434 
L 504 30.476056 
L 507.272727 30.647 
L 510.545455 30.982787 
L 513.818182 30.906993 
L 517.090909 31.274056 
L 520.363636 31.948873 
L 522.361036 32.73434 
L 523.636364 32.973763 
L 526.909091 33.588167 
L 530.181818 33.877033 
L 533.454545 34.062218 
L 536.727273 33.647485 
L 540 32.821885 
L 540.224201 32.73434 
L 543.272727 32.011749 
L 546.545455 31.671522 
L 549.818182 32.580072 
L 550.17796 32.73434 
L 553.090909 33.367192 
L 556.363636 33.867236 
L 559.636364 34.089808 
L 562.909091 34.472084 
L 566.181818 35.249298 
L 568.671473 36.007774 
z
M 324 32.780197 
L 324.045954 32.73434 
L 324 32.658234 
L 323.954153 32.73434 
z
" clip-path="url(#pd105d5ed65)" style="fill: #dfecf7; fill-opacity: 0.9"/>
    <path d="M 510.545455 39.307295 
L 510.571845 39.281208 
L 510.545455 39.231932 
L 510.519374 39.281208 
z
M 526.909091 32.820785 
L 530.181818 32.971267 
L 533.454545 32.97575 
L 534.685276 32.73434 
L 536.727273 30.986572 
L 540 30.997415 
L 543.272727 30.698858 
L 546.545455 30.491415 
L 549.818182 30.850608 
L 553.090909 31.835485 
L 554.256235 32.73434 
L 556.363636 33.113158 
L 559.636364 33.143696 
L 562.909091 33.208969 
L 566.181818 33.373669 
L 569.454545 33.179685 
L 570.133028 32.73434 
L 572.727273 31.159243 
L 576 30.523867 
L 576 29.460906 
L 576 26.187472 
L 576 24.573494 
L 572.727273 24.566532 
L 569.454545 24.309293 
L 566.181818 23.72657 
L 562.909091 24.496933 
L 559.636364 24.966357 
L 556.363636 25.46312 
L 553.090909 25.972401 
L 551.618278 26.187472 
L 549.818182 26.478975 
L 546.545455 27.166658 
L 543.272727 28.306189 
L 540 27.940937 
L 536.727273 27.053864 
L 533.454545 28.735794 
L 530.181818 28.334342 
L 526.909091 27.815984 
L 523.636364 27.286048 
L 520.363636 26.67977 
L 518.093081 26.187472 
L 517.090909 25.907015 
L 513.818182 25.172326 
L 510.545455 25.073593 
L 507.272727 25.111608 
L 504 25.141375 
L 501.206888 26.187472 
L 500.727273 26.208018 
L 497.454545 26.464002 
L 494.181818 26.240312 
L 493.908554 26.187472 
L 490.909091 25.130146 
L 487.636364 24.540504 
L 484.363636 24.008309 
L 481.090909 23.598109 
L 477.818182 23.106055 
L 476.979843 22.914038 
L 474.545455 22.170408 
L 471.272727 21.429236 
L 468 21.390861 
L 464.727273 21.474943 
L 461.454545 21.585783 
L 458.181818 22.264116 
L 454.909091 22.319683 
L 451.636364 21.732202 
L 448.363636 21.140406 
L 445.090909 20.681982 
L 441.818182 20.110699 
L 438.545455 19.674278 
L 438.25615 19.640604 
L 435.272727 19.071265 
L 432 18.32513 
L 428.727273 17.525961 
L 425.454545 17.229592 
L 422.181818 16.672138 
L 421.203097 16.36717 
L 418.909091 15.921793 
L 415.636364 16.030554 
L 412.363636 16.028178 
L 409.090909 16.208473 
L 407.467053 16.36717 
L 405.818182 16.421784 
L 402.545455 16.493361 
L 401.894917 16.36717 
L 399.272727 15.543318 
L 396 14.98669 
L 392.727273 14.558945 
L 389.454545 13.907564 
L 386.181818 13.256184 
L 385.341096 13.093736 
L 382.909091 12.624365 
L 379.636364 12.00068 
L 376.363636 11.412601 
L 373.090909 11.198661 
L 369.818182 10.642629 
L 366.545455 10.104352 
L 363.272727 11.494234 
L 360 12.571262 
L 356.727273 11.924145 
L 353.454545 11.612893 
L 350.181818 11.349345 
L 346.909091 10.772889 
L 343.636364 10.170251 
L 341.735908 9.820302 
L 340.363636 9.559706 
L 337.090909 8.964975 
L 333.818182 8.388658 
L 330.545455 8.386563 
L 327.272727 8.380357 
L 324 9.727634 
L 323.860111 9.820302 
L 320.727273 10.19351 
L 317.454545 10.37522 
L 314.181818 9.928363 
L 313.456642 9.820302 
L 310.909091 9.339293 
L 307.636364 8.896122 
L 304.363636 8.295561 
L 301.090909 7.694999 
L 297.818182 7.086413 
L 294.834233 6.546868 
L 294.545455 6.478474 
L 291.272727 5.858506 
L 288 5.253843 
L 284.727273 4.635027 
L 281.454545 4.037265 
L 278.181818 3.403057 
L 277.512922 3.273434 
L 274.909091 2.70656 
L 271.636364 2.114567 
L 268.363636 1.188314 
L 265.090909 0.259858 
L 264.164971 0 
L 261.818182 0 
L 258.545455 0 
L 255.272727 0 
L 252 0 
L 248.727273 0 
L 245.454545 0 
L 242.181818 0 
L 238.909091 0 
L 235.636364 0 
L 232.363636 0 
L 229.864557 0 
L 232.363636 0.638044 
L 235.636364 1.262438 
L 238.909091 2.644031 
L 239.968392 3.273434 
L 242.181818 3.898783 
L 245.454545 4.56329 
L 248.727273 5.631624 
L 250.490379 6.546868 
L 252 7.000349 
L 255.272727 7.755714 
L 258.545455 8.650234 
L 261.06513 9.820302 
L 261.818182 10.053411 
L 265.090909 10.934256 
L 268.363636 11.68064 
L 271.636364 12.889867 
L 272.098563 13.093736 
L 274.909091 13.730565 
L 278.181818 14.334051 
L 281.454545 14.919023 
L 284.727273 15.727334 
L 286.915107 16.36717 
L 288 16.569489 
L 291.272727 17.25038 
L 294.545455 17.940172 
L 297.818182 18.467971 
L 301.090909 19.185246 
L 302.678387 19.640604 
L 304.363636 19.990566 
L 307.636364 20.573257 
L 310.909091 20.33957 
L 314.181818 20.10722 
L 317.454545 19.951304 
L 320.727273 19.968166 
L 324 20.120598 
L 327.272727 21.418238 
L 330.545455 21.600191 
L 333.818182 21.681631 
L 337.090909 22.073983 
L 340.363636 22.642825 
L 341.924012 22.914038 
L 343.636364 23.211667 
L 344.632368 22.914038 
L 346.909091 22.318854 
L 350.181818 20.98738 
L 353.454545 21.064917 
L 355.768476 22.914038 
L 356.727273 23.198377 
L 360 23.138723 
L 363.272727 23.13598 
L 366.545455 23.164614 
L 369.818182 23.338238 
L 373.090909 25.109609 
L 376.363636 25.324043 
L 379.636364 25.645804 
L 382.583909 26.187472 
L 382.909091 26.201285 
L 382.9645 26.187472 
L 386.181818 23.636486 
L 389.454545 23.954886 
L 392.727273 23.617049 
L 396 23.527358 
L 399.272727 23.79186 
L 402.545455 24.906068 
L 404.344379 26.187472 
L 405.818182 26.328676 
L 409.090909 26.316841 
L 412.363636 26.325588 
L 415.636364 26.60038 
L 418.909091 27.327105 
L 422.181818 27.422747 
L 423.423784 26.187472 
L 425.454545 25.108063 
L 428.727273 24.291353 
L 432 25.299957 
L 433.093741 26.187472 
L 435.272727 26.675208 
L 438.545455 26.599961 
L 441.818182 26.671759 
L 445.090909 26.813651 
L 448.363636 27.488413 
L 451.120931 29.460906 
L 451.636364 29.547769 
L 454.909091 29.531928 
L 458.181818 29.674612 
L 459.415997 29.460906 
L 461.454545 27.938632 
L 464.727273 27.470985 
L 468 27.295943 
L 471.272727 27.018287 
L 474.545455 27.233682 
L 477.818182 27.839059 
L 480.230357 29.460906 
L 481.090909 29.618809 
L 484.363636 29.781296 
L 487.636364 29.816881 
L 490.909091 30.051121 
L 494.181818 30.580273 
L 497.454545 30.888045 
L 499.405665 29.460906 
L 500.727273 28.850809 
L 504 27.965954 
L 507.272727 28.411373 
L 509.01212 29.460906 
L 510.545455 29.876061 
L 513.818182 30.032643 
L 517.090909 30.141438 
L 520.363636 30.341451 
L 523.636364 31.003433 
L 526.448625 32.73434 
z
" clip-path="url(#pd105d5ed65)" style="fill: #dae8f6; fill-opacity: 0.9"/>
    <path d="M 494.181818 26.240312 
L 497.454545 26.464002 
L 500.727273 26.208018 
L 501.206888 26.187472 
L 504 25.141375 
L 507.272727 25.111608 
L 510.545455 25.073593 
L 513.818182 25.172326 
L 517.090909 25.907015 
L 518.093081 26.187472 
L 520.363636 26.67977 
L 523.636364 27.286048 
L 526.909091 27.815984 
L 530.181818 28.334342 
L 533.454545 28.735794 
L 536.727273 27.053864 
L 540 27.940937 
L 543.272727 28.306189 
L 546.545455 27.166658 
L 549.818182 26.478975 
L 551.618278 26.187472 
L 553.090909 25.972401 
L 556.363636 25.46312 
L 559.636364 24.966357 
L 562.909091 24.496933 
L 566.181818 23.72657 
L 569.454545 24.309293 
L 572.727273 24.566532 
L 576 24.573494 
L 576 22.914038 
L 576 19.640604 
L 576 16.36717 
L 576 13.567527 
L 574.795887 13.093736 
L 572.727273 11.945848 
L 569.454545 12.235815 
L 566.558951 9.820302 
L 566.181818 9.66479 
L 562.909091 8.633713 
L 559.636364 7.329886 
L 558.597271 6.546868 
L 556.363636 5.61366 
L 553.090909 4.737757 
L 550.682166 3.273434 
L 549.818182 2.021321 
L 546.545455 0.550892 
L 544.410943 0 
L 543.272727 0 
L 540 0 
L 536.727273 0 
L 533.454545 0 
L 530.181818 0 
L 526.909091 0 
L 523.636364 0 
L 520.363636 0 
L 517.090909 0 
L 513.818182 0 
L 510.545455 0 
L 507.272727 0 
L 504 0 
L 500.727273 0 
L 497.454545 0 
L 494.181818 0 
L 490.909091 0 
L 487.636364 0 
L 484.363636 0 
L 481.090909 0 
L 477.818182 0 
L 474.545455 0 
L 471.272727 0 
L 468 0 
L 464.727273 0 
L 461.454545 0 
L 458.181818 0 
L 454.909091 0 
L 451.636364 0 
L 448.363636 0 
L 445.090909 0 
L 441.818182 0 
L 438.545455 0 
L 435.272727 0 
L 432 0 
L 428.727273 0 
L 425.454545 0 
L 422.181818 0 
L 418.909091 0 
L 415.636364 0 
L 412.363636 0 
L 409.090909 0 
L 405.818182 0 
L 402.545455 0 
L 399.272727 0 
L 396 0 
L 392.727273 0 
L 389.454545 0 
L 386.181818 0 
L 382.909091 0 
L 379.636364 0 
L 376.363636 0 
L 373.090909 0 
L 369.818182 0 
L 366.545455 0 
L 363.272727 0 
L 360 0 
L 356.727273 0 
L 353.454545 0 
L 350.181818 0 
L 346.909091 0 
L 343.636364 0 
L 340.363636 0 
L 337.090909 0 
L 333.818182 0 
L 330.545455 0 
L 327.272727 0 
L 324 0 
L 320.727273 0 
L 317.454545 0 
L 314.181818 0 
L 310.909091 0 
L 307.636364 0 
L 304.363636 0 
L 301.090909 0 
L 297.818182 0 
L 294.545455 0 
L 291.272727 0 
L 288 0 
L 284.727273 0 
L 281.454545 0 
L 278.181818 0 
L 274.909091 0 
L 271.636364 0 
L 268.363636 0 
L 265.090909 0 
L 264.164971 0 
L 265.090909 0.259858 
L 268.363636 1.188314 
L 271.636364 2.114567 
L 274.909091 2.70656 
L 277.512922 3.273434 
L 278.181818 3.403057 
L 281.454545 4.037265 
L 284.727273 4.635027 
L 288 5.253843 
L 291.272727 5.858506 
L 294.545455 6.478474 
L 294.834233 6.546868 
L 297.818182 7.086413 
L 301.090909 7.694999 
L 304.363636 8.295561 
L 307.636364 8.896122 
L 310.909091 9.339293 
L 313.456642 9.820302 
L 314.181818 9.928363 
L 317.454545 10.37522 
L 320.727273 10.19351 
L 323.860111 9.820302 
L 324 9.727634 
L 327.272727 8.380357 
L 330.545455 8.386563 
L 333.818182 8.388658 
L 337.090909 8.964975 
L 340.363636 9.559706 
L 341.735908 9.820302 
L 343.636364 10.170251 
L 346.909091 10.772889 
L 350.181818 11.349345 
L 353.454545 11.612893 
L 356.727273 11.924145 
L 360 12.571262 
L 363.272727 11.494234 
L 366.545455 10.104352 
L 369.818182 10.642629 
L 373.090909 11.198661 
L 376.363636 11.412601 
L 379.636364 12.00068 
L 382.909091 12.624365 
L 385.341096 13.093736 
L 386.181818 13.256184 
L 389.454545 13.907564 
L 392.727273 14.558945 
L 396 14.98669 
L 399.272727 15.543318 
L 401.894917 16.36717 
L 402.545455 16.493361 
L 405.818182 16.421784 
L 407.467053 16.36717 
L 409.090909 16.208473 
L 412.363636 16.028178 
L 415.636364 16.030554 
L 418.909091 15.921793 
L 421.203097 16.36717 
L 422.181818 16.672138 
L 425.454545 17.229592 
L 428.727273 17.525961 
L 432 18.32513 
L 435.272727 19.071265 
L 438.25615 19.640604 
L 438.545455 19.674278 
L 441.818182 20.110699 
L 445.090909 20.681982 
L 448.363636 21.140406 
L 451.636364 21.732202 
L 454.909091 22.319683 
L 458.181818 22.264116 
L 461.454545 21.585783 
L 464.727273 21.474943 
L 468 21.390861 
L 471.272727 21.429236 
L 474.545455 22.170408 
L 476.979843 22.914038 
L 477.818182 23.106055 
L 481.090909 23.598109 
L 484.363636 24.008309 
L 487.636364 24.540504 
L 490.909091 25.130146 
L 493.908554 26.187472 
z
M 562.528408 16.36717 
L 559.636364 13.52835 
L 556.6213 13.093736 
L 559.636364 12.285109 
L 562.909091 12.668761 
L 564.619491 13.093736 
L 566.181818 13.328479 
L 569.454545 13.820212 
L 571.820643 16.36717 
L 569.454545 17.20077 
L 566.181818 16.939688 
L 562.909091 16.463569 
z
" clip-path="url(#pd105d5ed65)" style="fill: #d6e5f4; fill-opacity: 0.9"/>
    <path d="M 562.909091 16.463569 
L 566.181818 16.939688 
L 569.454545 17.20077 
L 571.820643 16.36717 
L 569.454545 13.820212 
L 566.181818 13.328479 
L 564.619491 13.093736 
L 562.909091 12.668761 
L 559.636364 12.285109 
L 556.6213 13.093736 
L 559.636364 13.52835 
L 562.528408 16.36717 
z
M 576 13.567527 
L 576 13.093736 
L 576 9.820302 
L 576 6.546868 
L 576 3.273434 
L 576 0 
L 572.727273 0 
L 569.454545 0 
L 566.181818 0 
L 562.909091 0 
L 559.636364 0 
L 556.363636 0 
L 553.090909 0 
L 549.818182 0 
L 546.545455 0 
L 544.410943 0 
L 546.545455 0.550892 
L 549.818182 2.021321 
L 550.682166 3.273434 
L 553.090909 4.737757 
L 556.363636 5.61366 
L 558.597271 6.546868 
L 559.636364 7.329886 
L 562.909091 8.633713 
L 566.181818 9.66479 
L 566.558951 9.820302 
L 569.454545 12.235815 
L 572.727273 11.945848 
L 574.795887 13.093736 
z
" clip-path="url(#pd105d5ed65)" style="fill: #d0e2f2; fill-opacity: 0.9"/>
    <path clip-path="url(#pd105d5ed65)" style="fill: #cbdef1; fill-opacity: 0.9"/>
    <path clip-path="url(#pd105d5ed65)" style="fill: #c6dbef; fill-opacity: 0.9"/>
    <path clip-path="url(#pd105d5ed65)" style="fill: #bed8ec; fill-opacity: 0.9"/>
    <path clip-path="url(#pd105d5ed65)" style="fill: #b5d4e9; fill-opacity: 0.9"/>
    <path clip-path="url(#pd105d5ed65)" style="fill: #add0e6; fill-opacity: 0.9"/>
    <path clip-path="url(#pd105d5ed65)" style="fill: #a5cde3; fill-opacity: 0.9"/>
    <path clip-path="url(#pd105d5ed65)" style="fill: #9cc9e1; fill-opacity: 0.9"/>
    <path clip-path="url(#pd105d5ed65)" style="fill: #91c3de; fill-opacity: 0.9"/>
    <path clip-path="url(#pd105d5ed65)" style="fill: #85bcdc; fill-opacity: 0.9"/>
    <path clip-path="url(#pd105d5ed65)" style="fill: #7cb7da; fill-opacity: 0.9"/>
    <path clip-path="url(#pd105d5ed65)" style="fill: #71b1d7; fill-opacity: 0.9"/>
    <path clip-path="url(#pd105d5ed65)" style="fill: #66abd4; fill-opacity: 0.9"/>
    <path clip-path="url(#pd105d5ed65)" style="fill: #5da5d1; fill-opacity: 0.9"/>
    <path clip-path="url(#pd105d5ed65)" style="fill: #56a0ce; fill-opacity: 0.9"/>
    <path clip-path="url(#pd105d5ed65)" style="fill: #4d99ca; fill-opacity: 0.9"/>
    <path clip-path="url(#pd105d5ed65)" style="fill: #4493c7; fill-opacity: 0.9"/>
    <path clip-path="url(#pd105d5ed65)" style="fill: #3c8cc3; fill-opacity: 0.9"/>
    <path clip-path="url(#pd105d5ed65)" style="fill: #3686c0; fill-opacity: 0.9"/>
    <path clip-path="url(#pd105d5ed65)" style="fill: #2f7fbc; fill-opacity: 0.9"/>
    <path clip-path="url(#pd105d5ed65)" style="fill: #2777b8; fill-opacity: 0.9"/>
    <path clip-path="url(#pd105d5ed65)" style="fill: #2070b4; fill-opacity: 0.9"/>
    <path clip-path="url(#pd105d5ed65)" style="fill: #1c6ab0; fill-opacity: 0.9"/>
    <path clip-path="url(#pd105d5ed65)" style="fill: #1663aa; fill-opacity: 0.9"/>
    <path clip-path="url(#pd105d5ed65)" style="fill: #115ca5; fill-opacity: 0.9"/>
    <path clip-path="url(#pd105d5ed65)" style="fill: #0c56a0; fill-opacity: 0.9"/>
    <path clip-path="url(#pd105d5ed65)" style="fill: #084f99; fill-opacity: 0.9"/>
    <path clip-path="url(#pd105d5ed65)" style="fill: #08488e; fill-opacity: 0.9"/>
    <path clip-path="url(#pd105d5ed65)" style="fill: #084184; fill-opacity: 0.9"/>
    <path clip-path="url(#pd105d5ed65)" style="fill: #083a7a; fill-opacity: 0.9"/>
    <path clip-path="url(#pd105d5ed65)" style="fill: #083370; fill-opacity: 0.9"/>
    <path clip-path="url(#pd105d5ed65)" style="fill: #08306b; fill-opacity: 0.9"/>
   </g>
   <g id="QuadContourSet_2">
    <path d="M 201.468674 0 
L 203.631186 0.674453 
M 221.822566 6.348566 
L 268.363636 20.876305 
L 274.909091 22.232443 
L 301.090909 27.51822 
L 304.363636 28.19027 
L 307.636364 28.669374 
L 314.181818 28.924192 
L 320.727273 29.131389 
L 324.926892 29.460906 
L 324 29.49886 
L 322.050921 32.73434 
L 324 34.683841 
L 325.953622 32.73434 
L 327.272727 29.598774 
L 330.545455 29.236972 
L 333.818182 28.867761 
L 337.090909 29.082035 
L 343.636364 30.341169 
L 346.909091 30.574208 
L 356.727273 30.928875 
L 360 30.918294 
L 363.272727 30.670532 
L 369.818182 29.786719 
L 373.090909 30.721505 
L 376.363636 31.13322 
L 379.636364 31.414249 
L 382.909091 31.960413 
L 392.727273 32.23302 
L 399.272727 32.360251 
L 402.545455 32.528216 
L 405.818182 32.81025 
L 409.090909 32.199451 
L 412.363636 31.915665 
L 417.034145 32.73434 
L 418.909091 33.17279 
L 422.181818 33.512735 
L 435.272727 33.903282 
L 438.545455 33.842427 
L 441.818182 33.503397 
L 445.090909 32.959252 
L 448.363636 33.1952 
L 451.636364 33.927833 
L 454.909091 34.26783 
L 458.181818 34.769629 
L 468 35.118043 
L 481.090909 34.93567 
L 484.363636 35.363644 
L 487.636364 35.084517 
L 490.909091 35.353807 
L 494.770931 36.007774 
L 497.454545 36.345082 
L 507.272727 36.753032 
L 508.409599 39.281208 
L 510.545455 41.417525 
L 512.706702 39.281208 
L 513.818182 36.990862 
L 517.090909 36.651502 
L 520.363636 36.088196 
L 523.636364 36.064956 
L 526.909091 36.839604 
L 530.181818 37.36561 
L 533.454545 37.664947 
L 543.272727 38.022385 
L 549.818182 37.765316 
L 553.090909 37.483581 
L 556.363636 37.732501 
L 559.636364 38.266991 
L 562.909091 38.146839 
L 566.181818 38.699759 
L 569.454545 39.024777 
L 576 39.257086 
L 576 39.257086 
" clip-path="url(#pd105d5ed65)" style="fill: none"/>
    <path d="M 204.804805 0 
L 206.181818 0.426917 
L 209.454545 1.470569 
L 212.727273 2.420838 
L 215.246553 3.273434 
L 216 3.514384 
L 219.272727 4.546465 
L 222.545455 5.558394 
L 225.628078 6.546868 
L 225.818182 6.607139 
L 229.090909 7.639175 
L 232.363636 8.671516 
L 235.636364 9.65747 
L 236.075986 9.820302 
L 238.909091 10.695728 
L 242.181818 11.721425 
L 245.454545 12.682188 
L 246.634542 13.093736 
L 248.727273 13.753567 
L 252 14.778802 
L 255.272727 15.767387 
L 257.09312 16.36717 
L 258.545455 16.826941 
L 261.818182 17.851144 
L 265.090909 18.878992 
L 267.515927 19.640604 
L 268.363636 19.90684 
L 271.636364 20.631355 
L 274.909091 21.279939 
L 278.181818 21.947311 
L 281.454545 22.560558 
L 283.111658 22.914038 
L 284.727273 23.240851 
L 285.157622 23.33152 
M 303.929845 27.196814 
L 304.363636 27.286318 
L 307.636364 27.786346 
L 310.909091 27.936166 
L 314.181818 27.960701 
L 317.454545 27.827356 
L 320.727273 27.617893 
L 324 27.241097 
L 327.272727 26.834397 
L 330.545455 27.666496 
L 333.818182 27.862847 
L 337.090909 28.228836 
L 340.363636 28.84776 
L 343.605812 29.460906 
L 343.636364 29.466827 
L 346.909091 29.739339 
L 350.181818 29.857561 
L 353.454545 29.975783 
L 356.727273 30.094005 
L 360 30.019691 
L 363.272727 29.572388 
L 363.911266 29.460906 
L 366.545455 28.979738 
L 369.818182 28.784974 
L 373.090909 29.387821 
L 373.487671 29.460906 
L 376.363636 30.116909 
L 379.636364 30.593516 
L 382.909091 31.156581 
L 386.181818 31.274678 
L 389.454545 31.392774 
L 392.727273 31.272723 
L 396 31.068923 
L 399.272727 30.721038 
L 402.545455 29.992725 
L 405.818182 30.599162 
L 409.090909 30.979231 
L 412.363636 31.094811 
L 415.636364 31.66991 
L 418.909091 32.272222 
L 422.181818 32.615346 
L 425.107196 32.73434 
L 425.454545 32.748493 
L 428.727273 32.876063 
L 432 32.994023 
L 435.272727 33.112568 
L 438.545455 32.978883 
L 440.199089 32.73434 
L 441.818182 32.322911 
L 445.090909 31.954561 
L 448.363636 32.202764 
L 451.263915 32.73434 
L 451.636364 32.828221 
L 454.909091 33.432404 
L 458.181818 33.982522 
L 461.454545 34.112143 
L 464.727273 34.231474 
L 468 34.320713 
L 471.272727 34.109898 
L 474.545455 33.785469 
L 477.818182 33.221706 
L 481.090909 32.818405 
L 484.363636 33.905387 
L 487.636364 34.168763 
L 490.909091 34.567115 
L 494.181818 35.167629 
L 497.454545 35.475903 
L 500.727273 35.534893 
L 504 35.597102 
L 507.272727 35.700875 
L 510.545455 35.908769 
L 511.440873 36.007774 
L 510.545455 36.043016 
L 508.831554 39.281208 
L 510.545455 40.995479 
L 512.279731 39.281208 
L 513.818182 36.111033 
L 514.618164 36.007774 
L 517.090909 35.435064 
L 520.363636 35.120078 
L 523.636364 35.275908 
L 526.909091 35.890312 
L 527.534772 36.007774 
L 530.181818 36.541471 
L 533.454545 36.914852 
L 536.727273 37.033998 
L 540 37.153144 
L 543.272727 37.27229 
L 546.545455 37.044825 
L 549.818182 36.65113 
L 553.016476 36.007774 
L 553.090909 35.995999 
L 553.342482 36.007774 
L 556.363636 36.247435 
L 559.636364 37.121803 
L 562.909091 37.378553 
L 566.181818 37.951073 
L 569.454545 38.293771 
L 572.727273 38.378421 
L 576 38.317224 
M 324 34.20793 
L 325.476705 32.73434 
L 324 30.288704 
L 322.526729 32.73434 
L 324 34.20793 
z
" clip-path="url(#pd105d5ed65)" style="fill: none"/>
    <path d="M 208.044275 0 
L 209.454545 0.452638 
L 212.727273 1.341758 
L 216 2.232885 
L 218.421855 3.273434 
L 219.272727 3.542743 
L 222.545455 4.541511 
L 225.818182 5.355285 
L 228.799296 6.546868 
L 229.090909 6.638854 
L 232.363636 7.671195 
L 235.636364 8.459626 
L 236.324441 8.704184 
M 254.56295 14.544849 
L 255.272727 14.750337 
L 258.545455 15.671721 
L 260.179955 16.36717 
L 261.818182 16.881679 
L 265.090909 17.909527 
L 268.363636 18.749392 
L 271.464702 19.640604 
L 271.636364 19.678851 
L 274.909091 20.327435 
L 278.181818 21.012966 
L 281.454545 21.561272 
L 284.727273 22.140506 
L 287.591113 22.914038 
L 288 23.000971 
L 291.272727 23.68201 
L 294.545455 24.3521 
L 297.818182 24.939093 
L 301.090909 25.565922 
L 303.42115 26.187472 
L 304.363636 26.382365 
L 307.636364 26.903318 
L 310.909091 27.053138 
L 314.181818 26.99721 
L 317.454545 26.649926 
L 320.325979 26.187472 
L 320.727273 26.07904 
L 324 25.606211 
L 327.272727 25.492056 
L 330.545455 26.122268 
L 330.808171 26.187472 
L 333.818182 26.857934 
L 337.090909 27.375637 
L 340.363636 27.994561 
L 343.636364 28.540269 
L 346.909091 28.725146 
L 350.181818 28.714952 
L 353.454545 28.696537 
L 356.727273 28.653231 
L 360 27.382753 
L 363.272727 27.616124 
L 366.545455 27.830814 
L 369.818182 27.964241 
L 373.090909 28.567088 
L 376.363636 29.104066 
L 377.943256 29.460906 
L 379.636364 29.772782 
L 382.909091 30.352749 
L 386.181818 30.470846 
L 389.454545 30.588942 
L 392.727273 30.312426 
L 396 29.857824 
L 397.918781 29.460906 
L 399.272727 29.130677 
L 402.545455 28.741854 
L 405.818182 29.011999 
L 408.019411 29.460906 
L 409.090909 29.759011 
L 412.363636 30.273957 
L 415.636364 30.862728 
L 418.909091 31.46504 
L 422.181818 31.750896 
L 425.454545 31.686279 
L 428.727273 31.582502 
L 432 31.38849 
L 435.272727 30.896039 
L 438.545455 30.113693 
L 441.818182 30.839051 
L 445.090909 31.023732 
L 448.363636 31.403194 
L 451.636364 31.98982 
L 454.909091 32.567945 
L 455.62637 32.73434 
L 458.181818 33.195414 
L 461.454545 33.329034 
L 464.727273 33.448365 
L 468 33.523383 
L 471.272727 33.143323 
L 473.717248 32.73434 
L 474.545455 32.476133 
L 477.818182 31.996036 
L 481.090909 31.978884 
L 484.363636 32.552412 
L 485.208058 32.73434 
L 487.636364 33.253009 
L 490.909091 33.780424 
L 494.181818 34.380937 
L 497.454545 34.705603 
L 500.727273 34.640821 
L 504 34.479137 
L 507.272727 34.209422 
L 510.545455 33.669086 
L 513.237903 32.73434 
L 513.818182 32.655693 
L 514.185856 32.73434 
L 517.090909 33.85634 
L 520.363636 34.170096 
L 523.636364 34.508527 
L 526.909091 35.122931 
L 530.181818 35.688565 
L 532.235164 36.007774 
L 533.454545 36.164757 
L 536.727273 36.283903 
L 540 36.403049 
L 543.272727 36.522195 
L 546.545455 36.157153 
L 547.477551 36.007774 
L 549.818182 35.41495 
L 553.090909 35.11973 
L 556.363636 35.37539 
L 559.636364 35.982032 
L 559.746104 36.007774 
L 562.909091 36.610267 
L 566.181818 37.202388 
L 569.454545 37.562764 
L 572.727273 37.618645 
L 576 37.377363 
M 510.545455 40.573433 
L 511.852759 39.281208 
L 510.545455 36.840245 
L 509.253509 39.281208 
L 510.545455 40.573433 
z
M 324 33.732019 
L 324.999788 32.73434 
L 324 31.078547 
L 323.002537 32.73434 
L 324 33.732019 
z
" clip-path="url(#pd105d5ed65)" style="fill: none"/>
    <path d="M 211.72989 0 
L 212.727273 0.262678 
L 216 0.870372 
L 219.272727 1.91234 
L 221.719431 3.273434 
L 222.545455 3.524628 
L 225.818182 4.087715 
L 229.090909 4.950239 
L 231.970515 6.546868 
L 232.363636 6.670873 
L 235.636364 7.261783 
L 238.909091 8.029771 
L 242.181818 9.631219 
L 242.549407 9.820302 
L 245.454545 10.491549 
L 248.727273 11.179423 
L 252 12.517907 
L 252.991761 13.093736 
L 255.272727 13.733287 
L 258.545455 14.358332 
L 261.818182 15.47243 
L 263.266791 16.36717 
L 265.090909 16.940061 
L 268.363636 17.520777 
L 271.636364 18.15515 
L 274.909091 19.080273 
L 276.129917 19.640604 
L 278.181818 20.078621 
L 281.454545 20.561986 
L 284.727273 20.959767 
L 288 21.576774 
L 291.272727 22.603876 
L 291.962548 22.914038 
L 294.545455 23.448148 
L 297.818182 23.965108 
L 301.090909 24.399921 
L 304.363636 25.018552 
L 307.636364 25.816317 
L 310.909091 26.12632 
L 314.181818 25.486048 
L 317.454545 23.518406 
L 320.727273 24.103605 
L 324 24.449579 
L 324.333613 24.465386 
M 343.200038 27.550429 
L 343.636364 27.613356 
L 346.909091 27.621224 
L 350.181818 27.293791 
L 353.454545 26.702276 
L 355.078225 26.187472 
L 356.727273 25.84105 
L 360 25.330102 
L 363.272727 25.784626 
L 364.628073 26.187472 
L 366.545455 26.681891 
L 369.818182 27.143507 
L 373.090909 27.746354 
L 376.363636 28.097539 
L 379.636364 28.664192 
L 382.417886 29.460906 
L 382.909091 29.548918 
L 386.181818 29.667014 
L 389.454545 29.785111 
L 392.009663 29.460906 
L 392.727273 28.76145 
L 396 27.231736 
L 399.272727 27.702711 
L 402.545455 27.831949 
L 405.818182 28.117558 
L 409.090909 28.598708 
L 412.363636 29.446076 
L 412.405325 29.460906 
L 415.636364 30.055546 
L 418.909091 30.657857 
L 422.181818 30.886447 
L 425.454545 30.620803 
L 428.727273 30.194172 
L 431.811437 29.460906 
L 432 29.402326 
L 435.272727 28.824047 
L 438.545455 28.62796 
L 441.818182 29.36497 
L 442.128975 29.460906 
L 445.090909 30.092902 
L 448.363636 30.603623 
L 451.636364 31.175803 
L 454.909091 31.55594 
L 458.181818 32.209369 
L 461.454545 32.332938 
L 464.727273 32.502062 
L 468 32.677533 
L 471.272727 29.581363 
L 474.545455 30.674962 
L 477.818182 30.95593 
L 481.090909 31.192192 
L 484.363636 31.628707 
L 487.636364 32.214515 
L 489.495435 32.73434 
L 490.909091 32.993732 
L 494.181818 33.594245 
L 497.454545 33.935304 
L 500.727273 33.74675 
L 504 33.361172 
L 507.209887 32.73434 
L 507.272727 32.711677 
L 510.545455 32.089513 
L 513.818182 31.781343 
L 517.090909 32.406675 
L 518.273446 32.73434 
L 520.363636 33.220114 
L 523.636364 33.741145 
L 526.909091 34.355549 
L 530.181818 34.782799 
L 533.454545 35.148687 
L 536.727273 35.093852 
L 540 34.984694 
L 543.272727 34.661252 
L 546.545455 33.083753 
L 549.818182 34.012077 
L 553.090909 34.243461 
L 556.363636 34.621313 
L 559.636364 35.03592 
L 562.909091 35.735198 
L 563.779479 36.007774 
L 566.181818 36.453702 
L 569.454545 36.831758 
L 572.727273 36.85887 
L 576 36.437501 
M 510.545455 40.151387 
L 511.425788 39.281208 
L 510.545455 37.637474 
L 509.675464 39.281208 
L 510.545455 40.151387 
z
M 324 33.256108 
L 324.522871 32.73434 
L 324 31.868391 
L 323.478345 32.73434 
L 324 33.256108 
z
" clip-path="url(#pd105d5ed65)" style="fill: none"/>
    <path d="M 219.037083 0 
L 219.272727 0.052133 
L 220.50107 0.4097 
M 238.64064 6.226372 
L 238.909091 6.317327 
L 239.586574 6.546868 
L 242.181818 7.192756 
L 245.454545 8.535021 
L 248.727273 9.630804 
L 249.248015 9.820302 
L 252 10.411839 
L 255.272727 11.783683 
L 258.545455 12.949671 
L 258.97242 13.093736 
L 261.818182 13.565832 
L 265.090909 14.891445 
L 268.363636 16.120468 
L 269.28704 16.36717 
L 271.636364 16.607553 
L 274.909091 17.071345 
L 278.181818 18.025946 
L 281.454545 19.328959 
L 282.76166 19.640604 
L 284.727273 19.779029 
L 288 20.10152 
L 291.272727 20.638356 
L 294.545455 21.661871 
L 297.287718 22.914038 
L 297.818182 22.991123 
L 301.090909 23.233919 
L 304.363636 23.52834 
L 307.636364 23.855933 
L 310.909091 23.016083 
L 311.148954 22.914038 
L 314.181818 22.091053 
L 317.454545 21.542033 
L 320.727273 22.075641 
L 322.522047 22.914038 
L 324 23.292946 
L 327.272727 23.71724 
L 330.545455 23.882838 
L 333.818182 24.165882 
L 337.090909 24.84137 
L 339.831207 26.187472 
L 340.363636 26.288163 
L 343.636364 26.686442 
L 346.909091 26.517301 
L 348.788368 26.187472 
L 350.181818 24.970027 
L 353.454545 24.201074 
L 356.727273 24.519713 
L 360 24.234412 
L 363.272727 24.460303 
L 366.545455 25.090409 
L 369.083658 26.187472 
L 369.818182 26.322774 
L 373.090909 26.925621 
L 376.363636 27.091012 
L 379.636364 27.379176 
L 382.909091 27.925487 
L 386.181818 27.556918 
L 389.313085 26.187472 
L 389.454545 26.134801 
L 392.727273 25.240658 
L 396 25.105991 
L 399.004677 26.187472 
L 399.272727 26.274744 
L 402.545455 26.922044 
L 405.818182 27.223117 
L 409.090909 27.457774 
L 412.363636 27.885832 
L 415.636364 28.864682 
L 416.79124 29.460906 
L 418.909091 29.850675 
L 422.181818 30.021998 
L 425.454545 29.555327 
L 425.972027 29.460906 
L 428.727273 26.720506 
L 432 27.588216 
L 435.272727 27.749628 
L 438.545455 27.613961 
L 441.818182 28.018365 
L 445.090909 28.817569 
L 446.49143 29.460906 
L 448.363636 29.804053 
L 451.636364 30.361786 
L 454.909091 30.543934 
L 458.181818 30.941991 
L 461.454545 30.66459 
L 464.727273 29.869029 
L 465.622759 29.460906 
L 468 28.829768 
L 471.272727 28.253205 
L 474.545455 28.913386 
L 475.942979 29.460906 
L 477.818182 29.915825 
L 481.090909 30.405501 
L 484.363636 30.705002 
L 487.636364 31.015698 
L 490.909091 31.657575 
L 493.782812 32.73434 
L 494.181818 32.807554 
L 497.454545 33.165005 
L 500.727273 32.852678 
L 501.485005 32.73434 
L 504 30.476056 
L 507.272727 30.647 
L 510.545455 30.982787 
L 513.818182 30.906993 
L 517.090909 31.274056 
L 520.363636 31.948873 
L 522.361036 32.73434 
L 523.636364 32.973763 
L 526.909091 33.588167 
L 530.181818 33.877033 
L 533.454545 34.062218 
L 536.727273 33.647485 
L 540 32.821885 
L 540.224201 32.73434 
L 543.272727 32.011749 
L 546.545455 31.671522 
L 549.818182 32.580072 
L 550.17796 32.73434 
L 553.090909 33.367192 
L 556.363636 33.867236 
L 559.636364 34.089808 
L 562.909091 34.472084 
L 566.181818 35.249298 
L 568.671473 36.007774 
L 569.454545 36.100752 
L 572.727273 36.099095 
L 573.320605 36.007774 
L 575.06949 32.73434 
L 576 32.383756 
M 510.545455 39.729341 
L 510.998817 39.281208 
L 510.545455 38.434703 
L 510.097419 39.281208 
L 510.545455 39.729341 
z
M 324 32.780197 
L 324.045954 32.73434 
L 324 32.658234 
L 323.954153 32.73434 
L 324 32.780197 
z
" clip-path="url(#pd105d5ed65)" style="fill: none"/>
    <path d="M 229.864557 0 
L 232.363636 0.638044 
L 235.636364 1.262438 
L 238.909091 2.644031 
L 239.968392 3.273434 
L 242.181818 3.898783 
L 245.454545 4.56329 
L 248.727273 5.631624 
L 250.490379 6.546868 
L 252 7.000349 
L 255.272727 7.755714 
L 258.545455 8.650234 
L 259.256995 8.980653 
M 277.516488 14.211365 
L 278.181818 14.334051 
L 281.454545 14.919023 
L 284.727273 15.727334 
L 286.915107 16.36717 
L 288 16.569489 
L 291.272727 17.25038 
L 294.545455 17.940172 
L 297.818182 18.467971 
L 301.090909 19.185246 
L 302.678387 19.640604 
L 304.363636 19.990566 
L 307.636364 20.573257 
L 310.909091 20.33957 
L 314.181818 20.10722 
L 317.454545 19.951304 
L 320.727273 19.968166 
L 324 20.120598 
L 327.272727 21.418238 
L 330.545455 21.600191 
L 333.818182 21.681631 
L 337.090909 22.073983 
L 340.363636 22.642825 
L 341.924012 22.914038 
L 343.636364 23.211667 
L 344.632368 22.914038 
L 346.909091 22.318854 
L 350.181818 20.98738 
L 353.454545 21.064917 
L 355.768476 22.914038 
L 356.727273 23.198377 
L 360 23.138723 
L 363.272727 23.13598 
L 366.545455 23.164614 
L 369.818182 23.338238 
L 373.090909 25.109609 
L 376.363636 25.324043 
L 379.636364 25.645804 
L 382.583909 26.187472 
L 382.909091 26.201285 
L 382.9645 26.187472 
L 386.181818 23.636486 
L 389.454545 23.954886 
L 392.727273 23.617049 
L 396 23.527358 
L 399.272727 23.79186 
L 402.545455 24.906068 
L 404.344379 26.187472 
L 405.818182 26.328676 
L 409.090909 26.316841 
L 412.363636 26.325588 
L 415.636364 26.60038 
L 418.909091 27.327105 
L 422.181818 27.422747 
L 423.423784 26.187472 
L 425.454545 25.108063 
L 428.727273 24.291353 
L 432 25.299957 
L 433.093741 26.187472 
L 435.272727 26.675208 
L 438.545455 26.599961 
L 441.818182 26.671759 
L 445.090909 26.813651 
L 448.363636 27.488413 
L 451.120931 29.460906 
L 451.636364 29.547769 
L 454.909091 29.531928 
L 458.181818 29.674612 
L 459.415997 29.460906 
L 461.454545 27.938632 
L 464.727273 27.470985 
L 468 27.295943 
L 471.272727 27.018287 
L 474.545455 27.233682 
L 477.818182 27.839059 
L 480.230357 29.460906 
L 481.090909 29.618809 
L 484.363636 29.781296 
L 487.636364 29.816881 
L 490.909091 30.051121 
L 494.181818 30.580273 
L 497.454545 30.888045 
L 499.405665 29.460906 
L 500.727273 28.850809 
L 504 27.965954 
L 507.272727 28.411373 
L 509.01212 29.460906 
L 510.545455 29.876061 
L 513.818182 30.032643 
L 517.090909 30.141438 
L 520.363636 30.341451 
L 523.636364 31.003433 
L 526.448625 32.73434 
L 526.909091 32.820785 
L 530.181818 32.971267 
L 533.454545 32.97575 
L 534.685276 32.73434 
L 536.727273 30.986572 
L 540 30.997415 
L 543.272727 30.698858 
L 546.545455 30.491415 
L 549.818182 30.850608 
L 553.090909 31.835485 
L 554.256235 32.73434 
L 556.363636 33.113158 
L 559.636364 33.143696 
L 562.909091 33.208969 
L 566.181818 33.373669 
L 569.454545 33.179685 
L 570.133028 32.73434 
L 572.727273 31.159243 
L 576 30.523867 
M 510.545455 39.307295 
L 510.571845 39.281208 
L 510.545455 39.231932 
L 510.519374 39.281208 
L 510.545455 39.307295 
z
" clip-path="url(#pd105d5ed65)" style="fill: none"/>
    <path d="M 264.164971 0 
L 265.090909 0.259858 
L 268.363636 1.188314 
L 271.636364 2.114567 
L 274.909091 2.70656 
L 277.512922 3.273434 
L 278.181818 3.403057 
L 281.454545 4.037265 
L 284.727273 4.635027 
L 288 5.253843 
L 291.272727 5.858506 
L 294.545455 6.478474 
L 294.834233 6.546868 
L 294.995581 6.576042 
M 313.755089 9.864775 
L 314.181818 9.928363 
L 317.454545 10.37522 
L 320.727273 10.19351 
L 323.860111 9.820302 
L 324 9.727634 
L 327.272727 8.380357 
L 330.545455 8.386563 
L 333.818182 8.388658 
L 337.090909 8.964975 
L 340.363636 9.559706 
L 341.735908 9.820302 
L 343.636364 10.170251 
L 346.909091 10.772889 
L 350.181818 11.349345 
L 353.454545 11.612893 
L 356.727273 11.924145 
L 360 12.571262 
L 363.272727 11.494234 
L 366.545455 10.104352 
L 369.818182 10.642629 
L 373.090909 11.198661 
L 376.363636 11.412601 
L 379.636364 12.00068 
L 382.909091 12.624365 
L 385.341096 13.093736 
L 386.181818 13.256184 
L 389.454545 13.907564 
L 392.727273 14.558945 
L 396 14.98669 
L 399.272727 15.543318 
L 401.894917 16.36717 
L 402.545455 16.493361 
L 405.818182 16.421784 
L 407.467053 16.36717 
L 409.090909 16.208473 
L 412.363636 16.028178 
L 415.636364 16.030554 
L 418.909091 15.921793 
L 421.203097 16.36717 
L 422.181818 16.672138 
L 425.454545 17.229592 
L 428.727273 17.525961 
L 432 18.32513 
L 435.272727 19.071265 
L 438.25615 19.640604 
L 438.545455 19.674278 
L 441.818182 20.110699 
L 445.090909 20.681982 
L 448.363636 21.140406 
L 451.636364 21.732202 
L 454.909091 22.319683 
L 458.181818 22.264116 
L 461.454545 21.585783 
L 464.727273 21.474943 
L 468 21.390861 
L 471.272727 21.429236 
L 474.545455 22.170408 
L 476.979843 22.914038 
L 477.818182 23.106055 
L 481.090909 23.598109 
L 484.363636 24.008309 
L 487.636364 24.540504 
L 490.909091 25.130146 
L 493.908554 26.187472 
L 494.181818 26.240312 
L 497.454545 26.464002 
L 500.727273 26.208018 
L 501.206888 26.187472 
L 504 25.141375 
L 507.272727 25.111608 
L 510.545455 25.073593 
L 513.818182 25.172326 
L 517.090909 25.907015 
L 518.093081 26.187472 
L 520.363636 26.67977 
L 523.636364 27.286048 
L 526.909091 27.815984 
L 530.181818 28.334342 
L 533.454545 28.735794 
L 536.727273 27.053864 
L 540 27.940937 
L 543.272727 28.306189 
L 546.545455 27.166658 
L 549.818182 26.478975 
L 551.618278 26.187472 
L 553.090909 25.972401 
L 556.363636 25.46312 
L 559.636364 24.966357 
L 562.909091 24.496933 
L 566.181818 23.72657 
L 569.454545 24.309293 
L 572.727273 24.566532 
L 576 24.573494 
" clip-path="url(#pd105d5ed65)" style="fill: none"/>
    <path d="M 544.410943 0 
L 546.545455 0.550892 
L 548.167685 1.279757 
M 565.091013 9.32113 
L 566.181818 9.66479 
L 566.558951 9.820302 
L 569.454545 12.235815 
L 572.727273 11.945848 
L 574.795887 13.093736 
L 576 13.567527 
M 565.942138 13.292466 
L 564.619491 13.093736 
L 562.909091 12.668761 
L 559.636364 12.285109 
L 556.6213 13.093736 
L 559.636364 13.52835 
L 560.709789 14.58202 
" clip-path="url(#pd105d5ed65)" style="fill: none"/>
    <path clip-path="url(#pd105d5ed65)" style="fill: none"/>
    <path clip-path="url(#pd105d5ed65)" style="fill: none"/>
    <path clip-path="url(#pd105d5ed65)" style="fill: none"/>
    <path clip-path="url(#pd105d5ed65)" style="fill: none"/>
    <path clip-path="url(#pd105d5ed65)" style="fill: none"/>
    <path clip-path="url(#pd105d5ed65)" style="fill: none"/>
    <path clip-path="url(#pd105d5ed65)" style="fill: none"/>
    <path clip-path="url(#pd105d5ed65)" style="fill: none"/>
    <path clip-path="url(#pd105d5ed65)" style="fill: none"/>
    <path clip-path="url(#pd105d5ed65)" style="fill: none"/>
    <path clip-path="url(#pd105d5ed65)" style="fill: none"/>
    <path clip-path="url(#pd105d5ed65)" style="fill: none"/>
    <path clip-path="url(#pd105d5ed65)" style="fill: none"/>
    <path clip-path="url(#pd105d5ed65)" style="fill: none"/>
    <path clip-path="url(#pd105d5ed65)" style="fill: none"/>
    <path clip-path="url(#pd105d5ed65)" style="fill: none"/>
    <path clip-path="url(#pd105d5ed65)" style="fill: none"/>
    <path clip-path="url(#pd105d5ed65)" style="fill: none"/>
    <path clip-path="url(#pd105d5ed65)" style="fill: none"/>
    <path clip-path="url(#pd105d5ed65)" style="fill: none"/>
    <path clip-path="url(#pd105d5ed65)" style="fill: none"/>
    <path clip-path="url(#pd105d5ed65)" style="fill: none"/>
    <path clip-path="url(#pd105d5ed65)" style="fill: none"/>
    <path clip-path="url(#pd105d5ed65)" style="fill: none"/>
    <path clip-path="url(#pd105d5ed65)" style="fill: none"/>
    <path clip-path="url(#pd105d5ed65)" style="fill: none"/>
    <path clip-path="url(#pd105d5ed65)" style="fill: none"/>
    <path clip-path="url(#pd105d5ed65)" style="fill: none"/>
    <path clip-path="url(#pd105d5ed65)" style="fill: none"/>
    <path clip-path="url(#pd105d5ed65)" style="fill: none"/>
    <path clip-path="url(#pd105d5ed65)" style="fill: none"/>
   </g>
   <g id="text_1">
    <g clip-path="url(#pd105d5ed65)">
     <!-- 0 -->
     <g style="opacity: 0" transform="translate(208.099757 5.540489) rotate(-342.755543) scale(0.12 -0.12)">
      <defs>
       <path id="DejaVuSans-30" d="M 2034 4250 
Q 1547 4250 1301 3770 
Q 1056 3291 1056 2328 
Q 1056 1369 1301 889 
Q 1547 409 2034 409 
Q 2525 409 2770 889 
Q 3016 1369 3016 2328 
Q 3016 3291 2770 3770 
Q 2525 4250 2034 4250 
z
M 2034 4750 
Q 2819 4750 3233 4129 
Q 3647 3509 3647 2328 
Q 3647 1150 3233 529 
Q 2819 -91 2034 -91 
Q 1250 -91 836 529 
Q 422 1150 422 2328 
Q 422 3509 836 4129 
Q 1250 4750 2034 4750 
z
" transform="scale(0.015625)"/>
      </defs>
      <use xlink:href="#DejaVuSans-30"/>
     </g>
    </g>
   </g>
   <g id="text_2">
    <g clip-path="url(#pd105d5ed65)">
     <!-- 1 -->
     <g style="opacity: 0" transform="translate(290.144731 27.740266) rotate(-348.506826) scale(0.12 -0.12)">
      <defs>
       <path id="DejaVuSans-31" d="M 794 531 
L 1825 531 
L 1825 4091 
L 703 3866 
L 703 4441 
L 1819 4666 
L 2450 4666 
L 2450 531 
L 3481 531 
L 3481 0 
L 794 0 
L 794 531 
z
" transform="scale(0.015625)"/>
      </defs>
      <use xlink:href="#DejaVuSans-31"/>
     </g>
    </g>
   </g>
   <g id="text_3">
    <g clip-path="url(#pd105d5ed65)">
     <!-- 2 -->
     <g style="opacity: 0" transform="translate(240.826742 13.616922) rotate(-342.747421) scale(0.12 -0.12)">
      <defs>
       <path id="DejaVuSans-32" d="M 1228 531 
L 3431 531 
L 3431 0 
L 469 0 
L 469 531 
Q 828 903 1448 1529 
Q 2069 2156 2228 2338 
Q 2531 2678 2651 2914 
Q 2772 3150 2772 3378 
Q 2772 3750 2511 3984 
Q 2250 4219 1831 4219 
Q 1534 4219 1204 4116 
Q 875 4013 500 3803 
L 500 4441 
Q 881 4594 1212 4672 
Q 1544 4750 1819 4750 
Q 2544 4750 2975 4387 
Q 3406 4025 3406 3419 
Q 3406 3131 3298 2873 
Q 3191 2616 2906 2266 
Q 2828 2175 2409 1742 
Q 1991 1309 1228 531 
z
" transform="scale(0.015625)"/>
      </defs>
      <use xlink:href="#DejaVuSans-32"/>
     </g>
    </g>
   </g>
   <g id="text_4">
    <g clip-path="url(#pd105d5ed65)">
     <!-- 3 -->
     <g style="opacity: 0" transform="translate(329.411269 28.155879) rotate(-348.363754) scale(0.12 -0.12)">
      <defs>
       <path id="DejaVuSans-33" d="M 2597 2516 
Q 3050 2419 3304 2112 
Q 3559 1806 3559 1356 
Q 3559 666 3084 287 
Q 2609 -91 1734 -91 
Q 1441 -91 1130 -33 
Q 819 25 488 141 
L 488 750 
Q 750 597 1062 519 
Q 1375 441 1716 441 
Q 2309 441 2620 675 
Q 2931 909 2931 1356 
Q 2931 1769 2642 2001 
Q 2353 2234 1838 2234 
L 1294 2234 
L 1294 2753 
L 1863 2753 
Q 2328 2753 2575 2939 
Q 2822 3125 2822 3475 
Q 2822 3834 2567 4026 
Q 2313 4219 1838 4219 
Q 1578 4219 1281 4162 
Q 984 4106 628 3988 
L 628 4550 
Q 988 4650 1302 4700 
Q 1616 4750 1894 4750 
Q 2613 4750 3031 4423 
Q 3450 4097 3450 3541 
Q 3450 3153 3228 2886 
Q 3006 2619 2597 2516 
z
" transform="scale(0.015625)"/>
      </defs>
      <use xlink:href="#DejaVuSans-33"/>
     </g>
    </g>
   </g>
   <g id="text_5">
    <g clip-path="url(#pd105d5ed65)">
     <!-- 4 -->
     <g style="opacity: 0" transform="translate(224.961721 5.307979) rotate(-342.803038) scale(0.12 -0.12)">
      <defs>
       <path id="DejaVuSans-34" d="M 2419 4116 
L 825 1625 
L 2419 1625 
L 2419 4116 
z
M 2253 4666 
L 3047 4666 
L 3047 1625 
L 3713 1625 
L 3713 1100 
L 3047 1100 
L 3047 0 
L 2419 0 
L 2419 1100 
L 313 1100 
L 313 1709 
L 2253 4666 
z
" transform="scale(0.015625)"/>
      </defs>
      <use xlink:href="#DejaVuSans-34"/>
     </g>
    </g>
   </g>
   <g id="text_6">
    <g clip-path="url(#pd105d5ed65)">
     <!-- 5 -->
     <g style="opacity: 0" transform="translate(263.769931 13.786717) rotate(-343.692094) scale(0.12 -0.12)">
      <defs>
       <path id="DejaVuSans-35" d="M 691 4666 
L 3169 4666 
L 3169 4134 
L 1269 4134 
L 1269 2991 
Q 1406 3038 1543 3061 
Q 1681 3084 1819 3084 
Q 2600 3084 3056 2656 
Q 3513 2228 3513 1497 
Q 3513 744 3044 326 
Q 2575 -91 1722 -91 
Q 1428 -91 1123 -41 
Q 819 9 494 109 
L 494 744 
Q 775 591 1075 516 
Q 1375 441 1709 441 
Q 2250 441 2565 725 
Q 2881 1009 2881 1497 
Q 2881 1984 2565 2268 
Q 2250 2553 1709 2553 
Q 1456 2553 1204 2497 
Q 953 2441 691 2322 
L 691 4666 
z
" transform="scale(0.015625)"/>
      </defs>
      <use xlink:href="#DejaVuSans-35"/>
     </g>
    </g>
   </g>
   <g id="text_7">
    <g clip-path="url(#pd105d5ed65)">
     <!-- 6 -->
     <g style="opacity: 0" transform="translate(300.032327 10.898912) rotate(-350.070196) scale(0.12 -0.12)">
      <defs>
       <path id="DejaVuSans-36" d="M 2113 2584 
Q 1688 2584 1439 2293 
Q 1191 2003 1191 1497 
Q 1191 994 1439 701 
Q 1688 409 2113 409 
Q 2538 409 2786 701 
Q 3034 994 3034 1497 
Q 3034 2003 2786 2293 
Q 2538 2584 2113 2584 
z
M 3366 4563 
L 3366 3988 
Q 3128 4100 2886 4159 
Q 2644 4219 2406 4219 
Q 1781 4219 1451 3797 
Q 1122 3375 1075 2522 
Q 1259 2794 1537 2939 
Q 1816 3084 2150 3084 
Q 2853 3084 3261 2657 
Q 3669 2231 3669 1497 
Q 3669 778 3244 343 
Q 2819 -91 2113 -91 
Q 1303 -91 875 529 
Q 447 1150 447 2328 
Q 447 3434 972 4092 
Q 1497 4750 2381 4750 
Q 2619 4750 2861 4703 
Q 3103 4656 3366 4563 
z
" transform="scale(0.015625)"/>
      </defs>
      <use xlink:href="#DejaVuSans-36"/>
     </g>
    </g>
   </g>
   <g id="text_8">
    <g clip-path="url(#pd105d5ed65)">
     <!-- 7 -->
     <g style="opacity: 0" transform="translate(551.556511 7.172258) rotate(-337.026138) scale(0.12 -0.12)">
      <defs>
       <path id="DejaVuSans-37" d="M 525 4666 
L 3525 4666 
L 3525 4397 
L 1831 0 
L 1172 0 
L 2766 4134 
L 525 4134 
L 525 4666 
z
" transform="scale(0.015625)"/>
      </defs>
      <use xlink:href="#DejaVuSans-37"/>
     </g>
    </g>
   </g>
   <g id="text_9">
    <g clip-path="url(#pd105d5ed65)">
     <!-- 7 -->
     <g style="opacity: 0" transform="translate(567.024048 21.631386) rotate(-20.31426) scale(0.12 -0.12)">
      <use xlink:href="#DejaVuSans-37"/>
     </g>
    </g>
   </g>
  </g>
 </g>
 <defs>
  <clipPath id="pd105d5ed65">
   <rect x="0" y="0" width="576" height="815.085071"/>
  </clipPath>
 </defs>
</svg>
