<?xml version="1.0" encoding="utf-8" standalone="no"?>
<!DOCTYPE svg PUBLIC "-//W3C//DTD SVG 1.1//EN"
  "http://www.w3.org/Graphics/SVG/1.1/DTD/svg11.dtd">
<svg xmlns:xlink="http://www.w3.org/1999/xlink" width="576pt" height="813.94799pt" viewBox="0 0 576 813.94799" xmlns="http://www.w3.org/2000/svg" version="1.1">
 <metadata>
  <rdf:RDF xmlns:dc="http://purl.org/dc/elements/1.1/" xmlns:cc="http://creativecommons.org/ns#" xmlns:rdf="http://www.w3.org/1999/02/22-rdf-syntax-ns#">
   <cc:Work>
    <dc:type rdf:resource="http://purl.org/dc/dcmitype/StillImage"/>
    <dc:date>2025-07-25T22:45:18.112828</dc:date>
    <dc:format>image/svg+xml</dc:format>
    <dc:creator>
     <cc:Agent>
      <dc:title>Matplotlib v3.10.3, https://matplotlib.org/</dc:title>
     </cc:Agent>
    </dc:creator>
   </cc:Work>
  </rdf:RDF>
 </metadata>
 <defs>
  <style type="text/css">*{stroke-linejoin: round; stroke-linecap: butt}</style>
 </defs>
 <g id="figure_1">
  <g id="patch_1">
   <path d="M 0 813.94799 
L 576 813.94799 
L 576 0 
L 0 0 
L 0 813.94799 
z
" style="fill: none; opacity: 0"/>
  </g>
  <g id="axes_1">
   <g id="QuadContourSet_1">
    <path d="M 3.272727 813.94799 
L 6.545455 813.94799 
L 9.818182 813.94799 
L 13.090909 813.94799 
L 16.363636 813.94799 
L 19.636364 813.94799 
L 22.909091 813.94799 
L 26.181818 813.94799 
L 29.454545 813.94799 
L 32.727273 813.94799 
L 36 813.94799 
L 39.272727 813.94799 
L 42.545455 813.94799 
L 45.818182 813.94799 
L 49.090909 813.94799 
L 52.363636 813.94799 
L 55.636364 813.94799 
L 58.909091 813.94799 
L 62.181818 813.94799 
L 65.454545 813.94799 
L 68.727273 813.94799 
L 72 813.94799 
L 75.272727 813.94799 
L 78.545455 813.94799 
L 81.818182 813.94799 
L 85.090909 813.94799 
L 88.363636 813.94799 
L 91.636364 813.94799 
L 94.909091 813.94799 
L 98.181818 813.94799 
L 101.454545 813.94799 
L 104.727273 813.94799 
L 108 813.94799 
L 111.272727 813.94799 
L 114.545455 813.94799 
L 117.818182 813.94799 
L 121.090909 813.94799 
L 124.363636 813.94799 
L 127.636364 813.94799 
L 130.909091 813.94799 
L 134.181818 813.94799 
L 137.454545 813.94799 
L 140.727273 813.94799 
L 144 813.94799 
L 147.272727 813.94799 
L 150.545455 813.94799 
L 153.818182 813.94799 
L 157.090909 813.94799 
L 160.363636 813.94799 
L 163.636364 813.94799 
L 166.909091 813.94799 
L 170.181818 813.94799 
L 173.454545 813.94799 
L 176.727273 813.94799 
L 180 813.94799 
L 183.272727 813.94799 
L 186.545455 813.94799 
L 189.818182 813.94799 
L 193.090909 813.94799 
L 196.363636 813.94799 
L 199.636364 813.94799 
L 202.909091 813.94799 
L 206.181818 813.94799 
L 209.454545 813.94799 
L 212.727273 813.94799 
L 216 813.94799 
L 219.272727 813.94799 
L 222.545455 813.94799 
L 225.818182 813.94799 
L 229.090909 813.94799 
L 232.363636 813.94799 
L 235.636364 813.94799 
L 238.909091 813.94799 
L 242.181818 813.94799 
L 245.454545 813.94799 
L 248.727273 813.94799 
L 252 813.94799 
L 255.272727 813.94799 
L 258.545455 813.94799 
L 261.818182 813.94799 
L 265.090909 813.94799 
L 268.363636 813.94799 
L 271.636364 813.94799 
L 274.909091 813.94799 
L 278.181818 813.94799 
L 281.454545 813.94799 
L 284.727273 813.94799 
L 288 813.94799 
L 291.272727 813.94799 
L 294.545455 813.94799 
L 297.818182 813.94799 
L 301.090909 813.94799 
L 304.363636 813.94799 
L 307.636364 813.94799 
L 310.909091 813.94799 
L 314.181818 813.94799 
L 317.454545 813.94799 
L 320.727273 813.94799 
L 324 813.94799 
L 327.272727 813.94799 
L 330.545455 813.94799 
L 333.818182 813.94799 
L 337.090909 813.94799 
L 340.363636 813.94799 
L 343.636364 813.94799 
L 346.909091 813.94799 
L 350.181818 813.94799 
L 353.454545 813.94799 
L 356.727273 813.94799 
L 360 813.94799 
L 363.272727 813.94799 
L 366.545455 813.94799 
L 369.818182 813.94799 
L 373.090909 813.94799 
L 376.363636 813.94799 
L 379.636364 813.94799 
L 382.909091 813.94799 
L 386.181818 813.94799 
L 389.454545 813.94799 
L 392.727273 813.94799 
L 396 813.94799 
L 399.272727 813.94799 
L 402.545455 813.94799 
L 405.818182 813.94799 
L 409.090909 813.94799 
L 412.363636 813.94799 
L 415.636364 813.94799 
L 418.909091 813.94799 
L 422.181818 813.94799 
L 425.454545 813.94799 
L 428.727273 813.94799 
L 432 813.94799 
L 435.272727 813.94799 
L 438.545455 813.94799 
L 441.818182 813.94799 
L 445.090909 813.94799 
L 448.363636 813.94799 
L 451.636364 813.94799 
L 454.909091 813.94799 
L 458.181818 813.94799 
L 461.454545 813.94799 
L 464.727273 813.94799 
L 468 813.94799 
L 471.272727 813.94799 
L 474.545455 813.94799 
L 477.818182 813.94799 
L 481.090909 813.94799 
L 484.363636 813.94799 
L 487.636364 813.94799 
L 490.909091 813.94799 
L 494.181818 813.94799 
L 497.454545 813.94799 
L 500.727273 813.94799 
L 504 813.94799 
L 507.272727 813.94799 
L 510.545455 813.94799 
L 513.818182 813.94799 
L 517.090909 813.94799 
L 520.363636 813.94799 
L 523.636364 813.94799 
L 526.909091 813.94799 
L 530.181818 813.94799 
L 533.454545 813.94799 
L 536.727273 813.94799 
L 540 813.94799 
L 543.272727 813.94799 
L 546.545455 813.94799 
L 549.818182 813.94799 
L 553.090909 813.94799 
L 556.363636 813.94799 
L 559.636364 813.94799 
L 562.909091 813.94799 
L 566.181818 813.94799 
L 569.454545 813.94799 
L 572.727273 813.94799 
L 576 813.94799 
L 576 810.679122 
L 576 807.410255 
L 576 804.141387 
L 576 800.87252 
L 576 797.603653 
L 576 794.334785 
L 576 791.065918 
L 576 787.79705 
L 576 784.528183 
L 576 781.259315 
L 576 777.990448 
L 576 774.721581 
L 576 771.452713 
L 576 768.183846 
L 576 764.914978 
L 576 761.646111 
L 576 758.377243 
L 576 755.108376 
L 576 751.839509 
L 576 748.570641 
L 576 745.301774 
L 576 742.032906 
L 576 738.764039 
L 576 735.495171 
L 576 732.226304 
L 576 728.957437 
L 576 725.688569 
L 576 722.419702 
L 576 719.150834 
L 576 715.881967 
L 576 712.613099 
L 576 709.344232 
L 576 706.075365 
L 576 702.806497 
L 576 699.53763 
L 576 696.268762 
L 576 692.999895 
L 576 689.731027 
L 576 686.46216 
L 576 683.193293 
L 576 679.924425 
L 576 676.655558 
L 576 673.38669 
L 576 670.117823 
L 576 666.848955 
L 576 663.580088 
L 576 660.311221 
L 576 657.042353 
L 576 653.773486 
L 576 650.504618 
L 576 647.235751 
L 576 643.966883 
L 576 640.698016 
L 576 637.429149 
L 576 634.160281 
L 576 630.891414 
L 576 627.622546 
L 576 624.353679 
L 576 621.084811 
L 576 617.815944 
L 576 614.547077 
L 576 611.278209 
L 576 608.009342 
L 576 604.740474 
L 576 601.471607 
L 576 598.202739 
L 576 594.933872 
L 576 591.665005 
L 576 588.396137 
L 576 585.12727 
L 576 581.858402 
L 576 578.589535 
L 576 575.320667 
L 576 572.0518 
L 576 568.782933 
L 576 565.514065 
L 576 562.245198 
L 576 558.97633 
L 576 555.707463 
L 576 552.438595 
L 576 549.169728 
L 576 545.900861 
L 576 542.631993 
L 576 539.363126 
L 576 536.094258 
L 576 532.825391 
L 576 529.556523 
L 576 526.287656 
L 576 523.018789 
L 576 519.749921 
L 576 516.481054 
L 576 513.212186 
L 576 509.943319 
L 576 506.674451 
L 576 503.405584 
L 576 500.136717 
L 576 496.867849 
L 576 493.598982 
L 576 490.330114 
L 576 487.061247 
L 576 483.792379 
L 576 480.523512 
L 576 477.254645 
L 576 473.985777 
L 576 470.71691 
L 576 467.448042 
L 576 464.179175 
L 576 460.910307 
L 576 457.64144 
L 576 454.372573 
L 576 451.103705 
L 576 447.834838 
L 576 444.56597 
L 576 441.297103 
L 576 438.028235 
L 576 434.759368 
L 576 431.490501 
L 576 428.221633 
L 576 424.952766 
L 576 421.683898 
L 576 418.415031 
L 576 415.146163 
L 576 411.877296 
L 576 408.608429 
L 576 405.339561 
L 576 402.070694 
L 576 398.801826 
L 576 395.532959 
L 576 392.264091 
L 576 388.995224 
L 576 385.726357 
L 576 382.457489 
L 576 379.188622 
L 576 375.919754 
L 576 372.650887 
L 576 369.382019 
L 576 366.113152 
L 576 362.844285 
L 576 359.575417 
L 576 356.30655 
L 576 353.037682 
L 576 349.768815 
L 576 346.499947 
L 576 343.23108 
L 576 339.962213 
L 576 336.693345 
L 576 333.424478 
L 576 330.15561 
L 576 326.886743 
L 576 323.617875 
L 576 320.349008 
L 576 317.080141 
L 576 313.811273 
L 576 310.542406 
L 576 307.273538 
L 576 304.004671 
L 576 300.735803 
L 576 297.466936 
L 576 294.198069 
L 576 290.929201 
L 576 287.660334 
L 576 284.391466 
L 576 281.122599 
L 576 277.853731 
L 576 274.584864 
L 576 271.315997 
L 576 268.047129 
L 576 264.778262 
L 576 261.509394 
L 576 258.240527 
L 576 254.971659 
L 576 251.702792 
L 576 248.433925 
L 576 245.165057 
L 576 241.89619 
L 576 238.627322 
L 576 235.358455 
L 576 232.089587 
L 576 228.82072 
L 576 225.551853 
L 576 222.282985 
L 576 219.014118 
L 576 215.74525 
L 576 212.476383 
L 576 209.207515 
L 576 205.938648 
L 576 202.669781 
L 576 199.400913 
L 576 196.132046 
L 576 192.863178 
L 576 189.594311 
L 576 186.325443 
L 576 183.056576 
L 576 179.787709 
L 576 176.518841 
L 576 173.249974 
L 576 169.981106 
L 576 166.712239 
L 576 163.443371 
L 576 160.174504 
L 576 156.905637 
L 576 153.636769 
L 576 150.367902 
L 576 147.099034 
L 576 143.830167 
L 576 140.561299 
L 576 137.292432 
L 576 134.023565 
L 576 130.754697 
L 576 127.48583 
L 576 124.216962 
L 576 120.948095 
L 576 117.679227 
L 576 114.41036 
L 576 111.141493 
L 576 107.872625 
L 576 104.603758 
L 576 101.33489 
L 576 98.066023 
L 576 94.797155 
L 576 91.528288 
L 576 88.259421 
L 576 84.990553 
L 576 81.721686 
L 576 78.452818 
L 576 75.183951 
L 576 71.915083 
L 576 68.646216 
L 576 65.377349 
L 576 62.108481 
L 576 58.839614 
L 576 55.570746 
L 576 52.301879 
L 576 49.033011 
L 576 45.764144 
L 576 42.495277 
L 576 39.226409 
L 576 35.957542 
L 576 32.688674 
L 576 29.419807 
L 576 26.150939 
L 576 22.882072 
L 576 19.613205 
L 576 16.344337 
L 576 13.07547 
L 576 9.806602 
L 576 6.537735 
L 576 3.268867 
L 576 0 
L 572.727273 0 
L 569.454545 0 
L 566.181818 0 
L 562.909091 0 
L 559.636364 0 
L 556.363636 0 
L 553.090909 0 
L 549.818182 0 
L 546.545455 0 
L 543.272727 0 
L 540 0 
L 536.727273 0 
L 533.454545 0 
L 530.181818 0 
L 526.909091 0 
L 523.636364 0 
L 520.363636 0 
L 517.090909 0 
L 513.818182 0 
L 510.545455 0 
L 507.272727 0 
L 504 0 
L 500.727273 0 
L 497.454545 0 
L 494.181818 0 
L 490.909091 0 
L 487.636364 0 
L 484.363636 0 
L 481.090909 0 
L 477.818182 0 
L 474.545455 0 
L 471.272727 0 
L 468 0 
L 464.727273 0 
L 461.454545 0 
L 458.181818 0 
L 454.909091 0 
L 451.636364 0 
L 448.363636 0 
L 445.090909 0 
L 441.818182 0 
L 438.545455 0 
L 435.272727 0 
L 432 0 
L 428.727273 0 
L 425.454545 0 
L 422.181818 0 
L 418.909091 0 
L 415.636364 0 
L 412.363636 0 
L 409.090909 0 
L 405.818182 0 
L 402.545455 0 
L 399.272727 0 
L 396 0 
L 392.727273 0 
L 389.454545 0 
L 386.181818 0 
L 382.909091 0 
L 379.636364 0 
L 376.363636 0 
L 373.090909 0 
L 369.818182 0 
L 366.545455 0 
L 363.272727 0 
L 360 0 
L 356.727273 0 
L 353.454545 0 
L 350.181818 0 
L 346.909091 0 
L 343.636364 0 
L 340.363636 0 
L 337.090909 0 
L 333.818182 0 
L 330.545455 0 
L 327.272727 0 
L 324 0 
L 320.727273 0 
L 317.454545 0 
L 314.181818 0 
L 310.909091 0 
L 307.636364 0 
L 304.363636 0 
L 301.090909 0 
L 297.818182 0 
L 294.545455 0 
L 291.272727 0 
L 288 0 
L 284.727273 0 
L 281.454545 0 
L 278.181818 0 
L 274.909091 0 
L 271.636364 0 
L 268.363636 0 
L 265.090909 0 
L 261.818182 0 
L 258.545455 0 
L 255.272727 0 
L 252 0 
L 248.727273 0 
L 245.454545 0 
L 242.181818 0 
L 238.909091 0 
L 235.636364 0 
L 232.363636 0 
L 229.090909 0 
L 225.818182 0 
L 222.545455 0 
L 219.272727 0 
L 216 0 
L 212.727273 0 
L 209.454545 0 
L 206.181818 0 
L 202.909091 0 
L 199.636364 0 
L 196.363636 0 
L 193.090909 0 
L 189.818182 0 
L 186.545455 0 
L 183.272727 0 
L 180 0 
L 176.727273 0 
L 173.454545 0 
L 170.181818 0 
L 166.909091 0 
L 163.636364 0 
L 160.363636 0 
L 157.090909 0 
L 153.818182 0 
L 150.545455 0 
L 147.272727 0 
L 144 0 
L 140.727273 0 
L 137.454545 0 
L 134.181818 0 
L 130.909091 0 
L 127.636364 0 
L 124.363636 0 
L 121.090909 0 
L 117.818182 0 
L 114.545455 0 
L 111.272727 0 
L 108 0 
L 104.727273 0 
L 101.454545 0 
L 98.181818 0 
L 94.909091 0 
L 91.636364 0 
L 88.363636 0 
L 85.090909 0 
L 81.818182 0 
L 78.545455 0 
L 75.272727 0 
L 72 0 
L 68.727273 0 
L 65.454545 0 
L 62.181818 0 
L 58.909091 0 
L 55.636364 0 
L 52.363636 0 
L 49.090909 0 
L 45.818182 0 
L 42.545455 0 
L 39.272727 0 
L 36 0 
L 32.727273 0 
L 29.454545 0 
L 26.181818 0 
L 22.909091 0 
L 19.636364 0 
L 16.363636 0 
L 13.090909 0 
L 9.818182 0 
L 6.545455 0 
L 3.272727 0 
L 0 0 
L 0 3.268867 
L 0 6.537735 
L 0 9.806602 
L 0 13.07547 
L 0 16.344337 
L 0 19.613205 
L 0 22.882072 
L 0 26.150939 
L 0 29.419807 
L 0 32.688674 
L 0 35.957542 
L 0 39.226409 
L 0 42.495277 
L 0 45.764144 
L 0 49.033011 
L 0 52.301879 
L 0 55.570746 
L 0 58.839614 
L 0 62.108481 
L 0 65.377349 
L 0 68.646216 
L 0 71.915083 
L 0 75.183951 
L 0 78.452818 
L 0 81.721686 
L 0 84.990553 
L 0 88.259421 
L 0 91.528288 
L 0 94.797155 
L 0 98.066023 
L 0 101.33489 
L 0 104.603758 
L 0 107.872625 
L 0 111.141493 
L 0 114.41036 
L 0 117.679227 
L 0 120.948095 
L 0 124.216962 
L 0 127.48583 
L 0 130.754697 
L 0 134.023565 
L 0 137.292432 
L 0 140.561299 
L 0 143.830167 
L 0 147.099034 
L 0 150.367902 
L 0 153.636769 
L 0 156.905637 
L 0 160.174504 
L 0 163.443371 
L 0 166.712239 
L 0 169.981106 
L 0 173.249974 
L 0 176.518841 
L 0 179.787709 
L 0 183.056576 
L 0 186.325443 
L 0 189.594311 
L 0 192.863178 
L 0 196.132046 
L 0 199.400913 
L 0 202.669781 
L 0 205.938648 
L 0 209.207515 
L 0 212.476383 
L 0 215.74525 
L 0 219.014118 
L 0 222.282985 
L 0 225.551853 
L 0 228.82072 
L 0 232.089587 
L 0 235.358455 
L 0 238.627322 
L 0 241.89619 
L 0 245.165057 
L 0 248.433925 
L 0 251.702792 
L 0 254.971659 
L 0 258.240527 
L 0 261.509394 
L 0 264.778262 
L 0 268.047129 
L 0 271.315997 
L 0 274.584864 
L 0 277.853731 
L 0 281.122599 
L 0 284.391466 
L 0 287.660334 
L 0 290.929201 
L 0 294.198069 
L 0 297.466936 
L 0 300.735803 
L 0 304.004671 
L 0 307.273538 
L 0 310.542406 
L 0 313.811273 
L 0 317.080141 
L 0 320.349008 
L 0 323.617875 
L 0 326.886743 
L 0 330.15561 
L 0 333.424478 
L 0 336.693345 
L 0 339.962213 
L 0 343.23108 
L 0 346.499947 
L 0 349.768815 
L 0 353.037682 
L 0 356.30655 
L 0 359.575417 
L 0 362.844285 
L 0 366.113152 
L 0 369.382019 
L 0 372.650887 
L 0 375.919754 
L 0 379.188622 
L 0 382.457489 
L 0 385.726357 
L 0 388.995224 
L 0 392.264091 
L 0 395.532959 
L 0 398.801826 
L 0 402.070694 
L 0 405.339561 
L 0 408.608429 
L 0 411.877296 
L 0 415.146163 
L 0 418.415031 
L 0 421.683898 
L 0 424.952766 
L 0 428.221633 
L 0 431.490501 
L 0 434.759368 
L 0 438.028235 
L 0 441.297103 
L 0 444.56597 
L 0 447.834838 
L 0 451.103705 
L 0 454.372573 
L 0 457.64144 
L 0 460.910307 
L 0 464.179175 
L 0 467.448042 
L 0 470.71691 
L 0 473.985777 
L 0 477.254645 
L 0 480.523512 
L 0 483.792379 
L 0 487.061247 
L 0 490.330114 
L 0 493.598982 
L 0 496.867849 
L 0 500.136717 
L 0 503.405584 
L 0 506.674451 
L 0 509.943319 
L 0 513.212186 
L 0 516.481054 
L 0 519.749921 
L 0 523.018789 
L 0 526.287656 
L 0 529.556523 
L 0 532.825391 
L 0 536.094258 
L 0 539.363126 
L 0 542.631993 
L 0 545.900861 
L 0 549.169728 
L 0 552.438595 
L 0 555.707463 
L 0 558.97633 
L 0 562.245198 
L 0 565.514065 
L 0 568.782933 
L 0 572.0518 
L 0 575.320667 
L 0 578.589535 
L 0 581.858402 
L 0 585.12727 
L 0 588.396137 
L 0 591.665005 
L 0 594.933872 
L 0 598.202739 
L 0 601.471607 
L 0 604.740474 
L 0 608.009342 
L 0 611.278209 
L 0 614.547077 
L 0 617.815944 
L 0 621.084811 
L 0 624.353679 
L 0 627.622546 
L 0 630.891414 
L 0 634.160281 
L 0 637.429149 
L 0 640.698016 
L 0 643.966883 
L 0 647.235751 
L 0 650.504618 
L 0 653.773486 
L 0 657.042353 
L 0 660.311221 
L 0 663.580088 
L 0 666.848955 
L 0 670.117823 
L 0 673.38669 
L 0 676.655558 
L 0 679.924425 
L 0 683.193293 
L 0 686.46216 
L 0 689.731027 
L 0 692.999895 
L 0 696.268762 
L 0 699.53763 
L 0 702.806497 
L 0 706.075365 
L 0 709.344232 
L 0 712.613099 
L 0 715.881967 
L 0 719.150834 
L 0 722.419702 
L 0 725.688569 
L 0 728.957437 
L 0 732.226304 
L 0 735.495171 
L 0 738.764039 
L 0 742.032906 
L 0 745.301774 
L 0 748.570641 
L 0 751.839509 
L 0 755.108376 
L 0 758.377243 
L 0 761.646111 
L 0 764.914978 
L 0 768.183846 
L 0 771.452713 
L 0 774.721581 
L 0 777.990448 
L 0 781.259315 
L 0 784.528183 
L 0 787.79705 
L 0 791.065918 
L 0 794.334785 
L 0 797.603653 
L 0 800.87252 
L 0 804.141387 
L 0 807.410255 
L 0 810.679122 
L 0 813.94799 
z
" clip-path="url(#p667b740637)" style="fill: #f5f9fe; fill-opacity: 0.9"/>
    <path clip-path="url(#p667b740637)" style="fill: #eff6fc; fill-opacity: 0.9"/>
    <path clip-path="url(#p667b740637)" style="fill: #eaf3fb; fill-opacity: 0.9"/>
    <path clip-path="url(#p667b740637)" style="fill: #e5eff9; fill-opacity: 0.9"/>
    <path clip-path="url(#p667b740637)" style="fill: #dfecf7; fill-opacity: 0.9"/>
    <path clip-path="url(#p667b740637)" style="fill: #dae8f6; fill-opacity: 0.9"/>
    <path clip-path="url(#p667b740637)" style="fill: #d6e5f4; fill-opacity: 0.9"/>
    <path clip-path="url(#p667b740637)" style="fill: #d0e2f2; fill-opacity: 0.9"/>
    <path clip-path="url(#p667b740637)" style="fill: #cbdef1; fill-opacity: 0.9"/>
    <path clip-path="url(#p667b740637)" style="fill: #c6dbef; fill-opacity: 0.9"/>
    <path clip-path="url(#p667b740637)" style="fill: #bed8ec; fill-opacity: 0.9"/>
    <path clip-path="url(#p667b740637)" style="fill: #b5d4e9; fill-opacity: 0.9"/>
    <path clip-path="url(#p667b740637)" style="fill: #add0e6; fill-opacity: 0.9"/>
    <path clip-path="url(#p667b740637)" style="fill: #a5cde3; fill-opacity: 0.9"/>
    <path clip-path="url(#p667b740637)" style="fill: #9cc9e1; fill-opacity: 0.9"/>
    <path clip-path="url(#p667b740637)" style="fill: #91c3de; fill-opacity: 0.9"/>
    <path clip-path="url(#p667b740637)" style="fill: #85bcdc; fill-opacity: 0.9"/>
    <path clip-path="url(#p667b740637)" style="fill: #7cb7da; fill-opacity: 0.9"/>
    <path clip-path="url(#p667b740637)" style="fill: #71b1d7; fill-opacity: 0.9"/>
    <path clip-path="url(#p667b740637)" style="fill: #66abd4; fill-opacity: 0.9"/>
    <path clip-path="url(#p667b740637)" style="fill: #5da5d1; fill-opacity: 0.9"/>
    <path clip-path="url(#p667b740637)" style="fill: #56a0ce; fill-opacity: 0.9"/>
    <path clip-path="url(#p667b740637)" style="fill: #4d99ca; fill-opacity: 0.9"/>
    <path clip-path="url(#p667b740637)" style="fill: #4493c7; fill-opacity: 0.9"/>
    <path clip-path="url(#p667b740637)" style="fill: #3c8cc3; fill-opacity: 0.9"/>
    <path clip-path="url(#p667b740637)" style="fill: #3686c0; fill-opacity: 0.9"/>
    <path clip-path="url(#p667b740637)" style="fill: #2f7fbc; fill-opacity: 0.9"/>
    <path clip-path="url(#p667b740637)" style="fill: #2777b8; fill-opacity: 0.9"/>
    <path clip-path="url(#p667b740637)" style="fill: #2070b4; fill-opacity: 0.9"/>
    <path clip-path="url(#p667b740637)" style="fill: #1c6ab0; fill-opacity: 0.9"/>
    <path clip-path="url(#p667b740637)" style="fill: #1663aa; fill-opacity: 0.9"/>
    <path clip-path="url(#p667b740637)" style="fill: #115ca5; fill-opacity: 0.9"/>
    <path clip-path="url(#p667b740637)" style="fill: #0c56a0; fill-opacity: 0.9"/>
    <path clip-path="url(#p667b740637)" style="fill: #084f99; fill-opacity: 0.9"/>
    <path clip-path="url(#p667b740637)" style="fill: #08488e; fill-opacity: 0.9"/>
    <path clip-path="url(#p667b740637)" style="fill: #084184; fill-opacity: 0.9"/>
    <path clip-path="url(#p667b740637)" style="fill: #083a7a; fill-opacity: 0.9"/>
    <path clip-path="url(#p667b740637)" style="fill: #083370; fill-opacity: 0.9"/>
    <path clip-path="url(#p667b740637)" style="fill: #08306b; fill-opacity: 0.9"/>
   </g>
   <g id="QuadContourSet_2">
    <path clip-path="url(#p667b740637)" style="fill: none"/>
    <path clip-path="url(#p667b740637)" style="fill: none"/>
    <path clip-path="url(#p667b740637)" style="fill: none"/>
    <path clip-path="url(#p667b740637)" style="fill: none"/>
    <path clip-path="url(#p667b740637)" style="fill: none"/>
    <path clip-path="url(#p667b740637)" style="fill: none"/>
    <path clip-path="url(#p667b740637)" style="fill: none"/>
    <path clip-path="url(#p667b740637)" style="fill: none"/>
    <path clip-path="url(#p667b740637)" style="fill: none"/>
    <path clip-path="url(#p667b740637)" style="fill: none"/>
    <path clip-path="url(#p667b740637)" style="fill: none"/>
    <path clip-path="url(#p667b740637)" style="fill: none"/>
    <path clip-path="url(#p667b740637)" style="fill: none"/>
    <path clip-path="url(#p667b740637)" style="fill: none"/>
    <path clip-path="url(#p667b740637)" style="fill: none"/>
    <path clip-path="url(#p667b740637)" style="fill: none"/>
    <path clip-path="url(#p667b740637)" style="fill: none"/>
    <path clip-path="url(#p667b740637)" style="fill: none"/>
    <path clip-path="url(#p667b740637)" style="fill: none"/>
    <path clip-path="url(#p667b740637)" style="fill: none"/>
    <path clip-path="url(#p667b740637)" style="fill: none"/>
    <path clip-path="url(#p667b740637)" style="fill: none"/>
    <path clip-path="url(#p667b740637)" style="fill: none"/>
    <path clip-path="url(#p667b740637)" style="fill: none"/>
    <path clip-path="url(#p667b740637)" style="fill: none"/>
    <path clip-path="url(#p667b740637)" style="fill: none"/>
    <path clip-path="url(#p667b740637)" style="fill: none"/>
    <path clip-path="url(#p667b740637)" style="fill: none"/>
    <path clip-path="url(#p667b740637)" style="fill: none"/>
    <path clip-path="url(#p667b740637)" style="fill: none"/>
    <path clip-path="url(#p667b740637)" style="fill: none"/>
    <path clip-path="url(#p667b740637)" style="fill: none"/>
    <path clip-path="url(#p667b740637)" style="fill: none"/>
    <path clip-path="url(#p667b740637)" style="fill: none"/>
    <path clip-path="url(#p667b740637)" style="fill: none"/>
    <path clip-path="url(#p667b740637)" style="fill: none"/>
    <path clip-path="url(#p667b740637)" style="fill: none"/>
    <path clip-path="url(#p667b740637)" style="fill: none"/>
    <path clip-path="url(#p667b740637)" style="fill: none"/>
   </g>
  </g>
 </g>
 <defs>
  <clipPath id="p667b740637">
   <rect x="0" y="0" width="576" height="813.94799"/>
  </clipPath>
 </defs>
</svg>
