<?xml version="1.0" encoding="utf-8" standalone="no"?>
<!DOCTYPE svg PUBLIC "-//W3C//DTD SVG 1.1//EN"
  "http://www.w3.org/Graphics/SVG/1.1/DTD/svg11.dtd">
<svg xmlns:xlink="http://www.w3.org/1999/xlink" width="576pt" height="819.391854pt" viewBox="0 0 576 819.391854" xmlns="http://www.w3.org/2000/svg" version="1.1">
 <metadata>
  <rdf:RDF xmlns:dc="http://purl.org/dc/elements/1.1/" xmlns:cc="http://creativecommons.org/ns#" xmlns:rdf="http://www.w3.org/1999/02/22-rdf-syntax-ns#">
   <cc:Work>
    <dc:type rdf:resource="http://purl.org/dc/dcmitype/StillImage"/>
    <dc:date>2025-07-25T22:44:31.260045</dc:date>
    <dc:format>image/svg+xml</dc:format>
    <dc:creator>
     <cc:Agent>
      <dc:title>Matplotlib v3.10.3, https://matplotlib.org/</dc:title>
     </cc:Agent>
    </dc:creator>
   </cc:Work>
  </rdf:RDF>
 </metadata>
 <defs>
  <style type="text/css">*{stroke-linejoin: round; stroke-linecap: butt}</style>
 </defs>
 <g id="figure_1">
  <g id="patch_1">
   <path d="M 0 819.391854 
L 576 819.391854 
L 576 0 
L 0 0 
L 0 819.391854 
z
" style="fill: none; opacity: 0"/>
  </g>
  <g id="axes_1">
   <g id="QuadContourSet_1">
    <path d="M 488.201448 816.101124 
L 490.422857 813.880186 
L 493.714286 814.660113 
L 495.971256 816.101124 
L 493.714286 818.215786 
L 492.435545 819.391854 
L 493.405027 819.391854 
L 493.714286 819.107426 
L 494.832766 819.391854 
L 497.005714 819.391854 
L 500.297143 819.391854 
L 500.613692 819.391854 
L 502.315252 816.101124 
L 503.588571 815.125237 
L 504.674365 812.810393 
L 506.164558 809.519663 
L 506.88 808.703102 
L 508.125626 806.228933 
L 510.032568 802.938202 
L 510.171429 802.796967 
L 513.09015 799.647472 
L 513.462857 799.245296 
L 516.139758 796.356742 
L 516.754286 795.693626 
L 519.437671 793.066011 
L 520.045714 792.404544 
L 523.333605 789.775281 
L 523.337143 789.771306 
L 526.628571 788.225772 
L 529.242113 786.484551 
L 529.92 786.000643 
L 530.811125 783.19382 
L 533.211429 780.388361 
L 533.498103 779.90309 
L 534.949453 776.61236 
L 536.502857 774.199913 
L 537.075906 773.321629 
L 539.794286 770.298378 
L 540.116687 770.030899 
L 543.077775 766.740169 
L 541.286705 763.449438 
L 540.49703 760.158708 
L 543.085714 757.570573 
L 543.788459 756.867978 
L 543.788459 753.577247 
L 546.377143 750.989113 
L 548.194177 753.577247 
L 549.668571 754.88457 
L 552.96 756.80706 
L 556.251429 755.572728 
L 557.609631 753.577247 
L 559.542857 752.191115 
L 560.359974 750.286517 
L 562.276566 746.995787 
L 562.834286 746.492817 
L 564.433869 743.705056 
L 566.125714 741.589352 
L 567.213937 740.414326 
L 569.417143 738.03538 
L 570.403639 737.123596 
L 569.417143 736.447505 
L 567.459701 733.832865 
L 569.417143 731.875838 
L 570.751129 730.542135 
L 570.02825 727.251405 
L 572.708571 724.571651 
L 576 725.291618 
L 576 724.844791 
L 572.708571 723.960674 
L 569.417143 727.251405 
L 570.304837 730.542135 
L 569.417143 731.429641 
L 567.013408 733.832865 
L 569.417143 737.043637 
L 569.533813 737.123596 
L 569.417143 737.231429 
L 566.469377 740.414326 
L 566.125714 740.785401 
L 563.790982 743.705056 
L 562.834286 745.37239 
L 561.034176 746.995787 
L 559.629214 750.286517 
L 559.542857 750.487804 
L 556.251429 752.848706 
L 555.622202 753.577247 
L 552.96 755.658462 
L 549.668571 754.447198 
L 548.687443 753.577247 
L 546.377143 750.286517 
L 543.085714 753.577247 
L 543.085714 756.867978 
L 543.085714 756.867978 
L 539.794286 760.158708 
L 540.798331 763.449438 
L 542.003299 766.740169 
L 539.794286 769.193636 
L 538.956845 770.030899 
L 536.502857 772.916081 
L 536.097223 773.321629 
L 534.154062 776.61236 
L 533.211429 778.788324 
L 531.698886 779.90309 
L 529.92 782.60127 
L 529.35175 783.19382 
L 526.628571 785.270132 
L 525.62305 786.484551 
L 523.337143 788.127301 
L 522.620201 786.484551 
L 520.045714 784.392492 
L 516.754286 783.19382 
L 513.462857 786.484551 
L 514.657482 789.775281 
L 516.754286 792.098312 
L 518.362046 793.066011 
L 516.754286 794.640356 
L 515.163665 796.356742 
L 513.462857 798.192027 
L 512.114057 799.647472 
L 510.171429 801.743697 
L 508.997011 802.938202 
L 507.347041 806.228933 
L 506.88 807.156609 
L 504.809575 809.519663 
L 503.843892 812.810393 
L 503.588571 813.35472 
L 500.297143 815.275672 
L 498.347717 816.101124 
L 497.005714 816.506314 
L 496.922899 816.101124 
L 493.714286 814.052516 
L 490.422857 812.810393 
L 487.131429 816.101124 
L 488.465531 819.391854 
L 489.101843 819.391854 
z
M 515.241846 789.775281 
L 514.380153 786.484551 
L 516.754286 784.110922 
L 520.045714 784.975533 
L 521.902711 786.484551 
L 520.045714 788.246025 
L 518.516134 789.775281 
L 516.754286 791.450901 
z
M 519.196861 789.775281 
L 520.045714 788.926608 
L 521.870356 789.775281 
L 520.045714 791.234412 
z
M 572.708571 734.600856 
L 573.671377 733.832865 
L 572.708571 733.321645 
L 572.197243 733.832865 
z
M 576 731.191069 
L 576 730.542135 
L 576 730.217978 
L 575.675774 730.542135 
z
" clip-path="url(#p3b09d619d6)" style="fill: #f5f9fe; fill-opacity: 0.9"/>
    <path d="M 489.271467 816.101124 
L 490.422857 814.949978 
L 493.714286 815.26771 
L 495.019613 816.101124 
L 493.714286 817.324147 
L 491.466064 819.391854 
L 492.435545 819.391854 
L 493.714286 818.215786 
L 495.971256 816.101124 
L 493.714286 814.660113 
L 490.422857 813.880186 
L 488.201448 816.101124 
L 489.101843 819.391854 
L 489.738156 819.391854 
z
M 503.588571 816.795209 
L 504.156354 816.101124 
L 505.504839 812.810393 
L 506.88 810.249594 
L 507.53086 809.519663 
L 508.904211 806.228933 
L 510.171429 804.080962 
L 511.498477 802.938202 
L 513.462857 800.718147 
L 514.984588 799.647472 
L 516.754286 797.475753 
L 519.070246 796.356742 
L 520.045714 795.487613 
L 523.337143 793.834666 
L 524.464207 793.066011 
L 526.628571 791.435927 
L 527.417742 789.775281 
L 529.92 787.635286 
L 530.563492 786.484551 
L 531.867982 783.19382 
L 533.211429 781.623608 
L 534.227826 779.90309 
L 535.744844 776.61236 
L 536.502857 775.43516 
L 537.881862 773.321629 
L 539.794286 771.194723 
L 541.197082 770.030899 
L 543.085714 767.931984 
L 544.629763 766.740169 
L 543.085714 765.851659 
L 541.775078 763.449438 
L 541.199775 760.158708 
L 543.085714 758.273169 
L 544.491204 756.867978 
L 544.491204 753.577247 
L 546.377143 751.691708 
L 547.70091 753.577247 
L 549.668571 755.321942 
L 552.26455 756.867978 
L 549.668571 759.838519 
L 549.259369 760.158708 
L 549.668571 761.58419 
L 552.96 760.456264 
L 553.570468 760.158708 
L 556.251429 758.928179 
L 556.863894 756.867978 
L 559.542857 753.785885 
L 559.683571 753.577247 
L 561.090734 750.286517 
L 562.834286 747.613243 
L 563.263213 746.995787 
L 565.076757 743.705056 
L 566.125714 742.393303 
L 567.958498 740.414326 
L 569.417143 738.839331 
L 571.273466 737.123596 
L 569.417143 735.851373 
L 567.905993 733.832865 
L 569.417143 732.322036 
L 571.197421 730.542135 
L 570.639357 727.251405 
L 572.708571 725.182629 
L 576 725.738444 
L 576 725.291618 
L 572.708571 724.571651 
L 570.02825 727.251405 
L 570.751129 730.542135 
L 569.417143 731.875838 
L 567.459701 733.832865 
L 569.417143 736.447505 
L 570.403639 737.123596 
L 569.417143 738.03538 
L 567.213937 740.414326 
L 566.125714 741.589352 
L 564.433869 743.705056 
L 562.834286 746.492817 
L 562.276566 746.995787 
L 560.359974 750.286517 
L 559.542857 752.191115 
L 557.609631 753.577247 
L 556.251429 755.572728 
L 552.96 756.80706 
L 549.668571 754.88457 
L 548.194177 753.577247 
L 546.377143 750.989113 
L 543.788459 753.577247 
L 543.788459 756.867978 
L 543.085714 757.570573 
L 540.49703 760.158708 
L 541.286705 763.449438 
L 543.077775 766.740169 
L 540.116687 770.030899 
L 539.794286 770.298378 
L 537.075906 773.321629 
L 536.502857 774.199913 
L 534.949453 776.61236 
L 533.498103 779.90309 
L 533.211429 780.388361 
L 530.811125 783.19382 
L 529.92 786.000643 
L 529.242113 786.484551 
L 526.628571 788.225772 
L 523.337143 789.771306 
L 523.333605 789.775281 
L 520.045714 792.404544 
L 519.437671 793.066011 
L 516.754286 795.693626 
L 516.139758 796.356742 
L 513.462857 799.245296 
L 513.09015 799.647472 
L 510.171429 802.796967 
L 510.032568 802.938202 
L 508.125626 806.228933 
L 506.88 808.703102 
L 506.164558 809.519663 
L 504.674365 812.810393 
L 503.588571 815.125237 
L 502.315252 816.101124 
L 500.613692 819.391854 
L 501.724113 819.391854 
z
M 516.754286 791.450901 
L 518.516134 789.775281 
L 520.045714 788.246025 
L 521.902711 786.484551 
L 520.045714 784.975533 
L 516.754286 784.110922 
L 514.380153 786.484551 
L 515.241846 789.775281 
z
M 515.826209 789.775281 
L 515.29745 786.484551 
L 516.754286 785.028024 
L 520.045714 785.558574 
L 521.185221 786.484551 
L 520.045714 787.565442 
L 517.835407 789.775281 
L 516.754286 790.80349 
z
M 546.377143 764.698025 
L 548.284223 763.449438 
L 546.377143 762.778879 
L 545.706441 763.449438 
z
M 572.708571 735.552878 
L 574.864896 733.832865 
L 572.708571 732.687924 
L 571.563387 733.832865 
z
M 572.197243 733.832865 
L 572.708571 733.321645 
L 573.671377 733.832865 
L 572.708571 734.600856 
z
M 576 732.545103 
L 576 731.191069 
L 575.675774 730.542135 
L 576 730.217978 
L 576 729.541606 
L 574.999259 730.542135 
z
" clip-path="url(#p3b09d619d6)" style="fill: #eff6fc; fill-opacity: 0.9"/>
    <path d="M 490.341486 816.101124 
L 490.422857 816.01977 
L 493.714286 815.875307 
L 494.06797 816.101124 
L 493.714286 816.432507 
L 490.496582 819.391854 
L 491.466064 819.391854 
L 493.714286 817.324147 
L 495.019613 816.101124 
L 493.714286 815.26771 
L 490.422857 814.949978 
L 489.271467 816.101124 
L 489.738156 819.391854 
L 490.374468 819.391854 
z
M 503.588571 818.341702 
L 505.421431 816.101124 
L 506.335313 812.810393 
L 506.88 811.796087 
L 508.909826 809.519663 
L 509.682797 806.228933 
L 510.171429 805.400687 
L 513.03103 802.938202 
L 513.462857 802.450171 
L 516.754286 801.159329 
L 519.276581 799.647472 
L 520.045714 799.344065 
L 523.337143 796.882058 
L 523.828676 796.356742 
L 526.628571 794.246961 
L 527.116901 793.066011 
L 528.992145 789.775281 
L 529.92 788.981756 
L 531.316439 786.484551 
L 532.924838 783.19382 
L 533.211429 782.858856 
L 534.957549 779.90309 
L 536.502857 776.683798 
L 536.573927 776.61236 
L 538.687818 773.321629 
L 539.794286 772.091069 
L 542.277476 770.030899 
L 543.085714 769.132671 
L 546.185304 766.740169 
L 546.377143 766.515969 
L 549.668571 765.268999 
L 552.96 763.906798 
L 553.163752 763.449438 
L 556.251429 760.908557 
L 556.737523 760.158708 
L 557.837772 756.867978 
L 559.542857 754.906312 
L 560.439236 753.577247 
L 561.821494 750.286517 
L 562.834286 748.73367 
L 564.041539 746.995787 
L 565.719644 743.705056 
L 566.125714 743.197253 
L 568.703058 740.414326 
L 569.417143 739.643281 
L 572.143293 737.123596 
L 572.708571 736.504901 
L 576 734.015446 
L 576 733.832865 
L 576 732.545103 
L 574.999259 730.542135 
L 576 729.541606 
L 576 728.865235 
L 574.322744 730.542135 
L 572.708571 732.054202 
L 571.643713 730.542135 
L 571.250463 727.251405 
L 572.708571 725.793606 
L 576 726.185271 
L 576 725.738444 
L 572.708571 725.182629 
L 570.639357 727.251405 
L 571.197421 730.542135 
L 569.417143 732.322036 
L 567.905993 733.832865 
L 569.417143 735.851373 
L 571.273466 737.123596 
L 569.417143 738.839331 
L 567.958498 740.414326 
L 566.125714 742.393303 
L 565.076757 743.705056 
L 563.263213 746.995787 
L 562.834286 747.613243 
L 561.090734 750.286517 
L 559.683571 753.577247 
L 559.542857 753.785885 
L 556.863894 756.867978 
L 556.251429 758.928179 
L 553.570468 760.158708 
L 552.96 760.456264 
L 549.668571 761.58419 
L 549.259369 760.158708 
L 549.668571 759.838519 
L 552.26455 756.867978 
L 549.668571 755.321942 
L 547.70091 753.577247 
L 546.377143 751.691708 
L 544.491204 753.577247 
L 544.491204 756.867978 
L 543.085714 758.273169 
L 541.199775 760.158708 
L 541.775078 763.449438 
L 543.085714 765.851659 
L 544.629763 766.740169 
L 543.085714 767.931984 
L 541.197082 770.030899 
L 539.794286 771.194723 
L 537.881862 773.321629 
L 536.502857 775.43516 
L 535.744844 776.61236 
L 534.227826 779.90309 
L 533.211429 781.623608 
L 531.867982 783.19382 
L 530.563492 786.484551 
L 529.92 787.635286 
L 527.417742 789.775281 
L 526.628571 791.435927 
L 524.464207 793.066011 
L 523.337143 793.834666 
L 520.045714 795.487613 
L 519.070246 796.356742 
L 516.754286 797.475753 
L 514.984588 799.647472 
L 513.462857 800.718147 
L 511.498477 802.938202 
L 510.171429 804.080962 
L 508.904211 806.228933 
L 507.53086 809.519663 
L 506.88 810.249594 
L 505.504839 812.810393 
L 504.156354 816.101124 
L 503.588571 816.795209 
L 501.724113 819.391854 
L 502.834535 819.391854 
z
M 542.263452 763.449438 
L 541.90252 760.158708 
L 543.085714 758.975764 
L 545.193948 756.867978 
L 545.193948 753.577247 
L 546.377143 752.394304 
L 547.207644 753.577247 
L 549.668571 755.759314 
L 551.530151 756.867978 
L 549.668571 758.998156 
L 548.185385 760.158708 
L 546.377143 761.802542 
L 544.729898 763.449438 
L 543.085714 764.956536 
z
M 545.706441 763.449438 
L 546.377143 762.778879 
L 548.284223 763.449438 
L 546.377143 764.698025 
z
M 568.352285 733.832865 
L 569.417143 732.768233 
L 570.929531 733.832865 
L 569.417143 735.255242 
z
M 571.563387 733.832865 
L 572.708571 732.687924 
L 574.864896 733.832865 
L 572.708571 735.552878 
z
M 516.754286 790.80349 
L 517.835407 789.775281 
L 520.045714 787.565442 
L 521.185221 786.484551 
L 520.045714 785.558574 
L 516.754286 785.028024 
L 515.29745 786.484551 
L 515.826209 789.775281 
z
M 516.410572 789.775281 
L 516.214746 786.484551 
L 516.754286 785.945125 
L 520.045714 786.141615 
L 520.467731 786.484551 
L 520.045714 786.884859 
L 517.154679 789.775281 
L 516.754286 790.156079 
z
" clip-path="url(#p3b09d619d6)" style="fill: #eaf3fb; fill-opacity: 0.9"/>
    <path d="M 490.422857 819.391854 
L 490.496582 819.391854 
L 493.714286 816.432507 
L 494.06797 816.101124 
L 493.714286 815.875307 
L 490.422857 816.01977 
L 490.341486 816.101124 
L 490.374468 819.391854 
z
M 503.588571 819.391854 
L 505.006704 819.391854 
L 506.686508 816.101124 
L 506.88 815.08857 
L 509.017006 812.810393 
L 510.171429 810.553115 
L 510.736836 809.519663 
L 513.462857 807.009045 
L 514.218806 806.228933 
L 516.754286 804.945962 
L 519.340114 802.938202 
L 520.045714 802.390341 
L 523.337143 800.195062 
L 523.551563 799.647472 
L 526.628571 796.483176 
L 526.742451 796.356742 
L 528.078228 793.066011 
L 529.92 790.356139 
L 530.450951 789.775281 
L 532.069386 786.484551 
L 533.211429 784.261858 
L 534.227454 783.19382 
L 535.687272 779.90309 
L 536.502857 778.204007 
L 538.08629 776.61236 
L 539.493774 773.321629 
L 539.794286 772.987414 
L 543.085714 771.04089 
L 546.377143 770.189285 
L 546.754839 770.030899 
L 549.668571 768.812282 
L 552.96 767.015316 
L 553.100162 766.740169 
L 554.623165 763.449438 
L 556.251429 762.109522 
L 557.516056 760.158708 
L 558.81165 756.867978 
L 559.542857 756.026738 
L 561.1949 753.577247 
L 562.552254 750.286517 
L 562.834286 749.854097 
L 564.819864 746.995787 
L 566.125714 744.297486 
L 566.889111 743.705056 
L 569.417143 740.521156 
L 569.656867 740.414326 
L 572.708571 738.446147 
L 576 737.696665 
L 576 737.123596 
L 576 734.015446 
L 572.708571 736.504901 
L 572.143293 737.123596 
L 569.417143 739.643281 
L 568.703058 740.414326 
L 566.125714 743.197253 
L 565.719644 743.705056 
L 564.041539 746.995787 
L 562.834286 748.73367 
L 561.821494 750.286517 
L 560.439236 753.577247 
L 559.542857 754.906312 
L 557.837772 756.867978 
L 556.737523 760.158708 
L 556.251429 760.908557 
L 553.163752 763.449438 
L 552.96 763.906798 
L 549.668571 765.268999 
L 546.377143 766.515969 
L 546.185304 766.740169 
L 543.085714 769.132671 
L 542.277476 770.030899 
L 539.794286 772.091069 
L 538.687818 773.321629 
L 536.573927 776.61236 
L 536.502857 776.683798 
L 534.957549 779.90309 
L 533.211429 782.858856 
L 532.924838 783.19382 
L 531.316439 786.484551 
L 529.92 788.981756 
L 528.992145 789.775281 
L 527.116901 793.066011 
L 526.628571 794.246961 
L 523.828676 796.356742 
L 523.337143 796.882058 
L 520.045714 799.344065 
L 519.276581 799.647472 
L 516.754286 801.159329 
L 513.462857 802.450171 
L 513.03103 802.938202 
L 510.171429 805.400687 
L 509.682797 806.228933 
L 508.909826 809.519663 
L 506.88 811.796087 
L 506.335313 812.810393 
L 505.421431 816.101124 
L 503.588571 818.341702 
L 502.834535 819.391854 
z
M 516.754286 790.156079 
L 517.154679 789.775281 
L 520.045714 786.884859 
L 520.467731 786.484551 
L 520.045714 786.141615 
L 516.754286 785.945125 
L 516.214746 786.484551 
L 516.410572 789.775281 
z
M 543.085714 764.956536 
L 544.729898 763.449438 
L 546.377143 761.802542 
L 548.185385 760.158708 
L 549.668571 758.998156 
L 551.530151 756.867978 
L 549.668571 755.759314 
L 547.207644 753.577247 
L 546.377143 752.394304 
L 545.193948 753.577247 
L 545.193948 756.867978 
L 543.085714 758.975764 
L 541.90252 760.158708 
L 542.263452 763.449438 
z
M 542.751825 763.449438 
L 542.605264 760.158708 
L 543.085714 759.67836 
L 545.896693 756.867978 
L 545.896693 753.577247 
L 546.377143 753.096899 
L 546.714378 753.577247 
L 549.668571 756.196685 
L 550.795752 756.867978 
L 549.668571 758.157794 
L 547.111401 760.158708 
L 546.377143 760.826206 
L 543.753354 763.449438 
L 543.085714 764.061413 
z
M 569.417143 735.255242 
L 570.929531 733.832865 
L 569.417143 732.768233 
L 568.352285 733.832865 
z
M 568.798577 733.832865 
L 569.417143 733.21443 
L 570.295675 733.832865 
L 569.417143 734.65911 
z
M 572.708571 732.054202 
L 574.322744 730.542135 
L 576 728.865235 
L 576 728.188863 
L 573.646229 730.542135 
L 572.708571 731.42048 
L 572.090005 730.542135 
L 571.86157 727.251405 
L 572.708571 726.404583 
L 576 726.632098 
L 576 726.185271 
L 572.708571 725.793606 
L 571.250463 727.251405 
L 571.643713 730.542135 
z
" clip-path="url(#p3b09d619d6)" style="fill: #e5eff9; fill-opacity: 0.9"/>
    <path d="M 506.88 819.391854 
L 508.604998 819.391854 
L 510.171429 817.406878 
L 511.069024 816.101124 
L 512.910929 812.810393 
L 513.462857 812.094251 
L 515.20473 809.519663 
L 516.754286 807.945989 
L 519.24059 806.228933 
L 520.045714 805.620685 
L 523.337143 803.2695 
L 523.62793 802.938202 
L 524.880744 799.647472 
L 526.628571 797.850063 
L 527.973607 796.356742 
L 529.039555 793.066011 
L 529.92 791.770577 
L 531.743863 789.775281 
L 532.822333 786.484551 
L 533.211429 785.727275 
L 535.621507 783.19382 
L 536.416995 779.90309 
L 536.502857 779.724216 
L 539.598652 776.61236 
L 539.794286 776.049661 
L 543.085714 774.939813 
L 546.377143 773.683342 
L 547.122031 773.321629 
L 549.668571 772.161333 
L 551.561317 770.030899 
L 552.96 769.052079 
L 554.137702 766.740169 
L 556.082577 763.449438 
L 556.251429 763.310488 
L 558.29459 760.158708 
L 559.542857 757.310605 
L 559.966436 756.867978 
L 561.950564 753.577247 
L 562.834286 751.419499 
L 563.957306 750.286517 
L 565.598189 746.995787 
L 566.125714 745.905752 
L 568.961499 743.705056 
L 569.417143 743.131201 
L 572.708571 742.136924 
L 576 741.12565 
L 576 740.414326 
L 576 737.696665 
L 572.708571 738.446147 
L 569.656867 740.414326 
L 569.417143 740.521156 
L 566.889111 743.705056 
L 566.125714 744.297486 
L 564.819864 746.995787 
L 562.834286 749.854097 
L 562.552254 750.286517 
L 561.1949 753.577247 
L 559.542857 756.026738 
L 558.81165 756.867978 
L 557.516056 760.158708 
L 556.251429 762.109522 
L 554.623165 763.449438 
L 553.100162 766.740169 
L 552.96 767.015316 
L 549.668571 768.812282 
L 546.754839 770.030899 
L 546.377143 770.189285 
L 543.085714 771.04089 
L 539.794286 772.987414 
L 539.493774 773.321629 
L 538.08629 776.61236 
L 536.502857 778.204007 
L 535.687272 779.90309 
L 534.227454 783.19382 
L 533.211429 784.261858 
L 532.069386 786.484551 
L 530.450951 789.775281 
L 529.92 790.356139 
L 528.078228 793.066011 
L 526.742451 796.356742 
L 526.628571 796.483176 
L 523.551563 799.647472 
L 523.337143 800.195062 
L 520.045714 802.390341 
L 519.340114 802.938202 
L 516.754286 804.945962 
L 514.218806 806.228933 
L 513.462857 807.009045 
L 510.736836 809.519663 
L 510.171429 810.553115 
L 509.017006 812.810393 
L 506.88 815.08857 
L 506.686508 816.101124 
L 505.006704 819.391854 
z
M 543.085714 764.061413 
L 543.753354 763.449438 
L 546.377143 760.826206 
L 547.111401 760.158708 
L 549.668571 758.157794 
L 550.795752 756.867978 
L 549.668571 756.196685 
L 546.714378 753.577247 
L 546.377143 753.096899 
L 545.896693 753.577247 
L 545.896693 756.867978 
L 543.085714 759.67836 
L 542.605264 760.158708 
L 542.751825 763.449438 
z
M 547.600369 756.867978 
L 549.668571 756.634057 
L 550.061352 756.867978 
L 549.668571 757.317431 
z
M 569.417143 734.65911 
L 570.295675 733.832865 
L 569.417143 733.21443 
L 568.798577 733.832865 
z
M 569.244869 733.832865 
L 569.417143 733.660628 
L 569.661819 733.832865 
L 569.417143 734.062979 
z
M 572.708571 731.42048 
L 573.646229 730.542135 
L 576 728.188863 
L 576 727.512492 
L 572.969714 730.542135 
L 572.708571 730.786759 
L 572.536298 730.542135 
L 572.472677 727.251405 
L 572.708571 727.01556 
L 576 727.078924 
L 576 726.632098 
L 572.708571 726.404583 
L 571.86157 727.251405 
L 572.090005 730.542135 
z
" clip-path="url(#p3b09d619d6)" style="fill: #dfecf7; fill-opacity: 0.9"/>
    <path d="M 510.171429 819.391854 
L 511.725376 819.391854 
L 513.462857 816.54115 
L 513.763204 816.101124 
L 516.096174 812.810393 
L 516.754286 811.805794 
L 519.237384 809.519663 
L 520.045714 808.994286 
L 521.799722 806.228933 
L 523.337143 804.996057 
L 525.143368 802.938202 
L 526.209926 799.647472 
L 526.628571 799.21695 
L 529.204762 796.356742 
L 529.92 793.4823 
L 530.307246 793.066011 
L 533.036775 789.775281 
L 533.211429 789.056352 
L 535.813101 786.484551 
L 536.502857 785.634383 
L 538.659067 783.19382 
L 539.794286 782.07276 
L 541.65743 779.90309 
L 543.085714 778.779851 
L 546.377143 777.139952 
L 547.397011 776.61236 
L 549.668571 775.43725 
L 550.672674 773.321629 
L 552.96 770.889591 
L 553.744424 770.030899 
L 555.175241 766.740169 
L 556.251429 764.963839 
L 557.655631 763.449438 
L 559.073124 760.158708 
L 559.542857 759.086943 
L 561.666328 756.867978 
L 562.706228 753.577247 
L 562.834286 753.264575 
L 565.786157 750.286517 
L 566.125714 749.083558 
L 568.692097 746.995787 
L 569.417143 746.651913 
L 572.708571 745.642679 
L 576 744.513158 
L 576 743.705056 
L 576 741.12565 
L 572.708571 742.136924 
L 569.417143 743.131201 
L 568.961499 743.705056 
L 566.125714 745.905752 
L 565.598189 746.995787 
L 563.957306 750.286517 
L 562.834286 751.419499 
L 561.950564 753.577247 
L 559.966436 756.867978 
L 559.542857 757.310605 
L 558.29459 760.158708 
L 556.251429 763.310488 
L 556.082577 763.449438 
L 554.137702 766.740169 
L 552.96 769.052079 
L 551.561317 770.030899 
L 549.668571 772.161333 
L 547.122031 773.321629 
L 546.377143 773.683342 
L 543.085714 774.939813 
L 539.794286 776.049661 
L 539.598652 776.61236 
L 536.502857 779.724216 
L 536.416995 779.90309 
L 535.621507 783.19382 
L 533.211429 785.727275 
L 532.822333 786.484551 
L 531.743863 789.775281 
L 529.92 791.770577 
L 529.039555 793.066011 
L 527.973607 796.356742 
L 526.628571 797.850063 
L 524.880744 799.647472 
L 523.62793 802.938202 
L 523.337143 803.2695 
L 520.045714 805.620685 
L 519.24059 806.228933 
L 516.754286 807.945989 
L 515.20473 809.519663 
L 513.462857 812.094251 
L 512.910929 812.810393 
L 511.069024 816.101124 
L 510.171429 817.406878 
L 508.604998 819.391854 
z
M 549.668571 757.317431 
L 550.061352 756.867978 
L 549.668571 756.634057 
L 547.600369 756.867978 
z
M 569.417143 734.062979 
L 569.661819 733.832865 
L 569.417143 733.660628 
L 569.244869 733.832865 
z
M 572.708571 730.786759 
L 572.969714 730.542135 
L 576 727.512492 
L 576 727.251405 
L 576 727.078924 
L 572.708571 727.01556 
L 572.472677 727.251405 
L 572.536298 730.542135 
z
" clip-path="url(#p3b09d619d6)" style="fill: #dae8f6; fill-opacity: 0.9"/>
    <path d="M 513.462857 819.391854 
L 515.175159 819.391854 
L 516.754286 817.07259 
L 517.414167 816.101124 
L 519.64056 812.810393 
L 520.045714 812.428264 
L 522.317895 809.519663 
L 523.337143 807.643692 
L 524.357183 806.228933 
L 526.628571 803.038185 
L 526.720866 802.938202 
L 529.382022 799.647472 
L 529.92 798.850857 
L 532.168616 796.356742 
L 533.211429 795.221558 
L 535.007267 793.066011 
L 536.502857 791.408668 
L 537.919216 789.775281 
L 539.794286 787.589494 
L 540.765922 786.484551 
L 543.085714 783.798964 
L 543.528126 783.19382 
L 546.377143 780.502903 
L 546.86247 779.90309 
L 549.668571 777.977085 
L 550.884969 776.61236 
L 552.22747 773.321629 
L 552.96 772.542754 
L 555.254605 770.030899 
L 556.212781 766.740169 
L 556.251429 766.676378 
L 559.243554 763.449438 
L 559.542857 762.3894 
L 561.749561 760.158708 
L 562.834286 758.895447 
L 564.652346 756.867978 
L 566.125714 755.37786 
L 567.675655 753.577247 
L 569.417143 751.620161 
L 570.715823 750.286517 
L 572.708571 749.060299 
L 576 747.848564 
L 576 746.995787 
L 576 744.513158 
L 572.708571 745.642679 
L 569.417143 746.651913 
L 568.692097 746.995787 
L 566.125714 749.083558 
L 565.786157 750.286517 
L 562.834286 753.264575 
L 562.706228 753.577247 
L 561.666328 756.867978 
L 559.542857 759.086943 
L 559.073124 760.158708 
L 557.655631 763.449438 
L 556.251429 764.963839 
L 555.175241 766.740169 
L 553.744424 770.030899 
L 552.96 770.889591 
L 550.672674 773.321629 
L 549.668571 775.43725 
L 547.397011 776.61236 
L 546.377143 777.139952 
L 543.085714 778.779851 
L 541.65743 779.90309 
L 539.794286 782.07276 
L 538.659067 783.19382 
L 536.502857 785.634383 
L 535.813101 786.484551 
L 533.211429 789.056352 
L 533.036775 789.775281 
L 530.307246 793.066011 
L 529.92 793.4823 
L 529.204762 796.356742 
L 526.628571 799.21695 
L 526.209926 799.647472 
L 525.143368 802.938202 
L 523.337143 804.996057 
L 521.799722 806.228933 
L 520.045714 808.994286 
L 519.237384 809.519663 
L 516.754286 811.805794 
L 516.096174 812.810393 
L 513.763204 816.101124 
L 513.462857 816.54115 
L 511.725376 819.391854 
z
" clip-path="url(#p3b09d619d6)" style="fill: #d6e5f4; fill-opacity: 0.9"/>
    <path d="M 516.754286 819.391854 
L 518.845103 819.391854 
L 520.045714 817.621753 
L 521.025213 816.101124 
L 523.181131 812.810393 
L 523.337143 812.591538 
L 525.861124 809.519663 
L 526.628571 808.394413 
L 528.389156 806.228933 
L 529.92 804.563952 
L 531.311741 802.938202 
L 533.211429 800.643168 
L 534.239858 799.647472 
L 536.502857 796.953352 
L 536.972086 796.356742 
L 539.794286 793.581826 
L 540.22096 793.066011 
L 542.541055 789.775281 
L 543.085714 789.159569 
L 545.253134 786.484551 
L 546.377143 784.926905 
L 547.564221 783.19382 
L 549.668571 780.404845 
L 550.062151 779.90309 
L 552.781773 776.61236 
L 552.96 776.115903 
L 555.355502 773.321629 
L 556.251429 772.111182 
L 558.160322 770.030899 
L 559.542857 768.55736 
L 561.143412 766.740169 
L 562.834286 764.902166 
L 564.172945 763.449438 
L 566.125714 761.184428 
L 567.081352 760.158708 
L 569.417143 757.638685 
L 569.987843 756.867978 
L 572.592817 753.577247 
L 572.708571 753.458778 
L 576 751.150221 
L 576 750.286517 
L 576 747.848564 
L 572.708571 749.060299 
L 570.715823 750.286517 
L 569.417143 751.620161 
L 567.675655 753.577247 
L 566.125714 755.37786 
L 564.652346 756.867978 
L 562.834286 758.895447 
L 561.749561 760.158708 
L 559.542857 762.3894 
L 559.243554 763.449438 
L 556.251429 766.676378 
L 556.212781 766.740169 
L 555.254605 770.030899 
L 552.96 772.542754 
L 552.22747 773.321629 
L 550.884969 776.61236 
L 549.668571 777.977085 
L 546.86247 779.90309 
L 546.377143 780.502903 
L 543.528126 783.19382 
L 543.085714 783.798964 
L 540.765922 786.484551 
L 539.794286 787.589494 
L 537.919216 789.775281 
L 536.502857 791.408668 
L 535.007267 793.066011 
L 533.211429 795.221558 
L 532.168616 796.356742 
L 529.92 798.850857 
L 529.382022 799.647472 
L 526.720866 802.938202 
L 526.628571 803.038185 
L 524.357183 806.228933 
L 523.337143 807.643692 
L 522.317895 809.519663 
L 520.045714 812.428264 
L 519.64056 812.810393 
L 517.414167 816.101124 
L 516.754286 817.07259 
L 515.175159 819.391854 
z
" clip-path="url(#p3b09d619d6)" style="fill: #d0e2f2; fill-opacity: 0.9"/>
    <path d="M 520.045714 819.391854 
L 522.718444 819.391854 
L 523.337143 818.351279 
L 524.769096 816.101124 
L 526.628571 813.795491 
L 527.619181 812.810393 
L 529.92 809.970796 
L 530.410409 809.519663 
L 533.211429 806.795905 
L 533.651563 806.228933 
L 536.502857 803.211566 
L 536.826993 802.938202 
L 539.324212 799.647472 
L 539.794286 799.066396 
L 542.388882 796.356742 
L 543.085714 795.457473 
L 544.556183 793.066011 
L 546.377143 790.700298 
L 547.108542 789.775281 
L 549.187107 786.484551 
L 549.668571 785.793586 
L 551.833655 783.19382 
L 552.96 781.714583 
L 554.59302 779.90309 
L 556.251429 778.106635 
L 557.613702 776.61236 
L 559.542857 774.462824 
L 560.953124 773.321629 
L 562.834286 771.171537 
L 563.719069 770.030899 
L 566.125714 767.918919 
L 567.284957 766.740169 
L 569.417143 763.597145 
L 569.525068 763.449438 
L 572.547907 760.158708 
L 572.708571 759.928606 
L 574.716261 756.867978 
L 576 755.177078 
L 576 753.577247 
L 576 751.150221 
L 572.708571 753.458778 
L 572.592817 753.577247 
L 569.987843 756.867978 
L 569.417143 757.638685 
L 567.081352 760.158708 
L 566.125714 761.184428 
L 564.172945 763.449438 
L 562.834286 764.902166 
L 561.143412 766.740169 
L 559.542857 768.55736 
L 558.160322 770.030899 
L 556.251429 772.111182 
L 555.355502 773.321629 
L 552.96 776.115903 
L 552.781773 776.61236 
L 550.062151 779.90309 
L 549.668571 780.404845 
L 547.564221 783.19382 
L 546.377143 784.926905 
L 545.253134 786.484551 
L 543.085714 789.159569 
L 542.541055 789.775281 
L 540.22096 793.066011 
L 539.794286 793.581826 
L 536.972086 796.356742 
L 536.502857 796.953352 
L 534.239858 799.647472 
L 533.211429 800.643168 
L 531.311741 802.938202 
L 529.92 804.563952 
L 528.389156 806.228933 
L 526.628571 808.394413 
L 525.861124 809.519663 
L 523.337143 812.591538 
L 523.181131 812.810393 
L 521.025213 816.101124 
L 520.045714 817.621753 
L 518.845103 819.391854 
z
" clip-path="url(#p3b09d619d6)" style="fill: #cbdef1; fill-opacity: 0.9"/>
    <path d="M 523.337143 819.391854 
L 526.628571 819.391854 
L 527.298918 819.391854 
L 529.92 816.712865 
L 530.672767 816.101124 
L 533.211429 813.170514 
L 533.614314 812.810393 
L 536.502857 810.584438 
L 537.398402 809.519663 
L 539.794286 806.393603 
L 539.98829 806.228933 
L 542.88877 802.938202 
L 543.085714 802.592699 
L 545.319619 799.647472 
L 546.377143 798.507441 
L 547.647562 796.356742 
L 549.668571 793.069765 
L 549.671796 793.066011 
L 551.714537 789.775281 
L 552.96 787.874715 
L 554.418515 786.484551 
L 556.251429 784.418772 
L 557.928069 783.19382 
L 559.542857 782.014058 
L 561.495488 779.90309 
L 562.834286 778.553962 
L 565.533473 776.61236 
L 566.125714 775.97502 
L 567.589227 773.321629 
L 569.417143 771.441417 
L 571.251933 770.030899 
L 572.625125 766.740169 
L 572.708571 766.632066 
L 575.761095 763.449438 
L 576 763.029968 
L 576 760.158708 
L 576 756.867978 
L 576 755.177078 
L 574.716261 756.867978 
L 572.708571 759.928606 
L 572.547907 760.158708 
L 569.525068 763.449438 
L 569.417143 763.597145 
L 567.284957 766.740169 
L 566.125714 767.918919 
L 563.719069 770.030899 
L 562.834286 771.171537 
L 560.953124 773.321629 
L 559.542857 774.462824 
L 557.613702 776.61236 
L 556.251429 778.106635 
L 554.59302 779.90309 
L 552.96 781.714583 
L 551.833655 783.19382 
L 549.668571 785.793586 
L 549.187107 786.484551 
L 547.108542 789.775281 
L 546.377143 790.700298 
L 544.556183 793.066011 
L 543.085714 795.457473 
L 542.388882 796.356742 
L 539.794286 799.066396 
L 539.324212 799.647472 
L 536.826993 802.938202 
L 536.502857 803.211566 
L 533.651563 806.228933 
L 533.211429 806.795905 
L 530.410409 809.519663 
L 529.92 809.970796 
L 527.619181 812.810393 
L 526.628571 813.795491 
L 524.769096 816.101124 
L 523.337143 818.351279 
L 522.718444 819.391854 
z
" clip-path="url(#p3b09d619d6)" style="fill: #c6dbef; fill-opacity: 0.9"/>
    <path d="M 529.92 819.391854 
L 533.211429 819.391854 
L 536.502857 819.391854 
L 539.677393 819.391854 
L 539.794286 819.243228 
L 543.085714 817.308013 
L 544.654804 816.101124 
L 545.565295 812.810393 
L 546.377143 811.893812 
L 549.333114 809.519663 
L 549.668571 808.188693 
L 550.091682 806.228933 
L 552.752511 802.938202 
L 552.96 802.544219 
L 554.250159 799.647472 
L 556.115381 796.356742 
L 556.251429 796.094581 
L 557.956071 793.066011 
L 559.542857 791.640235 
L 562.834286 789.887501 
L 562.96269 789.775281 
L 566.125714 788.440897 
L 569.091338 786.484551 
L 569.417143 785.44617 
L 570.360832 783.19382 
L 572.708571 781.803663 
L 574.213036 779.90309 
L 575.134914 776.61236 
L 576 775.735043 
L 576 773.321629 
L 576 770.030899 
L 576 766.740169 
L 576 763.449438 
L 576 763.029968 
L 575.761095 763.449438 
L 572.708571 766.632066 
L 572.625125 766.740169 
L 571.251933 770.030899 
L 569.417143 771.441417 
L 567.589227 773.321629 
L 566.125714 775.97502 
L 565.533473 776.61236 
L 562.834286 778.553962 
L 561.495488 779.90309 
L 559.542857 782.014058 
L 557.928069 783.19382 
L 556.251429 784.418772 
L 554.418515 786.484551 
L 552.96 787.874715 
L 551.714537 789.775281 
L 549.671796 793.066011 
L 549.668571 793.069765 
L 547.647562 796.356742 
L 546.377143 798.507441 
L 545.319619 799.647472 
L 543.085714 802.592699 
L 542.88877 802.938202 
L 539.98829 806.228933 
L 539.794286 806.393603 
L 537.398402 809.519663 
L 536.502857 810.584438 
L 533.614314 812.810393 
L 533.211429 813.170514 
L 530.672767 816.101124 
L 529.92 816.712865 
L 527.298918 819.391854 
z
" clip-path="url(#p3b09d619d6)" style="fill: #bed8ec; fill-opacity: 0.9"/>
    <path d="M 539.794286 819.391854 
L 543.085714 819.391854 
L 546.377143 819.391854 
L 549.668571 819.391854 
L 552.96 819.391854 
L 556.251429 819.391854 
L 559.542857 819.391854 
L 562.834286 819.391854 
L 566.125714 819.391854 
L 569.417143 819.391854 
L 572.708571 819.391854 
L 576 819.391854 
L 576 816.101124 
L 576 812.810393 
L 576 809.519663 
L 576 806.228933 
L 576 802.938202 
L 576 799.647472 
L 576 796.356742 
L 576 793.066011 
L 576 789.775281 
L 576 786.484551 
L 576 783.19382 
L 576 779.90309 
L 576 776.61236 
L 576 775.735043 
L 575.134914 776.61236 
L 574.213036 779.90309 
L 572.708571 781.803663 
L 570.360832 783.19382 
L 569.417143 785.44617 
L 569.091338 786.484551 
L 566.125714 788.440897 
L 562.96269 789.775281 
L 562.834286 789.887501 
L 559.542857 791.640235 
L 557.956071 793.066011 
L 556.251429 796.094581 
L 556.115381 796.356742 
L 554.250159 799.647472 
L 552.96 802.544219 
L 552.752511 802.938202 
L 550.091682 806.228933 
L 549.668571 808.188693 
L 549.333114 809.519663 
L 546.377143 811.893812 
L 545.565295 812.810393 
L 544.654804 816.101124 
L 543.085714 817.308013 
L 539.794286 819.243228 
L 539.677393 819.391854 
z
" clip-path="url(#p3b09d619d6)" style="fill: #b5d4e9; fill-opacity: 0.9"/>
    <path clip-path="url(#p3b09d619d6)" style="fill: #add0e6; fill-opacity: 0.9"/>
    <path clip-path="url(#p3b09d619d6)" style="fill: #a5cde3; fill-opacity: 0.9"/>
    <path clip-path="url(#p3b09d619d6)" style="fill: #9cc9e1; fill-opacity: 0.9"/>
    <path clip-path="url(#p3b09d619d6)" style="fill: #91c3de; fill-opacity: 0.9"/>
    <path clip-path="url(#p3b09d619d6)" style="fill: #85bcdc; fill-opacity: 0.9"/>
    <path clip-path="url(#p3b09d619d6)" style="fill: #7cb7da; fill-opacity: 0.9"/>
    <path clip-path="url(#p3b09d619d6)" style="fill: #71b1d7; fill-opacity: 0.9"/>
    <path clip-path="url(#p3b09d619d6)" style="fill: #66abd4; fill-opacity: 0.9"/>
    <path clip-path="url(#p3b09d619d6)" style="fill: #5da5d1; fill-opacity: 0.9"/>
    <path clip-path="url(#p3b09d619d6)" style="fill: #56a0ce; fill-opacity: 0.9"/>
    <path clip-path="url(#p3b09d619d6)" style="fill: #4d99ca; fill-opacity: 0.9"/>
    <path clip-path="url(#p3b09d619d6)" style="fill: #4493c7; fill-opacity: 0.9"/>
    <path clip-path="url(#p3b09d619d6)" style="fill: #3c8cc3; fill-opacity: 0.9"/>
    <path clip-path="url(#p3b09d619d6)" style="fill: #3686c0; fill-opacity: 0.9"/>
    <path clip-path="url(#p3b09d619d6)" style="fill: #2f7fbc; fill-opacity: 0.9"/>
    <path clip-path="url(#p3b09d619d6)" style="fill: #2777b8; fill-opacity: 0.9"/>
    <path clip-path="url(#p3b09d619d6)" style="fill: #2070b4; fill-opacity: 0.9"/>
    <path clip-path="url(#p3b09d619d6)" style="fill: #1c6ab0; fill-opacity: 0.9"/>
    <path clip-path="url(#p3b09d619d6)" style="fill: #1663aa; fill-opacity: 0.9"/>
    <path clip-path="url(#p3b09d619d6)" style="fill: #115ca5; fill-opacity: 0.9"/>
    <path clip-path="url(#p3b09d619d6)" style="fill: #0c56a0; fill-opacity: 0.9"/>
    <path clip-path="url(#p3b09d619d6)" style="fill: #084f99; fill-opacity: 0.9"/>
    <path clip-path="url(#p3b09d619d6)" style="fill: #08488e; fill-opacity: 0.9"/>
    <path clip-path="url(#p3b09d619d6)" style="fill: #084184; fill-opacity: 0.9"/>
    <path clip-path="url(#p3b09d619d6)" style="fill: #083a7a; fill-opacity: 0.9"/>
    <path clip-path="url(#p3b09d619d6)" style="fill: #083370; fill-opacity: 0.9"/>
    <path clip-path="url(#p3b09d619d6)" style="fill: #08306b; fill-opacity: 0.9"/>
   </g>
   <g id="QuadContourSet_2">
    <path d="M 493.405027 819.391854 
L 493.714286 819.107426 
L 494.832766 819.391854 
M 576 724.844791 
L 572.708571 723.960674 
L 569.417143 727.251405 
L 570.304837 730.542135 
L 569.417143 731.429641 
L 567.013408 733.832865 
L 569.417143 737.043637 
L 569.533813 737.123596 
L 569.417143 737.231429 
L 566.469377 740.414326 
L 566.125714 740.785401 
L 563.790982 743.705056 
L 562.834286 745.37239 
L 561.034176 746.995787 
L 559.629214 750.286517 
L 559.542857 750.487804 
L 556.251429 752.848706 
L 555.622202 753.577247 
L 552.96 755.658462 
L 549.668571 754.447198 
L 548.687443 753.577247 
L 546.377143 750.286517 
L 543.085714 753.577247 
L 543.085714 756.867978 
L 543.085714 756.867978 
L 539.794286 760.158708 
L 540.798331 763.449438 
L 542.003299 766.740169 
L 539.794286 769.193636 
L 538.956845 770.030899 
L 536.502857 772.916081 
L 536.097223 773.321629 
L 535.21271 774.819546 
M 522.971736 787.290033 
L 522.620201 786.484551 
L 520.045714 784.392492 
L 516.754286 783.19382 
L 513.462857 786.484551 
L 514.657482 789.775281 
L 516.754286 792.098312 
L 518.362046 793.066011 
L 516.754286 794.640356 
L 515.163665 796.356742 
L 513.462857 798.192027 
L 512.114057 799.647472 
L 510.171429 801.743697 
L 508.997011 802.938202 
L 507.347041 806.228933 
L 506.88 807.156609 
L 504.809575 809.519663 
L 503.843892 812.810393 
L 503.588571 813.35472 
L 500.297143 815.275672 
L 498.347717 816.101124 
L 497.005714 816.506314 
L 496.922899 816.101124 
L 493.714286 814.052516 
L 490.422857 812.810393 
L 487.131429 816.101124 
L 488.465531 819.391854 
M 520.045714 791.234412 
L 519.196861 789.775281 
L 520.045714 788.926608 
L 521.870356 789.775281 
L 520.045714 791.234412 
z
" clip-path="url(#p3b09d619d6)" style="fill: none"/>
    <path d="M 492.435545 819.391854 
L 493.714286 818.215786 
L 495.971256 816.101124 
L 493.714286 814.660113 
L 490.422857 813.880186 
L 488.201448 816.101124 
L 489.101843 819.391854 
M 576 731.191069 
L 575.675774 730.542135 
L 576 730.217978 
M 576 725.291618 
L 572.708571 724.571651 
L 570.02825 727.251405 
L 570.751129 730.542135 
L 569.417143 731.875838 
L 567.459701 733.832865 
L 569.417143 736.447505 
L 570.403639 737.123596 
L 569.417143 738.03538 
L 567.213937 740.414326 
L 566.125714 741.589352 
L 564.433869 743.705056 
L 562.834286 746.492817 
L 562.276566 746.995787 
L 560.359974 750.286517 
L 559.542857 752.191115 
L 557.609631 753.577247 
L 556.251429 755.572728 
L 552.96 756.80706 
L 549.668571 754.88457 
L 548.194177 753.577247 
L 546.377143 750.989113 
L 543.788459 753.577247 
L 543.788459 756.867978 
L 543.085714 757.570573 
L 540.49703 760.158708 
L 541.286705 763.449438 
L 543.077775 766.740169 
L 540.116687 770.030899 
L 539.794286 770.298378 
L 537.075906 773.321629 
L 536.502857 774.199913 
L 534.949453 776.61236 
L 533.498103 779.90309 
L 533.211429 780.388361 
L 530.811125 783.19382 
L 529.92 786.000643 
L 529.242113 786.484551 
L 526.628571 788.225772 
L 523.337143 789.771306 
L 523.333605 789.775281 
L 520.136522 792.331927 
M 507.776348 806.922699 
L 506.88 808.703102 
L 506.164558 809.519663 
L 504.674365 812.810393 
L 503.588571 815.125237 
L 502.315252 816.101124 
L 500.613692 819.391854 
M 516.754286 791.450901 
L 518.516134 789.775281 
L 520.045714 788.246025 
L 521.902711 786.484551 
L 520.045714 784.975533 
L 516.754286 784.110922 
L 514.380153 786.484551 
L 515.241846 789.775281 
L 516.754286 791.450901 
z
M 572.708571 734.600856 
L 572.197243 733.832865 
L 572.708571 733.321645 
L 573.671377 733.832865 
L 572.708571 734.600856 
" clip-path="url(#p3b09d619d6)" style="fill: none"/>
    <path d="M 491.466064 819.391854 
L 493.714286 817.324147 
L 495.019613 816.101124 
L 493.714286 815.26771 
L 490.422857 814.949978 
L 489.271467 816.101124 
L 489.738156 819.391854 
M 576 732.545103 
L 574.999259 730.542135 
L 576 729.541606 
M 576 725.738444 
L 572.708571 725.182629 
L 570.639357 727.251405 
L 571.197421 730.542135 
L 569.417143 732.322036 
L 567.905993 733.832865 
L 569.417143 735.851373 
L 571.273466 737.123596 
L 569.417143 738.839331 
L 567.958498 740.414326 
L 566.125714 742.393303 
L 565.076757 743.705056 
L 564.27964 745.151449 
M 553.409992 760.236928 
L 552.96 760.456264 
L 549.668571 761.58419 
L 549.259369 760.158708 
L 549.668571 759.838519 
L 552.26455 756.867978 
L 549.668571 755.321942 
L 547.70091 753.577247 
L 546.377143 751.691708 
L 544.491204 753.577247 
L 544.491204 756.867978 
L 543.085714 758.273169 
L 541.199775 760.158708 
L 541.775078 763.449438 
L 543.085714 765.851659 
L 544.629763 766.740169 
L 543.085714 767.931984 
L 541.197082 770.030899 
L 539.794286 771.194723 
L 537.881862 773.321629 
L 536.502857 775.43516 
L 535.744844 776.61236 
L 534.227826 779.90309 
L 533.211429 781.623608 
L 531.867982 783.19382 
L 530.563492 786.484551 
L 529.92 787.635286 
L 527.417742 789.775281 
L 526.628571 791.435927 
L 524.464207 793.066011 
L 523.337143 793.834666 
L 520.045714 795.487613 
L 519.070246 796.356742 
L 516.754286 797.475753 
L 514.984588 799.647472 
L 513.462857 800.718147 
L 511.498477 802.938202 
L 510.171429 804.080962 
L 508.904211 806.228933 
L 507.53086 809.519663 
L 506.88 810.249594 
L 505.504839 812.810393 
L 504.156354 816.101124 
L 503.588571 816.795209 
L 501.724113 819.391854 
M 516.754286 790.80349 
L 517.835407 789.775281 
L 520.045714 787.565442 
L 521.185221 786.484551 
L 520.045714 785.558574 
L 516.754286 785.028024 
L 515.29745 786.484551 
L 515.826209 789.775281 
L 516.754286 790.80349 
z
M 546.377143 764.698025 
L 545.706441 763.449438 
L 546.377143 762.778879 
L 548.284223 763.449438 
L 546.377143 764.698025 
z
M 572.708571 735.552878 
L 571.563387 733.832865 
L 572.708571 732.687924 
L 574.864896 733.832865 
L 572.708571 735.552878 
" clip-path="url(#p3b09d619d6)" style="fill: none"/>
    <path d="M 490.496582 819.391854 
L 493.714286 816.432507 
L 494.06797 816.101124 
L 493.714286 815.875307 
L 490.422857 816.01977 
L 490.341486 816.101124 
L 490.374468 819.391854 
M 576 734.015446 
L 572.88215 736.373615 
M 561.313095 751.496858 
L 560.439236 753.577247 
L 559.542857 754.906312 
L 557.837772 756.867978 
L 556.737523 760.158708 
L 556.251429 760.908557 
L 553.163752 763.449438 
L 552.96 763.906798 
L 549.668571 765.268999 
L 546.377143 766.515969 
L 546.185304 766.740169 
L 543.085714 769.132671 
L 542.277476 770.030899 
L 539.794286 772.091069 
L 538.687818 773.321629 
L 536.573927 776.61236 
L 536.502857 776.683798 
L 534.957549 779.90309 
L 533.211429 782.858856 
L 532.924838 783.19382 
L 531.316439 786.484551 
L 529.92 788.981756 
L 528.992145 789.775281 
L 527.116901 793.066011 
L 526.628571 794.246961 
L 523.828676 796.356742 
L 523.337143 796.882058 
L 520.045714 799.344065 
L 519.276581 799.647472 
L 516.754286 801.159329 
L 513.462857 802.450171 
L 513.03103 802.938202 
L 510.171429 805.400687 
L 509.682797 806.228933 
L 508.909826 809.519663 
L 506.88 811.796087 
L 506.335313 812.810393 
L 505.421431 816.101124 
L 503.588571 818.341702 
L 502.834535 819.391854 
M 576 726.185271 
L 572.708571 725.793606 
L 571.250463 727.251405 
L 571.643713 730.542135 
L 572.708571 732.054202 
L 574.322744 730.542135 
L 576 728.865235 
M 516.754286 790.156079 
L 517.154679 789.775281 
L 520.045714 786.884859 
L 520.467731 786.484551 
L 520.045714 786.141615 
L 516.754286 785.945125 
L 516.214746 786.484551 
L 516.410572 789.775281 
L 516.754286 790.156079 
z
M 550.143893 758.454252 
L 551.530151 756.867978 
L 549.668571 755.759314 
L 547.207644 753.577247 
L 546.377143 752.394304 
L 545.193948 753.577247 
L 545.193948 756.867978 
L 545.154 756.907917 
M 569.417143 735.255242 
L 570.929531 733.832865 
L 569.417143 732.768233 
L 568.352285 733.832865 
L 569.417143 735.255242 
z
" clip-path="url(#p3b09d619d6)" style="fill: none"/>
    <path d="M 576 737.696665 
L 572.708571 738.446147 
L 569.656867 740.414326 
L 569.417143 740.521156 
L 566.889111 743.705056 
L 566.125714 744.297486 
L 564.819864 746.995787 
L 562.834286 749.854097 
L 562.552254 750.286517 
L 561.1949 753.577247 
L 559.542857 756.026738 
L 558.81165 756.867978 
L 557.516056 760.158708 
L 556.251429 762.109522 
L 554.623165 763.449438 
L 553.100162 766.740169 
L 552.96 767.015316 
L 549.668571 768.812282 
L 546.754839 770.030899 
L 546.377143 770.189285 
L 543.085714 771.04089 
L 539.794286 772.987414 
L 539.493774 773.321629 
L 538.08629 776.61236 
L 536.502857 778.204007 
L 535.687272 779.90309 
L 534.227454 783.19382 
L 533.211429 784.261858 
L 532.069386 786.484551 
L 530.450951 789.775281 
L 529.92 790.356139 
L 528.078228 793.066011 
L 526.742451 796.356742 
L 526.628571 796.483176 
L 523.551563 799.647472 
L 523.337143 800.195062 
L 520.045714 802.390341 
L 519.340114 802.938202 
L 516.754286 804.945962 
L 514.218806 806.228933 
L 513.462857 807.009045 
L 511.984127 808.37093 
M 576 726.632098 
L 572.708571 726.404583 
L 571.86157 727.251405 
L 572.090005 730.542135 
L 572.708571 731.42048 
L 573.646229 730.542135 
L 576 728.188863 
M 543.085714 764.061413 
L 543.753354 763.449438 
L 546.377143 760.826206 
L 547.111401 760.158708 
L 549.668571 758.157794 
L 550.795752 756.867978 
L 549.668571 756.196685 
L 546.714378 753.577247 
L 546.377143 753.096899 
L 545.896693 753.577247 
L 545.896693 756.867978 
L 543.085714 759.67836 
L 542.605264 760.158708 
L 542.751825 763.449438 
L 543.085714 764.061413 
z
M 569.417143 734.65911 
L 570.295675 733.832865 
L 569.417143 733.21443 
L 568.798577 733.832865 
L 569.417143 734.65911 
z
" clip-path="url(#p3b09d619d6)" style="fill: none"/>
    <path d="M 576 741.12565 
L 572.708571 742.136924 
L 569.417143 743.131201 
L 568.961499 743.705056 
L 566.125714 745.905752 
L 565.598189 746.995787 
L 563.957306 750.286517 
L 562.834286 751.419499 
L 561.950564 753.577247 
L 559.966436 756.867978 
L 559.542857 757.310605 
L 558.29459 760.158708 
L 556.251429 763.310488 
L 556.082577 763.449438 
L 554.137702 766.740169 
L 552.96 769.052079 
L 551.561317 770.030899 
L 549.668571 772.161333 
L 547.122031 773.321629 
L 546.377143 773.683342 
L 543.085714 774.939813 
L 539.794286 776.049661 
L 539.598652 776.61236 
L 536.502857 779.724216 
L 536.416995 779.90309 
L 535.621507 783.19382 
L 533.211429 785.727275 
L 532.822333 786.484551 
L 531.743863 789.775281 
L 529.92 791.770577 
L 529.039555 793.066011 
L 528.308575 795.322649 
M 515.723429 808.99289 
L 515.20473 809.519663 
L 513.462857 812.094251 
L 512.910929 812.810393 
L 511.069024 816.101124 
L 510.171429 817.406878 
L 508.604998 819.391854 
M 576 727.078924 
L 572.708571 727.01556 
L 572.472677 727.251405 
L 572.536298 730.542135 
L 572.708571 730.786759 
L 572.969714 730.542135 
L 576 727.512492 
M 549.668571 757.317431 
L 550.061352 756.867978 
L 549.668571 756.634057 
L 547.600369 756.867978 
L 549.668571 757.317431 
z
M 569.417143 734.062979 
L 569.661819 733.832865 
L 569.417143 733.660628 
L 569.244869 733.832865 
L 569.417143 734.062979 
z
" clip-path="url(#p3b09d619d6)" style="fill: none"/>
    <path d="M 576 744.513158 
L 572.708571 745.642679 
L 569.417143 746.651913 
L 568.692097 746.995787 
L 566.125714 749.083558 
L 565.786157 750.286517 
L 562.834286 753.264575 
L 562.706228 753.577247 
L 561.666328 756.867978 
L 559.542857 759.086943 
L 559.073124 760.158708 
L 557.655631 763.449438 
L 556.251429 764.963839 
L 555.175241 766.740169 
L 553.744424 770.030899 
L 552.96 770.889591 
L 550.672674 773.321629 
L 549.668571 775.43725 
L 547.397011 776.61236 
L 546.377143 777.139952 
L 543.085714 778.779851 
L 542.246508 779.439824 
M 529.843489 793.789787 
L 529.204762 796.356742 
L 526.628571 799.21695 
L 526.209926 799.647472 
L 525.143368 802.938202 
L 523.337143 804.996057 
L 521.799722 806.228933 
L 520.045714 808.994286 
L 519.237384 809.519663 
L 516.754286 811.805794 
L 516.096174 812.810393 
L 513.763204 816.101124 
L 513.462857 816.54115 
L 511.725376 819.391854 
" clip-path="url(#p3b09d619d6)" style="fill: none"/>
    <path d="M 576 747.848564 
L 572.708571 749.060299 
L 570.715823 750.286517 
L 569.417143 751.620161 
L 567.675655 753.577247 
L 566.125714 755.37786 
L 564.652346 756.867978 
L 562.834286 758.895447 
L 561.749561 760.158708 
L 559.542857 762.3894 
L 559.243554 763.449438 
L 557.333236 765.509673 
M 546.375992 780.50399 
L 543.528126 783.19382 
L 543.085714 783.798964 
L 540.765922 786.484551 
L 539.794286 787.589494 
L 537.919216 789.775281 
L 536.502857 791.408668 
L 535.007267 793.066011 
L 533.211429 795.221558 
L 532.168616 796.356742 
L 529.92 798.850857 
L 529.382022 799.647472 
L 526.720866 802.938202 
L 526.628571 803.038185 
L 524.357183 806.228933 
L 523.337143 807.643692 
L 522.317895 809.519663 
L 520.045714 812.428264 
L 519.64056 812.810393 
L 517.414167 816.101124 
L 516.754286 817.07259 
L 515.175159 819.391854 
" clip-path="url(#p3b09d619d6)" style="fill: none"/>
    <path d="M 576 751.150221 
L 572.708571 753.458778 
L 572.592817 753.577247 
L 569.987843 756.867978 
L 569.417143 757.638685 
L 567.081352 760.158708 
L 566.125714 761.184428 
L 564.172945 763.449438 
L 562.834286 764.902166 
L 561.143412 766.740169 
L 559.542857 768.55736 
L 558.160322 770.030899 
L 556.251429 772.111182 
L 555.355502 773.321629 
L 552.96 776.115903 
L 552.781773 776.61236 
L 550.062151 779.90309 
L 549.668571 780.404845 
L 547.564221 783.19382 
L 546.377143 784.926905 
L 545.253134 786.484551 
L 543.137688 789.095423 
M 530.746102 803.598949 
L 529.92 804.563952 
L 528.389156 806.228933 
L 526.628571 808.394413 
L 525.861124 809.519663 
L 523.337143 812.591538 
L 523.181131 812.810393 
L 521.025213 816.101124 
L 520.045714 817.621753 
L 518.845103 819.391854 
" clip-path="url(#p3b09d619d6)" style="fill: none"/>
    <path d="M 576 755.177078 
L 574.716261 756.867978 
L 572.708571 759.928606 
L 572.547907 760.158708 
L 569.525068 763.449438 
L 569.417143 763.597145 
L 567.284957 766.740169 
L 566.125714 767.918919 
L 563.719069 770.030899 
L 562.834286 771.171537 
L 560.953124 773.321629 
L 559.542857 774.462824 
L 557.613702 776.61236 
L 556.251429 778.106635 
L 554.59302 779.90309 
L 552.96 781.714583 
L 551.833655 783.19382 
L 549.668571 785.793586 
L 549.187107 786.484551 
L 547.108542 789.775281 
L 546.377143 790.700298 
L 544.556183 793.066011 
L 543.085714 795.457473 
L 542.388882 796.356742 
L 539.794286 799.066396 
L 539.324212 799.647472 
L 536.826993 802.938202 
L 536.502857 803.211566 
L 533.651563 806.228933 
L 533.211429 806.795905 
L 530.410409 809.519663 
L 529.92 809.970796 
L 529.214761 810.84118 
" clip-path="url(#p3b09d619d6)" style="fill: none"/>
    <path d="M 576 763.029968 
L 575.761095 763.449438 
L 572.708571 766.632066 
L 572.625125 766.740169 
L 571.251933 770.030899 
L 569.417143 771.441417 
L 567.589227 773.321629 
L 566.125714 775.97502 
L 565.533473 776.61236 
L 562.834286 778.553962 
L 561.495488 779.90309 
L 559.542857 782.014058 
L 557.928069 783.19382 
L 556.251429 784.418772 
L 554.418515 786.484551 
L 552.96 787.874715 
L 551.714537 789.775281 
L 549.671796 793.066011 
L 549.668571 793.069765 
L 547.647562 796.356742 
L 546.377143 798.507441 
L 545.319619 799.647472 
L 543.085714 802.592699 
L 542.88877 802.938202 
L 539.98829 806.228933 
L 539.902904 806.301408 
" clip-path="url(#p3b09d619d6)" style="fill: none"/>
    <path d="M 576 775.735043 
L 575.134914 776.61236 
L 574.213036 779.90309 
L 572.708571 781.803663 
L 570.478325 783.12425 
M 551.947292 803.934041 
L 550.091682 806.228933 
L 549.668571 808.188693 
L 549.333114 809.519663 
L 546.377143 811.893812 
L 545.565295 812.810393 
L 544.654804 816.101124 
L 543.085714 817.308013 
L 539.794286 819.243228 
L 539.677393 819.391854 
" clip-path="url(#p3b09d619d6)" style="fill: none"/>
    <path clip-path="url(#p3b09d619d6)" style="fill: none"/>
    <path clip-path="url(#p3b09d619d6)" style="fill: none"/>
    <path clip-path="url(#p3b09d619d6)" style="fill: none"/>
    <path clip-path="url(#p3b09d619d6)" style="fill: none"/>
    <path clip-path="url(#p3b09d619d6)" style="fill: none"/>
    <path clip-path="url(#p3b09d619d6)" style="fill: none"/>
    <path clip-path="url(#p3b09d619d6)" style="fill: none"/>
    <path clip-path="url(#p3b09d619d6)" style="fill: none"/>
    <path clip-path="url(#p3b09d619d6)" style="fill: none"/>
    <path clip-path="url(#p3b09d619d6)" style="fill: none"/>
    <path clip-path="url(#p3b09d619d6)" style="fill: none"/>
    <path clip-path="url(#p3b09d619d6)" style="fill: none"/>
    <path clip-path="url(#p3b09d619d6)" style="fill: none"/>
    <path clip-path="url(#p3b09d619d6)" style="fill: none"/>
    <path clip-path="url(#p3b09d619d6)" style="fill: none"/>
    <path clip-path="url(#p3b09d619d6)" style="fill: none"/>
    <path clip-path="url(#p3b09d619d6)" style="fill: none"/>
    <path clip-path="url(#p3b09d619d6)" style="fill: none"/>
    <path clip-path="url(#p3b09d619d6)" style="fill: none"/>
    <path clip-path="url(#p3b09d619d6)" style="fill: none"/>
    <path clip-path="url(#p3b09d619d6)" style="fill: none"/>
    <path clip-path="url(#p3b09d619d6)" style="fill: none"/>
    <path clip-path="url(#p3b09d619d6)" style="fill: none"/>
    <path clip-path="url(#p3b09d619d6)" style="fill: none"/>
    <path clip-path="url(#p3b09d619d6)" style="fill: none"/>
    <path clip-path="url(#p3b09d619d6)" style="fill: none"/>
    <path clip-path="url(#p3b09d619d6)" style="fill: none"/>
   </g>
   <g id="text_1">
    <g clip-path="url(#p3b09d619d6)">
     <!-- 0 -->
     <g style="opacity: 0" transform="translate(529.556767 787.641681) rotate(-44.940207) scale(0.12 -0.12)">
      <defs>
       <path id="DejaVuSans-30" d="M 2034 4250 
Q 1547 4250 1301 3770 
Q 1056 3291 1056 2328 
Q 1056 1369 1301 889 
Q 1547 409 2034 409 
Q 2525 409 2770 889 
Q 3016 1369 3016 2328 
Q 3016 3291 2770 3770 
Q 2525 4250 2034 4250 
z
M 2034 4750 
Q 2819 4750 3233 4129 
Q 3647 3509 3647 2328 
Q 3647 1150 3233 529 
Q 2819 -91 2034 -91 
Q 1250 -91 836 529 
Q 422 1150 422 2328 
Q 422 3509 836 4129 
Q 1250 4750 2034 4750 
z
" transform="scale(0.015625)"/>
      </defs>
      <use xlink:href="#DejaVuSans-30"/>
     </g>
    </g>
   </g>
   <g id="text_2">
    <g clip-path="url(#p3b09d619d6)">
     <!-- 1 -->
     <g style="opacity: 0" transform="translate(513.276013 804.295323) rotate(-46.943155) scale(0.12 -0.12)">
      <defs>
       <path id="DejaVuSans-31" d="M 794 531 
L 1825 531 
L 1825 4091 
L 703 3866 
L 703 4441 
L 1819 4666 
L 2450 4666 
L 2450 531 
L 3481 531 
L 3481 0 
L 794 0 
L 794 531 
z
" transform="scale(0.015625)"/>
      </defs>
      <use xlink:href="#DejaVuSans-31"/>
     </g>
    </g>
   </g>
   <g id="text_3">
    <g clip-path="url(#p3b09d619d6)">
     <!-- 2 -->
     <g style="opacity: 0" transform="translate(560.475267 758.568329) rotate(-58.075338) scale(0.12 -0.12)">
      <defs>
       <path id="DejaVuSans-32" d="M 1228 531 
L 3431 531 
L 3431 0 
L 469 0 
L 469 531 
Q 828 903 1448 1529 
Q 2069 2156 2228 2338 
Q 2531 2678 2651 2914 
Q 2772 3150 2772 3378 
Q 2772 3750 2511 3984 
Q 2250 4219 1831 4219 
Q 1534 4219 1204 4116 
Q 875 4013 500 3803 
L 500 4441 
Q 881 4594 1212 4672 
Q 1544 4750 1819 4750 
Q 2544 4750 2975 4387 
Q 3406 4025 3406 3419 
Q 3406 3131 3298 2873 
Q 3191 2616 2906 2266 
Q 2828 2175 2409 1742 
Q 1991 1309 1228 531 
z
" transform="scale(0.015625)"/>
      </defs>
      <use xlink:href="#DejaVuSans-32"/>
     </g>
    </g>
   </g>
   <g id="text_4">
    <g clip-path="url(#p3b09d619d6)">
     <!-- 3 -->
     <g style="opacity: 0" transform="translate(566.527002 748.234778) rotate(-53.616603) scale(0.12 -0.12)">
      <defs>
       <path id="DejaVuSans-33" d="M 2597 2516 
Q 3050 2419 3304 2112 
Q 3559 1806 3559 1356 
Q 3559 666 3084 287 
Q 2609 -91 1734 -91 
Q 1441 -91 1130 -33 
Q 819 25 488 141 
L 488 750 
Q 750 597 1062 519 
Q 1375 441 1716 441 
Q 2309 441 2620 675 
Q 2931 909 2931 1356 
Q 2931 1769 2642 2001 
Q 2353 2234 1838 2234 
L 1294 2234 
L 1294 2753 
L 1863 2753 
Q 2328 2753 2575 2939 
Q 2822 3125 2822 3475 
Q 2822 3834 2567 4026 
Q 2313 4219 1838 4219 
Q 1578 4219 1281 4162 
Q 984 4106 628 3988 
L 628 4550 
Q 988 4650 1302 4700 
Q 1616 4750 1894 4750 
Q 2613 4750 3031 4423 
Q 3450 4097 3450 3541 
Q 3450 3153 3228 2886 
Q 3006 2619 2597 2516 
z
" transform="scale(0.015625)"/>
      </defs>
      <use xlink:href="#DejaVuSans-33"/>
     </g>
    </g>
   </g>
   <g id="text_5">
    <g clip-path="url(#p3b09d619d6)">
     <!-- 3 -->
     <g style="opacity: 0" transform="translate(538.526035 767.135299) rotate(-344.602046) scale(0.12 -0.12)">
      <use xlink:href="#DejaVuSans-33"/>
     </g>
    </g>
   </g>
   <g id="text_6">
    <g clip-path="url(#p3b09d619d6)">
     <!-- 4 -->
     <g style="opacity: 0" transform="translate(507.546156 821.080952) rotate(-58.856271) scale(0.12 -0.12)">
      <defs>
       <path id="DejaVuSans-34" d="M 2419 4116 
L 825 1625 
L 2419 1625 
L 2419 4116 
z
M 2253 4666 
L 3047 4666 
L 3047 1625 
L 3713 1625 
L 3713 1100 
L 3047 1100 
L 3047 0 
L 2419 0 
L 2419 1100 
L 313 1100 
L 313 1709 
L 2253 4666 
z
" transform="scale(0.015625)"/>
      </defs>
      <use xlink:href="#DejaVuSans-34"/>
     </g>
    </g>
   </g>
   <g id="text_7">
    <g clip-path="url(#p3b09d619d6)">
     <!-- 5 -->
     <g style="opacity: 0" transform="translate(523.338483 808.322982) rotate(-49.077244) scale(0.12 -0.12)">
      <defs>
       <path id="DejaVuSans-35" d="M 691 4666 
L 3169 4666 
L 3169 4134 
L 1269 4134 
L 1269 2991 
Q 1406 3038 1543 3061 
Q 1681 3084 1819 3084 
Q 2600 3084 3056 2656 
Q 3513 2228 3513 1497 
Q 3513 744 3044 326 
Q 2575 -91 1722 -91 
Q 1428 -91 1123 -41 
Q 819 9 494 109 
L 494 744 
Q 775 591 1075 516 
Q 1375 441 1709 441 
Q 2250 441 2565 725 
Q 2881 1009 2881 1497 
Q 2881 1984 2565 2268 
Q 2250 2553 1709 2553 
Q 1456 2553 1204 2497 
Q 953 2441 691 2322 
L 691 4666 
z
" transform="scale(0.015625)"/>
      </defs>
      <use xlink:href="#DejaVuSans-35"/>
     </g>
    </g>
   </g>
   <g id="text_8">
    <g clip-path="url(#p3b09d619d6)">
     <!-- 6 -->
     <g style="opacity: 0" transform="translate(535.814798 791.538033) rotate(-49.081299) scale(0.12 -0.12)">
      <defs>
       <path id="DejaVuSans-36" d="M 2113 2584 
Q 1688 2584 1439 2293 
Q 1191 2003 1191 1497 
Q 1191 994 1439 701 
Q 1688 409 2113 409 
Q 2538 409 2786 701 
Q 3034 994 3034 1497 
Q 3034 2003 2786 2293 
Q 2538 2584 2113 2584 
z
M 3366 4563 
L 3366 3988 
Q 3128 4100 2886 4159 
Q 2644 4219 2406 4219 
Q 1781 4219 1451 3797 
Q 1122 3375 1075 2522 
Q 1259 2794 1537 2939 
Q 1816 3084 2150 3084 
Q 2853 3084 3261 2657 
Q 3669 2231 3669 1497 
Q 3669 778 3244 343 
Q 2819 -91 2113 -91 
Q 1303 -91 875 529 
Q 447 1150 447 2328 
Q 447 3434 972 4092 
Q 1497 4750 2381 4750 
Q 2619 4750 2861 4703 
Q 3103 4656 3366 4563 
z
" transform="scale(0.015625)"/>
      </defs>
      <use xlink:href="#DejaVuSans-36"/>
     </g>
    </g>
   </g>
   <g id="text_9">
    <g clip-path="url(#p3b09d619d6)">
     <!-- 7 -->
     <g style="opacity: 0" transform="translate(552.826108 778.339529) rotate(-55.86532) scale(0.12 -0.12)">
      <defs>
       <path id="DejaVuSans-37" d="M 525 4666 
L 3525 4666 
L 3525 4397 
L 1831 0 
L 1172 0 
L 2766 4134 
L 525 4134 
L 525 4666 
z
" transform="scale(0.015625)"/>
      </defs>
      <use xlink:href="#DejaVuSans-37"/>
     </g>
    </g>
   </g>
   <g id="text_10">
    <g clip-path="url(#p3b09d619d6)">
     <!-- 8 -->
     <g style="opacity: 0" transform="translate(536.835415 801.408375) rotate(-47.512312) scale(0.12 -0.12)">
      <defs>
       <path id="DejaVuSans-38" d="M 2034 2216 
Q 1584 2216 1326 1975 
Q 1069 1734 1069 1313 
Q 1069 891 1326 650 
Q 1584 409 2034 409 
Q 2484 409 2743 651 
Q 3003 894 3003 1313 
Q 3003 1734 2745 1975 
Q 2488 2216 2034 2216 
z
M 1403 2484 
Q 997 2584 770 2862 
Q 544 3141 544 3541 
Q 544 4100 942 4425 
Q 1341 4750 2034 4750 
Q 2731 4750 3128 4425 
Q 3525 4100 3525 3541 
Q 3525 3141 3298 2862 
Q 3072 2584 2669 2484 
Q 3125 2378 3379 2068 
Q 3634 1759 3634 1313 
Q 3634 634 3220 271 
Q 2806 -91 2034 -91 
Q 1263 -91 848 271 
Q 434 634 434 1313 
Q 434 1759 690 2068 
Q 947 2378 1403 2484 
z
M 1172 3481 
Q 1172 3119 1398 2916 
Q 1625 2713 2034 2713 
Q 2441 2713 2670 2916 
Q 2900 3119 2900 3481 
Q 2900 3844 2670 4047 
Q 2441 4250 2034 4250 
Q 1625 4250 1398 4047 
Q 1172 3844 1172 3481 
z
" transform="scale(0.015625)"/>
      </defs>
      <use xlink:href="#DejaVuSans-38"/>
     </g>
    </g>
   </g>
   <g id="text_11">
    <g clip-path="url(#p3b09d619d6)">
     <!-- 9 -->
     <g style="opacity: 0" transform="translate(523.891278 823.374288) rotate(-55.357432) scale(0.12 -0.12)">
      <defs>
       <path id="DejaVuSans-39" d="M 703 97 
L 703 672 
Q 941 559 1184 500 
Q 1428 441 1663 441 
Q 2288 441 2617 861 
Q 2947 1281 2994 2138 
Q 2813 1869 2534 1725 
Q 2256 1581 1919 1581 
Q 1219 1581 811 2004 
Q 403 2428 403 3163 
Q 403 3881 828 4315 
Q 1253 4750 1959 4750 
Q 2769 4750 3195 4129 
Q 3622 3509 3622 2328 
Q 3622 1225 3098 567 
Q 2575 -91 1691 -91 
Q 1453 -91 1209 -44 
Q 966 3 703 97 
z
M 1959 2075 
Q 2384 2075 2632 2365 
Q 2881 2656 2881 3163 
Q 2881 3666 2632 3958 
Q 2384 4250 1959 4250 
Q 1534 4250 1286 3958 
Q 1038 3666 1038 3163 
Q 1038 2656 1286 2365 
Q 1534 2075 1959 2075 
z
" transform="scale(0.015625)"/>
      </defs>
      <use xlink:href="#DejaVuSans-39"/>
     </g>
    </g>
   </g>
   <g id="text_12">
    <g clip-path="url(#p3b09d619d6)">
     <!-- 10 -->
     <g style="opacity: 0" transform="translate(526.717662 824.394182) rotate(-43.922696) scale(0.12 -0.12)">
      <use xlink:href="#DejaVuSans-31"/>
      <use xlink:href="#DejaVuSans-30" transform="translate(63.623047 0)"/>
     </g>
    </g>
   </g>
   <g id="text_13">
    <g clip-path="url(#p3b09d619d6)">
     <!-- 11 -->
     <g style="opacity: 0" transform="translate(556.097432 799.215633) rotate(-42.097056) scale(0.12 -0.12)">
      <use xlink:href="#DejaVuSans-31"/>
      <use xlink:href="#DejaVuSans-31" transform="translate(63.623047 0)"/>
     </g>
    </g>
   </g>
  </g>
 </g>
 <defs>
  <clipPath id="p3b09d619d6">
   <rect x="0" y="0" width="576" height="819.391854"/>
  </clipPath>
 </defs>
</svg>
