<?xml version="1.0" encoding="utf-8" standalone="no"?>
<!DOCTYPE svg PUBLIC "-//W3C//DTD SVG 1.1//EN"
  "http://www.w3.org/Graphics/SVG/1.1/DTD/svg11.dtd">
<svg xmlns:xlink="http://www.w3.org/1999/xlink" width="576pt" height="816.799654pt" viewBox="0 0 576 816.799654" xmlns="http://www.w3.org/2000/svg" version="1.1">
 <metadata>
  <rdf:RDF xmlns:dc="http://purl.org/dc/elements/1.1/" xmlns:cc="http://creativecommons.org/ns#" xmlns:rdf="http://www.w3.org/1999/02/22-rdf-syntax-ns#">
   <cc:Work>
    <dc:type rdf:resource="http://purl.org/dc/dcmitype/StillImage"/>
    <dc:date>2025-07-25T22:46:00.408018</dc:date>
    <dc:format>image/svg+xml</dc:format>
    <dc:creator>
     <cc:Agent>
      <dc:title>Matplotlib v3.10.3, https://matplotlib.org/</dc:title>
     </cc:Agent>
    </dc:creator>
   </cc:Work>
  </rdf:RDF>
 </metadata>
 <defs>
  <style type="text/css">*{stroke-linejoin: round; stroke-linecap: butt}</style>
 </defs>
 <g id="figure_1">
  <g id="patch_1">
   <path d="M 0 816.799654 
L 576 816.799654 
L 576 0 
L 0 0 
L 0 816.799654 
z
" style="fill: none; opacity: 0"/>
  </g>
  <g id="axes_1">
   <g id="QuadContourSet_1">
    <path d="M 3.272727 12.014522 
L 6.545455 11.103328 
L 9.818182 11.818207 
L 13.090909 10.899291 
L 14.521319 9.84096 
L 16.363636 9.243091 
L 19.636364 9.181582 
L 22.909091 8.922365 
L 26.181818 8.323875 
L 28.98198 6.56064 
L 29.454545 6.453441 
L 32.727273 5.977982 
L 36 5.560468 
L 39.272727 4.192707 
L 42.545455 4.385533 
L 43.708512 3.28032 
L 45.818182 2.392179 
L 49.090909 2.541557 
L 52.363636 2.38824 
L 52.679328 3.28032 
L 55.636364 6.256543 
L 58.605698 3.28032 
L 58.501444 -0 
L 56.552615 -0 
L 58.336234 3.28032 
L 55.636364 5.986454 
L 52.947675 3.28032 
L 52.363636 1.629945 
L 49.090909 1.907783 
L 45.818182 1.57175 
L 42.545455 2.383429 
L 39.272727 2.945165 
L 38.482076 3.28032 
L 36 4.715733 
L 32.727273 5.483402 
L 29.454545 6.007801 
L 27.017463 6.56064 
L 26.181818 7.086837 
L 22.909091 8.158371 
L 19.636364 8.63064 
L 16.363636 8.605567 
L 13.090909 9.472084 
L 12.299395 9.84096 
L 9.818182 10.750736 
L 7.207305 9.84096 
L 6.545455 9.70117 
L 6.212977 9.84096 
L 3.272727 11.267751 
L 0 12.581475 
L 0 13.095787 
z
" clip-path="url(#p69b1b4c643)" style="fill: #f5f9fe; fill-opacity: 0.9"/>
    <path d="M 3.272727 11.267751 
L 6.212977 9.84096 
L 6.545455 9.70117 
L 7.207305 9.84096 
L 9.818182 10.750736 
L 12.299395 9.84096 
L 13.090909 9.472084 
L 16.363636 8.605567 
L 19.636364 8.63064 
L 22.909091 8.158371 
L 26.181818 7.086837 
L 27.017463 6.56064 
L 29.454545 6.007801 
L 32.727273 5.483402 
L 36 4.715733 
L 38.482076 3.28032 
L 39.272727 2.945165 
L 42.545455 2.383429 
L 45.818182 1.57175 
L 49.090909 1.907783 
L 52.363636 1.629945 
L 52.947675 3.28032 
L 55.636364 5.986454 
L 58.336234 3.28032 
L 56.552615 -0 
L 55.636364 -0 
L 54.603786 -0 
L 55.636364 0.18201 
L 58.066771 3.28032 
L 55.636364 5.716366 
L 53.216022 3.28032 
L 52.363636 0.871649 
L 49.090909 1.274009 
L 45.818182 0.751321 
L 42.545455 0.159008 
L 39.272727 2.325982 
L 37.021385 3.28032 
L 36 3.870999 
L 32.727273 4.988823 
L 29.454545 5.562162 
L 26.181818 6.256429 
L 25.052946 6.56064 
L 22.909091 7.394377 
L 19.636364 8.079699 
L 16.363636 7.968042 
L 13.090909 8.115312 
L 9.818182 9.010639 
L 6.545455 9.054143 
L 4.674073 9.84096 
L 3.272727 10.52098 
L 0 12.067162 
L 0 12.581475 
z
" clip-path="url(#p69b1b4c643)" style="fill: #eff6fc; fill-opacity: 0.9"/>
    <path d="M 3.272727 10.52098 
L 4.674073 9.84096 
L 6.545455 9.054143 
L 9.818182 9.010639 
L 13.090909 8.115312 
L 16.363636 7.968042 
L 19.636364 8.079699 
L 22.909091 7.394377 
L 25.052946 6.56064 
L 26.181818 6.256429 
L 29.454545 5.562162 
L 32.727273 4.988823 
L 36 3.870999 
L 37.021385 3.28032 
L 39.272727 2.325982 
L 42.545455 0.159008 
L 45.818182 0.751321 
L 49.090909 1.274009 
L 52.363636 0.871649 
L 53.216022 3.28032 
L 55.636364 5.716366 
L 58.066771 3.28032 
L 55.636364 0.18201 
L 54.603786 -0 
L 52.654957 -0 
L 55.636364 0.525525 
L 57.797308 3.28032 
L 55.636364 5.446277 
L 53.48437 3.28032 
L 52.363636 0.113354 
L 49.090909 0.640235 
L 46.070069 -0 
L 45.818182 -0 
L 42.545455 -0 
L 41.72083 -0 
L 39.272727 1.706798 
L 36 3.133996 
L 35.642756 3.28032 
L 32.727273 4.494243 
L 29.454545 5.116522 
L 26.181818 5.727027 
L 23.088429 6.56064 
L 22.909091 6.630384 
L 19.636364 7.528758 
L 16.363636 7.330518 
L 13.090909 6.75854 
L 12.418533 6.56064 
L 9.818182 6.269738 
L 9.278036 6.56064 
L 6.545455 8.407116 
L 3.272727 9.792124 
L 3.187137 9.84096 
L 0 11.552849 
L 0 12.067162 
z
" clip-path="url(#p69b1b4c643)" style="fill: #eaf3fb; fill-opacity: 0.9"/>
    <path d="M 3.187137 9.84096 
L 3.272727 9.792124 
L 6.545455 8.407116 
L 9.278036 6.56064 
L 9.818182 6.269738 
L 12.418533 6.56064 
L 13.090909 6.75854 
L 16.363636 7.330518 
L 19.636364 7.528758 
L 22.909091 6.630384 
L 23.088429 6.56064 
L 26.181818 5.727027 
L 29.454545 5.116522 
L 32.727273 4.494243 
L 35.642756 3.28032 
L 36 3.133996 
L 39.272727 1.706798 
L 41.72083 -0 
L 40.83272 -0 
L 39.272727 1.087615 
L 36 2.64747 
L 34.454922 3.28032 
L 32.727273 3.999663 
L 29.454545 4.670882 
L 26.181818 5.197625 
L 22.909091 5.702009 
L 21.123911 6.56064 
L 19.636364 6.977817 
L 16.363636 6.692993 
L 15.723714 6.56064 
L 13.090909 5.306008 
L 9.818182 5.75405 
L 8.320506 6.56064 
L 6.545455 7.760088 
L 3.272727 9.245777 
L 2.229608 9.84096 
L 0 11.038537 
L 0 11.552849 
z
M 55.636364 5.446277 
L 57.797308 3.28032 
L 55.636364 0.525525 
L 52.654957 -0 
L 52.363636 -0 
L 49.129676 -0 
L 49.090909 0.006462 
L 49.060421 -0 
L 46.070069 -0 
L 49.090909 0.640235 
L 52.363636 0.113354 
L 53.48437 3.28032 
z
M 53.752717 3.28032 
L 55.636364 0.86904 
L 57.527844 3.28032 
L 55.636364 5.176189 
z
" clip-path="url(#p69b1b4c643)" style="fill: #e5eff9; fill-opacity: 0.9"/>
    <path d="M 2.229608 9.84096 
L 3.272727 9.245777 
L 6.545455 7.760088 
L 8.320506 6.56064 
L 9.818182 5.75405 
L 13.090909 5.306008 
L 15.723714 6.56064 
L 16.363636 6.692993 
L 19.636364 6.977817 
L 21.123911 6.56064 
L 22.909091 5.702009 
L 26.181818 5.197625 
L 29.454545 4.670882 
L 32.727273 3.999663 
L 34.454922 3.28032 
L 36 2.64747 
L 39.272727 1.087615 
L 40.83272 -0 
L 39.94461 -0 
L 39.272727 0.468432 
L 36 2.160944 
L 33.267089 3.28032 
L 32.727273 3.505084 
L 29.454545 4.225242 
L 26.181818 4.668223 
L 22.909091 4.757121 
L 19.636364 5.494496 
L 18.126231 3.28032 
L 16.363636 2.786666 
L 14.373034 3.28032 
L 13.090909 3.837123 
L 9.818182 5.238362 
L 7.362977 6.56064 
L 6.545455 7.113061 
L 3.272727 8.69943 
L 1.272078 9.84096 
L 0 10.524224 
L 0 11.038537 
z
M 55.636364 5.176189 
L 57.527844 3.28032 
L 55.636364 0.86904 
L 53.752717 3.28032 
z
M 54.021064 3.28032 
L 55.636364 1.212554 
L 57.258381 3.28032 
L 55.636364 4.9061 
z
M 49.090909 0.006462 
L 49.129676 -0 
L 49.090909 -0 
L 49.060421 -0 
z
" clip-path="url(#p69b1b4c643)" style="fill: #dfecf7; fill-opacity: 0.9"/>
    <path d="M 1.272078 9.84096 
L 3.272727 8.69943 
L 6.545455 7.113061 
L 7.362977 6.56064 
L 9.818182 5.238362 
L 13.090909 3.837123 
L 14.373034 3.28032 
L 16.363636 2.786666 
L 18.126231 3.28032 
L 19.636364 5.494496 
L 22.909091 4.757121 
L 26.181818 4.668223 
L 29.454545 4.225242 
L 32.727273 3.505084 
L 33.267089 3.28032 
L 36 2.160944 
L 39.272727 0.468432 
L 39.94461 -0 
L 39.272727 -0 
L 39.056501 -0 
L 36 1.674418 
L 32.727273 2.884619 
L 31.655538 3.28032 
L 29.454545 3.779603 
L 26.181818 4.138821 
L 22.909091 3.812233 
L 21.168907 3.28032 
L 20.600362 0 
L 19.636364 -0 
L 19.236829 -0 
L 16.363636 1.947873 
L 13.090909 2.781805 
L 12.496346 3.28032 
L 9.818182 4.722674 
L 6.545455 6.419833 
L 6.38912 6.56064 
L 3.272727 8.153084 
L 0.314549 9.84096 
L 0 10.009912 
L 0 10.524224 
z
M 55.636364 4.9061 
L 57.258381 3.28032 
L 55.636364 1.212554 
L 54.021064 3.28032 
z
M 54.289412 3.28032 
L 55.636364 1.556069 
L 56.988917 3.28032 
L 55.636364 4.636012 
z
" clip-path="url(#p69b1b4c643)" style="fill: #dae8f6; fill-opacity: 0.9"/>
    <path d="M 0.314549 9.84096 
L 3.272727 8.153084 
L 6.38912 6.56064 
L 6.545455 6.419833 
L 9.818182 4.722674 
L 12.496346 3.28032 
L 13.090909 2.781805 
L 16.363636 1.947873 
L 19.236829 -0 
L 17.999576 -0 
L 16.363636 1.109081 
L 13.090909 1.978959 
L 11.538817 3.28032 
L 9.818182 4.206987 
L 6.545455 5.45683 
L 5.319927 6.56064 
L 3.272727 7.606737 
L 0 8.943984 
L 0 9.84096 
L 0 10.009912 
z
M 22.909091 3.812233 
L 26.181818 4.138821 
L 29.454545 3.779603 
L 31.655538 3.28032 
L 32.727273 2.884619 
L 36 1.674418 
L 39.056501 -0 
L 38.168391 -0 
L 36 1.187892 
L 32.727273 2.159289 
L 29.691021 3.28032 
L 29.454545 3.333963 
L 26.181818 3.609418 
L 24.260163 3.28032 
L 23.591907 0 
L 22.909091 -0 
L 20.600362 0 
L 21.168907 3.28032 
z
M 55.636364 4.636012 
L 56.988917 3.28032 
L 55.636364 1.556069 
L 54.289412 3.28032 
z
M 54.557759 3.28032 
L 55.636364 1.899584 
L 56.719454 3.28032 
L 55.636364 4.365923 
z
" clip-path="url(#p69b1b4c643)" style="fill: #d6e5f4; fill-opacity: 0.9"/>
    <path d="M 3.272727 7.606737 
L 5.319927 6.56064 
L 6.545455 5.45683 
L 9.818182 4.206987 
L 11.538817 3.28032 
L 13.090909 1.978959 
L 16.363636 1.109081 
L 17.999576 -0 
L 16.762323 -0 
L 16.363636 0.270288 
L 13.090909 1.176113 
L 10.581287 3.28032 
L 9.818182 3.691299 
L 6.545455 4.493828 
L 4.250733 6.56064 
L 3.272727 7.06039 
L 0 7.608205 
L 0 8.943984 
z
M 26.181818 3.609418 
L 29.454545 3.333963 
L 29.691021 3.28032 
L 32.727273 2.159289 
L 36 1.187892 
L 38.168391 -0 
L 37.280282 -0 
L 36 0.701366 
L 32.727273 1.433959 
L 29.454545 1.675413 
L 26.615937 -0 
L 26.181818 -0 
L 23.591907 0 
L 24.260163 3.28032 
z
M 55.636364 4.365923 
L 56.719454 3.28032 
L 55.636364 1.899584 
L 54.557759 3.28032 
z
M 54.826106 3.28032 
L 55.636364 2.243099 
L 56.449991 3.28032 
L 55.636364 4.095834 
z
" clip-path="url(#p69b1b4c643)" style="fill: #d0e2f2; fill-opacity: 0.9"/>
    <path d="M 3.272727 7.06039 
L 4.250733 6.56064 
L 6.545455 4.493828 
L 9.818182 3.691299 
L 10.581287 3.28032 
L 13.090909 1.176113 
L 16.363636 0.270288 
L 16.762323 -0 
L 16.363636 -0 
L 14.422489 -0 
L 13.090909 0.373267 
L 9.818182 2.302318 
L 8.383487 3.28032 
L 6.545455 3.530826 
L 3.272727 3.359115 
L 3.246104 3.28032 
L 0.798132 -0 
L 0 -0 
L 0 3.28032 
L 0 6.56064 
L 0 7.608205 
z
M 55.636364 4.095834 
L 56.449991 3.28032 
L 55.636364 2.243099 
L 54.826106 3.28032 
z
M 55.094454 3.28032 
L 55.636364 2.586614 
L 56.180527 3.28032 
L 55.636364 3.825746 
z
M 29.454545 1.675413 
L 32.727273 1.433959 
L 36 0.701366 
L 37.280282 -0 
L 36.392172 -0 
L 36 0.214841 
L 32.727273 0.708629 
L 29.707193 -0 
L 29.454545 -0 
L 26.615937 -0 
z
" clip-path="url(#p69b1b4c643)" style="fill: #cbdef1; fill-opacity: 0.9"/>
    <path d="M 3.272727 3.359115 
L 6.545455 3.530826 
L 8.383487 3.28032 
L 9.818182 2.302318 
L 13.090909 0.373267 
L 14.422489 -0 
L 13.090909 -0 
L 9.818182 -0 
L 6.545455 -0 
L 3.272727 -0 
L 0.798132 -0 
L 3.246104 3.28032 
z
M 55.636364 3.825746 
L 56.180527 3.28032 
L 55.636364 2.586614 
L 55.094454 3.28032 
z
M 55.362801 3.28032 
L 55.636364 2.930129 
L 55.911064 3.28032 
L 55.636364 3.555657 
z
M 32.727273 0.708629 
L 36 0.214841 
L 36.392172 -0 
L 36 -0 
L 32.727273 -0 
L 29.707193 -0 
z
" clip-path="url(#p69b1b4c643)" style="fill: #c6dbef; fill-opacity: 0.9"/>
    <path d="M 55.636364 3.555657 
L 55.911064 3.28032 
L 55.636364 2.930129 
L 55.362801 3.28032 
z
M 55.631148 3.28032 
L 55.636364 3.273644 
L 55.6416 3.28032 
L 55.636364 3.285569 
z
" clip-path="url(#p69b1b4c643)" style="fill: #bed8ec; fill-opacity: 0.9"/>
    <path d="M 55.636364 3.285569 
L 55.6416 3.28032 
L 55.636364 3.273644 
L 55.631148 3.28032 
z
" clip-path="url(#p69b1b4c643)" style="fill: #b5d4e9; fill-opacity: 0.9"/>
    <path clip-path="url(#p69b1b4c643)" style="fill: #add0e6; fill-opacity: 0.9"/>
    <path clip-path="url(#p69b1b4c643)" style="fill: #a5cde3; fill-opacity: 0.9"/>
    <path clip-path="url(#p69b1b4c643)" style="fill: #9cc9e1; fill-opacity: 0.9"/>
    <path clip-path="url(#p69b1b4c643)" style="fill: #91c3de; fill-opacity: 0.9"/>
    <path clip-path="url(#p69b1b4c643)" style="fill: #85bcdc; fill-opacity: 0.9"/>
    <path clip-path="url(#p69b1b4c643)" style="fill: #7cb7da; fill-opacity: 0.9"/>
    <path clip-path="url(#p69b1b4c643)" style="fill: #71b1d7; fill-opacity: 0.9"/>
    <path clip-path="url(#p69b1b4c643)" style="fill: #66abd4; fill-opacity: 0.9"/>
    <path clip-path="url(#p69b1b4c643)" style="fill: #5da5d1; fill-opacity: 0.9"/>
    <path clip-path="url(#p69b1b4c643)" style="fill: #56a0ce; fill-opacity: 0.9"/>
    <path clip-path="url(#p69b1b4c643)" style="fill: #4d99ca; fill-opacity: 0.9"/>
    <path clip-path="url(#p69b1b4c643)" style="fill: #4493c7; fill-opacity: 0.9"/>
    <path clip-path="url(#p69b1b4c643)" style="fill: #3c8cc3; fill-opacity: 0.9"/>
    <path clip-path="url(#p69b1b4c643)" style="fill: #3686c0; fill-opacity: 0.9"/>
    <path clip-path="url(#p69b1b4c643)" style="fill: #2f7fbc; fill-opacity: 0.9"/>
    <path clip-path="url(#p69b1b4c643)" style="fill: #2777b8; fill-opacity: 0.9"/>
    <path clip-path="url(#p69b1b4c643)" style="fill: #2070b4; fill-opacity: 0.9"/>
    <path clip-path="url(#p69b1b4c643)" style="fill: #1c6ab0; fill-opacity: 0.9"/>
    <path clip-path="url(#p69b1b4c643)" style="fill: #1663aa; fill-opacity: 0.9"/>
    <path clip-path="url(#p69b1b4c643)" style="fill: #115ca5; fill-opacity: 0.9"/>
    <path clip-path="url(#p69b1b4c643)" style="fill: #0c56a0; fill-opacity: 0.9"/>
    <path clip-path="url(#p69b1b4c643)" style="fill: #084f99; fill-opacity: 0.9"/>
    <path clip-path="url(#p69b1b4c643)" style="fill: #08488e; fill-opacity: 0.9"/>
    <path clip-path="url(#p69b1b4c643)" style="fill: #084184; fill-opacity: 0.9"/>
    <path clip-path="url(#p69b1b4c643)" style="fill: #083a7a; fill-opacity: 0.9"/>
    <path clip-path="url(#p69b1b4c643)" style="fill: #083370; fill-opacity: 0.9"/>
    <path clip-path="url(#p69b1b4c643)" style="fill: #08306b; fill-opacity: 0.9"/>
   </g>
   <g id="QuadContourSet_2">
    <path d="M 0 13.095787 
L 3.272727 12.014522 
L 6.545455 11.103328 
L 9.818182 11.818207 
L 13.090909 10.899291 
L 14.521319 9.84096 
L 16.363636 9.243091 
L 19.636364 9.181582 
L 22.909091 8.922365 
L 26.181818 8.323875 
L 28.98198 6.56064 
L 29.454545 6.453441 
L 32.727273 5.977982 
L 33.320834 5.902259 
M 51.44854 2.431109 
L 52.363636 2.38824 
L 52.679328 3.28032 
L 55.636364 6.256543 
L 58.605698 3.28032 
L 58.501444 -0 
" clip-path="url(#p69b1b4c643)" style="fill: none"/>
    <path d="M 0 12.581475 
L 0.934808 12.206228 
M 19.047154 8.626126 
L 19.636364 8.63064 
L 22.909091 8.158371 
L 26.181818 7.086837 
L 27.017463 6.56064 
L 29.454545 6.007801 
L 32.727273 5.483402 
L 36 4.715733 
L 38.482076 3.28032 
L 39.272727 2.945165 
L 42.545455 2.383429 
L 45.818182 1.57175 
L 49.090909 1.907783 
L 52.363636 1.629945 
L 52.947675 3.28032 
L 55.636364 5.986454 
L 58.336234 3.28032 
L 56.552615 -0 
" clip-path="url(#p69b1b4c643)" style="fill: none"/>
    <path d="M 0 12.067162 
L 3.272727 10.52098 
L 3.874127 10.229143 
M 22.602881 7.458499 
L 22.909091 7.394377 
L 25.052946 6.56064 
L 26.181818 6.256429 
L 29.454545 5.562162 
L 32.727273 4.988823 
L 36 3.870999 
L 37.021385 3.28032 
L 39.272727 2.325982 
L 42.545455 0.159008 
L 45.818182 0.751321 
L 49.090909 1.274009 
L 52.363636 0.871649 
L 53.216022 3.28032 
L 55.636364 5.716366 
L 58.066771 3.28032 
L 55.636364 0.18201 
L 54.603786 -0 
" clip-path="url(#p69b1b4c643)" style="fill: none"/>
    <path d="M 0 11.552849 
L 3.187137 9.84096 
L 3.272727 9.792124 
L 6.545455 8.407116 
L 9.278036 6.56064 
L 9.818182 6.269738 
L 12.418533 6.56064 
L 13.090909 6.75854 
L 16.363636 7.330518 
L 19.636364 7.528758 
L 22.909091 6.630384 
L 23.088429 6.56064 
L 26.181818 5.727027 
L 26.411447 5.684191 
M 46.070069 -0 
L 49.090909 0.640235 
L 52.363636 0.113354 
L 53.48437 3.28032 
L 55.636364 5.446277 
L 57.797308 3.28032 
L 55.636364 0.525525 
L 52.654957 -0 
" clip-path="url(#p69b1b4c643)" style="fill: none"/>
    <path d="M 0 11.038537 
L 2.229608 9.84096 
L 3.272727 9.245777 
L 6.545455 7.760088 
L 8.320506 6.56064 
L 9.818182 5.75405 
L 13.090909 5.306008 
L 15.723714 6.56064 
L 16.363636 6.692993 
L 19.636364 6.977817 
L 21.123911 6.56064 
L 22.909091 5.702009 
L 25.194678 5.34976 
M 49.060421 -0 
L 49.090909 0.006462 
L 49.129676 -0 
M 55.636364 5.176189 
L 57.527844 3.28032 
L 55.636364 0.86904 
L 53.752717 3.28032 
L 55.636364 5.176189 
z
" clip-path="url(#p69b1b4c643)" style="fill: none"/>
    <path d="M 0 10.524224 
L 1.272078 9.84096 
L 3.272727 8.69943 
L 6.545455 7.113061 
L 7.362977 6.56064 
L 9.818182 5.238362 
L 13.090909 3.837123 
L 14.373034 3.28032 
L 16.363636 2.786666 
L 18.126231 3.28032 
L 19.636364 5.494496 
L 22.909091 4.757121 
L 23.896472 4.7303 
M 55.636364 4.9061 
L 57.258381 3.28032 
L 55.636364 1.212554 
L 54.021064 3.28032 
L 55.636364 4.9061 
z
" clip-path="url(#p69b1b4c643)" style="fill: none"/>
    <path d="M 0 10.009912 
L 0.314549 9.84096 
L 1.414381 9.213418 
M 18.300525 0.634765 
L 19.236829 -0 
M 20.600362 0 
L 20.975917 2.166829 
M 38.317194 0.405008 
L 39.056501 -0 
M 55.636364 4.636012 
L 56.988917 3.28032 
L 55.636364 1.556069 
L 54.289412 3.28032 
L 55.636364 4.636012 
z
" clip-path="url(#p69b1b4c643)" style="fill: none"/>
    <path d="M 0 8.943984 
L 1.343929 8.394851 
M 55.636364 4.365923 
L 56.719454 3.28032 
L 55.636364 1.899584 
L 54.557759 3.28032 
L 55.636364 4.365923 
z
" clip-path="url(#p69b1b4c643)" style="fill: none"/>
    <path d="M 0 7.608205 
L 1.321602 7.386985 
M 26.615937 -0 
L 29.454545 1.675413 
L 32.727273 1.433959 
L 36 0.701366 
L 37.280282 -0 
M 55.636364 4.095834 
L 56.449991 3.28032 
L 55.636364 2.243099 
L 54.826106 3.28032 
L 55.636364 4.095834 
z
" clip-path="url(#p69b1b4c643)" style="fill: none"/>
    <path d="M 29.707193 -0 
L 32.727273 0.708629 
L 36 0.214841 
L 36.392172 -0 
M 55.636364 3.825746 
L 56.180527 3.28032 
L 55.636364 2.586614 
L 55.094454 3.28032 
L 55.636364 3.825746 
z
" clip-path="url(#p69b1b4c643)" style="fill: none"/>
    <path d="M 55.636364 3.555657 
L 55.911064 3.28032 
L 55.636364 2.930129 
L 55.362801 3.28032 
L 55.636364 3.555657 
z
" clip-path="url(#p69b1b4c643)" style="fill: none"/>
    <path d="M 55.636364 3.285569 
L 55.6416 3.28032 
L 55.636364 3.273644 
L 55.631148 3.28032 
L 55.636364 3.285569 
z
" clip-path="url(#p69b1b4c643)" style="fill: none"/>
    <path clip-path="url(#p69b1b4c643)" style="fill: none"/>
    <path clip-path="url(#p69b1b4c643)" style="fill: none"/>
    <path clip-path="url(#p69b1b4c643)" style="fill: none"/>
    <path clip-path="url(#p69b1b4c643)" style="fill: none"/>
    <path clip-path="url(#p69b1b4c643)" style="fill: none"/>
    <path clip-path="url(#p69b1b4c643)" style="fill: none"/>
    <path clip-path="url(#p69b1b4c643)" style="fill: none"/>
    <path clip-path="url(#p69b1b4c643)" style="fill: none"/>
    <path clip-path="url(#p69b1b4c643)" style="fill: none"/>
    <path clip-path="url(#p69b1b4c643)" style="fill: none"/>
    <path clip-path="url(#p69b1b4c643)" style="fill: none"/>
    <path clip-path="url(#p69b1b4c643)" style="fill: none"/>
    <path clip-path="url(#p69b1b4c643)" style="fill: none"/>
    <path clip-path="url(#p69b1b4c643)" style="fill: none"/>
    <path clip-path="url(#p69b1b4c643)" style="fill: none"/>
    <path clip-path="url(#p69b1b4c643)" style="fill: none"/>
    <path clip-path="url(#p69b1b4c643)" style="fill: none"/>
    <path clip-path="url(#p69b1b4c643)" style="fill: none"/>
    <path clip-path="url(#p69b1b4c643)" style="fill: none"/>
    <path clip-path="url(#p69b1b4c643)" style="fill: none"/>
    <path clip-path="url(#p69b1b4c643)" style="fill: none"/>
    <path clip-path="url(#p69b1b4c643)" style="fill: none"/>
    <path clip-path="url(#p69b1b4c643)" style="fill: none"/>
    <path clip-path="url(#p69b1b4c643)" style="fill: none"/>
    <path clip-path="url(#p69b1b4c643)" style="fill: none"/>
    <path clip-path="url(#p69b1b4c643)" style="fill: none"/>
    <path clip-path="url(#p69b1b4c643)" style="fill: none"/>
   </g>
   <g id="text_1">
    <g clip-path="url(#p69b1b4c643)">
     <!-- 0 -->
     <g style="opacity: 0" transform="translate(39.690084 8.555011) rotate(-14.657665) scale(0.12 -0.12)">
      <defs>
       <path id="DejaVuSans-30" d="M 2034 4250 
Q 1547 4250 1301 3770 
Q 1056 3291 1056 2328 
Q 1056 1369 1301 889 
Q 1547 409 2034 409 
Q 2525 409 2770 889 
Q 3016 1369 3016 2328 
Q 3016 3291 2770 3770 
Q 2525 4250 2034 4250 
z
M 2034 4750 
Q 2819 4750 3233 4129 
Q 3647 3509 3647 2328 
Q 3647 1150 3233 529 
Q 2819 -91 2034 -91 
Q 1250 -91 836 529 
Q 422 1150 422 2328 
Q 422 3509 836 4129 
Q 1250 4750 2034 4750 
z
" transform="scale(0.015625)"/>
      </defs>
      <use xlink:href="#DejaVuSans-30"/>
     </g>
    </g>
   </g>
   <g id="text_2">
    <g clip-path="url(#p69b1b4c643)">
     <!-- 1 -->
     <g style="opacity: 0" transform="translate(6.465709 14.532086) rotate(-7.502474) scale(0.12 -0.12)">
      <defs>
       <path id="DejaVuSans-31" d="M 794 531 
L 1825 531 
L 1825 4091 
L 703 3866 
L 703 4441 
L 1819 4666 
L 2450 4666 
L 2450 531 
L 3481 531 
L 3481 0 
L 794 0 
L 794 531 
z
" transform="scale(0.015625)"/>
      </defs>
      <use xlink:href="#DejaVuSans-31"/>
     </g>
    </g>
   </g>
   <g id="text_3">
    <g clip-path="url(#p69b1b4c643)">
     <!-- 2 -->
     <g style="opacity: 0" transform="translate(9.631271 11.798868) rotate(-5.857521) scale(0.12 -0.12)">
      <defs>
       <path id="DejaVuSans-32" d="M 1228 531 
L 3431 531 
L 3431 0 
L 469 0 
L 469 531 
Q 828 903 1448 1529 
Q 2069 2156 2228 2338 
Q 2531 2678 2651 2914 
Q 2772 3150 2772 3378 
Q 2772 3750 2511 3984 
Q 2250 4219 1831 4219 
Q 1534 4219 1204 4116 
Q 875 4013 500 3803 
L 500 4441 
Q 881 4594 1212 4672 
Q 1544 4750 1819 4750 
Q 2544 4750 2975 4387 
Q 3406 4025 3406 3419 
Q 3406 3131 3298 2873 
Q 3191 2616 2906 2266 
Q 2828 2175 2409 1742 
Q 1991 1309 1228 531 
z
" transform="scale(0.015625)"/>
      </defs>
      <use xlink:href="#DejaVuSans-32"/>
     </g>
    </g>
   </g>
   <g id="text_4">
    <g clip-path="url(#p69b1b4c643)">
     <!-- 3 -->
     <g style="opacity: 0" transform="translate(33.335947 7.776575) rotate(-21.901908) scale(0.12 -0.12)">
      <defs>
       <path id="DejaVuSans-33" d="M 2597 2516 
Q 3050 2419 3304 2112 
Q 3559 1806 3559 1356 
Q 3559 666 3084 287 
Q 2609 -91 1734 -91 
Q 1441 -91 1130 -33 
Q 819 25 488 141 
L 488 750 
Q 750 597 1062 519 
Q 1375 441 1716 441 
Q 2309 441 2620 675 
Q 2931 909 2931 1356 
Q 2931 1769 2642 2001 
Q 2353 2234 1838 2234 
L 1294 2234 
L 1294 2753 
L 1863 2753 
Q 2328 2753 2575 2939 
Q 2822 3125 2822 3475 
Q 2822 3834 2567 4026 
Q 2313 4219 1838 4219 
Q 1578 4219 1281 4162 
Q 984 4106 628 3988 
L 628 4550 
Q 988 4650 1302 4700 
Q 1616 4750 1894 4750 
Q 2613 4750 3031 4423 
Q 3450 4097 3450 3541 
Q 3450 3153 3228 2886 
Q 3006 2619 2597 2516 
z
" transform="scale(0.015625)"/>
      </defs>
      <use xlink:href="#DejaVuSans-33"/>
     </g>
    </g>
   </g>
   <g id="text_5">
    <g clip-path="url(#p69b1b4c643)">
     <!-- 4 -->
     <g style="opacity: 0" transform="translate(31.999299 7.69706) rotate(-19.988826) scale(0.12 -0.12)">
      <defs>
       <path id="DejaVuSans-34" d="M 2419 4116 
L 825 1625 
L 2419 1625 
L 2419 4116 
z
M 2253 4666 
L 3047 4666 
L 3047 1625 
L 3713 1625 
L 3713 1100 
L 3047 1100 
L 3047 0 
L 2419 0 
L 2419 1100 
L 313 1100 
L 313 1709 
L 2253 4666 
z
" transform="scale(0.015625)"/>
      </defs>
      <use xlink:href="#DejaVuSans-34"/>
     </g>
    </g>
   </g>
   <g id="text_6">
    <g clip-path="url(#p69b1b4c643)">
     <!-- 5 -->
     <g style="opacity: 0" transform="translate(30.689453 7.626983) rotate(-18.393486) scale(0.12 -0.12)">
      <defs>
       <path id="DejaVuSans-35" d="M 691 4666 
L 3169 4666 
L 3169 4134 
L 1269 4134 
L 1269 2991 
Q 1406 3038 1543 3061 
Q 1681 3084 1819 3084 
Q 2600 3084 3056 2656 
Q 3513 2228 3513 1497 
Q 3513 744 3044 326 
Q 2575 -91 1722 -91 
Q 1428 -91 1123 -41 
Q 819 9 494 109 
L 494 744 
Q 775 591 1075 516 
Q 1375 441 1709 441 
Q 2250 441 2565 725 
Q 2881 1009 2881 1497 
Q 2881 1984 2565 2268 
Q 2250 2553 1709 2553 
Q 1456 2553 1204 2497 
Q 953 2441 691 2322 
L 691 4666 
z
" transform="scale(0.015625)"/>
      </defs>
      <use xlink:href="#DejaVuSans-35"/>
     </g>
    </g>
   </g>
   <g id="text_7">
    <g clip-path="url(#p69b1b4c643)">
     <!-- 6 -->
     <g style="opacity: 0" transform="translate(7.951553 9.418777) rotate(-27.384997) scale(0.12 -0.12)">
      <defs>
       <path id="DejaVuSans-36" d="M 2113 2584 
Q 1688 2584 1439 2293 
Q 1191 2003 1191 1497 
Q 1191 994 1439 701 
Q 1688 409 2113 409 
Q 2538 409 2786 701 
Q 3034 994 3034 1497 
Q 3034 2003 2786 2293 
Q 2538 2584 2113 2584 
z
M 3366 4563 
L 3366 3988 
Q 3128 4100 2886 4159 
Q 2644 4219 2406 4219 
Q 1781 4219 1451 3797 
Q 1122 3375 1075 2522 
Q 1259 2794 1537 2939 
Q 1816 3084 2150 3084 
Q 2853 3084 3261 2657 
Q 3669 2231 3669 1497 
Q 3669 778 3244 343 
Q 2819 -91 2113 -91 
Q 1303 -91 875 529 
Q 447 1150 447 2328 
Q 447 3434 972 4092 
Q 1497 4750 2381 4750 
Q 2619 4750 2861 4703 
Q 3103 4656 3366 4563 
z
" transform="scale(0.015625)"/>
      </defs>
      <use xlink:href="#DejaVuSans-36"/>
     </g>
    </g>
   </g>
   <g id="text_8">
    <g clip-path="url(#p69b1b4c643)">
     <!-- 6 -->
     <g style="opacity: 0" transform="translate(26.239193 7.678217) rotate(-9.548201) scale(0.12 -0.12)">
      <use xlink:href="#DejaVuSans-36"/>
     </g>
    </g>
   </g>
   <g id="text_9">
    <g clip-path="url(#p69b1b4c643)">
     <!-- 7 -->
     <g style="opacity: 0" transform="translate(8.051249 8.941501) rotate(-28.59635) scale(0.12 -0.12)">
      <defs>
       <path id="DejaVuSans-37" d="M 525 4666 
L 3525 4666 
L 3525 4397 
L 1831 0 
L 1172 0 
L 2766 4134 
L 525 4134 
L 525 4666 
z
" transform="scale(0.015625)"/>
      </defs>
      <use xlink:href="#DejaVuSans-37"/>
     </g>
    </g>
   </g>
   <g id="text_10">
    <g clip-path="url(#p69b1b4c643)">
     <!-- 7 -->
     <g style="opacity: 0" transform="translate(26.511389 7.208121) rotate(-10.071206) scale(0.12 -0.12)">
      <use xlink:href="#DejaVuSans-37"/>
     </g>
    </g>
   </g>
   <g id="text_11">
    <g clip-path="url(#p69b1b4c643)">
     <!-- 8 -->
     <g style="opacity: 0" transform="translate(8.019503 8.413844) rotate(-28.211692) scale(0.12 -0.12)">
      <defs>
       <path id="DejaVuSans-38" d="M 2034 2216 
Q 1584 2216 1326 1975 
Q 1069 1734 1069 1313 
Q 1069 891 1326 650 
Q 1584 409 2034 409 
Q 2484 409 2743 651 
Q 3003 894 3003 1313 
Q 3003 1734 2745 1975 
Q 2488 2216 2034 2216 
z
M 1403 2484 
Q 997 2584 770 2862 
Q 544 3141 544 3541 
Q 544 4100 942 4425 
Q 1341 4750 2034 4750 
Q 2731 4750 3128 4425 
Q 3525 4100 3525 3541 
Q 3525 3141 3298 2862 
Q 3072 2584 2669 2484 
Q 3125 2378 3379 2068 
Q 3634 1759 3634 1313 
Q 3634 634 3220 271 
Q 2806 -91 2034 -91 
Q 1263 -91 848 271 
Q 434 634 434 1313 
Q 434 1759 690 2068 
Q 947 2378 1403 2484 
z
M 1172 3481 
Q 1172 3119 1398 2916 
Q 1625 2713 2034 2713 
Q 2441 2713 2670 2916 
Q 2900 3119 2900 3481 
Q 2900 3844 2670 4047 
Q 2441 4250 2034 4250 
Q 1625 4250 1398 4047 
Q 1172 3844 1172 3481 
z
" transform="scale(0.015625)"/>
      </defs>
      <use xlink:href="#DejaVuSans-38"/>
     </g>
    </g>
   </g>
   <g id="text_12">
    <g clip-path="url(#p69b1b4c643)">
     <!-- 9 -->
     <g style="opacity: 0" transform="translate(5.657127 7.535276) rotate(-16.412372) scale(0.12 -0.12)">
      <defs>
       <path id="DejaVuSans-39" d="M 703 97 
L 703 672 
Q 941 559 1184 500 
Q 1428 441 1663 441 
Q 2288 441 2617 861 
Q 2947 1281 2994 2138 
Q 2813 1869 2534 1725 
Q 2256 1581 1919 1581 
Q 1219 1581 811 2004 
Q 403 2428 403 3163 
Q 403 3881 828 4315 
Q 1253 4750 1959 4750 
Q 2769 4750 3195 4129 
Q 3622 3509 3622 2328 
Q 3622 1225 3098 567 
Q 2575 -91 1691 -91 
Q 1453 -91 1209 -44 
Q 966 3 703 97 
z
M 1959 2075 
Q 2384 2075 2632 2365 
Q 2881 2656 2881 3163 
Q 2881 3666 2632 3958 
Q 2384 4250 1959 4250 
Q 1534 4250 1286 3958 
Q 1038 3666 1038 3163 
Q 1038 2656 1286 2365 
Q 1534 2075 1959 2075 
z
" transform="scale(0.015625)"/>
      </defs>
      <use xlink:href="#DejaVuSans-39"/>
     </g>
    </g>
   </g>
  </g>
 </g>
 <defs>
  <clipPath id="p69b1b4c643">
   <rect x="0" y="0" width="576" height="816.799654"/>
  </clipPath>
 </defs>
</svg>
