<?xml version="1.0" encoding="utf-8" standalone="no"?>
<!DOCTYPE svg PUBLIC "-//W3C//DTD SVG 1.1//EN"
  "http://www.w3.org/Graphics/SVG/1.1/DTD/svg11.dtd">
<svg xmlns:xlink="http://www.w3.org/1999/xlink" width="576pt" height="817.086468pt" viewBox="0 0 576 817.086468" xmlns="http://www.w3.org/2000/svg" version="1.1">
 <metadata>
  <rdf:RDF xmlns:dc="http://purl.org/dc/elements/1.1/" xmlns:cc="http://creativecommons.org/ns#" xmlns:rdf="http://www.w3.org/1999/02/22-rdf-syntax-ns#">
   <cc:Work>
    <dc:type rdf:resource="http://purl.org/dc/dcmitype/StillImage"/>
    <dc:date>2025-07-25T22:44:16.443619</dc:date>
    <dc:format>image/svg+xml</dc:format>
    <dc:creator>
     <cc:Agent>
      <dc:title>Matplotlib v3.10.3, https://matplotlib.org/</dc:title>
     </cc:Agent>
    </dc:creator>
   </cc:Work>
  </rdf:RDF>
 </metadata>
 <defs>
  <style type="text/css">*{stroke-linejoin: round; stroke-linecap: butt}</style>
 </defs>
 <g id="figure_1">
  <g id="patch_1">
   <path d="M 0 817.086468 
L 576 817.086468 
L 576 0 
L 0 0 
L 0 817.086468 
z
" style="fill: none; opacity: 0"/>
  </g>
  <g id="axes_1">
   <g id="QuadContourSet_1">
    <path d="M 127.636364 9.844415 
L 130.909091 9.844415 
L 134.181818 9.844415 
L 137.454545 9.844415 
L 140.233903 6.562944 
L 140.727273 6.068256 
L 143.50663 3.281472 
L 144 2.484789 
L 147.272727 2.517213 
L 150.545455 0.787432 
L 153.818182 0.333164 
L 157.090909 1.256442 
L 160.363636 1.739915 
L 163.636364 1.888722 
L 166.909091 1.513307 
L 167.354649 3.281472 
L 170.181818 6.116195 
L 170.628078 6.562944 
L 173.454545 9.844415 
L 176.727273 9.844415 
L 180 6.562944 
L 180 6.562944 
L 183.272727 6.562944 
L 186.0992 3.281472 
L 186.545455 2.834025 
L 189.371927 0 
L 189.137614 0 
L 186.545455 2.599085 
L 185.864886 3.281472 
L 183.272727 6.290911 
L 180 6.290911 
L 179.728692 6.562944 
L 176.727273 9.572383 
L 173.454545 9.572382 
L 170.862392 6.562944 
L 170.181818 5.881625 
L 167.588594 3.281472 
L 166.909091 0.584915 
L 163.636364 1.157445 
L 160.363636 0.930506 
L 157.090909 0.19318 
L 156.475669 0 
L 153.818182 0 
L 150.545455 0 
L 150.315399 0 
L 147.272727 2.115932 
L 144 2.066484 
L 143.247582 3.281472 
L 140.727273 5.808515 
L 139.974855 6.562944 
L 137.454545 9.538568 
L 134.181818 9.538568 
L 130.909091 9.538561 
L 127.636364 9.538561 
L 125.210505 6.562944 
L 125.21053 3.281472 
L 127.636364 0.179368 
L 129.30916 0 
L 127.636364 0 
L 126.335384 0 
L 124.961176 3.281472 
L 124.961159 6.562944 
z
M 81.818182 3.281472 
L 85.090909 3.281472 
L 88.363636 3.281472 
L 91.636364 2.520171 
L 94.909091 2.520171 
L 97.422546 0 
L 97.105702 0 
L 94.909091 2.20248 
L 91.636364 2.20248 
L 88.363636 2.862926 
L 85.090909 2.862926 
L 81.818182 2.862926 
L 79.634068 0 
L 79.314762 0 
z
M 170.181818 0.092831 
L 173.454545 0.33922 
L 176.727273 0.550131 
L 177.275937 0 
L 177.0297 0 
L 176.727273 0.303236 
L 173.454545 0.07326 
L 172.508341 0 
L 170.181818 0 
L 169.073283 0 
z
" clip-path="url(#p75a5b25f1e)" style="fill: #f5f9fe; fill-opacity: 0.9"/>
    <path d="M 127.636364 9.538561 
L 130.909091 9.538561 
L 134.181818 9.538568 
L 137.454545 9.538568 
L 139.974855 6.562944 
L 140.727273 5.808515 
L 143.247582 3.281472 
L 144 2.066484 
L 147.272727 2.115932 
L 150.315399 0 
L 149.738364 0 
L 147.272727 1.714651 
L 144 1.648178 
L 142.988533 3.281472 
L 140.727273 5.548774 
L 139.715806 6.562944 
L 137.454545 9.23272 
L 134.181818 9.23272 
L 130.909091 9.232707 
L 127.636364 9.232707 
L 125.459851 6.562944 
L 125.459883 3.281472 
L 127.636364 0.498236 
L 130.909091 0.164946 
L 132.282936 0 
L 130.909091 0 
L 129.30916 0 
L 127.636364 0.179368 
L 125.21053 3.281472 
L 125.210505 6.562944 
z
M 173.454545 9.572382 
L 176.727273 9.572383 
L 179.728692 6.562944 
L 180 6.290911 
L 183.272727 6.290911 
L 185.864886 3.281472 
L 186.545455 2.599085 
L 189.137614 0 
L 188.9033 0 
L 186.545455 2.364146 
L 185.630573 3.281472 
L 183.272727 6.018878 
L 180 6.018878 
L 179.457384 6.562944 
L 176.727273 9.30035 
L 173.454545 9.300349 
L 171.096705 6.562944 
L 170.181818 5.647055 
L 167.822538 3.281472 
L 170.181818 0.380491 
L 173.454545 0.605179 
L 176.727273 0.797025 
L 177.522174 0 
L 177.275937 0 
L 176.727273 0.550131 
L 173.454545 0.33922 
L 170.181818 0.092831 
L 169.073283 0 
L 166.909091 0 
L 165.638224 0 
L 163.636364 0.426169 
L 160.363636 0.121096 
L 159.857775 0 
L 157.090909 0 
L 156.475669 0 
L 157.090909 0.19318 
L 160.363636 0.930506 
L 163.636364 1.157445 
L 166.909091 0.584915 
L 167.588594 3.281472 
L 170.181818 5.881625 
L 170.862392 6.562944 
z
M 81.818182 2.862926 
L 85.090909 2.862926 
L 88.363636 2.862926 
L 91.636364 2.20248 
L 94.909091 2.20248 
L 97.105702 0 
L 96.788857 0 
L 94.909091 1.884789 
L 91.636364 1.884789 
L 88.363636 2.444381 
L 85.090909 2.444381 
L 81.818182 2.444381 
L 79.953375 0 
L 79.634068 0 
z
" clip-path="url(#p75a5b25f1e)" style="fill: #eff6fc; fill-opacity: 0.9"/>
    <path d="M 127.636364 9.232707 
L 130.909091 9.232707 
L 134.181818 9.23272 
L 137.454545 9.23272 
L 139.715806 6.562944 
L 140.727273 5.548774 
L 142.988533 3.281472 
L 144 1.648178 
L 147.272727 1.714651 
L 149.738364 0 
L 149.161329 0 
L 147.272727 1.31337 
L 144 1.229873 
L 142.729485 3.281472 
L 140.727273 5.289034 
L 139.456758 6.562944 
L 137.454545 8.926872 
L 134.181818 8.926872 
L 130.909091 8.926852 
L 127.636364 8.926852 
L 125.709198 6.562944 
L 125.709237 3.281472 
L 127.636364 0.817104 
L 130.909091 0.521983 
L 134.181818 0.146609 
L 135.256712 0 
L 134.181818 0 
L 132.282936 0 
L 130.909091 0.164946 
L 127.636364 0.498236 
L 125.459883 3.281472 
L 125.459851 6.562944 
z
M 173.454545 9.300349 
L 176.727273 9.30035 
L 179.457384 6.562944 
L 180 6.018878 
L 183.272727 6.018878 
L 185.630573 3.281472 
L 186.545455 2.364146 
L 188.9033 0 
L 188.668987 0 
L 186.545455 2.129206 
L 185.396259 3.281472 
L 183.272727 5.746845 
L 180 5.746845 
L 179.186077 6.562944 
L 176.727273 9.028317 
L 173.454545 9.028316 
L 171.331018 6.562944 
L 170.181818 5.412486 
L 168.056483 3.281472 
L 170.181818 0.66815 
L 173.454545 0.871139 
L 176.727273 1.04392 
L 177.768411 0 
L 177.522174 0 
L 176.727273 0.797025 
L 173.454545 0.605179 
L 170.181818 0.380491 
L 167.822538 3.281472 
L 170.181818 5.647055 
L 171.096705 6.562944 
z
M 81.818182 2.444381 
L 85.090909 2.444381 
L 88.363636 2.444381 
L 91.636364 1.884789 
L 94.909091 1.884789 
L 96.788857 0 
L 96.472013 0 
L 94.909091 1.567098 
L 91.636364 1.567098 
L 88.363636 2.025835 
L 85.090909 2.025835 
L 81.818182 2.025835 
L 80.272681 0 
L 79.953375 0 
z
M 160.363636 0.121096 
L 163.636364 0.426169 
L 165.638224 0 
L 163.636364 0 
L 160.363636 0 
L 159.857775 0 
z
" clip-path="url(#p75a5b25f1e)" style="fill: #eaf3fb; fill-opacity: 0.9"/>
    <path d="M 127.636364 8.926852 
L 130.909091 8.926852 
L 134.181818 8.926872 
L 137.454545 8.926872 
L 139.456758 6.562944 
L 140.727273 5.289034 
L 142.729485 3.281472 
L 144 1.229873 
L 147.272727 1.31337 
L 149.161329 0 
L 148.584294 0 
L 147.272727 0.912089 
L 144 0.811567 
L 142.470436 3.281472 
L 140.727273 5.029293 
L 139.197709 6.562944 
L 137.454545 8.621024 
L 134.181818 8.621024 
L 130.909091 8.620998 
L 127.636364 8.620998 
L 125.958544 6.562944 
L 125.95859 3.281472 
L 127.636364 1.135971 
L 130.909091 0.879019 
L 134.181818 0.552213 
L 137.454545 0.122493 
L 138.230489 0 
L 137.454545 0 
L 135.256712 0 
L 134.181818 0.146609 
L 130.909091 0.521983 
L 127.636364 0.817104 
L 125.709237 3.281472 
L 125.709198 6.562944 
z
M 173.454545 9.028316 
L 176.727273 9.028317 
L 179.186077 6.562944 
L 180 5.746845 
L 183.272727 5.746845 
L 185.396259 3.281472 
L 186.545455 2.129206 
L 188.668987 0 
L 188.434673 0 
L 186.545455 1.894267 
L 185.161946 3.281472 
L 183.272727 5.474813 
L 180 5.474813 
L 178.914769 6.562944 
L 176.727273 8.756285 
L 173.454545 8.756283 
L 171.565331 6.562944 
L 170.181818 5.177916 
L 168.290428 3.281472 
L 170.181818 0.955809 
L 173.454545 1.137099 
L 176.727273 1.290815 
L 178.014648 0 
L 177.768411 0 
L 176.727273 1.04392 
L 173.454545 0.871139 
L 170.181818 0.66815 
L 168.056483 3.281472 
L 170.181818 5.412486 
L 171.331018 6.562944 
z
M 81.818182 2.025835 
L 85.090909 2.025835 
L 88.363636 2.025835 
L 91.636364 1.567098 
L 94.909091 1.567098 
L 96.472013 0 
L 96.155169 0 
L 94.909091 1.249407 
L 91.636364 1.249407 
L 88.363636 1.60729 
L 85.090909 1.60729 
L 81.818182 1.60729 
L 80.591988 0 
L 80.272681 0 
z
" clip-path="url(#p75a5b25f1e)" style="fill: #e5eff9; fill-opacity: 0.9"/>
    <path d="M 127.636364 8.620998 
L 130.909091 8.620998 
L 134.181818 8.621024 
L 137.454545 8.621024 
L 139.197709 6.562944 
L 140.727273 5.029293 
L 142.470436 3.281472 
L 144 0.811567 
L 147.272727 0.912089 
L 148.584294 0 
L 148.00726 0 
L 147.272727 0.510808 
L 144 0.393261 
L 141.204265 0 
L 140.727273 0 
L 138.230489 0 
L 137.454545 0.122493 
L 134.181818 0.552213 
L 130.909091 0.879019 
L 127.636364 1.135971 
L 125.95859 3.281472 
L 125.958544 6.562944 
z
M 126.20789 6.562944 
L 126.207943 3.281472 
L 127.636364 1.454839 
L 130.909091 1.236055 
L 134.181818 0.957817 
L 137.454545 0.591943 
L 140.727273 0.08937 
L 142.211388 3.281472 
L 140.727273 4.769552 
L 138.938661 6.562944 
L 137.454545 8.315177 
L 134.181818 8.315177 
L 130.909091 8.315144 
L 127.636364 8.315144 
z
M 173.454545 8.756283 
L 176.727273 8.756285 
L 178.914769 6.562944 
L 180 5.474813 
L 183.272727 5.474813 
L 185.161946 3.281472 
L 186.545455 1.894267 
L 188.434673 0 
L 188.20036 0 
L 186.545455 1.659327 
L 184.927633 3.281472 
L 183.272727 5.20278 
L 180 5.20278 
L 178.643461 6.562944 
L 176.727273 8.484252 
L 173.454545 8.484251 
L 171.799644 6.562944 
L 170.181818 4.943346 
L 168.524372 3.281472 
L 170.181818 1.243469 
L 173.454545 1.403059 
L 176.727273 1.53771 
L 178.260885 0 
L 178.014648 0 
L 176.727273 1.290815 
L 173.454545 1.137099 
L 170.181818 0.955809 
L 168.290428 3.281472 
L 170.181818 5.177916 
L 171.565331 6.562944 
z
M 81.818182 1.60729 
L 85.090909 1.60729 
L 88.363636 1.60729 
L 91.636364 1.249407 
L 94.909091 1.249407 
L 96.155169 0 
L 95.838324 0 
L 94.909091 0.931716 
L 91.636364 0.931716 
L 88.363636 1.188744 
L 85.090909 1.188744 
L 81.818182 1.188744 
L 80.911294 0 
L 80.591988 0 
z
" clip-path="url(#p75a5b25f1e)" style="fill: #dfecf7; fill-opacity: 0.9"/>
    <path d="M 127.636364 8.315144 
L 130.909091 8.315144 
L 134.181818 8.315177 
L 137.454545 8.315177 
L 138.938661 6.562944 
L 140.727273 4.769552 
L 142.211388 3.281472 
L 140.727273 0.08937 
L 137.454545 0.591943 
L 134.181818 0.957817 
L 130.909091 1.236055 
L 127.636364 1.454839 
L 126.207943 3.281472 
L 126.20789 6.562944 
z
M 126.457237 6.562944 
L 126.457297 3.281472 
L 127.636364 1.773707 
L 130.909091 1.593092 
L 134.181818 1.363421 
L 137.454545 1.061393 
L 140.727273 0.646543 
L 141.95234 3.281472 
L 140.727273 4.509812 
L 138.679612 6.562944 
L 137.454545 8.009329 
L 134.181818 8.009329 
L 130.909091 8.00929 
L 127.636364 8.00929 
z
M 173.454545 8.484251 
L 176.727273 8.484252 
L 178.643461 6.562944 
L 180 5.20278 
L 183.272727 5.20278 
L 184.927633 3.281472 
L 186.545455 1.659327 
L 188.20036 0 
L 187.966046 0 
L 186.545455 1.424388 
L 184.693319 3.281472 
L 183.272727 4.930747 
L 180 4.930747 
L 178.372153 6.562944 
L 176.727273 8.212219 
L 173.454545 8.212218 
L 172.033958 6.562944 
L 170.181818 4.708776 
L 168.758317 3.281472 
L 170.181818 1.531128 
L 173.454545 1.669018 
L 176.727273 1.784605 
L 178.507122 0 
L 178.260885 0 
L 176.727273 1.53771 
L 173.454545 1.403059 
L 170.181818 1.243469 
L 168.524372 3.281472 
L 170.181818 4.943346 
L 171.799644 6.562944 
z
M 81.818182 1.188744 
L 85.090909 1.188744 
L 88.363636 1.188744 
L 91.636364 0.931716 
L 94.909091 0.931716 
L 95.838324 0 
L 95.52148 0 
L 94.909091 0.614025 
L 91.636364 0.614025 
L 88.363636 0.770199 
L 85.090909 0.770199 
L 81.818182 0.770199 
L 81.2306 0 
L 80.911294 0 
z
M 144 0.393261 
L 147.272727 0.510808 
L 148.00726 0 
L 147.430225 0 
L 147.272727 0.109527 
L 144.588736 0 
L 144 0 
L 141.204265 0 
z
" clip-path="url(#p75a5b25f1e)" style="fill: #dae8f6; fill-opacity: 0.9"/>
    <path d="M 127.636364 8.00929 
L 130.909091 8.00929 
L 134.181818 8.009329 
L 137.454545 8.009329 
L 138.679612 6.562944 
L 140.727273 4.509812 
L 141.95234 3.281472 
L 140.727273 0.646543 
L 137.454545 1.061393 
L 134.181818 1.363421 
L 130.909091 1.593092 
L 127.636364 1.773707 
L 126.457297 3.281472 
L 126.457237 6.562944 
z
M 126.706583 6.562944 
L 126.70665 3.281472 
L 127.636364 2.092575 
L 130.909091 1.950128 
L 134.181818 1.769025 
L 137.454545 1.530844 
L 140.727273 1.203716 
L 141.693291 3.281472 
L 140.727273 4.250071 
L 138.420564 6.562944 
L 137.454545 7.703481 
L 134.181818 7.703481 
L 130.909091 7.703435 
L 127.636364 7.703435 
z
M 173.454545 8.212218 
L 176.727273 8.212219 
L 178.372153 6.562944 
L 180 4.930747 
L 183.272727 4.930747 
L 184.693319 3.281472 
L 186.545455 1.424388 
L 187.966046 0 
L 187.731733 0 
L 186.545455 1.189448 
L 184.459006 3.281472 
L 183.272727 4.658715 
L 180 4.658715 
L 178.100846 6.562944 
L 176.727273 7.940186 
L 173.454545 7.940185 
L 172.268271 6.562944 
L 170.181818 4.474207 
L 168.992262 3.281472 
L 170.181818 1.818788 
L 173.454545 1.934978 
L 176.727273 2.031499 
L 178.753359 0 
L 178.507122 0 
L 176.727273 1.784605 
L 173.454545 1.669018 
L 170.181818 1.531128 
L 168.758317 3.281472 
L 170.181818 4.708776 
L 172.033958 6.562944 
z
M 81.818182 0.770199 
L 85.090909 0.770199 
L 88.363636 0.770199 
L 91.636364 0.614025 
L 94.909091 0.614025 
L 95.52148 0 
L 95.204636 0 
L 94.909091 0.296334 
L 91.636364 0.296334 
L 88.363636 0.351654 
L 85.090909 0.351654 
L 81.818182 0.351654 
L 81.549907 0 
L 81.2306 0 
z
M 147.272727 0.109527 
L 147.430225 0 
L 147.272727 0 
L 144.588736 0 
z
" clip-path="url(#p75a5b25f1e)" style="fill: #d6e5f4; fill-opacity: 0.9"/>
    <path d="M 127.636364 7.703435 
L 130.909091 7.703435 
L 134.181818 7.703481 
L 137.454545 7.703481 
L 138.420564 6.562944 
L 140.727273 4.250071 
L 141.693291 3.281472 
L 140.727273 1.203716 
L 137.454545 1.530844 
L 134.181818 1.769025 
L 130.909091 1.950128 
L 127.636364 2.092575 
L 126.70665 3.281472 
L 126.706583 6.562944 
z
M 126.955929 6.562944 
L 126.956004 3.281472 
L 127.636364 2.411442 
L 130.909091 2.307164 
L 134.181818 2.174629 
L 137.454545 2.000294 
L 140.727273 1.760889 
L 141.434243 3.281472 
L 140.727273 3.990331 
L 138.161515 6.562944 
L 137.454545 7.397633 
L 134.181818 7.397633 
L 130.909091 7.397581 
L 127.636364 7.397581 
z
M 173.454545 7.940185 
L 176.727273 7.940186 
L 178.100846 6.562944 
L 180 4.658715 
L 183.272727 4.658715 
L 184.459006 3.281472 
L 186.545455 1.189448 
L 187.731733 0 
L 187.49742 0 
L 186.545455 0.954509 
L 184.224692 3.281472 
L 183.272727 4.386682 
L 180 4.386682 
L 177.829538 6.562944 
L 176.727273 7.668154 
L 173.454545 7.668152 
L 172.502584 6.562944 
L 170.181818 4.239637 
L 169.226206 3.281472 
L 170.181818 2.106447 
L 173.454545 2.200938 
L 176.727273 2.278394 
L 178.999595 0 
L 178.753359 0 
L 176.727273 2.031499 
L 173.454545 1.934978 
L 170.181818 1.818788 
L 168.992262 3.281472 
L 170.181818 4.474207 
L 172.268271 6.562944 
z
M 81.818182 0.351654 
L 85.090909 0.351654 
L 88.363636 0.351654 
L 91.636364 0.296334 
L 94.909091 0.296334 
L 95.204636 0 
L 94.909091 0 
L 91.636364 0 
L 88.363636 0 
L 85.090909 0 
L 81.818182 0 
L 81.549907 0 
z
" clip-path="url(#p75a5b25f1e)" style="fill: #d0e2f2; fill-opacity: 0.9"/>
    <path d="M 127.636364 7.397581 
L 130.909091 7.397581 
L 134.181818 7.397633 
L 137.454545 7.397633 
L 138.161515 6.562944 
L 140.727273 3.990331 
L 141.434243 3.281472 
L 140.727273 1.760889 
L 137.454545 2.000294 
L 134.181818 2.174629 
L 130.909091 2.307164 
L 127.636364 2.411442 
L 126.956004 3.281472 
L 126.955929 6.562944 
z
M 127.205275 6.562944 
L 127.205357 3.281472 
L 127.636364 2.73031 
L 130.909091 2.664201 
L 134.181818 2.580233 
L 137.454545 2.469744 
L 140.727273 2.318062 
L 141.175194 3.281472 
L 140.727273 3.73059 
L 137.902467 6.562944 
L 137.454545 7.091786 
L 134.181818 7.091786 
L 130.909091 7.091727 
L 127.636364 7.091727 
z
M 173.454545 7.668152 
L 176.727273 7.668154 
L 177.829538 6.562944 
L 180 4.386682 
L 183.272727 4.386682 
L 184.224692 3.281472 
L 186.545455 0.954509 
L 187.49742 0 
L 187.263106 0 
L 186.545455 0.719569 
L 183.990379 3.281472 
L 183.272727 4.114649 
L 180 4.114649 
L 177.55823 6.562944 
L 176.727273 7.396121 
L 173.454545 7.396119 
L 172.736897 6.562944 
L 170.181818 4.005067 
L 169.460151 3.281472 
L 170.181818 2.394106 
L 173.454545 2.466897 
L 176.727273 2.525289 
L 179.245832 0 
L 178.999595 0 
L 176.727273 2.278394 
L 173.454545 2.200938 
L 170.181818 2.106447 
L 169.226206 3.281472 
L 170.181818 4.239637 
L 172.502584 6.562944 
z
" clip-path="url(#p75a5b25f1e)" style="fill: #cbdef1; fill-opacity: 0.9"/>
    <path d="M 127.636364 7.091727 
L 130.909091 7.091727 
L 134.181818 7.091786 
L 137.454545 7.091786 
L 137.902467 6.562944 
L 140.727273 3.73059 
L 141.175194 3.281472 
L 140.727273 2.318062 
L 137.454545 2.469744 
L 134.181818 2.580233 
L 130.909091 2.664201 
L 127.636364 2.73031 
L 127.205357 3.281472 
L 127.205275 6.562944 
z
M 127.454622 6.562944 
L 127.454711 3.281472 
L 127.636364 3.049178 
L 130.909091 3.021237 
L 134.181818 2.985838 
L 137.454545 2.939194 
L 140.727273 2.875235 
L 140.916146 3.281472 
L 140.727273 3.470849 
L 137.643418 6.562944 
L 137.454545 6.785938 
L 134.181818 6.785938 
L 130.909091 6.785873 
L 127.636364 6.785873 
z
M 173.454545 7.396119 
L 176.727273 7.396121 
L 177.55823 6.562944 
L 180 4.114649 
L 183.272727 4.114649 
L 183.990379 3.281472 
L 186.545455 0.719569 
L 187.263106 0 
L 187.028793 0 
L 186.545455 0.48463 
L 183.756065 3.281472 
L 183.272727 3.842617 
L 180 3.842617 
L 177.286922 6.562944 
L 176.727273 7.124088 
L 173.454545 7.124086 
L 172.97121 6.562944 
L 170.181818 3.770498 
L 169.694095 3.281472 
L 170.181818 2.681766 
L 173.454545 2.732857 
L 176.727273 2.772184 
L 179.492069 0 
L 179.245832 0 
L 176.727273 2.525289 
L 173.454545 2.466897 
L 170.181818 2.394106 
L 169.460151 3.281472 
L 170.181818 4.005067 
L 172.736897 6.562944 
z
" clip-path="url(#p75a5b25f1e)" style="fill: #c6dbef; fill-opacity: 0.9"/>
    <path d="M 127.636364 6.785873 
L 130.909091 6.785873 
L 134.181818 6.785938 
L 137.454545 6.785938 
L 137.643418 6.562944 
L 140.727273 3.470849 
L 140.916146 3.281472 
L 140.727273 2.875235 
L 137.454545 2.939194 
L 134.181818 2.985838 
L 130.909091 3.021237 
L 127.636364 3.049178 
L 127.454711 3.281472 
L 127.454622 6.562944 
z
M 173.454545 7.124086 
L 176.727273 7.124088 
L 177.286922 6.562944 
L 180 3.842617 
L 183.272727 3.842617 
L 183.756065 3.281472 
L 186.545455 0.48463 
L 187.028793 0 
L 186.794479 0 
L 186.545455 0.24969 
L 183.521752 3.281472 
L 183.272727 3.570584 
L 180 3.570584 
L 177.015614 6.562944 
L 176.727273 6.852056 
L 173.454545 6.852053 
L 173.205524 6.562944 
L 170.181818 3.535928 
L 169.92804 3.281472 
L 170.181818 2.969425 
L 173.454545 2.998817 
L 176.727273 3.019079 
L 179.738306 0 
L 179.492069 0 
L 176.727273 2.772184 
L 173.454545 2.732857 
L 170.181818 2.681766 
L 169.694095 3.281472 
L 170.181818 3.770498 
L 172.97121 6.562944 
z
" clip-path="url(#p75a5b25f1e)" style="fill: #bed8ec; fill-opacity: 0.9"/>
    <path d="M 173.454545 6.852053 
L 176.727273 6.852056 
L 177.015614 6.562944 
L 180 3.570584 
L 183.272727 3.570584 
L 183.521752 3.281472 
L 186.545455 0.24969 
L 186.794479 0 
L 186.560166 0 
L 186.545455 0.014751 
L 183.287439 3.281472 
L 183.272727 3.298551 
L 180 3.298551 
L 176.744307 6.562944 
L 176.727273 6.580023 
L 173.454545 6.58002 
L 173.439837 6.562944 
L 170.181818 3.301358 
L 170.161985 3.281472 
L 170.181818 3.257084 
L 173.454545 3.264777 
L 176.727273 3.265973 
L 179.984543 0 
L 179.738306 0 
L 176.727273 3.019079 
L 173.454545 2.998817 
L 170.181818 2.969425 
L 169.92804 3.281472 
L 170.181818 3.535928 
L 173.205524 6.562944 
z
" clip-path="url(#p75a5b25f1e)" style="fill: #b5d4e9; fill-opacity: 0.9"/>
    <path d="M 173.454545 6.58002 
L 176.727273 6.580023 
L 176.744307 6.562944 
L 180 3.298551 
L 183.272727 3.298551 
L 183.287439 3.281472 
L 186.545455 0.014751 
L 186.560166 0 
L 186.545455 0 
L 183.272727 0 
L 180 0 
L 179.984543 0 
L 176.727273 3.265973 
L 173.454545 3.264777 
L 170.181818 3.257084 
L 170.161985 3.281472 
L 170.181818 3.301358 
L 173.439837 6.562944 
z
" clip-path="url(#p75a5b25f1e)" style="fill: #add0e6; fill-opacity: 0.9"/>
    <path clip-path="url(#p75a5b25f1e)" style="fill: #a5cde3; fill-opacity: 0.9"/>
    <path clip-path="url(#p75a5b25f1e)" style="fill: #9cc9e1; fill-opacity: 0.9"/>
    <path clip-path="url(#p75a5b25f1e)" style="fill: #91c3de; fill-opacity: 0.9"/>
    <path clip-path="url(#p75a5b25f1e)" style="fill: #85bcdc; fill-opacity: 0.9"/>
    <path clip-path="url(#p75a5b25f1e)" style="fill: #7cb7da; fill-opacity: 0.9"/>
    <path clip-path="url(#p75a5b25f1e)" style="fill: #71b1d7; fill-opacity: 0.9"/>
    <path clip-path="url(#p75a5b25f1e)" style="fill: #66abd4; fill-opacity: 0.9"/>
    <path clip-path="url(#p75a5b25f1e)" style="fill: #5da5d1; fill-opacity: 0.9"/>
    <path clip-path="url(#p75a5b25f1e)" style="fill: #56a0ce; fill-opacity: 0.9"/>
    <path clip-path="url(#p75a5b25f1e)" style="fill: #4d99ca; fill-opacity: 0.9"/>
    <path clip-path="url(#p75a5b25f1e)" style="fill: #4493c7; fill-opacity: 0.9"/>
    <path clip-path="url(#p75a5b25f1e)" style="fill: #3c8cc3; fill-opacity: 0.9"/>
    <path clip-path="url(#p75a5b25f1e)" style="fill: #3686c0; fill-opacity: 0.9"/>
    <path clip-path="url(#p75a5b25f1e)" style="fill: #2f7fbc; fill-opacity: 0.9"/>
    <path clip-path="url(#p75a5b25f1e)" style="fill: #2777b8; fill-opacity: 0.9"/>
    <path clip-path="url(#p75a5b25f1e)" style="fill: #2070b4; fill-opacity: 0.9"/>
    <path clip-path="url(#p75a5b25f1e)" style="fill: #1c6ab0; fill-opacity: 0.9"/>
    <path clip-path="url(#p75a5b25f1e)" style="fill: #1663aa; fill-opacity: 0.9"/>
    <path clip-path="url(#p75a5b25f1e)" style="fill: #115ca5; fill-opacity: 0.9"/>
    <path clip-path="url(#p75a5b25f1e)" style="fill: #0c56a0; fill-opacity: 0.9"/>
    <path clip-path="url(#p75a5b25f1e)" style="fill: #084f99; fill-opacity: 0.9"/>
    <path clip-path="url(#p75a5b25f1e)" style="fill: #08488e; fill-opacity: 0.9"/>
    <path clip-path="url(#p75a5b25f1e)" style="fill: #084184; fill-opacity: 0.9"/>
    <path clip-path="url(#p75a5b25f1e)" style="fill: #083a7a; fill-opacity: 0.9"/>
    <path clip-path="url(#p75a5b25f1e)" style="fill: #083370; fill-opacity: 0.9"/>
    <path clip-path="url(#p75a5b25f1e)" style="fill: #08306b; fill-opacity: 0.9"/>
   </g>
   <g id="QuadContourSet_2">
    <path d="M 79.314762 0 
L 80.005046 0.904821 
M 96.957119 0.466671 
L 97.422546 0 
M 126.335384 0 
L 124.961176 3.281472 
L 124.961159 6.562944 
L 127.636364 9.844415 
L 130.909091 9.844415 
L 134.181818 9.844415 
L 137.454545 9.844415 
L 140.233903 6.562944 
L 140.727273 6.068256 
L 143.50663 3.281472 
L 144 2.484789 
L 147.272727 2.517213 
L 150.545455 0.787432 
L 151.02865 0.720363 
M 168.16244 4.091421 
L 170.181818 6.116195 
L 170.628078 6.562944 
L 173.454545 9.844415 
L 176.727273 9.844415 
L 180 6.562944 
L 180 6.562944 
L 183.272727 6.562944 
L 186.0992 3.281472 
L 186.545455 2.834025 
L 189.371927 0 
M 177.0297 0 
L 176.727273 0.303236 
L 173.454545 0.07326 
L 172.508341 0 
" clip-path="url(#p75a5b25f1e)" style="fill: none"/>
    <path d="M 79.634068 0 
L 79.969684 0.439923 
M 97.013228 0.09272 
L 97.105702 0 
M 126.731693 8.42887 
L 127.636364 9.538561 
L 130.909091 9.538561 
L 134.181818 9.538568 
L 137.454545 9.538568 
L 139.974855 6.562944 
L 140.727273 5.808515 
L 143.247582 3.281472 
L 144 2.066484 
L 147.272727 2.115932 
L 150.315399 0 
M 156.475669 0 
L 157.090909 0.19318 
L 160.363636 0.930506 
L 163.636364 1.157445 
L 166.909091 0.584915 
L 167.588594 3.281472 
L 170.181818 5.881625 
L 170.862392 6.562944 
L 173.454545 9.572382 
L 176.727273 9.572383 
L 179.728692 6.562944 
L 180 6.290911 
L 182.268851 6.290911 
M 177.275937 0 
L 176.727273 0.550131 
L 173.454545 0.33922 
L 170.181818 0.092831 
L 169.073283 0 
" clip-path="url(#p75a5b25f1e)" style="fill: none"/>
    <path d="M 79.953375 0 
L 79.969684 0.021377 
M 125.45987 4.679043 
L 125.459851 6.562944 
L 127.636364 9.232707 
L 130.909091 9.232707 
L 134.181818 9.23272 
L 137.454545 9.23272 
L 139.715806 6.562944 
L 140.727273 5.548774 
L 142.988533 3.281472 
L 144 1.648178 
L 147.272727 1.714651 
L 149.738364 0 
M 159.857775 0 
L 160.363636 0.121096 
L 163.636364 0.426169 
L 165.638224 0 
M 168.978334 1.8603 
L 167.822538 3.281472 
L 170.181818 5.647055 
L 171.096705 6.562944 
L 173.454545 9.300349 
L 176.727273 9.30035 
L 179.457384 6.562944 
L 180 6.018878 
L 183.272727 6.018878 
L 185.630573 3.281472 
L 186.545455 2.364146 
L 188.9033 0 
" clip-path="url(#p75a5b25f1e)" style="fill: none"/>
    <path d="M 135.256712 0 
L 134.181818 0.146609 
L 130.909091 0.521983 
L 127.636364 0.817104 
L 125.709237 3.281472 
L 125.709198 6.562944 
L 127.636364 8.926852 
L 130.909091 8.926852 
L 134.181818 8.926872 
L 137.454545 8.926872 
L 139.456758 6.562944 
L 140.727273 5.289034 
L 141.589298 4.424705 
M 169.196941 1.879159 
L 168.056483 3.281472 
L 170.181818 5.412486 
L 171.331018 6.562944 
L 173.454545 9.028316 
L 176.727273 9.028317 
L 179.186077 6.562944 
L 180 5.746845 
L 183.272727 5.746845 
L 185.396259 3.281472 
L 186.545455 2.129206 
L 188.668987 0 
" clip-path="url(#p75a5b25f1e)" style="fill: none"/>
    <path d="M 138.230489 0 
L 137.454545 0.122493 
L 134.418204 0.521175 
M 131.253612 8.621001 
L 134.181818 8.621024 
L 137.454545 8.621024 
L 139.197709 6.562944 
L 140.727273 5.029293 
L 142.470436 3.281472 
L 144 0.811567 
L 147.272727 0.912089 
L 148.584294 0 
M 169.452485 1.852601 
L 168.290428 3.281472 
L 170.181818 5.177916 
L 171.565331 6.562944 
L 173.454545 8.756283 
L 176.727273 8.756285 
L 178.914769 6.562944 
L 180 5.474813 
L 183.272727 5.474813 
L 185.161946 3.281472 
L 186.545455 1.894267 
L 188.434673 0 
" clip-path="url(#p75a5b25f1e)" style="fill: none"/>
    <path d="M 141.204265 0 
L 144 0.393261 
L 147.272727 0.510808 
L 148.00726 0 
M 169.671409 1.87107 
L 168.524372 3.281472 
L 170.181818 4.943346 
L 171.799644 6.562944 
L 173.454545 8.484251 
L 176.727273 8.484252 
L 178.643461 6.562944 
L 180 5.20278 
L 183.272727 5.20278 
L 184.927633 3.281472 
L 186.545455 1.659327 
L 188.20036 0 
M 137.158944 8.315177 
L 137.454545 8.315177 
L 138.938661 6.562944 
L 140.727273 4.769552 
L 142.211388 3.281472 
L 140.727273 0.08937 
L 137.454545 0.591943 
L 134.181818 0.957817 
L 130.909091 1.236055 
L 129.333402 1.341391 
" clip-path="url(#p75a5b25f1e)" style="fill: none"/>
    <path d="M 144.588736 0 
L 147.272727 0.109527 
L 147.430225 0 
M 169.890493 1.889343 
L 168.758317 3.281472 
L 170.181818 4.708776 
L 172.033958 6.562944 
L 173.454545 8.212218 
L 176.727273 8.212219 
L 178.372153 6.562944 
L 180 4.930747 
L 183.272727 4.930747 
L 184.693319 3.281472 
L 186.545455 1.424388 
L 187.966046 0 
M 137.158944 8.009329 
L 137.454545 8.009329 
L 138.679612 6.562944 
L 140.727273 4.509812 
L 141.95234 3.281472 
L 140.727273 0.646543 
L 137.454545 1.061393 
L 134.181818 1.363421 
L 130.909091 1.593092 
L 130.129652 1.636107 
" clip-path="url(#p75a5b25f1e)" style="fill: none"/>
    <path d="M 170.109735 1.907422 
L 168.992262 3.281472 
L 170.181818 4.474207 
L 172.268271 6.562944 
L 173.454545 7.940185 
L 176.727273 7.940186 
L 178.100846 6.562944 
L 180 4.658715 
L 183.272727 4.658715 
L 184.459006 3.281472 
L 186.545455 1.189448 
L 187.731733 0 
M 137.158944 7.703481 
L 137.454545 7.703481 
L 138.420564 6.562944 
L 140.727273 4.250071 
L 141.693291 3.281472 
L 140.727273 1.203716 
L 137.454545 1.530844 
L 134.181818 1.769025 
L 130.926569 1.949161 
" clip-path="url(#p75a5b25f1e)" style="fill: none"/>
    <path d="M 170.414302 2.113159 
L 170.181818 2.106447 
L 169.226206 3.281472 
L 170.181818 4.239637 
L 172.502584 6.562944 
L 173.454545 7.668152 
L 176.727273 7.668154 
L 177.829538 6.562944 
L 180 4.386682 
L 183.272727 4.386682 
L 184.224692 3.281472 
L 186.545455 0.954509 
L 187.49742 0 
M 137.158944 7.397633 
L 137.454545 7.397633 
L 138.161515 6.562944 
L 140.727273 3.990331 
L 141.434243 3.281472 
L 140.727273 1.760889 
L 137.454545 2.000294 
L 134.181818 2.174629 
L 131.723613 2.274179 
" clip-path="url(#p75a5b25f1e)" style="fill: none"/>
    <path d="M 170.760889 2.406986 
L 170.181818 2.394106 
L 169.460151 3.281472 
L 170.181818 4.005067 
L 172.736897 6.562944 
L 173.454545 7.396119 
L 176.727273 7.396121 
L 177.55823 6.562944 
L 180 4.114649 
L 183.272727 4.114649 
L 183.990379 3.281472 
L 186.545455 0.719569 
L 187.263106 0 
M 137.158944 7.091786 
L 137.454545 7.091786 
L 137.902467 6.562944 
L 140.727273 3.73059 
L 141.175194 3.281472 
L 140.727273 2.318062 
L 137.454545 2.469744 
L 134.181818 2.580233 
L 132.520986 2.622845 
" clip-path="url(#p75a5b25f1e)" style="fill: none"/>
    <path d="M 179.492069 0 
L 176.727273 2.772184 
L 173.454545 2.732857 
L 170.181818 2.681766 
L 169.694095 3.281472 
L 170.181818 3.770498 
L 172.97121 6.562944 
L 173.454545 7.124086 
L 176.727273 7.124088 
L 177.286922 6.562944 
L 180 3.842617 
L 183.272727 3.842617 
L 183.756065 3.281472 
L 186.545455 0.48463 
L 187.028793 0 
M 127.636364 6.785873 
L 130.909091 6.785873 
L 134.181818 6.785938 
L 137.454545 6.785938 
L 137.643418 6.562944 
L 140.727273 3.470849 
L 140.916146 3.281472 
L 140.727273 2.875235 
L 137.454545 2.939194 
L 134.181818 2.985838 
L 130.909091 3.021237 
L 127.636364 3.049178 
L 127.454711 3.281472 
L 127.454622 6.562944 
L 127.636364 6.785873 
z
" clip-path="url(#p75a5b25f1e)" style="fill: none"/>
    <path d="M 179.738306 0 
L 176.727273 3.019079 
L 173.454545 2.998817 
L 170.181818 2.969425 
L 169.92804 3.281472 
L 170.181818 3.535928 
L 173.205524 6.562944 
L 173.454545 6.852053 
L 176.727273 6.852056 
L 177.015614 6.562944 
L 180 3.570584 
L 183.272727 3.570584 
L 183.521752 3.281472 
L 186.545455 0.24969 
L 186.794479 0 
" clip-path="url(#p75a5b25f1e)" style="fill: none"/>
    <path d="M 179.984543 0 
L 176.727273 3.265973 
L 173.454545 3.264777 
L 170.181818 3.257084 
L 170.161985 3.281472 
L 170.181818 3.301358 
L 173.439837 6.562944 
L 173.454545 6.58002 
L 176.727273 6.580023 
L 176.744307 6.562944 
L 180 3.298551 
L 183.272727 3.298551 
L 183.287439 3.281472 
L 186.545455 0.014751 
L 186.560166 0 
" clip-path="url(#p75a5b25f1e)" style="fill: none"/>
    <path clip-path="url(#p75a5b25f1e)" style="fill: none"/>
    <path clip-path="url(#p75a5b25f1e)" style="fill: none"/>
    <path clip-path="url(#p75a5b25f1e)" style="fill: none"/>
    <path clip-path="url(#p75a5b25f1e)" style="fill: none"/>
    <path clip-path="url(#p75a5b25f1e)" style="fill: none"/>
    <path clip-path="url(#p75a5b25f1e)" style="fill: none"/>
    <path clip-path="url(#p75a5b25f1e)" style="fill: none"/>
    <path clip-path="url(#p75a5b25f1e)" style="fill: none"/>
    <path clip-path="url(#p75a5b25f1e)" style="fill: none"/>
    <path clip-path="url(#p75a5b25f1e)" style="fill: none"/>
    <path clip-path="url(#p75a5b25f1e)" style="fill: none"/>
    <path clip-path="url(#p75a5b25f1e)" style="fill: none"/>
    <path clip-path="url(#p75a5b25f1e)" style="fill: none"/>
    <path clip-path="url(#p75a5b25f1e)" style="fill: none"/>
    <path clip-path="url(#p75a5b25f1e)" style="fill: none"/>
    <path clip-path="url(#p75a5b25f1e)" style="fill: none"/>
    <path clip-path="url(#p75a5b25f1e)" style="fill: none"/>
    <path clip-path="url(#p75a5b25f1e)" style="fill: none"/>
    <path clip-path="url(#p75a5b25f1e)" style="fill: none"/>
    <path clip-path="url(#p75a5b25f1e)" style="fill: none"/>
    <path clip-path="url(#p75a5b25f1e)" style="fill: none"/>
    <path clip-path="url(#p75a5b25f1e)" style="fill: none"/>
    <path clip-path="url(#p75a5b25f1e)" style="fill: none"/>
    <path clip-path="url(#p75a5b25f1e)" style="fill: none"/>
    <path clip-path="url(#p75a5b25f1e)" style="fill: none"/>
    <path clip-path="url(#p75a5b25f1e)" style="fill: none"/>
   </g>
   <g id="text_1">
    <g clip-path="url(#p75a5b25f1e)">
     <!-- 0 -->
     <g style="opacity: 0" transform="translate(84.816021 6.880375) rotate(-4.473239) scale(0.12 -0.12)">
      <defs>
       <path id="DejaVuSans-30" d="M 2034 4250 
Q 1547 4250 1301 3770 
Q 1056 3291 1056 2328 
Q 1056 1369 1301 889 
Q 1547 409 2034 409 
Q 2525 409 2770 889 
Q 3016 1369 3016 2328 
Q 3016 3291 2770 3770 
Q 2525 4250 2034 4250 
z
M 2034 4750 
Q 2819 4750 3233 4129 
Q 3647 3509 3647 2328 
Q 3647 1150 3233 529 
Q 2819 -91 2034 -91 
Q 1250 -91 836 529 
Q 422 1150 422 2328 
Q 422 3509 836 4129 
Q 1250 4750 2034 4750 
z
" transform="scale(0.015625)"/>
      </defs>
      <use xlink:href="#DejaVuSans-30"/>
     </g>
    </g>
   </g>
   <g id="text_2">
    <g clip-path="url(#p75a5b25f1e)">
     <!-- 0 -->
     <g style="opacity: 0" transform="translate(156.264027 4.694721) rotate(-354.844353) scale(0.12 -0.12)">
      <use xlink:href="#DejaVuSans-30"/>
     </g>
    </g>
   </g>
   <g id="text_3">
    <g clip-path="url(#p75a5b25f1e)">
     <!-- 1 -->
     <g style="opacity: 0" transform="translate(84.775742 6.421676) rotate(-3.828403) scale(0.12 -0.12)">
      <defs>
       <path id="DejaVuSans-31" d="M 794 531 
L 1825 531 
L 1825 4091 
L 703 3866 
L 703 4441 
L 1819 4666 
L 2450 4666 
L 2450 531 
L 3481 531 
L 3481 0 
L 794 0 
L 794 531 
z
" transform="scale(0.015625)"/>
      </defs>
      <use xlink:href="#DejaVuSans-31"/>
     </g>
    </g>
   </g>
   <g id="text_4">
    <g clip-path="url(#p75a5b25f1e)">
     <!-- 1 -->
     <g style="opacity: 0" transform="translate(127.383756 5.226533) rotate(-46.19683) scale(0.12 -0.12)">
      <use xlink:href="#DejaVuSans-31"/>
     </g>
    </g>
   </g>
   <g id="text_5">
    <g clip-path="url(#p75a5b25f1e)">
     <!-- 1 -->
     <g style="opacity: 0" transform="translate(188.79361 5.04176) rotate(-45.158762) scale(0.12 -0.12)">
      <use xlink:href="#DejaVuSans-31"/>
     </g>
    </g>
   </g>
   <g id="text_6">
    <g clip-path="url(#p75a5b25f1e)">
     <!-- 2 -->
     <g style="opacity: 0" transform="translate(84.739332 5.966042) rotate(-3.239128) scale(0.12 -0.12)">
      <defs>
       <path id="DejaVuSans-32" d="M 1228 531 
L 3431 531 
L 3431 0 
L 469 0 
L 469 531 
Q 828 903 1448 1529 
Q 2069 2156 2228 2338 
Q 2531 2678 2651 2914 
Q 2772 3150 2772 3378 
Q 2772 3750 2511 3984 
Q 2250 4219 1831 4219 
Q 1534 4219 1204 4116 
Q 875 4013 500 3803 
L 500 4441 
Q 881 4594 1212 4672 
Q 1544 4750 1819 4750 
Q 2544 4750 2975 4387 
Q 3406 4025 3406 3419 
Q 3406 3131 3298 2873 
Q 3191 2616 2906 2266 
Q 2828 2175 2409 1742 
Q 1991 1309 1228 531 
z
" transform="scale(0.015625)"/>
      </defs>
      <use xlink:href="#DejaVuSans-32"/>
     </g>
    </g>
   </g>
   <g id="text_7">
    <g clip-path="url(#p75a5b25f1e)">
     <!-- 2 -->
     <g style="opacity: 0" transform="translate(128.983203 3.827459) rotate(-8.29674) scale(0.12 -0.12)">
      <use xlink:href="#DejaVuSans-32"/>
     </g>
    </g>
   </g>
   <g id="text_8">
    <g clip-path="url(#p75a5b25f1e)">
     <!-- 2 -->
     <g style="opacity: 0" transform="translate(174.13655 3.751697) rotate(-6.998185) scale(0.12 -0.12)">
      <use xlink:href="#DejaVuSans-32"/>
     </g>
    </g>
   </g>
   <g id="text_9">
    <g clip-path="url(#p75a5b25f1e)">
     <!-- 3 -->
     <g style="opacity: 0" transform="translate(84.703444 5.510183) rotate(-2.652146) scale(0.12 -0.12)">
      <defs>
       <path id="DejaVuSans-33" d="M 2597 2516 
Q 3050 2419 3304 2112 
Q 3559 1806 3559 1356 
Q 3559 666 3084 287 
Q 2609 -91 1734 -91 
Q 1441 -91 1130 -33 
Q 819 25 488 141 
L 488 750 
Q 750 597 1062 519 
Q 1375 441 1716 441 
Q 2309 441 2620 675 
Q 2931 909 2931 1356 
Q 2931 1769 2642 2001 
Q 2353 2234 1838 2234 
L 1294 2234 
L 1294 2753 
L 1863 2753 
Q 2328 2753 2575 2939 
Q 2822 3125 2822 3475 
Q 2822 3834 2567 4026 
Q 2313 4219 1838 4219 
Q 1578 4219 1281 4162 
Q 984 4106 628 3988 
L 628 4550 
Q 988 4650 1302 4700 
Q 1616 4750 1894 4750 
Q 2613 4750 3031 4423 
Q 3450 4097 3450 3541 
Q 3450 3153 3228 2886 
Q 3006 2619 2597 2516 
z
" transform="scale(0.015625)"/>
      </defs>
      <use xlink:href="#DejaVuSans-33"/>
     </g>
    </g>
   </g>
   <g id="text_10">
    <g clip-path="url(#p75a5b25f1e)">
     <!-- 3 -->
     <g style="opacity: 0" transform="translate(146.352334 4.20086) rotate(-15.292536) scale(0.12 -0.12)">
      <use xlink:href="#DejaVuSans-33"/>
     </g>
    </g>
   </g>
   <g id="text_11">
    <g clip-path="url(#p75a5b25f1e)">
     <!-- 3 -->
     <g style="opacity: 0" transform="translate(174.634813 3.964625) rotate(-10.739582) scale(0.12 -0.12)">
      <use xlink:href="#DejaVuSans-33"/>
     </g>
    </g>
   </g>
   <g id="text_12">
    <g clip-path="url(#p75a5b25f1e)">
     <!-- 4 -->
     <g style="opacity: 0" transform="translate(84.669537 5.055668) rotate(-2.091691) scale(0.12 -0.12)">
      <defs>
       <path id="DejaVuSans-34" d="M 2419 4116 
L 825 1625 
L 2419 1625 
L 2419 4116 
z
M 2253 4666 
L 3047 4666 
L 3047 1625 
L 3713 1625 
L 3713 1100 
L 3047 1100 
L 3047 0 
L 2419 0 
L 2419 1100 
L 313 1100 
L 313 1709 
L 2253 4666 
z
" transform="scale(0.015625)"/>
      </defs>
      <use xlink:href="#DejaVuSans-34"/>
     </g>
    </g>
   </g>
   <g id="text_13">
    <g clip-path="url(#p75a5b25f1e)">
     <!-- 4 -->
     <g style="opacity: 0" transform="translate(127.563388 8.073372) rotate(-67.577653) scale(0.12 -0.12)">
      <use xlink:href="#DejaVuSans-34"/>
     </g>
    </g>
   </g>
   <g id="text_14">
    <g clip-path="url(#p75a5b25f1e)">
     <!-- 4 -->
     <g style="opacity: 0" transform="translate(175.162475 4.171665) rotate(-14.701583) scale(0.12 -0.12)">
      <use xlink:href="#DejaVuSans-34"/>
     </g>
    </g>
   </g>
   <g id="text_15">
    <g clip-path="url(#p75a5b25f1e)">
     <!-- 5 -->
     <g style="opacity: 0" transform="translate(84.63419 4.598863) rotate(-1.501122) scale(0.12 -0.12)">
      <defs>
       <path id="DejaVuSans-35" d="M 691 4666 
L 3169 4666 
L 3169 4134 
L 1269 4134 
L 1269 2991 
Q 1406 3038 1543 3061 
Q 1681 3084 1819 3084 
Q 2600 3084 3056 2656 
Q 3513 2228 3513 1497 
Q 3513 744 3044 326 
Q 2575 -91 1722 -91 
Q 1428 -91 1123 -41 
Q 819 9 494 109 
L 494 744 
Q 775 591 1075 516 
Q 1375 441 1709 441 
Q 2250 441 2565 725 
Q 2881 1009 2881 1497 
Q 2881 1984 2565 2268 
Q 2250 2553 1709 2553 
Q 1456 2553 1204 2497 
Q 953 2441 691 2322 
L 691 4666 
z
" transform="scale(0.015625)"/>
      </defs>
      <use xlink:href="#DejaVuSans-35"/>
     </g>
    </g>
   </g>
   <g id="text_16">
    <g clip-path="url(#p75a5b25f1e)">
     <!-- 5 -->
     <g style="opacity: 0" transform="translate(175.688532 4.349791) rotate(-18.4631) scale(0.12 -0.12)">
      <use xlink:href="#DejaVuSans-35"/>
     </g>
    </g>
   </g>
   <g id="text_17">
    <g clip-path="url(#p75a5b25f1e)">
     <!-- 5 -->
     <g style="opacity: 0" transform="translate(122.612801 8.864239) rotate(-325.299944) scale(0.12 -0.12)">
      <use xlink:href="#DejaVuSans-35"/>
     </g>
    </g>
   </g>
   <g id="text_18">
    <g clip-path="url(#p75a5b25f1e)">
     <!-- 6 -->
     <g style="opacity: 0" transform="translate(84.599303 4.141768) rotate(-0.911646) scale(0.12 -0.12)">
      <defs>
       <path id="DejaVuSans-36" d="M 2113 2584 
Q 1688 2584 1439 2293 
Q 1191 2003 1191 1497 
Q 1191 994 1439 701 
Q 1688 409 2113 409 
Q 2538 409 2786 701 
Q 3034 994 3034 1497 
Q 3034 2003 2786 2293 
Q 2538 2584 2113 2584 
z
M 3366 4563 
L 3366 3988 
Q 3128 4100 2886 4159 
Q 2644 4219 2406 4219 
Q 1781 4219 1451 3797 
Q 1122 3375 1075 2522 
Q 1259 2794 1537 2939 
Q 1816 3084 2150 3084 
Q 2853 3084 3261 2657 
Q 3669 2231 3669 1497 
Q 3669 778 3244 343 
Q 2819 -91 2113 -91 
Q 1303 -91 875 529 
Q 447 1150 447 2328 
Q 447 3434 972 4092 
Q 1497 4750 2381 4750 
Q 2619 4750 2861 4703 
Q 3103 4656 3366 4563 
z
" transform="scale(0.015625)"/>
      </defs>
      <use xlink:href="#DejaVuSans-36"/>
     </g>
    </g>
   </g>
   <g id="text_19">
    <g clip-path="url(#p75a5b25f1e)">
     <!-- 6 -->
     <g style="opacity: 0" transform="translate(176.223007 4.507827) rotate(-22.190736) scale(0.12 -0.12)">
      <use xlink:href="#DejaVuSans-36"/>
     </g>
    </g>
   </g>
   <g id="text_20">
    <g clip-path="url(#p75a5b25f1e)">
     <!-- 6 -->
     <g style="opacity: 0" transform="translate(122.599138 8.414313) rotate(-323.659093) scale(0.12 -0.12)">
      <use xlink:href="#DejaVuSans-36"/>
     </g>
    </g>
   </g>
   <g id="text_21">
    <g clip-path="url(#p75a5b25f1e)">
     <!-- 7 -->
     <g style="opacity: 0" transform="translate(84.564854 3.684361) rotate(-0.322837) scale(0.12 -0.12)">
      <defs>
       <path id="DejaVuSans-37" d="M 525 4666 
L 3525 4666 
L 3525 4397 
L 1831 0 
L 1172 0 
L 2766 4134 
L 525 4134 
L 525 4666 
z
" transform="scale(0.015625)"/>
      </defs>
      <use xlink:href="#DejaVuSans-37"/>
     </g>
    </g>
   </g>
   <g id="text_22">
    <g clip-path="url(#p75a5b25f1e)">
     <!-- 7 -->
     <g style="opacity: 0" transform="translate(176.762162 4.644655) rotate(-25.856896) scale(0.12 -0.12)">
      <use xlink:href="#DejaVuSans-37"/>
     </g>
    </g>
   </g>
   <g id="text_23">
    <g clip-path="url(#p75a5b25f1e)">
     <!-- 7 -->
     <g style="opacity: 0" transform="translate(122.588234 7.935958) rotate(-321.699296) scale(0.12 -0.12)">
      <use xlink:href="#DejaVuSans-37"/>
     </g>
    </g>
   </g>
   <g id="text_24">
    <g clip-path="url(#p75a5b25f1e)">
     <!-- 8 -->
     <g style="opacity: 0" transform="translate(177.302295 4.759922) rotate(-29.436752) scale(0.12 -0.12)">
      <defs>
       <path id="DejaVuSans-38" d="M 2034 2216 
Q 1584 2216 1326 1975 
Q 1069 1734 1069 1313 
Q 1069 891 1326 650 
Q 1584 409 2034 409 
Q 2484 409 2743 651 
Q 3003 894 3003 1313 
Q 3003 1734 2745 1975 
Q 2488 2216 2034 2216 
z
M 1403 2484 
Q 997 2584 770 2862 
Q 544 3141 544 3541 
Q 544 4100 942 4425 
Q 1341 4750 2034 4750 
Q 2731 4750 3128 4425 
Q 3525 4100 3525 3541 
Q 3525 3141 3298 2862 
Q 3072 2584 2669 2484 
Q 3125 2378 3379 2068 
Q 3634 1759 3634 1313 
Q 3634 634 3220 271 
Q 2806 -91 2034 -91 
Q 1263 -91 848 271 
Q 434 634 434 1313 
Q 434 1759 690 2068 
Q 947 2378 1403 2484 
z
M 1172 3481 
Q 1172 3119 1398 2916 
Q 1625 2713 2034 2713 
Q 2441 2713 2670 2916 
Q 2900 3119 2900 3481 
Q 2900 3844 2670 4047 
Q 2441 4250 2034 4250 
Q 1625 4250 1398 4047 
Q 1172 3844 1172 3481 
z
" transform="scale(0.015625)"/>
      </defs>
      <use xlink:href="#DejaVuSans-38"/>
     </g>
    </g>
   </g>
   <g id="text_25">
    <g clip-path="url(#p75a5b25f1e)">
     <!-- 8 -->
     <g style="opacity: 0" transform="translate(122.582885 7.403819) rotate(-319.13278) scale(0.12 -0.12)">
      <use xlink:href="#DejaVuSans-38"/>
     </g>
    </g>
   </g>
   <g id="text_26">
    <g clip-path="url(#p75a5b25f1e)">
     <!-- 9 -->
     <g style="opacity: 0" transform="translate(177.839944 4.853984) rotate(-32.909138) scale(0.12 -0.12)">
      <defs>
       <path id="DejaVuSans-39" d="M 703 97 
L 703 672 
Q 941 559 1184 500 
Q 1428 441 1663 441 
Q 2288 441 2617 861 
Q 2947 1281 2994 2138 
Q 2813 1869 2534 1725 
Q 2256 1581 1919 1581 
Q 1219 1581 811 2004 
Q 403 2428 403 3163 
Q 403 3881 828 4315 
Q 1253 4750 1959 4750 
Q 2769 4750 3195 4129 
Q 3622 3509 3622 2328 
Q 3622 1225 3098 567 
Q 2575 -91 1691 -91 
Q 1453 -91 1209 -44 
Q 966 3 703 97 
z
M 1959 2075 
Q 2384 2075 2632 2365 
Q 2881 2656 2881 3163 
Q 2881 3666 2632 3958 
Q 2384 4250 1959 4250 
Q 1534 4250 1286 3958 
Q 1038 3666 1038 3163 
Q 1038 2656 1286 2365 
Q 1534 2075 1959 2075 
z
" transform="scale(0.015625)"/>
      </defs>
      <use xlink:href="#DejaVuSans-39"/>
     </g>
    </g>
   </g>
   <g id="text_27">
    <g clip-path="url(#p75a5b25f1e)">
     <!-- 9 -->
     <g style="opacity: 0" transform="translate(122.586459 6.901618) rotate(-316.906113) scale(0.12 -0.12)">
      <use xlink:href="#DejaVuSans-39"/>
     </g>
    </g>
   </g>
  </g>
 </g>
 <defs>
  <clipPath id="p75a5b25f1e">
   <rect x="0" y="0" width="576" height="817.086468"/>
  </clipPath>
 </defs>
</svg>
