<?xml version="1.0" encoding="utf-8" standalone="no"?>
<!DOCTYPE svg PUBLIC "-//W3C//DTD SVG 1.1//EN"
  "http://www.w3.org/Graphics/SVG/1.1/DTD/svg11.dtd">
<svg xmlns:xlink="http://www.w3.org/1999/xlink" width="576pt" height="817.373583pt" viewBox="0 0 576 817.373583" xmlns="http://www.w3.org/2000/svg" version="1.1">
 <metadata>
  <rdf:RDF xmlns:dc="http://purl.org/dc/elements/1.1/" xmlns:cc="http://creativecommons.org/ns#" xmlns:rdf="http://www.w3.org/1999/02/22-rdf-syntax-ns#">
   <cc:Work>
    <dc:type rdf:resource="http://purl.org/dc/dcmitype/StillImage"/>
    <dc:date>2025-07-25T22:44:25.057687</dc:date>
    <dc:format>image/svg+xml</dc:format>
    <dc:creator>
     <cc:Agent>
      <dc:title>Matplotlib v3.10.3, https://matplotlib.org/</dc:title>
     </cc:Agent>
    </dc:creator>
   </cc:Work>
  </rdf:RDF>
 </metadata>
 <defs>
  <style type="text/css">*{stroke-linejoin: round; stroke-linecap: butt}</style>
 </defs>
 <g id="figure_1">
  <g id="patch_1">
   <path d="M 0 817.373583 
L 576 817.373583 
L 576 0 
L 0 0 
L 0 817.373583 
z
" style="fill: none; opacity: 0"/>
  </g>
  <g id="axes_1">
   <g id="QuadContourSet_1">
    <path d="M 461.454545 817.373583 
L 461.705558 817.373583 
L 464.727273 816.244445 
L 468 815.621512 
L 471.272727 814.932342 
L 474.043272 814.090958 
L 472.433131 810.808333 
L 474.545455 808.689622 
L 475.705858 807.525709 
L 477.818182 804.738347 
L 479.907905 807.525709 
L 480.048647 810.808333 
L 481.090909 813.096463 
L 484.363636 813.233408 
L 487.636364 812.815836 
L 490.909091 811.739567 
L 492.855083 810.808333 
L 494.181818 809.972327 
L 497.454545 808.457511 
L 500.481102 807.525709 
L 500.727273 807.40485 
L 504 806.573202 
L 505.239673 804.243084 
L 507.272727 802.203881 
L 508.5124 800.960459 
L 510.545455 798.921256 
L 513.818182 798.921256 
L 515.818147 800.960459 
L 517.090909 804.052767 
L 520.363636 804.111004 
L 520.956763 804.243084 
L 523.636364 804.995272 
L 526.909091 804.572706 
L 527.535468 804.243084 
L 530.181818 802.680572 
L 533.454545 801.316056 
L 534.413705 800.960459 
L 536.727273 800.041227 
L 540 799.521893 
L 543.272727 799.048231 
L 546.545455 798.600417 
L 548.889736 797.677834 
L 546.545455 797.158805 
L 544.679946 794.395209 
L 546.545455 792.524059 
L 549.818182 792.524059 
L 551.711315 794.395209 
L 553.090909 797.143515 
L 556.234673 797.677834 
L 556.363636 797.728351 
L 559.636364 798.074225 
L 560.58514 797.677834 
L 562.909091 796.031098 
L 566.181818 795.219554 
L 567.85671 794.395209 
L 569.454545 793.389579 
L 572.727273 792.493528 
L 576 791.886231 
L 576 791.299757 
L 572.727273 791.976501 
L 569.454545 792.68076 
L 566.730475 794.395209 
L 566.181818 794.665246 
L 562.909091 794.954071 
L 559.636364 796.622719 
L 556.363636 796.583759 
L 553.090909 796.287978 
L 552.140777 794.395209 
L 549.818182 792.099584 
L 546.545455 792.099584 
L 544.256751 794.395209 
L 546.05811 797.677834 
L 543.272727 798.357391 
L 540 798.934509 
L 536.727273 799.33048 
L 533.454545 800.414566 
L 532.585234 800.960459 
L 530.181818 801.926901 
L 526.909091 803.186989 
L 523.636364 803.780044 
L 520.363636 803.163535 
L 517.090909 803.122812 
L 516.200907 800.960459 
L 513.818182 798.530987 
L 510.545455 798.530987 
L 508.123307 800.960459 
L 507.272727 801.813612 
L 504.85058 804.243084 
L 504 805.841855 
L 500.727273 806.412475 
L 498.459789 807.525709 
L 497.454545 807.835198 
L 494.181818 809.021152 
L 491.345576 810.808333 
L 490.909091 811.017209 
L 489.608938 810.808333 
L 487.636364 810.259673 
L 485.294716 810.808333 
L 484.363636 811.168526 
L 481.090909 812.226417 
L 480.44496 810.808333 
L 480.279211 807.525709 
L 477.818182 804.243084 
L 475.330537 807.525709 
L 474.545455 808.313165 
L 472.057809 810.808333 
L 471.794684 814.090958 
L 471.272727 814.249471 
L 468 815.052022 
L 464.727273 815.547921 
L 461.454545 816.412987 
L 460.219936 817.373583 
z
M 510.545455 805.754139 
L 513.818182 805.393768 
L 516.523603 804.243084 
L 513.818182 803.726446 
L 510.545455 803.28406 
L 509.589322 804.243084 
z
M 510.03268 804.243084 
L 510.545455 803.728758 
L 513.751543 804.243084 
L 510.545455 805.053465 
z
" clip-path="url(#p036e48533f)" style="fill: #f5f9fe; fill-opacity: 0.9"/>
    <path d="M 464.727273 816.94097 
L 468 816.191002 
L 471.272727 815.615214 
L 474.545455 815.062556 
L 476.291861 814.090958 
L 474.545455 813.619238 
L 472.808453 810.808333 
L 474.545455 809.066078 
L 476.08118 807.525709 
L 477.818182 805.233611 
L 479.5366 807.525709 
L 479.652334 810.808333 
L 481.090909 813.966508 
L 481.734172 814.090958 
L 484.363636 814.919168 
L 487.636364 814.513131 
L 488.362886 814.090958 
L 490.909091 812.461924 
L 494.181818 810.898857 
L 494.318524 810.808333 
L 497.454545 809.079823 
L 500.727273 808.126857 
L 503.161731 807.525709 
L 504 807.30455 
L 505.628765 804.243084 
L 507.272727 802.59415 
L 508.901493 800.960459 
L 510.545455 799.311525 
L 513.818182 799.311525 
L 515.435387 800.960459 
L 513.818182 803.197082 
L 510.545455 802.839362 
L 509.145965 804.243084 
L 510.545455 806.454814 
L 513.818182 806.572795 
L 517.090909 807.434491 
L 517.164824 807.525709 
L 520.363636 808.265963 
L 521.895035 807.525709 
L 523.636364 806.189621 
L 526.909091 805.244424 
L 528.811925 804.243084 
L 530.181818 803.434244 
L 533.454545 801.979249 
L 536.202549 800.960459 
L 536.727273 800.751974 
L 540 800.109277 
L 543.272727 799.73907 
L 546.545455 799.714793 
L 549.818182 799.613582 
L 552.406603 800.960459 
L 553.090909 801.067855 
L 553.621334 800.960459 
L 556.363636 799.700123 
L 559.636364 798.709247 
L 562.105091 797.677834 
L 562.909091 797.108125 
L 566.181818 795.773862 
L 568.982946 794.395209 
L 569.454545 794.098399 
L 572.727273 793.010555 
L 576 792.472706 
L 576 791.886231 
L 572.727273 792.493528 
L 569.454545 793.389579 
L 567.85671 794.395209 
L 566.181818 795.219554 
L 562.909091 796.031098 
L 560.58514 797.677834 
L 559.636364 798.074225 
L 556.363636 797.728351 
L 556.234673 797.677834 
L 553.090909 797.143515 
L 551.711315 794.395209 
L 549.818182 792.524059 
L 546.545455 792.524059 
L 544.679946 794.395209 
L 546.545455 797.158805 
L 548.889736 797.677834 
L 546.545455 798.600417 
L 543.272727 799.048231 
L 540 799.521893 
L 536.727273 800.041227 
L 534.413705 800.960459 
L 533.454545 801.316056 
L 530.181818 802.680572 
L 527.535468 804.243084 
L 526.909091 804.572706 
L 523.636364 804.995272 
L 520.956763 804.243084 
L 520.363636 804.111004 
L 517.090909 804.052767 
L 515.818147 800.960459 
L 513.818182 798.921256 
L 510.545455 798.921256 
L 508.5124 800.960459 
L 507.272727 802.203881 
L 505.239673 804.243084 
L 504 806.573202 
L 500.727273 807.40485 
L 500.481102 807.525709 
L 497.454545 808.457511 
L 494.181818 809.972327 
L 492.855083 810.808333 
L 490.909091 811.739567 
L 487.636364 812.815836 
L 484.363636 813.233408 
L 481.090909 813.096463 
L 480.048647 810.808333 
L 479.907905 807.525709 
L 477.818182 804.738347 
L 475.705858 807.525709 
L 474.545455 808.689622 
L 472.433131 810.808333 
L 474.043272 814.090958 
L 471.272727 814.932342 
L 468 815.621512 
L 464.727273 816.244445 
L 461.705558 817.373583 
L 463.569546 817.373583 
z
M 509.589322 804.243084 
L 510.545455 803.28406 
L 513.818182 803.726446 
L 516.523603 804.243084 
L 513.818182 805.393768 
L 510.545455 805.754139 
z
M 545.103141 794.395209 
L 546.545455 792.948534 
L 549.818182 792.948534 
L 551.281853 794.395209 
L 549.818182 797.137109 
L 546.545455 796.531876 
z
" clip-path="url(#p036e48533f)" style="fill: #eff6fc; fill-opacity: 0.9"/>
    <path d="M 464.727273 817.373583 
L 465.579259 817.373583 
L 468 816.760493 
L 471.272727 816.298085 
L 474.545455 816.313537 
L 477.818182 816.482067 
L 478.356365 817.373583 
L 481.090909 817.373583 
L 482.575691 817.373583 
L 484.363636 816.335642 
L 487.636364 815.169211 
L 489.491942 814.090958 
L 490.909091 813.184282 
L 494.181818 811.646492 
L 495.44758 810.808333 
L 497.454545 809.702136 
L 500.727273 808.81137 
L 504 808.316771 
L 505.933791 807.525709 
L 506.017858 804.243084 
L 507.272727 802.984419 
L 508.702607 804.243084 
L 510.545455 807.155489 
L 512.946643 807.525709 
L 512.741014 810.808333 
L 513.818182 811.212187 
L 516.006586 810.808333 
L 517.090909 810.336255 
L 520.363636 809.0184 
L 523.451636 807.525709 
L 523.636364 807.383971 
L 526.909091 805.916142 
L 530.088383 804.243084 
L 530.181818 804.187916 
L 533.454545 802.642442 
L 536.727273 801.742059 
L 538.728294 800.960459 
L 540 800.69666 
L 543.272727 800.429909 
L 546.545455 800.829168 
L 547.138504 800.960459 
L 548.66085 804.243084 
L 549.818182 804.467517 
L 550.054043 804.243084 
L 553.090909 801.936516 
L 556.363636 801.319797 
L 556.769994 800.960459 
L 559.636364 799.34427 
L 562.909091 798.115682 
L 563.439588 797.677834 
L 566.181818 796.32817 
L 569.454545 794.899227 
L 570.296509 794.395209 
L 572.727273 793.527582 
L 576 793.059181 
L 576 792.472706 
L 572.727273 793.010555 
L 569.454545 794.098399 
L 568.982946 794.395209 
L 566.181818 795.773862 
L 562.909091 797.108125 
L 562.105091 797.677834 
L 559.636364 798.709247 
L 556.363636 799.700123 
L 553.621334 800.960459 
L 553.090909 801.067855 
L 552.406603 800.960459 
L 549.818182 799.613582 
L 546.545455 799.714793 
L 543.272727 799.73907 
L 540 800.109277 
L 536.727273 800.751974 
L 536.202549 800.960459 
L 533.454545 801.979249 
L 530.181818 803.434244 
L 528.811925 804.243084 
L 526.909091 805.244424 
L 523.636364 806.189621 
L 521.895035 807.525709 
L 520.363636 808.265963 
L 517.164824 807.525709 
L 517.090909 807.434491 
L 513.818182 806.572795 
L 510.545455 806.454814 
L 509.145965 804.243084 
L 510.545455 802.839362 
L 513.818182 803.197082 
L 515.435387 800.960459 
L 513.818182 799.311525 
L 510.545455 799.311525 
L 508.901493 800.960459 
L 507.272727 802.59415 
L 505.628765 804.243084 
L 504 807.30455 
L 503.161731 807.525709 
L 500.727273 808.126857 
L 497.454545 809.079823 
L 494.318524 810.808333 
L 494.181818 810.898857 
L 490.909091 812.461924 
L 488.362886 814.090958 
L 487.636364 814.513131 
L 484.363636 814.919168 
L 481.734172 814.090958 
L 481.090909 813.966508 
L 479.652334 810.808333 
L 479.5366 807.525709 
L 477.818182 805.233611 
L 476.08118 807.525709 
L 474.545455 809.066078 
L 472.808453 810.808333 
L 474.545455 813.619238 
L 476.291861 814.090958 
L 474.545455 815.062556 
L 471.272727 815.615214 
L 468 816.191002 
L 464.727273 816.94097 
L 463.569546 817.373583 
z
M 473.183774 810.808333 
L 474.545455 809.442535 
L 476.456501 807.525709 
L 477.818182 805.728874 
L 479.165294 807.525709 
L 479.256021 810.808333 
L 477.818182 813.823968 
L 474.545455 813.011874 
z
M 509.290585 800.960459 
L 510.545455 799.701794 
L 513.818182 799.701794 
L 515.052628 800.960459 
L 513.818182 802.667719 
L 510.545455 802.394663 
z
M 546.545455 796.531876 
L 549.818182 797.137109 
L 551.281853 794.395209 
L 549.818182 792.948534 
L 546.545455 792.948534 
L 545.103141 794.395209 
z
M 545.526336 794.395209 
L 546.545455 793.373009 
L 549.818182 793.373009 
L 550.852391 794.395209 
L 549.818182 796.332597 
L 546.545455 795.904948 
z
" clip-path="url(#p036e48533f)" style="fill: #eaf3fb; fill-opacity: 0.9"/>
    <path d="M 468 817.329983 
L 471.272727 816.980957 
L 473.858927 817.373583 
L 474.545455 817.373583 
L 477.818182 817.373583 
L 478.356365 817.373583 
L 477.818182 816.482067 
L 474.545455 816.313537 
L 471.272727 816.298085 
L 468 816.760493 
L 465.579259 817.373583 
L 467.827848 817.373583 
z
M 484.363636 817.373583 
L 484.696541 817.373583 
L 487.636364 815.825291 
L 490.620999 814.090958 
L 490.909091 813.90664 
L 494.181818 812.394127 
L 496.576636 810.808333 
L 497.454545 810.324448 
L 500.727273 809.495883 
L 504 809.450746 
L 507.272727 809.23299 
L 509.219903 810.808333 
L 508.317204 814.090958 
L 510.545455 815.126281 
L 511.641221 814.090958 
L 513.818182 812.431228 
L 517.090909 811.980517 
L 518.326071 810.808333 
L 520.363636 809.770837 
L 523.636364 808.729363 
L 524.902803 807.525709 
L 526.909091 806.58786 
L 530.181818 805.514955 
L 531.477856 804.243084 
L 533.454545 803.305635 
L 536.727273 802.848095 
L 540 802.516743 
L 543.076036 804.243084 
L 543.272727 804.627779 
L 546.545455 805.099341 
L 549.818182 805.555796 
L 551.197736 804.243084 
L 553.090909 802.805177 
L 556.363636 802.315718 
L 557.896229 800.960459 
L 559.636364 799.979292 
L 562.909091 799.045225 
L 564.565823 797.677834 
L 566.181818 796.882477 
L 569.454545 795.76634 
L 571.745022 794.395209 
L 572.727273 794.044609 
L 576 793.645656 
L 576 793.059181 
L 572.727273 793.527582 
L 570.296509 794.395209 
L 569.454545 794.899227 
L 566.181818 796.32817 
L 563.439588 797.677834 
L 562.909091 798.115682 
L 559.636364 799.34427 
L 556.769994 800.960459 
L 556.363636 801.319797 
L 553.090909 801.936516 
L 550.054043 804.243084 
L 549.818182 804.467517 
L 548.66085 804.243084 
L 547.138504 800.960459 
L 546.545455 800.829168 
L 543.272727 800.429909 
L 540 800.69666 
L 538.728294 800.960459 
L 536.727273 801.742059 
L 533.454545 802.642442 
L 530.181818 804.187916 
L 530.088383 804.243084 
L 526.909091 805.916142 
L 523.636364 807.383971 
L 523.451636 807.525709 
L 520.363636 809.0184 
L 517.090909 810.336255 
L 516.006586 810.808333 
L 513.818182 811.212187 
L 512.741014 810.808333 
L 512.946643 807.525709 
L 510.545455 807.155489 
L 508.702607 804.243084 
L 507.272727 802.984419 
L 506.017858 804.243084 
L 505.933791 807.525709 
L 504 808.316771 
L 500.727273 808.81137 
L 497.454545 809.702136 
L 495.44758 810.808333 
L 494.181818 811.646492 
L 490.909091 813.184282 
L 489.491942 814.090958 
L 487.636364 815.169211 
L 484.363636 816.335642 
L 482.575691 817.373583 
z
M 506.40695 804.243084 
L 507.272727 803.374689 
L 508.25925 804.243084 
L 507.272727 806.906812 
z
M 474.545455 813.011874 
L 477.818182 813.823968 
L 479.256021 810.808333 
L 479.165294 807.525709 
L 477.818182 805.728874 
L 476.456501 807.525709 
L 474.545455 809.442535 
L 473.183774 810.808333 
z
M 473.559096 810.808333 
L 474.545455 809.818992 
L 476.831823 807.525709 
L 477.818182 806.224138 
L 478.793988 807.525709 
L 478.859707 810.808333 
L 477.818182 812.992765 
L 474.545455 812.404509 
z
M 510.545455 802.394663 
L 513.818182 802.667719 
L 515.052628 800.960459 
L 513.818182 799.701794 
L 510.545455 799.701794 
L 509.290585 800.960459 
z
M 509.679678 800.960459 
L 510.545455 800.092064 
L 513.818182 800.092064 
L 514.669868 800.960459 
L 513.818182 802.138355 
L 510.545455 801.949965 
z
M 546.545455 795.904948 
L 549.818182 796.332597 
L 550.852391 794.395209 
L 549.818182 793.373009 
L 546.545455 793.373009 
L 545.526336 794.395209 
z
M 545.949532 794.395209 
L 546.545455 793.797484 
L 549.818182 793.797484 
L 550.422929 794.395209 
L 549.818182 795.528084 
L 546.545455 795.27802 
z
" clip-path="url(#p036e48533f)" style="fill: #e5eff9; fill-opacity: 0.9"/>
    <path d="M 468 817.373583 
L 471.272727 817.373583 
L 473.858927 817.373583 
L 471.272727 816.980957 
L 468 817.329983 
L 467.827848 817.373583 
z
M 487.636364 816.48137 
L 490.909091 815.297552 
L 492.119181 814.090958 
L 494.181818 813.141761 
L 497.454545 811.307374 
L 498.093247 810.808333 
L 500.727273 810.180396 
L 504 810.584722 
L 504.896137 810.808333 
L 505.065751 814.090958 
L 504 817.075086 
L 503.884619 817.373583 
L 504 817.373583 
L 504.284663 817.373583 
L 507.272727 816.269156 
L 510.545455 816.63702 
L 513.240159 814.090958 
L 513.818182 813.65027 
L 517.090909 813.3829 
L 519.8038 810.808333 
L 520.363636 810.523274 
L 523.636364 810.095093 
L 526.339773 807.525709 
L 526.909091 807.259578 
L 530.181818 806.88728 
L 532.876254 804.243084 
L 533.454545 803.968828 
L 536.727273 803.95413 
L 538.042335 804.243084 
L 539.258152 807.525709 
L 540 808.043584 
L 543.272727 809.191421 
L 544.842474 807.525709 
L 546.545455 806.473634 
L 549.818182 806.644076 
L 552.34143 804.243084 
L 553.090909 803.673838 
L 556.363636 803.311639 
L 559.022465 800.960459 
L 559.636364 800.614315 
L 562.909091 799.974768 
L 565.692058 797.677834 
L 566.181818 797.436785 
L 569.454545 796.633452 
L 572.727273 795.10116 
L 574.48317 794.395209 
L 576 794.232131 
L 576 793.645656 
L 572.727273 794.044609 
L 571.745022 794.395209 
L 569.454545 795.76634 
L 566.181818 796.882477 
L 564.565823 797.677834 
L 562.909091 799.045225 
L 559.636364 799.979292 
L 557.896229 800.960459 
L 556.363636 802.315718 
L 553.090909 802.805177 
L 551.197736 804.243084 
L 549.818182 805.555796 
L 546.545455 805.099341 
L 543.272727 804.627779 
L 543.076036 804.243084 
L 540 802.516743 
L 536.727273 802.848095 
L 533.454545 803.305635 
L 531.477856 804.243084 
L 530.181818 805.514955 
L 526.909091 806.58786 
L 524.902803 807.525709 
L 523.636364 808.729363 
L 520.363636 809.770837 
L 518.326071 810.808333 
L 517.090909 811.980517 
L 513.818182 812.431228 
L 511.641221 814.090958 
L 510.545455 815.126281 
L 508.317204 814.090958 
L 509.219903 810.808333 
L 507.272727 809.23299 
L 504 809.450746 
L 500.727273 809.495883 
L 497.454545 810.324448 
L 496.576636 810.808333 
L 494.181818 812.394127 
L 490.909091 813.90664 
L 490.620999 814.090958 
L 487.636364 815.825291 
L 484.696541 817.373583 
L 485.942273 817.373583 
z
M 474.545455 812.404509 
L 477.818182 812.992765 
L 478.859707 810.808333 
L 478.793988 807.525709 
L 477.818182 806.224138 
L 476.831823 807.525709 
L 474.545455 809.818992 
L 473.559096 810.808333 
z
M 473.934417 810.808333 
L 474.545455 810.195448 
L 477.207144 807.525709 
L 477.818182 806.719401 
L 478.422682 807.525709 
L 478.463394 810.808333 
L 477.818182 812.161563 
L 474.545455 811.797145 
z
M 507.272727 806.906812 
L 508.25925 804.243084 
L 507.272727 803.374689 
L 506.40695 804.243084 
z
M 506.796043 804.243084 
L 507.272727 803.764958 
L 507.815893 804.243084 
L 507.272727 805.709695 
z
M 510.545455 801.949965 
L 513.818182 802.138355 
L 514.669868 800.960459 
L 513.818182 800.092064 
L 510.545455 800.092064 
L 509.679678 800.960459 
z
M 510.06877 800.960459 
L 510.545455 800.482333 
L 513.818182 800.482333 
L 514.287108 800.960459 
L 513.818182 801.608992 
L 510.545455 801.505267 
z
M 546.545455 795.27802 
L 549.818182 795.528084 
L 550.422929 794.395209 
L 549.818182 793.797484 
L 546.545455 793.797484 
L 545.949532 794.395209 
z
M 546.372727 794.395209 
L 546.545455 794.221959 
L 549.818182 794.221959 
L 549.993467 794.395209 
L 549.818182 794.723572 
L 546.545455 794.651091 
z
" clip-path="url(#p036e48533f)" style="fill: #dfecf7; fill-opacity: 0.9"/>
    <path d="M 487.636364 817.13745 
L 490.909091 816.917493 
L 493.743817 814.090958 
L 494.181818 813.889396 
L 497.454545 813.550861 
L 500.727273 811.995671 
L 501.31076 814.090958 
L 500.727273 816.016486 
L 500.09147 817.373583 
L 500.727273 817.373583 
L 503.884619 817.373583 
L 504 817.075086 
L 505.065751 814.090958 
L 504.896137 810.808333 
L 504 810.584722 
L 500.727273 810.180396 
L 498.093247 810.808333 
L 497.454545 811.307374 
L 494.181818 813.141761 
L 492.119181 814.090958 
L 490.909091 815.297552 
L 487.636364 816.48137 
L 485.942273 817.373583 
L 487.188005 817.373583 
z
M 507.272727 817.373583 
L 510.545455 817.373583 
L 513.818182 817.373583 
L 517.090909 817.373583 
L 520.363636 817.373583 
L 523.636364 817.373583 
L 526.909091 817.373583 
L 528.419809 817.373583 
L 530.181818 815.950805 
L 533.454545 817.066374 
L 533.919718 817.373583 
L 536.727273 817.373583 
L 537.313523 817.373583 
L 540 815.198617 
L 543.272727 814.501966 
L 544.062802 814.090958 
L 546.545455 811.604049 
L 549.818182 811.096928 
L 550.372943 810.808333 
L 553.090909 807.968198 
L 556.363636 807.665039 
L 556.578303 807.525709 
L 559.636364 804.264701 
L 559.932793 804.243084 
L 562.525473 800.960459 
L 562.909091 800.904311 
L 566.181818 800.318664 
L 568.585144 797.677834 
L 569.454545 797.500564 
L 572.727273 797.294298 
L 573.570305 797.677834 
L 574.590677 800.960459 
L 576 801.932168 
L 576 800.960459 
L 576 797.677834 
L 576 794.395209 
L 576 794.232131 
L 574.48317 794.395209 
L 572.727273 795.10116 
L 569.454545 796.633452 
L 566.181818 797.436785 
L 565.692058 797.677834 
L 562.909091 799.974768 
L 559.636364 800.614315 
L 559.022465 800.960459 
L 556.363636 803.311639 
L 553.090909 803.673838 
L 552.34143 804.243084 
L 549.818182 806.644076 
L 546.545455 806.473634 
L 544.842474 807.525709 
L 543.272727 809.191421 
L 540 808.043584 
L 539.258152 807.525709 
L 538.042335 804.243084 
L 536.727273 803.95413 
L 533.454545 803.968828 
L 532.876254 804.243084 
L 530.181818 806.88728 
L 526.909091 807.259578 
L 526.339773 807.525709 
L 523.636364 810.095093 
L 520.363636 810.523274 
L 519.8038 810.808333 
L 517.090909 813.3829 
L 513.818182 813.65027 
L 513.240159 814.090958 
L 510.545455 816.63702 
L 507.272727 816.269156 
L 504.284663 817.373583 
z
M 474.545455 811.797145 
L 477.818182 812.161563 
L 478.463394 810.808333 
L 478.422682 807.525709 
L 477.818182 806.719401 
L 477.207144 807.525709 
L 474.545455 810.195448 
L 473.934417 810.808333 
z
M 474.309739 810.808333 
L 474.545455 810.571905 
L 477.582466 807.525709 
L 477.818182 807.214665 
L 478.051376 807.525709 
L 478.067081 810.808333 
L 477.818182 811.33036 
L 474.545455 811.189781 
z
M 507.272727 805.709695 
L 507.815893 804.243084 
L 507.272727 803.764958 
L 506.796043 804.243084 
z
M 507.185135 804.243084 
L 507.272727 804.155227 
L 507.372535 804.243084 
L 507.272727 804.512577 
z
M 510.545455 801.505267 
L 513.818182 801.608992 
L 514.287108 800.960459 
L 513.818182 800.482333 
L 510.545455 800.482333 
L 510.06877 800.960459 
z
M 510.457863 800.960459 
L 510.545455 800.872602 
L 513.818182 800.872602 
L 513.904348 800.960459 
L 513.818182 801.079628 
L 510.545455 801.060569 
z
M 546.545455 794.651091 
L 549.818182 794.723572 
L 549.993467 794.395209 
L 549.818182 794.221959 
L 546.545455 794.221959 
L 546.372727 794.395209 
z
" clip-path="url(#p036e48533f)" style="fill: #dae8f6; fill-opacity: 0.9"/>
    <path d="M 487.636364 817.373583 
L 490.909091 817.373583 
L 494.181818 817.373583 
L 497.454545 817.373583 
L 500.09147 817.373583 
L 500.727273 816.016486 
L 501.31076 814.090958 
L 500.727273 811.995671 
L 497.454545 813.550861 
L 494.181818 813.889396 
L 493.743817 814.090958 
L 490.909091 816.917493 
L 487.636364 817.13745 
L 487.188005 817.373583 
z
M 530.181818 817.373583 
L 533.454545 817.373583 
L 533.919718 817.373583 
L 533.454545 817.066374 
L 530.181818 815.950805 
L 528.419809 817.373583 
z
M 540 817.373583 
L 540.550755 817.373583 
L 543.272727 815.957574 
L 546.545455 814.316007 
L 546.860896 814.090958 
L 549.818182 812.552536 
L 553.090909 810.898768 
L 553.224773 810.808333 
L 556.363636 809.545591 
L 559.475672 807.525709 
L 559.636364 807.354353 
L 562.909091 807.034015 
L 565.669066 807.525709 
L 566.181818 807.639007 
L 566.70874 807.525709 
L 569.454545 806.489698 
L 572.727273 806.462955 
L 576 805.779609 
L 576 804.243084 
L 576 801.932168 
L 574.590677 800.960459 
L 573.570305 797.677834 
L 572.727273 797.294298 
L 569.454545 797.500564 
L 568.585144 797.677834 
L 566.181818 800.318664 
L 562.909091 800.904311 
L 562.525473 800.960459 
L 559.932793 804.243084 
L 559.636364 804.264701 
L 556.578303 807.525709 
L 556.363636 807.665039 
L 553.090909 807.968198 
L 550.372943 810.808333 
L 549.818182 811.096928 
L 546.545455 811.604049 
L 544.062802 814.090958 
L 543.272727 814.501966 
L 540 815.198617 
L 537.313523 817.373583 
z
M 474.545455 811.189781 
L 477.818182 811.33036 
L 478.067081 810.808333 
L 478.051376 807.525709 
L 477.818182 807.214665 
L 477.582466 807.525709 
L 474.545455 810.571905 
L 474.309739 810.808333 
z
M 507.272727 804.512577 
L 507.372535 804.243084 
L 507.272727 804.155227 
L 507.185135 804.243084 
z
M 510.545455 801.060569 
L 513.818182 801.079628 
L 513.904348 800.960459 
L 513.818182 800.872602 
L 510.545455 800.872602 
L 510.457863 800.960459 
z
" clip-path="url(#p036e48533f)" style="fill: #d6e5f4; fill-opacity: 0.9"/>
    <path d="M 543.272727 817.373583 
L 543.432046 817.373583 
L 546.545455 816.312286 
L 549.65899 814.090958 
L 549.818182 814.008144 
L 553.090909 814.056782 
L 556.363636 812.606422 
L 559.636364 812.56157 
L 562.909091 811.882438 
L 566.181818 811.401559 
L 569.454545 810.925266 
L 569.730996 810.808333 
L 572.727273 809.044333 
L 576 808.166804 
L 576 807.525709 
L 576 805.779609 
L 572.727273 806.462955 
L 569.454545 806.489698 
L 566.70874 807.525709 
L 566.181818 807.639007 
L 565.669066 807.525709 
L 562.909091 807.034015 
L 559.636364 807.354353 
L 559.475672 807.525709 
L 556.363636 809.545591 
L 553.224773 810.808333 
L 553.090909 810.898768 
L 549.818182 812.552536 
L 546.860896 814.090958 
L 546.545455 814.316007 
L 543.272727 815.957574 
L 540.550755 817.373583 
z
" clip-path="url(#p036e48533f)" style="fill: #d0e2f2; fill-opacity: 0.9"/>
    <path d="M 546.545455 817.373583 
L 549.818182 817.373583 
L 552.579509 817.373583 
L 553.090909 817.250569 
L 556.363636 816.957064 
L 558.212525 817.373583 
L 559.636364 817.373583 
L 559.89116 817.373583 
L 562.909091 815.190903 
L 566.181818 814.522404 
L 566.902061 814.090958 
L 569.454545 812.394943 
L 572.727273 810.993154 
L 573.035497 810.808333 
L 576 809.303416 
L 576 808.166804 
L 572.727273 809.044333 
L 569.730996 810.808333 
L 569.454545 810.925266 
L 566.181818 811.401559 
L 562.909091 811.882438 
L 559.636364 812.56157 
L 556.363636 812.606422 
L 553.090909 814.056782 
L 549.818182 814.008144 
L 549.65899 814.090958 
L 546.545455 816.312286 
L 543.432046 817.373583 
z
" clip-path="url(#p036e48533f)" style="fill: #cbdef1; fill-opacity: 0.9"/>
    <path d="M 553.090909 817.373583 
L 556.363636 817.373583 
L 558.212525 817.373583 
L 556.363636 816.957064 
L 553.090909 817.250569 
L 552.579509 817.373583 
z
M 562.909091 817.373583 
L 563.002816 817.373583 
L 566.181818 815.847362 
L 569.113908 814.090958 
L 569.454545 813.864619 
L 572.727273 812.335715 
L 575.274482 810.808333 
L 576 810.440027 
L 576 809.303416 
L 573.035497 810.808333 
L 572.727273 810.993154 
L 569.454545 812.394943 
L 566.902061 814.090958 
L 566.181818 814.522404 
L 562.909091 815.190903 
L 559.89116 817.373583 
z
" clip-path="url(#p036e48533f)" style="fill: #c6dbef; fill-opacity: 0.9"/>
    <path d="M 566.181818 817.17232 
L 569.454545 816.290038 
L 571.855066 814.090958 
L 572.727273 813.678277 
L 576 812.26437 
L 576 810.808333 
L 576 810.440027 
L 575.274482 810.808333 
L 572.727273 812.335715 
L 569.454545 813.864619 
L 569.113908 814.090958 
L 566.181818 815.847362 
L 563.002816 817.373583 
L 565.762603 817.373583 
z
" clip-path="url(#p036e48533f)" style="fill: #bed8ec; fill-opacity: 0.9"/>
    <path d="M 566.181818 817.373583 
L 569.454545 817.373583 
L 572.722917 817.373583 
L 572.727273 817.369904 
L 576 814.641239 
L 576 814.090958 
L 576 812.26437 
L 572.727273 813.678277 
L 571.855066 814.090958 
L 569.454545 816.290038 
L 566.181818 817.17232 
L 565.762603 817.373583 
z
" clip-path="url(#p036e48533f)" style="fill: #b5d4e9; fill-opacity: 0.9"/>
    <path d="M 572.727273 817.373583 
L 576 817.373583 
L 576 814.641239 
L 572.727273 817.369904 
L 572.722917 817.373583 
z
" clip-path="url(#p036e48533f)" style="fill: #add0e6; fill-opacity: 0.9"/>
    <path clip-path="url(#p036e48533f)" style="fill: #a5cde3; fill-opacity: 0.9"/>
    <path clip-path="url(#p036e48533f)" style="fill: #9cc9e1; fill-opacity: 0.9"/>
    <path clip-path="url(#p036e48533f)" style="fill: #91c3de; fill-opacity: 0.9"/>
    <path clip-path="url(#p036e48533f)" style="fill: #85bcdc; fill-opacity: 0.9"/>
    <path clip-path="url(#p036e48533f)" style="fill: #7cb7da; fill-opacity: 0.9"/>
    <path clip-path="url(#p036e48533f)" style="fill: #71b1d7; fill-opacity: 0.9"/>
    <path clip-path="url(#p036e48533f)" style="fill: #66abd4; fill-opacity: 0.9"/>
    <path clip-path="url(#p036e48533f)" style="fill: #5da5d1; fill-opacity: 0.9"/>
    <path clip-path="url(#p036e48533f)" style="fill: #56a0ce; fill-opacity: 0.9"/>
    <path clip-path="url(#p036e48533f)" style="fill: #4d99ca; fill-opacity: 0.9"/>
    <path clip-path="url(#p036e48533f)" style="fill: #4493c7; fill-opacity: 0.9"/>
    <path clip-path="url(#p036e48533f)" style="fill: #3c8cc3; fill-opacity: 0.9"/>
    <path clip-path="url(#p036e48533f)" style="fill: #3686c0; fill-opacity: 0.9"/>
    <path clip-path="url(#p036e48533f)" style="fill: #2f7fbc; fill-opacity: 0.9"/>
    <path clip-path="url(#p036e48533f)" style="fill: #2777b8; fill-opacity: 0.9"/>
    <path clip-path="url(#p036e48533f)" style="fill: #2070b4; fill-opacity: 0.9"/>
    <path clip-path="url(#p036e48533f)" style="fill: #1c6ab0; fill-opacity: 0.9"/>
    <path clip-path="url(#p036e48533f)" style="fill: #1663aa; fill-opacity: 0.9"/>
    <path clip-path="url(#p036e48533f)" style="fill: #115ca5; fill-opacity: 0.9"/>
    <path clip-path="url(#p036e48533f)" style="fill: #0c56a0; fill-opacity: 0.9"/>
    <path clip-path="url(#p036e48533f)" style="fill: #084f99; fill-opacity: 0.9"/>
    <path clip-path="url(#p036e48533f)" style="fill: #08488e; fill-opacity: 0.9"/>
    <path clip-path="url(#p036e48533f)" style="fill: #084184; fill-opacity: 0.9"/>
    <path clip-path="url(#p036e48533f)" style="fill: #083a7a; fill-opacity: 0.9"/>
    <path clip-path="url(#p036e48533f)" style="fill: #083370; fill-opacity: 0.9"/>
    <path clip-path="url(#p036e48533f)" style="fill: #08306b; fill-opacity: 0.9"/>
   </g>
   <g id="QuadContourSet_2">
    <path d="M 563.838464 794.872052 
L 562.909091 794.954071 
L 559.636364 796.622719 
L 556.363636 796.583759 
L 553.090909 796.287978 
L 552.140777 794.395209 
L 549.818182 792.099584 
L 546.545455 792.099584 
L 544.256751 794.395209 
L 546.05811 797.677834 
L 543.272727 798.357391 
L 540 798.934509 
L 536.727273 799.33048 
L 533.454545 800.414566 
L 532.585234 800.960459 
L 530.181818 801.926901 
L 526.909091 803.186989 
L 523.636364 803.780044 
L 520.363636 803.163535 
L 517.090909 803.122812 
L 516.200907 800.960459 
L 513.818182 798.530987 
L 510.545455 798.530987 
L 508.123307 800.960459 
L 507.272727 801.813612 
L 504.85058 804.243084 
L 504 805.841855 
L 500.727273 806.412475 
L 498.459789 807.525709 
L 497.454545 807.835198 
L 494.181818 809.021152 
L 491.345576 810.808333 
L 490.909091 811.017209 
L 489.608938 810.808333 
L 487.636364 810.259673 
L 485.294716 810.808333 
L 484.363636 811.168526 
L 481.090909 812.226417 
L 480.44496 810.808333 
L 480.279211 807.525709 
L 477.818182 804.243084 
L 475.330537 807.525709 
L 474.545455 808.313165 
L 472.057809 810.808333 
L 471.794684 814.090958 
L 471.272727 814.249471 
L 468 815.052022 
L 464.727273 815.547921 
L 461.454545 816.412987 
L 460.219936 817.373583 
M 510.545455 805.053465 
L 510.03268 804.243084 
L 510.545455 803.728758 
L 513.751543 804.243084 
L 510.545455 805.053465 
" clip-path="url(#p036e48533f)" style="fill: none"/>
    <path d="M 576 791.886231 
L 572.727273 792.493528 
L 569.454545 793.389579 
L 567.85671 794.395209 
L 566.181818 795.219554 
L 562.909091 796.031098 
L 560.58514 797.677834 
L 559.636364 798.074225 
L 556.363636 797.728351 
L 556.234673 797.677834 
L 553.090909 797.143515 
L 551.711315 794.395209 
L 549.818182 792.524059 
L 546.545455 792.524059 
L 544.679946 794.395209 
L 546.545455 797.158805 
L 548.889736 797.677834 
L 546.545455 798.600417 
L 543.272727 799.048231 
L 540 799.521893 
L 536.727273 800.041227 
L 535.568159 800.501769 
M 517.472324 804.059554 
L 517.090909 804.052767 
L 515.818147 800.960459 
L 513.818182 798.921256 
L 510.545455 798.921256 
L 508.5124 800.960459 
L 507.272727 802.203881 
L 505.239673 804.243084 
L 504 806.573202 
L 500.727273 807.40485 
L 500.481102 807.525709 
L 497.454545 808.457511 
L 494.181818 809.972327 
L 492.855083 810.808333 
L 490.909091 811.739567 
L 487.636364 812.815836 
L 484.363636 813.233408 
L 481.090909 813.096463 
L 480.048647 810.808333 
L 479.907905 807.525709 
L 477.818182 804.738347 
L 475.705858 807.525709 
L 474.545455 808.689622 
L 472.433131 810.808333 
L 474.043272 814.090958 
L 471.272727 814.932342 
L 468 815.621512 
L 464.727273 816.244445 
L 461.705558 817.373583 
M 510.545455 805.754139 
L 509.589322 804.243084 
L 510.545455 803.28406 
L 513.818182 803.726446 
L 516.523603 804.243084 
L 513.818182 805.393768 
L 510.545455 805.754139 
" clip-path="url(#p036e48533f)" style="fill: none"/>
    <path d="M 576 792.472706 
L 572.727273 793.010555 
L 569.454545 794.098399 
L 568.982946 794.395209 
L 566.181818 795.773862 
L 562.909091 797.108125 
L 562.105091 797.677834 
L 559.636364 798.709247 
L 556.363636 799.700123 
L 553.621334 800.960459 
L 553.090909 801.067855 
L 552.406603 800.960459 
L 549.818182 799.613582 
L 546.545455 799.714793 
L 543.272727 799.73907 
L 540 800.109277 
L 536.727273 800.751974 
L 536.202549 800.960459 
L 533.454545 801.979249 
L 530.181818 803.434244 
L 528.811925 804.243084 
L 526.909091 805.244424 
L 523.636364 806.189621 
L 521.895035 807.525709 
L 520.363636 808.265963 
L 517.164824 807.525709 
L 517.090909 807.434491 
L 513.818182 806.572795 
L 510.545455 806.454814 
L 509.145965 804.243084 
L 510.545455 802.839362 
L 513.818182 803.197082 
L 515.435387 800.960459 
L 513.818182 799.311525 
L 510.545455 799.311525 
L 508.901493 800.960459 
L 507.272727 802.59415 
L 505.628765 804.243084 
L 504 807.30455 
L 503.161731 807.525709 
L 500.727273 808.126857 
L 497.454545 809.079823 
L 496.75459 809.465624 
M 480.243236 812.105571 
L 479.652334 810.808333 
L 479.5366 807.525709 
L 477.818182 805.233611 
L 476.08118 807.525709 
L 474.545455 809.066078 
L 472.808453 810.808333 
L 474.545455 813.619238 
L 476.291861 814.090958 
L 474.545455 815.062556 
L 471.272727 815.615214 
L 468 816.191002 
L 464.727273 816.94097 
L 463.569546 817.373583 
M 546.545455 796.531876 
L 549.818182 797.137109 
L 551.281853 794.395209 
L 549.818182 792.948534 
L 546.545455 792.948534 
L 545.103141 794.395209 
L 546.545455 796.531876 
z
" clip-path="url(#p036e48533f)" style="fill: none"/>
    <path d="M 576 793.059181 
L 572.727273 793.527582 
L 570.296509 794.395209 
L 569.454545 794.899227 
L 566.181818 796.32817 
L 563.439588 797.677834 
L 562.909091 798.115682 
L 559.636364 799.34427 
L 556.769994 800.960459 
L 556.363636 801.319797 
L 553.156228 801.924207 
M 537.141506 801.58026 
L 536.727273 801.742059 
L 533.454545 802.642442 
L 530.181818 804.187916 
L 530.088383 804.243084 
L 526.909091 805.916142 
L 523.636364 807.383971 
L 523.451636 807.525709 
L 520.363636 809.0184 
L 517.090909 810.336255 
L 516.006586 810.808333 
L 513.818182 811.212187 
L 512.741014 810.808333 
L 512.946643 807.525709 
L 510.545455 807.155489 
L 508.702607 804.243084 
L 507.272727 802.984419 
L 506.017858 804.243084 
L 505.933791 807.525709 
L 504 808.316771 
L 500.727273 808.81137 
L 497.454545 809.702136 
L 495.44758 810.808333 
L 494.181818 811.646492 
L 490.909091 813.184282 
L 489.491942 814.090958 
L 487.636364 815.169211 
L 484.363636 816.335642 
L 482.575691 817.373583 
M 474.545455 813.011874 
L 477.818182 813.823968 
L 479.256021 810.808333 
L 479.165294 807.525709 
L 477.818182 805.728874 
L 476.456501 807.525709 
L 474.545455 809.442535 
L 473.183774 810.808333 
L 474.545455 813.011874 
z
M 510.545455 802.394663 
L 513.818182 802.667719 
L 515.052628 800.960459 
L 513.818182 799.701794 
L 510.545455 799.701794 
L 509.290585 800.960459 
L 510.545455 802.394663 
z
M 546.545455 795.904948 
L 549.818182 796.332597 
L 550.852391 794.395209 
L 549.818182 793.373009 
L 546.545455 793.373009 
L 545.526336 794.395209 
L 546.545455 795.904948 
z
" clip-path="url(#p036e48533f)" style="fill: none"/>
    <path d="M 473.858927 817.373583 
L 471.272727 816.980957 
L 468 817.329983 
L 467.827848 817.373583 
M 576 793.645656 
L 572.727273 794.044609 
L 571.745022 794.395209 
L 569.454545 795.76634 
L 566.181818 796.882477 
L 564.565823 797.677834 
L 562.909091 799.045225 
L 559.636364 799.979292 
L 557.896229 800.960459 
L 556.363636 802.315718 
L 553.090909 802.805177 
L 551.197736 804.243084 
L 549.818182 805.555796 
L 546.545455 805.099341 
L 543.272727 804.627779 
L 543.076036 804.243084 
L 540 802.516743 
L 536.727273 802.848095 
L 533.454545 803.305635 
L 531.477856 804.243084 
L 530.181818 805.514955 
L 526.909091 806.58786 
L 526.775536 806.650291 
M 510.284175 815.004882 
L 508.317204 814.090958 
L 509.219903 810.808333 
L 507.272727 809.23299 
L 504 809.450746 
L 500.727273 809.495883 
L 497.454545 810.324448 
L 496.576636 810.808333 
L 494.181818 812.394127 
L 490.909091 813.90664 
L 490.620999 814.090958 
L 487.636364 815.825291 
L 484.696541 817.373583 
M 474.545455 812.404509 
L 477.818182 812.992765 
L 478.859707 810.808333 
L 478.793988 807.525709 
L 477.818182 806.224138 
L 476.831823 807.525709 
L 474.545455 809.818992 
L 473.559096 810.808333 
L 474.545455 812.404509 
z
M 507.272727 806.906812 
L 508.25925 804.243084 
L 507.272727 803.374689 
L 506.40695 804.243084 
L 507.272727 806.906812 
z
M 510.545455 801.949965 
L 513.818182 802.138355 
L 514.669868 800.960459 
L 513.818182 800.092064 
L 510.545455 800.092064 
L 509.679678 800.960459 
L 510.545455 801.949965 
z
M 546.545455 795.27802 
L 549.818182 795.528084 
L 550.422929 794.395209 
L 549.818182 793.797484 
L 546.545455 793.797484 
L 545.949532 794.395209 
L 546.545455 795.27802 
z
" clip-path="url(#p036e48533f)" style="fill: none"/>
    <path d="M 498.745922 810.652739 
L 498.093247 810.808333 
L 497.454545 811.307374 
L 494.181818 813.141761 
L 492.119181 814.090958 
L 490.909091 815.297552 
L 487.636364 816.48137 
L 485.942273 817.373583 
M 565.608196 797.747051 
L 562.909091 799.974768 
L 559.636364 800.614315 
L 559.022465 800.960459 
L 556.363636 803.311639 
L 553.090909 803.673838 
L 552.34143 804.243084 
L 549.818182 806.644076 
L 546.545455 806.473634 
L 544.842474 807.525709 
L 543.272727 809.191421 
L 540 808.043584 
L 539.258152 807.525709 
L 538.042335 804.243084 
L 536.727273 803.95413 
L 533.454545 803.968828 
L 532.876254 804.243084 
L 530.181818 806.88728 
L 526.909091 807.259578 
L 526.339773 807.525709 
L 523.636364 810.095093 
L 520.363636 810.523274 
L 519.8038 810.808333 
L 517.090909 813.3829 
L 513.818182 813.65027 
L 513.240159 814.090958 
L 510.545455 816.63702 
L 507.272727 816.269156 
L 504.284663 817.373583 
M 474.545455 811.797145 
L 477.818182 812.161563 
L 478.463394 810.808333 
L 478.422682 807.525709 
L 477.818182 806.719401 
L 477.207144 807.525709 
L 474.545455 810.195448 
L 473.934417 810.808333 
L 474.545455 811.797145 
z
M 507.272727 805.709695 
L 507.815893 804.243084 
L 507.272727 803.764958 
L 506.796043 804.243084 
L 507.272727 805.709695 
z
M 510.545455 801.505267 
L 513.818182 801.608992 
L 514.287108 800.960459 
L 513.818182 800.482333 
L 510.545455 800.482333 
L 510.06877 800.960459 
L 510.545455 801.505267 
z
M 546.545455 794.651091 
L 549.818182 794.723572 
L 549.993467 794.395209 
L 549.818182 794.221959 
L 546.545455 794.221959 
L 546.372727 794.395209 
L 546.545455 794.651091 
z
" clip-path="url(#p036e48533f)" style="fill: none"/>
    <path d="M 500.09147 817.373583 
L 500.727273 816.016486 
L 501.179054 814.525594 
M 533.919718 817.373583 
L 533.454545 817.066374 
L 530.181818 815.950805 
L 528.419809 817.373583 
M 576 801.932168 
L 574.590677 800.960459 
L 573.570305 797.677834 
L 572.727273 797.294298 
L 569.454545 797.500564 
L 568.585144 797.677834 
L 566.181818 800.318664 
L 562.909091 800.904311 
L 562.525473 800.960459 
L 559.932793 804.243084 
L 559.636364 804.264701 
L 557.565485 806.473013 
M 541.492844 814.880842 
L 540 815.198617 
L 537.313523 817.373583 
M 474.545455 811.189781 
L 477.818182 811.33036 
L 478.067081 810.808333 
L 478.051376 807.525709 
L 477.818182 807.214665 
L 477.582466 807.525709 
L 474.545455 810.571905 
L 474.309739 810.808333 
L 474.545455 811.189781 
z
M 507.272727 804.512577 
L 507.372535 804.243084 
L 507.272727 804.155227 
L 507.185135 804.243084 
L 507.272727 804.512577 
z
M 510.545455 801.060569 
L 513.818182 801.079628 
L 513.904348 800.960459 
L 513.818182 800.872602 
L 510.545455 800.872602 
L 510.457863 800.960459 
L 510.545455 801.060569 
z
" clip-path="url(#p036e48533f)" style="fill: none"/>
    <path d="M 576 805.779609 
L 574.933863 806.002218 
M 556.788524 809.269815 
L 556.363636 809.545591 
L 553.224773 810.808333 
L 553.090909 810.898768 
L 549.818182 812.552536 
L 546.860896 814.090958 
L 546.545455 814.316007 
L 543.272727 815.957574 
L 540.550755 817.373583 
" clip-path="url(#p036e48533f)" style="fill: none"/>
    <path d="M 576 808.166804 
L 572.727273 809.044333 
L 571.98262 809.482733 
M 553.702211 813.785874 
L 553.090909 814.056782 
L 549.818182 814.008144 
L 549.65899 814.090958 
L 546.545455 816.312286 
L 543.432046 817.373583 
" clip-path="url(#p036e48533f)" style="fill: none"/>
    <path d="M 558.212525 817.373583 
L 556.363636 816.957064 
L 553.090909 817.250569 
L 552.579509 817.373583 
M 576 809.303416 
L 575.310965 809.653201 
" clip-path="url(#p036e48533f)" style="fill: none"/>
    <path d="M 576 810.440027 
L 575.274482 810.808333 
L 572.727273 812.335715 
L 569.454545 813.864619 
L 569.113908 814.090958 
L 566.181818 815.847362 
L 563.002816 817.373583 
" clip-path="url(#p036e48533f)" style="fill: none"/>
    <path d="M 576 812.26437 
L 572.727273 813.678277 
L 571.855066 814.090958 
L 569.454545 816.290038 
L 566.181818 817.17232 
L 565.762603 817.373583 
" clip-path="url(#p036e48533f)" style="fill: none"/>
    <path d="M 576 814.641239 
L 572.727273 817.369904 
L 572.722917 817.373583 
" clip-path="url(#p036e48533f)" style="fill: none"/>
    <path clip-path="url(#p036e48533f)" style="fill: none"/>
    <path clip-path="url(#p036e48533f)" style="fill: none"/>
    <path clip-path="url(#p036e48533f)" style="fill: none"/>
    <path clip-path="url(#p036e48533f)" style="fill: none"/>
    <path clip-path="url(#p036e48533f)" style="fill: none"/>
    <path clip-path="url(#p036e48533f)" style="fill: none"/>
    <path clip-path="url(#p036e48533f)" style="fill: none"/>
    <path clip-path="url(#p036e48533f)" style="fill: none"/>
    <path clip-path="url(#p036e48533f)" style="fill: none"/>
    <path clip-path="url(#p036e48533f)" style="fill: none"/>
    <path clip-path="url(#p036e48533f)" style="fill: none"/>
    <path clip-path="url(#p036e48533f)" style="fill: none"/>
    <path clip-path="url(#p036e48533f)" style="fill: none"/>
    <path clip-path="url(#p036e48533f)" style="fill: none"/>
    <path clip-path="url(#p036e48533f)" style="fill: none"/>
    <path clip-path="url(#p036e48533f)" style="fill: none"/>
    <path clip-path="url(#p036e48533f)" style="fill: none"/>
    <path clip-path="url(#p036e48533f)" style="fill: none"/>
    <path clip-path="url(#p036e48533f)" style="fill: none"/>
    <path clip-path="url(#p036e48533f)" style="fill: none"/>
    <path clip-path="url(#p036e48533f)" style="fill: none"/>
    <path clip-path="url(#p036e48533f)" style="fill: none"/>
    <path clip-path="url(#p036e48533f)" style="fill: none"/>
    <path clip-path="url(#p036e48533f)" style="fill: none"/>
    <path clip-path="url(#p036e48533f)" style="fill: none"/>
    <path clip-path="url(#p036e48533f)" style="fill: none"/>
   </g>
   <g id="text_1">
    <g clip-path="url(#p036e48533f)">
     <!-- 0 -->
     <g style="opacity: 0" transform="translate(569.937754 796.19032) rotate(-15.557775) scale(0.12 -0.12)">
      <defs>
       <path id="DejaVuSans-30" d="M 2034 4250 
Q 1547 4250 1301 3770 
Q 1056 3291 1056 2328 
Q 1056 1369 1301 889 
Q 1547 409 2034 409 
Q 2525 409 2770 889 
Q 3016 1369 3016 2328 
Q 3016 3291 2770 3770 
Q 2525 4250 2034 4250 
z
M 2034 4750 
Q 2819 4750 3233 4129 
Q 3647 3509 3647 2328 
Q 3647 1150 3233 529 
Q 2819 -91 2034 -91 
Q 1250 -91 836 529 
Q 422 1150 422 2328 
Q 422 3509 836 4129 
Q 1250 4750 2034 4750 
z
" transform="scale(0.015625)"/>
      </defs>
      <use xlink:href="#DejaVuSans-30"/>
     </g>
    </g>
   </g>
   <g id="text_2">
    <g clip-path="url(#p036e48533f)">
     <!-- 1 -->
     <g style="opacity: 0" transform="translate(524.01124 808.712772) rotate(-14.071849) scale(0.12 -0.12)">
      <defs>
       <path id="DejaVuSans-31" d="M 794 531 
L 1825 531 
L 1825 4091 
L 703 3866 
L 703 4441 
L 1819 4666 
L 2450 4666 
L 2450 531 
L 3481 531 
L 3481 0 
L 794 0 
L 794 531 
z
" transform="scale(0.015625)"/>
      </defs>
      <use xlink:href="#DejaVuSans-31"/>
     </g>
    </g>
   </g>
   <g id="text_3">
    <g clip-path="url(#p036e48533f)">
     <!-- 2 -->
     <g style="opacity: 0" transform="translate(485.793343 818.442409) rotate(-18.500088) scale(0.12 -0.12)">
      <defs>
       <path id="DejaVuSans-32" d="M 1228 531 
L 3431 531 
L 3431 0 
L 469 0 
L 469 531 
Q 828 903 1448 1529 
Q 2069 2156 2228 2338 
Q 2531 2678 2651 2914 
Q 2772 3150 2772 3378 
Q 2772 3750 2511 3984 
Q 2250 4219 1831 4219 
Q 1534 4219 1204 4116 
Q 875 4013 500 3803 
L 500 4441 
Q 881 4594 1212 4672 
Q 1544 4750 1819 4750 
Q 2544 4750 2975 4387 
Q 3406 4025 3406 3419 
Q 3406 3131 3298 2873 
Q 3191 2616 2906 2266 
Q 2828 2175 2409 1742 
Q 1991 1309 1228 531 
z
" transform="scale(0.015625)"/>
      </defs>
      <use xlink:href="#DejaVuSans-32"/>
     </g>
    </g>
   </g>
   <g id="text_4">
    <g clip-path="url(#p036e48533f)">
     <!-- 3 -->
     <g style="opacity: 0" transform="translate(467.721952 819.893872) rotate(-4.422921) scale(0.12 -0.12)">
      <defs>
       <path id="DejaVuSans-33" d="M 2597 2516 
Q 3050 2419 3304 2112 
Q 3559 1806 3559 1356 
Q 3559 666 3084 287 
Q 2609 -91 1734 -91 
Q 1441 -91 1130 -33 
Q 819 25 488 141 
L 488 750 
Q 750 597 1062 519 
Q 1375 441 1716 441 
Q 2309 441 2620 675 
Q 2931 909 2931 1356 
Q 2931 1769 2642 2001 
Q 2353 2234 1838 2234 
L 1294 2234 
L 1294 2753 
L 1863 2753 
Q 2328 2753 2575 2939 
Q 2822 3125 2822 3475 
Q 2822 3834 2567 4026 
Q 2313 4219 1838 4219 
Q 1578 4219 1281 4162 
Q 984 4106 628 3988 
L 628 4550 
Q 988 4650 1302 4700 
Q 1616 4750 1894 4750 
Q 2613 4750 3031 4423 
Q 3450 4097 3450 3541 
Q 3450 3153 3228 2886 
Q 3006 2619 2597 2516 
z
" transform="scale(0.015625)"/>
      </defs>
      <use xlink:href="#DejaVuSans-33"/>
     </g>
    </g>
   </g>
   <g id="text_5">
    <g clip-path="url(#p036e48533f)">
     <!-- 3 -->
     <g style="opacity: 0" transform="translate(541.659988 802.121415) rotate(-333.877958) scale(0.12 -0.12)">
      <use xlink:href="#DejaVuSans-33"/>
     </g>
    </g>
   </g>
   <g id="text_6">
    <g clip-path="url(#p036e48533f)">
     <!-- 4 -->
     <g style="opacity: 0" transform="translate(515.945917 815.266197) rotate(-20.963293) scale(0.12 -0.12)">
      <defs>
       <path id="DejaVuSans-34" d="M 2419 4116 
L 825 1625 
L 2419 1625 
L 2419 4116 
z
M 2253 4666 
L 3047 4666 
L 3047 1625 
L 3713 1625 
L 3713 1100 
L 3047 1100 
L 3047 0 
L 2419 0 
L 2419 1100 
L 313 1100 
L 313 1709 
L 2253 4666 
z
" transform="scale(0.015625)"/>
      </defs>
      <use xlink:href="#DejaVuSans-34"/>
     </g>
    </g>
   </g>
   <g id="text_7">
    <g clip-path="url(#p036e48533f)">
     <!-- 5 -->
     <g style="opacity: 0" transform="translate(501.449572 810.560953) rotate(-274.752933) scale(0.12 -0.12)">
      <defs>
       <path id="DejaVuSans-35" d="M 691 4666 
L 3169 4666 
L 3169 4134 
L 1269 4134 
L 1269 2991 
Q 1406 3038 1543 3061 
Q 1681 3084 1819 3084 
Q 2600 3084 3056 2656 
Q 3513 2228 3513 1497 
Q 3513 744 3044 326 
Q 2575 -91 1722 -91 
Q 1428 -91 1123 -41 
Q 819 9 494 109 
L 494 744 
Q 775 591 1075 516 
Q 1375 441 1709 441 
Q 2250 441 2565 725 
Q 2881 1009 2881 1497 
Q 2881 1984 2565 2268 
Q 2250 2553 1709 2553 
Q 1456 2553 1204 2497 
Q 953 2441 691 2322 
L 691 4666 
z
" transform="scale(0.015625)"/>
      </defs>
      <use xlink:href="#DejaVuSans-35"/>
     </g>
    </g>
   </g>
   <g id="text_8">
    <g clip-path="url(#p036e48533f)">
     <!-- 5 -->
     <g style="opacity: 0" transform="translate(571.993375 798.792777) rotate(-19.544578) scale(0.12 -0.12)">
      <use xlink:href="#DejaVuSans-35"/>
     </g>
    </g>
   </g>
   <g id="text_9">
    <g clip-path="url(#p036e48533f)">
     <!-- 6 -->
     <g style="opacity: 0" transform="translate(492.184179 818.531284) rotate(-25.777403) scale(0.12 -0.12)">
      <defs>
       <path id="DejaVuSans-36" d="M 2113 2584 
Q 1688 2584 1439 2293 
Q 1191 2003 1191 1497 
Q 1191 994 1439 701 
Q 1688 409 2113 409 
Q 2538 409 2786 701 
Q 3034 994 3034 1497 
Q 3034 2003 2786 2293 
Q 2538 2584 2113 2584 
z
M 3366 4563 
L 3366 3988 
Q 3128 4100 2886 4159 
Q 2644 4219 2406 4219 
Q 1781 4219 1451 3797 
Q 1122 3375 1075 2522 
Q 1259 2794 1537 2939 
Q 1816 3084 2150 3084 
Q 2853 3084 3261 2657 
Q 3669 2231 3669 1497 
Q 3669 778 3244 343 
Q 2819 -91 2113 -91 
Q 1303 -91 875 529 
Q 447 1150 447 2328 
Q 447 3434 972 4092 
Q 1497 4750 2381 4750 
Q 2619 4750 2861 4703 
Q 3103 4656 3366 4563 
z
" transform="scale(0.015625)"/>
      </defs>
      <use xlink:href="#DejaVuSans-36"/>
     </g>
    </g>
   </g>
   <g id="text_10">
    <g clip-path="url(#p036e48533f)">
     <!-- 6 -->
     <g style="opacity: 0" transform="translate(548.228131 815.893742) rotate(-30.722701) scale(0.12 -0.12)">
      <use xlink:href="#DejaVuSans-36"/>
     </g>
    </g>
   </g>
   <g id="text_11">
    <g clip-path="url(#p036e48533f)">
     <!-- 7 -->
     <g style="opacity: 0" transform="translate(562.123798 811.126924) rotate(-4.51059) scale(0.12 -0.12)">
      <defs>
       <path id="DejaVuSans-37" d="M 525 4666 
L 3525 4666 
L 3525 4397 
L 1831 0 
L 1172 0 
L 2766 4134 
L 525 4134 
L 525 4666 
z
" transform="scale(0.015625)"/>
      </defs>
      <use xlink:href="#DejaVuSans-37"/>
     </g>
    </g>
   </g>
   <g id="text_12">
    <g clip-path="url(#p036e48533f)">
     <!-- 8 -->
     <g style="opacity: 0" transform="translate(559.606666 815.707575) rotate(-8.256438) scale(0.12 -0.12)">
      <defs>
       <path id="DejaVuSans-38" d="M 2034 2216 
Q 1584 2216 1326 1975 
Q 1069 1734 1069 1313 
Q 1069 891 1326 650 
Q 1584 409 2034 409 
Q 2484 409 2743 651 
Q 3003 894 3003 1313 
Q 3003 1734 2745 1975 
Q 2488 2216 2034 2216 
z
M 1403 2484 
Q 997 2584 770 2862 
Q 544 3141 544 3541 
Q 544 4100 942 4425 
Q 1341 4750 2034 4750 
Q 2731 4750 3128 4425 
Q 3525 4100 3525 3541 
Q 3525 3141 3298 2862 
Q 3072 2584 2669 2484 
Q 3125 2378 3379 2068 
Q 3634 1759 3634 1313 
Q 3634 634 3220 271 
Q 2806 -91 2034 -91 
Q 1263 -91 848 271 
Q 434 634 434 1313 
Q 434 1759 690 2068 
Q 947 2378 1403 2484 
z
M 1172 3481 
Q 1172 3119 1398 2916 
Q 1625 2713 2034 2713 
Q 2441 2713 2670 2916 
Q 2900 3119 2900 3481 
Q 2900 3844 2670 4047 
Q 2441 4250 2034 4250 
Q 1625 4250 1398 4047 
Q 1172 3844 1172 3481 
z
" transform="scale(0.015625)"/>
      </defs>
      <use xlink:href="#DejaVuSans-38"/>
     </g>
    </g>
   </g>
   <g id="text_13">
    <g clip-path="url(#p036e48533f)">
     <!-- 9 -->
     <g style="opacity: 0" transform="translate(564.755374 818.665826) rotate(-23.924457) scale(0.12 -0.12)">
      <defs>
       <path id="DejaVuSans-39" d="M 703 97 
L 703 672 
Q 941 559 1184 500 
Q 1428 441 1663 441 
Q 2288 441 2617 861 
Q 2947 1281 2994 2138 
Q 2813 1869 2534 1725 
Q 2256 1581 1919 1581 
Q 1219 1581 811 2004 
Q 403 2428 403 3163 
Q 403 3881 828 4315 
Q 1253 4750 1959 4750 
Q 2769 4750 3195 4129 
Q 3622 3509 3622 2328 
Q 3622 1225 3098 567 
Q 2575 -91 1691 -91 
Q 1453 -91 1209 -44 
Q 966 3 703 97 
z
M 1959 2075 
Q 2384 2075 2632 2365 
Q 2881 2656 2881 3163 
Q 2881 3666 2632 3958 
Q 2384 4250 1959 4250 
Q 1534 4250 1286 3958 
Q 1038 3666 1038 3163 
Q 1038 2656 1286 2365 
Q 1534 2075 1959 2075 
z
" transform="scale(0.015625)"/>
      </defs>
      <use xlink:href="#DejaVuSans-39"/>
     </g>
    </g>
   </g>
  </g>
 </g>
 <defs>
  <clipPath id="p036e48533f">
   <rect x="0" y="0" width="576" height="817.373583"/>
  </clipPath>
 </defs>
</svg>
