<?xml version="1.0" encoding="utf-8" standalone="no"?>
<!DOCTYPE svg PUBLIC "-//W3C//DTD SVG 1.1//EN"
  "http://www.w3.org/Graphics/SVG/1.1/DTD/svg11.dtd">
<svg xmlns:xlink="http://www.w3.org/1999/xlink" width="576pt" height="816.943023pt" viewBox="0 0 576 816.943023" xmlns="http://www.w3.org/2000/svg" version="1.1">
 <metadata>
  <rdf:RDF xmlns:dc="http://purl.org/dc/elements/1.1/" xmlns:cc="http://creativecommons.org/ns#" xmlns:rdf="http://www.w3.org/1999/02/22-rdf-syntax-ns#">
   <cc:Work>
    <dc:type rdf:resource="http://purl.org/dc/dcmitype/StillImage"/>
    <dc:date>2025-07-25T22:44:26.159442</dc:date>
    <dc:format>image/svg+xml</dc:format>
    <dc:creator>
     <cc:Agent>
      <dc:title>Matplotlib v3.10.3, https://matplotlib.org/</dc:title>
     </cc:Agent>
    </dc:creator>
   </cc:Work>
  </rdf:RDF>
 </metadata>
 <defs>
  <style type="text/css">*{stroke-linejoin: round; stroke-linecap: butt}</style>
 </defs>
 <g id="figure_1">
  <g id="patch_1">
   <path d="M 0 816.943023 
L 576 816.943023 
L 576 0 
L 0 0 
L 0 816.943023 
z
" style="fill: none; opacity: 0"/>
  </g>
  <g id="axes_1">
   <g id="QuadContourSet_1">
    <path d="M 3.272727 816.943023 
L 6.545455 816.943023 
L 9.818182 816.943023 
L 13.090909 816.943023 
L 16.363636 816.943023 
L 19.636364 816.943023 
L 22.909091 816.943023 
L 26.181818 816.943023 
L 29.454545 816.943023 
L 32.727273 816.943023 
L 36 816.943023 
L 39.272727 816.943023 
L 42.545455 816.943023 
L 45.818182 816.943023 
L 49.090909 816.943023 
L 52.363636 816.943023 
L 55.636364 816.943023 
L 58.909091 816.943023 
L 62.181818 816.943023 
L 65.454545 816.943023 
L 68.727273 816.943023 
L 72 816.943023 
L 75.272727 816.943023 
L 78.545455 816.943023 
L 81.818182 816.943023 
L 85.090909 816.943023 
L 88.363636 816.943023 
L 91.636364 816.943023 
L 94.909091 816.943023 
L 98.181818 816.943023 
L 101.454545 816.943023 
L 104.727273 816.943023 
L 108 816.943023 
L 111.272727 816.943023 
L 114.545455 816.943023 
L 117.818182 816.943023 
L 121.090909 816.943023 
L 124.363636 816.943023 
L 127.636364 816.943023 
L 130.909091 816.943023 
L 134.181818 816.943023 
L 137.454545 816.943023 
L 140.727273 816.943023 
L 144 816.943023 
L 147.272727 816.943023 
L 150.545455 816.943023 
L 153.818182 816.943023 
L 157.090909 816.943023 
L 160.363636 816.943023 
L 163.636364 816.943023 
L 166.909091 816.943023 
L 170.181818 816.943023 
L 173.454545 816.943023 
L 176.727273 816.943023 
L 180 816.943023 
L 183.272727 816.943023 
L 186.545455 816.943023 
L 189.818182 816.943023 
L 193.090909 816.943023 
L 196.363636 816.943023 
L 199.636364 816.943023 
L 202.909091 816.943023 
L 206.181818 816.943023 
L 209.454545 816.943023 
L 212.727273 816.943023 
L 216 816.943023 
L 219.272727 816.943023 
L 222.545455 816.943023 
L 225.818182 816.943023 
L 229.090909 816.943023 
L 232.363636 816.943023 
L 235.636364 816.943023 
L 238.909091 816.943023 
L 242.181818 816.943023 
L 245.454545 816.943023 
L 248.727273 816.943023 
L 252 816.943023 
L 255.272727 816.943023 
L 258.545455 816.943023 
L 261.818182 816.943023 
L 265.090909 816.943023 
L 268.363636 816.943023 
L 271.636364 816.943023 
L 274.909091 816.943023 
L 278.181818 816.943023 
L 281.454545 816.943023 
L 284.727273 816.943023 
L 288 816.943023 
L 291.272727 816.943023 
L 294.545455 816.943023 
L 297.818182 816.943023 
L 301.090909 816.943023 
L 304.363636 816.943023 
L 307.636364 816.943023 
L 310.909091 816.943023 
L 314.181818 816.943023 
L 317.454545 816.943023 
L 320.727273 816.943023 
L 324 816.943023 
L 327.272727 816.943023 
L 330.545455 816.943023 
L 333.818182 816.943023 
L 337.090909 816.943023 
L 340.363636 816.943023 
L 343.636364 816.943023 
L 346.909091 816.943023 
L 350.181818 816.943023 
L 353.454545 816.943023 
L 356.727273 816.943023 
L 360 816.943023 
L 363.272727 816.943023 
L 366.545455 816.943023 
L 369.818182 816.943023 
L 373.090909 816.943023 
L 376.363636 816.943023 
L 379.636364 816.943023 
L 382.909091 816.943023 
L 386.181818 816.943023 
L 389.454545 816.943023 
L 392.727273 816.943023 
L 396 816.943023 
L 399.272727 816.943023 
L 402.545455 816.943023 
L 405.818182 816.943023 
L 409.090909 816.943023 
L 412.363636 816.943023 
L 415.636364 816.943023 
L 418.909091 816.943023 
L 422.181818 816.943023 
L 425.454545 816.943023 
L 428.727273 816.943023 
L 432 816.943023 
L 435.272727 816.943023 
L 438.545455 816.943023 
L 441.818182 816.943023 
L 445.090909 816.943023 
L 448.363636 816.943023 
L 451.636364 816.943023 
L 454.909091 816.943023 
L 458.181818 816.943023 
L 461.454545 816.943023 
L 464.727273 816.943023 
L 468 816.943023 
L 471.272727 816.943023 
L 474.545455 816.943023 
L 477.818182 816.943023 
L 481.090909 816.943023 
L 484.363636 816.943023 
L 487.636364 816.943023 
L 490.909091 816.943023 
L 494.181818 816.943023 
L 497.454545 816.943023 
L 500.727273 816.943023 
L 504 816.943023 
L 507.272727 816.943023 
L 510.545455 816.943023 
L 513.818182 816.943023 
L 517.090909 816.943023 
L 520.363636 816.943023 
L 523.636364 816.943023 
L 526.909091 816.943023 
L 530.181818 816.943023 
L 533.454545 816.943023 
L 536.727273 816.943023 
L 540 816.943023 
L 543.272727 816.943023 
L 546.545455 816.943023 
L 549.818182 816.943023 
L 553.090909 816.943023 
L 556.363636 816.943023 
L 559.636364 816.943023 
L 562.909091 816.943023 
L 566.181818 816.943023 
L 569.454545 816.943023 
L 572.727273 816.943023 
L 576 816.943023 
L 576 813.662128 
L 576 810.381232 
L 576 807.100336 
L 576 803.819441 
L 576 800.538545 
L 576 797.257649 
L 576 793.976753 
L 576 790.695858 
L 576 787.414962 
L 576 784.134066 
L 576 780.853171 
L 576 777.572275 
L 576 774.291379 
L 576 771.010484 
L 576 767.729588 
L 576 764.448692 
L 576 761.167797 
L 576 757.886901 
L 576 754.606005 
L 576 751.32511 
L 576 748.044214 
L 576 744.763318 
L 576 741.482423 
L 576 738.201527 
L 576 734.920631 
L 576 731.639736 
L 576 728.35884 
L 576 725.077944 
L 576 721.797049 
L 576 718.516153 
L 576 715.235257 
L 576 711.954362 
L 576 708.673466 
L 576 705.39257 
L 576 702.111675 
L 576 698.830779 
L 576 695.549883 
L 576 692.268988 
L 576 688.988092 
L 576 685.707196 
L 576 682.426301 
L 576 679.145405 
L 576 675.864509 
L 576 672.583614 
L 576 669.302718 
L 576 666.021822 
L 576 662.740926 
L 576 659.460031 
L 576 656.179135 
L 576 652.898239 
L 576 649.617344 
L 576 646.336448 
L 576 643.055552 
L 576 639.774657 
L 576 636.493761 
L 576 633.212865 
L 576 629.93197 
L 576 626.651074 
L 576 623.370178 
L 576 620.089283 
L 576 616.808387 
L 576 613.527491 
L 576 610.246596 
L 576 606.9657 
L 576 603.684804 
L 576 600.403909 
L 576 597.123013 
L 576 593.842117 
L 576 590.561222 
L 576 587.280326 
L 576 583.99943 
L 576 580.718535 
L 576 577.437639 
L 576 574.156743 
L 576 570.875848 
L 576 567.594952 
L 576 564.314056 
L 576 561.033161 
L 576 557.752265 
L 576 554.471369 
L 576 551.190474 
L 576 547.909578 
L 576 544.628682 
L 576 541.347786 
L 576 538.066891 
L 576 534.785995 
L 576 531.505099 
L 576 528.224204 
L 576 524.943308 
L 576 521.662412 
L 576 518.381517 
L 576 515.100621 
L 576 511.819725 
L 576 508.53883 
L 576 505.257934 
L 576 501.977038 
L 576 498.696143 
L 576 495.415247 
L 576 492.134351 
L 576 488.853456 
L 576 485.57256 
L 576 482.291664 
L 576 479.010769 
L 576 475.729873 
L 576 472.448977 
L 576 469.168082 
L 576 465.887186 
L 576 462.60629 
L 576 459.325395 
L 576 456.044499 
L 576 452.763603 
L 576 449.482708 
L 576 446.201812 
L 576 442.920916 
L 576 439.640021 
L 576 436.359125 
L 576 433.078229 
L 576 429.797334 
L 576 426.516438 
L 576 423.235542 
L 576 419.954646 
L 576 416.673751 
L 576 413.392855 
L 576 410.111959 
L 576 406.831064 
L 576 403.550168 
L 576 400.269272 
L 576 396.988377 
L 576 393.707481 
L 576 390.426585 
L 576 387.14569 
L 576 383.864794 
L 576 380.583898 
L 576 377.303003 
L 576 374.022107 
L 576 370.741211 
L 576 367.460316 
L 576 364.17942 
L 576 360.898524 
L 576 357.617629 
L 576 354.336733 
L 576 351.055837 
L 576 347.774942 
L 576 344.494046 
L 576 341.21315 
L 576 337.932255 
L 576 334.651359 
L 576 331.370463 
L 576 328.089568 
L 576 324.808672 
L 576 321.527776 
L 576 318.246881 
L 576 314.965985 
L 576 311.685089 
L 576 308.404194 
L 576 305.123298 
L 576 301.842402 
L 576 298.561506 
L 576 295.280611 
L 576 291.999715 
L 576 288.718819 
L 576 285.437924 
L 576 282.157028 
L 576 278.876132 
L 576 275.595237 
L 576 272.314341 
L 576 269.033445 
L 576 265.75255 
L 576 262.471654 
L 576 259.190758 
L 576 255.909863 
L 576 252.628967 
L 576 249.348071 
L 576 246.067176 
L 576 242.78628 
L 576 239.505384 
L 576 236.224489 
L 576 232.943593 
L 576 229.662697 
L 576 226.381802 
L 576 223.100906 
L 576 219.82001 
L 576 216.539115 
L 576 213.258219 
L 576 209.977323 
L 576 206.696428 
L 576 203.415532 
L 576 200.134636 
L 576 196.853741 
L 576 193.572845 
L 576 190.291949 
L 576 187.011054 
L 576 183.730158 
L 576 180.449262 
L 576 177.168366 
L 576 173.887471 
L 576 170.606575 
L 576 167.325679 
L 576 164.044784 
L 576 160.763888 
L 576 157.482992 
L 576 154.202097 
L 576 150.921201 
L 576 147.640305 
L 576 144.35941 
L 576 141.078514 
L 576 137.797618 
L 576 134.516723 
L 576 131.235827 
L 576 127.954931 
L 576 124.674036 
L 576 121.39314 
L 576 118.112244 
L 576 114.831349 
L 576 111.550453 
L 576 108.269557 
L 576 104.988662 
L 576 101.707766 
L 576 98.42687 
L 576 95.145975 
L 576 91.865079 
L 576 88.584183 
L 576 85.303288 
L 576 82.022392 
L 576 78.741496 
L 576 75.460601 
L 576 72.179705 
L 576 68.898809 
L 576 65.617914 
L 576 62.337018 
L 576 59.056122 
L 576 55.775226 
L 576 52.494331 
L 576 49.213435 
L 576 45.932539 
L 576 42.651644 
L 576 39.370748 
L 576 36.089852 
L 576 32.808957 
L 576 29.528061 
L 576 26.247165 
L 576 22.96627 
L 576 19.685374 
L 576 16.404478 
L 576 13.123583 
L 576 9.842687 
L 576 6.561791 
L 576 3.280896 
L 576 0 
L 572.727273 0 
L 569.454545 0 
L 566.181818 0 
L 562.909091 0 
L 559.636364 0 
L 556.363636 0 
L 553.090909 0 
L 549.818182 0 
L 546.545455 0 
L 543.272727 0 
L 540 0 
L 536.727273 0 
L 533.454545 0 
L 530.181818 0 
L 526.909091 0 
L 523.636364 0 
L 520.363636 0 
L 517.090909 0 
L 513.818182 0 
L 510.545455 0 
L 507.272727 0 
L 504 0 
L 500.727273 0 
L 497.454545 0 
L 494.181818 0 
L 490.909091 0 
L 487.636364 0 
L 484.363636 0 
L 481.090909 0 
L 477.818182 0 
L 474.545455 0 
L 471.272727 0 
L 468 0 
L 464.727273 0 
L 461.454545 0 
L 458.181818 0 
L 454.909091 0 
L 451.636364 0 
L 448.363636 0 
L 445.090909 0 
L 441.818182 0 
L 438.545455 0 
L 435.272727 0 
L 432 0 
L 428.727273 0 
L 425.454545 0 
L 422.181818 0 
L 418.909091 0 
L 415.636364 0 
L 412.363636 0 
L 409.090909 0 
L 405.818182 0 
L 402.545455 0 
L 399.272727 0 
L 396 0 
L 392.727273 0 
L 389.454545 0 
L 386.181818 0 
L 382.909091 0 
L 379.636364 0 
L 376.363636 0 
L 373.090909 0 
L 369.818182 0 
L 366.545455 0 
L 363.272727 0 
L 360 0 
L 356.727273 0 
L 353.454545 0 
L 350.181818 0 
L 346.909091 0 
L 343.636364 0 
L 340.363636 0 
L 337.090909 0 
L 333.818182 0 
L 330.545455 0 
L 327.272727 0 
L 324 0 
L 320.727273 0 
L 317.454545 0 
L 314.181818 0 
L 310.909091 0 
L 307.636364 0 
L 304.363636 0 
L 301.090909 0 
L 297.818182 0 
L 294.545455 0 
L 291.272727 0 
L 288 0 
L 284.727273 0 
L 281.454545 0 
L 278.181818 0 
L 274.909091 0 
L 271.636364 0 
L 268.363636 0 
L 265.090909 0 
L 261.818182 0 
L 258.545455 0 
L 255.272727 0 
L 252 0 
L 248.727273 0 
L 245.454545 0 
L 242.181818 0 
L 238.909091 0 
L 235.636364 0 
L 232.363636 0 
L 229.090909 0 
L 225.818182 0 
L 222.545455 0 
L 219.272727 0 
L 216 0 
L 212.727273 0 
L 209.454545 0 
L 206.181818 0 
L 202.909091 0 
L 199.636364 0 
L 196.363636 0 
L 193.090909 0 
L 189.818182 0 
L 186.545455 0 
L 183.272727 0 
L 180 0 
L 176.727273 0 
L 173.454545 0 
L 170.181818 0 
L 166.909091 0 
L 163.636364 0 
L 160.363636 0 
L 157.090909 0 
L 153.818182 0 
L 150.545455 0 
L 147.272727 0 
L 144 0 
L 140.727273 0 
L 137.454545 0 
L 134.181818 0 
L 130.909091 0 
L 127.636364 0 
L 124.363636 0 
L 121.090909 0 
L 117.818182 0 
L 114.545455 0 
L 111.272727 0 
L 108 0 
L 104.727273 0 
L 101.454545 0 
L 98.181818 0 
L 94.909091 0 
L 91.636364 0 
L 88.363636 0 
L 85.090909 0 
L 81.818182 0 
L 78.545455 0 
L 75.272727 0 
L 72 0 
L 68.727273 0 
L 65.454545 0 
L 62.181818 0 
L 58.909091 0 
L 55.636364 0 
L 52.363636 0 
L 49.090909 0 
L 45.818182 0 
L 42.545455 0 
L 39.272727 0 
L 36 0 
L 32.727273 0 
L 29.454545 0 
L 26.181818 0 
L 22.909091 0 
L 19.636364 0 
L 16.363636 0 
L 13.090909 0 
L 9.818182 0 
L 6.545455 0 
L 3.272727 0 
L 0 0 
L 0 3.280896 
L 0 6.561791 
L 0 9.842687 
L 0 13.123583 
L 0 16.404478 
L 0 19.685374 
L 0 22.96627 
L 0 26.247165 
L 0 29.528061 
L 0 32.808957 
L 0 36.089852 
L 0 39.370748 
L 0 42.651644 
L 0 45.932539 
L 0 49.213435 
L 0 52.494331 
L 0 55.775226 
L 0 59.056122 
L 0 62.337018 
L 0 65.617914 
L 0 68.898809 
L 0 72.179705 
L 0 75.460601 
L 0 78.741496 
L 0 82.022392 
L 0 85.303288 
L 0 88.584183 
L 0 91.865079 
L 0 95.145975 
L 0 98.42687 
L 0 101.707766 
L 0 104.988662 
L 0 108.269557 
L 0 111.550453 
L 0 114.831349 
L 0 118.112244 
L 0 121.39314 
L 0 124.674036 
L 0 127.954931 
L 0 131.235827 
L 0 134.516723 
L 0 137.797618 
L 0 141.078514 
L 0 144.35941 
L 0 147.640305 
L 0 150.921201 
L 0 154.202097 
L 0 157.482992 
L 0 160.763888 
L 0 164.044784 
L 0 167.325679 
L 0 170.606575 
L 0 173.887471 
L 0 177.168366 
L 0 180.449262 
L 0 183.730158 
L 0 187.011054 
L 0 190.291949 
L 0 193.572845 
L 0 196.853741 
L 0 200.134636 
L 0 203.415532 
L 0 206.696428 
L 0 209.977323 
L 0 213.258219 
L 0 216.539115 
L 0 219.82001 
L 0 223.100906 
L 0 226.381802 
L 0 229.662697 
L 0 232.943593 
L 0 236.224489 
L 0 239.505384 
L 0 242.78628 
L 0 246.067176 
L 0 249.348071 
L 0 252.628967 
L 0 255.909863 
L 0 259.190758 
L 0 262.471654 
L 0 265.75255 
L 0 269.033445 
L 0 272.314341 
L 0 275.595237 
L 0 278.876132 
L 0 282.157028 
L 0 285.437924 
L 0 288.718819 
L 0 291.999715 
L 0 295.280611 
L 0 298.561506 
L 0 301.842402 
L 0 305.123298 
L 0 308.404194 
L 0 311.685089 
L 0 314.965985 
L 0 318.246881 
L 0 321.527776 
L 0 324.808672 
L 0 328.089568 
L 0 331.370463 
L 0 334.651359 
L 0 337.932255 
L 0 341.21315 
L 0 344.494046 
L 0 347.774942 
L 0 351.055837 
L 0 354.336733 
L 0 357.617629 
L 0 360.898524 
L 0 364.17942 
L 0 367.460316 
L 0 370.741211 
L 0 374.022107 
L 0 377.303003 
L 0 380.583898 
L 0 383.864794 
L 0 387.14569 
L 0 390.426585 
L 0 393.707481 
L 0 396.988377 
L 0 400.269272 
L 0 403.550168 
L 0 406.831064 
L 0 410.111959 
L 0 413.392855 
L 0 416.673751 
L 0 419.954646 
L 0 423.235542 
L 0 426.516438 
L 0 429.797334 
L 0 433.078229 
L 0 436.359125 
L 0 439.640021 
L 0 442.920916 
L 0 446.201812 
L 0 449.482708 
L 0 452.763603 
L 0 456.044499 
L 0 459.325395 
L 0 462.60629 
L 0 465.887186 
L 0 469.168082 
L 0 472.448977 
L 0 475.729873 
L 0 479.010769 
L 0 482.291664 
L 0 485.57256 
L 0 488.853456 
L 0 492.134351 
L 0 495.415247 
L 0 498.696143 
L 0 501.977038 
L 0 505.257934 
L 0 508.53883 
L 0 511.819725 
L 0 515.100621 
L 0 518.381517 
L 0 521.662412 
L 0 524.943308 
L 0 528.224204 
L 0 531.505099 
L 0 534.785995 
L 0 538.066891 
L 0 541.347786 
L 0 544.628682 
L 0 547.909578 
L 0 551.190474 
L 0 554.471369 
L 0 557.752265 
L 0 561.033161 
L 0 564.314056 
L 0 567.594952 
L 0 570.875848 
L 0 574.156743 
L 0 577.437639 
L 0 580.718535 
L 0 583.99943 
L 0 587.280326 
L 0 590.561222 
L 0 593.842117 
L 0 597.123013 
L 0 600.403909 
L 0 603.684804 
L 0 606.9657 
L 0 610.246596 
L 0 613.527491 
L 0 616.808387 
L 0 620.089283 
L 0 623.370178 
L 0 626.651074 
L 0 629.93197 
L 0 633.212865 
L 0 636.493761 
L 0 639.774657 
L 0 643.055552 
L 0 646.336448 
L 0 649.617344 
L 0 652.898239 
L 0 656.179135 
L 0 659.460031 
L 0 662.740926 
L 0 666.021822 
L 0 669.302718 
L 0 672.583614 
L 0 675.864509 
L 0 679.145405 
L 0 682.426301 
L 0 685.707196 
L 0 688.988092 
L 0 692.268988 
L 0 695.549883 
L 0 698.830779 
L 0 702.111675 
L 0 705.39257 
L 0 708.673466 
L 0 711.954362 
L 0 715.235257 
L 0 718.516153 
L 0 721.797049 
L 0 725.077944 
L 0 728.35884 
L 0 731.639736 
L 0 734.920631 
L 0 738.201527 
L 0 741.482423 
L 0 744.763318 
L 0 748.044214 
L 0 751.32511 
L 0 754.606005 
L 0 757.886901 
L 0 761.167797 
L 0 764.448692 
L 0 767.729588 
L 0 771.010484 
L 0 774.291379 
L 0 777.572275 
L 0 780.853171 
L 0 784.134066 
L 0 787.414962 
L 0 790.695858 
L 0 793.976753 
L 0 797.257649 
L 0 800.538545 
L 0 803.819441 
L 0 807.100336 
L 0 810.381232 
L 0 813.662128 
L 0 816.943023 
z
" clip-path="url(#p283f29ff04)" style="fill: #f5f9fe; fill-opacity: 0.9"/>
    <path clip-path="url(#p283f29ff04)" style="fill: #eff6fc; fill-opacity: 0.9"/>
    <path clip-path="url(#p283f29ff04)" style="fill: #eaf3fb; fill-opacity: 0.9"/>
    <path clip-path="url(#p283f29ff04)" style="fill: #e5eff9; fill-opacity: 0.9"/>
    <path clip-path="url(#p283f29ff04)" style="fill: #dfecf7; fill-opacity: 0.9"/>
    <path clip-path="url(#p283f29ff04)" style="fill: #dae8f6; fill-opacity: 0.9"/>
    <path clip-path="url(#p283f29ff04)" style="fill: #d6e5f4; fill-opacity: 0.9"/>
    <path clip-path="url(#p283f29ff04)" style="fill: #d0e2f2; fill-opacity: 0.9"/>
    <path clip-path="url(#p283f29ff04)" style="fill: #cbdef1; fill-opacity: 0.9"/>
    <path clip-path="url(#p283f29ff04)" style="fill: #c6dbef; fill-opacity: 0.9"/>
    <path clip-path="url(#p283f29ff04)" style="fill: #bed8ec; fill-opacity: 0.9"/>
    <path clip-path="url(#p283f29ff04)" style="fill: #b5d4e9; fill-opacity: 0.9"/>
    <path clip-path="url(#p283f29ff04)" style="fill: #add0e6; fill-opacity: 0.9"/>
    <path clip-path="url(#p283f29ff04)" style="fill: #a5cde3; fill-opacity: 0.9"/>
    <path clip-path="url(#p283f29ff04)" style="fill: #9cc9e1; fill-opacity: 0.9"/>
    <path clip-path="url(#p283f29ff04)" style="fill: #91c3de; fill-opacity: 0.9"/>
    <path clip-path="url(#p283f29ff04)" style="fill: #85bcdc; fill-opacity: 0.9"/>
    <path clip-path="url(#p283f29ff04)" style="fill: #7cb7da; fill-opacity: 0.9"/>
    <path clip-path="url(#p283f29ff04)" style="fill: #71b1d7; fill-opacity: 0.9"/>
    <path clip-path="url(#p283f29ff04)" style="fill: #66abd4; fill-opacity: 0.9"/>
    <path clip-path="url(#p283f29ff04)" style="fill: #5da5d1; fill-opacity: 0.9"/>
    <path clip-path="url(#p283f29ff04)" style="fill: #56a0ce; fill-opacity: 0.9"/>
    <path clip-path="url(#p283f29ff04)" style="fill: #4d99ca; fill-opacity: 0.9"/>
    <path clip-path="url(#p283f29ff04)" style="fill: #4493c7; fill-opacity: 0.9"/>
    <path clip-path="url(#p283f29ff04)" style="fill: #3c8cc3; fill-opacity: 0.9"/>
    <path clip-path="url(#p283f29ff04)" style="fill: #3686c0; fill-opacity: 0.9"/>
    <path clip-path="url(#p283f29ff04)" style="fill: #2f7fbc; fill-opacity: 0.9"/>
    <path clip-path="url(#p283f29ff04)" style="fill: #2777b8; fill-opacity: 0.9"/>
    <path clip-path="url(#p283f29ff04)" style="fill: #2070b4; fill-opacity: 0.9"/>
    <path clip-path="url(#p283f29ff04)" style="fill: #1c6ab0; fill-opacity: 0.9"/>
    <path clip-path="url(#p283f29ff04)" style="fill: #1663aa; fill-opacity: 0.9"/>
    <path clip-path="url(#p283f29ff04)" style="fill: #115ca5; fill-opacity: 0.9"/>
    <path clip-path="url(#p283f29ff04)" style="fill: #0c56a0; fill-opacity: 0.9"/>
    <path clip-path="url(#p283f29ff04)" style="fill: #084f99; fill-opacity: 0.9"/>
    <path clip-path="url(#p283f29ff04)" style="fill: #08488e; fill-opacity: 0.9"/>
    <path clip-path="url(#p283f29ff04)" style="fill: #084184; fill-opacity: 0.9"/>
    <path clip-path="url(#p283f29ff04)" style="fill: #083a7a; fill-opacity: 0.9"/>
    <path clip-path="url(#p283f29ff04)" style="fill: #083370; fill-opacity: 0.9"/>
    <path clip-path="url(#p283f29ff04)" style="fill: #08306b; fill-opacity: 0.9"/>
   </g>
   <g id="QuadContourSet_2">
    <path clip-path="url(#p283f29ff04)" style="fill: none"/>
    <path clip-path="url(#p283f29ff04)" style="fill: none"/>
    <path clip-path="url(#p283f29ff04)" style="fill: none"/>
    <path clip-path="url(#p283f29ff04)" style="fill: none"/>
    <path clip-path="url(#p283f29ff04)" style="fill: none"/>
    <path clip-path="url(#p283f29ff04)" style="fill: none"/>
    <path clip-path="url(#p283f29ff04)" style="fill: none"/>
    <path clip-path="url(#p283f29ff04)" style="fill: none"/>
    <path clip-path="url(#p283f29ff04)" style="fill: none"/>
    <path clip-path="url(#p283f29ff04)" style="fill: none"/>
    <path clip-path="url(#p283f29ff04)" style="fill: none"/>
    <path clip-path="url(#p283f29ff04)" style="fill: none"/>
    <path clip-path="url(#p283f29ff04)" style="fill: none"/>
    <path clip-path="url(#p283f29ff04)" style="fill: none"/>
    <path clip-path="url(#p283f29ff04)" style="fill: none"/>
    <path clip-path="url(#p283f29ff04)" style="fill: none"/>
    <path clip-path="url(#p283f29ff04)" style="fill: none"/>
    <path clip-path="url(#p283f29ff04)" style="fill: none"/>
    <path clip-path="url(#p283f29ff04)" style="fill: none"/>
    <path clip-path="url(#p283f29ff04)" style="fill: none"/>
    <path clip-path="url(#p283f29ff04)" style="fill: none"/>
    <path clip-path="url(#p283f29ff04)" style="fill: none"/>
    <path clip-path="url(#p283f29ff04)" style="fill: none"/>
    <path clip-path="url(#p283f29ff04)" style="fill: none"/>
    <path clip-path="url(#p283f29ff04)" style="fill: none"/>
    <path clip-path="url(#p283f29ff04)" style="fill: none"/>
    <path clip-path="url(#p283f29ff04)" style="fill: none"/>
    <path clip-path="url(#p283f29ff04)" style="fill: none"/>
    <path clip-path="url(#p283f29ff04)" style="fill: none"/>
    <path clip-path="url(#p283f29ff04)" style="fill: none"/>
    <path clip-path="url(#p283f29ff04)" style="fill: none"/>
    <path clip-path="url(#p283f29ff04)" style="fill: none"/>
    <path clip-path="url(#p283f29ff04)" style="fill: none"/>
    <path clip-path="url(#p283f29ff04)" style="fill: none"/>
    <path clip-path="url(#p283f29ff04)" style="fill: none"/>
    <path clip-path="url(#p283f29ff04)" style="fill: none"/>
    <path clip-path="url(#p283f29ff04)" style="fill: none"/>
    <path clip-path="url(#p283f29ff04)" style="fill: none"/>
    <path clip-path="url(#p283f29ff04)" style="fill: none"/>
   </g>
  </g>
 </g>
 <defs>
  <clipPath id="p283f29ff04">
   <rect x="0" y="0" width="576" height="816.943023"/>
  </clipPath>
 </defs>
</svg>
