<?xml version="1.0" encoding="utf-8" standalone="no"?>
<!DOCTYPE svg PUBLIC "-//W3C//DTD SVG 1.1//EN"
  "http://www.w3.org/Graphics/SVG/1.1/DTD/svg11.dtd">
<svg xmlns:xlink="http://www.w3.org/1999/xlink" width="576pt" height="819.536585pt" viewBox="0 0 576 819.536585" xmlns="http://www.w3.org/2000/svg" version="1.1">
 <metadata>
  <rdf:RDF xmlns:dc="http://purl.org/dc/elements/1.1/" xmlns:cc="http://creativecommons.org/ns#" xmlns:rdf="http://www.w3.org/1999/02/22-rdf-syntax-ns#">
   <cc:Work>
    <dc:type rdf:resource="http://purl.org/dc/dcmitype/StillImage"/>
    <dc:date>2025-07-25T22:44:32.735960</dc:date>
    <dc:format>image/svg+xml</dc:format>
    <dc:creator>
     <cc:Agent>
      <dc:title>Matplotlib v3.10.3, https://matplotlib.org/</dc:title>
     </cc:Agent>
    </dc:creator>
   </cc:Work>
  </rdf:RDF>
 </metadata>
 <defs>
  <style type="text/css">*{stroke-linejoin: round; stroke-linecap: butt}</style>
 </defs>
 <g id="figure_1">
  <g id="patch_1">
   <path d="M 0 819.536585 
L 576 819.536585 
L 576 0 
L 0 0 
L 0 819.536585 
z
" style="fill: none; opacity: 0"/>
  </g>
  <g id="axes_1">
   <g id="QuadContourSet_1">
    <path d="M 470.674286 819.536585 
L 470.732904 819.536585 
L 471.615466 816.245274 
L 472.53239 812.953962 
L 473.965714 810.921754 
L 474.659123 809.66265 
L 475.571454 806.371339 
L 477.257143 803.652747 
L 477.758416 803.080027 
L 478.928065 799.788716 
L 480.435364 796.497404 
L 480.548571 796.38653 
L 482.897252 793.206092 
L 483.421194 789.914781 
L 483.84 789.479943 
L 485.451202 786.623469 
L 487.131429 783.378696 
L 487.154546 783.332158 
L 488.070411 780.040846 
L 489.016341 776.749534 
L 490.422857 774.742577 
L 491.171395 773.458223 
L 492.095548 770.166911 
L 493.714286 767.564083 
L 494.355864 766.8756 
L 495.528663 763.584288 
L 497.005714 760.426542 
L 497.10146 760.292977 
L 499.699668 757.001665 
L 500.279866 753.710353 
L 500.297143 753.691643 
L 502.061224 750.419042 
L 503.588571 747.481722 
L 503.76483 747.12773 
L 504.676258 743.836419 
L 505.728625 740.545107 
L 506.88 738.955317 
L 507.86857 737.253795 
L 508.888585 733.962484 
L 510.171429 732.075226 
L 511.327601 730.671172 
L 512.138124 727.379861 
L 513.462857 725.264572 
L 514.686362 724.088549 
L 516.132412 720.797238 
L 516.754286 719.369641 
L 517.402479 717.505926 
L 519.31224 714.214614 
L 520.045714 713.02819 
L 520.789577 710.923303 
L 521.850322 707.631991 
L 523.337143 704.928524 
L 523.676466 704.34068 
L 525.016747 701.049368 
L 526.628571 698.352146 
L 527.178915 697.758056 
L 528.411726 694.466745 
L 529.92 691.911354 
L 530.93421 691.175433 
L 529.92 690.766486 
L 527.840034 687.884122 
L 529.92 685.828203 
L 533.211429 686.066904 
L 535.818195 684.59281 
L 536.502857 683.564873 
L 536.785312 681.301498 
L 537.448331 678.010187 
L 539.382721 674.718875 
L 539.794286 674.094679 
L 540.709262 671.427564 
L 541.707609 668.136252 
L 543.085714 665.978454 
L 543.922297 664.844941 
L 545.029361 661.553629 
L 546.377143 659.476234 
L 547.684132 658.262317 
L 546.377143 657.593077 
L 544.357727 654.971006 
L 546.377143 652.951661 
L 549.668571 653.277545 
L 552.095645 651.679694 
L 552.96 649.028348 
L 553.06889 648.388383 
L 554.82162 645.097071 
L 556.251429 643.514562 
L 556.87282 641.805759 
L 557.410955 638.514448 
L 558.398634 635.223136 
L 559.542857 633.550753 
L 560.484597 631.931825 
L 561.677552 628.640513 
L 562.834286 627.004082 
L 564.216731 625.349201 
L 565.014404 622.05789 
L 566.125714 620.518476 
L 568.49348 618.766578 
L 566.125714 617.889721 
L 564.101513 615.475267 
L 566.125714 613.476588 
L 569.417143 614.927324 
L 571.073635 612.183955 
L 572.708571 609.989268 
L 573.22878 608.892644 
L 573.910215 605.601332 
L 575.434298 602.31002 
L 576 601.531301 
L 576 600.123614 
L 574.411681 602.31002 
L 573.187429 605.601332 
L 572.708571 608.069438 
L 572.323015 608.892644 
L 570.024976 612.183955 
L 569.417143 613.190607 
L 566.125714 612.991628 
L 563.610361 615.475267 
L 566.125714 618.475565 
L 566.911533 618.766578 
L 566.125714 619.348002 
L 564.169433 622.05789 
L 563.238946 625.349201 
L 562.834286 625.833608 
L 560.850186 628.640513 
L 559.777036 631.931825 
L 559.542857 632.334398 
L 557.566419 635.223136 
L 556.756932 638.514448 
L 556.251429 641.716851 
L 556.207329 641.805759 
L 553.243847 645.097071 
L 552.96 645.6431 
L 551.761779 648.388383 
L 549.910855 651.679694 
L 549.668571 651.8392 
L 546.377143 652.456978 
L 543.863026 654.971006 
L 546.377143 658.235412 
L 546.429688 658.262317 
L 546.377143 658.311121 
L 544.273454 661.553629 
L 543.085714 664.789094 
L 543.029866 664.844941 
L 540.963495 668.136252 
L 540.126522 671.427564 
L 539.794286 672.396018 
L 538.262708 674.718875 
L 536.502857 677.867877 
L 536.360542 678.010187 
L 535.590628 681.301498 
L 533.211429 684.046693 
L 532.665292 684.59281 
L 529.92 685.347744 
L 527.353955 687.884122 
L 529.234046 691.175433 
L 527.696266 694.466745 
L 526.628571 696.965677 
L 525.836164 697.758056 
L 524.342834 701.049368 
L 523.337143 703.450208 
L 522.446639 704.34068 
L 521.126254 707.631991 
L 520.202888 710.923303 
L 520.045714 711.368052 
L 518.285904 714.214614 
L 516.754286 717.046588 
L 516.294932 717.505926 
L 515.061299 720.797238 
L 513.506064 724.088549 
L 513.462857 724.130079 
L 511.42763 727.379861 
L 510.448558 730.671172 
L 510.171429 731.007718 
L 508.162957 733.962484 
L 507.248357 737.253795 
L 506.88 737.887809 
L 504.955503 740.545107 
L 504.134778 743.836419 
L 503.588571 745.742122 
L 502.623533 747.12773 
L 501.37071 750.419042 
L 500.297143 752.410649 
L 499.097036 753.710353 
L 498.726442 757.001665 
L 497.005714 759.170437 
L 495.73993 760.292977 
L 494.792459 763.584288 
L 493.714286 766.21302 
L 493.051682 766.8756 
L 491.416834 770.166911 
L 490.535355 773.458223 
L 490.422857 773.651249 
L 488.251516 776.749534 
L 487.531058 780.040846 
L 487.131429 781.470616 
L 485.824319 783.332158 
L 484.768575 786.623469 
L 483.84 788.269725 
L 482.255595 789.914781 
L 481.944248 793.206092 
L 480.548571 795.096031 
L 479.117712 796.497404 
L 478.235321 799.788716 
L 477.257143 802.262609 
L 476.439695 803.080027 
L 474.905734 806.371339 
L 474.05762 809.66265 
L 473.965714 809.829534 
L 471.762043 812.953962 
L 471.082954 816.245274 
L 470.674286 817.755089 
L 469.388242 819.536585 
z
" clip-path="url(#p4db5bd7e21)" style="fill: #f5f9fe; fill-opacity: 0.9"/>
    <path d="M 472.147978 816.245274 
L 473.302738 812.953962 
L 473.965714 812.013975 
L 475.260626 809.66265 
L 476.237174 806.371339 
L 477.257143 804.726386 
L 478.698118 803.080027 
L 479.620809 799.788716 
L 480.548571 797.832548 
L 481.560894 796.497404 
L 483.84 793.223214 
L 483.848552 793.206092 
L 484.298552 789.914781 
L 486.133828 786.623469 
L 487.131429 784.696951 
L 487.809385 783.332158 
L 488.609763 780.040846 
L 489.781165 776.749534 
L 490.422857 775.833905 
L 491.807435 773.458223 
L 492.774261 770.166911 
L 493.714286 768.655411 
L 495.372842 766.8756 
L 496.264867 763.584288 
L 497.005714 762.000452 
L 498.229716 760.292977 
L 500.297143 757.574456 
L 500.59555 757.001665 
L 500.990796 753.710353 
L 502.751738 750.419042 
L 503.588571 748.809685 
L 504.426046 747.12773 
L 505.217738 743.836419 
L 506.501747 740.545107 
L 506.88 740.022825 
L 508.488784 737.253795 
L 509.614212 733.962484 
L 510.171429 733.142734 
L 512.206643 730.671172 
L 512.848618 727.379861 
L 513.462857 726.399065 
L 515.866661 724.088549 
L 516.754286 721.975626 
L 517.106854 720.797238 
L 518.257671 717.505926 
L 520.045714 714.609859 
L 520.298439 714.214614 
L 521.376266 710.923303 
L 522.57439 707.631991 
L 523.337143 706.245087 
L 524.43643 704.34068 
L 525.690659 701.049368 
L 526.628571 699.479869 
L 528.223598 697.758056 
L 529.127187 694.466745 
L 529.92 693.123522 
L 532.60476 691.175433 
L 529.92 690.092891 
L 528.326112 687.884122 
L 529.92 686.308662 
L 533.06509 687.884122 
L 533.211429 688.857824 
L 533.652756 687.884122 
L 536.502857 686.087222 
L 537.14802 684.59281 
L 537.495814 681.301498 
L 538.466074 678.010187 
L 539.794286 675.79334 
L 540.352308 674.718875 
L 541.292003 671.427564 
L 542.451724 668.136252 
L 543.085714 667.143567 
L 544.782202 664.844941 
L 545.785268 661.553629 
L 546.377143 660.641347 
L 548.938575 658.262317 
L 546.377143 656.950743 
L 544.852427 654.971006 
L 546.377143 653.446345 
L 549.668571 654.71589 
L 552.310793 654.971006 
L 552.96 655.07602 
L 553.002404 654.971006 
L 553.481964 651.679694 
L 554.209184 648.388383 
L 556.251429 645.260837 
L 556.347567 645.097071 
L 557.507839 641.805759 
L 558.064978 638.514448 
L 559.230848 635.223136 
L 559.542857 634.767108 
L 561.192157 631.931825 
L 562.504918 628.640513 
L 562.834286 628.174556 
L 565.194516 625.349201 
L 565.859375 622.05789 
L 566.125714 621.68895 
L 569.417143 619.457913 
L 569.820092 618.766578 
L 570.04617 615.475267 
L 572.122294 612.183955 
L 572.708571 611.396955 
L 573.896549 608.892644 
L 574.633001 605.601332 
L 576 602.938987 
L 576 602.31002 
L 576 601.531301 
L 575.434298 602.31002 
L 573.910215 605.601332 
L 573.22878 608.892644 
L 572.708571 609.989268 
L 571.073635 612.183955 
L 569.417143 614.927324 
L 566.125714 613.476588 
L 564.101513 615.475267 
L 566.125714 617.889721 
L 568.49348 618.766578 
L 566.125714 620.518476 
L 565.014404 622.05789 
L 564.216731 625.349201 
L 562.834286 627.004082 
L 561.677552 628.640513 
L 560.484597 631.931825 
L 559.542857 633.550753 
L 558.398634 635.223136 
L 557.410955 638.514448 
L 556.87282 641.805759 
L 556.251429 643.514562 
L 554.82162 645.097071 
L 553.06889 648.388383 
L 552.96 649.028348 
L 552.095645 651.679694 
L 549.668571 653.277545 
L 546.377143 652.951661 
L 544.357727 654.971006 
L 546.377143 657.593077 
L 547.684132 658.262317 
L 546.377143 659.476234 
L 545.029361 661.553629 
L 543.922297 664.844941 
L 543.085714 665.978454 
L 541.707609 668.136252 
L 540.709262 671.427564 
L 539.794286 674.094679 
L 539.382721 674.718875 
L 537.448331 678.010187 
L 536.785312 681.301498 
L 536.502857 683.564873 
L 535.818195 684.59281 
L 533.211429 686.066904 
L 529.92 685.828203 
L 527.840034 687.884122 
L 529.92 690.766486 
L 530.93421 691.175433 
L 529.92 691.911354 
L 528.411726 694.466745 
L 527.178915 697.758056 
L 526.628571 698.352146 
L 525.016747 701.049368 
L 523.676466 704.34068 
L 523.337143 704.928524 
L 521.850322 707.631991 
L 520.789577 710.923303 
L 520.045714 713.02819 
L 519.31224 714.214614 
L 517.402479 717.505926 
L 516.754286 719.369641 
L 516.132412 720.797238 
L 514.686362 724.088549 
L 513.462857 725.264572 
L 512.138124 727.379861 
L 511.327601 730.671172 
L 510.171429 732.075226 
L 508.888585 733.962484 
L 507.86857 737.253795 
L 506.88 738.955317 
L 505.728625 740.545107 
L 504.676258 743.836419 
L 503.76483 747.12773 
L 503.588571 747.481722 
L 502.061224 750.419042 
L 500.297143 753.691643 
L 500.279866 753.710353 
L 499.699668 757.001665 
L 497.10146 760.292977 
L 497.005714 760.426542 
L 495.528663 763.584288 
L 494.355864 766.8756 
L 493.714286 767.564083 
L 492.095548 770.166911 
L 491.171395 773.458223 
L 490.422857 774.742577 
L 489.016341 776.749534 
L 488.070411 780.040846 
L 487.154546 783.332158 
L 487.131429 783.378696 
L 485.451202 786.623469 
L 483.84 789.479943 
L 483.421194 789.914781 
L 482.897252 793.206092 
L 480.548571 796.38653 
L 480.435364 796.497404 
L 478.928065 799.788716 
L 477.758416 803.080027 
L 477.257143 803.652747 
L 475.571454 806.371339 
L 474.659123 809.66265 
L 473.965714 810.921754 
L 472.53239 812.953962 
L 471.615466 816.245274 
L 470.732904 819.536585 
L 471.353401 819.536585 
z
M 564.592666 615.475267 
L 566.125714 613.961548 
L 568.825164 615.475267 
L 566.125714 617.303877 
z
" clip-path="url(#p4db5bd7e21)" style="fill: #eff6fc; fill-opacity: 0.9"/>
    <path d="M 472.68049 816.245274 
L 473.965714 813.133657 
L 474.114251 812.953962 
L 475.86213 809.66265 
L 476.902894 806.371339 
L 477.257143 805.800025 
L 479.63782 803.080027 
L 480.313552 799.788716 
L 480.548571 799.293183 
L 482.668366 796.497404 
L 483.84 794.814221 
L 484.643212 793.206092 
L 485.014262 789.914781 
L 486.816455 786.623469 
L 487.131429 786.015207 
L 488.464225 783.332158 
L 489.149116 780.040846 
L 490.422857 776.959588 
L 490.614968 776.749534 
L 492.443475 773.458223 
L 493.452974 770.166911 
L 493.714286 769.746738 
L 496.38982 766.8756 
L 497.001072 763.584288 
L 497.005714 763.574363 
L 499.357971 760.292977 
L 500.297143 759.058032 
L 501.368449 757.001665 
L 501.694731 753.710353 
L 503.442253 750.419042 
L 503.588571 750.137649 
L 505.087262 747.12773 
L 505.759218 743.836419 
L 506.88 741.196517 
L 507.482906 740.545107 
L 509.108997 737.253795 
L 510.171429 734.355205 
L 510.794667 733.962484 
L 513.085685 730.671172 
L 513.462857 728.169688 
L 513.659844 727.379861 
L 516.754286 724.432016 
L 517.040603 724.088549 
L 517.947475 720.797238 
L 519.112863 717.505926 
L 520.045714 715.995001 
L 521.184115 714.214614 
L 521.962955 710.923303 
L 523.298457 707.631991 
L 523.337143 707.56165 
L 525.196394 704.34068 
L 526.364572 701.049368 
L 526.628571 700.607592 
L 529.268281 697.758056 
L 529.842647 694.466745 
L 529.92 694.33569 
L 532.047164 694.466745 
L 533.211429 694.803655 
L 533.287913 694.466745 
L 534.030308 691.175433 
L 536.502857 687.90906 
L 536.522831 687.884122 
L 537.935332 684.59281 
L 538.206315 681.301498 
L 539.483818 678.010187 
L 539.794286 677.492001 
L 541.234506 674.718875 
L 541.874743 671.427564 
L 543.085714 668.355065 
L 543.431833 668.136252 
L 545.642106 664.844941 
L 546.377143 662.220008 
L 549.277576 661.553629 
L 549.668571 661.338392 
L 551.5272 658.262317 
L 552.96 657.485705 
L 553.975417 654.971006 
L 554.345606 651.679694 
L 555.349477 648.388383 
L 556.251429 647.007111 
L 557.372719 645.097071 
L 558.142857 641.805759 
L 558.719001 638.514448 
L 559.542857 636.314708 
L 560.472015 635.223136 
L 561.899717 631.931825 
L 562.834286 629.670847 
L 565.242567 628.640513 
L 566.125714 625.933518 
L 566.210313 625.349201 
L 567.929236 622.05789 
L 569.417143 621.119286 
L 570.788433 618.766578 
L 570.965135 615.475267 
L 572.708571 612.804641 
L 573.296609 612.183955 
L 574.564317 608.892644 
L 575.355787 605.601332 
L 576 604.346674 
L 576 602.938987 
L 574.633001 605.601332 
L 573.896549 608.892644 
L 572.708571 611.396955 
L 572.122294 612.183955 
L 570.04617 615.475267 
L 569.820092 618.766578 
L 569.417143 619.457913 
L 566.125714 621.68895 
L 565.859375 622.05789 
L 565.194516 625.349201 
L 562.834286 628.174556 
L 562.504918 628.640513 
L 561.192157 631.931825 
L 559.542857 634.767108 
L 559.230848 635.223136 
L 558.064978 638.514448 
L 557.507839 641.805759 
L 556.347567 645.097071 
L 556.251429 645.260837 
L 554.209184 648.388383 
L 553.481964 651.679694 
L 553.002404 654.971006 
L 552.96 655.07602 
L 552.310793 654.971006 
L 549.668571 654.71589 
L 546.377143 653.446345 
L 544.852427 654.971006 
L 546.377143 656.950743 
L 548.938575 658.262317 
L 546.377143 660.641347 
L 545.785268 661.553629 
L 544.782202 664.844941 
L 543.085714 667.143567 
L 542.451724 668.136252 
L 541.292003 671.427564 
L 540.352308 674.718875 
L 539.794286 675.79334 
L 538.466074 678.010187 
L 537.495814 681.301498 
L 537.14802 684.59281 
L 536.502857 686.087222 
L 533.652756 687.884122 
L 533.211429 688.857824 
L 533.06509 687.884122 
L 529.92 686.308662 
L 528.326112 687.884122 
L 529.92 690.092891 
L 532.60476 691.175433 
L 529.92 693.123522 
L 529.127187 694.466745 
L 528.223598 697.758056 
L 526.628571 699.479869 
L 525.690659 701.049368 
L 524.43643 704.34068 
L 523.337143 706.245087 
L 522.57439 707.631991 
L 521.376266 710.923303 
L 520.298439 714.214614 
L 520.045714 714.609859 
L 518.257671 717.505926 
L 517.106854 720.797238 
L 516.754286 721.975626 
L 515.866661 724.088549 
L 513.462857 726.399065 
L 512.848618 727.379861 
L 512.206643 730.671172 
L 510.171429 733.142734 
L 509.614212 733.962484 
L 508.488784 737.253795 
L 506.88 740.022825 
L 506.501747 740.545107 
L 505.217738 743.836419 
L 504.426046 747.12773 
L 503.588571 748.809685 
L 502.751738 750.419042 
L 500.990796 753.710353 
L 500.59555 757.001665 
L 500.297143 757.574456 
L 498.229716 760.292977 
L 497.005714 762.000452 
L 496.264867 763.584288 
L 495.372842 766.8756 
L 493.714286 768.655411 
L 492.774261 770.166911 
L 491.807435 773.458223 
L 490.422857 775.833905 
L 489.781165 776.749534 
L 488.609763 780.040846 
L 487.809385 783.332158 
L 487.131429 784.696951 
L 486.133828 786.623469 
L 484.298552 789.914781 
L 483.848552 793.206092 
L 483.84 793.223214 
L 481.560894 796.497404 
L 480.548571 797.832548 
L 479.620809 799.788716 
L 478.698118 803.080027 
L 477.257143 804.726386 
L 476.237174 806.371339 
L 475.260626 809.66265 
L 473.965714 812.013975 
L 473.302738 812.953962 
L 472.147978 816.245274 
L 471.353401 819.536585 
L 471.973899 819.536585 
z
M 528.812191 687.884122 
L 529.92 686.789121 
L 532.10595 687.884122 
L 529.92 689.419295 
z
M 545.347128 654.971006 
L 546.377143 653.941028 
L 548.736424 654.971006 
L 546.377143 656.308408 
z
M 566.125714 617.303877 
L 568.825164 615.475267 
L 566.125714 613.961548 
L 564.592666 615.475267 
z
M 565.083819 615.475267 
L 566.125714 614.446508 
L 567.960324 615.475267 
L 566.125714 616.718034 
z
" clip-path="url(#p4db5bd7e21)" style="fill: #eaf3fb; fill-opacity: 0.9"/>
    <path d="M 473.213001 816.245274 
L 473.965714 814.422904 
L 475.179947 812.953962 
L 476.463633 809.66265 
L 477.257143 807.233028 
L 478.629259 806.371339 
L 480.548571 803.228 
L 480.592731 803.080027 
L 481.318069 799.788716 
L 483.775838 796.497404 
L 483.84 796.405228 
L 485.437872 793.206092 
L 485.729973 789.914781 
L 487.131429 787.333462 
L 487.808868 786.623469 
L 489.119064 783.332158 
L 489.688469 780.040846 
L 490.422857 778.264315 
L 491.808247 776.749534 
L 493.079514 773.458223 
L 493.714286 771.421795 
L 495.609751 770.166911 
L 497.005714 768.407567 
L 497.545422 766.8756 
L 498.150139 763.584288 
L 500.297143 760.564452 
L 500.553632 760.292977 
L 502.141349 757.001665 
L 502.398665 753.710353 
L 503.588571 751.465612 
L 504.586408 750.419042 
L 505.748478 747.12773 
L 506.300697 743.836419 
L 506.88 742.471923 
L 508.663348 740.545107 
L 509.729211 737.253795 
L 510.171429 736.04731 
L 513.462857 733.974863 
L 513.474725 733.962484 
L 514.309038 730.671172 
L 515.113869 727.379861 
L 516.754286 725.817158 
L 518.195267 724.088549 
L 518.788096 720.797238 
L 519.968056 717.505926 
L 520.045714 717.380143 
L 522.069791 714.214614 
L 522.549644 710.923303 
L 523.337143 708.99314 
L 524.704916 707.631991 
L 525.956358 704.34068 
L 526.628571 702.390457 
L 529.3057 701.049368 
L 529.92 700.158635 
L 533.211429 699.218407 
L 533.967391 697.758056 
L 534.580409 694.466745 
L 535.316145 691.175433 
L 536.502857 689.607721 
L 537.883341 687.884122 
L 538.722643 684.59281 
L 538.916817 681.301498 
L 539.794286 679.19534 
L 541.055452 678.010187 
L 542.116705 674.718875 
L 542.457483 671.427564 
L 543.085714 669.833604 
L 545.770589 668.136252 
L 546.377143 666.02631 
L 549.668571 667.250943 
L 550.43996 664.844941 
L 551.135849 661.553629 
L 552.96 659.445912 
L 554.047203 658.262317 
L 554.94843 654.971006 
L 555.209247 651.679694 
L 556.251429 648.874306 
L 556.807074 648.388383 
L 558.397872 645.097071 
L 558.777875 641.805759 
L 559.373023 638.514448 
L 559.542857 638.060983 
L 561.958463 635.223136 
L 562.607277 631.931825 
L 562.834286 631.382629 
L 566.125714 630.540229 
L 567.733683 628.640513 
L 567.985917 625.349201 
L 569.417143 623.211601 
L 570.48269 622.05789 
L 571.756774 618.766578 
L 571.8841 615.475267 
L 572.708571 614.212328 
L 574.63025 612.183955 
L 575.232085 608.892644 
L 576 605.885594 
L 576 605.601332 
L 576 604.346674 
L 575.355787 605.601332 
L 574.564317 608.892644 
L 573.296609 612.183955 
L 572.708571 612.804641 
L 570.965135 615.475267 
L 570.788433 618.766578 
L 569.417143 621.119286 
L 567.929236 622.05789 
L 566.210313 625.349201 
L 566.125714 625.933518 
L 565.242567 628.640513 
L 562.834286 629.670847 
L 561.899717 631.931825 
L 560.472015 635.223136 
L 559.542857 636.314708 
L 558.719001 638.514448 
L 558.142857 641.805759 
L 557.372719 645.097071 
L 556.251429 647.007111 
L 555.349477 648.388383 
L 554.345606 651.679694 
L 553.975417 654.971006 
L 552.96 657.485705 
L 551.5272 658.262317 
L 549.668571 661.338392 
L 549.277576 661.553629 
L 546.377143 662.220008 
L 545.642106 664.844941 
L 543.431833 668.136252 
L 543.085714 668.355065 
L 541.874743 671.427564 
L 541.234506 674.718875 
L 539.794286 677.492001 
L 539.483818 678.010187 
L 538.206315 681.301498 
L 537.935332 684.59281 
L 536.522831 687.884122 
L 536.502857 687.90906 
L 534.030308 691.175433 
L 533.287913 694.466745 
L 533.211429 694.803655 
L 532.047164 694.466745 
L 529.92 694.33569 
L 529.842647 694.466745 
L 529.268281 697.758056 
L 526.628571 700.607592 
L 526.364572 701.049368 
L 525.196394 704.34068 
L 523.337143 707.56165 
L 523.298457 707.631991 
L 521.962955 710.923303 
L 521.184115 714.214614 
L 520.045714 715.995001 
L 519.112863 717.505926 
L 517.947475 720.797238 
L 517.040603 724.088549 
L 516.754286 724.432016 
L 513.659844 727.379861 
L 513.462857 728.169688 
L 513.085685 730.671172 
L 510.794667 733.962484 
L 510.171429 734.355205 
L 509.108997 737.253795 
L 507.482906 740.545107 
L 506.88 741.196517 
L 505.759218 743.836419 
L 505.087262 747.12773 
L 503.588571 750.137649 
L 503.442253 750.419042 
L 501.694731 753.710353 
L 501.368449 757.001665 
L 500.297143 759.058032 
L 499.357971 760.292977 
L 497.005714 763.574363 
L 497.001072 763.584288 
L 496.38982 766.8756 
L 493.714286 769.746738 
L 493.452974 770.166911 
L 492.443475 773.458223 
L 490.614968 776.749534 
L 490.422857 776.959588 
L 489.149116 780.040846 
L 488.464225 783.332158 
L 487.131429 786.015207 
L 486.816455 786.623469 
L 485.014262 789.914781 
L 484.643212 793.206092 
L 483.84 794.814221 
L 482.668366 796.497404 
L 480.548571 799.293183 
L 480.313552 799.788716 
L 479.63782 803.080027 
L 477.257143 805.800025 
L 476.902894 806.371339 
L 475.86213 809.66265 
L 474.114251 812.953962 
L 473.965714 813.133657 
L 472.68049 816.245274 
L 471.973899 819.536585 
L 472.594396 819.536585 
z
M 529.92 689.419295 
L 532.10595 687.884122 
L 529.92 686.789121 
L 528.812191 687.884122 
z
M 529.29827 687.884122 
L 529.92 687.269579 
L 531.14681 687.884122 
L 529.92 688.7457 
z
M 546.377143 656.308408 
L 548.736424 654.971006 
L 546.377143 653.941028 
L 545.347128 654.971006 
z
M 545.841829 654.971006 
L 546.377143 654.435711 
L 547.603297 654.971006 
L 546.377143 655.666074 
z
M 566.125714 616.718034 
L 567.960324 615.475267 
L 566.125714 614.446508 
L 565.083819 615.475267 
z
M 565.574971 615.475267 
L 566.125714 614.931468 
L 567.095484 615.475267 
L 566.125714 616.13219 
z
" clip-path="url(#p4db5bd7e21)" style="fill: #e5eff9; fill-opacity: 0.9"/>
    <path d="M 473.745513 816.245274 
L 473.965714 815.712152 
L 476.245644 812.953962 
L 477.065136 809.66265 
L 477.257143 809.074752 
L 480.548571 807.062552 
L 481.213281 806.371339 
L 482.026096 803.080027 
L 482.482666 799.788716 
L 483.84 797.968596 
L 485.272846 796.497404 
L 486.232532 793.206092 
L 486.445683 789.914781 
L 487.131429 788.651718 
L 489.06668 786.623469 
L 489.773903 783.332158 
L 490.227821 780.040846 
L 490.422857 779.569042 
L 493.001526 776.749534 
L 493.714286 773.469174 
L 493.720819 773.458223 
L 497.005714 771.328853 
L 498.063929 770.166911 
L 498.913889 766.8756 
L 499.301827 763.584288 
L 500.297143 762.184341 
L 502.084099 760.292977 
L 502.914248 757.001665 
L 503.1026 753.710353 
L 503.588571 752.793576 
L 505.852535 750.419042 
L 506.409694 747.12773 
L 506.842177 743.836419 
L 506.88 743.74733 
L 509.84379 740.545107 
L 510.171429 738.926954 
L 511.138095 737.253795 
L 513.462857 735.914837 
L 515.33466 733.962484 
L 515.79115 730.671172 
L 516.567895 727.379861 
L 516.754286 727.2023 
L 519.349932 724.088549 
L 519.628717 720.797238 
L 520.045714 719.635392 
L 522.164919 717.505926 
L 522.955467 714.214614 
L 523.136333 710.923303 
L 523.337143 710.431116 
L 526.149892 707.631991 
L 526.628571 705.191369 
L 529.92 706.042438 
L 530.998098 704.34068 
L 533.211429 702.341918 
L 534.390688 701.049368 
L 535.538765 697.758056 
L 535.872906 694.466745 
L 536.502857 691.624918 
L 537.008297 691.175433 
L 539.243852 687.884122 
L 539.509954 684.59281 
L 539.627318 681.301498 
L 539.794286 680.900733 
L 542.870224 678.010187 
L 542.998903 674.718875 
L 543.040223 671.427564 
L 543.085714 671.312143 
L 543.706117 671.427564 
L 546.377143 674.434731 
L 549.668571 672.860353 
L 550.663323 671.427564 
L 551.784617 668.136252 
L 552.321621 664.844941 
L 552.647342 661.553629 
L 552.96 661.192368 
L 555.651428 658.262317 
L 555.921442 654.971006 
L 556.072889 651.679694 
L 556.251429 651.199094 
L 558.815503 651.679694 
L 559.542857 652.826831 
L 560.77945 651.679694 
L 559.542857 649.480577 
L 559.465432 648.388383 
L 559.423024 645.097071 
L 559.412893 641.805759 
L 559.542857 641.09294 
L 560.774305 641.805759 
L 560.787398 645.097071 
L 560.795504 648.388383 
L 562.834286 649.465493 
L 563.31608 648.388383 
L 565.913549 645.097071 
L 566.125714 644.914368 
L 567.502113 641.805759 
L 568.793723 638.514448 
L 569.417143 637.297745 
L 570.707157 635.223136 
L 570.995159 631.931825 
L 572.613311 628.640513 
L 572.708571 628.559142 
L 576 626.2147 
L 576 625.349201 
L 576 624.521366 
L 574.348444 622.05789 
L 576 620.202405 
L 576 618.766578 
L 576 615.475267 
L 576 612.748278 
L 575.963892 612.183955 
L 575.899853 608.892644 
L 576 608.500483 
L 576 605.885594 
L 575.232085 608.892644 
L 574.63025 612.183955 
L 572.708571 614.212328 
L 571.8841 615.475267 
L 571.756774 618.766578 
L 570.48269 622.05789 
L 569.417143 623.211601 
L 567.985917 625.349201 
L 567.733683 628.640513 
L 566.125714 630.540229 
L 562.834286 631.382629 
L 562.607277 631.931825 
L 561.958463 635.223136 
L 559.542857 638.060983 
L 559.373023 638.514448 
L 558.777875 641.805759 
L 558.397872 645.097071 
L 556.807074 648.388383 
L 556.251429 648.874306 
L 555.209247 651.679694 
L 554.94843 654.971006 
L 554.047203 658.262317 
L 552.96 659.445912 
L 551.135849 661.553629 
L 550.43996 664.844941 
L 549.668571 667.250943 
L 546.377143 666.02631 
L 545.770589 668.136252 
L 543.085714 669.833604 
L 542.457483 671.427564 
L 542.116705 674.718875 
L 541.055452 678.010187 
L 539.794286 679.19534 
L 538.916817 681.301498 
L 538.722643 684.59281 
L 537.883341 687.884122 
L 536.502857 689.607721 
L 535.316145 691.175433 
L 534.580409 694.466745 
L 533.967391 697.758056 
L 533.211429 699.218407 
L 529.92 700.158635 
L 529.3057 701.049368 
L 526.628571 702.390457 
L 525.956358 704.34068 
L 524.704916 707.631991 
L 523.337143 708.99314 
L 522.549644 710.923303 
L 522.069791 714.214614 
L 520.045714 717.380143 
L 519.968056 717.505926 
L 518.788096 720.797238 
L 518.195267 724.088549 
L 516.754286 725.817158 
L 515.113869 727.379861 
L 514.309038 730.671172 
L 513.474725 733.962484 
L 513.462857 733.974863 
L 510.171429 736.04731 
L 509.729211 737.253795 
L 508.663348 740.545107 
L 506.88 742.471923 
L 506.300697 743.836419 
L 505.748478 747.12773 
L 504.586408 750.419042 
L 503.588571 751.465612 
L 502.398665 753.710353 
L 502.141349 757.001665 
L 500.553632 760.292977 
L 500.297143 760.564452 
L 498.150139 763.584288 
L 497.545422 766.8756 
L 497.005714 768.407567 
L 495.609751 770.166911 
L 493.714286 771.421795 
L 493.079514 773.458223 
L 491.808247 776.749534 
L 490.422857 778.264315 
L 489.688469 780.040846 
L 489.119064 783.332158 
L 487.808868 786.623469 
L 487.131429 787.333462 
L 485.729973 789.914781 
L 485.437872 793.206092 
L 483.84 796.405228 
L 483.775838 796.497404 
L 481.318069 799.788716 
L 480.592731 803.080027 
L 480.548571 803.228 
L 478.629259 806.371339 
L 477.257143 807.233028 
L 476.463633 809.66265 
L 475.179947 812.953962 
L 473.965714 814.422904 
L 473.213001 816.245274 
L 472.594396 819.536585 
L 473.214894 819.536585 
z
M 529.92 688.7457 
L 531.14681 687.884122 
L 529.92 687.269579 
L 529.29827 687.884122 
z
M 529.784348 687.884122 
L 529.92 687.750038 
L 530.187671 687.884122 
L 529.92 688.072104 
z
M 546.377143 655.666074 
L 547.603297 654.971006 
L 546.377143 654.435711 
L 545.841829 654.971006 
z
M 546.33653 654.971006 
L 546.377143 654.930394 
L 546.470169 654.971006 
L 546.377143 655.023739 
z
M 566.125714 616.13219 
L 567.095484 615.475267 
L 566.125714 614.931468 
L 565.574971 615.475267 
z
M 566.066124 615.475267 
L 566.125714 615.416428 
L 566.230643 615.475267 
L 566.125714 615.546346 
z
" clip-path="url(#p4db5bd7e21)" style="fill: #dfecf7; fill-opacity: 0.9"/>
    <path d="M 473.965714 818.668714 
L 476.090798 816.245274 
L 477.257143 813.403014 
L 477.628575 812.953962 
L 479.542239 809.66265 
L 480.548571 809.062917 
L 483.136947 806.371339 
L 483.459461 803.080027 
L 483.647263 799.788716 
L 483.84 799.530265 
L 486.793809 796.497404 
L 487.027192 793.206092 
L 487.131429 790.711136 
L 487.79631 789.914781 
L 490.324491 786.623469 
L 490.422857 783.671407 
L 490.628674 783.332158 
L 493.60646 780.040846 
L 493.714286 779.87313 
L 496.116112 776.749534 
L 496.997297 773.458223 
L 497.005714 773.452767 
L 499.998239 770.166911 
L 500.282357 766.8756 
L 500.297143 766.632988 
L 502.337599 763.584288 
L 503.588571 760.850743 
L 503.926079 760.292977 
L 506.280885 757.001665 
L 506.88 756.200892 
L 508.495981 753.710353 
L 510.171429 751.197146 
L 510.568462 750.419042 
L 512.685426 747.12773 
L 513.462857 745.956515 
L 514.420163 743.836419 
L 516.417524 740.545107 
L 516.754286 740.126981 
L 518.409528 737.253795 
L 520.045714 734.216083 
L 520.23235 733.962484 
L 522.417072 730.671172 
L 523.337143 729.014576 
L 524.471477 727.379861 
L 526.628571 724.255119 
L 526.741757 724.088549 
L 528.779928 720.797238 
L 529.92 719.104739 
L 530.845922 717.505926 
L 533.074737 714.214614 
L 533.211429 713.993248 
L 534.661728 710.923303 
L 536.502857 708.044328 
L 536.791022 707.631991 
L 538.7375 704.34068 
L 539.794286 702.452939 
L 540.979487 701.049368 
L 543.085714 698.106619 
L 543.294264 697.758056 
L 545.042055 694.466745 
L 546.377143 692.477942 
L 547.365704 691.175433 
L 549.394912 687.884122 
L 549.668571 687.298438 
L 551.169753 684.59281 
L 552.96 681.676113 
L 553.143072 681.301498 
L 554.933619 678.010187 
L 556.251429 676.267054 
L 557.170588 674.718875 
L 559.376112 671.427564 
L 559.542857 671.20616 
L 561.411345 668.136252 
L 562.766341 664.844941 
L 562.834286 664.729024 
L 565.364958 661.553629 
L 566.125714 660.23257 
L 567.42388 658.262317 
L 568.907501 654.971006 
L 569.417143 654.110414 
L 571.093788 651.679694 
L 572.708571 648.83043 
L 572.950695 648.388383 
L 574.819738 645.097071 
L 576 643.268545 
L 576 641.805759 
L 576 638.514448 
L 576 635.223136 
L 576 631.931825 
L 576 628.640513 
L 576 626.2147 
L 572.708571 628.559142 
L 572.613311 628.640513 
L 570.995159 631.931825 
L 570.707157 635.223136 
L 569.417143 637.297745 
L 568.793723 638.514448 
L 567.502113 641.805759 
L 566.125714 644.914368 
L 565.913549 645.097071 
L 563.31608 648.388383 
L 562.834286 649.465493 
L 560.795504 648.388383 
L 560.787398 645.097071 
L 560.774305 641.805759 
L 559.542857 641.09294 
L 559.412893 641.805759 
L 559.423024 645.097071 
L 559.465432 648.388383 
L 559.542857 649.480577 
L 560.77945 651.679694 
L 559.542857 652.826831 
L 558.815503 651.679694 
L 556.251429 651.199094 
L 556.072889 651.679694 
L 555.921442 654.971006 
L 555.651428 658.262317 
L 552.96 661.192368 
L 552.647342 661.553629 
L 552.321621 664.844941 
L 551.784617 668.136252 
L 550.663323 671.427564 
L 549.668571 672.860353 
L 546.377143 674.434731 
L 543.706117 671.427564 
L 543.085714 671.312143 
L 543.040223 671.427564 
L 542.998903 674.718875 
L 542.870224 678.010187 
L 539.794286 680.900733 
L 539.627318 681.301498 
L 539.509954 684.59281 
L 539.243852 687.884122 
L 537.008297 691.175433 
L 536.502857 691.624918 
L 535.872906 694.466745 
L 535.538765 697.758056 
L 534.390688 701.049368 
L 533.211429 702.341918 
L 530.998098 704.34068 
L 529.92 706.042438 
L 526.628571 705.191369 
L 526.149892 707.631991 
L 523.337143 710.431116 
L 523.136333 710.923303 
L 522.955467 714.214614 
L 522.164919 717.505926 
L 520.045714 719.635392 
L 519.628717 720.797238 
L 519.349932 724.088549 
L 516.754286 727.2023 
L 516.567895 727.379861 
L 515.79115 730.671172 
L 515.33466 733.962484 
L 513.462857 735.914837 
L 511.138095 737.253795 
L 510.171429 738.926954 
L 509.84379 740.545107 
L 506.88 743.74733 
L 506.842177 743.836419 
L 506.409694 747.12773 
L 505.852535 750.419042 
L 503.588571 752.793576 
L 503.1026 753.710353 
L 502.914248 757.001665 
L 502.084099 760.292977 
L 500.297143 762.184341 
L 499.301827 763.584288 
L 498.913889 766.8756 
L 498.063929 770.166911 
L 497.005714 771.328853 
L 493.720819 773.458223 
L 493.714286 773.469174 
L 493.001526 776.749534 
L 490.422857 779.569042 
L 490.227821 780.040846 
L 489.773903 783.332158 
L 489.06668 786.623469 
L 487.131429 788.651718 
L 486.445683 789.914781 
L 486.232532 793.206092 
L 485.272846 796.497404 
L 483.84 797.968596 
L 482.482666 799.788716 
L 482.026096 803.080027 
L 481.213281 806.371339 
L 480.548571 807.062552 
L 477.257143 809.074752 
L 477.065136 809.66265 
L 476.245644 812.953962 
L 473.965714 815.712152 
L 473.745513 816.245274 
L 473.214894 819.536585 
L 473.835391 819.536585 
z
M 529.92 688.072104 
L 530.187671 687.884122 
L 529.92 687.750038 
L 529.784348 687.884122 
z
M 546.377143 655.023739 
L 546.470169 654.971006 
L 546.377143 654.930394 
L 546.33653 654.971006 
z
M 576 624.521366 
L 576 622.05789 
L 576 620.202405 
L 574.348444 622.05789 
z
M 566.125714 615.546346 
L 566.230643 615.475267 
L 566.125714 615.416428 
L 566.066124 615.475267 
z
M 576 612.748278 
L 576 612.183955 
L 576 608.892644 
L 576 608.500483 
L 575.899853 608.892644 
L 575.963892 612.183955 
z
" clip-path="url(#p4db5bd7e21)" style="fill: #dae8f6; fill-opacity: 0.9"/>
    <path d="M 473.965714 819.536585 
L 477.257143 819.536585 
L 480.548571 819.536585 
L 483.84 819.536585 
L 487.131429 819.536585 
L 488.245938 819.536585 
L 490.091147 816.245274 
L 490.422857 815.615979 
L 491.875812 812.953962 
L 493.594648 809.66265 
L 493.714286 809.450276 
L 495.523813 806.371339 
L 497.005714 803.327329 
L 497.132483 803.080027 
L 498.929334 799.788716 
L 500.297143 797.250308 
L 500.7272 796.497404 
L 502.364403 793.206092 
L 503.588571 790.847346 
L 504.113293 789.914781 
L 505.857156 786.623469 
L 506.88 784.77384 
L 507.770407 783.332158 
L 509.796937 780.040846 
L 510.171429 779.356182 
L 511.669292 776.749534 
L 513.462857 773.656868 
L 513.588721 773.458223 
L 515.644178 770.166911 
L 516.754286 767.882188 
L 517.274507 766.8756 
L 519.280008 763.584288 
L 520.045714 762.223625 
L 521.199055 760.292977 
L 522.837588 757.001665 
L 523.337143 756.113526 
L 524.77034 753.710353 
L 526.628571 750.495033 
L 526.677298 750.419042 
L 529.010209 747.12773 
L 529.92 745.626679 
L 531.058426 743.836419 
L 533.022762 740.545107 
L 533.211429 740.27637 
L 535.373003 737.253795 
L 536.502857 735.058892 
L 537.284387 733.962484 
L 539.794286 730.722036 
L 539.826366 730.671172 
L 541.404607 727.379861 
L 543.085714 724.579878 
L 543.401448 724.088549 
L 545.274365 720.797238 
L 546.377143 718.815854 
L 547.225383 717.505926 
L 549.668571 714.356077 
L 549.784181 714.214614 
L 551.989323 710.923303 
L 552.96 709.184162 
L 553.904472 707.631991 
L 556.251429 704.51515 
L 556.391235 704.34068 
L 558.493665 701.049368 
L 559.542857 698.774774 
L 560.069476 697.758056 
L 562.284682 694.466745 
L 562.834286 693.523269 
L 564.271749 691.175433 
L 565.878334 687.884122 
L 566.125714 687.472448 
L 568.144686 684.59281 
L 569.417143 682.702163 
L 570.404882 681.301498 
L 572.485945 678.010187 
L 572.708571 677.729764 
L 575.146472 674.718875 
L 576 673.168618 
L 576 671.427564 
L 576 668.136252 
L 576 664.844941 
L 576 661.553629 
L 576 658.262317 
L 576 654.971006 
L 576 651.679694 
L 576 648.388383 
L 576 645.097071 
L 576 643.268545 
L 574.819738 645.097071 
L 572.950695 648.388383 
L 572.708571 648.83043 
L 571.093788 651.679694 
L 569.417143 654.110414 
L 568.907501 654.971006 
L 567.42388 658.262317 
L 566.125714 660.23257 
L 565.364958 661.553629 
L 562.834286 664.729024 
L 562.766341 664.844941 
L 561.411345 668.136252 
L 559.542857 671.20616 
L 559.376112 671.427564 
L 557.170588 674.718875 
L 556.251429 676.267054 
L 554.933619 678.010187 
L 553.143072 681.301498 
L 552.96 681.676113 
L 551.169753 684.59281 
L 549.668571 687.298438 
L 549.394912 687.884122 
L 547.365704 691.175433 
L 546.377143 692.477942 
L 545.042055 694.466745 
L 543.294264 697.758056 
L 543.085714 698.106619 
L 540.979487 701.049368 
L 539.794286 702.452939 
L 538.7375 704.34068 
L 536.791022 707.631991 
L 536.502857 708.044328 
L 534.661728 710.923303 
L 533.211429 713.993248 
L 533.074737 714.214614 
L 530.845922 717.505926 
L 529.92 719.104739 
L 528.779928 720.797238 
L 526.741757 724.088549 
L 526.628571 724.255119 
L 524.471477 727.379861 
L 523.337143 729.014576 
L 522.417072 730.671172 
L 520.23235 733.962484 
L 520.045714 734.216083 
L 518.409528 737.253795 
L 516.754286 740.126981 
L 516.417524 740.545107 
L 514.420163 743.836419 
L 513.462857 745.956515 
L 512.685426 747.12773 
L 510.568462 750.419042 
L 510.171429 751.197146 
L 508.495981 753.710353 
L 506.88 756.200892 
L 506.280885 757.001665 
L 503.926079 760.292977 
L 503.588571 760.850743 
L 502.337599 763.584288 
L 500.297143 766.632988 
L 500.282357 766.8756 
L 499.998239 770.166911 
L 497.005714 773.452767 
L 496.997297 773.458223 
L 496.116112 776.749534 
L 493.714286 779.87313 
L 493.60646 780.040846 
L 490.628674 783.332158 
L 490.422857 783.671407 
L 490.324491 786.623469 
L 487.79631 789.914781 
L 487.131429 790.711136 
L 487.027192 793.206092 
L 486.793809 796.497404 
L 483.84 799.530265 
L 483.647263 799.788716 
L 483.459461 803.080027 
L 483.136947 806.371339 
L 480.548571 809.062917 
L 479.542239 809.66265 
L 477.628575 812.953962 
L 477.257143 813.403014 
L 476.090798 816.245274 
L 473.965714 818.668714 
L 473.835391 819.536585 
z
" clip-path="url(#p4db5bd7e21)" style="fill: #d6e5f4; fill-opacity: 0.9"/>
    <path d="M 490.422857 819.536585 
L 493.714286 819.536585 
L 497.005714 819.536585 
L 500.297143 819.536585 
L 503.588571 819.536585 
L 506.88 819.536585 
L 510.171429 819.536585 
L 513.462857 819.536585 
L 516.754286 819.536585 
L 520.045714 819.536585 
L 520.426623 819.536585 
L 523.337143 816.375331 
L 523.471842 816.245274 
L 523.971009 812.953962 
L 524.232208 809.66265 
L 526.628571 807.338634 
L 528.777498 806.371339 
L 529.92 804.712523 
L 530.178611 803.080027 
L 531.853687 799.788716 
L 533.211429 798.860004 
L 533.910969 796.497404 
L 534.60589 793.206092 
L 536.502857 790.49284 
L 536.860086 789.914781 
L 537.777567 786.623469 
L 538.79888 783.332158 
L 539.794286 781.70468 
L 541.162944 780.040846 
L 542.085059 776.749534 
L 542.906549 773.458223 
L 543.085714 773.090037 
L 546.377143 771.219904 
L 547.298532 770.166911 
L 549.668571 768.092626 
L 550.069318 766.8756 
L 552.106772 763.584288 
L 552.96 762.155097 
L 553.244443 760.292977 
L 553.944891 757.001665 
L 555.735543 753.710353 
L 556.251429 752.833185 
L 556.955077 750.419042 
L 557.622776 747.12773 
L 559.172777 743.836419 
L 559.542857 743.149074 
L 561.358003 740.545107 
L 562.425688 737.253795 
L 562.834286 735.762234 
L 565.680611 737.253795 
L 566.125714 737.496952 
L 569.417143 737.346952 
L 569.45343 737.253795 
L 572.10406 733.962484 
L 572.708571 732.928547 
L 573.025692 730.671172 
L 573.835468 727.379861 
L 576 724.251956 
L 576 724.088549 
L 576 720.797238 
L 576 717.505926 
L 576 714.214614 
L 576 710.923303 
L 576 707.631991 
L 576 704.34068 
L 576 701.049368 
L 576 697.758056 
L 576 694.466745 
L 576 691.175433 
L 576 687.884122 
L 576 684.59281 
L 576 681.301498 
L 576 678.010187 
L 576 674.718875 
L 576 673.168618 
L 575.146472 674.718875 
L 572.708571 677.729764 
L 572.485945 678.010187 
L 570.404882 681.301498 
L 569.417143 682.702163 
L 568.144686 684.59281 
L 566.125714 687.472448 
L 565.878334 687.884122 
L 564.271749 691.175433 
L 562.834286 693.523269 
L 562.284682 694.466745 
L 560.069476 697.758056 
L 559.542857 698.774774 
L 558.493665 701.049368 
L 556.391235 704.34068 
L 556.251429 704.51515 
L 553.904472 707.631991 
L 552.96 709.184162 
L 551.989323 710.923303 
L 549.784181 714.214614 
L 549.668571 714.356077 
L 547.225383 717.505926 
L 546.377143 718.815854 
L 545.274365 720.797238 
L 543.401448 724.088549 
L 543.085714 724.579878 
L 541.404607 727.379861 
L 539.826366 730.671172 
L 539.794286 730.722036 
L 537.284387 733.962484 
L 536.502857 735.058892 
L 535.373003 737.253795 
L 533.211429 740.27637 
L 533.022762 740.545107 
L 531.058426 743.836419 
L 529.92 745.626679 
L 529.010209 747.12773 
L 526.677298 750.419042 
L 526.628571 750.495033 
L 524.77034 753.710353 
L 523.337143 756.113526 
L 522.837588 757.001665 
L 521.199055 760.292977 
L 520.045714 762.223625 
L 519.280008 763.584288 
L 517.274507 766.8756 
L 516.754286 767.882188 
L 515.644178 770.166911 
L 513.588721 773.458223 
L 513.462857 773.656868 
L 511.669292 776.749534 
L 510.171429 779.356182 
L 509.796937 780.040846 
L 507.770407 783.332158 
L 506.88 784.77384 
L 505.857156 786.623469 
L 504.113293 789.914781 
L 503.588571 790.847346 
L 502.364403 793.206092 
L 500.7272 796.497404 
L 500.297143 797.250308 
L 498.929334 799.788716 
L 497.132483 803.080027 
L 497.005714 803.327329 
L 495.523813 806.371339 
L 493.714286 809.450276 
L 493.594648 809.66265 
L 491.875812 812.953962 
L 490.422857 815.615979 
L 490.091147 816.245274 
L 488.245938 819.536585 
z
" clip-path="url(#p4db5bd7e21)" style="fill: #d0e2f2; fill-opacity: 0.9"/>
    <path d="M 523.337143 819.536585 
L 526.628571 819.536585 
L 529.92 819.536585 
L 532.220262 819.536585 
L 533.002819 816.245274 
L 533.211429 815.860405 
L 535.355106 812.953962 
L 535.815713 809.66265 
L 536.502857 807.01059 
L 537.343394 806.371339 
L 539.794286 803.639845 
L 540.324851 803.080027 
L 542.402167 799.788716 
L 543.085714 799.486642 
L 545.682699 796.497404 
L 545.803207 793.206092 
L 546.377143 792.001828 
L 548.589695 789.914781 
L 549.318003 786.623469 
L 549.359296 783.332158 
L 549.668571 782.671204 
L 552.393297 780.040846 
L 552.69204 776.749534 
L 552.956896 773.458223 
L 552.96 773.450993 
L 556.131018 770.166911 
L 556.251429 769.655694 
L 556.910182 770.166911 
L 559.542857 772.310011 
L 561.483791 773.458223 
L 562.834286 775.029789 
L 564.47552 773.458223 
L 565.568838 770.166911 
L 565.808753 766.8756 
L 566.125714 766.607746 
L 569.17788 763.584288 
L 569.283089 760.292977 
L 569.313658 757.001665 
L 569.417143 756.72529 
L 572.544832 753.710353 
L 572.639353 750.419042 
L 572.659824 747.12773 
L 572.708571 746.835876 
L 575.984702 743.836419 
L 575.982191 740.545107 
L 576 739.36307 
L 576 737.253795 
L 576 733.962484 
L 576 730.671172 
L 576 727.379861 
L 576 724.251956 
L 573.835468 727.379861 
L 573.025692 730.671172 
L 572.708571 732.928547 
L 572.10406 733.962484 
L 569.45343 737.253795 
L 569.417143 737.346952 
L 566.125714 737.496952 
L 565.680611 737.253795 
L 562.834286 735.762234 
L 562.425688 737.253795 
L 561.358003 740.545107 
L 559.542857 743.149074 
L 559.172777 743.836419 
L 557.622776 747.12773 
L 556.955077 750.419042 
L 556.251429 752.833185 
L 555.735543 753.710353 
L 553.944891 757.001665 
L 553.244443 760.292977 
L 552.96 762.155097 
L 552.106772 763.584288 
L 550.069318 766.8756 
L 549.668571 768.092626 
L 547.298532 770.166911 
L 546.377143 771.219904 
L 543.085714 773.090037 
L 542.906549 773.458223 
L 542.085059 776.749534 
L 541.162944 780.040846 
L 539.794286 781.70468 
L 538.79888 783.332158 
L 537.777567 786.623469 
L 536.860086 789.914781 
L 536.502857 790.49284 
L 534.60589 793.206092 
L 533.910969 796.497404 
L 533.211429 798.860004 
L 531.853687 799.788716 
L 530.178611 803.080027 
L 529.92 804.712523 
L 528.777498 806.371339 
L 526.628571 807.338634 
L 524.232208 809.66265 
L 523.971009 812.953962 
L 523.471842 816.245274 
L 523.337143 816.375331 
L 520.426623 819.536585 
z
M 572.708571 807.794784 
L 573.322389 806.371339 
L 572.708571 804.526303 
L 571.261868 806.371339 
z
M 576 801.943291 
L 576 799.788716 
L 576 796.497404 
L 576 793.206092 
L 576 791.968004 
L 575.488251 793.206092 
L 573.90952 796.497404 
L 574.206551 799.788716 
z
" clip-path="url(#p4db5bd7e21)" style="fill: #cbdef1; fill-opacity: 0.9"/>
    <path d="M 533.211429 819.536585 
L 536.502857 819.536585 
L 539.794286 819.536585 
L 543.085714 819.536585 
L 546.377143 819.536585 
L 549.668571 819.536585 
L 552.96 819.536585 
L 556.251429 819.536585 
L 559.542857 819.536585 
L 562.834286 819.536585 
L 566.125714 819.536585 
L 569.417143 819.536585 
L 572.708571 819.536585 
L 576 819.536585 
L 576 816.245274 
L 576 812.953962 
L 576 809.66265 
L 576 806.371339 
L 576 803.080027 
L 576 801.943291 
L 574.206551 799.788716 
L 573.90952 796.497404 
L 575.488251 793.206092 
L 576 791.968004 
L 576 789.914781 
L 576 786.623469 
L 576 783.332158 
L 576 780.040846 
L 576 776.749534 
L 576 773.458223 
L 576 770.166911 
L 576 766.8756 
L 576 763.584288 
L 576 760.292977 
L 576 757.001665 
L 576 753.710353 
L 576 750.419042 
L 576 747.12773 
L 576 743.836419 
L 576 740.545107 
L 576 739.36307 
L 575.982191 740.545107 
L 575.984702 743.836419 
L 572.708571 746.835876 
L 572.659824 747.12773 
L 572.639353 750.419042 
L 572.544832 753.710353 
L 569.417143 756.72529 
L 569.313658 757.001665 
L 569.283089 760.292977 
L 569.17788 763.584288 
L 566.125714 766.607746 
L 565.808753 766.8756 
L 565.568838 770.166911 
L 564.47552 773.458223 
L 562.834286 775.029789 
L 561.483791 773.458223 
L 559.542857 772.310011 
L 556.910182 770.166911 
L 556.251429 769.655694 
L 556.131018 770.166911 
L 552.96 773.450993 
L 552.956896 773.458223 
L 552.69204 776.749534 
L 552.393297 780.040846 
L 549.668571 782.671204 
L 549.359296 783.332158 
L 549.318003 786.623469 
L 548.589695 789.914781 
L 546.377143 792.001828 
L 545.803207 793.206092 
L 545.682699 796.497404 
L 543.085714 799.486642 
L 542.402167 799.788716 
L 540.324851 803.080027 
L 539.794286 803.639845 
L 537.343394 806.371339 
L 536.502857 807.01059 
L 535.815713 809.66265 
L 535.355106 812.953962 
L 533.211429 815.860405 
L 533.002819 816.245274 
L 532.220262 819.536585 
z
M 571.261868 806.371339 
L 572.708571 804.526303 
L 573.322389 806.371339 
L 572.708571 807.794784 
z
" clip-path="url(#p4db5bd7e21)" style="fill: #c6dbef; fill-opacity: 0.9"/>
    <path clip-path="url(#p4db5bd7e21)" style="fill: #bed8ec; fill-opacity: 0.9"/>
    <path clip-path="url(#p4db5bd7e21)" style="fill: #b5d4e9; fill-opacity: 0.9"/>
    <path clip-path="url(#p4db5bd7e21)" style="fill: #add0e6; fill-opacity: 0.9"/>
    <path clip-path="url(#p4db5bd7e21)" style="fill: #a5cde3; fill-opacity: 0.9"/>
    <path clip-path="url(#p4db5bd7e21)" style="fill: #9cc9e1; fill-opacity: 0.9"/>
    <path clip-path="url(#p4db5bd7e21)" style="fill: #91c3de; fill-opacity: 0.9"/>
    <path clip-path="url(#p4db5bd7e21)" style="fill: #85bcdc; fill-opacity: 0.9"/>
    <path clip-path="url(#p4db5bd7e21)" style="fill: #7cb7da; fill-opacity: 0.9"/>
    <path clip-path="url(#p4db5bd7e21)" style="fill: #71b1d7; fill-opacity: 0.9"/>
    <path clip-path="url(#p4db5bd7e21)" style="fill: #66abd4; fill-opacity: 0.9"/>
    <path clip-path="url(#p4db5bd7e21)" style="fill: #5da5d1; fill-opacity: 0.9"/>
    <path clip-path="url(#p4db5bd7e21)" style="fill: #56a0ce; fill-opacity: 0.9"/>
    <path clip-path="url(#p4db5bd7e21)" style="fill: #4d99ca; fill-opacity: 0.9"/>
    <path clip-path="url(#p4db5bd7e21)" style="fill: #4493c7; fill-opacity: 0.9"/>
    <path clip-path="url(#p4db5bd7e21)" style="fill: #3c8cc3; fill-opacity: 0.9"/>
    <path clip-path="url(#p4db5bd7e21)" style="fill: #3686c0; fill-opacity: 0.9"/>
    <path clip-path="url(#p4db5bd7e21)" style="fill: #2f7fbc; fill-opacity: 0.9"/>
    <path clip-path="url(#p4db5bd7e21)" style="fill: #2777b8; fill-opacity: 0.9"/>
    <path clip-path="url(#p4db5bd7e21)" style="fill: #2070b4; fill-opacity: 0.9"/>
    <path clip-path="url(#p4db5bd7e21)" style="fill: #1c6ab0; fill-opacity: 0.9"/>
    <path clip-path="url(#p4db5bd7e21)" style="fill: #1663aa; fill-opacity: 0.9"/>
    <path clip-path="url(#p4db5bd7e21)" style="fill: #115ca5; fill-opacity: 0.9"/>
    <path clip-path="url(#p4db5bd7e21)" style="fill: #0c56a0; fill-opacity: 0.9"/>
    <path clip-path="url(#p4db5bd7e21)" style="fill: #084f99; fill-opacity: 0.9"/>
    <path clip-path="url(#p4db5bd7e21)" style="fill: #08488e; fill-opacity: 0.9"/>
    <path clip-path="url(#p4db5bd7e21)" style="fill: #084184; fill-opacity: 0.9"/>
    <path clip-path="url(#p4db5bd7e21)" style="fill: #083a7a; fill-opacity: 0.9"/>
    <path clip-path="url(#p4db5bd7e21)" style="fill: #083370; fill-opacity: 0.9"/>
    <path clip-path="url(#p4db5bd7e21)" style="fill: #08306b; fill-opacity: 0.9"/>
   </g>
   <g id="QuadContourSet_2">
    <path d="M 576 600.123614 
L 574.411681 602.31002 
L 573.187429 605.601332 
L 572.708571 608.069438 
L 572.323015 608.892644 
L 570.024976 612.183955 
L 569.417143 613.190607 
L 566.125714 612.991628 
L 563.610361 615.475267 
L 566.125714 618.475565 
L 566.911533 618.766578 
L 566.125714 619.348002 
L 564.169433 622.05789 
L 563.238946 625.349201 
L 562.834286 625.833608 
L 560.850186 628.640513 
L 559.777036 631.931825 
L 559.542857 632.334398 
L 557.566419 635.223136 
L 556.756932 638.514448 
L 556.251429 641.716851 
L 556.207329 641.805759 
L 553.243847 645.097071 
L 552.96 645.6431 
L 551.761779 648.388383 
L 549.910855 651.679694 
L 549.668571 651.8392 
L 546.377143 652.456978 
L 543.863026 654.971006 
L 546.377143 658.235412 
L 546.429688 658.262317 
L 546.377143 658.311121 
L 545.448212 659.742923 
M 537.10605 676.788549 
L 536.502857 677.867877 
L 536.360542 678.010187 
L 535.590628 681.301498 
L 533.211429 684.046693 
L 532.665292 684.59281 
L 529.92 685.347744 
L 527.353955 687.884122 
L 529.234046 691.175433 
L 527.696266 694.466745 
L 526.628571 696.965677 
L 525.836164 697.758056 
L 524.342834 701.049368 
L 523.337143 703.450208 
L 522.446639 704.34068 
L 521.126254 707.631991 
L 520.202888 710.923303 
L 520.045714 711.368052 
L 518.285904 714.214614 
L 516.754286 717.046588 
L 516.294932 717.505926 
L 515.061299 720.797238 
L 513.506064 724.088549 
L 513.462857 724.130079 
L 511.42763 727.379861 
L 510.448558 730.671172 
L 510.171429 731.007718 
L 508.162957 733.962484 
L 507.248357 737.253795 
L 506.88 737.887809 
L 504.955503 740.545107 
L 504.134778 743.836419 
L 503.588571 745.742122 
L 502.623533 747.12773 
L 501.37071 750.419042 
L 500.297143 752.410649 
L 499.097036 753.710353 
L 498.726442 757.001665 
L 497.005714 759.170437 
L 495.73993 760.292977 
L 494.792459 763.584288 
L 493.714286 766.21302 
L 493.051682 766.8756 
L 491.416834 770.166911 
L 490.535355 773.458223 
L 490.422857 773.651249 
L 488.251516 776.749534 
L 487.531058 780.040846 
L 487.131429 781.470616 
L 485.824319 783.332158 
L 484.768575 786.623469 
L 483.84 788.269725 
L 482.255595 789.914781 
L 481.944248 793.206092 
L 480.548571 795.096031 
L 479.117712 796.497404 
L 478.235321 799.788716 
L 477.257143 802.262609 
L 476.439695 803.080027 
L 474.905734 806.371339 
L 474.05762 809.66265 
L 473.965714 809.829534 
L 471.762043 812.953962 
L 471.082954 816.245274 
L 470.674286 817.755089 
L 469.388242 819.536585 
" clip-path="url(#p4db5bd7e21)" style="fill: none"/>
    <path d="M 576 601.531301 
L 575.434298 602.31002 
L 573.910215 605.601332 
L 573.22878 608.892644 
L 572.708571 609.989268 
L 571.073635 612.183955 
L 569.417143 614.927324 
L 566.125714 613.476588 
L 564.101513 615.475267 
L 566.125714 617.889721 
L 568.49348 618.766578 
L 566.125714 620.518476 
L 565.014404 622.05789 
L 564.216731 625.349201 
L 562.834286 627.004082 
L 561.677552 628.640513 
L 560.484597 631.931825 
L 559.542857 633.550753 
L 558.398634 635.223136 
L 557.410955 638.514448 
L 556.87282 641.805759 
L 556.251429 643.514562 
L 554.82162 645.097071 
L 553.06889 648.388383 
L 552.96 649.028348 
L 552.095645 651.679694 
L 549.668571 653.277545 
L 546.377143 652.951661 
L 544.357727 654.971006 
L 546.377143 657.593077 
L 547.684132 658.262317 
L 546.377143 659.476234 
L 545.029361 661.553629 
L 543.922297 664.844941 
L 543.085714 665.978454 
L 541.707609 668.136252 
L 540.709262 671.427564 
L 539.794286 674.094679 
L 539.382721 674.718875 
L 537.448331 678.010187 
L 536.785312 681.301498 
L 536.502857 683.564873 
L 535.818195 684.59281 
L 533.211429 686.066904 
L 529.92 685.828203 
L 527.840034 687.884122 
L 529.92 690.766486 
L 530.93421 691.175433 
L 529.92 691.911354 
L 528.411726 694.466745 
L 527.178915 697.758056 
L 526.628571 698.352146 
L 525.016747 701.049368 
L 523.676466 704.34068 
L 523.337143 704.928524 
L 521.850322 707.631991 
L 520.789577 710.923303 
L 520.045714 713.02819 
L 519.31224 714.214614 
L 517.402479 717.505926 
L 516.754286 719.369641 
L 516.132412 720.797238 
L 514.686362 724.088549 
L 513.462857 725.264572 
L 512.138124 727.379861 
L 511.327601 730.671172 
L 510.171429 732.075226 
L 508.888585 733.962484 
L 507.86857 737.253795 
L 506.88 738.955317 
L 505.728625 740.545107 
L 504.676258 743.836419 
L 503.76483 747.12773 
L 503.588571 747.481722 
L 502.061224 750.419042 
L 500.297143 753.691643 
L 500.279866 753.710353 
L 499.699668 757.001665 
L 497.10146 760.292977 
L 497.005714 760.426542 
L 495.528663 763.584288 
L 494.355864 766.8756 
L 493.714286 767.564083 
L 492.095548 770.166911 
L 491.171395 773.458223 
L 490.422857 774.742577 
L 489.016341 776.749534 
L 488.070411 780.040846 
L 487.154546 783.332158 
L 487.131429 783.378696 
L 485.451202 786.623469 
L 484.616108 788.103993 
M 476.331358 805.145804 
L 475.571454 806.371339 
L 474.659123 809.66265 
L 473.965714 810.921754 
L 472.53239 812.953962 
L 471.615466 816.245274 
L 470.732904 819.536585 
" clip-path="url(#p4db5bd7e21)" style="fill: none"/>
    <path d="M 576 602.938987 
L 574.633001 605.601332 
L 573.896549 608.892644 
L 572.708571 611.396955 
L 572.122294 612.183955 
L 570.04617 615.475267 
L 569.820092 618.766578 
L 569.417143 619.457913 
L 566.125714 621.68895 
L 565.859375 622.05789 
L 565.194516 625.349201 
L 562.834286 628.174556 
L 562.504918 628.640513 
L 561.192157 631.931825 
L 559.542857 634.767108 
L 559.230848 635.223136 
L 558.064978 638.514448 
L 557.507839 641.805759 
L 556.347567 645.097071 
L 556.251429 645.260837 
L 554.209184 648.388383 
L 553.481964 651.679694 
L 553.002404 654.971006 
L 552.96 655.07602 
L 552.310793 654.971006 
L 549.668571 654.71589 
L 546.377143 653.446345 
L 544.852427 654.971006 
L 546.377143 656.950743 
L 548.938575 658.262317 
L 546.377143 660.641347 
L 545.785268 661.553629 
L 544.782202 664.844941 
L 543.085714 667.143567 
L 542.451724 668.136252 
L 541.292003 671.427564 
L 540.352308 674.718875 
L 539.794286 675.79334 
L 538.466074 678.010187 
L 537.495814 681.301498 
L 537.14802 684.59281 
L 536.502857 686.087222 
L 533.652756 687.884122 
L 533.211429 688.857824 
L 533.06509 687.884122 
L 529.92 686.308662 
L 528.326112 687.884122 
L 529.92 690.092891 
L 532.60476 691.175433 
L 529.92 693.123522 
L 529.127187 694.466745 
L 528.223598 697.758056 
L 528.040409 697.955807 
M 519.722225 715.13381 
L 518.257671 717.505926 
L 517.106854 720.797238 
L 516.754286 721.975626 
L 515.866661 724.088549 
L 513.462857 726.399065 
L 512.848618 727.379861 
L 512.206643 730.671172 
L 510.171429 733.142734 
L 509.614212 733.962484 
L 508.488784 737.253795 
L 506.88 740.022825 
L 506.501747 740.545107 
L 505.217738 743.836419 
L 504.426046 747.12773 
L 503.588571 748.809685 
L 502.751738 750.419042 
L 500.990796 753.710353 
L 500.59555 757.001665 
L 500.297143 757.574456 
L 498.229716 760.292977 
L 497.005714 762.000452 
L 496.264867 763.584288 
L 495.372842 766.8756 
L 493.714286 768.655411 
L 492.774261 770.166911 
L 491.807435 773.458223 
L 490.422857 775.833905 
L 489.781165 776.749534 
L 488.609763 780.040846 
L 487.809385 783.332158 
L 487.131429 784.696951 
L 486.133828 786.623469 
L 484.298552 789.914781 
L 483.848552 793.206092 
L 483.84 793.223214 
L 481.560894 796.497404 
L 480.548571 797.832548 
L 479.620809 799.788716 
L 478.698118 803.080027 
L 477.257143 804.726386 
L 476.237174 806.371339 
L 475.260626 809.66265 
L 473.965714 812.013975 
L 473.302738 812.953962 
L 472.147978 816.245274 
L 471.353401 819.536585 
M 566.125714 617.303877 
L 568.825164 615.475267 
L 566.125714 613.961548 
L 564.592666 615.475267 
L 566.125714 617.303877 
z
" clip-path="url(#p4db5bd7e21)" style="fill: none"/>
    <path d="M 576 604.346674 
L 575.355787 605.601332 
L 574.564317 608.892644 
L 573.296609 612.183955 
L 572.708571 612.804641 
L 570.965135 615.475267 
L 570.788433 618.766578 
L 569.417143 621.119286 
L 567.929236 622.05789 
L 566.210313 625.349201 
L 566.125714 625.933518 
L 565.242567 628.640513 
L 562.834286 629.670847 
L 561.899717 631.931825 
L 560.472015 635.223136 
L 559.542857 636.314708 
L 558.719001 638.514448 
L 558.142857 641.805759 
L 557.372719 645.097071 
L 556.251429 647.007111 
L 555.349477 648.388383 
L 554.345606 651.679694 
L 553.975417 654.971006 
L 552.96 657.485705 
L 551.5272 658.262317 
L 549.668571 661.338392 
L 549.277576 661.553629 
L 546.377143 662.220008 
L 545.642106 664.844941 
L 543.431833 668.136252 
L 543.085714 668.355065 
L 541.874743 671.427564 
L 541.234506 674.718875 
L 539.794286 677.492001 
L 539.483818 678.010187 
L 538.206315 681.301498 
L 537.935332 684.59281 
L 536.522831 687.884122 
L 536.502857 687.90906 
L 534.030308 691.175433 
L 533.287913 694.466745 
L 533.211429 694.803655 
L 532.047164 694.466745 
L 529.92 694.33569 
L 529.842647 694.466745 
L 529.268281 697.758056 
L 526.628571 700.607592 
L 526.364572 701.049368 
L 525.196394 704.34068 
L 523.337143 707.56165 
L 523.298457 707.631991 
L 521.962955 710.923303 
L 521.184115 714.214614 
L 520.045714 715.995001 
L 519.112863 717.505926 
L 517.947475 720.797238 
L 517.040603 724.088549 
L 516.754286 724.432016 
L 513.659844 727.379861 
L 513.462857 728.169688 
L 513.085685 730.671172 
L 510.794667 733.962484 
L 510.171429 734.355205 
L 509.108997 737.253795 
L 507.482906 740.545107 
L 506.88 741.196517 
L 505.759218 743.836419 
L 505.087262 747.12773 
L 503.588571 750.137649 
L 503.442253 750.419042 
L 501.694731 753.710353 
L 501.368449 757.001665 
L 500.297143 759.058032 
L 499.357971 760.292977 
L 497.005714 763.574363 
L 497.001072 763.584288 
L 496.38982 766.8756 
L 493.714286 769.746738 
L 493.452974 770.166911 
L 492.443475 773.458223 
L 490.614968 776.749534 
L 490.422857 776.959588 
L 489.149116 780.040846 
L 488.464225 783.332158 
L 487.131429 786.015207 
L 486.816455 786.623469 
L 485.014262 789.914781 
L 484.643212 793.206092 
L 483.84 794.814221 
L 482.668366 796.497404 
L 480.548571 799.293183 
L 480.313552 799.788716 
L 480.01793 801.228612 
M 472.196315 818.500566 
L 471.973899 819.536585 
M 529.92 689.419295 
L 532.10595 687.884122 
L 529.92 686.789121 
L 528.812191 687.884122 
L 529.92 689.419295 
z
M 546.377143 656.308408 
L 548.736424 654.971006 
L 546.377143 653.941028 
L 545.347128 654.971006 
L 546.377143 656.308408 
z
M 566.125714 616.718034 
L 567.960324 615.475267 
L 566.125714 614.446508 
L 565.083819 615.475267 
L 566.125714 616.718034 
z
" clip-path="url(#p4db5bd7e21)" style="fill: none"/>
    <path d="M 576 605.885594 
L 575.232085 608.892644 
L 574.63025 612.183955 
L 572.708571 614.212328 
L 571.8841 615.475267 
L 571.756774 618.766578 
L 570.48269 622.05789 
L 569.417143 623.211601 
L 567.985917 625.349201 
L 567.733683 628.640513 
L 566.125714 630.540229 
L 562.834286 631.382629 
L 562.607277 631.931825 
L 561.958463 635.223136 
L 559.542857 638.060983 
L 559.373023 638.514448 
L 558.777875 641.805759 
L 558.397872 645.097071 
L 556.807074 648.388383 
L 556.251429 648.874306 
L 555.209247 651.679694 
L 554.94843 654.971006 
L 554.047203 658.262317 
L 552.96 659.445912 
L 551.135849 661.553629 
L 550.43996 664.844941 
L 549.668571 667.250943 
L 546.377143 666.02631 
L 545.770589 668.136252 
L 543.085714 669.833604 
L 542.457483 671.427564 
L 542.116705 674.718875 
L 541.055452 678.010187 
L 539.794286 679.19534 
L 538.916817 681.301498 
L 538.722643 684.59281 
L 537.883341 687.884122 
L 536.502857 689.607721 
L 535.316145 691.175433 
L 534.580409 694.466745 
L 533.967391 697.758056 
L 533.211429 699.218407 
L 529.92 700.158635 
L 529.3057 701.049368 
L 526.628571 702.390457 
L 525.956358 704.34068 
L 524.704916 707.631991 
L 523.337143 708.99314 
L 522.549644 710.923303 
L 522.069791 714.214614 
L 520.045714 717.380143 
L 519.968056 717.505926 
L 518.788096 720.797238 
L 518.195267 724.088549 
L 516.754286 725.817158 
L 515.113869 727.379861 
L 514.309038 730.671172 
L 513.474725 733.962484 
L 513.462857 733.974863 
L 510.171429 736.04731 
L 509.729211 737.253795 
L 508.663348 740.545107 
L 507.73987 741.542877 
M 501.14839 759.060052 
L 500.553632 760.292977 
L 500.297143 760.564452 
L 498.150139 763.584288 
L 497.545422 766.8756 
L 497.005714 768.407567 
L 495.609751 770.166911 
L 493.714286 771.421795 
L 493.079514 773.458223 
L 491.808247 776.749534 
L 490.422857 778.264315 
L 489.688469 780.040846 
L 489.119064 783.332158 
L 487.808868 786.623469 
L 487.131429 787.333462 
L 485.729973 789.914781 
L 485.437872 793.206092 
L 483.84 796.405228 
L 483.775838 796.497404 
L 481.318069 799.788716 
L 480.592731 803.080027 
L 480.548571 803.228 
L 478.629259 806.371339 
L 477.257143 807.233028 
L 476.463633 809.66265 
L 475.179947 812.953962 
L 473.965714 814.422904 
L 473.213001 816.245274 
L 472.594396 819.536585 
M 529.92 688.7457 
L 531.14681 687.884122 
L 529.92 687.269579 
L 529.29827 687.884122 
L 529.92 688.7457 
z
M 546.377143 655.666074 
L 547.603297 654.971006 
L 546.377143 654.435711 
L 545.841829 654.971006 
L 546.377143 655.666074 
z
M 566.125714 616.13219 
L 567.095484 615.475267 
L 566.125714 614.931468 
L 565.574971 615.475267 
L 566.125714 616.13219 
z
" clip-path="url(#p4db5bd7e21)" style="fill: none"/>
    <path d="M 576 626.2147 
L 572.708571 628.559142 
L 572.613311 628.640513 
L 570.995159 631.931825 
L 570.707157 635.223136 
L 569.417143 637.297745 
L 568.793723 638.514448 
L 567.502113 641.805759 
L 566.125714 644.914368 
L 565.913549 645.097071 
L 563.31608 648.388383 
L 562.834286 649.465493 
L 560.795504 648.388383 
L 560.787398 645.097071 
L 560.774305 641.805759 
L 559.542857 641.09294 
L 559.412893 641.805759 
L 559.423024 645.097071 
L 559.465432 648.388383 
L 559.542857 649.480577 
L 560.77945 651.679694 
L 559.542857 652.826831 
L 558.815503 651.679694 
L 556.251429 651.199094 
L 556.072889 651.679694 
L 555.921442 654.971006 
L 555.651428 658.262317 
L 552.96 661.192368 
L 552.647342 661.553629 
L 552.321621 664.844941 
L 551.784617 668.136252 
L 550.663323 671.427564 
L 549.668571 672.860353 
L 546.377143 674.434731 
L 543.706117 671.427564 
L 543.085714 671.312143 
L 543.040223 671.427564 
L 542.998903 674.718875 
L 542.870224 678.010187 
L 539.794286 680.900733 
L 539.627318 681.301498 
L 539.509954 684.59281 
L 539.243852 687.884122 
L 537.008297 691.175433 
L 536.502857 691.624918 
L 535.872906 694.466745 
L 535.538765 697.758056 
L 534.390688 701.049368 
L 533.211429 702.341918 
L 530.998098 704.34068 
L 529.92 706.042438 
L 526.628571 705.191369 
L 526.149892 707.631991 
L 523.337143 710.431116 
L 523.136333 710.923303 
L 522.955467 714.214614 
L 522.164919 717.505926 
L 520.045714 719.635392 
L 519.628717 720.797238 
L 519.349932 724.088549 
L 516.754286 727.2023 
L 516.567895 727.379861 
L 515.986824 729.84204 
M 506.643616 745.34752 
L 506.409694 747.12773 
L 505.852535 750.419042 
L 503.588571 752.793576 
L 503.1026 753.710353 
L 502.914248 757.001665 
L 502.084099 760.292977 
L 500.297143 762.184341 
L 499.301827 763.584288 
L 498.913889 766.8756 
L 498.063929 770.166911 
L 497.005714 771.328853 
L 493.720819 773.458223 
L 493.714286 773.469174 
L 493.001526 776.749534 
L 490.422857 779.569042 
L 490.227821 780.040846 
L 489.773903 783.332158 
L 489.06668 786.623469 
L 487.131429 788.651718 
L 486.445683 789.914781 
L 486.232532 793.206092 
L 485.272846 796.497404 
L 483.84 797.968596 
L 482.482666 799.788716 
L 482.026096 803.080027 
L 481.213281 806.371339 
L 480.548571 807.062552 
L 477.257143 809.074752 
L 477.065136 809.66265 
L 476.245644 812.953962 
L 473.965714 815.712152 
L 473.745513 816.245274 
L 473.214894 819.536585 
M 576 620.202405 
L 574.348444 622.05789 
L 576 624.521366 
M 576 608.500483 
L 575.899853 608.892644 
L 575.963892 612.183955 
L 576 612.748278 
M 529.92 688.072104 
L 530.187671 687.884122 
L 529.92 687.750038 
L 529.784348 687.884122 
L 529.92 688.072104 
z
M 546.377143 655.023739 
L 546.470169 654.971006 
L 546.377143 654.930394 
L 546.33653 654.971006 
L 546.377143 655.023739 
z
M 566.125714 615.546346 
L 566.230643 615.475267 
L 566.125714 615.416428 
L 566.066124 615.475267 
L 566.125714 615.546346 
z
" clip-path="url(#p4db5bd7e21)" style="fill: none"/>
    <path d="M 576 643.268545 
L 574.819738 645.097071 
L 574.351053 645.922408 
M 564.695235 662.393973 
L 562.834286 664.729024 
L 562.766341 664.844941 
L 561.411345 668.136252 
L 559.542857 671.20616 
L 559.376112 671.427564 
L 557.170588 674.718875 
L 556.251429 676.267054 
L 554.933619 678.010187 
L 553.143072 681.301498 
L 552.96 681.676113 
L 551.169753 684.59281 
L 549.668571 687.298438 
L 549.394912 687.884122 
L 547.365704 691.175433 
L 546.377143 692.477942 
L 545.042055 694.466745 
L 543.294264 697.758056 
L 543.085714 698.106619 
L 540.979487 701.049368 
L 539.794286 702.452939 
L 538.7375 704.34068 
L 536.791022 707.631991 
L 536.502857 708.044328 
L 534.661728 710.923303 
L 533.211429 713.993248 
L 533.074737 714.214614 
L 530.845922 717.505926 
L 529.92 719.104739 
L 528.779928 720.797238 
L 526.741757 724.088549 
L 526.628571 724.255119 
L 524.471477 727.379861 
L 523.337143 729.014576 
L 522.417072 730.671172 
L 520.23235 733.962484 
L 520.045714 734.216083 
L 518.409528 737.253795 
L 516.754286 740.126981 
L 516.417524 740.545107 
L 514.420163 743.836419 
L 513.462857 745.956515 
L 512.685426 747.12773 
L 510.568462 750.419042 
L 510.171429 751.197146 
L 508.495981 753.710353 
L 506.88 756.200892 
L 506.280885 757.001665 
L 503.926079 760.292977 
L 503.588571 760.850743 
L 502.337599 763.584288 
L 500.297143 766.632988 
L 500.282357 766.8756 
L 499.998239 770.166911 
L 497.005714 773.452767 
L 496.997297 773.458223 
L 496.116112 776.749534 
L 493.714286 779.87313 
L 493.60646 780.040846 
L 490.628674 783.332158 
L 490.422857 783.671407 
L 490.324491 786.623469 
L 487.79631 789.914781 
L 487.131429 790.711136 
L 487.027192 793.206092 
L 486.793809 796.497404 
L 483.84 799.530265 
L 483.647263 799.788716 
L 483.459461 803.080027 
L 483.136947 806.371339 
L 480.548571 809.062917 
L 479.542239 809.66265 
L 477.628575 812.953962 
L 477.257143 813.403014 
L 476.090798 816.245274 
L 473.965714 818.668714 
L 473.835391 819.536585 
" clip-path="url(#p4db5bd7e21)" style="fill: none"/>
    <path d="M 576 673.168618 
L 575.146472 674.718875 
L 572.708571 677.729764 
L 572.485945 678.010187 
L 570.404882 681.301498 
L 569.417143 682.702163 
L 568.144686 684.59281 
L 566.125714 687.472448 
L 565.878334 687.884122 
L 564.271749 691.175433 
L 562.834286 693.523269 
L 562.284682 694.466745 
L 560.069476 697.758056 
L 559.542857 698.774774 
L 558.493665 701.049368 
L 556.391235 704.34068 
L 556.251429 704.51515 
L 553.904472 707.631991 
L 552.96 709.184162 
L 551.989323 710.923303 
L 549.784181 714.214614 
L 549.668571 714.356077 
L 547.225383 717.505926 
L 546.377143 718.815854 
L 545.274365 720.797238 
L 543.401448 724.088549 
L 543.085714 724.579878 
L 541.404607 727.379861 
L 539.826366 730.671172 
L 539.794286 730.722036 
L 537.284387 733.962484 
L 536.502857 735.058892 
L 535.373003 737.253795 
L 533.211429 740.27637 
L 533.022762 740.545107 
L 531.058426 743.836419 
L 529.92 745.626679 
L 529.010209 747.12773 
L 526.677298 750.419042 
L 526.628571 750.495033 
L 524.77034 753.710353 
L 523.337143 756.113526 
L 522.837588 757.001665 
L 521.199055 760.292977 
L 520.045714 762.223625 
L 519.280008 763.584288 
L 517.274507 766.8756 
L 516.754286 767.882188 
L 515.644178 770.166911 
L 513.588721 773.458223 
L 513.462857 773.656868 
L 511.669292 776.749534 
L 510.171429 779.356182 
L 509.796937 780.040846 
L 507.770407 783.332158 
L 506.88 784.77384 
L 505.857156 786.623469 
L 504.113293 789.914781 
L 503.588571 790.847346 
L 502.364403 793.206092 
L 500.7272 796.497404 
L 500.297143 797.250308 
L 499.95288 797.889197 
M 490.897664 814.746067 
L 490.422857 815.615979 
L 490.091147 816.245274 
L 488.245938 819.536585 
" clip-path="url(#p4db5bd7e21)" style="fill: none"/>
    <path d="M 576 724.251956 
L 573.835468 727.379861 
L 573.025692 730.671172 
L 572.708571 732.928547 
L 572.10406 733.962484 
L 569.45343 737.253795 
L 569.417143 737.346952 
L 566.125714 737.496952 
L 565.680611 737.253795 
L 562.834286 735.762234 
L 562.425688 737.253795 
L 561.358003 740.545107 
L 560.570616 741.674674 
M 553.466945 759.24747 
L 553.244443 760.292977 
L 552.96 762.155097 
L 552.106772 763.584288 
L 550.069318 766.8756 
L 549.668571 768.092626 
L 547.298532 770.166911 
L 546.377143 771.219904 
L 543.085714 773.090037 
L 542.906549 773.458223 
L 542.085059 776.749534 
L 541.162944 780.040846 
L 539.794286 781.70468 
L 538.79888 783.332158 
L 537.777567 786.623469 
L 536.860086 789.914781 
L 536.502857 790.49284 
L 534.60589 793.206092 
L 533.910969 796.497404 
L 533.211429 798.860004 
L 531.853687 799.788716 
L 530.178611 803.080027 
L 529.92 804.712523 
L 528.777498 806.371339 
L 526.628571 807.338634 
L 524.232208 809.66265 
L 523.971009 812.953962 
L 523.471842 816.245274 
L 523.337143 816.375331 
L 520.426623 819.536585 
" clip-path="url(#p4db5bd7e21)" style="fill: none"/>
    <path d="M 576 801.943291 
L 574.206551 799.788716 
L 573.90952 796.497404 
L 575.488251 793.206092 
L 576 791.968004 
M 576 739.36307 
L 575.982191 740.545107 
L 575.983527 742.296864 
M 569.29845 758.639104 
L 569.283089 760.292977 
L 569.17788 763.584288 
L 566.125714 766.607746 
L 565.808753 766.8756 
L 565.568838 770.166911 
L 564.47552 773.458223 
L 562.834286 775.029789 
L 561.483791 773.458223 
L 559.542857 772.310011 
L 556.910182 770.166911 
L 556.251429 769.655694 
L 556.131018 770.166911 
L 552.96 773.450993 
L 552.956896 773.458223 
L 552.69204 776.749534 
L 552.393297 780.040846 
L 549.668571 782.671204 
L 549.359296 783.332158 
L 549.318003 786.623469 
L 548.589695 789.914781 
L 546.377143 792.001828 
L 545.803207 793.206092 
L 545.682699 796.497404 
L 543.085714 799.486642 
L 542.402167 799.788716 
L 540.324851 803.080027 
L 539.794286 803.639845 
L 537.343394 806.371339 
L 536.502857 807.01059 
L 535.815713 809.66265 
L 535.355106 812.953962 
L 533.211429 815.860405 
L 533.002819 816.245274 
L 532.220262 819.536585 
M 572.708571 807.794784 
L 571.261868 806.371339 
L 572.708571 804.526303 
L 573.322389 806.371339 
L 572.708571 807.794784 
" clip-path="url(#p4db5bd7e21)" style="fill: none"/>
    <path clip-path="url(#p4db5bd7e21)" style="fill: none"/>
    <path clip-path="url(#p4db5bd7e21)" style="fill: none"/>
    <path clip-path="url(#p4db5bd7e21)" style="fill: none"/>
    <path clip-path="url(#p4db5bd7e21)" style="fill: none"/>
    <path clip-path="url(#p4db5bd7e21)" style="fill: none"/>
    <path clip-path="url(#p4db5bd7e21)" style="fill: none"/>
    <path clip-path="url(#p4db5bd7e21)" style="fill: none"/>
    <path clip-path="url(#p4db5bd7e21)" style="fill: none"/>
    <path clip-path="url(#p4db5bd7e21)" style="fill: none"/>
    <path clip-path="url(#p4db5bd7e21)" style="fill: none"/>
    <path clip-path="url(#p4db5bd7e21)" style="fill: none"/>
    <path clip-path="url(#p4db5bd7e21)" style="fill: none"/>
    <path clip-path="url(#p4db5bd7e21)" style="fill: none"/>
    <path clip-path="url(#p4db5bd7e21)" style="fill: none"/>
    <path clip-path="url(#p4db5bd7e21)" style="fill: none"/>
    <path clip-path="url(#p4db5bd7e21)" style="fill: none"/>
    <path clip-path="url(#p4db5bd7e21)" style="fill: none"/>
    <path clip-path="url(#p4db5bd7e21)" style="fill: none"/>
    <path clip-path="url(#p4db5bd7e21)" style="fill: none"/>
    <path clip-path="url(#p4db5bd7e21)" style="fill: none"/>
    <path clip-path="url(#p4db5bd7e21)" style="fill: none"/>
    <path clip-path="url(#p4db5bd7e21)" style="fill: none"/>
    <path clip-path="url(#p4db5bd7e21)" style="fill: none"/>
    <path clip-path="url(#p4db5bd7e21)" style="fill: none"/>
    <path clip-path="url(#p4db5bd7e21)" style="fill: none"/>
    <path clip-path="url(#p4db5bd7e21)" style="fill: none"/>
    <path clip-path="url(#p4db5bd7e21)" style="fill: none"/>
    <path clip-path="url(#p4db5bd7e21)" style="fill: none"/>
    <path clip-path="url(#p4db5bd7e21)" style="fill: none"/>
   </g>
   <g id="text_1">
    <g clip-path="url(#p4db5bd7e21)">
     <!-- 0 -->
     <g style="opacity: 0" transform="translate(542.459345 672.963272) rotate(-66.279786) scale(0.12 -0.12)">
      <defs>
       <path id="DejaVuSans-30" d="M 2034 4250 
Q 1547 4250 1301 3770 
Q 1056 3291 1056 2328 
Q 1056 1369 1301 889 
Q 1547 409 2034 409 
Q 2525 409 2770 889 
Q 3016 1369 3016 2328 
Q 3016 3291 2770 3770 
Q 2525 4250 2034 4250 
z
M 2034 4750 
Q 2819 4750 3233 4129 
Q 3647 3509 3647 2328 
Q 3647 1150 3233 529 
Q 2819 -91 2034 -91 
Q 1250 -91 836 529 
Q 422 1150 422 2328 
Q 422 3509 836 4129 
Q 1250 4750 2034 4750 
z
" transform="scale(0.015625)"/>
      </defs>
      <use xlink:href="#DejaVuSans-30"/>
     </g>
    </g>
   </g>
   <g id="text_2">
    <g clip-path="url(#p4db5bd7e21)">
     <!-- 1 -->
     <g style="opacity: 0" transform="translate(481.582519 801.418961) rotate(-62.182732) scale(0.12 -0.12)">
      <defs>
       <path id="DejaVuSans-31" d="M 794 531 
L 1825 531 
L 1825 4091 
L 703 3866 
L 703 4441 
L 1819 4666 
L 2450 4666 
L 2450 531 
L 3481 531 
L 3481 0 
L 794 0 
L 794 531 
z
" transform="scale(0.015625)"/>
      </defs>
      <use xlink:href="#DejaVuSans-31"/>
     </g>
    </g>
   </g>
   <g id="text_3">
    <g clip-path="url(#p4db5bd7e21)">
     <!-- 2 -->
     <g style="opacity: 0" transform="translate(524.809794 711.079234) rotate(-66.004633) scale(0.12 -0.12)">
      <defs>
       <path id="DejaVuSans-32" d="M 1228 531 
L 3431 531 
L 3431 0 
L 469 0 
L 469 531 
Q 828 903 1448 1529 
Q 2069 2156 2228 2338 
Q 2531 2678 2651 2914 
Q 2772 3150 2772 3378 
Q 2772 3750 2511 3984 
Q 2250 4219 1831 4219 
Q 1534 4219 1204 4116 
Q 875 4013 500 3803 
L 500 4441 
Q 881 4594 1212 4672 
Q 1544 4750 1819 4750 
Q 2544 4750 2975 4387 
Q 3406 4025 3406 3419 
Q 3406 3131 3298 2873 
Q 3191 2616 2906 2266 
Q 2828 2175 2409 1742 
Q 1991 1309 1228 531 
z
" transform="scale(0.015625)"/>
      </defs>
      <use xlink:href="#DejaVuSans-32"/>
     </g>
    </g>
   </g>
   <g id="text_4">
    <g clip-path="url(#p4db5bd7e21)">
     <!-- 3 -->
     <g style="opacity: 0" transform="translate(477.201616 814.535376) rotate(-64.432698) scale(0.12 -0.12)">
      <defs>
       <path id="DejaVuSans-33" d="M 2597 2516 
Q 3050 2419 3304 2112 
Q 3559 1806 3559 1356 
Q 3559 666 3084 287 
Q 2609 -91 1734 -91 
Q 1441 -91 1130 -33 
Q 819 25 488 141 
L 488 750 
Q 750 597 1062 519 
Q 1375 441 1716 441 
Q 2309 441 2620 675 
Q 2931 909 2931 1356 
Q 2931 1769 2642 2001 
Q 2353 2234 1838 2234 
L 1294 2234 
L 1294 2753 
L 1863 2753 
Q 2328 2753 2575 2939 
Q 2822 3125 2822 3475 
Q 2822 3834 2567 4026 
Q 2313 4219 1838 4219 
Q 1578 4219 1281 4162 
Q 984 4106 628 3988 
L 628 4550 
Q 988 4650 1302 4700 
Q 1616 4750 1894 4750 
Q 2613 4750 3031 4423 
Q 3450 4097 3450 3541 
Q 3450 3153 3228 2886 
Q 3006 2619 2597 2516 
z
" transform="scale(0.015625)"/>
      </defs>
      <use xlink:href="#DejaVuSans-33"/>
     </g>
    </g>
   </g>
   <g id="text_5">
    <g clip-path="url(#p4db5bd7e21)">
     <!-- 4 -->
     <g style="opacity: 0" transform="translate(506.18631 755.212579) rotate(-67.519119) scale(0.12 -0.12)">
      <defs>
       <path id="DejaVuSans-34" d="M 2419 4116 
L 825 1625 
L 2419 1625 
L 2419 4116 
z
M 2253 4666 
L 3047 4666 
L 3047 1625 
L 3713 1625 
L 3713 1100 
L 3047 1100 
L 3047 0 
L 2419 0 
L 2419 1100 
L 313 1100 
L 313 1709 
L 2253 4666 
z
" transform="scale(0.015625)"/>
      </defs>
      <use xlink:href="#DejaVuSans-34"/>
     </g>
    </g>
   </g>
   <g id="text_6">
    <g clip-path="url(#p4db5bd7e21)">
     <!-- 5 -->
     <g style="opacity: 0" transform="translate(511.20141 742.306881) rotate(-49.779936) scale(0.12 -0.12)">
      <defs>
       <path id="DejaVuSans-35" d="M 691 4666 
L 3169 4666 
L 3169 4134 
L 1269 4134 
L 1269 2991 
Q 1406 3038 1543 3061 
Q 1681 3084 1819 3084 
Q 2600 3084 3056 2656 
Q 3513 2228 3513 1497 
Q 3513 744 3044 326 
Q 2575 -91 1722 -91 
Q 1428 -91 1123 -41 
Q 819 9 494 109 
L 494 744 
Q 775 591 1075 516 
Q 1375 441 1709 441 
Q 2250 441 2565 725 
Q 2881 1009 2881 1497 
Q 2881 1984 2565 2268 
Q 2250 2553 1709 2553 
Q 1456 2553 1204 2497 
Q 953 2441 691 2322 
L 691 4666 
z
" transform="scale(0.015625)"/>
      </defs>
      <use xlink:href="#DejaVuSans-35"/>
     </g>
    </g>
   </g>
   <g id="text_7">
    <g clip-path="url(#p4db5bd7e21)">
     <!-- 6 -->
     <g style="opacity: 0" transform="translate(570.418789 659.063634) rotate(-60.494308) scale(0.12 -0.12)">
      <defs>
       <path id="DejaVuSans-36" d="M 2113 2584 
Q 1688 2584 1439 2293 
Q 1191 2003 1191 1497 
Q 1191 994 1439 701 
Q 1688 409 2113 409 
Q 2538 409 2786 701 
Q 3034 994 3034 1497 
Q 3034 2003 2786 2293 
Q 2538 2584 2113 2584 
z
M 3366 4563 
L 3366 3988 
Q 3128 4100 2886 4159 
Q 2644 4219 2406 4219 
Q 1781 4219 1451 3797 
Q 1122 3375 1075 2522 
Q 1259 2794 1537 2939 
Q 1816 3084 2150 3084 
Q 2853 3084 3261 2657 
Q 3669 2231 3669 1497 
Q 3669 778 3244 343 
Q 2819 -91 2113 -91 
Q 1303 -91 875 529 
Q 447 1150 447 2328 
Q 447 3434 972 4092 
Q 1497 4750 2381 4750 
Q 2619 4750 2861 4703 
Q 3103 4656 3366 4563 
z
" transform="scale(0.015625)"/>
      </defs>
      <use xlink:href="#DejaVuSans-36"/>
     </g>
    </g>
   </g>
   <g id="text_8">
    <g clip-path="url(#p4db5bd7e21)">
     <!-- 7 -->
     <g style="opacity: 0" transform="translate(496.62234 811.303977) rotate(-61.617257) scale(0.12 -0.12)">
      <defs>
       <path id="DejaVuSans-37" d="M 525 4666 
L 3525 4666 
L 3525 4397 
L 1831 0 
L 1172 0 
L 2766 4134 
L 525 4134 
L 525 4666 
z
" transform="scale(0.015625)"/>
      </defs>
      <use xlink:href="#DejaVuSans-37"/>
     </g>
    </g>
   </g>
   <g id="text_9">
    <g clip-path="url(#p4db5bd7e21)">
     <!-- 8 -->
     <g style="opacity: 0" transform="translate(558.815979 755.117417) rotate(-70.66926) scale(0.12 -0.12)">
      <defs>
       <path id="DejaVuSans-38" d="M 2034 2216 
Q 1584 2216 1326 1975 
Q 1069 1734 1069 1313 
Q 1069 891 1326 650 
Q 1584 409 2034 409 
Q 2484 409 2743 651 
Q 3003 894 3003 1313 
Q 3003 1734 2745 1975 
Q 2488 2216 2034 2216 
z
M 1403 2484 
Q 997 2584 770 2862 
Q 544 3141 544 3541 
Q 544 4100 942 4425 
Q 1341 4750 2034 4750 
Q 2731 4750 3128 4425 
Q 3525 4100 3525 3541 
Q 3525 3141 3298 2862 
Q 3072 2584 2669 2484 
Q 3125 2378 3379 2068 
Q 3634 1759 3634 1313 
Q 3634 634 3220 271 
Q 2806 -91 2034 -91 
Q 1263 -91 848 271 
Q 434 634 434 1313 
Q 434 1759 690 2068 
Q 947 2378 1403 2484 
z
M 1172 3481 
Q 1172 3119 1398 2916 
Q 1625 2713 2034 2713 
Q 2441 2713 2670 2916 
Q 2900 3119 2900 3481 
Q 2900 3844 2670 4047 
Q 2441 4250 2034 4250 
Q 1625 4250 1398 4047 
Q 1172 3844 1172 3481 
z
" transform="scale(0.015625)"/>
      </defs>
      <use xlink:href="#DejaVuSans-38"/>
     </g>
    </g>
   </g>
   <g id="text_10">
    <g clip-path="url(#p4db5bd7e21)">
     <!-- 9 -->
     <g style="opacity: 0" transform="translate(574.883138 754.947078) rotate(-75.421927) scale(0.12 -0.12)">
      <defs>
       <path id="DejaVuSans-39" d="M 703 97 
L 703 672 
Q 941 559 1184 500 
Q 1428 441 1663 441 
Q 2288 441 2617 861 
Q 2947 1281 2994 2138 
Q 2813 1869 2534 1725 
Q 2256 1581 1919 1581 
Q 1219 1581 811 2004 
Q 403 2428 403 3163 
Q 403 3881 828 4315 
Q 1253 4750 1959 4750 
Q 2769 4750 3195 4129 
Q 3622 3509 3622 2328 
Q 3622 1225 3098 567 
Q 2575 -91 1691 -91 
Q 1453 -91 1209 -44 
Q 966 3 703 97 
z
M 1959 2075 
Q 2384 2075 2632 2365 
Q 2881 2656 2881 3163 
Q 2881 3666 2632 3958 
Q 2384 4250 1959 4250 
Q 1534 4250 1286 3958 
Q 1038 3666 1038 3163 
Q 1038 2656 1286 2365 
Q 1534 2075 1959 2075 
z
" transform="scale(0.015625)"/>
      </defs>
      <use xlink:href="#DejaVuSans-39"/>
     </g>
    </g>
   </g>
  </g>
 </g>
 <defs>
  <clipPath id="p4db5bd7e21">
   <rect x="0" y="0" width="576" height="819.536585"/>
  </clipPath>
 </defs>
</svg>
