<?xml version="1.0" encoding="utf-8" standalone="no"?>
<!DOCTYPE svg PUBLIC "-//W3C//DTD SVG 1.1//EN"
  "http://www.w3.org/Graphics/SVG/1.1/DTD/svg11.dtd">
<svg xmlns:xlink="http://www.w3.org/1999/xlink" width="576pt" height="818.380863pt" viewBox="0 0 576 818.380863" xmlns="http://www.w3.org/2000/svg" version="1.1">
 <metadata>
  <rdf:RDF xmlns:dc="http://purl.org/dc/elements/1.1/" xmlns:cc="http://creativecommons.org/ns#" xmlns:rdf="http://www.w3.org/1999/02/22-rdf-syntax-ns#">
   <cc:Work>
    <dc:type rdf:resource="http://purl.org/dc/dcmitype/StillImage"/>
    <dc:date>2025-07-25T22:43:53.636165</dc:date>
    <dc:format>image/svg+xml</dc:format>
    <dc:creator>
     <cc:Agent>
      <dc:title>Matplotlib v3.10.3, https://matplotlib.org/</dc:title>
     </cc:Agent>
    </dc:creator>
   </cc:Work>
  </rdf:RDF>
 </metadata>
 <defs>
  <style type="text/css">*{stroke-linejoin: round; stroke-linecap: butt}</style>
 </defs>
 <g id="figure_1">
  <g id="patch_1">
   <path d="M 0 818.380863 
L 576 818.380863 
L 576 0 
L 0 0 
L 0 818.380863 
z
" style="fill: none; opacity: 0"/>
  </g>
  <g id="axes_1">
   <g id="QuadContourSet_1">
    <path d="M 576 53.387513 
L 576 52.586722 
L 576 52.512841 
L 572.999211 49.300052 
L 572.708571 48.98888 
L 569.595222 46.013382 
L 569.417143 45.821053 
L 566.300908 46.013382 
L 566.125714 46.031349 
L 566.107721 46.013382 
L 562.834286 43.950876 
L 561.520439 42.726712 
L 559.542857 41.169685 
L 556.859323 39.440042 
L 556.251429 38.982848 
L 552.96 37.15161 
L 551.960316 36.153371 
L 549.668571 34.583363 
L 547.680583 32.866701 
L 546.377143 31.640459 
L 543.991009 29.580031 
L 543.085714 28.592871 
L 539.935673 26.293361 
L 539.794286 26.131851 
L 536.502857 24.190165 
L 533.211429 23.108096 
L 529.92 25.322033 
L 527.601306 23.006691 
L 528.423161 19.720021 
L 526.628571 18.470595 
L 523.702413 16.433351 
L 523.337143 16.157692 
L 520.045714 14.287613 
L 518.90313 13.146681 
L 516.754286 11.431518 
L 514.449487 9.86001 
L 513.462857 9.051121 
L 510.171429 6.796827 
L 509.947619 6.57334 
L 506.88 4.402586 
L 505.40028 3.28667 
L 503.588571 1.981188 
L 500.297143 0.293823 
L 500.002895 -0 
L 499.128868 -0 
L 500.297143 1.166586 
L 503.588571 2.577055 
L 504.573353 3.28667 
L 506.88 5.026204 
L 509.066347 6.57334 
L 510.171429 7.676824 
L 513.462857 9.643589 
L 513.726833 9.86001 
L 516.754286 11.924253 
L 518.285806 13.146681 
L 520.045714 14.904045 
L 522.915377 16.433351 
L 523.337143 16.854507 
L 526.628571 18.870846 
L 527.848269 19.720021 
L 527.321857 23.006691 
L 529.92 25.601078 
L 533.211429 23.971499 
L 536.502857 25.078043 
L 538.557707 26.293361 
L 539.794286 27.064028 
L 543.085714 29.17836 
L 543.454074 29.580031 
L 546.377143 32.104103 
L 547.187751 32.866701 
L 549.668571 35.008932 
L 551.339112 36.153371 
L 552.96 37.771916 
L 556.039861 39.440042 
L 556.251429 39.651303 
L 559.542857 41.650278 
L 560.910037 42.726712 
L 562.834286 44.519612 
L 565.205071 46.013382 
L 566.125714 46.932694 
L 569.417143 47.048155 
L 572.049423 49.300052 
L 572.708571 49.688209 
L 575.19805 52.586722 
z
" clip-path="url(#p14b76e76a0)" style="fill: #f5f9fe; fill-opacity: 0.9"/>
    <path d="M 576 52.512841 
L 576 52.032839 
L 573.447539 49.300052 
L 572.708571 48.508878 
L 570.097461 46.013382 
L 569.417143 45.278622 
L 566.125714 43.00627 
L 562.834286 43.38214 
L 562.130841 42.726712 
L 559.542857 40.689092 
L 557.604961 39.440042 
L 556.251429 38.422059 
L 552.96 36.531304 
L 552.581521 36.153371 
L 549.668571 34.157794 
L 548.173416 32.866701 
L 546.377143 31.176816 
L 544.527943 29.580031 
L 543.085714 28.007381 
L 540.73772 26.293361 
L 539.794286 25.215652 
L 536.502857 23.302286 
L 535.601322 23.006691 
L 533.211429 21.942106 
L 532.856309 23.006691 
L 529.92 25.042988 
L 527.880755 23.006691 
L 528.998053 19.720021 
L 526.628571 18.070345 
L 524.277305 16.433351 
L 523.337143 15.723839 
L 520.045714 13.671181 
L 519.520454 13.146681 
L 516.754286 10.938783 
L 515.17214 9.86001 
L 513.462857 8.458652 
L 510.796537 6.57334 
L 510.171429 6.075066 
L 506.88 3.778968 
L 506.227207 3.28667 
L 503.588571 1.38532 
L 501.027793 -0 
L 500.297143 -0 
L 500.002895 -0 
L 500.297143 0.293823 
L 503.588571 1.981188 
L 505.40028 3.28667 
L 506.88 4.402586 
L 509.947619 6.57334 
L 510.171429 6.796827 
L 513.462857 9.051121 
L 514.449487 9.86001 
L 516.754286 11.431518 
L 518.90313 13.146681 
L 520.045714 14.287613 
L 523.337143 16.157692 
L 523.702413 16.433351 
L 526.628571 18.470595 
L 528.423161 19.720021 
L 527.601306 23.006691 
L 529.92 25.322033 
L 533.211429 23.108096 
L 536.502857 24.190165 
L 539.794286 26.131851 
L 539.935673 26.293361 
L 543.085714 28.592871 
L 543.991009 29.580031 
L 546.377143 31.640459 
L 547.680583 32.866701 
L 549.668571 34.583363 
L 551.960316 36.153371 
L 552.96 37.15161 
L 556.251429 38.982848 
L 556.859323 39.440042 
L 559.542857 41.169685 
L 561.520439 42.726712 
L 562.834286 43.950876 
L 566.107721 46.013382 
L 566.125714 46.031349 
L 566.300908 46.013382 
L 569.417143 45.821053 
L 569.595222 46.013382 
L 572.708571 48.98888 
L 572.999211 49.300052 
z
" clip-path="url(#p14b76e76a0)" style="fill: #eff6fc; fill-opacity: 0.9"/>
    <path d="M 576 52.032839 
L 576 51.552837 
L 573.895867 49.300052 
L 572.708571 48.028876 
L 570.599701 46.013382 
L 569.417143 44.73619 
L 566.77415 42.726712 
L 566.125714 42.001504 
L 563.307012 42.726712 
L 562.834286 42.813404 
L 562.741242 42.726712 
L 559.542857 40.208499 
L 558.350599 39.440042 
L 556.251429 37.86127 
L 553.334264 36.153371 
L 552.96 35.890365 
L 549.668571 33.732225 
L 548.666248 32.866701 
L 546.377143 30.713173 
L 545.064878 29.580031 
L 543.085714 27.421892 
L 541.539768 26.293361 
L 539.794286 24.299452 
L 537.559426 23.006691 
L 536.502857 21.602694 
L 533.211429 20.735847 
L 532.45393 23.006691 
L 529.92 24.763943 
L 528.160204 23.006691 
L 529.572945 19.720021 
L 526.628571 17.670094 
L 524.852198 16.433351 
L 523.337143 15.289986 
L 520.142164 13.146681 
L 520.045714 13.070464 
L 516.754286 10.446048 
L 515.894794 9.86001 
L 513.462857 7.866184 
L 511.634441 6.57334 
L 510.171429 5.407171 
L 507.084729 3.28667 
L 506.88 3.128593 
L 503.588571 0.789452 
L 502.12926 -0 
L 501.027793 -0 
L 503.588571 1.38532 
L 506.227207 3.28667 
L 506.88 3.778968 
L 510.171429 6.075066 
L 510.796537 6.57334 
L 513.462857 8.458652 
L 515.17214 9.86001 
L 516.754286 10.938783 
L 519.520454 13.146681 
L 520.045714 13.671181 
L 523.337143 15.723839 
L 524.277305 16.433351 
L 526.628571 18.070345 
L 528.998053 19.720021 
L 527.880755 23.006691 
L 529.92 25.042988 
L 532.856309 23.006691 
L 533.211429 21.942106 
L 535.601322 23.006691 
L 536.502857 23.302286 
L 539.794286 25.215652 
L 540.73772 26.293361 
L 543.085714 28.007381 
L 544.527943 29.580031 
L 546.377143 31.176816 
L 548.173416 32.866701 
L 549.668571 34.157794 
L 552.581521 36.153371 
L 552.96 36.531304 
L 556.251429 38.422059 
L 557.604961 39.440042 
L 559.542857 40.689092 
L 562.130841 42.726712 
L 562.834286 43.38214 
L 566.125714 43.00627 
L 569.417143 45.278622 
L 570.097461 46.013382 
L 572.708571 48.508878 
L 573.447539 49.300052 
z
" clip-path="url(#p14b76e76a0)" style="fill: #eaf3fb; fill-opacity: 0.9"/>
    <path d="M 576 51.552837 
L 576 51.072836 
L 574.344195 49.300052 
L 572.708571 47.548875 
L 571.10194 46.013382 
L 569.417143 44.193759 
L 567.48759 42.726712 
L 566.125714 41.203596 
L 563.404568 39.440042 
L 562.834286 38.741394 
L 561.398933 39.440042 
L 559.542857 39.727906 
L 559.096236 39.440042 
L 556.251429 37.300481 
L 554.292116 36.153371 
L 552.96 35.217254 
L 549.668571 33.306656 
L 549.15908 32.866701 
L 546.377143 30.24953 
L 545.601812 29.580031 
L 543.085714 26.836402 
L 542.341815 26.293361 
L 539.794286 23.383253 
L 539.143305 23.006691 
L 536.571525 19.720021 
L 536.502857 19.651581 
L 533.211429 18.493788 
L 529.92 18.974705 
L 526.628571 17.269844 
L 525.42709 16.433351 
L 523.337143 14.856133 
L 520.7889 13.146681 
L 520.045714 12.559404 
L 516.754286 9.953313 
L 516.617447 9.86001 
L 513.462857 7.273715 
L 512.472345 6.57334 
L 510.171429 4.739277 
L 508.056947 3.28667 
L 506.88 2.377912 
L 503.588571 0.193585 
L 503.230728 -0 
L 502.12926 -0 
L 503.588571 0.789452 
L 506.88 3.128593 
L 507.084729 3.28667 
L 510.171429 5.407171 
L 511.634441 6.57334 
L 513.462857 7.866184 
L 515.894794 9.86001 
L 516.754286 10.446048 
L 520.045714 13.070464 
L 520.142164 13.146681 
L 523.337143 15.289986 
L 524.852198 16.433351 
L 526.628571 17.670094 
L 529.572945 19.720021 
L 528.160204 23.006691 
L 529.92 24.763943 
L 532.45393 23.006691 
L 533.211429 20.735847 
L 536.502857 21.602694 
L 537.559426 23.006691 
L 539.794286 24.299452 
L 541.539768 26.293361 
L 543.085714 27.421892 
L 545.064878 29.580031 
L 546.377143 30.713173 
L 548.666248 32.866701 
L 549.668571 33.732225 
L 552.96 35.890365 
L 553.334264 36.153371 
L 556.251429 37.86127 
L 558.350599 39.440042 
L 559.542857 40.208499 
L 562.741242 42.726712 
L 562.834286 42.813404 
L 563.307012 42.726712 
L 566.125714 42.001504 
L 566.77415 42.726712 
L 569.417143 44.73619 
L 570.599701 46.013382 
L 572.708571 48.028876 
L 573.895867 49.300052 
z
M 528.439653 23.006691 
L 529.92 19.948792 
L 532.051552 23.006691 
L 529.92 24.484898 
z
" clip-path="url(#p14b76e76a0)" style="fill: #e5eff9; fill-opacity: 0.9"/>
    <path d="M 576 51.072836 
L 576 50.592834 
L 574.792523 49.300052 
L 572.708571 47.068873 
L 571.60418 46.013382 
L 569.417143 43.651328 
L 568.201029 42.726712 
L 566.125714 40.405689 
L 564.635731 39.440042 
L 562.834286 37.233108 
L 559.621505 36.153371 
L 559.542857 36.007109 
L 559.488598 36.153371 
L 556.251429 36.739692 
L 555.249968 36.153371 
L 552.96 34.544144 
L 549.668571 32.881087 
L 549.651912 32.866701 
L 546.377143 29.785886 
L 546.138747 29.580031 
L 543.145524 26.293361 
L 543.085714 26.233992 
L 540.222231 23.006691 
L 539.794286 22.580292 
L 537.222461 19.720021 
L 536.502857 19.002804 
L 533.726491 16.433351 
L 533.211429 15.920071 
L 530.984756 16.433351 
L 529.92 17.094081 
L 526.628571 16.869594 
L 526.001982 16.433351 
L 523.337143 14.422279 
L 521.435635 13.146681 
L 520.045714 12.048343 
L 517.278219 9.86001 
L 516.754286 9.339297 
L 513.462857 6.681246 
L 513.31025 6.57334 
L 510.171429 4.071382 
L 509.029166 3.28667 
L 506.88 1.627232 
L 504.370235 -0 
L 503.588571 -0 
L 503.230728 -0 
L 503.588571 0.193585 
L 506.88 2.377912 
L 508.056947 3.28667 
L 510.171429 4.739277 
L 512.472345 6.57334 
L 513.462857 7.273715 
L 516.617447 9.86001 
L 516.754286 9.953313 
L 520.045714 12.559404 
L 520.7889 13.146681 
L 523.337143 14.856133 
L 525.42709 16.433351 
L 526.628571 17.269844 
L 529.92 18.974705 
L 533.211429 18.493788 
L 536.502857 19.651581 
L 536.571525 19.720021 
L 539.143305 23.006691 
L 539.794286 23.383253 
L 542.341815 26.293361 
L 543.085714 26.836402 
L 545.601812 29.580031 
L 546.377143 30.24953 
L 549.15908 32.866701 
L 549.668571 33.306656 
L 552.96 35.217254 
L 554.292116 36.153371 
L 556.251429 37.300481 
L 559.096236 39.440042 
L 559.542857 39.727906 
L 561.398933 39.440042 
L 562.834286 38.741394 
L 563.404568 39.440042 
L 566.125714 41.203596 
L 567.48759 42.726712 
L 569.417143 44.193759 
L 571.10194 46.013382 
L 572.708571 47.548875 
L 574.344195 49.300052 
z
M 529.92 24.484898 
L 532.051552 23.006691 
L 529.92 19.948792 
L 528.439653 23.006691 
z
M 528.719102 23.006691 
L 529.92 20.526039 
L 531.649173 23.006691 
L 529.92 24.205853 
z
" clip-path="url(#p14b76e76a0)" style="fill: #dfecf7; fill-opacity: 0.9"/>
    <path d="M 576 50.592834 
L 576 50.112833 
L 575.240851 49.300052 
L 572.708571 46.588872 
L 572.10642 46.013382 
L 569.417143 43.108897 
L 568.914469 42.726712 
L 566.125714 39.607781 
L 565.866894 39.440042 
L 563.163021 36.153371 
L 562.834286 35.825226 
L 560.187348 32.866701 
L 559.542857 32.223341 
L 557.591158 32.866701 
L 556.392389 36.153371 
L 556.251429 36.178902 
L 556.207821 36.153371 
L 552.96 33.871033 
L 550.962231 32.866701 
L 549.668571 32.043945 
L 546.907673 29.580031 
L 546.377143 29.053901 
L 543.970487 26.293361 
L 543.085714 25.41511 
L 540.9488 23.006691 
L 539.794286 21.856349 
L 537.873397 19.720021 
L 536.502857 18.354027 
L 534.427512 16.433351 
L 533.211429 15.221476 
L 530.151762 13.146681 
L 529.92 12.915939 
L 529.237867 13.146681 
L 527.02931 16.433351 
L 526.628571 16.469343 
L 526.576874 16.433351 
L 523.337143 13.988426 
L 522.082371 13.146681 
L 520.045714 11.537283 
L 517.924536 9.86001 
L 516.754286 8.696951 
L 514.115629 6.57334 
L 513.462857 5.925296 
L 510.171429 3.403487 
L 510.001384 3.28667 
L 506.88 0.876552 
L 505.528048 -0 
L 504.370235 -0 
L 506.88 1.627232 
L 509.029166 3.28667 
L 510.171429 4.071382 
L 513.31025 6.57334 
L 513.462857 6.681246 
L 516.754286 9.339297 
L 517.278219 9.86001 
L 520.045714 12.048343 
L 521.435635 13.146681 
L 523.337143 14.422279 
L 526.001982 16.433351 
L 526.628571 16.869594 
L 529.92 17.094081 
L 530.984756 16.433351 
L 533.211429 15.920071 
L 533.726491 16.433351 
L 536.502857 19.002804 
L 537.222461 19.720021 
L 539.794286 22.580292 
L 540.222231 23.006691 
L 543.085714 26.233992 
L 543.145524 26.293361 
L 546.138747 29.580031 
L 546.377143 29.785886 
L 549.651912 32.866701 
L 549.668571 32.881087 
L 552.96 34.544144 
L 555.249968 36.153371 
L 556.251429 36.739692 
L 559.488598 36.153371 
L 559.542857 36.007109 
L 559.621505 36.153371 
L 562.834286 37.233108 
L 564.635731 39.440042 
L 566.125714 40.405689 
L 568.201029 42.726712 
L 569.417143 43.651328 
L 571.60418 46.013382 
L 572.708571 47.068873 
L 574.792523 49.300052 
z
M 529.92 24.205853 
L 531.649173 23.006691 
L 529.92 20.526039 
L 528.719102 23.006691 
z
M 528.998551 23.006691 
L 529.92 21.103287 
L 531.246795 23.006691 
L 529.92 23.926808 
z
" clip-path="url(#p14b76e76a0)" style="fill: #dae8f6; fill-opacity: 0.9"/>
    <path d="M 576 50.112833 
L 576 49.632831 
L 575.68918 49.300052 
L 572.708571 46.10887 
L 572.608659 46.013382 
L 569.946628 42.726712 
L 569.417143 42.202015 
L 567.234308 39.440042 
L 566.125714 38.335697 
L 564.320008 36.153371 
L 562.834286 34.670313 
L 561.220628 32.866701 
L 559.542857 31.191876 
L 556.588096 29.580031 
L 556.251429 29.244041 
L 555.694293 29.580031 
L 554.482326 32.866701 
L 552.96 33.197922 
L 552.301151 32.866701 
L 549.668571 31.192403 
L 547.861854 29.580031 
L 546.377143 28.107633 
L 544.79545 26.293361 
L 543.085714 24.596228 
L 541.675368 23.006691 
L 539.794286 21.132406 
L 538.524333 19.720021 
L 536.502857 17.70525 
L 535.128534 16.433351 
L 533.211429 14.52288 
L 531.181969 13.146681 
L 529.92 11.89027 
L 526.628571 12.06631 
L 526.203405 13.146681 
L 523.337143 13.554573 
L 522.729107 13.146681 
L 520.045714 11.026222 
L 518.570854 9.86001 
L 516.754286 8.054605 
L 514.913765 6.57334 
L 513.462857 5.132941 
L 511.032149 3.28667 
L 510.171429 2.433532 
L 506.88 0.125872 
L 506.68586 -0 
L 505.528048 -0 
L 506.88 0.876552 
L 510.001384 3.28667 
L 510.171429 3.403487 
L 513.462857 5.925296 
L 514.115629 6.57334 
L 516.754286 8.696951 
L 517.924536 9.86001 
L 520.045714 11.537283 
L 522.082371 13.146681 
L 523.337143 13.988426 
L 526.576874 16.433351 
L 526.628571 16.469343 
L 527.02931 16.433351 
L 529.237867 13.146681 
L 529.92 12.915939 
L 530.151762 13.146681 
L 533.211429 15.221476 
L 534.427512 16.433351 
L 536.502857 18.354027 
L 537.873397 19.720021 
L 539.794286 21.856349 
L 540.9488 23.006691 
L 543.085714 25.41511 
L 543.970487 26.293361 
L 546.377143 29.053901 
L 546.907673 29.580031 
L 549.668571 32.043945 
L 550.962231 32.866701 
L 552.96 33.871033 
L 556.207821 36.153371 
L 556.251429 36.178902 
L 556.392389 36.153371 
L 557.591158 32.866701 
L 559.542857 32.223341 
L 560.187348 32.866701 
L 562.834286 35.825226 
L 563.163021 36.153371 
L 565.866894 39.440042 
L 566.125714 39.607781 
L 568.914469 42.726712 
L 569.417143 43.108897 
L 572.10642 46.013382 
L 572.708571 46.588872 
L 575.240851 49.300052 
z
M 529.92 23.926808 
L 531.246795 23.006691 
L 529.92 21.103287 
L 528.998551 23.006691 
z
M 529.278 23.006691 
L 529.92 21.680534 
L 530.844416 23.006691 
L 529.92 23.647763 
z
" clip-path="url(#p14b76e76a0)" style="fill: #d6e5f4; fill-opacity: 0.9"/>
    <path d="M 576 49.632831 
L 576 49.300052 
L 576 48.090812 
L 574.694023 46.013382 
L 572.708571 44.051599 
L 571.738935 42.726712 
L 569.417143 40.425916 
L 568.637989 39.440042 
L 566.125714 36.937395 
L 565.476995 36.153371 
L 562.834286 33.515399 
L 562.253908 32.866701 
L 559.542857 30.16041 
L 558.478932 29.580031 
L 556.251429 27.35701 
L 552.96 28.52706 
L 552.552746 29.580031 
L 549.668571 30.340861 
L 548.816035 29.580031 
L 546.377143 27.161364 
L 545.620413 26.293361 
L 543.085714 23.777346 
L 542.401936 23.006691 
L 539.794286 20.408464 
L 539.17527 19.720021 
L 536.502857 17.056473 
L 535.829556 16.433351 
L 533.211429 13.824285 
L 532.212177 13.146681 
L 529.92 10.8646 
L 528.017671 9.86001 
L 526.628571 8.480647 
L 524.458851 9.86001 
L 523.337143 12.688873 
L 520.045714 10.515162 
L 519.217171 9.86001 
L 516.754286 7.41226 
L 515.711901 6.57334 
L 513.462857 4.340585 
L 512.075325 3.28667 
L 510.171429 1.399547 
L 508.133291 -0 
L 506.88 -0 
L 506.68586 -0 
L 506.88 0.125872 
L 510.171429 2.433532 
L 511.032149 3.28667 
L 513.462857 5.132941 
L 514.913765 6.57334 
L 516.754286 8.054605 
L 518.570854 9.86001 
L 520.045714 11.026222 
L 522.729107 13.146681 
L 523.337143 13.554573 
L 526.203405 13.146681 
L 526.628571 12.06631 
L 529.92 11.89027 
L 531.181969 13.146681 
L 533.211429 14.52288 
L 535.128534 16.433351 
L 536.502857 17.70525 
L 538.524333 19.720021 
L 539.794286 21.132406 
L 541.675368 23.006691 
L 543.085714 24.596228 
L 544.79545 26.293361 
L 546.377143 28.107633 
L 547.861854 29.580031 
L 549.668571 31.192403 
L 552.301151 32.866701 
L 552.96 33.197922 
L 554.482326 32.866701 
L 555.694293 29.580031 
L 556.251429 29.244041 
L 556.588096 29.580031 
L 559.542857 31.191876 
L 561.220628 32.866701 
L 562.834286 34.670313 
L 564.320008 36.153371 
L 566.125714 38.335697 
L 567.234308 39.440042 
L 569.417143 42.202015 
L 569.946628 42.726712 
L 572.608659 46.013382 
L 572.708571 46.10887 
L 575.68918 49.300052 
z
M 529.92 23.647763 
L 530.844416 23.006691 
L 529.92 21.680534 
L 529.278 23.006691 
z
M 529.557449 23.006691 
L 529.92 22.257782 
L 530.442037 23.006691 
L 529.92 23.368718 
z
" clip-path="url(#p14b76e76a0)" style="fill: #d0e2f2; fill-opacity: 0.9"/>
    <path d="M 576 48.090812 
L 576 46.013382 
L 576 42.726712 
L 576 39.440042 
L 576 36.153371 
L 576 32.866701 
L 576 29.580031 
L 576 26.293361 
L 576 23.006691 
L 576 19.720021 
L 576 16.433351 
L 576 13.146681 
L 576 9.86001 
L 576 9.668079 
L 572.708571 7.386249 
L 571.524817 6.57334 
L 569.417143 5.166306 
L 566.71424 3.28667 
L 566.125714 2.888501 
L 562.834286 1.130492 
L 559.956277 -0 
L 559.542857 -0 
L 556.251429 -0 
L 552.96 -0 
L 549.668571 -0 
L 546.377143 -0 
L 543.085714 -0 
L 539.794286 -0 
L 536.502857 -0 
L 533.211429 -0 
L 529.92 -0 
L 526.628571 -0 
L 523.337143 -0 
L 521.566814 -0 
L 523.337143 3.110188 
L 523.45531 3.28667 
L 523.337143 3.331106 
L 521.670676 6.57334 
L 521.06304 9.86001 
L 520.045714 10.004101 
L 519.863488 9.86001 
L 516.754286 6.769914 
L 516.510037 6.57334 
L 513.462857 3.54823 
L 513.118501 3.28667 
L 510.171429 0.365561 
L 509.639068 -0 
L 508.133291 -0 
L 510.171429 1.399547 
L 512.075325 3.28667 
L 513.462857 4.340585 
L 515.711901 6.57334 
L 516.754286 7.41226 
L 519.217171 9.86001 
L 520.045714 10.515162 
L 523.337143 12.688873 
L 524.458851 9.86001 
L 526.628571 8.480647 
L 528.017671 9.86001 
L 529.92 10.8646 
L 532.212177 13.146681 
L 533.211429 13.824285 
L 535.829556 16.433351 
L 536.502857 17.056473 
L 539.17527 19.720021 
L 539.794286 20.408464 
L 542.401936 23.006691 
L 543.085714 23.777346 
L 545.620413 26.293361 
L 546.377143 27.161364 
L 548.816035 29.580031 
L 549.668571 30.340861 
L 552.552746 29.580031 
L 552.96 28.52706 
L 556.251429 27.35701 
L 558.478932 29.580031 
L 559.542857 30.16041 
L 562.253908 32.866701 
L 562.834286 33.515399 
L 565.476995 36.153371 
L 566.125714 36.937395 
L 568.637989 39.440042 
L 569.417143 40.425916 
L 571.738935 42.726712 
L 572.708571 44.051599 
L 574.694023 46.013382 
z
M 529.92 23.368718 
L 530.442037 23.006691 
L 529.92 22.257782 
L 529.557449 23.006691 
z
M 529.836898 23.006691 
L 529.92 22.83503 
L 530.039659 23.006691 
L 529.92 23.089673 
z
" clip-path="url(#p14b76e76a0)" style="fill: #cbdef1; fill-opacity: 0.9"/>
    <path d="M 529.92 23.089673 
L 530.039659 23.006691 
L 529.92 22.83503 
L 529.836898 23.006691 
z
M 520.045714 10.004101 
L 521.06304 9.86001 
L 521.670676 6.57334 
L 523.337143 3.331106 
L 523.45531 3.28667 
L 523.337143 3.110188 
L 521.566814 -0 
L 520.045714 -0 
L 516.754286 -0 
L 513.462857 -0 
L 510.171429 -0 
L 509.639068 -0 
L 510.171429 0.365561 
L 513.118501 3.28667 
L 513.462857 3.54823 
L 516.510037 6.57334 
L 516.754286 6.769914 
L 519.863488 9.86001 
z
M 572.708571 7.386249 
L 576 9.668079 
L 576 6.57334 
L 576 3.28667 
L 576 2.263266 
L 572.708571 0.718791 
L 571.658155 -0 
L 569.417143 -0 
L 566.125714 -0 
L 562.834286 -0 
L 559.956277 -0 
L 562.834286 1.130492 
L 566.125714 2.888501 
L 566.71424 3.28667 
L 569.417143 5.166306 
L 571.524817 6.57334 
z
" clip-path="url(#p14b76e76a0)" style="fill: #c6dbef; fill-opacity: 0.9"/>
    <path d="M 572.708571 0.718791 
L 576 2.263266 
L 576 -0 
L 572.708571 -0 
L 571.658155 -0 
z
" clip-path="url(#p14b76e76a0)" style="fill: #bed8ec; fill-opacity: 0.9"/>
    <path clip-path="url(#p14b76e76a0)" style="fill: #b5d4e9; fill-opacity: 0.9"/>
    <path clip-path="url(#p14b76e76a0)" style="fill: #add0e6; fill-opacity: 0.9"/>
    <path clip-path="url(#p14b76e76a0)" style="fill: #a5cde3; fill-opacity: 0.9"/>
    <path clip-path="url(#p14b76e76a0)" style="fill: #9cc9e1; fill-opacity: 0.9"/>
    <path clip-path="url(#p14b76e76a0)" style="fill: #91c3de; fill-opacity: 0.9"/>
    <path clip-path="url(#p14b76e76a0)" style="fill: #85bcdc; fill-opacity: 0.9"/>
    <path clip-path="url(#p14b76e76a0)" style="fill: #7cb7da; fill-opacity: 0.9"/>
    <path clip-path="url(#p14b76e76a0)" style="fill: #71b1d7; fill-opacity: 0.9"/>
    <path clip-path="url(#p14b76e76a0)" style="fill: #66abd4; fill-opacity: 0.9"/>
    <path clip-path="url(#p14b76e76a0)" style="fill: #5da5d1; fill-opacity: 0.9"/>
    <path clip-path="url(#p14b76e76a0)" style="fill: #56a0ce; fill-opacity: 0.9"/>
    <path clip-path="url(#p14b76e76a0)" style="fill: #4d99ca; fill-opacity: 0.9"/>
    <path clip-path="url(#p14b76e76a0)" style="fill: #4493c7; fill-opacity: 0.9"/>
    <path clip-path="url(#p14b76e76a0)" style="fill: #3c8cc3; fill-opacity: 0.9"/>
    <path clip-path="url(#p14b76e76a0)" style="fill: #3686c0; fill-opacity: 0.9"/>
    <path clip-path="url(#p14b76e76a0)" style="fill: #2f7fbc; fill-opacity: 0.9"/>
    <path clip-path="url(#p14b76e76a0)" style="fill: #2777b8; fill-opacity: 0.9"/>
    <path clip-path="url(#p14b76e76a0)" style="fill: #2070b4; fill-opacity: 0.9"/>
    <path clip-path="url(#p14b76e76a0)" style="fill: #1c6ab0; fill-opacity: 0.9"/>
    <path clip-path="url(#p14b76e76a0)" style="fill: #1663aa; fill-opacity: 0.9"/>
    <path clip-path="url(#p14b76e76a0)" style="fill: #115ca5; fill-opacity: 0.9"/>
    <path clip-path="url(#p14b76e76a0)" style="fill: #0c56a0; fill-opacity: 0.9"/>
    <path clip-path="url(#p14b76e76a0)" style="fill: #084f99; fill-opacity: 0.9"/>
    <path clip-path="url(#p14b76e76a0)" style="fill: #08488e; fill-opacity: 0.9"/>
    <path clip-path="url(#p14b76e76a0)" style="fill: #084184; fill-opacity: 0.9"/>
    <path clip-path="url(#p14b76e76a0)" style="fill: #083a7a; fill-opacity: 0.9"/>
    <path clip-path="url(#p14b76e76a0)" style="fill: #083370; fill-opacity: 0.9"/>
    <path clip-path="url(#p14b76e76a0)" style="fill: #08306b; fill-opacity: 0.9"/>
   </g>
   <g id="QuadContourSet_2">
    <path d="M 499.128868 -0 
L 500.297143 1.166586 
L 501.052377 1.490225 
M 516.864699 12.012383 
L 518.285806 13.146681 
L 520.045714 14.904045 
L 522.915377 16.433351 
L 523.337143 16.854507 
L 526.628571 18.870846 
L 527.848269 19.720021 
L 527.321857 23.006691 
L 529.92 25.601078 
L 533.211429 23.971499 
L 536.502857 25.078043 
L 538.557707 26.293361 
L 539.794286 27.064028 
L 543.085714 29.17836 
L 543.454074 29.580031 
L 546.377143 32.104103 
L 547.187751 32.866701 
L 549.668571 35.008932 
L 551.339112 36.153371 
L 552.96 37.771916 
L 556.039861 39.440042 
L 556.251429 39.651303 
L 559.542857 41.650278 
L 560.910037 42.726712 
L 562.834286 44.519612 
L 565.205071 46.013382 
L 566.125714 46.932694 
L 569.417143 47.048155 
L 572.049423 49.300052 
L 572.708571 49.688209 
L 575.19805 52.586722 
L 576 53.387513 
" clip-path="url(#p14b76e76a0)" style="fill: none"/>
    <path d="M 500.002895 -0 
L 500.297143 0.293823 
L 503.588571 1.981188 
L 505.40028 3.28667 
L 506.88 4.402586 
L 509.947619 6.57334 
L 510.171429 6.796827 
L 513.462857 9.051121 
L 514.449487 9.86001 
L 516.754286 11.431518 
L 518.90313 13.146681 
L 520.045714 14.287613 
L 523.337143 16.157692 
L 523.702413 16.433351 
L 526.628571 18.470595 
L 528.423161 19.720021 
L 527.601306 23.006691 
L 529.92 25.322033 
L 533.211429 23.108096 
L 536.502857 24.190165 
L 539.794286 26.131851 
L 539.935673 26.293361 
L 540.399959 26.632287 
M 555.393748 38.505664 
L 556.251429 38.982848 
L 556.859323 39.440042 
L 559.542857 41.169685 
L 561.520439 42.726712 
L 562.834286 43.950876 
L 566.107721 46.013382 
L 566.125714 46.031349 
L 566.300908 46.013382 
L 569.417143 45.821053 
L 569.595222 46.013382 
L 572.708571 48.98888 
L 572.999211 49.300052 
L 576 52.512841 
" clip-path="url(#p14b76e76a0)" style="fill: none"/>
    <path d="M 501.027793 -0 
L 503.588571 1.38532 
L 506.227207 3.28667 
L 506.88 3.778968 
L 510.171429 6.075066 
L 510.796537 6.57334 
L 513.462857 8.458652 
L 515.17214 9.86001 
L 516.754286 10.938783 
L 519.520454 13.146681 
L 520.045714 13.671181 
L 523.337143 15.723839 
L 524.277305 16.433351 
L 526.628571 18.070345 
L 528.998053 19.720021 
L 527.880755 23.006691 
L 529.92 25.042988 
L 532.856309 23.006691 
L 533.211429 21.942106 
L 535.601322 23.006691 
L 536.502857 23.302286 
L 539.794286 25.215652 
L 540.73772 26.293361 
L 543.085714 28.007381 
L 544.527943 29.580031 
L 546.377143 31.176816 
L 548.173416 32.866701 
L 549.668571 34.157794 
L 552.581521 36.153371 
L 552.96 36.531304 
L 556.251429 38.422059 
L 557.604961 39.440042 
L 557.838599 39.59063 
M 573.387146 49.235392 
L 573.447539 49.300052 
L 576 52.032839 
" clip-path="url(#p14b76e76a0)" style="fill: none"/>
    <path d="M 502.12926 -0 
L 503.588571 0.789452 
L 506.88 3.128593 
L 507.084729 3.28667 
L 510.171429 5.407171 
L 511.634441 6.57334 
L 513.462857 7.866184 
L 515.894794 9.86001 
L 516.754286 10.446048 
L 520.045714 13.070464 
L 520.142164 13.146681 
L 523.337143 15.289986 
L 524.626109 16.262729 
M 534.802438 21.154863 
L 536.502857 21.602694 
L 537.559426 23.006691 
L 539.794286 24.299452 
L 541.539768 26.293361 
L 543.085714 27.421892 
L 545.064878 29.580031 
L 546.377143 30.713173 
L 548.666248 32.866701 
L 549.668571 33.732225 
L 552.96 35.890365 
L 553.334264 36.153371 
L 556.251429 37.86127 
L 558.350599 39.440042 
L 559.542857 40.208499 
L 562.741242 42.726712 
L 562.834286 42.813404 
L 563.307012 42.726712 
L 566.125714 42.001504 
L 566.77415 42.726712 
L 569.417143 44.73619 
L 570.599701 46.013382 
L 572.708571 48.028876 
L 573.895867 49.300052 
L 576 51.552837 
" clip-path="url(#p14b76e76a0)" style="fill: none"/>
    <path d="M 503.230728 -0 
L 503.588571 0.193585 
L 504.756095 0.968402 
M 519.959469 12.491116 
L 520.045714 12.559404 
L 520.7889 13.146681 
L 523.337143 14.856133 
L 525.42709 16.433351 
L 526.628571 17.269844 
L 529.92 18.974705 
L 533.211429 18.493788 
L 536.502857 19.651581 
L 536.571525 19.720021 
L 539.143305 23.006691 
L 539.794286 23.383253 
L 542.341815 26.293361 
L 543.085714 26.836402 
L 545.601812 29.580031 
L 546.377143 30.24953 
L 549.15908 32.866701 
L 549.668571 33.306656 
L 552.96 35.217254 
L 554.292116 36.153371 
L 556.251429 37.300481 
L 559.096236 39.440042 
L 559.542857 39.727906 
L 561.398933 39.440042 
L 562.834286 38.741394 
L 563.404568 39.440042 
L 566.125714 41.203596 
L 567.48759 42.726712 
L 569.417143 44.193759 
L 571.10194 46.013382 
L 572.708571 47.548875 
L 574.344195 49.300052 
L 576 51.072836 
M 529.92 24.484898 
L 532.051552 23.006691 
L 529.92 19.948792 
L 528.439653 23.006691 
L 529.92 24.484898 
z
" clip-path="url(#p14b76e76a0)" style="fill: none"/>
    <path d="M 504.370235 -0 
L 505.837196 0.95112 
M 520.869165 12.699047 
L 521.435635 13.146681 
L 523.337143 14.422279 
L 526.001982 16.433351 
L 526.628571 16.869594 
L 529.92 17.094081 
L 530.984756 16.433351 
L 533.211429 15.920071 
L 533.726491 16.433351 
L 536.502857 19.002804 
L 537.222461 19.720021 
L 539.794286 22.580292 
L 540.222231 23.006691 
L 543.085714 26.233992 
L 543.145524 26.293361 
L 546.138747 29.580031 
L 546.377143 29.785886 
L 549.651912 32.866701 
L 549.668571 32.881087 
L 552.96 34.544144 
L 555.249968 36.153371 
L 556.251429 36.739692 
L 559.488598 36.153371 
L 559.542857 36.007109 
L 559.621505 36.153371 
L 562.834286 37.233108 
L 564.635731 39.440042 
L 566.125714 40.405689 
L 568.201029 42.726712 
L 569.417143 43.651328 
L 571.60418 46.013382 
L 572.708571 47.068873 
L 574.792523 49.300052 
L 576 50.592834 
M 529.92 24.205853 
L 531.649173 23.006691 
L 529.92 20.526039 
L 528.719102 23.006691 
L 529.92 24.205853 
z
" clip-path="url(#p14b76e76a0)" style="fill: none"/>
    <path d="M 505.528048 -0 
L 506.88 0.876552 
L 510.001384 3.28667 
L 510.171429 3.403487 
L 513.462857 5.925296 
L 514.115629 6.57334 
L 516.754286 8.696951 
L 517.924536 9.86001 
L 520.045714 11.537283 
L 522.082371 13.146681 
L 523.337143 13.988426 
L 526.576874 16.433351 
L 526.628571 16.469343 
L 527.02931 16.433351 
L 529.237867 13.146681 
L 529.92 12.915939 
L 530.151762 13.146681 
L 533.211429 15.221476 
L 534.427512 16.433351 
L 536.502857 18.354027 
L 537.873397 19.720021 
L 539.794286 21.856349 
L 540.9488 23.006691 
L 543.085714 25.41511 
L 543.970487 26.293361 
L 546.377143 29.053901 
L 546.907673 29.580031 
L 549.668571 32.043945 
L 550.962231 32.866701 
L 552.96 33.871033 
L 556.207821 36.153371 
L 556.251429 36.178902 
L 556.392389 36.153371 
L 557.591158 32.866701 
L 559.542857 32.223341 
L 560.187348 32.866701 
L 562.834286 35.825226 
L 563.163021 36.153371 
L 565.866894 39.440042 
L 566.125714 39.607781 
L 568.914469 42.726712 
L 569.417143 43.108897 
L 569.456546 43.151454 
M 529.92 23.926808 
L 531.246795 23.006691 
L 529.92 21.103287 
L 528.998551 23.006691 
L 529.92 23.926808 
z
" clip-path="url(#p14b76e76a0)" style="fill: none"/>
    <path d="M 506.68586 -0 
L 506.88 0.125872 
L 507.519903 0.574516 
M 522.198883 12.72769 
L 522.729107 13.146681 
L 523.337143 13.554573 
L 526.203405 13.146681 
L 526.628571 12.06631 
L 529.92 11.89027 
L 531.181969 13.146681 
L 533.211429 14.52288 
L 535.128534 16.433351 
L 536.502857 17.70525 
L 538.524333 19.720021 
L 539.794286 21.132406 
L 541.675368 23.006691 
L 543.085714 24.596228 
L 544.79545 26.293361 
L 546.377143 28.107633 
L 547.861854 29.580031 
L 549.668571 31.192403 
L 552.301151 32.866701 
L 552.96 33.197922 
L 554.482326 32.866701 
L 555.694293 29.580031 
L 556.251429 29.244041 
L 556.588096 29.580031 
L 559.542857 31.191876 
L 561.220628 32.866701 
L 562.834286 34.670313 
L 564.320008 36.153371 
L 566.125714 38.335697 
L 567.234308 39.440042 
L 569.417143 42.202015 
L 569.946628 42.726712 
L 572.608659 46.013382 
L 572.708571 46.10887 
L 575.68918 49.300052 
L 576 49.632831 
M 529.92 23.647763 
L 530.844416 23.006691 
L 529.92 21.680534 
L 529.278 23.006691 
L 529.92 23.647763 
z
" clip-path="url(#p14b76e76a0)" style="fill: none"/>
    <path d="M 508.133291 -0 
L 510.171429 1.399547 
L 512.075325 3.28667 
L 513.462857 4.340585 
L 515.711901 6.57334 
L 516.754286 7.41226 
L 519.217171 9.86001 
L 520.045714 10.515162 
L 523.337143 12.688873 
L 524.458851 9.86001 
L 526.628571 8.480647 
L 528.017671 9.86001 
L 529.92 10.8646 
L 532.212177 13.146681 
L 533.211429 13.824285 
L 535.829556 16.433351 
L 536.502857 17.056473 
L 539.17527 19.720021 
L 539.794286 20.408464 
L 542.401936 23.006691 
L 543.085714 23.777346 
L 545.620413 26.293361 
L 546.377143 27.161364 
L 548.816035 29.580031 
L 549.668571 30.340861 
L 552.552746 29.580031 
L 552.96 28.52706 
L 556.251429 27.35701 
L 558.478932 29.580031 
L 559.542857 30.16041 
L 562.253908 32.866701 
L 562.833928 33.514999 
M 575.681656 47.58442 
L 576 48.090812 
M 529.92 23.368718 
L 530.442037 23.006691 
L 529.92 22.257782 
L 529.557449 23.006691 
L 529.92 23.368718 
z
" clip-path="url(#p14b76e76a0)" style="fill: none"/>
    <path d="M 509.639068 -0 
L 509.872267 0.160133 
M 521.933692 6.061623 
L 523.337143 3.331106 
L 523.45531 3.28667 
L 523.337143 3.110188 
L 521.566814 -0 
M 559.956277 -0 
L 561.155625 0.471108 
M 529.92 23.089673 
L 530.039659 23.006691 
L 529.92 22.83503 
L 529.836898 23.006691 
L 529.92 23.089673 
z
" clip-path="url(#p14b76e76a0)" style="fill: none"/>
    <path d="M 571.658155 -0 
L 572.708571 0.718791 
L 576 2.263266 
" clip-path="url(#p14b76e76a0)" style="fill: none"/>
    <path clip-path="url(#p14b76e76a0)" style="fill: none"/>
    <path clip-path="url(#p14b76e76a0)" style="fill: none"/>
    <path clip-path="url(#p14b76e76a0)" style="fill: none"/>
    <path clip-path="url(#p14b76e76a0)" style="fill: none"/>
    <path clip-path="url(#p14b76e76a0)" style="fill: none"/>
    <path clip-path="url(#p14b76e76a0)" style="fill: none"/>
    <path clip-path="url(#p14b76e76a0)" style="fill: none"/>
    <path clip-path="url(#p14b76e76a0)" style="fill: none"/>
    <path clip-path="url(#p14b76e76a0)" style="fill: none"/>
    <path clip-path="url(#p14b76e76a0)" style="fill: none"/>
    <path clip-path="url(#p14b76e76a0)" style="fill: none"/>
    <path clip-path="url(#p14b76e76a0)" style="fill: none"/>
    <path clip-path="url(#p14b76e76a0)" style="fill: none"/>
    <path clip-path="url(#p14b76e76a0)" style="fill: none"/>
    <path clip-path="url(#p14b76e76a0)" style="fill: none"/>
    <path clip-path="url(#p14b76e76a0)" style="fill: none"/>
    <path clip-path="url(#p14b76e76a0)" style="fill: none"/>
    <path clip-path="url(#p14b76e76a0)" style="fill: none"/>
    <path clip-path="url(#p14b76e76a0)" style="fill: none"/>
    <path clip-path="url(#p14b76e76a0)" style="fill: none"/>
    <path clip-path="url(#p14b76e76a0)" style="fill: none"/>
    <path clip-path="url(#p14b76e76a0)" style="fill: none"/>
    <path clip-path="url(#p14b76e76a0)" style="fill: none"/>
    <path clip-path="url(#p14b76e76a0)" style="fill: none"/>
    <path clip-path="url(#p14b76e76a0)" style="fill: none"/>
    <path clip-path="url(#p14b76e76a0)" style="fill: none"/>
    <path clip-path="url(#p14b76e76a0)" style="fill: none"/>
    <path clip-path="url(#p14b76e76a0)" style="fill: none"/>
   </g>
   <g id="text_1">
    <g clip-path="url(#p14b76e76a0)">
     <!-- 0 -->
     <g style="opacity: 0" transform="translate(504.0353 7.048993) rotate(-324.462947) scale(0.12 -0.12)">
      <defs>
       <path id="DejaVuSans-30" d="M 2034 4250 
Q 1547 4250 1301 3770 
Q 1056 3291 1056 2328 
Q 1056 1369 1301 889 
Q 1547 409 2034 409 
Q 2525 409 2770 889 
Q 3016 1369 3016 2328 
Q 3016 3291 2770 3770 
Q 2525 4250 2034 4250 
z
M 2034 4750 
Q 2819 4750 3233 4129 
Q 3647 3509 3647 2328 
Q 3647 1150 3233 529 
Q 2819 -91 2034 -91 
Q 1250 -91 836 529 
Q 422 1150 422 2328 
Q 422 3509 836 4129 
Q 1250 4750 2034 4750 
z
" transform="scale(0.015625)"/>
      </defs>
      <use xlink:href="#DejaVuSans-30"/>
     </g>
    </g>
   </g>
   <g id="text_2">
    <g clip-path="url(#p14b76e76a0)">
     <!-- 1 -->
     <g style="opacity: 0" transform="translate(542.628528 32.986786) rotate(-320.423683) scale(0.12 -0.12)">
      <defs>
       <path id="DejaVuSans-31" d="M 794 531 
L 1825 531 
L 1825 4091 
L 703 3866 
L 703 4441 
L 1819 4666 
L 2450 4666 
L 2450 531 
L 3481 531 
L 3481 0 
L 794 0 
L 794 531 
z
" transform="scale(0.015625)"/>
      </defs>
      <use xlink:href="#DejaVuSans-31"/>
     </g>
    </g>
   </g>
   <g id="text_3">
    <g clip-path="url(#p14b76e76a0)">
     <!-- 2 -->
     <g style="opacity: 0" transform="translate(561.310568 44.53991) rotate(-336.728906) scale(0.12 -0.12)">
      <defs>
       <path id="DejaVuSans-32" d="M 1228 531 
L 3431 531 
L 3431 0 
L 469 0 
L 469 531 
Q 828 903 1448 1529 
Q 2069 2156 2228 2338 
Q 2531 2678 2651 2914 
Q 2772 3150 2772 3378 
Q 2772 3750 2511 3984 
Q 2250 4219 1831 4219 
Q 1534 4219 1204 4116 
Q 875 4013 500 3803 
L 500 4441 
Q 881 4594 1212 4672 
Q 1544 4750 1819 4750 
Q 2544 4750 2975 4387 
Q 3406 4025 3406 3419 
Q 3406 3131 3298 2873 
Q 3191 2616 2906 2266 
Q 2828 2175 2409 1742 
Q 1991 1309 1228 531 
z
" transform="scale(0.015625)"/>
      </defs>
      <use xlink:href="#DejaVuSans-32"/>
     </g>
    </g>
   </g>
   <g id="text_4">
    <g clip-path="url(#p14b76e76a0)">
     <!-- 3 -->
     <g style="opacity: 0" transform="translate(523.192097 22.081706) rotate(-308.515229) scale(0.12 -0.12)">
      <defs>
       <path id="DejaVuSans-33" d="M 2597 2516 
Q 3050 2419 3304 2112 
Q 3559 1806 3559 1356 
Q 3559 666 3084 287 
Q 2609 -91 1734 -91 
Q 1441 -91 1130 -33 
Q 819 25 488 141 
L 488 750 
Q 750 597 1062 519 
Q 1375 441 1716 441 
Q 2309 441 2620 675 
Q 2931 909 2931 1356 
Q 2931 1769 2642 2001 
Q 2353 2234 1838 2234 
L 1294 2234 
L 1294 2753 
L 1863 2753 
Q 2328 2753 2575 2939 
Q 2822 3125 2822 3475 
Q 2822 3834 2567 4026 
Q 2313 4219 1838 4219 
Q 1578 4219 1281 4162 
Q 984 4106 628 3988 
L 628 4550 
Q 988 4650 1302 4700 
Q 1616 4750 1894 4750 
Q 2613 4750 3031 4423 
Q 3450 4097 3450 3541 
Q 3450 3153 3228 2886 
Q 3006 2619 2597 2516 
z
" transform="scale(0.015625)"/>
      </defs>
      <use xlink:href="#DejaVuSans-33"/>
     </g>
    </g>
   </g>
   <g id="text_5">
    <g clip-path="url(#p14b76e76a0)">
     <!-- 4 -->
     <g style="opacity: 0" transform="translate(507.428187 6.880174) rotate(-322.543035) scale(0.12 -0.12)">
      <defs>
       <path id="DejaVuSans-34" d="M 2419 4116 
L 825 1625 
L 2419 1625 
L 2419 4116 
z
M 2253 4666 
L 3047 4666 
L 3047 1625 
L 3713 1625 
L 3713 1100 
L 3047 1100 
L 3047 0 
L 2419 0 
L 2419 1100 
L 313 1100 
L 313 1709 
L 2253 4666 
z
" transform="scale(0.015625)"/>
      </defs>
      <use xlink:href="#DejaVuSans-34"/>
     </g>
    </g>
   </g>
   <g id="text_6">
    <g clip-path="url(#p14b76e76a0)">
     <!-- 5 -->
     <g style="opacity: 0" transform="translate(508.413553 6.886699) rotate(-321.392089) scale(0.12 -0.12)">
      <defs>
       <path id="DejaVuSans-35" d="M 691 4666 
L 3169 4666 
L 3169 4134 
L 1269 4134 
L 1269 2991 
Q 1406 3038 1543 3061 
Q 1681 3084 1819 3084 
Q 2600 3084 3056 2656 
Q 3513 2228 3513 1497 
Q 3513 744 3044 326 
Q 2575 -91 1722 -91 
Q 1428 -91 1123 -41 
Q 819 9 494 109 
L 494 744 
Q 775 591 1075 516 
Q 1375 441 1709 441 
Q 2250 441 2565 725 
Q 2881 1009 2881 1497 
Q 2881 1984 2565 2268 
Q 2250 2553 1709 2553 
Q 1456 2553 1204 2497 
Q 953 2441 691 2322 
L 691 4666 
z
" transform="scale(0.015625)"/>
      </defs>
      <use xlink:href="#DejaVuSans-35"/>
     </g>
    </g>
   </g>
   <g id="text_7">
    <g clip-path="url(#p14b76e76a0)">
     <!-- 6 -->
     <g style="opacity: 0" transform="translate(570.972238 49.603625) rotate(-313.278898) scale(0.12 -0.12)">
      <defs>
       <path id="DejaVuSans-36" d="M 2113 2584 
Q 1688 2584 1439 2293 
Q 1191 2003 1191 1497 
Q 1191 994 1439 701 
Q 1688 409 2113 409 
Q 2538 409 2786 701 
Q 3034 994 3034 1497 
Q 3034 2003 2786 2293 
Q 2538 2584 2113 2584 
z
M 3366 4563 
L 3366 3988 
Q 3128 4100 2886 4159 
Q 2644 4219 2406 4219 
Q 1781 4219 1451 3797 
Q 1122 3375 1075 2522 
Q 1259 2794 1537 2939 
Q 1816 3084 2150 3084 
Q 2853 3084 3261 2657 
Q 3669 2231 3669 1497 
Q 3669 778 3244 343 
Q 2819 -91 2113 -91 
Q 1303 -91 875 529 
Q 447 1150 447 2328 
Q 447 3434 972 4092 
Q 1497 4750 2381 4750 
Q 2619 4750 2861 4703 
Q 3103 4656 3366 4563 
z
" transform="scale(0.015625)"/>
      </defs>
      <use xlink:href="#DejaVuSans-36"/>
     </g>
    </g>
   </g>
   <g id="text_8">
    <g clip-path="url(#p14b76e76a0)">
     <!-- 7 -->
     <g style="opacity: 0" transform="translate(509.860283 6.570311) rotate(-319.027714) scale(0.12 -0.12)">
      <defs>
       <path id="DejaVuSans-37" d="M 525 4666 
L 3525 4666 
L 3525 4397 
L 1831 0 
L 1172 0 
L 2766 4134 
L 525 4134 
L 525 4666 
z
" transform="scale(0.015625)"/>
      </defs>
      <use xlink:href="#DejaVuSans-37"/>
     </g>
    </g>
   </g>
   <g id="text_9">
    <g clip-path="url(#p14b76e76a0)">
     <!-- 8 -->
     <g style="opacity: 0" transform="translate(564.39244 39.887355) rotate(-312.944299) scale(0.12 -0.12)">
      <defs>
       <path id="DejaVuSans-38" d="M 2034 2216 
Q 1584 2216 1326 1975 
Q 1069 1734 1069 1313 
Q 1069 891 1326 650 
Q 1584 409 2034 409 
Q 2484 409 2743 651 
Q 3003 894 3003 1313 
Q 3003 1734 2745 1975 
Q 2488 2216 2034 2216 
z
M 1403 2484 
Q 997 2584 770 2862 
Q 544 3141 544 3541 
Q 544 4100 942 4425 
Q 1341 4750 2034 4750 
Q 2731 4750 3128 4425 
Q 3525 4100 3525 3541 
Q 3525 3141 3298 2862 
Q 3072 2584 2669 2484 
Q 3125 2378 3379 2068 
Q 3634 1759 3634 1313 
Q 3634 634 3220 271 
Q 2806 -91 2034 -91 
Q 1263 -91 848 271 
Q 434 634 434 1313 
Q 434 1759 690 2068 
Q 947 2378 1403 2484 
z
M 1172 3481 
Q 1172 3119 1398 2916 
Q 1625 2713 2034 2713 
Q 2441 2713 2670 2916 
Q 2900 3119 2900 3481 
Q 2900 3844 2670 4047 
Q 2441 4250 2034 4250 
Q 1625 4250 1398 4047 
Q 1172 3844 1172 3481 
z
" transform="scale(0.015625)"/>
      </defs>
      <use xlink:href="#DejaVuSans-38"/>
     </g>
    </g>
   </g>
   <g id="text_10">
    <g clip-path="url(#p14b76e76a0)">
     <!-- 9 -->
     <g style="opacity: 0" transform="translate(511.703322 6.61039) rotate(-317.25309) scale(0.12 -0.12)">
      <defs>
       <path id="DejaVuSans-39" d="M 703 97 
L 703 672 
Q 941 559 1184 500 
Q 1428 441 1663 441 
Q 2288 441 2617 861 
Q 2947 1281 2994 2138 
Q 2813 1869 2534 1725 
Q 2256 1581 1919 1581 
Q 1219 1581 811 2004 
Q 403 2428 403 3163 
Q 403 3881 828 4315 
Q 1253 4750 1959 4750 
Q 2769 4750 3195 4129 
Q 3622 3509 3622 2328 
Q 3622 1225 3098 567 
Q 2575 -91 1691 -91 
Q 1453 -91 1209 -44 
Q 966 3 703 97 
z
M 1959 2075 
Q 2384 2075 2632 2365 
Q 2881 2656 2881 3163 
Q 2881 3666 2632 3958 
Q 2384 4250 1959 4250 
Q 1534 4250 1286 3958 
Q 1038 3666 1038 3163 
Q 1038 2656 1286 2365 
Q 1534 2075 1959 2075 
z
" transform="scale(0.015625)"/>
      </defs>
      <use xlink:href="#DejaVuSans-39"/>
     </g>
    </g>
   </g>
   <g id="text_11">
    <g clip-path="url(#p14b76e76a0)">
     <!-- 9 -->
     <g style="opacity: 0" transform="translate(564.404544 5.807816) rotate(-326.355093) scale(0.12 -0.12)">
      <use xlink:href="#DejaVuSans-39"/>
     </g>
    </g>
   </g>
  </g>
 </g>
 <defs>
  <clipPath id="p14b76e76a0">
   <rect x="0" y="0" width="576" height="818.380863"/>
  </clipPath>
 </defs>
</svg>
