<?xml version="1.0" encoding="utf-8" standalone="no"?>
<!DOCTYPE svg PUBLIC "-//W3C//DTD SVG 1.1//EN"
  "http://www.w3.org/Graphics/SVG/1.1/DTD/svg11.dtd">
<svg xmlns:xlink="http://www.w3.org/1999/xlink" width="576pt" height="818.669339pt" viewBox="0 0 576 818.669339" xmlns="http://www.w3.org/2000/svg" version="1.1">
 <metadata>
  <rdf:RDF xmlns:dc="http://purl.org/dc/elements/1.1/" xmlns:cc="http://creativecommons.org/ns#" xmlns:rdf="http://www.w3.org/1999/02/22-rdf-syntax-ns#">
   <cc:Work>
    <dc:type rdf:resource="http://purl.org/dc/dcmitype/StillImage"/>
    <dc:date>2025-07-25T22:44:08.328320</dc:date>
    <dc:format>image/svg+xml</dc:format>
    <dc:creator>
     <cc:Agent>
      <dc:title>Matplotlib v3.10.3, https://matplotlib.org/</dc:title>
     </cc:Agent>
    </dc:creator>
   </cc:Work>
  </rdf:RDF>
 </metadata>
 <defs>
  <style type="text/css">*{stroke-linejoin: round; stroke-linecap: butt}</style>
 </defs>
 <g id="figure_1">
  <g id="patch_1">
   <path d="M 0 818.669339 
L 576 818.669339 
L 576 0 
L 0 0 
L 0 818.669339 
z
" style="fill: none; opacity: 0"/>
  </g>
  <g id="axes_1">
   <g id="QuadContourSet_1">
    <path d="M 3.291429 73.149609 
L 6.582857 72.627073 
L 6.8612 72.332231 
L 9.874286 70.410398 
L 12.003661 69.044402 
L 13.165714 68.117103 
L 16.072545 65.756573 
L 16.457143 65.392508 
L 18.515331 62.468745 
L 19.748571 60.979399 
L 22.062406 59.180916 
L 23.04 56.817419 
L 26.040159 55.893087 
L 26.331429 55.522733 
L 26.526096 55.893087 
L 29.622857 56.983029 
L 32.914286 56.805118 
L 33.970388 55.893087 
L 36.205714 54.102275 
L 39.497143 52.753979 
L 39.646213 52.605259 
L 42.788571 50.530043 
L 44.254913 49.31743 
L 46.08 46.851547 
L 47.293725 46.029601 
L 49.099741 42.741773 
L 49.371429 42.473627 
L 52.662857 39.826254 
L 54.323738 42.741773 
L 55.954286 43.041234 
L 57.812005 42.741773 
L 59.245714 42.220116 
L 62.537143 40.701901 
L 65.497263 39.453944 
L 65.828571 39.226142 
L 69.12 37.902303 
L 71.226107 36.166115 
L 72.411429 35.03813 
L 74.695209 32.878287 
L 75.702857 31.718982 
L 78.441755 29.590458 
L 78.994286 28.903808 
L 82.110476 29.590458 
L 82.285714 29.901559 
L 85.577143 30.277149 
L 88.868571 30.602115 
L 91.888347 29.590458 
L 92.16 29.429527 
L 95.451429 27.969738 
L 98.742857 27.747564 
L 100.444622 26.302629 
L 102.034286 25.105384 
L 104.368574 23.014801 
L 105.325714 21.981521 
L 108.225601 19.726972 
L 108.617143 19.290595 
L 110.861836 19.726972 
L 111.908571 21.506156 
L 115.2 20.507161 
L 118.491429 20.913194 
L 121.505483 19.726972 
L 121.782857 19.55521 
L 125.074286 18.222329 
L 128.365714 18.06514 
L 130.694831 16.439143 
L 131.657143 15.79751 
L 134.683255 13.151315 
L 134.948571 12.893075 
L 138.24 10.827385 
L 141.531429 12.891011 
L 144.822857 10.788548 
L 148.114286 11.176077 
L 151.405714 9.939713 
L 151.481942 9.863486 
L 154.697143 8.452673 
L 157.988571 8.318545 
L 161.045102 6.575657 
L 161.28 6.429807 
L 164.571429 3.93384 
L 166.160103 3.287829 
L 167.862857 2.259792 
L 171.001121 3.287829 
L 171.154286 3.327792 
L 171.195964 3.287829 
L 174.445714 1.007598 
L 177.737143 1.341209 
L 181.028571 0.251826 
L 181.295247 -0 
L 181.028571 -0 
L 178.778778 0 
L 177.737143 0.372471 
L 175.360458 -0 
L 174.445714 -0 
L 171.154286 -0 
L 168.339268 -0 
L 167.862857 0.230786 
L 164.571429 2.755652 
L 164.020959 3.287829 
L 161.28 5.563166 
L 159.64934 6.575657 
L 157.988571 7.522657 
L 154.697143 7.726598 
L 151.405714 8.316483 
L 148.863407 9.863486 
L 148.114286 10.151486 
L 146.303492 9.863486 
L 144.822857 7.343396 
L 144.142896 6.575657 
L 141.531429 6.264081 
L 141.209389 6.575657 
L 138.24 9.077588 
L 137.43062 9.863486 
L 134.948571 11.998996 
L 133.764675 13.151315 
L 131.657143 14.994254 
L 129.490122 16.439143 
L 128.365714 17.224112 
L 125.074286 17.47854 
L 121.782857 17.914825 
L 118.856457 19.726972 
L 118.491429 19.870634 
L 117.579026 19.726972 
L 115.737764 16.439143 
L 115.2 15.578388 
L 111.908571 15.126777 
L 110.817734 16.439143 
L 108.617143 17.938148 
L 107.012111 19.726972 
L 105.325714 21.038079 
L 103.494652 23.014801 
L 102.034286 24.322701 
L 99.405403 26.302629 
L 98.742857 26.865184 
L 95.451429 27.173802 
L 92.16 27.517095 
L 88.868571 28.719396 
L 87.559225 26.302629 
L 85.582649 23.014801 
L 85.577143 23.006468 
L 85.550284 23.014801 
L 82.285714 23.381069 
L 80.46861 26.302629 
L 78.994286 27.251846 
L 77.112461 29.590458 
L 75.702857 30.685926 
L 73.797294 32.878287 
L 72.411429 34.188944 
L 70.333756 36.166115 
L 69.12 37.166686 
L 65.828571 37.642062 
L 63.193421 39.453944 
L 62.537143 39.730624 
L 60.343001 39.453944 
L 59.245714 37.391998 
L 58.567352 36.166115 
L 55.954286 35.261341 
L 55.312665 36.166115 
L 52.662857 38.075471 
L 51.271487 39.453944 
L 49.371429 41.176724 
L 47.785709 42.741773 
L 46.08 45.120432 
L 45.148236 46.029601 
L 43.047513 49.31743 
L 42.788571 49.531565 
L 39.497143 51.06733 
L 37.237817 52.605259 
L 36.205714 53.041898 
L 32.921737 52.605259 
L 32.914286 52.590271 
L 31.247461 49.31743 
L 29.622857 46.330201 
L 29.084446 49.31743 
L 26.331429 51.14803 
L 24.913483 52.605259 
L 23.04 54.536952 
L 21.672249 55.893087 
L 20.528129 59.180916 
L 19.748571 59.786846 
L 17.527846 62.468745 
L 16.457143 63.989735 
L 14.590658 65.756573 
L 13.165714 66.913718 
L 10.495629 69.044402 
L 9.874286 69.442994 
L 6.582857 69.172022 
L 6.296066 69.044402 
L 4.796143 65.756573 
L 3.291429 62.565897 
L 0 64.451145 
L 0 65.756573 
L 0 69.044402 
L 0 72.332231 
L -0 74.349462 
z
" clip-path="url(#p99fcef32bc)" style="fill: #f5f9fe; fill-opacity: 0.9"/>
    <path d="M 6.582857 69.172022 
L 9.874286 69.442994 
L 10.495629 69.044402 
L 13.165714 66.913718 
L 14.590658 65.756573 
L 16.457143 63.989735 
L 17.527846 62.468745 
L 19.748571 59.786846 
L 20.528129 59.180916 
L 21.672249 55.893087 
L 23.04 54.536952 
L 24.913483 52.605259 
L 26.331429 51.14803 
L 29.084446 49.31743 
L 29.622857 46.330201 
L 31.247461 49.31743 
L 32.914286 52.590271 
L 32.921737 52.605259 
L 36.205714 53.041898 
L 37.237817 52.605259 
L 39.497143 51.06733 
L 42.788571 49.531565 
L 43.047513 49.31743 
L 45.148236 46.029601 
L 46.08 45.120432 
L 47.785709 42.741773 
L 49.371429 41.176724 
L 51.271487 39.453944 
L 52.662857 38.075471 
L 55.312665 36.166115 
L 55.954286 35.261341 
L 58.567352 36.166115 
L 59.245714 37.391998 
L 60.343001 39.453944 
L 62.537143 39.730624 
L 63.193421 39.453944 
L 65.828571 37.642062 
L 69.12 37.166686 
L 70.333756 36.166115 
L 72.411429 34.188944 
L 73.797294 32.878287 
L 75.702857 30.685926 
L 77.112461 29.590458 
L 78.994286 27.251846 
L 80.46861 26.302629 
L 82.285714 23.381069 
L 85.550284 23.014801 
L 85.577143 23.006468 
L 85.582649 23.014801 
L 87.559225 26.302629 
L 88.868571 28.719396 
L 92.16 27.517095 
L 95.451429 27.173802 
L 98.742857 26.865184 
L 99.405403 26.302629 
L 102.034286 24.322701 
L 103.494652 23.014801 
L 105.325714 21.038079 
L 107.012111 19.726972 
L 108.617143 17.938148 
L 110.817734 16.439143 
L 111.908571 15.126777 
L 115.2 15.578388 
L 115.737764 16.439143 
L 117.579026 19.726972 
L 118.491429 19.870634 
L 118.856457 19.726972 
L 121.782857 17.914825 
L 125.074286 17.47854 
L 128.365714 17.224112 
L 129.490122 16.439143 
L 131.657143 14.994254 
L 133.764675 13.151315 
L 134.948571 11.998996 
L 137.43062 9.863486 
L 138.24 9.077588 
L 141.209389 6.575657 
L 141.531429 6.264081 
L 144.142896 6.575657 
L 144.822857 7.343396 
L 146.303492 9.863486 
L 148.114286 10.151486 
L 148.863407 9.863486 
L 151.405714 8.316483 
L 154.697143 7.726598 
L 157.988571 7.522657 
L 159.64934 6.575657 
L 161.28 5.563166 
L 164.020959 3.287829 
L 164.571429 2.755652 
L 167.862857 0.230786 
L 168.339268 -0 
L 167.862857 -0 
L 166.748003 -0 
L 164.571429 1.746357 
L 162.976969 3.287829 
L 161.28 4.696525 
L 158.253578 6.575657 
L 157.988571 6.726768 
L 154.697143 7.000522 
L 151.405714 6.694771 
L 150.928488 6.575657 
L 148.955825 3.287829 
L 148.114286 2.013031 
L 144.822857 2.408132 
L 143.906072 3.287829 
L 141.531429 5.105451 
L 140.011848 6.575657 
L 138.24 8.068571 
L 136.391456 9.863486 
L 134.948571 11.104918 
L 132.846094 13.151315 
L 131.657143 14.190998 
L 128.365714 16.260336 
L 127.892971 16.439143 
L 125.074286 16.734751 
L 122.44668 16.439143 
L 121.782857 15.242032 
L 120.586657 13.151315 
L 118.512112 9.863486 
L 118.491429 9.833562 
L 115.2 9.018233 
L 114.308665 9.863486 
L 111.908571 12.741734 
L 111.463433 13.151315 
L 108.832294 16.439143 
L 108.617143 16.585701 
L 105.79862 19.726972 
L 105.325714 20.094638 
L 102.620731 23.014801 
L 102.034286 23.540019 
L 98.742857 25.257234 
L 96.132255 26.302629 
L 95.451429 26.377866 
L 94.774312 26.302629 
L 93.0036 23.014801 
L 92.16 21.539942 
L 91.081384 19.726972 
L 88.924609 16.439143 
L 88.868571 16.41089 
L 88.838792 16.439143 
L 85.577143 18.163409 
L 83.966819 19.726972 
L 82.285714 21.204625 
L 80.409008 23.014801 
L 78.994286 25.045201 
L 77.654229 26.302629 
L 75.783167 29.590458 
L 75.702857 29.65287 
L 72.89938 32.878287 
L 72.411429 33.339757 
L 69.441406 36.166115 
L 69.12 36.431069 
L 66.35299 36.166115 
L 65.828571 35.156326 
L 64.622396 32.878287 
L 62.773849 29.590458 
L 62.537143 29.194059 
L 59.245714 27.909007 
L 57.523535 29.590458 
L 55.954286 32.009745 
L 55.015051 32.878287 
L 53.346013 36.166115 
L 52.662857 36.658373 
L 49.841129 39.453944 
L 49.371429 39.879821 
L 46.471677 42.741773 
L 46.08 43.287977 
L 43.270241 46.029601 
L 42.788571 46.838861 
L 39.601193 49.31743 
L 39.497143 49.361181 
L 39.292461 49.31743 
L 37.822351 46.029601 
L 36.205714 43.167869 
L 35.981246 42.741773 
L 32.914286 39.84837 
L 30.028254 42.741773 
L 29.622857 42.90735 
L 26.490883 46.029601 
L 26.376956 49.31743 
L 26.331429 49.347703 
L 23.161687 52.605259 
L 23.04 52.730727 
L 19.850553 55.893087 
L 19.748571 56.229028 
L 16.475783 55.893087 
L 17.800958 52.605259 
L 19.748571 50.076266 
L 20.486012 49.31743 
L 21.283902 46.029601 
L 19.748571 44.029356 
L 17.934176 42.741773 
L 16.457143 42.154849 
L 13.165714 41.686585 
L 9.874286 41.441244 
L 6.582857 40.862329 
L 3.291429 39.9879 
L 1.993746 39.453944 
L 0 38.880868 
L 0 39.453944 
L 0 42.741773 
L 0 46.029601 
L 0 49.31743 
L 0 52.605259 
L 0 55.893087 
L 0 59.180916 
L 0 62.468745 
L 0 64.451145 
L 3.291429 62.565897 
L 4.796143 65.756573 
L 6.296066 69.044402 
z
M 12.990105 62.468745 
L 13.165714 61.478657 
L 14.772767 59.180916 
L 16.457143 55.923832 
L 16.668631 59.180916 
L 16.540362 62.468745 
L 16.457143 62.586962 
L 13.165714 63.341509 
z
M 177.737143 0.372471 
L 178.778778 0 
L 177.737143 -0 
L 175.360458 -0 
z
" clip-path="url(#p99fcef32bc)" style="fill: #eff6fc; fill-opacity: 0.9"/>
    <path d="M 13.165714 63.341509 
L 16.457143 62.586962 
L 16.540362 62.468745 
L 16.668631 59.180916 
L 16.457143 55.923832 
L 14.772767 59.180916 
L 13.165714 61.478657 
L 12.990105 62.468745 
z
M 19.748571 56.229028 
L 19.850553 55.893087 
L 23.04 52.730727 
L 23.161687 52.605259 
L 26.331429 49.347703 
L 26.376956 49.31743 
L 26.490883 46.029601 
L 29.622857 42.90735 
L 30.028254 42.741773 
L 32.914286 39.84837 
L 35.981246 42.741773 
L 36.205714 43.167869 
L 37.822351 46.029601 
L 39.292461 49.31743 
L 39.497143 49.361181 
L 39.601193 49.31743 
L 42.788571 46.838861 
L 43.270241 46.029601 
L 46.08 43.287977 
L 46.471677 42.741773 
L 49.371429 39.879821 
L 49.841129 39.453944 
L 52.662857 36.658373 
L 53.346013 36.166115 
L 55.015051 32.878287 
L 55.954286 32.009745 
L 57.523535 29.590458 
L 59.245714 27.909007 
L 62.537143 29.194059 
L 62.773849 29.590458 
L 64.622396 32.878287 
L 65.828571 35.156326 
L 66.35299 36.166115 
L 69.12 36.431069 
L 69.441406 36.166115 
L 72.411429 33.339757 
L 72.89938 32.878287 
L 75.702857 29.65287 
L 75.783167 29.590458 
L 77.654229 26.302629 
L 78.994286 25.045201 
L 80.409008 23.014801 
L 82.285714 21.204625 
L 83.966819 19.726972 
L 85.577143 18.163409 
L 88.838792 16.439143 
L 88.868571 16.41089 
L 88.924609 16.439143 
L 91.081384 19.726972 
L 92.16 21.539942 
L 93.0036 23.014801 
L 94.774312 26.302629 
L 95.451429 26.377866 
L 96.132255 26.302629 
L 98.742857 25.257234 
L 102.034286 23.540019 
L 102.620731 23.014801 
L 105.325714 20.094638 
L 105.79862 19.726972 
L 108.617143 16.585701 
L 108.832294 16.439143 
L 111.463433 13.151315 
L 111.908571 12.741734 
L 114.308665 9.863486 
L 115.2 9.018233 
L 118.491429 9.833562 
L 118.512112 9.863486 
L 120.586657 13.151315 
L 121.782857 15.242032 
L 122.44668 16.439143 
L 125.074286 16.734751 
L 127.892971 16.439143 
L 128.365714 16.260336 
L 131.657143 14.190998 
L 132.846094 13.151315 
L 134.948571 11.104918 
L 136.391456 9.863486 
L 138.24 8.068571 
L 140.011848 6.575657 
L 141.531429 5.105451 
L 143.906072 3.287829 
L 144.822857 2.408132 
L 148.114286 2.013031 
L 148.955825 3.287829 
L 150.928488 6.575657 
L 151.405714 6.694771 
L 154.697143 7.000522 
L 157.988571 6.726768 
L 158.253578 6.575657 
L 161.28 4.696525 
L 162.976969 3.287829 
L 164.571429 1.746357 
L 166.748003 -0 
L 165.490067 -0 
L 164.571429 0.737062 
L 161.93298 3.287829 
L 161.28 3.829884 
L 157.988571 4.331564 
L 155.541714 3.287829 
L 154.697143 1.854336 
L 153.568816 -0 
L 151.405714 -0 
L 148.114286 -0 
L 146.307604 -0 
L 144.822857 0.95567 
L 142.392373 3.287829 
L 141.531429 3.946821 
L 138.814308 6.575657 
L 138.24 7.059554 
L 135.352291 9.863486 
L 134.948571 10.210839 
L 131.927514 13.151315 
L 131.657143 13.387742 
L 128.365714 13.57783 
L 127.305583 13.151315 
L 125.611416 9.863486 
L 125.074286 9.243505 
L 123.401756 6.575657 
L 121.782857 4.226882 
L 118.491429 4.486949 
L 116.218295 6.575657 
L 115.2 7.145852 
L 112.334203 9.863486 
L 111.908571 10.373914 
L 108.89005 13.151315 
L 108.617143 13.500798 
L 105.325714 16.285907 
L 102.034286 14.15074 
L 100.722689 13.151315 
L 98.742857 12.104185 
L 95.451429 9.990197 
L 95.288265 9.863486 
L 92.16 7.912666 
L 88.868571 8.359238 
L 86.349446 9.863486 
L 85.577143 10.442055 
L 82.285714 11.468587 
L 78.994286 11.98937 
L 75.702857 12.271366 
L 72.411429 12.328361 
L 69.12 12.287368 
L 65.828571 12.051293 
L 62.537143 11.63157 
L 59.245714 11.022393 
L 55.954286 10.515092 
L 52.662857 11.556547 
L 49.917436 13.151315 
L 49.371429 13.459134 
L 46.08 15.038902 
L 42.788571 16.139073 
L 41.577472 16.439143 
L 39.497143 17.026626 
L 36.205714 17.914706 
L 32.914286 18.284103 
L 29.622857 18.261802 
L 26.331429 18.250709 
L 23.04 18.516076 
L 20.047606 19.726972 
L 19.748571 19.880704 
L 16.457143 22.119664 
L 14.703297 23.014801 
L 13.165714 24.073081 
L 9.874286 25.909834 
L 8.908533 26.302629 
L 6.582857 27.181003 
L 3.291429 27.88548 
L -0 27.982289 
L 0 29.590458 
L 0 32.878287 
L 0 36.166115 
L 0 38.880868 
L 1.993746 39.453944 
L 3.291429 39.9879 
L 6.582857 40.862329 
L 9.874286 41.441244 
L 13.165714 41.686585 
L 16.457143 42.154849 
L 17.934176 42.741773 
L 19.748571 44.029356 
L 21.283902 46.029601 
L 20.486012 49.31743 
L 19.748571 50.076266 
L 17.800958 52.605259 
L 16.475783 55.893087 
z
" clip-path="url(#p99fcef32bc)" style="fill: #eaf3fb; fill-opacity: 0.9"/>
    <path d="M 3.291429 27.88548 
L 6.582857 27.181003 
L 8.908533 26.302629 
L 9.874286 25.909834 
L 13.165714 24.073081 
L 14.703297 23.014801 
L 16.457143 22.119664 
L 19.748571 19.880704 
L 20.047606 19.726972 
L 23.04 18.516076 
L 26.331429 18.250709 
L 29.622857 18.261802 
L 32.914286 18.284103 
L 36.205714 17.914706 
L 39.497143 17.026626 
L 41.577472 16.439143 
L 42.788571 16.139073 
L 46.08 15.038902 
L 49.371429 13.459134 
L 49.917436 13.151315 
L 52.662857 11.556547 
L 55.954286 10.515092 
L 59.245714 11.022393 
L 62.537143 11.63157 
L 65.828571 12.051293 
L 69.12 12.287368 
L 72.411429 12.328361 
L 75.702857 12.271366 
L 78.994286 11.98937 
L 82.285714 11.468587 
L 85.577143 10.442055 
L 86.349446 9.863486 
L 88.868571 8.359238 
L 92.16 7.912666 
L 95.288265 9.863486 
L 95.451429 9.990197 
L 98.742857 12.104185 
L 100.722689 13.151315 
L 102.034286 14.15074 
L 105.325714 16.285907 
L 108.617143 13.500798 
L 108.89005 13.151315 
L 111.908571 10.373914 
L 112.334203 9.863486 
L 115.2 7.145852 
L 116.218295 6.575657 
L 118.491429 4.486949 
L 121.782857 4.226882 
L 123.401756 6.575657 
L 125.074286 9.243505 
L 125.611416 9.863486 
L 127.305583 13.151315 
L 128.365714 13.57783 
L 131.657143 13.387742 
L 131.927514 13.151315 
L 134.948571 10.210839 
L 135.352291 9.863486 
L 138.24 7.059554 
L 138.814308 6.575657 
L 141.531429 3.946821 
L 142.392373 3.287829 
L 144.822857 0.95567 
L 146.307604 -0 
L 144.822857 -0 
L 141.531429 -0 
L 138.24 -0 
L 134.948571 -0 
L 131.657143 -0 
L 128.365714 -0 
L 125.074286 -0 
L 121.782857 -0 
L 118.491429 -0 
L 115.2 -0 
L 111.908571 -0 
L 108.617143 -0 
L 105.325714 -0 
L 102.034286 -0 
L 98.742857 -0 
L 95.451429 -0 
L 92.16 -0 
L 88.868571 -0 
L 85.577143 -0 
L 82.285714 -0 
L 78.994286 -0 
L 75.702857 -0 
L 72.411429 -0 
L 70.970592 -0 
L 69.12 0.356273 
L 65.828571 0.517279 
L 62.537143 0.494725 
L 59.245714 0.576254 
L 55.954286 1.016165 
L 52.662857 1.942068 
L 49.902093 3.287829 
L 49.371429 3.550052 
L 46.08 5.566624 
L 43.87235 6.575657 
L 42.788571 7.16959 
L 39.497143 8.203822 
L 36.205714 8.80094 
L 32.914286 9.090903 
L 29.622857 9.303352 
L 26.331429 9.722672 
L 25.854528 9.863486 
L 23.04 10.751289 
L 19.748571 12.312712 
L 18.405374 13.151315 
L 16.457143 14.346996 
L 13.165714 16.310467 
L 12.917429 16.439143 
L 9.874286 17.936153 
L 6.582857 18.919156 
L 3.291429 19.28094 
L 0 19.562982 
L 0 19.726972 
L 0 23.014801 
L 0 26.302629 
L -0 27.982289 
z
M 157.988571 4.331564 
L 161.28 3.829884 
L 161.93298 3.287829 
L 164.571429 0.737062 
L 165.490067 -0 
L 164.571429 -0 
L 161.28 -0 
L 157.988571 -0 
L 154.697143 -0 
L 153.568816 -0 
L 154.697143 1.854336 
L 155.541714 3.287829 
z
" clip-path="url(#p99fcef32bc)" style="fill: #e5eff9; fill-opacity: 0.9"/>
    <path d="M 3.291429 19.28094 
L 6.582857 18.919156 
L 9.874286 17.936153 
L 12.917429 16.439143 
L 13.165714 16.310467 
L 16.457143 14.346996 
L 18.405374 13.151315 
L 19.748571 12.312712 
L 23.04 10.751289 
L 25.854528 9.863486 
L 26.331429 9.722672 
L 29.622857 9.303352 
L 32.914286 9.090903 
L 36.205714 8.80094 
L 39.497143 8.203822 
L 42.788571 7.16959 
L 43.87235 6.575657 
L 46.08 5.566624 
L 49.371429 3.550052 
L 49.902093 3.287829 
L 52.662857 1.942068 
L 55.954286 1.016165 
L 59.245714 0.576254 
L 62.537143 0.494725 
L 65.828571 0.517279 
L 69.12 0.356273 
L 70.970592 -0 
L 69.12 -0 
L 65.828571 -0 
L 62.537143 -0 
L 59.245714 -0 
L 55.954286 -0 
L 52.662857 -0 
L 49.371429 -0 
L 46.08 -0 
L 42.788571 -0 
L 39.654634 -0 
L 39.497143 0.026239 
L 36.205714 0.230215 
L 32.914286 0.393157 
L 29.622857 0.855881 
L 26.331429 1.853531 
L 23.372906 3.287829 
L 23.04 3.416736 
L 19.748571 5.365922 
L 18.190857 6.575657 
L 16.457143 7.700178 
L 13.165714 9.840813 
L 13.067741 9.863486 
L 9.874286 10.625627 
L 6.582857 10.870334 
L 3.291429 10.811694 
L -0 10.871655 
L 0 13.151315 
L 0 16.439143 
L 0 19.562982 
z
" clip-path="url(#p99fcef32bc)" style="fill: #dfecf7; fill-opacity: 0.9"/>
    <path d="M 3.291429 10.811694 
L 6.582857 10.870334 
L 9.874286 10.625627 
L 13.067741 9.863486 
L 13.165714 9.840813 
L 16.457143 7.700178 
L 18.190857 6.575657 
L 19.748571 5.365922 
L 23.04 3.416736 
L 23.372906 3.287829 
L 26.331429 1.853531 
L 29.622857 0.855881 
L 32.914286 0.393157 
L 36.205714 0.230215 
L 39.497143 0.026239 
L 39.654634 -0 
L 39.497143 -0 
L 36.205714 -0 
L 32.914286 -0 
L 29.622857 -0 
L 26.331429 -0 
L 23.04 -0 
L 19.748571 -0 
L 16.457143 -0 
L 13.165714 -0 
L 11.192842 0 
L 9.874286 0.860135 
L 6.582857 0.378891 
L 5.58568 -0 
L 3.291429 -0 
L 0 -0 
L 0 3.287829 
L 0 6.575657 
L 0 9.863486 
L -0 10.871655 
z
" clip-path="url(#p99fcef32bc)" style="fill: #dae8f6; fill-opacity: 0.9"/>
    <path d="M 6.582857 0.378891 
L 9.874286 0.860135 
L 11.192842 0 
L 9.874286 -0 
L 6.582857 -0 
L 5.58568 -0 
z
" clip-path="url(#p99fcef32bc)" style="fill: #d6e5f4; fill-opacity: 0.9"/>
    <path clip-path="url(#p99fcef32bc)" style="fill: #d0e2f2; fill-opacity: 0.9"/>
    <path clip-path="url(#p99fcef32bc)" style="fill: #cbdef1; fill-opacity: 0.9"/>
    <path clip-path="url(#p99fcef32bc)" style="fill: #c6dbef; fill-opacity: 0.9"/>
    <path clip-path="url(#p99fcef32bc)" style="fill: #bed8ec; fill-opacity: 0.9"/>
    <path clip-path="url(#p99fcef32bc)" style="fill: #b5d4e9; fill-opacity: 0.9"/>
    <path clip-path="url(#p99fcef32bc)" style="fill: #add0e6; fill-opacity: 0.9"/>
    <path clip-path="url(#p99fcef32bc)" style="fill: #a5cde3; fill-opacity: 0.9"/>
    <path clip-path="url(#p99fcef32bc)" style="fill: #9cc9e1; fill-opacity: 0.9"/>
    <path clip-path="url(#p99fcef32bc)" style="fill: #91c3de; fill-opacity: 0.9"/>
    <path clip-path="url(#p99fcef32bc)" style="fill: #85bcdc; fill-opacity: 0.9"/>
    <path clip-path="url(#p99fcef32bc)" style="fill: #7cb7da; fill-opacity: 0.9"/>
    <path clip-path="url(#p99fcef32bc)" style="fill: #71b1d7; fill-opacity: 0.9"/>
    <path clip-path="url(#p99fcef32bc)" style="fill: #66abd4; fill-opacity: 0.9"/>
    <path clip-path="url(#p99fcef32bc)" style="fill: #5da5d1; fill-opacity: 0.9"/>
    <path clip-path="url(#p99fcef32bc)" style="fill: #56a0ce; fill-opacity: 0.9"/>
    <path clip-path="url(#p99fcef32bc)" style="fill: #4d99ca; fill-opacity: 0.9"/>
    <path clip-path="url(#p99fcef32bc)" style="fill: #4493c7; fill-opacity: 0.9"/>
    <path clip-path="url(#p99fcef32bc)" style="fill: #3c8cc3; fill-opacity: 0.9"/>
    <path clip-path="url(#p99fcef32bc)" style="fill: #3686c0; fill-opacity: 0.9"/>
    <path clip-path="url(#p99fcef32bc)" style="fill: #2f7fbc; fill-opacity: 0.9"/>
    <path clip-path="url(#p99fcef32bc)" style="fill: #2777b8; fill-opacity: 0.9"/>
    <path clip-path="url(#p99fcef32bc)" style="fill: #2070b4; fill-opacity: 0.9"/>
    <path clip-path="url(#p99fcef32bc)" style="fill: #1c6ab0; fill-opacity: 0.9"/>
    <path clip-path="url(#p99fcef32bc)" style="fill: #1663aa; fill-opacity: 0.9"/>
    <path clip-path="url(#p99fcef32bc)" style="fill: #115ca5; fill-opacity: 0.9"/>
    <path clip-path="url(#p99fcef32bc)" style="fill: #0c56a0; fill-opacity: 0.9"/>
    <path clip-path="url(#p99fcef32bc)" style="fill: #084f99; fill-opacity: 0.9"/>
    <path clip-path="url(#p99fcef32bc)" style="fill: #08488e; fill-opacity: 0.9"/>
    <path clip-path="url(#p99fcef32bc)" style="fill: #084184; fill-opacity: 0.9"/>
    <path clip-path="url(#p99fcef32bc)" style="fill: #083a7a; fill-opacity: 0.9"/>
    <path clip-path="url(#p99fcef32bc)" style="fill: #083370; fill-opacity: 0.9"/>
    <path clip-path="url(#p99fcef32bc)" style="fill: #08306b; fill-opacity: 0.9"/>
   </g>
   <g id="QuadContourSet_2">
    <path d="M -0 74.349462 
L 3.291429 73.149609 
L 6.582857 72.627073 
L 6.8612 72.332231 
L 9.874286 70.410398 
L 12.003661 69.044402 
L 13.165714 68.117103 
L 16.072545 65.756573 
L 16.457143 65.392508 
L 18.515331 62.468745 
L 19.748571 60.979399 
L 22.062406 59.180916 
L 23.04 56.817419 
L 26.040159 55.893087 
L 26.331429 55.522733 
L 26.526096 55.893087 
L 29.622857 56.983029 
L 32.914286 56.805118 
L 33.970388 55.893087 
L 36.205714 54.102275 
L 39.497143 52.753979 
L 39.646213 52.605259 
L 42.788571 50.530043 
L 44.254913 49.31743 
L 46.08 46.851547 
L 47.293725 46.029601 
L 49.099741 42.741773 
L 49.371429 42.473627 
L 52.662857 39.826254 
L 54.323738 42.741773 
L 55.954286 43.041234 
L 57.812005 42.741773 
L 59.245714 42.220116 
L 62.537143 40.701901 
L 65.497263 39.453944 
L 65.828571 39.226142 
L 69.12 37.902303 
L 71.226107 36.166115 
L 72.411429 35.03813 
L 74.695209 32.878287 
L 75.702857 31.718982 
L 78.441755 29.590458 
L 78.994286 28.903808 
L 82.110476 29.590458 
L 82.285714 29.901559 
L 85.577143 30.277149 
L 88.868571 30.602115 
L 91.888347 29.590458 
L 92.16 29.429527 
L 95.451429 27.969738 
L 98.742857 27.747564 
L 100.444622 26.302629 
L 102.034286 25.105384 
L 104.368574 23.014801 
L 105.325714 21.981521 
L 108.225601 19.726972 
L 108.617143 19.290595 
L 110.861836 19.726972 
L 111.908571 21.506156 
L 115.2 20.507161 
L 118.491429 20.913194 
L 121.505483 19.726972 
L 121.782857 19.55521 
L 121.926603 19.497 
M 138.334732 10.886779 
L 141.531429 12.891011 
L 144.822857 10.788548 
L 148.114286 11.176077 
L 151.405714 9.939713 
L 151.481942 9.863486 
L 154.697143 8.452673 
L 157.988571 8.318545 
L 161.045102 6.575657 
L 161.28 6.429807 
L 164.571429 3.93384 
L 166.160103 3.287829 
L 167.862857 2.259792 
L 171.001121 3.287829 
L 171.154286 3.327792 
L 171.195964 3.287829 
L 174.445714 1.007598 
L 177.737143 1.341209 
L 181.028571 0.251826 
L 181.295247 -0 
" clip-path="url(#p99fcef32bc)" style="fill: none"/>
    <path d="M 0 64.451145 
L 3.291429 62.565897 
L 4.796143 65.756573 
L 6.296066 69.044402 
L 6.582857 69.172022 
L 9.874286 69.442994 
L 10.495629 69.044402 
L 13.165714 66.913718 
L 14.590658 65.756573 
L 16.457143 63.989735 
L 17.527846 62.468745 
L 19.748571 59.786846 
L 20.528129 59.180916 
L 21.672249 55.893087 
L 23.04 54.536952 
L 24.913483 52.605259 
L 26.331429 51.14803 
L 29.084446 49.31743 
L 29.622857 46.330201 
L 31.247461 49.31743 
L 32.914286 52.590271 
L 32.921737 52.605259 
L 36.205714 53.041898 
L 37.237817 52.605259 
L 39.497143 51.06733 
L 42.788571 49.531565 
L 43.047513 49.31743 
L 45.148236 46.029601 
L 46.08 45.120432 
L 47.785709 42.741773 
L 49.371429 41.176724 
L 51.271487 39.453944 
L 52.662857 38.075471 
L 55.312665 36.166115 
L 55.954286 35.261341 
L 58.567352 36.166115 
L 59.245714 37.391998 
L 60.343001 39.453944 
L 62.537143 39.730624 
L 63.193421 39.453944 
L 65.828571 37.642062 
L 68.766955 37.217676 
M 82.092064 23.692423 
L 82.285714 23.381069 
L 85.550284 23.014801 
L 85.577143 23.006468 
L 85.582649 23.014801 
L 87.559225 26.302629 
L 88.868571 28.719396 
L 92.16 27.517095 
L 95.451429 27.173802 
L 98.742857 26.865184 
L 99.405403 26.302629 
L 102.034286 24.322701 
L 103.494652 23.014801 
L 105.325714 21.038079 
L 107.012111 19.726972 
L 108.617143 17.938148 
L 110.817734 16.439143 
L 111.908571 15.126777 
L 115.2 15.578388 
L 115.737764 16.439143 
L 117.579026 19.726972 
L 118.491429 19.870634 
L 118.856457 19.726972 
L 121.782857 17.914825 
L 125.074286 17.47854 
L 128.365714 17.224112 
L 129.490122 16.439143 
L 131.657143 14.994254 
L 133.764675 13.151315 
L 134.948571 11.998996 
L 137.43062 9.863486 
L 138.24 9.077588 
L 141.209389 6.575657 
L 141.531429 6.264081 
L 144.142896 6.575657 
L 144.822857 7.343396 
L 146.303492 9.863486 
L 148.114286 10.151486 
L 148.863407 9.863486 
L 151.405714 8.316483 
L 154.697143 7.726598 
L 157.988571 7.522657 
L 159.64934 6.575657 
L 161.28 5.563166 
L 164.020959 3.287829 
L 164.571429 2.755652 
L 167.862857 0.230786 
L 168.339268 -0 
M 175.360458 -0 
L 177.737143 0.372471 
L 178.778778 0 
" clip-path="url(#p99fcef32bc)" style="fill: none"/>
    <path d="M 0 38.880868 
L 1.993746 39.453944 
L 3.291429 39.9879 
L 6.582857 40.862329 
L 9.874286 41.441244 
L 13.165714 41.686585 
L 16.457143 42.154849 
L 17.934176 42.741773 
L 19.748571 44.029356 
L 21.283902 46.029601 
L 20.486012 49.31743 
L 19.748571 50.076266 
L 17.800958 52.605259 
L 16.475783 55.893087 
L 19.748571 56.229028 
L 19.850553 55.893087 
L 23.04 52.730727 
L 23.161687 52.605259 
L 26.331429 49.347703 
L 26.376956 49.31743 
L 26.490883 46.029601 
L 29.622857 42.90735 
L 30.028254 42.741773 
L 32.914286 39.84837 
L 35.981246 42.741773 
L 36.205714 43.167869 
L 37.822351 46.029601 
L 39.292461 49.31743 
L 39.497143 49.361181 
L 39.601193 49.31743 
L 42.788571 46.838861 
L 43.113739 46.292542 
M 55.834467 32.120545 
L 55.954286 32.009745 
L 57.523535 29.590458 
L 59.245714 27.909007 
L 62.537143 29.194059 
L 62.773849 29.590458 
L 64.622396 32.878287 
L 65.828571 35.156326 
L 66.35299 36.166115 
L 69.12 36.431069 
L 69.441406 36.166115 
L 72.411429 33.339757 
L 72.89938 32.878287 
L 75.702857 29.65287 
L 75.783167 29.590458 
L 77.654229 26.302629 
L 78.994286 25.045201 
L 80.409008 23.014801 
L 82.285714 21.204625 
L 83.966819 19.726972 
L 85.577143 18.163409 
L 88.838792 16.439143 
L 88.868571 16.41089 
L 88.924609 16.439143 
L 91.081384 19.726972 
L 92.16 21.539942 
L 93.0036 23.014801 
L 94.774312 26.302629 
L 95.451429 26.377866 
L 96.132255 26.302629 
L 98.742857 25.257234 
L 102.034286 23.540019 
L 102.620731 23.014801 
L 105.325714 20.094638 
L 105.79862 19.726972 
L 108.617143 16.585701 
L 108.832294 16.439143 
L 111.463433 13.151315 
L 111.908571 12.741734 
L 114.308665 9.863486 
L 115.2 9.018233 
L 118.491429 9.833562 
L 118.512112 9.863486 
L 120.586657 13.151315 
L 121.782857 15.242032 
L 122.44668 16.439143 
L 125.074286 16.734751 
L 127.892971 16.439143 
L 128.365714 16.260336 
L 131.657143 14.190998 
L 132.846094 13.151315 
L 134.948571 11.104918 
L 136.391456 9.863486 
L 138.24 8.068571 
L 140.011848 6.575657 
L 141.531429 5.105451 
L 143.906072 3.287829 
L 144.822857 2.408132 
L 148.114286 2.013031 
L 148.955825 3.287829 
L 150.928488 6.575657 
L 151.405714 6.694771 
L 154.697143 7.000522 
L 157.988571 6.726768 
L 158.253578 6.575657 
L 161.28 4.696525 
L 162.976969 3.287829 
L 164.571429 1.746357 
L 166.748003 -0 
M 13.165714 63.341509 
L 16.457143 62.586962 
L 16.540362 62.468745 
L 16.668631 59.180916 
L 16.457143 55.923832 
L 14.772767 59.180916 
L 13.165714 61.478657 
L 12.990105 62.468745 
L 13.165714 63.341509 
z
" clip-path="url(#p99fcef32bc)" style="fill: none"/>
    <path d="M -0 27.982289 
L 3.291429 27.88548 
L 6.582857 27.181003 
L 8.908533 26.302629 
L 9.874286 25.909834 
L 13.165714 24.073081 
L 14.703297 23.014801 
L 16.457143 22.119664 
L 19.748571 19.880704 
L 20.047606 19.726972 
L 23.04 18.516076 
L 26.331429 18.250709 
L 29.622857 18.261802 
L 32.914286 18.284103 
L 36.205714 17.914706 
L 39.497143 17.026626 
L 41.577472 16.439143 
L 42.788571 16.139073 
L 46.08 15.038902 
L 49.371429 13.459134 
L 49.917436 13.151315 
L 52.662857 11.556547 
L 55.954286 10.515092 
L 56.363027 10.57809 
M 75.400176 12.276607 
L 75.702857 12.271366 
L 78.994286 11.98937 
L 82.285714 11.468587 
L 85.577143 10.442055 
L 86.349446 9.863486 
L 88.868571 8.359238 
L 92.16 7.912666 
L 95.288265 9.863486 
L 95.451429 9.990197 
L 98.742857 12.104185 
L 100.722689 13.151315 
L 102.034286 14.15074 
L 105.325714 16.285907 
L 108.617143 13.500798 
L 108.89005 13.151315 
L 111.908571 10.373914 
L 112.334203 9.863486 
L 115.2 7.145852 
L 116.218295 6.575657 
L 118.491429 4.486949 
L 121.782857 4.226882 
L 123.401756 6.575657 
L 125.074286 9.243505 
L 125.611416 9.863486 
L 127.305583 13.151315 
L 128.365714 13.57783 
L 131.657143 13.387742 
L 131.927514 13.151315 
L 134.948571 10.210839 
L 135.352291 9.863486 
L 138.24 7.059554 
L 138.814308 6.575657 
L 141.531429 3.946821 
L 142.392373 3.287829 
L 144.822857 0.95567 
L 146.307604 -0 
M 153.568816 -0 
L 153.684814 0.190636 
" clip-path="url(#p99fcef32bc)" style="fill: none"/>
    <path d="M 0 19.562982 
L 3.291429 19.28094 
L 6.582857 18.919156 
L 9.874286 17.936153 
L 12.917429 16.439143 
L 13.165714 16.310467 
L 16.457143 14.346996 
L 18.405374 13.151315 
L 19.748571 12.312712 
L 23.04 10.751289 
L 25.854528 9.863486 
L 26.331429 9.722672 
L 29.622857 9.303352 
L 30.046078 9.276035 
M 48.143591 4.302316 
L 49.371429 3.550052 
L 49.902093 3.287829 
L 52.662857 1.942068 
L 55.954286 1.016165 
L 59.245714 0.576254 
L 62.537143 0.494725 
L 65.828571 0.517279 
L 69.12 0.356273 
L 70.970592 -0 
" clip-path="url(#p99fcef32bc)" style="fill: none"/>
    <path d="M -0 10.871655 
L 3.291429 10.811694 
L 3.74365 10.819751 
M 21.104951 4.562673 
L 23.04 3.416736 
L 23.372906 3.287829 
L 26.331429 1.853531 
L 29.622857 0.855881 
L 32.914286 0.393157 
L 36.205714 0.230215 
L 39.497143 0.026239 
L 39.654634 -0 
" clip-path="url(#p99fcef32bc)" style="fill: none"/>
    <path d="M 5.58568 -0 
L 6.582857 0.378891 
L 9.874286 0.860135 
L 11.192842 0 
" clip-path="url(#p99fcef32bc)" style="fill: none"/>
    <path clip-path="url(#p99fcef32bc)" style="fill: none"/>
    <path clip-path="url(#p99fcef32bc)" style="fill: none"/>
    <path clip-path="url(#p99fcef32bc)" style="fill: none"/>
    <path clip-path="url(#p99fcef32bc)" style="fill: none"/>
    <path clip-path="url(#p99fcef32bc)" style="fill: none"/>
    <path clip-path="url(#p99fcef32bc)" style="fill: none"/>
    <path clip-path="url(#p99fcef32bc)" style="fill: none"/>
    <path clip-path="url(#p99fcef32bc)" style="fill: none"/>
    <path clip-path="url(#p99fcef32bc)" style="fill: none"/>
    <path clip-path="url(#p99fcef32bc)" style="fill: none"/>
    <path clip-path="url(#p99fcef32bc)" style="fill: none"/>
    <path clip-path="url(#p99fcef32bc)" style="fill: none"/>
    <path clip-path="url(#p99fcef32bc)" style="fill: none"/>
    <path clip-path="url(#p99fcef32bc)" style="fill: none"/>
    <path clip-path="url(#p99fcef32bc)" style="fill: none"/>
    <path clip-path="url(#p99fcef32bc)" style="fill: none"/>
    <path clip-path="url(#p99fcef32bc)" style="fill: none"/>
    <path clip-path="url(#p99fcef32bc)" style="fill: none"/>
    <path clip-path="url(#p99fcef32bc)" style="fill: none"/>
    <path clip-path="url(#p99fcef32bc)" style="fill: none"/>
    <path clip-path="url(#p99fcef32bc)" style="fill: none"/>
    <path clip-path="url(#p99fcef32bc)" style="fill: none"/>
    <path clip-path="url(#p99fcef32bc)" style="fill: none"/>
    <path clip-path="url(#p99fcef32bc)" style="fill: none"/>
    <path clip-path="url(#p99fcef32bc)" style="fill: none"/>
    <path clip-path="url(#p99fcef32bc)" style="fill: none"/>
    <path clip-path="url(#p99fcef32bc)" style="fill: none"/>
    <path clip-path="url(#p99fcef32bc)" style="fill: none"/>
    <path clip-path="url(#p99fcef32bc)" style="fill: none"/>
    <path clip-path="url(#p99fcef32bc)" style="fill: none"/>
    <path clip-path="url(#p99fcef32bc)" style="fill: none"/>
    <path clip-path="url(#p99fcef32bc)" style="fill: none"/>
   </g>
   <g id="text_1">
    <g clip-path="url(#p99fcef32bc)">
     <!-- 0 -->
     <g style="opacity: 0" transform="translate(129.084105 21.229054) rotate(-30.475565) scale(0.12 -0.12)">
      <defs>
       <path id="DejaVuSans-30" d="M 2034 4250 
Q 1547 4250 1301 3770 
Q 1056 3291 1056 2328 
Q 1056 1369 1301 889 
Q 1547 409 2034 409 
Q 2525 409 2770 889 
Q 3016 1369 3016 2328 
Q 3016 3291 2770 3770 
Q 2525 4250 2034 4250 
z
M 2034 4750 
Q 2819 4750 3233 4129 
Q 3647 3509 3647 2328 
Q 3647 1150 3233 529 
Q 2819 -91 2034 -91 
Q 1250 -91 836 529 
Q 422 1150 422 2328 
Q 422 3509 836 4129 
Q 1250 4750 2034 4750 
z
" transform="scale(0.015625)"/>
      </defs>
      <use xlink:href="#DejaVuSans-30"/>
     </g>
    </g>
   </g>
   <g id="text_2">
    <g clip-path="url(#p99fcef32bc)">
     <!-- 1 -->
     <g style="opacity: 0" transform="translate(75.437037 35.732412) rotate(-46.046823) scale(0.12 -0.12)">
      <defs>
       <path id="DejaVuSans-31" d="M 794 531 
L 1825 531 
L 1825 4091 
L 703 3866 
L 703 4441 
L 1819 4666 
L 2450 4666 
L 2450 531 
L 3481 531 
L 3481 0 
L 794 0 
L 794 531 
z
" transform="scale(0.015625)"/>
      </defs>
      <use xlink:href="#DejaVuSans-31"/>
     </g>
    </g>
   </g>
   <g id="text_3">
    <g clip-path="url(#p99fcef32bc)">
     <!-- 2 -->
     <g style="opacity: 0" transform="translate(49.40095 44.488219) rotate(-44.06502) scale(0.12 -0.12)">
      <defs>
       <path id="DejaVuSans-32" d="M 1228 531 
L 3431 531 
L 3431 0 
L 469 0 
L 469 531 
Q 828 903 1448 1529 
Q 2069 2156 2228 2338 
Q 2531 2678 2651 2914 
Q 2772 3150 2772 3378 
Q 2772 3750 2511 3984 
Q 2250 4219 1831 4219 
Q 1534 4219 1204 4116 
Q 875 4013 500 3803 
L 500 4441 
Q 881 4594 1212 4672 
Q 1544 4750 1819 4750 
Q 2544 4750 2975 4387 
Q 3406 4025 3406 3419 
Q 3406 3131 3298 2873 
Q 3191 2616 2906 2266 
Q 2828 2175 2409 1742 
Q 1991 1309 1228 531 
z
" transform="scale(0.015625)"/>
      </defs>
      <use xlink:href="#DejaVuSans-32"/>
     </g>
    </g>
   </g>
   <g id="text_4">
    <g clip-path="url(#p99fcef32bc)">
     <!-- 3 -->
     <g style="opacity: 0" transform="translate(61.705417 14.973156) rotate(-354.38525) scale(0.12 -0.12)">
      <defs>
       <path id="DejaVuSans-33" d="M 2597 2516 
Q 3050 2419 3304 2112 
Q 3559 1806 3559 1356 
Q 3559 666 3084 287 
Q 2609 -91 1734 -91 
Q 1441 -91 1130 -33 
Q 819 25 488 141 
L 488 750 
Q 750 597 1062 519 
Q 1375 441 1716 441 
Q 2309 441 2620 675 
Q 2931 909 2931 1356 
Q 2931 1769 2642 2001 
Q 2353 2234 1838 2234 
L 1294 2234 
L 1294 2753 
L 1863 2753 
Q 2328 2753 2575 2939 
Q 2822 3125 2822 3475 
Q 2822 3834 2567 4026 
Q 2313 4219 1838 4219 
Q 1578 4219 1281 4162 
Q 984 4106 628 3988 
L 628 4550 
Q 988 4650 1302 4700 
Q 1616 4750 1894 4750 
Q 2613 4750 3031 4423 
Q 3450 4097 3450 3541 
Q 3450 3153 3228 2886 
Q 3006 2619 2597 2516 
z
" transform="scale(0.015625)"/>
      </defs>
      <use xlink:href="#DejaVuSans-33"/>
     </g>
    </g>
   </g>
   <g id="text_5">
    <g clip-path="url(#p99fcef32bc)">
     <!-- 3 -->
     <g style="opacity: 0" transform="translate(158.897553 8.286522) rotate(-20.933815) scale(0.12 -0.12)">
      <use xlink:href="#DejaVuSans-33"/>
     </g>
    </g>
   </g>
   <g id="text_6">
    <g clip-path="url(#p99fcef32bc)">
     <!-- 4 -->
     <g style="opacity: 0" transform="translate(36.631014 12.365912) rotate(-14.50969) scale(0.12 -0.12)">
      <defs>
       <path id="DejaVuSans-34" d="M 2419 4116 
L 825 1625 
L 2419 1625 
L 2419 4116 
z
M 2253 4666 
L 3047 4666 
L 3047 1625 
L 3713 1625 
L 3713 1100 
L 3047 1100 
L 3047 0 
L 2419 0 
L 2419 1100 
L 313 1100 
L 313 1709 
L 2253 4666 
z
" transform="scale(0.015625)"/>
      </defs>
      <use xlink:href="#DejaVuSans-34"/>
     </g>
    </g>
   </g>
   <g id="text_7">
    <g clip-path="url(#p99fcef32bc)">
     <!-- 5 -->
     <g style="opacity: 0" transform="translate(10.844126 14.329456) rotate(-21.713418) scale(0.12 -0.12)">
      <defs>
       <path id="DejaVuSans-35" d="M 691 4666 
L 3169 4666 
L 3169 4134 
L 1269 4134 
L 1269 2991 
Q 1406 3038 1543 3061 
Q 1681 3084 1819 3084 
Q 2600 3084 3056 2656 
Q 3513 2228 3513 1497 
Q 3513 744 3044 326 
Q 2575 -91 1722 -91 
Q 1428 -91 1123 -41 
Q 819 9 494 109 
L 494 744 
Q 775 591 1075 516 
Q 1375 441 1709 441 
Q 2250 441 2565 725 
Q 2881 1009 2881 1497 
Q 2881 1984 2565 2268 
Q 2250 2553 1709 2553 
Q 1456 2553 1204 2497 
Q 953 2441 691 2322 
L 691 4666 
z
" transform="scale(0.015625)"/>
      </defs>
      <use xlink:href="#DejaVuSans-35"/>
     </g>
    </g>
   </g>
  </g>
 </g>
 <defs>
  <clipPath id="p99fcef32bc">
   <rect x="0" y="0" width="576" height="818.669339"/>
  </clipPath>
 </defs>
</svg>
