<?xml version="1.0" encoding="utf-8" standalone="no"?>
<!DOCTYPE svg PUBLIC "-//W3C//DTD SVG 1.1//EN"
  "http://www.w3.org/Graphics/SVG/1.1/DTD/svg11.dtd">
<svg xmlns:xlink="http://www.w3.org/1999/xlink" width="576pt" height="819.681392pt" viewBox="0 0 576 819.681392" xmlns="http://www.w3.org/2000/svg" version="1.1">
 <metadata>
  <rdf:RDF xmlns:dc="http://purl.org/dc/elements/1.1/" xmlns:cc="http://creativecommons.org/ns#" xmlns:rdf="http://www.w3.org/1999/02/22-rdf-syntax-ns#">
   <cc:Work>
    <dc:type rdf:resource="http://purl.org/dc/dcmitype/StillImage"/>
    <dc:date>2025-07-25T22:44:33.663494</dc:date>
    <dc:format>image/svg+xml</dc:format>
    <dc:creator>
     <cc:Agent>
      <dc:title>Matplotlib v3.10.3, https://matplotlib.org/</dc:title>
     </cc:Agent>
    </dc:creator>
   </cc:Work>
  </rdf:RDF>
 </metadata>
 <defs>
  <style type="text/css">*{stroke-linejoin: round; stroke-linecap: butt}</style>
 </defs>
 <g id="figure_1">
  <g id="patch_1">
   <path d="M 0 819.681392 
L 576 819.681392 
L 576 0 
L 0 0 
L 0 819.681392 
z
" style="fill: none; opacity: 0"/>
  </g>
  <g id="axes_1">
   <g id="QuadContourSet_1">
    <path d="M 388.388571 819.384614 
L 390.588926 816.389499 
L 391.68 815.084337 
L 393.188028 813.097606 
L 394.971429 810.74809 
L 395.964408 809.805713 
L 394.971429 809.267665 
L 392.842029 806.51382 
L 394.971429 804.38412 
L 396.133458 803.221927 
L 398.262857 801.1027 
L 401.554286 802.305048 
L 404.845714 800.307433 
L 404.928302 799.930033 
L 408.137143 796.978233 
L 408.293535 796.63814 
L 409.306579 793.346247 
L 411.184204 790.054354 
L 411.428571 789.774535 
L 413.178523 786.762461 
L 414.72 784.72668 
L 415.671118 783.470568 
L 418.011429 780.379792 
L 418.246614 780.178675 
L 418.011429 780.048156 
L 415.887328 776.886781 
L 418.011429 774.762381 
L 421.302857 776.032905 
L 423.473449 773.594888 
L 421.302857 772.496893 
L 419.178757 770.302995 
L 421.302857 768.166955 
L 423.86646 770.302995 
L 424.594286 772.026253 
L 427.183652 770.302995 
L 427.885714 768.547112 
L 431.177143 767.41917 
L 431.36211 767.011102 
L 432.103202 763.719209 
L 434.242249 760.427316 
L 434.468571 760.15775 
L 435.896802 757.135423 
L 437.76 754.334887 
L 438.132792 753.843529 
L 440.4841 750.551636 
L 438.910981 747.259743 
L 441.051429 745.118994 
L 444.342857 745.658356 
L 445.995777 743.96785 
L 444.342857 743.130571 
L 442.20241 740.675957 
L 444.342857 738.535207 
L 447.255701 740.675957 
L 447.634286 741.589969 
L 449.127081 740.675957 
L 450.596848 737.384064 
L 450.925714 737.055151 
L 453.253793 737.384064 
L 454.217143 737.581199 
L 454.30001 737.384064 
L 454.866531 734.092171 
L 457.311741 730.800277 
L 457.508571 730.616171 
L 458.828093 727.508384 
L 460.52122 724.216491 
L 460.8 723.937672 
L 463.018538 720.924598 
L 464.091429 719.623801 
L 465.600148 717.632705 
L 467.382857 715.280016 
L 468.399967 714.340812 
L 467.382857 713.819415 
L 465.244148 711.048919 
L 467.382857 708.909907 
L 468.535576 707.757025 
L 470.674286 705.612513 
L 473.965714 706.924103 
L 477.257143 705.712921 
L 477.488325 704.465132 
L 480.341643 701.173239 
L 480.548571 701.027787 
L 481.692549 697.881346 
L 483.233269 694.589453 
L 483.84 693.89756 
L 485.562962 691.29756 
L 487.131429 689.234021 
L 488.065083 688.005667 
L 490.422857 684.903683 
L 490.656235 684.713773 
L 490.422857 684.593634 
L 488.27493 681.42188 
L 490.422857 679.27365 
L 493.714286 680.573345 
L 495.988654 678.129987 
L 493.714286 677.051378 
L 491.566358 674.838094 
L 493.714286 672.711343 
L 496.285285 674.838094 
L 497.005714 676.689844 
L 499.924802 674.838094 
L 500.297143 673.757012 
L 503.588571 671.577068 
L 503.602966 671.546201 
L 504.56746 668.254308 
L 506.337027 664.962415 
L 506.88 664.239386 
L 508.181846 661.670522 
L 510.171429 658.892639 
L 510.566901 658.378628 
L 512.932271 655.086735 
L 511.33282 651.794842 
L 513.462857 649.664504 
L 516.754286 650.237277 
L 518.548051 648.502949 
L 516.754286 647.652572 
L 514.624248 645.211056 
L 516.754286 643.080718 
L 519.640782 645.211056 
L 520.045714 646.282305 
L 521.916012 645.211056 
L 523.280369 641.919163 
L 523.337143 641.86238 
L 524.254276 641.919163 
L 526.628571 642.096767 
L 526.710652 641.919163 
L 527.411743 638.62727 
L 529.338527 635.335376 
L 529.92 634.762956 
L 531.140505 632.043483 
L 532.989478 628.75159 
L 533.211429 628.529609 
L 535.474212 625.459697 
L 536.502857 624.193939 
L 538.03371 622.167804 
L 539.794286 619.837623 
L 540.902671 618.875911 
L 539.794286 618.34078 
L 537.687109 615.584018 
L 539.794286 613.476544 
L 543.085714 615.462148 
L 545.833917 612.292124 
L 546.377143 611.636812 
L 549.668571 609.128056 
L 549.743924 609.000231 
L 550.875054 605.708338 
L 552.96 603.544638 
L 553.625071 602.416445 
L 555.364688 599.124552 
L 556.251429 598.116427 
L 557.961707 595.832659 
L 559.542857 593.742799 
L 560.452294 592.540766 
L 562.834286 589.392406 
L 563.022977 589.248872 
L 562.834286 589.157726 
L 560.692645 585.956979 
L 562.834286 583.815036 
L 566.125714 585.042014 
L 568.450288 582.665086 
L 569.417143 581.254431 
L 572.121701 579.373193 
L 572.708571 577.965498 
L 573.189424 576.0813 
L 576 573.454635 
L 576 572.789407 
L 576 571.991251 
L 575.256948 572.789407 
L 572.708571 575.130076 
L 571.757482 576.0813 
L 570.000715 579.373193 
L 569.417143 579.779114 
L 567.439115 582.665086 
L 566.125714 584.008067 
L 562.834286 583.375654 
L 560.253325 585.956979 
L 561.690592 589.248872 
L 559.670028 592.540766 
L 559.542857 592.708852 
L 557.179441 595.832659 
L 556.251429 597.071852 
L 554.445887 599.124552 
L 552.96 602.291043 
L 552.834616 602.416445 
L 549.713535 605.708338 
L 549.668571 605.844971 
L 548.179041 609.000231 
L 546.377143 610.370094 
L 544.783863 612.292124 
L 543.085714 614.250922 
L 539.794286 613.042307 
L 537.252934 615.584018 
L 539.687549 618.875911 
L 537.262427 622.167804 
L 536.502857 623.17312 
L 534.644622 625.459697 
L 533.211429 627.404106 
L 531.864135 628.75159 
L 530.497369 632.043483 
L 529.92 633.329951 
L 527.882858 635.335376 
L 526.628571 638.117163 
L 526.352763 638.62727 
L 523.337143 640.676312 
L 522.094468 641.919163 
L 520.045714 644.693501 
L 516.754286 642.639745 
L 514.183338 645.211056 
L 516.754286 648.157958 
L 517.482001 648.502949 
L 516.754286 649.206551 
L 513.462857 649.223531 
L 510.891909 651.794842 
L 511.884144 655.086735 
L 510.171429 657.605809 
L 509.398719 658.378628 
L 507.443616 661.670522 
L 506.88 662.782677 
L 505.243081 664.962415 
L 503.728416 668.254308 
L 503.588571 668.733288 
L 500.297143 670.610873 
L 499.361947 671.546201 
L 497.758134 674.838094 
L 497.005714 675.315399 
L 496.820017 674.838094 
L 493.714286 672.269008 
L 491.119619 674.838094 
L 493.714286 677.51171 
L 495.017992 678.129987 
L 493.714286 679.53056 
L 490.422857 678.826847 
L 487.82819 681.42188 
L 489.290595 684.713773 
L 487.272478 688.005667 
L 487.131429 688.191236 
L 484.770356 691.29756 
L 483.84 692.701495 
L 482.18442 694.589453 
L 480.927921 697.881346 
L 480.548571 698.924726 
L 477.34971 701.173239 
L 477.257143 701.292047 
L 475.79933 704.465132 
L 473.965714 705.718325 
L 470.674286 705.164258 
L 468.088534 707.757025 
L 467.382857 708.462802 
L 464.797106 711.048919 
L 467.187426 714.340812 
L 464.809721 717.632705 
L 464.091429 718.580654 
L 462.158155 720.924598 
L 460.8 722.769156 
L 459.352869 724.216491 
L 458.13357 727.508384 
L 457.508571 728.980404 
L 455.562929 730.800277 
L 454.217143 732.925306 
L 453.522114 734.092171 
L 450.925714 735.906062 
L 449.447921 737.384064 
L 447.634286 740.035047 
L 444.342857 738.085255 
L 441.75252 740.675957 
L 444.342857 743.646493 
L 444.977266 743.96785 
L 444.342857 744.616685 
L 441.051429 744.669041 
L 438.461092 747.259743 
L 439.419319 750.551636 
L 437.76 753.010093 
L 436.926682 753.843529 
L 435.203778 757.135423 
L 434.468571 758.691218 
L 433.010978 760.427316 
L 431.177143 763.613883 
L 431.076351 763.719209 
L 427.885714 766.009376 
L 426.88413 767.011102 
L 425.254584 770.302995 
L 424.594286 770.742432 
L 424.408687 770.302995 
L 421.302857 767.715161 
L 418.729489 770.302995 
L 421.302857 772.960924 
L 422.556121 773.594888 
L 421.302857 775.002559 
L 418.011429 774.31305 
L 415.43806 776.886781 
L 416.909116 780.178675 
L 414.890948 783.470568 
L 414.72 783.696334 
L 412.398353 786.762461 
L 411.428571 788.431681 
L 410.011486 790.054354 
L 408.452819 793.346247 
L 408.137143 794.419121 
L 405.129132 796.63814 
L 404.845714 796.870801 
L 403.314212 799.930033 
L 401.554286 801.168003 
L 398.262857 800.651377 
L 395.679969 803.221927 
L 394.971429 803.930567 
L 392.388541 806.51382 
L 394.806213 809.805713 
L 392.408336 813.097606 
L 391.68 814.057142 
L 389.730225 816.389499 
L 388.388571 818.215753 
L 386.923139 819.681392 
L 388.091835 819.681392 
z
" clip-path="url(#p1da51cc7ad)" style="fill: #f5f9fe; fill-opacity: 0.9"/>
    <path d="M 388.388571 819.681392 
L 388.995553 819.681392 
L 391.447628 816.389499 
L 391.68 816.111531 
L 393.96772 813.097606 
L 394.971429 811.775284 
L 397.046759 809.805713 
L 394.971429 808.68119 
L 393.295518 806.51382 
L 394.971429 804.837673 
L 396.586947 803.221927 
L 398.262857 801.554022 
L 401.390418 803.221927 
L 401.554286 804.612801 
L 404.845714 804.862284 
L 405.345484 803.221927 
L 406.499845 799.930033 
L 408.137143 798.42389 
L 408.958321 796.63814 
L 410.160338 793.346247 
L 411.428571 791.19877 
L 412.007483 790.054354 
L 413.958693 786.762461 
L 414.72 785.757026 
L 416.451288 783.470568 
L 418.011429 781.410138 
L 419.45149 780.178675 
L 418.011429 779.379494 
L 416.336596 776.886781 
L 418.011429 775.211713 
L 421.158281 776.886781 
L 421.302857 777.216912 
L 421.966127 776.886781 
L 424.390777 773.594888 
L 424.594286 773.310074 
L 426.415349 773.594888 
L 427.885714 774.457617 
L 428.05962 773.594888 
L 429.192153 770.302995 
L 431.177143 768.885702 
L 432.026854 767.011102 
L 433.077211 763.719209 
L 434.468571 761.624283 
L 435.056353 760.427316 
L 436.589826 757.135423 
L 437.76 755.376558 
L 438.923104 753.843529 
L 441.051429 751.038292 
L 441.692567 750.551636 
L 441.051429 750.187621 
L 439.36087 747.259743 
L 441.051429 745.568946 
L 444.342857 746.700026 
L 447.014287 743.96785 
L 444.342857 742.614649 
L 442.652299 740.675957 
L 444.342857 738.98516 
L 446.643466 740.675957 
L 447.634286 743.068079 
L 450.925714 742.50458 
L 451.678741 740.675957 
L 454.217143 739.245577 
L 454.99964 737.384064 
L 455.991131 734.092171 
L 457.508571 732.106354 
L 458.134539 730.800277 
L 459.522616 727.508384 
L 460.8 725.18027 
L 461.432592 724.216491 
L 463.878921 720.924598 
L 464.091429 720.666949 
L 466.390575 717.632705 
L 467.382857 716.323164 
L 469.529642 714.340812 
L 467.382857 713.240314 
L 465.69119 711.048919 
L 467.382857 709.357012 
L 468.982618 707.757025 
L 470.674286 706.060768 
L 473.71707 707.757025 
L 473.965714 709.979536 
L 477.257143 709.321617 
L 477.811934 707.757025 
L 478.81934 704.465132 
L 480.548571 702.547316 
L 481.195965 701.173239 
L 482.457176 697.881346 
L 483.84 695.211698 
L 484.184924 694.589453 
L 486.355568 691.29756 
L 487.131429 690.276805 
L 488.857689 688.005667 
L 490.422857 685.946467 
L 491.937703 684.713773 
L 490.422857 683.933953 
L 488.721669 681.42188 
L 490.422857 679.720452 
L 493.560786 681.42188 
L 493.714286 681.811804 
L 494.594334 681.42188 
L 496.959317 678.129987 
L 497.005714 678.064289 
L 497.386588 678.129987 
L 500.297143 679.236834 
L 500.608312 678.129987 
L 501.616008 674.838094 
L 503.588571 673.033777 
L 504.282293 671.546201 
L 505.406505 668.254308 
L 506.88 665.696095 
L 507.262542 664.962415 
L 508.920075 661.670522 
L 510.171429 659.923364 
L 511.359927 658.378628 
L 513.462857 655.603483 
L 514.183374 655.086735 
L 513.462857 654.710886 
L 511.773731 651.794842 
L 513.462857 650.105477 
L 516.754286 651.268002 
L 519.614102 648.502949 
L 520.045714 647.86298 
L 523.199534 648.502949 
L 523.337143 648.590065 
L 523.353812 648.502949 
L 524.299865 645.211056 
L 526.628571 643.529772 
L 527.372922 641.919163 
L 528.341881 638.62727 
L 529.92 636.195962 
L 530.364032 635.335376 
L 531.78364 632.043483 
L 533.211429 629.625821 
L 533.89306 628.75159 
L 536.303802 625.459697 
L 536.502857 625.214758 
L 538.804993 622.167804 
L 539.794286 620.858441 
L 542.079178 618.875911 
L 539.794286 617.772761 
L 538.121284 615.584018 
L 539.794286 613.91078 
L 542.462853 615.584018 
L 543.085714 617.271095 
L 546.377143 615.616353 
L 546.397751 615.584018 
L 547.130926 612.292124 
L 549.668571 610.333449 
L 550.454504 609.000231 
L 552.036574 605.708338 
L 552.96 604.750031 
L 554.335651 602.416445 
L 556.251429 599.166613 
L 556.284068 599.124552 
L 558.743972 595.832659 
L 559.542857 594.776746 
L 561.23456 592.540766 
L 562.834286 590.426353 
L 564.382216 589.248872 
L 562.834286 588.50115 
L 561.131964 585.956979 
L 562.834286 584.254417 
L 566.030786 585.956979 
L 566.125714 586.227993 
L 566.849873 585.956979 
L 569.417143 582.984434 
L 569.488083 582.665086 
L 572.708571 580.250838 
L 573.225999 579.373193 
L 574.487767 576.0813 
L 576 574.66802 
L 576 573.454635 
L 573.189424 576.0813 
L 572.708571 577.965498 
L 572.121701 579.373193 
L 569.417143 581.254431 
L 568.450288 582.665086 
L 566.125714 585.042014 
L 562.834286 583.815036 
L 560.692645 585.956979 
L 562.834286 589.157726 
L 563.022977 589.248872 
L 562.834286 589.392406 
L 560.452294 592.540766 
L 559.542857 593.742799 
L 557.961707 595.832659 
L 556.251429 598.116427 
L 555.364688 599.124552 
L 553.625071 602.416445 
L 552.96 603.544638 
L 550.875054 605.708338 
L 549.743924 609.000231 
L 549.668571 609.128056 
L 546.377143 611.636812 
L 545.833917 612.292124 
L 543.085714 615.462148 
L 539.794286 613.476544 
L 537.687109 615.584018 
L 539.794286 618.34078 
L 540.902671 618.875911 
L 539.794286 619.837623 
L 538.03371 622.167804 
L 536.502857 624.193939 
L 535.474212 625.459697 
L 533.211429 628.529609 
L 532.989478 628.75159 
L 531.140505 632.043483 
L 529.92 634.762956 
L 529.338527 635.335376 
L 527.411743 638.62727 
L 526.710652 641.919163 
L 526.628571 642.096767 
L 524.254276 641.919163 
L 523.337143 641.86238 
L 523.280369 641.919163 
L 521.916012 645.211056 
L 520.045714 646.282305 
L 519.640782 645.211056 
L 516.754286 643.080718 
L 514.624248 645.211056 
L 516.754286 647.652572 
L 518.548051 648.502949 
L 516.754286 650.237277 
L 513.462857 649.664504 
L 511.33282 651.794842 
L 512.932271 655.086735 
L 510.566901 658.378628 
L 510.171429 658.892639 
L 508.181846 661.670522 
L 506.88 664.239386 
L 506.337027 664.962415 
L 504.56746 668.254308 
L 503.602966 671.546201 
L 503.588571 671.577068 
L 500.297143 673.757012 
L 499.924802 674.838094 
L 497.005714 676.689844 
L 496.285285 674.838094 
L 493.714286 672.711343 
L 491.566358 674.838094 
L 493.714286 677.051378 
L 495.988654 678.129987 
L 493.714286 680.573345 
L 490.422857 679.27365 
L 488.27493 681.42188 
L 490.422857 684.593634 
L 490.656235 684.713773 
L 490.422857 684.903683 
L 488.065083 688.005667 
L 487.131429 689.234021 
L 485.562962 691.29756 
L 483.84 693.89756 
L 483.233269 694.589453 
L 481.692549 697.881346 
L 480.548571 701.027787 
L 480.341643 701.173239 
L 477.488325 704.465132 
L 477.257143 705.712921 
L 473.965714 706.924103 
L 470.674286 705.612513 
L 468.535576 707.757025 
L 467.382857 708.909907 
L 465.244148 711.048919 
L 467.382857 713.819415 
L 468.399967 714.340812 
L 467.382857 715.280016 
L 465.600148 717.632705 
L 464.091429 719.623801 
L 463.018538 720.924598 
L 460.8 723.937672 
L 460.52122 724.216491 
L 458.828093 727.508384 
L 457.508571 730.616171 
L 457.311741 730.800277 
L 454.866531 734.092171 
L 454.30001 737.384064 
L 454.217143 737.581199 
L 453.253793 737.384064 
L 450.925714 737.055151 
L 450.596848 737.384064 
L 449.127081 740.675957 
L 447.634286 741.589969 
L 447.255701 740.675957 
L 444.342857 738.535207 
L 442.20241 740.675957 
L 444.342857 743.130571 
L 445.995777 743.96785 
L 444.342857 745.658356 
L 441.051429 745.118994 
L 438.910981 747.259743 
L 440.4841 750.551636 
L 438.132792 753.843529 
L 437.76 754.334887 
L 435.896802 757.135423 
L 434.468571 760.15775 
L 434.242249 760.427316 
L 432.103202 763.719209 
L 431.36211 767.011102 
L 431.177143 767.41917 
L 427.885714 768.547112 
L 427.183652 770.302995 
L 424.594286 772.026253 
L 423.86646 770.302995 
L 421.302857 768.166955 
L 419.178757 770.302995 
L 421.302857 772.496893 
L 423.473449 773.594888 
L 421.302857 776.032905 
L 418.011429 774.762381 
L 415.887328 776.886781 
L 418.011429 780.048156 
L 418.246614 780.178675 
L 418.011429 780.379792 
L 415.671118 783.470568 
L 414.72 784.72668 
L 413.178523 786.762461 
L 411.428571 789.774535 
L 411.184204 790.054354 
L 409.306579 793.346247 
L 408.293535 796.63814 
L 408.137143 796.978233 
L 404.928302 799.930033 
L 404.845714 800.307433 
L 401.554286 802.305048 
L 398.262857 801.1027 
L 396.133458 803.221927 
L 394.971429 804.38412 
L 392.842029 806.51382 
L 394.971429 809.267665 
L 395.964408 809.805713 
L 394.971429 810.74809 
L 393.188028 813.097606 
L 391.68 815.084337 
L 390.588926 816.389499 
L 388.388571 819.384614 
L 388.091835 819.681392 
z
M 419.628025 770.302995 
L 421.302857 768.618748 
L 423.324233 770.302995 
L 421.302857 772.032862 
z
M 492.013098 674.838094 
L 493.714286 673.153678 
L 495.750553 674.838094 
L 493.714286 676.591045 
z
M 515.065159 645.211056 
L 516.754286 643.521691 
L 519.043286 645.211056 
L 516.754286 647.147186 
z
M 398.262857 807.978569 
L 400.806821 806.51382 
L 398.262857 805.86872 
L 397.617848 806.51382 
z
M 470.674286 712.590092 
L 473.495174 711.048919 
L 470.674286 710.420986 
L 470.046442 711.048919 
z
" clip-path="url(#p1da51cc7ad)" style="fill: #eff6fc; fill-opacity: 0.9"/>
    <path d="M 391.68 817.182173 
L 392.786248 816.389499 
L 394.747412 813.097606 
L 394.971429 812.802479 
L 398.129109 809.805713 
L 398.262857 809.604762 
L 399.278255 809.805713 
L 401.554286 811.794795 
L 401.977873 809.805713 
L 404.845714 807.094667 
L 405.272662 806.51382 
L 406.186616 803.221927 
L 408.071389 799.930033 
L 408.137143 799.869547 
L 409.623106 796.63814 
L 411.014098 793.346247 
L 411.428571 792.644426 
L 412.738781 790.054354 
L 414.72 786.791579 
L 414.762432 786.762461 
L 417.231458 783.470568 
L 418.011429 782.440484 
L 420.656366 780.178675 
L 421.302857 779.144438 
L 424.594286 779.202039 
L 427.885714 777.613654 
L 428.391843 776.886781 
L 429.030477 773.594888 
L 431.177143 770.352234 
L 431.217026 770.302995 
L 432.691599 767.011102 
L 434.051219 763.719209 
L 434.468571 763.090815 
L 435.776506 760.427316 
L 437.28285 757.135423 
L 437.76 756.418228 
L 439.713416 753.843529 
L 441.051429 752.079963 
L 443.064904 750.551636 
L 441.051429 749.408458 
L 439.810759 747.259743 
L 441.051429 746.018899 
L 443.869978 747.259743 
L 444.342857 748.352415 
L 447.21498 747.259743 
L 447.634286 746.775113 
L 448.18386 747.259743 
L 450.925714 747.830611 
L 451.284234 747.259743 
L 451.831592 743.96785 
L 454.217143 740.882868 
L 454.376406 740.675957 
L 455.69927 737.384064 
L 457.11573 734.092171 
L 457.508571 733.578075 
L 458.839895 730.800277 
L 460.217139 727.508384 
L 460.8 726.446083 
L 462.263429 724.216491 
L 464.091429 721.763966 
L 465.278019 720.924598 
L 467.181002 717.632705 
L 467.382857 717.366311 
L 470.659317 714.340812 
L 470.674286 714.317917 
L 470.781632 714.340812 
L 473.965714 717.16437 
L 474.501852 714.340812 
L 477.257143 711.359105 
L 477.487644 711.048919 
L 478.58736 707.757025 
L 480.150355 704.465132 
L 480.548571 704.023487 
L 481.891461 701.173239 
L 483.221803 697.881346 
L 483.84 696.687869 
L 485.003197 694.589453 
L 487.131429 691.324083 
L 487.171252 691.29756 
L 489.650295 688.005667 
L 490.422857 686.989252 
L 493.219171 684.713773 
L 493.714286 683.905026 
L 496.792431 684.713773 
L 497.005714 684.904156 
L 497.049603 684.713773 
L 500.297143 681.828168 
L 500.593869 681.42188 
L 501.460195 678.129987 
L 503.20855 674.838094 
L 503.588571 674.490486 
L 504.961619 671.546201 
L 506.245549 668.254308 
L 506.88 667.152804 
L 508.022074 664.962415 
L 509.658304 661.670522 
L 510.171429 660.95409 
L 512.152952 658.378628 
L 513.462857 656.650004 
L 515.642571 655.086735 
L 513.462857 653.949714 
L 512.214642 651.794842 
L 513.462857 650.54645 
L 516.269607 651.794842 
L 516.754286 653.081521 
L 520.045714 652.69685 
L 523.337143 652.296589 
L 523.698525 651.794842 
L 524.297424 648.502949 
L 526.284687 645.211056 
L 526.628571 644.962778 
L 528.035193 641.919163 
L 529.272019 638.62727 
L 529.92 637.628967 
L 531.103413 635.335376 
L 532.426776 632.043483 
L 533.211429 630.714837 
L 534.742158 628.75159 
L 536.502857 626.34266 
L 537.78328 625.459697 
L 539.576275 622.167804 
L 539.794286 621.87926 
L 543.085714 619.913582 
L 543.38304 618.875911 
L 546.377143 616.944163 
L 547.243998 615.584018 
L 548.692625 612.292124 
L 549.668571 611.538842 
L 551.165084 609.000231 
L 552.96 605.955424 
L 553.179271 605.708338 
L 555.046231 602.416445 
L 556.251429 600.372007 
L 557.219434 599.124552 
L 559.526238 595.832659 
L 559.542857 595.810693 
L 562.016825 592.540766 
L 562.834286 591.4603 
L 565.741455 589.248872 
L 566.125714 588.583084 
L 569.417143 586.766784 
L 569.97736 585.956979 
L 571.10668 582.665086 
L 572.708571 581.464223 
L 573.941368 579.373193 
L 575.78611 576.0813 
L 576 575.881406 
L 576 574.66802 
L 574.487767 576.0813 
L 573.225999 579.373193 
L 572.708571 580.250838 
L 569.488083 582.665086 
L 569.417143 582.984434 
L 566.849873 585.956979 
L 566.125714 586.227993 
L 566.030786 585.956979 
L 562.834286 584.254417 
L 561.131964 585.956979 
L 562.834286 588.50115 
L 564.382216 589.248872 
L 562.834286 590.426353 
L 561.23456 592.540766 
L 559.542857 594.776746 
L 558.743972 595.832659 
L 556.284068 599.124552 
L 556.251429 599.166613 
L 554.335651 602.416445 
L 552.96 604.750031 
L 552.036574 605.708338 
L 550.454504 609.000231 
L 549.668571 610.333449 
L 547.130926 612.292124 
L 546.397751 615.584018 
L 546.377143 615.616353 
L 543.085714 617.271095 
L 542.462853 615.584018 
L 539.794286 613.91078 
L 538.121284 615.584018 
L 539.794286 617.772761 
L 542.079178 618.875911 
L 539.794286 620.858441 
L 538.804993 622.167804 
L 536.502857 625.214758 
L 536.303802 625.459697 
L 533.89306 628.75159 
L 533.211429 629.625821 
L 531.78364 632.043483 
L 530.364032 635.335376 
L 529.92 636.195962 
L 528.341881 638.62727 
L 527.372922 641.919163 
L 526.628571 643.529772 
L 524.299865 645.211056 
L 523.353812 648.502949 
L 523.337143 648.590065 
L 523.199534 648.502949 
L 520.045714 647.86298 
L 519.614102 648.502949 
L 516.754286 651.268002 
L 513.462857 650.105477 
L 511.773731 651.794842 
L 513.462857 654.710886 
L 514.183374 655.086735 
L 513.462857 655.603483 
L 511.359927 658.378628 
L 510.171429 659.923364 
L 508.920075 661.670522 
L 507.262542 664.962415 
L 506.88 665.696095 
L 505.406505 668.254308 
L 504.282293 671.546201 
L 503.588571 673.033777 
L 501.616008 674.838094 
L 500.608312 678.129987 
L 500.297143 679.236834 
L 497.386588 678.129987 
L 497.005714 678.064289 
L 496.959317 678.129987 
L 494.594334 681.42188 
L 493.714286 681.811804 
L 493.560786 681.42188 
L 490.422857 679.720452 
L 488.721669 681.42188 
L 490.422857 683.933953 
L 491.937703 684.713773 
L 490.422857 685.946467 
L 488.857689 688.005667 
L 487.131429 690.276805 
L 486.355568 691.29756 
L 484.184924 694.589453 
L 483.84 695.211698 
L 482.457176 697.881346 
L 481.195965 701.173239 
L 480.548571 702.547316 
L 478.81934 704.465132 
L 477.811934 707.757025 
L 477.257143 709.321617 
L 473.965714 709.979536 
L 473.71707 707.757025 
L 470.674286 706.060768 
L 468.982618 707.757025 
L 467.382857 709.357012 
L 465.69119 711.048919 
L 467.382857 713.240314 
L 469.529642 714.340812 
L 467.382857 716.323164 
L 466.390575 717.632705 
L 464.091429 720.666949 
L 463.878921 720.924598 
L 461.432592 724.216491 
L 460.8 725.18027 
L 459.522616 727.508384 
L 458.134539 730.800277 
L 457.508571 732.106354 
L 455.991131 734.092171 
L 454.99964 737.384064 
L 454.217143 739.245577 
L 451.678741 740.675957 
L 450.925714 742.50458 
L 447.634286 743.068079 
L 446.643466 740.675957 
L 444.342857 738.98516 
L 442.652299 740.675957 
L 444.342857 742.614649 
L 447.014287 743.96785 
L 444.342857 746.700026 
L 441.051429 745.568946 
L 439.36087 747.259743 
L 441.051429 750.187621 
L 441.692567 750.551636 
L 441.051429 751.038292 
L 438.923104 753.843529 
L 437.76 755.376558 
L 436.589826 757.135423 
L 435.056353 760.427316 
L 434.468571 761.624283 
L 433.077211 763.719209 
L 432.026854 767.011102 
L 431.177143 768.885702 
L 429.192153 770.302995 
L 428.05962 773.594888 
L 427.885714 774.457617 
L 426.415349 773.594888 
L 424.594286 773.310074 
L 424.390777 773.594888 
L 421.966127 776.886781 
L 421.302857 777.216912 
L 421.158281 776.886781 
L 418.011429 775.211713 
L 416.336596 776.886781 
L 418.011429 779.379494 
L 419.45149 780.178675 
L 418.011429 781.410138 
L 416.451288 783.470568 
L 414.72 785.757026 
L 413.958693 786.762461 
L 412.007483 790.054354 
L 411.428571 791.19877 
L 410.160338 793.346247 
L 408.958321 796.63814 
L 408.137143 798.42389 
L 406.499845 799.930033 
L 405.345484 803.221927 
L 404.845714 804.862284 
L 401.554286 804.612801 
L 401.390418 803.221927 
L 398.262857 801.554022 
L 396.586947 803.221927 
L 394.971429 804.837673 
L 393.295518 806.51382 
L 394.971429 808.68119 
L 397.046759 809.805713 
L 394.971429 811.775284 
L 393.96772 813.097606 
L 391.68 816.111531 
L 391.447628 816.389499 
L 388.995553 819.681392 
L 389.809097 819.681392 
z
M 393.749007 806.51382 
L 394.971429 805.291226 
L 396.901747 806.51382 
L 394.971429 808.094716 
z
M 397.617848 806.51382 
L 398.262857 805.86872 
L 400.806821 806.51382 
L 398.262857 807.978569 
z
M 397.040436 803.221927 
L 398.262857 802.005345 
L 400.544123 803.221927 
L 398.262857 805.152517 
z
M 416.785864 776.886781 
L 418.011429 775.661044 
L 420.314149 776.886781 
L 418.011429 778.710833 
z
M 443.102188 740.675957 
L 444.342857 739.435113 
L 446.031231 740.675957 
L 444.342857 742.098726 
z
M 466.138232 711.048919 
L 467.382857 709.804118 
L 469.34256 711.048919 
L 467.382857 712.661213 
z
M 470.046442 711.048919 
L 470.674286 710.420986 
L 473.495174 711.048919 
L 470.674286 712.590092 
z
M 469.42966 707.757025 
L 470.674286 706.509023 
L 472.91298 707.757025 
L 470.674286 709.717005 
z
M 489.168408 681.42188 
L 490.422857 680.167255 
L 492.736752 681.42188 
L 490.422857 683.274272 
z
M 538.555459 615.584018 
L 539.794286 614.345016 
L 541.77031 615.584018 
L 539.794286 617.204742 
z
M 561.571283 585.956979 
L 562.834286 584.693798 
L 565.205863 585.956979 
L 562.834286 587.844574 
z
M 421.302857 772.032862 
L 423.324233 770.302995 
L 421.302857 768.618748 
L 419.628025 770.302995 
z
M 420.077293 770.302995 
L 421.302857 769.070542 
L 422.782006 770.302995 
L 421.302857 771.568831 
z
M 493.714286 676.591045 
L 495.750553 674.838094 
L 493.714286 673.153678 
L 492.013098 674.838094 
z
M 492.459837 674.838094 
L 493.714286 673.596013 
L 495.21582 674.838094 
L 493.714286 676.130713 
z
M 516.754286 647.147186 
L 519.043286 645.211056 
L 516.754286 643.521691 
L 515.065159 645.211056 
z
M 515.50607 645.211056 
L 516.754286 643.962664 
L 518.445791 645.211056 
L 516.754286 646.6418 
z
" clip-path="url(#p1da51cc7ad)" style="fill: #eaf3fb; fill-opacity: 0.9"/>
    <path d="M 391.68 818.268934 
L 394.30292 816.389499 
L 394.971429 815.131564 
L 398.262857 816.100854 
L 401.554286 815.252905 
L 402.630703 813.097606 
L 403.50714 809.805713 
L 404.845714 808.540323 
L 406.335283 806.51382 
L 407.027747 803.221927 
L 408.137143 801.315203 
L 409.320464 799.930033 
L 410.287892 796.63814 
L 411.428571 794.105658 
L 412.187004 793.346247 
L 413.470078 790.054354 
L 414.72 787.995917 
L 416.517437 786.762461 
L 418.011429 783.471553 
L 421.302857 783.518378 
L 424.594286 785.402132 
L 425.225328 783.470568 
L 426.357714 780.178675 
L 427.885714 779.080186 
L 429.413006 776.886781 
L 430.001335 773.594888 
L 431.177143 771.818767 
L 432.404901 770.302995 
L 433.356343 767.011102 
L 434.468571 764.557348 
L 435.279865 763.719209 
L 436.49666 760.427316 
L 437.76 757.631807 
L 438.415033 757.135423 
L 440.503728 753.843529 
L 441.051429 753.121633 
L 444.342857 751.045087 
L 447.516 753.843529 
L 447.634286 753.947806 
L 447.661427 753.843529 
L 449.077711 750.551636 
L 450.925714 749.524618 
L 452.348114 747.259743 
L 452.969642 743.96785 
L 454.217143 742.354589 
L 455.509216 740.675957 
L 456.398901 737.384064 
L 457.508571 735.049795 
L 458.392153 734.092171 
L 459.545251 730.800277 
L 460.8 727.781244 
L 461.090923 727.508384 
L 463.094266 724.216491 
L 464.091429 722.878654 
L 466.85382 720.924598 
L 467.382857 719.901621 
L 470.10229 720.924598 
L 470.674286 721.431891 
L 471.074195 720.924598 
L 473.965714 719.761744 
L 475.097598 717.632705 
L 475.86593 714.340812 
L 477.257143 712.835276 
L 478.584596 711.048919 
L 479.362787 707.757025 
L 480.548571 705.499659 
L 481.471954 704.465132 
L 482.586956 701.173239 
L 483.84 698.197635 
L 484.155847 697.881346 
L 485.821471 694.589453 
L 487.131429 692.57957 
L 489.056317 691.29756 
L 490.422857 688.116626 
L 493.714286 689.079982 
L 497.005714 689.812645 
L 497.787884 688.005667 
L 498.689024 684.713773 
L 500.297143 683.284877 
L 501.657755 681.42188 
L 502.312077 678.129987 
L 503.588571 675.947195 
L 504.559085 674.838094 
L 505.640946 671.546201 
L 506.88 668.6425 
L 507.267636 668.254308 
L 508.781605 664.962415 
L 510.171429 662.140727 
L 510.876335 661.670522 
L 512.945978 658.378628 
L 513.462857 657.696526 
L 516.754286 656.765035 
L 518.538796 658.378628 
L 520.045714 659.410134 
L 520.359635 658.378628 
L 521.398359 655.086735 
L 523.337143 653.729594 
L 524.730646 651.794842 
L 525.241035 648.502949 
L 526.628571 646.395783 
L 527.647474 645.211056 
L 528.697463 641.919163 
L 529.92 639.091878 
L 530.383917 638.62727 
L 531.842793 635.335376 
L 533.069911 632.043483 
L 533.211429 631.803853 
L 535.591257 628.75159 
L 536.502857 627.504368 
L 539.467923 625.459697 
L 539.794286 624.759715 
L 543.085714 623.313851 
L 543.972394 622.167804 
L 545.441073 618.875911 
L 546.377143 618.271974 
L 548.090245 615.584018 
L 549.668571 612.843291 
L 550.219009 612.292124 
L 551.875665 609.000231 
L 552.96 607.160818 
L 554.248969 605.708338 
L 555.756811 602.416445 
L 556.251429 601.5774 
L 558.154801 599.124552 
L 559.542857 597.140948 
L 561.571528 595.832659 
L 562.799091 592.540766 
L 562.834286 592.494247 
L 563.31121 592.540766 
L 566.125714 592.999553 
L 566.532479 592.540766 
L 567.666879 589.248872 
L 569.417143 588.134613 
L 570.923613 585.956979 
L 572.708571 582.682998 
L 572.726454 582.665086 
L 574.656736 579.373193 
L 576 577.094791 
L 576 576.0813 
L 576 575.881406 
L 575.78611 576.0813 
L 573.941368 579.373193 
L 572.708571 581.464223 
L 571.10668 582.665086 
L 569.97736 585.956979 
L 569.417143 586.766784 
L 566.125714 588.583084 
L 565.741455 589.248872 
L 562.834286 591.4603 
L 562.016825 592.540766 
L 559.542857 595.810693 
L 559.526238 595.832659 
L 557.219434 599.124552 
L 556.251429 600.372007 
L 555.046231 602.416445 
L 553.179271 605.708338 
L 552.96 605.955424 
L 551.165084 609.000231 
L 549.668571 611.538842 
L 548.692625 612.292124 
L 547.243998 615.584018 
L 546.377143 616.944163 
L 543.38304 618.875911 
L 543.085714 619.913582 
L 539.794286 621.87926 
L 539.576275 622.167804 
L 537.78328 625.459697 
L 536.502857 626.34266 
L 534.742158 628.75159 
L 533.211429 630.714837 
L 532.426776 632.043483 
L 531.103413 635.335376 
L 529.92 637.628967 
L 529.272019 638.62727 
L 528.035193 641.919163 
L 526.628571 644.962778 
L 526.284687 645.211056 
L 524.297424 648.502949 
L 523.698525 651.794842 
L 523.337143 652.296589 
L 520.045714 652.69685 
L 516.754286 653.081521 
L 516.269607 651.794842 
L 513.462857 650.54645 
L 512.214642 651.794842 
L 513.462857 653.949714 
L 515.642571 655.086735 
L 513.462857 656.650004 
L 512.152952 658.378628 
L 510.171429 660.95409 
L 509.658304 661.670522 
L 508.022074 664.962415 
L 506.88 667.152804 
L 506.245549 668.254308 
L 504.961619 671.546201 
L 503.588571 674.490486 
L 503.20855 674.838094 
L 501.460195 678.129987 
L 500.593869 681.42188 
L 500.297143 681.828168 
L 497.049603 684.713773 
L 497.005714 684.904156 
L 496.792431 684.713773 
L 493.714286 683.905026 
L 493.219171 684.713773 
L 490.422857 686.989252 
L 489.650295 688.005667 
L 487.171252 691.29756 
L 487.131429 691.324083 
L 485.003197 694.589453 
L 483.84 696.687869 
L 483.221803 697.881346 
L 481.891461 701.173239 
L 480.548571 704.023487 
L 480.150355 704.465132 
L 478.58736 707.757025 
L 477.487644 711.048919 
L 477.257143 711.359105 
L 474.501852 714.340812 
L 473.965714 717.16437 
L 470.781632 714.340812 
L 470.674286 714.317917 
L 470.659317 714.340812 
L 467.382857 717.366311 
L 467.181002 717.632705 
L 465.278019 720.924598 
L 464.091429 721.763966 
L 462.263429 724.216491 
L 460.8 726.446083 
L 460.217139 727.508384 
L 458.839895 730.800277 
L 457.508571 733.578075 
L 457.11573 734.092171 
L 455.69927 737.384064 
L 454.376406 740.675957 
L 454.217143 740.882868 
L 451.831592 743.96785 
L 451.284234 747.259743 
L 450.925714 747.830611 
L 448.18386 747.259743 
L 447.634286 746.775113 
L 447.21498 747.259743 
L 444.342857 748.352415 
L 443.869978 747.259743 
L 441.051429 746.018899 
L 439.810759 747.259743 
L 441.051429 749.408458 
L 443.064904 750.551636 
L 441.051429 752.079963 
L 439.713416 753.843529 
L 437.76 756.418228 
L 437.28285 757.135423 
L 435.776506 760.427316 
L 434.468571 763.090815 
L 434.051219 763.719209 
L 432.691599 767.011102 
L 431.217026 770.302995 
L 431.177143 770.352234 
L 429.030477 773.594888 
L 428.391843 776.886781 
L 427.885714 777.613654 
L 424.594286 779.202039 
L 421.302857 779.144438 
L 420.656366 780.178675 
L 418.011429 782.440484 
L 417.231458 783.470568 
L 414.762432 786.762461 
L 414.72 786.791579 
L 412.738781 790.054354 
L 411.428571 792.644426 
L 411.014098 793.346247 
L 409.623106 796.63814 
L 408.137143 799.869547 
L 408.071389 799.930033 
L 406.186616 803.221927 
L 405.272662 806.51382 
L 404.845714 807.094667 
L 401.977873 809.805713 
L 401.554286 811.794795 
L 399.278255 809.805713 
L 398.262857 809.604762 
L 398.129109 809.805713 
L 394.971429 812.802479 
L 394.747412 813.097606 
L 392.786248 816.389499 
L 391.68 817.182173 
L 389.809097 819.681392 
L 390.622641 819.681392 
z
M 440.260649 747.259743 
L 441.051429 746.468852 
L 442.847921 747.259743 
L 441.051429 748.629295 
z
M 512.655553 651.794842 
L 513.462857 650.987424 
L 515.27817 651.794842 
L 513.462857 653.188542 
z
M 394.971429 808.094716 
L 396.901747 806.51382 
L 394.971429 805.291226 
L 393.749007 806.51382 
z
M 394.202496 806.51382 
L 394.971429 805.744778 
L 396.185645 806.51382 
L 394.971429 807.508242 
z
M 398.262857 805.152517 
L 400.544123 803.221927 
L 398.262857 802.005345 
L 397.040436 803.221927 
z
M 397.493924 803.221927 
L 398.262857 802.456667 
L 399.697829 803.221927 
L 398.262857 804.436315 
z
M 418.011429 778.710833 
L 420.314149 776.886781 
L 418.011429 775.661044 
L 416.785864 776.886781 
z
M 417.235132 776.886781 
L 418.011429 776.110375 
L 419.470016 776.886781 
L 418.011429 778.042171 
z
M 421.302857 771.568831 
L 422.782006 770.302995 
L 421.302857 769.070542 
L 420.077293 770.302995 
z
M 420.526561 770.302995 
L 421.302857 769.522335 
L 422.239779 770.302995 
L 421.302857 771.104801 
z
M 444.342857 742.098726 
L 446.031231 740.675957 
L 444.342857 739.435113 
L 443.102188 740.675957 
z
M 443.552077 740.675957 
L 444.342857 739.885065 
L 445.418996 740.675957 
L 444.342857 741.582804 
z
M 467.382857 712.661213 
L 469.34256 711.048919 
L 467.382857 709.804118 
L 466.138232 711.048919 
z
M 466.585274 711.048919 
L 467.382857 710.251223 
L 468.638678 711.048919 
L 467.382857 712.082113 
z
M 470.674286 709.717005 
L 472.91298 707.757025 
L 470.674286 706.509023 
L 469.42966 707.757025 
z
M 469.876702 707.757025 
L 470.674286 706.957278 
L 472.108891 707.757025 
L 470.674286 709.013023 
z
M 490.422857 683.274272 
L 492.736752 681.42188 
L 490.422857 680.167255 
L 489.168408 681.42188 
z
M 489.615148 681.42188 
L 490.422857 680.614057 
L 491.912718 681.42188 
L 490.422857 682.614591 
z
M 493.714286 676.130713 
L 495.21582 674.838094 
L 493.714286 673.596013 
L 492.459837 674.838094 
z
M 492.906576 674.838094 
L 493.714286 674.038348 
L 494.681088 674.838094 
L 493.714286 675.67038 
z
M 516.754286 646.6418 
L 518.445791 645.211056 
L 516.754286 643.962664 
L 515.50607 645.211056 
z
M 515.946981 645.211056 
L 516.754286 644.403637 
L 517.848295 645.211056 
L 516.754286 646.136414 
z
M 539.794286 617.204742 
L 541.77031 615.584018 
L 539.794286 614.345016 
L 538.555459 615.584018 
z
M 538.989634 615.584018 
L 539.794286 614.779252 
L 541.077768 615.584018 
L 539.794286 616.636722 
z
M 562.834286 587.844574 
L 565.205863 585.956979 
L 562.834286 584.693798 
L 561.571283 585.956979 
z
M 562.010603 585.956979 
L 562.834286 585.13318 
L 564.38094 585.956979 
L 562.834286 587.187998 
z
" clip-path="url(#p1da51cc7ad)" style="fill: #e5eff9; fill-opacity: 0.9"/>
    <path d="M 391.68 819.355695 
L 394.142104 819.681392 
L 394.971429 819.681392 
L 398.262857 819.681392 
L 399.66786 819.681392 
L 401.554286 817.896398 
L 403.058206 816.389499 
L 403.945686 813.097606 
L 404.845714 810.313025 
L 405.35148 809.805713 
L 407.397904 806.51382 
L 407.868879 803.221927 
L 408.137143 802.76086 
L 410.555458 799.930033 
L 410.952678 796.63814 
L 411.428571 795.581584 
L 413.661029 793.346247 
L 414.201375 790.054354 
L 414.72 789.200255 
L 418.011429 787.834231 
L 420.54091 790.054354 
L 421.302857 790.722874 
L 421.6842 790.054354 
L 424.594286 788.41402 
L 426.242818 786.762461 
L 426.773974 783.470568 
L 427.885714 781.031385 
L 428.736185 780.178675 
L 430.434169 776.886781 
L 430.972192 773.594888 
L 431.177143 773.285299 
L 433.592776 770.302995 
L 434.021087 767.011102 
L 434.468571 766.02388 
L 436.699425 763.719209 
L 437.216813 760.427316 
L 437.76 759.225357 
L 440.517896 757.135423 
L 441.051429 755.645836 
L 443.114393 757.135423 
L 444.342857 758.218989 
L 447.634286 758.546464 
L 449.042564 757.135423 
L 449.528166 753.843529 
L 450.925714 751.686212 
L 452.057792 750.551636 
L 453.411993 747.259743 
L 454.107692 743.96785 
L 454.217143 743.826309 
L 456.642026 740.675957 
L 457.098531 737.384064 
L 457.508571 736.521515 
L 459.750082 734.092171 
L 460.250607 730.800277 
L 460.8 729.47839 
L 462.900417 727.508384 
L 463.925103 724.216491 
L 464.091429 723.993341 
L 465.712555 724.216491 
L 467.382857 725.698779 
L 469.424476 727.508384 
L 470.674286 728.057578 
L 471.221952 727.508384 
L 472.125341 724.216491 
L 473.965714 722.197098 
L 475.235581 720.924598 
L 476.308418 717.632705 
L 477.230009 714.340812 
L 477.257143 714.311448 
L 479.681548 711.048919 
L 480.138213 707.757025 
L 480.548571 706.97583 
L 482.789535 704.465132 
L 483.282452 701.173239 
L 483.84 699.849229 
L 485.805131 697.881346 
L 486.639744 694.589453 
L 487.131429 693.835056 
L 490.422857 693.254909 
L 491.917809 694.589453 
L 493.714286 696.192197 
L 494.435596 694.589453 
L 497.005714 692.616192 
L 498.321442 691.29756 
L 499.175018 688.005667 
L 500.297143 684.789678 
L 500.372785 684.713773 
L 502.72164 681.42188 
L 503.163959 678.129987 
L 503.588571 677.403905 
L 505.83377 674.838094 
L 506.320272 671.546201 
L 506.88 670.23449 
L 508.857341 668.254308 
L 509.541136 664.962415 
L 510.171429 663.682764 
L 513.188074 661.670522 
L 513.462857 660.832795 
L 514.388456 661.670522 
L 516.754286 663.810279 
L 520.045714 663.020838 
L 521.392917 661.670522 
L 521.983339 658.378628 
L 523.337143 655.283274 
L 523.532981 655.086735 
L 525.762767 651.794842 
L 526.184647 648.502949 
L 526.628571 647.828788 
L 528.879903 645.211056 
L 529.359733 641.919163 
L 529.92 640.623469 
L 531.91323 638.62727 
L 532.582174 635.335376 
L 533.211429 633.617681 
L 535.16829 632.043483 
L 536.440355 628.75159 
L 536.502857 628.666077 
L 537.077576 628.75159 
L 539.794286 629.704497 
L 540.744971 628.75159 
L 542.226678 625.459697 
L 543.085714 624.984098 
L 545.26464 622.167804 
L 546.377143 620.152248 
L 547.65091 618.875911 
L 548.936492 615.584018 
L 549.668571 614.312779 
L 551.686553 612.292124 
L 552.586245 609.000231 
L 552.96 608.366211 
L 555.318667 605.708338 
L 556.251429 603.267264 
L 557.099973 602.416445 
L 559.090167 599.124552 
L 559.542857 598.477635 
L 562.834286 598.679916 
L 564.082615 595.832659 
L 566.125714 594.727523 
L 568.06451 592.540766 
L 569.417143 589.820122 
L 569.986791 589.248872 
L 571.869866 585.956979 
L 572.708571 584.41862 
L 574.459222 582.665086 
L 575.372104 579.373193 
L 576 578.308176 
L 576 577.094791 
L 574.656736 579.373193 
L 572.726454 582.665086 
L 572.708571 582.682998 
L 570.923613 585.956979 
L 569.417143 588.134613 
L 567.666879 589.248872 
L 566.532479 592.540766 
L 566.125714 592.999553 
L 563.31121 592.540766 
L 562.834286 592.494247 
L 562.799091 592.540766 
L 561.571528 595.832659 
L 559.542857 597.140948 
L 558.154801 599.124552 
L 556.251429 601.5774 
L 555.756811 602.416445 
L 554.248969 605.708338 
L 552.96 607.160818 
L 551.875665 609.000231 
L 550.219009 612.292124 
L 549.668571 612.843291 
L 548.090245 615.584018 
L 546.377143 618.271974 
L 545.441073 618.875911 
L 543.972394 622.167804 
L 543.085714 623.313851 
L 539.794286 624.759715 
L 539.467923 625.459697 
L 536.502857 627.504368 
L 535.591257 628.75159 
L 533.211429 631.803853 
L 533.069911 632.043483 
L 531.842793 635.335376 
L 530.383917 638.62727 
L 529.92 639.091878 
L 528.697463 641.919163 
L 527.647474 645.211056 
L 526.628571 646.395783 
L 525.241035 648.502949 
L 524.730646 651.794842 
L 523.337143 653.729594 
L 521.398359 655.086735 
L 520.359635 658.378628 
L 520.045714 659.410134 
L 518.538796 658.378628 
L 516.754286 656.765035 
L 513.462857 657.696526 
L 512.945978 658.378628 
L 510.876335 661.670522 
L 510.171429 662.140727 
L 508.781605 664.962415 
L 507.267636 668.254308 
L 506.88 668.6425 
L 505.640946 671.546201 
L 504.559085 674.838094 
L 503.588571 675.947195 
L 502.312077 678.129987 
L 501.657755 681.42188 
L 500.297143 683.284877 
L 498.689024 684.713773 
L 497.787884 688.005667 
L 497.005714 689.812645 
L 493.714286 689.079982 
L 490.422857 688.116626 
L 489.056317 691.29756 
L 487.131429 692.57957 
L 485.821471 694.589453 
L 484.155847 697.881346 
L 483.84 698.197635 
L 482.586956 701.173239 
L 481.471954 704.465132 
L 480.548571 705.499659 
L 479.362787 707.757025 
L 478.584596 711.048919 
L 477.257143 712.835276 
L 475.86593 714.340812 
L 475.097598 717.632705 
L 473.965714 719.761744 
L 471.074195 720.924598 
L 470.674286 721.431891 
L 470.10229 720.924598 
L 467.382857 719.901621 
L 466.85382 720.924598 
L 464.091429 722.878654 
L 463.094266 724.216491 
L 461.090923 727.508384 
L 460.8 727.781244 
L 459.545251 730.800277 
L 458.392153 734.092171 
L 457.508571 735.049795 
L 456.398901 737.384064 
L 455.509216 740.675957 
L 454.217143 742.354589 
L 452.969642 743.96785 
L 452.348114 747.259743 
L 450.925714 749.524618 
L 449.077711 750.551636 
L 447.661427 753.843529 
L 447.634286 753.947806 
L 447.516 753.843529 
L 444.342857 751.045087 
L 441.051429 753.121633 
L 440.503728 753.843529 
L 438.415033 757.135423 
L 437.76 757.631807 
L 436.49666 760.427316 
L 435.279865 763.719209 
L 434.468571 764.557348 
L 433.356343 767.011102 
L 432.404901 770.302995 
L 431.177143 771.818767 
L 430.001335 773.594888 
L 429.413006 776.886781 
L 427.885714 779.080186 
L 426.357714 780.178675 
L 425.225328 783.470568 
L 424.594286 785.402132 
L 421.302857 783.518378 
L 418.011429 783.471553 
L 416.517437 786.762461 
L 414.72 787.995917 
L 413.470078 790.054354 
L 412.187004 793.346247 
L 411.428571 794.105658 
L 410.287892 796.63814 
L 409.320464 799.930033 
L 408.137143 801.315203 
L 407.027747 803.221927 
L 406.335283 806.51382 
L 404.845714 808.540323 
L 403.50714 809.805713 
L 402.630703 813.097606 
L 401.554286 815.252905 
L 398.262857 816.100854 
L 394.971429 815.131564 
L 394.30292 816.389499 
L 391.68 818.268934 
L 390.622641 819.681392 
L 391.436185 819.681392 
z
M 394.971429 807.508242 
L 396.185645 806.51382 
L 394.971429 805.744778 
L 394.202496 806.51382 
z
M 394.655985 806.51382 
L 394.971429 806.198331 
L 395.469544 806.51382 
L 394.971429 806.921768 
z
M 398.262857 804.436315 
L 399.697829 803.221927 
L 398.262857 802.456667 
L 397.493924 803.221927 
z
M 397.947413 803.221927 
L 398.262857 802.90799 
L 398.851534 803.221927 
L 398.262857 803.720113 
z
M 418.011429 778.042171 
L 419.470016 776.886781 
L 418.011429 776.110375 
L 417.235132 776.886781 
z
M 417.6844 776.886781 
L 418.011429 776.559707 
L 418.625884 776.886781 
L 418.011429 777.373509 
z
M 421.302857 771.104801 
L 422.239779 770.302995 
L 421.302857 769.522335 
L 420.526561 770.302995 
z
M 420.975829 770.302995 
L 421.302857 769.974128 
L 421.697552 770.302995 
L 421.302857 770.64077 
z
M 441.051429 748.629295 
L 442.847921 747.259743 
L 441.051429 746.468852 
L 440.260649 747.259743 
z
M 440.710538 747.259743 
L 441.051429 746.918804 
L 441.825864 747.259743 
L 441.051429 747.850132 
z
M 444.342857 741.582804 
L 445.418996 740.675957 
L 444.342857 739.885065 
L 443.552077 740.675957 
z
M 444.001966 740.675957 
L 444.342857 740.335018 
L 444.806761 740.675957 
L 444.342857 741.066882 
z
M 467.382857 712.082113 
L 468.638678 711.048919 
L 467.382857 710.251223 
L 466.585274 711.048919 
z
M 467.032316 711.048919 
L 467.382857 710.698328 
L 467.934796 711.048919 
L 467.382857 711.503012 
z
M 470.674286 709.013023 
L 472.108891 707.757025 
L 470.674286 706.957278 
L 469.876702 707.757025 
z
M 470.323744 707.757025 
L 470.674286 707.405533 
L 471.304801 707.757025 
L 470.674286 708.309042 
z
M 490.422857 682.614591 
L 491.912718 681.42188 
L 490.422857 680.614057 
L 489.615148 681.42188 
z
M 490.061887 681.42188 
L 490.422857 681.060859 
L 491.088685 681.42188 
L 490.422857 681.95491 
z
M 493.714286 675.67038 
L 494.681088 674.838094 
L 493.714286 674.038348 
L 492.906576 674.838094 
z
M 493.353316 674.838094 
L 493.714286 674.480683 
L 494.146355 674.838094 
L 493.714286 675.210048 
z
M 513.462857 653.188542 
L 515.27817 651.794842 
L 513.462857 650.987424 
L 512.655553 651.794842 
z
M 513.096464 651.794842 
L 513.462857 651.428397 
L 514.286734 651.794842 
L 513.462857 652.42737 
z
M 516.754286 646.136414 
L 517.848295 645.211056 
L 516.754286 644.403637 
L 515.946981 645.211056 
z
M 516.387892 645.211056 
L 516.754286 644.84461 
L 517.2508 645.211056 
L 516.754286 645.631028 
z
M 539.794286 616.636722 
L 541.077768 615.584018 
L 539.794286 614.779252 
L 538.989634 615.584018 
z
M 539.423809 615.584018 
L 539.794286 615.213488 
L 540.385225 615.584018 
L 539.794286 616.068703 
z
M 562.834286 587.187998 
L 564.38094 585.956979 
L 562.834286 585.13318 
L 562.010603 585.956979 
z
M 562.449922 585.956979 
L 562.834286 585.572561 
L 563.556017 585.956979 
L 562.834286 586.531422 
z
" clip-path="url(#p1da51cc7ad)" style="fill: #dfecf7; fill-opacity: 0.9"/>
    <path d="M 391.68 819.681392 
L 394.142104 819.681392 
L 391.68 819.355695 
L 391.436185 819.681392 
z
M 401.554286 819.681392 
L 404.845714 819.681392 
L 408.137143 819.681392 
L 411.428571 819.681392 
L 414.72 819.681392 
L 418.011429 819.681392 
L 421.302857 819.681392 
L 424.594286 819.681392 
L 427.885714 819.681392 
L 431.177143 819.681392 
L 434.468571 819.681392 
L 437.76 819.681392 
L 441.051429 819.681392 
L 444.342857 819.681392 
L 447.634286 819.681392 
L 450.925714 819.681392 
L 454.217143 819.681392 
L 457.508571 819.681392 
L 460.8 819.681392 
L 464.091429 819.681392 
L 467.382857 819.681392 
L 467.820736 819.681392 
L 469.181566 816.389499 
L 470.674286 814.237244 
L 470.957659 813.097606 
L 471.775149 809.805713 
L 473.965714 807.013102 
L 474.21029 806.51382 
L 474.648877 803.221927 
L 477.257143 800.033774 
L 477.385522 799.930033 
L 478.277148 796.63814 
L 480.548571 794.11634 
L 481.514767 793.346247 
L 483.637599 790.054354 
L 483.84 789.656115 
L 486.573134 786.762461 
L 487.131429 785.786016 
L 488.972295 783.470568 
L 490.422857 781.813792 
L 491.689406 780.178675 
L 493.714286 777.614162 
L 494.351235 776.886781 
L 496.951117 773.594888 
L 497.005714 773.524875 
L 499.94919 770.302995 
L 500.297143 769.898671 
L 502.69207 767.011102 
L 503.588571 766.033153 
L 506.054945 763.719209 
L 506.88 762.745293 
L 508.841148 760.427316 
L 510.171429 758.878435 
L 511.487854 757.135423 
L 513.462857 754.655095 
L 514.08979 753.843529 
L 516.614294 750.551636 
L 516.754286 750.366235 
L 519.285111 747.259743 
L 520.045714 746.260503 
L 521.88395 743.96785 
L 523.337143 742.271595 
L 524.633911 740.675957 
L 526.628571 738.063058 
L 527.365123 737.384064 
L 529.92 735.028835 
L 530.805335 734.092171 
L 533.211429 731.36342 
L 533.658446 730.800277 
L 536.179423 727.508384 
L 536.502857 727.100197 
L 538.784724 724.216491 
L 539.794286 722.916184 
L 541.399082 720.924598 
L 543.085714 718.800616 
L 543.870853 717.632705 
L 546.377143 714.540915 
L 546.577082 714.340812 
L 549.175734 711.048919 
L 549.668571 710.390716 
L 552.459927 707.757025 
L 552.96 707.263911 
L 555.878727 704.465132 
L 556.251429 704.080719 
L 558.722478 701.173239 
L 559.542857 700.137936 
L 561.323126 697.881346 
L 562.834286 696.104668 
L 563.902942 694.589453 
L 566.125714 691.620188 
L 566.379415 691.29756 
L 568.691226 688.005667 
L 569.417143 687.01119 
L 571.591606 684.713773 
L 572.708571 683.23109 
L 573.190433 681.42188 
L 576 678.628408 
L 576 678.129987 
L 576 674.838094 
L 576 671.546201 
L 576 668.254308 
L 576 664.962415 
L 576 661.670522 
L 576 658.378628 
L 576 655.086735 
L 576 651.794842 
L 576 648.502949 
L 576 648.07554 
L 575.766996 648.502949 
L 574.604411 651.794842 
L 572.708571 652.951372 
L 571.430957 655.086735 
L 569.427963 658.378628 
L 569.417143 658.386666 
L 567.451222 661.670522 
L 566.125714 664.587488 
L 565.886038 664.962415 
L 564.644571 668.254308 
L 563.499676 671.546201 
L 562.834286 672.735975 
L 561.406327 674.838094 
L 560.862443 678.129987 
L 559.542857 680.877054 
L 558.310112 681.42188 
L 556.917928 684.713773 
L 557.027063 688.005667 
L 556.251429 688.888918 
L 554.696803 688.005667 
L 554.128993 684.713773 
L 553.991939 681.42188 
L 553.696821 678.129987 
L 554.957492 674.838094 
L 555.463891 671.546201 
L 556.145639 668.254308 
L 556.251429 668.009535 
L 557.638594 664.962415 
L 558.409939 661.670522 
L 559.527683 658.378628 
L 559.542857 658.345188 
L 560.904757 655.086735 
L 562.80381 651.794842 
L 562.834286 651.747344 
L 564.860944 648.502949 
L 566.125714 646.176221 
L 567.443693 645.211056 
L 569.028297 641.919163 
L 569.417143 641.120265 
L 572.708571 639.659125 
L 573.246721 638.62727 
L 576 636.996137 
L 576 635.335376 
L 576 632.043483 
L 576 628.75159 
L 576 625.459697 
L 576 622.167804 
L 576 618.875911 
L 576 615.584018 
L 576 612.292124 
L 576 609.000231 
L 576 605.708338 
L 576 602.416445 
L 576 599.124552 
L 576 595.832659 
L 576 592.540766 
L 576 589.248872 
L 576 585.956979 
L 576 582.665086 
L 576 579.373193 
L 576 578.308176 
L 575.372104 579.373193 
L 574.459222 582.665086 
L 572.708571 584.41862 
L 571.869866 585.956979 
L 569.986791 589.248872 
L 569.417143 589.820122 
L 568.06451 592.540766 
L 566.125714 594.727523 
L 564.082615 595.832659 
L 562.834286 598.679916 
L 559.542857 598.477635 
L 559.090167 599.124552 
L 557.099973 602.416445 
L 556.251429 603.267264 
L 555.318667 605.708338 
L 552.96 608.366211 
L 552.586245 609.000231 
L 551.686553 612.292124 
L 549.668571 614.312779 
L 548.936492 615.584018 
L 547.65091 618.875911 
L 546.377143 620.152248 
L 545.26464 622.167804 
L 543.085714 624.984098 
L 542.226678 625.459697 
L 540.744971 628.75159 
L 539.794286 629.704497 
L 537.077576 628.75159 
L 536.502857 628.666077 
L 536.440355 628.75159 
L 535.16829 632.043483 
L 533.211429 633.617681 
L 532.582174 635.335376 
L 531.91323 638.62727 
L 529.92 640.623469 
L 529.359733 641.919163 
L 528.879903 645.211056 
L 526.628571 647.828788 
L 526.184647 648.502949 
L 525.762767 651.794842 
L 523.532981 655.086735 
L 523.337143 655.283274 
L 521.983339 658.378628 
L 521.392917 661.670522 
L 520.045714 663.020838 
L 516.754286 663.810279 
L 514.388456 661.670522 
L 513.462857 660.832795 
L 513.188074 661.670522 
L 510.171429 663.682764 
L 509.541136 664.962415 
L 508.857341 668.254308 
L 506.88 670.23449 
L 506.320272 671.546201 
L 505.83377 674.838094 
L 503.588571 677.403905 
L 503.163959 678.129987 
L 502.72164 681.42188 
L 500.372785 684.713773 
L 500.297143 684.789678 
L 499.175018 688.005667 
L 498.321442 691.29756 
L 497.005714 692.616192 
L 494.435596 694.589453 
L 493.714286 696.192197 
L 491.917809 694.589453 
L 490.422857 693.254909 
L 487.131429 693.835056 
L 486.639744 694.589453 
L 485.805131 697.881346 
L 483.84 699.849229 
L 483.282452 701.173239 
L 482.789535 704.465132 
L 480.548571 706.97583 
L 480.138213 707.757025 
L 479.681548 711.048919 
L 477.257143 714.311448 
L 477.230009 714.340812 
L 476.308418 717.632705 
L 475.235581 720.924598 
L 473.965714 722.197098 
L 472.125341 724.216491 
L 471.221952 727.508384 
L 470.674286 728.057578 
L 469.424476 727.508384 
L 467.382857 725.698779 
L 465.712555 724.216491 
L 464.091429 723.993341 
L 463.925103 724.216491 
L 462.900417 727.508384 
L 460.8 729.47839 
L 460.250607 730.800277 
L 459.750082 734.092171 
L 457.508571 736.521515 
L 457.098531 737.384064 
L 456.642026 740.675957 
L 454.217143 743.826309 
L 454.107692 743.96785 
L 453.411993 747.259743 
L 452.057792 750.551636 
L 450.925714 751.686212 
L 449.528166 753.843529 
L 449.042564 757.135423 
L 447.634286 758.546464 
L 444.342857 758.218989 
L 443.114393 757.135423 
L 441.051429 755.645836 
L 440.517896 757.135423 
L 437.76 759.225357 
L 437.216813 760.427316 
L 436.699425 763.719209 
L 434.468571 766.02388 
L 434.021087 767.011102 
L 433.592776 770.302995 
L 431.177143 773.285299 
L 430.972192 773.594888 
L 430.434169 776.886781 
L 428.736185 780.178675 
L 427.885714 781.031385 
L 426.773974 783.470568 
L 426.242818 786.762461 
L 424.594286 788.41402 
L 421.6842 790.054354 
L 421.302857 790.722874 
L 420.54091 790.054354 
L 418.011429 787.834231 
L 414.72 789.200255 
L 414.201375 790.054354 
L 413.661029 793.346247 
L 411.428571 795.581584 
L 410.952678 796.63814 
L 410.555458 799.930033 
L 408.137143 802.76086 
L 407.868879 803.221927 
L 407.397904 806.51382 
L 405.35148 809.805713 
L 404.845714 810.313025 
L 403.945686 813.097606 
L 403.058206 816.389499 
L 401.554286 817.896398 
L 399.66786 819.681392 
z
M 394.971429 806.921768 
L 395.469544 806.51382 
L 394.971429 806.198331 
L 394.655985 806.51382 
z
M 398.262857 803.720113 
L 398.851534 803.221927 
L 398.262857 802.90799 
L 397.947413 803.221927 
z
M 418.011429 777.373509 
L 418.625884 776.886781 
L 418.011429 776.559707 
L 417.6844 776.886781 
z
M 421.302857 770.64077 
L 421.697552 770.302995 
L 421.302857 769.974128 
L 420.975829 770.302995 
z
M 441.051429 747.850132 
L 441.825864 747.259743 
L 441.051429 746.918804 
L 440.710538 747.259743 
z
M 444.342857 741.066882 
L 444.806761 740.675957 
L 444.342857 740.335018 
L 444.001966 740.675957 
z
M 467.382857 711.503012 
L 467.934796 711.048919 
L 467.382857 710.698328 
L 467.032316 711.048919 
z
M 470.674286 708.309042 
L 471.304801 707.757025 
L 470.674286 707.405533 
L 470.323744 707.757025 
z
M 490.422857 681.95491 
L 491.088685 681.42188 
L 490.422857 681.060859 
L 490.061887 681.42188 
z
M 493.714286 675.210048 
L 494.146355 674.838094 
L 493.714286 674.480683 
L 493.353316 674.838094 
z
M 513.462857 652.42737 
L 514.286734 651.794842 
L 513.462857 651.428397 
L 513.096464 651.794842 
z
M 516.754286 645.631028 
L 517.2508 645.211056 
L 516.754286 644.84461 
L 516.387892 645.211056 
z
M 539.794286 616.068703 
L 540.385225 615.584018 
L 539.794286 615.213488 
L 539.423809 615.584018 
z
M 562.834286 586.531422 
L 563.556017 585.956979 
L 562.834286 585.572561 
L 562.449922 585.956979 
z
" clip-path="url(#p1da51cc7ad)" style="fill: #dae8f6; fill-opacity: 0.9"/>
    <path d="M 470.674286 819.681392 
L 473.965714 819.681392 
L 477.257143 819.681392 
L 480.548571 819.681392 
L 483.84 819.681392 
L 487.131429 819.681392 
L 490.422857 819.681392 
L 493.714286 819.681392 
L 497.005714 819.681392 
L 500.297143 819.681392 
L 503.588571 819.681392 
L 506.88 819.681392 
L 510.171429 819.681392 
L 513.462857 819.681392 
L 516.754286 819.681392 
L 520.045714 819.681392 
L 523.337143 819.681392 
L 526.628571 819.681392 
L 529.92 819.681392 
L 533.211429 819.681392 
L 536.502857 819.681392 
L 539.794286 819.681392 
L 543.085714 819.681392 
L 546.377143 819.681392 
L 549.668571 819.681392 
L 552.96 819.681392 
L 556.251429 819.681392 
L 559.542857 819.681392 
L 562.834286 819.681392 
L 566.125714 819.681392 
L 569.417143 819.681392 
L 572.708571 819.681392 
L 576 819.681392 
L 576 816.389499 
L 576 813.097606 
L 576 809.805713 
L 576 806.51382 
L 576 803.221927 
L 576 799.930033 
L 576 796.63814 
L 576 793.346247 
L 576 790.054354 
L 576 786.762461 
L 576 783.470568 
L 576 780.178675 
L 576 776.886781 
L 576 773.594888 
L 576 770.302995 
L 576 767.011102 
L 576 763.719209 
L 576 760.427316 
L 576 757.135423 
L 576 753.843529 
L 576 750.551636 
L 576 747.259743 
L 576 743.96785 
L 576 740.675957 
L 576 737.384064 
L 576 734.092171 
L 576 730.800277 
L 576 727.508384 
L 576 724.216491 
L 576 720.924598 
L 576 717.632705 
L 576 714.340812 
L 576 711.048919 
L 576 707.757025 
L 576 704.465132 
L 576 701.173239 
L 576 697.881346 
L 576 694.589453 
L 576 691.29756 
L 576 688.005667 
L 576 684.713773 
L 576 681.42188 
L 576 678.628408 
L 573.190433 681.42188 
L 572.708571 683.23109 
L 571.591606 684.713773 
L 569.417143 687.01119 
L 568.691226 688.005667 
L 566.379415 691.29756 
L 566.125714 691.620188 
L 563.902942 694.589453 
L 562.834286 696.104668 
L 561.323126 697.881346 
L 559.542857 700.137936 
L 558.722478 701.173239 
L 556.251429 704.080719 
L 555.878727 704.465132 
L 552.96 707.263911 
L 552.459927 707.757025 
L 549.668571 710.390716 
L 549.175734 711.048919 
L 546.577082 714.340812 
L 546.377143 714.540915 
L 543.870853 717.632705 
L 543.085714 718.800616 
L 541.399082 720.924598 
L 539.794286 722.916184 
L 538.784724 724.216491 
L 536.502857 727.100197 
L 536.179423 727.508384 
L 533.658446 730.800277 
L 533.211429 731.36342 
L 530.805335 734.092171 
L 529.92 735.028835 
L 527.365123 737.384064 
L 526.628571 738.063058 
L 524.633911 740.675957 
L 523.337143 742.271595 
L 521.88395 743.96785 
L 520.045714 746.260503 
L 519.285111 747.259743 
L 516.754286 750.366235 
L 516.614294 750.551636 
L 514.08979 753.843529 
L 513.462857 754.655095 
L 511.487854 757.135423 
L 510.171429 758.878435 
L 508.841148 760.427316 
L 506.88 762.745293 
L 506.054945 763.719209 
L 503.588571 766.033153 
L 502.69207 767.011102 
L 500.297143 769.898671 
L 499.94919 770.302995 
L 497.005714 773.524875 
L 496.951117 773.594888 
L 494.351235 776.886781 
L 493.714286 777.614162 
L 491.689406 780.178675 
L 490.422857 781.813792 
L 488.972295 783.470568 
L 487.131429 785.786016 
L 486.573134 786.762461 
L 483.84 789.656115 
L 483.637599 790.054354 
L 481.514767 793.346247 
L 480.548571 794.11634 
L 478.277148 796.63814 
L 477.385522 799.930033 
L 477.257143 800.033774 
L 474.648877 803.221927 
L 474.21029 806.51382 
L 473.965714 807.013102 
L 471.775149 809.805713 
L 470.957659 813.097606 
L 470.674286 814.237244 
L 469.181566 816.389499 
L 467.820736 819.681392 
z
M 556.251429 688.888918 
L 557.027063 688.005667 
L 556.917928 684.713773 
L 558.310112 681.42188 
L 559.542857 680.877054 
L 560.862443 678.129987 
L 561.406327 674.838094 
L 562.834286 672.735975 
L 563.499676 671.546201 
L 564.644571 668.254308 
L 565.886038 664.962415 
L 566.125714 664.587488 
L 567.451222 661.670522 
L 569.417143 658.386666 
L 569.427963 658.378628 
L 571.430957 655.086735 
L 572.708571 652.951372 
L 574.604411 651.794842 
L 575.766996 648.502949 
L 576 648.07554 
L 576 645.211056 
L 576 641.919163 
L 576 638.62727 
L 576 636.996137 
L 573.246721 638.62727 
L 572.708571 639.659125 
L 569.417143 641.120265 
L 569.028297 641.919163 
L 567.443693 645.211056 
L 566.125714 646.176221 
L 564.860944 648.502949 
L 562.834286 651.747344 
L 562.80381 651.794842 
L 560.904757 655.086735 
L 559.542857 658.345188 
L 559.527683 658.378628 
L 558.409939 661.670522 
L 557.638594 664.962415 
L 556.251429 668.009535 
L 556.145639 668.254308 
L 555.463891 671.546201 
L 554.957492 674.838094 
L 553.696821 678.129987 
L 553.991939 681.42188 
L 554.128993 684.713773 
L 554.696803 688.005667 
z
" clip-path="url(#p1da51cc7ad)" style="fill: #d6e5f4; fill-opacity: 0.9"/>
    <path clip-path="url(#p1da51cc7ad)" style="fill: #d0e2f2; fill-opacity: 0.9"/>
    <path clip-path="url(#p1da51cc7ad)" style="fill: #cbdef1; fill-opacity: 0.9"/>
    <path clip-path="url(#p1da51cc7ad)" style="fill: #c6dbef; fill-opacity: 0.9"/>
    <path clip-path="url(#p1da51cc7ad)" style="fill: #bed8ec; fill-opacity: 0.9"/>
    <path clip-path="url(#p1da51cc7ad)" style="fill: #b5d4e9; fill-opacity: 0.9"/>
    <path clip-path="url(#p1da51cc7ad)" style="fill: #add0e6; fill-opacity: 0.9"/>
    <path clip-path="url(#p1da51cc7ad)" style="fill: #a5cde3; fill-opacity: 0.9"/>
    <path clip-path="url(#p1da51cc7ad)" style="fill: #9cc9e1; fill-opacity: 0.9"/>
    <path clip-path="url(#p1da51cc7ad)" style="fill: #91c3de; fill-opacity: 0.9"/>
    <path clip-path="url(#p1da51cc7ad)" style="fill: #85bcdc; fill-opacity: 0.9"/>
    <path clip-path="url(#p1da51cc7ad)" style="fill: #7cb7da; fill-opacity: 0.9"/>
    <path clip-path="url(#p1da51cc7ad)" style="fill: #71b1d7; fill-opacity: 0.9"/>
    <path clip-path="url(#p1da51cc7ad)" style="fill: #66abd4; fill-opacity: 0.9"/>
    <path clip-path="url(#p1da51cc7ad)" style="fill: #5da5d1; fill-opacity: 0.9"/>
    <path clip-path="url(#p1da51cc7ad)" style="fill: #56a0ce; fill-opacity: 0.9"/>
    <path clip-path="url(#p1da51cc7ad)" style="fill: #4d99ca; fill-opacity: 0.9"/>
    <path clip-path="url(#p1da51cc7ad)" style="fill: #4493c7; fill-opacity: 0.9"/>
    <path clip-path="url(#p1da51cc7ad)" style="fill: #3c8cc3; fill-opacity: 0.9"/>
    <path clip-path="url(#p1da51cc7ad)" style="fill: #3686c0; fill-opacity: 0.9"/>
    <path clip-path="url(#p1da51cc7ad)" style="fill: #2f7fbc; fill-opacity: 0.9"/>
    <path clip-path="url(#p1da51cc7ad)" style="fill: #2777b8; fill-opacity: 0.9"/>
    <path clip-path="url(#p1da51cc7ad)" style="fill: #2070b4; fill-opacity: 0.9"/>
    <path clip-path="url(#p1da51cc7ad)" style="fill: #1c6ab0; fill-opacity: 0.9"/>
    <path clip-path="url(#p1da51cc7ad)" style="fill: #1663aa; fill-opacity: 0.9"/>
    <path clip-path="url(#p1da51cc7ad)" style="fill: #115ca5; fill-opacity: 0.9"/>
    <path clip-path="url(#p1da51cc7ad)" style="fill: #0c56a0; fill-opacity: 0.9"/>
    <path clip-path="url(#p1da51cc7ad)" style="fill: #084f99; fill-opacity: 0.9"/>
    <path clip-path="url(#p1da51cc7ad)" style="fill: #08488e; fill-opacity: 0.9"/>
    <path clip-path="url(#p1da51cc7ad)" style="fill: #084184; fill-opacity: 0.9"/>
    <path clip-path="url(#p1da51cc7ad)" style="fill: #083a7a; fill-opacity: 0.9"/>
    <path clip-path="url(#p1da51cc7ad)" style="fill: #083370; fill-opacity: 0.9"/>
    <path clip-path="url(#p1da51cc7ad)" style="fill: #08306b; fill-opacity: 0.9"/>
   </g>
   <g id="QuadContourSet_2">
    <path d="M 576 571.991251 
L 575.256948 572.789407 
L 571.757482 576.0813 
L 570.000715 579.373193 
L 569.417143 579.779114 
L 567.439115 582.665086 
L 566.125714 584.008067 
L 562.834286 583.375654 
L 560.253325 585.956979 
L 561.690592 589.248872 
L 560.272327 591.559504 
M 549.152446 606.938275 
L 548.179041 609.000231 
L 546.377143 610.370094 
L 543.085714 614.250922 
L 539.794286 613.042307 
L 537.252934 615.584018 
L 539.687549 618.875911 
L 536.502857 623.17312 
L 534.644622 625.459697 
L 533.211429 627.404106 
L 531.864135 628.75159 
L 529.92 633.329951 
L 527.882858 635.335376 
L 526.352763 638.62727 
L 523.337143 640.676312 
L 522.094468 641.919163 
L 520.045714 644.693501 
L 516.754286 642.639745 
L 514.183338 645.211056 
L 516.754286 648.157958 
L 517.482001 648.502949 
L 516.754286 649.206551 
L 513.462857 649.223531 
L 510.891909 651.794842 
L 511.884144 655.086735 
L 510.171429 657.605809 
L 509.398719 658.378628 
L 506.88 662.782677 
L 505.243081 664.962415 
L 503.588571 668.733288 
L 500.297143 670.610873 
L 499.361947 671.546201 
L 497.758134 674.838094 
L 497.005714 675.315399 
L 496.820017 674.838094 
L 493.714286 672.269008 
L 491.119619 674.838094 
L 493.714286 677.51171 
L 495.017992 678.129987 
L 493.714286 679.53056 
L 490.422857 678.826847 
L 487.82819 681.42188 
L 489.290595 684.713773 
L 487.131429 688.191236 
L 482.18442 694.589453 
L 480.548571 698.924726 
L 477.257143 701.292047 
L 475.79933 704.465132 
L 473.965714 705.718325 
L 470.674286 705.164258 
L 464.797106 711.048919 
L 467.187426 714.340812 
L 464.091429 718.580654 
L 462.158155 720.924598 
L 460.8 722.769156 
L 459.352869 724.216491 
L 457.508571 728.980404 
L 455.562929 730.800277 
L 453.522114 734.092171 
L 450.925714 735.906062 
L 449.447921 737.384064 
L 447.634286 740.035047 
L 444.342857 738.085255 
L 441.75252 740.675957 
L 444.342857 743.646493 
L 444.977266 743.96785 
L 444.342857 744.616685 
L 441.051429 744.669041 
L 438.461092 747.259743 
L 439.419319 750.551636 
L 437.76 753.010093 
L 436.926682 753.843529 
L 434.468571 758.691218 
L 433.010978 760.427316 
L 431.076351 763.719209 
L 427.885714 766.009376 
L 426.88413 767.011102 
L 425.254584 770.302995 
L 424.594286 770.742432 
L 424.408687 770.302995 
L 421.302857 767.715161 
L 418.729489 770.302995 
L 421.302857 772.960924 
L 422.556121 773.594888 
L 421.302857 775.002559 
L 418.011429 774.31305 
L 415.43806 776.886781 
L 416.909116 780.178675 
L 414.72 783.696334 
L 412.398353 786.762461 
L 411.428571 788.431681 
L 410.011486 790.054354 
L 408.452819 793.346247 
L 408.137143 794.419121 
L 404.845714 796.870801 
L 403.314212 799.930033 
L 401.554286 801.168003 
L 398.262857 800.651377 
L 392.388541 806.51382 
L 394.806213 809.805713 
L 391.68 814.057142 
L 389.730225 816.389499 
L 388.388571 818.215753 
L 386.923139 819.681392 
L 386.923139 819.681392 
" clip-path="url(#p1da51cc7ad)" style="fill: none"/>
    <path d="M 576 573.454635 
L 573.189424 576.0813 
L 572.708571 577.965498 
L 572.121701 579.373193 
L 569.417143 581.254431 
L 568.450288 582.665086 
L 566.125714 585.042014 
L 562.834286 583.815036 
L 560.692645 585.956979 
L 563.022977 589.248872 
L 562.834286 589.392406 
L 555.364688 599.124552 
L 552.96 603.544638 
L 550.875054 605.708338 
L 549.668571 609.128056 
L 546.377143 611.636812 
L 543.085714 615.462148 
L 539.794286 613.476544 
L 537.687109 615.584018 
L 539.794286 618.34078 
L 540.902671 618.875911 
L 539.794286 619.837623 
L 532.989478 628.75159 
L 531.140505 632.043483 
L 529.92 634.762956 
L 529.338527 635.335376 
L 527.411743 638.62727 
L 526.628571 642.096767 
L 523.280369 641.919163 
L 521.916012 645.211056 
L 520.045714 646.282305 
L 519.640782 645.211056 
L 516.754286 643.080718 
L 514.624248 645.211056 
L 516.754286 647.652572 
L 518.548051 648.502949 
L 516.754286 650.237277 
L 513.462857 649.664504 
L 511.33282 651.794842 
L 512.932271 655.086735 
L 508.181846 661.670522 
L 506.88 664.239386 
L 506.337027 664.962415 
L 504.56746 668.254308 
L 503.588571 671.577068 
L 500.297143 673.757012 
L 499.924802 674.838094 
L 497.005714 676.689844 
L 496.285285 674.838094 
L 493.714286 672.711343 
L 491.566358 674.838094 
L 493.714286 677.051378 
L 495.988654 678.129987 
L 493.714286 680.573345 
L 490.422857 679.27365 
L 488.27493 681.42188 
L 490.422857 684.593634 
L 490.656235 684.713773 
L 490.422857 684.903683 
L 485.562962 691.29756 
L 483.84 693.89756 
L 483.233269 694.589453 
L 481.692549 697.881346 
L 480.548571 701.027787 
L 480.341643 701.173239 
L 477.488325 704.465132 
L 477.257143 705.712921 
L 473.965714 706.924103 
L 470.674286 705.612513 
L 465.244148 711.048919 
L 467.382857 713.819415 
L 468.399967 714.340812 
L 467.382857 715.280016 
L 460.52122 724.216491 
L 458.828093 727.508384 
L 457.311741 730.800277 
L 454.866531 734.092171 
L 454.217143 737.581199 
L 453.253793 737.384064 
L 450.925714 737.055151 
L 450.596848 737.384064 
L 449.127081 740.675957 
L 447.634286 741.589969 
L 447.255701 740.675957 
L 444.342857 738.535207 
L 442.20241 740.675957 
L 444.342857 743.130571 
L 445.995777 743.96785 
L 444.342857 745.658356 
L 441.051429 745.118994 
L 438.910981 747.259743 
L 440.4841 750.551636 
L 435.896802 757.135423 
L 434.242249 760.427316 
L 432.103202 763.719209 
L 431.177143 767.41917 
L 427.885714 768.547112 
L 427.183652 770.302995 
L 424.594286 772.026253 
L 423.86646 770.302995 
L 421.302857 768.166955 
L 419.178757 770.302995 
L 421.302857 772.496893 
L 423.473449 773.594888 
L 421.302857 776.032905 
L 418.011429 774.762381 
L 415.887328 776.886781 
L 418.011429 780.048156 
L 418.246614 780.178675 
L 418.011429 780.379792 
L 416.884446 781.868163 
M 406.924426 798.093807 
L 404.928302 799.930033 
L 404.845714 800.307433 
L 401.554286 802.305048 
L 398.262857 801.1027 
L 392.842029 806.51382 
L 394.971429 809.267665 
L 395.964408 809.805713 
L 394.971429 810.74809 
L 388.091835 819.681392 
L 388.091835 819.681392 
" clip-path="url(#p1da51cc7ad)" style="fill: none"/>
    <path d="M 576 574.66802 
L 574.487767 576.0813 
L 573.225999 579.373193 
L 572.708571 580.250838 
L 569.488083 582.665086 
L 569.417143 582.984434 
L 566.849873 585.956979 
L 566.125714 586.227993 
L 566.030786 585.956979 
L 562.834286 584.254417 
L 561.131964 585.956979 
L 562.834286 588.50115 
L 564.382216 589.248872 
L 562.834286 590.426353 
L 561.23456 592.540766 
L 559.542857 594.776746 
L 558.743972 595.832659 
L 556.284068 599.124552 
L 556.251429 599.166613 
L 554.335651 602.416445 
L 552.96 604.750031 
L 552.036574 605.708338 
L 550.454504 609.000231 
L 549.668571 610.333449 
L 547.130926 612.292124 
L 546.397751 615.584018 
L 546.377143 615.616353 
L 543.085714 617.271095 
L 542.462853 615.584018 
L 539.794286 613.91078 
L 538.121284 615.584018 
L 539.794286 617.772761 
L 542.079178 618.875911 
L 539.794286 620.858441 
L 538.804993 622.167804 
L 536.502857 625.214758 
L 536.303802 625.459697 
L 533.89306 628.75159 
L 533.211429 629.625821 
L 531.78364 632.043483 
L 530.364032 635.335376 
L 529.92 636.195962 
L 528.341881 638.62727 
L 527.372922 641.919163 
L 526.628571 643.529772 
L 524.299865 645.211056 
L 523.353812 648.502949 
L 523.337143 648.590065 
L 523.199534 648.502949 
L 520.045714 647.86298 
L 519.614102 648.502949 
L 516.754286 651.268002 
L 513.462857 650.105477 
L 511.773731 651.794842 
L 513.462857 654.710886 
L 514.183374 655.086735 
L 513.462857 655.603483 
L 511.359927 658.378628 
L 510.171429 659.923364 
L 508.920075 661.670522 
L 507.262542 664.962415 
L 506.88 665.696095 
L 505.406505 668.254308 
L 504.282293 671.546201 
L 503.588571 673.033777 
L 501.616008 674.838094 
L 500.608312 678.129987 
L 500.297143 679.236834 
L 497.386588 678.129987 
L 497.005714 678.064289 
L 496.959317 678.129987 
L 494.594334 681.42188 
L 493.714286 681.811804 
L 493.560786 681.42188 
L 490.422857 679.720452 
L 488.721669 681.42188 
L 490.422857 683.933953 
L 491.937703 684.713773 
L 490.422857 685.946467 
L 488.857689 688.005667 
L 487.131429 690.276805 
L 486.355568 691.29756 
L 485.498815 692.596868 
M 476.84149 709.404701 
L 473.965714 709.979536 
L 473.71707 707.757025 
L 470.674286 706.060768 
L 468.982618 707.757025 
L 467.382857 709.357012 
L 465.69119 711.048919 
L 467.382857 713.240314 
L 469.529642 714.340812 
L 467.382857 716.323164 
L 466.390575 717.632705 
L 464.091429 720.666949 
L 463.878921 720.924598 
L 461.432592 724.216491 
L 460.8 725.18027 
L 459.522616 727.508384 
L 458.134539 730.800277 
L 457.508571 732.106354 
L 455.991131 734.092171 
L 454.99964 737.384064 
L 454.217143 739.245577 
L 451.678741 740.675957 
L 450.925714 742.50458 
L 447.634286 743.068079 
L 446.643466 740.675957 
L 444.342857 738.98516 
L 442.652299 740.675957 
L 444.342857 742.614649 
L 447.014287 743.96785 
L 444.342857 746.700026 
L 441.051429 745.568946 
L 439.36087 747.259743 
L 441.051429 750.187621 
L 441.692567 750.551636 
L 441.051429 751.038292 
L 438.923104 753.843529 
L 437.76 755.376558 
L 436.589826 757.135423 
L 435.056353 760.427316 
L 434.468571 761.624283 
L 433.077211 763.719209 
L 432.026854 767.011102 
L 431.177143 768.885702 
L 429.192153 770.302995 
L 428.05962 773.594888 
L 427.885714 774.457617 
L 426.415349 773.594888 
L 424.594286 773.310074 
L 424.390777 773.594888 
L 421.966127 776.886781 
L 421.302857 777.216912 
L 421.158281 776.886781 
L 418.011429 775.211713 
L 416.336596 776.886781 
L 418.011429 779.379494 
L 419.45149 780.178675 
L 418.011429 781.410138 
L 416.451288 783.470568 
L 414.72 785.757026 
L 413.958693 786.762461 
L 412.007483 790.054354 
L 411.428571 791.19877 
L 410.160338 793.346247 
L 408.958321 796.63814 
L 408.137143 798.42389 
L 406.499845 799.930033 
L 405.345484 803.221927 
L 404.845714 804.862284 
L 401.554286 804.612801 
L 401.390418 803.221927 
L 398.262857 801.554022 
L 396.586947 803.221927 
L 394.971429 804.837673 
L 393.295518 806.51382 
L 394.971429 808.68119 
L 397.046759 809.805713 
L 394.971429 811.775284 
L 393.96772 813.097606 
L 391.68 816.111531 
L 391.447628 816.389499 
L 388.995553 819.681392 
M 398.262857 807.978569 
L 397.617848 806.51382 
L 398.262857 805.86872 
L 400.806821 806.51382 
L 398.262857 807.978569 
z
M 421.302857 772.032862 
L 423.324233 770.302995 
L 421.302857 768.618748 
L 419.628025 770.302995 
L 421.302857 772.032862 
z
M 470.674286 712.590092 
L 470.046442 711.048919 
L 470.674286 710.420986 
L 473.495174 711.048919 
L 470.674286 712.590092 
z
M 493.714286 676.591045 
L 495.750553 674.838094 
L 493.714286 673.153678 
L 492.013098 674.838094 
L 493.714286 676.591045 
z
M 516.754286 647.147186 
L 519.043286 645.211056 
L 516.754286 643.521691 
L 515.065159 645.211056 
L 516.754286 647.147186 
z
" clip-path="url(#p1da51cc7ad)" style="fill: none"/>
    <path d="M 576 575.881406 
L 575.78611 576.0813 
L 573.941368 579.373193 
L 572.708571 581.464223 
L 571.10668 582.665086 
L 569.97736 585.956979 
L 569.417143 586.766784 
L 566.125714 588.583084 
L 565.741455 589.248872 
L 562.834286 591.4603 
L 562.016825 592.540766 
L 559.542857 595.810693 
L 559.526238 595.832659 
L 557.219434 599.124552 
L 556.251429 600.372007 
L 555.046231 602.416445 
L 553.179271 605.708338 
L 552.96 605.955424 
L 551.165084 609.000231 
L 549.668571 611.538842 
L 548.692625 612.292124 
L 547.243998 615.584018 
L 546.377143 616.944163 
L 543.38304 618.875911 
L 543.085714 619.913582 
L 539.794286 621.87926 
L 539.576275 622.167804 
L 537.78328 625.459697 
L 536.502857 626.34266 
L 534.742158 628.75159 
L 533.211429 630.714837 
L 532.426776 632.043483 
L 531.103413 635.335376 
L 529.92 637.628967 
L 529.272019 638.62727 
L 528.035193 641.919163 
L 526.628571 644.962778 
L 526.284687 645.211056 
L 524.297424 648.502949 
L 523.698525 651.794842 
L 523.337143 652.296589 
L 520.045714 652.69685 
L 516.754286 653.081521 
L 516.269607 651.794842 
L 513.462857 650.54645 
L 512.214642 651.794842 
L 513.462857 653.949714 
L 515.642571 655.086735 
L 513.462857 656.650004 
L 512.152952 658.378628 
L 510.171429 660.95409 
L 509.658304 661.670522 
L 508.022074 664.962415 
L 506.88 667.152804 
L 506.245549 668.254308 
L 504.961619 671.546201 
L 503.588571 674.490486 
L 503.20855 674.838094 
L 501.460195 678.129987 
L 500.593869 681.42188 
L 500.297143 681.828168 
L 497.049603 684.713773 
L 497.005714 684.904156 
L 496.792431 684.713773 
L 493.714286 683.905026 
L 493.219171 684.713773 
L 490.422857 686.989252 
L 489.650295 688.005667 
L 487.171252 691.29756 
L 487.131429 691.324083 
L 485.003197 694.589453 
L 483.84 696.687869 
L 483.221803 697.881346 
L 481.891461 701.173239 
L 480.548571 704.023487 
L 480.150355 704.465132 
L 478.58736 707.757025 
L 477.487644 711.048919 
L 477.257143 711.359105 
L 474.501852 714.340812 
L 473.965714 717.16437 
L 470.781632 714.340812 
L 470.674286 714.317917 
L 470.659317 714.340812 
L 467.382857 717.366311 
L 467.181002 717.632705 
L 465.278019 720.924598 
L 464.091429 721.763966 
L 462.263429 724.216491 
L 460.8 726.446083 
L 460.217139 727.508384 
L 458.839895 730.800277 
L 458.309752 731.906417 
M 449.50632 747.535086 
L 448.18386 747.259743 
L 447.634286 746.775113 
L 447.21498 747.259743 
L 444.342857 748.352415 
L 443.869978 747.259743 
L 441.051429 746.018899 
L 439.810759 747.259743 
L 441.051429 749.408458 
L 443.064904 750.551636 
L 441.051429 752.079963 
L 439.713416 753.843529 
L 437.76 756.418228 
L 437.28285 757.135423 
L 435.776506 760.427316 
L 434.468571 763.090815 
L 434.051219 763.719209 
L 432.691599 767.011102 
L 431.217026 770.302995 
L 431.177143 770.352234 
L 429.030477 773.594888 
L 428.391843 776.886781 
L 427.885714 777.613654 
L 424.594286 779.202039 
L 421.302857 779.144438 
L 420.656366 780.178675 
L 418.011429 782.440484 
L 417.231458 783.470568 
L 414.762432 786.762461 
L 414.72 786.791579 
L 412.738781 790.054354 
L 411.428571 792.644426 
L 411.014098 793.346247 
L 409.623106 796.63814 
L 408.137143 799.869547 
L 408.071389 799.930033 
L 406.186616 803.221927 
L 405.272662 806.51382 
L 404.845714 807.094667 
L 401.977873 809.805713 
L 401.554286 811.794795 
L 399.278255 809.805713 
L 398.262857 809.604762 
L 398.129109 809.805713 
L 394.971429 812.802479 
L 394.747412 813.097606 
L 392.786248 816.389499 
L 391.68 817.182173 
L 389.809097 819.681392 
M 394.971429 808.094716 
L 396.901747 806.51382 
L 394.971429 805.291226 
L 393.749007 806.51382 
L 394.971429 808.094716 
z
M 398.262857 805.152517 
L 400.544123 803.221927 
L 398.262857 802.005345 
L 397.040436 803.221927 
L 398.262857 805.152517 
z
M 418.011429 778.710833 
L 420.314149 776.886781 
L 418.011429 775.661044 
L 416.785864 776.886781 
L 418.011429 778.710833 
z
M 421.302857 771.568831 
L 422.782006 770.302995 
L 421.302857 769.070542 
L 420.077293 770.302995 
L 421.302857 771.568831 
z
M 444.342857 742.098726 
L 446.031231 740.675957 
L 444.342857 739.435113 
L 443.102188 740.675957 
L 444.342857 742.098726 
z
M 467.382857 712.661213 
L 469.34256 711.048919 
L 467.382857 709.804118 
L 466.138232 711.048919 
L 467.382857 712.661213 
z
M 470.674286 709.717005 
L 472.91298 707.757025 
L 470.674286 706.509023 
L 469.42966 707.757025 
L 470.674286 709.717005 
z
M 490.422857 683.274272 
L 492.736752 681.42188 
L 490.422857 680.167255 
L 489.168408 681.42188 
L 490.422857 683.274272 
z
M 493.714286 676.130713 
L 495.21582 674.838094 
L 493.714286 673.596013 
L 492.459837 674.838094 
L 493.714286 676.130713 
z
M 516.754286 646.6418 
L 518.445791 645.211056 
L 516.754286 643.962664 
L 515.50607 645.211056 
L 516.754286 646.6418 
z
M 539.794286 617.204742 
L 541.77031 615.584018 
L 539.794286 614.345016 
L 538.555459 615.584018 
L 539.794286 617.204742 
z
M 562.834286 587.844574 
L 565.205863 585.956979 
L 562.834286 584.693798 
L 561.571283 585.956979 
L 562.834286 587.844574 
z
" clip-path="url(#p1da51cc7ad)" style="fill: none"/>
    <path d="M 576 577.094791 
L 574.656736 579.373193 
L 572.726454 582.665086 
L 572.708571 582.682998 
L 570.923613 585.956979 
L 569.417143 588.134613 
L 567.666879 589.248872 
L 566.532479 592.540766 
L 566.125714 592.999553 
L 563.31121 592.540766 
L 562.834286 592.494247 
L 562.799091 592.540766 
L 561.571528 595.832659 
L 559.542857 597.140948 
L 558.154801 599.124552 
L 556.251429 601.5774 
L 555.756811 602.416445 
L 554.248969 605.708338 
L 552.96 607.160818 
L 551.875665 609.000231 
L 550.219009 612.292124 
L 549.668571 612.843291 
L 548.090245 615.584018 
L 546.377143 618.271974 
L 545.441073 618.875911 
L 543.972394 622.167804 
L 543.085714 623.313851 
L 539.794286 624.759715 
L 539.467923 625.459697 
L 536.502857 627.504368 
L 535.591257 628.75159 
L 533.211429 631.803853 
L 533.069911 632.043483 
L 531.842793 635.335376 
L 530.383917 638.62727 
L 529.92 639.091878 
L 528.697463 641.919163 
L 527.647474 645.211056 
L 526.628571 646.395783 
L 525.241035 648.502949 
L 524.730646 651.794842 
L 523.337143 653.729594 
L 521.398359 655.086735 
L 520.359635 658.378628 
L 520.045714 659.410134 
L 518.538796 658.378628 
L 516.754286 656.765035 
L 513.462857 657.696526 
L 512.945978 658.378628 
L 510.876335 661.670522 
L 510.171429 662.140727 
L 508.781605 664.962415 
L 508.27204 666.070385 
M 500.353425 683.207814 
L 500.297143 683.284877 
L 498.689024 684.713773 
L 497.787884 688.005667 
L 497.005714 689.812645 
L 493.714286 689.079982 
L 490.422857 688.116626 
L 489.056317 691.29756 
L 487.131429 692.57957 
L 485.821471 694.589453 
L 484.155847 697.881346 
L 483.84 698.197635 
L 482.586956 701.173239 
L 481.471954 704.465132 
L 480.548571 705.499659 
L 479.362787 707.757025 
L 478.584596 711.048919 
L 477.257143 712.835276 
L 475.86593 714.340812 
L 475.097598 717.632705 
L 473.965714 719.761744 
L 471.074195 720.924598 
L 470.674286 721.431891 
L 470.10229 720.924598 
L 467.382857 719.901621 
L 466.85382 720.924598 
L 464.091429 722.878654 
L 463.094266 724.216491 
L 461.090923 727.508384 
L 460.8 727.781244 
L 459.545251 730.800277 
L 458.392153 734.092171 
L 457.508571 735.049795 
L 456.398901 737.384064 
L 455.509216 740.675957 
L 454.217143 742.354589 
L 452.969642 743.96785 
L 452.348114 747.259743 
L 450.925714 749.524618 
L 449.077711 750.551636 
L 447.661427 753.843529 
L 447.634286 753.947806 
L 447.516 753.843529 
L 444.342857 751.045087 
L 441.051429 753.121633 
L 440.503728 753.843529 
L 438.415033 757.135423 
L 437.76 757.631807 
L 436.49666 760.427316 
L 435.279865 763.719209 
L 434.468571 764.557348 
L 433.356343 767.011102 
L 432.404901 770.302995 
L 431.177143 771.818767 
L 430.001335 773.594888 
L 429.413006 776.886781 
L 427.885714 779.080186 
L 426.357714 780.178675 
L 425.225328 783.470568 
L 424.594286 785.402132 
L 421.302857 783.518378 
L 418.011429 783.471553 
L 416.517437 786.762461 
L 414.72 787.995917 
L 413.470078 790.054354 
L 412.187004 793.346247 
L 411.428571 794.105658 
L 410.287892 796.63814 
L 409.320464 799.930033 
L 408.137143 801.315203 
L 407.027747 803.221927 
L 406.335283 806.51382 
L 404.845714 808.540323 
L 403.50714 809.805713 
L 402.630703 813.097606 
L 401.554286 815.252905 
L 398.262857 816.100854 
L 394.971429 815.131564 
L 394.30292 816.389499 
L 391.68 818.268934 
L 390.622641 819.681392 
M 394.971429 807.508242 
L 396.185645 806.51382 
L 394.971429 805.744778 
L 394.202496 806.51382 
L 394.971429 807.508242 
z
M 398.262857 804.436315 
L 399.697829 803.221927 
L 398.262857 802.456667 
L 397.493924 803.221927 
L 398.262857 804.436315 
z
M 418.011429 778.042171 
L 419.470016 776.886781 
L 418.011429 776.110375 
L 417.235132 776.886781 
L 418.011429 778.042171 
z
M 421.302857 771.104801 
L 422.239779 770.302995 
L 421.302857 769.522335 
L 420.526561 770.302995 
L 421.302857 771.104801 
z
M 441.051429 748.629295 
L 442.847921 747.259743 
L 441.051429 746.468852 
L 440.260649 747.259743 
L 441.051429 748.629295 
z
M 444.342857 741.582804 
L 445.418996 740.675957 
L 444.342857 739.885065 
L 443.552077 740.675957 
L 444.342857 741.582804 
z
M 467.382857 712.082113 
L 468.638678 711.048919 
L 467.382857 710.251223 
L 466.585274 711.048919 
L 467.382857 712.082113 
z
M 470.674286 709.013023 
L 472.108891 707.757025 
L 470.674286 706.957278 
L 469.876702 707.757025 
L 470.674286 709.013023 
z
M 490.422857 682.614591 
L 491.912718 681.42188 
L 490.422857 680.614057 
L 489.615148 681.42188 
L 490.422857 682.614591 
z
M 493.714286 675.67038 
L 494.681088 674.838094 
L 493.714286 674.038348 
L 492.906576 674.838094 
L 493.714286 675.67038 
z
M 513.462857 653.188542 
L 515.27817 651.794842 
L 513.462857 650.987424 
L 512.655553 651.794842 
L 513.462857 653.188542 
z
M 516.754286 646.136414 
L 517.848295 645.211056 
L 516.754286 644.403637 
L 515.946981 645.211056 
L 516.754286 646.136414 
z
M 539.794286 616.636722 
L 541.077768 615.584018 
L 539.794286 614.779252 
L 538.989634 615.584018 
L 539.794286 616.636722 
z
M 562.834286 587.187998 
L 564.38094 585.956979 
L 562.834286 585.13318 
L 562.010603 585.956979 
L 562.834286 587.187998 
z
" clip-path="url(#p1da51cc7ad)" style="fill: none"/>
    <path d="M 394.142104 819.681392 
L 391.68 819.355695 
L 391.436185 819.681392 
M 576 578.308176 
L 575.372104 579.373193 
L 574.459222 582.665086 
L 572.708571 584.41862 
L 571.869866 585.956979 
L 569.986791 589.248872 
L 569.417143 589.820122 
L 568.06451 592.540766 
L 566.125714 594.727523 
L 564.082615 595.832659 
L 562.834286 598.679916 
L 559.542857 598.477635 
L 559.090167 599.124552 
L 557.099973 602.416445 
L 556.251429 603.267264 
L 555.318667 605.708338 
L 552.96 608.366211 
L 552.586245 609.000231 
L 551.686553 612.292124 
L 549.668571 614.312779 
L 548.936492 615.584018 
L 547.65091 618.875911 
L 546.377143 620.152248 
L 545.26464 622.167804 
L 543.085714 624.984098 
L 542.226678 625.459697 
L 540.744971 628.75159 
L 539.794286 629.704497 
L 537.077576 628.75159 
L 536.502857 628.666077 
L 536.440355 628.75159 
L 535.16829 632.043483 
L 533.211429 633.617681 
L 532.582174 635.335376 
L 531.91323 638.62727 
L 529.92 640.623469 
L 529.359733 641.919163 
L 528.879903 645.211056 
L 526.628571 647.828788 
L 526.184647 648.502949 
L 525.762767 651.794842 
L 523.532981 655.086735 
L 523.337143 655.283274 
L 521.983339 658.378628 
L 521.392917 661.670522 
L 520.045714 663.020838 
L 516.754286 663.810279 
L 514.388456 661.670522 
L 513.462857 660.832795 
L 513.188074 661.670522 
L 510.171429 663.682764 
L 509.541136 664.962415 
L 508.857341 668.254308 
L 506.88 670.23449 
L 506.320272 671.546201 
L 505.83377 674.838094 
L 503.588571 677.403905 
L 503.163959 678.129987 
L 502.72164 681.42188 
L 500.372785 684.713773 
L 500.297143 684.789678 
L 499.175018 688.005667 
L 498.321442 691.29756 
L 497.005714 692.616192 
L 494.435596 694.589453 
L 493.714286 696.192197 
L 491.917809 694.589453 
L 490.422857 693.254909 
L 487.131429 693.835056 
L 486.639744 694.589453 
L 485.805131 697.881346 
L 483.84 699.849229 
L 483.282452 701.173239 
L 482.789535 704.465132 
L 480.548571 706.97583 
L 480.138213 707.757025 
L 479.681548 711.048919 
L 477.257143 714.311448 
L 477.230009 714.340812 
L 476.308418 717.632705 
L 475.235581 720.924598 
L 473.965714 722.197098 
L 472.125341 724.216491 
L 471.221952 727.508384 
L 470.674286 728.057578 
L 469.424476 727.508384 
L 467.382857 725.698779 
L 465.712555 724.216491 
L 464.091429 723.993341 
L 463.925103 724.216491 
L 462.900417 727.508384 
L 460.8 729.47839 
L 460.250607 730.800277 
L 459.750082 734.092171 
L 457.508571 736.521515 
L 457.098531 737.384064 
L 456.642026 740.675957 
L 454.217143 743.826309 
L 454.107692 743.96785 
L 453.411993 747.259743 
L 452.057792 750.551636 
L 450.925714 751.686212 
L 449.528166 753.843529 
L 449.042564 757.135423 
L 447.634286 758.546464 
L 444.342857 758.218989 
L 443.114393 757.135423 
L 441.051429 755.645836 
L 440.517896 757.135423 
L 437.76 759.225357 
L 437.216813 760.427316 
L 436.699425 763.719209 
L 434.468571 766.02388 
L 434.021087 767.011102 
L 433.592776 770.302995 
L 431.177143 773.285299 
L 430.972192 773.594888 
L 430.434169 776.886781 
L 428.736185 780.178675 
L 427.885714 781.031385 
L 426.773974 783.470568 
L 426.242818 786.762461 
L 424.594286 788.41402 
L 421.6842 790.054354 
L 421.302857 790.722874 
L 420.54091 790.054354 
L 418.011429 787.834231 
L 414.72 789.200255 
L 414.201375 790.054354 
L 413.661029 793.346247 
L 411.428571 795.581584 
L 410.952678 796.63814 
L 410.793939 797.953664 
M 403.411171 815.08026 
L 403.058206 816.389499 
L 401.554286 817.896398 
L 399.66786 819.681392 
M 394.971429 806.921768 
L 395.469544 806.51382 
L 394.971429 806.198331 
L 394.655985 806.51382 
L 394.971429 806.921768 
z
M 398.262857 803.720113 
L 398.851534 803.221927 
L 398.262857 802.90799 
L 397.947413 803.221927 
L 398.262857 803.720113 
z
M 418.011429 777.373509 
L 418.625884 776.886781 
L 418.011429 776.559707 
L 417.6844 776.886781 
L 418.011429 777.373509 
z
M 421.302857 770.64077 
L 421.697552 770.302995 
L 421.302857 769.974128 
L 420.975829 770.302995 
L 421.302857 770.64077 
z
M 441.051429 747.850132 
L 441.825864 747.259743 
L 441.051429 746.918804 
L 440.710538 747.259743 
L 441.051429 747.850132 
z
M 444.342857 741.066882 
L 444.806761 740.675957 
L 444.342857 740.335018 
L 444.001966 740.675957 
L 444.342857 741.066882 
z
M 467.382857 711.503012 
L 467.934796 711.048919 
L 467.382857 710.698328 
L 467.032316 711.048919 
L 467.382857 711.503012 
z
M 470.674286 708.309042 
L 471.304801 707.757025 
L 470.674286 707.405533 
L 470.323744 707.757025 
L 470.674286 708.309042 
z
M 490.422857 681.95491 
L 491.088685 681.42188 
L 490.422857 681.060859 
L 490.061887 681.42188 
L 490.422857 681.95491 
z
M 493.714286 675.210048 
L 494.146355 674.838094 
L 493.714286 674.480683 
L 493.353316 674.838094 
L 493.714286 675.210048 
z
M 513.462857 652.42737 
L 514.286734 651.794842 
L 513.462857 651.428397 
L 513.096464 651.794842 
L 513.462857 652.42737 
z
M 516.754286 645.631028 
L 517.2508 645.211056 
L 516.754286 644.84461 
L 516.387892 645.211056 
L 516.754286 645.631028 
z
M 539.794286 616.068703 
L 540.385225 615.584018 
L 539.794286 615.213488 
L 539.423809 615.584018 
L 539.794286 616.068703 
z
M 562.834286 586.531422 
L 563.556017 585.956979 
L 562.834286 585.572561 
L 562.449922 585.956979 
L 562.834286 586.531422 
z
" clip-path="url(#p1da51cc7ad)" style="fill: none"/>
    <path d="M 576 678.628408 
L 573.190433 681.42188 
L 572.708571 683.23109 
L 571.591606 684.713773 
L 569.417143 687.01119 
L 568.691226 688.005667 
L 566.379415 691.29756 
L 566.125714 691.620188 
L 563.902942 694.589453 
L 562.834286 696.104668 
L 561.323126 697.881346 
L 559.542857 700.137936 
L 558.722478 701.173239 
L 556.251429 704.080719 
L 555.878727 704.465132 
L 552.96 707.263911 
L 552.459927 707.757025 
L 549.668571 710.390716 
L 549.175734 711.048919 
L 546.577082 714.340812 
L 546.377143 714.540915 
L 544.650175 716.671324 
M 532.882542 731.736411 
L 530.805335 734.092171 
L 529.92 735.028835 
L 527.365123 737.384064 
L 526.628571 738.063058 
L 524.633911 740.675957 
L 523.337143 742.271595 
L 521.88395 743.96785 
L 520.045714 746.260503 
L 519.285111 747.259743 
L 516.754286 750.366235 
L 516.614294 750.551636 
L 514.08979 753.843529 
L 513.462857 754.655095 
L 511.487854 757.135423 
L 510.171429 758.878435 
L 508.841148 760.427316 
L 506.88 762.745293 
L 506.054945 763.719209 
L 503.588571 766.033153 
L 502.69207 767.011102 
L 500.297143 769.898671 
L 499.94919 770.302995 
L 497.005714 773.524875 
L 496.951117 773.594888 
L 494.351235 776.886781 
L 493.714286 777.614162 
L 491.689406 780.178675 
L 490.422857 781.813792 
L 488.972295 783.470568 
L 487.131429 785.786016 
L 486.573134 786.762461 
L 483.84 789.656115 
L 483.637599 790.054354 
L 481.514767 793.346247 
L 480.548571 794.11634 
L 478.277148 796.63814 
L 477.385522 799.930033 
L 477.257143 800.033774 
L 474.648877 803.221927 
L 474.21029 806.51382 
L 473.965714 807.013102 
L 471.775149 809.805713 
L 470.957659 813.097606 
L 470.674286 814.237244 
L 469.181566 816.389499 
L 467.820736 819.681392 
M 576 636.996137 
L 573.246721 638.62727 
L 572.708571 639.659125 
L 569.417143 641.120265 
L 569.028297 641.919163 
L 567.443693 645.211056 
L 566.125714 646.176221 
L 564.860944 648.502949 
L 562.834286 651.747344 
L 562.80381 651.794842 
L 560.904757 655.086735 
L 559.542857 658.345188 
L 559.527683 658.378628 
L 559.325791 658.973223 
M 554.019941 677.28625 
L 553.696821 678.129987 
L 553.991939 681.42188 
L 554.128993 684.713773 
L 554.696803 688.005667 
L 556.251429 688.888918 
L 557.027063 688.005667 
L 556.917928 684.713773 
L 558.310112 681.42188 
L 559.542857 680.877054 
L 560.862443 678.129987 
L 561.406327 674.838094 
L 562.834286 672.735975 
L 563.499676 671.546201 
L 564.644571 668.254308 
L 565.886038 664.962415 
L 566.125714 664.587488 
L 567.451222 661.670522 
L 569.417143 658.386666 
L 569.427963 658.378628 
L 571.430957 655.086735 
L 572.708571 652.951372 
L 574.604411 651.794842 
L 575.766996 648.502949 
L 576 648.07554 
" clip-path="url(#p1da51cc7ad)" style="fill: none"/>
    <path clip-path="url(#p1da51cc7ad)" style="fill: none"/>
    <path clip-path="url(#p1da51cc7ad)" style="fill: none"/>
    <path clip-path="url(#p1da51cc7ad)" style="fill: none"/>
    <path clip-path="url(#p1da51cc7ad)" style="fill: none"/>
    <path clip-path="url(#p1da51cc7ad)" style="fill: none"/>
    <path clip-path="url(#p1da51cc7ad)" style="fill: none"/>
    <path clip-path="url(#p1da51cc7ad)" style="fill: none"/>
    <path clip-path="url(#p1da51cc7ad)" style="fill: none"/>
    <path clip-path="url(#p1da51cc7ad)" style="fill: none"/>
    <path clip-path="url(#p1da51cc7ad)" style="fill: none"/>
    <path clip-path="url(#p1da51cc7ad)" style="fill: none"/>
    <path clip-path="url(#p1da51cc7ad)" style="fill: none"/>
    <path clip-path="url(#p1da51cc7ad)" style="fill: none"/>
    <path clip-path="url(#p1da51cc7ad)" style="fill: none"/>
    <path clip-path="url(#p1da51cc7ad)" style="fill: none"/>
    <path clip-path="url(#p1da51cc7ad)" style="fill: none"/>
    <path clip-path="url(#p1da51cc7ad)" style="fill: none"/>
    <path clip-path="url(#p1da51cc7ad)" style="fill: none"/>
    <path clip-path="url(#p1da51cc7ad)" style="fill: none"/>
    <path clip-path="url(#p1da51cc7ad)" style="fill: none"/>
    <path clip-path="url(#p1da51cc7ad)" style="fill: none"/>
    <path clip-path="url(#p1da51cc7ad)" style="fill: none"/>
    <path clip-path="url(#p1da51cc7ad)" style="fill: none"/>
    <path clip-path="url(#p1da51cc7ad)" style="fill: none"/>
    <path clip-path="url(#p1da51cc7ad)" style="fill: none"/>
    <path clip-path="url(#p1da51cc7ad)" style="fill: none"/>
    <path clip-path="url(#p1da51cc7ad)" style="fill: none"/>
    <path clip-path="url(#p1da51cc7ad)" style="fill: none"/>
    <path clip-path="url(#p1da51cc7ad)" style="fill: none"/>
    <path clip-path="url(#p1da51cc7ad)" style="fill: none"/>
    <path clip-path="url(#p1da51cc7ad)" style="fill: none"/>
    <path clip-path="url(#p1da51cc7ad)" style="fill: none"/>
   </g>
   <g id="text_1">
    <g clip-path="url(#p1da51cc7ad)">
     <!-- 0 -->
     <g style="opacity: 0" transform="translate(554.960641 604.151749) rotate(-54.908418) scale(0.12 -0.12)">
      <defs>
       <path id="DejaVuSans-30" d="M 2034 4250 
Q 1547 4250 1301 3770 
Q 1056 3291 1056 2328 
Q 1056 1369 1301 889 
Q 1547 409 2034 409 
Q 2525 409 2770 889 
Q 3016 1369 3016 2328 
Q 3016 3291 2770 3770 
Q 2525 4250 2034 4250 
z
M 2034 4750 
Q 2819 4750 3233 4129 
Q 3647 3509 3647 2328 
Q 3647 1150 3233 529 
Q 2819 -91 2034 -91 
Q 1250 -91 836 529 
Q 422 1150 422 2328 
Q 422 3509 836 4129 
Q 1250 4750 2034 4750 
z
" transform="scale(0.015625)"/>
      </defs>
      <use xlink:href="#DejaVuSans-30"/>
     </g>
    </g>
   </g>
   <g id="text_2">
    <g clip-path="url(#p1da51cc7ad)">
     <!-- 1 -->
     <g style="opacity: 0" transform="translate(412.340135 794.745122) rotate(-59.45414) scale(0.12 -0.12)">
      <defs>
       <path id="DejaVuSans-31" d="M 794 531 
L 1825 531 
L 1825 4091 
L 703 3866 
L 703 4441 
L 1819 4666 
L 2450 4666 
L 2450 531 
L 3481 531 
L 3481 0 
L 794 0 
L 794 531 
z
" transform="scale(0.015625)"/>
      </defs>
      <use xlink:href="#DejaVuSans-31"/>
     </g>
    </g>
   </g>
   <g id="text_3">
    <g clip-path="url(#p1da51cc7ad)">
     <!-- 2 -->
     <g style="opacity: 0" transform="translate(482.343205 706.094776) rotate(-62.183724) scale(0.12 -0.12)">
      <defs>
       <path id="DejaVuSans-32" d="M 1228 531 
L 3431 531 
L 3431 0 
L 469 0 
L 469 531 
Q 828 903 1448 1529 
Q 2069 2156 2228 2338 
Q 2531 2678 2651 2914 
Q 2772 3150 2772 3378 
Q 2772 3750 2511 3984 
Q 2250 4219 1831 4219 
Q 1534 4219 1204 4116 
Q 875 4013 500 3803 
L 500 4441 
Q 881 4594 1212 4672 
Q 1544 4750 1819 4750 
Q 2544 4750 2975 4387 
Q 3406 4025 3406 3419 
Q 3406 3131 3298 2873 
Q 3191 2616 2906 2266 
Q 2828 2175 2409 1742 
Q 1991 1309 1228 531 
z
" transform="scale(0.015625)"/>
      </defs>
      <use xlink:href="#DejaVuSans-32"/>
     </g>
    </g>
   </g>
   <g id="text_4">
    <g clip-path="url(#p1da51cc7ad)">
     <!-- 3 -->
     <g style="opacity: 0" transform="translate(455.517755 745.598863) rotate(-62.115145) scale(0.12 -0.12)">
      <defs>
       <path id="DejaVuSans-33" d="M 2597 2516 
Q 3050 2419 3304 2112 
Q 3559 1806 3559 1356 
Q 3559 666 3084 287 
Q 2609 -91 1734 -91 
Q 1441 -91 1130 -33 
Q 819 25 488 141 
L 488 750 
Q 750 597 1062 519 
Q 1375 441 1716 441 
Q 2309 441 2620 675 
Q 2931 909 2931 1356 
Q 2931 1769 2642 2001 
Q 2353 2234 1838 2234 
L 1294 2234 
L 1294 2753 
L 1863 2753 
Q 2328 2753 2575 2939 
Q 2822 3125 2822 3475 
Q 2822 3834 2567 4026 
Q 2313 4219 1838 4219 
Q 1578 4219 1281 4162 
Q 984 4106 628 3988 
L 628 4550 
Q 988 4650 1302 4700 
Q 1616 4750 1894 4750 
Q 2613 4750 3031 4423 
Q 3450 4097 3450 3541 
Q 3450 3153 3228 2886 
Q 3006 2619 2597 2516 
z
" transform="scale(0.015625)"/>
      </defs>
      <use xlink:href="#DejaVuSans-33"/>
     </g>
    </g>
   </g>
   <g id="text_5">
    <g clip-path="url(#p1da51cc7ad)">
     <!-- 4 -->
     <g style="opacity: 0" transform="translate(505.948066 679.696943) rotate(-65.01551) scale(0.12 -0.12)">
      <defs>
       <path id="DejaVuSans-34" d="M 2419 4116 
L 825 1625 
L 2419 1625 
L 2419 4116 
z
M 2253 4666 
L 3047 4666 
L 3047 1625 
L 3713 1625 
L 3713 1100 
L 3047 1100 
L 3047 0 
L 2419 0 
L 2419 1100 
L 313 1100 
L 313 1709 
L 2253 4666 
z
" transform="scale(0.015625)"/>
      </defs>
      <use xlink:href="#DejaVuSans-34"/>
     </g>
    </g>
   </g>
   <g id="text_6">
    <g clip-path="url(#p1da51cc7ad)">
     <!-- 5 -->
     <g style="opacity: 0" transform="translate(408.75654 811.381241) rotate(-64.657991) scale(0.12 -0.12)">
      <defs>
       <path id="DejaVuSans-35" d="M 691 4666 
L 3169 4666 
L 3169 4134 
L 1269 4134 
L 1269 2991 
Q 1406 3038 1543 3061 
Q 1681 3084 1819 3084 
Q 2600 3084 3056 2656 
Q 3513 2228 3513 1497 
Q 3513 744 3044 326 
Q 2575 -91 1722 -91 
Q 1428 -91 1123 -41 
Q 819 9 494 109 
L 494 744 
Q 775 591 1075 516 
Q 1375 441 1709 441 
Q 2250 441 2565 725 
Q 2881 1009 2881 1497 
Q 2881 1984 2565 2268 
Q 2250 2553 1709 2553 
Q 1456 2553 1204 2497 
Q 953 2441 691 2322 
L 691 4666 
z
" transform="scale(0.015625)"/>
      </defs>
      <use xlink:href="#DejaVuSans-35"/>
     </g>
    </g>
   </g>
   <g id="text_7">
    <g clip-path="url(#p1da51cc7ad)">
     <!-- 6 -->
     <g style="opacity: 0" transform="translate(538.997687 729.265484) rotate(-51.477322) scale(0.12 -0.12)">
      <defs>
       <path id="DejaVuSans-36" d="M 2113 2584 
Q 1688 2584 1439 2293 
Q 1191 2003 1191 1497 
Q 1191 994 1439 701 
Q 1688 409 2113 409 
Q 2538 409 2786 701 
Q 3034 994 3034 1497 
Q 3034 2003 2786 2293 
Q 2538 2584 2113 2584 
z
M 3366 4563 
L 3366 3988 
Q 3128 4100 2886 4159 
Q 2644 4219 2406 4219 
Q 1781 4219 1451 3797 
Q 1122 3375 1075 2522 
Q 1259 2794 1537 2939 
Q 1816 3084 2150 3084 
Q 2853 3084 3261 2657 
Q 3669 2231 3669 1497 
Q 3669 778 3244 343 
Q 2819 -91 2113 -91 
Q 1303 -91 875 529 
Q 447 1150 447 2328 
Q 447 3434 972 4092 
Q 1497 4750 2381 4750 
Q 2619 4750 2861 4703 
Q 3103 4656 3366 4563 
z
" transform="scale(0.015625)"/>
      </defs>
      <use xlink:href="#DejaVuSans-36"/>
     </g>
    </g>
   </g>
   <g id="text_8">
    <g clip-path="url(#p1da51cc7ad)">
     <!-- 6 -->
     <g style="opacity: 0" transform="translate(558.356399 672.603747) rotate(-73.678297) scale(0.12 -0.12)">
      <use xlink:href="#DejaVuSans-36"/>
     </g>
    </g>
   </g>
  </g>
 </g>
 <defs>
  <clipPath id="p1da51cc7ad">
   <rect x="0" y="0" width="576" height="819.681392"/>
  </clipPath>
 </defs>
</svg>
