<?xml version="1.0" encoding="utf-8" standalone="no"?>
<!DOCTYPE svg PUBLIC "-//W3C//DTD SVG 1.1//EN"
  "http://www.w3.org/Graphics/SVG/1.1/DTD/svg11.dtd">
<svg xmlns:xlink="http://www.w3.org/1999/xlink" width="576pt" height="817.948719pt" viewBox="0 0 576 817.948719" xmlns="http://www.w3.org/2000/svg" version="1.1">
 <metadata>
  <rdf:RDF xmlns:dc="http://purl.org/dc/elements/1.1/" xmlns:cc="http://creativecommons.org/ns#" xmlns:rdf="http://www.w3.org/1999/02/22-rdf-syntax-ns#">
   <cc:Work>
    <dc:type rdf:resource="http://purl.org/dc/dcmitype/StillImage"/>
    <dc:date>2025-07-25T22:44:04.442405</dc:date>
    <dc:format>image/svg+xml</dc:format>
    <dc:creator>
     <cc:Agent>
      <dc:title>Matplotlib v3.10.3, https://matplotlib.org/</dc:title>
     </cc:Agent>
    </dc:creator>
   </cc:Work>
  </rdf:RDF>
 </metadata>
 <defs>
  <style type="text/css">*{stroke-linejoin: round; stroke-linecap: butt}</style>
 </defs>
 <g id="figure_1">
  <g id="patch_1">
   <path d="M 0 817.948719 
L 576 817.948719 
L 576 0 
L 0 0 
L 0 817.948719 
z
" style="fill: none; opacity: 0"/>
  </g>
  <g id="axes_1">
   <g id="QuadContourSet_1">
    <path d="M 3.272727 817.948719 
L 6.545455 817.948719 
L 9.818182 817.948719 
L 13.090909 817.948719 
L 16.363636 817.948719 
L 19.636364 817.948719 
L 22.909091 817.948719 
L 26.181818 817.948719 
L 29.454545 817.948719 
L 32.727273 817.948719 
L 36 817.948719 
L 39.272727 817.948719 
L 42.545455 817.948719 
L 45.818182 817.948719 
L 49.090909 817.948719 
L 52.363636 817.948719 
L 55.636364 817.948719 
L 58.909091 817.948719 
L 62.181818 817.948719 
L 65.454545 817.948719 
L 68.727273 817.948719 
L 72 817.948719 
L 75.272727 817.948719 
L 78.545455 817.948719 
L 81.818182 817.948719 
L 85.090909 817.948719 
L 88.363636 817.948719 
L 91.636364 817.948719 
L 94.909091 817.948719 
L 98.181818 817.948719 
L 101.454545 817.948719 
L 104.727273 817.948719 
L 108 817.948719 
L 111.272727 817.948719 
L 114.545455 817.948719 
L 117.818182 817.948719 
L 121.090909 817.948719 
L 124.363636 817.948719 
L 127.636364 817.948719 
L 130.909091 817.948719 
L 134.181818 817.948719 
L 137.454545 817.948719 
L 140.727273 817.948719 
L 144 817.948719 
L 147.272727 817.948719 
L 150.545455 817.948719 
L 153.818182 817.948719 
L 157.090909 817.948719 
L 160.363636 817.948719 
L 163.636364 817.948719 
L 166.909091 817.948719 
L 170.181818 817.948719 
L 173.454545 817.948719 
L 176.727273 817.948719 
L 180 817.948719 
L 183.272727 817.948719 
L 186.545455 817.948719 
L 189.818182 817.948719 
L 193.090909 817.948719 
L 196.363636 817.948719 
L 199.636364 817.948719 
L 202.909091 817.948719 
L 206.181818 817.948719 
L 209.454545 817.948719 
L 212.727273 817.948719 
L 216 817.948719 
L 219.272727 817.948719 
L 222.545455 817.948719 
L 225.818182 817.948719 
L 229.090909 817.948719 
L 232.363636 817.948719 
L 235.636364 817.948719 
L 238.909091 817.948719 
L 242.181818 817.948719 
L 245.454545 817.948719 
L 248.727273 817.948719 
L 252 817.948719 
L 255.272727 817.948719 
L 258.545455 817.948719 
L 261.818182 817.948719 
L 265.090909 817.948719 
L 268.363636 817.948719 
L 271.636364 817.948719 
L 274.909091 817.948719 
L 278.181818 817.948719 
L 281.454545 817.948719 
L 284.727273 817.948719 
L 288 817.948719 
L 291.272727 817.948719 
L 294.545455 817.948719 
L 297.818182 817.948719 
L 301.090909 817.948719 
L 304.363636 817.948719 
L 307.636364 817.948719 
L 310.909091 817.948719 
L 314.181818 817.948719 
L 317.454545 817.948719 
L 320.727273 817.948719 
L 324 817.948719 
L 327.272727 817.948719 
L 330.545455 817.948719 
L 333.818182 817.948719 
L 337.090909 817.948719 
L 340.363636 817.948719 
L 343.636364 817.948719 
L 346.909091 817.948719 
L 350.181818 817.948719 
L 353.454545 817.948719 
L 356.727273 817.948719 
L 360 817.948719 
L 363.272727 817.948719 
L 366.545455 817.948719 
L 369.818182 817.948719 
L 373.090909 817.948719 
L 376.363636 817.948719 
L 379.636364 817.948719 
L 382.909091 817.948719 
L 386.181818 817.948719 
L 389.454545 817.948719 
L 392.727273 817.948719 
L 396 817.948719 
L 399.272727 817.948719 
L 402.545455 817.948719 
L 405.818182 817.948719 
L 409.090909 817.948719 
L 412.363636 817.948719 
L 415.636364 817.948719 
L 418.909091 817.948719 
L 422.181818 817.948719 
L 425.454545 817.948719 
L 428.727273 817.948719 
L 432 817.948719 
L 435.272727 817.948719 
L 438.545455 817.948719 
L 441.818182 817.948719 
L 445.090909 817.948719 
L 448.363636 817.948719 
L 451.636364 817.948719 
L 454.909091 817.948719 
L 458.181818 817.948719 
L 461.454545 817.948719 
L 464.727273 817.948719 
L 468 817.948719 
L 471.272727 817.948719 
L 474.545455 817.948719 
L 477.818182 817.948719 
L 481.090909 817.948719 
L 484.363636 817.948719 
L 487.636364 817.948719 
L 490.909091 817.948719 
L 494.181818 817.948719 
L 497.454545 817.948719 
L 500.727273 817.948719 
L 504 817.948719 
L 507.272727 817.948719 
L 510.545455 817.948719 
L 513.818182 817.948719 
L 517.090909 817.948719 
L 520.363636 817.948719 
L 523.636364 817.948719 
L 526.909091 817.948719 
L 530.181818 817.948719 
L 533.454545 817.948719 
L 536.727273 817.948719 
L 540 817.948719 
L 543.272727 817.948719 
L 546.545455 817.948719 
L 549.818182 817.948719 
L 553.090909 817.948719 
L 556.363636 817.948719 
L 559.636364 817.948719 
L 562.909091 817.948719 
L 566.181818 817.948719 
L 569.454545 817.948719 
L 572.727273 817.948719 
L 576 817.948719 
L 576 814.663784 
L 576 811.378849 
L 576 808.093915 
L 576 804.80898 
L 576 801.524046 
L 576 798.239111 
L 576 794.954176 
L 576 791.669242 
L 576 788.384307 
L 576 785.099372 
L 576 781.814438 
L 576 778.529503 
L 576 775.244569 
L 576 771.959634 
L 576 768.674699 
L 576 765.389765 
L 576 762.10483 
L 576 758.819896 
L 576 755.534961 
L 576 752.250026 
L 576 748.965092 
L 576 745.680157 
L 576 742.395222 
L 576 739.110288 
L 576 735.825353 
L 576 732.540419 
L 576 729.255484 
L 576 725.970549 
L 576 722.685615 
L 576 719.40068 
L 576 716.115746 
L 576 712.830811 
L 576 709.545876 
L 576 706.260942 
L 576 702.976007 
L 576 699.691073 
L 576 696.406138 
L 576 693.121203 
L 576 689.836269 
L 576 686.551334 
L 576 683.266399 
L 576 679.981465 
L 576 676.69653 
L 576 673.411596 
L 576 670.126661 
L 576 666.841726 
L 576 663.556792 
L 576 660.271857 
L 576 656.986923 
L 576 653.701988 
L 576 650.417053 
L 576 647.132119 
L 576 643.847184 
L 576 640.562249 
L 576 637.277315 
L 576 633.99238 
L 576 630.707446 
L 576 627.422511 
L 576 624.137576 
L 576 620.852642 
L 576 617.567707 
L 576 614.282773 
L 576 610.997838 
L 576 607.712903 
L 576 604.427969 
L 576 601.143034 
L 576 597.8581 
L 576 594.573165 
L 576 591.28823 
L 576 588.003296 
L 576 584.718361 
L 576 581.433426 
L 576 578.148492 
L 576 574.863557 
L 576 571.578623 
L 576 568.293688 
L 576 565.008753 
L 576 561.723819 
L 576 558.438884 
L 576 555.15395 
L 576 551.869015 
L 576 548.58408 
L 576 545.299146 
L 576 542.014211 
L 576 538.729276 
L 576 535.444342 
L 576 532.159407 
L 576 528.874473 
L 576 525.589538 
L 576 522.304603 
L 576 519.019669 
L 576 515.734734 
L 576 512.4498 
L 576 509.164865 
L 576 505.87993 
L 576 502.594996 
L 576 499.310061 
L 576 496.025127 
L 576 492.740192 
L 576 489.455257 
L 576 486.170323 
L 576 482.885388 
L 576 479.600453 
L 576 476.315519 
L 576 473.030584 
L 576 469.74565 
L 576 466.460715 
L 576 463.17578 
L 576 459.890846 
L 576 456.605911 
L 576 453.320977 
L 576 450.036042 
L 576 446.751107 
L 576 443.466173 
L 576 440.181238 
L 576 436.896303 
L 576 433.611369 
L 576 430.326434 
L 576 427.0415 
L 576 423.756565 
L 576 420.47163 
L 576 417.186696 
L 576 413.901761 
L 576 410.616827 
L 576 407.331892 
L 576 404.046957 
L 576 400.762023 
L 576 397.477088 
L 576 394.192154 
L 576 390.907219 
L 576 387.622284 
L 576 384.33735 
L 576 381.052415 
L 576 377.76748 
L 576 374.482546 
L 576 371.197611 
L 576 367.912677 
L 576 364.627742 
L 576 361.342807 
L 576 358.057873 
L 576 354.772938 
L 576 351.488004 
L 576 348.203069 
L 576 344.918134 
L 576 341.6332 
L 576 338.348265 
L 576 335.06333 
L 576 331.778396 
L 576 328.493461 
L 576 325.208527 
L 576 321.923592 
L 576 318.638657 
L 576 315.353723 
L 576 312.068788 
L 576 308.783854 
L 576 305.498919 
L 576 302.213984 
L 576 298.92905 
L 576 295.644115 
L 576 292.359181 
L 576 289.074246 
L 576 285.789311 
L 576 282.504377 
L 576 279.219442 
L 576 275.934507 
L 576 272.649573 
L 576 269.364638 
L 576 266.079704 
L 576 262.794769 
L 576 259.509834 
L 576 256.2249 
L 576 252.939965 
L 576 249.655031 
L 576 246.370096 
L 576 243.085161 
L 576 239.800227 
L 576 236.515292 
L 576 233.230358 
L 576 229.945423 
L 576 226.660488 
L 576 223.375554 
L 576 220.090619 
L 576 216.805684 
L 576 213.52075 
L 576 210.235815 
L 576 206.950881 
L 576 203.665946 
L 576 200.381011 
L 576 197.096077 
L 576 193.811142 
L 576 190.526208 
L 576 187.241273 
L 576 183.956338 
L 576 180.671404 
L 576 177.386469 
L 576 174.101534 
L 576 170.8166 
L 576 167.531665 
L 576 164.246731 
L 576 160.961796 
L 576 157.676861 
L 576 154.391927 
L 576 151.106992 
L 576 147.822058 
L 576 144.537123 
L 576 141.252188 
L 576 137.967254 
L 576 134.682319 
L 576 131.397385 
L 576 128.11245 
L 576 124.827515 
L 576 121.542581 
L 576 118.257646 
L 576 114.972711 
L 576 111.687777 
L 576 108.402842 
L 576 105.117908 
L 576 101.832973 
L 576 98.548038 
L 576 95.263104 
L 576 91.978169 
L 576 88.693235 
L 576 85.4083 
L 576 82.123365 
L 576 78.838431 
L 576 75.553496 
L 576 72.268561 
L 576 68.983627 
L 576 65.698692 
L 576 62.413758 
L 576 59.128823 
L 576 55.843888 
L 576 52.558954 
L 576 49.274019 
L 576 45.989085 
L 576 42.70415 
L 576 39.419215 
L 576 36.134281 
L 576 32.849346 
L 576 29.564412 
L 576 26.279477 
L 576 22.994542 
L 576 19.709608 
L 576 16.424673 
L 576 13.139738 
L 576 9.854804 
L 576 6.569869 
L 576 3.284935 
L 576 0 
L 572.727273 0 
L 569.454545 0 
L 566.181818 0 
L 562.909091 0 
L 559.636364 0 
L 556.363636 0 
L 553.090909 0 
L 549.818182 0 
L 546.545455 0 
L 543.272727 0 
L 540 0 
L 536.727273 0 
L 533.454545 0 
L 530.181818 0 
L 526.909091 0 
L 523.636364 0 
L 520.363636 0 
L 517.090909 0 
L 513.818182 0 
L 510.545455 0 
L 507.272727 0 
L 504 0 
L 500.727273 0 
L 497.454545 0 
L 494.181818 0 
L 490.909091 0 
L 487.636364 0 
L 484.363636 0 
L 481.090909 0 
L 477.818182 0 
L 474.545455 0 
L 471.272727 0 
L 468 0 
L 464.727273 0 
L 461.454545 0 
L 458.181818 0 
L 454.909091 0 
L 451.636364 0 
L 448.363636 0 
L 445.090909 0 
L 441.818182 0 
L 438.545455 0 
L 435.272727 0 
L 432 0 
L 428.727273 0 
L 425.454545 0 
L 422.181818 0 
L 418.909091 0 
L 415.636364 0 
L 412.363636 0 
L 409.090909 0 
L 405.818182 0 
L 402.545455 0 
L 399.272727 0 
L 396 0 
L 392.727273 0 
L 389.454545 0 
L 386.181818 0 
L 382.909091 0 
L 379.636364 0 
L 376.363636 0 
L 373.090909 0 
L 369.818182 0 
L 366.545455 0 
L 363.272727 0 
L 360 0 
L 356.727273 0 
L 353.454545 0 
L 350.181818 0 
L 346.909091 0 
L 343.636364 0 
L 340.363636 0 
L 337.090909 0 
L 333.818182 0 
L 330.545455 0 
L 327.272727 0 
L 324 0 
L 320.727273 0 
L 317.454545 0 
L 314.181818 0 
L 310.909091 0 
L 307.636364 0 
L 304.363636 0 
L 301.090909 0 
L 297.818182 0 
L 294.545455 0 
L 291.272727 0 
L 288 0 
L 284.727273 0 
L 281.454545 0 
L 278.181818 0 
L 274.909091 0 
L 271.636364 0 
L 268.363636 0 
L 265.090909 0 
L 261.818182 0 
L 258.545455 0 
L 255.272727 0 
L 252 0 
L 248.727273 0 
L 245.454545 0 
L 242.181818 0 
L 238.909091 0 
L 235.636364 0 
L 232.363636 0 
L 229.090909 0 
L 225.818182 0 
L 222.545455 0 
L 219.272727 0 
L 216 0 
L 212.727273 0 
L 209.454545 0 
L 206.181818 0 
L 202.909091 0 
L 199.636364 0 
L 196.363636 0 
L 193.090909 0 
L 189.818182 0 
L 186.545455 0 
L 183.272727 0 
L 180 0 
L 176.727273 0 
L 173.454545 0 
L 170.181818 0 
L 166.909091 0 
L 163.636364 0 
L 160.363636 0 
L 157.090909 0 
L 153.818182 0 
L 150.545455 0 
L 147.272727 0 
L 144 0 
L 140.727273 0 
L 137.454545 0 
L 134.181818 0 
L 130.909091 0 
L 127.636364 0 
L 124.363636 0 
L 121.090909 0 
L 117.818182 0 
L 114.545455 0 
L 111.272727 0 
L 108 0 
L 104.727273 0 
L 101.454545 0 
L 98.181818 0 
L 94.909091 0 
L 91.636364 0 
L 88.363636 0 
L 85.090909 0 
L 81.818182 0 
L 78.545455 0 
L 75.272727 0 
L 72 0 
L 68.727273 0 
L 65.454545 0 
L 62.181818 0 
L 58.909091 0 
L 55.636364 0 
L 52.363636 0 
L 49.090909 0 
L 45.818182 0 
L 42.545455 0 
L 39.272727 0 
L 36 0 
L 32.727273 0 
L 29.454545 0 
L 26.181818 0 
L 22.909091 0 
L 19.636364 0 
L 16.363636 0 
L 13.090909 0 
L 9.818182 0 
L 6.545455 0 
L 3.272727 0 
L -0 0 
L -0 3.284935 
L -0 6.569869 
L -0 9.854804 
L -0 13.139738 
L -0 16.424673 
L -0 19.709608 
L -0 22.994542 
L -0 26.279477 
L -0 29.564412 
L -0 32.849346 
L -0 36.134281 
L -0 39.419215 
L -0 42.70415 
L -0 45.989085 
L -0 49.274019 
L -0 52.558954 
L -0 55.843888 
L -0 59.128823 
L -0 62.413758 
L -0 65.698692 
L -0 68.983627 
L -0 72.268561 
L -0 75.553496 
L -0 78.838431 
L -0 82.123365 
L -0 85.4083 
L -0 88.693235 
L -0 91.978169 
L -0 95.263104 
L -0 98.548038 
L -0 101.832973 
L -0 105.117908 
L -0 108.402842 
L -0 111.687777 
L -0 114.972711 
L -0 118.257646 
L -0 121.542581 
L -0 124.827515 
L -0 128.11245 
L -0 131.397385 
L -0 134.682319 
L -0 137.967254 
L -0 141.252188 
L -0 144.537123 
L -0 147.822058 
L -0 151.106992 
L -0 154.391927 
L -0 157.676861 
L -0 160.961796 
L -0 164.246731 
L -0 167.531665 
L -0 170.8166 
L -0 174.101534 
L -0 177.386469 
L -0 180.671404 
L -0 183.956338 
L -0 187.241273 
L -0 190.526208 
L -0 193.811142 
L -0 197.096077 
L -0 200.381011 
L -0 203.665946 
L -0 206.950881 
L -0 210.235815 
L -0 213.52075 
L -0 216.805684 
L -0 220.090619 
L -0 223.375554 
L -0 226.660488 
L -0 229.945423 
L -0 233.230358 
L -0 236.515292 
L -0 239.800227 
L -0 243.085161 
L -0 246.370096 
L -0 249.655031 
L -0 252.939965 
L -0 256.2249 
L -0 259.509834 
L -0 262.794769 
L -0 266.079704 
L -0 269.364638 
L -0 272.649573 
L -0 275.934507 
L -0 279.219442 
L -0 282.504377 
L -0 285.789311 
L -0 289.074246 
L -0 292.359181 
L -0 295.644115 
L -0 298.92905 
L -0 302.213984 
L -0 305.498919 
L -0 308.783854 
L -0 312.068788 
L -0 315.353723 
L -0 318.638657 
L -0 321.923592 
L -0 325.208527 
L -0 328.493461 
L -0 331.778396 
L -0 335.06333 
L -0 338.348265 
L -0 341.6332 
L -0 344.918134 
L -0 348.203069 
L -0 351.488004 
L -0 354.772938 
L -0 358.057873 
L -0 361.342807 
L -0 364.627742 
L -0 367.912677 
L -0 371.197611 
L -0 374.482546 
L -0 377.76748 
L -0 381.052415 
L -0 384.33735 
L -0 387.622284 
L -0 390.907219 
L -0 394.192154 
L -0 397.477088 
L -0 400.762023 
L -0 404.046957 
L -0 407.331892 
L -0 410.616827 
L -0 413.901761 
L -0 417.186696 
L -0 420.47163 
L -0 423.756565 
L -0 427.0415 
L -0 430.326434 
L -0 433.611369 
L -0 436.896303 
L -0 440.181238 
L -0 443.466173 
L -0 446.751107 
L -0 450.036042 
L -0 453.320977 
L -0 456.605911 
L -0 459.890846 
L -0 463.17578 
L -0 466.460715 
L -0 469.74565 
L -0 473.030584 
L -0 476.315519 
L -0 479.600453 
L -0 482.885388 
L -0 486.170323 
L -0 489.455257 
L -0 492.740192 
L -0 496.025127 
L -0 499.310061 
L -0 502.594996 
L -0 505.87993 
L -0 509.164865 
L -0 512.4498 
L -0 515.734734 
L -0 519.019669 
L -0 522.304603 
L -0 525.589538 
L -0 528.874473 
L -0 532.159407 
L -0 535.444342 
L -0 538.729276 
L -0 542.014211 
L -0 545.299146 
L -0 548.58408 
L -0 551.869015 
L -0 555.15395 
L -0 558.438884 
L -0 561.723819 
L -0 565.008753 
L -0 568.293688 
L -0 571.578623 
L -0 574.863557 
L -0 578.148492 
L -0 581.433426 
L -0 584.718361 
L -0 588.003296 
L -0 591.28823 
L -0 594.573165 
L -0 597.8581 
L -0 601.143034 
L -0 604.427969 
L -0 607.712903 
L -0 610.997838 
L -0 614.282773 
L -0 617.567707 
L -0 620.852642 
L -0 624.137576 
L -0 627.422511 
L -0 630.707446 
L -0 633.99238 
L -0 637.277315 
L -0 640.562249 
L -0 643.847184 
L -0 647.132119 
L -0 650.417053 
L -0 653.701988 
L -0 656.986923 
L -0 660.271857 
L -0 663.556792 
L -0 666.841726 
L -0 670.126661 
L -0 673.411596 
L -0 676.69653 
L -0 679.981465 
L -0 683.266399 
L -0 686.551334 
L -0 689.836269 
L -0 693.121203 
L -0 696.406138 
L -0 699.691073 
L -0 702.976007 
L -0 706.260942 
L -0 709.545876 
L -0 712.830811 
L -0 716.115746 
L -0 719.40068 
L -0 722.685615 
L -0 725.970549 
L -0 729.255484 
L -0 732.540419 
L -0 735.825353 
L -0 739.110288 
L -0 742.395222 
L -0 745.680157 
L -0 748.965092 
L -0 752.250026 
L -0 755.534961 
L -0 758.819896 
L -0 762.10483 
L -0 765.389765 
L -0 768.674699 
L -0 771.959634 
L -0 775.244569 
L -0 778.529503 
L -0 781.814438 
L -0 785.099372 
L -0 788.384307 
L -0 791.669242 
L -0 794.954176 
L -0 798.239111 
L -0 801.524046 
L -0 804.80898 
L -0 808.093915 
L -0 811.378849 
L -0 814.663784 
L -0 817.948719 
z
" clip-path="url(#pc3faa41256)" style="fill: #f5f9fe; fill-opacity: 0.9"/>
    <path clip-path="url(#pc3faa41256)" style="fill: #eff6fc; fill-opacity: 0.9"/>
    <path clip-path="url(#pc3faa41256)" style="fill: #eaf3fb; fill-opacity: 0.9"/>
    <path clip-path="url(#pc3faa41256)" style="fill: #e5eff9; fill-opacity: 0.9"/>
    <path clip-path="url(#pc3faa41256)" style="fill: #dfecf7; fill-opacity: 0.9"/>
    <path clip-path="url(#pc3faa41256)" style="fill: #dae8f6; fill-opacity: 0.9"/>
    <path clip-path="url(#pc3faa41256)" style="fill: #d6e5f4; fill-opacity: 0.9"/>
    <path clip-path="url(#pc3faa41256)" style="fill: #d0e2f2; fill-opacity: 0.9"/>
    <path clip-path="url(#pc3faa41256)" style="fill: #cbdef1; fill-opacity: 0.9"/>
    <path clip-path="url(#pc3faa41256)" style="fill: #c6dbef; fill-opacity: 0.9"/>
    <path clip-path="url(#pc3faa41256)" style="fill: #bed8ec; fill-opacity: 0.9"/>
    <path clip-path="url(#pc3faa41256)" style="fill: #b5d4e9; fill-opacity: 0.9"/>
    <path clip-path="url(#pc3faa41256)" style="fill: #add0e6; fill-opacity: 0.9"/>
    <path clip-path="url(#pc3faa41256)" style="fill: #a5cde3; fill-opacity: 0.9"/>
    <path clip-path="url(#pc3faa41256)" style="fill: #9cc9e1; fill-opacity: 0.9"/>
    <path clip-path="url(#pc3faa41256)" style="fill: #91c3de; fill-opacity: 0.9"/>
    <path clip-path="url(#pc3faa41256)" style="fill: #85bcdc; fill-opacity: 0.9"/>
    <path clip-path="url(#pc3faa41256)" style="fill: #7cb7da; fill-opacity: 0.9"/>
    <path clip-path="url(#pc3faa41256)" style="fill: #71b1d7; fill-opacity: 0.9"/>
    <path clip-path="url(#pc3faa41256)" style="fill: #66abd4; fill-opacity: 0.9"/>
    <path clip-path="url(#pc3faa41256)" style="fill: #5da5d1; fill-opacity: 0.9"/>
    <path clip-path="url(#pc3faa41256)" style="fill: #56a0ce; fill-opacity: 0.9"/>
    <path clip-path="url(#pc3faa41256)" style="fill: #4d99ca; fill-opacity: 0.9"/>
    <path clip-path="url(#pc3faa41256)" style="fill: #4493c7; fill-opacity: 0.9"/>
    <path clip-path="url(#pc3faa41256)" style="fill: #3c8cc3; fill-opacity: 0.9"/>
    <path clip-path="url(#pc3faa41256)" style="fill: #3686c0; fill-opacity: 0.9"/>
    <path clip-path="url(#pc3faa41256)" style="fill: #2f7fbc; fill-opacity: 0.9"/>
    <path clip-path="url(#pc3faa41256)" style="fill: #2777b8; fill-opacity: 0.9"/>
    <path clip-path="url(#pc3faa41256)" style="fill: #2070b4; fill-opacity: 0.9"/>
    <path clip-path="url(#pc3faa41256)" style="fill: #1c6ab0; fill-opacity: 0.9"/>
    <path clip-path="url(#pc3faa41256)" style="fill: #1663aa; fill-opacity: 0.9"/>
    <path clip-path="url(#pc3faa41256)" style="fill: #115ca5; fill-opacity: 0.9"/>
    <path clip-path="url(#pc3faa41256)" style="fill: #0c56a0; fill-opacity: 0.9"/>
    <path clip-path="url(#pc3faa41256)" style="fill: #084f99; fill-opacity: 0.9"/>
    <path clip-path="url(#pc3faa41256)" style="fill: #08488e; fill-opacity: 0.9"/>
    <path clip-path="url(#pc3faa41256)" style="fill: #084184; fill-opacity: 0.9"/>
    <path clip-path="url(#pc3faa41256)" style="fill: #083a7a; fill-opacity: 0.9"/>
    <path clip-path="url(#pc3faa41256)" style="fill: #083370; fill-opacity: 0.9"/>
    <path clip-path="url(#pc3faa41256)" style="fill: #08306b; fill-opacity: 0.9"/>
   </g>
   <g id="QuadContourSet_2">
    <path clip-path="url(#pc3faa41256)" style="fill: none"/>
    <path clip-path="url(#pc3faa41256)" style="fill: none"/>
    <path clip-path="url(#pc3faa41256)" style="fill: none"/>
    <path clip-path="url(#pc3faa41256)" style="fill: none"/>
    <path clip-path="url(#pc3faa41256)" style="fill: none"/>
    <path clip-path="url(#pc3faa41256)" style="fill: none"/>
    <path clip-path="url(#pc3faa41256)" style="fill: none"/>
    <path clip-path="url(#pc3faa41256)" style="fill: none"/>
    <path clip-path="url(#pc3faa41256)" style="fill: none"/>
    <path clip-path="url(#pc3faa41256)" style="fill: none"/>
    <path clip-path="url(#pc3faa41256)" style="fill: none"/>
    <path clip-path="url(#pc3faa41256)" style="fill: none"/>
    <path clip-path="url(#pc3faa41256)" style="fill: none"/>
    <path clip-path="url(#pc3faa41256)" style="fill: none"/>
    <path clip-path="url(#pc3faa41256)" style="fill: none"/>
    <path clip-path="url(#pc3faa41256)" style="fill: none"/>
    <path clip-path="url(#pc3faa41256)" style="fill: none"/>
    <path clip-path="url(#pc3faa41256)" style="fill: none"/>
    <path clip-path="url(#pc3faa41256)" style="fill: none"/>
    <path clip-path="url(#pc3faa41256)" style="fill: none"/>
    <path clip-path="url(#pc3faa41256)" style="fill: none"/>
    <path clip-path="url(#pc3faa41256)" style="fill: none"/>
    <path clip-path="url(#pc3faa41256)" style="fill: none"/>
    <path clip-path="url(#pc3faa41256)" style="fill: none"/>
    <path clip-path="url(#pc3faa41256)" style="fill: none"/>
    <path clip-path="url(#pc3faa41256)" style="fill: none"/>
    <path clip-path="url(#pc3faa41256)" style="fill: none"/>
    <path clip-path="url(#pc3faa41256)" style="fill: none"/>
    <path clip-path="url(#pc3faa41256)" style="fill: none"/>
    <path clip-path="url(#pc3faa41256)" style="fill: none"/>
    <path clip-path="url(#pc3faa41256)" style="fill: none"/>
    <path clip-path="url(#pc3faa41256)" style="fill: none"/>
    <path clip-path="url(#pc3faa41256)" style="fill: none"/>
    <path clip-path="url(#pc3faa41256)" style="fill: none"/>
    <path clip-path="url(#pc3faa41256)" style="fill: none"/>
    <path clip-path="url(#pc3faa41256)" style="fill: none"/>
    <path clip-path="url(#pc3faa41256)" style="fill: none"/>
    <path clip-path="url(#pc3faa41256)" style="fill: none"/>
    <path clip-path="url(#pc3faa41256)" style="fill: none"/>
   </g>
  </g>
 </g>
 <defs>
  <clipPath id="pc3faa41256">
   <rect x="0" y="0" width="576" height="817.948719"/>
  </clipPath>
 </defs>
</svg>
