<?xml version="1.0" encoding="utf-8" standalone="no"?>
<!DOCTYPE svg PUBLIC "-//W3C//DTD SVG 1.1//EN"
  "http://www.w3.org/Graphics/SVG/1.1/DTD/svg11.dtd">
<svg xmlns:xlink="http://www.w3.org/1999/xlink" width="576pt" height="813.098298pt" viewBox="0 0 576 813.098298" xmlns="http://www.w3.org/2000/svg" version="1.1">
 <metadata>
  <rdf:RDF xmlns:dc="http://purl.org/dc/elements/1.1/" xmlns:cc="http://creativecommons.org/ns#" xmlns:rdf="http://www.w3.org/1999/02/22-rdf-syntax-ns#">
   <cc:Work>
    <dc:type rdf:resource="http://purl.org/dc/dcmitype/StillImage"/>
    <dc:date>2025-07-25T22:45:44.409893</dc:date>
    <dc:format>image/svg+xml</dc:format>
    <dc:creator>
     <cc:Agent>
      <dc:title>Matplotlib v3.10.3, https://matplotlib.org/</dc:title>
     </cc:Agent>
    </dc:creator>
   </cc:Work>
  </rdf:RDF>
 </metadata>
 <defs>
  <style type="text/css">*{stroke-linejoin: round; stroke-linecap: butt}</style>
 </defs>
 <g id="figure_1">
  <g id="patch_1">
   <path d="M 0 813.098298 
L 576 813.098298 
L 576 0 
L 0 0 
L 0 813.098298 
z
" style="fill: none; opacity: 0"/>
  </g>
  <g id="axes_1">
   <g id="QuadContourSet_1">
    <path d="M 3.254237 813.098298 
L 6.508475 813.098298 
L 9.762712 813.098298 
L 13.016949 813.098298 
L 16.271186 813.098298 
L 19.525424 813.098298 
L 22.779661 813.098298 
L 26.033898 813.098298 
L 29.288136 813.098298 
L 32.542373 813.098298 
L 35.79661 813.098298 
L 39.050847 813.098298 
L 42.305085 813.098298 
L 45.559322 813.098298 
L 48.813559 813.098298 
L 52.067797 813.098298 
L 55.322034 813.098298 
L 58.576271 813.098298 
L 61.830508 813.098298 
L 65.084746 813.098298 
L 68.338983 813.098298 
L 71.59322 813.098298 
L 74.847458 813.098298 
L 78.101695 813.098298 
L 81.355932 813.098298 
L 84.610169 813.098298 
L 87.864407 813.098298 
L 91.118644 813.098298 
L 94.372881 813.098298 
L 97.627119 813.098298 
L 100.881356 813.098298 
L 104.135593 813.098298 
L 107.389831 813.098298 
L 110.644068 813.098298 
L 113.898305 813.098298 
L 117.152542 813.098298 
L 120.40678 813.098298 
L 123.661017 813.098298 
L 126.915254 813.098298 
L 130.169492 813.098298 
L 133.423729 813.098298 
L 136.677966 813.098298 
L 139.932203 813.098298 
L 143.186441 813.098298 
L 146.440678 813.098298 
L 149.694915 813.098298 
L 152.949153 813.098298 
L 156.20339 813.098298 
L 159.457627 813.098298 
L 162.711864 813.098298 
L 165.966102 813.098298 
L 169.220339 813.098298 
L 172.474576 813.098298 
L 175.728814 813.098298 
L 178.983051 813.098298 
L 182.237288 813.098298 
L 185.491525 813.098298 
L 188.745763 813.098298 
L 192 813.098298 
L 195.254237 813.098298 
L 198.508475 813.098298 
L 201.762712 813.098298 
L 205.016949 813.098298 
L 208.271186 813.098298 
L 211.525424 813.098298 
L 214.779661 813.098298 
L 218.033898 813.098298 
L 221.288136 813.098298 
L 224.542373 813.098298 
L 227.79661 813.098298 
L 231.050847 813.098298 
L 234.305085 813.098298 
L 237.559322 813.098298 
L 240.813559 813.098298 
L 244.067797 813.098298 
L 247.322034 813.098298 
L 250.576271 813.098298 
L 253.830508 813.098298 
L 257.084746 813.098298 
L 260.338983 813.098298 
L 263.59322 813.098298 
L 266.847458 813.098298 
L 270.101695 813.098298 
L 273.355932 813.098298 
L 276.610169 813.098298 
L 279.864407 813.098298 
L 283.118644 813.098298 
L 286.372881 813.098298 
L 289.627119 813.098298 
L 292.881356 813.098298 
L 296.135593 813.098298 
L 299.389831 813.098298 
L 302.644068 813.098298 
L 305.898305 813.098298 
L 309.152542 813.098298 
L 312.40678 813.098298 
L 315.661017 813.098298 
L 318.915254 813.098298 
L 322.169492 813.098298 
L 325.423729 813.098298 
L 328.677966 813.098298 
L 331.932203 813.098298 
L 335.186441 813.098298 
L 338.440678 813.098298 
L 341.694915 813.098298 
L 344.949153 813.098298 
L 348.20339 813.098298 
L 351.457627 813.098298 
L 354.711864 813.098298 
L 357.966102 813.098298 
L 361.220339 813.098298 
L 364.474576 813.098298 
L 367.728814 813.098298 
L 370.983051 813.098298 
L 374.237288 813.098298 
L 377.491525 813.098298 
L 380.745763 813.098298 
L 384 813.098298 
L 387.254237 813.098298 
L 390.508475 813.098298 
L 393.762712 813.098298 
L 397.016949 813.098298 
L 400.271186 813.098298 
L 403.525424 813.098298 
L 406.779661 813.098298 
L 410.033898 813.098298 
L 413.288136 813.098298 
L 416.542373 813.098298 
L 419.79661 813.098298 
L 423.050847 813.098298 
L 426.305085 813.098298 
L 429.559322 813.098298 
L 432.813559 813.098298 
L 436.067797 813.098298 
L 439.322034 813.098298 
L 442.576271 813.098298 
L 445.830508 813.098298 
L 449.084746 813.098298 
L 452.338983 813.098298 
L 455.59322 813.098298 
L 458.847458 813.098298 
L 462.101695 813.098298 
L 465.355932 813.098298 
L 468.610169 813.098298 
L 471.864407 813.098298 
L 475.118644 813.098298 
L 478.372881 813.098298 
L 481.627119 813.098298 
L 484.881356 813.098298 
L 488.135593 813.098298 
L 491.389831 813.098298 
L 494.644068 813.098298 
L 497.898305 813.098298 
L 501.152542 813.098298 
L 504.40678 813.098298 
L 507.661017 813.098298 
L 510.915254 813.098298 
L 514.169492 813.098298 
L 517.423729 813.098298 
L 520.677966 813.098298 
L 523.932203 813.098298 
L 527.186441 813.098298 
L 530.440678 813.098298 
L 533.694915 813.098298 
L 536.949153 813.098298 
L 540.20339 813.098298 
L 543.457627 813.098298 
L 546.711864 813.098298 
L 549.966102 813.098298 
L 553.220339 813.098298 
L 556.474576 813.098298 
L 559.728814 813.098298 
L 562.983051 813.098298 
L 566.237288 813.098298 
L 569.491525 813.098298 
L 572.745763 813.098298 
L 576 813.098298 
L 576 809.832843 
L 576 806.567388 
L 576 803.301933 
L 576 800.036478 
L 576 796.771023 
L 576 793.505568 
L 576 790.240113 
L 576 786.974658 
L 576 783.709203 
L 576 780.443748 
L 576 777.178293 
L 576 773.912838 
L 576 770.647383 
L 576 767.381928 
L 576 764.116473 
L 576 760.851017 
L 576 757.585562 
L 576 754.320107 
L 576 751.054652 
L 576 747.789197 
L 576 744.523742 
L 576 741.258287 
L 576 737.992832 
L 576 734.727377 
L 576 731.461922 
L 576 728.196467 
L 576 724.931012 
L 576 721.665557 
L 576 718.400102 
L 576 715.134647 
L 576 711.869192 
L 576 708.603737 
L 576 705.338282 
L 576 702.072827 
L 576 698.807372 
L 576 695.541917 
L 576 692.276462 
L 576 689.011007 
L 576 685.745552 
L 576 682.480097 
L 576 679.214642 
L 576 675.949187 
L 576 672.683732 
L 576 669.418277 
L 576 666.152822 
L 576 662.887367 
L 576 659.621912 
L 576 656.356457 
L 576 653.091002 
L 576 649.825547 
L 576 646.560092 
L 576 643.294637 
L 576 640.029182 
L 576 636.763727 
L 576 633.498272 
L 576 630.232817 
L 576 626.967362 
L 576 623.701907 
L 576 620.436452 
L 576 617.170997 
L 576 613.905542 
L 576 610.640087 
L 576 607.374632 
L 576 604.109177 
L 576 600.843722 
L 576 597.578267 
L 576 594.312812 
L 576 591.047357 
L 576 587.781902 
L 576 584.516447 
L 576 581.250992 
L 576 577.985537 
L 576 574.720082 
L 576 571.454627 
L 576 568.189172 
L 576 564.923717 
L 576 561.658262 
L 576 558.392807 
L 576 555.127352 
L 576 551.861897 
L 576 548.596442 
L 576 545.330987 
L 576 542.065532 
L 576 538.800077 
L 576 535.534622 
L 576 532.269167 
L 576 529.003712 
L 576 525.738257 
L 576 522.472802 
L 576 519.207347 
L 576 515.941892 
L 576 512.676437 
L 576 509.410982 
L 576 506.145527 
L 576 502.880072 
L 576 499.614617 
L 576 496.349162 
L 576 493.083707 
L 576 489.818252 
L 576 486.552797 
L 576 483.287342 
L 576 480.021887 
L 576 476.756432 
L 576 473.490977 
L 576 470.225522 
L 576 466.960067 
L 576 463.694612 
L 576 460.429157 
L 576 457.163701 
L 576 453.898246 
L 576 450.632791 
L 576 447.367336 
L 576 444.101881 
L 576 440.836426 
L 576 437.570971 
L 576 434.305516 
L 576 431.040061 
L 576 427.774606 
L 576 424.509151 
L 576 421.243696 
L 576 417.978241 
L 576 414.712786 
L 576 411.447331 
L 576 408.181876 
L 576 404.916421 
L 576 401.650966 
L 576 398.385511 
L 576 395.120056 
L 576 391.854601 
L 576 388.589146 
L 576 385.323691 
L 576 382.058236 
L 576 378.792781 
L 576 375.527326 
L 576 372.261871 
L 576 368.996416 
L 576 365.730961 
L 576 362.465506 
L 576 359.200051 
L 576 355.934596 
L 576 352.669141 
L 576 349.403686 
L 576 346.138231 
L 576 342.872776 
L 576 339.607321 
L 576 336.341866 
L 576 333.076411 
L 576 329.810956 
L 576 326.545501 
L 576 323.280046 
L 576 320.014591 
L 576 316.749136 
L 576 313.483681 
L 576 310.218226 
L 576 306.952771 
L 576 303.687316 
L 576 300.421861 
L 576 297.156406 
L 576 293.890951 
L 576 290.625496 
L 576 287.360041 
L 576 284.094586 
L 576 280.829131 
L 576 277.563676 
L 576 274.298221 
L 576 271.032766 
L 576 267.767311 
L 576 264.501856 
L 576 261.236401 
L 576 257.970946 
L 576 254.705491 
L 576 251.440036 
L 576 248.174581 
L 576 244.909126 
L 576 241.643671 
L 576 238.378216 
L 576 235.112761 
L 576 231.847306 
L 576 228.581851 
L 576 225.316396 
L 576 222.050941 
L 576 218.785486 
L 576 215.520031 
L 576 212.254576 
L 576 208.989121 
L 576 205.723666 
L 576 202.458211 
L 576 199.192756 
L 576 195.927301 
L 576 192.661846 
L 576 189.396391 
L 576 186.130936 
L 576 182.865481 
L 576 179.600026 
L 576 176.334571 
L 576 173.069116 
L 576 169.803661 
L 576 166.538206 
L 576 163.272751 
L 576 160.007296 
L 576 156.741841 
L 576 153.476386 
L 576 150.21093 
L 576 146.945475 
L 576 143.68002 
L 576 140.414565 
L 576 137.14911 
L 576 133.883655 
L 576 130.6182 
L 576 127.352745 
L 576 124.08729 
L 576 120.821835 
L 576 117.55638 
L 576 114.290925 
L 576 111.02547 
L 576 107.760015 
L 576 104.49456 
L 576 101.229105 
L 576 97.96365 
L 576 94.698195 
L 576 91.43274 
L 576 88.167285 
L 576 84.90183 
L 576 81.636375 
L 576 78.37092 
L 576 75.105465 
L 576 71.84001 
L 576 68.574555 
L 576 65.3091 
L 576 62.043645 
L 576 58.77819 
L 576 55.512735 
L 576 52.24728 
L 576 48.981825 
L 576 45.71637 
L 576 42.450915 
L 576 39.18546 
L 576 35.920005 
L 576 32.65455 
L 576 29.389095 
L 576 26.12364 
L 576 22.858185 
L 576 19.59273 
L 576 16.327275 
L 576 13.06182 
L 576 9.796365 
L 576 6.53091 
L 576 3.265455 
L 576 -0 
L 572.745763 -0 
L 569.491525 -0 
L 566.237288 -0 
L 562.983051 -0 
L 559.728814 -0 
L 556.474576 -0 
L 553.220339 -0 
L 549.966102 -0 
L 546.711864 -0 
L 543.457627 -0 
L 540.20339 -0 
L 536.949153 -0 
L 533.694915 -0 
L 530.440678 -0 
L 527.186441 -0 
L 523.932203 -0 
L 520.677966 -0 
L 517.423729 -0 
L 514.169492 -0 
L 510.915254 -0 
L 507.661017 -0 
L 504.40678 -0 
L 501.152542 -0 
L 497.898305 -0 
L 494.644068 -0 
L 491.389831 -0 
L 488.135593 -0 
L 484.881356 -0 
L 481.627119 -0 
L 478.372881 -0 
L 475.118644 -0 
L 471.864407 -0 
L 468.610169 -0 
L 465.355932 -0 
L 462.101695 -0 
L 458.847458 -0 
L 455.59322 -0 
L 452.338983 -0 
L 449.084746 -0 
L 445.830508 -0 
L 442.576271 -0 
L 439.322034 -0 
L 436.067797 -0 
L 432.813559 -0 
L 429.559322 -0 
L 426.305085 -0 
L 423.050847 -0 
L 419.79661 -0 
L 416.542373 -0 
L 413.288136 -0 
L 410.033898 -0 
L 406.779661 -0 
L 403.525424 -0 
L 400.271186 -0 
L 397.016949 -0 
L 393.762712 -0 
L 390.508475 -0 
L 387.254237 -0 
L 384 -0 
L 380.745763 -0 
L 377.491525 -0 
L 374.237288 -0 
L 370.983051 -0 
L 367.728814 -0 
L 364.474576 -0 
L 361.220339 -0 
L 357.966102 -0 
L 354.711864 -0 
L 351.457627 -0 
L 348.20339 -0 
L 344.949153 -0 
L 341.694915 -0 
L 338.440678 -0 
L 335.186441 -0 
L 331.932203 -0 
L 328.677966 -0 
L 325.423729 -0 
L 322.169492 -0 
L 318.915254 -0 
L 315.661017 -0 
L 312.40678 -0 
L 309.152542 -0 
L 305.898305 -0 
L 302.644068 -0 
L 299.389831 -0 
L 296.135593 -0 
L 292.881356 -0 
L 289.627119 -0 
L 286.372881 -0 
L 283.118644 -0 
L 279.864407 -0 
L 276.610169 -0 
L 273.355932 -0 
L 270.101695 -0 
L 266.847458 -0 
L 263.59322 -0 
L 260.338983 -0 
L 257.084746 -0 
L 253.830508 -0 
L 250.576271 -0 
L 247.322034 -0 
L 244.067797 -0 
L 240.813559 -0 
L 237.559322 -0 
L 234.305085 -0 
L 231.050847 -0 
L 227.79661 -0 
L 224.542373 -0 
L 221.288136 -0 
L 218.033898 -0 
L 214.779661 -0 
L 211.525424 -0 
L 208.271186 -0 
L 205.016949 -0 
L 201.762712 -0 
L 198.508475 -0 
L 195.254237 -0 
L 192 -0 
L 188.745763 -0 
L 185.491525 -0 
L 182.237288 -0 
L 178.983051 -0 
L 175.728814 -0 
L 172.474576 -0 
L 169.220339 -0 
L 165.966102 -0 
L 162.711864 -0 
L 159.457627 -0 
L 156.20339 -0 
L 152.949153 -0 
L 149.694915 -0 
L 146.440678 -0 
L 143.186441 -0 
L 139.932203 -0 
L 136.677966 -0 
L 133.423729 -0 
L 130.169492 -0 
L 126.915254 -0 
L 123.661017 -0 
L 120.40678 -0 
L 117.152542 -0 
L 113.898305 -0 
L 110.644068 -0 
L 107.389831 -0 
L 104.135593 -0 
L 100.881356 -0 
L 97.627119 -0 
L 94.372881 -0 
L 91.118644 -0 
L 87.864407 -0 
L 84.610169 -0 
L 81.355932 -0 
L 78.101695 -0 
L 74.847458 -0 
L 71.59322 -0 
L 68.338983 -0 
L 65.084746 -0 
L 61.830508 -0 
L 58.576271 -0 
L 55.322034 -0 
L 52.067797 -0 
L 48.813559 -0 
L 45.559322 -0 
L 42.305085 -0 
L 39.050847 -0 
L 35.79661 -0 
L 32.542373 -0 
L 29.288136 -0 
L 26.033898 -0 
L 22.779661 -0 
L 19.525424 -0 
L 16.271186 -0 
L 13.016949 -0 
L 9.762712 -0 
L 6.508475 -0 
L 3.254237 -0 
L -0 -0 
L -0 3.265455 
L -0 6.53091 
L -0 9.796365 
L -0 13.06182 
L -0 16.327275 
L -0 19.59273 
L -0 22.858185 
L -0 26.12364 
L -0 29.389095 
L -0 32.65455 
L -0 35.920005 
L -0 39.18546 
L -0 42.450915 
L -0 45.71637 
L -0 48.981825 
L -0 52.24728 
L -0 55.512735 
L -0 58.77819 
L -0 62.043645 
L -0 65.3091 
L -0 68.574555 
L -0 71.84001 
L -0 75.105465 
L -0 78.37092 
L -0 81.636375 
L -0 84.90183 
L -0 88.167285 
L -0 91.43274 
L -0 94.698195 
L -0 97.96365 
L -0 101.229105 
L -0 104.49456 
L -0 107.760015 
L -0 111.02547 
L -0 114.290925 
L -0 117.55638 
L -0 120.821835 
L -0 124.08729 
L -0 127.352745 
L -0 130.6182 
L -0 133.883655 
L -0 137.14911 
L -0 140.414565 
L -0 143.68002 
L -0 146.945475 
L -0 150.21093 
L -0 153.476386 
L -0 156.741841 
L -0 160.007296 
L -0 163.272751 
L -0 166.538206 
L -0 169.803661 
L -0 173.069116 
L -0 176.334571 
L -0 179.600026 
L -0 182.865481 
L -0 186.130936 
L -0 189.396391 
L -0 192.661846 
L -0 195.927301 
L -0 199.192756 
L -0 202.458211 
L -0 205.723666 
L -0 208.989121 
L -0 212.254576 
L -0 215.520031 
L -0 218.785486 
L -0 222.050941 
L -0 225.316396 
L -0 228.581851 
L -0 231.847306 
L -0 235.112761 
L -0 238.378216 
L -0 241.643671 
L -0 244.909126 
L -0 248.174581 
L -0 251.440036 
L -0 254.705491 
L -0 257.970946 
L -0 261.236401 
L -0 264.501856 
L -0 267.767311 
L -0 271.032766 
L -0 274.298221 
L -0 277.563676 
L -0 280.829131 
L -0 284.094586 
L -0 287.360041 
L -0 290.625496 
L -0 293.890951 
L -0 297.156406 
L -0 300.421861 
L -0 303.687316 
L -0 306.952771 
L -0 310.218226 
L -0 313.483681 
L -0 316.749136 
L -0 320.014591 
L -0 323.280046 
L -0 326.545501 
L -0 329.810956 
L -0 333.076411 
L -0 336.341866 
L -0 339.607321 
L -0 342.872776 
L -0 346.138231 
L -0 349.403686 
L -0 352.669141 
L -0 355.934596 
L -0 359.200051 
L -0 362.465506 
L -0 365.730961 
L -0 368.996416 
L -0 372.261871 
L -0 375.527326 
L -0 378.792781 
L -0 382.058236 
L -0 385.323691 
L -0 388.589146 
L -0 391.854601 
L -0 395.120056 
L -0 398.385511 
L -0 401.650966 
L -0 404.916421 
L -0 408.181876 
L -0 411.447331 
L -0 414.712786 
L -0 417.978241 
L -0 421.243696 
L -0 424.509151 
L -0 427.774606 
L -0 431.040061 
L -0 434.305516 
L -0 437.570971 
L -0 440.836426 
L -0 444.101881 
L -0 447.367336 
L -0 450.632791 
L -0 453.898246 
L -0 457.163701 
L -0 460.429157 
L -0 463.694612 
L -0 466.960067 
L -0 470.225522 
L -0 473.490977 
L -0 476.756432 
L -0 480.021887 
L -0 483.287342 
L -0 486.552797 
L -0 489.818252 
L -0 493.083707 
L -0 496.349162 
L -0 499.614617 
L -0 502.880072 
L -0 506.145527 
L -0 509.410982 
L -0 512.676437 
L -0 515.941892 
L -0 519.207347 
L -0 522.472802 
L -0 525.738257 
L -0 529.003712 
L -0 532.269167 
L -0 535.534622 
L -0 538.800077 
L -0 542.065532 
L -0 545.330987 
L -0 548.596442 
L -0 551.861897 
L -0 555.127352 
L -0 558.392807 
L -0 561.658262 
L -0 564.923717 
L -0 568.189172 
L -0 571.454627 
L -0 574.720082 
L -0 577.985537 
L -0 581.250992 
L -0 584.516447 
L -0 587.781902 
L -0 591.047357 
L -0 594.312812 
L -0 597.578267 
L -0 600.843722 
L -0 604.109177 
L -0 607.374632 
L -0 610.640087 
L -0 613.905542 
L -0 617.170997 
L -0 620.436452 
L -0 623.701907 
L -0 626.967362 
L -0 630.232817 
L -0 633.498272 
L -0 636.763727 
L -0 640.029182 
L -0 643.294637 
L -0 646.560092 
L -0 649.825547 
L -0 653.091002 
L -0 656.356457 
L -0 659.621912 
L -0 662.887367 
L -0 666.152822 
L -0 669.418277 
L -0 672.683732 
L -0 675.949187 
L -0 679.214642 
L -0 682.480097 
L -0 685.745552 
L -0 689.011007 
L -0 692.276462 
L -0 695.541917 
L -0 698.807372 
L -0 702.072827 
L -0 705.338282 
L -0 708.603737 
L -0 711.869192 
L -0 715.134647 
L -0 718.400102 
L -0 721.665557 
L -0 724.931012 
L -0 728.196467 
L -0 731.461922 
L -0 734.727377 
L -0 737.992832 
L -0 741.258287 
L -0 744.523742 
L -0 747.789197 
L -0 751.054652 
L -0 754.320107 
L -0 757.585562 
L -0 760.851017 
L -0 764.116473 
L -0 767.381928 
L -0 770.647383 
L -0 773.912838 
L -0 777.178293 
L -0 780.443748 
L -0 783.709203 
L -0 786.974658 
L -0 790.240113 
L -0 793.505568 
L -0 796.771023 
L -0 800.036478 
L -0 803.301933 
L -0 806.567388 
L -0 809.832843 
L -0 813.098298 
z
" clip-path="url(#pb45828c43e)" style="fill: #f5f9fe; fill-opacity: 0.9"/>
    <path clip-path="url(#pb45828c43e)" style="fill: #eff6fc; fill-opacity: 0.9"/>
    <path clip-path="url(#pb45828c43e)" style="fill: #eaf3fb; fill-opacity: 0.9"/>
    <path clip-path="url(#pb45828c43e)" style="fill: #e5eff9; fill-opacity: 0.9"/>
    <path clip-path="url(#pb45828c43e)" style="fill: #dfecf7; fill-opacity: 0.9"/>
    <path clip-path="url(#pb45828c43e)" style="fill: #dae8f6; fill-opacity: 0.9"/>
    <path clip-path="url(#pb45828c43e)" style="fill: #d6e5f4; fill-opacity: 0.9"/>
    <path clip-path="url(#pb45828c43e)" style="fill: #d0e2f2; fill-opacity: 0.9"/>
    <path clip-path="url(#pb45828c43e)" style="fill: #cbdef1; fill-opacity: 0.9"/>
    <path clip-path="url(#pb45828c43e)" style="fill: #c6dbef; fill-opacity: 0.9"/>
    <path clip-path="url(#pb45828c43e)" style="fill: #bed8ec; fill-opacity: 0.9"/>
    <path clip-path="url(#pb45828c43e)" style="fill: #b5d4e9; fill-opacity: 0.9"/>
    <path clip-path="url(#pb45828c43e)" style="fill: #add0e6; fill-opacity: 0.9"/>
    <path clip-path="url(#pb45828c43e)" style="fill: #a5cde3; fill-opacity: 0.9"/>
    <path clip-path="url(#pb45828c43e)" style="fill: #9cc9e1; fill-opacity: 0.9"/>
    <path clip-path="url(#pb45828c43e)" style="fill: #91c3de; fill-opacity: 0.9"/>
    <path clip-path="url(#pb45828c43e)" style="fill: #85bcdc; fill-opacity: 0.9"/>
    <path clip-path="url(#pb45828c43e)" style="fill: #7cb7da; fill-opacity: 0.9"/>
    <path clip-path="url(#pb45828c43e)" style="fill: #71b1d7; fill-opacity: 0.9"/>
    <path clip-path="url(#pb45828c43e)" style="fill: #66abd4; fill-opacity: 0.9"/>
    <path clip-path="url(#pb45828c43e)" style="fill: #5da5d1; fill-opacity: 0.9"/>
    <path clip-path="url(#pb45828c43e)" style="fill: #56a0ce; fill-opacity: 0.9"/>
    <path clip-path="url(#pb45828c43e)" style="fill: #4d99ca; fill-opacity: 0.9"/>
    <path clip-path="url(#pb45828c43e)" style="fill: #4493c7; fill-opacity: 0.9"/>
    <path clip-path="url(#pb45828c43e)" style="fill: #3c8cc3; fill-opacity: 0.9"/>
    <path clip-path="url(#pb45828c43e)" style="fill: #3686c0; fill-opacity: 0.9"/>
    <path clip-path="url(#pb45828c43e)" style="fill: #2f7fbc; fill-opacity: 0.9"/>
    <path clip-path="url(#pb45828c43e)" style="fill: #2777b8; fill-opacity: 0.9"/>
    <path clip-path="url(#pb45828c43e)" style="fill: #2070b4; fill-opacity: 0.9"/>
    <path clip-path="url(#pb45828c43e)" style="fill: #1c6ab0; fill-opacity: 0.9"/>
    <path clip-path="url(#pb45828c43e)" style="fill: #1663aa; fill-opacity: 0.9"/>
    <path clip-path="url(#pb45828c43e)" style="fill: #115ca5; fill-opacity: 0.9"/>
    <path clip-path="url(#pb45828c43e)" style="fill: #0c56a0; fill-opacity: 0.9"/>
    <path clip-path="url(#pb45828c43e)" style="fill: #084f99; fill-opacity: 0.9"/>
    <path clip-path="url(#pb45828c43e)" style="fill: #08488e; fill-opacity: 0.9"/>
    <path clip-path="url(#pb45828c43e)" style="fill: #084184; fill-opacity: 0.9"/>
    <path clip-path="url(#pb45828c43e)" style="fill: #083a7a; fill-opacity: 0.9"/>
    <path clip-path="url(#pb45828c43e)" style="fill: #083370; fill-opacity: 0.9"/>
    <path clip-path="url(#pb45828c43e)" style="fill: #08306b; fill-opacity: 0.9"/>
   </g>
   <g id="QuadContourSet_2">
    <path clip-path="url(#pb45828c43e)" style="fill: none"/>
    <path clip-path="url(#pb45828c43e)" style="fill: none"/>
    <path clip-path="url(#pb45828c43e)" style="fill: none"/>
    <path clip-path="url(#pb45828c43e)" style="fill: none"/>
    <path clip-path="url(#pb45828c43e)" style="fill: none"/>
    <path clip-path="url(#pb45828c43e)" style="fill: none"/>
    <path clip-path="url(#pb45828c43e)" style="fill: none"/>
    <path clip-path="url(#pb45828c43e)" style="fill: none"/>
    <path clip-path="url(#pb45828c43e)" style="fill: none"/>
    <path clip-path="url(#pb45828c43e)" style="fill: none"/>
    <path clip-path="url(#pb45828c43e)" style="fill: none"/>
    <path clip-path="url(#pb45828c43e)" style="fill: none"/>
    <path clip-path="url(#pb45828c43e)" style="fill: none"/>
    <path clip-path="url(#pb45828c43e)" style="fill: none"/>
    <path clip-path="url(#pb45828c43e)" style="fill: none"/>
    <path clip-path="url(#pb45828c43e)" style="fill: none"/>
    <path clip-path="url(#pb45828c43e)" style="fill: none"/>
    <path clip-path="url(#pb45828c43e)" style="fill: none"/>
    <path clip-path="url(#pb45828c43e)" style="fill: none"/>
    <path clip-path="url(#pb45828c43e)" style="fill: none"/>
    <path clip-path="url(#pb45828c43e)" style="fill: none"/>
    <path clip-path="url(#pb45828c43e)" style="fill: none"/>
    <path clip-path="url(#pb45828c43e)" style="fill: none"/>
    <path clip-path="url(#pb45828c43e)" style="fill: none"/>
    <path clip-path="url(#pb45828c43e)" style="fill: none"/>
    <path clip-path="url(#pb45828c43e)" style="fill: none"/>
    <path clip-path="url(#pb45828c43e)" style="fill: none"/>
    <path clip-path="url(#pb45828c43e)" style="fill: none"/>
    <path clip-path="url(#pb45828c43e)" style="fill: none"/>
    <path clip-path="url(#pb45828c43e)" style="fill: none"/>
    <path clip-path="url(#pb45828c43e)" style="fill: none"/>
    <path clip-path="url(#pb45828c43e)" style="fill: none"/>
    <path clip-path="url(#pb45828c43e)" style="fill: none"/>
    <path clip-path="url(#pb45828c43e)" style="fill: none"/>
    <path clip-path="url(#pb45828c43e)" style="fill: none"/>
    <path clip-path="url(#pb45828c43e)" style="fill: none"/>
    <path clip-path="url(#pb45828c43e)" style="fill: none"/>
    <path clip-path="url(#pb45828c43e)" style="fill: none"/>
    <path clip-path="url(#pb45828c43e)" style="fill: none"/>
   </g>
  </g>
 </g>
 <defs>
  <clipPath id="pb45828c43e">
   <rect x="0" y="0" width="576" height="813.098298"/>
  </clipPath>
 </defs>
</svg>
