<?xml version="1.0" encoding="utf-8" standalone="no"?>
<!DOCTYPE svg PUBLIC "-//W3C//DTD SVG 1.1//EN"
  "http://www.w3.org/Graphics/SVG/1.1/DTD/svg11.dtd">
<svg xmlns:xlink="http://www.w3.org/1999/xlink" width="576pt" height="821.279309pt" viewBox="0 0 576 821.279309" xmlns="http://www.w3.org/2000/svg" version="1.1">
 <metadata>
  <rdf:RDF xmlns:dc="http://purl.org/dc/elements/1.1/" xmlns:cc="http://creativecommons.org/ns#" xmlns:rdf="http://www.w3.org/1999/02/22-rdf-syntax-ns#">
   <cc:Work>
    <dc:type rdf:resource="http://purl.org/dc/dcmitype/StillImage"/>
    <dc:date>2025-07-25T22:46:10.472022</dc:date>
    <dc:format>image/svg+xml</dc:format>
    <dc:creator>
     <cc:Agent>
      <dc:title>Matplotlib v3.10.3, https://matplotlib.org/</dc:title>
     </cc:Agent>
    </dc:creator>
   </cc:Work>
  </rdf:RDF>
 </metadata>
 <defs>
  <style type="text/css">*{stroke-linejoin: round; stroke-linecap: butt}</style>
 </defs>
 <g id="figure_1">
  <g id="patch_1">
   <path d="M 0 821.279309 
L 576 821.279309 
L 576 0 
L 0 0 
L 0 821.279309 
z
" style="fill: none; opacity: 0"/>
  </g>
  <g id="axes_1">
   <g id="QuadContourSet_1">
    <path d="M 490.422857 821.279263 
L 490.42349 821.279309 
L 493.714286 821.279309 
L 494.368623 821.279309 
L 497.005714 819.712534 
L 500.297143 818.560316 
L 501.28757 817.980998 
L 503.588571 816.635105 
L 506.88 814.710346 
L 506.936974 814.682688 
L 510.171429 813.215297 
L 513.462857 811.977805 
L 514.622907 811.384377 
L 516.754286 810.507729 
L 520.045714 809.822264 
L 522.664498 808.086067 
L 523.337143 807.787772 
L 525.048635 808.086067 
L 526.628571 808.413346 
L 527.301338 808.086067 
L 529.92 806.397639 
L 533.211429 805.118755 
L 533.764156 804.787756 
L 536.502857 803.147695 
L 539.271928 801.489446 
L 539.794286 801.165387 
L 543.085714 799.522777 
L 546.233334 798.191135 
L 546.377143 798.117357 
L 549.668571 796.737813 
L 552.96 795.845532 
L 554.575544 794.892825 
L 556.251429 794.345303 
L 559.403835 794.892825 
L 559.542857 794.919079 
L 559.592722 794.892825 
L 562.834286 792.685777 
L 565.653631 791.594514 
L 566.125714 791.363485 
L 569.417143 789.505568 
L 571.438796 788.296204 
L 572.708571 787.536617 
L 576 785.664681 
L 576 784.997894 
L 576 784.098234 
L 574.86987 784.997894 
L 572.708571 786.210948 
L 569.417143 788.083967 
L 568.419607 788.296204 
L 566.125714 788.811133 
L 562.834286 790.704638 
L 559.542857 791.118217 
L 558.916422 791.594514 
L 556.251429 792.909596 
L 552.96 793.813693 
L 551.120159 794.892825 
L 549.668571 795.506938 
L 546.377143 796.62474 
L 543.323897 798.191135 
L 543.085714 798.291902 
L 539.794286 799.820407 
L 537.103925 801.489446 
L 536.502857 801.849393 
L 533.211429 803.145508 
L 529.92 804.113986 
L 528.341994 804.787756 
L 526.628571 805.666041 
L 523.337143 806.390979 
L 520.045714 807.622668 
L 519.519332 808.086067 
L 516.754286 809.223347 
L 513.462857 810.163807 
L 511.500216 811.384377 
L 510.171429 811.930915 
L 506.88 812.982857 
L 504.615309 814.682688 
L 503.588571 815.283244 
L 500.297143 816.784743 
L 497.005714 817.166609 
L 495.690017 817.980998 
L 493.714286 819.239672 
L 490.422857 819.649427 
L 487.2888 821.279309 
L 490.422769 821.279309 
z
" clip-path="url(#pe290b99ecb)" style="fill: #f5f9fe; fill-opacity: 0.9"/>
    <path d="M 490.422857 821.279309 
L 490.42349 821.279309 
L 490.422857 821.279263 
L 490.422769 821.279309 
z
M 497.005714 821.279309 
L 497.959832 821.279309 
L 500.297143 819.912177 
L 503.588571 817.991599 
L 503.599068 817.980998 
L 506.88 816.084696 
L 509.768036 814.682688 
L 510.171429 814.499679 
L 513.462857 813.57523 
L 516.754286 813.129389 
L 520.045714 812.907127 
L 523.337143 812.463347 
L 524.838924 811.384377 
L 526.628571 810.073468 
L 529.92 808.566194 
L 530.424388 808.086067 
L 533.211429 806.417057 
L 535.932159 804.787756 
L 536.502857 804.445996 
L 539.794286 802.66047 
L 541.635616 801.489446 
L 543.085714 800.753652 
L 546.377143 799.954879 
L 549.14277 798.191135 
L 549.668571 797.968688 
L 551.826874 798.191135 
L 552.96 798.63284 
L 556.251429 798.923499 
L 557.113853 798.191135 
L 559.542857 796.480112 
L 562.557657 794.892825 
L 562.834286 794.70448 
L 566.125714 792.906764 
L 568.141198 791.594514 
L 569.417143 790.831237 
L 572.708571 789.07591 
L 573.654871 788.296204 
L 576 786.943215 
L 576 785.664681 
L 572.708571 787.536617 
L 571.438796 788.296204 
L 569.417143 789.505568 
L 566.125714 791.363485 
L 565.653631 791.594514 
L 562.834286 792.685777 
L 559.592722 794.892825 
L 559.542857 794.919079 
L 559.403835 794.892825 
L 556.251429 794.345303 
L 554.575544 794.892825 
L 552.96 795.845532 
L 549.668571 796.737813 
L 546.377143 798.117357 
L 546.233334 798.191135 
L 543.085714 799.522777 
L 539.794286 801.165387 
L 539.271928 801.489446 
L 536.502857 803.147695 
L 533.764156 804.787756 
L 533.211429 805.118755 
L 529.92 806.397639 
L 527.301338 808.086067 
L 526.628571 808.413346 
L 525.048635 808.086067 
L 523.337143 807.787772 
L 522.664498 808.086067 
L 520.045714 809.822264 
L 516.754286 810.507729 
L 514.622907 811.384377 
L 513.462857 811.977805 
L 510.171429 813.215297 
L 506.936974 814.682688 
L 506.88 814.710346 
L 503.588571 816.635105 
L 501.28757 817.980998 
L 500.297143 818.560316 
L 497.005714 819.712534 
L 494.368623 821.279309 
z
" clip-path="url(#pe290b99ecb)" style="fill: #eff6fc; fill-opacity: 0.9"/>
    <path d="M 500.297143 821.264038 
L 503.588571 820.393196 
L 505.976932 817.980998 
L 506.88 817.459046 
L 510.171429 817.288735 
L 511.996964 817.980998 
L 513.462857 819.113761 
L 514.669429 817.980998 
L 516.754286 816.972316 
L 520.045714 816.883288 
L 522.219785 814.682688 
L 523.337143 814.091659 
L 526.628571 812.611812 
L 527.830729 811.384377 
L 529.92 810.629919 
L 532.592391 808.086067 
L 533.211429 807.715358 
L 536.502857 806.985656 
L 538.676432 804.787756 
L 539.794286 804.203198 
L 543.085714 803.251178 
L 545.985616 804.787756 
L 546.377143 805.180382 
L 546.759109 804.787756 
L 549.668571 803.510835 
L 552.96 803.212466 
L 554.65592 801.489446 
L 556.251429 800.805372 
L 559.329928 798.191135 
L 559.542857 798.041146 
L 562.834286 797.242186 
L 565.160015 794.892825 
L 566.125714 794.349615 
L 569.417143 793.356942 
L 571.154783 791.594514 
L 572.708571 790.90185 
L 575.870947 788.296204 
L 576 788.221749 
L 576 786.943215 
L 573.654871 788.296204 
L 572.708571 789.07591 
L 569.417143 790.831237 
L 568.141198 791.594514 
L 566.125714 792.906764 
L 562.834286 794.70448 
L 562.557657 794.892825 
L 559.542857 796.480112 
L 557.113853 798.191135 
L 556.251429 798.923499 
L 552.96 798.63284 
L 551.826874 798.191135 
L 549.668571 797.968688 
L 549.14277 798.191135 
L 546.377143 799.954879 
L 543.085714 800.753652 
L 541.635616 801.489446 
L 539.794286 802.66047 
L 536.502857 804.445996 
L 535.932159 804.787756 
L 533.211429 806.417057 
L 530.424388 808.086067 
L 529.92 808.566194 
L 526.628571 810.073468 
L 524.838924 811.384377 
L 523.337143 812.463347 
L 520.045714 812.907127 
L 516.754286 813.129389 
L 513.462857 813.57523 
L 510.171429 814.499679 
L 509.768036 814.682688 
L 506.88 816.084696 
L 503.599068 817.980998 
L 503.588571 817.991599 
L 500.297143 819.912177 
L 497.959832 821.279309 
L 500.271035 821.279309 
z
" clip-path="url(#pe290b99ecb)" style="fill: #eaf3fb; fill-opacity: 0.9"/>
    <path d="M 500.297143 821.279309 
L 503.588571 821.279309 
L 506.88 821.279309 
L 510.171429 821.279309 
L 513.462857 821.279309 
L 516.754286 821.279309 
L 520.045714 821.279309 
L 523.337143 821.279309 
L 526.628571 821.279309 
L 529.92 821.279309 
L 533.211429 821.279309 
L 536.502857 821.279309 
L 539.794286 821.279309 
L 543.085714 821.279309 
L 546.377143 821.279309 
L 549.668571 821.279309 
L 552.96 821.279309 
L 556.251429 821.279309 
L 559.542857 821.279309 
L 562.834286 821.279309 
L 566.125714 821.279309 
L 569.417143 821.279309 
L 572.708571 821.279309 
L 576 821.279309 
L 576 817.980998 
L 576 814.682688 
L 576 811.384377 
L 576 808.086067 
L 576 804.787756 
L 576 801.489446 
L 576 798.191135 
L 576 794.892825 
L 576 791.594514 
L 576 788.296204 
L 576 788.221749 
L 575.870947 788.296204 
L 572.708571 790.90185 
L 571.154783 791.594514 
L 569.417143 793.356942 
L 566.125714 794.349615 
L 565.160015 794.892825 
L 562.834286 797.242186 
L 559.542857 798.041146 
L 559.329928 798.191135 
L 556.251429 800.805372 
L 554.65592 801.489446 
L 552.96 803.212466 
L 549.668571 803.510835 
L 546.759109 804.787756 
L 546.377143 805.180382 
L 545.985616 804.787756 
L 543.085714 803.251178 
L 539.794286 804.203198 
L 538.676432 804.787756 
L 536.502857 806.985656 
L 533.211429 807.715358 
L 532.592391 808.086067 
L 529.92 810.629919 
L 527.830729 811.384377 
L 526.628571 812.611812 
L 523.337143 814.091659 
L 522.219785 814.682688 
L 520.045714 816.883288 
L 516.754286 816.972316 
L 514.669429 817.980998 
L 513.462857 819.113761 
L 511.996964 817.980998 
L 510.171429 817.288735 
L 506.88 817.459046 
L 505.976932 817.980998 
L 503.588571 820.393196 
L 500.297143 821.264038 
L 500.271035 821.279309 
z
" clip-path="url(#pe290b99ecb)" style="fill: #e5eff9; fill-opacity: 0.9"/>
    <path clip-path="url(#pe290b99ecb)" style="fill: #dfecf7; fill-opacity: 0.9"/>
    <path clip-path="url(#pe290b99ecb)" style="fill: #dae8f6; fill-opacity: 0.9"/>
    <path clip-path="url(#pe290b99ecb)" style="fill: #d6e5f4; fill-opacity: 0.9"/>
    <path clip-path="url(#pe290b99ecb)" style="fill: #d0e2f2; fill-opacity: 0.9"/>
    <path clip-path="url(#pe290b99ecb)" style="fill: #cbdef1; fill-opacity: 0.9"/>
    <path clip-path="url(#pe290b99ecb)" style="fill: #c6dbef; fill-opacity: 0.9"/>
    <path clip-path="url(#pe290b99ecb)" style="fill: #bed8ec; fill-opacity: 0.9"/>
    <path clip-path="url(#pe290b99ecb)" style="fill: #b5d4e9; fill-opacity: 0.9"/>
    <path clip-path="url(#pe290b99ecb)" style="fill: #add0e6; fill-opacity: 0.9"/>
    <path clip-path="url(#pe290b99ecb)" style="fill: #a5cde3; fill-opacity: 0.9"/>
    <path clip-path="url(#pe290b99ecb)" style="fill: #9cc9e1; fill-opacity: 0.9"/>
    <path clip-path="url(#pe290b99ecb)" style="fill: #91c3de; fill-opacity: 0.9"/>
    <path clip-path="url(#pe290b99ecb)" style="fill: #85bcdc; fill-opacity: 0.9"/>
    <path clip-path="url(#pe290b99ecb)" style="fill: #7cb7da; fill-opacity: 0.9"/>
    <path clip-path="url(#pe290b99ecb)" style="fill: #71b1d7; fill-opacity: 0.9"/>
    <path clip-path="url(#pe290b99ecb)" style="fill: #66abd4; fill-opacity: 0.9"/>
    <path clip-path="url(#pe290b99ecb)" style="fill: #5da5d1; fill-opacity: 0.9"/>
    <path clip-path="url(#pe290b99ecb)" style="fill: #56a0ce; fill-opacity: 0.9"/>
    <path clip-path="url(#pe290b99ecb)" style="fill: #4d99ca; fill-opacity: 0.9"/>
    <path clip-path="url(#pe290b99ecb)" style="fill: #4493c7; fill-opacity: 0.9"/>
    <path clip-path="url(#pe290b99ecb)" style="fill: #3c8cc3; fill-opacity: 0.9"/>
    <path clip-path="url(#pe290b99ecb)" style="fill: #3686c0; fill-opacity: 0.9"/>
    <path clip-path="url(#pe290b99ecb)" style="fill: #2f7fbc; fill-opacity: 0.9"/>
    <path clip-path="url(#pe290b99ecb)" style="fill: #2777b8; fill-opacity: 0.9"/>
    <path clip-path="url(#pe290b99ecb)" style="fill: #2070b4; fill-opacity: 0.9"/>
    <path clip-path="url(#pe290b99ecb)" style="fill: #1c6ab0; fill-opacity: 0.9"/>
    <path clip-path="url(#pe290b99ecb)" style="fill: #1663aa; fill-opacity: 0.9"/>
    <path clip-path="url(#pe290b99ecb)" style="fill: #115ca5; fill-opacity: 0.9"/>
    <path clip-path="url(#pe290b99ecb)" style="fill: #0c56a0; fill-opacity: 0.9"/>
    <path clip-path="url(#pe290b99ecb)" style="fill: #084f99; fill-opacity: 0.9"/>
    <path clip-path="url(#pe290b99ecb)" style="fill: #08488e; fill-opacity: 0.9"/>
    <path clip-path="url(#pe290b99ecb)" style="fill: #084184; fill-opacity: 0.9"/>
    <path clip-path="url(#pe290b99ecb)" style="fill: #083a7a; fill-opacity: 0.9"/>
    <path clip-path="url(#pe290b99ecb)" style="fill: #083370; fill-opacity: 0.9"/>
    <path clip-path="url(#pe290b99ecb)" style="fill: #08306b; fill-opacity: 0.9"/>
   </g>
   <g id="QuadContourSet_2">
    <path d="M 576 784.098234 
L 574.86987 784.997894 
L 572.708571 786.210948 
L 569.417143 788.083967 
L 568.419607 788.296204 
L 566.125714 788.811133 
L 562.834286 790.704638 
L 559.542857 791.118217 
L 558.916422 791.594514 
L 556.251429 792.909596 
L 552.96 793.813693 
L 551.801728 794.493061 
M 534.60502 802.596732 
L 533.211429 803.145508 
L 529.92 804.113986 
L 528.341994 804.787756 
L 526.628571 805.666041 
L 523.337143 806.390979 
L 520.045714 807.622668 
L 519.519332 808.086067 
L 516.754286 809.223347 
L 513.462857 810.163807 
L 511.500216 811.384377 
L 510.171429 811.930915 
L 506.88 812.982857 
L 504.615309 814.682688 
L 503.588571 815.283244 
L 500.297143 816.784743 
L 497.005714 817.166609 
L 495.690017 817.980998 
L 493.714286 819.239672 
L 490.422857 819.649427 
L 487.2888 821.279309 
" clip-path="url(#pe290b99ecb)" style="fill: none"/>
    <path d="M 490.42349 821.279309 
L 490.422857 821.279263 
L 490.422769 821.279309 
M 576 785.664681 
L 573.973675 786.817114 
M 556.990799 794.473719 
L 556.251429 794.345303 
L 554.575544 794.892825 
L 552.96 795.845532 
L 549.668571 796.737813 
L 546.377143 798.117357 
L 546.233334 798.191135 
L 543.085714 799.522777 
L 539.794286 801.165387 
L 539.271928 801.489446 
L 536.502857 803.147695 
L 533.764156 804.787756 
L 533.211429 805.118755 
L 529.92 806.397639 
L 527.301338 808.086067 
L 526.628571 808.413346 
L 525.048635 808.086067 
L 523.337143 807.787772 
L 522.664498 808.086067 
L 520.045714 809.822264 
L 516.754286 810.507729 
L 514.622907 811.384377 
L 513.462857 811.977805 
L 510.171429 813.215297 
L 506.936974 814.682688 
L 506.88 814.710346 
L 503.588571 816.635105 
L 501.28757 817.980998 
L 500.297143 818.560316 
L 497.005714 819.712534 
L 494.368623 821.279309 
" clip-path="url(#pe290b99ecb)" style="fill: none"/>
    <path d="M 576 786.943215 
L 573.654871 788.296204 
L 572.708571 789.07591 
L 569.417143 790.831237 
L 568.141198 791.594514 
L 566.125714 792.906764 
L 562.834286 794.70448 
L 562.557657 794.892825 
L 559.542857 796.480112 
L 557.113853 798.191135 
L 556.251429 798.923499 
L 552.96 798.63284 
L 551.826874 798.191135 
L 549.668571 797.968688 
L 549.14277 798.191135 
L 546.377143 799.954879 
L 543.085714 800.753652 
L 541.635616 801.489446 
L 539.794286 802.66047 
L 536.502857 804.445996 
L 535.932159 804.787756 
L 533.211429 806.417057 
L 530.424388 808.086067 
L 529.92 808.566194 
L 526.628571 810.073468 
L 524.838924 811.384377 
L 523.337143 812.463347 
L 520.045714 812.907127 
L 516.754286 813.129389 
L 513.462857 813.57523 
L 510.171429 814.499679 
L 509.768036 814.682688 
L 508.661416 815.219901 
" clip-path="url(#pe290b99ecb)" style="fill: none"/>
    <path d="M 576 788.221749 
L 575.870947 788.296204 
L 572.708571 790.90185 
L 571.154783 791.594514 
L 569.417143 793.356942 
L 566.125714 794.349615 
L 565.160015 794.892825 
L 562.834286 797.242186 
L 559.542857 798.041146 
L 559.329928 798.191135 
L 556.251429 800.805372 
L 554.65592 801.489446 
L 552.96 803.212466 
L 549.668571 803.510835 
L 546.759109 804.787756 
L 546.377143 805.180382 
L 545.985616 804.787756 
L 543.085714 803.251178 
L 539.794286 804.203198 
L 538.676432 804.787756 
L 536.502857 806.985656 
L 534.432128 807.444732 
M 518.416151 816.927365 
L 516.754286 816.972316 
L 514.669429 817.980998 
L 513.462857 819.113761 
L 511.996964 817.980998 
L 510.171429 817.288735 
L 506.88 817.459046 
L 505.976932 817.980998 
L 503.588571 820.393196 
L 500.297143 821.264038 
L 500.271035 821.279309 
" clip-path="url(#pe290b99ecb)" style="fill: none"/>
    <path clip-path="url(#pe290b99ecb)" style="fill: none"/>
    <path clip-path="url(#pe290b99ecb)" style="fill: none"/>
    <path clip-path="url(#pe290b99ecb)" style="fill: none"/>
    <path clip-path="url(#pe290b99ecb)" style="fill: none"/>
    <path clip-path="url(#pe290b99ecb)" style="fill: none"/>
    <path clip-path="url(#pe290b99ecb)" style="fill: none"/>
    <path clip-path="url(#pe290b99ecb)" style="fill: none"/>
    <path clip-path="url(#pe290b99ecb)" style="fill: none"/>
    <path clip-path="url(#pe290b99ecb)" style="fill: none"/>
    <path clip-path="url(#pe290b99ecb)" style="fill: none"/>
    <path clip-path="url(#pe290b99ecb)" style="fill: none"/>
    <path clip-path="url(#pe290b99ecb)" style="fill: none"/>
    <path clip-path="url(#pe290b99ecb)" style="fill: none"/>
    <path clip-path="url(#pe290b99ecb)" style="fill: none"/>
    <path clip-path="url(#pe290b99ecb)" style="fill: none"/>
    <path clip-path="url(#pe290b99ecb)" style="fill: none"/>
    <path clip-path="url(#pe290b99ecb)" style="fill: none"/>
    <path clip-path="url(#pe290b99ecb)" style="fill: none"/>
    <path clip-path="url(#pe290b99ecb)" style="fill: none"/>
    <path clip-path="url(#pe290b99ecb)" style="fill: none"/>
    <path clip-path="url(#pe290b99ecb)" style="fill: none"/>
    <path clip-path="url(#pe290b99ecb)" style="fill: none"/>
    <path clip-path="url(#pe290b99ecb)" style="fill: none"/>
    <path clip-path="url(#pe290b99ecb)" style="fill: none"/>
    <path clip-path="url(#pe290b99ecb)" style="fill: none"/>
    <path clip-path="url(#pe290b99ecb)" style="fill: none"/>
    <path clip-path="url(#pe290b99ecb)" style="fill: none"/>
    <path clip-path="url(#pe290b99ecb)" style="fill: none"/>
    <path clip-path="url(#pe290b99ecb)" style="fill: none"/>
    <path clip-path="url(#pe290b99ecb)" style="fill: none"/>
    <path clip-path="url(#pe290b99ecb)" style="fill: none"/>
    <path clip-path="url(#pe290b99ecb)" style="fill: none"/>
    <path clip-path="url(#pe290b99ecb)" style="fill: none"/>
    <path clip-path="url(#pe290b99ecb)" style="fill: none"/>
    <path clip-path="url(#pe290b99ecb)" style="fill: none"/>
   </g>
   <g id="text_1">
    <g clip-path="url(#pe290b99ecb)">
     <!-- 0 -->
     <g style="opacity: 0" transform="translate(541.076879 802.928955) rotate(-25.639131) scale(0.12 -0.12)">
      <defs>
       <path id="DejaVuSans-30" d="M 2034 4250 
Q 1547 4250 1301 3770 
Q 1056 3291 1056 2328 
Q 1056 1369 1301 889 
Q 1547 409 2034 409 
Q 2525 409 2770 889 
Q 3016 1369 3016 2328 
Q 3016 3291 2770 3770 
Q 2525 4250 2034 4250 
z
M 2034 4750 
Q 2819 4750 3233 4129 
Q 3647 3509 3647 2328 
Q 3647 1150 3233 529 
Q 2819 -91 2034 -91 
Q 1250 -91 836 529 
Q 422 1150 422 2328 
Q 422 3509 836 4129 
Q 1250 4750 2034 4750 
z
" transform="scale(0.015625)"/>
      </defs>
      <use xlink:href="#DejaVuSans-30"/>
     </g>
    </g>
   </g>
   <g id="text_2">
    <g clip-path="url(#pe290b99ecb)">
     <!-- 1 -->
     <g style="opacity: 0" transform="translate(563.805134 796.297784) rotate(-27.60605) scale(0.12 -0.12)">
      <defs>
       <path id="DejaVuSans-31" d="M 794 531 
L 1825 531 
L 1825 4091 
L 703 3866 
L 703 4441 
L 1819 4666 
L 2450 4666 
L 2450 531 
L 3481 531 
L 3481 0 
L 794 0 
L 794 531 
z
" transform="scale(0.015625)"/>
      </defs>
      <use xlink:href="#DejaVuSans-31"/>
     </g>
    </g>
   </g>
   <g id="text_3">
    <g clip-path="url(#pe290b99ecb)">
     <!-- 2 -->
     <g style="opacity: 0" transform="translate(498.656583 824.691952) rotate(-30.11832) scale(0.12 -0.12)">
      <defs>
       <path id="DejaVuSans-32" d="M 1228 531 
L 3431 531 
L 3431 0 
L 469 0 
L 469 531 
Q 828 903 1448 1529 
Q 2069 2156 2228 2338 
Q 2531 2678 2651 2914 
Q 2772 3150 2772 3378 
Q 2772 3750 2511 3984 
Q 2250 4219 1831 4219 
Q 1534 4219 1204 4116 
Q 875 4013 500 3803 
L 500 4441 
Q 881 4594 1212 4672 
Q 1544 4750 1819 4750 
Q 2544 4750 2975 4387 
Q 3406 4025 3406 3419 
Q 3406 3131 3298 2873 
Q 3191 2616 2906 2266 
Q 2828 2175 2409 1742 
Q 1991 1309 1228 531 
z
" transform="scale(0.015625)"/>
      </defs>
      <use xlink:href="#DejaVuSans-32"/>
     </g>
    </g>
   </g>
   <g id="text_4">
    <g clip-path="url(#pe290b99ecb)">
     <!-- 3 -->
     <g style="opacity: 0" transform="translate(524.923002 817.368777) rotate(-29.337194) scale(0.12 -0.12)">
      <defs>
       <path id="DejaVuSans-33" d="M 2597 2516 
Q 3050 2419 3304 2112 
Q 3559 1806 3559 1356 
Q 3559 666 3084 287 
Q 2609 -91 1734 -91 
Q 1441 -91 1130 -33 
Q 819 25 488 141 
L 488 750 
Q 750 597 1062 519 
Q 1375 441 1716 441 
Q 2309 441 2620 675 
Q 2931 909 2931 1356 
Q 2931 1769 2642 2001 
Q 2353 2234 1838 2234 
L 1294 2234 
L 1294 2753 
L 1863 2753 
Q 2328 2753 2575 2939 
Q 2822 3125 2822 3475 
Q 2822 3834 2567 4026 
Q 2313 4219 1838 4219 
Q 1578 4219 1281 4162 
Q 984 4106 628 3988 
L 628 4550 
Q 988 4650 1302 4700 
Q 1616 4750 1894 4750 
Q 2613 4750 3031 4423 
Q 3450 4097 3450 3541 
Q 3450 3153 3228 2886 
Q 3006 2619 2597 2516 
z
" transform="scale(0.015625)"/>
      </defs>
      <use xlink:href="#DejaVuSans-33"/>
     </g>
    </g>
   </g>
  </g>
 </g>
 <defs>
  <clipPath id="pe290b99ecb">
   <rect x="0" y="0" width="576" height="821.279309"/>
  </clipPath>
 </defs>
</svg>
