<?xml version="1.0" encoding="utf-8" standalone="no"?>
<!DOCTYPE svg PUBLIC "-//W3C//DTD SVG 1.1//EN"
  "http://www.w3.org/Graphics/SVG/1.1/DTD/svg11.dtd">
<svg xmlns:xlink="http://www.w3.org/1999/xlink" width="576pt" height="821.133661pt" viewBox="0 0 576 821.133661" xmlns="http://www.w3.org/2000/svg" version="1.1">
 <metadata>
  <rdf:RDF xmlns:dc="http://purl.org/dc/elements/1.1/" xmlns:cc="http://creativecommons.org/ns#" xmlns:rdf="http://www.w3.org/1999/02/22-rdf-syntax-ns#">
   <cc:Work>
    <dc:type rdf:resource="http://purl.org/dc/dcmitype/StillImage"/>
    <dc:date>2025-07-25T22:46:05.452003</dc:date>
    <dc:format>image/svg+xml</dc:format>
    <dc:creator>
     <cc:Agent>
      <dc:title>Matplotlib v3.10.3, https://matplotlib.org/</dc:title>
     </cc:Agent>
    </dc:creator>
   </cc:Work>
  </rdf:RDF>
 </metadata>
 <defs>
  <style type="text/css">*{stroke-linejoin: round; stroke-linecap: butt}</style>
 </defs>
 <g id="figure_1">
  <g id="patch_1">
   <path d="M 0 821.133661 
L 576 821.133661 
L 576 0 
L 0 0 
L 0 821.133661 
z
" style="fill: none; opacity: 0"/>
  </g>
  <g id="axes_1">
   <g id="QuadContourSet_1">
    <path d="M 49.371429 820.797269 
L 49.713224 821.133661 
L 51.227945 821.133661 
L 49.371429 819.306496 
L 48.239641 817.835936 
L 49.371429 817.273629 
L 52.120216 814.53821 
L 52.662857 811.240484 
L 49.371429 807.942759 
L 49.371429 807.942759 
L 46.08 804.645033 
L 46.08 804.645033 
L 42.788571 801.347308 
L 39.497143 801.861366 
L 36.744928 804.645033 
L 36.205714 805.823287 
L 34.65269 804.645033 
L 32.914286 802.889092 
L 30.640468 801.347308 
L 29.622857 800.315308 
L 26.331429 799.575957 
L 26.187699 798.049582 
L 25.827014 794.751857 
L 23.04 791.955628 
L 22.475546 791.454131 
L 19.748571 788.717821 
L 19.106058 788.156406 
L 16.744354 784.85868 
L 19.748571 784.348343 
L 22.540248 781.560955 
L 23.04 778.263229 
L 19.748571 774.965503 
L 19.748571 774.965503 
L 16.457143 771.667778 
L 13.165714 772.1415 
L 10.367086 774.965503 
L 9.874286 776.021922 
L 8.484131 774.965503 
L 6.582857 773.050222 
L 4.553077 771.667778 
L 3.291429 770.393511 
L 0 768.567223 
L 0 770.170156 
L 2.197917 771.667778 
L 3.273498 774.965503 
L 3.291429 775.133298 
L 3.635074 774.965503 
L 6.582857 774.655868 
L 6.890229 774.965503 
L 9.874286 777.233174 
L 10.932114 774.965503 
L 13.165714 772.711651 
L 16.457143 772.333948 
L 19.083673 774.965503 
L 19.748571 775.632132 
L 22.374644 778.263229 
L 21.975916 781.560955 
L 19.748571 783.784878 
L 17.524646 781.560955 
L 16.457143 780.492032 
L 13.733151 781.560955 
L 15.407641 784.85868 
L 16.457143 785.713871 
L 18.372046 788.156406 
L 19.748571 789.359185 
L 21.83637 791.454131 
L 23.04 792.523513 
L 25.261001 794.751857 
L 25.5499 798.049582 
L 25.809824 801.347308 
L 26.331429 803.216067 
L 29.129924 804.645033 
L 29.622857 805.318516 
L 31.789126 804.645033 
L 32.914286 804.558774 
L 32.999684 804.645033 
L 36.205714 807.077395 
L 37.318856 804.645033 
L 39.497143 802.441853 
L 42.788571 802.034788 
L 45.393832 804.645033 
L 46.08 805.332358 
L 48.685416 807.942759 
L 49.371429 808.629975 
L 51.976954 811.240484 
L 51.547394 814.53821 
L 49.371429 816.703593 
L 47.092296 817.835936 
z
M 15.17097 781.560955 
L 16.457143 781.056247 
L 16.96118 781.560955 
L 16.457143 784.56764 
z
M 46.08 816.817735 
L 47.205996 814.53821 
L 46.08 813.409911 
L 44.229955 814.53821 
z
M 45.166563 814.53821 
L 46.08 813.981126 
L 46.635947 814.53821 
L 46.08 815.663697 
z
M 42.788571 813.08946 
L 43.910515 811.240484 
L 42.788571 810.116183 
L 40.825097 811.240484 
z
M 41.824789 811.240484 
L 42.788571 810.688614 
L 43.339284 811.240484 
L 42.788571 812.148065 
z
M 39.497143 809.905456 
L 40.61508 807.942759 
L 39.497143 806.822406 
L 37.065052 807.942759 
z
M 38.310426 807.942759 
L 39.497143 807.396093 
L 40.04263 807.942759 
L 39.497143 808.900439 
z
M 13.165714 780.989642 
L 14.228332 778.263229 
L 13.165714 777.19909 
L 10.898169 778.263229 
z
M 12.102164 778.263229 
L 13.165714 777.764114 
L 13.664115 778.263229 
L 13.165714 779.542002 
z
" clip-path="url(#pb99b2bc476)" style="fill: #f5f9fe; fill-opacity: 0.9"/>
    <path d="M 46.08 818.011529 
L 48.482508 821.133661 
L 49.371429 821.133661 
L 49.713224 821.133661 
L 49.371429 820.797269 
L 47.092296 817.835936 
L 49.371429 816.703593 
L 51.547394 814.53821 
L 51.976954 811.240484 
L 49.371429 808.629975 
L 48.685416 807.942759 
L 46.08 805.332358 
L 45.393832 804.645033 
L 42.788571 802.034788 
L 39.497143 802.441853 
L 37.318856 804.645033 
L 36.205714 807.077395 
L 32.999684 804.645033 
L 32.914286 804.558774 
L 31.789126 804.645033 
L 29.622857 805.318516 
L 29.129924 804.645033 
L 26.331429 803.216067 
L 25.809824 801.347308 
L 25.5499 798.049582 
L 25.261001 794.751857 
L 23.04 792.523513 
L 21.83637 791.454131 
L 19.748571 789.359185 
L 18.372046 788.156406 
L 16.457143 785.713871 
L 15.407641 784.85868 
L 13.733151 781.560955 
L 16.457143 780.492032 
L 17.524646 781.560955 
L 19.748571 783.784878 
L 21.975916 781.560955 
L 22.374644 778.263229 
L 19.748571 775.632132 
L 19.083673 774.965503 
L 16.457143 772.333948 
L 13.165714 772.711651 
L 10.932114 774.965503 
L 9.874286 777.233174 
L 6.890229 774.965503 
L 6.582857 774.655868 
L 3.635074 774.965503 
L 3.291429 775.133298 
L 3.273498 774.965503 
L 2.197917 771.667778 
L 0 770.170156 
L 0 771.667778 
L 0 771.736124 
L 2.475923 774.965503 
L 2.771196 778.263229 
L 3.149136 781.560955 
L 3.291429 781.759156 
L 5.400489 781.560955 
L 6.582857 780.979478 
L 9.874286 779.376547 
L 10.949073 781.560955 
L 13.165714 782.843445 
L 14.258649 784.85868 
L 16.457143 786.650131 
L 17.638035 788.156406 
L 19.748571 790.000549 
L 21.197195 791.454131 
L 23.04 793.091398 
L 24.694987 794.751857 
L 24.9121 798.049582 
L 25.103501 801.347308 
L 25.902875 804.645033 
L 26.331429 805.168101 
L 28.932899 807.942759 
L 29.485069 811.240484 
L 29.622857 812.090744 
L 32.342143 811.240484 
L 32.914286 811.061735 
L 36.205714 810.039026 
L 39.497143 810.910472 
L 39.825406 811.240484 
L 42.788571 814.030855 
L 43.293347 814.53821 
L 45.833581 817.835936 
z
M 44.229955 814.53821 
L 46.08 813.409911 
L 47.205996 814.53821 
L 46.08 816.817735 
z
M 47.776045 814.53821 
L 46.08 812.838695 
L 44.481746 811.240484 
L 42.788571 809.543751 
L 41.187529 807.942759 
L 39.497143 806.248719 
L 37.892784 804.645033 
L 39.497143 803.02234 
L 42.788571 802.722269 
L 44.707664 804.645033 
L 46.08 806.019683 
L 47.999404 807.942759 
L 49.371429 809.31719 
L 51.29105 811.240484 
L 50.974572 814.53821 
L 49.371429 816.133557 
z
M 40.825097 811.240484 
L 42.788571 810.116183 
L 43.910515 811.240484 
L 42.788571 813.08946 
z
M 37.065052 807.942759 
L 39.497143 806.822406 
L 40.61508 807.942759 
L 39.497143 809.905456 
z
M 18.088111 781.560955 
L 16.457143 779.927817 
L 14.792549 778.263229 
L 13.165714 776.634066 
L 11.497142 774.965503 
L 13.165714 773.281801 
L 16.457143 773.000118 
L 18.418775 774.965503 
L 19.748571 776.298761 
L 21.709289 778.263229 
L 21.411584 781.560955 
L 19.748571 783.221413 
z
M 10.898169 778.263229 
L 13.165714 777.19909 
L 14.228332 778.263229 
L 13.165714 780.989642 
z
" clip-path="url(#pb99b2bc476)" style="fill: #eff6fc; fill-opacity: 0.9"/>
    <path d="M 29.622857 818.864874 
L 32.903722 817.835936 
L 32.914286 817.832624 
L 36.205714 816.805225 
L 39.497143 815.782277 
L 42.788571 816.198903 
L 43.740058 817.835936 
L 46.08 819.503332 
L 47.334553 821.133661 
L 48.482508 821.133661 
L 46.08 818.011529 
L 45.833581 817.835936 
L 43.293347 814.53821 
L 42.788571 814.030855 
L 39.825406 811.240484 
L 39.497143 810.910472 
L 36.205714 810.039026 
L 32.914286 811.061735 
L 32.342143 811.240484 
L 29.622857 812.090744 
L 29.485069 811.240484 
L 28.932899 807.942759 
L 26.331429 805.168101 
L 25.902875 804.645033 
L 25.103501 801.347308 
L 24.9121 798.049582 
L 24.694987 794.751857 
L 23.04 793.091398 
L 21.197195 791.454131 
L 19.748571 790.000549 
L 17.638035 788.156406 
L 16.457143 786.650131 
L 14.258649 784.85868 
L 13.165714 782.843445 
L 10.949073 781.560955 
L 9.874286 779.376547 
L 6.582857 780.979478 
L 5.400489 781.560955 
L 3.291429 781.759156 
L 3.149136 781.560955 
L 2.771196 778.263229 
L 2.475923 774.965503 
L 0 771.736124 
L 0 772.776412 
L 1.678348 774.965503 
L 1.875251 778.263229 
L 2.126331 781.560955 
L 3.291429 783.183834 
L 5.628523 784.85868 
L 6.522047 788.156406 
L 6.582857 788.442434 
L 7.164474 788.156406 
L 9.874286 786.825932 
L 13.165714 785.221977 
L 16.457143 787.586392 
L 16.904024 788.156406 
L 19.748571 790.641913 
L 20.558019 791.454131 
L 23.04 793.659283 
L 24.128974 794.751857 
L 24.274301 798.049582 
L 24.397178 801.347308 
L 24.918405 804.645033 
L 26.331429 806.369691 
L 27.80631 807.942759 
L 28.387358 811.240484 
L 28.78134 814.53821 
L 29.372557 817.835936 
z
M 49.371429 816.133557 
L 50.974572 814.53821 
L 51.29105 811.240484 
L 49.371429 809.31719 
L 47.999404 807.942759 
L 46.08 806.019683 
L 44.707664 804.645033 
L 42.788571 802.722269 
L 39.497143 803.02234 
L 37.892784 804.645033 
L 39.497143 806.248719 
L 41.187529 807.942759 
L 42.788571 809.543751 
L 44.481746 811.240484 
L 46.08 812.838695 
L 47.776045 814.53821 
z
M 48.346094 814.53821 
L 46.08 812.26748 
L 45.052976 811.240484 
L 42.788571 808.971319 
L 41.759979 807.942759 
L 39.497143 805.675032 
L 38.466712 804.645033 
L 39.497143 803.602826 
L 42.788571 803.40975 
L 44.021496 804.645033 
L 46.08 806.707008 
L 47.313391 807.942759 
L 49.371429 810.004406 
L 50.605147 811.240484 
L 50.40175 814.53821 
L 49.371429 815.563521 
z
M 19.748571 783.221413 
L 21.411584 781.560955 
L 21.709289 778.263229 
L 19.748571 776.298761 
L 18.418775 774.965503 
L 16.457143 773.000118 
L 13.165714 773.281801 
L 11.497142 774.965503 
L 13.165714 776.634066 
L 14.792549 778.263229 
L 16.457143 779.927817 
L 18.088111 781.560955 
z
M 18.651577 781.560955 
L 16.457143 779.363603 
L 15.356766 778.263229 
L 13.165714 776.069042 
L 12.062169 774.965503 
L 13.165714 773.851952 
L 16.457143 773.666289 
L 17.753877 774.965503 
L 19.748571 776.965389 
L 21.043933 778.263229 
L 20.847253 781.560955 
L 19.748571 782.657948 
z
" clip-path="url(#pb99b2bc476)" style="fill: #eaf3fb; fill-opacity: 0.9"/>
    <path d="M 29.622857 821.133661 
L 32.914286 821.133661 
L 36.205714 821.133661 
L 39.497143 821.133661 
L 42.788571 821.133661 
L 44.053103 821.133661 
L 46.08 820.995135 
L 46.186597 821.133661 
L 47.334553 821.133661 
L 46.08 819.503332 
L 43.740058 817.835936 
L 42.788571 816.198903 
L 39.497143 815.782277 
L 36.205714 816.805225 
L 32.914286 817.832624 
L 32.903722 817.835936 
L 29.622857 818.864874 
L 29.372557 817.835936 
L 28.78134 814.53821 
L 28.387358 811.240484 
L 27.80631 807.942759 
L 26.331429 806.369691 
L 24.918405 804.645033 
L 24.397178 801.347308 
L 24.274301 798.049582 
L 24.128974 794.751857 
L 23.04 793.659283 
L 20.558019 791.454131 
L 19.748571 790.641913 
L 16.904024 788.156406 
L 16.457143 787.586392 
L 13.165714 785.221977 
L 9.874286 786.825932 
L 7.164474 788.156406 
L 6.582857 788.442434 
L 6.522047 788.156406 
L 5.628523 784.85868 
L 3.291429 783.183834 
L 2.126331 781.560955 
L 1.875251 778.263229 
L 1.678348 774.965503 
L 0 772.776412 
L 0 773.8167 
L 0.880772 774.965503 
L 0.979306 778.263229 
L 1.103526 781.560955 
L 3.291429 784.608513 
L 3.640514 784.85868 
L 4.934296 788.156406 
L 5.369624 791.454131 
L 6.142806 794.751857 
L 6.582857 795.202605 
L 8.931299 794.751857 
L 9.874286 794.286496 
L 13.165714 792.672409 
L 15.664177 791.454131 
L 16.457143 791.068129 
L 19.748571 791.283277 
L 19.918843 791.454131 
L 23.04 794.227168 
L 23.56296 794.751857 
L 23.636502 798.049582 
L 23.690856 801.347308 
L 23.933935 804.645033 
L 26.331429 807.57128 
L 26.679721 807.942759 
L 27.289647 811.240484 
L 27.463757 814.53821 
L 27.724527 817.835936 
L 28.158953 821.133661 
z
M 49.371429 815.563521 
L 50.40175 814.53821 
L 50.605147 811.240484 
L 49.371429 810.004406 
L 47.313391 807.942759 
L 46.08 806.707008 
L 44.021496 804.645033 
L 42.788571 803.40975 
L 39.497143 803.602826 
L 38.466712 804.645033 
L 39.497143 805.675032 
L 41.759979 807.942759 
L 42.788571 808.971319 
L 45.052976 811.240484 
L 46.08 812.26748 
L 48.346094 814.53821 
z
M 48.916143 814.53821 
L 46.08 811.696265 
L 45.624207 811.240484 
L 42.788571 808.398888 
L 42.332428 807.942759 
L 39.497143 805.101345 
L 39.040639 804.645033 
L 39.497143 804.183313 
L 42.788571 804.09723 
L 43.335328 804.645033 
L 46.08 807.394333 
L 46.627379 807.942759 
L 49.371429 810.691621 
L 49.919244 811.240484 
L 49.828928 814.53821 
L 49.371429 814.993485 
z
M 19.748571 782.657948 
L 20.847253 781.560955 
L 21.043933 778.263229 
L 19.748571 776.965389 
L 17.753877 774.965503 
L 16.457143 773.666289 
L 13.165714 773.851952 
L 12.062169 774.965503 
L 13.165714 776.069042 
L 15.356766 778.263229 
L 16.457143 779.363603 
L 18.651577 781.560955 
z
M 19.215042 781.560955 
L 16.457143 778.799388 
L 15.920982 778.263229 
L 13.165714 775.504017 
L 12.627197 774.965503 
L 13.165714 774.422103 
L 16.457143 774.332459 
L 17.088979 774.965503 
L 19.748571 777.632018 
L 20.378577 778.263229 
L 20.282921 781.560955 
L 19.748571 782.094483 
z
" clip-path="url(#pb99b2bc476)" style="fill: #e5eff9; fill-opacity: 0.9"/>
    <path d="M 3.291429 821.133661 
L 6.582857 821.133661 
L 9.874286 821.133661 
L 13.165714 821.133661 
L 16.457143 821.133661 
L 19.748571 821.133661 
L 23.04 821.133661 
L 26.331429 821.133661 
L 28.158953 821.133661 
L 27.724527 817.835936 
L 27.463757 814.53821 
L 27.289647 811.240484 
L 26.679721 807.942759 
L 26.331429 807.57128 
L 23.933935 804.645033 
L 23.690856 801.347308 
L 23.636502 798.049582 
L 23.56296 794.751857 
L 23.04 794.227168 
L 19.918843 791.454131 
L 19.748571 791.283277 
L 16.457143 791.068129 
L 15.664177 791.454131 
L 13.165714 792.672409 
L 9.874286 794.286496 
L 8.931299 794.751857 
L 6.582857 795.202605 
L 6.142806 794.751857 
L 5.369624 791.454131 
L 4.934296 788.156406 
L 3.640514 784.85868 
L 3.291429 784.608513 
L 1.103526 781.560955 
L 0.979306 778.263229 
L 0.880772 774.965503 
L 0 773.8167 
L 0 774.856988 
L 0.083197 774.965503 
L 0.083361 778.263229 
L 0.080722 781.560955 
L 0.248555 784.85868 
L 3.291429 788.023157 
L 3.346545 788.156406 
L 3.336477 791.454131 
L 3.308961 794.751857 
L 3.291429 796.049818 
L 0.241897 798.049582 
L 0 798.185972 
L 0 801.347308 
L 0 804.645033 
L 0 807.942759 
L 0 811.240484 
L 0 814.53821 
L 0 817.835936 
L 0 821.133661 
z
M 46.08 821.133661 
L 46.186597 821.133661 
L 46.08 820.995135 
L 44.053103 821.133661 
z
M 49.371429 814.993485 
L 49.828928 814.53821 
L 49.919244 811.240484 
L 49.371429 810.691621 
L 46.627379 807.942759 
L 46.08 807.394333 
L 43.335328 804.645033 
L 42.788571 804.09723 
L 39.497143 804.183313 
L 39.040639 804.645033 
L 39.497143 805.101345 
L 42.332428 807.942759 
L 42.788571 808.398888 
L 45.624207 811.240484 
L 46.08 811.696265 
L 48.916143 814.53821 
z
M 19.748571 782.094483 
L 20.282921 781.560955 
L 20.378577 778.263229 
L 19.748571 777.632018 
L 17.088979 774.965503 
L 16.457143 774.332459 
L 13.165714 774.422103 
L 12.627197 774.965503 
L 13.165714 775.504017 
L 15.920982 778.263229 
L 16.457143 778.799388 
L 19.215042 781.560955 
z
" clip-path="url(#pb99b2bc476)" style="fill: #dfecf7; fill-opacity: 0.9"/>
    <path d="M 0.241897 798.049582 
L 3.291429 796.049818 
L 3.308961 794.751857 
L 3.336477 791.454131 
L 3.346545 788.156406 
L 3.291429 788.023157 
L 0.248555 784.85868 
L 0.080722 781.560955 
L 0.083361 778.263229 
L 0.083197 774.965503 
L 0 774.856988 
L 0 774.965503 
L 0 778.263229 
L 0 781.560955 
L 0 784.85868 
L 0 788.156406 
L 0 791.454131 
L 0 794.751857 
L 0 798.049582 
L 0 798.185972 
z
" clip-path="url(#pb99b2bc476)" style="fill: #dae8f6; fill-opacity: 0.9"/>
    <path clip-path="url(#pb99b2bc476)" style="fill: #d6e5f4; fill-opacity: 0.9"/>
    <path clip-path="url(#pb99b2bc476)" style="fill: #d0e2f2; fill-opacity: 0.9"/>
    <path clip-path="url(#pb99b2bc476)" style="fill: #cbdef1; fill-opacity: 0.9"/>
    <path clip-path="url(#pb99b2bc476)" style="fill: #c6dbef; fill-opacity: 0.9"/>
    <path clip-path="url(#pb99b2bc476)" style="fill: #bed8ec; fill-opacity: 0.9"/>
    <path clip-path="url(#pb99b2bc476)" style="fill: #b5d4e9; fill-opacity: 0.9"/>
    <path clip-path="url(#pb99b2bc476)" style="fill: #add0e6; fill-opacity: 0.9"/>
    <path clip-path="url(#pb99b2bc476)" style="fill: #a5cde3; fill-opacity: 0.9"/>
    <path clip-path="url(#pb99b2bc476)" style="fill: #9cc9e1; fill-opacity: 0.9"/>
    <path clip-path="url(#pb99b2bc476)" style="fill: #91c3de; fill-opacity: 0.9"/>
    <path clip-path="url(#pb99b2bc476)" style="fill: #85bcdc; fill-opacity: 0.9"/>
    <path clip-path="url(#pb99b2bc476)" style="fill: #7cb7da; fill-opacity: 0.9"/>
    <path clip-path="url(#pb99b2bc476)" style="fill: #71b1d7; fill-opacity: 0.9"/>
    <path clip-path="url(#pb99b2bc476)" style="fill: #66abd4; fill-opacity: 0.9"/>
    <path clip-path="url(#pb99b2bc476)" style="fill: #5da5d1; fill-opacity: 0.9"/>
    <path clip-path="url(#pb99b2bc476)" style="fill: #56a0ce; fill-opacity: 0.9"/>
    <path clip-path="url(#pb99b2bc476)" style="fill: #4d99ca; fill-opacity: 0.9"/>
    <path clip-path="url(#pb99b2bc476)" style="fill: #4493c7; fill-opacity: 0.9"/>
    <path clip-path="url(#pb99b2bc476)" style="fill: #3c8cc3; fill-opacity: 0.9"/>
    <path clip-path="url(#pb99b2bc476)" style="fill: #3686c0; fill-opacity: 0.9"/>
    <path clip-path="url(#pb99b2bc476)" style="fill: #2f7fbc; fill-opacity: 0.9"/>
    <path clip-path="url(#pb99b2bc476)" style="fill: #2777b8; fill-opacity: 0.9"/>
    <path clip-path="url(#pb99b2bc476)" style="fill: #2070b4; fill-opacity: 0.9"/>
    <path clip-path="url(#pb99b2bc476)" style="fill: #1c6ab0; fill-opacity: 0.9"/>
    <path clip-path="url(#pb99b2bc476)" style="fill: #1663aa; fill-opacity: 0.9"/>
    <path clip-path="url(#pb99b2bc476)" style="fill: #115ca5; fill-opacity: 0.9"/>
    <path clip-path="url(#pb99b2bc476)" style="fill: #0c56a0; fill-opacity: 0.9"/>
    <path clip-path="url(#pb99b2bc476)" style="fill: #084f99; fill-opacity: 0.9"/>
    <path clip-path="url(#pb99b2bc476)" style="fill: #08488e; fill-opacity: 0.9"/>
    <path clip-path="url(#pb99b2bc476)" style="fill: #084184; fill-opacity: 0.9"/>
    <path clip-path="url(#pb99b2bc476)" style="fill: #083a7a; fill-opacity: 0.9"/>
    <path clip-path="url(#pb99b2bc476)" style="fill: #083370; fill-opacity: 0.9"/>
    <path clip-path="url(#pb99b2bc476)" style="fill: #08306b; fill-opacity: 0.9"/>
   </g>
   <g id="QuadContourSet_2">
    <path d="M 51.227945 821.133661 
L 49.371429 819.306496 
L 48.89724 818.690371 
M 45.914037 804.478753 
L 42.788571 801.347308 
L 39.497143 801.861366 
L 36.744928 804.645033 
L 36.205714 805.823287 
L 34.65269 804.645033 
L 32.914286 802.889092 
L 30.640468 801.347308 
L 29.622857 800.315308 
L 26.331429 799.575957 
L 26.187699 798.049582 
L 25.827014 794.751857 
L 23.04 791.955628 
L 22.475546 791.454131 
L 19.748571 788.717821 
L 19.106058 788.156406 
L 16.744354 784.85868 
L 19.748571 784.348343 
L 22.540248 781.560955 
L 23.04 778.263229 
L 19.748571 774.965503 
L 19.748571 774.965503 
L 16.457143 771.667778 
L 13.165714 772.1415 
L 10.367086 774.965503 
L 9.874286 776.021922 
L 8.484131 774.965503 
L 6.582857 773.050222 
L 4.553077 771.667778 
L 3.291429 770.393511 
L 0 768.567223 
M 46.08 815.663697 
L 45.166563 814.53821 
L 46.08 813.981126 
L 46.635947 814.53821 
L 46.08 815.663697 
M 42.788571 812.148065 
L 41.824789 811.240484 
L 42.788571 810.688614 
L 43.339284 811.240484 
L 42.788571 812.148065 
z
M 39.497143 808.900439 
L 38.310426 807.942759 
L 39.497143 807.396093 
L 40.04263 807.942759 
L 39.497143 808.900439 
z
M 16.457143 784.56764 
L 15.17097 781.560955 
L 16.457143 781.056247 
L 16.96118 781.560955 
L 16.457143 784.56764 
M 13.165714 779.542002 
L 12.102164 778.263229 
L 13.165714 777.764114 
L 13.664115 778.263229 
L 13.165714 779.542002 
z
" clip-path="url(#pb99b2bc476)" style="fill: none"/>
    <path d="M 49.713224 821.133661 
L 49.371429 820.797269 
L 47.092296 817.835936 
L 49.371429 816.703593 
L 51.547394 814.53821 
L 51.976954 811.240484 
L 49.371429 808.629975 
L 48.685416 807.942759 
L 46.08 805.332358 
L 45.393832 804.645033 
L 42.788571 802.034788 
L 39.497143 802.441853 
L 37.318856 804.645033 
L 36.205714 807.077395 
L 32.999684 804.645033 
L 32.914286 804.558774 
L 31.789126 804.645033 
L 29.622857 805.318516 
L 29.129924 804.645033 
L 26.331429 803.216067 
L 25.809824 801.347308 
L 25.5499 798.049582 
L 25.4271 796.647843 
M 13.89853 781.88665 
L 13.733151 781.560955 
L 16.457143 780.492032 
L 17.524646 781.560955 
L 19.748571 783.784878 
L 21.975916 781.560955 
L 22.374644 778.263229 
L 19.748571 775.632132 
L 19.083673 774.965503 
L 16.457143 772.333948 
L 13.165714 772.711651 
L 10.932114 774.965503 
L 9.874286 777.233174 
L 6.890229 774.965503 
L 6.582857 774.655868 
L 3.635074 774.965503 
L 3.291429 775.133298 
L 3.273498 774.965503 
L 2.197917 771.667778 
L 0 770.170156 
M 46.08 816.817735 
L 44.229955 814.53821 
L 46.08 813.409911 
L 47.205996 814.53821 
L 46.08 816.817735 
M 42.788571 813.08946 
L 40.825097 811.240484 
L 42.788571 810.116183 
L 43.910515 811.240484 
L 42.788571 813.08946 
M 39.497143 809.905456 
L 37.065052 807.942759 
L 39.497143 806.822406 
L 40.61508 807.942759 
L 39.497143 809.905456 
z
M 13.165714 780.989642 
L 10.898169 778.263229 
L 13.165714 777.19909 
L 14.228332 778.263229 
L 13.165714 780.989642 
" clip-path="url(#pb99b2bc476)" style="fill: none"/>
    <path d="M 48.482508 821.133661 
L 46.08 818.011529 
L 45.833581 817.835936 
L 43.293347 814.53821 
L 42.788571 814.030855 
L 39.825406 811.240484 
L 39.497143 810.910472 
L 36.205714 810.039026 
L 32.914286 811.061735 
L 32.342143 811.240484 
L 29.622857 812.090744 
L 29.485069 811.240484 
L 29.222733 809.673735 
M 22.531577 792.639682 
L 21.197195 791.454131 
L 19.748571 790.000549 
L 17.638035 788.156406 
L 16.457143 786.650131 
L 14.258649 784.85868 
L 13.165714 782.843445 
L 10.949073 781.560955 
L 9.874286 779.376547 
L 6.582857 780.979478 
L 5.400489 781.560955 
L 3.291429 781.759156 
L 3.149136 781.560955 
L 2.771196 778.263229 
L 2.475923 774.965503 
L 0 771.736124 
M 50.025569 809.972582 
L 49.371429 809.31719 
L 47.999404 807.942759 
L 46.08 806.019683 
L 44.707664 804.645033 
L 42.788571 802.722269 
L 39.497143 803.02234 
L 37.892784 804.645033 
L 39.497143 806.248719 
L 40.983284 807.738072 
M 19.748571 783.221413 
L 21.411584 781.560955 
L 21.709289 778.263229 
L 19.748571 776.298761 
L 18.418775 774.965503 
L 16.457143 773.000118 
L 13.165714 773.281801 
L 11.497142 774.965503 
L 13.165714 776.634066 
L 14.792549 778.263229 
L 16.457143 779.927817 
L 18.088111 781.560955 
L 19.748571 783.221413 
z
" clip-path="url(#pb99b2bc476)" style="fill: none"/>
    <path d="M 47.334553 821.133661 
L 46.08 819.503332 
L 43.740058 817.835936 
L 42.788571 816.198903 
L 39.497143 815.782277 
L 36.205714 816.805225 
L 32.914286 817.832624 
L 32.903722 817.835936 
L 29.622857 818.864874 
L 29.372557 817.835936 
L 28.78134 814.53821 
L 28.387358 811.240484 
L 27.80631 807.942759 
L 26.331429 806.369691 
L 24.918405 804.645033 
L 24.397178 801.347308 
L 24.274301 798.049582 
L 24.128974 794.751857 
L 23.04 793.659283 
L 20.558019 791.454131 
L 19.748571 790.641913 
L 16.904024 788.156406 
L 16.457143 787.586392 
L 15.533239 786.9227 
M 2.096661 781.17126 
L 1.875251 778.263229 
L 1.678348 774.965503 
L 0 772.776412 
M 48.192837 808.823748 
L 47.313391 807.942759 
L 46.08 806.707008 
L 44.021496 804.645033 
L 42.788571 803.40975 
L 39.497143 803.602826 
L 38.466712 804.645033 
L 39.497143 805.675032 
L 41.554527 807.736863 
M 19.748571 782.657948 
L 20.847253 781.560955 
L 21.043933 778.263229 
L 19.748571 776.965389 
L 17.753877 774.965503 
L 16.457143 773.666289 
L 13.165714 773.851952 
L 12.062169 774.965503 
L 13.165714 776.069042 
L 15.356766 778.263229 
L 16.457143 779.363603 
L 18.651577 781.560955 
L 19.748571 782.657948 
z
" clip-path="url(#pb99b2bc476)" style="fill: none"/>
    <path d="M 28.158953 821.133661 
L 27.724527 817.835936 
L 27.654272 816.947482 
M 23.649907 798.862883 
L 23.636502 798.049582 
L 23.56296 794.751857 
L 23.04 794.227168 
L 19.918843 791.454131 
L 19.748571 791.283277 
L 16.457143 791.068129 
L 15.664177 791.454131 
L 13.165714 792.672409 
L 9.874286 794.286496 
L 8.931299 794.751857 
L 6.582857 795.202605 
L 6.142806 794.751857 
L 5.369624 791.454131 
L 4.934296 788.156406 
L 3.640514 784.85868 
L 3.291429 784.608513 
L 1.103526 781.560955 
L 0.979306 778.263229 
L 0.880772 774.965503 
L 0 773.8167 
M 46.186597 821.133661 
L 46.08 820.995135 
L 44.053103 821.133661 
M 49.371429 814.993485 
L 49.828928 814.53821 
L 49.919244 811.240484 
L 49.371429 810.691621 
L 46.627379 807.942759 
L 46.08 807.394333 
L 43.335328 804.645033 
L 42.788571 804.09723 
L 39.497143 804.183313 
L 39.040639 804.645033 
L 39.497143 805.101345 
L 42.332428 807.942759 
L 42.788571 808.398888 
L 45.624207 811.240484 
L 46.08 811.696265 
L 48.916143 814.53821 
L 49.371429 814.993485 
z
M 19.748571 782.094483 
L 20.282921 781.560955 
L 20.378577 778.263229 
L 19.748571 777.632018 
L 17.088979 774.965503 
L 16.457143 774.332459 
L 13.165714 774.422103 
L 12.627197 774.965503 
L 13.165714 775.504017 
L 15.920982 778.263229 
L 16.457143 778.799388 
L 19.215042 781.560955 
L 19.748571 782.094483 
z
" clip-path="url(#pb99b2bc476)" style="fill: none"/>
    <path d="M 1.325988 785.979171 
L 0.248555 784.85868 
L 0.080722 781.560955 
L 0.083361 778.263229 
L 0.083197 774.965503 
L 0 774.856988 
" clip-path="url(#pb99b2bc476)" style="fill: none"/>
    <path clip-path="url(#pb99b2bc476)" style="fill: none"/>
    <path clip-path="url(#pb99b2bc476)" style="fill: none"/>
    <path clip-path="url(#pb99b2bc476)" style="fill: none"/>
    <path clip-path="url(#pb99b2bc476)" style="fill: none"/>
    <path clip-path="url(#pb99b2bc476)" style="fill: none"/>
    <path clip-path="url(#pb99b2bc476)" style="fill: none"/>
    <path clip-path="url(#pb99b2bc476)" style="fill: none"/>
    <path clip-path="url(#pb99b2bc476)" style="fill: none"/>
    <path clip-path="url(#pb99b2bc476)" style="fill: none"/>
    <path clip-path="url(#pb99b2bc476)" style="fill: none"/>
    <path clip-path="url(#pb99b2bc476)" style="fill: none"/>
    <path clip-path="url(#pb99b2bc476)" style="fill: none"/>
    <path clip-path="url(#pb99b2bc476)" style="fill: none"/>
    <path clip-path="url(#pb99b2bc476)" style="fill: none"/>
    <path clip-path="url(#pb99b2bc476)" style="fill: none"/>
    <path clip-path="url(#pb99b2bc476)" style="fill: none"/>
    <path clip-path="url(#pb99b2bc476)" style="fill: none"/>
    <path clip-path="url(#pb99b2bc476)" style="fill: none"/>
    <path clip-path="url(#pb99b2bc476)" style="fill: none"/>
    <path clip-path="url(#pb99b2bc476)" style="fill: none"/>
    <path clip-path="url(#pb99b2bc476)" style="fill: none"/>
    <path clip-path="url(#pb99b2bc476)" style="fill: none"/>
    <path clip-path="url(#pb99b2bc476)" style="fill: none"/>
    <path clip-path="url(#pb99b2bc476)" style="fill: none"/>
    <path clip-path="url(#pb99b2bc476)" style="fill: none"/>
    <path clip-path="url(#pb99b2bc476)" style="fill: none"/>
    <path clip-path="url(#pb99b2bc476)" style="fill: none"/>
    <path clip-path="url(#pb99b2bc476)" style="fill: none"/>
    <path clip-path="url(#pb99b2bc476)" style="fill: none"/>
    <path clip-path="url(#pb99b2bc476)" style="fill: none"/>
    <path clip-path="url(#pb99b2bc476)" style="fill: none"/>
    <path clip-path="url(#pb99b2bc476)" style="fill: none"/>
    <path clip-path="url(#pb99b2bc476)" style="fill: none"/>
   </g>
   <g id="text_1">
    <g clip-path="url(#pb99b2bc476)">
     <!-- 0 -->
     <g style="opacity: 0" transform="translate(48.57632 808.267624) rotate(-283.027038) scale(0.12 -0.12)">
      <defs>
       <path id="DejaVuSans-30" d="M 2034 4250 
Q 1547 4250 1301 3770 
Q 1056 3291 1056 2328 
Q 1056 1369 1301 889 
Q 1547 409 2034 409 
Q 2525 409 2770 889 
Q 3016 1369 3016 2328 
Q 3016 3291 2770 3770 
Q 2525 4250 2034 4250 
z
M 2034 4750 
Q 2819 4750 3233 4129 
Q 3647 3509 3647 2328 
Q 3647 1150 3233 529 
Q 2819 -91 2034 -91 
Q 1250 -91 836 529 
Q 422 1150 422 2328 
Q 422 3509 836 4129 
Q 1250 4750 2034 4750 
z
" transform="scale(0.015625)"/>
      </defs>
      <use xlink:href="#DejaVuSans-30"/>
     </g>
    </g>
   </g>
   <g id="text_2">
    <g clip-path="url(#pb99b2bc476)">
     <!-- 1 -->
     <g style="opacity: 0" transform="translate(14.712799 788.936477) rotate(-314.263842) scale(0.12 -0.12)">
      <defs>
       <path id="DejaVuSans-31" d="M 794 531 
L 1825 531 
L 1825 4091 
L 703 3866 
L 703 4441 
L 1819 4666 
L 2450 4666 
L 2450 531 
L 3481 531 
L 3481 0 
L 794 0 
L 794 531 
z
" transform="scale(0.015625)"/>
      </defs>
      <use xlink:href="#DejaVuSans-31"/>
     </g>
    </g>
   </g>
   <g id="text_3">
    <g clip-path="url(#pb99b2bc476)">
     <!-- 2 -->
     <g style="opacity: 0" transform="translate(21.025628 798.362574) rotate(-282.860386) scale(0.12 -0.12)">
      <defs>
       <path id="DejaVuSans-32" d="M 1228 531 
L 3431 531 
L 3431 0 
L 469 0 
L 469 531 
Q 828 903 1448 1529 
Q 2069 2156 2228 2338 
Q 2531 2678 2651 2914 
Q 2772 3150 2772 3378 
Q 2772 3750 2511 3984 
Q 2250 4219 1831 4219 
Q 1534 4219 1204 4116 
Q 875 4013 500 3803 
L 500 4441 
Q 881 4594 1212 4672 
Q 1544 4750 1819 4750 
Q 2544 4750 2975 4387 
Q 3406 4025 3406 3419 
Q 3406 3131 3298 2873 
Q 3191 2616 2906 2266 
Q 2828 2175 2409 1742 
Q 1991 1309 1228 531 
z
" transform="scale(0.015625)"/>
      </defs>
      <use xlink:href="#DejaVuSans-32"/>
     </g>
    </g>
   </g>
   <g id="text_4">
    <g clip-path="url(#pb99b2bc476)">
     <!-- 2 -->
     <g style="opacity: 0" transform="translate(42.932807 815.980682) rotate(-335.64728) scale(0.12 -0.12)">
      <use xlink:href="#DejaVuSans-32"/>
     </g>
    </g>
   </g>
   <g id="text_5">
    <g clip-path="url(#pb99b2bc476)">
     <!-- 3 -->
     <g style="opacity: 0" transform="translate(2.708982 790.540996) rotate(-347.217856) scale(0.12 -0.12)">
      <defs>
       <path id="DejaVuSans-33" d="M 2597 2516 
Q 3050 2419 3304 2112 
Q 3559 1806 3559 1356 
Q 3559 666 3084 287 
Q 2609 -91 1734 -91 
Q 1441 -91 1130 -33 
Q 819 25 488 141 
L 488 750 
Q 750 597 1062 519 
Q 1375 441 1716 441 
Q 2309 441 2620 675 
Q 2931 909 2931 1356 
Q 2931 1769 2642 2001 
Q 2353 2234 1838 2234 
L 1294 2234 
L 1294 2753 
L 1863 2753 
Q 2328 2753 2575 2939 
Q 2822 3125 2822 3475 
Q 2822 3834 2567 4026 
Q 2313 4219 1838 4219 
Q 1578 4219 1281 4162 
Q 984 4106 628 3988 
L 628 4550 
Q 988 4650 1302 4700 
Q 1616 4750 1894 4750 
Q 2613 4750 3031 4423 
Q 3450 4097 3450 3541 
Q 3450 3153 3228 2886 
Q 3006 2619 2597 2516 
z
" transform="scale(0.015625)"/>
      </defs>
      <use xlink:href="#DejaVuSans-33"/>
     </g>
    </g>
   </g>
   <g id="text_6">
    <g clip-path="url(#pb99b2bc476)">
     <!-- 3 -->
     <g style="opacity: 0" transform="translate(43.83058 816.807089) rotate(-345.739885) scale(0.12 -0.12)">
      <use xlink:href="#DejaVuSans-33"/>
     </g>
    </g>
   </g>
   <g id="text_7">
    <g clip-path="url(#pb99b2bc476)">
     <!-- 4 -->
     <g style="opacity: 0" transform="translate(21.835802 805.263245) rotate(-291.88629) scale(0.12 -0.12)">
      <defs>
       <path id="DejaVuSans-34" d="M 2419 4116 
L 825 1625 
L 2419 1625 
L 2419 4116 
z
M 2253 4666 
L 3047 4666 
L 3047 1625 
L 3713 1625 
L 3713 1100 
L 3047 1100 
L 3047 0 
L 2419 0 
L 2419 1100 
L 313 1100 
L 313 1709 
L 2253 4666 
z
" transform="scale(0.015625)"/>
      </defs>
      <use xlink:href="#DejaVuSans-34"/>
     </g>
    </g>
   </g>
   <g id="text_8">
    <g clip-path="url(#pb99b2bc476)">
     <!-- 5 -->
     <g style="opacity: 0" transform="translate(5.064397 799.490646) rotate(-69.388694) scale(0.12 -0.12)">
      <defs>
       <path id="DejaVuSans-35" d="M 691 4666 
L 3169 4666 
L 3169 4134 
L 1269 4134 
L 1269 2991 
Q 1406 3038 1543 3061 
Q 1681 3084 1819 3084 
Q 2600 3084 3056 2656 
Q 3513 2228 3513 1497 
Q 3513 744 3044 326 
Q 2575 -91 1722 -91 
Q 1428 -91 1123 -41 
Q 819 9 494 109 
L 494 744 
Q 775 591 1075 516 
Q 1375 441 1709 441 
Q 2250 441 2565 725 
Q 2881 1009 2881 1497 
Q 2881 1984 2565 2268 
Q 2250 2553 1709 2553 
Q 1456 2553 1204 2497 
Q 953 2441 691 2322 
L 691 4666 
z
" transform="scale(0.015625)"/>
      </defs>
      <use xlink:href="#DejaVuSans-35"/>
     </g>
    </g>
   </g>
  </g>
 </g>
 <defs>
  <clipPath id="pb99b2bc476">
   <rect x="0" y="0" width="576" height="821.133661"/>
  </clipPath>
 </defs>
</svg>
