<?xml version="1.0" encoding="utf-8" standalone="no"?>
<!DOCTYPE svg PUBLIC "-//W3C//DTD SVG 1.1//EN"
  "http://www.w3.org/Graphics/SVG/1.1/DTD/svg11.dtd">
<svg xmlns:xlink="http://www.w3.org/1999/xlink" width="576pt" height="815.227542pt" viewBox="0 0 576 815.227542" xmlns="http://www.w3.org/2000/svg" version="1.1">
 <metadata>
  <rdf:RDF xmlns:dc="http://purl.org/dc/elements/1.1/" xmlns:cc="http://creativecommons.org/ns#" xmlns:rdf="http://www.w3.org/1999/02/22-rdf-syntax-ns#">
   <cc:Work>
    <dc:type rdf:resource="http://purl.org/dc/dcmitype/StillImage"/>
    <dc:date>2025-07-25T22:44:57.345942</dc:date>
    <dc:format>image/svg+xml</dc:format>
    <dc:creator>
     <cc:Agent>
      <dc:title>Matplotlib v3.10.3, https://matplotlib.org/</dc:title>
     </cc:Agent>
    </dc:creator>
   </cc:Work>
  </rdf:RDF>
 </metadata>
 <defs>
  <style type="text/css">*{stroke-linejoin: round; stroke-linecap: butt}</style>
 </defs>
 <g id="figure_1">
  <g id="patch_1">
   <path d="M 0 815.227542 
L 576 815.227542 
L 576 0 
L 0 0 
L 0 815.227542 
z
" style="fill: none; opacity: 0"/>
  </g>
  <g id="axes_1">
   <g id="QuadContourSet_1">
    <path d="M 572.727273 13.206922 
L 576 15.319444 
L 576 14.259292 
L 574.232631 13.096025 
L 572.727273 11.993748 
L 569.454545 9.955492 
L 569.311028 9.822019 
L 566.181818 7.164082 
L 565.41704 6.548012 
L 562.909091 4.223743 
L 561.685577 3.274006 
L 559.636364 1.401599 
L 557.733402 -0 
L 556.363636 -0 
L 555.757901 -0 
L 556.363636 0.391236 
L 559.636364 2.757139 
L 560.202037 3.274006 
L 562.909091 5.375321 
L 564.174457 6.548012 
L 566.181818 8.165048 
L 568.132582 9.822019 
L 569.454545 11.051467 
L 572.616419 13.096025 
z
M 549.818182 1.590753 
L 551.812005 -0 
L 550.676188 0 
L 549.818182 0.684552 
L 549.133898 -0 
L 548.22805 -0 
z
" clip-path="url(#p10cc2300d9)" style="fill: #f5f9fe; fill-opacity: 0.9"/>
    <path d="M 576 14.259292 
L 576 13.19914 
L 575.843336 13.096025 
L 572.727273 10.814334 
L 571.125978 9.822019 
L 569.454545 8.654949 
L 566.820629 6.548012 
L 566.181818 5.996526 
L 563.185728 3.274006 
L 562.909091 3.033506 
L 559.636364 0.046059 
L 559.573829 -0 
L 557.733402 -0 
L 559.636364 1.401599 
L 561.685577 3.274006 
L 562.909091 4.223743 
L 565.41704 6.548012 
L 566.181818 7.164082 
L 569.311028 9.822019 
L 569.454545 9.955492 
L 572.727273 11.993748 
L 574.232631 13.096025 
z
M 549.818182 0.684552 
L 550.676188 0 
L 549.818182 -0 
L 549.133898 -0 
z
" clip-path="url(#p10cc2300d9)" style="fill: #eff6fc; fill-opacity: 0.9"/>
    <path d="M 576 13.19914 
L 576 13.096025 
L 576 11.810305 
L 573.061222 9.822019 
L 572.727273 9.533664 
L 569.454545 7.326037 
L 568.481924 6.548012 
L 566.181818 4.562328 
L 564.76404 3.274006 
L 562.909091 1.661366 
L 561.088733 -0 
L 559.636364 -0 
L 559.573829 -0 
L 559.636364 0.046059 
L 562.909091 3.033506 
L 563.185728 3.274006 
L 566.181818 5.996526 
L 566.820629 6.548012 
L 569.454545 8.654949 
L 571.125978 9.822019 
L 572.727273 10.814334 
L 575.843336 13.096025 
z
" clip-path="url(#p10cc2300d9)" style="fill: #eaf3fb; fill-opacity: 0.9"/>
    <path d="M 576 11.810305 
L 576 10.386056 
L 575.166327 9.822019 
L 572.727273 7.715969 
L 570.737954 6.548012 
L 569.454545 5.599747 
L 566.479449 3.274006 
L 566.181818 3.090575 
L 562.909091 0.289226 
L 562.592186 -0 
L 561.088733 -0 
L 562.909091 1.661366 
L 564.76404 3.274006 
L 566.181818 4.562328 
L 568.481924 6.548012 
L 569.454545 7.326037 
L 572.727273 9.533664 
L 573.061222 9.822019 
z
" clip-path="url(#p10cc2300d9)" style="fill: #e5eff9; fill-opacity: 0.9"/>
    <path d="M 576 10.386056 
L 576 9.822019 
L 576 7.262918 
L 574.950558 6.548012 
L 572.727273 4.962811 
L 569.454545 3.312237 
L 569.405641 3.274006 
L 566.181818 1.287143 
L 564.627654 -0 
L 562.909091 -0 
L 562.592186 -0 
L 562.909091 0.289226 
L 566.181818 3.090575 
L 566.479449 3.274006 
L 569.454545 5.599747 
L 570.737954 6.548012 
L 572.727273 7.715969 
L 575.166327 9.822019 
z
" clip-path="url(#p10cc2300d9)" style="fill: #dfecf7; fill-opacity: 0.9"/>
    <path d="M 576 7.262918 
L 576 6.548012 
L 576 5.036142 
L 574.003309 3.274006 
L 572.727273 2.202716 
L 569.653884 -0 
L 569.454545 -0 
L 566.181818 -0 
L 564.627654 -0 
L 566.181818 1.287143 
L 569.405641 3.274006 
L 569.454545 3.312237 
L 572.727273 4.962811 
L 574.950558 6.548012 
z
" clip-path="url(#p10cc2300d9)" style="fill: #dae8f6; fill-opacity: 0.9"/>
    <path d="M 576 5.036142 
L 576 3.274006 
L 576 3.227858 
L 572.727273 0.472559 
L 572.067925 -0 
L 569.653884 -0 
L 572.727273 2.202716 
L 574.003309 3.274006 
z
" clip-path="url(#p10cc2300d9)" style="fill: #d6e5f4; fill-opacity: 0.9"/>
    <path d="M 572.727273 0.472559 
L 576 3.227858 
L 576 1.745018 
L 573.976878 0 
L 572.727273 -0 
L 572.067925 -0 
z
" clip-path="url(#p10cc2300d9)" style="fill: #d0e2f2; fill-opacity: 0.9"/>
    <path d="M 576 1.745018 
L 576 0.262179 
L 575.696038 -0 
L 573.976878 0 
z
" clip-path="url(#p10cc2300d9)" style="fill: #cbdef1; fill-opacity: 0.9"/>
    <path d="M 576 0.262179 
L 576 -0 
L 575.696038 -0 
z
" clip-path="url(#p10cc2300d9)" style="fill: #c6dbef; fill-opacity: 0.9"/>
    <path clip-path="url(#p10cc2300d9)" style="fill: #bed8ec; fill-opacity: 0.9"/>
    <path clip-path="url(#p10cc2300d9)" style="fill: #b5d4e9; fill-opacity: 0.9"/>
    <path clip-path="url(#p10cc2300d9)" style="fill: #add0e6; fill-opacity: 0.9"/>
    <path clip-path="url(#p10cc2300d9)" style="fill: #a5cde3; fill-opacity: 0.9"/>
    <path clip-path="url(#p10cc2300d9)" style="fill: #9cc9e1; fill-opacity: 0.9"/>
    <path clip-path="url(#p10cc2300d9)" style="fill: #91c3de; fill-opacity: 0.9"/>
    <path clip-path="url(#p10cc2300d9)" style="fill: #85bcdc; fill-opacity: 0.9"/>
    <path clip-path="url(#p10cc2300d9)" style="fill: #7cb7da; fill-opacity: 0.9"/>
    <path clip-path="url(#p10cc2300d9)" style="fill: #71b1d7; fill-opacity: 0.9"/>
    <path clip-path="url(#p10cc2300d9)" style="fill: #66abd4; fill-opacity: 0.9"/>
    <path clip-path="url(#p10cc2300d9)" style="fill: #5da5d1; fill-opacity: 0.9"/>
    <path clip-path="url(#p10cc2300d9)" style="fill: #56a0ce; fill-opacity: 0.9"/>
    <path clip-path="url(#p10cc2300d9)" style="fill: #4d99ca; fill-opacity: 0.9"/>
    <path clip-path="url(#p10cc2300d9)" style="fill: #4493c7; fill-opacity: 0.9"/>
    <path clip-path="url(#p10cc2300d9)" style="fill: #3c8cc3; fill-opacity: 0.9"/>
    <path clip-path="url(#p10cc2300d9)" style="fill: #3686c0; fill-opacity: 0.9"/>
    <path clip-path="url(#p10cc2300d9)" style="fill: #2f7fbc; fill-opacity: 0.9"/>
    <path clip-path="url(#p10cc2300d9)" style="fill: #2777b8; fill-opacity: 0.9"/>
    <path clip-path="url(#p10cc2300d9)" style="fill: #2070b4; fill-opacity: 0.9"/>
    <path clip-path="url(#p10cc2300d9)" style="fill: #1c6ab0; fill-opacity: 0.9"/>
    <path clip-path="url(#p10cc2300d9)" style="fill: #1663aa; fill-opacity: 0.9"/>
    <path clip-path="url(#p10cc2300d9)" style="fill: #115ca5; fill-opacity: 0.9"/>
    <path clip-path="url(#p10cc2300d9)" style="fill: #0c56a0; fill-opacity: 0.9"/>
    <path clip-path="url(#p10cc2300d9)" style="fill: #084f99; fill-opacity: 0.9"/>
    <path clip-path="url(#p10cc2300d9)" style="fill: #08488e; fill-opacity: 0.9"/>
    <path clip-path="url(#p10cc2300d9)" style="fill: #084184; fill-opacity: 0.9"/>
    <path clip-path="url(#p10cc2300d9)" style="fill: #083a7a; fill-opacity: 0.9"/>
    <path clip-path="url(#p10cc2300d9)" style="fill: #083370; fill-opacity: 0.9"/>
    <path clip-path="url(#p10cc2300d9)" style="fill: #08306b; fill-opacity: 0.9"/>
   </g>
   <g id="QuadContourSet_2">
    <path d="M 548.22805 -0 
L 549.818182 1.590753 
L 551.812005 -0 
M 555.757901 -0 
L 556.363636 0.391236 
L 556.696261 0.631695 
M 571.641127 12.465373 
L 572.616419 13.096025 
L 572.727273 13.206922 
L 576 15.319444 
" clip-path="url(#p10cc2300d9)" style="fill: none"/>
    <path d="M 549.133898 -0 
L 549.818182 0.684552 
L 550.676188 0 
M 557.733402 -0 
L 558.926937 0.879081 
M 573.893365 12.847602 
L 574.232631 13.096025 
L 576 14.259292 
" clip-path="url(#p10cc2300d9)" style="fill: none"/>
    <path d="M 559.573829 -0 
L 559.636364 0.046059 
L 559.696545 0.100994 
M 574.588328 12.177064 
L 575.843336 13.096025 
L 576 13.19914 
" clip-path="url(#p10cc2300d9)" style="fill: none"/>
    <path d="M 561.088733 -0 
L 561.287406 0.181321 
" clip-path="url(#p10cc2300d9)" style="fill: none"/>
    <path clip-path="url(#p10cc2300d9)" style="fill: none"/>
    <path d="M 564.627654 -0 
L 566.181818 1.287143 
L 569.405641 3.274006 
L 569.454545 3.312237 
L 572.727273 4.962811 
L 574.950558 6.548012 
L 576 7.262918 
" clip-path="url(#p10cc2300d9)" style="fill: none"/>
    <path d="M 569.653884 -0 
L 572.727273 2.202716 
L 574.003309 3.274006 
L 576 5.036142 
" clip-path="url(#p10cc2300d9)" style="fill: none"/>
    <path d="M 572.067925 -0 
L 572.727273 0.472559 
L 576 3.227858 
" clip-path="url(#p10cc2300d9)" style="fill: none"/>
    <path d="M 573.976878 0 
L 576 1.745018 
" clip-path="url(#p10cc2300d9)" style="fill: none"/>
    <path d="M 575.696038 -0 
L 576 0.262179 
" clip-path="url(#p10cc2300d9)" style="fill: none"/>
    <path clip-path="url(#p10cc2300d9)" style="fill: none"/>
    <path clip-path="url(#p10cc2300d9)" style="fill: none"/>
    <path clip-path="url(#p10cc2300d9)" style="fill: none"/>
    <path clip-path="url(#p10cc2300d9)" style="fill: none"/>
    <path clip-path="url(#p10cc2300d9)" style="fill: none"/>
    <path clip-path="url(#p10cc2300d9)" style="fill: none"/>
    <path clip-path="url(#p10cc2300d9)" style="fill: none"/>
    <path clip-path="url(#p10cc2300d9)" style="fill: none"/>
    <path clip-path="url(#p10cc2300d9)" style="fill: none"/>
    <path clip-path="url(#p10cc2300d9)" style="fill: none"/>
    <path clip-path="url(#p10cc2300d9)" style="fill: none"/>
    <path clip-path="url(#p10cc2300d9)" style="fill: none"/>
    <path clip-path="url(#p10cc2300d9)" style="fill: none"/>
    <path clip-path="url(#p10cc2300d9)" style="fill: none"/>
    <path clip-path="url(#p10cc2300d9)" style="fill: none"/>
    <path clip-path="url(#p10cc2300d9)" style="fill: none"/>
    <path clip-path="url(#p10cc2300d9)" style="fill: none"/>
    <path clip-path="url(#p10cc2300d9)" style="fill: none"/>
    <path clip-path="url(#p10cc2300d9)" style="fill: none"/>
    <path clip-path="url(#p10cc2300d9)" style="fill: none"/>
    <path clip-path="url(#p10cc2300d9)" style="fill: none"/>
    <path clip-path="url(#p10cc2300d9)" style="fill: none"/>
    <path clip-path="url(#p10cc2300d9)" style="fill: none"/>
    <path clip-path="url(#p10cc2300d9)" style="fill: none"/>
    <path clip-path="url(#p10cc2300d9)" style="fill: none"/>
    <path clip-path="url(#p10cc2300d9)" style="fill: none"/>
    <path clip-path="url(#p10cc2300d9)" style="fill: none"/>
    <path clip-path="url(#p10cc2300d9)" style="fill: none"/>
    <path clip-path="url(#p10cc2300d9)" style="fill: none"/>
   </g>
   <g id="text_1">
    <g clip-path="url(#p10cc2300d9)">
     <!-- 0 -->
     <g style="opacity: 0" transform="translate(559.12282 6.684568) rotate(-320.610493) scale(0.12 -0.12)">
      <defs>
       <path id="DejaVuSans-30" d="M 2034 4250 
Q 1547 4250 1301 3770 
Q 1056 3291 1056 2328 
Q 1056 1369 1301 889 
Q 1547 409 2034 409 
Q 2525 409 2770 889 
Q 3016 1369 3016 2328 
Q 3016 3291 2770 3770 
Q 2525 4250 2034 4250 
z
M 2034 4750 
Q 2819 4750 3233 4129 
Q 3647 3509 3647 2328 
Q 3647 1150 3233 529 
Q 2819 -91 2034 -91 
Q 1250 -91 836 529 
Q 422 1150 422 2328 
Q 422 3509 836 4129 
Q 1250 4750 2034 4750 
z
" transform="scale(0.015625)"/>
      </defs>
      <use xlink:href="#DejaVuSans-30"/>
     </g>
    </g>
   </g>
   <g id="text_2">
    <g clip-path="url(#p10cc2300d9)">
     <!-- 1 -->
     <g style="opacity: 0" transform="translate(561.128719 7.226325) rotate(-319.767777) scale(0.12 -0.12)">
      <defs>
       <path id="DejaVuSans-31" d="M 794 531 
L 1825 531 
L 1825 4091 
L 703 3866 
L 703 4441 
L 1819 4666 
L 2450 4666 
L 2450 531 
L 3481 531 
L 3481 0 
L 794 0 
L 794 531 
z
" transform="scale(0.015625)"/>
      </defs>
      <use xlink:href="#DejaVuSans-31"/>
     </g>
    </g>
   </g>
   <g id="text_3">
    <g clip-path="url(#p10cc2300d9)">
     <!-- 2 -->
     <g style="opacity: 0" transform="translate(561.768623 6.670181) rotate(-320.447326) scale(0.12 -0.12)">
      <defs>
       <path id="DejaVuSans-32" d="M 1228 531 
L 3431 531 
L 3431 0 
L 469 0 
L 469 531 
Q 828 903 1448 1529 
Q 2069 2156 2228 2338 
Q 2531 2678 2651 2914 
Q 2772 3150 2772 3378 
Q 2772 3750 2511 3984 
Q 2250 4219 1831 4219 
Q 1534 4219 1204 4116 
Q 875 4013 500 3803 
L 500 4441 
Q 881 4594 1212 4672 
Q 1544 4750 1819 4750 
Q 2544 4750 2975 4387 
Q 3406 4025 3406 3419 
Q 3406 3131 3298 2873 
Q 3191 2616 2906 2266 
Q 2828 2175 2409 1742 
Q 1991 1309 1228 531 
z
" transform="scale(0.015625)"/>
      </defs>
      <use xlink:href="#DejaVuSans-32"/>
     </g>
    </g>
   </g>
   <g id="text_4">
    <g clip-path="url(#p10cc2300d9)">
     <!-- 3 -->
     <g style="opacity: 0" transform="translate(563.434675 6.79894) rotate(-321.908218) scale(0.12 -0.12)">
      <defs>
       <path id="DejaVuSans-33" d="M 2597 2516 
Q 3050 2419 3304 2112 
Q 3559 1806 3559 1356 
Q 3559 666 3084 287 
Q 2609 -91 1734 -91 
Q 1441 -91 1130 -33 
Q 819 25 488 141 
L 488 750 
Q 750 597 1062 519 
Q 1375 441 1716 441 
Q 2309 441 2620 675 
Q 2931 909 2931 1356 
Q 2931 1769 2642 2001 
Q 2353 2234 1838 2234 
L 1294 2234 
L 1294 2753 
L 1863 2753 
Q 2328 2753 2575 2939 
Q 2822 3125 2822 3475 
Q 2822 3834 2567 4026 
Q 2313 4219 1838 4219 
Q 1578 4219 1281 4162 
Q 984 4106 628 3988 
L 628 4550 
Q 988 4650 1302 4700 
Q 1616 4750 1894 4750 
Q 2613 4750 3031 4423 
Q 3450 4097 3450 3541 
Q 3450 3153 3228 2886 
Q 3006 2619 2597 2516 
z
" transform="scale(0.015625)"/>
      </defs>
      <use xlink:href="#DejaVuSans-33"/>
     </g>
    </g>
   </g>
   <g id="text_5">
    <g clip-path="url(#p10cc2300d9)">
     <!-- 4 -->
     <g style="opacity: 0" transform="translate(564.419467 6.030636) rotate(-323.953363) scale(0.12 -0.12)">
      <defs>
       <path id="DejaVuSans-34" d="M 2419 4116 
L 825 1625 
L 2419 1625 
L 2419 4116 
z
M 2253 4666 
L 3047 4666 
L 3047 1625 
L 3713 1625 
L 3713 1100 
L 3047 1100 
L 3047 0 
L 2419 0 
L 2419 1100 
L 313 1100 
L 313 1709 
L 2253 4666 
z
" transform="scale(0.015625)"/>
      </defs>
      <use xlink:href="#DejaVuSans-34"/>
     </g>
    </g>
   </g>
  </g>
 </g>
 <defs>
  <clipPath id="p10cc2300d9">
   <rect x="0" y="0" width="576" height="815.227542"/>
  </clipPath>
 </defs>
</svg>
