<?xml version="1.0" encoding="utf-8" standalone="no"?>
<!DOCTYPE svg PUBLIC "-//W3C//DTD SVG 1.1//EN"
  "http://www.w3.org/Graphics/SVG/1.1/DTD/svg11.dtd">
<svg xmlns:xlink="http://www.w3.org/1999/xlink" width="576pt" height="816.51314pt" viewBox="0 0 576 816.51314" xmlns="http://www.w3.org/2000/svg" version="1.1">
 <metadata>
  <rdf:RDF xmlns:dc="http://purl.org/dc/elements/1.1/" xmlns:cc="http://creativecommons.org/ns#" xmlns:rdf="http://www.w3.org/1999/02/22-rdf-syntax-ns#">
   <cc:Work>
    <dc:type rdf:resource="http://purl.org/dc/dcmitype/StillImage"/>
    <dc:date>2025-07-25T22:44:36.175710</dc:date>
    <dc:format>image/svg+xml</dc:format>
    <dc:creator>
     <cc:Agent>
      <dc:title>Matplotlib v3.10.3, https://matplotlib.org/</dc:title>
     </cc:Agent>
    </dc:creator>
   </cc:Work>
  </rdf:RDF>
 </metadata>
 <defs>
  <style type="text/css">*{stroke-linejoin: round; stroke-linecap: butt}</style>
 </defs>
 <g id="figure_1">
  <g id="patch_1">
   <path d="M 0 816.51314 
L 576 816.51314 
L 576 0 
L 0 0 
L 0 816.51314 
z
" style="fill: none; opacity: 0"/>
  </g>
  <g id="axes_1">
   <g id="QuadContourSet_1">
    <path d="M 85.090909 814.318894 
L 88.101678 816.51314 
L 88.363636 816.51314 
L 89.248012 816.51314 
L 88.363636 815.619176 
L 85.090909 813.307375 
L 85.001031 813.233971 
L 81.818182 810.864756 
L 80.725951 809.954802 
L 78.545455 808.304358 
L 76.626055 806.675633 
L 75.272727 805.47753 
L 72.578648 803.396463 
L 72 802.811346 
L 68.727273 800.515373 
L 68.201161 800.117294 
L 65.454545 798.08026 
L 63.823384 796.838125 
L 62.181818 795.612352 
L 59.501757 793.558956 
L 58.909091 792.982614 
L 55.636364 790.718793 
L 55.206476 790.279786 
L 52.363636 788.154124 
L 51.228361 787.000617 
L 49.090909 785.073631 
L 47.533479 783.721448 
L 45.818182 782.294027 
L 43.551373 780.442279 
L 42.545455 779.433333 
L 39.615119 777.16311 
L 39.272727 776.816773 
L 36 774.471412 
L 35.093251 773.88394 
L 32.727273 772.22694 
L 30.124219 770.604771 
L 29.454545 770.152623 
L 26.850145 767.325602 
L 26.181818 766.732386 
L 23.669997 764.046433 
L 22.909091 763.28372 
L 20.394036 760.767263 
L 19.636364 760.007792 
L 17.118063 757.488094 
L 16.363636 756.731876 
L 13.842078 754.208925 
L 13.090909 753.455971 
L 10.318388 750.929756 
L 9.818182 750.428341 
L 6.614916 747.650586 
L 6.545455 747.580552 
L 3.563193 744.371417 
L 3.272727 744.077547 
L 0.657541 741.092248 
L -0 740.427736 
L -0 741.092248 
L -0 741.481739 
L 2.599872 744.371417 
L 3.272727 745.027957 
L 5.77056 747.650586 
L 6.545455 748.477873 
L 9.273547 750.929756 
L 9.818182 751.542054 
L 12.760813 754.208925 
L 13.090909 754.583886 
L 15.994843 757.488094 
L 16.363636 757.80615 
L 19.323706 760.767263 
L 19.636364 761.042186 
L 22.638965 764.046433 
L 22.909091 764.301092 
L 25.757437 767.325602 
L 26.181818 767.733516 
L 28.898441 770.604771 
L 29.454545 771.143736 
L 32.727273 773.468682 
L 33.320208 773.88394 
L 36 775.620147 
L 38.134299 777.16311 
L 39.272727 777.986201 
L 42.545455 780.368835 
L 42.618678 780.442279 
L 45.818182 783.055941 
L 46.617905 783.721448 
L 49.090909 785.868546 
L 50.346626 787.000617 
L 52.363636 789.050019 
L 54.008315 790.279786 
L 55.636364 791.94237 
L 58.027614 793.558956 
L 58.909091 794.468046 
L 62.181818 796.497555 
L 62.637912 796.838125 
L 65.454545 798.983001 
L 66.983959 800.117294 
L 68.727273 801.436361 
L 71.389042 803.396463 
L 72 803.855649 
L 75.272727 806.351398 
L 75.638969 806.675633 
L 78.545455 809.141959 
L 79.619348 809.954802 
L 81.818182 811.786684 
L 83.762496 813.233971 
z
" clip-path="url(#p259a3ffa64)" style="fill: #f5f9fe; fill-opacity: 0.9"/>
    <path d="M 85.090909 815.330414 
L 86.713752 816.51314 
L 88.101678 816.51314 
L 85.090909 814.318894 
L 83.762496 813.233971 
L 81.818182 811.786684 
L 79.619348 809.954802 
L 78.545455 809.141959 
L 75.638969 806.675633 
L 75.272727 806.351398 
L 72 803.855649 
L 71.389042 803.396463 
L 68.727273 801.436361 
L 66.983959 800.117294 
L 65.454545 798.983001 
L 62.637912 796.838125 
L 62.181818 796.497555 
L 58.909091 794.468046 
L 58.027614 793.558956 
L 55.636364 791.94237 
L 54.008315 790.279786 
L 52.363636 789.050019 
L 50.346626 787.000617 
L 49.090909 785.868546 
L 46.617905 783.721448 
L 45.818182 783.055941 
L 42.618678 780.442279 
L 42.545455 780.368835 
L 39.272727 777.986201 
L 38.134299 777.16311 
L 36 775.620147 
L 33.320208 773.88394 
L 32.727273 773.468682 
L 29.454545 771.143736 
L 28.898441 770.604771 
L 26.181818 767.733516 
L 25.757437 767.325602 
L 22.909091 764.301092 
L 22.638965 764.046433 
L 19.636364 761.042186 
L 19.323706 760.767263 
L 16.363636 757.80615 
L 15.994843 757.488094 
L 13.090909 754.583886 
L 12.760813 754.208925 
L 9.818182 751.542054 
L 9.273547 750.929756 
L 6.545455 748.477873 
L 5.77056 747.650586 
L 3.272727 745.027957 
L 2.599872 744.371417 
L -0 741.481739 
L -0 742.460179 
L 1.719559 744.371417 
L 3.272727 745.886923 
L 4.952467 747.650586 
L 6.545455 749.351278 
L 8.301751 750.929756 
L 9.818182 752.634584 
L 11.555313 754.208925 
L 13.090909 755.953228 
L 14.62563 757.488094 
L 16.363636 758.98699 
L 18.143282 760.767263 
L 19.636364 762.080141 
L 21.601578 764.046433 
L 22.909091 765.27908 
L 24.836412 767.325602 
L 26.181818 768.618802 
L 28.060832 770.604771 
L 29.454545 771.955529 
L 32.01099 773.88394 
L 32.727273 774.653008 
L 36 776.768882 
L 36.545315 777.16311 
L 39.272727 779.135049 
L 41.081019 780.442279 
L 42.545455 781.501037 
L 45.617066 783.721448 
L 45.818182 783.866845 
L 49.090909 786.66346 
L 49.464891 787.000617 
L 52.363636 789.945914 
L 52.810154 790.279786 
L 55.636364 793.165948 
L 56.2177 793.558956 
L 58.909091 796.334658 
L 59.906539 796.838125 
L 62.181818 797.934472 
L 65.454545 799.885742 
L 65.766756 800.117294 
L 68.727273 802.357349 
L 70.138364 803.396463 
L 72 804.795636 
L 74.489752 806.675633 
L 75.272727 807.32943 
L 78.507596 809.954802 
L 78.545455 809.988694 
L 81.818182 812.708611 
L 82.523961 813.233971 
z
" clip-path="url(#p259a3ffa64)" style="fill: #eff6fc; fill-opacity: 0.9"/>
    <path d="M 81.818182 813.783865 
L 85.090909 816.341933 
L 85.325826 816.51314 
L 86.713752 816.51314 
L 85.090909 815.330414 
L 82.523961 813.233971 
L 81.818182 812.708611 
L 78.545455 809.988694 
L 78.507596 809.954802 
L 75.272727 807.32943 
L 74.489752 806.675633 
L 72 804.795636 
L 70.138364 803.396463 
L 68.727273 802.357349 
L 65.766756 800.117294 
L 65.454545 799.885742 
L 62.181818 797.934472 
L 59.906539 796.838125 
L 58.909091 796.334658 
L 56.2177 793.558956 
L 55.636364 793.165948 
L 52.810154 790.279786 
L 52.363636 789.945914 
L 49.464891 787.000617 
L 49.090909 786.66346 
L 45.818182 783.866845 
L 45.617066 783.721448 
L 42.545455 781.501037 
L 41.081019 780.442279 
L 39.272727 779.135049 
L 36.545315 777.16311 
L 36 776.768882 
L 32.727273 774.653008 
L 32.01099 773.88394 
L 29.454545 771.955529 
L 28.060832 770.604771 
L 26.181818 768.618802 
L 24.836412 767.325602 
L 22.909091 765.27908 
L 21.601578 764.046433 
L 19.636364 762.080141 
L 18.143282 760.767263 
L 16.363636 758.98699 
L 14.62563 757.488094 
L 13.090909 755.953228 
L 11.555313 754.208925 
L 9.818182 752.634584 
L 8.301751 750.929756 
L 6.545455 749.351278 
L 4.952467 747.650586 
L 3.272727 745.886923 
L 1.719559 744.371417 
L -0 742.460179 
L -0 743.43862 
L 0.839247 744.371417 
L 3.272727 746.74589 
L 4.134374 747.650586 
L 6.545455 750.224683 
L 7.329955 750.929756 
L 9.818182 753.727114 
L 10.349813 754.208925 
L 13.090909 757.322571 
L 13.256417 757.488094 
L 16.363636 760.16783 
L 16.962859 760.767263 
L 19.636364 763.118097 
L 20.564191 764.046433 
L 22.909091 766.257069 
L 23.915386 767.325602 
L 26.181818 769.504089 
L 27.223223 770.604771 
L 29.454545 772.767322 
L 30.934817 773.88394 
L 32.727273 775.808487 
L 34.824829 777.16311 
L 36 778.487703 
L 39.272727 780.283896 
L 39.491818 780.442279 
L 42.545455 782.649997 
L 44.027649 783.721448 
L 45.818182 785.015918 
L 48.272601 787.000617 
L 49.090909 787.741327 
L 51.574242 790.279786 
L 52.363636 791.077899 
L 54.791337 793.558956 
L 55.636364 794.335655 
L 58.089851 796.838125 
L 58.909091 797.538556 
L 62.181818 799.716384 
L 62.942101 800.117294 
L 65.454545 801.327711 
L 68.727273 803.278337 
L 68.887686 803.396463 
L 72 805.735623 
L 73.244891 806.675633 
L 75.272727 808.368909 
L 77.226795 809.954802 
L 78.545455 811.13531 
L 81.195404 813.233971 
z
" clip-path="url(#p259a3ffa64)" style="fill: #eaf3fb; fill-opacity: 0.9"/>
    <path d="M 81.818182 815.06224 
L 83.707792 816.51314 
L 85.090909 816.51314 
L 85.325826 816.51314 
L 85.090909 816.341933 
L 81.818182 813.783865 
L 81.195404 813.233971 
L 78.545455 811.13531 
L 77.226795 809.954802 
L 75.272727 808.368909 
L 73.244891 806.675633 
L 72 805.735623 
L 68.887686 803.396463 
L 68.727273 803.278337 
L 65.454545 801.327711 
L 62.942101 800.117294 
L 62.181818 799.716384 
L 58.909091 797.538556 
L 58.089851 796.838125 
L 55.636364 794.335655 
L 54.791337 793.558956 
L 52.363636 791.077899 
L 51.574242 790.279786 
L 49.090909 787.741327 
L 48.272601 787.000617 
L 45.818182 785.015918 
L 44.027649 783.721448 
L 42.545455 782.649997 
L 39.491818 780.442279 
L 39.272727 780.283896 
L 36 778.487703 
L 34.824829 777.16311 
L 32.727273 775.808487 
L 30.934817 773.88394 
L 29.454545 772.767322 
L 27.223223 770.604771 
L 26.181818 769.504089 
L 23.915386 767.325602 
L 22.909091 766.257069 
L 20.564191 764.046433 
L 19.636364 763.118097 
L 16.962859 760.767263 
L 16.363636 760.16783 
L 13.256417 757.488094 
L 13.090909 757.322571 
L 10.349813 754.208925 
L 9.818182 753.727114 
L 7.329955 750.929756 
L 6.545455 750.224683 
L 4.134374 747.650586 
L 3.272727 746.74589 
L 0.839247 744.371417 
L -0 743.43862 
L -0 744.371417 
L -0 744.445873 
L 3.272727 747.604856 
L 3.316281 747.650586 
L 6.228436 750.929756 
L 6.545455 751.28507 
L 8.965284 754.208925 
L 9.818182 755.057406 
L 11.931013 757.488094 
L 13.090909 758.554665 
L 15.667906 760.767263 
L 16.363636 761.403302 
L 19.475729 764.046433 
L 19.636364 764.192309 
L 22.909091 767.235058 
L 22.994361 767.325602 
L 26.181818 770.389375 
L 26.385614 770.604771 
L 29.454545 773.579116 
L 29.858644 773.88394 
L 32.727273 776.963966 
L 33.035636 777.16311 
L 35.95105 780.442279 
L 36 780.482064 
L 39.272727 782.204429 
L 42.272777 783.721448 
L 42.545455 783.843033 
L 45.818182 786.164991 
L 46.851576 787.000617 
L 49.090909 789.027599 
L 50.315903 790.279786 
L 52.363636 792.350135 
L 53.546461 793.558956 
L 55.636364 795.479871 
L 56.968032 796.838125 
L 58.909091 798.497687 
L 61.152281 800.117294 
L 62.181818 800.974369 
L 65.454545 802.955706 
L 66.230094 803.396463 
L 68.727273 804.702811 
L 72 806.67561 
L 72.000029 806.675633 
L 75.272727 809.408389 
L 75.945994 809.954802 
L 78.545455 812.281926 
L 79.747588 813.233971 
z
" clip-path="url(#p259a3ffa64)" style="fill: #e5eff9; fill-opacity: 0.9"/>
    <path d="M 78.545455 813.512133 
L 81.818182 816.340615 
L 82.042874 816.51314 
L 83.707792 816.51314 
L 81.818182 815.06224 
L 79.747588 813.233971 
L 78.545455 812.281926 
L 75.945994 809.954802 
L 75.272727 809.408389 
L 72.000029 806.675633 
L 72 806.67561 
L 68.727273 804.702811 
L 66.230094 803.396463 
L 65.454545 802.955706 
L 62.181818 800.974369 
L 61.152281 800.117294 
L 58.909091 798.497687 
L 56.968032 796.838125 
L 55.636364 795.479871 
L 53.546461 793.558956 
L 52.363636 792.350135 
L 50.315903 790.279786 
L 49.090909 789.027599 
L 46.851576 787.000617 
L 45.818182 786.164991 
L 42.545455 783.843033 
L 42.272777 783.721448 
L 39.272727 782.204429 
L 36 780.482064 
L 35.95105 780.442279 
L 33.035636 777.16311 
L 32.727273 776.963966 
L 29.858644 773.88394 
L 29.454545 773.579116 
L 26.385614 770.604771 
L 26.181818 770.389375 
L 22.994361 767.325602 
L 22.909091 767.235058 
L 19.636364 764.192309 
L 19.475729 764.046433 
L 16.363636 761.403302 
L 15.667906 760.767263 
L 13.090909 758.554665 
L 11.931013 757.488094 
L 9.818182 755.057406 
L 8.965284 754.208925 
L 6.545455 751.28507 
L 6.228436 750.929756 
L 3.316281 747.650586 
L 3.272727 747.604856 
L -0 744.445873 
L -0 746.041941 
L 1.68753 747.650586 
L 3.272727 749.43106 
L 4.583567 750.929756 
L 6.545455 753.128642 
L 7.439514 754.208925 
L 9.818182 756.575275 
L 10.611634 757.488094 
L 13.090909 759.767889 
L 14.254873 760.767263 
L 16.363636 762.6951 
L 17.954732 764.046433 
L 19.636364 765.573564 
L 21.544235 767.325602 
L 22.909091 768.74292 
L 24.911007 770.604771 
L 26.181818 771.950785 
L 28.260211 773.88394 
L 29.454545 775.159054 
L 31.230074 777.16311 
L 32.727273 778.625293 
L 34.361796 780.442279 
L 36 781.773793 
L 38.794876 783.721448 
L 39.272727 784.098013 
L 42.545455 785.645365 
L 44.946982 787.000617 
L 45.818182 787.451144 
L 49.041044 790.279786 
L 49.090909 790.327521 
L 52.275157 793.558956 
L 52.363636 793.637852 
L 55.636364 796.624087 
L 55.846212 796.838125 
L 58.909091 799.456817 
L 59.823866 800.117294 
L 62.181818 802.080257 
L 64.211123 803.396463 
L 65.454545 804.627644 
L 68.727273 806.201365 
L 69.514052 806.675633 
L 72 808.06378 
L 74.427465 809.954802 
L 75.272727 810.704195 
L 78.231864 813.233971 
z
" clip-path="url(#p259a3ffa64)" style="fill: #dfecf7; fill-opacity: 0.9"/>
    <path d="M 78.545455 815.151359 
L 80.148724 816.51314 
L 81.818182 816.51314 
L 82.042874 816.51314 
L 81.818182 816.340615 
L 78.545455 813.512133 
L 78.231864 813.233971 
L 75.272727 810.704195 
L 74.427465 809.954802 
L 72 808.06378 
L 69.514052 806.675633 
L 68.727273 806.201365 
L 65.454545 804.627644 
L 64.211123 803.396463 
L 62.181818 802.080257 
L 59.823866 800.117294 
L 58.909091 799.456817 
L 55.846212 796.838125 
L 55.636364 796.624087 
L 52.363636 793.637852 
L 52.275157 793.558956 
L 49.090909 790.327521 
L 49.041044 790.279786 
L 45.818182 787.451144 
L 44.946982 787.000617 
L 42.545455 785.645365 
L 39.272727 784.098013 
L 38.794876 783.721448 
L 36 781.773793 
L 34.361796 780.442279 
L 32.727273 778.625293 
L 31.230074 777.16311 
L 29.454545 775.159054 
L 28.260211 773.88394 
L 26.181818 771.950785 
L 24.911007 770.604771 
L 22.909091 768.74292 
L 21.544235 767.325602 
L 19.636364 765.573564 
L 17.954732 764.046433 
L 16.363636 762.6951 
L 14.254873 760.767263 
L 13.090909 759.767889 
L 10.611634 757.488094 
L 9.818182 756.575275 
L 7.439514 754.208925 
L 6.545455 753.128642 
L 4.583567 750.929756 
L 3.272727 749.43106 
L 1.68753 747.650586 
L -0 746.041941 
L -0 747.638009 
L 0.013194 747.650586 
L 2.802553 750.929756 
L 3.272727 751.424037 
L 5.675856 754.208925 
L 6.545455 755.041607 
L 9.010433 757.488094 
L 9.818182 758.262373 
L 12.697369 760.767263 
L 13.090909 761.181645 
L 16.363636 763.986898 
L 16.433735 764.046433 
L 19.636364 766.954819 
L 20.040126 767.325602 
L 22.909091 770.304844 
L 23.231581 770.604771 
L 26.181818 773.729595 
L 26.347759 773.88394 
L 29.41191 777.16311 
L 29.454545 777.201617 
L 32.727273 780.391957 
L 32.772541 780.442279 
L 36 783.065522 
L 36.94125 783.721448 
L 39.272727 785.558742 
L 41.888191 787.000617 
L 42.545455 787.475064 
L 45.818182 789.102742 
L 47.159267 790.279786 
L 49.090909 792.128903 
L 50.50008 793.558956 
L 52.363636 795.220675 
L 54.186339 796.838125 
L 55.636364 798.288164 
L 58.146807 800.117294 
L 58.909091 800.894654 
L 62.181818 803.186144 
L 62.506085 803.396463 
L 65.454545 806.315894 
L 66.232333 806.675633 
L 68.727273 808.30537 
L 72 809.45196 
L 72.645487 809.954802 
L 75.272727 812.28406 
L 76.38386 813.233971 
z
" clip-path="url(#p259a3ffa64)" style="fill: #dae8f6; fill-opacity: 0.9"/>
    <path d="M 75.272727 814.509043 
L 77.849553 816.51314 
L 78.545455 816.51314 
L 80.148724 816.51314 
L 78.545455 815.151359 
L 76.38386 813.233971 
L 75.272727 812.28406 
L 72.645487 809.954802 
L 72 809.45196 
L 68.727273 808.30537 
L 66.232333 806.675633 
L 65.454545 806.315894 
L 62.506085 803.396463 
L 62.181818 803.186144 
L 58.909091 800.894654 
L 58.146807 800.117294 
L 55.636364 798.288164 
L 54.186339 796.838125 
L 52.363636 795.220675 
L 50.50008 793.558956 
L 49.090909 792.128903 
L 47.159267 790.279786 
L 45.818182 789.102742 
L 42.545455 787.475064 
L 41.888191 787.000617 
L 39.272727 785.558742 
L 36.94125 783.721448 
L 36 783.065522 
L 32.772541 780.442279 
L 32.727273 780.391957 
L 29.454545 777.201617 
L 29.41191 777.16311 
L 26.347759 773.88394 
L 26.181818 773.729595 
L 23.231581 770.604771 
L 22.909091 770.304844 
L 20.040126 767.325602 
L 19.636364 766.954819 
L 16.433735 764.046433 
L 16.363636 763.986898 
L 13.090909 761.181645 
L 12.697369 760.767263 
L 9.818182 758.262373 
L 9.010433 757.488094 
L 6.545455 755.041607 
L 5.675856 754.208925 
L 3.272727 751.424037 
L 2.802553 750.929756 
L 0.013194 747.650586 
L -0 747.638009 
L -0 747.650586 
L -0 750.355893 
L 0.487261 750.929756 
L 3.272727 753.858037 
L 3.575515 754.208925 
L 6.545455 757.052783 
L 6.984055 757.488094 
L 9.818182 760.204785 
L 10.46471 760.767263 
L 13.090909 763.53254 
L 13.701055 764.046433 
L 16.363636 766.881244 
L 16.91904 767.325602 
L 19.636364 769.568164 
L 20.601958 770.604771 
L 22.909091 772.855178 
L 23.851573 773.88394 
L 26.181818 776.163318 
L 27.105634 777.16311 
L 29.454545 779.284633 
L 30.645451 780.442279 
L 32.727273 782.280251 
L 34.715412 783.721448 
L 36 784.905931 
L 39.22491 787.000617 
L 39.272727 787.05182 
L 42.545455 789.387725 
L 44.570579 790.279786 
L 45.818182 791.194823 
L 48.37965 793.558956 
L 49.090909 794.222369 
L 52.363636 796.803499 
L 52.402656 796.838125 
L 55.636364 800.071864 
L 55.698716 800.117294 
L 58.909091 803.391162 
L 58.917651 803.396463 
L 62.181818 806.617888 
L 62.241096 806.675633 
L 65.454545 808.656022 
L 67.503529 809.954802 
L 68.727273 810.717112 
L 72 811.890183 
L 73.722078 813.233971 
z
" clip-path="url(#p259a3ffa64)" style="fill: #d6e5f4; fill-opacity: 0.9"/>
    <path d="M 72 815.438571 
L 73.378296 816.51314 
L 75.272727 816.51314 
L 77.849553 816.51314 
L 75.272727 814.509043 
L 73.722078 813.233971 
L 72 811.890183 
L 68.727273 810.717112 
L 67.503529 809.954802 
L 65.454545 808.656022 
L 62.241096 806.675633 
L 62.181818 806.617888 
L 58.917651 803.396463 
L 58.909091 803.391162 
L 55.698716 800.117294 
L 55.636364 800.071864 
L 52.402656 796.838125 
L 52.363636 796.803499 
L 49.090909 794.222369 
L 48.37965 793.558956 
L 45.818182 791.194823 
L 44.570579 790.279786 
L 42.545455 789.387725 
L 39.272727 787.05182 
L 39.22491 787.000617 
L 36 784.905931 
L 34.715412 783.721448 
L 32.727273 782.280251 
L 30.645451 780.442279 
L 29.454545 779.284633 
L 27.105634 777.16311 
L 26.181818 776.163318 
L 23.851573 773.88394 
L 22.909091 772.855178 
L 20.601958 770.604771 
L 19.636364 769.568164 
L 16.91904 767.325602 
L 16.363636 766.881244 
L 13.701055 764.046433 
L 13.090909 763.53254 
L 10.46471 760.767263 
L 9.818182 760.204785 
L 6.984055 757.488094 
L 6.545455 757.052783 
L 3.575515 754.208925 
L 3.272727 753.858037 
L 0.487261 750.929756 
L -0 750.355893 
L -0 750.929756 
L -0 753.783768 
L 0.395426 754.208925 
L 3.272727 757.060609 
L 3.733193 757.488094 
L 6.545455 760.526807 
L 6.808159 760.767263 
L 9.799113 764.046433 
L 9.818182 764.065135 
L 13.090909 767.169567 
L 13.234546 767.325602 
L 16.363636 770.222668 
L 16.837927 770.604771 
L 19.636364 773.136759 
L 20.410249 773.88394 
L 22.909091 776.129627 
L 23.976721 777.16311 
L 26.181818 779.111499 
L 27.751432 780.442279 
L 29.454545 782.05436 
L 31.609747 783.721448 
L 32.727273 784.793233 
L 35.31631 787.000617 
L 36 787.570288 
L 38.512844 790.279786 
L 39.272727 790.885629 
L 42.545455 792.396695 
L 44.28681 793.558956 
L 45.818182 794.711893 
L 48.165804 796.838125 
L 49.090909 797.627869 
L 51.822862 800.117294 
L 52.363636 800.580025 
L 55.435813 803.396463 
L 55.636364 803.565803 
L 58.909091 806.30799 
L 59.280102 806.675633 
L 62.181818 809.088153 
L 63.56449 809.954802 
L 65.454545 811.44349 
L 68.727273 813.190352 
L 68.827686 813.233971 
z
" clip-path="url(#p259a3ffa64)" style="fill: #d0e2f2; fill-opacity: 0.9"/>
    <path d="M 65.454545 815.348764 
L 67.223627 816.51314 
L 68.727273 816.51314 
L 72 816.51314 
L 73.378296 816.51314 
L 72 815.438571 
L 68.827686 813.233971 
L 68.727273 813.190352 
L 65.454545 811.44349 
L 63.56449 809.954802 
L 62.181818 809.088153 
L 59.280102 806.675633 
L 58.909091 806.30799 
L 55.636364 803.565803 
L 55.435813 803.396463 
L 52.363636 800.580025 
L 51.822862 800.117294 
L 49.090909 797.627869 
L 48.165804 796.838125 
L 45.818182 794.711893 
L 44.28681 793.558956 
L 42.545455 792.396695 
L 39.272727 790.885629 
L 38.512844 790.279786 
L 36 787.570288 
L 35.31631 787.000617 
L 32.727273 784.793233 
L 31.609747 783.721448 
L 29.454545 782.05436 
L 27.751432 780.442279 
L 26.181818 779.111499 
L 23.976721 777.16311 
L 22.909091 776.129627 
L 20.410249 773.88394 
L 19.636364 773.136759 
L 16.837927 770.604771 
L 16.363636 770.222668 
L 13.234546 767.325602 
L 13.090909 767.169567 
L 9.818182 764.065135 
L 9.799113 764.046433 
L 6.808159 760.767263 
L 6.545455 760.526807 
L 3.733193 757.488094 
L 3.272727 757.060609 
L 0.395426 754.208925 
L -0 753.783768 
L -0 754.208925 
L -0 757.488094 
L -0 758.89618 
L 1.841131 760.767263 
L 3.272727 762.193764 
L 5.114817 764.046433 
L 6.545455 765.473838 
L 8.442596 767.325602 
L 9.818182 768.697952 
L 11.772874 770.604771 
L 13.090909 771.935926 
L 15.089744 773.88394 
L 16.363636 775.076822 
L 18.852502 777.16311 
L 19.636364 777.84062 
L 22.706031 780.442279 
L 22.909091 780.617312 
L 26.181818 783.4202 
L 26.507505 783.721448 
L 29.454545 786.28713 
L 30.200311 787.000617 
L 32.727273 789.145878 
L 34.076591 790.279786 
L 36 791.909515 
L 38.245216 793.558956 
L 39.272727 794.409446 
L 42.545455 796.802091 
L 42.593715 796.838125 
L 45.818182 799.54665 
L 46.513625 800.117294 
L 49.090909 802.156264 
L 50.60665 803.396463 
L 52.363636 804.786357 
L 54.742577 806.675633 
L 55.636364 807.413957 
L 58.869728 809.954802 
L 58.909091 809.987029 
L 62.181818 812.705574 
L 62.931005 813.233971 
z
" clip-path="url(#p259a3ffa64)" style="fill: #cbdef1; fill-opacity: 0.9"/>
    <path d="M 58.909091 815.40177 
L 60.366399 816.51314 
L 62.181818 816.51314 
L 65.454545 816.51314 
L 67.223627 816.51314 
L 65.454545 815.348764 
L 62.931005 813.233971 
L 62.181818 812.705574 
L 58.909091 809.987029 
L 58.869728 809.954802 
L 55.636364 807.413957 
L 54.742577 806.675633 
L 52.363636 804.786357 
L 50.60665 803.396463 
L 49.090909 802.156264 
L 46.513625 800.117294 
L 45.818182 799.54665 
L 42.593715 796.838125 
L 42.545455 796.802091 
L 39.272727 794.409446 
L 38.245216 793.558956 
L 36 791.909515 
L 34.076591 790.279786 
L 32.727273 789.145878 
L 30.200311 787.000617 
L 29.454545 786.28713 
L 26.507505 783.721448 
L 26.181818 783.4202 
L 22.909091 780.617312 
L 22.706031 780.442279 
L 19.636364 777.84062 
L 18.852502 777.16311 
L 16.363636 775.076822 
L 15.089744 773.88394 
L 13.090909 771.935926 
L 11.772874 770.604771 
L 9.818182 768.697952 
L 8.442596 767.325602 
L 6.545455 765.473838 
L 5.114817 764.046433 
L 3.272727 762.193764 
L 1.841131 760.767263 
L -0 758.89618 
L -0 760.767263 
L -0 764.046433 
L -0 764.668419 
L 2.761082 767.325602 
L 3.272727 767.856941 
L 6.047248 770.604771 
L 6.545455 771.077933 
L 9.36896 773.88394 
L 9.818182 774.310805 
L 12.679186 777.16311 
L 13.090909 777.55405 
L 16.030465 780.442279 
L 16.363636 780.754028 
L 19.39433 783.721448 
L 19.636364 783.953352 
L 22.909091 786.448807 
L 23.587198 787.000617 
L 26.181818 788.96114 
L 27.87438 790.279786 
L 29.454545 791.624891 
L 32.004603 793.558956 
L 32.727273 794.146202 
L 36 796.760797 
L 36.095316 796.838125 
L 39.272727 799.436208 
L 40.097303 800.117294 
L 42.545455 802.399373 
L 43.76881 803.396463 
L 45.818182 805.300687 
L 47.561108 806.675633 
L 49.090909 808.078951 
L 51.578199 809.954802 
L 52.363636 810.483025 
L 55.636364 812.959051 
L 55.985521 813.233971 
z
" clip-path="url(#p259a3ffa64)" style="fill: #c6dbef; fill-opacity: 0.9"/>
    <path d="M 49.090909 814.520178 
L 51.300902 816.51314 
L 52.363636 816.51314 
L 55.636364 816.51314 
L 58.909091 816.51314 
L 60.366399 816.51314 
L 58.909091 815.40177 
L 55.985521 813.233971 
L 55.636364 812.959051 
L 52.363636 810.483025 
L 51.578199 809.954802 
L 49.090909 808.078951 
L 47.561108 806.675633 
L 45.818182 805.300687 
L 43.76881 803.396463 
L 42.545455 802.399373 
L 40.097303 800.117294 
L 39.272727 799.436208 
L 36.095316 796.838125 
L 36 796.760797 
L 32.727273 794.146202 
L 32.004603 793.558956 
L 29.454545 791.624891 
L 27.87438 790.279786 
L 26.181818 788.96114 
L 23.587198 787.000617 
L 22.909091 786.448807 
L 19.636364 783.953352 
L 19.39433 783.721448 
L 16.363636 780.754028 
L 16.030465 780.442279 
L 13.090909 777.55405 
L 12.679186 777.16311 
L 9.818182 774.310805 
L 9.36896 773.88394 
L 6.545455 771.077933 
L 6.047248 770.604771 
L 3.272727 767.856941 
L 2.761082 767.325602 
L -0 764.668419 
L -0 767.325602 
L -0 770.604771 
L -0 772.310427 
L 1.772895 773.88394 
L 3.272727 775.572508 
L 5.129137 777.16311 
L 6.545455 778.701853 
L 8.673334 780.442279 
L 9.818182 781.378667 
L 12.430062 783.721448 
L 13.090909 784.245427 
L 16.261165 787.000617 
L 16.363636 787.083202 
L 19.636364 790.077335 
L 19.844008 790.279786 
L 22.909091 793.123306 
L 23.355317 793.558956 
L 26.181818 796.187789 
L 27.004495 796.838125 
L 29.454545 799.088327 
L 30.981348 800.117294 
L 32.727273 801.675812 
L 35.759399 803.396463 
L 36 803.565394 
L 39.272727 806.071722 
L 39.964815 806.675633 
L 42.545455 808.73987 
L 43.921257 809.954802 
L 45.818182 811.630425 
L 47.634716 813.233971 
z
" clip-path="url(#p259a3ffa64)" style="fill: #bed8ec; fill-opacity: 0.9"/>
    <path d="M 3.272727 816.51314 
L 6.545455 816.51314 
L 9.818182 816.51314 
L 13.090909 816.51314 
L 16.363636 816.51314 
L 19.636364 816.51314 
L 22.909091 816.51314 
L 26.181818 816.51314 
L 29.454545 816.51314 
L 32.205972 816.51314 
L 30.303709 813.233971 
L 29.454545 810.849426 
L 29.136058 809.954802 
L 29.454545 809.680461 
L 30.70747 809.954802 
L 32.727273 810.528189 
L 34.962101 813.233971 
L 36 814.771034 
L 37.72421 816.51314 
L 39.272727 816.51314 
L 42.545455 816.51314 
L 45.818182 816.51314 
L 49.090909 816.51314 
L 51.300902 816.51314 
L 49.090909 814.520178 
L 47.634716 813.233971 
L 45.818182 811.630425 
L 43.921257 809.954802 
L 42.545455 808.73987 
L 39.964815 806.675633 
L 39.272727 806.071722 
L 36 803.565394 
L 35.759399 803.396463 
L 32.727273 801.675812 
L 30.981348 800.117294 
L 29.454545 799.088327 
L 27.004495 796.838125 
L 26.181818 796.187789 
L 23.355317 793.558956 
L 22.909091 793.123306 
L 19.844008 790.279786 
L 19.636364 790.077335 
L 16.363636 787.083202 
L 16.261165 787.000617 
L 13.090909 784.245427 
L 12.430062 783.721448 
L 9.818182 781.378667 
L 8.673334 780.442279 
L 6.545455 778.701853 
L 5.129137 777.16311 
L 3.272727 775.572508 
L 1.772895 773.88394 
L -0 772.310427 
L -0 773.88394 
L -0 777.16311 
L -0 780.442279 
L -0 783.050674 
L 0.928961 783.721448 
L -0 785.924754 
L -0 787.000617 
L -0 790.279786 
L -0 793.558956 
L -0 796.838125 
L -0 800.117294 
L -0 803.396463 
L -0 806.675633 
L -0 809.954802 
L -0 813.233971 
L -0 816.51314 
z
M 16.050984 803.396463 
L 16.363636 803.007362 
L 16.833714 803.396463 
L 16.363636 803.689186 
z
M 12.440266 800.117294 
L 13.090909 798.984564 
L 13.830078 800.117294 
L 13.090909 800.728052 
z
M 8.767835 796.838125 
L 6.545455 794.796228 
L 5.284603 793.558956 
L 3.272727 791.037825 
L 2.378267 790.279786 
L 1.879816 787.000617 
L 3.272727 786.589338 
L 4.052184 787.000617 
L 6.545455 788.640937 
L 8.069746 790.279786 
L 9.818182 793.045116 
L 10.055707 793.558956 
L 11.088318 796.838125 
L 9.818182 797.59141 
z
" clip-path="url(#p259a3ffa64)" style="fill: #b5d4e9; fill-opacity: 0.9"/>
    <path d="M 32.727273 816.51314 
L 36 816.51314 
L 37.72421 816.51314 
L 36 814.771034 
L 34.962101 813.233971 
L 32.727273 810.528189 
L 30.70747 809.954802 
L 29.454545 809.680461 
L 29.136058 809.954802 
L 29.454545 810.849426 
L 30.303709 813.233971 
L 32.205972 816.51314 
z
M 16.363636 803.689186 
L 16.833714 803.396463 
L 16.363636 803.007362 
L 16.050984 803.396463 
z
M 13.090909 800.728052 
L 13.830078 800.117294 
L 13.090909 798.984564 
L 12.440266 800.117294 
z
M 9.818182 797.59141 
L 11.088318 796.838125 
L 10.055707 793.558956 
L 9.818182 793.045116 
L 8.069746 790.279786 
L 6.545455 788.640937 
L 4.052184 787.000617 
L 3.272727 786.589338 
L 1.879816 787.000617 
L 2.378267 790.279786 
L 3.272727 791.037825 
L 5.284603 793.558956 
L 6.545455 794.796228 
L 8.767835 796.838125 
z
M 0.928961 783.721448 
L -0 783.050674 
L -0 783.721448 
L -0 785.924754 
z
" clip-path="url(#p259a3ffa64)" style="fill: #add0e6; fill-opacity: 0.9"/>
    <path clip-path="url(#p259a3ffa64)" style="fill: #a5cde3; fill-opacity: 0.9"/>
    <path clip-path="url(#p259a3ffa64)" style="fill: #9cc9e1; fill-opacity: 0.9"/>
    <path clip-path="url(#p259a3ffa64)" style="fill: #91c3de; fill-opacity: 0.9"/>
    <path clip-path="url(#p259a3ffa64)" style="fill: #85bcdc; fill-opacity: 0.9"/>
    <path clip-path="url(#p259a3ffa64)" style="fill: #7cb7da; fill-opacity: 0.9"/>
    <path clip-path="url(#p259a3ffa64)" style="fill: #71b1d7; fill-opacity: 0.9"/>
    <path clip-path="url(#p259a3ffa64)" style="fill: #66abd4; fill-opacity: 0.9"/>
    <path clip-path="url(#p259a3ffa64)" style="fill: #5da5d1; fill-opacity: 0.9"/>
    <path clip-path="url(#p259a3ffa64)" style="fill: #56a0ce; fill-opacity: 0.9"/>
    <path clip-path="url(#p259a3ffa64)" style="fill: #4d99ca; fill-opacity: 0.9"/>
    <path clip-path="url(#p259a3ffa64)" style="fill: #4493c7; fill-opacity: 0.9"/>
    <path clip-path="url(#p259a3ffa64)" style="fill: #3c8cc3; fill-opacity: 0.9"/>
    <path clip-path="url(#p259a3ffa64)" style="fill: #3686c0; fill-opacity: 0.9"/>
    <path clip-path="url(#p259a3ffa64)" style="fill: #2f7fbc; fill-opacity: 0.9"/>
    <path clip-path="url(#p259a3ffa64)" style="fill: #2777b8; fill-opacity: 0.9"/>
    <path clip-path="url(#p259a3ffa64)" style="fill: #2070b4; fill-opacity: 0.9"/>
    <path clip-path="url(#p259a3ffa64)" style="fill: #1c6ab0; fill-opacity: 0.9"/>
    <path clip-path="url(#p259a3ffa64)" style="fill: #1663aa; fill-opacity: 0.9"/>
    <path clip-path="url(#p259a3ffa64)" style="fill: #115ca5; fill-opacity: 0.9"/>
    <path clip-path="url(#p259a3ffa64)" style="fill: #0c56a0; fill-opacity: 0.9"/>
    <path clip-path="url(#p259a3ffa64)" style="fill: #084f99; fill-opacity: 0.9"/>
    <path clip-path="url(#p259a3ffa64)" style="fill: #08488e; fill-opacity: 0.9"/>
    <path clip-path="url(#p259a3ffa64)" style="fill: #084184; fill-opacity: 0.9"/>
    <path clip-path="url(#p259a3ffa64)" style="fill: #083a7a; fill-opacity: 0.9"/>
    <path clip-path="url(#p259a3ffa64)" style="fill: #083370; fill-opacity: 0.9"/>
    <path clip-path="url(#p259a3ffa64)" style="fill: #08306b; fill-opacity: 0.9"/>
   </g>
   <g id="QuadContourSet_2">
    <path d="M 89.248012 816.51314 
L 88.363636 815.619176 
L 85.090909 813.307375 
L 85.001031 813.233971 
L 81.818182 810.864756 
L 80.725951 809.954802 
L 78.545455 808.304358 
L 76.626055 806.675633 
L 75.272727 805.47753 
L 72.578648 803.396463 
L 72 802.811346 
L 68.727273 800.515373 
L 68.201161 800.117294 
L 65.454545 798.08026 
L 63.823384 796.838125 
L 62.181818 795.612352 
L 59.501757 793.558956 
L 58.909091 792.982614 
L 55.636364 790.718793 
L 55.206476 790.279786 
L 52.363636 788.154124 
L 51.228361 787.000617 
L 49.090909 785.073631 
L 47.533479 783.721448 
L 45.818182 782.294027 
L 43.551373 780.442279 
L 42.545455 779.433333 
L 39.615119 777.16311 
L 39.272727 776.816773 
L 36 774.471412 
L 35.093251 773.88394 
L 32.727273 772.22694 
L 30.124219 770.604771 
L 29.454545 770.152623 
L 26.850145 767.325602 
L 26.181818 766.732386 
L 23.669997 764.046433 
L 22.909091 763.28372 
L 20.394036 760.767263 
L 19.636364 760.007792 
L 17.118063 757.488094 
L 16.690349 757.059365 
M 2.995985 743.761639 
L 0.657541 741.092248 
L -0 740.427736 
" clip-path="url(#p259a3ffa64)" style="fill: none"/>
    <path d="M 88.101678 816.51314 
L 86.106256 815.058879 
M 71.04785 803.145213 
L 68.727273 801.436361 
L 66.983959 800.117294 
L 65.454545 798.983001 
L 62.637912 796.838125 
L 62.181818 796.497555 
L 58.909091 794.468046 
L 58.027614 793.558956 
L 55.636364 791.94237 
L 54.008315 790.279786 
L 52.363636 789.050019 
L 50.346626 787.000617 
L 49.090909 785.868546 
L 46.617905 783.721448 
L 45.818182 783.055941 
L 42.618678 780.442279 
L 42.545455 780.368835 
L 39.272727 777.986201 
L 38.134299 777.16311 
L 36 775.620147 
L 33.320208 773.88394 
L 32.727273 773.468682 
L 29.454545 771.143736 
L 28.898441 770.604771 
L 26.181818 767.733516 
L 25.757437 767.325602 
L 22.909091 764.301092 
L 22.638965 764.046433 
L 19.636364 761.042186 
L 19.323706 760.767263 
L 16.363636 757.80615 
L 15.994843 757.488094 
L 13.090909 754.583886 
L 12.760813 754.208925 
L 9.818182 751.542054 
L 9.273547 750.929756 
L 6.545455 748.477873 
L 5.77056 747.650586 
L 3.272727 745.027957 
L 2.599872 744.371417 
L -0 741.481739 
" clip-path="url(#p259a3ffa64)" style="fill: none"/>
    <path d="M 86.713752 816.51314 
L 85.090909 815.330414 
L 82.523961 813.233971 
L 81.818182 812.708611 
L 78.545455 809.988694 
L 78.507596 809.954802 
L 75.272727 807.32943 
L 74.489752 806.675633 
L 72 804.795636 
L 70.138364 803.396463 
L 68.727273 802.357349 
L 65.766756 800.117294 
L 65.454545 799.885742 
L 62.181818 797.934472 
L 59.906539 796.838125 
L 58.909091 796.334658 
L 56.2177 793.558956 
L 55.636364 793.165948 
L 52.810154 790.279786 
L 52.363636 789.945914 
L 49.464891 787.000617 
L 49.090909 786.66346 
L 45.818182 783.866845 
L 45.617066 783.721448 
L 42.545455 781.501037 
L 41.081019 780.442279 
L 39.272727 779.135049 
L 36.545315 777.16311 
L 36 776.768882 
L 32.727273 774.653008 
L 32.01099 773.88394 
L 29.66192 772.111958 
M 15.963938 758.642281 
L 14.62563 757.488094 
L 13.090909 755.953228 
L 11.555313 754.208925 
L 9.818182 752.634584 
L 8.301751 750.929756 
L 6.545455 749.351278 
L 4.952467 747.650586 
L 3.272727 745.886923 
L 1.719559 744.371417 
L -0 742.460179 
" clip-path="url(#p259a3ffa64)" style="fill: none"/>
    <path d="M 85.325826 816.51314 
L 85.090909 816.341933 
L 81.818182 813.783865 
L 81.195404 813.233971 
L 78.545455 811.13531 
L 77.226795 809.954802 
L 75.272727 808.368909 
L 73.244891 806.675633 
L 72 805.735623 
L 68.887686 803.396463 
L 68.727273 803.278337 
L 65.454545 801.327711 
L 62.942101 800.117294 
L 62.181818 799.716384 
L 58.909091 797.538556 
L 58.089851 796.838125 
L 55.636364 794.335655 
L 54.791337 793.558956 
L 52.363636 791.077899 
L 51.574242 790.279786 
L 49.090909 787.741327 
L 48.272601 787.000617 
L 47.214723 786.145193 
M 31.819977 774.83433 
L 30.934817 773.88394 
L 29.454545 772.767322 
L 27.223223 770.604771 
L 26.181818 769.504089 
L 23.915386 767.325602 
L 22.909091 766.257069 
L 20.564191 764.046433 
L 19.636364 763.118097 
L 16.962859 760.767263 
L 16.363636 760.16783 
L 13.256417 757.488094 
L 13.090909 757.322571 
L 10.349813 754.208925 
L 9.818182 753.727114 
L 7.329955 750.929756 
L 6.545455 750.224683 
L 4.134374 747.650586 
L 3.272727 746.74589 
L 0.839247 744.371417 
L -0 743.43862 
" clip-path="url(#p259a3ffa64)" style="fill: none"/>
    <path d="M 83.707792 816.51314 
L 81.818182 815.06224 
L 79.747588 813.233971 
L 78.545455 812.281926 
L 75.945994 809.954802 
L 75.272727 809.408389 
L 72.000029 806.675633 
L 72 806.67561 
L 68.727273 804.702811 
L 66.230094 803.396463 
L 65.454545 802.955706 
L 63.024251 801.484385 
M 48.824559 788.786506 
L 46.851576 787.000617 
L 45.818182 786.164991 
L 42.545455 783.843033 
L 42.272777 783.721448 
L 39.272727 782.204429 
L 36 780.482064 
L 35.95105 780.442279 
L 33.035636 777.16311 
L 32.727273 776.963966 
L 29.858644 773.88394 
L 29.454545 773.579116 
L 26.385614 770.604771 
L 26.181818 770.389375 
L 22.994361 767.325602 
L 22.909091 767.235058 
L 19.636364 764.192309 
L 19.475729 764.046433 
L 16.363636 761.403302 
L 15.667906 760.767263 
L 13.090909 758.554665 
L 11.931013 757.488094 
L 9.818182 755.057406 
L 8.965284 754.208925 
L 6.545455 751.28507 
L 6.228436 750.929756 
L 3.316281 747.650586 
L 3.272727 747.604856 
L -0 744.445873 
" clip-path="url(#p259a3ffa64)" style="fill: none"/>
    <path d="M 82.042874 816.51314 
L 81.818182 816.340615 
L 78.545455 813.512133 
L 78.231864 813.233971 
L 75.272727 810.704195 
L 74.427465 809.954802 
L 72 808.06378 
L 69.514052 806.675633 
L 68.727273 806.201365 
L 65.454545 804.627644 
L 64.211123 803.396463 
L 62.181818 802.080257 
L 59.823866 800.117294 
L 58.909091 799.456817 
L 55.846212 796.838125 
L 55.636364 796.624087 
L 52.363636 793.637852 
L 52.275157 793.558956 
L 49.090909 790.327521 
L 49.041044 790.279786 
L 45.818182 787.451144 
L 44.946982 787.000617 
L 42.545455 785.645365 
L 39.272727 784.098013 
L 38.794876 783.721448 
L 36 781.773793 
L 34.361796 780.442279 
L 32.727273 778.625293 
L 31.230074 777.16311 
L 29.454545 775.159054 
L 28.260211 773.88394 
L 26.481679 772.229692 
M 12.502489 759.226813 
L 10.611634 757.488094 
L 9.818182 756.575275 
L 7.439514 754.208925 
L 6.545455 753.128642 
L 4.583567 750.929756 
L 3.272727 749.43106 
L 1.68753 747.650586 
L -0 746.041941 
" clip-path="url(#p259a3ffa64)" style="fill: none"/>
    <path d="M 80.148724 816.51314 
L 78.545455 815.151359 
L 76.38386 813.233971 
L 75.272727 812.28406 
L 72.645487 809.954802 
L 72 809.45196 
L 68.727273 808.30537 
L 66.232333 806.675633 
L 65.454545 806.315894 
L 62.506085 803.396463 
L 62.181818 803.186144 
L 58.909091 800.894654 
L 58.146807 800.117294 
L 55.636364 798.288164 
L 54.186339 796.838125 
L 52.363636 795.220675 
L 50.50008 793.558956 
L 49.090909 792.128903 
L 47.159267 790.279786 
L 45.818182 789.102742 
L 42.545455 787.475064 
L 41.888191 787.000617 
L 39.272727 785.558742 
L 36.94125 783.721448 
L 36 783.065522 
L 32.772541 780.442279 
L 32.727273 780.391957 
L 29.454545 777.201617 
L 29.41191 777.16311 
L 26.347759 773.88394 
L 26.181818 773.729595 
L 23.301259 770.678572 
M 9.270094 757.736996 
L 9.010433 757.488094 
L 6.545455 755.041607 
L 5.675856 754.208925 
L 3.272727 751.424037 
L 2.802553 750.929756 
L 0.013194 747.650586 
L -0 747.638009 
" clip-path="url(#p259a3ffa64)" style="fill: none"/>
    <path d="M 77.849553 816.51314 
L 75.272727 814.509043 
L 73.722078 813.233971 
L 72 811.890183 
L 68.727273 810.717112 
L 67.503529 809.954802 
L 65.454545 808.656022 
L 62.241096 806.675633 
L 62.181818 806.617888 
L 58.917651 803.396463 
L 58.909091 803.391162 
L 55.698716 800.117294 
L 55.636364 800.071864 
L 52.402656 796.838125 
L 52.363636 796.803499 
L 49.090909 794.222369 
L 48.37965 793.558956 
L 45.818182 791.194823 
L 44.570579 790.279786 
L 42.545455 789.387725 
L 39.272727 787.05182 
L 39.22491 787.000617 
L 36 784.905931 
L 34.715412 783.721448 
L 32.727273 782.280251 
L 30.645451 780.442279 
L 29.454545 779.284633 
L 27.105634 777.16311 
L 26.181818 776.163318 
L 23.851573 773.88394 
L 22.909091 772.855178 
L 20.610187 770.612798 
M 6.871614 757.376496 
L 6.545455 757.052783 
L 3.575515 754.208925 
L 3.272727 753.858037 
L 0.487261 750.929756 
L -0 750.355893 
" clip-path="url(#p259a3ffa64)" style="fill: none"/>
    <path d="M 73.378296 816.51314 
L 72 815.438571 
L 68.827686 813.233971 
L 68.727273 813.190352 
L 65.454545 811.44349 
L 63.56449 809.954802 
L 62.181818 809.088153 
L 59.280102 806.675633 
L 58.909091 806.30799 
L 55.636364 803.565803 
L 55.435813 803.396463 
L 52.363636 800.580025 
L 51.822862 800.117294 
L 49.090909 797.627869 
L 48.165804 796.838125 
L 45.818182 794.711893 
L 44.28681 793.558956 
L 42.545455 792.396695 
L 39.272727 790.885629 
L 38.512844 790.279786 
L 36 787.570288 
L 35.31631 787.000617 
L 34.957511 786.694709 
M 20.630471 774.081851 
L 20.410249 773.88394 
L 19.636364 773.136759 
L 16.837927 770.604771 
L 16.363636 770.222668 
L 13.234546 767.325602 
L 13.090909 767.169567 
L 9.818182 764.065135 
L 9.799113 764.046433 
L 6.808159 760.767263 
L 6.545455 760.526807 
L 3.733193 757.488094 
L 3.272727 757.060609 
L 0.395426 754.208925 
L -0 753.783768 
" clip-path="url(#p259a3ffa64)" style="fill: none"/>
    <path d="M 67.223627 816.51314 
L 65.454545 815.348764 
L 62.931005 813.233971 
L 62.181818 812.705574 
L 58.909091 809.987029 
L 58.869728 809.954802 
L 55.636364 807.413957 
L 54.742577 806.675633 
L 52.363636 804.786357 
L 50.60665 803.396463 
L 49.090909 802.156264 
L 46.765499 800.31656 
M 31.855465 788.405758 
L 30.200311 787.000617 
L 29.454545 786.28713 
L 26.507505 783.721448 
L 26.181818 783.4202 
L 22.909091 780.617312 
L 22.706031 780.442279 
L 19.636364 777.84062 
L 18.852502 777.16311 
L 16.363636 775.076822 
L 15.089744 773.88394 
L 13.090909 771.935926 
L 11.772874 770.604771 
L 9.818182 768.697952 
L 8.442596 767.325602 
L 6.545455 765.473838 
L 5.114817 764.046433 
L 3.272727 762.193764 
L 1.841131 760.767263 
L -0 758.89618 
" clip-path="url(#p259a3ffa64)" style="fill: none"/>
    <path d="M 60.366399 816.51314 
L 58.909091 815.40177 
L 55.985521 813.233971 
L 55.636364 812.959051 
L 53.768656 811.546011 
M 31.420685 793.116089 
L 29.454545 791.624891 
L 27.87438 790.279786 
L 26.181818 788.96114 
L 23.587198 787.000617 
L 22.909091 786.448807 
L 19.636364 783.953352 
L 19.39433 783.721448 
L 16.363636 780.754028 
L 16.030465 780.442279 
L 13.090909 777.55405 
L 12.679186 777.16311 
L 9.818182 774.310805 
L 9.36896 773.88394 
L 6.545455 771.077933 
L 6.047248 770.604771 
L 3.272727 767.856941 
L 2.761082 767.325602 
L -0 764.668419 
" clip-path="url(#p259a3ffa64)" style="fill: none"/>
    <path d="M 51.300902 816.51314 
L 49.090909 814.520178 
L 47.634716 813.233971 
L 45.818182 811.630425 
L 44.362394 810.344474 
M 21.797349 792.091927 
L 19.844008 790.279786 
L 19.636364 790.077335 
L 16.363636 787.083202 
L 16.261165 787.000617 
L 13.090909 784.245427 
L 12.430062 783.721448 
L 9.818182 781.378667 
L 8.673334 780.442279 
L 6.545455 778.701853 
L 5.129137 777.16311 
L 3.272727 775.572508 
L 1.772895 773.88394 
L -0 772.310427 
" clip-path="url(#p259a3ffa64)" style="fill: none"/>
    <path d="M 37.72421 816.51314 
L 36 814.771034 
L 34.962101 813.233971 
L 32.727273 810.528189 
L 30.70747 809.954802 
L 29.454545 809.680461 
L 29.136058 809.954802 
L 29.454545 810.849426 
L 30.303709 813.233971 
L 32.205972 816.51314 
M -0 785.924754 
L 0.928961 783.721448 
L -0 783.050674 
M 16.363636 803.689186 
L 16.833714 803.396463 
L 16.363636 803.007362 
L 16.050984 803.396463 
L 16.363636 803.689186 
z
M 13.090909 800.728052 
L 13.830078 800.117294 
L 13.090909 798.984564 
L 12.440266 800.117294 
L 13.090909 800.728052 
z
M 9.818182 797.59141 
L 11.088318 796.838125 
L 10.055707 793.558956 
L 9.818182 793.045116 
L 8.069746 790.279786 
L 6.545455 788.640937 
L 4.052184 787.000617 
L 3.272727 786.589338 
L 1.879816 787.000617 
L 2.378267 790.279786 
L 3.272727 791.037825 
L 5.284603 793.558956 
L 6.545455 794.796228 
L 8.767835 796.838125 
L 9.818182 797.59141 
z
" clip-path="url(#p259a3ffa64)" style="fill: none"/>
    <path clip-path="url(#p259a3ffa64)" style="fill: none"/>
    <path clip-path="url(#p259a3ffa64)" style="fill: none"/>
    <path clip-path="url(#p259a3ffa64)" style="fill: none"/>
    <path clip-path="url(#p259a3ffa64)" style="fill: none"/>
    <path clip-path="url(#p259a3ffa64)" style="fill: none"/>
    <path clip-path="url(#p259a3ffa64)" style="fill: none"/>
    <path clip-path="url(#p259a3ffa64)" style="fill: none"/>
    <path clip-path="url(#p259a3ffa64)" style="fill: none"/>
    <path clip-path="url(#p259a3ffa64)" style="fill: none"/>
    <path clip-path="url(#p259a3ffa64)" style="fill: none"/>
    <path clip-path="url(#p259a3ffa64)" style="fill: none"/>
    <path clip-path="url(#p259a3ffa64)" style="fill: none"/>
    <path clip-path="url(#p259a3ffa64)" style="fill: none"/>
    <path clip-path="url(#p259a3ffa64)" style="fill: none"/>
    <path clip-path="url(#p259a3ffa64)" style="fill: none"/>
    <path clip-path="url(#p259a3ffa64)" style="fill: none"/>
    <path clip-path="url(#p259a3ffa64)" style="fill: none"/>
    <path clip-path="url(#p259a3ffa64)" style="fill: none"/>
    <path clip-path="url(#p259a3ffa64)" style="fill: none"/>
    <path clip-path="url(#p259a3ffa64)" style="fill: none"/>
    <path clip-path="url(#p259a3ffa64)" style="fill: none"/>
    <path clip-path="url(#p259a3ffa64)" style="fill: none"/>
    <path clip-path="url(#p259a3ffa64)" style="fill: none"/>
    <path clip-path="url(#p259a3ffa64)" style="fill: none"/>
    <path clip-path="url(#p259a3ffa64)" style="fill: none"/>
    <path clip-path="url(#p259a3ffa64)" style="fill: none"/>
   </g>
   <g id="text_1">
    <g clip-path="url(#p259a3ffa64)">
     <!-- 0 -->
     <g style="opacity: 0" transform="translate(4.765849 750.320555) rotate(-317.839897) scale(0.12 -0.12)">
      <defs>
       <path id="DejaVuSans-30" d="M 2034 4250 
Q 1547 4250 1301 3770 
Q 1056 3291 1056 2328 
Q 1056 1369 1301 889 
Q 1547 409 2034 409 
Q 2525 409 2770 889 
Q 3016 1369 3016 2328 
Q 3016 3291 2770 3770 
Q 2525 4250 2034 4250 
z
M 2034 4750 
Q 2819 4750 3233 4129 
Q 3647 3509 3647 2328 
Q 3647 1150 3233 529 
Q 2819 -91 2034 -91 
Q 1250 -91 836 529 
Q 422 1150 422 2328 
Q 422 3509 836 4129 
Q 1250 4750 2034 4750 
z
" transform="scale(0.015625)"/>
      </defs>
      <use xlink:href="#DejaVuSans-30"/>
     </g>
    </g>
   </g>
   <g id="text_2">
    <g clip-path="url(#p259a3ffa64)">
     <!-- 1 -->
     <g style="opacity: 0" transform="translate(73.494456 809.300385) rotate(-320.858562) scale(0.12 -0.12)">
      <defs>
       <path id="DejaVuSans-31" d="M 794 531 
L 1825 531 
L 1825 4091 
L 703 3866 
L 703 4441 
L 1819 4666 
L 2450 4666 
L 2450 531 
L 3481 531 
L 3481 0 
L 794 0 
L 794 531 
z
" transform="scale(0.015625)"/>
      </defs>
      <use xlink:href="#DejaVuSans-31"/>
     </g>
    </g>
   </g>
   <g id="text_3">
    <g clip-path="url(#p259a3ffa64)">
     <!-- 2 -->
     <g style="opacity: 0" transform="translate(17.866452 764.948211) rotate(-315.308011) scale(0.12 -0.12)">
      <defs>
       <path id="DejaVuSans-32" d="M 1228 531 
L 3431 531 
L 3431 0 
L 469 0 
L 469 531 
Q 828 903 1448 1529 
Q 2069 2156 2228 2338 
Q 2531 2678 2651 2914 
Q 2772 3150 2772 3378 
Q 2772 3750 2511 3984 
Q 2250 4219 1831 4219 
Q 1534 4219 1204 4116 
Q 875 4013 500 3803 
L 500 4441 
Q 881 4594 1212 4672 
Q 1544 4750 1819 4750 
Q 2544 4750 2975 4387 
Q 3406 4025 3406 3419 
Q 3406 3131 3298 2873 
Q 3191 2616 2906 2266 
Q 2828 2175 2409 1742 
Q 1991 1309 1228 531 
z
" transform="scale(0.015625)"/>
      </defs>
      <use xlink:href="#DejaVuSans-32"/>
     </g>
    </g>
   </g>
   <g id="text_4">
    <g clip-path="url(#p259a3ffa64)">
     <!-- 3 -->
     <g style="opacity: 0" transform="translate(34.473283 781.035568) rotate(-325.804251) scale(0.12 -0.12)">
      <defs>
       <path id="DejaVuSans-33" d="M 2597 2516 
Q 3050 2419 3304 2112 
Q 3559 1806 3559 1356 
Q 3559 666 3084 287 
Q 2609 -91 1734 -91 
Q 1441 -91 1130 -33 
Q 819 25 488 141 
L 488 750 
Q 750 597 1062 519 
Q 1375 441 1716 441 
Q 2309 441 2620 675 
Q 2931 909 2931 1356 
Q 2931 1769 2642 2001 
Q 2353 2234 1838 2234 
L 1294 2234 
L 1294 2753 
L 1863 2753 
Q 2328 2753 2575 2939 
Q 2822 3125 2822 3475 
Q 2822 3834 2567 4026 
Q 2313 4219 1838 4219 
Q 1578 4219 1281 4162 
Q 984 4106 628 3988 
L 628 4550 
Q 988 4650 1302 4700 
Q 1616 4750 1894 4750 
Q 2613 4750 3031 4423 
Q 3450 4097 3450 3541 
Q 3450 3153 3228 2886 
Q 3006 2619 2597 2516 
z
" transform="scale(0.015625)"/>
      </defs>
      <use xlink:href="#DejaVuSans-33"/>
     </g>
    </g>
   </g>
   <g id="text_5">
    <g clip-path="url(#p259a3ffa64)">
     <!-- 4 -->
     <g style="opacity: 0" transform="translate(50.585465 795.318305) rotate(-317.22993) scale(0.12 -0.12)">
      <defs>
       <path id="DejaVuSans-34" d="M 2419 4116 
L 825 1625 
L 2419 1625 
L 2419 4116 
z
M 2253 4666 
L 3047 4666 
L 3047 1625 
L 3713 1625 
L 3713 1100 
L 3047 1100 
L 3047 0 
L 2419 0 
L 2419 1100 
L 313 1100 
L 313 1709 
L 2253 4666 
z
" transform="scale(0.015625)"/>
      </defs>
      <use xlink:href="#DejaVuSans-34"/>
     </g>
    </g>
   </g>
   <g id="text_6">
    <g clip-path="url(#p259a3ffa64)">
     <!-- 5 -->
     <g style="opacity: 0" transform="translate(14.584862 765.43209) rotate(-317.457827) scale(0.12 -0.12)">
      <defs>
       <path id="DejaVuSans-35" d="M 691 4666 
L 3169 4666 
L 3169 4134 
L 1269 4134 
L 1269 2991 
Q 1406 3038 1543 3061 
Q 1681 3084 1819 3084 
Q 2600 3084 3056 2656 
Q 3513 2228 3513 1497 
Q 3513 744 3044 326 
Q 2575 -91 1722 -91 
Q 1428 -91 1123 -41 
Q 819 9 494 109 
L 494 744 
Q 775 591 1075 516 
Q 1375 441 1709 441 
Q 2250 441 2565 725 
Q 2881 1009 2881 1497 
Q 2881 1984 2565 2268 
Q 2250 2553 1709 2553 
Q 1456 2553 1204 2497 
Q 953 2441 691 2322 
L 691 4666 
z
" transform="scale(0.015625)"/>
      </defs>
      <use xlink:href="#DejaVuSans-35"/>
     </g>
    </g>
   </g>
   <g id="text_7">
    <g clip-path="url(#p259a3ffa64)">
     <!-- 6 -->
     <g style="opacity: 0" transform="translate(11.380544 763.9921) rotate(-318.446032) scale(0.12 -0.12)">
      <defs>
       <path id="DejaVuSans-36" d="M 2113 2584 
Q 1688 2584 1439 2293 
Q 1191 2003 1191 1497 
Q 1191 994 1439 701 
Q 1688 409 2113 409 
Q 2538 409 2786 701 
Q 3034 994 3034 1497 
Q 3034 2003 2786 2293 
Q 2538 2584 2113 2584 
z
M 3366 4563 
L 3366 3988 
Q 3128 4100 2886 4159 
Q 2644 4219 2406 4219 
Q 1781 4219 1451 3797 
Q 1122 3375 1075 2522 
Q 1259 2794 1537 2939 
Q 1816 3084 2150 3084 
Q 2853 3084 3261 2657 
Q 3669 2231 3669 1497 
Q 3669 778 3244 343 
Q 2819 -91 2113 -91 
Q 1303 -91 875 529 
Q 447 1150 447 2328 
Q 447 3434 972 4092 
Q 1497 4750 2381 4750 
Q 2619 4750 2861 4703 
Q 3103 4656 3366 4563 
z
" transform="scale(0.015625)"/>
      </defs>
      <use xlink:href="#DejaVuSans-36"/>
     </g>
    </g>
   </g>
   <g id="text_8">
    <g clip-path="url(#p259a3ffa64)">
     <!-- 7 -->
     <g style="opacity: 0" transform="translate(8.660065 763.691318) rotate(-315.032482) scale(0.12 -0.12)">
      <defs>
       <path id="DejaVuSans-37" d="M 525 4666 
L 3525 4666 
L 3525 4397 
L 1831 0 
L 1172 0 
L 2766 4134 
L 525 4134 
L 525 4666 
z
" transform="scale(0.015625)"/>
      </defs>
      <use xlink:href="#DejaVuSans-37"/>
     </g>
    </g>
   </g>
   <g id="text_9">
    <g clip-path="url(#p259a3ffa64)">
     <!-- 8 -->
     <g style="opacity: 0" transform="translate(22.698077 780.478156) rotate(-319.468831) scale(0.12 -0.12)">
      <defs>
       <path id="DejaVuSans-38" d="M 2034 2216 
Q 1584 2216 1326 1975 
Q 1069 1734 1069 1313 
Q 1069 891 1326 650 
Q 1584 409 2034 409 
Q 2484 409 2743 651 
Q 3003 894 3003 1313 
Q 3003 1734 2745 1975 
Q 2488 2216 2034 2216 
z
M 1403 2484 
Q 997 2584 770 2862 
Q 544 3141 544 3541 
Q 544 4100 942 4425 
Q 1341 4750 2034 4750 
Q 2731 4750 3128 4425 
Q 3525 4100 3525 3541 
Q 3525 3141 3298 2862 
Q 3072 2584 2669 2484 
Q 3125 2378 3379 2068 
Q 3634 1759 3634 1313 
Q 3634 634 3220 271 
Q 2806 -91 2034 -91 
Q 1263 -91 848 271 
Q 434 634 434 1313 
Q 434 1759 690 2068 
Q 947 2378 1403 2484 
z
M 1172 3481 
Q 1172 3119 1398 2916 
Q 1625 2713 2034 2713 
Q 2441 2713 2670 2916 
Q 2900 3119 2900 3481 
Q 2900 3844 2670 4047 
Q 2441 4250 2034 4250 
Q 1625 4250 1398 4047 
Q 1172 3844 1172 3481 
z
" transform="scale(0.015625)"/>
      </defs>
      <use xlink:href="#DejaVuSans-38"/>
     </g>
    </g>
   </g>
   <g id="text_10">
    <g clip-path="url(#p259a3ffa64)">
     <!-- 9 -->
     <g style="opacity: 0" transform="translate(34.230394 794.74495) rotate(-322.868758) scale(0.12 -0.12)">
      <defs>
       <path id="DejaVuSans-39" d="M 703 97 
L 703 672 
Q 941 559 1184 500 
Q 1428 441 1663 441 
Q 2288 441 2617 861 
Q 2947 1281 2994 2138 
Q 2813 1869 2534 1725 
Q 2256 1581 1919 1581 
Q 1219 1581 811 2004 
Q 403 2428 403 3163 
Q 403 3881 828 4315 
Q 1253 4750 1959 4750 
Q 2769 4750 3195 4129 
Q 3622 3509 3622 2328 
Q 3622 1225 3098 567 
Q 2575 -91 1691 -91 
Q 1453 -91 1209 -44 
Q 966 3 703 97 
z
M 1959 2075 
Q 2384 2075 2632 2365 
Q 2881 2656 2881 3163 
Q 2881 3666 2632 3958 
Q 2384 4250 1959 4250 
Q 1534 4250 1286 3958 
Q 1038 3666 1038 3163 
Q 1038 2656 1286 2365 
Q 1534 2075 1959 2075 
z
" transform="scale(0.015625)"/>
      </defs>
      <use xlink:href="#DejaVuSans-39"/>
     </g>
    </g>
   </g>
   <g id="text_11">
    <g clip-path="url(#p259a3ffa64)">
     <!-- 10 -->
     <g style="opacity: 0" transform="translate(34.580836 799.986397) rotate(-319.699131) scale(0.12 -0.12)">
      <use xlink:href="#DejaVuSans-31"/>
      <use xlink:href="#DejaVuSans-30" transform="translate(63.623047 0)"/>
     </g>
    </g>
   </g>
   <g id="text_12">
    <g clip-path="url(#p259a3ffa64)">
     <!-- 11 -->
     <g style="opacity: 0" transform="translate(24.655968 799.648093) rotate(-322.451618) scale(0.12 -0.12)">
      <use xlink:href="#DejaVuSans-31"/>
      <use xlink:href="#DejaVuSans-31" transform="translate(63.623047 0)"/>
     </g>
    </g>
   </g>
  </g>
 </g>
 <defs>
  <clipPath id="p259a3ffa64">
   <rect x="0" y="0" width="576" height="816.51314"/>
  </clipPath>
 </defs>
</svg>
