<?xml version="1.0" encoding="utf-8" standalone="no"?>
<!DOCTYPE svg PUBLIC "-//W3C//DTD SVG 1.1//EN"
  "http://www.w3.org/Graphics/SVG/1.1/DTD/svg11.dtd">
<svg xmlns:xlink="http://www.w3.org/1999/xlink" width="576pt" height="819.826276pt" viewBox="0 0 576 819.826276" xmlns="http://www.w3.org/2000/svg" version="1.1">
 <metadata>
  <rdf:RDF xmlns:dc="http://purl.org/dc/elements/1.1/" xmlns:cc="http://creativecommons.org/ns#" xmlns:rdf="http://www.w3.org/1999/02/22-rdf-syntax-ns#">
   <cc:Work>
    <dc:type rdf:resource="http://purl.org/dc/dcmitype/StillImage"/>
    <dc:date>2025-07-25T22:45:49.961385</dc:date>
    <dc:format>image/svg+xml</dc:format>
    <dc:creator>
     <cc:Agent>
      <dc:title>Matplotlib v3.10.3, https://matplotlib.org/</dc:title>
     </cc:Agent>
    </dc:creator>
   </cc:Work>
  </rdf:RDF>
 </metadata>
 <defs>
  <style type="text/css">*{stroke-linejoin: round; stroke-linecap: butt}</style>
 </defs>
 <g id="figure_1">
  <g id="patch_1">
   <path d="M 0 819.826276 
L 576 819.826276 
L 576 0 
L 0 0 
L 0 819.826276 
z
" style="fill: none; opacity: 0"/>
  </g>
  <g id="axes_1">
   <g id="QuadContourSet_1">
    <path d="M 3.291429 819.826276 
L 6.582857 819.826276 
L 9.874286 819.826276 
L 13.165714 819.826276 
L 16.457143 819.826276 
L 19.748571 819.826276 
L 23.04 819.826276 
L 26.331429 819.826276 
L 29.622857 819.826276 
L 32.914286 819.826276 
L 36.205714 819.826276 
L 39.497143 819.826276 
L 42.788571 819.826276 
L 46.08 819.826276 
L 49.371429 819.826276 
L 52.662857 819.826276 
L 55.954286 819.826276 
L 59.245714 819.826276 
L 62.537143 819.826276 
L 65.828571 819.826276 
L 69.12 819.826276 
L 72.411429 819.826276 
L 75.702857 819.826276 
L 78.994286 819.826276 
L 82.285714 819.826276 
L 85.577143 819.826276 
L 88.868571 819.826276 
L 92.16 819.826276 
L 95.451429 819.826276 
L 98.742857 819.826276 
L 102.034286 819.826276 
L 105.325714 819.826276 
L 108.617143 819.826276 
L 111.908571 819.826276 
L 115.2 819.826276 
L 118.491429 819.826276 
L 121.782857 819.826276 
L 125.074286 819.826276 
L 128.365714 819.826276 
L 131.657143 819.826276 
L 134.948571 819.826276 
L 138.24 819.826276 
L 141.531429 819.826276 
L 144.822857 819.826276 
L 148.114286 819.826276 
L 151.405714 819.826276 
L 154.697143 819.826276 
L 157.988571 819.826276 
L 161.28 819.826276 
L 164.571429 819.826276 
L 167.862857 819.826276 
L 171.154286 819.826276 
L 174.445714 819.826276 
L 177.737143 819.826276 
L 181.028571 819.826276 
L 184.32 819.826276 
L 187.611429 819.826276 
L 190.902857 819.826276 
L 194.194286 819.826276 
L 197.485714 819.826276 
L 200.777143 819.826276 
L 204.068571 819.826276 
L 207.36 819.826276 
L 210.651429 819.826276 
L 213.942857 819.826276 
L 217.234286 819.826276 
L 220.525714 819.826276 
L 223.817143 819.826276 
L 227.108571 819.826276 
L 230.4 819.826276 
L 233.691429 819.826276 
L 236.982857 819.826276 
L 240.274286 819.826276 
L 243.565714 819.826276 
L 246.857143 819.826276 
L 250.148571 819.826276 
L 253.44 819.826276 
L 256.731429 819.826276 
L 260.022857 819.826276 
L 263.314286 819.826276 
L 266.605714 819.826276 
L 269.897143 819.826276 
L 273.188571 819.826276 
L 276.48 819.826276 
L 279.771429 819.826276 
L 283.062857 819.826276 
L 286.354286 819.826276 
L 289.645714 819.826276 
L 292.937143 819.826276 
L 296.228571 819.826276 
L 299.52 819.826276 
L 302.811429 819.826276 
L 306.102857 819.826276 
L 309.394286 819.826276 
L 312.685714 819.826276 
L 315.977143 819.826276 
L 319.268571 819.826276 
L 322.56 819.826276 
L 325.851429 819.826276 
L 329.142857 819.826276 
L 332.434286 819.826276 
L 335.725714 819.826276 
L 339.017143 819.826276 
L 342.308571 819.826276 
L 345.6 819.826276 
L 348.891429 819.826276 
L 352.182857 819.826276 
L 355.474286 819.826276 
L 358.765714 819.826276 
L 362.057143 819.826276 
L 365.348571 819.826276 
L 368.64 819.826276 
L 371.931429 819.826276 
L 375.222857 819.826276 
L 378.514286 819.826276 
L 381.805714 819.826276 
L 385.097143 819.826276 
L 388.388571 819.826276 
L 391.68 819.826276 
L 394.971429 819.826276 
L 398.262857 819.826276 
L 401.554286 819.826276 
L 404.845714 819.826276 
L 408.137143 819.826276 
L 411.428571 819.826276 
L 414.72 819.826276 
L 418.011429 819.826276 
L 421.302857 819.826276 
L 424.594286 819.826276 
L 427.885714 819.826276 
L 431.177143 819.826276 
L 434.468571 819.826276 
L 437.76 819.826276 
L 441.051429 819.826276 
L 444.342857 819.826276 
L 447.634286 819.826276 
L 450.925714 819.826276 
L 454.217143 819.826276 
L 457.508571 819.826276 
L 460.8 819.826276 
L 464.091429 819.826276 
L 467.382857 819.826276 
L 470.674286 819.826276 
L 473.965714 819.826276 
L 477.257143 819.826276 
L 480.548571 819.826276 
L 483.84 819.826276 
L 487.131429 819.826276 
L 490.422857 819.826276 
L 493.714286 819.826276 
L 497.005714 819.826276 
L 500.297143 819.826276 
L 503.588571 819.826276 
L 506.88 819.826276 
L 510.171429 819.826276 
L 513.462857 819.826276 
L 516.754286 819.826276 
L 520.045714 819.826276 
L 523.337143 819.826276 
L 526.628571 819.826276 
L 529.92 819.826276 
L 533.211429 819.826276 
L 536.502857 819.826276 
L 539.794286 819.826276 
L 543.085714 819.826276 
L 546.377143 819.826276 
L 549.668571 819.826276 
L 552.96 819.826276 
L 556.251429 819.826276 
L 559.542857 819.826276 
L 562.834286 819.826276 
L 566.125714 819.826276 
L 569.417143 819.826276 
L 572.708571 819.826276 
L 576 819.826276 
L 576 816.533801 
L 576 813.241326 
L 576 809.948851 
L 576 806.656376 
L 576 803.363901 
L 576 800.071426 
L 576 796.778951 
L 576 793.486476 
L 576 790.194001 
L 576 786.901526 
L 576 783.609051 
L 576 780.316576 
L 576 777.024101 
L 576 773.731626 
L 576 770.439151 
L 576 767.146676 
L 576 763.854201 
L 576 760.561726 
L 576 757.269251 
L 576 753.976776 
L 576 750.684301 
L 576 747.391826 
L 576 744.099351 
L 576 740.806876 
L 576 737.514401 
L 576 734.221926 
L 576 730.929451 
L 576 727.636976 
L 576 724.344501 
L 576 721.052026 
L 576 717.759551 
L 576 714.467076 
L 576 711.174601 
L 576 707.882126 
L 576 704.589651 
L 576 701.297176 
L 576 698.004701 
L 576 694.712226 
L 576 691.419751 
L 576 688.127276 
L 576 684.834801 
L 576 681.542326 
L 576 678.249851 
L 576 674.957376 
L 576 671.664901 
L 576 668.372426 
L 576 665.079951 
L 576 661.787476 
L 576 658.495001 
L 576 655.202526 
L 576 651.910051 
L 576 648.617576 
L 576 645.325101 
L 576 642.032626 
L 576 638.740151 
L 576 635.447676 
L 576 632.155201 
L 576 628.862726 
L 576 625.570251 
L 576 622.277775 
L 576 618.9853 
L 576 615.692825 
L 576 612.40035 
L 576 609.107875 
L 576 605.8154 
L 576 602.522925 
L 576 599.23045 
L 576 595.937975 
L 576 592.6455 
L 576 589.353025 
L 576 586.06055 
L 576 582.768075 
L 576 579.4756 
L 576 576.183125 
L 576 572.89065 
L 576 569.598175 
L 576 566.3057 
L 576 563.013225 
L 576 559.72075 
L 576 556.428275 
L 576 553.1358 
L 576 549.843325 
L 576 546.55085 
L 576 543.258375 
L 576 539.9659 
L 576 536.673425 
L 576 533.38095 
L 576 530.088475 
L 576 526.796 
L 576 523.503525 
L 576 520.21105 
L 576 516.918575 
L 576 513.6261 
L 576 510.333625 
L 576 507.04115 
L 576 503.748675 
L 576 500.4562 
L 576 497.163725 
L 576 493.87125 
L 576 490.578775 
L 576 487.2863 
L 576 483.993825 
L 576 480.70135 
L 576 477.408875 
L 576 474.1164 
L 576 470.823925 
L 576 467.53145 
L 576 464.238975 
L 576 460.9465 
L 576 457.654025 
L 576 454.36155 
L 576 451.069075 
L 576 447.7766 
L 576 444.484125 
L 576 441.19165 
L 576 437.899175 
L 576 434.6067 
L 576 431.314225 
L 576 428.02175 
L 576 424.729275 
L 576 421.4368 
L 576 418.144325 
L 576 414.85185 
L 576 411.559375 
L 576 408.2669 
L 576 404.974425 
L 576 401.68195 
L 576 398.389475 
L 576 395.097 
L 576 391.804525 
L 576 388.51205 
L 576 385.219575 
L 576 381.9271 
L 576 378.634625 
L 576 375.34215 
L 576 372.049675 
L 576 368.7572 
L 576 365.464725 
L 576 362.17225 
L 576 358.879775 
L 576 355.5873 
L 576 352.294825 
L 576 349.00235 
L 576 345.709875 
L 576 342.4174 
L 576 339.124925 
L 576 335.83245 
L 576 332.539975 
L 576 329.2475 
L 576 325.955025 
L 576 322.66255 
L 576 319.370075 
L 576 316.0776 
L 576 312.785125 
L 576 309.49265 
L 576 306.200175 
L 576 302.9077 
L 576 299.615225 
L 576 296.32275 
L 576 293.030275 
L 576 289.7378 
L 576 286.445325 
L 576 283.15285 
L 576 279.860375 
L 576 276.5679 
L 576 273.275425 
L 576 269.98295 
L 576 266.690475 
L 576 263.398 
L 576 260.105525 
L 576 256.81305 
L 576 253.520575 
L 576 250.2281 
L 576 246.935625 
L 576 243.64315 
L 576 240.350675 
L 576 237.0582 
L 576 233.765725 
L 576 230.47325 
L 576 227.180775 
L 576 223.8883 
L 576 220.595825 
L 576 217.30335 
L 576 214.010875 
L 576 210.7184 
L 576 207.425925 
L 576 204.13345 
L 576 200.840975 
L 576 197.5485 
L 576 194.256025 
L 576 190.96355 
L 576 187.671075 
L 576 184.3786 
L 576 181.086125 
L 576 177.79365 
L 576 174.501175 
L 576 171.2087 
L 576 167.916225 
L 576 164.62375 
L 576 161.331275 
L 576 158.0388 
L 576 154.746325 
L 576 151.45385 
L 576 148.161375 
L 576 144.8689 
L 576 141.576425 
L 576 138.28395 
L 576 134.991475 
L 576 131.699 
L 576 128.406525 
L 576 125.11405 
L 576 121.821575 
L 576 118.5291 
L 576 115.236625 
L 576 111.94415 
L 576 108.651675 
L 576 105.3592 
L 576 102.066725 
L 576 98.77425 
L 576 95.481775 
L 576 92.1893 
L 576 88.896825 
L 576 85.60435 
L 576 82.311875 
L 576 79.0194 
L 576 75.726925 
L 576 72.43445 
L 576 69.141975 
L 576 65.8495 
L 576 62.557025 
L 576 59.26455 
L 576 55.972075 
L 576 52.6796 
L 576 49.387125 
L 576 46.09465 
L 576 42.802175 
L 576 39.5097 
L 576 36.217225 
L 576 32.92475 
L 576 29.632275 
L 576 26.3398 
L 576 23.047325 
L 576 19.75485 
L 576 16.462375 
L 576 13.1699 
L 576 9.877425 
L 576 6.58495 
L 576 3.292475 
L 576 0 
L 572.708571 0 
L 569.417143 0 
L 566.125714 0 
L 562.834286 0 
L 559.542857 0 
L 556.251429 0 
L 552.96 0 
L 549.668571 0 
L 546.377143 0 
L 543.085714 0 
L 539.794286 0 
L 536.502857 0 
L 533.211429 0 
L 529.92 0 
L 526.628571 0 
L 523.337143 0 
L 520.045714 0 
L 516.754286 0 
L 513.462857 0 
L 510.171429 0 
L 506.88 0 
L 503.588571 0 
L 500.297143 0 
L 497.005714 0 
L 493.714286 0 
L 490.422857 0 
L 487.131429 0 
L 483.84 0 
L 480.548571 0 
L 477.257143 0 
L 473.965714 0 
L 470.674286 0 
L 467.382857 0 
L 464.091429 0 
L 460.8 0 
L 457.508571 0 
L 454.217143 0 
L 450.925714 0 
L 447.634286 0 
L 444.342857 0 
L 441.051429 0 
L 437.76 0 
L 434.468571 0 
L 431.177143 0 
L 427.885714 0 
L 424.594286 0 
L 421.302857 0 
L 418.011429 0 
L 414.72 0 
L 411.428571 0 
L 408.137143 0 
L 404.845714 0 
L 401.554286 0 
L 398.262857 0 
L 394.971429 0 
L 391.68 0 
L 388.388571 0 
L 385.097143 0 
L 381.805714 0 
L 378.514286 0 
L 375.222857 0 
L 371.931429 0 
L 368.64 0 
L 365.348571 0 
L 362.057143 0 
L 358.765714 0 
L 355.474286 0 
L 352.182857 0 
L 348.891429 0 
L 345.6 0 
L 342.308571 0 
L 339.017143 0 
L 335.725714 0 
L 332.434286 0 
L 329.142857 0 
L 325.851429 0 
L 322.56 0 
L 319.268571 0 
L 315.977143 0 
L 312.685714 0 
L 309.394286 0 
L 306.102857 0 
L 302.811429 0 
L 299.52 0 
L 296.228571 0 
L 292.937143 0 
L 289.645714 0 
L 286.354286 0 
L 283.062857 0 
L 279.771429 0 
L 276.48 0 
L 273.188571 0 
L 269.897143 0 
L 266.605714 0 
L 263.314286 0 
L 260.022857 0 
L 256.731429 0 
L 253.44 0 
L 250.148571 0 
L 246.857143 0 
L 243.565714 0 
L 240.274286 0 
L 236.982857 0 
L 233.691429 0 
L 230.4 0 
L 227.108571 0 
L 223.817143 0 
L 220.525714 0 
L 217.234286 0 
L 213.942857 0 
L 210.651429 0 
L 207.36 0 
L 204.068571 0 
L 200.777143 0 
L 197.485714 0 
L 194.194286 0 
L 190.902857 0 
L 187.611429 0 
L 184.32 0 
L 181.028571 0 
L 177.737143 0 
L 174.445714 0 
L 171.154286 0 
L 167.862857 0 
L 164.571429 0 
L 161.28 0 
L 157.988571 0 
L 154.697143 0 
L 151.405714 0 
L 148.114286 0 
L 144.822857 0 
L 141.531429 0 
L 138.24 0 
L 134.948571 0 
L 131.657143 0 
L 128.365714 0 
L 125.074286 0 
L 121.782857 0 
L 118.491429 0 
L 115.2 0 
L 111.908571 0 
L 108.617143 0 
L 105.325714 0 
L 102.034286 0 
L 98.742857 0 
L 95.451429 0 
L 92.16 0 
L 88.868571 0 
L 85.577143 0 
L 82.285714 0 
L 78.994286 0 
L 75.702857 0 
L 72.411429 0 
L 69.12 0 
L 65.828571 0 
L 62.537143 0 
L 59.245714 0 
L 55.954286 0 
L 52.662857 0 
L 49.371429 0 
L 46.08 0 
L 42.788571 0 
L 39.497143 0 
L 36.205714 0 
L 32.914286 0 
L 29.622857 0 
L 26.331429 0 
L 23.04 0 
L 19.748571 0 
L 16.457143 0 
L 13.165714 0 
L 9.874286 0 
L 6.582857 0 
L 3.291429 0 
L 0 0 
L 0 3.292475 
L 0 6.58495 
L 0 9.877425 
L 0 13.1699 
L 0 16.462375 
L 0 19.75485 
L 0 23.047325 
L 0 26.3398 
L 0 29.632275 
L 0 32.92475 
L 0 36.217225 
L 0 39.5097 
L 0 42.802175 
L 0 46.09465 
L 0 49.387125 
L 0 52.6796 
L 0 55.972075 
L 0 59.26455 
L 0 62.557025 
L 0 65.8495 
L 0 69.141975 
L 0 72.43445 
L 0 75.726925 
L 0 79.0194 
L 0 82.311875 
L 0 85.60435 
L 0 88.896825 
L 0 92.1893 
L 0 95.481775 
L 0 98.77425 
L 0 102.066725 
L 0 105.3592 
L 0 108.651675 
L 0 111.94415 
L 0 115.236625 
L 0 118.5291 
L 0 121.821575 
L 0 125.11405 
L 0 128.406525 
L 0 131.699 
L 0 134.991475 
L 0 138.28395 
L 0 141.576425 
L 0 144.8689 
L 0 148.161375 
L 0 151.45385 
L 0 154.746325 
L 0 158.0388 
L 0 161.331275 
L 0 164.62375 
L 0 167.916225 
L 0 171.2087 
L 0 174.501175 
L 0 177.79365 
L 0 181.086125 
L 0 184.3786 
L 0 187.671075 
L 0 190.96355 
L 0 194.256025 
L 0 197.5485 
L 0 200.840975 
L 0 204.13345 
L 0 207.425925 
L 0 210.7184 
L 0 214.010875 
L 0 217.30335 
L 0 220.595825 
L 0 223.8883 
L 0 227.180775 
L 0 230.47325 
L 0 233.765725 
L 0 237.0582 
L 0 240.350675 
L 0 243.64315 
L 0 246.935625 
L 0 250.2281 
L 0 253.520575 
L 0 256.81305 
L 0 260.105525 
L 0 263.398 
L 0 266.690475 
L 0 269.98295 
L 0 273.275425 
L 0 276.5679 
L 0 279.860375 
L 0 283.15285 
L 0 286.445325 
L 0 289.7378 
L 0 293.030275 
L 0 296.32275 
L 0 299.615225 
L 0 302.9077 
L 0 306.200175 
L 0 309.49265 
L 0 312.785125 
L 0 316.0776 
L 0 319.370075 
L 0 322.66255 
L 0 325.955025 
L 0 329.2475 
L 0 332.539975 
L 0 335.83245 
L 0 339.124925 
L 0 342.4174 
L 0 345.709875 
L 0 349.00235 
L 0 352.294825 
L 0 355.5873 
L 0 358.879775 
L 0 362.17225 
L 0 365.464725 
L 0 368.7572 
L 0 372.049675 
L 0 375.34215 
L 0 378.634625 
L 0 381.9271 
L 0 385.219575 
L 0 388.51205 
L 0 391.804525 
L 0 395.097 
L 0 398.389475 
L 0 401.68195 
L 0 404.974425 
L 0 408.2669 
L 0 411.559375 
L 0 414.85185 
L 0 418.144325 
L 0 421.4368 
L 0 424.729275 
L 0 428.02175 
L 0 431.314225 
L 0 434.6067 
L 0 437.899175 
L 0 441.19165 
L 0 444.484125 
L 0 447.7766 
L 0 451.069075 
L 0 454.36155 
L 0 457.654025 
L 0 460.9465 
L 0 464.238975 
L 0 467.53145 
L 0 470.823925 
L 0 474.1164 
L 0 477.408875 
L 0 480.70135 
L 0 483.993825 
L 0 487.2863 
L 0 490.578775 
L 0 493.87125 
L 0 497.163725 
L 0 500.4562 
L 0 503.748675 
L 0 507.04115 
L 0 510.333625 
L 0 513.6261 
L 0 516.918575 
L 0 520.21105 
L 0 523.503525 
L 0 526.796 
L 0 530.088475 
L 0 533.38095 
L 0 536.673425 
L 0 539.9659 
L 0 543.258375 
L 0 546.55085 
L 0 549.843325 
L 0 553.1358 
L 0 556.428275 
L 0 559.72075 
L 0 563.013225 
L 0 566.3057 
L 0 569.598175 
L 0 572.89065 
L 0 576.183125 
L 0 579.4756 
L 0 582.768075 
L 0 586.06055 
L 0 589.353025 
L 0 592.6455 
L 0 595.937975 
L 0 599.23045 
L 0 602.522925 
L 0 605.8154 
L 0 609.107875 
L 0 612.40035 
L 0 615.692825 
L 0 618.9853 
L 0 622.277775 
L 0 625.570251 
L 0 628.862726 
L 0 632.155201 
L 0 635.447676 
L 0 638.740151 
L 0 642.032626 
L 0 645.325101 
L 0 648.617576 
L 0 651.910051 
L 0 655.202526 
L 0 658.495001 
L 0 661.787476 
L 0 665.079951 
L 0 668.372426 
L 0 671.664901 
L 0 674.957376 
L 0 678.249851 
L 0 681.542326 
L 0 684.834801 
L 0 688.127276 
L 0 691.419751 
L 0 694.712226 
L 0 698.004701 
L 0 701.297176 
L 0 704.589651 
L 0 707.882126 
L 0 711.174601 
L 0 714.467076 
L 0 717.759551 
L 0 721.052026 
L 0 724.344501 
L 0 727.636976 
L 0 730.929451 
L 0 734.221926 
L 0 737.514401 
L 0 740.806876 
L 0 744.099351 
L 0 747.391826 
L 0 750.684301 
L 0 753.976776 
L 0 757.269251 
L 0 760.561726 
L 0 763.854201 
L 0 767.146676 
L 0 770.439151 
L 0 773.731626 
L 0 777.024101 
L 0 780.316576 
L 0 783.609051 
L 0 786.901526 
L 0 790.194001 
L 0 793.486476 
L 0 796.778951 
L 0 800.071426 
L 0 803.363901 
L 0 806.656376 
L 0 809.948851 
L 0 813.241326 
L 0 816.533801 
L 0 819.826276 
z
" clip-path="url(#p1c0500ae44)" style="fill: #f5f9fe; fill-opacity: 0.9"/>
    <path clip-path="url(#p1c0500ae44)" style="fill: #eff6fc; fill-opacity: 0.9"/>
    <path clip-path="url(#p1c0500ae44)" style="fill: #eaf3fb; fill-opacity: 0.9"/>
    <path clip-path="url(#p1c0500ae44)" style="fill: #e5eff9; fill-opacity: 0.9"/>
    <path clip-path="url(#p1c0500ae44)" style="fill: #dfecf7; fill-opacity: 0.9"/>
    <path clip-path="url(#p1c0500ae44)" style="fill: #dae8f6; fill-opacity: 0.9"/>
    <path clip-path="url(#p1c0500ae44)" style="fill: #d6e5f4; fill-opacity: 0.9"/>
    <path clip-path="url(#p1c0500ae44)" style="fill: #d0e2f2; fill-opacity: 0.9"/>
    <path clip-path="url(#p1c0500ae44)" style="fill: #cbdef1; fill-opacity: 0.9"/>
    <path clip-path="url(#p1c0500ae44)" style="fill: #c6dbef; fill-opacity: 0.9"/>
    <path clip-path="url(#p1c0500ae44)" style="fill: #bed8ec; fill-opacity: 0.9"/>
    <path clip-path="url(#p1c0500ae44)" style="fill: #b5d4e9; fill-opacity: 0.9"/>
    <path clip-path="url(#p1c0500ae44)" style="fill: #add0e6; fill-opacity: 0.9"/>
    <path clip-path="url(#p1c0500ae44)" style="fill: #a5cde3; fill-opacity: 0.9"/>
    <path clip-path="url(#p1c0500ae44)" style="fill: #9cc9e1; fill-opacity: 0.9"/>
    <path clip-path="url(#p1c0500ae44)" style="fill: #91c3de; fill-opacity: 0.9"/>
    <path clip-path="url(#p1c0500ae44)" style="fill: #85bcdc; fill-opacity: 0.9"/>
    <path clip-path="url(#p1c0500ae44)" style="fill: #7cb7da; fill-opacity: 0.9"/>
    <path clip-path="url(#p1c0500ae44)" style="fill: #71b1d7; fill-opacity: 0.9"/>
    <path clip-path="url(#p1c0500ae44)" style="fill: #66abd4; fill-opacity: 0.9"/>
    <path clip-path="url(#p1c0500ae44)" style="fill: #5da5d1; fill-opacity: 0.9"/>
    <path clip-path="url(#p1c0500ae44)" style="fill: #56a0ce; fill-opacity: 0.9"/>
    <path clip-path="url(#p1c0500ae44)" style="fill: #4d99ca; fill-opacity: 0.9"/>
    <path clip-path="url(#p1c0500ae44)" style="fill: #4493c7; fill-opacity: 0.9"/>
    <path clip-path="url(#p1c0500ae44)" style="fill: #3c8cc3; fill-opacity: 0.9"/>
    <path clip-path="url(#p1c0500ae44)" style="fill: #3686c0; fill-opacity: 0.9"/>
    <path clip-path="url(#p1c0500ae44)" style="fill: #2f7fbc; fill-opacity: 0.9"/>
    <path clip-path="url(#p1c0500ae44)" style="fill: #2777b8; fill-opacity: 0.9"/>
    <path clip-path="url(#p1c0500ae44)" style="fill: #2070b4; fill-opacity: 0.9"/>
    <path clip-path="url(#p1c0500ae44)" style="fill: #1c6ab0; fill-opacity: 0.9"/>
    <path clip-path="url(#p1c0500ae44)" style="fill: #1663aa; fill-opacity: 0.9"/>
    <path clip-path="url(#p1c0500ae44)" style="fill: #115ca5; fill-opacity: 0.9"/>
    <path clip-path="url(#p1c0500ae44)" style="fill: #0c56a0; fill-opacity: 0.9"/>
    <path clip-path="url(#p1c0500ae44)" style="fill: #084f99; fill-opacity: 0.9"/>
    <path clip-path="url(#p1c0500ae44)" style="fill: #08488e; fill-opacity: 0.9"/>
    <path clip-path="url(#p1c0500ae44)" style="fill: #084184; fill-opacity: 0.9"/>
    <path clip-path="url(#p1c0500ae44)" style="fill: #083a7a; fill-opacity: 0.9"/>
    <path clip-path="url(#p1c0500ae44)" style="fill: #083370; fill-opacity: 0.9"/>
    <path clip-path="url(#p1c0500ae44)" style="fill: #08306b; fill-opacity: 0.9"/>
   </g>
   <g id="QuadContourSet_2">
    <path clip-path="url(#p1c0500ae44)" style="fill: none"/>
    <path clip-path="url(#p1c0500ae44)" style="fill: none"/>
    <path clip-path="url(#p1c0500ae44)" style="fill: none"/>
    <path clip-path="url(#p1c0500ae44)" style="fill: none"/>
    <path clip-path="url(#p1c0500ae44)" style="fill: none"/>
    <path clip-path="url(#p1c0500ae44)" style="fill: none"/>
    <path clip-path="url(#p1c0500ae44)" style="fill: none"/>
    <path clip-path="url(#p1c0500ae44)" style="fill: none"/>
    <path clip-path="url(#p1c0500ae44)" style="fill: none"/>
    <path clip-path="url(#p1c0500ae44)" style="fill: none"/>
    <path clip-path="url(#p1c0500ae44)" style="fill: none"/>
    <path clip-path="url(#p1c0500ae44)" style="fill: none"/>
    <path clip-path="url(#p1c0500ae44)" style="fill: none"/>
    <path clip-path="url(#p1c0500ae44)" style="fill: none"/>
    <path clip-path="url(#p1c0500ae44)" style="fill: none"/>
    <path clip-path="url(#p1c0500ae44)" style="fill: none"/>
    <path clip-path="url(#p1c0500ae44)" style="fill: none"/>
    <path clip-path="url(#p1c0500ae44)" style="fill: none"/>
    <path clip-path="url(#p1c0500ae44)" style="fill: none"/>
    <path clip-path="url(#p1c0500ae44)" style="fill: none"/>
    <path clip-path="url(#p1c0500ae44)" style="fill: none"/>
    <path clip-path="url(#p1c0500ae44)" style="fill: none"/>
    <path clip-path="url(#p1c0500ae44)" style="fill: none"/>
    <path clip-path="url(#p1c0500ae44)" style="fill: none"/>
    <path clip-path="url(#p1c0500ae44)" style="fill: none"/>
    <path clip-path="url(#p1c0500ae44)" style="fill: none"/>
    <path clip-path="url(#p1c0500ae44)" style="fill: none"/>
    <path clip-path="url(#p1c0500ae44)" style="fill: none"/>
    <path clip-path="url(#p1c0500ae44)" style="fill: none"/>
    <path clip-path="url(#p1c0500ae44)" style="fill: none"/>
    <path clip-path="url(#p1c0500ae44)" style="fill: none"/>
    <path clip-path="url(#p1c0500ae44)" style="fill: none"/>
    <path clip-path="url(#p1c0500ae44)" style="fill: none"/>
    <path clip-path="url(#p1c0500ae44)" style="fill: none"/>
    <path clip-path="url(#p1c0500ae44)" style="fill: none"/>
    <path clip-path="url(#p1c0500ae44)" style="fill: none"/>
    <path clip-path="url(#p1c0500ae44)" style="fill: none"/>
    <path clip-path="url(#p1c0500ae44)" style="fill: none"/>
    <path clip-path="url(#p1c0500ae44)" style="fill: none"/>
   </g>
  </g>
 </g>
 <defs>
  <clipPath id="p1c0500ae44">
   <rect x="0" y="0" width="576" height="819.826276"/>
  </clipPath>
 </defs>
</svg>
