<?xml version="1.0" encoding="utf-8" standalone="no"?>
<!DOCTYPE svg PUBLIC "-//W3C//DTD SVG 1.1//EN"
  "http://www.w3.org/Graphics/SVG/1.1/DTD/svg11.dtd">
<svg xmlns:xlink="http://www.w3.org/1999/xlink" width="576pt" height="816.083933pt" viewBox="0 0 576 816.083933" xmlns="http://www.w3.org/2000/svg" version="1.1">
 <metadata>
  <rdf:RDF xmlns:dc="http://purl.org/dc/elements/1.1/" xmlns:cc="http://creativecommons.org/ns#" xmlns:rdf="http://www.w3.org/1999/02/22-rdf-syntax-ns#">
   <cc:Work>
    <dc:type rdf:resource="http://purl.org/dc/dcmitype/StillImage"/>
    <dc:date>2025-07-25T22:44:56.020099</dc:date>
    <dc:format>image/svg+xml</dc:format>
    <dc:creator>
     <cc:Agent>
      <dc:title>Matplotlib v3.10.3, https://matplotlib.org/</dc:title>
     </cc:Agent>
    </dc:creator>
   </cc:Work>
  </rdf:RDF>
 </metadata>
 <defs>
  <style type="text/css">*{stroke-linejoin: round; stroke-linecap: butt}</style>
 </defs>
 <g id="figure_1">
  <g id="patch_1">
   <path d="M 0 816.083933 
L 576 816.083933 
L 576 0 
L 0 0 
L 0 816.083933 
z
" style="fill: none; opacity: 0"/>
  </g>
  <g id="axes_1">
   <g id="QuadContourSet_1">
    <path d="M 576 162.13045 
L 576 160.59483 
L 576 159.263899 
L 572.727273 158.249909 
L 570.727273 157.317385 
L 569.454545 156.025635 
L 566.181818 154.974739 
L 564.130825 154.039939 
L 562.909091 152.799225 
L 559.636364 151.69966 
L 557.529791 150.762494 
L 556.363636 149.577473 
L 553.090909 149.512781 
L 550.913557 150.762494 
L 549.818182 153.651137 
L 549.50001 154.039939 
L 546.545455 154.368414 
L 545.833459 154.039939 
L 543.272727 152.036239 
L 540 151.01974 
L 539.507898 150.762494 
L 536.727273 148.652011 
L 533.454545 147.5981 
L 533.238283 147.485048 
L 530.181818 145.278185 
L 527.03551 144.207603 
L 526.909091 144.074027 
L 523.636364 142.14022 
L 520.826094 140.930157 
L 520.363636 140.443467 
L 519.918118 140.930157 
L 519.055555 144.207603 
L 518.188692 147.485048 
L 517.090909 147.803099 
L 515.526644 147.485048 
L 513.818182 146.550183 
L 510.545455 145.164261 
L 508.428325 144.207603 
L 507.272727 142.953625 
L 504 141.770687 
L 502.158494 140.930157 
L 500.727273 139.379457 
L 497.454545 138.379029 
L 495.878784 137.652712 
L 494.181818 135.816777 
L 490.909091 135.426857 
L 487.636364 134.508362 
L 487.21185 137.652712 
L 486.856435 140.930157 
L 484.363636 141.772947 
L 481.090909 140.999206 
L 480.922699 140.930157 
L 477.818182 138.912533 
L 474.545455 138.312341 
L 472.938537 137.652712 
L 471.272727 135.894417 
L 468 135.08959 
L 465.190802 134.375266 
L 464.727273 133.737524 
L 461.454545 131.754589 
L 458.181818 131.878825 
L 455.036801 134.375266 
L 455.053406 137.652712 
L 454.909091 137.792348 
L 451.636364 139.088205 
L 448.363636 138.46928 
L 446.257563 137.652712 
L 445.090909 136.433766 
L 441.818182 135.332257 
L 438.545455 134.662568 
L 437.804451 134.375266 
L 435.272727 132.03659 
L 432 131.527988 
L 430.087963 131.097821 
L 428.727273 128.620779 
L 425.454545 127.894366 
L 423.970816 127.820375 
L 425.454545 127.439221 
L 428.727273 126.587239 
L 432 125.750101 
L 435.272727 125.720737 
L 438.545455 125.882681 
L 441.818182 125.906057 
L 445.090909 125.774396 
L 448.363636 125.587302 
L 451.636364 125.04643 
L 454.662673 124.54293 
L 454.909091 124.501932 
L 458.181818 123.97247 
L 461.454545 123.49121 
L 464.727273 123.407168 
L 468 123.138704 
L 471.272727 122.700976 
L 474.545455 121.991761 
L 477.114727 121.265484 
L 477.818182 120.989726 
L 481.090909 119.024082 
L 484.363636 118.37801 
L 487.636364 118.290885 
L 490.909091 118.292202 
L 494.181818 118.457264 
L 496.21302 117.988039 
L 497.454545 117.526935 
L 500.727273 115.924815 
L 503.783999 114.710593 
L 504 114.656219 
L 505.163291 114.710593 
L 507.272727 114.80715 
L 510.545455 114.803556 
L 511.38236 114.710593 
L 513.818182 114.38805 
L 517.090909 114.253205 
L 520.363636 114.296485 
L 523.636364 114.137078 
L 526.909091 114.400263 
L 530.181818 114.689735 
L 530.418061 114.710593 
L 533.454545 114.97869 
L 536.727273 115.267645 
L 540 115.499979 
L 543.272727 115.686333 
L 545.348137 114.710593 
L 546.545455 113.311579 
L 549.818182 113.654173 
L 552.049843 114.710593 
L 553.090909 115.203411 
L 556.363636 116.752649 
L 559.313736 117.988039 
L 559.636364 118.112266 
L 562.909091 118.765256 
L 566.181818 118.275029 
L 566.701379 117.988039 
L 568.684296 114.710593 
L 569.454545 114.293347 
L 571.528997 114.710593 
L 572.727273 114.935945 
L 576 114.881457 
L 576 114.710593 
L 576 113.998379 
L 574.914801 111.433148 
L 575.145891 108.155702 
L 576 106.504195 
L 576 104.878256 
L 576 103.669647 
L 575.102428 101.600811 
L 573.531676 98.323365 
L 572.727273 97.02375 
L 571.611411 95.04592 
L 569.454545 92.44467 
L 568.751205 91.768474 
L 567.058556 88.491029 
L 566.181818 86.872753 
L 565.306374 85.213583 
L 563.577063 81.936138 
L 566.181818 80.436733 
L 569.454545 81.497745 
L 570.398308 81.936138 
L 572.727273 83.097207 
L 576 85.146182 
L 576 81.936138 
L 576 78.658692 
L 576 75.381247 
L 576 72.103801 
L 576 71.911142 
L 572.727273 70.056332 
L 569.723769 68.826356 
L 569.454545 68.653028 
L 566.181818 67.375878 
L 562.909091 66.035651 
L 561.720508 65.54891 
L 559.636364 64.553383 
L 556.363636 63.365651 
L 553.717247 62.271465 
L 553.090909 61.893416 
L 549.818182 60.724366 
L 546.545455 59.408287 
L 545.70634 58.994019 
L 543.272727 57.713803 
L 540.018364 55.716574 
L 540 55.701978 
L 536.727273 53.696805 
L 534.677965 52.439128 
L 533.454545 51.688306 
L 530.181818 49.757225 
L 529.028928 49.161683 
L 526.909091 48.02203 
L 523.636364 47.595871 
L 521.353733 49.161683 
L 522.389134 52.439128 
L 523.636364 53.661179 
L 525.642548 55.716574 
L 526.909091 56.958719 
L 528.984367 58.994019 
L 530.181818 60.168404 
L 532.326186 62.271465 
L 533.454545 63.378088 
L 535.668006 65.54891 
L 536.727273 66.587773 
L 539.009825 68.826356 
L 540 69.797457 
L 542.605676 72.103801 
L 543.272727 72.67169 
L 546.531949 75.381247 
L 546.545455 75.397838 
L 549.818182 78.11326 
L 550.474262 78.658692 
L 553.090909 80.834045 
L 554.416575 81.936138 
L 556.363636 84.132635 
L 557.766308 85.213583 
L 559.636364 88.151363 
L 560.27611 88.491029 
L 559.636364 89.149411 
L 556.363636 89.088552 
L 554.900749 88.491029 
L 553.090909 87.800596 
L 549.818182 85.901405 
L 548.779114 85.213583 
L 546.545455 83.73499 
L 543.827992 81.936138 
L 543.272727 81.568575 
L 540 79.40216 
L 539.191932 78.658692 
L 536.727273 75.901812 
L 536.365188 75.381247 
L 534.085525 72.103801 
L 533.454545 71.249291 
L 531.73904 68.826356 
L 530.181818 67.077273 
L 529.031151 65.54891 
L 526.909091 63.209309 
L 526.125855 62.271465 
L 523.636364 59.548542 
L 523.129379 58.994019 
L 520.363636 55.968942 
L 520.132903 55.716574 
L 517.159407 52.439128 
L 517.090909 52.36805 
L 514.261557 49.161683 
L 513.818182 48.757378 
L 510.545455 46.998103 
L 507.291517 45.884237 
L 507.272727 45.874229 
L 504 44.757507 
L 500.727273 43.637209 
L 497.717113 42.606792 
L 497.454545 42.516911 
L 494.181818 41.884088 
L 490.909091 42.235414 
L 489.833963 42.606792 
L 489.03827 45.884237 
L 490.909091 47.25372 
L 493.515517 49.161683 
L 494.181818 49.663363 
L 497.454545 52.04514 
L 497.992765 52.439128 
L 500.727273 54.44085 
L 502.470012 55.716574 
L 504 56.836559 
L 506.947259 58.994019 
L 507.272727 59.232269 
L 510.545455 61.769881 
L 511.157254 62.271465 
L 513.818182 64.453027 
L 515.154869 65.54891 
L 517.090909 67.136174 
L 519.152483 68.826356 
L 520.363636 70.747126 
L 522.450268 72.103801 
L 520.363636 74.326243 
L 517.090909 73.659753 
L 513.818182 72.687437 
L 511.890117 72.103801 
L 510.545455 71.696765 
L 507.272727 70.706092 
L 505.098406 68.826356 
L 504 67.558431 
L 502.63494 65.54891 
L 500.727273 62.740611 
L 500.408583 62.271465 
L 497.996691 58.994019 
L 497.454545 58.549549 
L 494.292823 55.716574 
L 494.181818 55.624143 
L 490.909091 52.899022 
L 490.356783 52.439128 
L 487.636364 50.173901 
L 486.420742 49.161683 
L 484.363636 47.448781 
L 482.484702 45.884237 
L 481.090909 44.72366 
L 477.930133 42.606792 
L 477.818182 42.482473 
L 474.545455 41.712095 
L 471.272727 40.882482 
L 468 40.05287 
L 465.145782 39.329346 
L 464.727273 39.223257 
L 461.454545 39.190745 
L 461.242916 39.329346 
L 461.369757 42.606792 
L 461.454545 42.676862 
L 463.905406 45.884237 
L 464.727273 46.610195 
L 467.615848 49.161683 
L 468 49.501005 
L 471.272727 52.391815 
L 471.326291 52.439128 
L 474.545455 55.282626 
L 475.213811 55.716574 
L 477.818182 57.282606 
L 480.900427 58.994019 
L 481.090909 59.151268 
L 484.363636 60.916963 
L 486.803086 62.271465 
L 487.636364 63.262301 
L 490.909091 64.55132 
L 492.705744 65.54891 
L 494.181818 68.685294 
L 497.454545 68.627653 
L 497.83678 68.826356 
L 497.454545 69.228385 
L 494.181818 68.92161 
L 493.16563 68.826356 
L 490.909091 68.577825 
L 487.636364 68.30806 
L 484.363636 68.476809 
L 481.090909 68.761959 
L 480.410168 68.826356 
L 477.818182 68.952406 
L 474.545455 68.984626 
L 471.660315 68.826356 
L 471.272727 68.787375 
L 470.733146 68.826356 
L 468 68.946959 
L 464.727273 69.091371 
L 461.454545 69.209307 
L 458.181818 69.23473 
L 454.909091 68.984389 
L 451.722804 68.826356 
L 451.636364 68.820891 
L 448.363636 68.360725 
L 445.090909 67.619918 
L 441.818182 67.54567 
L 438.545455 67.70574 
L 435.272727 67.912183 
L 432 67.924956 
L 428.727273 67.937728 
L 425.454545 68.067612 
L 422.181818 68.23456 
L 418.909091 67.724666 
L 415.636364 67.272666 
L 412.363636 67.033962 
L 409.090909 67.02944 
L 405.818182 67.336933 
L 402.545455 67.943605 
L 399.272727 67.759512 
L 396 67.639717 
L 392.727273 67.855253 
L 389.454545 67.550656 
L 386.181818 67.125529 
L 382.909091 66.914356 
L 379.636364 66.692898 
L 376.363636 66.354955 
L 373.090909 66.764648 
L 369.818182 67.589121 
L 366.545455 67.371934 
L 363.272727 66.69316 
L 360 65.979736 
L 357.384457 65.54891 
L 356.727273 65.44299 
L 353.454545 64.973303 
L 350.181818 64.516294 
L 346.909091 63.527733 
L 343.636364 62.939709 
L 340.363636 62.696577 
L 337.956314 62.271465 
L 337.090909 62.014622 
L 333.818182 61.747109 
L 330.545455 61.210972 
L 327.272727 60.590412 
L 324 59.973354 
L 320.727273 59.360024 
L 318.77427 58.994019 
L 317.454545 58.748762 
L 314.181818 58.133633 
L 310.909091 57.61239 
L 307.636364 57.060252 
L 304.363636 56.57822 
L 301.090909 56.316803 
L 297.818182 56.382148 
L 294.545455 56.350416 
L 291.272727 56.284419 
L 288 55.878994 
L 286.998115 55.716574 
L 284.727273 55.355133 
L 281.454545 54.844378 
L 278.181818 54.332154 
L 274.909091 53.86214 
L 271.636364 53.367305 
L 268.363636 52.85138 
L 265.090909 52.859725 
L 261.818182 52.978671 
L 258.545455 53.097617 
L 255.272727 53.212048 
L 252 53.162264 
L 248.727273 53.076601 
L 245.454545 52.628617 
L 244.070242 52.439128 
L 242.181818 52.180633 
L 238.909091 51.73265 
L 235.636364 51.284666 
L 232.363636 51.061618 
L 229.090909 51.050932 
L 225.818182 50.956767 
L 222.545455 50.870708 
L 219.272727 50.791751 
L 216 50.719053 
L 212.727273 50.593088 
L 209.454545 50.455995 
L 206.181818 50.318903 
L 202.909091 50.18181 
L 199.636364 50.044718 
L 196.363636 50.027586 
L 193.090909 50.023883 
L 189.818182 50.001947 
L 186.545455 49.977681 
L 183.272727 49.954583 
L 180 49.932572 
L 176.727273 49.878854 
L 173.454545 49.799256 
L 170.181818 49.719658 
L 166.909091 49.640059 
L 163.636364 49.576405 
L 160.363636 49.571777 
L 157.090909 49.56715 
L 153.818182 49.562935 
L 150.545455 49.558972 
L 147.272727 49.554996 
L 144 49.551006 
L 140.727273 49.548078 
L 137.454545 49.548977 
L 134.181818 49.549876 
L 130.909091 49.550775 
L 127.636364 49.548481 
L 124.363636 49.542563 
L 121.090909 49.536646 
L 117.818182 49.530939 
L 114.545455 49.525651 
L 111.272727 49.520345 
L 108 49.51502 
L 104.727273 49.509676 
L 101.454545 49.508557 
L 98.181818 49.508332 
L 94.909091 49.508107 
L 91.636364 49.502995 
L 88.363636 49.495616 
L 85.090909 49.488237 
L 81.818182 49.480859 
L 78.545455 49.474035 
L 75.272727 49.467189 
L 72 49.460319 
L 68.727273 49.453424 
L 65.454545 49.448558 
L 62.181818 49.447016 
L 58.909091 49.445473 
L 55.636364 49.407078 
L 52.363636 49.362662 
L 49.090909 49.318247 
L 45.818182 49.273831 
L 42.545455 49.229496 
L 39.272727 49.185061 
L 37.554708 49.161683 
L 36 49.145407 
L 32.727273 49.111205 
L 29.454545 49.078263 
L 26.181818 49.047742 
L 22.909091 49.017083 
L 19.636364 48.933351 
L 16.363636 48.853553 
L 13.090909 48.764442 
L 9.818182 48.672439 
L 6.545455 48.578128 
L 3.272727 48.481422 
L -0 48.382228 
L -0 49.161683 
L -0 52.439128 
L -0 55.716574 
L -0 58.994019 
L -0 62.271465 
L -0 65.54891 
L -0 68.826356 
L -0 72.103801 
L -0 75.381247 
L -0 76.037729 
L 3.272727 76.357148 
L 6.545455 76.655784 
L 9.818182 76.935104 
L 13.090909 77.191275 
L 16.363636 77.434391 
L 19.636364 77.665426 
L 22.909091 77.873381 
L 26.181818 78.051668 
L 29.454545 78.252434 
L 32.727273 78.453201 
L 36 78.653968 
L 36.07702 78.658692 
L 39.272727 79.107474 
L 42.545455 79.547682 
L 45.818182 79.969488 
L 49.090909 80.374022 
L 52.363636 80.762326 
L 55.636364 81.134616 
L 58.909091 81.426039 
L 62.181818 81.652901 
L 65.454545 81.8666 
L 66.562092 81.936138 
L 68.727273 82.11554 
L 72 82.475491 
L 75.272727 82.818379 
L 78.545455 83.139737 
L 81.818182 83.441532 
L 85.090909 83.763815 
L 88.363636 84.099282 
L 91.636364 84.434749 
L 94.909091 84.681207 
L 98.181818 84.920087 
L 101.454545 85.158967 
L 102.20281 85.213583 
L 104.727273 85.435109 
L 108 85.720201 
L 111.272727 86.002955 
L 114.545455 86.283399 
L 117.818182 86.583123 
L 121.090909 86.910366 
L 124.363636 87.214138 
L 127.636364 87.501439 
L 130.909091 87.77776 
L 134.181818 88.023124 
L 137.454545 88.266123 
L 140.511993 88.491029 
L 140.727273 88.525499 
L 144 89.06365 
L 147.272727 89.600929 
L 150.545455 90.138208 
L 153.818182 90.675487 
L 157.090909 91.212766 
L 160.363636 91.750045 
L 160.424278 91.768474 
L 163.636364 92.757904 
L 166.909091 93.817602 
L 170.181818 94.877299 
L 170.70258 95.04592 
L 173.454545 97.48563 
L 174.432304 98.323365 
L 173.454545 100.359624 
L 172.735539 101.600811 
L 170.181818 103.721306 
L 168.660049 104.878256 
L 166.909091 105.074998 
L 163.636364 105.389064 
L 160.363636 105.617924 
L 157.090909 105.777636 
L 153.818182 105.987918 
L 150.545455 106.1982 
L 147.272727 106.408482 
L 144 106.618765 
L 140.727273 106.820382 
L 137.454545 106.835881 
L 134.181818 106.848817 
L 130.909091 106.859779 
L 127.636364 106.844731 
L 124.363636 106.810413 
L 121.090909 106.948156 
L 117.818182 107.085899 
L 114.545455 107.223642 
L 111.272727 107.361385 
L 108 107.455838 
L 104.727273 107.421798 
L 101.454545 107.391762 
L 98.181818 107.365062 
L 94.909091 107.325005 
L 91.636364 107.258214 
L 88.363636 107.303585 
L 85.090909 107.400679 
L 81.818182 107.497773 
L 78.545455 107.594867 
L 75.272727 107.960348 
L 74.488986 108.155702 
L 72 109.671037 
L 68.727273 111.240534 
L 68.262743 111.433148 
L 65.454545 111.613318 
L 62.181818 111.831161 
L 58.909091 112.057969 
L 55.636364 112.312901 
L 52.363636 112.224658 
L 49.090909 112.136415 
L 45.818182 112.048172 
L 42.545455 111.959929 
L 39.272727 111.881863 
L 36 111.840328 
L 32.727273 111.785715 
L 29.454545 111.71069 
L 26.181818 111.881757 
L 22.909091 112.409326 
L 19.636364 112.891653 
L 16.363636 113.315579 
L 13.090909 113.739505 
L 9.818182 114.159906 
L 6.545455 114.568407 
L 5.594066 114.710593 
L 3.272727 115.459809 
L 0 116.962258 
L -0 117.988039 
L 0 120.500274 
L 0.471094 121.265484 
L 3.272727 121.610409 
L 6.545455 122.50778 
L 8.893807 124.54293 
L 9.818182 124.63516 
L 13.090909 124.816607 
L 16.363636 124.933414 
L 19.636364 125.075772 
L 22.909091 125.218178 
L 26.181818 125.362654 
L 29.454545 125.522048 
L 32.727273 125.714228 
L 36 125.937509 
L 39.272727 126.197382 
L 42.545455 126.503646 
L 45.818182 126.869942 
L 49.090909 127.314957 
L 52.097682 127.820375 
L 52.363636 127.838247 
L 55.636364 128.049954 
L 58.909091 128.220011 
L 62.181818 128.388309 
L 65.454545 128.556798 
L 68.727273 128.725509 
L 72 128.894273 
L 75.272727 129.062581 
L 78.545455 129.23089 
L 81.818182 129.399199 
L 85.090909 129.567507 
L 88.363636 129.735816 
L 91.636364 129.882654 
L 94.909091 129.992264 
L 98.181818 130.105349 
L 101.454545 130.222077 
L 104.727273 130.378549 
L 108 130.546752 
L 111.272727 130.726256 
L 114.545455 130.918238 
L 117.413854 131.097821 
L 117.818182 131.118135 
L 121.090909 131.282568 
L 124.363636 131.437786 
L 127.636364 131.572575 
L 130.909091 131.707364 
L 134.181818 131.859237 
L 137.454545 132.01679 
L 140.727273 132.171243 
L 144 132.32401 
L 147.272727 132.486087 
L 150.545455 132.648165 
L 153.818182 132.810242 
L 157.090909 132.971406 
L 160.363636 133.066549 
L 163.636364 133.168103 
L 166.909091 133.27986 
L 170.181818 133.387851 
L 173.454545 133.492263 
L 176.727273 133.631269 
L 180 133.773437 
L 183.272727 133.915605 
L 186.545455 134.057773 
L 189.818182 134.199941 
L 193.090909 134.333858 
L 194.125626 134.375266 
L 196.363636 134.464767 
L 199.636364 134.595648 
L 202.909091 134.726528 
L 206.181818 134.845158 
L 209.454545 134.960629 
L 212.727273 135.077488 
L 216 135.193978 
L 219.272727 135.307758 
L 222.545455 135.421537 
L 225.818182 135.481356 
L 229.090909 135.496657 
L 232.363636 135.511959 
L 235.636364 135.56655 
L 238.909091 135.646647 
L 242.181818 135.721864 
L 245.454545 135.804602 
L 248.727273 135.916116 
L 252 136.027629 
L 255.272727 136.139143 
L 258.545455 136.177079 
L 261.818182 136.117494 
L 265.090909 136.095345 
L 268.363636 136.122678 
L 271.636364 136.147262 
L 274.909091 136.189049 
L 278.181818 136.297267 
L 281.454545 136.405485 
L 284.727273 136.513703 
L 288 136.621921 
L 291.272727 136.764042 
L 294.545455 136.881552 
L 297.818182 136.749105 
L 301.090909 136.15303 
L 302.315557 134.375266 
L 304.363636 132.348016 
L 307.636364 132.718235 
L 310.909091 133.91331 
L 312.174163 134.375266 
L 314.181818 135.108385 
L 317.454545 136.30346 
L 320.727273 137.498535 
L 321.433127 137.652712 
L 324 138.183242 
L 327.272727 138.298436 
L 330.545455 138.41363 
L 333.818182 138.358484 
L 335.775333 137.652712 
L 334.597319 134.375266 
L 337.090909 133.042621 
L 340.363636 133.681068 
L 342.141713 134.375266 
L 343.636364 134.958809 
L 346.909091 136.236549 
L 350.181818 137.514289 
L 350.536364 137.652712 
L 353.454545 138.79203 
L 356.727273 139.311264 
L 360 139.356192 
L 363.272727 139.252791 
L 366.545455 138.107536 
L 367.187263 137.652712 
L 366.545455 135.992129 
L 365.920543 134.375266 
L 366.545455 133.61735 
L 369.818182 133.201128 
L 372.755423 134.375266 
L 373.090909 134.558896 
L 376.363636 135.81762 
L 379.636364 137.125865 
L 380.954331 137.652712 
L 382.909091 138.434111 
L 386.181818 139.742357 
L 389.454545 140.074876 
L 392.727273 140.005931 
L 396 139.415694 
L 398.462484 137.652712 
L 397.615672 134.375266 
L 399.272727 133.609244 
L 402.442684 134.375266 
L 402.545455 134.417829 
L 405.818182 135.67336 
L 409.090909 136.951486 
L 410.886444 137.652712 
L 412.363636 138.229612 
L 415.636364 139.507738 
L 418.909091 140.785864 
L 422.181818 140.914229 
L 422.614102 140.930157 
L 425.454545 141.016206 
L 428.727273 141.11535 
L 429.749886 140.930157 
L 430.311822 137.652712 
L 432 135.19734 
L 435.272727 135.864959 
L 438.545455 137.114049 
L 439.93476 137.652712 
L 441.818182 138.382953 
L 445.090909 139.651857 
L 448.363636 140.920761 
L 448.391212 140.930157 
L 451.636364 141.943283 
L 454.909091 142.130108 
L 458.181818 142.229716 
L 461.454545 141.253629 
L 462.032961 140.930157 
L 462.016356 137.652712 
L 464.727273 136.707454 
L 467.121358 137.652712 
L 468 138.121085 
L 471.272727 139.334102 
L 474.545455 140.677534 
L 475.160867 140.930157 
L 477.818182 142.020967 
L 481.090909 143.3644 
L 483.945634 144.207603 
L 484.363636 144.323156 
L 487.636364 144.912347 
L 490.909091 145.243704 
L 494.056214 144.207603 
L 494.181818 143.173397 
L 497.454545 141.3375 
L 500.727273 142.783152 
L 503.471696 144.207603 
L 504 144.481811 
L 507.272727 146.180471 
L 509.786195 147.485048 
L 510.545455 147.87913 
L 513.818182 149.568895 
L 517.090909 150.298164 
L 519.075168 150.762494 
L 520.363636 151.029774 
L 523.636364 151.42447 
L 525.933783 150.762494 
L 526.800646 147.485048 
L 526.909091 147.443761 
L 527.02813 147.485048 
L 530.181818 148.807347 
L 533.454545 149.995741 
L 534.921312 150.762494 
L 536.727273 151.706561 
L 540 153.417381 
L 541.190927 154.039939 
L 543.272727 155.128202 
L 546.545455 156.531669 
L 549.818182 157.08194 
L 550.686103 157.317385 
L 553.090909 157.773713 
L 556.363636 157.66292 
L 557.444346 157.317385 
L 559.636364 154.095608 
L 562.909091 155.861507 
L 566.181818 157.278856 
L 566.254386 157.317385 
L 569.454545 158.897847 
L 572.727273 160.50976 
L 572.890639 160.59483 
z
M 389.211206 137.652712 
L 386.181818 136.64586 
L 382.909091 135.614526 
L 379.636364 134.537067 
L 379.231599 134.375266 
L 376.363636 132.186465 
L 373.090909 131.624728 
L 371.480669 131.097821 
L 369.818182 128.078347 
L 368.460363 127.820375 
L 369.818182 127.406899 
L 373.090909 126.856934 
L 376.363636 126.854346 
L 379.636364 127.293038 
L 382.909091 127.724511 
L 383.570408 127.820375 
L 386.181818 128.170421 
L 389.454545 129.005845 
L 390.104571 131.097821 
L 390.951382 134.375266 
L 389.781776 137.652712 
L 389.454545 137.689654 
z
M 417.229127 137.652712 
L 415.636364 136.332474 
L 412.363636 135.389282 
L 409.090909 134.474424 
L 408.837008 134.375266 
L 405.818182 131.982908 
L 402.545455 131.515136 
L 401.108083 131.097821 
L 399.272727 127.964659 
L 398.384428 127.820375 
L 399.272727 127.554396 
L 402.545455 126.779677 
L 405.818182 126.501353 
L 409.090909 126.841247 
L 412.363636 127.148183 
L 415.636364 127.465435 
L 417.833737 127.820375 
L 418.909091 127.940806 
L 422.181818 128.472065 
L 422.511999 131.097821 
L 422.964707 134.375266 
L 423.417414 137.652712 
L 422.181818 138.148396 
L 418.909091 138.308802 
z
M 289.282449 134.375266 
L 288 134.163634 
L 284.727273 133.815457 
L 281.454545 133.541203 
L 278.181818 133.305654 
L 274.909091 133.107493 
L 271.636364 132.938472 
L 268.363636 132.792606 
L 265.090909 132.665439 
L 261.818182 132.639499 
L 258.545455 132.681131 
L 255.272727 132.655447 
L 252 132.580182 
L 248.727273 132.488297 
L 245.454545 132.404613 
L 242.181818 132.328081 
L 238.909091 132.25782 
L 235.636364 132.19309 
L 232.363636 132.150512 
L 229.090909 132.132087 
L 225.818182 132.113654 
L 222.545455 132.094157 
L 219.272727 132.040285 
L 216 131.989701 
L 212.727273 131.942113 
L 209.454545 131.897262 
L 206.181818 131.806206 
L 202.909091 131.691489 
L 199.636364 131.575015 
L 196.363636 131.459927 
L 193.090909 131.346201 
L 189.818182 131.213292 
L 187.160016 131.097821 
L 186.545455 130.945187 
L 183.272727 130.285081 
L 180 129.795733 
L 176.727273 129.400051 
L 173.454545 129.079658 
L 170.181818 128.814933 
L 166.909091 128.592527 
L 163.636364 128.403043 
L 160.363636 128.250334 
L 157.090909 128.110713 
L 153.818182 127.951207 
L 150.794489 127.820375 
L 151.614698 124.54293 
L 152.445773 121.265484 
L 153.818182 121.180811 
L 157.090909 121.005142 
L 160.363636 120.95669 
L 163.636364 120.926689 
L 166.909091 120.896687 
L 170.181818 120.866686 
L 173.454545 120.836684 
L 176.727273 120.806683 
L 180 120.788101 
L 183.272727 120.772013 
L 186.545455 120.756743 
L 189.818182 120.760147 
L 193.090909 120.838175 
L 196.363636 120.968906 
L 199.636364 121.099638 
L 202.909091 121.23037 
L 203.788143 121.265484 
L 206.181818 121.467216 
L 209.454545 121.724536 
L 212.727273 121.962668 
L 216 122.183681 
L 219.272727 122.389356 
L 222.545455 122.518081 
L 225.818182 122.622893 
L 229.090909 122.71732 
L 232.363636 122.831898 
L 235.636364 122.99238 
L 238.909091 123.146112 
L 242.181818 123.29351 
L 245.454545 123.43496 
L 248.727273 123.570812 
L 252 123.690416 
L 255.272727 123.794497 
L 258.545455 123.901173 
L 261.818182 123.907095 
L 265.090909 124.037062 
L 268.363636 124.163866 
L 271.636364 124.287623 
L 274.909091 124.40844 
L 278.181818 124.526422 
L 278.645948 124.54293 
L 281.454545 124.720729 
L 284.727273 124.927911 
L 288 125.135093 
L 291.272727 125.342274 
L 292.391914 127.820375 
L 293.402985 131.097821 
L 293.170422 134.375266 
L 291.272727 134.456042 
z
M 319.526328 134.375266 
L 317.454545 132.854236 
L 314.181818 132.123371 
L 310.909091 131.228581 
L 310.551003 131.097821 
L 307.636364 128.653294 
L 304.363636 128.289924 
L 302.135049 127.820375 
L 304.363636 125.595294 
L 307.636364 125.684711 
L 310.909091 125.89518 
L 314.181818 126.118843 
L 317.454545 126.38882 
L 320.727273 126.658797 
L 324 126.866849 
L 324.5034 127.820375 
L 325.874889 131.097821 
L 327.052903 134.375266 
L 324 135.484331 
L 320.727273 134.813805 
z
M 349.074156 134.375266 
L 346.909091 132.763364 
L 343.636364 132.006592 
L 340.793981 131.097821 
L 340.363636 130.154772 
L 337.090909 128.31052 
L 333.818182 128.034754 
L 333.110128 127.820375 
L 333.818182 126.455999 
L 337.090909 126.027433 
L 340.363636 125.899864 
L 343.636364 126.139866 
L 346.909091 126.655602 
L 350.181818 127.233701 
L 353.454545 127.811096 
L 353.503086 127.820375 
L 356.727273 128.529541 
L 357.88966 131.097821 
L 359.15638 134.375266 
L 356.727273 136.054127 
L 353.454545 135.945536 
L 350.181818 134.80772 
z
M 576 56.065079 
L 576 55.716574 
L 576 52.439128 
L 576 49.161683 
L 576 45.884237 
L 576 42.606792 
L 576 39.329346 
L 576 36.051901 
L 576 32.774455 
L 576 29.49701 
L 576 26.219564 
L 576 22.942119 
L 576 19.664673 
L 576 16.387228 
L 576 13.109782 
L 576 9.832337 
L 576 6.554891 
L 576 3.277446 
L 576 0 
L 572.727273 0 
L 569.454545 0 
L 566.181818 0 
L 562.909091 0 
L 559.636364 0 
L 556.363636 0 
L 553.090909 0 
L 549.818182 0 
L 546.545455 0 
L 543.272727 0 
L 540 0 
L 536.727273 0 
L 533.454545 0 
L 530.181818 0 
L 526.909091 0 
L 523.636364 0 
L 520.363636 0 
L 517.090909 0 
L 513.818182 0 
L 510.545455 0 
L 507.272727 0 
L 504 0 
L 500.727273 0 
L 497.454545 0 
L 494.181818 0 
L 490.909091 0 
L 487.636364 0 
L 484.363636 0 
L 481.090909 0 
L 477.818182 0 
L 474.545455 0 
L 471.272727 0 
L 468 0 
L 466.414849 0 
L 468 1.593847 
L 469.489775 3.277446 
L 471.272727 5.069382 
L 472.750788 6.554891 
L 471.272727 7.522198 
L 468 7.982897 
L 464.727273 7.623531 
L 461.454545 9.085378 
L 461.246119 9.832337 
L 460.875639 13.109782 
L 461.454545 13.42508 
L 464.727273 15.855112 
L 465.022807 16.387228 
L 468 18.293146 
L 470.084355 19.664673 
L 471.272727 20.43295 
L 474.545455 22.548752 
L 475.153914 22.942119 
L 477.818182 24.664555 
L 480.223474 26.219564 
L 481.090909 26.780357 
L 484.363636 28.72317 
L 485.833212 29.49701 
L 487.636364 30.446501 
L 490.909091 32.169833 
L 492.057312 32.774455 
L 494.181818 33.893164 
L 497.454545 35.521076 
L 498.281411 36.051901 
L 500.727273 37.339826 
L 504 38.101147 
L 505.429689 36.051901 
L 504.611832 32.774455 
L 504 32.033524 
L 502.348041 29.49701 
L 500.727273 27.617367 
L 499.521982 26.219564 
L 500.727273 24.475591 
L 504 25.518609 
L 505.218517 26.219564 
L 507.272727 27.401254 
L 510.545455 29.283899 
L 510.915919 29.49701 
L 513.818182 31.166544 
L 516.613321 32.774455 
L 517.090909 33.043291 
L 520.363636 34.464004 
L 523.636364 35.818875 
L 524.199242 36.051901 
L 526.909091 37.173747 
L 530.181818 38.503585 
L 532.115995 39.329346 
L 533.454545 39.883491 
L 536.727273 40.960688 
L 540 42.318356 
L 541.146524 42.606792 
L 543.272727 43.090172 
L 546.545455 43.965024 
L 549.818182 44.826343 
L 552.173828 45.884237 
L 553.090909 46.317048 
L 556.363636 47.861591 
L 559.118395 49.161683 
L 559.636364 49.406135 
L 562.909091 50.878001 
L 566.062961 52.439128 
L 566.181818 52.495222 
L 569.454545 53.618839 
L 572.727273 54.910511 
L 575.012131 55.716574 
z
M 496.695922 22.942119 
L 497.454545 22.312491 
L 498.819879 22.942119 
L 497.454545 23.821911 
z
M 441.818182 45.985565 
L 442.024554 45.884237 
L 441.818182 45.793371 
L 441.677773 45.884237 
z
M 468 33.855583 
L 471.272727 33.677104 
L 471.929351 32.774455 
L 471.272727 31.152562 
L 470.602476 29.49701 
L 468.61728 26.219564 
L 468 25.707431 
L 464.727273 23.010978 
L 464.666941 22.942119 
L 461.454545 20.276916 
L 460.716603 19.664673 
L 458.181818 17.561658 
L 456.766265 16.387228 
L 454.909091 14.846401 
L 452.815927 13.109782 
L 451.636364 12.142023 
L 448.363636 11.118112 
L 445.090909 10.345194 
L 442.919341 9.832337 
L 441.818182 9.55989 
L 438.545455 8.799359 
L 435.272727 8.026442 
L 432 8.175945 
L 430.054909 9.832337 
L 430.729219 13.109782 
L 432 13.860949 
L 435.272727 15.88266 
L 435.749483 16.387228 
L 438.545455 18.127423 
L 441.015354 19.664673 
L 441.818182 20.164348 
L 445.090909 22.201274 
L 446.281225 22.942119 
L 448.363636 24.205073 
L 451.636364 25.818341 
L 452.453246 26.219564 
L 454.909091 27.425789 
L 458.181818 29.033237 
L 459.126048 29.49701 
L 461.454545 30.640686 
L 464.727273 32.09238 
L 465.79885 32.774455 
z
M 396 26.567743 
L 397.236071 26.219564 
L 399.047824 22.942119 
L 396 21.443416 
L 394.509671 19.664673 
L 392.727273 18.589282 
L 389.454545 16.630684 
L 389.077495 16.387228 
L 386.181818 14.640151 
L 383.64532 13.109782 
L 382.909091 12.665586 
L 379.636364 10.828972 
L 376.363636 10.109735 
L 375.080615 9.832337 
L 373.090909 9.402148 
L 369.818182 8.694561 
L 366.545455 8.386457 
L 363.272727 9.797144 
L 363.249802 9.832337 
L 363.272727 9.855466 
L 365.092273 13.109782 
L 366.545455 14.05445 
L 369.818182 16.137836 
L 370.133961 16.387228 
L 373.090909 18.309448 
L 375.175649 19.664673 
L 376.363636 20.436947 
L 379.636364 21.973386 
L 382.744417 22.942119 
L 382.909091 22.993445 
L 386.181818 24.013504 
L 389.454545 25.033562 
L 392.727273 25.887698 
L 393.923538 26.219564 
z
M 425.454545 26.68661 
L 428.727273 27.46051 
L 432 27.235208 
L 433.278135 26.219564 
L 432.929053 22.942119 
L 432 22.330533 
L 428.727273 20.387227 
L 427.950326 19.664673 
L 425.454545 18.021726 
L 422.971599 16.387228 
L 422.181818 15.867323 
L 418.909091 13.71292 
L 417.992872 13.109782 
L 415.636364 11.60419 
L 412.363636 10.669813 
L 409.125744 9.832337 
L 409.090909 9.823327 
L 405.818182 8.976841 
L 402.545455 8.130355 
L 399.272727 7.970342 
L 396.468678 9.832337 
L 398.252346 13.109782 
L 399.272727 13.765091 
L 402.545455 15.724481 
L 403.355654 16.387228 
L 405.818182 17.968712 
L 408.458962 19.664673 
L 409.090909 20.070522 
L 412.363636 22.172332 
L 414.26488 22.942119 
L 415.636364 23.463463 
L 418.909091 24.537845 
L 422.181818 25.612228 
L 424.031855 26.219564 
z
M 346.909091 20.219188 
L 350.181818 21.170422 
L 353.454545 21.453045 
L 356.727273 21.04769 
L 357.106982 19.664673 
L 356.727273 19.473488 
L 353.454545 18.466743 
L 350.689112 16.387228 
L 350.181818 16.129895 
L 346.909091 14.469752 
L 343.938942 13.109782 
L 343.636364 12.978956 
L 340.363636 12.463706 
L 337.090909 12.363543 
L 335.309389 13.109782 
L 337.090909 14.319295 
L 338.972961 16.387228 
L 340.363636 17.279955 
L 343.636364 19.199038 
L 345.13016 19.664673 
z
" clip-path="url(#p4c4b0631d9)" style="fill: #f5f9fe; fill-opacity: 0.9"/>
    <path d="M 572.727273 158.249909 
L 576 159.263899 
L 576 157.317385 
L 576 154.039939 
L 576 150.762494 
L 576 147.485048 
L 576 144.207603 
L 576 140.930157 
L 576 137.652712 
L 576 134.375266 
L 576 131.097821 
L 576 127.820375 
L 576 124.54293 
L 576 121.265484 
L 576 117.988039 
L 576 114.881457 
L 572.727273 114.935945 
L 571.528997 114.710593 
L 569.454545 114.293347 
L 568.684296 114.710593 
L 566.701379 117.988039 
L 566.181818 118.275029 
L 562.909091 118.765256 
L 559.636364 118.112266 
L 559.313736 117.988039 
L 556.363636 116.752649 
L 553.090909 115.203411 
L 552.049843 114.710593 
L 549.818182 113.654173 
L 546.545455 113.311579 
L 545.348137 114.710593 
L 543.272727 115.686333 
L 540 115.499979 
L 536.727273 115.267645 
L 533.454545 114.97869 
L 530.418061 114.710593 
L 530.181818 114.689735 
L 526.909091 114.400263 
L 523.636364 114.137078 
L 520.363636 114.296485 
L 517.090909 114.253205 
L 513.818182 114.38805 
L 511.38236 114.710593 
L 510.545455 114.803556 
L 507.272727 114.80715 
L 505.163291 114.710593 
L 504 114.656219 
L 503.783999 114.710593 
L 500.727273 115.924815 
L 497.454545 117.526935 
L 496.21302 117.988039 
L 494.181818 118.457264 
L 490.909091 118.292202 
L 487.636364 118.290885 
L 484.363636 118.37801 
L 481.090909 119.024082 
L 477.818182 120.989726 
L 477.114727 121.265484 
L 474.545455 121.991761 
L 471.272727 122.700976 
L 468 123.138704 
L 464.727273 123.407168 
L 461.454545 123.49121 
L 458.181818 123.97247 
L 454.909091 124.501932 
L 454.662673 124.54293 
L 451.636364 125.04643 
L 448.363636 125.587302 
L 445.090909 125.774396 
L 441.818182 125.906057 
L 438.545455 125.882681 
L 435.272727 125.720737 
L 432 125.750101 
L 428.727273 126.587239 
L 425.454545 127.439221 
L 423.970816 127.820375 
L 425.454545 127.894366 
L 428.727273 128.620779 
L 430.087963 131.097821 
L 432 131.527988 
L 435.272727 132.03659 
L 437.804451 134.375266 
L 438.545455 134.662568 
L 441.818182 135.332257 
L 445.090909 136.433766 
L 446.257563 137.652712 
L 448.363636 138.46928 
L 451.636364 139.088205 
L 454.909091 137.792348 
L 455.053406 137.652712 
L 455.036801 134.375266 
L 458.181818 131.878825 
L 461.454545 131.754589 
L 464.727273 133.737524 
L 465.190802 134.375266 
L 468 135.08959 
L 471.272727 135.894417 
L 472.938537 137.652712 
L 474.545455 138.312341 
L 477.818182 138.912533 
L 480.922699 140.930157 
L 481.090909 140.999206 
L 484.363636 141.772947 
L 486.856435 140.930157 
L 487.21185 137.652712 
L 487.636364 134.508362 
L 490.909091 135.426857 
L 494.181818 135.816777 
L 495.878784 137.652712 
L 497.454545 138.379029 
L 500.727273 139.379457 
L 502.158494 140.930157 
L 504 141.770687 
L 507.272727 142.953625 
L 508.428325 144.207603 
L 510.545455 145.164261 
L 513.818182 146.550183 
L 515.526644 147.485048 
L 517.090909 147.803099 
L 518.188692 147.485048 
L 519.055555 144.207603 
L 519.918118 140.930157 
L 520.363636 140.443467 
L 520.826094 140.930157 
L 523.636364 142.14022 
L 526.909091 144.074027 
L 527.03551 144.207603 
L 530.181818 145.278185 
L 533.238283 147.485048 
L 533.454545 147.5981 
L 536.727273 148.652011 
L 539.507898 150.762494 
L 540 151.01974 
L 543.272727 152.036239 
L 545.833459 154.039939 
L 546.545455 154.368414 
L 549.50001 154.039939 
L 549.818182 153.651137 
L 550.913557 150.762494 
L 553.090909 149.512781 
L 556.363636 149.577473 
L 557.529791 150.762494 
L 559.636364 151.69966 
L 562.909091 152.799225 
L 564.130825 154.039939 
L 566.181818 154.974739 
L 569.454545 156.025635 
L 570.727273 157.317385 
z
M 389.454545 137.689654 
L 389.781776 137.652712 
L 390.951382 134.375266 
L 390.104571 131.097821 
L 389.454545 129.005845 
L 386.181818 128.170421 
L 383.570408 127.820375 
L 382.909091 127.724511 
L 379.636364 127.293038 
L 376.363636 126.854346 
L 373.090909 126.856934 
L 369.818182 127.406899 
L 368.460363 127.820375 
L 369.818182 128.078347 
L 371.480669 131.097821 
L 373.090909 131.624728 
L 376.363636 132.186465 
L 379.231599 134.375266 
L 379.636364 134.537067 
L 382.909091 135.614526 
L 386.181818 136.64586 
L 389.211206 137.652712 
z
M 418.909091 138.308802 
L 422.181818 138.148396 
L 423.417414 137.652712 
L 422.964707 134.375266 
L 422.511999 131.097821 
L 422.181818 128.472065 
L 418.909091 127.940806 
L 417.833737 127.820375 
L 415.636364 127.465435 
L 412.363636 127.148183 
L 409.090909 126.841247 
L 405.818182 126.501353 
L 402.545455 126.779677 
L 399.272727 127.554396 
L 398.384428 127.820375 
L 399.272727 127.964659 
L 401.108083 131.097821 
L 402.545455 131.515136 
L 405.818182 131.982908 
L 408.837008 134.375266 
L 409.090909 134.474424 
L 412.363636 135.389282 
L 415.636364 136.332474 
L 417.229127 137.652712 
z
M 291.272727 134.456042 
L 293.170422 134.375266 
L 293.402985 131.097821 
L 292.391914 127.820375 
L 291.272727 125.342274 
L 288 125.135093 
L 284.727273 124.927911 
L 281.454545 124.720729 
L 278.645948 124.54293 
L 278.181818 124.526422 
L 274.909091 124.40844 
L 271.636364 124.287623 
L 268.363636 124.163866 
L 265.090909 124.037062 
L 261.818182 123.907095 
L 258.545455 123.901173 
L 255.272727 123.794497 
L 252 123.690416 
L 248.727273 123.570812 
L 245.454545 123.43496 
L 242.181818 123.29351 
L 238.909091 123.146112 
L 235.636364 122.99238 
L 232.363636 122.831898 
L 229.090909 122.71732 
L 225.818182 122.622893 
L 222.545455 122.518081 
L 219.272727 122.389356 
L 216 122.183681 
L 212.727273 121.962668 
L 209.454545 121.724536 
L 206.181818 121.467216 
L 203.788143 121.265484 
L 202.909091 121.23037 
L 199.636364 121.099638 
L 196.363636 120.968906 
L 193.090909 120.838175 
L 189.818182 120.760147 
L 186.545455 120.756743 
L 183.272727 120.772013 
L 180 120.788101 
L 176.727273 120.806683 
L 173.454545 120.836684 
L 170.181818 120.866686 
L 166.909091 120.896687 
L 163.636364 120.926689 
L 160.363636 120.95669 
L 157.090909 121.005142 
L 153.818182 121.180811 
L 152.445773 121.265484 
L 151.614698 124.54293 
L 150.794489 127.820375 
L 153.818182 127.951207 
L 157.090909 128.110713 
L 160.363636 128.250334 
L 163.636364 128.403043 
L 166.909091 128.592527 
L 170.181818 128.814933 
L 173.454545 129.079658 
L 176.727273 129.400051 
L 180 129.795733 
L 183.272727 130.285081 
L 186.545455 130.945187 
L 187.160016 131.097821 
L 189.818182 131.213292 
L 193.090909 131.346201 
L 196.363636 131.459927 
L 199.636364 131.575015 
L 202.909091 131.691489 
L 206.181818 131.806206 
L 209.454545 131.897262 
L 212.727273 131.942113 
L 216 131.989701 
L 219.272727 132.040285 
L 222.545455 132.094157 
L 225.818182 132.113654 
L 229.090909 132.132087 
L 232.363636 132.150512 
L 235.636364 132.19309 
L 238.909091 132.25782 
L 242.181818 132.328081 
L 245.454545 132.404613 
L 248.727273 132.488297 
L 252 132.580182 
L 255.272727 132.655447 
L 258.545455 132.681131 
L 261.818182 132.639499 
L 265.090909 132.665439 
L 268.363636 132.792606 
L 271.636364 132.938472 
L 274.909091 133.107493 
L 278.181818 133.305654 
L 281.454545 133.541203 
L 284.727273 133.815457 
L 288 134.163634 
L 289.282449 134.375266 
z
M 320.727273 134.813805 
L 324 135.484331 
L 327.052903 134.375266 
L 325.874889 131.097821 
L 324.5034 127.820375 
L 324 126.866849 
L 320.727273 126.658797 
L 317.454545 126.38882 
L 314.181818 126.118843 
L 310.909091 125.89518 
L 307.636364 125.684711 
L 304.363636 125.595294 
L 302.135049 127.820375 
L 304.363636 128.289924 
L 307.636364 128.653294 
L 310.551003 131.097821 
L 310.909091 131.228581 
L 314.181818 132.123371 
L 317.454545 132.854236 
L 319.526328 134.375266 
z
M 350.181818 134.80772 
L 353.454545 135.945536 
L 356.727273 136.054127 
L 359.15638 134.375266 
L 357.88966 131.097821 
L 356.727273 128.529541 
L 353.503086 127.820375 
L 353.454545 127.811096 
L 350.181818 127.233701 
L 346.909091 126.655602 
L 343.636364 126.139866 
L 340.363636 125.899864 
L 337.090909 126.027433 
L 333.818182 126.455999 
L 333.110128 127.820375 
L 333.818182 128.034754 
L 337.090909 128.31052 
L 340.363636 130.154772 
L 340.793981 131.097821 
L 343.636364 132.006592 
L 346.909091 132.763364 
L 349.074156 134.375266 
z
M 576 113.998379 
L 576 111.433148 
L 576 108.155702 
L 576 106.504195 
L 575.145891 108.155702 
L 574.914801 111.433148 
z
M 576 103.669647 
L 576 101.600811 
L 576 98.323365 
L 576 95.04592 
L 576 91.768474 
L 576 88.491029 
L 576 85.213583 
L 576 85.146182 
L 572.727273 83.097207 
L 570.398308 81.936138 
L 569.454545 81.497745 
L 566.181818 80.436733 
L 563.577063 81.936138 
L 565.306374 85.213583 
L 566.181818 86.872753 
L 567.058556 88.491029 
L 568.751205 91.768474 
L 569.454545 92.44467 
L 571.611411 95.04592 
L 572.727273 97.02375 
L 573.531676 98.323365 
L 575.102428 101.600811 
z
M 556.363636 89.088552 
L 559.636364 89.149411 
L 560.27611 88.491029 
L 559.636364 88.151363 
L 557.766308 85.213583 
L 556.363636 84.132635 
L 554.416575 81.936138 
L 553.090909 80.834045 
L 550.474262 78.658692 
L 549.818182 78.11326 
L 546.545455 75.397838 
L 546.531949 75.381247 
L 543.272727 72.67169 
L 542.605676 72.103801 
L 540 69.797457 
L 539.009825 68.826356 
L 536.727273 66.587773 
L 535.668006 65.54891 
L 533.454545 63.378088 
L 532.326186 62.271465 
L 530.181818 60.168404 
L 528.984367 58.994019 
L 526.909091 56.958719 
L 525.642548 55.716574 
L 523.636364 53.661179 
L 522.389134 52.439128 
L 521.353733 49.161683 
L 523.636364 47.595871 
L 526.909091 48.02203 
L 529.028928 49.161683 
L 530.181818 49.757225 
L 533.454545 51.688306 
L 534.677965 52.439128 
L 536.727273 53.696805 
L 540 55.701978 
L 540.018364 55.716574 
L 543.272727 57.713803 
L 545.70634 58.994019 
L 546.545455 59.408287 
L 549.818182 60.724366 
L 553.090909 61.893416 
L 553.717247 62.271465 
L 556.363636 63.365651 
L 559.636364 64.553383 
L 561.720508 65.54891 
L 562.909091 66.035651 
L 566.181818 67.375878 
L 569.454545 68.653028 
L 569.723769 68.826356 
L 572.727273 70.056332 
L 576 71.911142 
L 576 68.826356 
L 576 65.54891 
L 576 62.271465 
L 576 58.994019 
L 576 56.065079 
L 575.012131 55.716574 
L 572.727273 54.910511 
L 569.454545 53.618839 
L 566.181818 52.495222 
L 566.062961 52.439128 
L 562.909091 50.878001 
L 559.636364 49.406135 
L 559.118395 49.161683 
L 556.363636 47.861591 
L 553.090909 46.317048 
L 552.173828 45.884237 
L 549.818182 44.826343 
L 546.545455 43.965024 
L 543.272727 43.090172 
L 541.146524 42.606792 
L 540 42.318356 
L 536.727273 40.960688 
L 533.454545 39.883491 
L 532.115995 39.329346 
L 530.181818 38.503585 
L 526.909091 37.173747 
L 524.199242 36.051901 
L 523.636364 35.818875 
L 520.363636 34.464004 
L 517.090909 33.043291 
L 516.613321 32.774455 
L 513.818182 31.166544 
L 510.915919 29.49701 
L 510.545455 29.283899 
L 507.272727 27.401254 
L 505.218517 26.219564 
L 504 25.518609 
L 500.727273 24.475591 
L 499.521982 26.219564 
L 500.727273 27.617367 
L 502.348041 29.49701 
L 504 32.033524 
L 504.611832 32.774455 
L 505.429689 36.051901 
L 504 38.101147 
L 500.727273 37.339826 
L 498.281411 36.051901 
L 497.454545 35.521076 
L 494.181818 33.893164 
L 492.057312 32.774455 
L 490.909091 32.169833 
L 487.636364 30.446501 
L 485.833212 29.49701 
L 484.363636 28.72317 
L 481.090909 26.780357 
L 480.223474 26.219564 
L 477.818182 24.664555 
L 475.153914 22.942119 
L 474.545455 22.548752 
L 471.272727 20.43295 
L 470.084355 19.664673 
L 468 18.293146 
L 465.022807 16.387228 
L 464.727273 15.855112 
L 461.454545 13.42508 
L 460.875639 13.109782 
L 461.246119 9.832337 
L 461.454545 9.085378 
L 464.727273 7.623531 
L 468 7.982897 
L 471.272727 7.522198 
L 472.750788 6.554891 
L 471.272727 5.069382 
L 469.489775 3.277446 
L 468 1.593847 
L 466.414849 0 
L 464.727273 0 
L 461.454545 0 
L 458.181818 0 
L 454.909091 0 
L 451.636364 0 
L 448.363636 0 
L 445.090909 0 
L 441.818182 0 
L 438.545455 0 
L 435.272727 0 
L 432 0 
L 428.727273 0 
L 425.454545 0 
L 422.181818 0 
L 418.909091 0 
L 415.636364 0 
L 412.363636 0 
L 409.090909 0 
L 405.818182 0 
L 402.545455 0 
L 399.272727 0 
L 396 0 
L 392.727273 0 
L 389.454545 0 
L 386.181818 0 
L 382.909091 0 
L 379.636364 0 
L 376.363636 0 
L 373.090909 0 
L 369.818182 0 
L 366.545455 0 
L 363.272727 0 
L 360 0 
L 356.727273 0 
L 353.454545 0 
L 350.181818 0 
L 346.909091 0 
L 343.636364 0 
L 340.363636 0 
L 337.090909 0 
L 333.818182 0 
L 330.545455 0 
L 327.272727 0 
L 324 0 
L 320.727273 0 
L 317.454545 0 
L 314.181818 0 
L 310.909091 0 
L 307.636364 0 
L 304.363636 0 
L 301.090909 0 
L 297.818182 0 
L 294.545455 0 
L 291.272727 0 
L 288 0 
L 284.727273 0 
L 281.454545 0 
L 278.181818 0 
L 274.909091 0 
L 271.636364 0 
L 268.363636 0 
L 265.090909 0 
L 261.818182 0 
L 258.545455 0 
L 255.272727 0 
L 252 0 
L 248.727273 0 
L 245.454545 0 
L 242.181818 0 
L 238.909091 0 
L 235.636364 0 
L 232.363636 0 
L 229.090909 0 
L 225.818182 0 
L 222.545455 0 
L 219.272727 0 
L 216 0 
L 212.727273 0 
L 209.454545 0 
L 206.181818 0 
L 202.909091 0 
L 199.636364 0 
L 196.363636 0 
L 193.090909 0 
L 189.818182 0 
L 186.545455 0 
L 183.272727 0 
L 180 0 
L 176.727273 0 
L 173.454545 0 
L 170.181818 0 
L 166.909091 0 
L 163.636364 0 
L 160.363636 0 
L 157.090909 0 
L 153.818182 0 
L 150.545455 0 
L 147.272727 0 
L 144 0 
L 140.727273 0 
L 137.454545 0 
L 134.181818 0 
L 130.909091 0 
L 127.636364 0 
L 124.363636 0 
L 121.090909 0 
L 117.818182 0 
L 114.545455 0 
L 111.272727 0 
L 108 0 
L 104.727273 0 
L 101.454545 0 
L 98.181818 0 
L 94.909091 0 
L 91.636364 0 
L 88.363636 0 
L 85.090909 0 
L 81.818182 0 
L 78.545455 0 
L 75.272727 0 
L 72 0 
L 68.727273 0 
L 65.454545 0 
L 62.181818 0 
L 58.909091 0 
L 55.636364 0 
L 52.363636 0 
L 49.090909 0 
L 45.818182 0 
L 42.545455 0 
L 39.272727 0 
L 36 0 
L 32.727273 0 
L 29.454545 0 
L 26.181818 0 
L 24.056507 0 
L 24.372196 3.277446 
L 23.226197 6.554891 
L 22.909091 7.360631 
L 21.959211 9.832337 
L 20.232926 13.109782 
L 19.636364 14.208405 
L 18.462084 16.387228 
L 16.363636 17.11028 
L 13.090909 18.237949 
L 9.818182 19.365618 
L 8.950261 19.664673 
L 6.545455 20.401958 
L 3.272727 21.352757 
L -0 22.229174 
L -0 22.942119 
L -0 26.219564 
L -0 29.49701 
L -0 32.774455 
L -0 36.051901 
L -0 39.329346 
L -0 42.606792 
L -0 45.884237 
L -0 48.382228 
L 3.272727 48.481422 
L 6.545455 48.578128 
L 9.818182 48.672439 
L 13.090909 48.764442 
L 16.363636 48.853553 
L 19.636364 48.933351 
L 22.909091 49.017083 
L 26.181818 49.047742 
L 29.454545 49.078263 
L 32.727273 49.111205 
L 36 49.145407 
L 37.554708 49.161683 
L 39.272727 49.185061 
L 42.545455 49.229496 
L 45.818182 49.273831 
L 49.090909 49.318247 
L 52.363636 49.362662 
L 55.636364 49.407078 
L 58.909091 49.445473 
L 62.181818 49.447016 
L 65.454545 49.448558 
L 68.727273 49.453424 
L 72 49.460319 
L 75.272727 49.467189 
L 78.545455 49.474035 
L 81.818182 49.480859 
L 85.090909 49.488237 
L 88.363636 49.495616 
L 91.636364 49.502995 
L 94.909091 49.508107 
L 98.181818 49.508332 
L 101.454545 49.508557 
L 104.727273 49.509676 
L 108 49.51502 
L 111.272727 49.520345 
L 114.545455 49.525651 
L 117.818182 49.530939 
L 121.090909 49.536646 
L 124.363636 49.542563 
L 127.636364 49.548481 
L 130.909091 49.550775 
L 134.181818 49.549876 
L 137.454545 49.548977 
L 140.727273 49.548078 
L 144 49.551006 
L 147.272727 49.554996 
L 150.545455 49.558972 
L 153.818182 49.562935 
L 157.090909 49.56715 
L 160.363636 49.571777 
L 163.636364 49.576405 
L 166.909091 49.640059 
L 170.181818 49.719658 
L 173.454545 49.799256 
L 176.727273 49.878854 
L 180 49.932572 
L 183.272727 49.954583 
L 186.545455 49.977681 
L 189.818182 50.001947 
L 193.090909 50.023883 
L 196.363636 50.027586 
L 199.636364 50.044718 
L 202.909091 50.18181 
L 206.181818 50.318903 
L 209.454545 50.455995 
L 212.727273 50.593088 
L 216 50.719053 
L 219.272727 50.791751 
L 222.545455 50.870708 
L 225.818182 50.956767 
L 229.090909 51.050932 
L 232.363636 51.061618 
L 235.636364 51.284666 
L 238.909091 51.73265 
L 242.181818 52.180633 
L 244.070242 52.439128 
L 245.454545 52.628617 
L 248.727273 53.076601 
L 252 53.162264 
L 255.272727 53.212048 
L 258.545455 53.097617 
L 261.818182 52.978671 
L 265.090909 52.859725 
L 268.363636 52.85138 
L 271.636364 53.367305 
L 274.909091 53.86214 
L 278.181818 54.332154 
L 281.454545 54.844378 
L 284.727273 55.355133 
L 286.998115 55.716574 
L 288 55.878994 
L 291.272727 56.284419 
L 294.545455 56.350416 
L 297.818182 56.382148 
L 301.090909 56.316803 
L 304.363636 56.57822 
L 307.636364 57.060252 
L 310.909091 57.61239 
L 314.181818 58.133633 
L 317.454545 58.748762 
L 318.77427 58.994019 
L 320.727273 59.360024 
L 324 59.973354 
L 327.272727 60.590412 
L 330.545455 61.210972 
L 333.818182 61.747109 
L 337.090909 62.014622 
L 337.956314 62.271465 
L 340.363636 62.696577 
L 343.636364 62.939709 
L 346.909091 63.527733 
L 350.181818 64.516294 
L 353.454545 64.973303 
L 356.727273 65.44299 
L 357.384457 65.54891 
L 360 65.979736 
L 363.272727 66.69316 
L 366.545455 67.371934 
L 369.818182 67.589121 
L 373.090909 66.764648 
L 376.363636 66.354955 
L 379.636364 66.692898 
L 382.909091 66.914356 
L 386.181818 67.125529 
L 389.454545 67.550656 
L 392.727273 67.855253 
L 396 67.639717 
L 399.272727 67.759512 
L 402.545455 67.943605 
L 405.818182 67.336933 
L 409.090909 67.02944 
L 412.363636 67.033962 
L 415.636364 67.272666 
L 418.909091 67.724666 
L 422.181818 68.23456 
L 425.454545 68.067612 
L 428.727273 67.937728 
L 432 67.924956 
L 435.272727 67.912183 
L 438.545455 67.70574 
L 441.818182 67.54567 
L 445.090909 67.619918 
L 448.363636 68.360725 
L 451.636364 68.820891 
L 451.722804 68.826356 
L 454.909091 68.984389 
L 458.181818 69.23473 
L 461.454545 69.209307 
L 464.727273 69.091371 
L 468 68.946959 
L 470.733146 68.826356 
L 471.272727 68.787375 
L 471.660315 68.826356 
L 474.545455 68.984626 
L 477.818182 68.952406 
L 480.410168 68.826356 
L 481.090909 68.761959 
L 484.363636 68.476809 
L 487.636364 68.30806 
L 490.909091 68.577825 
L 493.16563 68.826356 
L 494.181818 68.92161 
L 497.454545 69.228385 
L 497.83678 68.826356 
L 497.454545 68.627653 
L 494.181818 68.685294 
L 492.705744 65.54891 
L 490.909091 64.55132 
L 487.636364 63.262301 
L 486.803086 62.271465 
L 484.363636 60.916963 
L 481.090909 59.151268 
L 480.900427 58.994019 
L 477.818182 57.282606 
L 475.213811 55.716574 
L 474.545455 55.282626 
L 471.326291 52.439128 
L 471.272727 52.391815 
L 468 49.501005 
L 467.615848 49.161683 
L 464.727273 46.610195 
L 463.905406 45.884237 
L 461.454545 42.676862 
L 461.369757 42.606792 
L 461.242916 39.329346 
L 461.454545 39.190745 
L 464.727273 39.223257 
L 465.145782 39.329346 
L 468 40.05287 
L 471.272727 40.882482 
L 474.545455 41.712095 
L 477.818182 42.482473 
L 477.930133 42.606792 
L 481.090909 44.72366 
L 482.484702 45.884237 
L 484.363636 47.448781 
L 486.420742 49.161683 
L 487.636364 50.173901 
L 490.356783 52.439128 
L 490.909091 52.899022 
L 494.181818 55.624143 
L 494.292823 55.716574 
L 497.454545 58.549549 
L 497.996691 58.994019 
L 500.408583 62.271465 
L 500.727273 62.740611 
L 502.63494 65.54891 
L 504 67.558431 
L 505.098406 68.826356 
L 507.272727 70.706092 
L 510.545455 71.696765 
L 511.890117 72.103801 
L 513.818182 72.687437 
L 517.090909 73.659753 
L 520.363636 74.326243 
L 522.450268 72.103801 
L 520.363636 70.747126 
L 519.152483 68.826356 
L 517.090909 67.136174 
L 515.154869 65.54891 
L 513.818182 64.453027 
L 511.157254 62.271465 
L 510.545455 61.769881 
L 507.272727 59.232269 
L 506.947259 58.994019 
L 504 56.836559 
L 502.470012 55.716574 
L 500.727273 54.44085 
L 497.992765 52.439128 
L 497.454545 52.04514 
L 494.181818 49.663363 
L 493.515517 49.161683 
L 490.909091 47.25372 
L 489.03827 45.884237 
L 489.833963 42.606792 
L 490.909091 42.235414 
L 494.181818 41.884088 
L 497.454545 42.516911 
L 497.717113 42.606792 
L 500.727273 43.637209 
L 504 44.757507 
L 507.272727 45.874229 
L 507.291517 45.884237 
L 510.545455 46.998103 
L 513.818182 48.757378 
L 514.261557 49.161683 
L 517.090909 52.36805 
L 517.159407 52.439128 
L 520.132903 55.716574 
L 520.363636 55.968942 
L 523.129379 58.994019 
L 523.636364 59.548542 
L 526.125855 62.271465 
L 526.909091 63.209309 
L 529.031151 65.54891 
L 530.181818 67.077273 
L 531.73904 68.826356 
L 533.454545 71.249291 
L 534.085525 72.103801 
L 536.365188 75.381247 
L 536.727273 75.901812 
L 539.191932 78.658692 
L 540 79.40216 
L 543.272727 81.568575 
L 543.827992 81.936138 
L 546.545455 83.73499 
L 548.779114 85.213583 
L 549.818182 85.901405 
L 553.090909 87.800596 
L 554.900749 88.491029 
z
M 441.677773 45.884237 
L 441.818182 45.793371 
L 442.024554 45.884237 
L 441.818182 45.985565 
z
M 465.79885 32.774455 
L 464.727273 32.09238 
L 461.454545 30.640686 
L 459.126048 29.49701 
L 458.181818 29.033237 
L 454.909091 27.425789 
L 452.453246 26.219564 
L 451.636364 25.818341 
L 448.363636 24.205073 
L 446.281225 22.942119 
L 445.090909 22.201274 
L 441.818182 20.164348 
L 441.015354 19.664673 
L 438.545455 18.127423 
L 435.749483 16.387228 
L 435.272727 15.88266 
L 432 13.860949 
L 430.729219 13.109782 
L 430.054909 9.832337 
L 432 8.175945 
L 435.272727 8.026442 
L 438.545455 8.799359 
L 441.818182 9.55989 
L 442.919341 9.832337 
L 445.090909 10.345194 
L 448.363636 11.118112 
L 451.636364 12.142023 
L 452.815927 13.109782 
L 454.909091 14.846401 
L 456.766265 16.387228 
L 458.181818 17.561658 
L 460.716603 19.664673 
L 461.454545 20.276916 
L 464.666941 22.942119 
L 464.727273 23.010978 
L 468 25.707431 
L 468.61728 26.219564 
L 470.602476 29.49701 
L 471.272727 31.152562 
L 471.929351 32.774455 
L 471.272727 33.677104 
L 468 33.855583 
z
M 393.923538 26.219564 
L 392.727273 25.887698 
L 389.454545 25.033562 
L 386.181818 24.013504 
L 382.909091 22.993445 
L 382.744417 22.942119 
L 379.636364 21.973386 
L 376.363636 20.436947 
L 375.175649 19.664673 
L 373.090909 18.309448 
L 370.133961 16.387228 
L 369.818182 16.137836 
L 366.545455 14.05445 
L 365.092273 13.109782 
L 363.272727 9.855466 
L 363.249802 9.832337 
L 363.272727 9.797144 
L 366.545455 8.386457 
L 369.818182 8.694561 
L 373.090909 9.402148 
L 375.080615 9.832337 
L 376.363636 10.109735 
L 379.636364 10.828972 
L 382.909091 12.665586 
L 383.64532 13.109782 
L 386.181818 14.640151 
L 389.077495 16.387228 
L 389.454545 16.630684 
L 392.727273 18.589282 
L 394.509671 19.664673 
L 396 21.443416 
L 399.047824 22.942119 
L 397.236071 26.219564 
L 396 26.567743 
z
M 424.031855 26.219564 
L 422.181818 25.612228 
L 418.909091 24.537845 
L 415.636364 23.463463 
L 414.26488 22.942119 
L 412.363636 22.172332 
L 409.090909 20.070522 
L 408.458962 19.664673 
L 405.818182 17.968712 
L 403.355654 16.387228 
L 402.545455 15.724481 
L 399.272727 13.765091 
L 398.252346 13.109782 
L 396.468678 9.832337 
L 399.272727 7.970342 
L 402.545455 8.130355 
L 405.818182 8.976841 
L 409.090909 9.823327 
L 409.125744 9.832337 
L 412.363636 10.669813 
L 415.636364 11.60419 
L 417.992872 13.109782 
L 418.909091 13.71292 
L 422.181818 15.867323 
L 422.971599 16.387228 
L 425.454545 18.021726 
L 427.950326 19.664673 
L 428.727273 20.387227 
L 432 22.330533 
L 432.929053 22.942119 
L 433.278135 26.219564 
L 432 27.235208 
L 428.727273 27.46051 
L 425.454545 26.68661 
z
M 345.13016 19.664673 
L 343.636364 19.199038 
L 340.363636 17.279955 
L 338.972961 16.387228 
L 337.090909 14.319295 
L 335.309389 13.109782 
L 337.090909 12.363543 
L 340.363636 12.463706 
L 343.636364 12.978956 
L 343.938942 13.109782 
L 346.909091 14.469752 
L 350.181818 16.129895 
L 350.689112 16.387228 
L 353.454545 18.466743 
L 356.727273 19.473488 
L 357.106982 19.664673 
L 356.727273 21.04769 
L 353.454545 21.453045 
L 350.181818 21.170422 
L 346.909091 20.219188 
z
M 497.454545 23.821911 
L 498.819879 22.942119 
L 497.454545 22.312491 
L 496.695922 22.942119 
z
" clip-path="url(#p4c4b0631d9)" style="fill: #eff6fc; fill-opacity: 0.9"/>
    <path d="M 3.272727 21.352757 
L 6.545455 20.401958 
L 8.950261 19.664673 
L 9.818182 19.365618 
L 13.090909 18.237949 
L 16.363636 17.11028 
L 18.462084 16.387228 
L 19.636364 14.208405 
L 20.232926 13.109782 
L 21.959211 9.832337 
L 22.909091 7.360631 
L 23.226197 6.554891 
L 24.372196 3.277446 
L 24.056507 0 
L 22.909091 0 
L 19.636364 0 
L 16.363636 0 
L 13.090909 0 
L 9.818182 0 
L 6.545455 0 
L 3.272727 0 
L -0 0 
L -0 3.277446 
L -0 6.554891 
L -0 9.832337 
L -0 13.109782 
L -0 16.387228 
L -0 19.664673 
L -0 22.229174 
z
" clip-path="url(#p4c4b0631d9)" style="fill: #eaf3fb; fill-opacity: 0.9"/>
    <path clip-path="url(#p4c4b0631d9)" style="fill: #e5eff9; fill-opacity: 0.9"/>
    <path clip-path="url(#p4c4b0631d9)" style="fill: #dfecf7; fill-opacity: 0.9"/>
    <path clip-path="url(#p4c4b0631d9)" style="fill: #dae8f6; fill-opacity: 0.9"/>
    <path clip-path="url(#p4c4b0631d9)" style="fill: #d6e5f4; fill-opacity: 0.9"/>
    <path clip-path="url(#p4c4b0631d9)" style="fill: #d0e2f2; fill-opacity: 0.9"/>
    <path clip-path="url(#p4c4b0631d9)" style="fill: #cbdef1; fill-opacity: 0.9"/>
    <path clip-path="url(#p4c4b0631d9)" style="fill: #c6dbef; fill-opacity: 0.9"/>
    <path clip-path="url(#p4c4b0631d9)" style="fill: #bed8ec; fill-opacity: 0.9"/>
    <path clip-path="url(#p4c4b0631d9)" style="fill: #b5d4e9; fill-opacity: 0.9"/>
    <path clip-path="url(#p4c4b0631d9)" style="fill: #add0e6; fill-opacity: 0.9"/>
    <path clip-path="url(#p4c4b0631d9)" style="fill: #a5cde3; fill-opacity: 0.9"/>
    <path clip-path="url(#p4c4b0631d9)" style="fill: #9cc9e1; fill-opacity: 0.9"/>
    <path clip-path="url(#p4c4b0631d9)" style="fill: #91c3de; fill-opacity: 0.9"/>
    <path clip-path="url(#p4c4b0631d9)" style="fill: #85bcdc; fill-opacity: 0.9"/>
    <path clip-path="url(#p4c4b0631d9)" style="fill: #7cb7da; fill-opacity: 0.9"/>
    <path clip-path="url(#p4c4b0631d9)" style="fill: #71b1d7; fill-opacity: 0.9"/>
    <path clip-path="url(#p4c4b0631d9)" style="fill: #66abd4; fill-opacity: 0.9"/>
    <path clip-path="url(#p4c4b0631d9)" style="fill: #5da5d1; fill-opacity: 0.9"/>
    <path clip-path="url(#p4c4b0631d9)" style="fill: #56a0ce; fill-opacity: 0.9"/>
    <path clip-path="url(#p4c4b0631d9)" style="fill: #4d99ca; fill-opacity: 0.9"/>
    <path clip-path="url(#p4c4b0631d9)" style="fill: #4493c7; fill-opacity: 0.9"/>
    <path clip-path="url(#p4c4b0631d9)" style="fill: #3c8cc3; fill-opacity: 0.9"/>
    <path clip-path="url(#p4c4b0631d9)" style="fill: #3686c0; fill-opacity: 0.9"/>
    <path clip-path="url(#p4c4b0631d9)" style="fill: #2f7fbc; fill-opacity: 0.9"/>
    <path clip-path="url(#p4c4b0631d9)" style="fill: #2777b8; fill-opacity: 0.9"/>
    <path clip-path="url(#p4c4b0631d9)" style="fill: #2070b4; fill-opacity: 0.9"/>
    <path clip-path="url(#p4c4b0631d9)" style="fill: #1c6ab0; fill-opacity: 0.9"/>
    <path clip-path="url(#p4c4b0631d9)" style="fill: #1663aa; fill-opacity: 0.9"/>
    <path clip-path="url(#p4c4b0631d9)" style="fill: #115ca5; fill-opacity: 0.9"/>
    <path clip-path="url(#p4c4b0631d9)" style="fill: #0c56a0; fill-opacity: 0.9"/>
    <path clip-path="url(#p4c4b0631d9)" style="fill: #084f99; fill-opacity: 0.9"/>
    <path clip-path="url(#p4c4b0631d9)" style="fill: #08488e; fill-opacity: 0.9"/>
    <path clip-path="url(#p4c4b0631d9)" style="fill: #084184; fill-opacity: 0.9"/>
    <path clip-path="url(#p4c4b0631d9)" style="fill: #083a7a; fill-opacity: 0.9"/>
    <path clip-path="url(#p4c4b0631d9)" style="fill: #083370; fill-opacity: 0.9"/>
    <path clip-path="url(#p4c4b0631d9)" style="fill: #08306b; fill-opacity: 0.9"/>
   </g>
   <g id="QuadContourSet_2">
    <path d="M 0 120.500274 
L 0.471094 121.265484 
L 3.272727 121.610409 
L 6.545455 122.50778 
L 8.893807 124.54293 
L 9.818182 124.63516 
L 19.636364 125.075772 
L 32.727273 125.714228 
L 39.272727 126.197382 
L 45.818182 126.869942 
L 52.363636 127.838247 
L 62.489878 128.404169 
M 81.510174 129.383358 
L 94.909091 129.992264 
L 108 130.546752 
L 130.909091 131.707364 
L 166.909091 133.27986 
L 183.272727 133.915605 
L 209.454545 134.960629 
L 225.818182 135.481356 
L 238.909091 135.646647 
L 252 136.027629 
L 258.545455 136.177079 
L 265.090909 136.095345 
L 278.181818 136.297267 
L 294.545455 136.881552 
L 297.818182 136.749105 
L 301.090909 136.15303 
L 302.315557 134.375266 
L 304.363636 132.348016 
L 307.636364 132.718235 
L 321.433127 137.652712 
L 324 138.183242 
L 330.545455 138.41363 
L 333.818182 138.358484 
L 335.775333 137.652712 
L 334.597319 134.375266 
L 337.090909 133.042621 
L 340.363636 133.681068 
L 353.454545 138.79203 
L 356.727273 139.311264 
L 360 139.356192 
L 363.272727 139.252791 
L 366.545455 138.107536 
L 367.187263 137.652712 
L 365.920543 134.375266 
L 366.545455 133.61735 
L 369.818182 133.201128 
L 386.181818 139.742357 
L 389.454545 140.074876 
L 392.727273 140.005931 
L 396 139.415694 
L 398.462484 137.652712 
L 397.615672 134.375266 
L 399.272727 133.609244 
L 402.545455 134.417829 
L 418.909091 140.785864 
L 428.727273 141.11535 
L 429.749886 140.930157 
L 430.311822 137.652712 
L 432 135.19734 
L 435.272727 135.864959 
L 448.391212 140.930157 
L 451.636364 141.943283 
L 458.181818 142.229716 
L 461.454545 141.253629 
L 462.032961 140.930157 
L 462.016356 137.652712 
L 464.727273 136.707454 
L 467.121358 137.652712 
L 468 138.121085 
L 471.272727 139.334102 
L 481.090909 143.3644 
L 484.363636 144.323156 
L 487.636364 144.912347 
L 490.909091 145.243704 
L 494.056214 144.207603 
L 494.181818 143.173397 
L 497.454545 141.3375 
L 500.727273 142.783152 
L 513.818182 149.568895 
L 520.363636 151.029774 
L 523.636364 151.42447 
L 525.933783 150.762494 
L 526.909091 147.443761 
L 527.02813 147.485048 
L 530.181818 148.807347 
L 533.454545 149.995741 
L 543.272727 155.128202 
L 546.545455 156.531669 
L 550.686103 157.317385 
L 553.090909 157.773713 
L 556.363636 157.66292 
L 557.444346 157.317385 
L 559.636364 154.095608 
L 562.909091 155.861507 
L 566.254386 157.317385 
L 576 162.13045 
M -0 76.037729 
L 9.818182 76.935104 
L 22.909091 77.873381 
L 36.07702 78.658692 
L 45.818182 79.969488 
L 55.636364 81.134616 
L 62.181818 81.652901 
L 68.727273 82.11554 
L 78.545455 83.139737 
L 95.232573 84.704818 
M 114.214939 86.255077 
L 140.727273 88.525499 
L 160.424278 91.768474 
L 170.70258 95.04592 
L 174.432304 98.323365 
L 172.735539 101.600811 
L 168.660049 104.878256 
L 163.636364 105.389064 
L 150.545455 106.1982 
L 140.727273 106.820382 
L 121.090909 106.948156 
L 108 107.455838 
L 88.363636 107.303585 
L 78.545455 107.594867 
L 74.488986 108.155702 
L 72 109.671037 
L 68.262743 111.433148 
L 55.636364 112.312901 
L 29.454545 111.71069 
L 26.181818 111.881757 
L 19.636364 112.891653 
L 5.594066 114.710593 
L 3.272727 115.459809 
L 0 116.962258 
L 0 116.962258 
" clip-path="url(#p4c4b0631d9)" style="fill: none"/>
    <path d="M 576 114.881457 
L 572.727273 114.935945 
L 571.528997 114.710593 
L 569.454545 114.293347 
L 568.684296 114.710593 
L 566.701379 117.988039 
L 566.181818 118.275029 
L 562.909091 118.765256 
L 559.636364 118.112266 
L 559.313736 117.988039 
L 556.363636 116.752649 
L 553.090909 115.203411 
L 552.049843 114.710593 
L 549.818182 113.654173 
L 546.545455 113.311579 
L 545.348137 114.710593 
L 543.272727 115.686333 
L 540 115.499979 
L 536.727273 115.267645 
L 533.454545 114.97869 
L 530.418061 114.710593 
L 530.181818 114.689735 
L 526.909091 114.400263 
L 523.636364 114.137078 
L 520.363636 114.296485 
L 517.090909 114.253205 
L 513.818182 114.38805 
L 511.38236 114.710593 
L 510.545455 114.803556 
L 507.272727 114.80715 
L 505.163291 114.710593 
L 504 114.656219 
L 503.783999 114.710593 
L 500.727273 115.924815 
L 497.454545 117.526935 
L 496.21302 117.988039 
L 494.181818 118.457264 
L 490.909091 118.292202 
L 487.636364 118.290885 
L 484.363636 118.37801 
L 481.090909 119.024082 
L 477.818182 120.989726 
L 477.114727 121.265484 
L 474.545455 121.991761 
L 471.272727 122.700976 
L 468 123.138704 
L 464.727273 123.407168 
L 461.454545 123.49121 
L 458.181818 123.97247 
L 454.909091 124.501932 
L 454.662673 124.54293 
L 451.636364 125.04643 
L 448.363636 125.587302 
L 445.090909 125.774396 
L 441.818182 125.906057 
L 438.545455 125.882681 
L 435.272727 125.720737 
L 432 125.750101 
L 428.727273 126.587239 
L 425.454545 127.439221 
L 423.970816 127.820375 
L 425.454545 127.894366 
L 428.727273 128.620779 
L 430.087963 131.097821 
L 432 131.527988 
L 435.272727 132.03659 
L 437.804451 134.375266 
L 438.545455 134.662568 
L 441.818182 135.332257 
L 445.090909 136.433766 
L 446.257563 137.652712 
L 448.363636 138.46928 
L 451.636364 139.088205 
L 454.909091 137.792348 
L 455.053406 137.652712 
L 455.036801 134.375266 
L 458.181818 131.878825 
L 461.454545 131.754589 
L 464.727273 133.737524 
L 465.190802 134.375266 
L 468 135.08959 
L 471.272727 135.894417 
L 472.938537 137.652712 
L 474.545455 138.312341 
L 477.818182 138.912533 
L 480.922699 140.930157 
L 481.090909 140.999206 
L 484.363636 141.772947 
L 486.856435 140.930157 
L 487.21185 137.652712 
L 487.636364 134.508362 
L 490.909091 135.426857 
L 494.181818 135.816777 
L 495.878784 137.652712 
L 497.454545 138.379029 
L 500.727273 139.379457 
L 502.158494 140.930157 
L 504 141.770687 
L 507.272727 142.953625 
L 508.428325 144.207603 
L 510.545455 145.164261 
L 513.818182 146.550183 
L 515.526644 147.485048 
L 517.090909 147.803099 
L 518.188692 147.485048 
L 519.055555 144.207603 
L 519.918118 140.930157 
L 520.363636 140.443467 
L 520.826094 140.930157 
L 523.636364 142.14022 
L 526.909091 144.074027 
L 527.03551 144.207603 
L 528.155292 144.588627 
M 544.945243 153.344935 
L 545.833459 154.039939 
L 546.545455 154.368414 
L 549.50001 154.039939 
L 549.818182 153.651137 
L 550.913557 150.762494 
L 553.090909 149.512781 
L 556.363636 149.577473 
L 557.529791 150.762494 
L 559.636364 151.69966 
L 562.909091 152.799225 
L 564.130825 154.039939 
L 566.181818 154.974739 
L 569.454545 156.025635 
L 570.727273 157.317385 
L 572.727273 158.249909 
L 576 159.263899 
M 576 106.504195 
L 575.145891 108.155702 
L 574.914801 111.433148 
L 576 113.998379 
M 576 85.146182 
L 572.727273 83.097207 
L 570.398308 81.936138 
L 569.454545 81.497745 
L 566.181818 80.436733 
L 563.577063 81.936138 
L 565.306374 85.213583 
L 566.181818 86.872753 
L 567.058556 88.491029 
L 568.751205 91.768474 
L 569.454545 92.44467 
L 571.611411 95.04592 
L 571.640399 95.097301 
M 576 56.065079 
L 575.012131 55.716574 
L 572.727273 54.910511 
L 569.454545 53.618839 
L 566.181818 52.495222 
L 566.062961 52.439128 
L 562.909091 50.878001 
L 559.636364 49.406135 
L 559.118395 49.161683 
L 556.363636 47.861591 
L 553.090909 46.317048 
L 552.173828 45.884237 
L 549.818182 44.826343 
L 546.545455 43.965024 
L 543.272727 43.090172 
L 541.146524 42.606792 
L 540 42.318356 
L 536.727273 40.960688 
L 533.454545 39.883491 
L 532.115995 39.329346 
L 530.181818 38.503585 
L 526.909091 37.173747 
L 524.199242 36.051901 
L 523.636364 35.818875 
L 520.363636 34.464004 
L 517.090909 33.043291 
L 516.613321 32.774455 
L 513.818182 31.166544 
L 510.915919 29.49701 
L 510.545455 29.283899 
L 507.272727 27.401254 
L 505.218517 26.219564 
L 504 25.518609 
L 500.727273 24.475591 
L 499.521982 26.219564 
L 500.727273 27.617367 
L 502.348041 29.49701 
L 504 32.033524 
L 504.611832 32.774455 
L 505.429689 36.051901 
L 504 38.101147 
L 500.727273 37.339826 
L 498.281411 36.051901 
L 497.454545 35.521076 
L 494.181818 33.893164 
L 492.057312 32.774455 
L 490.909091 32.169833 
L 487.636364 30.446501 
L 485.833212 29.49701 
L 484.363636 28.72317 
L 481.090909 26.780357 
L 480.223474 26.219564 
L 479.333713 25.644338 
M 463.484857 14.932606 
L 461.454545 13.42508 
L 460.875639 13.109782 
L 461.246119 9.832337 
L 461.454545 9.085378 
L 464.727273 7.623531 
L 468 7.982897 
L 471.272727 7.522198 
L 472.750788 6.554891 
L 471.272727 5.069382 
L 469.489775 3.277446 
L 468 1.593847 
L 466.414849 0 
M -0 48.382228 
L 3.272727 48.481422 
L 6.545455 48.578128 
L 9.818182 48.672439 
L 13.090909 48.764442 
L 16.363636 48.853553 
L 19.636364 48.933351 
L 22.909091 49.017083 
L 26.181818 49.047742 
L 29.454545 49.078263 
L 32.727273 49.111205 
L 36 49.145407 
L 37.554708 49.161683 
L 39.272727 49.185061 
L 42.545455 49.229496 
L 45.818182 49.273831 
L 49.090909 49.318247 
L 52.363636 49.362662 
L 55.636364 49.407078 
L 58.909091 49.445473 
L 62.181818 49.447016 
L 65.454545 49.448558 
L 68.727273 49.453424 
L 68.96483 49.453925 
M 88.126077 49.49508 
L 88.363636 49.495616 
L 91.636364 49.502995 
L 94.909091 49.508107 
L 98.181818 49.508332 
L 101.454545 49.508557 
L 104.727273 49.509676 
L 108 49.51502 
L 111.272727 49.520345 
L 114.545455 49.525651 
L 117.818182 49.530939 
L 121.090909 49.536646 
L 124.363636 49.542563 
L 127.636364 49.548481 
L 130.909091 49.550775 
L 134.181818 49.549876 
L 137.454545 49.548977 
L 140.727273 49.548078 
L 144 49.551006 
L 147.272727 49.554996 
L 150.545455 49.558972 
L 153.818182 49.562935 
L 157.090909 49.56715 
L 160.363636 49.571777 
L 163.636364 49.576405 
L 166.909091 49.640059 
L 170.181818 49.719658 
L 173.454545 49.799256 
L 176.727273 49.878854 
L 180 49.932572 
L 183.272727 49.954583 
L 186.545455 49.977681 
L 189.818182 50.001947 
L 193.090909 50.023883 
L 196.363636 50.027586 
L 199.636364 50.044718 
L 202.909091 50.18181 
L 206.181818 50.318903 
L 209.454545 50.455995 
L 212.727273 50.593088 
L 216 50.719053 
L 219.272727 50.791751 
L 222.545455 50.870708 
L 225.818182 50.956767 
L 229.090909 51.050932 
L 232.363636 51.061618 
L 235.636364 51.284666 
L 238.909091 51.73265 
L 242.181818 52.180633 
L 244.070242 52.439128 
L 245.454545 52.628617 
L 248.727273 53.076601 
L 252 53.162264 
L 255.272727 53.212048 
L 258.545455 53.097617 
L 261.818182 52.978671 
L 265.090909 52.859725 
L 268.363636 52.85138 
L 271.636364 53.367305 
L 274.909091 53.86214 
L 278.181818 54.332154 
L 281.454545 54.844378 
L 284.727273 55.355133 
L 286.998115 55.716574 
L 288 55.878994 
L 291.272727 56.284419 
L 294.545455 56.350416 
L 297.818182 56.382148 
L 301.090909 56.316803 
L 304.363636 56.57822 
L 307.636364 57.060252 
L 310.909091 57.61239 
L 314.181818 58.133633 
L 317.454545 58.748762 
L 318.77427 58.994019 
L 320.727273 59.360024 
L 324 59.973354 
L 327.272727 60.590412 
L 330.545455 61.210972 
L 333.818182 61.747109 
L 337.090909 62.014622 
L 337.956314 62.271465 
L 340.363636 62.696577 
L 343.636364 62.939709 
L 346.909091 63.527733 
L 350.181818 64.516294 
L 353.454545 64.973303 
L 356.727273 65.44299 
L 357.384457 65.54891 
L 360 65.979736 
L 363.272727 66.69316 
L 366.545455 67.371934 
L 369.818182 67.589121 
L 373.090909 66.764648 
L 376.363636 66.354955 
L 379.636364 66.692898 
L 382.909091 66.914356 
L 386.181818 67.125529 
L 389.454545 67.550656 
L 392.727273 67.855253 
L 396 67.639717 
L 399.272727 67.759512 
L 402.545455 67.943605 
L 405.818182 67.336933 
L 409.090909 67.02944 
L 412.363636 67.033962 
L 415.636364 67.272666 
L 418.909091 67.724666 
L 422.181818 68.23456 
L 425.454545 68.067612 
L 428.727273 67.937728 
L 432 67.924956 
L 435.272727 67.912183 
L 438.545455 67.70574 
L 441.818182 67.54567 
L 445.090909 67.619918 
L 448.363636 68.360725 
L 451.636364 68.820891 
L 451.722804 68.826356 
L 454.909091 68.984389 
L 458.181818 69.23473 
L 461.454545 69.209307 
L 464.727273 69.091371 
L 468 68.946959 
L 470.733146 68.826356 
L 471.272727 68.787375 
L 471.660315 68.826356 
L 474.545455 68.984626 
L 477.818182 68.952406 
L 480.410168 68.826356 
L 481.090909 68.761959 
L 484.363636 68.476809 
L 487.636364 68.30806 
L 490.909091 68.577825 
L 493.16563 68.826356 
L 494.181818 68.92161 
L 497.454545 69.228385 
L 497.83678 68.826356 
L 497.454545 68.627653 
L 494.181818 68.685294 
L 492.705744 65.54891 
L 490.909091 64.55132 
L 487.636364 63.262301 
L 486.803086 62.271465 
L 484.363636 60.916963 
L 481.090909 59.151268 
L 480.900427 58.994019 
L 477.818182 57.282606 
L 475.213811 55.716574 
L 474.545455 55.282626 
L 471.326291 52.439128 
L 471.272727 52.391815 
L 468 49.501005 
L 467.615848 49.161683 
L 464.727273 46.610195 
L 463.905406 45.884237 
L 461.454545 42.676862 
L 461.369757 42.606792 
L 461.242916 39.329346 
L 461.454545 39.190745 
L 464.727273 39.223257 
L 465.145782 39.329346 
L 468 40.05287 
L 471.272727 40.882482 
L 474.545455 41.712095 
L 477.818182 42.482473 
L 477.930133 42.606792 
L 481.090909 44.72366 
L 482.484702 45.884237 
L 484.363636 47.448781 
L 486.420742 49.161683 
L 487.636364 50.173901 
L 490.356783 52.439128 
L 490.909091 52.899022 
L 494.181818 55.624143 
L 494.292823 55.716574 
L 497.454545 58.549549 
L 497.996691 58.994019 
L 500.408583 62.271465 
L 500.727273 62.740611 
L 502.63494 65.54891 
L 504 67.558431 
L 505.098406 68.826356 
L 507.272727 70.706092 
L 510.545455 71.696765 
L 511.890117 72.103801 
L 513.818182 72.687437 
L 517.090909 73.659753 
L 520.363636 74.326243 
L 522.450268 72.103801 
L 520.363636 70.747126 
L 519.152483 68.826356 
L 517.090909 67.136174 
L 515.154869 65.54891 
L 513.818182 64.453027 
L 511.157254 62.271465 
L 510.545455 61.769881 
L 507.272727 59.232269 
L 506.947259 58.994019 
L 504 56.836559 
L 502.470012 55.716574 
L 500.727273 54.44085 
L 497.992765 52.439128 
L 497.454545 52.04514 
L 494.181818 49.663363 
L 493.515517 49.161683 
L 490.909091 47.25372 
L 489.03827 45.884237 
L 489.833963 42.606792 
L 490.909091 42.235414 
L 494.181818 41.884088 
L 497.454545 42.516911 
L 497.717113 42.606792 
L 500.727273 43.637209 
L 504 44.757507 
L 507.272727 45.874229 
L 507.291517 45.884237 
L 510.545455 46.998103 
L 513.818182 48.757378 
L 514.261557 49.161683 
L 517.090909 52.36805 
L 517.159407 52.439128 
L 520.132903 55.716574 
L 520.363636 55.968942 
L 523.129379 58.994019 
L 523.636364 59.548542 
L 526.125855 62.271465 
L 526.909091 63.209309 
L 529.031151 65.54891 
L 530.181818 67.077273 
L 531.73904 68.826356 
L 533.454545 71.249291 
L 534.085525 72.103801 
L 536.365188 75.381247 
L 536.727273 75.901812 
L 539.191932 78.658692 
L 540 79.40216 
L 543.272727 81.568575 
L 543.827992 81.936138 
L 546.545455 83.73499 
L 548.779114 85.213583 
L 549.818182 85.901405 
L 553.090909 87.800596 
L 554.900749 88.491029 
L 556.363636 89.088552 
L 559.636364 89.149411 
L 560.27611 88.491029 
L 559.636364 88.151363 
L 557.766308 85.213583 
L 556.363636 84.132635 
L 554.416575 81.936138 
L 553.090909 80.834045 
L 550.474262 78.658692 
L 549.818182 78.11326 
L 546.545455 75.397838 
L 546.531949 75.381247 
L 543.272727 72.67169 
L 542.605676 72.103801 
L 540 69.797457 
L 539.009825 68.826356 
L 536.727273 66.587773 
L 535.668006 65.54891 
L 533.454545 63.378088 
L 532.326186 62.271465 
L 530.181818 60.168404 
L 528.984367 58.994019 
L 526.909091 56.958719 
L 525.642548 55.716574 
L 523.636364 53.661179 
L 522.389134 52.439128 
L 521.353733 49.161683 
L 523.636364 47.595871 
L 526.909091 48.02203 
L 529.028928 49.161683 
L 530.181818 49.757225 
L 533.454545 51.688306 
L 534.677965 52.439128 
L 536.727273 53.696805 
L 540 55.701978 
L 540.018364 55.716574 
L 543.272727 57.713803 
L 545.70634 58.994019 
L 546.545455 59.408287 
L 549.818182 60.724366 
L 553.090909 61.893416 
L 553.717247 62.271465 
L 556.363636 63.365651 
L 559.636364 64.553383 
L 561.720508 65.54891 
L 562.909091 66.035651 
L 566.181818 67.375878 
L 569.454545 68.653028 
L 569.723769 68.826356 
L 572.727273 70.056332 
L 576 71.911142 
M 381.751982 135.233579 
L 382.909091 135.614526 
L 386.181818 136.64586 
L 389.211206 137.652712 
L 389.454545 137.689654 
L 389.781776 137.652712 
L 390.951382 134.375266 
L 390.104571 131.097821 
L 389.454545 129.005845 
L 386.181818 128.170421 
L 383.570408 127.820375 
L 382.909091 127.724511 
L 379.636364 127.293038 
L 376.363636 126.854346 
L 373.090909 126.856934 
L 371.452754 127.132218 
M 422.732503 132.694192 
L 422.511999 131.097821 
L 422.181818 128.472065 
L 418.909091 127.940806 
L 417.833737 127.820375 
L 415.636364 127.465435 
L 412.363636 127.148183 
L 409.090909 126.841247 
L 405.818182 126.501353 
L 402.545455 126.779677 
L 399.272727 127.554396 
L 398.384428 127.820375 
L 399.272727 127.964659 
L 401.108083 131.097821 
L 402.545455 131.515136 
L 405.818182 131.982908 
L 408.837008 134.375266 
L 409.090909 134.474424 
L 410.136898 134.76682 
M 235.398471 132.189995 
L 235.636364 132.19309 
L 238.909091 132.25782 
L 242.181818 132.328081 
L 245.454545 132.404613 
L 248.727273 132.488297 
L 252 132.580182 
L 255.272727 132.655447 
L 258.545455 132.681131 
L 261.818182 132.639499 
L 265.090909 132.665439 
L 268.363636 132.792606 
L 271.636364 132.938472 
L 274.909091 133.107493 
L 278.181818 133.305654 
L 281.454545 133.541203 
L 284.727273 133.815457 
L 288 134.163634 
L 289.282449 134.375266 
L 291.272727 134.456042 
L 293.170422 134.375266 
L 293.402985 131.097821 
L 292.391914 127.820375 
L 291.272727 125.342274 
L 288 125.135093 
L 284.727273 124.927911 
L 281.454545 124.720729 
L 278.645948 124.54293 
L 278.181818 124.526422 
L 274.909091 124.40844 
L 271.636364 124.287623 
L 268.363636 124.163866 
L 265.090909 124.037062 
L 261.818182 123.907095 
L 258.545455 123.901173 
L 255.272727 123.794497 
L 252 123.690416 
L 248.727273 123.570812 
L 245.454545 123.43496 
L 242.181818 123.29351 
L 238.909091 123.146112 
L 235.636364 122.99238 
L 232.363636 122.831898 
L 229.090909 122.71732 
L 225.818182 122.622893 
L 222.545455 122.518081 
L 219.272727 122.389356 
L 216 122.183681 
L 212.727273 121.962668 
L 209.454545 121.724536 
L 206.181818 121.467216 
L 203.788143 121.265484 
L 202.909091 121.23037 
L 199.636364 121.099638 
L 196.363636 120.968906 
L 193.090909 120.838175 
L 189.818182 120.760147 
L 186.545455 120.756743 
L 183.272727 120.772013 
L 180 120.788101 
L 176.727273 120.806683 
L 173.454545 120.836684 
L 170.181818 120.866686 
L 166.909091 120.896687 
L 163.636364 120.926689 
L 160.363636 120.95669 
L 157.090909 121.005142 
L 153.818182 121.180811 
L 152.445773 121.265484 
L 151.614698 124.54293 
L 150.794489 127.820375 
L 153.818182 127.951207 
L 157.090909 128.110713 
L 160.363636 128.250334 
L 163.636364 128.403043 
L 166.909091 128.592527 
L 170.181818 128.814933 
L 173.454545 129.079658 
L 176.727273 129.400051 
L 180 129.795733 
L 183.272727 130.285081 
L 186.545455 130.945187 
L 187.160016 131.097821 
L 189.818182 131.213292 
L 193.090909 131.346201 
L 196.363636 131.459927 
L 199.636364 131.575015 
L 202.909091 131.691489 
L 206.181818 131.806206 
L 209.454545 131.897262 
L 212.727273 131.942113 
L 216 131.989701 
L 216.238389 131.993385 
M 319.438824 134.311024 
L 319.526328 134.375266 
L 320.727273 134.813805 
L 324 135.484331 
L 327.052903 134.375266 
L 325.874889 131.097821 
L 324.5034 127.820375 
L 324 126.866849 
L 320.727273 126.658797 
L 317.454545 126.38882 
L 314.181818 126.118843 
L 310.909091 125.89518 
L 307.636364 125.684711 
L 304.363636 125.595294 
L 302.289272 127.666394 
M 356.399045 128.457347 
L 353.503086 127.820375 
L 353.454545 127.811096 
L 350.181818 127.233701 
L 346.909091 126.655602 
L 343.636364 126.139866 
L 340.363636 125.899864 
L 337.090909 126.027433 
L 333.818182 126.455999 
L 333.110128 127.820375 
L 333.818182 128.034754 
L 337.090909 128.31052 
L 340.363636 130.154772 
L 340.793981 131.097821 
L 343.636364 132.006592 
L 346.909091 132.763364 
L 347.743133 133.384313 
M 441.818182 45.985565 
L 441.677773 45.884237 
L 441.818182 45.793371 
L 442.024554 45.884237 
L 441.818182 45.985565 
z
M 468 33.855583 
L 466.782645 33.25766 
M 449.573124 24.801281 
L 448.363636 24.205073 
L 446.281225 22.942119 
L 445.090909 22.201274 
L 441.818182 20.164348 
L 441.015354 19.664673 
L 438.545455 18.127423 
L 435.749483 16.387228 
L 435.272727 15.88266 
L 432 13.860949 
L 430.729219 13.109782 
L 430.054909 9.832337 
L 432 8.175945 
L 435.272727 8.026442 
L 438.545455 8.799359 
L 441.818182 9.55989 
L 442.919341 9.832337 
L 445.090909 10.345194 
L 448.363636 11.118112 
L 451.636364 12.142023 
L 452.815927 13.109782 
L 454.909091 14.846401 
L 456.766265 16.387228 
L 458.181818 17.561658 
L 460.716603 19.664673 
L 461.454545 20.276916 
L 464.666941 22.942119 
L 464.727273 23.010978 
L 468 25.707431 
L 468.61728 26.219564 
L 470.602476 29.49701 
L 471.272727 31.152562 
L 471.929351 32.774455 
L 471.272727 33.677104 
L 468 33.855583 
M 374.227163 19.048092 
L 373.090909 18.309448 
L 370.133961 16.387228 
L 369.818182 16.137836 
L 366.545455 14.05445 
L 365.092273 13.109782 
L 363.272727 9.855466 
L 363.249802 9.832337 
L 363.272727 9.797144 
L 366.545455 8.386457 
L 369.818182 8.694561 
L 373.090909 9.402148 
L 375.080615 9.832337 
L 376.363636 10.109735 
L 379.636364 10.828972 
L 382.909091 12.665586 
L 383.64532 13.109782 
L 386.181818 14.640151 
L 389.077495 16.387228 
L 389.454545 16.630684 
L 392.727273 18.589282 
L 394.509671 19.664673 
L 396 21.443416 
L 399.047824 22.942119 
L 397.236071 26.219564 
L 396 26.567743 
L 393.923538 26.219564 
L 392.727273 25.887698 
L 392.095724 25.722873 
M 425.454545 26.68661 
L 424.031855 26.219564 
L 422.181818 25.612228 
L 418.909091 24.537845 
L 415.636364 23.463463 
L 414.26488 22.942119 
L 412.363636 22.172332 
L 409.090909 20.070522 
L 408.458962 19.664673 
L 405.818182 17.968712 
L 403.355654 16.387228 
L 402.545455 15.724481 
L 399.272727 13.765091 
L 398.252346 13.109782 
L 396.468678 9.832337 
L 399.272727 7.970342 
L 402.545455 8.130355 
L 405.818182 8.976841 
L 409.090909 9.823327 
L 409.125744 9.832337 
L 412.363636 10.669813 
L 414.827866 11.373361 
M 430.944013 21.7035 
L 432 22.330533 
L 432.929053 22.942119 
L 433.278135 26.219564 
L 432 27.235208 
L 428.727273 27.46051 
L 425.454545 26.68661 
M 497.454545 23.821911 
L 498.819879 22.942119 
L 497.454545 22.312491 
L 496.695922 22.942119 
L 497.454545 23.821911 
z
M 349.078583 20.849762 
L 346.909091 20.219188 
L 345.13016 19.664673 
L 343.636364 19.199038 
L 340.363636 17.279955 
L 338.972961 16.387228 
L 337.090909 14.319295 
L 335.309389 13.109782 
L 337.090909 12.363543 
L 340.363636 12.463706 
L 343.636364 12.978956 
L 343.938942 13.109782 
L 346.909091 14.469752 
L 348.27225 15.161236 
" clip-path="url(#p4c4b0631d9)" style="fill: none"/>
    <path d="M -0 22.229174 
L 3.272727 21.352757 
L 3.960795 21.152858 
M 20.325091 12.934801 
L 21.959211 9.832337 
L 22.909091 7.360631 
L 23.226197 6.554891 
L 24.372196 3.277446 
L 24.056507 0 
" clip-path="url(#p4c4b0631d9)" style="fill: none"/>
    <path clip-path="url(#p4c4b0631d9)" style="fill: none"/>
    <path clip-path="url(#p4c4b0631d9)" style="fill: none"/>
    <path clip-path="url(#p4c4b0631d9)" style="fill: none"/>
    <path clip-path="url(#p4c4b0631d9)" style="fill: none"/>
    <path clip-path="url(#p4c4b0631d9)" style="fill: none"/>
    <path clip-path="url(#p4c4b0631d9)" style="fill: none"/>
    <path clip-path="url(#p4c4b0631d9)" style="fill: none"/>
    <path clip-path="url(#p4c4b0631d9)" style="fill: none"/>
    <path clip-path="url(#p4c4b0631d9)" style="fill: none"/>
    <path clip-path="url(#p4c4b0631d9)" style="fill: none"/>
    <path clip-path="url(#p4c4b0631d9)" style="fill: none"/>
    <path clip-path="url(#p4c4b0631d9)" style="fill: none"/>
    <path clip-path="url(#p4c4b0631d9)" style="fill: none"/>
    <path clip-path="url(#p4c4b0631d9)" style="fill: none"/>
    <path clip-path="url(#p4c4b0631d9)" style="fill: none"/>
    <path clip-path="url(#p4c4b0631d9)" style="fill: none"/>
    <path clip-path="url(#p4c4b0631d9)" style="fill: none"/>
    <path clip-path="url(#p4c4b0631d9)" style="fill: none"/>
    <path clip-path="url(#p4c4b0631d9)" style="fill: none"/>
    <path clip-path="url(#p4c4b0631d9)" style="fill: none"/>
    <path clip-path="url(#p4c4b0631d9)" style="fill: none"/>
    <path clip-path="url(#p4c4b0631d9)" style="fill: none"/>
    <path clip-path="url(#p4c4b0631d9)" style="fill: none"/>
    <path clip-path="url(#p4c4b0631d9)" style="fill: none"/>
    <path clip-path="url(#p4c4b0631d9)" style="fill: none"/>
    <path clip-path="url(#p4c4b0631d9)" style="fill: none"/>
    <path clip-path="url(#p4c4b0631d9)" style="fill: none"/>
    <path clip-path="url(#p4c4b0631d9)" style="fill: none"/>
    <path clip-path="url(#p4c4b0631d9)" style="fill: none"/>
    <path clip-path="url(#p4c4b0631d9)" style="fill: none"/>
    <path clip-path="url(#p4c4b0631d9)" style="fill: none"/>
    <path clip-path="url(#p4c4b0631d9)" style="fill: none"/>
    <path clip-path="url(#p4c4b0631d9)" style="fill: none"/>
    <path clip-path="url(#p4c4b0631d9)" style="fill: none"/>
    <path clip-path="url(#p4c4b0631d9)" style="fill: none"/>
    <path clip-path="url(#p4c4b0631d9)" style="fill: none"/>
   </g>
   <g id="text_1">
    <g clip-path="url(#p4c4b0631d9)">
     <!-- 0 -->
     <g style="opacity: 0" transform="translate(68.018297 132.006141) rotate(-357.071168) scale(0.12 -0.12)">
      <defs>
       <path id="DejaVuSans-30" d="M 2034 4250 
Q 1547 4250 1301 3770 
Q 1056 3291 1056 2328 
Q 1056 1369 1301 889 
Q 1547 409 2034 409 
Q 2525 409 2770 889 
Q 3016 1369 3016 2328 
Q 3016 3291 2770 3770 
Q 2525 4250 2034 4250 
z
M 2034 4750 
Q 2819 4750 3233 4129 
Q 3647 3509 3647 2328 
Q 3647 1150 3233 529 
Q 2819 -91 2034 -91 
Q 1250 -91 836 529 
Q 422 1150 422 2328 
Q 422 3509 836 4129 
Q 1250 4750 2034 4750 
z
" transform="scale(0.015625)"/>
      </defs>
      <use xlink:href="#DejaVuSans-30"/>
     </g>
    </g>
   </g>
   <g id="text_2">
    <g clip-path="url(#p4c4b0631d9)">
     <!-- 0 -->
     <g style="opacity: 0" transform="translate(100.648294 88.418331) rotate(-355.242486) scale(0.12 -0.12)">
      <use xlink:href="#DejaVuSans-30"/>
     </g>
    </g>
   </g>
   <g id="text_3">
    <g clip-path="url(#p4c4b0631d9)">
     <!-- 1 -->
     <g style="opacity: 0" transform="translate(531.810992 149.82157) rotate(-332.443699) scale(0.12 -0.12)">
      <defs>
       <path id="DejaVuSans-31" d="M 794 531 
L 1825 531 
L 1825 4091 
L 703 3866 
L 703 4441 
L 1819 4666 
L 2450 4666 
L 2450 531 
L 3481 531 
L 3481 0 
L 794 0 
L 794 531 
z
" transform="scale(0.015625)"/>
      </defs>
      <use xlink:href="#DejaVuSans-31"/>
     </g>
    </g>
   </g>
   <g id="text_4">
    <g clip-path="url(#p4c4b0631d9)">
     <!-- 1 -->
     <g style="opacity: 0" transform="translate(571.39399 101.590621) rotate(-294.768945) scale(0.12 -0.12)">
      <use xlink:href="#DejaVuSans-31"/>
     </g>
    </g>
   </g>
   <g id="text_5">
    <g clip-path="url(#p4c4b0631d9)">
     <!-- 1 -->
     <g style="opacity: 0" transform="translate(466.270091 21.148013) rotate(-327.196654) scale(0.12 -0.12)">
      <use xlink:href="#DejaVuSans-31"/>
     </g>
    </g>
   </g>
   <g id="text_6">
    <g clip-path="url(#p4c4b0631d9)">
     <!-- 1 -->
     <g style="opacity: 0" transform="translate(74.720994 52.777243) rotate(-359.879417) scale(0.12 -0.12)">
      <use xlink:href="#DejaVuSans-31"/>
     </g>
    </g>
   </g>
   <g id="text_7">
    <g clip-path="url(#p4c4b0631d9)">
     <!-- 1 -->
     <g style="opacity: 0" transform="translate(368.094784 132.383949) rotate(-327.702726) scale(0.12 -0.12)">
      <use xlink:href="#DejaVuSans-31"/>
     </g>
    </g>
   </g>
   <g id="text_8">
    <g clip-path="url(#p4c4b0631d9)">
     <!-- 1 -->
     <g style="opacity: 0" transform="translate(414.652947 141.033307) rotate(-351.686764) scale(0.12 -0.12)">
      <use xlink:href="#DejaVuSans-31"/>
     </g>
    </g>
   </g>
   <g id="text_9">
    <g clip-path="url(#p4c4b0631d9)">
     <!-- 1 -->
     <g style="opacity: 0" transform="translate(221.975907 135.396124) rotate(-359.569444) scale(0.12 -0.12)">
      <use xlink:href="#DejaVuSans-31"/>
     </g>
    </g>
   </g>
   <g id="text_10">
    <g clip-path="url(#p4c4b0631d9)">
     <!-- 1 -->
     <g style="opacity: 0" transform="translate(305.730978 132.616058) rotate(-336.545721) scale(0.12 -0.12)">
      <use xlink:href="#DejaVuSans-31"/>
     </g>
    </g>
   </g>
   <g id="text_11">
    <g clip-path="url(#p4c4b0631d9)">
     <!-- 1 -->
     <g style="opacity: 0" transform="translate(354.560203 140.619375) rotate(-23.668913) scale(0.12 -0.12)">
      <use xlink:href="#DejaVuSans-31"/>
     </g>
    </g>
   </g>
   <g id="text_12">
    <g clip-path="url(#p4c4b0631d9)">
     <!-- 1 -->
     <g style="opacity: 0" transform="translate(453.305537 30.359722) rotate(-334.279876) scale(0.12 -0.12)">
      <use xlink:href="#DejaVuSans-31"/>
     </g>
    </g>
   </g>
   <g id="text_13">
    <g clip-path="url(#p4c4b0631d9)">
     <!-- 1 -->
     <g style="opacity: 0" transform="translate(378.241668 24.930671) rotate(-341.603079) scale(0.12 -0.12)">
      <use xlink:href="#DejaVuSans-31"/>
     </g>
    </g>
   </g>
   <g id="text_14">
    <g clip-path="url(#p4c4b0631d9)">
     <!-- 1 -->
     <g style="opacity: 0" transform="translate(417.964294 17.068829) rotate(-326.813595) scale(0.12 -0.12)">
      <use xlink:href="#DejaVuSans-31"/>
     </g>
    </g>
   </g>
   <g id="text_15">
    <g clip-path="url(#p4c4b0631d9)">
     <!-- 1 -->
     <g style="opacity: 0" transform="translate(352.297355 17.041715) rotate(-290.297779) scale(0.12 -0.12)">
      <use xlink:href="#DejaVuSans-31"/>
     </g>
    </g>
   </g>
   <g id="text_16">
    <g clip-path="url(#p4c4b0631d9)">
     <!-- 2 -->
     <g style="opacity: 0" transform="translate(10.543223 22.602233) rotate(-18.78746) scale(0.12 -0.12)">
      <defs>
       <path id="DejaVuSans-32" d="M 1228 531 
L 3431 531 
L 3431 0 
L 469 0 
L 469 531 
Q 828 903 1448 1529 
Q 2069 2156 2228 2338 
Q 2531 2678 2651 2914 
Q 2772 3150 2772 3378 
Q 2772 3750 2511 3984 
Q 2250 4219 1831 4219 
Q 1534 4219 1204 4116 
Q 875 4013 500 3803 
L 500 4441 
Q 881 4594 1212 4672 
Q 1544 4750 1819 4750 
Q 2544 4750 2975 4387 
Q 3406 4025 3406 3419 
Q 3406 3131 3298 2873 
Q 3191 2616 2906 2266 
Q 2828 2175 2409 1742 
Q 1991 1309 1228 531 
z
" transform="scale(0.015625)"/>
      </defs>
      <use xlink:href="#DejaVuSans-32"/>
     </g>
    </g>
   </g>
  </g>
 </g>
 <defs>
  <clipPath id="p4c4b0631d9">
   <rect x="0" y="0" width="576" height="816.083933"/>
  </clipPath>
 </defs>
</svg>
