<?xml version="1.0" encoding="utf-8" standalone="no"?>
<!DOCTYPE svg PUBLIC "-//W3C//DTD SVG 1.1//EN"
  "http://www.w3.org/Graphics/SVG/1.1/DTD/svg11.dtd">
<svg xmlns:xlink="http://www.w3.org/1999/xlink" width="576pt" height="820.261383pt" viewBox="0 0 576 820.261383" xmlns="http://www.w3.org/2000/svg" version="1.1">
 <metadata>
  <rdf:RDF xmlns:dc="http://purl.org/dc/elements/1.1/" xmlns:cc="http://creativecommons.org/ns#" xmlns:rdf="http://www.w3.org/1999/02/22-rdf-syntax-ns#">
   <cc:Work>
    <dc:type rdf:resource="http://purl.org/dc/dcmitype/StillImage"/>
    <dc:date>2025-07-25T22:44:53.215452</dc:date>
    <dc:format>image/svg+xml</dc:format>
    <dc:creator>
     <cc:Agent>
      <dc:title>Matplotlib v3.10.3, https://matplotlib.org/</dc:title>
     </cc:Agent>
    </dc:creator>
   </cc:Work>
  </rdf:RDF>
 </metadata>
 <defs>
  <style type="text/css">*{stroke-linejoin: round; stroke-linecap: butt}</style>
 </defs>
 <g id="figure_1">
  <g id="patch_1">
   <path d="M 0 820.261383 
L 576 820.261383 
L 576 0 
L 0 0 
L 0 820.261383 
z
" style="fill: none; opacity: 0"/>
  </g>
  <g id="axes_1">
   <g id="QuadContourSet_1">
    <path d="M 526.628571 820.261383 
L 528.071557 820.261383 
L 529.92 819.218961 
L 533.211429 818.029794 
L 535.573896 816.967161 
L 534.691581 813.672938 
L 536.502857 811.860124 
L 537.983009 810.378716 
L 539.794286 808.565902 
L 541.274438 807.084493 
L 543.085714 804.646577 
L 544.90206 807.084493 
L 544.90206 810.378716 
L 546.377143 813.446779 
L 548.00452 813.672938 
L 549.668571 815.56419 
L 552.96 814.2571 
L 553.625814 813.672938 
L 556.251429 811.436592 
L 557.452234 810.378716 
L 559.542857 808.536935 
L 561.191537 807.084493 
L 562.834286 805.857552 
L 566.125714 804.596388 
L 567.94811 803.790271 
L 567.583818 800.496049 
L 569.417143 798.661167 
L 570.875246 797.201826 
L 572.708571 795.366945 
L 574.166675 793.907604 
L 576 791.456521 
L 576 790.613381 
L 573.536036 793.907604 
L 572.708571 794.73577 
L 570.244607 797.201826 
L 569.417143 798.029993 
L 566.953178 800.496049 
L 566.125714 803.368843 
L 565.691328 803.790271 
L 562.834286 804.94524 
L 559.970046 807.084493 
L 559.542857 807.460835 
L 556.251429 810.28745 
L 552.96 810.014722 
L 549.668571 810.203971 
L 549.493975 810.378716 
L 546.377143 812.119822 
L 545.540043 810.378716 
L 545.540043 807.084493 
L 543.085714 803.790271 
L 540.638235 807.084493 
L 539.794286 807.92916 
L 537.346807 810.378716 
L 536.502857 811.223382 
L 534.055378 813.672938 
L 533.303608 816.967161 
L 533.211429 817.008623 
L 529.92 818.251087 
L 526.628571 819.908357 
L 526.099885 820.261383 
z
M 539.794286 815.622822 
L 543.085714 814.465828 
L 545.069798 813.672938 
L 543.085714 813.398576 
L 539.794286 812.437499 
L 538.559894 813.672938 
z
M 539.282418 813.672938 
L 539.794286 813.160636 
L 541.402656 813.672938 
L 539.794286 814.4815 
z
M 572.708571 802.173185 
L 576 800.640226 
L 576 800.496049 
L 576 800.440372 
L 572.708571 799.370672 
L 571.584149 800.496049 
z
M 572.32957 800.496049 
L 572.708571 800.116726 
L 573.856008 800.496049 
L 572.708571 801.061349 
z
" clip-path="url(#p1375668afa)" style="fill: #f5f9fe; fill-opacity: 0.9"/>
    <path d="M 529.92 820.186835 
L 533.211429 819.050965 
L 536.502857 818.343353 
L 539.032638 816.967161 
L 539.794286 816.764144 
L 541.412124 816.967161 
L 543.085714 818.76761 
L 544.454497 820.261383 
L 546.377143 820.261383 
L 546.725529 820.261383 
L 549.668571 818.036544 
L 550.906237 816.967161 
L 552.96 815.365574 
L 554.889224 813.672938 
L 556.251429 812.512692 
L 558.673725 810.378716 
L 559.542857 809.613035 
L 562.413029 807.084493 
L 562.834286 806.769864 
L 566.125714 805.594652 
L 569.417143 804.567735 
L 570.847036 803.790271 
L 572.708571 803.28502 
L 576 803.525018 
L 576 800.640226 
L 572.708571 802.173185 
L 571.584149 800.496049 
L 572.708571 799.370672 
L 576 800.440372 
L 576 799.326356 
L 572.708571 798.624618 
L 571.505885 797.201826 
L 572.708571 795.998119 
L 574.797314 793.907604 
L 576 792.29966 
L 576 791.456521 
L 574.166675 793.907604 
L 572.708571 795.366945 
L 570.875246 797.201826 
L 569.417143 798.661167 
L 567.583818 800.496049 
L 567.94811 803.790271 
L 566.125714 804.596388 
L 562.834286 805.857552 
L 561.191537 807.084493 
L 559.542857 808.536935 
L 557.452234 810.378716 
L 556.251429 811.436592 
L 553.625814 813.672938 
L 552.96 814.2571 
L 549.668571 815.56419 
L 548.00452 813.672938 
L 546.377143 813.446779 
L 544.90206 810.378716 
L 544.90206 807.084493 
L 543.085714 804.646577 
L 541.274438 807.084493 
L 539.794286 808.565902 
L 537.983009 810.378716 
L 536.502857 811.860124 
L 534.691581 813.672938 
L 535.573896 816.967161 
L 533.211429 818.029794 
L 529.92 819.218961 
L 528.071557 820.261383 
L 529.787809 820.261383 
z
M 535.327783 813.672938 
L 536.502857 812.496867 
L 537.837369 813.672938 
L 536.502857 816.168793 
z
M 538.559894 813.672938 
L 539.794286 812.437499 
L 543.085714 813.398576 
L 545.069798 813.672938 
L 543.085714 814.465828 
L 539.794286 815.622822 
z
M 538.619212 810.378716 
L 539.794286 809.202644 
L 541.91064 807.084493 
L 543.085714 805.502884 
L 544.264077 807.084493 
L 544.264077 810.378716 
L 543.085714 812.337865 
L 539.794286 811.714361 
z
M 568.214457 800.496049 
L 569.417143 799.292342 
L 570.838728 800.496049 
L 569.417143 803.280607 
z
" clip-path="url(#p1375668afa)" style="fill: #eff6fc; fill-opacity: 0.9"/>
    <path d="M 529.92 820.261383 
L 532.661055 820.261383 
L 533.211429 820.072136 
L 534.896977 820.261383 
L 536.502857 820.261383 
L 539.794286 820.261383 
L 543.085714 820.261383 
L 544.454497 820.261383 
L 543.085714 818.76761 
L 541.412124 816.967161 
L 539.794286 816.764144 
L 539.032638 816.967161 
L 536.502857 818.343353 
L 533.211429 819.050965 
L 529.92 820.186835 
L 529.787809 820.261383 
z
M 549.668571 819.264705 
L 552.327666 816.967161 
L 552.96 816.474047 
L 556.152635 813.672938 
L 556.251429 813.588792 
L 559.542857 811.127365 
L 560.302369 810.378716 
L 562.834286 808.419345 
L 564.713321 807.084493 
L 566.125714 806.592915 
L 569.417143 806.795047 
L 570.603343 807.084493 
L 572.708571 809.21703 
L 573.759454 810.378716 
L 576 811.017153 
L 576 810.378716 
L 576 807.084493 
L 576 803.790271 
L 576 803.525018 
L 572.708571 803.28502 
L 570.847036 803.790271 
L 569.417143 804.567735 
L 566.125714 805.594652 
L 562.834286 806.769864 
L 562.413029 807.084493 
L 559.542857 809.613035 
L 558.673725 810.378716 
L 556.251429 812.512692 
L 554.889224 813.672938 
L 552.96 815.365574 
L 550.906237 816.967161 
L 549.668571 818.036544 
L 546.725529 820.261383 
L 548.350155 820.261383 
z
M 536.502857 816.168793 
L 537.837369 813.672938 
L 536.502857 812.496867 
L 535.327783 813.672938 
z
M 535.963985 813.672938 
L 536.502857 813.133609 
L 537.114845 813.672938 
L 536.502857 814.817501 
z
M 539.794286 811.714361 
L 543.085714 812.337865 
L 544.264077 810.378716 
L 544.264077 807.084493 
L 543.085714 805.502884 
L 541.91064 807.084493 
L 539.794286 809.202644 
L 538.619212 810.378716 
z
M 539.255414 810.378716 
L 539.794286 809.839387 
L 542.546842 807.084493 
L 543.085714 806.35919 
L 543.626094 807.084493 
L 543.626094 810.378716 
L 543.085714 811.277153 
L 539.794286 810.991223 
z
M 569.417143 803.280607 
L 570.838728 800.496049 
L 569.417143 799.292342 
L 568.214457 800.496049 
z
M 568.845096 800.496049 
L 569.417143 799.923516 
L 570.093307 800.496049 
L 569.417143 801.820499 
z
M 572.708571 798.624618 
L 576 799.326356 
L 576 798.21234 
L 572.708571 797.878565 
L 572.136525 797.201826 
L 572.708571 796.629294 
L 575.427953 793.907604 
L 576 793.1428 
L 576 792.29966 
L 574.797314 793.907604 
L 572.708571 795.998119 
L 571.505885 797.201826 
z
" clip-path="url(#p1375668afa)" style="fill: #eaf3fb; fill-opacity: 0.9"/>
    <path d="M 533.211429 820.261383 
L 534.896977 820.261383 
L 533.211429 820.072136 
L 532.661055 820.261383 
z
M 549.668571 820.261383 
L 552.654572 820.261383 
L 552.96 820.150821 
L 556.251046 816.967161 
L 556.251429 816.96693 
L 559.542857 814.2502 
L 560.242676 813.672938 
L 562.834286 811.535187 
L 566.125714 812.264797 
L 567.566999 813.672938 
L 569.417143 815.912982 
L 572.708571 815.697667 
L 575.465967 813.672938 
L 576 813.400562 
L 576 811.017153 
L 573.759454 810.378716 
L 572.708571 809.21703 
L 570.603343 807.084493 
L 569.417143 806.795047 
L 566.125714 806.592915 
L 564.713321 807.084493 
L 562.834286 808.419345 
L 560.302369 810.378716 
L 559.542857 811.127365 
L 556.251429 813.588792 
L 556.152635 813.672938 
L 552.96 816.474047 
L 552.327666 816.967161 
L 549.668571 819.264705 
L 548.350155 820.261383 
z
M 536.502857 814.817501 
L 537.114845 813.672938 
L 536.502857 813.133609 
L 535.963985 813.672938 
z
M 539.794286 810.991223 
L 543.085714 811.277153 
L 543.626094 810.378716 
L 543.626094 807.084493 
L 543.085714 806.35919 
L 542.546842 807.084493 
L 539.794286 809.839387 
L 539.255414 810.378716 
z
M 569.417143 801.820499 
L 570.093307 800.496049 
L 569.417143 799.923516 
L 568.845096 800.496049 
z
M 572.708571 797.878565 
L 576 798.21234 
L 576 797.201826 
L 576 793.907604 
L 576 793.1428 
L 575.427953 793.907604 
L 572.708571 796.629294 
L 572.136525 797.201826 
z
" clip-path="url(#p1375668afa)" style="fill: #e5eff9; fill-opacity: 0.9"/>
    <path d="M 552.96 820.261383 
L 556.251429 820.261383 
L 559.542857 820.261383 
L 562.834286 820.261383 
L 566.125714 820.261383 
L 569.417143 820.261383 
L 572.708571 820.261383 
L 576 820.261383 
L 576 816.967161 
L 576 813.672938 
L 576 813.400562 
L 575.465967 813.672938 
L 572.708571 815.697667 
L 569.417143 815.912982 
L 567.566999 813.672938 
L 566.125714 812.264797 
L 562.834286 811.535187 
L 560.242676 813.672938 
L 559.542857 814.2502 
L 556.251429 816.96693 
L 556.251046 816.967161 
L 552.96 820.150821 
L 552.654572 820.261383 
z
" clip-path="url(#p1375668afa)" style="fill: #dfecf7; fill-opacity: 0.9"/>
    <path clip-path="url(#p1375668afa)" style="fill: #dae8f6; fill-opacity: 0.9"/>
    <path clip-path="url(#p1375668afa)" style="fill: #d6e5f4; fill-opacity: 0.9"/>
    <path clip-path="url(#p1375668afa)" style="fill: #d0e2f2; fill-opacity: 0.9"/>
    <path clip-path="url(#p1375668afa)" style="fill: #cbdef1; fill-opacity: 0.9"/>
    <path clip-path="url(#p1375668afa)" style="fill: #c6dbef; fill-opacity: 0.9"/>
    <path clip-path="url(#p1375668afa)" style="fill: #bed8ec; fill-opacity: 0.9"/>
    <path clip-path="url(#p1375668afa)" style="fill: #b5d4e9; fill-opacity: 0.9"/>
    <path clip-path="url(#p1375668afa)" style="fill: #add0e6; fill-opacity: 0.9"/>
    <path clip-path="url(#p1375668afa)" style="fill: #a5cde3; fill-opacity: 0.9"/>
    <path clip-path="url(#p1375668afa)" style="fill: #9cc9e1; fill-opacity: 0.9"/>
    <path clip-path="url(#p1375668afa)" style="fill: #91c3de; fill-opacity: 0.9"/>
    <path clip-path="url(#p1375668afa)" style="fill: #85bcdc; fill-opacity: 0.9"/>
    <path clip-path="url(#p1375668afa)" style="fill: #7cb7da; fill-opacity: 0.9"/>
    <path clip-path="url(#p1375668afa)" style="fill: #71b1d7; fill-opacity: 0.9"/>
    <path clip-path="url(#p1375668afa)" style="fill: #66abd4; fill-opacity: 0.9"/>
    <path clip-path="url(#p1375668afa)" style="fill: #5da5d1; fill-opacity: 0.9"/>
    <path clip-path="url(#p1375668afa)" style="fill: #56a0ce; fill-opacity: 0.9"/>
    <path clip-path="url(#p1375668afa)" style="fill: #4d99ca; fill-opacity: 0.9"/>
    <path clip-path="url(#p1375668afa)" style="fill: #4493c7; fill-opacity: 0.9"/>
    <path clip-path="url(#p1375668afa)" style="fill: #3c8cc3; fill-opacity: 0.9"/>
    <path clip-path="url(#p1375668afa)" style="fill: #3686c0; fill-opacity: 0.9"/>
    <path clip-path="url(#p1375668afa)" style="fill: #2f7fbc; fill-opacity: 0.9"/>
    <path clip-path="url(#p1375668afa)" style="fill: #2777b8; fill-opacity: 0.9"/>
    <path clip-path="url(#p1375668afa)" style="fill: #2070b4; fill-opacity: 0.9"/>
    <path clip-path="url(#p1375668afa)" style="fill: #1c6ab0; fill-opacity: 0.9"/>
    <path clip-path="url(#p1375668afa)" style="fill: #1663aa; fill-opacity: 0.9"/>
    <path clip-path="url(#p1375668afa)" style="fill: #115ca5; fill-opacity: 0.9"/>
    <path clip-path="url(#p1375668afa)" style="fill: #0c56a0; fill-opacity: 0.9"/>
    <path clip-path="url(#p1375668afa)" style="fill: #084f99; fill-opacity: 0.9"/>
    <path clip-path="url(#p1375668afa)" style="fill: #08488e; fill-opacity: 0.9"/>
    <path clip-path="url(#p1375668afa)" style="fill: #084184; fill-opacity: 0.9"/>
    <path clip-path="url(#p1375668afa)" style="fill: #083a7a; fill-opacity: 0.9"/>
    <path clip-path="url(#p1375668afa)" style="fill: #083370; fill-opacity: 0.9"/>
    <path clip-path="url(#p1375668afa)" style="fill: #08306b; fill-opacity: 0.9"/>
   </g>
   <g id="QuadContourSet_2">
    <path d="M 576 790.613381 
L 573.67983 793.715356 
M 560.530671 806.665772 
L 559.970046 807.084493 
L 559.542857 807.460835 
L 556.251429 810.28745 
L 552.96 810.014722 
L 549.668571 810.203971 
L 549.493975 810.378716 
L 546.377143 812.119822 
L 545.540043 810.378716 
L 545.540043 807.084493 
L 543.085714 803.790271 
L 540.638235 807.084493 
L 539.794286 807.92916 
L 537.346807 810.378716 
L 536.502857 811.223382 
L 534.055378 813.672938 
L 533.303608 816.967161 
L 533.211429 817.008623 
L 529.92 818.251087 
L 526.628571 819.908357 
L 526.099885 820.261383 
M 539.794286 814.4815 
L 539.282418 813.672938 
L 539.794286 813.160636 
L 541.402656 813.672938 
L 539.794286 814.4815 
M 572.708571 801.061349 
L 572.32957 800.496049 
L 572.708571 800.116726 
L 573.856008 800.496049 
L 572.708571 801.061349 
z
" clip-path="url(#p1375668afa)" style="fill: none"/>
    <path d="M 576 800.640226 
L 572.708571 802.173185 
L 571.584149 800.496049 
L 572.708571 799.370672 
L 576 800.440372 
M 576 791.456521 
L 574.166675 793.907604 
L 572.708571 795.366945 
L 570.875246 797.201826 
L 569.417143 798.661167 
L 567.583818 800.496049 
L 567.94811 803.790271 
L 566.125714 804.596388 
L 562.834286 805.857552 
L 561.191537 807.084493 
L 559.542857 808.536935 
L 557.452234 810.378716 
L 556.251429 811.436592 
L 553.625814 813.672938 
L 552.96 814.2571 
L 549.668571 815.56419 
L 548.00452 813.672938 
L 546.377143 813.446779 
L 544.90206 810.378716 
L 544.90206 807.084493 
L 543.085714 804.646577 
L 541.452389 806.844977 
M 529.827415 819.271174 
L 528.071557 820.261383 
M 539.794286 815.622822 
L 538.559894 813.672938 
L 539.794286 812.437499 
L 543.085714 813.398576 
L 545.069798 813.672938 
L 543.085714 814.465828 
L 539.794286 815.622822 
z
" clip-path="url(#p1375668afa)" style="fill: none"/>
    <path d="M 530.052625 820.141066 
L 529.92 820.186835 
L 529.787809 820.261383 
M 566.812074 805.380509 
L 566.125714 805.594652 
L 562.834286 806.769864 
L 562.413029 807.084493 
L 559.542857 809.613035 
L 558.673725 810.378716 
L 556.251429 812.512692 
L 554.889224 813.672938 
L 552.96 815.365574 
L 550.906237 816.967161 
L 549.668571 818.036544 
L 546.725529 820.261383 
M 576 792.29966 
L 574.797314 793.907604 
L 572.708571 795.998119 
L 571.505885 797.201826 
L 572.708571 798.624618 
L 576 799.326356 
M 536.502857 816.168793 
L 537.837369 813.672938 
L 536.502857 812.496867 
L 535.327783 813.672938 
L 536.502857 816.168793 
z
M 539.794286 811.714361 
L 543.085714 812.337865 
L 544.264077 810.378716 
L 544.264077 807.084493 
L 543.085714 805.502884 
L 541.91064 807.084493 
L 539.794286 809.202644 
L 538.619212 810.378716 
L 539.794286 811.714361 
z
M 569.417143 803.280607 
L 570.838728 800.496049 
L 569.417143 799.292342 
L 568.214457 800.496049 
L 569.417143 803.280607 
z
" clip-path="url(#p1375668afa)" style="fill: none"/>
    <path d="M 534.896977 820.261383 
L 533.211429 820.072136 
L 532.661055 820.261383 
M 576 811.017153 
L 573.759454 810.378716 
L 572.708571 809.21703 
L 570.603343 807.084493 
L 569.417143 806.795047 
L 566.125714 806.592915 
L 564.713321 807.084493 
L 562.834286 808.419345 
L 560.302369 810.378716 
L 559.542857 811.127365 
L 556.251429 813.588792 
L 556.152635 813.672938 
L 555.694301 814.075065 
M 576 793.1428 
L 575.427953 793.907604 
L 572.708571 796.629294 
L 572.136525 797.201826 
L 572.708571 797.878565 
L 576 798.21234 
M 536.502857 814.817501 
L 537.114845 813.672938 
L 536.502857 813.133609 
L 535.963985 813.672938 
L 536.502857 814.817501 
z
M 539.794286 810.991223 
L 543.085714 811.277153 
L 543.626094 810.378716 
L 543.626094 807.084493 
L 543.085714 806.35919 
L 542.546842 807.084493 
L 539.794286 809.839387 
L 539.255414 810.378716 
L 539.794286 810.991223 
z
M 569.417143 801.820499 
L 570.093307 800.496049 
L 569.417143 799.923516 
L 568.845096 800.496049 
L 569.417143 801.820499 
z
" clip-path="url(#p1375668afa)" style="fill: none"/>
    <path d="M 576 813.400562 
L 575.465967 813.672938 
L 573.776059 814.913821 
M 558.07626 815.460722 
L 556.251429 816.96693 
L 556.251046 816.967161 
L 552.96 820.150821 
L 552.654572 820.261383 
" clip-path="url(#p1375668afa)" style="fill: none"/>
    <path clip-path="url(#p1375668afa)" style="fill: none"/>
    <path clip-path="url(#p1375668afa)" style="fill: none"/>
    <path clip-path="url(#p1375668afa)" style="fill: none"/>
    <path clip-path="url(#p1375668afa)" style="fill: none"/>
    <path clip-path="url(#p1375668afa)" style="fill: none"/>
    <path clip-path="url(#p1375668afa)" style="fill: none"/>
    <path clip-path="url(#p1375668afa)" style="fill: none"/>
    <path clip-path="url(#p1375668afa)" style="fill: none"/>
    <path clip-path="url(#p1375668afa)" style="fill: none"/>
    <path clip-path="url(#p1375668afa)" style="fill: none"/>
    <path clip-path="url(#p1375668afa)" style="fill: none"/>
    <path clip-path="url(#p1375668afa)" style="fill: none"/>
    <path clip-path="url(#p1375668afa)" style="fill: none"/>
    <path clip-path="url(#p1375668afa)" style="fill: none"/>
    <path clip-path="url(#p1375668afa)" style="fill: none"/>
    <path clip-path="url(#p1375668afa)" style="fill: none"/>
    <path clip-path="url(#p1375668afa)" style="fill: none"/>
    <path clip-path="url(#p1375668afa)" style="fill: none"/>
    <path clip-path="url(#p1375668afa)" style="fill: none"/>
    <path clip-path="url(#p1375668afa)" style="fill: none"/>
    <path clip-path="url(#p1375668afa)" style="fill: none"/>
    <path clip-path="url(#p1375668afa)" style="fill: none"/>
    <path clip-path="url(#p1375668afa)" style="fill: none"/>
    <path clip-path="url(#p1375668afa)" style="fill: none"/>
    <path clip-path="url(#p1375668afa)" style="fill: none"/>
    <path clip-path="url(#p1375668afa)" style="fill: none"/>
    <path clip-path="url(#p1375668afa)" style="fill: none"/>
    <path clip-path="url(#p1375668afa)" style="fill: none"/>
    <path clip-path="url(#p1375668afa)" style="fill: none"/>
    <path clip-path="url(#p1375668afa)" style="fill: none"/>
    <path clip-path="url(#p1375668afa)" style="fill: none"/>
    <path clip-path="url(#p1375668afa)" style="fill: none"/>
    <path clip-path="url(#p1375668afa)" style="fill: none"/>
    <path clip-path="url(#p1375668afa)" style="fill: none"/>
   </g>
   <g id="text_1">
    <g clip-path="url(#p1375668afa)">
     <!-- 0 -->
     <g style="opacity: 0" transform="translate(567.081785 805.547894) rotate(-50.520339) scale(0.12 -0.12)">
      <defs>
       <path id="DejaVuSans-30" d="M 2034 4250 
Q 1547 4250 1301 3770 
Q 1056 3291 1056 2328 
Q 1056 1369 1301 889 
Q 1547 409 2034 409 
Q 2525 409 2770 889 
Q 3016 1369 3016 2328 
Q 3016 3291 2770 3770 
Q 2525 4250 2034 4250 
z
M 2034 4750 
Q 2819 4750 3233 4129 
Q 3647 3509 3647 2328 
Q 3647 1150 3233 529 
Q 2819 -91 2034 -91 
Q 1250 -91 836 529 
Q 422 1150 422 2328 
Q 422 3509 836 4129 
Q 1250 4750 2034 4750 
z
" transform="scale(0.015625)"/>
      </defs>
      <use xlink:href="#DejaVuSans-30"/>
     </g>
    </g>
   </g>
   <g id="text_2">
    <g clip-path="url(#p1375668afa)">
     <!-- 1 -->
     <g style="opacity: 0" transform="translate(535.769931 818.610027) rotate(-61.383002) scale(0.12 -0.12)">
      <defs>
       <path id="DejaVuSans-31" d="M 794 531 
L 1825 531 
L 1825 4091 
L 703 3866 
L 703 4441 
L 1819 4666 
L 2450 4666 
L 2450 531 
L 3481 531 
L 3481 0 
L 794 0 
L 794 531 
z
" transform="scale(0.015625)"/>
      </defs>
      <use xlink:href="#DejaVuSans-31"/>
     </g>
    </g>
   </g>
   <g id="text_3">
    <g clip-path="url(#p1375668afa)">
     <!-- 2 -->
     <g style="opacity: 0" transform="translate(535.199509 820.260306) rotate(-359.728828) scale(0.12 -0.12)">
      <defs>
       <path id="DejaVuSans-32" d="M 1228 531 
L 3431 531 
L 3431 0 
L 469 0 
L 469 531 
Q 828 903 1448 1529 
Q 2069 2156 2228 2338 
Q 2531 2678 2651 2914 
Q 2772 3150 2772 3378 
Q 2772 3750 2511 3984 
Q 2250 4219 1831 4219 
Q 1534 4219 1204 4116 
Q 875 4013 500 3803 
L 500 4441 
Q 881 4594 1212 4672 
Q 1544 4750 1819 4750 
Q 2544 4750 2975 4387 
Q 3406 4025 3406 3419 
Q 3406 3131 3298 2873 
Q 3191 2616 2906 2266 
Q 2828 2175 2409 1742 
Q 1991 1309 1228 531 
z
" transform="scale(0.015625)"/>
      </defs>
      <use xlink:href="#DejaVuSans-32"/>
     </g>
    </g>
   </g>
   <g id="text_4">
    <g clip-path="url(#p1375668afa)">
     <!-- 2 -->
     <g style="opacity: 0" transform="translate(572.312606 806.980565) rotate(-2.20299) scale(0.12 -0.12)">
      <use xlink:href="#DejaVuSans-32"/>
     </g>
    </g>
   </g>
   <g id="text_5">
    <g clip-path="url(#p1375668afa)">
     <!-- 3 -->
     <g style="opacity: 0" transform="translate(547.501745 825.243138) rotate(-39.39712) scale(0.12 -0.12)">
      <defs>
       <path id="DejaVuSans-33" d="M 2597 2516 
Q 3050 2419 3304 2112 
Q 3559 1806 3559 1356 
Q 3559 666 3084 287 
Q 2609 -91 1734 -91 
Q 1441 -91 1130 -33 
Q 819 25 488 141 
L 488 750 
Q 750 597 1062 519 
Q 1375 441 1716 441 
Q 2309 441 2620 675 
Q 2931 909 2931 1356 
Q 2931 1769 2642 2001 
Q 2353 2234 1838 2234 
L 1294 2234 
L 1294 2753 
L 1863 2753 
Q 2328 2753 2575 2939 
Q 2822 3125 2822 3475 
Q 2822 3834 2567 4026 
Q 2313 4219 1838 4219 
Q 1578 4219 1281 4162 
Q 984 4106 628 3988 
L 628 4550 
Q 988 4650 1302 4700 
Q 1616 4750 1894 4750 
Q 2613 4750 3031 4423 
Q 3450 4097 3450 3541 
Q 3450 3153 3228 2886 
Q 3006 2619 2597 2516 
z
" transform="scale(0.015625)"/>
      </defs>
      <use xlink:href="#DejaVuSans-33"/>
     </g>
    </g>
   </g>
   <g id="text_6">
    <g clip-path="url(#p1375668afa)">
     <!-- 4 -->
     <g style="opacity: 0" transform="translate(561.302408 813.772578) rotate(-336.421463) scale(0.12 -0.12)">
      <defs>
       <path id="DejaVuSans-34" d="M 2419 4116 
L 825 1625 
L 2419 1625 
L 2419 4116 
z
M 2253 4666 
L 3047 4666 
L 3047 1625 
L 3713 1625 
L 3713 1100 
L 3047 1100 
L 3047 0 
L 2419 0 
L 2419 1100 
L 313 1100 
L 313 1709 
L 2253 4666 
z
" transform="scale(0.015625)"/>
      </defs>
      <use xlink:href="#DejaVuSans-34"/>
     </g>
    </g>
   </g>
  </g>
 </g>
 <defs>
  <clipPath id="p1375668afa">
   <rect x="0" y="0" width="576" height="820.261383"/>
  </clipPath>
 </defs>
</svg>
