<?xml version="1.0" encoding="utf-8" standalone="no"?>
<!DOCTYPE svg PUBLIC "-//W3C//DTD SVG 1.1//EN"
  "http://www.w3.org/Graphics/SVG/1.1/DTD/svg11.dtd">
<svg xmlns:xlink="http://www.w3.org/1999/xlink" width="576pt" height="818.525063pt" viewBox="0 0 576 818.525063" xmlns="http://www.w3.org/2000/svg" version="1.1">
 <metadata>
  <rdf:RDF xmlns:dc="http://purl.org/dc/elements/1.1/" xmlns:cc="http://creativecommons.org/ns#" xmlns:rdf="http://www.w3.org/1999/02/22-rdf-syntax-ns#">
   <cc:Work>
    <dc:type rdf:resource="http://purl.org/dc/dcmitype/StillImage"/>
    <dc:date>2025-07-25T22:43:52.369930</dc:date>
    <dc:format>image/svg+xml</dc:format>
    <dc:creator>
     <cc:Agent>
      <dc:title>Matplotlib v3.10.3, https://matplotlib.org/</dc:title>
     </cc:Agent>
    </dc:creator>
   </cc:Work>
  </rdf:RDF>
 </metadata>
 <defs>
  <style type="text/css">*{stroke-linejoin: round; stroke-linecap: butt}</style>
 </defs>
 <g id="figure_1">
  <g id="patch_1">
   <path d="M 0 818.525063 
L 576 818.525063 
L 576 0 
L 0 0 
L 0 818.525063 
z
" style="fill: none; opacity: 0"/>
  </g>
  <g id="axes_1">
   <g id="QuadContourSet_1">
    <path d="M 569.417143 122.614863 
L 572.708571 123.546714 
L 576 124.82156 
L 576 124.015687 
L 572.795001 121.628222 
L 572.708571 121.561335 
L 570.9822 121.628222 
L 569.417143 121.694856 
L 569.311828 121.628222 
L 566.125714 119.314234 
L 563.61957 118.340973 
L 562.834286 117.880055 
L 559.542857 116.276067 
L 557.36359 115.053724 
L 556.251429 114.388337 
L 552.96 112.583498 
L 551.794854 111.766474 
L 549.668571 110.181387 
L 547.385242 108.479225 
L 546.377143 107.727714 
L 543.085714 105.359536 
L 542.353084 105.191976 
L 539.794286 104.408287 
L 536.502857 102.457745 
L 534.922031 101.904727 
L 533.211429 100.96888 
L 529.92 99.651686 
L 528.080468 98.617477 
L 526.628571 97.705066 
L 523.337143 95.983611 
L 522.328195 95.330228 
L 520.045714 93.839097 
L 517.636655 92.042979 
L 516.754286 91.385113 
L 513.462857 89.049203 
L 512.809405 88.75573 
L 510.171429 87.399885 
L 506.929141 85.46848 
L 506.88 85.441422 
L 503.588571 83.736104 
L 500.297143 82.876381 
L 499.063456 82.181231 
L 497.005714 80.843041 
L 493.714286 79.201722 
L 493.22955 78.893982 
L 490.422857 77.261618 
L 488.138686 75.606733 
L 487.131429 74.856564 
L 483.84 72.447657 
L 483.602099 72.319483 
L 480.548571 70.530472 
L 478.275101 69.032234 
L 477.257143 68.407158 
L 473.965714 66.44245 
L 470.674286 66.240983 
L 469.817252 65.744985 
L 467.382857 64.095747 
L 464.091429 62.535714 
L 463.97586 62.457736 
L 460.8 60.670517 
L 458.527089 59.170486 
L 457.508571 58.457553 
L 454.217143 56.049063 
L 453.949823 55.883237 
L 450.925714 53.933152 
L 449.037225 52.595988 
L 447.634286 51.661755 
L 444.390369 49.308739 
L 444.342857 49.276212 
L 444.076264 49.308739 
L 441.051429 49.61332 
L 440.554567 49.308739 
L 437.76 47.362181 
L 434.832503 46.021489 
L 434.468571 45.783666 
L 431.177143 44.036392 
L 428.978083 42.73424 
L 427.885714 42.048533 
L 424.594286 39.632815 
L 424.319993 39.446991 
L 421.302857 37.381966 
L 419.653828 36.159742 
L 418.011429 35.007878 
L 415.183198 32.872492 
L 414.72 32.54061 
L 412.191327 32.872492 
L 411.428571 32.970524 
L 411.275796 32.872492 
L 408.137143 30.645352 
L 405.742312 29.585243 
L 404.845714 29.01334 
L 401.554286 27.429062 
L 399.534294 26.297994 
L 398.262857 25.568014 
L 394.971429 23.215067 
L 394.688834 23.010745 
L 391.68 20.849564 
L 390.222563 19.723495 
L 388.388571 18.37963 
L 385.910734 16.436246 
L 385.097143 15.81961 
L 381.805714 15.328876 
L 378.514286 13.941224 
L 376.655101 13.148997 
L 375.222857 12.245515 
L 371.931429 10.841471 
L 370.177308 9.861748 
L 368.64 8.999672 
L 365.348571 6.825124 
L 365.014313 6.574498 
L 362.057143 4.389611 
L 360.646434 3.287249 
L 358.765714 1.877705 
L 356.26034 0 
L 355.474286 0 
L 352.182857 0 
L 351.335006 0 
L 352.182857 0.629894 
L 355.474286 0.634714 
L 358.765714 2.70448 
L 359.543288 3.287249 
L 362.057143 5.251635 
L 363.847593 6.574498 
L 365.348571 7.699928 
L 368.64 9.781518 
L 368.78307 9.861748 
L 371.931429 11.620191 
L 374.668639 13.148997 
L 375.222857 13.587449 
L 378.514286 14.95418 
L 380.554209 16.436246 
L 381.805714 17.28054 
L 385.097143 17.155825 
L 388.388571 19.253594 
L 389.029852 19.723495 
L 391.68 21.771095 
L 393.405862 23.010745 
L 394.971429 24.142686 
L 398.161305 26.297994 
L 398.262857 26.391093 
L 401.554286 28.197853 
L 404.032048 29.585243 
L 404.845714 30.199391 
L 408.137143 31.61961 
L 409.902799 32.872492 
L 411.428571 33.851534 
L 414.72 34.356013 
L 418.011429 35.955938 
L 418.302025 36.159742 
L 421.302857 38.383893 
L 422.856112 39.446991 
L 424.594286 40.624544 
L 427.662348 42.73424 
L 427.885714 42.927377 
L 431.177143 44.801765 
L 433.346552 46.021489 
L 434.468571 46.829314 
L 437.76 48.310392 
L 439.193271 49.308739 
L 441.051429 50.447809 
L 444.342857 51.458487 
L 446.976224 52.595988 
L 447.634286 52.763111 
L 450.925714 55.072297 
L 452.183286 55.883237 
L 454.217143 57.144895 
L 457.294138 59.170486 
L 457.508571 59.337295 
L 460.8 61.44209 
L 462.604788 62.457736 
L 464.091429 63.460831 
L 467.382857 65.024612 
L 468.446179 65.744985 
L 470.674286 67.034475 
L 473.965714 68.539869 
L 475.015446 69.032234 
L 477.257143 69.667051 
L 480.548571 71.875667 
L 481.306089 72.319483 
L 483.84 73.684673 
L 486.944682 75.606733 
L 487.131429 75.732973 
L 490.422857 78.066612 
L 491.84544 78.893982 
L 493.714286 80.080438 
L 497.005714 81.743155 
L 497.679347 82.181231 
L 500.297143 83.656289 
L 503.513253 85.46848 
L 503.588571 85.542061 
L 506.88 86.635293 
L 509.975205 88.75573 
L 510.171429 88.910589 
L 513.462857 90.384886 
L 516.345771 92.042979 
L 516.754286 92.277257 
L 520.045714 94.637387 
L 521.106248 95.330228 
L 523.337143 96.77493 
L 526.628571 98.545052 
L 526.74382 98.617477 
L 529.92 100.403167 
L 532.590801 101.904727 
L 533.211429 102.44627 
L 536.502857 103.574854 
L 538.780716 105.191976 
L 539.794286 105.898573 
L 543.085714 107.004025 
L 546.148621 108.479225 
L 546.377143 108.573105 
L 549.668571 110.986804 
L 550.714445 111.766474 
L 552.96 113.341102 
L 556.013033 115.053724 
L 556.251429 115.289814 
L 559.542857 117.03359 
L 561.873739 118.340973 
L 562.834286 119.122258 
L 566.125714 120.370289 
L 567.857753 121.628222 
z
" clip-path="url(#p62f53fbfbe)" style="fill: #f5f9fe; fill-opacity: 0.9"/>
    <path d="M 569.417143 121.694856 
L 570.9822 121.628222 
L 572.708571 121.561335 
L 572.795001 121.628222 
L 576 124.015687 
L 576 123.209813 
L 573.876829 121.628222 
L 572.708571 120.724117 
L 569.466407 118.340973 
L 569.417143 118.29141 
L 566.125714 118.100514 
L 562.834286 116.283954 
L 559.542857 115.518545 
L 558.714146 115.053724 
L 556.251429 113.580322 
L 552.96 111.825893 
L 552.875264 111.766474 
L 549.668571 109.37597 
L 548.465651 108.479225 
L 546.377143 106.922298 
L 544.056039 105.191976 
L 543.085714 104.395953 
L 539.794286 102.206106 
L 539.092447 101.904727 
L 536.502857 100.91478 
L 533.211429 99.221868 
L 529.92 98.900205 
L 529.417117 98.617477 
L 526.628571 96.86508 
L 523.623788 95.330228 
L 523.337143 95.129347 
L 520.045714 93.040806 
L 518.70737 92.042979 
L 516.754286 90.586822 
L 514.298317 88.75573 
L 513.462857 88.034968 
L 510.171429 85.871306 
L 509.495197 85.46848 
L 506.88 84.028458 
L 503.929987 82.181231 
L 503.588571 81.982478 
L 500.297143 81.748316 
L 497.005714 79.942928 
L 494.892558 78.893982 
L 493.714286 78.097851 
L 490.422857 76.456624 
L 489.249786 75.606733 
L 487.131429 74.029056 
L 484.835974 72.319483 
L 483.84 71.431578 
L 480.548571 69.185277 
L 480.31634 69.032234 
L 477.257143 67.153737 
L 475.192088 65.744985 
L 473.965714 64.961802 
L 470.674286 63.457101 
L 467.382857 63.166882 
L 465.886365 62.457736 
L 464.091429 61.258655 
L 460.8 59.898945 
L 459.696209 59.170486 
L 457.508571 57.639201 
L 455.15 55.883237 
L 454.217143 55.01234 
L 450.925714 52.794007 
L 450.64605 52.595988 
L 447.634286 50.590419 
L 445.867335 49.308739 
L 444.342857 48.265066 
L 441.313948 46.021489 
L 441.051429 45.77074 
L 440.007304 46.021489 
L 437.76 46.413969 
L 436.902992 46.021489 
L 434.468571 44.430635 
L 431.177143 43.27102 
L 430.270636 42.73424 
L 427.885714 41.237165 
L 425.480244 39.446991 
L 424.594286 38.586117 
L 421.302857 36.380039 
L 421.005632 36.159742 
L 418.011429 34.059817 
L 416.438865 32.872492 
L 414.72 31.64092 
L 412.041451 29.585243 
L 411.428571 28.968503 
L 408.611896 29.585243 
L 408.137143 29.671094 
L 407.943203 29.585243 
L 404.845714 27.609482 
L 401.554286 26.66027 
L 400.907291 26.297994 
L 398.262857 24.779724 
L 395.820174 23.010745 
L 394.971429 22.166185 
L 391.68 19.928032 
L 391.415274 19.723495 
L 388.388571 17.505665 
L 387.025049 16.436246 
L 385.097143 14.975049 
L 382.693413 13.148997 
L 381.805714 12.253573 
L 378.514286 11.44802 
L 375.222857 10.745945 
L 371.931429 10.062752 
L 371.571546 9.861748 
L 368.64 8.217825 
L 366.182729 6.574498 
L 365.348571 5.773554 
L 362.057143 3.527587 
L 361.749579 3.287249 
L 358.765714 1.05093 
L 357.363486 0 
L 356.26034 0 
L 358.765714 1.877705 
L 360.646434 3.287249 
L 362.057143 4.389611 
L 365.014313 6.574498 
L 365.348571 6.825124 
L 368.64 8.999672 
L 370.177308 9.861748 
L 371.931429 10.841471 
L 375.222857 12.245515 
L 376.655101 13.148997 
L 378.514286 13.941224 
L 381.805714 15.328876 
L 385.097143 15.81961 
L 385.910734 16.436246 
L 388.388571 18.37963 
L 390.222563 19.723495 
L 391.68 20.849564 
L 394.688834 23.010745 
L 394.971429 23.215067 
L 398.262857 25.568014 
L 399.534294 26.297994 
L 401.554286 27.429062 
L 404.845714 29.01334 
L 405.742312 29.585243 
L 408.137143 30.645352 
L 411.275796 32.872492 
L 411.428571 32.970524 
L 412.191327 32.872492 
L 414.72 32.54061 
L 415.183198 32.872492 
L 418.011429 35.007878 
L 419.653828 36.159742 
L 421.302857 37.381966 
L 424.319993 39.446991 
L 424.594286 39.632815 
L 427.885714 42.048533 
L 428.978083 42.73424 
L 431.177143 44.036392 
L 434.468571 45.783666 
L 434.832503 46.021489 
L 437.76 47.362181 
L 440.554567 49.308739 
L 441.051429 49.61332 
L 444.076264 49.308739 
L 444.342857 49.276212 
L 444.390369 49.308739 
L 447.634286 51.661755 
L 449.037225 52.595988 
L 450.925714 53.933152 
L 453.949823 55.883237 
L 454.217143 56.049063 
L 457.508571 58.457553 
L 458.527089 59.170486 
L 460.8 60.670517 
L 463.97586 62.457736 
L 464.091429 62.535714 
L 467.382857 64.095747 
L 469.817252 65.744985 
L 470.674286 66.240983 
L 473.965714 66.44245 
L 477.257143 68.407158 
L 478.275101 69.032234 
L 480.548571 70.530472 
L 483.602099 72.319483 
L 483.84 72.447657 
L 487.131429 74.856564 
L 488.138686 75.606733 
L 490.422857 77.261618 
L 493.22955 78.893982 
L 493.714286 79.201722 
L 497.005714 80.843041 
L 499.063456 82.181231 
L 500.297143 82.876381 
L 503.588571 83.736104 
L 506.88 85.441422 
L 506.929141 85.46848 
L 510.171429 87.399885 
L 512.809405 88.75573 
L 513.462857 89.049203 
L 516.754286 91.385113 
L 517.636655 92.042979 
L 520.045714 93.839097 
L 522.328195 95.330228 
L 523.337143 95.983611 
L 526.628571 97.705066 
L 528.080468 98.617477 
L 529.92 99.651686 
L 533.211429 100.96888 
L 534.922031 101.904727 
L 536.502857 102.457745 
L 539.794286 104.408287 
L 542.353084 105.191976 
L 543.085714 105.359536 
L 546.377143 107.727714 
L 547.385242 108.479225 
L 549.668571 110.181387 
L 551.794854 111.766474 
L 552.96 112.583498 
L 556.251429 114.388337 
L 557.36359 115.053724 
L 559.542857 116.276067 
L 562.834286 117.880055 
L 563.61957 118.340973 
L 566.125714 119.314234 
L 569.311828 121.628222 
z
" clip-path="url(#p62f53fbfbe)" style="fill: #eff6fc; fill-opacity: 0.9"/>
    <path d="M 576 123.209813 
L 576 122.40394 
L 574.958656 121.628222 
L 572.708571 119.886899 
L 570.605406 118.340973 
L 569.417143 117.145495 
L 566.137593 115.053724 
L 566.125714 115.041722 
L 562.834286 114.455331 
L 559.542857 113.791552 
L 556.251429 112.772308 
L 554.360155 111.766474 
L 552.96 110.667292 
L 549.668571 108.570554 
L 549.546061 108.479225 
L 546.377143 106.116881 
L 545.136448 105.191976 
L 543.085714 103.50962 
L 540.856789 101.904727 
L 539.794286 100.834767 
L 536.502857 98.95432 
L 535.818086 98.617477 
L 533.211429 97.462074 
L 529.92 96.11883 
L 526.628571 96.025093 
L 525.268232 95.330228 
L 523.337143 93.97692 
L 520.045714 92.242515 
L 519.778084 92.042979 
L 516.754286 89.788531 
L 515.369031 88.75573 
L 513.462857 87.111248 
L 511.135301 85.46848 
L 510.171429 84.497233 
L 506.88 82.615494 
L 506.186485 82.181231 
L 503.588571 80.668869 
L 500.867906 78.893982 
L 500.297143 78.432479 
L 498.218339 78.893982 
L 497.005714 79.042814 
L 496.705885 78.893982 
L 493.714286 76.872627 
L 490.422857 75.651631 
L 490.360886 75.606733 
L 487.131429 73.201548 
L 485.947074 72.319483 
L 483.84 70.441038 
L 481.812153 69.032234 
L 480.548571 67.787566 
L 477.257143 65.900315 
L 477.029448 65.744985 
L 473.965714 63.788432 
L 472.071222 62.457736 
L 470.674286 61.22744 
L 467.394591 59.170486 
L 467.382857 59.15903 
L 467.355404 59.170486 
L 464.091429 59.9492 
L 461.082708 59.170486 
L 460.8 59.040863 
L 457.508571 56.82085 
L 456.249191 55.883237 
L 454.217143 53.986155 
L 452.172594 52.595988 
L 450.925714 51.345039 
L 447.634286 49.519083 
L 447.3443 49.308739 
L 444.342857 47.25392 
L 442.679031 46.021489 
L 441.051429 44.466857 
L 438.449999 42.73424 
L 437.76 42.041054 
L 435.846406 42.73424 
L 434.468571 43.077604 
L 432.956598 42.73424 
L 431.177143 42.029077 
L 427.885714 40.425798 
L 426.570485 39.446991 
L 424.594286 37.526745 
L 422.542998 36.159742 
L 421.302857 34.897279 
L 418.011429 33.111757 
L 417.694532 32.872492 
L 414.72 30.74123 
L 413.213748 29.585243 
L 411.428571 27.788821 
L 409.284993 26.297994 
L 408.137143 25.12797 
L 404.845714 25.75273 
L 401.554286 24.970165 
L 398.262857 23.991433 
L 396.908679 23.010745 
L 394.971429 21.083047 
L 392.939507 19.723495 
L 391.68 18.446554 
L 388.388571 16.631701 
L 388.139364 16.436246 
L 385.097143 14.130487 
L 383.805155 13.148997 
L 381.805714 11.132158 
L 379.873377 9.861748 
L 378.514286 8.483477 
L 375.222857 7.669239 
L 371.931429 7.720722 
L 368.64 7.435979 
L 367.351826 6.574498 
L 365.348571 4.651005 
L 363.283214 3.287249 
L 362.057143 2.041049 
L 358.765714 0.224154 
L 358.466631 0 
L 357.363486 0 
L 358.765714 1.05093 
L 361.749579 3.287249 
L 362.057143 3.527587 
L 365.348571 5.773554 
L 366.182729 6.574498 
L 368.64 8.217825 
L 371.571546 9.861748 
L 371.931429 10.062752 
L 375.222857 10.745945 
L 378.514286 11.44802 
L 381.805714 12.253573 
L 382.693413 13.148997 
L 385.097143 14.975049 
L 387.025049 16.436246 
L 388.388571 17.505665 
L 391.415274 19.723495 
L 391.68 19.928032 
L 394.971429 22.166185 
L 395.820174 23.010745 
L 398.262857 24.779724 
L 400.907291 26.297994 
L 401.554286 26.66027 
L 404.845714 27.609482 
L 407.943203 29.585243 
L 408.137143 29.671094 
L 408.611896 29.585243 
L 411.428571 28.968503 
L 412.041451 29.585243 
L 414.72 31.64092 
L 416.438865 32.872492 
L 418.011429 34.059817 
L 421.005632 36.159742 
L 421.302857 36.380039 
L 424.594286 38.586117 
L 425.480244 39.446991 
L 427.885714 41.237165 
L 430.270636 42.73424 
L 431.177143 43.27102 
L 434.468571 44.430635 
L 436.902992 46.021489 
L 437.76 46.413969 
L 440.007304 46.021489 
L 441.051429 45.77074 
L 441.313948 46.021489 
L 444.342857 48.265066 
L 445.867335 49.308739 
L 447.634286 50.590419 
L 450.64605 52.595988 
L 450.925714 52.794007 
L 454.217143 55.01234 
L 455.15 55.883237 
L 457.508571 57.639201 
L 459.696209 59.170486 
L 460.8 59.898945 
L 464.091429 61.258655 
L 465.886365 62.457736 
L 467.382857 63.166882 
L 470.674286 63.457101 
L 473.965714 64.961802 
L 475.192088 65.744985 
L 477.257143 67.153737 
L 480.31634 69.032234 
L 480.548571 69.185277 
L 483.84 71.431578 
L 484.835974 72.319483 
L 487.131429 74.029056 
L 489.249786 75.606733 
L 490.422857 76.456624 
L 493.714286 78.097851 
L 494.892558 78.893982 
L 497.005714 79.942928 
L 500.297143 81.748316 
L 503.588571 81.982478 
L 503.929987 82.181231 
L 506.88 84.028458 
L 509.495197 85.46848 
L 510.171429 85.871306 
L 513.462857 88.034968 
L 514.298317 88.75573 
L 516.754286 90.586822 
L 518.70737 92.042979 
L 520.045714 93.040806 
L 523.337143 95.129347 
L 523.623788 95.330228 
L 526.628571 96.86508 
L 529.417117 98.617477 
L 529.92 98.900205 
L 533.211429 99.221868 
L 536.502857 100.91478 
L 539.092447 101.904727 
L 539.794286 102.206106 
L 543.085714 104.395953 
L 544.056039 105.191976 
L 546.377143 106.922298 
L 548.465651 108.479225 
L 549.668571 109.37597 
L 552.875264 111.766474 
L 552.96 111.825893 
L 556.251429 113.580322 
L 558.714146 115.053724 
L 559.542857 115.518545 
L 562.834286 116.283954 
L 566.125714 118.100514 
L 569.417143 118.29141 
L 569.466407 118.340973 
L 572.708571 120.724117 
L 573.876829 121.628222 
z
" clip-path="url(#p62f53fbfbe)" style="fill: #eaf3fb; fill-opacity: 0.9"/>
    <path d="M 576 122.40394 
L 576 121.628222 
L 576 121.485993 
L 572.708571 119.049681 
L 571.744405 118.340973 
L 569.417143 115.999581 
L 567.934196 115.053724 
L 566.125714 113.226507 
L 562.834286 111.844864 
L 562.593267 111.766474 
L 559.542857 110.71191 
L 557.540979 111.766474 
L 556.251429 111.964293 
L 555.879469 111.766474 
L 552.96 109.474563 
L 551.364105 108.479225 
L 549.668571 106.764423 
L 546.377143 105.311464 
L 546.216858 105.191976 
L 543.085714 102.623287 
L 542.087756 101.904727 
L 539.794286 99.595162 
L 538.188751 98.617477 
L 536.502857 96.910494 
L 533.211429 95.695518 
L 532.537503 95.330228 
L 529.92 93.649613 
L 526.628571 92.755177 
L 523.337143 92.824494 
L 521.774278 92.042979 
L 520.045714 90.432511 
L 516.754286 88.990241 
L 516.439746 88.75573 
L 513.462857 86.187528 
L 512.444074 85.46848 
L 510.171429 83.178445 
L 508.453583 82.181231 
L 506.88 80.585116 
L 503.588571 79.35526 
L 502.881494 78.893982 
L 500.297143 76.804351 
L 498.194005 75.606733 
L 497.005714 74.396543 
L 493.957731 75.606733 
L 493.714286 75.647404 
L 493.602503 75.606733 
L 490.422857 73.49219 
L 487.131429 72.37404 
L 487.058175 72.319483 
L 483.84 69.450498 
L 483.237947 69.032234 
L 480.548571 66.383113 
L 479.424507 65.744985 
L 477.257143 63.631372 
L 473.965714 62.615061 
L 473.741732 62.457736 
L 470.674286 59.756204 
L 469.740392 59.170486 
L 467.382857 56.86861 
L 465.038394 55.883237 
L 464.091429 54.985205 
L 463.02229 55.883237 
L 460.8 56.721119 
L 457.508571 56.002499 
L 457.348382 55.883237 
L 454.217143 52.959971 
L 453.681825 52.595988 
L 450.925714 49.830881 
L 449.937456 49.308739 
L 447.634286 46.988583 
L 444.342857 46.242775 
L 444.044114 46.021489 
L 441.051429 43.162974 
L 440.407709 42.73424 
L 437.76 40.074301 
L 436.49751 39.446991 
L 434.468571 37.396323 
L 431.685508 39.446991 
L 431.177143 39.668059 
L 427.885714 39.61443 
L 427.660725 39.446991 
L 424.594286 36.467372 
L 424.132664 36.159742 
L 421.302857 33.278999 
L 420.475087 32.872492 
L 418.011429 30.317422 
L 414.72 29.84154 
L 414.386045 29.585243 
L 411.428571 26.609139 
L 410.981193 26.297994 
L 408.137143 23.399004 
L 407.310085 23.010745 
L 404.845714 20.436615 
L 401.554286 21.554656 
L 399.995 23.010745 
L 398.262857 23.203143 
L 397.997185 23.010745 
L 394.971429 19.999909 
L 394.558313 19.723495 
L 391.68 16.805339 
L 390.940714 16.436246 
L 388.388571 13.807781 
L 385.097143 13.285926 
L 384.916896 13.148997 
L 381.805714 10.010742 
L 381.579089 9.861748 
L 378.514286 6.753695 
L 378.134875 6.574498 
L 375.222857 3.568274 
L 371.931429 3.489537 
L 369.115739 6.574498 
L 368.64 6.654132 
L 368.520923 6.574498 
L 365.348571 3.528457 
L 364.983271 3.287249 
L 362.057143 0.31308 
L 361.401857 0 
L 358.765714 0 
L 358.466631 0 
L 358.765714 0.224154 
L 362.057143 2.041049 
L 363.283214 3.287249 
L 365.348571 4.651005 
L 367.351826 6.574498 
L 368.64 7.435979 
L 371.931429 7.720722 
L 375.222857 7.669239 
L 378.514286 8.483477 
L 379.873377 9.861748 
L 381.805714 11.132158 
L 383.805155 13.148997 
L 385.097143 14.130487 
L 388.139364 16.436246 
L 388.388571 16.631701 
L 391.68 18.446554 
L 392.939507 19.723495 
L 394.971429 21.083047 
L 396.908679 23.010745 
L 398.262857 23.991433 
L 401.554286 24.970165 
L 404.845714 25.75273 
L 408.137143 25.12797 
L 409.284993 26.297994 
L 411.428571 27.788821 
L 413.213748 29.585243 
L 414.72 30.74123 
L 417.694532 32.872492 
L 418.011429 33.111757 
L 421.302857 34.897279 
L 422.542998 36.159742 
L 424.594286 37.526745 
L 426.570485 39.446991 
L 427.885714 40.425798 
L 431.177143 42.029077 
L 432.956598 42.73424 
L 434.468571 43.077604 
L 435.846406 42.73424 
L 437.76 42.041054 
L 438.449999 42.73424 
L 441.051429 44.466857 
L 442.679031 46.021489 
L 444.342857 47.25392 
L 447.3443 49.308739 
L 447.634286 49.519083 
L 450.925714 51.345039 
L 452.172594 52.595988 
L 454.217143 53.986155 
L 456.249191 55.883237 
L 457.508571 56.82085 
L 460.8 59.040863 
L 461.082708 59.170486 
L 464.091429 59.9492 
L 467.355404 59.170486 
L 467.382857 59.15903 
L 467.394591 59.170486 
L 470.674286 61.22744 
L 472.071222 62.457736 
L 473.965714 63.788432 
L 477.029448 65.744985 
L 477.257143 65.900315 
L 480.548571 67.787566 
L 481.812153 69.032234 
L 483.84 70.441038 
L 485.947074 72.319483 
L 487.131429 73.201548 
L 490.360886 75.606733 
L 490.422857 75.651631 
L 493.714286 76.872627 
L 496.705885 78.893982 
L 497.005714 79.042814 
L 498.218339 78.893982 
L 500.297143 78.432479 
L 500.867906 78.893982 
L 503.588571 80.668869 
L 506.186485 82.181231 
L 506.88 82.615494 
L 510.171429 84.497233 
L 511.135301 85.46848 
L 513.462857 87.111248 
L 515.369031 88.75573 
L 516.754286 89.788531 
L 519.778084 92.042979 
L 520.045714 92.242515 
L 523.337143 93.97692 
L 525.268232 95.330228 
L 526.628571 96.025093 
L 529.92 96.11883 
L 533.211429 97.462074 
L 535.818086 98.617477 
L 536.502857 98.95432 
L 539.794286 100.834767 
L 540.856789 101.904727 
L 543.085714 103.50962 
L 545.136448 105.191976 
L 546.377143 106.116881 
L 549.546061 108.479225 
L 549.668571 108.570554 
L 552.96 110.667292 
L 554.360155 111.766474 
L 556.251429 112.772308 
L 559.542857 113.791552 
L 562.834286 114.455331 
L 566.125714 115.041722 
L 566.137593 115.053724 
L 569.417143 117.145495 
L 570.605406 118.340973 
L 572.708571 119.886899 
L 574.958656 121.628222 
z
" clip-path="url(#p62f53fbfbe)" style="fill: #e5eff9; fill-opacity: 0.9"/>
    <path d="M 572.708571 119.049681 
L 576 121.485993 
L 576 118.340973 
L 576 115.053724 
L 576 111.766474 
L 576 108.479225 
L 576 105.191976 
L 576 101.904727 
L 576 98.617477 
L 576 95.330228 
L 576 92.042979 
L 576 88.75573 
L 576 85.46848 
L 576 82.181231 
L 576 78.893982 
L 576 75.606733 
L 576 72.319483 
L 576 69.032234 
L 576 65.744985 
L 576 62.457736 
L 576 59.170486 
L 576 55.883237 
L 576 52.595988 
L 576 49.308739 
L 576 46.021489 
L 576 42.73424 
L 576 39.446991 
L 576 36.159742 
L 576 32.872492 
L 576 29.585243 
L 576 26.297994 
L 576 23.010745 
L 576 19.723495 
L 576 16.436246 
L 576 13.148997 
L 576 9.861748 
L 576 6.574498 
L 576 3.287249 
L 576 0 
L 572.708571 0 
L 569.417143 0 
L 566.125714 0 
L 562.834286 0 
L 559.542857 0 
L 556.251429 0 
L 552.96 0 
L 549.668571 0 
L 546.377143 0 
L 543.085714 0 
L 539.794286 0 
L 536.502857 0 
L 533.211429 0 
L 529.92 0 
L 526.628571 0 
L 523.337143 0 
L 520.045714 0 
L 516.754286 0 
L 513.462857 0 
L 510.171429 0 
L 506.88 0 
L 503.588571 0 
L 500.297143 0 
L 497.005714 0 
L 493.714286 0 
L 490.422857 0 
L 487.131429 0 
L 483.84 0 
L 480.548571 0 
L 477.257143 0 
L 473.965714 0 
L 470.674286 0 
L 467.382857 0 
L 464.091429 0 
L 460.8 0 
L 457.508571 0 
L 454.217143 0 
L 450.925714 0 
L 447.634286 0 
L 444.342857 0 
L 441.051429 0 
L 437.76 0 
L 434.468571 0 
L 431.177143 0 
L 427.885714 0 
L 424.594286 0 
L 421.302857 0 
L 418.011429 0 
L 414.72 0 
L 411.428571 0 
L 408.137143 0 
L 404.845714 0 
L 401.554286 0 
L 398.262857 0 
L 394.971429 0 
L 391.68 0 
L 388.388571 0 
L 385.097143 0 
L 381.805714 0 
L 378.514286 0 
L 375.222857 0 
L 371.931429 0 
L 368.64 0 
L 365.348571 0 
L 362.057143 0 
L 361.401857 0 
L 362.057143 0.31308 
L 364.983271 3.287249 
L 365.348571 3.528457 
L 368.520923 6.574499 
L 368.64 6.654132 
L 369.115739 6.574498 
L 371.931429 3.489537 
L 375.222857 3.568274 
L 378.134875 6.574498 
L 378.514286 6.753695 
L 381.579089 9.861748 
L 381.805714 10.010742 
L 384.916896 13.148997 
L 385.097143 13.285926 
L 388.388571 13.807781 
L 390.940714 16.436246 
L 391.68 16.805339 
L 394.558313 19.723495 
L 394.971429 19.999909 
L 397.997185 23.010745 
L 398.262857 23.203143 
L 399.995 23.010745 
L 401.554286 21.554656 
L 404.845714 20.436615 
L 407.310085 23.010745 
L 408.137143 23.399004 
L 410.981193 26.297994 
L 411.428571 26.609139 
L 414.386045 29.585243 
L 414.72 29.84154 
L 418.011429 30.317422 
L 420.475087 32.872492 
L 421.302857 33.278999 
L 424.132664 36.159742 
L 424.594286 36.467372 
L 427.660725 39.446991 
L 427.885714 39.61443 
L 431.177143 39.668059 
L 431.685508 39.446991 
L 434.468571 37.396323 
L 436.49751 39.446991 
L 437.76 40.074301 
L 440.407709 42.73424 
L 441.051429 43.162974 
L 444.044114 46.021489 
L 444.342857 46.242775 
L 447.634286 46.988583 
L 449.937456 49.308739 
L 450.925714 49.830881 
L 453.681825 52.595988 
L 454.217143 52.959971 
L 457.348382 55.883237 
L 457.508571 56.002499 
L 460.8 56.721119 
L 463.02229 55.883237 
L 464.091429 54.985205 
L 465.038394 55.883237 
L 467.382857 56.86861 
L 469.740392 59.170486 
L 470.674286 59.756204 
L 473.741732 62.457736 
L 473.965714 62.615061 
L 477.257143 63.631372 
L 479.424507 65.744985 
L 480.548571 66.383113 
L 483.237947 69.032234 
L 483.84 69.450498 
L 487.058175 72.319483 
L 487.131429 72.37404 
L 490.422857 73.49219 
L 493.602503 75.606733 
L 493.714286 75.647404 
L 493.957731 75.606733 
L 497.005714 74.396543 
L 498.194005 75.606733 
L 500.297143 76.804351 
L 502.881494 78.893982 
L 503.588571 79.35526 
L 506.88 80.585116 
L 508.453583 82.181231 
L 510.171429 83.178445 
L 512.444074 85.46848 
L 513.462857 86.187528 
L 516.439746 88.75573 
L 516.754286 88.990241 
L 520.045714 90.432511 
L 521.774278 92.042979 
L 523.337143 92.824494 
L 526.628571 92.755177 
L 529.92 93.649613 
L 532.537503 95.330228 
L 533.211429 95.695518 
L 536.502857 96.910494 
L 538.188751 98.617477 
L 539.794286 99.595162 
L 542.087756 101.904727 
L 543.085714 102.623287 
L 546.216858 105.191976 
L 546.377143 105.311464 
L 549.668571 106.764423 
L 551.364105 108.479225 
L 552.96 109.474563 
L 555.879469 111.766474 
L 556.251429 111.964293 
L 557.540979 111.766474 
L 559.542857 110.71191 
L 562.593267 111.766474 
L 562.834286 111.844864 
L 566.125714 113.226507 
L 567.934196 115.053724 
L 569.417143 115.999581 
L 571.744405 118.340973 
z
" clip-path="url(#p62f53fbfbe)" style="fill: #dfecf7; fill-opacity: 0.9"/>
    <path clip-path="url(#p62f53fbfbe)" style="fill: #dae8f6; fill-opacity: 0.9"/>
    <path clip-path="url(#p62f53fbfbe)" style="fill: #d6e5f4; fill-opacity: 0.9"/>
    <path clip-path="url(#p62f53fbfbe)" style="fill: #d0e2f2; fill-opacity: 0.9"/>
    <path clip-path="url(#p62f53fbfbe)" style="fill: #cbdef1; fill-opacity: 0.9"/>
    <path clip-path="url(#p62f53fbfbe)" style="fill: #c6dbef; fill-opacity: 0.9"/>
    <path clip-path="url(#p62f53fbfbe)" style="fill: #bed8ec; fill-opacity: 0.9"/>
    <path clip-path="url(#p62f53fbfbe)" style="fill: #b5d4e9; fill-opacity: 0.9"/>
    <path clip-path="url(#p62f53fbfbe)" style="fill: #add0e6; fill-opacity: 0.9"/>
    <path clip-path="url(#p62f53fbfbe)" style="fill: #a5cde3; fill-opacity: 0.9"/>
    <path clip-path="url(#p62f53fbfbe)" style="fill: #9cc9e1; fill-opacity: 0.9"/>
    <path clip-path="url(#p62f53fbfbe)" style="fill: #91c3de; fill-opacity: 0.9"/>
    <path clip-path="url(#p62f53fbfbe)" style="fill: #85bcdc; fill-opacity: 0.9"/>
    <path clip-path="url(#p62f53fbfbe)" style="fill: #7cb7da; fill-opacity: 0.9"/>
    <path clip-path="url(#p62f53fbfbe)" style="fill: #71b1d7; fill-opacity: 0.9"/>
    <path clip-path="url(#p62f53fbfbe)" style="fill: #66abd4; fill-opacity: 0.9"/>
    <path clip-path="url(#p62f53fbfbe)" style="fill: #5da5d1; fill-opacity: 0.9"/>
    <path clip-path="url(#p62f53fbfbe)" style="fill: #56a0ce; fill-opacity: 0.9"/>
    <path clip-path="url(#p62f53fbfbe)" style="fill: #4d99ca; fill-opacity: 0.9"/>
    <path clip-path="url(#p62f53fbfbe)" style="fill: #4493c7; fill-opacity: 0.9"/>
    <path clip-path="url(#p62f53fbfbe)" style="fill: #3c8cc3; fill-opacity: 0.9"/>
    <path clip-path="url(#p62f53fbfbe)" style="fill: #3686c0; fill-opacity: 0.9"/>
    <path clip-path="url(#p62f53fbfbe)" style="fill: #2f7fbc; fill-opacity: 0.9"/>
    <path clip-path="url(#p62f53fbfbe)" style="fill: #2777b8; fill-opacity: 0.9"/>
    <path clip-path="url(#p62f53fbfbe)" style="fill: #2070b4; fill-opacity: 0.9"/>
    <path clip-path="url(#p62f53fbfbe)" style="fill: #1c6ab0; fill-opacity: 0.9"/>
    <path clip-path="url(#p62f53fbfbe)" style="fill: #1663aa; fill-opacity: 0.9"/>
    <path clip-path="url(#p62f53fbfbe)" style="fill: #115ca5; fill-opacity: 0.9"/>
    <path clip-path="url(#p62f53fbfbe)" style="fill: #0c56a0; fill-opacity: 0.9"/>
    <path clip-path="url(#p62f53fbfbe)" style="fill: #084f99; fill-opacity: 0.9"/>
    <path clip-path="url(#p62f53fbfbe)" style="fill: #08488e; fill-opacity: 0.9"/>
    <path clip-path="url(#p62f53fbfbe)" style="fill: #084184; fill-opacity: 0.9"/>
    <path clip-path="url(#p62f53fbfbe)" style="fill: #083a7a; fill-opacity: 0.9"/>
    <path clip-path="url(#p62f53fbfbe)" style="fill: #083370; fill-opacity: 0.9"/>
    <path clip-path="url(#p62f53fbfbe)" style="fill: #08306b; fill-opacity: 0.9"/>
   </g>
   <g id="QuadContourSet_2">
    <path d="M 351.335006 0 
L 352.182857 0.629894 
L 355.474286 0.634714 
L 358.765714 2.70448 
L 359.543288 3.287249 
L 362.057143 5.251635 
L 363.847593 6.574498 
L 365.348571 7.699928 
L 368.64 9.781518 
L 368.78307 9.861748 
L 371.931429 11.620191 
L 374.668639 13.148997 
L 375.222857 13.587449 
L 378.514286 14.95418 
L 380.554209 16.436246 
L 381.805714 17.28054 
L 385.097143 17.155825 
L 388.388571 19.253594 
L 389.029852 19.723495 
L 391.68 21.771095 
L 393.405862 23.010745 
L 394.971429 24.142686 
L 398.161305 26.297994 
L 398.262857 26.391093 
L 401.554286 28.197853 
L 404.032048 29.585243 
L 404.845714 30.199391 
L 408.137143 31.61961 
L 409.902799 32.872492 
L 411.428571 33.851534 
L 414.72 34.356013 
L 418.011429 35.955938 
L 418.302025 36.159742 
L 421.302857 38.383893 
L 422.856112 39.446991 
L 424.594286 40.624544 
L 427.662348 42.73424 
L 427.885714 42.927377 
L 431.177143 44.801765 
L 433.346552 46.021489 
L 434.468571 46.829314 
L 437.76 48.310392 
L 439.193271 49.308739 
L 441.051429 50.447809 
L 444.342857 51.458487 
L 446.976224 52.595988 
L 447.634286 52.763111 
L 450.925714 55.072297 
L 452.183286 55.883237 
L 454.217143 57.144895 
L 457.294138 59.170486 
L 457.508571 59.337295 
L 460.8 61.44209 
L 462.604788 62.457736 
L 464.091429 63.460831 
L 467.382857 65.024612 
L 468.446179 65.744985 
L 470.674286 67.034475 
L 473.965714 68.539869 
L 475.015446 69.032234 
L 477.257143 69.667051 
L 480.548571 71.875667 
L 481.306089 72.319483 
L 483.84 73.684673 
L 486.944682 75.606733 
L 487.131429 75.732973 
L 490.422857 78.066612 
L 491.84544 78.893982 
L 493.714286 80.080438 
L 497.005714 81.743155 
L 497.679347 82.181231 
L 500.297143 83.656289 
L 501.587115 84.383153 
M 518.285445 93.37518 
L 520.045714 94.637387 
L 521.106248 95.330228 
L 523.337143 96.77493 
L 526.628571 98.545052 
L 526.74382 98.617477 
L 529.92 100.403167 
L 532.590801 101.904727 
L 533.211429 102.44627 
L 536.502857 103.574854 
L 538.780716 105.191976 
L 539.794286 105.898573 
L 543.085714 107.004025 
L 546.148621 108.479225 
L 546.377143 108.573105 
L 549.668571 110.986804 
L 550.714445 111.766474 
L 552.96 113.341102 
L 556.013033 115.053724 
L 556.251429 115.289814 
L 559.542857 117.03359 
L 561.873739 118.340973 
L 562.834286 119.122258 
L 566.125714 120.370289 
L 567.857753 121.628222 
L 569.417143 122.614863 
L 572.708571 123.546714 
L 576 124.82156 
" clip-path="url(#p62f53fbfbe)" style="fill: none"/>
    <path d="M 356.26034 0 
L 358.765714 1.877705 
L 360.646434 3.287249 
L 362.057143 4.389611 
L 365.014313 6.574498 
L 365.348571 6.825124 
L 368.64 8.999672 
L 370.177308 9.861748 
L 371.931429 10.841471 
L 375.222857 12.245515 
L 376.655101 13.148997 
L 378.514286 13.941224 
L 381.805714 15.328876 
L 385.097143 15.81961 
L 385.910734 16.436246 
L 388.388571 18.37963 
L 390.222563 19.723495 
L 391.68 20.849564 
L 394.688834 23.010745 
L 394.971429 23.215067 
L 398.262857 25.568014 
L 399.534294 26.297994 
L 401.554286 27.429062 
L 404.845714 29.01334 
L 405.742312 29.585243 
L 408.137143 30.645352 
L 411.275796 32.872492 
L 411.428571 32.970524 
L 412.191327 32.872492 
L 414.72 32.54061 
L 415.183198 32.872492 
L 418.011429 35.007878 
L 419.653828 36.159742 
L 421.302857 37.381966 
L 424.319993 39.446991 
L 424.594286 39.632815 
L 427.885714 42.048533 
L 428.978083 42.73424 
L 431.177143 44.036392 
L 434.468571 45.783666 
L 434.832503 46.021489 
L 437.76 47.362181 
L 440.554567 49.308739 
L 441.051429 49.61332 
L 444.076264 49.308739 
L 444.342857 49.276212 
L 444.390369 49.308739 
L 447.634286 51.661755 
L 449.037225 52.595988 
L 450.925714 53.933152 
L 453.949823 55.883237 
L 454.217143 56.049063 
L 457.508571 58.457553 
L 458.527089 59.170486 
L 460.8 60.670517 
L 463.97586 62.457736 
L 464.091429 62.535714 
L 467.382857 64.095747 
L 469.817252 65.744985 
L 470.674286 66.240983 
L 473.965714 66.44245 
L 475.650692 67.448241 
M 491.672789 77.988575 
L 493.22955 78.893982 
L 493.714286 79.201722 
L 497.005714 80.843041 
L 499.063456 82.181231 
L 500.297143 82.876381 
L 503.588571 83.736104 
L 506.88 85.441422 
L 506.929141 85.46848 
L 510.171429 87.399885 
L 512.809405 88.75573 
L 513.462857 89.049203 
L 516.754286 91.385113 
L 517.636655 92.042979 
L 520.045714 93.839097 
L 522.328195 95.330228 
L 523.337143 95.983611 
L 526.628571 97.705066 
L 528.080468 98.617477 
L 529.92 99.651686 
L 533.211429 100.96888 
L 534.922031 101.904727 
L 536.502857 102.457745 
L 539.794286 104.408287 
L 542.353084 105.191976 
L 543.085714 105.359536 
L 546.377143 107.727714 
L 547.385242 108.479225 
L 549.668571 110.181387 
L 551.794854 111.766474 
L 552.96 112.583498 
L 556.251429 114.388337 
L 557.36359 115.053724 
L 559.542857 116.276067 
L 562.834286 117.880055 
L 563.61957 118.340973 
L 566.125714 119.314234 
L 569.311828 121.628222 
L 569.417143 121.694856 
L 570.9822 121.628222 
L 572.708571 121.561335 
L 572.795001 121.628222 
L 576 124.015687 
" clip-path="url(#p62f53fbfbe)" style="fill: none"/>
    <path d="M 357.363486 0 
L 358.765714 1.05093 
L 361.749579 3.287249 
L 362.057143 3.527587 
L 365.348571 5.773554 
L 366.182729 6.574498 
L 368.64 8.217825 
L 371.571546 9.861748 
L 371.931429 10.062752 
L 375.222857 10.745945 
L 378.514286 11.44802 
L 381.805714 12.253573 
L 382.693413 13.148997 
L 385.097143 14.975049 
L 387.025049 16.436246 
L 388.388571 17.505665 
L 391.415274 19.723495 
L 391.68 19.928032 
L 394.971429 22.166185 
L 395.820174 23.010745 
L 398.262857 24.779724 
L 400.907291 26.297994 
L 401.554286 26.66027 
L 404.845714 27.609482 
L 407.943203 29.585243 
L 408.137143 29.671094 
L 408.611896 29.585243 
L 411.428571 28.968503 
L 412.041451 29.585243 
L 414.72 31.64092 
L 416.438865 32.872492 
L 418.011429 34.059817 
L 421.005632 36.159742 
L 421.302857 36.380039 
L 424.594286 38.586117 
L 425.480244 39.446991 
L 427.885714 41.237165 
L 430.270636 42.73424 
L 431.177143 43.27102 
L 434.468571 44.430635 
L 436.902992 46.021489 
L 437.76 46.413969 
L 440.007304 46.021489 
L 441.051429 45.77074 
L 441.313948 46.021489 
L 444.342857 48.265066 
L 445.867335 49.308739 
L 447.634286 50.590419 
L 450.64605 52.595988 
L 450.925714 52.794007 
L 454.217143 55.01234 
L 455.15 55.883237 
L 457.508571 57.639201 
L 459.696209 59.170486 
L 460.8 59.898945 
L 464.091429 61.258655 
L 465.886365 62.457736 
L 467.382857 63.166882 
L 470.674286 63.457101 
L 473.965714 64.961802 
L 475.192088 65.744985 
L 477.257143 67.153737 
L 480.31634 69.032234 
L 480.548571 69.185277 
L 483.84 71.431578 
L 484.835974 72.319483 
L 487.131429 74.029056 
L 489.249786 75.606733 
L 490.422857 76.456624 
L 493.714286 78.097851 
L 494.892558 78.893982 
L 497.005714 79.942928 
L 500.297143 81.748316 
L 503.588571 81.982478 
L 503.929987 82.181231 
L 506.88 84.028458 
L 509.495197 85.46848 
L 510.171429 85.871306 
L 513.462857 88.034968 
L 514.298317 88.75573 
L 516.754286 90.586822 
L 518.70737 92.042979 
L 520.045714 93.040806 
L 523.337143 95.129347 
L 523.623788 95.330228 
L 526.628571 96.86508 
L 529.417117 98.617477 
L 529.92 98.900205 
L 533.211429 99.221868 
L 536.502857 100.91478 
L 539.092447 101.904727 
L 539.794286 102.206106 
L 540.715357 102.818911 
M 556.479612 113.716841 
L 558.714146 115.053724 
L 559.542857 115.518545 
L 562.834286 116.283954 
L 566.125714 118.100514 
L 569.417143 118.29141 
L 569.466407 118.340973 
L 572.708571 120.724117 
L 573.876829 121.628222 
L 576 123.209813 
" clip-path="url(#p62f53fbfbe)" style="fill: none"/>
    <path d="M 358.466631 0 
L 358.765714 0.224154 
L 362.057143 2.041049 
L 363.283214 3.287249 
L 365.348571 4.651005 
L 367.351826 6.574498 
L 368.64 7.435979 
L 371.931429 7.720722 
L 375.222857 7.669239 
L 378.514286 8.483477 
L 379.873377 9.861748 
L 381.805714 11.132158 
L 383.805155 13.148997 
L 385.097143 14.130487 
L 388.139364 16.436246 
L 388.388571 16.631701 
L 391.68 18.446554 
L 392.939507 19.723495 
L 394.971429 21.083047 
L 396.908679 23.010745 
L 398.262857 23.991433 
L 401.554286 24.970165 
L 404.845714 25.75273 
L 408.137143 25.12797 
L 409.284993 26.297994 
L 411.428571 27.788821 
L 413.213748 29.585243 
L 414.72 30.74123 
L 417.694532 32.872492 
L 418.011429 33.111757 
L 421.302857 34.897279 
L 422.542998 36.159742 
L 424.594286 37.526745 
L 426.570485 39.446991 
L 427.885714 40.425798 
L 431.177143 42.029077 
L 432.956598 42.73424 
L 434.468571 43.077604 
L 435.846406 42.73424 
L 437.76 42.041054 
L 438.449999 42.73424 
L 439.981019 43.753938 
M 455.386146 55.077515 
L 456.249191 55.883237 
L 457.508571 56.82085 
L 460.8 59.040863 
L 461.082708 59.170486 
L 464.091429 59.9492 
L 467.355404 59.170486 
L 467.382857 59.15903 
L 467.394591 59.170486 
L 470.674286 61.22744 
L 472.071222 62.457736 
L 473.965714 63.788432 
L 477.029448 65.744985 
L 477.257143 65.900315 
L 480.548571 67.787566 
L 481.812153 69.032234 
L 483.84 70.441038 
L 485.947074 72.319483 
L 487.131429 73.201548 
L 490.360886 75.606733 
L 490.422857 75.651631 
L 493.714286 76.872627 
L 496.705885 78.893982 
L 497.005714 79.042814 
L 498.218339 78.893982 
L 500.297143 78.432479 
L 500.867906 78.893982 
L 503.588571 80.668869 
L 506.186485 82.181231 
L 506.88 82.615494 
L 510.171429 84.497233 
L 511.135301 85.46848 
L 513.462857 87.111248 
L 515.369031 88.75573 
L 516.754286 89.788531 
L 519.778084 92.042979 
L 520.045714 92.242515 
L 523.337143 93.97692 
L 525.268232 95.330228 
L 526.628571 96.025093 
L 529.92 96.11883 
L 533.211429 97.462074 
L 535.818086 98.617477 
L 536.502857 98.95432 
L 539.794286 100.834767 
L 540.856789 101.904727 
L 543.085714 103.50962 
L 545.136448 105.191976 
L 546.377143 106.116881 
L 549.546061 108.479225 
L 549.668571 108.570554 
L 552.96 110.667292 
L 554.360155 111.766474 
L 556.251429 112.772308 
L 559.542857 113.791552 
L 562.834286 114.455331 
L 566.125714 115.041722 
L 566.137593 115.053724 
L 569.417143 117.145495 
L 570.605406 118.340973 
L 572.708571 119.886899 
L 574.958656 121.628222 
L 576 122.40394 
" clip-path="url(#p62f53fbfbe)" style="fill: none"/>
    <path d="M 361.401857 0 
L 362.057143 0.31308 
L 364.983271 3.287249 
L 365.348571 3.528457 
L 368.520923 6.574499 
L 368.64 6.654132 
L 369.115739 6.574498 
L 371.931429 3.489537 
L 375.222857 3.568274 
L 378.134875 6.574498 
L 378.514286 6.753695 
L 381.579089 9.861748 
L 381.805714 10.010742 
L 384.916896 13.148997 
L 385.097143 13.285926 
L 388.388571 13.807781 
L 390.940714 16.436246 
L 391.68 16.805339 
L 394.558313 19.723495 
L 394.971429 19.999909 
L 397.997185 23.010745 
L 398.262857 23.203143 
L 399.995 23.010745 
L 401.554286 21.554656 
L 404.845714 20.436615 
L 407.310085 23.010745 
L 408.137143 23.399004 
L 410.981193 26.297994 
L 411.428571 26.609139 
L 414.386045 29.585243 
L 414.72 29.84154 
L 418.011429 30.317422 
L 420.475087 32.872492 
L 421.302857 33.278999 
L 424.132664 36.159742 
L 424.594286 36.467372 
L 427.660725 39.446991 
L 427.885714 39.61443 
L 431.177143 39.668059 
L 431.685508 39.446991 
L 434.468571 37.396323 
L 436.49751 39.446991 
L 437.76 40.074301 
L 440.407709 42.73424 
L 441.051429 43.162974 
L 444.044114 46.021489 
L 444.342857 46.242775 
L 447.634286 46.988583 
L 449.937456 49.308739 
L 450.925714 49.830881 
L 453.681825 52.595988 
L 454.217143 52.959971 
L 457.348382 55.883237 
L 457.508571 56.002499 
L 460.8 56.721119 
L 463.02229 55.883237 
L 464.091429 54.985205 
L 465.038394 55.883237 
L 467.382857 56.86861 
L 469.740392 59.170486 
L 470.674286 59.756204 
L 473.741732 62.457736 
L 473.965714 62.615061 
L 477.257143 63.631372 
L 479.424507 65.744985 
L 480.548571 66.383113 
L 483.237947 69.032234 
L 483.84 69.450498 
L 487.058175 72.319483 
L 487.131429 72.37404 
L 490.422857 73.49219 
L 493.602503 75.606733 
L 493.714286 75.647404 
L 493.957731 75.606733 
L 497.005714 74.396543 
L 498.194005 75.606733 
L 500.297143 76.804351 
L 502.881494 78.893982 
L 503.588571 79.35526 
L 506.88 80.585116 
L 508.453583 82.181231 
L 510.171429 83.178445 
L 512.444074 85.46848 
L 513.462857 86.187528 
L 516.439746 88.75573 
L 516.754286 88.990241 
L 520.045714 90.432511 
L 521.774278 92.042979 
L 523.337143 92.824494 
L 526.628571 92.755177 
L 529.92 93.649613 
L 531.708376 94.797872 
M 547.121049 105.639852 
L 549.668571 106.764423 
L 551.364105 108.479225 
L 552.96 109.474563 
L 555.879469 111.766474 
L 556.251429 111.964293 
L 557.540979 111.766474 
L 559.542857 110.71191 
L 562.593267 111.766474 
L 562.834286 111.844864 
L 566.125714 113.226507 
L 567.934196 115.053724 
L 569.417143 115.999581 
L 571.744405 118.340973 
L 572.708571 119.049681 
L 576 121.485993 
" clip-path="url(#p62f53fbfbe)" style="fill: none"/>
    <path clip-path="url(#p62f53fbfbe)" style="fill: none"/>
    <path clip-path="url(#p62f53fbfbe)" style="fill: none"/>
    <path clip-path="url(#p62f53fbfbe)" style="fill: none"/>
    <path clip-path="url(#p62f53fbfbe)" style="fill: none"/>
    <path clip-path="url(#p62f53fbfbe)" style="fill: none"/>
    <path clip-path="url(#p62f53fbfbe)" style="fill: none"/>
    <path clip-path="url(#p62f53fbfbe)" style="fill: none"/>
    <path clip-path="url(#p62f53fbfbe)" style="fill: none"/>
    <path clip-path="url(#p62f53fbfbe)" style="fill: none"/>
    <path clip-path="url(#p62f53fbfbe)" style="fill: none"/>
    <path clip-path="url(#p62f53fbfbe)" style="fill: none"/>
    <path clip-path="url(#p62f53fbfbe)" style="fill: none"/>
    <path clip-path="url(#p62f53fbfbe)" style="fill: none"/>
    <path clip-path="url(#p62f53fbfbe)" style="fill: none"/>
    <path clip-path="url(#p62f53fbfbe)" style="fill: none"/>
    <path clip-path="url(#p62f53fbfbe)" style="fill: none"/>
    <path clip-path="url(#p62f53fbfbe)" style="fill: none"/>
    <path clip-path="url(#p62f53fbfbe)" style="fill: none"/>
    <path clip-path="url(#p62f53fbfbe)" style="fill: none"/>
    <path clip-path="url(#p62f53fbfbe)" style="fill: none"/>
    <path clip-path="url(#p62f53fbfbe)" style="fill: none"/>
    <path clip-path="url(#p62f53fbfbe)" style="fill: none"/>
    <path clip-path="url(#p62f53fbfbe)" style="fill: none"/>
    <path clip-path="url(#p62f53fbfbe)" style="fill: none"/>
    <path clip-path="url(#p62f53fbfbe)" style="fill: none"/>
    <path clip-path="url(#p62f53fbfbe)" style="fill: none"/>
    <path clip-path="url(#p62f53fbfbe)" style="fill: none"/>
    <path clip-path="url(#p62f53fbfbe)" style="fill: none"/>
    <path clip-path="url(#p62f53fbfbe)" style="fill: none"/>
    <path clip-path="url(#p62f53fbfbe)" style="fill: none"/>
    <path clip-path="url(#p62f53fbfbe)" style="fill: none"/>
    <path clip-path="url(#p62f53fbfbe)" style="fill: none"/>
    <path clip-path="url(#p62f53fbfbe)" style="fill: none"/>
    <path clip-path="url(#p62f53fbfbe)" style="fill: none"/>
   </g>
   <g id="text_1">
    <g clip-path="url(#p62f53fbfbe)">
     <!-- 0 -->
     <g style="opacity: 0" transform="translate(505.045572 89.867665) rotate(-331.773051) scale(0.12 -0.12)">
      <defs>
       <path id="DejaVuSans-30" d="M 2034 4250 
Q 1547 4250 1301 3770 
Q 1056 3291 1056 2328 
Q 1056 1369 1301 889 
Q 1547 409 2034 409 
Q 2525 409 2770 889 
Q 3016 1369 3016 2328 
Q 3016 3291 2770 3770 
Q 2525 4250 2034 4250 
z
M 2034 4750 
Q 2819 4750 3233 4129 
Q 3647 3509 3647 2328 
Q 3647 1150 3233 529 
Q 2819 -91 2034 -91 
Q 1250 -91 836 529 
Q 422 1150 422 2328 
Q 422 3509 836 4129 
Q 1250 4750 2034 4750 
z
" transform="scale(0.015625)"/>
      </defs>
      <use xlink:href="#DejaVuSans-30"/>
     </g>
    </g>
   </g>
   <g id="text_2">
    <g clip-path="url(#p62f53fbfbe)">
     <!-- 1 -->
     <g style="opacity: 0" transform="translate(478.829669 73.106643) rotate(-326.554895) scale(0.12 -0.12)">
      <defs>
       <path id="DejaVuSans-31" d="M 794 531 
L 1825 531 
L 1825 4091 
L 703 3866 
L 703 4441 
L 1819 4666 
L 2450 4666 
L 2450 531 
L 3481 531 
L 3481 0 
L 794 0 
L 794 531 
z
" transform="scale(0.015625)"/>
      </defs>
      <use xlink:href="#DejaVuSans-31"/>
     </g>
    </g>
   </g>
   <g id="text_3">
    <g clip-path="url(#p62f53fbfbe)">
     <!-- 2 -->
     <g style="opacity: 0" transform="translate(543.427144 108.867972) rotate(-323.473984) scale(0.12 -0.12)">
      <defs>
       <path id="DejaVuSans-32" d="M 1228 531 
L 3431 531 
L 3431 0 
L 469 0 
L 469 531 
Q 828 903 1448 1529 
Q 2069 2156 2228 2338 
Q 2531 2678 2651 2914 
Q 2772 3150 2772 3378 
Q 2772 3750 2511 3984 
Q 2250 4219 1831 4219 
Q 1534 4219 1204 4116 
Q 875 4013 500 3803 
L 500 4441 
Q 881 4594 1212 4672 
Q 1544 4750 1819 4750 
Q 2544 4750 2975 4387 
Q 3406 4025 3406 3419 
Q 3406 3131 3298 2873 
Q 3191 2616 2906 2266 
Q 2828 2175 2409 1742 
Q 1991 1309 1228 531 
z
" transform="scale(0.015625)"/>
      </defs>
      <use xlink:href="#DejaVuSans-32"/>
     </g>
    </g>
   </g>
   <g id="text_4">
    <g clip-path="url(#p62f53fbfbe)">
     <!-- 3 -->
     <g style="opacity: 0" transform="translate(442.620952 50.154823) rotate(-326.289145) scale(0.12 -0.12)">
      <defs>
       <path id="DejaVuSans-33" d="M 2597 2516 
Q 3050 2419 3304 2112 
Q 3559 1806 3559 1356 
Q 3559 666 3084 287 
Q 2609 -91 1734 -91 
Q 1441 -91 1130 -33 
Q 819 25 488 141 
L 488 750 
Q 750 597 1062 519 
Q 1375 441 1716 441 
Q 2309 441 2620 675 
Q 2931 909 2931 1356 
Q 2931 1769 2642 2001 
Q 2353 2234 1838 2234 
L 1294 2234 
L 1294 2753 
L 1863 2753 
Q 2328 2753 2575 2939 
Q 2822 3125 2822 3475 
Q 2822 3834 2567 4026 
Q 2313 4219 1838 4219 
Q 1578 4219 1281 4162 
Q 984 4106 628 3988 
L 628 4550 
Q 988 4650 1302 4700 
Q 1616 4750 1894 4750 
Q 2613 4750 3031 4423 
Q 3450 4097 3450 3541 
Q 3450 3153 3228 2886 
Q 3006 2619 2597 2516 
z
" transform="scale(0.015625)"/>
      </defs>
      <use xlink:href="#DejaVuSans-33"/>
     </g>
    </g>
   </g>
   <g id="text_5">
    <g clip-path="url(#p62f53fbfbe)">
     <!-- 4 -->
     <g style="opacity: 0" transform="translate(534.742554 99.728156) rotate(-320.570098) scale(0.12 -0.12)">
      <defs>
       <path id="DejaVuSans-34" d="M 2419 4116 
L 825 1625 
L 2419 1625 
L 2419 4116 
z
M 2253 4666 
L 3047 4666 
L 3047 1625 
L 3713 1625 
L 3713 1100 
L 3047 1100 
L 3047 0 
L 2419 0 
L 2419 1100 
L 313 1100 
L 313 1709 
L 2253 4666 
z
" transform="scale(0.015625)"/>
      </defs>
      <use xlink:href="#DejaVuSans-34"/>
     </g>
    </g>
   </g>
  </g>
 </g>
 <defs>
  <clipPath id="p62f53fbfbe">
   <rect x="0" y="0" width="576" height="818.525063"/>
  </clipPath>
 </defs>
</svg>
