<?xml version="1.0" encoding="utf-8" standalone="no"?>
<!DOCTYPE svg PUBLIC "-//W3C//DTD SVG 1.1//EN"
  "http://www.w3.org/Graphics/SVG/1.1/DTD/svg11.dtd">
<svg xmlns:xlink="http://www.w3.org/1999/xlink" width="576pt" height="818.669339pt" viewBox="0 0 576 818.669339" xmlns="http://www.w3.org/2000/svg" version="1.1">
 <metadata>
  <rdf:RDF xmlns:dc="http://purl.org/dc/elements/1.1/" xmlns:cc="http://creativecommons.org/ns#" xmlns:rdf="http://www.w3.org/1999/02/22-rdf-syntax-ns#">
   <cc:Work>
    <dc:type rdf:resource="http://purl.org/dc/dcmitype/StillImage"/>
    <dc:date>2025-07-25T22:44:14.180454</dc:date>
    <dc:format>image/svg+xml</dc:format>
    <dc:creator>
     <cc:Agent>
      <dc:title>Matplotlib v3.10.3, https://matplotlib.org/</dc:title>
     </cc:Agent>
    </dc:creator>
   </cc:Work>
  </rdf:RDF>
 </metadata>
 <defs>
  <style type="text/css">*{stroke-linejoin: round; stroke-linecap: butt}</style>
 </defs>
 <g id="figure_1">
  <g id="patch_1">
   <path d="M 0 818.669339 
L 576 818.669339 
L 576 0 
L 0 0 
L 0 818.669339 
z
" style="fill: none; opacity: 0"/>
  </g>
  <g id="axes_1">
   <g id="QuadContourSet_1">
    <path d="M 2.946483 13.151315 
L 3.291429 12.833841 
L 6.582857 12.082464 
L 9.874286 10.795085 
L 13.165714 11.181095 
L 15.436963 9.863486 
L 16.457143 9.156384 
L 16.747676 9.863486 
L 17.256994 13.151315 
L 19.748571 16.439143 
L 23.04 16.439143 
L 26.331429 13.151315 
L 26.331429 13.151315 
L 28.826411 9.863486 
L 29.622857 9.067911 
L 32.11784 6.575657 
L 31.488464 3.287829 
L 32.914286 2.587488 
L 36.205714 2.020327 
L 38.476357 0 
L 37.720344 0 
L 36.205714 1.347657 
L 32.914286 2.106029 
L 30.508264 3.287829 
L 31.695161 6.575657 
L 29.622857 8.645695 
L 28.403733 9.863486 
L 26.331429 12.594319 
L 25.773823 13.151315 
L 23.04 15.882147 
L 19.748571 15.882147 
L 17.679096 13.151315 
L 17.258088 9.863486 
L 16.457143 7.914141 
L 13.644704 9.863486 
L 13.165714 10.14136 
L 11.57622 9.863486 
L 9.874286 7.036328 
L 6.582857 9.4409 
L 6.121606 9.863486 
L 3.291429 12.325197 
L 2.393824 13.151315 
L -0 15.248368 
L 0 15.732512 
z
M 23.04 6.784743 
L 23.249315 6.575657 
L 23.04 6.181229 
L 22.483476 6.575657 
z
" clip-path="url(#p1b215747cd)" style="fill: #f5f9fe; fill-opacity: 0.9"/>
    <path d="M 2.393824 13.151315 
L 3.291429 12.325197 
L 6.121606 9.863486 
L 6.582857 9.4409 
L 9.874286 7.036328 
L 11.57622 9.863486 
L 13.165714 10.14136 
L 13.644704 9.863486 
L 16.457143 7.914141 
L 17.258088 9.863486 
L 17.679096 13.151315 
L 19.748571 15.882147 
L 23.04 15.882147 
L 25.773823 13.151315 
L 26.331429 12.594319 
L 28.403733 9.863486 
L 29.622857 8.645695 
L 31.695161 6.575657 
L 30.508264 3.287829 
L 32.914286 2.106029 
L 36.205714 1.347657 
L 37.720344 0 
L 36.96433 -0 
L 36.205714 0.674986 
L 32.914286 1.624571 
L 29.622857 3.178496 
L 29.471423 3.287829 
L 29.622857 3.367329 
L 31.272483 6.575657 
L 29.622857 8.223479 
L 27.981054 9.863486 
L 26.331429 12.037323 
L 25.216217 13.151315 
L 23.04 15.325152 
L 19.748571 15.325152 
L 18.101197 13.151315 
L 17.768499 9.863486 
L 16.457143 6.671898 
L 15.984511 6.575657 
L 13.972364 3.287829 
L 13.165714 3.200848 
L 13.079172 3.287829 
L 9.874286 5.986733 
L 9.282375 6.575657 
L 6.582857 8.905143 
L 5.536828 9.863486 
L 3.291429 11.816552 
L 1.841165 13.151315 
L 0 14.764224 
L -0 15.248368 
z
M 23.04 7.412701 
L 23.87796 6.575657 
L 23.04 4.996624 
L 20.812038 6.575657 
z
M 22.483476 6.575657 
L 23.04 6.181229 
L 23.249315 6.575657 
L 23.04 6.784743 
z
" clip-path="url(#p1b215747cd)" style="fill: #eff6fc; fill-opacity: 0.9"/>
    <path d="M 1.841165 13.151315 
L 3.291429 11.816552 
L 5.536828 9.863486 
L 6.582857 8.905143 
L 9.282375 6.575657 
L 9.874286 5.986733 
L 13.079172 3.287829 
L 13.165714 3.200848 
L 13.972364 3.287829 
L 15.984511 6.575657 
L 16.457143 6.671898 
L 17.768499 9.863486 
L 18.101197 13.151315 
L 19.748571 15.325152 
L 23.04 15.325152 
L 25.216217 13.151315 
L 26.331429 12.037323 
L 27.981054 9.863486 
L 29.622857 8.223479 
L 31.272483 6.575657 
L 29.622857 3.367329 
L 29.471423 3.287829 
L 29.622857 3.178496 
L 32.914286 1.624571 
L 36.205714 0.674986 
L 36.96433 -0 
L 36.208316 0 
L 36.205714 0.002315 
L 32.914286 1.143112 
L 29.622857 2.047965 
L 27.905546 3.287829 
L 29.622857 4.18939 
L 30.849804 6.575657 
L 29.622857 7.801262 
L 27.558375 9.863486 
L 26.331429 11.480327 
L 24.658611 13.151315 
L 23.04 14.768156 
L 19.748571 14.768156 
L 18.523299 13.151315 
L 18.27891 9.863486 
L 19.748571 6.944414 
L 23.04 8.040658 
L 24.506605 6.575657 
L 23.04 3.812019 
L 20.391083 3.287829 
L 19.748571 2.12058 
L 18.404703 0 
L 16.457143 0 
L 16.200501 0 
L 13.165714 2.463597 
L 12.345634 3.287829 
L 9.874286 5.369005 
L 8.661515 6.575657 
L 6.582857 8.369386 
L 4.95205 9.863486 
L 3.291429 11.307908 
L 1.288506 13.151315 
L 0 14.28008 
L 0 14.764224 
z
M 20.812038 6.575657 
L 23.04 4.996624 
L 23.87796 6.575657 
L 23.04 7.412701 
z
" clip-path="url(#p1b215747cd)" style="fill: #eaf3fb; fill-opacity: 0.9"/>
    <path d="M 1.288506 13.151315 
L 3.291429 11.307908 
L 4.95205 9.863486 
L 6.582857 8.369386 
L 8.661515 6.575657 
L 9.874286 5.369005 
L 12.345634 3.287829 
L 13.165714 2.463597 
L 16.200501 0 
L 15.292317 0 
L 13.165714 1.726346 
L 11.612097 3.287829 
L 9.874286 4.751277 
L 8.040654 6.575657 
L 6.582857 7.833629 
L 4.367272 9.863486 
L 3.291429 10.799263 
L 0.735847 13.151315 
L 0 13.795936 
L 0 14.28008 
z
M 19.748571 14.768156 
L 23.04 14.768156 
L 24.658611 13.151315 
L 26.331429 11.480327 
L 27.558375 9.863486 
L 29.622857 7.801262 
L 30.849804 6.575657 
L 29.622857 4.18939 
L 27.905546 3.287829 
L 29.622857 2.047965 
L 32.914286 1.143112 
L 36.205714 0.002315 
L 36.208316 0 
L 36.205714 0 
L 34.822188 0 
L 32.914286 0.661653 
L 29.622857 0.917434 
L 26.33967 3.287829 
L 29.622857 5.01145 
L 30.427125 6.575657 
L 29.622857 7.379046 
L 27.135697 9.863486 
L 26.331429 10.923331 
L 24.101006 13.151315 
L 23.04 14.21116 
L 19.748571 14.21116 
L 18.945401 13.151315 
L 18.789322 9.863486 
L 19.748571 7.958204 
L 23.04 8.668616 
L 25.13525 6.575657 
L 26.300647 3.287829 
L 24.771413 0 
L 23.04 0 
L 19.748571 0 
L 18.404703 0 
L 19.748571 2.12058 
L 20.391083 3.287829 
L 23.04 3.812019 
L 24.506605 6.575657 
L 23.04 8.040658 
L 19.748571 6.944414 
L 18.27891 9.863486 
L 18.523299 13.151315 
z
" clip-path="url(#p1b215747cd)" style="fill: #e5eff9; fill-opacity: 0.9"/>
    <path d="M 0.735847 13.151315 
L 3.291429 10.799263 
L 4.367272 9.863486 
L 6.582857 7.833629 
L 8.040654 6.575657 
L 9.874286 4.751277 
L 11.612097 3.287829 
L 13.165714 1.726346 
L 15.292317 0 
L 14.384133 0 
L 13.165714 0.989095 
L 10.878559 3.287829 
L 9.874286 4.133549 
L 7.419794 6.575657 
L 6.582857 7.297872 
L 3.782494 9.863486 
L 3.291429 10.290618 
L 0.183187 13.151315 
L 0 13.311792 
L 0 13.795936 
z
M 19.748571 14.21116 
L 23.04 14.21116 
L 24.101006 13.151315 
L 26.331429 10.923331 
L 27.135697 9.863486 
L 29.622857 7.379046 
L 30.427125 6.575657 
L 29.622857 5.01145 
L 26.33967 3.287829 
L 29.622857 0.917434 
L 32.914286 0.661653 
L 34.822188 0 
L 33.433883 0 
L 32.914286 0.180194 
L 30.725302 0 
L 29.622857 0 
L 26.331429 0 
L 24.771413 0 
L 26.300647 3.287829 
L 25.13525 6.575657 
L 23.04 8.668616 
L 19.748571 7.958204 
L 18.789322 9.863486 
L 18.945401 13.151315 
z
M 19.367503 13.151315 
L 19.299733 9.863486 
L 19.748571 8.971994 
L 23.04 9.296573 
L 25.763895 6.575657 
L 26.331429 5.011402 
L 29.622857 5.833511 
L 30.004447 6.575657 
L 29.622857 6.956829 
L 26.713018 9.863486 
L 26.331429 10.366335 
L 23.5434 13.151315 
L 23.04 13.654164 
L 19.748571 13.654164 
z
" clip-path="url(#p1b215747cd)" style="fill: #dfecf7; fill-opacity: 0.9"/>
    <path d="M 0.183187 13.151315 
L 3.291429 10.290618 
L 3.782494 9.863486 
L 6.582857 7.297872 
L 7.419794 6.575657 
L 9.874286 4.133549 
L 10.878559 3.287829 
L 13.165714 0.989095 
L 14.384133 0 
L 13.475949 0 
L 13.165714 0.251845 
L 10.145022 3.287829 
L 9.874286 3.515821 
L 6.798933 6.575657 
L 6.582857 6.762115 
L 3.291429 9.054101 
L 2.505684 9.863486 
L 0 11.287905 
L 0 13.151315 
L 0 13.311792 
z
M 19.748571 13.654164 
L 23.04 13.654164 
L 23.5434 13.151315 
L 26.331429 10.366335 
L 26.713018 9.863486 
L 29.622857 6.956829 
L 30.004447 6.575657 
L 29.622857 5.833511 
L 26.331429 5.011402 
L 25.763895 6.575657 
L 23.04 9.296573 
L 19.748571 8.971994 
L 19.299733 9.863486 
L 19.367503 13.151315 
z
M 32.914286 0.180194 
L 33.433883 0 
L 32.914286 0 
L 30.725302 0 
z
" clip-path="url(#p1b215747cd)" style="fill: #dae8f6; fill-opacity: 0.9"/>
    <path d="M 2.505684 9.863486 
L 3.291429 9.054101 
L 6.582857 6.762115 
L 6.798933 6.575657 
L 9.874286 3.515821 
L 10.145022 3.287829 
L 13.165714 0.251845 
L 13.475949 0 
L 13.165714 0 
L 9.874286 0 
L 6.582857 0 
L 3.291429 0 
L 0 0 
L 0 3.287829 
L 0 6.575657 
L 0 9.863486 
L 0 11.287905 
z
" clip-path="url(#p1b215747cd)" style="fill: #d6e5f4; fill-opacity: 0.9"/>
    <path clip-path="url(#p1b215747cd)" style="fill: #d0e2f2; fill-opacity: 0.9"/>
    <path clip-path="url(#p1b215747cd)" style="fill: #cbdef1; fill-opacity: 0.9"/>
    <path clip-path="url(#p1b215747cd)" style="fill: #c6dbef; fill-opacity: 0.9"/>
    <path clip-path="url(#p1b215747cd)" style="fill: #bed8ec; fill-opacity: 0.9"/>
    <path clip-path="url(#p1b215747cd)" style="fill: #b5d4e9; fill-opacity: 0.9"/>
    <path clip-path="url(#p1b215747cd)" style="fill: #add0e6; fill-opacity: 0.9"/>
    <path clip-path="url(#p1b215747cd)" style="fill: #a5cde3; fill-opacity: 0.9"/>
    <path clip-path="url(#p1b215747cd)" style="fill: #9cc9e1; fill-opacity: 0.9"/>
    <path clip-path="url(#p1b215747cd)" style="fill: #91c3de; fill-opacity: 0.9"/>
    <path clip-path="url(#p1b215747cd)" style="fill: #85bcdc; fill-opacity: 0.9"/>
    <path clip-path="url(#p1b215747cd)" style="fill: #7cb7da; fill-opacity: 0.9"/>
    <path clip-path="url(#p1b215747cd)" style="fill: #71b1d7; fill-opacity: 0.9"/>
    <path clip-path="url(#p1b215747cd)" style="fill: #66abd4; fill-opacity: 0.9"/>
    <path clip-path="url(#p1b215747cd)" style="fill: #5da5d1; fill-opacity: 0.9"/>
    <path clip-path="url(#p1b215747cd)" style="fill: #56a0ce; fill-opacity: 0.9"/>
    <path clip-path="url(#p1b215747cd)" style="fill: #4d99ca; fill-opacity: 0.9"/>
    <path clip-path="url(#p1b215747cd)" style="fill: #4493c7; fill-opacity: 0.9"/>
    <path clip-path="url(#p1b215747cd)" style="fill: #3c8cc3; fill-opacity: 0.9"/>
    <path clip-path="url(#p1b215747cd)" style="fill: #3686c0; fill-opacity: 0.9"/>
    <path clip-path="url(#p1b215747cd)" style="fill: #2f7fbc; fill-opacity: 0.9"/>
    <path clip-path="url(#p1b215747cd)" style="fill: #2777b8; fill-opacity: 0.9"/>
    <path clip-path="url(#p1b215747cd)" style="fill: #2070b4; fill-opacity: 0.9"/>
    <path clip-path="url(#p1b215747cd)" style="fill: #1c6ab0; fill-opacity: 0.9"/>
    <path clip-path="url(#p1b215747cd)" style="fill: #1663aa; fill-opacity: 0.9"/>
    <path clip-path="url(#p1b215747cd)" style="fill: #115ca5; fill-opacity: 0.9"/>
    <path clip-path="url(#p1b215747cd)" style="fill: #0c56a0; fill-opacity: 0.9"/>
    <path clip-path="url(#p1b215747cd)" style="fill: #084f99; fill-opacity: 0.9"/>
    <path clip-path="url(#p1b215747cd)" style="fill: #08488e; fill-opacity: 0.9"/>
    <path clip-path="url(#p1b215747cd)" style="fill: #084184; fill-opacity: 0.9"/>
    <path clip-path="url(#p1b215747cd)" style="fill: #083a7a; fill-opacity: 0.9"/>
    <path clip-path="url(#p1b215747cd)" style="fill: #083370; fill-opacity: 0.9"/>
    <path clip-path="url(#p1b215747cd)" style="fill: #08306b; fill-opacity: 0.9"/>
   </g>
   <g id="QuadContourSet_2">
    <path d="M 0 15.732512 
L 2.946483 13.151315 
L 3.291429 12.833841 
L 6.582857 12.082464 
L 9.874286 10.795085 
L 13.165714 11.181095 
L 15.436963 9.863486 
L 16.457143 9.156384 
L 16.747676 9.863486 
L 17.256994 13.151315 
L 19.748571 16.439143 
L 23.04 16.439143 
L 23.286462 16.192951 
M 33.992768 2.40165 
L 36.205714 2.020327 
L 38.476357 0 
" clip-path="url(#p1b215747cd)" style="fill: none"/>
    <path d="M 10.469835 8.025621 
L 11.57622 9.863486 
L 13.165714 10.14136 
L 13.644704 9.863486 
L 16.457143 7.914141 
L 17.258088 9.863486 
L 17.679096 13.151315 
L 19.748571 15.882147 
L 23.04 15.882147 
L 25.773823 13.151315 
L 26.331429 12.594319 
L 28.403733 9.863486 
L 29.622857 8.645695 
L 31.695161 6.575657 
L 30.508264 3.287829 
L 32.914286 2.106029 
L 36.205714 1.347657 
L 37.720344 0 
M 23.04 6.784743 
L 22.483476 6.575657 
L 23.04 6.181229 
L 23.249315 6.575657 
L 23.04 6.784743 
" clip-path="url(#p1b215747cd)" style="fill: none"/>
    <path d="M 0 14.764224 
L 1.841165 13.151315 
L 2.079223 12.932216 
M 15.879331 6.403794 
L 15.984511 6.575657 
L 16.457143 6.671898 
L 17.768499 9.863486 
L 18.101197 13.151315 
L 19.748571 15.325152 
L 23.04 15.325152 
L 25.216217 13.151315 
L 26.331429 12.037323 
L 27.981054 9.863486 
L 29.622857 8.223479 
L 31.272483 6.575657 
L 29.622857 3.367329 
L 29.471423 3.287829 
L 29.622857 3.178496 
L 32.914286 1.624571 
L 36.205714 0.674986 
L 36.96433 -0 
M 23.04 7.412701 
L 20.812038 6.575657 
L 23.04 4.996624 
L 23.87796 6.575657 
L 23.04 7.412701 
z
" clip-path="url(#p1b215747cd)" style="fill: none"/>
    <path d="M 0 14.28008 
L 1.288506 13.151315 
L 1.488889 12.96689 
M 15.885436 0.255765 
L 16.200501 0 
M 18.404703 0 
L 19.748571 2.12058 
L 20.391083 3.287829 
L 23.04 3.812019 
L 24.506605 6.575657 
L 23.04 8.040658 
L 19.748571 6.944414 
L 18.27891 9.863486 
L 18.523299 13.151315 
L 19.748571 14.768156 
L 23.04 14.768156 
L 24.25746 13.552027 
M 32.382546 1.289293 
L 32.914286 1.143112 
L 36.205714 0.002315 
L 36.208316 0 
" clip-path="url(#p1b215747cd)" style="fill: none"/>
    <path d="M 0 13.795936 
L 0.735847 13.151315 
L 0.941406 12.962127 
M 15.098274 0.157521 
L 15.292317 0 
M 24.771413 0 
L 26.300647 3.287829 
L 25.498879 5.549784 
M 24.201519 13.050911 
L 26.331429 10.923331 
L 27.135697 9.863486 
L 29.622857 7.379046 
L 30.427125 6.575657 
L 29.622857 5.01145 
L 26.33967 3.287829 
L 29.622857 0.917434 
L 32.914286 0.661653 
L 34.822188 0 
" clip-path="url(#p1b215747cd)" style="fill: none"/>
    <path d="M 0 13.311792 
L 0.183187 13.151315 
L 0.351072 12.996801 
M 14.356309 0.022588 
L 14.384133 0 
M 30.725302 0 
L 32.914286 0.180194 
L 33.433883 0 
M 19.748571 13.654164 
L 23.04 13.654164 
L 23.5434 13.151315 
L 26.331429 10.366335 
L 26.713018 9.863486 
L 29.622857 6.956829 
L 30.004447 6.575657 
L 29.622857 5.833511 
L 26.331429 5.011402 
L 25.763895 6.575657 
L 23.04 9.296573 
L 19.748571 8.971994 
L 19.299733 9.863486 
L 19.367503 13.151315 
L 19.748571 13.654164 
z
" clip-path="url(#p1b215747cd)" style="fill: none"/>
    <path clip-path="url(#p1b215747cd)" style="fill: none"/>
    <path clip-path="url(#p1b215747cd)" style="fill: none"/>
    <path clip-path="url(#p1b215747cd)" style="fill: none"/>
    <path clip-path="url(#p1b215747cd)" style="fill: none"/>
    <path clip-path="url(#p1b215747cd)" style="fill: none"/>
    <path clip-path="url(#p1b215747cd)" style="fill: none"/>
    <path clip-path="url(#p1b215747cd)" style="fill: none"/>
    <path clip-path="url(#p1b215747cd)" style="fill: none"/>
    <path clip-path="url(#p1b215747cd)" style="fill: none"/>
    <path clip-path="url(#p1b215747cd)" style="fill: none"/>
    <path clip-path="url(#p1b215747cd)" style="fill: none"/>
    <path clip-path="url(#p1b215747cd)" style="fill: none"/>
    <path clip-path="url(#p1b215747cd)" style="fill: none"/>
    <path clip-path="url(#p1b215747cd)" style="fill: none"/>
    <path clip-path="url(#p1b215747cd)" style="fill: none"/>
    <path clip-path="url(#p1b215747cd)" style="fill: none"/>
    <path clip-path="url(#p1b215747cd)" style="fill: none"/>
    <path clip-path="url(#p1b215747cd)" style="fill: none"/>
    <path clip-path="url(#p1b215747cd)" style="fill: none"/>
    <path clip-path="url(#p1b215747cd)" style="fill: none"/>
    <path clip-path="url(#p1b215747cd)" style="fill: none"/>
    <path clip-path="url(#p1b215747cd)" style="fill: none"/>
    <path clip-path="url(#p1b215747cd)" style="fill: none"/>
    <path clip-path="url(#p1b215747cd)" style="fill: none"/>
    <path clip-path="url(#p1b215747cd)" style="fill: none"/>
    <path clip-path="url(#p1b215747cd)" style="fill: none"/>
    <path clip-path="url(#p1b215747cd)" style="fill: none"/>
    <path clip-path="url(#p1b215747cd)" style="fill: none"/>
    <path clip-path="url(#p1b215747cd)" style="fill: none"/>
    <path clip-path="url(#p1b215747cd)" style="fill: none"/>
    <path clip-path="url(#p1b215747cd)" style="fill: none"/>
    <path clip-path="url(#p1b215747cd)" style="fill: none"/>
    <path clip-path="url(#p1b215747cd)" style="fill: none"/>
   </g>
   <g id="text_1">
    <g clip-path="url(#p1b215747cd)">
     <!-- 0 -->
     <g style="opacity: 0" transform="translate(30.145873 14.094256) rotate(-55.002582) scale(0.12 -0.12)">
      <defs>
       <path id="DejaVuSans-30" d="M 2034 4250 
Q 1547 4250 1301 3770 
Q 1056 3291 1056 2328 
Q 1056 1369 1301 889 
Q 1547 409 2034 409 
Q 2525 409 2770 889 
Q 3016 1369 3016 2328 
Q 3016 3291 2770 3770 
Q 2525 4250 2034 4250 
z
M 2034 4750 
Q 2819 4750 3233 4129 
Q 3647 3509 3647 2328 
Q 3647 1150 3233 529 
Q 2819 -91 2034 -91 
Q 1250 -91 836 529 
Q 422 1150 422 2328 
Q 422 3509 836 4129 
Q 1250 4750 2034 4750 
z
" transform="scale(0.015625)"/>
      </defs>
      <use xlink:href="#DejaVuSans-30"/>
     </g>
    </g>
   </g>
   <g id="text_2">
    <g clip-path="url(#p1b215747cd)">
     <!-- 1 -->
     <g style="opacity: 0" transform="translate(2.575128 17.327656) rotate(-40.91328) scale(0.12 -0.12)">
      <defs>
       <path id="DejaVuSans-31" d="M 794 531 
L 1825 531 
L 1825 4091 
L 703 3866 
L 703 4441 
L 1819 4666 
L 2450 4666 
L 2450 531 
L 3481 531 
L 3481 0 
L 794 0 
L 794 531 
z
" transform="scale(0.015625)"/>
      </defs>
      <use xlink:href="#DejaVuSans-31"/>
     </g>
    </g>
   </g>
   <g id="text_3">
    <g clip-path="url(#p1b215747cd)">
     <!-- 2 -->
     <g style="opacity: 0" transform="translate(8.565078 11.577974) rotate(-40.901871) scale(0.12 -0.12)">
      <defs>
       <path id="DejaVuSans-32" d="M 1228 531 
L 3431 531 
L 3431 0 
L 469 0 
L 469 531 
Q 828 903 1448 1529 
Q 2069 2156 2228 2338 
Q 2531 2678 2651 2914 
Q 2772 3150 2772 3378 
Q 2772 3750 2511 3984 
Q 2250 4219 1831 4219 
Q 1534 4219 1204 4116 
Q 875 4013 500 3803 
L 500 4441 
Q 881 4594 1212 4672 
Q 1544 4750 1819 4750 
Q 2544 4750 2975 4387 
Q 3406 4025 3406 3419 
Q 3406 3131 3298 2873 
Q 3191 2616 2906 2266 
Q 2828 2175 2409 1742 
Q 1991 1309 1228 531 
z
" transform="scale(0.015625)"/>
      </defs>
      <use xlink:href="#DejaVuSans-32"/>
     </g>
    </g>
   </g>
   <g id="text_4">
    <g clip-path="url(#p1b215747cd)">
     <!-- 3 -->
     <g style="opacity: 0" transform="translate(7.993598 11.584806) rotate(-41.467076) scale(0.12 -0.12)">
      <defs>
       <path id="DejaVuSans-33" d="M 2597 2516 
Q 3050 2419 3304 2112 
Q 3559 1806 3559 1356 
Q 3559 666 3084 287 
Q 2609 -91 1734 -91 
Q 1441 -91 1130 -33 
Q 819 25 488 141 
L 488 750 
Q 750 597 1062 519 
Q 1375 441 1716 441 
Q 2309 441 2620 675 
Q 2931 909 2931 1356 
Q 2931 1769 2642 2001 
Q 2353 2234 1838 2234 
L 1294 2234 
L 1294 2753 
L 1863 2753 
Q 2328 2753 2575 2939 
Q 2822 3125 2822 3475 
Q 2822 3834 2567 4026 
Q 2313 4219 1838 4219 
Q 1578 4219 1281 4162 
Q 984 4106 628 3988 
L 628 4550 
Q 988 4650 1302 4700 
Q 1616 4750 1894 4750 
Q 2613 4750 3031 4423 
Q 3450 4097 3450 3541 
Q 3450 3153 3228 2886 
Q 3006 2619 2597 2516 
z
" transform="scale(0.015625)"/>
      </defs>
      <use xlink:href="#DejaVuSans-33"/>
     </g>
    </g>
   </g>
   <g id="text_5">
    <g clip-path="url(#p1b215747cd)">
     <!-- 3 -->
     <g style="opacity: 0" transform="translate(33.70623 10.744412) rotate(-83.480957) scale(0.12 -0.12)">
      <use xlink:href="#DejaVuSans-33"/>
     </g>
    </g>
   </g>
   <g id="text_6">
    <g clip-path="url(#p1b215747cd)">
     <!-- 4 -->
     <g style="opacity: 0" transform="translate(7.423941 11.591367) rotate(-42.05236) scale(0.12 -0.12)">
      <defs>
       <path id="DejaVuSans-34" d="M 2419 4116 
L 825 1625 
L 2419 1625 
L 2419 4116 
z
M 2253 4666 
L 3047 4666 
L 3047 1625 
L 3713 1625 
L 3713 1100 
L 3047 1100 
L 3047 0 
L 2419 0 
L 2419 1100 
L 313 1100 
L 313 1709 
L 2253 4666 
z
" transform="scale(0.015625)"/>
      </defs>
      <use xlink:href="#DejaVuSans-34"/>
     </g>
    </g>
   </g>
   <g id="text_7">
    <g clip-path="url(#p1b215747cd)">
     <!-- 4 -->
     <g style="opacity: 0" transform="translate(20.331703 14.675839) rotate(-66.832949) scale(0.12 -0.12)">
      <use xlink:href="#DejaVuSans-34"/>
     </g>
    </g>
   </g>
   <g id="text_8">
    <g clip-path="url(#p1b215747cd)">
     <!-- 5 -->
     <g style="opacity: 0" transform="translate(6.856611 11.59766) rotate(-42.663463) scale(0.12 -0.12)">
      <defs>
       <path id="DejaVuSans-35" d="M 691 4666 
L 3169 4666 
L 3169 4134 
L 1269 4134 
L 1269 2991 
Q 1406 3038 1543 3061 
Q 1681 3084 1819 3084 
Q 2600 3084 3056 2656 
Q 3513 2228 3513 1497 
Q 3513 744 3044 326 
Q 2575 -91 1722 -91 
Q 1428 -91 1123 -41 
Q 819 9 494 109 
L 494 744 
Q 775 591 1075 516 
Q 1375 441 1709 441 
Q 2250 441 2565 725 
Q 2881 1009 2881 1497 
Q 2881 1984 2565 2268 
Q 2250 2553 1709 2553 
Q 1456 2553 1204 2497 
Q 953 2441 691 2322 
L 691 4666 
z
" transform="scale(0.015625)"/>
      </defs>
      <use xlink:href="#DejaVuSans-35"/>
     </g>
    </g>
   </g>
   <g id="text_9">
    <g clip-path="url(#p1b215747cd)">
     <!-- 6 -->
     <g style="opacity: 0" transform="translate(6.033235 11.570794) rotate(-40.347093) scale(0.12 -0.12)">
      <defs>
       <path id="DejaVuSans-36" d="M 2113 2584 
Q 1688 2584 1439 2293 
Q 1191 2003 1191 1497 
Q 1191 994 1439 701 
Q 1688 409 2113 409 
Q 2538 409 2786 701 
Q 3034 994 3034 1497 
Q 3034 2003 2786 2293 
Q 2538 2584 2113 2584 
z
M 3366 4563 
L 3366 3988 
Q 3128 4100 2886 4159 
Q 2644 4219 2406 4219 
Q 1781 4219 1451 3797 
Q 1122 3375 1075 2522 
Q 1259 2794 1537 2939 
Q 1816 3084 2150 3084 
Q 2853 3084 3261 2657 
Q 3669 2231 3669 1497 
Q 3669 778 3244 343 
Q 2819 -91 2113 -91 
Q 1303 -91 875 529 
Q 447 1150 447 2328 
Q 447 3434 972 4092 
Q 1497 4750 2381 4750 
Q 2619 4750 2861 4703 
Q 3103 4656 3366 4563 
z
" transform="scale(0.015625)"/>
      </defs>
      <use xlink:href="#DejaVuSans-36"/>
     </g>
    </g>
   </g>
  </g>
 </g>
 <defs>
  <clipPath id="p1b215747cd">
   <rect x="0" y="0" width="576" height="818.669339"/>
  </clipPath>
 </defs>
</svg>
