<?xml version="1.0" encoding="utf-8" standalone="no"?>
<!DOCTYPE svg PUBLIC "-//W3C//DTD SVG 1.1//EN"
  "http://www.w3.org/Graphics/SVG/1.1/DTD/svg11.dtd">
<svg xmlns:xlink="http://www.w3.org/1999/xlink" width="576pt" height="820.116271pt" viewBox="0 0 576 820.116271" xmlns="http://www.w3.org/2000/svg" version="1.1">
 <metadata>
  <rdf:RDF xmlns:dc="http://purl.org/dc/elements/1.1/" xmlns:cc="http://creativecommons.org/ns#" xmlns:rdf="http://www.w3.org/1999/02/22-rdf-syntax-ns#">
   <cc:Work>
    <dc:type rdf:resource="http://purl.org/dc/dcmitype/StillImage"/>
    <dc:date>2025-07-25T22:45:51.305155</dc:date>
    <dc:format>image/svg+xml</dc:format>
    <dc:creator>
     <cc:Agent>
      <dc:title>Matplotlib v3.10.3, https://matplotlib.org/</dc:title>
     </cc:Agent>
    </dc:creator>
   </cc:Work>
  </rdf:RDF>
 </metadata>
 <defs>
  <style type="text/css">*{stroke-linejoin: round; stroke-linecap: butt}</style>
 </defs>
 <g id="figure_1">
  <g id="patch_1">
   <path d="M 0 820.116271 
L 576 820.116271 
L 576 0 
L 0 0 
L 0 820.116271 
z
" style="fill: none; opacity: 0"/>
  </g>
  <g id="axes_1">
   <g id="QuadContourSet_1">
    <path d="M 3.291429 16.468198 
L 3.291429 16.468198 
L 5.974998 13.174559 
L 6.582857 12.566291 
L 9.266427 9.880919 
L 9.874286 9.272651 
L 12.557855 6.587279 
L 13.165714 4.70796 
L 14.579085 3.29364 
L 16.457143 2.072 
L 18.527752 0 
L 17.733832 0 
L 16.457143 1.277546 
L 13.357752 3.29364 
L 13.165714 3.485806 
L 12.162554 6.587279 
L 9.874286 8.877085 
L 8.871125 9.880919 
L 6.582857 12.170724 
L 5.579697 13.174559 
L 3.291429 15.983031 
L 2.806587 16.468198 
L -0 19.276671 
L -0 19.761838 
z
M 0.934852 9.880919 
L -0 8.351423 
L -0 9.004778 
L 0.535511 9.880919 
L -0 10.416789 
L -0 10.816398 
z
M 6.582857 7.109948 
L 7.105175 6.587279 
L 6.582857 5.907299 
L 5.407524 6.587279 
z
M 6.483959 6.587279 
L 6.582857 6.530063 
L 6.626807 6.587279 
L 6.582857 6.631259 
z
" clip-path="url(#pca39ed0f1e)" style="fill: #f5f9fe; fill-opacity: 0.9"/>
    <path d="M 2.806587 16.468198 
L 3.291429 15.983031 
L 5.579697 13.174559 
L 6.582857 12.170724 
L 8.871125 9.880919 
L 9.874286 8.877085 
L 12.162554 6.587279 
L 13.165714 3.485806 
L 13.357752 3.29364 
L 16.457143 1.277546 
L 17.733832 0 
L 16.939911 0 
L 16.457143 0.483093 
L 13.165714 2.792271 
L 12.258533 3.29364 
L 11.767253 6.587279 
L 9.874286 8.481518 
L 8.475824 9.880919 
L 6.582857 11.775157 
L 5.184395 13.174559 
L 3.291429 15.497864 
L 2.321745 16.468198 
L -0 18.791503 
L -0 19.276671 
z
M 1.334192 9.880919 
L -0 7.698068 
L -0 8.351423 
L 0.934852 9.880919 
L -0 10.816398 
L -0 11.216008 
z
M 6.582857 7.588637 
L 7.583542 6.587279 
L 6.582857 5.284535 
L 4.331088 6.587279 
z
M 5.407524 6.587279 
L 6.582857 5.907299 
L 7.105175 6.587279 
L 6.582857 7.109948 
z
" clip-path="url(#pca39ed0f1e)" style="fill: #eff6fc; fill-opacity: 0.9"/>
    <path d="M 2.321745 16.468198 
L 3.291429 15.497864 
L 5.184395 13.174559 
L 6.582857 11.775157 
L 8.475824 9.880919 
L 9.874286 8.481518 
L 11.767253 6.587279 
L 12.258533 3.29364 
L 13.165714 2.792271 
L 16.457143 0.483093 
L 16.939911 0 
L 16.457143 0 
L 16.141401 0 
L 13.165714 2.197362 
L 11.182098 3.29364 
L 11.371951 6.587279 
L 9.874286 8.085951 
L 8.06191 6.587279 
L 6.582857 4.661771 
L 3.291429 6.521343 
L 3.138289 6.587279 
L 3.291429 6.615873 
L 6.582857 8.067326 
L 8.080523 9.880919 
L 6.582857 11.37959 
L 4.789094 13.174559 
L 3.291429 15.012696 
L 1.836904 16.468198 
L -0 18.306336 
L -0 18.791503 
z
M 4.331088 6.587279 
L 6.582857 5.284535 
L 7.583542 6.587279 
L 6.582857 7.588637 
z
M 1.733533 9.880919 
L -0 7.044713 
L -0 7.698068 
L 1.334192 9.880919 
L -0 11.216008 
L -0 11.615617 
z
" clip-path="url(#pca39ed0f1e)" style="fill: #eaf3fb; fill-opacity: 0.9"/>
    <path d="M 1.836904 16.468198 
L 3.291429 15.012696 
L 4.789094 13.174559 
L 6.582857 11.37959 
L 8.080523 9.880919 
L 6.582857 8.067326 
L 3.291429 6.615873 
L 3.138289 6.587279 
L 3.291429 6.521343 
L 6.582857 4.661771 
L 8.06191 6.587279 
L 9.874286 8.085951 
L 11.371951 6.587279 
L 11.182098 3.29364 
L 13.165714 2.197362 
L 16.141401 0 
L 15.33577 0 
L 13.165714 1.602453 
L 10.105662 3.29364 
L 10.97665 6.587279 
L 9.874286 7.690384 
L 8.540278 6.587279 
L 6.582857 4.039007 
L 3.291429 4.591359 
L -0 4.207655 
L -0 6.587279 
L -0 7.044713 
L 1.733533 9.880919 
L -0 11.615617 
L -0 12.015226 
L 2.132874 9.880919 
L 3.291429 7.452813 
L 6.582857 8.546015 
L 7.685221 9.880919 
L 6.582857 10.984024 
L 4.393793 13.174559 
L 3.291429 14.527529 
L 1.352062 16.468198 
L -0 17.821169 
L -0 18.306336 
z
" clip-path="url(#pca39ed0f1e)" style="fill: #e5eff9; fill-opacity: 0.9"/>
    <path d="M 1.352062 16.468198 
L 3.291429 14.527529 
L 4.393793 13.174559 
L 6.582857 10.984024 
L 7.685221 9.880919 
L 6.582857 8.546015 
L 3.291429 7.452813 
L 2.132874 9.880919 
L -0 12.015226 
L -0 12.414835 
L 2.532215 9.880919 
L 3.291429 8.289754 
L 6.582857 9.024703 
L 7.28992 9.880919 
L 6.582857 10.588457 
L 3.998491 13.174559 
L 3.291429 14.042362 
L 0.867221 16.468198 
L -0 17.336001 
L -0 17.821169 
z
M 9.874286 7.690384 
L 10.97665 6.587279 
L 10.105662 3.29364 
L 13.165714 1.602453 
L 15.33577 0 
L 14.530138 0 
L 13.165714 1.007543 
L 9.874286 1.970493 
L 7.242768 3.29364 
L 6.582857 3.416243 
L 5.34736 3.29364 
L 3.291429 0.555863 
L 2.901658 0 
L -0 0 
L -0 3.29364 
L -0 4.207655 
L 3.291429 4.591359 
L 6.582857 4.039007 
L 8.540278 6.587279 
z
M 9.018645 6.587279 
L 9.874286 4.298287 
L 10.581349 6.587279 
L 9.874286 7.294817 
z
" clip-path="url(#pca39ed0f1e)" style="fill: #dfecf7; fill-opacity: 0.9"/>
    <path d="M 0.867221 16.468198 
L 3.291429 14.042362 
L 3.998491 13.174559 
L 6.582857 10.588457 
L 7.28992 9.880919 
L 6.582857 9.024703 
L 3.291429 8.289754 
L 2.532215 9.880919 
L -0 12.414835 
L -0 12.814444 
L 2.931555 9.880919 
L 3.291429 9.126695 
L 6.582857 9.503392 
L 6.894619 9.880919 
L 6.582857 10.19289 
L 3.60319 13.174559 
L 3.291429 13.557194 
L 0.382379 16.468198 
L -0 16.850834 
L -0 17.336001 
z
M 9.874286 7.294817 
L 10.581349 6.587279 
L 9.874286 4.298287 
L 9.018645 6.587279 
z
M 9.497013 6.587279 
L 9.874286 5.578006 
L 10.186047 6.587279 
L 9.874286 6.89925 
z
M 6.582857 3.416243 
L 7.242768 3.29364 
L 9.874286 1.970493 
L 13.165714 1.007543 
L 14.530138 0 
L 13.724507 0 
L 13.165714 0.412634 
L 9.874286 0.28507 
L 8.847422 0 
L 6.582857 0 
L 3.291429 0 
L 2.901658 0 
L 3.291429 0.555863 
L 5.34736 3.29364 
z
" clip-path="url(#pca39ed0f1e)" style="fill: #dae8f6; fill-opacity: 0.9"/>
    <path d="M 0.382379 16.468198 
L 3.291429 13.557194 
L 3.60319 13.174559 
L 6.582857 10.19289 
L 6.894619 9.880919 
L 6.582857 9.503392 
L 3.291429 9.126695 
L 2.931555 9.880919 
L -0 12.814444 
L -0 13.174559 
L -0 16.468198 
L -0 16.850834 
z
M 9.874286 6.89925 
L 10.186047 6.587279 
L 9.874286 5.578006 
L 9.497013 6.587279 
z
M 9.874286 0.28507 
L 13.165714 0.412634 
L 13.724507 0 
L 13.165714 0 
L 9.874286 0 
L 8.847422 0 
z
" clip-path="url(#pca39ed0f1e)" style="fill: #d6e5f4; fill-opacity: 0.9"/>
    <path clip-path="url(#pca39ed0f1e)" style="fill: #d0e2f2; fill-opacity: 0.9"/>
    <path clip-path="url(#pca39ed0f1e)" style="fill: #cbdef1; fill-opacity: 0.9"/>
    <path clip-path="url(#pca39ed0f1e)" style="fill: #c6dbef; fill-opacity: 0.9"/>
    <path clip-path="url(#pca39ed0f1e)" style="fill: #bed8ec; fill-opacity: 0.9"/>
    <path clip-path="url(#pca39ed0f1e)" style="fill: #b5d4e9; fill-opacity: 0.9"/>
    <path clip-path="url(#pca39ed0f1e)" style="fill: #add0e6; fill-opacity: 0.9"/>
    <path clip-path="url(#pca39ed0f1e)" style="fill: #a5cde3; fill-opacity: 0.9"/>
    <path clip-path="url(#pca39ed0f1e)" style="fill: #9cc9e1; fill-opacity: 0.9"/>
    <path clip-path="url(#pca39ed0f1e)" style="fill: #91c3de; fill-opacity: 0.9"/>
    <path clip-path="url(#pca39ed0f1e)" style="fill: #85bcdc; fill-opacity: 0.9"/>
    <path clip-path="url(#pca39ed0f1e)" style="fill: #7cb7da; fill-opacity: 0.9"/>
    <path clip-path="url(#pca39ed0f1e)" style="fill: #71b1d7; fill-opacity: 0.9"/>
    <path clip-path="url(#pca39ed0f1e)" style="fill: #66abd4; fill-opacity: 0.9"/>
    <path clip-path="url(#pca39ed0f1e)" style="fill: #5da5d1; fill-opacity: 0.9"/>
    <path clip-path="url(#pca39ed0f1e)" style="fill: #56a0ce; fill-opacity: 0.9"/>
    <path clip-path="url(#pca39ed0f1e)" style="fill: #4d99ca; fill-opacity: 0.9"/>
    <path clip-path="url(#pca39ed0f1e)" style="fill: #4493c7; fill-opacity: 0.9"/>
    <path clip-path="url(#pca39ed0f1e)" style="fill: #3c8cc3; fill-opacity: 0.9"/>
    <path clip-path="url(#pca39ed0f1e)" style="fill: #3686c0; fill-opacity: 0.9"/>
    <path clip-path="url(#pca39ed0f1e)" style="fill: #2f7fbc; fill-opacity: 0.9"/>
    <path clip-path="url(#pca39ed0f1e)" style="fill: #2777b8; fill-opacity: 0.9"/>
    <path clip-path="url(#pca39ed0f1e)" style="fill: #2070b4; fill-opacity: 0.9"/>
    <path clip-path="url(#pca39ed0f1e)" style="fill: #1c6ab0; fill-opacity: 0.9"/>
    <path clip-path="url(#pca39ed0f1e)" style="fill: #1663aa; fill-opacity: 0.9"/>
    <path clip-path="url(#pca39ed0f1e)" style="fill: #115ca5; fill-opacity: 0.9"/>
    <path clip-path="url(#pca39ed0f1e)" style="fill: #0c56a0; fill-opacity: 0.9"/>
    <path clip-path="url(#pca39ed0f1e)" style="fill: #084f99; fill-opacity: 0.9"/>
    <path clip-path="url(#pca39ed0f1e)" style="fill: #08488e; fill-opacity: 0.9"/>
    <path clip-path="url(#pca39ed0f1e)" style="fill: #084184; fill-opacity: 0.9"/>
    <path clip-path="url(#pca39ed0f1e)" style="fill: #083a7a; fill-opacity: 0.9"/>
    <path clip-path="url(#pca39ed0f1e)" style="fill: #083370; fill-opacity: 0.9"/>
    <path clip-path="url(#pca39ed0f1e)" style="fill: #08306b; fill-opacity: 0.9"/>
   </g>
   <g id="QuadContourSet_2">
    <path d="M -0 19.761838 
L 2.831039 16.928898 
M 15.35559 2.788538 
L 16.457143 2.072 
L 18.527752 0 
M -0 9.004778 
L 0.535511 9.880919 
L -0 10.416789 
M 6.582857 6.631259 
L 6.483959 6.587279 
L 6.582857 6.530063 
L 6.626807 6.587279 
L 6.582857 6.631259 
z
" clip-path="url(#pca39ed0f1e)" style="fill: none"/>
    <path d="M -0 19.276671 
L 2.347777 16.927316 
M 14.55697 2.513572 
L 16.457143 1.277546 
L 17.733832 0 
M -0 8.351423 
L 0.934852 9.880919 
L -0 10.816398 
M 6.582857 7.109948 
L 5.407524 6.587279 
L 6.582857 5.907299 
L 7.105175 6.587279 
L 6.582857 7.109948 
z
" clip-path="url(#pca39ed0f1e)" style="fill: none"/>
    <path d="M -0 18.791503 
L 1.905693 16.88453 
M 13.654076 2.44965 
L 16.457143 0.483093 
L 16.939911 0 
M -0 7.698068 
L 1.334192 9.880919 
L -0 11.216008 
M 6.582857 7.588637 
L 4.331088 6.587279 
L 6.582857 5.284535 
L 7.583542 6.587279 
L 6.582857 7.588637 
z
" clip-path="url(#pca39ed0f1e)" style="fill: none"/>
    <path d="M -0 18.306336 
L 1.463608 16.841744 
M 6.188085 4.884807 
L 6.582857 4.661771 
L 8.06191 6.587279 
L 9.874286 8.085951 
L 11.371951 6.587279 
L 11.182098 3.29364 
L 13.165714 2.197362 
L 16.141401 0 
M -0 7.044713 
L 1.733533 9.880919 
L -0 11.615617 
" clip-path="url(#pca39ed0f1e)" style="fill: none"/>
    <path d="M -0 17.821169 
L 1.352062 16.468198 
L 3.291429 14.527529 
L 4.393793 13.174559 
L 6.582857 10.984024 
L 7.685221 9.880919 
L 6.582857 8.546015 
L 3.291429 7.452813 
L 2.132874 9.880919 
L -0 12.015226 
M -0 4.207655 
L 2.040825 4.445568 
M 14.045167 0.953031 
L 15.33577 0 
" clip-path="url(#pca39ed0f1e)" style="fill: none"/>
    <path d="M -0 17.336001 
L 0.867221 16.468198 
L 3.291429 14.042362 
L 3.998491 13.174559 
L 6.582857 10.588457 
L 7.28992 9.880919 
L 6.582857 9.024703 
L 3.291429 8.289754 
L 2.532215 9.880919 
L -0 12.414835 
M 2.901658 0 
L 3.291429 0.555863 
L 5.34736 3.29364 
L 6.582857 3.416243 
L 7.242768 3.29364 
L 9.874286 1.970493 
L 13.165714 1.007543 
L 14.530138 0 
M 9.874286 7.294817 
L 10.581349 6.587279 
L 9.874286 4.298287 
L 9.018645 6.587279 
L 9.874286 7.294817 
z
" clip-path="url(#pca39ed0f1e)" style="fill: none"/>
    <path d="M -0 16.850834 
L 0.382379 16.468198 
L 3.291429 13.557194 
L 3.60319 13.174559 
L 6.582857 10.19289 
L 6.894619 9.880919 
L 6.582857 9.503392 
L 3.291429 9.126695 
L 2.931555 9.880919 
L -0 12.814444 
M 8.847422 0 
L 9.874286 0.28507 
L 13.165714 0.412634 
L 13.724507 0 
M 9.874286 6.89925 
L 10.186047 6.587279 
L 9.874286 5.578006 
L 9.497013 6.587279 
L 9.874286 6.89925 
z
" clip-path="url(#pca39ed0f1e)" style="fill: none"/>
    <path clip-path="url(#pca39ed0f1e)" style="fill: none"/>
    <path clip-path="url(#pca39ed0f1e)" style="fill: none"/>
    <path clip-path="url(#pca39ed0f1e)" style="fill: none"/>
    <path clip-path="url(#pca39ed0f1e)" style="fill: none"/>
    <path clip-path="url(#pca39ed0f1e)" style="fill: none"/>
    <path clip-path="url(#pca39ed0f1e)" style="fill: none"/>
    <path clip-path="url(#pca39ed0f1e)" style="fill: none"/>
    <path clip-path="url(#pca39ed0f1e)" style="fill: none"/>
    <path clip-path="url(#pca39ed0f1e)" style="fill: none"/>
    <path clip-path="url(#pca39ed0f1e)" style="fill: none"/>
    <path clip-path="url(#pca39ed0f1e)" style="fill: none"/>
    <path clip-path="url(#pca39ed0f1e)" style="fill: none"/>
    <path clip-path="url(#pca39ed0f1e)" style="fill: none"/>
    <path clip-path="url(#pca39ed0f1e)" style="fill: none"/>
    <path clip-path="url(#pca39ed0f1e)" style="fill: none"/>
    <path clip-path="url(#pca39ed0f1e)" style="fill: none"/>
    <path clip-path="url(#pca39ed0f1e)" style="fill: none"/>
    <path clip-path="url(#pca39ed0f1e)" style="fill: none"/>
    <path clip-path="url(#pca39ed0f1e)" style="fill: none"/>
    <path clip-path="url(#pca39ed0f1e)" style="fill: none"/>
    <path clip-path="url(#pca39ed0f1e)" style="fill: none"/>
    <path clip-path="url(#pca39ed0f1e)" style="fill: none"/>
    <path clip-path="url(#pca39ed0f1e)" style="fill: none"/>
    <path clip-path="url(#pca39ed0f1e)" style="fill: none"/>
    <path clip-path="url(#pca39ed0f1e)" style="fill: none"/>
    <path clip-path="url(#pca39ed0f1e)" style="fill: none"/>
    <path clip-path="url(#pca39ed0f1e)" style="fill: none"/>
    <path clip-path="url(#pca39ed0f1e)" style="fill: none"/>
    <path clip-path="url(#pca39ed0f1e)" style="fill: none"/>
    <path clip-path="url(#pca39ed0f1e)" style="fill: none"/>
    <path clip-path="url(#pca39ed0f1e)" style="fill: none"/>
    <path clip-path="url(#pca39ed0f1e)" style="fill: none"/>
   </g>
   <g id="text_1">
    <g clip-path="url(#pca39ed0f1e)">
     <!-- 0 -->
     <g style="opacity: 0" transform="translate(8.96203 14.925225) rotate(-45.608748) scale(0.12 -0.12)">
      <defs>
       <path id="DejaVuSans-30" d="M 2034 4250 
Q 1547 4250 1301 3770 
Q 1056 3291 1056 2328 
Q 1056 1369 1301 889 
Q 1547 409 2034 409 
Q 2525 409 2770 889 
Q 3016 1369 3016 2328 
Q 3016 3291 2770 3770 
Q 2525 4250 2034 4250 
z
M 2034 4750 
Q 2819 4750 3233 4129 
Q 3647 3509 3647 2328 
Q 3647 1150 3233 529 
Q 2819 -91 2034 -91 
Q 1250 -91 836 529 
Q 422 1150 422 2328 
Q 422 3509 836 4129 
Q 1250 4750 2034 4750 
z
" transform="scale(0.015625)"/>
      </defs>
      <use xlink:href="#DejaVuSans-30"/>
     </g>
    </g>
   </g>
   <g id="text_2">
    <g clip-path="url(#pca39ed0f1e)">
     <!-- 1 -->
     <g style="opacity: 0" transform="translate(8.582562 14.926156) rotate(-45.788573) scale(0.12 -0.12)">
      <defs>
       <path id="DejaVuSans-31" d="M 794 531 
L 1825 531 
L 1825 4091 
L 703 3866 
L 703 4441 
L 1819 4666 
L 2450 4666 
L 2450 531 
L 3481 531 
L 3481 0 
L 794 0 
L 794 531 
z
" transform="scale(0.015625)"/>
      </defs>
      <use xlink:href="#DejaVuSans-31"/>
     </g>
    </g>
   </g>
   <g id="text_3">
    <g clip-path="url(#pca39ed0f1e)">
     <!-- 2 -->
     <g style="opacity: 0" transform="translate(8.208735 14.927338) rotate(-46.032417) scale(0.12 -0.12)">
      <defs>
       <path id="DejaVuSans-32" d="M 1228 531 
L 3431 531 
L 3431 0 
L 469 0 
L 469 531 
Q 828 903 1448 1529 
Q 2069 2156 2228 2338 
Q 2531 2678 2651 2914 
Q 2772 3150 2772 3378 
Q 2772 3750 2511 3984 
Q 2250 4219 1831 4219 
Q 1534 4219 1204 4116 
Q 875 4013 500 3803 
L 500 4441 
Q 881 4594 1212 4672 
Q 1544 4750 1819 4750 
Q 2544 4750 2975 4387 
Q 3406 4025 3406 3419 
Q 3406 3131 3298 2873 
Q 3191 2616 2906 2266 
Q 2828 2175 2409 1742 
Q 1991 1309 1228 531 
z
" transform="scale(0.015625)"/>
      </defs>
      <use xlink:href="#DejaVuSans-32"/>
     </g>
    </g>
   </g>
   <g id="text_4">
    <g clip-path="url(#pca39ed0f1e)">
     <!-- 3 -->
     <g style="opacity: 0" transform="translate(4.538796 6.27622) rotate(-273.557195) scale(0.12 -0.12)">
      <defs>
       <path id="DejaVuSans-33" d="M 2597 2516 
Q 3050 2419 3304 2112 
Q 3559 1806 3559 1356 
Q 3559 666 3084 287 
Q 2609 -91 1734 -91 
Q 1441 -91 1130 -33 
Q 819 25 488 141 
L 488 750 
Q 750 597 1062 519 
Q 1375 441 1716 441 
Q 2309 441 2620 675 
Q 2931 909 2931 1356 
Q 2931 1769 2642 2001 
Q 2353 2234 1838 2234 
L 1294 2234 
L 1294 2753 
L 1863 2753 
Q 2328 2753 2575 2939 
Q 2822 3125 2822 3475 
Q 2822 3834 2567 4026 
Q 2313 4219 1838 4219 
Q 1578 4219 1281 4162 
Q 984 4106 628 3988 
L 628 4550 
Q 988 4650 1302 4700 
Q 1616 4750 1894 4750 
Q 2613 4750 3031 4423 
Q 3450 4097 3450 3541 
Q 3450 3153 3228 2886 
Q 3006 2619 2597 2516 
z
" transform="scale(0.015625)"/>
      </defs>
      <use xlink:href="#DejaVuSans-33"/>
     </g>
    </g>
   </g>
   <g id="text_5">
    <g clip-path="url(#pca39ed0f1e)">
     <!-- 4 -->
     <g style="opacity: 0" transform="translate(6.79845 11.699987) rotate(-11.569624) scale(0.12 -0.12)">
      <defs>
       <path id="DejaVuSans-34" d="M 2419 4116 
L 825 1625 
L 2419 1625 
L 2419 4116 
z
M 2253 4666 
L 3047 4666 
L 3047 1625 
L 3713 1625 
L 3713 1100 
L 3047 1100 
L 3047 0 
L 2419 0 
L 2419 1100 
L 313 1100 
L 313 1709 
L 2253 4666 
z
" transform="scale(0.015625)"/>
      </defs>
      <use xlink:href="#DejaVuSans-34"/>
     </g>
    </g>
   </g>
  </g>
 </g>
 <defs>
  <clipPath id="pca39ed0f1e">
   <rect x="0" y="0" width="576" height="820.116271"/>
  </clipPath>
 </defs>
</svg>
