<?xml version="1.0" encoding="utf-8" standalone="no"?>
<!DOCTYPE svg PUBLIC "-//W3C//DTD SVG 1.1//EN"
  "http://www.w3.org/Graphics/SVG/1.1/DTD/svg11.dtd">
<svg xmlns:xlink="http://www.w3.org/1999/xlink" width="576pt" height="816.799654pt" viewBox="0 0 576 816.799654" xmlns="http://www.w3.org/2000/svg" version="1.1">
 <metadata>
  <rdf:RDF xmlns:dc="http://purl.org/dc/elements/1.1/" xmlns:cc="http://creativecommons.org/ns#" xmlns:rdf="http://www.w3.org/1999/02/22-rdf-syntax-ns#">
   <cc:Work>
    <dc:type rdf:resource="http://purl.org/dc/dcmitype/StillImage"/>
    <dc:date>2025-07-25T22:46:05.184466</dc:date>
    <dc:format>image/svg+xml</dc:format>
    <dc:creator>
     <cc:Agent>
      <dc:title>Matplotlib v3.10.3, https://matplotlib.org/</dc:title>
     </cc:Agent>
    </dc:creator>
   </cc:Work>
  </rdf:RDF>
 </metadata>
 <defs>
  <style type="text/css">*{stroke-linejoin: round; stroke-linecap: butt}</style>
 </defs>
 <g id="figure_1">
  <g id="patch_1">
   <path d="M 0 816.799654 
L 576 816.799654 
L 576 0 
L 0 0 
L 0 816.799654 
z
" style="fill: none; opacity: 0"/>
  </g>
  <g id="axes_1">
   <g id="QuadContourSet_1">
    <path d="M 3.272727 816.799654 
L 6.545455 816.799654 
L 9.818182 816.799654 
L 13.090909 816.799654 
L 16.363636 816.799654 
L 19.636364 816.799654 
L 22.909091 816.799654 
L 26.181818 816.799654 
L 29.454545 816.799654 
L 32.727273 816.799654 
L 36 816.799654 
L 39.272727 816.799654 
L 42.545455 816.799654 
L 45.818182 816.799654 
L 49.090909 816.799654 
L 52.363636 816.799654 
L 55.636364 816.799654 
L 58.909091 816.799654 
L 62.181818 816.799654 
L 65.454545 816.799654 
L 68.727273 816.799654 
L 72 816.799654 
L 75.272727 816.799654 
L 78.545455 816.799654 
L 81.818182 816.799654 
L 85.090909 816.799654 
L 88.363636 816.799654 
L 91.636364 816.799654 
L 94.909091 816.799654 
L 98.181818 816.799654 
L 101.454545 816.799654 
L 104.727273 816.799654 
L 108 816.799654 
L 111.272727 816.799654 
L 114.545455 816.799654 
L 117.818182 816.799654 
L 121.090909 816.799654 
L 124.363636 816.799654 
L 127.636364 816.799654 
L 130.909091 816.799654 
L 134.181818 816.799654 
L 137.454545 816.799654 
L 140.727273 816.799654 
L 144 816.799654 
L 147.272727 816.799654 
L 150.545455 816.799654 
L 153.818182 816.799654 
L 157.090909 816.799654 
L 160.363636 816.799654 
L 163.636364 816.799654 
L 166.909091 816.799654 
L 170.181818 816.799654 
L 173.454545 816.799654 
L 176.727273 816.799654 
L 180 816.799654 
L 183.272727 816.799654 
L 186.545455 816.799654 
L 189.818182 816.799654 
L 193.090909 816.799654 
L 196.363636 816.799654 
L 199.636364 816.799654 
L 202.909091 816.799654 
L 206.181818 816.799654 
L 209.454545 816.799654 
L 212.727273 816.799654 
L 216 816.799654 
L 219.272727 816.799654 
L 222.545455 816.799654 
L 225.818182 816.799654 
L 229.090909 816.799654 
L 232.363636 816.799654 
L 235.636364 816.799654 
L 238.909091 816.799654 
L 242.181818 816.799654 
L 245.454545 816.799654 
L 248.727273 816.799654 
L 252 816.799654 
L 255.272727 816.799654 
L 258.545455 816.799654 
L 261.818182 816.799654 
L 265.090909 816.799654 
L 268.363636 816.799654 
L 271.636364 816.799654 
L 274.909091 816.799654 
L 278.181818 816.799654 
L 281.454545 816.799654 
L 284.727273 816.799654 
L 288 816.799654 
L 291.272727 816.799654 
L 294.545455 816.799654 
L 297.818182 816.799654 
L 301.090909 816.799654 
L 304.363636 816.799654 
L 307.636364 816.799654 
L 310.909091 816.799654 
L 314.181818 816.799654 
L 317.454545 816.799654 
L 320.727273 816.799654 
L 324 816.799654 
L 327.272727 816.799654 
L 330.545455 816.799654 
L 333.818182 816.799654 
L 337.090909 816.799654 
L 340.363636 816.799654 
L 343.636364 816.799654 
L 346.909091 816.799654 
L 350.181818 816.799654 
L 353.454545 816.799654 
L 356.727273 816.799654 
L 360 816.799654 
L 363.272727 816.799654 
L 366.545455 816.799654 
L 369.818182 816.799654 
L 373.090909 816.799654 
L 376.363636 816.799654 
L 379.636364 816.799654 
L 382.909091 816.799654 
L 386.181818 816.799654 
L 389.454545 816.799654 
L 392.727273 816.799654 
L 396 816.799654 
L 399.272727 816.799654 
L 402.545455 816.799654 
L 405.818182 816.799654 
L 409.090909 816.799654 
L 412.363636 816.799654 
L 415.636364 816.799654 
L 418.909091 816.799654 
L 422.181818 816.799654 
L 425.454545 816.799654 
L 428.727273 816.799654 
L 432 816.799654 
L 435.272727 816.799654 
L 438.545455 816.799654 
L 441.818182 816.799654 
L 445.090909 816.799654 
L 448.363636 816.799654 
L 451.636364 816.799654 
L 454.909091 816.799654 
L 458.181818 816.799654 
L 461.454545 816.799654 
L 464.727273 816.799654 
L 468 816.799654 
L 471.272727 816.799654 
L 474.545455 816.799654 
L 477.818182 816.799654 
L 481.090909 816.799654 
L 484.363636 816.799654 
L 487.636364 816.799654 
L 490.909091 816.799654 
L 494.181818 816.799654 
L 497.454545 816.799654 
L 500.727273 816.799654 
L 504 816.799654 
L 507.272727 816.799654 
L 510.545455 816.799654 
L 513.818182 816.799654 
L 517.090909 816.799654 
L 520.363636 816.799654 
L 523.636364 816.799654 
L 526.909091 816.799654 
L 530.181818 816.799654 
L 533.454545 816.799654 
L 536.727273 816.799654 
L 540 816.799654 
L 543.272727 816.799654 
L 546.545455 816.799654 
L 549.818182 816.799654 
L 553.090909 816.799654 
L 556.363636 816.799654 
L 559.636364 816.799654 
L 562.909091 816.799654 
L 566.181818 816.799654 
L 569.454545 816.799654 
L 572.727273 816.799654 
L 576 816.799654 
L 576 813.519334 
L 576 810.239014 
L 576 806.958694 
L 576 803.678374 
L 576 800.398054 
L 576 797.117734 
L 576 793.837415 
L 576 790.557095 
L 576 787.276775 
L 576 783.996455 
L 576 780.716135 
L 576 777.435815 
L 576 774.155495 
L 576 770.875175 
L 576 767.594855 
L 576 764.314535 
L 576 761.034216 
L 576 757.753896 
L 576 754.473576 
L 576 751.193256 
L 576 747.912936 
L 576 744.632616 
L 576 741.352296 
L 576 738.071976 
L 576 734.791656 
L 576 731.511337 
L 576 728.231017 
L 576 724.950697 
L 576 721.670377 
L 576 718.390057 
L 576 715.109737 
L 576 711.829417 
L 576 708.549097 
L 576 705.268777 
L 576 701.988457 
L 576 698.708138 
L 576 695.427818 
L 576 692.147498 
L 576 688.867178 
L 576 685.586858 
L 576 682.306538 
L 576 679.026218 
L 576 675.745898 
L 576 672.465578 
L 576 669.185259 
L 576 665.904939 
L 576 662.624619 
L 576 659.344299 
L 576 656.063979 
L 576 652.783659 
L 576 649.503339 
L 576 646.223019 
L 576 642.942699 
L 576 639.662379 
L 576 636.38206 
L 576 633.10174 
L 576 629.82142 
L 576 626.5411 
L 576 623.26078 
L 576 619.98046 
L 576 616.70014 
L 576 613.41982 
L 576 610.1395 
L 576 606.859181 
L 576 603.578861 
L 576 600.298541 
L 576 597.018221 
L 576 593.737901 
L 576 590.457581 
L 576 587.177261 
L 576 583.896941 
L 576 580.616621 
L 576 577.336301 
L 576 574.055982 
L 576 570.775662 
L 576 567.495342 
L 576 564.215022 
L 576 560.934702 
L 576 557.654382 
L 576 554.374062 
L 576 551.093742 
L 576 547.813422 
L 576 544.533103 
L 576 541.252783 
L 576 537.972463 
L 576 534.692143 
L 576 531.411823 
L 576 528.131503 
L 576 524.851183 
L 576 521.570863 
L 576 518.290543 
L 576 515.010223 
L 576 511.729904 
L 576 508.449584 
L 576 505.169264 
L 576 501.888944 
L 576 498.608624 
L 576 495.328304 
L 576 492.047984 
L 576 488.767664 
L 576 485.487344 
L 576 482.207025 
L 576 478.926705 
L 576 475.646385 
L 576 472.366065 
L 576 469.085745 
L 576 465.805425 
L 576 462.525105 
L 576 459.244785 
L 576 455.964465 
L 576 452.684145 
L 576 449.403826 
L 576 446.123506 
L 576 442.843186 
L 576 439.562866 
L 576 436.282546 
L 576 433.002226 
L 576 429.721906 
L 576 426.441586 
L 576 423.161266 
L 576 419.880947 
L 576 416.600627 
L 576 413.320307 
L 576 410.039987 
L 576 406.759667 
L 576 403.479347 
L 576 400.199027 
L 576 396.918707 
L 576 393.638387 
L 576 390.358067 
L 576 387.077748 
L 576 383.797428 
L 576 380.517108 
L 576 377.236788 
L 576 373.956468 
L 576 370.676148 
L 576 367.395828 
L 576 364.115508 
L 576 360.835188 
L 576 357.554869 
L 576 354.274549 
L 576 350.994229 
L 576 347.713909 
L 576 344.433589 
L 576 341.153269 
L 576 337.872949 
L 576 334.592629 
L 576 331.312309 
L 576 328.031989 
L 576 324.75167 
L 576 321.47135 
L 576 318.19103 
L 576 314.91071 
L 576 311.63039 
L 576 308.35007 
L 576 305.06975 
L 576 301.78943 
L 576 298.50911 
L 576 295.228791 
L 576 291.948471 
L 576 288.668151 
L 576 285.387831 
L 576 282.107511 
L 576 278.827191 
L 576 275.546871 
L 576 272.266551 
L 576 268.986231 
L 576 265.705911 
L 576 262.425592 
L 576 259.145272 
L 576 255.864952 
L 576 252.584632 
L 576 249.304312 
L 576 246.023992 
L 576 242.743672 
L 576 239.463352 
L 576 236.183032 
L 576 232.902713 
L 576 229.622393 
L 576 226.342073 
L 576 223.061753 
L 576 219.781433 
L 576 216.501113 
L 576 213.220793 
L 576 209.940473 
L 576 206.660153 
L 576 203.379833 
L 576 200.099514 
L 576 196.819194 
L 576 193.538874 
L 576 190.258554 
L 576 186.978234 
L 576 183.697914 
L 576 180.417594 
L 576 177.137274 
L 576 173.856954 
L 576 170.576635 
L 576 167.296315 
L 576 164.015995 
L 576 160.735675 
L 576 157.455355 
L 576 154.175035 
L 576 150.894715 
L 576 147.614395 
L 576 144.334075 
L 576 141.053755 
L 576 137.773436 
L 576 134.493116 
L 576 131.212796 
L 576 127.932476 
L 576 124.652156 
L 576 121.371836 
L 576 118.091516 
L 576 114.811196 
L 576 111.530876 
L 576 108.250557 
L 576 104.970237 
L 576 101.689917 
L 576 98.409597 
L 576 95.129277 
L 576 91.848957 
L 576 88.568637 
L 576 85.288317 
L 576 82.007997 
L 576 78.727677 
L 576 75.447358 
L 576 72.167038 
L 576 68.886718 
L 576 65.606398 
L 576 62.326078 
L 576 59.045758 
L 576 55.765438 
L 576 52.485118 
L 576 49.204798 
L 576 45.924479 
L 576 42.644159 
L 576 39.363839 
L 576 36.083519 
L 576 32.803199 
L 576 29.522879 
L 576 26.242559 
L 576 22.962239 
L 576 19.681919 
L 576 16.401599 
L 576 13.12128 
L 576 9.84096 
L 576 6.56064 
L 576 3.28032 
L 576 -0 
L 572.727273 -0 
L 569.454545 -0 
L 566.181818 -0 
L 562.909091 -0 
L 559.636364 -0 
L 556.363636 -0 
L 553.090909 -0 
L 549.818182 -0 
L 546.545455 -0 
L 543.272727 -0 
L 540 -0 
L 536.727273 -0 
L 533.454545 -0 
L 530.181818 -0 
L 526.909091 -0 
L 523.636364 -0 
L 520.363636 -0 
L 517.090909 -0 
L 513.818182 -0 
L 510.545455 -0 
L 507.272727 -0 
L 504 -0 
L 500.727273 -0 
L 497.454545 -0 
L 494.181818 -0 
L 490.909091 -0 
L 487.636364 -0 
L 484.363636 -0 
L 481.090909 -0 
L 477.818182 -0 
L 474.545455 -0 
L 471.272727 -0 
L 468 -0 
L 464.727273 -0 
L 461.454545 -0 
L 458.181818 -0 
L 454.909091 -0 
L 451.636364 -0 
L 448.363636 -0 
L 445.090909 -0 
L 441.818182 -0 
L 438.545455 -0 
L 435.272727 -0 
L 432 -0 
L 428.727273 -0 
L 425.454545 -0 
L 422.181818 -0 
L 418.909091 -0 
L 415.636364 -0 
L 412.363636 -0 
L 409.090909 -0 
L 405.818182 -0 
L 402.545455 -0 
L 399.272727 -0 
L 396 -0 
L 392.727273 -0 
L 389.454545 -0 
L 386.181818 -0 
L 382.909091 -0 
L 379.636364 -0 
L 376.363636 -0 
L 373.090909 -0 
L 369.818182 -0 
L 366.545455 -0 
L 363.272727 -0 
L 360 -0 
L 356.727273 -0 
L 353.454545 -0 
L 350.181818 -0 
L 346.909091 -0 
L 343.636364 -0 
L 340.363636 -0 
L 337.090909 -0 
L 333.818182 -0 
L 330.545455 -0 
L 327.272727 -0 
L 324 -0 
L 320.727273 -0 
L 317.454545 -0 
L 314.181818 -0 
L 310.909091 -0 
L 307.636364 -0 
L 304.363636 -0 
L 301.090909 -0 
L 297.818182 -0 
L 294.545455 -0 
L 291.272727 -0 
L 288 -0 
L 284.727273 -0 
L 281.454545 -0 
L 278.181818 -0 
L 274.909091 -0 
L 271.636364 -0 
L 268.363636 -0 
L 265.090909 -0 
L 261.818182 -0 
L 258.545455 -0 
L 255.272727 -0 
L 252 -0 
L 248.727273 -0 
L 245.454545 -0 
L 242.181818 -0 
L 238.909091 -0 
L 235.636364 -0 
L 232.363636 -0 
L 229.090909 -0 
L 225.818182 -0 
L 222.545455 -0 
L 219.272727 -0 
L 216 -0 
L 212.727273 -0 
L 209.454545 -0 
L 206.181818 -0 
L 202.909091 -0 
L 199.636364 -0 
L 196.363636 -0 
L 193.090909 -0 
L 189.818182 -0 
L 186.545455 -0 
L 183.272727 -0 
L 180 -0 
L 176.727273 -0 
L 173.454545 -0 
L 170.181818 -0 
L 166.909091 -0 
L 163.636364 -0 
L 160.363636 -0 
L 157.090909 -0 
L 153.818182 -0 
L 150.545455 -0 
L 147.272727 -0 
L 144 -0 
L 140.727273 -0 
L 137.454545 -0 
L 134.181818 -0 
L 130.909091 -0 
L 127.636364 -0 
L 124.363636 -0 
L 121.090909 -0 
L 117.818182 -0 
L 114.545455 -0 
L 111.272727 -0 
L 108 -0 
L 104.727273 -0 
L 101.454545 -0 
L 98.181818 -0 
L 94.909091 -0 
L 91.636364 -0 
L 88.363636 -0 
L 85.090909 -0 
L 81.818182 -0 
L 78.545455 -0 
L 75.272727 -0 
L 72 -0 
L 68.727273 -0 
L 65.454545 -0 
L 62.181818 -0 
L 58.909091 -0 
L 55.636364 -0 
L 52.363636 -0 
L 49.090909 -0 
L 45.818182 -0 
L 42.545455 -0 
L 39.272727 -0 
L 36 -0 
L 32.727273 -0 
L 29.454545 -0 
L 26.181818 -0 
L 22.909091 -0 
L 19.636364 -0 
L 16.363636 -0 
L 13.090909 -0 
L 9.818182 -0 
L 6.545455 -0 
L 3.272727 -0 
L 0 -0 
L 0 3.28032 
L 0 6.56064 
L 0 9.84096 
L 0 13.12128 
L 0 16.401599 
L 0 19.681919 
L 0 22.962239 
L 0 26.242559 
L 0 29.522879 
L 0 32.803199 
L 0 36.083519 
L 0 39.363839 
L 0 42.644159 
L 0 45.924479 
L 0 49.204798 
L 0 52.485118 
L 0 55.765438 
L 0 59.045758 
L 0 62.326078 
L 0 65.606398 
L 0 68.886718 
L 0 72.167038 
L 0 75.447358 
L 0 78.727677 
L 0 82.007997 
L 0 85.288317 
L 0 88.568637 
L 0 91.848957 
L 0 95.129277 
L 0 98.409597 
L 0 101.689917 
L 0 104.970237 
L 0 108.250557 
L 0 111.530876 
L 0 114.811196 
L 0 118.091516 
L 0 121.371836 
L 0 124.652156 
L 0 127.932476 
L 0 131.212796 
L 0 134.493116 
L 0 137.773436 
L 0 141.053755 
L 0 144.334075 
L 0 147.614395 
L 0 150.894715 
L 0 154.175035 
L 0 157.455355 
L 0 160.735675 
L 0 164.015995 
L 0 167.296315 
L 0 170.576635 
L 0 173.856954 
L 0 177.137274 
L 0 180.417594 
L 0 183.697914 
L 0 186.978234 
L 0 190.258554 
L 0 193.538874 
L 0 196.819194 
L 0 200.099514 
L 0 203.379833 
L 0 206.660153 
L 0 209.940473 
L 0 213.220793 
L 0 216.501113 
L 0 219.781433 
L 0 223.061753 
L 0 226.342073 
L 0 229.622393 
L 0 232.902713 
L 0 236.183032 
L 0 239.463352 
L 0 242.743672 
L 0 246.023992 
L 0 249.304312 
L 0 252.584632 
L 0 255.864952 
L 0 259.145272 
L 0 262.425592 
L 0 265.705911 
L 0 268.986231 
L 0 272.266551 
L 0 275.546871 
L 0 278.827191 
L 0 282.107511 
L 0 285.387831 
L 0 288.668151 
L 0 291.948471 
L 0 295.228791 
L 0 298.50911 
L 0 301.78943 
L 0 305.06975 
L 0 308.35007 
L 0 311.63039 
L 0 314.91071 
L 0 318.19103 
L 0 321.47135 
L 0 324.75167 
L 0 328.031989 
L 0 331.312309 
L 0 334.592629 
L 0 337.872949 
L 0 341.153269 
L 0 344.433589 
L 0 347.713909 
L 0 350.994229 
L 0 354.274549 
L 0 357.554869 
L 0 360.835188 
L 0 364.115508 
L 0 367.395828 
L 0 370.676148 
L 0 373.956468 
L 0 377.236788 
L 0 380.517108 
L 0 383.797428 
L 0 387.077748 
L 0 390.358067 
L 0 393.638387 
L 0 396.918707 
L 0 400.199027 
L 0 403.479347 
L 0 406.759667 
L 0 410.039987 
L 0 413.320307 
L 0 416.600627 
L 0 419.880947 
L 0 423.161266 
L 0 426.441586 
L 0 429.721906 
L 0 433.002226 
L 0 436.282546 
L 0 439.562866 
L 0 442.843186 
L 0 446.123506 
L 0 449.403826 
L 0 452.684145 
L 0 455.964465 
L 0 459.244785 
L 0 462.525105 
L 0 465.805425 
L 0 469.085745 
L 0 472.366065 
L 0 475.646385 
L 0 478.926705 
L 0 482.207025 
L 0 485.487344 
L 0 488.767664 
L 0 492.047984 
L 0 495.328304 
L 0 498.608624 
L 0 501.888944 
L 0 505.169264 
L 0 508.449584 
L 0 511.729904 
L 0 515.010223 
L 0 518.290543 
L 0 521.570863 
L 0 524.851183 
L 0 528.131503 
L 0 531.411823 
L 0 534.692143 
L 0 537.972463 
L 0 541.252783 
L 0 544.533103 
L 0 547.813422 
L 0 551.093742 
L 0 554.374062 
L 0 557.654382 
L 0 560.934702 
L 0 564.215022 
L 0 567.495342 
L 0 570.775662 
L 0 574.055982 
L 0 577.336301 
L 0 580.616621 
L 0 583.896941 
L 0 587.177261 
L 0 590.457581 
L 0 593.737901 
L 0 597.018221 
L 0 600.298541 
L 0 603.578861 
L 0 606.859181 
L 0 610.1395 
L 0 613.41982 
L 0 616.70014 
L 0 619.98046 
L 0 623.26078 
L 0 626.5411 
L 0 629.82142 
L 0 633.10174 
L 0 636.38206 
L 0 639.662379 
L 0 642.942699 
L 0 646.223019 
L 0 649.503339 
L 0 652.783659 
L 0 656.063979 
L 0 659.344299 
L 0 662.624619 
L 0 665.904939 
L 0 669.185259 
L 0 672.465578 
L 0 675.745898 
L 0 679.026218 
L 0 682.306538 
L 0 685.586858 
L 0 688.867178 
L 0 692.147498 
L 0 695.427818 
L 0 698.708138 
L 0 701.988457 
L 0 705.268777 
L 0 708.549097 
L 0 711.829417 
L 0 715.109737 
L 0 718.390057 
L 0 721.670377 
L 0 724.950697 
L 0 728.231017 
L 0 731.511337 
L 0 734.791656 
L 0 738.071976 
L 0 741.352296 
L 0 744.632616 
L 0 747.912936 
L 0 751.193256 
L 0 754.473576 
L 0 757.753896 
L 0 761.034216 
L 0 764.314535 
L 0 767.594855 
L 0 770.875175 
L 0 774.155495 
L 0 777.435815 
L 0 780.716135 
L 0 783.996455 
L 0 787.276775 
L 0 790.557095 
L 0 793.837415 
L 0 797.117734 
L 0 800.398054 
L 0 803.678374 
L 0 806.958694 
L 0 810.239014 
L 0 813.519334 
L 0 816.799654 
z
" clip-path="url(#pf8f3317a72)" style="fill: #f5f9fe; fill-opacity: 0.9"/>
    <path clip-path="url(#pf8f3317a72)" style="fill: #eff6fc; fill-opacity: 0.9"/>
    <path clip-path="url(#pf8f3317a72)" style="fill: #eaf3fb; fill-opacity: 0.9"/>
    <path clip-path="url(#pf8f3317a72)" style="fill: #e5eff9; fill-opacity: 0.9"/>
    <path clip-path="url(#pf8f3317a72)" style="fill: #dfecf7; fill-opacity: 0.9"/>
    <path clip-path="url(#pf8f3317a72)" style="fill: #dae8f6; fill-opacity: 0.9"/>
    <path clip-path="url(#pf8f3317a72)" style="fill: #d6e5f4; fill-opacity: 0.9"/>
    <path clip-path="url(#pf8f3317a72)" style="fill: #d0e2f2; fill-opacity: 0.9"/>
    <path clip-path="url(#pf8f3317a72)" style="fill: #cbdef1; fill-opacity: 0.9"/>
    <path clip-path="url(#pf8f3317a72)" style="fill: #c6dbef; fill-opacity: 0.9"/>
    <path clip-path="url(#pf8f3317a72)" style="fill: #bed8ec; fill-opacity: 0.9"/>
    <path clip-path="url(#pf8f3317a72)" style="fill: #b5d4e9; fill-opacity: 0.9"/>
    <path clip-path="url(#pf8f3317a72)" style="fill: #add0e6; fill-opacity: 0.9"/>
    <path clip-path="url(#pf8f3317a72)" style="fill: #a5cde3; fill-opacity: 0.9"/>
    <path clip-path="url(#pf8f3317a72)" style="fill: #9cc9e1; fill-opacity: 0.9"/>
    <path clip-path="url(#pf8f3317a72)" style="fill: #91c3de; fill-opacity: 0.9"/>
    <path clip-path="url(#pf8f3317a72)" style="fill: #85bcdc; fill-opacity: 0.9"/>
    <path clip-path="url(#pf8f3317a72)" style="fill: #7cb7da; fill-opacity: 0.9"/>
    <path clip-path="url(#pf8f3317a72)" style="fill: #71b1d7; fill-opacity: 0.9"/>
    <path clip-path="url(#pf8f3317a72)" style="fill: #66abd4; fill-opacity: 0.9"/>
    <path clip-path="url(#pf8f3317a72)" style="fill: #5da5d1; fill-opacity: 0.9"/>
    <path clip-path="url(#pf8f3317a72)" style="fill: #56a0ce; fill-opacity: 0.9"/>
    <path clip-path="url(#pf8f3317a72)" style="fill: #4d99ca; fill-opacity: 0.9"/>
    <path clip-path="url(#pf8f3317a72)" style="fill: #4493c7; fill-opacity: 0.9"/>
    <path clip-path="url(#pf8f3317a72)" style="fill: #3c8cc3; fill-opacity: 0.9"/>
    <path clip-path="url(#pf8f3317a72)" style="fill: #3686c0; fill-opacity: 0.9"/>
    <path clip-path="url(#pf8f3317a72)" style="fill: #2f7fbc; fill-opacity: 0.9"/>
    <path clip-path="url(#pf8f3317a72)" style="fill: #2777b8; fill-opacity: 0.9"/>
    <path clip-path="url(#pf8f3317a72)" style="fill: #2070b4; fill-opacity: 0.9"/>
    <path clip-path="url(#pf8f3317a72)" style="fill: #1c6ab0; fill-opacity: 0.9"/>
    <path clip-path="url(#pf8f3317a72)" style="fill: #1663aa; fill-opacity: 0.9"/>
    <path clip-path="url(#pf8f3317a72)" style="fill: #115ca5; fill-opacity: 0.9"/>
    <path clip-path="url(#pf8f3317a72)" style="fill: #0c56a0; fill-opacity: 0.9"/>
    <path clip-path="url(#pf8f3317a72)" style="fill: #084f99; fill-opacity: 0.9"/>
    <path clip-path="url(#pf8f3317a72)" style="fill: #08488e; fill-opacity: 0.9"/>
    <path clip-path="url(#pf8f3317a72)" style="fill: #084184; fill-opacity: 0.9"/>
    <path clip-path="url(#pf8f3317a72)" style="fill: #083a7a; fill-opacity: 0.9"/>
    <path clip-path="url(#pf8f3317a72)" style="fill: #083370; fill-opacity: 0.9"/>
    <path clip-path="url(#pf8f3317a72)" style="fill: #08306b; fill-opacity: 0.9"/>
   </g>
   <g id="QuadContourSet_2">
    <path clip-path="url(#pf8f3317a72)" style="fill: none"/>
    <path clip-path="url(#pf8f3317a72)" style="fill: none"/>
    <path clip-path="url(#pf8f3317a72)" style="fill: none"/>
    <path clip-path="url(#pf8f3317a72)" style="fill: none"/>
    <path clip-path="url(#pf8f3317a72)" style="fill: none"/>
    <path clip-path="url(#pf8f3317a72)" style="fill: none"/>
    <path clip-path="url(#pf8f3317a72)" style="fill: none"/>
    <path clip-path="url(#pf8f3317a72)" style="fill: none"/>
    <path clip-path="url(#pf8f3317a72)" style="fill: none"/>
    <path clip-path="url(#pf8f3317a72)" style="fill: none"/>
    <path clip-path="url(#pf8f3317a72)" style="fill: none"/>
    <path clip-path="url(#pf8f3317a72)" style="fill: none"/>
    <path clip-path="url(#pf8f3317a72)" style="fill: none"/>
    <path clip-path="url(#pf8f3317a72)" style="fill: none"/>
    <path clip-path="url(#pf8f3317a72)" style="fill: none"/>
    <path clip-path="url(#pf8f3317a72)" style="fill: none"/>
    <path clip-path="url(#pf8f3317a72)" style="fill: none"/>
    <path clip-path="url(#pf8f3317a72)" style="fill: none"/>
    <path clip-path="url(#pf8f3317a72)" style="fill: none"/>
    <path clip-path="url(#pf8f3317a72)" style="fill: none"/>
    <path clip-path="url(#pf8f3317a72)" style="fill: none"/>
    <path clip-path="url(#pf8f3317a72)" style="fill: none"/>
    <path clip-path="url(#pf8f3317a72)" style="fill: none"/>
    <path clip-path="url(#pf8f3317a72)" style="fill: none"/>
    <path clip-path="url(#pf8f3317a72)" style="fill: none"/>
    <path clip-path="url(#pf8f3317a72)" style="fill: none"/>
    <path clip-path="url(#pf8f3317a72)" style="fill: none"/>
    <path clip-path="url(#pf8f3317a72)" style="fill: none"/>
    <path clip-path="url(#pf8f3317a72)" style="fill: none"/>
    <path clip-path="url(#pf8f3317a72)" style="fill: none"/>
    <path clip-path="url(#pf8f3317a72)" style="fill: none"/>
    <path clip-path="url(#pf8f3317a72)" style="fill: none"/>
    <path clip-path="url(#pf8f3317a72)" style="fill: none"/>
    <path clip-path="url(#pf8f3317a72)" style="fill: none"/>
    <path clip-path="url(#pf8f3317a72)" style="fill: none"/>
    <path clip-path="url(#pf8f3317a72)" style="fill: none"/>
    <path clip-path="url(#pf8f3317a72)" style="fill: none"/>
    <path clip-path="url(#pf8f3317a72)" style="fill: none"/>
    <path clip-path="url(#pf8f3317a72)" style="fill: none"/>
   </g>
  </g>
 </g>
 <defs>
  <clipPath id="pf8f3317a72">
   <rect x="0" y="0" width="576" height="816.799654"/>
  </clipPath>
 </defs>
</svg>
