<?xml version="1.0" encoding="utf-8" standalone="no"?>
<!DOCTYPE svg PUBLIC "-//W3C//DTD SVG 1.1//EN"
  "http://www.w3.org/Graphics/SVG/1.1/DTD/svg11.dtd">
<svg xmlns:xlink="http://www.w3.org/1999/xlink" width="576pt" height="820.98809pt" viewBox="0 0 576 820.98809" xmlns="http://www.w3.org/2000/svg" version="1.1">
 <metadata>
  <rdf:RDF xmlns:dc="http://purl.org/dc/elements/1.1/" xmlns:cc="http://creativecommons.org/ns#" xmlns:rdf="http://www.w3.org/1999/02/22-rdf-syntax-ns#">
   <cc:Work>
    <dc:type rdf:resource="http://purl.org/dc/dcmitype/StillImage"/>
    <dc:date>2025-07-25T22:45:21.595085</dc:date>
    <dc:format>image/svg+xml</dc:format>
    <dc:creator>
     <cc:Agent>
      <dc:title>Matplotlib v3.10.3, https://matplotlib.org/</dc:title>
     </cc:Agent>
    </dc:creator>
   </cc:Work>
  </rdf:RDF>
 </metadata>
 <defs>
  <style type="text/css">*{stroke-linejoin: round; stroke-linecap: butt}</style>
 </defs>
 <g id="figure_1">
  <g id="patch_1">
   <path d="M 0 820.98809 
L 576 820.98809 
L 576 0 
L 0 0 
L 0 820.98809 
z
" style="fill: none; opacity: 0"/>
  </g>
  <g id="axes_1">
   <g id="QuadContourSet_1">
    <path d="M 92.16 818.618263 
L 95.451429 820.726303 
L 98.742857 820.052141 
L 99.687896 820.98809 
L 100.558938 820.98809 
L 98.742857 819.189477 
L 95.451429 819.597827 
L 92.16 817.778368 
L 92.097428 817.690949 
L 88.868571 815.181469 
L 87.875776 814.393808 
L 85.577143 812.143755 
L 82.285714 811.756915 
L 81.247244 811.096667 
L 78.994286 808.87997 
L 75.702857 808.701515 
L 74.56502 807.799526 
L 72.411429 805.683215 
L 69.12 805.864489 
L 67.106348 804.502385 
L 65.828571 803.258771 
L 62.537143 803.967433 
L 59.245714 801.37636 
L 59.077053 801.205245 
L 55.954286 798.453054 
L 54.966425 797.908104 
L 52.662857 795.618747 
L 49.371429 795.312576 
L 48.364077 794.610963 
L 46.08 792.34113 
L 42.788571 792.290346 
L 41.517015 791.313822 
L 39.497143 789.309912 
L 36.205714 789.596879 
L 33.68022 788.016681 
L 32.914286 787.258321 
L 29.622857 786.776356 
L 28.550487 784.71954 
L 26.331429 782.500726 
L 23.04 781.992397 
L 22.069937 781.422399 
L 19.748571 779.098866 
L 16.457143 778.866946 
L 15.47728 778.125258 
L 13.165714 775.811071 
L 9.874286 775.887312 
L 8.42383 774.828117 
L 6.582857 772.985021 
L 3.291429 773.370658 
L 0 771.605535 
L 0 772.276888 
L 3.291429 774.277497 
L 6.582857 773.702122 
L 7.707555 774.828117 
L 9.874286 776.410371 
L 13.165714 776.296384 
L 14.992517 778.125258 
L 16.457143 779.233878 
L 19.748571 779.580104 
L 21.589148 781.422399 
L 23.04 782.274904 
L 26.331429 783.034323 
L 28.016831 784.71954 
L 29.622857 787.799912 
L 30.767817 788.016681 
L 32.914286 790.037804 
L 36.205714 790.391678 
L 39.497143 789.951292 
L 40.870526 791.313822 
L 42.788571 792.786834 
L 46.08 792.85567 
L 47.846308 794.610963 
L 49.371429 795.673198 
L 52.662857 796.128953 
L 54.453052 797.908104 
L 55.954286 798.736254 
L 58.75572 801.205245 
L 59.245714 801.702369 
L 62.310729 804.502385 
L 62.537143 804.769494 
L 65.131715 804.502385 
L 65.828571 804.321323 
L 66.014608 804.502385 
L 69.12 806.602979 
L 72.411429 806.303914 
L 73.933387 807.799526 
L 75.702857 809.202225 
L 78.994286 809.461043 
L 80.656665 811.096667 
L 82.285714 812.132398 
L 85.577143 812.720228 
L 87.286857 814.393808 
L 88.868571 815.648704 
L 91.496254 817.690949 
z
" clip-path="url(#p8c11f8fbd8)" style="fill: #f5f9fe; fill-opacity: 0.9"/>
    <path d="M 92.16 819.458158 
L 94.475261 820.98809 
L 95.451429 820.98809 
L 98.415045 820.98809 
L 98.742857 820.914805 
L 98.816854 820.98809 
L 99.687896 820.98809 
L 98.742857 820.052141 
L 95.451429 820.726303 
L 92.16 818.618263 
L 91.496254 817.690949 
L 88.868571 815.648704 
L 87.286857 814.393808 
L 85.577143 812.720228 
L 82.285714 812.132398 
L 80.656665 811.096667 
L 78.994286 809.461043 
L 75.702857 809.202225 
L 73.933387 807.799526 
L 72.411429 806.303914 
L 69.12 806.602979 
L 66.014608 804.502385 
L 65.828571 804.321323 
L 65.131715 804.502385 
L 62.537143 804.769494 
L 62.310729 804.502385 
L 59.245714 801.702369 
L 58.75572 801.205245 
L 55.954286 798.736254 
L 54.453052 797.908104 
L 52.662857 796.128953 
L 49.371429 795.673198 
L 47.846308 794.610963 
L 46.08 792.85567 
L 42.788571 792.786834 
L 40.870526 791.313822 
L 39.497143 789.951292 
L 36.205714 790.391678 
L 32.914286 790.037804 
L 30.767817 788.016681 
L 29.622857 787.799912 
L 28.016831 784.71954 
L 26.331429 783.034323 
L 23.04 782.274904 
L 21.589148 781.422399 
L 19.748571 779.580104 
L 16.457143 779.233878 
L 14.992517 778.125258 
L 13.165714 776.296384 
L 9.874286 776.410371 
L 7.707555 774.828117 
L 6.582857 773.702122 
L 3.291429 774.277497 
L 0 772.276888 
L 0 772.94824 
L 2.886499 774.828117 
L 3.291429 776.384568 
L 4.633999 774.828117 
L 6.582857 774.419223 
L 6.99128 774.828117 
L 9.874286 776.93343 
L 13.165714 776.781696 
L 14.507754 778.125258 
L 16.457143 779.60081 
L 19.748571 780.061342 
L 21.108359 781.422399 
L 23.04 782.55741 
L 26.331429 783.56792 
L 27.483176 784.71954 
L 29.343975 788.016681 
L 29.622857 788.299216 
L 32.645014 791.313822 
L 32.914286 791.630248 
L 35.625919 791.313822 
L 36.205714 791.186477 
L 39.497143 790.592672 
L 40.224037 791.313822 
L 42.788571 793.283321 
L 46.08 793.370211 
L 47.328538 794.610963 
L 49.371429 796.033821 
L 52.662857 796.639159 
L 53.939679 797.908104 
L 55.954286 799.019455 
L 58.434387 801.205245 
L 59.245714 802.028378 
L 61.953867 804.502385 
L 62.537143 805.1905 
L 65.714733 807.799526 
L 65.828571 807.948111 
L 66.696155 807.799526 
L 69.12 807.341469 
L 72.411429 806.924614 
L 73.301753 807.799526 
L 75.702857 809.702935 
L 78.994286 810.042116 
L 80.066087 811.096667 
L 82.285714 812.507881 
L 85.577143 813.296701 
L 86.697937 814.393808 
L 88.868571 816.115939 
L 90.89508 817.690949 
z
" clip-path="url(#p8c11f8fbd8)" style="fill: #eff6fc; fill-opacity: 0.9"/>
    <path d="M 92.16 820.298054 
L 93.204239 820.98809 
L 94.475261 820.98809 
L 92.16 819.458158 
L 90.89508 817.690949 
L 88.868571 816.115939 
L 86.697937 814.393808 
L 85.577143 813.296701 
L 82.285714 812.507881 
L 80.066087 811.096667 
L 78.994286 810.042116 
L 75.702857 809.702935 
L 73.301753 807.799526 
L 72.411429 806.924614 
L 69.12 807.341469 
L 66.696155 807.799526 
L 65.828571 807.948111 
L 65.714733 807.799526 
L 62.537143 805.1905 
L 61.953867 804.502385 
L 59.245714 802.028378 
L 58.434387 801.205245 
L 55.954286 799.019455 
L 53.939679 797.908104 
L 52.662857 796.639159 
L 49.371429 796.033821 
L 47.328538 794.610963 
L 46.08 793.370211 
L 42.788571 793.283321 
L 40.224037 791.313822 
L 39.497143 790.592672 
L 36.205714 791.186477 
L 35.625919 791.313822 
L 32.914286 791.630248 
L 32.645014 791.313822 
L 29.622857 788.299216 
L 29.343975 788.016681 
L 27.483176 784.71954 
L 26.331429 783.56792 
L 23.04 782.55741 
L 21.108359 781.422399 
L 19.748571 780.061342 
L 16.457143 779.60081 
L 14.507754 778.125258 
L 13.165714 776.781696 
L 9.874286 776.93343 
L 6.99128 774.828117 
L 6.582857 774.419223 
L 4.633999 774.828117 
L 3.291429 776.384568 
L 2.886499 774.828117 
L 0 772.94824 
L 0 773.619593 
L 1.855655 774.828117 
L 3.089242 778.125258 
L 3.291429 778.329281 
L 5.37067 778.125258 
L 6.582857 776.700915 
L 9.874286 777.456489 
L 13.165714 777.267009 
L 14.022991 778.125258 
L 16.457143 779.967742 
L 19.748571 780.54258 
L 20.62757 781.422399 
L 23.04 782.839916 
L 26.331429 784.101517 
L 26.94952 784.71954 
L 28.990164 788.016681 
L 29.622857 788.657663 
L 32.285669 791.313822 
L 32.914286 792.052519 
L 36.104681 794.610963 
L 36.205714 794.802423 
L 36.897708 794.610963 
L 39.072558 791.313822 
L 39.497143 791.234052 
L 39.577548 791.313822 
L 42.788571 793.779809 
L 46.08 793.884751 
L 46.810769 794.610963 
L 49.371429 796.394444 
L 52.662857 797.149365 
L 53.426305 797.908104 
L 55.954286 799.302656 
L 58.113054 801.205245 
L 59.245714 802.354387 
L 61.597004 804.502385 
L 62.537143 805.611505 
L 65.201982 807.799526 
L 65.828571 808.617368 
L 69.12 809.994236 
L 70.703538 807.799526 
L 72.411429 807.545314 
L 72.670119 807.799526 
L 75.702857 810.203645 
L 78.994286 810.62319 
L 79.475508 811.096667 
L 82.285714 812.883365 
L 85.577143 813.873174 
L 86.109018 814.393808 
L 88.868571 816.583174 
L 90.293905 817.690949 
z
M 98.742857 820.98809 
L 98.816854 820.98809 
L 98.742857 820.914805 
L 98.415045 820.98809 
z
" clip-path="url(#p8c11f8fbd8)" style="fill: #eaf3fb; fill-opacity: 0.9"/>
    <path d="M 92.16 820.98809 
L 93.204239 820.98809 
L 92.16 820.298054 
L 90.293905 817.690949 
L 88.868571 816.583174 
L 86.109018 814.393808 
L 85.577143 813.873174 
L 82.285714 812.883365 
L 79.475508 811.096667 
L 78.994286 810.62319 
L 75.702857 810.203645 
L 72.670119 807.799526 
L 72.411429 807.545314 
L 70.703538 807.799526 
L 69.12 809.994236 
L 65.828571 808.617368 
L 65.201982 807.799526 
L 62.537143 805.611505 
L 61.597004 804.502385 
L 59.245714 802.354387 
L 58.113054 801.205245 
L 55.954286 799.302656 
L 53.426305 797.908104 
L 52.662857 797.149365 
L 49.371429 796.394444 
L 46.810769 794.610963 
L 46.08 793.884751 
L 42.788571 793.779809 
L 39.577548 791.313822 
L 39.497143 791.234052 
L 39.072558 791.313822 
L 36.897708 794.610963 
L 36.205714 794.802423 
L 36.104681 794.610963 
L 32.914286 792.052519 
L 32.285669 791.313822 
L 29.622857 788.657663 
L 28.990164 788.016681 
L 26.94952 784.71954 
L 26.331429 784.101517 
L 23.04 782.839916 
L 20.62757 781.422399 
L 19.748571 780.54258 
L 16.457143 779.967742 
L 14.022991 778.125258 
L 13.165714 777.267009 
L 9.874286 777.456489 
L 6.582857 776.700915 
L 5.37067 778.125258 
L 3.291429 778.329281 
L 3.089242 778.125258 
L 1.855655 774.828117 
L 0 773.619593 
L 0 774.290946 
L 0.824812 774.828117 
L 2.728638 778.125258 
L 3.291429 778.69316 
L 6.582857 780.820573 
L 8.910845 778.125258 
L 9.874286 777.979548 
L 13.165714 777.752322 
L 13.538228 778.125258 
L 16.457143 780.334674 
L 19.748571 781.023817 
L 20.146781 781.422399 
L 23.04 783.122422 
L 26.331429 784.635114 
L 26.415864 784.71954 
L 28.636352 788.016681 
L 29.622857 789.01611 
L 31.926324 791.313822 
L 32.914286 792.474791 
L 35.578105 794.610963 
L 36.205714 795.80029 
L 39.497143 796.035583 
L 40.461293 794.610963 
L 42.788571 794.276296 
L 46.08 794.399291 
L 46.293 794.610963 
L 49.371429 796.755066 
L 52.662857 797.659571 
L 52.912932 797.908104 
L 55.954286 799.585857 
L 57.791721 801.205245 
L 59.245714 802.680396 
L 61.240141 804.502385 
L 62.537143 806.03251 
L 64.68923 807.799526 
L 65.828571 809.286624 
L 68.361964 811.096667 
L 69.12 812.416762 
L 72.0881 811.096667 
L 72.411429 810.668341 
L 75.702857 810.704355 
L 78.365115 811.096667 
L 78.994286 811.353885 
L 82.285714 813.258848 
L 85.474942 814.393808 
L 85.577143 814.464883 
L 88.868571 817.050409 
L 89.692731 817.690949 
L 92.032929 820.98809 
z
" clip-path="url(#p8c11f8fbd8)" style="fill: #e5eff9; fill-opacity: 0.9"/>
    <path d="M 89.692731 817.690949 
L 88.868571 817.050409 
L 85.577143 814.464883 
L 85.474942 814.393808 
L 82.285714 813.258848 
L 78.994286 811.353885 
L 78.365115 811.096667 
L 75.702857 810.704355 
L 72.411429 810.668341 
L 72.0881 811.096667 
L 69.12 812.416762 
L 68.361964 811.096667 
L 65.828571 809.286624 
L 64.68923 807.799526 
L 62.537143 806.03251 
L 61.240141 804.502385 
L 59.245714 802.680396 
L 57.791721 801.205245 
L 55.954286 799.585857 
L 52.912932 797.908104 
L 52.662857 797.659571 
L 49.371429 796.755066 
L 46.293 794.610963 
L 46.08 794.399291 
L 42.788571 794.276296 
L 40.461293 794.610963 
L 39.497143 796.035583 
L 36.205714 795.80029 
L 35.578105 794.610963 
L 32.914286 792.474791 
L 31.926324 791.313822 
L 29.622857 789.01611 
L 28.636352 788.016681 
L 26.415864 784.71954 
L 26.331429 784.635114 
L 23.04 783.122422 
L 20.146781 781.422399 
L 19.748571 781.023817 
L 16.457143 780.334674 
L 13.538228 778.125258 
L 13.165714 777.752322 
L 9.874286 777.979548 
L 8.910845 778.125258 
L 6.582857 780.820573 
L 3.291429 778.69316 
L 2.728638 778.125258 
L 0.824812 774.828117 
L 0 774.290946 
L 0 774.828117 
L 0 774.925504 
L 2.368034 778.125258 
L 3.291429 779.05704 
L 6.202354 781.422399 
L 6.582857 781.83375 
L 9.702234 781.422399 
L 9.874286 781.221273 
L 13.165714 778.749419 
L 16.457143 780.701606 
L 19.483922 781.422399 
L 19.748571 781.569794 
L 23.04 783.404929 
L 25.82723 784.71954 
L 26.331429 785.156186 
L 28.28254 788.016681 
L 29.622857 789.374557 
L 31.566979 791.313822 
L 32.914286 792.897063 
L 35.05153 794.610963 
L 36.205714 796.798157 
L 38.303456 797.908104 
L 39.497143 800.911204 
L 41.775928 797.908104 
L 42.788571 796.380796 
L 46.08 795.678294 
L 49.371429 797.115689 
L 52.039994 797.908104 
L 52.662857 798.305067 
L 55.954286 799.869057 
L 57.470388 801.205245 
L 59.245714 803.006404 
L 60.883278 804.502385 
L 62.537143 806.453515 
L 64.176479 807.799526 
L 65.828571 809.955881 
L 67.425251 811.096667 
L 69.12 814.048015 
L 70.266675 814.393808 
L 72.411429 816.903038 
L 73.842992 814.393808 
L 75.702857 812.072322 
L 78.994286 812.742993 
L 82.285714 813.634331 
L 84.419838 814.393808 
L 85.577143 815.198643 
L 88.868571 817.517644 
L 89.091557 817.690949 
L 91.320748 820.98809 
L 92.032929 820.98809 
z
" clip-path="url(#p8c11f8fbd8)" style="fill: #dfecf7; fill-opacity: 0.9"/>
    <path d="M 72.411429 818.43138 
L 75.642799 817.690949 
L 75.702857 817.583894 
L 78.073274 814.393808 
L 78.994286 814.132101 
L 82.285714 814.009814 
L 83.364734 814.393808 
L 85.577143 815.932403 
L 88.184241 817.690949 
L 88.868571 818.366076 
L 90.608567 820.98809 
L 91.320748 820.98809 
L 89.091557 817.690949 
L 88.868571 817.517644 
L 85.577143 815.198643 
L 84.419838 814.393808 
L 82.285714 813.634331 
L 78.994286 812.742993 
L 75.702857 812.072322 
L 73.842992 814.393808 
L 72.411429 816.903038 
L 70.266675 814.393808 
L 69.12 814.048015 
L 67.425251 811.096667 
L 65.828571 809.955881 
L 64.176479 807.799526 
L 62.537143 806.453515 
L 60.883278 804.502385 
L 59.245714 803.006404 
L 57.470388 801.205245 
L 55.954286 799.869057 
L 52.662857 798.305067 
L 52.039994 797.908104 
L 49.371429 797.115689 
L 46.08 795.678294 
L 42.788571 796.380796 
L 41.775928 797.908104 
L 39.497143 800.911204 
L 38.303456 797.908104 
L 36.205714 796.798157 
L 35.05153 794.610963 
L 32.914286 792.897063 
L 31.566979 791.313822 
L 29.622857 789.374557 
L 28.28254 788.016681 
L 26.331429 785.156186 
L 25.82723 784.71954 
L 23.04 783.404929 
L 19.748571 781.569794 
L 19.483922 781.422399 
L 16.457143 780.701606 
L 13.165714 778.749419 
L 9.874286 781.221273 
L 9.702234 781.422399 
L 6.582857 781.83375 
L 6.202354 781.422399 
L 3.291429 779.05704 
L 2.368034 778.125258 
L 0 774.925504 
L 0 775.412762 
L 2.007431 778.125258 
L 3.291429 779.420919 
L 5.754547 781.422399 
L 6.582857 782.317862 
L 9.787237 784.71954 
L 9.874286 784.927353 
L 10.366266 784.71954 
L 13.165714 781.457977 
L 13.194019 781.422399 
L 16.457143 781.068537 
L 17.94309 781.422399 
L 19.748571 782.42795 
L 23.04 783.687435 
L 25.228262 784.71954 
L 26.331429 785.674904 
L 27.928728 788.016681 
L 29.622857 789.733004 
L 31.207635 791.313822 
L 32.914286 793.319335 
L 34.524954 794.610963 
L 36.205714 797.796024 
L 36.417539 797.908104 
L 38.888339 801.205245 
L 39.497143 801.816118 
L 42.788571 801.560615 
L 43.054623 801.205245 
L 45.282814 797.908104 
L 46.08 797.491569 
L 49.371429 797.476311 
L 50.825548 797.908104 
L 52.662857 799.079057 
L 55.954286 800.152258 
L 57.149055 801.205245 
L 59.245714 803.332413 
L 60.526415 804.502385 
L 62.537143 806.874521 
L 63.663727 807.799526 
L 65.828571 810.625137 
L 66.488539 811.096667 
L 68.483067 814.393808 
L 69.12 815.052304 
L 71.69694 817.690949 
z
" clip-path="url(#p8c11f8fbd8)" style="fill: #dae8f6; fill-opacity: 0.9"/>
    <path d="M 72.411429 819.277104 
L 75.087837 820.98809 
L 75.702857 820.98809 
L 77.414591 820.98809 
L 78.994286 818.167519 
L 79.321677 817.690949 
L 82.196286 814.393808 
L 82.285714 814.385297 
L 82.309631 814.393808 
L 85.577143 816.666164 
L 87.096419 817.690949 
L 88.868571 819.439268 
L 89.896386 820.98809 
L 90.608567 820.98809 
L 88.868571 818.366076 
L 88.184241 817.690949 
L 85.577143 815.932403 
L 83.364734 814.393808 
L 82.285714 814.009814 
L 78.994286 814.132101 
L 78.073274 814.393808 
L 75.702857 817.583894 
L 75.642799 817.690949 
L 72.411429 818.43138 
L 71.69694 817.690949 
L 69.12 815.052304 
L 68.483067 814.393808 
L 66.488539 811.096667 
L 65.828571 810.625137 
L 63.663727 807.799526 
L 62.537143 806.874521 
L 60.526415 804.502385 
L 59.245714 803.332413 
L 57.149055 801.205245 
L 55.954286 800.152258 
L 52.662857 799.079057 
L 50.825548 797.908104 
L 49.371429 797.476311 
L 46.08 797.491569 
L 45.282814 797.908104 
L 43.054623 801.205245 
L 42.788571 801.560615 
L 39.497143 801.816118 
L 38.888339 801.205245 
L 36.417539 797.908104 
L 36.205714 797.796024 
L 34.524954 794.610963 
L 32.914286 793.319335 
L 31.207635 791.313822 
L 29.622857 789.733004 
L 27.928728 788.016681 
L 26.331429 785.674904 
L 25.228262 784.71954 
L 23.04 783.687435 
L 19.748571 782.42795 
L 17.94309 781.422399 
L 16.457143 781.068537 
L 13.194019 781.422399 
L 13.165714 781.457977 
L 10.366266 784.71954 
L 9.874286 784.927353 
L 9.787237 784.71954 
L 6.582857 782.317862 
L 5.754547 781.422399 
L 3.291429 779.420919 
L 2.007431 778.125258 
L 0 775.412762 
L 0 775.90002 
L 1.646827 778.125258 
L 3.291429 779.784799 
L 5.306739 781.422399 
L 6.582857 782.801975 
L 9.141322 784.71954 
L 9.874286 786.469352 
L 13.165714 785.661513 
L 13.983489 784.71954 
L 16.457143 781.580926 
L 19.748571 783.286106 
L 23.04 783.969941 
L 24.629294 784.71954 
L 26.331429 786.193622 
L 27.574916 788.016681 
L 29.622857 790.091451 
L 30.84829 791.313822 
L 32.914286 793.741606 
L 33.998379 794.610963 
L 35.501694 797.908104 
L 36.205714 798.635987 
L 38.239312 801.205245 
L 39.497143 802.467351 
L 42.425698 804.502385 
L 42.788571 804.866506 
L 44.247825 804.502385 
L 46.08 802.014782 
L 46.631579 801.205245 
L 48.700134 797.908104 
L 49.371429 797.836934 
L 49.611102 797.908104 
L 52.662857 799.853047 
L 55.954286 800.435459 
L 56.827721 801.205245 
L 59.245714 803.658422 
L 60.169552 804.502385 
L 62.537143 807.295526 
L 63.150976 807.799526 
L 65.468911 811.096667 
L 65.828571 811.474288 
L 67.674797 814.393808 
L 69.12 815.887938 
L 70.880848 817.690949 
z
" clip-path="url(#p8c11f8fbd8)" style="fill: #d6e5f4; fill-opacity: 0.9"/>
    <path d="M 72.411429 820.122827 
L 73.764915 820.98809 
L 75.087837 820.98809 
L 72.411429 819.277104 
L 70.880848 817.690949 
L 69.12 815.887938 
L 67.674797 814.393808 
L 65.828571 811.474288 
L 65.468911 811.096667 
L 63.150976 807.799526 
L 62.537143 807.295526 
L 60.169552 804.502385 
L 59.245714 803.658422 
L 56.827721 801.205245 
L 55.954286 800.435459 
L 52.662857 799.853047 
L 49.611102 797.908104 
L 49.371429 797.836934 
L 48.700134 797.908104 
L 46.631579 801.205245 
L 46.08 802.014782 
L 44.247825 804.502385 
L 42.788571 804.866506 
L 42.425698 804.502385 
L 39.497143 802.467351 
L 38.239312 801.205245 
L 36.205714 798.635987 
L 35.501694 797.908104 
L 33.998379 794.610963 
L 32.914286 793.741606 
L 30.84829 791.313822 
L 29.622857 790.091451 
L 27.574916 788.016681 
L 26.331429 786.193622 
L 24.629294 784.71954 
L 23.04 783.969941 
L 19.748571 783.286106 
L 16.457143 781.580926 
L 13.983489 784.71954 
L 13.165714 785.661513 
L 9.874286 786.469352 
L 9.141322 784.71954 
L 6.582857 782.801975 
L 5.306739 781.422399 
L 3.291429 779.784799 
L 1.646827 778.125258 
L 0 775.90002 
L 0 776.387278 
L 1.286223 778.125258 
L 3.291429 780.148678 
L 4.858931 781.422399 
L 6.582857 783.286087 
L 8.495407 784.71954 
L 9.874286 788.011351 
L 9.901339 788.016681 
L 13.165714 789.635214 
L 14.68441 788.016681 
L 16.457143 785.962981 
L 17.462396 784.71954 
L 19.748571 784.144263 
L 23.04 784.252447 
L 24.030326 784.71954 
L 26.331429 786.71234 
L 27.221105 788.016681 
L 29.622857 790.449898 
L 30.488945 791.313822 
L 32.914286 794.163878 
L 33.471803 794.610963 
L 34.708592 797.908104 
L 36.205714 799.45597 
L 37.590286 801.205245 
L 39.497143 803.118584 
L 41.488529 804.502385 
L 42.788571 805.806898 
L 46.08 807.003148 
L 47.926061 804.502385 
L 49.371429 802.350565 
L 50.104702 801.205245 
L 52.662857 800.627037 
L 55.954286 800.718659 
L 56.506388 801.205245 
L 59.245714 803.984431 
L 59.812689 804.502385 
L 62.537143 807.716531 
L 62.638224 807.799526 
L 64.251545 811.096667 
L 65.828571 812.752441 
L 66.866528 814.393808 
L 69.12 816.723571 
L 70.064756 817.690949 
z
M 78.994286 820.98809 
L 81.057469 820.98809 
L 82.285714 819.348688 
L 83.813802 817.690949 
L 85.577143 817.399924 
L 86.008596 817.690949 
L 88.868571 820.51246 
L 89.184205 820.98809 
L 89.896386 820.98809 
L 88.868571 819.439268 
L 87.096419 817.690949 
L 85.577143 816.666164 
L 82.309631 814.393808 
L 82.285714 814.385297 
L 82.196286 814.393808 
L 79.321677 817.690949 
L 78.994286 818.167519 
L 77.414591 820.98809 
z
" clip-path="url(#p8c11f8fbd8)" style="fill: #d0e2f2; fill-opacity: 0.9"/>
    <path d="M 72.411429 820.968551 
L 72.441993 820.98809 
L 73.764915 820.98809 
L 72.411429 820.122827 
L 70.064756 817.690949 
L 69.12 816.723571 
L 66.866528 814.393808 
L 65.828571 812.752441 
L 64.251545 811.096667 
L 62.638224 807.799526 
L 62.537143 807.716531 
L 59.812689 804.502385 
L 59.245714 803.984431 
L 56.506388 801.205245 
L 55.954286 800.718659 
L 52.662857 800.627037 
L 50.104702 801.205245 
L 49.371429 802.350565 
L 47.926061 804.502385 
L 46.08 807.003148 
L 42.788571 805.806898 
L 41.488529 804.502385 
L 39.497143 803.118584 
L 37.590286 801.205245 
L 36.205714 799.45597 
L 34.708592 797.908104 
L 33.471803 794.610963 
L 32.914286 794.163878 
L 30.488945 791.313822 
L 29.622857 790.449898 
L 27.221105 788.016681 
L 26.331429 786.71234 
L 24.030326 784.71954 
L 23.04 784.252447 
L 19.748571 784.144263 
L 17.462396 784.71954 
L 16.457143 785.962981 
L 14.68441 788.016681 
L 13.165714 789.635214 
L 9.901339 788.016681 
L 9.874286 788.011351 
L 8.495407 784.71954 
L 6.582857 783.286087 
L 4.858931 781.422399 
L 3.291429 780.148678 
L 1.286223 778.125258 
L 0 776.387278 
L 0 776.874536 
L 0.925619 778.125258 
L 3.291429 780.512557 
L 4.411124 781.422399 
L 6.582857 783.770199 
L 7.849492 784.71954 
L 8.957717 788.016681 
L 9.874286 788.948342 
L 12.562776 791.313822 
L 13.165714 791.934081 
L 15.317295 791.313822 
L 16.457143 790.095827 
L 18.26043 788.016681 
L 19.748571 786.162691 
L 20.852282 784.71954 
L 23.04 784.534954 
L 23.431358 784.71954 
L 26.331429 787.231058 
L 26.867293 788.016681 
L 29.622857 790.808345 
L 30.1296 791.313822 
L 32.914286 794.58615 
L 32.945228 794.610963 
L 33.915491 797.908104 
L 36.205714 800.275954 
L 36.941259 801.205245 
L 39.497143 803.769816 
L 40.55136 804.502385 
L 42.788571 806.74729 
L 44.672117 807.799526 
L 45.666192 811.096667 
L 46.08 811.526364 
L 46.571083 811.096667 
L 49.192928 807.799526 
L 49.371429 807.554614 
L 51.464899 804.502385 
L 52.662857 802.607033 
L 53.520197 801.205245 
L 55.954286 801.00186 
L 56.185055 801.205245 
L 59.245714 804.31044 
L 59.455826 804.502385 
L 60.558094 807.799526 
L 62.537143 809.985175 
L 63.03418 811.096667 
L 65.828571 814.030595 
L 66.058258 814.393808 
L 69.12 817.559205 
L 69.248664 817.690949 
z
M 82.285714 820.98809 
L 85.577143 820.98809 
L 88.868571 820.98809 
L 89.184205 820.98809 
L 88.868571 820.51246 
L 86.008596 817.690949 
L 85.577143 817.399924 
L 83.813802 817.690949 
L 82.285714 819.348688 
L 81.057469 820.98809 
z
" clip-path="url(#p8c11f8fbd8)" style="fill: #cbdef1; fill-opacity: 0.9"/>
    <path d="M 46.08 820.523835 
L 46.504914 820.98809 
L 49.371429 820.98809 
L 52.662857 820.98809 
L 55.954286 820.98809 
L 59.245714 820.98809 
L 62.537143 820.98809 
L 65.828571 820.98809 
L 69.12 820.98809 
L 72.411429 820.98809 
L 72.441993 820.98809 
L 72.411429 820.968551 
L 69.248664 817.690949 
L 69.12 817.559205 
L 66.058258 814.393808 
L 65.828571 814.030595 
L 63.03418 811.096667 
L 62.537143 809.985175 
L 60.558094 807.799526 
L 59.455826 804.502385 
L 59.245714 804.31044 
L 56.185055 801.205245 
L 55.954286 801.00186 
L 53.520197 801.205245 
L 52.662857 802.607033 
L 51.464899 804.502385 
L 49.371429 807.554614 
L 49.192928 807.799526 
L 46.571083 811.096667 
L 46.08 811.526364 
L 45.666192 811.096667 
L 44.672117 807.799526 
L 42.788571 806.74729 
L 40.55136 804.502385 
L 39.497143 803.769816 
L 36.941259 801.205245 
L 36.205714 800.275954 
L 33.915491 797.908104 
L 32.945228 794.610963 
L 32.914286 794.58615 
L 30.1296 791.313822 
L 29.622857 790.808345 
L 26.867293 788.016681 
L 26.331429 787.231058 
L 23.431358 784.71954 
L 23.04 784.534954 
L 20.852282 784.71954 
L 19.748571 786.162691 
L 18.26043 788.016681 
L 16.457143 790.095827 
L 15.317295 791.313822 
L 13.165714 791.934081 
L 12.562776 791.313822 
L 9.874286 788.948342 
L 8.957717 788.016681 
L 7.849492 784.71954 
L 6.582857 783.770199 
L 4.411124 781.422399 
L 3.291429 780.512557 
L 0.925619 778.125258 
L 0 776.874536 
L 0 777.361794 
L 0.565015 778.125258 
L 3.291429 780.876437 
L 3.963316 781.422399 
L 6.582857 784.254312 
L 7.203577 784.71954 
L 8.037969 788.016681 
L 9.874286 789.883234 
L 11.500223 791.313822 
L 13.165714 793.027158 
L 16.457143 794.049487 
L 18.997352 791.313822 
L 19.748571 790.443272 
L 21.725325 788.016681 
L 23.04 786.284976 
L 26.331429 787.749776 
L 26.513481 788.016681 
L 29.622857 791.166792 
L 29.770255 791.313822 
L 30.589699 794.610963 
L 32.914286 797.189325 
L 33.122389 797.908104 
L 36.205714 801.095937 
L 36.292232 801.205245 
L 39.497143 804.421049 
L 39.614191 804.502385 
L 42.788571 807.687682 
L 42.988778 807.799526 
L 42.788571 809.448685 
L 41.148008 811.096667 
L 42.626692 814.393808 
L 42.788571 814.740346 
L 44.15999 817.690949 
z
" clip-path="url(#p8c11f8fbd8)" style="fill: #c6dbef; fill-opacity: 0.9"/>
    <path d="M 36.205714 820.98809 
L 39.497143 820.98809 
L 42.788571 820.98809 
L 46.08 820.98809 
L 46.504914 820.98809 
L 46.08 820.523835 
L 44.15999 817.690949 
L 42.788571 814.740346 
L 42.626692 814.393808 
L 41.148008 811.096667 
L 42.788571 809.448685 
L 42.988778 807.799526 
L 42.788571 807.687682 
L 39.614191 804.502385 
L 39.497143 804.421049 
L 36.292232 801.205245 
L 36.205714 801.095937 
L 33.122389 797.908104 
L 32.914286 797.189325 
L 30.589699 794.610963 
L 29.770255 791.313822 
L 29.622857 791.166792 
L 26.513481 788.016681 
L 26.331429 787.749776 
L 23.04 786.284976 
L 21.725325 788.016681 
L 19.748571 790.443272 
L 18.997352 791.313822 
L 16.457143 794.049487 
L 13.165714 793.027158 
L 11.500223 791.313822 
L 9.874286 789.883234 
L 8.037969 788.016681 
L 7.203577 784.71954 
L 6.582857 784.254312 
L 3.963316 781.422399 
L 3.291429 780.876437 
L 0.565015 778.125258 
L 0 777.361794 
L 0 777.849052 
L 0.204411 778.125258 
L 3.291429 781.240316 
L 3.515508 781.422399 
L 6.391853 784.71954 
L 6.582857 784.926617 
L 7.118222 788.016681 
L 9.874286 790.818126 
L 10.43767 791.313822 
L 13.165714 794.120235 
L 14.297676 794.610963 
L 16.457143 796.917803 
L 19.748571 795.063122 
L 21.307576 797.908104 
L 23.04 800.788964 
L 23.280988 801.205245 
L 25.337555 804.502385 
L 26.331429 806.189211 
L 27.274574 807.799526 
L 29.323237 811.096667 
L 29.622857 811.510999 
L 31.646458 814.393808 
L 32.914286 816.264072 
L 33.921391 817.690949 
L 36.059533 820.98809 
z
" clip-path="url(#p8c11f8fbd8)" style="fill: #bed8ec; fill-opacity: 0.9"/>
    <path d="M 26.331429 819.490449 
L 27.471199 820.98809 
L 29.622857 820.98809 
L 32.914286 820.98809 
L 36.059533 820.98809 
L 33.921391 817.690949 
L 32.914286 816.264072 
L 31.646458 814.393808 
L 29.622857 811.510999 
L 29.323237 811.096667 
L 27.274574 807.799526 
L 26.331429 806.189211 
L 25.337555 804.502385 
L 23.280988 801.205245 
L 23.04 800.788964 
L 21.307576 797.908104 
L 19.748571 795.063122 
L 16.457143 796.917803 
L 14.297676 794.610963 
L 13.165714 794.120235 
L 10.43767 791.313822 
L 9.874286 790.818126 
L 7.118222 788.016681 
L 6.582857 784.926617 
L 6.391853 784.71954 
L 3.515508 781.422399 
L 3.291429 781.240316 
L 0.204411 778.125258 
L 0 777.849052 
L 0 778.125258 
L 0 781.422399 
L 0 784.71954 
L 0 787.208056 
L 0.623057 788.016681 
L 3.291429 790.997244 
L 3.567281 791.313822 
L 6.460365 794.610963 
L 6.582857 794.755752 
L 9.056615 797.908104 
L 9.874286 798.903324 
L 11.698186 801.205245 
L 13.165714 802.977858 
L 14.345382 804.502385 
L 16.457143 807.186205 
L 16.927203 807.799526 
L 19.548755 811.096667 
L 19.748571 811.339691 
L 22.210767 814.393808 
L 23.04 815.398162 
L 24.896836 817.690949 
z
" clip-path="url(#p8c11f8fbd8)" style="fill: #b5d4e9; fill-opacity: 0.9"/>
    <path d="M 16.457143 818.077517 
L 18.934405 820.98809 
L 19.748571 820.98809 
L 23.04 820.98809 
L 26.331429 820.98809 
L 27.471199 820.98809 
L 26.331429 819.490449 
L 24.896836 817.690949 
L 23.04 815.398162 
L 22.210767 814.393808 
L 19.748571 811.339691 
L 19.548755 811.096667 
L 16.927203 807.799526 
L 16.457143 807.186205 
L 14.345382 804.502385 
L 13.165714 802.977858 
L 11.698186 801.205245 
L 9.874286 798.903324 
L 9.056615 797.908104 
L 6.582857 794.755752 
L 6.460365 794.610963 
L 3.567281 791.313822 
L 3.291429 790.997244 
L 0.623057 788.016681 
L 0 787.208056 
L 0 788.016681 
L 0 791.313822 
L 0 794.610963 
L 0 797.908104 
L 0 799.889136 
L 1.239024 801.205245 
L 3.291429 803.350628 
L 4.345717 804.502385 
L 6.582857 806.836493 
L 7.477799 807.799526 
L 9.874286 810.339025 
L 10.522134 811.096667 
L 13.165714 814.20816 
L 13.322202 814.393808 
L 16.127501 817.690949 
z
" clip-path="url(#p8c11f8fbd8)" style="fill: #add0e6; fill-opacity: 0.9"/>
    <path d="M 3.291429 820.112514 
L 4.12922 820.98809 
L 6.582857 820.98809 
L 9.874286 820.98809 
L 13.165714 820.98809 
L 16.457143 820.98809 
L 18.934405 820.98809 
L 16.457143 818.077517 
L 16.127501 817.690949 
L 13.322202 814.393808 
L 13.165714 814.20816 
L 10.522134 811.096667 
L 9.874286 810.339025 
L 7.477799 807.799526 
L 6.582857 806.836493 
L 4.345717 804.502385 
L 3.291429 803.350628 
L 1.239024 801.205245 
L 0 799.889136 
L 0 801.205245 
L 0 804.502385 
L 0 807.799526 
L 0 811.096667 
L 0 814.393808 
L 0 816.214077 
L 1.224948 817.690949 
z
" clip-path="url(#p8c11f8fbd8)" style="fill: #a5cde3; fill-opacity: 0.9"/>
    <path d="M 3.291429 820.98809 
L 4.12922 820.98809 
L 3.291429 820.112514 
L 1.224948 817.690949 
L 0 816.214077 
L 0 817.690949 
L 0 820.98809 
z
" clip-path="url(#p8c11f8fbd8)" style="fill: #9cc9e1; fill-opacity: 0.9"/>
    <path clip-path="url(#p8c11f8fbd8)" style="fill: #91c3de; fill-opacity: 0.9"/>
    <path clip-path="url(#p8c11f8fbd8)" style="fill: #85bcdc; fill-opacity: 0.9"/>
    <path clip-path="url(#p8c11f8fbd8)" style="fill: #7cb7da; fill-opacity: 0.9"/>
    <path clip-path="url(#p8c11f8fbd8)" style="fill: #71b1d7; fill-opacity: 0.9"/>
    <path clip-path="url(#p8c11f8fbd8)" style="fill: #66abd4; fill-opacity: 0.9"/>
    <path clip-path="url(#p8c11f8fbd8)" style="fill: #5da5d1; fill-opacity: 0.9"/>
    <path clip-path="url(#p8c11f8fbd8)" style="fill: #56a0ce; fill-opacity: 0.9"/>
    <path clip-path="url(#p8c11f8fbd8)" style="fill: #4d99ca; fill-opacity: 0.9"/>
    <path clip-path="url(#p8c11f8fbd8)" style="fill: #4493c7; fill-opacity: 0.9"/>
    <path clip-path="url(#p8c11f8fbd8)" style="fill: #3c8cc3; fill-opacity: 0.9"/>
    <path clip-path="url(#p8c11f8fbd8)" style="fill: #3686c0; fill-opacity: 0.9"/>
    <path clip-path="url(#p8c11f8fbd8)" style="fill: #2f7fbc; fill-opacity: 0.9"/>
    <path clip-path="url(#p8c11f8fbd8)" style="fill: #2777b8; fill-opacity: 0.9"/>
    <path clip-path="url(#p8c11f8fbd8)" style="fill: #2070b4; fill-opacity: 0.9"/>
    <path clip-path="url(#p8c11f8fbd8)" style="fill: #1c6ab0; fill-opacity: 0.9"/>
    <path clip-path="url(#p8c11f8fbd8)" style="fill: #1663aa; fill-opacity: 0.9"/>
    <path clip-path="url(#p8c11f8fbd8)" style="fill: #115ca5; fill-opacity: 0.9"/>
    <path clip-path="url(#p8c11f8fbd8)" style="fill: #0c56a0; fill-opacity: 0.9"/>
    <path clip-path="url(#p8c11f8fbd8)" style="fill: #084f99; fill-opacity: 0.9"/>
    <path clip-path="url(#p8c11f8fbd8)" style="fill: #08488e; fill-opacity: 0.9"/>
    <path clip-path="url(#p8c11f8fbd8)" style="fill: #084184; fill-opacity: 0.9"/>
    <path clip-path="url(#p8c11f8fbd8)" style="fill: #083a7a; fill-opacity: 0.9"/>
    <path clip-path="url(#p8c11f8fbd8)" style="fill: #083370; fill-opacity: 0.9"/>
    <path clip-path="url(#p8c11f8fbd8)" style="fill: #08306b; fill-opacity: 0.9"/>
   </g>
   <g id="QuadContourSet_2">
    <path d="M 100.558938 820.98809 
L 98.742857 819.189477 
L 95.451429 819.597827 
L 92.16 817.778368 
L 92.097428 817.690949 
L 88.868571 815.181469 
L 87.875776 814.393808 
L 85.577143 812.143755 
L 82.285714 811.756915 
L 81.247244 811.096667 
L 78.994286 808.87997 
L 75.702857 808.701515 
L 74.56502 807.799526 
L 72.411429 805.683215 
L 69.12 805.864489 
L 67.106348 804.502385 
L 65.828571 803.258771 
L 62.537143 803.967433 
L 59.245714 801.37636 
L 59.077053 801.205245 
L 55.954286 798.453054 
L 54.966425 797.908104 
L 52.662857 795.618747 
L 49.371429 795.312576 
L 48.364077 794.610963 
L 46.08 792.34113 
L 42.788571 792.290346 
L 41.517015 791.313822 
L 39.497143 789.309912 
L 36.205714 789.596879 
L 33.68022 788.016681 
L 32.914286 787.258321 
L 30.371832 786.886028 
M 15.051928 777.699424 
L 13.165714 775.811071 
L 9.874286 775.887312 
L 8.42383 774.828117 
L 6.582857 772.985021 
L 3.291429 773.370658 
L 0 771.605535 
" clip-path="url(#p8c11f8fbd8)" style="fill: none"/>
    <path d="M 99.687896 820.98809 
L 98.742857 820.052141 
L 95.451429 820.726303 
L 92.16 818.618263 
L 91.496254 817.690949 
L 88.868571 815.648704 
L 87.286857 814.393808 
L 85.577143 812.720228 
L 82.285714 812.132398 
L 80.656665 811.096667 
L 78.994286 809.461043 
L 75.702857 809.202225 
L 74.253287 808.053118 
M 58.146183 800.668041 
L 55.954286 798.736254 
L 54.453052 797.908104 
L 52.662857 796.128953 
L 49.371429 795.673198 
L 47.846308 794.610963 
L 46.08 792.85567 
L 42.788571 792.786834 
L 40.870526 791.313822 
L 39.497143 789.951292 
L 36.205714 790.391678 
L 32.914286 790.037804 
L 30.767817 788.016681 
L 29.622857 787.799912 
L 28.016831 784.71954 
L 26.331429 783.034323 
L 23.04 782.274904 
L 21.589148 781.422399 
L 19.748571 779.580104 
L 16.457143 779.233878 
L 14.992517 778.125258 
L 13.165714 776.296384 
L 9.874286 776.410371 
L 7.707555 774.828117 
L 6.582857 773.702122 
L 3.291429 774.277497 
L 0 772.276888 
" clip-path="url(#p8c11f8fbd8)" style="fill: none"/>
    <path d="M 94.475261 820.98809 
L 92.16 819.458158 
L 90.89508 817.690949 
L 88.868571 816.115939 
L 86.697937 814.393808 
L 85.577143 813.296701 
L 82.285714 812.507881 
L 80.066087 811.096667 
L 78.994286 810.042116 
L 75.702857 809.702935 
L 73.301753 807.799526 
L 72.411429 806.924614 
L 69.12 807.341469 
L 66.696155 807.799526 
L 65.828571 807.948111 
L 65.714733 807.799526 
L 62.537143 805.1905 
L 61.953867 804.502385 
L 59.245714 802.028378 
L 58.434387 801.205245 
L 55.954286 799.019455 
L 53.939679 797.908104 
L 52.662857 796.639159 
L 49.371429 796.033821 
L 47.328538 794.610963 
L 46.08 793.370211 
L 42.788571 793.283321 
L 40.224037 791.313822 
L 39.497143 790.592672 
L 36.205714 791.186477 
L 35.625919 791.313822 
L 32.914286 791.630248 
L 32.645014 791.313822 
L 29.622857 788.299216 
L 29.343975 788.016681 
L 27.483176 784.71954 
L 26.331429 783.56792 
L 23.04 782.55741 
L 21.108359 781.422399 
L 19.748571 780.061342 
L 16.457143 779.60081 
L 14.711494 778.279475 
M 98.816854 820.98809 
L 98.742857 820.914805 
L 98.415045 820.98809 
" clip-path="url(#p8c11f8fbd8)" style="fill: none"/>
    <path d="M 93.204239 820.98809 
L 92.16 820.298054 
L 90.293905 817.690949 
L 88.868571 816.583174 
L 86.109018 814.393808 
L 85.577143 813.873174 
L 82.285714 812.883365 
L 79.475508 811.096667 
L 78.994286 810.62319 
L 75.702857 810.203645 
L 72.670119 807.799526 
L 72.411429 807.545314 
L 70.703538 807.799526 
L 69.12 809.994236 
L 65.828571 808.617368 
L 65.201982 807.799526 
L 62.537143 805.611505 
L 61.597004 804.502385 
L 59.245714 802.354387 
L 58.113054 801.205245 
L 55.954286 799.302656 
L 54.295336 798.387502 
M 38.130212 792.742448 
L 36.897708 794.610963 
L 36.205714 794.802423 
L 36.104681 794.610963 
L 32.914286 792.052519 
L 32.285669 791.313822 
L 29.622857 788.657663 
L 28.990164 788.016681 
L 26.94952 784.71954 
L 26.331429 784.101517 
L 23.04 782.839916 
L 20.62757 781.422399 
L 19.748571 780.54258 
L 16.457143 779.967742 
L 14.022991 778.125258 
L 13.165714 777.267009 
L 9.874286 777.456489 
L 6.582857 776.700915 
L 5.37067 778.125258 
L 3.291429 778.329281 
L 3.089242 778.125258 
L 1.855655 774.828117 
L 0 773.619593 
" clip-path="url(#p8c11f8fbd8)" style="fill: none"/>
    <path d="M 92.032929 820.98809 
L 90.157265 818.345438 
M 73.346951 810.678577 
L 72.411429 810.668341 
L 72.0881 811.096667 
L 69.12 812.416762 
L 68.361964 811.096667 
L 65.828571 809.286624 
L 64.68923 807.799526 
L 62.537143 806.03251 
L 61.240141 804.502385 
L 59.245714 802.680396 
L 57.791721 801.205245 
L 55.954286 799.585857 
L 52.912932 797.908104 
L 52.662857 797.659571 
L 49.371429 796.755066 
L 46.293 794.610963 
L 46.08 794.399291 
L 42.788571 794.276296 
L 40.461293 794.610963 
L 39.497143 796.035583 
L 36.205714 795.80029 
L 35.578105 794.610963 
L 32.914286 792.474791 
L 31.926324 791.313822 
L 29.622857 789.01611 
L 28.636352 788.016681 
L 26.415864 784.71954 
L 26.331429 784.635114 
L 23.04 783.122422 
L 20.146781 781.422399 
L 19.748571 781.023817 
L 16.457143 780.334674 
L 13.538228 778.125258 
L 13.165714 777.752322 
L 9.874286 777.979548 
L 8.910845 778.125258 
L 6.582857 780.820573 
L 3.291429 778.69316 
L 2.728638 778.125258 
L 0.824812 774.828117 
L 0 774.290946 
" clip-path="url(#p8c11f8fbd8)" style="fill: none"/>
    <path d="M 91.320748 820.98809 
L 89.091557 817.690949 
L 88.868571 817.517644 
L 85.577143 815.198643 
L 84.419838 814.393808 
L 82.285714 813.634331 
L 78.994286 812.742993 
L 75.702857 812.072322 
L 73.842992 814.393808 
L 72.411429 816.903038 
L 70.266675 814.393808 
L 69.12 814.048015 
L 68.79805 813.487349 
M 55.74907 799.771545 
L 52.662857 798.305067 
L 52.039994 797.908104 
L 49.371429 797.115689 
L 46.08 795.678294 
L 42.788571 796.380796 
L 41.775928 797.908104 
L 39.497143 800.911204 
L 38.303456 797.908104 
L 36.205714 796.798157 
L 35.05153 794.610963 
L 32.914286 792.897063 
L 31.566979 791.313822 
L 29.622857 789.374557 
L 28.28254 788.016681 
L 26.331429 785.156186 
L 25.82723 784.71954 
L 23.04 783.404929 
L 19.748571 781.569794 
L 19.483922 781.422399 
L 16.457143 780.701606 
L 13.165714 778.749419 
L 9.874286 781.221273 
L 9.702234 781.422399 
L 6.582857 781.83375 
L 6.202354 781.422399 
L 3.291429 779.05704 
L 2.368034 778.125258 
L 0 774.925504 
" clip-path="url(#p8c11f8fbd8)" style="fill: none"/>
    <path d="M 90.608567 820.98809 
L 88.868571 818.366076 
L 88.184241 817.690949 
L 85.577143 815.932403 
L 83.364734 814.393808 
L 82.285714 814.009814 
L 78.994286 814.132101 
L 78.073274 814.393808 
L 75.702857 817.583894 
L 75.642799 817.690949 
L 72.411429 818.43138 
L 71.69694 817.690949 
L 69.12 815.052304 
L 68.483067 814.393808 
L 66.488539 811.096667 
L 65.828571 810.625137 
L 63.663727 807.799526 
L 62.537143 806.874521 
L 60.526415 804.502385 
L 59.245714 803.332413 
L 57.149055 801.205245 
L 55.954286 800.152258 
L 52.662857 799.079057 
L 50.825548 797.908104 
L 49.371429 797.476311 
L 46.08 797.491569 
L 45.282814 797.908104 
L 43.054623 801.205245 
L 42.788571 801.560615 
L 39.497143 801.816118 
L 38.888339 801.205245 
L 37.030037 798.725447 
M 24.675804 784.45897 
L 23.04 783.687435 
L 19.748571 782.42795 
L 17.94309 781.422399 
L 16.457143 781.068537 
L 13.194019 781.422399 
L 13.165714 781.457977 
L 10.366266 784.71954 
L 9.874286 784.927353 
L 9.787237 784.71954 
L 6.582857 782.317862 
L 5.754547 781.422399 
L 3.291429 779.420919 
L 2.007431 778.125258 
L 0 775.412762 
" clip-path="url(#p8c11f8fbd8)" style="fill: none"/>
    <path d="M 75.087837 820.98809 
L 72.411429 819.277104 
L 70.880848 817.690949 
L 69.12 815.887938 
L 67.674797 814.393808 
L 65.828571 811.474288 
L 65.468911 811.096667 
L 63.150976 807.799526 
L 62.537143 807.295526 
L 60.169552 804.502385 
L 59.245714 803.658422 
L 56.827721 801.205245 
L 55.954286 800.435459 
L 52.662857 799.853047 
L 49.611102 797.908104 
L 49.371429 797.836934 
L 48.700134 797.908104 
L 46.631579 801.205245 
L 46.08 802.014782 
L 44.247825 804.502385 
L 42.788571 804.866506 
L 42.425698 804.502385 
L 42.355561 804.453647 
M 29.885038 790.352977 
L 29.622857 790.091451 
L 27.574916 788.016681 
L 26.331429 786.193622 
L 24.629294 784.71954 
L 23.04 783.969941 
L 19.748571 783.286106 
L 16.457143 781.580926 
L 13.983489 784.71954 
L 13.165714 785.661513 
L 9.874286 786.469352 
L 9.141322 784.71954 
L 6.582857 782.801975 
L 5.306739 781.422399 
L 3.291429 779.784799 
L 1.646827 778.125258 
L 0 775.90002 
M 89.896386 820.98809 
L 89.543513 820.456342 
" clip-path="url(#p8c11f8fbd8)" style="fill: none"/>
    <path d="M 73.764915 820.98809 
L 72.411429 820.122827 
L 70.064756 817.690949 
L 69.12 816.723571 
L 66.866528 814.393808 
L 65.828571 812.752441 
L 64.251545 811.096667 
L 62.638224 807.799526 
L 62.537143 807.716531 
L 59.812689 804.502385 
L 59.245714 803.984431 
L 56.506388 801.205245 
L 55.954286 800.718659 
L 52.662857 800.627037 
L 50.104702 801.205245 
L 49.371429 802.350565 
L 47.926061 804.502385 
L 46.08 807.003148 
L 42.788571 805.806898 
L 41.488529 804.502385 
L 39.497143 803.118584 
L 38.255868 801.87309 
M 26.560554 787.048257 
L 26.331429 786.71234 
L 24.030326 784.71954 
L 23.04 784.252447 
L 19.748571 784.144263 
L 17.462396 784.71954 
L 16.457143 785.962981 
L 14.68441 788.016681 
L 13.165714 789.635214 
L 9.901339 788.016681 
L 9.874286 788.011351 
L 8.495407 784.71954 
L 6.582857 783.286087 
L 4.858931 781.422399 
L 3.291429 780.148678 
L 1.286223 778.125258 
L 0 776.387278 
M 89.184205 820.98809 
L 88.868571 820.51246 
L 86.008596 817.690949 
L 85.577143 817.399924 
L 83.813802 817.690949 
L 82.285714 819.348688 
L 81.057469 820.98809 
" clip-path="url(#p8c11f8fbd8)" style="fill: none"/>
    <path d="M 72.441993 820.98809 
L 72.411429 820.968551 
L 69.248664 817.690949 
L 69.12 817.559205 
L 66.058258 814.393808 
L 65.828571 814.030595 
L 63.03418 811.096667 
L 62.537143 809.985175 
L 60.558094 807.799526 
L 59.455826 804.502385 
L 59.245714 804.31044 
L 56.185055 801.205245 
L 55.954286 801.00186 
L 53.520197 801.205245 
L 52.662857 802.607033 
L 51.464899 804.502385 
L 49.371429 807.554614 
L 49.192928 807.799526 
L 46.571083 811.096667 
L 46.08 811.526364 
L 45.666192 811.096667 
L 44.672117 807.799526 
L 44.076839 807.466976 
M 31.871667 793.360952 
L 30.1296 791.313822 
L 29.622857 790.808345 
L 26.867293 788.016681 
L 26.331429 787.231058 
L 23.431358 784.71954 
L 23.04 784.534954 
L 20.852282 784.71954 
L 19.748571 786.162691 
L 18.26043 788.016681 
L 16.457143 790.095827 
L 15.317295 791.313822 
L 13.165714 791.934081 
L 12.562776 791.313822 
L 9.874286 788.948342 
L 8.957717 788.016681 
L 7.849492 784.71954 
L 6.582857 783.770199 
L 4.411124 781.422399 
L 3.291429 780.512557 
L 0.925619 778.125258 
L 0 776.874536 
" clip-path="url(#p8c11f8fbd8)" style="fill: none"/>
    <path d="M 46.504914 820.98809 
L 46.08 820.523835 
L 44.15999 817.690949 
L 43.492512 816.254871 
M 30.305666 793.468121 
L 29.770255 791.313822 
L 29.622857 791.166792 
L 26.513481 788.016681 
L 26.331429 787.749776 
L 23.04 786.284976 
L 21.725325 788.016681 
L 19.748571 790.443272 
L 18.997352 791.313822 
L 16.457143 794.049487 
L 13.165714 793.027158 
L 11.500223 791.313822 
L 9.874286 789.883234 
L 8.037969 788.016681 
L 7.203577 784.71954 
L 6.582857 784.254312 
L 3.963316 781.422399 
L 3.291429 780.876437 
L 0.565015 778.125258 
L 0 777.361794 
" clip-path="url(#p8c11f8fbd8)" style="fill: none"/>
    <path d="M 36.059533 820.98809 
L 33.921391 817.690949 
L 32.914286 816.264072 
L 31.646458 814.393808 
L 30.77169 813.14762 
M 13.359802 794.204375 
L 13.165714 794.120235 
L 10.43767 791.313822 
L 9.874286 790.818126 
L 7.118222 788.016681 
L 6.582857 784.926617 
L 6.391853 784.71954 
L 3.515508 781.422399 
L 3.291429 781.240316 
L 0.204411 778.125258 
L 0 777.849052 
" clip-path="url(#p8c11f8fbd8)" style="fill: none"/>
    <path d="M 27.471199 820.98809 
L 26.331429 819.490449 
L 24.896836 817.690949 
L 23.04 815.398162 
L 22.216149 814.400326 
M 3.921599 791.717625 
L 3.567281 791.313822 
L 3.291429 790.997244 
L 0.623057 788.016681 
L 0 787.208056 
" clip-path="url(#p8c11f8fbd8)" style="fill: none"/>
    <path d="M 18.934405 820.98809 
L 16.457143 818.077517 
L 16.127501 817.690949 
L 13.322202 814.393808 
L 13.165714 814.20816 
L 10.522134 811.096667 
L 9.874286 810.339025 
L 7.477799 807.799526 
L 6.582857 806.836493 
L 4.345717 804.502385 
L 3.291429 803.350628 
L 1.239024 801.205245 
L 0 799.889136 
" clip-path="url(#p8c11f8fbd8)" style="fill: none"/>
    <path d="M 4.12922 820.98809 
L 3.291429 820.112514 
L 1.224948 817.690949 
L 0 816.214077 
" clip-path="url(#p8c11f8fbd8)" style="fill: none"/>
    <path clip-path="url(#p8c11f8fbd8)" style="fill: none"/>
    <path clip-path="url(#p8c11f8fbd8)" style="fill: none"/>
    <path clip-path="url(#p8c11f8fbd8)" style="fill: none"/>
    <path clip-path="url(#p8c11f8fbd8)" style="fill: none"/>
    <path clip-path="url(#p8c11f8fbd8)" style="fill: none"/>
    <path clip-path="url(#p8c11f8fbd8)" style="fill: none"/>
    <path clip-path="url(#p8c11f8fbd8)" style="fill: none"/>
    <path clip-path="url(#p8c11f8fbd8)" style="fill: none"/>
    <path clip-path="url(#p8c11f8fbd8)" style="fill: none"/>
    <path clip-path="url(#p8c11f8fbd8)" style="fill: none"/>
    <path clip-path="url(#p8c11f8fbd8)" style="fill: none"/>
    <path clip-path="url(#p8c11f8fbd8)" style="fill: none"/>
    <path clip-path="url(#p8c11f8fbd8)" style="fill: none"/>
    <path clip-path="url(#p8c11f8fbd8)" style="fill: none"/>
    <path clip-path="url(#p8c11f8fbd8)" style="fill: none"/>
    <path clip-path="url(#p8c11f8fbd8)" style="fill: none"/>
    <path clip-path="url(#p8c11f8fbd8)" style="fill: none"/>
    <path clip-path="url(#p8c11f8fbd8)" style="fill: none"/>
    <path clip-path="url(#p8c11f8fbd8)" style="fill: none"/>
    <path clip-path="url(#p8c11f8fbd8)" style="fill: none"/>
    <path clip-path="url(#p8c11f8fbd8)" style="fill: none"/>
    <path clip-path="url(#p8c11f8fbd8)" style="fill: none"/>
    <path clip-path="url(#p8c11f8fbd8)" style="fill: none"/>
    <path clip-path="url(#p8c11f8fbd8)" style="fill: none"/>
   </g>
   <g id="text_1">
    <g clip-path="url(#p8c11f8fbd8)">
     <!-- 0 -->
     <g style="opacity: 0" transform="translate(18.097683 783.046525) rotate(-331.102043) scale(0.12 -0.12)">
      <defs>
       <path id="DejaVuSans-30" d="M 2034 4250 
Q 1547 4250 1301 3770 
Q 1056 3291 1056 2328 
Q 1056 1369 1301 889 
Q 1547 409 2034 409 
Q 2525 409 2770 889 
Q 3016 1369 3016 2328 
Q 3016 3291 2770 3770 
Q 2525 4250 2034 4250 
z
M 2034 4750 
Q 2819 4750 3233 4129 
Q 3647 3509 3647 2328 
Q 3647 1150 3233 529 
Q 2819 -91 2034 -91 
Q 1250 -91 836 529 
Q 422 1150 422 2328 
Q 422 3509 836 4129 
Q 1250 4750 2034 4750 
z
" transform="scale(0.015625)"/>
      </defs>
      <use xlink:href="#DejaVuSans-30"/>
     </g>
    </g>
   </g>
   <g id="text_2">
    <g clip-path="url(#p8c11f8fbd8)">
     <!-- 1 -->
     <g style="opacity: 0" transform="translate(61.400088 806.562456) rotate(-343.119586) scale(0.12 -0.12)">
      <defs>
       <path id="DejaVuSans-31" d="M 794 531 
L 1825 531 
L 1825 4091 
L 703 3866 
L 703 4441 
L 1819 4666 
L 2450 4666 
L 2450 531 
L 3481 531 
L 3481 0 
L 794 0 
L 794 531 
z
" transform="scale(0.015625)"/>
      </defs>
      <use xlink:href="#DejaVuSans-31"/>
     </g>
    </g>
   </g>
   <g id="text_3">
    <g clip-path="url(#p8c11f8fbd8)">
     <!-- 2 -->
     <g style="opacity: 0" transform="translate(2.236772 776.997833) rotate(-349.743467) scale(0.12 -0.12)">
      <defs>
       <path id="DejaVuSans-32" d="M 1228 531 
L 3431 531 
L 3431 0 
L 469 0 
L 469 531 
Q 828 903 1448 1529 
Q 2069 2156 2228 2338 
Q 2531 2678 2651 2914 
Q 2772 3150 2772 3378 
Q 2772 3750 2511 3984 
Q 2250 4219 1831 4219 
Q 1534 4219 1204 4116 
Q 875 4013 500 3803 
L 500 4441 
Q 881 4594 1212 4672 
Q 1544 4750 1819 4750 
Q 2544 4750 2975 4387 
Q 3406 4025 3406 3419 
Q 3406 3131 3298 2873 
Q 3191 2616 2906 2266 
Q 2828 2175 2409 1742 
Q 1991 1309 1228 531 
z
" transform="scale(0.015625)"/>
      </defs>
      <use xlink:href="#DejaVuSans-32"/>
     </g>
    </g>
   </g>
   <g id="text_4">
    <g clip-path="url(#p8c11f8fbd8)">
     <!-- 3 -->
     <g style="opacity: 0" transform="translate(41.258222 795.397412) rotate(-336.479443) scale(0.12 -0.12)">
      <defs>
       <path id="DejaVuSans-33" d="M 2597 2516 
Q 3050 2419 3304 2112 
Q 3559 1806 3559 1356 
Q 3559 666 3084 287 
Q 2609 -91 1734 -91 
Q 1441 -91 1130 -33 
Q 819 25 488 141 
L 488 750 
Q 750 597 1062 519 
Q 1375 441 1716 441 
Q 2309 441 2620 675 
Q 2931 909 2931 1356 
Q 2931 1769 2642 2001 
Q 2353 2234 1838 2234 
L 1294 2234 
L 1294 2753 
L 1863 2753 
Q 2328 2753 2575 2939 
Q 2822 3125 2822 3475 
Q 2822 3834 2567 4026 
Q 2313 4219 1838 4219 
Q 1578 4219 1281 4162 
Q 984 4106 628 3988 
L 628 4550 
Q 988 4650 1302 4700 
Q 1616 4750 1894 4750 
Q 2613 4750 3031 4423 
Q 3450 4097 3450 3541 
Q 3450 3153 3228 2886 
Q 3006 2619 2597 2516 
z
" transform="scale(0.015625)"/>
      </defs>
      <use xlink:href="#DejaVuSans-33"/>
     </g>
    </g>
   </g>
   <g id="text_5">
    <g clip-path="url(#p8c11f8fbd8)">
     <!-- 4 -->
     <g style="opacity: 0" transform="translate(77.401851 814.55714) rotate(-333.948866) scale(0.12 -0.12)">
      <defs>
       <path id="DejaVuSans-34" d="M 2419 4116 
L 825 1625 
L 2419 1625 
L 2419 4116 
z
M 2253 4666 
L 3047 4666 
L 3047 1625 
L 3713 1625 
L 3713 1100 
L 3047 1100 
L 3047 0 
L 2419 0 
L 2419 1100 
L 313 1100 
L 313 1709 
L 2253 4666 
z
" transform="scale(0.015625)"/>
      </defs>
      <use xlink:href="#DejaVuSans-34"/>
     </g>
    </g>
   </g>
   <g id="text_6">
    <g clip-path="url(#p8c11f8fbd8)">
     <!-- 5 -->
     <g style="opacity: 0" transform="translate(57.505688 805.982195) rotate(-313.710498) scale(0.12 -0.12)">
      <defs>
       <path id="DejaVuSans-35" d="M 691 4666 
L 3169 4666 
L 3169 4134 
L 1269 4134 
L 1269 2991 
Q 1406 3038 1543 3061 
Q 1681 3084 1819 3084 
Q 2600 3084 3056 2656 
Q 3513 2228 3513 1497 
Q 3513 744 3044 326 
Q 2575 -91 1722 -91 
Q 1428 -91 1123 -41 
Q 819 9 494 109 
L 494 744 
Q 775 591 1075 516 
Q 1375 441 1709 441 
Q 2250 441 2565 725 
Q 2881 1009 2881 1497 
Q 2881 1984 2565 2268 
Q 2250 2553 1709 2553 
Q 1456 2553 1204 2497 
Q 953 2441 691 2322 
L 691 4666 
z
" transform="scale(0.015625)"/>
      </defs>
      <use xlink:href="#DejaVuSans-35"/>
     </g>
    </g>
   </g>
   <g id="text_7">
    <g clip-path="url(#p8c11f8fbd8)">
     <!-- 6 -->
     <g style="opacity: 0" transform="translate(26.169547 790.919669) rotate(-314.588652) scale(0.12 -0.12)">
      <defs>
       <path id="DejaVuSans-36" d="M 2113 2584 
Q 1688 2584 1439 2293 
Q 1191 2003 1191 1497 
Q 1191 994 1439 701 
Q 1688 409 2113 409 
Q 2538 409 2786 701 
Q 3034 994 3034 1497 
Q 3034 2003 2786 2293 
Q 2538 2584 2113 2584 
z
M 3366 4563 
L 3366 3988 
Q 3128 4100 2886 4159 
Q 2644 4219 2406 4219 
Q 1781 4219 1451 3797 
Q 1122 3375 1075 2522 
Q 1259 2794 1537 2939 
Q 1816 3084 2150 3084 
Q 2853 3084 3261 2657 
Q 3669 2231 3669 1497 
Q 3669 778 3244 343 
Q 2819 -91 2113 -91 
Q 1303 -91 875 529 
Q 447 1150 447 2328 
Q 447 3434 972 4092 
Q 1497 4750 2381 4750 
Q 2619 4750 2861 4703 
Q 3103 4656 3366 4563 
z
" transform="scale(0.015625)"/>
      </defs>
      <use xlink:href="#DejaVuSans-36"/>
     </g>
    </g>
   </g>
   <g id="text_8">
    <g clip-path="url(#p8c11f8fbd8)">
     <!-- 7 -->
     <g style="opacity: 0" transform="translate(30.577228 796.7735) rotate(-306.087448) scale(0.12 -0.12)">
      <defs>
       <path id="DejaVuSans-37" d="M 525 4666 
L 3525 4666 
L 3525 4397 
L 1831 0 
L 1172 0 
L 2766 4134 
L 525 4134 
L 525 4666 
z
" transform="scale(0.015625)"/>
      </defs>
      <use xlink:href="#DejaVuSans-37"/>
     </g>
    </g>
   </g>
   <g id="text_9">
    <g clip-path="url(#p8c11f8fbd8)">
     <!-- 7 -->
     <g style="opacity: 0" transform="translate(78.896779 818.134004) rotate(-6.947597) scale(0.12 -0.12)">
      <use xlink:href="#DejaVuSans-37"/>
     </g>
    </g>
   </g>
   <g id="text_10">
    <g clip-path="url(#p8c11f8fbd8)">
     <!-- 8 -->
     <g style="opacity: 0" transform="translate(28.011015 792.940922) rotate(-305.057292) scale(0.12 -0.12)">
      <defs>
       <path id="DejaVuSans-38" d="M 2034 2216 
Q 1584 2216 1326 1975 
Q 1069 1734 1069 1313 
Q 1069 891 1326 650 
Q 1584 409 2034 409 
Q 2484 409 2743 651 
Q 3003 894 3003 1313 
Q 3003 1734 2745 1975 
Q 2488 2216 2034 2216 
z
M 1403 2484 
Q 997 2584 770 2862 
Q 544 3141 544 3541 
Q 544 4100 942 4425 
Q 1341 4750 2034 4750 
Q 2731 4750 3128 4425 
Q 3525 4100 3525 3541 
Q 3525 3141 3298 2862 
Q 3072 2584 2669 2484 
Q 3125 2378 3379 2068 
Q 3634 1759 3634 1313 
Q 3634 634 3220 271 
Q 2806 -91 2034 -91 
Q 1263 -91 848 271 
Q 434 634 434 1313 
Q 434 1759 690 2068 
Q 947 2378 1403 2484 
z
M 1172 3481 
Q 1172 3119 1398 2916 
Q 1625 2713 2034 2713 
Q 2441 2713 2670 2916 
Q 2900 3119 2900 3481 
Q 2900 3844 2670 4047 
Q 2441 4250 2034 4250 
Q 1625 4250 1398 4047 
Q 1172 3844 1172 3481 
z
" transform="scale(0.015625)"/>
      </defs>
      <use xlink:href="#DejaVuSans-38"/>
     </g>
    </g>
   </g>
   <g id="text_11">
    <g clip-path="url(#p8c11f8fbd8)">
     <!-- 9 -->
     <g style="opacity: 0" transform="translate(31.906187 800.774279) rotate(-314.169871) scale(0.12 -0.12)">
      <defs>
       <path id="DejaVuSans-39" d="M 703 97 
L 703 672 
Q 941 559 1184 500 
Q 1428 441 1663 441 
Q 2288 441 2617 861 
Q 2947 1281 2994 2138 
Q 2813 1869 2534 1725 
Q 2256 1581 1919 1581 
Q 1219 1581 811 2004 
Q 403 2428 403 3163 
Q 403 3881 828 4315 
Q 1253 4750 1959 4750 
Q 2769 4750 3195 4129 
Q 3622 3509 3622 2328 
Q 3622 1225 3098 567 
Q 2575 -91 1691 -91 
Q 1453 -91 1209 -44 
Q 966 3 703 97 
z
M 1959 2075 
Q 2384 2075 2632 2365 
Q 2881 2656 2881 3163 
Q 2881 3666 2632 3958 
Q 2384 4250 1959 4250 
Q 1534 4250 1286 3958 
Q 1038 3666 1038 3163 
Q 1038 2656 1286 2365 
Q 1534 2075 1959 2075 
z
" transform="scale(0.015625)"/>
      </defs>
      <use xlink:href="#DejaVuSans-39"/>
     </g>
    </g>
   </g>
   <g id="text_12">
    <g clip-path="url(#p8c11f8fbd8)">
     <!-- 10 -->
     <g style="opacity: 0" transform="translate(32.775297 799.514484) rotate(-300.426616) scale(0.12 -0.12)">
      <use xlink:href="#DejaVuSans-31"/>
      <use xlink:href="#DejaVuSans-30" transform="translate(63.623047 0)"/>
     </g>
    </g>
   </g>
   <g id="text_13">
    <g clip-path="url(#p8c11f8fbd8)">
     <!-- 11 -->
     <g style="opacity: 0" transform="translate(15.461544 797.350272) rotate(-312.147966) scale(0.12 -0.12)">
      <use xlink:href="#DejaVuSans-31"/>
      <use xlink:href="#DejaVuSans-31" transform="translate(63.623047 0)"/>
     </g>
    </g>
   </g>
   <g id="text_14">
    <g clip-path="url(#p8c11f8fbd8)">
     <!-- 12 -->
     <g style="opacity: 0" transform="translate(5.813232 799.07932) rotate(-308.619869) scale(0.12 -0.12)">
      <use xlink:href="#DejaVuSans-31"/>
      <use xlink:href="#DejaVuSans-32" transform="translate(63.623047 0)"/>
     </g>
    </g>
   </g>
  </g>
 </g>
 <defs>
  <clipPath id="p8c11f8fbd8">
   <rect x="0" y="0" width="576" height="820.98809"/>
  </clipPath>
 </defs>
</svg>
