<?xml version="1.0" encoding="utf-8" standalone="no"?>
<!DOCTYPE svg PUBLIC "-//W3C//DTD SVG 1.1//EN"
  "http://www.w3.org/Graphics/SVG/1.1/DTD/svg11.dtd">
<svg xmlns:xlink="http://www.w3.org/1999/xlink" width="576pt" height="820.697178pt" viewBox="0 0 576 820.697178" xmlns="http://www.w3.org/2000/svg" version="1.1">
 <metadata>
  <rdf:RDF xmlns:dc="http://purl.org/dc/elements/1.1/" xmlns:cc="http://creativecommons.org/ns#" xmlns:rdf="http://www.w3.org/1999/02/22-rdf-syntax-ns#">
   <cc:Work>
    <dc:type rdf:resource="http://purl.org/dc/dcmitype/StillImage"/>
    <dc:date>2025-07-25T22:45:38.058625</dc:date>
    <dc:format>image/svg+xml</dc:format>
    <dc:creator>
     <cc:Agent>
      <dc:title>Matplotlib v3.10.3, https://matplotlib.org/</dc:title>
     </cc:Agent>
    </dc:creator>
   </cc:Work>
  </rdf:RDF>
 </metadata>
 <defs>
  <style type="text/css">*{stroke-linejoin: round; stroke-linecap: butt}</style>
 </defs>
 <g id="figure_1">
  <g id="patch_1">
   <path d="M 0 820.697178 
L 576 820.697178 
L 576 0 
L 0 0 
L 0 820.697178 
z
" style="fill: none; opacity: 0"/>
  </g>
  <g id="axes_1">
   <g id="QuadContourSet_1">
    <path d="M 177.737143 818.397763 
L 181.028571 820.421771 
L 183.885766 820.697178 
L 184.32 820.697178 
L 187.611429 820.697178 
L 190.443226 820.697178 
L 187.611429 818.410911 
L 184.32 818.382065 
L 181.028571 818.253868 
L 178.561523 817.401205 
L 177.737143 816.609171 
L 174.445714 814.822996 
L 171.154286 814.572726 
L 169.47785 814.105233 
L 167.862857 812.350621 
L 164.571429 811.492178 
L 164.269386 810.80926 
L 161.28 807.815747 
L 157.988571 809.705914 
L 154.697143 808.408772 
L 151.405714 808.354557 
L 148.114286 807.67345 
L 147.829405 807.513287 
L 144.822857 805.736425 
L 141.531429 805.441151 
L 138.24 804.557933 
L 137.253433 804.217315 
L 134.948571 802.236889 
L 131.657143 801.670111 
L 131.304659 800.921342 
L 128.365714 797.97834 
L 125.253471 800.921342 
L 125.074286 801.178258 
L 124.241136 800.921342 
L 124.721802 797.62537 
L 121.782857 794.682368 
L 118.491429 794.682368 
L 115.595272 797.62537 
L 115.2 798.503119 
L 111.908571 798.26354 
L 110.920974 797.62537 
L 108.617143 795.850736 
L 105.325714 796.498227 
L 102.034286 795.156175 
L 98.742857 794.624082 
L 96.947211 794.329397 
L 95.451429 793.227613 
L 92.16 792.297665 
L 91.765811 791.033424 
L 88.868571 788.132185 
L 85.577143 788.132185 
L 85.182954 787.737452 
L 82.285714 784.441479 
L 79.487236 787.737452 
L 79.486077 791.033424 
L 78.994286 792.019711 
L 75.702857 791.113715 
L 75.530091 791.033424 
L 72.411429 789.559789 
L 69.12 789.891677 
L 65.828571 790.401999 
L 62.537143 788.676523 
L 59.245714 788.323583 
L 55.954286 787.982981 
L 54.47004 787.737452 
L 52.662857 786.622993 
L 52.171328 784.441479 
L 49.371429 781.637714 
L 46.08 781.637714 
L 45.588471 781.145507 
L 42.788571 777.849534 
L 39.881493 781.145507 
L 39.781676 784.441479 
L 39.497143 785.120574 
L 36.205714 785.22609 
L 33.339563 784.441479 
L 32.914286 783.987771 
L 29.622857 782.89076 
L 26.331429 783.616974 
L 23.04 781.715877 
L 19.748571 781.540239 
L 19.467661 781.145507 
L 16.457143 778.130833 
L 13.209314 781.145507 
L 13.165714 781.2019 
L 12.884608 781.145507 
L 12.884804 777.849534 
L 9.874286 774.83486 
L 6.582857 774.83486 
L 3.476246 777.849534 
L 3.291429 778.228354 
L 0 778.280103 
L 0 779.510622 
L 3.291429 779.310978 
L 4.004434 777.849534 
L 6.582857 775.347416 
L 9.874286 775.347416 
L 12.372954 777.849534 
L 9.874286 781.044414 
L 9.324353 781.145507 
L 9.874286 781.30341 
L 13.165714 781.91613 
L 13.761512 781.145507 
L 16.457143 778.643389 
L 18.955811 781.145507 
L 19.748571 782.259484 
L 23.04 782.755155 
L 25.229236 784.441479 
L 26.331429 784.940235 
L 29.622857 785.107136 
L 32.914286 786.666606 
L 36.205714 786.554981 
L 39.497143 786.357958 
L 40.300126 784.441479 
L 40.58182 781.145507 
L 42.788571 778.643547 
L 44.913964 781.145507 
L 46.08 782.313153 
L 49.371429 782.313153 
L 51.496821 784.441479 
L 49.615657 787.737452 
L 52.662857 788.346311 
L 55.954286 788.786012 
L 59.245714 789.12791 
L 62.537143 789.965176 
L 64.184499 791.033424 
L 65.828571 791.733414 
L 69.12 792.109131 
L 72.411429 793.497221 
L 75.702857 793.573234 
L 78.994286 793.373156 
L 80.160944 791.033424 
L 80.163694 787.737452 
L 82.285714 785.238193 
L 84.482623 787.737452 
L 85.577143 788.833483 
L 88.868571 788.833483 
L 91.06548 791.033424 
L 91.654911 794.329397 
L 92.16 794.454168 
L 95.451429 794.99695 
L 98.742857 795.492605 
L 102.034286 796.625059 
L 103.648615 797.62537 
L 105.325714 798.324987 
L 108.617143 798.573107 
L 111.908571 800.530912 
L 115.2 800.062561 
L 116.297527 797.62537 
L 118.491429 795.395981 
L 121.782857 795.395981 
L 124.009172 797.62537 
L 121.782857 800.633086 
L 120.732274 800.921342 
L 121.782857 801.49182 
L 125.074286 802.260277 
L 126.008122 800.921342 
L 128.365714 798.691954 
L 130.592029 800.921342 
L 131.657143 803.183924 
L 134.052436 804.217315 
L 134.948571 804.4707 
L 138.24 805.62664 
L 141.253948 807.513287 
L 141.531429 807.676051 
L 144.822857 808.268787 
L 148.114286 810.595086 
L 151.405714 810.055383 
L 154.697143 810.219207 
L 155.657655 810.80926 
L 157.988571 812.051294 
L 158.655528 810.80926 
L 161.28 808.543695 
L 163.542442 810.80926 
L 164.571429 813.135796 
L 166.309681 814.105233 
L 167.862857 814.671235 
L 171.154286 815.524898 
L 174.445714 816.550478 
L 175.636657 817.401205 
z
" clip-path="url(#p30ea76ab65)" style="fill: #f5f9fe; fill-opacity: 0.9"/>
    <path d="M 174.445714 818.038561 
L 177.737143 819.545115 
L 179.497838 820.697178 
L 181.028571 820.697178 
L 183.885766 820.697178 
L 181.028571 820.421771 
L 177.737143 818.397763 
L 175.636657 817.401205 
L 174.445714 816.550478 
L 171.154286 815.524898 
L 167.862857 814.671235 
L 166.309681 814.105233 
L 164.571429 813.135796 
L 163.542442 810.80926 
L 161.28 808.543695 
L 158.655528 810.80926 
L 157.988571 812.051294 
L 155.657655 810.80926 
L 154.697143 810.219207 
L 151.405714 810.055383 
L 148.114286 810.595086 
L 144.822857 808.268787 
L 141.531429 807.676051 
L 141.253948 807.513287 
L 138.24 805.62664 
L 134.948571 804.4707 
L 134.052436 804.217315 
L 131.657143 803.183924 
L 130.592029 800.921342 
L 128.365714 798.691954 
L 126.008122 800.921342 
L 125.074286 802.260277 
L 121.782857 801.49182 
L 120.732274 800.921342 
L 121.782857 800.633086 
L 124.009172 797.62537 
L 121.782857 795.395981 
L 118.491429 795.395981 
L 116.297527 797.62537 
L 115.2 800.062561 
L 111.908571 800.530912 
L 108.617143 798.573107 
L 105.325714 798.324987 
L 103.648615 797.62537 
L 102.034286 796.625059 
L 98.742857 795.492605 
L 95.451429 794.99695 
L 92.16 794.454168 
L 91.654911 794.329397 
L 91.06548 791.033424 
L 88.868571 788.833483 
L 85.577143 788.833483 
L 84.482623 787.737452 
L 82.285714 785.238193 
L 80.163694 787.737452 
L 80.160944 791.033424 
L 78.994286 793.373156 
L 75.702857 793.573234 
L 72.411429 793.497221 
L 69.12 792.109131 
L 65.828571 791.733414 
L 64.184499 791.033424 
L 62.537143 789.965176 
L 59.245714 789.12791 
L 55.954286 788.786012 
L 52.662857 788.346311 
L 49.615657 787.737452 
L 51.496821 784.441479 
L 49.371429 782.313153 
L 46.08 782.313153 
L 44.913964 781.145507 
L 42.788571 778.643547 
L 40.58182 781.145507 
L 40.300126 784.441479 
L 39.497143 786.357958 
L 36.205714 786.554981 
L 32.914286 786.666606 
L 29.622857 785.107136 
L 26.331429 784.940235 
L 25.229236 784.441479 
L 23.04 782.755155 
L 19.748571 782.259484 
L 18.955811 781.145507 
L 16.457143 778.643389 
L 13.761512 781.145507 
L 13.165714 781.91613 
L 9.874286 781.30341 
L 9.324353 781.145507 
L 9.874286 781.044414 
L 12.372954 777.849534 
L 9.874286 775.347416 
L 6.582857 775.347416 
L 4.004434 777.849534 
L 3.291429 779.310978 
L 0 779.510622 
L 0 780.74114 
L 3.291429 780.393602 
L 4.532621 777.849534 
L 6.582857 775.859973 
L 9.874286 775.859973 
L 11.861104 777.849534 
L 9.874286 780.389946 
L 6.582857 780.961155 
L 5.764098 781.145507 
L 6.582857 781.532019 
L 9.874286 782.325676 
L 13.165714 782.630361 
L 14.313709 781.145507 
L 16.457143 779.155946 
L 18.443961 781.145507 
L 19.748571 782.978729 
L 23.04 783.794433 
L 23.880015 784.441479 
L 26.331429 785.550775 
L 29.622857 786.406336 
L 31.749844 787.737452 
L 32.914286 788.144267 
L 36.205714 787.97377 
L 37.817307 787.737452 
L 39.497143 787.595342 
L 40.818577 784.441479 
L 41.282147 781.145507 
L 42.788571 779.437561 
L 44.239456 781.145507 
L 46.08 782.988591 
L 49.371429 782.988591 
L 50.822313 784.441479 
L 49.371429 786.72796 
L 46.08 787.367873 
L 43.92446 787.737452 
L 46.08 788.216528 
L 49.371429 788.900323 
L 52.662857 789.316262 
L 55.954286 789.589042 
L 59.245714 789.932237 
L 62.171618 791.033424 
L 62.537143 791.22888 
L 65.828571 792.579514 
L 69.12 793.861741 
L 69.898529 794.329397 
L 72.411429 795.172424 
L 75.702857 795.963056 
L 78.994286 796.758324 
L 81.416045 794.329397 
L 80.835811 791.033424 
L 80.840151 787.737452 
L 82.285714 786.034907 
L 83.782292 787.737452 
L 85.577143 789.53478 
L 88.868571 789.53478 
L 90.36515 791.033424 
L 88.868571 793.731544 
L 86.362612 794.329397 
L 88.868571 795.369619 
L 92.16 795.76151 
L 95.451429 795.927512 
L 98.742857 796.361129 
L 101.442631 797.62537 
L 102.034286 798.020213 
L 105.325714 799.313874 
L 108.340629 800.921342 
L 108.617143 801.098011 
L 111.908571 801.961434 
L 115.2 804.071304 
L 118.491429 803.803605 
L 121.782857 803.397168 
L 125.074286 803.342296 
L 126.762773 800.921342 
L 128.365714 799.405568 
L 129.879399 800.921342 
L 130.543573 804.217315 
L 131.657143 804.738807 
L 134.948571 805.462843 
L 138.24 806.695346 
L 139.546673 807.513287 
L 141.531429 808.677498 
L 144.822857 810.061402 
L 145.844633 810.80926 
L 148.114286 811.853985 
L 151.405714 813.7417 
L 153.142423 814.105233 
L 154.697143 814.224291 
L 155.247209 814.105233 
L 157.988571 813.621662 
L 159.498796 810.80926 
L 161.28 809.271642 
L 162.815498 810.80926 
L 163.329891 814.105233 
L 164.571429 814.959377 
L 167.862857 815.745206 
L 171.154286 816.47707 
L 173.315533 817.401205 
z
M 116.999782 797.62537 
L 118.491429 796.109595 
L 121.782857 796.109595 
L 123.296542 797.62537 
L 121.782857 799.670334 
L 118.491429 800.442121 
z
" clip-path="url(#p30ea76ab65)" style="fill: #eff6fc; fill-opacity: 0.9"/>
    <path d="M 157.988571 818.495182 
L 161.28 818.705691 
L 163.033744 817.401205 
L 164.571429 817.041734 
L 167.862857 816.819177 
L 170.984673 817.401205 
L 171.154286 817.492179 
L 174.445714 819.294352 
L 177.737143 820.692466 
L 177.744343 820.697178 
L 179.497838 820.697178 
L 177.737143 819.545115 
L 174.445714 818.038561 
L 173.315533 817.401205 
L 171.154286 816.47707 
L 167.862857 815.745206 
L 164.571429 814.959377 
L 163.329891 814.105233 
L 162.815498 810.80926 
L 161.28 809.271642 
L 159.498796 810.80926 
L 157.988571 813.621662 
L 155.247209 814.105233 
L 154.697143 814.224291 
L 153.142423 814.105233 
L 151.405714 813.7417 
L 148.114286 811.853985 
L 145.844633 810.80926 
L 144.822857 810.061402 
L 141.531429 808.677498 
L 139.546673 807.513287 
L 138.24 806.695346 
L 134.948571 805.462843 
L 131.657143 804.738807 
L 130.543573 804.217315 
L 129.879399 800.921342 
L 128.365714 799.405568 
L 126.762773 800.921342 
L 125.074286 803.342296 
L 121.782857 803.397168 
L 118.491429 803.803605 
L 115.2 804.071304 
L 111.908571 801.961434 
L 108.617143 801.098011 
L 108.340629 800.921342 
L 105.325714 799.313874 
L 102.034286 798.020213 
L 101.442631 797.62537 
L 98.742857 796.361129 
L 95.451429 795.927512 
L 92.16 795.76151 
L 88.868571 795.369619 
L 86.362612 794.329397 
L 88.868571 793.731544 
L 90.36515 791.033424 
L 88.868571 789.53478 
L 85.577143 789.53478 
L 83.782292 787.737452 
L 82.285714 786.034907 
L 80.840151 787.737452 
L 80.835811 791.033424 
L 81.416045 794.329397 
L 78.994286 796.758324 
L 75.702857 795.963056 
L 72.411429 795.172424 
L 69.898529 794.329397 
L 69.12 793.861741 
L 65.828571 792.579514 
L 62.537143 791.22888 
L 62.171618 791.033424 
L 59.245714 789.932237 
L 55.954286 789.589042 
L 52.662857 789.316262 
L 49.371429 788.900323 
L 46.08 788.216528 
L 43.92446 787.737452 
L 46.08 787.367873 
L 49.371429 786.72796 
L 50.822313 784.441479 
L 49.371429 782.988591 
L 46.08 782.988591 
L 44.239456 781.145507 
L 42.788571 779.437561 
L 41.282147 781.145507 
L 40.818577 784.441479 
L 39.497143 787.595342 
L 37.817307 787.737452 
L 36.205714 787.97377 
L 32.914286 788.144267 
L 31.749844 787.737452 
L 29.622857 786.406336 
L 26.331429 785.550775 
L 23.880015 784.441479 
L 23.04 783.794433 
L 19.748571 782.978729 
L 18.443961 781.145507 
L 16.457143 779.155946 
L 14.313709 781.145507 
L 13.165714 782.630361 
L 9.874286 782.325676 
L 6.582857 781.532019 
L 5.764098 781.145507 
L 6.582857 780.961155 
L 9.874286 780.389946 
L 11.861104 777.849534 
L 9.874286 775.859973 
L 6.582857 775.859973 
L 4.532621 777.849534 
L 3.291429 780.393602 
L 0 780.74114 
L 0 781.145507 
L 0 782.802709 
L 3.291429 781.926553 
L 6.582857 783.212713 
L 9.874286 783.347942 
L 13.165714 783.344591 
L 14.865907 781.145507 
L 16.457143 779.668502 
L 17.932111 781.145507 
L 19.748571 783.697974 
L 22.159711 784.441479 
L 23.04 784.801221 
L 26.331429 786.161315 
L 29.622857 787.705536 
L 29.673856 787.737452 
L 32.914286 788.869544 
L 36.205714 790.118579 
L 38.125089 791.033424 
L 39.497143 791.320533 
L 41.726064 791.033424 
L 42.788571 790.555412 
L 46.08 789.980061 
L 49.371429 790.124798 
L 52.662857 790.286214 
L 55.954286 790.392073 
L 59.245714 790.736564 
L 60.034486 791.033424 
L 62.537143 792.371656 
L 65.828571 793.425614 
L 67.780352 794.329397 
L 69.12 795.275594 
L 72.411429 796.151235 
L 75.163289 797.62537 
L 75.702857 798.031209 
L 78.994286 798.664652 
L 82.285714 799.845996 
L 85.577143 800.394524 
L 88.647304 797.62537 
L 88.868571 797.56645 
L 92.16 797.068852 
L 95.451429 796.858073 
L 98.742857 797.229652 
L 99.587908 797.62537 
L 102.034286 799.257969 
L 105.325714 800.30276 
L 106.485906 800.921342 
L 108.617143 802.283022 
L 111.908571 803.217879 
L 113.383905 804.217315 
L 115.2 805.425301 
L 118.491429 805.850462 
L 120.740553 807.513287 
L 121.782857 808.183514 
L 125.074286 807.700724 
L 125.669332 807.513287 
L 128.365714 806.030537 
L 131.657143 806.382031 
L 134.948571 806.454985 
L 137.646518 807.513287 
L 138.24 808.078827 
L 141.531429 809.678944 
L 143.702034 810.80926 
L 144.822857 811.927099 
L 148.114286 812.981353 
L 149.816277 814.105233 
L 151.405714 815.587796 
L 154.697143 816.151168 
L 156.452931 817.401205 
z
M 160.342063 810.80926 
L 161.28 809.99959 
L 162.088554 810.80926 
L 161.28 813.363928 
z
M 127.517424 800.921342 
L 128.365714 800.119182 
L 129.166769 800.921342 
L 128.365714 803.385705 
z
M 81.510678 791.033424 
L 81.516609 787.737452 
L 82.285714 786.831621 
L 83.081962 787.737452 
L 85.577143 790.236078 
L 88.868571 790.236078 
L 89.664819 791.033424 
L 88.868571 792.468946 
L 85.577143 792.917914 
L 82.285714 792.886149 
z
M 41.337027 784.441479 
L 41.982475 781.145507 
L 42.788571 780.231574 
L 43.564949 781.145507 
L 46.08 783.66403 
L 49.371429 783.66403 
L 50.147806 784.441479 
L 49.371429 785.664989 
L 46.08 786.007411 
L 42.788571 786.965115 
z
M 5.060809 777.849534 
L 6.582857 776.37253 
L 9.874286 776.37253 
L 11.349254 777.849534 
L 9.874286 779.735478 
L 6.582857 780.15953 
z
M 118.491429 800.442121 
L 121.782857 799.670334 
L 123.296542 797.62537 
L 121.782857 796.109595 
L 118.491429 796.109595 
L 116.999782 797.62537 
z
M 117.702036 797.62537 
L 118.491429 796.823209 
L 121.782857 796.823209 
L 122.583912 797.62537 
L 121.782857 798.707582 
L 118.491429 799.116018 
z
" clip-path="url(#p30ea76ab65)" style="fill: #eaf3fb; fill-opacity: 0.9"/>
    <path d="M 154.697143 819.731315 
L 157.988571 820.423246 
L 158.544281 820.697178 
L 161.28 820.697178 
L 164.571429 820.697178 
L 167.862857 820.697178 
L 170.821678 820.697178 
L 171.154286 820.58187 
L 174.445714 820.550143 
L 174.791973 820.697178 
L 177.737143 820.697178 
L 177.744343 820.697178 
L 177.737143 820.692466 
L 174.445714 819.294352 
L 171.154286 817.492179 
L 170.984673 817.401205 
L 167.862857 816.819177 
L 164.571429 817.041734 
L 163.033744 817.401205 
L 161.28 818.705691 
L 157.988571 818.495182 
L 156.452931 817.401205 
L 154.697143 816.151168 
L 151.405714 815.587796 
L 149.816277 814.105233 
L 148.114286 812.981353 
L 144.822857 811.927099 
L 143.702034 810.80926 
L 141.531429 809.678944 
L 138.24 808.078827 
L 137.646518 807.513287 
L 134.948571 806.454985 
L 131.657143 806.382031 
L 128.365714 806.030537 
L 125.669332 807.513287 
L 125.074286 807.700724 
L 121.782857 808.183514 
L 120.740553 807.513287 
L 118.491429 805.850462 
L 115.2 805.425301 
L 113.383905 804.217315 
L 111.908571 803.217879 
L 108.617143 802.283022 
L 106.485906 800.921342 
L 105.325714 800.30276 
L 102.034286 799.257969 
L 99.587908 797.62537 
L 98.742857 797.229652 
L 95.451429 796.858073 
L 92.16 797.068852 
L 88.868571 797.56645 
L 88.647304 797.62537 
L 85.577143 800.394524 
L 82.285714 799.845996 
L 78.994286 798.664652 
L 75.702857 798.031209 
L 75.163289 797.62537 
L 72.411429 796.151235 
L 69.12 795.275594 
L 67.780352 794.329397 
L 65.828571 793.425614 
L 62.537143 792.371656 
L 60.034486 791.033424 
L 59.245714 790.736564 
L 55.954286 790.392073 
L 52.662857 790.286214 
L 49.371429 790.124798 
L 46.08 789.980061 
L 42.788571 790.555412 
L 41.726064 791.033424 
L 39.497143 791.320533 
L 38.125089 791.033424 
L 36.205714 790.118579 
L 32.914286 788.869544 
L 29.673856 787.737452 
L 29.622857 787.705536 
L 26.331429 786.161315 
L 23.04 784.801221 
L 22.159711 784.441479 
L 19.748571 783.697974 
L 17.932111 781.145507 
L 16.457143 779.668502 
L 14.865907 781.145507 
L 13.165714 783.344591 
L 9.874286 783.347942 
L 6.582857 783.212713 
L 3.291429 781.926553 
L 0 782.802709 
L 0 784.441479 
L 0 784.742483 
L 3.291429 784.47512 
L 6.582857 784.984969 
L 9.196592 784.441479 
L 9.874286 784.370208 
L 13.165714 784.058822 
L 15.418105 781.145507 
L 16.457143 780.181059 
L 17.420261 781.145507 
L 19.748571 784.417219 
L 19.827245 784.441479 
L 23.04 785.754411 
L 26.331429 786.771854 
L 28.367247 787.737452 
L 29.622857 788.643315 
L 32.914286 789.594821 
L 35.467537 791.033424 
L 36.205714 791.552631 
L 39.497143 792.262153 
L 42.5501 794.329397 
L 42.788571 794.493425 
L 46.08 794.395539 
L 46.4379 794.329397 
L 49.371429 792.323885 
L 52.662857 791.732649 
L 55.954286 791.474024 
L 59.245714 792.088789 
L 62.537143 793.514433 
L 65.828571 794.271714 
L 65.953142 794.329397 
L 69.12 796.566157 
L 72.411429 797.130047 
L 73.336079 797.62537 
L 75.702857 799.405555 
L 78.994286 799.825552 
L 80.972707 800.921342 
L 82.285714 801.912441 
L 85.577143 802.246588 
L 88.868571 803.276618 
L 92.16 803.968441 
L 95.451429 802.312168 
L 96.095828 800.921342 
L 98.742857 799.995752 
L 102.034286 800.495725 
L 103.609885 800.921342 
L 105.325714 802.296909 
L 108.617143 803.468033 
L 111.104043 804.217315 
L 111.908571 804.867114 
L 115.2 806.65898 
L 118.334625 807.513287 
L 118.491429 807.610221 
L 121.782857 809.68165 
L 125.074286 810.438865 
L 125.707655 810.80926 
L 128.365714 812.164591 
L 131.657143 812.393361 
L 133.562487 810.80926 
L 134.368303 807.513287 
L 134.948571 807.447128 
L 135.117233 807.513287 
L 138.24 810.489031 
L 141.531429 810.680391 
L 141.778902 810.80926 
L 144.822857 813.84511 
L 148.040852 814.105233 
L 148.114286 814.175128 
L 151.405714 817.180274 
L 152.337627 817.401205 
z
M 161.28 813.363928 
L 162.088554 810.80926 
L 161.28 809.99959 
L 160.342063 810.80926 
z
M 161.185331 810.80926 
L 161.28 810.727538 
L 161.36161 810.80926 
L 161.28 811.067111 
z
M 128.365714 803.385705 
L 129.166769 800.921342 
L 128.365714 800.119182 
L 127.517424 800.921342 
z
M 128.272075 800.921342 
L 128.365714 800.832795 
L 128.454139 800.921342 
L 128.365714 801.193372 
z
M 118.491429 799.116018 
L 121.782857 798.707582 
L 122.583912 797.62537 
L 121.782857 796.823209 
L 118.491429 796.823209 
L 117.702036 797.62537 
z
M 118.404291 797.62537 
L 118.491429 797.536823 
L 121.782857 797.536823 
L 121.871282 797.62537 
L 121.782857 797.74483 
L 118.491429 797.789916 
z
M 82.285714 792.886149 
L 85.577143 792.917914 
L 88.868571 792.468946 
L 89.664819 791.033424 
L 88.868571 790.236078 
L 85.577143 790.236078 
L 83.081962 787.737452 
L 82.285714 786.831621 
L 81.516609 787.737452 
L 81.510678 791.033424 
z
M 82.185544 791.033424 
L 82.193067 787.737452 
L 82.285714 787.628334 
L 82.381631 787.737452 
L 85.577143 790.937375 
L 88.868571 790.937375 
L 88.964488 791.033424 
L 88.868571 791.206349 
L 85.577143 791.260432 
L 82.285714 791.27288 
z
M 42.788571 786.965115 
L 46.08 786.007411 
L 49.371429 785.664989 
L 50.147806 784.441479 
L 49.371429 783.66403 
L 46.08 783.66403 
L 43.564949 781.145507 
L 42.788571 780.231574 
L 41.982475 781.145507 
L 41.337027 784.441479 
z
M 41.855477 784.441479 
L 42.682802 781.145507 
L 42.788571 781.025588 
L 42.890441 781.145507 
L 46.08 784.339469 
L 49.371429 784.339469 
L 49.473299 784.441479 
L 49.371429 784.602018 
L 46.08 784.646948 
L 42.788571 786.063744 
z
M 6.582857 780.15953 
L 9.874286 779.735478 
L 11.349254 777.849534 
L 9.874286 776.37253 
L 6.582857 776.37253 
L 5.060809 777.849534 
z
M 5.588997 777.849534 
L 6.582857 776.885086 
L 9.874286 776.885086 
L 10.837404 777.849534 
L 9.874286 779.081009 
L 6.582857 779.357905 
z
" clip-path="url(#p30ea76ab65)" style="fill: #e5eff9; fill-opacity: 0.9"/>
    <path d="M 134.948571 817.838798 
L 138.24 819.289506 
L 140.453104 820.697178 
L 141.531429 820.697178 
L 144.822857 820.697178 
L 148.114286 820.697178 
L 151.405714 820.697178 
L 154.697143 820.697178 
L 157.988571 820.697178 
L 158.544281 820.697178 
L 157.988571 820.423246 
L 154.697143 819.731315 
L 152.337627 817.401205 
L 151.405714 817.180274 
L 148.114286 814.175128 
L 148.040852 814.105233 
L 144.822857 813.84511 
L 141.778902 810.80926 
L 141.531429 810.680391 
L 138.24 810.489031 
L 135.117233 807.513287 
L 134.948571 807.447128 
L 134.368303 807.513287 
L 133.562487 810.80926 
L 131.657143 812.393361 
L 128.365714 812.164591 
L 125.707655 810.80926 
L 125.074286 810.438865 
L 121.782857 809.68165 
L 118.491429 807.610221 
L 118.334625 807.513287 
L 115.2 806.65898 
L 111.908571 804.867114 
L 111.104043 804.217315 
L 108.617143 803.468033 
L 105.325714 802.296909 
L 103.609885 800.921342 
L 102.034286 800.495725 
L 98.742857 799.995752 
L 96.095828 800.921342 
L 95.451429 802.312168 
L 92.16 803.968441 
L 88.868571 803.276618 
L 85.577143 802.246588 
L 82.285714 801.912441 
L 80.972707 800.921342 
L 78.994286 799.825552 
L 75.702857 799.405555 
L 73.336079 797.62537 
L 72.411429 797.130047 
L 69.12 796.566157 
L 65.953142 794.329397 
L 65.828571 794.271714 
L 62.537143 793.514433 
L 59.245714 792.088789 
L 55.954286 791.474024 
L 52.662857 791.732649 
L 49.371429 792.323885 
L 46.4379 794.329397 
L 46.08 794.395539 
L 42.788571 794.493425 
L 42.5501 794.329397 
L 39.497143 792.262153 
L 36.205714 791.552631 
L 35.467537 791.033424 
L 32.914286 789.594821 
L 29.622857 788.643315 
L 28.367247 787.737452 
L 26.331429 786.771854 
L 23.04 785.754411 
L 19.827245 784.441479 
L 19.748571 784.417219 
L 17.420261 781.145507 
L 16.457143 780.181059 
L 15.418105 781.145507 
L 13.165714 784.058822 
L 9.874286 784.370208 
L 9.196592 784.441479 
L 6.582857 784.984969 
L 3.291429 784.47512 
L 0 784.742483 
L 0 785.638107 
L 3.291429 786.529844 
L 6.582857 787.006182 
L 9.874286 786.12737 
L 13.165714 785.832283 
L 16.457143 784.765333 
L 19.748571 786.233619 
L 23.04 786.707602 
L 26.331429 787.382394 
L 27.080016 787.737452 
L 29.622857 789.571991 
L 32.914286 790.320099 
L 34.180306 791.033424 
L 36.205714 792.458022 
L 39.497143 793.203773 
L 41.159492 794.329397 
L 42.788571 795.449929 
L 46.08 795.74791 
L 48.883503 797.62537 
L 49.371429 797.919356 
L 51.143767 797.62537 
L 52.662857 795.698622 
L 53.734631 794.329397 
L 55.954286 793.662407 
L 59.245714 793.761526 
L 61.029713 794.329397 
L 62.537143 795.00168 
L 65.828571 796.556723 
L 68.177974 797.62537 
L 69.12 798.031173 
L 72.411429 799.177935 
L 75.702857 800.779901 
L 77.833272 800.921342 
L 78.994286 801.178677 
L 82.285714 803.49455 
L 85.577143 803.672807 
L 86.782888 804.217315 
L 88.868571 805.696877 
L 92.16 805.997959 
L 95.451429 806.724386 
L 97.421171 807.513287 
L 98.742857 807.945503 
L 102.034286 808.772182 
L 105.325714 809.248125 
L 107.559469 810.80926 
L 108.617143 811.140835 
L 111.899738 810.80926 
L 111.908571 810.801108 
L 115.2 810.399941 
L 118.491429 810.408498 
L 119.698442 810.80926 
L 121.782857 812.146754 
L 125.074286 813.024753 
L 127.354071 814.105233 
L 128.365714 814.815958 
L 131.657143 816.158264 
L 134.118316 817.401205 
z
M 15.970302 781.145507 
L 16.457143 780.693615 
L 16.908411 781.145507 
L 16.457143 784.292362 
z
M 171.154286 820.697178 
L 174.445714 820.697178 
L 174.791973 820.697178 
L 174.445714 820.550143 
L 171.154286 820.58187 
L 170.821678 820.697178 
z
M 161.28 811.067111 
L 161.36161 810.80926 
L 161.28 810.727538 
L 161.185331 810.80926 
z
M 128.365714 801.193372 
L 128.454139 800.921342 
L 128.365714 800.832795 
L 128.272075 800.921342 
z
M 118.491429 797.789916 
L 121.782857 797.74483 
L 121.871282 797.62537 
L 121.782857 797.536823 
L 118.491429 797.536823 
L 118.404291 797.62537 
z
M 82.285714 791.27288 
L 85.577143 791.260432 
L 88.868571 791.206349 
L 88.964488 791.033424 
L 88.868571 790.937375 
L 85.577143 790.937375 
L 82.381631 787.737452 
L 82.285714 787.628334 
L 82.193067 787.737452 
L 82.185544 791.033424 
z
M 42.788571 786.063744 
L 46.08 784.646948 
L 49.371429 784.602018 
L 49.473299 784.441479 
L 49.371429 784.339469 
L 46.08 784.339469 
L 42.890441 781.145507 
L 42.788571 781.025588 
L 42.682802 781.145507 
L 41.855477 784.441479 
z
M 42.373928 784.441479 
L 42.788571 782.842666 
L 44.385181 784.441479 
L 42.788571 785.162374 
z
M 6.582857 779.357905 
L 9.874286 779.081009 
L 10.837404 777.849534 
L 9.874286 776.885086 
L 6.582857 776.885086 
L 5.588997 777.849534 
z
M 6.117185 777.849534 
L 6.582857 777.397643 
L 9.874286 777.397643 
L 10.325554 777.849534 
L 9.874286 778.426541 
L 6.582857 778.55628 
z
" clip-path="url(#p30ea76ab65)" style="fill: #dfecf7; fill-opacity: 0.9"/>
    <path d="M 121.782857 818.168889 
L 125.074286 818.597759 
L 128.031631 820.697178 
L 128.365714 820.697178 
L 131.657143 820.697178 
L 132.732031 820.697178 
L 134.948571 820.530557 
L 135.277572 820.697178 
L 138.24 820.697178 
L 140.453104 820.697178 
L 138.24 819.289506 
L 134.948571 817.838798 
L 134.118316 817.401205 
L 131.657143 816.158264 
L 128.365714 814.815958 
L 127.354071 814.105233 
L 125.074286 813.024753 
L 121.782857 812.146754 
L 119.698442 810.80926 
L 118.491429 810.408498 
L 115.2 810.399941 
L 111.908571 810.801108 
L 111.899738 810.80926 
L 108.617143 811.140835 
L 107.559469 810.80926 
L 105.325714 809.248125 
L 102.034286 808.772182 
L 98.742857 807.945503 
L 97.421171 807.513287 
L 95.451429 806.724386 
L 92.16 805.997959 
L 88.868571 805.696877 
L 86.782888 804.217315 
L 85.577143 803.672807 
L 82.285714 803.49455 
L 78.994286 801.178677 
L 77.833272 800.921342 
L 75.702857 800.779901 
L 72.411429 799.177935 
L 69.12 798.031173 
L 68.177974 797.62537 
L 65.828571 796.556723 
L 62.537143 795.00168 
L 61.029713 794.329397 
L 59.245714 793.761526 
L 55.954286 793.662407 
L 53.734631 794.329397 
L 52.662857 795.698622 
L 51.143767 797.62537 
L 49.371429 797.919356 
L 48.883503 797.62537 
L 46.08 795.74791 
L 42.788571 795.449929 
L 41.159492 794.329397 
L 39.497143 793.203773 
L 36.205714 792.458022 
L 34.180306 791.033424 
L 32.914286 790.320099 
L 29.622857 789.571991 
L 27.080016 787.737452 
L 26.331429 787.382394 
L 23.04 786.707602 
L 19.748571 786.233619 
L 16.457143 784.765333 
L 13.165714 785.832283 
L 9.874286 786.12737 
L 6.582857 787.006182 
L 3.291429 786.529844 
L 0 785.638107 
L 0 786.533731 
L 2.518783 787.737452 
L 3.291429 788.410535 
L 6.582857 788.59566 
L 9.874286 788.290108 
L 13.165714 788.580275 
L 16.457143 788.580765 
L 19.748571 788.097884 
L 22.058148 787.737452 
L 23.04 787.660793 
L 23.570608 787.737452 
L 26.331429 789.322688 
L 29.622857 790.500668 
L 32.82238 791.033424 
L 32.914286 791.089924 
L 36.205714 793.363414 
L 39.497143 794.145393 
L 39.768884 794.329397 
L 42.788571 796.406433 
L 46.08 797.10028 
L 46.864086 797.62537 
L 49.371429 799.1361 
L 52.662857 799.52735 
L 55.954286 800.788908 
L 59.239872 797.62537 
L 59.245714 797.622324 
L 62.537143 797.345305 
L 63.122086 797.62537 
L 65.828571 799.360458 
L 69.12 800.294907 
L 70.381437 800.921342 
L 72.411429 801.940971 
L 75.702857 803.215881 
L 77.469963 804.217315 
L 78.994286 804.85845 
L 82.285714 805.923147 
L 84.548593 807.513287 
L 85.577143 807.948368 
L 88.868571 808.282983 
L 92.16 809.515509 
L 95.451429 810.139946 
L 98.742857 810.14871 
L 100.861447 810.80926 
L 102.034286 811.492532 
L 105.325714 812.317808 
L 108.617143 813.295686 
L 110.607043 814.105233 
L 111.908571 814.629255 
L 115.2 815.632712 
L 118.491429 816.690558 
L 119.474952 817.401205 
z
M 42.788571 785.162374 
L 44.385181 784.441479 
L 42.788571 782.842666 
L 42.373928 784.441479 
z
M 16.457143 784.292362 
L 16.908411 781.145507 
L 16.457143 780.693615 
L 15.970302 781.145507 
z
M 6.582857 778.55628 
L 9.874286 778.426541 
L 10.325554 777.849534 
L 9.874286 777.397643 
L 6.582857 777.397643 
L 6.117185 777.849534 
z
" clip-path="url(#p30ea76ab65)" style="fill: #dae8f6; fill-opacity: 0.9"/>
    <path d="M 102.034286 817.677913 
L 105.325714 817.415641 
L 105.436966 817.401205 
L 108.617143 816.98999 
L 111.908571 816.761825 
L 114.488702 817.401205 
L 115.2 817.811317 
L 118.491429 819.066119 
L 121.782857 819.95096 
L 123.493143 820.697178 
L 125.074286 820.697178 
L 128.031631 820.697178 
L 125.074286 818.597759 
L 121.782857 818.168889 
L 119.474952 817.401205 
L 118.491429 816.690558 
L 115.2 815.632712 
L 111.908571 814.629255 
L 110.607043 814.105233 
L 108.617143 813.295686 
L 105.325714 812.317808 
L 102.034286 811.492532 
L 100.861447 810.80926 
L 98.742857 810.14871 
L 95.451429 810.139946 
L 92.16 809.515509 
L 88.868571 808.282983 
L 85.577143 807.948368 
L 84.548593 807.513287 
L 82.285714 805.923147 
L 78.994286 804.85845 
L 77.469963 804.217315 
L 75.702857 803.215881 
L 72.411429 801.940971 
L 70.381437 800.921342 
L 69.12 800.294907 
L 65.828571 799.360458 
L 63.122086 797.62537 
L 62.537143 797.345305 
L 59.245714 797.622324 
L 59.239872 797.62537 
L 55.954286 800.788908 
L 52.662857 799.52735 
L 49.371429 799.1361 
L 46.864086 797.62537 
L 46.08 797.10028 
L 42.788571 796.406433 
L 39.768884 794.329397 
L 39.497143 794.145393 
L 36.205714 793.363414 
L 32.914286 791.089924 
L 32.82238 791.033424 
L 29.622857 790.500668 
L 26.331429 789.322688 
L 23.570608 787.737452 
L 23.04 787.660793 
L 22.058148 787.737452 
L 19.748571 788.097884 
L 16.457143 788.580765 
L 13.165714 788.580275 
L 9.874286 788.290108 
L 6.582857 788.59566 
L 3.291429 788.410535 
L 2.518783 787.737452 
L 0 786.533731 
L 0 787.429355 
L 0.644692 787.737452 
L 3.291429 790.043132 
L 6.582857 789.940387 
L 8.707675 791.033424 
L 9.874286 792.000064 
L 12.777493 791.033424 
L 13.165714 790.895273 
L 16.457143 789.948466 
L 19.748571 790.00315 
L 21.669675 791.033424 
L 23.04 791.651854 
L 26.331429 792.419905 
L 28.850661 794.329397 
L 29.622857 794.730689 
L 32.914286 794.531301 
L 34.401564 794.329397 
L 36.205714 794.268805 
L 36.458464 794.329397 
L 39.497143 796.463433 
L 42.788571 797.362937 
L 43.807716 797.62537 
L 46.08 798.932018 
L 49.371429 800.352845 
L 51.106965 800.921342 
L 52.662857 801.670248 
L 55.954286 802.895307 
L 58.193002 804.217315 
L 59.245714 804.745103 
L 62.537143 805.470795 
L 65.449959 807.513287 
L 65.828571 807.677399 
L 67.869723 807.513287 
L 69.12 806.550806 
L 72.411429 804.328621 
L 75.702857 806.262539 
L 78.994286 806.756792 
L 80.464446 807.513287 
L 82.285714 808.707446 
L 85.577143 809.838864 
L 87.470822 810.80926 
L 88.868571 811.525057 
L 92.16 812.735658 
L 94.419437 814.105233 
L 95.451429 814.605788 
L 98.742857 815.437432 
L 101.435705 817.401205 
z
M 134.948571 820.697178 
L 135.277572 820.697178 
L 134.948571 820.530557 
L 132.732031 820.697178 
z
" clip-path="url(#p30ea76ab65)" style="fill: #d6e5f4; fill-opacity: 0.9"/>
    <path d="M 98.742857 818.479288 
L 102.034286 819.52396 
L 104.288827 820.697178 
L 105.325714 820.697178 
L 108.617143 820.697178 
L 111.908571 820.697178 
L 115.2 820.697178 
L 118.491429 820.697178 
L 121.782857 820.697178 
L 123.493143 820.697178 
L 121.782857 819.95096 
L 118.491429 819.066119 
L 115.2 817.811317 
L 114.488702 817.401205 
L 111.908571 816.761825 
L 108.617143 816.98999 
L 105.436966 817.401205 
L 105.325714 817.415641 
L 102.034286 817.677913 
L 101.435705 817.401205 
L 98.742857 815.437432 
L 95.451429 814.605788 
L 94.419437 814.105233 
L 92.16 812.735658 
L 88.868571 811.525057 
L 87.470822 810.80926 
L 85.577143 809.838864 
L 82.285714 808.707446 
L 80.464446 807.513287 
L 78.994286 806.756792 
L 75.702857 806.262539 
L 72.411429 804.328621 
L 69.12 806.550806 
L 67.869723 807.513287 
L 65.828571 807.677399 
L 65.449959 807.513287 
L 62.537143 805.470795 
L 59.245714 804.745103 
L 58.193002 804.217315 
L 55.954286 802.895307 
L 52.662857 801.670248 
L 51.106965 800.921342 
L 49.371429 800.352845 
L 46.08 798.932018 
L 43.807716 797.62537 
L 42.788571 797.362937 
L 39.497143 796.463433 
L 36.458464 794.329397 
L 36.205714 794.268805 
L 34.401564 794.329397 
L 32.914286 794.531301 
L 29.622857 794.730689 
L 28.850661 794.329397 
L 26.331429 792.419905 
L 23.04 791.651854 
L 21.669675 791.033424 
L 19.748571 790.00315 
L 16.457143 789.948466 
L 13.165714 790.895273 
L 12.777493 791.033424 
L 9.874286 792.000064 
L 8.707675 791.033424 
L 6.582857 789.940387 
L 3.291429 790.043132 
L 0.644692 787.737452 
L 0 787.429355 
L 0 787.737452 
L 0 789.419919 
L 2.025036 791.033424 
L 3.291429 792.252803 
L 6.582857 791.75312 
L 9.874286 794.166068 
L 13.165714 793.569689 
L 16.457143 794.168758 
L 19.748571 792.373848 
L 23.04 793.255173 
L 25.450897 794.329397 
L 26.331429 795.211144 
L 29.622857 796.464031 
L 32.297326 797.62537 
L 32.914286 798.243181 
L 36.205714 799.363753 
L 39.208459 800.921342 
L 39.497143 801.210425 
L 42.788571 801.853026 
L 46.08 803.318914 
L 49.371429 803.254921 
L 52.662857 803.458189 
L 54.490841 804.217315 
L 55.954286 805.326657 
L 59.245714 806.445485 
L 61.350465 807.513287 
L 62.537143 808.652841 
L 65.828571 809.632034 
L 67.847172 810.80926 
L 69.12 812.001615 
L 72.411429 812.537019 
L 74.389249 814.105233 
L 75.702857 815.303934 
L 78.994286 814.938864 
L 82.285714 815.574004 
L 83.112493 814.105233 
L 85.577143 813.298808 
L 88.868571 813.414323 
L 90.500463 814.105233 
L 92.16 815.300571 
L 95.451429 816.35059 
L 97.587518 817.401205 
z
" clip-path="url(#p30ea76ab65)" style="fill: #d0e2f2; fill-opacity: 0.9"/>
    <path d="M 3.291429 820.697178 
L 6.582857 820.697178 
L 9.874286 820.697178 
L 13.165714 820.697178 
L 16.457143 820.697178 
L 19.748571 820.697178 
L 23.04 820.697178 
L 26.331429 820.697178 
L 29.622857 820.697178 
L 32.914286 820.697178 
L 36.205714 820.697178 
L 39.497143 820.697178 
L 42.788571 820.697178 
L 46.08 820.697178 
L 49.371429 820.697178 
L 52.662857 820.697178 
L 55.954286 820.697178 
L 59.245714 820.697178 
L 62.537143 820.697178 
L 65.828571 820.697178 
L 69.12 820.697178 
L 72.411429 820.697178 
L 75.702857 820.697178 
L 78.994286 820.697178 
L 82.285714 820.697178 
L 85.577143 820.697178 
L 88.868571 820.697178 
L 92.16 820.697178 
L 95.451429 820.697178 
L 98.742857 820.697178 
L 102.034286 820.697178 
L 104.288827 820.697178 
L 102.034286 819.52396 
L 98.742857 818.479288 
L 97.587518 817.401205 
L 95.451429 816.35059 
L 92.16 815.300571 
L 90.500463 814.105233 
L 88.868571 813.414323 
L 85.577143 813.298808 
L 83.112493 814.105233 
L 82.285714 815.574004 
L 78.994286 814.938864 
L 75.702857 815.303934 
L 74.389249 814.105233 
L 72.411429 812.537019 
L 69.12 812.001615 
L 67.847172 810.80926 
L 65.828571 809.632034 
L 62.537143 808.652841 
L 61.350465 807.513287 
L 59.245714 806.445485 
L 55.954286 805.326657 
L 54.490841 804.217315 
L 52.662857 803.458189 
L 49.371429 803.254921 
L 46.08 803.318914 
L 42.788571 801.853026 
L 39.497143 801.210425 
L 39.208459 800.921342 
L 36.205714 799.363753 
L 32.914286 798.243181 
L 32.297326 797.62537 
L 29.622857 796.464031 
L 26.331429 795.211144 
L 25.450897 794.329397 
L 23.04 793.255173 
L 19.748571 792.373848 
L 16.457143 794.168758 
L 13.165714 793.569689 
L 9.874286 794.166068 
L 6.582857 791.75312 
L 3.291429 792.252803 
L 2.025036 791.033424 
L 0 789.419919 
L 0 791.033424 
L 0 794.329397 
L 0 797.62537 
L 0 800.921342 
L 0 804.217315 
L 0 807.513287 
L 0 810.80926 
L 0 814.105233 
L 0 817.401205 
L 0 820.697178 
z
" clip-path="url(#p30ea76ab65)" style="fill: #cbdef1; fill-opacity: 0.9"/>
    <path clip-path="url(#p30ea76ab65)" style="fill: #c6dbef; fill-opacity: 0.9"/>
    <path clip-path="url(#p30ea76ab65)" style="fill: #bed8ec; fill-opacity: 0.9"/>
    <path clip-path="url(#p30ea76ab65)" style="fill: #b5d4e9; fill-opacity: 0.9"/>
    <path clip-path="url(#p30ea76ab65)" style="fill: #add0e6; fill-opacity: 0.9"/>
    <path clip-path="url(#p30ea76ab65)" style="fill: #a5cde3; fill-opacity: 0.9"/>
    <path clip-path="url(#p30ea76ab65)" style="fill: #9cc9e1; fill-opacity: 0.9"/>
    <path clip-path="url(#p30ea76ab65)" style="fill: #91c3de; fill-opacity: 0.9"/>
    <path clip-path="url(#p30ea76ab65)" style="fill: #85bcdc; fill-opacity: 0.9"/>
    <path clip-path="url(#p30ea76ab65)" style="fill: #7cb7da; fill-opacity: 0.9"/>
    <path clip-path="url(#p30ea76ab65)" style="fill: #71b1d7; fill-opacity: 0.9"/>
    <path clip-path="url(#p30ea76ab65)" style="fill: #66abd4; fill-opacity: 0.9"/>
    <path clip-path="url(#p30ea76ab65)" style="fill: #5da5d1; fill-opacity: 0.9"/>
    <path clip-path="url(#p30ea76ab65)" style="fill: #56a0ce; fill-opacity: 0.9"/>
    <path clip-path="url(#p30ea76ab65)" style="fill: #4d99ca; fill-opacity: 0.9"/>
    <path clip-path="url(#p30ea76ab65)" style="fill: #4493c7; fill-opacity: 0.9"/>
    <path clip-path="url(#p30ea76ab65)" style="fill: #3c8cc3; fill-opacity: 0.9"/>
    <path clip-path="url(#p30ea76ab65)" style="fill: #3686c0; fill-opacity: 0.9"/>
    <path clip-path="url(#p30ea76ab65)" style="fill: #2f7fbc; fill-opacity: 0.9"/>
    <path clip-path="url(#p30ea76ab65)" style="fill: #2777b8; fill-opacity: 0.9"/>
    <path clip-path="url(#p30ea76ab65)" style="fill: #2070b4; fill-opacity: 0.9"/>
    <path clip-path="url(#p30ea76ab65)" style="fill: #1c6ab0; fill-opacity: 0.9"/>
    <path clip-path="url(#p30ea76ab65)" style="fill: #1663aa; fill-opacity: 0.9"/>
    <path clip-path="url(#p30ea76ab65)" style="fill: #115ca5; fill-opacity: 0.9"/>
    <path clip-path="url(#p30ea76ab65)" style="fill: #0c56a0; fill-opacity: 0.9"/>
    <path clip-path="url(#p30ea76ab65)" style="fill: #084f99; fill-opacity: 0.9"/>
    <path clip-path="url(#p30ea76ab65)" style="fill: #08488e; fill-opacity: 0.9"/>
    <path clip-path="url(#p30ea76ab65)" style="fill: #084184; fill-opacity: 0.9"/>
    <path clip-path="url(#p30ea76ab65)" style="fill: #083a7a; fill-opacity: 0.9"/>
    <path clip-path="url(#p30ea76ab65)" style="fill: #083370; fill-opacity: 0.9"/>
    <path clip-path="url(#p30ea76ab65)" style="fill: #08306b; fill-opacity: 0.9"/>
   </g>
   <g id="QuadContourSet_2">
    <path d="M 190.443226 820.697178 
L 187.611429 818.410911 
L 184.32 818.382065 
L 181.028571 818.253868 
L 178.561523 817.401205 
L 177.737143 816.609171 
L 174.445714 814.822996 
L 171.154286 814.572726 
L 169.47785 814.105233 
L 167.862857 812.350621 
L 164.571429 811.492178 
L 164.269386 810.80926 
L 161.28 807.815747 
L 157.988571 809.705914 
L 154.697143 808.408772 
L 151.405714 808.354557 
L 148.114286 807.67345 
L 147.829405 807.513287 
L 144.822857 805.736425 
L 141.531429 805.441151 
L 138.24 804.557933 
L 137.253433 804.217315 
L 134.948571 802.236889 
L 131.657143 801.670111 
L 131.304659 800.921342 
L 128.365714 797.97834 
L 125.253471 800.921342 
L 125.074286 801.178258 
L 124.241136 800.921342 
L 124.721802 797.62537 
L 121.782857 794.682368 
L 118.491429 794.682368 
L 115.595272 797.62537 
L 115.2 798.503119 
L 111.908571 798.26354 
L 110.920974 797.62537 
L 108.617143 795.850736 
L 105.325714 796.498227 
L 102.034286 795.156175 
L 98.742857 794.624082 
L 96.947211 794.329397 
L 95.451429 793.227613 
L 92.16 792.297665 
L 91.765811 791.033424 
L 88.868571 788.132185 
L 85.577143 788.132185 
L 85.182954 787.737452 
L 82.285714 784.441479 
L 79.487236 787.737452 
L 79.486077 791.033424 
L 78.994286 792.019711 
L 75.702857 791.113715 
L 75.530091 791.033424 
L 75.022429 790.793543 
M 56.757435 788.066092 
L 55.954286 787.982981 
L 54.47004 787.737452 
L 52.662857 786.622993 
L 52.171328 784.441479 
L 49.371429 781.637714 
L 46.08 781.637714 
L 45.588471 781.145507 
L 42.788571 777.849534 
L 39.881493 781.145507 
L 39.781676 784.441479 
L 39.497143 785.120574 
L 36.205714 785.22609 
L 33.339563 784.441479 
L 32.914286 783.987771 
L 29.622857 782.89076 
L 26.331429 783.616974 
L 23.04 781.715877 
L 19.748571 781.540239 
L 19.467661 781.145507 
L 16.457143 778.130833 
L 13.209314 781.145507 
L 13.165714 781.2019 
L 12.884608 781.145507 
L 12.884804 777.849534 
L 9.874286 774.83486 
L 6.582857 774.83486 
L 3.476246 777.849534 
L 3.291429 778.228354 
L 0 778.280103 
" clip-path="url(#p30ea76ab65)" style="fill: none"/>
    <path d="M 183.885766 820.697178 
L 181.028571 820.421771 
L 179.744656 819.632249 
M 163.533675 810.800481 
L 161.28 808.543695 
L 158.655528 810.80926 
L 157.988571 812.051294 
L 155.657655 810.80926 
L 154.697143 810.219207 
L 151.405714 810.055383 
L 148.114286 810.595086 
L 144.822857 808.268787 
L 141.531429 807.676051 
L 141.253948 807.513287 
L 138.24 805.62664 
L 134.948571 804.4707 
L 134.052436 804.217315 
L 131.657143 803.183924 
L 130.592029 800.921342 
L 128.365714 798.691954 
L 126.008122 800.921342 
L 125.074286 802.260277 
L 121.782857 801.49182 
L 120.732274 800.921342 
L 121.782857 800.633086 
L 124.009172 797.62537 
L 121.782857 795.395981 
L 118.491429 795.395981 
L 116.297527 797.62537 
L 115.2 800.062561 
L 111.908571 800.530912 
L 108.617143 798.573107 
L 105.325714 798.324987 
L 103.648615 797.62537 
L 102.034286 796.625059 
L 98.742857 795.492605 
L 95.451429 794.99695 
L 92.16 794.454168 
L 91.654911 794.329397 
L 91.06548 791.033424 
L 88.868571 788.833483 
L 85.577143 788.833483 
L 84.482623 787.737452 
L 82.285714 785.238193 
L 80.163694 787.737452 
L 80.160944 791.033424 
L 78.994286 793.373156 
L 75.702857 793.573234 
L 72.411429 793.497221 
L 69.12 792.109131 
L 65.828571 791.733414 
L 64.184499 791.033424 
L 62.537143 789.965176 
L 59.245714 789.12791 
L 55.954286 788.786012 
L 52.662857 788.346311 
L 49.615657 787.737452 
L 51.496821 784.441479 
L 49.371429 782.313153 
L 46.08 782.313153 
L 44.913964 781.145507 
L 42.788571 778.643547 
L 40.58182 781.145507 
L 40.300126 784.441479 
L 39.497143 786.357958 
L 36.205714 786.554981 
L 32.914286 786.666606 
L 29.622857 785.107136 
L 26.331429 784.940235 
L 25.229236 784.441479 
L 23.04 782.755155 
L 19.748571 782.259484 
L 18.955811 781.145507 
L 16.457143 778.643389 
L 13.761512 781.145507 
L 13.165714 781.91613 
L 9.874286 781.30341 
L 9.324353 781.145507 
L 9.874286 781.044414 
L 12.372954 777.849534 
L 9.874286 775.347416 
L 6.582857 775.347416 
L 4.004434 777.849534 
L 3.291429 779.310978 
L 0 779.510622 
" clip-path="url(#p30ea76ab65)" style="fill: none"/>
    <path d="M 179.497838 820.697178 
L 177.737143 819.545115 
L 174.445714 818.038561 
L 173.315533 817.401205 
L 171.154286 816.47707 
L 167.862857 815.745206 
L 164.571429 814.959377 
L 163.329891 814.105233 
L 162.815498 810.80926 
L 161.28 809.271642 
L 159.498796 810.80926 
L 157.988571 813.621662 
L 155.247209 814.105233 
L 154.697143 814.224291 
L 153.142423 814.105233 
L 151.405714 813.7417 
L 148.114286 811.853985 
L 145.844633 810.80926 
L 144.822857 810.061402 
L 141.531429 808.677498 
L 139.546673 807.513287 
L 138.24 806.695346 
L 134.948571 805.462843 
L 131.657143 804.738807 
L 130.543573 804.217315 
L 129.879399 800.921342 
L 128.365714 799.405568 
L 126.762773 800.921342 
L 125.074286 803.342296 
L 121.782857 803.397168 
L 118.491429 803.803605 
L 115.2 804.071304 
L 113.966563 803.280647 
M 96.403223 796.052902 
L 95.451429 795.927512 
L 92.16 795.76151 
L 88.868571 795.369619 
L 86.362612 794.329397 
L 88.868571 793.731544 
L 90.36515 791.033424 
L 88.868571 789.53478 
L 85.577143 789.53478 
L 83.782292 787.737452 
L 82.285714 786.034907 
L 80.840151 787.737452 
L 80.835811 791.033424 
L 81.416045 794.329397 
L 78.994286 796.758324 
L 75.702857 795.963056 
L 72.411429 795.172424 
L 69.898529 794.329397 
L 69.12 793.861741 
L 65.828571 792.579514 
L 62.537143 791.22888 
L 62.171618 791.033424 
L 59.245714 789.932237 
L 55.954286 789.589042 
L 52.662857 789.316262 
L 49.371429 788.900323 
L 46.08 788.216528 
L 43.92446 787.737452 
L 46.08 787.367873 
L 49.371429 786.72796 
L 50.822313 784.441479 
L 49.371429 782.988591 
L 46.08 782.988591 
L 44.239456 781.145507 
L 42.788571 779.437561 
L 41.282147 781.145507 
L 40.818577 784.441479 
L 39.497143 787.595342 
L 37.817307 787.737452 
L 36.205714 787.97377 
L 32.914286 788.144267 
L 31.749844 787.737452 
L 29.622857 786.406336 
L 26.331429 785.550775 
L 23.880015 784.441479 
L 23.04 783.794433 
L 19.748571 782.978729 
L 18.443961 781.145507 
L 16.457143 779.155946 
L 14.313709 781.145507 
L 13.165714 782.630361 
L 9.874286 782.325676 
L 6.582857 781.532019 
L 5.764098 781.145507 
L 6.582857 780.961155 
L 9.874286 780.389946 
L 11.861104 777.849534 
L 9.874286 775.859973 
L 6.582857 775.859973 
L 4.532621 777.849534 
L 3.291429 780.393602 
L 0 780.74114 
M 118.491429 800.442121 
L 121.782857 799.670334 
L 123.296542 797.62537 
L 121.782857 796.109595 
L 118.491429 796.109595 
L 116.999782 797.62537 
L 118.491429 800.442121 
z
" clip-path="url(#p30ea76ab65)" style="fill: none"/>
    <path d="M 177.744343 820.697178 
L 177.737143 820.692466 
L 174.445714 819.294352 
L 171.154286 817.492179 
L 170.984673 817.401205 
L 167.862857 816.819177 
L 164.571429 817.041734 
L 163.033744 817.401205 
L 161.28 818.705691 
L 157.988571 818.495182 
L 156.452931 817.401205 
L 154.697143 816.151168 
L 153.302424 815.912443 
M 136.634368 807.116259 
L 134.948571 806.454985 
L 131.657143 806.382031 
L 128.365714 806.030537 
L 125.669332 807.513287 
L 125.074286 807.700724 
L 121.782857 808.183514 
L 120.740553 807.513287 
L 118.491429 805.850462 
L 115.2 805.425301 
L 113.383905 804.217315 
L 111.908571 803.217879 
L 108.617143 802.283022 
L 106.485906 800.921342 
L 105.325714 800.30276 
L 102.034286 799.257969 
L 99.587908 797.62537 
L 98.742857 797.229652 
L 95.451429 796.858073 
L 92.16 797.068852 
L 88.868571 797.56645 
L 88.647304 797.62537 
L 85.577143 800.394524 
L 82.285714 799.845996 
L 78.994286 798.664652 
L 75.702857 798.031209 
L 75.163289 797.62537 
L 72.411429 796.151235 
L 69.12 795.275594 
L 67.780352 794.329397 
L 65.828571 793.425614 
L 62.537143 792.371656 
L 60.034486 791.033424 
L 59.245714 790.736564 
L 55.954286 790.392073 
L 52.662857 790.286214 
L 49.371429 790.124798 
L 46.08 789.980061 
L 42.788571 790.555412 
L 41.726064 791.033424 
L 39.497143 791.320533 
L 38.125089 791.033424 
L 36.205714 790.118579 
L 32.914286 788.869544 
L 29.673856 787.737452 
L 29.622857 787.705536 
L 26.331429 786.161315 
L 23.04 784.801221 
L 22.159711 784.441479 
L 19.748571 783.697974 
L 17.932111 781.145507 
L 16.457143 779.668502 
L 14.865907 781.145507 
L 13.165714 783.344591 
L 9.874286 783.347942 
L 6.582857 783.212713 
L 3.291429 781.926553 
L 0 782.802709 
M 161.28 813.363928 
L 162.088554 810.80926 
L 161.28 809.99959 
L 160.342063 810.80926 
L 161.28 813.363928 
z
M 128.365714 803.385705 
L 129.166769 800.921342 
L 128.365714 800.119182 
L 127.517424 800.921342 
L 128.365714 803.385705 
z
M 118.491429 799.116018 
L 121.782857 798.707582 
L 122.583912 797.62537 
L 121.782857 796.823209 
L 118.491429 796.823209 
L 117.702036 797.62537 
L 118.491429 799.116018 
z
M 82.285714 792.886149 
L 85.577143 792.917914 
L 88.868571 792.468946 
L 89.664819 791.033424 
L 88.868571 790.236078 
L 85.577143 790.236078 
L 83.081962 787.737452 
L 82.285714 786.831621 
L 81.516609 787.737452 
L 81.510678 791.033424 
L 82.285714 792.886149 
z
M 42.788571 786.965115 
L 46.08 786.007411 
L 49.371429 785.664989 
L 50.147806 784.441479 
L 49.371429 783.66403 
L 46.08 783.66403 
L 43.564949 781.145507 
L 42.788571 780.231574 
L 41.982475 781.145507 
L 41.337027 784.441479 
L 42.788571 786.965115 
z
M 6.582857 780.15953 
L 9.874286 779.735478 
L 11.349254 777.849534 
L 9.874286 776.37253 
L 6.582857 776.37253 
L 5.060809 777.849534 
L 6.582857 780.15953 
z
" clip-path="url(#p30ea76ab65)" style="fill: none"/>
    <path d="M 158.544281 820.697178 
L 157.988571 820.423246 
L 154.697143 819.731315 
L 152.337627 817.401205 
L 151.405714 817.180274 
L 148.114286 814.175128 
L 148.040852 814.105233 
L 144.822857 813.84511 
L 141.778902 810.80926 
L 141.531429 810.680391 
L 138.24 810.489031 
L 135.117233 807.513287 
L 134.948571 807.447128 
L 134.368303 807.513287 
L 133.562487 810.80926 
L 131.657143 812.393361 
L 128.365714 812.164591 
L 125.707655 810.80926 
L 125.074286 810.438865 
L 121.782857 809.68165 
L 118.491429 807.610221 
L 118.334625 807.513287 
L 115.2 806.65898 
L 111.908571 804.867114 
L 111.104043 804.217315 
L 108.617143 803.468033 
L 105.325714 802.296909 
L 103.609885 800.921342 
L 102.034286 800.495725 
L 98.742857 799.995752 
L 96.095828 800.921342 
L 95.451429 802.312168 
L 92.16 803.968441 
L 88.868571 803.276618 
L 85.577143 802.246588 
L 82.285714 801.912441 
L 80.972707 800.921342 
L 78.994286 799.825552 
L 75.702857 799.405555 
L 73.336079 797.62537 
L 72.411429 797.130047 
L 69.12 796.566157 
L 65.953142 794.329397 
L 65.828571 794.271714 
L 62.537143 793.514433 
L 59.245714 792.088789 
L 55.954286 791.474024 
L 52.662857 791.732649 
L 49.371429 792.323885 
L 46.4379 794.329397 
L 46.08 794.395539 
L 44.075566 794.455151 
M 26.895371 787.039335 
L 26.331429 786.771854 
L 23.04 785.754411 
L 19.827245 784.441479 
L 19.748571 784.417219 
L 17.420261 781.145507 
L 16.457143 780.181059 
L 15.418105 781.145507 
L 13.165714 784.058822 
L 9.874286 784.370208 
L 9.196592 784.441479 
L 6.582857 784.984969 
L 3.291429 784.47512 
L 0 784.742483 
M 174.791973 820.697178 
L 174.445714 820.550143 
L 171.154286 820.58187 
L 170.821678 820.697178 
M 161.28 811.067111 
L 161.36161 810.80926 
L 161.28 810.727538 
L 161.185331 810.80926 
L 161.28 811.067111 
z
M 128.365714 801.193372 
L 128.454139 800.921342 
L 128.365714 800.832795 
L 128.272075 800.921342 
L 128.365714 801.193372 
z
M 118.491429 797.789916 
L 121.782857 797.74483 
L 121.871282 797.62537 
L 121.782857 797.536823 
L 118.491429 797.536823 
L 118.404291 797.62537 
L 118.491429 797.789916 
z
M 82.285714 791.27288 
L 85.577143 791.260432 
L 88.868571 791.206349 
L 88.964488 791.033424 
L 88.868571 790.937375 
L 85.577143 790.937375 
L 82.381631 787.737452 
L 82.285714 787.628334 
L 82.193067 787.737452 
L 82.185544 791.033424 
L 82.285714 791.27288 
z
M 42.788571 786.063744 
L 46.08 784.646948 
L 49.371429 784.602018 
L 49.473299 784.441479 
L 49.371429 784.339469 
L 46.08 784.339469 
L 42.890441 781.145507 
L 42.788571 781.025588 
L 42.682802 781.145507 
L 41.855477 784.441479 
L 42.788571 786.063744 
z
M 6.582857 779.357905 
L 9.874286 779.081009 
L 10.837404 777.849534 
L 9.874286 776.885086 
L 6.582857 776.885086 
L 5.588997 777.849534 
L 6.582857 779.357905 
z
" clip-path="url(#p30ea76ab65)" style="fill: none"/>
    <path d="M 140.453104 820.697178 
L 138.24 819.289506 
L 137.037469 818.759487 
M 119.789566 810.867731 
L 119.698442 810.80926 
L 118.491429 810.408498 
L 115.2 810.399941 
L 111.908571 810.801108 
L 111.899738 810.80926 
L 108.617143 811.140835 
L 107.559469 810.80926 
L 105.325714 809.248125 
L 102.034286 808.772182 
L 98.742857 807.945503 
L 97.421171 807.513287 
L 95.451429 806.724386 
L 92.16 805.997959 
L 88.868571 805.696877 
L 86.782888 804.217315 
L 85.577143 803.672807 
L 82.285714 803.49455 
L 78.994286 801.178677 
L 77.833272 800.921342 
L 75.702857 800.779901 
L 72.411429 799.177935 
L 69.12 798.031173 
L 68.177974 797.62537 
L 65.828571 796.556723 
L 62.537143 795.00168 
L 61.029713 794.329397 
L 59.245714 793.761526 
L 55.954286 793.662407 
L 53.734631 794.329397 
L 52.662857 795.698622 
L 51.143767 797.62537 
L 49.371429 797.919356 
L 48.883503 797.62537 
L 46.08 795.74791 
L 42.788571 795.449929 
L 41.159492 794.329397 
L 39.497143 793.203773 
L 36.205714 792.458022 
L 34.180306 791.033424 
L 32.914286 790.320099 
L 29.622857 789.571991 
L 27.080016 787.737452 
L 26.331429 787.382394 
L 23.04 786.707602 
L 19.748571 786.233619 
L 16.457143 784.765333 
L 13.165714 785.832283 
L 9.874286 786.12737 
L 6.582857 787.006182 
L 3.291429 786.529844 
L 0 785.638107 
M 42.788571 785.162374 
L 44.385181 784.441479 
L 42.788571 782.842666 
L 42.373928 784.441479 
L 42.788571 785.162374 
z
M 16.457143 784.292362 
L 16.908411 781.145507 
L 16.457143 780.693615 
L 15.970302 781.145507 
L 16.457143 784.292362 
z
M 6.582857 778.55628 
L 9.874286 778.426541 
L 10.325554 777.849534 
L 9.874286 777.397643 
L 6.582857 777.397643 
L 6.117185 777.849534 
L 6.582857 778.55628 
z
" clip-path="url(#p30ea76ab65)" style="fill: none"/>
    <path d="M 128.031631 820.697178 
L 125.074286 818.597759 
L 124.188802 818.482381 
M 106.185505 812.573251 
L 105.325714 812.317808 
L 102.034286 811.492532 
L 100.861447 810.80926 
L 98.742857 810.14871 
L 95.451429 810.139946 
L 92.16 809.515509 
L 88.868571 808.282983 
L 85.577143 807.948368 
L 84.548593 807.513287 
L 82.285714 805.923147 
L 78.994286 804.85845 
L 77.469963 804.217315 
L 75.702857 803.215881 
L 72.411429 801.940971 
L 70.381437 800.921342 
L 69.12 800.294907 
L 65.828571 799.360458 
L 63.122086 797.62537 
L 62.537143 797.345305 
L 59.245714 797.622324 
L 59.239872 797.62537 
L 55.954286 800.788908 
L 52.662857 799.52735 
L 49.371429 799.1361 
L 46.864086 797.62537 
L 46.08 797.10028 
L 42.788571 796.406433 
L 39.768884 794.329397 
L 39.497143 794.145393 
L 36.205714 793.363414 
L 32.914286 791.089924 
L 32.82238 791.033424 
L 29.622857 790.500668 
L 26.331429 789.322688 
L 23.570608 787.737452 
L 23.04 787.660793 
L 22.058148 787.737452 
L 19.748571 788.097884 
L 16.457143 788.580765 
L 13.165714 788.580275 
L 9.874286 788.290108 
L 6.582857 788.59566 
L 3.291429 788.410535 
L 2.518783 787.737452 
L 0 786.533731 
M 135.277572 820.697178 
L 134.948571 820.530557 
L 132.732031 820.697178 
" clip-path="url(#p30ea76ab65)" style="fill: none"/>
    <path d="M 123.493143 820.697178 
L 121.782857 819.95096 
L 118.491429 819.066119 
L 115.2 817.811317 
L 114.488702 817.401205 
L 111.908571 816.761825 
L 108.617143 816.98999 
L 105.436966 817.401205 
L 105.325714 817.415641 
L 102.034286 817.677913 
L 101.435705 817.401205 
L 98.742857 815.437432 
L 97.619306 815.153545 
M 80.306324 807.431923 
L 78.994286 806.756792 
L 75.702857 806.262539 
L 72.411429 804.328621 
L 69.12 806.550806 
L 67.869723 807.513287 
L 65.828571 807.677399 
L 65.449959 807.513287 
L 62.537143 805.470795 
L 59.245714 804.745103 
L 58.193002 804.217315 
L 55.954286 802.895307 
L 52.662857 801.670248 
L 51.106965 800.921342 
L 49.371429 800.352845 
L 46.08 798.932018 
L 43.807716 797.62537 
L 42.788571 797.362937 
L 39.497143 796.463433 
L 36.458464 794.329397 
L 36.205714 794.268805 
L 34.401564 794.329397 
L 32.914286 794.531301 
L 29.622857 794.730689 
L 28.850661 794.329397 
L 26.331429 792.419905 
L 23.04 791.651854 
L 21.669675 791.033424 
L 19.748571 790.00315 
L 16.457143 789.948466 
L 13.165714 790.895273 
L 12.777493 791.033424 
L 9.874286 792.000064 
L 8.707675 791.033424 
L 6.582857 789.940387 
L 3.291429 790.043132 
L 0.644692 787.737452 
L 0 787.429355 
" clip-path="url(#p30ea76ab65)" style="fill: none"/>
    <path d="M 104.288827 820.697178 
L 102.034286 819.52396 
L 98.742857 818.479288 
L 97.587518 817.401205 
L 95.451429 816.35059 
L 92.16 815.300571 
L 90.500463 814.105233 
L 88.868571 813.414323 
L 85.577143 813.298808 
L 83.112493 814.105233 
L 82.285714 815.574004 
L 78.994286 814.938864 
L 75.702857 815.303934 
L 74.389249 814.105233 
L 72.411429 812.537019 
L 69.12 812.001615 
L 67.847172 810.80926 
L 65.828571 809.632034 
L 62.537143 808.652841 
L 61.350465 807.513287 
L 59.245714 806.445485 
L 55.954286 805.326657 
L 55.254048 804.795852 
M 37.285503 799.923863 
L 36.205714 799.363753 
L 32.914286 798.243181 
L 32.297326 797.62537 
L 29.622857 796.464031 
L 26.331429 795.211144 
L 25.450897 794.329397 
L 23.04 793.255173 
L 19.748571 792.373848 
L 16.457143 794.168758 
L 13.165714 793.569689 
L 9.874286 794.166068 
L 6.582857 791.75312 
L 3.291429 792.252803 
L 2.025036 791.033424 
L 0 789.419919 
" clip-path="url(#p30ea76ab65)" style="fill: none"/>
    <path clip-path="url(#p30ea76ab65)" style="fill: none"/>
    <path clip-path="url(#p30ea76ab65)" style="fill: none"/>
    <path clip-path="url(#p30ea76ab65)" style="fill: none"/>
    <path clip-path="url(#p30ea76ab65)" style="fill: none"/>
    <path clip-path="url(#p30ea76ab65)" style="fill: none"/>
    <path clip-path="url(#p30ea76ab65)" style="fill: none"/>
    <path clip-path="url(#p30ea76ab65)" style="fill: none"/>
    <path clip-path="url(#p30ea76ab65)" style="fill: none"/>
    <path clip-path="url(#p30ea76ab65)" style="fill: none"/>
    <path clip-path="url(#p30ea76ab65)" style="fill: none"/>
    <path clip-path="url(#p30ea76ab65)" style="fill: none"/>
    <path clip-path="url(#p30ea76ab65)" style="fill: none"/>
    <path clip-path="url(#p30ea76ab65)" style="fill: none"/>
    <path clip-path="url(#p30ea76ab65)" style="fill: none"/>
    <path clip-path="url(#p30ea76ab65)" style="fill: none"/>
    <path clip-path="url(#p30ea76ab65)" style="fill: none"/>
    <path clip-path="url(#p30ea76ab65)" style="fill: none"/>
    <path clip-path="url(#p30ea76ab65)" style="fill: none"/>
    <path clip-path="url(#p30ea76ab65)" style="fill: none"/>
    <path clip-path="url(#p30ea76ab65)" style="fill: none"/>
    <path clip-path="url(#p30ea76ab65)" style="fill: none"/>
    <path clip-path="url(#p30ea76ab65)" style="fill: none"/>
    <path clip-path="url(#p30ea76ab65)" style="fill: none"/>
    <path clip-path="url(#p30ea76ab65)" style="fill: none"/>
    <path clip-path="url(#p30ea76ab65)" style="fill: none"/>
    <path clip-path="url(#p30ea76ab65)" style="fill: none"/>
    <path clip-path="url(#p30ea76ab65)" style="fill: none"/>
    <path clip-path="url(#p30ea76ab65)" style="fill: none"/>
    <path clip-path="url(#p30ea76ab65)" style="fill: none"/>
    <path clip-path="url(#p30ea76ab65)" style="fill: none"/>
   </g>
   <g id="text_1">
    <g clip-path="url(#p30ea76ab65)">
     <!-- 0 -->
     <g style="opacity: 0" transform="translate(61.62496 793.206876) rotate(-352.775421) scale(0.12 -0.12)">
      <defs>
       <path id="DejaVuSans-30" d="M 2034 4250 
Q 1547 4250 1301 3770 
Q 1056 3291 1056 2328 
Q 1056 1369 1301 889 
Q 1547 409 2034 409 
Q 2525 409 2770 889 
Q 3016 1369 3016 2328 
Q 3016 3291 2770 3770 
Q 2525 4250 2034 4250 
z
M 2034 4750 
Q 2819 4750 3233 4129 
Q 3647 3509 3647 2328 
Q 3647 1150 3233 529 
Q 2819 -91 2034 -91 
Q 1250 -91 836 529 
Q 422 1150 422 2328 
Q 422 3509 836 4129 
Q 1250 4750 2034 4750 
z
" transform="scale(0.015625)"/>
      </defs>
      <use xlink:href="#DejaVuSans-30"/>
     </g>
    </g>
   </g>
   <g id="text_2">
    <g clip-path="url(#p30ea76ab65)">
     <!-- 1 -->
     <g style="opacity: 0" transform="translate(166.455046 817.383615) rotate(-340.642618) scale(0.12 -0.12)">
      <defs>
       <path id="DejaVuSans-31" d="M 794 531 
L 1825 531 
L 1825 4091 
L 703 3866 
L 703 4441 
L 1819 4666 
L 2450 4666 
L 2450 531 
L 3481 531 
L 3481 0 
L 794 0 
L 794 531 
z
" transform="scale(0.015625)"/>
      </defs>
      <use xlink:href="#DejaVuSans-31"/>
     </g>
    </g>
   </g>
   <g id="text_3">
    <g clip-path="url(#p30ea76ab65)">
     <!-- 2 -->
     <g style="opacity: 0" transform="translate(100.484007 800.761478) rotate(-335.707997) scale(0.12 -0.12)">
      <defs>
       <path id="DejaVuSans-32" d="M 1228 531 
L 3431 531 
L 3431 0 
L 469 0 
L 469 531 
Q 828 903 1448 1529 
Q 2069 2156 2228 2338 
Q 2531 2678 2651 2914 
Q 2772 3150 2772 3378 
Q 2772 3750 2511 3984 
Q 2250 4219 1831 4219 
Q 1534 4219 1204 4116 
Q 875 4013 500 3803 
L 500 4441 
Q 881 4594 1212 4672 
Q 1544 4750 1819 4750 
Q 2544 4750 2975 4387 
Q 3406 4025 3406 3419 
Q 3406 3131 3298 2873 
Q 3191 2616 2906 2266 
Q 2828 2175 2409 1742 
Q 1991 1309 1228 531 
z
" transform="scale(0.015625)"/>
      </defs>
      <use xlink:href="#DejaVuSans-32"/>
     </g>
    </g>
   </g>
   <g id="text_4">
    <g clip-path="url(#p30ea76ab65)">
     <!-- 3 -->
     <g style="opacity: 0" transform="translate(139.908668 813.105415) rotate(-332.545781) scale(0.12 -0.12)">
      <defs>
       <path id="DejaVuSans-33" d="M 2597 2516 
Q 3050 2419 3304 2112 
Q 3559 1806 3559 1356 
Q 3559 666 3084 287 
Q 2609 -91 1734 -91 
Q 1441 -91 1130 -33 
Q 819 25 488 141 
L 488 750 
Q 750 597 1062 519 
Q 1375 441 1716 441 
Q 2309 441 2620 675 
Q 2931 909 2931 1356 
Q 2931 1769 2642 2001 
Q 2353 2234 1838 2234 
L 1294 2234 
L 1294 2753 
L 1863 2753 
Q 2328 2753 2575 2939 
Q 2822 3125 2822 3475 
Q 2822 3834 2567 4026 
Q 2313 4219 1838 4219 
Q 1578 4219 1281 4162 
Q 984 4106 628 3988 
L 628 4550 
Q 988 4650 1302 4700 
Q 1616 4750 1894 4750 
Q 2613 4750 3031 4423 
Q 3450 4097 3450 3541 
Q 3450 3153 3228 2886 
Q 3006 2619 2597 2516 
z
" transform="scale(0.015625)"/>
      </defs>
      <use xlink:href="#DejaVuSans-33"/>
     </g>
    </g>
   </g>
   <g id="text_5">
    <g clip-path="url(#p30ea76ab65)">
     <!-- 4 -->
     <g style="opacity: 0" transform="translate(30.70237 792.71594) rotate(-338.509489) scale(0.12 -0.12)">
      <defs>
       <path id="DejaVuSans-34" d="M 2419 4116 
L 825 1625 
L 2419 1625 
L 2419 4116 
z
M 2253 4666 
L 3047 4666 
L 3047 1625 
L 3713 1625 
L 3713 1100 
L 3047 1100 
L 3047 0 
L 2419 0 
L 2419 1100 
L 313 1100 
L 313 1709 
L 2253 4666 
z
" transform="scale(0.015625)"/>
      </defs>
      <use xlink:href="#DejaVuSans-34"/>
     </g>
    </g>
   </g>
   <g id="text_6">
    <g clip-path="url(#p30ea76ab65)">
     <!-- 5 -->
     <g style="opacity: 0" transform="translate(123.524078 816.263799) rotate(-335.710796) scale(0.12 -0.12)">
      <defs>
       <path id="DejaVuSans-35" d="M 691 4666 
L 3169 4666 
L 3169 4134 
L 1269 4134 
L 1269 2991 
Q 1406 3038 1543 3061 
Q 1681 3084 1819 3084 
Q 2600 3084 3056 2656 
Q 3513 2228 3513 1497 
Q 3513 744 3044 326 
Q 2575 -91 1722 -91 
Q 1428 -91 1123 -41 
Q 819 9 494 109 
L 494 744 
Q 775 591 1075 516 
Q 1375 441 1709 441 
Q 2250 441 2565 725 
Q 2881 1009 2881 1497 
Q 2881 1984 2565 2268 
Q 2250 2553 1709 2553 
Q 1456 2553 1204 2497 
Q 953 2441 691 2322 
L 691 4666 
z
" transform="scale(0.015625)"/>
      </defs>
      <use xlink:href="#DejaVuSans-35"/>
     </g>
    </g>
   </g>
   <g id="text_7">
    <g clip-path="url(#p30ea76ab65)">
     <!-- 6 -->
     <g style="opacity: 0" transform="translate(110.472955 817.419533) rotate(-339.768626) scale(0.12 -0.12)">
      <defs>
       <path id="DejaVuSans-36" d="M 2113 2584 
Q 1688 2584 1439 2293 
Q 1191 2003 1191 1497 
Q 1191 994 1439 701 
Q 1688 409 2113 409 
Q 2538 409 2786 701 
Q 3034 994 3034 1497 
Q 3034 2003 2786 2293 
Q 2538 2584 2113 2584 
z
M 3366 4563 
L 3366 3988 
Q 3128 4100 2886 4159 
Q 2644 4219 2406 4219 
Q 1781 4219 1451 3797 
Q 1122 3375 1075 2522 
Q 1259 2794 1537 2939 
Q 1816 3084 2150 3084 
Q 2853 3084 3261 2657 
Q 3669 2231 3669 1497 
Q 3669 778 3244 343 
Q 2819 -91 2113 -91 
Q 1303 -91 875 529 
Q 447 1150 447 2328 
Q 447 3434 972 4092 
Q 1497 4750 2381 4750 
Q 2619 4750 2861 4703 
Q 3103 4656 3366 4563 
z
" transform="scale(0.015625)"/>
      </defs>
      <use xlink:href="#DejaVuSans-36"/>
     </g>
    </g>
   </g>
   <g id="text_8">
    <g clip-path="url(#p30ea76ab65)">
     <!-- 7 -->
     <g style="opacity: 0" transform="translate(84.032137 812.990179) rotate(-335.915422) scale(0.12 -0.12)">
      <defs>
       <path id="DejaVuSans-37" d="M 525 4666 
L 3525 4666 
L 3525 4397 
L 1831 0 
L 1172 0 
L 2766 4134 
L 525 4134 
L 525 4666 
z
" transform="scale(0.015625)"/>
      </defs>
      <use xlink:href="#DejaVuSans-37"/>
     </g>
    </g>
   </g>
   <g id="text_9">
    <g clip-path="url(#p30ea76ab65)">
     <!-- 8 -->
     <g style="opacity: 0" transform="translate(41.726302 805.884648) rotate(-349.573881) scale(0.12 -0.12)">
      <defs>
       <path id="DejaVuSans-38" d="M 2034 2216 
Q 1584 2216 1326 1975 
Q 1069 1734 1069 1313 
Q 1069 891 1326 650 
Q 1584 409 2034 409 
Q 2484 409 2743 651 
Q 3003 894 3003 1313 
Q 3003 1734 2745 1975 
Q 2488 2216 2034 2216 
z
M 1403 2484 
Q 997 2584 770 2862 
Q 544 3141 544 3541 
Q 544 4100 942 4425 
Q 1341 4750 2034 4750 
Q 2731 4750 3128 4425 
Q 3525 4100 3525 3541 
Q 3525 3141 3298 2862 
Q 3072 2584 2669 2484 
Q 3125 2378 3379 2068 
Q 3634 1759 3634 1313 
Q 3634 634 3220 271 
Q 2806 -91 2034 -91 
Q 1263 -91 848 271 
Q 434 634 434 1313 
Q 434 1759 690 2068 
Q 947 2378 1403 2484 
z
M 1172 3481 
Q 1172 3119 1398 2916 
Q 1625 2713 2034 2713 
Q 2441 2713 2670 2916 
Q 2900 3119 2900 3481 
Q 2900 3844 2670 4047 
Q 2441 4250 2034 4250 
Q 1625 4250 1398 4047 
Q 1172 3844 1172 3481 
z
" transform="scale(0.015625)"/>
      </defs>
      <use xlink:href="#DejaVuSans-38"/>
     </g>
    </g>
   </g>
  </g>
 </g>
 <defs>
  <clipPath id="p30ea76ab65">
   <rect x="0" y="0" width="576" height="820.697178"/>
  </clipPath>
 </defs>
</svg>
