<?xml version="1.0" encoding="utf-8" standalone="no"?>
<!DOCTYPE svg PUBLIC "-//W3C//DTD SVG 1.1//EN"
  "http://www.w3.org/Graphics/SVG/1.1/DTD/svg11.dtd">
<svg xmlns:xlink="http://www.w3.org/1999/xlink" width="576pt" height="820.98809pt" viewBox="0 0 576 820.98809" xmlns="http://www.w3.org/2000/svg" version="1.1">
 <metadata>
  <rdf:RDF xmlns:dc="http://purl.org/dc/elements/1.1/" xmlns:cc="http://creativecommons.org/ns#" xmlns:rdf="http://www.w3.org/1999/02/22-rdf-syntax-ns#">
   <cc:Work>
    <dc:type rdf:resource="http://purl.org/dc/dcmitype/StillImage"/>
    <dc:date>2025-07-25T22:45:15.651032</dc:date>
    <dc:format>image/svg+xml</dc:format>
    <dc:creator>
     <cc:Agent>
      <dc:title>Matplotlib v3.10.3, https://matplotlib.org/</dc:title>
     </cc:Agent>
    </dc:creator>
   </cc:Work>
  </rdf:RDF>
 </metadata>
 <defs>
  <style type="text/css">*{stroke-linejoin: round; stroke-linecap: butt}</style>
 </defs>
 <g id="figure_1">
  <g id="patch_1">
   <path d="M 0 820.98809 
L 576 820.98809 
L 576 0 
L 0 0 
L 0 820.98809 
z
" style="fill: none; opacity: 0"/>
  </g>
  <g id="axes_1">
   <g id="QuadContourSet_1">
    <path d="M 510.171429 820.98809 
L 511.616428 820.98809 
L 513.142061 817.690949 
L 513.462857 817.270607 
L 516.754286 816.637779 
L 520.045714 816.333806 
L 520.972565 814.393808 
L 521.513239 811.096667 
L 523.337143 809.650034 
L 525.015756 807.799526 
L 525.253193 804.502385 
L 526.628571 802.320114 
L 527.76186 801.205245 
L 528.893039 797.908104 
L 529.895432 794.610963 
L 529.92 794.578473 
L 532.421147 791.313822 
L 533.211429 790.043481 
L 535.954992 788.016681 
L 536.502857 785.13631 
L 539.71303 788.016681 
L 539.794286 788.091399 
L 539.815376 788.016681 
L 541.711186 784.71954 
L 543.085714 784.062316 
L 544.643653 781.422399 
L 545.068577 778.125258 
L 546.377143 776.955192 
L 548.367922 774.828117 
L 548.659691 771.530976 
L 549.668571 769.834319 
L 551.30078 768.233835 
L 552.220396 764.936694 
L 552.96 762.49446 
L 554.051941 761.639553 
L 555.972937 758.342413 
L 556.251429 757.924424 
L 559.542857 757.502276 
L 560.619994 758.342413 
L 562.834286 758.883451 
L 563.402158 758.342413 
L 564.120845 755.045272 
L 566.125714 752.125295 
L 566.525614 751.748131 
L 568.338799 748.45099 
L 568.808029 745.153849 
L 569.417143 744.573237 
L 571.906799 741.856708 
L 572.139111 738.559567 
L 572.708571 737.600741 
L 575.107993 735.262426 
L 575.621811 731.965285 
L 576 731.118472 
L 576 728.947464 
L 574.652232 731.965285 
L 573.004839 735.262426 
L 572.708571 735.551148 
L 570.921828 738.559567 
L 570.309847 741.856708 
L 569.417143 742.830761 
L 566.980015 745.153849 
L 566.47951 748.45099 
L 566.125714 749.018587 
L 563.23169 748.45099 
L 562.834286 748.397392 
L 561.2855 745.153849 
L 559.542857 743.712379 
L 558.103885 745.153849 
L 558.103885 748.45099 
L 559.346611 751.748131 
L 558.07788 755.045272 
L 556.251429 756.478216 
L 555.009377 758.342413 
L 552.96 760.805394 
L 552.172528 761.639553 
L 551.294665 764.936694 
L 549.668571 767.90608 
L 549.289931 768.233835 
L 547.479099 771.530976 
L 546.873972 774.828117 
L 546.377143 775.358961 
L 543.283402 778.125258 
L 543.085714 779.424698 
L 539.794286 780.338599 
L 539.239177 781.422399 
L 536.502857 783.685108 
L 535.529457 784.71954 
L 533.769254 788.016681 
L 533.211429 788.428773 
L 531.416635 791.313822 
L 529.92 793.267321 
L 528.903973 794.610963 
L 527.998829 797.908104 
L 526.628571 800.532263 
L 525.672168 801.205245 
L 524.095647 804.502385 
L 523.660735 807.799526 
L 523.337143 808.156255 
L 520.045714 808.699604 
L 519.935123 807.799526 
L 516.754286 806.119426 
L 515.097938 807.799526 
L 513.462857 809.437445 
L 511.806509 811.096667 
L 513.462857 813.131743 
L 515.60474 814.393808 
L 513.462857 816.110029 
L 512.256333 817.690949 
L 510.171429 820.433977 
L 509.618275 820.98809 
z
M 512.50114 811.096667 
L 513.462857 810.133281 
L 515.251637 811.096667 
L 513.462857 812.278284 
z
M 516.543639 811.096667 
L 516.754286 810.885655 
L 518.152389 811.096667 
L 516.754286 811.658566 
z
M 515.792569 807.799526 
L 516.754286 806.824018 
L 518.60116 807.799526 
L 516.754286 809.59141 
z
M 558.912655 748.45099 
L 558.912655 745.153849 
L 559.542857 744.522553 
L 560.306053 745.153849 
L 561.005834 748.45099 
L 559.542857 750.023321 
z
M 536.502857 779.782833 
L 538.837544 778.125258 
L 536.502857 776.537692 
L 534.918041 778.125258 
z
M 535.661662 778.125258 
L 536.502857 777.282603 
L 537.742071 778.125258 
L 536.502857 779.005072 
z
" clip-path="url(#p1a36c2d62b)" style="fill: #f5f9fe; fill-opacity: 0.9"/>
    <path d="M 513.462857 820.98809 
L 516.754286 820.98809 
L 519.026206 820.98809 
L 520.045714 820.032081 
L 522.484162 817.690949 
L 522.8986 814.393808 
L 523.337143 811.498065 
L 523.794865 811.096667 
L 526.370777 807.799526 
L 526.41074 804.502385 
L 526.628571 804.156758 
L 529.628847 801.205245 
L 529.787248 797.908104 
L 529.92 797.472495 
L 532.980299 794.610963 
L 533.211429 793.764579 
L 534.156237 794.610963 
L 536.502857 796.777839 
L 539.151524 794.610963 
L 539.794286 794.421059 
L 543.085714 793.209931 
L 543.534377 794.610963 
L 544.154588 797.908104 
L 546.377143 798.416225 
L 546.704974 797.908104 
L 547.019717 794.610963 
L 549.668571 791.985199 
L 550.370093 791.313822 
L 551.409271 788.016681 
L 552.96 785.67706 
L 554.423191 784.71954 
L 556.251429 782.546099 
L 559.542857 782.228177 
L 562.834286 781.426542 
L 562.838478 781.422399 
L 566.125714 779.910642 
L 566.869708 778.125258 
L 568.819685 774.828117 
L 569.417143 774.377066 
L 571.256613 771.530976 
L 572.688363 768.233835 
L 572.708571 768.212814 
L 575.664321 764.936694 
L 576 764.052858 
L 576 761.639553 
L 576 758.342413 
L 576 755.045272 
L 576 751.748131 
L 576 748.45099 
L 576 745.153849 
L 576 741.856708 
L 576 738.559567 
L 576 735.262426 
L 576 731.965285 
L 576 731.118472 
L 575.621811 731.965285 
L 575.107993 735.262426 
L 572.708571 737.600741 
L 572.139111 738.559567 
L 571.906799 741.856708 
L 569.417143 744.573237 
L 568.808029 745.153849 
L 568.338799 748.45099 
L 566.525614 751.748131 
L 566.125714 752.125295 
L 564.120845 755.045272 
L 563.402158 758.342413 
L 562.834286 758.883451 
L 560.619994 758.342413 
L 559.542857 757.502276 
L 556.251429 757.924424 
L 555.972937 758.342413 
L 554.051941 761.639553 
L 552.96 762.49446 
L 552.220396 764.936694 
L 551.30078 768.233835 
L 549.668571 769.834319 
L 548.659691 771.530976 
L 548.367922 774.828117 
L 546.377143 776.955192 
L 545.068577 778.125258 
L 544.643653 781.422399 
L 543.085714 784.062316 
L 541.711186 784.71954 
L 539.815376 788.016681 
L 539.794286 788.091399 
L 539.71303 788.016681 
L 536.502857 785.13631 
L 535.954992 788.016681 
L 533.211429 790.043481 
L 532.421147 791.313822 
L 529.92 794.578473 
L 529.895432 794.610963 
L 528.893039 797.908104 
L 527.76186 801.205245 
L 526.628571 802.320114 
L 525.253193 804.502385 
L 525.015756 807.799526 
L 523.337143 809.650034 
L 521.513239 811.096667 
L 520.972565 814.393808 
L 520.045714 816.333806 
L 516.754286 816.637779 
L 513.462857 817.270607 
L 513.142061 817.690949 
L 511.616428 820.98809 
z
M 513.462857 812.278284 
L 515.251637 811.096667 
L 513.462857 810.133281 
L 512.50114 811.096667 
z
M 513.195771 811.096667 
L 513.462857 810.829117 
L 513.959634 811.096667 
L 513.462857 811.424824 
z
M 516.754286 809.59141 
L 518.60116 807.799526 
L 516.754286 806.824018 
L 515.792569 807.799526 
z
M 516.487199 807.799526 
L 516.754286 807.52861 
L 517.267197 807.799526 
L 516.754286 808.297165 
z
M 536.502857 779.005072 
L 537.742071 778.125258 
L 536.502857 777.282603 
L 535.661662 778.125258 
z
M 536.405283 778.125258 
L 536.502857 778.027515 
L 536.646599 778.125258 
L 536.502857 778.227312 
z
M 559.542857 750.023321 
L 561.005834 748.45099 
L 560.306053 745.153849 
L 559.542857 744.522553 
L 558.912655 745.153849 
L 558.912655 748.45099 
z
" clip-path="url(#p1a36c2d62b)" style="fill: #eff6fc; fill-opacity: 0.9"/>
    <path d="M 520.045714 820.98809 
L 523.337143 820.98809 
L 526.628571 820.98809 
L 529.92 820.98809 
L 533.211429 820.98809 
L 536.502857 820.98809 
L 539.794286 820.98809 
L 543.085714 820.98809 
L 546.377143 820.98809 
L 549.668571 820.98809 
L 552.96 820.98809 
L 556.251429 820.98809 
L 557.387179 820.98809 
L 559.542857 817.789737 
L 559.606357 817.690949 
L 561.913043 814.393808 
L 562.834286 813.075176 
L 564.172136 811.096667 
L 566.125714 808.42658 
L 566.566899 807.799526 
L 568.974844 804.502385 
L 569.417143 803.877464 
L 571.221462 801.205245 
L 572.708571 799.244925 
L 573.666479 797.908104 
L 576 794.691186 
L 576 794.610963 
L 576 791.313822 
L 576 788.016681 
L 576 784.71954 
L 576 781.422399 
L 576 778.125258 
L 576 774.828117 
L 576 771.530976 
L 576 768.233835 
L 576 764.936694 
L 576 764.052858 
L 575.664321 764.936694 
L 572.708571 768.212814 
L 572.688363 768.233835 
L 571.256613 771.530976 
L 569.417143 774.377066 
L 568.819685 774.828117 
L 566.869708 778.125258 
L 566.125714 779.910642 
L 562.838478 781.422399 
L 562.834286 781.426542 
L 559.542857 782.228177 
L 556.251429 782.546099 
L 554.423191 784.71954 
L 552.96 785.67706 
L 551.409271 788.016681 
L 550.370093 791.313822 
L 549.668571 791.985199 
L 547.019717 794.610963 
L 546.704974 797.908104 
L 546.377143 798.416225 
L 544.154588 797.908104 
L 543.534377 794.610963 
L 543.085714 793.209931 
L 539.794286 794.421059 
L 539.151524 794.610963 
L 536.502857 796.777839 
L 534.156237 794.610963 
L 533.211429 793.764579 
L 532.980299 794.610963 
L 529.92 797.472495 
L 529.787248 797.908104 
L 529.628847 801.205245 
L 526.628571 804.156758 
L 526.41074 804.502385 
L 526.370777 807.799526 
L 523.794865 811.096667 
L 523.337143 811.498065 
L 522.8986 814.393808 
L 522.484162 817.690949 
L 520.045714 820.032081 
L 519.026206 820.98809 
z
M 513.462857 811.424824 
L 513.959634 811.096667 
L 513.462857 810.829117 
L 513.195771 811.096667 
z
M 516.754286 808.297165 
L 517.267197 807.799526 
L 516.754286 807.52861 
L 516.487199 807.799526 
z
M 536.502857 778.227312 
L 536.646599 778.125258 
L 536.502857 778.027515 
L 536.405283 778.125258 
z
" clip-path="url(#p1a36c2d62b)" style="fill: #eaf3fb; fill-opacity: 0.9"/>
    <path d="M 559.542857 820.98809 
L 562.834286 820.98809 
L 566.125714 820.98809 
L 569.417143 820.98809 
L 572.708571 820.98809 
L 574.991438 820.98809 
L 576 819.523479 
L 576 817.690949 
L 576 814.393808 
L 576 811.096667 
L 576 807.799526 
L 576 804.502385 
L 576 801.205245 
L 576 797.908104 
L 576 794.691186 
L 573.666479 797.908104 
L 572.708571 799.244925 
L 571.221462 801.205245 
L 569.417143 803.877464 
L 568.974844 804.502385 
L 566.566899 807.799526 
L 566.125714 808.42658 
L 564.172136 811.096667 
L 562.834286 813.075176 
L 561.913043 814.393808 
L 559.606357 817.690949 
L 559.542857 817.789737 
L 557.387179 820.98809 
z
" clip-path="url(#p1a36c2d62b)" style="fill: #e5eff9; fill-opacity: 0.9"/>
    <path d="M 576 820.98809 
L 576 819.523479 
L 574.991438 820.98809 
z
" clip-path="url(#p1a36c2d62b)" style="fill: #dfecf7; fill-opacity: 0.9"/>
    <path clip-path="url(#p1a36c2d62b)" style="fill: #dae8f6; fill-opacity: 0.9"/>
    <path clip-path="url(#p1a36c2d62b)" style="fill: #d6e5f4; fill-opacity: 0.9"/>
    <path clip-path="url(#p1a36c2d62b)" style="fill: #d0e2f2; fill-opacity: 0.9"/>
    <path clip-path="url(#p1a36c2d62b)" style="fill: #cbdef1; fill-opacity: 0.9"/>
    <path clip-path="url(#p1a36c2d62b)" style="fill: #c6dbef; fill-opacity: 0.9"/>
    <path clip-path="url(#p1a36c2d62b)" style="fill: #bed8ec; fill-opacity: 0.9"/>
    <path clip-path="url(#p1a36c2d62b)" style="fill: #b5d4e9; fill-opacity: 0.9"/>
    <path clip-path="url(#p1a36c2d62b)" style="fill: #add0e6; fill-opacity: 0.9"/>
    <path clip-path="url(#p1a36c2d62b)" style="fill: #a5cde3; fill-opacity: 0.9"/>
    <path clip-path="url(#p1a36c2d62b)" style="fill: #9cc9e1; fill-opacity: 0.9"/>
    <path clip-path="url(#p1a36c2d62b)" style="fill: #91c3de; fill-opacity: 0.9"/>
    <path clip-path="url(#p1a36c2d62b)" style="fill: #85bcdc; fill-opacity: 0.9"/>
    <path clip-path="url(#p1a36c2d62b)" style="fill: #7cb7da; fill-opacity: 0.9"/>
    <path clip-path="url(#p1a36c2d62b)" style="fill: #71b1d7; fill-opacity: 0.9"/>
    <path clip-path="url(#p1a36c2d62b)" style="fill: #66abd4; fill-opacity: 0.9"/>
    <path clip-path="url(#p1a36c2d62b)" style="fill: #5da5d1; fill-opacity: 0.9"/>
    <path clip-path="url(#p1a36c2d62b)" style="fill: #56a0ce; fill-opacity: 0.9"/>
    <path clip-path="url(#p1a36c2d62b)" style="fill: #4d99ca; fill-opacity: 0.9"/>
    <path clip-path="url(#p1a36c2d62b)" style="fill: #4493c7; fill-opacity: 0.9"/>
    <path clip-path="url(#p1a36c2d62b)" style="fill: #3c8cc3; fill-opacity: 0.9"/>
    <path clip-path="url(#p1a36c2d62b)" style="fill: #3686c0; fill-opacity: 0.9"/>
    <path clip-path="url(#p1a36c2d62b)" style="fill: #2f7fbc; fill-opacity: 0.9"/>
    <path clip-path="url(#p1a36c2d62b)" style="fill: #2777b8; fill-opacity: 0.9"/>
    <path clip-path="url(#p1a36c2d62b)" style="fill: #2070b4; fill-opacity: 0.9"/>
    <path clip-path="url(#p1a36c2d62b)" style="fill: #1c6ab0; fill-opacity: 0.9"/>
    <path clip-path="url(#p1a36c2d62b)" style="fill: #1663aa; fill-opacity: 0.9"/>
    <path clip-path="url(#p1a36c2d62b)" style="fill: #115ca5; fill-opacity: 0.9"/>
    <path clip-path="url(#p1a36c2d62b)" style="fill: #0c56a0; fill-opacity: 0.9"/>
    <path clip-path="url(#p1a36c2d62b)" style="fill: #084f99; fill-opacity: 0.9"/>
    <path clip-path="url(#p1a36c2d62b)" style="fill: #08488e; fill-opacity: 0.9"/>
    <path clip-path="url(#p1a36c2d62b)" style="fill: #084184; fill-opacity: 0.9"/>
    <path clip-path="url(#p1a36c2d62b)" style="fill: #083a7a; fill-opacity: 0.9"/>
    <path clip-path="url(#p1a36c2d62b)" style="fill: #083370; fill-opacity: 0.9"/>
    <path clip-path="url(#p1a36c2d62b)" style="fill: #08306b; fill-opacity: 0.9"/>
   </g>
   <g id="QuadContourSet_2">
    <path d="M 576 728.947464 
L 574.652232 731.965285 
L 574.036071 733.198487 
M 565.272049 748.85116 
L 563.23169 748.45099 
L 562.834286 748.397392 
L 561.2855 745.153849 
L 559.542857 743.712379 
L 558.103885 745.153849 
L 558.103885 748.45099 
L 559.346611 751.748131 
L 558.07788 755.045272 
L 556.251429 756.478216 
L 555.009377 758.342413 
L 552.96 760.805394 
L 552.172528 761.639553 
L 551.294665 764.936694 
L 549.668571 767.90608 
L 549.289931 768.233835 
L 547.479099 771.530976 
L 546.873972 774.828117 
L 546.377143 775.358961 
L 543.283402 778.125258 
L 543.085714 779.424698 
L 539.794286 780.338599 
L 539.239177 781.422399 
L 536.502857 783.685108 
L 535.529457 784.71954 
L 533.769254 788.016681 
L 533.211429 788.428773 
L 531.416635 791.313822 
L 529.92 793.267321 
L 528.903973 794.610963 
L 527.998829 797.908104 
L 526.628571 800.532263 
L 525.672168 801.205245 
L 524.095647 804.502385 
L 523.660735 807.799526 
L 523.337143 808.156255 
L 520.045714 808.699604 
L 519.935123 807.799526 
L 516.754286 806.119426 
L 515.097938 807.799526 
L 513.462857 809.437445 
L 511.806509 811.096667 
L 513.462857 813.131743 
L 515.60474 814.393808 
L 513.462857 816.110029 
L 512.256333 817.690949 
L 510.171429 820.433977 
L 509.618275 820.98809 
M 516.754286 811.658566 
L 516.543639 811.096667 
L 516.754286 810.885655 
L 518.152389 811.096667 
L 516.754286 811.658566 
z
M 536.502857 779.782833 
L 538.837544 778.125258 
L 536.502857 776.537692 
L 534.918041 778.125258 
L 536.502857 779.782833 
z
" clip-path="url(#p1a36c2d62b)" style="fill: none"/>
    <path d="M 576 731.118472 
L 575.621811 731.965285 
L 575.107993 735.262426 
L 572.708571 737.600741 
L 572.139111 738.559567 
L 571.906799 741.856708 
L 569.417143 744.573237 
L 568.808029 745.153849 
L 568.338799 748.45099 
L 566.525614 751.748131 
L 566.125714 752.125295 
L 564.120845 755.045272 
L 563.402158 758.342413 
L 562.834286 758.883451 
L 560.619994 758.342413 
L 559.542857 757.502276 
L 556.251429 757.924424 
L 555.972937 758.342413 
L 554.051941 761.639553 
L 552.96 762.49446 
L 552.220396 764.936694 
L 551.30078 768.233835 
L 550.688476 768.834238 
M 541.75226 784.699901 
L 541.711186 784.71954 
L 539.815376 788.016681 
L 539.794286 788.091399 
L 539.71303 788.016681 
L 536.502857 785.13631 
L 535.954992 788.016681 
L 533.211429 790.043481 
L 532.421147 791.313822 
L 529.92 794.578473 
L 529.895432 794.610963 
L 528.893039 797.908104 
L 527.76186 801.205245 
L 526.628571 802.320114 
L 525.253193 804.502385 
L 525.015756 807.799526 
L 523.337143 809.650034 
L 521.513239 811.096667 
L 520.972565 814.393808 
L 520.045714 816.333806 
L 516.754286 816.637779 
L 513.462857 817.270607 
L 513.142061 817.690949 
L 511.616428 820.98809 
M 513.462857 812.278284 
L 515.251637 811.096667 
L 513.462857 810.133281 
L 512.50114 811.096667 
L 513.462857 812.278284 
z
M 516.754286 809.59141 
L 518.60116 807.799526 
L 516.754286 806.824018 
L 515.792569 807.799526 
L 516.754286 809.59141 
z
M 536.502857 779.005072 
L 537.742071 778.125258 
L 536.502857 777.282603 
L 535.661662 778.125258 
L 536.502857 779.005072 
z
M 559.542857 750.023321 
L 561.005834 748.45099 
L 560.306053 745.153849 
L 559.542857 744.522553 
L 558.912655 745.153849 
L 558.912655 748.45099 
L 559.542857 750.023321 
z
" clip-path="url(#p1a36c2d62b)" style="fill: none"/>
    <path d="M 576 764.052858 
L 575.664321 764.936694 
L 574.45854 766.273168 
M 563.308006 781.206469 
L 562.838478 781.422399 
L 562.834286 781.426542 
L 559.542857 782.228177 
L 556.251429 782.546099 
L 554.423191 784.71954 
L 552.96 785.67706 
L 551.409271 788.016681 
L 550.370093 791.313822 
L 549.668571 791.985199 
L 547.019717 794.610963 
L 546.704974 797.908104 
L 546.377143 798.416225 
L 544.154588 797.908104 
L 543.534377 794.610963 
L 543.085714 793.209931 
L 539.794286 794.421059 
L 539.151524 794.610963 
L 536.502857 796.777839 
L 534.156237 794.610963 
L 533.211429 793.764579 
L 532.980299 794.610963 
L 529.92 797.472495 
L 529.787248 797.908104 
L 529.628847 801.205245 
L 526.628571 804.156758 
L 526.41074 804.502385 
L 526.370777 807.799526 
L 523.794865 811.096667 
L 523.337143 811.498065 
L 522.8986 814.393808 
L 522.484162 817.690949 
L 520.045714 820.032081 
L 519.026206 820.98809 
M 513.462857 811.424824 
L 513.959634 811.096667 
L 513.462857 810.829117 
L 513.195771 811.096667 
L 513.462857 811.424824 
z
M 516.754286 808.297165 
L 517.267197 807.799526 
L 516.754286 807.52861 
L 516.487199 807.799526 
L 516.754286 808.297165 
z
M 536.502857 778.227312 
L 536.646599 778.125258 
L 536.502857 778.027515 
L 536.405283 778.125258 
L 536.502857 778.227312 
z
" clip-path="url(#p1a36c2d62b)" style="fill: none"/>
    <path d="M 576 794.691186 
L 574.562877 796.672357 
M 563.352354 812.30902 
L 562.834286 813.075176 
L 561.913043 814.393808 
L 559.606357 817.690949 
L 559.542857 817.789737 
L 557.387179 820.98809 
" clip-path="url(#p1a36c2d62b)" style="fill: none"/>
    <path d="M 576 819.523479 
L 574.991438 820.98809 
" clip-path="url(#p1a36c2d62b)" style="fill: none"/>
    <path clip-path="url(#p1a36c2d62b)" style="fill: none"/>
    <path clip-path="url(#p1a36c2d62b)" style="fill: none"/>
    <path clip-path="url(#p1a36c2d62b)" style="fill: none"/>
    <path clip-path="url(#p1a36c2d62b)" style="fill: none"/>
    <path clip-path="url(#p1a36c2d62b)" style="fill: none"/>
    <path clip-path="url(#p1a36c2d62b)" style="fill: none"/>
    <path clip-path="url(#p1a36c2d62b)" style="fill: none"/>
    <path clip-path="url(#p1a36c2d62b)" style="fill: none"/>
    <path clip-path="url(#p1a36c2d62b)" style="fill: none"/>
    <path clip-path="url(#p1a36c2d62b)" style="fill: none"/>
    <path clip-path="url(#p1a36c2d62b)" style="fill: none"/>
    <path clip-path="url(#p1a36c2d62b)" style="fill: none"/>
    <path clip-path="url(#p1a36c2d62b)" style="fill: none"/>
    <path clip-path="url(#p1a36c2d62b)" style="fill: none"/>
    <path clip-path="url(#p1a36c2d62b)" style="fill: none"/>
    <path clip-path="url(#p1a36c2d62b)" style="fill: none"/>
    <path clip-path="url(#p1a36c2d62b)" style="fill: none"/>
    <path clip-path="url(#p1a36c2d62b)" style="fill: none"/>
    <path clip-path="url(#p1a36c2d62b)" style="fill: none"/>
    <path clip-path="url(#p1a36c2d62b)" style="fill: none"/>
    <path clip-path="url(#p1a36c2d62b)" style="fill: none"/>
    <path clip-path="url(#p1a36c2d62b)" style="fill: none"/>
    <path clip-path="url(#p1a36c2d62b)" style="fill: none"/>
    <path clip-path="url(#p1a36c2d62b)" style="fill: none"/>
    <path clip-path="url(#p1a36c2d62b)" style="fill: none"/>
    <path clip-path="url(#p1a36c2d62b)" style="fill: none"/>
    <path clip-path="url(#p1a36c2d62b)" style="fill: none"/>
    <path clip-path="url(#p1a36c2d62b)" style="fill: none"/>
    <path clip-path="url(#p1a36c2d62b)" style="fill: none"/>
    <path clip-path="url(#p1a36c2d62b)" style="fill: none"/>
    <path clip-path="url(#p1a36c2d62b)" style="fill: none"/>
    <path clip-path="url(#p1a36c2d62b)" style="fill: none"/>
    <path clip-path="url(#p1a36c2d62b)" style="fill: none"/>
    <path clip-path="url(#p1a36c2d62b)" style="fill: none"/>
   </g>
   <g id="text_1">
    <g clip-path="url(#p1a36c2d62b)">
     <!-- 0 -->
     <g style="opacity: 0" transform="translate(571.222621 746.827073) rotate(-59.468082) scale(0.12 -0.12)">
      <defs>
       <path id="DejaVuSans-30" d="M 2034 4250 
Q 1547 4250 1301 3770 
Q 1056 3291 1056 2328 
Q 1056 1369 1301 889 
Q 1547 409 2034 409 
Q 2525 409 2770 889 
Q 3016 1369 3016 2328 
Q 3016 3291 2770 3770 
Q 2525 4250 2034 4250 
z
M 2034 4750 
Q 2819 4750 3233 4129 
Q 3647 3509 3647 2328 
Q 3647 1150 3233 529 
Q 2819 -91 2034 -91 
Q 1250 -91 836 529 
Q 422 1150 422 2328 
Q 422 3509 836 4129 
Q 1250 4750 2034 4750 
z
" transform="scale(0.015625)"/>
      </defs>
      <use xlink:href="#DejaVuSans-30"/>
     </g>
    </g>
   </g>
   <g id="text_2">
    <g clip-path="url(#p1a36c2d62b)">
     <!-- 1 -->
     <g style="opacity: 0" transform="translate(547.790799 781.806919) rotate(-65.30668) scale(0.12 -0.12)">
      <defs>
       <path id="DejaVuSans-31" d="M 794 531 
L 1825 531 
L 1825 4091 
L 703 3866 
L 703 4441 
L 1819 4666 
L 2450 4666 
L 2450 531 
L 3481 531 
L 3481 0 
L 794 0 
L 794 531 
z
" transform="scale(0.015625)"/>
      </defs>
      <use xlink:href="#DejaVuSans-31"/>
     </g>
    </g>
   </g>
   <g id="text_3">
    <g clip-path="url(#p1a36c2d62b)">
     <!-- 2 -->
     <g style="opacity: 0" transform="translate(570.222662 779.365936) rotate(-58.234064) scale(0.12 -0.12)">
      <defs>
       <path id="DejaVuSans-32" d="M 1228 531 
L 3431 531 
L 3431 0 
L 469 0 
L 469 531 
Q 828 903 1448 1529 
Q 2069 2156 2228 2338 
Q 2531 2678 2651 2914 
Q 2772 3150 2772 3378 
Q 2772 3750 2511 3984 
Q 2250 4219 1831 4219 
Q 1534 4219 1204 4116 
Q 875 4013 500 3803 
L 500 4441 
Q 881 4594 1212 4672 
Q 1544 4750 1819 4750 
Q 2544 4750 2975 4387 
Q 3406 4025 3406 3419 
Q 3406 3131 3298 2873 
Q 3191 2616 2906 2266 
Q 2828 2175 2409 1742 
Q 1991 1309 1228 531 
z
" transform="scale(0.015625)"/>
      </defs>
      <use xlink:href="#DejaVuSans-32"/>
     </g>
    </g>
   </g>
   <g id="text_4">
    <g clip-path="url(#p1a36c2d62b)">
     <!-- 3 -->
     <g style="opacity: 0" transform="translate(569.446078 809.533849) rotate(-54.412619) scale(0.12 -0.12)">
      <defs>
       <path id="DejaVuSans-33" d="M 2597 2516 
Q 3050 2419 3304 2112 
Q 3559 1806 3559 1356 
Q 3559 666 3084 287 
Q 2609 -91 1734 -91 
Q 1441 -91 1130 -33 
Q 819 25 488 141 
L 488 750 
Q 750 597 1062 519 
Q 1375 441 1716 441 
Q 2309 441 2620 675 
Q 2931 909 2931 1356 
Q 2931 1769 2642 2001 
Q 2353 2234 1838 2234 
L 1294 2234 
L 1294 2753 
L 1863 2753 
Q 2328 2753 2575 2939 
Q 2822 3125 2822 3475 
Q 2822 3834 2567 4026 
Q 2313 4219 1838 4219 
Q 1578 4219 1281 4162 
Q 984 4106 628 3988 
L 628 4550 
Q 988 4650 1302 4700 
Q 1616 4750 1894 4750 
Q 2613 4750 3031 4423 
Q 3450 4097 3450 3541 
Q 3450 3153 3228 2886 
Q 3006 2619 2597 2516 
z
" transform="scale(0.015625)"/>
      </defs>
      <use xlink:href="#DejaVuSans-33"/>
     </g>
    </g>
   </g>
  </g>
 </g>
 <defs>
  <clipPath id="p1a36c2d62b">
   <rect x="0" y="0" width="576" height="820.98809"/>
  </clipPath>
 </defs>
</svg>
