<?xml version="1.0" encoding="utf-8" standalone="no"?>
<!DOCTYPE svg PUBLIC "-//W3C//DTD SVG 1.1//EN"
  "http://www.w3.org/Graphics/SVG/1.1/DTD/svg11.dtd">
<svg xmlns:xlink="http://www.w3.org/1999/xlink" width="576pt" height="817.373583pt" viewBox="0 0 576 817.373583" xmlns="http://www.w3.org/2000/svg" version="1.1">
 <metadata>
  <rdf:RDF xmlns:dc="http://purl.org/dc/elements/1.1/" xmlns:cc="http://creativecommons.org/ns#" xmlns:rdf="http://www.w3.org/1999/02/22-rdf-syntax-ns#">
   <cc:Work>
    <dc:type rdf:resource="http://purl.org/dc/dcmitype/StillImage"/>
    <dc:date>2025-07-25T22:44:34.951570</dc:date>
    <dc:format>image/svg+xml</dc:format>
    <dc:creator>
     <cc:Agent>
      <dc:title>Matplotlib v3.10.3, https://matplotlib.org/</dc:title>
     </cc:Agent>
    </dc:creator>
   </cc:Work>
  </rdf:RDF>
 </metadata>
 <defs>
  <style type="text/css">*{stroke-linejoin: round; stroke-linecap: butt}</style>
 </defs>
 <g id="figure_1">
  <g id="patch_1">
   <path d="M 0 817.373583 
L 576 817.373583 
L 576 0 
L 0 0 
L 0 817.373583 
z
" style="fill: none; opacity: 0"/>
  </g>
  <g id="axes_1">
   <g id="QuadContourSet_1">
    <path d="M 3.272727 817.373583 
L 6.545455 817.373583 
L 9.818182 817.373583 
L 13.090909 817.373583 
L 16.363636 817.373583 
L 19.636364 817.373583 
L 22.909091 817.373583 
L 26.181818 817.373583 
L 29.454545 817.373583 
L 32.727273 817.373583 
L 36 817.373583 
L 39.272727 817.373583 
L 42.545455 817.373583 
L 45.818182 817.373583 
L 49.090909 817.373583 
L 52.363636 817.373583 
L 55.636364 817.373583 
L 58.909091 817.373583 
L 62.181818 817.373583 
L 65.454545 817.373583 
L 68.727273 817.373583 
L 72 817.373583 
L 75.272727 817.373583 
L 78.545455 817.373583 
L 81.818182 817.373583 
L 85.090909 817.373583 
L 88.363636 817.373583 
L 91.636364 817.373583 
L 94.909091 817.373583 
L 98.181818 817.373583 
L 101.454545 817.373583 
L 104.727273 817.373583 
L 108 817.373583 
L 111.272727 817.373583 
L 114.545455 817.373583 
L 117.818182 817.373583 
L 121.090909 817.373583 
L 124.363636 817.373583 
L 127.636364 817.373583 
L 130.909091 817.373583 
L 134.181818 817.373583 
L 137.454545 817.373583 
L 140.727273 817.373583 
L 144 817.373583 
L 147.272727 817.373583 
L 150.545455 817.373583 
L 153.818182 817.373583 
L 157.090909 817.373583 
L 160.363636 817.373583 
L 163.636364 817.373583 
L 166.909091 817.373583 
L 170.181818 817.373583 
L 173.454545 817.373583 
L 176.727273 817.373583 
L 180 817.373583 
L 183.272727 817.373583 
L 186.545455 817.373583 
L 189.818182 817.373583 
L 193.090909 817.373583 
L 196.363636 817.373583 
L 199.636364 817.373583 
L 202.909091 817.373583 
L 206.181818 817.373583 
L 209.454545 817.373583 
L 212.727273 817.373583 
L 216 817.373583 
L 219.272727 817.373583 
L 222.545455 817.373583 
L 225.818182 817.373583 
L 229.090909 817.373583 
L 232.363636 817.373583 
L 235.636364 817.373583 
L 238.909091 817.373583 
L 242.181818 817.373583 
L 245.454545 817.373583 
L 248.727273 817.373583 
L 252 817.373583 
L 255.272727 817.373583 
L 258.545455 817.373583 
L 261.818182 817.373583 
L 265.090909 817.373583 
L 268.363636 817.373583 
L 271.636364 817.373583 
L 274.909091 817.373583 
L 278.181818 817.373583 
L 281.454545 817.373583 
L 284.727273 817.373583 
L 288 817.373583 
L 291.272727 817.373583 
L 294.545455 817.373583 
L 297.818182 817.373583 
L 301.090909 817.373583 
L 304.363636 817.373583 
L 307.636364 817.373583 
L 310.909091 817.373583 
L 314.181818 817.373583 
L 317.454545 817.373583 
L 320.727273 817.373583 
L 324 817.373583 
L 327.272727 817.373583 
L 330.545455 817.373583 
L 333.818182 817.373583 
L 337.090909 817.373583 
L 340.363636 817.373583 
L 343.636364 817.373583 
L 346.909091 817.373583 
L 350.181818 817.373583 
L 353.454545 817.373583 
L 356.727273 817.373583 
L 360 817.373583 
L 363.272727 817.373583 
L 366.545455 817.373583 
L 369.818182 817.373583 
L 373.090909 817.373583 
L 376.363636 817.373583 
L 379.636364 817.373583 
L 382.909091 817.373583 
L 386.181818 817.373583 
L 389.454545 817.373583 
L 392.727273 817.373583 
L 396 817.373583 
L 399.272727 817.373583 
L 402.545455 817.373583 
L 405.818182 817.373583 
L 409.090909 817.373583 
L 412.363636 817.373583 
L 415.636364 817.373583 
L 418.909091 817.373583 
L 422.181818 817.373583 
L 425.454545 817.373583 
L 428.727273 817.373583 
L 432 817.373583 
L 435.272727 817.373583 
L 438.545455 817.373583 
L 441.818182 817.373583 
L 445.090909 817.373583 
L 448.363636 817.373583 
L 451.636364 817.373583 
L 454.909091 817.373583 
L 458.181818 817.373583 
L 461.454545 817.373583 
L 464.727273 817.373583 
L 468 817.373583 
L 471.272727 817.373583 
L 474.545455 817.373583 
L 477.818182 817.373583 
L 481.090909 817.373583 
L 484.363636 817.373583 
L 487.636364 817.373583 
L 490.909091 817.373583 
L 494.181818 817.373583 
L 497.454545 817.373583 
L 500.727273 817.373583 
L 504 817.373583 
L 507.272727 817.373583 
L 510.545455 817.373583 
L 513.818182 817.373583 
L 517.090909 817.373583 
L 520.363636 817.373583 
L 523.636364 817.373583 
L 526.909091 817.373583 
L 530.181818 817.373583 
L 533.454545 817.373583 
L 536.727273 817.373583 
L 540 817.373583 
L 543.272727 817.373583 
L 546.545455 817.373583 
L 549.818182 817.373583 
L 553.090909 817.373583 
L 556.363636 817.373583 
L 559.636364 817.373583 
L 562.909091 817.373583 
L 566.181818 817.373583 
L 569.454545 817.373583 
L 572.727273 817.373583 
L 576 817.373583 
L 576 814.090958 
L 576 810.808333 
L 576 807.525709 
L 576 804.243084 
L 576 800.960459 
L 576 797.677834 
L 576 794.395209 
L 576 791.112584 
L 576 787.82996 
L 576 784.547335 
L 576 781.26471 
L 576 777.982085 
L 576 774.69946 
L 576 771.416836 
L 576 768.134211 
L 576 764.851586 
L 576 761.568961 
L 576 758.286336 
L 576 755.003711 
L 576 751.721087 
L 576 748.438462 
L 576 745.155837 
L 576 741.873212 
L 576 738.590587 
L 576 735.307962 
L 576 732.025338 
L 576 728.742713 
L 576 725.460088 
L 576 722.177463 
L 576 718.894838 
L 576 715.612213 
L 576 712.329589 
L 576 709.046964 
L 576 705.764339 
L 576 702.481714 
L 576 699.199089 
L 576 695.916464 
L 576 692.63384 
L 576 689.351215 
L 576 686.06859 
L 576 682.785965 
L 576 679.50334 
L 576 676.220715 
L 576 672.938091 
L 576 669.655466 
L 576 666.372841 
L 576 663.090216 
L 576 659.807591 
L 576 656.524966 
L 576 653.242342 
L 576 649.959717 
L 576 646.677092 
L 576 643.394467 
L 576 640.111842 
L 576 636.829217 
L 576 633.546593 
L 576 630.263968 
L 576 626.981343 
L 576 623.698718 
L 576 620.416093 
L 576 617.133468 
L 576 613.850844 
L 576 610.568219 
L 576 607.285594 
L 576 604.002969 
L 576 600.720344 
L 576 597.437719 
L 576 594.155095 
L 576 590.87247 
L 576 587.589845 
L 576 584.30722 
L 576 581.024595 
L 576 577.74197 
L 576 574.459346 
L 576 571.176721 
L 576 567.894096 
L 576 564.611471 
L 576 561.328846 
L 576 558.046221 
L 576 554.763597 
L 576 551.480972 
L 576 548.198347 
L 576 544.915722 
L 576 541.633097 
L 576 538.350472 
L 576 535.067848 
L 576 531.785223 
L 576 528.502598 
L 576 525.219973 
L 576 521.937348 
L 576 518.654723 
L 576 515.372099 
L 576 512.089474 
L 576 508.806849 
L 576 505.524224 
L 576 502.241599 
L 576 498.958974 
L 576 495.67635 
L 576 492.393725 
L 576 489.1111 
L 576 485.828475 
L 576 482.54585 
L 576 479.263225 
L 576 475.980601 
L 576 472.697976 
L 576 469.415351 
L 576 466.132726 
L 576 462.850101 
L 576 459.567476 
L 576 456.284852 
L 576 453.002227 
L 576 449.719602 
L 576 446.436977 
L 576 443.154352 
L 576 439.871727 
L 576 436.589103 
L 576 433.306478 
L 576 430.023853 
L 576 426.741228 
L 576 423.458603 
L 576 420.175978 
L 576 416.893354 
L 576 413.610729 
L 576 410.328104 
L 576 407.045479 
L 576 403.762854 
L 576 400.480229 
L 576 397.197605 
L 576 393.91498 
L 576 390.632355 
L 576 387.34973 
L 576 384.067105 
L 576 380.784481 
L 576 377.501856 
L 576 374.219231 
L 576 370.936606 
L 576 367.653981 
L 576 364.371356 
L 576 361.088732 
L 576 357.806107 
L 576 354.523482 
L 576 351.240857 
L 576 347.958232 
L 576 344.675607 
L 576 341.392983 
L 576 338.110358 
L 576 334.827733 
L 576 331.545108 
L 576 328.262483 
L 576 324.979858 
L 576 321.697234 
L 576 318.414609 
L 576 315.131984 
L 576 311.849359 
L 576 308.566734 
L 576 305.284109 
L 576 302.001485 
L 576 298.71886 
L 576 295.436235 
L 576 292.15361 
L 576 288.870985 
L 576 285.58836 
L 576 282.305736 
L 576 279.023111 
L 576 275.740486 
L 576 272.457861 
L 576 269.175236 
L 576 265.892611 
L 576 262.609987 
L 576 259.327362 
L 576 256.044737 
L 576 252.762112 
L 576 249.479487 
L 576 246.196862 
L 576 242.914238 
L 576 239.631613 
L 576 236.348988 
L 576 233.066363 
L 576 229.783738 
L 576 226.501113 
L 576 223.218489 
L 576 219.935864 
L 576 216.653239 
L 576 213.370614 
L 576 210.087989 
L 576 206.805364 
L 576 203.52274 
L 576 200.240115 
L 576 196.95749 
L 576 193.674865 
L 576 190.39224 
L 576 187.109615 
L 576 183.826991 
L 576 180.544366 
L 576 177.261741 
L 576 173.979116 
L 576 170.696491 
L 576 167.413866 
L 576 164.131242 
L 576 160.848617 
L 576 157.565992 
L 576 154.283367 
L 576 151.000742 
L 576 147.718117 
L 576 144.435493 
L 576 141.152868 
L 576 137.870243 
L 576 134.587618 
L 576 131.304993 
L 576 128.022368 
L 576 124.739744 
L 576 121.457119 
L 576 118.174494 
L 576 114.891869 
L 576 111.609244 
L 576 108.326619 
L 576 105.043995 
L 576 101.76137 
L 576 98.478745 
L 576 95.19612 
L 576 91.913495 
L 576 88.63087 
L 576 85.348246 
L 576 82.065621 
L 576 78.782996 
L 576 75.500371 
L 576 72.217746 
L 576 68.935121 
L 576 65.652497 
L 576 62.369872 
L 576 59.087247 
L 576 55.804622 
L 576 52.521997 
L 576 49.239372 
L 576 45.956748 
L 576 42.674123 
L 576 39.391498 
L 576 36.108873 
L 576 32.826248 
L 576 29.543623 
L 576 26.260999 
L 576 22.978374 
L 576 19.695749 
L 576 16.413124 
L 576 13.130499 
L 576 9.847874 
L 576 6.56525 
L 576 3.282625 
L 576 0 
L 572.727273 0 
L 569.454545 0 
L 566.181818 0 
L 562.909091 0 
L 559.636364 0 
L 556.363636 0 
L 553.090909 0 
L 549.818182 0 
L 546.545455 0 
L 543.272727 0 
L 540 0 
L 536.727273 0 
L 533.454545 0 
L 530.181818 0 
L 526.909091 0 
L 523.636364 0 
L 520.363636 0 
L 517.090909 0 
L 513.818182 0 
L 510.545455 0 
L 507.272727 0 
L 504 0 
L 500.727273 0 
L 497.454545 0 
L 494.181818 0 
L 490.909091 0 
L 487.636364 0 
L 484.363636 0 
L 481.090909 0 
L 477.818182 0 
L 474.545455 0 
L 471.272727 0 
L 468 0 
L 464.727273 0 
L 461.454545 0 
L 458.181818 0 
L 454.909091 0 
L 451.636364 0 
L 448.363636 0 
L 445.090909 0 
L 441.818182 0 
L 438.545455 0 
L 435.272727 0 
L 432 0 
L 428.727273 0 
L 425.454545 0 
L 422.181818 0 
L 418.909091 0 
L 415.636364 0 
L 412.363636 0 
L 409.090909 0 
L 405.818182 0 
L 402.545455 0 
L 399.272727 0 
L 396 0 
L 392.727273 0 
L 389.454545 0 
L 386.181818 0 
L 382.909091 0 
L 379.636364 0 
L 376.363636 0 
L 373.090909 0 
L 369.818182 0 
L 366.545455 0 
L 363.272727 0 
L 360 0 
L 356.727273 0 
L 353.454545 0 
L 350.181818 0 
L 346.909091 0 
L 343.636364 0 
L 340.363636 0 
L 337.090909 0 
L 333.818182 0 
L 330.545455 0 
L 327.272727 0 
L 324 0 
L 320.727273 0 
L 317.454545 0 
L 314.181818 0 
L 310.909091 0 
L 307.636364 0 
L 304.363636 0 
L 301.090909 0 
L 297.818182 0 
L 294.545455 0 
L 291.272727 0 
L 288 0 
L 284.727273 0 
L 281.454545 0 
L 278.181818 0 
L 274.909091 0 
L 271.636364 0 
L 268.363636 0 
L 265.090909 0 
L 261.818182 0 
L 258.545455 0 
L 255.272727 0 
L 252 0 
L 248.727273 0 
L 245.454545 0 
L 242.181818 0 
L 238.909091 0 
L 235.636364 0 
L 232.363636 0 
L 229.090909 0 
L 225.818182 0 
L 222.545455 0 
L 219.272727 0 
L 216 0 
L 212.727273 0 
L 209.454545 0 
L 206.181818 0 
L 202.909091 0 
L 199.636364 0 
L 196.363636 0 
L 193.090909 0 
L 189.818182 0 
L 186.545455 0 
L 183.272727 0 
L 180 0 
L 176.727273 0 
L 173.454545 0 
L 170.181818 0 
L 166.909091 0 
L 163.636364 0 
L 160.363636 0 
L 157.090909 0 
L 153.818182 0 
L 150.545455 0 
L 147.272727 0 
L 144 0 
L 140.727273 0 
L 137.454545 0 
L 134.181818 0 
L 130.909091 0 
L 127.636364 0 
L 124.363636 0 
L 121.090909 0 
L 117.818182 0 
L 114.545455 0 
L 111.272727 0 
L 108 0 
L 104.727273 0 
L 101.454545 0 
L 98.181818 0 
L 94.909091 0 
L 91.636364 0 
L 88.363636 0 
L 85.090909 0 
L 81.818182 0 
L 78.545455 0 
L 75.272727 0 
L 72 0 
L 68.727273 0 
L 65.454545 0 
L 62.181818 0 
L 58.909091 0 
L 55.636364 0 
L 52.363636 0 
L 49.090909 0 
L 45.818182 0 
L 42.545455 0 
L 39.272727 0 
L 36 0 
L 32.727273 0 
L 29.454545 0 
L 26.181818 0 
L 22.909091 0 
L 19.636364 0 
L 16.363636 0 
L 13.090909 0 
L 9.818182 0 
L 6.545455 0 
L 3.272727 0 
L 0 0 
L 0 3.282625 
L 0 6.56525 
L 0 9.847874 
L 0 13.130499 
L 0 16.413124 
L 0 19.695749 
L 0 22.978374 
L 0 26.260999 
L 0 29.543623 
L 0 32.826248 
L 0 36.108873 
L 0 39.391498 
L 0 42.674123 
L 0 45.956748 
L 0 49.239372 
L 0 52.521997 
L 0 55.804622 
L 0 59.087247 
L 0 62.369872 
L 0 65.652497 
L 0 68.935121 
L 0 72.217746 
L 0 75.500371 
L 0 78.782996 
L 0 82.065621 
L 0 85.348246 
L 0 88.63087 
L 0 91.913495 
L 0 95.19612 
L 0 98.478745 
L 0 101.76137 
L 0 105.043995 
L 0 108.326619 
L 0 111.609244 
L 0 114.891869 
L 0 118.174494 
L 0 121.457119 
L 0 124.739744 
L 0 128.022368 
L 0 131.304993 
L 0 134.587618 
L 0 137.870243 
L 0 141.152868 
L 0 144.435493 
L 0 147.718117 
L 0 151.000742 
L 0 154.283367 
L 0 157.565992 
L 0 160.848617 
L 0 164.131242 
L 0 167.413866 
L 0 170.696491 
L 0 173.979116 
L 0 177.261741 
L 0 180.544366 
L 0 183.826991 
L 0 187.109615 
L 0 190.39224 
L 0 193.674865 
L 0 196.95749 
L 0 200.240115 
L 0 203.52274 
L 0 206.805364 
L 0 210.087989 
L 0 213.370614 
L 0 216.653239 
L 0 219.935864 
L 0 223.218489 
L 0 226.501113 
L 0 229.783738 
L 0 233.066363 
L 0 236.348988 
L 0 239.631613 
L 0 242.914238 
L 0 246.196862 
L 0 249.479487 
L 0 252.762112 
L 0 256.044737 
L 0 259.327362 
L 0 262.609987 
L 0 265.892611 
L 0 269.175236 
L 0 272.457861 
L 0 275.740486 
L 0 279.023111 
L 0 282.305736 
L 0 285.58836 
L 0 288.870985 
L 0 292.15361 
L 0 295.436235 
L 0 298.71886 
L 0 302.001485 
L 0 305.284109 
L 0 308.566734 
L 0 311.849359 
L 0 315.131984 
L 0 318.414609 
L 0 321.697234 
L 0 324.979858 
L 0 328.262483 
L 0 331.545108 
L 0 334.827733 
L 0 338.110358 
L 0 341.392983 
L 0 344.675607 
L 0 347.958232 
L 0 351.240857 
L 0 354.523482 
L 0 357.806107 
L 0 361.088732 
L 0 364.371356 
L 0 367.653981 
L 0 370.936606 
L 0 374.219231 
L 0 377.501856 
L 0 380.784481 
L 0 384.067105 
L 0 387.34973 
L 0 390.632355 
L 0 393.91498 
L 0 397.197605 
L 0 400.480229 
L 0 403.762854 
L 0 407.045479 
L 0 410.328104 
L 0 413.610729 
L 0 416.893354 
L 0 420.175978 
L 0 423.458603 
L 0 426.741228 
L 0 430.023853 
L 0 433.306478 
L 0 436.589103 
L 0 439.871727 
L 0 443.154352 
L 0 446.436977 
L 0 449.719602 
L 0 453.002227 
L 0 456.284852 
L 0 459.567476 
L 0 462.850101 
L 0 466.132726 
L 0 469.415351 
L 0 472.697976 
L 0 475.980601 
L 0 479.263225 
L 0 482.54585 
L 0 485.828475 
L 0 489.1111 
L 0 492.393725 
L 0 495.67635 
L 0 498.958974 
L 0 502.241599 
L 0 505.524224 
L 0 508.806849 
L 0 512.089474 
L 0 515.372099 
L 0 518.654723 
L 0 521.937348 
L 0 525.219973 
L 0 528.502598 
L 0 531.785223 
L 0 535.067848 
L 0 538.350472 
L 0 541.633097 
L 0 544.915722 
L 0 548.198347 
L 0 551.480972 
L 0 554.763597 
L 0 558.046221 
L 0 561.328846 
L 0 564.611471 
L 0 567.894096 
L 0 571.176721 
L 0 574.459346 
L 0 577.74197 
L 0 581.024595 
L 0 584.30722 
L 0 587.589845 
L 0 590.87247 
L 0 594.155095 
L 0 597.437719 
L 0 600.720344 
L 0 604.002969 
L 0 607.285594 
L 0 610.568219 
L 0 613.850844 
L 0 617.133468 
L 0 620.416093 
L 0 623.698718 
L 0 626.981343 
L 0 630.263968 
L 0 633.546593 
L 0 636.829217 
L 0 640.111842 
L 0 643.394467 
L 0 646.677092 
L 0 649.959717 
L 0 653.242342 
L 0 656.524966 
L 0 659.807591 
L 0 663.090216 
L 0 666.372841 
L 0 669.655466 
L 0 672.938091 
L 0 676.220715 
L 0 679.50334 
L 0 682.785965 
L 0 686.06859 
L 0 689.351215 
L 0 692.63384 
L 0 695.916464 
L 0 699.199089 
L 0 702.481714 
L 0 705.764339 
L 0 709.046964 
L 0 712.329589 
L 0 715.612213 
L 0 718.894838 
L 0 722.177463 
L 0 725.460088 
L 0 728.742713 
L 0 732.025338 
L 0 735.307962 
L 0 738.590587 
L 0 741.873212 
L 0 745.155837 
L 0 748.438462 
L 0 751.721087 
L 0 755.003711 
L 0 758.286336 
L 0 761.568961 
L 0 764.851586 
L 0 768.134211 
L 0 771.416836 
L 0 774.69946 
L 0 777.982085 
L 0 781.26471 
L 0 784.547335 
L 0 787.82996 
L 0 791.112584 
L 0 794.395209 
L 0 797.677834 
L 0 800.960459 
L 0 804.243084 
L 0 807.525709 
L 0 810.808333 
L 0 814.090958 
L 0 817.373583 
z
" clip-path="url(#p4288f3dce3)" style="fill: #f5f9fe; fill-opacity: 0.9"/>
    <path clip-path="url(#p4288f3dce3)" style="fill: #eff6fc; fill-opacity: 0.9"/>
    <path clip-path="url(#p4288f3dce3)" style="fill: #eaf3fb; fill-opacity: 0.9"/>
    <path clip-path="url(#p4288f3dce3)" style="fill: #e5eff9; fill-opacity: 0.9"/>
    <path clip-path="url(#p4288f3dce3)" style="fill: #dfecf7; fill-opacity: 0.9"/>
    <path clip-path="url(#p4288f3dce3)" style="fill: #dae8f6; fill-opacity: 0.9"/>
    <path clip-path="url(#p4288f3dce3)" style="fill: #d6e5f4; fill-opacity: 0.9"/>
    <path clip-path="url(#p4288f3dce3)" style="fill: #d0e2f2; fill-opacity: 0.9"/>
    <path clip-path="url(#p4288f3dce3)" style="fill: #cbdef1; fill-opacity: 0.9"/>
    <path clip-path="url(#p4288f3dce3)" style="fill: #c6dbef; fill-opacity: 0.9"/>
    <path clip-path="url(#p4288f3dce3)" style="fill: #bed8ec; fill-opacity: 0.9"/>
    <path clip-path="url(#p4288f3dce3)" style="fill: #b5d4e9; fill-opacity: 0.9"/>
    <path clip-path="url(#p4288f3dce3)" style="fill: #add0e6; fill-opacity: 0.9"/>
    <path clip-path="url(#p4288f3dce3)" style="fill: #a5cde3; fill-opacity: 0.9"/>
    <path clip-path="url(#p4288f3dce3)" style="fill: #9cc9e1; fill-opacity: 0.9"/>
    <path clip-path="url(#p4288f3dce3)" style="fill: #91c3de; fill-opacity: 0.9"/>
    <path clip-path="url(#p4288f3dce3)" style="fill: #85bcdc; fill-opacity: 0.9"/>
    <path clip-path="url(#p4288f3dce3)" style="fill: #7cb7da; fill-opacity: 0.9"/>
    <path clip-path="url(#p4288f3dce3)" style="fill: #71b1d7; fill-opacity: 0.9"/>
    <path clip-path="url(#p4288f3dce3)" style="fill: #66abd4; fill-opacity: 0.9"/>
    <path clip-path="url(#p4288f3dce3)" style="fill: #5da5d1; fill-opacity: 0.9"/>
    <path clip-path="url(#p4288f3dce3)" style="fill: #56a0ce; fill-opacity: 0.9"/>
    <path clip-path="url(#p4288f3dce3)" style="fill: #4d99ca; fill-opacity: 0.9"/>
    <path clip-path="url(#p4288f3dce3)" style="fill: #4493c7; fill-opacity: 0.9"/>
    <path clip-path="url(#p4288f3dce3)" style="fill: #3c8cc3; fill-opacity: 0.9"/>
    <path clip-path="url(#p4288f3dce3)" style="fill: #3686c0; fill-opacity: 0.9"/>
    <path clip-path="url(#p4288f3dce3)" style="fill: #2f7fbc; fill-opacity: 0.9"/>
    <path clip-path="url(#p4288f3dce3)" style="fill: #2777b8; fill-opacity: 0.9"/>
    <path clip-path="url(#p4288f3dce3)" style="fill: #2070b4; fill-opacity: 0.9"/>
    <path clip-path="url(#p4288f3dce3)" style="fill: #1c6ab0; fill-opacity: 0.9"/>
    <path clip-path="url(#p4288f3dce3)" style="fill: #1663aa; fill-opacity: 0.9"/>
    <path clip-path="url(#p4288f3dce3)" style="fill: #115ca5; fill-opacity: 0.9"/>
    <path clip-path="url(#p4288f3dce3)" style="fill: #0c56a0; fill-opacity: 0.9"/>
    <path clip-path="url(#p4288f3dce3)" style="fill: #084f99; fill-opacity: 0.9"/>
    <path clip-path="url(#p4288f3dce3)" style="fill: #08488e; fill-opacity: 0.9"/>
    <path clip-path="url(#p4288f3dce3)" style="fill: #084184; fill-opacity: 0.9"/>
    <path clip-path="url(#p4288f3dce3)" style="fill: #083a7a; fill-opacity: 0.9"/>
    <path clip-path="url(#p4288f3dce3)" style="fill: #083370; fill-opacity: 0.9"/>
    <path clip-path="url(#p4288f3dce3)" style="fill: #08306b; fill-opacity: 0.9"/>
   </g>
   <g id="QuadContourSet_2">
    <path clip-path="url(#p4288f3dce3)" style="fill: none"/>
    <path clip-path="url(#p4288f3dce3)" style="fill: none"/>
    <path clip-path="url(#p4288f3dce3)" style="fill: none"/>
    <path clip-path="url(#p4288f3dce3)" style="fill: none"/>
    <path clip-path="url(#p4288f3dce3)" style="fill: none"/>
    <path clip-path="url(#p4288f3dce3)" style="fill: none"/>
    <path clip-path="url(#p4288f3dce3)" style="fill: none"/>
    <path clip-path="url(#p4288f3dce3)" style="fill: none"/>
    <path clip-path="url(#p4288f3dce3)" style="fill: none"/>
    <path clip-path="url(#p4288f3dce3)" style="fill: none"/>
    <path clip-path="url(#p4288f3dce3)" style="fill: none"/>
    <path clip-path="url(#p4288f3dce3)" style="fill: none"/>
    <path clip-path="url(#p4288f3dce3)" style="fill: none"/>
    <path clip-path="url(#p4288f3dce3)" style="fill: none"/>
    <path clip-path="url(#p4288f3dce3)" style="fill: none"/>
    <path clip-path="url(#p4288f3dce3)" style="fill: none"/>
    <path clip-path="url(#p4288f3dce3)" style="fill: none"/>
    <path clip-path="url(#p4288f3dce3)" style="fill: none"/>
    <path clip-path="url(#p4288f3dce3)" style="fill: none"/>
    <path clip-path="url(#p4288f3dce3)" style="fill: none"/>
    <path clip-path="url(#p4288f3dce3)" style="fill: none"/>
    <path clip-path="url(#p4288f3dce3)" style="fill: none"/>
    <path clip-path="url(#p4288f3dce3)" style="fill: none"/>
    <path clip-path="url(#p4288f3dce3)" style="fill: none"/>
    <path clip-path="url(#p4288f3dce3)" style="fill: none"/>
    <path clip-path="url(#p4288f3dce3)" style="fill: none"/>
    <path clip-path="url(#p4288f3dce3)" style="fill: none"/>
    <path clip-path="url(#p4288f3dce3)" style="fill: none"/>
    <path clip-path="url(#p4288f3dce3)" style="fill: none"/>
    <path clip-path="url(#p4288f3dce3)" style="fill: none"/>
    <path clip-path="url(#p4288f3dce3)" style="fill: none"/>
    <path clip-path="url(#p4288f3dce3)" style="fill: none"/>
    <path clip-path="url(#p4288f3dce3)" style="fill: none"/>
    <path clip-path="url(#p4288f3dce3)" style="fill: none"/>
    <path clip-path="url(#p4288f3dce3)" style="fill: none"/>
    <path clip-path="url(#p4288f3dce3)" style="fill: none"/>
    <path clip-path="url(#p4288f3dce3)" style="fill: none"/>
    <path clip-path="url(#p4288f3dce3)" style="fill: none"/>
    <path clip-path="url(#p4288f3dce3)" style="fill: none"/>
   </g>
  </g>
 </g>
 <defs>
  <clipPath id="p4288f3dce3">
   <rect x="0" y="0" width="576" height="817.373583"/>
  </clipPath>
 </defs>
</svg>
