<?xml version="1.0" encoding="utf-8" standalone="no"?>
<!DOCTYPE svg PUBLIC "-//W3C//DTD SVG 1.1//EN"
  "http://www.w3.org/Graphics/SVG/1.1/DTD/svg11.dtd">
<svg xmlns:xlink="http://www.w3.org/1999/xlink" width="576pt" height="816.083933pt" viewBox="0 0 576 816.083933" xmlns="http://www.w3.org/2000/svg" version="1.1">
 <metadata>
  <rdf:RDF xmlns:dc="http://purl.org/dc/elements/1.1/" xmlns:cc="http://creativecommons.org/ns#" xmlns:rdf="http://www.w3.org/1999/02/22-rdf-syntax-ns#">
   <cc:Work>
    <dc:type rdf:resource="http://purl.org/dc/dcmitype/StillImage"/>
    <dc:date>2025-07-25T22:45:01.337513</dc:date>
    <dc:format>image/svg+xml</dc:format>
    <dc:creator>
     <cc:Agent>
      <dc:title>Matplotlib v3.10.3, https://matplotlib.org/</dc:title>
     </cc:Agent>
    </dc:creator>
   </cc:Work>
  </rdf:RDF>
 </metadata>
 <defs>
  <style type="text/css">*{stroke-linejoin: round; stroke-linecap: butt}</style>
 </defs>
 <g id="figure_1">
  <g id="patch_1">
   <path d="M 0 816.083933 
L 576 816.083933 
L 576 0 
L 0 0 
L 0 816.083933 
z
" style="fill: none; opacity: 0"/>
  </g>
  <g id="axes_1">
   <g id="QuadContourSet_1">
    <path d="M 78.545455 815.504769 
L 78.930164 816.083933 
L 81.177764 816.083933 
L 79.000723 812.806488 
L 78.545455 812.209364 
L 76.035516 809.529042 
L 75.272727 808.785924 
L 72.67132 806.251597 
L 72 805.597588 
L 69.307123 802.974151 
L 68.727273 802.409253 
L 65.454545 800.164264 
L 62.181818 800.141414 
L 61.890656 799.696706 
L 58.909091 796.462993 
L 58.877283 796.41926 
L 56.536011 793.141815 
L 55.636364 791.963347 
L 54.109714 789.864369 
L 52.363636 787.463701 
L 51.72593 786.586924 
L 49.090909 783.582526 
L 48.779149 783.309478 
L 45.818182 780.874508 
L 44.649638 780.032033 
L 42.545455 778.344096 
L 39.815084 776.754587 
L 39.272727 776.349948 
L 36 776.723505 
L 32.727273 774.721034 
L 31.673246 773.477142 
L 29.454545 770.85878 
L 28.896063 770.199696 
L 26.181818 766.996526 
L 26.11888 766.922251 
L 23.341698 763.644805 
L 22.909091 763.134272 
L 20.564515 760.36736 
L 19.636364 759.398623 
L 17.01763 757.089914 
L 16.363636 756.526508 
L 13.213219 753.812469 
L 13.090909 753.7071 
L 9.818182 752.282514 
L 6.545455 753.302855 
L 3.817595 750.535023 
L 3.272727 750.297188 
L 0.728388 747.257578 
L 0 746.583786 
L 0 747.257578 
L 0 750.172843 
L 0.312306 750.535023 
L 3.272727 753.780641 
L 3.304369 753.812469 
L 5.351595 757.089914 
L 6.545455 758.018138 
L 8.546177 760.36736 
L 9.818182 761.437163 
L 13.090909 761.558405 
L 16.363636 760.538379 
L 19.636364 762.924065 
L 20.216956 763.644805 
L 22.909091 766.133635 
L 23.577334 766.922251 
L 26.181818 769.995889 
L 26.354517 770.199696 
L 28.715702 773.477142 
L 29.454545 774.082736 
L 31.533049 776.754587 
L 32.727273 777.802357 
L 34.592646 780.032033 
L 36 781.58265 
L 38.659038 783.309478 
L 39.272727 784.15735 
L 42.545455 783.523466 
L 45.818182 783.575082 
L 49.090909 786.285769 
L 49.355038 786.586924 
L 51.402755 789.864369 
L 52.363636 790.72342 
L 54.122607 793.141815 
L 55.636364 795.223066 
L 56.506391 796.41926 
L 58.880494 799.696706 
L 58.909091 799.722712 
L 61.27396 802.974151 
L 62.181818 804.222358 
L 64.543554 806.251597 
L 65.454545 807.865271 
L 68.727273 807.866721 
L 72 808.725014 
L 72.830305 809.529042 
L 75.272727 811.475267 
L 76.526166 812.806488 
z
M 68.727273 794.64958 
L 70.18284 793.141815 
L 68.727273 791.749772 
L 67.233676 793.141815 
z
M 68.020748 793.141815 
L 68.727273 792.483329 
L 69.415808 793.141815 
L 68.727273 793.855042 
z
M 42.545455 771.69513 
L 43.779555 770.199696 
L 42.545455 768.963816 
L 41.146879 770.199696 
z
M 42.045762 770.199696 
L 42.545455 769.758132 
L 42.986383 770.199696 
L 42.545455 770.733996 
z
M 39.272727 768.322842 
L 40.506828 766.922251 
L 39.272727 765.774453 
L 37.957561 766.922251 
z
M 38.802835 766.922251 
L 39.272727 766.512157 
L 39.713656 766.922251 
L 39.272727 767.422664 
z
M 9.818182 741.678392 
L 10.738623 740.702687 
L 9.818182 739.730948 
L 8.847842 740.702687 
z
M 9.70684 740.702687 
L 9.818182 740.591184 
L 9.923798 740.702687 
L 9.818182 740.814644 
z
" clip-path="url(#p45128d7285)" style="fill: #f5f9fe; fill-opacity: 0.9"/>
    <path d="M 3.272727 816.083933 
L 6.545455 816.083933 
L 9.818182 816.083933 
L 13.090909 816.083933 
L 16.363636 816.083933 
L 19.636364 816.083933 
L 22.909091 816.083933 
L 26.181818 816.083933 
L 29.454545 816.083933 
L 32.727273 816.083933 
L 36 816.083933 
L 39.272727 816.083933 
L 42.545455 816.083933 
L 45.818182 816.083933 
L 49.090909 816.083933 
L 52.363636 816.083933 
L 53.557086 816.083933 
L 52.363636 813.786837 
L 51.526579 812.806488 
L 49.872478 809.529042 
L 49.090909 807.826743 
L 47.772403 806.251597 
L 46.031823 802.974151 
L 45.818182 802.40242 
L 43.698431 799.696706 
L 42.545455 797.943469 
L 41.477199 796.41926 
L 40.696277 793.141815 
L 42.545455 792.502893 
L 44.158524 793.141815 
L 45.818182 794.804209 
L 47.099235 796.41926 
L 49.090909 798.930208 
L 49.698892 799.696706 
L 52.283801 802.974151 
L 52.363636 803.056207 
L 54.898208 806.251597 
L 55.636364 807.182206 
L 56.931538 806.251597 
L 58.909091 803.113139 
L 59.340767 806.251597 
L 62.181818 808.3547 
L 62.897998 809.529042 
L 65.454545 811.981723 
L 66.755721 812.806488 
L 68.727273 815.87768 
L 72 815.569177 
L 75.272727 815.978759 
L 75.337529 816.083933 
L 78.545455 816.083933 
L 78.930164 816.083933 
L 78.545455 815.504769 
L 76.526166 812.806488 
L 75.272727 811.475267 
L 72.830305 809.529042 
L 72 808.725014 
L 68.727273 807.866721 
L 65.454545 807.865271 
L 64.543554 806.251597 
L 62.181818 804.222358 
L 61.27396 802.974151 
L 58.909091 799.722712 
L 58.880494 799.696706 
L 56.506391 796.41926 
L 55.636364 795.223066 
L 54.122607 793.141815 
L 52.363636 790.72342 
L 51.402755 789.864369 
L 49.355038 786.586924 
L 49.090909 786.285769 
L 45.818182 783.575082 
L 42.545455 783.523466 
L 39.272727 784.15735 
L 38.659038 783.309478 
L 36 781.58265 
L 34.592646 780.032033 
L 32.727273 777.802357 
L 31.533049 776.754587 
L 29.454545 774.082736 
L 28.715702 773.477142 
L 26.354517 770.199696 
L 26.181818 769.995889 
L 23.577334 766.922251 
L 22.909091 766.133635 
L 20.216956 763.644805 
L 19.636364 762.924065 
L 16.363636 760.538379 
L 13.090909 761.558405 
L 9.818182 761.437163 
L 8.546177 760.36736 
L 6.545455 758.018138 
L 5.351595 757.089914 
L 3.304369 753.812469 
L 3.272727 753.780641 
L 0.312306 750.535023 
L 0 750.172843 
L 0 750.535023 
L 0 753.812469 
L 0 757.089914 
L 0 760.36736 
L 0 763.644805 
L 0 766.922251 
L 0 770.199696 
L 0 773.477142 
L 0 776.754587 
L 0 780.032033 
L 0 783.309478 
L 0 786.586924 
L 0 789.864369 
L 0 793.141815 
L 0 796.41926 
L 0 799.696706 
L 0 802.974151 
L 0 806.251597 
L 0 809.529042 
L 0 812.806488 
L 0 816.083933 
z
M 68.727273 793.855042 
L 69.415808 793.141815 
L 68.727273 792.483329 
L 68.020748 793.141815 
z
M 42.545455 770.733996 
L 42.986383 770.199696 
L 42.545455 769.758132 
L 42.045762 770.199696 
z
M 39.272727 767.422664 
L 39.713656 766.922251 
L 39.272727 766.512157 
L 38.802835 766.922251 
z
M 9.818182 740.814644 
L 9.923798 740.702687 
L 9.818182 740.591184 
L 9.70684 740.702687 
z
" clip-path="url(#p45128d7285)" style="fill: #eff6fc; fill-opacity: 0.9"/>
    <path d="M 52.363636 813.786837 
L 53.557086 816.083933 
L 55.636364 816.083933 
L 58.909091 816.083933 
L 62.181818 816.083933 
L 65.454545 816.083933 
L 68.727273 816.083933 
L 72 816.083933 
L 75.272727 816.083933 
L 75.337529 816.083933 
L 75.272727 815.978759 
L 72 815.569177 
L 68.727273 815.87768 
L 66.755721 812.806488 
L 65.454545 811.981723 
L 62.897998 809.529042 
L 62.181818 808.3547 
L 59.340767 806.251597 
L 58.909091 803.113139 
L 56.931538 806.251597 
L 55.636364 807.182206 
L 54.898208 806.251597 
L 52.363636 803.056207 
L 52.283801 802.974151 
L 49.698892 799.696706 
L 49.090909 798.930208 
L 47.099235 796.41926 
L 45.818182 794.804209 
L 44.158524 793.141815 
L 42.545455 792.502893 
L 40.696277 793.141815 
L 41.477199 796.41926 
L 42.545455 797.943469 
L 43.698431 799.696706 
L 45.818182 802.40242 
L 46.031823 802.974151 
L 47.772403 806.251597 
L 49.090909 807.826743 
L 49.872478 809.529042 
L 51.526579 812.806488 
z
" clip-path="url(#p45128d7285)" style="fill: #eaf3fb; fill-opacity: 0.9"/>
    <path clip-path="url(#p45128d7285)" style="fill: #e5eff9; fill-opacity: 0.9"/>
    <path clip-path="url(#p45128d7285)" style="fill: #dfecf7; fill-opacity: 0.9"/>
    <path clip-path="url(#p45128d7285)" style="fill: #dae8f6; fill-opacity: 0.9"/>
    <path clip-path="url(#p45128d7285)" style="fill: #d6e5f4; fill-opacity: 0.9"/>
    <path clip-path="url(#p45128d7285)" style="fill: #d0e2f2; fill-opacity: 0.9"/>
    <path clip-path="url(#p45128d7285)" style="fill: #cbdef1; fill-opacity: 0.9"/>
    <path clip-path="url(#p45128d7285)" style="fill: #c6dbef; fill-opacity: 0.9"/>
    <path clip-path="url(#p45128d7285)" style="fill: #bed8ec; fill-opacity: 0.9"/>
    <path clip-path="url(#p45128d7285)" style="fill: #b5d4e9; fill-opacity: 0.9"/>
    <path clip-path="url(#p45128d7285)" style="fill: #add0e6; fill-opacity: 0.9"/>
    <path clip-path="url(#p45128d7285)" style="fill: #a5cde3; fill-opacity: 0.9"/>
    <path clip-path="url(#p45128d7285)" style="fill: #9cc9e1; fill-opacity: 0.9"/>
    <path clip-path="url(#p45128d7285)" style="fill: #91c3de; fill-opacity: 0.9"/>
    <path clip-path="url(#p45128d7285)" style="fill: #85bcdc; fill-opacity: 0.9"/>
    <path clip-path="url(#p45128d7285)" style="fill: #7cb7da; fill-opacity: 0.9"/>
    <path clip-path="url(#p45128d7285)" style="fill: #71b1d7; fill-opacity: 0.9"/>
    <path clip-path="url(#p45128d7285)" style="fill: #66abd4; fill-opacity: 0.9"/>
    <path clip-path="url(#p45128d7285)" style="fill: #5da5d1; fill-opacity: 0.9"/>
    <path clip-path="url(#p45128d7285)" style="fill: #56a0ce; fill-opacity: 0.9"/>
    <path clip-path="url(#p45128d7285)" style="fill: #4d99ca; fill-opacity: 0.9"/>
    <path clip-path="url(#p45128d7285)" style="fill: #4493c7; fill-opacity: 0.9"/>
    <path clip-path="url(#p45128d7285)" style="fill: #3c8cc3; fill-opacity: 0.9"/>
    <path clip-path="url(#p45128d7285)" style="fill: #3686c0; fill-opacity: 0.9"/>
    <path clip-path="url(#p45128d7285)" style="fill: #2f7fbc; fill-opacity: 0.9"/>
    <path clip-path="url(#p45128d7285)" style="fill: #2777b8; fill-opacity: 0.9"/>
    <path clip-path="url(#p45128d7285)" style="fill: #2070b4; fill-opacity: 0.9"/>
    <path clip-path="url(#p45128d7285)" style="fill: #1c6ab0; fill-opacity: 0.9"/>
    <path clip-path="url(#p45128d7285)" style="fill: #1663aa; fill-opacity: 0.9"/>
    <path clip-path="url(#p45128d7285)" style="fill: #115ca5; fill-opacity: 0.9"/>
    <path clip-path="url(#p45128d7285)" style="fill: #0c56a0; fill-opacity: 0.9"/>
    <path clip-path="url(#p45128d7285)" style="fill: #084f99; fill-opacity: 0.9"/>
    <path clip-path="url(#p45128d7285)" style="fill: #08488e; fill-opacity: 0.9"/>
    <path clip-path="url(#p45128d7285)" style="fill: #084184; fill-opacity: 0.9"/>
    <path clip-path="url(#p45128d7285)" style="fill: #083a7a; fill-opacity: 0.9"/>
    <path clip-path="url(#p45128d7285)" style="fill: #083370; fill-opacity: 0.9"/>
    <path clip-path="url(#p45128d7285)" style="fill: #08306b; fill-opacity: 0.9"/>
   </g>
   <g id="QuadContourSet_2">
    <path d="M 81.177764 816.083933 
L 79.000723 812.806488 
L 78.545455 812.209364 
L 76.035516 809.529042 
L 75.272727 808.785924 
L 72.67132 806.251597 
L 72 805.597588 
L 69.307123 802.974151 
L 68.727273 802.409253 
L 65.454545 800.164264 
L 62.181818 800.141414 
L 61.890656 799.696706 
L 61.617455 799.4004 
M 49.805096 784.396828 
L 49.090909 783.582526 
L 48.779149 783.309478 
L 45.818182 780.874508 
L 44.649638 780.032033 
L 42.545455 778.344096 
L 39.815084 776.754587 
L 39.272727 776.349948 
L 36 776.723505 
L 32.727273 774.721034 
L 31.673246 773.477142 
L 29.454545 770.85878 
L 28.896063 770.199696 
L 26.181818 766.996526 
L 26.11888 766.922251 
L 23.341698 763.644805 
L 22.909091 763.134272 
L 20.564515 760.36736 
L 19.636364 759.398623 
L 17.01763 757.089914 
L 16.363636 756.526508 
L 13.213219 753.812469 
L 13.090909 753.7071 
L 9.818182 752.282514 
L 6.545455 753.302855 
L 3.817595 750.535023 
L 3.272727 750.297188 
L 0.728388 747.257578 
L 0 746.583786 
M 68.727273 794.64958 
L 70.18284 793.141815 
L 68.727273 791.749772 
L 67.233676 793.141815 
L 68.727273 794.64958 
z
M 42.545455 771.69513 
L 43.779555 770.199696 
L 42.545455 768.963816 
L 41.146879 770.199696 
L 42.545455 771.69513 
z
M 39.272727 768.322842 
L 40.506828 766.922251 
L 39.272727 765.774453 
L 37.957561 766.922251 
L 39.272727 768.322842 
z
M 9.818182 741.678392 
L 10.738623 740.702687 
L 9.818182 739.730948 
L 8.847842 740.702687 
L 9.818182 741.678392 
z
" clip-path="url(#p45128d7285)" style="fill: none"/>
    <path d="M 78.930164 816.083933 
L 78.620349 815.617519 
M 63.720697 805.544586 
L 62.181818 804.222358 
L 61.27396 802.974151 
L 58.909091 799.722712 
L 58.880494 799.696706 
L 56.506391 796.41926 
L 55.636364 795.223066 
L 54.122607 793.141815 
L 52.363636 790.72342 
L 51.402755 789.864369 
L 49.355038 786.586924 
L 49.090909 786.285769 
L 45.818182 783.575082 
L 42.545455 783.523466 
L 39.272727 784.15735 
L 38.659038 783.309478 
L 36 781.58265 
L 34.592646 780.032033 
L 32.727273 777.802357 
L 31.533049 776.754587 
L 29.454545 774.082736 
L 28.715702 773.477142 
L 26.354517 770.199696 
L 26.181818 769.995889 
L 23.577334 766.922251 
L 22.909091 766.133635 
L 20.216956 763.644805 
L 19.636364 762.924065 
L 16.363636 760.538379 
L 13.090909 761.558405 
L 9.818182 761.437163 
L 8.546177 760.36736 
L 6.545455 758.018138 
L 5.351595 757.089914 
L 3.304369 753.812469 
L 3.272727 753.780641 
L 0.312306 750.535023 
L 0 750.172843 
M 68.727273 793.855042 
L 69.415808 793.141815 
L 68.727273 792.483329 
L 68.020748 793.141815 
L 68.727273 793.855042 
z
M 42.545455 770.733996 
L 42.986383 770.199696 
L 42.545455 769.758132 
L 42.045762 770.199696 
L 42.545455 770.733996 
z
M 39.272727 767.422664 
L 39.713656 766.922251 
L 39.272727 766.512157 
L 38.802835 766.922251 
L 39.272727 767.422664 
z
M 9.818182 740.814644 
L 9.923798 740.702687 
L 9.818182 740.591184 
L 9.70684 740.702687 
L 9.818182 740.814644 
z
" clip-path="url(#p45128d7285)" style="fill: none"/>
    <path d="M 75.337529 816.083933 
L 75.272727 815.978759 
L 72 815.569177 
L 68.727273 815.87768 
L 66.755721 812.806488 
L 65.454545 811.981723 
L 62.897998 809.529042 
L 62.181818 808.3547 
L 59.340767 806.251597 
L 58.909091 803.113139 
L 56.931538 806.251597 
L 55.636364 807.182206 
L 54.898208 806.251597 
L 52.363636 803.056207 
L 52.283801 802.974151 
L 49.698892 799.696706 
L 49.090909 798.930208 
L 47.099235 796.41926 
L 45.818182 794.804209 
L 44.158524 793.141815 
L 42.545455 792.502893 
L 40.696277 793.141815 
L 40.960645 794.25134 
M 50.493801 810.760135 
L 51.526579 812.806488 
L 52.363636 813.786837 
L 53.557086 816.083933 
" clip-path="url(#p45128d7285)" style="fill: none"/>
    <path clip-path="url(#p45128d7285)" style="fill: none"/>
    <path clip-path="url(#p45128d7285)" style="fill: none"/>
    <path clip-path="url(#p45128d7285)" style="fill: none"/>
    <path clip-path="url(#p45128d7285)" style="fill: none"/>
    <path clip-path="url(#p45128d7285)" style="fill: none"/>
    <path clip-path="url(#p45128d7285)" style="fill: none"/>
    <path clip-path="url(#p45128d7285)" style="fill: none"/>
    <path clip-path="url(#p45128d7285)" style="fill: none"/>
    <path clip-path="url(#p45128d7285)" style="fill: none"/>
    <path clip-path="url(#p45128d7285)" style="fill: none"/>
    <path clip-path="url(#p45128d7285)" style="fill: none"/>
    <path clip-path="url(#p45128d7285)" style="fill: none"/>
    <path clip-path="url(#p45128d7285)" style="fill: none"/>
    <path clip-path="url(#p45128d7285)" style="fill: none"/>
    <path clip-path="url(#p45128d7285)" style="fill: none"/>
    <path clip-path="url(#p45128d7285)" style="fill: none"/>
    <path clip-path="url(#p45128d7285)" style="fill: none"/>
    <path clip-path="url(#p45128d7285)" style="fill: none"/>
    <path clip-path="url(#p45128d7285)" style="fill: none"/>
    <path clip-path="url(#p45128d7285)" style="fill: none"/>
    <path clip-path="url(#p45128d7285)" style="fill: none"/>
    <path clip-path="url(#p45128d7285)" style="fill: none"/>
    <path clip-path="url(#p45128d7285)" style="fill: none"/>
    <path clip-path="url(#p45128d7285)" style="fill: none"/>
    <path clip-path="url(#p45128d7285)" style="fill: none"/>
    <path clip-path="url(#p45128d7285)" style="fill: none"/>
    <path clip-path="url(#p45128d7285)" style="fill: none"/>
    <path clip-path="url(#p45128d7285)" style="fill: none"/>
    <path clip-path="url(#p45128d7285)" style="fill: none"/>
    <path clip-path="url(#p45128d7285)" style="fill: none"/>
    <path clip-path="url(#p45128d7285)" style="fill: none"/>
    <path clip-path="url(#p45128d7285)" style="fill: none"/>
    <path clip-path="url(#p45128d7285)" style="fill: none"/>
    <path clip-path="url(#p45128d7285)" style="fill: none"/>
    <path clip-path="url(#p45128d7285)" style="fill: none"/>
    <path clip-path="url(#p45128d7285)" style="fill: none"/>
   </g>
   <g id="text_1">
    <g clip-path="url(#p45128d7285)">
     <!-- 0 -->
     <g style="opacity: 0" transform="translate(50.708959 790.841578) rotate(-306.236736) scale(0.12 -0.12)">
      <defs>
       <path id="DejaVuSans-30" d="M 2034 4250 
Q 1547 4250 1301 3770 
Q 1056 3291 1056 2328 
Q 1056 1369 1301 889 
Q 1547 409 2034 409 
Q 2525 409 2770 889 
Q 3016 1369 3016 2328 
Q 3016 3291 2770 3770 
Q 2525 4250 2034 4250 
z
M 2034 4750 
Q 2819 4750 3233 4129 
Q 3647 3509 3647 2328 
Q 3647 1150 3233 529 
Q 2819 -91 2034 -91 
Q 1250 -91 836 529 
Q 422 1150 422 2328 
Q 422 3509 836 4129 
Q 1250 4750 2034 4750 
z
" transform="scale(0.015625)"/>
      </defs>
      <use xlink:href="#DejaVuSans-30"/>
     </g>
    </g>
   </g>
   <g id="text_2">
    <g clip-path="url(#p45128d7285)">
     <!-- 1 -->
     <g style="opacity: 0" transform="translate(67.130304 810.075474) rotate(-334.561766) scale(0.12 -0.12)">
      <defs>
       <path id="DejaVuSans-31" d="M 794 531 
L 1825 531 
L 1825 4091 
L 703 3866 
L 703 4441 
L 1819 4666 
L 2450 4666 
L 2450 531 
L 3481 531 
L 3481 0 
L 794 0 
L 794 531 
z
" transform="scale(0.015625)"/>
      </defs>
      <use xlink:href="#DejaVuSans-31"/>
     </g>
    </g>
   </g>
   <g id="text_3">
    <g clip-path="url(#p45128d7285)">
     <!-- 2 -->
     <g style="opacity: 0" transform="translate(40.96746 800.985317) rotate(-302.776716) scale(0.12 -0.12)">
      <defs>
       <path id="DejaVuSans-32" d="M 1228 531 
L 3431 531 
L 3431 0 
L 469 0 
L 469 531 
Q 828 903 1448 1529 
Q 2069 2156 2228 2338 
Q 2531 2678 2651 2914 
Q 2772 3150 2772 3378 
Q 2772 3750 2511 3984 
Q 2250 4219 1831 4219 
Q 1534 4219 1204 4116 
Q 875 4013 500 3803 
L 500 4441 
Q 881 4594 1212 4672 
Q 1544 4750 1819 4750 
Q 2544 4750 2975 4387 
Q 3406 4025 3406 3419 
Q 3406 3131 3298 2873 
Q 3191 2616 2906 2266 
Q 2828 2175 2409 1742 
Q 1991 1309 1228 531 
z
" transform="scale(0.015625)"/>
      </defs>
      <use xlink:href="#DejaVuSans-32"/>
     </g>
    </g>
   </g>
  </g>
 </g>
 <defs>
  <clipPath id="p45128d7285">
   <rect x="0" y="0" width="576" height="816.083933"/>
  </clipPath>
 </defs>
</svg>
