<?xml version="1.0" encoding="utf-8" standalone="no"?>
<!DOCTYPE svg PUBLIC "-//W3C//DTD SVG 1.1//EN"
  "http://www.w3.org/Graphics/SVG/1.1/DTD/svg11.dtd">
<svg xmlns:xlink="http://www.w3.org/1999/xlink" width="576pt" height="818.092691pt" viewBox="0 0 576 818.092691" xmlns="http://www.w3.org/2000/svg" version="1.1">
 <metadata>
  <rdf:RDF xmlns:dc="http://purl.org/dc/elements/1.1/" xmlns:cc="http://creativecommons.org/ns#" xmlns:rdf="http://www.w3.org/1999/02/22-rdf-syntax-ns#">
   <cc:Work>
    <dc:type rdf:resource="http://purl.org/dc/dcmitype/StillImage"/>
    <dc:date>2025-07-25T22:43:56.145150</dc:date>
    <dc:format>image/svg+xml</dc:format>
    <dc:creator>
     <cc:Agent>
      <dc:title>Matplotlib v3.10.3, https://matplotlib.org/</dc:title>
     </cc:Agent>
    </dc:creator>
   </cc:Work>
  </rdf:RDF>
 </metadata>
 <defs>
  <style type="text/css">*{stroke-linejoin: round; stroke-linecap: butt}</style>
 </defs>
 <g id="figure_1">
  <g id="patch_1">
   <path d="M 0 818.092691 
L 576 818.092691 
L 576 0 
L 0 0 
L 0 818.092691 
z
" style="fill: none; opacity: 0"/>
  </g>
  <g id="axes_1">
   <g id="QuadContourSet_1">
    <path d="M 3.272727 818.092691 
L 6.545455 818.092691 
L 9.818182 818.092691 
L 13.090909 818.092691 
L 16.363636 818.092691 
L 19.636364 818.092691 
L 22.909091 818.092691 
L 26.181818 818.092691 
L 29.454545 818.092691 
L 32.727273 818.092691 
L 36 818.092691 
L 39.272727 818.092691 
L 42.545455 818.092691 
L 45.818182 818.092691 
L 49.090909 818.092691 
L 52.363636 818.092691 
L 55.636364 818.092691 
L 58.909091 818.092691 
L 62.181818 818.092691 
L 65.454545 818.092691 
L 68.727273 818.092691 
L 72 818.092691 
L 75.272727 818.092691 
L 78.545455 818.092691 
L 81.818182 818.092691 
L 85.090909 818.092691 
L 88.363636 818.092691 
L 91.636364 818.092691 
L 94.909091 818.092691 
L 98.181818 818.092691 
L 101.454545 818.092691 
L 104.727273 818.092691 
L 108 818.092691 
L 111.272727 818.092691 
L 114.545455 818.092691 
L 117.818182 818.092691 
L 121.090909 818.092691 
L 124.363636 818.092691 
L 127.636364 818.092691 
L 130.909091 818.092691 
L 134.181818 818.092691 
L 137.454545 818.092691 
L 140.727273 818.092691 
L 144 818.092691 
L 147.272727 818.092691 
L 150.545455 818.092691 
L 153.818182 818.092691 
L 157.090909 818.092691 
L 160.363636 818.092691 
L 163.636364 818.092691 
L 166.909091 818.092691 
L 170.181818 818.092691 
L 173.454545 818.092691 
L 176.727273 818.092691 
L 180 818.092691 
L 183.272727 818.092691 
L 186.545455 818.092691 
L 189.818182 818.092691 
L 193.090909 818.092691 
L 196.363636 818.092691 
L 199.636364 818.092691 
L 202.909091 818.092691 
L 206.181818 818.092691 
L 209.454545 818.092691 
L 212.727273 818.092691 
L 216 818.092691 
L 219.272727 818.092691 
L 222.545455 818.092691 
L 225.818182 818.092691 
L 229.090909 818.092691 
L 232.363636 818.092691 
L 235.636364 818.092691 
L 238.909091 818.092691 
L 242.181818 818.092691 
L 245.454545 818.092691 
L 248.727273 818.092691 
L 252 818.092691 
L 255.272727 818.092691 
L 258.545455 818.092691 
L 261.818182 818.092691 
L 265.090909 818.092691 
L 268.363636 818.092691 
L 271.636364 818.092691 
L 274.909091 818.092691 
L 278.181818 818.092691 
L 281.454545 818.092691 
L 284.727273 818.092691 
L 288 818.092691 
L 291.272727 818.092691 
L 294.545455 818.092691 
L 297.818182 818.092691 
L 301.090909 818.092691 
L 304.363636 818.092691 
L 307.636364 818.092691 
L 310.909091 818.092691 
L 314.181818 818.092691 
L 317.454545 818.092691 
L 320.727273 818.092691 
L 324 818.092691 
L 327.272727 818.092691 
L 330.545455 818.092691 
L 333.818182 818.092691 
L 337.090909 818.092691 
L 340.363636 818.092691 
L 343.636364 818.092691 
L 346.909091 818.092691 
L 350.181818 818.092691 
L 353.454545 818.092691 
L 356.727273 818.092691 
L 360 818.092691 
L 363.272727 818.092691 
L 366.545455 818.092691 
L 369.818182 818.092691 
L 373.090909 818.092691 
L 376.363636 818.092691 
L 379.636364 818.092691 
L 382.909091 818.092691 
L 386.181818 818.092691 
L 389.454545 818.092691 
L 392.727273 818.092691 
L 396 818.092691 
L 399.272727 818.092691 
L 402.545455 818.092691 
L 405.818182 818.092691 
L 409.090909 818.092691 
L 412.363636 818.092691 
L 415.636364 818.092691 
L 418.909091 818.092691 
L 422.181818 818.092691 
L 425.454545 818.092691 
L 428.727273 818.092691 
L 432 818.092691 
L 435.272727 818.092691 
L 438.545455 818.092691 
L 441.818182 818.092691 
L 445.090909 818.092691 
L 448.363636 818.092691 
L 451.636364 818.092691 
L 454.909091 818.092691 
L 458.181818 818.092691 
L 461.454545 818.092691 
L 464.727273 818.092691 
L 468 818.092691 
L 471.272727 818.092691 
L 474.545455 818.092691 
L 477.818182 818.092691 
L 481.090909 818.092691 
L 484.363636 818.092691 
L 487.636364 818.092691 
L 490.909091 818.092691 
L 494.181818 818.092691 
L 497.454545 818.092691 
L 500.727273 818.092691 
L 504 818.092691 
L 507.272727 818.092691 
L 510.545455 818.092691 
L 513.818182 818.092691 
L 517.090909 818.092691 
L 520.363636 818.092691 
L 523.636364 818.092691 
L 526.909091 818.092691 
L 530.181818 818.092691 
L 533.454545 818.092691 
L 536.727273 818.092691 
L 540 818.092691 
L 543.272727 818.092691 
L 546.545455 818.092691 
L 549.818182 818.092691 
L 553.090909 818.092691 
L 556.363636 818.092691 
L 559.636364 818.092691 
L 562.909091 818.092691 
L 566.181818 818.092691 
L 569.454545 818.092691 
L 572.727273 818.092691 
L 576 818.092691 
L 576 814.807178 
L 576 811.521666 
L 576 808.236153 
L 576 804.95064 
L 576 801.665127 
L 576 798.379614 
L 576 795.094102 
L 576 791.808589 
L 576 788.523076 
L 576 785.237563 
L 576 781.95205 
L 576 778.666537 
L 576 775.381025 
L 576 772.095512 
L 576 768.809999 
L 576 765.524486 
L 576 762.238973 
L 576 758.953461 
L 576 755.667948 
L 576 752.382435 
L 576 749.096922 
L 576 745.811409 
L 576 742.525896 
L 576 739.240384 
L 576 735.954871 
L 576 732.669358 
L 576 729.383845 
L 576 726.098332 
L 576 722.81282 
L 576 719.527307 
L 576 716.241794 
L 576 712.956281 
L 576 709.670768 
L 576 706.385255 
L 576 703.099743 
L 576 699.81423 
L 576 696.528717 
L 576 693.243204 
L 576 689.957691 
L 576 686.672179 
L 576 683.386666 
L 576 680.101153 
L 576 676.81564 
L 576 673.530127 
L 576 670.244615 
L 576 666.959102 
L 576 663.673589 
L 576 660.388076 
L 576 657.102563 
L 576 653.81705 
L 576 650.531538 
L 576 647.246025 
L 576 643.960512 
L 576 640.674999 
L 576 637.389486 
L 576 634.103974 
L 576 630.818461 
L 576 627.532948 
L 576 624.247435 
L 576 620.961922 
L 576 617.676409 
L 576 614.390897 
L 576 611.105384 
L 576 607.819871 
L 576 604.534358 
L 576 601.248845 
L 576 597.963333 
L 576 594.67782 
L 576 591.392307 
L 576 588.106794 
L 576 584.821281 
L 576 581.535768 
L 576 578.250256 
L 576 574.964743 
L 576 571.67923 
L 576 568.393717 
L 576 565.108204 
L 576 561.822692 
L 576 558.537179 
L 576 555.251666 
L 576 551.966153 
L 576 548.68064 
L 576 545.395127 
L 576 542.109615 
L 576 538.824102 
L 576 535.538589 
L 576 532.253076 
L 576 528.967563 
L 576 525.682051 
L 576 522.396538 
L 576 519.111025 
L 576 515.825512 
L 576 512.539999 
L 576 509.254487 
L 576 505.968974 
L 576 502.683461 
L 576 499.397948 
L 576 496.112435 
L 576 492.826922 
L 576 489.54141 
L 576 486.255897 
L 576 482.970384 
L 576 479.684871 
L 576 476.399358 
L 576 473.113846 
L 576 469.828333 
L 576 466.54282 
L 576 463.257307 
L 576 459.971794 
L 576 456.686281 
L 576 453.400769 
L 576 450.115256 
L 576 446.829743 
L 576 443.54423 
L 576 440.258717 
L 576 436.973205 
L 576 433.687692 
L 576 430.402179 
L 576 427.116666 
L 576 423.831153 
L 576 420.54564 
L 576 417.260128 
L 576 413.974615 
L 576 410.689102 
L 576 407.403589 
L 576 404.118076 
L 576 400.832564 
L 576 397.547051 
L 576 394.261538 
L 576 390.976025 
L 576 387.690512 
L 576 384.404999 
L 576 381.119487 
L 576 377.833974 
L 576 374.548461 
L 576 371.262948 
L 576 367.977435 
L 576 364.691923 
L 576 361.40641 
L 576 358.120897 
L 576 354.835384 
L 576 351.549871 
L 576 348.264359 
L 576 344.978846 
L 576 341.693333 
L 576 338.40782 
L 576 335.122307 
L 576 331.836794 
L 576 328.551282 
L 576 325.265769 
L 576 321.980256 
L 576 318.694743 
L 576 315.40923 
L 576 312.123718 
L 576 308.838205 
L 576 305.552692 
L 576 302.267179 
L 576 298.981666 
L 576 295.696153 
L 576 292.410641 
L 576 289.125128 
L 576 285.839615 
L 576 282.554102 
L 576 279.268589 
L 576 275.983077 
L 576 272.697564 
L 576 269.412051 
L 576 266.126538 
L 576 262.841025 
L 576 259.555512 
L 576 256.27 
L 576 252.984487 
L 576 249.698974 
L 576 246.413461 
L 576 243.127948 
L 576 239.842436 
L 576 236.556923 
L 576 233.27141 
L 576 229.985897 
L 576 226.700384 
L 576 223.414872 
L 576 220.129359 
L 576 216.843846 
L 576 213.558333 
L 576 210.27282 
L 576 206.987307 
L 576 203.701795 
L 576 200.416282 
L 576 197.130769 
L 576 193.845256 
L 576 190.559743 
L 576 187.274231 
L 576 183.988718 
L 576 180.703205 
L 576 177.417692 
L 576 174.132179 
L 576 170.846666 
L 576 167.561154 
L 576 164.275641 
L 576 160.990128 
L 576 157.704615 
L 576 154.419102 
L 576 151.13359 
L 576 147.848077 
L 576 144.562564 
L 576 141.277051 
L 576 137.991538 
L 576 134.706025 
L 576 131.420513 
L 576 128.135 
L 576 124.849487 
L 576 121.563974 
L 576 118.278461 
L 576 114.992949 
L 576 111.707436 
L 576 108.421923 
L 576 105.13641 
L 576 101.850897 
L 576 98.565384 
L 576 95.279872 
L 576 91.994359 
L 576 88.708846 
L 576 85.423333 
L 576 82.13782 
L 576 78.852308 
L 576 75.566795 
L 576 72.281282 
L 576 68.995769 
L 576 65.710256 
L 576 62.424744 
L 576 59.139231 
L 576 55.853718 
L 576 52.568205 
L 576 49.282692 
L 576 45.997179 
L 576 42.711667 
L 576 39.426154 
L 576 36.140641 
L 576 32.855128 
L 576 29.569615 
L 576 26.284103 
L 576 22.99859 
L 576 19.713077 
L 576 16.427564 
L 576 13.142051 
L 576 9.856538 
L 576 6.571026 
L 576 3.285513 
L 576 0 
L 572.727273 0 
L 569.454545 0 
L 566.181818 0 
L 562.909091 0 
L 559.636364 0 
L 556.363636 0 
L 553.090909 0 
L 549.818182 0 
L 546.545455 0 
L 543.272727 0 
L 540 0 
L 536.727273 0 
L 533.454545 0 
L 530.181818 0 
L 526.909091 0 
L 523.636364 0 
L 520.363636 0 
L 517.090909 0 
L 513.818182 0 
L 510.545455 0 
L 507.272727 0 
L 504 0 
L 500.727273 0 
L 497.454545 0 
L 494.181818 0 
L 490.909091 0 
L 487.636364 0 
L 484.363636 0 
L 481.090909 0 
L 477.818182 0 
L 474.545455 0 
L 471.272727 0 
L 468 0 
L 464.727273 0 
L 461.454545 0 
L 458.181818 0 
L 454.909091 0 
L 451.636364 0 
L 448.363636 0 
L 445.090909 0 
L 441.818182 0 
L 438.545455 0 
L 435.272727 0 
L 432 0 
L 428.727273 0 
L 425.454545 0 
L 422.181818 0 
L 418.909091 0 
L 415.636364 0 
L 412.363636 0 
L 409.090909 0 
L 405.818182 0 
L 402.545455 0 
L 399.272727 0 
L 396 0 
L 392.727273 0 
L 389.454545 0 
L 386.181818 0 
L 382.909091 0 
L 379.636364 0 
L 376.363636 0 
L 373.090909 0 
L 369.818182 0 
L 366.545455 0 
L 363.272727 0 
L 360 0 
L 356.727273 0 
L 353.454545 0 
L 350.181818 0 
L 346.909091 0 
L 343.636364 0 
L 340.363636 0 
L 337.090909 0 
L 333.818182 0 
L 330.545455 0 
L 327.272727 0 
L 324 0 
L 320.727273 0 
L 317.454545 0 
L 314.181818 0 
L 310.909091 0 
L 307.636364 0 
L 304.363636 0 
L 301.090909 0 
L 297.818182 0 
L 294.545455 0 
L 291.272727 0 
L 288 0 
L 284.727273 0 
L 281.454545 0 
L 278.181818 0 
L 274.909091 0 
L 271.636364 0 
L 268.363636 0 
L 265.090909 0 
L 261.818182 0 
L 258.545455 0 
L 255.272727 0 
L 252 0 
L 248.727273 0 
L 245.454545 0 
L 242.181818 0 
L 238.909091 0 
L 235.636364 0 
L 232.363636 0 
L 229.090909 0 
L 225.818182 0 
L 222.545455 0 
L 219.272727 0 
L 216 0 
L 212.727273 0 
L 209.454545 0 
L 206.181818 0 
L 202.909091 0 
L 199.636364 0 
L 196.363636 0 
L 193.090909 0 
L 189.818182 0 
L 186.545455 0 
L 183.272727 0 
L 180 0 
L 176.727273 0 
L 173.454545 0 
L 170.181818 0 
L 166.909091 0 
L 163.636364 0 
L 160.363636 0 
L 157.090909 0 
L 153.818182 0 
L 150.545455 0 
L 147.272727 0 
L 144 0 
L 140.727273 0 
L 137.454545 0 
L 134.181818 0 
L 130.909091 0 
L 127.636364 0 
L 124.363636 0 
L 121.090909 0 
L 117.818182 0 
L 114.545455 0 
L 111.272727 0 
L 108 0 
L 104.727273 0 
L 101.454545 0 
L 98.181818 0 
L 94.909091 0 
L 91.636364 0 
L 88.363636 0 
L 85.090909 0 
L 81.818182 0 
L 78.545455 0 
L 75.272727 0 
L 72 0 
L 68.727273 0 
L 65.454545 0 
L 62.181818 0 
L 58.909091 0 
L 55.636364 0 
L 52.363636 0 
L 49.090909 0 
L 45.818182 0 
L 42.545455 0 
L 39.272727 0 
L 36 0 
L 32.727273 0 
L 29.454545 0 
L 26.181818 0 
L 22.909091 0 
L 19.636364 0 
L 16.363636 0 
L 13.090909 0 
L 9.818182 0 
L 6.545455 0 
L 3.272727 0 
L 0 0 
L 0 3.285513 
L 0 6.571026 
L 0 9.856538 
L 0 13.142051 
L 0 16.427564 
L 0 19.713077 
L 0 22.99859 
L 0 26.284103 
L 0 29.569615 
L 0 32.855128 
L 0 36.140641 
L 0 39.426154 
L 0 42.711667 
L 0 45.997179 
L 0 49.282692 
L 0 52.568205 
L 0 55.853718 
L 0 59.139231 
L 0 62.424744 
L 0 65.710256 
L 0 68.995769 
L 0 72.281282 
L 0 75.566795 
L 0 78.852308 
L 0 82.13782 
L 0 85.423333 
L 0 88.708846 
L 0 91.994359 
L 0 95.279872 
L 0 98.565384 
L 0 101.850897 
L 0 105.13641 
L 0 108.421923 
L 0 111.707436 
L 0 114.992949 
L 0 118.278461 
L 0 121.563974 
L 0 124.849487 
L 0 128.135 
L 0 131.420513 
L 0 134.706025 
L 0 137.991538 
L 0 141.277051 
L 0 144.562564 
L 0 147.848077 
L 0 151.13359 
L 0 154.419102 
L 0 157.704615 
L 0 160.990128 
L 0 164.275641 
L 0 167.561154 
L 0 170.846666 
L 0 174.132179 
L 0 177.417692 
L 0 180.703205 
L 0 183.988718 
L 0 187.274231 
L 0 190.559743 
L 0 193.845256 
L 0 197.130769 
L 0 200.416282 
L 0 203.701795 
L 0 206.987307 
L 0 210.27282 
L 0 213.558333 
L 0 216.843846 
L 0 220.129359 
L 0 223.414872 
L 0 226.700384 
L 0 229.985897 
L 0 233.27141 
L 0 236.556923 
L 0 239.842436 
L 0 243.127948 
L 0 246.413461 
L 0 249.698974 
L 0 252.984487 
L 0 256.27 
L 0 259.555512 
L 0 262.841025 
L 0 266.126538 
L 0 269.412051 
L 0 272.697564 
L 0 275.983077 
L 0 279.268589 
L 0 282.554102 
L 0 285.839615 
L 0 289.125128 
L 0 292.410641 
L 0 295.696153 
L 0 298.981666 
L 0 302.267179 
L 0 305.552692 
L 0 308.838205 
L 0 312.123718 
L 0 315.40923 
L 0 318.694743 
L 0 321.980256 
L 0 325.265769 
L 0 328.551282 
L 0 331.836794 
L 0 335.122307 
L 0 338.40782 
L 0 341.693333 
L 0 344.978846 
L 0 348.264359 
L 0 351.549871 
L 0 354.835384 
L 0 358.120897 
L 0 361.40641 
L 0 364.691923 
L 0 367.977435 
L 0 371.262948 
L 0 374.548461 
L 0 377.833974 
L 0 381.119487 
L 0 384.404999 
L 0 387.690512 
L 0 390.976025 
L 0 394.261538 
L 0 397.547051 
L 0 400.832564 
L 0 404.118076 
L 0 407.403589 
L 0 410.689102 
L 0 413.974615 
L 0 417.260128 
L 0 420.54564 
L 0 423.831153 
L 0 427.116666 
L 0 430.402179 
L 0 433.687692 
L 0 436.973205 
L 0 440.258717 
L 0 443.54423 
L 0 446.829743 
L 0 450.115256 
L 0 453.400769 
L 0 456.686281 
L 0 459.971794 
L 0 463.257307 
L 0 466.54282 
L 0 469.828333 
L 0 473.113846 
L 0 476.399358 
L 0 479.684871 
L 0 482.970384 
L 0 486.255897 
L 0 489.54141 
L 0 492.826922 
L 0 496.112435 
L 0 499.397948 
L 0 502.683461 
L 0 505.968974 
L 0 509.254487 
L 0 512.539999 
L 0 515.825512 
L 0 519.111025 
L 0 522.396538 
L 0 525.682051 
L 0 528.967563 
L 0 532.253076 
L 0 535.538589 
L 0 538.824102 
L 0 542.109615 
L 0 545.395127 
L 0 548.68064 
L 0 551.966153 
L 0 555.251666 
L 0 558.537179 
L 0 561.822692 
L 0 565.108204 
L 0 568.393717 
L 0 571.67923 
L 0 574.964743 
L 0 578.250256 
L 0 581.535768 
L 0 584.821281 
L 0 588.106794 
L 0 591.392307 
L 0 594.67782 
L 0 597.963333 
L 0 601.248845 
L 0 604.534358 
L 0 607.819871 
L 0 611.105384 
L 0 614.390897 
L 0 617.676409 
L 0 620.961922 
L 0 624.247435 
L 0 627.532948 
L 0 630.818461 
L 0 634.103974 
L 0 637.389486 
L 0 640.674999 
L 0 643.960512 
L 0 647.246025 
L 0 650.531538 
L 0 653.81705 
L 0 657.102563 
L 0 660.388076 
L 0 663.673589 
L 0 666.959102 
L 0 670.244615 
L 0 673.530127 
L 0 676.81564 
L 0 680.101153 
L 0 683.386666 
L 0 686.672179 
L 0 689.957691 
L 0 693.243204 
L 0 696.528717 
L 0 699.81423 
L 0 703.099743 
L 0 706.385255 
L 0 709.670768 
L 0 712.956281 
L 0 716.241794 
L 0 719.527307 
L 0 722.81282 
L 0 726.098332 
L 0 729.383845 
L 0 732.669358 
L 0 735.954871 
L 0 739.240384 
L 0 742.525896 
L 0 745.811409 
L 0 749.096922 
L 0 752.382435 
L 0 755.667948 
L 0 758.953461 
L 0 762.238973 
L 0 765.524486 
L 0 768.809999 
L 0 772.095512 
L 0 775.381025 
L 0 778.666537 
L 0 781.95205 
L 0 785.237563 
L 0 788.523076 
L 0 791.808589 
L 0 795.094102 
L 0 798.379614 
L 0 801.665127 
L 0 804.95064 
L 0 808.236153 
L 0 811.521666 
L 0 814.807178 
L 0 818.092691 
z
" clip-path="url(#p48a4615f7f)" style="fill: #f5f9fe; fill-opacity: 0.9"/>
    <path clip-path="url(#p48a4615f7f)" style="fill: #eff6fc; fill-opacity: 0.9"/>
    <path clip-path="url(#p48a4615f7f)" style="fill: #eaf3fb; fill-opacity: 0.9"/>
    <path clip-path="url(#p48a4615f7f)" style="fill: #e5eff9; fill-opacity: 0.9"/>
    <path clip-path="url(#p48a4615f7f)" style="fill: #dfecf7; fill-opacity: 0.9"/>
    <path clip-path="url(#p48a4615f7f)" style="fill: #dae8f6; fill-opacity: 0.9"/>
    <path clip-path="url(#p48a4615f7f)" style="fill: #d6e5f4; fill-opacity: 0.9"/>
    <path clip-path="url(#p48a4615f7f)" style="fill: #d0e2f2; fill-opacity: 0.9"/>
    <path clip-path="url(#p48a4615f7f)" style="fill: #cbdef1; fill-opacity: 0.9"/>
    <path clip-path="url(#p48a4615f7f)" style="fill: #c6dbef; fill-opacity: 0.9"/>
    <path clip-path="url(#p48a4615f7f)" style="fill: #bed8ec; fill-opacity: 0.9"/>
    <path clip-path="url(#p48a4615f7f)" style="fill: #b5d4e9; fill-opacity: 0.9"/>
    <path clip-path="url(#p48a4615f7f)" style="fill: #add0e6; fill-opacity: 0.9"/>
    <path clip-path="url(#p48a4615f7f)" style="fill: #a5cde3; fill-opacity: 0.9"/>
    <path clip-path="url(#p48a4615f7f)" style="fill: #9cc9e1; fill-opacity: 0.9"/>
    <path clip-path="url(#p48a4615f7f)" style="fill: #91c3de; fill-opacity: 0.9"/>
    <path clip-path="url(#p48a4615f7f)" style="fill: #85bcdc; fill-opacity: 0.9"/>
    <path clip-path="url(#p48a4615f7f)" style="fill: #7cb7da; fill-opacity: 0.9"/>
    <path clip-path="url(#p48a4615f7f)" style="fill: #71b1d7; fill-opacity: 0.9"/>
    <path clip-path="url(#p48a4615f7f)" style="fill: #66abd4; fill-opacity: 0.9"/>
    <path clip-path="url(#p48a4615f7f)" style="fill: #5da5d1; fill-opacity: 0.9"/>
    <path clip-path="url(#p48a4615f7f)" style="fill: #56a0ce; fill-opacity: 0.9"/>
    <path clip-path="url(#p48a4615f7f)" style="fill: #4d99ca; fill-opacity: 0.9"/>
    <path clip-path="url(#p48a4615f7f)" style="fill: #4493c7; fill-opacity: 0.9"/>
    <path clip-path="url(#p48a4615f7f)" style="fill: #3c8cc3; fill-opacity: 0.9"/>
    <path clip-path="url(#p48a4615f7f)" style="fill: #3686c0; fill-opacity: 0.9"/>
    <path clip-path="url(#p48a4615f7f)" style="fill: #2f7fbc; fill-opacity: 0.9"/>
    <path clip-path="url(#p48a4615f7f)" style="fill: #2777b8; fill-opacity: 0.9"/>
    <path clip-path="url(#p48a4615f7f)" style="fill: #2070b4; fill-opacity: 0.9"/>
    <path clip-path="url(#p48a4615f7f)" style="fill: #1c6ab0; fill-opacity: 0.9"/>
    <path clip-path="url(#p48a4615f7f)" style="fill: #1663aa; fill-opacity: 0.9"/>
    <path clip-path="url(#p48a4615f7f)" style="fill: #115ca5; fill-opacity: 0.9"/>
    <path clip-path="url(#p48a4615f7f)" style="fill: #0c56a0; fill-opacity: 0.9"/>
    <path clip-path="url(#p48a4615f7f)" style="fill: #084f99; fill-opacity: 0.9"/>
    <path clip-path="url(#p48a4615f7f)" style="fill: #08488e; fill-opacity: 0.9"/>
    <path clip-path="url(#p48a4615f7f)" style="fill: #084184; fill-opacity: 0.9"/>
    <path clip-path="url(#p48a4615f7f)" style="fill: #083a7a; fill-opacity: 0.9"/>
    <path clip-path="url(#p48a4615f7f)" style="fill: #083370; fill-opacity: 0.9"/>
    <path clip-path="url(#p48a4615f7f)" style="fill: #08306b; fill-opacity: 0.9"/>
   </g>
   <g id="QuadContourSet_2">
    <path clip-path="url(#p48a4615f7f)" style="fill: none"/>
    <path clip-path="url(#p48a4615f7f)" style="fill: none"/>
    <path clip-path="url(#p48a4615f7f)" style="fill: none"/>
    <path clip-path="url(#p48a4615f7f)" style="fill: none"/>
    <path clip-path="url(#p48a4615f7f)" style="fill: none"/>
    <path clip-path="url(#p48a4615f7f)" style="fill: none"/>
    <path clip-path="url(#p48a4615f7f)" style="fill: none"/>
    <path clip-path="url(#p48a4615f7f)" style="fill: none"/>
    <path clip-path="url(#p48a4615f7f)" style="fill: none"/>
    <path clip-path="url(#p48a4615f7f)" style="fill: none"/>
    <path clip-path="url(#p48a4615f7f)" style="fill: none"/>
    <path clip-path="url(#p48a4615f7f)" style="fill: none"/>
    <path clip-path="url(#p48a4615f7f)" style="fill: none"/>
    <path clip-path="url(#p48a4615f7f)" style="fill: none"/>
    <path clip-path="url(#p48a4615f7f)" style="fill: none"/>
    <path clip-path="url(#p48a4615f7f)" style="fill: none"/>
    <path clip-path="url(#p48a4615f7f)" style="fill: none"/>
    <path clip-path="url(#p48a4615f7f)" style="fill: none"/>
    <path clip-path="url(#p48a4615f7f)" style="fill: none"/>
    <path clip-path="url(#p48a4615f7f)" style="fill: none"/>
    <path clip-path="url(#p48a4615f7f)" style="fill: none"/>
    <path clip-path="url(#p48a4615f7f)" style="fill: none"/>
    <path clip-path="url(#p48a4615f7f)" style="fill: none"/>
    <path clip-path="url(#p48a4615f7f)" style="fill: none"/>
    <path clip-path="url(#p48a4615f7f)" style="fill: none"/>
    <path clip-path="url(#p48a4615f7f)" style="fill: none"/>
    <path clip-path="url(#p48a4615f7f)" style="fill: none"/>
    <path clip-path="url(#p48a4615f7f)" style="fill: none"/>
    <path clip-path="url(#p48a4615f7f)" style="fill: none"/>
    <path clip-path="url(#p48a4615f7f)" style="fill: none"/>
    <path clip-path="url(#p48a4615f7f)" style="fill: none"/>
    <path clip-path="url(#p48a4615f7f)" style="fill: none"/>
    <path clip-path="url(#p48a4615f7f)" style="fill: none"/>
    <path clip-path="url(#p48a4615f7f)" style="fill: none"/>
    <path clip-path="url(#p48a4615f7f)" style="fill: none"/>
    <path clip-path="url(#p48a4615f7f)" style="fill: none"/>
    <path clip-path="url(#p48a4615f7f)" style="fill: none"/>
    <path clip-path="url(#p48a4615f7f)" style="fill: none"/>
    <path clip-path="url(#p48a4615f7f)" style="fill: none"/>
   </g>
  </g>
 </g>
 <defs>
  <clipPath id="p48a4615f7f">
   <rect x="0" y="0" width="576" height="818.092691"/>
  </clipPath>
 </defs>
</svg>
