<?xml version="1.0" encoding="utf-8" standalone="no"?>
<!DOCTYPE svg PUBLIC "-//W3C//DTD SVG 1.1//EN"
  "http://www.w3.org/Graphics/SVG/1.1/DTD/svg11.dtd">
<svg xmlns:xlink="http://www.w3.org/1999/xlink" width="576pt" height="818.525063pt" viewBox="0 0 576 818.525063" xmlns="http://www.w3.org/2000/svg" version="1.1">
 <metadata>
  <rdf:RDF xmlns:dc="http://purl.org/dc/elements/1.1/" xmlns:cc="http://creativecommons.org/ns#" xmlns:rdf="http://www.w3.org/1999/02/22-rdf-syntax-ns#">
   <cc:Work>
    <dc:type rdf:resource="http://purl.org/dc/dcmitype/StillImage"/>
    <dc:date>2025-07-25T22:44:08.302124</dc:date>
    <dc:format>image/svg+xml</dc:format>
    <dc:creator>
     <cc:Agent>
      <dc:title>Matplotlib v3.10.3, https://matplotlib.org/</dc:title>
     </cc:Agent>
    </dc:creator>
   </cc:Work>
  </rdf:RDF>
 </metadata>
 <defs>
  <style type="text/css">*{stroke-linejoin: round; stroke-linecap: butt}</style>
 </defs>
 <g id="figure_1">
  <g id="patch_1">
   <path d="M 0 818.525063 
L 576 818.525063 
L 576 0 
L 0 0 
L 0 818.525063 
z
" style="fill: none; opacity: 0"/>
  </g>
  <g id="axes_1">
   <g id="QuadContourSet_1">
    <path d="M 19.748571 817.852303 
L 20.552328 818.525063 
L 22.910838 818.525063 
L 19.748571 815.878184 
L 19.330149 815.237814 
L 18.49306 811.950565 
L 16.768762 808.663315 
L 16.457143 808.274769 
L 15.106205 805.376066 
L 13.165714 802.259367 
L 12.925108 802.088817 
L 10.666613 798.801568 
L 9.874286 797.735008 
L 7.264284 795.514318 
L 6.582857 794.306098 
L 3.291429 794.063695 
L 2.96877 792.227069 
L 1.110808 788.93982 
L 0 788.288518 
L 0 788.93982 
L 0 790.277505 
L 1.488774 792.227069 
L 1.921133 795.514318 
L 3.291429 797.682753 
L 5.598381 798.801568 
L 6.582857 800.337052 
L 9.874286 799.837678 
L 10.840413 802.088817 
L 13.165714 803.737075 
L 14.186168 805.376066 
L 15.117827 808.663315 
L 16.457143 810.248888 
L 17.399652 811.950565 
L 18.040245 815.237814 
z
" clip-path="url(#p4ec9cc1c46)" style="fill: #f5f9fe; fill-opacity: 0.9"/>
    <path d="M 19.748571 818.525063 
L 20.552328 818.525063 
L 19.748571 817.852303 
L 18.040245 815.237814 
L 17.399652 811.950565 
L 16.457143 810.248888 
L 15.117827 808.663315 
L 14.186168 805.376066 
L 13.165714 803.737075 
L 10.840413 802.088817 
L 9.874286 799.837678 
L 6.582857 800.337052 
L 5.598381 798.801568 
L 3.291429 797.682753 
L 1.921133 795.514318 
L 1.488774 792.227069 
L 0 790.277505 
L -0 792.215575 
L 0.008778 792.227069 
L 0.265799 795.514318 
L 0.746365 798.801568 
L 3.291429 801.349666 
L 3.862245 802.088817 
L 4.284745 805.376066 
L 6.582857 807.678855 
L 9.874286 806.915429 
L 11.760374 805.376066 
L 13.165714 805.214784 
L 13.266131 805.376066 
L 13.45031 808.663315 
L 15.100294 811.950565 
L 16.457143 813.192428 
L 16.750341 815.237814 
L 17.370317 818.525063 
z
" clip-path="url(#p4ec9cc1c46)" style="fill: #eff6fc; fill-opacity: 0.9"/>
    <path d="M 3.291429 818.525063 
L 6.582857 818.525063 
L 9.874286 818.525063 
L 13.165714 818.525063 
L 16.457143 818.525063 
L 17.370317 818.525063 
L 16.750341 815.237814 
L 16.457143 813.192428 
L 15.100294 811.950565 
L 13.45031 808.663315 
L 13.266131 805.376066 
L 13.165714 805.214784 
L 11.760374 805.376066 
L 9.874286 806.915429 
L 6.582857 807.678855 
L 4.284745 805.376066 
L 3.862245 802.088817 
L 3.291429 801.349666 
L 0.746365 798.801568 
L 0.265799 795.514318 
L 0.008778 792.227069 
L -0 792.215575 
L 0 792.227069 
L 0 795.514318 
L 0 798.801568 
L 0 802.088817 
L 0 805.376066 
L 0 808.663315 
L 0 811.950565 
L 0 815.237814 
L 0 818.525063 
z
" clip-path="url(#p4ec9cc1c46)" style="fill: #eaf3fb; fill-opacity: 0.9"/>
    <path clip-path="url(#p4ec9cc1c46)" style="fill: #e5eff9; fill-opacity: 0.9"/>
    <path clip-path="url(#p4ec9cc1c46)" style="fill: #dfecf7; fill-opacity: 0.9"/>
    <path clip-path="url(#p4ec9cc1c46)" style="fill: #dae8f6; fill-opacity: 0.9"/>
    <path clip-path="url(#p4ec9cc1c46)" style="fill: #d6e5f4; fill-opacity: 0.9"/>
    <path clip-path="url(#p4ec9cc1c46)" style="fill: #d0e2f2; fill-opacity: 0.9"/>
    <path clip-path="url(#p4ec9cc1c46)" style="fill: #cbdef1; fill-opacity: 0.9"/>
    <path clip-path="url(#p4ec9cc1c46)" style="fill: #c6dbef; fill-opacity: 0.9"/>
    <path clip-path="url(#p4ec9cc1c46)" style="fill: #bed8ec; fill-opacity: 0.9"/>
    <path clip-path="url(#p4ec9cc1c46)" style="fill: #b5d4e9; fill-opacity: 0.9"/>
    <path clip-path="url(#p4ec9cc1c46)" style="fill: #add0e6; fill-opacity: 0.9"/>
    <path clip-path="url(#p4ec9cc1c46)" style="fill: #a5cde3; fill-opacity: 0.9"/>
    <path clip-path="url(#p4ec9cc1c46)" style="fill: #9cc9e1; fill-opacity: 0.9"/>
    <path clip-path="url(#p4ec9cc1c46)" style="fill: #91c3de; fill-opacity: 0.9"/>
    <path clip-path="url(#p4ec9cc1c46)" style="fill: #85bcdc; fill-opacity: 0.9"/>
    <path clip-path="url(#p4ec9cc1c46)" style="fill: #7cb7da; fill-opacity: 0.9"/>
    <path clip-path="url(#p4ec9cc1c46)" style="fill: #71b1d7; fill-opacity: 0.9"/>
    <path clip-path="url(#p4ec9cc1c46)" style="fill: #66abd4; fill-opacity: 0.9"/>
    <path clip-path="url(#p4ec9cc1c46)" style="fill: #5da5d1; fill-opacity: 0.9"/>
    <path clip-path="url(#p4ec9cc1c46)" style="fill: #56a0ce; fill-opacity: 0.9"/>
    <path clip-path="url(#p4ec9cc1c46)" style="fill: #4d99ca; fill-opacity: 0.9"/>
    <path clip-path="url(#p4ec9cc1c46)" style="fill: #4493c7; fill-opacity: 0.9"/>
    <path clip-path="url(#p4ec9cc1c46)" style="fill: #3c8cc3; fill-opacity: 0.9"/>
    <path clip-path="url(#p4ec9cc1c46)" style="fill: #3686c0; fill-opacity: 0.9"/>
    <path clip-path="url(#p4ec9cc1c46)" style="fill: #2f7fbc; fill-opacity: 0.9"/>
    <path clip-path="url(#p4ec9cc1c46)" style="fill: #2777b8; fill-opacity: 0.9"/>
    <path clip-path="url(#p4ec9cc1c46)" style="fill: #2070b4; fill-opacity: 0.9"/>
    <path clip-path="url(#p4ec9cc1c46)" style="fill: #1c6ab0; fill-opacity: 0.9"/>
    <path clip-path="url(#p4ec9cc1c46)" style="fill: #1663aa; fill-opacity: 0.9"/>
    <path clip-path="url(#p4ec9cc1c46)" style="fill: #115ca5; fill-opacity: 0.9"/>
    <path clip-path="url(#p4ec9cc1c46)" style="fill: #0c56a0; fill-opacity: 0.9"/>
    <path clip-path="url(#p4ec9cc1c46)" style="fill: #084f99; fill-opacity: 0.9"/>
    <path clip-path="url(#p4ec9cc1c46)" style="fill: #08488e; fill-opacity: 0.9"/>
    <path clip-path="url(#p4ec9cc1c46)" style="fill: #084184; fill-opacity: 0.9"/>
    <path clip-path="url(#p4ec9cc1c46)" style="fill: #083a7a; fill-opacity: 0.9"/>
    <path clip-path="url(#p4ec9cc1c46)" style="fill: #083370; fill-opacity: 0.9"/>
    <path clip-path="url(#p4ec9cc1c46)" style="fill: #08306b; fill-opacity: 0.9"/>
   </g>
   <g id="QuadContourSet_2">
    <path d="M 22.910838 818.525063 
L 20.671283 816.650512 
M 11.564153 800.107941 
L 10.666613 798.801568 
L 9.874286 797.735008 
L 7.264284 795.514318 
L 6.582857 794.306098 
L 3.291429 794.063695 
L 2.96877 792.227069 
L 1.110808 788.93982 
L 0 788.288518 
" clip-path="url(#p4ec9cc1c46)" style="fill: none"/>
    <path d="M 20.552328 818.525063 
L 19.748571 817.852303 
L 18.040245 815.237814 
L 17.399652 811.950565 
L 16.457143 810.248888 
L 15.117827 808.663315 
L 14.186168 805.376066 
L 13.165714 803.737075 
L 10.840413 802.088817 
L 9.874286 799.837678 
L 6.582857 800.337052 
L 5.598381 798.801568 
L 4.453363 798.246262 
" clip-path="url(#p4ec9cc1c46)" style="fill: none"/>
    <path d="M 17.370317 818.525063 
L 16.750341 815.237814 
L 16.573707 814.005596 
M 5.044233 806.137099 
L 4.284745 805.376066 
L 3.862245 802.088817 
L 3.291429 801.349666 
L 0.746365 798.801568 
L 0.265799 795.514318 
L 0.008778 792.227069 
L -0 792.215575 
" clip-path="url(#p4ec9cc1c46)" style="fill: none"/>
    <path clip-path="url(#p4ec9cc1c46)" style="fill: none"/>
    <path clip-path="url(#p4ec9cc1c46)" style="fill: none"/>
    <path clip-path="url(#p4ec9cc1c46)" style="fill: none"/>
    <path clip-path="url(#p4ec9cc1c46)" style="fill: none"/>
    <path clip-path="url(#p4ec9cc1c46)" style="fill: none"/>
    <path clip-path="url(#p4ec9cc1c46)" style="fill: none"/>
    <path clip-path="url(#p4ec9cc1c46)" style="fill: none"/>
    <path clip-path="url(#p4ec9cc1c46)" style="fill: none"/>
    <path clip-path="url(#p4ec9cc1c46)" style="fill: none"/>
    <path clip-path="url(#p4ec9cc1c46)" style="fill: none"/>
    <path clip-path="url(#p4ec9cc1c46)" style="fill: none"/>
    <path clip-path="url(#p4ec9cc1c46)" style="fill: none"/>
    <path clip-path="url(#p4ec9cc1c46)" style="fill: none"/>
    <path clip-path="url(#p4ec9cc1c46)" style="fill: none"/>
    <path clip-path="url(#p4ec9cc1c46)" style="fill: none"/>
    <path clip-path="url(#p4ec9cc1c46)" style="fill: none"/>
    <path clip-path="url(#p4ec9cc1c46)" style="fill: none"/>
    <path clip-path="url(#p4ec9cc1c46)" style="fill: none"/>
    <path clip-path="url(#p4ec9cc1c46)" style="fill: none"/>
    <path clip-path="url(#p4ec9cc1c46)" style="fill: none"/>
    <path clip-path="url(#p4ec9cc1c46)" style="fill: none"/>
    <path clip-path="url(#p4ec9cc1c46)" style="fill: none"/>
    <path clip-path="url(#p4ec9cc1c46)" style="fill: none"/>
    <path clip-path="url(#p4ec9cc1c46)" style="fill: none"/>
    <path clip-path="url(#p4ec9cc1c46)" style="fill: none"/>
    <path clip-path="url(#p4ec9cc1c46)" style="fill: none"/>
    <path clip-path="url(#p4ec9cc1c46)" style="fill: none"/>
    <path clip-path="url(#p4ec9cc1c46)" style="fill: none"/>
    <path clip-path="url(#p4ec9cc1c46)" style="fill: none"/>
    <path clip-path="url(#p4ec9cc1c46)" style="fill: none"/>
    <path clip-path="url(#p4ec9cc1c46)" style="fill: none"/>
    <path clip-path="url(#p4ec9cc1c46)" style="fill: none"/>
    <path clip-path="url(#p4ec9cc1c46)" style="fill: none"/>
    <path clip-path="url(#p4ec9cc1c46)" style="fill: none"/>
    <path clip-path="url(#p4ec9cc1c46)" style="fill: none"/>
    <path clip-path="url(#p4ec9cc1c46)" style="fill: none"/>
   </g>
   <g id="text_1">
    <g clip-path="url(#p4ec9cc1c46)">
     <!-- 0 -->
     <g style="opacity: 0" transform="translate(11.763631 806.401635) rotate(-297.305613) scale(0.12 -0.12)">
      <defs>
       <path id="DejaVuSans-30" d="M 2034 4250 
Q 1547 4250 1301 3770 
Q 1056 3291 1056 2328 
Q 1056 1369 1301 889 
Q 1547 409 2034 409 
Q 2525 409 2770 889 
Q 3016 1369 3016 2328 
Q 3016 3291 2770 3770 
Q 2525 4250 2034 4250 
z
M 2034 4750 
Q 2819 4750 3233 4129 
Q 3647 3509 3647 2328 
Q 3647 1150 3233 529 
Q 2819 -91 2034 -91 
Q 1250 -91 836 529 
Q 422 1150 422 2328 
Q 422 3509 836 4129 
Q 1250 4750 2034 4750 
z
" transform="scale(0.015625)"/>
      </defs>
      <use xlink:href="#DejaVuSans-30"/>
     </g>
    </g>
   </g>
   <g id="text_2">
    <g clip-path="url(#p4ec9cc1c46)">
     <!-- 1 -->
     <g style="opacity: 0" transform="translate(-4.515731 788.009056) rotate(-292.389679) scale(0.12 -0.12)">
      <defs>
       <path id="DejaVuSans-31" d="M 794 531 
L 1825 531 
L 1825 4091 
L 703 3866 
L 703 4441 
L 1819 4666 
L 2450 4666 
L 2450 531 
L 3481 531 
L 3481 0 
L 794 0 
L 794 531 
z
" transform="scale(0.015625)"/>
      </defs>
      <use xlink:href="#DejaVuSans-31"/>
     </g>
    </g>
   </g>
   <g id="text_3">
    <g clip-path="url(#p4ec9cc1c46)">
     <!-- 2 -->
     <g style="opacity: 0" transform="translate(8.30269 806.325771) rotate(-329.894111) scale(0.12 -0.12)">
      <defs>
       <path id="DejaVuSans-32" d="M 1228 531 
L 3431 531 
L 3431 0 
L 469 0 
L 469 531 
Q 828 903 1448 1529 
Q 2069 2156 2228 2338 
Q 2531 2678 2651 2914 
Q 2772 3150 2772 3378 
Q 2772 3750 2511 3984 
Q 2250 4219 1831 4219 
Q 1534 4219 1204 4116 
Q 875 4013 500 3803 
L 500 4441 
Q 881 4594 1212 4672 
Q 1544 4750 1819 4750 
Q 2544 4750 2975 4387 
Q 3406 4025 3406 3419 
Q 3406 3131 3298 2873 
Q 3191 2616 2906 2266 
Q 2828 2175 2409 1742 
Q 1991 1309 1228 531 
z
" transform="scale(0.015625)"/>
      </defs>
      <use xlink:href="#DejaVuSans-32"/>
     </g>
    </g>
   </g>
  </g>
 </g>
 <defs>
  <clipPath id="p4ec9cc1c46">
   <rect x="0" y="0" width="576" height="818.525063"/>
  </clipPath>
 </defs>
</svg>
