<?xml version="1.0" encoding="utf-8" standalone="no"?>
<!DOCTYPE svg PUBLIC "-//W3C//DTD SVG 1.1//EN"
  "http://www.w3.org/Graphics/SVG/1.1/DTD/svg11.dtd">
<svg xmlns:xlink="http://www.w3.org/1999/xlink" width="576pt" height="815.79817pt" viewBox="0 0 576 815.79817" xmlns="http://www.w3.org/2000/svg" version="1.1">
 <metadata>
  <rdf:RDF xmlns:dc="http://purl.org/dc/elements/1.1/" xmlns:cc="http://creativecommons.org/ns#" xmlns:rdf="http://www.w3.org/1999/02/22-rdf-syntax-ns#">
   <cc:Work>
    <dc:type rdf:resource="http://purl.org/dc/dcmitype/StillImage"/>
    <dc:date>2025-07-25T22:44:45.758066</dc:date>
    <dc:format>image/svg+xml</dc:format>
    <dc:creator>
     <cc:Agent>
      <dc:title>Matplotlib v3.10.3, https://matplotlib.org/</dc:title>
     </cc:Agent>
    </dc:creator>
   </cc:Work>
  </rdf:RDF>
 </metadata>
 <defs>
  <style type="text/css">*{stroke-linejoin: round; stroke-linecap: butt}</style>
 </defs>
 <g id="figure_1">
  <g id="patch_1">
   <path d="M 0 815.79817 
L 576 815.79817 
L 576 0 
L 0 0 
L 0 815.79817 
z
" style="fill: none; opacity: 0"/>
  </g>
  <g id="axes_1">
   <g id="QuadContourSet_1">
    <path d="M 553.090909 13.105191 
L 556.363636 13.105191 
L 557.758166 9.828894 
L 557.806566 6.552596 
L 556.363636 3.383888 
L 553.090909 4.372639 
L 549.818182 4.940099 
L 548.479701 6.552596 
L 549.818182 7.892537 
L 551.752428 9.828894 
z
M 552.540068 9.828894 
L 549.818182 7.104038 
L 549.267341 6.552596 
L 549.818182 5.888986 
L 553.090909 5.655452 
L 556.363636 5.139556 
L 557.00709 6.552596 
L 556.937544 9.828894 
L 556.363636 11.177227 
L 553.090909 11.177227 
z
M 576 8.165849 
L 576 7.280243 
L 574.703069 6.552596 
L 572.727273 4.990596 
L 569.685151 3.276298 
L 569.454545 3.108229 
L 566.181818 1.46436 
L 563.633936 -0 
L 562.909091 -0 
L 559.636364 -0 
L 556.363636 -0 
L 553.090909 -0 
L 549.818182 -0 
L 546.695556 -0 
L 547.208341 3.276298 
L 546.545455 3.82774 
L 545.994614 3.276298 
L 546.511188 -0 
L 543.272727 -0 
L 542.980803 -0 
L 543.272727 0.141226 
L 545.206974 3.276298 
L 546.545455 4.616239 
L 548.156194 3.276298 
L 549.818182 1.030199 
L 553.090909 1.198609 
L 556.363636 3.018249 
L 559.636364 2.329389 
L 562.909091 2.497568 
L 566.181818 2.867754 
L 566.984471 3.276298 
L 569.454545 4.678202 
L 572.727273 6.238483 
L 573.124599 6.552596 
z
M 520.363636 6.552596 
L 521.653958 3.276298 
L 521.715836 -0 
L 520.933782 -0 
L 520.846707 3.276298 
L 520.363636 4.502878 
L 519.138393 3.276298 
L 517.090909 1.22658 
L 516.59233 -0 
L 515.759164 -0 
L 517.090909 3.276298 
L 517.090909 3.276298 
z
" clip-path="url(#p8f48dd868a)" style="fill: #f5f9fe; fill-opacity: 0.9"/>
    <path d="M 553.090909 11.177227 
L 556.363636 11.177227 
L 556.937544 9.828894 
L 557.00709 6.552596 
L 556.363636 5.139556 
L 553.090909 5.655452 
L 549.818182 5.888986 
L 549.267341 6.552596 
L 549.818182 7.104038 
L 552.540068 9.828894 
z
M 576 7.280243 
L 576 6.552596 
L 576 4.040416 
L 572.727273 3.74271 
L 571.899598 3.276298 
L 569.454545 1.494306 
L 566.181818 0.060966 
L 566.075741 -0 
L 563.633936 -0 
L 566.181818 1.46436 
L 569.454545 3.108229 
L 569.685151 3.276298 
L 572.727273 4.990596 
L 574.703069 6.552596 
z
M 520.363636 4.502878 
L 520.846707 3.276298 
L 520.933782 -0 
L 520.363636 -0 
L 517.090909 -0 
L 516.59233 -0 
L 517.090909 1.22658 
L 519.138393 3.276298 
z
M 546.545455 3.82774 
L 547.208341 3.276298 
L 546.695556 -0 
L 546.545455 -0 
L 546.511188 -0 
L 545.994614 3.276298 
z
" clip-path="url(#p8f48dd868a)" style="fill: #eff6fc; fill-opacity: 0.9"/>
    <path d="M 572.727273 3.74271 
L 576 4.040416 
L 576 3.276298 
L 576 0.684275 
L 574.729817 -0 
L 572.727273 -0 
L 569.454545 -0 
L 566.181818 -0 
L 566.075741 -0 
L 566.181818 0.060966 
L 569.454545 1.494306 
L 571.899598 3.276298 
z
" clip-path="url(#p8f48dd868a)" style="fill: #eaf3fb; fill-opacity: 0.9"/>
    <path d="M 576 0.684275 
L 576 -0 
L 574.729817 -0 
z
" clip-path="url(#p8f48dd868a)" style="fill: #e5eff9; fill-opacity: 0.9"/>
    <path clip-path="url(#p8f48dd868a)" style="fill: #dfecf7; fill-opacity: 0.9"/>
    <path clip-path="url(#p8f48dd868a)" style="fill: #dae8f6; fill-opacity: 0.9"/>
    <path clip-path="url(#p8f48dd868a)" style="fill: #d6e5f4; fill-opacity: 0.9"/>
    <path clip-path="url(#p8f48dd868a)" style="fill: #d0e2f2; fill-opacity: 0.9"/>
    <path clip-path="url(#p8f48dd868a)" style="fill: #cbdef1; fill-opacity: 0.9"/>
    <path clip-path="url(#p8f48dd868a)" style="fill: #c6dbef; fill-opacity: 0.9"/>
    <path clip-path="url(#p8f48dd868a)" style="fill: #bed8ec; fill-opacity: 0.9"/>
    <path clip-path="url(#p8f48dd868a)" style="fill: #b5d4e9; fill-opacity: 0.9"/>
    <path clip-path="url(#p8f48dd868a)" style="fill: #add0e6; fill-opacity: 0.9"/>
    <path clip-path="url(#p8f48dd868a)" style="fill: #a5cde3; fill-opacity: 0.9"/>
    <path clip-path="url(#p8f48dd868a)" style="fill: #9cc9e1; fill-opacity: 0.9"/>
    <path clip-path="url(#p8f48dd868a)" style="fill: #91c3de; fill-opacity: 0.9"/>
    <path clip-path="url(#p8f48dd868a)" style="fill: #85bcdc; fill-opacity: 0.9"/>
    <path clip-path="url(#p8f48dd868a)" style="fill: #7cb7da; fill-opacity: 0.9"/>
    <path clip-path="url(#p8f48dd868a)" style="fill: #71b1d7; fill-opacity: 0.9"/>
    <path clip-path="url(#p8f48dd868a)" style="fill: #66abd4; fill-opacity: 0.9"/>
    <path clip-path="url(#p8f48dd868a)" style="fill: #5da5d1; fill-opacity: 0.9"/>
    <path clip-path="url(#p8f48dd868a)" style="fill: #56a0ce; fill-opacity: 0.9"/>
    <path clip-path="url(#p8f48dd868a)" style="fill: #4d99ca; fill-opacity: 0.9"/>
    <path clip-path="url(#p8f48dd868a)" style="fill: #4493c7; fill-opacity: 0.9"/>
    <path clip-path="url(#p8f48dd868a)" style="fill: #3c8cc3; fill-opacity: 0.9"/>
    <path clip-path="url(#p8f48dd868a)" style="fill: #3686c0; fill-opacity: 0.9"/>
    <path clip-path="url(#p8f48dd868a)" style="fill: #2f7fbc; fill-opacity: 0.9"/>
    <path clip-path="url(#p8f48dd868a)" style="fill: #2777b8; fill-opacity: 0.9"/>
    <path clip-path="url(#p8f48dd868a)" style="fill: #2070b4; fill-opacity: 0.9"/>
    <path clip-path="url(#p8f48dd868a)" style="fill: #1c6ab0; fill-opacity: 0.9"/>
    <path clip-path="url(#p8f48dd868a)" style="fill: #1663aa; fill-opacity: 0.9"/>
    <path clip-path="url(#p8f48dd868a)" style="fill: #115ca5; fill-opacity: 0.9"/>
    <path clip-path="url(#p8f48dd868a)" style="fill: #0c56a0; fill-opacity: 0.9"/>
    <path clip-path="url(#p8f48dd868a)" style="fill: #084f99; fill-opacity: 0.9"/>
    <path clip-path="url(#p8f48dd868a)" style="fill: #08488e; fill-opacity: 0.9"/>
    <path clip-path="url(#p8f48dd868a)" style="fill: #084184; fill-opacity: 0.9"/>
    <path clip-path="url(#p8f48dd868a)" style="fill: #083a7a; fill-opacity: 0.9"/>
    <path clip-path="url(#p8f48dd868a)" style="fill: #083370; fill-opacity: 0.9"/>
    <path clip-path="url(#p8f48dd868a)" style="fill: #08306b; fill-opacity: 0.9"/>
   </g>
   <g id="QuadContourSet_2">
    <path d="M 515.759164 -0 
L 517.090909 3.276298 
L 517.090909 3.276298 
L 520.363636 6.552596 
L 521.653958 3.276298 
L 521.715836 -0 
M 542.980803 -0 
L 543.272727 0.141226 
L 543.749614 0.914174 
M 558.817253 2.5018 
L 559.636364 2.329389 
L 562.909091 2.497568 
L 566.181818 2.867754 
L 566.984471 3.276298 
L 569.454545 4.678202 
L 572.727273 6.238483 
L 573.124599 6.552596 
L 576 8.165849 
M 553.090909 13.105191 
L 556.363636 13.105191 
L 557.758166 9.828894 
L 557.806566 6.552596 
L 556.363636 3.383888 
L 553.090909 4.372639 
L 549.818182 4.940099 
L 548.479701 6.552596 
L 549.818182 7.892537 
L 551.752428 9.828894 
L 553.090909 13.105191 
z
" clip-path="url(#p8f48dd868a)" style="fill: none"/>
    <path d="M 516.59233 -0 
L 517.090909 1.22658 
L 519.138393 3.276298 
L 520.363636 4.502878 
L 520.846707 3.276298 
L 520.933782 -0 
M 546.511188 -0 
L 545.994614 3.276298 
L 546.545455 3.82774 
L 547.208341 3.276298 
L 546.695556 -0 
M 553.090909 11.177227 
L 556.363636 11.177227 
L 556.937544 9.828894 
L 557.00709 6.552596 
L 556.363636 5.139556 
L 553.090909 5.655452 
L 549.818182 5.888986 
L 549.267341 6.552596 
L 549.818182 7.104038 
L 552.540068 9.828894 
L 553.090909 11.177227 
z
" clip-path="url(#p8f48dd868a)" style="fill: none"/>
    <path d="M 566.075741 -0 
L 566.181818 0.060966 
L 569.454545 1.494306 
L 571.899598 3.276298 
L 572.727273 3.74271 
L 576 4.040416 
" clip-path="url(#p8f48dd868a)" style="fill: none"/>
    <path d="M 574.729817 -0 
L 576 0.684275 
" clip-path="url(#p8f48dd868a)" style="fill: none"/>
    <path clip-path="url(#p8f48dd868a)" style="fill: none"/>
    <path clip-path="url(#p8f48dd868a)" style="fill: none"/>
    <path clip-path="url(#p8f48dd868a)" style="fill: none"/>
    <path clip-path="url(#p8f48dd868a)" style="fill: none"/>
    <path clip-path="url(#p8f48dd868a)" style="fill: none"/>
    <path clip-path="url(#p8f48dd868a)" style="fill: none"/>
    <path clip-path="url(#p8f48dd868a)" style="fill: none"/>
    <path clip-path="url(#p8f48dd868a)" style="fill: none"/>
    <path clip-path="url(#p8f48dd868a)" style="fill: none"/>
    <path clip-path="url(#p8f48dd868a)" style="fill: none"/>
    <path clip-path="url(#p8f48dd868a)" style="fill: none"/>
    <path clip-path="url(#p8f48dd868a)" style="fill: none"/>
    <path clip-path="url(#p8f48dd868a)" style="fill: none"/>
    <path clip-path="url(#p8f48dd868a)" style="fill: none"/>
    <path clip-path="url(#p8f48dd868a)" style="fill: none"/>
    <path clip-path="url(#p8f48dd868a)" style="fill: none"/>
    <path clip-path="url(#p8f48dd868a)" style="fill: none"/>
    <path clip-path="url(#p8f48dd868a)" style="fill: none"/>
    <path clip-path="url(#p8f48dd868a)" style="fill: none"/>
    <path clip-path="url(#p8f48dd868a)" style="fill: none"/>
    <path clip-path="url(#p8f48dd868a)" style="fill: none"/>
    <path clip-path="url(#p8f48dd868a)" style="fill: none"/>
    <path clip-path="url(#p8f48dd868a)" style="fill: none"/>
    <path clip-path="url(#p8f48dd868a)" style="fill: none"/>
    <path clip-path="url(#p8f48dd868a)" style="fill: none"/>
    <path clip-path="url(#p8f48dd868a)" style="fill: none"/>
    <path clip-path="url(#p8f48dd868a)" style="fill: none"/>
    <path clip-path="url(#p8f48dd868a)" style="fill: none"/>
    <path clip-path="url(#p8f48dd868a)" style="fill: none"/>
    <path clip-path="url(#p8f48dd868a)" style="fill: none"/>
    <path clip-path="url(#p8f48dd868a)" style="fill: none"/>
    <path clip-path="url(#p8f48dd868a)" style="fill: none"/>
    <path clip-path="url(#p8f48dd868a)" style="fill: none"/>
    <path clip-path="url(#p8f48dd868a)" style="fill: none"/>
    <path clip-path="url(#p8f48dd868a)" style="fill: none"/>
   </g>
   <g id="text_1">
    <g clip-path="url(#p8f48dd868a)">
     <!-- 0 -->
     <g style="opacity: 0" transform="translate(547.227944 5.369364) rotate(-18.22723) scale(0.12 -0.12)">
      <defs>
       <path id="DejaVuSans-30" d="M 2034 4250 
Q 1547 4250 1301 3770 
Q 1056 3291 1056 2328 
Q 1056 1369 1301 889 
Q 1547 409 2034 409 
Q 2525 409 2770 889 
Q 3016 1369 3016 2328 
Q 3016 3291 2770 3770 
Q 2525 4250 2034 4250 
z
M 2034 4750 
Q 2819 4750 3233 4129 
Q 3647 3509 3647 2328 
Q 3647 1150 3233 529 
Q 2819 -91 2034 -91 
Q 1250 -91 836 529 
Q 422 1150 422 2328 
Q 422 3509 836 4129 
Q 1250 4750 2034 4750 
z
" transform="scale(0.015625)"/>
      </defs>
      <use xlink:href="#DejaVuSans-30"/>
     </g>
    </g>
   </g>
   <g id="text_2">
    <g clip-path="url(#p8f48dd868a)">
     <!-- 1 -->
     <g style="opacity: 0" transform="translate(564.727207 4.254293) rotate(-330.220862) scale(0.12 -0.12)">
      <defs>
       <path id="DejaVuSans-31" d="M 794 531 
L 1825 531 
L 1825 4091 
L 703 3866 
L 703 4441 
L 1819 4666 
L 2450 4666 
L 2450 531 
L 3481 531 
L 3481 0 
L 794 0 
L 794 531 
z
" transform="scale(0.015625)"/>
      </defs>
      <use xlink:href="#DejaVuSans-31"/>
     </g>
    </g>
   </g>
  </g>
 </g>
 <defs>
  <clipPath id="p8f48dd868a">
   <rect x="0" y="0" width="576" height="815.79817"/>
  </clipPath>
 </defs>
</svg>
