<?xml version="1.0" encoding="utf-8" standalone="no"?>
<!DOCTYPE svg PUBLIC "-//W3C//DTD SVG 1.1//EN"
  "http://www.w3.org/Graphics/SVG/1.1/DTD/svg11.dtd">
<svg xmlns:xlink="http://www.w3.org/1999/xlink" width="576pt" height="817.804821pt" viewBox="0 0 576 817.804821" xmlns="http://www.w3.org/2000/svg" version="1.1">
 <metadata>
  <rdf:RDF xmlns:dc="http://purl.org/dc/elements/1.1/" xmlns:cc="http://creativecommons.org/ns#" xmlns:rdf="http://www.w3.org/1999/02/22-rdf-syntax-ns#">
   <cc:Work>
    <dc:type rdf:resource="http://purl.org/dc/dcmitype/StillImage"/>
    <dc:date>2025-07-25T22:44:01.840984</dc:date>
    <dc:format>image/svg+xml</dc:format>
    <dc:creator>
     <cc:Agent>
      <dc:title>Matplotlib v3.10.3, https://matplotlib.org/</dc:title>
     </cc:Agent>
    </dc:creator>
   </cc:Work>
  </rdf:RDF>
 </metadata>
 <defs>
  <style type="text/css">*{stroke-linejoin: round; stroke-linecap: butt}</style>
 </defs>
 <g id="figure_1">
  <g id="patch_1">
   <path d="M 0 817.804821 
L 576 817.804821 
L 576 0 
L 0 0 
L 0 817.804821 
z
" style="fill: none; opacity: 0"/>
  </g>
  <g id="axes_1">
   <g id="QuadContourSet_1">
    <path d="M 572.727273 165.335838 
L 576 167.15647 
L 576 166.565734 
L 572.727273 164.556604 
L 572.28033 164.217836 
L 569.454545 161.838385 
L 568.224202 160.933479 
L 566.181818 159.252876 
L 563.90276 157.649122 
L 562.909091 156.855662 
L 559.842948 157.649122 
L 559.636364 157.690822 
L 559.559847 157.649122 
L 556.363636 155.493347 
L 553.090909 154.866458 
L 552.309171 154.364765 
L 549.818182 152.939855 
L 546.545455 151.485726 
L 545.933868 151.080409 
L 543.272727 149.709473 
L 540.604466 147.796052 
L 540 147.305841 
L 536.82376 144.511695 
L 536.727273 144.42539 
L 533.454545 142.029101 
L 531.794342 141.227339 
L 530.181818 140.241592 
L 527.549637 141.227339 
L 526.909091 141.322596 
L 526.776427 141.227339 
L 523.636364 139.02878 
L 520.363636 137.945569 
L 520.360133 137.942982 
L 517.090909 136.269539 
L 513.943839 134.658625 
L 513.818182 134.575505 
L 510.545455 132.869098 
L 508.638294 131.374269 
L 507.272727 130.206393 
L 504.797982 128.089912 
L 504 127.407452 
L 500.957671 124.805555 
L 500.727273 124.608512 
L 497.454545 124.215998 
L 494.263757 124.805555 
L 494.181818 124.807657 
L 494.178904 124.805555 
L 490.909091 122.774853 
L 487.636364 121.588865 
L 487.54107 121.521198 
L 484.363636 119.949025 
L 481.090909 118.368154 
L 480.90484 118.236842 
L 477.818182 116.531231 
L 475.834872 114.952485 
L 474.545455 113.926089 
L 471.708876 111.668128 
L 471.272727 111.320947 
L 468 109.670348 
L 464.727273 108.823806 
L 461.454545 109.071886 
L 459.728234 108.383772 
L 458.181818 107.3777 
L 454.909091 106.400822 
L 452.040034 105.099415 
L 451.636364 104.839569 
L 448.363636 103.431798 
L 445.37805 101.815058 
L 445.090909 101.640992 
L 441.818182 99.30056 
L 440.737309 98.530701 
L 438.545455 97.000821 
L 436.103427 95.246345 
L 435.272727 94.661456 
L 432.475118 95.246345 
L 432 95.340177 
L 431.661453 95.246345 
L 428.727273 93.739898 
L 425.454545 93.104578 
L 422.647102 91.961988 
L 422.181818 91.642921 
L 418.909091 90.325237 
L 415.636364 88.949557 
L 415.269714 88.677631 
L 412.363636 87.00829 
L 410.310653 85.393275 
L 409.090909 84.433742 
L 406.135628 82.108918 
L 405.818182 81.859193 
L 402.545455 80.432115 
L 399.272727 79.662686 
L 396 79.61355 
L 393.135922 78.824561 
L 392.727273 78.604476 
L 389.454545 77.24823 
L 386.181818 75.974386 
L 385.462096 75.540204 
L 382.909091 74.416687 
L 379.636364 72.56204 
L 379.204007 72.255848 
L 376.363636 70.207399 
L 374.688001 68.971491 
L 373.090909 67.812439 
L 370.226036 65.687134 
L 369.818182 65.389352 
L 368.231831 65.687134 
L 366.545455 66.051278 
L 363.272727 65.755182 
L 363.17393 65.687134 
L 360 63.94904 
L 356.727273 62.967785 
L 355.759472 62.402778 
L 353.454545 61.381772 
L 350.181818 60.04896 
L 348.769541 59.118421 
L 346.909091 57.917495 
L 344.259879 55.834064 
L 343.636364 55.34371 
L 340.363636 53.193155 
L 338.765972 52.549707 
L 337.090909 51.896933 
L 335.140251 52.549707 
L 333.818182 52.758479 
L 333.508763 52.549707 
L 330.545455 50.519363 
L 327.272727 49.922064 
L 326.125243 49.265351 
L 324 48.147158 
L 320.727273 46.967583 
L 318.741723 45.980994 
L 317.454545 45.408428 
L 314.181818 43.380246 
L 313.217695 42.696637 
L 310.909091 40.981997 
L 308.831104 39.412281 
L 307.636364 38.521037 
L 304.481302 36.127924 
L 304.363636 36.039775 
L 303.852164 36.127924 
L 301.090909 36.864763 
L 297.818182 36.855025 
L 296.498675 36.127924 
L 294.545455 34.868485 
L 291.272727 33.896611 
L 289.08603 32.843567 
L 288 32.299085 
L 284.727273 30.912312 
L 282.643434 29.55921 
L 281.454545 28.69583 
L 278.377445 26.274854 
L 278.181818 26.12094 
L 274.909091 24.389396 
L 272.020683 22.990497 
L 271.636364 22.809176 
L 271.149386 22.990497 
L 268.363636 23.501953 
L 267.286127 22.990497 
L 265.090909 21.544837 
L 261.818182 20.843633 
L 259.399987 19.70614 
L 258.545455 19.182978 
L 255.272727 17.875461 
L 252 16.42508 
L 251.996109 16.421784 
L 248.727273 14.236678 
L 247.289542 13.137427 
L 245.454545 11.747628 
L 242.983791 9.85307 
L 242.181818 9.243834 
L 238.909091 8.604333 
L 235.636364 7.973774 
L 232.363636 7.595421 
L 229.96837 6.568713 
L 229.090909 5.971388 
L 225.818182 4.766727 
L 222.545455 3.319937 
L 222.494993 3.284357 
L 219.272727 1.808362 
L 216.777902 0 
L 216.01299 0 
L 219.272727 2.362804 
L 221.284582 3.284357 
L 222.545455 4.173405 
L 225.818182 5.306653 
L 228.647478 6.568713 
L 229.090909 6.953771 
L 232.363636 8.188987 
L 235.636364 9.409453 
L 236.502947 9.85307 
L 238.909091 10.632907 
L 242.181818 10.181804 
L 245.454545 12.438178 
L 246.377786 13.137427 
L 248.727273 14.933782 
L 250.953268 16.421784 
L 252 17.308635 
L 255.272727 18.420294 
L 258.171662 19.70614 
L 258.545455 20.037667 
L 261.818182 21.421424 
L 265.090909 22.581071 
L 265.712618 22.990497 
L 268.363636 24.248844 
L 271.636364 24.454525 
L 274.909091 25.944295 
L 275.631323 26.274854 
L 278.181818 27.24382 
L 281.454545 29.313336 
L 281.793119 29.55921 
L 284.727273 31.464448 
L 287.839883 32.843567 
L 288 32.991625 
L 291.272727 34.496715 
L 294.545455 35.672002 
L 295.252529 36.127924 
L 297.818182 37.541701 
L 301.090909 37.990336 
L 303.35234 39.412281 
L 304.363636 39.975407 
L 306.746754 39.412281 
L 307.636364 39.25706 
L 307.844442 39.412281 
L 310.909091 41.727323 
L 312.214182 42.696637 
L 314.181818 44.091785 
L 317.454545 45.962738 
L 317.495587 45.980994 
L 320.727273 47.586769 
L 324 48.80281 
L 324.879107 49.265351 
L 327.272727 50.635236 
L 330.545455 51.373167 
L 332.262627 52.549707 
L 333.818182 53.599276 
L 337.090909 53.325031 
L 340.363636 55.034563 
L 342.529372 55.834064 
L 343.636364 56.086745 
L 346.909091 58.54771 
L 347.793224 59.118421 
L 350.181818 60.692247 
L 353.454545 61.944249 
L 354.489677 62.402778 
L 356.727273 63.709098 
L 360 64.6444 
L 361.904135 65.687134 
L 363.272727 66.629765 
L 366.545455 66.968451 
L 369.378732 68.971491 
L 369.818182 69.339629 
L 371.25896 68.971491 
L 373.090909 68.622568 
L 373.5717 68.971491 
L 376.363636 71.030756 
L 378.062344 72.255848 
L 379.636364 73.370558 
L 382.909091 74.980492 
L 384.180943 75.540204 
L 386.181818 76.747259 
L 389.454545 77.830107 
L 391.644093 78.824561 
L 392.727273 79.609526 
L 396 80.34205 
L 399.107244 82.108918 
L 399.272727 82.259062 
L 402.545455 82.360077 
L 405.818182 83.479081 
L 409.090909 85.057553 
L 409.517674 85.393275 
L 412.363636 87.632101 
L 414.183751 88.677631 
L 415.636364 89.754962 
L 418.909091 90.881537 
L 421.331381 91.961988 
L 422.181818 92.620822 
L 425.454545 93.699852 
L 428.69466 95.246345 
L 428.727273 95.27774 
L 432 96.175257 
L 435.272727 96.394471 
L 438.545455 97.902869 
L 439.444947 98.530701 
L 441.818182 100.221053 
L 444.122535 101.815058 
L 445.090909 102.482399 
L 448.363636 104.002864 
L 450.78107 105.099415 
L 451.636364 105.730784 
L 454.909091 106.971889 
L 458.021701 108.383772 
L 458.181818 108.523969 
L 461.454545 109.778112 
L 464.727273 110.819822 
L 466.887784 111.668128 
L 468 111.914281 
L 471.272727 112.740812 
L 474.545455 114.586058 
L 475.005781 114.952485 
L 477.818182 117.1912 
L 479.710488 118.236842 
L 481.090909 119.211025 
L 484.363636 120.545079 
L 486.336419 121.521198 
L 487.636364 122.444261 
L 490.909091 123.522995 
L 492.974253 124.805555 
L 494.181818 125.676656 
L 497.454545 125.908694 
L 500.727273 127.676967 
L 504 128.077144 
L 504.014929 128.089912 
L 507.272727 130.876085 
L 507.85524 131.374269 
L 510.545455 133.482853 
L 512.778293 134.658625 
L 513.818182 135.448971 
L 517.090909 136.866157 
L 519.194587 137.942982 
L 520.363636 138.80625 
L 523.636364 139.844853 
L 525.610881 141.227339 
L 526.909091 142.159501 
L 530.181818 142.053699 
L 533.454545 143.694057 
L 534.633241 144.511695 
L 536.727273 145.712121 
L 539.515242 147.796052 
L 540 148.077864 
L 543.272727 150.297896 
L 544.791673 151.080409 
L 546.545455 152.242694 
L 549.818182 153.59322 
L 551.166977 154.364765 
L 553.090909 155.599478 
L 556.363636 156.554306 
L 557.986841 157.649122 
L 559.636364 158.548078 
L 562.909091 158.435662 
L 566.181818 160.221388 
L 567.047199 160.933479 
L 569.454545 162.704059 
L 571.252274 164.217836 
z
" clip-path="url(#p2f8bda8df5)" style="fill: #f5f9fe; fill-opacity: 0.9"/>
    <path d="M 572.727273 164.556604 
L 576 166.565734 
L 576 165.974998 
L 573.249882 164.217836 
L 572.727273 163.782202 
L 569.454545 160.972711 
L 569.401204 160.933479 
L 566.181818 158.284363 
L 565.279092 157.649122 
L 562.909091 155.75664 
L 560.810632 154.364765 
L 559.636364 153.464591 
L 556.633682 154.364765 
L 556.363636 154.432387 
L 555.813725 154.364765 
L 553.090909 153.621451 
L 549.818182 152.28649 
L 547.20347 151.080409 
L 546.545455 150.621619 
L 543.272727 149.12105 
L 541.42502 147.796052 
L 540 146.640386 
L 537.580215 144.511695 
L 536.727273 143.748761 
L 533.854259 141.227339 
L 533.454545 140.822501 
L 530.181818 138.134041 
L 529.629292 137.942982 
L 526.909091 136.663963 
L 525.028807 137.942982 
L 523.636364 138.212706 
L 522.821541 137.942982 
L 520.363636 136.550169 
L 517.090909 135.672922 
L 515.109386 134.658625 
L 513.818182 133.804516 
L 510.545455 132.255342 
L 509.421347 131.374269 
L 507.272727 129.536701 
L 505.581035 128.089912 
L 504 126.73776 
L 501.740724 124.805555 
L 500.727273 123.938819 
L 497.900412 121.521198 
L 497.454545 121.083619 
L 494.181818 120.343354 
L 493.808828 121.521198 
L 490.909091 122.02671 
L 489.524043 121.521198 
L 487.636364 120.359643 
L 484.363636 119.352972 
L 482.107886 118.236842 
L 481.090909 117.591594 
L 477.818182 115.871262 
L 476.663963 114.952485 
L 474.545455 113.26612 
L 472.537967 111.668128 
L 471.272727 110.660977 
L 468.411972 108.383772 
L 468 108.003267 
L 464.727273 106.43204 
L 461.454545 108.040081 
L 458.181818 106.225031 
L 454.909091 105.829755 
L 453.298997 105.099415 
L 451.636364 104.029163 
L 448.363636 102.860731 
L 446.432623 101.815058 
L 445.090909 101.001707 
L 441.951113 98.530701 
L 441.818182 98.39844 
L 438.545455 96.098772 
L 437.358974 95.246345 
L 435.272727 93.777436 
L 432.765718 91.961988 
L 432 91.418359 
L 429.356634 91.961988 
L 428.727273 92.193002 
L 425.454545 92.509305 
L 424.109741 91.961988 
L 422.181818 90.639918 
L 418.909091 89.768938 
L 416.462463 88.677631 
L 415.636364 88.186095 
L 412.363636 86.38448 
L 411.103632 85.393275 
L 409.090909 83.809931 
L 406.928607 82.108918 
L 405.818182 81.235382 
L 402.753582 78.824561 
L 402.545455 78.621381 
L 399.272727 77.363319 
L 396.346313 78.824561 
L 396 78.88505 
L 395.780422 78.824561 
L 392.727273 77.180232 
L 389.454545 76.666353 
L 386.786043 75.540204 
L 386.181818 75.12206 
L 382.909091 73.852882 
L 380.225068 72.255848 
L 379.636364 71.822456 
L 376.363636 69.384043 
L 375.804302 68.971491 
L 373.090909 67.00231 
L 371.318076 65.687134 
L 369.818182 64.592032 
L 366.883475 62.402778 
L 366.545455 62.154544 
L 365.204019 62.402778 
L 363.272727 63.488384 
L 360 63.25368 
L 357.259837 62.402778 
L 356.727273 62.092787 
L 353.454545 60.819295 
L 350.181818 59.405672 
L 349.745858 59.118421 
L 346.909091 57.28728 
L 345.061236 55.834064 
L 343.636364 54.713495 
L 340.884973 52.549707 
L 340.363636 52.107355 
L 337.090909 50.115152 
L 335.079334 49.265351 
L 333.818182 48.749409 
L 332.543554 49.265351 
L 330.545455 49.665559 
L 327.745601 49.265351 
L 327.272727 49.104426 
L 324 47.491506 
L 320.727273 46.348397 
L 319.987859 45.980994 
L 317.454545 44.854119 
L 314.214494 42.696637 
L 314.181818 42.666613 
L 310.909091 40.23667 
L 309.817766 39.412281 
L 307.636364 37.785013 
L 305.45167 36.127924 
L 304.363636 35.312825 
L 301.121101 32.843567 
L 301.090909 32.819501 
L 300.957515 32.843567 
L 298.294794 36.127924 
L 297.818182 36.168348 
L 297.744822 36.127924 
L 294.545455 34.064969 
L 291.272727 33.296506 
L 290.332176 32.843567 
L 288 31.674328 
L 284.727273 30.360175 
L 283.49375 29.55921 
L 281.454545 28.078324 
L 279.162305 26.274854 
L 278.181818 25.503434 
L 274.987834 22.990497 
L 274.909091 22.916551 
L 271.636364 21.294462 
L 268.427886 19.70614 
L 268.363636 19.675054 
L 268.277239 19.70614 
L 265.090909 20.508603 
L 261.818182 20.265842 
L 260.628312 19.70614 
L 258.545455 18.430973 
L 255.272727 17.330628 
L 253.223742 16.421784 
L 252 15.82192 
L 248.727273 13.539574 
L 248.201297 13.137427 
L 245.454545 11.057079 
L 243.884359 9.85307 
L 242.181818 8.559698 
L 239.592735 6.568713 
L 238.909091 6.047834 
L 235.636364 6.381913 
L 235.543434 6.568713 
L 232.363636 7.001855 
L 231.353135 6.568713 
L 229.090909 5.028719 
L 225.818182 4.2268 
L 223.705405 3.284357 
L 222.545455 2.611905 
L 219.272727 1.253919 
L 217.542814 0 
L 216.777902 0 
L 219.272727 1.808362 
L 222.494993 3.284357 
L 222.545455 3.319937 
L 225.818182 4.766727 
L 229.090909 5.971388 
L 229.96837 6.568713 
L 232.363636 7.595421 
L 235.636364 7.973774 
L 238.909091 8.604333 
L 242.181818 9.243834 
L 242.983791 9.85307 
L 245.454545 11.747628 
L 247.289542 13.137427 
L 248.727273 14.236678 
L 251.996109 16.421784 
L 252 16.42508 
L 255.272727 17.875461 
L 258.545455 19.182978 
L 259.399987 19.70614 
L 261.818182 20.843633 
L 265.090909 21.544837 
L 267.286127 22.990497 
L 268.363636 23.501953 
L 271.149386 22.990497 
L 271.636364 22.809176 
L 272.020683 22.990497 
L 274.909091 24.389396 
L 278.181818 26.12094 
L 278.377445 26.274854 
L 281.454545 28.69583 
L 282.643434 29.55921 
L 284.727273 30.912312 
L 288 32.299085 
L 289.08603 32.843567 
L 291.272727 33.896611 
L 294.545455 34.868485 
L 296.498675 36.127924 
L 297.818182 36.855025 
L 301.090909 36.864763 
L 303.852164 36.127924 
L 304.363636 36.039775 
L 304.481302 36.127924 
L 307.636364 38.521037 
L 308.831104 39.412281 
L 310.909091 40.981997 
L 313.217695 42.696637 
L 314.181818 43.380246 
L 317.454545 45.408428 
L 318.741723 45.980994 
L 320.727273 46.967583 
L 324 48.147158 
L 326.125243 49.265351 
L 327.272727 49.922064 
L 330.545455 50.519363 
L 333.508763 52.549707 
L 333.818182 52.758479 
L 335.140251 52.549707 
L 337.090909 51.896933 
L 338.765972 52.549707 
L 340.363636 53.193155 
L 343.636364 55.34371 
L 344.259879 55.834064 
L 346.909091 57.917495 
L 348.769541 59.118421 
L 350.181818 60.04896 
L 353.454545 61.381772 
L 355.759472 62.402778 
L 356.727273 62.967785 
L 360 63.94904 
L 363.17393 65.687134 
L 363.272727 65.755182 
L 366.545455 66.051278 
L 368.231831 65.687134 
L 369.818182 65.389352 
L 370.226036 65.687134 
L 373.090909 67.812439 
L 374.688001 68.971491 
L 376.363636 70.207399 
L 379.204007 72.255848 
L 379.636364 72.56204 
L 382.909091 74.416687 
L 385.462096 75.540204 
L 386.181818 75.974386 
L 389.454545 77.24823 
L 392.727273 78.604476 
L 393.135922 78.824561 
L 396 79.61355 
L 399.272727 79.662686 
L 402.545455 80.432115 
L 405.818182 81.859193 
L 406.135628 82.108918 
L 409.090909 84.433742 
L 410.310653 85.393275 
L 412.363636 87.00829 
L 415.269714 88.677631 
L 415.636364 88.949557 
L 418.909091 90.325237 
L 422.181818 91.642921 
L 422.647102 91.961988 
L 425.454545 93.104578 
L 428.727273 93.739898 
L 431.661453 95.246345 
L 432 95.340177 
L 432.475118 95.246345 
L 435.272727 94.661456 
L 436.103427 95.246345 
L 438.545455 97.000821 
L 440.737309 98.530701 
L 441.818182 99.30056 
L 445.090909 101.640992 
L 445.37805 101.815058 
L 448.363636 103.431798 
L 451.636364 104.839569 
L 452.040034 105.099415 
L 454.909091 106.400822 
L 458.181818 107.3777 
L 459.728234 108.383772 
L 461.454545 109.071886 
L 464.727273 108.823806 
L 468 109.670348 
L 471.272727 111.320947 
L 471.708876 111.668128 
L 474.545455 113.926089 
L 475.834872 114.952485 
L 477.818182 116.531231 
L 480.90484 118.236842 
L 481.090909 118.368154 
L 484.363636 119.949025 
L 487.54107 121.521198 
L 487.636364 121.588865 
L 490.909091 122.774853 
L 494.178904 124.805555 
L 494.181818 124.807657 
L 494.263757 124.805555 
L 497.454545 124.215998 
L 500.727273 124.608512 
L 500.957671 124.805555 
L 504 127.407452 
L 504.797982 128.089912 
L 507.272727 130.206393 
L 508.638294 131.374269 
L 510.545455 132.869098 
L 513.818182 134.575505 
L 513.943839 134.658625 
L 517.090909 136.269539 
L 520.360133 137.942982 
L 520.363636 137.945569 
L 523.636364 139.02878 
L 526.776427 141.227339 
L 526.909091 141.322596 
L 527.549637 141.227339 
L 530.181818 140.241592 
L 531.794342 141.227339 
L 533.454545 142.029101 
L 536.727273 144.42539 
L 536.82376 144.511695 
L 540 147.305841 
L 540.604466 147.796052 
L 543.272727 149.709473 
L 545.933868 151.080409 
L 546.545455 151.485726 
L 549.818182 152.939855 
L 552.309171 154.364765 
L 553.090909 154.866458 
L 556.363636 155.493347 
L 559.559847 157.649122 
L 559.636364 157.690822 
L 559.842948 157.649122 
L 562.909091 156.855662 
L 563.90276 157.649122 
L 566.181818 159.252876 
L 568.224202 160.933479 
L 569.454545 161.838385 
L 572.28033 164.217836 
z
" clip-path="url(#p2f8bda8df5)" style="fill: #eff6fc; fill-opacity: 0.9"/>
    <path d="M 576 165.974998 
L 576 165.384262 
L 574.174437 164.217836 
L 572.727273 163.011516 
L 570.310307 160.933479 
L 569.454545 160.066112 
L 566.556657 157.649122 
L 566.181818 157.268383 
L 562.909091 154.657618 
L 562.467571 154.364765 
L 559.636364 152.19441 
L 557.811004 151.080409 
L 556.363636 150.03415 
L 553.424117 151.080409 
L 553.090909 151.266082 
L 549.818182 151.633126 
L 548.619925 151.080409 
L 546.545455 149.63402 
L 543.272727 148.532627 
L 542.245575 147.796052 
L 540 145.974931 
L 538.336669 144.511695 
L 536.727273 143.072132 
L 534.625238 141.227339 
L 533.454545 140.041637 
L 531.009197 137.942982 
L 530.181818 137.1036 
L 527.242292 134.658625 
L 526.909091 134.319778 
L 523.636364 132.75675 
L 521.851035 134.658625 
L 520.363636 135.153157 
L 517.090909 135.076305 
L 516.274933 134.658625 
L 513.818182 133.033527 
L 510.545455 131.641586 
L 510.2044 131.374269 
L 507.272727 128.867008 
L 506.364089 128.089912 
L 504 126.068068 
L 502.523777 124.805555 
L 500.727273 123.269127 
L 498.683466 121.521198 
L 497.454545 120.31512 
L 494.960657 118.236842 
L 494.181818 117.446599 
L 490.909091 117.053694 
L 490.557818 118.236842 
L 487.636364 119.098309 
L 484.363636 118.756919 
L 483.312536 118.236842 
L 481.090909 116.827272 
L 477.818182 115.211292 
L 477.493053 114.952485 
L 474.545455 112.60615 
L 473.367058 111.668128 
L 471.272727 110.001008 
L 469.241063 108.383772 
L 468 107.237505 
L 465.196857 105.099415 
L 464.727273 104.622942 
L 461.454545 103.189082 
L 458.181818 104.78073 
L 457.927784 105.099415 
L 454.909091 105.258688 
L 454.55796 105.099415 
L 451.636364 103.218758 
L 448.363636 102.289664 
L 447.487195 101.815058 
L 445.090909 100.362421 
L 442.763425 98.530701 
L 441.818182 97.590223 
L 438.606377 95.246345 
L 438.545455 95.18465 
L 435.272727 92.893415 
L 433.98649 91.961988 
L 432 90.551661 
L 429.431512 88.677631 
L 428.727273 88.114737 
L 426.237124 88.677631 
L 425.454545 90.970539 
L 422.181818 89.636916 
L 418.909091 89.212639 
L 417.709644 88.677631 
L 415.636364 87.444012 
L 412.363636 85.760669 
L 411.89661 85.393275 
L 409.090909 83.18612 
L 407.721586 82.108918 
L 405.818182 80.611571 
L 403.546561 78.824561 
L 402.545455 77.847251 
L 399.404073 75.540204 
L 399.272727 75.407687 
L 396 74.274955 
L 393.357757 75.540204 
L 392.727273 75.755989 
L 389.454545 76.084476 
L 388.164849 75.540204 
L 386.181818 74.16788 
L 382.909091 73.289076 
L 381.172616 72.255848 
L 379.636364 71.124892 
L 376.818992 68.971491 
L 376.363636 68.513591 
L 373.090909 66.19218 
L 372.410116 65.687134 
L 369.818182 63.794712 
L 367.952286 62.402778 
L 366.545455 61.369635 
L 363.543822 59.118421 
L 363.272727 58.863738 
L 362.174943 59.118421 
L 360.952758 62.402778 
L 360 62.55832 
L 359.499106 62.402778 
L 356.727273 60.789373 
L 353.454545 60.256819 
L 350.884604 59.118421 
L 350.181818 58.622047 
L 346.909091 56.657065 
L 345.862594 55.834064 
L 343.636364 54.08328 
L 341.686331 52.549707 
L 340.363636 51.427406 
L 337.553218 49.265351 
L 337.090909 48.801489 
L 333.818182 47.023944 
L 331.452377 45.980994 
L 330.545455 45.59344 
L 329.558388 45.980994 
L 327.272727 47.071676 
L 324 46.835854 
L 321.505308 45.980994 
L 320.727273 45.50029 
L 317.454545 44.299809 
L 315.046942 42.696637 
L 314.181818 41.90171 
L 310.909091 39.491343 
L 310.804428 39.412281 
L 307.636364 37.04899 
L 306.422038 36.127924 
L 304.363636 34.585875 
L 302.075703 32.843567 
L 301.090909 32.058574 
L 297.818182 30.166545 
L 296.739543 32.843567 
L 294.545455 33.261452 
L 292.321436 32.843567 
L 291.272727 32.409371 
L 288 31.049571 
L 284.727273 29.808039 
L 284.344065 29.55921 
L 281.454545 27.460818 
L 279.947166 26.274854 
L 278.181818 24.885928 
L 275.772694 22.990497 
L 274.909091 22.179504 
L 271.636364 19.779749 
L 271.48767 19.70614 
L 268.363636 18.194626 
L 265.090909 17.263271 
L 261.818182 19.591298 
L 258.545455 17.678968 
L 255.272727 16.785794 
L 254.452066 16.421784 
L 252 15.21981 
L 249.084019 13.137427 
L 248.727273 12.780366 
L 245.454545 10.366529 
L 244.784927 9.85307 
L 242.181818 7.875562 
L 240.482388 6.568713 
L 238.909091 5.369994 
L 236.204514 3.284357 
L 235.636364 2.77722 
L 232.800961 3.284357 
L 232.363636 4.169379 
L 229.090909 4.08605 
L 225.818182 3.686873 
L 224.915817 3.284357 
L 222.545455 1.9102 
L 219.272727 0.699477 
L 218.307726 0 
L 217.542814 0 
L 219.272727 1.253919 
L 222.545455 2.611905 
L 223.705405 3.284357 
L 225.818182 4.2268 
L 229.090909 5.028719 
L 231.353135 6.568713 
L 232.363636 7.001855 
L 235.543434 6.568713 
L 235.636364 6.381913 
L 238.909091 6.047834 
L 239.592735 6.568713 
L 242.181818 8.559698 
L 243.884359 9.85307 
L 245.454545 11.057079 
L 248.201297 13.137427 
L 248.727273 13.539574 
L 252 15.82192 
L 253.223742 16.421784 
L 255.272727 17.330628 
L 258.545455 18.430973 
L 260.628312 19.70614 
L 261.818182 20.265842 
L 265.090909 20.508603 
L 268.277239 19.70614 
L 268.363636 19.675054 
L 268.427886 19.70614 
L 271.636364 21.294462 
L 274.909091 22.916551 
L 274.987834 22.990497 
L 278.181818 25.503434 
L 279.162305 26.274854 
L 281.454545 28.078324 
L 283.49375 29.55921 
L 284.727273 30.360175 
L 288 31.674328 
L 290.332176 32.843567 
L 291.272727 33.296506 
L 294.545455 34.064969 
L 297.744822 36.127924 
L 297.818182 36.168348 
L 298.294794 36.127924 
L 300.957515 32.843567 
L 301.090909 32.819501 
L 301.121101 32.843567 
L 304.363636 35.312825 
L 305.45167 36.127924 
L 307.636364 37.785013 
L 309.817766 39.412281 
L 310.909091 40.23667 
L 314.181818 42.666613 
L 314.214494 42.696637 
L 317.454545 44.854119 
L 319.987859 45.980994 
L 320.727273 46.348397 
L 324 47.491506 
L 327.272727 49.104426 
L 327.745601 49.265351 
L 330.545455 49.665559 
L 332.543554 49.265351 
L 333.818182 48.749409 
L 335.079334 49.265351 
L 337.090909 50.115152 
L 340.363636 52.107355 
L 340.884973 52.549707 
L 343.636364 54.713495 
L 345.061236 55.834064 
L 346.909091 57.28728 
L 349.745858 59.118421 
L 350.181818 59.405672 
L 353.454545 60.819295 
L 356.727273 62.092787 
L 357.259837 62.402778 
L 360 63.25368 
L 363.272727 63.488384 
L 365.204019 62.402778 
L 366.545455 62.154544 
L 366.883475 62.402778 
L 369.818182 64.592032 
L 371.318076 65.687134 
L 373.090909 67.00231 
L 375.804302 68.971491 
L 376.363636 69.384043 
L 379.636364 71.822456 
L 380.225068 72.255848 
L 382.909091 73.852882 
L 386.181818 75.12206 
L 386.786043 75.540204 
L 389.454545 76.666353 
L 392.727273 77.180232 
L 395.780422 78.824561 
L 396 78.88505 
L 396.346313 78.824561 
L 399.272727 77.363319 
L 402.545455 78.621381 
L 402.753582 78.824561 
L 405.818182 81.235382 
L 406.928607 82.108918 
L 409.090909 83.809931 
L 411.103632 85.393275 
L 412.363636 86.38448 
L 415.636364 88.186095 
L 416.462463 88.677631 
L 418.909091 89.768938 
L 422.181818 90.639918 
L 424.109741 91.961988 
L 425.454545 92.509305 
L 428.727273 92.193002 
L 429.356634 91.961988 
L 432 91.418359 
L 432.765718 91.961988 
L 435.272727 93.777436 
L 437.358974 95.246345 
L 438.545455 96.098772 
L 441.818182 98.39844 
L 441.951113 98.530701 
L 445.090909 101.001707 
L 446.432623 101.815058 
L 448.363636 102.860731 
L 451.636364 104.029163 
L 453.298997 105.099415 
L 454.909091 105.829755 
L 458.181818 106.225031 
L 461.454545 108.040081 
L 464.727273 106.43204 
L 468 108.003267 
L 468.411972 108.383772 
L 471.272727 110.660977 
L 472.537967 111.668128 
L 474.545455 113.26612 
L 476.663963 114.952485 
L 477.818182 115.871262 
L 481.090909 117.591594 
L 482.107886 118.236842 
L 484.363636 119.352972 
L 487.636364 120.359643 
L 489.524043 121.521198 
L 490.909091 122.02671 
L 493.808828 121.521198 
L 494.181818 120.343354 
L 497.454545 121.083619 
L 497.900412 121.521198 
L 500.727273 123.938819 
L 501.740724 124.805555 
L 504 126.73776 
L 505.581035 128.089912 
L 507.272727 129.536701 
L 509.421347 131.374269 
L 510.545455 132.255342 
L 513.818182 133.804516 
L 515.109386 134.658625 
L 517.090909 135.672922 
L 520.363636 136.550169 
L 522.821541 137.942982 
L 523.636364 138.212706 
L 525.028807 137.942982 
L 526.909091 136.663963 
L 529.629292 137.942982 
L 530.181818 138.134041 
L 533.454545 140.822501 
L 533.854259 141.227339 
L 536.727273 143.748761 
L 537.580215 144.511695 
L 540 146.640386 
L 541.42502 147.796052 
L 543.272727 149.12105 
L 546.545455 150.621619 
L 547.20347 151.080409 
L 549.818182 152.28649 
L 553.090909 153.621451 
L 555.813725 154.364765 
L 556.363636 154.432387 
L 556.633682 154.364765 
L 559.636364 153.464591 
L 560.810632 154.364765 
L 562.909091 155.75664 
L 565.279092 157.649122 
L 566.181818 158.284363 
L 569.401204 160.933479 
L 569.454545 160.972711 
L 572.727273 163.782202 
L 573.249882 164.217836 
z
" clip-path="url(#p2f8bda8df5)" style="fill: #eaf3fb; fill-opacity: 0.9"/>
    <path d="M 576 165.384262 
L 576 164.793526 
L 575.098993 164.217836 
L 572.727273 162.240831 
L 571.206691 160.933479 
L 569.454545 159.157571 
L 567.645967 157.649122 
L 566.181818 156.161925 
L 563.927275 154.364765 
L 562.909091 153.327097 
L 559.871534 151.080409 
L 559.636364 150.839324 
L 556.363636 148.529662 
L 554.999409 147.796052 
L 553.090909 146.537623 
L 550.214256 147.796052 
L 549.818182 149.040064 
L 546.545455 148.646421 
L 543.272727 147.944204 
L 543.06613 147.796052 
L 540 145.309477 
L 539.093124 144.511695 
L 536.727273 142.395503 
L 535.396218 141.227339 
L 533.454545 139.260773 
L 531.919058 137.942982 
L 530.181818 136.180538 
L 528.352064 134.658625 
L 526.909091 133.191198 
L 524.619348 131.374269 
L 523.636364 130.370855 
L 520.526045 128.089912 
L 520.363636 127.923004 
L 519.980069 128.089912 
L 518.67276 131.374269 
L 517.090909 133.204452 
L 513.818182 132.262537 
L 511.621617 131.374269 
L 510.545455 130.579655 
L 507.272727 128.197316 
L 507.147142 128.089912 
L 504 125.398376 
L 503.30683 124.805555 
L 500.727273 122.599435 
L 499.466519 121.521198 
L 497.454545 119.546621 
L 495.882838 118.236842 
L 494.181818 116.510914 
L 492.018516 114.952485 
L 490.909091 113.821711 
L 487.636364 113.837712 
L 487.30649 114.952485 
L 484.363636 117.724893 
L 481.090909 116.06295 
L 478.783534 114.952485 
L 477.818182 114.128648 
L 474.545455 111.946181 
L 474.196149 111.668128 
L 471.272727 109.341039 
L 470.070153 108.383772 
L 468 106.471742 
L 466.20081 105.099415 
L 464.727273 103.60426 
L 462.108466 101.815058 
L 461.454545 101.147958 
L 458.181818 99.944304 
L 454.909091 101.522048 
L 454.816586 101.815058 
L 451.636364 102.408352 
L 448.97718 101.815058 
L 448.363636 101.523561 
L 445.090909 99.723135 
L 443.575737 98.530701 
L 441.818182 96.782006 
L 439.713873 95.246345 
L 438.545455 94.06312 
L 435.272727 92.009395 
L 435.207261 91.961988 
L 432 89.684963 
L 430.619382 88.677631 
L 428.727273 87.165278 
L 426.208313 85.393275 
L 425.454545 84.628436 
L 423.109462 85.393275 
L 422.181818 88.136415 
L 418.909091 88.555785 
L 415.636364 86.701928 
L 412.982275 85.393275 
L 412.363636 84.828746 
L 409.090909 82.562309 
L 408.514565 82.108918 
L 405.818182 79.987761 
L 404.33954 78.824561 
L 402.545455 77.073121 
L 400.458164 75.540204 
L 399.272727 74.344191 
L 396 72.282256 
L 395.925413 72.255848 
L 392.727273 71.170366 
L 390.367916 72.255848 
L 389.454545 74.794411 
L 386.181818 73.2137 
L 382.909091 72.725271 
L 382.120164 72.255848 
L 379.636364 70.427328 
L 377.731641 68.971491 
L 376.363636 67.595843 
L 373.592653 65.687134 
L 373.090909 65.182116 
L 369.818182 62.997392 
L 369.021097 62.402778 
L 366.545455 60.584726 
L 364.590373 59.118421 
L 363.272727 57.880544 
L 360.289272 55.834064 
L 360 55.542839 
L 359.144716 55.834064 
L 357.927686 59.118421 
L 356.727273 59.485959 
L 353.454545 59.694342 
L 352.154399 59.118421 
L 350.181818 57.725197 
L 346.909091 56.02685 
L 346.663951 55.834064 
L 343.636364 53.453065 
L 342.487688 52.549707 
L 340.363636 50.747458 
L 338.437071 49.265351 
L 337.090909 47.914668 
L 334.320719 45.980994 
L 333.818182 45.476813 
L 330.545455 43.920875 
L 327.873003 42.696637 
L 327.272727 42.429833 
L 326.572836 42.696637 
L 325.295959 45.980994 
L 324 46.180202 
L 323.418661 45.980994 
L 320.727273 44.318138 
L 317.454545 43.7455 
L 315.87939 42.696637 
L 314.181818 41.136807 
L 311.838287 39.412281 
L 310.909091 38.481989 
L 307.636364 36.312966 
L 307.392405 36.127924 
L 304.363636 33.858926 
L 303.030306 32.843567 
L 301.090909 31.297647 
L 298.773637 29.55921 
L 297.818182 28.602604 
L 294.545455 27.820732 
L 293.845049 29.55921 
L 291.272727 30.638824 
L 288 30.424814 
L 285.656457 29.55921 
L 284.727273 28.930928 
L 281.454545 26.843312 
L 280.732026 26.274854 
L 278.181818 24.268422 
L 276.557554 22.990497 
L 274.909091 21.442457 
L 272.577857 19.70614 
L 271.636364 18.765183 
L 268.363636 16.714197 
L 267.786371 16.421784 
L 265.090909 15.086621 
L 261.818182 14.992215 
L 261.26726 16.421784 
L 258.545455 16.926963 
L 256.354937 16.421784 
L 255.272727 15.901056 
L 252 14.6177 
L 249.92716 13.137427 
L 248.727273 11.936484 
L 245.762508 9.85307 
L 245.454545 9.545185 
L 242.181818 7.191427 
L 241.37204 6.568713 
L 238.909091 4.692153 
L 237.083512 3.284357 
L 235.636364 1.992618 
L 232.923646 0 
L 232.363636 0 
L 230.063759 0 
L 229.090909 1.961582 
L 225.818182 2.602395 
L 222.545455 1.208495 
L 219.272727 0.145034 
L 219.072638 0 
L 218.307726 0 
L 219.272727 0.699477 
L 222.545455 1.9102 
L 224.915817 3.284357 
L 225.818182 3.686873 
L 229.090909 4.08605 
L 232.363636 4.169379 
L 232.800961 3.284357 
L 235.636364 2.77722 
L 236.204514 3.284357 
L 238.909091 5.369994 
L 240.482388 6.568713 
L 242.181818 7.875562 
L 244.784927 9.85307 
L 245.454545 10.366529 
L 248.727273 12.780366 
L 249.084019 13.137427 
L 252 15.21981 
L 254.452066 16.421784 
L 255.272727 16.785794 
L 258.545455 17.678968 
L 261.818182 19.591298 
L 265.090909 17.263271 
L 268.363636 18.194626 
L 271.48767 19.70614 
L 271.636364 19.779749 
L 274.909091 22.179504 
L 275.772694 22.990497 
L 278.181818 24.885928 
L 279.947166 26.274854 
L 281.454545 27.460818 
L 284.344065 29.55921 
L 284.727273 29.808039 
L 288 31.049571 
L 291.272727 32.409371 
L 292.321436 32.843567 
L 294.545455 33.261452 
L 296.739543 32.843567 
L 297.818182 30.166545 
L 301.090909 32.058574 
L 302.075703 32.843567 
L 304.363636 34.585875 
L 306.422038 36.127924 
L 307.636364 37.04899 
L 310.804428 39.412281 
L 310.909091 39.491343 
L 314.181818 41.90171 
L 315.046942 42.696637 
L 317.454545 44.299809 
L 320.727273 45.50029 
L 321.505308 45.980994 
L 324 46.835854 
L 327.272727 47.071676 
L 329.558388 45.980994 
L 330.545455 45.59344 
L 331.452377 45.980994 
L 333.818182 47.023944 
L 337.090909 48.801489 
L 337.553218 49.265351 
L 340.363636 51.427406 
L 341.686331 52.549707 
L 343.636364 54.08328 
L 345.862594 55.834064 
L 346.909091 56.657065 
L 350.181818 58.622047 
L 350.884604 59.118421 
L 353.454545 60.256819 
L 356.727273 60.789373 
L 359.499106 62.402778 
L 360 62.55832 
L 360.952758 62.402778 
L 362.174943 59.118421 
L 363.272727 58.863738 
L 363.543822 59.118421 
L 366.545455 61.369635 
L 367.952286 62.402778 
L 369.818182 63.794712 
L 372.410116 65.687134 
L 373.090909 66.19218 
L 376.363636 68.513591 
L 376.818992 68.971491 
L 379.636364 71.124892 
L 381.172616 72.255848 
L 382.909091 73.289076 
L 386.181818 74.16788 
L 388.164849 75.540204 
L 389.454545 76.084476 
L 392.727273 75.755989 
L 393.357757 75.540204 
L 396 74.274955 
L 399.272727 75.407687 
L 399.404073 75.540204 
L 402.545455 77.847251 
L 403.546561 78.824561 
L 405.818182 80.611571 
L 407.721586 82.108918 
L 409.090909 83.18612 
L 411.89661 85.393275 
L 412.363636 85.760669 
L 415.636364 87.444012 
L 417.709644 88.677631 
L 418.909091 89.212639 
L 422.181818 89.636916 
L 425.454545 90.970539 
L 426.237124 88.677631 
L 428.727273 88.114737 
L 429.431512 88.677631 
L 432 90.551661 
L 433.98649 91.961988 
L 435.272727 92.893415 
L 438.545455 95.18465 
L 438.606377 95.246345 
L 441.818182 97.590223 
L 442.763425 98.530701 
L 445.090909 100.362421 
L 447.487195 101.815058 
L 448.363636 102.289664 
L 451.636364 103.218758 
L 454.55796 105.099415 
L 454.909091 105.258688 
L 457.927784 105.099415 
L 458.181818 104.78073 
L 461.454545 103.189082 
L 464.727273 104.622942 
L 465.196857 105.099415 
L 468 107.237505 
L 469.241063 108.383772 
L 471.272727 110.001008 
L 473.367058 111.668128 
L 474.545455 112.60615 
L 477.493053 114.952485 
L 477.818182 115.211292 
L 481.090909 116.827272 
L 483.312536 118.236842 
L 484.363636 118.756919 
L 487.636364 119.098309 
L 490.557818 118.236842 
L 490.909091 117.053694 
L 494.181818 117.446599 
L 494.960657 118.236842 
L 497.454545 120.31512 
L 498.683466 121.521198 
L 500.727273 123.269127 
L 502.523777 124.805555 
L 504 126.068068 
L 506.364089 128.089912 
L 507.272727 128.867008 
L 510.2044 131.374269 
L 510.545455 131.641586 
L 513.818182 133.033527 
L 516.274933 134.658625 
L 517.090909 135.076305 
L 520.363636 135.153157 
L 521.851035 134.658625 
L 523.636364 132.75675 
L 526.909091 134.319778 
L 527.242292 134.658625 
L 530.181818 137.1036 
L 531.009197 137.942982 
L 533.454545 140.041637 
L 534.625238 141.227339 
L 536.727273 143.072132 
L 538.336669 144.511695 
L 540 145.974931 
L 542.245575 147.796052 
L 543.272727 148.532627 
L 546.545455 149.63402 
L 548.619925 151.080409 
L 549.818182 151.633126 
L 553.090909 151.266082 
L 553.424117 151.080409 
L 556.363636 150.03415 
L 557.811004 151.080409 
L 559.636364 152.19441 
L 562.467571 154.364765 
L 562.909091 154.657618 
L 566.181818 157.268383 
L 566.556657 157.649122 
L 569.454545 160.066112 
L 570.310307 160.933479 
L 572.727273 163.011516 
L 574.174437 164.217836 
z
M 576 16.422653 
L 576 16.421784 
L 576 13.137427 
L 576 9.85307 
L 576 6.568713 
L 576 3.284357 
L 576 0 
L 572.727273 0 
L 569.454545 0 
L 566.181818 0 
L 562.909091 0 
L 559.636364 0 
L 556.363636 0 
L 553.090909 0 
L 549.818182 0 
L 546.545455 0 
L 543.272727 0 
L 540.289633 0 
L 543.272727 1.865384 
L 545.464833 3.284357 
L 546.545455 3.968854 
L 549.818182 5.705164 
L 551.055275 6.568713 
L 553.090909 7.619068 
L 555.963378 9.85307 
L 556.363636 10.099967 
L 559.636364 10.790948 
L 562.909091 11.358546 
L 566.181818 12.35357 
L 567.607299 13.137427 
L 569.454545 14.203565 
L 572.727273 15.672637 
L 575.996393 16.421784 
z
" clip-path="url(#p2f8bda8df5)" style="fill: #e5eff9; fill-opacity: 0.9"/>
    <path d="M 576 164.793526 
L 576 164.217836 
L 576 164.083783 
L 572.727273 161.470145 
L 572.103076 160.933479 
L 569.454545 158.24903 
L 568.735277 157.649122 
L 566.181818 155.055468 
L 565.31533 154.364765 
L 562.909091 151.912481 
L 561.784117 151.080409 
L 559.636364 148.878636 
L 557.938883 147.796052 
L 556.363636 146.159795 
L 553.090909 144.692832 
L 552.671986 144.511695 
L 549.818182 142.699206 
L 547.0041 144.511695 
L 546.545455 145.955616 
L 543.272727 146.124178 
L 540 144.644022 
L 539.849578 144.511695 
L 536.727273 141.718873 
L 536.167198 141.227339 
L 533.454545 138.479909 
L 532.828919 137.942982 
L 530.181818 135.257476 
L 529.461836 134.658625 
L 526.909091 132.062618 
L 526.041614 131.374269 
L 523.636364 128.919029 
L 522.505771 128.089912 
L 520.363636 125.888442 
L 517.807994 124.805555 
L 517.090909 124.042436 
L 516.471193 124.805555 
L 515.493987 128.089912 
L 514.460843 131.374269 
L 513.818182 131.491548 
L 513.528166 131.374269 
L 510.545455 129.171904 
L 508.981359 128.089912 
L 507.272727 126.330875 
L 504.445707 124.805555 
L 504 124.335668 
L 500.727273 121.929743 
L 500.249572 121.521198 
L 497.454545 118.778122 
L 496.80502 118.236842 
L 494.181818 115.575228 
L 493.317369 114.952485 
L 490.909091 112.497863 
L 489.51954 111.668128 
L 487.636364 109.727262 
L 484.363636 110.621731 
L 484.055019 111.668128 
L 483.034438 114.952485 
L 481.090909 115.298628 
L 480.371678 114.952485 
L 477.818182 112.773317 
L 475.903931 111.668128 
L 474.545455 110.269118 
L 471.272727 108.68107 
L 470.899244 108.383772 
L 468 105.70598 
L 467.204763 105.099415 
L 464.727273 102.585578 
L 463.599484 101.815058 
L 461.454545 99.626891 
L 459.367478 98.530701 
L 458.181818 97.301994 
L 454.909091 96.697822 
L 451.636364 98.264063 
L 451.553311 98.530701 
L 448.363636 99.797845 
L 445.090909 99.083849 
L 444.388049 98.530701 
L 441.818182 95.973789 
L 440.821368 95.246345 
L 438.545455 92.94159 
L 436.974661 91.961988 
L 435.272727 90.228661 
L 432 88.818265 
L 431.807252 88.677631 
L 428.727273 86.21582 
L 427.557998 85.393275 
L 425.454545 83.258925 
L 423.439478 82.108918 
L 422.181818 80.821673 
L 419.981111 82.108918 
L 418.909091 85.310392 
L 418.881003 85.393275 
L 415.636364 85.959845 
L 414.487298 85.393275 
L 412.363636 83.455362 
L 409.804133 82.108918 
L 409.090909 81.383628 
L 405.818182 79.36395 
L 405.132519 78.824561 
L 402.545455 76.298992 
L 401.512255 75.540204 
L 399.272727 73.280695 
L 397.655735 72.255848 
L 396 70.580033 
L 392.727273 69.260145 
L 391.969545 68.971491 
L 389.454545 67.848122 
L 387.376798 68.971491 
L 386.197884 72.255848 
L 386.181818 72.259519 
L 386.10828 72.255848 
L 382.909091 71.808082 
L 379.636364 69.729763 
L 378.644289 68.971491 
L 376.363636 66.678095 
L 374.925001 65.687134 
L 373.090909 63.841073 
L 370.445303 62.402778 
L 369.818182 61.769968 
L 366.545455 59.799816 
L 365.636923 59.118421 
L 363.272727 56.89735 
L 361.722618 55.834064 
L 360 54.099814 
L 357.115538 52.549707 
L 356.727273 52.157729 
L 356.114489 52.549707 
L 354.901102 55.834064 
L 353.559983 59.118421 
L 353.454545 59.131865 
L 353.424194 59.118421 
L 350.181818 56.828347 
L 348.169167 55.834064 
L 346.909091 54.605163 
L 343.636364 52.82285 
L 343.289046 52.549707 
L 340.363636 50.067509 
L 339.320925 49.265351 
L 337.090909 47.027847 
L 335.591182 45.980994 
L 333.818182 44.202192 
L 331.150775 42.696637 
L 330.545455 42.089469 
L 327.272727 40.807021 
L 324.332227 39.412281 
L 324 39.165891 
L 323.58682 39.412281 
L 322.312504 42.696637 
L 320.727273 43.135985 
L 317.454545 43.191191 
L 316.711838 42.696637 
L 314.181818 40.371903 
L 312.877746 39.412281 
L 310.909091 37.441304 
L 308.854859 36.127924 
L 307.636364 34.909623 
L 304.363636 33.131976 
L 303.984909 32.843567 
L 301.090909 30.53672 
L 299.787925 29.55921 
L 297.818182 27.587093 
L 295.846213 26.274854 
L 294.545455 24.974064 
L 291.272727 25.474899 
L 290.950463 26.274854 
L 289.626382 29.55921 
L 288 29.800057 
L 287.347929 29.55921 
L 284.727273 27.787213 
L 281.639991 26.274854 
L 281.454545 26.090528 
L 278.181818 23.650916 
L 277.342414 22.990497 
L 274.909091 20.70541 
L 273.567439 19.70614 
L 271.636364 17.776164 
L 269.572855 16.421784 
L 268.363636 15.215843 
L 265.090909 13.638959 
L 264.121858 13.137427 
L 261.818182 11.919318 
L 258.545455 12.663878 
L 258.357652 13.137427 
L 255.272727 14.332059 
L 252 14.01559 
L 250.7703 13.137427 
L 248.727273 11.092603 
L 246.963379 9.85307 
L 245.454545 8.344615 
L 242.369091 6.568713 
L 242.181818 6.382009 
L 238.909091 4.014313 
L 237.96251 3.284357 
L 235.636364 1.208017 
L 233.99179 0 
L 232.923646 0 
L 235.636364 1.992618 
L 237.083512 3.284357 
L 238.909091 4.692153 
L 241.37204 6.568713 
L 242.181818 7.191427 
L 245.454545 9.545185 
L 245.762508 9.85307 
L 248.727273 11.936484 
L 249.92716 13.137427 
L 252 14.6177 
L 255.272727 15.901056 
L 256.354937 16.421784 
L 258.545455 16.926963 
L 261.26726 16.421784 
L 261.818182 14.992215 
L 265.090909 15.086621 
L 267.786371 16.421784 
L 268.363636 16.714197 
L 271.636364 18.765183 
L 272.577857 19.70614 
L 274.909091 21.442457 
L 276.557554 22.990497 
L 278.181818 24.268422 
L 280.732026 26.274854 
L 281.454545 26.843312 
L 284.727273 28.930928 
L 285.656457 29.55921 
L 288 30.424814 
L 291.272727 30.638824 
L 293.845049 29.55921 
L 294.545455 27.820732 
L 297.818182 28.602604 
L 298.773637 29.55921 
L 301.090909 31.297647 
L 303.030306 32.843567 
L 304.363636 33.858926 
L 307.392405 36.127924 
L 307.636364 36.312966 
L 310.909091 38.481989 
L 311.838287 39.412281 
L 314.181818 41.136807 
L 315.87939 42.696637 
L 317.454545 43.7455 
L 320.727273 44.318138 
L 323.418661 45.980994 
L 324 46.180202 
L 325.295959 45.980994 
L 326.572836 42.696637 
L 327.272727 42.429833 
L 327.873003 42.696637 
L 330.545455 43.920875 
L 333.818182 45.476813 
L 334.320719 45.980994 
L 337.090909 47.914668 
L 338.437071 49.265351 
L 340.363636 50.747458 
L 342.487688 52.549707 
L 343.636364 53.453065 
L 346.663951 55.834064 
L 346.909091 56.02685 
L 350.181818 57.725197 
L 352.154399 59.118421 
L 353.454545 59.694342 
L 356.727273 59.485959 
L 357.927686 59.118421 
L 359.144716 55.834064 
L 360 55.542839 
L 360.289272 55.834064 
L 363.272727 57.880544 
L 364.590373 59.118421 
L 366.545455 60.584726 
L 369.021097 62.402778 
L 369.818182 62.997392 
L 373.090909 65.182116 
L 373.592653 65.687134 
L 376.363636 67.595843 
L 377.731641 68.971491 
L 379.636364 70.427328 
L 382.120164 72.255848 
L 382.909091 72.725271 
L 386.181818 73.2137 
L 389.454545 74.794411 
L 390.367916 72.255848 
L 392.727273 71.170366 
L 395.925413 72.255848 
L 396 72.282256 
L 399.272727 74.344191 
L 400.458164 75.540204 
L 402.545455 77.073121 
L 404.33954 78.824561 
L 405.818182 79.987761 
L 408.514565 82.108918 
L 409.090909 82.562309 
L 412.363636 84.828746 
L 412.982275 85.393275 
L 415.636364 86.701928 
L 418.909091 88.555785 
L 422.181818 88.136415 
L 423.109462 85.393275 
L 425.454545 84.628436 
L 426.208313 85.393275 
L 428.727273 87.165278 
L 430.619382 88.677631 
L 432 89.684963 
L 435.207261 91.961988 
L 435.272727 92.009395 
L 438.545455 94.06312 
L 439.713873 95.246345 
L 441.818182 96.782006 
L 443.575737 98.530701 
L 445.090909 99.723135 
L 448.363636 101.523561 
L 448.97718 101.815058 
L 451.636364 102.408352 
L 454.816586 101.815058 
L 454.909091 101.522048 
L 458.181818 99.944304 
L 461.454545 101.147958 
L 462.108466 101.815058 
L 464.727273 103.60426 
L 466.20081 105.099415 
L 468 106.471742 
L 470.070153 108.383772 
L 471.272727 109.341039 
L 474.196149 111.668128 
L 474.545455 111.946181 
L 477.818182 114.128648 
L 478.783534 114.952485 
L 481.090909 116.06295 
L 484.363636 117.724893 
L 487.30649 114.952485 
L 487.636364 113.837712 
L 490.909091 113.821711 
L 492.018516 114.952485 
L 494.181818 116.510914 
L 495.882838 118.236842 
L 497.454545 119.546621 
L 499.466519 121.521198 
L 500.727273 122.599435 
L 503.30683 124.805555 
L 504 125.398376 
L 507.147142 128.089912 
L 507.272727 128.197316 
L 510.545455 130.579655 
L 511.621617 131.374269 
L 513.818182 132.262537 
L 517.090909 133.204452 
L 518.67276 131.374269 
L 519.980069 128.089912 
L 520.363636 127.923004 
L 520.526045 128.089912 
L 523.636364 130.370855 
L 524.619348 131.374269 
L 526.909091 133.191198 
L 528.352064 134.658625 
L 530.181818 136.180538 
L 531.919058 137.942982 
L 533.454545 139.260773 
L 535.396218 141.227339 
L 536.727273 142.395503 
L 539.093124 144.511695 
L 540 145.309477 
L 543.06613 147.796052 
L 543.272727 147.944204 
L 546.545455 148.646421 
L 549.818182 149.040064 
L 550.214256 147.796052 
L 553.090909 146.537623 
L 554.999409 147.796052 
L 556.363636 148.529662 
L 559.636364 150.839324 
L 559.871534 151.080409 
L 562.909091 153.327097 
L 563.927275 154.364765 
L 566.181818 156.161925 
L 567.645967 157.649122 
L 569.454545 159.157571 
L 571.206691 160.933479 
L 572.727273 162.240831 
L 575.098993 164.217836 
z
M 576 46.723054 
L 576 45.980994 
L 576 42.696637 
L 576 39.412281 
L 576 36.127924 
L 576 32.843567 
L 576 29.55921 
L 576 26.274854 
L 576 22.990497 
L 576 19.70614 
L 576 16.422653 
L 575.996393 16.421784 
L 572.727273 15.672637 
L 569.454545 14.203565 
L 567.607299 13.137427 
L 566.181818 12.35357 
L 562.909091 11.358546 
L 559.636364 10.790948 
L 556.363636 10.099967 
L 555.963378 9.85307 
L 553.090909 7.619068 
L 551.055275 6.568713 
L 549.818182 5.705164 
L 546.545455 3.968854 
L 545.464833 3.284357 
L 543.272727 1.865384 
L 540.289633 0 
L 540 0 
L 536.727273 0 
L 533.454545 0 
L 530.181818 0 
L 526.909091 0 
L 523.636364 0 
L 520.363636 0 
L 517.090909 0 
L 513.818182 0 
L 510.545455 0 
L 507.272727 0 
L 504 0 
L 500.727273 0 
L 497.454545 0 
L 494.181818 0 
L 490.909091 0 
L 487.636364 0 
L 484.363636 0 
L 481.090909 0 
L 480.467461 0 
L 481.090909 0.461788 
L 484.363636 2.796075 
L 485.281769 3.284357 
L 487.636364 4.776677 
L 489.962248 6.568713 
L 490.909091 7.265154 
L 493.98078 9.85307 
L 494.181818 10.006131 
L 497.454545 10.870242 
L 500.727273 11.285233 
L 504 11.19687 
L 507.272727 12.387133 
L 508.461964 13.137427 
L 510.545455 14.454282 
L 513.667329 16.421784 
L 513.818182 16.517028 
L 517.090909 18.607102 
L 518.530235 19.70614 
L 520.363636 21.014984 
L 522.787243 22.990497 
L 523.636364 23.702252 
L 526.902301 26.274854 
L 526.909091 26.280486 
L 530.181818 26.343576 
L 533.454545 26.379056 
L 534.826231 26.274854 
L 536.727273 26.224976 
L 536.80857 26.274854 
L 540 28.158191 
L 542.229485 29.55921 
L 543.272727 30.1907 
L 546.545455 32.306552 
L 547.255619 32.843567 
L 549.818182 34.598233 
L 551.776294 36.127924 
L 553.090909 37.135662 
L 555.977068 39.412281 
L 556.363636 39.742372 
L 559.636364 41.311917 
L 562.909091 41.597057 
L 566.181818 41.730444 
L 569.454545 42.404178 
L 569.889899 42.696637 
L 572.727273 44.507321 
L 574.868067 45.980994 
z
M 219.272727 0.145034 
L 222.545455 1.208495 
L 225.818182 2.602395 
L 229.090909 1.961582 
L 230.063759 0 
L 229.090909 0 
L 225.818182 0 
L 225.692566 0 
L 222.545455 0.50679 
L 220.927226 0 
L 219.272727 0 
L 219.072638 0 
z
" clip-path="url(#p2f8bda8df5)" style="fill: #dfecf7; fill-opacity: 0.9"/>
    <path d="M 572.727273 161.470145 
L 576 164.083783 
L 576 160.933479 
L 576 157.649122 
L 576 154.364765 
L 576 151.080409 
L 576 147.796052 
L 576 144.511695 
L 576 141.227339 
L 576 137.942982 
L 576 134.658625 
L 576 131.374269 
L 576 128.089912 
L 576 124.805555 
L 576 121.521198 
L 576 118.236842 
L 576 114.952485 
L 576 111.668128 
L 576 108.383772 
L 576 105.099415 
L 576 101.815058 
L 576 98.530701 
L 576 95.246345 
L 576 91.961988 
L 576 88.677631 
L 576 85.393275 
L 576 82.108918 
L 576 78.824561 
L 576 75.540204 
L 576 72.255848 
L 576 68.971491 
L 576 65.687134 
L 576 62.402778 
L 576 59.118421 
L 576 55.834064 
L 576 52.549707 
L 576 49.265351 
L 576 46.723054 
L 574.868067 45.980994 
L 572.727273 44.507321 
L 569.889899 42.696637 
L 569.454545 42.404178 
L 566.181818 41.730444 
L 562.909091 41.597057 
L 559.636364 41.311917 
L 556.363636 39.742372 
L 555.977068 39.412281 
L 553.090909 37.135662 
L 551.776294 36.127924 
L 549.818182 34.598233 
L 547.255619 32.843567 
L 546.545455 32.306552 
L 543.272727 30.1907 
L 542.229485 29.55921 
L 540 28.158191 
L 536.80857 26.274854 
L 536.727273 26.224976 
L 534.826231 26.274854 
L 533.454545 26.379056 
L 530.181818 26.343576 
L 526.909091 26.280486 
L 526.902301 26.274854 
L 523.636364 23.702252 
L 522.787243 22.990497 
L 520.363636 21.014984 
L 518.530235 19.70614 
L 517.090909 18.607102 
L 513.818182 16.517028 
L 513.667329 16.421784 
L 510.545455 14.454282 
L 508.461964 13.137427 
L 507.272727 12.387133 
L 504 11.19687 
L 500.727273 11.285233 
L 497.454545 10.870242 
L 494.181818 10.006131 
L 493.98078 9.85307 
L 490.909091 7.265154 
L 489.962248 6.568713 
L 487.636364 4.776677 
L 485.281769 3.284357 
L 484.363636 2.796075 
L 481.090909 0.461788 
L 480.467461 0 
L 477.818182 0 
L 474.545455 0 
L 471.272727 0 
L 468 0 
L 464.727273 0 
L 461.454545 0 
L 458.181818 0 
L 454.909091 0 
L 451.636364 0 
L 448.363636 0 
L 445.090909 0 
L 441.818182 0 
L 438.545455 0 
L 435.272727 0 
L 432 0 
L 428.727273 0 
L 425.454545 0 
L 422.181818 0 
L 418.909091 0 
L 415.636364 0 
L 412.363636 0 
L 409.090909 0 
L 405.818182 0 
L 402.545455 0 
L 399.272727 0 
L 396 0 
L 392.727273 0 
L 389.454545 0 
L 386.181818 0 
L 382.909091 0 
L 379.636364 0 
L 376.363636 0 
L 373.090909 0 
L 369.818182 0 
L 366.545455 0 
L 364.712339 0 
L 366.545455 1.319695 
L 369.310876 3.284357 
L 369.818182 3.660534 
L 373.090909 6.205989 
L 373.527262 6.568713 
L 376.363636 8.926487 
L 377.478305 9.85307 
L 379.636364 11.646985 
L 381.429348 13.137427 
L 382.909091 14.428898 
L 385.331579 16.421784 
L 386.181818 17.345819 
L 389.268894 19.70614 
L 389.454545 19.915213 
L 390.862085 19.70614 
L 392.727273 18.903436 
L 396 19.399283 
L 396.403796 19.70614 
L 399.272727 21.886326 
L 400.710833 22.990497 
L 402.545455 24.485181 
L 404.594781 26.274854 
L 405.818182 27.770366 
L 407.996445 29.55921 
L 409.090909 31.056656 
L 411.644421 32.843567 
L 412.363636 34.350655 
L 415.636364 35.8573 
L 415.953268 36.127924 
L 415.636364 37.605976 
L 412.363636 38.249675 
L 409.090909 37.271847 
L 405.818182 36.438648 
L 402.545455 37.278307 
L 399.272727 37.963697 
L 396 38.379386 
L 392.727273 37.158571 
L 390.588366 36.127924 
L 389.454545 35.581584 
L 386.181818 34.712523 
L 382.909091 34.037804 
L 379.777241 32.843567 
L 379.636364 32.777152 
L 379.451454 32.843567 
L 376.363636 34.801686 
L 373.090909 35.900941 
L 372.80507 36.127924 
L 369.818182 37.663805 
L 366.545455 37.464282 
L 363.272727 37.129105 
L 361.266215 36.127924 
L 360 35.496126 
L 356.727273 35.869193 
L 356.4888 36.127924 
L 355.773412 39.412281 
L 356.727273 41.068787 
L 358.128414 42.696637 
L 360 44.218842 
L 362.166846 45.980994 
L 363.272727 46.880415 
L 366.230842 49.265351 
L 366.545455 49.520802 
L 369.818182 52.135082 
L 370.192175 52.549707 
L 373.090909 54.997983 
L 373.925685 55.834064 
L 376.363636 57.945574 
L 377.717807 59.118421 
L 379.636364 60.780083 
L 381.509928 62.402778 
L 382.909091 63.614593 
L 383.093742 65.687134 
L 383.165524 68.971491 
L 382.909091 69.133294 
L 379.636364 69.032199 
L 379.556937 68.971491 
L 376.363636 65.760347 
L 376.257349 65.687134 
L 373.090909 62.50003 
L 372.912023 62.402778 
L 369.818182 59.280872 
L 368.734738 59.118421 
L 366.545455 56.837423 
L 363.272727 55.914156 
L 363.155965 55.834064 
L 360 52.65679 
L 359.80074 52.549707 
L 356.727273 49.44685 
L 355.307441 49.265351 
L 353.454545 47.342572 
L 352.051082 49.265351 
L 351.072403 52.549707 
L 350.64455 55.834064 
L 350.181818 55.931497 
L 349.984592 55.834064 
L 346.909091 52.834652 
L 346.185117 52.549707 
L 343.636364 49.994133 
L 340.363636 49.38756 
L 340.204778 49.265351 
L 337.090909 46.141026 
L 336.861646 45.980994 
L 333.818182 42.927572 
L 333.409033 42.696637 
L 330.545455 39.824316 
L 328.699189 39.412281 
L 327.272727 37.983951 
L 324 36.628529 
L 321.156738 36.127924 
L 320.727273 35.699865 
L 320.351555 36.127924 
L 318.831143 39.412281 
L 317.454545 41.673042 
L 314.181818 39.607 
L 313.917205 39.412281 
L 310.909091 36.400619 
L 310.482574 36.127924 
L 307.636364 33.282167 
L 306.625779 32.843567 
L 304.363636 30.592642 
L 301.090909 29.775793 
L 300.802213 29.55921 
L 297.818182 26.571583 
L 297.372272 26.274854 
L 294.545455 23.447967 
L 293.622112 22.990497 
L 291.272727 20.649438 
L 288.055814 22.990497 
L 288 23.129015 
L 286.420849 26.274854 
L 284.727273 26.643498 
L 283.974734 26.274854 
L 281.454545 23.769893 
L 278.181818 23.03341 
L 278.127275 22.990497 
L 274.909091 19.968363 
L 274.557022 19.70614 
L 271.636364 16.787145 
L 271.079706 16.421784 
L 268.363636 13.713077 
L 267.154268 13.137427 
L 265.090909 11.093635 
L 261.818182 10.440277 
L 260.660017 9.85307 
L 258.545455 7.756489 
L 255.48216 9.85307 
L 255.272727 10.417921 
L 254.152512 13.137427 
L 252 13.41348 
L 251.61344 13.137427 
L 248.727273 10.248721 
L 248.164249 9.85307 
L 245.454545 7.144045 
L 244.454964 6.568713 
L 242.181818 4.302468 
L 238.909091 3.336473 
L 238.841508 3.284357 
L 235.636364 0.423415 
L 235.059934 0 
L 233.99179 0 
L 235.636364 1.208017 
L 237.96251 3.284357 
L 238.909091 4.014313 
L 242.181818 6.382009 
L 242.369091 6.568713 
L 245.454545 8.344615 
L 246.963379 9.85307 
L 248.727273 11.092603 
L 250.7703 13.137427 
L 252 14.01559 
L 255.272727 14.332059 
L 258.357652 13.137427 
L 258.545455 12.663878 
L 261.818182 11.919318 
L 264.121858 13.137427 
L 265.090909 13.638959 
L 268.363636 15.215843 
L 269.572855 16.421784 
L 271.636364 17.776164 
L 273.567439 19.70614 
L 274.909091 20.70541 
L 277.342414 22.990497 
L 278.181818 23.650916 
L 281.454545 26.090528 
L 281.639991 26.274854 
L 284.727273 27.787213 
L 287.347929 29.55921 
L 288 29.800057 
L 289.626382 29.55921 
L 290.950463 26.274854 
L 291.272727 25.474899 
L 294.545455 24.974064 
L 295.846213 26.274854 
L 297.818182 27.587093 
L 299.787925 29.55921 
L 301.090909 30.53672 
L 303.984909 32.843567 
L 304.363636 33.131976 
L 307.636364 34.909623 
L 308.854859 36.127924 
L 310.909091 37.441304 
L 312.877746 39.412281 
L 314.181818 40.371903 
L 316.711838 42.696637 
L 317.454545 43.191191 
L 320.727273 43.135985 
L 322.312504 42.696637 
L 323.58682 39.412281 
L 324 39.165891 
L 324.332227 39.412281 
L 327.272727 40.807021 
L 330.545455 42.089469 
L 331.150775 42.696637 
L 333.818182 44.202192 
L 335.591182 45.980994 
L 337.090909 47.027847 
L 339.320925 49.265351 
L 340.363636 50.067509 
L 343.289046 52.549707 
L 343.636364 52.82285 
L 346.909091 54.605163 
L 348.169167 55.834064 
L 350.181818 56.828347 
L 353.424194 59.118421 
L 353.454545 59.131865 
L 353.559983 59.118421 
L 354.901102 55.834064 
L 356.114489 52.549707 
L 356.727273 52.157729 
L 357.115538 52.549707 
L 360 54.099814 
L 361.722618 55.834064 
L 363.272727 56.89735 
L 365.636923 59.118421 
L 366.545455 59.799816 
L 369.818182 61.769968 
L 370.445303 62.402778 
L 373.090909 63.841073 
L 374.925001 65.687134 
L 376.363636 66.678095 
L 378.644289 68.971491 
L 379.636364 69.729763 
L 382.909091 71.808082 
L 386.10828 72.255848 
L 386.181818 72.259519 
L 386.197884 72.255848 
L 387.376798 68.971491 
L 389.454545 67.848122 
L 391.969545 68.971491 
L 392.727273 69.260145 
L 396 70.580033 
L 397.655735 72.255848 
L 399.272727 73.280695 
L 401.512255 75.540204 
L 402.545455 76.298992 
L 405.132519 78.824561 
L 405.818182 79.36395 
L 409.090909 81.383628 
L 409.804133 82.108918 
L 412.363636 83.455362 
L 414.487298 85.393275 
L 415.636364 85.959845 
L 418.881003 85.393275 
L 418.909091 85.310392 
L 419.981111 82.108918 
L 422.181818 80.821673 
L 423.439478 82.108918 
L 425.454545 83.258925 
L 427.557998 85.393275 
L 428.727273 86.21582 
L 431.807252 88.677631 
L 432 88.818265 
L 435.272727 90.228661 
L 436.974661 91.961988 
L 438.545455 92.94159 
L 440.821368 95.246345 
L 441.818182 95.973789 
L 444.388049 98.530701 
L 445.090909 99.083849 
L 448.363636 99.797845 
L 451.553311 98.530701 
L 451.636364 98.264063 
L 454.909091 96.697822 
L 458.181818 97.301994 
L 459.367478 98.530701 
L 461.454545 99.626891 
L 463.599484 101.815058 
L 464.727273 102.585578 
L 467.204763 105.099415 
L 468 105.70598 
L 470.899244 108.383772 
L 471.272727 108.68107 
L 474.545455 110.269118 
L 475.903931 111.668128 
L 477.818182 112.773317 
L 480.371678 114.952485 
L 481.090909 115.298628 
L 483.034438 114.952485 
L 484.055019 111.668128 
L 484.363636 110.621731 
L 487.636364 109.727262 
L 489.51954 111.668128 
L 490.909091 112.497863 
L 493.317369 114.952485 
L 494.181818 115.575228 
L 496.80502 118.236842 
L 497.454545 118.778122 
L 500.249572 121.521198 
L 500.727273 121.929743 
L 504 124.335668 
L 504.445707 124.805555 
L 507.272727 126.330875 
L 508.981359 128.089912 
L 510.545455 129.171904 
L 513.528166 131.374269 
L 513.818182 131.491548 
L 514.460843 131.374269 
L 515.493987 128.089912 
L 516.471193 124.805555 
L 517.090909 124.042436 
L 517.807994 124.805555 
L 520.363636 125.888442 
L 522.505771 128.089912 
L 523.636364 128.919029 
L 526.041614 131.374269 
L 526.909091 132.062618 
L 529.461836 134.658625 
L 530.181818 135.257476 
L 532.828919 137.942982 
L 533.454545 138.479909 
L 536.167198 141.227339 
L 536.727273 141.718873 
L 539.849578 144.511695 
L 540 144.644022 
L 543.272727 146.124178 
L 546.545455 145.955616 
L 547.0041 144.511695 
L 549.818182 142.699206 
L 552.671986 144.511695 
L 553.090909 144.692832 
L 556.363636 146.159795 
L 557.938883 147.796052 
L 559.636364 148.878636 
L 561.784117 151.080409 
L 562.909091 151.912481 
L 565.31533 154.364765 
L 566.181818 155.055468 
L 568.735277 157.649122 
L 569.454545 158.24903 
L 572.103076 160.933479 
z
M 417.321314 39.412281 
L 418.909091 39.051334 
L 419.34381 39.412281 
L 418.909091 40.200166 
z
M 222.545455 0.50679 
L 225.692566 0 
L 222.545455 0 
L 220.927226 0 
z
" clip-path="url(#p2f8bda8df5)" style="fill: #dae8f6; fill-opacity: 0.9"/>
    <path d="M 379.636364 69.032199 
L 382.909091 69.133294 
L 383.165524 68.971491 
L 383.093742 65.687134 
L 382.909091 63.614593 
L 381.509928 62.402778 
L 379.636364 60.780083 
L 377.717807 59.118421 
L 376.363636 57.945574 
L 373.925685 55.834064 
L 373.090909 54.997983 
L 370.192175 52.549707 
L 369.818182 52.135082 
L 366.545455 49.520802 
L 366.230842 49.265351 
L 363.272727 46.880415 
L 362.166846 45.980994 
L 360 44.218842 
L 358.128414 42.696637 
L 356.727273 41.068787 
L 355.773412 39.412281 
L 356.4888 36.127924 
L 356.727273 35.869193 
L 360 35.496126 
L 361.266215 36.127924 
L 363.272727 37.129105 
L 366.545455 37.464282 
L 369.818182 37.663805 
L 372.80507 36.127924 
L 373.090909 35.900941 
L 376.363636 34.801686 
L 379.451454 32.843567 
L 379.636364 32.777152 
L 379.777241 32.843567 
L 382.909091 34.037804 
L 386.181818 34.712523 
L 389.454545 35.581584 
L 390.588366 36.127924 
L 392.727273 37.158571 
L 396 38.379386 
L 399.272727 37.963697 
L 402.545455 37.278307 
L 405.818182 36.438648 
L 409.090909 37.271847 
L 412.363636 38.249675 
L 415.636364 37.605976 
L 415.953268 36.127924 
L 415.636364 35.8573 
L 412.363636 34.350655 
L 411.644421 32.843567 
L 409.090909 31.056656 
L 407.996445 29.55921 
L 405.818182 27.770366 
L 404.594781 26.274854 
L 402.545455 24.485181 
L 400.710833 22.990497 
L 399.272727 21.886326 
L 396.403796 19.70614 
L 396 19.399283 
L 392.727273 18.903436 
L 390.862085 19.70614 
L 389.454545 19.915213 
L 389.268894 19.70614 
L 386.181818 17.345819 
L 385.331579 16.421784 
L 382.909091 14.428898 
L 381.429348 13.137427 
L 379.636364 11.646985 
L 377.478305 9.85307 
L 376.363636 8.926487 
L 373.527262 6.568713 
L 373.090909 6.205989 
L 369.818182 3.660534 
L 369.310876 3.284357 
L 366.545455 1.319695 
L 364.712339 0 
L 363.272727 0 
L 360 0 
L 356.727273 0 
L 353.454545 0 
L 350.181818 0 
L 346.909091 0 
L 343.636364 0 
L 340.363636 0 
L 337.090909 0 
L 333.818182 0 
L 330.545455 0 
L 327.272727 0 
L 324 0 
L 320.727273 0 
L 317.454545 0 
L 314.181818 0 
L 310.909091 0 
L 307.636364 0 
L 304.363636 0 
L 301.090909 0 
L 297.818182 0 
L 294.545455 0 
L 291.272727 0 
L 288 0 
L 284.727273 0 
L 281.454545 0 
L 278.181818 0 
L 274.909091 0 
L 271.636364 0 
L 268.363636 0 
L 265.090909 0 
L 261.818182 0 
L 258.545455 0 
L 255.272727 0 
L 252 0 
L 248.727273 0 
L 245.454545 0 
L 242.181818 0 
L 238.909091 0 
L 235.636364 0 
L 235.059934 0 
L 235.636364 0.423415 
L 238.841508 3.284357 
L 238.909091 3.336473 
L 242.181818 4.302468 
L 244.454964 6.568713 
L 245.454545 7.144045 
L 248.164249 9.85307 
L 248.727273 10.248721 
L 251.61344 13.137427 
L 252 13.41348 
L 254.152512 13.137427 
L 255.272727 10.417921 
L 255.48216 9.85307 
L 258.545455 7.756489 
L 260.660017 9.85307 
L 261.818182 10.440277 
L 265.090909 11.093635 
L 267.154268 13.137427 
L 268.363636 13.713077 
L 271.079706 16.421784 
L 271.636364 16.787145 
L 274.557022 19.70614 
L 274.909091 19.968363 
L 278.127275 22.990497 
L 278.181818 23.03341 
L 281.454545 23.769893 
L 283.974734 26.274854 
L 284.727273 26.643498 
L 286.420849 26.274854 
L 288 23.129015 
L 288.055814 22.990497 
L 291.272727 20.649438 
L 293.622112 22.990497 
L 294.545455 23.447967 
L 297.372272 26.274854 
L 297.818182 26.571583 
L 300.802213 29.55921 
L 301.090909 29.775793 
L 304.363636 30.592642 
L 306.625779 32.843567 
L 307.636364 33.282167 
L 310.482574 36.127924 
L 310.909091 36.400619 
L 313.917205 39.412281 
L 314.181818 39.607 
L 317.454545 41.673042 
L 318.831143 39.412281 
L 320.351555 36.127924 
L 320.727273 35.699865 
L 321.156738 36.127924 
L 324 36.628529 
L 327.272727 37.983951 
L 328.699189 39.412281 
L 330.545455 39.824316 
L 333.409033 42.696637 
L 333.818182 42.927572 
L 336.861646 45.980994 
L 337.090909 46.141026 
L 340.204778 49.265351 
L 340.363636 49.38756 
L 343.636364 49.994133 
L 346.185117 52.549707 
L 346.909091 52.834652 
L 349.984592 55.834064 
L 350.181818 55.931497 
L 350.64455 55.834064 
L 351.072403 52.549707 
L 352.051082 49.265351 
L 353.454545 47.342572 
L 355.307441 49.265351 
L 356.727273 49.44685 
L 359.80074 52.549707 
L 360 52.65679 
L 363.155965 55.834064 
L 363.272727 55.914156 
L 366.545455 56.837423 
L 368.734738 59.118421 
L 369.818182 59.280872 
L 372.912023 62.402778 
L 373.090909 62.50003 
L 376.257349 65.687134 
L 376.363636 65.760347 
L 379.556937 68.971491 
z
M 418.909091 40.200166 
L 419.34381 39.412281 
L 418.909091 39.051334 
L 417.321314 39.412281 
z
" clip-path="url(#p2f8bda8df5)" style="fill: #d6e5f4; fill-opacity: 0.9"/>
    <path clip-path="url(#p2f8bda8df5)" style="fill: #d0e2f2; fill-opacity: 0.9"/>
    <path clip-path="url(#p2f8bda8df5)" style="fill: #cbdef1; fill-opacity: 0.9"/>
    <path clip-path="url(#p2f8bda8df5)" style="fill: #c6dbef; fill-opacity: 0.9"/>
    <path clip-path="url(#p2f8bda8df5)" style="fill: #bed8ec; fill-opacity: 0.9"/>
    <path clip-path="url(#p2f8bda8df5)" style="fill: #b5d4e9; fill-opacity: 0.9"/>
    <path clip-path="url(#p2f8bda8df5)" style="fill: #add0e6; fill-opacity: 0.9"/>
    <path clip-path="url(#p2f8bda8df5)" style="fill: #a5cde3; fill-opacity: 0.9"/>
    <path clip-path="url(#p2f8bda8df5)" style="fill: #9cc9e1; fill-opacity: 0.9"/>
    <path clip-path="url(#p2f8bda8df5)" style="fill: #91c3de; fill-opacity: 0.9"/>
    <path clip-path="url(#p2f8bda8df5)" style="fill: #85bcdc; fill-opacity: 0.9"/>
    <path clip-path="url(#p2f8bda8df5)" style="fill: #7cb7da; fill-opacity: 0.9"/>
    <path clip-path="url(#p2f8bda8df5)" style="fill: #71b1d7; fill-opacity: 0.9"/>
    <path clip-path="url(#p2f8bda8df5)" style="fill: #66abd4; fill-opacity: 0.9"/>
    <path clip-path="url(#p2f8bda8df5)" style="fill: #5da5d1; fill-opacity: 0.9"/>
    <path clip-path="url(#p2f8bda8df5)" style="fill: #56a0ce; fill-opacity: 0.9"/>
    <path clip-path="url(#p2f8bda8df5)" style="fill: #4d99ca; fill-opacity: 0.9"/>
    <path clip-path="url(#p2f8bda8df5)" style="fill: #4493c7; fill-opacity: 0.9"/>
    <path clip-path="url(#p2f8bda8df5)" style="fill: #3c8cc3; fill-opacity: 0.9"/>
    <path clip-path="url(#p2f8bda8df5)" style="fill: #3686c0; fill-opacity: 0.9"/>
    <path clip-path="url(#p2f8bda8df5)" style="fill: #2f7fbc; fill-opacity: 0.9"/>
    <path clip-path="url(#p2f8bda8df5)" style="fill: #2777b8; fill-opacity: 0.9"/>
    <path clip-path="url(#p2f8bda8df5)" style="fill: #2070b4; fill-opacity: 0.9"/>
    <path clip-path="url(#p2f8bda8df5)" style="fill: #1c6ab0; fill-opacity: 0.9"/>
    <path clip-path="url(#p2f8bda8df5)" style="fill: #1663aa; fill-opacity: 0.9"/>
    <path clip-path="url(#p2f8bda8df5)" style="fill: #115ca5; fill-opacity: 0.9"/>
    <path clip-path="url(#p2f8bda8df5)" style="fill: #0c56a0; fill-opacity: 0.9"/>
    <path clip-path="url(#p2f8bda8df5)" style="fill: #084f99; fill-opacity: 0.9"/>
    <path clip-path="url(#p2f8bda8df5)" style="fill: #08488e; fill-opacity: 0.9"/>
    <path clip-path="url(#p2f8bda8df5)" style="fill: #084184; fill-opacity: 0.9"/>
    <path clip-path="url(#p2f8bda8df5)" style="fill: #083a7a; fill-opacity: 0.9"/>
    <path clip-path="url(#p2f8bda8df5)" style="fill: #083370; fill-opacity: 0.9"/>
    <path clip-path="url(#p2f8bda8df5)" style="fill: #08306b; fill-opacity: 0.9"/>
   </g>
   <g id="QuadContourSet_2">
    <path d="M 216.01299 0 
L 219.272727 2.362804 
L 221.284582 3.284357 
L 222.545455 4.173405 
L 225.818182 5.306653 
L 228.647478 6.568713 
L 229.090909 6.953771 
L 238.909091 10.632907 
L 242.181818 10.181804 
L 246.377786 13.137427 
L 248.727273 14.933782 
L 250.953268 16.421784 
L 252 17.308635 
L 255.272727 18.420294 
L 258.171662 19.70614 
L 258.545455 20.037667 
L 261.818182 21.421424 
L 265.090909 22.581071 
L 265.712618 22.990497 
L 268.363636 24.248844 
L 271.636364 24.454525 
L 275.631323 26.274854 
L 278.181818 27.24382 
L 284.727273 31.464448 
L 286.56547 32.278907 
M 303.902007 39.718355 
L 304.363636 39.975407 
L 307.636364 39.25706 
L 314.181818 44.091785 
L 317.495587 45.980994 
L 320.727273 47.586769 
L 324 48.80281 
L 327.272727 50.635236 
L 330.545455 51.373167 
L 333.818182 53.599276 
L 337.090909 53.325031 
L 340.363636 55.034563 
L 342.529372 55.834064 
L 343.636364 56.086745 
L 347.793224 59.118421 
L 350.181818 60.692247 
L 354.489677 62.402778 
L 356.727273 63.709098 
L 360 64.6444 
L 361.904135 65.687134 
L 363.272727 66.629765 
L 366.545455 66.968451 
L 369.818182 69.339629 
L 371.25896 68.971491 
L 373.090909 68.622568 
L 379.636364 73.370558 
L 384.180943 75.540204 
L 386.181818 76.747259 
L 389.454545 77.830107 
L 391.644093 78.824561 
L 392.727273 79.609526 
L 396 80.34205 
L 399.272727 82.259062 
L 402.545455 82.360077 
L 405.818182 83.479081 
L 409.090909 85.057553 
L 412.363636 87.632101 
L 414.183751 88.677631 
L 415.636364 89.754962 
L 418.909091 90.881537 
L 421.331381 91.961988 
L 422.181818 92.620822 
L 425.454545 93.699852 
L 428.727273 95.27774 
L 432 96.175257 
L 435.272727 96.394471 
L 438.545455 97.902869 
L 445.090909 102.482399 
L 450.78107 105.099415 
L 451.636364 105.730784 
L 454.909091 106.971889 
L 458.181818 108.523969 
L 461.454545 109.778112 
L 464.727273 110.819822 
L 466.887784 111.668128 
L 471.272727 112.740812 
L 475.005781 114.952485 
L 477.818182 117.1912 
L 479.710488 118.236842 
L 481.090909 119.211025 
L 484.363636 120.545079 
L 486.336419 121.521198 
L 487.636364 122.444261 
L 490.909091 123.522995 
L 494.181818 125.676656 
L 497.454545 125.908694 
L 500.727273 127.676967 
L 504.014929 128.089912 
L 507.85524 131.374269 
L 510.545455 133.482853 
L 512.778293 134.658625 
L 513.818182 135.448971 
L 517.090909 136.866157 
L 519.194587 137.942982 
L 520.363636 138.80625 
L 523.636364 139.844853 
L 526.909091 142.159501 
L 530.181818 142.053699 
L 533.454545 143.694057 
L 534.633241 144.511695 
L 536.727273 145.712121 
L 540 148.077864 
L 543.272727 150.297896 
L 544.791673 151.080409 
L 546.545455 152.242694 
L 549.818182 153.59322 
L 551.166977 154.364765 
L 553.090909 155.599478 
L 556.363636 156.554306 
L 557.986841 157.649122 
L 559.636364 158.548078 
L 562.909091 158.435662 
L 566.181818 160.221388 
L 567.047199 160.933479 
L 569.454545 162.704059 
L 572.727273 165.335838 
L 576 167.15647 
L 576 167.15647 
" clip-path="url(#p2f8bda8df5)" style="fill: none"/>
    <path d="M 216.777902 0 
L 219.272727 1.808362 
L 225.818182 4.766727 
L 229.090909 5.971388 
L 229.96837 6.568713 
L 232.363636 7.595421 
L 235.636364 7.973774 
L 242.181818 9.243834 
L 248.727273 14.236678 
L 252 16.42508 
L 255.272727 17.875461 
L 258.545455 19.182978 
L 259.399987 19.70614 
L 261.818182 20.843633 
L 265.090909 21.544837 
L 267.286127 22.990497 
L 268.363636 23.501953 
L 271.636364 22.809176 
L 274.909091 24.389396 
L 278.377445 26.274854 
L 282.643434 29.55921 
L 284.727273 30.912312 
L 289.08603 32.843567 
L 291.272727 33.896611 
L 294.545455 34.868485 
L 297.818182 36.855025 
L 301.090909 36.864763 
L 303.002396 36.354684 
M 318.994187 46.10644 
L 320.727273 46.967583 
L 324 48.147158 
L 327.272727 49.922064 
L 330.545455 50.519363 
L 333.818182 52.758479 
L 335.140251 52.549707 
L 337.090909 51.896933 
L 340.363636 53.193155 
L 344.259879 55.834064 
L 346.909091 57.917495 
L 350.181818 60.04896 
L 355.759472 62.402778 
L 356.727273 62.967785 
L 360 63.94904 
L 363.272727 65.755182 
L 366.545455 66.051278 
L 369.818182 65.389352 
L 379.636364 72.56204 
L 382.909091 74.416687 
L 389.454545 77.24823 
L 393.135922 78.824561 
L 396 79.61355 
L 399.272727 79.662686 
L 402.545455 80.432115 
L 406.135628 82.108918 
L 412.363636 87.00829 
L 415.636364 88.949557 
L 425.454545 93.104578 
L 428.727273 93.739898 
L 432 95.340177 
L 435.272727 94.661456 
L 445.37805 101.815058 
L 448.363636 103.431798 
L 452.040034 105.099415 
L 454.909091 106.400822 
L 458.181818 107.3777 
L 459.728234 108.383772 
L 461.454545 109.071886 
L 464.727273 108.823806 
L 468 109.670348 
L 471.272727 111.320947 
L 477.818182 116.531231 
L 481.090909 118.368154 
L 487.636364 121.588865 
L 490.909091 122.774853 
L 494.263757 124.805555 
L 497.454545 124.215998 
L 500.727273 124.608512 
L 510.545455 132.869098 
L 520.363636 137.945569 
L 523.636364 139.02878 
L 526.909091 141.322596 
L 527.549637 141.227339 
L 530.181818 140.241592 
L 531.794342 141.227339 
L 533.454545 142.029101 
L 536.82376 144.511695 
L 540.604466 147.796052 
L 543.272727 149.709473 
L 546.545455 151.485726 
L 549.818182 152.939855 
L 553.090909 154.866458 
L 556.363636 155.493347 
L 559.636364 157.690822 
L 559.842948 157.649122 
L 562.909091 156.855662 
L 563.90276 157.649122 
L 566.181818 159.252876 
L 572.727273 164.556604 
L 576 166.565734 
L 576 166.565734 
" clip-path="url(#p2f8bda8df5)" style="fill: none"/>
    <path d="M 217.542814 0 
L 219.272727 1.253919 
L 222.545455 2.611905 
L 223.705405 3.284357 
L 225.818182 4.2268 
L 229.090909 5.028719 
L 231.353135 6.568713 
L 232.363636 7.001855 
L 235.543434 6.568713 
L 235.636364 6.381913 
L 238.909091 6.047834 
L 248.727273 13.539574 
L 252 15.82192 
L 255.272727 17.330628 
L 258.545455 18.430973 
L 260.628312 19.70614 
L 261.818182 20.265842 
L 265.090909 20.508603 
L 268.427886 19.70614 
L 274.987834 22.990497 
L 283.49375 29.55921 
L 284.727273 30.360175 
L 288 31.674328 
L 291.272727 33.296506 
L 294.545455 34.064969 
L 297.818182 36.168348 
L 298.294794 36.127924 
L 301.090909 32.819501 
L 304.363636 35.312825 
L 314.214494 42.696637 
L 317.454545 44.854119 
L 320.727273 46.348397 
L 324 47.491506 
L 327.745601 49.265351 
L 330.545455 49.665559 
L 332.543554 49.265351 
L 333.818182 48.749409 
L 335.631871 49.498773 
M 351.593539 60.015451 
L 353.454545 60.819295 
L 360 63.25368 
L 363.272727 63.488384 
L 365.204019 62.402778 
L 366.545455 62.154544 
L 380.225068 72.255848 
L 382.909091 73.852882 
L 386.181818 75.12206 
L 386.786043 75.540204 
L 389.454545 76.666353 
L 392.727273 77.180232 
L 396 78.88505 
L 396.346313 78.824561 
L 399.272727 77.363319 
L 402.545455 78.621381 
L 402.753582 78.824561 
L 412.363636 86.38448 
L 416.462463 88.677631 
L 418.909091 89.768938 
L 422.181818 90.639918 
L 424.109741 91.961988 
L 425.454545 92.509305 
L 428.727273 92.193002 
L 429.356634 91.961988 
L 432 91.418359 
L 441.951113 98.530701 
L 445.090909 101.001707 
L 448.363636 102.860731 
L 451.636364 104.029163 
L 453.298997 105.099415 
L 454.909091 105.829755 
L 458.181818 106.225031 
L 461.454545 108.040081 
L 464.727273 106.43204 
L 468 108.003267 
L 468.411972 108.383772 
L 477.818182 115.871262 
L 484.363636 119.352972 
L 487.636364 120.359643 
L 489.524043 121.521198 
L 490.909091 122.02671 
L 493.808828 121.521198 
L 494.181818 120.343354 
L 497.454545 121.083619 
L 497.900412 121.521198 
L 510.545455 132.255342 
L 513.818182 133.804516 
L 515.109386 134.658625 
L 517.090909 135.672922 
L 520.363636 136.550169 
L 522.821541 137.942982 
L 523.636364 138.212706 
L 525.028807 137.942982 
L 526.909091 136.663963 
L 530.181818 138.134041 
L 533.854259 141.227339 
L 541.42502 147.796052 
L 543.272727 149.12105 
L 546.545455 150.621619 
L 547.20347 151.080409 
L 549.818182 152.28649 
L 553.090909 153.621451 
L 556.363636 154.432387 
L 556.633682 154.364765 
L 559.636364 153.464591 
L 560.810632 154.364765 
L 562.909091 155.75664 
L 569.454545 160.972711 
L 573.249882 164.217836 
L 576 165.974998 
L 576 165.974998 
" clip-path="url(#p2f8bda8df5)" style="fill: none"/>
    <path d="M 218.307726 0 
L 219.272727 0.699477 
L 222.545455 1.9102 
L 225.818182 3.686873 
L 229.090909 4.08605 
L 232.363636 4.169379 
L 232.800961 3.284357 
L 235.636364 2.77722 
L 236.204514 3.284357 
L 245.454545 10.366529 
L 252 15.21981 
L 255.272727 16.785794 
L 258.545455 17.678968 
L 261.818182 19.591298 
L 265.090909 17.263271 
L 268.363636 18.194626 
L 271.636364 19.779749 
L 274.909091 22.179504 
L 275.772694 22.990497 
L 281.454545 27.460818 
L 284.727273 29.808039 
L 291.272727 32.409371 
L 292.321436 32.843567 
L 294.545455 33.261452 
L 296.739543 32.843567 
L 297.818182 30.166545 
L 301.090909 32.058574 
L 304.363636 34.585875 
L 317.454545 44.299809 
L 320.727273 45.50029 
L 321.505308 45.980994 
L 324 46.835854 
L 327.272727 47.071676 
L 330.545455 45.59344 
L 333.818182 47.023944 
L 337.090909 48.801489 
L 337.553218 49.265351 
L 343.636364 54.08328 
L 346.909091 56.657065 
L 350.884604 59.118421 
L 353.454545 60.256819 
L 356.727273 60.789373 
L 359.499106 62.402778 
L 360 62.55832 
L 360.952758 62.402778 
L 362.174943 59.118421 
L 363.272727 58.863738 
L 363.543822 59.118421 
L 373.090909 66.19218 
L 376.818992 68.971491 
L 381.172616 72.255848 
L 382.909091 73.289076 
L 386.181818 74.16788 
L 388.164849 75.540204 
L 389.454545 76.084476 
L 392.727273 75.755989 
L 393.357757 75.540204 
L 396 74.274955 
L 399.404073 75.540204 
L 400.213277 76.134488 
M 415.648077 87.450981 
L 417.709644 88.677631 
L 418.909091 89.212639 
L 422.181818 89.636916 
L 425.454545 90.970539 
L 426.237124 88.677631 
L 428.727273 88.114737 
L 429.431512 88.677631 
L 435.272727 92.893415 
L 441.818182 97.590223 
L 442.763425 98.530701 
L 445.090909 100.362421 
L 448.363636 102.289664 
L 451.636364 103.218758 
L 454.909091 105.258688 
L 457.927784 105.099415 
L 458.181818 104.78073 
L 461.454545 103.189082 
L 464.727273 104.622942 
L 465.196857 105.099415 
L 468 107.237505 
L 469.241063 108.383772 
L 477.818182 115.211292 
L 481.090909 116.827272 
L 483.312536 118.236842 
L 484.363636 118.756919 
L 487.636364 119.098309 
L 490.557818 118.236842 
L 490.909091 117.053694 
L 494.181818 117.446599 
L 494.960657 118.236842 
L 497.454545 120.31512 
L 498.683466 121.521198 
L 510.545455 131.641586 
L 513.818182 133.033527 
L 517.090909 135.076305 
L 520.363636 135.153157 
L 521.851035 134.658625 
L 523.636364 132.75675 
L 526.909091 134.319778 
L 527.242292 134.658625 
L 530.181818 137.1036 
L 531.009197 137.942982 
L 533.454545 140.041637 
L 534.625238 141.227339 
L 542.245575 147.796052 
L 543.272727 148.532627 
L 546.545455 149.63402 
L 548.619925 151.080409 
L 549.818182 151.633126 
L 553.090909 151.266082 
L 553.424117 151.080409 
L 556.363636 150.03415 
L 557.811004 151.080409 
L 559.636364 152.19441 
L 566.181818 157.268383 
L 566.556657 157.649122 
L 569.454545 160.066112 
L 570.310307 160.933479 
L 574.174437 164.217836 
L 576 165.384262 
L 576 165.384262 
" clip-path="url(#p2f8bda8df5)" style="fill: none"/>
    <path d="M 576 16.422653 
L 574.85811 16.160936 
M 556.912804 10.215915 
L 556.363636 10.099967 
L 555.963378 9.85307 
L 553.090909 7.619068 
L 551.055275 6.568713 
L 549.818182 5.705164 
L 545.464833 3.284357 
L 540.289633 0 
M 219.072638 0 
L 219.272727 0.145034 
L 222.545455 1.208495 
L 225.818182 2.602395 
L 229.090909 1.961582 
L 230.063759 0 
M 232.923646 0 
L 234.682911 1.292263 
M 249.755606 12.965722 
L 249.92716 13.137427 
L 252 14.6177 
L 256.354937 16.421784 
L 258.545455 16.926963 
L 261.26726 16.421784 
L 261.818182 14.992215 
L 265.090909 15.086621 
L 268.363636 16.714197 
L 271.636364 18.765183 
L 272.577857 19.70614 
L 274.909091 21.442457 
L 276.557554 22.990497 
L 281.454545 26.843312 
L 285.656457 29.55921 
L 288 30.424814 
L 291.272727 30.638824 
L 293.845049 29.55921 
L 294.545455 27.820732 
L 297.818182 28.602604 
L 298.773637 29.55921 
L 307.636364 36.312966 
L 310.909091 38.481989 
L 311.838287 39.412281 
L 314.181818 41.136807 
L 315.87939 42.696637 
L 317.454545 43.7455 
L 320.727273 44.318138 
L 323.418661 45.980994 
L 324 46.180202 
L 325.295959 45.980994 
L 326.572836 42.696637 
L 327.272727 42.429833 
L 330.545455 43.920875 
L 333.818182 45.476813 
L 334.320719 45.980994 
L 337.090909 47.914668 
L 338.437071 49.265351 
L 340.363636 50.747458 
L 343.636364 53.453065 
L 346.909091 56.02685 
L 350.181818 57.725197 
L 352.154399 59.118421 
L 353.454545 59.694342 
L 356.727273 59.485959 
L 357.927686 59.118421 
L 359.144716 55.834064 
L 360 55.542839 
L 360.289272 55.834064 
L 363.272727 57.880544 
L 364.590373 59.118421 
L 369.818182 62.997392 
L 373.090909 65.182116 
L 373.592653 65.687134 
L 376.363636 67.595843 
L 377.731641 68.971491 
L 382.120164 72.255848 
L 382.909091 72.725271 
L 386.181818 73.2137 
L 389.454545 74.794411 
L 390.367916 72.255848 
L 392.727273 71.170366 
L 396 72.282256 
L 399.272727 74.344191 
L 400.458164 75.540204 
L 402.545455 77.073121 
L 404.33954 78.824561 
L 409.090909 82.562309 
L 412.363636 84.828746 
L 412.982275 85.393275 
L 415.636364 86.701928 
L 418.909091 88.555785 
L 422.181818 88.136415 
L 423.109462 85.393275 
L 425.454545 84.628436 
L 426.208313 85.393275 
L 428.727273 87.165278 
L 432 89.684963 
L 435.272727 92.009395 
L 438.545455 94.06312 
L 439.713873 95.246345 
L 441.818182 96.782006 
L 443.575737 98.530701 
L 445.090909 99.723135 
L 448.97718 101.815058 
L 451.636364 102.408352 
L 454.816586 101.815058 
L 454.909091 101.522048 
L 458.181818 99.944304 
L 461.454545 101.147958 
L 462.108466 101.815058 
L 464.727273 103.60426 
L 466.20081 105.099415 
L 468 106.471742 
L 470.070153 108.383772 
L 474.545455 111.946181 
L 477.818182 114.128648 
L 478.783534 114.952485 
L 484.363636 117.724893 
L 487.30649 114.952485 
L 487.636364 113.837712 
L 490.909091 113.821711 
L 492.018516 114.952485 
L 494.181818 116.510914 
L 495.882838 118.236842 
L 497.454545 119.546621 
L 499.466519 121.521198 
L 507.272727 128.197316 
L 511.621617 131.374269 
L 513.818182 132.262537 
L 517.090909 133.204452 
L 518.67276 131.374269 
L 519.980069 128.089912 
L 520.363636 127.923004 
L 520.526045 128.089912 
L 523.636364 130.370855 
L 524.619348 131.374269 
L 526.909091 133.191198 
L 528.352064 134.658625 
L 530.181818 136.180538 
L 531.919058 137.942982 
L 533.454545 139.260773 
L 535.396218 141.227339 
L 540 145.309477 
L 543.272727 147.944204 
L 546.545455 148.646421 
L 549.818182 149.040064 
L 550.214256 147.796052 
L 553.090909 146.537623 
L 554.999409 147.796052 
L 556.363636 148.529662 
L 559.871534 151.080409 
L 562.909091 153.327097 
L 563.927275 154.364765 
L 566.181818 156.161925 
L 567.645967 157.649122 
L 569.454545 159.157571 
L 571.206691 160.933479 
L 575.098993 164.217836 
L 576 164.793526 
L 576 164.793526 
" clip-path="url(#p2f8bda8df5)" style="fill: none"/>
    <path d="M 576 46.723054 
L 569.454545 42.404178 
L 566.181818 41.730444 
L 562.909091 41.597057 
L 559.636364 41.311917 
L 556.363636 39.742372 
L 555.977068 39.412281 
L 551.117868 35.613556 
M 534.845802 26.27434 
L 530.181818 26.343576 
L 526.902301 26.274854 
L 517.090909 18.607102 
L 507.272727 12.387133 
L 504 11.19687 
L 500.727273 11.285233 
L 497.454545 10.870242 
L 493.98078 9.85307 
L 489.962248 6.568713 
L 487.636364 4.776677 
L 484.363636 2.796075 
L 480.467461 0 
M 220.927226 0 
L 222.545455 0.50679 
L 225.692566 0 
M 233.99179 0 
L 235.636364 1.208017 
L 238.909091 4.014313 
L 242.369091 6.568713 
L 245.454545 8.344615 
L 246.963379 9.85307 
L 248.727273 11.092603 
L 250.7703 13.137427 
L 252 14.01559 
L 255.272727 14.332059 
L 258.357652 13.137427 
L 258.545455 12.663878 
L 261.818182 11.919318 
L 265.090909 13.638959 
L 268.363636 15.215843 
L 269.572855 16.421784 
L 271.636364 17.776164 
L 273.567439 19.70614 
L 274.909091 20.70541 
L 278.181818 23.650916 
L 281.639991 26.274854 
L 284.727273 27.787213 
L 287.347929 29.55921 
L 288 29.800057 
L 289.626382 29.55921 
L 291.272727 25.474899 
L 294.545455 24.974064 
L 295.846213 26.274854 
L 297.818182 27.587093 
L 299.787925 29.55921 
L 303.984909 32.843567 
L 304.363636 33.131976 
L 307.636364 34.909623 
L 308.854859 36.127924 
L 310.909091 37.441304 
L 312.877746 39.412281 
L 314.181818 40.371903 
L 316.711838 42.696637 
L 317.454545 43.191191 
L 320.727273 43.135985 
L 322.312504 42.696637 
L 323.58682 39.412281 
L 324 39.165891 
L 324.332227 39.412281 
L 327.272727 40.807021 
L 330.545455 42.089469 
L 331.150775 42.696637 
L 333.818182 44.202192 
L 335.591182 45.980994 
L 337.090909 47.027847 
L 339.320925 49.265351 
L 340.363636 50.067509 
L 343.636364 52.82285 
L 346.909091 54.605163 
L 348.169167 55.834064 
L 350.181818 56.828347 
L 353.559983 59.118421 
L 354.901102 55.834064 
L 356.114489 52.549707 
L 356.727273 52.157729 
L 357.115538 52.549707 
L 359.256217 53.700106 
M 374.373752 65.132288 
L 374.925001 65.687134 
L 376.363636 66.678095 
L 378.644289 68.971491 
L 379.636364 69.729763 
L 382.909091 71.808082 
L 386.197884 72.255848 
L 387.376798 68.971491 
L 389.454545 67.848122 
L 392.727273 69.260145 
L 396 70.580033 
L 397.655735 72.255848 
L 399.272727 73.280695 
L 401.512255 75.540204 
L 402.545455 76.298992 
L 405.818182 79.36395 
L 409.090909 81.383628 
L 409.804133 82.108918 
L 412.363636 83.455362 
L 414.487298 85.393275 
L 415.636364 85.959845 
L 418.909091 85.310392 
L 419.981111 82.108918 
L 422.181818 80.821673 
L 423.439478 82.108918 
L 425.454545 83.258925 
L 427.557998 85.393275 
L 428.727273 86.21582 
L 432 88.818265 
L 435.272727 90.228661 
L 436.974661 91.961988 
L 438.545455 92.94159 
L 440.821368 95.246345 
L 441.818182 95.973789 
L 445.090909 99.083849 
L 448.363636 99.797845 
L 451.553311 98.530701 
L 451.636364 98.264063 
L 454.909091 96.697822 
L 458.181818 97.301994 
L 459.367478 98.530701 
L 461.454545 99.626891 
L 463.599484 101.815058 
L 464.727273 102.585578 
L 467.204763 105.099415 
L 468 105.70598 
L 471.272727 108.68107 
L 474.545455 110.269118 
L 475.903931 111.668128 
L 477.818182 112.773317 
L 480.371678 114.952485 
L 481.090909 115.298628 
L 483.034438 114.952485 
L 484.363636 110.621731 
L 487.636364 109.727262 
L 489.51954 111.668128 
L 490.909091 112.497863 
L 493.317369 114.952485 
L 494.181818 115.575228 
L 497.454545 118.778122 
L 500.727273 121.929743 
L 504 124.335668 
L 504.445707 124.805555 
L 507.272727 126.330875 
L 508.981359 128.089912 
L 510.545455 129.171904 
L 513.818182 131.491548 
L 514.460843 131.374269 
L 516.471193 124.805555 
L 517.090909 124.042436 
L 517.807994 124.805555 
L 520.363636 125.888442 
L 522.505771 128.089912 
L 523.636364 128.919029 
L 526.041614 131.374269 
L 526.909091 132.062618 
L 532.828919 137.942982 
L 533.454545 138.479909 
L 536.727273 141.718873 
L 540 144.644022 
L 543.272727 146.124178 
L 546.545455 145.955616 
L 547.0041 144.511695 
L 549.818182 142.699206 
L 553.090909 144.692832 
L 556.363636 146.159795 
L 557.938883 147.796052 
L 559.636364 148.878636 
L 561.784117 151.080409 
L 562.909091 151.912481 
L 565.31533 154.364765 
L 566.181818 155.055468 
L 572.103076 160.933479 
L 572.727273 161.470145 
L 576 164.083783 
L 576 164.083783 
" clip-path="url(#p2f8bda8df5)" style="fill: none"/>
    <path d="M 235.059934 0 
L 235.636364 0.423415 
L 238.841508 3.284357 
L 238.909091 3.336473 
L 242.181818 4.302468 
L 244.454964 6.568713 
L 245.454545 7.144045 
L 248.164249 9.85307 
L 248.727273 10.248721 
L 251.61344 13.137427 
L 252 13.41348 
L 254.152512 13.137427 
L 255.272727 10.417921 
L 255.48216 9.85307 
L 258.545455 7.756489 
L 260.660017 9.85307 
L 261.818182 10.440277 
L 265.090909 11.093635 
L 267.154268 13.137427 
L 268.363636 13.713077 
L 271.079706 16.421784 
L 271.636364 16.787145 
L 274.557022 19.70614 
L 274.909091 19.968363 
L 278.127275 22.990497 
L 278.181818 23.03341 
L 281.454545 23.769893 
L 283.974734 26.274854 
L 284.727273 26.643498 
L 286.420849 26.274854 
L 288 23.129015 
L 288.055814 22.990497 
L 291.272727 20.649438 
L 293.622112 22.990497 
L 294.545455 23.447967 
L 297.372272 26.274854 
L 297.818182 26.571583 
L 300.802213 29.55921 
L 301.090909 29.775793 
L 304.363636 30.592642 
L 306.625779 32.843567 
L 307.636364 33.282167 
L 310.482574 36.127924 
L 310.909091 36.400619 
L 313.917205 39.412281 
L 314.181818 39.607 
L 317.454545 41.673042 
L 318.831143 39.412281 
L 320.351555 36.127924 
L 320.727273 35.699865 
L 321.156738 36.127924 
L 324 36.628529 
L 327.272727 37.983951 
L 328.699189 39.412281 
L 330.545455 39.824316 
L 333.409033 42.696637 
L 333.818182 42.927572 
L 336.861646 45.980994 
L 337.090909 46.141026 
L 340.204778 49.265351 
L 340.363636 49.38756 
L 343.636364 49.994133 
L 346.185117 52.549707 
L 346.909091 52.834652 
L 349.984592 55.834064 
L 350.181818 55.931497 
L 350.64455 55.834064 
L 351.072403 52.549707 
L 352.051082 49.265351 
L 353.454545 47.342572 
L 355.307441 49.265351 
L 356.727273 49.44685 
L 359.80074 52.549707 
L 360 52.65679 
L 363.155965 55.834064 
L 363.272727 55.914156 
L 366.545455 56.837423 
L 368.734738 59.118421 
L 369.818182 59.280872 
L 372.912023 62.402778 
L 373.090909 62.50003 
L 376.257349 65.687134 
L 376.363636 65.760347 
L 379.556937 68.971491 
L 379.636364 69.032199 
L 382.909091 69.133294 
L 383.165524 68.971491 
L 383.093742 65.687134 
L 382.909091 63.614593 
L 381.509928 62.402778 
L 379.636364 60.780083 
L 377.717807 59.118421 
L 376.363636 57.945574 
L 373.925685 55.834064 
L 373.090909 54.997983 
L 370.192175 52.549707 
L 369.818182 52.135082 
L 366.545455 49.520802 
L 366.230842 49.265351 
L 363.272727 46.880415 
L 362.166846 45.980994 
L 360 44.218842 
L 358.128414 42.696637 
L 356.727273 41.068787 
L 355.773412 39.412281 
L 356.4888 36.127924 
L 356.727273 35.869193 
L 360 35.496126 
L 361.266215 36.127924 
L 363.272727 37.129105 
L 366.545455 37.464282 
L 369.818182 37.663805 
L 372.80507 36.127924 
L 373.090909 35.900941 
L 376.363636 34.801686 
L 379.451454 32.843567 
L 379.636364 32.777152 
L 379.777241 32.843567 
L 382.909091 34.037804 
L 386.181818 34.712523 
L 389.454545 35.581584 
L 390.588366 36.127924 
L 392.727273 37.158571 
L 396 38.379386 
L 399.272727 37.963697 
L 402.545455 37.278307 
L 405.818182 36.438648 
L 409.090909 37.271847 
L 412.363636 38.249675 
L 415.636364 37.605976 
L 415.953268 36.127924 
L 415.636364 35.8573 
L 412.363636 34.350655 
L 411.644421 32.843567 
L 409.090909 31.056656 
L 407.996445 29.55921 
L 405.818182 27.770366 
L 404.594781 26.274854 
L 402.545455 24.485181 
L 400.710833 22.990497 
L 399.272727 21.886326 
L 396.403796 19.70614 
L 396 19.399283 
L 392.727273 18.903436 
L 390.862085 19.70614 
L 389.454545 19.915213 
L 389.268894 19.70614 
L 386.181818 17.345819 
L 385.331579 16.421784 
L 382.909091 14.428898 
L 381.429348 13.137427 
L 380.433128 12.309305 
M 365.429946 0.516619 
L 364.712339 0 
M 418.909091 40.200166 
L 419.34381 39.412281 
L 418.909091 39.051334 
L 417.321314 39.412281 
L 418.909091 40.200166 
z
" clip-path="url(#p2f8bda8df5)" style="fill: none"/>
    <path clip-path="url(#p2f8bda8df5)" style="fill: none"/>
    <path clip-path="url(#p2f8bda8df5)" style="fill: none"/>
    <path clip-path="url(#p2f8bda8df5)" style="fill: none"/>
    <path clip-path="url(#p2f8bda8df5)" style="fill: none"/>
    <path clip-path="url(#p2f8bda8df5)" style="fill: none"/>
    <path clip-path="url(#p2f8bda8df5)" style="fill: none"/>
    <path clip-path="url(#p2f8bda8df5)" style="fill: none"/>
    <path clip-path="url(#p2f8bda8df5)" style="fill: none"/>
    <path clip-path="url(#p2f8bda8df5)" style="fill: none"/>
    <path clip-path="url(#p2f8bda8df5)" style="fill: none"/>
    <path clip-path="url(#p2f8bda8df5)" style="fill: none"/>
    <path clip-path="url(#p2f8bda8df5)" style="fill: none"/>
    <path clip-path="url(#p2f8bda8df5)" style="fill: none"/>
    <path clip-path="url(#p2f8bda8df5)" style="fill: none"/>
    <path clip-path="url(#p2f8bda8df5)" style="fill: none"/>
    <path clip-path="url(#p2f8bda8df5)" style="fill: none"/>
    <path clip-path="url(#p2f8bda8df5)" style="fill: none"/>
    <path clip-path="url(#p2f8bda8df5)" style="fill: none"/>
    <path clip-path="url(#p2f8bda8df5)" style="fill: none"/>
    <path clip-path="url(#p2f8bda8df5)" style="fill: none"/>
    <path clip-path="url(#p2f8bda8df5)" style="fill: none"/>
    <path clip-path="url(#p2f8bda8df5)" style="fill: none"/>
    <path clip-path="url(#p2f8bda8df5)" style="fill: none"/>
    <path clip-path="url(#p2f8bda8df5)" style="fill: none"/>
    <path clip-path="url(#p2f8bda8df5)" style="fill: none"/>
    <path clip-path="url(#p2f8bda8df5)" style="fill: none"/>
    <path clip-path="url(#p2f8bda8df5)" style="fill: none"/>
    <path clip-path="url(#p2f8bda8df5)" style="fill: none"/>
    <path clip-path="url(#p2f8bda8df5)" style="fill: none"/>
    <path clip-path="url(#p2f8bda8df5)" style="fill: none"/>
    <path clip-path="url(#p2f8bda8df5)" style="fill: none"/>
    <path clip-path="url(#p2f8bda8df5)" style="fill: none"/>
   </g>
   <g id="text_1">
    <g clip-path="url(#p2f8bda8df5)">
     <!-- 0 -->
     <g style="opacity: 0" transform="translate(290.490215 37.8185) rotate(-338.60643) scale(0.12 -0.12)">
      <defs>
       <path id="DejaVuSans-30" d="M 2034 4250 
Q 1547 4250 1301 3770 
Q 1056 3291 1056 2328 
Q 1056 1369 1301 889 
Q 1547 409 2034 409 
Q 2525 409 2770 889 
Q 3016 1369 3016 2328 
Q 3016 3291 2770 3770 
Q 2525 4250 2034 4250 
z
M 2034 4750 
Q 2819 4750 3233 4129 
Q 3647 3509 3647 2328 
Q 3647 1150 3233 529 
Q 2819 -91 2034 -91 
Q 1250 -91 836 529 
Q 422 1150 422 2328 
Q 422 3509 836 4129 
Q 1250 4750 2034 4750 
z
" transform="scale(0.015625)"/>
      </defs>
      <use xlink:href="#DejaVuSans-30"/>
     </g>
    </g>
   </g>
   <g id="text_2">
    <g clip-path="url(#p2f8bda8df5)">
     <!-- 1 -->
     <g style="opacity: 0" transform="translate(305.874116 41.414102) rotate(-323.967207) scale(0.12 -0.12)">
      <defs>
       <path id="DejaVuSans-31" d="M 794 531 
L 1825 531 
L 1825 4091 
L 703 3866 
L 703 4441 
L 1819 4666 
L 2450 4666 
L 2450 531 
L 3481 531 
L 3481 0 
L 794 0 
L 794 531 
z
" transform="scale(0.015625)"/>
      </defs>
      <use xlink:href="#DejaVuSans-31"/>
     </g>
    </g>
   </g>
   <g id="text_3">
    <g clip-path="url(#p2f8bda8df5)">
     <!-- 2 -->
     <g style="opacity: 0" transform="translate(338.593627 55.042874) rotate(-322.799159) scale(0.12 -0.12)">
      <defs>
       <path id="DejaVuSans-32" d="M 1228 531 
L 3431 531 
L 3431 0 
L 469 0 
L 469 531 
Q 828 903 1448 1529 
Q 2069 2156 2228 2338 
Q 2531 2678 2651 2914 
Q 2772 3150 2772 3378 
Q 2772 3750 2511 3984 
Q 2250 4219 1831 4219 
Q 1534 4219 1204 4116 
Q 875 4013 500 3803 
L 500 4441 
Q 881 4594 1212 4672 
Q 1544 4750 1819 4750 
Q 2544 4750 2975 4387 
Q 3406 4025 3406 3419 
Q 3406 3131 3298 2873 
Q 3191 2616 2906 2266 
Q 2828 2175 2409 1742 
Q 1991 1309 1228 531 
z
" transform="scale(0.015625)"/>
      </defs>
      <use xlink:href="#DejaVuSans-32"/>
     </g>
    </g>
   </g>
   <g id="text_4">
    <g clip-path="url(#p2f8bda8df5)">
     <!-- 3 -->
     <g style="opacity: 0" transform="translate(402.674697 82.36697) rotate(-321.989089) scale(0.12 -0.12)">
      <defs>
       <path id="DejaVuSans-33" d="M 2597 2516 
Q 3050 2419 3304 2112 
Q 3559 1806 3559 1356 
Q 3559 666 3084 287 
Q 2609 -91 1734 -91 
Q 1441 -91 1130 -33 
Q 819 25 488 141 
L 488 750 
Q 750 597 1062 519 
Q 1375 441 1716 441 
Q 2309 441 2620 675 
Q 2931 909 2931 1356 
Q 2931 1769 2642 2001 
Q 2353 2234 1838 2234 
L 1294 2234 
L 1294 2753 
L 1863 2753 
Q 2328 2753 2575 2939 
Q 2822 3125 2822 3475 
Q 2822 3834 2567 4026 
Q 2313 4219 1838 4219 
Q 1578 4219 1281 4162 
Q 984 4106 628 3988 
L 628 4550 
Q 988 4650 1302 4700 
Q 1616 4750 1894 4750 
Q 2613 4750 3031 4423 
Q 3450 4097 3450 3541 
Q 3450 3153 3228 2886 
Q 3006 2619 2597 2516 
z
" transform="scale(0.015625)"/>
      </defs>
      <use xlink:href="#DejaVuSans-33"/>
     </g>
    </g>
   </g>
   <g id="text_5">
    <g clip-path="url(#p2f8bda8df5)">
     <!-- 4 -->
     <g style="opacity: 0" transform="translate(561.419087 14.04297) rotate(-338.592283) scale(0.12 -0.12)">
      <defs>
       <path id="DejaVuSans-34" d="M 2419 4116 
L 825 1625 
L 2419 1625 
L 2419 4116 
z
M 2253 4666 
L 3047 4666 
L 3047 1625 
L 3713 1625 
L 3713 1100 
L 3047 1100 
L 3047 0 
L 2419 0 
L 2419 1100 
L 313 1100 
L 313 1709 
L 2253 4666 
z
" transform="scale(0.015625)"/>
      </defs>
      <use xlink:href="#DejaVuSans-34"/>
     </g>
    </g>
   </g>
   <g id="text_6">
    <g clip-path="url(#p2f8bda8df5)">
     <!-- 4 -->
     <g style="opacity: 0" transform="translate(237.141677 7.558383) rotate(-323.226233) scale(0.12 -0.12)">
      <use xlink:href="#DejaVuSans-34"/>
     </g>
    </g>
   </g>
   <g id="text_7">
    <g clip-path="url(#p2f8bda8df5)">
     <!-- 5 -->
     <g style="opacity: 0" transform="translate(538.274513 30.936047) rotate(-327.543648) scale(0.12 -0.12)">
      <defs>
       <path id="DejaVuSans-35" d="M 691 4666 
L 3169 4666 
L 3169 4134 
L 1269 4134 
L 1269 2991 
Q 1406 3038 1543 3061 
Q 1681 3084 1819 3084 
Q 2600 3084 3056 2656 
Q 3513 2228 3513 1497 
Q 3513 744 3044 326 
Q 2575 -91 1722 -91 
Q 1428 -91 1123 -41 
Q 819 9 494 109 
L 494 744 
Q 775 591 1075 516 
Q 1375 441 1709 441 
Q 2250 441 2565 725 
Q 2881 1009 2881 1497 
Q 2881 1984 2565 2268 
Q 2250 2553 1709 2553 
Q 1456 2553 1204 2497 
Q 953 2441 691 2322 
L 691 4666 
z
" transform="scale(0.015625)"/>
      </defs>
      <use xlink:href="#DejaVuSans-35"/>
     </g>
    </g>
   </g>
   <g id="text_8">
    <g clip-path="url(#p2f8bda8df5)">
     <!-- 5 -->
     <g style="opacity: 0" transform="translate(361.503859 60.146219) rotate(-322.992611) scale(0.12 -0.12)">
      <use xlink:href="#DejaVuSans-35"/>
     </g>
    </g>
   </g>
   <g id="text_9">
    <g clip-path="url(#p2f8bda8df5)">
     <!-- 6 -->
     <g style="opacity: 0" transform="translate(368.041959 6.419966) rotate(-321.488824) scale(0.12 -0.12)">
      <defs>
       <path id="DejaVuSans-36" d="M 2113 2584 
Q 1688 2584 1439 2293 
Q 1191 2003 1191 1497 
Q 1191 994 1439 701 
Q 1688 409 2113 409 
Q 2538 409 2786 701 
Q 3034 994 3034 1497 
Q 3034 2003 2786 2293 
Q 2538 2584 2113 2584 
z
M 3366 4563 
L 3366 3988 
Q 3128 4100 2886 4159 
Q 2644 4219 2406 4219 
Q 1781 4219 1451 3797 
Q 1122 3375 1075 2522 
Q 1259 2794 1537 2939 
Q 1816 3084 2150 3084 
Q 2853 3084 3261 2657 
Q 3669 2231 3669 1497 
Q 3669 778 3244 343 
Q 2819 -91 2113 -91 
Q 1303 -91 875 529 
Q 447 1150 447 2328 
Q 447 3434 972 4092 
Q 1497 4750 2381 4750 
Q 2619 4750 2861 4703 
Q 3103 4656 3366 4563 
z
" transform="scale(0.015625)"/>
      </defs>
      <use xlink:href="#DejaVuSans-36"/>
     </g>
    </g>
   </g>
  </g>
 </g>
 <defs>
  <clipPath id="p2f8bda8df5">
   <rect x="0" y="0" width="576" height="817.804821"/>
  </clipPath>
 </defs>
</svg>
