<?xml version="1.0" encoding="utf-8" standalone="no"?>
<!DOCTYPE svg PUBLIC "-//W3C//DTD SVG 1.1//EN"
  "http://www.w3.org/Graphics/SVG/1.1/DTD/svg11.dtd">
<svg xmlns:xlink="http://www.w3.org/1999/xlink" width="576pt" height="814.942675pt" viewBox="0 0 576 814.942675" xmlns="http://www.w3.org/2000/svg" version="1.1">
 <metadata>
  <rdf:RDF xmlns:dc="http://purl.org/dc/elements/1.1/" xmlns:cc="http://creativecommons.org/ns#" xmlns:rdf="http://www.w3.org/1999/02/22-rdf-syntax-ns#">
   <cc:Work>
    <dc:type rdf:resource="http://purl.org/dc/dcmitype/StillImage"/>
    <dc:date>2025-07-25T22:45:13.147185</dc:date>
    <dc:format>image/svg+xml</dc:format>
    <dc:creator>
     <cc:Agent>
      <dc:title>Matplotlib v3.10.3, https://matplotlib.org/</dc:title>
     </cc:Agent>
    </dc:creator>
   </cc:Work>
  </rdf:RDF>
 </metadata>
 <defs>
  <style type="text/css">*{stroke-linejoin: round; stroke-linecap: butt}</style>
 </defs>
 <g id="figure_1">
  <g id="patch_1">
   <path d="M 0 814.942675 
L 576 814.942675 
L 576 0 
L 0 0 
L 0 814.942675 
z
" style="fill: none; opacity: 0"/>
  </g>
  <g id="axes_1">
   <g id="QuadContourSet_1">
    <path d="M 3.272727 763.701295 
L 6.545455 763.137912 
L 8.946219 762.576881 
L 9.818182 762.229797 
L 13.090909 761.359189 
L 16.363636 760.908171 
L 19.636364 760.267037 
L 22.909091 759.655447 
L 24.231963 759.304019 
L 26.181818 758.640898 
L 29.454545 757.987916 
L 32.727273 757.566051 
L 36 756.971309 
L 39.272727 756.348834 
L 40.394737 756.031157 
L 42.545455 755.29579 
L 45.818182 754.619879 
L 49.090909 754.199745 
L 52.363636 753.682091 
L 55.636364 752.922281 
L 56.141634 752.758294 
L 58.909091 751.822441 
L 62.181818 751.234725 
L 65.454545 750.824946 
L 68.727273 750.247805 
L 71.546797 749.485432 
L 72 749.278273 
L 75.272727 748.334194 
L 78.545455 747.841154 
L 81.818182 747.530143 
L 85.090909 746.963384 
L 87.668765 746.21257 
L 88.363636 745.887366 
L 91.636364 744.954355 
L 94.909091 744.476274 
L 98.181818 744.235809 
L 101.454545 743.614022 
L 103.588804 742.939708 
L 104.727273 742.419469 
L 108 741.563473 
L 111.272727 741.118656 
L 114.545455 740.959136 
L 117.818182 740.237661 
L 119.379562 739.666846 
L 121.090909 738.892702 
L 124.363636 738.146935 
L 127.636364 737.810355 
L 130.909091 737.682858 
L 134.181818 736.946519 
L 135.641138 736.393984 
L 137.454545 735.579232 
L 140.727273 734.821673 
L 144 734.552637 
L 147.272727 734.420484 
L 150.545455 733.578596 
L 151.666973 733.121122 
L 153.818182 732.185637 
L 157.090909 731.494476 
L 160.363636 731.290764 
L 163.636364 731.181804 
L 166.909091 730.363181 
L 168.123441 729.848259 
L 170.181818 728.914835 
L 173.454545 728.190744 
L 176.727273 728.025939 
L 180 728.030816 
L 183.272727 727.659247 
L 186.545455 726.811139 
L 187.15484 726.575397 
L 189.818182 725.600155 
L 193.090909 724.99839 
L 196.363636 724.755073 
L 199.636364 724.754054 
L 202.909091 724.490629 
L 206.181818 723.744972 
L 207.428814 723.302535 
L 209.454545 722.515219 
L 212.727273 721.814795 
L 216 721.486775 
L 219.272727 721.46284 
L 222.545455 721.377317 
L 225.818182 720.779886 
L 228.221409 720.029673 
L 229.090909 719.618999 
L 232.363636 718.84715 
L 235.636364 718.445483 
L 238.909091 718.255194 
L 242.181818 718.209818 
L 245.454545 717.907108 
L 248.727273 717.33152 
L 250.89973 716.756811 
L 252 716.357109 
L 255.272727 715.512328 
L 258.545455 715.055354 
L 261.818182 714.965306 
L 265.090909 714.910292 
L 268.363636 714.447602 
L 271.608299 713.483949 
L 271.636364 713.469999 
L 274.909091 712.453671 
L 278.181818 711.895664 
L 281.454545 711.559807 
L 284.727273 711.497369 
L 288 711.350437 
L 291.272727 710.734078 
L 293.09132 710.211087 
L 294.545455 709.630847 
L 297.818182 708.807189 
L 301.090909 708.318955 
L 304.363636 708.102209 
L 307.636364 708.00766 
L 310.909091 707.702835 
L 314.156373 706.938224 
L 314.181818 706.925577 
L 317.454545 705.792948 
L 320.727273 705.161824 
L 324 704.730607 
L 327.272727 704.5711 
L 330.545455 704.504817 
L 333.818182 704.443093 
L 337.090909 704.182928 
L 340.363636 703.775297 
L 341.10648 703.665362 
L 343.636364 703.050656 
L 346.909091 702.496463 
L 350.181818 702.100983 
L 353.454545 701.807363 
L 356.727273 701.570176 
L 360 701.372382 
L 363.272727 701.206801 
L 366.545455 701.066155 
L 369.818182 701.032431 
L 373.090909 701.001046 
L 376.363636 700.994717 
L 379.636364 701.005593 
L 382.909091 701.017642 
L 386.181818 701.031063 
L 389.454545 700.852102 
L 392.727273 700.588206 
L 394.595613 700.3925 
L 396 700.109709 
L 399.272727 700.181021 
L 400.138481 700.3925 
L 402.545455 700.727181 
L 405.818182 701.055764 
L 409.090909 700.933962 
L 412.363636 700.82414 
L 415.636364 700.724614 
L 418.909091 700.668179 
L 422.181818 700.657349 
L 425.454545 700.681928 
L 428.727273 700.71401 
L 432 700.757647 
L 435.272727 700.820455 
L 438.545455 700.90947 
L 441.818182 700.974215 
L 445.090909 700.91023 
L 448.363636 700.693293 
L 451.15038 700.3925 
L 451.636364 700.327391 
L 454.909091 699.860141 
L 458.181818 699.33622 
L 461.454545 698.744653 
L 464.727273 698.071434 
L 468 697.298407 
L 468.693543 697.119638 
L 471.272727 696.944798 
L 474.545455 696.732048 
L 477.818182 696.528846 
L 481.090909 696.334563 
L 484.363636 696.296056 
L 487.636364 696.294881 
L 490.909091 696.293546 
L 494.181818 696.292017 
L 497.454545 696.290247 
L 500.727273 696.288175 
L 504 696.283743 
L 507.272727 696.058531 
L 510.545455 695.825726 
L 513.818182 695.588465 
L 517.090909 695.36254 
L 520.363636 695.463435 
L 523.636364 695.632823 
L 526.909091 695.721417 
L 530.181818 695.502762 
L 533.454545 695.332114 
L 536.727273 695.136374 
L 540 694.964618 
L 543.272727 694.831579 
L 546.545455 694.508909 
L 549.818182 694.08852 
L 551.724483 693.846776 
L 553.090909 693.683071 
L 556.363636 693.682373 
L 557.793573 693.846776 
L 559.636364 694.120031 
L 562.909091 694.479236 
L 566.181818 694.762544 
L 569.454545 694.871042 
L 572.727273 694.692627 
L 576 694.655588 
L 576 693.846776 
L 576 690.573914 
L 576 687.301051 
L 576 684.028189 
L 576 680.755327 
L 576 677.482465 
L 576 674.209603 
L 576 670.936741 
L 576 667.663879 
L 576 664.391016 
L 576 662.697619 
L 572.727273 661.680021 
L 569.454545 661.143883 
L 569.11912 661.118154 
L 566.181818 660.862348 
L 562.909091 659.736315 
L 559.636364 659.035152 
L 556.363636 658.31192 
L 553.090909 658.0879 
L 550.807266 657.845292 
L 549.818182 657.711505 
L 546.545455 657.14351 
L 543.272727 657.355915 
L 540 657.542677 
L 536.727273 657.61447 
L 534.842347 657.845292 
L 533.454545 658.101789 
L 530.181818 658.600918 
L 526.909091 658.528009 
L 523.636364 658.172309 
L 521.654262 657.845292 
L 520.363636 657.714897 
L 517.090909 657.64739 
L 513.818182 657.771403 
L 512.586419 657.845292 
L 510.545455 658.202499 
L 507.272727 659.14007 
L 504.021658 661.118154 
L 504 661.128399 
L 500.727273 661.58907 
L 497.454545 662.238379 
L 494.181818 663.220848 
L 491.686495 664.391016 
L 494.181818 665.569378 
L 497.454545 667.495241 
L 497.703334 667.663879 
L 497.454545 668.289516 
L 496.626714 670.936741 
L 494.181818 673.271134 
L 493.034869 674.209603 
L 490.909091 675.187568 
L 487.636364 676.743379 
L 486.126662 677.482465 
L 484.363636 677.981727 
L 481.090909 678.940237 
L 477.818182 679.918233 
L 475.189967 680.755327 
L 474.545455 680.915885 
L 471.272727 681.721684 
L 468 682.511962 
L 464.727273 683.287425 
L 461.539336 684.028189 
L 461.454545 684.051047 
L 458.181818 684.918526 
L 454.909091 685.796271 
L 451.636364 686.643909 
L 449.000598 687.301051 
L 448.363636 687.403932 
L 445.090909 687.930692 
L 441.818182 688.444443 
L 438.545455 688.952782 
L 435.272727 689.468546 
L 432 689.991898 
L 428.727273 690.523008 
L 428.416114 690.573914 
L 425.454545 690.944879 
L 422.181818 691.345606 
L 418.909091 691.736988 
L 415.636364 692.118098 
L 412.363636 692.48991 
L 409.090909 692.86283 
L 405.818182 693.251711 
L 402.545455 693.521378 
L 399.272727 693.717678 
L 396.761096 693.846776 
L 396 693.870194 
L 392.727273 693.98159 
L 389.454545 694.113994 
L 386.181818 694.359015 
L 382.909091 694.916996 
L 379.636364 695.381101 
L 376.363636 695.70818 
L 373.090909 695.974525 
L 369.818182 696.194321 
L 366.545455 696.348017 
L 363.272727 696.584733 
L 360 696.816283 
L 356.763132 697.119638 
L 356.727273 697.124329 
L 353.454545 697.63869 
L 350.181818 698.132088 
L 346.909091 698.603231 
L 343.636364 699.022246 
L 340.363636 699.407603 
L 337.090909 699.726448 
L 333.818182 699.98984 
L 330.545455 700.215496 
L 327.864499 700.3925 
L 327.272727 700.450562 
L 324 701.065256 
L 320.727273 702.093896 
L 317.454545 703.017372 
L 314.181818 703.560454 
L 313.292525 703.665362 
L 310.909091 703.906582 
L 307.636364 704.664997 
L 304.363636 705.570565 
L 301.090909 706.505108 
L 299.585042 706.938224 
L 297.818182 707.01122 
L 294.545455 707.217949 
L 291.272727 707.593248 
L 288 708.893651 
L 285.159118 710.211087 
L 284.727273 710.240814 
L 281.454545 710.342614 
L 278.181818 710.482972 
L 274.909091 710.668878 
L 271.636364 710.982104 
L 268.363636 711.880053 
L 266.276341 713.483949 
L 265.090909 713.72145 
L 261.818182 713.811759 
L 258.545455 713.883416 
L 255.272727 714.056928 
L 252 714.370856 
L 248.727273 714.957803 
L 245.454545 716.738085 
L 245.43218 716.756811 
L 242.181818 717.206417 
L 238.909091 717.262662 
L 235.636364 717.37074 
L 232.363636 717.547996 
L 229.090909 717.872751 
L 225.818182 718.916983 
L 224.524158 720.029673 
L 222.545455 720.499477 
L 219.272727 720.61984 
L 216 720.644767 
L 212.727273 720.800842 
L 209.454545 721.116468 
L 206.181818 721.811795 
L 203.859572 723.302535 
L 202.909091 723.55326 
L 199.636364 723.93786 
L 196.363636 723.943168 
L 193.090909 724.055105 
L 189.818182 724.321089 
L 186.545455 724.908482 
L 183.677519 726.575397 
L 183.272727 726.688508 
L 180 727.227504 
L 176.727273 727.226649 
L 173.454545 727.299908 
L 170.181818 727.620352 
L 166.909091 728.475458 
L 165.26886 729.848259 
L 163.636364 730.333432 
L 160.363636 730.494219 
L 157.090909 730.582048 
L 153.818182 730.881775 
L 150.545455 731.663535 
L 148.758628 733.121122 
L 147.272727 733.565939 
L 144 733.757877 
L 140.727273 733.870964 
L 137.454545 734.194865 
L 134.181818 735.05744 
L 132.533115 736.393984 
L 130.909091 736.834077 
L 127.636364 737.018039 
L 124.363636 737.159835 
L 121.090909 737.475844 
L 117.818182 738.352692 
L 116.247412 739.666846 
L 114.545455 740.121826 
L 111.272727 740.301817 
L 108 740.488164 
L 104.727273 740.844475 
L 101.454545 741.819395 
L 100.142154 742.939708 
L 98.181818 743.409618 
L 94.909091 743.605436 
L 91.636364 743.802762 
L 88.363636 744.18786 
L 85.090909 745.270851 
L 84.037383 746.21257 
L 81.818182 746.712342 
L 78.545455 746.912689 
L 75.272727 747.114195 
L 72 747.4972 
L 68.727273 748.561738 
L 67.723607 749.485432 
L 65.454545 750.000553 
L 62.181818 750.230957 
L 58.909091 750.467162 
L 55.636364 750.948705 
L 52.363636 752.50273 
L 52.102998 752.758294 
L 49.090909 753.338947 
L 45.818182 753.544224 
L 42.545455 753.814569 
L 39.272727 754.342173 
L 36 755.954146 
L 35.926631 756.031157 
L 32.727273 756.667667 
L 29.454545 756.849964 
L 26.181818 757.105186 
L 22.909091 757.634167 
L 19.842987 759.304019 
L 19.636364 759.347817 
L 16.363636 759.956228 
L 13.090909 760.105023 
L 9.818182 760.392244 
L 6.545455 761.045439 
L 4.072788 762.576881 
L 3.272727 762.728023 
L 0 763.169771 
L 0 764.274725 
z
M 1.646838 746.21257 
L 3.272727 745.290108 
L 6.545455 744.207241 
L 9.707912 742.939708 
L 9.818182 742.847412 
L 13.090909 740.832694 
L 16.363636 739.858951 
L 16.793344 739.666846 
L 19.29578 736.393984 
L 19.636364 736.06817 
L 22.100069 733.121122 
L 22.909091 731.799285 
L 24.200297 729.848259 
L 25.551909 726.575397 
L 26.181818 726.07173 
L 29.454545 724.819031 
L 32.727273 723.867049 
L 33.520354 723.302535 
L 36 721.421157 
L 39.272727 720.094546 
L 39.648568 720.029673 
L 42.545455 719.362373 
L 45.818182 717.850547 
L 48.789795 716.756811 
L 49.090909 716.677106 
L 52.363636 715.623036 
L 55.636364 714.613864 
L 58.909091 714.171615 
L 62.181818 713.870826 
L 65.454545 713.652983 
L 67.029965 713.483949 
L 68.727273 713.258749 
L 72 712.278596 
L 75.272727 711.60712 
L 78.545455 711.304504 
L 81.818182 710.997915 
L 85.090909 710.277888 
L 85.376428 710.211087 
L 88.363636 709.565533 
L 91.636364 708.968476 
L 94.909091 708.563116 
L 98.181818 708.263708 
L 101.454545 707.925155 
L 104.727273 707.550145 
L 108 707.128745 
L 109.403305 706.938224 
L 111.272727 706.713019 
L 114.545455 706.329793 
L 117.818182 705.988485 
L 121.090909 705.740748 
L 124.363636 705.286506 
L 127.636364 704.80556 
L 130.909091 704.402069 
L 134.181818 703.963881 
L 136.521326 703.665362 
L 137.454545 703.521086 
L 140.727273 702.95729 
L 144 702.306672 
L 147.272727 701.748953 
L 150.545455 701.277105 
L 153.818182 700.856548 
L 157.090909 700.451597 
L 157.419182 700.3925 
L 160.363636 699.810034 
L 163.636364 699.241296 
L 166.909091 698.745555 
L 170.181818 698.274498 
L 173.454545 697.656827 
L 176.481978 697.119638 
L 176.727273 697.075019 
L 180 696.404997 
L 183.272727 695.646653 
L 186.545455 695.021106 
L 189.818182 694.442705 
L 192.829417 693.846776 
L 193.090909 693.803911 
L 196.363636 693.226357 
L 199.636364 692.584595 
L 202.909091 691.860422 
L 206.181818 691.176177 
L 209.225477 690.573914 
L 209.454545 690.540305 
L 212.727273 690.113572 
L 216 689.644115 
L 219.272727 688.996309 
L 222.545455 688.394363 
L 225.818182 687.699894 
L 228.360954 687.301051 
L 229.090909 687.206991 
L 232.363636 686.814418 
L 235.636364 686.204839 
L 238.909091 685.608542 
L 242.181818 685.02055 
L 245.454545 684.448594 
L 247.721673 684.028189 
L 248.727273 683.850921 
L 252 683.348384 
L 255.272727 682.86679 
L 258.545455 682.360654 
L 261.818182 681.790413 
L 265.090909 681.266039 
L 268.069874 680.755327 
L 268.363636 680.700521 
L 271.636364 680.1603 
L 274.909091 679.687906 
L 278.181818 679.112808 
L 281.454545 678.561152 
L 284.727273 678.033321 
L 288 677.551134 
L 288.452241 677.482465 
L 291.272727 676.991723 
L 294.545455 676.351287 
L 297.818182 675.838519 
L 301.090909 675.355246 
L 304.363636 674.892933 
L 307.636364 674.44102 
L 309.243774 674.209603 
L 310.909091 673.896791 
L 314.181818 673.320806 
L 317.454545 672.725808 
L 320.727273 672.246261 
L 324 671.74878 
L 327.272727 671.320887 
L 330.545455 670.967664 
L 330.842072 670.936741 
L 333.818182 670.521583 
L 337.090909 670.085297 
L 340.363636 669.633019 
L 343.636364 669.200987 
L 346.909091 668.805628 
L 350.181818 668.393402 
L 353.454545 668.015146 
L 356.727273 667.666259 
L 356.75057 667.663879 
L 360 667.213206 
L 363.272727 666.782692 
L 366.545455 666.42398 
L 369.818182 666.062651 
L 373.090909 665.662838 
L 376.363636 665.214372 
L 379.636364 664.773572 
L 382.403553 664.391016 
L 382.909091 664.323946 
L 386.181818 663.908054 
L 389.454545 663.640816 
L 392.727273 663.462163 
L 396 663.20513 
L 399.272727 662.874358 
L 402.545455 662.432802 
L 405.818182 661.844203 
L 408.709049 661.118154 
L 409.090909 661.073767 
L 412.363636 660.700699 
L 415.636364 660.431592 
L 418.909091 660.286996 
L 422.181818 660.099728 
L 425.454545 659.86007 
L 428.727273 659.551962 
L 432 659.141193 
L 435.272727 658.566195 
L 438.101465 657.845292 
L 438.545455 657.797182 
L 441.818182 657.44875 
L 445.090909 657.088838 
L 448.363636 656.732154 
L 451.636364 656.387065 
L 454.909091 656.166894 
L 458.181818 655.946377 
L 461.454545 655.653936 
L 464.727273 655.250628 
L 468 654.658657 
L 468.375963 654.57243 
L 471.272727 654.252602 
L 474.545455 653.901696 
L 477.818182 653.561375 
L 481.090909 653.231168 
L 484.363636 653.074838 
L 487.636364 652.912372 
L 490.909091 652.668605 
L 494.181818 652.262148 
L 497.454545 651.448565 
L 497.830898 651.299568 
L 500.727273 650.926622 
L 504 650.525387 
L 507.272727 650.144027 
L 510.545455 649.781099 
L 513.818182 649.451973 
L 517.090909 649.228727 
L 520.363636 649.147842 
L 523.636364 649.415784 
L 526.909091 649.829122 
L 530.181818 650.550265 
L 533.454545 651.066157 
L 536.727273 650.102711 
L 540 649.631569 
L 543.272727 649.412901 
L 546.545455 649.371317 
L 549.818182 649.160151 
L 553.090909 649.245216 
L 556.363636 649.443167 
L 559.636364 649.948534 
L 562.909091 650.81587 
L 566.021336 651.299568 
L 566.181818 651.324254 
L 569.454545 652.104639 
L 572.727273 652.966572 
L 576 653.206338 
L 576 651.299568 
L 576 648.026706 
L 576 644.753844 
L 576 641.480981 
L 576 638.208119 
L 576 634.935257 
L 576 631.662395 
L 576 629.539607 
L 574.915954 628.389533 
L 572.727273 627.404109 
L 569.454545 627.175668 
L 566.181818 626.407136 
L 565.019679 625.116671 
L 562.909091 624.314986 
L 559.636364 624.452057 
L 556.363636 624.870318 
L 554.933156 625.116671 
L 553.090909 626.1592 
L 549.818182 626.872243 
L 546.545455 627.182589 
L 543.272727 626.803001 
L 540 626.116988 
L 538.445544 625.116671 
L 536.727273 624.759637 
L 533.454545 624.612888 
L 530.181818 624.592524 
L 526.909091 624.587464 
L 523.636364 624.660279 
L 520.363636 624.914485 
L 519.400808 625.116671 
L 520.281801 628.389533 
L 517.090909 630.172514 
L 513.818182 630.767327 
L 510.545455 631.059209 
L 507.272727 631.23261 
L 504 631.3475 
L 500.727273 631.40821 
L 497.454545 631.524118 
L 494.413789 631.662395 
L 497.454545 632.941057 
L 500.727273 633.628537 
L 504 634.346549 
L 506.276151 634.935257 
L 504 636.032737 
L 500.727273 637.032625 
L 497.454545 637.507503 
L 494.181818 638.060179 
L 493.466446 638.208119 
L 490.909091 638.474725 
L 487.636364 639.032607 
L 484.363636 640.20871 
L 482.517587 641.480981 
L 481.090909 641.675611 
L 477.818182 641.889608 
L 474.545455 642.133837 
L 471.272727 642.415189 
L 468 642.742826 
L 464.727273 643.129192 
L 461.454545 643.694773 
L 458.181818 644.500594 
L 457.346828 644.753844 
L 454.909091 645.220983 
L 451.636364 645.856493 
L 448.363636 646.501789 
L 445.090909 647.157099 
L 441.818182 647.837911 
L 441.014616 648.026706 
L 438.545455 648.327488 
L 435.272727 648.757135 
L 432 649.226601 
L 428.727273 649.687858 
L 425.454545 650.132041 
L 422.181818 650.600949 
L 418.909091 651.112521 
L 417.78247 651.299568 
L 415.636364 651.49975 
L 412.363636 651.830749 
L 409.090909 652.197254 
L 405.818182 652.605302 
L 402.545455 653.083912 
L 399.272727 653.720709 
L 396 654.344742 
L 394.60596 654.57243 
L 392.727273 654.705396 
L 389.454545 654.952475 
L 386.181818 655.228362 
L 382.909091 655.551765 
L 379.636364 655.936118 
L 376.363636 656.400445 
L 373.090909 656.962214 
L 369.818182 657.582472 
L 368.385785 657.845292 
L 366.545455 657.994494 
L 363.272727 658.193106 
L 360 658.416014 
L 356.727273 658.684241 
L 353.454545 659.0033 
L 350.181818 659.381614 
L 346.909091 659.816033 
L 343.636364 660.364032 
L 340.363636 660.938663 
L 339.307457 661.118154 
L 337.090909 661.323115 
L 333.818182 661.630551 
L 330.545455 661.965812 
L 327.272727 662.326399 
L 324 662.685544 
L 320.727273 663.038367 
L 317.454545 663.438253 
L 314.181818 663.835045 
L 310.909091 664.29196 
L 310.5032 664.391016 
L 307.636364 664.85055 
L 304.363636 665.44544 
L 301.090909 665.783124 
L 297.818182 666.038786 
L 294.545455 666.306458 
L 291.272727 666.810665 
L 288.150868 667.663879 
L 288 667.696453 
L 284.727273 668.297003 
L 281.454545 668.823603 
L 278.181818 669.044948 
L 274.909091 669.159579 
L 271.636364 669.45853 
L 268.363636 669.857945 
L 265.090909 670.671587 
L 264.497373 670.936741 
L 261.818182 671.617111 
L 258.545455 672.105015 
L 255.272727 672.191092 
L 252 672.27404 
L 248.727273 672.623379 
L 245.454545 673.224712 
L 242.313386 674.209603 
L 242.181818 674.240507 
L 238.909091 674.950441 
L 235.636364 675.329818 
L 232.363636 675.361217 
L 229.090909 675.486273 
L 225.818182 675.773075 
L 222.545455 676.344206 
L 219.859096 677.482465 
L 219.272727 677.660927 
L 216 678.37722 
L 212.727273 678.520659 
L 209.454545 678.519149 
L 206.181818 678.715399 
L 202.909091 679.139971 
L 199.636364 679.996372 
L 198.128382 680.755327 
L 196.363636 681.21067 
L 193.090909 681.757305 
L 189.818182 681.766673 
L 186.545455 681.794568 
L 183.272727 682.094843 
L 180 682.607577 
L 176.727273 683.691438 
L 176.151366 684.028189 
L 173.454545 684.669417 
L 170.181818 685.018316 
L 166.909091 684.922505 
L 163.636364 684.813529 
L 160.363636 684.798878 
L 157.090909 684.760073 
L 154.264472 684.028189 
L 153.818182 683.935594 
L 153.114863 684.028189 
L 150.545455 684.785012 
L 147.272727 685.842419 
L 144 685.799435 
L 140.727273 685.593494 
L 137.454545 685.775978 
L 134.181818 686.681652 
L 132.964314 687.301051 
L 130.909091 687.863954 
L 127.636364 688.197463 
L 124.363636 688.023078 
L 121.090909 687.927469 
L 117.818182 687.775848 
L 114.733351 687.301051 
L 114.545455 687.137485 
L 111.272727 684.937545 
L 108 685.890206 
L 104.727273 686.052816 
L 101.454545 685.843224 
L 98.181818 685.865794 
L 94.909091 686.480458 
L 92.422533 687.301051 
L 91.636364 687.496227 
L 88.363636 688.084674 
L 85.090909 688.064046 
L 81.818182 688.029688 
L 78.545455 687.959857 
L 75.272727 687.71682 
L 73.6999 687.301051 
L 72 686.978137 
L 68.727273 686.652811 
L 65.454545 686.475856 
L 62.181818 686.207389 
L 58.909091 686.292374 
L 55.636364 686.647542 
L 52.363636 687.139758 
L 51.860242 687.301051 
L 49.090909 687.856318 
L 45.818182 688.183233 
L 42.545455 688.289467 
L 39.272727 688.485022 
L 36 688.7092 
L 32.727273 688.464092 
L 29.454545 688.186497 
L 26.181818 687.813642 
L 22.909091 687.577525 
L 19.636364 687.996794 
L 16.363636 688.270574 
L 13.090909 688.463397 
L 9.818182 688.904845 
L 6.545455 689.253819 
L 3.272727 689.773445 
L 0 690.505135 
L 0 690.573914 
L 0 693.846776 
L 0 697.119638 
L 0 700.3925 
L 0 703.665362 
L 0 706.938224 
L 0 710.211087 
L 0 713.483949 
L 0 716.756811 
L 0 720.029673 
L 0 723.302535 
L 0 726.575397 
L 0 729.848259 
L 0 733.121122 
L 0 736.393984 
L 0 739.666846 
L 0 742.939708 
L 0 746.21257 
L 0 747.132775 
z
M 543.272727 619.658723 
L 543.932014 618.570946 
L 543.272727 617.911632 
L 542.61373 618.570946 
z
" clip-path="url(#p5b914db99a)" style="fill: #f5f9fe; fill-opacity: 0.9"/>
    <path d="M 3.272727 762.728023 
L 4.072788 762.576881 
L 6.545455 761.045439 
L 9.818182 760.392244 
L 13.090909 760.105023 
L 16.363636 759.956228 
L 19.636364 759.347817 
L 19.842987 759.304019 
L 22.909091 757.634167 
L 26.181818 757.105186 
L 29.454545 756.849964 
L 32.727273 756.667667 
L 35.926631 756.031157 
L 36 755.954146 
L 39.272727 754.342173 
L 42.545455 753.814569 
L 45.818182 753.544224 
L 49.090909 753.338947 
L 52.102998 752.758294 
L 52.363636 752.50273 
L 55.636364 750.948705 
L 58.909091 750.467162 
L 62.181818 750.230957 
L 65.454545 750.000553 
L 67.723607 749.485432 
L 68.727273 748.561738 
L 72 747.4972 
L 75.272727 747.114195 
L 78.545455 746.912689 
L 81.818182 746.712342 
L 84.037383 746.21257 
L 85.090909 745.270851 
L 88.363636 744.18786 
L 91.636364 743.802762 
L 94.909091 743.605436 
L 98.181818 743.409618 
L 100.142154 742.939708 
L 101.454545 741.819395 
L 104.727273 740.844475 
L 108 740.488164 
L 111.272727 740.301817 
L 114.545455 740.121826 
L 116.247412 739.666846 
L 117.818182 738.352692 
L 121.090909 737.475844 
L 124.363636 737.159835 
L 127.636364 737.018039 
L 130.909091 736.834077 
L 132.533115 736.393984 
L 134.181818 735.05744 
L 137.454545 734.194865 
L 140.727273 733.870964 
L 144 733.757877 
L 147.272727 733.565939 
L 148.758628 733.121122 
L 150.545455 731.663535 
L 153.818182 730.881775 
L 157.090909 730.582048 
L 160.363636 730.494219 
L 163.636364 730.333432 
L 165.26886 729.848259 
L 166.909091 728.475458 
L 170.181818 727.620352 
L 173.454545 727.299908 
L 176.727273 727.226649 
L 180 727.227504 
L 183.272727 726.688508 
L 183.677519 726.575397 
L 186.545455 724.908482 
L 189.818182 724.321089 
L 193.090909 724.055105 
L 196.363636 723.943168 
L 199.636364 723.93786 
L 202.909091 723.55326 
L 203.859572 723.302535 
L 206.181818 721.811795 
L 209.454545 721.116468 
L 212.727273 720.800842 
L 216 720.644767 
L 219.272727 720.61984 
L 222.545455 720.499477 
L 224.524158 720.029673 
L 225.818182 718.916983 
L 229.090909 717.872751 
L 232.363636 717.547996 
L 235.636364 717.37074 
L 238.909091 717.262662 
L 242.181818 717.206417 
L 245.43218 716.756811 
L 245.454545 716.738085 
L 248.727273 714.957803 
L 252 714.370856 
L 255.272727 714.056928 
L 258.545455 713.883416 
L 261.818182 713.811759 
L 265.090909 713.72145 
L 266.276341 713.483949 
L 268.363636 711.880053 
L 271.636364 710.982104 
L 274.909091 710.668878 
L 278.181818 710.482972 
L 281.454545 710.342614 
L 284.727273 710.240814 
L 285.159118 710.211087 
L 288 708.893651 
L 291.272727 707.593248 
L 294.545455 707.217949 
L 297.818182 707.01122 
L 299.585042 706.938224 
L 301.090909 706.505108 
L 304.363636 705.570565 
L 307.636364 704.664997 
L 310.909091 703.906582 
L 313.292525 703.665362 
L 314.181818 703.560454 
L 317.454545 703.017372 
L 320.727273 702.093896 
L 324 701.065256 
L 327.272727 700.450562 
L 327.864499 700.3925 
L 330.545455 700.215496 
L 333.818182 699.98984 
L 337.090909 699.726448 
L 340.363636 699.407603 
L 343.636364 699.022246 
L 346.909091 698.603231 
L 350.181818 698.132088 
L 353.454545 697.63869 
L 356.727273 697.124329 
L 356.763132 697.119638 
L 360 696.816283 
L 363.272727 696.584733 
L 366.545455 696.348017 
L 369.818182 696.194321 
L 373.090909 695.974525 
L 376.363636 695.70818 
L 379.636364 695.381101 
L 382.909091 694.916996 
L 386.181818 694.359015 
L 389.454545 694.113994 
L 392.727273 693.98159 
L 396 693.870194 
L 396.761096 693.846776 
L 399.272727 693.717678 
L 402.545455 693.521378 
L 405.818182 693.251711 
L 409.090909 692.86283 
L 412.363636 692.48991 
L 415.636364 692.118098 
L 418.909091 691.736988 
L 422.181818 691.345606 
L 425.454545 690.944879 
L 428.416114 690.573914 
L 428.727273 690.523008 
L 432 689.991898 
L 435.272727 689.468546 
L 438.545455 688.952782 
L 441.818182 688.444443 
L 445.090909 687.930692 
L 448.363636 687.403932 
L 449.000598 687.301051 
L 451.636364 686.643909 
L 454.909091 685.796271 
L 458.181818 684.918526 
L 461.454545 684.051047 
L 461.539336 684.028189 
L 464.727273 683.287425 
L 468 682.511962 
L 471.272727 681.721684 
L 474.545455 680.915885 
L 475.189967 680.755327 
L 477.818182 679.918233 
L 481.090909 678.940237 
L 484.363636 677.981727 
L 486.126662 677.482465 
L 487.636364 676.743379 
L 490.909091 675.187568 
L 493.034869 674.209603 
L 494.181818 673.271134 
L 496.626714 670.936741 
L 497.454545 668.289516 
L 497.703334 667.663879 
L 497.454545 667.495241 
L 494.181818 665.569378 
L 491.686495 664.391016 
L 494.181818 663.220848 
L 497.454545 662.238379 
L 500.727273 661.58907 
L 504 661.128399 
L 504.021658 661.118154 
L 507.272727 659.14007 
L 510.545455 658.202499 
L 512.586419 657.845292 
L 513.818182 657.771403 
L 517.090909 657.64739 
L 520.363636 657.714897 
L 521.654262 657.845292 
L 523.636364 658.172309 
L 526.909091 658.528009 
L 530.181818 658.600918 
L 533.454545 658.101789 
L 534.842347 657.845292 
L 536.727273 657.61447 
L 540 657.542677 
L 543.272727 657.355915 
L 546.545455 657.14351 
L 549.818182 657.711505 
L 550.807266 657.845292 
L 553.090909 658.0879 
L 556.363636 658.31192 
L 559.636364 659.035152 
L 562.909091 659.736315 
L 566.181818 660.862348 
L 569.11912 661.118154 
L 569.454545 661.143883 
L 572.727273 661.680021 
L 576 662.697619 
L 576 661.118154 
L 576 657.845292 
L 576 654.57243 
L 576 653.206338 
L 572.727273 652.966572 
L 569.454545 652.104639 
L 566.181818 651.324254 
L 566.021336 651.299568 
L 562.909091 650.81587 
L 559.636364 649.948534 
L 556.363636 649.443167 
L 553.090909 649.245216 
L 549.818182 649.160151 
L 546.545455 649.371317 
L 543.272727 649.412901 
L 540 649.631569 
L 536.727273 650.102711 
L 533.454545 651.066157 
L 530.181818 650.550265 
L 526.909091 649.829122 
L 523.636364 649.415784 
L 520.363636 649.147842 
L 517.090909 649.228727 
L 513.818182 649.451973 
L 510.545455 649.781099 
L 507.272727 650.144027 
L 504 650.525387 
L 500.727273 650.926622 
L 497.830898 651.299568 
L 497.454545 651.448565 
L 494.181818 652.262148 
L 490.909091 652.668605 
L 487.636364 652.912372 
L 484.363636 653.074838 
L 481.090909 653.231168 
L 477.818182 653.561375 
L 474.545455 653.901696 
L 471.272727 654.252602 
L 468.375963 654.57243 
L 468 654.658657 
L 464.727273 655.250628 
L 461.454545 655.653936 
L 458.181818 655.946377 
L 454.909091 656.166894 
L 451.636364 656.387065 
L 448.363636 656.732154 
L 445.090909 657.088838 
L 441.818182 657.44875 
L 438.545455 657.797182 
L 438.101465 657.845292 
L 435.272727 658.566195 
L 432 659.141193 
L 428.727273 659.551962 
L 425.454545 659.86007 
L 422.181818 660.099728 
L 418.909091 660.286996 
L 415.636364 660.431592 
L 412.363636 660.700699 
L 409.090909 661.073767 
L 408.709049 661.118154 
L 405.818182 661.844203 
L 402.545455 662.432802 
L 399.272727 662.874358 
L 396 663.20513 
L 392.727273 663.462163 
L 389.454545 663.640816 
L 386.181818 663.908054 
L 382.909091 664.323946 
L 382.403553 664.391016 
L 379.636364 664.773572 
L 376.363636 665.214372 
L 373.090909 665.662838 
L 369.818182 666.062651 
L 366.545455 666.42398 
L 363.272727 666.782692 
L 360 667.213206 
L 356.75057 667.663879 
L 356.727273 667.666259 
L 353.454545 668.015146 
L 350.181818 668.393402 
L 346.909091 668.805628 
L 343.636364 669.200987 
L 340.363636 669.633019 
L 337.090909 670.085297 
L 333.818182 670.521583 
L 330.842072 670.936741 
L 330.545455 670.967664 
L 327.272727 671.320887 
L 324 671.74878 
L 320.727273 672.246261 
L 317.454545 672.725808 
L 314.181818 673.320806 
L 310.909091 673.896791 
L 309.243774 674.209603 
L 307.636364 674.44102 
L 304.363636 674.892933 
L 301.090909 675.355246 
L 297.818182 675.838519 
L 294.545455 676.351287 
L 291.272727 676.991723 
L 288.452241 677.482465 
L 288 677.551134 
L 284.727273 678.033321 
L 281.454545 678.561152 
L 278.181818 679.112808 
L 274.909091 679.687906 
L 271.636364 680.1603 
L 268.363636 680.700521 
L 268.069874 680.755327 
L 265.090909 681.266039 
L 261.818182 681.790413 
L 258.545455 682.360654 
L 255.272727 682.86679 
L 252 683.348384 
L 248.727273 683.850921 
L 247.721673 684.028189 
L 245.454545 684.448594 
L 242.181818 685.02055 
L 238.909091 685.608542 
L 235.636364 686.204839 
L 232.363636 686.814418 
L 229.090909 687.206991 
L 228.360954 687.301051 
L 225.818182 687.699894 
L 222.545455 688.394363 
L 219.272727 688.996309 
L 216 689.644115 
L 212.727273 690.113572 
L 209.454545 690.540305 
L 209.225477 690.573914 
L 206.181818 691.176177 
L 202.909091 691.860422 
L 199.636364 692.584595 
L 196.363636 693.226357 
L 193.090909 693.803911 
L 192.829417 693.846776 
L 189.818182 694.442705 
L 186.545455 695.021106 
L 183.272727 695.646653 
L 180 696.404997 
L 176.727273 697.075019 
L 176.481978 697.119638 
L 173.454545 697.656827 
L 170.181818 698.274498 
L 166.909091 698.745555 
L 163.636364 699.241296 
L 160.363636 699.810034 
L 157.419182 700.3925 
L 157.090909 700.451597 
L 153.818182 700.856548 
L 150.545455 701.277105 
L 147.272727 701.748953 
L 144 702.306672 
L 140.727273 702.95729 
L 137.454545 703.521086 
L 136.521326 703.665362 
L 134.181818 703.963881 
L 130.909091 704.402069 
L 127.636364 704.80556 
L 124.363636 705.286506 
L 121.090909 705.740748 
L 117.818182 705.988485 
L 114.545455 706.329793 
L 111.272727 706.713019 
L 109.403305 706.938224 
L 108 707.128745 
L 104.727273 707.550145 
L 101.454545 707.925155 
L 98.181818 708.263708 
L 94.909091 708.563116 
L 91.636364 708.968476 
L 88.363636 709.565533 
L 85.376428 710.211087 
L 85.090909 710.277888 
L 81.818182 710.997915 
L 78.545455 711.304504 
L 75.272727 711.60712 
L 72 712.278596 
L 68.727273 713.258749 
L 67.029965 713.483949 
L 65.454545 713.652983 
L 62.181818 713.870826 
L 58.909091 714.171615 
L 55.636364 714.613864 
L 52.363636 715.623036 
L 49.090909 716.677106 
L 48.789795 716.756811 
L 45.818182 717.850547 
L 42.545455 719.362373 
L 39.648568 720.029673 
L 39.272727 720.094546 
L 36 721.421157 
L 33.520354 723.302535 
L 32.727273 723.867049 
L 29.454545 724.819031 
L 26.181818 726.07173 
L 25.551909 726.575397 
L 24.200297 729.848259 
L 22.909091 731.799285 
L 22.100069 733.121122 
L 19.636364 736.06817 
L 19.29578 736.393984 
L 16.793344 739.666846 
L 16.363636 739.858951 
L 13.090909 740.832694 
L 9.818182 742.847412 
L 9.707912 742.939708 
L 6.545455 744.207241 
L 3.272727 745.290108 
L 1.646838 746.21257 
L 0 747.132775 
L 0 749.485432 
L 0 752.758294 
L 0 756.031157 
L 0 759.304019 
L 0 762.576881 
L 0 763.169771 
z
M 120.035818 729.848259 
L 117.818182 727.471996 
L 117.382944 726.575397 
L 117.818182 726.455924 
L 121.090909 725.295244 
L 124.032275 723.302535 
L 124.363636 723.182382 
L 127.636364 722.111865 
L 130.909091 721.298405 
L 134.181818 720.534931 
L 135.65771 720.029673 
L 137.454545 719.439603 
L 140.727273 718.323279 
L 144 717.442043 
L 146.957332 716.756811 
L 147.272727 716.710234 
L 150.545455 716.125719 
L 153.818182 715.385017 
L 157.090909 714.343686 
L 159.184796 713.483949 
L 160.363636 713.130238 
L 163.636364 712.726828 
L 166.909091 712.321272 
L 170.181818 711.717579 
L 173.454545 710.977953 
L 176.282135 710.211087 
L 176.727273 710.039406 
L 180 709.1104 
L 183.272727 708.625366 
L 186.545455 708.387218 
L 189.818182 707.97174 
L 193.090909 707.287596 
L 194.413139 706.938224 
L 196.363636 706.023428 
L 199.636364 705.181985 
L 202.909091 704.742268 
L 206.181818 704.557828 
L 209.454545 704.325555 
L 212.727273 703.685162 
L 212.820376 703.665362 
L 216 702.20839 
L 219.272727 701.635783 
L 222.545455 701.406179 
L 225.818182 701.300277 
L 229.090909 701.236443 
L 232.363636 700.908912 
L 234.587844 700.3925 
L 235.636364 699.789568 
L 238.909091 698.951959 
L 242.181818 698.554058 
L 245.454545 698.292951 
L 248.727273 698.218285 
L 252 698.183955 
L 255.272727 697.731863 
L 257.967411 697.119638 
L 258.545455 696.821533 
L 261.818182 695.774597 
L 265.090909 695.458799 
L 268.363636 695.293397 
L 271.636364 695.226269 
L 274.909091 695.140847 
L 278.181818 694.46032 
L 281.454545 693.927853 
L 281.819399 693.846776 
L 284.727273 693.262529 
L 288 692.802236 
L 291.272727 692.747326 
L 294.545455 692.96336 
L 297.818182 693.14244 
L 301.090909 693.354647 
L 302.97145 693.846776 
L 304.140839 697.119638 
L 301.090909 697.849367 
L 297.818182 698.771541 
L 294.545455 700.039641 
L 294.013357 700.3925 
L 291.272727 700.830689 
L 288 701.492383 
L 284.727273 702.881326 
L 282.436716 703.665362 
L 281.454545 703.756624 
L 278.181818 704.057049 
L 274.909091 704.456202 
L 271.636364 704.972072 
L 268.363636 705.82661 
L 266.044977 706.938224 
L 265.090909 707.211136 
L 261.818182 707.728039 
L 258.545455 707.969321 
L 255.272727 708.287904 
L 252 708.891567 
L 248.727273 709.807444 
L 247.647908 710.211087 
L 245.454545 710.864512 
L 242.181818 711.590873 
L 238.909091 711.856992 
L 235.636364 712.019059 
L 232.363636 712.519337 
L 229.090909 713.276846 
L 228.475422 713.483949 
L 225.818182 714.582586 
L 222.545455 715.323986 
L 219.272727 715.688196 
L 216 715.815695 
L 212.727273 716.020456 
L 209.511591 716.756811 
L 209.454545 716.805458 
L 206.181818 718.270455 
L 202.909091 718.836394 
L 199.636364 719.098037 
L 196.363636 719.132753 
L 193.090909 719.095817 
L 189.818182 719.705833 
L 188.606865 720.029673 
L 186.545455 721.175171 
L 183.272727 721.865767 
L 180 722.156432 
L 176.727273 722.232328 
L 173.454545 722.183117 
L 170.181818 722.566914 
L 167.560961 723.302535 
L 166.909091 723.774801 
L 163.636364 724.873762 
L 160.363636 725.12747 
L 157.090909 725.068401 
L 153.818182 725.095463 
L 150.545455 725.809677 
L 147.725718 726.575397 
L 147.272727 726.768001 
L 144 727.425433 
L 140.727273 727.732928 
L 137.454545 727.582213 
L 134.181818 727.66972 
L 130.909091 727.898977 
L 127.636364 728.425036 
L 124.363636 729.49994 
L 122.419591 729.848259 
L 121.090909 729.896661 
z
" clip-path="url(#p5b914db99a)" style="fill: #eff6fc; fill-opacity: 0.9"/>
    <path d="M 121.090909 729.896661 
L 122.419591 729.848259 
L 124.363636 729.49994 
L 127.636364 728.425036 
L 130.909091 727.898977 
L 134.181818 727.66972 
L 137.454545 727.582213 
L 140.727273 727.732928 
L 144 727.425433 
L 147.272727 726.768001 
L 147.725718 726.575397 
L 150.545455 725.809677 
L 153.818182 725.095463 
L 157.090909 725.068401 
L 160.363636 725.12747 
L 163.636364 724.873762 
L 166.909091 723.774801 
L 167.560961 723.302535 
L 170.181818 722.566914 
L 173.454545 722.183117 
L 176.727273 722.232328 
L 180 722.156432 
L 183.272727 721.865767 
L 186.545455 721.175171 
L 188.606865 720.029673 
L 189.818182 719.705833 
L 193.090909 719.095817 
L 196.363636 719.132753 
L 199.636364 719.098037 
L 202.909091 718.836394 
L 206.181818 718.270455 
L 209.454545 716.805458 
L 209.511591 716.756811 
L 212.727273 716.020456 
L 216 715.815695 
L 219.272727 715.688196 
L 222.545455 715.323986 
L 225.818182 714.582586 
L 228.475422 713.483949 
L 229.090909 713.276846 
L 232.363636 712.519337 
L 235.636364 712.019059 
L 238.909091 711.856992 
L 242.181818 711.590873 
L 245.454545 710.864512 
L 247.647908 710.211087 
L 248.727273 709.807444 
L 252 708.891567 
L 255.272727 708.287904 
L 258.545455 707.969321 
L 261.818182 707.728039 
L 265.090909 707.211136 
L 266.044977 706.938224 
L 268.363636 705.82661 
L 271.636364 704.972072 
L 274.909091 704.456202 
L 278.181818 704.057049 
L 281.454545 703.756624 
L 282.436716 703.665362 
L 284.727273 702.881326 
L 288 701.492383 
L 291.272727 700.830689 
L 294.013357 700.3925 
L 294.545455 700.039641 
L 297.818182 698.771541 
L 301.090909 697.849367 
L 304.140839 697.119638 
L 302.97145 693.846776 
L 301.090909 693.354647 
L 297.818182 693.14244 
L 294.545455 692.96336 
L 291.272727 692.747326 
L 288 692.802236 
L 284.727273 693.262529 
L 281.819399 693.846776 
L 281.454545 693.927853 
L 278.181818 694.46032 
L 274.909091 695.140847 
L 271.636364 695.226269 
L 268.363636 695.293397 
L 265.090909 695.458799 
L 261.818182 695.774597 
L 258.545455 696.821533 
L 257.967411 697.119638 
L 255.272727 697.731863 
L 252 698.183955 
L 248.727273 698.218285 
L 245.454545 698.292951 
L 242.181818 698.554058 
L 238.909091 698.951959 
L 235.636364 699.789568 
L 234.587844 700.3925 
L 232.363636 700.908912 
L 229.090909 701.236443 
L 225.818182 701.300277 
L 222.545455 701.406179 
L 219.272727 701.635783 
L 216 702.20839 
L 212.820376 703.665362 
L 212.727273 703.685162 
L 209.454545 704.325555 
L 206.181818 704.557828 
L 202.909091 704.742268 
L 199.636364 705.181985 
L 196.363636 706.023428 
L 194.413139 706.938224 
L 193.090909 707.287596 
L 189.818182 707.97174 
L 186.545455 708.387218 
L 183.272727 708.625366 
L 180 709.1104 
L 176.727273 710.039406 
L 176.282135 710.211087 
L 173.454545 710.977953 
L 170.181818 711.717579 
L 166.909091 712.321272 
L 163.636364 712.726828 
L 160.363636 713.130238 
L 159.184796 713.483949 
L 157.090909 714.343686 
L 153.818182 715.385017 
L 150.545455 716.125719 
L 147.272727 716.710234 
L 146.957332 716.756811 
L 144 717.442043 
L 140.727273 718.323279 
L 137.454545 719.439603 
L 135.65771 720.029673 
L 134.181818 720.534931 
L 130.909091 721.298405 
L 127.636364 722.111865 
L 124.363636 723.182382 
L 124.032275 723.302535 
L 121.090909 725.295244 
L 117.818182 726.455924 
L 117.382944 726.575397 
L 117.818182 727.471996 
L 120.035818 729.848259 
z
" clip-path="url(#p5b914db99a)" style="fill: #eaf3fb; fill-opacity: 0.9"/>
    <path clip-path="url(#p5b914db99a)" style="fill: #e5eff9; fill-opacity: 0.9"/>
    <path clip-path="url(#p5b914db99a)" style="fill: #dfecf7; fill-opacity: 0.9"/>
    <path clip-path="url(#p5b914db99a)" style="fill: #dae8f6; fill-opacity: 0.9"/>
    <path clip-path="url(#p5b914db99a)" style="fill: #d6e5f4; fill-opacity: 0.9"/>
    <path clip-path="url(#p5b914db99a)" style="fill: #d0e2f2; fill-opacity: 0.9"/>
    <path clip-path="url(#p5b914db99a)" style="fill: #cbdef1; fill-opacity: 0.9"/>
    <path clip-path="url(#p5b914db99a)" style="fill: #c6dbef; fill-opacity: 0.9"/>
    <path clip-path="url(#p5b914db99a)" style="fill: #bed8ec; fill-opacity: 0.9"/>
    <path clip-path="url(#p5b914db99a)" style="fill: #b5d4e9; fill-opacity: 0.9"/>
    <path clip-path="url(#p5b914db99a)" style="fill: #add0e6; fill-opacity: 0.9"/>
    <path clip-path="url(#p5b914db99a)" style="fill: #a5cde3; fill-opacity: 0.9"/>
    <path clip-path="url(#p5b914db99a)" style="fill: #9cc9e1; fill-opacity: 0.9"/>
    <path clip-path="url(#p5b914db99a)" style="fill: #91c3de; fill-opacity: 0.9"/>
    <path clip-path="url(#p5b914db99a)" style="fill: #85bcdc; fill-opacity: 0.9"/>
    <path clip-path="url(#p5b914db99a)" style="fill: #7cb7da; fill-opacity: 0.9"/>
    <path clip-path="url(#p5b914db99a)" style="fill: #71b1d7; fill-opacity: 0.9"/>
    <path clip-path="url(#p5b914db99a)" style="fill: #66abd4; fill-opacity: 0.9"/>
    <path clip-path="url(#p5b914db99a)" style="fill: #5da5d1; fill-opacity: 0.9"/>
    <path clip-path="url(#p5b914db99a)" style="fill: #56a0ce; fill-opacity: 0.9"/>
    <path clip-path="url(#p5b914db99a)" style="fill: #4d99ca; fill-opacity: 0.9"/>
    <path clip-path="url(#p5b914db99a)" style="fill: #4493c7; fill-opacity: 0.9"/>
    <path clip-path="url(#p5b914db99a)" style="fill: #3c8cc3; fill-opacity: 0.9"/>
    <path clip-path="url(#p5b914db99a)" style="fill: #3686c0; fill-opacity: 0.9"/>
    <path clip-path="url(#p5b914db99a)" style="fill: #2f7fbc; fill-opacity: 0.9"/>
    <path clip-path="url(#p5b914db99a)" style="fill: #2777b8; fill-opacity: 0.9"/>
    <path clip-path="url(#p5b914db99a)" style="fill: #2070b4; fill-opacity: 0.9"/>
    <path clip-path="url(#p5b914db99a)" style="fill: #1c6ab0; fill-opacity: 0.9"/>
    <path clip-path="url(#p5b914db99a)" style="fill: #1663aa; fill-opacity: 0.9"/>
    <path clip-path="url(#p5b914db99a)" style="fill: #115ca5; fill-opacity: 0.9"/>
    <path clip-path="url(#p5b914db99a)" style="fill: #0c56a0; fill-opacity: 0.9"/>
    <path clip-path="url(#p5b914db99a)" style="fill: #084f99; fill-opacity: 0.9"/>
    <path clip-path="url(#p5b914db99a)" style="fill: #08488e; fill-opacity: 0.9"/>
    <path clip-path="url(#p5b914db99a)" style="fill: #084184; fill-opacity: 0.9"/>
    <path clip-path="url(#p5b914db99a)" style="fill: #083a7a; fill-opacity: 0.9"/>
    <path clip-path="url(#p5b914db99a)" style="fill: #083370; fill-opacity: 0.9"/>
    <path clip-path="url(#p5b914db99a)" style="fill: #08306b; fill-opacity: 0.9"/>
   </g>
   <g id="QuadContourSet_2">
    <path d="M 0 764.274725 
L 3.272727 763.701295 
L 3.849432 763.602018 
M 22.473058 759.736931 
L 22.909091 759.655447 
L 24.231963 759.304019 
L 26.181818 758.640898 
L 29.454545 757.987916 
L 32.727273 757.566051 
L 36 756.971309 
L 39.272727 756.348834 
L 40.394737 756.031157 
L 42.545455 755.29579 
L 45.818182 754.619879 
L 49.090909 754.199745 
L 52.363636 753.682091 
L 55.636364 752.922281 
L 56.141634 752.758294 
L 58.909091 751.822441 
L 62.181818 751.234725 
L 65.454545 750.824946 
L 68.727273 750.247805 
L 71.546797 749.485432 
L 72 749.278273 
L 75.272727 748.334194 
L 78.545455 747.841154 
L 81.818182 747.530143 
L 85.090909 746.963384 
L 87.668765 746.21257 
L 88.363636 745.887366 
L 91.636364 744.954355 
L 94.909091 744.476274 
L 98.181818 744.235809 
L 101.454545 743.614022 
L 103.588804 742.939708 
L 104.727273 742.419469 
L 108 741.563473 
L 111.272727 741.118656 
L 114.545455 740.959136 
L 117.818182 740.237661 
L 119.379562 739.666846 
L 121.090909 738.892702 
L 124.363636 738.146935 
L 127.636364 737.810355 
L 130.909091 737.682858 
L 134.181818 736.946519 
L 135.641138 736.393984 
L 137.454545 735.579232 
L 140.727273 734.821673 
L 144 734.552637 
L 147.272727 734.420484 
L 150.545455 733.578596 
L 151.666973 733.121122 
L 153.818182 732.185637 
L 157.090909 731.494476 
L 160.363636 731.290764 
L 163.636364 731.181804 
L 166.909091 730.363181 
L 168.123441 729.848259 
L 170.181818 728.914835 
L 173.454545 728.190744 
L 176.727273 728.025939 
L 180 728.030816 
L 183.272727 727.659247 
L 186.545455 726.811139 
L 187.15484 726.575397 
L 189.818182 725.600155 
L 193.090909 724.99839 
L 196.363636 724.755073 
L 199.636364 724.754054 
L 202.909091 724.490629 
L 206.181818 723.744972 
L 207.428814 723.302535 
L 209.454545 722.515219 
L 212.727273 721.814795 
L 216 721.486775 
L 219.272727 721.46284 
L 222.545455 721.377317 
L 225.818182 720.779886 
L 228.221409 720.029673 
L 229.090909 719.618999 
L 232.363636 718.84715 
L 235.636364 718.445483 
L 238.909091 718.255194 
L 242.181818 718.209818 
L 245.454545 717.907108 
L 248.727273 717.33152 
L 250.89973 716.756811 
L 252 716.357109 
L 255.272727 715.512328 
L 258.545455 715.055354 
L 261.818182 714.965306 
L 265.090909 714.910292 
L 268.363636 714.447602 
L 271.608299 713.483949 
L 271.636364 713.469999 
L 274.909091 712.453671 
L 278.181818 711.895664 
L 281.454545 711.559807 
L 284.727273 711.497369 
L 288 711.350437 
L 291.272727 710.734078 
L 293.09132 710.211087 
L 294.545455 709.630847 
L 297.818182 708.807189 
L 301.090909 708.318955 
L 304.363636 708.102209 
L 307.636364 708.00766 
L 310.909091 707.702835 
L 314.156373 706.938224 
L 314.181818 706.925577 
L 317.454545 705.792948 
L 320.727273 705.161824 
L 324 704.730607 
L 327.272727 704.5711 
L 330.545455 704.504817 
L 333.818182 704.443093 
L 337.090909 704.182928 
L 340.363636 703.775297 
L 341.10648 703.665362 
L 343.636364 703.050656 
L 346.909091 702.496463 
L 350.181818 702.100983 
L 353.454545 701.807363 
L 356.727273 701.570176 
L 360 701.372382 
L 363.272727 701.206801 
L 366.545455 701.066155 
L 369.818182 701.032431 
L 373.090909 701.001046 
L 376.363636 700.994717 
L 379.636364 701.005593 
L 382.909091 701.017642 
L 386.181818 701.031063 
L 389.454545 700.852102 
L 392.727273 700.588206 
L 394.595613 700.3925 
L 396 700.109709 
L 399.272727 700.181021 
L 400.138481 700.3925 
L 402.545455 700.727181 
L 405.818182 701.055764 
L 409.090909 700.933962 
L 412.363636 700.82414 
L 415.636364 700.724614 
L 418.909091 700.668179 
L 422.181818 700.657349 
L 425.454545 700.681928 
L 428.727273 700.71401 
L 432 700.757647 
L 435.272727 700.820455 
L 438.545455 700.90947 
L 441.818182 700.974215 
L 445.090909 700.91023 
L 448.363636 700.693293 
L 451.15038 700.3925 
L 451.636364 700.327391 
L 454.909091 699.860141 
L 458.181818 699.33622 
L 461.454545 698.744653 
L 464.727273 698.071434 
L 468 697.298407 
L 468.693543 697.119638 
L 471.272727 696.944798 
L 474.545455 696.732048 
L 477.818182 696.528846 
L 481.090909 696.334563 
L 484.363636 696.296056 
L 487.636364 696.294881 
L 490.909091 696.293546 
L 494.181818 696.292017 
L 497.454545 696.290247 
L 500.727273 696.288175 
L 504 696.283743 
L 507.272727 696.058531 
L 510.545455 695.825726 
L 513.818182 695.588465 
L 517.090909 695.36254 
L 520.363636 695.463435 
L 523.636364 695.632823 
L 526.909091 695.721417 
L 530.181818 695.502762 
L 533.454545 695.332114 
L 536.727273 695.136374 
L 540 694.964618 
L 543.272727 694.831579 
L 546.545455 694.508909 
L 549.818182 694.08852 
L 551.724483 693.846776 
L 553.090909 693.683071 
L 556.363636 693.682373 
L 557.793573 693.846776 
L 559.636364 694.120031 
L 562.909091 694.479236 
L 566.181818 694.762544 
L 569.454545 694.871042 
L 572.727273 694.692627 
L 576 694.655588 
M 576 629.539607 
L 574.915954 628.389533 
L 572.727273 627.404109 
L 569.454545 627.175668 
L 566.181818 626.407136 
L 565.019679 625.116671 
L 562.909091 624.314986 
L 559.636364 624.452057 
L 556.363636 624.870318 
L 554.933156 625.116671 
L 553.090909 626.1592 
L 549.818182 626.872243 
L 546.545455 627.182589 
L 543.272727 626.803001 
L 540 626.116988 
L 538.445544 625.116671 
L 536.727273 624.759637 
L 533.454545 624.612888 
L 530.181818 624.592524 
L 526.909091 624.587464 
L 523.636364 624.660279 
L 520.363636 624.914485 
L 519.400808 625.116671 
L 520.281801 628.389533 
L 517.090909 630.172514 
L 513.818182 630.767327 
L 510.545455 631.059209 
L 507.272727 631.23261 
L 504 631.3475 
L 500.727273 631.40821 
L 497.454545 631.524118 
L 494.413789 631.662395 
L 497.454545 632.941057 
L 500.727273 633.628537 
L 504 634.346549 
L 506.276151 634.935257 
L 504 636.032737 
L 500.727273 637.032625 
L 497.454545 637.507503 
L 494.181818 638.060179 
L 493.466446 638.208119 
L 490.909091 638.474725 
L 487.636364 639.032607 
L 484.363636 640.20871 
L 482.517587 641.480981 
L 481.090909 641.675611 
L 477.818182 641.889608 
L 474.545455 642.133837 
L 471.272727 642.415189 
L 468 642.742826 
L 464.727273 643.129192 
L 461.454545 643.694773 
L 460.936484 643.822331 
M 442.299133 647.737861 
L 441.818182 647.837911 
L 441.014616 648.026706 
L 438.545455 648.327488 
L 435.272727 648.757135 
L 432 649.226601 
L 428.727273 649.687858 
L 425.454545 650.132041 
L 422.181818 650.600949 
L 418.909091 651.112521 
L 417.78247 651.299568 
L 415.636364 651.49975 
L 412.363636 651.830749 
L 409.090909 652.197254 
L 405.818182 652.605302 
L 402.545455 653.083912 
L 399.272727 653.720709 
L 396 654.344742 
L 394.60596 654.57243 
L 392.727273 654.705396 
L 389.454545 654.952475 
L 386.181818 655.228362 
L 382.909091 655.551765 
L 379.636364 655.936118 
L 376.363636 656.400445 
L 373.090909 656.962214 
L 369.818182 657.582472 
L 368.385785 657.845292 
L 366.545455 657.994494 
L 363.272727 658.193106 
L 360 658.416014 
L 356.727273 658.684241 
L 353.454545 659.0033 
L 350.181818 659.381614 
L 346.909091 659.816033 
L 343.636364 660.364032 
L 340.363636 660.938663 
L 339.307457 661.118154 
L 337.090909 661.323115 
L 333.818182 661.630551 
L 330.545455 661.965812 
L 327.272727 662.326399 
L 324 662.685544 
L 320.727273 663.038367 
L 317.454545 663.438253 
L 314.181818 663.835045 
L 310.909091 664.29196 
L 310.5032 664.391016 
L 307.636364 664.85055 
L 304.363636 665.44544 
L 301.090909 665.783124 
L 297.818182 666.038786 
L 294.545455 666.306458 
L 291.272727 666.810665 
L 288.150868 667.663879 
L 288 667.696453 
L 284.727273 668.297003 
L 281.454545 668.823603 
L 278.181818 669.044948 
L 274.909091 669.159579 
L 271.636364 669.45853 
L 268.363636 669.857945 
L 265.090909 670.671587 
L 264.497373 670.936741 
L 261.818182 671.617111 
L 258.545455 672.105015 
L 255.272727 672.191092 
L 252 672.27404 
L 248.727273 672.623379 
L 245.454545 673.224712 
L 242.313386 674.209603 
L 242.181818 674.240507 
L 238.909091 674.950441 
L 235.636364 675.329818 
L 232.363636 675.361217 
L 229.090909 675.486273 
L 225.818182 675.773075 
L 222.545455 676.344206 
L 219.859096 677.482465 
L 219.272727 677.660927 
L 216 678.37722 
L 212.727273 678.520659 
L 209.454545 678.519149 
L 206.181818 678.715399 
L 202.909091 679.139971 
L 199.636364 679.996372 
L 198.128382 680.755327 
L 196.363636 681.21067 
L 193.090909 681.757305 
L 189.818182 681.766673 
L 186.545455 681.794568 
L 183.272727 682.094843 
L 180 682.607577 
L 176.727273 683.691438 
L 176.151366 684.028189 
L 173.454545 684.669417 
L 170.181818 685.018316 
L 166.909091 684.922505 
L 163.636364 684.813529 
L 160.363636 684.798878 
L 157.090909 684.760073 
L 154.264472 684.028189 
L 153.818182 683.935594 
L 153.114863 684.028189 
L 150.545455 684.785012 
L 147.272727 685.842419 
L 144 685.799435 
L 140.727273 685.593494 
L 137.454545 685.775978 
L 134.181818 686.681652 
L 132.964314 687.301051 
L 130.909091 687.863954 
L 127.636364 688.197463 
L 124.363636 688.023078 
L 121.090909 687.927469 
L 117.818182 687.775848 
L 114.733351 687.301051 
L 114.545455 687.137485 
L 111.272727 684.937545 
L 108 685.890206 
L 104.727273 686.052816 
L 101.454545 685.843224 
L 98.181818 685.865794 
L 94.909091 686.480458 
L 92.422533 687.301051 
L 91.636364 687.496227 
L 88.363636 688.084674 
L 85.090909 688.064046 
L 81.818182 688.029688 
L 78.545455 687.959857 
L 75.272727 687.71682 
L 73.6999 687.301051 
L 72 686.978137 
L 68.727273 686.652811 
L 65.454545 686.475856 
L 62.181818 686.207389 
L 58.909091 686.292374 
L 55.636364 686.647542 
L 52.363636 687.139758 
L 51.860242 687.301051 
L 49.090909 687.856318 
L 45.818182 688.183233 
L 42.545455 688.289467 
L 39.272727 688.485022 
L 36 688.7092 
L 32.727273 688.464092 
L 29.454545 688.186497 
L 26.181818 687.813642 
L 22.909091 687.577525 
L 19.636364 687.996794 
L 16.363636 688.270574 
L 13.090909 688.463397 
L 9.818182 688.904845 
L 6.545455 689.253819 
L 3.272727 689.773445 
L 0 690.505135 
M 543.272727 619.658723 
L 543.932014 618.570946 
L 543.272727 617.911632 
L 542.61373 618.570946 
L 543.272727 619.658723 
z
" clip-path="url(#p5b914db99a)" style="fill: none"/>
    <path d="M 0 763.169771 
L 4.072788 762.576881 
L 6.545455 761.045439 
L 9.818182 760.392244 
L 13.090909 760.105023 
L 16.363636 759.956228 
L 19.842987 759.304019 
L 22.909091 757.634167 
L 26.181818 757.105186 
L 32.727273 756.667667 
L 36 755.954146 
L 39.272727 754.342173 
L 42.545455 753.814569 
L 49.090909 753.338947 
L 52.102998 752.758294 
L 52.363636 752.50273 
L 55.636364 750.948705 
L 58.909091 750.467162 
L 65.454545 750.000553 
L 67.723607 749.485432 
L 68.727273 748.561738 
L 72 747.4972 
L 75.272727 747.114195 
L 81.818182 746.712342 
L 84.037383 746.21257 
L 85.090909 745.270851 
L 88.363636 744.18786 
L 91.636364 743.802762 
L 98.181818 743.409618 
L 100.142154 742.939708 
L 101.454545 741.819395 
L 104.727273 740.844475 
L 108 740.488164 
L 114.545455 740.121826 
L 116.247412 739.666846 
L 117.818182 738.352692 
L 121.090909 737.475844 
L 124.363636 737.159835 
L 130.909091 736.834077 
L 132.533115 736.393984 
L 134.181818 735.05744 
L 137.454545 734.194865 
L 140.727273 733.870964 
L 147.272727 733.565939 
L 148.758628 733.121122 
L 150.545455 731.663535 
L 153.818182 730.881775 
L 157.090909 730.582048 
L 163.636364 730.333432 
L 165.26886 729.848259 
L 166.909091 728.475458 
L 170.181818 727.620352 
L 173.454545 727.299908 
L 180 727.227504 
L 183.677519 726.575397 
L 186.545455 724.908482 
L 189.818182 724.321089 
L 193.090909 724.055105 
L 199.636364 723.93786 
L 202.909091 723.55326 
L 203.859572 723.302535 
L 206.181818 721.811795 
L 209.454545 721.116468 
L 212.727273 720.800842 
L 216 720.644767 
L 222.545455 720.499477 
L 224.524158 720.029673 
L 225.818182 718.916983 
L 229.090909 717.872751 
L 232.363636 717.547996 
L 238.909091 717.262662 
L 242.181818 717.206417 
L 245.454545 716.738085 
L 248.727273 714.957803 
L 252 714.370856 
L 255.272727 714.056928 
L 261.818182 713.811759 
L 265.090909 713.72145 
L 266.276341 713.483949 
L 268.363636 711.880053 
L 271.636364 710.982104 
L 274.909091 710.668878 
L 281.454545 710.342614 
L 285.159118 710.211087 
L 288 708.893651 
L 291.272727 707.593248 
L 294.545455 707.217949 
L 299.585042 706.938224 
L 307.636364 704.664997 
L 310.909091 703.906582 
L 314.181818 703.560454 
L 317.454545 703.017372 
L 324 701.065256 
L 327.864499 700.3925 
L 337.090909 699.726448 
L 343.636364 699.022246 
L 350.181818 698.132088 
L 356.763132 697.119638 
L 363.272727 696.584733 
L 379.636364 695.381101 
L 386.181818 694.359015 
L 389.454545 694.113994 
L 402.545455 693.521378 
L 405.818182 693.251711 
L 428.727273 690.523008 
L 449.000598 687.301051 
L 452.188325 686.500951 
M 470.779992 681.840667 
L 475.189967 680.755327 
L 481.090909 678.940237 
L 486.126662 677.482465 
L 493.034869 674.209603 
L 494.181818 673.271134 
L 496.626714 670.936741 
L 497.703334 667.663879 
L 497.454545 667.495241 
L 494.181818 665.569378 
L 491.686495 664.391016 
L 494.181818 663.220848 
L 497.454545 662.238379 
L 500.727273 661.58907 
L 504.021658 661.118154 
L 507.272727 659.14007 
L 510.545455 658.202499 
L 512.586419 657.845292 
L 517.090909 657.64739 
L 521.654262 657.845292 
L 523.636364 658.172309 
L 526.909091 658.528009 
L 530.181818 658.600918 
L 536.727273 657.61447 
L 540 657.542677 
L 546.545455 657.14351 
L 550.807266 657.845292 
L 553.090909 658.0879 
L 556.363636 658.31192 
L 562.909091 659.736315 
L 566.181818 660.862348 
L 569.454545 661.143883 
L 572.727273 661.680021 
L 576 662.697619 
M 576 653.206338 
L 572.727273 652.966572 
L 566.021336 651.299568 
L 562.909091 650.81587 
L 559.636364 649.948534 
L 556.363636 649.443167 
L 553.090909 649.245216 
L 549.818182 649.160151 
L 546.545455 649.371317 
L 543.272727 649.412901 
L 540 649.631569 
L 536.727273 650.102711 
L 533.454545 651.066157 
L 530.181818 650.550265 
L 526.909091 649.829122 
L 523.636364 649.415784 
L 520.363636 649.147842 
L 517.090909 649.228727 
L 510.545455 649.781099 
L 497.830898 651.299568 
L 497.454545 651.448565 
L 494.181818 652.262148 
L 490.909091 652.668605 
L 484.363636 653.074838 
L 481.090909 653.231168 
L 468 654.658657 
L 464.727273 655.250628 
L 458.181818 655.946377 
L 451.636364 656.387065 
L 438.101465 657.845292 
L 435.272727 658.566195 
L 432 659.141193 
L 425.454545 659.86007 
L 418.909091 660.286996 
L 415.636364 660.431592 
L 409.090909 661.073767 
L 408.709049 661.118154 
L 405.818182 661.844203 
L 402.545455 662.432802 
L 396 663.20513 
L 382.909091 664.323946 
L 366.545455 666.42398 
L 360 667.213206 
L 353.454545 668.015146 
L 340.363636 669.633019 
L 330.545455 670.967664 
L 324 671.74878 
L 314.181818 673.320806 
L 307.636364 674.44102 
L 294.545455 676.351287 
L 288 677.551134 
L 281.454545 678.561152 
L 277.528685 679.22758 
M 258.6209 682.347508 
L 255.272727 682.86679 
L 247.721673 684.028189 
L 232.363636 686.814418 
L 225.818182 687.699894 
L 219.272727 688.996309 
L 216 689.644115 
L 209.225477 690.573914 
L 170.181818 698.274498 
L 163.636364 699.241296 
L 153.818182 700.856548 
L 147.272727 701.748953 
L 134.181818 703.963881 
L 121.090909 705.740748 
L 114.545455 706.329793 
L 91.636364 708.968476 
L 85.376428 710.211087 
L 81.818182 710.997915 
L 75.272727 711.60712 
L 72 712.278596 
L 68.727273 713.258749 
L 65.454545 713.652983 
L 58.909091 714.171615 
L 55.636364 714.613864 
L 48.789795 716.756811 
L 45.818182 717.850547 
L 42.545455 719.362373 
L 39.272727 720.094546 
L 36 721.421157 
L 32.727273 723.867049 
L 29.454545 724.819031 
L 26.181818 726.07173 
L 25.551909 726.575397 
L 24.200297 729.848259 
L 22.100069 733.121122 
L 19.29578 736.393984 
L 16.793344 739.666846 
L 16.363636 739.858951 
L 13.090909 740.832694 
L 9.707912 742.939708 
L 6.545455 744.207241 
L 3.272727 745.290108 
L 0 747.132775 
L 0 747.132775 
" clip-path="url(#p5b914db99a)" style="fill: none"/>
    <path d="M 131.57483 721.143099 
L 127.636364 722.111865 
L 124.032275 723.302535 
L 121.090909 725.295244 
L 117.382944 726.575397 
L 117.818182 727.471996 
L 120.035818 729.848259 
L 122.419591 729.848259 
L 124.363636 729.49994 
L 127.636364 728.425036 
L 130.909091 727.898977 
L 134.181818 727.66972 
L 137.454545 727.582213 
L 140.727273 727.732928 
L 144 727.425433 
L 147.725718 726.575397 
L 150.545455 725.809677 
L 153.818182 725.095463 
L 160.363636 725.12747 
L 163.636364 724.873762 
L 166.909091 723.774801 
L 167.560961 723.302535 
L 170.181818 722.566914 
L 173.454545 722.183117 
L 176.727273 722.232328 
L 180 722.156432 
L 183.272727 721.865767 
L 186.545455 721.175171 
L 188.606865 720.029673 
L 189.818182 719.705833 
L 193.090909 719.095817 
L 199.636364 719.098037 
L 202.909091 718.836394 
L 206.181818 718.270455 
L 209.511591 716.756811 
L 212.727273 716.020456 
L 222.545455 715.323986 
L 225.818182 714.582586 
L 229.090909 713.276846 
L 232.363636 712.519337 
L 235.636364 712.019059 
L 242.181818 711.590873 
L 245.454545 710.864512 
L 252 708.891567 
L 255.272727 708.287904 
L 261.818182 707.728039 
L 265.090909 707.211136 
L 266.044977 706.938224 
L 268.363636 705.82661 
L 271.636364 704.972072 
L 274.909091 704.456202 
L 281.454545 703.756624 
L 282.436716 703.665362 
L 284.727273 702.881326 
L 288 701.492383 
L 291.272727 700.830689 
L 294.013357 700.3925 
L 294.545455 700.039641 
L 297.818182 698.771541 
L 301.090909 697.849367 
L 304.140839 697.119638 
L 302.97145 693.846776 
L 301.090909 693.354647 
L 291.272727 692.747326 
L 288 692.802236 
L 284.727273 693.262529 
L 281.454545 693.927853 
L 278.181818 694.46032 
L 274.909091 695.140847 
L 265.090909 695.458799 
L 261.818182 695.774597 
L 257.967411 697.119638 
L 255.272727 697.731863 
L 252 698.183955 
L 245.454545 698.292951 
L 242.181818 698.554058 
L 238.909091 698.951959 
L 235.636364 699.789568 
L 234.587844 700.3925 
L 232.363636 700.908912 
L 229.090909 701.236443 
L 222.545455 701.406179 
L 219.272727 701.635783 
L 216 702.20839 
L 212.727273 703.685162 
L 209.454545 704.325555 
L 202.909091 704.742268 
L 199.636364 705.181985 
L 196.363636 706.023428 
L 194.413139 706.938224 
L 193.090909 707.287596 
L 189.818182 707.97174 
L 186.545455 708.387218 
L 183.272727 708.625366 
L 180 709.1104 
L 173.454545 710.977953 
L 170.181818 711.717579 
L 166.909091 712.321272 
L 160.363636 713.130238 
L 159.184796 713.483949 
L 157.090909 714.343686 
L 153.818182 715.385017 
L 150.068419 716.210918 
L 150.068419 716.210918 
" clip-path="url(#p5b914db99a)" style="fill: none"/>
    <path clip-path="url(#p5b914db99a)" style="fill: none"/>
    <path clip-path="url(#p5b914db99a)" style="fill: none"/>
    <path clip-path="url(#p5b914db99a)" style="fill: none"/>
    <path clip-path="url(#p5b914db99a)" style="fill: none"/>
    <path clip-path="url(#p5b914db99a)" style="fill: none"/>
    <path clip-path="url(#p5b914db99a)" style="fill: none"/>
    <path clip-path="url(#p5b914db99a)" style="fill: none"/>
    <path clip-path="url(#p5b914db99a)" style="fill: none"/>
    <path clip-path="url(#p5b914db99a)" style="fill: none"/>
    <path clip-path="url(#p5b914db99a)" style="fill: none"/>
    <path clip-path="url(#p5b914db99a)" style="fill: none"/>
    <path clip-path="url(#p5b914db99a)" style="fill: none"/>
    <path clip-path="url(#p5b914db99a)" style="fill: none"/>
    <path clip-path="url(#p5b914db99a)" style="fill: none"/>
    <path clip-path="url(#p5b914db99a)" style="fill: none"/>
    <path clip-path="url(#p5b914db99a)" style="fill: none"/>
    <path clip-path="url(#p5b914db99a)" style="fill: none"/>
    <path clip-path="url(#p5b914db99a)" style="fill: none"/>
    <path clip-path="url(#p5b914db99a)" style="fill: none"/>
    <path clip-path="url(#p5b914db99a)" style="fill: none"/>
    <path clip-path="url(#p5b914db99a)" style="fill: none"/>
    <path clip-path="url(#p5b914db99a)" style="fill: none"/>
    <path clip-path="url(#p5b914db99a)" style="fill: none"/>
    <path clip-path="url(#p5b914db99a)" style="fill: none"/>
    <path clip-path="url(#p5b914db99a)" style="fill: none"/>
    <path clip-path="url(#p5b914db99a)" style="fill: none"/>
    <path clip-path="url(#p5b914db99a)" style="fill: none"/>
    <path clip-path="url(#p5b914db99a)" style="fill: none"/>
    <path clip-path="url(#p5b914db99a)" style="fill: none"/>
    <path clip-path="url(#p5b914db99a)" style="fill: none"/>
    <path clip-path="url(#p5b914db99a)" style="fill: none"/>
    <path clip-path="url(#p5b914db99a)" style="fill: none"/>
    <path clip-path="url(#p5b914db99a)" style="fill: none"/>
    <path clip-path="url(#p5b914db99a)" style="fill: none"/>
    <path clip-path="url(#p5b914db99a)" style="fill: none"/>
    <path clip-path="url(#p5b914db99a)" style="fill: none"/>
   </g>
   <g id="text_1">
    <g clip-path="url(#p5b914db99a)">
     <!-- 0 -->
     <g style="opacity: 0" transform="translate(10.071387 765.41137) rotate(-12.37006) scale(0.12 -0.12)">
      <defs>
       <path id="DejaVuSans-30" d="M 2034 4250 
Q 1547 4250 1301 3770 
Q 1056 3291 1056 2328 
Q 1056 1369 1301 889 
Q 1547 409 2034 409 
Q 2525 409 2770 889 
Q 3016 1369 3016 2328 
Q 3016 3291 2770 3770 
Q 2525 4250 2034 4250 
z
M 2034 4750 
Q 2819 4750 3233 4129 
Q 3647 3509 3647 2328 
Q 3647 1150 3233 529 
Q 2819 -91 2034 -91 
Q 1250 -91 836 529 
Q 422 1150 422 2328 
Q 422 3509 836 4129 
Q 1250 4750 2034 4750 
z
" transform="scale(0.015625)"/>
      </defs>
      <use xlink:href="#DejaVuSans-30"/>
     </g>
    </g>
   </g>
   <g id="text_2">
    <g clip-path="url(#p5b914db99a)">
     <!-- 0 -->
     <g style="opacity: 0" transform="translate(448.521253 649.835659) rotate(-11.006257) scale(0.12 -0.12)">
      <use xlink:href="#DejaVuSans-30"/>
     </g>
    </g>
   </g>
   <g id="text_3">
    <g clip-path="url(#p5b914db99a)">
     <!-- 1 -->
     <g style="opacity: 0" transform="translate(458.548647 688.185468) rotate(-13.960395) scale(0.12 -0.12)">
      <defs>
       <path id="DejaVuSans-31" d="M 794 531 
L 1825 531 
L 1825 4091 
L 703 3866 
L 703 4441 
L 1819 4666 
L 2450 4666 
L 2450 531 
L 3481 531 
L 3481 0 
L 794 0 
L 794 531 
z
" transform="scale(0.015625)"/>
      </defs>
      <use xlink:href="#DejaVuSans-31"/>
     </g>
    </g>
   </g>
   <g id="text_4">
    <g clip-path="url(#p5b914db99a)">
     <!-- 1 -->
     <g style="opacity: 0" transform="translate(264.834375 684.637238) rotate(-9.251486) scale(0.12 -0.12)">
      <use xlink:href="#DejaVuSans-31"/>
     </g>
    </g>
   </g>
   <g id="text_5">
    <g clip-path="url(#p5b914db99a)">
     <!-- 2 -->
     <g style="opacity: 0" transform="translate(138.002694 722.579375) rotate(-16.436342) scale(0.12 -0.12)">
      <defs>
       <path id="DejaVuSans-32" d="M 1228 531 
L 3431 531 
L 3431 0 
L 469 0 
L 469 531 
Q 828 903 1448 1529 
Q 2069 2156 2228 2338 
Q 2531 2678 2651 2914 
Q 2772 3150 2772 3378 
Q 2772 3750 2511 3984 
Q 2250 4219 1831 4219 
Q 1534 4219 1204 4116 
Q 875 4013 500 3803 
L 500 4441 
Q 881 4594 1212 4672 
Q 1544 4750 1819 4750 
Q 2544 4750 2975 4387 
Q 3406 4025 3406 3419 
Q 3406 3131 3298 2873 
Q 3191 2616 2906 2266 
Q 2828 2175 2409 1742 
Q 1991 1309 1228 531 
z
" transform="scale(0.015625)"/>
      </defs>
      <use xlink:href="#DejaVuSans-32"/>
     </g>
    </g>
   </g>
  </g>
 </g>
 <defs>
  <clipPath id="p5b914db99a">
   <rect x="0" y="0" width="576" height="814.942675"/>
  </clipPath>
 </defs>
</svg>
