<?xml version="1.0" encoding="utf-8" standalone="no"?>
<!DOCTYPE svg PUBLIC "-//W3C//DTD SVG 1.1//EN"
  "http://www.w3.org/Graphics/SVG/1.1/DTD/svg11.dtd">
<svg xmlns:xlink="http://www.w3.org/1999/xlink" width="576pt" height="820.98809pt" viewBox="0 0 576 820.98809" xmlns="http://www.w3.org/2000/svg" version="1.1">
 <metadata>
  <rdf:RDF xmlns:dc="http://purl.org/dc/elements/1.1/" xmlns:cc="http://creativecommons.org/ns#" xmlns:rdf="http://www.w3.org/1999/02/22-rdf-syntax-ns#">
   <cc:Work>
    <dc:type rdf:resource="http://purl.org/dc/dcmitype/StillImage"/>
    <dc:date>2025-07-25T22:45:24.700543</dc:date>
    <dc:format>image/svg+xml</dc:format>
    <dc:creator>
     <cc:Agent>
      <dc:title>Matplotlib v3.10.3, https://matplotlib.org/</dc:title>
     </cc:Agent>
    </dc:creator>
   </cc:Work>
  </rdf:RDF>
 </metadata>
 <defs>
  <style type="text/css">*{stroke-linejoin: round; stroke-linecap: butt}</style>
 </defs>
 <g id="figure_1">
  <g id="patch_1">
   <path d="M 0 820.98809 
L 576 820.98809 
L 576 0 
L 0 0 
L 0 820.98809 
z
" style="fill: none; opacity: 0"/>
  </g>
  <g id="axes_1">
   <g id="QuadContourSet_1">
    <path d="M 315.977143 820.98809 
L 319.268571 820.98809 
L 322.56 820.98809 
L 325.851429 820.98809 
L 329.142857 820.98809 
L 332.434286 820.98809 
L 335.725714 820.98809 
L 339.017143 820.98809 
L 342.308571 820.98809 
L 344.857861 820.98809 
L 345.6 820.715565 
L 348.891429 819.583196 
L 352.182857 818.578182 
L 355.474286 817.824856 
L 356.05429 817.690949 
L 358.765714 817 
L 362.057143 816.12048 
L 365.348571 815.334639 
L 368.64 814.498366 
L 369.060569 814.393808 
L 371.931429 813.621274 
L 375.222857 812.752691 
L 378.514286 811.869318 
L 381.75516 811.096667 
L 381.805714 811.083449 
L 385.097143 810.104321 
L 388.388571 809.567297 
L 391.68 809.831709 
L 394.971429 810.943896 
L 395.119633 811.096667 
L 394.971429 811.232234 
L 391.68 812.752962 
L 389.965695 814.393808 
L 391.68 816.808466 
L 394.971429 816.6859 
L 398.262857 816.0678 
L 401.554286 815.454115 
L 404.845714 814.86097 
L 407.441178 814.393808 
L 408.137143 814.260977 
L 411.428571 813.597364 
L 414.72 812.936043 
L 418.011429 812.308456 
L 421.302857 811.664531 
L 424.10392 811.096667 
L 424.594286 810.992091 
L 427.885714 810.402048 
L 431.177143 809.984601 
L 434.468571 809.510241 
L 437.76 809.060813 
L 441.051429 808.693847 
L 444.342857 808.224513 
L 447.382486 807.799526 
L 447.634286 807.762961 
L 450.925714 807.369174 
L 454.217143 806.927495 
L 457.508571 806.457742 
L 460.8 806.064058 
L 464.091429 805.6676 
L 467.382857 805.401346 
L 470.674286 805.201666 
L 473.965714 805.034637 
L 477.257143 805.025827 
L 480.548571 804.858347 
L 483.84 804.821729 
L 487.131429 805.125467 
L 490.422857 805.245444 
L 493.714286 805.606038 
L 497.005714 806.767671 
L 499.039189 807.799526 
L 500.297143 809.402103 
L 503.588571 810.914398 
L 503.674066 811.096667 
L 503.588571 811.745058 
L 503.329428 814.393808 
L 502.149163 817.690949 
L 500.760447 820.98809 
L 503.588571 820.98809 
L 506.88 820.98809 
L 510.171429 820.98809 
L 513.462857 820.98809 
L 516.754286 820.98809 
L 520.045714 820.98809 
L 523.337143 820.98809 
L 526.628571 820.98809 
L 529.92 820.98809 
L 533.211429 820.98809 
L 536.502857 820.98809 
L 539.794286 820.98809 
L 543.085714 820.98809 
L 546.377143 820.98809 
L 549.668571 820.98809 
L 552.96 820.98809 
L 556.251429 820.98809 
L 559.542857 820.98809 
L 562.834286 820.98809 
L 566.125714 820.98809 
L 569.417143 820.98809 
L 572.708571 820.98809 
L 576 820.98809 
L 576 817.690949 
L 576 814.393808 
L 576 811.096667 
L 576 807.799526 
L 576 804.502385 
L 576 801.205245 
L 576 797.908104 
L 576 794.610963 
L 576 791.313822 
L 576 788.016681 
L 576 784.71954 
L 576 781.422399 
L 576 778.125258 
L 576 774.828117 
L 576 771.530976 
L 576 768.233835 
L 576 764.936694 
L 576 761.639553 
L 576 758.342413 
L 576 755.045272 
L 576 751.748131 
L 576 748.45099 
L 576 745.153849 
L 576 741.856708 
L 576 741.30235 
L 574.521556 741.856708 
L 572.708571 742.530981 
L 569.417143 743.374238 
L 566.125714 744.194995 
L 563.624544 745.153849 
L 562.834286 745.498116 
L 559.542857 746.332579 
L 556.251429 747.154683 
L 552.96 748.330721 
L 552.679997 748.45099 
L 549.668571 749.339476 
L 546.377143 750.149136 
L 543.085714 751.051339 
L 541.373225 751.748131 
L 539.794286 752.278116 
L 536.502857 753.137898 
L 533.211429 753.877368 
L 530.273561 755.045272 
L 529.92 755.185298 
L 526.628571 756.165363 
L 523.337143 756.835897 
L 520.045714 758.029215 
L 519.486539 758.342413 
L 516.754286 759.192385 
L 513.462857 759.912423 
L 510.171429 760.859638 
L 508.751516 761.639553 
L 506.88 762.268476 
L 503.588571 763.067825 
L 500.297143 763.791454 
L 498.016532 764.936694 
L 497.005714 765.306018 
L 493.714286 766.22984 
L 490.422857 766.832297 
L 487.23368 768.233835 
L 487.131429 768.274846 
L 483.84 769.200683 
L 480.548571 769.907738 
L 477.257143 770.936267 
L 476.165476 771.530976 
L 473.965714 772.159344 
L 470.674286 772.9321 
L 467.382857 773.743976 
L 464.991516 774.828117 
L 464.091429 775.11573 
L 460.8 775.955994 
L 457.508571 776.614117 
L 454.217143 777.972696 
L 454.014109 778.125258 
L 450.925714 779.156044 
L 447.634286 779.587458 
L 444.342857 780.757631 
L 443.483846 781.422399 
L 441.051429 782.266898 
L 437.76 782.794249 
L 434.468571 783.716349 
L 433.185911 784.71954 
L 431.177143 785.403161 
L 427.885714 786.128162 
L 424.594286 786.876435 
L 422.867056 788.016681 
L 421.302857 788.563964 
L 418.011429 789.443382 
L 414.72 790.021565 
L 412.162631 791.313822 
L 411.428571 791.587072 
L 408.137143 792.612865 
L 404.845714 793.188046 
L 401.609048 794.610963 
L 401.554286 794.634277 
L 398.262857 795.689622 
L 394.971429 796.375116 
L 391.68 797.516627 
L 391.120803 797.908104 
L 388.388571 798.796394 
L 385.097143 799.609104 
L 381.805714 800.485028 
L 380.52371 801.205245 
L 378.514286 801.895339 
L 375.222857 802.782578 
L 371.931429 803.505332 
L 369.777378 804.502385 
L 368.64 804.928496 
L 365.348571 805.85364 
L 362.057143 806.559731 
L 359.009982 807.799526 
L 358.765714 807.900235 
L 355.474286 808.87894 
L 352.182857 809.644457 
L 348.891429 810.715519 
L 348.235276 811.096667 
L 345.6 811.93643 
L 342.308571 812.759331 
L 339.017143 813.632297 
L 337.434408 814.393808 
L 335.725714 814.964819 
L 332.434286 815.832172 
L 329.142857 816.602709 
L 326.393998 817.690949 
L 325.851429 817.87693 
L 322.56 818.794652 
L 319.268571 819.497895 
L 315.977143 820.5576 
L 315.177088 820.98809 
z
M 388.388571 817.736531 
L 388.728956 817.690949 
L 388.388571 817.546489 
L 387.779204 817.690949 
z
" clip-path="url(#p84b0096740)" style="fill: #f5f9fe; fill-opacity: 0.9"/>
    <path d="M 345.6 820.98809 
L 348.891429 820.98809 
L 352.182857 820.98809 
L 355.474286 820.98809 
L 358.765714 820.98809 
L 362.057143 820.98809 
L 365.348571 820.98809 
L 368.64 820.98809 
L 371.931429 820.98809 
L 375.222857 820.98809 
L 378.514286 820.98809 
L 381.805714 820.98809 
L 385.097143 820.98809 
L 388.388571 820.98809 
L 391.68 820.98809 
L 394.971429 820.98809 
L 398.262857 820.98809 
L 401.554286 820.98809 
L 404.845714 820.98809 
L 408.137143 820.98809 
L 411.428571 820.98809 
L 414.72 820.98809 
L 418.011429 820.98809 
L 421.302857 820.98809 
L 424.594286 820.98809 
L 427.885714 820.98809 
L 431.177143 820.98809 
L 434.468571 820.98809 
L 437.76 820.98809 
L 441.051429 820.98809 
L 444.342857 820.98809 
L 447.634286 820.98809 
L 450.925714 820.98809 
L 454.217143 820.98809 
L 457.508571 820.98809 
L 460.8 820.98809 
L 464.091429 820.98809 
L 467.382857 820.98809 
L 470.674286 820.98809 
L 473.965714 820.98809 
L 477.257143 820.98809 
L 480.548571 820.98809 
L 483.84 820.98809 
L 487.131429 820.98809 
L 490.422857 820.98809 
L 493.714286 820.98809 
L 497.005714 820.98809 
L 500.297143 820.98809 
L 500.760447 820.98809 
L 502.149163 817.690949 
L 503.329428 814.393808 
L 503.588571 811.745058 
L 503.674066 811.096667 
L 503.588571 810.914398 
L 500.297143 809.402103 
L 499.039189 807.799526 
L 497.005714 806.767671 
L 493.714286 805.606038 
L 490.422857 805.245444 
L 487.131429 805.125467 
L 483.84 804.821729 
L 480.548571 804.858347 
L 477.257143 805.025827 
L 473.965714 805.034637 
L 470.674286 805.201666 
L 467.382857 805.401346 
L 464.091429 805.6676 
L 460.8 806.064058 
L 457.508571 806.457742 
L 454.217143 806.927495 
L 450.925714 807.369174 
L 447.634286 807.762961 
L 447.382486 807.799526 
L 444.342857 808.224513 
L 441.051429 808.693847 
L 437.76 809.060813 
L 434.468571 809.510241 
L 431.177143 809.984601 
L 427.885714 810.402048 
L 424.594286 810.992091 
L 424.10392 811.096667 
L 421.302857 811.664531 
L 418.011429 812.308456 
L 414.72 812.936043 
L 411.428571 813.597364 
L 408.137143 814.260977 
L 407.441178 814.393808 
L 404.845714 814.86097 
L 401.554286 815.454115 
L 398.262857 816.0678 
L 394.971429 816.6859 
L 391.68 816.808466 
L 389.965695 814.393808 
L 391.68 812.752962 
L 394.971429 811.232234 
L 395.119633 811.096667 
L 394.971429 810.943896 
L 391.68 809.831709 
L 388.388571 809.567297 
L 385.097143 810.104321 
L 381.805714 811.083449 
L 381.75516 811.096667 
L 378.514286 811.869318 
L 375.222857 812.752691 
L 371.931429 813.621274 
L 369.060569 814.393808 
L 368.64 814.498366 
L 365.348571 815.334639 
L 362.057143 816.12048 
L 358.765714 817 
L 356.05429 817.690949 
L 355.474286 817.824856 
L 352.182857 818.578182 
L 348.891429 819.583196 
L 345.6 820.715565 
L 344.857861 820.98809 
z
M 387.779204 817.690949 
L 388.388571 817.546489 
L 388.728956 817.690949 
L 388.388571 817.736531 
z
" clip-path="url(#p84b0096740)" style="fill: #eff6fc; fill-opacity: 0.9"/>
    <path clip-path="url(#p84b0096740)" style="fill: #eaf3fb; fill-opacity: 0.9"/>
    <path clip-path="url(#p84b0096740)" style="fill: #e5eff9; fill-opacity: 0.9"/>
    <path clip-path="url(#p84b0096740)" style="fill: #dfecf7; fill-opacity: 0.9"/>
    <path clip-path="url(#p84b0096740)" style="fill: #dae8f6; fill-opacity: 0.9"/>
    <path clip-path="url(#p84b0096740)" style="fill: #d6e5f4; fill-opacity: 0.9"/>
    <path clip-path="url(#p84b0096740)" style="fill: #d0e2f2; fill-opacity: 0.9"/>
    <path clip-path="url(#p84b0096740)" style="fill: #cbdef1; fill-opacity: 0.9"/>
    <path clip-path="url(#p84b0096740)" style="fill: #c6dbef; fill-opacity: 0.9"/>
    <path clip-path="url(#p84b0096740)" style="fill: #bed8ec; fill-opacity: 0.9"/>
    <path clip-path="url(#p84b0096740)" style="fill: #b5d4e9; fill-opacity: 0.9"/>
    <path clip-path="url(#p84b0096740)" style="fill: #add0e6; fill-opacity: 0.9"/>
    <path clip-path="url(#p84b0096740)" style="fill: #a5cde3; fill-opacity: 0.9"/>
    <path clip-path="url(#p84b0096740)" style="fill: #9cc9e1; fill-opacity: 0.9"/>
    <path clip-path="url(#p84b0096740)" style="fill: #91c3de; fill-opacity: 0.9"/>
    <path clip-path="url(#p84b0096740)" style="fill: #85bcdc; fill-opacity: 0.9"/>
    <path clip-path="url(#p84b0096740)" style="fill: #7cb7da; fill-opacity: 0.9"/>
    <path clip-path="url(#p84b0096740)" style="fill: #71b1d7; fill-opacity: 0.9"/>
    <path clip-path="url(#p84b0096740)" style="fill: #66abd4; fill-opacity: 0.9"/>
    <path clip-path="url(#p84b0096740)" style="fill: #5da5d1; fill-opacity: 0.9"/>
    <path clip-path="url(#p84b0096740)" style="fill: #56a0ce; fill-opacity: 0.9"/>
    <path clip-path="url(#p84b0096740)" style="fill: #4d99ca; fill-opacity: 0.9"/>
    <path clip-path="url(#p84b0096740)" style="fill: #4493c7; fill-opacity: 0.9"/>
    <path clip-path="url(#p84b0096740)" style="fill: #3c8cc3; fill-opacity: 0.9"/>
    <path clip-path="url(#p84b0096740)" style="fill: #3686c0; fill-opacity: 0.9"/>
    <path clip-path="url(#p84b0096740)" style="fill: #2f7fbc; fill-opacity: 0.9"/>
    <path clip-path="url(#p84b0096740)" style="fill: #2777b8; fill-opacity: 0.9"/>
    <path clip-path="url(#p84b0096740)" style="fill: #2070b4; fill-opacity: 0.9"/>
    <path clip-path="url(#p84b0096740)" style="fill: #1c6ab0; fill-opacity: 0.9"/>
    <path clip-path="url(#p84b0096740)" style="fill: #1663aa; fill-opacity: 0.9"/>
    <path clip-path="url(#p84b0096740)" style="fill: #115ca5; fill-opacity: 0.9"/>
    <path clip-path="url(#p84b0096740)" style="fill: #0c56a0; fill-opacity: 0.9"/>
    <path clip-path="url(#p84b0096740)" style="fill: #084f99; fill-opacity: 0.9"/>
    <path clip-path="url(#p84b0096740)" style="fill: #08488e; fill-opacity: 0.9"/>
    <path clip-path="url(#p84b0096740)" style="fill: #084184; fill-opacity: 0.9"/>
    <path clip-path="url(#p84b0096740)" style="fill: #083a7a; fill-opacity: 0.9"/>
    <path clip-path="url(#p84b0096740)" style="fill: #083370; fill-opacity: 0.9"/>
    <path clip-path="url(#p84b0096740)" style="fill: #08306b; fill-opacity: 0.9"/>
   </g>
   <g id="QuadContourSet_2">
    <path d="M 576 741.30235 
L 574.521556 741.856708 
L 572.708571 742.530981 
L 569.417143 743.374238 
L 566.125714 744.194995 
L 563.624544 745.153849 
L 562.834286 745.498116 
L 559.542857 746.332579 
L 556.251429 747.154683 
L 552.96 748.330721 
L 552.679997 748.45099 
L 549.668571 749.339476 
L 548.902528 749.527915 
M 530.654006 754.894032 
L 530.273561 755.045272 
L 529.92 755.185298 
L 526.628571 756.165363 
L 523.337143 756.835897 
L 520.045714 758.029215 
L 519.486539 758.342413 
L 516.754286 759.192385 
L 513.462857 759.912423 
L 510.171429 760.859638 
L 508.751516 761.639553 
L 506.88 762.268476 
L 503.588571 763.067825 
L 500.297143 763.791454 
L 498.016532 764.936694 
L 497.005714 765.306018 
L 493.714286 766.22984 
L 490.422857 766.832297 
L 487.23368 768.233835 
L 487.131429 768.274846 
L 483.84 769.200683 
L 480.548571 769.907738 
L 477.257143 770.936267 
L 476.165476 771.530976 
L 473.965714 772.159344 
L 470.674286 772.9321 
L 467.382857 773.743976 
L 464.991516 774.828117 
L 464.091429 775.11573 
L 460.8 775.955994 
L 457.508571 776.614117 
L 454.217143 777.972696 
L 454.014109 778.125258 
L 450.925714 779.156044 
L 447.634286 779.587458 
L 444.342857 780.757631 
L 443.483846 781.422399 
L 441.051429 782.266898 
L 437.76 782.794249 
L 434.468571 783.716349 
L 433.185911 784.71954 
L 431.177143 785.403161 
L 427.885714 786.128162 
L 424.594286 786.876435 
L 422.867056 788.016681 
L 421.302857 788.563964 
L 418.011429 789.443382 
L 414.72 790.021565 
L 412.162631 791.313822 
L 411.428571 791.587072 
L 408.137143 792.612865 
L 404.845714 793.188046 
L 401.609048 794.610963 
L 401.554286 794.634277 
L 398.262857 795.689622 
L 394.971429 796.375116 
L 391.68 797.516627 
L 391.120803 797.908104 
L 388.388571 798.796394 
L 385.097143 799.609104 
L 381.805714 800.485028 
L 380.52371 801.205245 
L 378.514286 801.895339 
L 375.222857 802.782578 
L 371.931429 803.505332 
L 369.777378 804.502385 
L 368.64 804.928496 
L 365.348571 805.85364 
L 362.057143 806.559731 
L 359.009982 807.799526 
L 358.765714 807.900235 
L 355.474286 808.87894 
L 352.182857 809.644457 
L 348.891429 810.715519 
L 348.235276 811.096667 
L 345.6 811.93643 
L 342.308571 812.759331 
L 339.017143 813.632297 
L 337.434408 814.393808 
L 335.725714 814.964819 
L 332.434286 815.832172 
L 329.142857 816.602709 
L 326.393998 817.690949 
L 325.851429 817.87693 
L 322.56 818.794652 
L 319.268571 819.497895 
L 315.977143 820.5576 
L 315.177088 820.98809 
" clip-path="url(#p84b0096740)" style="fill: none"/>
    <path d="M 500.760447 820.98809 
L 502.149163 817.690949 
L 503.329428 814.393808 
L 503.588571 811.745058 
L 503.674066 811.096667 
L 503.588571 810.914398 
L 500.297143 809.402103 
L 499.039189 807.799526 
L 497.005714 806.767671 
L 493.714286 805.606038 
L 490.422857 805.245444 
L 487.131429 805.125467 
L 483.84 804.821729 
L 480.548571 804.858347 
L 477.257143 805.025827 
L 473.965714 805.034637 
L 470.674286 805.201666 
L 467.382857 805.401346 
L 464.091429 805.6676 
L 460.8 806.064058 
L 457.508571 806.457742 
L 454.217143 806.927495 
L 450.925714 807.369174 
L 447.634286 807.762961 
L 447.382486 807.799526 
L 444.342857 808.224513 
L 441.051429 808.693847 
L 437.76 809.060813 
L 434.468571 809.510241 
L 431.177143 809.984601 
L 427.885714 810.402048 
L 424.594286 810.992091 
L 424.123804 811.092427 
M 405.315805 814.776357 
L 404.845714 814.86097 
L 401.554286 815.454115 
L 398.262857 816.0678 
L 394.971429 816.6859 
L 391.68 816.808466 
L 389.965695 814.393808 
L 391.68 812.752962 
L 394.971429 811.232234 
L 395.119633 811.096667 
L 394.971429 810.943896 
L 391.68 809.831709 
L 388.388571 809.567297 
L 385.097143 810.104321 
L 381.805714 811.083449 
L 381.75516 811.096667 
L 378.514286 811.869318 
L 375.222857 812.752691 
L 371.931429 813.621274 
L 369.060569 814.393808 
L 368.64 814.498366 
L 365.348571 815.334639 
L 362.057143 816.12048 
L 358.765714 817 
L 356.05429 817.690949 
L 355.474286 817.824856 
L 352.182857 818.578182 
L 348.891429 819.583196 
L 345.6 820.715565 
L 344.857861 820.98809 
M 388.388571 817.736531 
L 387.779204 817.690949 
L 388.388571 817.546489 
L 388.728956 817.690949 
L 388.388571 817.736531 
z
" clip-path="url(#p84b0096740)" style="fill: none"/>
    <path clip-path="url(#p84b0096740)" style="fill: none"/>
    <path clip-path="url(#p84b0096740)" style="fill: none"/>
    <path clip-path="url(#p84b0096740)" style="fill: none"/>
    <path clip-path="url(#p84b0096740)" style="fill: none"/>
    <path clip-path="url(#p84b0096740)" style="fill: none"/>
    <path clip-path="url(#p84b0096740)" style="fill: none"/>
    <path clip-path="url(#p84b0096740)" style="fill: none"/>
    <path clip-path="url(#p84b0096740)" style="fill: none"/>
    <path clip-path="url(#p84b0096740)" style="fill: none"/>
    <path clip-path="url(#p84b0096740)" style="fill: none"/>
    <path clip-path="url(#p84b0096740)" style="fill: none"/>
    <path clip-path="url(#p84b0096740)" style="fill: none"/>
    <path clip-path="url(#p84b0096740)" style="fill: none"/>
    <path clip-path="url(#p84b0096740)" style="fill: none"/>
    <path clip-path="url(#p84b0096740)" style="fill: none"/>
    <path clip-path="url(#p84b0096740)" style="fill: none"/>
    <path clip-path="url(#p84b0096740)" style="fill: none"/>
    <path clip-path="url(#p84b0096740)" style="fill: none"/>
    <path clip-path="url(#p84b0096740)" style="fill: none"/>
    <path clip-path="url(#p84b0096740)" style="fill: none"/>
    <path clip-path="url(#p84b0096740)" style="fill: none"/>
    <path clip-path="url(#p84b0096740)" style="fill: none"/>
    <path clip-path="url(#p84b0096740)" style="fill: none"/>
    <path clip-path="url(#p84b0096740)" style="fill: none"/>
    <path clip-path="url(#p84b0096740)" style="fill: none"/>
    <path clip-path="url(#p84b0096740)" style="fill: none"/>
    <path clip-path="url(#p84b0096740)" style="fill: none"/>
    <path clip-path="url(#p84b0096740)" style="fill: none"/>
    <path clip-path="url(#p84b0096740)" style="fill: none"/>
    <path clip-path="url(#p84b0096740)" style="fill: none"/>
    <path clip-path="url(#p84b0096740)" style="fill: none"/>
    <path clip-path="url(#p84b0096740)" style="fill: none"/>
    <path clip-path="url(#p84b0096740)" style="fill: none"/>
    <path clip-path="url(#p84b0096740)" style="fill: none"/>
    <path clip-path="url(#p84b0096740)" style="fill: none"/>
    <path clip-path="url(#p84b0096740)" style="fill: none"/>
    <path clip-path="url(#p84b0096740)" style="fill: none"/>
   </g>
   <g id="text_1">
    <g clip-path="url(#p84b0096740)">
     <!-- 0 -->
     <g style="opacity: 0" transform="translate(537.06877 756.533612) rotate(-16.423729) scale(0.12 -0.12)">
      <defs>
       <path id="DejaVuSans-30" d="M 2034 4250 
Q 1547 4250 1301 3770 
Q 1056 3291 1056 2328 
Q 1056 1369 1301 889 
Q 1547 409 2034 409 
Q 2525 409 2770 889 
Q 3016 1369 3016 2328 
Q 3016 3291 2770 3770 
Q 2525 4250 2034 4250 
z
M 2034 4750 
Q 2819 4750 3233 4129 
Q 3647 3509 3647 2328 
Q 3647 1150 3233 529 
Q 2819 -91 2034 -91 
Q 1250 -91 836 529 
Q 422 1150 422 2328 
Q 422 3509 836 4129 
Q 1250 4750 2034 4750 
z
" transform="scale(0.015625)"/>
      </defs>
      <use xlink:href="#DejaVuSans-30"/>
     </g>
    </g>
   </g>
   <g id="text_2">
    <g clip-path="url(#p84b0096740)">
     <!-- 1 -->
     <g style="opacity: 0" transform="translate(411.608492 816.918027) rotate(-11.058114) scale(0.12 -0.12)">
      <defs>
       <path id="DejaVuSans-31" d="M 794 531 
L 1825 531 
L 1825 4091 
L 703 3866 
L 703 4441 
L 1819 4666 
L 2450 4666 
L 2450 531 
L 3481 531 
L 3481 0 
L 794 0 
L 794 531 
z
" transform="scale(0.015625)"/>
      </defs>
      <use xlink:href="#DejaVuSans-31"/>
     </g>
    </g>
   </g>
  </g>
 </g>
 <defs>
  <clipPath id="p84b0096740">
   <rect x="0" y="0" width="576" height="820.98809"/>
  </clipPath>
 </defs>
</svg>
