<?xml version="1.0" encoding="utf-8" standalone="no"?>
<!DOCTYPE svg PUBLIC "-//W3C//DTD SVG 1.1//EN"
  "http://www.w3.org/Graphics/SVG/1.1/DTD/svg11.dtd">
<svg xmlns:xlink="http://www.w3.org/1999/xlink" width="576pt" height="814.942675pt" viewBox="0 0 576 814.942675" xmlns="http://www.w3.org/2000/svg" version="1.1">
 <metadata>
  <rdf:RDF xmlns:dc="http://purl.org/dc/elements/1.1/" xmlns:cc="http://creativecommons.org/ns#" xmlns:rdf="http://www.w3.org/1999/02/22-rdf-syntax-ns#">
   <cc:Work>
    <dc:type rdf:resource="http://purl.org/dc/dcmitype/StillImage"/>
    <dc:date>2025-07-25T22:45:12.140339</dc:date>
    <dc:format>image/svg+xml</dc:format>
    <dc:creator>
     <cc:Agent>
      <dc:title>Matplotlib v3.10.3, https://matplotlib.org/</dc:title>
     </cc:Agent>
    </dc:creator>
   </cc:Work>
  </rdf:RDF>
 </metadata>
 <defs>
  <style type="text/css">*{stroke-linejoin: round; stroke-linecap: butt}</style>
 </defs>
 <g id="figure_1">
  <g id="patch_1">
   <path d="M 0 814.942675 
L 576 814.942675 
L 576 0 
L 0 0 
L 0 814.942675 
z
" style="fill: none; opacity: 0"/>
  </g>
  <g id="axes_1">
   <g id="QuadContourSet_1">
    <path d="M 137.454545 814.942675 
L 140.727273 814.942675 
L 144 814.942675 
L 147.272727 814.942675 
L 150.545455 814.942675 
L 153.818182 814.942675 
L 157.090909 814.942675 
L 160.363636 814.942675 
L 161.879944 814.942675 
L 163.636364 814.347456 
L 166.909091 813.180272 
L 170.181818 811.732306 
L 170.314492 811.669813 
L 173.454545 810.216181 
L 176.727273 808.785392 
L 177.470433 808.396951 
L 180 807.13908 
L 183.272727 805.965364 
L 184.754084 805.124089 
L 186.545455 804.264911 
L 189.818182 803.321288 
L 192.867932 801.851227 
L 193.090909 801.76313 
L 196.363636 800.982332 
L 199.636364 800.32361 
L 202.909091 799.008734 
L 204.056683 798.578365 
L 206.181818 797.714734 
L 209.454545 796.55747 
L 212.727273 795.333649 
L 212.777649 795.305502 
L 216 794.07498 
L 219.272727 793.591147 
L 222.420137 792.03264 
L 222.545455 791.995382 
L 222.882057 792.03264 
L 225.818182 792.631349 
L 227.324862 792.03264 
L 229.090909 791.359419 
L 232.363636 790.619785 
L 235.636364 789.379844 
L 237.064975 788.759778 
L 238.909091 787.84907 
L 242.181818 786.467904 
L 244.280645 785.486916 
L 245.454545 784.953277 
L 248.727273 783.905984 
L 252 782.881383 
L 253.549685 782.214054 
L 255.272727 781.735889 
L 258.545455 781.365145 
L 261.818182 780.381663 
L 265.090909 779.729377 
L 267.615679 778.941192 
L 268.363636 778.65066 
L 271.636364 777.500347 
L 274.909091 776.444655 
L 276.448327 775.66833 
L 278.181818 775.008717 
L 281.454545 774.066289 
L 284.727273 772.74509 
L 286.148754 772.395467 
L 288 772.051973 
L 291.272727 771.330727 
L 294.545455 770.348143 
L 297.818182 769.783972 
L 299.378331 769.122605 
L 301.090909 768.442596 
L 304.363636 767.718651 
L 307.636364 766.455235 
L 309.705557 765.849743 
L 310.909091 765.56 
L 314.181818 764.36622 
L 317.454545 763.195847 
L 319.225818 762.576881 
L 320.727273 762.088145 
L 324 761.131207 
L 327.272727 760.257144 
L 330.350468 759.304019 
L 330.545455 759.247654 
L 333.818182 758.407681 
L 337.090909 757.72722 
L 340.363636 756.536192 
L 343.492508 756.031157 
L 343.636364 756.006586 
L 346.909091 754.492225 
L 350.181818 753.490801 
L 351.978437 752.758294 
L 353.454545 752.154984 
L 356.727273 750.904785 
L 360 750.104662 
L 361.916304 749.485432 
L 363.272727 749.137127 
L 366.545455 748.705027 
L 369.818182 748.244619 
L 373.090909 747.473364 
L 376.363636 746.888283 
L 379.168518 746.21257 
L 379.636364 746.059396 
L 382.909091 744.896165 
L 386.181818 744.128913 
L 388.867422 742.939708 
L 389.454545 742.736565 
L 392.727273 741.784713 
L 396 740.911184 
L 399.272727 740.04376 
L 402.545455 739.907482 
L 405.818182 739.866384 
L 409.090909 739.874868 
L 409.922912 739.666846 
L 412.363636 739.067377 
L 415.636364 738.648965 
L 418.909091 738.378525 
L 422.181818 737.697475 
L 425.454545 737.160409 
L 428.727273 736.886683 
L 432 736.456753 
L 432.533367 736.393984 
L 435.272727 736.132773 
L 438.545455 735.911376 
L 441.818182 735.826397 
L 445.090909 735.629743 
L 448.363636 735.284794 
L 451.636364 735.226319 
L 454.909091 735.459445 
L 458.181818 735.167217 
L 461.454545 734.896011 
L 464.727273 734.850641 
L 468 734.532187 
L 471.272727 734.00269 
L 474.545455 733.80091 
L 477.818182 734.005843 
L 481.090909 734.231117 
L 484.363636 734.089314 
L 487.636364 734.051558 
L 490.909091 734.494687 
L 494.181818 734.704741 
L 497.454545 733.61511 
L 500.727273 734.56445 
L 502.670012 736.393984 
L 500.727273 738.146824 
L 497.454545 737.958007 
L 495.146448 739.666846 
L 494.181818 740.532946 
L 490.909091 741.652853 
L 487.636364 742.850311 
L 487.553273 742.939708 
L 484.363636 744.599289 
L 481.090909 745.726424 
L 480.200728 746.21257 
L 477.818182 747.715989 
L 474.545455 749.015967 
L 473.72382 749.485432 
L 474.545455 750.561727 
L 477.818182 750.714311 
L 480.746316 749.485432 
L 481.090909 748.600281 
L 484.363636 747.758395 
L 487.636364 746.808393 
L 488.537366 746.21257 
L 490.909091 744.626829 
L 494.181818 744.329318 
L 496.312452 742.939708 
L 497.454545 741.683974 
L 500.727273 741.16316 
L 502.799273 742.939708 
L 500.727273 745.097731 
L 498.361649 746.21257 
L 500.727273 746.835267 
L 503.604839 746.21257 
L 504 745.855607 
L 507.272727 744.942882 
L 510.545455 744.400729 
L 513.818182 743.248858 
L 514.235909 742.939708 
L 517.090909 742.212425 
L 520.363636 742.053528 
L 523.636364 742.156552 
L 526.909091 742.724054 
L 527.213035 742.939708 
L 526.909091 743.322048 
L 523.864735 746.21257 
L 524.34797 749.485432 
L 523.636364 750.073698 
L 521.416461 752.758294 
L 520.363636 753.262719 
L 517.090909 755.902314 
L 516.940827 756.031157 
L 513.818182 756.836712 
L 510.545455 757.639247 
L 507.428983 759.304019 
L 507.272727 759.366507 
L 504 760.614171 
L 500.727273 761.142769 
L 497.822859 762.576881 
L 497.454545 762.757856 
L 494.181818 763.97601 
L 490.909091 764.75722 
L 488.254416 765.849743 
L 487.636364 766.109985 
L 484.363636 767.185707 
L 481.090909 768.274101 
L 478.149173 769.122605 
L 477.818182 769.20393 
L 474.545455 770.12995 
L 471.272727 770.75216 
L 468 771.529974 
L 466.26519 772.395467 
L 464.727273 772.791779 
L 461.454545 772.784861 
L 458.181818 774.352018 
L 454.909091 775.111949 
L 453.313609 775.66833 
L 451.636364 776.441852 
L 448.363636 777.714031 
L 445.229265 778.941192 
L 445.090909 779.002607 
L 441.818182 779.975581 
L 438.545455 781.011787 
L 435.272727 781.892804 
L 434.393866 782.214054 
L 432 782.88869 
L 428.727273 783.65985 
L 425.454545 784.188845 
L 422.562762 785.486916 
L 422.181818 785.588874 
L 418.909091 785.686255 
L 415.636364 787.139072 
L 412.363636 788.052475 
L 410.56218 788.759778 
L 409.090909 789.419528 
L 405.818182 790.65519 
L 402.574604 792.03264 
L 402.545455 792.04523 
L 399.272727 793.28358 
L 396 794.751207 
L 394.720706 795.305502 
L 392.727273 796.00564 
L 389.454545 797.420127 
L 386.865835 798.578365 
L 386.181818 798.802331 
L 382.909091 799.922983 
L 379.636364 801.495005 
L 378.728918 801.851227 
L 376.363636 802.503894 
L 373.090909 803.974277 
L 369.818182 804.521838 
L 366.545455 804.490557 
L 365.311598 805.124089 
L 363.272727 805.989097 
L 360 806.366978 
L 357.037305 808.396951 
L 356.727273 808.582675 
L 353.454545 809.23745 
L 350.181818 811.242181 
L 348.959132 811.669813 
L 346.909091 812.148405 
L 343.636364 813.87177 
L 341.127454 814.942675 
L 343.636364 814.942675 
L 346.909091 814.942675 
L 350.181818 814.942675 
L 353.454545 814.942675 
L 356.727273 814.942675 
L 360 814.942675 
L 363.272727 814.942675 
L 366.382817 814.942675 
L 366.545455 814.815025 
L 369.818182 814.208333 
L 373.090909 813.343492 
L 376.363636 812.674019 
L 377.64428 811.669813 
L 379.636364 810.918394 
L 382.909091 810.633124 
L 385.486817 811.669813 
L 386.181818 811.964362 
L 389.454545 811.943836 
L 390.3541 811.669813 
L 389.454545 808.481612 
L 389.268788 808.396951 
L 389.454545 808.377018 
L 389.515066 808.396951 
L 392.727273 809.536597 
L 396 808.782197 
L 397.066689 808.396951 
L 399.272727 806.770973 
L 402.545455 805.671255 
L 403.779279 805.124089 
L 405.818182 803.854949 
L 409.090909 802.534294 
L 410.762667 801.851227 
L 412.363636 801.112371 
L 415.636364 800.019395 
L 418.909091 799.032772 
L 419.685848 798.578365 
L 422.181818 797.747756 
L 425.454545 797.40861 
L 427.444238 798.578365 
L 428.727273 799.691701 
L 432 799.056608 
L 433.930399 798.578365 
L 435.272727 797.792638 
L 438.545455 796.209597 
L 441.694921 795.305502 
L 441.818182 795.250245 
L 445.090909 793.62151 
L 448.363636 795.139103 
L 448.444869 795.305502 
L 451.636364 795.920161 
L 454.909091 795.74265 
L 455.984486 795.305502 
L 458.181818 793.32396 
L 461.454545 792.677091 
L 463.420635 792.03264 
L 464.727273 791.015431 
L 468 789.688693 
L 471.272727 789.115782 
L 471.778834 788.759778 
L 474.545455 787.210456 
L 477.818182 788.288629 
L 478.383879 788.759778 
L 481.090909 789.126968 
L 482.252275 788.759778 
L 484.363636 787.1513 
L 487.636364 786.617408 
L 490.909091 786.176042 
L 493.289273 785.486916 
L 494.181818 784.742833 
L 497.454545 783.70931 
L 500.727273 783.284893 
L 504 782.36522 
L 504.561502 782.214054 
L 507.272727 780.848294 
L 510.545455 780.189036 
L 513.818182 779.443276 
L 515.45205 778.941192 
L 517.090909 777.904466 
L 520.363636 777.091342 
L 523.636364 776.505015 
L 526.876252 775.66833 
L 526.909091 775.645013 
L 530.181818 774.359132 
L 533.454545 773.837937 
L 536.727273 773.082512 
L 539.549721 772.395467 
L 540 772.14285 
L 543.272727 771.020313 
L 546.545455 770.475095 
L 549.818182 769.684983 
L 551.796464 769.122605 
L 553.090909 768.456951 
L 556.363636 767.61093 
L 559.636364 767.104537 
L 562.909091 766.459205 
L 565.820916 765.849743 
L 566.181818 765.697779 
L 569.454545 764.798309 
L 572.727273 764.274725 
L 576 763.701295 
L 576 762.728023 
L 572.727273 763.169771 
L 569.454545 763.307532 
L 566.181818 763.528469 
L 562.909091 764.113708 
L 560.668973 765.849743 
L 559.636364 766.059251 
L 556.363636 766.334538 
L 553.090909 766.473881 
L 549.818182 766.958907 
L 547.5717 769.122605 
L 546.545455 769.368741 
L 543.272727 769.470145 
L 540 769.537194 
L 536.727273 769.693562 
L 534.286217 772.395467 
L 533.454545 772.565533 
L 530.181818 772.519653 
L 527.491199 772.395467 
L 530.181818 770.903292 
L 533.423087 769.122605 
L 533.454545 769.080211 
L 536.727273 767.205848 
L 539.176782 765.849743 
L 538.519706 762.576881 
L 540 761.654027 
L 543.272727 761.914863 
L 545.813022 759.304019 
L 546.545455 758.656922 
L 549.818182 757.176423 
L 553.090909 756.096533 
L 553.221886 756.031157 
L 556.363636 754.098776 
L 559.636364 753.236223 
L 561.610791 752.758294 
L 562.909091 751.928032 
L 566.181818 750.079459 
L 568.011807 749.485432 
L 569.454545 748.869794 
L 572.727273 747.132775 
L 574.37411 746.21257 
L 576 745.290108 
L 576 742.939708 
L 576 739.666846 
L 576 736.393984 
L 576 733.121122 
L 576 729.848259 
L 576 726.575397 
L 576 723.302535 
L 576 720.029673 
L 576 716.756811 
L 576 713.483949 
L 576 710.211087 
L 576 706.938224 
L 576 703.665362 
L 576 700.3925 
L 576 697.119638 
L 576 693.846776 
L 576 690.573914 
L 576 689.773445 
L 572.727273 690.505135 
L 572.029046 690.573914 
L 569.454545 690.720946 
L 566.181818 690.839481 
L 562.909091 690.893229 
L 559.636364 691.27057 
L 556.363636 691.791892 
L 553.090909 692.174306 
L 549.818182 692.548706 
L 546.545455 692.990212 
L 543.272727 693.536953 
L 541.676148 693.846776 
L 540 694.112246 
L 536.727273 694.447165 
L 533.454545 694.770872 
L 530.181818 695.249958 
L 526.909091 695.911485 
L 523.636364 696.263174 
L 520.363636 696.900943 
L 519.459439 697.119638 
L 517.090909 697.677026 
L 513.818182 698.283715 
L 510.545455 698.894459 
L 507.272727 699.605339 
L 504 700.255679 
L 502.953381 700.3925 
L 500.727273 700.639236 
L 497.454545 701.052564 
L 494.181818 701.606969 
L 490.909091 702.251536 
L 487.636364 702.669845 
L 484.363636 703.380121 
L 483.211797 703.665362 
L 481.090909 704.14008 
L 477.818182 704.702845 
L 474.545455 705.366901 
L 471.272727 706.110472 
L 468 706.806458 
L 467.120374 706.938224 
L 464.727273 707.266382 
L 461.454545 707.757804 
L 458.181818 708.336638 
L 454.909091 708.912744 
L 451.636364 709.386987 
L 448.363636 710.135438 
L 448.044112 710.211087 
L 445.090909 710.800503 
L 441.818182 711.331133 
L 438.545455 711.798902 
L 435.272727 712.700854 
L 432 713.286406 
L 431.190419 713.483949 
L 428.727273 714.058076 
L 425.454545 714.551068 
L 422.181818 715.066267 
L 418.909091 715.526785 
L 415.636364 716.161983 
L 412.363636 716.614858 
L 411.61834 716.756811 
L 409.090909 717.271648 
L 405.818182 717.981462 
L 402.545455 718.453622 
L 399.272727 719.371953 
L 396 719.94476 
L 395.680755 720.029673 
L 392.727273 720.824825 
L 389.454545 721.653201 
L 386.181818 722.421702 
L 382.909091 723.188287 
L 382.51518 723.302535 
L 379.636364 724.070084 
L 376.363636 724.743945 
L 373.090909 725.59696 
L 369.818182 726.449959 
L 369.247494 726.575397 
L 366.545455 727.195459 
L 363.272727 728.224155 
L 360 729.084044 
L 357.490549 729.848259 
L 356.727273 730.088617 
L 353.454545 731.070507 
L 350.181818 732.045952 
L 347.047273 733.121122 
L 346.909091 733.165938 
L 343.636364 734.112722 
L 340.363636 735.13957 
L 337.090909 736.19754 
L 336.377077 736.393984 
L 333.818182 737.167117 
L 330.545455 738.426045 
L 327.272727 739.542317 
L 326.98842 739.666846 
L 324 740.840793 
L 320.727273 742.034621 
L 318.656963 742.939708 
L 317.454545 743.412056 
L 314.181818 744.506524 
L 310.909091 745.650121 
L 309.034219 746.21257 
L 307.636364 746.590059 
L 304.363636 747.576618 
L 301.090909 748.718874 
L 298.458085 749.485432 
L 297.818182 749.697417 
L 294.545455 751.045657 
L 291.272727 752.207029 
L 289.981241 752.758294 
L 288 753.541412 
L 284.727273 754.724466 
L 281.725321 756.031157 
L 281.454545 756.137814 
L 278.181818 757.193513 
L 274.909091 758.338635 
L 271.636364 759.296792 
L 271.607609 759.304019 
L 268.363636 760.252587 
L 265.090909 761.512879 
L 261.818182 762.550936 
L 261.754427 762.576881 
L 258.545455 763.911733 
L 255.272727 765.141654 
L 253.56728 765.849743 
L 252 766.470512 
L 248.727273 767.650188 
L 245.454545 769.083278 
L 245.336883 769.122605 
L 242.181818 770.061982 
L 238.909091 771.214871 
L 235.636364 772.237508 
L 235.073934 772.395467 
L 232.363636 773.31601 
L 229.090909 774.584486 
L 225.919907 775.66833 
L 225.818182 775.709636 
L 222.545455 777.075618 
L 219.272727 778.332536 
L 217.895191 778.941192 
L 216 779.725288 
L 212.727273 780.856825 
L 209.607845 782.214054 
L 209.454545 782.273909 
L 206.181818 783.242253 
L 202.909091 784.517341 
L 200.475596 785.486916 
L 199.636364 785.854858 
L 196.363636 787.430665 
L 193.090909 788.683664 
L 192.90562 788.759778 
L 189.818182 790.385287 
L 186.545455 791.711317 
L 185.816559 792.03264 
L 183.272727 793.375195 
L 180 794.635992 
L 178.773521 795.305502 
L 176.727273 796.401804 
L 173.454545 797.404109 
L 170.808493 798.578365 
L 170.181818 798.850181 
L 166.909091 799.914556 
L 163.636364 801.520526 
L 162.738993 801.851227 
L 160.363636 802.951706 
L 157.090909 804.616688 
L 155.639263 805.124089 
L 153.818182 805.960717 
L 150.545455 807.727735 
L 148.601246 808.396951 
L 147.272727 809.016432 
L 144 810.747173 
L 141.787052 811.669813 
L 140.727273 812.197755 
L 137.454545 813.541667 
L 134.541828 814.942675 
z
M 450.536283 792.03264 
L 451.636364 791.730063 
L 452.421676 792.03264 
L 451.636364 792.667362 
z
M 504.692612 739.666846 
L 507.272727 738.362945 
L 507.832909 739.666846 
L 507.272727 740.093134 
z
M 506.37156 733.121122 
L 507.272727 732.920583 
L 508.477808 733.121122 
L 507.272727 733.932557 
z
M 382.909091 814.942675 
L 383.543429 814.942675 
L 382.909091 813.646829 
L 381.194132 814.942675 
z
M 425.454545 802.006224 
L 426.165877 801.851227 
L 425.454545 801.007457 
L 424.450794 801.851227 
z
M 438.545455 760.010131 
L 440.472705 759.304019 
L 438.545455 758.699117 
L 437.434033 759.304019 
z
M 445.090909 756.393039 
L 446.809307 756.031157 
L 445.090909 755.811207 
L 444.573791 756.031157 
z
M 468 752.762055 
L 471.272727 752.957027 
L 471.860642 752.758294 
L 471.272727 752.331877 
L 468 752.755905 
L 467.995818 752.758294 
z
" clip-path="url(#pf9a897158b)" style="fill: #f5f9fe; fill-opacity: 0.9"/>
    <path d="M 163.636364 814.942675 
L 166.909091 814.942675 
L 170.181818 814.942675 
L 173.454545 814.942675 
L 176.727273 814.942675 
L 180 814.942675 
L 183.272727 814.942675 
L 186.545455 814.942675 
L 189.818182 814.942675 
L 193.090909 814.942675 
L 196.363636 814.942675 
L 199.636364 814.942675 
L 202.909091 814.942675 
L 206.181818 814.942675 
L 209.454545 814.942675 
L 212.727273 814.942675 
L 216 814.942675 
L 219.272727 814.942675 
L 222.545455 814.942675 
L 225.818182 814.942675 
L 229.090909 814.942675 
L 232.363636 814.942675 
L 235.636364 814.942675 
L 238.909091 814.942675 
L 242.181818 814.942675 
L 245.454545 814.942675 
L 248.727273 814.942675 
L 252 814.942675 
L 255.272727 814.942675 
L 258.545455 814.942675 
L 261.818182 814.942675 
L 265.090909 814.942675 
L 268.363636 814.942675 
L 271.636364 814.942675 
L 274.909091 814.942675 
L 278.181818 814.942675 
L 281.454545 814.942675 
L 284.727273 814.942675 
L 288 814.942675 
L 291.272727 814.942675 
L 294.545455 814.942675 
L 297.818182 814.942675 
L 301.090909 814.942675 
L 304.363636 814.942675 
L 307.636364 814.942675 
L 310.909091 814.942675 
L 314.181818 814.942675 
L 317.454545 814.942675 
L 320.727273 814.942675 
L 324 814.942675 
L 327.272727 814.942675 
L 330.545455 814.942675 
L 333.818182 814.942675 
L 337.090909 814.942675 
L 340.363636 814.942675 
L 341.127454 814.942675 
L 343.636364 813.87177 
L 346.909091 812.148405 
L 348.959132 811.669813 
L 350.181818 811.242181 
L 353.454545 809.23745 
L 356.727273 808.582675 
L 357.037305 808.396951 
L 360 806.366978 
L 363.272727 805.989097 
L 365.311598 805.124089 
L 366.545455 804.490557 
L 369.818182 804.521838 
L 373.090909 803.974277 
L 376.363636 802.503894 
L 378.728918 801.851227 
L 379.636364 801.495005 
L 382.909091 799.922983 
L 386.181818 798.802331 
L 386.865835 798.578365 
L 389.454545 797.420127 
L 392.727273 796.00564 
L 394.720706 795.305502 
L 396 794.751207 
L 399.272727 793.28358 
L 402.545455 792.04523 
L 402.574604 792.03264 
L 405.818182 790.65519 
L 409.090909 789.419528 
L 410.56218 788.759778 
L 412.363636 788.052475 
L 415.636364 787.139072 
L 418.909091 785.686255 
L 422.181818 785.588874 
L 422.562762 785.486916 
L 425.454545 784.188845 
L 428.727273 783.65985 
L 432 782.88869 
L 434.393866 782.214054 
L 435.272727 781.892804 
L 438.545455 781.011787 
L 441.818182 779.975581 
L 445.090909 779.002607 
L 445.229265 778.941192 
L 448.363636 777.714031 
L 451.636364 776.441852 
L 453.313609 775.66833 
L 454.909091 775.111949 
L 458.181818 774.352018 
L 461.454545 772.784861 
L 464.727273 772.791779 
L 466.26519 772.395467 
L 468 771.529974 
L 471.272727 770.75216 
L 474.545455 770.12995 
L 477.818182 769.20393 
L 478.149173 769.122605 
L 481.090909 768.274101 
L 484.363636 767.185707 
L 487.636364 766.109985 
L 488.254416 765.849743 
L 490.909091 764.75722 
L 494.181818 763.97601 
L 497.454545 762.757856 
L 497.822859 762.576881 
L 500.727273 761.142769 
L 504 760.614171 
L 507.272727 759.366507 
L 507.428983 759.304019 
L 510.545455 757.639247 
L 513.818182 756.836712 
L 516.940827 756.031157 
L 517.090909 755.902314 
L 520.363636 753.262719 
L 521.416461 752.758294 
L 523.636364 750.073698 
L 524.34797 749.485432 
L 523.864735 746.21257 
L 526.909091 743.322048 
L 527.213035 742.939708 
L 526.909091 742.724054 
L 523.636364 742.156552 
L 520.363636 742.053528 
L 517.090909 742.212425 
L 514.235909 742.939708 
L 513.818182 743.248858 
L 510.545455 744.400729 
L 507.272727 744.942882 
L 504 745.855607 
L 503.604839 746.21257 
L 500.727273 746.835267 
L 498.361649 746.21257 
L 500.727273 745.097731 
L 502.799273 742.939708 
L 500.727273 741.16316 
L 497.454545 741.683974 
L 496.312452 742.939708 
L 494.181818 744.329318 
L 490.909091 744.626829 
L 488.537366 746.21257 
L 487.636364 746.808393 
L 484.363636 747.758395 
L 481.090909 748.600281 
L 480.746316 749.485432 
L 477.818182 750.714311 
L 474.545455 750.561727 
L 473.72382 749.485432 
L 474.545455 749.015967 
L 477.818182 747.715989 
L 480.200728 746.21257 
L 481.090909 745.726424 
L 484.363636 744.599289 
L 487.553273 742.939708 
L 487.636364 742.850311 
L 490.909091 741.652853 
L 494.181818 740.532946 
L 495.146448 739.666846 
L 497.454545 737.958007 
L 500.727273 738.146824 
L 502.670012 736.393984 
L 500.727273 734.56445 
L 497.454545 733.61511 
L 494.181818 734.704741 
L 490.909091 734.494687 
L 487.636364 734.051558 
L 484.363636 734.089314 
L 481.090909 734.231117 
L 477.818182 734.005843 
L 474.545455 733.80091 
L 471.272727 734.00269 
L 468 734.532187 
L 464.727273 734.850641 
L 461.454545 734.896011 
L 458.181818 735.167217 
L 454.909091 735.459445 
L 451.636364 735.226319 
L 448.363636 735.284794 
L 445.090909 735.629743 
L 441.818182 735.826397 
L 438.545455 735.911376 
L 435.272727 736.132773 
L 432.533367 736.393984 
L 432 736.456753 
L 428.727273 736.886683 
L 425.454545 737.160409 
L 422.181818 737.697475 
L 418.909091 738.378525 
L 415.636364 738.648965 
L 412.363636 739.067377 
L 409.922912 739.666846 
L 409.090909 739.874868 
L 405.818182 739.866384 
L 402.545455 739.907482 
L 399.272727 740.04376 
L 396 740.911184 
L 392.727273 741.784713 
L 389.454545 742.736565 
L 388.867422 742.939708 
L 386.181818 744.128913 
L 382.909091 744.896165 
L 379.636364 746.059396 
L 379.168518 746.21257 
L 376.363636 746.888283 
L 373.090909 747.473364 
L 369.818182 748.244619 
L 366.545455 748.705027 
L 363.272727 749.137127 
L 361.916304 749.485432 
L 360 750.104662 
L 356.727273 750.904785 
L 353.454545 752.154984 
L 351.978437 752.758294 
L 350.181818 753.490801 
L 346.909091 754.492225 
L 343.636364 756.006586 
L 343.492508 756.031157 
L 340.363636 756.536192 
L 337.090909 757.72722 
L 333.818182 758.407681 
L 330.545455 759.247654 
L 330.350468 759.304019 
L 327.272727 760.257144 
L 324 761.131207 
L 320.727273 762.088145 
L 319.225818 762.576881 
L 317.454545 763.195847 
L 314.181818 764.36622 
L 310.909091 765.56 
L 309.705557 765.849743 
L 307.636364 766.455235 
L 304.363636 767.718651 
L 301.090909 768.442596 
L 299.378331 769.122605 
L 297.818182 769.783972 
L 294.545455 770.348143 
L 291.272727 771.330727 
L 288 772.051973 
L 286.148754 772.395467 
L 284.727273 772.74509 
L 281.454545 774.066289 
L 278.181818 775.008717 
L 276.448327 775.66833 
L 274.909091 776.444655 
L 271.636364 777.500347 
L 268.363636 778.65066 
L 267.615679 778.941192 
L 265.090909 779.729377 
L 261.818182 780.381663 
L 258.545455 781.365145 
L 255.272727 781.735889 
L 253.549685 782.214054 
L 252 782.881383 
L 248.727273 783.905984 
L 245.454545 784.953277 
L 244.280645 785.486916 
L 242.181818 786.467904 
L 238.909091 787.84907 
L 237.064975 788.759778 
L 235.636364 789.379844 
L 232.363636 790.619785 
L 229.090909 791.359419 
L 227.324862 792.03264 
L 225.818182 792.631349 
L 222.882057 792.03264 
L 222.545455 791.995382 
L 222.420137 792.03264 
L 219.272727 793.591147 
L 216 794.07498 
L 212.777649 795.305502 
L 212.727273 795.333649 
L 209.454545 796.55747 
L 206.181818 797.714734 
L 204.056683 798.578365 
L 202.909091 799.008734 
L 199.636364 800.32361 
L 196.363636 800.982332 
L 193.090909 801.76313 
L 192.867932 801.851227 
L 189.818182 803.321288 
L 186.545455 804.264911 
L 184.754084 805.124089 
L 183.272727 805.965364 
L 180 807.13908 
L 177.470433 808.396951 
L 176.727273 808.785392 
L 173.454545 810.216181 
L 170.314492 811.669813 
L 170.181818 811.732306 
L 166.909091 813.180272 
L 163.636364 814.347456 
L 161.879944 814.942675 
z
M 437.434033 759.304019 
L 438.545455 758.699117 
L 440.472705 759.304019 
L 438.545455 760.010131 
z
M 444.573791 756.031157 
L 445.090909 755.811207 
L 446.809307 756.031157 
L 445.090909 756.393039 
z
M 467.995818 752.758294 
L 468 752.755905 
L 471.272727 752.331877 
L 471.860642 752.758294 
L 471.272727 752.957027 
L 468 752.762055 
z
M 530.181818 772.519653 
L 533.454545 772.565533 
L 534.286217 772.395467 
L 536.727273 769.693562 
L 540 769.537194 
L 543.272727 769.470145 
L 546.545455 769.368741 
L 547.5717 769.122605 
L 549.818182 766.958907 
L 553.090909 766.473881 
L 556.363636 766.334538 
L 559.636364 766.059251 
L 560.668973 765.849743 
L 562.909091 764.113708 
L 566.181818 763.528469 
L 569.454545 763.307532 
L 572.727273 763.169771 
L 576 762.728023 
L 576 762.576881 
L 576 759.304019 
L 576 756.031157 
L 576 752.758294 
L 576 749.485432 
L 576 746.21257 
L 576 745.290108 
L 574.37411 746.21257 
L 572.727273 747.132775 
L 569.454545 748.869794 
L 568.011807 749.485432 
L 566.181818 750.079459 
L 562.909091 751.928032 
L 561.610791 752.758294 
L 559.636364 753.236223 
L 556.363636 754.098776 
L 553.221886 756.031157 
L 553.090909 756.096533 
L 549.818182 757.176423 
L 546.545455 758.656922 
L 545.813022 759.304019 
L 543.272727 761.914863 
L 540 761.654027 
L 538.519706 762.576881 
L 539.176782 765.849743 
L 536.727273 767.205848 
L 533.454545 769.080211 
L 533.423087 769.122605 
L 530.181818 770.903292 
L 527.491199 772.395467 
z
M 507.272727 740.093134 
L 507.832909 739.666846 
L 507.272727 738.362945 
L 504.692612 739.666846 
z
M 507.272727 733.932557 
L 508.477808 733.121122 
L 507.272727 732.920583 
L 506.37156 733.121122 
z
" clip-path="url(#pf9a897158b)" style="fill: #eff6fc; fill-opacity: 0.9"/>
    <path clip-path="url(#pf9a897158b)" style="fill: #eaf3fb; fill-opacity: 0.9"/>
    <path clip-path="url(#pf9a897158b)" style="fill: #e5eff9; fill-opacity: 0.9"/>
    <path clip-path="url(#pf9a897158b)" style="fill: #dfecf7; fill-opacity: 0.9"/>
    <path clip-path="url(#pf9a897158b)" style="fill: #dae8f6; fill-opacity: 0.9"/>
    <path clip-path="url(#pf9a897158b)" style="fill: #d6e5f4; fill-opacity: 0.9"/>
    <path clip-path="url(#pf9a897158b)" style="fill: #d0e2f2; fill-opacity: 0.9"/>
    <path clip-path="url(#pf9a897158b)" style="fill: #cbdef1; fill-opacity: 0.9"/>
    <path clip-path="url(#pf9a897158b)" style="fill: #c6dbef; fill-opacity: 0.9"/>
    <path clip-path="url(#pf9a897158b)" style="fill: #bed8ec; fill-opacity: 0.9"/>
    <path clip-path="url(#pf9a897158b)" style="fill: #b5d4e9; fill-opacity: 0.9"/>
    <path clip-path="url(#pf9a897158b)" style="fill: #add0e6; fill-opacity: 0.9"/>
    <path clip-path="url(#pf9a897158b)" style="fill: #a5cde3; fill-opacity: 0.9"/>
    <path clip-path="url(#pf9a897158b)" style="fill: #9cc9e1; fill-opacity: 0.9"/>
    <path clip-path="url(#pf9a897158b)" style="fill: #91c3de; fill-opacity: 0.9"/>
    <path clip-path="url(#pf9a897158b)" style="fill: #85bcdc; fill-opacity: 0.9"/>
    <path clip-path="url(#pf9a897158b)" style="fill: #7cb7da; fill-opacity: 0.9"/>
    <path clip-path="url(#pf9a897158b)" style="fill: #71b1d7; fill-opacity: 0.9"/>
    <path clip-path="url(#pf9a897158b)" style="fill: #66abd4; fill-opacity: 0.9"/>
    <path clip-path="url(#pf9a897158b)" style="fill: #5da5d1; fill-opacity: 0.9"/>
    <path clip-path="url(#pf9a897158b)" style="fill: #56a0ce; fill-opacity: 0.9"/>
    <path clip-path="url(#pf9a897158b)" style="fill: #4d99ca; fill-opacity: 0.9"/>
    <path clip-path="url(#pf9a897158b)" style="fill: #4493c7; fill-opacity: 0.9"/>
    <path clip-path="url(#pf9a897158b)" style="fill: #3c8cc3; fill-opacity: 0.9"/>
    <path clip-path="url(#pf9a897158b)" style="fill: #3686c0; fill-opacity: 0.9"/>
    <path clip-path="url(#pf9a897158b)" style="fill: #2f7fbc; fill-opacity: 0.9"/>
    <path clip-path="url(#pf9a897158b)" style="fill: #2777b8; fill-opacity: 0.9"/>
    <path clip-path="url(#pf9a897158b)" style="fill: #2070b4; fill-opacity: 0.9"/>
    <path clip-path="url(#pf9a897158b)" style="fill: #1c6ab0; fill-opacity: 0.9"/>
    <path clip-path="url(#pf9a897158b)" style="fill: #1663aa; fill-opacity: 0.9"/>
    <path clip-path="url(#pf9a897158b)" style="fill: #115ca5; fill-opacity: 0.9"/>
    <path clip-path="url(#pf9a897158b)" style="fill: #0c56a0; fill-opacity: 0.9"/>
    <path clip-path="url(#pf9a897158b)" style="fill: #084f99; fill-opacity: 0.9"/>
    <path clip-path="url(#pf9a897158b)" style="fill: #08488e; fill-opacity: 0.9"/>
    <path clip-path="url(#pf9a897158b)" style="fill: #084184; fill-opacity: 0.9"/>
    <path clip-path="url(#pf9a897158b)" style="fill: #083a7a; fill-opacity: 0.9"/>
    <path clip-path="url(#pf9a897158b)" style="fill: #083370; fill-opacity: 0.9"/>
    <path clip-path="url(#pf9a897158b)" style="fill: #08306b; fill-opacity: 0.9"/>
   </g>
   <g id="QuadContourSet_2">
    <path d="M 366.382817 814.942675 
L 366.545455 814.815025 
L 369.818182 814.208333 
L 373.090909 813.343492 
L 376.363636 812.674019 
L 377.64428 811.669813 
L 379.636364 810.918394 
L 382.909091 810.633124 
L 385.486817 811.669813 
L 386.181818 811.964362 
L 389.454545 811.943836 
L 390.3541 811.669813 
L 389.454545 808.481612 
L 389.268788 808.396951 
L 389.454545 808.377018 
L 389.515066 808.396951 
L 392.727273 809.536597 
L 396 808.782197 
L 397.066689 808.396951 
L 399.272727 806.770973 
L 402.545455 805.671255 
L 403.779279 805.124089 
L 405.818182 803.854949 
L 409.090909 802.534294 
L 410.762667 801.851227 
L 412.363636 801.112371 
L 415.636364 800.019395 
L 418.909091 799.032772 
L 419.685848 798.578365 
L 422.181818 797.747756 
L 425.454545 797.40861 
L 427.444238 798.578365 
L 428.727273 799.691701 
L 432 799.056608 
L 433.930399 798.578365 
L 435.272727 797.792638 
L 438.545455 796.209597 
L 441.694921 795.305502 
L 441.818182 795.250245 
L 445.090909 793.62151 
L 448.363636 795.139103 
L 448.444869 795.305502 
L 451.636364 795.920161 
L 454.909091 795.74265 
L 455.984486 795.305502 
L 458.181818 793.32396 
L 461.454545 792.677091 
L 463.420635 792.03264 
L 464.727273 791.015431 
L 468 789.688693 
L 471.272727 789.115782 
L 471.778834 788.759778 
L 474.545455 787.210456 
L 477.818182 788.288629 
L 478.383879 788.759778 
L 481.090909 789.126968 
L 482.252275 788.759778 
L 484.363636 787.1513 
L 487.636364 786.617408 
L 490.909091 786.176042 
L 493.289273 785.486916 
L 494.181818 784.742833 
L 497.454545 783.70931 
L 500.727273 783.284893 
L 504 782.36522 
L 504.561502 782.214054 
L 507.272727 780.848294 
L 510.545455 780.189036 
L 513.818182 779.443276 
L 515.45205 778.941192 
L 517.090909 777.904466 
L 520.363636 777.091342 
L 521.052672 776.967898 
M 539.498819 772.407858 
L 539.549721 772.395467 
L 540 772.14285 
L 543.272727 771.020313 
L 546.545455 770.475095 
L 549.818182 769.684983 
L 551.796464 769.122605 
L 553.090909 768.456951 
L 556.363636 767.61093 
L 559.636364 767.104537 
L 562.909091 766.459205 
L 565.820916 765.849743 
L 566.181818 765.697779 
L 569.454545 764.798309 
L 572.727273 764.274725 
L 576 763.701295 
M 383.543429 814.942675 
L 382.909091 813.646829 
L 381.194132 814.942675 
M 576 689.773445 
L 572.727273 690.505135 
L 572.029046 690.573914 
L 569.454545 690.720946 
L 566.181818 690.839481 
L 562.909091 690.893229 
L 559.636364 691.27057 
L 556.363636 691.791892 
L 553.090909 692.174306 
L 549.818182 692.548706 
L 546.545455 692.990212 
L 543.272727 693.536953 
L 541.676148 693.846776 
L 540 694.112246 
L 536.727273 694.447165 
L 533.454545 694.770872 
L 530.181818 695.249958 
L 526.909091 695.911485 
L 523.636364 696.263174 
L 520.363636 696.900943 
L 519.459439 697.119638 
L 517.090909 697.677026 
L 513.818182 698.283715 
L 510.545455 698.894459 
L 507.272727 699.605339 
L 504 700.255679 
L 502.953381 700.3925 
L 500.727273 700.639236 
L 497.454545 701.052564 
L 494.181818 701.606969 
L 490.909091 702.251536 
L 487.636364 702.669845 
L 484.363636 703.380121 
L 483.211797 703.665362 
L 481.090909 704.14008 
L 477.818182 704.702845 
L 474.545455 705.366901 
L 471.272727 706.110472 
L 468 706.806458 
L 467.120374 706.938224 
L 464.727273 707.266382 
L 461.454545 707.757804 
L 458.181818 708.336638 
L 454.909091 708.912744 
L 451.636364 709.386987 
L 448.363636 710.135438 
L 448.044112 710.211087 
L 445.090909 710.800503 
L 441.818182 711.331133 
L 438.545455 711.798902 
L 435.272727 712.700854 
L 432 713.286406 
L 431.190419 713.483949 
L 428.727273 714.058076 
L 425.454545 714.551068 
L 422.181818 715.066267 
L 418.909091 715.526785 
L 415.636364 716.161983 
L 412.363636 716.614858 
L 411.61834 716.756811 
L 409.090909 717.271648 
L 405.818182 717.981462 
L 402.545455 718.453622 
L 399.272727 719.371953 
L 396 719.94476 
L 395.680755 720.029673 
L 392.727273 720.824825 
L 389.454545 721.653201 
L 386.181818 722.421702 
L 382.909091 723.188287 
L 382.51518 723.302535 
L 379.636364 724.070084 
L 376.363636 724.743945 
L 373.090909 725.59696 
L 369.818182 726.449959 
L 369.247494 726.575397 
L 366.545455 727.195459 
L 363.272727 728.224155 
L 360 729.084044 
L 357.490549 729.848259 
L 356.727273 730.088617 
L 353.454545 731.070507 
L 352.73291 731.285592 
M 334.540926 736.948751 
L 333.818182 737.167117 
L 330.545455 738.426045 
L 327.272727 739.542317 
L 326.98842 739.666846 
L 324 740.840793 
L 320.727273 742.034621 
L 318.656963 742.939708 
L 317.454545 743.412056 
L 314.181818 744.506524 
L 310.909091 745.650121 
L 309.034219 746.21257 
L 307.636364 746.590059 
L 304.363636 747.576618 
L 301.090909 748.718874 
L 298.458085 749.485432 
L 297.818182 749.697417 
L 294.545455 751.045657 
L 291.272727 752.207029 
L 289.981241 752.758294 
L 288 753.541412 
L 284.727273 754.724466 
L 281.725321 756.031157 
L 281.454545 756.137814 
L 278.181818 757.193513 
L 274.909091 758.338635 
L 271.636364 759.296792 
L 271.607609 759.304019 
L 268.363636 760.252587 
L 265.090909 761.512879 
L 261.818182 762.550936 
L 261.754427 762.576881 
L 258.545455 763.911733 
L 255.272727 765.141654 
L 253.56728 765.849743 
L 252 766.470512 
L 248.727273 767.650188 
L 245.454545 769.083278 
L 245.336883 769.122605 
L 242.181818 770.061982 
L 238.909091 771.214871 
L 235.636364 772.237508 
L 235.073934 772.395467 
L 232.363636 773.31601 
L 229.090909 774.584486 
L 225.919907 775.66833 
L 225.818182 775.709636 
L 222.545455 777.075618 
L 219.272727 778.332536 
L 217.895191 778.941192 
L 216 779.725288 
L 212.727273 780.856825 
L 209.607845 782.214054 
L 209.454545 782.273909 
L 206.181818 783.242253 
L 202.909091 784.517341 
L 200.475596 785.486916 
L 199.636364 785.854858 
L 196.363636 787.430665 
L 193.090909 788.683664 
L 192.90562 788.759778 
L 189.818182 790.385287 
L 186.545455 791.711317 
L 185.816559 792.03264 
L 183.272727 793.375195 
L 180 794.635992 
L 178.773521 795.305502 
L 176.727273 796.401804 
L 173.454545 797.404109 
L 170.808493 798.578365 
L 170.181818 798.850181 
L 166.909091 799.914556 
L 163.636364 801.520526 
L 162.738993 801.851227 
L 160.363636 802.951706 
L 157.090909 804.616688 
L 155.639263 805.124089 
L 153.818182 805.960717 
L 150.545455 807.727735 
L 148.601246 808.396951 
L 147.272727 809.016432 
L 144 810.747173 
L 141.787052 811.669813 
L 140.727273 812.197755 
L 137.454545 813.541667 
L 134.541828 814.942675 
M 425.454545 802.006224 
L 426.165877 801.851227 
L 425.454545 801.007457 
L 424.450794 801.851227 
L 425.454545 802.006224 
z
M 451.636364 792.667362 
L 450.536283 792.03264 
L 451.636364 791.730063 
L 452.421676 792.03264 
L 451.636364 792.667362 
z
" clip-path="url(#pf9a897158b)" style="fill: none"/>
    <path d="M 341.127454 814.942675 
L 343.636364 813.87177 
L 346.909091 812.148405 
L 348.959132 811.669813 
L 350.181818 811.242181 
L 353.454545 809.23745 
L 356.727273 808.582675 
L 357.037305 808.396951 
L 360 806.366978 
L 363.272727 805.989097 
L 365.311598 805.124089 
L 366.545455 804.490557 
L 369.818182 804.521838 
L 373.090909 803.974277 
L 376.363636 802.503894 
L 378.728918 801.851227 
L 379.636364 801.495005 
L 382.909091 799.922983 
L 386.181818 798.802331 
L 386.865835 798.578365 
L 389.454545 797.420127 
L 392.727273 796.00564 
L 393.673989 795.673132 
M 411.421455 788.422402 
L 412.363636 788.052475 
L 415.636364 787.139072 
L 418.909091 785.686255 
L 422.181818 785.588874 
L 422.562762 785.486916 
L 425.454545 784.188845 
L 428.727273 783.65985 
L 432 782.88869 
L 434.393866 782.214054 
L 435.272727 781.892804 
L 438.545455 781.011787 
L 441.818182 779.975581 
L 445.090909 779.002607 
L 445.229265 778.941192 
L 448.363636 777.714031 
L 451.636364 776.441852 
L 453.313609 775.66833 
L 454.909091 775.111949 
L 458.181818 774.352018 
L 461.454545 772.784861 
L 464.727273 772.791779 
L 466.26519 772.395467 
L 468 771.529974 
L 471.272727 770.75216 
L 474.545455 770.12995 
L 477.818182 769.20393 
L 478.149173 769.122605 
L 481.090909 768.274101 
L 484.363636 767.185707 
L 487.636364 766.109985 
L 488.254416 765.849743 
L 490.909091 764.75722 
L 494.181818 763.97601 
L 497.454545 762.757856 
L 497.822859 762.576881 
L 500.727273 761.142769 
L 504 760.614171 
L 507.272727 759.366507 
L 507.428983 759.304019 
L 510.545455 757.639247 
L 513.818182 756.836712 
L 516.940827 756.031157 
L 517.090909 755.902314 
L 520.363636 753.262719 
L 521.416461 752.758294 
L 523.636364 750.073698 
L 524.34797 749.485432 
L 523.864735 746.21257 
L 526.909091 743.322048 
L 527.213035 742.939708 
L 526.909091 742.724054 
L 523.636364 742.156552 
L 520.363636 742.053528 
L 517.090909 742.212425 
L 514.235909 742.939708 
L 513.818182 743.248858 
L 510.545455 744.400729 
L 507.272727 744.942882 
L 504 745.855607 
L 503.604839 746.21257 
L 500.727273 746.835267 
L 498.361649 746.21257 
L 500.727273 745.097731 
L 502.799273 742.939708 
L 500.727273 741.16316 
L 497.454545 741.683974 
L 496.312452 742.939708 
L 494.181818 744.329318 
L 490.909091 744.626829 
L 488.537366 746.21257 
L 487.636364 746.808393 
L 484.363636 747.758395 
L 481.090909 748.600281 
L 480.746316 749.485432 
L 477.818182 750.714311 
L 474.545455 750.561727 
L 473.72382 749.485432 
L 474.545455 749.015967 
L 477.818182 747.715989 
L 480.200728 746.21257 
L 481.090909 745.726424 
L 484.363636 744.599289 
L 487.553273 742.939708 
L 487.636364 742.850311 
L 490.909091 741.652853 
L 494.181818 740.532946 
L 495.146448 739.666846 
L 497.454545 737.958007 
L 500.727273 738.146824 
L 502.670012 736.393984 
L 500.727273 734.56445 
L 497.454545 733.61511 
L 494.181818 734.704741 
L 490.909091 734.494687 
L 487.636364 734.051558 
L 484.363636 734.089314 
L 481.090909 734.231117 
L 477.818182 734.005843 
L 474.545455 733.80091 
L 471.272727 734.00269 
L 468 734.532187 
L 464.727273 734.850641 
L 461.454545 734.896011 
L 458.181818 735.167217 
L 454.909091 735.459445 
L 451.636364 735.226319 
L 448.363636 735.284794 
L 445.090909 735.629743 
L 441.818182 735.826397 
L 438.545455 735.911376 
L 435.272727 736.132773 
L 432.533367 736.393984 
L 432 736.456753 
L 428.727273 736.886683 
L 425.454545 737.160409 
L 422.181818 737.697475 
L 418.909091 738.378525 
L 415.636364 738.648965 
L 412.363636 739.067377 
L 409.922912 739.666846 
L 409.090909 739.874868 
L 405.818182 739.866384 
L 402.545455 739.907482 
L 399.272727 740.04376 
L 396 740.911184 
L 392.727273 741.784713 
L 389.454545 742.736565 
L 388.867422 742.939708 
L 386.181818 744.128913 
L 382.909091 744.896165 
L 379.636364 746.059396 
L 379.168518 746.21257 
L 376.363636 746.888283 
L 373.090909 747.473364 
L 369.818182 748.244619 
L 366.545455 748.705027 
L 363.272727 749.137127 
L 361.916304 749.485432 
L 360 750.104662 
L 356.727273 750.904785 
L 353.454545 752.154984 
L 351.978437 752.758294 
L 350.181818 753.490801 
L 346.909091 754.492225 
L 343.636364 756.006586 
L 343.492508 756.031157 
L 340.363636 756.536192 
L 337.090909 757.72722 
L 333.818182 758.407681 
L 330.545455 759.247654 
L 330.350468 759.304019 
L 327.272727 760.257144 
L 324 761.131207 
L 320.727273 762.088145 
L 319.225818 762.576881 
L 317.454545 763.195847 
L 314.181818 764.36622 
L 310.909091 765.56 
L 309.705557 765.849743 
L 307.636364 766.455235 
L 304.363636 767.718651 
L 301.090909 768.442596 
L 299.378331 769.122605 
L 297.818182 769.783972 
L 294.545455 770.348143 
L 291.272727 771.330727 
L 288 772.051973 
L 286.148754 772.395467 
L 284.727273 772.74509 
L 281.454545 774.066289 
L 278.181818 775.008717 
L 276.448327 775.66833 
L 274.909091 776.444655 
L 271.636364 777.500347 
L 268.363636 778.65066 
L 267.615679 778.941192 
L 265.090909 779.729377 
L 261.818182 780.381663 
L 258.545455 781.365145 
L 255.272727 781.735889 
L 253.549685 782.214054 
L 252 782.881383 
L 248.727273 783.905984 
L 245.454545 784.953277 
L 244.280645 785.486916 
L 242.181818 786.467904 
L 238.909091 787.84907 
L 237.064975 788.759778 
L 235.636364 789.379844 
L 232.363636 790.619785 
L 229.090909 791.359419 
L 227.324862 792.03264 
L 225.818182 792.631349 
L 222.882057 792.03264 
L 222.545455 791.995382 
L 222.420137 792.03264 
L 219.272727 793.591147 
L 216 794.07498 
L 212.777649 795.305502 
L 212.727273 795.333649 
L 209.454545 796.55747 
L 206.181818 797.714734 
L 204.056683 798.578365 
L 202.909091 799.008734 
L 199.636364 800.32361 
L 196.363636 800.982332 
L 193.090909 801.76313 
L 192.867932 801.851227 
L 189.818182 803.321288 
L 186.545455 804.264911 
L 184.754084 805.124089 
L 183.272727 805.965364 
L 180 807.13908 
L 177.470433 808.396951 
L 176.727273 808.785392 
L 173.454545 810.216181 
L 170.314492 811.669813 
L 170.181818 811.732306 
L 166.909091 813.180272 
L 163.636364 814.347456 
L 161.879944 814.942675 
M 576 745.290108 
L 574.816036 745.96184 
M 557.451184 753.812144 
L 556.363636 754.098776 
L 553.221886 756.031157 
L 553.090909 756.096533 
L 549.818182 757.176423 
L 546.545455 758.656922 
L 545.813022 759.304019 
L 543.272727 761.914863 
L 540 761.654027 
L 538.519706 762.576881 
L 539.176782 765.849743 
L 536.727273 767.205848 
L 533.454545 769.080211 
L 533.423087 769.122605 
L 530.181818 770.903292 
L 527.491199 772.395467 
L 530.181818 772.519653 
L 533.454545 772.565533 
L 534.286217 772.395467 
L 536.727273 769.693562 
L 540 769.537194 
L 543.272727 769.470145 
L 546.545455 769.368741 
L 547.5717 769.122605 
L 549.818182 766.958907 
L 553.090909 766.473881 
L 556.363636 766.334538 
L 559.636364 766.059251 
L 560.668973 765.849743 
L 562.909091 764.113708 
L 566.181818 763.528469 
L 569.454545 763.307532 
L 572.727273 763.169771 
L 576 762.728023 
M 438.545455 760.010131 
L 437.434033 759.304019 
L 438.545455 758.699117 
L 440.472705 759.304019 
L 438.545455 760.010131 
z
M 445.090909 756.393039 
L 444.573791 756.031157 
L 445.090909 755.811207 
L 446.809307 756.031157 
L 445.090909 756.393039 
z
M 468 752.762055 
L 467.995818 752.758294 
L 468 752.755905 
L 471.272727 752.331877 
L 471.860642 752.758294 
L 471.272727 752.957027 
L 468 752.762055 
M 507.272727 740.093134 
L 507.832909 739.666846 
L 507.272727 738.362945 
L 504.692612 739.666846 
L 507.272727 740.093134 
z
M 507.272727 733.932557 
L 508.477808 733.121122 
L 507.272727 732.920583 
L 506.37156 733.121122 
L 507.272727 733.932557 
z
" clip-path="url(#pf9a897158b)" style="fill: none"/>
    <path clip-path="url(#pf9a897158b)" style="fill: none"/>
    <path clip-path="url(#pf9a897158b)" style="fill: none"/>
    <path clip-path="url(#pf9a897158b)" style="fill: none"/>
    <path clip-path="url(#pf9a897158b)" style="fill: none"/>
    <path clip-path="url(#pf9a897158b)" style="fill: none"/>
    <path clip-path="url(#pf9a897158b)" style="fill: none"/>
    <path clip-path="url(#pf9a897158b)" style="fill: none"/>
    <path clip-path="url(#pf9a897158b)" style="fill: none"/>
    <path clip-path="url(#pf9a897158b)" style="fill: none"/>
    <path clip-path="url(#pf9a897158b)" style="fill: none"/>
    <path clip-path="url(#pf9a897158b)" style="fill: none"/>
    <path clip-path="url(#pf9a897158b)" style="fill: none"/>
    <path clip-path="url(#pf9a897158b)" style="fill: none"/>
    <path clip-path="url(#pf9a897158b)" style="fill: none"/>
    <path clip-path="url(#pf9a897158b)" style="fill: none"/>
    <path clip-path="url(#pf9a897158b)" style="fill: none"/>
    <path clip-path="url(#pf9a897158b)" style="fill: none"/>
    <path clip-path="url(#pf9a897158b)" style="fill: none"/>
    <path clip-path="url(#pf9a897158b)" style="fill: none"/>
    <path clip-path="url(#pf9a897158b)" style="fill: none"/>
    <path clip-path="url(#pf9a897158b)" style="fill: none"/>
    <path clip-path="url(#pf9a897158b)" style="fill: none"/>
    <path clip-path="url(#pf9a897158b)" style="fill: none"/>
    <path clip-path="url(#pf9a897158b)" style="fill: none"/>
    <path clip-path="url(#pf9a897158b)" style="fill: none"/>
    <path clip-path="url(#pf9a897158b)" style="fill: none"/>
    <path clip-path="url(#pf9a897158b)" style="fill: none"/>
    <path clip-path="url(#pf9a897158b)" style="fill: none"/>
    <path clip-path="url(#pf9a897158b)" style="fill: none"/>
    <path clip-path="url(#pf9a897158b)" style="fill: none"/>
    <path clip-path="url(#pf9a897158b)" style="fill: none"/>
    <path clip-path="url(#pf9a897158b)" style="fill: none"/>
    <path clip-path="url(#pf9a897158b)" style="fill: none"/>
    <path clip-path="url(#pf9a897158b)" style="fill: none"/>
    <path clip-path="url(#pf9a897158b)" style="fill: none"/>
    <path clip-path="url(#pf9a897158b)" style="fill: none"/>
    <path clip-path="url(#pf9a897158b)" style="fill: none"/>
   </g>
   <g id="text_1">
    <g clip-path="url(#pf9a897158b)">
     <!-- 0 -->
     <g style="opacity: 0" transform="translate(527.344124 778.54066) rotate(-14.900218) scale(0.12 -0.12)">
      <defs>
       <path id="DejaVuSans-30" d="M 2034 4250 
Q 1547 4250 1301 3770 
Q 1056 3291 1056 2328 
Q 1056 1369 1301 889 
Q 1547 409 2034 409 
Q 2525 409 2770 889 
Q 3016 1369 3016 2328 
Q 3016 3291 2770 3770 
Q 2525 4250 2034 4250 
z
M 2034 4750 
Q 2819 4750 3233 4129 
Q 3647 3509 3647 2328 
Q 3647 1150 3233 529 
Q 2819 -91 2034 -91 
Q 1250 -91 836 529 
Q 422 1150 422 2328 
Q 422 3509 836 4129 
Q 1250 4750 2034 4750 
z
" transform="scale(0.015625)"/>
      </defs>
      <use xlink:href="#DejaVuSans-30"/>
     </g>
    </g>
   </g>
   <g id="text_2">
    <g clip-path="url(#pf9a897158b)">
     <!-- 0 -->
     <g style="opacity: 0" transform="translate(340.9653 738.402606) rotate(-17.153913) scale(0.12 -0.12)">
      <use xlink:href="#DejaVuSans-30"/>
     </g>
    </g>
   </g>
   <g id="text_3">
    <g clip-path="url(#pf9a897158b)">
     <!-- 1 -->
     <g style="opacity: 0" transform="translate(400.239606 796.541978) rotate(-21.914148) scale(0.12 -0.12)">
      <defs>
       <path id="DejaVuSans-31" d="M 794 531 
L 1825 531 
L 1825 4091 
L 703 3866 
L 703 4441 
L 1819 4666 
L 2450 4666 
L 2450 531 
L 3481 531 
L 3481 0 
L 794 0 
L 794 531 
z
" transform="scale(0.015625)"/>
      </defs>
      <use xlink:href="#DejaVuSans-31"/>
     </g>
    </g>
   </g>
   <g id="text_4">
    <g clip-path="url(#pf9a897158b)">
     <!-- 1 -->
     <g style="opacity: 0" transform="translate(564.220976 754.73701) rotate(-26.230828) scale(0.12 -0.12)">
      <use xlink:href="#DejaVuSans-31"/>
     </g>
    </g>
   </g>
  </g>
 </g>
 <defs>
  <clipPath id="pf9a897158b">
   <rect x="0" y="0" width="576" height="814.942675"/>
  </clipPath>
 </defs>
</svg>
