<?xml version="1.0" encoding="utf-8" standalone="no"?>
<!DOCTYPE svg PUBLIC "-//W3C//DTD SVG 1.1//EN"
  "http://www.w3.org/Graphics/SVG/1.1/DTD/svg11.dtd">
<svg xmlns:xlink="http://www.w3.org/1999/xlink" width="576pt" height="815.79817pt" viewBox="0 0 576 815.79817" xmlns="http://www.w3.org/2000/svg" version="1.1">
 <metadata>
  <rdf:RDF xmlns:dc="http://purl.org/dc/elements/1.1/" xmlns:cc="http://creativecommons.org/ns#" xmlns:rdf="http://www.w3.org/1999/02/22-rdf-syntax-ns#">
   <cc:Work>
    <dc:type rdf:resource="http://purl.org/dc/dcmitype/StillImage"/>
    <dc:date>2025-07-25T22:44:51.029301</dc:date>
    <dc:format>image/svg+xml</dc:format>
    <dc:creator>
     <cc:Agent>
      <dc:title>Matplotlib v3.10.3, https://matplotlib.org/</dc:title>
     </cc:Agent>
    </dc:creator>
   </cc:Work>
  </rdf:RDF>
 </metadata>
 <defs>
  <style type="text/css">*{stroke-linejoin: round; stroke-linecap: butt}</style>
 </defs>
 <g id="figure_1">
  <g id="patch_1">
   <path d="M 0 815.79817 
L 576 815.79817 
L 576 0 
L 0 0 
L 0 815.79817 
z
" style="fill: none; opacity: 0"/>
  </g>
  <g id="axes_1">
   <g id="QuadContourSet_1">
    <path d="M 163.636364 27.836866 
L 165.355816 26.210383 
L 163.636364 23.887034 
L 162.011653 26.210383 
z
M 162.82261 26.210383 
L 163.636364 25.046709 
L 164.49757 26.210383 
L 163.636364 27.025025 
z
M 199.636364 27.112121 
L 202.909091 27.112121 
L 203.737831 26.210383 
L 202.909091 24.510156 
L 199.636364 24.360113 
L 198.735609 26.210383 
z
M 124.363636 21.462775 
L 126.267981 19.657787 
L 127.636364 16.953863 
L 130.909091 16.521741 
L 134.181818 17.324401 
L 137.454545 18.525377 
L 140.727273 18.854408 
L 143.237465 19.657787 
L 144 19.966554 
L 147.272727 20.821181 
L 150.545455 21.051345 
L 153.818182 21.173483 
L 157.090909 21.13101 
L 160.363636 21.063784 
L 163.636364 20.941269 
L 166.909091 20.442709 
L 168.340416 19.657787 
L 170.181818 19.123964 
L 173.075463 19.657787 
L 173.454545 19.833245 
L 176.727273 20.862808 
L 180 21.195521 
L 183.272727 21.577825 
L 186.545455 22.520745 
L 189.818182 22.041445 
L 193.090909 21.338798 
L 196.363636 20.332573 
L 197.976348 19.657787 
L 199.636364 18.271605 
L 202.909091 18.315095 
L 206.181818 18.229114 
L 209.454545 17.939338 
L 212.727273 18.230988 
L 216 18.915395 
L 218.04739 19.657787 
L 219.272727 19.908903 
L 222.545455 20.400048 
L 225.818182 20.766247 
L 229.090909 20.427299 
L 232.363636 20.041165 
L 235.217168 19.657787 
L 235.636364 19.521838 
L 238.909091 18.799769 
L 242.181818 18.330395 
L 245.454545 18.004167 
L 248.727273 17.764266 
L 252 17.798759 
L 255.272727 17.899842 
L 258.545455 18.033711 
L 261.818182 18.193454 
L 265.090909 18.232365 
L 268.363636 17.614707 
L 271.636364 16.895488 
L 273.686281 16.381489 
L 274.909091 16.014383 
L 278.181818 15.331995 
L 281.454545 14.897894 
L 284.727273 14.932136 
L 288 15.02984 
L 291.272727 15.149486 
L 294.545455 15.28767 
L 297.818182 15.448389 
L 301.090909 15.637646 
L 304.363636 15.22096 
L 307.636364 14.10146 
L 310.909091 13.184933 
L 311.224955 13.105191 
L 314.181818 12.257859 
L 317.454545 11.70059 
L 320.727273 11.339174 
L 324 11.085794 
L 327.272727 10.898306 
L 330.545455 10.753966 
L 333.818182 10.592829 
L 337.090909 10.436372 
L 340.363636 10.279915 
L 343.261588 9.828894 
L 343.636364 9.626232 
L 346.909091 8.46043 
L 350.181818 7.92371 
L 353.454545 7.615073 
L 356.727273 7.41461 
L 360 7.066207 
L 363.023911 6.552596 
L 363.272727 6.399919 
L 366.545455 5.200408 
L 369.818182 4.654206 
L 373.090909 4.341817 
L 376.363636 4.139578 
L 379.636364 3.842325 
L 382.909091 3.340546 
L 383.328134 3.276298 
L 386.181818 2.18572 
L 389.454545 1.582452 
L 392.727273 1.240555 
L 396 1.020413 
L 399.272727 0.737768 
L 402.545455 0.226244 
L 403.999489 -0 
L 402.545455 -0 
L 399.272727 -0 
L 396 -0 
L 392.727273 -0 
L 389.454545 -0 
L 386.181818 -0 
L 382.909091 -0 
L 379.636364 -0 
L 376.363636 -0 
L 373.090909 -0 
L 369.818182 -0 
L 366.545455 -0 
L 363.272727 -0 
L 360 -0 
L 356.727273 -0 
L 353.454545 -0 
L 350.181818 -0 
L 346.909091 -0 
L 343.636364 -0 
L 340.363636 -0 
L 337.090909 -0 
L 333.818182 -0 
L 330.545455 -0 
L 327.272727 -0 
L 324 -0 
L 320.727273 -0 
L 317.454545 -0 
L 314.181818 -0 
L 310.909091 -0 
L 307.636364 -0 
L 304.363636 -0 
L 301.090909 -0 
L 297.818182 -0 
L 294.545455 -0 
L 291.272727 -0 
L 288 -0 
L 284.727273 -0 
L 281.454545 -0 
L 278.181818 -0 
L 274.909091 -0 
L 271.636364 -0 
L 268.363636 -0 
L 265.090909 -0 
L 261.818182 -0 
L 258.545455 -0 
L 255.272727 -0 
L 252 -0 
L 248.727273 -0 
L 245.454545 -0 
L 242.181818 -0 
L 238.909091 -0 
L 235.636364 -0 
L 232.363636 -0 
L 229.090909 -0 
L 225.818182 -0 
L 222.545455 -0 
L 219.272727 -0 
L 216 -0 
L 212.727273 -0 
L 209.454545 -0 
L 206.181818 -0 
L 202.909091 -0 
L 199.636364 -0 
L 196.363636 -0 
L 193.090909 -0 
L 189.818182 -0 
L 186.545455 -0 
L 183.272727 -0 
L 180 -0 
L 176.727273 -0 
L 173.454545 -0 
L 170.181818 -0 
L 166.909091 -0 
L 163.636364 -0 
L 160.363636 -0 
L 157.090909 -0 
L 153.818182 -0 
L 150.545455 -0 
L 147.272727 -0 
L 144 -0 
L 140.727273 -0 
L 137.454545 -0 
L 134.181818 -0 
L 132.406183 -0 
L 134.181818 0.567323 
L 137.454545 1.565715 
L 140.727273 2.081857 
L 144 2.924623 
L 145.064668 3.276298 
L 147.272727 3.993295 
L 150.545455 4.889743 
L 153.818182 5.874291 
L 155.093928 6.552596 
L 157.090909 7.561219 
L 160.363636 8.298192 
L 163.636364 9.51561 
L 164.055725 9.828894 
L 166.909091 11.743229 
L 170.181818 12.062808 
L 172.756161 13.105191 
L 173.453475 16.381489 
L 170.181818 16.751408 
L 166.909091 16.614822 
L 166.446791 16.381489 
L 163.636364 14.4493 
L 160.363636 15.229847 
L 158.484844 16.381489 
L 158.304085 19.657787 
L 157.090909 19.800311 
L 153.818182 20.087768 
L 150.545455 20.054252 
L 147.272727 19.781461 
L 146.84376 19.657787 
L 144 18.279939 
L 140.727273 17.700225 
L 137.454545 17.162911 
L 135.386209 16.381489 
L 134.181818 15.657492 
L 130.909091 15.078702 
L 127.636364 15.213171 
L 124.363636 13.401102 
L 121.090909 13.559086 
L 117.818182 13.692601 
L 114.545455 13.308364 
L 113.812155 13.105191 
L 111.272727 12.059183 
L 108 11.480748 
L 104.727273 9.979061 
L 104.524789 9.828894 
L 101.454545 8.010995 
L 98.46183 6.552596 
L 98.181818 6.140089 
L 94.909091 5.028835 
L 92.316948 3.276298 
L 91.636364 2.100422 
L 88.363636 2.489185 
L 86.285918 3.276298 
L 87.342184 6.552596 
L 86.585243 9.828894 
L 86.549557 13.105191 
L 85.090909 15.485766 
L 83.646862 13.105191 
L 81.818182 11.274516 
L 80.374135 9.828894 
L 81.818182 6.799608 
L 83.240614 6.552596 
L 81.818182 5.972241 
L 78.545455 4.927183 
L 75.272727 4.636254 
L 72 4.30937 
L 68.727273 3.336245 
L 68.65655 3.276298 
L 65.454545 1.133463 
L 63.936239 -0 
L 62.925563 -0 
L 65.454545 1.887964 
L 67.529111 3.276298 
L 68.727273 4.291896 
L 72 4.975883 
L 75.272727 5.380243 
L 78.545455 6.091318 
L 79.644867 6.552596 
L 79.830792 9.828894 
L 81.818182 11.818451 
L 83.10352 13.105191 
L 85.090909 16.381489 
L 87.098393 13.105191 
L 87.147506 9.828894 
L 88.363636 7.494023 
L 91.636364 7.220896 
L 92.787279 6.552596 
L 94.909091 6.069248 
L 96.068891 6.552596 
L 98.181818 8.27893 
L 101.454545 8.899147 
L 103.024793 9.828894 
L 104.727273 11.091504 
L 108 12.404669 
L 110.477794 13.105191 
L 111.272727 13.417899 
L 114.545455 14.238115 
L 117.818182 14.542067 
L 121.090909 14.847788 
L 124.363636 15.854421 
L 125.453699 16.381489 
L 124.363636 16.612801 
L 122.560616 19.657787 
z
M 123.198144 19.657787 
L 124.363636 17.689474 
L 125.594626 19.657787 
L 124.363636 20.824551 
z
M 45.818182 2.08727 
L 49.090909 2.14532 
L 51.233891 -0 
L 50.756322 -0 
L 49.090909 1.66723 
L 45.818182 1.622116 
L 44.197834 -0 
L 43.733187 -0 
z
M 85.090909 1.146573 
L 85.382775 -0 
L 85.090909 -0 
L 84.416137 -0 
z
M 121.090909 0.196081 
L 124.363636 0.359198 
L 126.851437 -0 
L 124.363636 -0 
L 121.090909 -0 
L 120.578345 -0 
z
" clip-path="url(#p272e4bfa56)" style="fill: #f5f9fe; fill-opacity: 0.9"/>
    <path d="M 163.636364 27.025025 
L 164.49757 26.210383 
L 163.636364 25.046709 
L 162.82261 26.210383 
z
M 163.633567 26.210383 
L 163.636364 26.206384 
L 163.639323 26.210383 
L 163.636364 26.213183 
z
M 124.363636 20.824551 
L 125.594626 19.657787 
L 124.363636 17.689474 
L 123.198144 19.657787 
z
M 123.835672 19.657787 
L 124.363636 18.766147 
L 124.921271 19.657787 
L 124.363636 20.186328 
z
M 147.272727 19.781461 
L 150.545455 20.054252 
L 153.818182 20.087768 
L 157.090909 19.800311 
L 158.304085 19.657787 
L 158.484844 16.381489 
L 160.363636 15.229847 
L 163.636364 14.4493 
L 166.446791 16.381489 
L 166.909091 16.614822 
L 170.181818 16.751408 
L 173.453475 16.381489 
L 172.756161 13.105191 
L 170.181818 12.062808 
L 166.909091 11.743229 
L 164.055725 9.828894 
L 163.636364 9.51561 
L 160.363636 8.298192 
L 157.090909 7.561219 
L 155.093928 6.552596 
L 153.818182 5.874291 
L 150.545455 4.889743 
L 147.272727 3.993295 
L 145.064668 3.276298 
L 144 2.924623 
L 140.727273 2.081857 
L 137.454545 1.565715 
L 134.181818 0.567323 
L 132.406183 -0 
L 130.909091 -0 
L 127.636364 -0 
L 126.851437 -0 
L 124.363636 0.359198 
L 121.090909 0.196081 
L 120.578345 -0 
L 117.818182 -0 
L 114.545455 -0 
L 112.085475 -0 
L 114.545455 1.396713 
L 117.818182 2.617618 
L 121.090909 3.169828 
L 121.760795 3.276298 
L 124.363636 4.445845 
L 127.636364 6.008491 
L 130.909091 6.509742 
L 131.306492 6.552596 
L 134.181818 7.507392 
L 137.454545 9.354517 
L 140.269626 9.828894 
L 140.727273 10.025623 
L 144 11.192459 
L 147.272727 12.481402 
L 147.904684 13.105191 
L 148.687285 16.381489 
L 147.272727 16.716123 
L 144 16.532629 
L 140.727273 16.546041 
L 139.907302 16.381489 
L 137.454545 14.118886 
L 134.181818 13.489636 
L 130.909091 13.645674 
L 127.636364 13.162847 
L 127.534954 13.105191 
L 124.363636 10.837395 
L 121.090909 11.420174 
L 117.818182 11.827738 
L 114.545455 10.679972 
L 111.272727 10.676946 
L 108 10.556826 
L 106.440003 9.828894 
L 104.727273 7.865271 
L 101.454545 7.122843 
L 100.284366 6.552596 
L 98.181818 3.455173 
L 94.909091 3.988422 
L 93.855802 3.276298 
L 94.909091 0.566183 
L 98.181818 1.455731 
L 101.454545 0.420761 
L 104.727273 0.067929 
L 105.255771 -0 
L 104.727273 -0 
L 101.454545 -0 
L 98.181818 -0 
L 94.909091 -0 
L 91.636364 -0 
L 90.596517 -0 
L 88.363636 0.773604 
L 87.437226 -0 
L 85.382775 -0 
L 85.090909 1.146573 
L 84.416137 -0 
L 81.818182 -0 
L 79.783816 -0 
L 81.818182 3.228503 
L 81.84773 3.276298 
L 81.818182 3.294258 
L 78.545455 3.763047 
L 75.272727 3.892265 
L 72 3.642857 
L 70.789779 3.276298 
L 68.727273 2.062236 
L 65.454545 0.378962 
L 64.946914 -0 
L 63.936239 -0 
L 65.454545 1.133463 
L 68.65655 3.276298 
L 68.727273 3.336245 
L 72 4.30937 
L 75.272727 4.636254 
L 78.545455 4.927183 
L 81.818182 5.972241 
L 83.240614 6.552596 
L 81.818182 6.799608 
L 80.374135 9.828894 
L 81.818182 11.274516 
L 83.646862 13.105191 
L 85.090909 15.485766 
L 86.549557 13.105191 
L 86.585243 9.828894 
L 87.342184 6.552596 
L 86.285918 3.276298 
L 88.363636 2.489185 
L 91.636364 2.100422 
L 92.316948 3.276298 
L 94.909091 5.028835 
L 98.181818 6.140089 
L 98.46183 6.552596 
L 101.454545 8.010995 
L 104.524789 9.828894 
L 104.727273 9.979061 
L 108 11.480748 
L 111.272727 12.059183 
L 113.812155 13.105191 
L 114.545455 13.308364 
L 117.818182 13.692601 
L 121.090909 13.559086 
L 124.363636 13.401102 
L 127.636364 15.213171 
L 130.909091 15.078702 
L 134.181818 15.657492 
L 135.386209 16.381489 
L 137.454545 17.162911 
L 140.727273 17.700225 
L 144 18.279939 
L 146.84376 19.657787 
z
M 84.190204 13.105191 
L 81.818182 10.730581 
L 80.917477 9.828894 
L 81.818182 7.939418 
L 85.090909 7.542872 
L 86.022979 9.828894 
L 86.000721 13.105191 
L 85.090909 14.590042 
z
M 45.818182 1.622116 
L 49.090909 1.66723 
L 50.756322 -0 
L 50.278752 -0 
L 49.090909 1.189139 
L 45.818182 1.156962 
L 44.662481 -0 
L 44.197834 -0 
z
" clip-path="url(#p272e4bfa56)" style="fill: #eff6fc; fill-opacity: 0.9"/>
    <path d="M 163.636364 26.213183 
L 163.639323 26.210383 
L 163.636364 26.206384 
L 163.633567 26.210383 
z
M 124.363636 20.186328 
L 124.921271 19.657787 
L 124.363636 18.766147 
L 123.835672 19.657787 
z
M 140.727273 16.546041 
L 144 16.532629 
L 147.272727 16.716123 
L 148.687285 16.381489 
L 147.904684 13.105191 
L 147.272727 12.481402 
L 144 11.192459 
L 140.727273 10.025623 
L 140.269626 9.828894 
L 137.454545 9.354517 
L 134.181818 7.507392 
L 131.306492 6.552596 
L 130.909091 6.509742 
L 127.636364 6.008491 
L 124.363636 4.445845 
L 121.760795 3.276298 
L 121.090909 3.169828 
L 117.818182 2.617618 
L 114.545455 1.396713 
L 112.085475 -0 
L 111.272727 -0 
L 108 -0 
L 105.255771 -0 
L 104.727273 0.067929 
L 101.454545 0.420761 
L 98.181818 1.455731 
L 94.909091 0.566183 
L 93.855802 3.276298 
L 94.909091 3.988422 
L 98.181818 3.455173 
L 100.284366 6.552596 
L 101.454545 7.122843 
L 104.727273 7.865271 
L 106.440003 9.828894 
L 108 10.556826 
L 111.272727 10.676946 
L 114.545455 10.679972 
L 117.818182 11.827738 
L 121.090909 11.420174 
L 124.363636 10.837395 
L 127.534954 13.105191 
L 127.636364 13.162847 
L 130.909091 13.645674 
L 134.181818 13.489636 
L 137.454545 14.118886 
L 139.907302 16.381489 
z
M 85.090909 14.590042 
L 86.000721 13.105191 
L 86.022979 9.828894 
L 85.090909 7.542872 
L 81.818182 7.939418 
L 80.917477 9.828894 
L 81.818182 10.730581 
L 84.190204 13.105191 
z
M 84.733547 13.105191 
L 81.818182 10.186646 
L 81.46082 9.828894 
L 81.818182 9.079228 
L 85.090909 8.921895 
L 85.460716 9.828894 
L 85.451884 13.105191 
L 85.090909 13.694319 
z
M 72 3.642857 
L 75.272727 3.892265 
L 78.545455 3.763047 
L 81.818182 3.294258 
L 81.84773 3.276298 
L 81.818182 3.228503 
L 79.783816 -0 
L 78.545455 -0 
L 75.35465 -0 
L 75.272727 0.319511 
L 72 1.808273 
L 68.727273 0.76692 
L 66.949255 -0 
L 65.454545 -0 
L 64.946914 -0 
L 65.454545 0.378962 
L 68.727273 2.062236 
L 70.789779 3.276298 
z
M 45.818182 1.156962 
L 49.090909 1.189139 
L 50.278752 -0 
L 49.801182 -0 
L 49.090909 0.711048 
L 45.818182 0.691808 
L 45.127128 -0 
L 44.662481 -0 
z
M 88.363636 0.773604 
L 90.596517 -0 
L 88.363636 -0 
L 87.437226 -0 
z
" clip-path="url(#p272e4bfa56)" style="fill: #eaf3fb; fill-opacity: 0.9"/>
    <path d="M 85.090909 13.694319 
L 85.451884 13.105191 
L 85.460716 9.828894 
L 85.090909 8.921895 
L 81.818182 9.079228 
L 81.46082 9.828894 
L 81.818182 10.186646 
L 84.733547 13.105191 
z
M 45.818182 0.691808 
L 49.090909 0.711048 
L 49.801182 -0 
L 49.323613 -0 
L 49.090909 0.232958 
L 45.818182 0.226654 
L 45.591775 -0 
L 45.127128 -0 
z
M 68.727273 0.76692 
L 72 1.808273 
L 75.272727 0.319511 
L 75.35465 -0 
L 75.272727 -0 
L 72 -0 
L 68.727273 -0 
L 66.949255 -0 
z
" clip-path="url(#p272e4bfa56)" style="fill: #e5eff9; fill-opacity: 0.9"/>
    <path d="M 45.818182 0.226654 
L 49.090909 0.232958 
L 49.323613 -0 
L 49.090909 -0 
L 45.818182 -0 
L 45.591775 -0 
z
" clip-path="url(#p272e4bfa56)" style="fill: #dfecf7; fill-opacity: 0.9"/>
    <path clip-path="url(#p272e4bfa56)" style="fill: #dae8f6; fill-opacity: 0.9"/>
    <path clip-path="url(#p272e4bfa56)" style="fill: #d6e5f4; fill-opacity: 0.9"/>
    <path clip-path="url(#p272e4bfa56)" style="fill: #d0e2f2; fill-opacity: 0.9"/>
    <path clip-path="url(#p272e4bfa56)" style="fill: #cbdef1; fill-opacity: 0.9"/>
    <path clip-path="url(#p272e4bfa56)" style="fill: #c6dbef; fill-opacity: 0.9"/>
    <path clip-path="url(#p272e4bfa56)" style="fill: #bed8ec; fill-opacity: 0.9"/>
    <path clip-path="url(#p272e4bfa56)" style="fill: #b5d4e9; fill-opacity: 0.9"/>
    <path clip-path="url(#p272e4bfa56)" style="fill: #add0e6; fill-opacity: 0.9"/>
    <path clip-path="url(#p272e4bfa56)" style="fill: #a5cde3; fill-opacity: 0.9"/>
    <path clip-path="url(#p272e4bfa56)" style="fill: #9cc9e1; fill-opacity: 0.9"/>
    <path clip-path="url(#p272e4bfa56)" style="fill: #91c3de; fill-opacity: 0.9"/>
    <path clip-path="url(#p272e4bfa56)" style="fill: #85bcdc; fill-opacity: 0.9"/>
    <path clip-path="url(#p272e4bfa56)" style="fill: #7cb7da; fill-opacity: 0.9"/>
    <path clip-path="url(#p272e4bfa56)" style="fill: #71b1d7; fill-opacity: 0.9"/>
    <path clip-path="url(#p272e4bfa56)" style="fill: #66abd4; fill-opacity: 0.9"/>
    <path clip-path="url(#p272e4bfa56)" style="fill: #5da5d1; fill-opacity: 0.9"/>
    <path clip-path="url(#p272e4bfa56)" style="fill: #56a0ce; fill-opacity: 0.9"/>
    <path clip-path="url(#p272e4bfa56)" style="fill: #4d99ca; fill-opacity: 0.9"/>
    <path clip-path="url(#p272e4bfa56)" style="fill: #4493c7; fill-opacity: 0.9"/>
    <path clip-path="url(#p272e4bfa56)" style="fill: #3c8cc3; fill-opacity: 0.9"/>
    <path clip-path="url(#p272e4bfa56)" style="fill: #3686c0; fill-opacity: 0.9"/>
    <path clip-path="url(#p272e4bfa56)" style="fill: #2f7fbc; fill-opacity: 0.9"/>
    <path clip-path="url(#p272e4bfa56)" style="fill: #2777b8; fill-opacity: 0.9"/>
    <path clip-path="url(#p272e4bfa56)" style="fill: #2070b4; fill-opacity: 0.9"/>
    <path clip-path="url(#p272e4bfa56)" style="fill: #1c6ab0; fill-opacity: 0.9"/>
    <path clip-path="url(#p272e4bfa56)" style="fill: #1663aa; fill-opacity: 0.9"/>
    <path clip-path="url(#p272e4bfa56)" style="fill: #115ca5; fill-opacity: 0.9"/>
    <path clip-path="url(#p272e4bfa56)" style="fill: #0c56a0; fill-opacity: 0.9"/>
    <path clip-path="url(#p272e4bfa56)" style="fill: #084f99; fill-opacity: 0.9"/>
    <path clip-path="url(#p272e4bfa56)" style="fill: #08488e; fill-opacity: 0.9"/>
    <path clip-path="url(#p272e4bfa56)" style="fill: #084184; fill-opacity: 0.9"/>
    <path clip-path="url(#p272e4bfa56)" style="fill: #083a7a; fill-opacity: 0.9"/>
    <path clip-path="url(#p272e4bfa56)" style="fill: #083370; fill-opacity: 0.9"/>
    <path clip-path="url(#p272e4bfa56)" style="fill: #08306b; fill-opacity: 0.9"/>
   </g>
   <g id="QuadContourSet_2">
    <path d="M 43.733187 -0 
L 45.818182 2.08727 
L 49.090909 2.14532 
L 51.233891 -0 
M 62.925563 -0 
L 65.454545 1.887964 
L 67.529111 3.276298 
L 68.727273 4.291896 
L 72 4.975883 
L 75.272727 5.380243 
L 78.545455 6.091318 
L 79.644867 6.552596 
L 79.830792 9.828894 
L 81.818182 11.818451 
L 83.10352 13.105191 
L 85.090909 16.381489 
L 87.098393 13.105191 
L 87.147506 9.828894 
L 88.363636 7.494023 
L 91.636364 7.220896 
L 92.787279 6.552596 
L 94.909091 6.069248 
L 96.068891 6.552596 
L 98.181818 8.27893 
L 101.454545 8.899147 
L 103.024793 9.828894 
L 104.727273 11.091504 
L 108 12.404669 
L 110.477794 13.105191 
L 111.272727 13.417899 
L 114.545455 14.238115 
L 117.818182 14.542067 
L 121.090909 14.847788 
L 124.363636 15.854421 
L 125.453699 16.381489 
L 124.363636 16.612801 
L 122.560616 19.657787 
L 124.363636 21.462775 
L 126.267981 19.657787 
L 127.636364 16.953863 
L 130.909091 16.521741 
L 134.181818 17.324401 
L 137.454545 18.525377 
L 140.727273 18.854408 
L 143.237465 19.657787 
L 144 19.966554 
L 147.272727 20.821181 
L 150.545455 21.051345 
L 153.818182 21.173483 
L 157.090909 21.13101 
L 160.363636 21.063784 
L 163.636364 20.941269 
L 166.909091 20.442709 
L 168.340416 19.657787 
L 170.181818 19.123964 
L 173.075463 19.657787 
L 173.454545 19.833245 
L 176.727273 20.862808 
L 180 21.195521 
L 183.272727 21.577825 
L 186.545455 22.520745 
L 189.818182 22.041445 
L 193.090909 21.338798 
L 196.363636 20.332573 
L 197.976348 19.657787 
L 199.636364 18.271605 
L 202.909091 18.315095 
L 206.181818 18.229114 
L 209.454545 17.939338 
L 212.727273 18.230988 
L 216 18.915395 
L 218.04739 19.657787 
L 219.272727 19.908903 
L 222.545455 20.400048 
L 225.818182 20.766247 
L 229.090909 20.427299 
L 232.363636 20.041165 
L 235.217168 19.657787 
L 235.636364 19.521838 
L 238.909091 18.799769 
L 242.181818 18.330395 
L 245.454545 18.004167 
L 248.727273 17.764266 
L 252 17.798759 
L 255.272727 17.899842 
L 258.545455 18.033711 
L 261.818182 18.193454 
L 265.090909 18.232365 
L 268.363636 17.614707 
L 271.636364 16.895488 
L 273.686281 16.381489 
L 274.909091 16.014383 
L 278.181818 15.331995 
L 281.454545 14.897894 
L 284.727273 14.932136 
L 288 15.02984 
L 291.272727 15.149486 
L 294.545455 15.28767 
L 297.818182 15.448389 
L 301.090909 15.637646 
L 304.363636 15.22096 
L 307.636364 14.10146 
L 310.909091 13.184933 
L 311.224955 13.105191 
L 314.181818 12.257859 
L 317.454545 11.70059 
L 320.727273 11.339174 
L 321.040056 11.314958 
M 340.057088 10.29457 
L 340.363636 10.279915 
L 343.261588 9.828894 
L 343.636364 9.626232 
L 346.909091 8.46043 
L 350.181818 7.92371 
L 353.454545 7.615073 
L 356.727273 7.41461 
L 360 7.066207 
L 363.023911 6.552596 
L 363.272727 6.399919 
L 366.545455 5.200408 
L 369.818182 4.654206 
L 373.090909 4.341817 
L 376.363636 4.139578 
L 379.636364 3.842325 
L 382.909091 3.340546 
L 383.328134 3.276298 
L 386.181818 2.18572 
L 389.454545 1.582452 
L 392.727273 1.240555 
L 396 1.020413 
L 399.272727 0.737768 
L 402.545455 0.226244 
L 403.999489 -0 
M 163.636364 27.836866 
L 165.355816 26.210383 
L 163.636364 23.887034 
L 162.011653 26.210383 
L 163.636364 27.836866 
z
M 199.636364 27.112121 
L 202.909091 27.112121 
L 203.737831 26.210383 
L 202.909091 24.510156 
L 199.636364 24.360113 
L 198.735609 26.210383 
L 199.636364 27.112121 
z
" clip-path="url(#p272e4bfa56)" style="fill: none"/>
    <path d="M 44.197834 -0 
L 45.818182 1.622116 
L 49.090909 1.66723 
L 50.756322 -0 
M 63.936239 -0 
L 65.454545 1.133463 
L 68.65655 3.276298 
L 68.727273 3.336245 
L 72 4.30937 
L 75.272727 4.636254 
L 78.545455 4.927183 
L 81.818182 5.972241 
L 83.240614 6.552596 
L 81.818182 6.799608 
L 80.374135 9.828894 
L 81.818182 11.274516 
L 83.646862 13.105191 
L 85.090909 15.485766 
L 86.549557 13.105191 
L 86.585243 9.828894 
L 87.342184 6.552596 
L 86.285918 3.276298 
L 88.363636 2.489185 
L 91.636364 2.100422 
L 92.316948 3.276298 
L 94.909091 5.028835 
L 98.181818 6.140089 
L 98.46183 6.552596 
L 101.454545 8.010995 
L 104.524789 9.828894 
L 104.727273 9.979061 
L 108 11.480748 
L 111.272727 12.059183 
L 113.812155 13.105191 
L 114.545455 13.308364 
L 117.818182 13.692601 
L 121.090909 13.559086 
L 124.363636 13.401102 
L 127.636364 15.213171 
L 130.909091 15.078702 
L 134.181818 15.657492 
L 135.386209 16.381489 
L 137.454545 17.162911 
L 140.727273 17.700225 
L 144 18.279939 
L 146.84376 19.657787 
L 147.272727 19.781461 
L 150.545455 20.054252 
L 153.818182 20.087768 
L 157.090909 19.800311 
L 158.304085 19.657787 
L 158.484844 16.381489 
L 160.363636 15.229847 
L 163.636364 14.4493 
L 166.446791 16.381489 
L 166.909091 16.614822 
L 170.181818 16.751408 
L 173.453475 16.381489 
L 172.756161 13.105191 
L 170.181818 12.062808 
L 166.909091 11.743229 
L 164.055725 9.828894 
L 163.636364 9.51561 
L 160.363636 8.298192 
L 157.090909 7.561219 
L 155.093928 6.552596 
L 154.218701 6.087244 
M 135.76131 1.04917 
L 134.181818 0.567323 
L 132.406183 -0 
M 85.382775 -0 
L 85.090909 1.146573 
L 84.416137 -0 
M 126.851437 -0 
L 124.363636 0.359198 
L 121.090909 0.196081 
L 120.578345 -0 
M 163.636364 27.025025 
L 164.49757 26.210383 
L 163.636364 25.046709 
L 162.82261 26.210383 
L 163.636364 27.025025 
z
M 124.363636 20.824551 
L 125.594626 19.657787 
L 124.363636 17.689474 
L 123.198144 19.657787 
L 124.363636 20.824551 
z
" clip-path="url(#p272e4bfa56)" style="fill: none"/>
    <path d="M 44.662481 -0 
L 45.818182 1.156962 
L 49.090909 1.189139 
L 50.278752 -0 
M 64.946914 -0 
L 65.454545 0.378962 
L 66.371641 0.850655 
M 80.260031 0.755745 
L 79.783816 -0 
M 87.437226 -0 
L 88.363636 0.773604 
L 90.596517 -0 
M 105.255771 -0 
L 104.727273 0.067929 
L 101.454545 0.420761 
L 98.181818 1.455731 
L 94.909091 0.566183 
L 93.855802 3.276298 
L 94.909091 3.988422 
L 98.181818 3.455173 
L 100.284366 6.552596 
L 101.454545 7.122843 
L 104.727273 7.865271 
L 106.440003 9.828894 
L 108 10.556826 
L 111.272727 10.676946 
L 114.545455 10.679972 
L 117.818182 11.827738 
L 121.090909 11.420174 
L 124.363636 10.837395 
L 127.534954 13.105191 
L 127.636364 13.162847 
L 130.909091 13.645674 
L 134.181818 13.489636 
L 137.454545 14.118886 
L 139.907302 16.381489 
L 140.727273 16.546041 
L 144 16.532629 
L 147.272727 16.716123 
L 148.687285 16.381489 
L 147.904684 13.105191 
L 147.272727 12.481402 
L 144 11.192459 
L 140.727273 10.025623 
L 140.269626 9.828894 
L 140.216806 9.819993 
M 122.310682 3.523381 
L 121.760795 3.276298 
L 121.090909 3.169828 
L 117.818182 2.617618 
L 114.545455 1.396713 
L 112.085475 -0 
M 163.636364 26.213183 
L 163.639323 26.210383 
L 163.636364 26.206384 
L 163.633567 26.210383 
L 163.636364 26.213183 
z
M 124.363636 20.186328 
L 124.921271 19.657787 
L 124.363636 18.766147 
L 123.835672 19.657787 
L 124.363636 20.186328 
z
M 85.090909 14.590042 
L 86.000721 13.105191 
L 86.022979 9.828894 
L 85.090909 7.542872 
L 81.818182 7.939418 
L 80.917477 9.828894 
L 81.818182 10.730581 
L 84.190204 13.105191 
L 85.090909 14.590042 
z
" clip-path="url(#p272e4bfa56)" style="fill: none"/>
    <path d="M 45.127128 -0 
L 45.818182 0.691808 
L 49.090909 0.711048 
L 49.801182 -0 
M 66.949255 -0 
L 68.727273 0.76692 
L 72 1.808273 
L 75.272727 0.319511 
L 75.35465 -0 
M 85.090909 13.694319 
L 85.451884 13.105191 
L 85.460716 9.828894 
L 85.090909 8.921895 
L 81.818182 9.079228 
L 81.46082 9.828894 
L 81.818182 10.186646 
L 84.733547 13.105191 
L 85.090909 13.694319 
z
" clip-path="url(#p272e4bfa56)" style="fill: none"/>
    <path d="M 45.591775 -0 
L 45.818182 0.226654 
L 49.090909 0.232958 
L 49.323613 -0 
" clip-path="url(#p272e4bfa56)" style="fill: none"/>
    <path clip-path="url(#p272e4bfa56)" style="fill: none"/>
    <path clip-path="url(#p272e4bfa56)" style="fill: none"/>
    <path clip-path="url(#p272e4bfa56)" style="fill: none"/>
    <path clip-path="url(#p272e4bfa56)" style="fill: none"/>
    <path clip-path="url(#p272e4bfa56)" style="fill: none"/>
    <path clip-path="url(#p272e4bfa56)" style="fill: none"/>
    <path clip-path="url(#p272e4bfa56)" style="fill: none"/>
    <path clip-path="url(#p272e4bfa56)" style="fill: none"/>
    <path clip-path="url(#p272e4bfa56)" style="fill: none"/>
    <path clip-path="url(#p272e4bfa56)" style="fill: none"/>
    <path clip-path="url(#p272e4bfa56)" style="fill: none"/>
    <path clip-path="url(#p272e4bfa56)" style="fill: none"/>
    <path clip-path="url(#p272e4bfa56)" style="fill: none"/>
    <path clip-path="url(#p272e4bfa56)" style="fill: none"/>
    <path clip-path="url(#p272e4bfa56)" style="fill: none"/>
    <path clip-path="url(#p272e4bfa56)" style="fill: none"/>
    <path clip-path="url(#p272e4bfa56)" style="fill: none"/>
    <path clip-path="url(#p272e4bfa56)" style="fill: none"/>
    <path clip-path="url(#p272e4bfa56)" style="fill: none"/>
    <path clip-path="url(#p272e4bfa56)" style="fill: none"/>
    <path clip-path="url(#p272e4bfa56)" style="fill: none"/>
    <path clip-path="url(#p272e4bfa56)" style="fill: none"/>
    <path clip-path="url(#p272e4bfa56)" style="fill: none"/>
    <path clip-path="url(#p272e4bfa56)" style="fill: none"/>
    <path clip-path="url(#p272e4bfa56)" style="fill: none"/>
    <path clip-path="url(#p272e4bfa56)" style="fill: none"/>
    <path clip-path="url(#p272e4bfa56)" style="fill: none"/>
    <path clip-path="url(#p272e4bfa56)" style="fill: none"/>
    <path clip-path="url(#p272e4bfa56)" style="fill: none"/>
    <path clip-path="url(#p272e4bfa56)" style="fill: none"/>
    <path clip-path="url(#p272e4bfa56)" style="fill: none"/>
    <path clip-path="url(#p272e4bfa56)" style="fill: none"/>
    <path clip-path="url(#p272e4bfa56)" style="fill: none"/>
    <path clip-path="url(#p272e4bfa56)" style="fill: none"/>
   </g>
   <g id="text_1">
    <g clip-path="url(#p272e4bfa56)">
     <!-- 0 -->
     <g style="opacity: 0" transform="translate(326.892096 14.245478) rotate(-2.76441) scale(0.12 -0.12)">
      <defs>
       <path id="DejaVuSans-30" d="M 2034 4250 
Q 1547 4250 1301 3770 
Q 1056 3291 1056 2328 
Q 1056 1369 1301 889 
Q 1547 409 2034 409 
Q 2525 409 2770 889 
Q 3016 1369 3016 2328 
Q 3016 3291 2770 3770 
Q 2525 4250 2034 4250 
z
M 2034 4750 
Q 2819 4750 3233 4129 
Q 3647 3509 3647 2328 
Q 3647 1150 3233 529 
Q 2819 -91 2034 -91 
Q 1250 -91 836 529 
Q 422 1150 422 2328 
Q 422 3509 836 4129 
Q 1250 4750 2034 4750 
z
" transform="scale(0.015625)"/>
      </defs>
      <use xlink:href="#DejaVuSans-30"/>
     </g>
    </g>
   </g>
   <g id="text_2">
    <g clip-path="url(#p272e4bfa56)">
     <!-- 1 -->
     <g style="opacity: 0" transform="translate(140.497144 5.438566) rotate(-344.394949) scale(0.12 -0.12)">
      <defs>
       <path id="DejaVuSans-31" d="M 794 531 
L 1825 531 
L 1825 4091 
L 703 3866 
L 703 4441 
L 1819 4666 
L 2450 4666 
L 2450 531 
L 3481 531 
L 3481 0 
L 794 0 
L 794 531 
z
" transform="scale(0.015625)"/>
      </defs>
      <use xlink:href="#DejaVuSans-31"/>
     </g>
    </g>
   </g>
   <g id="text_3">
    <g clip-path="url(#p272e4bfa56)">
     <!-- 2 -->
     <g style="opacity: 0" transform="translate(71.307581 7.025203) rotate(-357.374998) scale(0.12 -0.12)">
      <defs>
       <path id="DejaVuSans-32" d="M 1228 531 
L 3431 531 
L 3431 0 
L 469 0 
L 469 531 
Q 828 903 1448 1529 
Q 2069 2156 2228 2338 
Q 2531 2678 2651 2914 
Q 2772 3150 2772 3378 
Q 2772 3750 2511 3984 
Q 2250 4219 1831 4219 
Q 1534 4219 1204 4116 
Q 875 4013 500 3803 
L 500 4441 
Q 881 4594 1212 4672 
Q 1544 4750 1819 4750 
Q 2544 4750 2975 4387 
Q 3406 4025 3406 3419 
Q 3406 3131 3298 2873 
Q 3191 2616 2906 2266 
Q 2828 2175 2409 1742 
Q 1991 1309 1228 531 
z
" transform="scale(0.015625)"/>
      </defs>
      <use xlink:href="#DejaVuSans-32"/>
     </g>
    </g>
   </g>
   <g id="text_4">
    <g clip-path="url(#p272e4bfa56)">
     <!-- 2 -->
     <g style="opacity: 0" transform="translate(126.668 8.558107) rotate(-342.443909) scale(0.12 -0.12)">
      <use xlink:href="#DejaVuSans-32"/>
     </g>
    </g>
   </g>
  </g>
 </g>
 <defs>
  <clipPath id="p272e4bfa56">
   <rect x="0" y="0" width="576" height="815.79817"/>
  </clipPath>
 </defs>
</svg>
